<?xml version="1.0" encoding="UTF-8" standalone="no"?>
<!DOCTYPE svg PUBLIC "-//W3C//DTD SVG 1.1//EN"
 "http://www.w3.org/Graphics/SVG/1.1/DTD/svg11.dtd">
<!-- Generated by graphviz version 2.40.1 (20161225.0304)
 -->
<!-- Title: config Pages: 1 -->
<svg width="169pt" height="128pt"
 viewBox="0.00 0.00 169.00 128.00" xmlns="http://www.w3.org/2000/svg" xmlns:xlink="http://www.w3.org/1999/xlink">
<g id="graph0" class="graph" transform="scale(1 1) rotate(0) translate(4 124)">
<title>config</title>
<polygon fill="#ffffff" stroke="transparent" points="-4,4 -4,-124 165,-124 165,4 -4,4"/>
<!-- config -->
<g id="node1" class="node">
<title>config</title>
<g id="a_node1"><a xlink:href="../../tables/config.html" xlink:title="config" target="_top">
<polygon fill="#ffffff" stroke="transparent" points="8,-4 8,-116 153,-116 153,-4 8,-4"/>
<polygon fill="#f5f5f5" stroke="transparent" points="10.5,-91 10.5,-114 151.5,-114 151.5,-91 10.5,-91"/>
<polygon fill="none" stroke="#000000" points="10.5,-91 10.5,-114 151.5,-114 151.5,-91 10.5,-91"/>
<text text-anchor="start" x="15.5" y="-100.1" font-family="Helvetica,sans-Serif" font-weight="bold" font-size="11.00" fill="#000000">config</text>
<text text-anchor="start" x="116.5437" y="-99.1" font-family="Helvetica,sans-Serif" font-size="11.00" fill="#000000">[table]</text>
<polygon fill="#ffffff" stroke="transparent" points="10.5,-69 10.5,-91 90.5,-91 90.5,-69 10.5,-69"/>
<polygon fill="none" stroke="#000000" points="10.5,-69 10.5,-91 90.5,-91 90.5,-69 10.5,-69"/>
<text text-anchor="start" x="30.5" y="-76.1" font-family="Helvetica,sans-Serif" font-size="11.00" fill="#000000">category</text>
<polygon fill="none" stroke="#000000" points="90.5,-69 90.5,-91 151.5,-91 151.5,-69 90.5,-69"/>
<text text-anchor="start" x="93.494" y="-76.7" font-family="Helvetica,sans-Serif" font-size="11.00" fill="#000000">varchar[32]</text>
<polygon fill="none" stroke="#000000" points="10.5,-47 10.5,-69 90.5,-69 90.5,-47 10.5,-47"/>
<text text-anchor="start" x="30.5" y="-54.1" font-family="Helvetica,sans-Serif" font-size="11.00" fill="#000000">name</text>
<polygon fill="none" stroke="#000000" points="90.5,-47 90.5,-69 151.5,-69 151.5,-47 90.5,-47"/>
<text text-anchor="start" x="93.494" y="-54.7" font-family="Helvetica,sans-Serif" font-size="11.00" fill="#000000">varchar[32]</text>
<polygon fill="none" stroke="#000000" points="10.5,-25 10.5,-47 90.5,-47 90.5,-25 10.5,-25"/>
<text text-anchor="start" x="30.5" y="-32.1" font-family="Helvetica,sans-Serif" font-size="11.00" fill="#000000">value</text>
<polygon fill="none" stroke="#000000" points="90.5,-25 90.5,-47 151.5,-47 151.5,-25 90.5,-25"/>
<text text-anchor="start" x="93.5" y="-32.7" font-family="Helvetica,sans-Serif" font-size="11.00" fill="#000000">text[65535]</text>
<polygon fill="#ffffff" stroke="transparent" points="10.5,-6 10.5,-25 54.5,-25 54.5,-6 10.5,-6"/>
<polygon fill="none" stroke="#000000" points="10.5,-6 10.5,-25 54.5,-25 54.5,-6 10.5,-6"/>
<text text-anchor="start" x="13.5" y="-12.1" font-family="Helvetica,sans-Serif" font-size="11.00" fill="#000000">&lt; 0</text>
<polygon fill="#ffffff" stroke="transparent" points="54.5,-6 54.5,-25 90.5,-25 90.5,-6 54.5,-6"/>
<polygon fill="none" stroke="#000000" points="54.5,-6 54.5,-25 90.5,-25 90.5,-6 54.5,-6"/>
<text text-anchor="start" x="81.3862" y="-12.1" font-family="Helvetica,sans-Serif" font-size="11.00" fill="#000000"> &#160;</text>
<polygon fill="#ffffff" stroke="transparent" points="90.5,-6 90.5,-25 151.5,-25 151.5,-6 90.5,-6"/>
<polygon fill="none" stroke="#000000" points="90.5,-6 90.5,-25 151.5,-25 151.5,-6 90.5,-6"/>
<text text-anchor="start" x="132.9053" y="-12.1" font-family="Helvetica,sans-Serif" font-size="11.00" fill="#000000">0 &gt;</text>
<polygon fill="none" stroke="#000000" stroke-width="2" points="9,-5 9,-115 152,-115 152,-5 9,-5"/>
</a>
</g>
</g>
</g>
</svg>
