<?xml version="1.0" encoding="UTF-8" standalone="no"?>
<!DOCTYPE svg PUBLIC "-//W3C//DTD SVG 1.1//EN"
 "http://www.w3.org/Graphics/SVG/1.1/DTD/svg11.dtd">
<!-- Generated by graphviz version 2.40.1 (20161225.0304)
 -->
<!-- Title: cron_remove_documents Pages: 1 -->
<svg width="282pt" height="150pt"
 viewBox="0.00 0.00 282.00 150.00" xmlns="http://www.w3.org/2000/svg" xmlns:xlink="http://www.w3.org/1999/xlink">
<g id="graph0" class="graph" transform="scale(1 1) rotate(0) translate(4 146)">
<title>cron_remove_documents</title>
<polygon fill="#ffffff" stroke="transparent" points="-4,4 -4,-146 278,-146 278,4 -4,4"/>
<!-- cron_remove_documents -->
<g id="node1" class="node">
<title>cron_remove_documents</title>
<g id="a_node1"><a xlink:href="../../tables/cron_remove_documents.html" xlink:title="cron_remove_documents" target="_top">
<polygon fill="#ffffff" stroke="transparent" points="8,-4 8,-138 266,-138 266,-4 8,-4"/>
<polygon fill="#f5f5f5" stroke="transparent" points="10,-113 10,-136 264,-136 264,-113 10,-113"/>
<polygon fill="none" stroke="#000000" points="10,-113 10,-136 264,-136 264,-113 10,-113"/>
<text text-anchor="start" x="15" y="-122.1" font-family="Helvetica,sans-Serif" font-weight="bold" font-size="11.00" fill="#000000">cron_remove_documents</text>
<text text-anchor="start" x="229.0437" y="-121.1" font-family="Helvetica,sans-Serif" font-size="11.00" fill="#000000">[table]</text>
<polygon fill="none" stroke="#000000" points="10,-91 10,-113 198,-113 198,-91 10,-91"/>
<image xlink:href="../../images/primaryKeys.png" width="11px" height="12px" preserveAspectRatio="xMinYMin meet" x="15" y="-108"/>
<text text-anchor="start" x="30" y="-98.1" font-family="Helvetica,sans-Serif" font-size="11.00" fill="#000000">id</text>
<polygon fill="none" stroke="#000000" points="198,-91 198,-113 264,-113 264,-91 198,-91"/>
<text text-anchor="start" x="201" y="-98.7" font-family="Helvetica,sans-Serif" font-size="11.00" fill="#000000">varchar[36]</text>
<polygon fill="#ffffff" stroke="transparent" points="10,-69 10,-91 198,-91 198,-69 10,-69"/>
<polygon fill="none" stroke="#000000" points="10,-69 10,-91 198,-91 198,-69 10,-69"/>
<text text-anchor="start" x="30" y="-76.1" font-family="Helvetica,sans-Serif" font-size="11.00" fill="#000000">bean_id</text>
<polygon fill="none" stroke="#000000" points="198,-69 198,-91 264,-91 264,-69 198,-69"/>
<text text-anchor="start" x="201" y="-76.7" font-family="Helvetica,sans-Serif" font-size="11.00" fill="#000000">varchar[36]</text>
<polygon fill="none" stroke="#000000" points="10,-47 10,-69 198,-69 198,-47 10,-47"/>
<text text-anchor="start" x="30" y="-54.1" font-family="Helvetica,sans-Serif" font-size="11.00" fill="#000000">module</text>
<polygon fill="none" stroke="#000000" points="198,-47 198,-69 264,-69 264,-47 198,-47"/>
<text text-anchor="start" x="201" y="-54.7" font-family="Helvetica,sans-Serif" font-size="11.00" fill="#000000">varchar[25]</text>
<polygon fill="#ffffff" stroke="transparent" points="10,-25 10,-47 198,-47 198,-25 10,-25"/>
<polygon fill="none" stroke="#000000" points="10,-25 10,-47 198,-47 198,-25 10,-25"/>
<text text-anchor="start" x="30" y="-32.1" font-family="Helvetica,sans-Serif" font-size="11.00" fill="#000000">date_modified</text>
<polygon fill="none" stroke="#000000" points="198,-25 198,-47 264,-47 264,-25 198,-25"/>
<text text-anchor="start" x="200.7401" y="-32.7" font-family="Helvetica,sans-Serif" font-size="11.00" fill="#000000">datetime[26]</text>
<polygon fill="#ffffff" stroke="transparent" points="10,-6 10,-25 108,-25 108,-6 10,-6"/>
<polygon fill="none" stroke="#000000" points="10,-6 10,-25 108,-25 108,-6 10,-6"/>
<text text-anchor="start" x="13" y="-12.1" font-family="Helvetica,sans-Serif" font-size="11.00" fill="#000000">&lt; 0</text>
<polygon fill="#ffffff" stroke="transparent" points="108,-6 108,-25 198,-25 198,-6 108,-6"/>
<polygon fill="none" stroke="#000000" points="108,-6 108,-25 198,-25 198,-6 108,-6"/>
<text text-anchor="start" x="188.8862" y="-12.1" font-family="Helvetica,sans-Serif" font-size="11.00" fill="#000000"> &#160;</text>
<polygon fill="#ffffff" stroke="transparent" points="198,-6 198,-25 264,-25 264,-6 198,-6"/>
<polygon fill="none" stroke="#000000" points="198,-6 198,-25 264,-25 264,-6 198,-6"/>
<text text-anchor="start" x="245.4053" y="-12.1" font-family="Helvetica,sans-Serif" font-size="11.00" fill="#000000">0 &gt;</text>
<polygon fill="none" stroke="#000000" stroke-width="2" points="9,-5 9,-137 265,-137 265,-5 9,-5"/>
</a>
</g>
</g>
</g>
</svg>
