<?xml version="1.0" encoding="UTF-8" standalone="no"?>
<!DOCTYPE svg PUBLIC "-//W3C//DTD SVG 1.1//EN"
 "http://www.w3.org/Graphics/SVG/1.1/DTD/svg11.dtd">
<!-- Generated by graphviz version 2.40.1 (20161225.0304)
 -->
<!-- Title: custom_fields Pages: 1 -->
<svg width="208pt" height="348pt"
 viewBox="0.00 0.00 208.00 348.00" xmlns="http://www.w3.org/2000/svg" xmlns:xlink="http://www.w3.org/1999/xlink">
<g id="graph0" class="graph" transform="scale(1 1) rotate(0) translate(4 344)">
<title>custom_fields</title>
<polygon fill="#ffffff" stroke="transparent" points="-4,4 -4,-344 204,-344 204,4 -4,4"/>
<!-- custom_fields -->
<g id="node1" class="node">
<title>custom_fields</title>
<g id="a_node1"><a xlink:href="../../tables/custom_fields.html" xlink:title="custom_fields" target="_top">
<polygon fill="#ffffff" stroke="transparent" points="8,-4 8,-336 192,-336 192,-4 8,-4"/>
<polygon fill="#f5f5f5" stroke="transparent" points="10,-311 10,-334 190,-334 190,-311 10,-311"/>
<polygon fill="none" stroke="#000000" points="10,-311 10,-334 190,-334 190,-311 10,-311"/>
<text text-anchor="start" x="15" y="-320.1" font-family="Helvetica,sans-Serif" font-weight="bold" font-size="11.00" fill="#000000">custom_fields</text>
<text text-anchor="start" x="155.0437" y="-319.1" font-family="Helvetica,sans-Serif" font-size="11.00" fill="#000000">[table]</text>
<polygon fill="#ffffff" stroke="transparent" points="10,-289 10,-311 123,-311 123,-289 10,-289"/>
<polygon fill="none" stroke="#000000" points="10,-289 10,-311 123,-311 123,-289 10,-289"/>
<text text-anchor="start" x="30" y="-296.1" font-family="Helvetica,sans-Serif" font-size="11.00" fill="#000000">bean_id</text>
<polygon fill="none" stroke="#000000" points="123,-289 123,-311 190,-311 190,-289 123,-289"/>
<text text-anchor="start" x="126" y="-296.7" font-family="Helvetica,sans-Serif" font-size="11.00" fill="#000000">varchar[36]</text>
<polygon fill="#ffffff" stroke="transparent" points="10,-267 10,-289 123,-289 123,-267 10,-267"/>
<polygon fill="none" stroke="#000000" points="10,-267 10,-289 123,-289 123,-267 10,-267"/>
<text text-anchor="start" x="30" y="-274.1" font-family="Helvetica,sans-Serif" font-size="11.00" fill="#000000">set_num</text>
<polygon fill="none" stroke="#000000" points="123,-267 123,-289 190,-289 190,-267 123,-267"/>
<text text-anchor="start" x="126" y="-274.7" font-family="Helvetica,sans-Serif" font-size="11.00" fill="#000000">int[10]</text>
<polygon fill="none" stroke="#000000" points="10,-245 10,-267 123,-267 123,-245 10,-245"/>
<text text-anchor="start" x="30" y="-252.1" font-family="Helvetica,sans-Serif" font-size="11.00" fill="#000000">field0</text>
<polygon fill="none" stroke="#000000" points="123,-245 123,-267 190,-267 190,-245 123,-245"/>
<text text-anchor="start" x="125.9365" y="-252.7" font-family="Helvetica,sans-Serif" font-size="11.00" fill="#000000">varchar[255]</text>
<polygon fill="none" stroke="#000000" points="10,-223 10,-245 123,-245 123,-223 10,-223"/>
<text text-anchor="start" x="30" y="-230.1" font-family="Helvetica,sans-Serif" font-size="11.00" fill="#000000">field1</text>
<polygon fill="none" stroke="#000000" points="123,-223 123,-245 190,-245 190,-223 123,-223"/>
<text text-anchor="start" x="125.9365" y="-230.7" font-family="Helvetica,sans-Serif" font-size="11.00" fill="#000000">varchar[255]</text>
<polygon fill="none" stroke="#000000" points="10,-201 10,-223 123,-223 123,-201 10,-201"/>
<text text-anchor="start" x="30" y="-208.1" font-family="Helvetica,sans-Serif" font-size="11.00" fill="#000000">field2</text>
<polygon fill="none" stroke="#000000" points="123,-201 123,-223 190,-223 190,-201 123,-201"/>
<text text-anchor="start" x="125.9365" y="-208.7" font-family="Helvetica,sans-Serif" font-size="11.00" fill="#000000">varchar[255]</text>
<polygon fill="none" stroke="#000000" points="10,-179 10,-201 123,-201 123,-179 10,-179"/>
<text text-anchor="start" x="30" y="-186.1" font-family="Helvetica,sans-Serif" font-size="11.00" fill="#000000">field3</text>
<polygon fill="none" stroke="#000000" points="123,-179 123,-201 190,-201 190,-179 123,-179"/>
<text text-anchor="start" x="125.9365" y="-186.7" font-family="Helvetica,sans-Serif" font-size="11.00" fill="#000000">varchar[255]</text>
<polygon fill="none" stroke="#000000" points="10,-157 10,-179 123,-179 123,-157 10,-157"/>
<text text-anchor="start" x="30" y="-164.1" font-family="Helvetica,sans-Serif" font-size="11.00" fill="#000000">field4</text>
<polygon fill="none" stroke="#000000" points="123,-157 123,-179 190,-179 190,-157 123,-157"/>
<text text-anchor="start" x="125.9365" y="-164.7" font-family="Helvetica,sans-Serif" font-size="11.00" fill="#000000">varchar[255]</text>
<polygon fill="none" stroke="#000000" points="10,-135 10,-157 123,-157 123,-135 10,-135"/>
<text text-anchor="start" x="30" y="-142.1" font-family="Helvetica,sans-Serif" font-size="11.00" fill="#000000">field5</text>
<polygon fill="none" stroke="#000000" points="123,-135 123,-157 190,-157 190,-135 123,-135"/>
<text text-anchor="start" x="125.9365" y="-142.7" font-family="Helvetica,sans-Serif" font-size="11.00" fill="#000000">varchar[255]</text>
<polygon fill="none" stroke="#000000" points="10,-113 10,-135 123,-135 123,-113 10,-113"/>
<text text-anchor="start" x="30" y="-120.1" font-family="Helvetica,sans-Serif" font-size="11.00" fill="#000000">field6</text>
<polygon fill="none" stroke="#000000" points="123,-113 123,-135 190,-135 190,-113 123,-113"/>
<text text-anchor="start" x="125.9365" y="-120.7" font-family="Helvetica,sans-Serif" font-size="11.00" fill="#000000">varchar[255]</text>
<polygon fill="none" stroke="#000000" points="10,-91 10,-113 123,-113 123,-91 10,-91"/>
<text text-anchor="start" x="30" y="-98.1" font-family="Helvetica,sans-Serif" font-size="11.00" fill="#000000">field7</text>
<polygon fill="none" stroke="#000000" points="123,-91 123,-113 190,-113 190,-91 123,-91"/>
<text text-anchor="start" x="125.9365" y="-98.7" font-family="Helvetica,sans-Serif" font-size="11.00" fill="#000000">varchar[255]</text>
<polygon fill="none" stroke="#000000" points="10,-69 10,-91 123,-91 123,-69 10,-69"/>
<text text-anchor="start" x="30" y="-76.1" font-family="Helvetica,sans-Serif" font-size="11.00" fill="#000000">field8</text>
<polygon fill="none" stroke="#000000" points="123,-69 123,-91 190,-91 190,-69 123,-69"/>
<text text-anchor="start" x="125.9365" y="-76.7" font-family="Helvetica,sans-Serif" font-size="11.00" fill="#000000">varchar[255]</text>
<polygon fill="none" stroke="#000000" points="10,-47 10,-69 123,-69 123,-47 10,-47"/>
<text text-anchor="start" x="30" y="-54.1" font-family="Helvetica,sans-Serif" font-size="11.00" fill="#000000">field9</text>
<polygon fill="none" stroke="#000000" points="123,-47 123,-69 190,-69 190,-47 123,-47"/>
<text text-anchor="start" x="125.9365" y="-54.7" font-family="Helvetica,sans-Serif" font-size="11.00" fill="#000000">varchar[255]</text>
<polygon fill="none" stroke="#000000" points="10,-25 10,-47 123,-47 123,-25 10,-25"/>
<text text-anchor="start" x="30" y="-32.1" font-family="Helvetica,sans-Serif" font-size="11.00" fill="#000000">deleted</text>
<polygon fill="none" stroke="#000000" points="123,-25 123,-47 190,-47 190,-25 123,-25"/>
<text text-anchor="start" x="126" y="-32.7" font-family="Helvetica,sans-Serif" font-size="11.00" fill="#000000">bit[1]</text>
<polygon fill="#ffffff" stroke="transparent" points="10,-6 10,-25 71,-25 71,-6 10,-6"/>
<polygon fill="none" stroke="#000000" points="10,-6 10,-25 71,-25 71,-6 10,-6"/>
<text text-anchor="start" x="13" y="-12.1" font-family="Helvetica,sans-Serif" font-size="11.00" fill="#000000">&lt; 0</text>
<polygon fill="#ffffff" stroke="transparent" points="71,-6 71,-25 123,-25 123,-6 71,-6"/>
<polygon fill="none" stroke="#000000" points="71,-6 71,-25 123,-25 123,-6 71,-6"/>
<text text-anchor="start" x="113.8862" y="-12.1" font-family="Helvetica,sans-Serif" font-size="11.00" fill="#000000"> &#160;</text>
<polygon fill="#ffffff" stroke="transparent" points="123,-6 123,-25 190,-25 190,-6 123,-6"/>
<polygon fill="none" stroke="#000000" points="123,-6 123,-25 190,-25 190,-6 123,-6"/>
<text text-anchor="start" x="171.4053" y="-12.1" font-family="Helvetica,sans-Serif" font-size="11.00" fill="#000000">0 &gt;</text>
<polygon fill="none" stroke="#000000" stroke-width="2" points="9,-5 9,-335 191,-335 191,-5 9,-5"/>
</a>
</g>
</g>
</g>
</svg>
