<?xml version="1.0" encoding="UTF-8" standalone="no"?>
<!DOCTYPE svg PUBLIC "-//W3C//DTD SVG 1.1//EN"
 "http://www.w3.org/Graphics/SVG/1.1/DTD/svg11.dtd">
<!-- Generated by graphviz version 2.40.1 (20161225.0304)
 -->
<!-- Title: email_cache Pages: 1 -->
<svg width="213pt" height="414pt"
 viewBox="0.00 0.00 213.00 414.00" xmlns="http://www.w3.org/2000/svg" xmlns:xlink="http://www.w3.org/1999/xlink">
<g id="graph0" class="graph" transform="scale(1 1) rotate(0) translate(4 410)">
<title>email_cache</title>
<polygon fill="#ffffff" stroke="transparent" points="-4,4 -4,-410 209,-410 209,4 -4,4"/>
<!-- email_cache -->
<g id="node1" class="node">
<title>email_cache</title>
<g id="a_node1"><a xlink:href="../../tables/email_cache.html" xlink:title="email_cache" target="_top">
<polygon fill="#ffffff" stroke="transparent" points="8,-4 8,-402 197,-402 197,-4 8,-4"/>
<polygon fill="#f5f5f5" stroke="transparent" points="10.5,-377 10.5,-400 195.5,-400 195.5,-377 10.5,-377"/>
<polygon fill="none" stroke="#000000" points="10.5,-377 10.5,-400 195.5,-400 195.5,-377 10.5,-377"/>
<text text-anchor="start" x="15.5" y="-386.1" font-family="Helvetica,sans-Serif" font-weight="bold" font-size="11.00" fill="#000000">email_cache</text>
<text text-anchor="start" x="160.5437" y="-385.1" font-family="Helvetica,sans-Serif" font-size="11.00" fill="#000000">[table]</text>
<polygon fill="#ffffff" stroke="transparent" points="10.5,-355 10.5,-377 112.5,-377 112.5,-355 10.5,-355"/>
<polygon fill="none" stroke="#000000" points="10.5,-355 10.5,-377 112.5,-377 112.5,-355 10.5,-355"/>
<text text-anchor="start" x="30.5" y="-362.1" font-family="Helvetica,sans-Serif" font-size="11.00" fill="#000000">ie_id</text>
<polygon fill="none" stroke="#000000" points="112.5,-355 112.5,-377 195.5,-377 195.5,-355 112.5,-355"/>
<text text-anchor="start" x="115.5" y="-362.7" font-family="Helvetica,sans-Serif" font-size="11.00" fill="#000000">char[36]</text>
<polygon fill="#ffffff" stroke="transparent" points="10.5,-333 10.5,-355 112.5,-355 112.5,-333 10.5,-333"/>
<polygon fill="none" stroke="#000000" points="10.5,-333 10.5,-355 112.5,-355 112.5,-333 10.5,-333"/>
<text text-anchor="start" x="30.5" y="-340.1" font-family="Helvetica,sans-Serif" font-size="11.00" fill="#000000">mbox</text>
<polygon fill="none" stroke="#000000" points="112.5,-333 112.5,-355 195.5,-355 195.5,-333 112.5,-333"/>
<text text-anchor="start" x="115.5" y="-340.7" font-family="Helvetica,sans-Serif" font-size="11.00" fill="#000000">varchar[60]</text>
<polygon fill="#ffffff" stroke="transparent" points="10.5,-311 10.5,-333 112.5,-333 112.5,-311 10.5,-311"/>
<polygon fill="none" stroke="#000000" points="10.5,-311 10.5,-333 112.5,-333 112.5,-311 10.5,-311"/>
<text text-anchor="start" x="30.5" y="-318.1" font-family="Helvetica,sans-Serif" font-size="11.00" fill="#000000">subject</text>
<polygon fill="none" stroke="#000000" points="112.5,-311 112.5,-333 195.5,-333 195.5,-311 112.5,-311"/>
<text text-anchor="start" x="115.5" y="-318.7" font-family="Helvetica,sans-Serif" font-size="11.00" fill="#000000">varchar[255]</text>
<polygon fill="#ffffff" stroke="transparent" points="10.5,-289 10.5,-311 112.5,-311 112.5,-289 10.5,-289"/>
<polygon fill="none" stroke="#000000" points="10.5,-289 10.5,-311 112.5,-311 112.5,-289 10.5,-289"/>
<text text-anchor="start" x="30.5" y="-296.1" font-family="Helvetica,sans-Serif" font-size="11.00" fill="#000000">fromaddr</text>
<polygon fill="none" stroke="#000000" points="112.5,-289 112.5,-311 195.5,-311 195.5,-289 112.5,-289"/>
<text text-anchor="start" x="115.5" y="-296.7" font-family="Helvetica,sans-Serif" font-size="11.00" fill="#000000">varchar[100]</text>
<polygon fill="#ffffff" stroke="transparent" points="10.5,-267 10.5,-289 112.5,-289 112.5,-267 10.5,-267"/>
<polygon fill="none" stroke="#000000" points="10.5,-267 10.5,-289 112.5,-289 112.5,-267 10.5,-267"/>
<text text-anchor="start" x="30.5" y="-274.1" font-family="Helvetica,sans-Serif" font-size="11.00" fill="#000000">toaddr</text>
<polygon fill="none" stroke="#000000" points="112.5,-267 112.5,-289 195.5,-289 195.5,-267 112.5,-267"/>
<text text-anchor="start" x="115.5" y="-274.7" font-family="Helvetica,sans-Serif" font-size="11.00" fill="#000000">varchar[255]</text>
<polygon fill="#ffffff" stroke="transparent" points="10.5,-245 10.5,-267 112.5,-267 112.5,-245 10.5,-245"/>
<polygon fill="none" stroke="#000000" points="10.5,-245 10.5,-267 112.5,-267 112.5,-245 10.5,-245"/>
<text text-anchor="start" x="30.5" y="-252.1" font-family="Helvetica,sans-Serif" font-size="11.00" fill="#000000">senddate</text>
<polygon fill="none" stroke="#000000" points="112.5,-245 112.5,-267 195.5,-267 195.5,-245 112.5,-245"/>
<text text-anchor="start" x="115.5" y="-252.7" font-family="Helvetica,sans-Serif" font-size="11.00" fill="#000000">datetime[26]</text>
<polygon fill="none" stroke="#000000" points="10.5,-223 10.5,-245 112.5,-245 112.5,-223 10.5,-223"/>
<text text-anchor="start" x="30.5" y="-230.1" font-family="Helvetica,sans-Serif" font-size="11.00" fill="#000000">message_id</text>
<polygon fill="none" stroke="#000000" points="112.5,-223 112.5,-245 195.5,-245 195.5,-223 112.5,-223"/>
<text text-anchor="start" x="115.5" y="-230.7" font-family="Helvetica,sans-Serif" font-size="11.00" fill="#000000">varchar[255]</text>
<polygon fill="none" stroke="#000000" points="10.5,-201 10.5,-223 112.5,-223 112.5,-201 10.5,-201"/>
<text text-anchor="start" x="30.5" y="-208.1" font-family="Helvetica,sans-Serif" font-size="11.00" fill="#000000">mailsize</text>
<polygon fill="none" stroke="#000000" points="112.5,-201 112.5,-223 195.5,-223 195.5,-201 112.5,-201"/>
<text text-anchor="start" x="115.1783" y="-208.7" font-family="Helvetica,sans-Serif" font-size="11.00" fill="#000000">int unsigned[10]</text>
<polygon fill="none" stroke="#000000" points="10.5,-179 10.5,-201 112.5,-201 112.5,-179 10.5,-179"/>
<text text-anchor="start" x="30.5" y="-186.1" font-family="Helvetica,sans-Serif" font-size="11.00" fill="#000000">imap_uid</text>
<polygon fill="none" stroke="#000000" points="112.5,-179 112.5,-201 195.5,-201 195.5,-179 112.5,-179"/>
<text text-anchor="start" x="115.1783" y="-186.7" font-family="Helvetica,sans-Serif" font-size="11.00" fill="#000000">int unsigned[10]</text>
<polygon fill="none" stroke="#000000" points="10.5,-157 10.5,-179 112.5,-179 112.5,-157 10.5,-157"/>
<text text-anchor="start" x="30.5" y="-164.1" font-family="Helvetica,sans-Serif" font-size="11.00" fill="#000000">msgno</text>
<polygon fill="none" stroke="#000000" points="112.5,-157 112.5,-179 195.5,-179 195.5,-157 112.5,-157"/>
<text text-anchor="start" x="115.1783" y="-164.7" font-family="Helvetica,sans-Serif" font-size="11.00" fill="#000000">int unsigned[10]</text>
<polygon fill="none" stroke="#000000" points="10.5,-135 10.5,-157 112.5,-157 112.5,-135 10.5,-135"/>
<text text-anchor="start" x="30.5" y="-142.1" font-family="Helvetica,sans-Serif" font-size="11.00" fill="#000000">recent</text>
<polygon fill="none" stroke="#000000" points="112.5,-135 112.5,-157 195.5,-157 195.5,-135 112.5,-135"/>
<text text-anchor="start" x="115.5" y="-142.7" font-family="Helvetica,sans-Serif" font-size="11.00" fill="#000000">tinyint[3]</text>
<polygon fill="none" stroke="#000000" points="10.5,-113 10.5,-135 112.5,-135 112.5,-113 10.5,-113"/>
<text text-anchor="start" x="30.5" y="-120.1" font-family="Helvetica,sans-Serif" font-size="11.00" fill="#000000">flagged</text>
<polygon fill="none" stroke="#000000" points="112.5,-113 112.5,-135 195.5,-135 195.5,-113 112.5,-113"/>
<text text-anchor="start" x="115.5" y="-120.7" font-family="Helvetica,sans-Serif" font-size="11.00" fill="#000000">tinyint[3]</text>
<polygon fill="none" stroke="#000000" points="10.5,-91 10.5,-113 112.5,-113 112.5,-91 10.5,-91"/>
<text text-anchor="start" x="30.5" y="-98.1" font-family="Helvetica,sans-Serif" font-size="11.00" fill="#000000">answered</text>
<polygon fill="none" stroke="#000000" points="112.5,-91 112.5,-113 195.5,-113 195.5,-91 112.5,-91"/>
<text text-anchor="start" x="115.5" y="-98.7" font-family="Helvetica,sans-Serif" font-size="11.00" fill="#000000">tinyint[3]</text>
<polygon fill="none" stroke="#000000" points="10.5,-69 10.5,-91 112.5,-91 112.5,-69 10.5,-69"/>
<text text-anchor="start" x="30.5" y="-76.1" font-family="Helvetica,sans-Serif" font-size="11.00" fill="#000000">deleted</text>
<polygon fill="none" stroke="#000000" points="112.5,-69 112.5,-91 195.5,-91 195.5,-69 112.5,-69"/>
<text text-anchor="start" x="115.5" y="-76.7" font-family="Helvetica,sans-Serif" font-size="11.00" fill="#000000">tinyint[3]</text>
<polygon fill="none" stroke="#000000" points="10.5,-47 10.5,-69 112.5,-69 112.5,-47 10.5,-47"/>
<text text-anchor="start" x="30.5" y="-54.1" font-family="Helvetica,sans-Serif" font-size="11.00" fill="#000000">seen</text>
<polygon fill="none" stroke="#000000" points="112.5,-47 112.5,-69 195.5,-69 195.5,-47 112.5,-47"/>
<text text-anchor="start" x="115.5" y="-54.7" font-family="Helvetica,sans-Serif" font-size="11.00" fill="#000000">tinyint[3]</text>
<polygon fill="none" stroke="#000000" points="10.5,-25 10.5,-47 112.5,-47 112.5,-25 10.5,-25"/>
<text text-anchor="start" x="30.5" y="-32.1" font-family="Helvetica,sans-Serif" font-size="11.00" fill="#000000">draft</text>
<polygon fill="none" stroke="#000000" points="112.5,-25 112.5,-47 195.5,-47 195.5,-25 112.5,-25"/>
<text text-anchor="start" x="115.5" y="-32.7" font-family="Helvetica,sans-Serif" font-size="11.00" fill="#000000">tinyint[3]</text>
<polygon fill="#ffffff" stroke="transparent" points="10.5,-6 10.5,-25 65.5,-25 65.5,-6 10.5,-6"/>
<polygon fill="none" stroke="#000000" points="10.5,-6 10.5,-25 65.5,-25 65.5,-6 10.5,-6"/>
<text text-anchor="start" x="13.5" y="-12.1" font-family="Helvetica,sans-Serif" font-size="11.00" fill="#000000">&lt; 0</text>
<polygon fill="#ffffff" stroke="transparent" points="65.5,-6 65.5,-25 112.5,-25 112.5,-6 65.5,-6"/>
<polygon fill="none" stroke="#000000" points="65.5,-6 65.5,-25 112.5,-25 112.5,-6 65.5,-6"/>
<text text-anchor="start" x="103.3862" y="-12.1" font-family="Helvetica,sans-Serif" font-size="11.00" fill="#000000"> &#160;</text>
<polygon fill="#ffffff" stroke="transparent" points="112.5,-6 112.5,-25 195.5,-25 195.5,-6 112.5,-6"/>
<polygon fill="none" stroke="#000000" points="112.5,-6 112.5,-25 195.5,-25 195.5,-6 112.5,-6"/>
<text text-anchor="start" x="176.9053" y="-12.1" font-family="Helvetica,sans-Serif" font-size="11.00" fill="#000000">0 &gt;</text>
<polygon fill="none" stroke="#000000" stroke-width="2" points="9,-5 9,-401 196,-401 196,-5 9,-5"/>
</a>
</g>
</g>
</g>
</svg>
