<?xml version="1.0" encoding="UTF-8" standalone="no"?>
<!DOCTYPE svg PUBLIC "-//W3C//DTD SVG 1.1//EN"
 "http://www.w3.org/Graphics/SVG/1.1/DTD/svg11.dtd">
<!-- Generated by graphviz version 2.40.1 (20161225.0304)
 -->
<!-- Title: emails_text Pages: 1 -->
<svg width="273pt" height="282pt"
 viewBox="0.00 0.00 273.00 282.00" xmlns="http://www.w3.org/2000/svg" xmlns:xlink="http://www.w3.org/1999/xlink">
<g id="graph0" class="graph" transform="scale(1 1) rotate(0) translate(4 278)">
<title>emails_text</title>
<polygon fill="#ffffff" stroke="transparent" points="-4,4 -4,-278 269,-278 269,4 -4,4"/>
<!-- emails_text -->
<g id="node1" class="node">
<title>emails_text</title>
<g id="a_node1"><a xlink:href="../../tables/emails_text.html" xlink:title="emails_text" target="_top">
<polygon fill="#ffffff" stroke="transparent" points="8,-4 8,-270 257,-270 257,-4 8,-4"/>
<polygon fill="#f5f5f5" stroke="transparent" points="10.5,-245 10.5,-268 255.5,-268 255.5,-245 10.5,-245"/>
<polygon fill="none" stroke="#000000" points="10.5,-245 10.5,-268 255.5,-268 255.5,-245 10.5,-245"/>
<text text-anchor="start" x="15.5" y="-254.1" font-family="Helvetica,sans-Serif" font-weight="bold" font-size="11.00" fill="#000000">emails_text</text>
<text text-anchor="start" x="220.5437" y="-253.1" font-family="Helvetica,sans-Serif" font-size="11.00" fill="#000000">[table]</text>
<polygon fill="none" stroke="#000000" points="10.5,-223 10.5,-245 144.5,-245 144.5,-223 10.5,-223"/>
<image xlink:href="../../images/primaryKeys.png" width="11px" height="12px" preserveAspectRatio="xMinYMin meet" x="15.5" y="-240"/>
<text text-anchor="start" x="30.5" y="-230.1" font-family="Helvetica,sans-Serif" font-size="11.00" fill="#000000">email_id</text>
<polygon fill="none" stroke="#000000" points="144.5,-223 144.5,-245 255.5,-245 255.5,-223 144.5,-223"/>
<text text-anchor="start" x="147.5" y="-230.7" font-family="Helvetica,sans-Serif" font-size="11.00" fill="#000000">char[36]</text>
<polygon fill="#ffffff" stroke="transparent" points="10.5,-201 10.5,-223 144.5,-223 144.5,-201 10.5,-201"/>
<polygon fill="none" stroke="#000000" points="10.5,-201 10.5,-223 144.5,-223 144.5,-201 10.5,-201"/>
<text text-anchor="start" x="30.5" y="-208.1" font-family="Helvetica,sans-Serif" font-size="11.00" fill="#000000">from_addr</text>
<polygon fill="none" stroke="#000000" points="144.5,-201 144.5,-223 255.5,-223 255.5,-201 144.5,-201"/>
<text text-anchor="start" x="147.5" y="-208.7" font-family="Helvetica,sans-Serif" font-size="11.00" fill="#000000">varchar[250]</text>
<polygon fill="none" stroke="#000000" points="10.5,-179 10.5,-201 144.5,-201 144.5,-179 10.5,-179"/>
<text text-anchor="start" x="30.5" y="-186.1" font-family="Helvetica,sans-Serif" font-size="11.00" fill="#000000">reply_to_addr</text>
<polygon fill="none" stroke="#000000" points="144.5,-179 144.5,-201 255.5,-201 255.5,-179 144.5,-179"/>
<text text-anchor="start" x="147.5" y="-186.7" font-family="Helvetica,sans-Serif" font-size="11.00" fill="#000000">varchar[250]</text>
<polygon fill="none" stroke="#000000" points="10.5,-157 10.5,-179 144.5,-179 144.5,-157 10.5,-157"/>
<text text-anchor="start" x="30.5" y="-164.1" font-family="Helvetica,sans-Serif" font-size="11.00" fill="#000000">to_addrs</text>
<polygon fill="none" stroke="#000000" points="144.5,-157 144.5,-179 255.5,-179 255.5,-157 144.5,-157"/>
<text text-anchor="start" x="147.5" y="-164.7" font-family="Helvetica,sans-Serif" font-size="11.00" fill="#000000">text[65535]</text>
<polygon fill="none" stroke="#000000" points="10.5,-135 10.5,-157 144.5,-157 144.5,-135 10.5,-135"/>
<text text-anchor="start" x="30.5" y="-142.1" font-family="Helvetica,sans-Serif" font-size="11.00" fill="#000000">cc_addrs</text>
<polygon fill="none" stroke="#000000" points="144.5,-135 144.5,-157 255.5,-157 255.5,-135 144.5,-135"/>
<text text-anchor="start" x="147.5" y="-142.7" font-family="Helvetica,sans-Serif" font-size="11.00" fill="#000000">text[65535]</text>
<polygon fill="none" stroke="#000000" points="10.5,-113 10.5,-135 144.5,-135 144.5,-113 10.5,-113"/>
<text text-anchor="start" x="30.5" y="-120.1" font-family="Helvetica,sans-Serif" font-size="11.00" fill="#000000">bcc_addrs</text>
<polygon fill="none" stroke="#000000" points="144.5,-113 144.5,-135 255.5,-135 255.5,-113 144.5,-113"/>
<text text-anchor="start" x="147.5" y="-120.7" font-family="Helvetica,sans-Serif" font-size="11.00" fill="#000000">text[65535]</text>
<polygon fill="none" stroke="#000000" points="10.5,-91 10.5,-113 144.5,-113 144.5,-91 10.5,-91"/>
<text text-anchor="start" x="30.5" y="-98.1" font-family="Helvetica,sans-Serif" font-size="11.00" fill="#000000">description</text>
<polygon fill="none" stroke="#000000" points="144.5,-91 144.5,-113 255.5,-113 255.5,-91 144.5,-91"/>
<text text-anchor="start" x="147.1115" y="-98.7" font-family="Helvetica,sans-Serif" font-size="11.00" fill="#000000">longtext[2147483647]</text>
<polygon fill="none" stroke="#000000" points="10.5,-69 10.5,-91 144.5,-91 144.5,-69 10.5,-69"/>
<text text-anchor="start" x="30.5" y="-76.1" font-family="Helvetica,sans-Serif" font-size="11.00" fill="#000000">description_html</text>
<polygon fill="none" stroke="#000000" points="144.5,-69 144.5,-91 255.5,-91 255.5,-69 144.5,-69"/>
<text text-anchor="start" x="147.1115" y="-76.7" font-family="Helvetica,sans-Serif" font-size="11.00" fill="#000000">longtext[2147483647]</text>
<polygon fill="none" stroke="#000000" points="10.5,-47 10.5,-69 144.5,-69 144.5,-47 10.5,-47"/>
<text text-anchor="start" x="30.5" y="-54.1" font-family="Helvetica,sans-Serif" font-size="11.00" fill="#000000">raw_source</text>
<polygon fill="none" stroke="#000000" points="144.5,-47 144.5,-69 255.5,-69 255.5,-47 144.5,-47"/>
<text text-anchor="start" x="147.1115" y="-54.7" font-family="Helvetica,sans-Serif" font-size="11.00" fill="#000000">longtext[2147483647]</text>
<polygon fill="none" stroke="#000000" points="10.5,-25 10.5,-47 144.5,-47 144.5,-25 10.5,-25"/>
<text text-anchor="start" x="30.5" y="-32.1" font-family="Helvetica,sans-Serif" font-size="11.00" fill="#000000">deleted</text>
<polygon fill="none" stroke="#000000" points="144.5,-25 144.5,-47 255.5,-47 255.5,-25 144.5,-25"/>
<text text-anchor="start" x="147.5" y="-32.7" font-family="Helvetica,sans-Serif" font-size="11.00" fill="#000000">bit[1]</text>
<polygon fill="#ffffff" stroke="transparent" points="10.5,-6 10.5,-25 81.5,-25 81.5,-6 10.5,-6"/>
<polygon fill="none" stroke="#000000" points="10.5,-6 10.5,-25 81.5,-25 81.5,-6 10.5,-6"/>
<text text-anchor="start" x="13.5" y="-12.1" font-family="Helvetica,sans-Serif" font-size="11.00" fill="#000000">&lt; 0</text>
<polygon fill="#ffffff" stroke="transparent" points="81.5,-6 81.5,-25 144.5,-25 144.5,-6 81.5,-6"/>
<polygon fill="none" stroke="#000000" points="81.5,-6 81.5,-25 144.5,-25 144.5,-6 81.5,-6"/>
<text text-anchor="start" x="135.3862" y="-12.1" font-family="Helvetica,sans-Serif" font-size="11.00" fill="#000000"> &#160;</text>
<polygon fill="#ffffff" stroke="transparent" points="144.5,-6 144.5,-25 255.5,-25 255.5,-6 144.5,-6"/>
<polygon fill="none" stroke="#000000" points="144.5,-6 144.5,-25 255.5,-25 255.5,-6 144.5,-6"/>
<text text-anchor="start" x="236.9053" y="-12.1" font-family="Helvetica,sans-Serif" font-size="11.00" fill="#000000">0 &gt;</text>
<polygon fill="none" stroke="#000000" stroke-width="2" points="9,-5 9,-269 256,-269 256,-5 9,-5"/>
</a>
</g>
</g>
</g>
</svg>
