<?xml version="1.0" encoding="UTF-8" standalone="no"?>
<!DOCTYPE svg PUBLIC "-//W3C//DTD SVG 1.1//EN"
 "http://www.w3.org/Graphics/SVG/1.1/DTD/svg11.dtd">
<!-- Generated by graphviz version 2.40.1 (20161225.0304)
 -->
<!-- Title: fields_meta_data Pages: 1 -->
<svg width="230pt" height="524pt"
 viewBox="0.00 0.00 230.00 524.00" xmlns="http://www.w3.org/2000/svg" xmlns:xlink="http://www.w3.org/1999/xlink">
<g id="graph0" class="graph" transform="scale(1 1) rotate(0) translate(4 520)">
<title>fields_meta_data</title>
<polygon fill="#ffffff" stroke="transparent" points="-4,4 -4,-520 226,-520 226,4 -4,4"/>
<!-- fields_meta_data -->
<g id="node1" class="node">
<title>fields_meta_data</title>
<g id="a_node1"><a xlink:href="../../tables/fields_meta_data.html" xlink:title="fields_meta_data" target="_top">
<polygon fill="#ffffff" stroke="transparent" points="8,-4 8,-512 214,-512 214,-4 8,-4"/>
<polygon fill="#f5f5f5" stroke="transparent" points="10,-487 10,-510 212,-510 212,-487 10,-487"/>
<polygon fill="none" stroke="#000000" points="10,-487 10,-510 212,-510 212,-487 10,-487"/>
<text text-anchor="start" x="15" y="-496.1" font-family="Helvetica,sans-Serif" font-weight="bold" font-size="11.00" fill="#000000">fields_meta_data</text>
<text text-anchor="start" x="177.0437" y="-495.1" font-family="Helvetica,sans-Serif" font-size="11.00" fill="#000000">[table]</text>
<polygon fill="none" stroke="#000000" points="10,-465 10,-487 145,-487 145,-465 10,-465"/>
<image xlink:href="../../images/primaryKeys.png" width="11px" height="12px" preserveAspectRatio="xMinYMin meet" x="15" y="-482"/>
<text text-anchor="start" x="30" y="-472.1" font-family="Helvetica,sans-Serif" font-size="11.00" fill="#000000">id</text>
<polygon fill="none" stroke="#000000" points="145,-465 145,-487 212,-487 212,-465 145,-465"/>
<text text-anchor="start" x="147.9365" y="-472.7" font-family="Helvetica,sans-Serif" font-size="11.00" fill="#000000">varchar[255]</text>
<polygon fill="none" stroke="#000000" points="10,-443 10,-465 145,-465 145,-443 10,-443"/>
<text text-anchor="start" x="30" y="-450.1" font-family="Helvetica,sans-Serif" font-size="11.00" fill="#000000">name</text>
<polygon fill="none" stroke="#000000" points="145,-443 145,-465 212,-465 212,-443 145,-443"/>
<text text-anchor="start" x="147.9365" y="-450.7" font-family="Helvetica,sans-Serif" font-size="11.00" fill="#000000">varchar[255]</text>
<polygon fill="none" stroke="#000000" points="10,-421 10,-443 145,-443 145,-421 10,-421"/>
<text text-anchor="start" x="30" y="-428.1" font-family="Helvetica,sans-Serif" font-size="11.00" fill="#000000">vname</text>
<polygon fill="none" stroke="#000000" points="145,-421 145,-443 212,-443 212,-421 145,-421"/>
<text text-anchor="start" x="147.9365" y="-428.7" font-family="Helvetica,sans-Serif" font-size="11.00" fill="#000000">varchar[255]</text>
<polygon fill="none" stroke="#000000" points="10,-399 10,-421 145,-421 145,-399 10,-399"/>
<text text-anchor="start" x="30" y="-406.1" font-family="Helvetica,sans-Serif" font-size="11.00" fill="#000000">comments</text>
<polygon fill="none" stroke="#000000" points="145,-399 145,-421 212,-421 212,-399 145,-399"/>
<text text-anchor="start" x="147.9365" y="-406.7" font-family="Helvetica,sans-Serif" font-size="11.00" fill="#000000">varchar[255]</text>
<polygon fill="none" stroke="#000000" points="10,-377 10,-399 145,-399 145,-377 10,-377"/>
<text text-anchor="start" x="30" y="-384.1" font-family="Helvetica,sans-Serif" font-size="11.00" fill="#000000">help</text>
<polygon fill="none" stroke="#000000" points="145,-377 145,-399 212,-399 212,-377 145,-377"/>
<text text-anchor="start" x="147.9365" y="-384.7" font-family="Helvetica,sans-Serif" font-size="11.00" fill="#000000">varchar[255]</text>
<polygon fill="#ffffff" stroke="transparent" points="10,-355 10,-377 145,-377 145,-355 10,-355"/>
<polygon fill="none" stroke="#000000" points="10,-355 10,-377 145,-377 145,-355 10,-355"/>
<text text-anchor="start" x="30" y="-362.1" font-family="Helvetica,sans-Serif" font-size="11.00" fill="#000000">custom_module</text>
<polygon fill="none" stroke="#000000" points="145,-355 145,-377 212,-377 212,-355 145,-355"/>
<text text-anchor="start" x="147.9365" y="-362.7" font-family="Helvetica,sans-Serif" font-size="11.00" fill="#000000">varchar[255]</text>
<polygon fill="none" stroke="#000000" points="10,-333 10,-355 145,-355 145,-333 10,-333"/>
<text text-anchor="start" x="30" y="-340.1" font-family="Helvetica,sans-Serif" font-size="11.00" fill="#000000">type</text>
<polygon fill="none" stroke="#000000" points="145,-333 145,-355 212,-355 212,-333 145,-333"/>
<text text-anchor="start" x="147.9365" y="-340.7" font-family="Helvetica,sans-Serif" font-size="11.00" fill="#000000">varchar[255]</text>
<polygon fill="none" stroke="#000000" points="10,-311 10,-333 145,-333 145,-311 10,-311"/>
<text text-anchor="start" x="30" y="-318.1" font-family="Helvetica,sans-Serif" font-size="11.00" fill="#000000">len</text>
<polygon fill="none" stroke="#000000" points="145,-311 145,-333 212,-333 212,-311 145,-311"/>
<text text-anchor="start" x="148" y="-318.7" font-family="Helvetica,sans-Serif" font-size="11.00" fill="#000000">int[10]</text>
<polygon fill="none" stroke="#000000" points="10,-289 10,-311 145,-311 145,-289 10,-289"/>
<text text-anchor="start" x="30" y="-296.1" font-family="Helvetica,sans-Serif" font-size="11.00" fill="#000000">required</text>
<polygon fill="none" stroke="#000000" points="145,-289 145,-311 212,-311 212,-289 145,-289"/>
<text text-anchor="start" x="148" y="-296.7" font-family="Helvetica,sans-Serif" font-size="11.00" fill="#000000">bit[1]</text>
<polygon fill="none" stroke="#000000" points="10,-267 10,-289 145,-289 145,-267 10,-267"/>
<text text-anchor="start" x="30" y="-274.1" font-family="Helvetica,sans-Serif" font-size="11.00" fill="#000000">default_value</text>
<polygon fill="none" stroke="#000000" points="145,-267 145,-289 212,-289 212,-267 145,-267"/>
<text text-anchor="start" x="147.9365" y="-274.7" font-family="Helvetica,sans-Serif" font-size="11.00" fill="#000000">varchar[255]</text>
<polygon fill="none" stroke="#000000" points="10,-245 10,-267 145,-267 145,-245 10,-245"/>
<text text-anchor="start" x="30" y="-252.1" font-family="Helvetica,sans-Serif" font-size="11.00" fill="#000000">date_modified</text>
<polygon fill="none" stroke="#000000" points="145,-245 145,-267 212,-267 212,-245 145,-245"/>
<text text-anchor="start" x="148" y="-252.7" font-family="Helvetica,sans-Serif" font-size="11.00" fill="#000000">datetime[26]</text>
<polygon fill="#ffffff" stroke="transparent" points="10,-223 10,-245 145,-245 145,-223 10,-223"/>
<polygon fill="none" stroke="#000000" points="10,-223 10,-245 145,-245 145,-223 10,-223"/>
<text text-anchor="start" x="30" y="-230.1" font-family="Helvetica,sans-Serif" font-size="11.00" fill="#000000">deleted</text>
<polygon fill="none" stroke="#000000" points="145,-223 145,-245 212,-245 212,-223 145,-223"/>
<text text-anchor="start" x="148" y="-230.7" font-family="Helvetica,sans-Serif" font-size="11.00" fill="#000000">bit[1]</text>
<polygon fill="none" stroke="#000000" points="10,-201 10,-223 145,-223 145,-201 10,-201"/>
<text text-anchor="start" x="30" y="-208.1" font-family="Helvetica,sans-Serif" font-size="11.00" fill="#000000">audited</text>
<polygon fill="none" stroke="#000000" points="145,-201 145,-223 212,-223 212,-201 145,-201"/>
<text text-anchor="start" x="148" y="-208.7" font-family="Helvetica,sans-Serif" font-size="11.00" fill="#000000">bit[1]</text>
<polygon fill="none" stroke="#000000" points="10,-179 10,-201 145,-201 145,-179 10,-179"/>
<text text-anchor="start" x="30" y="-186.1" font-family="Helvetica,sans-Serif" font-size="11.00" fill="#000000">massupdate</text>
<polygon fill="none" stroke="#000000" points="145,-179 145,-201 212,-201 212,-179 145,-179"/>
<text text-anchor="start" x="148" y="-186.7" font-family="Helvetica,sans-Serif" font-size="11.00" fill="#000000">bit[1]</text>
<polygon fill="none" stroke="#000000" points="10,-157 10,-179 145,-179 145,-157 10,-157"/>
<text text-anchor="start" x="30" y="-164.1" font-family="Helvetica,sans-Serif" font-size="11.00" fill="#000000">duplicate_merge</text>
<polygon fill="none" stroke="#000000" points="145,-157 145,-179 212,-179 212,-157 145,-157"/>
<text text-anchor="start" x="148" y="-164.7" font-family="Helvetica,sans-Serif" font-size="11.00" fill="#000000">smallint[5]</text>
<polygon fill="none" stroke="#000000" points="10,-135 10,-157 145,-157 145,-135 10,-135"/>
<text text-anchor="start" x="30" y="-142.1" font-family="Helvetica,sans-Serif" font-size="11.00" fill="#000000">reportable</text>
<polygon fill="none" stroke="#000000" points="145,-135 145,-157 212,-157 212,-135 145,-135"/>
<text text-anchor="start" x="148" y="-142.7" font-family="Helvetica,sans-Serif" font-size="11.00" fill="#000000">bit[1]</text>
<polygon fill="none" stroke="#000000" points="10,-113 10,-135 145,-135 145,-113 10,-113"/>
<text text-anchor="start" x="30" y="-120.1" font-family="Helvetica,sans-Serif" font-size="11.00" fill="#000000">importable</text>
<polygon fill="none" stroke="#000000" points="145,-113 145,-135 212,-135 212,-113 145,-113"/>
<text text-anchor="start" x="147.9365" y="-120.7" font-family="Helvetica,sans-Serif" font-size="11.00" fill="#000000">varchar[255]</text>
<polygon fill="none" stroke="#000000" points="10,-91 10,-113 145,-113 145,-91 10,-91"/>
<text text-anchor="start" x="30" y="-98.1" font-family="Helvetica,sans-Serif" font-size="11.00" fill="#000000">ext1</text>
<polygon fill="none" stroke="#000000" points="145,-91 145,-113 212,-113 212,-91 145,-91"/>
<text text-anchor="start" x="147.9365" y="-98.7" font-family="Helvetica,sans-Serif" font-size="11.00" fill="#000000">varchar[255]</text>
<polygon fill="none" stroke="#000000" points="10,-69 10,-91 145,-91 145,-69 10,-69"/>
<text text-anchor="start" x="30" y="-76.1" font-family="Helvetica,sans-Serif" font-size="11.00" fill="#000000">ext2</text>
<polygon fill="none" stroke="#000000" points="145,-69 145,-91 212,-91 212,-69 145,-69"/>
<text text-anchor="start" x="147.9365" y="-76.7" font-family="Helvetica,sans-Serif" font-size="11.00" fill="#000000">varchar[255]</text>
<polygon fill="none" stroke="#000000" points="10,-47 10,-69 145,-69 145,-47 10,-47"/>
<text text-anchor="start" x="30" y="-54.1" font-family="Helvetica,sans-Serif" font-size="11.00" fill="#000000">ext3</text>
<polygon fill="none" stroke="#000000" points="145,-47 145,-69 212,-69 212,-47 145,-47"/>
<text text-anchor="start" x="147.9365" y="-54.7" font-family="Helvetica,sans-Serif" font-size="11.00" fill="#000000">varchar[255]</text>
<polygon fill="none" stroke="#000000" points="10,-25 10,-47 145,-47 145,-25 10,-25"/>
<text text-anchor="start" x="30" y="-32.1" font-family="Helvetica,sans-Serif" font-size="11.00" fill="#000000">ext4</text>
<polygon fill="none" stroke="#000000" points="145,-25 145,-47 212,-47 212,-25 145,-25"/>
<text text-anchor="start" x="148" y="-32.7" font-family="Helvetica,sans-Serif" font-size="11.00" fill="#000000">text[65535]</text>
<polygon fill="#ffffff" stroke="transparent" points="10,-6 10,-25 82,-25 82,-6 10,-6"/>
<polygon fill="none" stroke="#000000" points="10,-6 10,-25 82,-25 82,-6 10,-6"/>
<text text-anchor="start" x="13" y="-12.1" font-family="Helvetica,sans-Serif" font-size="11.00" fill="#000000">&lt; 0</text>
<polygon fill="#ffffff" stroke="transparent" points="82,-6 82,-25 145,-25 145,-6 82,-6"/>
<polygon fill="none" stroke="#000000" points="82,-6 82,-25 145,-25 145,-6 82,-6"/>
<text text-anchor="start" x="135.8862" y="-12.1" font-family="Helvetica,sans-Serif" font-size="11.00" fill="#000000"> &#160;</text>
<polygon fill="#ffffff" stroke="transparent" points="145,-6 145,-25 212,-25 212,-6 145,-6"/>
<polygon fill="none" stroke="#000000" points="145,-6 145,-25 212,-25 212,-6 145,-6"/>
<text text-anchor="start" x="193.4053" y="-12.1" font-family="Helvetica,sans-Serif" font-size="11.00" fill="#000000">0 &gt;</text>
<polygon fill="none" stroke="#000000" stroke-width="2" points="9,-5 9,-511 213,-511 213,-5 9,-5"/>
</a>
</g>
</g>
</g>
</svg>
