<?xml version="1.0" encoding="UTF-8" standalone="no"?>
<!DOCTYPE svg PUBLIC "-//W3C//DTD SVG 1.1//EN"
 "http://www.w3.org/Graphics/SVG/1.1/DTD/svg11.dtd">
<!-- Generated by graphviz version 2.40.1 (20161225.0304)
 -->
<!-- Title: folders_subscriptions Pages: 1 -->
<svg width="238pt" height="128pt"
 viewBox="0.00 0.00 238.00 128.00" xmlns="http://www.w3.org/2000/svg" xmlns:xlink="http://www.w3.org/1999/xlink">
<g id="graph0" class="graph" transform="scale(1 1) rotate(0) translate(4 124)">
<title>folders_subscriptions</title>
<polygon fill="#ffffff" stroke="transparent" points="-4,4 -4,-124 234,-124 234,4 -4,4"/>
<!-- folders_subscriptions -->
<g id="node1" class="node">
<title>folders_subscriptions</title>
<g id="a_node1"><a xlink:href="../../tables/folders_subscriptions.html" xlink:title="folders_subscriptions" target="_top">
<polygon fill="#ffffff" stroke="transparent" points="8,-4 8,-116 222,-116 222,-4 8,-4"/>
<polygon fill="#f5f5f5" stroke="transparent" points="10,-91 10,-114 220,-114 220,-91 10,-91"/>
<polygon fill="none" stroke="#000000" points="10,-91 10,-114 220,-114 220,-91 10,-91"/>
<text text-anchor="start" x="15" y="-100.1" font-family="Helvetica,sans-Serif" font-weight="bold" font-size="11.00" fill="#000000">folders_subscriptions</text>
<text text-anchor="start" x="185.0437" y="-99.1" font-family="Helvetica,sans-Serif" font-size="11.00" fill="#000000">[table]</text>
<polygon fill="none" stroke="#000000" points="10,-69 10,-91 175,-91 175,-69 10,-69"/>
<image xlink:href="../../images/primaryKeys.png" width="11px" height="12px" preserveAspectRatio="xMinYMin meet" x="15" y="-86"/>
<text text-anchor="start" x="30" y="-76.1" font-family="Helvetica,sans-Serif" font-size="11.00" fill="#000000">id</text>
<polygon fill="none" stroke="#000000" points="175,-69 175,-91 220,-91 220,-69 175,-69"/>
<text text-anchor="start" x="177.6324" y="-76.7" font-family="Helvetica,sans-Serif" font-size="11.00" fill="#000000">char[36]</text>
<polygon fill="#ffffff" stroke="transparent" points="10,-47 10,-69 175,-69 175,-47 10,-47"/>
<polygon fill="none" stroke="#000000" points="10,-47 10,-69 175,-69 175,-47 10,-47"/>
<text text-anchor="start" x="30" y="-54.1" font-family="Helvetica,sans-Serif" font-size="11.00" fill="#000000">folder_id</text>
<polygon fill="none" stroke="#000000" points="175,-47 175,-69 220,-69 220,-47 175,-47"/>
<text text-anchor="start" x="177.6324" y="-54.7" font-family="Helvetica,sans-Serif" font-size="11.00" fill="#000000">char[36]</text>
<polygon fill="#ffffff" stroke="transparent" points="10,-25 10,-47 175,-47 175,-25 10,-25"/>
<polygon fill="none" stroke="#000000" points="10,-25 10,-47 175,-47 175,-25 10,-25"/>
<text text-anchor="start" x="30" y="-32.1" font-family="Helvetica,sans-Serif" font-size="11.00" fill="#000000">assigned_user_id</text>
<polygon fill="none" stroke="#000000" points="175,-25 175,-47 220,-47 220,-25 175,-25"/>
<text text-anchor="start" x="177.6324" y="-32.7" font-family="Helvetica,sans-Serif" font-size="11.00" fill="#000000">char[36]</text>
<polygon fill="#ffffff" stroke="transparent" points="10,-6 10,-25 97,-25 97,-6 10,-6"/>
<polygon fill="none" stroke="#000000" points="10,-6 10,-25 97,-25 97,-6 10,-6"/>
<text text-anchor="start" x="13" y="-12.1" font-family="Helvetica,sans-Serif" font-size="11.00" fill="#000000">&lt; 0</text>
<polygon fill="#ffffff" stroke="transparent" points="97,-6 97,-25 175,-25 175,-6 97,-6"/>
<polygon fill="none" stroke="#000000" points="97,-6 97,-25 175,-25 175,-6 97,-6"/>
<text text-anchor="start" x="165.8862" y="-12.1" font-family="Helvetica,sans-Serif" font-size="11.00" fill="#000000"> &#160;</text>
<polygon fill="#ffffff" stroke="transparent" points="175,-6 175,-25 220,-25 220,-6 175,-6"/>
<polygon fill="none" stroke="#000000" points="175,-6 175,-25 220,-25 220,-6 175,-6"/>
<text text-anchor="start" x="201.4053" y="-12.1" font-family="Helvetica,sans-Serif" font-size="11.00" fill="#000000">0 &gt;</text>
<polygon fill="none" stroke="#000000" stroke-width="2" points="9,-5 9,-115 221,-115 221,-5 9,-5"/>
</a>
</g>
</g>
</g>
</svg>
