<?xml version="1.0" encoding="UTF-8" standalone="no"?>
<!DOCTYPE svg PUBLIC "-//W3C//DTD SVG 1.1//EN"
 "http://www.w3.org/Graphics/SVG/1.1/DTD/svg11.dtd">
<!-- Generated by graphviz version 2.40.1 (20161225.0304)
 -->
<!-- Title: fp_events_fp_event_delegates_1_c Pages: 1 -->
<svg width="489pt" height="172pt"
 viewBox="0.00 0.00 489.00 172.00" xmlns="http://www.w3.org/2000/svg" xmlns:xlink="http://www.w3.org/1999/xlink">
<g id="graph0" class="graph" transform="scale(1 1) rotate(0) translate(4 168)">
<title>fp_events_fp_event_delegates_1_c</title>
<polygon fill="#ffffff" stroke="transparent" points="-4,4 -4,-168 485,-168 485,4 -4,4"/>
<!-- fp_events_fp_event_delegates_1_c -->
<g id="node1" class="node">
<title>fp_events_fp_event_delegates_1_c</title>
<g id="a_node1"><a xlink:href="../../tables/fp_events_fp_event_delegates_1_c.html" xlink:title="fp_events_fp_event_delegates_1_c" target="_top">
<polygon fill="#ffffff" stroke="transparent" points="8,-4 8,-160 473,-160 473,-4 8,-4"/>
<polygon fill="#f5f5f5" stroke="transparent" points="10.5,-135 10.5,-158 471.5,-158 471.5,-135 10.5,-135"/>
<polygon fill="none" stroke="#000000" points="10.5,-135 10.5,-158 471.5,-158 471.5,-135 10.5,-135"/>
<text text-anchor="start" x="15.5" y="-144.1" font-family="Helvetica,sans-Serif" font-weight="bold" font-size="11.00" fill="#000000">fp_events_fp_event_delegates_1_c</text>
<text text-anchor="start" x="436.5437" y="-143.1" font-family="Helvetica,sans-Serif" font-size="11.00" fill="#000000">[table]</text>
<polygon fill="none" stroke="#000000" points="10.5,-113 10.5,-135 405.5,-135 405.5,-113 10.5,-113"/>
<image xlink:href="../../images/primaryKeys.png" width="11px" height="12px" preserveAspectRatio="xMinYMin meet" x="15.5" y="-130"/>
<text text-anchor="start" x="30.5" y="-120.1" font-family="Helvetica,sans-Serif" font-size="11.00" fill="#000000">id</text>
<polygon fill="none" stroke="#000000" points="405.5,-113 405.5,-135 471.5,-135 471.5,-113 405.5,-113"/>
<text text-anchor="start" x="408.5" y="-120.7" font-family="Helvetica,sans-Serif" font-size="11.00" fill="#000000">varchar[36]</text>
<polygon fill="none" stroke="#000000" points="10.5,-91 10.5,-113 405.5,-113 405.5,-91 10.5,-91"/>
<text text-anchor="start" x="30.5" y="-98.1" font-family="Helvetica,sans-Serif" font-size="11.00" fill="#000000">date_modified</text>
<polygon fill="none" stroke="#000000" points="405.5,-91 405.5,-113 471.5,-113 471.5,-91 405.5,-91"/>
<text text-anchor="start" x="408.2401" y="-98.7" font-family="Helvetica,sans-Serif" font-size="11.00" fill="#000000">datetime[26]</text>
<polygon fill="none" stroke="#000000" points="10.5,-69 10.5,-91 405.5,-91 405.5,-69 10.5,-69"/>
<text text-anchor="start" x="30.5" y="-76.1" font-family="Helvetica,sans-Serif" font-size="11.00" fill="#000000">deleted</text>
<polygon fill="none" stroke="#000000" points="405.5,-69 405.5,-91 471.5,-91 471.5,-69 405.5,-69"/>
<text text-anchor="start" x="408.5" y="-76.7" font-family="Helvetica,sans-Serif" font-size="11.00" fill="#000000">bit[1]</text>
<polygon fill="#ffffff" stroke="transparent" points="10.5,-47 10.5,-69 405.5,-69 405.5,-47 10.5,-47"/>
<polygon fill="none" stroke="#000000" points="10.5,-47 10.5,-69 405.5,-69 405.5,-47 10.5,-47"/>
<text text-anchor="start" x="30.5" y="-54.1" font-family="Helvetica,sans-Serif" font-size="11.00" fill="#000000">fp_events_fp_event_delegates_1fp_events_ida</text>
<polygon fill="none" stroke="#000000" points="405.5,-47 405.5,-69 471.5,-69 471.5,-47 405.5,-47"/>
<text text-anchor="start" x="408.5" y="-54.7" font-family="Helvetica,sans-Serif" font-size="11.00" fill="#000000">varchar[36]</text>
<polygon fill="#ffffff" stroke="transparent" points="10.5,-25 10.5,-47 405.5,-47 405.5,-25 10.5,-25"/>
<polygon fill="none" stroke="#000000" points="10.5,-25 10.5,-47 405.5,-47 405.5,-25 10.5,-25"/>
<text text-anchor="start" x="30.5" y="-32.1" font-family="Helvetica,sans-Serif" font-size="11.00" fill="#000000">fp_events_fp_event_delegates_1fp_event_delegates_idb</text>
<polygon fill="none" stroke="#000000" points="405.5,-25 405.5,-47 471.5,-47 471.5,-25 405.5,-25"/>
<text text-anchor="start" x="408.5" y="-32.7" font-family="Helvetica,sans-Serif" font-size="11.00" fill="#000000">varchar[36]</text>
<polygon fill="#ffffff" stroke="transparent" points="10.5,-6 10.5,-25 212.5,-25 212.5,-6 10.5,-6"/>
<polygon fill="none" stroke="#000000" points="10.5,-6 10.5,-25 212.5,-25 212.5,-6 10.5,-6"/>
<text text-anchor="start" x="13.5" y="-12.1" font-family="Helvetica,sans-Serif" font-size="11.00" fill="#000000">&lt; 0</text>
<polygon fill="#ffffff" stroke="transparent" points="212.5,-6 212.5,-25 405.5,-25 405.5,-6 212.5,-6"/>
<polygon fill="none" stroke="#000000" points="212.5,-6 212.5,-25 405.5,-25 405.5,-6 212.5,-6"/>
<text text-anchor="start" x="396.3862" y="-12.1" font-family="Helvetica,sans-Serif" font-size="11.00" fill="#000000"> &#160;</text>
<polygon fill="#ffffff" stroke="transparent" points="405.5,-6 405.5,-25 471.5,-25 471.5,-6 405.5,-6"/>
<polygon fill="none" stroke="#000000" points="405.5,-6 405.5,-25 471.5,-25 471.5,-6 405.5,-6"/>
<text text-anchor="start" x="452.9053" y="-12.1" font-family="Helvetica,sans-Serif" font-size="11.00" fill="#000000">0 &gt;</text>
<polygon fill="none" stroke="#000000" stroke-width="2" points="9,-5 9,-159 472,-159 472,-5 9,-5"/>
</a>
</g>
</g>
</g>
</svg>
