<?xml version="1.0" encoding="UTF-8" standalone="no"?>
<!DOCTYPE svg PUBLIC "-//W3C//DTD SVG 1.1//EN"
 "http://www.w3.org/Graphics/SVG/1.1/DTD/svg11.dtd">
<!-- Generated by graphviz version 2.40.1 (20161225.0304)
 -->
<!-- Title: inbound_email_autoreply Pages: 1 -->
<svg width="285pt" height="194pt"
 viewBox="0.00 0.00 285.00 194.00" xmlns="http://www.w3.org/2000/svg" xmlns:xlink="http://www.w3.org/1999/xlink">
<g id="graph0" class="graph" transform="scale(1 1) rotate(0) translate(4 190)">
<title>inbound_email_autoreply</title>
<polygon fill="#ffffff" stroke="transparent" points="-4,4 -4,-190 281,-190 281,4 -4,4"/>
<!-- inbound_email_autoreply -->
<g id="node1" class="node">
<title>inbound_email_autoreply</title>
<g id="a_node1"><a xlink:href="../../tables/inbound_email_autoreply.html" xlink:title="inbound_email_autoreply" target="_top">
<polygon fill="#ffffff" stroke="transparent" points="8,-4 8,-182 269,-182 269,-4 8,-4"/>
<polygon fill="#f5f5f5" stroke="transparent" points="10.5,-157 10.5,-180 267.5,-180 267.5,-157 10.5,-157"/>
<polygon fill="none" stroke="#000000" points="10.5,-157 10.5,-180 267.5,-180 267.5,-157 10.5,-157"/>
<text text-anchor="start" x="15.5" y="-166.1" font-family="Helvetica,sans-Serif" font-weight="bold" font-size="11.00" fill="#000000">inbound_email_autoreply</text>
<text text-anchor="start" x="232.5437" y="-165.1" font-family="Helvetica,sans-Serif" font-size="11.00" fill="#000000">[table]</text>
<polygon fill="none" stroke="#000000" points="10.5,-135 10.5,-157 200.5,-157 200.5,-135 10.5,-135"/>
<image xlink:href="../../images/primaryKeys.png" width="11px" height="12px" preserveAspectRatio="xMinYMin meet" x="15.5" y="-152"/>
<text text-anchor="start" x="30.5" y="-142.1" font-family="Helvetica,sans-Serif" font-size="11.00" fill="#000000">id</text>
<polygon fill="none" stroke="#000000" points="200.5,-135 200.5,-157 267.5,-157 267.5,-135 200.5,-135"/>
<text text-anchor="start" x="203.5" y="-142.7" font-family="Helvetica,sans-Serif" font-size="11.00" fill="#000000">char[36]</text>
<polygon fill="none" stroke="#000000" points="10.5,-113 10.5,-135 200.5,-135 200.5,-113 10.5,-113"/>
<text text-anchor="start" x="30.5" y="-120.1" font-family="Helvetica,sans-Serif" font-size="11.00" fill="#000000">deleted</text>
<polygon fill="none" stroke="#000000" points="200.5,-113 200.5,-135 267.5,-135 267.5,-113 200.5,-113"/>
<text text-anchor="start" x="203.5" y="-120.7" font-family="Helvetica,sans-Serif" font-size="11.00" fill="#000000">bit[1]</text>
<polygon fill="none" stroke="#000000" points="10.5,-91 10.5,-113 200.5,-113 200.5,-91 10.5,-91"/>
<text text-anchor="start" x="30.5" y="-98.1" font-family="Helvetica,sans-Serif" font-size="11.00" fill="#000000">date_entered</text>
<polygon fill="none" stroke="#000000" points="200.5,-91 200.5,-113 267.5,-113 267.5,-91 200.5,-91"/>
<text text-anchor="start" x="203.5" y="-98.7" font-family="Helvetica,sans-Serif" font-size="11.00" fill="#000000">datetime[26]</text>
<polygon fill="none" stroke="#000000" points="10.5,-69 10.5,-91 200.5,-91 200.5,-69 10.5,-69"/>
<text text-anchor="start" x="30.5" y="-76.1" font-family="Helvetica,sans-Serif" font-size="11.00" fill="#000000">date_modified</text>
<polygon fill="none" stroke="#000000" points="200.5,-69 200.5,-91 267.5,-91 267.5,-69 200.5,-69"/>
<text text-anchor="start" x="203.5" y="-76.7" font-family="Helvetica,sans-Serif" font-size="11.00" fill="#000000">datetime[26]</text>
<polygon fill="#ffffff" stroke="transparent" points="10.5,-47 10.5,-69 200.5,-69 200.5,-47 10.5,-47"/>
<polygon fill="none" stroke="#000000" points="10.5,-47 10.5,-69 200.5,-69 200.5,-47 10.5,-47"/>
<text text-anchor="start" x="30.5" y="-54.1" font-family="Helvetica,sans-Serif" font-size="11.00" fill="#000000">autoreplied_to</text>
<polygon fill="none" stroke="#000000" points="200.5,-47 200.5,-69 267.5,-69 267.5,-47 200.5,-47"/>
<text text-anchor="start" x="203.4365" y="-54.7" font-family="Helvetica,sans-Serif" font-size="11.00" fill="#000000">varchar[100]</text>
<polygon fill="none" stroke="#000000" points="10.5,-25 10.5,-47 200.5,-47 200.5,-25 10.5,-25"/>
<text text-anchor="start" x="30.5" y="-32.1" font-family="Helvetica,sans-Serif" font-size="11.00" fill="#000000">ie_id</text>
<polygon fill="none" stroke="#000000" points="200.5,-25 200.5,-47 267.5,-47 267.5,-25 200.5,-25"/>
<text text-anchor="start" x="203.5" y="-32.7" font-family="Helvetica,sans-Serif" font-size="11.00" fill="#000000">char[36]</text>
<polygon fill="#ffffff" stroke="transparent" points="10.5,-6 10.5,-25 109.5,-25 109.5,-6 10.5,-6"/>
<polygon fill="none" stroke="#000000" points="10.5,-6 10.5,-25 109.5,-25 109.5,-6 10.5,-6"/>
<text text-anchor="start" x="13.5" y="-12.1" font-family="Helvetica,sans-Serif" font-size="11.00" fill="#000000">&lt; 0</text>
<polygon fill="#ffffff" stroke="transparent" points="109.5,-6 109.5,-25 200.5,-25 200.5,-6 109.5,-6"/>
<polygon fill="none" stroke="#000000" points="109.5,-6 109.5,-25 200.5,-25 200.5,-6 109.5,-6"/>
<text text-anchor="start" x="191.3862" y="-12.1" font-family="Helvetica,sans-Serif" font-size="11.00" fill="#000000"> &#160;</text>
<polygon fill="#ffffff" stroke="transparent" points="200.5,-6 200.5,-25 267.5,-25 267.5,-6 200.5,-6"/>
<polygon fill="none" stroke="#000000" points="200.5,-6 200.5,-25 267.5,-25 267.5,-6 200.5,-6"/>
<text text-anchor="start" x="248.9053" y="-12.1" font-family="Helvetica,sans-Serif" font-size="11.00" fill="#000000">0 &gt;</text>
<polygon fill="none" stroke="#000000" stroke-width="2" points="9,-5 9,-181 268,-181 268,-5 9,-5"/>
</a>
</g>
</g>
</g>
</svg>
