<?xml version="1.0" encoding="UTF-8" standalone="no"?>
<!DOCTYPE svg PUBLIC "-//W3C//DTD SVG 1.1//EN"
 "http://www.w3.org/Graphics/SVG/1.1/DTD/svg11.dtd">
<!-- Generated by graphviz version 2.40.1 (20161225.0304)
 -->
<!-- Title: inbound_email_cache_ts Pages: 1 -->
<svg width="294pt" height="106pt"
 viewBox="0.00 0.00 294.00 106.00" xmlns="http://www.w3.org/2000/svg" xmlns:xlink="http://www.w3.org/1999/xlink">
<g id="graph0" class="graph" transform="scale(1 1) rotate(0) translate(4 102)">
<title>inbound_email_cache_ts</title>
<polygon fill="#ffffff" stroke="transparent" points="-4,4 -4,-102 290,-102 290,4 -4,4"/>
<!-- inbound_email_cache_ts -->
<g id="node1" class="node">
<title>inbound_email_cache_ts</title>
<g id="a_node1"><a xlink:href="../../tables/inbound_email_cache_ts.html" xlink:title="inbound_email_cache_ts" target="_top">
<polygon fill="#ffffff" stroke="transparent" points="8,-4 8,-94 278,-94 278,-4 8,-4"/>
<polygon fill="#f5f5f5" stroke="transparent" points="10,-69 10,-92 276,-92 276,-69 10,-69"/>
<polygon fill="none" stroke="#000000" points="10,-69 10,-92 276,-92 276,-69 10,-69"/>
<text text-anchor="start" x="15" y="-78.1" font-family="Helvetica,sans-Serif" font-weight="bold" font-size="11.00" fill="#000000">inbound_email_cache_ts</text>
<text text-anchor="start" x="241.0437" y="-77.1" font-family="Helvetica,sans-Serif" font-size="11.00" fill="#000000">[table]</text>
<polygon fill="none" stroke="#000000" points="10,-47 10,-69 193,-69 193,-47 10,-47"/>
<image xlink:href="../../images/primaryKeys.png" width="11px" height="12px" preserveAspectRatio="xMinYMin meet" x="15" y="-64"/>
<text text-anchor="start" x="30" y="-54.1" font-family="Helvetica,sans-Serif" font-size="11.00" fill="#000000">id</text>
<polygon fill="none" stroke="#000000" points="193,-47 193,-69 276,-69 276,-47 193,-47"/>
<text text-anchor="start" x="196" y="-54.7" font-family="Helvetica,sans-Serif" font-size="11.00" fill="#000000">varchar[255]</text>
<polygon fill="none" stroke="#000000" points="10,-25 10,-47 193,-47 193,-25 10,-25"/>
<text text-anchor="start" x="30" y="-32.1" font-family="Helvetica,sans-Serif" font-size="11.00" fill="#000000">ie_timestamp</text>
<polygon fill="none" stroke="#000000" points="193,-25 193,-47 276,-47 276,-25 193,-25"/>
<text text-anchor="start" x="195.6783" y="-32.7" font-family="Helvetica,sans-Serif" font-size="11.00" fill="#000000">int unsigned[10]</text>
<polygon fill="#ffffff" stroke="transparent" points="10,-6 10,-25 106,-25 106,-6 10,-6"/>
<polygon fill="none" stroke="#000000" points="10,-6 10,-25 106,-25 106,-6 10,-6"/>
<text text-anchor="start" x="13" y="-12.1" font-family="Helvetica,sans-Serif" font-size="11.00" fill="#000000">&lt; 0</text>
<polygon fill="#ffffff" stroke="transparent" points="106,-6 106,-25 193,-25 193,-6 106,-6"/>
<polygon fill="none" stroke="#000000" points="106,-6 106,-25 193,-25 193,-6 106,-6"/>
<text text-anchor="start" x="183.8862" y="-12.1" font-family="Helvetica,sans-Serif" font-size="11.00" fill="#000000"> &#160;</text>
<polygon fill="#ffffff" stroke="transparent" points="193,-6 193,-25 276,-25 276,-6 193,-6"/>
<polygon fill="none" stroke="#000000" points="193,-6 193,-25 276,-25 276,-6 193,-6"/>
<text text-anchor="start" x="257.4053" y="-12.1" font-family="Helvetica,sans-Serif" font-size="11.00" fill="#000000">0 &gt;</text>
<polygon fill="none" stroke="#000000" stroke-width="2" points="9,-5 9,-93 277,-93 277,-5 9,-5"/>
</a>
</g>
</g>
</g>
</svg>
