<?xml version="1.0" encoding="UTF-8" standalone="no"?>
<!DOCTYPE svg PUBLIC "-//W3C//DTD SVG 1.1//EN"
 "http://www.w3.org/Graphics/SVG/1.1/DTD/svg11.dtd">
<!-- Generated by graphviz version 2.40.1 (20161225.0304)
 -->
<!-- Title: oauth_nonce Pages: 1 -->
<svg width="195pt" height="128pt"
 viewBox="0.00 0.00 195.00 128.00" xmlns="http://www.w3.org/2000/svg" xmlns:xlink="http://www.w3.org/1999/xlink">
<g id="graph0" class="graph" transform="scale(1 1) rotate(0) translate(4 124)">
<title>oauth_nonce</title>
<polygon fill="#ffffff" stroke="transparent" points="-4,4 -4,-124 191,-124 191,4 -4,4"/>
<!-- oauth_nonce -->
<g id="node1" class="node">
<title>oauth_nonce</title>
<g id="a_node1"><a xlink:href="../../tables/oauth_nonce.html" xlink:title="oauth_nonce" target="_top">
<polygon fill="#ffffff" stroke="transparent" points="8,-4 8,-116 179,-116 179,-4 8,-4"/>
<polygon fill="#f5f5f5" stroke="transparent" points="10.5,-91 10.5,-114 177.5,-114 177.5,-91 10.5,-91"/>
<polygon fill="none" stroke="#000000" points="10.5,-91 10.5,-114 177.5,-114 177.5,-91 10.5,-91"/>
<text text-anchor="start" x="15.5" y="-100.1" font-family="Helvetica,sans-Serif" font-weight="bold" font-size="11.00" fill="#000000">oauth_nonce</text>
<text text-anchor="start" x="142.5437" y="-99.1" font-family="Helvetica,sans-Serif" font-size="11.00" fill="#000000">[table]</text>
<polygon fill="none" stroke="#000000" points="10.5,-69 10.5,-91 116.5,-91 116.5,-69 10.5,-69"/>
<image xlink:href="../../images/primaryKeys.png" width="11px" height="12px" preserveAspectRatio="xMinYMin meet" x="15.5" y="-86"/>
<text text-anchor="start" x="30.5" y="-76.1" font-family="Helvetica,sans-Serif" font-size="11.00" fill="#000000">conskey</text>
<polygon fill="none" stroke="#000000" points="116.5,-69 116.5,-91 177.5,-91 177.5,-69 116.5,-69"/>
<text text-anchor="start" x="119.494" y="-76.7" font-family="Helvetica,sans-Serif" font-size="11.00" fill="#000000">varchar[32]</text>
<polygon fill="none" stroke="#000000" points="10.5,-47 10.5,-69 116.5,-69 116.5,-47 10.5,-47"/>
<image xlink:href="../../images/primaryKeys.png" width="11px" height="12px" preserveAspectRatio="xMinYMin meet" x="15.5" y="-64"/>
<text text-anchor="start" x="30.5" y="-54.1" font-family="Helvetica,sans-Serif" font-size="11.00" fill="#000000">nonce</text>
<polygon fill="none" stroke="#000000" points="116.5,-47 116.5,-69 177.5,-69 177.5,-47 116.5,-47"/>
<text text-anchor="start" x="119.494" y="-54.7" font-family="Helvetica,sans-Serif" font-size="11.00" fill="#000000">varchar[32]</text>
<polygon fill="#ffffff" stroke="transparent" points="10.5,-25 10.5,-47 116.5,-47 116.5,-25 10.5,-25"/>
<polygon fill="none" stroke="#000000" points="10.5,-25 10.5,-47 116.5,-47 116.5,-25 10.5,-25"/>
<text text-anchor="start" x="30.5" y="-32.1" font-family="Helvetica,sans-Serif" font-size="11.00" fill="#000000">nonce_ts</text>
<polygon fill="none" stroke="#000000" points="116.5,-25 116.5,-47 177.5,-47 177.5,-25 116.5,-25"/>
<text text-anchor="start" x="119.5" y="-32.7" font-family="Helvetica,sans-Serif" font-size="11.00" fill="#000000">bigint[19]</text>
<polygon fill="#ffffff" stroke="transparent" points="10.5,-6 10.5,-25 67.5,-25 67.5,-6 10.5,-6"/>
<polygon fill="none" stroke="#000000" points="10.5,-6 10.5,-25 67.5,-25 67.5,-6 10.5,-6"/>
<text text-anchor="start" x="13.5" y="-12.1" font-family="Helvetica,sans-Serif" font-size="11.00" fill="#000000">&lt; 0</text>
<polygon fill="#ffffff" stroke="transparent" points="67.5,-6 67.5,-25 116.5,-25 116.5,-6 67.5,-6"/>
<polygon fill="none" stroke="#000000" points="67.5,-6 67.5,-25 116.5,-25 116.5,-6 67.5,-6"/>
<text text-anchor="start" x="107.3862" y="-12.1" font-family="Helvetica,sans-Serif" font-size="11.00" fill="#000000"> &#160;</text>
<polygon fill="#ffffff" stroke="transparent" points="116.5,-6 116.5,-25 177.5,-25 177.5,-6 116.5,-6"/>
<polygon fill="none" stroke="#000000" points="116.5,-6 116.5,-25 177.5,-25 177.5,-6 116.5,-6"/>
<text text-anchor="start" x="158.9053" y="-12.1" font-family="Helvetica,sans-Serif" font-size="11.00" fill="#000000">0 &gt;</text>
<polygon fill="none" stroke="#000000" stroke-width="2" points="9,-5 9,-115 178,-115 178,-5 9,-5"/>
</a>
</g>
</g>
</g>
</svg>
