<?xml version="1.0" encoding="UTF-8" standalone="no"?>
<!DOCTYPE svg PUBLIC "-//W3C//DTD SVG 1.1//EN"
 "http://www.w3.org/Graphics/SVG/1.1/DTD/svg11.dtd">
<!-- Generated by graphviz version 2.40.1 (20161225.0304)
 -->
<!-- Title: roles_modules Pages: 1 -->
<svg width="211pt" height="194pt"
 viewBox="0.00 0.00 211.00 194.00" xmlns="http://www.w3.org/2000/svg" xmlns:xlink="http://www.w3.org/1999/xlink">
<g id="graph0" class="graph" transform="scale(1 1) rotate(0) translate(4 190)">
<title>roles_modules</title>
<polygon fill="#ffffff" stroke="transparent" points="-4,4 -4,-190 207,-190 207,4 -4,4"/>
<!-- roles_modules -->
<g id="node1" class="node">
<title>roles_modules</title>
<g id="a_node1"><a xlink:href="../../tables/roles_modules.html" xlink:title="roles_modules" target="_top">
<polygon fill="#ffffff" stroke="transparent" points="8,-4 8,-182 195,-182 195,-4 8,-4"/>
<polygon fill="#f5f5f5" stroke="transparent" points="10.5,-157 10.5,-180 193.5,-180 193.5,-157 10.5,-157"/>
<polygon fill="none" stroke="#000000" points="10.5,-157 10.5,-180 193.5,-180 193.5,-157 10.5,-157"/>
<text text-anchor="start" x="15.5" y="-166.1" font-family="Helvetica,sans-Serif" font-weight="bold" font-size="11.00" fill="#000000">roles_modules</text>
<text text-anchor="start" x="158.5437" y="-165.1" font-family="Helvetica,sans-Serif" font-size="11.00" fill="#000000">[table]</text>
<polygon fill="none" stroke="#000000" points="10.5,-135 10.5,-157 127.5,-157 127.5,-135 10.5,-135"/>
<image xlink:href="../../images/primaryKeys.png" width="11px" height="12px" preserveAspectRatio="xMinYMin meet" x="15.5" y="-152"/>
<text text-anchor="start" x="30.5" y="-142.1" font-family="Helvetica,sans-Serif" font-size="11.00" fill="#000000">id</text>
<polygon fill="none" stroke="#000000" points="127.5,-135 127.5,-157 193.5,-157 193.5,-135 127.5,-135"/>
<text text-anchor="start" x="130.5" y="-142.7" font-family="Helvetica,sans-Serif" font-size="11.00" fill="#000000">varchar[36]</text>
<polygon fill="#ffffff" stroke="transparent" points="10.5,-113 10.5,-135 127.5,-135 127.5,-113 10.5,-113"/>
<polygon fill="none" stroke="#000000" points="10.5,-113 10.5,-135 127.5,-135 127.5,-113 10.5,-113"/>
<text text-anchor="start" x="30.5" y="-120.1" font-family="Helvetica,sans-Serif" font-size="11.00" fill="#000000">role_id</text>
<polygon fill="none" stroke="#000000" points="127.5,-113 127.5,-135 193.5,-135 193.5,-113 127.5,-113"/>
<text text-anchor="start" x="130.5" y="-120.7" font-family="Helvetica,sans-Serif" font-size="11.00" fill="#000000">varchar[36]</text>
<polygon fill="#ffffff" stroke="transparent" points="10.5,-91 10.5,-113 127.5,-113 127.5,-91 10.5,-91"/>
<polygon fill="none" stroke="#000000" points="10.5,-91 10.5,-113 127.5,-113 127.5,-91 10.5,-91"/>
<text text-anchor="start" x="30.5" y="-98.1" font-family="Helvetica,sans-Serif" font-size="11.00" fill="#000000">module_id</text>
<polygon fill="none" stroke="#000000" points="127.5,-91 127.5,-113 193.5,-113 193.5,-91 127.5,-91"/>
<text text-anchor="start" x="130.5" y="-98.7" font-family="Helvetica,sans-Serif" font-size="11.00" fill="#000000">varchar[36]</text>
<polygon fill="none" stroke="#000000" points="10.5,-69 10.5,-91 127.5,-91 127.5,-69 10.5,-69"/>
<text text-anchor="start" x="30.5" y="-76.1" font-family="Helvetica,sans-Serif" font-size="11.00" fill="#000000">allow</text>
<polygon fill="none" stroke="#000000" points="127.5,-69 127.5,-91 193.5,-91 193.5,-69 127.5,-69"/>
<text text-anchor="start" x="130.5" y="-76.7" font-family="Helvetica,sans-Serif" font-size="11.00" fill="#000000">bit[1]</text>
<polygon fill="none" stroke="#000000" points="10.5,-47 10.5,-69 127.5,-69 127.5,-47 10.5,-47"/>
<text text-anchor="start" x="30.5" y="-54.1" font-family="Helvetica,sans-Serif" font-size="11.00" fill="#000000">date_modified</text>
<polygon fill="none" stroke="#000000" points="127.5,-47 127.5,-69 193.5,-69 193.5,-47 127.5,-47"/>
<text text-anchor="start" x="130.2401" y="-54.7" font-family="Helvetica,sans-Serif" font-size="11.00" fill="#000000">datetime[26]</text>
<polygon fill="none" stroke="#000000" points="10.5,-25 10.5,-47 127.5,-47 127.5,-25 10.5,-25"/>
<text text-anchor="start" x="30.5" y="-32.1" font-family="Helvetica,sans-Serif" font-size="11.00" fill="#000000">deleted</text>
<polygon fill="none" stroke="#000000" points="127.5,-25 127.5,-47 193.5,-47 193.5,-25 127.5,-25"/>
<text text-anchor="start" x="130.5" y="-32.7" font-family="Helvetica,sans-Serif" font-size="11.00" fill="#000000">bit[1]</text>
<polygon fill="#ffffff" stroke="transparent" points="10.5,-6 10.5,-25 73.5,-25 73.5,-6 10.5,-6"/>
<polygon fill="none" stroke="#000000" points="10.5,-6 10.5,-25 73.5,-25 73.5,-6 10.5,-6"/>
<text text-anchor="start" x="13.5" y="-12.1" font-family="Helvetica,sans-Serif" font-size="11.00" fill="#000000">&lt; 0</text>
<polygon fill="#ffffff" stroke="transparent" points="73.5,-6 73.5,-25 127.5,-25 127.5,-6 73.5,-6"/>
<polygon fill="none" stroke="#000000" points="73.5,-6 73.5,-25 127.5,-25 127.5,-6 73.5,-6"/>
<text text-anchor="start" x="118.3862" y="-12.1" font-family="Helvetica,sans-Serif" font-size="11.00" fill="#000000"> &#160;</text>
<polygon fill="#ffffff" stroke="transparent" points="127.5,-6 127.5,-25 193.5,-25 193.5,-6 127.5,-6"/>
<polygon fill="none" stroke="#000000" points="127.5,-6 127.5,-25 193.5,-25 193.5,-6 127.5,-6"/>
<text text-anchor="start" x="174.9053" y="-12.1" font-family="Helvetica,sans-Serif" font-size="11.00" fill="#000000">0 &gt;</text>
<polygon fill="none" stroke="#000000" stroke-width="2" points="9,-5 9,-181 194,-181 194,-5 9,-5"/>
</a>
</g>
</g>
</g>
</svg>
