<?xml version="1.0" encoding="UTF-8" standalone="no"?>
<!DOCTYPE svg PUBLIC "-//W3C//DTD SVG 1.1//EN"
 "http://www.w3.org/Graphics/SVG/1.1/DTD/svg11.dtd">
<!-- Generated by graphviz version 2.40.1 (20161225.0304)
 -->
<!-- Title: securitygroups_default Pages: 1 -->
<svg width="270pt" height="172pt"
 viewBox="0.00 0.00 270.00 172.00" xmlns="http://www.w3.org/2000/svg" xmlns:xlink="http://www.w3.org/1999/xlink">
<g id="graph0" class="graph" transform="scale(1 1) rotate(0) translate(4 168)">
<title>securitygroups_default</title>
<polygon fill="#ffffff" stroke="transparent" points="-4,4 -4,-168 266,-168 266,4 -4,4"/>
<!-- securitygroups_default -->
<g id="node1" class="node">
<title>securitygroups_default</title>
<g id="a_node1"><a xlink:href="../../tables/securitygroups_default.html" xlink:title="securitygroups_default" target="_top">
<polygon fill="#ffffff" stroke="transparent" points="8,-4 8,-160 254,-160 254,-4 8,-4"/>
<polygon fill="#f5f5f5" stroke="transparent" points="10,-135 10,-158 252,-158 252,-135 10,-135"/>
<polygon fill="none" stroke="#000000" points="10,-135 10,-158 252,-158 252,-135 10,-135"/>
<text text-anchor="start" x="15" y="-144.1" font-family="Helvetica,sans-Serif" font-weight="bold" font-size="11.00" fill="#000000">securitygroups_default</text>
<text text-anchor="start" x="217.0437" y="-143.1" font-family="Helvetica,sans-Serif" font-size="11.00" fill="#000000">[table]</text>
<polygon fill="none" stroke="#000000" points="10,-113 10,-135 186,-135 186,-113 10,-113"/>
<image xlink:href="../../images/primaryKeys.png" width="11px" height="12px" preserveAspectRatio="xMinYMin meet" x="15" y="-130"/>
<text text-anchor="start" x="30" y="-120.1" font-family="Helvetica,sans-Serif" font-size="11.00" fill="#000000">id</text>
<polygon fill="none" stroke="#000000" points="186,-113 186,-135 252,-135 252,-113 186,-113"/>
<text text-anchor="start" x="189" y="-120.7" font-family="Helvetica,sans-Serif" font-size="11.00" fill="#000000">char[36]</text>
<polygon fill="none" stroke="#000000" points="10,-91 10,-113 186,-113 186,-91 10,-91"/>
<text text-anchor="start" x="30" y="-98.1" font-family="Helvetica,sans-Serif" font-size="11.00" fill="#000000">securitygroup_id</text>
<polygon fill="none" stroke="#000000" points="186,-91 186,-113 252,-113 252,-91 186,-91"/>
<text text-anchor="start" x="189" y="-98.7" font-family="Helvetica,sans-Serif" font-size="11.00" fill="#000000">char[36]</text>
<polygon fill="none" stroke="#000000" points="10,-69 10,-91 186,-91 186,-69 10,-69"/>
<text text-anchor="start" x="30" y="-76.1" font-family="Helvetica,sans-Serif" font-size="11.00" fill="#000000">module</text>
<polygon fill="none" stroke="#000000" points="186,-69 186,-91 252,-91 252,-69 186,-69"/>
<text text-anchor="start" x="189" y="-76.7" font-family="Helvetica,sans-Serif" font-size="11.00" fill="#000000">varchar[50]</text>
<polygon fill="none" stroke="#000000" points="10,-47 10,-69 186,-69 186,-47 10,-47"/>
<text text-anchor="start" x="30" y="-54.1" font-family="Helvetica,sans-Serif" font-size="11.00" fill="#000000">date_modified</text>
<polygon fill="none" stroke="#000000" points="186,-47 186,-69 252,-69 252,-47 186,-47"/>
<text text-anchor="start" x="188.7401" y="-54.7" font-family="Helvetica,sans-Serif" font-size="11.00" fill="#000000">datetime[26]</text>
<polygon fill="none" stroke="#000000" points="10,-25 10,-47 186,-47 186,-25 10,-25"/>
<text text-anchor="start" x="30" y="-32.1" font-family="Helvetica,sans-Serif" font-size="11.00" fill="#000000">deleted</text>
<polygon fill="none" stroke="#000000" points="186,-25 186,-47 252,-47 252,-25 186,-25"/>
<text text-anchor="start" x="189" y="-32.7" font-family="Helvetica,sans-Serif" font-size="11.00" fill="#000000">bit[1]</text>
<polygon fill="#ffffff" stroke="transparent" points="10,-6 10,-25 102,-25 102,-6 10,-6"/>
<polygon fill="none" stroke="#000000" points="10,-6 10,-25 102,-25 102,-6 10,-6"/>
<text text-anchor="start" x="13" y="-12.1" font-family="Helvetica,sans-Serif" font-size="11.00" fill="#000000">&lt; 0</text>
<polygon fill="#ffffff" stroke="transparent" points="102,-6 102,-25 186,-25 186,-6 102,-6"/>
<polygon fill="none" stroke="#000000" points="102,-6 102,-25 186,-25 186,-6 102,-6"/>
<text text-anchor="start" x="176.8862" y="-12.1" font-family="Helvetica,sans-Serif" font-size="11.00" fill="#000000"> &#160;</text>
<polygon fill="#ffffff" stroke="transparent" points="186,-6 186,-25 252,-25 252,-6 186,-6"/>
<polygon fill="none" stroke="#000000" points="186,-6 186,-25 252,-25 252,-6 186,-6"/>
<text text-anchor="start" x="233.4053" y="-12.1" font-family="Helvetica,sans-Serif" font-size="11.00" fill="#000000">0 &gt;</text>
<polygon fill="none" stroke="#000000" stroke-width="2" points="9,-5 9,-159 253,-159 253,-5 9,-5"/>
</a>
</g>
</g>
</g>
</svg>
