<?xml version="1.0" encoding="UTF-8" standalone="no"?>
<!DOCTYPE svg PUBLIC "-//W3C//DTD SVG 1.1//EN"
 "http://www.w3.org/Graphics/SVG/1.1/DTD/svg11.dtd">
<!-- Generated by graphviz version 2.40.1 (20161225.0304)
 -->
<!-- Title: upgrade_history Pages: 1 -->
<svg width="269pt" height="326pt"
 viewBox="0.00 0.00 269.00 326.00" xmlns="http://www.w3.org/2000/svg" xmlns:xlink="http://www.w3.org/1999/xlink">
<g id="graph0" class="graph" transform="scale(1 1) rotate(0) translate(4 322)">
<title>upgrade_history</title>
<polygon fill="#ffffff" stroke="transparent" points="-4,4 -4,-322 265,-322 265,4 -4,4"/>
<!-- upgrade_history -->
<g id="node1" class="node">
<title>upgrade_history</title>
<g id="a_node1"><a xlink:href="../../tables/upgrade_history.html" xlink:title="upgrade_history" target="_top">
<polygon fill="#ffffff" stroke="transparent" points="8,-4 8,-314 253,-314 253,-4 8,-4"/>
<polygon fill="#f5f5f5" stroke="transparent" points="10.5,-289 10.5,-312 251.5,-312 251.5,-289 10.5,-289"/>
<polygon fill="none" stroke="#000000" points="10.5,-289 10.5,-312 251.5,-312 251.5,-289 10.5,-289"/>
<text text-anchor="start" x="15.5" y="-298.1" font-family="Helvetica,sans-Serif" font-weight="bold" font-size="11.00" fill="#000000">upgrade_history</text>
<text text-anchor="start" x="216.5437" y="-297.1" font-family="Helvetica,sans-Serif" font-size="11.00" fill="#000000">[table]</text>
<polygon fill="none" stroke="#000000" points="10.5,-267 10.5,-289 140.5,-289 140.5,-267 10.5,-267"/>
<image xlink:href="../../images/primaryKeys.png" width="11px" height="12px" preserveAspectRatio="xMinYMin meet" x="15.5" y="-284"/>
<text text-anchor="start" x="30.5" y="-274.1" font-family="Helvetica,sans-Serif" font-size="11.00" fill="#000000">id</text>
<polygon fill="none" stroke="#000000" points="140.5,-267 140.5,-289 251.5,-289 251.5,-267 140.5,-267"/>
<text text-anchor="start" x="143.5" y="-274.7" font-family="Helvetica,sans-Serif" font-size="11.00" fill="#000000">char[36]</text>
<polygon fill="none" stroke="#000000" points="10.5,-245 10.5,-267 140.5,-267 140.5,-245 10.5,-245"/>
<text text-anchor="start" x="30.5" y="-252.1" font-family="Helvetica,sans-Serif" font-size="11.00" fill="#000000">filename</text>
<polygon fill="none" stroke="#000000" points="140.5,-245 140.5,-267 251.5,-267 251.5,-245 140.5,-245"/>
<text text-anchor="start" x="143.5" y="-252.7" font-family="Helvetica,sans-Serif" font-size="11.00" fill="#000000">varchar[255]</text>
<polygon fill="#ffffff" stroke="transparent" points="10.5,-223 10.5,-245 140.5,-245 140.5,-223 10.5,-223"/>
<polygon fill="none" stroke="#000000" points="10.5,-223 10.5,-245 140.5,-245 140.5,-223 10.5,-223"/>
<text text-anchor="start" x="30.5" y="-230.1" font-family="Helvetica,sans-Serif" font-size="11.00" fill="#000000">md5sum</text>
<polygon fill="none" stroke="#000000" points="140.5,-223 140.5,-245 251.5,-245 251.5,-223 140.5,-223"/>
<text text-anchor="start" x="143.5" y="-230.7" font-family="Helvetica,sans-Serif" font-size="11.00" fill="#000000">varchar[32]</text>
<polygon fill="none" stroke="#000000" points="10.5,-201 10.5,-223 140.5,-223 140.5,-201 10.5,-201"/>
<text text-anchor="start" x="30.5" y="-208.1" font-family="Helvetica,sans-Serif" font-size="11.00" fill="#000000">type</text>
<polygon fill="none" stroke="#000000" points="140.5,-201 140.5,-223 251.5,-223 251.5,-201 140.5,-201"/>
<text text-anchor="start" x="143.5" y="-208.7" font-family="Helvetica,sans-Serif" font-size="11.00" fill="#000000">varchar[30]</text>
<polygon fill="none" stroke="#000000" points="10.5,-179 10.5,-201 140.5,-201 140.5,-179 10.5,-179"/>
<text text-anchor="start" x="30.5" y="-186.1" font-family="Helvetica,sans-Serif" font-size="11.00" fill="#000000">status</text>
<polygon fill="none" stroke="#000000" points="140.5,-179 140.5,-201 251.5,-201 251.5,-179 140.5,-179"/>
<text text-anchor="start" x="143.5" y="-186.7" font-family="Helvetica,sans-Serif" font-size="11.00" fill="#000000">varchar[50]</text>
<polygon fill="none" stroke="#000000" points="10.5,-157 10.5,-179 140.5,-179 140.5,-157 10.5,-157"/>
<text text-anchor="start" x="30.5" y="-164.1" font-family="Helvetica,sans-Serif" font-size="11.00" fill="#000000">version</text>
<polygon fill="none" stroke="#000000" points="140.5,-157 140.5,-179 251.5,-179 251.5,-157 140.5,-157"/>
<text text-anchor="start" x="143.5" y="-164.7" font-family="Helvetica,sans-Serif" font-size="11.00" fill="#000000">varchar[64]</text>
<polygon fill="none" stroke="#000000" points="10.5,-135 10.5,-157 140.5,-157 140.5,-135 10.5,-135"/>
<text text-anchor="start" x="30.5" y="-142.1" font-family="Helvetica,sans-Serif" font-size="11.00" fill="#000000">name</text>
<polygon fill="none" stroke="#000000" points="140.5,-135 140.5,-157 251.5,-157 251.5,-135 140.5,-135"/>
<text text-anchor="start" x="143.5" y="-142.7" font-family="Helvetica,sans-Serif" font-size="11.00" fill="#000000">varchar[255]</text>
<polygon fill="none" stroke="#000000" points="10.5,-113 10.5,-135 140.5,-135 140.5,-113 10.5,-113"/>
<text text-anchor="start" x="30.5" y="-120.1" font-family="Helvetica,sans-Serif" font-size="11.00" fill="#000000">description</text>
<polygon fill="none" stroke="#000000" points="140.5,-113 140.5,-135 251.5,-135 251.5,-113 140.5,-113"/>
<text text-anchor="start" x="143.5" y="-120.7" font-family="Helvetica,sans-Serif" font-size="11.00" fill="#000000">text[65535]</text>
<polygon fill="none" stroke="#000000" points="10.5,-91 10.5,-113 140.5,-113 140.5,-91 10.5,-91"/>
<text text-anchor="start" x="30.5" y="-98.1" font-family="Helvetica,sans-Serif" font-size="11.00" fill="#000000">id_name</text>
<polygon fill="none" stroke="#000000" points="140.5,-91 140.5,-113 251.5,-113 251.5,-91 140.5,-91"/>
<text text-anchor="start" x="143.5" y="-98.7" font-family="Helvetica,sans-Serif" font-size="11.00" fill="#000000">varchar[255]</text>
<polygon fill="none" stroke="#000000" points="10.5,-69 10.5,-91 140.5,-91 140.5,-69 10.5,-69"/>
<text text-anchor="start" x="30.5" y="-76.1" font-family="Helvetica,sans-Serif" font-size="11.00" fill="#000000">manifest</text>
<polygon fill="none" stroke="#000000" points="140.5,-69 140.5,-91 251.5,-91 251.5,-69 140.5,-69"/>
<text text-anchor="start" x="143.1115" y="-76.7" font-family="Helvetica,sans-Serif" font-size="11.00" fill="#000000">longtext[2147483647]</text>
<polygon fill="none" stroke="#000000" points="10.5,-47 10.5,-69 140.5,-69 140.5,-47 10.5,-47"/>
<text text-anchor="start" x="30.5" y="-54.1" font-family="Helvetica,sans-Serif" font-size="11.00" fill="#000000">date_entered</text>
<polygon fill="none" stroke="#000000" points="140.5,-47 140.5,-69 251.5,-69 251.5,-47 140.5,-47"/>
<text text-anchor="start" x="143.5" y="-54.7" font-family="Helvetica,sans-Serif" font-size="11.00" fill="#000000">datetime[26]</text>
<polygon fill="none" stroke="#000000" points="10.5,-25 10.5,-47 140.5,-47 140.5,-25 10.5,-25"/>
<text text-anchor="start" x="30.5" y="-32.1" font-family="Helvetica,sans-Serif" font-size="11.00" fill="#000000">enabled</text>
<polygon fill="none" stroke="#000000" points="140.5,-25 140.5,-47 251.5,-47 251.5,-25 140.5,-25"/>
<text text-anchor="start" x="143.5" y="-32.7" font-family="Helvetica,sans-Serif" font-size="11.00" fill="#000000">bit[1]</text>
<polygon fill="#ffffff" stroke="transparent" points="10.5,-6 10.5,-25 79.5,-25 79.5,-6 10.5,-6"/>
<polygon fill="none" stroke="#000000" points="10.5,-6 10.5,-25 79.5,-25 79.5,-6 10.5,-6"/>
<text text-anchor="start" x="13.5" y="-12.1" font-family="Helvetica,sans-Serif" font-size="11.00" fill="#000000">&lt; 0</text>
<polygon fill="#ffffff" stroke="transparent" points="79.5,-6 79.5,-25 140.5,-25 140.5,-6 79.5,-6"/>
<polygon fill="none" stroke="#000000" points="79.5,-6 79.5,-25 140.5,-25 140.5,-6 79.5,-6"/>
<text text-anchor="start" x="131.3862" y="-12.1" font-family="Helvetica,sans-Serif" font-size="11.00" fill="#000000"> &#160;</text>
<polygon fill="#ffffff" stroke="transparent" points="140.5,-6 140.5,-25 251.5,-25 251.5,-6 140.5,-6"/>
<polygon fill="none" stroke="#000000" points="140.5,-6 140.5,-25 251.5,-25 251.5,-6 140.5,-6"/>
<text text-anchor="start" x="232.9053" y="-12.1" font-family="Helvetica,sans-Serif" font-size="11.00" fill="#000000">0 &gt;</text>
<polygon fill="none" stroke="#000000" stroke-width="2" points="9,-5 9,-313 252,-313 252,-5 9,-5"/>
</a>
</g>
</g>
</g>
</svg>
