<?xml version="1.0" encoding="UTF-8" standalone="no"?>
<!DOCTYPE svg PUBLIC "-//W3C//DTD SVG 1.1//EN"
 "http://www.w3.org/Graphics/SVG/1.1/DTD/svg11.dtd">
<!-- Generated by graphviz version 2.40.1 (20161225.0304)
 -->
<!-- Title: users_feeds Pages: 1 -->
<svg width="211pt" height="172pt"
 viewBox="0.00 0.00 211.00 172.00" xmlns="http://www.w3.org/2000/svg" xmlns:xlink="http://www.w3.org/1999/xlink">
<g id="graph0" class="graph" transform="scale(1 1) rotate(0) translate(4 168)">
<title>users_feeds</title>
<polygon fill="#ffffff" stroke="transparent" points="-4,4 -4,-168 207,-168 207,4 -4,4"/>
<!-- users_feeds -->
<g id="node1" class="node">
<title>users_feeds</title>
<g id="a_node1"><a xlink:href="../../tables/users_feeds.html" xlink:title="users_feeds" target="_top">
<polygon fill="#ffffff" stroke="transparent" points="8,-4 8,-160 195,-160 195,-4 8,-4"/>
<polygon fill="#f5f5f5" stroke="transparent" points="10.5,-135 10.5,-158 193.5,-158 193.5,-135 10.5,-135"/>
<polygon fill="none" stroke="#000000" points="10.5,-135 10.5,-158 193.5,-158 193.5,-135 10.5,-135"/>
<text text-anchor="start" x="15.5" y="-144.1" font-family="Helvetica,sans-Serif" font-weight="bold" font-size="11.00" fill="#000000">users_feeds</text>
<text text-anchor="start" x="158.5437" y="-143.1" font-family="Helvetica,sans-Serif" font-size="11.00" fill="#000000">[table]</text>
<polygon fill="#ffffff" stroke="transparent" points="10.5,-113 10.5,-135 127.5,-135 127.5,-113 10.5,-113"/>
<polygon fill="none" stroke="#000000" points="10.5,-113 10.5,-135 127.5,-135 127.5,-113 10.5,-113"/>
<text text-anchor="start" x="30.5" y="-120.1" font-family="Helvetica,sans-Serif" font-size="11.00" fill="#000000">user_id</text>
<polygon fill="none" stroke="#000000" points="127.5,-113 127.5,-135 193.5,-135 193.5,-113 127.5,-113"/>
<text text-anchor="start" x="130.5" y="-120.7" font-family="Helvetica,sans-Serif" font-size="11.00" fill="#000000">varchar[36]</text>
<polygon fill="#ffffff" stroke="transparent" points="10.5,-91 10.5,-113 127.5,-113 127.5,-91 10.5,-91"/>
<polygon fill="none" stroke="#000000" points="10.5,-91 10.5,-113 127.5,-113 127.5,-91 10.5,-91"/>
<text text-anchor="start" x="30.5" y="-98.1" font-family="Helvetica,sans-Serif" font-size="11.00" fill="#000000">feed_id</text>
<polygon fill="none" stroke="#000000" points="127.5,-91 127.5,-113 193.5,-113 193.5,-91 127.5,-91"/>
<text text-anchor="start" x="130.5" y="-98.7" font-family="Helvetica,sans-Serif" font-size="11.00" fill="#000000">varchar[36]</text>
<polygon fill="none" stroke="#000000" points="10.5,-69 10.5,-91 127.5,-91 127.5,-69 10.5,-69"/>
<text text-anchor="start" x="30.5" y="-76.1" font-family="Helvetica,sans-Serif" font-size="11.00" fill="#000000">rank</text>
<polygon fill="none" stroke="#000000" points="127.5,-69 127.5,-91 193.5,-91 193.5,-69 127.5,-69"/>
<text text-anchor="start" x="130.5" y="-76.7" font-family="Helvetica,sans-Serif" font-size="11.00" fill="#000000">int[10]</text>
<polygon fill="none" stroke="#000000" points="10.5,-47 10.5,-69 127.5,-69 127.5,-47 10.5,-47"/>
<text text-anchor="start" x="30.5" y="-54.1" font-family="Helvetica,sans-Serif" font-size="11.00" fill="#000000">date_modified</text>
<polygon fill="none" stroke="#000000" points="127.5,-47 127.5,-69 193.5,-69 193.5,-47 127.5,-47"/>
<text text-anchor="start" x="130.2401" y="-54.7" font-family="Helvetica,sans-Serif" font-size="11.00" fill="#000000">datetime[26]</text>
<polygon fill="none" stroke="#000000" points="10.5,-25 10.5,-47 127.5,-47 127.5,-25 10.5,-25"/>
<text text-anchor="start" x="30.5" y="-32.1" font-family="Helvetica,sans-Serif" font-size="11.00" fill="#000000">deleted</text>
<polygon fill="none" stroke="#000000" points="127.5,-25 127.5,-47 193.5,-47 193.5,-25 127.5,-25"/>
<text text-anchor="start" x="130.5" y="-32.7" font-family="Helvetica,sans-Serif" font-size="11.00" fill="#000000">bit[1]</text>
<polygon fill="#ffffff" stroke="transparent" points="10.5,-6 10.5,-25 73.5,-25 73.5,-6 10.5,-6"/>
<polygon fill="none" stroke="#000000" points="10.5,-6 10.5,-25 73.5,-25 73.5,-6 10.5,-6"/>
<text text-anchor="start" x="13.5" y="-12.1" font-family="Helvetica,sans-Serif" font-size="11.00" fill="#000000">&lt; 0</text>
<polygon fill="#ffffff" stroke="transparent" points="73.5,-6 73.5,-25 127.5,-25 127.5,-6 73.5,-6"/>
<polygon fill="none" stroke="#000000" points="73.5,-6 73.5,-25 127.5,-25 127.5,-6 73.5,-6"/>
<text text-anchor="start" x="118.3862" y="-12.1" font-family="Helvetica,sans-Serif" font-size="11.00" fill="#000000"> &#160;</text>
<polygon fill="#ffffff" stroke="transparent" points="127.5,-6 127.5,-25 193.5,-25 193.5,-6 127.5,-6"/>
<polygon fill="none" stroke="#000000" points="127.5,-6 127.5,-25 193.5,-25 193.5,-6 127.5,-6"/>
<text text-anchor="start" x="174.9053" y="-12.1" font-family="Helvetica,sans-Serif" font-size="11.00" fill="#000000">0 &gt;</text>
<polygon fill="none" stroke="#000000" stroke-width="2" points="9,-5 9,-159 194,-159 194,-5 9,-5"/>
</a>
</g>
</g>
</g>
</svg>
