<?xml version="1.0" encoding="UTF-8" standalone="no"?>
<!DOCTYPE svg PUBLIC "-//W3C//DTD SVG 1.1//EN"
 "http://www.w3.org/Graphics/SVG/1.1/DTD/svg11.dtd">
<!-- Generated by graphviz version 2.40.1 (20161225.0304)
 -->
<!-- Title: users_signatures Pages: 1 -->
<svg width="230pt" height="238pt"
 viewBox="0.00 0.00 230.00 238.00" xmlns="http://www.w3.org/2000/svg" xmlns:xlink="http://www.w3.org/1999/xlink">
<g id="graph0" class="graph" transform="scale(1 1) rotate(0) translate(4 234)">
<title>users_signatures</title>
<polygon fill="#ffffff" stroke="transparent" points="-4,4 -4,-234 226,-234 226,4 -4,4"/>
<!-- users_signatures -->
<g id="node1" class="node">
<title>users_signatures</title>
<g id="a_node1"><a xlink:href="../../tables/users_signatures.html" xlink:title="users_signatures" target="_top">
<polygon fill="#ffffff" stroke="transparent" points="8,-4 8,-226 214,-226 214,-4 8,-4"/>
<polygon fill="#f5f5f5" stroke="transparent" points="10,-201 10,-224 212,-224 212,-201 10,-201"/>
<polygon fill="none" stroke="#000000" points="10,-201 10,-224 212,-224 212,-201 10,-201"/>
<text text-anchor="start" x="15" y="-210.1" font-family="Helvetica,sans-Serif" font-weight="bold" font-size="11.00" fill="#000000">users_signatures</text>
<text text-anchor="start" x="177.0437" y="-209.1" font-family="Helvetica,sans-Serif" font-size="11.00" fill="#000000">[table]</text>
<polygon fill="none" stroke="#000000" points="10,-179 10,-201 145,-201 145,-179 10,-179"/>
<image xlink:href="../../images/primaryKeys.png" width="11px" height="12px" preserveAspectRatio="xMinYMin meet" x="15" y="-196"/>
<text text-anchor="start" x="30" y="-186.1" font-family="Helvetica,sans-Serif" font-size="11.00" fill="#000000">id</text>
<polygon fill="none" stroke="#000000" points="145,-179 145,-201 212,-201 212,-179 145,-179"/>
<text text-anchor="start" x="148" y="-186.7" font-family="Helvetica,sans-Serif" font-size="11.00" fill="#000000">char[36]</text>
<polygon fill="none" stroke="#000000" points="10,-157 10,-179 145,-179 145,-157 10,-157"/>
<text text-anchor="start" x="30" y="-164.1" font-family="Helvetica,sans-Serif" font-size="11.00" fill="#000000">date_entered</text>
<polygon fill="none" stroke="#000000" points="145,-157 145,-179 212,-179 212,-157 145,-157"/>
<text text-anchor="start" x="148" y="-164.7" font-family="Helvetica,sans-Serif" font-size="11.00" fill="#000000">datetime[26]</text>
<polygon fill="none" stroke="#000000" points="10,-135 10,-157 145,-157 145,-135 10,-135"/>
<text text-anchor="start" x="30" y="-142.1" font-family="Helvetica,sans-Serif" font-size="11.00" fill="#000000">date_modified</text>
<polygon fill="none" stroke="#000000" points="145,-135 145,-157 212,-157 212,-135 145,-135"/>
<text text-anchor="start" x="148" y="-142.7" font-family="Helvetica,sans-Serif" font-size="11.00" fill="#000000">datetime[26]</text>
<polygon fill="none" stroke="#000000" points="10,-113 10,-135 145,-135 145,-113 10,-113"/>
<text text-anchor="start" x="30" y="-120.1" font-family="Helvetica,sans-Serif" font-size="11.00" fill="#000000">deleted</text>
<polygon fill="none" stroke="#000000" points="145,-113 145,-135 212,-135 212,-113 145,-113"/>
<text text-anchor="start" x="148" y="-120.7" font-family="Helvetica,sans-Serif" font-size="11.00" fill="#000000">bit[1]</text>
<polygon fill="#ffffff" stroke="transparent" points="10,-91 10,-113 145,-113 145,-91 10,-91"/>
<polygon fill="none" stroke="#000000" points="10,-91 10,-113 145,-113 145,-91 10,-91"/>
<text text-anchor="start" x="30" y="-98.1" font-family="Helvetica,sans-Serif" font-size="11.00" fill="#000000">user_id</text>
<polygon fill="none" stroke="#000000" points="145,-91 145,-113 212,-113 212,-91 145,-91"/>
<text text-anchor="start" x="148" y="-98.7" font-family="Helvetica,sans-Serif" font-size="11.00" fill="#000000">varchar[36]</text>
<polygon fill="none" stroke="#000000" points="10,-69 10,-91 145,-91 145,-69 10,-69"/>
<text text-anchor="start" x="30" y="-76.1" font-family="Helvetica,sans-Serif" font-size="11.00" fill="#000000">name</text>
<polygon fill="none" stroke="#000000" points="145,-69 145,-91 212,-91 212,-69 145,-69"/>
<text text-anchor="start" x="147.9365" y="-76.7" font-family="Helvetica,sans-Serif" font-size="11.00" fill="#000000">varchar[255]</text>
<polygon fill="none" stroke="#000000" points="10,-47 10,-69 145,-69 145,-47 10,-47"/>
<text text-anchor="start" x="30" y="-54.1" font-family="Helvetica,sans-Serif" font-size="11.00" fill="#000000">signature</text>
<polygon fill="none" stroke="#000000" points="145,-47 145,-69 212,-69 212,-47 145,-47"/>
<text text-anchor="start" x="148" y="-54.7" font-family="Helvetica,sans-Serif" font-size="11.00" fill="#000000">text[65535]</text>
<polygon fill="none" stroke="#000000" points="10,-25 10,-47 145,-47 145,-25 10,-25"/>
<text text-anchor="start" x="30" y="-32.1" font-family="Helvetica,sans-Serif" font-size="11.00" fill="#000000">signature_html</text>
<polygon fill="none" stroke="#000000" points="145,-25 145,-47 212,-47 212,-25 145,-25"/>
<text text-anchor="start" x="148" y="-32.7" font-family="Helvetica,sans-Serif" font-size="11.00" fill="#000000">text[65535]</text>
<polygon fill="#ffffff" stroke="transparent" points="10,-6 10,-25 82,-25 82,-6 10,-6"/>
<polygon fill="none" stroke="#000000" points="10,-6 10,-25 82,-25 82,-6 10,-6"/>
<text text-anchor="start" x="13" y="-12.1" font-family="Helvetica,sans-Serif" font-size="11.00" fill="#000000">&lt; 0</text>
<polygon fill="#ffffff" stroke="transparent" points="82,-6 82,-25 145,-25 145,-6 82,-6"/>
<polygon fill="none" stroke="#000000" points="82,-6 82,-25 145,-25 145,-6 82,-6"/>
<text text-anchor="start" x="135.8862" y="-12.1" font-family="Helvetica,sans-Serif" font-size="11.00" fill="#000000"> &#160;</text>
<polygon fill="#ffffff" stroke="transparent" points="145,-6 145,-25 212,-25 212,-6 145,-6"/>
<polygon fill="none" stroke="#000000" points="145,-6 145,-25 212,-25 212,-6 145,-6"/>
<text text-anchor="start" x="193.4053" y="-12.1" font-family="Helvetica,sans-Serif" font-size="11.00" fill="#000000">0 &gt;</text>
<polygon fill="none" stroke="#000000" stroke-width="2" points="9,-5 9,-225 213,-225 213,-5 9,-5"/>
</a>
</g>
</g>
</g>
</svg>
