<?xml version="1.0" encoding="UTF-8" standalone="no"?>
<!DOCTYPE svg PUBLIC "-//W3C//DTD SVG 1.1//EN"
 "http://www.w3.org/Graphics/SVG/1.1/DTD/svg11.dtd">
<!-- Generated by graphviz version 2.40.1 (20161225.0304)
 -->
<!-- Title: users_last_import Pages: 1 -->
<svg width="229pt" height="194pt"
 viewBox="0.00 0.00 229.00 194.00" xmlns="http://www.w3.org/2000/svg" xmlns:xlink="http://www.w3.org/1999/xlink">
<g id="graph0" class="graph" transform="scale(1 1) rotate(0) translate(4 190)">
<title>users_last_import</title>
<polygon fill="#ffffff" stroke="transparent" points="-4,4 -4,-190 225,-190 225,4 -4,4"/>
<!-- users_last_import -->
<g id="node1" class="node">
<title>users_last_import</title>
<g id="a_node1"><a xlink:href="../../tables/users_last_import.html" xlink:title="users_last_import" target="_top">
<polygon fill="#ffffff" stroke="transparent" points="8,-4 8,-182 213,-182 213,-4 8,-4"/>
<polygon fill="#f5f5f5" stroke="transparent" points="10.5,-157 10.5,-180 211.5,-180 211.5,-157 10.5,-157"/>
<polygon fill="none" stroke="#000000" points="10.5,-157 10.5,-180 211.5,-180 211.5,-157 10.5,-157"/>
<text text-anchor="start" x="15.5" y="-166.1" font-family="Helvetica,sans-Serif" font-weight="bold" font-size="11.00" fill="#000000">users_last_import</text>
<text text-anchor="start" x="176.5437" y="-165.1" font-family="Helvetica,sans-Serif" font-size="11.00" fill="#000000">[table]</text>
<polygon fill="none" stroke="#000000" points="10.5,-135 10.5,-157 150.5,-157 150.5,-135 10.5,-135"/>
<image xlink:href="../../images/primaryKeys.png" width="11px" height="12px" preserveAspectRatio="xMinYMin meet" x="15.5" y="-152"/>
<text text-anchor="start" x="30.5" y="-142.1" font-family="Helvetica,sans-Serif" font-size="11.00" fill="#000000">id</text>
<polygon fill="none" stroke="#000000" points="150.5,-135 150.5,-157 211.5,-157 211.5,-135 150.5,-135"/>
<text text-anchor="start" x="153.5" y="-142.7" font-family="Helvetica,sans-Serif" font-size="11.00" fill="#000000">char[36]</text>
<polygon fill="#ffffff" stroke="transparent" points="10.5,-113 10.5,-135 150.5,-135 150.5,-113 10.5,-113"/>
<polygon fill="none" stroke="#000000" points="10.5,-113 10.5,-135 150.5,-135 150.5,-113 10.5,-113"/>
<text text-anchor="start" x="30.5" y="-120.1" font-family="Helvetica,sans-Serif" font-size="11.00" fill="#000000">assigned_user_id</text>
<polygon fill="none" stroke="#000000" points="150.5,-113 150.5,-135 211.5,-135 211.5,-113 150.5,-113"/>
<text text-anchor="start" x="153.5" y="-120.7" font-family="Helvetica,sans-Serif" font-size="11.00" fill="#000000">char[36]</text>
<polygon fill="none" stroke="#000000" points="10.5,-91 10.5,-113 150.5,-113 150.5,-91 10.5,-91"/>
<text text-anchor="start" x="30.5" y="-98.1" font-family="Helvetica,sans-Serif" font-size="11.00" fill="#000000">import_module</text>
<polygon fill="none" stroke="#000000" points="150.5,-91 150.5,-113 211.5,-113 211.5,-91 150.5,-91"/>
<text text-anchor="start" x="153.494" y="-98.7" font-family="Helvetica,sans-Serif" font-size="11.00" fill="#000000">varchar[36]</text>
<polygon fill="none" stroke="#000000" points="10.5,-69 10.5,-91 150.5,-91 150.5,-69 10.5,-69"/>
<text text-anchor="start" x="30.5" y="-76.1" font-family="Helvetica,sans-Serif" font-size="11.00" fill="#000000">bean_type</text>
<polygon fill="none" stroke="#000000" points="150.5,-69 150.5,-91 211.5,-91 211.5,-69 150.5,-69"/>
<text text-anchor="start" x="153.494" y="-76.7" font-family="Helvetica,sans-Serif" font-size="11.00" fill="#000000">varchar[36]</text>
<polygon fill="none" stroke="#000000" points="10.5,-47 10.5,-69 150.5,-69 150.5,-47 10.5,-47"/>
<text text-anchor="start" x="30.5" y="-54.1" font-family="Helvetica,sans-Serif" font-size="11.00" fill="#000000">bean_id</text>
<polygon fill="none" stroke="#000000" points="150.5,-47 150.5,-69 211.5,-69 211.5,-47 150.5,-47"/>
<text text-anchor="start" x="153.5" y="-54.7" font-family="Helvetica,sans-Serif" font-size="11.00" fill="#000000">char[36]</text>
<polygon fill="none" stroke="#000000" points="10.5,-25 10.5,-47 150.5,-47 150.5,-25 10.5,-25"/>
<text text-anchor="start" x="30.5" y="-32.1" font-family="Helvetica,sans-Serif" font-size="11.00" fill="#000000">deleted</text>
<polygon fill="none" stroke="#000000" points="150.5,-25 150.5,-47 211.5,-47 211.5,-25 150.5,-25"/>
<text text-anchor="start" x="153.5" y="-32.7" font-family="Helvetica,sans-Serif" font-size="11.00" fill="#000000">bit[1]</text>
<polygon fill="#ffffff" stroke="transparent" points="10.5,-6 10.5,-25 84.5,-25 84.5,-6 10.5,-6"/>
<polygon fill="none" stroke="#000000" points="10.5,-6 10.5,-25 84.5,-25 84.5,-6 10.5,-6"/>
<text text-anchor="start" x="13.5" y="-12.1" font-family="Helvetica,sans-Serif" font-size="11.00" fill="#000000">&lt; 0</text>
<polygon fill="#ffffff" stroke="transparent" points="84.5,-6 84.5,-25 150.5,-25 150.5,-6 84.5,-6"/>
<polygon fill="none" stroke="#000000" points="84.5,-6 84.5,-25 150.5,-25 150.5,-6 84.5,-6"/>
<text text-anchor="start" x="141.3862" y="-12.1" font-family="Helvetica,sans-Serif" font-size="11.00" fill="#000000"> &#160;</text>
<polygon fill="#ffffff" stroke="transparent" points="150.5,-6 150.5,-25 211.5,-25 211.5,-6 150.5,-6"/>
<polygon fill="none" stroke="#000000" points="150.5,-6 150.5,-25 211.5,-25 211.5,-6 150.5,-6"/>
<text text-anchor="start" x="192.9053" y="-12.1" font-family="Helvetica,sans-Serif" font-size="11.00" fill="#000000">0 &gt;</text>
<polygon fill="none" stroke="#000000" stroke-width="2" points="9,-5 9,-181 212,-181 212,-5 9,-5"/>
</a>
</g>
</g>
</g>
</svg>
