<?xml version="1.0" encoding="UTF-8" standalone="no"?>
<!DOCTYPE svg PUBLIC "-//W3C//DTD SVG 1.1//EN"
 "http://www.w3.org/Graphics/SVG/1.1/DTD/svg11.dtd">
<!-- Generated by graphviz version 2.40.1 (20161225.0304)
 -->
<!-- Title: vcals Pages: 1 -->
<svg width="212pt" height="238pt"
 viewBox="0.00 0.00 212.00 238.00" xmlns="http://www.w3.org/2000/svg" xmlns:xlink="http://www.w3.org/1999/xlink">
<g id="graph0" class="graph" transform="scale(1 1) rotate(0) translate(4 234)">
<title>vcals</title>
<polygon fill="#ffffff" stroke="transparent" points="-4,4 -4,-234 208,-234 208,4 -4,4"/>
<!-- vcals -->
<g id="node1" class="node">
<title>vcals</title>
<g id="a_node1"><a xlink:href="../../tables/vcals.html" xlink:title="vcals" target="_top">
<polygon fill="#ffffff" stroke="transparent" points="8,-4 8,-226 196,-226 196,-4 8,-4"/>
<polygon fill="#f5f5f5" stroke="transparent" points="10,-201 10,-224 194,-224 194,-201 10,-201"/>
<polygon fill="none" stroke="#000000" points="10,-201 10,-224 194,-224 194,-201 10,-201"/>
<text text-anchor="start" x="15" y="-210.1" font-family="Helvetica,sans-Serif" font-weight="bold" font-size="11.00" fill="#000000">vcals</text>
<text text-anchor="start" x="159.0437" y="-209.1" font-family="Helvetica,sans-Serif" font-size="11.00" fill="#000000">[table]</text>
<polygon fill="none" stroke="#000000" points="10,-179 10,-201 127,-201 127,-179 10,-179"/>
<image xlink:href="../../images/primaryKeys.png" width="11px" height="12px" preserveAspectRatio="xMinYMin meet" x="15" y="-196"/>
<text text-anchor="start" x="30" y="-186.1" font-family="Helvetica,sans-Serif" font-size="11.00" fill="#000000">id</text>
<polygon fill="none" stroke="#000000" points="127,-179 127,-201 194,-201 194,-179 127,-179"/>
<text text-anchor="start" x="130" y="-186.7" font-family="Helvetica,sans-Serif" font-size="11.00" fill="#000000">char[36]</text>
<polygon fill="none" stroke="#000000" points="10,-157 10,-179 127,-179 127,-157 10,-157"/>
<text text-anchor="start" x="30" y="-164.1" font-family="Helvetica,sans-Serif" font-size="11.00" fill="#000000">deleted</text>
<polygon fill="none" stroke="#000000" points="127,-157 127,-179 194,-179 194,-157 127,-157"/>
<text text-anchor="start" x="130" y="-164.7" font-family="Helvetica,sans-Serif" font-size="11.00" fill="#000000">bit[1]</text>
<polygon fill="none" stroke="#000000" points="10,-135 10,-157 127,-157 127,-135 10,-135"/>
<text text-anchor="start" x="30" y="-142.1" font-family="Helvetica,sans-Serif" font-size="11.00" fill="#000000">date_entered</text>
<polygon fill="none" stroke="#000000" points="127,-135 127,-157 194,-157 194,-135 127,-135"/>
<text text-anchor="start" x="130" y="-142.7" font-family="Helvetica,sans-Serif" font-size="11.00" fill="#000000">datetime[26]</text>
<polygon fill="none" stroke="#000000" points="10,-113 10,-135 127,-135 127,-113 10,-113"/>
<text text-anchor="start" x="30" y="-120.1" font-family="Helvetica,sans-Serif" font-size="11.00" fill="#000000">date_modified</text>
<polygon fill="none" stroke="#000000" points="127,-113 127,-135 194,-135 194,-113 127,-113"/>
<text text-anchor="start" x="130" y="-120.7" font-family="Helvetica,sans-Serif" font-size="11.00" fill="#000000">datetime[26]</text>
<polygon fill="#ffffff" stroke="transparent" points="10,-91 10,-113 127,-113 127,-91 10,-91"/>
<polygon fill="none" stroke="#000000" points="10,-91 10,-113 127,-113 127,-91 10,-91"/>
<text text-anchor="start" x="30" y="-98.1" font-family="Helvetica,sans-Serif" font-size="11.00" fill="#000000">user_id</text>
<polygon fill="none" stroke="#000000" points="127,-91 127,-113 194,-113 194,-91 127,-91"/>
<text text-anchor="start" x="130" y="-98.7" font-family="Helvetica,sans-Serif" font-size="11.00" fill="#000000">char[36]</text>
<polygon fill="#ffffff" stroke="transparent" points="10,-69 10,-91 127,-91 127,-69 10,-69"/>
<polygon fill="none" stroke="#000000" points="10,-69 10,-91 127,-91 127,-69 10,-69"/>
<text text-anchor="start" x="30" y="-76.1" font-family="Helvetica,sans-Serif" font-size="11.00" fill="#000000">type</text>
<polygon fill="none" stroke="#000000" points="127,-69 127,-91 194,-91 194,-69 127,-69"/>
<text text-anchor="start" x="129.9365" y="-76.7" font-family="Helvetica,sans-Serif" font-size="11.00" fill="#000000">varchar[100]</text>
<polygon fill="none" stroke="#000000" points="10,-47 10,-69 127,-69 127,-47 10,-47"/>
<text text-anchor="start" x="30" y="-54.1" font-family="Helvetica,sans-Serif" font-size="11.00" fill="#000000">source</text>
<polygon fill="none" stroke="#000000" points="127,-47 127,-69 194,-69 194,-47 127,-47"/>
<text text-anchor="start" x="129.9365" y="-54.7" font-family="Helvetica,sans-Serif" font-size="11.00" fill="#000000">varchar[100]</text>
<polygon fill="none" stroke="#000000" points="10,-25 10,-47 127,-47 127,-25 10,-25"/>
<text text-anchor="start" x="30" y="-32.1" font-family="Helvetica,sans-Serif" font-size="11.00" fill="#000000">content</text>
<polygon fill="none" stroke="#000000" points="127,-25 127,-47 194,-47 194,-25 127,-25"/>
<text text-anchor="start" x="130" y="-32.7" font-family="Helvetica,sans-Serif" font-size="11.00" fill="#000000">text[65535]</text>
<polygon fill="#ffffff" stroke="transparent" points="10,-6 10,-25 73,-25 73,-6 10,-6"/>
<polygon fill="none" stroke="#000000" points="10,-6 10,-25 73,-25 73,-6 10,-6"/>
<text text-anchor="start" x="13" y="-12.1" font-family="Helvetica,sans-Serif" font-size="11.00" fill="#000000">&lt; 0</text>
<polygon fill="#ffffff" stroke="transparent" points="73,-6 73,-25 127,-25 127,-6 73,-6"/>
<polygon fill="none" stroke="#000000" points="73,-6 73,-25 127,-25 127,-6 73,-6"/>
<text text-anchor="start" x="117.8862" y="-12.1" font-family="Helvetica,sans-Serif" font-size="11.00" fill="#000000"> &#160;</text>
<polygon fill="#ffffff" stroke="transparent" points="127,-6 127,-25 194,-25 194,-6 127,-6"/>
<polygon fill="none" stroke="#000000" points="127,-6 127,-25 194,-25 194,-6 127,-6"/>
<text text-anchor="start" x="175.4053" y="-12.1" font-family="Helvetica,sans-Serif" font-size="11.00" fill="#000000">0 &gt;</text>
<polygon fill="none" stroke="#000000" stroke-width="2" points="9,-5 9,-225 195,-225 195,-5 9,-5"/>
</a>
</g>
</g>
</g>
</svg>
