<?xml version="1.0" encoding="UTF-8" standalone="no"?>
<!DOCTYPE svg PUBLIC "-//W3C//DTD SVG 1.1//EN"
 "http://www.w3.org/Graphics/SVG/1.1/DTD/svg11.dtd">
<!-- Generated by graphviz version 2.40.1 (20161225.0304)
 -->
<!-- Title: oneDegreeRelationshipsDiagram Pages: 1 -->
<svg width="577pt" height="289pt"
 viewBox="0.00 0.00 577.00 288.70" xmlns="http://www.w3.org/2000/svg" xmlns:xlink="http://www.w3.org/1999/xlink">
<g id="graph0" class="graph" transform="scale(1 1) rotate(0) translate(4 284.7)">
<title>oneDegreeRelationshipsDiagram</title>
<polygon fill="#ffffff" stroke="transparent" points="-4,4 -4,-284.7 573,-284.7 573,4 -4,4"/>
<text text-anchor="middle" x="72.4936" y="-7.3" font-family="Helvetica,sans-Serif" font-size="11.00" fill="#000000">Generated by SchemaSpy</text>
<!-- accounts_cstm -->
<g id="node1" class="node">
<title>accounts_cstm</title>
<g id="a_node1"><a xlink:href="../../tables/accounts_cstm.html" xlink:title="accounts_cstm" target="_top">
<polygon fill="#ffffff" stroke="transparent" points="275,-120.7 275,-276.7 561,-276.7 561,-120.7 275,-120.7"/>
<polygon fill="#f5f5f5" stroke="transparent" points="277,-251.7 277,-274.7 559,-274.7 559,-251.7 277,-251.7"/>
<polygon fill="none" stroke="#000000" points="277,-251.7 277,-274.7 559,-274.7 559,-251.7 277,-251.7"/>
<text text-anchor="start" x="282" y="-260.8" font-family="Helvetica,sans-Serif" font-weight="bold" font-size="11.00" fill="#000000">accounts_cstm</text>
<text text-anchor="start" x="524.0437" y="-259.8" font-family="Helvetica,sans-Serif" font-size="11.00" fill="#000000">[table]</text>
<polygon fill="none" stroke="#000000" points="277,-229.7 277,-251.7 492,-251.7 492,-229.7 277,-229.7"/>
<image xlink:href="../../images/primaryKeys.png" width="11px" height="12px" preserveAspectRatio="xMinYMin meet" x="282" y="-246.7"/>
<text text-anchor="start" x="297" y="-236.8" font-family="Helvetica,sans-Serif" font-size="11.00" fill="#000000">id_c</text>
<polygon fill="none" stroke="#000000" points="492,-229.7 492,-251.7 559,-251.7 559,-229.7 492,-229.7"/>
<text text-anchor="start" x="495" y="-237.4" font-family="Helvetica,sans-Serif" font-size="11.00" fill="#000000">char[36]</text>
<polygon fill="none" stroke="#000000" points="277,-207.7 277,-229.7 492,-229.7 492,-207.7 277,-207.7"/>
<text text-anchor="start" x="297" y="-214.8" font-family="Helvetica,sans-Serif" font-size="11.00" fill="#000000">jjwg_maps_lng_c</text>
<polygon fill="none" stroke="#000000" points="492,-207.7 492,-229.7 559,-229.7 559,-207.7 492,-207.7"/>
<text text-anchor="start" x="495" y="-215.4" font-family="Helvetica,sans-Serif" font-size="11.00" fill="#000000">float[11,8]</text>
<polygon fill="none" stroke="#000000" points="277,-185.7 277,-207.7 492,-207.7 492,-185.7 277,-185.7"/>
<text text-anchor="start" x="297" y="-192.8" font-family="Helvetica,sans-Serif" font-size="11.00" fill="#000000">jjwg_maps_lat_c</text>
<polygon fill="none" stroke="#000000" points="492,-185.7 492,-207.7 559,-207.7 559,-185.7 492,-185.7"/>
<text text-anchor="start" x="495" y="-193.4" font-family="Helvetica,sans-Serif" font-size="11.00" fill="#000000">float[10,8]</text>
<polygon fill="none" stroke="#000000" points="277,-163.7 277,-185.7 492,-185.7 492,-163.7 277,-163.7"/>
<text text-anchor="start" x="297" y="-170.8" font-family="Helvetica,sans-Serif" font-size="11.00" fill="#000000">jjwg_maps_geocode_status_c</text>
<polygon fill="none" stroke="#000000" points="492,-163.7 492,-185.7 559,-185.7 559,-163.7 492,-163.7"/>
<text text-anchor="start" x="494.9365" y="-171.4" font-family="Helvetica,sans-Serif" font-size="11.00" fill="#000000">varchar[255]</text>
<polygon fill="none" stroke="#000000" points="277,-141.7 277,-163.7 492,-163.7 492,-141.7 277,-141.7"/>
<text text-anchor="start" x="297" y="-148.8" font-family="Helvetica,sans-Serif" font-size="11.00" fill="#000000">jjwg_maps_address_c</text>
<polygon fill="none" stroke="#000000" points="492,-141.7 492,-163.7 559,-163.7 559,-141.7 492,-141.7"/>
<text text-anchor="start" x="494.9365" y="-149.4" font-family="Helvetica,sans-Serif" font-size="11.00" fill="#000000">varchar[255]</text>
<polygon fill="#ffffff" stroke="transparent" points="277,-122.7 277,-141.7 389,-141.7 389,-122.7 277,-122.7"/>
<polygon fill="none" stroke="#000000" points="277,-122.7 277,-141.7 389,-141.7 389,-122.7 277,-122.7"/>
<text text-anchor="start" x="280" y="-128.8" font-family="Helvetica,sans-Serif" font-size="11.00" fill="#000000">&lt; 1</text>
<polygon fill="#ffffff" stroke="transparent" points="389,-122.7 389,-141.7 492,-141.7 492,-122.7 389,-122.7"/>
<polygon fill="none" stroke="#000000" points="389,-122.7 389,-141.7 492,-141.7 492,-122.7 389,-122.7"/>
<text text-anchor="start" x="482.8862" y="-128.8" font-family="Helvetica,sans-Serif" font-size="11.00" fill="#000000"> &#160;</text>
<polygon fill="#ffffff" stroke="transparent" points="492,-122.7 492,-141.7 559,-141.7 559,-122.7 492,-122.7"/>
<polygon fill="none" stroke="#000000" points="492,-122.7 492,-141.7 559,-141.7 559,-122.7 492,-122.7"/>
<text text-anchor="start" x="540.4053" y="-128.8" font-family="Helvetica,sans-Serif" font-size="11.00" fill="#000000">0 &gt;</text>
<polygon fill="none" stroke="#000000" stroke-width="2" points="276,-121.7 276,-275.7 560,-275.7 560,-121.7 276,-121.7"/>
</a>
</g>
</g>
<!-- accounts -->
<g id="node2" class="node">
<title>accounts</title>
<g id="a_node2"><a xlink:href="../../tables/accounts.html" xlink:title="accounts" target="_top">
<polygon fill="#ffffff" stroke="transparent" points="8,-38.2 8,-275.2 226,-275.2 226,-38.2 8,-38.2"/>
<polygon fill="#f5f5f5" stroke="transparent" points="8,-251.7 8,-274.7 226,-274.7 226,-251.7 8,-251.7"/>
<polygon fill="none" stroke="#000000" points="8,-251.7 8,-274.7 226,-274.7 226,-251.7 8,-251.7"/>
<text text-anchor="start" x="13" y="-260.8" font-family="Helvetica,sans-Serif" font-weight="bold" font-size="11.00" fill="#000000">accounts</text>
<text text-anchor="start" x="191.0437" y="-259.8" font-family="Helvetica,sans-Serif" font-size="11.00" fill="#000000">[table]</text>
<polygon fill="none" stroke="#000000" points="8,-229.7 8,-251.7 226,-251.7 226,-229.7 8,-229.7"/>
<image xlink:href="../../images/primaryKeys.png" width="11px" height="12px" preserveAspectRatio="xMinYMin meet" x="13" y="-246.7"/>
<text text-anchor="start" x="28" y="-236.8" font-family="Helvetica,sans-Serif" font-size="11.00" fill="#000000">id</text>
<polygon fill="#ffffff" stroke="transparent" points="8,-207.7 8,-229.7 226,-229.7 226,-207.7 8,-207.7"/>
<polygon fill="none" stroke="#000000" points="8,-207.7 8,-229.7 226,-229.7 226,-207.7 8,-207.7"/>
<text text-anchor="start" x="28" y="-214.8" font-family="Helvetica,sans-Serif" font-size="11.00" fill="#000000">name</text>
<polygon fill="#c0c0c0" stroke="transparent" points="8,-185.7 8,-207.7 226,-207.7 226,-185.7 8,-185.7"/>
<polygon fill="none" stroke="#000000" points="8,-185.7 8,-207.7 226,-207.7 226,-185.7 8,-185.7"/>
<image xlink:href="../../images/foreignKeys.png" width="11px" height="12px" preserveAspectRatio="xMinYMin meet" x="13" y="-202.7"/>
<text text-anchor="start" x="28" y="-192.8" font-family="Helvetica,sans-Serif" font-size="11.00" fill="#000000">modified_user_id</text>
<polygon fill="#c0c0c0" stroke="transparent" points="8,-163.7 8,-185.7 226,-185.7 226,-163.7 8,-163.7"/>
<polygon fill="none" stroke="#000000" points="8,-163.7 8,-185.7 226,-185.7 226,-163.7 8,-163.7"/>
<image xlink:href="../../images/foreignKeys.png" width="11px" height="12px" preserveAspectRatio="xMinYMin meet" x="13" y="-180.7"/>
<text text-anchor="start" x="28" y="-170.8" font-family="Helvetica,sans-Serif" font-size="11.00" fill="#000000">created_by</text>
<polygon fill="#ffffff" stroke="transparent" points="8,-141.7 8,-163.7 226,-163.7 226,-141.7 8,-141.7"/>
<polygon fill="none" stroke="#000000" points="8,-141.7 8,-163.7 226,-163.7 226,-141.7 8,-141.7"/>
<text text-anchor="start" x="28" y="-148.8" font-family="Helvetica,sans-Serif" font-size="11.00" fill="#000000">deleted</text>
<polygon fill="#c0c0c0" stroke="transparent" points="8,-119.7 8,-141.7 226,-141.7 226,-119.7 8,-119.7"/>
<polygon fill="none" stroke="#000000" points="8,-119.7 8,-141.7 226,-141.7 226,-119.7 8,-119.7"/>
<image xlink:href="../../images/foreignKeys.png" width="11px" height="12px" preserveAspectRatio="xMinYMin meet" x="13" y="-136.7"/>
<text text-anchor="start" x="28" y="-126.8" font-family="Helvetica,sans-Serif" font-size="11.00" fill="#000000">assigned_user_id</text>
<polygon fill="#ffffff" stroke="transparent" points="8,-97.7 8,-119.7 226,-119.7 226,-97.7 8,-97.7"/>
<polygon fill="none" stroke="#000000" points="8,-97.7 8,-119.7 226,-119.7 226,-97.7 8,-97.7"/>
<image xlink:href="../../images/foreignKeys.png" width="11px" height="12px" preserveAspectRatio="xMinYMin meet" x="13" y="-114.7"/>
<text text-anchor="start" x="28" y="-104.8" font-family="Helvetica,sans-Serif" font-size="11.00" fill="#000000">parent_id</text>
<polygon fill="none" stroke="#000000" points="8,-75.7 8,-97.7 226,-97.7 226,-75.7 8,-75.7"/>
<image xlink:href="../../images/foreignKeys.png" width="11px" height="12px" preserveAspectRatio="xMinYMin meet" x="13" y="-92.7"/>
<text text-anchor="start" x="28" y="-82.8" font-family="Helvetica,sans-Serif" font-size="11.00" fill="#000000">campaign_id</text>
<polygon fill="none" stroke="#000000" points="8,-56.7 8,-75.7 226,-75.7 226,-56.7 8,-56.7"/>
<text text-anchor="start" x="11" y="-62.8" font-family="Helvetica,sans-Serif" font-size="11.00" fill="#000000">...</text>
<polygon fill="#ffffff" stroke="transparent" points="8,-37.7 8,-56.7 108,-56.7 108,-37.7 8,-37.7"/>
<polygon fill="none" stroke="#000000" points="8,-37.7 8,-56.7 108,-56.7 108,-37.7 8,-37.7"/>
<text text-anchor="start" x="11" y="-43.8" font-family="Helvetica,sans-Serif" font-size="11.00" fill="#000000">&lt; 6</text>
<polygon fill="#ffffff" stroke="transparent" points="108,-37.7 108,-56.7 159,-56.7 159,-37.7 108,-37.7"/>
<polygon fill="none" stroke="#000000" points="108,-37.7 108,-56.7 159,-56.7 159,-37.7 108,-37.7"/>
<text text-anchor="start" x="149.8862" y="-43.8" font-family="Helvetica,sans-Serif" font-size="11.00" fill="#000000"> &#160;</text>
<polygon fill="#ffffff" stroke="transparent" points="159,-37.7 159,-56.7 226,-56.7 226,-37.7 159,-37.7"/>
<polygon fill="none" stroke="#000000" points="159,-37.7 159,-56.7 226,-56.7 226,-37.7 159,-37.7"/>
<text text-anchor="start" x="201.2904" y="-43.8" font-family="Helvetica,sans-Serif" font-size="11.00" fill="#000000">23 &gt;</text>
</a>
</g>
</g>
<!-- accounts_cstm&#45;&gt;accounts -->
<g id="edge1" class="edge">
<title>accounts_cstm:w&#45;&gt;accounts:e</title>
<path fill="none" stroke="#000000" d="M266.2307,-240.7C251.748,-240.7 244.5938,-240.7 226,-240.7"/>
<polygon fill="#000000" stroke="#000000" points="276.2,-236.7 276.2,-244.7 274.6,-244.7 274.6,-236.7 276.2,-236.7"/>
<polyline fill="none" stroke="#000000" points="277,-240.7 273,-240.7 "/>
<ellipse fill="none" stroke="#000000" cx="269.8" cy="-240.7001" rx="3.2" ry="3.2"/>
</g>
</g>
</svg>
