<?xml version="1.0" encoding="UTF-8" standalone="no"?>
<!DOCTYPE svg PUBLIC "-//W3C//DTD SVG 1.1//EN"
 "http://www.w3.org/Graphics/SVG/1.1/DTD/svg11.dtd">
<!-- Generated by graphviz version 2.40.1 (20161225.0304)
 -->
<!-- Title: oneDegreeRelationshipsDiagram Pages: 1 -->
<svg width="481pt" height="545pt"
 viewBox="0.00 0.00 481.00 545.20" xmlns="http://www.w3.org/2000/svg" xmlns:xlink="http://www.w3.org/1999/xlink">
<g id="graph0" class="graph" transform="scale(1 1) rotate(0) translate(4 541.2)">
<title>oneDegreeRelationshipsDiagram</title>
<polygon fill="#ffffff" stroke="transparent" points="-4,4 -4,-541.2 477,-541.2 477,4 -4,4"/>
<text text-anchor="middle" x="72.4936" y="-7.3" font-family="Helvetica,sans-Serif" font-size="11.00" fill="#000000">Generated by SchemaSpy</text>
<!-- accounts_bugs -->
<g id="node1" class="node">
<title>accounts_bugs</title>
<g id="a_node1"><a xlink:href="../../tables/accounts_bugs.html" xlink:title="accounts_bugs" target="_top">
<polygon fill="#ffffff" stroke="transparent" points="275,-282.7 275,-438.7 465,-438.7 465,-282.7 275,-282.7"/>
<polygon fill="#f5f5f5" stroke="transparent" points="277,-413.7 277,-436.7 463,-436.7 463,-413.7 277,-413.7"/>
<polygon fill="none" stroke="#000000" points="277,-413.7 277,-436.7 463,-436.7 463,-413.7 277,-413.7"/>
<text text-anchor="start" x="282" y="-422.8" font-family="Helvetica,sans-Serif" font-weight="bold" font-size="11.00" fill="#000000">accounts_bugs</text>
<text text-anchor="start" x="428.0437" y="-421.8" font-family="Helvetica,sans-Serif" font-size="11.00" fill="#000000">[table]</text>
<polygon fill="none" stroke="#000000" points="277,-391.7 277,-413.7 397,-413.7 397,-391.7 277,-391.7"/>
<image xlink:href="../../images/primaryKeys.png" width="11px" height="12px" preserveAspectRatio="xMinYMin meet" x="282" y="-408.7"/>
<text text-anchor="start" x="297" y="-398.8" font-family="Helvetica,sans-Serif" font-size="11.00" fill="#000000">id</text>
<polygon fill="none" stroke="#000000" points="397,-391.7 397,-413.7 463,-413.7 463,-391.7 397,-391.7"/>
<text text-anchor="start" x="400" y="-399.4" font-family="Helvetica,sans-Serif" font-size="11.00" fill="#000000">varchar[36]</text>
<polygon fill="#ffffff" stroke="transparent" points="277,-369.7 277,-391.7 397,-391.7 397,-369.7 277,-369.7"/>
<polygon fill="none" stroke="#000000" points="277,-369.7 277,-391.7 397,-391.7 397,-369.7 277,-369.7"/>
<image xlink:href="../../images/foreignKeys.png" width="11px" height="12px" preserveAspectRatio="xMinYMin meet" x="282" y="-386.7"/>
<text text-anchor="start" x="297" y="-376.8" font-family="Helvetica,sans-Serif" font-size="11.00" fill="#000000">account_id</text>
<polygon fill="none" stroke="#000000" points="397,-369.7 397,-391.7 463,-391.7 463,-369.7 397,-369.7"/>
<text text-anchor="start" x="400" y="-377.4" font-family="Helvetica,sans-Serif" font-size="11.00" fill="#000000">varchar[36]</text>
<polygon fill="#ffffff" stroke="transparent" points="277,-347.7 277,-369.7 397,-369.7 397,-347.7 277,-347.7"/>
<polygon fill="none" stroke="#000000" points="277,-347.7 277,-369.7 397,-369.7 397,-347.7 277,-347.7"/>
<image xlink:href="../../images/foreignKeys.png" width="11px" height="12px" preserveAspectRatio="xMinYMin meet" x="282" y="-364.7"/>
<text text-anchor="start" x="297" y="-354.8" font-family="Helvetica,sans-Serif" font-size="11.00" fill="#000000">bug_id</text>
<polygon fill="none" stroke="#000000" points="397,-347.7 397,-369.7 463,-369.7 463,-347.7 397,-347.7"/>
<text text-anchor="start" x="400" y="-355.4" font-family="Helvetica,sans-Serif" font-size="11.00" fill="#000000">varchar[36]</text>
<polygon fill="none" stroke="#000000" points="277,-325.7 277,-347.7 397,-347.7 397,-325.7 277,-325.7"/>
<text text-anchor="start" x="297" y="-332.8" font-family="Helvetica,sans-Serif" font-size="11.00" fill="#000000">date_modified</text>
<polygon fill="none" stroke="#000000" points="397,-325.7 397,-347.7 463,-347.7 463,-325.7 397,-325.7"/>
<text text-anchor="start" x="399.7401" y="-333.4" font-family="Helvetica,sans-Serif" font-size="11.00" fill="#000000">datetime[26]</text>
<polygon fill="none" stroke="#000000" points="277,-303.7 277,-325.7 397,-325.7 397,-303.7 277,-303.7"/>
<text text-anchor="start" x="297" y="-310.8" font-family="Helvetica,sans-Serif" font-size="11.00" fill="#000000">deleted</text>
<polygon fill="none" stroke="#000000" points="397,-303.7 397,-325.7 463,-325.7 463,-303.7 397,-303.7"/>
<text text-anchor="start" x="400" y="-311.4" font-family="Helvetica,sans-Serif" font-size="11.00" fill="#000000">bit[1]</text>
<polygon fill="#ffffff" stroke="transparent" points="277,-284.7 277,-303.7 341,-303.7 341,-284.7 277,-284.7"/>
<polygon fill="none" stroke="#000000" points="277,-284.7 277,-303.7 341,-303.7 341,-284.7 277,-284.7"/>
<text text-anchor="start" x="280" y="-290.8" font-family="Helvetica,sans-Serif" font-size="11.00" fill="#000000">&lt; 2</text>
<polygon fill="#ffffff" stroke="transparent" points="341,-284.7 341,-303.7 397,-303.7 397,-284.7 341,-284.7"/>
<polygon fill="none" stroke="#000000" points="341,-284.7 341,-303.7 397,-303.7 397,-284.7 341,-284.7"/>
<text text-anchor="start" x="387.8862" y="-290.8" font-family="Helvetica,sans-Serif" font-size="11.00" fill="#000000"> &#160;</text>
<polygon fill="#ffffff" stroke="transparent" points="397,-284.7 397,-303.7 463,-303.7 463,-284.7 397,-284.7"/>
<polygon fill="none" stroke="#000000" points="397,-284.7 397,-303.7 463,-303.7 463,-284.7 397,-284.7"/>
<text text-anchor="start" x="444.4053" y="-290.8" font-family="Helvetica,sans-Serif" font-size="11.00" fill="#000000">0 &gt;</text>
<polygon fill="none" stroke="#000000" stroke-width="2" points="276,-283.7 276,-437.7 464,-437.7 464,-283.7 276,-283.7"/>
</a>
</g>
</g>
<!-- accounts -->
<g id="node2" class="node">
<title>accounts</title>
<g id="a_node2"><a xlink:href="../../tables/accounts.html" xlink:title="accounts" target="_top">
<polygon fill="#ffffff" stroke="transparent" points="8,-296.2 8,-533.2 226,-533.2 226,-296.2 8,-296.2"/>
<polygon fill="#f5f5f5" stroke="transparent" points="8,-509.7 8,-532.7 226,-532.7 226,-509.7 8,-509.7"/>
<polygon fill="none" stroke="#000000" points="8,-509.7 8,-532.7 226,-532.7 226,-509.7 8,-509.7"/>
<text text-anchor="start" x="13" y="-518.8" font-family="Helvetica,sans-Serif" font-weight="bold" font-size="11.00" fill="#000000">accounts</text>
<text text-anchor="start" x="191.0437" y="-517.8" font-family="Helvetica,sans-Serif" font-size="11.00" fill="#000000">[table]</text>
<polygon fill="none" stroke="#000000" points="8,-487.7 8,-509.7 226,-509.7 226,-487.7 8,-487.7"/>
<image xlink:href="../../images/primaryKeys.png" width="11px" height="12px" preserveAspectRatio="xMinYMin meet" x="13" y="-504.7"/>
<text text-anchor="start" x="28" y="-494.8" font-family="Helvetica,sans-Serif" font-size="11.00" fill="#000000">id</text>
<polygon fill="#ffffff" stroke="transparent" points="8,-465.7 8,-487.7 226,-487.7 226,-465.7 8,-465.7"/>
<polygon fill="none" stroke="#000000" points="8,-465.7 8,-487.7 226,-487.7 226,-465.7 8,-465.7"/>
<text text-anchor="start" x="28" y="-472.8" font-family="Helvetica,sans-Serif" font-size="11.00" fill="#000000">name</text>
<polygon fill="#c0c0c0" stroke="transparent" points="8,-443.7 8,-465.7 226,-465.7 226,-443.7 8,-443.7"/>
<polygon fill="none" stroke="#000000" points="8,-443.7 8,-465.7 226,-465.7 226,-443.7 8,-443.7"/>
<image xlink:href="../../images/foreignKeys.png" width="11px" height="12px" preserveAspectRatio="xMinYMin meet" x="13" y="-460.7"/>
<text text-anchor="start" x="28" y="-450.8" font-family="Helvetica,sans-Serif" font-size="11.00" fill="#000000">modified_user_id</text>
<polygon fill="#c0c0c0" stroke="transparent" points="8,-421.7 8,-443.7 226,-443.7 226,-421.7 8,-421.7"/>
<polygon fill="none" stroke="#000000" points="8,-421.7 8,-443.7 226,-443.7 226,-421.7 8,-421.7"/>
<image xlink:href="../../images/foreignKeys.png" width="11px" height="12px" preserveAspectRatio="xMinYMin meet" x="13" y="-438.7"/>
<text text-anchor="start" x="28" y="-428.8" font-family="Helvetica,sans-Serif" font-size="11.00" fill="#000000">created_by</text>
<polygon fill="#ffffff" stroke="transparent" points="8,-399.7 8,-421.7 226,-421.7 226,-399.7 8,-399.7"/>
<polygon fill="none" stroke="#000000" points="8,-399.7 8,-421.7 226,-421.7 226,-399.7 8,-399.7"/>
<text text-anchor="start" x="28" y="-406.8" font-family="Helvetica,sans-Serif" font-size="11.00" fill="#000000">deleted</text>
<polygon fill="#c0c0c0" stroke="transparent" points="8,-377.7 8,-399.7 226,-399.7 226,-377.7 8,-377.7"/>
<polygon fill="none" stroke="#000000" points="8,-377.7 8,-399.7 226,-399.7 226,-377.7 8,-377.7"/>
<image xlink:href="../../images/foreignKeys.png" width="11px" height="12px" preserveAspectRatio="xMinYMin meet" x="13" y="-394.7"/>
<text text-anchor="start" x="28" y="-384.8" font-family="Helvetica,sans-Serif" font-size="11.00" fill="#000000">assigned_user_id</text>
<polygon fill="#ffffff" stroke="transparent" points="8,-355.7 8,-377.7 226,-377.7 226,-355.7 8,-355.7"/>
<polygon fill="none" stroke="#000000" points="8,-355.7 8,-377.7 226,-377.7 226,-355.7 8,-355.7"/>
<image xlink:href="../../images/foreignKeys.png" width="11px" height="12px" preserveAspectRatio="xMinYMin meet" x="13" y="-372.7"/>
<text text-anchor="start" x="28" y="-362.8" font-family="Helvetica,sans-Serif" font-size="11.00" fill="#000000">parent_id</text>
<polygon fill="none" stroke="#000000" points="8,-333.7 8,-355.7 226,-355.7 226,-333.7 8,-333.7"/>
<image xlink:href="../../images/foreignKeys.png" width="11px" height="12px" preserveAspectRatio="xMinYMin meet" x="13" y="-350.7"/>
<text text-anchor="start" x="28" y="-340.8" font-family="Helvetica,sans-Serif" font-size="11.00" fill="#000000">campaign_id</text>
<polygon fill="none" stroke="#000000" points="8,-314.7 8,-333.7 226,-333.7 226,-314.7 8,-314.7"/>
<text text-anchor="start" x="11" y="-320.8" font-family="Helvetica,sans-Serif" font-size="11.00" fill="#000000">...</text>
<polygon fill="#ffffff" stroke="transparent" points="8,-295.7 8,-314.7 108,-314.7 108,-295.7 8,-295.7"/>
<polygon fill="none" stroke="#000000" points="8,-295.7 8,-314.7 108,-314.7 108,-295.7 8,-295.7"/>
<text text-anchor="start" x="11" y="-301.8" font-family="Helvetica,sans-Serif" font-size="11.00" fill="#000000">&lt; 6</text>
<polygon fill="#ffffff" stroke="transparent" points="108,-295.7 108,-314.7 159,-314.7 159,-295.7 108,-295.7"/>
<polygon fill="none" stroke="#000000" points="108,-295.7 108,-314.7 159,-314.7 159,-295.7 108,-295.7"/>
<text text-anchor="start" x="149.8862" y="-301.8" font-family="Helvetica,sans-Serif" font-size="11.00" fill="#000000"> &#160;</text>
<polygon fill="#ffffff" stroke="transparent" points="159,-295.7 159,-314.7 226,-314.7 226,-295.7 159,-295.7"/>
<polygon fill="none" stroke="#000000" points="159,-295.7 159,-314.7 226,-314.7 226,-295.7 159,-295.7"/>
<text text-anchor="start" x="201.2904" y="-301.8" font-family="Helvetica,sans-Serif" font-size="11.00" fill="#000000">23 &gt;</text>
</a>
</g>
</g>
<!-- accounts_bugs&#45;&gt;accounts -->
<g id="edge1" class="edge">
<title>accounts_bugs:w&#45;&gt;accounts:e</title>
<path fill="none" stroke="#000000" d="M262.6581,-384.3609C231.8728,-404.278 277.1074,-498.7 226,-498.7"/>
<polygon fill="#000000" stroke="#000000" points="269.2485,-382.6787 277.8904,-384.1882 273.1243,-381.6893 277,-380.7 277,-380.7 277,-380.7 273.1243,-381.6893 276.1096,-377.2118 269.2485,-382.6787 269.2485,-382.6787"/>
<ellipse fill="none" stroke="#000000" cx="266.148" cy="-383.4701" rx="3.2" ry="3.2"/>
</g>
<!-- bugs -->
<g id="node3" class="node">
<title>bugs</title>
<g id="a_node3"><a xlink:href="../../tables/bugs.html" xlink:title="bugs" target="_top">
<polygon fill="#ffffff" stroke="transparent" points="47.5,-38.2 47.5,-275.2 186.5,-275.2 186.5,-38.2 47.5,-38.2"/>
<polygon fill="#f5f5f5" stroke="transparent" points="48,-251.7 48,-274.7 187,-274.7 187,-251.7 48,-251.7"/>
<polygon fill="none" stroke="#000000" points="48,-251.7 48,-274.7 187,-274.7 187,-251.7 48,-251.7"/>
<text text-anchor="start" x="53" y="-260.8" font-family="Helvetica,sans-Serif" font-weight="bold" font-size="11.00" fill="#000000">bugs</text>
<text text-anchor="start" x="152.0437" y="-259.8" font-family="Helvetica,sans-Serif" font-size="11.00" fill="#000000">[table]</text>
<polygon fill="none" stroke="#000000" points="48,-229.7 48,-251.7 187,-251.7 187,-229.7 48,-229.7"/>
<image xlink:href="../../images/primaryKeys.png" width="11px" height="12px" preserveAspectRatio="xMinYMin meet" x="53" y="-246.7"/>
<text text-anchor="start" x="68" y="-236.8" font-family="Helvetica,sans-Serif" font-size="11.00" fill="#000000">id</text>
<polygon fill="#ffffff" stroke="transparent" points="48,-207.7 48,-229.7 187,-229.7 187,-207.7 48,-207.7"/>
<polygon fill="none" stroke="#000000" points="48,-207.7 48,-229.7 187,-229.7 187,-207.7 48,-207.7"/>
<text text-anchor="start" x="68" y="-214.8" font-family="Helvetica,sans-Serif" font-size="11.00" fill="#000000">name</text>
<polygon fill="#c0c0c0" stroke="transparent" points="48,-185.7 48,-207.7 187,-207.7 187,-185.7 48,-185.7"/>
<polygon fill="none" stroke="#000000" points="48,-185.7 48,-207.7 187,-207.7 187,-185.7 48,-185.7"/>
<image xlink:href="../../images/foreignKeys.png" width="11px" height="12px" preserveAspectRatio="xMinYMin meet" x="53" y="-202.7"/>
<text text-anchor="start" x="68" y="-192.8" font-family="Helvetica,sans-Serif" font-size="11.00" fill="#000000">modified_user_id</text>
<polygon fill="#c0c0c0" stroke="transparent" points="48,-163.7 48,-185.7 187,-185.7 187,-163.7 48,-163.7"/>
<polygon fill="none" stroke="#000000" points="48,-163.7 48,-185.7 187,-185.7 187,-163.7 48,-163.7"/>
<image xlink:href="../../images/foreignKeys.png" width="11px" height="12px" preserveAspectRatio="xMinYMin meet" x="53" y="-180.7"/>
<text text-anchor="start" x="68" y="-170.8" font-family="Helvetica,sans-Serif" font-size="11.00" fill="#000000">created_by</text>
<polygon fill="#c0c0c0" stroke="transparent" points="48,-141.7 48,-163.7 187,-163.7 187,-141.7 48,-141.7"/>
<polygon fill="none" stroke="#000000" points="48,-141.7 48,-163.7 187,-163.7 187,-141.7 48,-141.7"/>
<image xlink:href="../../images/foreignKeys.png" width="11px" height="12px" preserveAspectRatio="xMinYMin meet" x="53" y="-158.7"/>
<text text-anchor="start" x="68" y="-148.8" font-family="Helvetica,sans-Serif" font-size="11.00" fill="#000000">assigned_user_id</text>
<polygon fill="#ffffff" stroke="transparent" points="48,-119.7 48,-141.7 187,-141.7 187,-119.7 48,-119.7"/>
<polygon fill="none" stroke="#000000" points="48,-119.7 48,-141.7 187,-141.7 187,-119.7 48,-119.7"/>
<text text-anchor="start" x="68" y="-126.8" font-family="Helvetica,sans-Serif" font-size="11.00" fill="#000000">bug_number</text>
<polygon fill="none" stroke="#000000" points="48,-97.7 48,-119.7 187,-119.7 187,-97.7 48,-97.7"/>
<image xlink:href="../../images/foreignKeys.png" width="11px" height="12px" preserveAspectRatio="xMinYMin meet" x="53" y="-114.7"/>
<text text-anchor="start" x="68" y="-104.8" font-family="Helvetica,sans-Serif" font-size="11.00" fill="#000000">found_in_release</text>
<polygon fill="none" stroke="#000000" points="48,-75.7 48,-97.7 187,-97.7 187,-75.7 48,-75.7"/>
<image xlink:href="../../images/foreignKeys.png" width="11px" height="12px" preserveAspectRatio="xMinYMin meet" x="53" y="-92.7"/>
<text text-anchor="start" x="68" y="-82.8" font-family="Helvetica,sans-Serif" font-size="11.00" fill="#000000">fixed_in_release</text>
<polygon fill="none" stroke="#000000" points="48,-56.7 48,-75.7 187,-75.7 187,-56.7 48,-56.7"/>
<text text-anchor="start" x="51" y="-62.8" font-family="Helvetica,sans-Serif" font-size="11.00" fill="#000000">...</text>
<polygon fill="#ffffff" stroke="transparent" points="48,-37.7 48,-56.7 108,-56.7 108,-37.7 48,-37.7"/>
<polygon fill="none" stroke="#000000" points="48,-37.7 48,-56.7 108,-56.7 108,-37.7 48,-37.7"/>
<text text-anchor="start" x="51" y="-43.8" font-family="Helvetica,sans-Serif" font-size="11.00" fill="#000000">&lt; 5</text>
<polygon fill="#ffffff" stroke="transparent" points="108,-37.7 108,-56.7 140,-56.7 140,-37.7 108,-37.7"/>
<polygon fill="none" stroke="#000000" points="108,-37.7 108,-56.7 140,-56.7 140,-37.7 108,-37.7"/>
<text text-anchor="start" x="130.8862" y="-43.8" font-family="Helvetica,sans-Serif" font-size="11.00" fill="#000000"> &#160;</text>
<polygon fill="#ffffff" stroke="transparent" points="140,-37.7 140,-56.7 187,-56.7 187,-37.7 140,-37.7"/>
<polygon fill="none" stroke="#000000" points="140,-37.7 140,-56.7 187,-56.7 187,-37.7 140,-37.7"/>
<text text-anchor="start" x="162.2904" y="-43.8" font-family="Helvetica,sans-Serif" font-size="11.00" fill="#000000">13 &gt;</text>
</a>
</g>
</g>
<!-- accounts_bugs&#45;&gt;bugs -->
<g id="edge2" class="edge">
<title>accounts_bugs:w&#45;&gt;bugs:e</title>
<path fill="none" stroke="#000000" d="M262.7942,-355.5902C244.0584,-345.1311 253.6314,-310.493 234,-285.7 216.0475,-263.0273 215.9196,-240.7 187,-240.7"/>
<polygon fill="#000000" stroke="#000000" points="269.1851,-356.9892 276.2301,-362.2167 273.0925,-357.8446 277,-358.7 277,-358.7 277,-358.7 273.0925,-357.8446 277.7699,-355.1833 269.1851,-356.9892 269.1851,-356.9892"/>
<ellipse fill="none" stroke="#000000" cx="266.0591" cy="-356.3049" rx="3.2" ry="3.2"/>
</g>
</g>
</svg>
