<?xml version="1.0" encoding="UTF-8" standalone="no"?>
<!DOCTYPE svg PUBLIC "-//W3C//DTD SVG 1.1//EN"
 "http://www.w3.org/Graphics/SVG/1.1/DTD/svg11.dtd">
<!-- Generated by graphviz version 2.40.1 (20161225.0304)
 -->
<!-- Title: oneDegreeRelationshipsDiagram Pages: 1 -->
<svg width="506pt" height="567pt"
 viewBox="0.00 0.00 506.00 567.20" xmlns="http://www.w3.org/2000/svg" xmlns:xlink="http://www.w3.org/1999/xlink">
<g id="graph0" class="graph" transform="scale(1 1) rotate(0) translate(4 563.2)">
<title>oneDegreeRelationshipsDiagram</title>
<polygon fill="#ffffff" stroke="transparent" points="-4,4 -4,-563.2 502,-563.2 502,4 -4,4"/>
<text text-anchor="middle" x="72.4936" y="-7.3" font-family="Helvetica,sans-Serif" font-size="11.00" fill="#000000">Generated by SchemaSpy</text>
<!-- accounts_contacts -->
<g id="node1" class="node">
<title>accounts_contacts</title>
<g id="a_node1"><a xlink:href="../../tables/accounts_contacts.html" xlink:title="accounts_contacts" target="_top">
<polygon fill="#ffffff" stroke="transparent" points="275,-293.7 275,-449.7 490,-449.7 490,-293.7 275,-293.7"/>
<polygon fill="#f5f5f5" stroke="transparent" points="277.5,-424.7 277.5,-447.7 488.5,-447.7 488.5,-424.7 277.5,-424.7"/>
<polygon fill="none" stroke="#000000" points="277.5,-424.7 277.5,-447.7 488.5,-447.7 488.5,-424.7 277.5,-424.7"/>
<text text-anchor="start" x="282.5" y="-433.8" font-family="Helvetica,sans-Serif" font-weight="bold" font-size="11.00" fill="#000000">accounts_contacts</text>
<text text-anchor="start" x="453.5437" y="-432.8" font-family="Helvetica,sans-Serif" font-size="11.00" fill="#000000">[table]</text>
<polygon fill="none" stroke="#000000" points="277.5,-402.7 277.5,-424.7 422.5,-424.7 422.5,-402.7 277.5,-402.7"/>
<image xlink:href="../../images/primaryKeys.png" width="11px" height="12px" preserveAspectRatio="xMinYMin meet" x="282.5" y="-419.7"/>
<text text-anchor="start" x="297.5" y="-409.8" font-family="Helvetica,sans-Serif" font-size="11.00" fill="#000000">id</text>
<polygon fill="none" stroke="#000000" points="422.5,-402.7 422.5,-424.7 488.5,-424.7 488.5,-402.7 422.5,-402.7"/>
<text text-anchor="start" x="425.5" y="-410.4" font-family="Helvetica,sans-Serif" font-size="11.00" fill="#000000">varchar[36]</text>
<polygon fill="#ffffff" stroke="transparent" points="277.5,-380.7 277.5,-402.7 422.5,-402.7 422.5,-380.7 277.5,-380.7"/>
<polygon fill="none" stroke="#000000" points="277.5,-380.7 277.5,-402.7 422.5,-402.7 422.5,-380.7 277.5,-380.7"/>
<image xlink:href="../../images/foreignKeys.png" width="11px" height="12px" preserveAspectRatio="xMinYMin meet" x="282.5" y="-397.7"/>
<text text-anchor="start" x="297.5" y="-387.8" font-family="Helvetica,sans-Serif" font-size="11.00" fill="#000000">contact_id</text>
<polygon fill="none" stroke="#000000" points="422.5,-380.7 422.5,-402.7 488.5,-402.7 488.5,-380.7 422.5,-380.7"/>
<text text-anchor="start" x="425.5" y="-388.4" font-family="Helvetica,sans-Serif" font-size="11.00" fill="#000000">varchar[36]</text>
<polygon fill="#ffffff" stroke="transparent" points="277.5,-358.7 277.5,-380.7 422.5,-380.7 422.5,-358.7 277.5,-358.7"/>
<polygon fill="none" stroke="#000000" points="277.5,-358.7 277.5,-380.7 422.5,-380.7 422.5,-358.7 277.5,-358.7"/>
<image xlink:href="../../images/foreignKeys.png" width="11px" height="12px" preserveAspectRatio="xMinYMin meet" x="282.5" y="-375.7"/>
<text text-anchor="start" x="297.5" y="-365.8" font-family="Helvetica,sans-Serif" font-size="11.00" fill="#000000">account_id</text>
<polygon fill="none" stroke="#000000" points="422.5,-358.7 422.5,-380.7 488.5,-380.7 488.5,-358.7 422.5,-358.7"/>
<text text-anchor="start" x="425.5" y="-366.4" font-family="Helvetica,sans-Serif" font-size="11.00" fill="#000000">varchar[36]</text>
<polygon fill="none" stroke="#000000" points="277.5,-336.7 277.5,-358.7 422.5,-358.7 422.5,-336.7 277.5,-336.7"/>
<text text-anchor="start" x="297.5" y="-343.8" font-family="Helvetica,sans-Serif" font-size="11.00" fill="#000000">date_modified</text>
<polygon fill="none" stroke="#000000" points="422.5,-336.7 422.5,-358.7 488.5,-358.7 488.5,-336.7 422.5,-336.7"/>
<text text-anchor="start" x="425.2401" y="-344.4" font-family="Helvetica,sans-Serif" font-size="11.00" fill="#000000">datetime[26]</text>
<polygon fill="#ffffff" stroke="transparent" points="277.5,-314.7 277.5,-336.7 422.5,-336.7 422.5,-314.7 277.5,-314.7"/>
<polygon fill="none" stroke="#000000" points="277.5,-314.7 277.5,-336.7 422.5,-336.7 422.5,-314.7 277.5,-314.7"/>
<text text-anchor="start" x="297.5" y="-321.8" font-family="Helvetica,sans-Serif" font-size="11.00" fill="#000000">deleted</text>
<polygon fill="none" stroke="#000000" points="422.5,-314.7 422.5,-336.7 488.5,-336.7 488.5,-314.7 422.5,-314.7"/>
<text text-anchor="start" x="425.5" y="-322.4" font-family="Helvetica,sans-Serif" font-size="11.00" fill="#000000">bit[1]</text>
<polygon fill="#ffffff" stroke="transparent" points="277.5,-295.7 277.5,-314.7 354.5,-314.7 354.5,-295.7 277.5,-295.7"/>
<polygon fill="none" stroke="#000000" points="277.5,-295.7 277.5,-314.7 354.5,-314.7 354.5,-295.7 277.5,-295.7"/>
<text text-anchor="start" x="280.5" y="-301.8" font-family="Helvetica,sans-Serif" font-size="11.00" fill="#000000">&lt; 2</text>
<polygon fill="#ffffff" stroke="transparent" points="354.5,-295.7 354.5,-314.7 422.5,-314.7 422.5,-295.7 354.5,-295.7"/>
<polygon fill="none" stroke="#000000" points="354.5,-295.7 354.5,-314.7 422.5,-314.7 422.5,-295.7 354.5,-295.7"/>
<text text-anchor="start" x="413.3862" y="-301.8" font-family="Helvetica,sans-Serif" font-size="11.00" fill="#000000"> &#160;</text>
<polygon fill="#ffffff" stroke="transparent" points="422.5,-295.7 422.5,-314.7 488.5,-314.7 488.5,-295.7 422.5,-295.7"/>
<polygon fill="none" stroke="#000000" points="422.5,-295.7 422.5,-314.7 488.5,-314.7 488.5,-295.7 422.5,-295.7"/>
<text text-anchor="start" x="469.9053" y="-301.8" font-family="Helvetica,sans-Serif" font-size="11.00" fill="#000000">0 &gt;</text>
<polygon fill="none" stroke="#000000" stroke-width="2" points="276,-294.7 276,-448.7 489,-448.7 489,-294.7 276,-294.7"/>
</a>
</g>
</g>
<!-- accounts -->
<g id="node2" class="node">
<title>accounts</title>
<g id="a_node2"><a xlink:href="../../tables/accounts.html" xlink:title="accounts" target="_top">
<polygon fill="#ffffff" stroke="transparent" points="8,-38.2 8,-275.2 226,-275.2 226,-38.2 8,-38.2"/>
<polygon fill="#f5f5f5" stroke="transparent" points="8,-251.7 8,-274.7 226,-274.7 226,-251.7 8,-251.7"/>
<polygon fill="none" stroke="#000000" points="8,-251.7 8,-274.7 226,-274.7 226,-251.7 8,-251.7"/>
<text text-anchor="start" x="13" y="-260.8" font-family="Helvetica,sans-Serif" font-weight="bold" font-size="11.00" fill="#000000">accounts</text>
<text text-anchor="start" x="191.0437" y="-259.8" font-family="Helvetica,sans-Serif" font-size="11.00" fill="#000000">[table]</text>
<polygon fill="none" stroke="#000000" points="8,-229.7 8,-251.7 226,-251.7 226,-229.7 8,-229.7"/>
<image xlink:href="../../images/primaryKeys.png" width="11px" height="12px" preserveAspectRatio="xMinYMin meet" x="13" y="-246.7"/>
<text text-anchor="start" x="28" y="-236.8" font-family="Helvetica,sans-Serif" font-size="11.00" fill="#000000">id</text>
<polygon fill="#ffffff" stroke="transparent" points="8,-207.7 8,-229.7 226,-229.7 226,-207.7 8,-207.7"/>
<polygon fill="none" stroke="#000000" points="8,-207.7 8,-229.7 226,-229.7 226,-207.7 8,-207.7"/>
<text text-anchor="start" x="28" y="-214.8" font-family="Helvetica,sans-Serif" font-size="11.00" fill="#000000">name</text>
<polygon fill="#c0c0c0" stroke="transparent" points="8,-185.7 8,-207.7 226,-207.7 226,-185.7 8,-185.7"/>
<polygon fill="none" stroke="#000000" points="8,-185.7 8,-207.7 226,-207.7 226,-185.7 8,-185.7"/>
<image xlink:href="../../images/foreignKeys.png" width="11px" height="12px" preserveAspectRatio="xMinYMin meet" x="13" y="-202.7"/>
<text text-anchor="start" x="28" y="-192.8" font-family="Helvetica,sans-Serif" font-size="11.00" fill="#000000">modified_user_id</text>
<polygon fill="#c0c0c0" stroke="transparent" points="8,-163.7 8,-185.7 226,-185.7 226,-163.7 8,-163.7"/>
<polygon fill="none" stroke="#000000" points="8,-163.7 8,-185.7 226,-185.7 226,-163.7 8,-163.7"/>
<image xlink:href="../../images/foreignKeys.png" width="11px" height="12px" preserveAspectRatio="xMinYMin meet" x="13" y="-180.7"/>
<text text-anchor="start" x="28" y="-170.8" font-family="Helvetica,sans-Serif" font-size="11.00" fill="#000000">created_by</text>
<polygon fill="#ffffff" stroke="transparent" points="8,-141.7 8,-163.7 226,-163.7 226,-141.7 8,-141.7"/>
<polygon fill="none" stroke="#000000" points="8,-141.7 8,-163.7 226,-163.7 226,-141.7 8,-141.7"/>
<text text-anchor="start" x="28" y="-148.8" font-family="Helvetica,sans-Serif" font-size="11.00" fill="#000000">deleted</text>
<polygon fill="#c0c0c0" stroke="transparent" points="8,-119.7 8,-141.7 226,-141.7 226,-119.7 8,-119.7"/>
<polygon fill="none" stroke="#000000" points="8,-119.7 8,-141.7 226,-141.7 226,-119.7 8,-119.7"/>
<image xlink:href="../../images/foreignKeys.png" width="11px" height="12px" preserveAspectRatio="xMinYMin meet" x="13" y="-136.7"/>
<text text-anchor="start" x="28" y="-126.8" font-family="Helvetica,sans-Serif" font-size="11.00" fill="#000000">assigned_user_id</text>
<polygon fill="#ffffff" stroke="transparent" points="8,-97.7 8,-119.7 226,-119.7 226,-97.7 8,-97.7"/>
<polygon fill="none" stroke="#000000" points="8,-97.7 8,-119.7 226,-119.7 226,-97.7 8,-97.7"/>
<image xlink:href="../../images/foreignKeys.png" width="11px" height="12px" preserveAspectRatio="xMinYMin meet" x="13" y="-114.7"/>
<text text-anchor="start" x="28" y="-104.8" font-family="Helvetica,sans-Serif" font-size="11.00" fill="#000000">parent_id</text>
<polygon fill="none" stroke="#000000" points="8,-75.7 8,-97.7 226,-97.7 226,-75.7 8,-75.7"/>
<image xlink:href="../../images/foreignKeys.png" width="11px" height="12px" preserveAspectRatio="xMinYMin meet" x="13" y="-92.7"/>
<text text-anchor="start" x="28" y="-82.8" font-family="Helvetica,sans-Serif" font-size="11.00" fill="#000000">campaign_id</text>
<polygon fill="none" stroke="#000000" points="8,-56.7 8,-75.7 226,-75.7 226,-56.7 8,-56.7"/>
<text text-anchor="start" x="11" y="-62.8" font-family="Helvetica,sans-Serif" font-size="11.00" fill="#000000">...</text>
<polygon fill="#ffffff" stroke="transparent" points="8,-37.7 8,-56.7 108,-56.7 108,-37.7 8,-37.7"/>
<polygon fill="none" stroke="#000000" points="8,-37.7 8,-56.7 108,-56.7 108,-37.7 8,-37.7"/>
<text text-anchor="start" x="11" y="-43.8" font-family="Helvetica,sans-Serif" font-size="11.00" fill="#000000">&lt; 6</text>
<polygon fill="#ffffff" stroke="transparent" points="108,-37.7 108,-56.7 159,-56.7 159,-37.7 108,-37.7"/>
<polygon fill="none" stroke="#000000" points="108,-37.7 108,-56.7 159,-56.7 159,-37.7 108,-37.7"/>
<text text-anchor="start" x="149.8862" y="-43.8" font-family="Helvetica,sans-Serif" font-size="11.00" fill="#000000"> &#160;</text>
<polygon fill="#ffffff" stroke="transparent" points="159,-37.7 159,-56.7 226,-56.7 226,-37.7 159,-37.7"/>
<polygon fill="none" stroke="#000000" points="159,-37.7 159,-56.7 226,-56.7 226,-37.7 159,-37.7"/>
<text text-anchor="start" x="201.2904" y="-43.8" font-family="Helvetica,sans-Serif" font-size="11.00" fill="#000000">23 &gt;</text>
</a>
</g>
</g>
<!-- accounts_contacts&#45;&gt;accounts -->
<g id="edge1" class="edge">
<title>accounts_contacts:w&#45;&gt;accounts:e</title>
<path fill="none" stroke="#000000" d="M263.4424,-366.5112C228.0853,-346.6463 281.9459,-240.7 226,-240.7"/>
<polygon fill="#000000" stroke="#000000" points="269.6982,-367.9302 276.7036,-373.2108 273.5991,-368.8151 277.5,-369.7 277.5,-369.7 277.5,-369.7 273.5991,-368.8151 278.2964,-366.1892 269.6982,-367.9302 269.6982,-367.9302"/>
<ellipse fill="none" stroke="#000000" cx="266.5775" cy="-367.2223" rx="3.2" ry="3.2"/>
</g>
<!-- contacts -->
<g id="node3" class="node">
<title>contacts</title>
<g id="a_node3"><a xlink:href="../../tables/contacts.html" xlink:title="contacts" target="_top">
<polygon fill="#ffffff" stroke="transparent" points="10.5,-296.2 10.5,-555.2 223.5,-555.2 223.5,-296.2 10.5,-296.2"/>
<polygon fill="#f5f5f5" stroke="transparent" points="11,-531.7 11,-554.7 224,-554.7 224,-531.7 11,-531.7"/>
<polygon fill="none" stroke="#000000" points="11,-531.7 11,-554.7 224,-554.7 224,-531.7 11,-531.7"/>
<text text-anchor="start" x="16" y="-540.8" font-family="Helvetica,sans-Serif" font-weight="bold" font-size="11.00" fill="#000000">contacts</text>
<text text-anchor="start" x="189.0437" y="-539.8" font-family="Helvetica,sans-Serif" font-size="11.00" fill="#000000">[table]</text>
<polygon fill="none" stroke="#000000" points="11,-509.7 11,-531.7 224,-531.7 224,-509.7 11,-509.7"/>
<image xlink:href="../../images/primaryKeys.png" width="11px" height="12px" preserveAspectRatio="xMinYMin meet" x="16" y="-526.7"/>
<text text-anchor="start" x="31" y="-516.8" font-family="Helvetica,sans-Serif" font-size="11.00" fill="#000000">id</text>
<polygon fill="#c0c0c0" stroke="transparent" points="11,-487.7 11,-509.7 224,-509.7 224,-487.7 11,-487.7"/>
<polygon fill="none" stroke="#000000" points="11,-487.7 11,-509.7 224,-509.7 224,-487.7 11,-487.7"/>
<image xlink:href="../../images/foreignKeys.png" width="11px" height="12px" preserveAspectRatio="xMinYMin meet" x="16" y="-504.7"/>
<text text-anchor="start" x="31" y="-494.8" font-family="Helvetica,sans-Serif" font-size="11.00" fill="#000000">modified_user_id</text>
<polygon fill="#c0c0c0" stroke="transparent" points="11,-465.7 11,-487.7 224,-487.7 224,-465.7 11,-465.7"/>
<polygon fill="none" stroke="#000000" points="11,-465.7 11,-487.7 224,-487.7 224,-465.7 11,-465.7"/>
<image xlink:href="../../images/foreignKeys.png" width="11px" height="12px" preserveAspectRatio="xMinYMin meet" x="16" y="-482.7"/>
<text text-anchor="start" x="31" y="-472.8" font-family="Helvetica,sans-Serif" font-size="11.00" fill="#000000">created_by</text>
<polygon fill="#ffffff" stroke="transparent" points="11,-443.7 11,-465.7 224,-465.7 224,-443.7 11,-443.7"/>
<polygon fill="none" stroke="#000000" points="11,-443.7 11,-465.7 224,-465.7 224,-443.7 11,-443.7"/>
<text text-anchor="start" x="31" y="-450.8" font-family="Helvetica,sans-Serif" font-size="11.00" fill="#000000">deleted</text>
<polygon fill="#c0c0c0" stroke="transparent" points="11,-421.7 11,-443.7 224,-443.7 224,-421.7 11,-421.7"/>
<polygon fill="none" stroke="#000000" points="11,-421.7 11,-443.7 224,-443.7 224,-421.7 11,-421.7"/>
<image xlink:href="../../images/foreignKeys.png" width="11px" height="12px" preserveAspectRatio="xMinYMin meet" x="16" y="-438.7"/>
<text text-anchor="start" x="31" y="-428.8" font-family="Helvetica,sans-Serif" font-size="11.00" fill="#000000">assigned_user_id</text>
<polygon fill="#ffffff" stroke="transparent" points="11,-399.7 11,-421.7 224,-421.7 224,-399.7 11,-399.7"/>
<polygon fill="none" stroke="#000000" points="11,-399.7 11,-421.7 224,-421.7 224,-399.7 11,-399.7"/>
<text text-anchor="start" x="31" y="-406.8" font-family="Helvetica,sans-Serif" font-size="11.00" fill="#000000">first_name</text>
<polygon fill="#ffffff" stroke="transparent" points="11,-377.7 11,-399.7 224,-399.7 224,-377.7 11,-377.7"/>
<polygon fill="none" stroke="#000000" points="11,-377.7 11,-399.7 224,-399.7 224,-377.7 11,-377.7"/>
<text text-anchor="start" x="31" y="-384.8" font-family="Helvetica,sans-Serif" font-size="11.00" fill="#000000">last_name</text>
<polygon fill="#ffffff" stroke="transparent" points="11,-355.7 11,-377.7 224,-377.7 224,-355.7 11,-355.7"/>
<polygon fill="none" stroke="#000000" points="11,-355.7 11,-377.7 224,-377.7 224,-355.7 11,-355.7"/>
<image xlink:href="../../images/foreignKeys.png" width="11px" height="12px" preserveAspectRatio="xMinYMin meet" x="16" y="-372.7"/>
<text text-anchor="start" x="31" y="-362.8" font-family="Helvetica,sans-Serif" font-size="11.00" fill="#000000">reports_to_id</text>
<polygon fill="none" stroke="#000000" points="11,-333.7 11,-355.7 224,-355.7 224,-333.7 11,-333.7"/>
<image xlink:href="../../images/foreignKeys.png" width="11px" height="12px" preserveAspectRatio="xMinYMin meet" x="16" y="-350.7"/>
<text text-anchor="start" x="31" y="-340.8" font-family="Helvetica,sans-Serif" font-size="11.00" fill="#000000">campaign_id</text>
<polygon fill="none" stroke="#000000" points="11,-314.7 11,-333.7 224,-333.7 224,-314.7 11,-314.7"/>
<text text-anchor="start" x="14" y="-320.8" font-family="Helvetica,sans-Serif" font-size="11.00" fill="#000000">...</text>
<polygon fill="#ffffff" stroke="transparent" points="11,-295.7 11,-314.7 108,-314.7 108,-295.7 11,-295.7"/>
<polygon fill="none" stroke="#000000" points="11,-295.7 11,-314.7 108,-314.7 108,-295.7 11,-295.7"/>
<text text-anchor="start" x="14" y="-301.8" font-family="Helvetica,sans-Serif" font-size="11.00" fill="#000000">&lt; 7</text>
<polygon fill="#ffffff" stroke="transparent" points="108,-295.7 108,-314.7 158,-314.7 158,-295.7 108,-295.7"/>
<polygon fill="none" stroke="#000000" points="108,-295.7 108,-314.7 158,-314.7 158,-295.7 108,-295.7"/>
<text text-anchor="start" x="148.8862" y="-301.8" font-family="Helvetica,sans-Serif" font-size="11.00" fill="#000000"> &#160;</text>
<polygon fill="#ffffff" stroke="transparent" points="158,-295.7 158,-314.7 224,-314.7 224,-295.7 158,-295.7"/>
<polygon fill="none" stroke="#000000" points="158,-295.7 158,-314.7 224,-314.7 224,-295.7 158,-295.7"/>
<text text-anchor="start" x="199.2904" y="-301.8" font-family="Helvetica,sans-Serif" font-size="11.00" fill="#000000">30 &gt;</text>
</a>
</g>
</g>
<!-- accounts_contacts&#45;&gt;contacts -->
<g id="edge2" class="edge">
<title>accounts_contacts:w&#45;&gt;contacts:e</title>
<path fill="none" stroke="#000000" d="M263.3236,-394.8888C227.5096,-414.7537 280.2495,-520.7 224,-520.7"/>
<polygon fill="#000000" stroke="#000000" points="269.695,-393.4557 278.2901,-395.2122 273.5975,-392.5778 277.5,-391.7 277.5,-391.7 277.5,-391.7 273.5975,-392.5778 276.7099,-388.1878 269.695,-393.4557 269.695,-393.4557"/>
<ellipse fill="none" stroke="#000000" cx="266.573" cy="-394.1579" rx="3.2" ry="3.2"/>
</g>
</g>
</svg>
