<?xml version="1.0" encoding="UTF-8" standalone="no"?>
<!DOCTYPE svg PUBLIC "-//W3C//DTD SVG 1.1//EN"
 "http://www.w3.org/Graphics/SVG/1.1/DTD/svg11.dtd">
<!-- Generated by graphviz version 2.40.1 (20161225.0304)
 -->
<!-- Title: oneDegreeRelationshipsDiagram Pages: 1 -->
<svg width="465pt" height="473pt"
 viewBox="0.00 0.00 465.00 473.20" xmlns="http://www.w3.org/2000/svg" xmlns:xlink="http://www.w3.org/1999/xlink">
<g id="graph0" class="graph" transform="scale(1 1) rotate(0) translate(4 469.2)">
<title>oneDegreeRelationshipsDiagram</title>
<polygon fill="#ffffff" stroke="transparent" points="-4,4 -4,-469.2 461,-469.2 461,4 -4,4"/>
<text text-anchor="middle" x="72.4936" y="-7.3" font-family="Helvetica,sans-Serif" font-size="11.00" fill="#000000">Generated by SchemaSpy</text>
<!-- acl_roles_actions -->
<g id="node1" class="node">
<title>acl_roles_actions</title>
<g id="a_node1"><a xlink:href="../../tables/acl_roles_actions.html" xlink:title="acl_roles_actions" target="_top">
<polygon fill="#ffffff" stroke="transparent" points="288.5,-334.2 288.5,-461.2 422.5,-461.2 422.5,-334.2 288.5,-334.2"/>
<polygon fill="#f5f5f5" stroke="transparent" points="288.5,-437.7 288.5,-460.7 422.5,-460.7 422.5,-437.7 288.5,-437.7"/>
<polygon fill="none" stroke="#000000" points="288.5,-437.7 288.5,-460.7 422.5,-460.7 422.5,-437.7 288.5,-437.7"/>
<text text-anchor="start" x="293.5" y="-446.8" font-family="Helvetica,sans-Serif" font-weight="bold" font-size="11.00" fill="#000000">acl_roles_actions</text>
<text text-anchor="start" x="387.5437" y="-445.8" font-family="Helvetica,sans-Serif" font-size="11.00" fill="#000000">[table]</text>
<polygon fill="none" stroke="#000000" points="288.5,-415.7 288.5,-437.7 422.5,-437.7 422.5,-415.7 288.5,-415.7"/>
<image xlink:href="../../images/primaryKeys.png" width="11px" height="12px" preserveAspectRatio="xMinYMin meet" x="293.5" y="-432.7"/>
<text text-anchor="start" x="308.5" y="-422.8" font-family="Helvetica,sans-Serif" font-size="11.00" fill="#000000">id</text>
<polygon fill="#ffffff" stroke="transparent" points="288.5,-393.7 288.5,-415.7 422.5,-415.7 422.5,-393.7 288.5,-393.7"/>
<polygon fill="none" stroke="#000000" points="288.5,-393.7 288.5,-415.7 422.5,-415.7 422.5,-393.7 288.5,-393.7"/>
<image xlink:href="../../images/foreignKeys.png" width="11px" height="12px" preserveAspectRatio="xMinYMin meet" x="293.5" y="-410.7"/>
<text text-anchor="start" x="308.5" y="-400.8" font-family="Helvetica,sans-Serif" font-size="11.00" fill="#000000">role_id</text>
<polygon fill="#ffffff" stroke="transparent" points="288.5,-371.7 288.5,-393.7 422.5,-393.7 422.5,-371.7 288.5,-371.7"/>
<polygon fill="none" stroke="#000000" points="288.5,-371.7 288.5,-393.7 422.5,-393.7 422.5,-371.7 288.5,-371.7"/>
<image xlink:href="../../images/foreignKeys.png" width="11px" height="12px" preserveAspectRatio="xMinYMin meet" x="293.5" y="-388.7"/>
<text text-anchor="start" x="308.5" y="-378.8" font-family="Helvetica,sans-Serif" font-size="11.00" fill="#000000">action_id</text>
<polygon fill="none" stroke="#000000" points="288.5,-352.7 288.5,-371.7 422.5,-371.7 422.5,-352.7 288.5,-352.7"/>
<text text-anchor="start" x="291.5" y="-358.8" font-family="Helvetica,sans-Serif" font-size="11.00" fill="#000000">...</text>
<polygon fill="#ffffff" stroke="transparent" points="288.5,-333.7 288.5,-352.7 353.5,-352.7 353.5,-333.7 288.5,-333.7"/>
<polygon fill="none" stroke="#000000" points="288.5,-333.7 288.5,-352.7 353.5,-352.7 353.5,-333.7 288.5,-333.7"/>
<text text-anchor="start" x="291.5" y="-339.8" font-family="Helvetica,sans-Serif" font-size="11.00" fill="#000000">&lt; 2</text>
<polygon fill="#ffffff" stroke="transparent" points="353.5,-333.7 353.5,-352.7 387.5,-352.7 387.5,-333.7 353.5,-333.7"/>
<polygon fill="none" stroke="#000000" points="353.5,-333.7 353.5,-352.7 387.5,-352.7 387.5,-333.7 353.5,-333.7"/>
<text text-anchor="start" x="378.3862" y="-339.8" font-family="Helvetica,sans-Serif" font-size="11.00" fill="#000000"> &#160;</text>
<polygon fill="#ffffff" stroke="transparent" points="387.5,-333.7 387.5,-352.7 422.5,-352.7 422.5,-333.7 387.5,-333.7"/>
<polygon fill="none" stroke="#000000" points="387.5,-333.7 387.5,-352.7 422.5,-352.7 422.5,-333.7 387.5,-333.7"/>
<text text-anchor="start" x="413.3862" y="-339.8" font-family="Helvetica,sans-Serif" font-size="11.00" fill="#000000"> &#160;</text>
</a>
</g>
</g>
<!-- acl_roles -->
<g id="node2" class="node">
<title>acl_roles</title>
<g id="a_node2"><a xlink:href="../../tables/acl_roles.html" xlink:title="acl_roles" target="_top">
<polygon fill="#ffffff" stroke="transparent" points="8,-70.7 8,-292.7 213,-292.7 213,-70.7 8,-70.7"/>
<polygon fill="#f5f5f5" stroke="transparent" points="10.5,-267.7 10.5,-290.7 211.5,-290.7 211.5,-267.7 10.5,-267.7"/>
<polygon fill="none" stroke="#000000" points="10.5,-267.7 10.5,-290.7 211.5,-290.7 211.5,-267.7 10.5,-267.7"/>
<text text-anchor="start" x="15.5" y="-276.8" font-family="Helvetica,sans-Serif" font-weight="bold" font-size="11.00" fill="#000000">acl_roles</text>
<text text-anchor="start" x="176.5437" y="-275.8" font-family="Helvetica,sans-Serif" font-size="11.00" fill="#000000">[table]</text>
<polygon fill="none" stroke="#000000" points="10.5,-245.7 10.5,-267.7 144.5,-267.7 144.5,-245.7 10.5,-245.7"/>
<image xlink:href="../../images/primaryKeys.png" width="11px" height="12px" preserveAspectRatio="xMinYMin meet" x="15.5" y="-262.7"/>
<text text-anchor="start" x="30.5" y="-252.8" font-family="Helvetica,sans-Serif" font-size="11.00" fill="#000000">id</text>
<polygon fill="none" stroke="#000000" points="144.5,-245.7 144.5,-267.7 211.5,-267.7 211.5,-245.7 144.5,-245.7"/>
<text text-anchor="start" x="147.5" y="-253.4" font-family="Helvetica,sans-Serif" font-size="11.00" fill="#000000">char[36]</text>
<polygon fill="none" stroke="#000000" points="10.5,-223.7 10.5,-245.7 144.5,-245.7 144.5,-223.7 10.5,-223.7"/>
<text text-anchor="start" x="30.5" y="-230.8" font-family="Helvetica,sans-Serif" font-size="11.00" fill="#000000">date_entered</text>
<polygon fill="none" stroke="#000000" points="144.5,-223.7 144.5,-245.7 211.5,-245.7 211.5,-223.7 144.5,-223.7"/>
<text text-anchor="start" x="147.5" y="-231.4" font-family="Helvetica,sans-Serif" font-size="11.00" fill="#000000">datetime[26]</text>
<polygon fill="none" stroke="#000000" points="10.5,-201.7 10.5,-223.7 144.5,-223.7 144.5,-201.7 10.5,-201.7"/>
<text text-anchor="start" x="30.5" y="-208.8" font-family="Helvetica,sans-Serif" font-size="11.00" fill="#000000">date_modified</text>
<polygon fill="none" stroke="#000000" points="144.5,-201.7 144.5,-223.7 211.5,-223.7 211.5,-201.7 144.5,-201.7"/>
<text text-anchor="start" x="147.5" y="-209.4" font-family="Helvetica,sans-Serif" font-size="11.00" fill="#000000">datetime[26]</text>
<polygon fill="none" stroke="#000000" points="10.5,-179.7 10.5,-201.7 144.5,-201.7 144.5,-179.7 10.5,-179.7"/>
<text text-anchor="start" x="30.5" y="-186.8" font-family="Helvetica,sans-Serif" font-size="11.00" fill="#000000">modified_user_id</text>
<polygon fill="none" stroke="#000000" points="144.5,-179.7 144.5,-201.7 211.5,-201.7 211.5,-179.7 144.5,-179.7"/>
<text text-anchor="start" x="147.5" y="-187.4" font-family="Helvetica,sans-Serif" font-size="11.00" fill="#000000">char[36]</text>
<polygon fill="none" stroke="#000000" points="10.5,-157.7 10.5,-179.7 144.5,-179.7 144.5,-157.7 10.5,-157.7"/>
<text text-anchor="start" x="30.5" y="-164.8" font-family="Helvetica,sans-Serif" font-size="11.00" fill="#000000">created_by</text>
<polygon fill="none" stroke="#000000" points="144.5,-157.7 144.5,-179.7 211.5,-179.7 211.5,-157.7 144.5,-157.7"/>
<text text-anchor="start" x="147.5" y="-165.4" font-family="Helvetica,sans-Serif" font-size="11.00" fill="#000000">char[36]</text>
<polygon fill="none" stroke="#000000" points="10.5,-135.7 10.5,-157.7 144.5,-157.7 144.5,-135.7 10.5,-135.7"/>
<text text-anchor="start" x="30.5" y="-142.8" font-family="Helvetica,sans-Serif" font-size="11.00" fill="#000000">name</text>
<polygon fill="none" stroke="#000000" points="144.5,-135.7 144.5,-157.7 211.5,-157.7 211.5,-135.7 144.5,-135.7"/>
<text text-anchor="start" x="147.4365" y="-143.4" font-family="Helvetica,sans-Serif" font-size="11.00" fill="#000000">varchar[150]</text>
<polygon fill="none" stroke="#000000" points="10.5,-113.7 10.5,-135.7 144.5,-135.7 144.5,-113.7 10.5,-113.7"/>
<text text-anchor="start" x="30.5" y="-120.8" font-family="Helvetica,sans-Serif" font-size="11.00" fill="#000000">description</text>
<polygon fill="none" stroke="#000000" points="144.5,-113.7 144.5,-135.7 211.5,-135.7 211.5,-113.7 144.5,-113.7"/>
<text text-anchor="start" x="147.5" y="-121.4" font-family="Helvetica,sans-Serif" font-size="11.00" fill="#000000">text[65535]</text>
<polygon fill="#ffffff" stroke="transparent" points="10.5,-91.7 10.5,-113.7 144.5,-113.7 144.5,-91.7 10.5,-91.7"/>
<polygon fill="none" stroke="#000000" points="10.5,-91.7 10.5,-113.7 144.5,-113.7 144.5,-91.7 10.5,-91.7"/>
<text text-anchor="start" x="30.5" y="-98.8" font-family="Helvetica,sans-Serif" font-size="11.00" fill="#000000">deleted</text>
<polygon fill="none" stroke="#000000" points="144.5,-91.7 144.5,-113.7 211.5,-113.7 211.5,-91.7 144.5,-91.7"/>
<text text-anchor="start" x="147.5" y="-99.4" font-family="Helvetica,sans-Serif" font-size="11.00" fill="#000000">bit[1]</text>
<polygon fill="#ffffff" stroke="transparent" points="10.5,-72.7 10.5,-91.7 81.5,-91.7 81.5,-72.7 10.5,-72.7"/>
<polygon fill="none" stroke="#000000" points="10.5,-72.7 10.5,-91.7 81.5,-91.7 81.5,-72.7 10.5,-72.7"/>
<text text-anchor="start" x="13.5" y="-78.8" font-family="Helvetica,sans-Serif" font-size="11.00" fill="#000000">&lt; 0</text>
<polygon fill="#ffffff" stroke="transparent" points="81.5,-72.7 81.5,-91.7 144.5,-91.7 144.5,-72.7 81.5,-72.7"/>
<polygon fill="none" stroke="#000000" points="81.5,-72.7 81.5,-91.7 144.5,-91.7 144.5,-72.7 81.5,-72.7"/>
<text text-anchor="start" x="135.3862" y="-78.8" font-family="Helvetica,sans-Serif" font-size="11.00" fill="#000000"> &#160;</text>
<polygon fill="#ffffff" stroke="transparent" points="144.5,-72.7 144.5,-91.7 211.5,-91.7 211.5,-72.7 144.5,-72.7"/>
<polygon fill="none" stroke="#000000" points="144.5,-72.7 144.5,-91.7 211.5,-91.7 211.5,-72.7 144.5,-72.7"/>
<text text-anchor="start" x="192.9053" y="-78.8" font-family="Helvetica,sans-Serif" font-size="11.00" fill="#000000">3 &gt;</text>
<polygon fill="none" stroke="#000000" stroke-width="2" points="9,-71.7 9,-291.7 212,-291.7 212,-71.7 9,-71.7"/>
</a>
</g>
</g>
<!-- acl_roles_actions&#45;&gt;acl_roles -->
<g id="edge1" class="edge">
<title>acl_roles_actions:w&#45;&gt;acl_roles:e</title>
<path fill="none" stroke="#000000" d="M274.2751,-402.3753C224.1341,-383.5465 280.1445,-256.7 211.5,-256.7"/>
<polygon fill="#000000" stroke="#000000" points="280.6047,-403.4097 287.9193,-408.2529 284.5524,-404.0548 288.5,-404.7 288.5,-404.7 288.5,-404.7 284.5524,-404.0548 289.0807,-401.1471 280.6047,-403.4097 280.6047,-403.4097"/>
<ellipse fill="none" stroke="#000000" cx="277.4466" cy="-402.8935" rx="3.2" ry="3.2"/>
</g>
<!-- acl_roles_users -->
<g id="node3" class="node">
<title>acl_roles_users</title>
<g id="a_node3"><a xlink:href="../../tables/acl_roles_users.html" xlink:title="acl_roles_users" target="_top">
<polygon fill="#ffffff" stroke="transparent" points="294.5,-186.2 294.5,-313.2 416.5,-313.2 416.5,-186.2 294.5,-186.2"/>
<polygon fill="#f5f5f5" stroke="transparent" points="294.5,-289.7 294.5,-312.7 416.5,-312.7 416.5,-289.7 294.5,-289.7"/>
<polygon fill="none" stroke="#000000" points="294.5,-289.7 294.5,-312.7 416.5,-312.7 416.5,-289.7 294.5,-289.7"/>
<text text-anchor="start" x="299.5" y="-298.8" font-family="Helvetica,sans-Serif" font-weight="bold" font-size="11.00" fill="#000000">acl_roles_users</text>
<text text-anchor="start" x="381.5437" y="-297.8" font-family="Helvetica,sans-Serif" font-size="11.00" fill="#000000">[table]</text>
<polygon fill="none" stroke="#000000" points="294.5,-267.7 294.5,-289.7 416.5,-289.7 416.5,-267.7 294.5,-267.7"/>
<image xlink:href="../../images/primaryKeys.png" width="11px" height="12px" preserveAspectRatio="xMinYMin meet" x="299.5" y="-284.7"/>
<text text-anchor="start" x="314.5" y="-274.8" font-family="Helvetica,sans-Serif" font-size="11.00" fill="#000000">id</text>
<polygon fill="#ffffff" stroke="transparent" points="294.5,-245.7 294.5,-267.7 416.5,-267.7 416.5,-245.7 294.5,-245.7"/>
<polygon fill="none" stroke="#000000" points="294.5,-245.7 294.5,-267.7 416.5,-267.7 416.5,-245.7 294.5,-245.7"/>
<image xlink:href="../../images/foreignKeys.png" width="11px" height="12px" preserveAspectRatio="xMinYMin meet" x="299.5" y="-262.7"/>
<text text-anchor="start" x="314.5" y="-252.8" font-family="Helvetica,sans-Serif" font-size="11.00" fill="#000000">role_id</text>
<polygon fill="#ffffff" stroke="transparent" points="294.5,-223.7 294.5,-245.7 416.5,-245.7 416.5,-223.7 294.5,-223.7"/>
<polygon fill="none" stroke="#000000" points="294.5,-223.7 294.5,-245.7 416.5,-245.7 416.5,-223.7 294.5,-223.7"/>
<image xlink:href="../../images/foreignKeys.png" width="11px" height="12px" preserveAspectRatio="xMinYMin meet" x="299.5" y="-240.7"/>
<text text-anchor="start" x="314.5" y="-230.8" font-family="Helvetica,sans-Serif" font-size="11.00" fill="#000000">user_id</text>
<polygon fill="none" stroke="#000000" points="294.5,-204.7 294.5,-223.7 416.5,-223.7 416.5,-204.7 294.5,-204.7"/>
<text text-anchor="start" x="297.5" y="-210.8" font-family="Helvetica,sans-Serif" font-size="11.00" fill="#000000">...</text>
<polygon fill="#ffffff" stroke="transparent" points="294.5,-185.7 294.5,-204.7 353.5,-204.7 353.5,-185.7 294.5,-185.7"/>
<polygon fill="none" stroke="#000000" points="294.5,-185.7 294.5,-204.7 353.5,-204.7 353.5,-185.7 294.5,-185.7"/>
<text text-anchor="start" x="297.5" y="-191.8" font-family="Helvetica,sans-Serif" font-size="11.00" fill="#000000">&lt; 2</text>
<polygon fill="#ffffff" stroke="transparent" points="353.5,-185.7 353.5,-204.7 384.5,-204.7 384.5,-185.7 353.5,-185.7"/>
<polygon fill="none" stroke="#000000" points="353.5,-185.7 353.5,-204.7 384.5,-204.7 384.5,-185.7 353.5,-185.7"/>
<text text-anchor="start" x="375.3862" y="-191.8" font-family="Helvetica,sans-Serif" font-size="11.00" fill="#000000"> &#160;</text>
<polygon fill="#ffffff" stroke="transparent" points="384.5,-185.7 384.5,-204.7 416.5,-204.7 416.5,-185.7 384.5,-185.7"/>
<polygon fill="none" stroke="#000000" points="384.5,-185.7 384.5,-204.7 416.5,-204.7 416.5,-185.7 384.5,-185.7"/>
<text text-anchor="start" x="407.3862" y="-191.8" font-family="Helvetica,sans-Serif" font-size="11.00" fill="#000000"> &#160;</text>
</a>
</g>
</g>
<!-- acl_roles_users&#45;&gt;acl_roles -->
<g id="edge2" class="edge">
<title>acl_roles_users:w&#45;&gt;acl_roles:e</title>
<path fill="none" stroke="#000000" d="M280.072,-256.7C254.3674,-256.7 243.0573,-256.7 211.5,-256.7"/>
<polygon fill="#000000" stroke="#000000" points="286.5,-256.7001 294.5,-260.3 290.5,-256.7 294.5,-256.7 294.5,-256.7 294.5,-256.7 290.5,-256.7 294.5,-253.1 286.5,-256.7001 286.5,-256.7001"/>
<ellipse fill="none" stroke="#000000" cx="283.3" cy="-256.7001" rx="3.2" ry="3.2"/>
</g>
<!-- securitygroups_acl_roles -->
<g id="node4" class="node">
<title>securitygroups_acl_roles</title>
<g id="a_node4"><a xlink:href="../../tables/securitygroups_acl_roles.html" xlink:title="securitygroups_acl_roles" target="_top">
<polygon fill="#ffffff" stroke="transparent" points="262,-38.2 262,-165.2 449,-165.2 449,-38.2 262,-38.2"/>
<polygon fill="#f5f5f5" stroke="transparent" points="262.5,-141.7 262.5,-164.7 449.5,-164.7 449.5,-141.7 262.5,-141.7"/>
<polygon fill="none" stroke="#000000" points="262.5,-141.7 262.5,-164.7 449.5,-164.7 449.5,-141.7 262.5,-141.7"/>
<text text-anchor="start" x="267.5" y="-150.8" font-family="Helvetica,sans-Serif" font-weight="bold" font-size="11.00" fill="#000000">securitygroups_acl_roles</text>
<text text-anchor="start" x="414.5437" y="-149.8" font-family="Helvetica,sans-Serif" font-size="11.00" fill="#000000">[table]</text>
<polygon fill="none" stroke="#000000" points="262.5,-119.7 262.5,-141.7 449.5,-141.7 449.5,-119.7 262.5,-119.7"/>
<image xlink:href="../../images/primaryKeys.png" width="11px" height="12px" preserveAspectRatio="xMinYMin meet" x="267.5" y="-136.7"/>
<text text-anchor="start" x="282.5" y="-126.8" font-family="Helvetica,sans-Serif" font-size="11.00" fill="#000000">id</text>
<polygon fill="none" stroke="#000000" points="262.5,-97.7 262.5,-119.7 449.5,-119.7 449.5,-97.7 262.5,-97.7"/>
<image xlink:href="../../images/foreignKeys.png" width="11px" height="12px" preserveAspectRatio="xMinYMin meet" x="267.5" y="-114.7"/>
<text text-anchor="start" x="282.5" y="-104.8" font-family="Helvetica,sans-Serif" font-size="11.00" fill="#000000">securitygroup_id</text>
<polygon fill="none" stroke="#000000" points="262.5,-75.7 262.5,-97.7 449.5,-97.7 449.5,-75.7 262.5,-75.7"/>
<image xlink:href="../../images/foreignKeys.png" width="11px" height="12px" preserveAspectRatio="xMinYMin meet" x="267.5" y="-92.7"/>
<text text-anchor="start" x="282.5" y="-82.8" font-family="Helvetica,sans-Serif" font-size="11.00" fill="#000000">role_id</text>
<polygon fill="none" stroke="#000000" points="262.5,-56.7 262.5,-75.7 449.5,-75.7 449.5,-56.7 262.5,-56.7"/>
<text text-anchor="start" x="265.5" y="-62.8" font-family="Helvetica,sans-Serif" font-size="11.00" fill="#000000">...</text>
<polygon fill="#ffffff" stroke="transparent" points="262.5,-37.7 262.5,-56.7 354.5,-56.7 354.5,-37.7 262.5,-37.7"/>
<polygon fill="none" stroke="#000000" points="262.5,-37.7 262.5,-56.7 354.5,-56.7 354.5,-37.7 262.5,-37.7"/>
<text text-anchor="start" x="265.5" y="-43.8" font-family="Helvetica,sans-Serif" font-size="11.00" fill="#000000">&lt; 2</text>
<polygon fill="#ffffff" stroke="transparent" points="354.5,-37.7 354.5,-56.7 401.5,-56.7 401.5,-37.7 354.5,-37.7"/>
<polygon fill="none" stroke="#000000" points="354.5,-37.7 354.5,-56.7 401.5,-56.7 401.5,-37.7 354.5,-37.7"/>
<text text-anchor="start" x="392.3862" y="-43.8" font-family="Helvetica,sans-Serif" font-size="11.00" fill="#000000"> &#160;</text>
<polygon fill="#ffffff" stroke="transparent" points="401.5,-37.7 401.5,-56.7 449.5,-56.7 449.5,-37.7 401.5,-37.7"/>
<polygon fill="none" stroke="#000000" points="401.5,-37.7 401.5,-56.7 449.5,-56.7 449.5,-37.7 401.5,-37.7"/>
<text text-anchor="start" x="440.3862" y="-43.8" font-family="Helvetica,sans-Serif" font-size="11.00" fill="#000000"> &#160;</text>
</a>
</g>
</g>
<!-- securitygroups_acl_roles&#45;&gt;acl_roles -->
<g id="edge3" class="edge">
<title>securitygroups_acl_roles:w&#45;&gt;acl_roles:e</title>
<path fill="none" stroke="#000000" d="M248.167,-89.2351C198.079,-110.3825 284.6818,-256.7 211.5,-256.7"/>
<polygon fill="#000000" stroke="#000000" points="254.6223,-88.0934 263.127,-90.245 258.5611,-87.3967 262.5,-86.7 262.5,-86.7 262.5,-86.7 258.5611,-87.3967 261.873,-83.155 254.6223,-88.0934 254.6223,-88.0934"/>
<ellipse fill="none" stroke="#000000" cx="251.4712" cy="-88.6507" rx="3.2" ry="3.2"/>
</g>
</g>
</svg>
