<?xml version="1.0" encoding="UTF-8" standalone="no"?>
<!DOCTYPE svg PUBLIC "-//W3C//DTD SVG 1.1//EN"
 "http://www.w3.org/Graphics/SVG/1.1/DTD/svg11.dtd">
<!-- Generated by graphviz version 2.40.1 (20161225.0304)
 -->
<!-- Title: oneDegreeRelationshipsDiagram Pages: 1 -->
<svg width="412pt" height="359pt"
 viewBox="0.00 0.00 412.00 358.70" xmlns="http://www.w3.org/2000/svg" xmlns:xlink="http://www.w3.org/1999/xlink">
<g id="graph0" class="graph" transform="scale(1 1) rotate(0) translate(4 354.7)">
<title>oneDegreeRelationshipsDiagram</title>
<polygon fill="#ffffff" stroke="transparent" points="-4,4 -4,-354.7 408,-354.7 408,4 -4,4"/>
<text text-anchor="middle" x="72.4936" y="-7.3" font-family="Helvetica,sans-Serif" font-size="11.00" fill="#000000">Generated by SchemaSpy</text>
<!-- acl_roles_actions -->
<g id="node1" class="node">
<title>acl_roles_actions</title>
<g id="a_node1"><a xlink:href="../../tables/acl_roles_actions.html" xlink:title="acl_roles_actions" target="_top">
<polygon fill="#ffffff" stroke="transparent" points="262,-219.7 262,-346.7 396,-346.7 396,-219.7 262,-219.7"/>
<polygon fill="#f5f5f5" stroke="transparent" points="262,-323.2 262,-346.2 396,-346.2 396,-323.2 262,-323.2"/>
<polygon fill="none" stroke="#000000" points="262,-323.2 262,-346.2 396,-346.2 396,-323.2 262,-323.2"/>
<text text-anchor="start" x="267" y="-332.3" font-family="Helvetica,sans-Serif" font-weight="bold" font-size="11.00" fill="#000000">acl_roles_actions</text>
<text text-anchor="start" x="361.0437" y="-331.3" font-family="Helvetica,sans-Serif" font-size="11.00" fill="#000000">[table]</text>
<polygon fill="none" stroke="#000000" points="262,-301.2 262,-323.2 396,-323.2 396,-301.2 262,-301.2"/>
<image xlink:href="../../images/primaryKeys.png" width="11px" height="12px" preserveAspectRatio="xMinYMin meet" x="267" y="-318.2"/>
<text text-anchor="start" x="282" y="-308.3" font-family="Helvetica,sans-Serif" font-size="11.00" fill="#000000">id</text>
<polygon fill="#ffffff" stroke="transparent" points="262,-279.2 262,-301.2 396,-301.2 396,-279.2 262,-279.2"/>
<polygon fill="none" stroke="#000000" points="262,-279.2 262,-301.2 396,-301.2 396,-279.2 262,-279.2"/>
<image xlink:href="../../images/foreignKeys.png" width="11px" height="12px" preserveAspectRatio="xMinYMin meet" x="267" y="-296.2"/>
<text text-anchor="start" x="282" y="-286.3" font-family="Helvetica,sans-Serif" font-size="11.00" fill="#000000">role_id</text>
<polygon fill="#ffffff" stroke="transparent" points="262,-257.2 262,-279.2 396,-279.2 396,-257.2 262,-257.2"/>
<polygon fill="none" stroke="#000000" points="262,-257.2 262,-279.2 396,-279.2 396,-257.2 262,-257.2"/>
<image xlink:href="../../images/foreignKeys.png" width="11px" height="12px" preserveAspectRatio="xMinYMin meet" x="267" y="-274.2"/>
<text text-anchor="start" x="282" y="-264.3" font-family="Helvetica,sans-Serif" font-size="11.00" fill="#000000">action_id</text>
<polygon fill="none" stroke="#000000" points="262,-238.2 262,-257.2 396,-257.2 396,-238.2 262,-238.2"/>
<text text-anchor="start" x="265" y="-244.3" font-family="Helvetica,sans-Serif" font-size="11.00" fill="#000000">...</text>
<polygon fill="#ffffff" stroke="transparent" points="262,-219.2 262,-238.2 327,-238.2 327,-219.2 262,-219.2"/>
<polygon fill="none" stroke="#000000" points="262,-219.2 262,-238.2 327,-238.2 327,-219.2 262,-219.2"/>
<text text-anchor="start" x="265" y="-225.3" font-family="Helvetica,sans-Serif" font-size="11.00" fill="#000000">&lt; 2</text>
<polygon fill="#ffffff" stroke="transparent" points="327,-219.2 327,-238.2 361,-238.2 361,-219.2 327,-219.2"/>
<polygon fill="none" stroke="#000000" points="327,-219.2 327,-238.2 361,-238.2 361,-219.2 327,-219.2"/>
<text text-anchor="start" x="351.8862" y="-225.3" font-family="Helvetica,sans-Serif" font-size="11.00" fill="#000000"> &#160;</text>
<polygon fill="#ffffff" stroke="transparent" points="361,-219.2 361,-238.2 396,-238.2 396,-219.2 361,-219.2"/>
<polygon fill="none" stroke="#000000" points="361,-219.2 361,-238.2 396,-238.2 396,-219.2 361,-219.2"/>
<text text-anchor="start" x="386.8862" y="-225.3" font-family="Helvetica,sans-Serif" font-size="11.00" fill="#000000"> &#160;</text>
</a>
</g>
</g>
<!-- acl_actions -->
<g id="node2" class="node">
<title>acl_actions</title>
<g id="a_node2"><a xlink:href="../../tables/acl_actions.html" xlink:title="acl_actions" target="_top">
<polygon fill="#ffffff" stroke="transparent" points="8,-38.2 8,-304.2 213,-304.2 213,-38.2 8,-38.2"/>
<polygon fill="#f5f5f5" stroke="transparent" points="10.5,-279.2 10.5,-302.2 211.5,-302.2 211.5,-279.2 10.5,-279.2"/>
<polygon fill="none" stroke="#000000" points="10.5,-279.2 10.5,-302.2 211.5,-302.2 211.5,-279.2 10.5,-279.2"/>
<text text-anchor="start" x="15.5" y="-288.3" font-family="Helvetica,sans-Serif" font-weight="bold" font-size="11.00" fill="#000000">acl_actions</text>
<text text-anchor="start" x="176.5437" y="-287.3" font-family="Helvetica,sans-Serif" font-size="11.00" fill="#000000">[table]</text>
<polygon fill="none" stroke="#000000" points="10.5,-257.2 10.5,-279.2 144.5,-279.2 144.5,-257.2 10.5,-257.2"/>
<image xlink:href="../../images/primaryKeys.png" width="11px" height="12px" preserveAspectRatio="xMinYMin meet" x="15.5" y="-274.2"/>
<text text-anchor="start" x="30.5" y="-264.3" font-family="Helvetica,sans-Serif" font-size="11.00" fill="#000000">id</text>
<polygon fill="none" stroke="#000000" points="144.5,-257.2 144.5,-279.2 211.5,-279.2 211.5,-257.2 144.5,-257.2"/>
<text text-anchor="start" x="147.5" y="-264.9" font-family="Helvetica,sans-Serif" font-size="11.00" fill="#000000">char[36]</text>
<polygon fill="none" stroke="#000000" points="10.5,-235.2 10.5,-257.2 144.5,-257.2 144.5,-235.2 10.5,-235.2"/>
<text text-anchor="start" x="30.5" y="-242.3" font-family="Helvetica,sans-Serif" font-size="11.00" fill="#000000">date_entered</text>
<polygon fill="none" stroke="#000000" points="144.5,-235.2 144.5,-257.2 211.5,-257.2 211.5,-235.2 144.5,-235.2"/>
<text text-anchor="start" x="147.5" y="-242.9" font-family="Helvetica,sans-Serif" font-size="11.00" fill="#000000">datetime[26]</text>
<polygon fill="none" stroke="#000000" points="10.5,-213.2 10.5,-235.2 144.5,-235.2 144.5,-213.2 10.5,-213.2"/>
<text text-anchor="start" x="30.5" y="-220.3" font-family="Helvetica,sans-Serif" font-size="11.00" fill="#000000">date_modified</text>
<polygon fill="none" stroke="#000000" points="144.5,-213.2 144.5,-235.2 211.5,-235.2 211.5,-213.2 144.5,-213.2"/>
<text text-anchor="start" x="147.5" y="-220.9" font-family="Helvetica,sans-Serif" font-size="11.00" fill="#000000">datetime[26]</text>
<polygon fill="none" stroke="#000000" points="10.5,-191.2 10.5,-213.2 144.5,-213.2 144.5,-191.2 10.5,-191.2"/>
<text text-anchor="start" x="30.5" y="-198.3" font-family="Helvetica,sans-Serif" font-size="11.00" fill="#000000">modified_user_id</text>
<polygon fill="none" stroke="#000000" points="144.5,-191.2 144.5,-213.2 211.5,-213.2 211.5,-191.2 144.5,-191.2"/>
<text text-anchor="start" x="147.5" y="-198.9" font-family="Helvetica,sans-Serif" font-size="11.00" fill="#000000">char[36]</text>
<polygon fill="none" stroke="#000000" points="10.5,-169.2 10.5,-191.2 144.5,-191.2 144.5,-169.2 10.5,-169.2"/>
<text text-anchor="start" x="30.5" y="-176.3" font-family="Helvetica,sans-Serif" font-size="11.00" fill="#000000">created_by</text>
<polygon fill="none" stroke="#000000" points="144.5,-169.2 144.5,-191.2 211.5,-191.2 211.5,-169.2 144.5,-169.2"/>
<text text-anchor="start" x="147.5" y="-176.9" font-family="Helvetica,sans-Serif" font-size="11.00" fill="#000000">char[36]</text>
<polygon fill="#ffffff" stroke="transparent" points="10.5,-147.2 10.5,-169.2 144.5,-169.2 144.5,-147.2 10.5,-147.2"/>
<polygon fill="none" stroke="#000000" points="10.5,-147.2 10.5,-169.2 144.5,-169.2 144.5,-147.2 10.5,-147.2"/>
<text text-anchor="start" x="30.5" y="-154.3" font-family="Helvetica,sans-Serif" font-size="11.00" fill="#000000">name</text>
<polygon fill="none" stroke="#000000" points="144.5,-147.2 144.5,-169.2 211.5,-169.2 211.5,-147.2 144.5,-147.2"/>
<text text-anchor="start" x="147.4365" y="-154.9" font-family="Helvetica,sans-Serif" font-size="11.00" fill="#000000">varchar[150]</text>
<polygon fill="#ffffff" stroke="transparent" points="10.5,-125.2 10.5,-147.2 144.5,-147.2 144.5,-125.2 10.5,-125.2"/>
<polygon fill="none" stroke="#000000" points="10.5,-125.2 10.5,-147.2 144.5,-147.2 144.5,-125.2 10.5,-125.2"/>
<text text-anchor="start" x="30.5" y="-132.3" font-family="Helvetica,sans-Serif" font-size="11.00" fill="#000000">category</text>
<polygon fill="none" stroke="#000000" points="144.5,-125.2 144.5,-147.2 211.5,-147.2 211.5,-125.2 144.5,-125.2"/>
<text text-anchor="start" x="147.4365" y="-132.9" font-family="Helvetica,sans-Serif" font-size="11.00" fill="#000000">varchar[100]</text>
<polygon fill="none" stroke="#000000" points="10.5,-103.2 10.5,-125.2 144.5,-125.2 144.5,-103.2 10.5,-103.2"/>
<text text-anchor="start" x="30.5" y="-110.3" font-family="Helvetica,sans-Serif" font-size="11.00" fill="#000000">acltype</text>
<polygon fill="none" stroke="#000000" points="144.5,-103.2 144.5,-125.2 211.5,-125.2 211.5,-103.2 144.5,-103.2"/>
<text text-anchor="start" x="147.4365" y="-110.9" font-family="Helvetica,sans-Serif" font-size="11.00" fill="#000000">varchar[100]</text>
<polygon fill="none" stroke="#000000" points="10.5,-81.2 10.5,-103.2 144.5,-103.2 144.5,-81.2 10.5,-81.2"/>
<text text-anchor="start" x="30.5" y="-88.3" font-family="Helvetica,sans-Serif" font-size="11.00" fill="#000000">aclaccess</text>
<polygon fill="none" stroke="#000000" points="144.5,-81.2 144.5,-103.2 211.5,-103.2 211.5,-81.2 144.5,-81.2"/>
<text text-anchor="start" x="147.5" y="-88.9" font-family="Helvetica,sans-Serif" font-size="11.00" fill="#000000">int[10]</text>
<polygon fill="#ffffff" stroke="transparent" points="10.5,-59.2 10.5,-81.2 144.5,-81.2 144.5,-59.2 10.5,-59.2"/>
<polygon fill="none" stroke="#000000" points="10.5,-59.2 10.5,-81.2 144.5,-81.2 144.5,-59.2 10.5,-59.2"/>
<text text-anchor="start" x="30.5" y="-66.3" font-family="Helvetica,sans-Serif" font-size="11.00" fill="#000000">deleted</text>
<polygon fill="none" stroke="#000000" points="144.5,-59.2 144.5,-81.2 211.5,-81.2 211.5,-59.2 144.5,-59.2"/>
<text text-anchor="start" x="147.5" y="-66.9" font-family="Helvetica,sans-Serif" font-size="11.00" fill="#000000">bit[1]</text>
<polygon fill="#ffffff" stroke="transparent" points="10.5,-40.2 10.5,-59.2 81.5,-59.2 81.5,-40.2 10.5,-40.2"/>
<polygon fill="none" stroke="#000000" points="10.5,-40.2 10.5,-59.2 81.5,-59.2 81.5,-40.2 10.5,-40.2"/>
<text text-anchor="start" x="13.5" y="-46.3" font-family="Helvetica,sans-Serif" font-size="11.00" fill="#000000">&lt; 0</text>
<polygon fill="#ffffff" stroke="transparent" points="81.5,-40.2 81.5,-59.2 144.5,-59.2 144.5,-40.2 81.5,-40.2"/>
<polygon fill="none" stroke="#000000" points="81.5,-40.2 81.5,-59.2 144.5,-59.2 144.5,-40.2 81.5,-40.2"/>
<text text-anchor="start" x="135.3862" y="-46.3" font-family="Helvetica,sans-Serif" font-size="11.00" fill="#000000"> &#160;</text>
<polygon fill="#ffffff" stroke="transparent" points="144.5,-40.2 144.5,-59.2 211.5,-59.2 211.5,-40.2 144.5,-40.2"/>
<polygon fill="none" stroke="#000000" points="144.5,-40.2 144.5,-59.2 211.5,-59.2 211.5,-40.2 144.5,-40.2"/>
<text text-anchor="start" x="192.9053" y="-46.3" font-family="Helvetica,sans-Serif" font-size="11.00" fill="#000000">1 &gt;</text>
<polygon fill="none" stroke="#000000" stroke-width="2" points="9,-39.2 9,-303.2 212,-303.2 212,-39.2 9,-39.2"/>
</a>
</g>
</g>
<!-- acl_roles_actions&#45;&gt;acl_actions -->
<g id="edge1" class="edge">
<title>acl_roles_actions:w&#45;&gt;acl_actions:e</title>
<path fill="none" stroke="#000000" d="M247.4203,-268.2C235.5435,-268.2 228.158,-268.2 211.5,-268.2"/>
<polygon fill="#000000" stroke="#000000" points="254,-268.2001 262,-271.8 258,-268.2 262,-268.2 262,-268.2 262,-268.2 258,-268.2 262,-264.6 254,-268.2001 254,-268.2001"/>
<ellipse fill="none" stroke="#000000" cx="250.8" cy="-268.2001" rx="3.2" ry="3.2"/>
</g>
</g>
</svg>
