<?xml version="1.0" encoding="UTF-8" standalone="no"?>
<!DOCTYPE svg PUBLIC "-//W3C//DTD SVG 1.1//EN"
 "http://www.w3.org/Graphics/SVG/1.1/DTD/svg11.dtd">
<!-- Generated by graphviz version 2.40.1 (20161225.0304)
 -->
<!-- Title: twoDegreesRelationshipsDiagram Pages: 1 -->
<svg width="583pt" height="532pt"
 viewBox="0.00 0.00 583.00 532.20" xmlns="http://www.w3.org/2000/svg" xmlns:xlink="http://www.w3.org/1999/xlink">
<g id="graph0" class="graph" transform="scale(1 1) rotate(0) translate(4 528.2)">
<title>twoDegreesRelationshipsDiagram</title>
<polygon fill="#ffffff" stroke="transparent" points="-4,4 -4,-528.2 579,-528.2 579,4 -4,4"/>
<text text-anchor="middle" x="72.4936" y="-7.3" font-family="Helvetica,sans-Serif" font-size="11.00" fill="#000000">Generated by SchemaSpy</text>
<!-- acl_roles_actions -->
<g id="node1" class="node">
<title>acl_roles_actions</title>
<g id="a_node1"><a xlink:href="../../tables/acl_roles_actions.html" xlink:title="acl_roles_actions" target="_top">
<polygon fill="#ffffff" stroke="transparent" points="406.5,-393.2 406.5,-520.2 540.5,-520.2 540.5,-393.2 406.5,-393.2"/>
<polygon fill="#f5f5f5" stroke="transparent" points="406.5,-496.7 406.5,-519.7 540.5,-519.7 540.5,-496.7 406.5,-496.7"/>
<polygon fill="none" stroke="#000000" points="406.5,-496.7 406.5,-519.7 540.5,-519.7 540.5,-496.7 406.5,-496.7"/>
<text text-anchor="start" x="411.5" y="-505.8" font-family="Helvetica,sans-Serif" font-weight="bold" font-size="11.00" fill="#000000">acl_roles_actions</text>
<text text-anchor="start" x="505.5437" y="-504.8" font-family="Helvetica,sans-Serif" font-size="11.00" fill="#000000">[table]</text>
<polygon fill="none" stroke="#000000" points="406.5,-474.7 406.5,-496.7 540.5,-496.7 540.5,-474.7 406.5,-474.7"/>
<image xlink:href="../../images/primaryKeys.png" width="11px" height="12px" preserveAspectRatio="xMinYMin meet" x="411.5" y="-491.7"/>
<text text-anchor="start" x="426.5" y="-481.8" font-family="Helvetica,sans-Serif" font-size="11.00" fill="#000000">id</text>
<polygon fill="#ffffff" stroke="transparent" points="406.5,-452.7 406.5,-474.7 540.5,-474.7 540.5,-452.7 406.5,-452.7"/>
<polygon fill="none" stroke="#000000" points="406.5,-452.7 406.5,-474.7 540.5,-474.7 540.5,-452.7 406.5,-452.7"/>
<image xlink:href="../../images/foreignKeys.png" width="11px" height="12px" preserveAspectRatio="xMinYMin meet" x="411.5" y="-469.7"/>
<text text-anchor="start" x="426.5" y="-459.8" font-family="Helvetica,sans-Serif" font-size="11.00" fill="#000000">role_id</text>
<polygon fill="#ffffff" stroke="transparent" points="406.5,-430.7 406.5,-452.7 540.5,-452.7 540.5,-430.7 406.5,-430.7"/>
<polygon fill="none" stroke="#000000" points="406.5,-430.7 406.5,-452.7 540.5,-452.7 540.5,-430.7 406.5,-430.7"/>
<image xlink:href="../../images/foreignKeys.png" width="11px" height="12px" preserveAspectRatio="xMinYMin meet" x="411.5" y="-447.7"/>
<text text-anchor="start" x="426.5" y="-437.8" font-family="Helvetica,sans-Serif" font-size="11.00" fill="#000000">action_id</text>
<polygon fill="none" stroke="#000000" points="406.5,-411.7 406.5,-430.7 540.5,-430.7 540.5,-411.7 406.5,-411.7"/>
<text text-anchor="start" x="409.5" y="-417.8" font-family="Helvetica,sans-Serif" font-size="11.00" fill="#000000">...</text>
<polygon fill="#ffffff" stroke="transparent" points="406.5,-392.7 406.5,-411.7 471.5,-411.7 471.5,-392.7 406.5,-392.7"/>
<polygon fill="none" stroke="#000000" points="406.5,-392.7 406.5,-411.7 471.5,-411.7 471.5,-392.7 406.5,-392.7"/>
<text text-anchor="start" x="409.5" y="-398.8" font-family="Helvetica,sans-Serif" font-size="11.00" fill="#000000">&lt; 2</text>
<polygon fill="#ffffff" stroke="transparent" points="471.5,-392.7 471.5,-411.7 505.5,-411.7 505.5,-392.7 471.5,-392.7"/>
<polygon fill="none" stroke="#000000" points="471.5,-392.7 471.5,-411.7 505.5,-411.7 505.5,-392.7 471.5,-392.7"/>
<text text-anchor="start" x="496.3862" y="-398.8" font-family="Helvetica,sans-Serif" font-size="11.00" fill="#000000"> &#160;</text>
<polygon fill="#ffffff" stroke="transparent" points="505.5,-392.7 505.5,-411.7 540.5,-411.7 540.5,-392.7 505.5,-392.7"/>
<polygon fill="none" stroke="#000000" points="505.5,-392.7 505.5,-411.7 540.5,-411.7 540.5,-392.7 505.5,-392.7"/>
<text text-anchor="start" x="531.3862" y="-398.8" font-family="Helvetica,sans-Serif" font-size="11.00" fill="#000000"> &#160;</text>
</a>
</g>
</g>
<!-- acl_actions -->
<g id="node2" class="node">
<title>acl_actions</title>
<g id="a_node2"><a xlink:href="../../tables/acl_actions.html" xlink:title="acl_actions" target="_top">
<polygon fill="#ffffff" stroke="transparent" points="179.5,-424.2 179.5,-485.2 277.5,-485.2 277.5,-424.2 179.5,-424.2"/>
<polygon fill="#f5f5f5" stroke="transparent" points="179.5,-461.7 179.5,-484.7 277.5,-484.7 277.5,-461.7 179.5,-461.7"/>
<polygon fill="none" stroke="#000000" points="179.5,-461.7 179.5,-484.7 277.5,-484.7 277.5,-461.7 179.5,-461.7"/>
<text text-anchor="start" x="184.4934" y="-470.8" font-family="Helvetica,sans-Serif" font-weight="bold" font-size="11.00" fill="#000000">acl_actions</text>
<text text-anchor="start" x="243.0219" y="-469.8" font-family="Helvetica,sans-Serif" font-size="11.00" fill="#000000">[table]</text>
<polygon fill="none" stroke="#000000" points="179.5,-442.7 179.5,-461.7 277.5,-461.7 277.5,-442.7 179.5,-442.7"/>
<text text-anchor="start" x="182.5" y="-448.8" font-family="Helvetica,sans-Serif" font-size="11.00" fill="#000000">...</text>
<polygon fill="#ffffff" stroke="transparent" points="179.5,-423.7 179.5,-442.7 217.5,-442.7 217.5,-423.7 179.5,-423.7"/>
<polygon fill="none" stroke="#000000" points="179.5,-423.7 179.5,-442.7 217.5,-442.7 217.5,-423.7 179.5,-423.7"/>
<text text-anchor="start" x="182.5" y="-429.8" font-family="Helvetica,sans-Serif" font-size="11.00" fill="#000000"> &#160;</text>
<polygon fill="#ffffff" stroke="transparent" points="217.5,-423.7 217.5,-442.7 242.5,-442.7 242.5,-423.7 217.5,-423.7"/>
<polygon fill="none" stroke="#000000" points="217.5,-423.7 217.5,-442.7 242.5,-442.7 242.5,-423.7 217.5,-423.7"/>
<text text-anchor="start" x="233.3862" y="-429.8" font-family="Helvetica,sans-Serif" font-size="11.00" fill="#000000"> &#160;</text>
<polygon fill="#ffffff" stroke="transparent" points="242.5,-423.7 242.5,-442.7 277.5,-442.7 277.5,-423.7 242.5,-423.7"/>
<polygon fill="none" stroke="#000000" points="242.5,-423.7 242.5,-442.7 277.5,-442.7 277.5,-423.7 242.5,-423.7"/>
<text text-anchor="start" x="258.9053" y="-429.8" font-family="Helvetica,sans-Serif" font-size="11.00" fill="#000000">1 &gt;</text>
</a>
</g>
</g>
<!-- acl_roles_actions&#45;&gt;acl_actions -->
<g id="edge1" class="edge">
<title>acl_roles_actions:w&#45;&gt;acl_actions:e</title>
<path fill="none" stroke="#000000" d="M391.9912,-441.9277C346.1297,-443.4162 329.8388,-451.7 277.5,-451.7"/>
<polygon fill="#000000" stroke="#000000" points="398.501,-441.8256 406.5565,-445.2996 402.5005,-441.7628 406.5,-441.7 406.5,-441.7 406.5,-441.7 402.5005,-441.7628 406.4435,-438.1004 398.501,-441.8256 398.501,-441.8256"/>
<ellipse fill="none" stroke="#000000" cx="395.3014" cy="-441.8758" rx="3.2" ry="3.2"/>
</g>
<!-- acl_roles -->
<g id="node3" class="node">
<title>acl_roles</title>
<g id="a_node3"><a xlink:href="../../tables/acl_roles.html" xlink:title="acl_roles" target="_top">
<polygon fill="#ffffff" stroke="transparent" points="126,-180.7 126,-402.7 331,-402.7 331,-180.7 126,-180.7"/>
<polygon fill="#f5f5f5" stroke="transparent" points="128.5,-377.7 128.5,-400.7 329.5,-400.7 329.5,-377.7 128.5,-377.7"/>
<polygon fill="none" stroke="#000000" points="128.5,-377.7 128.5,-400.7 329.5,-400.7 329.5,-377.7 128.5,-377.7"/>
<text text-anchor="start" x="133.5" y="-386.8" font-family="Helvetica,sans-Serif" font-weight="bold" font-size="11.00" fill="#000000">acl_roles</text>
<text text-anchor="start" x="294.5437" y="-385.8" font-family="Helvetica,sans-Serif" font-size="11.00" fill="#000000">[table]</text>
<polygon fill="none" stroke="#000000" points="128.5,-355.7 128.5,-377.7 262.5,-377.7 262.5,-355.7 128.5,-355.7"/>
<image xlink:href="../../images/primaryKeys.png" width="11px" height="12px" preserveAspectRatio="xMinYMin meet" x="133.5" y="-372.7"/>
<text text-anchor="start" x="148.5" y="-362.8" font-family="Helvetica,sans-Serif" font-size="11.00" fill="#000000">id</text>
<polygon fill="none" stroke="#000000" points="262.5,-355.7 262.5,-377.7 329.5,-377.7 329.5,-355.7 262.5,-355.7"/>
<text text-anchor="start" x="265.5" y="-363.4" font-family="Helvetica,sans-Serif" font-size="11.00" fill="#000000">char[36]</text>
<polygon fill="none" stroke="#000000" points="128.5,-333.7 128.5,-355.7 262.5,-355.7 262.5,-333.7 128.5,-333.7"/>
<text text-anchor="start" x="148.5" y="-340.8" font-family="Helvetica,sans-Serif" font-size="11.00" fill="#000000">date_entered</text>
<polygon fill="none" stroke="#000000" points="262.5,-333.7 262.5,-355.7 329.5,-355.7 329.5,-333.7 262.5,-333.7"/>
<text text-anchor="start" x="265.5" y="-341.4" font-family="Helvetica,sans-Serif" font-size="11.00" fill="#000000">datetime[26]</text>
<polygon fill="none" stroke="#000000" points="128.5,-311.7 128.5,-333.7 262.5,-333.7 262.5,-311.7 128.5,-311.7"/>
<text text-anchor="start" x="148.5" y="-318.8" font-family="Helvetica,sans-Serif" font-size="11.00" fill="#000000">date_modified</text>
<polygon fill="none" stroke="#000000" points="262.5,-311.7 262.5,-333.7 329.5,-333.7 329.5,-311.7 262.5,-311.7"/>
<text text-anchor="start" x="265.5" y="-319.4" font-family="Helvetica,sans-Serif" font-size="11.00" fill="#000000">datetime[26]</text>
<polygon fill="none" stroke="#000000" points="128.5,-289.7 128.5,-311.7 262.5,-311.7 262.5,-289.7 128.5,-289.7"/>
<text text-anchor="start" x="148.5" y="-296.8" font-family="Helvetica,sans-Serif" font-size="11.00" fill="#000000">modified_user_id</text>
<polygon fill="none" stroke="#000000" points="262.5,-289.7 262.5,-311.7 329.5,-311.7 329.5,-289.7 262.5,-289.7"/>
<text text-anchor="start" x="265.5" y="-297.4" font-family="Helvetica,sans-Serif" font-size="11.00" fill="#000000">char[36]</text>
<polygon fill="none" stroke="#000000" points="128.5,-267.7 128.5,-289.7 262.5,-289.7 262.5,-267.7 128.5,-267.7"/>
<text text-anchor="start" x="148.5" y="-274.8" font-family="Helvetica,sans-Serif" font-size="11.00" fill="#000000">created_by</text>
<polygon fill="none" stroke="#000000" points="262.5,-267.7 262.5,-289.7 329.5,-289.7 329.5,-267.7 262.5,-267.7"/>
<text text-anchor="start" x="265.5" y="-275.4" font-family="Helvetica,sans-Serif" font-size="11.00" fill="#000000">char[36]</text>
<polygon fill="none" stroke="#000000" points="128.5,-245.7 128.5,-267.7 262.5,-267.7 262.5,-245.7 128.5,-245.7"/>
<text text-anchor="start" x="148.5" y="-252.8" font-family="Helvetica,sans-Serif" font-size="11.00" fill="#000000">name</text>
<polygon fill="none" stroke="#000000" points="262.5,-245.7 262.5,-267.7 329.5,-267.7 329.5,-245.7 262.5,-245.7"/>
<text text-anchor="start" x="265.4365" y="-253.4" font-family="Helvetica,sans-Serif" font-size="11.00" fill="#000000">varchar[150]</text>
<polygon fill="none" stroke="#000000" points="128.5,-223.7 128.5,-245.7 262.5,-245.7 262.5,-223.7 128.5,-223.7"/>
<text text-anchor="start" x="148.5" y="-230.8" font-family="Helvetica,sans-Serif" font-size="11.00" fill="#000000">description</text>
<polygon fill="none" stroke="#000000" points="262.5,-223.7 262.5,-245.7 329.5,-245.7 329.5,-223.7 262.5,-223.7"/>
<text text-anchor="start" x="265.5" y="-231.4" font-family="Helvetica,sans-Serif" font-size="11.00" fill="#000000">text[65535]</text>
<polygon fill="#ffffff" stroke="transparent" points="128.5,-201.7 128.5,-223.7 262.5,-223.7 262.5,-201.7 128.5,-201.7"/>
<polygon fill="none" stroke="#000000" points="128.5,-201.7 128.5,-223.7 262.5,-223.7 262.5,-201.7 128.5,-201.7"/>
<text text-anchor="start" x="148.5" y="-208.8" font-family="Helvetica,sans-Serif" font-size="11.00" fill="#000000">deleted</text>
<polygon fill="none" stroke="#000000" points="262.5,-201.7 262.5,-223.7 329.5,-223.7 329.5,-201.7 262.5,-201.7"/>
<text text-anchor="start" x="265.5" y="-209.4" font-family="Helvetica,sans-Serif" font-size="11.00" fill="#000000">bit[1]</text>
<polygon fill="#ffffff" stroke="transparent" points="128.5,-182.7 128.5,-201.7 199.5,-201.7 199.5,-182.7 128.5,-182.7"/>
<polygon fill="none" stroke="#000000" points="128.5,-182.7 128.5,-201.7 199.5,-201.7 199.5,-182.7 128.5,-182.7"/>
<text text-anchor="start" x="131.5" y="-188.8" font-family="Helvetica,sans-Serif" font-size="11.00" fill="#000000">&lt; 0</text>
<polygon fill="#ffffff" stroke="transparent" points="199.5,-182.7 199.5,-201.7 262.5,-201.7 262.5,-182.7 199.5,-182.7"/>
<polygon fill="none" stroke="#000000" points="199.5,-182.7 199.5,-201.7 262.5,-201.7 262.5,-182.7 199.5,-182.7"/>
<text text-anchor="start" x="253.3862" y="-188.8" font-family="Helvetica,sans-Serif" font-size="11.00" fill="#000000"> &#160;</text>
<polygon fill="#ffffff" stroke="transparent" points="262.5,-182.7 262.5,-201.7 329.5,-201.7 329.5,-182.7 262.5,-182.7"/>
<polygon fill="none" stroke="#000000" points="262.5,-182.7 262.5,-201.7 329.5,-201.7 329.5,-182.7 262.5,-182.7"/>
<text text-anchor="start" x="310.9053" y="-188.8" font-family="Helvetica,sans-Serif" font-size="11.00" fill="#000000">3 &gt;</text>
<polygon fill="none" stroke="#000000" stroke-width="2" points="127,-181.7 127,-401.7 330,-401.7 330,-181.7 127,-181.7"/>
</a>
</g>
</g>
<!-- acl_roles_actions&#45;&gt;acl_roles -->
<g id="edge2" class="edge">
<title>acl_roles_actions:w&#45;&gt;acl_roles:e</title>
<path fill="none" stroke="#000000" d="M392.2716,-460.9016C357.2686,-444.9974 378.9527,-366.7 329.5,-366.7"/>
<polygon fill="#000000" stroke="#000000" points="398.6504,-462.1561 405.8052,-467.2323 402.5752,-462.9281 406.5,-463.7 406.5,-463.7 406.5,-463.7 402.5752,-462.9281 407.1948,-460.1677 398.6504,-462.1561 398.6504,-462.1561"/>
<ellipse fill="none" stroke="#000000" cx="395.5105" cy="-461.5386" rx="3.2" ry="3.2"/>
</g>
<!-- acl_roles_users -->
<g id="node4" class="node">
<title>acl_roles_users</title>
<g id="a_node4"><a xlink:href="../../tables/acl_roles_users.html" xlink:title="acl_roles_users" target="_top">
<polygon fill="#ffffff" stroke="transparent" points="412.5,-225.2 412.5,-352.2 534.5,-352.2 534.5,-225.2 412.5,-225.2"/>
<polygon fill="#f5f5f5" stroke="transparent" points="412.5,-328.7 412.5,-351.7 534.5,-351.7 534.5,-328.7 412.5,-328.7"/>
<polygon fill="none" stroke="#000000" points="412.5,-328.7 412.5,-351.7 534.5,-351.7 534.5,-328.7 412.5,-328.7"/>
<text text-anchor="start" x="417.5" y="-337.8" font-family="Helvetica,sans-Serif" font-weight="bold" font-size="11.00" fill="#000000">acl_roles_users</text>
<text text-anchor="start" x="499.5437" y="-336.8" font-family="Helvetica,sans-Serif" font-size="11.00" fill="#000000">[table]</text>
<polygon fill="none" stroke="#000000" points="412.5,-306.7 412.5,-328.7 534.5,-328.7 534.5,-306.7 412.5,-306.7"/>
<image xlink:href="../../images/primaryKeys.png" width="11px" height="12px" preserveAspectRatio="xMinYMin meet" x="417.5" y="-323.7"/>
<text text-anchor="start" x="432.5" y="-313.8" font-family="Helvetica,sans-Serif" font-size="11.00" fill="#000000">id</text>
<polygon fill="#ffffff" stroke="transparent" points="412.5,-284.7 412.5,-306.7 534.5,-306.7 534.5,-284.7 412.5,-284.7"/>
<polygon fill="none" stroke="#000000" points="412.5,-284.7 412.5,-306.7 534.5,-306.7 534.5,-284.7 412.5,-284.7"/>
<image xlink:href="../../images/foreignKeys.png" width="11px" height="12px" preserveAspectRatio="xMinYMin meet" x="417.5" y="-301.7"/>
<text text-anchor="start" x="432.5" y="-291.8" font-family="Helvetica,sans-Serif" font-size="11.00" fill="#000000">role_id</text>
<polygon fill="#ffffff" stroke="transparent" points="412.5,-262.7 412.5,-284.7 534.5,-284.7 534.5,-262.7 412.5,-262.7"/>
<polygon fill="none" stroke="#000000" points="412.5,-262.7 412.5,-284.7 534.5,-284.7 534.5,-262.7 412.5,-262.7"/>
<image xlink:href="../../images/foreignKeys.png" width="11px" height="12px" preserveAspectRatio="xMinYMin meet" x="417.5" y="-279.7"/>
<text text-anchor="start" x="432.5" y="-269.8" font-family="Helvetica,sans-Serif" font-size="11.00" fill="#000000">user_id</text>
<polygon fill="none" stroke="#000000" points="412.5,-243.7 412.5,-262.7 534.5,-262.7 534.5,-243.7 412.5,-243.7"/>
<text text-anchor="start" x="415.5" y="-249.8" font-family="Helvetica,sans-Serif" font-size="11.00" fill="#000000">...</text>
<polygon fill="#ffffff" stroke="transparent" points="412.5,-224.7 412.5,-243.7 471.5,-243.7 471.5,-224.7 412.5,-224.7"/>
<polygon fill="none" stroke="#000000" points="412.5,-224.7 412.5,-243.7 471.5,-243.7 471.5,-224.7 412.5,-224.7"/>
<text text-anchor="start" x="415.5" y="-230.8" font-family="Helvetica,sans-Serif" font-size="11.00" fill="#000000">&lt; 2</text>
<polygon fill="#ffffff" stroke="transparent" points="471.5,-224.7 471.5,-243.7 502.5,-243.7 502.5,-224.7 471.5,-224.7"/>
<polygon fill="none" stroke="#000000" points="471.5,-224.7 471.5,-243.7 502.5,-243.7 502.5,-224.7 471.5,-224.7"/>
<text text-anchor="start" x="493.3862" y="-230.8" font-family="Helvetica,sans-Serif" font-size="11.00" fill="#000000"> &#160;</text>
<polygon fill="#ffffff" stroke="transparent" points="502.5,-224.7 502.5,-243.7 534.5,-243.7 534.5,-224.7 502.5,-224.7"/>
<polygon fill="none" stroke="#000000" points="502.5,-224.7 502.5,-243.7 534.5,-243.7 534.5,-224.7 502.5,-224.7"/>
<text text-anchor="start" x="525.3862" y="-230.8" font-family="Helvetica,sans-Serif" font-size="11.00" fill="#000000"> &#160;</text>
</a>
</g>
</g>
<!-- acl_roles_users&#45;&gt;acl_roles -->
<g id="edge3" class="edge">
<title>acl_roles_users:w&#45;&gt;acl_roles:e</title>
<path fill="none" stroke="#000000" d="M398.2317,-298.2269C366.3439,-310.8748 372.5451,-366.7 329.5,-366.7"/>
<polygon fill="#000000" stroke="#000000" points="404.6226,-297.0951 413.1278,-299.2448 408.5613,-296.3976 412.5,-295.7 412.5,-295.7 412.5,-295.7 408.5613,-296.3976 411.8722,-292.1552 404.6226,-297.0951 404.6226,-297.0951"/>
<ellipse fill="none" stroke="#000000" cx="401.4716" cy="-297.6532" rx="3.2" ry="3.2"/>
</g>
<!-- users -->
<g id="node5" class="node">
<title>users</title>
<g id="a_node5"><a xlink:href="../../tables/users.html" xlink:title="users" target="_top">
<polygon fill="#ffffff" stroke="transparent" points="8,-71.2 8,-132.2 77,-132.2 77,-71.2 8,-71.2"/>
<polygon fill="#f5f5f5" stroke="transparent" points="8.5,-108.7 8.5,-131.7 77.5,-131.7 77.5,-108.7 8.5,-108.7"/>
<polygon fill="none" stroke="#000000" points="8.5,-108.7 8.5,-131.7 77.5,-131.7 77.5,-108.7 8.5,-108.7"/>
<text text-anchor="start" x="13.0542" y="-117.8" font-family="Helvetica,sans-Serif" font-weight="bold" font-size="11.00" fill="#000000">users</text>
<text text-anchor="start" x="43.0219" y="-116.8" font-family="Helvetica,sans-Serif" font-size="11.00" fill="#000000">[table]</text>
<polygon fill="none" stroke="#000000" points="8.5,-89.7 8.5,-108.7 77.5,-108.7 77.5,-89.7 8.5,-89.7"/>
<text text-anchor="start" x="11.5" y="-95.8" font-family="Helvetica,sans-Serif" font-size="11.00" fill="#000000">...</text>
<polygon fill="#ffffff" stroke="transparent" points="8.5,-70.7 8.5,-89.7 30.5,-89.7 30.5,-70.7 8.5,-70.7"/>
<polygon fill="none" stroke="#000000" points="8.5,-70.7 8.5,-89.7 30.5,-89.7 30.5,-70.7 8.5,-70.7"/>
<text text-anchor="start" x="11.5" y="-76.8" font-family="Helvetica,sans-Serif" font-size="11.00" fill="#000000">&lt; 2</text>
<polygon fill="#ffffff" stroke="transparent" points="30.5,-70.7 30.5,-89.7 43.5,-89.7 43.5,-70.7 30.5,-70.7"/>
<polygon fill="none" stroke="#000000" points="30.5,-70.7 30.5,-89.7 43.5,-89.7 43.5,-70.7 30.5,-70.7"/>
<text text-anchor="start" x="34.3862" y="-76.8" font-family="Helvetica,sans-Serif" font-size="11.00" fill="#000000"> &#160;</text>
<polygon fill="#ffffff" stroke="transparent" points="43.5,-70.7 43.5,-89.7 77.5,-89.7 77.5,-70.7 43.5,-70.7"/>
<polygon fill="none" stroke="#000000" points="43.5,-70.7 43.5,-89.7 77.5,-89.7 77.5,-70.7 43.5,-70.7"/>
<text text-anchor="start" x="46.6755" y="-76.8" font-family="Helvetica,sans-Serif" font-size="11.00" fill="#000000">214 &gt;</text>
</a>
</g>
</g>
<!-- acl_roles_users&#45;&gt;users -->
<g id="edge4" class="edge">
<title>acl_roles_users:w&#45;&gt;users:e</title>
<path fill="none" stroke="#000000" d="M397.8906,-271.5304C361.7443,-259.1042 382.3754,-196.6131 339,-170.7 254.005,-119.9228 205.9826,-188.104 118,-142.7 94.381,-130.5113 104.0786,-98.7 77.5,-98.7"/>
<polygon fill="#000000" stroke="#000000" points="404.5868,-272.5248 411.9711,-277.2609 408.5434,-273.1124 412.5,-273.7 412.5,-273.7 412.5,-273.7 408.5434,-273.1124 413.0289,-270.1391 404.5868,-272.5248 404.5868,-272.5248"/>
<ellipse fill="none" stroke="#000000" cx="401.4215" cy="-272.0547" rx="3.2" ry="3.2"/>
</g>
<!-- securitygroups -->
<g id="node6" class="node">
<title>securitygroups</title>
<g id="a_node6"><a xlink:href="../../tables/securitygroups.html" xlink:title="securitygroups" target="_top">
<polygon fill="#ffffff" stroke="transparent" points="171.5,-71.2 171.5,-132.2 285.5,-132.2 285.5,-71.2 171.5,-71.2"/>
<polygon fill="#f5f5f5" stroke="transparent" points="171.5,-108.7 171.5,-131.7 285.5,-131.7 285.5,-108.7 171.5,-108.7"/>
<polygon fill="none" stroke="#000000" points="171.5,-108.7 171.5,-131.7 285.5,-131.7 285.5,-108.7 171.5,-108.7"/>
<text text-anchor="start" x="176.2445" y="-117.8" font-family="Helvetica,sans-Serif" font-weight="bold" font-size="11.00" fill="#000000">securitygroups</text>
<text text-anchor="start" x="251.0219" y="-116.8" font-family="Helvetica,sans-Serif" font-size="11.00" fill="#000000">[table]</text>
<polygon fill="none" stroke="#000000" points="171.5,-89.7 171.5,-108.7 285.5,-108.7 285.5,-89.7 171.5,-89.7"/>
<text text-anchor="start" x="174.5" y="-95.8" font-family="Helvetica,sans-Serif" font-size="11.00" fill="#000000">...</text>
<polygon fill="#ffffff" stroke="transparent" points="171.5,-70.7 171.5,-89.7 222.5,-89.7 222.5,-70.7 171.5,-70.7"/>
<polygon fill="none" stroke="#000000" points="171.5,-70.7 171.5,-89.7 222.5,-89.7 222.5,-70.7 171.5,-70.7"/>
<text text-anchor="start" x="174.5" y="-76.8" font-family="Helvetica,sans-Serif" font-size="11.00" fill="#000000">&lt; 3</text>
<polygon fill="#ffffff" stroke="transparent" points="222.5,-70.7 222.5,-89.7 249.5,-89.7 249.5,-70.7 222.5,-70.7"/>
<polygon fill="none" stroke="#000000" points="222.5,-70.7 222.5,-89.7 249.5,-89.7 249.5,-70.7 222.5,-70.7"/>
<text text-anchor="start" x="240.3862" y="-76.8" font-family="Helvetica,sans-Serif" font-size="11.00" fill="#000000"> &#160;</text>
<polygon fill="#ffffff" stroke="transparent" points="249.5,-70.7 249.5,-89.7 285.5,-89.7 285.5,-70.7 249.5,-70.7"/>
<polygon fill="none" stroke="#000000" points="249.5,-70.7 249.5,-89.7 285.5,-89.7 285.5,-70.7 249.5,-70.7"/>
<text text-anchor="start" x="266.9053" y="-76.8" font-family="Helvetica,sans-Serif" font-size="11.00" fill="#000000">4 &gt;</text>
</a>
</g>
</g>
<!-- securitygroups&#45;&gt;users -->
<g id="edge5" class="edge">
<title>securitygroups:w&#45;&gt;users:e</title>
<path fill="none" stroke="#000000" d="M157.59,-94.5492C126.7332,-85.8906 114.2188,-87.2742 77.5,-98.7"/>
<polygon fill="#000000" stroke="#000000" points="163.834,-96.4124 170.4706,-102.1497 167.667,-97.5562 171.5,-98.7 171.5,-98.7 171.5,-98.7 167.667,-97.5562 172.5294,-95.2503 163.834,-96.4124 163.834,-96.4124"/>
<ellipse fill="none" stroke="#000000" cx="160.7676" cy="-95.4974" rx="3.2" ry="3.2"/>
</g>
<!-- securitygroups&#45;&gt;users -->
<g id="edge6" class="edge">
<title>securitygroups:w&#45;&gt;users:e</title>
<path fill="none" stroke="#000000" d="M156.7715,-98.7C126.5089,-98.7 113.8924,-98.7 77.5,-98.7"/>
<polygon fill="#000000" stroke="#000000" points="163.5,-98.7001 171.5,-102.3 167.5,-98.7 171.5,-98.7 171.5,-98.7 171.5,-98.7 167.5,-98.7 171.5,-95.1 163.5,-98.7001 163.5,-98.7001"/>
<ellipse fill="none" stroke="#000000" cx="160.3" cy="-98.7001" rx="3.2" ry="3.2"/>
</g>
<!-- securitygroups&#45;&gt;users -->
<g id="edge7" class="edge">
<title>securitygroups:w&#45;&gt;users:e</title>
<path fill="none" stroke="#000000" d="M157.59,-102.8508C126.7332,-111.5094 114.2188,-110.1258 77.5,-98.7"/>
<polygon fill="#000000" stroke="#000000" points="163.834,-100.9876 172.5294,-102.1497 167.667,-99.8438 171.5,-98.7 171.5,-98.7 171.5,-98.7 167.667,-99.8438 170.4706,-95.2503 163.834,-100.9876 163.834,-100.9876"/>
<ellipse fill="none" stroke="#000000" cx="160.7676" cy="-101.9026" rx="3.2" ry="3.2"/>
</g>
<!-- securitygroups_acl_roles -->
<g id="node7" class="node">
<title>securitygroups_acl_roles</title>
<g id="a_node7"><a xlink:href="../../tables/securitygroups_acl_roles.html" xlink:title="securitygroups_acl_roles" target="_top">
<polygon fill="#ffffff" stroke="transparent" points="380,-38.2 380,-165.2 567,-165.2 567,-38.2 380,-38.2"/>
<polygon fill="#f5f5f5" stroke="transparent" points="380.5,-141.7 380.5,-164.7 567.5,-164.7 567.5,-141.7 380.5,-141.7"/>
<polygon fill="none" stroke="#000000" points="380.5,-141.7 380.5,-164.7 567.5,-164.7 567.5,-141.7 380.5,-141.7"/>
<text text-anchor="start" x="385.5" y="-150.8" font-family="Helvetica,sans-Serif" font-weight="bold" font-size="11.00" fill="#000000">securitygroups_acl_roles</text>
<text text-anchor="start" x="532.5437" y="-149.8" font-family="Helvetica,sans-Serif" font-size="11.00" fill="#000000">[table]</text>
<polygon fill="none" stroke="#000000" points="380.5,-119.7 380.5,-141.7 567.5,-141.7 567.5,-119.7 380.5,-119.7"/>
<image xlink:href="../../images/primaryKeys.png" width="11px" height="12px" preserveAspectRatio="xMinYMin meet" x="385.5" y="-136.7"/>
<text text-anchor="start" x="400.5" y="-126.8" font-family="Helvetica,sans-Serif" font-size="11.00" fill="#000000">id</text>
<polygon fill="none" stroke="#000000" points="380.5,-97.7 380.5,-119.7 567.5,-119.7 567.5,-97.7 380.5,-97.7"/>
<image xlink:href="../../images/foreignKeys.png" width="11px" height="12px" preserveAspectRatio="xMinYMin meet" x="385.5" y="-114.7"/>
<text text-anchor="start" x="400.5" y="-104.8" font-family="Helvetica,sans-Serif" font-size="11.00" fill="#000000">securitygroup_id</text>
<polygon fill="none" stroke="#000000" points="380.5,-75.7 380.5,-97.7 567.5,-97.7 567.5,-75.7 380.5,-75.7"/>
<image xlink:href="../../images/foreignKeys.png" width="11px" height="12px" preserveAspectRatio="xMinYMin meet" x="385.5" y="-92.7"/>
<text text-anchor="start" x="400.5" y="-82.8" font-family="Helvetica,sans-Serif" font-size="11.00" fill="#000000">role_id</text>
<polygon fill="none" stroke="#000000" points="380.5,-56.7 380.5,-75.7 567.5,-75.7 567.5,-56.7 380.5,-56.7"/>
<text text-anchor="start" x="383.5" y="-62.8" font-family="Helvetica,sans-Serif" font-size="11.00" fill="#000000">...</text>
<polygon fill="#ffffff" stroke="transparent" points="380.5,-37.7 380.5,-56.7 472.5,-56.7 472.5,-37.7 380.5,-37.7"/>
<polygon fill="none" stroke="#000000" points="380.5,-37.7 380.5,-56.7 472.5,-56.7 472.5,-37.7 380.5,-37.7"/>
<text text-anchor="start" x="383.5" y="-43.8" font-family="Helvetica,sans-Serif" font-size="11.00" fill="#000000">&lt; 2</text>
<polygon fill="#ffffff" stroke="transparent" points="472.5,-37.7 472.5,-56.7 519.5,-56.7 519.5,-37.7 472.5,-37.7"/>
<polygon fill="none" stroke="#000000" points="472.5,-37.7 472.5,-56.7 519.5,-56.7 519.5,-37.7 472.5,-37.7"/>
<text text-anchor="start" x="510.3862" y="-43.8" font-family="Helvetica,sans-Serif" font-size="11.00" fill="#000000"> &#160;</text>
<polygon fill="#ffffff" stroke="transparent" points="519.5,-37.7 519.5,-56.7 567.5,-56.7 567.5,-37.7 519.5,-37.7"/>
<polygon fill="none" stroke="#000000" points="519.5,-37.7 519.5,-56.7 567.5,-56.7 567.5,-37.7 519.5,-37.7"/>
<text text-anchor="start" x="558.3862" y="-43.8" font-family="Helvetica,sans-Serif" font-size="11.00" fill="#000000"> &#160;</text>
</a>
</g>
</g>
<!-- securitygroups_acl_roles&#45;&gt;acl_roles -->
<g id="edge8" class="edge">
<title>securitygroups_acl_roles:w&#45;&gt;acl_roles:e</title>
<path fill="none" stroke="#000000" d="M367.0921,-92.5482C329.2046,-132.7571 387.3107,-366.7 329.5,-366.7"/>
<polygon fill="#000000" stroke="#000000" points="373.1672,-89.8984 381.9393,-89.9998 376.8336,-88.2992 380.5,-86.7 380.5,-86.7 380.5,-86.7 376.8336,-88.2992 379.0607,-83.4002 373.1672,-89.8984 373.1672,-89.8984"/>
<ellipse fill="none" stroke="#000000" cx="370.234" cy="-91.1778" rx="3.2" ry="3.2"/>
</g>
<!-- securitygroups_acl_roles&#45;&gt;securitygroups -->
<g id="edge9" class="edge">
<title>securitygroups_acl_roles:w&#45;&gt;securitygroups:e</title>
<path fill="none" stroke="#000000" d="M365.9699,-108.2703C335.0165,-106.3563 322.6486,-98.7 285.5,-98.7"/>
<polygon fill="#000000" stroke="#000000" points="372.5035,-108.4635 380.3936,-112.2984 376.5017,-108.5817 380.5,-108.7 380.5,-108.7 380.5,-108.7 376.5017,-108.5817 380.6064,-105.1016 372.5035,-108.4635 372.5035,-108.4635"/>
<ellipse fill="none" stroke="#000000" cx="369.3049" cy="-108.3689" rx="3.2" ry="3.2"/>
</g>
</g>
</svg>
