<?xml version="1.0" encoding="UTF-8" standalone="no"?>
<!DOCTYPE svg PUBLIC "-//W3C//DTD SVG 1.1//EN"
 "http://www.w3.org/Graphics/SVG/1.1/DTD/svg11.dtd">
<!-- Generated by graphviz version 2.40.1 (20161225.0304)
 -->
<!-- Title: oneDegreeRelationshipsDiagram Pages: 1 -->
<svg width="411pt" height="325pt"
 viewBox="0.00 0.00 411.00 325.20" xmlns="http://www.w3.org/2000/svg" xmlns:xlink="http://www.w3.org/1999/xlink">
<g id="graph0" class="graph" transform="scale(1 1) rotate(0) translate(4 321.2)">
<title>oneDegreeRelationshipsDiagram</title>
<polygon fill="#ffffff" stroke="transparent" points="-4,4 -4,-321.2 407,-321.2 407,4 -4,4"/>
<text text-anchor="middle" x="72.4936" y="-7.3" font-family="Helvetica,sans-Serif" font-size="11.00" fill="#000000">Generated by SchemaSpy</text>
<!-- acl_roles_actions -->
<g id="node1" class="node">
<title>acl_roles_actions</title>
<g id="a_node1"><a xlink:href="../../tables/acl_roles_actions.html" xlink:title="acl_roles_actions" target="_top">
<polygon fill="#ffffff" stroke="transparent" points="191,-106.7 191,-284.7 395,-284.7 395,-106.7 191,-106.7"/>
<polygon fill="#f5f5f5" stroke="transparent" points="193,-259.7 193,-282.7 393,-282.7 393,-259.7 193,-259.7"/>
<polygon fill="none" stroke="#000000" points="193,-259.7 193,-282.7 393,-282.7 393,-259.7 193,-259.7"/>
<text text-anchor="start" x="198" y="-268.8" font-family="Helvetica,sans-Serif" font-weight="bold" font-size="11.00" fill="#000000">acl_roles_actions</text>
<text text-anchor="start" x="358.0437" y="-267.8" font-family="Helvetica,sans-Serif" font-size="11.00" fill="#000000">[table]</text>
<polygon fill="none" stroke="#000000" points="193,-237.7 193,-259.7 327,-259.7 327,-237.7 193,-237.7"/>
<image xlink:href="../../images/primaryKeys.png" width="11px" height="12px" preserveAspectRatio="xMinYMin meet" x="198" y="-254.7"/>
<text text-anchor="start" x="213" y="-244.8" font-family="Helvetica,sans-Serif" font-size="11.00" fill="#000000">id</text>
<polygon fill="none" stroke="#000000" points="327,-237.7 327,-259.7 393,-259.7 393,-237.7 327,-237.7"/>
<text text-anchor="start" x="330" y="-245.4" font-family="Helvetica,sans-Serif" font-size="11.00" fill="#000000">varchar[36]</text>
<polygon fill="#ffffff" stroke="transparent" points="193,-215.7 193,-237.7 327,-237.7 327,-215.7 193,-215.7"/>
<polygon fill="none" stroke="#000000" points="193,-215.7 193,-237.7 327,-237.7 327,-215.7 193,-215.7"/>
<image xlink:href="../../images/foreignKeys.png" width="11px" height="12px" preserveAspectRatio="xMinYMin meet" x="198" y="-232.7"/>
<text text-anchor="start" x="213" y="-222.8" font-family="Helvetica,sans-Serif" font-size="11.00" fill="#000000">role_id</text>
<polygon fill="none" stroke="#000000" points="327,-215.7 327,-237.7 393,-237.7 393,-215.7 327,-215.7"/>
<text text-anchor="start" x="330" y="-223.4" font-family="Helvetica,sans-Serif" font-size="11.00" fill="#000000">varchar[36]</text>
<polygon fill="#ffffff" stroke="transparent" points="193,-193.7 193,-215.7 327,-215.7 327,-193.7 193,-193.7"/>
<polygon fill="none" stroke="#000000" points="193,-193.7 193,-215.7 327,-215.7 327,-193.7 193,-193.7"/>
<image xlink:href="../../images/foreignKeys.png" width="11px" height="12px" preserveAspectRatio="xMinYMin meet" x="198" y="-210.7"/>
<text text-anchor="start" x="213" y="-200.8" font-family="Helvetica,sans-Serif" font-size="11.00" fill="#000000">action_id</text>
<polygon fill="none" stroke="#000000" points="327,-193.7 327,-215.7 393,-215.7 393,-193.7 327,-193.7"/>
<text text-anchor="start" x="330" y="-201.4" font-family="Helvetica,sans-Serif" font-size="11.00" fill="#000000">varchar[36]</text>
<polygon fill="none" stroke="#000000" points="193,-171.7 193,-193.7 327,-193.7 327,-171.7 193,-171.7"/>
<text text-anchor="start" x="213" y="-178.8" font-family="Helvetica,sans-Serif" font-size="11.00" fill="#000000">access_override</text>
<polygon fill="none" stroke="#000000" points="327,-171.7 327,-193.7 393,-193.7 393,-171.7 327,-171.7"/>
<text text-anchor="start" x="330" y="-179.4" font-family="Helvetica,sans-Serif" font-size="11.00" fill="#000000">int[10]</text>
<polygon fill="none" stroke="#000000" points="193,-149.7 193,-171.7 327,-171.7 327,-149.7 193,-149.7"/>
<text text-anchor="start" x="213" y="-156.8" font-family="Helvetica,sans-Serif" font-size="11.00" fill="#000000">date_modified</text>
<polygon fill="none" stroke="#000000" points="327,-149.7 327,-171.7 393,-171.7 393,-149.7 327,-149.7"/>
<text text-anchor="start" x="329.7401" y="-157.4" font-family="Helvetica,sans-Serif" font-size="11.00" fill="#000000">datetime[26]</text>
<polygon fill="none" stroke="#000000" points="193,-127.7 193,-149.7 327,-149.7 327,-127.7 193,-127.7"/>
<text text-anchor="start" x="213" y="-134.8" font-family="Helvetica,sans-Serif" font-size="11.00" fill="#000000">deleted</text>
<polygon fill="none" stroke="#000000" points="327,-127.7 327,-149.7 393,-149.7 393,-127.7 327,-127.7"/>
<text text-anchor="start" x="330" y="-135.4" font-family="Helvetica,sans-Serif" font-size="11.00" fill="#000000">bit[1]</text>
<polygon fill="#ffffff" stroke="transparent" points="193,-108.7 193,-127.7 264,-127.7 264,-108.7 193,-108.7"/>
<polygon fill="none" stroke="#000000" points="193,-108.7 193,-127.7 264,-127.7 264,-108.7 193,-108.7"/>
<text text-anchor="start" x="196" y="-114.8" font-family="Helvetica,sans-Serif" font-size="11.00" fill="#000000">&lt; 2</text>
<polygon fill="#ffffff" stroke="transparent" points="264,-108.7 264,-127.7 327,-127.7 327,-108.7 264,-108.7"/>
<polygon fill="none" stroke="#000000" points="264,-108.7 264,-127.7 327,-127.7 327,-108.7 264,-108.7"/>
<text text-anchor="start" x="317.8862" y="-114.8" font-family="Helvetica,sans-Serif" font-size="11.00" fill="#000000"> &#160;</text>
<polygon fill="#ffffff" stroke="transparent" points="327,-108.7 327,-127.7 393,-127.7 393,-108.7 327,-108.7"/>
<polygon fill="none" stroke="#000000" points="327,-108.7 327,-127.7 393,-127.7 393,-108.7 327,-108.7"/>
<text text-anchor="start" x="374.4053" y="-114.8" font-family="Helvetica,sans-Serif" font-size="11.00" fill="#000000">0 &gt;</text>
<polygon fill="none" stroke="#000000" stroke-width="2" points="192,-107.7 192,-283.7 394,-283.7 394,-107.7 192,-107.7"/>
</a>
</g>
</g>
<!-- acl_actions -->
<g id="node2" class="node">
<title>acl_actions</title>
<g id="a_node2"><a xlink:href="../../tables/acl_actions.html" xlink:title="acl_actions" target="_top">
<polygon fill="#ffffff" stroke="transparent" points="8,-38.2 8,-187.2 142,-187.2 142,-38.2 8,-38.2"/>
<polygon fill="#f5f5f5" stroke="transparent" points="8,-163.7 8,-186.7 142,-186.7 142,-163.7 8,-163.7"/>
<polygon fill="none" stroke="#000000" points="8,-163.7 8,-186.7 142,-186.7 142,-163.7 8,-163.7"/>
<text text-anchor="start" x="13" y="-172.8" font-family="Helvetica,sans-Serif" font-weight="bold" font-size="11.00" fill="#000000">acl_actions</text>
<text text-anchor="start" x="107.0437" y="-171.8" font-family="Helvetica,sans-Serif" font-size="11.00" fill="#000000">[table]</text>
<polygon fill="none" stroke="#000000" points="8,-141.7 8,-163.7 142,-163.7 142,-141.7 8,-141.7"/>
<image xlink:href="../../images/primaryKeys.png" width="11px" height="12px" preserveAspectRatio="xMinYMin meet" x="13" y="-158.7"/>
<text text-anchor="start" x="28" y="-148.8" font-family="Helvetica,sans-Serif" font-size="11.00" fill="#000000">id</text>
<polygon fill="#ffffff" stroke="transparent" points="8,-119.7 8,-141.7 142,-141.7 142,-119.7 8,-119.7"/>
<polygon fill="none" stroke="#000000" points="8,-119.7 8,-141.7 142,-141.7 142,-119.7 8,-119.7"/>
<text text-anchor="start" x="28" y="-126.8" font-family="Helvetica,sans-Serif" font-size="11.00" fill="#000000">name</text>
<polygon fill="#ffffff" stroke="transparent" points="8,-97.7 8,-119.7 142,-119.7 142,-97.7 8,-97.7"/>
<polygon fill="none" stroke="#000000" points="8,-97.7 8,-119.7 142,-119.7 142,-97.7 8,-97.7"/>
<text text-anchor="start" x="28" y="-104.8" font-family="Helvetica,sans-Serif" font-size="11.00" fill="#000000">category</text>
<polygon fill="#ffffff" stroke="transparent" points="8,-75.7 8,-97.7 142,-97.7 142,-75.7 8,-75.7"/>
<polygon fill="none" stroke="#000000" points="8,-75.7 8,-97.7 142,-97.7 142,-75.7 8,-75.7"/>
<text text-anchor="start" x="28" y="-82.8" font-family="Helvetica,sans-Serif" font-size="11.00" fill="#000000">deleted</text>
<polygon fill="none" stroke="#000000" points="8,-56.7 8,-75.7 142,-75.7 142,-56.7 8,-56.7"/>
<text text-anchor="start" x="11" y="-62.8" font-family="Helvetica,sans-Serif" font-size="11.00" fill="#000000">...</text>
<polygon fill="#ffffff" stroke="transparent" points="8,-37.7 8,-56.7 64,-56.7 64,-37.7 8,-37.7"/>
<polygon fill="none" stroke="#000000" points="8,-37.7 8,-56.7 64,-56.7 64,-37.7 8,-37.7"/>
<text text-anchor="start" x="11" y="-43.8" font-family="Helvetica,sans-Serif" font-size="11.00" fill="#000000"> &#160;</text>
<polygon fill="#ffffff" stroke="transparent" points="64,-37.7 64,-56.7 98,-56.7 98,-37.7 64,-37.7"/>
<polygon fill="none" stroke="#000000" points="64,-37.7 64,-56.7 98,-56.7 98,-37.7 64,-37.7"/>
<text text-anchor="start" x="88.8862" y="-43.8" font-family="Helvetica,sans-Serif" font-size="11.00" fill="#000000"> &#160;</text>
<polygon fill="#ffffff" stroke="transparent" points="98,-37.7 98,-56.7 142,-56.7 142,-37.7 98,-37.7"/>
<polygon fill="none" stroke="#000000" points="98,-37.7 98,-56.7 142,-56.7 142,-37.7 98,-37.7"/>
<text text-anchor="start" x="123.4053" y="-43.8" font-family="Helvetica,sans-Serif" font-size="11.00" fill="#000000">1 &gt;</text>
</a>
</g>
</g>
<!-- acl_roles_actions&#45;&gt;acl_actions -->
<g id="edge1" class="edge">
<title>acl_roles_actions:w&#45;&gt;acl_actions:e</title>
<path fill="none" stroke="#000000" d="M179.0468,-199.9012C164.161,-187.0281 168.3017,-152.7 142,-152.7"/>
<polygon fill="#000000" stroke="#000000" points="185.4349,-202.0982 191.8292,-208.1043 189.2175,-203.3991 193,-204.7 193,-204.7 193,-204.7 189.2175,-203.3991 194.1708,-201.2957 185.4349,-202.0982 185.4349,-202.0982"/>
<ellipse fill="none" stroke="#000000" cx="182.4089" cy="-201.0574" rx="3.2" ry="3.2"/>
</g>
<!-- acl_roles -->
<g id="node3" class="node">
<title>acl_roles</title>
<g id="a_node3"><a xlink:href="../../tables/acl_roles.html" xlink:title="acl_roles" target="_top">
<polygon fill="#ffffff" stroke="transparent" points="8,-208.2 8,-313.2 142,-313.2 142,-208.2 8,-208.2"/>
<polygon fill="#f5f5f5" stroke="transparent" points="8,-289.7 8,-312.7 142,-312.7 142,-289.7 8,-289.7"/>
<polygon fill="none" stroke="#000000" points="8,-289.7 8,-312.7 142,-312.7 142,-289.7 8,-289.7"/>
<text text-anchor="start" x="13" y="-298.8" font-family="Helvetica,sans-Serif" font-weight="bold" font-size="11.00" fill="#000000">acl_roles</text>
<text text-anchor="start" x="107.0437" y="-297.8" font-family="Helvetica,sans-Serif" font-size="11.00" fill="#000000">[table]</text>
<polygon fill="none" stroke="#000000" points="8,-267.7 8,-289.7 142,-289.7 142,-267.7 8,-267.7"/>
<image xlink:href="../../images/primaryKeys.png" width="11px" height="12px" preserveAspectRatio="xMinYMin meet" x="13" y="-284.7"/>
<text text-anchor="start" x="28" y="-274.8" font-family="Helvetica,sans-Serif" font-size="11.00" fill="#000000">id</text>
<polygon fill="#ffffff" stroke="transparent" points="8,-245.7 8,-267.7 142,-267.7 142,-245.7 8,-245.7"/>
<polygon fill="none" stroke="#000000" points="8,-245.7 8,-267.7 142,-267.7 142,-245.7 8,-245.7"/>
<text text-anchor="start" x="28" y="-252.8" font-family="Helvetica,sans-Serif" font-size="11.00" fill="#000000">deleted</text>
<polygon fill="none" stroke="#000000" points="8,-226.7 8,-245.7 142,-245.7 142,-226.7 8,-226.7"/>
<text text-anchor="start" x="11" y="-232.8" font-family="Helvetica,sans-Serif" font-size="11.00" fill="#000000">...</text>
<polygon fill="#ffffff" stroke="transparent" points="8,-207.7 8,-226.7 64,-226.7 64,-207.7 8,-207.7"/>
<polygon fill="none" stroke="#000000" points="8,-207.7 8,-226.7 64,-226.7 64,-207.7 8,-207.7"/>
<text text-anchor="start" x="11" y="-213.8" font-family="Helvetica,sans-Serif" font-size="11.00" fill="#000000"> &#160;</text>
<polygon fill="#ffffff" stroke="transparent" points="64,-207.7 64,-226.7 98,-226.7 98,-207.7 64,-207.7"/>
<polygon fill="none" stroke="#000000" points="64,-207.7 64,-226.7 98,-226.7 98,-207.7 64,-207.7"/>
<text text-anchor="start" x="88.8862" y="-213.8" font-family="Helvetica,sans-Serif" font-size="11.00" fill="#000000"> &#160;</text>
<polygon fill="#ffffff" stroke="transparent" points="98,-207.7 98,-226.7 142,-226.7 142,-207.7 98,-207.7"/>
<polygon fill="none" stroke="#000000" points="98,-207.7 98,-226.7 142,-226.7 142,-207.7 98,-207.7"/>
<text text-anchor="start" x="123.4053" y="-213.8" font-family="Helvetica,sans-Serif" font-size="11.00" fill="#000000">3 &gt;</text>
</a>
</g>
</g>
<!-- acl_roles_actions&#45;&gt;acl_roles -->
<g id="edge2" class="edge">
<title>acl_roles_actions:w&#45;&gt;acl_roles:e</title>
<path fill="none" stroke="#000000" d="M179.0468,-231.4988C164.161,-244.3719 168.3017,-278.7 142,-278.7"/>
<polygon fill="#000000" stroke="#000000" points="185.4349,-229.3018 194.1708,-230.1043 189.2175,-228.0009 193,-226.7 193,-226.7 193,-226.7 189.2175,-228.0009 191.8292,-223.2957 185.4349,-229.3018 185.4349,-229.3018"/>
<ellipse fill="none" stroke="#000000" cx="182.4089" cy="-230.3426" rx="3.2" ry="3.2"/>
</g>
</g>
</svg>
