<?xml version="1.0" encoding="UTF-8" standalone="no"?>
<!DOCTYPE svg PUBLIC "-//W3C//DTD SVG 1.1//EN"
 "http://www.w3.org/Graphics/SVG/1.1/DTD/svg11.dtd">
<!-- Generated by graphviz version 2.40.1 (20161225.0304)
 -->
<!-- Title: twoDegreesRelationshipsDiagram Pages: 1 -->
<svg width="411pt" height="401pt"
 viewBox="0.00 0.00 411.00 400.70" xmlns="http://www.w3.org/2000/svg" xmlns:xlink="http://www.w3.org/1999/xlink">
<g id="graph0" class="graph" transform="scale(1 1) rotate(0) translate(4 396.7)">
<title>twoDegreesRelationshipsDiagram</title>
<polygon fill="#ffffff" stroke="transparent" points="-4,4 -4,-396.7 407,-396.7 407,4 -4,4"/>
<text text-anchor="middle" x="72.4936" y="-7.3" font-family="Helvetica,sans-Serif" font-size="11.00" fill="#000000">Generated by SchemaSpy</text>
<!-- acl_roles_actions -->
<g id="node1" class="node">
<title>acl_roles_actions</title>
<g id="a_node1"><a xlink:href="../../tables/acl_roles_actions.html" xlink:title="acl_roles_actions" target="_top">
<polygon fill="#ffffff" stroke="transparent" points="191,-210.7 191,-388.7 395,-388.7 395,-210.7 191,-210.7"/>
<polygon fill="#f5f5f5" stroke="transparent" points="193,-363.7 193,-386.7 393,-386.7 393,-363.7 193,-363.7"/>
<polygon fill="none" stroke="#000000" points="193,-363.7 193,-386.7 393,-386.7 393,-363.7 193,-363.7"/>
<text text-anchor="start" x="198" y="-372.8" font-family="Helvetica,sans-Serif" font-weight="bold" font-size="11.00" fill="#000000">acl_roles_actions</text>
<text text-anchor="start" x="358.0437" y="-371.8" font-family="Helvetica,sans-Serif" font-size="11.00" fill="#000000">[table]</text>
<polygon fill="none" stroke="#000000" points="193,-341.7 193,-363.7 327,-363.7 327,-341.7 193,-341.7"/>
<image xlink:href="../../images/primaryKeys.png" width="11px" height="12px" preserveAspectRatio="xMinYMin meet" x="198" y="-358.7"/>
<text text-anchor="start" x="213" y="-348.8" font-family="Helvetica,sans-Serif" font-size="11.00" fill="#000000">id</text>
<polygon fill="none" stroke="#000000" points="327,-341.7 327,-363.7 393,-363.7 393,-341.7 327,-341.7"/>
<text text-anchor="start" x="330" y="-349.4" font-family="Helvetica,sans-Serif" font-size="11.00" fill="#000000">varchar[36]</text>
<polygon fill="#ffffff" stroke="transparent" points="193,-319.7 193,-341.7 327,-341.7 327,-319.7 193,-319.7"/>
<polygon fill="none" stroke="#000000" points="193,-319.7 193,-341.7 327,-341.7 327,-319.7 193,-319.7"/>
<image xlink:href="../../images/foreignKeys.png" width="11px" height="12px" preserveAspectRatio="xMinYMin meet" x="198" y="-336.7"/>
<text text-anchor="start" x="213" y="-326.8" font-family="Helvetica,sans-Serif" font-size="11.00" fill="#000000">role_id</text>
<polygon fill="none" stroke="#000000" points="327,-319.7 327,-341.7 393,-341.7 393,-319.7 327,-319.7"/>
<text text-anchor="start" x="330" y="-327.4" font-family="Helvetica,sans-Serif" font-size="11.00" fill="#000000">varchar[36]</text>
<polygon fill="#ffffff" stroke="transparent" points="193,-297.7 193,-319.7 327,-319.7 327,-297.7 193,-297.7"/>
<polygon fill="none" stroke="#000000" points="193,-297.7 193,-319.7 327,-319.7 327,-297.7 193,-297.7"/>
<image xlink:href="../../images/foreignKeys.png" width="11px" height="12px" preserveAspectRatio="xMinYMin meet" x="198" y="-314.7"/>
<text text-anchor="start" x="213" y="-304.8" font-family="Helvetica,sans-Serif" font-size="11.00" fill="#000000">action_id</text>
<polygon fill="none" stroke="#000000" points="327,-297.7 327,-319.7 393,-319.7 393,-297.7 327,-297.7"/>
<text text-anchor="start" x="330" y="-305.4" font-family="Helvetica,sans-Serif" font-size="11.00" fill="#000000">varchar[36]</text>
<polygon fill="none" stroke="#000000" points="193,-275.7 193,-297.7 327,-297.7 327,-275.7 193,-275.7"/>
<text text-anchor="start" x="213" y="-282.8" font-family="Helvetica,sans-Serif" font-size="11.00" fill="#000000">access_override</text>
<polygon fill="none" stroke="#000000" points="327,-275.7 327,-297.7 393,-297.7 393,-275.7 327,-275.7"/>
<text text-anchor="start" x="330" y="-283.4" font-family="Helvetica,sans-Serif" font-size="11.00" fill="#000000">int[10]</text>
<polygon fill="none" stroke="#000000" points="193,-253.7 193,-275.7 327,-275.7 327,-253.7 193,-253.7"/>
<text text-anchor="start" x="213" y="-260.8" font-family="Helvetica,sans-Serif" font-size="11.00" fill="#000000">date_modified</text>
<polygon fill="none" stroke="#000000" points="327,-253.7 327,-275.7 393,-275.7 393,-253.7 327,-253.7"/>
<text text-anchor="start" x="329.7401" y="-261.4" font-family="Helvetica,sans-Serif" font-size="11.00" fill="#000000">datetime[26]</text>
<polygon fill="none" stroke="#000000" points="193,-231.7 193,-253.7 327,-253.7 327,-231.7 193,-231.7"/>
<text text-anchor="start" x="213" y="-238.8" font-family="Helvetica,sans-Serif" font-size="11.00" fill="#000000">deleted</text>
<polygon fill="none" stroke="#000000" points="327,-231.7 327,-253.7 393,-253.7 393,-231.7 327,-231.7"/>
<text text-anchor="start" x="330" y="-239.4" font-family="Helvetica,sans-Serif" font-size="11.00" fill="#000000">bit[1]</text>
<polygon fill="#ffffff" stroke="transparent" points="193,-212.7 193,-231.7 264,-231.7 264,-212.7 193,-212.7"/>
<polygon fill="none" stroke="#000000" points="193,-212.7 193,-231.7 264,-231.7 264,-212.7 193,-212.7"/>
<text text-anchor="start" x="196" y="-218.8" font-family="Helvetica,sans-Serif" font-size="11.00" fill="#000000">&lt; 2</text>
<polygon fill="#ffffff" stroke="transparent" points="264,-212.7 264,-231.7 327,-231.7 327,-212.7 264,-212.7"/>
<polygon fill="none" stroke="#000000" points="264,-212.7 264,-231.7 327,-231.7 327,-212.7 264,-212.7"/>
<text text-anchor="start" x="317.8862" y="-218.8" font-family="Helvetica,sans-Serif" font-size="11.00" fill="#000000"> &#160;</text>
<polygon fill="#ffffff" stroke="transparent" points="327,-212.7 327,-231.7 393,-231.7 393,-212.7 327,-212.7"/>
<polygon fill="none" stroke="#000000" points="327,-212.7 327,-231.7 393,-231.7 393,-212.7 327,-212.7"/>
<text text-anchor="start" x="374.4053" y="-218.8" font-family="Helvetica,sans-Serif" font-size="11.00" fill="#000000">0 &gt;</text>
<polygon fill="none" stroke="#000000" stroke-width="2" points="192,-211.7 192,-387.7 394,-387.7 394,-211.7 192,-211.7"/>
</a>
</g>
</g>
<!-- acl_actions -->
<g id="node2" class="node">
<title>acl_actions</title>
<g id="a_node2"><a xlink:href="../../tables/acl_actions.html" xlink:title="acl_actions" target="_top">
<polygon fill="#ffffff" stroke="transparent" points="8,-198.2 8,-347.2 142,-347.2 142,-198.2 8,-198.2"/>
<polygon fill="#f5f5f5" stroke="transparent" points="8,-323.7 8,-346.7 142,-346.7 142,-323.7 8,-323.7"/>
<polygon fill="none" stroke="#000000" points="8,-323.7 8,-346.7 142,-346.7 142,-323.7 8,-323.7"/>
<text text-anchor="start" x="13" y="-332.8" font-family="Helvetica,sans-Serif" font-weight="bold" font-size="11.00" fill="#000000">acl_actions</text>
<text text-anchor="start" x="107.0437" y="-331.8" font-family="Helvetica,sans-Serif" font-size="11.00" fill="#000000">[table]</text>
<polygon fill="none" stroke="#000000" points="8,-301.7 8,-323.7 142,-323.7 142,-301.7 8,-301.7"/>
<image xlink:href="../../images/primaryKeys.png" width="11px" height="12px" preserveAspectRatio="xMinYMin meet" x="13" y="-318.7"/>
<text text-anchor="start" x="28" y="-308.8" font-family="Helvetica,sans-Serif" font-size="11.00" fill="#000000">id</text>
<polygon fill="#ffffff" stroke="transparent" points="8,-279.7 8,-301.7 142,-301.7 142,-279.7 8,-279.7"/>
<polygon fill="none" stroke="#000000" points="8,-279.7 8,-301.7 142,-301.7 142,-279.7 8,-279.7"/>
<text text-anchor="start" x="28" y="-286.8" font-family="Helvetica,sans-Serif" font-size="11.00" fill="#000000">name</text>
<polygon fill="#ffffff" stroke="transparent" points="8,-257.7 8,-279.7 142,-279.7 142,-257.7 8,-257.7"/>
<polygon fill="none" stroke="#000000" points="8,-257.7 8,-279.7 142,-279.7 142,-257.7 8,-257.7"/>
<text text-anchor="start" x="28" y="-264.8" font-family="Helvetica,sans-Serif" font-size="11.00" fill="#000000">category</text>
<polygon fill="#ffffff" stroke="transparent" points="8,-235.7 8,-257.7 142,-257.7 142,-235.7 8,-235.7"/>
<polygon fill="none" stroke="#000000" points="8,-235.7 8,-257.7 142,-257.7 142,-235.7 8,-235.7"/>
<text text-anchor="start" x="28" y="-242.8" font-family="Helvetica,sans-Serif" font-size="11.00" fill="#000000">deleted</text>
<polygon fill="none" stroke="#000000" points="8,-216.7 8,-235.7 142,-235.7 142,-216.7 8,-216.7"/>
<text text-anchor="start" x="11" y="-222.8" font-family="Helvetica,sans-Serif" font-size="11.00" fill="#000000">...</text>
<polygon fill="#ffffff" stroke="transparent" points="8,-197.7 8,-216.7 64,-216.7 64,-197.7 8,-197.7"/>
<polygon fill="none" stroke="#000000" points="8,-197.7 8,-216.7 64,-216.7 64,-197.7 8,-197.7"/>
<text text-anchor="start" x="11" y="-203.8" font-family="Helvetica,sans-Serif" font-size="11.00" fill="#000000"> &#160;</text>
<polygon fill="#ffffff" stroke="transparent" points="64,-197.7 64,-216.7 98,-216.7 98,-197.7 64,-197.7"/>
<polygon fill="none" stroke="#000000" points="64,-197.7 64,-216.7 98,-216.7 98,-197.7 64,-197.7"/>
<text text-anchor="start" x="88.8862" y="-203.8" font-family="Helvetica,sans-Serif" font-size="11.00" fill="#000000"> &#160;</text>
<polygon fill="#ffffff" stroke="transparent" points="98,-197.7 98,-216.7 142,-216.7 142,-197.7 98,-197.7"/>
<polygon fill="none" stroke="#000000" points="98,-197.7 98,-216.7 142,-216.7 142,-197.7 98,-197.7"/>
<text text-anchor="start" x="123.4053" y="-203.8" font-family="Helvetica,sans-Serif" font-size="11.00" fill="#000000">1 &gt;</text>
</a>
</g>
</g>
<!-- acl_roles_actions&#45;&gt;acl_actions -->
<g id="edge1" class="edge">
<title>acl_roles_actions:w&#45;&gt;acl_actions:e</title>
<path fill="none" stroke="#000000" d="M178.2566,-309.3605C166.2698,-310.4966 158.8746,-312.7 142,-312.7"/>
<polygon fill="#000000" stroke="#000000" points="185.008,-309.0581 193.1611,-312.2964 189.004,-308.8791 193,-308.7 193,-308.7 193,-308.7 189.004,-308.8791 192.8389,-305.1036 185.008,-309.0581 185.008,-309.0581"/>
<ellipse fill="none" stroke="#000000" cx="181.8112" cy="-309.2013" rx="3.2" ry="3.2"/>
</g>
<!-- acl_roles -->
<g id="node3" class="node">
<title>acl_roles</title>
<g id="a_node3"><a xlink:href="../../tables/acl_roles.html" xlink:title="acl_roles" target="_top">
<polygon fill="#ffffff" stroke="transparent" points="8,-72.2 8,-177.2 142,-177.2 142,-72.2 8,-72.2"/>
<polygon fill="#f5f5f5" stroke="transparent" points="8,-153.7 8,-176.7 142,-176.7 142,-153.7 8,-153.7"/>
<polygon fill="none" stroke="#000000" points="8,-153.7 8,-176.7 142,-176.7 142,-153.7 8,-153.7"/>
<text text-anchor="start" x="13" y="-162.8" font-family="Helvetica,sans-Serif" font-weight="bold" font-size="11.00" fill="#000000">acl_roles</text>
<text text-anchor="start" x="107.0437" y="-161.8" font-family="Helvetica,sans-Serif" font-size="11.00" fill="#000000">[table]</text>
<polygon fill="none" stroke="#000000" points="8,-131.7 8,-153.7 142,-153.7 142,-131.7 8,-131.7"/>
<image xlink:href="../../images/primaryKeys.png" width="11px" height="12px" preserveAspectRatio="xMinYMin meet" x="13" y="-148.7"/>
<text text-anchor="start" x="28" y="-138.8" font-family="Helvetica,sans-Serif" font-size="11.00" fill="#000000">id</text>
<polygon fill="#ffffff" stroke="transparent" points="8,-109.7 8,-131.7 142,-131.7 142,-109.7 8,-109.7"/>
<polygon fill="none" stroke="#000000" points="8,-109.7 8,-131.7 142,-131.7 142,-109.7 8,-109.7"/>
<text text-anchor="start" x="28" y="-116.8" font-family="Helvetica,sans-Serif" font-size="11.00" fill="#000000">deleted</text>
<polygon fill="none" stroke="#000000" points="8,-90.7 8,-109.7 142,-109.7 142,-90.7 8,-90.7"/>
<text text-anchor="start" x="11" y="-96.8" font-family="Helvetica,sans-Serif" font-size="11.00" fill="#000000">...</text>
<polygon fill="#ffffff" stroke="transparent" points="8,-71.7 8,-90.7 64,-90.7 64,-71.7 8,-71.7"/>
<polygon fill="none" stroke="#000000" points="8,-71.7 8,-90.7 64,-90.7 64,-71.7 8,-71.7"/>
<text text-anchor="start" x="11" y="-77.8" font-family="Helvetica,sans-Serif" font-size="11.00" fill="#000000"> &#160;</text>
<polygon fill="#ffffff" stroke="transparent" points="64,-71.7 64,-90.7 98,-90.7 98,-71.7 64,-71.7"/>
<polygon fill="none" stroke="#000000" points="64,-71.7 64,-90.7 98,-90.7 98,-71.7 64,-71.7"/>
<text text-anchor="start" x="88.8862" y="-77.8" font-family="Helvetica,sans-Serif" font-size="11.00" fill="#000000"> &#160;</text>
<polygon fill="#ffffff" stroke="transparent" points="98,-71.7 98,-90.7 142,-90.7 142,-71.7 98,-71.7"/>
<polygon fill="none" stroke="#000000" points="98,-71.7 98,-90.7 142,-90.7 142,-71.7 98,-71.7"/>
<text text-anchor="start" x="123.4053" y="-77.8" font-family="Helvetica,sans-Serif" font-size="11.00" fill="#000000">3 &gt;</text>
</a>
</g>
</g>
<!-- acl_roles_actions&#45;&gt;acl_roles -->
<g id="edge2" class="edge">
<title>acl_roles_actions:w&#45;&gt;acl_roles:e</title>
<path fill="none" stroke="#000000" d="M178.7493,-328.4577C121.3035,-307.2466 222.9954,-142.7 142,-142.7"/>
<polygon fill="#000000" stroke="#000000" points="185.0972,-329.4565 192.4404,-334.2562 189.0486,-330.0782 193,-330.7 193,-330.7 193,-330.7 189.0486,-330.0782 193.5596,-327.1438 185.0972,-329.4565 185.0972,-329.4565"/>
<ellipse fill="none" stroke="#000000" cx="181.9361" cy="-328.9591" rx="3.2" ry="3.2"/>
</g>
<!-- acl_roles_users -->
<g id="node4" class="node">
<title>acl_roles_users</title>
<g id="a_node4"><a xlink:href="../../tables/acl_roles_users.html" xlink:title="acl_roles_users" target="_top">
<polygon fill="#ffffff" stroke="transparent" points="233,-38.2 233,-99.2 353,-99.2 353,-38.2 233,-38.2"/>
<polygon fill="#f5f5f5" stroke="transparent" points="233,-75.7 233,-98.7 353,-98.7 353,-75.7 233,-75.7"/>
<polygon fill="none" stroke="#000000" points="233,-75.7 233,-98.7 353,-98.7 353,-75.7 233,-75.7"/>
<text text-anchor="start" x="237.9951" y="-84.8" font-family="Helvetica,sans-Serif" font-weight="bold" font-size="11.00" fill="#000000">acl_roles_users</text>
<text text-anchor="start" x="318.5219" y="-83.8" font-family="Helvetica,sans-Serif" font-size="11.00" fill="#000000">[table]</text>
<polygon fill="none" stroke="#000000" points="233,-56.7 233,-75.7 353,-75.7 353,-56.7 233,-56.7"/>
<text text-anchor="start" x="236" y="-62.8" font-family="Helvetica,sans-Serif" font-size="11.00" fill="#000000">...</text>
<polygon fill="#ffffff" stroke="transparent" points="233,-37.7 233,-56.7 291,-56.7 291,-37.7 233,-37.7"/>
<polygon fill="none" stroke="#000000" points="233,-37.7 233,-56.7 291,-56.7 291,-37.7 233,-37.7"/>
<text text-anchor="start" x="236" y="-43.8" font-family="Helvetica,sans-Serif" font-size="11.00" fill="#000000">&lt; 2</text>
<polygon fill="#ffffff" stroke="transparent" points="291,-37.7 291,-56.7 322,-56.7 322,-37.7 291,-37.7"/>
<polygon fill="none" stroke="#000000" points="291,-37.7 291,-56.7 322,-56.7 322,-37.7 291,-37.7"/>
<text text-anchor="start" x="312.8862" y="-43.8" font-family="Helvetica,sans-Serif" font-size="11.00" fill="#000000"> &#160;</text>
<polygon fill="#ffffff" stroke="transparent" points="322,-37.7 322,-56.7 353,-56.7 353,-37.7 322,-37.7"/>
<polygon fill="none" stroke="#000000" points="322,-37.7 322,-56.7 353,-56.7 353,-37.7 322,-37.7"/>
<text text-anchor="start" x="343.8862" y="-43.8" font-family="Helvetica,sans-Serif" font-size="11.00" fill="#000000"> &#160;</text>
</a>
</g>
</g>
<!-- acl_roles_users&#45;&gt;acl_roles -->
<g id="edge3" class="edge">
<title>acl_roles_users:w&#45;&gt;acl_roles:e</title>
<path fill="none" stroke="#000000" d="M219.4798,-70.9925C194.6274,-88.389 164.2476,-142.7 142,-142.7"/>
<polygon fill="#000000" stroke="#000000" points="225.5504,-68.6162 234.3123,-69.0523 229.2752,-67.1581 233,-65.7 233,-65.7 233,-65.7 229.2752,-67.1581 231.6877,-62.3477 225.5504,-68.6162 225.5504,-68.6162"/>
<ellipse fill="none" stroke="#000000" cx="222.5706" cy="-69.7827" rx="3.2" ry="3.2"/>
</g>
<!-- securitygroups_acl_roles -->
<g id="node5" class="node">
<title>securitygroups_acl_roles</title>
<g id="a_node5"><a xlink:href="../../tables/securitygroups_acl_roles.html" xlink:title="securitygroups_acl_roles" target="_top">
<polygon fill="#ffffff" stroke="transparent" points="211,-120.2 211,-181.2 375,-181.2 375,-120.2 211,-120.2"/>
<polygon fill="#f5f5f5" stroke="transparent" points="211,-157.7 211,-180.7 375,-180.7 375,-157.7 211,-157.7"/>
<polygon fill="none" stroke="#000000" points="211,-157.7 211,-180.7 375,-180.7 375,-157.7 211,-157.7"/>
<text text-anchor="start" x="215.6854" y="-166.8" font-family="Helvetica,sans-Serif" font-weight="bold" font-size="11.00" fill="#000000">securitygroups_acl_roles</text>
<text text-anchor="start" x="340.5219" y="-165.8" font-family="Helvetica,sans-Serif" font-size="11.00" fill="#000000">[table]</text>
<polygon fill="none" stroke="#000000" points="211,-138.7 211,-157.7 375,-157.7 375,-138.7 211,-138.7"/>
<text text-anchor="start" x="214" y="-144.8" font-family="Helvetica,sans-Serif" font-size="11.00" fill="#000000">...</text>
<polygon fill="#ffffff" stroke="transparent" points="211,-119.7 211,-138.7 291,-138.7 291,-119.7 211,-119.7"/>
<polygon fill="none" stroke="#000000" points="211,-119.7 211,-138.7 291,-138.7 291,-119.7 211,-119.7"/>
<text text-anchor="start" x="214" y="-125.8" font-family="Helvetica,sans-Serif" font-size="11.00" fill="#000000">&lt; 2</text>
<polygon fill="#ffffff" stroke="transparent" points="291,-119.7 291,-138.7 333,-138.7 333,-119.7 291,-119.7"/>
<polygon fill="none" stroke="#000000" points="291,-119.7 291,-138.7 333,-138.7 333,-119.7 291,-119.7"/>
<text text-anchor="start" x="323.8862" y="-125.8" font-family="Helvetica,sans-Serif" font-size="11.00" fill="#000000"> &#160;</text>
<polygon fill="#ffffff" stroke="transparent" points="333,-119.7 333,-138.7 375,-138.7 375,-119.7 333,-119.7"/>
<polygon fill="none" stroke="#000000" points="333,-119.7 333,-138.7 375,-138.7 375,-119.7 333,-119.7"/>
<text text-anchor="start" x="365.8862" y="-125.8" font-family="Helvetica,sans-Serif" font-size="11.00" fill="#000000"> &#160;</text>
</a>
</g>
</g>
<!-- securitygroups_acl_roles&#45;&gt;acl_roles -->
<g id="edge4" class="edge">
<title>securitygroups_acl_roles:w&#45;&gt;acl_roles:e</title>
<path fill="none" stroke="#000000" d="M196.4069,-147.2737C176.8051,-146.0646 167.2222,-142.7 142,-142.7"/>
<polygon fill="#000000" stroke="#000000" points="203.0034,-147.4663 210.8949,-151.2985 207.0017,-147.5832 211,-147.7 211,-147.7 211,-147.7 207.0017,-147.5832 211.1051,-144.1015 203.0034,-147.4663 203.0034,-147.4663"/>
<ellipse fill="none" stroke="#000000" cx="199.8048" cy="-147.3729" rx="3.2" ry="3.2"/>
</g>
</g>
</svg>
