<?xml version="1.0" encoding="UTF-8" standalone="no"?>
<!DOCTYPE svg PUBLIC "-//W3C//DTD SVG 1.1//EN"
 "http://www.w3.org/Graphics/SVG/1.1/DTD/svg11.dtd">
<!-- Generated by graphviz version 2.40.1 (20161225.0304)
 -->
<!-- Title: twoDegreesRelationshipsDiagram Pages: 1 -->
<svg width="655pt" height="1307pt"
 viewBox="0.00 0.00 655.00 1307.20" xmlns="http://www.w3.org/2000/svg" xmlns:xlink="http://www.w3.org/1999/xlink">
<g id="graph0" class="graph" transform="scale(1 1) rotate(0) translate(4 1303.2)">
<title>twoDegreesRelationshipsDiagram</title>
<polygon fill="#ffffff" stroke="transparent" points="-4,4 -4,-1303.2 651,-1303.2 651,4 -4,4"/>
<text text-anchor="middle" x="72.4936" y="-7.3" font-family="Helvetica,sans-Serif" font-size="11.00" fill="#000000">Generated by SchemaSpy</text>
<!-- acl_roles_users -->
<g id="node1" class="node">
<title>acl_roles_users</title>
<g id="a_node1"><a xlink:href="../../tables/acl_roles_users.html" xlink:title="acl_roles_users" target="_top">
<polygon fill="#ffffff" stroke="transparent" points="476,-1234.2 476,-1295.2 596,-1295.2 596,-1234.2 476,-1234.2"/>
<polygon fill="#f5f5f5" stroke="transparent" points="476,-1271.7 476,-1294.7 596,-1294.7 596,-1271.7 476,-1271.7"/>
<polygon fill="none" stroke="#000000" points="476,-1271.7 476,-1294.7 596,-1294.7 596,-1271.7 476,-1271.7"/>
<text text-anchor="start" x="480.9951" y="-1280.8" font-family="Helvetica,sans-Serif" font-weight="bold" font-size="11.00" fill="#000000">acl_roles_users</text>
<text text-anchor="start" x="561.5219" y="-1279.8" font-family="Helvetica,sans-Serif" font-size="11.00" fill="#000000">[table]</text>
<polygon fill="none" stroke="#000000" points="476,-1252.7 476,-1271.7 596,-1271.7 596,-1252.7 476,-1252.7"/>
<text text-anchor="start" x="479" y="-1258.8" font-family="Helvetica,sans-Serif" font-size="11.00" fill="#000000">...</text>
<polygon fill="#ffffff" stroke="transparent" points="476,-1233.7 476,-1252.7 534,-1252.7 534,-1233.7 476,-1233.7"/>
<polygon fill="none" stroke="#000000" points="476,-1233.7 476,-1252.7 534,-1252.7 534,-1233.7 476,-1233.7"/>
<text text-anchor="start" x="479" y="-1239.8" font-family="Helvetica,sans-Serif" font-size="11.00" fill="#000000">&lt; 2</text>
<polygon fill="#ffffff" stroke="transparent" points="534,-1233.7 534,-1252.7 565,-1252.7 565,-1233.7 534,-1233.7"/>
<polygon fill="none" stroke="#000000" points="534,-1233.7 534,-1252.7 565,-1252.7 565,-1233.7 534,-1233.7"/>
<text text-anchor="start" x="555.8862" y="-1239.8" font-family="Helvetica,sans-Serif" font-size="11.00" fill="#000000"> &#160;</text>
<polygon fill="#ffffff" stroke="transparent" points="565,-1233.7 565,-1252.7 596,-1252.7 596,-1233.7 565,-1233.7"/>
<polygon fill="none" stroke="#000000" points="565,-1233.7 565,-1252.7 596,-1252.7 596,-1233.7 565,-1233.7"/>
<text text-anchor="start" x="586.8862" y="-1239.8" font-family="Helvetica,sans-Serif" font-size="11.00" fill="#000000"> &#160;</text>
</a>
</g>
</g>
<!-- users -->
<g id="node2" class="node">
<title>users</title>
<g id="a_node2"><a xlink:href="../../tables/users.html" xlink:title="users" target="_top">
<polygon fill="#ffffff" stroke="transparent" points="168,-418.2 168,-633.2 384,-633.2 384,-418.2 168,-418.2"/>
<polygon fill="#f5f5f5" stroke="transparent" points="168,-609.7 168,-632.7 384,-632.7 384,-609.7 168,-609.7"/>
<polygon fill="none" stroke="#000000" points="168,-609.7 168,-632.7 384,-632.7 384,-609.7 168,-609.7"/>
<text text-anchor="start" x="173" y="-618.8" font-family="Helvetica,sans-Serif" font-weight="bold" font-size="11.00" fill="#000000">users</text>
<text text-anchor="start" x="349.0437" y="-617.8" font-family="Helvetica,sans-Serif" font-size="11.00" fill="#000000">[table]</text>
<polygon fill="none" stroke="#000000" points="168,-587.7 168,-609.7 384,-609.7 384,-587.7 168,-587.7"/>
<image xlink:href="../../images/primaryKeys.png" width="11px" height="12px" preserveAspectRatio="xMinYMin meet" x="173" y="-604.7"/>
<text text-anchor="start" x="188" y="-594.8" font-family="Helvetica,sans-Serif" font-size="11.00" fill="#000000">id</text>
<polygon fill="#ffffff" stroke="transparent" points="168,-565.7 168,-587.7 384,-587.7 384,-565.7 168,-565.7"/>
<polygon fill="none" stroke="#000000" points="168,-565.7 168,-587.7 384,-587.7 384,-565.7 168,-565.7"/>
<text text-anchor="start" x="188" y="-572.8" font-family="Helvetica,sans-Serif" font-size="11.00" fill="#000000">user_name</text>
<polygon fill="#ffffff" stroke="transparent" points="168,-543.7 168,-565.7 384,-565.7 384,-543.7 168,-543.7"/>
<polygon fill="none" stroke="#000000" points="168,-543.7 168,-565.7 384,-565.7 384,-543.7 168,-543.7"/>
<text text-anchor="start" x="188" y="-550.8" font-family="Helvetica,sans-Serif" font-size="11.00" fill="#000000">first_name</text>
<polygon fill="#ffffff" stroke="transparent" points="168,-521.7 168,-543.7 384,-543.7 384,-521.7 168,-521.7"/>
<polygon fill="none" stroke="#000000" points="168,-521.7 168,-543.7 384,-543.7 384,-521.7 168,-521.7"/>
<text text-anchor="start" x="188" y="-528.8" font-family="Helvetica,sans-Serif" font-size="11.00" fill="#000000">last_name</text>
<polygon fill="#ffffff" stroke="transparent" points="168,-499.7 168,-521.7 384,-521.7 384,-499.7 168,-499.7"/>
<polygon fill="none" stroke="#000000" points="168,-499.7 168,-521.7 384,-521.7 384,-499.7 168,-499.7"/>
<text text-anchor="start" x="188" y="-506.8" font-family="Helvetica,sans-Serif" font-size="11.00" fill="#000000">status</text>
<polygon fill="#c0c0c0" stroke="transparent" points="168,-477.7 168,-499.7 384,-499.7 384,-477.7 168,-477.7"/>
<polygon fill="none" stroke="#000000" points="168,-477.7 168,-499.7 384,-499.7 384,-477.7 168,-477.7"/>
<image xlink:href="../../images/foreignKeys.png" width="11px" height="12px" preserveAspectRatio="xMinYMin meet" x="173" y="-494.7"/>
<text text-anchor="start" x="188" y="-484.8" font-family="Helvetica,sans-Serif" font-size="11.00" fill="#000000">reports_to_id</text>
<polygon fill="#ffffff" stroke="transparent" points="168,-455.7 168,-477.7 384,-477.7 384,-455.7 168,-455.7"/>
<polygon fill="none" stroke="#000000" points="168,-455.7 168,-477.7 384,-477.7 384,-455.7 168,-455.7"/>
<text text-anchor="start" x="188" y="-462.8" font-family="Helvetica,sans-Serif" font-size="11.00" fill="#000000">is_group</text>
<polygon fill="none" stroke="#000000" points="168,-436.7 168,-455.7 384,-455.7 384,-436.7 168,-436.7"/>
<text text-anchor="start" x="171" y="-442.8" font-family="Helvetica,sans-Serif" font-size="11.00" fill="#000000">...</text>
<polygon fill="#ffffff" stroke="transparent" points="168,-417.7 168,-436.7 264,-436.7 264,-417.7 168,-417.7"/>
<polygon fill="none" stroke="#000000" points="168,-417.7 168,-436.7 264,-436.7 264,-417.7 168,-417.7"/>
<text text-anchor="start" x="171" y="-423.8" font-family="Helvetica,sans-Serif" font-size="11.00" fill="#000000">&lt; 2</text>
<polygon fill="#ffffff" stroke="transparent" points="264,-417.7 264,-436.7 313,-436.7 313,-417.7 264,-417.7"/>
<polygon fill="none" stroke="#000000" points="264,-417.7 264,-436.7 313,-436.7 313,-417.7 264,-417.7"/>
<text text-anchor="start" x="303.8862" y="-423.8" font-family="Helvetica,sans-Serif" font-size="11.00" fill="#000000"> &#160;</text>
<polygon fill="#ffffff" stroke="transparent" points="313,-417.7 313,-436.7 384,-436.7 384,-417.7 313,-417.7"/>
<polygon fill="none" stroke="#000000" points="313,-417.7 313,-436.7 384,-436.7 384,-417.7 313,-417.7"/>
<text text-anchor="start" x="353.1755" y="-423.8" font-family="Helvetica,sans-Serif" font-size="11.00" fill="#000000">214 &gt;</text>
</a>
</g>
</g>
<!-- acl_roles_users&#45;&gt;users -->
<g id="edge1" class="edge">
<title>acl_roles_users:w&#45;&gt;users:e</title>
<path fill="none" stroke="#000000" d="M461.4422,-1260.2044C443.9642,-1256.1119 435.8645,-1243.6835 425,-1223.7 391.7589,-1162.5583 453.5937,-598.7 384,-598.7"/>
<polygon fill="#000000" stroke="#000000" points="468.0419,-1260.8824 475.6321,-1265.2812 472.0209,-1261.2912 476,-1261.7 476,-1261.7 476,-1261.7 472.0209,-1261.2912 476.3679,-1258.1188 468.0419,-1260.8824 468.0419,-1260.8824"/>
<ellipse fill="none" stroke="#000000" cx="464.8586" cy="-1260.5553" rx="3.2" ry="3.2"/>
</g>
<!-- campaign_log -->
<g id="node14" class="node">
<title>campaign_log</title>
<g id="a_node14"><a xlink:href="../../tables/campaign_log.html" xlink:title="campaign_log" target="_top">
<polygon fill="#ffffff" stroke="transparent" points="8,-571.2 8,-632.2 119,-632.2 119,-571.2 8,-571.2"/>
<polygon fill="#f5f5f5" stroke="transparent" points="8.5,-608.7 8.5,-631.7 119.5,-631.7 119.5,-608.7 8.5,-608.7"/>
<polygon fill="none" stroke="#000000" points="8.5,-608.7 8.5,-631.7 119.5,-631.7 119.5,-608.7 8.5,-608.7"/>
<text text-anchor="start" x="13.2686" y="-617.8" font-family="Helvetica,sans-Serif" font-weight="bold" font-size="11.00" fill="#000000">campaign_log</text>
<text text-anchor="start" x="85.0219" y="-616.8" font-family="Helvetica,sans-Serif" font-size="11.00" fill="#000000">[table]</text>
<polygon fill="none" stroke="#000000" points="8.5,-589.7 8.5,-608.7 119.5,-608.7 119.5,-589.7 8.5,-589.7"/>
<text text-anchor="start" x="11.5" y="-595.8" font-family="Helvetica,sans-Serif" font-size="11.00" fill="#000000">...</text>
<polygon fill="#ffffff" stroke="transparent" points="8.5,-570.7 8.5,-589.7 57.5,-589.7 57.5,-570.7 8.5,-570.7"/>
<polygon fill="none" stroke="#000000" points="8.5,-570.7 8.5,-589.7 57.5,-589.7 57.5,-570.7 8.5,-570.7"/>
<text text-anchor="start" x="11.5" y="-576.8" font-family="Helvetica,sans-Serif" font-size="11.00" fill="#000000">&lt; 5</text>
<polygon fill="#ffffff" stroke="transparent" points="57.5,-570.7 57.5,-589.7 83.5,-589.7 83.5,-570.7 57.5,-570.7"/>
<polygon fill="none" stroke="#000000" points="57.5,-570.7 57.5,-589.7 83.5,-589.7 83.5,-570.7 57.5,-570.7"/>
<text text-anchor="start" x="74.3862" y="-576.8" font-family="Helvetica,sans-Serif" font-size="11.00" fill="#000000"> &#160;</text>
<polygon fill="#ffffff" stroke="transparent" points="83.5,-570.7 83.5,-589.7 119.5,-589.7 119.5,-570.7 83.5,-570.7"/>
<polygon fill="none" stroke="#000000" points="83.5,-570.7 83.5,-589.7 119.5,-589.7 119.5,-570.7 83.5,-570.7"/>
<text text-anchor="start" x="100.9053" y="-576.8" font-family="Helvetica,sans-Serif" font-size="11.00" fill="#000000">5 &gt;</text>
</a>
</g>
</g>
<!-- users&#45;&gt;campaign_log -->
<g id="edge15" class="edge">
<title>users:w&#45;&gt;campaign_log:e</title>
<path fill="none" stroke="#000000" d="M157.3669,-598.7C143.8553,-598.7 137.0139,-598.7 119.5,-598.7"/>
<polygon fill="#000000" stroke="#000000" points="167.2,-594.7 167.2,-602.7 165.6,-602.7 165.6,-594.7 167.2,-594.7"/>
<polyline fill="none" stroke="#000000" points="168,-598.7 164,-598.7 "/>
<ellipse fill="none" stroke="#000000" cx="160.8" cy="-598.7001" rx="3.2" ry="3.2"/>
</g>
<!-- alerts -->
<g id="node3" class="node">
<title>alerts</title>
<g id="a_node3"><a xlink:href="../../tables/alerts.html" xlink:title="alerts" target="_top">
<polygon fill="#ffffff" stroke="transparent" points="433,-858.7 433,-1212.7 639,-1212.7 639,-858.7 433,-858.7"/>
<polygon fill="#f5f5f5" stroke="transparent" points="435,-1187.7 435,-1210.7 637,-1210.7 637,-1187.7 435,-1187.7"/>
<polygon fill="none" stroke="#000000" points="435,-1187.7 435,-1210.7 637,-1210.7 637,-1187.7 435,-1187.7"/>
<text text-anchor="start" x="440" y="-1196.8" font-family="Helvetica,sans-Serif" font-weight="bold" font-size="11.00" fill="#000000">alerts</text>
<text text-anchor="start" x="602.0437" y="-1195.8" font-family="Helvetica,sans-Serif" font-size="11.00" fill="#000000">[table]</text>
<polygon fill="none" stroke="#000000" points="435,-1165.7 435,-1187.7 570,-1187.7 570,-1165.7 435,-1165.7"/>
<image xlink:href="../../images/primaryKeys.png" width="11px" height="12px" preserveAspectRatio="xMinYMin meet" x="440" y="-1182.7"/>
<text text-anchor="start" x="455" y="-1172.8" font-family="Helvetica,sans-Serif" font-size="11.00" fill="#000000">id</text>
<polygon fill="none" stroke="#000000" points="570,-1165.7 570,-1187.7 637,-1187.7 637,-1165.7 570,-1165.7"/>
<text text-anchor="start" x="573" y="-1173.4" font-family="Helvetica,sans-Serif" font-size="11.00" fill="#000000">char[36]</text>
<polygon fill="none" stroke="#000000" points="435,-1143.7 435,-1165.7 570,-1165.7 570,-1143.7 435,-1143.7"/>
<text text-anchor="start" x="455" y="-1150.8" font-family="Helvetica,sans-Serif" font-size="11.00" fill="#000000">name</text>
<polygon fill="none" stroke="#000000" points="570,-1143.7 570,-1165.7 637,-1165.7 637,-1143.7 570,-1143.7"/>
<text text-anchor="start" x="572.9365" y="-1151.4" font-family="Helvetica,sans-Serif" font-size="11.00" fill="#000000">varchar[255]</text>
<polygon fill="none" stroke="#000000" points="435,-1121.7 435,-1143.7 570,-1143.7 570,-1121.7 435,-1121.7"/>
<text text-anchor="start" x="455" y="-1128.8" font-family="Helvetica,sans-Serif" font-size="11.00" fill="#000000">date_entered</text>
<polygon fill="none" stroke="#000000" points="570,-1121.7 570,-1143.7 637,-1143.7 637,-1121.7 570,-1121.7"/>
<text text-anchor="start" x="573" y="-1129.4" font-family="Helvetica,sans-Serif" font-size="11.00" fill="#000000">datetime[26]</text>
<polygon fill="none" stroke="#000000" points="435,-1099.7 435,-1121.7 570,-1121.7 570,-1099.7 435,-1099.7"/>
<text text-anchor="start" x="455" y="-1106.8" font-family="Helvetica,sans-Serif" font-size="11.00" fill="#000000">date_modified</text>
<polygon fill="none" stroke="#000000" points="570,-1099.7 570,-1121.7 637,-1121.7 637,-1099.7 570,-1099.7"/>
<text text-anchor="start" x="573" y="-1107.4" font-family="Helvetica,sans-Serif" font-size="11.00" fill="#000000">datetime[26]</text>
<polygon fill="none" stroke="#000000" points="435,-1077.7 435,-1099.7 570,-1099.7 570,-1077.7 435,-1077.7"/>
<image xlink:href="../../images/foreignKeys.png" width="11px" height="12px" preserveAspectRatio="xMinYMin meet" x="440" y="-1094.7"/>
<text text-anchor="start" x="455" y="-1084.8" font-family="Helvetica,sans-Serif" font-size="11.00" fill="#000000">modified_user_id</text>
<polygon fill="none" stroke="#000000" points="570,-1077.7 570,-1099.7 637,-1099.7 637,-1077.7 570,-1077.7"/>
<text text-anchor="start" x="573" y="-1085.4" font-family="Helvetica,sans-Serif" font-size="11.00" fill="#000000">char[36]</text>
<polygon fill="none" stroke="#000000" points="435,-1055.7 435,-1077.7 570,-1077.7 570,-1055.7 435,-1055.7"/>
<image xlink:href="../../images/foreignKeys.png" width="11px" height="12px" preserveAspectRatio="xMinYMin meet" x="440" y="-1072.7"/>
<text text-anchor="start" x="455" y="-1062.8" font-family="Helvetica,sans-Serif" font-size="11.00" fill="#000000">created_by</text>
<polygon fill="none" stroke="#000000" points="570,-1055.7 570,-1077.7 637,-1077.7 637,-1055.7 570,-1055.7"/>
<text text-anchor="start" x="573" y="-1063.4" font-family="Helvetica,sans-Serif" font-size="11.00" fill="#000000">char[36]</text>
<polygon fill="none" stroke="#000000" points="435,-1033.7 435,-1055.7 570,-1055.7 570,-1033.7 435,-1033.7"/>
<text text-anchor="start" x="455" y="-1040.8" font-family="Helvetica,sans-Serif" font-size="11.00" fill="#000000">description</text>
<polygon fill="none" stroke="#000000" points="570,-1033.7 570,-1055.7 637,-1055.7 637,-1033.7 570,-1033.7"/>
<text text-anchor="start" x="573" y="-1041.4" font-family="Helvetica,sans-Serif" font-size="11.00" fill="#000000">text[65535]</text>
<polygon fill="none" stroke="#000000" points="435,-1011.7 435,-1033.7 570,-1033.7 570,-1011.7 435,-1011.7"/>
<text text-anchor="start" x="455" y="-1018.8" font-family="Helvetica,sans-Serif" font-size="11.00" fill="#000000">deleted</text>
<polygon fill="none" stroke="#000000" points="570,-1011.7 570,-1033.7 637,-1033.7 637,-1011.7 570,-1011.7"/>
<text text-anchor="start" x="573" y="-1019.4" font-family="Helvetica,sans-Serif" font-size="11.00" fill="#000000">bit[1]</text>
<polygon fill="none" stroke="#000000" points="435,-989.7 435,-1011.7 570,-1011.7 570,-989.7 435,-989.7"/>
<image xlink:href="../../images/foreignKeys.png" width="11px" height="12px" preserveAspectRatio="xMinYMin meet" x="440" y="-1006.7"/>
<text text-anchor="start" x="455" y="-996.8" font-family="Helvetica,sans-Serif" font-size="11.00" fill="#000000">assigned_user_id</text>
<polygon fill="none" stroke="#000000" points="570,-989.7 570,-1011.7 637,-1011.7 637,-989.7 570,-989.7"/>
<text text-anchor="start" x="573" y="-997.4" font-family="Helvetica,sans-Serif" font-size="11.00" fill="#000000">char[36]</text>
<polygon fill="none" stroke="#000000" points="435,-967.7 435,-989.7 570,-989.7 570,-967.7 435,-967.7"/>
<text text-anchor="start" x="455" y="-974.8" font-family="Helvetica,sans-Serif" font-size="11.00" fill="#000000">is_read</text>
<polygon fill="none" stroke="#000000" points="570,-967.7 570,-989.7 637,-989.7 637,-967.7 570,-967.7"/>
<text text-anchor="start" x="573" y="-975.4" font-family="Helvetica,sans-Serif" font-size="11.00" fill="#000000">bit[1]</text>
<polygon fill="none" stroke="#000000" points="435,-945.7 435,-967.7 570,-967.7 570,-945.7 435,-945.7"/>
<text text-anchor="start" x="455" y="-952.8" font-family="Helvetica,sans-Serif" font-size="11.00" fill="#000000">target_module</text>
<polygon fill="none" stroke="#000000" points="570,-945.7 570,-967.7 637,-967.7 637,-945.7 570,-945.7"/>
<text text-anchor="start" x="572.9365" y="-953.4" font-family="Helvetica,sans-Serif" font-size="11.00" fill="#000000">varchar[255]</text>
<polygon fill="none" stroke="#000000" points="435,-923.7 435,-945.7 570,-945.7 570,-923.7 435,-923.7"/>
<text text-anchor="start" x="455" y="-930.8" font-family="Helvetica,sans-Serif" font-size="11.00" fill="#000000">type</text>
<polygon fill="none" stroke="#000000" points="570,-923.7 570,-945.7 637,-945.7 637,-923.7 570,-923.7"/>
<text text-anchor="start" x="572.9365" y="-931.4" font-family="Helvetica,sans-Serif" font-size="11.00" fill="#000000">varchar[255]</text>
<polygon fill="none" stroke="#000000" points="435,-901.7 435,-923.7 570,-923.7 570,-901.7 435,-901.7"/>
<text text-anchor="start" x="455" y="-908.8" font-family="Helvetica,sans-Serif" font-size="11.00" fill="#000000">url_redirect</text>
<polygon fill="none" stroke="#000000" points="570,-901.7 570,-923.7 637,-923.7 637,-901.7 570,-901.7"/>
<text text-anchor="start" x="572.9365" y="-909.4" font-family="Helvetica,sans-Serif" font-size="11.00" fill="#000000">varchar[255]</text>
<polygon fill="none" stroke="#000000" points="435,-879.7 435,-901.7 570,-901.7 570,-879.7 435,-879.7"/>
<text text-anchor="start" x="455" y="-886.8" font-family="Helvetica,sans-Serif" font-size="11.00" fill="#000000">reminder_id</text>
<polygon fill="none" stroke="#000000" points="570,-879.7 570,-901.7 637,-901.7 637,-879.7 570,-879.7"/>
<text text-anchor="start" x="573" y="-887.4" font-family="Helvetica,sans-Serif" font-size="11.00" fill="#000000">char[36]</text>
<polygon fill="#ffffff" stroke="transparent" points="435,-860.7 435,-879.7 507,-879.7 507,-860.7 435,-860.7"/>
<polygon fill="none" stroke="#000000" points="435,-860.7 435,-879.7 507,-879.7 507,-860.7 435,-860.7"/>
<text text-anchor="start" x="438" y="-866.8" font-family="Helvetica,sans-Serif" font-size="11.00" fill="#000000">&lt; 3</text>
<polygon fill="#ffffff" stroke="transparent" points="507,-860.7 507,-879.7 570,-879.7 570,-860.7 507,-860.7"/>
<polygon fill="none" stroke="#000000" points="507,-860.7 507,-879.7 570,-879.7 570,-860.7 507,-860.7"/>
<text text-anchor="start" x="560.8862" y="-866.8" font-family="Helvetica,sans-Serif" font-size="11.00" fill="#000000"> &#160;</text>
<polygon fill="#ffffff" stroke="transparent" points="570,-860.7 570,-879.7 637,-879.7 637,-860.7 570,-860.7"/>
<polygon fill="none" stroke="#000000" points="570,-860.7 570,-879.7 637,-879.7 637,-860.7 570,-860.7"/>
<text text-anchor="start" x="618.4053" y="-866.8" font-family="Helvetica,sans-Serif" font-size="11.00" fill="#000000">0 &gt;</text>
<polygon fill="none" stroke="#000000" stroke-width="2" points="434,-859.7 434,-1211.7 638,-1211.7 638,-859.7 434,-859.7"/>
</a>
</g>
</g>
<!-- alerts&#45;&gt;users -->
<g id="edge2" class="edge">
<title>alerts:w&#45;&gt;users:e</title>
<path fill="none" stroke="#000000" d="M420.9562,-996.4574C359.7803,-953.494 468.5972,-598.7 384,-598.7"/>
<polygon fill="#000000" stroke="#000000" points="427.3418,-998.3864 433.9589,-1004.1462 431.1709,-999.5432 435,-1000.7 435,-1000.7 435,-1000.7 431.1709,-999.5432 436.0411,-997.2538 427.3418,-998.3864 427.3418,-998.3864"/>
<ellipse fill="none" stroke="#000000" cx="424.2786" cy="-997.461" rx="3.2" ry="3.2"/>
</g>
<!-- alerts&#45;&gt;users -->
<g id="edge3" class="edge">
<title>alerts:w&#45;&gt;users:e</title>
<path fill="none" stroke="#000000" d="M421.0271,-1063.202C345.7769,-1020.3756 483.3032,-598.7 384,-598.7"/>
<polygon fill="#000000" stroke="#000000" points="427.2395,-1064.7572 434.1257,-1070.1922 431.1197,-1065.7286 435,-1066.7 435,-1066.7 435,-1066.7 431.1197,-1065.7286 435.8743,-1063.2078 427.2395,-1064.7572 427.2395,-1064.7572"/>
<ellipse fill="none" stroke="#000000" cx="424.1353" cy="-1063.9801" rx="3.2" ry="3.2"/>
</g>
<!-- alerts&#45;&gt;users -->
<g id="edge4" class="edge">
<title>alerts:w&#45;&gt;users:e</title>
<path fill="none" stroke="#000000" d="M420.8831,-1085.3093C341.2632,-1042.0167 488.1315,-598.7 384,-598.7"/>
<polygon fill="#000000" stroke="#000000" points="427.2212,-1086.8316 434.1592,-1092.2004 431.1106,-1087.7658 435,-1088.7 435,-1088.7 435,-1088.7 431.1106,-1087.7658 435.8408,-1085.1996 427.2212,-1086.8316 427.2212,-1086.8316"/>
<ellipse fill="none" stroke="#000000" cx="424.1097" cy="-1086.0843" rx="3.2" ry="3.2"/>
</g>
<!-- am_projecttemplates_users_1_c -->
<g id="node4" class="node">
<title>am_projecttemplates_users_1_c</title>
<g id="a_node4"><a xlink:href="../../tables/am_projecttemplates_users_1_c.html" xlink:title="am_projecttemplates_users_1_c" target="_top">
<polygon fill="#ffffff" stroke="transparent" points="435.5,-776.2 435.5,-837.2 636.5,-837.2 636.5,-776.2 435.5,-776.2"/>
<polygon fill="#f5f5f5" stroke="transparent" points="436,-813.7 436,-836.7 637,-836.7 637,-813.7 436,-813.7"/>
<polygon fill="none" stroke="#000000" points="436,-813.7 436,-836.7 637,-836.7 637,-813.7 436,-813.7"/>
<text text-anchor="start" x="440.5382" y="-822.8" font-family="Helvetica,sans-Serif" font-weight="bold" font-size="11.00" fill="#000000">am_projecttemplates_users_1_c</text>
<text text-anchor="start" x="602.5219" y="-821.8" font-family="Helvetica,sans-Serif" font-size="11.00" fill="#000000">[table]</text>
<polygon fill="none" stroke="#000000" points="436,-794.7 436,-813.7 637,-813.7 637,-794.7 436,-794.7"/>
<text text-anchor="start" x="439" y="-800.8" font-family="Helvetica,sans-Serif" font-size="11.00" fill="#000000">...</text>
<polygon fill="#ffffff" stroke="transparent" points="436,-775.7 436,-794.7 535,-794.7 535,-775.7 436,-775.7"/>
<polygon fill="none" stroke="#000000" points="436,-775.7 436,-794.7 535,-794.7 535,-775.7 436,-775.7"/>
<text text-anchor="start" x="439" y="-781.8" font-family="Helvetica,sans-Serif" font-size="11.00" fill="#000000">&lt; 2</text>
<polygon fill="#ffffff" stroke="transparent" points="535,-775.7 535,-794.7 586,-794.7 586,-775.7 535,-775.7"/>
<polygon fill="none" stroke="#000000" points="535,-775.7 535,-794.7 586,-794.7 586,-775.7 535,-775.7"/>
<text text-anchor="start" x="576.8862" y="-781.8" font-family="Helvetica,sans-Serif" font-size="11.00" fill="#000000"> &#160;</text>
<polygon fill="#ffffff" stroke="transparent" points="586,-775.7 586,-794.7 637,-794.7 637,-775.7 586,-775.7"/>
<polygon fill="none" stroke="#000000" points="586,-775.7 586,-794.7 637,-794.7 637,-775.7 586,-775.7"/>
<text text-anchor="start" x="627.8862" y="-781.8" font-family="Helvetica,sans-Serif" font-size="11.00" fill="#000000"> &#160;</text>
</a>
</g>
</g>
<!-- am_projecttemplates_users_1_c&#45;&gt;users -->
<g id="edge5" class="edge">
<title>am_projecttemplates_users_1_c:w&#45;&gt;users:e</title>
<path fill="none" stroke="#000000" d="M421.3537,-801.5365C357.6282,-779.6273 472.3054,-598.7 384,-598.7"/>
<polygon fill="#000000" stroke="#000000" points="428.0859,-802.5309 435.4739,-807.2614 432.0429,-803.1154 436,-803.7 436,-803.7 436,-803.7 432.0429,-803.1154 436.5261,-800.1386 428.0859,-802.5309 428.0859,-802.5309"/>
<ellipse fill="none" stroke="#000000" cx="424.9202" cy="-802.0632" rx="3.2" ry="3.2"/>
</g>
<!-- calls_users -->
<g id="node5" class="node">
<title>calls_users</title>
<g id="a_node5"><a xlink:href="../../tables/calls_users.html" xlink:title="calls_users" target="_top">
<polygon fill="#ffffff" stroke="transparent" points="487,-694.2 487,-755.2 585,-755.2 585,-694.2 487,-694.2"/>
<polygon fill="#f5f5f5" stroke="transparent" points="487,-731.7 487,-754.7 585,-754.7 585,-731.7 487,-731.7"/>
<polygon fill="none" stroke="#000000" points="487,-731.7 487,-754.7 585,-754.7 585,-731.7 487,-731.7"/>
<text text-anchor="start" x="491.9984" y="-740.8" font-family="Helvetica,sans-Serif" font-weight="bold" font-size="11.00" fill="#000000">calls_users</text>
<text text-anchor="start" x="550.5219" y="-739.8" font-family="Helvetica,sans-Serif" font-size="11.00" fill="#000000">[table]</text>
<polygon fill="none" stroke="#000000" points="487,-712.7 487,-731.7 585,-731.7 585,-712.7 487,-712.7"/>
<text text-anchor="start" x="490" y="-718.8" font-family="Helvetica,sans-Serif" font-size="11.00" fill="#000000">...</text>
<polygon fill="#ffffff" stroke="transparent" points="487,-693.7 487,-712.7 534,-712.7 534,-693.7 487,-693.7"/>
<polygon fill="none" stroke="#000000" points="487,-693.7 487,-712.7 534,-712.7 534,-693.7 487,-693.7"/>
<text text-anchor="start" x="490" y="-699.8" font-family="Helvetica,sans-Serif" font-size="11.00" fill="#000000">&lt; 2</text>
<polygon fill="#ffffff" stroke="transparent" points="534,-693.7 534,-712.7 559,-712.7 559,-693.7 534,-693.7"/>
<polygon fill="none" stroke="#000000" points="534,-693.7 534,-712.7 559,-712.7 559,-693.7 534,-693.7"/>
<text text-anchor="start" x="549.8862" y="-699.8" font-family="Helvetica,sans-Serif" font-size="11.00" fill="#000000"> &#160;</text>
<polygon fill="#ffffff" stroke="transparent" points="559,-693.7 559,-712.7 585,-712.7 585,-693.7 559,-693.7"/>
<polygon fill="none" stroke="#000000" points="559,-693.7 559,-712.7 585,-712.7 585,-693.7 559,-693.7"/>
<text text-anchor="start" x="575.8862" y="-699.8" font-family="Helvetica,sans-Serif" font-size="11.00" fill="#000000"> &#160;</text>
</a>
</g>
</g>
<!-- calls_users&#45;&gt;users -->
<g id="edge6" class="edge">
<title>calls_users:w&#45;&gt;users:e</title>
<path fill="none" stroke="#000000" d="M472.5922,-720.532C451.6062,-716.7068 443.0363,-703.645 425,-683.7 396.8678,-652.5907 425.9429,-598.7 384,-598.7"/>
<polygon fill="#000000" stroke="#000000" points="479.0262,-721.0535 486.7091,-725.2882 483.0131,-721.3768 487,-721.7 487,-721.7 487,-721.7 483.0131,-721.3768 487.2909,-718.1118 479.0262,-721.0535 479.0262,-721.0535"/>
<ellipse fill="none" stroke="#000000" cx="475.8366" cy="-720.7949" rx="3.2" ry="3.2"/>
</g>
<!-- contacts_users -->
<g id="node6" class="node">
<title>contacts_users</title>
<g id="a_node6"><a xlink:href="../../tables/contacts_users.html" xlink:title="contacts_users" target="_top">
<polygon fill="#ffffff" stroke="transparent" points="478,-612.2 478,-673.2 594,-673.2 594,-612.2 478,-612.2"/>
<polygon fill="#f5f5f5" stroke="transparent" points="478,-649.7 478,-672.7 594,-672.7 594,-649.7 478,-649.7"/>
<polygon fill="none" stroke="#000000" points="478,-649.7 478,-672.7 594,-672.7 594,-649.7 478,-649.7"/>
<text text-anchor="start" x="482.5175" y="-658.8" font-family="Helvetica,sans-Serif" font-weight="bold" font-size="11.00" fill="#000000">contacts_users</text>
<text text-anchor="start" x="559.5219" y="-657.8" font-family="Helvetica,sans-Serif" font-size="11.00" fill="#000000">[table]</text>
<polygon fill="none" stroke="#000000" points="478,-630.7 478,-649.7 594,-649.7 594,-630.7 478,-630.7"/>
<text text-anchor="start" x="481" y="-636.8" font-family="Helvetica,sans-Serif" font-size="11.00" fill="#000000">...</text>
<polygon fill="#ffffff" stroke="transparent" points="478,-611.7 478,-630.7 534,-630.7 534,-611.7 478,-611.7"/>
<polygon fill="none" stroke="#000000" points="478,-611.7 478,-630.7 534,-630.7 534,-611.7 478,-611.7"/>
<text text-anchor="start" x="481" y="-617.8" font-family="Helvetica,sans-Serif" font-size="11.00" fill="#000000">&lt; 2</text>
<polygon fill="#ffffff" stroke="transparent" points="534,-611.7 534,-630.7 564,-630.7 564,-611.7 534,-611.7"/>
<polygon fill="none" stroke="#000000" points="534,-611.7 534,-630.7 564,-630.7 564,-611.7 534,-611.7"/>
<text text-anchor="start" x="554.8862" y="-617.8" font-family="Helvetica,sans-Serif" font-size="11.00" fill="#000000"> &#160;</text>
<polygon fill="#ffffff" stroke="transparent" points="564,-611.7 564,-630.7 594,-630.7 594,-611.7 564,-611.7"/>
<polygon fill="none" stroke="#000000" points="564,-611.7 564,-630.7 594,-630.7 594,-611.7 564,-611.7"/>
<text text-anchor="start" x="584.8862" y="-617.8" font-family="Helvetica,sans-Serif" font-size="11.00" fill="#000000"> &#160;</text>
</a>
</g>
</g>
<!-- contacts_users&#45;&gt;users -->
<g id="edge7" class="edge">
<title>contacts_users:w&#45;&gt;users:e</title>
<path fill="none" stroke="#000000" d="M463.5993,-638.1428C431.1681,-630.6537 424.2376,-598.7 384,-598.7"/>
<polygon fill="#000000" stroke="#000000" points="470.0464,-638.8399 477.613,-643.2791 474.0232,-639.27 478,-639.7 478,-639.7 478,-639.7 474.0232,-639.27 478.387,-636.1209 470.0464,-638.8399 470.0464,-638.8399"/>
<ellipse fill="none" stroke="#000000" cx="466.8649" cy="-638.4959" rx="3.2" ry="3.2"/>
</g>
<!-- email_addr_bean_rel -->
<g id="node7" class="node">
<title>email_addr_bean_rel</title>
<g id="a_node7"><a xlink:href="../../tables/email_addr_bean_rel.html" xlink:title="email_addr_bean_rel" target="_top">
<polygon fill="#ffffff" stroke="transparent" points="463,-530.2 463,-591.2 609,-591.2 609,-530.2 463,-530.2"/>
<polygon fill="#f5f5f5" stroke="transparent" points="463,-567.7 463,-590.7 609,-590.7 609,-567.7 463,-567.7"/>
<polygon fill="none" stroke="#000000" points="463,-567.7 463,-590.7 609,-590.7 609,-567.7 463,-567.7"/>
<text text-anchor="start" x="467.849" y="-576.8" font-family="Helvetica,sans-Serif" font-weight="bold" font-size="11.00" fill="#000000">email_addr_bean_rel</text>
<text text-anchor="start" x="574.5219" y="-575.8" font-family="Helvetica,sans-Serif" font-size="11.00" fill="#000000">[table]</text>
<polygon fill="none" stroke="#000000" points="463,-548.7 463,-567.7 609,-567.7 609,-548.7 463,-548.7"/>
<text text-anchor="start" x="466" y="-554.8" font-family="Helvetica,sans-Serif" font-size="11.00" fill="#000000">...</text>
<polygon fill="#ffffff" stroke="transparent" points="463,-529.7 463,-548.7 534,-548.7 534,-529.7 463,-529.7"/>
<polygon fill="none" stroke="#000000" points="463,-529.7 463,-548.7 534,-548.7 534,-529.7 463,-529.7"/>
<text text-anchor="start" x="466" y="-535.8" font-family="Helvetica,sans-Serif" font-size="11.00" fill="#000000">&lt; 6</text>
<polygon fill="#ffffff" stroke="transparent" points="534,-529.7 534,-548.7 571,-548.7 571,-529.7 534,-529.7"/>
<polygon fill="none" stroke="#000000" points="534,-529.7 534,-548.7 571,-548.7 571,-529.7 534,-529.7"/>
<text text-anchor="start" x="561.8862" y="-535.8" font-family="Helvetica,sans-Serif" font-size="11.00" fill="#000000"> &#160;</text>
<polygon fill="#ffffff" stroke="transparent" points="571,-529.7 571,-548.7 609,-548.7 609,-529.7 571,-529.7"/>
<polygon fill="none" stroke="#000000" points="571,-529.7 571,-548.7 609,-548.7 609,-529.7 571,-529.7"/>
<text text-anchor="start" x="599.8862" y="-535.8" font-family="Helvetica,sans-Serif" font-size="11.00" fill="#000000"> &#160;</text>
</a>
</g>
</g>
<!-- email_addr_bean_rel&#45;&gt;users -->
<g id="edge8" class="edge">
<title>email_addr_bean_rel:w&#45;&gt;users:e</title>
<path fill="none" stroke="#000000" d="M448.4445,-559.9043C422.69,-568.4205 417.9952,-598.7 384,-598.7"/>
<polygon fill="#000000" stroke="#000000" points="455.0902,-558.8979 463.5391,-561.2594 459.0451,-558.299 463,-557.7 463,-557.7 463,-557.7 459.0451,-558.299 462.4609,-554.1406 455.0902,-558.8979 455.0902,-558.8979"/>
<ellipse fill="none" stroke="#000000" cx="451.9263" cy="-559.3771" rx="3.2" ry="3.2"/>
</g>
<!-- emails_beans -->
<g id="node8" class="node">
<title>emails_beans</title>
<g id="a_node8"><a xlink:href="../../tables/emails_beans.html" xlink:title="emails_beans" target="_top">
<polygon fill="#ffffff" stroke="transparent" points="481,-448.2 481,-509.2 591,-509.2 591,-448.2 481,-448.2"/>
<polygon fill="#f5f5f5" stroke="transparent" points="481,-485.7 481,-508.7 591,-508.7 591,-485.7 481,-485.7"/>
<polygon fill="none" stroke="#000000" points="481,-485.7 481,-508.7 591,-508.7 591,-485.7 481,-485.7"/>
<text text-anchor="start" x="485.576" y="-494.8" font-family="Helvetica,sans-Serif" font-weight="bold" font-size="11.00" fill="#000000">emails_beans</text>
<text text-anchor="start" x="556.5219" y="-493.8" font-family="Helvetica,sans-Serif" font-size="11.00" fill="#000000">[table]</text>
<polygon fill="none" stroke="#000000" points="481,-466.7 481,-485.7 591,-485.7 591,-466.7 481,-466.7"/>
<text text-anchor="start" x="484" y="-472.8" font-family="Helvetica,sans-Serif" font-size="11.00" fill="#000000">...</text>
<polygon fill="#ffffff" stroke="transparent" points="481,-447.7 481,-466.7 537,-466.7 537,-447.7 481,-447.7"/>
<polygon fill="none" stroke="#000000" points="481,-447.7 481,-466.7 537,-466.7 537,-447.7 481,-447.7"/>
<text text-anchor="start" x="484" y="-453.8" font-family="Helvetica,sans-Serif" font-size="11.00" fill="#000000">&lt; 14</text>
<polygon fill="#ffffff" stroke="transparent" points="537,-447.7 537,-466.7 564,-466.7 564,-447.7 537,-447.7"/>
<polygon fill="none" stroke="#000000" points="537,-447.7 537,-466.7 564,-466.7 564,-447.7 537,-447.7"/>
<text text-anchor="start" x="554.8862" y="-453.8" font-family="Helvetica,sans-Serif" font-size="11.00" fill="#000000"> &#160;</text>
<polygon fill="#ffffff" stroke="transparent" points="564,-447.7 564,-466.7 591,-466.7 591,-447.7 564,-447.7"/>
<polygon fill="none" stroke="#000000" points="564,-447.7 564,-466.7 591,-466.7 591,-447.7 564,-447.7"/>
<text text-anchor="start" x="581.8862" y="-453.8" font-family="Helvetica,sans-Serif" font-size="11.00" fill="#000000"> &#160;</text>
</a>
</g>
</g>
<!-- emails_beans&#45;&gt;users -->
<g id="edge9" class="edge">
<title>emails_beans:w&#45;&gt;users:e</title>
<path fill="none" stroke="#000000" d="M466.6207,-477.4383C447.3909,-482.7459 441.642,-499.6088 425,-519.7 399.7657,-550.1643 423.5581,-598.7 384,-598.7"/>
<polygon fill="#000000" stroke="#000000" points="473.0578,-476.6602 481.4321,-479.274 477.0289,-476.1801 481,-475.7 481,-475.7 481,-475.7 477.0289,-476.1801 480.5679,-472.126 473.0578,-476.6602 473.0578,-476.6602"/>
<ellipse fill="none" stroke="#000000" cx="469.881" cy="-477.0442" rx="3.2" ry="3.2"/>
</g>
<!-- meetings_users -->
<g id="node9" class="node">
<title>meetings_users</title>
<g id="a_node9"><a xlink:href="../../tables/meetings_users.html" xlink:title="meetings_users" target="_top">
<polygon fill="#ffffff" stroke="transparent" points="476,-366.2 476,-427.2 596,-427.2 596,-366.2 476,-366.2"/>
<polygon fill="#f5f5f5" stroke="transparent" points="476,-403.7 476,-426.7 596,-426.7 596,-403.7 476,-403.7"/>
<polygon fill="none" stroke="#000000" points="476,-403.7 476,-426.7 596,-426.7 596,-403.7 476,-403.7"/>
<text text-anchor="start" x="480.6871" y="-412.8" font-family="Helvetica,sans-Serif" font-weight="bold" font-size="11.00" fill="#000000">meetings_users</text>
<text text-anchor="start" x="561.5219" y="-411.8" font-family="Helvetica,sans-Serif" font-size="11.00" fill="#000000">[table]</text>
<polygon fill="none" stroke="#000000" points="476,-384.7 476,-403.7 596,-403.7 596,-384.7 476,-384.7"/>
<text text-anchor="start" x="479" y="-390.8" font-family="Helvetica,sans-Serif" font-size="11.00" fill="#000000">...</text>
<polygon fill="#ffffff" stroke="transparent" points="476,-365.7 476,-384.7 534,-384.7 534,-365.7 476,-365.7"/>
<polygon fill="none" stroke="#000000" points="476,-365.7 476,-384.7 534,-384.7 534,-365.7 476,-365.7"/>
<text text-anchor="start" x="479" y="-371.8" font-family="Helvetica,sans-Serif" font-size="11.00" fill="#000000">&lt; 2</text>
<polygon fill="#ffffff" stroke="transparent" points="534,-365.7 534,-384.7 565,-384.7 565,-365.7 534,-365.7"/>
<polygon fill="none" stroke="#000000" points="534,-365.7 534,-384.7 565,-384.7 565,-365.7 534,-365.7"/>
<text text-anchor="start" x="555.8862" y="-371.8" font-family="Helvetica,sans-Serif" font-size="11.00" fill="#000000"> &#160;</text>
<polygon fill="#ffffff" stroke="transparent" points="565,-365.7 565,-384.7 596,-384.7 596,-365.7 565,-365.7"/>
<polygon fill="none" stroke="#000000" points="565,-365.7 565,-384.7 596,-384.7 596,-365.7 565,-365.7"/>
<text text-anchor="start" x="586.8862" y="-371.8" font-family="Helvetica,sans-Serif" font-size="11.00" fill="#000000"> &#160;</text>
</a>
</g>
</g>
<!-- meetings_users&#45;&gt;users -->
<g id="edge10" class="edge">
<title>meetings_users:w&#45;&gt;users:e</title>
<path fill="none" stroke="#000000" d="M461.5268,-395.5791C443.705,-400.8969 437.7996,-417.0166 425,-437.7 386.144,-500.489 457.8393,-598.7 384,-598.7"/>
<polygon fill="#000000" stroke="#000000" points="468.0666,-394.7301 476.4635,-397.27 472.0333,-394.215 476,-393.7 476,-393.7 476,-393.7 472.0333,-394.215 475.5365,-390.13 468.0666,-394.7301 468.0666,-394.7301"/>
<ellipse fill="none" stroke="#000000" cx="464.8932" cy="-395.1421" rx="3.2" ry="3.2"/>
</g>
<!-- project_users_1_c -->
<g id="node10" class="node">
<title>project_users_1_c</title>
<g id="a_node10"><a xlink:href="../../tables/project_users_1_c.html" xlink:title="project_users_1_c" target="_top">
<polygon fill="#ffffff" stroke="transparent" points="470,-284.2 470,-345.2 602,-345.2 602,-284.2 470,-284.2"/>
<polygon fill="#f5f5f5" stroke="transparent" points="470,-321.7 470,-344.7 602,-344.7 602,-321.7 470,-321.7"/>
<polygon fill="none" stroke="#000000" points="470,-321.7 470,-344.7 602,-344.7 602,-321.7 470,-321.7"/>
<text text-anchor="start" x="474.5722" y="-330.8" font-family="Helvetica,sans-Serif" font-weight="bold" font-size="11.00" fill="#000000">project_users_1_c</text>
<text text-anchor="start" x="567.5219" y="-329.8" font-family="Helvetica,sans-Serif" font-size="11.00" fill="#000000">[table]</text>
<polygon fill="none" stroke="#000000" points="470,-302.7 470,-321.7 602,-321.7 602,-302.7 470,-302.7"/>
<text text-anchor="start" x="473" y="-308.8" font-family="Helvetica,sans-Serif" font-size="11.00" fill="#000000">...</text>
<polygon fill="#ffffff" stroke="transparent" points="470,-283.7 470,-302.7 534,-302.7 534,-283.7 470,-283.7"/>
<polygon fill="none" stroke="#000000" points="470,-283.7 470,-302.7 534,-302.7 534,-283.7 470,-283.7"/>
<text text-anchor="start" x="473" y="-289.8" font-family="Helvetica,sans-Serif" font-size="11.00" fill="#000000">&lt; 2</text>
<polygon fill="#ffffff" stroke="transparent" points="534,-283.7 534,-302.7 568,-302.7 568,-283.7 534,-283.7"/>
<polygon fill="none" stroke="#000000" points="534,-283.7 534,-302.7 568,-302.7 568,-283.7 534,-283.7"/>
<text text-anchor="start" x="558.8862" y="-289.8" font-family="Helvetica,sans-Serif" font-size="11.00" fill="#000000"> &#160;</text>
<polygon fill="#ffffff" stroke="transparent" points="568,-283.7 568,-302.7 602,-302.7 602,-283.7 568,-283.7"/>
<polygon fill="none" stroke="#000000" points="568,-283.7 568,-302.7 602,-302.7 602,-283.7 568,-283.7"/>
<text text-anchor="start" x="592.8862" y="-289.8" font-family="Helvetica,sans-Serif" font-size="11.00" fill="#000000"> &#160;</text>
</a>
</g>
</g>
<!-- project_users_1_c&#45;&gt;users -->
<g id="edge11" class="edge">
<title>project_users_1_c:w&#45;&gt;users:e</title>
<path fill="none" stroke="#000000" d="M455.639,-313.9639C440.0098,-319.7355 435.3304,-335.9484 425,-355.7 399.6196,-404.2268 438.7632,-598.7 384,-598.7"/>
<polygon fill="#000000" stroke="#000000" points="462.0976,-312.9458 470.5606,-315.2561 466.0488,-312.3229 470,-311.7 470,-311.7 470,-311.7 466.0488,-312.3229 469.4394,-308.1439 462.0976,-312.9458 462.0976,-312.9458"/>
<ellipse fill="none" stroke="#000000" cx="458.9366" cy="-313.4441" rx="3.2" ry="3.2"/>
</g>
<!-- prospect_lists_prospects -->
<g id="node11" class="node">
<title>prospect_lists_prospects</title>
<g id="a_node11"><a xlink:href="../../tables/prospect_lists_prospects.html" xlink:title="prospect_lists_prospects" target="_top">
<polygon fill="#ffffff" stroke="transparent" points="454,-202.2 454,-263.2 618,-263.2 618,-202.2 454,-202.2"/>
<polygon fill="#f5f5f5" stroke="transparent" points="454,-239.7 454,-262.7 618,-262.7 618,-239.7 454,-239.7"/>
<polygon fill="none" stroke="#000000" points="454,-239.7 454,-262.7 618,-262.7 618,-239.7 454,-239.7"/>
<text text-anchor="start" x="458.9874" y="-248.8" font-family="Helvetica,sans-Serif" font-weight="bold" font-size="11.00" fill="#000000">prospect_lists_prospects</text>
<text text-anchor="start" x="583.5219" y="-247.8" font-family="Helvetica,sans-Serif" font-size="11.00" fill="#000000">[table]</text>
<polygon fill="none" stroke="#000000" points="454,-220.7 454,-239.7 618,-239.7 618,-220.7 454,-220.7"/>
<text text-anchor="start" x="457" y="-226.8" font-family="Helvetica,sans-Serif" font-size="11.00" fill="#000000">...</text>
<polygon fill="#ffffff" stroke="transparent" points="454,-201.7 454,-220.7 534,-220.7 534,-201.7 454,-201.7"/>
<polygon fill="none" stroke="#000000" points="454,-201.7 454,-220.7 534,-220.7 534,-201.7 454,-201.7"/>
<text text-anchor="start" x="457" y="-207.8" font-family="Helvetica,sans-Serif" font-size="11.00" fill="#000000">&lt; 6</text>
<polygon fill="#ffffff" stroke="transparent" points="534,-201.7 534,-220.7 576,-220.7 576,-201.7 534,-201.7"/>
<polygon fill="none" stroke="#000000" points="534,-201.7 534,-220.7 576,-220.7 576,-201.7 534,-201.7"/>
<text text-anchor="start" x="566.8862" y="-207.8" font-family="Helvetica,sans-Serif" font-size="11.00" fill="#000000"> &#160;</text>
<polygon fill="#ffffff" stroke="transparent" points="576,-201.7 576,-220.7 618,-220.7 618,-201.7 576,-201.7"/>
<polygon fill="none" stroke="#000000" points="576,-201.7 576,-220.7 618,-220.7 618,-201.7 576,-201.7"/>
<text text-anchor="start" x="608.8862" y="-207.8" font-family="Helvetica,sans-Serif" font-size="11.00" fill="#000000"> &#160;</text>
</a>
</g>
</g>
<!-- prospect_lists_prospects&#45;&gt;users -->
<g id="edge12" class="edge">
<title>prospect_lists_prospects:w&#45;&gt;users:e</title>
<path fill="none" stroke="#000000" d="M440.0133,-234.1011C382.2824,-275.7335 462.083,-598.7 384,-598.7"/>
<polygon fill="#000000" stroke="#000000" points="446.3689,-232.1013 455.0806,-233.134 450.1844,-230.9006 454,-229.7 454,-229.7 454,-229.7 450.1844,-230.9006 452.9194,-226.266 446.3689,-232.1013 446.3689,-232.1013"/>
<ellipse fill="none" stroke="#000000" cx="443.3164" cy="-233.0618" rx="3.2" ry="3.2"/>
</g>
<!-- roles_users -->
<g id="node12" class="node">
<title>roles_users</title>
<g id="a_node12"><a xlink:href="../../tables/roles_users.html" xlink:title="roles_users" target="_top">
<polygon fill="#ffffff" stroke="transparent" points="486.5,-120.2 486.5,-181.2 585.5,-181.2 585.5,-120.2 486.5,-120.2"/>
<polygon fill="#f5f5f5" stroke="transparent" points="487,-157.7 487,-180.7 586,-180.7 586,-157.7 487,-157.7"/>
<polygon fill="none" stroke="#000000" points="487,-157.7 487,-180.7 586,-180.7 586,-157.7 487,-157.7"/>
<text text-anchor="start" x="491.5804" y="-166.8" font-family="Helvetica,sans-Serif" font-weight="bold" font-size="11.00" fill="#000000">roles_users</text>
<text text-anchor="start" x="551.5219" y="-165.8" font-family="Helvetica,sans-Serif" font-size="11.00" fill="#000000">[table]</text>
<polygon fill="none" stroke="#000000" points="487,-138.7 487,-157.7 586,-157.7 586,-138.7 487,-138.7"/>
<text text-anchor="start" x="490" y="-144.8" font-family="Helvetica,sans-Serif" font-size="11.00" fill="#000000">...</text>
<polygon fill="#ffffff" stroke="transparent" points="487,-119.7 487,-138.7 535,-138.7 535,-119.7 487,-119.7"/>
<polygon fill="none" stroke="#000000" points="487,-119.7 487,-138.7 535,-138.7 535,-119.7 487,-119.7"/>
<text text-anchor="start" x="490" y="-125.8" font-family="Helvetica,sans-Serif" font-size="11.00" fill="#000000">&lt; 2</text>
<polygon fill="#ffffff" stroke="transparent" points="535,-119.7 535,-138.7 560,-138.7 560,-119.7 535,-119.7"/>
<polygon fill="none" stroke="#000000" points="535,-119.7 535,-138.7 560,-138.7 560,-119.7 535,-119.7"/>
<text text-anchor="start" x="550.8862" y="-125.8" font-family="Helvetica,sans-Serif" font-size="11.00" fill="#000000"> &#160;</text>
<polygon fill="#ffffff" stroke="transparent" points="560,-119.7 560,-138.7 586,-138.7 586,-119.7 560,-119.7"/>
<polygon fill="none" stroke="#000000" points="560,-119.7 560,-138.7 586,-138.7 586,-119.7 560,-119.7"/>
<text text-anchor="start" x="576.8862" y="-125.8" font-family="Helvetica,sans-Serif" font-size="11.00" fill="#000000"> &#160;</text>
</a>
</g>
</g>
<!-- roles_users&#45;&gt;users -->
<g id="edge13" class="edge">
<title>roles_users:w&#45;&gt;users:e</title>
<path fill="none" stroke="#000000" d="M472.3858,-148.8369C449.4696,-152.8087 439.2725,-167.1725 425,-191.7 379.2813,-270.2685 474.9022,-598.7 384,-598.7"/>
<polygon fill="#000000" stroke="#000000" points="479.0241,-148.3205 487.2792,-151.2892 483.012,-148.0103 487,-147.7 487,-147.7 487,-147.7 483.012,-148.0103 486.7208,-144.1108 479.0241,-148.3205 479.0241,-148.3205"/>
<ellipse fill="none" stroke="#000000" cx="475.8337" cy="-148.5687" rx="3.2" ry="3.2"/>
</g>
<!-- securitygroups_users -->
<g id="node13" class="node">
<title>securitygroups_users</title>
<g id="a_node13"><a xlink:href="../../tables/securitygroups_users.html" xlink:title="securitygroups_users" target="_top">
<polygon fill="#ffffff" stroke="transparent" points="462.5,-38.2 462.5,-99.2 609.5,-99.2 609.5,-38.2 462.5,-38.2"/>
<polygon fill="#f5f5f5" stroke="transparent" points="463,-75.7 463,-98.7 610,-98.7 610,-75.7 463,-75.7"/>
<polygon fill="none" stroke="#000000" points="463,-75.7 463,-98.7 610,-98.7 610,-75.7 463,-75.7"/>
<text text-anchor="start" x="467.7412" y="-84.8" font-family="Helvetica,sans-Serif" font-weight="bold" font-size="11.00" fill="#000000">securitygroups_users</text>
<text text-anchor="start" x="575.5219" y="-83.8" font-family="Helvetica,sans-Serif" font-size="11.00" fill="#000000">[table]</text>
<polygon fill="none" stroke="#000000" points="463,-56.7 463,-75.7 610,-75.7 610,-56.7 463,-56.7"/>
<text text-anchor="start" x="466" y="-62.8" font-family="Helvetica,sans-Serif" font-size="11.00" fill="#000000">...</text>
<polygon fill="#ffffff" stroke="transparent" points="463,-37.7 463,-56.7 535,-56.7 535,-37.7 463,-37.7"/>
<polygon fill="none" stroke="#000000" points="463,-37.7 463,-56.7 535,-56.7 535,-37.7 463,-37.7"/>
<text text-anchor="start" x="466" y="-43.8" font-family="Helvetica,sans-Serif" font-size="11.00" fill="#000000">&lt; 2</text>
<polygon fill="#ffffff" stroke="transparent" points="535,-37.7 535,-56.7 572,-56.7 572,-37.7 535,-37.7"/>
<polygon fill="none" stroke="#000000" points="535,-37.7 535,-56.7 572,-56.7 572,-37.7 535,-37.7"/>
<text text-anchor="start" x="562.8862" y="-43.8" font-family="Helvetica,sans-Serif" font-size="11.00" fill="#000000"> &#160;</text>
<polygon fill="#ffffff" stroke="transparent" points="572,-37.7 572,-56.7 610,-56.7 610,-37.7 572,-37.7"/>
<polygon fill="none" stroke="#000000" points="572,-37.7 572,-56.7 610,-56.7 610,-37.7 572,-37.7"/>
<text text-anchor="start" x="600.8862" y="-43.8" font-family="Helvetica,sans-Serif" font-size="11.00" fill="#000000"> &#160;</text>
</a>
</g>
</g>
<!-- securitygroups_users&#45;&gt;users -->
<g id="edge14" class="edge">
<title>securitygroups_users:w&#45;&gt;users:e</title>
<path fill="none" stroke="#000000" d="M448.719,-68.6153C435.7845,-75.0311 432.7457,-91.2772 425,-109.7 403.8677,-159.9622 438.524,-598.7 384,-598.7"/>
<polygon fill="#000000" stroke="#000000" points="455.1617,-67.3001 463.7201,-69.2273 459.0808,-66.5001 463,-65.7 463,-65.7 463,-65.7 459.0808,-66.5001 462.2799,-62.1727 455.1617,-67.3001 455.1617,-67.3001"/>
<ellipse fill="none" stroke="#000000" cx="452.0263" cy="-67.9402" rx="3.2" ry="3.2"/>
</g>
</g>
</svg>
