<?xml version="1.0" encoding="UTF-8" standalone="no"?>
<!DOCTYPE svg PUBLIC "-//W3C//DTD SVG 1.1//EN"
 "http://www.w3.org/Graphics/SVG/1.1/DTD/svg11.dtd">
<!-- Generated by graphviz version 2.40.1 (20161225.0304)
 -->
<!-- Title: oneDegreeRelationshipsDiagram Pages: 1 -->
<svg width="829pt" height="329pt"
 viewBox="0.00 0.00 829.00 328.70" xmlns="http://www.w3.org/2000/svg" xmlns:xlink="http://www.w3.org/1999/xlink">
<g id="graph0" class="graph" transform="scale(1 1) rotate(0) translate(4 324.7)">
<title>oneDegreeRelationshipsDiagram</title>
<polygon fill="#ffffff" stroke="transparent" points="-4,4 -4,-324.7 825,-324.7 825,4 -4,4"/>
<text text-anchor="middle" x="72.4936" y="-7.3" font-family="Helvetica,sans-Serif" font-size="11.00" fill="#000000">Generated by SchemaSpy</text>
<!-- am_projecttemplates -->
<g id="node1" class="node">
<title>am_projecttemplates</title>
<g id="a_node1"><a xlink:href="../../tables/am_projecttemplates.html" xlink:title="am_projecttemplates" target="_top">
<polygon fill="#ffffff" stroke="transparent" points="273,-159.2 273,-308.2 460,-308.2 460,-159.2 273,-159.2"/>
<polygon fill="#f5f5f5" stroke="transparent" points="273.5,-284.7 273.5,-307.7 460.5,-307.7 460.5,-284.7 273.5,-284.7"/>
<polygon fill="none" stroke="#000000" points="273.5,-284.7 273.5,-307.7 460.5,-307.7 460.5,-284.7 273.5,-284.7"/>
<text text-anchor="start" x="278.5" y="-293.8" font-family="Helvetica,sans-Serif" font-weight="bold" font-size="11.00" fill="#000000">am_projecttemplates</text>
<text text-anchor="start" x="425.5437" y="-292.8" font-family="Helvetica,sans-Serif" font-size="11.00" fill="#000000">[table]</text>
<polygon fill="none" stroke="#000000" points="273.5,-262.7 273.5,-284.7 460.5,-284.7 460.5,-262.7 273.5,-262.7"/>
<image xlink:href="../../images/primaryKeys.png" width="11px" height="12px" preserveAspectRatio="xMinYMin meet" x="278.5" y="-279.7"/>
<text text-anchor="start" x="293.5" y="-269.8" font-family="Helvetica,sans-Serif" font-size="11.00" fill="#000000">id</text>
<polygon fill="#c0c0c0" stroke="transparent" points="273.5,-240.7 273.5,-262.7 460.5,-262.7 460.5,-240.7 273.5,-240.7"/>
<polygon fill="none" stroke="#000000" points="273.5,-240.7 273.5,-262.7 460.5,-262.7 460.5,-240.7 273.5,-240.7"/>
<image xlink:href="../../images/foreignKeys.png" width="11px" height="12px" preserveAspectRatio="xMinYMin meet" x="278.5" y="-257.7"/>
<text text-anchor="start" x="293.5" y="-247.8" font-family="Helvetica,sans-Serif" font-size="11.00" fill="#000000">modified_user_id</text>
<polygon fill="#c0c0c0" stroke="transparent" points="273.5,-218.7 273.5,-240.7 460.5,-240.7 460.5,-218.7 273.5,-218.7"/>
<polygon fill="none" stroke="#000000" points="273.5,-218.7 273.5,-240.7 460.5,-240.7 460.5,-218.7 273.5,-218.7"/>
<image xlink:href="../../images/foreignKeys.png" width="11px" height="12px" preserveAspectRatio="xMinYMin meet" x="278.5" y="-235.7"/>
<text text-anchor="start" x="293.5" y="-225.8" font-family="Helvetica,sans-Serif" font-size="11.00" fill="#000000">created_by</text>
<polygon fill="#c0c0c0" stroke="transparent" points="273.5,-196.7 273.5,-218.7 460.5,-218.7 460.5,-196.7 273.5,-196.7"/>
<polygon fill="none" stroke="#000000" points="273.5,-196.7 273.5,-218.7 460.5,-218.7 460.5,-196.7 273.5,-196.7"/>
<image xlink:href="../../images/foreignKeys.png" width="11px" height="12px" preserveAspectRatio="xMinYMin meet" x="278.5" y="-213.7"/>
<text text-anchor="start" x="293.5" y="-203.8" font-family="Helvetica,sans-Serif" font-size="11.00" fill="#000000">assigned_user_id</text>
<polygon fill="none" stroke="#000000" points="273.5,-177.7 273.5,-196.7 460.5,-196.7 460.5,-177.7 273.5,-177.7"/>
<text text-anchor="start" x="276.5" y="-183.8" font-family="Helvetica,sans-Serif" font-size="11.00" fill="#000000">...</text>
<polygon fill="#ffffff" stroke="transparent" points="273.5,-158.7 273.5,-177.7 360.5,-177.7 360.5,-158.7 273.5,-158.7"/>
<polygon fill="none" stroke="#000000" points="273.5,-158.7 273.5,-177.7 360.5,-177.7 360.5,-158.7 273.5,-158.7"/>
<text text-anchor="start" x="276.5" y="-164.8" font-family="Helvetica,sans-Serif" font-size="11.00" fill="#000000">&lt; 3</text>
<polygon fill="#ffffff" stroke="transparent" points="360.5,-158.7 360.5,-177.7 405.5,-177.7 405.5,-158.7 360.5,-158.7"/>
<polygon fill="none" stroke="#000000" points="360.5,-158.7 360.5,-177.7 405.5,-177.7 405.5,-158.7 360.5,-158.7"/>
<text text-anchor="start" x="396.3862" y="-164.8" font-family="Helvetica,sans-Serif" font-size="11.00" fill="#000000"> &#160;</text>
<polygon fill="#ffffff" stroke="transparent" points="405.5,-158.7 405.5,-177.7 460.5,-177.7 460.5,-158.7 405.5,-158.7"/>
<polygon fill="none" stroke="#000000" points="405.5,-158.7 405.5,-177.7 460.5,-177.7 460.5,-158.7 405.5,-158.7"/>
<text text-anchor="start" x="441.9053" y="-164.8" font-family="Helvetica,sans-Serif" font-size="11.00" fill="#000000">5 &gt;</text>
</a>
</g>
</g>
<!-- users -->
<g id="node2" class="node">
<title>users</title>
<g id="a_node2"><a xlink:href="../../tables/users.html" xlink:title="users" target="_top">
<polygon fill="#ffffff" stroke="transparent" points="8,-38.2 8,-253.2 224,-253.2 224,-38.2 8,-38.2"/>
<polygon fill="#f5f5f5" stroke="transparent" points="8,-229.7 8,-252.7 224,-252.7 224,-229.7 8,-229.7"/>
<polygon fill="none" stroke="#000000" points="8,-229.7 8,-252.7 224,-252.7 224,-229.7 8,-229.7"/>
<text text-anchor="start" x="13" y="-238.8" font-family="Helvetica,sans-Serif" font-weight="bold" font-size="11.00" fill="#000000">users</text>
<text text-anchor="start" x="189.0437" y="-237.8" font-family="Helvetica,sans-Serif" font-size="11.00" fill="#000000">[table]</text>
<polygon fill="none" stroke="#000000" points="8,-207.7 8,-229.7 224,-229.7 224,-207.7 8,-207.7"/>
<image xlink:href="../../images/primaryKeys.png" width="11px" height="12px" preserveAspectRatio="xMinYMin meet" x="13" y="-224.7"/>
<text text-anchor="start" x="28" y="-214.8" font-family="Helvetica,sans-Serif" font-size="11.00" fill="#000000">id</text>
<polygon fill="#ffffff" stroke="transparent" points="8,-185.7 8,-207.7 224,-207.7 224,-185.7 8,-185.7"/>
<polygon fill="none" stroke="#000000" points="8,-185.7 8,-207.7 224,-207.7 224,-185.7 8,-185.7"/>
<text text-anchor="start" x="28" y="-192.8" font-family="Helvetica,sans-Serif" font-size="11.00" fill="#000000">user_name</text>
<polygon fill="#ffffff" stroke="transparent" points="8,-163.7 8,-185.7 224,-185.7 224,-163.7 8,-163.7"/>
<polygon fill="none" stroke="#000000" points="8,-163.7 8,-185.7 224,-185.7 224,-163.7 8,-163.7"/>
<text text-anchor="start" x="28" y="-170.8" font-family="Helvetica,sans-Serif" font-size="11.00" fill="#000000">first_name</text>
<polygon fill="#ffffff" stroke="transparent" points="8,-141.7 8,-163.7 224,-163.7 224,-141.7 8,-141.7"/>
<polygon fill="none" stroke="#000000" points="8,-141.7 8,-163.7 224,-163.7 224,-141.7 8,-141.7"/>
<text text-anchor="start" x="28" y="-148.8" font-family="Helvetica,sans-Serif" font-size="11.00" fill="#000000">last_name</text>
<polygon fill="#ffffff" stroke="transparent" points="8,-119.7 8,-141.7 224,-141.7 224,-119.7 8,-119.7"/>
<polygon fill="none" stroke="#000000" points="8,-119.7 8,-141.7 224,-141.7 224,-119.7 8,-119.7"/>
<text text-anchor="start" x="28" y="-126.8" font-family="Helvetica,sans-Serif" font-size="11.00" fill="#000000">status</text>
<polygon fill="#c0c0c0" stroke="transparent" points="8,-97.7 8,-119.7 224,-119.7 224,-97.7 8,-97.7"/>
<polygon fill="none" stroke="#000000" points="8,-97.7 8,-119.7 224,-119.7 224,-97.7 8,-97.7"/>
<image xlink:href="../../images/foreignKeys.png" width="11px" height="12px" preserveAspectRatio="xMinYMin meet" x="13" y="-114.7"/>
<text text-anchor="start" x="28" y="-104.8" font-family="Helvetica,sans-Serif" font-size="11.00" fill="#000000">reports_to_id</text>
<polygon fill="#ffffff" stroke="transparent" points="8,-75.7 8,-97.7 224,-97.7 224,-75.7 8,-75.7"/>
<polygon fill="none" stroke="#000000" points="8,-75.7 8,-97.7 224,-97.7 224,-75.7 8,-75.7"/>
<text text-anchor="start" x="28" y="-82.8" font-family="Helvetica,sans-Serif" font-size="11.00" fill="#000000">is_group</text>
<polygon fill="none" stroke="#000000" points="8,-56.7 8,-75.7 224,-75.7 224,-56.7 8,-56.7"/>
<text text-anchor="start" x="11" y="-62.8" font-family="Helvetica,sans-Serif" font-size="11.00" fill="#000000">...</text>
<polygon fill="#ffffff" stroke="transparent" points="8,-37.7 8,-56.7 104,-56.7 104,-37.7 8,-37.7"/>
<polygon fill="none" stroke="#000000" points="8,-37.7 8,-56.7 104,-56.7 104,-37.7 8,-37.7"/>
<text text-anchor="start" x="11" y="-43.8" font-family="Helvetica,sans-Serif" font-size="11.00" fill="#000000">&lt; 2</text>
<polygon fill="#ffffff" stroke="transparent" points="104,-37.7 104,-56.7 153,-56.7 153,-37.7 104,-37.7"/>
<polygon fill="none" stroke="#000000" points="104,-37.7 104,-56.7 153,-56.7 153,-37.7 104,-37.7"/>
<text text-anchor="start" x="143.8862" y="-43.8" font-family="Helvetica,sans-Serif" font-size="11.00" fill="#000000"> &#160;</text>
<polygon fill="#ffffff" stroke="transparent" points="153,-37.7 153,-56.7 224,-56.7 224,-37.7 153,-37.7"/>
<polygon fill="none" stroke="#000000" points="153,-37.7 153,-56.7 224,-56.7 224,-37.7 153,-37.7"/>
<text text-anchor="start" x="193.1755" y="-43.8" font-family="Helvetica,sans-Serif" font-size="11.00" fill="#000000">214 &gt;</text>
</a>
</g>
</g>
<!-- am_projecttemplates&#45;&gt;users -->
<g id="edge1" class="edge">
<title>am_projecttemplates:w&#45;&gt;users:e</title>
<path fill="none" stroke="#000000" d="M259.0598,-209.5164C247.4771,-212.6407 240.7264,-218.7 224,-218.7"/>
<polygon fill="#000000" stroke="#000000" points="265.5626,-208.6985 273.9493,-211.2719 269.5313,-208.1992 273.5,-207.7 273.5,-207.7 273.5,-207.7 269.5313,-208.1992 273.0507,-204.1281 265.5626,-208.6985 265.5626,-208.6985"/>
<ellipse fill="none" stroke="#000000" cx="262.3876" cy="-209.0979" rx="3.2" ry="3.2"/>
</g>
<!-- am_projecttemplates&#45;&gt;users -->
<g id="edge2" class="edge">
<title>am_projecttemplates:w&#45;&gt;users:e</title>
<path fill="none" stroke="#000000" d="M259.0598,-227.8836C247.4771,-224.7593 240.7264,-218.7 224,-218.7"/>
<polygon fill="#000000" stroke="#000000" points="265.5626,-228.7015 273.0507,-233.2719 269.5313,-229.2008 273.5,-229.7 273.5,-229.7 273.5,-229.7 269.5313,-229.2008 273.9493,-226.1281 265.5626,-228.7015 265.5626,-228.7015"/>
<ellipse fill="none" stroke="#000000" cx="262.3876" cy="-228.3021" rx="3.2" ry="3.2"/>
</g>
<!-- am_projecttemplates&#45;&gt;users -->
<g id="edge3" class="edge">
<title>am_projecttemplates:w&#45;&gt;users:e</title>
<path fill="none" stroke="#000000" d="M259.4273,-247.3858C247.0607,-238.4408 244.4502,-218.7 224,-218.7"/>
<polygon fill="#000000" stroke="#000000" points="265.8513,-249.3552 272.4448,-255.1419 269.6757,-250.5276 273.5,-251.7 273.5,-251.7 273.5,-251.7 269.6757,-250.5276 274.5552,-248.2581 265.8513,-249.3552 265.8513,-249.3552"/>
<ellipse fill="none" stroke="#000000" cx="262.7919" cy="-248.4172" rx="3.2" ry="3.2"/>
</g>
<!-- am_projecttemplates_users_1_c -->
<g id="node3" class="node">
<title>am_projecttemplates_users_1_c</title>
<g id="a_node3"><a xlink:href="../../tables/am_projecttemplates_users_1_c.html" xlink:title="am_projecttemplates_users_1_c" target="_top">
<polygon fill="#ffffff" stroke="transparent" points="509,-160.7 509,-316.7 813,-316.7 813,-160.7 509,-160.7"/>
<polygon fill="#f5f5f5" stroke="transparent" points="511,-291.7 511,-314.7 811,-314.7 811,-291.7 511,-291.7"/>
<polygon fill="none" stroke="#000000" points="511,-291.7 511,-314.7 811,-314.7 811,-291.7 511,-291.7"/>
<text text-anchor="start" x="516" y="-300.8" font-family="Helvetica,sans-Serif" font-weight="bold" font-size="11.00" fill="#000000">am_projecttemplates_users_1_c</text>
<text text-anchor="start" x="776.0437" y="-299.8" font-family="Helvetica,sans-Serif" font-size="11.00" fill="#000000">[table]</text>
<polygon fill="none" stroke="#000000" points="511,-269.7 511,-291.7 745,-291.7 745,-269.7 511,-269.7"/>
<image xlink:href="../../images/primaryKeys.png" width="11px" height="12px" preserveAspectRatio="xMinYMin meet" x="516" y="-286.7"/>
<text text-anchor="start" x="531" y="-276.8" font-family="Helvetica,sans-Serif" font-size="11.00" fill="#000000">id</text>
<polygon fill="none" stroke="#000000" points="745,-269.7 745,-291.7 811,-291.7 811,-269.7 745,-269.7"/>
<text text-anchor="start" x="748" y="-277.4" font-family="Helvetica,sans-Serif" font-size="11.00" fill="#000000">varchar[36]</text>
<polygon fill="none" stroke="#000000" points="511,-247.7 511,-269.7 745,-269.7 745,-247.7 511,-247.7"/>
<text text-anchor="start" x="531" y="-254.8" font-family="Helvetica,sans-Serif" font-size="11.00" fill="#000000">date_modified</text>
<polygon fill="none" stroke="#000000" points="745,-247.7 745,-269.7 811,-269.7 811,-247.7 745,-247.7"/>
<text text-anchor="start" x="747.7401" y="-255.4" font-family="Helvetica,sans-Serif" font-size="11.00" fill="#000000">datetime[26]</text>
<polygon fill="none" stroke="#000000" points="511,-225.7 511,-247.7 745,-247.7 745,-225.7 511,-225.7"/>
<text text-anchor="start" x="531" y="-232.8" font-family="Helvetica,sans-Serif" font-size="11.00" fill="#000000">deleted</text>
<polygon fill="none" stroke="#000000" points="745,-225.7 745,-247.7 811,-247.7 811,-225.7 745,-225.7"/>
<text text-anchor="start" x="748" y="-233.4" font-family="Helvetica,sans-Serif" font-size="11.00" fill="#000000">bit[1]</text>
<polygon fill="#ffffff" stroke="transparent" points="511,-203.7 511,-225.7 745,-225.7 745,-203.7 511,-203.7"/>
<polygon fill="none" stroke="#000000" points="511,-203.7 511,-225.7 745,-225.7 745,-203.7 511,-203.7"/>
<image xlink:href="../../images/foreignKeys.png" width="11px" height="12px" preserveAspectRatio="xMinYMin meet" x="516" y="-220.7"/>
<text text-anchor="start" x="531" y="-210.8" font-family="Helvetica,sans-Serif" font-size="11.00" fill="#000000">am_projecttemplates_ida</text>
<polygon fill="none" stroke="#000000" points="745,-203.7 745,-225.7 811,-225.7 811,-203.7 745,-203.7"/>
<text text-anchor="start" x="748" y="-211.4" font-family="Helvetica,sans-Serif" font-size="11.00" fill="#000000">varchar[36]</text>
<polygon fill="#ffffff" stroke="transparent" points="511,-181.7 511,-203.7 745,-203.7 745,-181.7 511,-181.7"/>
<polygon fill="none" stroke="#000000" points="511,-181.7 511,-203.7 745,-203.7 745,-181.7 511,-181.7"/>
<image xlink:href="../../images/foreignKeys.png" width="11px" height="12px" preserveAspectRatio="xMinYMin meet" x="516" y="-198.7"/>
<text text-anchor="start" x="531" y="-188.8" font-family="Helvetica,sans-Serif" font-size="11.00" fill="#000000">users_idb</text>
<polygon fill="none" stroke="#000000" points="745,-181.7 745,-203.7 811,-203.7 811,-181.7 745,-181.7"/>
<text text-anchor="start" x="748" y="-189.4" font-family="Helvetica,sans-Serif" font-size="11.00" fill="#000000">varchar[36]</text>
<polygon fill="#ffffff" stroke="transparent" points="511,-162.7 511,-181.7 632,-181.7 632,-162.7 511,-162.7"/>
<polygon fill="none" stroke="#000000" points="511,-162.7 511,-181.7 632,-181.7 632,-162.7 511,-162.7"/>
<text text-anchor="start" x="514" y="-168.8" font-family="Helvetica,sans-Serif" font-size="11.00" fill="#000000">&lt; 2</text>
<polygon fill="#ffffff" stroke="transparent" points="632,-162.7 632,-181.7 745,-181.7 745,-162.7 632,-162.7"/>
<polygon fill="none" stroke="#000000" points="632,-162.7 632,-181.7 745,-181.7 745,-162.7 632,-162.7"/>
<text text-anchor="start" x="735.8862" y="-168.8" font-family="Helvetica,sans-Serif" font-size="11.00" fill="#000000"> &#160;</text>
<polygon fill="#ffffff" stroke="transparent" points="745,-162.7 745,-181.7 811,-181.7 811,-162.7 745,-162.7"/>
<polygon fill="none" stroke="#000000" points="745,-162.7 745,-181.7 811,-181.7 811,-162.7 745,-162.7"/>
<text text-anchor="start" x="792.4053" y="-168.8" font-family="Helvetica,sans-Serif" font-size="11.00" fill="#000000">0 &gt;</text>
<polygon fill="none" stroke="#000000" stroke-width="2" points="510,-161.7 510,-315.7 812,-315.7 812,-161.7 510,-161.7"/>
</a>
</g>
</g>
<!-- am_projecttemplates_users_1_c&#45;&gt;am_projecttemplates -->
<g id="edge4" class="edge">
<title>am_projecttemplates_users_1_c:w&#45;&gt;am_projecttemplates:e</title>
<path fill="none" stroke="#000000" d="M496.9165,-219.7303C481.4311,-233.9982 488.814,-273.7 460.5,-273.7"/>
<polygon fill="#000000" stroke="#000000" points="503.4661,-217.391 512.2109,-218.0902 507.2331,-216.0455 511,-214.7 511,-214.7 511,-214.7 507.2331,-216.0455 509.7891,-211.3098 503.4661,-217.391 503.4661,-217.391"/>
<ellipse fill="none" stroke="#000000" cx="500.4526" cy="-218.4674" rx="3.2" ry="3.2"/>
</g>
<!-- am_projecttemplates_users_1_c&#45;&gt;users -->
<g id="edge5" class="edge">
<title>am_projecttemplates_users_1_c:w&#45;&gt;users:e</title>
<path fill="none" stroke="#000000" d="M497.2625,-188.2113C486.1981,-178.7391 487.4917,-156.9053 468,-148.7 384.8453,-113.695 343.2753,-103.8333 265,-148.7 233.7194,-166.6297 260.0548,-218.7 224,-218.7"/>
<polygon fill="#000000" stroke="#000000" points="503.3956,-190.2153 509.8819,-196.122 507.1978,-191.4576 511,-192.7 511,-192.7 511,-192.7 507.1978,-191.4576 512.1181,-189.278 503.3956,-190.2153 503.3956,-190.2153"/>
<ellipse fill="none" stroke="#000000" cx="500.3539" cy="-189.2214" rx="3.2" ry="3.2"/>
</g>
</g>
</svg>
