<?xml version="1.0" encoding="UTF-8" standalone="no"?>
<!DOCTYPE svg PUBLIC "-//W3C//DTD SVG 1.1//EN"
 "http://www.w3.org/Graphics/SVG/1.1/DTD/svg11.dtd">
<!-- Generated by graphviz version 2.40.1 (20161225.0304)
 -->
<!-- Title: twoDegreesRelationshipsDiagram Pages: 1 -->
<svg width="1356pt" height="1407pt"
 viewBox="0.00 0.00 1355.98 1407.06" xmlns="http://www.w3.org/2000/svg" xmlns:xlink="http://www.w3.org/1999/xlink">
<g id="graph0" class="graph" transform="scale(1 1) rotate(0) translate(4 1403.0615)">
<title>twoDegreesRelationshipsDiagram</title>
<polygon fill="#ffffff" stroke="transparent" points="-4,4 -4,-1403.0615 1351.9814,-1403.0615 1351.9814,4 -4,4"/>
<text text-anchor="middle" x="72.4936" y="-7.3" font-family="Helvetica,sans-Serif" font-size="11.00" fill="#000000">Generated by SchemaSpy</text>
<!-- acl_roles_users -->
<g id="node1" class="node">
<title>acl_roles_users</title>
<g id="a_node1"><a xlink:href="../../tables/acl_roles_users.html" xlink:title="acl_roles_users" target="_top">
<polygon fill="#ffffff" stroke="transparent" points="639.9814,-1234.0615 639.9814,-1295.0615 759.9814,-1295.0615 759.9814,-1234.0615 639.9814,-1234.0615"/>
<polygon fill="#f5f5f5" stroke="transparent" points="639.9814,-1271.5615 639.9814,-1294.5615 759.9814,-1294.5615 759.9814,-1271.5615 639.9814,-1271.5615"/>
<polygon fill="none" stroke="#000000" points="639.9814,-1271.5615 639.9814,-1294.5615 759.9814,-1294.5615 759.9814,-1271.5615 639.9814,-1271.5615"/>
<text text-anchor="start" x="644.9765" y="-1280.6615" font-family="Helvetica,sans-Serif" font-weight="bold" font-size="11.00" fill="#000000">acl_roles_users</text>
<text text-anchor="start" x="725.5033" y="-1279.6615" font-family="Helvetica,sans-Serif" font-size="11.00" fill="#000000">[table]</text>
<polygon fill="none" stroke="#000000" points="639.9814,-1252.5615 639.9814,-1271.5615 759.9814,-1271.5615 759.9814,-1252.5615 639.9814,-1252.5615"/>
<text text-anchor="start" x="642.9814" y="-1258.6615" font-family="Helvetica,sans-Serif" font-size="11.00" fill="#000000">...</text>
<polygon fill="#ffffff" stroke="transparent" points="639.9814,-1233.5615 639.9814,-1252.5615 697.9814,-1252.5615 697.9814,-1233.5615 639.9814,-1233.5615"/>
<polygon fill="none" stroke="#000000" points="639.9814,-1233.5615 639.9814,-1252.5615 697.9814,-1252.5615 697.9814,-1233.5615 639.9814,-1233.5615"/>
<text text-anchor="start" x="642.9814" y="-1239.6615" font-family="Helvetica,sans-Serif" font-size="11.00" fill="#000000">&lt; 2</text>
<polygon fill="#ffffff" stroke="transparent" points="697.9814,-1233.5615 697.9814,-1252.5615 728.9814,-1252.5615 728.9814,-1233.5615 697.9814,-1233.5615"/>
<polygon fill="none" stroke="#000000" points="697.9814,-1233.5615 697.9814,-1252.5615 728.9814,-1252.5615 728.9814,-1233.5615 697.9814,-1233.5615"/>
<text text-anchor="start" x="719.8676" y="-1239.6615" font-family="Helvetica,sans-Serif" font-size="11.00" fill="#000000"> &#160;</text>
<polygon fill="#ffffff" stroke="transparent" points="728.9814,-1233.5615 728.9814,-1252.5615 759.9814,-1252.5615 759.9814,-1233.5615 728.9814,-1233.5615"/>
<polygon fill="none" stroke="#000000" points="728.9814,-1233.5615 728.9814,-1252.5615 759.9814,-1252.5615 759.9814,-1233.5615 728.9814,-1233.5615"/>
<text text-anchor="start" x="750.8676" y="-1239.6615" font-family="Helvetica,sans-Serif" font-size="11.00" fill="#000000"> &#160;</text>
</a>
</g>
</g>
<!-- users -->
<g id="node2" class="node">
<title>users</title>
<g id="a_node2"><a xlink:href="../../tables/users.html" xlink:title="users" target="_top">
<polygon fill="#ffffff" stroke="transparent" points="305.9814,-476.0615 305.9814,-691.0615 521.9814,-691.0615 521.9814,-476.0615 305.9814,-476.0615"/>
<polygon fill="#f5f5f5" stroke="transparent" points="305.9814,-667.5615 305.9814,-690.5615 521.9814,-690.5615 521.9814,-667.5615 305.9814,-667.5615"/>
<polygon fill="none" stroke="#000000" points="305.9814,-667.5615 305.9814,-690.5615 521.9814,-690.5615 521.9814,-667.5615 305.9814,-667.5615"/>
<text text-anchor="start" x="310.9814" y="-676.6615" font-family="Helvetica,sans-Serif" font-weight="bold" font-size="11.00" fill="#000000">users</text>
<text text-anchor="start" x="487.0251" y="-675.6615" font-family="Helvetica,sans-Serif" font-size="11.00" fill="#000000">[table]</text>
<polygon fill="none" stroke="#000000" points="305.9814,-645.5615 305.9814,-667.5615 521.9814,-667.5615 521.9814,-645.5615 305.9814,-645.5615"/>
<image xlink:href="../../images/primaryKeys.png" width="11px" height="12px" preserveAspectRatio="xMinYMin meet" x="310.981" y="-662.562"/>
<text text-anchor="start" x="325.9814" y="-652.6615" font-family="Helvetica,sans-Serif" font-size="11.00" fill="#000000">id</text>
<polygon fill="#ffffff" stroke="transparent" points="305.9814,-623.5615 305.9814,-645.5615 521.9814,-645.5615 521.9814,-623.5615 305.9814,-623.5615"/>
<polygon fill="none" stroke="#000000" points="305.9814,-623.5615 305.9814,-645.5615 521.9814,-645.5615 521.9814,-623.5615 305.9814,-623.5615"/>
<text text-anchor="start" x="325.9814" y="-630.6615" font-family="Helvetica,sans-Serif" font-size="11.00" fill="#000000">user_name</text>
<polygon fill="#ffffff" stroke="transparent" points="305.9814,-601.5615 305.9814,-623.5615 521.9814,-623.5615 521.9814,-601.5615 305.9814,-601.5615"/>
<polygon fill="none" stroke="#000000" points="305.9814,-601.5615 305.9814,-623.5615 521.9814,-623.5615 521.9814,-601.5615 305.9814,-601.5615"/>
<text text-anchor="start" x="325.9814" y="-608.6615" font-family="Helvetica,sans-Serif" font-size="11.00" fill="#000000">first_name</text>
<polygon fill="#ffffff" stroke="transparent" points="305.9814,-579.5615 305.9814,-601.5615 521.9814,-601.5615 521.9814,-579.5615 305.9814,-579.5615"/>
<polygon fill="none" stroke="#000000" points="305.9814,-579.5615 305.9814,-601.5615 521.9814,-601.5615 521.9814,-579.5615 305.9814,-579.5615"/>
<text text-anchor="start" x="325.9814" y="-586.6615" font-family="Helvetica,sans-Serif" font-size="11.00" fill="#000000">last_name</text>
<polygon fill="#ffffff" stroke="transparent" points="305.9814,-557.5615 305.9814,-579.5615 521.9814,-579.5615 521.9814,-557.5615 305.9814,-557.5615"/>
<polygon fill="none" stroke="#000000" points="305.9814,-557.5615 305.9814,-579.5615 521.9814,-579.5615 521.9814,-557.5615 305.9814,-557.5615"/>
<text text-anchor="start" x="325.9814" y="-564.6615" font-family="Helvetica,sans-Serif" font-size="11.00" fill="#000000">status</text>
<polygon fill="#c0c0c0" stroke="transparent" points="305.9814,-535.5615 305.9814,-557.5615 521.9814,-557.5615 521.9814,-535.5615 305.9814,-535.5615"/>
<polygon fill="none" stroke="#000000" points="305.9814,-535.5615 305.9814,-557.5615 521.9814,-557.5615 521.9814,-535.5615 305.9814,-535.5615"/>
<image xlink:href="../../images/foreignKeys.png" width="11px" height="12px" preserveAspectRatio="xMinYMin meet" x="310.981" y="-552.562"/>
<text text-anchor="start" x="325.9814" y="-542.6615" font-family="Helvetica,sans-Serif" font-size="11.00" fill="#000000">reports_to_id</text>
<polygon fill="#ffffff" stroke="transparent" points="305.9814,-513.5615 305.9814,-535.5615 521.9814,-535.5615 521.9814,-513.5615 305.9814,-513.5615"/>
<polygon fill="none" stroke="#000000" points="305.9814,-513.5615 305.9814,-535.5615 521.9814,-535.5615 521.9814,-513.5615 305.9814,-513.5615"/>
<text text-anchor="start" x="325.9814" y="-520.6615" font-family="Helvetica,sans-Serif" font-size="11.00" fill="#000000">is_group</text>
<polygon fill="none" stroke="#000000" points="305.9814,-494.5615 305.9814,-513.5615 521.9814,-513.5615 521.9814,-494.5615 305.9814,-494.5615"/>
<text text-anchor="start" x="308.9814" y="-500.6615" font-family="Helvetica,sans-Serif" font-size="11.00" fill="#000000">...</text>
<polygon fill="#ffffff" stroke="transparent" points="305.9814,-475.5615 305.9814,-494.5615 401.9814,-494.5615 401.9814,-475.5615 305.9814,-475.5615"/>
<polygon fill="none" stroke="#000000" points="305.9814,-475.5615 305.9814,-494.5615 401.9814,-494.5615 401.9814,-475.5615 305.9814,-475.5615"/>
<text text-anchor="start" x="308.9814" y="-481.6615" font-family="Helvetica,sans-Serif" font-size="11.00" fill="#000000">&lt; 2</text>
<polygon fill="#ffffff" stroke="transparent" points="401.9814,-475.5615 401.9814,-494.5615 450.9814,-494.5615 450.9814,-475.5615 401.9814,-475.5615"/>
<polygon fill="none" stroke="#000000" points="401.9814,-475.5615 401.9814,-494.5615 450.9814,-494.5615 450.9814,-475.5615 401.9814,-475.5615"/>
<text text-anchor="start" x="441.8676" y="-481.6615" font-family="Helvetica,sans-Serif" font-size="11.00" fill="#000000"> &#160;</text>
<polygon fill="#ffffff" stroke="transparent" points="450.9814,-475.5615 450.9814,-494.5615 521.9814,-494.5615 521.9814,-475.5615 450.9814,-475.5615"/>
<polygon fill="none" stroke="#000000" points="450.9814,-475.5615 450.9814,-494.5615 521.9814,-494.5615 521.9814,-475.5615 450.9814,-475.5615"/>
<text text-anchor="start" x="491.1569" y="-481.6615" font-family="Helvetica,sans-Serif" font-size="11.00" fill="#000000">214 &gt;</text>
</a>
</g>
</g>
<!-- acl_roles_users&#45;&gt;users -->
<g id="edge1" class="edge">
<title>acl_roles_users:w&#45;&gt;users:e</title>
<path fill="none" stroke="#000000" d="M625.4232,-1261.1576C596.954,-1259.3553 581.3729,-1250.8953 562.9814,-1223.5615 527.72,-1171.1555 585.1459,-656.5615 521.9814,-656.5615"/>
<polygon fill="#000000" stroke="#000000" points="631.9845,-1261.3396 639.8815,-1265.1601 635.9829,-1261.4506 639.9814,-1261.5615 639.9814,-1261.5615 639.9814,-1261.5615 635.9829,-1261.4506 640.0813,-1257.9629 631.9845,-1261.3396 631.9845,-1261.3396"/>
<ellipse fill="none" stroke="#000000" cx="628.7857" cy="-1261.2508" rx="3.2" ry="3.2"/>
</g>
<!-- campaign_log -->
<g id="node13" class="node">
<title>campaign_log</title>
<g id="a_node13"><a xlink:href="../../tables/campaign_log.html" xlink:title="campaign_log" target="_top">
<polygon fill="#ffffff" stroke="transparent" points="145.9814,-559.0615 145.9814,-620.0615 256.9814,-620.0615 256.9814,-559.0615 145.9814,-559.0615"/>
<polygon fill="#f5f5f5" stroke="transparent" points="146.4814,-596.5615 146.4814,-619.5615 257.4814,-619.5615 257.4814,-596.5615 146.4814,-596.5615"/>
<polygon fill="none" stroke="#000000" points="146.4814,-596.5615 146.4814,-619.5615 257.4814,-619.5615 257.4814,-596.5615 146.4814,-596.5615"/>
<text text-anchor="start" x="151.25" y="-605.6615" font-family="Helvetica,sans-Serif" font-weight="bold" font-size="11.00" fill="#000000">campaign_log</text>
<text text-anchor="start" x="223.0033" y="-604.6615" font-family="Helvetica,sans-Serif" font-size="11.00" fill="#000000">[table]</text>
<polygon fill="none" stroke="#000000" points="146.4814,-577.5615 146.4814,-596.5615 257.4814,-596.5615 257.4814,-577.5615 146.4814,-577.5615"/>
<text text-anchor="start" x="149.4814" y="-583.6615" font-family="Helvetica,sans-Serif" font-size="11.00" fill="#000000">...</text>
<polygon fill="#ffffff" stroke="transparent" points="146.4814,-558.5615 146.4814,-577.5615 195.4814,-577.5615 195.4814,-558.5615 146.4814,-558.5615"/>
<polygon fill="none" stroke="#000000" points="146.4814,-558.5615 146.4814,-577.5615 195.4814,-577.5615 195.4814,-558.5615 146.4814,-558.5615"/>
<text text-anchor="start" x="149.4814" y="-564.6615" font-family="Helvetica,sans-Serif" font-size="11.00" fill="#000000">&lt; 5</text>
<polygon fill="#ffffff" stroke="transparent" points="195.4814,-558.5615 195.4814,-577.5615 221.4814,-577.5615 221.4814,-558.5615 195.4814,-558.5615"/>
<polygon fill="none" stroke="#000000" points="195.4814,-558.5615 195.4814,-577.5615 221.4814,-577.5615 221.4814,-558.5615 195.4814,-558.5615"/>
<text text-anchor="start" x="212.3676" y="-564.6615" font-family="Helvetica,sans-Serif" font-size="11.00" fill="#000000"> &#160;</text>
<polygon fill="#ffffff" stroke="transparent" points="221.4814,-558.5615 221.4814,-577.5615 257.4814,-577.5615 257.4814,-558.5615 221.4814,-558.5615"/>
<polygon fill="none" stroke="#000000" points="221.4814,-558.5615 221.4814,-577.5615 257.4814,-577.5615 257.4814,-558.5615 221.4814,-558.5615"/>
<text text-anchor="start" x="238.8867" y="-564.6615" font-family="Helvetica,sans-Serif" font-size="11.00" fill="#000000">5 &gt;</text>
</a>
</g>
</g>
<!-- users&#45;&gt;campaign_log -->
<g id="edge40" class="edge">
<title>users:w&#45;&gt;campaign_log:e</title>
<path fill="none" stroke="#000000" d="M295.7264,-654.2325C273.3038,-642.0864 291.1906,-586.5615 257.4814,-586.5615"/>
<polygon fill="#000000" stroke="#000000" points="306.0872,-652.4837 304.3154,-660.285 302.7551,-659.9306 304.5269,-652.1293 306.0872,-652.4837"/>
<polyline fill="none" stroke="#000000" points="305.9814,-656.5615 302.0807,-655.6756 "/>
<ellipse fill="none" stroke="#000000" cx="298.9602" cy="-654.9669" rx="3.2" ry="3.2"/>
</g>
<!-- am_projecttemplates -->
<g id="node3" class="node">
<title>am_projecttemplates</title>
<g id="a_node3"><a xlink:href="../../tables/am_projecttemplates.html" xlink:title="am_projecttemplates" target="_top">
<polygon fill="#ffffff" stroke="transparent" points="570.9814,-902.5615 570.9814,-1212.5615 828.9814,-1212.5615 828.9814,-902.5615 570.9814,-902.5615"/>
<polygon fill="#f5f5f5" stroke="transparent" points="572.9814,-1187.5615 572.9814,-1210.5615 826.9814,-1210.5615 826.9814,-1187.5615 572.9814,-1187.5615"/>
<polygon fill="none" stroke="#000000" points="572.9814,-1187.5615 572.9814,-1210.5615 826.9814,-1210.5615 826.9814,-1187.5615 572.9814,-1187.5615"/>
<text text-anchor="start" x="577.9814" y="-1196.6615" font-family="Helvetica,sans-Serif" font-weight="bold" font-size="11.00" fill="#000000">am_projecttemplates</text>
<text text-anchor="start" x="792.0251" y="-1195.6615" font-family="Helvetica,sans-Serif" font-size="11.00" fill="#000000">[table]</text>
<polygon fill="none" stroke="#000000" points="572.9814,-1165.5615 572.9814,-1187.5615 759.9814,-1187.5615 759.9814,-1165.5615 572.9814,-1165.5615"/>
<image xlink:href="../../images/primaryKeys.png" width="11px" height="12px" preserveAspectRatio="xMinYMin meet" x="577.981" y="-1182.56"/>
<text text-anchor="start" x="592.9814" y="-1172.6615" font-family="Helvetica,sans-Serif" font-size="11.00" fill="#000000">id</text>
<polygon fill="none" stroke="#000000" points="759.9814,-1165.5615 759.9814,-1187.5615 826.9814,-1187.5615 826.9814,-1165.5615 759.9814,-1165.5615"/>
<text text-anchor="start" x="762.9814" y="-1173.2615" font-family="Helvetica,sans-Serif" font-size="11.00" fill="#000000">char[36]</text>
<polygon fill="none" stroke="#000000" points="572.9814,-1143.5615 572.9814,-1165.5615 759.9814,-1165.5615 759.9814,-1143.5615 572.9814,-1143.5615"/>
<text text-anchor="start" x="592.9814" y="-1150.6615" font-family="Helvetica,sans-Serif" font-size="11.00" fill="#000000">name</text>
<polygon fill="none" stroke="#000000" points="759.9814,-1143.5615 759.9814,-1165.5615 826.9814,-1165.5615 826.9814,-1143.5615 759.9814,-1143.5615"/>
<text text-anchor="start" x="762.9179" y="-1151.2615" font-family="Helvetica,sans-Serif" font-size="11.00" fill="#000000">varchar[255]</text>
<polygon fill="none" stroke="#000000" points="572.9814,-1121.5615 572.9814,-1143.5615 759.9814,-1143.5615 759.9814,-1121.5615 572.9814,-1121.5615"/>
<text text-anchor="start" x="592.9814" y="-1128.6615" font-family="Helvetica,sans-Serif" font-size="11.00" fill="#000000">date_entered</text>
<polygon fill="none" stroke="#000000" points="759.9814,-1121.5615 759.9814,-1143.5615 826.9814,-1143.5615 826.9814,-1121.5615 759.9814,-1121.5615"/>
<text text-anchor="start" x="762.9814" y="-1129.2615" font-family="Helvetica,sans-Serif" font-size="11.00" fill="#000000">datetime[26]</text>
<polygon fill="none" stroke="#000000" points="572.9814,-1099.5615 572.9814,-1121.5615 759.9814,-1121.5615 759.9814,-1099.5615 572.9814,-1099.5615"/>
<text text-anchor="start" x="592.9814" y="-1106.6615" font-family="Helvetica,sans-Serif" font-size="11.00" fill="#000000">date_modified</text>
<polygon fill="none" stroke="#000000" points="759.9814,-1099.5615 759.9814,-1121.5615 826.9814,-1121.5615 826.9814,-1099.5615 759.9814,-1099.5615"/>
<text text-anchor="start" x="762.9814" y="-1107.2615" font-family="Helvetica,sans-Serif" font-size="11.00" fill="#000000">datetime[26]</text>
<polygon fill="none" stroke="#000000" points="572.9814,-1077.5615 572.9814,-1099.5615 759.9814,-1099.5615 759.9814,-1077.5615 572.9814,-1077.5615"/>
<image xlink:href="../../images/foreignKeys.png" width="11px" height="12px" preserveAspectRatio="xMinYMin meet" x="577.981" y="-1094.56"/>
<text text-anchor="start" x="592.9814" y="-1084.6615" font-family="Helvetica,sans-Serif" font-size="11.00" fill="#000000">modified_user_id</text>
<polygon fill="none" stroke="#000000" points="759.9814,-1077.5615 759.9814,-1099.5615 826.9814,-1099.5615 826.9814,-1077.5615 759.9814,-1077.5615"/>
<text text-anchor="start" x="762.9814" y="-1085.2615" font-family="Helvetica,sans-Serif" font-size="11.00" fill="#000000">char[36]</text>
<polygon fill="none" stroke="#000000" points="572.9814,-1055.5615 572.9814,-1077.5615 759.9814,-1077.5615 759.9814,-1055.5615 572.9814,-1055.5615"/>
<image xlink:href="../../images/foreignKeys.png" width="11px" height="12px" preserveAspectRatio="xMinYMin meet" x="577.981" y="-1072.56"/>
<text text-anchor="start" x="592.9814" y="-1062.6615" font-family="Helvetica,sans-Serif" font-size="11.00" fill="#000000">created_by</text>
<polygon fill="none" stroke="#000000" points="759.9814,-1055.5615 759.9814,-1077.5615 826.9814,-1077.5615 826.9814,-1055.5615 759.9814,-1055.5615"/>
<text text-anchor="start" x="762.9814" y="-1063.2615" font-family="Helvetica,sans-Serif" font-size="11.00" fill="#000000">char[36]</text>
<polygon fill="none" stroke="#000000" points="572.9814,-1033.5615 572.9814,-1055.5615 759.9814,-1055.5615 759.9814,-1033.5615 572.9814,-1033.5615"/>
<text text-anchor="start" x="592.9814" y="-1040.6615" font-family="Helvetica,sans-Serif" font-size="11.00" fill="#000000">description</text>
<polygon fill="none" stroke="#000000" points="759.9814,-1033.5615 759.9814,-1055.5615 826.9814,-1055.5615 826.9814,-1033.5615 759.9814,-1033.5615"/>
<text text-anchor="start" x="762.9814" y="-1041.2615" font-family="Helvetica,sans-Serif" font-size="11.00" fill="#000000">text[65535]</text>
<polygon fill="none" stroke="#000000" points="572.9814,-1011.5615 572.9814,-1033.5615 759.9814,-1033.5615 759.9814,-1011.5615 572.9814,-1011.5615"/>
<text text-anchor="start" x="592.9814" y="-1018.6615" font-family="Helvetica,sans-Serif" font-size="11.00" fill="#000000">deleted</text>
<polygon fill="none" stroke="#000000" points="759.9814,-1011.5615 759.9814,-1033.5615 826.9814,-1033.5615 826.9814,-1011.5615 759.9814,-1011.5615"/>
<text text-anchor="start" x="762.9814" y="-1019.2615" font-family="Helvetica,sans-Serif" font-size="11.00" fill="#000000">bit[1]</text>
<polygon fill="none" stroke="#000000" points="572.9814,-989.5615 572.9814,-1011.5615 759.9814,-1011.5615 759.9814,-989.5615 572.9814,-989.5615"/>
<image xlink:href="../../images/foreignKeys.png" width="11px" height="12px" preserveAspectRatio="xMinYMin meet" x="577.981" y="-1006.56"/>
<text text-anchor="start" x="592.9814" y="-996.6615" font-family="Helvetica,sans-Serif" font-size="11.00" fill="#000000">assigned_user_id</text>
<polygon fill="none" stroke="#000000" points="759.9814,-989.5615 759.9814,-1011.5615 826.9814,-1011.5615 826.9814,-989.5615 759.9814,-989.5615"/>
<text text-anchor="start" x="762.9814" y="-997.2615" font-family="Helvetica,sans-Serif" font-size="11.00" fill="#000000">char[36]</text>
<polygon fill="none" stroke="#000000" points="572.9814,-967.5615 572.9814,-989.5615 759.9814,-989.5615 759.9814,-967.5615 572.9814,-967.5615"/>
<text text-anchor="start" x="592.9814" y="-974.6615" font-family="Helvetica,sans-Serif" font-size="11.00" fill="#000000">status</text>
<polygon fill="none" stroke="#000000" points="759.9814,-967.5615 759.9814,-989.5615 826.9814,-989.5615 826.9814,-967.5615 759.9814,-967.5615"/>
<text text-anchor="start" x="762.9179" y="-975.2615" font-family="Helvetica,sans-Serif" font-size="11.00" fill="#000000">varchar[100]</text>
<polygon fill="none" stroke="#000000" points="572.9814,-945.5615 572.9814,-967.5615 759.9814,-967.5615 759.9814,-945.5615 572.9814,-945.5615"/>
<text text-anchor="start" x="592.9814" y="-952.6615" font-family="Helvetica,sans-Serif" font-size="11.00" fill="#000000">priority</text>
<polygon fill="none" stroke="#000000" points="759.9814,-945.5615 759.9814,-967.5615 826.9814,-967.5615 826.9814,-945.5615 759.9814,-945.5615"/>
<text text-anchor="start" x="762.9179" y="-953.2615" font-family="Helvetica,sans-Serif" font-size="11.00" fill="#000000">varchar[100]</text>
<polygon fill="none" stroke="#000000" points="572.9814,-923.5615 572.9814,-945.5615 759.9814,-945.5615 759.9814,-923.5615 572.9814,-923.5615"/>
<text text-anchor="start" x="592.9814" y="-930.6615" font-family="Helvetica,sans-Serif" font-size="11.00" fill="#000000">override_business_hours</text>
<polygon fill="none" stroke="#000000" points="759.9814,-923.5615 759.9814,-945.5615 826.9814,-945.5615 826.9814,-923.5615 759.9814,-923.5615"/>
<text text-anchor="start" x="762.9814" y="-931.2615" font-family="Helvetica,sans-Serif" font-size="11.00" fill="#000000">bit[1]</text>
<polygon fill="#ffffff" stroke="transparent" points="572.9814,-904.5615 572.9814,-923.5615 670.9814,-923.5615 670.9814,-904.5615 572.9814,-904.5615"/>
<polygon fill="none" stroke="#000000" points="572.9814,-904.5615 572.9814,-923.5615 670.9814,-923.5615 670.9814,-904.5615 572.9814,-904.5615"/>
<text text-anchor="start" x="575.9814" y="-910.6615" font-family="Helvetica,sans-Serif" font-size="11.00" fill="#000000">&lt; 3</text>
<polygon fill="#ffffff" stroke="transparent" points="670.9814,-904.5615 670.9814,-923.5615 759.9814,-923.5615 759.9814,-904.5615 670.9814,-904.5615"/>
<polygon fill="none" stroke="#000000" points="670.9814,-904.5615 670.9814,-923.5615 759.9814,-923.5615 759.9814,-904.5615 670.9814,-904.5615"/>
<text text-anchor="start" x="750.8676" y="-910.6615" font-family="Helvetica,sans-Serif" font-size="11.00" fill="#000000"> &#160;</text>
<polygon fill="#ffffff" stroke="transparent" points="759.9814,-904.5615 759.9814,-923.5615 826.9814,-923.5615 826.9814,-904.5615 759.9814,-904.5615"/>
<polygon fill="none" stroke="#000000" points="759.9814,-904.5615 759.9814,-923.5615 826.9814,-923.5615 826.9814,-904.5615 759.9814,-904.5615"/>
<text text-anchor="start" x="808.3867" y="-910.6615" font-family="Helvetica,sans-Serif" font-size="11.00" fill="#000000">5 &gt;</text>
<polygon fill="none" stroke="#000000" stroke-width="2" points="571.9814,-903.5615 571.9814,-1211.5615 827.9814,-1211.5615 827.9814,-903.5615 571.9814,-903.5615"/>
</a>
</g>
</g>
<!-- am_projecttemplates&#45;&gt;users -->
<g id="edge2" class="edge">
<title>am_projecttemplates:w&#45;&gt;users:e</title>
<path fill="none" stroke="#000000" d="M559.2366,-995.6986C509.3705,-953.8872 593.8277,-656.5615 521.9814,-656.5615"/>
<polygon fill="#000000" stroke="#000000" points="565.4395,-997.8932 571.7807,-1003.9554 569.2105,-999.2274 572.9814,-1000.5615 572.9814,-1000.5615 572.9814,-1000.5615 569.2105,-999.2274 574.1822,-997.1677 565.4395,-997.8932 565.4395,-997.8932"/>
<ellipse fill="none" stroke="#000000" cx="562.4228" cy="-996.8258" rx="3.2" ry="3.2"/>
</g>
<!-- am_projecttemplates&#45;&gt;users -->
<g id="edge3" class="edge">
<title>am_projecttemplates:w&#45;&gt;users:e</title>
<path fill="none" stroke="#000000" d="M559.0637,-1062.5036C495.9397,-1019.9223 608.415,-656.5615 521.9814,-656.5615"/>
<polygon fill="#000000" stroke="#000000" points="565.3012,-1064.3222 571.9737,-1070.0176 569.1413,-1065.4419 572.9814,-1066.5615 572.9814,-1066.5615 572.9814,-1066.5615 569.1413,-1065.4419 573.9891,-1063.1054 565.3012,-1064.3222 565.3012,-1064.3222"/>
<ellipse fill="none" stroke="#000000" cx="562.2291" cy="-1063.4265" rx="3.2" ry="3.2"/>
</g>
<!-- am_projecttemplates&#45;&gt;users -->
<g id="edge4" class="edge">
<title>am_projecttemplates:w&#45;&gt;users:e</title>
<path fill="none" stroke="#000000" d="M558.769,-1084.5608C491.6717,-1041.01 613.1728,-656.5615 521.9814,-656.5615"/>
<polygon fill="#000000" stroke="#000000" points="565.2807,-1086.3937 572.0059,-1092.0268 569.1311,-1087.4776 572.9814,-1088.5615 572.9814,-1088.5615 572.9814,-1088.5615 569.1311,-1087.4776 573.9569,-1085.0962 565.2807,-1086.3937 565.2807,-1086.3937"/>
<ellipse fill="none" stroke="#000000" cx="562.2004" cy="-1085.5266" rx="3.2" ry="3.2"/>
</g>
<!-- am_projecttemplates_audit -->
<g id="node4" class="node">
<title>am_projecttemplates_audit</title>
<g id="a_node4"><a xlink:href="../../tables/am_projecttemplates_audit.html" xlink:title="am_projecttemplates_audit" target="_top">
<polygon fill="#ffffff" stroke="transparent" points="1006.9814,-1137.0615 1006.9814,-1242.0615 1210.9814,-1242.0615 1210.9814,-1137.0615 1006.9814,-1137.0615"/>
<polygon fill="#f5f5f5" stroke="transparent" points="1006.9814,-1218.5615 1006.9814,-1241.5615 1210.9814,-1241.5615 1210.9814,-1218.5615 1006.9814,-1218.5615"/>
<polygon fill="none" stroke="#000000" points="1006.9814,-1218.5615 1006.9814,-1241.5615 1210.9814,-1241.5615 1210.9814,-1218.5615 1006.9814,-1218.5615"/>
<text text-anchor="start" x="1011.9814" y="-1227.6615" font-family="Helvetica,sans-Serif" font-weight="bold" font-size="11.00" fill="#000000">am_projecttemplates_audit</text>
<text text-anchor="start" x="1176.0251" y="-1226.6615" font-family="Helvetica,sans-Serif" font-size="11.00" fill="#000000">[table]</text>
<polygon fill="none" stroke="#000000" points="1006.9814,-1196.5615 1006.9814,-1218.5615 1210.9814,-1218.5615 1210.9814,-1196.5615 1006.9814,-1196.5615"/>
<image xlink:href="../../images/primaryKeys.png" width="11px" height="12px" preserveAspectRatio="xMinYMin meet" x="1011.98" y="-1213.56"/>
<text text-anchor="start" x="1026.9814" y="-1203.6615" font-family="Helvetica,sans-Serif" font-size="11.00" fill="#000000">id</text>
<polygon fill="#c0c0c0" stroke="transparent" points="1006.9814,-1174.5615 1006.9814,-1196.5615 1210.9814,-1196.5615 1210.9814,-1174.5615 1006.9814,-1174.5615"/>
<polygon fill="none" stroke="#000000" points="1006.9814,-1174.5615 1006.9814,-1196.5615 1210.9814,-1196.5615 1210.9814,-1174.5615 1006.9814,-1174.5615"/>
<image xlink:href="../../images/foreignKeys.png" width="11px" height="12px" preserveAspectRatio="xMinYMin meet" x="1011.98" y="-1191.56"/>
<text text-anchor="start" x="1026.9814" y="-1181.6615" font-family="Helvetica,sans-Serif" font-size="11.00" fill="#000000">parent_id</text>
<polygon fill="none" stroke="#000000" points="1006.9814,-1155.5615 1006.9814,-1174.5615 1210.9814,-1174.5615 1210.9814,-1155.5615 1006.9814,-1155.5615"/>
<text text-anchor="start" x="1009.9814" y="-1161.6615" font-family="Helvetica,sans-Serif" font-size="11.00" fill="#000000">...</text>
<polygon fill="#ffffff" stroke="transparent" points="1006.9814,-1136.5615 1006.9814,-1155.5615 1106.9814,-1155.5615 1106.9814,-1136.5615 1006.9814,-1136.5615"/>
<polygon fill="none" stroke="#000000" points="1006.9814,-1136.5615 1006.9814,-1155.5615 1106.9814,-1155.5615 1106.9814,-1136.5615 1006.9814,-1136.5615"/>
<text text-anchor="start" x="1009.9814" y="-1142.6615" font-family="Helvetica,sans-Serif" font-size="11.00" fill="#000000">&lt; 1</text>
<polygon fill="#ffffff" stroke="transparent" points="1106.9814,-1136.5615 1106.9814,-1155.5615 1158.9814,-1155.5615 1158.9814,-1136.5615 1106.9814,-1136.5615"/>
<polygon fill="none" stroke="#000000" points="1106.9814,-1136.5615 1106.9814,-1155.5615 1158.9814,-1155.5615 1158.9814,-1136.5615 1106.9814,-1136.5615"/>
<text text-anchor="start" x="1149.8676" y="-1142.6615" font-family="Helvetica,sans-Serif" font-size="11.00" fill="#000000"> &#160;</text>
<polygon fill="#ffffff" stroke="transparent" points="1158.9814,-1136.5615 1158.9814,-1155.5615 1210.9814,-1155.5615 1210.9814,-1136.5615 1158.9814,-1136.5615"/>
<polygon fill="none" stroke="#000000" points="1158.9814,-1136.5615 1158.9814,-1155.5615 1210.9814,-1155.5615 1210.9814,-1136.5615 1158.9814,-1136.5615"/>
<text text-anchor="start" x="1201.8676" y="-1142.6615" font-family="Helvetica,sans-Serif" font-size="11.00" fill="#000000"> &#160;</text>
</a>
</g>
</g>
<!-- am_projecttemplates_audit&#45;&gt;am_projecttemplates -->
<g id="edge5" class="edge">
<title>am_projecttemplates_audit:w&#45;&gt;am_projecttemplates:e</title>
<path fill="none" stroke="#000000" d="M992.2125,-1185.4542C924.0786,-1184.4388 901.9187,-1176.5615 826.9814,-1176.5615"/>
<polygon fill="#000000" stroke="#000000" points="998.9816,-1185.5033 1006.9552,-1189.1614 1002.9815,-1185.5324 1006.9814,-1185.5615 1006.9814,-1185.5615 1006.9814,-1185.5615 1002.9815,-1185.5324 1007.0076,-1181.9616 998.9816,-1185.5033 998.9816,-1185.5033"/>
<ellipse fill="none" stroke="#000000" cx="995.7817" cy="-1185.48" rx="3.2" ry="3.2"/>
</g>
<!-- am_projecttemplates_contacts_1_c -->
<g id="node5" class="node">
<title>am_projecttemplates_contacts_1_c</title>
<g id="a_node5"><a xlink:href="../../tables/am_projecttemplates_contacts_1_c.html" xlink:title="am_projecttemplates_contacts_1_c" target="_top">
<polygon fill="#ffffff" stroke="transparent" points="981.9814,-1268.0615 981.9814,-1395.0615 1235.9814,-1395.0615 1235.9814,-1268.0615 981.9814,-1268.0615"/>
<polygon fill="#f5f5f5" stroke="transparent" points="981.9814,-1371.5615 981.9814,-1394.5615 1235.9814,-1394.5615 1235.9814,-1371.5615 981.9814,-1371.5615"/>
<polygon fill="none" stroke="#000000" points="981.9814,-1371.5615 981.9814,-1394.5615 1235.9814,-1394.5615 1235.9814,-1371.5615 981.9814,-1371.5615"/>
<text text-anchor="start" x="986.9814" y="-1380.6615" font-family="Helvetica,sans-Serif" font-weight="bold" font-size="11.00" fill="#000000">am_projecttemplates_contacts_1_c</text>
<text text-anchor="start" x="1201.0251" y="-1379.6615" font-family="Helvetica,sans-Serif" font-size="11.00" fill="#000000">[table]</text>
<polygon fill="none" stroke="#000000" points="981.9814,-1349.5615 981.9814,-1371.5615 1235.9814,-1371.5615 1235.9814,-1349.5615 981.9814,-1349.5615"/>
<image xlink:href="../../images/primaryKeys.png" width="11px" height="12px" preserveAspectRatio="xMinYMin meet" x="986.981" y="-1366.56"/>
<text text-anchor="start" x="1001.9814" y="-1356.6615" font-family="Helvetica,sans-Serif" font-size="11.00" fill="#000000">id</text>
<polygon fill="#ffffff" stroke="transparent" points="981.9814,-1327.5615 981.9814,-1349.5615 1235.9814,-1349.5615 1235.9814,-1327.5615 981.9814,-1327.5615"/>
<polygon fill="none" stroke="#000000" points="981.9814,-1327.5615 981.9814,-1349.5615 1235.9814,-1349.5615 1235.9814,-1327.5615 981.9814,-1327.5615"/>
<image xlink:href="../../images/foreignKeys.png" width="11px" height="12px" preserveAspectRatio="xMinYMin meet" x="986.981" y="-1344.56"/>
<text text-anchor="start" x="1001.9814" y="-1334.6615" font-family="Helvetica,sans-Serif" font-size="11.00" fill="#000000">am_projecttemplates_ida</text>
<polygon fill="#ffffff" stroke="transparent" points="981.9814,-1305.5615 981.9814,-1327.5615 1235.9814,-1327.5615 1235.9814,-1305.5615 981.9814,-1305.5615"/>
<polygon fill="none" stroke="#000000" points="981.9814,-1305.5615 981.9814,-1327.5615 1235.9814,-1327.5615 1235.9814,-1305.5615 981.9814,-1305.5615"/>
<image xlink:href="../../images/foreignKeys.png" width="11px" height="12px" preserveAspectRatio="xMinYMin meet" x="986.981" y="-1322.56"/>
<text text-anchor="start" x="1001.9814" y="-1312.6615" font-family="Helvetica,sans-Serif" font-size="11.00" fill="#000000">contacts_idb</text>
<polygon fill="none" stroke="#000000" points="981.9814,-1286.5615 981.9814,-1305.5615 1235.9814,-1305.5615 1235.9814,-1286.5615 981.9814,-1286.5615"/>
<text text-anchor="start" x="984.9814" y="-1292.6615" font-family="Helvetica,sans-Serif" font-size="11.00" fill="#000000">...</text>
<polygon fill="#ffffff" stroke="transparent" points="981.9814,-1267.5615 981.9814,-1286.5615 1106.9814,-1286.5615 1106.9814,-1267.5615 981.9814,-1267.5615"/>
<polygon fill="none" stroke="#000000" points="981.9814,-1267.5615 981.9814,-1286.5615 1106.9814,-1286.5615 1106.9814,-1267.5615 981.9814,-1267.5615"/>
<text text-anchor="start" x="984.9814" y="-1273.6615" font-family="Helvetica,sans-Serif" font-size="11.00" fill="#000000">&lt; 2</text>
<polygon fill="#ffffff" stroke="transparent" points="1106.9814,-1267.5615 1106.9814,-1286.5615 1170.9814,-1286.5615 1170.9814,-1267.5615 1106.9814,-1267.5615"/>
<polygon fill="none" stroke="#000000" points="1106.9814,-1267.5615 1106.9814,-1286.5615 1170.9814,-1286.5615 1170.9814,-1267.5615 1106.9814,-1267.5615"/>
<text text-anchor="start" x="1161.8676" y="-1273.6615" font-family="Helvetica,sans-Serif" font-size="11.00" fill="#000000"> &#160;</text>
<polygon fill="#ffffff" stroke="transparent" points="1170.9814,-1267.5615 1170.9814,-1286.5615 1235.9814,-1286.5615 1235.9814,-1267.5615 1170.9814,-1267.5615"/>
<polygon fill="none" stroke="#000000" points="1170.9814,-1267.5615 1170.9814,-1286.5615 1235.9814,-1286.5615 1235.9814,-1267.5615 1170.9814,-1267.5615"/>
<text text-anchor="start" x="1226.8676" y="-1273.6615" font-family="Helvetica,sans-Serif" font-size="11.00" fill="#000000"> &#160;</text>
</a>
</g>
</g>
<!-- am_projecttemplates_contacts_1_c&#45;&gt;am_projecttemplates -->
<g id="edge6" class="edge">
<title>am_projecttemplates_contacts_1_c:w&#45;&gt;am_projecttemplates:e</title>
<path fill="none" stroke="#000000" d="M967.5922,-1337.7982C917.6745,-1332.1653 907.7709,-1296.0474 869.9814,-1252.5615 844.5248,-1223.2676 865.7909,-1176.5615 826.9814,-1176.5615"/>
<polygon fill="#000000" stroke="#000000" points="973.9926,-1338.1377 981.7907,-1342.1565 977.987,-1338.3496 981.9814,-1338.5615 981.9814,-1338.5615 981.9814,-1338.5615 977.987,-1338.3496 982.1721,-1334.9666 973.9926,-1338.1377 973.9926,-1338.1377"/>
<ellipse fill="none" stroke="#000000" cx="970.7971" cy="-1337.9682" rx="3.2" ry="3.2"/>
</g>
<!-- contacts -->
<g id="node6" class="node">
<title>contacts</title>
<g id="a_node6"><a xlink:href="../../tables/contacts.html" xlink:title="contacts" target="_top">
<polygon fill="#ffffff" stroke="transparent" points="13.9814,-559.0615 13.9814,-620.0615 96.9814,-620.0615 96.9814,-559.0615 13.9814,-559.0615"/>
<polygon fill="#f5f5f5" stroke="transparent" points="14.4814,-596.5615 14.4814,-619.5615 97.4814,-619.5615 97.4814,-596.5615 14.4814,-596.5615"/>
<polygon fill="none" stroke="#000000" points="14.4814,-596.5615 14.4814,-619.5615 97.4814,-619.5615 97.4814,-596.5615 14.4814,-596.5615"/>
<text text-anchor="start" x="19.0022" y="-605.6615" font-family="Helvetica,sans-Serif" font-weight="bold" font-size="11.00" fill="#000000">contacts</text>
<text text-anchor="start" x="63.0033" y="-604.6615" font-family="Helvetica,sans-Serif" font-size="11.00" fill="#000000">[table]</text>
<polygon fill="none" stroke="#000000" points="14.4814,-577.5615 14.4814,-596.5615 97.4814,-596.5615 97.4814,-577.5615 14.4814,-577.5615"/>
<text text-anchor="start" x="17.4814" y="-583.6615" font-family="Helvetica,sans-Serif" font-size="11.00" fill="#000000">...</text>
<polygon fill="#ffffff" stroke="transparent" points="14.4814,-558.5615 14.4814,-577.5615 46.4814,-577.5615 46.4814,-558.5615 14.4814,-558.5615"/>
<polygon fill="none" stroke="#000000" points="14.4814,-558.5615 14.4814,-577.5615 46.4814,-577.5615 46.4814,-558.5615 14.4814,-558.5615"/>
<text text-anchor="start" x="17.4814" y="-564.6615" font-family="Helvetica,sans-Serif" font-size="11.00" fill="#000000">&lt; 7</text>
<polygon fill="#ffffff" stroke="transparent" points="46.4814,-558.5615 46.4814,-577.5615 64.4814,-577.5615 64.4814,-558.5615 46.4814,-558.5615"/>
<polygon fill="none" stroke="#000000" points="46.4814,-558.5615 46.4814,-577.5615 64.4814,-577.5615 64.4814,-558.5615 46.4814,-558.5615"/>
<text text-anchor="start" x="55.3676" y="-564.6615" font-family="Helvetica,sans-Serif" font-size="11.00" fill="#000000"> &#160;</text>
<polygon fill="#ffffff" stroke="transparent" points="64.4814,-558.5615 64.4814,-577.5615 97.4814,-577.5615 97.4814,-558.5615 64.4814,-558.5615"/>
<polygon fill="none" stroke="#000000" points="64.4814,-558.5615 64.4814,-577.5615 97.4814,-577.5615 97.4814,-558.5615 64.4814,-558.5615"/>
<text text-anchor="start" x="72.7718" y="-564.6615" font-family="Helvetica,sans-Serif" font-size="11.00" fill="#000000">30 &gt;</text>
</a>
</g>
</g>
<!-- am_projecttemplates_contacts_1_c&#45;&gt;contacts -->
<g id="edge7" class="edge">
<title>am_projecttemplates_contacts_1_c:w&#45;&gt;contacts:e</title>
<path fill="none" stroke="#000000" d="M967.486,-1316.7206C791.9755,-1320.5803 722.0938,-1392.6246 562.9814,-1305.5615 267.6512,-1143.9627 300.9119,-973.1592 137.9814,-678.5615 116.3596,-639.4668 142.1569,-586.5615 97.4814,-586.5615"/>
<polygon fill="#000000" stroke="#000000" points="973.9819,-1316.6494 982.0209,-1320.1613 977.9816,-1316.6054 981.9814,-1316.5615 981.9814,-1316.5615 981.9814,-1316.5615 977.9816,-1316.6054 981.9419,-1312.9617 973.9819,-1316.6494 973.9819,-1316.6494"/>
<ellipse fill="none" stroke="#000000" cx="970.7821" cy="-1316.6845" rx="3.2" ry="3.2"/>
</g>
<!-- contacts&#45;&gt;users -->
<g id="edge19" class="edge">
<title>contacts:w&#45;&gt;users:e</title>
<path fill="none" stroke="#000000" d="M7.5962,-573.6881C8.8531,-551.0517 36.9308,-510.5385 104.9814,-555.0615 135.6261,-575.1112 111.7155,-605.0431 137.9814,-630.5615 192.9734,-683.9886 222.7126,-680.461 297.9814,-695.0615 297.9814,-695.0615 521.9814,-656.5615 521.9814,-656.5615"/>
<polygon fill="#000000" stroke="#000000" points="10.7084,-579.5071 11.3069,-588.2594 12.5949,-583.0343 14.4814,-586.5615 14.4814,-586.5615 14.4814,-586.5615 12.5949,-583.0343 17.6559,-584.8637 10.7084,-579.5071 10.7084,-579.5071"/>
<ellipse fill="none" stroke="#000000" cx="9.1992" cy="-576.6854" rx="3.2" ry="3.2"/>
</g>
<!-- contacts&#45;&gt;users -->
<g id="edge20" class="edge">
<title>contacts:w&#45;&gt;users:e</title>
<path fill="none" stroke="#000000" d="M7.1307,-574.0402C4.9368,-549.4782 31.7905,-502.2316 104.9814,-549.0615 134.4624,-567.9244 112.8906,-596.161 137.9814,-620.5615 193.4365,-674.491 222.2041,-673.5226 297.9814,-689.0615 297.9814,-689.0615 521.9814,-650.5615 521.9814,-656.5615"/>
<polygon fill="#000000" stroke="#000000" points="10.4313,-579.6625 11.3768,-588.3841 12.4563,-583.112 14.4814,-586.5615 14.4814,-586.5615 14.4814,-586.5615 12.4563,-583.112 17.586,-584.739 10.4313,-579.6625 10.4313,-579.6625"/>
<ellipse fill="none" stroke="#000000" cx="8.8112" cy="-576.9029" rx="3.2" ry="3.2"/>
</g>
<!-- contacts&#45;&gt;users -->
<g id="edge22" class="edge">
<title>contacts:w&#45;&gt;users:e</title>
<path fill="none" stroke="#000000" d="M7.4629,-573.8091C11.3015,-553.3425 39.7225,-520.3068 104.9814,-562.0615 134.4624,-580.9244 112.8906,-609.161 137.9814,-633.5615 193.4365,-687.491 222.2041,-686.5226 297.9814,-702.0615 297.9814,-702.0615 521.9814,-663.5615 521.9814,-656.5615"/>
<polygon fill="#000000" stroke="#000000" points="10.624,-579.5529 11.3275,-588.2973 12.5527,-583.0572 14.4814,-586.5615 14.4814,-586.5615 14.4814,-586.5615 12.5527,-583.0572 17.6353,-584.8257 10.624,-579.5529 10.624,-579.5529"/>
<ellipse fill="none" stroke="#000000" cx="9.0811" cy="-576.7494" rx="3.2" ry="3.2"/>
</g>
<!-- contacts&#45;&gt;campaign_log -->
<g id="edge21" class="edge">
<title>contacts:w&#45;&gt;campaign_log:e</title>
<path fill="none" stroke="#000000" d="M7.4438,-578.8703C-13.05,-531.7762 -4.6838,-292.8963 257.4814,-555.0615 267.3809,-564.961 271.4814,-586.5615 257.4814,-586.5615"/>
<polygon fill="#000000" stroke="#000000" points="16.8924,-583.271 10.9903,-588.6716 9.9102,-587.4912 15.8123,-582.0906 16.8924,-583.271"/>
<polyline fill="none" stroke="#000000" points="14.4814,-586.5615 11.7811,-583.6105 "/>
<ellipse fill="none" stroke="#000000" cx="9.6209" cy="-581.2497" rx="3.2" ry="3.2"/>
</g>
<!-- am_projecttemplates_project_1_c -->
<g id="node7" class="node">
<title>am_projecttemplates_project_1_c</title>
<g id="a_node7"><a xlink:href="../../tables/am_projecttemplates_project_1_c.html" xlink:title="am_projecttemplates_project_1_c" target="_top">
<polygon fill="#ffffff" stroke="transparent" points="908.4814,-693.0615 908.4814,-820.0615 1309.4814,-820.0615 1309.4814,-693.0615 908.4814,-693.0615"/>
<polygon fill="#f5f5f5" stroke="transparent" points="908.9814,-796.5615 908.9814,-819.5615 1309.9814,-819.5615 1309.9814,-796.5615 908.9814,-796.5615"/>
<polygon fill="none" stroke="#000000" points="908.9814,-796.5615 908.9814,-819.5615 1309.9814,-819.5615 1309.9814,-796.5615 908.9814,-796.5615"/>
<text text-anchor="start" x="913.9814" y="-805.6615" font-family="Helvetica,sans-Serif" font-weight="bold" font-size="11.00" fill="#000000">am_projecttemplates_project_1_c</text>
<text text-anchor="start" x="1275.0251" y="-804.6615" font-family="Helvetica,sans-Serif" font-size="11.00" fill="#000000">[table]</text>
<polygon fill="none" stroke="#000000" points="908.9814,-774.5615 908.9814,-796.5615 1309.9814,-796.5615 1309.9814,-774.5615 908.9814,-774.5615"/>
<image xlink:href="../../images/primaryKeys.png" width="11px" height="12px" preserveAspectRatio="xMinYMin meet" x="913.981" y="-791.562"/>
<text text-anchor="start" x="928.9814" y="-781.6615" font-family="Helvetica,sans-Serif" font-size="11.00" fill="#000000">id</text>
<polygon fill="#ffffff" stroke="transparent" points="908.9814,-752.5615 908.9814,-774.5615 1309.9814,-774.5615 1309.9814,-752.5615 908.9814,-752.5615"/>
<polygon fill="none" stroke="#000000" points="908.9814,-752.5615 908.9814,-774.5615 1309.9814,-774.5615 1309.9814,-752.5615 908.9814,-752.5615"/>
<image xlink:href="../../images/foreignKeys.png" width="11px" height="12px" preserveAspectRatio="xMinYMin meet" x="913.981" y="-769.562"/>
<text text-anchor="start" x="928.9814" y="-759.6615" font-family="Helvetica,sans-Serif" font-size="11.00" fill="#000000">am_projecttemplates_project_1am_projecttemplates_ida</text>
<polygon fill="#ffffff" stroke="transparent" points="908.9814,-730.5615 908.9814,-752.5615 1309.9814,-752.5615 1309.9814,-730.5615 908.9814,-730.5615"/>
<polygon fill="none" stroke="#000000" points="908.9814,-730.5615 908.9814,-752.5615 1309.9814,-752.5615 1309.9814,-730.5615 908.9814,-730.5615"/>
<image xlink:href="../../images/foreignKeys.png" width="11px" height="12px" preserveAspectRatio="xMinYMin meet" x="913.981" y="-747.562"/>
<text text-anchor="start" x="928.9814" y="-737.6615" font-family="Helvetica,sans-Serif" font-size="11.00" fill="#000000">am_projecttemplates_project_1project_idb</text>
<polygon fill="none" stroke="#000000" points="908.9814,-711.5615 908.9814,-730.5615 1309.9814,-730.5615 1309.9814,-711.5615 908.9814,-711.5615"/>
<text text-anchor="start" x="911.9814" y="-717.6615" font-family="Helvetica,sans-Serif" font-size="11.00" fill="#000000">...</text>
<polygon fill="#ffffff" stroke="transparent" points="908.9814,-692.5615 908.9814,-711.5615 1107.9814,-711.5615 1107.9814,-692.5615 908.9814,-692.5615"/>
<polygon fill="none" stroke="#000000" points="908.9814,-692.5615 908.9814,-711.5615 1107.9814,-711.5615 1107.9814,-692.5615 908.9814,-692.5615"/>
<text text-anchor="start" x="911.9814" y="-698.6615" font-family="Helvetica,sans-Serif" font-size="11.00" fill="#000000">&lt; 2</text>
<polygon fill="#ffffff" stroke="transparent" points="1107.9814,-692.5615 1107.9814,-711.5615 1208.9814,-711.5615 1208.9814,-692.5615 1107.9814,-692.5615"/>
<polygon fill="none" stroke="#000000" points="1107.9814,-692.5615 1107.9814,-711.5615 1208.9814,-711.5615 1208.9814,-692.5615 1107.9814,-692.5615"/>
<text text-anchor="start" x="1199.8676" y="-698.6615" font-family="Helvetica,sans-Serif" font-size="11.00" fill="#000000"> &#160;</text>
<polygon fill="#ffffff" stroke="transparent" points="1208.9814,-692.5615 1208.9814,-711.5615 1309.9814,-711.5615 1309.9814,-692.5615 1208.9814,-692.5615"/>
<polygon fill="none" stroke="#000000" points="1208.9814,-692.5615 1208.9814,-711.5615 1309.9814,-711.5615 1309.9814,-692.5615 1208.9814,-692.5615"/>
<text text-anchor="start" x="1300.8676" y="-698.6615" font-family="Helvetica,sans-Serif" font-size="11.00" fill="#000000"> &#160;</text>
</a>
</g>
</g>
<!-- am_projecttemplates_project_1_c&#45;&gt;am_projecttemplates -->
<g id="edge8" class="edge">
<title>am_projecttemplates_project_1_c:w&#45;&gt;am_projecttemplates:e</title>
<path fill="none" stroke="#000000" d="M894.9222,-767.3863C826.6849,-809.0217 915.2509,-1176.5615 826.9814,-1176.5615"/>
<polygon fill="#000000" stroke="#000000" points="901.262,-765.6616 909.9265,-767.0353 905.1217,-764.6116 908.9814,-763.5615 908.9814,-763.5615 908.9814,-763.5615 905.1217,-764.6116 908.0364,-760.0878 901.262,-765.6616 901.262,-765.6616"/>
<ellipse fill="none" stroke="#000000" cx="898.1742" cy="-766.5017" rx="3.2" ry="3.2"/>
</g>
<!-- project -->
<g id="node8" class="node">
<title>project</title>
<g id="a_node8"><a xlink:href="../../tables/project.html" xlink:title="project" target="_top">
<polygon fill="#ffffff" stroke="transparent" points="661.9814,-711.0615 661.9814,-772.0615 737.9814,-772.0615 737.9814,-711.0615 661.9814,-711.0615"/>
<polygon fill="#f5f5f5" stroke="transparent" points="661.9814,-748.5615 661.9814,-771.5615 737.9814,-771.5615 737.9814,-748.5615 661.9814,-748.5615"/>
<polygon fill="none" stroke="#000000" points="661.9814,-748.5615 661.9814,-771.5615 737.9814,-771.5615 737.9814,-748.5615 661.9814,-748.5615"/>
<text text-anchor="start" x="666.9792" y="-757.6615" font-family="Helvetica,sans-Serif" font-weight="bold" font-size="11.00" fill="#000000">project</text>
<text text-anchor="start" x="703.5033" y="-756.6615" font-family="Helvetica,sans-Serif" font-size="11.00" fill="#000000">[table]</text>
<polygon fill="none" stroke="#000000" points="661.9814,-729.5615 661.9814,-748.5615 737.9814,-748.5615 737.9814,-729.5615 661.9814,-729.5615"/>
<text text-anchor="start" x="664.9814" y="-735.6615" font-family="Helvetica,sans-Serif" font-size="11.00" fill="#000000">...</text>
<polygon fill="#ffffff" stroke="transparent" points="661.9814,-710.5615 661.9814,-729.5615 690.9814,-729.5615 690.9814,-710.5615 661.9814,-710.5615"/>
<polygon fill="none" stroke="#000000" points="661.9814,-710.5615 661.9814,-729.5615 690.9814,-729.5615 690.9814,-710.5615 661.9814,-710.5615"/>
<text text-anchor="start" x="664.9814" y="-716.6615" font-family="Helvetica,sans-Serif" font-size="11.00" fill="#000000">&lt; 4</text>
<polygon fill="#ffffff" stroke="transparent" points="690.9814,-710.5615 690.9814,-729.5615 706.9814,-729.5615 706.9814,-710.5615 690.9814,-710.5615"/>
<polygon fill="none" stroke="#000000" points="690.9814,-710.5615 690.9814,-729.5615 706.9814,-729.5615 706.9814,-710.5615 690.9814,-710.5615"/>
<text text-anchor="start" x="697.8676" y="-716.6615" font-family="Helvetica,sans-Serif" font-size="11.00" fill="#000000"> &#160;</text>
<polygon fill="#ffffff" stroke="transparent" points="706.9814,-710.5615 706.9814,-729.5615 737.9814,-729.5615 737.9814,-710.5615 706.9814,-710.5615"/>
<polygon fill="none" stroke="#000000" points="706.9814,-710.5615 706.9814,-729.5615 737.9814,-729.5615 737.9814,-710.5615 706.9814,-710.5615"/>
<text text-anchor="start" x="713.2718" y="-716.6615" font-family="Helvetica,sans-Serif" font-size="11.00" fill="#000000">18 &gt;</text>
</a>
</g>
</g>
<!-- am_projecttemplates_project_1_c&#45;&gt;project -->
<g id="edge9" class="edge">
<title>am_projecttemplates_project_1_c:w&#45;&gt;project:e</title>
<path fill="none" stroke="#000000" d="M894.5596,-741.5236C830.1979,-741.1763 808.9455,-738.5615 737.9814,-738.5615"/>
<polygon fill="#000000" stroke="#000000" points="900.9814,-741.5404 908.9719,-745.1615 904.9814,-741.551 908.9814,-741.5615 908.9814,-741.5615 908.9814,-741.5615 904.9814,-741.551 908.9909,-737.9615 900.9814,-741.5404 900.9814,-741.5404"/>
<ellipse fill="none" stroke="#000000" cx="897.7814" cy="-741.532" rx="3.2" ry="3.2"/>
</g>
<!-- project&#45;&gt;users -->
<g id="edge31" class="edge">
<title>project:w&#45;&gt;users:e</title>
<path fill="none" stroke="#000000" d="M648.1437,-734.4748C611.8588,-722.9428 597.9289,-711.1428 562.9814,-687.5615 540.8242,-672.6107 548.711,-643.5615 521.9814,-656.5615"/>
<polygon fill="#000000" stroke="#000000" points="654.309,-736.2956 660.9617,-742.0141 658.1452,-737.4286 661.9814,-738.5615 661.9814,-738.5615 661.9814,-738.5615 658.1452,-737.4286 663.0011,-735.1089 654.309,-736.2956 654.309,-736.2956"/>
<ellipse fill="none" stroke="#000000" cx="651.24" cy="-735.3892" rx="3.2" ry="3.2"/>
</g>
<!-- project&#45;&gt;users -->
<g id="edge32" class="edge">
<title>project:w&#45;&gt;users:e</title>
<path fill="none" stroke="#000000" d="M647.198,-738.109C611.6139,-735.7358 597.6236,-723.9368 562.9814,-700.5615 540.8242,-685.6107 548.711,-656.5615 521.9814,-656.5615"/>
<polygon fill="#000000" stroke="#000000" points="653.9852,-738.3167 661.8712,-742.1598 657.9833,-738.4391 661.9814,-738.5615 661.9814,-738.5615 661.9814,-738.5615 657.9833,-738.4391 662.0916,-734.9632 653.9852,-738.3167 653.9852,-738.3167"/>
<ellipse fill="none" stroke="#000000" cx="650.7867" cy="-738.2188" rx="3.2" ry="3.2"/>
</g>
<!-- project&#45;&gt;users -->
<g id="edge33" class="edge">
<title>project:w&#45;&gt;users:e</title>
<path fill="none" stroke="#000000" d="M647.6696,-741.9559C611.7368,-748.8395 597.7763,-737.0398 562.9814,-713.5615 540.8242,-698.6107 548.711,-669.5615 521.9814,-656.5615"/>
<polygon fill="#000000" stroke="#000000" points="654.1973,-740.4077 662.8122,-742.0644 658.0894,-739.4846 661.9814,-738.5615 661.9814,-738.5615 661.9814,-738.5615 658.0894,-739.4846 661.1506,-735.0587 654.1973,-740.4077 654.1973,-740.4077"/>
<ellipse fill="none" stroke="#000000" cx="651.0837" cy="-741.1462" rx="3.2" ry="3.2"/>
</g>
<!-- am_projecttemplates_users_1_c -->
<g id="node9" class="node">
<title>am_projecttemplates_users_1_c</title>
<g id="a_node9"><a xlink:href="../../tables/am_projecttemplates_users_1_c.html" xlink:title="am_projecttemplates_users_1_c" target="_top">
<polygon fill="#ffffff" stroke="transparent" points="991.9814,-989.0615 991.9814,-1116.0615 1225.9814,-1116.0615 1225.9814,-989.0615 991.9814,-989.0615"/>
<polygon fill="#f5f5f5" stroke="transparent" points="991.9814,-1092.5615 991.9814,-1115.5615 1225.9814,-1115.5615 1225.9814,-1092.5615 991.9814,-1092.5615"/>
<polygon fill="none" stroke="#000000" points="991.9814,-1092.5615 991.9814,-1115.5615 1225.9814,-1115.5615 1225.9814,-1092.5615 991.9814,-1092.5615"/>
<text text-anchor="start" x="996.9814" y="-1101.6615" font-family="Helvetica,sans-Serif" font-weight="bold" font-size="11.00" fill="#000000">am_projecttemplates_users_1_c</text>
<text text-anchor="start" x="1191.0251" y="-1100.6615" font-family="Helvetica,sans-Serif" font-size="11.00" fill="#000000">[table]</text>
<polygon fill="none" stroke="#000000" points="991.9814,-1070.5615 991.9814,-1092.5615 1225.9814,-1092.5615 1225.9814,-1070.5615 991.9814,-1070.5615"/>
<image xlink:href="../../images/primaryKeys.png" width="11px" height="12px" preserveAspectRatio="xMinYMin meet" x="996.981" y="-1087.56"/>
<text text-anchor="start" x="1011.9814" y="-1077.6615" font-family="Helvetica,sans-Serif" font-size="11.00" fill="#000000">id</text>
<polygon fill="#ffffff" stroke="transparent" points="991.9814,-1048.5615 991.9814,-1070.5615 1225.9814,-1070.5615 1225.9814,-1048.5615 991.9814,-1048.5615"/>
<polygon fill="none" stroke="#000000" points="991.9814,-1048.5615 991.9814,-1070.5615 1225.9814,-1070.5615 1225.9814,-1048.5615 991.9814,-1048.5615"/>
<image xlink:href="../../images/foreignKeys.png" width="11px" height="12px" preserveAspectRatio="xMinYMin meet" x="996.981" y="-1065.56"/>
<text text-anchor="start" x="1011.9814" y="-1055.6615" font-family="Helvetica,sans-Serif" font-size="11.00" fill="#000000">am_projecttemplates_ida</text>
<polygon fill="#ffffff" stroke="transparent" points="991.9814,-1026.5615 991.9814,-1048.5615 1225.9814,-1048.5615 1225.9814,-1026.5615 991.9814,-1026.5615"/>
<polygon fill="none" stroke="#000000" points="991.9814,-1026.5615 991.9814,-1048.5615 1225.9814,-1048.5615 1225.9814,-1026.5615 991.9814,-1026.5615"/>
<image xlink:href="../../images/foreignKeys.png" width="11px" height="12px" preserveAspectRatio="xMinYMin meet" x="996.981" y="-1043.56"/>
<text text-anchor="start" x="1011.9814" y="-1033.6615" font-family="Helvetica,sans-Serif" font-size="11.00" fill="#000000">users_idb</text>
<polygon fill="none" stroke="#000000" points="991.9814,-1007.5615 991.9814,-1026.5615 1225.9814,-1026.5615 1225.9814,-1007.5615 991.9814,-1007.5615"/>
<text text-anchor="start" x="994.9814" y="-1013.6615" font-family="Helvetica,sans-Serif" font-size="11.00" fill="#000000">...</text>
<polygon fill="#ffffff" stroke="transparent" points="991.9814,-988.5615 991.9814,-1007.5615 1106.9814,-1007.5615 1106.9814,-988.5615 991.9814,-988.5615"/>
<polygon fill="none" stroke="#000000" points="991.9814,-988.5615 991.9814,-1007.5615 1106.9814,-1007.5615 1106.9814,-988.5615 991.9814,-988.5615"/>
<text text-anchor="start" x="994.9814" y="-994.6615" font-family="Helvetica,sans-Serif" font-size="11.00" fill="#000000">&lt; 2</text>
<polygon fill="#ffffff" stroke="transparent" points="1106.9814,-988.5615 1106.9814,-1007.5615 1165.9814,-1007.5615 1165.9814,-988.5615 1106.9814,-988.5615"/>
<polygon fill="none" stroke="#000000" points="1106.9814,-988.5615 1106.9814,-1007.5615 1165.9814,-1007.5615 1165.9814,-988.5615 1106.9814,-988.5615"/>
<text text-anchor="start" x="1156.8676" y="-994.6615" font-family="Helvetica,sans-Serif" font-size="11.00" fill="#000000"> &#160;</text>
<polygon fill="#ffffff" stroke="transparent" points="1165.9814,-988.5615 1165.9814,-1007.5615 1225.9814,-1007.5615 1225.9814,-988.5615 1165.9814,-988.5615"/>
<polygon fill="none" stroke="#000000" points="1165.9814,-988.5615 1165.9814,-1007.5615 1225.9814,-1007.5615 1225.9814,-988.5615 1165.9814,-988.5615"/>
<text text-anchor="start" x="1216.8676" y="-994.6615" font-family="Helvetica,sans-Serif" font-size="11.00" fill="#000000"> &#160;</text>
</a>
</g>
</g>
<!-- am_projecttemplates_users_1_c&#45;&gt;users -->
<g id="edge11" class="edge">
<title>am_projecttemplates_users_1_c:w&#45;&gt;users:e</title>
<path fill="none" stroke="#000000" d="M977.2849,-1037.2272C927.9948,-1034.8228 907.2405,-1019.0918 869.9814,-978.5615 842.2746,-948.4222 869.4953,-917.4391 836.9814,-892.5615 788.3721,-855.3687 608.2211,-905.787 562.9814,-864.5615 493.3374,-801.0971 616.2047,-656.5615 521.9814,-656.5615"/>
<polygon fill="#000000" stroke="#000000" points="983.9835,-1037.3795 991.8995,-1041.1606 987.9824,-1037.4705 991.9814,-1037.5615 991.9814,-1037.5615 991.9814,-1037.5615 987.9824,-1037.4705 992.0633,-1033.9625 983.9835,-1037.3795 983.9835,-1037.3795"/>
<ellipse fill="none" stroke="#000000" cx="980.7843" cy="-1037.3067" rx="3.2" ry="3.2"/>
</g>
<!-- am_projecttemplates_users_1_c&#45;&gt;am_projecttemplates -->
<g id="edge10" class="edge">
<title>am_projecttemplates_users_1_c:w&#45;&gt;am_projecttemplates:e</title>
<path fill="none" stroke="#000000" d="M977.3977,-1060.1446C927.836,-1064.3479 913.9941,-1090.8703 869.9814,-1126.5615 847.2162,-1145.0225 856.2912,-1176.5615 826.9814,-1176.5615"/>
<polygon fill="#000000" stroke="#000000" points="983.9878,-1059.8812 992.1253,-1063.1587 987.9846,-1059.7214 991.9814,-1059.5615 991.9814,-1059.5615 991.9814,-1059.5615 987.9846,-1059.7214 991.8376,-1055.9644 983.9878,-1059.8812 983.9878,-1059.8812"/>
<ellipse fill="none" stroke="#000000" cx="980.7904" cy="-1060.0091" rx="3.2" ry="3.2"/>
</g>
<!-- am_tasktemplates -->
<g id="node10" class="node">
<title>am_tasktemplates</title>
<g id="a_node10"><a xlink:href="../../tables/am_tasktemplates.html" xlink:title="am_tasktemplates" target="_top">
<polygon fill="#ffffff" stroke="transparent" points="633.9814,-793.0615 633.9814,-854.0615 765.9814,-854.0615 765.9814,-793.0615 633.9814,-793.0615"/>
<polygon fill="#f5f5f5" stroke="transparent" points="633.9814,-830.5615 633.9814,-853.5615 765.9814,-853.5615 765.9814,-830.5615 633.9814,-830.5615"/>
<polygon fill="none" stroke="#000000" points="633.9814,-830.5615 633.9814,-853.5615 765.9814,-853.5615 765.9814,-830.5615 633.9814,-830.5615"/>
<text text-anchor="start" x="638.8616" y="-839.6615" font-family="Helvetica,sans-Serif" font-weight="bold" font-size="11.00" fill="#000000">am_tasktemplates</text>
<text text-anchor="start" x="731.5033" y="-838.6615" font-family="Helvetica,sans-Serif" font-size="11.00" fill="#000000">[table]</text>
<polygon fill="none" stroke="#000000" points="633.9814,-811.5615 633.9814,-830.5615 765.9814,-830.5615 765.9814,-811.5615 633.9814,-811.5615"/>
<text text-anchor="start" x="636.9814" y="-817.6615" font-family="Helvetica,sans-Serif" font-size="11.00" fill="#000000">...</text>
<polygon fill="#ffffff" stroke="transparent" points="633.9814,-792.5615 633.9814,-811.5615 693.9814,-811.5615 693.9814,-792.5615 633.9814,-792.5615"/>
<polygon fill="none" stroke="#000000" points="633.9814,-792.5615 633.9814,-811.5615 693.9814,-811.5615 693.9814,-792.5615 633.9814,-792.5615"/>
<text text-anchor="start" x="636.9814" y="-798.6615" font-family="Helvetica,sans-Serif" font-size="11.00" fill="#000000">&lt; 3</text>
<polygon fill="#ffffff" stroke="transparent" points="693.9814,-792.5615 693.9814,-811.5615 724.9814,-811.5615 724.9814,-792.5615 693.9814,-792.5615"/>
<polygon fill="none" stroke="#000000" points="693.9814,-792.5615 693.9814,-811.5615 724.9814,-811.5615 724.9814,-792.5615 693.9814,-792.5615"/>
<text text-anchor="start" x="715.8676" y="-798.6615" font-family="Helvetica,sans-Serif" font-size="11.00" fill="#000000"> &#160;</text>
<polygon fill="#ffffff" stroke="transparent" points="724.9814,-792.5615 724.9814,-811.5615 765.9814,-811.5615 765.9814,-792.5615 724.9814,-792.5615"/>
<polygon fill="none" stroke="#000000" points="724.9814,-792.5615 724.9814,-811.5615 765.9814,-811.5615 765.9814,-792.5615 724.9814,-792.5615"/>
<text text-anchor="start" x="747.3867" y="-798.6615" font-family="Helvetica,sans-Serif" font-size="11.00" fill="#000000">2 &gt;</text>
</a>
</g>
</g>
<!-- am_tasktemplates&#45;&gt;users -->
<g id="edge12" class="edge">
<title>am_tasktemplates:w&#45;&gt;users:e</title>
<path fill="none" stroke="#000000" d="M620.5348,-815.3171C594.6444,-804.3594 582.8148,-793.2532 562.9814,-769.5615 525.1793,-724.4057 580.8716,-643.5615 521.9814,-656.5615"/>
<polygon fill="#000000" stroke="#000000" points="626.5282,-817.6546 632.6733,-823.9155 630.2548,-819.1081 633.9814,-820.5615 633.9814,-820.5615 633.9814,-820.5615 630.2548,-819.1081 635.2895,-817.2076 626.5282,-817.6546 626.5282,-817.6546"/>
<ellipse fill="none" stroke="#000000" cx="623.5469" cy="-816.4919" rx="3.2" ry="3.2"/>
</g>
<!-- am_tasktemplates&#45;&gt;users -->
<g id="edge13" class="edge">
<title>am_tasktemplates:w&#45;&gt;users:e</title>
<path fill="none" stroke="#000000" d="M619.4882,-819.843C594.3217,-817.0556 582.5456,-805.9316 562.9814,-782.5615 525.1793,-737.4057 580.8716,-656.5615 521.9814,-656.5615"/>
<polygon fill="#000000" stroke="#000000" points="625.9912,-820.1654 633.8031,-824.1571 629.9863,-820.3634 633.9814,-820.5615 633.9814,-820.5615 633.9814,-820.5615 629.9863,-820.3634 634.1597,-816.9659 625.9912,-820.1654 625.9912,-820.1654"/>
<ellipse fill="none" stroke="#000000" cx="622.7951" cy="-820.0069" rx="3.2" ry="3.2"/>
</g>
<!-- am_tasktemplates&#45;&gt;users -->
<g id="edge14" class="edge">
<title>am_tasktemplates:w&#45;&gt;users:e</title>
<path fill="none" stroke="#000000" d="M619.8354,-824.7422C594.4296,-830.1574 582.6353,-819.0388 562.9814,-795.5615 525.1793,-750.4057 580.8716,-669.5615 521.9814,-656.5615"/>
<polygon fill="#000000" stroke="#000000" points="626.3094,-822.8289 635.0017,-824.0139 630.1454,-821.6952 633.9814,-820.5615 633.9814,-820.5615 633.9814,-820.5615 630.1454,-821.6952 632.9611,-817.1091 626.3094,-822.8289 626.3094,-822.8289"/>
<ellipse fill="none" stroke="#000000" cx="623.2406" cy="-823.7358" rx="3.2" ry="3.2"/>
</g>
<!-- am_tasktemplates_am_projecttemplates_c -->
<g id="node11" class="node">
<title>am_tasktemplates_am_projecttemplates_c</title>
<g id="a_node11"><a xlink:href="../../tables/am_tasktemplates_am_projecttemplates_c.html" xlink:title="am_tasktemplates_am_projecttemplates_c" target="_top">
<polygon fill="#ffffff" stroke="transparent" points="877.9814,-841.0615 877.9814,-968.0615 1339.9814,-968.0615 1339.9814,-841.0615 877.9814,-841.0615"/>
<polygon fill="#f5f5f5" stroke="transparent" points="877.9814,-944.5615 877.9814,-967.5615 1339.9814,-967.5615 1339.9814,-944.5615 877.9814,-944.5615"/>
<polygon fill="none" stroke="#000000" points="877.9814,-944.5615 877.9814,-967.5615 1339.9814,-967.5615 1339.9814,-944.5615 877.9814,-944.5615"/>
<text text-anchor="start" x="882.9814" y="-953.6615" font-family="Helvetica,sans-Serif" font-weight="bold" font-size="11.00" fill="#000000">am_tasktemplates_am_projecttemplates_c</text>
<text text-anchor="start" x="1305.0251" y="-952.6615" font-family="Helvetica,sans-Serif" font-size="11.00" fill="#000000">[table]</text>
<polygon fill="none" stroke="#000000" points="877.9814,-922.5615 877.9814,-944.5615 1339.9814,-944.5615 1339.9814,-922.5615 877.9814,-922.5615"/>
<image xlink:href="../../images/primaryKeys.png" width="11px" height="12px" preserveAspectRatio="xMinYMin meet" x="882.981" y="-939.562"/>
<text text-anchor="start" x="897.9814" y="-929.6615" font-family="Helvetica,sans-Serif" font-size="11.00" fill="#000000">id</text>
<polygon fill="#ffffff" stroke="transparent" points="877.9814,-900.5615 877.9814,-922.5615 1339.9814,-922.5615 1339.9814,-900.5615 877.9814,-900.5615"/>
<polygon fill="none" stroke="#000000" points="877.9814,-900.5615 877.9814,-922.5615 1339.9814,-922.5615 1339.9814,-900.5615 877.9814,-900.5615"/>
<image xlink:href="../../images/foreignKeys.png" width="11px" height="12px" preserveAspectRatio="xMinYMin meet" x="882.981" y="-917.562"/>
<text text-anchor="start" x="897.9814" y="-907.6615" font-family="Helvetica,sans-Serif" font-size="11.00" fill="#000000">am_tasktemplates_am_projecttemplatesam_projecttemplates_ida</text>
<polygon fill="#ffffff" stroke="transparent" points="877.9814,-878.5615 877.9814,-900.5615 1339.9814,-900.5615 1339.9814,-878.5615 877.9814,-878.5615"/>
<polygon fill="none" stroke="#000000" points="877.9814,-878.5615 877.9814,-900.5615 1339.9814,-900.5615 1339.9814,-878.5615 877.9814,-878.5615"/>
<image xlink:href="../../images/foreignKeys.png" width="11px" height="12px" preserveAspectRatio="xMinYMin meet" x="882.981" y="-895.562"/>
<text text-anchor="start" x="897.9814" y="-885.6615" font-family="Helvetica,sans-Serif" font-size="11.00" fill="#000000">am_tasktemplates_am_projecttemplatesam_tasktemplates_idb</text>
<polygon fill="none" stroke="#000000" points="877.9814,-859.5615 877.9814,-878.5615 1339.9814,-878.5615 1339.9814,-859.5615 877.9814,-859.5615"/>
<text text-anchor="start" x="880.9814" y="-865.6615" font-family="Helvetica,sans-Serif" font-size="11.00" fill="#000000">...</text>
<polygon fill="#ffffff" stroke="transparent" points="877.9814,-840.5615 877.9814,-859.5615 1106.9814,-859.5615 1106.9814,-840.5615 877.9814,-840.5615"/>
<polygon fill="none" stroke="#000000" points="877.9814,-840.5615 877.9814,-859.5615 1106.9814,-859.5615 1106.9814,-840.5615 877.9814,-840.5615"/>
<text text-anchor="start" x="880.9814" y="-846.6615" font-family="Helvetica,sans-Serif" font-size="11.00" fill="#000000">&lt; 2</text>
<polygon fill="#ffffff" stroke="transparent" points="1106.9814,-840.5615 1106.9814,-859.5615 1222.9814,-859.5615 1222.9814,-840.5615 1106.9814,-840.5615"/>
<polygon fill="none" stroke="#000000" points="1106.9814,-840.5615 1106.9814,-859.5615 1222.9814,-859.5615 1222.9814,-840.5615 1106.9814,-840.5615"/>
<text text-anchor="start" x="1213.8676" y="-846.6615" font-family="Helvetica,sans-Serif" font-size="11.00" fill="#000000"> &#160;</text>
<polygon fill="#ffffff" stroke="transparent" points="1222.9814,-840.5615 1222.9814,-859.5615 1339.9814,-859.5615 1339.9814,-840.5615 1222.9814,-840.5615"/>
<polygon fill="none" stroke="#000000" points="1222.9814,-840.5615 1222.9814,-859.5615 1339.9814,-859.5615 1339.9814,-840.5615 1222.9814,-840.5615"/>
<text text-anchor="start" x="1330.8676" y="-846.6615" font-family="Helvetica,sans-Serif" font-size="11.00" fill="#000000"> &#160;</text>
</a>
</g>
</g>
<!-- am_tasktemplates_am_projecttemplates_c&#45;&gt;am_projecttemplates -->
<g id="edge15" class="edge">
<title>am_tasktemplates_am_projecttemplates_c:w&#45;&gt;am_projecttemplates:e</title>
<path fill="none" stroke="#000000" d="M863.6313,-913.1178C774.3887,-934.8354 941.5326,-1176.5615 826.9814,-1176.5615"/>
<polygon fill="#000000" stroke="#000000" points="870.028,-912.4241 878.3696,-915.1405 874.0047,-911.9928 877.9814,-911.5615 877.9814,-911.5615 877.9814,-911.5615 874.0047,-911.9928 877.5932,-907.9825 870.028,-912.4241 870.028,-912.4241"/>
<ellipse fill="none" stroke="#000000" cx="866.8467" cy="-912.7691" rx="3.2" ry="3.2"/>
</g>
<!-- am_tasktemplates_am_projecttemplates_c&#45;&gt;am_tasktemplates -->
<g id="edge16" class="edge">
<title>am_tasktemplates_am_projecttemplates_c:w&#45;&gt;am_tasktemplates:e</title>
<path fill="none" stroke="#000000" d="M863.93,-885.6541C833.7814,-871.0576 790.9893,-820.5615 765.9814,-820.5615"/>
<polygon fill="#000000" stroke="#000000" points="870.2739,-887.4182 877.0169,-893.0299 874.1276,-888.4898 877.9814,-889.5615 877.9814,-889.5615 877.9814,-889.5615 874.1276,-888.4898 878.9459,-886.0931 870.2739,-887.4182 870.2739,-887.4182"/>
<ellipse fill="none" stroke="#000000" cx="867.1909" cy="-886.5608" rx="3.2" ry="3.2"/>
</g>
<!-- calls_users -->
<g id="node12" class="node">
<title>calls_users</title>
<g id="a_node12"><a xlink:href="../../tables/calls_users.html" xlink:title="calls_users" target="_top">
<polygon fill="#ffffff" stroke="transparent" points="650.9814,-629.0615 650.9814,-690.0615 748.9814,-690.0615 748.9814,-629.0615 650.9814,-629.0615"/>
<polygon fill="#f5f5f5" stroke="transparent" points="650.9814,-666.5615 650.9814,-689.5615 748.9814,-689.5615 748.9814,-666.5615 650.9814,-666.5615"/>
<polygon fill="none" stroke="#000000" points="650.9814,-666.5615 650.9814,-689.5615 748.9814,-689.5615 748.9814,-666.5615 650.9814,-666.5615"/>
<text text-anchor="start" x="655.9798" y="-675.6615" font-family="Helvetica,sans-Serif" font-weight="bold" font-size="11.00" fill="#000000">calls_users</text>
<text text-anchor="start" x="714.5033" y="-674.6615" font-family="Helvetica,sans-Serif" font-size="11.00" fill="#000000">[table]</text>
<polygon fill="none" stroke="#000000" points="650.9814,-647.5615 650.9814,-666.5615 748.9814,-666.5615 748.9814,-647.5615 650.9814,-647.5615"/>
<text text-anchor="start" x="653.9814" y="-653.6615" font-family="Helvetica,sans-Serif" font-size="11.00" fill="#000000">...</text>
<polygon fill="#ffffff" stroke="transparent" points="650.9814,-628.5615 650.9814,-647.5615 697.9814,-647.5615 697.9814,-628.5615 650.9814,-628.5615"/>
<polygon fill="none" stroke="#000000" points="650.9814,-628.5615 650.9814,-647.5615 697.9814,-647.5615 697.9814,-628.5615 650.9814,-628.5615"/>
<text text-anchor="start" x="653.9814" y="-634.6615" font-family="Helvetica,sans-Serif" font-size="11.00" fill="#000000">&lt; 2</text>
<polygon fill="#ffffff" stroke="transparent" points="697.9814,-628.5615 697.9814,-647.5615 722.9814,-647.5615 722.9814,-628.5615 697.9814,-628.5615"/>
<polygon fill="none" stroke="#000000" points="697.9814,-628.5615 697.9814,-647.5615 722.9814,-647.5615 722.9814,-628.5615 697.9814,-628.5615"/>
<text text-anchor="start" x="713.8676" y="-634.6615" font-family="Helvetica,sans-Serif" font-size="11.00" fill="#000000"> &#160;</text>
<polygon fill="#ffffff" stroke="transparent" points="722.9814,-628.5615 722.9814,-647.5615 748.9814,-647.5615 748.9814,-628.5615 722.9814,-628.5615"/>
<polygon fill="none" stroke="#000000" points="722.9814,-628.5615 722.9814,-647.5615 748.9814,-647.5615 748.9814,-628.5615 722.9814,-628.5615"/>
<text text-anchor="start" x="739.8676" y="-634.6615" font-family="Helvetica,sans-Serif" font-size="11.00" fill="#000000"> &#160;</text>
</a>
</g>
</g>
<!-- calls_users&#45;&gt;users -->
<g id="edge17" class="edge">
<title>calls_users:w&#45;&gt;users:e</title>
<path fill="none" stroke="#000000" d="M636.5072,-656.5615C590.7255,-656.5615 574.1637,-656.5615 521.9814,-656.5615"/>
<polygon fill="#000000" stroke="#000000" points="642.9814,-656.5616 650.9814,-660.1615 646.9814,-656.5616 650.9814,-656.5615 650.9814,-656.5615 650.9814,-656.5615 646.9814,-656.5616 650.9814,-652.9615 642.9814,-656.5616 642.9814,-656.5616"/>
<ellipse fill="none" stroke="#000000" cx="639.7814" cy="-656.5616" rx="3.2" ry="3.2"/>
</g>
<!-- campaign_log&#45;&gt;contacts -->
<g id="edge18" class="edge">
<title>campaign_log:w&#45;&gt;contacts:e</title>
<path fill="none" stroke="#000000" d="M131.9723,-586.5615C120.6588,-586.5615 113.4745,-586.5615 97.4814,-586.5615"/>
<polygon fill="#000000" stroke="#000000" points="138.4814,-586.5616 146.4814,-590.1615 142.4814,-586.5616 146.4814,-586.5615 146.4814,-586.5615 146.4814,-586.5615 142.4814,-586.5616 146.4814,-582.9615 138.4814,-586.5616 138.4814,-586.5616"/>
<ellipse fill="none" stroke="#000000" cx="135.2814" cy="-586.5616" rx="3.2" ry="3.2"/>
</g>
<!-- contacts_users -->
<g id="node14" class="node">
<title>contacts_users</title>
<g id="a_node14"><a xlink:href="../../tables/contacts_users.html" xlink:title="contacts_users" target="_top">
<polygon fill="#ffffff" stroke="transparent" points="641.9814,-245.0615 641.9814,-306.0615 757.9814,-306.0615 757.9814,-245.0615 641.9814,-245.0615"/>
<polygon fill="#f5f5f5" stroke="transparent" points="641.9814,-282.5615 641.9814,-305.5615 757.9814,-305.5615 757.9814,-282.5615 641.9814,-282.5615"/>
<polygon fill="none" stroke="#000000" points="641.9814,-282.5615 641.9814,-305.5615 757.9814,-305.5615 757.9814,-282.5615 641.9814,-282.5615"/>
<text text-anchor="start" x="646.4989" y="-291.6615" font-family="Helvetica,sans-Serif" font-weight="bold" font-size="11.00" fill="#000000">contacts_users</text>
<text text-anchor="start" x="723.5033" y="-290.6615" font-family="Helvetica,sans-Serif" font-size="11.00" fill="#000000">[table]</text>
<polygon fill="none" stroke="#000000" points="641.9814,-263.5615 641.9814,-282.5615 757.9814,-282.5615 757.9814,-263.5615 641.9814,-263.5615"/>
<text text-anchor="start" x="644.9814" y="-269.6615" font-family="Helvetica,sans-Serif" font-size="11.00" fill="#000000">...</text>
<polygon fill="#ffffff" stroke="transparent" points="641.9814,-244.5615 641.9814,-263.5615 697.9814,-263.5615 697.9814,-244.5615 641.9814,-244.5615"/>
<polygon fill="none" stroke="#000000" points="641.9814,-244.5615 641.9814,-263.5615 697.9814,-263.5615 697.9814,-244.5615 641.9814,-244.5615"/>
<text text-anchor="start" x="644.9814" y="-250.6615" font-family="Helvetica,sans-Serif" font-size="11.00" fill="#000000">&lt; 2</text>
<polygon fill="#ffffff" stroke="transparent" points="697.9814,-244.5615 697.9814,-263.5615 727.9814,-263.5615 727.9814,-244.5615 697.9814,-244.5615"/>
<polygon fill="none" stroke="#000000" points="697.9814,-244.5615 697.9814,-263.5615 727.9814,-263.5615 727.9814,-244.5615 697.9814,-244.5615"/>
<text text-anchor="start" x="718.8676" y="-250.6615" font-family="Helvetica,sans-Serif" font-size="11.00" fill="#000000"> &#160;</text>
<polygon fill="#ffffff" stroke="transparent" points="727.9814,-244.5615 727.9814,-263.5615 757.9814,-263.5615 757.9814,-244.5615 727.9814,-244.5615"/>
<polygon fill="none" stroke="#000000" points="727.9814,-244.5615 727.9814,-263.5615 757.9814,-263.5615 757.9814,-244.5615 727.9814,-244.5615"/>
<text text-anchor="start" x="748.8676" y="-250.6615" font-family="Helvetica,sans-Serif" font-size="11.00" fill="#000000"> &#160;</text>
</a>
</g>
</g>
<!-- contacts_users&#45;&gt;users -->
<g id="edge24" class="edge">
<title>contacts_users:w&#45;&gt;users:e</title>
<path fill="none" stroke="#000000" d="M627.5611,-273.1176C597.4623,-275.6809 582.4973,-287.4968 562.9814,-316.5615 520.5575,-379.7428 598.0843,-656.5615 521.9814,-656.5615"/>
<polygon fill="#000000" stroke="#000000" points="633.9873,-272.8698 642.1201,-276.1589 637.9844,-272.7157 641.9814,-272.5615 641.9814,-272.5615 641.9814,-272.5615 637.9844,-272.7157 641.8427,-268.9642 633.9873,-272.8698 633.9873,-272.8698"/>
<ellipse fill="none" stroke="#000000" cx="630.7897" cy="-272.9931" rx="3.2" ry="3.2"/>
</g>
<!-- contacts_users&#45;&gt;contacts -->
<g id="edge23" class="edge">
<title>contacts_users:w&#45;&gt;contacts:e</title>
<path fill="none" stroke="#000000" d="M627.2588,-272.7051C384.8958,-277.4964 340.711,-401.589 137.9814,-548.5615 117.9978,-563.049 122.1641,-586.5615 97.4814,-586.5615"/>
<polygon fill="#000000" stroke="#000000" points="633.9818,-272.6396 642.0165,-276.1614 637.9816,-272.6006 641.9814,-272.5615 641.9814,-272.5615 641.9814,-272.5615 637.9816,-272.6006 641.9463,-268.9617 633.9818,-272.6396 633.9818,-272.6396"/>
<ellipse fill="none" stroke="#000000" cx="630.7819" cy="-272.6708" rx="3.2" ry="3.2"/>
</g>
<!-- email_addr_bean_rel -->
<g id="node15" class="node">
<title>email_addr_bean_rel</title>
<g id="a_node15"><a xlink:href="../../tables/email_addr_bean_rel.html" xlink:title="email_addr_bean_rel" target="_top">
<polygon fill="#ffffff" stroke="transparent" points="626.9814,-163.0615 626.9814,-224.0615 772.9814,-224.0615 772.9814,-163.0615 626.9814,-163.0615"/>
<polygon fill="#f5f5f5" stroke="transparent" points="626.9814,-200.5615 626.9814,-223.5615 772.9814,-223.5615 772.9814,-200.5615 626.9814,-200.5615"/>
<polygon fill="none" stroke="#000000" points="626.9814,-200.5615 626.9814,-223.5615 772.9814,-223.5615 772.9814,-200.5615 626.9814,-200.5615"/>
<text text-anchor="start" x="631.8304" y="-209.6615" font-family="Helvetica,sans-Serif" font-weight="bold" font-size="11.00" fill="#000000">email_addr_bean_rel</text>
<text text-anchor="start" x="738.5033" y="-208.6615" font-family="Helvetica,sans-Serif" font-size="11.00" fill="#000000">[table]</text>
<polygon fill="none" stroke="#000000" points="626.9814,-181.5615 626.9814,-200.5615 772.9814,-200.5615 772.9814,-181.5615 626.9814,-181.5615"/>
<text text-anchor="start" x="629.9814" y="-187.6615" font-family="Helvetica,sans-Serif" font-size="11.00" fill="#000000">...</text>
<polygon fill="#ffffff" stroke="transparent" points="626.9814,-162.5615 626.9814,-181.5615 697.9814,-181.5615 697.9814,-162.5615 626.9814,-162.5615"/>
<polygon fill="none" stroke="#000000" points="626.9814,-162.5615 626.9814,-181.5615 697.9814,-181.5615 697.9814,-162.5615 626.9814,-162.5615"/>
<text text-anchor="start" x="629.9814" y="-168.6615" font-family="Helvetica,sans-Serif" font-size="11.00" fill="#000000">&lt; 6</text>
<polygon fill="#ffffff" stroke="transparent" points="697.9814,-162.5615 697.9814,-181.5615 734.9814,-181.5615 734.9814,-162.5615 697.9814,-162.5615"/>
<polygon fill="none" stroke="#000000" points="697.9814,-162.5615 697.9814,-181.5615 734.9814,-181.5615 734.9814,-162.5615 697.9814,-162.5615"/>
<text text-anchor="start" x="725.8676" y="-168.6615" font-family="Helvetica,sans-Serif" font-size="11.00" fill="#000000"> &#160;</text>
<polygon fill="#ffffff" stroke="transparent" points="734.9814,-162.5615 734.9814,-181.5615 772.9814,-181.5615 772.9814,-162.5615 734.9814,-162.5615"/>
<polygon fill="none" stroke="#000000" points="734.9814,-162.5615 734.9814,-181.5615 772.9814,-181.5615 772.9814,-162.5615 734.9814,-162.5615"/>
<text text-anchor="start" x="763.8676" y="-168.6615" font-family="Helvetica,sans-Serif" font-size="11.00" fill="#000000"> &#160;</text>
</a>
</g>
</g>
<!-- email_addr_bean_rel&#45;&gt;users -->
<g id="edge26" class="edge">
<title>email_addr_bean_rel:w&#45;&gt;users:e</title>
<path fill="none" stroke="#000000" d="M612.3464,-191.6109C588.5921,-195.3969 577.7722,-209.4721 562.9814,-234.5615 539.057,-275.1441 569.0911,-656.5615 521.9814,-656.5615"/>
<polygon fill="#000000" stroke="#000000" points="619.0019,-191.1337 627.2389,-194.1523 622.9917,-190.8476 626.9814,-190.5615 626.9814,-190.5615 626.9814,-190.5615 622.9917,-190.8476 626.7239,-186.9707 619.0019,-191.1337 619.0019,-191.1337"/>
<ellipse fill="none" stroke="#000000" cx="615.8101" cy="-191.3626" rx="3.2" ry="3.2"/>
</g>
<!-- email_addr_bean_rel&#45;&gt;contacts -->
<g id="edge25" class="edge">
<title>email_addr_bean_rel:w&#45;&gt;contacts:e</title>
<path fill="none" stroke="#000000" d="M612.2325,-190.6054C472.3117,-191.4748 424.4933,-205.7923 297.9814,-279.5615 210.5609,-330.5365 188.7707,-354.033 137.9814,-441.5615 104.3997,-499.4351 164.3924,-586.5615 97.4814,-586.5615"/>
<polygon fill="#000000" stroke="#000000" points="618.9814,-190.5854 626.9921,-194.1615 622.9814,-190.5734 626.9814,-190.5615 626.9814,-190.5615 626.9814,-190.5615 622.9814,-190.5734 626.9707,-186.9615 618.9814,-190.5854 618.9814,-190.5854"/>
<ellipse fill="none" stroke="#000000" cx="615.7815" cy="-190.5949" rx="3.2" ry="3.2"/>
</g>
<!-- emails_beans -->
<g id="node16" class="node">
<title>emails_beans</title>
<g id="a_node16"><a xlink:href="../../tables/emails_beans.html" xlink:title="emails_beans" target="_top">
<polygon fill="#ffffff" stroke="transparent" points="1053.9814,-529.0615 1053.9814,-590.0615 1163.9814,-590.0615 1163.9814,-529.0615 1053.9814,-529.0615"/>
<polygon fill="#f5f5f5" stroke="transparent" points="1053.9814,-566.5615 1053.9814,-589.5615 1163.9814,-589.5615 1163.9814,-566.5615 1053.9814,-566.5615"/>
<polygon fill="none" stroke="#000000" points="1053.9814,-566.5615 1053.9814,-589.5615 1163.9814,-589.5615 1163.9814,-566.5615 1053.9814,-566.5615"/>
<text text-anchor="start" x="1058.5574" y="-575.6615" font-family="Helvetica,sans-Serif" font-weight="bold" font-size="11.00" fill="#000000">emails_beans</text>
<text text-anchor="start" x="1129.5033" y="-574.6615" font-family="Helvetica,sans-Serif" font-size="11.00" fill="#000000">[table]</text>
<polygon fill="none" stroke="#000000" points="1053.9814,-547.5615 1053.9814,-566.5615 1163.9814,-566.5615 1163.9814,-547.5615 1053.9814,-547.5615"/>
<text text-anchor="start" x="1056.9814" y="-553.6615" font-family="Helvetica,sans-Serif" font-size="11.00" fill="#000000">...</text>
<polygon fill="#ffffff" stroke="transparent" points="1053.9814,-528.5615 1053.9814,-547.5615 1109.9814,-547.5615 1109.9814,-528.5615 1053.9814,-528.5615"/>
<polygon fill="none" stroke="#000000" points="1053.9814,-528.5615 1053.9814,-547.5615 1109.9814,-547.5615 1109.9814,-528.5615 1053.9814,-528.5615"/>
<text text-anchor="start" x="1056.9814" y="-534.6615" font-family="Helvetica,sans-Serif" font-size="11.00" fill="#000000">&lt; 14</text>
<polygon fill="#ffffff" stroke="transparent" points="1109.9814,-528.5615 1109.9814,-547.5615 1136.9814,-547.5615 1136.9814,-528.5615 1109.9814,-528.5615"/>
<polygon fill="none" stroke="#000000" points="1109.9814,-528.5615 1109.9814,-547.5615 1136.9814,-547.5615 1136.9814,-528.5615 1109.9814,-528.5615"/>
<text text-anchor="start" x="1127.8676" y="-534.6615" font-family="Helvetica,sans-Serif" font-size="11.00" fill="#000000"> &#160;</text>
<polygon fill="#ffffff" stroke="transparent" points="1136.9814,-528.5615 1136.9814,-547.5615 1163.9814,-547.5615 1163.9814,-528.5615 1136.9814,-528.5615"/>
<polygon fill="none" stroke="#000000" points="1136.9814,-528.5615 1136.9814,-547.5615 1163.9814,-547.5615 1163.9814,-528.5615 1136.9814,-528.5615"/>
<text text-anchor="start" x="1154.8676" y="-534.6615" font-family="Helvetica,sans-Serif" font-size="11.00" fill="#000000"> &#160;</text>
</a>
</g>
</g>
<!-- emails_beans&#45;&gt;users -->
<g id="edge29" class="edge">
<title>emails_beans:w&#45;&gt;users:e</title>
<path fill="none" stroke="#000000" d="M1039.4059,-556.7299C953.8257,-558.7608 928.7851,-578.6875 836.9814,-590.5615 715.5807,-606.2637 674.5217,-568.1288 562.9814,-618.5615 540.3428,-628.7975 546.8266,-656.5615 521.9814,-656.5615"/>
<polygon fill="#000000" stroke="#000000" points="1045.9819,-556.654 1054.023,-560.1613 1049.9817,-556.6078 1053.9814,-556.5615 1053.9814,-556.5615 1053.9814,-556.5615 1049.9817,-556.6078 1053.9398,-552.9618 1045.9819,-556.654 1045.9819,-556.654"/>
<ellipse fill="none" stroke="#000000" cx="1042.7822" cy="-556.691" rx="3.2" ry="3.2"/>
</g>
<!-- emails_beans&#45;&gt;contacts -->
<g id="edge27" class="edge">
<title>emails_beans:w&#45;&gt;contacts:e</title>
<path fill="none" stroke="#000000" d="M1039.3556,-556.0726C826.6034,-541.3156 1031.1765,-196.5267 836.9814,-70.5615 734.8148,-4.2908 681.977,-44.6798 562.9814,-70.5615 353.9342,-116.0296 252.4168,-115.8058 137.9814,-296.5615 103.175,-351.5397 162.5513,-586.5615 97.4814,-586.5615"/>
<polygon fill="#000000" stroke="#000000" points="1045.9859,-556.2942 1053.8611,-560.1595 1049.9836,-556.4279 1053.9814,-556.5615 1053.9814,-556.5615 1053.9814,-556.5615 1049.9836,-556.4279 1054.1017,-552.9635 1045.9859,-556.2942 1045.9859,-556.2942"/>
<ellipse fill="none" stroke="#000000" cx="1042.7877" cy="-556.1873" rx="3.2" ry="3.2"/>
</g>
<!-- emails_beans&#45;&gt;project -->
<g id="edge28" class="edge">
<title>emails_beans:w&#45;&gt;project:e</title>
<path fill="none" stroke="#000000" d="M1039.1996,-556.4379C965.2069,-555.2546 928.1342,-547.1007 869.9814,-600.5615 835.5267,-632.2363 869.2759,-666.687 836.9814,-700.5615 804.4605,-734.6735 785.1114,-738.5615 737.9814,-738.5615"/>
<polygon fill="#000000" stroke="#000000" points="1045.9817,-556.4946 1053.9513,-560.1614 1049.9815,-556.5281 1053.9814,-556.5615 1053.9814,-556.5615 1053.9814,-556.5615 1049.9815,-556.5281 1054.0115,-552.9617 1045.9817,-556.4946 1045.9817,-556.4946"/>
<ellipse fill="none" stroke="#000000" cx="1042.7818" cy="-556.4678" rx="3.2" ry="3.2"/>
</g>
<!-- meetings_users -->
<g id="node17" class="node">
<title>meetings_users</title>
<g id="a_node17"><a xlink:href="../../tables/meetings_users.html" xlink:title="meetings_users" target="_top">
<polygon fill="#ffffff" stroke="transparent" points="639.9814,-519.0615 639.9814,-580.0615 759.9814,-580.0615 759.9814,-519.0615 639.9814,-519.0615"/>
<polygon fill="#f5f5f5" stroke="transparent" points="639.9814,-556.5615 639.9814,-579.5615 759.9814,-579.5615 759.9814,-556.5615 639.9814,-556.5615"/>
<polygon fill="none" stroke="#000000" points="639.9814,-556.5615 639.9814,-579.5615 759.9814,-579.5615 759.9814,-556.5615 639.9814,-556.5615"/>
<text text-anchor="start" x="644.6685" y="-565.6615" font-family="Helvetica,sans-Serif" font-weight="bold" font-size="11.00" fill="#000000">meetings_users</text>
<text text-anchor="start" x="725.5033" y="-564.6615" font-family="Helvetica,sans-Serif" font-size="11.00" fill="#000000">[table]</text>
<polygon fill="none" stroke="#000000" points="639.9814,-537.5615 639.9814,-556.5615 759.9814,-556.5615 759.9814,-537.5615 639.9814,-537.5615"/>
<text text-anchor="start" x="642.9814" y="-543.6615" font-family="Helvetica,sans-Serif" font-size="11.00" fill="#000000">...</text>
<polygon fill="#ffffff" stroke="transparent" points="639.9814,-518.5615 639.9814,-537.5615 697.9814,-537.5615 697.9814,-518.5615 639.9814,-518.5615"/>
<polygon fill="none" stroke="#000000" points="639.9814,-518.5615 639.9814,-537.5615 697.9814,-537.5615 697.9814,-518.5615 639.9814,-518.5615"/>
<text text-anchor="start" x="642.9814" y="-524.6615" font-family="Helvetica,sans-Serif" font-size="11.00" fill="#000000">&lt; 2</text>
<polygon fill="#ffffff" stroke="transparent" points="697.9814,-518.5615 697.9814,-537.5615 728.9814,-537.5615 728.9814,-518.5615 697.9814,-518.5615"/>
<polygon fill="none" stroke="#000000" points="697.9814,-518.5615 697.9814,-537.5615 728.9814,-537.5615 728.9814,-518.5615 697.9814,-518.5615"/>
<text text-anchor="start" x="719.8676" y="-524.6615" font-family="Helvetica,sans-Serif" font-size="11.00" fill="#000000"> &#160;</text>
<polygon fill="#ffffff" stroke="transparent" points="728.9814,-518.5615 728.9814,-537.5615 759.9814,-537.5615 759.9814,-518.5615 728.9814,-518.5615"/>
<polygon fill="none" stroke="#000000" points="728.9814,-518.5615 728.9814,-537.5615 759.9814,-537.5615 759.9814,-518.5615 728.9814,-518.5615"/>
<text text-anchor="start" x="750.8676" y="-524.6615" font-family="Helvetica,sans-Serif" font-size="11.00" fill="#000000"> &#160;</text>
</a>
</g>
</g>
<!-- meetings_users&#45;&gt;users -->
<g id="edge30" class="edge">
<title>meetings_users:w&#45;&gt;users:e</title>
<path fill="none" stroke="#000000" d="M625.5103,-547.5858C597.216,-551.9851 588.0393,-570.1673 562.9814,-594.5615 539.3103,-617.6057 555.0171,-656.5615 521.9814,-656.5615"/>
<polygon fill="#000000" stroke="#000000" points="632.0014,-547.1264 640.2356,-550.1525 635.9914,-546.844 639.9814,-546.5615 639.9814,-546.5615 639.9814,-546.5615 635.9914,-546.844 639.7272,-542.9705 632.0014,-547.1264 632.0014,-547.1264"/>
<ellipse fill="none" stroke="#000000" cx="628.8094" cy="-547.3524" rx="3.2" ry="3.2"/>
</g>
<!-- project_users_1_c -->
<g id="node18" class="node">
<title>project_users_1_c</title>
<g id="a_node18"><a xlink:href="../../tables/project_users_1_c.html" xlink:title="project_users_1_c" target="_top">
<polygon fill="#ffffff" stroke="transparent" points="1042.9814,-611.0615 1042.9814,-672.0615 1174.9814,-672.0615 1174.9814,-611.0615 1042.9814,-611.0615"/>
<polygon fill="#f5f5f5" stroke="transparent" points="1042.9814,-648.5615 1042.9814,-671.5615 1174.9814,-671.5615 1174.9814,-648.5615 1042.9814,-648.5615"/>
<polygon fill="none" stroke="#000000" points="1042.9814,-648.5615 1042.9814,-671.5615 1174.9814,-671.5615 1174.9814,-648.5615 1042.9814,-648.5615"/>
<text text-anchor="start" x="1047.5536" y="-657.6615" font-family="Helvetica,sans-Serif" font-weight="bold" font-size="11.00" fill="#000000">project_users_1_c</text>
<text text-anchor="start" x="1140.5033" y="-656.6615" font-family="Helvetica,sans-Serif" font-size="11.00" fill="#000000">[table]</text>
<polygon fill="none" stroke="#000000" points="1042.9814,-629.5615 1042.9814,-648.5615 1174.9814,-648.5615 1174.9814,-629.5615 1042.9814,-629.5615"/>
<text text-anchor="start" x="1045.9814" y="-635.6615" font-family="Helvetica,sans-Serif" font-size="11.00" fill="#000000">...</text>
<polygon fill="#ffffff" stroke="transparent" points="1042.9814,-610.5615 1042.9814,-629.5615 1106.9814,-629.5615 1106.9814,-610.5615 1042.9814,-610.5615"/>
<polygon fill="none" stroke="#000000" points="1042.9814,-610.5615 1042.9814,-629.5615 1106.9814,-629.5615 1106.9814,-610.5615 1042.9814,-610.5615"/>
<text text-anchor="start" x="1045.9814" y="-616.6615" font-family="Helvetica,sans-Serif" font-size="11.00" fill="#000000">&lt; 2</text>
<polygon fill="#ffffff" stroke="transparent" points="1106.9814,-610.5615 1106.9814,-629.5615 1140.9814,-629.5615 1140.9814,-610.5615 1106.9814,-610.5615"/>
<polygon fill="none" stroke="#000000" points="1106.9814,-610.5615 1106.9814,-629.5615 1140.9814,-629.5615 1140.9814,-610.5615 1106.9814,-610.5615"/>
<text text-anchor="start" x="1131.8676" y="-616.6615" font-family="Helvetica,sans-Serif" font-size="11.00" fill="#000000"> &#160;</text>
<polygon fill="#ffffff" stroke="transparent" points="1140.9814,-610.5615 1140.9814,-629.5615 1174.9814,-629.5615 1174.9814,-610.5615 1140.9814,-610.5615"/>
<polygon fill="none" stroke="#000000" points="1140.9814,-610.5615 1140.9814,-629.5615 1174.9814,-629.5615 1174.9814,-610.5615 1140.9814,-610.5615"/>
<text text-anchor="start" x="1165.8676" y="-616.6615" font-family="Helvetica,sans-Serif" font-size="11.00" fill="#000000"> &#160;</text>
</a>
</g>
</g>
<!-- project_users_1_c&#45;&gt;users -->
<g id="edge35" class="edge">
<title>project_users_1_c:w&#45;&gt;users:e</title>
<path fill="none" stroke="#000000" d="M1028.2846,-638.7144C959.6274,-640.0903 925.2869,-649.1963 869.9814,-600.5615 837.3606,-571.8753 872.507,-533.5605 836.9814,-508.5615 787.1858,-473.5208 611.444,-471.6992 562.9814,-508.5615 508.6559,-549.8835 590.2366,-656.5615 521.9814,-656.5615"/>
<polygon fill="#000000" stroke="#000000" points="1034.9818,-638.6448 1043.0189,-642.1613 1038.9816,-638.6032 1042.9814,-638.5615 1042.9814,-638.5615 1042.9814,-638.5615 1038.9816,-638.6032 1042.9439,-634.9617 1034.9818,-638.6448 1034.9818,-638.6448"/>
<ellipse fill="none" stroke="#000000" cx="1031.782" cy="-638.6781" rx="3.2" ry="3.2"/>
</g>
<!-- project_users_1_c&#45;&gt;project -->
<g id="edge34" class="edge">
<title>project_users_1_c:w&#45;&gt;project:e</title>
<path fill="none" stroke="#000000" d="M1028.3523,-638.7482C960.8657,-640.5533 939.0684,-655.4308 869.9814,-682.5615 854.4309,-688.6683 852.1467,-693.5527 836.9814,-700.5615 794.1995,-720.3337 785.1114,-738.5615 737.9814,-738.5615"/>
<polygon fill="#000000" stroke="#000000" points="1034.9821,-638.6637 1043.0274,-642.1612 1038.9817,-638.6126 1042.9814,-638.5615 1042.9814,-638.5615 1042.9814,-638.5615 1038.9817,-638.6126 1042.9355,-634.9618 1034.9821,-638.6637 1034.9821,-638.6637"/>
<ellipse fill="none" stroke="#000000" cx="1031.7823" cy="-638.7045" rx="3.2" ry="3.2"/>
</g>
<!-- prospect_lists_prospects -->
<g id="node19" class="node">
<title>prospect_lists_prospects</title>
<g id="a_node19"><a xlink:href="../../tables/prospect_lists_prospects.html" xlink:title="prospect_lists_prospects" target="_top">
<polygon fill="#ffffff" stroke="transparent" points="617.9814,-81.0615 617.9814,-142.0615 781.9814,-142.0615 781.9814,-81.0615 617.9814,-81.0615"/>
<polygon fill="#f5f5f5" stroke="transparent" points="617.9814,-118.5615 617.9814,-141.5615 781.9814,-141.5615 781.9814,-118.5615 617.9814,-118.5615"/>
<polygon fill="none" stroke="#000000" points="617.9814,-118.5615 617.9814,-141.5615 781.9814,-141.5615 781.9814,-118.5615 617.9814,-118.5615"/>
<text text-anchor="start" x="622.9688" y="-127.6615" font-family="Helvetica,sans-Serif" font-weight="bold" font-size="11.00" fill="#000000">prospect_lists_prospects</text>
<text text-anchor="start" x="747.5033" y="-126.6615" font-family="Helvetica,sans-Serif" font-size="11.00" fill="#000000">[table]</text>
<polygon fill="none" stroke="#000000" points="617.9814,-99.5615 617.9814,-118.5615 781.9814,-118.5615 781.9814,-99.5615 617.9814,-99.5615"/>
<text text-anchor="start" x="620.9814" y="-105.6615" font-family="Helvetica,sans-Serif" font-size="11.00" fill="#000000">...</text>
<polygon fill="#ffffff" stroke="transparent" points="617.9814,-80.5615 617.9814,-99.5615 697.9814,-99.5615 697.9814,-80.5615 617.9814,-80.5615"/>
<polygon fill="none" stroke="#000000" points="617.9814,-80.5615 617.9814,-99.5615 697.9814,-99.5615 697.9814,-80.5615 617.9814,-80.5615"/>
<text text-anchor="start" x="620.9814" y="-86.6615" font-family="Helvetica,sans-Serif" font-size="11.00" fill="#000000">&lt; 6</text>
<polygon fill="#ffffff" stroke="transparent" points="697.9814,-80.5615 697.9814,-99.5615 739.9814,-99.5615 739.9814,-80.5615 697.9814,-80.5615"/>
<polygon fill="none" stroke="#000000" points="697.9814,-80.5615 697.9814,-99.5615 739.9814,-99.5615 739.9814,-80.5615 697.9814,-80.5615"/>
<text text-anchor="start" x="730.8676" y="-86.6615" font-family="Helvetica,sans-Serif" font-size="11.00" fill="#000000"> &#160;</text>
<polygon fill="#ffffff" stroke="transparent" points="739.9814,-80.5615 739.9814,-99.5615 781.9814,-99.5615 781.9814,-80.5615 739.9814,-80.5615"/>
<polygon fill="none" stroke="#000000" points="739.9814,-80.5615 739.9814,-99.5615 781.9814,-99.5615 781.9814,-80.5615 739.9814,-80.5615"/>
<text text-anchor="start" x="772.8676" y="-86.6615" font-family="Helvetica,sans-Serif" font-size="11.00" fill="#000000"> &#160;</text>
</a>
</g>
</g>
<!-- prospect_lists_prospects&#45;&gt;users -->
<g id="edge37" class="edge">
<title>prospect_lists_prospects:w&#45;&gt;users:e</title>
<path fill="none" stroke="#000000" d="M603.3887,-110.0504C583.3367,-114.6613 575.0927,-129.7792 562.9814,-152.5615 536.6081,-202.172 578.1664,-656.5615 521.9814,-656.5615"/>
<polygon fill="#000000" stroke="#000000" points="610.0227,-109.3736 618.3468,-112.1429 614.0021,-108.9676 617.9814,-108.5615 617.9814,-108.5615 617.9814,-108.5615 614.0021,-108.9676 617.616,-104.9801 610.0227,-109.3736 610.0227,-109.3736"/>
<ellipse fill="none" stroke="#000000" cx="606.8393" cy="-109.6984" rx="3.2" ry="3.2"/>
</g>
<!-- prospect_lists_prospects&#45;&gt;contacts -->
<g id="edge36" class="edge">
<title>prospect_lists_prospects:w&#45;&gt;contacts:e</title>
<path fill="none" stroke="#000000" d="M603.353,-108.5558C383.357,-108.4137 257.9026,-107.1408 137.9814,-296.5615 103.175,-351.5397 162.5513,-586.5615 97.4814,-586.5615"/>
<polygon fill="#000000" stroke="#000000" points="609.9814,-108.5584 617.98,-112.1615 613.9814,-108.5599 617.9814,-108.5615 617.9814,-108.5615 617.9814,-108.5615 613.9814,-108.5599 617.9828,-104.9615 609.9814,-108.5584 609.9814,-108.5584"/>
<ellipse fill="none" stroke="#000000" cx="606.7814" cy="-108.5571" rx="3.2" ry="3.2"/>
</g>
<!-- roles_users -->
<g id="node20" class="node">
<title>roles_users</title>
<g id="a_node20"><a xlink:href="../../tables/roles_users.html" xlink:title="roles_users" target="_top">
<polygon fill="#ffffff" stroke="transparent" points="650.4814,-409.0615 650.4814,-470.0615 749.4814,-470.0615 749.4814,-409.0615 650.4814,-409.0615"/>
<polygon fill="#f5f5f5" stroke="transparent" points="650.9814,-446.5615 650.9814,-469.5615 749.9814,-469.5615 749.9814,-446.5615 650.9814,-446.5615"/>
<polygon fill="none" stroke="#000000" points="650.9814,-446.5615 650.9814,-469.5615 749.9814,-469.5615 749.9814,-446.5615 650.9814,-446.5615"/>
<text text-anchor="start" x="655.5618" y="-455.6615" font-family="Helvetica,sans-Serif" font-weight="bold" font-size="11.00" fill="#000000">roles_users</text>
<text text-anchor="start" x="715.5033" y="-454.6615" font-family="Helvetica,sans-Serif" font-size="11.00" fill="#000000">[table]</text>
<polygon fill="none" stroke="#000000" points="650.9814,-427.5615 650.9814,-446.5615 749.9814,-446.5615 749.9814,-427.5615 650.9814,-427.5615"/>
<text text-anchor="start" x="653.9814" y="-433.6615" font-family="Helvetica,sans-Serif" font-size="11.00" fill="#000000">...</text>
<polygon fill="#ffffff" stroke="transparent" points="650.9814,-408.5615 650.9814,-427.5615 698.9814,-427.5615 698.9814,-408.5615 650.9814,-408.5615"/>
<polygon fill="none" stroke="#000000" points="650.9814,-408.5615 650.9814,-427.5615 698.9814,-427.5615 698.9814,-408.5615 650.9814,-408.5615"/>
<text text-anchor="start" x="653.9814" y="-414.6615" font-family="Helvetica,sans-Serif" font-size="11.00" fill="#000000">&lt; 2</text>
<polygon fill="#ffffff" stroke="transparent" points="698.9814,-408.5615 698.9814,-427.5615 723.9814,-427.5615 723.9814,-408.5615 698.9814,-408.5615"/>
<polygon fill="none" stroke="#000000" points="698.9814,-408.5615 698.9814,-427.5615 723.9814,-427.5615 723.9814,-408.5615 698.9814,-408.5615"/>
<text text-anchor="start" x="714.8676" y="-414.6615" font-family="Helvetica,sans-Serif" font-size="11.00" fill="#000000"> &#160;</text>
<polygon fill="#ffffff" stroke="transparent" points="723.9814,-408.5615 723.9814,-427.5615 749.9814,-427.5615 749.9814,-408.5615 723.9814,-408.5615"/>
<polygon fill="none" stroke="#000000" points="723.9814,-408.5615 723.9814,-427.5615 749.9814,-427.5615 749.9814,-408.5615 723.9814,-408.5615"/>
<text text-anchor="start" x="740.8676" y="-414.6615" font-family="Helvetica,sans-Serif" font-size="11.00" fill="#000000"> &#160;</text>
</a>
</g>
</g>
<!-- roles_users&#45;&gt;users -->
<g id="edge38" class="edge">
<title>roles_users:w&#45;&gt;users:e</title>
<path fill="none" stroke="#000000" d="M636.4166,-437.0973C602.4423,-439.8293 586.8688,-453.3165 562.9814,-484.5615 515.2516,-546.9928 600.5677,-656.5615 521.9814,-656.5615"/>
<polygon fill="#000000" stroke="#000000" points="642.9868,-436.8557 651.1138,-440.1591 646.9841,-436.7086 650.9814,-436.5615 650.9814,-436.5615 650.9814,-436.5615 646.9841,-436.7086 650.849,-432.964 642.9868,-436.8557 642.9868,-436.8557"/>
<ellipse fill="none" stroke="#000000" cx="639.789" cy="-436.9733" rx="3.2" ry="3.2"/>
</g>
<!-- securitygroups_users -->
<g id="node21" class="node">
<title>securitygroups_users</title>
<g id="a_node21"><a xlink:href="../../tables/securitygroups_users.html" xlink:title="securitygroups_users" target="_top">
<polygon fill="#ffffff" stroke="transparent" points="626.4814,-327.0615 626.4814,-388.0615 773.4814,-388.0615 773.4814,-327.0615 626.4814,-327.0615"/>
<polygon fill="#f5f5f5" stroke="transparent" points="626.9814,-364.5615 626.9814,-387.5615 773.9814,-387.5615 773.9814,-364.5615 626.9814,-364.5615"/>
<polygon fill="none" stroke="#000000" points="626.9814,-364.5615 626.9814,-387.5615 773.9814,-387.5615 773.9814,-364.5615 626.9814,-364.5615"/>
<text text-anchor="start" x="631.7226" y="-373.6615" font-family="Helvetica,sans-Serif" font-weight="bold" font-size="11.00" fill="#000000">securitygroups_users</text>
<text text-anchor="start" x="739.5033" y="-372.6615" font-family="Helvetica,sans-Serif" font-size="11.00" fill="#000000">[table]</text>
<polygon fill="none" stroke="#000000" points="626.9814,-345.5615 626.9814,-364.5615 773.9814,-364.5615 773.9814,-345.5615 626.9814,-345.5615"/>
<text text-anchor="start" x="629.9814" y="-351.6615" font-family="Helvetica,sans-Serif" font-size="11.00" fill="#000000">...</text>
<polygon fill="#ffffff" stroke="transparent" points="626.9814,-326.5615 626.9814,-345.5615 698.9814,-345.5615 698.9814,-326.5615 626.9814,-326.5615"/>
<polygon fill="none" stroke="#000000" points="626.9814,-326.5615 626.9814,-345.5615 698.9814,-345.5615 698.9814,-326.5615 626.9814,-326.5615"/>
<text text-anchor="start" x="629.9814" y="-332.6615" font-family="Helvetica,sans-Serif" font-size="11.00" fill="#000000">&lt; 2</text>
<polygon fill="#ffffff" stroke="transparent" points="698.9814,-326.5615 698.9814,-345.5615 735.9814,-345.5615 735.9814,-326.5615 698.9814,-326.5615"/>
<polygon fill="none" stroke="#000000" points="698.9814,-326.5615 698.9814,-345.5615 735.9814,-345.5615 735.9814,-326.5615 698.9814,-326.5615"/>
<text text-anchor="start" x="726.8676" y="-332.6615" font-family="Helvetica,sans-Serif" font-size="11.00" fill="#000000"> &#160;</text>
<polygon fill="#ffffff" stroke="transparent" points="735.9814,-326.5615 735.9814,-345.5615 773.9814,-345.5615 773.9814,-326.5615 735.9814,-326.5615"/>
<polygon fill="none" stroke="#000000" points="735.9814,-326.5615 735.9814,-345.5615 773.9814,-345.5615 773.9814,-326.5615 735.9814,-326.5615"/>
<text text-anchor="start" x="764.8676" y="-332.6615" font-family="Helvetica,sans-Serif" font-size="11.00" fill="#000000"> &#160;</text>
</a>
</g>
</g>
<!-- securitygroups_users&#45;&gt;users -->
<g id="edge39" class="edge">
<title>securitygroups_users:w&#45;&gt;users:e</title>
<path fill="none" stroke="#000000" d="M612.4017,-355.6446C588.828,-359.5408 578.5273,-373.9328 562.9814,-398.5615 531.9946,-447.6527 580.0342,-656.5615 521.9814,-656.5615"/>
<polygon fill="#000000" stroke="#000000" points="619.0034,-355.1543 627.2481,-358.1516 622.9924,-354.8579 626.9814,-354.5615 626.9814,-354.5615 626.9814,-354.5615 622.9924,-354.8579 626.7147,-350.9714 619.0034,-355.1543 619.0034,-355.1543"/>
<ellipse fill="none" stroke="#000000" cx="615.8122" cy="-355.3913" rx="3.2" ry="3.2"/>
</g>
</g>
</svg>
