<?xml version="1.0" encoding="UTF-8" standalone="no"?>
<!DOCTYPE svg PUBLIC "-//W3C//DTD SVG 1.1//EN"
 "http://www.w3.org/Graphics/SVG/1.1/DTD/svg11.dtd">
<!-- Generated by graphviz version 2.40.1 (20161225.0304)
 -->
<!-- Title: oneDegreeRelationshipsDiagram Pages: 1 -->
<svg width="1058pt" height="747pt"
 viewBox="0.00 0.00 1058.00 747.20" xmlns="http://www.w3.org/2000/svg" xmlns:xlink="http://www.w3.org/1999/xlink">
<g id="graph0" class="graph" transform="scale(1 1) rotate(0) translate(4 743.2)">
<title>oneDegreeRelationshipsDiagram</title>
<polygon fill="#ffffff" stroke="transparent" points="-4,4 -4,-743.2 1054,-743.2 1054,4 -4,4"/>
<text text-anchor="middle" x="72.4936" y="-7.3" font-family="Helvetica,sans-Serif" font-size="11.00" fill="#000000">Generated by SchemaSpy</text>
<!-- am_projecttemplates -->
<g id="node1" class="node">
<title>am_projecttemplates</title>
<g id="a_node1"><a xlink:href="../../tables/am_projecttemplates.html" xlink:title="am_projecttemplates" target="_top">
<polygon fill="#ffffff" stroke="transparent" points="273,-125.7 273,-435.7 531,-435.7 531,-125.7 273,-125.7"/>
<polygon fill="#f5f5f5" stroke="transparent" points="275,-410.7 275,-433.7 529,-433.7 529,-410.7 275,-410.7"/>
<polygon fill="none" stroke="#000000" points="275,-410.7 275,-433.7 529,-433.7 529,-410.7 275,-410.7"/>
<text text-anchor="start" x="280" y="-419.8" font-family="Helvetica,sans-Serif" font-weight="bold" font-size="11.00" fill="#000000">am_projecttemplates</text>
<text text-anchor="start" x="494.0437" y="-418.8" font-family="Helvetica,sans-Serif" font-size="11.00" fill="#000000">[table]</text>
<polygon fill="none" stroke="#000000" points="275,-388.7 275,-410.7 462,-410.7 462,-388.7 275,-388.7"/>
<image xlink:href="../../images/primaryKeys.png" width="11px" height="12px" preserveAspectRatio="xMinYMin meet" x="280" y="-405.7"/>
<text text-anchor="start" x="295" y="-395.8" font-family="Helvetica,sans-Serif" font-size="11.00" fill="#000000">id</text>
<polygon fill="none" stroke="#000000" points="462,-388.7 462,-410.7 529,-410.7 529,-388.7 462,-388.7"/>
<text text-anchor="start" x="465" y="-396.4" font-family="Helvetica,sans-Serif" font-size="11.00" fill="#000000">char[36]</text>
<polygon fill="none" stroke="#000000" points="275,-366.7 275,-388.7 462,-388.7 462,-366.7 275,-366.7"/>
<text text-anchor="start" x="295" y="-373.8" font-family="Helvetica,sans-Serif" font-size="11.00" fill="#000000">name</text>
<polygon fill="none" stroke="#000000" points="462,-366.7 462,-388.7 529,-388.7 529,-366.7 462,-366.7"/>
<text text-anchor="start" x="464.9365" y="-374.4" font-family="Helvetica,sans-Serif" font-size="11.00" fill="#000000">varchar[255]</text>
<polygon fill="none" stroke="#000000" points="275,-344.7 275,-366.7 462,-366.7 462,-344.7 275,-344.7"/>
<text text-anchor="start" x="295" y="-351.8" font-family="Helvetica,sans-Serif" font-size="11.00" fill="#000000">date_entered</text>
<polygon fill="none" stroke="#000000" points="462,-344.7 462,-366.7 529,-366.7 529,-344.7 462,-344.7"/>
<text text-anchor="start" x="465" y="-352.4" font-family="Helvetica,sans-Serif" font-size="11.00" fill="#000000">datetime[26]</text>
<polygon fill="none" stroke="#000000" points="275,-322.7 275,-344.7 462,-344.7 462,-322.7 275,-322.7"/>
<text text-anchor="start" x="295" y="-329.8" font-family="Helvetica,sans-Serif" font-size="11.00" fill="#000000">date_modified</text>
<polygon fill="none" stroke="#000000" points="462,-322.7 462,-344.7 529,-344.7 529,-322.7 462,-322.7"/>
<text text-anchor="start" x="465" y="-330.4" font-family="Helvetica,sans-Serif" font-size="11.00" fill="#000000">datetime[26]</text>
<polygon fill="none" stroke="#000000" points="275,-300.7 275,-322.7 462,-322.7 462,-300.7 275,-300.7"/>
<image xlink:href="../../images/foreignKeys.png" width="11px" height="12px" preserveAspectRatio="xMinYMin meet" x="280" y="-317.7"/>
<text text-anchor="start" x="295" y="-307.8" font-family="Helvetica,sans-Serif" font-size="11.00" fill="#000000">modified_user_id</text>
<polygon fill="none" stroke="#000000" points="462,-300.7 462,-322.7 529,-322.7 529,-300.7 462,-300.7"/>
<text text-anchor="start" x="465" y="-308.4" font-family="Helvetica,sans-Serif" font-size="11.00" fill="#000000">char[36]</text>
<polygon fill="none" stroke="#000000" points="275,-278.7 275,-300.7 462,-300.7 462,-278.7 275,-278.7"/>
<image xlink:href="../../images/foreignKeys.png" width="11px" height="12px" preserveAspectRatio="xMinYMin meet" x="280" y="-295.7"/>
<text text-anchor="start" x="295" y="-285.8" font-family="Helvetica,sans-Serif" font-size="11.00" fill="#000000">created_by</text>
<polygon fill="none" stroke="#000000" points="462,-278.7 462,-300.7 529,-300.7 529,-278.7 462,-278.7"/>
<text text-anchor="start" x="465" y="-286.4" font-family="Helvetica,sans-Serif" font-size="11.00" fill="#000000">char[36]</text>
<polygon fill="none" stroke="#000000" points="275,-256.7 275,-278.7 462,-278.7 462,-256.7 275,-256.7"/>
<text text-anchor="start" x="295" y="-263.8" font-family="Helvetica,sans-Serif" font-size="11.00" fill="#000000">description</text>
<polygon fill="none" stroke="#000000" points="462,-256.7 462,-278.7 529,-278.7 529,-256.7 462,-256.7"/>
<text text-anchor="start" x="465" y="-264.4" font-family="Helvetica,sans-Serif" font-size="11.00" fill="#000000">text[65535]</text>
<polygon fill="none" stroke="#000000" points="275,-234.7 275,-256.7 462,-256.7 462,-234.7 275,-234.7"/>
<text text-anchor="start" x="295" y="-241.8" font-family="Helvetica,sans-Serif" font-size="11.00" fill="#000000">deleted</text>
<polygon fill="none" stroke="#000000" points="462,-234.7 462,-256.7 529,-256.7 529,-234.7 462,-234.7"/>
<text text-anchor="start" x="465" y="-242.4" font-family="Helvetica,sans-Serif" font-size="11.00" fill="#000000">bit[1]</text>
<polygon fill="none" stroke="#000000" points="275,-212.7 275,-234.7 462,-234.7 462,-212.7 275,-212.7"/>
<image xlink:href="../../images/foreignKeys.png" width="11px" height="12px" preserveAspectRatio="xMinYMin meet" x="280" y="-229.7"/>
<text text-anchor="start" x="295" y="-219.8" font-family="Helvetica,sans-Serif" font-size="11.00" fill="#000000">assigned_user_id</text>
<polygon fill="none" stroke="#000000" points="462,-212.7 462,-234.7 529,-234.7 529,-212.7 462,-212.7"/>
<text text-anchor="start" x="465" y="-220.4" font-family="Helvetica,sans-Serif" font-size="11.00" fill="#000000">char[36]</text>
<polygon fill="none" stroke="#000000" points="275,-190.7 275,-212.7 462,-212.7 462,-190.7 275,-190.7"/>
<text text-anchor="start" x="295" y="-197.8" font-family="Helvetica,sans-Serif" font-size="11.00" fill="#000000">status</text>
<polygon fill="none" stroke="#000000" points="462,-190.7 462,-212.7 529,-212.7 529,-190.7 462,-190.7"/>
<text text-anchor="start" x="464.9365" y="-198.4" font-family="Helvetica,sans-Serif" font-size="11.00" fill="#000000">varchar[100]</text>
<polygon fill="none" stroke="#000000" points="275,-168.7 275,-190.7 462,-190.7 462,-168.7 275,-168.7"/>
<text text-anchor="start" x="295" y="-175.8" font-family="Helvetica,sans-Serif" font-size="11.00" fill="#000000">priority</text>
<polygon fill="none" stroke="#000000" points="462,-168.7 462,-190.7 529,-190.7 529,-168.7 462,-168.7"/>
<text text-anchor="start" x="464.9365" y="-176.4" font-family="Helvetica,sans-Serif" font-size="11.00" fill="#000000">varchar[100]</text>
<polygon fill="none" stroke="#000000" points="275,-146.7 275,-168.7 462,-168.7 462,-146.7 275,-146.7"/>
<text text-anchor="start" x="295" y="-153.8" font-family="Helvetica,sans-Serif" font-size="11.00" fill="#000000">override_business_hours</text>
<polygon fill="none" stroke="#000000" points="462,-146.7 462,-168.7 529,-168.7 529,-146.7 462,-146.7"/>
<text text-anchor="start" x="465" y="-154.4" font-family="Helvetica,sans-Serif" font-size="11.00" fill="#000000">bit[1]</text>
<polygon fill="#ffffff" stroke="transparent" points="275,-127.7 275,-146.7 373,-146.7 373,-127.7 275,-127.7"/>
<polygon fill="none" stroke="#000000" points="275,-127.7 275,-146.7 373,-146.7 373,-127.7 275,-127.7"/>
<text text-anchor="start" x="278" y="-133.8" font-family="Helvetica,sans-Serif" font-size="11.00" fill="#000000">&lt; 3</text>
<polygon fill="#ffffff" stroke="transparent" points="373,-127.7 373,-146.7 462,-146.7 462,-127.7 373,-127.7"/>
<polygon fill="none" stroke="#000000" points="373,-127.7 373,-146.7 462,-146.7 462,-127.7 373,-127.7"/>
<text text-anchor="start" x="452.8862" y="-133.8" font-family="Helvetica,sans-Serif" font-size="11.00" fill="#000000"> &#160;</text>
<polygon fill="#ffffff" stroke="transparent" points="462,-127.7 462,-146.7 529,-146.7 529,-127.7 462,-127.7"/>
<polygon fill="none" stroke="#000000" points="462,-127.7 462,-146.7 529,-146.7 529,-127.7 462,-127.7"/>
<text text-anchor="start" x="510.4053" y="-133.8" font-family="Helvetica,sans-Serif" font-size="11.00" fill="#000000">5 &gt;</text>
<polygon fill="none" stroke="#000000" stroke-width="2" points="274,-126.7 274,-434.7 530,-434.7 530,-126.7 274,-126.7"/>
</a>
</g>
</g>
<!-- users -->
<g id="node2" class="node">
<title>users</title>
<g id="a_node2"><a xlink:href="../../tables/users.html" xlink:title="users" target="_top">
<polygon fill="#ffffff" stroke="transparent" points="8,-76.2 8,-291.2 224,-291.2 224,-76.2 8,-76.2"/>
<polygon fill="#f5f5f5" stroke="transparent" points="8,-267.7 8,-290.7 224,-290.7 224,-267.7 8,-267.7"/>
<polygon fill="none" stroke="#000000" points="8,-267.7 8,-290.7 224,-290.7 224,-267.7 8,-267.7"/>
<text text-anchor="start" x="13" y="-276.8" font-family="Helvetica,sans-Serif" font-weight="bold" font-size="11.00" fill="#000000">users</text>
<text text-anchor="start" x="189.0437" y="-275.8" font-family="Helvetica,sans-Serif" font-size="11.00" fill="#000000">[table]</text>
<polygon fill="none" stroke="#000000" points="8,-245.7 8,-267.7 224,-267.7 224,-245.7 8,-245.7"/>
<image xlink:href="../../images/primaryKeys.png" width="11px" height="12px" preserveAspectRatio="xMinYMin meet" x="13" y="-262.7"/>
<text text-anchor="start" x="28" y="-252.8" font-family="Helvetica,sans-Serif" font-size="11.00" fill="#000000">id</text>
<polygon fill="#ffffff" stroke="transparent" points="8,-223.7 8,-245.7 224,-245.7 224,-223.7 8,-223.7"/>
<polygon fill="none" stroke="#000000" points="8,-223.7 8,-245.7 224,-245.7 224,-223.7 8,-223.7"/>
<text text-anchor="start" x="28" y="-230.8" font-family="Helvetica,sans-Serif" font-size="11.00" fill="#000000">user_name</text>
<polygon fill="#ffffff" stroke="transparent" points="8,-201.7 8,-223.7 224,-223.7 224,-201.7 8,-201.7"/>
<polygon fill="none" stroke="#000000" points="8,-201.7 8,-223.7 224,-223.7 224,-201.7 8,-201.7"/>
<text text-anchor="start" x="28" y="-208.8" font-family="Helvetica,sans-Serif" font-size="11.00" fill="#000000">first_name</text>
<polygon fill="#ffffff" stroke="transparent" points="8,-179.7 8,-201.7 224,-201.7 224,-179.7 8,-179.7"/>
<polygon fill="none" stroke="#000000" points="8,-179.7 8,-201.7 224,-201.7 224,-179.7 8,-179.7"/>
<text text-anchor="start" x="28" y="-186.8" font-family="Helvetica,sans-Serif" font-size="11.00" fill="#000000">last_name</text>
<polygon fill="#ffffff" stroke="transparent" points="8,-157.7 8,-179.7 224,-179.7 224,-157.7 8,-157.7"/>
<polygon fill="none" stroke="#000000" points="8,-157.7 8,-179.7 224,-179.7 224,-157.7 8,-157.7"/>
<text text-anchor="start" x="28" y="-164.8" font-family="Helvetica,sans-Serif" font-size="11.00" fill="#000000">status</text>
<polygon fill="#c0c0c0" stroke="transparent" points="8,-135.7 8,-157.7 224,-157.7 224,-135.7 8,-135.7"/>
<polygon fill="none" stroke="#000000" points="8,-135.7 8,-157.7 224,-157.7 224,-135.7 8,-135.7"/>
<image xlink:href="../../images/foreignKeys.png" width="11px" height="12px" preserveAspectRatio="xMinYMin meet" x="13" y="-152.7"/>
<text text-anchor="start" x="28" y="-142.8" font-family="Helvetica,sans-Serif" font-size="11.00" fill="#000000">reports_to_id</text>
<polygon fill="#ffffff" stroke="transparent" points="8,-113.7 8,-135.7 224,-135.7 224,-113.7 8,-113.7"/>
<polygon fill="none" stroke="#000000" points="8,-113.7 8,-135.7 224,-135.7 224,-113.7 8,-113.7"/>
<text text-anchor="start" x="28" y="-120.8" font-family="Helvetica,sans-Serif" font-size="11.00" fill="#000000">is_group</text>
<polygon fill="none" stroke="#000000" points="8,-94.7 8,-113.7 224,-113.7 224,-94.7 8,-94.7"/>
<text text-anchor="start" x="11" y="-100.8" font-family="Helvetica,sans-Serif" font-size="11.00" fill="#000000">...</text>
<polygon fill="#ffffff" stroke="transparent" points="8,-75.7 8,-94.7 104,-94.7 104,-75.7 8,-75.7"/>
<polygon fill="none" stroke="#000000" points="8,-75.7 8,-94.7 104,-94.7 104,-75.7 8,-75.7"/>
<text text-anchor="start" x="11" y="-81.8" font-family="Helvetica,sans-Serif" font-size="11.00" fill="#000000">&lt; 2</text>
<polygon fill="#ffffff" stroke="transparent" points="104,-75.7 104,-94.7 153,-94.7 153,-75.7 104,-75.7"/>
<polygon fill="none" stroke="#000000" points="104,-75.7 104,-94.7 153,-94.7 153,-75.7 104,-75.7"/>
<text text-anchor="start" x="143.8862" y="-81.8" font-family="Helvetica,sans-Serif" font-size="11.00" fill="#000000"> &#160;</text>
<polygon fill="#ffffff" stroke="transparent" points="153,-75.7 153,-94.7 224,-94.7 224,-75.7 153,-75.7"/>
<polygon fill="none" stroke="#000000" points="153,-75.7 153,-94.7 224,-94.7 224,-75.7 153,-75.7"/>
<text text-anchor="start" x="193.1755" y="-81.8" font-family="Helvetica,sans-Serif" font-size="11.00" fill="#000000">214 &gt;</text>
</a>
</g>
</g>
<!-- am_projecttemplates&#45;&gt;users -->
<g id="edge1" class="edge">
<title>am_projecttemplates:w&#45;&gt;users:e</title>
<path fill="none" stroke="#000000" d="M260.9604,-227.7464C247.8775,-236.5584 245.0921,-256.7 224,-256.7"/>
<polygon fill="#000000" stroke="#000000" points="267.3129,-225.9156 275.997,-227.1592 271.1565,-224.8078 275,-223.7 275,-223.7 275,-223.7 271.1565,-224.8078 274.003,-220.2408 267.3129,-225.9156 267.3129,-225.9156"/>
<ellipse fill="none" stroke="#000000" cx="264.2381" cy="-226.8018" rx="3.2" ry="3.2"/>
</g>
<!-- am_projecttemplates&#45;&gt;users -->
<g id="edge2" class="edge">
<title>am_projecttemplates:w&#45;&gt;users:e</title>
<path fill="none" stroke="#000000" d="M260.9604,-285.6536C247.8775,-276.8416 245.0921,-256.7 224,-256.7"/>
<polygon fill="#000000" stroke="#000000" points="267.3129,-287.4844 274.003,-293.1592 271.1565,-288.5922 275,-289.7 275,-289.7 275,-289.7 271.1565,-288.5922 275.997,-286.2408 267.3129,-287.4844 267.3129,-287.4844"/>
<ellipse fill="none" stroke="#000000" cx="264.2381" cy="-286.5982" rx="3.2" ry="3.2"/>
</g>
<!-- am_projecttemplates&#45;&gt;users -->
<g id="edge3" class="edge">
<title>am_projecttemplates:w&#45;&gt;users:e</title>
<path fill="none" stroke="#000000" d="M261.2081,-307.0107C245.7137,-293.7102 251.3462,-256.7 224,-256.7"/>
<polygon fill="#000000" stroke="#000000" points="267.4258,-309.1247 273.8411,-315.1084 271.2129,-310.4124 275,-311.7 275,-311.7 275,-311.7 271.2129,-310.4124 276.1589,-308.2916 267.4258,-309.1247 267.4258,-309.1247"/>
<ellipse fill="none" stroke="#000000" cx="264.3961" cy="-308.0946" rx="3.2" ry="3.2"/>
</g>
<!-- am_projecttemplates_audit -->
<g id="node3" class="node">
<title>am_projecttemplates_audit</title>
<g id="a_node3"><a xlink:href="../../tables/am_projecttemplates_audit.html" xlink:title="am_projecttemplates_audit" target="_top">
<polygon fill="#ffffff" stroke="transparent" points="709,-630.2 709,-735.2 913,-735.2 913,-630.2 709,-630.2"/>
<polygon fill="#f5f5f5" stroke="transparent" points="709,-711.7 709,-734.7 913,-734.7 913,-711.7 709,-711.7"/>
<polygon fill="none" stroke="#000000" points="709,-711.7 709,-734.7 913,-734.7 913,-711.7 709,-711.7"/>
<text text-anchor="start" x="714" y="-720.8" font-family="Helvetica,sans-Serif" font-weight="bold" font-size="11.00" fill="#000000">am_projecttemplates_audit</text>
<text text-anchor="start" x="878.0437" y="-719.8" font-family="Helvetica,sans-Serif" font-size="11.00" fill="#000000">[table]</text>
<polygon fill="none" stroke="#000000" points="709,-689.7 709,-711.7 913,-711.7 913,-689.7 709,-689.7"/>
<image xlink:href="../../images/primaryKeys.png" width="11px" height="12px" preserveAspectRatio="xMinYMin meet" x="714" y="-706.7"/>
<text text-anchor="start" x="729" y="-696.8" font-family="Helvetica,sans-Serif" font-size="11.00" fill="#000000">id</text>
<polygon fill="#c0c0c0" stroke="transparent" points="709,-667.7 709,-689.7 913,-689.7 913,-667.7 709,-667.7"/>
<polygon fill="none" stroke="#000000" points="709,-667.7 709,-689.7 913,-689.7 913,-667.7 709,-667.7"/>
<image xlink:href="../../images/foreignKeys.png" width="11px" height="12px" preserveAspectRatio="xMinYMin meet" x="714" y="-684.7"/>
<text text-anchor="start" x="729" y="-674.8" font-family="Helvetica,sans-Serif" font-size="11.00" fill="#000000">parent_id</text>
<polygon fill="none" stroke="#000000" points="709,-648.7 709,-667.7 913,-667.7 913,-648.7 709,-648.7"/>
<text text-anchor="start" x="712" y="-654.8" font-family="Helvetica,sans-Serif" font-size="11.00" fill="#000000">...</text>
<polygon fill="#ffffff" stroke="transparent" points="709,-629.7 709,-648.7 809,-648.7 809,-629.7 709,-629.7"/>
<polygon fill="none" stroke="#000000" points="709,-629.7 709,-648.7 809,-648.7 809,-629.7 709,-629.7"/>
<text text-anchor="start" x="712" y="-635.8" font-family="Helvetica,sans-Serif" font-size="11.00" fill="#000000">&lt; 1</text>
<polygon fill="#ffffff" stroke="transparent" points="809,-629.7 809,-648.7 861,-648.7 861,-629.7 809,-629.7"/>
<polygon fill="none" stroke="#000000" points="809,-629.7 809,-648.7 861,-648.7 861,-629.7 809,-629.7"/>
<text text-anchor="start" x="851.8862" y="-635.8" font-family="Helvetica,sans-Serif" font-size="11.00" fill="#000000"> &#160;</text>
<polygon fill="#ffffff" stroke="transparent" points="861,-629.7 861,-648.7 913,-648.7 913,-629.7 861,-629.7"/>
<polygon fill="none" stroke="#000000" points="861,-629.7 861,-648.7 913,-648.7 913,-629.7 861,-629.7"/>
<text text-anchor="start" x="903.8862" y="-635.8" font-family="Helvetica,sans-Serif" font-size="11.00" fill="#000000"> &#160;</text>
</a>
</g>
</g>
<!-- am_projecttemplates_audit&#45;&gt;am_projecttemplates -->
<g id="edge4" class="edge">
<title>am_projecttemplates_audit:w&#45;&gt;am_projecttemplates:e</title>
<path fill="none" stroke="#000000" d="M694.4761,-678.5551C638.2001,-677.3174 610.4432,-667.3773 572,-619.7 509.4645,-542.1433 628.6279,-399.7 529,-399.7"/>
<polygon fill="#000000" stroke="#000000" points="701.0004,-678.6201 708.9641,-682.2998 705.0002,-678.6601 709,-678.7 709,-678.7 709,-678.7 705.0002,-678.6601 709.0359,-675.1002 701.0004,-678.6201 701.0004,-678.6201"/>
<ellipse fill="none" stroke="#000000" cx="697.8006" cy="-678.5882" rx="3.2" ry="3.2"/>
</g>
<!-- am_projecttemplates_contacts_1_c -->
<g id="node4" class="node">
<title>am_projecttemplates_contacts_1_c</title>
<g id="a_node4"><a xlink:href="../../tables/am_projecttemplates_contacts_1_c.html" xlink:title="am_projecttemplates_contacts_1_c" target="_top">
<polygon fill="#ffffff" stroke="transparent" points="684,-482.2 684,-609.2 938,-609.2 938,-482.2 684,-482.2"/>
<polygon fill="#f5f5f5" stroke="transparent" points="684,-585.7 684,-608.7 938,-608.7 938,-585.7 684,-585.7"/>
<polygon fill="none" stroke="#000000" points="684,-585.7 684,-608.7 938,-608.7 938,-585.7 684,-585.7"/>
<text text-anchor="start" x="689" y="-594.8" font-family="Helvetica,sans-Serif" font-weight="bold" font-size="11.00" fill="#000000">am_projecttemplates_contacts_1_c</text>
<text text-anchor="start" x="903.0437" y="-593.8" font-family="Helvetica,sans-Serif" font-size="11.00" fill="#000000">[table]</text>
<polygon fill="none" stroke="#000000" points="684,-563.7 684,-585.7 938,-585.7 938,-563.7 684,-563.7"/>
<image xlink:href="../../images/primaryKeys.png" width="11px" height="12px" preserveAspectRatio="xMinYMin meet" x="689" y="-580.7"/>
<text text-anchor="start" x="704" y="-570.8" font-family="Helvetica,sans-Serif" font-size="11.00" fill="#000000">id</text>
<polygon fill="#ffffff" stroke="transparent" points="684,-541.7 684,-563.7 938,-563.7 938,-541.7 684,-541.7"/>
<polygon fill="none" stroke="#000000" points="684,-541.7 684,-563.7 938,-563.7 938,-541.7 684,-541.7"/>
<image xlink:href="../../images/foreignKeys.png" width="11px" height="12px" preserveAspectRatio="xMinYMin meet" x="689" y="-558.7"/>
<text text-anchor="start" x="704" y="-548.8" font-family="Helvetica,sans-Serif" font-size="11.00" fill="#000000">am_projecttemplates_ida</text>
<polygon fill="#ffffff" stroke="transparent" points="684,-519.7 684,-541.7 938,-541.7 938,-519.7 684,-519.7"/>
<polygon fill="none" stroke="#000000" points="684,-519.7 684,-541.7 938,-541.7 938,-519.7 684,-519.7"/>
<image xlink:href="../../images/foreignKeys.png" width="11px" height="12px" preserveAspectRatio="xMinYMin meet" x="689" y="-536.7"/>
<text text-anchor="start" x="704" y="-526.8" font-family="Helvetica,sans-Serif" font-size="11.00" fill="#000000">contacts_idb</text>
<polygon fill="none" stroke="#000000" points="684,-500.7 684,-519.7 938,-519.7 938,-500.7 684,-500.7"/>
<text text-anchor="start" x="687" y="-506.8" font-family="Helvetica,sans-Serif" font-size="11.00" fill="#000000">...</text>
<polygon fill="#ffffff" stroke="transparent" points="684,-481.7 684,-500.7 809,-500.7 809,-481.7 684,-481.7"/>
<polygon fill="none" stroke="#000000" points="684,-481.7 684,-500.7 809,-500.7 809,-481.7 684,-481.7"/>
<text text-anchor="start" x="687" y="-487.8" font-family="Helvetica,sans-Serif" font-size="11.00" fill="#000000">&lt; 2</text>
<polygon fill="#ffffff" stroke="transparent" points="809,-481.7 809,-500.7 873,-500.7 873,-481.7 809,-481.7"/>
<polygon fill="none" stroke="#000000" points="809,-481.7 809,-500.7 873,-500.7 873,-481.7 809,-481.7"/>
<text text-anchor="start" x="863.8862" y="-487.8" font-family="Helvetica,sans-Serif" font-size="11.00" fill="#000000"> &#160;</text>
<polygon fill="#ffffff" stroke="transparent" points="873,-481.7 873,-500.7 938,-500.7 938,-481.7 873,-481.7"/>
<polygon fill="none" stroke="#000000" points="873,-481.7 873,-500.7 938,-500.7 938,-481.7 873,-481.7"/>
<text text-anchor="start" x="928.8862" y="-487.8" font-family="Helvetica,sans-Serif" font-size="11.00" fill="#000000"> &#160;</text>
</a>
</g>
</g>
<!-- am_projecttemplates_contacts_1_c&#45;&gt;am_projecttemplates -->
<g id="edge5" class="edge">
<title>am_projecttemplates_contacts_1_c:w&#45;&gt;am_projecttemplates:e</title>
<path fill="none" stroke="#000000" d="M669.5798,-551.9601C620.8152,-546.6362 610.0067,-513.1976 572,-471.7 546.8259,-444.2136 566.2724,-399.7 529,-399.7"/>
<polygon fill="#000000" stroke="#000000" points="676.0105,-552.29 683.8155,-556.2953 680.0053,-552.495 684,-552.7 684,-552.7 684,-552.7 680.0053,-552.495 684.1845,-549.1047 676.0105,-552.29 676.0105,-552.29"/>
<ellipse fill="none" stroke="#000000" cx="672.8147" cy="-552.126" rx="3.2" ry="3.2"/>
</g>
<!-- am_projecttemplates_project_1_c -->
<g id="node5" class="node">
<title>am_projecttemplates_project_1_c</title>
<g id="a_node5"><a xlink:href="../../tables/am_projecttemplates_project_1_c.html" xlink:title="am_projecttemplates_project_1_c" target="_top">
<polygon fill="#ffffff" stroke="transparent" points="610.5,-334.2 610.5,-461.2 1011.5,-461.2 1011.5,-334.2 610.5,-334.2"/>
<polygon fill="#f5f5f5" stroke="transparent" points="611,-437.7 611,-460.7 1012,-460.7 1012,-437.7 611,-437.7"/>
<polygon fill="none" stroke="#000000" points="611,-437.7 611,-460.7 1012,-460.7 1012,-437.7 611,-437.7"/>
<text text-anchor="start" x="616" y="-446.8" font-family="Helvetica,sans-Serif" font-weight="bold" font-size="11.00" fill="#000000">am_projecttemplates_project_1_c</text>
<text text-anchor="start" x="977.0437" y="-445.8" font-family="Helvetica,sans-Serif" font-size="11.00" fill="#000000">[table]</text>
<polygon fill="none" stroke="#000000" points="611,-415.7 611,-437.7 1012,-437.7 1012,-415.7 611,-415.7"/>
<image xlink:href="../../images/primaryKeys.png" width="11px" height="12px" preserveAspectRatio="xMinYMin meet" x="616" y="-432.7"/>
<text text-anchor="start" x="631" y="-422.8" font-family="Helvetica,sans-Serif" font-size="11.00" fill="#000000">id</text>
<polygon fill="#ffffff" stroke="transparent" points="611,-393.7 611,-415.7 1012,-415.7 1012,-393.7 611,-393.7"/>
<polygon fill="none" stroke="#000000" points="611,-393.7 611,-415.7 1012,-415.7 1012,-393.7 611,-393.7"/>
<image xlink:href="../../images/foreignKeys.png" width="11px" height="12px" preserveAspectRatio="xMinYMin meet" x="616" y="-410.7"/>
<text text-anchor="start" x="631" y="-400.8" font-family="Helvetica,sans-Serif" font-size="11.00" fill="#000000">am_projecttemplates_project_1am_projecttemplates_ida</text>
<polygon fill="#ffffff" stroke="transparent" points="611,-371.7 611,-393.7 1012,-393.7 1012,-371.7 611,-371.7"/>
<polygon fill="none" stroke="#000000" points="611,-371.7 611,-393.7 1012,-393.7 1012,-371.7 611,-371.7"/>
<image xlink:href="../../images/foreignKeys.png" width="11px" height="12px" preserveAspectRatio="xMinYMin meet" x="616" y="-388.7"/>
<text text-anchor="start" x="631" y="-378.8" font-family="Helvetica,sans-Serif" font-size="11.00" fill="#000000">am_projecttemplates_project_1project_idb</text>
<polygon fill="none" stroke="#000000" points="611,-352.7 611,-371.7 1012,-371.7 1012,-352.7 611,-352.7"/>
<text text-anchor="start" x="614" y="-358.8" font-family="Helvetica,sans-Serif" font-size="11.00" fill="#000000">...</text>
<polygon fill="#ffffff" stroke="transparent" points="611,-333.7 611,-352.7 810,-352.7 810,-333.7 611,-333.7"/>
<polygon fill="none" stroke="#000000" points="611,-333.7 611,-352.7 810,-352.7 810,-333.7 611,-333.7"/>
<text text-anchor="start" x="614" y="-339.8" font-family="Helvetica,sans-Serif" font-size="11.00" fill="#000000">&lt; 2</text>
<polygon fill="#ffffff" stroke="transparent" points="810,-333.7 810,-352.7 911,-352.7 911,-333.7 810,-333.7"/>
<polygon fill="none" stroke="#000000" points="810,-333.7 810,-352.7 911,-352.7 911,-333.7 810,-333.7"/>
<text text-anchor="start" x="901.8862" y="-339.8" font-family="Helvetica,sans-Serif" font-size="11.00" fill="#000000"> &#160;</text>
<polygon fill="#ffffff" stroke="transparent" points="911,-333.7 911,-352.7 1012,-352.7 1012,-333.7 911,-333.7"/>
<polygon fill="none" stroke="#000000" points="911,-333.7 911,-352.7 1012,-352.7 1012,-333.7 911,-333.7"/>
<text text-anchor="start" x="1002.8862" y="-339.8" font-family="Helvetica,sans-Serif" font-size="11.00" fill="#000000"> &#160;</text>
</a>
</g>
</g>
<!-- am_projecttemplates_project_1_c&#45;&gt;am_projecttemplates -->
<g id="edge6" class="edge">
<title>am_projecttemplates_project_1_c:w&#45;&gt;am_projecttemplates:e</title>
<path fill="none" stroke="#000000" d="M596.3808,-404.4022C571.2165,-403.3258 560.0924,-399.7 529,-399.7"/>
<polygon fill="#000000" stroke="#000000" points="603.0017,-404.537 610.9267,-408.2993 607.0008,-404.6185 611,-404.7 611,-404.7 611,-404.7 607.0008,-404.6185 611.0733,-401.1007 603.0017,-404.537 603.0017,-404.537"/>
<ellipse fill="none" stroke="#000000" cx="599.8023" cy="-404.4718" rx="3.2" ry="3.2"/>
</g>
<!-- am_projecttemplates_users_1_c -->
<g id="node6" class="node">
<title>am_projecttemplates_users_1_c</title>
<g id="a_node6"><a xlink:href="../../tables/am_projecttemplates_users_1_c.html" xlink:title="am_projecttemplates_users_1_c" target="_top">
<polygon fill="#ffffff" stroke="transparent" points="694,-38.2 694,-165.2 928,-165.2 928,-38.2 694,-38.2"/>
<polygon fill="#f5f5f5" stroke="transparent" points="694,-141.7 694,-164.7 928,-164.7 928,-141.7 694,-141.7"/>
<polygon fill="none" stroke="#000000" points="694,-141.7 694,-164.7 928,-164.7 928,-141.7 694,-141.7"/>
<text text-anchor="start" x="699" y="-150.8" font-family="Helvetica,sans-Serif" font-weight="bold" font-size="11.00" fill="#000000">am_projecttemplates_users_1_c</text>
<text text-anchor="start" x="893.0437" y="-149.8" font-family="Helvetica,sans-Serif" font-size="11.00" fill="#000000">[table]</text>
<polygon fill="none" stroke="#000000" points="694,-119.7 694,-141.7 928,-141.7 928,-119.7 694,-119.7"/>
<image xlink:href="../../images/primaryKeys.png" width="11px" height="12px" preserveAspectRatio="xMinYMin meet" x="699" y="-136.7"/>
<text text-anchor="start" x="714" y="-126.8" font-family="Helvetica,sans-Serif" font-size="11.00" fill="#000000">id</text>
<polygon fill="#ffffff" stroke="transparent" points="694,-97.7 694,-119.7 928,-119.7 928,-97.7 694,-97.7"/>
<polygon fill="none" stroke="#000000" points="694,-97.7 694,-119.7 928,-119.7 928,-97.7 694,-97.7"/>
<image xlink:href="../../images/foreignKeys.png" width="11px" height="12px" preserveAspectRatio="xMinYMin meet" x="699" y="-114.7"/>
<text text-anchor="start" x="714" y="-104.8" font-family="Helvetica,sans-Serif" font-size="11.00" fill="#000000">am_projecttemplates_ida</text>
<polygon fill="#ffffff" stroke="transparent" points="694,-75.7 694,-97.7 928,-97.7 928,-75.7 694,-75.7"/>
<polygon fill="none" stroke="#000000" points="694,-75.7 694,-97.7 928,-97.7 928,-75.7 694,-75.7"/>
<image xlink:href="../../images/foreignKeys.png" width="11px" height="12px" preserveAspectRatio="xMinYMin meet" x="699" y="-92.7"/>
<text text-anchor="start" x="714" y="-82.8" font-family="Helvetica,sans-Serif" font-size="11.00" fill="#000000">users_idb</text>
<polygon fill="none" stroke="#000000" points="694,-56.7 694,-75.7 928,-75.7 928,-56.7 694,-56.7"/>
<text text-anchor="start" x="697" y="-62.8" font-family="Helvetica,sans-Serif" font-size="11.00" fill="#000000">...</text>
<polygon fill="#ffffff" stroke="transparent" points="694,-37.7 694,-56.7 809,-56.7 809,-37.7 694,-37.7"/>
<polygon fill="none" stroke="#000000" points="694,-37.7 694,-56.7 809,-56.7 809,-37.7 694,-37.7"/>
<text text-anchor="start" x="697" y="-43.8" font-family="Helvetica,sans-Serif" font-size="11.00" fill="#000000">&lt; 2</text>
<polygon fill="#ffffff" stroke="transparent" points="809,-37.7 809,-56.7 868,-56.7 868,-37.7 809,-37.7"/>
<polygon fill="none" stroke="#000000" points="809,-37.7 809,-56.7 868,-56.7 868,-37.7 809,-37.7"/>
<text text-anchor="start" x="858.8862" y="-43.8" font-family="Helvetica,sans-Serif" font-size="11.00" fill="#000000"> &#160;</text>
<polygon fill="#ffffff" stroke="transparent" points="868,-37.7 868,-56.7 928,-56.7 928,-37.7 868,-37.7"/>
<polygon fill="none" stroke="#000000" points="868,-37.7 868,-56.7 928,-56.7 928,-37.7 868,-37.7"/>
<text text-anchor="start" x="918.8862" y="-43.8" font-family="Helvetica,sans-Serif" font-size="11.00" fill="#000000"> &#160;</text>
</a>
</g>
</g>
<!-- am_projecttemplates_users_1_c&#45;&gt;am_projecttemplates -->
<g id="edge7" class="edge">
<title>am_projecttemplates_users_1_c:w&#45;&gt;am_projecttemplates:e</title>
<path fill="none" stroke="#000000" d="M679.518,-109.0517C628.1594,-111.7085 605.415,-129.7857 572,-175.7 512.3486,-257.6649 630.3733,-399.7 529,-399.7"/>
<polygon fill="#000000" stroke="#000000" points="686.0024,-108.8943 694.0874,-112.2989 690.0012,-108.7971 694,-108.7 694,-108.7 694,-108.7 690.0012,-108.7971 693.9126,-105.1011 686.0024,-108.8943 686.0024,-108.8943"/>
<ellipse fill="none" stroke="#000000" cx="682.8033" cy="-108.972" rx="3.2" ry="3.2"/>
</g>
<!-- am_projecttemplates_users_1_c&#45;&gt;users -->
<g id="edge8" class="edge">
<title>am_projecttemplates_users_1_c:w&#45;&gt;users:e</title>
<path fill="none" stroke="#000000" d="M679.3658,-86.5228C498.2505,-82.1407 410.0238,1.0144 265,-115.7 214.1579,-156.6175 289.2622,-256.7 224,-256.7"/>
<polygon fill="#000000" stroke="#000000" points="686.0006,-86.6031 693.9564,-90.2997 690.0003,-86.6515 694,-86.7 694,-86.7 694,-86.7 690.0003,-86.6515 694.0436,-83.1003 686.0006,-86.6031 686.0006,-86.6031"/>
<ellipse fill="none" stroke="#000000" cx="682.8008" cy="-86.5643" rx="3.2" ry="3.2"/>
</g>
<!-- am_tasktemplates_am_projecttemplates_c -->
<g id="node7" class="node">
<title>am_tasktemplates_am_projecttemplates_c</title>
<g id="a_node7"><a xlink:href="../../tables/am_tasktemplates_am_projecttemplates_c.html" xlink:title="am_tasktemplates_am_projecttemplates_c" target="_top">
<polygon fill="#ffffff" stroke="transparent" points="580,-186.2 580,-313.2 1042,-313.2 1042,-186.2 580,-186.2"/>
<polygon fill="#f5f5f5" stroke="transparent" points="580,-289.7 580,-312.7 1042,-312.7 1042,-289.7 580,-289.7"/>
<polygon fill="none" stroke="#000000" points="580,-289.7 580,-312.7 1042,-312.7 1042,-289.7 580,-289.7"/>
<text text-anchor="start" x="585" y="-298.8" font-family="Helvetica,sans-Serif" font-weight="bold" font-size="11.00" fill="#000000">am_tasktemplates_am_projecttemplates_c</text>
<text text-anchor="start" x="1007.0437" y="-297.8" font-family="Helvetica,sans-Serif" font-size="11.00" fill="#000000">[table]</text>
<polygon fill="none" stroke="#000000" points="580,-267.7 580,-289.7 1042,-289.7 1042,-267.7 580,-267.7"/>
<image xlink:href="../../images/primaryKeys.png" width="11px" height="12px" preserveAspectRatio="xMinYMin meet" x="585" y="-284.7"/>
<text text-anchor="start" x="600" y="-274.8" font-family="Helvetica,sans-Serif" font-size="11.00" fill="#000000">id</text>
<polygon fill="#ffffff" stroke="transparent" points="580,-245.7 580,-267.7 1042,-267.7 1042,-245.7 580,-245.7"/>
<polygon fill="none" stroke="#000000" points="580,-245.7 580,-267.7 1042,-267.7 1042,-245.7 580,-245.7"/>
<image xlink:href="../../images/foreignKeys.png" width="11px" height="12px" preserveAspectRatio="xMinYMin meet" x="585" y="-262.7"/>
<text text-anchor="start" x="600" y="-252.8" font-family="Helvetica,sans-Serif" font-size="11.00" fill="#000000">am_tasktemplates_am_projecttemplatesam_projecttemplates_ida</text>
<polygon fill="#ffffff" stroke="transparent" points="580,-223.7 580,-245.7 1042,-245.7 1042,-223.7 580,-223.7"/>
<polygon fill="none" stroke="#000000" points="580,-223.7 580,-245.7 1042,-245.7 1042,-223.7 580,-223.7"/>
<image xlink:href="../../images/foreignKeys.png" width="11px" height="12px" preserveAspectRatio="xMinYMin meet" x="585" y="-240.7"/>
<text text-anchor="start" x="600" y="-230.8" font-family="Helvetica,sans-Serif" font-size="11.00" fill="#000000">am_tasktemplates_am_projecttemplatesam_tasktemplates_idb</text>
<polygon fill="none" stroke="#000000" points="580,-204.7 580,-223.7 1042,-223.7 1042,-204.7 580,-204.7"/>
<text text-anchor="start" x="583" y="-210.8" font-family="Helvetica,sans-Serif" font-size="11.00" fill="#000000">...</text>
<polygon fill="#ffffff" stroke="transparent" points="580,-185.7 580,-204.7 809,-204.7 809,-185.7 580,-185.7"/>
<polygon fill="none" stroke="#000000" points="580,-185.7 580,-204.7 809,-204.7 809,-185.7 580,-185.7"/>
<text text-anchor="start" x="583" y="-191.8" font-family="Helvetica,sans-Serif" font-size="11.00" fill="#000000">&lt; 2</text>
<polygon fill="#ffffff" stroke="transparent" points="809,-185.7 809,-204.7 925,-204.7 925,-185.7 809,-185.7"/>
<polygon fill="none" stroke="#000000" points="809,-185.7 809,-204.7 925,-204.7 925,-185.7 809,-185.7"/>
<text text-anchor="start" x="915.8862" y="-191.8" font-family="Helvetica,sans-Serif" font-size="11.00" fill="#000000"> &#160;</text>
<polygon fill="#ffffff" stroke="transparent" points="925,-185.7 925,-204.7 1042,-204.7 1042,-185.7 925,-185.7"/>
<polygon fill="none" stroke="#000000" points="925,-185.7 925,-204.7 1042,-204.7 1042,-185.7 925,-185.7"/>
<text text-anchor="start" x="1032.8862" y="-191.8" font-family="Helvetica,sans-Serif" font-size="11.00" fill="#000000"> &#160;</text>
</a>
</g>
</g>
<!-- am_tasktemplates_am_projecttemplates_c&#45;&gt;am_projecttemplates -->
<g id="edge9" class="edge">
<title>am_tasktemplates_am_projecttemplates_c:w&#45;&gt;am_projecttemplates:e</title>
<path fill="none" stroke="#000000" d="M565.7665,-259.6868C525.8345,-280.222 590.6778,-399.7 529,-399.7"/>
<polygon fill="#000000" stroke="#000000" points="572.1705,-258.343 580.7393,-260.2233 576.0853,-257.5215 580,-256.7 580,-256.7 580,-256.7 576.0853,-257.5215 579.2607,-253.1767 572.1705,-258.343 572.1705,-258.343"/>
<ellipse fill="none" stroke="#000000" cx="569.0387" cy="-259.0002" rx="3.2" ry="3.2"/>
</g>
</g>
</svg>
