<?xml version="1.0" encoding="UTF-8" standalone="no"?>
<!DOCTYPE svg PUBLIC "-//W3C//DTD SVG 1.1//EN"
 "http://www.w3.org/Graphics/SVG/1.1/DTD/svg11.dtd">
<!-- Generated by graphviz version 2.40.1 (20161225.0304)
 -->
<!-- Title: oneDegreeRelationshipsDiagram Pages: 1 -->
<svg width="731pt" height="369pt"
 viewBox="0.00 0.00 731.00 369.20" xmlns="http://www.w3.org/2000/svg" xmlns:xlink="http://www.w3.org/1999/xlink">
<g id="graph0" class="graph" transform="scale(1 1) rotate(0) translate(4 365.2)">
<title>oneDegreeRelationshipsDiagram</title>
<polygon fill="#ffffff" stroke="transparent" points="-4,4 -4,-365.2 727,-365.2 727,4 -4,4"/>
<text text-anchor="middle" x="72.4936" y="-7.3" font-family="Helvetica,sans-Serif" font-size="11.00" fill="#000000">Generated by SchemaSpy</text>
<!-- am_projecttemplates_project_1_c -->
<g id="node1" class="node">
<title>am_projecttemplates_project_1_c</title>
<g id="a_node1"><a xlink:href="../../tables/am_projecttemplates_project_1_c.html" xlink:title="am_projecttemplates_project_1_c" target="_top">
<polygon fill="#ffffff" stroke="transparent" points="244,-194.7 244,-350.7 715,-350.7 715,-194.7 244,-194.7"/>
<polygon fill="#f5f5f5" stroke="transparent" points="246.5,-325.7 246.5,-348.7 713.5,-348.7 713.5,-325.7 246.5,-325.7"/>
<polygon fill="none" stroke="#000000" points="246.5,-325.7 246.5,-348.7 713.5,-348.7 713.5,-325.7 246.5,-325.7"/>
<text text-anchor="start" x="251.5" y="-334.8" font-family="Helvetica,sans-Serif" font-weight="bold" font-size="11.00" fill="#000000">am_projecttemplates_project_1_c</text>
<text text-anchor="start" x="678.5437" y="-333.8" font-family="Helvetica,sans-Serif" font-size="11.00" fill="#000000">[table]</text>
<polygon fill="none" stroke="#000000" points="246.5,-303.7 246.5,-325.7 647.5,-325.7 647.5,-303.7 246.5,-303.7"/>
<image xlink:href="../../images/primaryKeys.png" width="11px" height="12px" preserveAspectRatio="xMinYMin meet" x="251.5" y="-320.7"/>
<text text-anchor="start" x="266.5" y="-310.8" font-family="Helvetica,sans-Serif" font-size="11.00" fill="#000000">id</text>
<polygon fill="none" stroke="#000000" points="647.5,-303.7 647.5,-325.7 713.5,-325.7 713.5,-303.7 647.5,-303.7"/>
<text text-anchor="start" x="650.5" y="-311.4" font-family="Helvetica,sans-Serif" font-size="11.00" fill="#000000">varchar[36]</text>
<polygon fill="none" stroke="#000000" points="246.5,-281.7 246.5,-303.7 647.5,-303.7 647.5,-281.7 246.5,-281.7"/>
<text text-anchor="start" x="266.5" y="-288.8" font-family="Helvetica,sans-Serif" font-size="11.00" fill="#000000">date_modified</text>
<polygon fill="none" stroke="#000000" points="647.5,-281.7 647.5,-303.7 713.5,-303.7 713.5,-281.7 647.5,-281.7"/>
<text text-anchor="start" x="650.2401" y="-289.4" font-family="Helvetica,sans-Serif" font-size="11.00" fill="#000000">datetime[26]</text>
<polygon fill="none" stroke="#000000" points="246.5,-259.7 246.5,-281.7 647.5,-281.7 647.5,-259.7 246.5,-259.7"/>
<text text-anchor="start" x="266.5" y="-266.8" font-family="Helvetica,sans-Serif" font-size="11.00" fill="#000000">deleted</text>
<polygon fill="none" stroke="#000000" points="647.5,-259.7 647.5,-281.7 713.5,-281.7 713.5,-259.7 647.5,-259.7"/>
<text text-anchor="start" x="650.5" y="-267.4" font-family="Helvetica,sans-Serif" font-size="11.00" fill="#000000">bit[1]</text>
<polygon fill="#ffffff" stroke="transparent" points="246.5,-237.7 246.5,-259.7 647.5,-259.7 647.5,-237.7 246.5,-237.7"/>
<polygon fill="none" stroke="#000000" points="246.5,-237.7 246.5,-259.7 647.5,-259.7 647.5,-237.7 246.5,-237.7"/>
<image xlink:href="../../images/foreignKeys.png" width="11px" height="12px" preserveAspectRatio="xMinYMin meet" x="251.5" y="-254.7"/>
<text text-anchor="start" x="266.5" y="-244.8" font-family="Helvetica,sans-Serif" font-size="11.00" fill="#000000">am_projecttemplates_project_1am_projecttemplates_ida</text>
<polygon fill="none" stroke="#000000" points="647.5,-237.7 647.5,-259.7 713.5,-259.7 713.5,-237.7 647.5,-237.7"/>
<text text-anchor="start" x="650.5" y="-245.4" font-family="Helvetica,sans-Serif" font-size="11.00" fill="#000000">varchar[36]</text>
<polygon fill="#ffffff" stroke="transparent" points="246.5,-215.7 246.5,-237.7 647.5,-237.7 647.5,-215.7 246.5,-215.7"/>
<polygon fill="none" stroke="#000000" points="246.5,-215.7 246.5,-237.7 647.5,-237.7 647.5,-215.7 246.5,-215.7"/>
<image xlink:href="../../images/foreignKeys.png" width="11px" height="12px" preserveAspectRatio="xMinYMin meet" x="251.5" y="-232.7"/>
<text text-anchor="start" x="266.5" y="-222.8" font-family="Helvetica,sans-Serif" font-size="11.00" fill="#000000">am_projecttemplates_project_1project_idb</text>
<polygon fill="none" stroke="#000000" points="647.5,-215.7 647.5,-237.7 713.5,-237.7 713.5,-215.7 647.5,-215.7"/>
<text text-anchor="start" x="650.5" y="-223.4" font-family="Helvetica,sans-Serif" font-size="11.00" fill="#000000">varchar[36]</text>
<polygon fill="#ffffff" stroke="transparent" points="246.5,-196.7 246.5,-215.7 451.5,-215.7 451.5,-196.7 246.5,-196.7"/>
<polygon fill="none" stroke="#000000" points="246.5,-196.7 246.5,-215.7 451.5,-215.7 451.5,-196.7 246.5,-196.7"/>
<text text-anchor="start" x="249.5" y="-202.8" font-family="Helvetica,sans-Serif" font-size="11.00" fill="#000000">&lt; 2</text>
<polygon fill="#ffffff" stroke="transparent" points="451.5,-196.7 451.5,-215.7 647.5,-215.7 647.5,-196.7 451.5,-196.7"/>
<polygon fill="none" stroke="#000000" points="451.5,-196.7 451.5,-215.7 647.5,-215.7 647.5,-196.7 451.5,-196.7"/>
<text text-anchor="start" x="638.3862" y="-202.8" font-family="Helvetica,sans-Serif" font-size="11.00" fill="#000000"> &#160;</text>
<polygon fill="#ffffff" stroke="transparent" points="647.5,-196.7 647.5,-215.7 713.5,-215.7 713.5,-196.7 647.5,-196.7"/>
<polygon fill="none" stroke="#000000" points="647.5,-196.7 647.5,-215.7 713.5,-215.7 713.5,-196.7 647.5,-196.7"/>
<text text-anchor="start" x="694.9053" y="-202.8" font-family="Helvetica,sans-Serif" font-size="11.00" fill="#000000">0 &gt;</text>
<polygon fill="none" stroke="#000000" stroke-width="2" points="245,-195.7 245,-349.7 714,-349.7 714,-195.7 245,-195.7"/>
</a>
</g>
</g>
<!-- am_projecttemplates -->
<g id="node2" class="node">
<title>am_projecttemplates</title>
<g id="a_node2"><a xlink:href="../../tables/am_projecttemplates.html" xlink:title="am_projecttemplates" target="_top">
<polygon fill="#ffffff" stroke="transparent" points="8,-208.2 8,-357.2 195,-357.2 195,-208.2 8,-208.2"/>
<polygon fill="#f5f5f5" stroke="transparent" points="8.5,-333.7 8.5,-356.7 195.5,-356.7 195.5,-333.7 8.5,-333.7"/>
<polygon fill="none" stroke="#000000" points="8.5,-333.7 8.5,-356.7 195.5,-356.7 195.5,-333.7 8.5,-333.7"/>
<text text-anchor="start" x="13.5" y="-342.8" font-family="Helvetica,sans-Serif" font-weight="bold" font-size="11.00" fill="#000000">am_projecttemplates</text>
<text text-anchor="start" x="160.5437" y="-341.8" font-family="Helvetica,sans-Serif" font-size="11.00" fill="#000000">[table]</text>
<polygon fill="none" stroke="#000000" points="8.5,-311.7 8.5,-333.7 195.5,-333.7 195.5,-311.7 8.5,-311.7"/>
<image xlink:href="../../images/primaryKeys.png" width="11px" height="12px" preserveAspectRatio="xMinYMin meet" x="13.5" y="-328.7"/>
<text text-anchor="start" x="28.5" y="-318.8" font-family="Helvetica,sans-Serif" font-size="11.00" fill="#000000">id</text>
<polygon fill="#c0c0c0" stroke="transparent" points="8.5,-289.7 8.5,-311.7 195.5,-311.7 195.5,-289.7 8.5,-289.7"/>
<polygon fill="none" stroke="#000000" points="8.5,-289.7 8.5,-311.7 195.5,-311.7 195.5,-289.7 8.5,-289.7"/>
<image xlink:href="../../images/foreignKeys.png" width="11px" height="12px" preserveAspectRatio="xMinYMin meet" x="13.5" y="-306.7"/>
<text text-anchor="start" x="28.5" y="-296.8" font-family="Helvetica,sans-Serif" font-size="11.00" fill="#000000">modified_user_id</text>
<polygon fill="#c0c0c0" stroke="transparent" points="8.5,-267.7 8.5,-289.7 195.5,-289.7 195.5,-267.7 8.5,-267.7"/>
<polygon fill="none" stroke="#000000" points="8.5,-267.7 8.5,-289.7 195.5,-289.7 195.5,-267.7 8.5,-267.7"/>
<image xlink:href="../../images/foreignKeys.png" width="11px" height="12px" preserveAspectRatio="xMinYMin meet" x="13.5" y="-284.7"/>
<text text-anchor="start" x="28.5" y="-274.8" font-family="Helvetica,sans-Serif" font-size="11.00" fill="#000000">created_by</text>
<polygon fill="#c0c0c0" stroke="transparent" points="8.5,-245.7 8.5,-267.7 195.5,-267.7 195.5,-245.7 8.5,-245.7"/>
<polygon fill="none" stroke="#000000" points="8.5,-245.7 8.5,-267.7 195.5,-267.7 195.5,-245.7 8.5,-245.7"/>
<image xlink:href="../../images/foreignKeys.png" width="11px" height="12px" preserveAspectRatio="xMinYMin meet" x="13.5" y="-262.7"/>
<text text-anchor="start" x="28.5" y="-252.8" font-family="Helvetica,sans-Serif" font-size="11.00" fill="#000000">assigned_user_id</text>
<polygon fill="none" stroke="#000000" points="8.5,-226.7 8.5,-245.7 195.5,-245.7 195.5,-226.7 8.5,-226.7"/>
<text text-anchor="start" x="11.5" y="-232.8" font-family="Helvetica,sans-Serif" font-size="11.00" fill="#000000">...</text>
<polygon fill="#ffffff" stroke="transparent" points="8.5,-207.7 8.5,-226.7 95.5,-226.7 95.5,-207.7 8.5,-207.7"/>
<polygon fill="none" stroke="#000000" points="8.5,-207.7 8.5,-226.7 95.5,-226.7 95.5,-207.7 8.5,-207.7"/>
<text text-anchor="start" x="11.5" y="-213.8" font-family="Helvetica,sans-Serif" font-size="11.00" fill="#000000">&lt; 3</text>
<polygon fill="#ffffff" stroke="transparent" points="95.5,-207.7 95.5,-226.7 140.5,-226.7 140.5,-207.7 95.5,-207.7"/>
<polygon fill="none" stroke="#000000" points="95.5,-207.7 95.5,-226.7 140.5,-226.7 140.5,-207.7 95.5,-207.7"/>
<text text-anchor="start" x="131.3862" y="-213.8" font-family="Helvetica,sans-Serif" font-size="11.00" fill="#000000"> &#160;</text>
<polygon fill="#ffffff" stroke="transparent" points="140.5,-207.7 140.5,-226.7 195.5,-226.7 195.5,-207.7 140.5,-207.7"/>
<polygon fill="none" stroke="#000000" points="140.5,-207.7 140.5,-226.7 195.5,-226.7 195.5,-207.7 140.5,-207.7"/>
<text text-anchor="start" x="176.9053" y="-213.8" font-family="Helvetica,sans-Serif" font-size="11.00" fill="#000000">5 &gt;</text>
</a>
</g>
</g>
<!-- am_projecttemplates_project_1_c&#45;&gt;am_projecttemplates -->
<g id="edge1" class="edge">
<title>am_projecttemplates_project_1_c:w&#45;&gt;am_projecttemplates:e</title>
<path fill="none" stroke="#000000" d="M232.5503,-253.329C213.7607,-269.5294 229.3581,-322.7 195.5,-322.7"/>
<polygon fill="#000000" stroke="#000000" points="238.9071,-251.2196 247.6338,-252.1168 242.7036,-249.9598 246.5,-248.7 246.5,-248.7 246.5,-248.7 242.7036,-249.9598 245.3662,-245.2832 238.9071,-251.2196 238.9071,-251.2196"/>
<ellipse fill="none" stroke="#000000" cx="235.87" cy="-252.2275" rx="3.2" ry="3.2"/>
</g>
<!-- project -->
<g id="node3" class="node">
<title>project</title>
<g id="a_node3"><a xlink:href="../../tables/project.html" xlink:title="project" target="_top">
<polygon fill="#ffffff" stroke="transparent" points="8,-38.2 8,-187.2 195,-187.2 195,-38.2 8,-38.2"/>
<polygon fill="#f5f5f5" stroke="transparent" points="8.5,-163.7 8.5,-186.7 195.5,-186.7 195.5,-163.7 8.5,-163.7"/>
<polygon fill="none" stroke="#000000" points="8.5,-163.7 8.5,-186.7 195.5,-186.7 195.5,-163.7 8.5,-163.7"/>
<text text-anchor="start" x="13.5" y="-172.8" font-family="Helvetica,sans-Serif" font-weight="bold" font-size="11.00" fill="#000000">project</text>
<text text-anchor="start" x="160.5437" y="-171.8" font-family="Helvetica,sans-Serif" font-size="11.00" fill="#000000">[table]</text>
<polygon fill="none" stroke="#000000" points="8.5,-141.7 8.5,-163.7 195.5,-163.7 195.5,-141.7 8.5,-141.7"/>
<image xlink:href="../../images/primaryKeys.png" width="11px" height="12px" preserveAspectRatio="xMinYMin meet" x="13.5" y="-158.7"/>
<text text-anchor="start" x="28.5" y="-148.8" font-family="Helvetica,sans-Serif" font-size="11.00" fill="#000000">id</text>
<polygon fill="#c0c0c0" stroke="transparent" points="8.5,-119.7 8.5,-141.7 195.5,-141.7 195.5,-119.7 8.5,-119.7"/>
<polygon fill="none" stroke="#000000" points="8.5,-119.7 8.5,-141.7 195.5,-141.7 195.5,-119.7 8.5,-119.7"/>
<image xlink:href="../../images/foreignKeys.png" width="11px" height="12px" preserveAspectRatio="xMinYMin meet" x="13.5" y="-136.7"/>
<text text-anchor="start" x="28.5" y="-126.8" font-family="Helvetica,sans-Serif" font-size="11.00" fill="#000000">assigned_user_id</text>
<polygon fill="#c0c0c0" stroke="transparent" points="8.5,-97.7 8.5,-119.7 195.5,-119.7 195.5,-97.7 8.5,-97.7"/>
<polygon fill="none" stroke="#000000" points="8.5,-97.7 8.5,-119.7 195.5,-119.7 195.5,-97.7 8.5,-97.7"/>
<image xlink:href="../../images/foreignKeys.png" width="11px" height="12px" preserveAspectRatio="xMinYMin meet" x="13.5" y="-114.7"/>
<text text-anchor="start" x="28.5" y="-104.8" font-family="Helvetica,sans-Serif" font-size="11.00" fill="#000000">modified_user_id</text>
<polygon fill="#c0c0c0" stroke="transparent" points="8.5,-75.7 8.5,-97.7 195.5,-97.7 195.5,-75.7 8.5,-75.7"/>
<polygon fill="none" stroke="#000000" points="8.5,-75.7 8.5,-97.7 195.5,-97.7 195.5,-75.7 8.5,-75.7"/>
<image xlink:href="../../images/foreignKeys.png" width="11px" height="12px" preserveAspectRatio="xMinYMin meet" x="13.5" y="-92.7"/>
<text text-anchor="start" x="28.5" y="-82.8" font-family="Helvetica,sans-Serif" font-size="11.00" fill="#000000">created_by</text>
<polygon fill="none" stroke="#000000" points="8.5,-56.7 8.5,-75.7 195.5,-75.7 195.5,-56.7 8.5,-56.7"/>
<text text-anchor="start" x="11.5" y="-62.8" font-family="Helvetica,sans-Serif" font-size="11.00" fill="#000000">...</text>
<polygon fill="#ffffff" stroke="transparent" points="8.5,-37.7 8.5,-56.7 92.5,-56.7 92.5,-37.7 8.5,-37.7"/>
<polygon fill="none" stroke="#000000" points="8.5,-37.7 8.5,-56.7 92.5,-56.7 92.5,-37.7 8.5,-37.7"/>
<text text-anchor="start" x="11.5" y="-43.8" font-family="Helvetica,sans-Serif" font-size="11.00" fill="#000000">&lt; 4</text>
<polygon fill="#ffffff" stroke="transparent" points="92.5,-37.7 92.5,-56.7 136.5,-56.7 136.5,-37.7 92.5,-37.7"/>
<polygon fill="none" stroke="#000000" points="92.5,-37.7 92.5,-56.7 136.5,-56.7 136.5,-37.7 92.5,-37.7"/>
<text text-anchor="start" x="127.3862" y="-43.8" font-family="Helvetica,sans-Serif" font-size="11.00" fill="#000000"> &#160;</text>
<polygon fill="#ffffff" stroke="transparent" points="136.5,-37.7 136.5,-56.7 195.5,-56.7 195.5,-37.7 136.5,-37.7"/>
<polygon fill="none" stroke="#000000" points="136.5,-37.7 136.5,-56.7 195.5,-56.7 195.5,-37.7 136.5,-37.7"/>
<text text-anchor="start" x="170.7904" y="-43.8" font-family="Helvetica,sans-Serif" font-size="11.00" fill="#000000">18 &gt;</text>
</a>
</g>
</g>
<!-- am_projecttemplates_project_1_c&#45;&gt;project -->
<g id="edge2" class="edge">
<title>am_projecttemplates_project_1_c:w&#45;&gt;project:e</title>
<path fill="none" stroke="#000000" d="M232.5503,-222.071C213.7607,-205.8706 229.3581,-152.7 195.5,-152.7"/>
<polygon fill="#000000" stroke="#000000" points="238.9071,-224.1804 245.3662,-230.1168 242.7036,-225.4402 246.5,-226.7 246.5,-226.7 246.5,-226.7 242.7036,-225.4402 247.6338,-223.2832 238.9071,-224.1804 238.9071,-224.1804"/>
<ellipse fill="none" stroke="#000000" cx="235.87" cy="-223.1725" rx="3.2" ry="3.2"/>
</g>
</g>
</svg>
