<?xml version="1.0" encoding="UTF-8" standalone="no"?>
<!DOCTYPE svg PUBLIC "-//W3C//DTD SVG 1.1//EN"
 "http://www.w3.org/Graphics/SVG/1.1/DTD/svg11.dtd">
<!-- Generated by graphviz version 2.40.1 (20161225.0304)
 -->
<!-- Title: twoDegreesRelationshipsDiagram Pages: 1 -->
<svg width="535pt" height="645pt"
 viewBox="0.00 0.00 535.00 644.70" xmlns="http://www.w3.org/2000/svg" xmlns:xlink="http://www.w3.org/1999/xlink">
<g id="graph0" class="graph" transform="scale(1 1) rotate(0) translate(4 640.7)">
<title>twoDegreesRelationshipsDiagram</title>
<polygon fill="#ffffff" stroke="transparent" points="-4,4 -4,-640.7 531,-640.7 531,4 -4,4"/>
<text text-anchor="middle" x="72.4936" y="-7.3" font-family="Helvetica,sans-Serif" font-size="11.00" fill="#000000">Generated by SchemaSpy</text>
<!-- am_projecttemplates_audit -->
<g id="node1" class="node">
<title>am_projecttemplates_audit</title>
<g id="a_node1"><a xlink:href="../../tables/am_projecttemplates_audit.html" xlink:title="am_projecttemplates_audit" target="_top">
<polygon fill="#ffffff" stroke="transparent" points="244,-366.7 244,-632.7 519,-632.7 519,-366.7 244,-366.7"/>
<polygon fill="#f5f5f5" stroke="transparent" points="246.5,-607.7 246.5,-630.7 517.5,-630.7 517.5,-607.7 246.5,-607.7"/>
<polygon fill="none" stroke="#000000" points="246.5,-607.7 246.5,-630.7 517.5,-630.7 517.5,-607.7 246.5,-607.7"/>
<text text-anchor="start" x="251.5" y="-616.8" font-family="Helvetica,sans-Serif" font-weight="bold" font-size="11.00" fill="#000000">am_projecttemplates_audit</text>
<text text-anchor="start" x="482.5437" y="-615.8" font-family="Helvetica,sans-Serif" font-size="11.00" fill="#000000">[table]</text>
<polygon fill="none" stroke="#000000" points="246.5,-585.7 246.5,-607.7 450.5,-607.7 450.5,-585.7 246.5,-585.7"/>
<image xlink:href="../../images/primaryKeys.png" width="11px" height="12px" preserveAspectRatio="xMinYMin meet" x="251.5" y="-602.7"/>
<text text-anchor="start" x="266.5" y="-592.8" font-family="Helvetica,sans-Serif" font-size="11.00" fill="#000000">id</text>
<polygon fill="none" stroke="#000000" points="450.5,-585.7 450.5,-607.7 517.5,-607.7 517.5,-585.7 450.5,-585.7"/>
<text text-anchor="start" x="453.5" y="-593.4" font-family="Helvetica,sans-Serif" font-size="11.00" fill="#000000">char[36]</text>
<polygon fill="#ffffff" stroke="transparent" points="246.5,-563.7 246.5,-585.7 450.5,-585.7 450.5,-563.7 246.5,-563.7"/>
<polygon fill="none" stroke="#000000" points="246.5,-563.7 246.5,-585.7 450.5,-585.7 450.5,-563.7 246.5,-563.7"/>
<image xlink:href="../../images/foreignKeys.png" width="11px" height="12px" preserveAspectRatio="xMinYMin meet" x="251.5" y="-580.7"/>
<text text-anchor="start" x="266.5" y="-570.8" font-family="Helvetica,sans-Serif" font-size="11.00" fill="#000000">parent_id</text>
<polygon fill="none" stroke="#000000" points="450.5,-563.7 450.5,-585.7 517.5,-585.7 517.5,-563.7 450.5,-563.7"/>
<text text-anchor="start" x="453.5" y="-571.4" font-family="Helvetica,sans-Serif" font-size="11.00" fill="#000000">char[36]</text>
<polygon fill="none" stroke="#000000" points="246.5,-541.7 246.5,-563.7 450.5,-563.7 450.5,-541.7 246.5,-541.7"/>
<text text-anchor="start" x="266.5" y="-548.8" font-family="Helvetica,sans-Serif" font-size="11.00" fill="#000000">date_created</text>
<polygon fill="none" stroke="#000000" points="450.5,-541.7 450.5,-563.7 517.5,-563.7 517.5,-541.7 450.5,-541.7"/>
<text text-anchor="start" x="453.5" y="-549.4" font-family="Helvetica,sans-Serif" font-size="11.00" fill="#000000">datetime[26]</text>
<polygon fill="none" stroke="#000000" points="246.5,-519.7 246.5,-541.7 450.5,-541.7 450.5,-519.7 246.5,-519.7"/>
<text text-anchor="start" x="266.5" y="-526.8" font-family="Helvetica,sans-Serif" font-size="11.00" fill="#000000">created_by</text>
<polygon fill="none" stroke="#000000" points="450.5,-519.7 450.5,-541.7 517.5,-541.7 517.5,-519.7 450.5,-519.7"/>
<text text-anchor="start" x="453.5" y="-527.4" font-family="Helvetica,sans-Serif" font-size="11.00" fill="#000000">varchar[36]</text>
<polygon fill="none" stroke="#000000" points="246.5,-497.7 246.5,-519.7 450.5,-519.7 450.5,-497.7 246.5,-497.7"/>
<text text-anchor="start" x="266.5" y="-504.8" font-family="Helvetica,sans-Serif" font-size="11.00" fill="#000000">field_name</text>
<polygon fill="none" stroke="#000000" points="450.5,-497.7 450.5,-519.7 517.5,-519.7 517.5,-497.7 450.5,-497.7"/>
<text text-anchor="start" x="453.4365" y="-505.4" font-family="Helvetica,sans-Serif" font-size="11.00" fill="#000000">varchar[100]</text>
<polygon fill="none" stroke="#000000" points="246.5,-475.7 246.5,-497.7 450.5,-497.7 450.5,-475.7 246.5,-475.7"/>
<text text-anchor="start" x="266.5" y="-482.8" font-family="Helvetica,sans-Serif" font-size="11.00" fill="#000000">data_type</text>
<polygon fill="none" stroke="#000000" points="450.5,-475.7 450.5,-497.7 517.5,-497.7 517.5,-475.7 450.5,-475.7"/>
<text text-anchor="start" x="453.4365" y="-483.4" font-family="Helvetica,sans-Serif" font-size="11.00" fill="#000000">varchar[100]</text>
<polygon fill="none" stroke="#000000" points="246.5,-453.7 246.5,-475.7 450.5,-475.7 450.5,-453.7 246.5,-453.7"/>
<text text-anchor="start" x="266.5" y="-460.8" font-family="Helvetica,sans-Serif" font-size="11.00" fill="#000000">before_value_string</text>
<polygon fill="none" stroke="#000000" points="450.5,-453.7 450.5,-475.7 517.5,-475.7 517.5,-453.7 450.5,-453.7"/>
<text text-anchor="start" x="453.4365" y="-461.4" font-family="Helvetica,sans-Serif" font-size="11.00" fill="#000000">varchar[255]</text>
<polygon fill="none" stroke="#000000" points="246.5,-431.7 246.5,-453.7 450.5,-453.7 450.5,-431.7 246.5,-431.7"/>
<text text-anchor="start" x="266.5" y="-438.8" font-family="Helvetica,sans-Serif" font-size="11.00" fill="#000000">after_value_string</text>
<polygon fill="none" stroke="#000000" points="450.5,-431.7 450.5,-453.7 517.5,-453.7 517.5,-431.7 450.5,-431.7"/>
<text text-anchor="start" x="453.4365" y="-439.4" font-family="Helvetica,sans-Serif" font-size="11.00" fill="#000000">varchar[255]</text>
<polygon fill="none" stroke="#000000" points="246.5,-409.7 246.5,-431.7 450.5,-431.7 450.5,-409.7 246.5,-409.7"/>
<text text-anchor="start" x="266.5" y="-416.8" font-family="Helvetica,sans-Serif" font-size="11.00" fill="#000000">before_value_text</text>
<polygon fill="none" stroke="#000000" points="450.5,-409.7 450.5,-431.7 517.5,-431.7 517.5,-409.7 450.5,-409.7"/>
<text text-anchor="start" x="453.5" y="-417.4" font-family="Helvetica,sans-Serif" font-size="11.00" fill="#000000">text[65535]</text>
<polygon fill="none" stroke="#000000" points="246.5,-387.7 246.5,-409.7 450.5,-409.7 450.5,-387.7 246.5,-387.7"/>
<text text-anchor="start" x="266.5" y="-394.8" font-family="Helvetica,sans-Serif" font-size="11.00" fill="#000000">after_value_text</text>
<polygon fill="none" stroke="#000000" points="450.5,-387.7 450.5,-409.7 517.5,-409.7 517.5,-387.7 450.5,-387.7"/>
<text text-anchor="start" x="453.5" y="-395.4" font-family="Helvetica,sans-Serif" font-size="11.00" fill="#000000">text[65535]</text>
<polygon fill="#ffffff" stroke="transparent" points="246.5,-368.7 246.5,-387.7 352.5,-387.7 352.5,-368.7 246.5,-368.7"/>
<polygon fill="none" stroke="#000000" points="246.5,-368.7 246.5,-387.7 352.5,-387.7 352.5,-368.7 246.5,-368.7"/>
<text text-anchor="start" x="249.5" y="-374.8" font-family="Helvetica,sans-Serif" font-size="11.00" fill="#000000">&lt; 1</text>
<polygon fill="#ffffff" stroke="transparent" points="352.5,-368.7 352.5,-387.7 450.5,-387.7 450.5,-368.7 352.5,-368.7"/>
<polygon fill="none" stroke="#000000" points="352.5,-368.7 352.5,-387.7 450.5,-387.7 450.5,-368.7 352.5,-368.7"/>
<text text-anchor="start" x="441.3862" y="-374.8" font-family="Helvetica,sans-Serif" font-size="11.00" fill="#000000"> &#160;</text>
<polygon fill="#ffffff" stroke="transparent" points="450.5,-368.7 450.5,-387.7 517.5,-387.7 517.5,-368.7 450.5,-368.7"/>
<polygon fill="none" stroke="#000000" points="450.5,-368.7 450.5,-387.7 517.5,-387.7 517.5,-368.7 450.5,-368.7"/>
<text text-anchor="start" x="498.9053" y="-374.8" font-family="Helvetica,sans-Serif" font-size="11.00" fill="#000000">0 &gt;</text>
<polygon fill="none" stroke="#000000" stroke-width="2" points="245,-367.7 245,-631.7 518,-631.7 518,-367.7 245,-367.7"/>
</a>
</g>
</g>
<!-- am_projecttemplates -->
<g id="node2" class="node">
<title>am_projecttemplates</title>
<g id="a_node2"><a xlink:href="../../tables/am_projecttemplates.html" xlink:title="am_projecttemplates" target="_top">
<polygon fill="#ffffff" stroke="transparent" points="8,-115.2 8,-264.2 195,-264.2 195,-115.2 8,-115.2"/>
<polygon fill="#f5f5f5" stroke="transparent" points="8.5,-240.7 8.5,-263.7 195.5,-263.7 195.5,-240.7 8.5,-240.7"/>
<polygon fill="none" stroke="#000000" points="8.5,-240.7 8.5,-263.7 195.5,-263.7 195.5,-240.7 8.5,-240.7"/>
<text text-anchor="start" x="13.5" y="-249.8" font-family="Helvetica,sans-Serif" font-weight="bold" font-size="11.00" fill="#000000">am_projecttemplates</text>
<text text-anchor="start" x="160.5437" y="-248.8" font-family="Helvetica,sans-Serif" font-size="11.00" fill="#000000">[table]</text>
<polygon fill="none" stroke="#000000" points="8.5,-218.7 8.5,-240.7 195.5,-240.7 195.5,-218.7 8.5,-218.7"/>
<image xlink:href="../../images/primaryKeys.png" width="11px" height="12px" preserveAspectRatio="xMinYMin meet" x="13.5" y="-235.7"/>
<text text-anchor="start" x="28.5" y="-225.8" font-family="Helvetica,sans-Serif" font-size="11.00" fill="#000000">id</text>
<polygon fill="#c0c0c0" stroke="transparent" points="8.5,-196.7 8.5,-218.7 195.5,-218.7 195.5,-196.7 8.5,-196.7"/>
<polygon fill="none" stroke="#000000" points="8.5,-196.7 8.5,-218.7 195.5,-218.7 195.5,-196.7 8.5,-196.7"/>
<image xlink:href="../../images/foreignKeys.png" width="11px" height="12px" preserveAspectRatio="xMinYMin meet" x="13.5" y="-213.7"/>
<text text-anchor="start" x="28.5" y="-203.8" font-family="Helvetica,sans-Serif" font-size="11.00" fill="#000000">modified_user_id</text>
<polygon fill="#c0c0c0" stroke="transparent" points="8.5,-174.7 8.5,-196.7 195.5,-196.7 195.5,-174.7 8.5,-174.7"/>
<polygon fill="none" stroke="#000000" points="8.5,-174.7 8.5,-196.7 195.5,-196.7 195.5,-174.7 8.5,-174.7"/>
<image xlink:href="../../images/foreignKeys.png" width="11px" height="12px" preserveAspectRatio="xMinYMin meet" x="13.5" y="-191.7"/>
<text text-anchor="start" x="28.5" y="-181.8" font-family="Helvetica,sans-Serif" font-size="11.00" fill="#000000">created_by</text>
<polygon fill="#c0c0c0" stroke="transparent" points="8.5,-152.7 8.5,-174.7 195.5,-174.7 195.5,-152.7 8.5,-152.7"/>
<polygon fill="none" stroke="#000000" points="8.5,-152.7 8.5,-174.7 195.5,-174.7 195.5,-152.7 8.5,-152.7"/>
<image xlink:href="../../images/foreignKeys.png" width="11px" height="12px" preserveAspectRatio="xMinYMin meet" x="13.5" y="-169.7"/>
<text text-anchor="start" x="28.5" y="-159.8" font-family="Helvetica,sans-Serif" font-size="11.00" fill="#000000">assigned_user_id</text>
<polygon fill="none" stroke="#000000" points="8.5,-133.7 8.5,-152.7 195.5,-152.7 195.5,-133.7 8.5,-133.7"/>
<text text-anchor="start" x="11.5" y="-139.8" font-family="Helvetica,sans-Serif" font-size="11.00" fill="#000000">...</text>
<polygon fill="#ffffff" stroke="transparent" points="8.5,-114.7 8.5,-133.7 95.5,-133.7 95.5,-114.7 8.5,-114.7"/>
<polygon fill="none" stroke="#000000" points="8.5,-114.7 8.5,-133.7 95.5,-133.7 95.5,-114.7 8.5,-114.7"/>
<text text-anchor="start" x="11.5" y="-120.8" font-family="Helvetica,sans-Serif" font-size="11.00" fill="#000000">&lt; 3</text>
<polygon fill="#ffffff" stroke="transparent" points="95.5,-114.7 95.5,-133.7 140.5,-133.7 140.5,-114.7 95.5,-114.7"/>
<polygon fill="none" stroke="#000000" points="95.5,-114.7 95.5,-133.7 140.5,-133.7 140.5,-114.7 95.5,-114.7"/>
<text text-anchor="start" x="131.3862" y="-120.8" font-family="Helvetica,sans-Serif" font-size="11.00" fill="#000000"> &#160;</text>
<polygon fill="#ffffff" stroke="transparent" points="140.5,-114.7 140.5,-133.7 195.5,-133.7 195.5,-114.7 140.5,-114.7"/>
<polygon fill="none" stroke="#000000" points="140.5,-114.7 140.5,-133.7 195.5,-133.7 195.5,-114.7 140.5,-114.7"/>
<text text-anchor="start" x="176.9053" y="-120.8" font-family="Helvetica,sans-Serif" font-size="11.00" fill="#000000">5 &gt;</text>
</a>
</g>
</g>
<!-- am_projecttemplates_audit&#45;&gt;am_projecttemplates -->
<g id="edge1" class="edge">
<title>am_projecttemplates_audit:w&#45;&gt;am_projecttemplates:e</title>
<path fill="none" stroke="#000000" d="M232.7181,-569.823C182.7278,-527.89 267.5506,-229.7 195.5,-229.7"/>
<polygon fill="#000000" stroke="#000000" points="238.9583,-572.0312 245.299,-578.0938 242.7291,-573.3656 246.5,-574.7 246.5,-574.7 246.5,-574.7 242.7291,-573.3656 247.701,-571.3062 238.9583,-572.0312 238.9583,-572.0312"/>
<ellipse fill="none" stroke="#000000" cx="235.9416" cy="-570.9636" rx="3.2" ry="3.2"/>
</g>
<!-- am_projecttemplates_contacts_1_c -->
<g id="node3" class="node">
<title>am_projecttemplates_contacts_1_c</title>
<g id="a_node3"><a xlink:href="../../tables/am_projecttemplates_contacts_1_c.html" xlink:title="am_projecttemplates_contacts_1_c" target="_top">
<polygon fill="#ffffff" stroke="transparent" points="274,-284.2 274,-345.2 489,-345.2 489,-284.2 274,-284.2"/>
<polygon fill="#f5f5f5" stroke="transparent" points="274.5,-321.7 274.5,-344.7 489.5,-344.7 489.5,-321.7 274.5,-321.7"/>
<polygon fill="none" stroke="#000000" points="274.5,-321.7 274.5,-344.7 489.5,-344.7 489.5,-321.7 274.5,-321.7"/>
<text text-anchor="start" x="279.0048" y="-330.8" font-family="Helvetica,sans-Serif" font-weight="bold" font-size="11.00" fill="#000000">am_projecttemplates_contacts_1_c</text>
<text text-anchor="start" x="455.0219" y="-329.8" font-family="Helvetica,sans-Serif" font-size="11.00" fill="#000000">[table]</text>
<polygon fill="none" stroke="#000000" points="274.5,-302.7 274.5,-321.7 489.5,-321.7 489.5,-302.7 274.5,-302.7"/>
<text text-anchor="start" x="277.5" y="-308.8" font-family="Helvetica,sans-Serif" font-size="11.00" fill="#000000">...</text>
<polygon fill="#ffffff" stroke="transparent" points="274.5,-283.7 274.5,-302.7 380.5,-302.7 380.5,-283.7 274.5,-283.7"/>
<polygon fill="none" stroke="#000000" points="274.5,-283.7 274.5,-302.7 380.5,-302.7 380.5,-283.7 274.5,-283.7"/>
<text text-anchor="start" x="277.5" y="-289.8" font-family="Helvetica,sans-Serif" font-size="11.00" fill="#000000">&lt; 2</text>
<polygon fill="#ffffff" stroke="transparent" points="380.5,-283.7 380.5,-302.7 434.5,-302.7 434.5,-283.7 380.5,-283.7"/>
<polygon fill="none" stroke="#000000" points="380.5,-283.7 380.5,-302.7 434.5,-302.7 434.5,-283.7 380.5,-283.7"/>
<text text-anchor="start" x="425.3862" y="-289.8" font-family="Helvetica,sans-Serif" font-size="11.00" fill="#000000"> &#160;</text>
<polygon fill="#ffffff" stroke="transparent" points="434.5,-283.7 434.5,-302.7 489.5,-302.7 489.5,-283.7 434.5,-283.7"/>
<polygon fill="none" stroke="#000000" points="434.5,-283.7 434.5,-302.7 489.5,-302.7 489.5,-283.7 434.5,-283.7"/>
<text text-anchor="start" x="480.3862" y="-289.8" font-family="Helvetica,sans-Serif" font-size="11.00" fill="#000000"> &#160;</text>
</a>
</g>
</g>
<!-- am_projecttemplates_contacts_1_c&#45;&gt;am_projecttemplates -->
<g id="edge2" class="edge">
<title>am_projecttemplates_contacts_1_c:w&#45;&gt;am_projecttemplates:e</title>
<path fill="none" stroke="#000000" d="M260.3713,-307.9845C250.3555,-301.2503 248.3956,-286.5355 236,-273.7 217.5365,-254.5814 222.0786,-229.7 195.5,-229.7"/>
<polygon fill="#000000" stroke="#000000" points="266.7631,-309.6653 273.5844,-315.1816 270.6315,-310.6827 274.5,-311.7 274.5,-311.7 274.5,-311.7 270.6315,-310.6827 275.4156,-308.2184 266.7631,-309.6653 266.7631,-309.6653"/>
<ellipse fill="none" stroke="#000000" cx="263.6683" cy="-308.8515" rx="3.2" ry="3.2"/>
</g>
<!-- am_projecttemplates_project_1_c -->
<g id="node4" class="node">
<title>am_projecttemplates_project_1_c</title>
<g id="a_node4"><a xlink:href="../../tables/am_projecttemplates_project_1_c.html" xlink:title="am_projecttemplates_project_1_c" target="_top">
<polygon fill="#ffffff" stroke="transparent" points="277.5,-202.2 277.5,-263.2 485.5,-263.2 485.5,-202.2 277.5,-202.2"/>
<polygon fill="#f5f5f5" stroke="transparent" points="277.5,-239.7 277.5,-262.7 485.5,-262.7 485.5,-239.7 277.5,-239.7"/>
<polygon fill="none" stroke="#000000" points="277.5,-239.7 277.5,-262.7 485.5,-262.7 485.5,-239.7 277.5,-239.7"/>
<text text-anchor="start" x="282.4819" y="-248.8" font-family="Helvetica,sans-Serif" font-weight="bold" font-size="11.00" fill="#000000">am_projecttemplates_project_1_c</text>
<text text-anchor="start" x="451.0219" y="-247.8" font-family="Helvetica,sans-Serif" font-size="11.00" fill="#000000">[table]</text>
<polygon fill="none" stroke="#000000" points="277.5,-220.7 277.5,-239.7 485.5,-239.7 485.5,-220.7 277.5,-220.7"/>
<text text-anchor="start" x="280.5" y="-226.8" font-family="Helvetica,sans-Serif" font-size="11.00" fill="#000000">...</text>
<polygon fill="#ffffff" stroke="transparent" points="277.5,-201.7 277.5,-220.7 379.5,-220.7 379.5,-201.7 277.5,-201.7"/>
<polygon fill="none" stroke="#000000" points="277.5,-201.7 277.5,-220.7 379.5,-220.7 379.5,-201.7 277.5,-201.7"/>
<text text-anchor="start" x="280.5" y="-207.8" font-family="Helvetica,sans-Serif" font-size="11.00" fill="#000000">&lt; 2</text>
<polygon fill="#ffffff" stroke="transparent" points="379.5,-201.7 379.5,-220.7 432.5,-220.7 432.5,-201.7 379.5,-201.7"/>
<polygon fill="none" stroke="#000000" points="379.5,-201.7 379.5,-220.7 432.5,-220.7 432.5,-201.7 379.5,-201.7"/>
<text text-anchor="start" x="423.3862" y="-207.8" font-family="Helvetica,sans-Serif" font-size="11.00" fill="#000000"> &#160;</text>
<polygon fill="#ffffff" stroke="transparent" points="432.5,-201.7 432.5,-220.7 485.5,-220.7 485.5,-201.7 432.5,-201.7"/>
<polygon fill="none" stroke="#000000" points="432.5,-201.7 432.5,-220.7 485.5,-220.7 485.5,-201.7 432.5,-201.7"/>
<text text-anchor="start" x="476.3862" y="-207.8" font-family="Helvetica,sans-Serif" font-size="11.00" fill="#000000"> &#160;</text>
</a>
</g>
</g>
<!-- am_projecttemplates_project_1_c&#45;&gt;am_projecttemplates -->
<g id="edge3" class="edge">
<title>am_projecttemplates_project_1_c:w&#45;&gt;am_projecttemplates:e</title>
<path fill="none" stroke="#000000" d="M262.8988,-229.7C237.7484,-229.7 226.5347,-229.7 195.5,-229.7"/>
<polygon fill="#000000" stroke="#000000" points="269.5,-229.7001 277.5,-233.3 273.5,-229.7 277.5,-229.7 277.5,-229.7 277.5,-229.7 273.5,-229.7 277.5,-226.1 269.5,-229.7001 269.5,-229.7001"/>
<ellipse fill="none" stroke="#000000" cx="266.3" cy="-229.7001" rx="3.2" ry="3.2"/>
</g>
<!-- am_projecttemplates_users_1_c -->
<g id="node5" class="node">
<title>am_projecttemplates_users_1_c</title>
<g id="a_node5"><a xlink:href="../../tables/am_projecttemplates_users_1_c.html" xlink:title="am_projecttemplates_users_1_c" target="_top">
<polygon fill="#ffffff" stroke="transparent" points="281,-120.2 281,-181.2 482,-181.2 482,-120.2 281,-120.2"/>
<polygon fill="#f5f5f5" stroke="transparent" points="281.5,-157.7 281.5,-180.7 482.5,-180.7 482.5,-157.7 281.5,-157.7"/>
<polygon fill="none" stroke="#000000" points="281.5,-157.7 281.5,-180.7 482.5,-180.7 482.5,-157.7 281.5,-157.7"/>
<text text-anchor="start" x="286.0382" y="-166.8" font-family="Helvetica,sans-Serif" font-weight="bold" font-size="11.00" fill="#000000">am_projecttemplates_users_1_c</text>
<text text-anchor="start" x="448.0219" y="-165.8" font-family="Helvetica,sans-Serif" font-size="11.00" fill="#000000">[table]</text>
<polygon fill="none" stroke="#000000" points="281.5,-138.7 281.5,-157.7 482.5,-157.7 482.5,-138.7 281.5,-138.7"/>
<text text-anchor="start" x="284.5" y="-144.8" font-family="Helvetica,sans-Serif" font-size="11.00" fill="#000000">...</text>
<polygon fill="#ffffff" stroke="transparent" points="281.5,-119.7 281.5,-138.7 380.5,-138.7 380.5,-119.7 281.5,-119.7"/>
<polygon fill="none" stroke="#000000" points="281.5,-119.7 281.5,-138.7 380.5,-138.7 380.5,-119.7 281.5,-119.7"/>
<text text-anchor="start" x="284.5" y="-125.8" font-family="Helvetica,sans-Serif" font-size="11.00" fill="#000000">&lt; 2</text>
<polygon fill="#ffffff" stroke="transparent" points="380.5,-119.7 380.5,-138.7 431.5,-138.7 431.5,-119.7 380.5,-119.7"/>
<polygon fill="none" stroke="#000000" points="380.5,-119.7 380.5,-138.7 431.5,-138.7 431.5,-119.7 380.5,-119.7"/>
<text text-anchor="start" x="422.3862" y="-125.8" font-family="Helvetica,sans-Serif" font-size="11.00" fill="#000000"> &#160;</text>
<polygon fill="#ffffff" stroke="transparent" points="431.5,-119.7 431.5,-138.7 482.5,-138.7 482.5,-119.7 431.5,-119.7"/>
<polygon fill="none" stroke="#000000" points="431.5,-119.7 431.5,-138.7 482.5,-138.7 482.5,-119.7 431.5,-119.7"/>
<text text-anchor="start" x="473.3862" y="-125.8" font-family="Helvetica,sans-Serif" font-size="11.00" fill="#000000"> &#160;</text>
</a>
</g>
</g>
<!-- am_projecttemplates_users_1_c&#45;&gt;am_projecttemplates -->
<g id="edge4" class="edge">
<title>am_projecttemplates_users_1_c:w&#45;&gt;am_projecttemplates:e</title>
<path fill="none" stroke="#000000" d="M269.1461,-155.8623C246.7877,-176.6032 206.1243,-229.7 195.5,-229.7"/>
<polygon fill="#000000" stroke="#000000" points="274.8253,-152.11 283.4845,-150.7036 278.1626,-149.905 281.5,-147.7 281.5,-147.7 281.5,-147.7 278.1626,-149.905 279.5155,-144.6964 274.8253,-152.11 274.8253,-152.11"/>
<ellipse fill="none" stroke="#000000" cx="272.1554" cy="-153.874" rx="3.2" ry="3.2"/>
</g>
<!-- am_tasktemplates_am_projecttemplates_c -->
<g id="node6" class="node">
<title>am_tasktemplates_am_projecttemplates_c</title>
<g id="a_node6"><a xlink:href="../../tables/am_tasktemplates_am_projecttemplates_c.html" xlink:title="am_tasktemplates_am_projecttemplates_c" target="_top">
<polygon fill="#ffffff" stroke="transparent" points="255.5,-38.2 255.5,-99.2 507.5,-99.2 507.5,-38.2 255.5,-38.2"/>
<polygon fill="#f5f5f5" stroke="transparent" points="255.5,-75.7 255.5,-98.7 507.5,-98.7 507.5,-75.7 255.5,-75.7"/>
<polygon fill="none" stroke="#000000" points="255.5,-75.7 255.5,-98.7 507.5,-98.7 507.5,-75.7 255.5,-75.7"/>
<text text-anchor="start" x="260.4791" y="-84.8" font-family="Helvetica,sans-Serif" font-weight="bold" font-size="11.00" fill="#000000">am_tasktemplates_am_projecttemplates_c</text>
<text text-anchor="start" x="473.0219" y="-83.8" font-family="Helvetica,sans-Serif" font-size="11.00" fill="#000000">[table]</text>
<polygon fill="none" stroke="#000000" points="255.5,-56.7 255.5,-75.7 507.5,-75.7 507.5,-56.7 255.5,-56.7"/>
<text text-anchor="start" x="258.5" y="-62.8" font-family="Helvetica,sans-Serif" font-size="11.00" fill="#000000">...</text>
<polygon fill="#ffffff" stroke="transparent" points="255.5,-37.7 255.5,-56.7 379.5,-56.7 379.5,-37.7 255.5,-37.7"/>
<polygon fill="none" stroke="#000000" points="255.5,-37.7 255.5,-56.7 379.5,-56.7 379.5,-37.7 255.5,-37.7"/>
<text text-anchor="start" x="258.5" y="-43.8" font-family="Helvetica,sans-Serif" font-size="11.00" fill="#000000">&lt; 2</text>
<polygon fill="#ffffff" stroke="transparent" points="379.5,-37.7 379.5,-56.7 443.5,-56.7 443.5,-37.7 379.5,-37.7"/>
<polygon fill="none" stroke="#000000" points="379.5,-37.7 379.5,-56.7 443.5,-56.7 443.5,-37.7 379.5,-37.7"/>
<text text-anchor="start" x="434.3862" y="-43.8" font-family="Helvetica,sans-Serif" font-size="11.00" fill="#000000"> &#160;</text>
<polygon fill="#ffffff" stroke="transparent" points="443.5,-37.7 443.5,-56.7 507.5,-56.7 507.5,-37.7 443.5,-37.7"/>
<polygon fill="none" stroke="#000000" points="443.5,-37.7 443.5,-56.7 507.5,-56.7 507.5,-37.7 443.5,-37.7"/>
<text text-anchor="start" x="498.3862" y="-43.8" font-family="Helvetica,sans-Serif" font-size="11.00" fill="#000000"> &#160;</text>
</a>
</g>
</g>
<!-- am_tasktemplates_am_projecttemplates_c&#45;&gt;am_projecttemplates -->
<g id="edge5" class="edge">
<title>am_tasktemplates_am_projecttemplates_c:w&#45;&gt;am_projecttemplates:e</title>
<path fill="none" stroke="#000000" d="M241.251,-68.1456C190.7469,-88.5467 267.505,-229.7 195.5,-229.7"/>
<polygon fill="#000000" stroke="#000000" points="247.6153,-67.0533 256.109,-69.2481 251.5576,-66.3767 255.5,-65.7 255.5,-65.7 255.5,-65.7 251.5576,-66.3767 254.891,-62.1519 247.6153,-67.0533 247.6153,-67.0533"/>
<ellipse fill="none" stroke="#000000" cx="244.4614" cy="-67.5947" rx="3.2" ry="3.2"/>
</g>
</g>
</svg>
