<?xml version="1.0" encoding="UTF-8" standalone="no"?>
<!DOCTYPE svg PUBLIC "-//W3C//DTD SVG 1.1//EN"
 "http://www.w3.org/Graphics/SVG/1.1/DTD/svg11.dtd">
<!-- Generated by graphviz version 2.40.1 (20161225.0304)
 -->
<!-- Title: oneDegreeRelationshipsDiagram Pages: 1 -->
<svg width="473pt" height="316pt"
 viewBox="0.00 0.00 473.00 316.20" xmlns="http://www.w3.org/2000/svg" xmlns:xlink="http://www.w3.org/1999/xlink">
<g id="graph0" class="graph" transform="scale(1 1) rotate(0) translate(4 312.2)">
<title>oneDegreeRelationshipsDiagram</title>
<polygon fill="#ffffff" stroke="transparent" points="-4,4 -4,-312.2 469,-312.2 469,4 -4,4"/>
<text text-anchor="middle" x="72.4936" y="-7.3" font-family="Helvetica,sans-Serif" font-size="11.00" fill="#000000">Generated by SchemaSpy</text>
<!-- am_tasktemplates_audit -->
<g id="node1" class="node">
<title>am_tasktemplates_audit</title>
<g id="a_node1"><a xlink:href="../../tables/am_tasktemplates_audit.html" xlink:title="am_tasktemplates_audit" target="_top">
<polygon fill="#ffffff" stroke="transparent" points="201,-38.2 201,-304.2 457,-304.2 457,-38.2 201,-38.2"/>
<polygon fill="#f5f5f5" stroke="transparent" points="203,-279.2 203,-302.2 455,-302.2 455,-279.2 203,-279.2"/>
<polygon fill="none" stroke="#000000" points="203,-279.2 203,-302.2 455,-302.2 455,-279.2 203,-279.2"/>
<text text-anchor="start" x="208" y="-288.3" font-family="Helvetica,sans-Serif" font-weight="bold" font-size="11.00" fill="#000000">am_tasktemplates_audit</text>
<text text-anchor="start" x="420.0437" y="-287.3" font-family="Helvetica,sans-Serif" font-size="11.00" fill="#000000">[table]</text>
<polygon fill="none" stroke="#000000" points="203,-257.2 203,-279.2 388,-279.2 388,-257.2 203,-257.2"/>
<image xlink:href="../../images/primaryKeys.png" width="11px" height="12px" preserveAspectRatio="xMinYMin meet" x="208" y="-274.2"/>
<text text-anchor="start" x="223" y="-264.3" font-family="Helvetica,sans-Serif" font-size="11.00" fill="#000000">id</text>
<polygon fill="none" stroke="#000000" points="388,-257.2 388,-279.2 455,-279.2 455,-257.2 388,-257.2"/>
<text text-anchor="start" x="391" y="-264.9" font-family="Helvetica,sans-Serif" font-size="11.00" fill="#000000">char[36]</text>
<polygon fill="#ffffff" stroke="transparent" points="203,-235.2 203,-257.2 388,-257.2 388,-235.2 203,-235.2"/>
<polygon fill="none" stroke="#000000" points="203,-235.2 203,-257.2 388,-257.2 388,-235.2 203,-235.2"/>
<image xlink:href="../../images/foreignKeys.png" width="11px" height="12px" preserveAspectRatio="xMinYMin meet" x="208" y="-252.2"/>
<text text-anchor="start" x="223" y="-242.3" font-family="Helvetica,sans-Serif" font-size="11.00" fill="#000000">parent_id</text>
<polygon fill="none" stroke="#000000" points="388,-235.2 388,-257.2 455,-257.2 455,-235.2 388,-235.2"/>
<text text-anchor="start" x="391" y="-242.9" font-family="Helvetica,sans-Serif" font-size="11.00" fill="#000000">char[36]</text>
<polygon fill="none" stroke="#000000" points="203,-213.2 203,-235.2 388,-235.2 388,-213.2 203,-213.2"/>
<text text-anchor="start" x="223" y="-220.3" font-family="Helvetica,sans-Serif" font-size="11.00" fill="#000000">date_created</text>
<polygon fill="none" stroke="#000000" points="388,-213.2 388,-235.2 455,-235.2 455,-213.2 388,-213.2"/>
<text text-anchor="start" x="391" y="-220.9" font-family="Helvetica,sans-Serif" font-size="11.00" fill="#000000">datetime[26]</text>
<polygon fill="none" stroke="#000000" points="203,-191.2 203,-213.2 388,-213.2 388,-191.2 203,-191.2"/>
<text text-anchor="start" x="223" y="-198.3" font-family="Helvetica,sans-Serif" font-size="11.00" fill="#000000">created_by</text>
<polygon fill="none" stroke="#000000" points="388,-191.2 388,-213.2 455,-213.2 455,-191.2 388,-191.2"/>
<text text-anchor="start" x="391" y="-198.9" font-family="Helvetica,sans-Serif" font-size="11.00" fill="#000000">varchar[36]</text>
<polygon fill="none" stroke="#000000" points="203,-169.2 203,-191.2 388,-191.2 388,-169.2 203,-169.2"/>
<text text-anchor="start" x="223" y="-176.3" font-family="Helvetica,sans-Serif" font-size="11.00" fill="#000000">field_name</text>
<polygon fill="none" stroke="#000000" points="388,-169.2 388,-191.2 455,-191.2 455,-169.2 388,-169.2"/>
<text text-anchor="start" x="390.9365" y="-176.9" font-family="Helvetica,sans-Serif" font-size="11.00" fill="#000000">varchar[100]</text>
<polygon fill="none" stroke="#000000" points="203,-147.2 203,-169.2 388,-169.2 388,-147.2 203,-147.2"/>
<text text-anchor="start" x="223" y="-154.3" font-family="Helvetica,sans-Serif" font-size="11.00" fill="#000000">data_type</text>
<polygon fill="none" stroke="#000000" points="388,-147.2 388,-169.2 455,-169.2 455,-147.2 388,-147.2"/>
<text text-anchor="start" x="390.9365" y="-154.9" font-family="Helvetica,sans-Serif" font-size="11.00" fill="#000000">varchar[100]</text>
<polygon fill="none" stroke="#000000" points="203,-125.2 203,-147.2 388,-147.2 388,-125.2 203,-125.2"/>
<text text-anchor="start" x="223" y="-132.3" font-family="Helvetica,sans-Serif" font-size="11.00" fill="#000000">before_value_string</text>
<polygon fill="none" stroke="#000000" points="388,-125.2 388,-147.2 455,-147.2 455,-125.2 388,-125.2"/>
<text text-anchor="start" x="390.9365" y="-132.9" font-family="Helvetica,sans-Serif" font-size="11.00" fill="#000000">varchar[255]</text>
<polygon fill="none" stroke="#000000" points="203,-103.2 203,-125.2 388,-125.2 388,-103.2 203,-103.2"/>
<text text-anchor="start" x="223" y="-110.3" font-family="Helvetica,sans-Serif" font-size="11.00" fill="#000000">after_value_string</text>
<polygon fill="none" stroke="#000000" points="388,-103.2 388,-125.2 455,-125.2 455,-103.2 388,-103.2"/>
<text text-anchor="start" x="390.9365" y="-110.9" font-family="Helvetica,sans-Serif" font-size="11.00" fill="#000000">varchar[255]</text>
<polygon fill="none" stroke="#000000" points="203,-81.2 203,-103.2 388,-103.2 388,-81.2 203,-81.2"/>
<text text-anchor="start" x="223" y="-88.3" font-family="Helvetica,sans-Serif" font-size="11.00" fill="#000000">before_value_text</text>
<polygon fill="none" stroke="#000000" points="388,-81.2 388,-103.2 455,-103.2 455,-81.2 388,-81.2"/>
<text text-anchor="start" x="391" y="-88.9" font-family="Helvetica,sans-Serif" font-size="11.00" fill="#000000">text[65535]</text>
<polygon fill="none" stroke="#000000" points="203,-59.2 203,-81.2 388,-81.2 388,-59.2 203,-59.2"/>
<text text-anchor="start" x="223" y="-66.3" font-family="Helvetica,sans-Serif" font-size="11.00" fill="#000000">after_value_text</text>
<polygon fill="none" stroke="#000000" points="388,-59.2 388,-81.2 455,-81.2 455,-59.2 388,-59.2"/>
<text text-anchor="start" x="391" y="-66.9" font-family="Helvetica,sans-Serif" font-size="11.00" fill="#000000">text[65535]</text>
<polygon fill="#ffffff" stroke="transparent" points="203,-40.2 203,-59.2 300,-59.2 300,-40.2 203,-40.2"/>
<polygon fill="none" stroke="#000000" points="203,-40.2 203,-59.2 300,-59.2 300,-40.2 203,-40.2"/>
<text text-anchor="start" x="206" y="-46.3" font-family="Helvetica,sans-Serif" font-size="11.00" fill="#000000">&lt; 1</text>
<polygon fill="#ffffff" stroke="transparent" points="300,-40.2 300,-59.2 388,-59.2 388,-40.2 300,-40.2"/>
<polygon fill="none" stroke="#000000" points="300,-40.2 300,-59.2 388,-59.2 388,-40.2 300,-40.2"/>
<text text-anchor="start" x="378.8862" y="-46.3" font-family="Helvetica,sans-Serif" font-size="11.00" fill="#000000"> &#160;</text>
<polygon fill="#ffffff" stroke="transparent" points="388,-40.2 388,-59.2 455,-59.2 455,-40.2 388,-40.2"/>
<polygon fill="none" stroke="#000000" points="388,-40.2 388,-59.2 455,-59.2 455,-40.2 388,-40.2"/>
<text text-anchor="start" x="436.4053" y="-46.3" font-family="Helvetica,sans-Serif" font-size="11.00" fill="#000000">0 &gt;</text>
<polygon fill="none" stroke="#000000" stroke-width="2" points="202,-39.2 202,-303.2 456,-303.2 456,-39.2 202,-39.2"/>
</a>
</g>
</g>
<!-- am_tasktemplates -->
<g id="node2" class="node">
<title>am_tasktemplates</title>
<g id="a_node2"><a xlink:href="../../tables/am_tasktemplates.html" xlink:title="am_tasktemplates" target="_top">
<polygon fill="#ffffff" stroke="transparent" points="8,-131.7 8,-280.7 152,-280.7 152,-131.7 8,-131.7"/>
<polygon fill="#f5f5f5" stroke="transparent" points="8,-257.2 8,-280.2 152,-280.2 152,-257.2 8,-257.2"/>
<polygon fill="none" stroke="#000000" points="8,-257.2 8,-280.2 152,-280.2 152,-257.2 8,-257.2"/>
<text text-anchor="start" x="13" y="-266.3" font-family="Helvetica,sans-Serif" font-weight="bold" font-size="11.00" fill="#000000">am_tasktemplates</text>
<text text-anchor="start" x="117.0437" y="-265.3" font-family="Helvetica,sans-Serif" font-size="11.00" fill="#000000">[table]</text>
<polygon fill="none" stroke="#000000" points="8,-235.2 8,-257.2 152,-257.2 152,-235.2 8,-235.2"/>
<image xlink:href="../../images/primaryKeys.png" width="11px" height="12px" preserveAspectRatio="xMinYMin meet" x="13" y="-252.2"/>
<text text-anchor="start" x="28" y="-242.3" font-family="Helvetica,sans-Serif" font-size="11.00" fill="#000000">id</text>
<polygon fill="#c0c0c0" stroke="transparent" points="8,-213.2 8,-235.2 152,-235.2 152,-213.2 8,-213.2"/>
<polygon fill="none" stroke="#000000" points="8,-213.2 8,-235.2 152,-235.2 152,-213.2 8,-213.2"/>
<image xlink:href="../../images/foreignKeys.png" width="11px" height="12px" preserveAspectRatio="xMinYMin meet" x="13" y="-230.2"/>
<text text-anchor="start" x="28" y="-220.3" font-family="Helvetica,sans-Serif" font-size="11.00" fill="#000000">modified_user_id</text>
<polygon fill="#c0c0c0" stroke="transparent" points="8,-191.2 8,-213.2 152,-213.2 152,-191.2 8,-191.2"/>
<polygon fill="none" stroke="#000000" points="8,-191.2 8,-213.2 152,-213.2 152,-191.2 8,-191.2"/>
<image xlink:href="../../images/foreignKeys.png" width="11px" height="12px" preserveAspectRatio="xMinYMin meet" x="13" y="-208.2"/>
<text text-anchor="start" x="28" y="-198.3" font-family="Helvetica,sans-Serif" font-size="11.00" fill="#000000">created_by</text>
<polygon fill="#c0c0c0" stroke="transparent" points="8,-169.2 8,-191.2 152,-191.2 152,-169.2 8,-169.2"/>
<polygon fill="none" stroke="#000000" points="8,-169.2 8,-191.2 152,-191.2 152,-169.2 8,-169.2"/>
<image xlink:href="../../images/foreignKeys.png" width="11px" height="12px" preserveAspectRatio="xMinYMin meet" x="13" y="-186.2"/>
<text text-anchor="start" x="28" y="-176.3" font-family="Helvetica,sans-Serif" font-size="11.00" fill="#000000">assigned_user_id</text>
<polygon fill="none" stroke="#000000" points="8,-150.2 8,-169.2 152,-169.2 152,-150.2 8,-150.2"/>
<text text-anchor="start" x="11" y="-156.3" font-family="Helvetica,sans-Serif" font-size="11.00" fill="#000000">...</text>
<polygon fill="#ffffff" stroke="transparent" points="8,-131.2 8,-150.2 74,-150.2 74,-131.2 8,-131.2"/>
<polygon fill="none" stroke="#000000" points="8,-131.2 8,-150.2 74,-150.2 74,-131.2 8,-131.2"/>
<text text-anchor="start" x="11" y="-137.3" font-family="Helvetica,sans-Serif" font-size="11.00" fill="#000000">&lt; 3</text>
<polygon fill="#ffffff" stroke="transparent" points="74,-131.2 74,-150.2 108,-150.2 108,-131.2 74,-131.2"/>
<polygon fill="none" stroke="#000000" points="74,-131.2 74,-150.2 108,-150.2 108,-131.2 74,-131.2"/>
<text text-anchor="start" x="98.8862" y="-137.3" font-family="Helvetica,sans-Serif" font-size="11.00" fill="#000000"> &#160;</text>
<polygon fill="#ffffff" stroke="transparent" points="108,-131.2 108,-150.2 152,-150.2 152,-131.2 108,-131.2"/>
<polygon fill="none" stroke="#000000" points="108,-131.2 108,-150.2 152,-150.2 152,-131.2 108,-131.2"/>
<text text-anchor="start" x="133.4053" y="-137.3" font-family="Helvetica,sans-Serif" font-size="11.00" fill="#000000">2 &gt;</text>
</a>
</g>
</g>
<!-- am_tasktemplates_audit&#45;&gt;am_tasktemplates -->
<g id="edge1" class="edge">
<title>am_tasktemplates_audit:w&#45;&gt;am_tasktemplates:e</title>
<path fill="none" stroke="#000000" d="M188.276,-246.2C176.2815,-246.2 168.8229,-246.2 152,-246.2"/>
<polygon fill="#000000" stroke="#000000" points="195,-246.2001 203,-249.8 199,-246.2 203,-246.2 203,-246.2 203,-246.2 199,-246.2 203,-242.6 195,-246.2001 195,-246.2001"/>
<ellipse fill="none" stroke="#000000" cx="191.8" cy="-246.2001" rx="3.2" ry="3.2"/>
</g>
</g>
</svg>
