<?xml version="1.0" encoding="UTF-8" standalone="no"?>
<!DOCTYPE svg PUBLIC "-//W3C//DTD SVG 1.1//EN"
 "http://www.w3.org/Graphics/SVG/1.1/DTD/svg11.dtd">
<!-- Generated by graphviz version 2.40.1 (20161225.0304)
 -->
<!-- Title: twoDegreesRelationshipsDiagram Pages: 1 -->
<svg width="792pt" height="535pt"
 viewBox="0.00 0.00 792.00 535.20" xmlns="http://www.w3.org/2000/svg" xmlns:xlink="http://www.w3.org/1999/xlink">
<g id="graph0" class="graph" transform="scale(1 1) rotate(0) translate(4 531.2)">
<title>twoDegreesRelationshipsDiagram</title>
<polygon fill="#ffffff" stroke="transparent" points="-4,4 -4,-531.2 788,-531.2 788,4 -4,4"/>
<text text-anchor="middle" x="72.4936" y="-7.3" font-family="Helvetica,sans-Serif" font-size="11.00" fill="#000000">Generated by SchemaSpy</text>
<!-- am_projecttemplates_contacts_1_c -->
<g id="node1" class="node">
<title>am_projecttemplates_contacts_1_c</title>
<g id="a_node1"><a xlink:href="../../tables/am_projecttemplates_contacts_1_c.html" xlink:title="am_projecttemplates_contacts_1_c" target="_top">
<polygon fill="#ffffff" stroke="transparent" points="402.5,-462.2 402.5,-523.2 617.5,-523.2 617.5,-462.2 402.5,-462.2"/>
<polygon fill="#f5f5f5" stroke="transparent" points="403,-499.7 403,-522.7 618,-522.7 618,-499.7 403,-499.7"/>
<polygon fill="none" stroke="#000000" points="403,-499.7 403,-522.7 618,-522.7 618,-499.7 403,-499.7"/>
<text text-anchor="start" x="407.5048" y="-508.8" font-family="Helvetica,sans-Serif" font-weight="bold" font-size="11.00" fill="#000000">am_projecttemplates_contacts_1_c</text>
<text text-anchor="start" x="583.5219" y="-507.8" font-family="Helvetica,sans-Serif" font-size="11.00" fill="#000000">[table]</text>
<polygon fill="none" stroke="#000000" points="403,-480.7 403,-499.7 618,-499.7 618,-480.7 403,-480.7"/>
<text text-anchor="start" x="406" y="-486.8" font-family="Helvetica,sans-Serif" font-size="11.00" fill="#000000">...</text>
<polygon fill="#ffffff" stroke="transparent" points="403,-461.7 403,-480.7 509,-480.7 509,-461.7 403,-461.7"/>
<polygon fill="none" stroke="#000000" points="403,-461.7 403,-480.7 509,-480.7 509,-461.7 403,-461.7"/>
<text text-anchor="start" x="406" y="-467.8" font-family="Helvetica,sans-Serif" font-size="11.00" fill="#000000">&lt; 2</text>
<polygon fill="#ffffff" stroke="transparent" points="509,-461.7 509,-480.7 563,-480.7 563,-461.7 509,-461.7"/>
<polygon fill="none" stroke="#000000" points="509,-461.7 509,-480.7 563,-480.7 563,-461.7 509,-461.7"/>
<text text-anchor="start" x="553.8862" y="-467.8" font-family="Helvetica,sans-Serif" font-size="11.00" fill="#000000"> &#160;</text>
<polygon fill="#ffffff" stroke="transparent" points="563,-461.7 563,-480.7 618,-480.7 618,-461.7 563,-461.7"/>
<polygon fill="none" stroke="#000000" points="563,-461.7 563,-480.7 618,-480.7 618,-461.7 563,-461.7"/>
<text text-anchor="start" x="608.8862" y="-467.8" font-family="Helvetica,sans-Serif" font-size="11.00" fill="#000000"> &#160;</text>
</a>
</g>
</g>
<!-- am_projecttemplates -->
<g id="node2" class="node">
<title>am_projecttemplates</title>
<g id="a_node2"><a xlink:href="../../tables/am_projecttemplates.html" xlink:title="am_projecttemplates" target="_top">
<polygon fill="#ffffff" stroke="transparent" points="8,-252.2 8,-401.2 195,-401.2 195,-252.2 8,-252.2"/>
<polygon fill="#f5f5f5" stroke="transparent" points="8.5,-377.7 8.5,-400.7 195.5,-400.7 195.5,-377.7 8.5,-377.7"/>
<polygon fill="none" stroke="#000000" points="8.5,-377.7 8.5,-400.7 195.5,-400.7 195.5,-377.7 8.5,-377.7"/>
<text text-anchor="start" x="13.5" y="-386.8" font-family="Helvetica,sans-Serif" font-weight="bold" font-size="11.00" fill="#000000">am_projecttemplates</text>
<text text-anchor="start" x="160.5437" y="-385.8" font-family="Helvetica,sans-Serif" font-size="11.00" fill="#000000">[table]</text>
<polygon fill="none" stroke="#000000" points="8.5,-355.7 8.5,-377.7 195.5,-377.7 195.5,-355.7 8.5,-355.7"/>
<image xlink:href="../../images/primaryKeys.png" width="11px" height="12px" preserveAspectRatio="xMinYMin meet" x="13.5" y="-372.7"/>
<text text-anchor="start" x="28.5" y="-362.8" font-family="Helvetica,sans-Serif" font-size="11.00" fill="#000000">id</text>
<polygon fill="#c0c0c0" stroke="transparent" points="8.5,-333.7 8.5,-355.7 195.5,-355.7 195.5,-333.7 8.5,-333.7"/>
<polygon fill="none" stroke="#000000" points="8.5,-333.7 8.5,-355.7 195.5,-355.7 195.5,-333.7 8.5,-333.7"/>
<image xlink:href="../../images/foreignKeys.png" width="11px" height="12px" preserveAspectRatio="xMinYMin meet" x="13.5" y="-350.7"/>
<text text-anchor="start" x="28.5" y="-340.8" font-family="Helvetica,sans-Serif" font-size="11.00" fill="#000000">modified_user_id</text>
<polygon fill="#c0c0c0" stroke="transparent" points="8.5,-311.7 8.5,-333.7 195.5,-333.7 195.5,-311.7 8.5,-311.7"/>
<polygon fill="none" stroke="#000000" points="8.5,-311.7 8.5,-333.7 195.5,-333.7 195.5,-311.7 8.5,-311.7"/>
<image xlink:href="../../images/foreignKeys.png" width="11px" height="12px" preserveAspectRatio="xMinYMin meet" x="13.5" y="-328.7"/>
<text text-anchor="start" x="28.5" y="-318.8" font-family="Helvetica,sans-Serif" font-size="11.00" fill="#000000">created_by</text>
<polygon fill="#c0c0c0" stroke="transparent" points="8.5,-289.7 8.5,-311.7 195.5,-311.7 195.5,-289.7 8.5,-289.7"/>
<polygon fill="none" stroke="#000000" points="8.5,-289.7 8.5,-311.7 195.5,-311.7 195.5,-289.7 8.5,-289.7"/>
<image xlink:href="../../images/foreignKeys.png" width="11px" height="12px" preserveAspectRatio="xMinYMin meet" x="13.5" y="-306.7"/>
<text text-anchor="start" x="28.5" y="-296.8" font-family="Helvetica,sans-Serif" font-size="11.00" fill="#000000">assigned_user_id</text>
<polygon fill="none" stroke="#000000" points="8.5,-270.7 8.5,-289.7 195.5,-289.7 195.5,-270.7 8.5,-270.7"/>
<text text-anchor="start" x="11.5" y="-276.8" font-family="Helvetica,sans-Serif" font-size="11.00" fill="#000000">...</text>
<polygon fill="#ffffff" stroke="transparent" points="8.5,-251.7 8.5,-270.7 95.5,-270.7 95.5,-251.7 8.5,-251.7"/>
<polygon fill="none" stroke="#000000" points="8.5,-251.7 8.5,-270.7 95.5,-270.7 95.5,-251.7 8.5,-251.7"/>
<text text-anchor="start" x="11.5" y="-257.8" font-family="Helvetica,sans-Serif" font-size="11.00" fill="#000000">&lt; 3</text>
<polygon fill="#ffffff" stroke="transparent" points="95.5,-251.7 95.5,-270.7 140.5,-270.7 140.5,-251.7 95.5,-251.7"/>
<polygon fill="none" stroke="#000000" points="95.5,-251.7 95.5,-270.7 140.5,-270.7 140.5,-251.7 95.5,-251.7"/>
<text text-anchor="start" x="131.3862" y="-257.8" font-family="Helvetica,sans-Serif" font-size="11.00" fill="#000000"> &#160;</text>
<polygon fill="#ffffff" stroke="transparent" points="140.5,-251.7 140.5,-270.7 195.5,-270.7 195.5,-251.7 140.5,-251.7"/>
<polygon fill="none" stroke="#000000" points="140.5,-251.7 140.5,-270.7 195.5,-270.7 195.5,-251.7 140.5,-251.7"/>
<text text-anchor="start" x="176.9053" y="-257.8" font-family="Helvetica,sans-Serif" font-size="11.00" fill="#000000">5 &gt;</text>
</a>
</g>
</g>
<!-- am_projecttemplates_contacts_1_c&#45;&gt;am_projecttemplates -->
<g id="edge1" class="edge">
<title>am_projecttemplates_contacts_1_c:w&#45;&gt;am_projecttemplates:e</title>
<path fill="none" stroke="#000000" d="M388.4052,-489.807C322.5801,-490.7182 291.4832,-496.1049 236,-451.7 203.3283,-425.5519 237.3469,-366.7 195.5,-366.7"/>
<polygon fill="#000000" stroke="#000000" points="395.0002,-489.7587 403.0264,-493.2999 399.0001,-489.7293 403,-489.7 403,-489.7 403,-489.7 399.0001,-489.7293 402.9736,-486.1001 395.0002,-489.7587 395.0002,-489.7587"/>
<ellipse fill="none" stroke="#000000" cx="391.8003" cy="-489.7822" rx="3.2" ry="3.2"/>
</g>
<!-- am_projecttemplates_project_1_c -->
<g id="node3" class="node">
<title>am_projecttemplates_project_1_c</title>
<g id="a_node3"><a xlink:href="../../tables/am_projecttemplates_project_1_c.html" xlink:title="am_projecttemplates_project_1_c" target="_top">
<polygon fill="#ffffff" stroke="transparent" points="406,-380.2 406,-441.2 614,-441.2 614,-380.2 406,-380.2"/>
<polygon fill="#f5f5f5" stroke="transparent" points="406,-417.7 406,-440.7 614,-440.7 614,-417.7 406,-417.7"/>
<polygon fill="none" stroke="#000000" points="406,-417.7 406,-440.7 614,-440.7 614,-417.7 406,-417.7"/>
<text text-anchor="start" x="410.9819" y="-426.8" font-family="Helvetica,sans-Serif" font-weight="bold" font-size="11.00" fill="#000000">am_projecttemplates_project_1_c</text>
<text text-anchor="start" x="579.5219" y="-425.8" font-family="Helvetica,sans-Serif" font-size="11.00" fill="#000000">[table]</text>
<polygon fill="none" stroke="#000000" points="406,-398.7 406,-417.7 614,-417.7 614,-398.7 406,-398.7"/>
<text text-anchor="start" x="409" y="-404.8" font-family="Helvetica,sans-Serif" font-size="11.00" fill="#000000">...</text>
<polygon fill="#ffffff" stroke="transparent" points="406,-379.7 406,-398.7 508,-398.7 508,-379.7 406,-379.7"/>
<polygon fill="none" stroke="#000000" points="406,-379.7 406,-398.7 508,-398.7 508,-379.7 406,-379.7"/>
<text text-anchor="start" x="409" y="-385.8" font-family="Helvetica,sans-Serif" font-size="11.00" fill="#000000">&lt; 2</text>
<polygon fill="#ffffff" stroke="transparent" points="508,-379.7 508,-398.7 561,-398.7 561,-379.7 508,-379.7"/>
<polygon fill="none" stroke="#000000" points="508,-379.7 508,-398.7 561,-398.7 561,-379.7 508,-379.7"/>
<text text-anchor="start" x="551.8862" y="-385.8" font-family="Helvetica,sans-Serif" font-size="11.00" fill="#000000"> &#160;</text>
<polygon fill="#ffffff" stroke="transparent" points="561,-379.7 561,-398.7 614,-398.7 614,-379.7 561,-379.7"/>
<polygon fill="none" stroke="#000000" points="561,-379.7 561,-398.7 614,-398.7 614,-379.7 561,-379.7"/>
<text text-anchor="start" x="604.8862" y="-385.8" font-family="Helvetica,sans-Serif" font-size="11.00" fill="#000000"> &#160;</text>
</a>
</g>
</g>
<!-- am_projecttemplates_project_1_c&#45;&gt;am_projecttemplates -->
<g id="edge2" class="edge">
<title>am_projecttemplates_project_1_c:w&#45;&gt;am_projecttemplates:e</title>
<path fill="none" stroke="#000000" d="M391.6177,-406.7666C338.1907,-400.6638 238.8752,-366.7 195.5,-366.7"/>
<polygon fill="#000000" stroke="#000000" points="398.0168,-407.1819 405.7668,-411.2924 402.0084,-407.4409 406,-407.7 406,-407.7 406,-407.7 402.0084,-407.4409 406.2332,-404.1076 398.0168,-407.1819 398.0168,-407.1819"/>
<ellipse fill="none" stroke="#000000" cx="394.8235" cy="-406.9746" rx="3.2" ry="3.2"/>
</g>
<!-- am_projecttemplates_users_1_c -->
<g id="node4" class="node">
<title>am_projecttemplates_users_1_c</title>
<g id="a_node4"><a xlink:href="../../tables/am_projecttemplates_users_1_c.html" xlink:title="am_projecttemplates_users_1_c" target="_top">
<polygon fill="#ffffff" stroke="transparent" points="409.5,-298.2 409.5,-359.2 610.5,-359.2 610.5,-298.2 409.5,-298.2"/>
<polygon fill="#f5f5f5" stroke="transparent" points="410,-335.7 410,-358.7 611,-358.7 611,-335.7 410,-335.7"/>
<polygon fill="none" stroke="#000000" points="410,-335.7 410,-358.7 611,-358.7 611,-335.7 410,-335.7"/>
<text text-anchor="start" x="414.5382" y="-344.8" font-family="Helvetica,sans-Serif" font-weight="bold" font-size="11.00" fill="#000000">am_projecttemplates_users_1_c</text>
<text text-anchor="start" x="576.5219" y="-343.8" font-family="Helvetica,sans-Serif" font-size="11.00" fill="#000000">[table]</text>
<polygon fill="none" stroke="#000000" points="410,-316.7 410,-335.7 611,-335.7 611,-316.7 410,-316.7"/>
<text text-anchor="start" x="413" y="-322.8" font-family="Helvetica,sans-Serif" font-size="11.00" fill="#000000">...</text>
<polygon fill="#ffffff" stroke="transparent" points="410,-297.7 410,-316.7 509,-316.7 509,-297.7 410,-297.7"/>
<polygon fill="none" stroke="#000000" points="410,-297.7 410,-316.7 509,-316.7 509,-297.7 410,-297.7"/>
<text text-anchor="start" x="413" y="-303.8" font-family="Helvetica,sans-Serif" font-size="11.00" fill="#000000">&lt; 2</text>
<polygon fill="#ffffff" stroke="transparent" points="509,-297.7 509,-316.7 560,-316.7 560,-297.7 509,-297.7"/>
<polygon fill="none" stroke="#000000" points="509,-297.7 509,-316.7 560,-316.7 560,-297.7 509,-297.7"/>
<text text-anchor="start" x="550.8862" y="-303.8" font-family="Helvetica,sans-Serif" font-size="11.00" fill="#000000"> &#160;</text>
<polygon fill="#ffffff" stroke="transparent" points="560,-297.7 560,-316.7 611,-316.7 611,-297.7 560,-297.7"/>
<polygon fill="none" stroke="#000000" points="560,-297.7 560,-316.7 611,-316.7 611,-297.7 560,-297.7"/>
<text text-anchor="start" x="601.8862" y="-303.8" font-family="Helvetica,sans-Serif" font-size="11.00" fill="#000000"> &#160;</text>
</a>
</g>
</g>
<!-- am_projecttemplates_users_1_c&#45;&gt;am_projecttemplates -->
<g id="edge3" class="edge">
<title>am_projecttemplates_users_1_c:w&#45;&gt;am_projecttemplates:e</title>
<path fill="none" stroke="#000000" d="M395.5242,-326.0181C310.6256,-329.8343 287.5357,-366.7 195.5,-366.7"/>
<polygon fill="#000000" stroke="#000000" points="402.0019,-325.8758 410.0791,-329.2991 406.001,-325.7879 410,-325.7 410,-325.7 410,-325.7 406.001,-325.7879 409.9209,-322.1009 402.0019,-325.8758 402.0019,-325.8758"/>
<ellipse fill="none" stroke="#000000" cx="398.8027" cy="-325.9462" rx="3.2" ry="3.2"/>
</g>
<!-- am_tasktemplates_am_projecttemplates_c -->
<g id="node5" class="node">
<title>am_tasktemplates_am_projecttemplates_c</title>
<g id="a_node5"><a xlink:href="../../tables/am_tasktemplates_am_projecttemplates_c.html" xlink:title="am_tasktemplates_am_projecttemplates_c" target="_top">
<polygon fill="#ffffff" stroke="transparent" points="244,-120.7 244,-276.7 776,-276.7 776,-120.7 244,-120.7"/>
<polygon fill="#f5f5f5" stroke="transparent" points="246,-251.7 246,-274.7 774,-274.7 774,-251.7 246,-251.7"/>
<polygon fill="none" stroke="#000000" points="246,-251.7 246,-274.7 774,-274.7 774,-251.7 246,-251.7"/>
<text text-anchor="start" x="251" y="-260.8" font-family="Helvetica,sans-Serif" font-weight="bold" font-size="11.00" fill="#000000">am_tasktemplates_am_projecttemplates_c</text>
<text text-anchor="start" x="739.0437" y="-259.8" font-family="Helvetica,sans-Serif" font-size="11.00" fill="#000000">[table]</text>
<polygon fill="none" stroke="#000000" points="246,-229.7 246,-251.7 708,-251.7 708,-229.7 246,-229.7"/>
<image xlink:href="../../images/primaryKeys.png" width="11px" height="12px" preserveAspectRatio="xMinYMin meet" x="251" y="-246.7"/>
<text text-anchor="start" x="266" y="-236.8" font-family="Helvetica,sans-Serif" font-size="11.00" fill="#000000">id</text>
<polygon fill="none" stroke="#000000" points="708,-229.7 708,-251.7 774,-251.7 774,-229.7 708,-229.7"/>
<text text-anchor="start" x="711" y="-237.4" font-family="Helvetica,sans-Serif" font-size="11.00" fill="#000000">varchar[36]</text>
<polygon fill="none" stroke="#000000" points="246,-207.7 246,-229.7 708,-229.7 708,-207.7 246,-207.7"/>
<text text-anchor="start" x="266" y="-214.8" font-family="Helvetica,sans-Serif" font-size="11.00" fill="#000000">date_modified</text>
<polygon fill="none" stroke="#000000" points="708,-207.7 708,-229.7 774,-229.7 774,-207.7 708,-207.7"/>
<text text-anchor="start" x="710.7401" y="-215.4" font-family="Helvetica,sans-Serif" font-size="11.00" fill="#000000">datetime[26]</text>
<polygon fill="none" stroke="#000000" points="246,-185.7 246,-207.7 708,-207.7 708,-185.7 246,-185.7"/>
<text text-anchor="start" x="266" y="-192.8" font-family="Helvetica,sans-Serif" font-size="11.00" fill="#000000">deleted</text>
<polygon fill="none" stroke="#000000" points="708,-185.7 708,-207.7 774,-207.7 774,-185.7 708,-185.7"/>
<text text-anchor="start" x="711" y="-193.4" font-family="Helvetica,sans-Serif" font-size="11.00" fill="#000000">bit[1]</text>
<polygon fill="#ffffff" stroke="transparent" points="246,-163.7 246,-185.7 708,-185.7 708,-163.7 246,-163.7"/>
<polygon fill="none" stroke="#000000" points="246,-163.7 246,-185.7 708,-185.7 708,-163.7 246,-163.7"/>
<image xlink:href="../../images/foreignKeys.png" width="11px" height="12px" preserveAspectRatio="xMinYMin meet" x="251" y="-180.7"/>
<text text-anchor="start" x="266" y="-170.8" font-family="Helvetica,sans-Serif" font-size="11.00" fill="#000000">am_tasktemplates_am_projecttemplatesam_projecttemplates_ida</text>
<polygon fill="none" stroke="#000000" points="708,-163.7 708,-185.7 774,-185.7 774,-163.7 708,-163.7"/>
<text text-anchor="start" x="711" y="-171.4" font-family="Helvetica,sans-Serif" font-size="11.00" fill="#000000">varchar[36]</text>
<polygon fill="#ffffff" stroke="transparent" points="246,-141.7 246,-163.7 708,-163.7 708,-141.7 246,-141.7"/>
<polygon fill="none" stroke="#000000" points="246,-141.7 246,-163.7 708,-163.7 708,-141.7 246,-141.7"/>
<image xlink:href="../../images/foreignKeys.png" width="11px" height="12px" preserveAspectRatio="xMinYMin meet" x="251" y="-158.7"/>
<text text-anchor="start" x="266" y="-148.8" font-family="Helvetica,sans-Serif" font-size="11.00" fill="#000000">am_tasktemplates_am_projecttemplatesam_tasktemplates_idb</text>
<polygon fill="none" stroke="#000000" points="708,-141.7 708,-163.7 774,-163.7 774,-141.7 708,-141.7"/>
<text text-anchor="start" x="711" y="-149.4" font-family="Helvetica,sans-Serif" font-size="11.00" fill="#000000">varchar[36]</text>
<polygon fill="#ffffff" stroke="transparent" points="246,-122.7 246,-141.7 481,-141.7 481,-122.7 246,-122.7"/>
<polygon fill="none" stroke="#000000" points="246,-122.7 246,-141.7 481,-141.7 481,-122.7 246,-122.7"/>
<text text-anchor="start" x="249" y="-128.8" font-family="Helvetica,sans-Serif" font-size="11.00" fill="#000000">&lt; 2</text>
<polygon fill="#ffffff" stroke="transparent" points="481,-122.7 481,-141.7 708,-141.7 708,-122.7 481,-122.7"/>
<polygon fill="none" stroke="#000000" points="481,-122.7 481,-141.7 708,-141.7 708,-122.7 481,-122.7"/>
<text text-anchor="start" x="698.8862" y="-128.8" font-family="Helvetica,sans-Serif" font-size="11.00" fill="#000000"> &#160;</text>
<polygon fill="#ffffff" stroke="transparent" points="708,-122.7 708,-141.7 774,-141.7 774,-122.7 708,-122.7"/>
<polygon fill="none" stroke="#000000" points="708,-122.7 708,-141.7 774,-141.7 774,-122.7 708,-122.7"/>
<text text-anchor="start" x="755.4053" y="-128.8" font-family="Helvetica,sans-Serif" font-size="11.00" fill="#000000">0 &gt;</text>
<polygon fill="none" stroke="#000000" stroke-width="2" points="245,-121.7 245,-275.7 775,-275.7 775,-121.7 245,-121.7"/>
</a>
</g>
</g>
<!-- am_tasktemplates_am_projecttemplates_c&#45;&gt;am_projecttemplates -->
<g id="edge4" class="edge">
<title>am_tasktemplates_am_projecttemplates_c:w&#45;&gt;am_projecttemplates:e</title>
<path fill="none" stroke="#000000" d="M231.4937,-176.99C173.113,-198.6524 278.0486,-366.7 195.5,-366.7"/>
<polygon fill="#000000" stroke="#000000" points="238.0979,-175.9475 246.5614,-178.256 242.0489,-175.3237 246,-174.7 246,-174.7 246,-174.7 242.0489,-175.3237 245.4386,-171.144 238.0979,-175.9475 238.0979,-175.9475"/>
<ellipse fill="none" stroke="#000000" cx="234.937" cy="-176.4465" rx="3.2" ry="3.2"/>
</g>
<!-- am_tasktemplates -->
<g id="node6" class="node">
<title>am_tasktemplates</title>
<g id="a_node6"><a xlink:href="../../tables/am_tasktemplates.html" xlink:title="am_tasktemplates" target="_top">
<polygon fill="#ffffff" stroke="transparent" points="29.5,-38.2 29.5,-187.2 173.5,-187.2 173.5,-38.2 29.5,-38.2"/>
<polygon fill="#f5f5f5" stroke="transparent" points="29.5,-163.7 29.5,-186.7 173.5,-186.7 173.5,-163.7 29.5,-163.7"/>
<polygon fill="none" stroke="#000000" points="29.5,-163.7 29.5,-186.7 173.5,-186.7 173.5,-163.7 29.5,-163.7"/>
<text text-anchor="start" x="34.5" y="-172.8" font-family="Helvetica,sans-Serif" font-weight="bold" font-size="11.00" fill="#000000">am_tasktemplates</text>
<text text-anchor="start" x="138.5437" y="-171.8" font-family="Helvetica,sans-Serif" font-size="11.00" fill="#000000">[table]</text>
<polygon fill="none" stroke="#000000" points="29.5,-141.7 29.5,-163.7 173.5,-163.7 173.5,-141.7 29.5,-141.7"/>
<image xlink:href="../../images/primaryKeys.png" width="11px" height="12px" preserveAspectRatio="xMinYMin meet" x="34.5" y="-158.7"/>
<text text-anchor="start" x="49.5" y="-148.8" font-family="Helvetica,sans-Serif" font-size="11.00" fill="#000000">id</text>
<polygon fill="#c0c0c0" stroke="transparent" points="29.5,-119.7 29.5,-141.7 173.5,-141.7 173.5,-119.7 29.5,-119.7"/>
<polygon fill="none" stroke="#000000" points="29.5,-119.7 29.5,-141.7 173.5,-141.7 173.5,-119.7 29.5,-119.7"/>
<image xlink:href="../../images/foreignKeys.png" width="11px" height="12px" preserveAspectRatio="xMinYMin meet" x="34.5" y="-136.7"/>
<text text-anchor="start" x="49.5" y="-126.8" font-family="Helvetica,sans-Serif" font-size="11.00" fill="#000000">modified_user_id</text>
<polygon fill="#c0c0c0" stroke="transparent" points="29.5,-97.7 29.5,-119.7 173.5,-119.7 173.5,-97.7 29.5,-97.7"/>
<polygon fill="none" stroke="#000000" points="29.5,-97.7 29.5,-119.7 173.5,-119.7 173.5,-97.7 29.5,-97.7"/>
<image xlink:href="../../images/foreignKeys.png" width="11px" height="12px" preserveAspectRatio="xMinYMin meet" x="34.5" y="-114.7"/>
<text text-anchor="start" x="49.5" y="-104.8" font-family="Helvetica,sans-Serif" font-size="11.00" fill="#000000">created_by</text>
<polygon fill="#c0c0c0" stroke="transparent" points="29.5,-75.7 29.5,-97.7 173.5,-97.7 173.5,-75.7 29.5,-75.7"/>
<polygon fill="none" stroke="#000000" points="29.5,-75.7 29.5,-97.7 173.5,-97.7 173.5,-75.7 29.5,-75.7"/>
<image xlink:href="../../images/foreignKeys.png" width="11px" height="12px" preserveAspectRatio="xMinYMin meet" x="34.5" y="-92.7"/>
<text text-anchor="start" x="49.5" y="-82.8" font-family="Helvetica,sans-Serif" font-size="11.00" fill="#000000">assigned_user_id</text>
<polygon fill="none" stroke="#000000" points="29.5,-56.7 29.5,-75.7 173.5,-75.7 173.5,-56.7 29.5,-56.7"/>
<text text-anchor="start" x="32.5" y="-62.8" font-family="Helvetica,sans-Serif" font-size="11.00" fill="#000000">...</text>
<polygon fill="#ffffff" stroke="transparent" points="29.5,-37.7 29.5,-56.7 95.5,-56.7 95.5,-37.7 29.5,-37.7"/>
<polygon fill="none" stroke="#000000" points="29.5,-37.7 29.5,-56.7 95.5,-56.7 95.5,-37.7 29.5,-37.7"/>
<text text-anchor="start" x="32.5" y="-43.8" font-family="Helvetica,sans-Serif" font-size="11.00" fill="#000000">&lt; 3</text>
<polygon fill="#ffffff" stroke="transparent" points="95.5,-37.7 95.5,-56.7 129.5,-56.7 129.5,-37.7 95.5,-37.7"/>
<polygon fill="none" stroke="#000000" points="95.5,-37.7 95.5,-56.7 129.5,-56.7 129.5,-37.7 95.5,-37.7"/>
<text text-anchor="start" x="120.3862" y="-43.8" font-family="Helvetica,sans-Serif" font-size="11.00" fill="#000000"> &#160;</text>
<polygon fill="#ffffff" stroke="transparent" points="129.5,-37.7 129.5,-56.7 173.5,-56.7 173.5,-37.7 129.5,-37.7"/>
<polygon fill="none" stroke="#000000" points="129.5,-37.7 129.5,-56.7 173.5,-56.7 173.5,-37.7 129.5,-37.7"/>
<text text-anchor="start" x="154.9053" y="-43.8" font-family="Helvetica,sans-Serif" font-size="11.00" fill="#000000">2 &gt;</text>
</a>
</g>
</g>
<!-- am_tasktemplates_am_projecttemplates_c&#45;&gt;am_tasktemplates -->
<g id="edge5" class="edge">
<title>am_tasktemplates_am_projecttemplates_c:w&#45;&gt;am_tasktemplates:e</title>
<path fill="none" stroke="#000000" d="M231.5794,-152.7C210.3898,-152.7 200.3099,-152.7 173.5,-152.7"/>
<polygon fill="#000000" stroke="#000000" points="238,-152.7001 246,-156.3 242,-152.7 246,-152.7 246,-152.7 246,-152.7 242,-152.7 246,-149.1 238,-152.7001 238,-152.7001"/>
<ellipse fill="none" stroke="#000000" cx="234.8" cy="-152.7001" rx="3.2" ry="3.2"/>
</g>
</g>
</svg>
