<?xml version="1.0" encoding="UTF-8" standalone="no"?>
<!DOCTYPE svg PUBLIC "-//W3C//DTD SVG 1.1//EN"
 "http://www.w3.org/Graphics/SVG/1.1/DTD/svg11.dtd">
<!-- Generated by graphviz version 2.40.1 (20161225.0304)
 -->
<!-- Title: oneDegreeRelationshipsDiagram Pages: 1 -->
<svg width="792pt" height="369pt"
 viewBox="0.00 0.00 792.00 369.20" xmlns="http://www.w3.org/2000/svg" xmlns:xlink="http://www.w3.org/1999/xlink">
<g id="graph0" class="graph" transform="scale(1 1) rotate(0) translate(4 365.2)">
<title>oneDegreeRelationshipsDiagram</title>
<polygon fill="#ffffff" stroke="transparent" points="-4,4 -4,-365.2 788,-365.2 788,4 -4,4"/>
<text text-anchor="middle" x="72.4936" y="-7.3" font-family="Helvetica,sans-Serif" font-size="11.00" fill="#000000">Generated by SchemaSpy</text>
<!-- am_tasktemplates_am_projecttemplates_c -->
<g id="node1" class="node">
<title>am_tasktemplates_am_projecttemplates_c</title>
<g id="a_node1"><a xlink:href="../../tables/am_tasktemplates_am_projecttemplates_c.html" xlink:title="am_tasktemplates_am_projecttemplates_c" target="_top">
<polygon fill="#ffffff" stroke="transparent" points="244,-194.7 244,-350.7 776,-350.7 776,-194.7 244,-194.7"/>
<polygon fill="#f5f5f5" stroke="transparent" points="246,-325.7 246,-348.7 774,-348.7 774,-325.7 246,-325.7"/>
<polygon fill="none" stroke="#000000" points="246,-325.7 246,-348.7 774,-348.7 774,-325.7 246,-325.7"/>
<text text-anchor="start" x="251" y="-334.8" font-family="Helvetica,sans-Serif" font-weight="bold" font-size="11.00" fill="#000000">am_tasktemplates_am_projecttemplates_c</text>
<text text-anchor="start" x="739.0437" y="-333.8" font-family="Helvetica,sans-Serif" font-size="11.00" fill="#000000">[table]</text>
<polygon fill="none" stroke="#000000" points="246,-303.7 246,-325.7 708,-325.7 708,-303.7 246,-303.7"/>
<image xlink:href="../../images/primaryKeys.png" width="11px" height="12px" preserveAspectRatio="xMinYMin meet" x="251" y="-320.7"/>
<text text-anchor="start" x="266" y="-310.8" font-family="Helvetica,sans-Serif" font-size="11.00" fill="#000000">id</text>
<polygon fill="none" stroke="#000000" points="708,-303.7 708,-325.7 774,-325.7 774,-303.7 708,-303.7"/>
<text text-anchor="start" x="711" y="-311.4" font-family="Helvetica,sans-Serif" font-size="11.00" fill="#000000">varchar[36]</text>
<polygon fill="none" stroke="#000000" points="246,-281.7 246,-303.7 708,-303.7 708,-281.7 246,-281.7"/>
<text text-anchor="start" x="266" y="-288.8" font-family="Helvetica,sans-Serif" font-size="11.00" fill="#000000">date_modified</text>
<polygon fill="none" stroke="#000000" points="708,-281.7 708,-303.7 774,-303.7 774,-281.7 708,-281.7"/>
<text text-anchor="start" x="710.7401" y="-289.4" font-family="Helvetica,sans-Serif" font-size="11.00" fill="#000000">datetime[26]</text>
<polygon fill="none" stroke="#000000" points="246,-259.7 246,-281.7 708,-281.7 708,-259.7 246,-259.7"/>
<text text-anchor="start" x="266" y="-266.8" font-family="Helvetica,sans-Serif" font-size="11.00" fill="#000000">deleted</text>
<polygon fill="none" stroke="#000000" points="708,-259.7 708,-281.7 774,-281.7 774,-259.7 708,-259.7"/>
<text text-anchor="start" x="711" y="-267.4" font-family="Helvetica,sans-Serif" font-size="11.00" fill="#000000">bit[1]</text>
<polygon fill="#ffffff" stroke="transparent" points="246,-237.7 246,-259.7 708,-259.7 708,-237.7 246,-237.7"/>
<polygon fill="none" stroke="#000000" points="246,-237.7 246,-259.7 708,-259.7 708,-237.7 246,-237.7"/>
<image xlink:href="../../images/foreignKeys.png" width="11px" height="12px" preserveAspectRatio="xMinYMin meet" x="251" y="-254.7"/>
<text text-anchor="start" x="266" y="-244.8" font-family="Helvetica,sans-Serif" font-size="11.00" fill="#000000">am_tasktemplates_am_projecttemplatesam_projecttemplates_ida</text>
<polygon fill="none" stroke="#000000" points="708,-237.7 708,-259.7 774,-259.7 774,-237.7 708,-237.7"/>
<text text-anchor="start" x="711" y="-245.4" font-family="Helvetica,sans-Serif" font-size="11.00" fill="#000000">varchar[36]</text>
<polygon fill="#ffffff" stroke="transparent" points="246,-215.7 246,-237.7 708,-237.7 708,-215.7 246,-215.7"/>
<polygon fill="none" stroke="#000000" points="246,-215.7 246,-237.7 708,-237.7 708,-215.7 246,-215.7"/>
<image xlink:href="../../images/foreignKeys.png" width="11px" height="12px" preserveAspectRatio="xMinYMin meet" x="251" y="-232.7"/>
<text text-anchor="start" x="266" y="-222.8" font-family="Helvetica,sans-Serif" font-size="11.00" fill="#000000">am_tasktemplates_am_projecttemplatesam_tasktemplates_idb</text>
<polygon fill="none" stroke="#000000" points="708,-215.7 708,-237.7 774,-237.7 774,-215.7 708,-215.7"/>
<text text-anchor="start" x="711" y="-223.4" font-family="Helvetica,sans-Serif" font-size="11.00" fill="#000000">varchar[36]</text>
<polygon fill="#ffffff" stroke="transparent" points="246,-196.7 246,-215.7 481,-215.7 481,-196.7 246,-196.7"/>
<polygon fill="none" stroke="#000000" points="246,-196.7 246,-215.7 481,-215.7 481,-196.7 246,-196.7"/>
<text text-anchor="start" x="249" y="-202.8" font-family="Helvetica,sans-Serif" font-size="11.00" fill="#000000">&lt; 2</text>
<polygon fill="#ffffff" stroke="transparent" points="481,-196.7 481,-215.7 708,-215.7 708,-196.7 481,-196.7"/>
<polygon fill="none" stroke="#000000" points="481,-196.7 481,-215.7 708,-215.7 708,-196.7 481,-196.7"/>
<text text-anchor="start" x="698.8862" y="-202.8" font-family="Helvetica,sans-Serif" font-size="11.00" fill="#000000"> &#160;</text>
<polygon fill="#ffffff" stroke="transparent" points="708,-196.7 708,-215.7 774,-215.7 774,-196.7 708,-196.7"/>
<polygon fill="none" stroke="#000000" points="708,-196.7 708,-215.7 774,-215.7 774,-196.7 708,-196.7"/>
<text text-anchor="start" x="755.4053" y="-202.8" font-family="Helvetica,sans-Serif" font-size="11.00" fill="#000000">0 &gt;</text>
<polygon fill="none" stroke="#000000" stroke-width="2" points="245,-195.7 245,-349.7 775,-349.7 775,-195.7 245,-195.7"/>
</a>
</g>
</g>
<!-- am_projecttemplates -->
<g id="node2" class="node">
<title>am_projecttemplates</title>
<g id="a_node2"><a xlink:href="../../tables/am_projecttemplates.html" xlink:title="am_projecttemplates" target="_top">
<polygon fill="#ffffff" stroke="transparent" points="8,-208.2 8,-357.2 195,-357.2 195,-208.2 8,-208.2"/>
<polygon fill="#f5f5f5" stroke="transparent" points="8.5,-333.7 8.5,-356.7 195.5,-356.7 195.5,-333.7 8.5,-333.7"/>
<polygon fill="none" stroke="#000000" points="8.5,-333.7 8.5,-356.7 195.5,-356.7 195.5,-333.7 8.5,-333.7"/>
<text text-anchor="start" x="13.5" y="-342.8" font-family="Helvetica,sans-Serif" font-weight="bold" font-size="11.00" fill="#000000">am_projecttemplates</text>
<text text-anchor="start" x="160.5437" y="-341.8" font-family="Helvetica,sans-Serif" font-size="11.00" fill="#000000">[table]</text>
<polygon fill="none" stroke="#000000" points="8.5,-311.7 8.5,-333.7 195.5,-333.7 195.5,-311.7 8.5,-311.7"/>
<image xlink:href="../../images/primaryKeys.png" width="11px" height="12px" preserveAspectRatio="xMinYMin meet" x="13.5" y="-328.7"/>
<text text-anchor="start" x="28.5" y="-318.8" font-family="Helvetica,sans-Serif" font-size="11.00" fill="#000000">id</text>
<polygon fill="#c0c0c0" stroke="transparent" points="8.5,-289.7 8.5,-311.7 195.5,-311.7 195.5,-289.7 8.5,-289.7"/>
<polygon fill="none" stroke="#000000" points="8.5,-289.7 8.5,-311.7 195.5,-311.7 195.5,-289.7 8.5,-289.7"/>
<image xlink:href="../../images/foreignKeys.png" width="11px" height="12px" preserveAspectRatio="xMinYMin meet" x="13.5" y="-306.7"/>
<text text-anchor="start" x="28.5" y="-296.8" font-family="Helvetica,sans-Serif" font-size="11.00" fill="#000000">modified_user_id</text>
<polygon fill="#c0c0c0" stroke="transparent" points="8.5,-267.7 8.5,-289.7 195.5,-289.7 195.5,-267.7 8.5,-267.7"/>
<polygon fill="none" stroke="#000000" points="8.5,-267.7 8.5,-289.7 195.5,-289.7 195.5,-267.7 8.5,-267.7"/>
<image xlink:href="../../images/foreignKeys.png" width="11px" height="12px" preserveAspectRatio="xMinYMin meet" x="13.5" y="-284.7"/>
<text text-anchor="start" x="28.5" y="-274.8" font-family="Helvetica,sans-Serif" font-size="11.00" fill="#000000">created_by</text>
<polygon fill="#c0c0c0" stroke="transparent" points="8.5,-245.7 8.5,-267.7 195.5,-267.7 195.5,-245.7 8.5,-245.7"/>
<polygon fill="none" stroke="#000000" points="8.5,-245.7 8.5,-267.7 195.5,-267.7 195.5,-245.7 8.5,-245.7"/>
<image xlink:href="../../images/foreignKeys.png" width="11px" height="12px" preserveAspectRatio="xMinYMin meet" x="13.5" y="-262.7"/>
<text text-anchor="start" x="28.5" y="-252.8" font-family="Helvetica,sans-Serif" font-size="11.00" fill="#000000">assigned_user_id</text>
<polygon fill="none" stroke="#000000" points="8.5,-226.7 8.5,-245.7 195.5,-245.7 195.5,-226.7 8.5,-226.7"/>
<text text-anchor="start" x="11.5" y="-232.8" font-family="Helvetica,sans-Serif" font-size="11.00" fill="#000000">...</text>
<polygon fill="#ffffff" stroke="transparent" points="8.5,-207.7 8.5,-226.7 95.5,-226.7 95.5,-207.7 8.5,-207.7"/>
<polygon fill="none" stroke="#000000" points="8.5,-207.7 8.5,-226.7 95.5,-226.7 95.5,-207.7 8.5,-207.7"/>
<text text-anchor="start" x="11.5" y="-213.8" font-family="Helvetica,sans-Serif" font-size="11.00" fill="#000000">&lt; 3</text>
<polygon fill="#ffffff" stroke="transparent" points="95.5,-207.7 95.5,-226.7 140.5,-226.7 140.5,-207.7 95.5,-207.7"/>
<polygon fill="none" stroke="#000000" points="95.5,-207.7 95.5,-226.7 140.5,-226.7 140.5,-207.7 95.5,-207.7"/>
<text text-anchor="start" x="131.3862" y="-213.8" font-family="Helvetica,sans-Serif" font-size="11.00" fill="#000000"> &#160;</text>
<polygon fill="#ffffff" stroke="transparent" points="140.5,-207.7 140.5,-226.7 195.5,-226.7 195.5,-207.7 140.5,-207.7"/>
<polygon fill="none" stroke="#000000" points="140.5,-207.7 140.5,-226.7 195.5,-226.7 195.5,-207.7 140.5,-207.7"/>
<text text-anchor="start" x="176.9053" y="-213.8" font-family="Helvetica,sans-Serif" font-size="11.00" fill="#000000">5 &gt;</text>
</a>
</g>
</g>
<!-- am_tasktemplates_am_projecttemplates_c&#45;&gt;am_projecttemplates -->
<g id="edge1" class="edge">
<title>am_tasktemplates_am_projecttemplates_c:w&#45;&gt;am_projecttemplates:e</title>
<path fill="none" stroke="#000000" d="M232.1154,-253.329C213.4593,-269.5294 229.2515,-322.7 195.5,-322.7"/>
<polygon fill="#000000" stroke="#000000" points="238.4107,-251.2303 247.1386,-252.1152 242.2053,-249.9651 246,-248.7 246,-248.7 246,-248.7 242.2053,-249.9651 244.8614,-245.2848 238.4107,-251.2303 238.4107,-251.2303"/>
<ellipse fill="none" stroke="#000000" cx="235.3749" cy="-252.2424" rx="3.2" ry="3.2"/>
</g>
<!-- am_tasktemplates -->
<g id="node3" class="node">
<title>am_tasktemplates</title>
<g id="a_node3"><a xlink:href="../../tables/am_tasktemplates.html" xlink:title="am_tasktemplates" target="_top">
<polygon fill="#ffffff" stroke="transparent" points="29.5,-38.2 29.5,-187.2 173.5,-187.2 173.5,-38.2 29.5,-38.2"/>
<polygon fill="#f5f5f5" stroke="transparent" points="29.5,-163.7 29.5,-186.7 173.5,-186.7 173.5,-163.7 29.5,-163.7"/>
<polygon fill="none" stroke="#000000" points="29.5,-163.7 29.5,-186.7 173.5,-186.7 173.5,-163.7 29.5,-163.7"/>
<text text-anchor="start" x="34.5" y="-172.8" font-family="Helvetica,sans-Serif" font-weight="bold" font-size="11.00" fill="#000000">am_tasktemplates</text>
<text text-anchor="start" x="138.5437" y="-171.8" font-family="Helvetica,sans-Serif" font-size="11.00" fill="#000000">[table]</text>
<polygon fill="none" stroke="#000000" points="29.5,-141.7 29.5,-163.7 173.5,-163.7 173.5,-141.7 29.5,-141.7"/>
<image xlink:href="../../images/primaryKeys.png" width="11px" height="12px" preserveAspectRatio="xMinYMin meet" x="34.5" y="-158.7"/>
<text text-anchor="start" x="49.5" y="-148.8" font-family="Helvetica,sans-Serif" font-size="11.00" fill="#000000">id</text>
<polygon fill="#c0c0c0" stroke="transparent" points="29.5,-119.7 29.5,-141.7 173.5,-141.7 173.5,-119.7 29.5,-119.7"/>
<polygon fill="none" stroke="#000000" points="29.5,-119.7 29.5,-141.7 173.5,-141.7 173.5,-119.7 29.5,-119.7"/>
<image xlink:href="../../images/foreignKeys.png" width="11px" height="12px" preserveAspectRatio="xMinYMin meet" x="34.5" y="-136.7"/>
<text text-anchor="start" x="49.5" y="-126.8" font-family="Helvetica,sans-Serif" font-size="11.00" fill="#000000">modified_user_id</text>
<polygon fill="#c0c0c0" stroke="transparent" points="29.5,-97.7 29.5,-119.7 173.5,-119.7 173.5,-97.7 29.5,-97.7"/>
<polygon fill="none" stroke="#000000" points="29.5,-97.7 29.5,-119.7 173.5,-119.7 173.5,-97.7 29.5,-97.7"/>
<image xlink:href="../../images/foreignKeys.png" width="11px" height="12px" preserveAspectRatio="xMinYMin meet" x="34.5" y="-114.7"/>
<text text-anchor="start" x="49.5" y="-104.8" font-family="Helvetica,sans-Serif" font-size="11.00" fill="#000000">created_by</text>
<polygon fill="#c0c0c0" stroke="transparent" points="29.5,-75.7 29.5,-97.7 173.5,-97.7 173.5,-75.7 29.5,-75.7"/>
<polygon fill="none" stroke="#000000" points="29.5,-75.7 29.5,-97.7 173.5,-97.7 173.5,-75.7 29.5,-75.7"/>
<image xlink:href="../../images/foreignKeys.png" width="11px" height="12px" preserveAspectRatio="xMinYMin meet" x="34.5" y="-92.7"/>
<text text-anchor="start" x="49.5" y="-82.8" font-family="Helvetica,sans-Serif" font-size="11.00" fill="#000000">assigned_user_id</text>
<polygon fill="none" stroke="#000000" points="29.5,-56.7 29.5,-75.7 173.5,-75.7 173.5,-56.7 29.5,-56.7"/>
<text text-anchor="start" x="32.5" y="-62.8" font-family="Helvetica,sans-Serif" font-size="11.00" fill="#000000">...</text>
<polygon fill="#ffffff" stroke="transparent" points="29.5,-37.7 29.5,-56.7 95.5,-56.7 95.5,-37.7 29.5,-37.7"/>
<polygon fill="none" stroke="#000000" points="29.5,-37.7 29.5,-56.7 95.5,-56.7 95.5,-37.7 29.5,-37.7"/>
<text text-anchor="start" x="32.5" y="-43.8" font-family="Helvetica,sans-Serif" font-size="11.00" fill="#000000">&lt; 3</text>
<polygon fill="#ffffff" stroke="transparent" points="95.5,-37.7 95.5,-56.7 129.5,-56.7 129.5,-37.7 95.5,-37.7"/>
<polygon fill="none" stroke="#000000" points="95.5,-37.7 95.5,-56.7 129.5,-56.7 129.5,-37.7 95.5,-37.7"/>
<text text-anchor="start" x="120.3862" y="-43.8" font-family="Helvetica,sans-Serif" font-size="11.00" fill="#000000"> &#160;</text>
<polygon fill="#ffffff" stroke="transparent" points="129.5,-37.7 129.5,-56.7 173.5,-56.7 173.5,-37.7 129.5,-37.7"/>
<polygon fill="none" stroke="#000000" points="129.5,-37.7 129.5,-56.7 173.5,-56.7 173.5,-37.7 129.5,-37.7"/>
<text text-anchor="start" x="154.9053" y="-43.8" font-family="Helvetica,sans-Serif" font-size="11.00" fill="#000000">2 &gt;</text>
</a>
</g>
</g>
<!-- am_tasktemplates_am_projecttemplates_c&#45;&gt;am_tasktemplates -->
<g id="edge2" class="edge">
<title>am_tasktemplates_am_projecttemplates_c:w&#45;&gt;am_tasktemplates:e</title>
<path fill="none" stroke="#000000" d="M231.5539,-223.5203C203.8281,-209.3563 213.7876,-152.7 173.5,-152.7"/>
<polygon fill="#000000" stroke="#000000" points="238.187,-224.9803 245.2261,-230.2158 242.0935,-225.8401 246,-226.7 246,-226.7 246,-226.7 242.0935,-225.8401 246.7739,-223.1842 238.187,-224.9803 238.187,-224.9803"/>
<ellipse fill="none" stroke="#000000" cx="235.0618" cy="-224.2924" rx="3.2" ry="3.2"/>
</g>
</g>
</svg>
