<?xml version="1.0" encoding="UTF-8" standalone="no"?>
<!DOCTYPE svg PUBLIC "-//W3C//DTD SVG 1.1//EN"
 "http://www.w3.org/Graphics/SVG/1.1/DTD/svg11.dtd">
<!-- Generated by graphviz version 2.40.1 (20161225.0304)
 -->
<!-- Title: oneDegreeRelationshipsDiagram Pages: 1 -->
<svg width="1015pt" height="642pt"
 viewBox="0.00 0.00 1015.00 641.70" xmlns="http://www.w3.org/2000/svg" xmlns:xlink="http://www.w3.org/1999/xlink">
<g id="graph0" class="graph" transform="scale(1 1) rotate(0) translate(4 637.7)">
<title>oneDegreeRelationshipsDiagram</title>
<polygon fill="#ffffff" stroke="transparent" points="-4,4 -4,-637.7 1011,-637.7 1011,4 -4,4"/>
<text text-anchor="middle" x="72.4936" y="-7.3" font-family="Helvetica,sans-Serif" font-size="11.00" fill="#000000">Generated by SchemaSpy</text>
<!-- am_tasktemplates -->
<g id="node1" class="node">
<title>am_tasktemplates</title>
<g id="a_node1"><a xlink:href="../../tables/am_tasktemplates.html" xlink:title="am_tasktemplates" target="_top">
<polygon fill="#ffffff" stroke="transparent" points="273,-38.2 273,-524.2 488,-524.2 488,-38.2 273,-38.2"/>
<polygon fill="#f5f5f5" stroke="transparent" points="275.5,-499.2 275.5,-522.2 486.5,-522.2 486.5,-499.2 275.5,-499.2"/>
<polygon fill="none" stroke="#000000" points="275.5,-499.2 275.5,-522.2 486.5,-522.2 486.5,-499.2 275.5,-499.2"/>
<text text-anchor="start" x="280.5" y="-508.3" font-family="Helvetica,sans-Serif" font-weight="bold" font-size="11.00" fill="#000000">am_tasktemplates</text>
<text text-anchor="start" x="451.5437" y="-507.3" font-family="Helvetica,sans-Serif" font-size="11.00" fill="#000000">[table]</text>
<polygon fill="none" stroke="#000000" points="275.5,-477.2 275.5,-499.2 419.5,-499.2 419.5,-477.2 275.5,-477.2"/>
<image xlink:href="../../images/primaryKeys.png" width="11px" height="12px" preserveAspectRatio="xMinYMin meet" x="280.5" y="-494.2"/>
<text text-anchor="start" x="295.5" y="-484.3" font-family="Helvetica,sans-Serif" font-size="11.00" fill="#000000">id</text>
<polygon fill="none" stroke="#000000" points="419.5,-477.2 419.5,-499.2 486.5,-499.2 486.5,-477.2 419.5,-477.2"/>
<text text-anchor="start" x="422.5" y="-484.9" font-family="Helvetica,sans-Serif" font-size="11.00" fill="#000000">char[36]</text>
<polygon fill="none" stroke="#000000" points="275.5,-455.2 275.5,-477.2 419.5,-477.2 419.5,-455.2 275.5,-455.2"/>
<text text-anchor="start" x="295.5" y="-462.3" font-family="Helvetica,sans-Serif" font-size="11.00" fill="#000000">name</text>
<polygon fill="none" stroke="#000000" points="419.5,-455.2 419.5,-477.2 486.5,-477.2 486.5,-455.2 419.5,-455.2"/>
<text text-anchor="start" x="422.4365" y="-462.9" font-family="Helvetica,sans-Serif" font-size="11.00" fill="#000000">varchar[255]</text>
<polygon fill="none" stroke="#000000" points="275.5,-433.2 275.5,-455.2 419.5,-455.2 419.5,-433.2 275.5,-433.2"/>
<text text-anchor="start" x="295.5" y="-440.3" font-family="Helvetica,sans-Serif" font-size="11.00" fill="#000000">date_entered</text>
<polygon fill="none" stroke="#000000" points="419.5,-433.2 419.5,-455.2 486.5,-455.2 486.5,-433.2 419.5,-433.2"/>
<text text-anchor="start" x="422.5" y="-440.9" font-family="Helvetica,sans-Serif" font-size="11.00" fill="#000000">datetime[26]</text>
<polygon fill="none" stroke="#000000" points="275.5,-411.2 275.5,-433.2 419.5,-433.2 419.5,-411.2 275.5,-411.2"/>
<text text-anchor="start" x="295.5" y="-418.3" font-family="Helvetica,sans-Serif" font-size="11.00" fill="#000000">date_modified</text>
<polygon fill="none" stroke="#000000" points="419.5,-411.2 419.5,-433.2 486.5,-433.2 486.5,-411.2 419.5,-411.2"/>
<text text-anchor="start" x="422.5" y="-418.9" font-family="Helvetica,sans-Serif" font-size="11.00" fill="#000000">datetime[26]</text>
<polygon fill="none" stroke="#000000" points="275.5,-389.2 275.5,-411.2 419.5,-411.2 419.5,-389.2 275.5,-389.2"/>
<image xlink:href="../../images/foreignKeys.png" width="11px" height="12px" preserveAspectRatio="xMinYMin meet" x="280.5" y="-406.2"/>
<text text-anchor="start" x="295.5" y="-396.3" font-family="Helvetica,sans-Serif" font-size="11.00" fill="#000000">modified_user_id</text>
<polygon fill="none" stroke="#000000" points="419.5,-389.2 419.5,-411.2 486.5,-411.2 486.5,-389.2 419.5,-389.2"/>
<text text-anchor="start" x="422.5" y="-396.9" font-family="Helvetica,sans-Serif" font-size="11.00" fill="#000000">char[36]</text>
<polygon fill="none" stroke="#000000" points="275.5,-367.2 275.5,-389.2 419.5,-389.2 419.5,-367.2 275.5,-367.2"/>
<image xlink:href="../../images/foreignKeys.png" width="11px" height="12px" preserveAspectRatio="xMinYMin meet" x="280.5" y="-384.2"/>
<text text-anchor="start" x="295.5" y="-374.3" font-family="Helvetica,sans-Serif" font-size="11.00" fill="#000000">created_by</text>
<polygon fill="none" stroke="#000000" points="419.5,-367.2 419.5,-389.2 486.5,-389.2 486.5,-367.2 419.5,-367.2"/>
<text text-anchor="start" x="422.5" y="-374.9" font-family="Helvetica,sans-Serif" font-size="11.00" fill="#000000">char[36]</text>
<polygon fill="none" stroke="#000000" points="275.5,-345.2 275.5,-367.2 419.5,-367.2 419.5,-345.2 275.5,-345.2"/>
<text text-anchor="start" x="295.5" y="-352.3" font-family="Helvetica,sans-Serif" font-size="11.00" fill="#000000">description</text>
<polygon fill="none" stroke="#000000" points="419.5,-345.2 419.5,-367.2 486.5,-367.2 486.5,-345.2 419.5,-345.2"/>
<text text-anchor="start" x="422.5" y="-352.9" font-family="Helvetica,sans-Serif" font-size="11.00" fill="#000000">text[65535]</text>
<polygon fill="none" stroke="#000000" points="275.5,-323.2 275.5,-345.2 419.5,-345.2 419.5,-323.2 275.5,-323.2"/>
<text text-anchor="start" x="295.5" y="-330.3" font-family="Helvetica,sans-Serif" font-size="11.00" fill="#000000">deleted</text>
<polygon fill="none" stroke="#000000" points="419.5,-323.2 419.5,-345.2 486.5,-345.2 486.5,-323.2 419.5,-323.2"/>
<text text-anchor="start" x="422.5" y="-330.9" font-family="Helvetica,sans-Serif" font-size="11.00" fill="#000000">bit[1]</text>
<polygon fill="none" stroke="#000000" points="275.5,-301.2 275.5,-323.2 419.5,-323.2 419.5,-301.2 275.5,-301.2"/>
<image xlink:href="../../images/foreignKeys.png" width="11px" height="12px" preserveAspectRatio="xMinYMin meet" x="280.5" y="-318.2"/>
<text text-anchor="start" x="295.5" y="-308.3" font-family="Helvetica,sans-Serif" font-size="11.00" fill="#000000">assigned_user_id</text>
<polygon fill="none" stroke="#000000" points="419.5,-301.2 419.5,-323.2 486.5,-323.2 486.5,-301.2 419.5,-301.2"/>
<text text-anchor="start" x="422.5" y="-308.9" font-family="Helvetica,sans-Serif" font-size="11.00" fill="#000000">char[36]</text>
<polygon fill="none" stroke="#000000" points="275.5,-279.2 275.5,-301.2 419.5,-301.2 419.5,-279.2 275.5,-279.2"/>
<text text-anchor="start" x="295.5" y="-286.3" font-family="Helvetica,sans-Serif" font-size="11.00" fill="#000000">status</text>
<polygon fill="none" stroke="#000000" points="419.5,-279.2 419.5,-301.2 486.5,-301.2 486.5,-279.2 419.5,-279.2"/>
<text text-anchor="start" x="422.4365" y="-286.9" font-family="Helvetica,sans-Serif" font-size="11.00" fill="#000000">varchar[100]</text>
<polygon fill="none" stroke="#000000" points="275.5,-257.2 275.5,-279.2 419.5,-279.2 419.5,-257.2 275.5,-257.2"/>
<text text-anchor="start" x="295.5" y="-264.3" font-family="Helvetica,sans-Serif" font-size="11.00" fill="#000000">priority</text>
<polygon fill="none" stroke="#000000" points="419.5,-257.2 419.5,-279.2 486.5,-279.2 486.5,-257.2 419.5,-257.2"/>
<text text-anchor="start" x="422.4365" y="-264.9" font-family="Helvetica,sans-Serif" font-size="11.00" fill="#000000">varchar[100]</text>
<polygon fill="none" stroke="#000000" points="275.5,-235.2 275.5,-257.2 419.5,-257.2 419.5,-235.2 275.5,-235.2"/>
<text text-anchor="start" x="295.5" y="-242.3" font-family="Helvetica,sans-Serif" font-size="11.00" fill="#000000">percent_complete</text>
<polygon fill="none" stroke="#000000" points="419.5,-235.2 419.5,-257.2 486.5,-257.2 486.5,-235.2 419.5,-235.2"/>
<text text-anchor="start" x="422.5" y="-242.9" font-family="Helvetica,sans-Serif" font-size="11.00" fill="#000000">int[10]</text>
<polygon fill="none" stroke="#000000" points="275.5,-213.2 275.5,-235.2 419.5,-235.2 419.5,-213.2 275.5,-213.2"/>
<text text-anchor="start" x="295.5" y="-220.3" font-family="Helvetica,sans-Serif" font-size="11.00" fill="#000000">predecessors</text>
<polygon fill="none" stroke="#000000" points="419.5,-213.2 419.5,-235.2 486.5,-235.2 486.5,-213.2 419.5,-213.2"/>
<text text-anchor="start" x="422.5" y="-220.9" font-family="Helvetica,sans-Serif" font-size="11.00" fill="#000000">int[10]</text>
<polygon fill="none" stroke="#000000" points="275.5,-191.2 275.5,-213.2 419.5,-213.2 419.5,-191.2 275.5,-191.2"/>
<text text-anchor="start" x="295.5" y="-198.3" font-family="Helvetica,sans-Serif" font-size="11.00" fill="#000000">milestone_flag</text>
<polygon fill="none" stroke="#000000" points="419.5,-191.2 419.5,-213.2 486.5,-213.2 486.5,-191.2 419.5,-191.2"/>
<text text-anchor="start" x="422.5" y="-198.9" font-family="Helvetica,sans-Serif" font-size="11.00" fill="#000000">bit[1]</text>
<polygon fill="none" stroke="#000000" points="275.5,-169.2 275.5,-191.2 419.5,-191.2 419.5,-169.2 275.5,-169.2"/>
<text text-anchor="start" x="295.5" y="-176.3" font-family="Helvetica,sans-Serif" font-size="11.00" fill="#000000">relationship_type</text>
<polygon fill="none" stroke="#000000" points="419.5,-169.2 419.5,-191.2 486.5,-191.2 486.5,-169.2 419.5,-169.2"/>
<text text-anchor="start" x="422.4365" y="-176.9" font-family="Helvetica,sans-Serif" font-size="11.00" fill="#000000">varchar[100]</text>
<polygon fill="none" stroke="#000000" points="275.5,-147.2 275.5,-169.2 419.5,-169.2 419.5,-147.2 275.5,-147.2"/>
<text text-anchor="start" x="295.5" y="-154.3" font-family="Helvetica,sans-Serif" font-size="11.00" fill="#000000">task_number</text>
<polygon fill="none" stroke="#000000" points="419.5,-147.2 419.5,-169.2 486.5,-169.2 486.5,-147.2 419.5,-147.2"/>
<text text-anchor="start" x="422.5" y="-154.9" font-family="Helvetica,sans-Serif" font-size="11.00" fill="#000000">int[10]</text>
<polygon fill="none" stroke="#000000" points="275.5,-125.2 275.5,-147.2 419.5,-147.2 419.5,-125.2 275.5,-125.2"/>
<text text-anchor="start" x="295.5" y="-132.3" font-family="Helvetica,sans-Serif" font-size="11.00" fill="#000000">order_number</text>
<polygon fill="none" stroke="#000000" points="419.5,-125.2 419.5,-147.2 486.5,-147.2 486.5,-125.2 419.5,-125.2"/>
<text text-anchor="start" x="422.5" y="-132.9" font-family="Helvetica,sans-Serif" font-size="11.00" fill="#000000">int[10]</text>
<polygon fill="none" stroke="#000000" points="275.5,-103.2 275.5,-125.2 419.5,-125.2 419.5,-103.2 275.5,-103.2"/>
<text text-anchor="start" x="295.5" y="-110.3" font-family="Helvetica,sans-Serif" font-size="11.00" fill="#000000">estimated_effort</text>
<polygon fill="none" stroke="#000000" points="419.5,-103.2 419.5,-125.2 486.5,-125.2 486.5,-103.2 419.5,-103.2"/>
<text text-anchor="start" x="422.5" y="-110.9" font-family="Helvetica,sans-Serif" font-size="11.00" fill="#000000">int[10]</text>
<polygon fill="none" stroke="#000000" points="275.5,-81.2 275.5,-103.2 419.5,-103.2 419.5,-81.2 275.5,-81.2"/>
<text text-anchor="start" x="295.5" y="-88.3" font-family="Helvetica,sans-Serif" font-size="11.00" fill="#000000">utilization</text>
<polygon fill="none" stroke="#000000" points="419.5,-81.2 419.5,-103.2 486.5,-103.2 486.5,-81.2 419.5,-81.2"/>
<text text-anchor="start" x="422.4365" y="-88.9" font-family="Helvetica,sans-Serif" font-size="11.00" fill="#000000">varchar[100]</text>
<polygon fill="none" stroke="#000000" points="275.5,-59.2 275.5,-81.2 419.5,-81.2 419.5,-59.2 275.5,-59.2"/>
<text text-anchor="start" x="295.5" y="-66.3" font-family="Helvetica,sans-Serif" font-size="11.00" fill="#000000">duration</text>
<polygon fill="none" stroke="#000000" points="419.5,-59.2 419.5,-81.2 486.5,-81.2 486.5,-59.2 419.5,-59.2"/>
<text text-anchor="start" x="422.5" y="-66.9" font-family="Helvetica,sans-Serif" font-size="11.00" fill="#000000">int[10]</text>
<polygon fill="#ffffff" stroke="transparent" points="275.5,-40.2 275.5,-59.2 351.5,-59.2 351.5,-40.2 275.5,-40.2"/>
<polygon fill="none" stroke="#000000" points="275.5,-40.2 275.5,-59.2 351.5,-59.2 351.5,-40.2 275.5,-40.2"/>
<text text-anchor="start" x="278.5" y="-46.3" font-family="Helvetica,sans-Serif" font-size="11.00" fill="#000000">&lt; 3</text>
<polygon fill="#ffffff" stroke="transparent" points="351.5,-40.2 351.5,-59.2 419.5,-59.2 419.5,-40.2 351.5,-40.2"/>
<polygon fill="none" stroke="#000000" points="351.5,-40.2 351.5,-59.2 419.5,-59.2 419.5,-40.2 351.5,-40.2"/>
<text text-anchor="start" x="410.3862" y="-46.3" font-family="Helvetica,sans-Serif" font-size="11.00" fill="#000000"> &#160;</text>
<polygon fill="#ffffff" stroke="transparent" points="419.5,-40.2 419.5,-59.2 486.5,-59.2 486.5,-40.2 419.5,-40.2"/>
<polygon fill="none" stroke="#000000" points="419.5,-40.2 419.5,-59.2 486.5,-59.2 486.5,-40.2 419.5,-40.2"/>
<text text-anchor="start" x="467.9053" y="-46.3" font-family="Helvetica,sans-Serif" font-size="11.00" fill="#000000">2 &gt;</text>
<polygon fill="none" stroke="#000000" stroke-width="2" points="274,-39.2 274,-523.2 487,-523.2 487,-39.2 274,-39.2"/>
</a>
</g>
</g>
<!-- users -->
<g id="node2" class="node">
<title>users</title>
<g id="a_node2"><a xlink:href="../../tables/users.html" xlink:title="users" target="_top">
<polygon fill="#ffffff" stroke="transparent" points="8,-197.7 8,-412.7 224,-412.7 224,-197.7 8,-197.7"/>
<polygon fill="#f5f5f5" stroke="transparent" points="8,-389.2 8,-412.2 224,-412.2 224,-389.2 8,-389.2"/>
<polygon fill="none" stroke="#000000" points="8,-389.2 8,-412.2 224,-412.2 224,-389.2 8,-389.2"/>
<text text-anchor="start" x="13" y="-398.3" font-family="Helvetica,sans-Serif" font-weight="bold" font-size="11.00" fill="#000000">users</text>
<text text-anchor="start" x="189.0437" y="-397.3" font-family="Helvetica,sans-Serif" font-size="11.00" fill="#000000">[table]</text>
<polygon fill="none" stroke="#000000" points="8,-367.2 8,-389.2 224,-389.2 224,-367.2 8,-367.2"/>
<image xlink:href="../../images/primaryKeys.png" width="11px" height="12px" preserveAspectRatio="xMinYMin meet" x="13" y="-384.2"/>
<text text-anchor="start" x="28" y="-374.3" font-family="Helvetica,sans-Serif" font-size="11.00" fill="#000000">id</text>
<polygon fill="#ffffff" stroke="transparent" points="8,-345.2 8,-367.2 224,-367.2 224,-345.2 8,-345.2"/>
<polygon fill="none" stroke="#000000" points="8,-345.2 8,-367.2 224,-367.2 224,-345.2 8,-345.2"/>
<text text-anchor="start" x="28" y="-352.3" font-family="Helvetica,sans-Serif" font-size="11.00" fill="#000000">user_name</text>
<polygon fill="#ffffff" stroke="transparent" points="8,-323.2 8,-345.2 224,-345.2 224,-323.2 8,-323.2"/>
<polygon fill="none" stroke="#000000" points="8,-323.2 8,-345.2 224,-345.2 224,-323.2 8,-323.2"/>
<text text-anchor="start" x="28" y="-330.3" font-family="Helvetica,sans-Serif" font-size="11.00" fill="#000000">first_name</text>
<polygon fill="#ffffff" stroke="transparent" points="8,-301.2 8,-323.2 224,-323.2 224,-301.2 8,-301.2"/>
<polygon fill="none" stroke="#000000" points="8,-301.2 8,-323.2 224,-323.2 224,-301.2 8,-301.2"/>
<text text-anchor="start" x="28" y="-308.3" font-family="Helvetica,sans-Serif" font-size="11.00" fill="#000000">last_name</text>
<polygon fill="#ffffff" stroke="transparent" points="8,-279.2 8,-301.2 224,-301.2 224,-279.2 8,-279.2"/>
<polygon fill="none" stroke="#000000" points="8,-279.2 8,-301.2 224,-301.2 224,-279.2 8,-279.2"/>
<text text-anchor="start" x="28" y="-286.3" font-family="Helvetica,sans-Serif" font-size="11.00" fill="#000000">status</text>
<polygon fill="#c0c0c0" stroke="transparent" points="8,-257.2 8,-279.2 224,-279.2 224,-257.2 8,-257.2"/>
<polygon fill="none" stroke="#000000" points="8,-257.2 8,-279.2 224,-279.2 224,-257.2 8,-257.2"/>
<image xlink:href="../../images/foreignKeys.png" width="11px" height="12px" preserveAspectRatio="xMinYMin meet" x="13" y="-274.2"/>
<text text-anchor="start" x="28" y="-264.3" font-family="Helvetica,sans-Serif" font-size="11.00" fill="#000000">reports_to_id</text>
<polygon fill="#ffffff" stroke="transparent" points="8,-235.2 8,-257.2 224,-257.2 224,-235.2 8,-235.2"/>
<polygon fill="none" stroke="#000000" points="8,-235.2 8,-257.2 224,-257.2 224,-235.2 8,-235.2"/>
<text text-anchor="start" x="28" y="-242.3" font-family="Helvetica,sans-Serif" font-size="11.00" fill="#000000">is_group</text>
<polygon fill="none" stroke="#000000" points="8,-216.2 8,-235.2 224,-235.2 224,-216.2 8,-216.2"/>
<text text-anchor="start" x="11" y="-222.3" font-family="Helvetica,sans-Serif" font-size="11.00" fill="#000000">...</text>
<polygon fill="#ffffff" stroke="transparent" points="8,-197.2 8,-216.2 104,-216.2 104,-197.2 8,-197.2"/>
<polygon fill="none" stroke="#000000" points="8,-197.2 8,-216.2 104,-216.2 104,-197.2 8,-197.2"/>
<text text-anchor="start" x="11" y="-203.3" font-family="Helvetica,sans-Serif" font-size="11.00" fill="#000000">&lt; 2</text>
<polygon fill="#ffffff" stroke="transparent" points="104,-197.2 104,-216.2 153,-216.2 153,-197.2 104,-197.2"/>
<polygon fill="none" stroke="#000000" points="104,-197.2 104,-216.2 153,-216.2 153,-197.2 104,-197.2"/>
<text text-anchor="start" x="143.8862" y="-203.3" font-family="Helvetica,sans-Serif" font-size="11.00" fill="#000000"> &#160;</text>
<polygon fill="#ffffff" stroke="transparent" points="153,-197.2 153,-216.2 224,-216.2 224,-197.2 153,-197.2"/>
<polygon fill="none" stroke="#000000" points="153,-197.2 153,-216.2 224,-216.2 224,-197.2 153,-197.2"/>
<text text-anchor="start" x="193.1755" y="-203.3" font-family="Helvetica,sans-Serif" font-size="11.00" fill="#000000">214 &gt;</text>
</a>
</g>
</g>
<!-- am_tasktemplates&#45;&gt;users -->
<g id="edge1" class="edge">
<title>am_tasktemplates:w&#45;&gt;users:e</title>
<path fill="none" stroke="#000000" d="M261.511,-316.9466C244.1935,-332.0798 255.1026,-378.2 224,-378.2"/>
<polygon fill="#000000" stroke="#000000" points="267.9242,-314.7705 276.6567,-315.6091 271.7121,-313.4853 275.5,-312.2 275.5,-312.2 275.5,-312.2 271.7121,-313.4853 274.3433,-308.7909 267.9242,-314.7705 267.9242,-314.7705"/>
<ellipse fill="none" stroke="#000000" cx="264.8939" cy="-315.7988" rx="3.2" ry="3.2"/>
</g>
<!-- am_tasktemplates&#45;&gt;users -->
<g id="edge2" class="edge">
<title>am_tasktemplates:w&#45;&gt;users:e</title>
<path fill="none" stroke="#000000" d="M261.0156,-378.2C248.6771,-378.2 241.1667,-378.2 224,-378.2"/>
<polygon fill="#000000" stroke="#000000" points="267.5,-378.2001 275.5,-381.8 271.5,-378.2 275.5,-378.2 275.5,-378.2 275.5,-378.2 271.5,-378.2 275.5,-374.6 267.5,-378.2001 267.5,-378.2001"/>
<ellipse fill="none" stroke="#000000" cx="264.3" cy="-378.2001" rx="3.2" ry="3.2"/>
</g>
<!-- am_tasktemplates&#45;&gt;users -->
<g id="edge3" class="edge">
<title>am_tasktemplates:w&#45;&gt;users:e</title>
<path fill="none" stroke="#000000" d="M261.2209,-397.141C248.531,-391.096 243.0563,-378.2 224,-378.2"/>
<polygon fill="#000000" stroke="#000000" points="267.6775,-398.5241 274.7459,-403.7201 271.5887,-399.3621 275.5,-400.2 275.5,-400.2 275.5,-400.2 271.5887,-399.3621 276.2541,-396.6799 267.6775,-398.5241 267.6775,-398.5241"/>
<ellipse fill="none" stroke="#000000" cx="264.5485" cy="-397.8538" rx="3.2" ry="3.2"/>
</g>
<!-- am_tasktemplates_am_projecttemplates_c -->
<g id="node3" class="node">
<title>am_tasktemplates_am_projecttemplates_c</title>
<g id="a_node3"><a xlink:href="../../tables/am_tasktemplates_am_projecttemplates_c.html" xlink:title="am_tasktemplates_am_projecttemplates_c" target="_top">
<polygon fill="#ffffff" stroke="transparent" points="537,-502.7 537,-629.7 999,-629.7 999,-502.7 537,-502.7"/>
<polygon fill="#f5f5f5" stroke="transparent" points="537,-606.2 537,-629.2 999,-629.2 999,-606.2 537,-606.2"/>
<polygon fill="none" stroke="#000000" points="537,-606.2 537,-629.2 999,-629.2 999,-606.2 537,-606.2"/>
<text text-anchor="start" x="542" y="-615.3" font-family="Helvetica,sans-Serif" font-weight="bold" font-size="11.00" fill="#000000">am_tasktemplates_am_projecttemplates_c</text>
<text text-anchor="start" x="964.0437" y="-614.3" font-family="Helvetica,sans-Serif" font-size="11.00" fill="#000000">[table]</text>
<polygon fill="none" stroke="#000000" points="537,-584.2 537,-606.2 999,-606.2 999,-584.2 537,-584.2"/>
<image xlink:href="../../images/primaryKeys.png" width="11px" height="12px" preserveAspectRatio="xMinYMin meet" x="542" y="-601.2"/>
<text text-anchor="start" x="557" y="-591.3" font-family="Helvetica,sans-Serif" font-size="11.00" fill="#000000">id</text>
<polygon fill="#ffffff" stroke="transparent" points="537,-562.2 537,-584.2 999,-584.2 999,-562.2 537,-562.2"/>
<polygon fill="none" stroke="#000000" points="537,-562.2 537,-584.2 999,-584.2 999,-562.2 537,-562.2"/>
<image xlink:href="../../images/foreignKeys.png" width="11px" height="12px" preserveAspectRatio="xMinYMin meet" x="542" y="-579.2"/>
<text text-anchor="start" x="557" y="-569.3" font-family="Helvetica,sans-Serif" font-size="11.00" fill="#000000">am_tasktemplates_am_projecttemplatesam_projecttemplates_ida</text>
<polygon fill="#ffffff" stroke="transparent" points="537,-540.2 537,-562.2 999,-562.2 999,-540.2 537,-540.2"/>
<polygon fill="none" stroke="#000000" points="537,-540.2 537,-562.2 999,-562.2 999,-540.2 537,-540.2"/>
<image xlink:href="../../images/foreignKeys.png" width="11px" height="12px" preserveAspectRatio="xMinYMin meet" x="542" y="-557.2"/>
<text text-anchor="start" x="557" y="-547.3" font-family="Helvetica,sans-Serif" font-size="11.00" fill="#000000">am_tasktemplates_am_projecttemplatesam_tasktemplates_idb</text>
<polygon fill="none" stroke="#000000" points="537,-521.2 537,-540.2 999,-540.2 999,-521.2 537,-521.2"/>
<text text-anchor="start" x="540" y="-527.3" font-family="Helvetica,sans-Serif" font-size="11.00" fill="#000000">...</text>
<polygon fill="#ffffff" stroke="transparent" points="537,-502.2 537,-521.2 766,-521.2 766,-502.2 537,-502.2"/>
<polygon fill="none" stroke="#000000" points="537,-502.2 537,-521.2 766,-521.2 766,-502.2 537,-502.2"/>
<text text-anchor="start" x="540" y="-508.3" font-family="Helvetica,sans-Serif" font-size="11.00" fill="#000000">&lt; 2</text>
<polygon fill="#ffffff" stroke="transparent" points="766,-502.2 766,-521.2 882,-521.2 882,-502.2 766,-502.2"/>
<polygon fill="none" stroke="#000000" points="766,-502.2 766,-521.2 882,-521.2 882,-502.2 766,-502.2"/>
<text text-anchor="start" x="872.8862" y="-508.3" font-family="Helvetica,sans-Serif" font-size="11.00" fill="#000000"> &#160;</text>
<polygon fill="#ffffff" stroke="transparent" points="882,-502.2 882,-521.2 999,-521.2 999,-502.2 882,-502.2"/>
<polygon fill="none" stroke="#000000" points="882,-502.2 882,-521.2 999,-521.2 999,-502.2 882,-502.2"/>
<text text-anchor="start" x="989.8862" y="-508.3" font-family="Helvetica,sans-Serif" font-size="11.00" fill="#000000"> &#160;</text>
</a>
</g>
</g>
<!-- am_tasktemplates_am_projecttemplates_c&#45;&gt;am_tasktemplates -->
<g id="edge4" class="edge">
<title>am_tasktemplates_am_projecttemplates_c:w&#45;&gt;am_tasktemplates:e</title>
<path fill="none" stroke="#000000" d="M522.9816,-546.2565C506.738,-531.4048 516.2175,-488.2 486.5,-488.2"/>
<polygon fill="#000000" stroke="#000000" points="529.4554,-548.5394 535.8027,-554.5951 533.2277,-549.8697 537,-551.2 537,-551.2 537,-551.2 533.2277,-549.8697 538.1973,-547.8049 529.4554,-548.5394 529.4554,-548.5394"/>
<ellipse fill="none" stroke="#000000" cx="526.4375" cy="-547.4752" rx="3.2" ry="3.2"/>
</g>
<!-- am_tasktemplates_audit -->
<g id="node4" class="node">
<title>am_tasktemplates_audit</title>
<g id="a_node4"><a xlink:href="../../tables/am_tasktemplates_audit.html" xlink:title="am_tasktemplates_audit" target="_top">
<polygon fill="#ffffff" stroke="transparent" points="675.5,-376.7 675.5,-481.7 860.5,-481.7 860.5,-376.7 675.5,-376.7"/>
<polygon fill="#f5f5f5" stroke="transparent" points="676,-458.2 676,-481.2 861,-481.2 861,-458.2 676,-458.2"/>
<polygon fill="none" stroke="#000000" points="676,-458.2 676,-481.2 861,-481.2 861,-458.2 676,-458.2"/>
<text text-anchor="start" x="681" y="-467.3" font-family="Helvetica,sans-Serif" font-weight="bold" font-size="11.00" fill="#000000">am_tasktemplates_audit</text>
<text text-anchor="start" x="826.0437" y="-466.3" font-family="Helvetica,sans-Serif" font-size="11.00" fill="#000000">[table]</text>
<polygon fill="none" stroke="#000000" points="676,-436.2 676,-458.2 861,-458.2 861,-436.2 676,-436.2"/>
<image xlink:href="../../images/primaryKeys.png" width="11px" height="12px" preserveAspectRatio="xMinYMin meet" x="681" y="-453.2"/>
<text text-anchor="start" x="696" y="-443.3" font-family="Helvetica,sans-Serif" font-size="11.00" fill="#000000">id</text>
<polygon fill="#c0c0c0" stroke="transparent" points="676,-414.2 676,-436.2 861,-436.2 861,-414.2 676,-414.2"/>
<polygon fill="none" stroke="#000000" points="676,-414.2 676,-436.2 861,-436.2 861,-414.2 676,-414.2"/>
<image xlink:href="../../images/foreignKeys.png" width="11px" height="12px" preserveAspectRatio="xMinYMin meet" x="681" y="-431.2"/>
<text text-anchor="start" x="696" y="-421.3" font-family="Helvetica,sans-Serif" font-size="11.00" fill="#000000">parent_id</text>
<polygon fill="none" stroke="#000000" points="676,-395.2 676,-414.2 861,-414.2 861,-395.2 676,-395.2"/>
<text text-anchor="start" x="679" y="-401.3" font-family="Helvetica,sans-Serif" font-size="11.00" fill="#000000">...</text>
<polygon fill="#ffffff" stroke="transparent" points="676,-376.2 676,-395.2 767,-395.2 767,-376.2 676,-376.2"/>
<polygon fill="none" stroke="#000000" points="676,-376.2 676,-395.2 767,-395.2 767,-376.2 676,-376.2"/>
<text text-anchor="start" x="679" y="-382.3" font-family="Helvetica,sans-Serif" font-size="11.00" fill="#000000">&lt; 1</text>
<polygon fill="#ffffff" stroke="transparent" points="767,-376.2 767,-395.2 814,-395.2 814,-376.2 767,-376.2"/>
<polygon fill="none" stroke="#000000" points="767,-376.2 767,-395.2 814,-395.2 814,-376.2 767,-376.2"/>
<text text-anchor="start" x="804.8862" y="-382.3" font-family="Helvetica,sans-Serif" font-size="11.00" fill="#000000"> &#160;</text>
<polygon fill="#ffffff" stroke="transparent" points="814,-376.2 814,-395.2 861,-395.2 861,-376.2 814,-376.2"/>
<polygon fill="none" stroke="#000000" points="814,-376.2 814,-395.2 861,-395.2 861,-376.2 814,-376.2"/>
<text text-anchor="start" x="851.8862" y="-382.3" font-family="Helvetica,sans-Serif" font-size="11.00" fill="#000000"> &#160;</text>
</a>
</g>
</g>
<!-- am_tasktemplates_audit&#45;&gt;am_tasktemplates -->
<g id="edge5" class="edge">
<title>am_tasktemplates_audit:w&#45;&gt;am_tasktemplates:e</title>
<path fill="none" stroke="#000000" d="M661.1584,-425.8235C585.5767,-432.3665 570.0542,-488.2 486.5,-488.2"/>
<polygon fill="#000000" stroke="#000000" points="668.0071,-425.5359 676.1511,-428.7968 672.0035,-425.3679 676,-425.2 676,-425.2 676,-425.2 672.0035,-425.3679 675.8489,-421.6032 668.0071,-425.5359 668.0071,-425.5359"/>
<ellipse fill="none" stroke="#000000" cx="664.8099" cy="-425.6702" rx="3.2" ry="3.2"/>
</g>
</g>
</svg>
