<?xml version="1.0" encoding="UTF-8" standalone="no"?>
<!DOCTYPE svg PUBLIC "-//W3C//DTD SVG 1.1//EN"
 "http://www.w3.org/Graphics/SVG/1.1/DTD/svg11.dtd">
<!-- Generated by graphviz version 2.40.1 (20161225.0304)
 -->
<!-- Title: twoDegreesRelationshipsDiagram Pages: 1 -->
<svg width="473pt" height="399pt"
 viewBox="0.00 0.00 473.00 398.70" xmlns="http://www.w3.org/2000/svg" xmlns:xlink="http://www.w3.org/1999/xlink">
<g id="graph0" class="graph" transform="scale(1 1) rotate(0) translate(4 394.7)">
<title>twoDegreesRelationshipsDiagram</title>
<polygon fill="#ffffff" stroke="transparent" points="-4,4 -4,-394.7 469,-394.7 469,4 -4,4"/>
<text text-anchor="middle" x="72.4936" y="-7.3" font-family="Helvetica,sans-Serif" font-size="11.00" fill="#000000">Generated by SchemaSpy</text>
<!-- am_tasktemplates_am_projecttemplates_c -->
<g id="node1" class="node">
<title>am_tasktemplates_am_projecttemplates_c</title>
<g id="a_node1"><a xlink:href="../../tables/am_tasktemplates_am_projecttemplates_c.html" xlink:title="am_tasktemplates_am_projecttemplates_c" target="_top">
<polygon fill="#ffffff" stroke="transparent" points="203,-325.7 203,-386.7 455,-386.7 455,-325.7 203,-325.7"/>
<polygon fill="#f5f5f5" stroke="transparent" points="203,-363.2 203,-386.2 455,-386.2 455,-363.2 203,-363.2"/>
<polygon fill="none" stroke="#000000" points="203,-363.2 203,-386.2 455,-386.2 455,-363.2 203,-363.2"/>
<text text-anchor="start" x="207.9791" y="-372.3" font-family="Helvetica,sans-Serif" font-weight="bold" font-size="11.00" fill="#000000">am_tasktemplates_am_projecttemplates_c</text>
<text text-anchor="start" x="420.5219" y="-371.3" font-family="Helvetica,sans-Serif" font-size="11.00" fill="#000000">[table]</text>
<polygon fill="none" stroke="#000000" points="203,-344.2 203,-363.2 455,-363.2 455,-344.2 203,-344.2"/>
<text text-anchor="start" x="206" y="-350.3" font-family="Helvetica,sans-Serif" font-size="11.00" fill="#000000">...</text>
<polygon fill="#ffffff" stroke="transparent" points="203,-325.2 203,-344.2 327,-344.2 327,-325.2 203,-325.2"/>
<polygon fill="none" stroke="#000000" points="203,-325.2 203,-344.2 327,-344.2 327,-325.2 203,-325.2"/>
<text text-anchor="start" x="206" y="-331.3" font-family="Helvetica,sans-Serif" font-size="11.00" fill="#000000">&lt; 2</text>
<polygon fill="#ffffff" stroke="transparent" points="327,-325.2 327,-344.2 391,-344.2 391,-325.2 327,-325.2"/>
<polygon fill="none" stroke="#000000" points="327,-325.2 327,-344.2 391,-344.2 391,-325.2 327,-325.2"/>
<text text-anchor="start" x="381.8862" y="-331.3" font-family="Helvetica,sans-Serif" font-size="11.00" fill="#000000"> &#160;</text>
<polygon fill="#ffffff" stroke="transparent" points="391,-325.2 391,-344.2 455,-344.2 455,-325.2 391,-325.2"/>
<polygon fill="none" stroke="#000000" points="391,-325.2 391,-344.2 455,-344.2 455,-325.2 391,-325.2"/>
<text text-anchor="start" x="445.8862" y="-331.3" font-family="Helvetica,sans-Serif" font-size="11.00" fill="#000000"> &#160;</text>
</a>
</g>
</g>
<!-- am_tasktemplates -->
<g id="node2" class="node">
<title>am_tasktemplates</title>
<g id="a_node2"><a xlink:href="../../tables/am_tasktemplates.html" xlink:title="am_tasktemplates" target="_top">
<polygon fill="#ffffff" stroke="transparent" points="8,-184.7 8,-333.7 152,-333.7 152,-184.7 8,-184.7"/>
<polygon fill="#f5f5f5" stroke="transparent" points="8,-310.2 8,-333.2 152,-333.2 152,-310.2 8,-310.2"/>
<polygon fill="none" stroke="#000000" points="8,-310.2 8,-333.2 152,-333.2 152,-310.2 8,-310.2"/>
<text text-anchor="start" x="13" y="-319.3" font-family="Helvetica,sans-Serif" font-weight="bold" font-size="11.00" fill="#000000">am_tasktemplates</text>
<text text-anchor="start" x="117.0437" y="-318.3" font-family="Helvetica,sans-Serif" font-size="11.00" fill="#000000">[table]</text>
<polygon fill="none" stroke="#000000" points="8,-288.2 8,-310.2 152,-310.2 152,-288.2 8,-288.2"/>
<image xlink:href="../../images/primaryKeys.png" width="11px" height="12px" preserveAspectRatio="xMinYMin meet" x="13" y="-305.2"/>
<text text-anchor="start" x="28" y="-295.3" font-family="Helvetica,sans-Serif" font-size="11.00" fill="#000000">id</text>
<polygon fill="#c0c0c0" stroke="transparent" points="8,-266.2 8,-288.2 152,-288.2 152,-266.2 8,-266.2"/>
<polygon fill="none" stroke="#000000" points="8,-266.2 8,-288.2 152,-288.2 152,-266.2 8,-266.2"/>
<image xlink:href="../../images/foreignKeys.png" width="11px" height="12px" preserveAspectRatio="xMinYMin meet" x="13" y="-283.2"/>
<text text-anchor="start" x="28" y="-273.3" font-family="Helvetica,sans-Serif" font-size="11.00" fill="#000000">modified_user_id</text>
<polygon fill="#c0c0c0" stroke="transparent" points="8,-244.2 8,-266.2 152,-266.2 152,-244.2 8,-244.2"/>
<polygon fill="none" stroke="#000000" points="8,-244.2 8,-266.2 152,-266.2 152,-244.2 8,-244.2"/>
<image xlink:href="../../images/foreignKeys.png" width="11px" height="12px" preserveAspectRatio="xMinYMin meet" x="13" y="-261.2"/>
<text text-anchor="start" x="28" y="-251.3" font-family="Helvetica,sans-Serif" font-size="11.00" fill="#000000">created_by</text>
<polygon fill="#c0c0c0" stroke="transparent" points="8,-222.2 8,-244.2 152,-244.2 152,-222.2 8,-222.2"/>
<polygon fill="none" stroke="#000000" points="8,-222.2 8,-244.2 152,-244.2 152,-222.2 8,-222.2"/>
<image xlink:href="../../images/foreignKeys.png" width="11px" height="12px" preserveAspectRatio="xMinYMin meet" x="13" y="-239.2"/>
<text text-anchor="start" x="28" y="-229.3" font-family="Helvetica,sans-Serif" font-size="11.00" fill="#000000">assigned_user_id</text>
<polygon fill="none" stroke="#000000" points="8,-203.2 8,-222.2 152,-222.2 152,-203.2 8,-203.2"/>
<text text-anchor="start" x="11" y="-209.3" font-family="Helvetica,sans-Serif" font-size="11.00" fill="#000000">...</text>
<polygon fill="#ffffff" stroke="transparent" points="8,-184.2 8,-203.2 74,-203.2 74,-184.2 8,-184.2"/>
<polygon fill="none" stroke="#000000" points="8,-184.2 8,-203.2 74,-203.2 74,-184.2 8,-184.2"/>
<text text-anchor="start" x="11" y="-190.3" font-family="Helvetica,sans-Serif" font-size="11.00" fill="#000000">&lt; 3</text>
<polygon fill="#ffffff" stroke="transparent" points="74,-184.2 74,-203.2 108,-203.2 108,-184.2 74,-184.2"/>
<polygon fill="none" stroke="#000000" points="74,-184.2 74,-203.2 108,-203.2 108,-184.2 74,-184.2"/>
<text text-anchor="start" x="98.8862" y="-190.3" font-family="Helvetica,sans-Serif" font-size="11.00" fill="#000000"> &#160;</text>
<polygon fill="#ffffff" stroke="transparent" points="108,-184.2 108,-203.2 152,-203.2 152,-184.2 108,-184.2"/>
<polygon fill="none" stroke="#000000" points="108,-184.2 108,-203.2 152,-203.2 152,-184.2 108,-184.2"/>
<text text-anchor="start" x="133.4053" y="-190.3" font-family="Helvetica,sans-Serif" font-size="11.00" fill="#000000">2 &gt;</text>
</a>
</g>
</g>
<!-- am_tasktemplates_am_projecttemplates_c&#45;&gt;am_tasktemplates -->
<g id="edge1" class="edge">
<title>am_tasktemplates_am_projecttemplates_c:w&#45;&gt;am_tasktemplates:e</title>
<path fill="none" stroke="#000000" d="M189.3001,-348.596C173.8364,-335.5373 179.08,-299.2 152,-299.2"/>
<polygon fill="#000000" stroke="#000000" points="195.4168,-350.6515 201.8532,-356.6125 199.2084,-351.9258 203,-353.2 203,-353.2 203,-353.2 199.2084,-351.9258 204.1468,-349.7875 195.4168,-350.6515 195.4168,-350.6515"/>
<ellipse fill="none" stroke="#000000" cx="192.3835" cy="-349.6322" rx="3.2" ry="3.2"/>
</g>
<!-- am_tasktemplates_audit -->
<g id="node3" class="node">
<title>am_tasktemplates_audit</title>
<g id="a_node3"><a xlink:href="../../tables/am_tasktemplates_audit.html" xlink:title="am_tasktemplates_audit" target="_top">
<polygon fill="#ffffff" stroke="transparent" points="201,-38.2 201,-304.2 457,-304.2 457,-38.2 201,-38.2"/>
<polygon fill="#f5f5f5" stroke="transparent" points="203,-279.2 203,-302.2 455,-302.2 455,-279.2 203,-279.2"/>
<polygon fill="none" stroke="#000000" points="203,-279.2 203,-302.2 455,-302.2 455,-279.2 203,-279.2"/>
<text text-anchor="start" x="208" y="-288.3" font-family="Helvetica,sans-Serif" font-weight="bold" font-size="11.00" fill="#000000">am_tasktemplates_audit</text>
<text text-anchor="start" x="420.0437" y="-287.3" font-family="Helvetica,sans-Serif" font-size="11.00" fill="#000000">[table]</text>
<polygon fill="none" stroke="#000000" points="203,-257.2 203,-279.2 388,-279.2 388,-257.2 203,-257.2"/>
<image xlink:href="../../images/primaryKeys.png" width="11px" height="12px" preserveAspectRatio="xMinYMin meet" x="208" y="-274.2"/>
<text text-anchor="start" x="223" y="-264.3" font-family="Helvetica,sans-Serif" font-size="11.00" fill="#000000">id</text>
<polygon fill="none" stroke="#000000" points="388,-257.2 388,-279.2 455,-279.2 455,-257.2 388,-257.2"/>
<text text-anchor="start" x="391" y="-264.9" font-family="Helvetica,sans-Serif" font-size="11.00" fill="#000000">char[36]</text>
<polygon fill="#ffffff" stroke="transparent" points="203,-235.2 203,-257.2 388,-257.2 388,-235.2 203,-235.2"/>
<polygon fill="none" stroke="#000000" points="203,-235.2 203,-257.2 388,-257.2 388,-235.2 203,-235.2"/>
<image xlink:href="../../images/foreignKeys.png" width="11px" height="12px" preserveAspectRatio="xMinYMin meet" x="208" y="-252.2"/>
<text text-anchor="start" x="223" y="-242.3" font-family="Helvetica,sans-Serif" font-size="11.00" fill="#000000">parent_id</text>
<polygon fill="none" stroke="#000000" points="388,-235.2 388,-257.2 455,-257.2 455,-235.2 388,-235.2"/>
<text text-anchor="start" x="391" y="-242.9" font-family="Helvetica,sans-Serif" font-size="11.00" fill="#000000">char[36]</text>
<polygon fill="none" stroke="#000000" points="203,-213.2 203,-235.2 388,-235.2 388,-213.2 203,-213.2"/>
<text text-anchor="start" x="223" y="-220.3" font-family="Helvetica,sans-Serif" font-size="11.00" fill="#000000">date_created</text>
<polygon fill="none" stroke="#000000" points="388,-213.2 388,-235.2 455,-235.2 455,-213.2 388,-213.2"/>
<text text-anchor="start" x="391" y="-220.9" font-family="Helvetica,sans-Serif" font-size="11.00" fill="#000000">datetime[26]</text>
<polygon fill="none" stroke="#000000" points="203,-191.2 203,-213.2 388,-213.2 388,-191.2 203,-191.2"/>
<text text-anchor="start" x="223" y="-198.3" font-family="Helvetica,sans-Serif" font-size="11.00" fill="#000000">created_by</text>
<polygon fill="none" stroke="#000000" points="388,-191.2 388,-213.2 455,-213.2 455,-191.2 388,-191.2"/>
<text text-anchor="start" x="391" y="-198.9" font-family="Helvetica,sans-Serif" font-size="11.00" fill="#000000">varchar[36]</text>
<polygon fill="none" stroke="#000000" points="203,-169.2 203,-191.2 388,-191.2 388,-169.2 203,-169.2"/>
<text text-anchor="start" x="223" y="-176.3" font-family="Helvetica,sans-Serif" font-size="11.00" fill="#000000">field_name</text>
<polygon fill="none" stroke="#000000" points="388,-169.2 388,-191.2 455,-191.2 455,-169.2 388,-169.2"/>
<text text-anchor="start" x="390.9365" y="-176.9" font-family="Helvetica,sans-Serif" font-size="11.00" fill="#000000">varchar[100]</text>
<polygon fill="none" stroke="#000000" points="203,-147.2 203,-169.2 388,-169.2 388,-147.2 203,-147.2"/>
<text text-anchor="start" x="223" y="-154.3" font-family="Helvetica,sans-Serif" font-size="11.00" fill="#000000">data_type</text>
<polygon fill="none" stroke="#000000" points="388,-147.2 388,-169.2 455,-169.2 455,-147.2 388,-147.2"/>
<text text-anchor="start" x="390.9365" y="-154.9" font-family="Helvetica,sans-Serif" font-size="11.00" fill="#000000">varchar[100]</text>
<polygon fill="none" stroke="#000000" points="203,-125.2 203,-147.2 388,-147.2 388,-125.2 203,-125.2"/>
<text text-anchor="start" x="223" y="-132.3" font-family="Helvetica,sans-Serif" font-size="11.00" fill="#000000">before_value_string</text>
<polygon fill="none" stroke="#000000" points="388,-125.2 388,-147.2 455,-147.2 455,-125.2 388,-125.2"/>
<text text-anchor="start" x="390.9365" y="-132.9" font-family="Helvetica,sans-Serif" font-size="11.00" fill="#000000">varchar[255]</text>
<polygon fill="none" stroke="#000000" points="203,-103.2 203,-125.2 388,-125.2 388,-103.2 203,-103.2"/>
<text text-anchor="start" x="223" y="-110.3" font-family="Helvetica,sans-Serif" font-size="11.00" fill="#000000">after_value_string</text>
<polygon fill="none" stroke="#000000" points="388,-103.2 388,-125.2 455,-125.2 455,-103.2 388,-103.2"/>
<text text-anchor="start" x="390.9365" y="-110.9" font-family="Helvetica,sans-Serif" font-size="11.00" fill="#000000">varchar[255]</text>
<polygon fill="none" stroke="#000000" points="203,-81.2 203,-103.2 388,-103.2 388,-81.2 203,-81.2"/>
<text text-anchor="start" x="223" y="-88.3" font-family="Helvetica,sans-Serif" font-size="11.00" fill="#000000">before_value_text</text>
<polygon fill="none" stroke="#000000" points="388,-81.2 388,-103.2 455,-103.2 455,-81.2 388,-81.2"/>
<text text-anchor="start" x="391" y="-88.9" font-family="Helvetica,sans-Serif" font-size="11.00" fill="#000000">text[65535]</text>
<polygon fill="none" stroke="#000000" points="203,-59.2 203,-81.2 388,-81.2 388,-59.2 203,-59.2"/>
<text text-anchor="start" x="223" y="-66.3" font-family="Helvetica,sans-Serif" font-size="11.00" fill="#000000">after_value_text</text>
<polygon fill="none" stroke="#000000" points="388,-59.2 388,-81.2 455,-81.2 455,-59.2 388,-59.2"/>
<text text-anchor="start" x="391" y="-66.9" font-family="Helvetica,sans-Serif" font-size="11.00" fill="#000000">text[65535]</text>
<polygon fill="#ffffff" stroke="transparent" points="203,-40.2 203,-59.2 300,-59.2 300,-40.2 203,-40.2"/>
<polygon fill="none" stroke="#000000" points="203,-40.2 203,-59.2 300,-59.2 300,-40.2 203,-40.2"/>
<text text-anchor="start" x="206" y="-46.3" font-family="Helvetica,sans-Serif" font-size="11.00" fill="#000000">&lt; 1</text>
<polygon fill="#ffffff" stroke="transparent" points="300,-40.2 300,-59.2 388,-59.2 388,-40.2 300,-40.2"/>
<polygon fill="none" stroke="#000000" points="300,-40.2 300,-59.2 388,-59.2 388,-40.2 300,-40.2"/>
<text text-anchor="start" x="378.8862" y="-46.3" font-family="Helvetica,sans-Serif" font-size="11.00" fill="#000000"> &#160;</text>
<polygon fill="#ffffff" stroke="transparent" points="388,-40.2 388,-59.2 455,-59.2 455,-40.2 388,-40.2"/>
<polygon fill="none" stroke="#000000" points="388,-40.2 388,-59.2 455,-59.2 455,-40.2 388,-40.2"/>
<text text-anchor="start" x="436.4053" y="-46.3" font-family="Helvetica,sans-Serif" font-size="11.00" fill="#000000">0 &gt;</text>
<polygon fill="none" stroke="#000000" stroke-width="2" points="202,-39.2 202,-303.2 456,-303.2 456,-39.2 202,-39.2"/>
</a>
</g>
</g>
<!-- am_tasktemplates_audit&#45;&gt;am_tasktemplates -->
<g id="edge2" class="edge">
<title>am_tasktemplates_audit:w&#45;&gt;am_tasktemplates:e</title>
<path fill="none" stroke="#000000" d="M188.9557,-251.0911C174.0477,-264.2117 178.5607,-299.2 152,-299.2"/>
<polygon fill="#000000" stroke="#000000" points="195.445,-248.8311 204.184,-249.5997 199.2225,-247.5156 203,-246.2 203,-246.2 203,-246.2 199.2225,-247.5156 201.816,-242.8003 195.445,-248.8311 195.445,-248.8311"/>
<ellipse fill="none" stroke="#000000" cx="192.4231" cy="-249.8836" rx="3.2" ry="3.2"/>
</g>
</g>
</svg>
