<?xml version="1.0" encoding="UTF-8" standalone="no"?>
<!DOCTYPE svg PUBLIC "-//W3C//DTD SVG 1.1//EN"
 "http://www.w3.org/Graphics/SVG/1.1/DTD/svg11.dtd">
<!-- Generated by graphviz version 2.40.1 (20161225.0304)
 -->
<!-- Title: twoDegreesRelationshipsDiagram Pages: 1 -->
<svg width="678pt" height="1263pt"
 viewBox="0.00 0.00 678.00 1263.20" xmlns="http://www.w3.org/2000/svg" xmlns:xlink="http://www.w3.org/1999/xlink">
<g id="graph0" class="graph" transform="scale(1 1) rotate(0) translate(4 1259.2)">
<title>twoDegreesRelationshipsDiagram</title>
<polygon fill="#ffffff" stroke="transparent" points="-4,4 -4,-1259.2 674,-1259.2 674,4 -4,4"/>
<text text-anchor="middle" x="72.4936" y="-7.3" font-family="Helvetica,sans-Serif" font-size="11.00" fill="#000000">Generated by SchemaSpy</text>
<!-- acl_roles_users -->
<g id="node1" class="node">
<title>acl_roles_users</title>
<g id="a_node1"><a xlink:href="../../tables/acl_roles_users.html" xlink:title="acl_roles_users" target="_top">
<polygon fill="#ffffff" stroke="transparent" points="487.5,-1190.2 487.5,-1251.2 607.5,-1251.2 607.5,-1190.2 487.5,-1190.2"/>
<polygon fill="#f5f5f5" stroke="transparent" points="487.5,-1227.7 487.5,-1250.7 607.5,-1250.7 607.5,-1227.7 487.5,-1227.7"/>
<polygon fill="none" stroke="#000000" points="487.5,-1227.7 487.5,-1250.7 607.5,-1250.7 607.5,-1227.7 487.5,-1227.7"/>
<text text-anchor="start" x="492.4951" y="-1236.8" font-family="Helvetica,sans-Serif" font-weight="bold" font-size="11.00" fill="#000000">acl_roles_users</text>
<text text-anchor="start" x="573.0219" y="-1235.8" font-family="Helvetica,sans-Serif" font-size="11.00" fill="#000000">[table]</text>
<polygon fill="none" stroke="#000000" points="487.5,-1208.7 487.5,-1227.7 607.5,-1227.7 607.5,-1208.7 487.5,-1208.7"/>
<text text-anchor="start" x="490.5" y="-1214.8" font-family="Helvetica,sans-Serif" font-size="11.00" fill="#000000">...</text>
<polygon fill="#ffffff" stroke="transparent" points="487.5,-1189.7 487.5,-1208.7 545.5,-1208.7 545.5,-1189.7 487.5,-1189.7"/>
<polygon fill="none" stroke="#000000" points="487.5,-1189.7 487.5,-1208.7 545.5,-1208.7 545.5,-1189.7 487.5,-1189.7"/>
<text text-anchor="start" x="490.5" y="-1195.8" font-family="Helvetica,sans-Serif" font-size="11.00" fill="#000000">&lt; 2</text>
<polygon fill="#ffffff" stroke="transparent" points="545.5,-1189.7 545.5,-1208.7 576.5,-1208.7 576.5,-1189.7 545.5,-1189.7"/>
<polygon fill="none" stroke="#000000" points="545.5,-1189.7 545.5,-1208.7 576.5,-1208.7 576.5,-1189.7 545.5,-1189.7"/>
<text text-anchor="start" x="567.3862" y="-1195.8" font-family="Helvetica,sans-Serif" font-size="11.00" fill="#000000"> &#160;</text>
<polygon fill="#ffffff" stroke="transparent" points="576.5,-1189.7 576.5,-1208.7 607.5,-1208.7 607.5,-1189.7 576.5,-1189.7"/>
<polygon fill="none" stroke="#000000" points="576.5,-1189.7 576.5,-1208.7 607.5,-1208.7 607.5,-1189.7 576.5,-1189.7"/>
<text text-anchor="start" x="598.3862" y="-1195.8" font-family="Helvetica,sans-Serif" font-size="11.00" fill="#000000"> &#160;</text>
</a>
</g>
</g>
<!-- users -->
<g id="node2" class="node">
<title>users</title>
<g id="a_node2"><a xlink:href="../../tables/users.html" xlink:title="users" target="_top">
<polygon fill="#ffffff" stroke="transparent" points="168,-377.2 168,-592.2 384,-592.2 384,-377.2 168,-377.2"/>
<polygon fill="#f5f5f5" stroke="transparent" points="168,-568.7 168,-591.7 384,-591.7 384,-568.7 168,-568.7"/>
<polygon fill="none" stroke="#000000" points="168,-568.7 168,-591.7 384,-591.7 384,-568.7 168,-568.7"/>
<text text-anchor="start" x="173" y="-577.8" font-family="Helvetica,sans-Serif" font-weight="bold" font-size="11.00" fill="#000000">users</text>
<text text-anchor="start" x="349.0437" y="-576.8" font-family="Helvetica,sans-Serif" font-size="11.00" fill="#000000">[table]</text>
<polygon fill="none" stroke="#000000" points="168,-546.7 168,-568.7 384,-568.7 384,-546.7 168,-546.7"/>
<image xlink:href="../../images/primaryKeys.png" width="11px" height="12px" preserveAspectRatio="xMinYMin meet" x="173" y="-563.7"/>
<text text-anchor="start" x="188" y="-553.8" font-family="Helvetica,sans-Serif" font-size="11.00" fill="#000000">id</text>
<polygon fill="#ffffff" stroke="transparent" points="168,-524.7 168,-546.7 384,-546.7 384,-524.7 168,-524.7"/>
<polygon fill="none" stroke="#000000" points="168,-524.7 168,-546.7 384,-546.7 384,-524.7 168,-524.7"/>
<text text-anchor="start" x="188" y="-531.8" font-family="Helvetica,sans-Serif" font-size="11.00" fill="#000000">user_name</text>
<polygon fill="#ffffff" stroke="transparent" points="168,-502.7 168,-524.7 384,-524.7 384,-502.7 168,-502.7"/>
<polygon fill="none" stroke="#000000" points="168,-502.7 168,-524.7 384,-524.7 384,-502.7 168,-502.7"/>
<text text-anchor="start" x="188" y="-509.8" font-family="Helvetica,sans-Serif" font-size="11.00" fill="#000000">first_name</text>
<polygon fill="#ffffff" stroke="transparent" points="168,-480.7 168,-502.7 384,-502.7 384,-480.7 168,-480.7"/>
<polygon fill="none" stroke="#000000" points="168,-480.7 168,-502.7 384,-502.7 384,-480.7 168,-480.7"/>
<text text-anchor="start" x="188" y="-487.8" font-family="Helvetica,sans-Serif" font-size="11.00" fill="#000000">last_name</text>
<polygon fill="#ffffff" stroke="transparent" points="168,-458.7 168,-480.7 384,-480.7 384,-458.7 168,-458.7"/>
<polygon fill="none" stroke="#000000" points="168,-458.7 168,-480.7 384,-480.7 384,-458.7 168,-458.7"/>
<text text-anchor="start" x="188" y="-465.8" font-family="Helvetica,sans-Serif" font-size="11.00" fill="#000000">status</text>
<polygon fill="#c0c0c0" stroke="transparent" points="168,-436.7 168,-458.7 384,-458.7 384,-436.7 168,-436.7"/>
<polygon fill="none" stroke="#000000" points="168,-436.7 168,-458.7 384,-458.7 384,-436.7 168,-436.7"/>
<image xlink:href="../../images/foreignKeys.png" width="11px" height="12px" preserveAspectRatio="xMinYMin meet" x="173" y="-453.7"/>
<text text-anchor="start" x="188" y="-443.8" font-family="Helvetica,sans-Serif" font-size="11.00" fill="#000000">reports_to_id</text>
<polygon fill="#ffffff" stroke="transparent" points="168,-414.7 168,-436.7 384,-436.7 384,-414.7 168,-414.7"/>
<polygon fill="none" stroke="#000000" points="168,-414.7 168,-436.7 384,-436.7 384,-414.7 168,-414.7"/>
<text text-anchor="start" x="188" y="-421.8" font-family="Helvetica,sans-Serif" font-size="11.00" fill="#000000">is_group</text>
<polygon fill="none" stroke="#000000" points="168,-395.7 168,-414.7 384,-414.7 384,-395.7 168,-395.7"/>
<text text-anchor="start" x="171" y="-401.8" font-family="Helvetica,sans-Serif" font-size="11.00" fill="#000000">...</text>
<polygon fill="#ffffff" stroke="transparent" points="168,-376.7 168,-395.7 264,-395.7 264,-376.7 168,-376.7"/>
<polygon fill="none" stroke="#000000" points="168,-376.7 168,-395.7 264,-395.7 264,-376.7 168,-376.7"/>
<text text-anchor="start" x="171" y="-382.8" font-family="Helvetica,sans-Serif" font-size="11.00" fill="#000000">&lt; 2</text>
<polygon fill="#ffffff" stroke="transparent" points="264,-376.7 264,-395.7 313,-395.7 313,-376.7 264,-376.7"/>
<polygon fill="none" stroke="#000000" points="264,-376.7 264,-395.7 313,-395.7 313,-376.7 264,-376.7"/>
<text text-anchor="start" x="303.8862" y="-382.8" font-family="Helvetica,sans-Serif" font-size="11.00" fill="#000000"> &#160;</text>
<polygon fill="#ffffff" stroke="transparent" points="313,-376.7 313,-395.7 384,-395.7 384,-376.7 313,-376.7"/>
<polygon fill="none" stroke="#000000" points="313,-376.7 313,-395.7 384,-395.7 384,-376.7 313,-376.7"/>
<text text-anchor="start" x="353.1755" y="-382.8" font-family="Helvetica,sans-Serif" font-size="11.00" fill="#000000">214 &gt;</text>
</a>
</g>
</g>
<!-- acl_roles_users&#45;&gt;users -->
<g id="edge1" class="edge">
<title>acl_roles_users:w&#45;&gt;users:e</title>
<path fill="none" stroke="#000000" d="M472.962,-1216.8434C450.5814,-1213.8784 439.0922,-1202.9362 425,-1179.7 389.0838,-1120.479 453.2611,-557.7 384,-557.7"/>
<polygon fill="#000000" stroke="#000000" points="479.5138,-1217.2294 487.2882,-1221.2938 483.5069,-1217.4647 487.5,-1217.7 487.5,-1217.7 487.5,-1217.7 483.5069,-1217.4647 487.7118,-1214.1062 479.5138,-1217.2294 479.5138,-1217.2294"/>
<ellipse fill="none" stroke="#000000" cx="476.3194" cy="-1217.0412" rx="3.2" ry="3.2"/>
</g>
<!-- campaign_log -->
<g id="node14" class="node">
<title>campaign_log</title>
<g id="a_node14"><a xlink:href="../../tables/campaign_log.html" xlink:title="campaign_log" target="_top">
<polygon fill="#ffffff" stroke="transparent" points="8,-530.2 8,-591.2 119,-591.2 119,-530.2 8,-530.2"/>
<polygon fill="#f5f5f5" stroke="transparent" points="8.5,-567.7 8.5,-590.7 119.5,-590.7 119.5,-567.7 8.5,-567.7"/>
<polygon fill="none" stroke="#000000" points="8.5,-567.7 8.5,-590.7 119.5,-590.7 119.5,-567.7 8.5,-567.7"/>
<text text-anchor="start" x="13.2686" y="-576.8" font-family="Helvetica,sans-Serif" font-weight="bold" font-size="11.00" fill="#000000">campaign_log</text>
<text text-anchor="start" x="85.0219" y="-575.8" font-family="Helvetica,sans-Serif" font-size="11.00" fill="#000000">[table]</text>
<polygon fill="none" stroke="#000000" points="8.5,-548.7 8.5,-567.7 119.5,-567.7 119.5,-548.7 8.5,-548.7"/>
<text text-anchor="start" x="11.5" y="-554.8" font-family="Helvetica,sans-Serif" font-size="11.00" fill="#000000">...</text>
<polygon fill="#ffffff" stroke="transparent" points="8.5,-529.7 8.5,-548.7 57.5,-548.7 57.5,-529.7 8.5,-529.7"/>
<polygon fill="none" stroke="#000000" points="8.5,-529.7 8.5,-548.7 57.5,-548.7 57.5,-529.7 8.5,-529.7"/>
<text text-anchor="start" x="11.5" y="-535.8" font-family="Helvetica,sans-Serif" font-size="11.00" fill="#000000">&lt; 5</text>
<polygon fill="#ffffff" stroke="transparent" points="57.5,-529.7 57.5,-548.7 83.5,-548.7 83.5,-529.7 57.5,-529.7"/>
<polygon fill="none" stroke="#000000" points="57.5,-529.7 57.5,-548.7 83.5,-548.7 83.5,-529.7 57.5,-529.7"/>
<text text-anchor="start" x="74.3862" y="-535.8" font-family="Helvetica,sans-Serif" font-size="11.00" fill="#000000"> &#160;</text>
<polygon fill="#ffffff" stroke="transparent" points="83.5,-529.7 83.5,-548.7 119.5,-548.7 119.5,-529.7 83.5,-529.7"/>
<polygon fill="none" stroke="#000000" points="83.5,-529.7 83.5,-548.7 119.5,-548.7 119.5,-529.7 83.5,-529.7"/>
<text text-anchor="start" x="100.9053" y="-535.8" font-family="Helvetica,sans-Serif" font-size="11.00" fill="#000000">5 &gt;</text>
</a>
</g>
</g>
<!-- users&#45;&gt;campaign_log -->
<g id="edge14" class="edge">
<title>users:w&#45;&gt;campaign_log:e</title>
<path fill="none" stroke="#000000" d="M157.3669,-557.7C143.8553,-557.7 137.0139,-557.7 119.5,-557.7"/>
<polygon fill="#000000" stroke="#000000" points="167.2,-553.7 167.2,-561.7 165.6,-561.7 165.6,-553.7 167.2,-553.7"/>
<polyline fill="none" stroke="#000000" points="168,-557.7 164,-557.7 "/>
<ellipse fill="none" stroke="#000000" cx="160.8" cy="-557.7001" rx="3.2" ry="3.2"/>
</g>
<!-- am_projecttemplates_users_1_c -->
<g id="node3" class="node">
<title>am_projecttemplates_users_1_c</title>
<g id="a_node3"><a xlink:href="../../tables/am_projecttemplates_users_1_c.html" xlink:title="am_projecttemplates_users_1_c" target="_top">
<polygon fill="#ffffff" stroke="transparent" points="447,-1108.2 447,-1169.2 648,-1169.2 648,-1108.2 447,-1108.2"/>
<polygon fill="#f5f5f5" stroke="transparent" points="447.5,-1145.7 447.5,-1168.7 648.5,-1168.7 648.5,-1145.7 447.5,-1145.7"/>
<polygon fill="none" stroke="#000000" points="447.5,-1145.7 447.5,-1168.7 648.5,-1168.7 648.5,-1145.7 447.5,-1145.7"/>
<text text-anchor="start" x="452.0382" y="-1154.8" font-family="Helvetica,sans-Serif" font-weight="bold" font-size="11.00" fill="#000000">am_projecttemplates_users_1_c</text>
<text text-anchor="start" x="614.0219" y="-1153.8" font-family="Helvetica,sans-Serif" font-size="11.00" fill="#000000">[table]</text>
<polygon fill="none" stroke="#000000" points="447.5,-1126.7 447.5,-1145.7 648.5,-1145.7 648.5,-1126.7 447.5,-1126.7"/>
<text text-anchor="start" x="450.5" y="-1132.8" font-family="Helvetica,sans-Serif" font-size="11.00" fill="#000000">...</text>
<polygon fill="#ffffff" stroke="transparent" points="447.5,-1107.7 447.5,-1126.7 546.5,-1126.7 546.5,-1107.7 447.5,-1107.7"/>
<polygon fill="none" stroke="#000000" points="447.5,-1107.7 447.5,-1126.7 546.5,-1126.7 546.5,-1107.7 447.5,-1107.7"/>
<text text-anchor="start" x="450.5" y="-1113.8" font-family="Helvetica,sans-Serif" font-size="11.00" fill="#000000">&lt; 2</text>
<polygon fill="#ffffff" stroke="transparent" points="546.5,-1107.7 546.5,-1126.7 597.5,-1126.7 597.5,-1107.7 546.5,-1107.7"/>
<polygon fill="none" stroke="#000000" points="546.5,-1107.7 546.5,-1126.7 597.5,-1126.7 597.5,-1107.7 546.5,-1107.7"/>
<text text-anchor="start" x="588.3862" y="-1113.8" font-family="Helvetica,sans-Serif" font-size="11.00" fill="#000000"> &#160;</text>
<polygon fill="#ffffff" stroke="transparent" points="597.5,-1107.7 597.5,-1126.7 648.5,-1126.7 648.5,-1107.7 597.5,-1107.7"/>
<polygon fill="none" stroke="#000000" points="597.5,-1107.7 597.5,-1126.7 648.5,-1126.7 648.5,-1107.7 597.5,-1107.7"/>
<text text-anchor="start" x="639.3862" y="-1113.8" font-family="Helvetica,sans-Serif" font-size="11.00" fill="#000000"> &#160;</text>
</a>
</g>
</g>
<!-- am_projecttemplates_users_1_c&#45;&gt;users -->
<g id="edge2" class="edge">
<title>am_projecttemplates_users_1_c:w&#45;&gt;users:e</title>
<path fill="none" stroke="#000000" d="M434.1914,-1129.9248C428.898,-1122.8096 428.9163,-1110.1315 425,-1097.7 406.9198,-1040.3078 444.1727,-557.7 384,-557.7"/>
<polygon fill="#000000" stroke="#000000" points="440.1612,-1132.5153 446.0669,-1139.0025 443.8306,-1134.1077 447.5,-1135.7 447.5,-1135.7 447.5,-1135.7 443.8306,-1134.1077 448.9331,-1132.3975 440.1612,-1132.5153 440.1612,-1132.5153"/>
<ellipse fill="none" stroke="#000000" cx="437.2257" cy="-1131.2415" rx="3.2" ry="3.2"/>
</g>
<!-- aobh_businesshours -->
<g id="node4" class="node">
<title>aobh_businesshours</title>
<g id="a_node4"><a xlink:href="../../tables/aobh_businesshours.html" xlink:title="aobh_businesshours" target="_top">
<polygon fill="#ffffff" stroke="transparent" points="433,-776.7 433,-1086.7 662,-1086.7 662,-776.7 433,-776.7"/>
<polygon fill="#f5f5f5" stroke="transparent" points="435.5,-1061.7 435.5,-1084.7 660.5,-1084.7 660.5,-1061.7 435.5,-1061.7"/>
<polygon fill="none" stroke="#000000" points="435.5,-1061.7 435.5,-1084.7 660.5,-1084.7 660.5,-1061.7 435.5,-1061.7"/>
<text text-anchor="start" x="440.5" y="-1070.8" font-family="Helvetica,sans-Serif" font-weight="bold" font-size="11.00" fill="#000000">aobh_businesshours</text>
<text text-anchor="start" x="625.5437" y="-1069.8" font-family="Helvetica,sans-Serif" font-size="11.00" fill="#000000">[table]</text>
<polygon fill="none" stroke="#000000" points="435.5,-1039.7 435.5,-1061.7 593.5,-1061.7 593.5,-1039.7 435.5,-1039.7"/>
<image xlink:href="../../images/primaryKeys.png" width="11px" height="12px" preserveAspectRatio="xMinYMin meet" x="440.5" y="-1056.7"/>
<text text-anchor="start" x="455.5" y="-1046.8" font-family="Helvetica,sans-Serif" font-size="11.00" fill="#000000">id</text>
<polygon fill="none" stroke="#000000" points="593.5,-1039.7 593.5,-1061.7 660.5,-1061.7 660.5,-1039.7 593.5,-1039.7"/>
<text text-anchor="start" x="596.5" y="-1047.4" font-family="Helvetica,sans-Serif" font-size="11.00" fill="#000000">char[36]</text>
<polygon fill="none" stroke="#000000" points="435.5,-1017.7 435.5,-1039.7 593.5,-1039.7 593.5,-1017.7 435.5,-1017.7"/>
<text text-anchor="start" x="455.5" y="-1024.8" font-family="Helvetica,sans-Serif" font-size="11.00" fill="#000000">name</text>
<polygon fill="none" stroke="#000000" points="593.5,-1017.7 593.5,-1039.7 660.5,-1039.7 660.5,-1017.7 593.5,-1017.7"/>
<text text-anchor="start" x="596.4365" y="-1025.4" font-family="Helvetica,sans-Serif" font-size="11.00" fill="#000000">varchar[255]</text>
<polygon fill="none" stroke="#000000" points="435.5,-995.7 435.5,-1017.7 593.5,-1017.7 593.5,-995.7 435.5,-995.7"/>
<text text-anchor="start" x="455.5" y="-1002.8" font-family="Helvetica,sans-Serif" font-size="11.00" fill="#000000">date_entered</text>
<polygon fill="none" stroke="#000000" points="593.5,-995.7 593.5,-1017.7 660.5,-1017.7 660.5,-995.7 593.5,-995.7"/>
<text text-anchor="start" x="596.5" y="-1003.4" font-family="Helvetica,sans-Serif" font-size="11.00" fill="#000000">datetime[26]</text>
<polygon fill="none" stroke="#000000" points="435.5,-973.7 435.5,-995.7 593.5,-995.7 593.5,-973.7 435.5,-973.7"/>
<text text-anchor="start" x="455.5" y="-980.8" font-family="Helvetica,sans-Serif" font-size="11.00" fill="#000000">date_modified</text>
<polygon fill="none" stroke="#000000" points="593.5,-973.7 593.5,-995.7 660.5,-995.7 660.5,-973.7 593.5,-973.7"/>
<text text-anchor="start" x="596.5" y="-981.4" font-family="Helvetica,sans-Serif" font-size="11.00" fill="#000000">datetime[26]</text>
<polygon fill="none" stroke="#000000" points="435.5,-951.7 435.5,-973.7 593.5,-973.7 593.5,-951.7 435.5,-951.7"/>
<image xlink:href="../../images/foreignKeys.png" width="11px" height="12px" preserveAspectRatio="xMinYMin meet" x="440.5" y="-968.7"/>
<text text-anchor="start" x="455.5" y="-958.8" font-family="Helvetica,sans-Serif" font-size="11.00" fill="#000000">modified_user_id</text>
<polygon fill="none" stroke="#000000" points="593.5,-951.7 593.5,-973.7 660.5,-973.7 660.5,-951.7 593.5,-951.7"/>
<text text-anchor="start" x="596.5" y="-959.4" font-family="Helvetica,sans-Serif" font-size="11.00" fill="#000000">char[36]</text>
<polygon fill="none" stroke="#000000" points="435.5,-929.7 435.5,-951.7 593.5,-951.7 593.5,-929.7 435.5,-929.7"/>
<image xlink:href="../../images/foreignKeys.png" width="11px" height="12px" preserveAspectRatio="xMinYMin meet" x="440.5" y="-946.7"/>
<text text-anchor="start" x="455.5" y="-936.8" font-family="Helvetica,sans-Serif" font-size="11.00" fill="#000000">created_by</text>
<polygon fill="none" stroke="#000000" points="593.5,-929.7 593.5,-951.7 660.5,-951.7 660.5,-929.7 593.5,-929.7"/>
<text text-anchor="start" x="596.5" y="-937.4" font-family="Helvetica,sans-Serif" font-size="11.00" fill="#000000">char[36]</text>
<polygon fill="none" stroke="#000000" points="435.5,-907.7 435.5,-929.7 593.5,-929.7 593.5,-907.7 435.5,-907.7"/>
<text text-anchor="start" x="455.5" y="-914.8" font-family="Helvetica,sans-Serif" font-size="11.00" fill="#000000">description</text>
<polygon fill="none" stroke="#000000" points="593.5,-907.7 593.5,-929.7 660.5,-929.7 660.5,-907.7 593.5,-907.7"/>
<text text-anchor="start" x="596.5" y="-915.4" font-family="Helvetica,sans-Serif" font-size="11.00" fill="#000000">text[65535]</text>
<polygon fill="none" stroke="#000000" points="435.5,-885.7 435.5,-907.7 593.5,-907.7 593.5,-885.7 435.5,-885.7"/>
<text text-anchor="start" x="455.5" y="-892.8" font-family="Helvetica,sans-Serif" font-size="11.00" fill="#000000">deleted</text>
<polygon fill="none" stroke="#000000" points="593.5,-885.7 593.5,-907.7 660.5,-907.7 660.5,-885.7 593.5,-885.7"/>
<text text-anchor="start" x="596.5" y="-893.4" font-family="Helvetica,sans-Serif" font-size="11.00" fill="#000000">bit[1]</text>
<polygon fill="none" stroke="#000000" points="435.5,-863.7 435.5,-885.7 593.5,-885.7 593.5,-863.7 435.5,-863.7"/>
<text text-anchor="start" x="455.5" y="-870.8" font-family="Helvetica,sans-Serif" font-size="11.00" fill="#000000">opening_hours</text>
<polygon fill="none" stroke="#000000" points="593.5,-863.7 593.5,-885.7 660.5,-885.7 660.5,-863.7 593.5,-863.7"/>
<text text-anchor="start" x="596.4365" y="-871.4" font-family="Helvetica,sans-Serif" font-size="11.00" fill="#000000">varchar[100]</text>
<polygon fill="none" stroke="#000000" points="435.5,-841.7 435.5,-863.7 593.5,-863.7 593.5,-841.7 435.5,-841.7"/>
<text text-anchor="start" x="455.5" y="-848.8" font-family="Helvetica,sans-Serif" font-size="11.00" fill="#000000">closing_hours</text>
<polygon fill="none" stroke="#000000" points="593.5,-841.7 593.5,-863.7 660.5,-863.7 660.5,-841.7 593.5,-841.7"/>
<text text-anchor="start" x="596.4365" y="-849.4" font-family="Helvetica,sans-Serif" font-size="11.00" fill="#000000">varchar[100]</text>
<polygon fill="none" stroke="#000000" points="435.5,-819.7 435.5,-841.7 593.5,-841.7 593.5,-819.7 435.5,-819.7"/>
<text text-anchor="start" x="455.5" y="-826.8" font-family="Helvetica,sans-Serif" font-size="11.00" fill="#000000">open_status</text>
<polygon fill="none" stroke="#000000" points="593.5,-819.7 593.5,-841.7 660.5,-841.7 660.5,-819.7 593.5,-819.7"/>
<text text-anchor="start" x="596.5" y="-827.4" font-family="Helvetica,sans-Serif" font-size="11.00" fill="#000000">bit[1]</text>
<polygon fill="none" stroke="#000000" points="435.5,-797.7 435.5,-819.7 593.5,-819.7 593.5,-797.7 435.5,-797.7"/>
<text text-anchor="start" x="455.5" y="-804.8" font-family="Helvetica,sans-Serif" font-size="11.00" fill="#000000">day</text>
<polygon fill="none" stroke="#000000" points="593.5,-797.7 593.5,-819.7 660.5,-819.7 660.5,-797.7 593.5,-797.7"/>
<text text-anchor="start" x="596.4365" y="-805.4" font-family="Helvetica,sans-Serif" font-size="11.00" fill="#000000">varchar[100]</text>
<polygon fill="#ffffff" stroke="transparent" points="435.5,-778.7 435.5,-797.7 518.5,-797.7 518.5,-778.7 435.5,-778.7"/>
<polygon fill="none" stroke="#000000" points="435.5,-778.7 435.5,-797.7 518.5,-797.7 518.5,-778.7 435.5,-778.7"/>
<text text-anchor="start" x="438.5" y="-784.8" font-family="Helvetica,sans-Serif" font-size="11.00" fill="#000000">&lt; 2</text>
<polygon fill="#ffffff" stroke="transparent" points="518.5,-778.7 518.5,-797.7 593.5,-797.7 593.5,-778.7 518.5,-778.7"/>
<polygon fill="none" stroke="#000000" points="518.5,-778.7 518.5,-797.7 593.5,-797.7 593.5,-778.7 518.5,-778.7"/>
<text text-anchor="start" x="584.3862" y="-784.8" font-family="Helvetica,sans-Serif" font-size="11.00" fill="#000000"> &#160;</text>
<polygon fill="#ffffff" stroke="transparent" points="593.5,-778.7 593.5,-797.7 660.5,-797.7 660.5,-778.7 593.5,-778.7"/>
<polygon fill="none" stroke="#000000" points="593.5,-778.7 593.5,-797.7 660.5,-797.7 660.5,-778.7 593.5,-778.7"/>
<text text-anchor="start" x="641.9053" y="-784.8" font-family="Helvetica,sans-Serif" font-size="11.00" fill="#000000">0 &gt;</text>
<polygon fill="none" stroke="#000000" stroke-width="2" points="434,-777.7 434,-1085.7 661,-1085.7 661,-777.7 434,-777.7"/>
</a>
</g>
</g>
<!-- aobh_businesshours&#45;&gt;users -->
<g id="edge3" class="edge">
<title>aobh_businesshours:w&#45;&gt;users:e</title>
<path fill="none" stroke="#000000" d="M421.713,-936.3987C363.8495,-894.3211 464.5098,-557.7 384,-557.7"/>
<polygon fill="#000000" stroke="#000000" points="427.863,-938.3174 434.4278,-944.1366 431.6815,-939.5087 435.5,-940.7 435.5,-940.7 435.5,-940.7 431.6815,-939.5087 436.5722,-937.2634 427.863,-938.3174 427.863,-938.3174"/>
<ellipse fill="none" stroke="#000000" cx="424.8082" cy="-937.3643" rx="3.2" ry="3.2"/>
</g>
<!-- aobh_businesshours&#45;&gt;users -->
<g id="edge4" class="edge">
<title>aobh_businesshours:w&#45;&gt;users:e</title>
<path fill="none" stroke="#000000" d="M421.3497,-958.4257C359.7024,-915.1417 469.2316,-557.7 384,-557.7"/>
<polygon fill="#000000" stroke="#000000" points="427.8418,-960.3867 434.459,-966.1462 431.6709,-961.5433 435.5,-962.7 435.5,-962.7 435.5,-962.7 431.6709,-961.5433 436.541,-959.2538 427.8418,-960.3867 427.8418,-960.3867"/>
<ellipse fill="none" stroke="#000000" cx="424.7785" cy="-959.4614" rx="3.2" ry="3.2"/>
</g>
<!-- calls_users -->
<g id="node5" class="node">
<title>calls_users</title>
<g id="a_node5"><a xlink:href="../../tables/calls_users.html" xlink:title="calls_users" target="_top">
<polygon fill="#ffffff" stroke="transparent" points="498.5,-694.2 498.5,-755.2 596.5,-755.2 596.5,-694.2 498.5,-694.2"/>
<polygon fill="#f5f5f5" stroke="transparent" points="498.5,-731.7 498.5,-754.7 596.5,-754.7 596.5,-731.7 498.5,-731.7"/>
<polygon fill="none" stroke="#000000" points="498.5,-731.7 498.5,-754.7 596.5,-754.7 596.5,-731.7 498.5,-731.7"/>
<text text-anchor="start" x="503.4984" y="-740.8" font-family="Helvetica,sans-Serif" font-weight="bold" font-size="11.00" fill="#000000">calls_users</text>
<text text-anchor="start" x="562.0219" y="-739.8" font-family="Helvetica,sans-Serif" font-size="11.00" fill="#000000">[table]</text>
<polygon fill="none" stroke="#000000" points="498.5,-712.7 498.5,-731.7 596.5,-731.7 596.5,-712.7 498.5,-712.7"/>
<text text-anchor="start" x="501.5" y="-718.8" font-family="Helvetica,sans-Serif" font-size="11.00" fill="#000000">...</text>
<polygon fill="#ffffff" stroke="transparent" points="498.5,-693.7 498.5,-712.7 545.5,-712.7 545.5,-693.7 498.5,-693.7"/>
<polygon fill="none" stroke="#000000" points="498.5,-693.7 498.5,-712.7 545.5,-712.7 545.5,-693.7 498.5,-693.7"/>
<text text-anchor="start" x="501.5" y="-699.8" font-family="Helvetica,sans-Serif" font-size="11.00" fill="#000000">&lt; 2</text>
<polygon fill="#ffffff" stroke="transparent" points="545.5,-693.7 545.5,-712.7 570.5,-712.7 570.5,-693.7 545.5,-693.7"/>
<polygon fill="none" stroke="#000000" points="545.5,-693.7 545.5,-712.7 570.5,-712.7 570.5,-693.7 545.5,-693.7"/>
<text text-anchor="start" x="561.3862" y="-699.8" font-family="Helvetica,sans-Serif" font-size="11.00" fill="#000000"> &#160;</text>
<polygon fill="#ffffff" stroke="transparent" points="570.5,-693.7 570.5,-712.7 596.5,-712.7 596.5,-693.7 570.5,-693.7"/>
<polygon fill="none" stroke="#000000" points="570.5,-693.7 570.5,-712.7 596.5,-712.7 596.5,-693.7 570.5,-693.7"/>
<text text-anchor="start" x="587.3862" y="-699.8" font-family="Helvetica,sans-Serif" font-size="11.00" fill="#000000"> &#160;</text>
</a>
</g>
</g>
<!-- calls_users&#45;&gt;users -->
<g id="edge5" class="edge">
<title>calls_users:w&#45;&gt;users:e</title>
<path fill="none" stroke="#000000" d="M483.9449,-721.0507C457.7638,-718.4405 445.3654,-707.6778 425,-683.7 386.877,-638.8148 442.8901,-557.7 384,-557.7"/>
<polygon fill="#000000" stroke="#000000" points="490.5079,-721.3434 498.3395,-725.2964 494.504,-721.5217 498.5,-721.7 498.5,-721.7 498.5,-721.7 494.504,-721.5217 498.6605,-718.1036 490.5079,-721.3434 490.5079,-721.3434"/>
<ellipse fill="none" stroke="#000000" cx="487.3111" cy="-721.2008" rx="3.2" ry="3.2"/>
</g>
<!-- contacts_users -->
<g id="node6" class="node">
<title>contacts_users</title>
<g id="a_node6"><a xlink:href="../../tables/contacts_users.html" xlink:title="contacts_users" target="_top">
<polygon fill="#ffffff" stroke="transparent" points="489.5,-612.2 489.5,-673.2 605.5,-673.2 605.5,-612.2 489.5,-612.2"/>
<polygon fill="#f5f5f5" stroke="transparent" points="489.5,-649.7 489.5,-672.7 605.5,-672.7 605.5,-649.7 489.5,-649.7"/>
<polygon fill="none" stroke="#000000" points="489.5,-649.7 489.5,-672.7 605.5,-672.7 605.5,-649.7 489.5,-649.7"/>
<text text-anchor="start" x="494.0175" y="-658.8" font-family="Helvetica,sans-Serif" font-weight="bold" font-size="11.00" fill="#000000">contacts_users</text>
<text text-anchor="start" x="571.0219" y="-657.8" font-family="Helvetica,sans-Serif" font-size="11.00" fill="#000000">[table]</text>
<polygon fill="none" stroke="#000000" points="489.5,-630.7 489.5,-649.7 605.5,-649.7 605.5,-630.7 489.5,-630.7"/>
<text text-anchor="start" x="492.5" y="-636.8" font-family="Helvetica,sans-Serif" font-size="11.00" fill="#000000">...</text>
<polygon fill="#ffffff" stroke="transparent" points="489.5,-611.7 489.5,-630.7 545.5,-630.7 545.5,-611.7 489.5,-611.7"/>
<polygon fill="none" stroke="#000000" points="489.5,-611.7 489.5,-630.7 545.5,-630.7 545.5,-611.7 489.5,-611.7"/>
<text text-anchor="start" x="492.5" y="-617.8" font-family="Helvetica,sans-Serif" font-size="11.00" fill="#000000">&lt; 2</text>
<polygon fill="#ffffff" stroke="transparent" points="545.5,-611.7 545.5,-630.7 575.5,-630.7 575.5,-611.7 545.5,-611.7"/>
<polygon fill="none" stroke="#000000" points="545.5,-611.7 545.5,-630.7 575.5,-630.7 575.5,-611.7 545.5,-611.7"/>
<text text-anchor="start" x="566.3862" y="-617.8" font-family="Helvetica,sans-Serif" font-size="11.00" fill="#000000"> &#160;</text>
<polygon fill="#ffffff" stroke="transparent" points="575.5,-611.7 575.5,-630.7 605.5,-630.7 605.5,-611.7 575.5,-611.7"/>
<polygon fill="none" stroke="#000000" points="575.5,-611.7 575.5,-630.7 605.5,-630.7 605.5,-611.7 575.5,-611.7"/>
<text text-anchor="start" x="596.3862" y="-617.8" font-family="Helvetica,sans-Serif" font-size="11.00" fill="#000000"> &#160;</text>
</a>
</g>
</g>
<!-- contacts_users&#45;&gt;users -->
<g id="edge6" class="edge">
<title>contacts_users:w&#45;&gt;users:e</title>
<path fill="none" stroke="#000000" d="M474.8724,-638.3108C453.87,-633.8291 446.5858,-619.0324 425,-601.7 404.1578,-584.9647 410.7296,-557.7 384,-557.7"/>
<polygon fill="#000000" stroke="#000000" points="481.5358,-638.9436 489.1596,-643.2839 485.5179,-639.3218 489.5,-639.7 489.5,-639.7 489.5,-639.7 485.5179,-639.3218 489.8404,-636.1161 481.5358,-638.9436 481.5358,-638.9436"/>
<ellipse fill="none" stroke="#000000" cx="478.3502" cy="-638.6411" rx="3.2" ry="3.2"/>
</g>
<!-- email_addr_bean_rel -->
<g id="node7" class="node">
<title>email_addr_bean_rel</title>
<g id="a_node7"><a xlink:href="../../tables/email_addr_bean_rel.html" xlink:title="email_addr_bean_rel" target="_top">
<polygon fill="#ffffff" stroke="transparent" points="474.5,-530.2 474.5,-591.2 620.5,-591.2 620.5,-530.2 474.5,-530.2"/>
<polygon fill="#f5f5f5" stroke="transparent" points="474.5,-567.7 474.5,-590.7 620.5,-590.7 620.5,-567.7 474.5,-567.7"/>
<polygon fill="none" stroke="#000000" points="474.5,-567.7 474.5,-590.7 620.5,-590.7 620.5,-567.7 474.5,-567.7"/>
<text text-anchor="start" x="479.349" y="-576.8" font-family="Helvetica,sans-Serif" font-weight="bold" font-size="11.00" fill="#000000">email_addr_bean_rel</text>
<text text-anchor="start" x="586.0219" y="-575.8" font-family="Helvetica,sans-Serif" font-size="11.00" fill="#000000">[table]</text>
<polygon fill="none" stroke="#000000" points="474.5,-548.7 474.5,-567.7 620.5,-567.7 620.5,-548.7 474.5,-548.7"/>
<text text-anchor="start" x="477.5" y="-554.8" font-family="Helvetica,sans-Serif" font-size="11.00" fill="#000000">...</text>
<polygon fill="#ffffff" stroke="transparent" points="474.5,-529.7 474.5,-548.7 545.5,-548.7 545.5,-529.7 474.5,-529.7"/>
<polygon fill="none" stroke="#000000" points="474.5,-529.7 474.5,-548.7 545.5,-548.7 545.5,-529.7 474.5,-529.7"/>
<text text-anchor="start" x="477.5" y="-535.8" font-family="Helvetica,sans-Serif" font-size="11.00" fill="#000000">&lt; 6</text>
<polygon fill="#ffffff" stroke="transparent" points="545.5,-529.7 545.5,-548.7 582.5,-548.7 582.5,-529.7 545.5,-529.7"/>
<polygon fill="none" stroke="#000000" points="545.5,-529.7 545.5,-548.7 582.5,-548.7 582.5,-529.7 545.5,-529.7"/>
<text text-anchor="start" x="573.3862" y="-535.8" font-family="Helvetica,sans-Serif" font-size="11.00" fill="#000000"> &#160;</text>
<polygon fill="#ffffff" stroke="transparent" points="582.5,-529.7 582.5,-548.7 620.5,-548.7 620.5,-529.7 582.5,-529.7"/>
<polygon fill="none" stroke="#000000" points="582.5,-529.7 582.5,-548.7 620.5,-548.7 620.5,-529.7 582.5,-529.7"/>
<text text-anchor="start" x="611.3862" y="-535.8" font-family="Helvetica,sans-Serif" font-size="11.00" fill="#000000"> &#160;</text>
</a>
</g>
</g>
<!-- email_addr_bean_rel&#45;&gt;users -->
<g id="edge7" class="edge">
<title>email_addr_bean_rel:w&#45;&gt;users:e</title>
<path fill="none" stroke="#000000" d="M459.929,-557.7C431.0747,-557.7 418.8802,-557.7 384,-557.7"/>
<polygon fill="#000000" stroke="#000000" points="466.5,-557.7001 474.5,-561.3 470.5,-557.7 474.5,-557.7 474.5,-557.7 474.5,-557.7 470.5,-557.7 474.5,-554.1 466.5,-557.7001 466.5,-557.7001"/>
<ellipse fill="none" stroke="#000000" cx="463.3" cy="-557.7001" rx="3.2" ry="3.2"/>
</g>
<!-- emails_beans -->
<g id="node8" class="node">
<title>emails_beans</title>
<g id="a_node8"><a xlink:href="../../tables/emails_beans.html" xlink:title="emails_beans" target="_top">
<polygon fill="#ffffff" stroke="transparent" points="492.5,-448.2 492.5,-509.2 602.5,-509.2 602.5,-448.2 492.5,-448.2"/>
<polygon fill="#f5f5f5" stroke="transparent" points="492.5,-485.7 492.5,-508.7 602.5,-508.7 602.5,-485.7 492.5,-485.7"/>
<polygon fill="none" stroke="#000000" points="492.5,-485.7 492.5,-508.7 602.5,-508.7 602.5,-485.7 492.5,-485.7"/>
<text text-anchor="start" x="497.076" y="-494.8" font-family="Helvetica,sans-Serif" font-weight="bold" font-size="11.00" fill="#000000">emails_beans</text>
<text text-anchor="start" x="568.0219" y="-493.8" font-family="Helvetica,sans-Serif" font-size="11.00" fill="#000000">[table]</text>
<polygon fill="none" stroke="#000000" points="492.5,-466.7 492.5,-485.7 602.5,-485.7 602.5,-466.7 492.5,-466.7"/>
<text text-anchor="start" x="495.5" y="-472.8" font-family="Helvetica,sans-Serif" font-size="11.00" fill="#000000">...</text>
<polygon fill="#ffffff" stroke="transparent" points="492.5,-447.7 492.5,-466.7 548.5,-466.7 548.5,-447.7 492.5,-447.7"/>
<polygon fill="none" stroke="#000000" points="492.5,-447.7 492.5,-466.7 548.5,-466.7 548.5,-447.7 492.5,-447.7"/>
<text text-anchor="start" x="495.5" y="-453.8" font-family="Helvetica,sans-Serif" font-size="11.00" fill="#000000">&lt; 14</text>
<polygon fill="#ffffff" stroke="transparent" points="548.5,-447.7 548.5,-466.7 575.5,-466.7 575.5,-447.7 548.5,-447.7"/>
<polygon fill="none" stroke="#000000" points="548.5,-447.7 548.5,-466.7 575.5,-466.7 575.5,-447.7 548.5,-447.7"/>
<text text-anchor="start" x="566.3862" y="-453.8" font-family="Helvetica,sans-Serif" font-size="11.00" fill="#000000"> &#160;</text>
<polygon fill="#ffffff" stroke="transparent" points="575.5,-447.7 575.5,-466.7 602.5,-466.7 602.5,-447.7 575.5,-447.7"/>
<polygon fill="none" stroke="#000000" points="575.5,-447.7 575.5,-466.7 602.5,-466.7 602.5,-447.7 575.5,-447.7"/>
<text text-anchor="start" x="593.3862" y="-453.8" font-family="Helvetica,sans-Serif" font-size="11.00" fill="#000000"> &#160;</text>
</a>
</g>
</g>
<!-- emails_beans&#45;&gt;users -->
<g id="edge8" class="edge">
<title>emails_beans:w&#45;&gt;users:e</title>
<path fill="none" stroke="#000000" d="M477.8655,-477.2256C455.0044,-482.5675 448.8225,-501.1134 425,-519.7 405.4115,-534.9832 408.8452,-557.7 384,-557.7"/>
<polygon fill="#000000" stroke="#000000" points="484.5431,-476.5295 492.8733,-479.2806 488.5216,-476.1148 492.5,-475.7 492.5,-475.7 492.5,-475.7 488.5216,-476.1148 492.1267,-472.1194 484.5431,-476.5295 484.5431,-476.5295"/>
<ellipse fill="none" stroke="#000000" cx="481.3604" cy="-476.8614" rx="3.2" ry="3.2"/>
</g>
<!-- meetings_users -->
<g id="node9" class="node">
<title>meetings_users</title>
<g id="a_node9"><a xlink:href="../../tables/meetings_users.html" xlink:title="meetings_users" target="_top">
<polygon fill="#ffffff" stroke="transparent" points="487.5,-366.2 487.5,-427.2 607.5,-427.2 607.5,-366.2 487.5,-366.2"/>
<polygon fill="#f5f5f5" stroke="transparent" points="487.5,-403.7 487.5,-426.7 607.5,-426.7 607.5,-403.7 487.5,-403.7"/>
<polygon fill="none" stroke="#000000" points="487.5,-403.7 487.5,-426.7 607.5,-426.7 607.5,-403.7 487.5,-403.7"/>
<text text-anchor="start" x="492.1871" y="-412.8" font-family="Helvetica,sans-Serif" font-weight="bold" font-size="11.00" fill="#000000">meetings_users</text>
<text text-anchor="start" x="573.0219" y="-411.8" font-family="Helvetica,sans-Serif" font-size="11.00" fill="#000000">[table]</text>
<polygon fill="none" stroke="#000000" points="487.5,-384.7 487.5,-403.7 607.5,-403.7 607.5,-384.7 487.5,-384.7"/>
<text text-anchor="start" x="490.5" y="-390.8" font-family="Helvetica,sans-Serif" font-size="11.00" fill="#000000">...</text>
<polygon fill="#ffffff" stroke="transparent" points="487.5,-365.7 487.5,-384.7 545.5,-384.7 545.5,-365.7 487.5,-365.7"/>
<polygon fill="none" stroke="#000000" points="487.5,-365.7 487.5,-384.7 545.5,-384.7 545.5,-365.7 487.5,-365.7"/>
<text text-anchor="start" x="490.5" y="-371.8" font-family="Helvetica,sans-Serif" font-size="11.00" fill="#000000">&lt; 2</text>
<polygon fill="#ffffff" stroke="transparent" points="545.5,-365.7 545.5,-384.7 576.5,-384.7 576.5,-365.7 545.5,-365.7"/>
<polygon fill="none" stroke="#000000" points="545.5,-365.7 545.5,-384.7 576.5,-384.7 576.5,-365.7 545.5,-365.7"/>
<text text-anchor="start" x="567.3862" y="-371.8" font-family="Helvetica,sans-Serif" font-size="11.00" fill="#000000"> &#160;</text>
<polygon fill="#ffffff" stroke="transparent" points="576.5,-365.7 576.5,-384.7 607.5,-384.7 607.5,-365.7 576.5,-365.7"/>
<polygon fill="none" stroke="#000000" points="576.5,-365.7 576.5,-384.7 607.5,-384.7 607.5,-365.7 576.5,-365.7"/>
<text text-anchor="start" x="598.3862" y="-371.8" font-family="Helvetica,sans-Serif" font-size="11.00" fill="#000000"> &#160;</text>
</a>
</g>
</g>
<!-- meetings_users&#45;&gt;users -->
<g id="edge9" class="edge">
<title>meetings_users:w&#45;&gt;users:e</title>
<path fill="none" stroke="#000000" d="M473.0085,-394.9677C450.6044,-399.3532 442.1138,-414.8725 425,-437.7 391.1923,-482.7947 440.3604,-557.7 384,-557.7"/>
<polygon fill="#000000" stroke="#000000" points="479.5304,-394.3972 487.8138,-397.2863 483.5152,-394.0486 487.5,-393.7 487.5,-393.7 487.5,-393.7 483.5152,-394.0486 487.1862,-390.1137 479.5304,-394.3972 479.5304,-394.3972"/>
<ellipse fill="none" stroke="#000000" cx="476.3426" cy="-394.6761" rx="3.2" ry="3.2"/>
</g>
<!-- project_users_1_c -->
<g id="node10" class="node">
<title>project_users_1_c</title>
<g id="a_node10"><a xlink:href="../../tables/project_users_1_c.html" xlink:title="project_users_1_c" target="_top">
<polygon fill="#ffffff" stroke="transparent" points="481.5,-284.2 481.5,-345.2 613.5,-345.2 613.5,-284.2 481.5,-284.2"/>
<polygon fill="#f5f5f5" stroke="transparent" points="481.5,-321.7 481.5,-344.7 613.5,-344.7 613.5,-321.7 481.5,-321.7"/>
<polygon fill="none" stroke="#000000" points="481.5,-321.7 481.5,-344.7 613.5,-344.7 613.5,-321.7 481.5,-321.7"/>
<text text-anchor="start" x="486.0722" y="-330.8" font-family="Helvetica,sans-Serif" font-weight="bold" font-size="11.00" fill="#000000">project_users_1_c</text>
<text text-anchor="start" x="579.0219" y="-329.8" font-family="Helvetica,sans-Serif" font-size="11.00" fill="#000000">[table]</text>
<polygon fill="none" stroke="#000000" points="481.5,-302.7 481.5,-321.7 613.5,-321.7 613.5,-302.7 481.5,-302.7"/>
<text text-anchor="start" x="484.5" y="-308.8" font-family="Helvetica,sans-Serif" font-size="11.00" fill="#000000">...</text>
<polygon fill="#ffffff" stroke="transparent" points="481.5,-283.7 481.5,-302.7 545.5,-302.7 545.5,-283.7 481.5,-283.7"/>
<polygon fill="none" stroke="#000000" points="481.5,-283.7 481.5,-302.7 545.5,-302.7 545.5,-283.7 481.5,-283.7"/>
<text text-anchor="start" x="484.5" y="-289.8" font-family="Helvetica,sans-Serif" font-size="11.00" fill="#000000">&lt; 2</text>
<polygon fill="#ffffff" stroke="transparent" points="545.5,-283.7 545.5,-302.7 579.5,-302.7 579.5,-283.7 545.5,-283.7"/>
<polygon fill="none" stroke="#000000" points="545.5,-283.7 545.5,-302.7 579.5,-302.7 579.5,-283.7 545.5,-283.7"/>
<text text-anchor="start" x="570.3862" y="-289.8" font-family="Helvetica,sans-Serif" font-size="11.00" fill="#000000"> &#160;</text>
<polygon fill="#ffffff" stroke="transparent" points="579.5,-283.7 579.5,-302.7 613.5,-302.7 613.5,-283.7 579.5,-283.7"/>
<polygon fill="none" stroke="#000000" points="579.5,-283.7 579.5,-302.7 613.5,-302.7 613.5,-283.7 579.5,-283.7"/>
<text text-anchor="start" x="604.3862" y="-289.8" font-family="Helvetica,sans-Serif" font-size="11.00" fill="#000000"> &#160;</text>
</a>
</g>
</g>
<!-- project_users_1_c&#45;&gt;users -->
<g id="edge10" class="edge">
<title>project_users_1_c:w&#45;&gt;users:e</title>
<path fill="none" stroke="#000000" d="M467.0423,-313.167C446.6921,-317.8234 438.8819,-333.2948 425,-355.7 376.7513,-433.5727 475.6084,-557.7 384,-557.7"/>
<polygon fill="#000000" stroke="#000000" points="473.5409,-312.5076 481.8634,-315.2816 477.5204,-312.1038 481.5,-311.7 481.5,-311.7 481.5,-311.7 477.5204,-312.1038 481.1366,-308.1184 473.5409,-312.5076 473.5409,-312.5076"/>
<ellipse fill="none" stroke="#000000" cx="470.3572" cy="-312.8307" rx="3.2" ry="3.2"/>
</g>
<!-- prospect_lists_prospects -->
<g id="node11" class="node">
<title>prospect_lists_prospects</title>
<g id="a_node11"><a xlink:href="../../tables/prospect_lists_prospects.html" xlink:title="prospect_lists_prospects" target="_top">
<polygon fill="#ffffff" stroke="transparent" points="465.5,-202.2 465.5,-263.2 629.5,-263.2 629.5,-202.2 465.5,-202.2"/>
<polygon fill="#f5f5f5" stroke="transparent" points="465.5,-239.7 465.5,-262.7 629.5,-262.7 629.5,-239.7 465.5,-239.7"/>
<polygon fill="none" stroke="#000000" points="465.5,-239.7 465.5,-262.7 629.5,-262.7 629.5,-239.7 465.5,-239.7"/>
<text text-anchor="start" x="470.4874" y="-248.8" font-family="Helvetica,sans-Serif" font-weight="bold" font-size="11.00" fill="#000000">prospect_lists_prospects</text>
<text text-anchor="start" x="595.0219" y="-247.8" font-family="Helvetica,sans-Serif" font-size="11.00" fill="#000000">[table]</text>
<polygon fill="none" stroke="#000000" points="465.5,-220.7 465.5,-239.7 629.5,-239.7 629.5,-220.7 465.5,-220.7"/>
<text text-anchor="start" x="468.5" y="-226.8" font-family="Helvetica,sans-Serif" font-size="11.00" fill="#000000">...</text>
<polygon fill="#ffffff" stroke="transparent" points="465.5,-201.7 465.5,-220.7 545.5,-220.7 545.5,-201.7 465.5,-201.7"/>
<polygon fill="none" stroke="#000000" points="465.5,-201.7 465.5,-220.7 545.5,-220.7 545.5,-201.7 465.5,-201.7"/>
<text text-anchor="start" x="468.5" y="-207.8" font-family="Helvetica,sans-Serif" font-size="11.00" fill="#000000">&lt; 6</text>
<polygon fill="#ffffff" stroke="transparent" points="545.5,-201.7 545.5,-220.7 587.5,-220.7 587.5,-201.7 545.5,-201.7"/>
<polygon fill="none" stroke="#000000" points="545.5,-201.7 545.5,-220.7 587.5,-220.7 587.5,-201.7 545.5,-201.7"/>
<text text-anchor="start" x="578.3862" y="-207.8" font-family="Helvetica,sans-Serif" font-size="11.00" fill="#000000"> &#160;</text>
<polygon fill="#ffffff" stroke="transparent" points="587.5,-201.7 587.5,-220.7 629.5,-220.7 629.5,-201.7 587.5,-201.7"/>
<polygon fill="none" stroke="#000000" points="587.5,-201.7 587.5,-220.7 629.5,-220.7 629.5,-201.7 587.5,-201.7"/>
<text text-anchor="start" x="620.3862" y="-207.8" font-family="Helvetica,sans-Serif" font-size="11.00" fill="#000000"> &#160;</text>
</a>
</g>
</g>
<!-- prospect_lists_prospects&#45;&gt;users -->
<g id="edge11" class="edge">
<title>prospect_lists_prospects:w&#45;&gt;users:e</title>
<path fill="none" stroke="#000000" d="M451.1676,-232.403C437.3967,-238.6397 433.9137,-254.946 425,-273.7 397.6272,-331.2913 447.7654,-557.7 384,-557.7"/>
<polygon fill="#000000" stroke="#000000" points="457.6386,-231.1827 466.1672,-233.2376 461.5693,-230.4413 465.5,-229.7 465.5,-229.7 465.5,-229.7 461.5693,-230.4413 464.8328,-226.1624 457.6386,-231.1827 457.6386,-231.1827"/>
<ellipse fill="none" stroke="#000000" cx="454.494" cy="-231.7758" rx="3.2" ry="3.2"/>
</g>
<!-- roles_users -->
<g id="node12" class="node">
<title>roles_users</title>
<g id="a_node12"><a xlink:href="../../tables/roles_users.html" xlink:title="roles_users" target="_top">
<polygon fill="#ffffff" stroke="transparent" points="498,-120.2 498,-181.2 597,-181.2 597,-120.2 498,-120.2"/>
<polygon fill="#f5f5f5" stroke="transparent" points="498.5,-157.7 498.5,-180.7 597.5,-180.7 597.5,-157.7 498.5,-157.7"/>
<polygon fill="none" stroke="#000000" points="498.5,-157.7 498.5,-180.7 597.5,-180.7 597.5,-157.7 498.5,-157.7"/>
<text text-anchor="start" x="503.0804" y="-166.8" font-family="Helvetica,sans-Serif" font-weight="bold" font-size="11.00" fill="#000000">roles_users</text>
<text text-anchor="start" x="563.0219" y="-165.8" font-family="Helvetica,sans-Serif" font-size="11.00" fill="#000000">[table]</text>
<polygon fill="none" stroke="#000000" points="498.5,-138.7 498.5,-157.7 597.5,-157.7 597.5,-138.7 498.5,-138.7"/>
<text text-anchor="start" x="501.5" y="-144.8" font-family="Helvetica,sans-Serif" font-size="11.00" fill="#000000">...</text>
<polygon fill="#ffffff" stroke="transparent" points="498.5,-119.7 498.5,-138.7 546.5,-138.7 546.5,-119.7 498.5,-119.7"/>
<polygon fill="none" stroke="#000000" points="498.5,-119.7 498.5,-138.7 546.5,-138.7 546.5,-119.7 498.5,-119.7"/>
<text text-anchor="start" x="501.5" y="-125.8" font-family="Helvetica,sans-Serif" font-size="11.00" fill="#000000">&lt; 2</text>
<polygon fill="#ffffff" stroke="transparent" points="546.5,-119.7 546.5,-138.7 571.5,-138.7 571.5,-119.7 546.5,-119.7"/>
<polygon fill="none" stroke="#000000" points="546.5,-119.7 546.5,-138.7 571.5,-138.7 571.5,-119.7 546.5,-119.7"/>
<text text-anchor="start" x="562.3862" y="-125.8" font-family="Helvetica,sans-Serif" font-size="11.00" fill="#000000"> &#160;</text>
<polygon fill="#ffffff" stroke="transparent" points="571.5,-119.7 571.5,-138.7 597.5,-138.7 597.5,-119.7 571.5,-119.7"/>
<polygon fill="none" stroke="#000000" points="571.5,-119.7 571.5,-138.7 597.5,-138.7 597.5,-119.7 571.5,-119.7"/>
<text text-anchor="start" x="588.3862" y="-125.8" font-family="Helvetica,sans-Serif" font-size="11.00" fill="#000000"> &#160;</text>
</a>
</g>
</g>
<!-- roles_users&#45;&gt;users -->
<g id="edge12" class="edge">
<title>roles_users:w&#45;&gt;users:e</title>
<path fill="none" stroke="#000000" d="M484.1132,-148.3922C456.2632,-151.3496 442.7769,-164.0549 425,-191.7 380.7343,-260.538 465.8421,-557.7 384,-557.7"/>
<polygon fill="#000000" stroke="#000000" points="490.5092,-148.0845 498.673,-151.2958 494.5046,-147.8923 498.5,-147.7 498.5,-147.7 498.5,-147.7 494.5046,-147.8923 498.327,-144.1042 490.5092,-148.0845 490.5092,-148.0845"/>
<ellipse fill="none" stroke="#000000" cx="487.3129" cy="-148.2383" rx="3.2" ry="3.2"/>
</g>
<!-- securitygroups_users -->
<g id="node13" class="node">
<title>securitygroups_users</title>
<g id="a_node13"><a xlink:href="../../tables/securitygroups_users.html" xlink:title="securitygroups_users" target="_top">
<polygon fill="#ffffff" stroke="transparent" points="474,-38.2 474,-99.2 621,-99.2 621,-38.2 474,-38.2"/>
<polygon fill="#f5f5f5" stroke="transparent" points="474.5,-75.7 474.5,-98.7 621.5,-98.7 621.5,-75.7 474.5,-75.7"/>
<polygon fill="none" stroke="#000000" points="474.5,-75.7 474.5,-98.7 621.5,-98.7 621.5,-75.7 474.5,-75.7"/>
<text text-anchor="start" x="479.2412" y="-84.8" font-family="Helvetica,sans-Serif" font-weight="bold" font-size="11.00" fill="#000000">securitygroups_users</text>
<text text-anchor="start" x="587.0219" y="-83.8" font-family="Helvetica,sans-Serif" font-size="11.00" fill="#000000">[table]</text>
<polygon fill="none" stroke="#000000" points="474.5,-56.7 474.5,-75.7 621.5,-75.7 621.5,-56.7 474.5,-56.7"/>
<text text-anchor="start" x="477.5" y="-62.8" font-family="Helvetica,sans-Serif" font-size="11.00" fill="#000000">...</text>
<polygon fill="#ffffff" stroke="transparent" points="474.5,-37.7 474.5,-56.7 546.5,-56.7 546.5,-37.7 474.5,-37.7"/>
<polygon fill="none" stroke="#000000" points="474.5,-37.7 474.5,-56.7 546.5,-56.7 546.5,-37.7 474.5,-37.7"/>
<text text-anchor="start" x="477.5" y="-43.8" font-family="Helvetica,sans-Serif" font-size="11.00" fill="#000000">&lt; 2</text>
<polygon fill="#ffffff" stroke="transparent" points="546.5,-37.7 546.5,-56.7 583.5,-56.7 583.5,-37.7 546.5,-37.7"/>
<polygon fill="none" stroke="#000000" points="546.5,-37.7 546.5,-56.7 583.5,-56.7 583.5,-37.7 546.5,-37.7"/>
<text text-anchor="start" x="574.3862" y="-43.8" font-family="Helvetica,sans-Serif" font-size="11.00" fill="#000000"> &#160;</text>
<polygon fill="#ffffff" stroke="transparent" points="583.5,-37.7 583.5,-56.7 621.5,-56.7 621.5,-37.7 583.5,-37.7"/>
<polygon fill="none" stroke="#000000" points="583.5,-37.7 583.5,-56.7 621.5,-56.7 621.5,-37.7 583.5,-37.7"/>
<text text-anchor="start" x="612.3862" y="-43.8" font-family="Helvetica,sans-Serif" font-size="11.00" fill="#000000"> &#160;</text>
</a>
</g>
</g>
<!-- securitygroups_users&#45;&gt;users -->
<g id="edge13" class="edge">
<title>securitygroups_users:w&#45;&gt;users:e</title>
<path fill="none" stroke="#000000" d="M460.1387,-67.5091C442.2894,-72.6478 435.7823,-88.3525 425,-109.7 402.4643,-154.3175 433.9858,-557.7 384,-557.7"/>
<polygon fill="#000000" stroke="#000000" points="466.5627,-66.6999 474.95,-69.2718 470.5314,-66.1999 474.5,-65.7 474.5,-65.7 474.5,-65.7 470.5314,-66.1999 474.05,-62.1282 466.5627,-66.6999 466.5627,-66.6999"/>
<ellipse fill="none" stroke="#000000" cx="463.3878" cy="-67.0998" rx="3.2" ry="3.2"/>
</g>
</g>
</svg>
