<?xml version="1.0" encoding="UTF-8" standalone="no"?>
<!DOCTYPE svg PUBLIC "-//W3C//DTD SVG 1.1//EN"
 "http://www.w3.org/Graphics/SVG/1.1/DTD/svg11.dtd">
<!-- Generated by graphviz version 2.40.1 (20161225.0304)
 -->
<!-- Title: oneDegreeRelationshipsDiagram Pages: 1 -->
<svg width="518pt" height="366pt"
 viewBox="0.00 0.00 518.00 365.70" xmlns="http://www.w3.org/2000/svg" xmlns:xlink="http://www.w3.org/1999/xlink">
<g id="graph0" class="graph" transform="scale(1 1) rotate(0) translate(4 361.7)">
<title>oneDegreeRelationshipsDiagram</title>
<polygon fill="#ffffff" stroke="transparent" points="-4,4 -4,-361.7 514,-361.7 514,4 -4,4"/>
<text text-anchor="middle" x="72.4936" y="-7.3" font-family="Helvetica,sans-Serif" font-size="11.00" fill="#000000">Generated by SchemaSpy</text>
<!-- aobh_businesshours -->
<g id="node1" class="node">
<title>aobh_businesshours</title>
<g id="a_node1"><a xlink:href="../../tables/aobh_businesshours.html" xlink:title="aobh_businesshours" target="_top">
<polygon fill="#ffffff" stroke="transparent" points="273,-43.7 273,-353.7 502,-353.7 502,-43.7 273,-43.7"/>
<polygon fill="#f5f5f5" stroke="transparent" points="275.5,-328.7 275.5,-351.7 500.5,-351.7 500.5,-328.7 275.5,-328.7"/>
<polygon fill="none" stroke="#000000" points="275.5,-328.7 275.5,-351.7 500.5,-351.7 500.5,-328.7 275.5,-328.7"/>
<text text-anchor="start" x="280.5" y="-337.8" font-family="Helvetica,sans-Serif" font-weight="bold" font-size="11.00" fill="#000000">aobh_businesshours</text>
<text text-anchor="start" x="465.5437" y="-336.8" font-family="Helvetica,sans-Serif" font-size="11.00" fill="#000000">[table]</text>
<polygon fill="none" stroke="#000000" points="275.5,-306.7 275.5,-328.7 433.5,-328.7 433.5,-306.7 275.5,-306.7"/>
<image xlink:href="../../images/primaryKeys.png" width="11px" height="12px" preserveAspectRatio="xMinYMin meet" x="280.5" y="-323.7"/>
<text text-anchor="start" x="295.5" y="-313.8" font-family="Helvetica,sans-Serif" font-size="11.00" fill="#000000">id</text>
<polygon fill="none" stroke="#000000" points="433.5,-306.7 433.5,-328.7 500.5,-328.7 500.5,-306.7 433.5,-306.7"/>
<text text-anchor="start" x="436.5" y="-314.4" font-family="Helvetica,sans-Serif" font-size="11.00" fill="#000000">char[36]</text>
<polygon fill="none" stroke="#000000" points="275.5,-284.7 275.5,-306.7 433.5,-306.7 433.5,-284.7 275.5,-284.7"/>
<text text-anchor="start" x="295.5" y="-291.8" font-family="Helvetica,sans-Serif" font-size="11.00" fill="#000000">name</text>
<polygon fill="none" stroke="#000000" points="433.5,-284.7 433.5,-306.7 500.5,-306.7 500.5,-284.7 433.5,-284.7"/>
<text text-anchor="start" x="436.4365" y="-292.4" font-family="Helvetica,sans-Serif" font-size="11.00" fill="#000000">varchar[255]</text>
<polygon fill="none" stroke="#000000" points="275.5,-262.7 275.5,-284.7 433.5,-284.7 433.5,-262.7 275.5,-262.7"/>
<text text-anchor="start" x="295.5" y="-269.8" font-family="Helvetica,sans-Serif" font-size="11.00" fill="#000000">date_entered</text>
<polygon fill="none" stroke="#000000" points="433.5,-262.7 433.5,-284.7 500.5,-284.7 500.5,-262.7 433.5,-262.7"/>
<text text-anchor="start" x="436.5" y="-270.4" font-family="Helvetica,sans-Serif" font-size="11.00" fill="#000000">datetime[26]</text>
<polygon fill="none" stroke="#000000" points="275.5,-240.7 275.5,-262.7 433.5,-262.7 433.5,-240.7 275.5,-240.7"/>
<text text-anchor="start" x="295.5" y="-247.8" font-family="Helvetica,sans-Serif" font-size="11.00" fill="#000000">date_modified</text>
<polygon fill="none" stroke="#000000" points="433.5,-240.7 433.5,-262.7 500.5,-262.7 500.5,-240.7 433.5,-240.7"/>
<text text-anchor="start" x="436.5" y="-248.4" font-family="Helvetica,sans-Serif" font-size="11.00" fill="#000000">datetime[26]</text>
<polygon fill="none" stroke="#000000" points="275.5,-218.7 275.5,-240.7 433.5,-240.7 433.5,-218.7 275.5,-218.7"/>
<image xlink:href="../../images/foreignKeys.png" width="11px" height="12px" preserveAspectRatio="xMinYMin meet" x="280.5" y="-235.7"/>
<text text-anchor="start" x="295.5" y="-225.8" font-family="Helvetica,sans-Serif" font-size="11.00" fill="#000000">modified_user_id</text>
<polygon fill="none" stroke="#000000" points="433.5,-218.7 433.5,-240.7 500.5,-240.7 500.5,-218.7 433.5,-218.7"/>
<text text-anchor="start" x="436.5" y="-226.4" font-family="Helvetica,sans-Serif" font-size="11.00" fill="#000000">char[36]</text>
<polygon fill="none" stroke="#000000" points="275.5,-196.7 275.5,-218.7 433.5,-218.7 433.5,-196.7 275.5,-196.7"/>
<image xlink:href="../../images/foreignKeys.png" width="11px" height="12px" preserveAspectRatio="xMinYMin meet" x="280.5" y="-213.7"/>
<text text-anchor="start" x="295.5" y="-203.8" font-family="Helvetica,sans-Serif" font-size="11.00" fill="#000000">created_by</text>
<polygon fill="none" stroke="#000000" points="433.5,-196.7 433.5,-218.7 500.5,-218.7 500.5,-196.7 433.5,-196.7"/>
<text text-anchor="start" x="436.5" y="-204.4" font-family="Helvetica,sans-Serif" font-size="11.00" fill="#000000">char[36]</text>
<polygon fill="none" stroke="#000000" points="275.5,-174.7 275.5,-196.7 433.5,-196.7 433.5,-174.7 275.5,-174.7"/>
<text text-anchor="start" x="295.5" y="-181.8" font-family="Helvetica,sans-Serif" font-size="11.00" fill="#000000">description</text>
<polygon fill="none" stroke="#000000" points="433.5,-174.7 433.5,-196.7 500.5,-196.7 500.5,-174.7 433.5,-174.7"/>
<text text-anchor="start" x="436.5" y="-182.4" font-family="Helvetica,sans-Serif" font-size="11.00" fill="#000000">text[65535]</text>
<polygon fill="none" stroke="#000000" points="275.5,-152.7 275.5,-174.7 433.5,-174.7 433.5,-152.7 275.5,-152.7"/>
<text text-anchor="start" x="295.5" y="-159.8" font-family="Helvetica,sans-Serif" font-size="11.00" fill="#000000">deleted</text>
<polygon fill="none" stroke="#000000" points="433.5,-152.7 433.5,-174.7 500.5,-174.7 500.5,-152.7 433.5,-152.7"/>
<text text-anchor="start" x="436.5" y="-160.4" font-family="Helvetica,sans-Serif" font-size="11.00" fill="#000000">bit[1]</text>
<polygon fill="none" stroke="#000000" points="275.5,-130.7 275.5,-152.7 433.5,-152.7 433.5,-130.7 275.5,-130.7"/>
<text text-anchor="start" x="295.5" y="-137.8" font-family="Helvetica,sans-Serif" font-size="11.00" fill="#000000">opening_hours</text>
<polygon fill="none" stroke="#000000" points="433.5,-130.7 433.5,-152.7 500.5,-152.7 500.5,-130.7 433.5,-130.7"/>
<text text-anchor="start" x="436.4365" y="-138.4" font-family="Helvetica,sans-Serif" font-size="11.00" fill="#000000">varchar[100]</text>
<polygon fill="none" stroke="#000000" points="275.5,-108.7 275.5,-130.7 433.5,-130.7 433.5,-108.7 275.5,-108.7"/>
<text text-anchor="start" x="295.5" y="-115.8" font-family="Helvetica,sans-Serif" font-size="11.00" fill="#000000">closing_hours</text>
<polygon fill="none" stroke="#000000" points="433.5,-108.7 433.5,-130.7 500.5,-130.7 500.5,-108.7 433.5,-108.7"/>
<text text-anchor="start" x="436.4365" y="-116.4" font-family="Helvetica,sans-Serif" font-size="11.00" fill="#000000">varchar[100]</text>
<polygon fill="none" stroke="#000000" points="275.5,-86.7 275.5,-108.7 433.5,-108.7 433.5,-86.7 275.5,-86.7"/>
<text text-anchor="start" x="295.5" y="-93.8" font-family="Helvetica,sans-Serif" font-size="11.00" fill="#000000">open_status</text>
<polygon fill="none" stroke="#000000" points="433.5,-86.7 433.5,-108.7 500.5,-108.7 500.5,-86.7 433.5,-86.7"/>
<text text-anchor="start" x="436.5" y="-94.4" font-family="Helvetica,sans-Serif" font-size="11.00" fill="#000000">bit[1]</text>
<polygon fill="none" stroke="#000000" points="275.5,-64.7 275.5,-86.7 433.5,-86.7 433.5,-64.7 275.5,-64.7"/>
<text text-anchor="start" x="295.5" y="-71.8" font-family="Helvetica,sans-Serif" font-size="11.00" fill="#000000">day</text>
<polygon fill="none" stroke="#000000" points="433.5,-64.7 433.5,-86.7 500.5,-86.7 500.5,-64.7 433.5,-64.7"/>
<text text-anchor="start" x="436.4365" y="-72.4" font-family="Helvetica,sans-Serif" font-size="11.00" fill="#000000">varchar[100]</text>
<polygon fill="#ffffff" stroke="transparent" points="275.5,-45.7 275.5,-64.7 358.5,-64.7 358.5,-45.7 275.5,-45.7"/>
<polygon fill="none" stroke="#000000" points="275.5,-45.7 275.5,-64.7 358.5,-64.7 358.5,-45.7 275.5,-45.7"/>
<text text-anchor="start" x="278.5" y="-51.8" font-family="Helvetica,sans-Serif" font-size="11.00" fill="#000000">&lt; 2</text>
<polygon fill="#ffffff" stroke="transparent" points="358.5,-45.7 358.5,-64.7 433.5,-64.7 433.5,-45.7 358.5,-45.7"/>
<polygon fill="none" stroke="#000000" points="358.5,-45.7 358.5,-64.7 433.5,-64.7 433.5,-45.7 358.5,-45.7"/>
<text text-anchor="start" x="424.3862" y="-51.8" font-family="Helvetica,sans-Serif" font-size="11.00" fill="#000000"> &#160;</text>
<polygon fill="#ffffff" stroke="transparent" points="433.5,-45.7 433.5,-64.7 500.5,-64.7 500.5,-45.7 433.5,-45.7"/>
<polygon fill="none" stroke="#000000" points="433.5,-45.7 433.5,-64.7 500.5,-64.7 500.5,-45.7 433.5,-45.7"/>
<text text-anchor="start" x="481.9053" y="-51.8" font-family="Helvetica,sans-Serif" font-size="11.00" fill="#000000">0 &gt;</text>
<polygon fill="none" stroke="#000000" stroke-width="2" points="274,-44.7 274,-352.7 501,-352.7 501,-44.7 274,-44.7"/>
</a>
</g>
</g>
<!-- users -->
<g id="node2" class="node">
<title>users</title>
<g id="a_node2"><a xlink:href="../../tables/users.html" xlink:title="users" target="_top">
<polygon fill="#ffffff" stroke="transparent" points="8,-38.2 8,-253.2 224,-253.2 224,-38.2 8,-38.2"/>
<polygon fill="#f5f5f5" stroke="transparent" points="8,-229.7 8,-252.7 224,-252.7 224,-229.7 8,-229.7"/>
<polygon fill="none" stroke="#000000" points="8,-229.7 8,-252.7 224,-252.7 224,-229.7 8,-229.7"/>
<text text-anchor="start" x="13" y="-238.8" font-family="Helvetica,sans-Serif" font-weight="bold" font-size="11.00" fill="#000000">users</text>
<text text-anchor="start" x="189.0437" y="-237.8" font-family="Helvetica,sans-Serif" font-size="11.00" fill="#000000">[table]</text>
<polygon fill="none" stroke="#000000" points="8,-207.7 8,-229.7 224,-229.7 224,-207.7 8,-207.7"/>
<image xlink:href="../../images/primaryKeys.png" width="11px" height="12px" preserveAspectRatio="xMinYMin meet" x="13" y="-224.7"/>
<text text-anchor="start" x="28" y="-214.8" font-family="Helvetica,sans-Serif" font-size="11.00" fill="#000000">id</text>
<polygon fill="#ffffff" stroke="transparent" points="8,-185.7 8,-207.7 224,-207.7 224,-185.7 8,-185.7"/>
<polygon fill="none" stroke="#000000" points="8,-185.7 8,-207.7 224,-207.7 224,-185.7 8,-185.7"/>
<text text-anchor="start" x="28" y="-192.8" font-family="Helvetica,sans-Serif" font-size="11.00" fill="#000000">user_name</text>
<polygon fill="#ffffff" stroke="transparent" points="8,-163.7 8,-185.7 224,-185.7 224,-163.7 8,-163.7"/>
<polygon fill="none" stroke="#000000" points="8,-163.7 8,-185.7 224,-185.7 224,-163.7 8,-163.7"/>
<text text-anchor="start" x="28" y="-170.8" font-family="Helvetica,sans-Serif" font-size="11.00" fill="#000000">first_name</text>
<polygon fill="#ffffff" stroke="transparent" points="8,-141.7 8,-163.7 224,-163.7 224,-141.7 8,-141.7"/>
<polygon fill="none" stroke="#000000" points="8,-141.7 8,-163.7 224,-163.7 224,-141.7 8,-141.7"/>
<text text-anchor="start" x="28" y="-148.8" font-family="Helvetica,sans-Serif" font-size="11.00" fill="#000000">last_name</text>
<polygon fill="#ffffff" stroke="transparent" points="8,-119.7 8,-141.7 224,-141.7 224,-119.7 8,-119.7"/>
<polygon fill="none" stroke="#000000" points="8,-119.7 8,-141.7 224,-141.7 224,-119.7 8,-119.7"/>
<text text-anchor="start" x="28" y="-126.8" font-family="Helvetica,sans-Serif" font-size="11.00" fill="#000000">status</text>
<polygon fill="#c0c0c0" stroke="transparent" points="8,-97.7 8,-119.7 224,-119.7 224,-97.7 8,-97.7"/>
<polygon fill="none" stroke="#000000" points="8,-97.7 8,-119.7 224,-119.7 224,-97.7 8,-97.7"/>
<image xlink:href="../../images/foreignKeys.png" width="11px" height="12px" preserveAspectRatio="xMinYMin meet" x="13" y="-114.7"/>
<text text-anchor="start" x="28" y="-104.8" font-family="Helvetica,sans-Serif" font-size="11.00" fill="#000000">reports_to_id</text>
<polygon fill="#ffffff" stroke="transparent" points="8,-75.7 8,-97.7 224,-97.7 224,-75.7 8,-75.7"/>
<polygon fill="none" stroke="#000000" points="8,-75.7 8,-97.7 224,-97.7 224,-75.7 8,-75.7"/>
<text text-anchor="start" x="28" y="-82.8" font-family="Helvetica,sans-Serif" font-size="11.00" fill="#000000">is_group</text>
<polygon fill="none" stroke="#000000" points="8,-56.7 8,-75.7 224,-75.7 224,-56.7 8,-56.7"/>
<text text-anchor="start" x="11" y="-62.8" font-family="Helvetica,sans-Serif" font-size="11.00" fill="#000000">...</text>
<polygon fill="#ffffff" stroke="transparent" points="8,-37.7 8,-56.7 104,-56.7 104,-37.7 8,-37.7"/>
<polygon fill="none" stroke="#000000" points="8,-37.7 8,-56.7 104,-56.7 104,-37.7 8,-37.7"/>
<text text-anchor="start" x="11" y="-43.8" font-family="Helvetica,sans-Serif" font-size="11.00" fill="#000000">&lt; 2</text>
<polygon fill="#ffffff" stroke="transparent" points="104,-37.7 104,-56.7 153,-56.7 153,-37.7 104,-37.7"/>
<polygon fill="none" stroke="#000000" points="104,-37.7 104,-56.7 153,-56.7 153,-37.7 104,-37.7"/>
<text text-anchor="start" x="143.8862" y="-43.8" font-family="Helvetica,sans-Serif" font-size="11.00" fill="#000000"> &#160;</text>
<polygon fill="#ffffff" stroke="transparent" points="153,-37.7 153,-56.7 224,-56.7 224,-37.7 153,-37.7"/>
<polygon fill="none" stroke="#000000" points="153,-37.7 153,-56.7 224,-56.7 224,-37.7 153,-37.7"/>
<text text-anchor="start" x="193.1755" y="-43.8" font-family="Helvetica,sans-Serif" font-size="11.00" fill="#000000">214 &gt;</text>
</a>
</g>
</g>
<!-- aobh_businesshours&#45;&gt;users -->
<g id="edge1" class="edge">
<title>aobh_businesshours:w&#45;&gt;users:e</title>
<path fill="none" stroke="#000000" d="M260.8704,-209.4188C248.5803,-212.5125 241.5539,-218.7 224,-218.7"/>
<polygon fill="#000000" stroke="#000000" points="267.5546,-208.6335 275.9201,-211.2754 271.5273,-208.1668 275.5,-207.7 275.5,-207.7 275.5,-207.7 271.5273,-208.1668 275.0799,-204.1246 267.5546,-208.6335 267.5546,-208.6335"/>
<ellipse fill="none" stroke="#000000" cx="264.3765" cy="-209.0069" rx="3.2" ry="3.2"/>
</g>
<!-- aobh_businesshours&#45;&gt;users -->
<g id="edge2" class="edge">
<title>aobh_businesshours:w&#45;&gt;users:e</title>
<path fill="none" stroke="#000000" d="M260.8704,-227.9813C248.5803,-224.8875 241.5539,-218.7 224,-218.7"/>
<polygon fill="#000000" stroke="#000000" points="267.5546,-228.7665 275.0799,-233.2754 271.5273,-229.2332 275.5,-229.7 275.5,-229.7 275.5,-229.7 271.5273,-229.2332 275.9201,-226.1246 267.5546,-228.7665 267.5546,-228.7665"/>
<ellipse fill="none" stroke="#000000" cx="264.3765" cy="-228.3931" rx="3.2" ry="3.2"/>
</g>
</g>
</svg>
