<?xml version="1.0" encoding="UTF-8" standalone="no"?>
<!DOCTYPE svg PUBLIC "-//W3C//DTD SVG 1.1//EN"
 "http://www.w3.org/Graphics/SVG/1.1/DTD/svg11.dtd">
<!-- Generated by graphviz version 2.40.1 (20161225.0304)
 -->
<!-- Title: oneDegreeRelationshipsDiagram Pages: 1 -->
<svg width="698pt" height="397pt"
 viewBox="0.00 0.00 698.00 397.20" xmlns="http://www.w3.org/2000/svg" xmlns:xlink="http://www.w3.org/1999/xlink">
<g id="graph0" class="graph" transform="scale(1 1) rotate(0) translate(4 393.2)">
<title>oneDegreeRelationshipsDiagram</title>
<polygon fill="#ffffff" stroke="transparent" points="-4,4 -4,-393.2 694,-393.2 694,4 -4,4"/>
<text text-anchor="middle" x="72.4936" y="-7.3" font-family="Helvetica,sans-Serif" font-size="11.00" fill="#000000">Generated by SchemaSpy</text>
<!-- aod_index -->
<g id="node1" class="node">
<title>aod_index</title>
<g id="a_node1"><a xlink:href="../../tables/aod_index.html" xlink:title="aod_index" target="_top">
<polygon fill="#ffffff" stroke="transparent" points="273,-76.7 273,-364.7 479,-364.7 479,-76.7 273,-76.7"/>
<polygon fill="#f5f5f5" stroke="transparent" points="275,-339.7 275,-362.7 477,-362.7 477,-339.7 275,-339.7"/>
<polygon fill="none" stroke="#000000" points="275,-339.7 275,-362.7 477,-362.7 477,-339.7 275,-339.7"/>
<text text-anchor="start" x="280" y="-348.8" font-family="Helvetica,sans-Serif" font-weight="bold" font-size="11.00" fill="#000000">aod_index</text>
<text text-anchor="start" x="442.0437" y="-347.8" font-family="Helvetica,sans-Serif" font-size="11.00" fill="#000000">[table]</text>
<polygon fill="none" stroke="#000000" points="275,-317.7 275,-339.7 410,-339.7 410,-317.7 275,-317.7"/>
<image xlink:href="../../images/primaryKeys.png" width="11px" height="12px" preserveAspectRatio="xMinYMin meet" x="280" y="-334.7"/>
<text text-anchor="start" x="295" y="-324.8" font-family="Helvetica,sans-Serif" font-size="11.00" fill="#000000">id</text>
<polygon fill="none" stroke="#000000" points="410,-317.7 410,-339.7 477,-339.7 477,-317.7 410,-317.7"/>
<text text-anchor="start" x="413" y="-325.4" font-family="Helvetica,sans-Serif" font-size="11.00" fill="#000000">char[36]</text>
<polygon fill="none" stroke="#000000" points="275,-295.7 275,-317.7 410,-317.7 410,-295.7 275,-295.7"/>
<text text-anchor="start" x="295" y="-302.8" font-family="Helvetica,sans-Serif" font-size="11.00" fill="#000000">name</text>
<polygon fill="none" stroke="#000000" points="410,-295.7 410,-317.7 477,-317.7 477,-295.7 410,-295.7"/>
<text text-anchor="start" x="412.9365" y="-303.4" font-family="Helvetica,sans-Serif" font-size="11.00" fill="#000000">varchar[255]</text>
<polygon fill="none" stroke="#000000" points="275,-273.7 275,-295.7 410,-295.7 410,-273.7 275,-273.7"/>
<text text-anchor="start" x="295" y="-280.8" font-family="Helvetica,sans-Serif" font-size="11.00" fill="#000000">date_entered</text>
<polygon fill="none" stroke="#000000" points="410,-273.7 410,-295.7 477,-295.7 477,-273.7 410,-273.7"/>
<text text-anchor="start" x="413" y="-281.4" font-family="Helvetica,sans-Serif" font-size="11.00" fill="#000000">datetime[26]</text>
<polygon fill="none" stroke="#000000" points="275,-251.7 275,-273.7 410,-273.7 410,-251.7 275,-251.7"/>
<text text-anchor="start" x="295" y="-258.8" font-family="Helvetica,sans-Serif" font-size="11.00" fill="#000000">date_modified</text>
<polygon fill="none" stroke="#000000" points="410,-251.7 410,-273.7 477,-273.7 477,-251.7 410,-251.7"/>
<text text-anchor="start" x="413" y="-259.4" font-family="Helvetica,sans-Serif" font-size="11.00" fill="#000000">datetime[26]</text>
<polygon fill="none" stroke="#000000" points="275,-229.7 275,-251.7 410,-251.7 410,-229.7 275,-229.7"/>
<image xlink:href="../../images/foreignKeys.png" width="11px" height="12px" preserveAspectRatio="xMinYMin meet" x="280" y="-246.7"/>
<text text-anchor="start" x="295" y="-236.8" font-family="Helvetica,sans-Serif" font-size="11.00" fill="#000000">modified_user_id</text>
<polygon fill="none" stroke="#000000" points="410,-229.7 410,-251.7 477,-251.7 477,-229.7 410,-229.7"/>
<text text-anchor="start" x="413" y="-237.4" font-family="Helvetica,sans-Serif" font-size="11.00" fill="#000000">char[36]</text>
<polygon fill="none" stroke="#000000" points="275,-207.7 275,-229.7 410,-229.7 410,-207.7 275,-207.7"/>
<image xlink:href="../../images/foreignKeys.png" width="11px" height="12px" preserveAspectRatio="xMinYMin meet" x="280" y="-224.7"/>
<text text-anchor="start" x="295" y="-214.8" font-family="Helvetica,sans-Serif" font-size="11.00" fill="#000000">created_by</text>
<polygon fill="none" stroke="#000000" points="410,-207.7 410,-229.7 477,-229.7 477,-207.7 410,-207.7"/>
<text text-anchor="start" x="413" y="-215.4" font-family="Helvetica,sans-Serif" font-size="11.00" fill="#000000">char[36]</text>
<polygon fill="none" stroke="#000000" points="275,-185.7 275,-207.7 410,-207.7 410,-185.7 275,-185.7"/>
<text text-anchor="start" x="295" y="-192.8" font-family="Helvetica,sans-Serif" font-size="11.00" fill="#000000">description</text>
<polygon fill="none" stroke="#000000" points="410,-185.7 410,-207.7 477,-207.7 477,-185.7 410,-185.7"/>
<text text-anchor="start" x="413" y="-193.4" font-family="Helvetica,sans-Serif" font-size="11.00" fill="#000000">text[65535]</text>
<polygon fill="none" stroke="#000000" points="275,-163.7 275,-185.7 410,-185.7 410,-163.7 275,-163.7"/>
<text text-anchor="start" x="295" y="-170.8" font-family="Helvetica,sans-Serif" font-size="11.00" fill="#000000">deleted</text>
<polygon fill="none" stroke="#000000" points="410,-163.7 410,-185.7 477,-185.7 477,-163.7 410,-163.7"/>
<text text-anchor="start" x="413" y="-171.4" font-family="Helvetica,sans-Serif" font-size="11.00" fill="#000000">bit[1]</text>
<polygon fill="none" stroke="#000000" points="275,-141.7 275,-163.7 410,-163.7 410,-141.7 275,-141.7"/>
<image xlink:href="../../images/foreignKeys.png" width="11px" height="12px" preserveAspectRatio="xMinYMin meet" x="280" y="-158.7"/>
<text text-anchor="start" x="295" y="-148.8" font-family="Helvetica,sans-Serif" font-size="11.00" fill="#000000">assigned_user_id</text>
<polygon fill="none" stroke="#000000" points="410,-141.7 410,-163.7 477,-163.7 477,-141.7 410,-141.7"/>
<text text-anchor="start" x="413" y="-149.4" font-family="Helvetica,sans-Serif" font-size="11.00" fill="#000000">char[36]</text>
<polygon fill="none" stroke="#000000" points="275,-119.7 275,-141.7 410,-141.7 410,-119.7 275,-119.7"/>
<text text-anchor="start" x="295" y="-126.8" font-family="Helvetica,sans-Serif" font-size="11.00" fill="#000000">last_optimised</text>
<polygon fill="none" stroke="#000000" points="410,-119.7 410,-141.7 477,-141.7 477,-119.7 410,-119.7"/>
<text text-anchor="start" x="413" y="-127.4" font-family="Helvetica,sans-Serif" font-size="11.00" fill="#000000">datetime[26]</text>
<polygon fill="none" stroke="#000000" points="275,-97.7 275,-119.7 410,-119.7 410,-97.7 275,-97.7"/>
<text text-anchor="start" x="295" y="-104.8" font-family="Helvetica,sans-Serif" font-size="11.00" fill="#000000">location</text>
<polygon fill="none" stroke="#000000" points="410,-97.7 410,-119.7 477,-119.7 477,-97.7 410,-97.7"/>
<text text-anchor="start" x="412.9365" y="-105.4" font-family="Helvetica,sans-Serif" font-size="11.00" fill="#000000">varchar[255]</text>
<polygon fill="#ffffff" stroke="transparent" points="275,-78.7 275,-97.7 347,-97.7 347,-78.7 275,-78.7"/>
<polygon fill="none" stroke="#000000" points="275,-78.7 275,-97.7 347,-97.7 347,-78.7 275,-78.7"/>
<text text-anchor="start" x="278" y="-84.8" font-family="Helvetica,sans-Serif" font-size="11.00" fill="#000000">&lt; 3</text>
<polygon fill="#ffffff" stroke="transparent" points="347,-78.7 347,-97.7 410,-97.7 410,-78.7 347,-78.7"/>
<polygon fill="none" stroke="#000000" points="347,-78.7 347,-97.7 410,-97.7 410,-78.7 347,-78.7"/>
<text text-anchor="start" x="400.8862" y="-84.8" font-family="Helvetica,sans-Serif" font-size="11.00" fill="#000000"> &#160;</text>
<polygon fill="#ffffff" stroke="transparent" points="410,-78.7 410,-97.7 477,-97.7 477,-78.7 410,-78.7"/>
<polygon fill="none" stroke="#000000" points="410,-78.7 410,-97.7 477,-97.7 477,-78.7 410,-78.7"/>
<text text-anchor="start" x="458.4053" y="-84.8" font-family="Helvetica,sans-Serif" font-size="11.00" fill="#000000">1 &gt;</text>
<polygon fill="none" stroke="#000000" stroke-width="2" points="274,-77.7 274,-363.7 478,-363.7 478,-77.7 274,-77.7"/>
</a>
</g>
</g>
<!-- users -->
<g id="node2" class="node">
<title>users</title>
<g id="a_node2"><a xlink:href="../../tables/users.html" xlink:title="users" target="_top">
<polygon fill="#ffffff" stroke="transparent" points="8,-38.2 8,-253.2 224,-253.2 224,-38.2 8,-38.2"/>
<polygon fill="#f5f5f5" stroke="transparent" points="8,-229.7 8,-252.7 224,-252.7 224,-229.7 8,-229.7"/>
<polygon fill="none" stroke="#000000" points="8,-229.7 8,-252.7 224,-252.7 224,-229.7 8,-229.7"/>
<text text-anchor="start" x="13" y="-238.8" font-family="Helvetica,sans-Serif" font-weight="bold" font-size="11.00" fill="#000000">users</text>
<text text-anchor="start" x="189.0437" y="-237.8" font-family="Helvetica,sans-Serif" font-size="11.00" fill="#000000">[table]</text>
<polygon fill="none" stroke="#000000" points="8,-207.7 8,-229.7 224,-229.7 224,-207.7 8,-207.7"/>
<image xlink:href="../../images/primaryKeys.png" width="11px" height="12px" preserveAspectRatio="xMinYMin meet" x="13" y="-224.7"/>
<text text-anchor="start" x="28" y="-214.8" font-family="Helvetica,sans-Serif" font-size="11.00" fill="#000000">id</text>
<polygon fill="#ffffff" stroke="transparent" points="8,-185.7 8,-207.7 224,-207.7 224,-185.7 8,-185.7"/>
<polygon fill="none" stroke="#000000" points="8,-185.7 8,-207.7 224,-207.7 224,-185.7 8,-185.7"/>
<text text-anchor="start" x="28" y="-192.8" font-family="Helvetica,sans-Serif" font-size="11.00" fill="#000000">user_name</text>
<polygon fill="#ffffff" stroke="transparent" points="8,-163.7 8,-185.7 224,-185.7 224,-163.7 8,-163.7"/>
<polygon fill="none" stroke="#000000" points="8,-163.7 8,-185.7 224,-185.7 224,-163.7 8,-163.7"/>
<text text-anchor="start" x="28" y="-170.8" font-family="Helvetica,sans-Serif" font-size="11.00" fill="#000000">first_name</text>
<polygon fill="#ffffff" stroke="transparent" points="8,-141.7 8,-163.7 224,-163.7 224,-141.7 8,-141.7"/>
<polygon fill="none" stroke="#000000" points="8,-141.7 8,-163.7 224,-163.7 224,-141.7 8,-141.7"/>
<text text-anchor="start" x="28" y="-148.8" font-family="Helvetica,sans-Serif" font-size="11.00" fill="#000000">last_name</text>
<polygon fill="#ffffff" stroke="transparent" points="8,-119.7 8,-141.7 224,-141.7 224,-119.7 8,-119.7"/>
<polygon fill="none" stroke="#000000" points="8,-119.7 8,-141.7 224,-141.7 224,-119.7 8,-119.7"/>
<text text-anchor="start" x="28" y="-126.8" font-family="Helvetica,sans-Serif" font-size="11.00" fill="#000000">status</text>
<polygon fill="#c0c0c0" stroke="transparent" points="8,-97.7 8,-119.7 224,-119.7 224,-97.7 8,-97.7"/>
<polygon fill="none" stroke="#000000" points="8,-97.7 8,-119.7 224,-119.7 224,-97.7 8,-97.7"/>
<image xlink:href="../../images/foreignKeys.png" width="11px" height="12px" preserveAspectRatio="xMinYMin meet" x="13" y="-114.7"/>
<text text-anchor="start" x="28" y="-104.8" font-family="Helvetica,sans-Serif" font-size="11.00" fill="#000000">reports_to_id</text>
<polygon fill="#ffffff" stroke="transparent" points="8,-75.7 8,-97.7 224,-97.7 224,-75.7 8,-75.7"/>
<polygon fill="none" stroke="#000000" points="8,-75.7 8,-97.7 224,-97.7 224,-75.7 8,-75.7"/>
<text text-anchor="start" x="28" y="-82.8" font-family="Helvetica,sans-Serif" font-size="11.00" fill="#000000">is_group</text>
<polygon fill="none" stroke="#000000" points="8,-56.7 8,-75.7 224,-75.7 224,-56.7 8,-56.7"/>
<text text-anchor="start" x="11" y="-62.8" font-family="Helvetica,sans-Serif" font-size="11.00" fill="#000000">...</text>
<polygon fill="#ffffff" stroke="transparent" points="8,-37.7 8,-56.7 104,-56.7 104,-37.7 8,-37.7"/>
<polygon fill="none" stroke="#000000" points="8,-37.7 8,-56.7 104,-56.7 104,-37.7 8,-37.7"/>
<text text-anchor="start" x="11" y="-43.8" font-family="Helvetica,sans-Serif" font-size="11.00" fill="#000000">&lt; 2</text>
<polygon fill="#ffffff" stroke="transparent" points="104,-37.7 104,-56.7 153,-56.7 153,-37.7 104,-37.7"/>
<polygon fill="none" stroke="#000000" points="104,-37.7 104,-56.7 153,-56.7 153,-37.7 104,-37.7"/>
<text text-anchor="start" x="143.8862" y="-43.8" font-family="Helvetica,sans-Serif" font-size="11.00" fill="#000000"> &#160;</text>
<polygon fill="#ffffff" stroke="transparent" points="153,-37.7 153,-56.7 224,-56.7 224,-37.7 153,-37.7"/>
<polygon fill="none" stroke="#000000" points="153,-37.7 153,-56.7 224,-56.7 224,-37.7 153,-37.7"/>
<text text-anchor="start" x="193.1755" y="-43.8" font-family="Helvetica,sans-Serif" font-size="11.00" fill="#000000">214 &gt;</text>
</a>
</g>
</g>
<!-- aod_index&#45;&gt;users -->
<g id="edge1" class="edge">
<title>aod_index:w&#45;&gt;users:e</title>
<path fill="none" stroke="#000000" d="M261.0846,-157.4466C243.902,-172.5798 254.9886,-218.7 224,-218.7"/>
<polygon fill="#000000" stroke="#000000" points="267.4284,-155.2827 276.1622,-156.1072 271.2142,-153.9914 275,-152.7 275,-152.7 275,-152.7 271.2142,-153.9914 273.8378,-149.2928 267.4284,-155.2827 267.4284,-155.2827"/>
<ellipse fill="none" stroke="#000000" cx="264.3997" cy="-156.3158" rx="3.2" ry="3.2"/>
</g>
<!-- aod_index&#45;&gt;users -->
<g id="edge2" class="edge">
<title>aod_index:w&#45;&gt;users:e</title>
<path fill="none" stroke="#000000" d="M260.276,-218.7C248.2815,-218.7 240.8229,-218.7 224,-218.7"/>
<polygon fill="#000000" stroke="#000000" points="267,-218.7001 275,-222.3 271,-218.7 275,-218.7 275,-218.7 275,-218.7 271,-218.7 275,-215.1 267,-218.7001 267,-218.7001"/>
<ellipse fill="none" stroke="#000000" cx="263.8" cy="-218.7001" rx="3.2" ry="3.2"/>
</g>
<!-- aod_index&#45;&gt;users -->
<g id="edge3" class="edge">
<title>aod_index:w&#45;&gt;users:e</title>
<path fill="none" stroke="#000000" d="M260.8489,-237.641C248.2843,-231.596 242.9,-218.7 224,-218.7"/>
<polygon fill="#000000" stroke="#000000" points="267.1806,-239.0097 274.2393,-244.2187 271.0903,-239.8548 275,-240.7 275,-240.7 275,-240.7 271.0903,-239.8548 275.7607,-237.1813 267.1806,-239.0097 267.1806,-239.0097"/>
<ellipse fill="none" stroke="#000000" cx="264.0528" cy="-238.3335" rx="3.2" ry="3.2"/>
</g>
<!-- aod_index_audit -->
<g id="node3" class="node">
<title>aod_index_audit</title>
<g id="a_node3"><a xlink:href="../../tables/aod_index_audit.html" xlink:title="aod_index_audit" target="_top">
<polygon fill="#ffffff" stroke="transparent" points="528,-280.2 528,-385.2 682,-385.2 682,-280.2 528,-280.2"/>
<polygon fill="#f5f5f5" stroke="transparent" points="528,-361.7 528,-384.7 682,-384.7 682,-361.7 528,-361.7"/>
<polygon fill="none" stroke="#000000" points="528,-361.7 528,-384.7 682,-384.7 682,-361.7 528,-361.7"/>
<text text-anchor="start" x="533" y="-370.8" font-family="Helvetica,sans-Serif" font-weight="bold" font-size="11.00" fill="#000000">aod_index_audit</text>
<text text-anchor="start" x="647.0437" y="-369.8" font-family="Helvetica,sans-Serif" font-size="11.00" fill="#000000">[table]</text>
<polygon fill="none" stroke="#000000" points="528,-339.7 528,-361.7 682,-361.7 682,-339.7 528,-339.7"/>
<image xlink:href="../../images/primaryKeys.png" width="11px" height="12px" preserveAspectRatio="xMinYMin meet" x="533" y="-356.7"/>
<text text-anchor="start" x="548" y="-346.8" font-family="Helvetica,sans-Serif" font-size="11.00" fill="#000000">id</text>
<polygon fill="#c0c0c0" stroke="transparent" points="528,-317.7 528,-339.7 682,-339.7 682,-317.7 528,-317.7"/>
<polygon fill="none" stroke="#000000" points="528,-317.7 528,-339.7 682,-339.7 682,-317.7 528,-317.7"/>
<image xlink:href="../../images/foreignKeys.png" width="11px" height="12px" preserveAspectRatio="xMinYMin meet" x="533" y="-334.7"/>
<text text-anchor="start" x="548" y="-324.8" font-family="Helvetica,sans-Serif" font-size="11.00" fill="#000000">parent_id</text>
<polygon fill="none" stroke="#000000" points="528,-298.7 528,-317.7 682,-317.7 682,-298.7 528,-298.7"/>
<text text-anchor="start" x="531" y="-304.8" font-family="Helvetica,sans-Serif" font-size="11.00" fill="#000000">...</text>
<polygon fill="#ffffff" stroke="transparent" points="528,-279.7 528,-298.7 603,-298.7 603,-279.7 528,-279.7"/>
<polygon fill="none" stroke="#000000" points="528,-279.7 528,-298.7 603,-298.7 603,-279.7 528,-279.7"/>
<text text-anchor="start" x="531" y="-285.8" font-family="Helvetica,sans-Serif" font-size="11.00" fill="#000000">&lt; 1</text>
<polygon fill="#ffffff" stroke="transparent" points="603,-279.7 603,-298.7 642,-298.7 642,-279.7 603,-279.7"/>
<polygon fill="none" stroke="#000000" points="603,-279.7 603,-298.7 642,-298.7 642,-279.7 603,-279.7"/>
<text text-anchor="start" x="632.8862" y="-285.8" font-family="Helvetica,sans-Serif" font-size="11.00" fill="#000000"> &#160;</text>
<polygon fill="#ffffff" stroke="transparent" points="642,-279.7 642,-298.7 682,-298.7 682,-279.7 642,-279.7"/>
<polygon fill="none" stroke="#000000" points="642,-279.7 642,-298.7 682,-298.7 682,-279.7 642,-279.7"/>
<text text-anchor="start" x="672.8862" y="-285.8" font-family="Helvetica,sans-Serif" font-size="11.00" fill="#000000"> &#160;</text>
</a>
</g>
</g>
<!-- aod_index_audit&#45;&gt;aod_index -->
<g id="edge4" class="edge">
<title>aod_index_audit:w&#45;&gt;aod_index:e</title>
<path fill="none" stroke="#000000" d="M513.276,-328.7C501.2815,-328.7 493.8229,-328.7 477,-328.7"/>
<polygon fill="#000000" stroke="#000000" points="520,-328.7001 528,-332.3 524,-328.7 528,-328.7 528,-328.7 528,-328.7 524,-328.7 528,-325.1 520,-328.7001 520,-328.7001"/>
<ellipse fill="none" stroke="#000000" cx="516.8" cy="-328.7001" rx="3.2" ry="3.2"/>
</g>
</g>
</svg>
