<?xml version="1.0" encoding="UTF-8" standalone="no"?>
<!DOCTYPE svg PUBLIC "-//W3C//DTD SVG 1.1//EN"
 "http://www.w3.org/Graphics/SVG/1.1/DTD/svg11.dtd">
<!-- Generated by graphviz version 2.40.1 (20161225.0304)
 -->
<!-- Title: oneDegreeRelationshipsDiagram Pages: 1 -->
<svg width="497pt" height="316pt"
 viewBox="0.00 0.00 497.00 316.20" xmlns="http://www.w3.org/2000/svg" xmlns:xlink="http://www.w3.org/1999/xlink">
<g id="graph0" class="graph" transform="scale(1 1) rotate(0) translate(4 312.2)">
<title>oneDegreeRelationshipsDiagram</title>
<polygon fill="#ffffff" stroke="transparent" points="-4,4 -4,-312.2 493,-312.2 493,4 -4,4"/>
<text text-anchor="middle" x="72.4936" y="-7.3" font-family="Helvetica,sans-Serif" font-size="11.00" fill="#000000">Generated by SchemaSpy</text>
<!-- aok_knowledgebase_audit -->
<g id="node1" class="node">
<title>aok_knowledgebase_audit</title>
<g id="a_node1"><a xlink:href="../../tables/aok_knowledgebase_audit.html" xlink:title="aok_knowledgebase_audit" target="_top">
<polygon fill="#ffffff" stroke="transparent" points="213,-38.2 213,-304.2 481,-304.2 481,-38.2 213,-38.2"/>
<polygon fill="#f5f5f5" stroke="transparent" points="215,-279.2 215,-302.2 479,-302.2 479,-279.2 215,-279.2"/>
<polygon fill="none" stroke="#000000" points="215,-279.2 215,-302.2 479,-302.2 479,-279.2 215,-279.2"/>
<text text-anchor="start" x="220" y="-288.3" font-family="Helvetica,sans-Serif" font-weight="bold" font-size="11.00" fill="#000000">aok_knowledgebase_audit</text>
<text text-anchor="start" x="444.0437" y="-287.3" font-family="Helvetica,sans-Serif" font-size="11.00" fill="#000000">[table]</text>
<polygon fill="none" stroke="#000000" points="215,-257.2 215,-279.2 412,-279.2 412,-257.2 215,-257.2"/>
<image xlink:href="../../images/primaryKeys.png" width="11px" height="12px" preserveAspectRatio="xMinYMin meet" x="220" y="-274.2"/>
<text text-anchor="start" x="235" y="-264.3" font-family="Helvetica,sans-Serif" font-size="11.00" fill="#000000">id</text>
<polygon fill="none" stroke="#000000" points="412,-257.2 412,-279.2 479,-279.2 479,-257.2 412,-257.2"/>
<text text-anchor="start" x="415" y="-264.9" font-family="Helvetica,sans-Serif" font-size="11.00" fill="#000000">char[36]</text>
<polygon fill="#ffffff" stroke="transparent" points="215,-235.2 215,-257.2 412,-257.2 412,-235.2 215,-235.2"/>
<polygon fill="none" stroke="#000000" points="215,-235.2 215,-257.2 412,-257.2 412,-235.2 215,-235.2"/>
<image xlink:href="../../images/foreignKeys.png" width="11px" height="12px" preserveAspectRatio="xMinYMin meet" x="220" y="-252.2"/>
<text text-anchor="start" x="235" y="-242.3" font-family="Helvetica,sans-Serif" font-size="11.00" fill="#000000">parent_id</text>
<polygon fill="none" stroke="#000000" points="412,-235.2 412,-257.2 479,-257.2 479,-235.2 412,-235.2"/>
<text text-anchor="start" x="415" y="-242.9" font-family="Helvetica,sans-Serif" font-size="11.00" fill="#000000">char[36]</text>
<polygon fill="none" stroke="#000000" points="215,-213.2 215,-235.2 412,-235.2 412,-213.2 215,-213.2"/>
<text text-anchor="start" x="235" y="-220.3" font-family="Helvetica,sans-Serif" font-size="11.00" fill="#000000">date_created</text>
<polygon fill="none" stroke="#000000" points="412,-213.2 412,-235.2 479,-235.2 479,-213.2 412,-213.2"/>
<text text-anchor="start" x="415" y="-220.9" font-family="Helvetica,sans-Serif" font-size="11.00" fill="#000000">datetime[26]</text>
<polygon fill="none" stroke="#000000" points="215,-191.2 215,-213.2 412,-213.2 412,-191.2 215,-191.2"/>
<text text-anchor="start" x="235" y="-198.3" font-family="Helvetica,sans-Serif" font-size="11.00" fill="#000000">created_by</text>
<polygon fill="none" stroke="#000000" points="412,-191.2 412,-213.2 479,-213.2 479,-191.2 412,-191.2"/>
<text text-anchor="start" x="415" y="-198.9" font-family="Helvetica,sans-Serif" font-size="11.00" fill="#000000">varchar[36]</text>
<polygon fill="none" stroke="#000000" points="215,-169.2 215,-191.2 412,-191.2 412,-169.2 215,-169.2"/>
<text text-anchor="start" x="235" y="-176.3" font-family="Helvetica,sans-Serif" font-size="11.00" fill="#000000">field_name</text>
<polygon fill="none" stroke="#000000" points="412,-169.2 412,-191.2 479,-191.2 479,-169.2 412,-169.2"/>
<text text-anchor="start" x="414.9365" y="-176.9" font-family="Helvetica,sans-Serif" font-size="11.00" fill="#000000">varchar[100]</text>
<polygon fill="none" stroke="#000000" points="215,-147.2 215,-169.2 412,-169.2 412,-147.2 215,-147.2"/>
<text text-anchor="start" x="235" y="-154.3" font-family="Helvetica,sans-Serif" font-size="11.00" fill="#000000">data_type</text>
<polygon fill="none" stroke="#000000" points="412,-147.2 412,-169.2 479,-169.2 479,-147.2 412,-147.2"/>
<text text-anchor="start" x="414.9365" y="-154.9" font-family="Helvetica,sans-Serif" font-size="11.00" fill="#000000">varchar[100]</text>
<polygon fill="none" stroke="#000000" points="215,-125.2 215,-147.2 412,-147.2 412,-125.2 215,-125.2"/>
<text text-anchor="start" x="235" y="-132.3" font-family="Helvetica,sans-Serif" font-size="11.00" fill="#000000">before_value_string</text>
<polygon fill="none" stroke="#000000" points="412,-125.2 412,-147.2 479,-147.2 479,-125.2 412,-125.2"/>
<text text-anchor="start" x="414.9365" y="-132.9" font-family="Helvetica,sans-Serif" font-size="11.00" fill="#000000">varchar[255]</text>
<polygon fill="none" stroke="#000000" points="215,-103.2 215,-125.2 412,-125.2 412,-103.2 215,-103.2"/>
<text text-anchor="start" x="235" y="-110.3" font-family="Helvetica,sans-Serif" font-size="11.00" fill="#000000">after_value_string</text>
<polygon fill="none" stroke="#000000" points="412,-103.2 412,-125.2 479,-125.2 479,-103.2 412,-103.2"/>
<text text-anchor="start" x="414.9365" y="-110.9" font-family="Helvetica,sans-Serif" font-size="11.00" fill="#000000">varchar[255]</text>
<polygon fill="none" stroke="#000000" points="215,-81.2 215,-103.2 412,-103.2 412,-81.2 215,-81.2"/>
<text text-anchor="start" x="235" y="-88.3" font-family="Helvetica,sans-Serif" font-size="11.00" fill="#000000">before_value_text</text>
<polygon fill="none" stroke="#000000" points="412,-81.2 412,-103.2 479,-103.2 479,-81.2 412,-81.2"/>
<text text-anchor="start" x="415" y="-88.9" font-family="Helvetica,sans-Serif" font-size="11.00" fill="#000000">text[65535]</text>
<polygon fill="none" stroke="#000000" points="215,-59.2 215,-81.2 412,-81.2 412,-59.2 215,-59.2"/>
<text text-anchor="start" x="235" y="-66.3" font-family="Helvetica,sans-Serif" font-size="11.00" fill="#000000">after_value_text</text>
<polygon fill="none" stroke="#000000" points="412,-59.2 412,-81.2 479,-81.2 479,-59.2 412,-59.2"/>
<text text-anchor="start" x="415" y="-66.9" font-family="Helvetica,sans-Serif" font-size="11.00" fill="#000000">text[65535]</text>
<polygon fill="#ffffff" stroke="transparent" points="215,-40.2 215,-59.2 318,-59.2 318,-40.2 215,-40.2"/>
<polygon fill="none" stroke="#000000" points="215,-40.2 215,-59.2 318,-59.2 318,-40.2 215,-40.2"/>
<text text-anchor="start" x="218" y="-46.3" font-family="Helvetica,sans-Serif" font-size="11.00" fill="#000000">&lt; 1</text>
<polygon fill="#ffffff" stroke="transparent" points="318,-40.2 318,-59.2 412,-59.2 412,-40.2 318,-40.2"/>
<polygon fill="none" stroke="#000000" points="318,-40.2 318,-59.2 412,-59.2 412,-40.2 318,-40.2"/>
<text text-anchor="start" x="402.8862" y="-46.3" font-family="Helvetica,sans-Serif" font-size="11.00" fill="#000000"> &#160;</text>
<polygon fill="#ffffff" stroke="transparent" points="412,-40.2 412,-59.2 479,-59.2 479,-40.2 412,-40.2"/>
<polygon fill="none" stroke="#000000" points="412,-40.2 412,-59.2 479,-59.2 479,-40.2 412,-40.2"/>
<text text-anchor="start" x="460.4053" y="-46.3" font-family="Helvetica,sans-Serif" font-size="11.00" fill="#000000">0 &gt;</text>
<polygon fill="none" stroke="#000000" stroke-width="2" points="214,-39.2 214,-303.2 480,-303.2 480,-39.2 214,-39.2"/>
</a>
</g>
</g>
<!-- aok_knowledgebase -->
<g id="node2" class="node">
<title>aok_knowledgebase</title>
<g id="a_node2"><a xlink:href="../../tables/aok_knowledgebase.html" xlink:title="aok_knowledgebase" target="_top">
<polygon fill="#ffffff" stroke="transparent" points="8,-131.7 8,-280.7 164,-280.7 164,-131.7 8,-131.7"/>
<polygon fill="#f5f5f5" stroke="transparent" points="8,-257.2 8,-280.2 164,-280.2 164,-257.2 8,-257.2"/>
<polygon fill="none" stroke="#000000" points="8,-257.2 8,-280.2 164,-280.2 164,-257.2 8,-257.2"/>
<text text-anchor="start" x="13" y="-266.3" font-family="Helvetica,sans-Serif" font-weight="bold" font-size="11.00" fill="#000000">aok_knowledgebase</text>
<text text-anchor="start" x="129.0437" y="-265.3" font-family="Helvetica,sans-Serif" font-size="11.00" fill="#000000">[table]</text>
<polygon fill="none" stroke="#000000" points="8,-235.2 8,-257.2 164,-257.2 164,-235.2 8,-235.2"/>
<image xlink:href="../../images/primaryKeys.png" width="11px" height="12px" preserveAspectRatio="xMinYMin meet" x="13" y="-252.2"/>
<text text-anchor="start" x="28" y="-242.3" font-family="Helvetica,sans-Serif" font-size="11.00" fill="#000000">id</text>
<polygon fill="#c0c0c0" stroke="transparent" points="8,-213.2 8,-235.2 164,-235.2 164,-213.2 8,-213.2"/>
<polygon fill="none" stroke="#000000" points="8,-213.2 8,-235.2 164,-235.2 164,-213.2 8,-213.2"/>
<image xlink:href="../../images/foreignKeys.png" width="11px" height="12px" preserveAspectRatio="xMinYMin meet" x="13" y="-230.2"/>
<text text-anchor="start" x="28" y="-220.3" font-family="Helvetica,sans-Serif" font-size="11.00" fill="#000000">modified_user_id</text>
<polygon fill="#c0c0c0" stroke="transparent" points="8,-191.2 8,-213.2 164,-213.2 164,-191.2 8,-191.2"/>
<polygon fill="none" stroke="#000000" points="8,-191.2 8,-213.2 164,-213.2 164,-191.2 8,-191.2"/>
<image xlink:href="../../images/foreignKeys.png" width="11px" height="12px" preserveAspectRatio="xMinYMin meet" x="13" y="-208.2"/>
<text text-anchor="start" x="28" y="-198.3" font-family="Helvetica,sans-Serif" font-size="11.00" fill="#000000">created_by</text>
<polygon fill="#c0c0c0" stroke="transparent" points="8,-169.2 8,-191.2 164,-191.2 164,-169.2 8,-169.2"/>
<polygon fill="none" stroke="#000000" points="8,-169.2 8,-191.2 164,-191.2 164,-169.2 8,-169.2"/>
<image xlink:href="../../images/foreignKeys.png" width="11px" height="12px" preserveAspectRatio="xMinYMin meet" x="13" y="-186.2"/>
<text text-anchor="start" x="28" y="-176.3" font-family="Helvetica,sans-Serif" font-size="11.00" fill="#000000">assigned_user_id</text>
<polygon fill="none" stroke="#000000" points="8,-150.2 8,-169.2 164,-169.2 164,-150.2 8,-150.2"/>
<text text-anchor="start" x="11" y="-156.3" font-family="Helvetica,sans-Serif" font-size="11.00" fill="#000000">...</text>
<polygon fill="#ffffff" stroke="transparent" points="8,-131.2 8,-150.2 80,-150.2 80,-131.2 8,-131.2"/>
<polygon fill="none" stroke="#000000" points="8,-131.2 8,-150.2 80,-150.2 80,-131.2 8,-131.2"/>
<text text-anchor="start" x="11" y="-137.3" font-family="Helvetica,sans-Serif" font-size="11.00" fill="#000000">&lt; 3</text>
<polygon fill="#ffffff" stroke="transparent" points="80,-131.2 80,-150.2 117,-150.2 117,-131.2 80,-131.2"/>
<polygon fill="none" stroke="#000000" points="80,-131.2 80,-150.2 117,-150.2 117,-131.2 80,-131.2"/>
<text text-anchor="start" x="107.8862" y="-137.3" font-family="Helvetica,sans-Serif" font-size="11.00" fill="#000000"> &#160;</text>
<polygon fill="#ffffff" stroke="transparent" points="117,-131.2 117,-150.2 164,-150.2 164,-131.2 117,-131.2"/>
<polygon fill="none" stroke="#000000" points="117,-131.2 117,-150.2 164,-150.2 164,-131.2 117,-131.2"/>
<text text-anchor="start" x="145.4053" y="-137.3" font-family="Helvetica,sans-Serif" font-size="11.00" fill="#000000">3 &gt;</text>
</a>
</g>
</g>
<!-- aok_knowledgebase_audit&#45;&gt;aok_knowledgebase -->
<g id="edge1" class="edge">
<title>aok_knowledgebase_audit:w&#45;&gt;aok_knowledgebase:e</title>
<path fill="none" stroke="#000000" d="M200.276,-246.2C188.2815,-246.2 180.8229,-246.2 164,-246.2"/>
<polygon fill="#000000" stroke="#000000" points="207,-246.2001 215,-249.8 211,-246.2 215,-246.2 215,-246.2 215,-246.2 211,-246.2 215,-242.6 207,-246.2001 207,-246.2001"/>
<ellipse fill="none" stroke="#000000" cx="203.8" cy="-246.2001" rx="3.2" ry="3.2"/>
</g>
</g>
</svg>
