<?xml version="1.0" encoding="UTF-8" standalone="no"?>
<!DOCTYPE svg PUBLIC "-//W3C//DTD SVG 1.1//EN"
 "http://www.w3.org/Graphics/SVG/1.1/DTD/svg11.dtd">
<!-- Generated by graphviz version 2.40.1 (20161225.0304)
 -->
<!-- Title: oneDegreeRelationshipsDiagram Pages: 1 -->
<svg width="929pt" height="471pt"
 viewBox="0.00 0.00 929.00 471.20" xmlns="http://www.w3.org/2000/svg" xmlns:xlink="http://www.w3.org/1999/xlink">
<g id="graph0" class="graph" transform="scale(1 1) rotate(0) translate(4 467.2)">
<title>oneDegreeRelationshipsDiagram</title>
<polygon fill="#ffffff" stroke="transparent" points="-4,4 -4,-467.2 925,-467.2 925,4 -4,4"/>
<text text-anchor="middle" x="72.4936" y="-7.3" font-family="Helvetica,sans-Serif" font-size="11.00" fill="#000000">Generated by SchemaSpy</text>
<!-- aok_knowledge_base_categories -->
<g id="node1" class="node">
<title>aok_knowledge_base_categories</title>
<g id="a_node1"><a xlink:href="../../tables/aok_knowledge_base_categories.html" xlink:title="aok_knowledge_base_categories" target="_top">
<polygon fill="#ffffff" stroke="transparent" points="273,-120.7 273,-364.7 583,-364.7 583,-120.7 273,-120.7"/>
<polygon fill="#f5f5f5" stroke="transparent" points="275,-339.7 275,-362.7 581,-362.7 581,-339.7 275,-339.7"/>
<polygon fill="none" stroke="#000000" points="275,-339.7 275,-362.7 581,-362.7 581,-339.7 275,-339.7"/>
<text text-anchor="start" x="280" y="-348.8" font-family="Helvetica,sans-Serif" font-weight="bold" font-size="11.00" fill="#000000">aok_knowledge_base_categories</text>
<text text-anchor="start" x="546.0437" y="-347.8" font-family="Helvetica,sans-Serif" font-size="11.00" fill="#000000">[table]</text>
<polygon fill="none" stroke="#000000" points="275,-317.7 275,-339.7 514,-339.7 514,-317.7 275,-317.7"/>
<image xlink:href="../../images/primaryKeys.png" width="11px" height="12px" preserveAspectRatio="xMinYMin meet" x="280" y="-334.7"/>
<text text-anchor="start" x="295" y="-324.8" font-family="Helvetica,sans-Serif" font-size="11.00" fill="#000000">id</text>
<polygon fill="none" stroke="#000000" points="514,-317.7 514,-339.7 581,-339.7 581,-317.7 514,-317.7"/>
<text text-anchor="start" x="517" y="-325.4" font-family="Helvetica,sans-Serif" font-size="11.00" fill="#000000">char[36]</text>
<polygon fill="none" stroke="#000000" points="275,-295.7 275,-317.7 514,-317.7 514,-295.7 275,-295.7"/>
<text text-anchor="start" x="295" y="-302.8" font-family="Helvetica,sans-Serif" font-size="11.00" fill="#000000">name</text>
<polygon fill="none" stroke="#000000" points="514,-295.7 514,-317.7 581,-317.7 581,-295.7 514,-295.7"/>
<text text-anchor="start" x="516.9365" y="-303.4" font-family="Helvetica,sans-Serif" font-size="11.00" fill="#000000">varchar[255]</text>
<polygon fill="none" stroke="#000000" points="275,-273.7 275,-295.7 514,-295.7 514,-273.7 275,-273.7"/>
<text text-anchor="start" x="295" y="-280.8" font-family="Helvetica,sans-Serif" font-size="11.00" fill="#000000">date_entered</text>
<polygon fill="none" stroke="#000000" points="514,-273.7 514,-295.7 581,-295.7 581,-273.7 514,-273.7"/>
<text text-anchor="start" x="517" y="-281.4" font-family="Helvetica,sans-Serif" font-size="11.00" fill="#000000">datetime[26]</text>
<polygon fill="none" stroke="#000000" points="275,-251.7 275,-273.7 514,-273.7 514,-251.7 275,-251.7"/>
<text text-anchor="start" x="295" y="-258.8" font-family="Helvetica,sans-Serif" font-size="11.00" fill="#000000">date_modified</text>
<polygon fill="none" stroke="#000000" points="514,-251.7 514,-273.7 581,-273.7 581,-251.7 514,-251.7"/>
<text text-anchor="start" x="517" y="-259.4" font-family="Helvetica,sans-Serif" font-size="11.00" fill="#000000">datetime[26]</text>
<polygon fill="none" stroke="#000000" points="275,-229.7 275,-251.7 514,-251.7 514,-229.7 275,-229.7"/>
<image xlink:href="../../images/foreignKeys.png" width="11px" height="12px" preserveAspectRatio="xMinYMin meet" x="280" y="-246.7"/>
<text text-anchor="start" x="295" y="-236.8" font-family="Helvetica,sans-Serif" font-size="11.00" fill="#000000">modified_user_id</text>
<polygon fill="none" stroke="#000000" points="514,-229.7 514,-251.7 581,-251.7 581,-229.7 514,-229.7"/>
<text text-anchor="start" x="517" y="-237.4" font-family="Helvetica,sans-Serif" font-size="11.00" fill="#000000">char[36]</text>
<polygon fill="none" stroke="#000000" points="275,-207.7 275,-229.7 514,-229.7 514,-207.7 275,-207.7"/>
<image xlink:href="../../images/foreignKeys.png" width="11px" height="12px" preserveAspectRatio="xMinYMin meet" x="280" y="-224.7"/>
<text text-anchor="start" x="295" y="-214.8" font-family="Helvetica,sans-Serif" font-size="11.00" fill="#000000">created_by</text>
<polygon fill="none" stroke="#000000" points="514,-207.7 514,-229.7 581,-229.7 581,-207.7 514,-207.7"/>
<text text-anchor="start" x="517" y="-215.4" font-family="Helvetica,sans-Serif" font-size="11.00" fill="#000000">char[36]</text>
<polygon fill="none" stroke="#000000" points="275,-185.7 275,-207.7 514,-207.7 514,-185.7 275,-185.7"/>
<text text-anchor="start" x="295" y="-192.8" font-family="Helvetica,sans-Serif" font-size="11.00" fill="#000000">description</text>
<polygon fill="none" stroke="#000000" points="514,-185.7 514,-207.7 581,-207.7 581,-185.7 514,-185.7"/>
<text text-anchor="start" x="517" y="-193.4" font-family="Helvetica,sans-Serif" font-size="11.00" fill="#000000">text[65535]</text>
<polygon fill="none" stroke="#000000" points="275,-163.7 275,-185.7 514,-185.7 514,-163.7 275,-163.7"/>
<text text-anchor="start" x="295" y="-170.8" font-family="Helvetica,sans-Serif" font-size="11.00" fill="#000000">deleted</text>
<polygon fill="none" stroke="#000000" points="514,-163.7 514,-185.7 581,-185.7 581,-163.7 514,-163.7"/>
<text text-anchor="start" x="517" y="-171.4" font-family="Helvetica,sans-Serif" font-size="11.00" fill="#000000">bit[1]</text>
<polygon fill="none" stroke="#000000" points="275,-141.7 275,-163.7 514,-163.7 514,-141.7 275,-141.7"/>
<image xlink:href="../../images/foreignKeys.png" width="11px" height="12px" preserveAspectRatio="xMinYMin meet" x="280" y="-158.7"/>
<text text-anchor="start" x="295" y="-148.8" font-family="Helvetica,sans-Serif" font-size="11.00" fill="#000000">assigned_user_id</text>
<polygon fill="none" stroke="#000000" points="514,-141.7 514,-163.7 581,-163.7 581,-141.7 514,-141.7"/>
<text text-anchor="start" x="517" y="-149.4" font-family="Helvetica,sans-Serif" font-size="11.00" fill="#000000">char[36]</text>
<polygon fill="#ffffff" stroke="transparent" points="275,-122.7 275,-141.7 399,-141.7 399,-122.7 275,-122.7"/>
<polygon fill="none" stroke="#000000" points="275,-122.7 275,-141.7 399,-141.7 399,-122.7 275,-122.7"/>
<text text-anchor="start" x="278" y="-128.8" font-family="Helvetica,sans-Serif" font-size="11.00" fill="#000000">&lt; 3</text>
<polygon fill="#ffffff" stroke="transparent" points="399,-122.7 399,-141.7 514,-141.7 514,-122.7 399,-122.7"/>
<polygon fill="none" stroke="#000000" points="399,-122.7 399,-141.7 514,-141.7 514,-122.7 399,-122.7"/>
<text text-anchor="start" x="504.8862" y="-128.8" font-family="Helvetica,sans-Serif" font-size="11.00" fill="#000000"> &#160;</text>
<polygon fill="#ffffff" stroke="transparent" points="514,-122.7 514,-141.7 581,-141.7 581,-122.7 514,-122.7"/>
<polygon fill="none" stroke="#000000" points="514,-122.7 514,-141.7 581,-141.7 581,-122.7 514,-122.7"/>
<text text-anchor="start" x="562.4053" y="-128.8" font-family="Helvetica,sans-Serif" font-size="11.00" fill="#000000">2 &gt;</text>
<polygon fill="none" stroke="#000000" stroke-width="2" points="274,-121.7 274,-363.7 582,-363.7 582,-121.7 274,-121.7"/>
</a>
</g>
</g>
<!-- users -->
<g id="node2" class="node">
<title>users</title>
<g id="a_node2"><a xlink:href="../../tables/users.html" xlink:title="users" target="_top">
<polygon fill="#ffffff" stroke="transparent" points="8,-38.2 8,-253.2 224,-253.2 224,-38.2 8,-38.2"/>
<polygon fill="#f5f5f5" stroke="transparent" points="8,-229.7 8,-252.7 224,-252.7 224,-229.7 8,-229.7"/>
<polygon fill="none" stroke="#000000" points="8,-229.7 8,-252.7 224,-252.7 224,-229.7 8,-229.7"/>
<text text-anchor="start" x="13" y="-238.8" font-family="Helvetica,sans-Serif" font-weight="bold" font-size="11.00" fill="#000000">users</text>
<text text-anchor="start" x="189.0437" y="-237.8" font-family="Helvetica,sans-Serif" font-size="11.00" fill="#000000">[table]</text>
<polygon fill="none" stroke="#000000" points="8,-207.7 8,-229.7 224,-229.7 224,-207.7 8,-207.7"/>
<image xlink:href="../../images/primaryKeys.png" width="11px" height="12px" preserveAspectRatio="xMinYMin meet" x="13" y="-224.7"/>
<text text-anchor="start" x="28" y="-214.8" font-family="Helvetica,sans-Serif" font-size="11.00" fill="#000000">id</text>
<polygon fill="#ffffff" stroke="transparent" points="8,-185.7 8,-207.7 224,-207.7 224,-185.7 8,-185.7"/>
<polygon fill="none" stroke="#000000" points="8,-185.7 8,-207.7 224,-207.7 224,-185.7 8,-185.7"/>
<text text-anchor="start" x="28" y="-192.8" font-family="Helvetica,sans-Serif" font-size="11.00" fill="#000000">user_name</text>
<polygon fill="#ffffff" stroke="transparent" points="8,-163.7 8,-185.7 224,-185.7 224,-163.7 8,-163.7"/>
<polygon fill="none" stroke="#000000" points="8,-163.7 8,-185.7 224,-185.7 224,-163.7 8,-163.7"/>
<text text-anchor="start" x="28" y="-170.8" font-family="Helvetica,sans-Serif" font-size="11.00" fill="#000000">first_name</text>
<polygon fill="#ffffff" stroke="transparent" points="8,-141.7 8,-163.7 224,-163.7 224,-141.7 8,-141.7"/>
<polygon fill="none" stroke="#000000" points="8,-141.7 8,-163.7 224,-163.7 224,-141.7 8,-141.7"/>
<text text-anchor="start" x="28" y="-148.8" font-family="Helvetica,sans-Serif" font-size="11.00" fill="#000000">last_name</text>
<polygon fill="#ffffff" stroke="transparent" points="8,-119.7 8,-141.7 224,-141.7 224,-119.7 8,-119.7"/>
<polygon fill="none" stroke="#000000" points="8,-119.7 8,-141.7 224,-141.7 224,-119.7 8,-119.7"/>
<text text-anchor="start" x="28" y="-126.8" font-family="Helvetica,sans-Serif" font-size="11.00" fill="#000000">status</text>
<polygon fill="#c0c0c0" stroke="transparent" points="8,-97.7 8,-119.7 224,-119.7 224,-97.7 8,-97.7"/>
<polygon fill="none" stroke="#000000" points="8,-97.7 8,-119.7 224,-119.7 224,-97.7 8,-97.7"/>
<image xlink:href="../../images/foreignKeys.png" width="11px" height="12px" preserveAspectRatio="xMinYMin meet" x="13" y="-114.7"/>
<text text-anchor="start" x="28" y="-104.8" font-family="Helvetica,sans-Serif" font-size="11.00" fill="#000000">reports_to_id</text>
<polygon fill="#ffffff" stroke="transparent" points="8,-75.7 8,-97.7 224,-97.7 224,-75.7 8,-75.7"/>
<polygon fill="none" stroke="#000000" points="8,-75.7 8,-97.7 224,-97.7 224,-75.7 8,-75.7"/>
<text text-anchor="start" x="28" y="-82.8" font-family="Helvetica,sans-Serif" font-size="11.00" fill="#000000">is_group</text>
<polygon fill="none" stroke="#000000" points="8,-56.7 8,-75.7 224,-75.7 224,-56.7 8,-56.7"/>
<text text-anchor="start" x="11" y="-62.8" font-family="Helvetica,sans-Serif" font-size="11.00" fill="#000000">...</text>
<polygon fill="#ffffff" stroke="transparent" points="8,-37.7 8,-56.7 104,-56.7 104,-37.7 8,-37.7"/>
<polygon fill="none" stroke="#000000" points="8,-37.7 8,-56.7 104,-56.7 104,-37.7 8,-37.7"/>
<text text-anchor="start" x="11" y="-43.8" font-family="Helvetica,sans-Serif" font-size="11.00" fill="#000000">&lt; 2</text>
<polygon fill="#ffffff" stroke="transparent" points="104,-37.7 104,-56.7 153,-56.7 153,-37.7 104,-37.7"/>
<polygon fill="none" stroke="#000000" points="104,-37.7 104,-56.7 153,-56.7 153,-37.7 104,-37.7"/>
<text text-anchor="start" x="143.8862" y="-43.8" font-family="Helvetica,sans-Serif" font-size="11.00" fill="#000000"> &#160;</text>
<polygon fill="#ffffff" stroke="transparent" points="153,-37.7 153,-56.7 224,-56.7 224,-37.7 153,-37.7"/>
<polygon fill="none" stroke="#000000" points="153,-37.7 153,-56.7 224,-56.7 224,-37.7 153,-37.7"/>
<text text-anchor="start" x="193.1755" y="-43.8" font-family="Helvetica,sans-Serif" font-size="11.00" fill="#000000">214 &gt;</text>
</a>
</g>
</g>
<!-- aok_knowledge_base_categories&#45;&gt;users -->
<g id="edge1" class="edge">
<title>aok_knowledge_base_categories:w&#45;&gt;users:e</title>
<path fill="none" stroke="#000000" d="M261.0846,-157.4466C243.902,-172.5798 254.9886,-218.7 224,-218.7"/>
<polygon fill="#000000" stroke="#000000" points="267.4284,-155.2827 276.1622,-156.1072 271.2142,-153.9914 275,-152.7 275,-152.7 275,-152.7 271.2142,-153.9914 273.8378,-149.2928 267.4284,-155.2827 267.4284,-155.2827"/>
<ellipse fill="none" stroke="#000000" cx="264.3997" cy="-156.3158" rx="3.2" ry="3.2"/>
</g>
<!-- aok_knowledge_base_categories&#45;&gt;users -->
<g id="edge2" class="edge">
<title>aok_knowledge_base_categories:w&#45;&gt;users:e</title>
<path fill="none" stroke="#000000" d="M260.276,-218.7C248.2815,-218.7 240.8229,-218.7 224,-218.7"/>
<polygon fill="#000000" stroke="#000000" points="267,-218.7001 275,-222.3 271,-218.7 275,-218.7 275,-218.7 275,-218.7 271,-218.7 275,-215.1 267,-218.7001 267,-218.7001"/>
<ellipse fill="none" stroke="#000000" cx="263.8" cy="-218.7001" rx="3.2" ry="3.2"/>
</g>
<!-- aok_knowledge_base_categories&#45;&gt;users -->
<g id="edge3" class="edge">
<title>aok_knowledge_base_categories:w&#45;&gt;users:e</title>
<path fill="none" stroke="#000000" d="M260.8489,-237.641C248.2843,-231.596 242.9,-218.7 224,-218.7"/>
<polygon fill="#000000" stroke="#000000" points="267.1806,-239.0097 274.2393,-244.2187 271.0903,-239.8548 275,-240.7 275,-240.7 275,-240.7 271.0903,-239.8548 275.7607,-237.1813 267.1806,-239.0097 267.1806,-239.0097"/>
<ellipse fill="none" stroke="#000000" cx="264.0528" cy="-238.3335" rx="3.2" ry="3.2"/>
</g>
<!-- aok_knowledge_base_categories_audit -->
<g id="node3" class="node">
<title>aok_knowledge_base_categories_audit</title>
<g id="a_node3"><a xlink:href="../../tables/aok_knowledge_base_categories_audit.html" xlink:title="aok_knowledge_base_categories_audit" target="_top">
<polygon fill="#ffffff" stroke="transparent" points="632,-354.2 632,-459.2 913,-459.2 913,-354.2 632,-354.2"/>
<polygon fill="#f5f5f5" stroke="transparent" points="632.5,-435.7 632.5,-458.7 913.5,-458.7 913.5,-435.7 632.5,-435.7"/>
<polygon fill="none" stroke="#000000" points="632.5,-435.7 632.5,-458.7 913.5,-458.7 913.5,-435.7 632.5,-435.7"/>
<text text-anchor="start" x="637.5" y="-444.8" font-family="Helvetica,sans-Serif" font-weight="bold" font-size="11.00" fill="#000000">aok_knowledge_base_categories_audit</text>
<text text-anchor="start" x="878.5437" y="-443.8" font-family="Helvetica,sans-Serif" font-size="11.00" fill="#000000">[table]</text>
<polygon fill="none" stroke="#000000" points="632.5,-413.7 632.5,-435.7 913.5,-435.7 913.5,-413.7 632.5,-413.7"/>
<image xlink:href="../../images/primaryKeys.png" width="11px" height="12px" preserveAspectRatio="xMinYMin meet" x="637.5" y="-430.7"/>
<text text-anchor="start" x="652.5" y="-420.8" font-family="Helvetica,sans-Serif" font-size="11.00" fill="#000000">id</text>
<polygon fill="#c0c0c0" stroke="transparent" points="632.5,-391.7 632.5,-413.7 913.5,-413.7 913.5,-391.7 632.5,-391.7"/>
<polygon fill="none" stroke="#000000" points="632.5,-391.7 632.5,-413.7 913.5,-413.7 913.5,-391.7 632.5,-391.7"/>
<image xlink:href="../../images/foreignKeys.png" width="11px" height="12px" preserveAspectRatio="xMinYMin meet" x="637.5" y="-408.7"/>
<text text-anchor="start" x="652.5" y="-398.8" font-family="Helvetica,sans-Serif" font-size="11.00" fill="#000000">parent_id</text>
<polygon fill="none" stroke="#000000" points="632.5,-372.7 632.5,-391.7 913.5,-391.7 913.5,-372.7 632.5,-372.7"/>
<text text-anchor="start" x="635.5" y="-378.8" font-family="Helvetica,sans-Serif" font-size="11.00" fill="#000000">...</text>
<polygon fill="#ffffff" stroke="transparent" points="632.5,-353.7 632.5,-372.7 771.5,-372.7 771.5,-353.7 632.5,-353.7"/>
<polygon fill="none" stroke="#000000" points="632.5,-353.7 632.5,-372.7 771.5,-372.7 771.5,-353.7 632.5,-353.7"/>
<text text-anchor="start" x="635.5" y="-359.8" font-family="Helvetica,sans-Serif" font-size="11.00" fill="#000000">&lt; 1</text>
<polygon fill="#ffffff" stroke="transparent" points="771.5,-353.7 771.5,-372.7 842.5,-372.7 842.5,-353.7 771.5,-353.7"/>
<polygon fill="none" stroke="#000000" points="771.5,-353.7 771.5,-372.7 842.5,-372.7 842.5,-353.7 771.5,-353.7"/>
<text text-anchor="start" x="833.3862" y="-359.8" font-family="Helvetica,sans-Serif" font-size="11.00" fill="#000000"> &#160;</text>
<polygon fill="#ffffff" stroke="transparent" points="842.5,-353.7 842.5,-372.7 913.5,-372.7 913.5,-353.7 842.5,-353.7"/>
<polygon fill="none" stroke="#000000" points="842.5,-353.7 842.5,-372.7 913.5,-372.7 913.5,-353.7 842.5,-353.7"/>
<text text-anchor="start" x="904.3862" y="-359.8" font-family="Helvetica,sans-Serif" font-size="11.00" fill="#000000"> &#160;</text>
</a>
</g>
</g>
<!-- aok_knowledge_base_categories_audit&#45;&gt;aok_knowledge_base_categories -->
<g id="edge4" class="edge">
<title>aok_knowledge_base_categories_audit:w&#45;&gt;aok_knowledge_base_categories:e</title>
<path fill="none" stroke="#000000" d="M618.7488,-398.2926C599.4187,-382.3617 615.1218,-328.7 581,-328.7"/>
<polygon fill="#000000" stroke="#000000" points="624.8817,-400.2582 631.4012,-406.1282 628.6909,-401.4791 632.5,-402.7 632.5,-402.7 632.5,-402.7 628.6909,-401.4791 633.5988,-399.2718 624.8817,-400.2582 624.8817,-400.2582"/>
<ellipse fill="none" stroke="#000000" cx="621.8344" cy="-399.2815" rx="3.2" ry="3.2"/>
</g>
<!-- aok_knowledgebase_categories -->
<g id="node4" class="node">
<title>aok_knowledgebase_categories</title>
<g id="a_node4"><a xlink:href="../../tables/aok_knowledgebase_categories.html" xlink:title="aok_knowledgebase_categories" target="_top">
<polygon fill="#ffffff" stroke="transparent" points="643.5,-206.2 643.5,-333.2 901.5,-333.2 901.5,-206.2 643.5,-206.2"/>
<polygon fill="#f5f5f5" stroke="transparent" points="643.5,-309.7 643.5,-332.7 901.5,-332.7 901.5,-309.7 643.5,-309.7"/>
<polygon fill="none" stroke="#000000" points="643.5,-309.7 643.5,-332.7 901.5,-332.7 901.5,-309.7 643.5,-309.7"/>
<text text-anchor="start" x="648.5" y="-318.8" font-family="Helvetica,sans-Serif" font-weight="bold" font-size="11.00" fill="#000000">aok_knowledgebase_categories</text>
<text text-anchor="start" x="866.5437" y="-317.8" font-family="Helvetica,sans-Serif" font-size="11.00" fill="#000000">[table]</text>
<polygon fill="none" stroke="#000000" points="643.5,-287.7 643.5,-309.7 901.5,-309.7 901.5,-287.7 643.5,-287.7"/>
<image xlink:href="../../images/primaryKeys.png" width="11px" height="12px" preserveAspectRatio="xMinYMin meet" x="648.5" y="-304.7"/>
<text text-anchor="start" x="663.5" y="-294.8" font-family="Helvetica,sans-Serif" font-size="11.00" fill="#000000">id</text>
<polygon fill="#ffffff" stroke="transparent" points="643.5,-265.7 643.5,-287.7 901.5,-287.7 901.5,-265.7 643.5,-265.7"/>
<polygon fill="none" stroke="#000000" points="643.5,-265.7 643.5,-287.7 901.5,-287.7 901.5,-265.7 643.5,-265.7"/>
<image xlink:href="../../images/foreignKeys.png" width="11px" height="12px" preserveAspectRatio="xMinYMin meet" x="648.5" y="-282.7"/>
<text text-anchor="start" x="663.5" y="-272.8" font-family="Helvetica,sans-Serif" font-size="11.00" fill="#000000">aok_knowledgebase_id</text>
<polygon fill="#ffffff" stroke="transparent" points="643.5,-243.7 643.5,-265.7 901.5,-265.7 901.5,-243.7 643.5,-243.7"/>
<polygon fill="none" stroke="#000000" points="643.5,-243.7 643.5,-265.7 901.5,-265.7 901.5,-243.7 643.5,-243.7"/>
<image xlink:href="../../images/foreignKeys.png" width="11px" height="12px" preserveAspectRatio="xMinYMin meet" x="648.5" y="-260.7"/>
<text text-anchor="start" x="663.5" y="-250.8" font-family="Helvetica,sans-Serif" font-size="11.00" fill="#000000">aok_knowledge_base_categories_id</text>
<polygon fill="none" stroke="#000000" points="643.5,-224.7 643.5,-243.7 901.5,-243.7 901.5,-224.7 643.5,-224.7"/>
<text text-anchor="start" x="646.5" y="-230.8" font-family="Helvetica,sans-Serif" font-size="11.00" fill="#000000">...</text>
<polygon fill="#ffffff" stroke="transparent" points="643.5,-205.7 643.5,-224.7 770.5,-224.7 770.5,-205.7 643.5,-205.7"/>
<polygon fill="none" stroke="#000000" points="643.5,-205.7 643.5,-224.7 770.5,-224.7 770.5,-205.7 643.5,-205.7"/>
<text text-anchor="start" x="646.5" y="-211.8" font-family="Helvetica,sans-Serif" font-size="11.00" fill="#000000">&lt; 2</text>
<polygon fill="#ffffff" stroke="transparent" points="770.5,-205.7 770.5,-224.7 835.5,-224.7 835.5,-205.7 770.5,-205.7"/>
<polygon fill="none" stroke="#000000" points="770.5,-205.7 770.5,-224.7 835.5,-224.7 835.5,-205.7 770.5,-205.7"/>
<text text-anchor="start" x="826.3862" y="-211.8" font-family="Helvetica,sans-Serif" font-size="11.00" fill="#000000"> &#160;</text>
<polygon fill="#ffffff" stroke="transparent" points="835.5,-205.7 835.5,-224.7 901.5,-224.7 901.5,-205.7 835.5,-205.7"/>
<polygon fill="none" stroke="#000000" points="835.5,-205.7 835.5,-224.7 901.5,-224.7 901.5,-205.7 835.5,-205.7"/>
<text text-anchor="start" x="892.3862" y="-211.8" font-family="Helvetica,sans-Serif" font-size="11.00" fill="#000000"> &#160;</text>
</a>
</g>
</g>
<!-- aok_knowledgebase_categories&#45;&gt;aok_knowledge_base_categories -->
<g id="edge5" class="edge">
<title>aok_knowledgebase_categories:w&#45;&gt;aok_knowledge_base_categories:e</title>
<path fill="none" stroke="#000000" d="M629.2396,-258.4714C605.6574,-273.5512 618.1641,-328.7 581,-328.7"/>
<polygon fill="#000000" stroke="#000000" points="635.7659,-256.7455 644.4205,-258.1803 639.633,-255.7227 643.5,-254.7 643.5,-254.7 643.5,-254.7 639.633,-255.7227 642.5795,-251.2197 635.7659,-256.7455 635.7659,-256.7455"/>
<ellipse fill="none" stroke="#000000" cx="632.6723" cy="-257.5636" rx="3.2" ry="3.2"/>
</g>
</g>
</svg>
