<?xml version="1.0" encoding="UTF-8" standalone="no"?>
<!DOCTYPE svg PUBLIC "-//W3C//DTD SVG 1.1//EN"
 "http://www.w3.org/Graphics/SVG/1.1/DTD/svg11.dtd">
<!-- Generated by graphviz version 2.40.1 (20161225.0304)
 -->
<!-- Title: twoDegreesRelationshipsDiagram Pages: 1 -->
<svg width="497pt" height="486pt"
 viewBox="0.00 0.00 497.00 485.70" xmlns="http://www.w3.org/2000/svg" xmlns:xlink="http://www.w3.org/1999/xlink">
<g id="graph0" class="graph" transform="scale(1 1) rotate(0) translate(4 481.7)">
<title>twoDegreesRelationshipsDiagram</title>
<polygon fill="#ffffff" stroke="transparent" points="-4,4 -4,-481.7 493,-481.7 493,4 -4,4"/>
<text text-anchor="middle" x="72.4936" y="-7.3" font-family="Helvetica,sans-Serif" font-size="11.00" fill="#000000">Generated by SchemaSpy</text>
<!-- aok_knowledgebase_audit -->
<g id="node1" class="node">
<title>aok_knowledgebase_audit</title>
<g id="a_node1"><a xlink:href="../../tables/aok_knowledgebase_audit.html" xlink:title="aok_knowledgebase_audit" target="_top">
<polygon fill="#ffffff" stroke="transparent" points="213,-207.7 213,-473.7 481,-473.7 481,-207.7 213,-207.7"/>
<polygon fill="#f5f5f5" stroke="transparent" points="215,-448.7 215,-471.7 479,-471.7 479,-448.7 215,-448.7"/>
<polygon fill="none" stroke="#000000" points="215,-448.7 215,-471.7 479,-471.7 479,-448.7 215,-448.7"/>
<text text-anchor="start" x="220" y="-457.8" font-family="Helvetica,sans-Serif" font-weight="bold" font-size="11.00" fill="#000000">aok_knowledgebase_audit</text>
<text text-anchor="start" x="444.0437" y="-456.8" font-family="Helvetica,sans-Serif" font-size="11.00" fill="#000000">[table]</text>
<polygon fill="none" stroke="#000000" points="215,-426.7 215,-448.7 412,-448.7 412,-426.7 215,-426.7"/>
<image xlink:href="../../images/primaryKeys.png" width="11px" height="12px" preserveAspectRatio="xMinYMin meet" x="220" y="-443.7"/>
<text text-anchor="start" x="235" y="-433.8" font-family="Helvetica,sans-Serif" font-size="11.00" fill="#000000">id</text>
<polygon fill="none" stroke="#000000" points="412,-426.7 412,-448.7 479,-448.7 479,-426.7 412,-426.7"/>
<text text-anchor="start" x="415" y="-434.4" font-family="Helvetica,sans-Serif" font-size="11.00" fill="#000000">char[36]</text>
<polygon fill="#ffffff" stroke="transparent" points="215,-404.7 215,-426.7 412,-426.7 412,-404.7 215,-404.7"/>
<polygon fill="none" stroke="#000000" points="215,-404.7 215,-426.7 412,-426.7 412,-404.7 215,-404.7"/>
<image xlink:href="../../images/foreignKeys.png" width="11px" height="12px" preserveAspectRatio="xMinYMin meet" x="220" y="-421.7"/>
<text text-anchor="start" x="235" y="-411.8" font-family="Helvetica,sans-Serif" font-size="11.00" fill="#000000">parent_id</text>
<polygon fill="none" stroke="#000000" points="412,-404.7 412,-426.7 479,-426.7 479,-404.7 412,-404.7"/>
<text text-anchor="start" x="415" y="-412.4" font-family="Helvetica,sans-Serif" font-size="11.00" fill="#000000">char[36]</text>
<polygon fill="none" stroke="#000000" points="215,-382.7 215,-404.7 412,-404.7 412,-382.7 215,-382.7"/>
<text text-anchor="start" x="235" y="-389.8" font-family="Helvetica,sans-Serif" font-size="11.00" fill="#000000">date_created</text>
<polygon fill="none" stroke="#000000" points="412,-382.7 412,-404.7 479,-404.7 479,-382.7 412,-382.7"/>
<text text-anchor="start" x="415" y="-390.4" font-family="Helvetica,sans-Serif" font-size="11.00" fill="#000000">datetime[26]</text>
<polygon fill="none" stroke="#000000" points="215,-360.7 215,-382.7 412,-382.7 412,-360.7 215,-360.7"/>
<text text-anchor="start" x="235" y="-367.8" font-family="Helvetica,sans-Serif" font-size="11.00" fill="#000000">created_by</text>
<polygon fill="none" stroke="#000000" points="412,-360.7 412,-382.7 479,-382.7 479,-360.7 412,-360.7"/>
<text text-anchor="start" x="415" y="-368.4" font-family="Helvetica,sans-Serif" font-size="11.00" fill="#000000">varchar[36]</text>
<polygon fill="none" stroke="#000000" points="215,-338.7 215,-360.7 412,-360.7 412,-338.7 215,-338.7"/>
<text text-anchor="start" x="235" y="-345.8" font-family="Helvetica,sans-Serif" font-size="11.00" fill="#000000">field_name</text>
<polygon fill="none" stroke="#000000" points="412,-338.7 412,-360.7 479,-360.7 479,-338.7 412,-338.7"/>
<text text-anchor="start" x="414.9365" y="-346.4" font-family="Helvetica,sans-Serif" font-size="11.00" fill="#000000">varchar[100]</text>
<polygon fill="none" stroke="#000000" points="215,-316.7 215,-338.7 412,-338.7 412,-316.7 215,-316.7"/>
<text text-anchor="start" x="235" y="-323.8" font-family="Helvetica,sans-Serif" font-size="11.00" fill="#000000">data_type</text>
<polygon fill="none" stroke="#000000" points="412,-316.7 412,-338.7 479,-338.7 479,-316.7 412,-316.7"/>
<text text-anchor="start" x="414.9365" y="-324.4" font-family="Helvetica,sans-Serif" font-size="11.00" fill="#000000">varchar[100]</text>
<polygon fill="none" stroke="#000000" points="215,-294.7 215,-316.7 412,-316.7 412,-294.7 215,-294.7"/>
<text text-anchor="start" x="235" y="-301.8" font-family="Helvetica,sans-Serif" font-size="11.00" fill="#000000">before_value_string</text>
<polygon fill="none" stroke="#000000" points="412,-294.7 412,-316.7 479,-316.7 479,-294.7 412,-294.7"/>
<text text-anchor="start" x="414.9365" y="-302.4" font-family="Helvetica,sans-Serif" font-size="11.00" fill="#000000">varchar[255]</text>
<polygon fill="none" stroke="#000000" points="215,-272.7 215,-294.7 412,-294.7 412,-272.7 215,-272.7"/>
<text text-anchor="start" x="235" y="-279.8" font-family="Helvetica,sans-Serif" font-size="11.00" fill="#000000">after_value_string</text>
<polygon fill="none" stroke="#000000" points="412,-272.7 412,-294.7 479,-294.7 479,-272.7 412,-272.7"/>
<text text-anchor="start" x="414.9365" y="-280.4" font-family="Helvetica,sans-Serif" font-size="11.00" fill="#000000">varchar[255]</text>
<polygon fill="none" stroke="#000000" points="215,-250.7 215,-272.7 412,-272.7 412,-250.7 215,-250.7"/>
<text text-anchor="start" x="235" y="-257.8" font-family="Helvetica,sans-Serif" font-size="11.00" fill="#000000">before_value_text</text>
<polygon fill="none" stroke="#000000" points="412,-250.7 412,-272.7 479,-272.7 479,-250.7 412,-250.7"/>
<text text-anchor="start" x="415" y="-258.4" font-family="Helvetica,sans-Serif" font-size="11.00" fill="#000000">text[65535]</text>
<polygon fill="none" stroke="#000000" points="215,-228.7 215,-250.7 412,-250.7 412,-228.7 215,-228.7"/>
<text text-anchor="start" x="235" y="-235.8" font-family="Helvetica,sans-Serif" font-size="11.00" fill="#000000">after_value_text</text>
<polygon fill="none" stroke="#000000" points="412,-228.7 412,-250.7 479,-250.7 479,-228.7 412,-228.7"/>
<text text-anchor="start" x="415" y="-236.4" font-family="Helvetica,sans-Serif" font-size="11.00" fill="#000000">text[65535]</text>
<polygon fill="#ffffff" stroke="transparent" points="215,-209.7 215,-228.7 318,-228.7 318,-209.7 215,-209.7"/>
<polygon fill="none" stroke="#000000" points="215,-209.7 215,-228.7 318,-228.7 318,-209.7 215,-209.7"/>
<text text-anchor="start" x="218" y="-215.8" font-family="Helvetica,sans-Serif" font-size="11.00" fill="#000000">&lt; 1</text>
<polygon fill="#ffffff" stroke="transparent" points="318,-209.7 318,-228.7 412,-228.7 412,-209.7 318,-209.7"/>
<polygon fill="none" stroke="#000000" points="318,-209.7 318,-228.7 412,-228.7 412,-209.7 318,-209.7"/>
<text text-anchor="start" x="402.8862" y="-215.8" font-family="Helvetica,sans-Serif" font-size="11.00" fill="#000000"> &#160;</text>
<polygon fill="#ffffff" stroke="transparent" points="412,-209.7 412,-228.7 479,-228.7 479,-209.7 412,-209.7"/>
<polygon fill="none" stroke="#000000" points="412,-209.7 412,-228.7 479,-228.7 479,-209.7 412,-209.7"/>
<text text-anchor="start" x="460.4053" y="-215.8" font-family="Helvetica,sans-Serif" font-size="11.00" fill="#000000">0 &gt;</text>
<polygon fill="none" stroke="#000000" stroke-width="2" points="214,-208.7 214,-472.7 480,-472.7 480,-208.7 214,-208.7"/>
</a>
</g>
</g>
<!-- aok_knowledgebase -->
<g id="node2" class="node">
<title>aok_knowledgebase</title>
<g id="a_node2"><a xlink:href="../../tables/aok_knowledgebase.html" xlink:title="aok_knowledgebase" target="_top">
<polygon fill="#ffffff" stroke="transparent" points="8,-38.2 8,-187.2 164,-187.2 164,-38.2 8,-38.2"/>
<polygon fill="#f5f5f5" stroke="transparent" points="8,-163.7 8,-186.7 164,-186.7 164,-163.7 8,-163.7"/>
<polygon fill="none" stroke="#000000" points="8,-163.7 8,-186.7 164,-186.7 164,-163.7 8,-163.7"/>
<text text-anchor="start" x="13" y="-172.8" font-family="Helvetica,sans-Serif" font-weight="bold" font-size="11.00" fill="#000000">aok_knowledgebase</text>
<text text-anchor="start" x="129.0437" y="-171.8" font-family="Helvetica,sans-Serif" font-size="11.00" fill="#000000">[table]</text>
<polygon fill="none" stroke="#000000" points="8,-141.7 8,-163.7 164,-163.7 164,-141.7 8,-141.7"/>
<image xlink:href="../../images/primaryKeys.png" width="11px" height="12px" preserveAspectRatio="xMinYMin meet" x="13" y="-158.7"/>
<text text-anchor="start" x="28" y="-148.8" font-family="Helvetica,sans-Serif" font-size="11.00" fill="#000000">id</text>
<polygon fill="#c0c0c0" stroke="transparent" points="8,-119.7 8,-141.7 164,-141.7 164,-119.7 8,-119.7"/>
<polygon fill="none" stroke="#000000" points="8,-119.7 8,-141.7 164,-141.7 164,-119.7 8,-119.7"/>
<image xlink:href="../../images/foreignKeys.png" width="11px" height="12px" preserveAspectRatio="xMinYMin meet" x="13" y="-136.7"/>
<text text-anchor="start" x="28" y="-126.8" font-family="Helvetica,sans-Serif" font-size="11.00" fill="#000000">modified_user_id</text>
<polygon fill="#c0c0c0" stroke="transparent" points="8,-97.7 8,-119.7 164,-119.7 164,-97.7 8,-97.7"/>
<polygon fill="none" stroke="#000000" points="8,-97.7 8,-119.7 164,-119.7 164,-97.7 8,-97.7"/>
<image xlink:href="../../images/foreignKeys.png" width="11px" height="12px" preserveAspectRatio="xMinYMin meet" x="13" y="-114.7"/>
<text text-anchor="start" x="28" y="-104.8" font-family="Helvetica,sans-Serif" font-size="11.00" fill="#000000">created_by</text>
<polygon fill="#c0c0c0" stroke="transparent" points="8,-75.7 8,-97.7 164,-97.7 164,-75.7 8,-75.7"/>
<polygon fill="none" stroke="#000000" points="8,-75.7 8,-97.7 164,-97.7 164,-75.7 8,-75.7"/>
<image xlink:href="../../images/foreignKeys.png" width="11px" height="12px" preserveAspectRatio="xMinYMin meet" x="13" y="-92.7"/>
<text text-anchor="start" x="28" y="-82.8" font-family="Helvetica,sans-Serif" font-size="11.00" fill="#000000">assigned_user_id</text>
<polygon fill="none" stroke="#000000" points="8,-56.7 8,-75.7 164,-75.7 164,-56.7 8,-56.7"/>
<text text-anchor="start" x="11" y="-62.8" font-family="Helvetica,sans-Serif" font-size="11.00" fill="#000000">...</text>
<polygon fill="#ffffff" stroke="transparent" points="8,-37.7 8,-56.7 80,-56.7 80,-37.7 8,-37.7"/>
<polygon fill="none" stroke="#000000" points="8,-37.7 8,-56.7 80,-56.7 80,-37.7 8,-37.7"/>
<text text-anchor="start" x="11" y="-43.8" font-family="Helvetica,sans-Serif" font-size="11.00" fill="#000000">&lt; 3</text>
<polygon fill="#ffffff" stroke="transparent" points="80,-37.7 80,-56.7 117,-56.7 117,-37.7 80,-37.7"/>
<polygon fill="none" stroke="#000000" points="80,-37.7 80,-56.7 117,-56.7 117,-37.7 80,-37.7"/>
<text text-anchor="start" x="107.8862" y="-43.8" font-family="Helvetica,sans-Serif" font-size="11.00" fill="#000000"> &#160;</text>
<polygon fill="#ffffff" stroke="transparent" points="117,-37.7 117,-56.7 164,-56.7 164,-37.7 117,-37.7"/>
<polygon fill="none" stroke="#000000" points="117,-37.7 117,-56.7 164,-56.7 164,-37.7 117,-37.7"/>
<text text-anchor="start" x="145.4053" y="-43.8" font-family="Helvetica,sans-Serif" font-size="11.00" fill="#000000">3 &gt;</text>
</a>
</g>
</g>
<!-- aok_knowledgebase_audit&#45;&gt;aok_knowledgebase -->
<g id="edge1" class="edge">
<title>aok_knowledgebase_audit:w&#45;&gt;aok_knowledgebase:e</title>
<path fill="none" stroke="#000000" d="M201.8588,-409.7127C166.6675,-370.5651 218.1845,-152.7 164,-152.7"/>
<polygon fill="#000000" stroke="#000000" points="207.72,-412.3831 213.5074,-418.976 211.36,-414.0416 215,-415.7 215,-415.7 215,-415.7 211.36,-414.0416 216.4926,-412.424 207.72,-412.3831 207.72,-412.3831"/>
<ellipse fill="none" stroke="#000000" cx="204.808" cy="-411.0564" rx="3.2" ry="3.2"/>
</g>
<!-- aok_knowledgebase_categories -->
<g id="node3" class="node">
<title>aok_knowledgebase_categories</title>
<g id="a_node3"><a xlink:href="../../tables/aok_knowledgebase_categories.html" xlink:title="aok_knowledgebase_categories" target="_top">
<polygon fill="#ffffff" stroke="transparent" points="247,-125.2 247,-186.2 447,-186.2 447,-125.2 247,-125.2"/>
<polygon fill="#f5f5f5" stroke="transparent" points="247,-162.7 247,-185.7 447,-185.7 447,-162.7 247,-162.7"/>
<polygon fill="none" stroke="#000000" points="247,-162.7 247,-185.7 447,-185.7 447,-162.7 247,-162.7"/>
<text text-anchor="start" x="251.9452" y="-171.8" font-family="Helvetica,sans-Serif" font-weight="bold" font-size="11.00" fill="#000000">aok_knowledgebase_categories</text>
<text text-anchor="start" x="412.5219" y="-170.8" font-family="Helvetica,sans-Serif" font-size="11.00" fill="#000000">[table]</text>
<polygon fill="none" stroke="#000000" points="247,-143.7 247,-162.7 447,-162.7 447,-143.7 247,-143.7"/>
<text text-anchor="start" x="250" y="-149.8" font-family="Helvetica,sans-Serif" font-size="11.00" fill="#000000">...</text>
<polygon fill="#ffffff" stroke="transparent" points="247,-124.7 247,-143.7 345,-143.7 345,-124.7 247,-124.7"/>
<polygon fill="none" stroke="#000000" points="247,-124.7 247,-143.7 345,-143.7 345,-124.7 247,-124.7"/>
<text text-anchor="start" x="250" y="-130.8" font-family="Helvetica,sans-Serif" font-size="11.00" fill="#000000">&lt; 2</text>
<polygon fill="#ffffff" stroke="transparent" points="345,-124.7 345,-143.7 396,-143.7 396,-124.7 345,-124.7"/>
<polygon fill="none" stroke="#000000" points="345,-124.7 345,-143.7 396,-143.7 396,-124.7 345,-124.7"/>
<text text-anchor="start" x="386.8862" y="-130.8" font-family="Helvetica,sans-Serif" font-size="11.00" fill="#000000"> &#160;</text>
<polygon fill="#ffffff" stroke="transparent" points="396,-124.7 396,-143.7 447,-143.7 447,-124.7 396,-124.7"/>
<polygon fill="none" stroke="#000000" points="396,-124.7 396,-143.7 447,-143.7 447,-124.7 396,-124.7"/>
<text text-anchor="start" x="437.8862" y="-130.8" font-family="Helvetica,sans-Serif" font-size="11.00" fill="#000000"> &#160;</text>
</a>
</g>
</g>
<!-- aok_knowledgebase_categories&#45;&gt;aok_knowledgebase -->
<g id="edge2" class="edge">
<title>aok_knowledgebase_categories:w&#45;&gt;aok_knowledgebase:e</title>
<path fill="none" stroke="#000000" d="M232.572,-152.7C206.8674,-152.7 195.5573,-152.7 164,-152.7"/>
<polygon fill="#000000" stroke="#000000" points="239,-152.7001 247,-156.3 243,-152.7 247,-152.7 247,-152.7 247,-152.7 243,-152.7 247,-149.1 239,-152.7001 239,-152.7001"/>
<ellipse fill="none" stroke="#000000" cx="235.8" cy="-152.7001" rx="3.2" ry="3.2"/>
</g>
<!-- securitygroups_records -->
<g id="node4" class="node">
<title>securitygroups_records</title>
<g id="a_node4"><a xlink:href="../../tables/securitygroups_records.html" xlink:title="securitygroups_records" target="_top">
<polygon fill="#ffffff" stroke="transparent" points="268.5,-43.2 268.5,-104.2 425.5,-104.2 425.5,-43.2 268.5,-43.2"/>
<polygon fill="#f5f5f5" stroke="transparent" points="269,-80.7 269,-103.7 426,-103.7 426,-80.7 269,-80.7"/>
<polygon fill="none" stroke="#000000" points="269,-80.7 269,-103.7 426,-103.7 426,-80.7 269,-80.7"/>
<text text-anchor="start" x="273.8528" y="-89.8" font-family="Helvetica,sans-Serif" font-weight="bold" font-size="11.00" fill="#000000">securitygroups_records</text>
<text text-anchor="start" x="391.5219" y="-88.8" font-family="Helvetica,sans-Serif" font-size="11.00" fill="#000000">[table]</text>
<polygon fill="none" stroke="#000000" points="269,-61.7 269,-80.7 426,-80.7 426,-61.7 269,-61.7"/>
<text text-anchor="start" x="272" y="-67.8" font-family="Helvetica,sans-Serif" font-size="11.00" fill="#000000">...</text>
<polygon fill="#ffffff" stroke="transparent" points="269,-42.7 269,-61.7 349,-61.7 349,-42.7 269,-42.7"/>
<polygon fill="none" stroke="#000000" points="269,-42.7 269,-61.7 349,-61.7 349,-42.7 269,-42.7"/>
<text text-anchor="start" x="272" y="-48.8" font-family="Helvetica,sans-Serif" font-size="11.00" fill="#000000">&lt; 41</text>
<polygon fill="#ffffff" stroke="transparent" points="349,-42.7 349,-61.7 387,-61.7 387,-42.7 349,-42.7"/>
<polygon fill="none" stroke="#000000" points="349,-42.7 349,-61.7 387,-61.7 387,-42.7 349,-42.7"/>
<text text-anchor="start" x="377.8862" y="-48.8" font-family="Helvetica,sans-Serif" font-size="11.00" fill="#000000"> &#160;</text>
<polygon fill="#ffffff" stroke="transparent" points="387,-42.7 387,-61.7 426,-61.7 426,-42.7 387,-42.7"/>
<polygon fill="none" stroke="#000000" points="387,-42.7 387,-61.7 426,-61.7 426,-42.7 387,-42.7"/>
<text text-anchor="start" x="416.8862" y="-48.8" font-family="Helvetica,sans-Serif" font-size="11.00" fill="#000000"> &#160;</text>
</a>
</g>
</g>
<!-- securitygroups_records&#45;&gt;aok_knowledgebase -->
<g id="edge3" class="edge">
<title>securitygroups_records:w&#45;&gt;aok_knowledgebase:e</title>
<path fill="none" stroke="#000000" d="M254.6448,-72.3305C233.0449,-77.8634 227.6351,-96.5874 205,-114.7 185.6011,-130.2231 188.8452,-152.7 164,-152.7"/>
<polygon fill="#000000" stroke="#000000" points="261.0511,-71.6029 269.4063,-74.277 265.0256,-71.1515 269,-70.7 269,-70.7 269,-70.7 265.0256,-71.1515 268.5937,-67.123 261.0511,-71.6029 261.0511,-71.6029"/>
<ellipse fill="none" stroke="#000000" cx="257.8716" cy="-71.9641" rx="3.2" ry="3.2"/>
</g>
</g>
</svg>
