<?xml version="1.0" encoding="UTF-8" standalone="no"?>
<!DOCTYPE svg PUBLIC "-//W3C//DTD SVG 1.1//EN"
 "http://www.w3.org/Graphics/SVG/1.1/DTD/svg11.dtd">
<!-- Generated by graphviz version 2.40.1 (20161225.0304)
 -->
<!-- Title: oneDegreeRelationshipsDiagram Pages: 1 -->
<svg width="823pt" height="551pt"
 viewBox="0.00 0.00 823.00 550.70" xmlns="http://www.w3.org/2000/svg" xmlns:xlink="http://www.w3.org/1999/xlink">
<g id="graph0" class="graph" transform="scale(1 1) rotate(0) translate(4 546.7)">
<title>oneDegreeRelationshipsDiagram</title>
<polygon fill="#ffffff" stroke="transparent" points="-4,4 -4,-546.7 819,-546.7 819,4 -4,4"/>
<text text-anchor="middle" x="72.4936" y="-7.3" font-family="Helvetica,sans-Serif" font-size="11.00" fill="#000000">Generated by SchemaSpy</text>
<!-- aok_knowledgebase -->
<g id="node1" class="node">
<title>aok_knowledgebase</title>
<g id="a_node1"><a xlink:href="../../tables/aok_knowledgebase.html" xlink:title="aok_knowledgebase" target="_top">
<polygon fill="#ffffff" stroke="transparent" points="273,-38.2 273,-392.2 500,-392.2 500,-38.2 273,-38.2"/>
<polygon fill="#f5f5f5" stroke="transparent" points="275.5,-367.2 275.5,-390.2 498.5,-390.2 498.5,-367.2 275.5,-367.2"/>
<polygon fill="none" stroke="#000000" points="275.5,-367.2 275.5,-390.2 498.5,-390.2 498.5,-367.2 275.5,-367.2"/>
<text text-anchor="start" x="280.5" y="-376.3" font-family="Helvetica,sans-Serif" font-weight="bold" font-size="11.00" fill="#000000">aok_knowledgebase</text>
<text text-anchor="start" x="463.5437" y="-375.3" font-family="Helvetica,sans-Serif" font-size="11.00" fill="#000000">[table]</text>
<polygon fill="none" stroke="#000000" points="275.5,-345.2 275.5,-367.2 431.5,-367.2 431.5,-345.2 275.5,-345.2"/>
<image xlink:href="../../images/primaryKeys.png" width="11px" height="12px" preserveAspectRatio="xMinYMin meet" x="280.5" y="-362.2"/>
<text text-anchor="start" x="295.5" y="-352.3" font-family="Helvetica,sans-Serif" font-size="11.00" fill="#000000">id</text>
<polygon fill="none" stroke="#000000" points="431.5,-345.2 431.5,-367.2 498.5,-367.2 498.5,-345.2 431.5,-345.2"/>
<text text-anchor="start" x="434.5" y="-352.9" font-family="Helvetica,sans-Serif" font-size="11.00" fill="#000000">char[36]</text>
<polygon fill="none" stroke="#000000" points="275.5,-323.2 275.5,-345.2 431.5,-345.2 431.5,-323.2 275.5,-323.2"/>
<text text-anchor="start" x="295.5" y="-330.3" font-family="Helvetica,sans-Serif" font-size="11.00" fill="#000000">name</text>
<polygon fill="none" stroke="#000000" points="431.5,-323.2 431.5,-345.2 498.5,-345.2 498.5,-323.2 431.5,-323.2"/>
<text text-anchor="start" x="434.4365" y="-330.9" font-family="Helvetica,sans-Serif" font-size="11.00" fill="#000000">varchar[255]</text>
<polygon fill="none" stroke="#000000" points="275.5,-301.2 275.5,-323.2 431.5,-323.2 431.5,-301.2 275.5,-301.2"/>
<text text-anchor="start" x="295.5" y="-308.3" font-family="Helvetica,sans-Serif" font-size="11.00" fill="#000000">date_entered</text>
<polygon fill="none" stroke="#000000" points="431.5,-301.2 431.5,-323.2 498.5,-323.2 498.5,-301.2 431.5,-301.2"/>
<text text-anchor="start" x="434.5" y="-308.9" font-family="Helvetica,sans-Serif" font-size="11.00" fill="#000000">datetime[26]</text>
<polygon fill="none" stroke="#000000" points="275.5,-279.2 275.5,-301.2 431.5,-301.2 431.5,-279.2 275.5,-279.2"/>
<text text-anchor="start" x="295.5" y="-286.3" font-family="Helvetica,sans-Serif" font-size="11.00" fill="#000000">date_modified</text>
<polygon fill="none" stroke="#000000" points="431.5,-279.2 431.5,-301.2 498.5,-301.2 498.5,-279.2 431.5,-279.2"/>
<text text-anchor="start" x="434.5" y="-286.9" font-family="Helvetica,sans-Serif" font-size="11.00" fill="#000000">datetime[26]</text>
<polygon fill="none" stroke="#000000" points="275.5,-257.2 275.5,-279.2 431.5,-279.2 431.5,-257.2 275.5,-257.2"/>
<image xlink:href="../../images/foreignKeys.png" width="11px" height="12px" preserveAspectRatio="xMinYMin meet" x="280.5" y="-274.2"/>
<text text-anchor="start" x="295.5" y="-264.3" font-family="Helvetica,sans-Serif" font-size="11.00" fill="#000000">modified_user_id</text>
<polygon fill="none" stroke="#000000" points="431.5,-257.2 431.5,-279.2 498.5,-279.2 498.5,-257.2 431.5,-257.2"/>
<text text-anchor="start" x="434.5" y="-264.9" font-family="Helvetica,sans-Serif" font-size="11.00" fill="#000000">char[36]</text>
<polygon fill="none" stroke="#000000" points="275.5,-235.2 275.5,-257.2 431.5,-257.2 431.5,-235.2 275.5,-235.2"/>
<image xlink:href="../../images/foreignKeys.png" width="11px" height="12px" preserveAspectRatio="xMinYMin meet" x="280.5" y="-252.2"/>
<text text-anchor="start" x="295.5" y="-242.3" font-family="Helvetica,sans-Serif" font-size="11.00" fill="#000000">created_by</text>
<polygon fill="none" stroke="#000000" points="431.5,-235.2 431.5,-257.2 498.5,-257.2 498.5,-235.2 431.5,-235.2"/>
<text text-anchor="start" x="434.5" y="-242.9" font-family="Helvetica,sans-Serif" font-size="11.00" fill="#000000">char[36]</text>
<polygon fill="none" stroke="#000000" points="275.5,-213.2 275.5,-235.2 431.5,-235.2 431.5,-213.2 275.5,-213.2"/>
<text text-anchor="start" x="295.5" y="-220.3" font-family="Helvetica,sans-Serif" font-size="11.00" fill="#000000">description</text>
<polygon fill="none" stroke="#000000" points="431.5,-213.2 431.5,-235.2 498.5,-235.2 498.5,-213.2 431.5,-213.2"/>
<text text-anchor="start" x="434.5" y="-220.9" font-family="Helvetica,sans-Serif" font-size="11.00" fill="#000000">text[65535]</text>
<polygon fill="none" stroke="#000000" points="275.5,-191.2 275.5,-213.2 431.5,-213.2 431.5,-191.2 275.5,-191.2"/>
<text text-anchor="start" x="295.5" y="-198.3" font-family="Helvetica,sans-Serif" font-size="11.00" fill="#000000">deleted</text>
<polygon fill="none" stroke="#000000" points="431.5,-191.2 431.5,-213.2 498.5,-213.2 498.5,-191.2 431.5,-191.2"/>
<text text-anchor="start" x="434.5" y="-198.9" font-family="Helvetica,sans-Serif" font-size="11.00" fill="#000000">bit[1]</text>
<polygon fill="none" stroke="#000000" points="275.5,-169.2 275.5,-191.2 431.5,-191.2 431.5,-169.2 275.5,-169.2"/>
<image xlink:href="../../images/foreignKeys.png" width="11px" height="12px" preserveAspectRatio="xMinYMin meet" x="280.5" y="-186.2"/>
<text text-anchor="start" x="295.5" y="-176.3" font-family="Helvetica,sans-Serif" font-size="11.00" fill="#000000">assigned_user_id</text>
<polygon fill="none" stroke="#000000" points="431.5,-169.2 431.5,-191.2 498.5,-191.2 498.5,-169.2 431.5,-169.2"/>
<text text-anchor="start" x="434.5" y="-176.9" font-family="Helvetica,sans-Serif" font-size="11.00" fill="#000000">char[36]</text>
<polygon fill="none" stroke="#000000" points="275.5,-147.2 275.5,-169.2 431.5,-169.2 431.5,-147.2 275.5,-147.2"/>
<text text-anchor="start" x="295.5" y="-154.3" font-family="Helvetica,sans-Serif" font-size="11.00" fill="#000000">status</text>
<polygon fill="none" stroke="#000000" points="431.5,-147.2 431.5,-169.2 498.5,-169.2 498.5,-147.2 431.5,-147.2"/>
<text text-anchor="start" x="434.4365" y="-154.9" font-family="Helvetica,sans-Serif" font-size="11.00" fill="#000000">varchar[100]</text>
<polygon fill="none" stroke="#000000" points="275.5,-125.2 275.5,-147.2 431.5,-147.2 431.5,-125.2 275.5,-125.2"/>
<text text-anchor="start" x="295.5" y="-132.3" font-family="Helvetica,sans-Serif" font-size="11.00" fill="#000000">revision</text>
<polygon fill="none" stroke="#000000" points="431.5,-125.2 431.5,-147.2 498.5,-147.2 498.5,-125.2 431.5,-125.2"/>
<text text-anchor="start" x="434.4365" y="-132.9" font-family="Helvetica,sans-Serif" font-size="11.00" fill="#000000">varchar[255]</text>
<polygon fill="none" stroke="#000000" points="275.5,-103.2 275.5,-125.2 431.5,-125.2 431.5,-103.2 275.5,-103.2"/>
<text text-anchor="start" x="295.5" y="-110.3" font-family="Helvetica,sans-Serif" font-size="11.00" fill="#000000">additional_info</text>
<polygon fill="none" stroke="#000000" points="431.5,-103.2 431.5,-125.2 498.5,-125.2 498.5,-103.2 431.5,-103.2"/>
<text text-anchor="start" x="434.5" y="-110.9" font-family="Helvetica,sans-Serif" font-size="11.00" fill="#000000">text[65535]</text>
<polygon fill="none" stroke="#000000" points="275.5,-81.2 275.5,-103.2 431.5,-103.2 431.5,-81.2 275.5,-81.2"/>
<text text-anchor="start" x="295.5" y="-88.3" font-family="Helvetica,sans-Serif" font-size="11.00" fill="#000000">user_id_c</text>
<polygon fill="none" stroke="#000000" points="431.5,-81.2 431.5,-103.2 498.5,-103.2 498.5,-81.2 431.5,-81.2"/>
<text text-anchor="start" x="434.5" y="-88.9" font-family="Helvetica,sans-Serif" font-size="11.00" fill="#000000">char[36]</text>
<polygon fill="none" stroke="#000000" points="275.5,-59.2 275.5,-81.2 431.5,-81.2 431.5,-59.2 275.5,-59.2"/>
<text text-anchor="start" x="295.5" y="-66.3" font-family="Helvetica,sans-Serif" font-size="11.00" fill="#000000">user_id1_c</text>
<polygon fill="none" stroke="#000000" points="431.5,-59.2 431.5,-81.2 498.5,-81.2 498.5,-59.2 431.5,-59.2"/>
<text text-anchor="start" x="434.5" y="-66.9" font-family="Helvetica,sans-Serif" font-size="11.00" fill="#000000">char[36]</text>
<polygon fill="#ffffff" stroke="transparent" points="275.5,-40.2 275.5,-59.2 357.5,-59.2 357.5,-40.2 275.5,-40.2"/>
<polygon fill="none" stroke="#000000" points="275.5,-40.2 275.5,-59.2 357.5,-59.2 357.5,-40.2 275.5,-40.2"/>
<text text-anchor="start" x="278.5" y="-46.3" font-family="Helvetica,sans-Serif" font-size="11.00" fill="#000000">&lt; 3</text>
<polygon fill="#ffffff" stroke="transparent" points="357.5,-40.2 357.5,-59.2 431.5,-59.2 431.5,-40.2 357.5,-40.2"/>
<polygon fill="none" stroke="#000000" points="357.5,-40.2 357.5,-59.2 431.5,-59.2 431.5,-40.2 357.5,-40.2"/>
<text text-anchor="start" x="422.3862" y="-46.3" font-family="Helvetica,sans-Serif" font-size="11.00" fill="#000000"> &#160;</text>
<polygon fill="#ffffff" stroke="transparent" points="431.5,-40.2 431.5,-59.2 498.5,-59.2 498.5,-40.2 431.5,-40.2"/>
<polygon fill="none" stroke="#000000" points="431.5,-40.2 431.5,-59.2 498.5,-59.2 498.5,-40.2 431.5,-40.2"/>
<text text-anchor="start" x="479.9053" y="-46.3" font-family="Helvetica,sans-Serif" font-size="11.00" fill="#000000">3 &gt;</text>
<polygon fill="none" stroke="#000000" stroke-width="2" points="274,-39.2 274,-391.2 499,-391.2 499,-39.2 274,-39.2"/>
</a>
</g>
</g>
<!-- users -->
<g id="node2" class="node">
<title>users</title>
<g id="a_node2"><a xlink:href="../../tables/users.html" xlink:title="users" target="_top">
<polygon fill="#ffffff" stroke="transparent" points="8,-65.7 8,-280.7 224,-280.7 224,-65.7 8,-65.7"/>
<polygon fill="#f5f5f5" stroke="transparent" points="8,-257.2 8,-280.2 224,-280.2 224,-257.2 8,-257.2"/>
<polygon fill="none" stroke="#000000" points="8,-257.2 8,-280.2 224,-280.2 224,-257.2 8,-257.2"/>
<text text-anchor="start" x="13" y="-266.3" font-family="Helvetica,sans-Serif" font-weight="bold" font-size="11.00" fill="#000000">users</text>
<text text-anchor="start" x="189.0437" y="-265.3" font-family="Helvetica,sans-Serif" font-size="11.00" fill="#000000">[table]</text>
<polygon fill="none" stroke="#000000" points="8,-235.2 8,-257.2 224,-257.2 224,-235.2 8,-235.2"/>
<image xlink:href="../../images/primaryKeys.png" width="11px" height="12px" preserveAspectRatio="xMinYMin meet" x="13" y="-252.2"/>
<text text-anchor="start" x="28" y="-242.3" font-family="Helvetica,sans-Serif" font-size="11.00" fill="#000000">id</text>
<polygon fill="#ffffff" stroke="transparent" points="8,-213.2 8,-235.2 224,-235.2 224,-213.2 8,-213.2"/>
<polygon fill="none" stroke="#000000" points="8,-213.2 8,-235.2 224,-235.2 224,-213.2 8,-213.2"/>
<text text-anchor="start" x="28" y="-220.3" font-family="Helvetica,sans-Serif" font-size="11.00" fill="#000000">user_name</text>
<polygon fill="#ffffff" stroke="transparent" points="8,-191.2 8,-213.2 224,-213.2 224,-191.2 8,-191.2"/>
<polygon fill="none" stroke="#000000" points="8,-191.2 8,-213.2 224,-213.2 224,-191.2 8,-191.2"/>
<text text-anchor="start" x="28" y="-198.3" font-family="Helvetica,sans-Serif" font-size="11.00" fill="#000000">first_name</text>
<polygon fill="#ffffff" stroke="transparent" points="8,-169.2 8,-191.2 224,-191.2 224,-169.2 8,-169.2"/>
<polygon fill="none" stroke="#000000" points="8,-169.2 8,-191.2 224,-191.2 224,-169.2 8,-169.2"/>
<text text-anchor="start" x="28" y="-176.3" font-family="Helvetica,sans-Serif" font-size="11.00" fill="#000000">last_name</text>
<polygon fill="#ffffff" stroke="transparent" points="8,-147.2 8,-169.2 224,-169.2 224,-147.2 8,-147.2"/>
<polygon fill="none" stroke="#000000" points="8,-147.2 8,-169.2 224,-169.2 224,-147.2 8,-147.2"/>
<text text-anchor="start" x="28" y="-154.3" font-family="Helvetica,sans-Serif" font-size="11.00" fill="#000000">status</text>
<polygon fill="#c0c0c0" stroke="transparent" points="8,-125.2 8,-147.2 224,-147.2 224,-125.2 8,-125.2"/>
<polygon fill="none" stroke="#000000" points="8,-125.2 8,-147.2 224,-147.2 224,-125.2 8,-125.2"/>
<image xlink:href="../../images/foreignKeys.png" width="11px" height="12px" preserveAspectRatio="xMinYMin meet" x="13" y="-142.2"/>
<text text-anchor="start" x="28" y="-132.3" font-family="Helvetica,sans-Serif" font-size="11.00" fill="#000000">reports_to_id</text>
<polygon fill="#ffffff" stroke="transparent" points="8,-103.2 8,-125.2 224,-125.2 224,-103.2 8,-103.2"/>
<polygon fill="none" stroke="#000000" points="8,-103.2 8,-125.2 224,-125.2 224,-103.2 8,-103.2"/>
<text text-anchor="start" x="28" y="-110.3" font-family="Helvetica,sans-Serif" font-size="11.00" fill="#000000">is_group</text>
<polygon fill="none" stroke="#000000" points="8,-84.2 8,-103.2 224,-103.2 224,-84.2 8,-84.2"/>
<text text-anchor="start" x="11" y="-90.3" font-family="Helvetica,sans-Serif" font-size="11.00" fill="#000000">...</text>
<polygon fill="#ffffff" stroke="transparent" points="8,-65.2 8,-84.2 104,-84.2 104,-65.2 8,-65.2"/>
<polygon fill="none" stroke="#000000" points="8,-65.2 8,-84.2 104,-84.2 104,-65.2 8,-65.2"/>
<text text-anchor="start" x="11" y="-71.3" font-family="Helvetica,sans-Serif" font-size="11.00" fill="#000000">&lt; 2</text>
<polygon fill="#ffffff" stroke="transparent" points="104,-65.2 104,-84.2 153,-84.2 153,-65.2 104,-65.2"/>
<polygon fill="none" stroke="#000000" points="104,-65.2 104,-84.2 153,-84.2 153,-65.2 104,-65.2"/>
<text text-anchor="start" x="143.8862" y="-71.3" font-family="Helvetica,sans-Serif" font-size="11.00" fill="#000000"> &#160;</text>
<polygon fill="#ffffff" stroke="transparent" points="153,-65.2 153,-84.2 224,-84.2 224,-65.2 153,-65.2"/>
<polygon fill="none" stroke="#000000" points="153,-65.2 153,-84.2 224,-84.2 224,-65.2 153,-65.2"/>
<text text-anchor="start" x="193.1755" y="-71.3" font-family="Helvetica,sans-Serif" font-size="11.00" fill="#000000">214 &gt;</text>
</a>
</g>
</g>
<!-- aok_knowledgebase&#45;&gt;users -->
<g id="edge1" class="edge">
<title>aok_knowledgebase:w&#45;&gt;users:e</title>
<path fill="none" stroke="#000000" d="M261.511,-184.9466C244.1935,-200.0798 255.1026,-246.2 224,-246.2"/>
<polygon fill="#000000" stroke="#000000" points="267.9242,-182.7705 276.6567,-183.6091 271.7121,-181.4853 275.5,-180.2 275.5,-180.2 275.5,-180.2 271.7121,-181.4853 274.3433,-176.7909 267.9242,-182.7705 267.9242,-182.7705"/>
<ellipse fill="none" stroke="#000000" cx="264.8939" cy="-183.7988" rx="3.2" ry="3.2"/>
</g>
<!-- aok_knowledgebase&#45;&gt;users -->
<g id="edge2" class="edge">
<title>aok_knowledgebase:w&#45;&gt;users:e</title>
<path fill="none" stroke="#000000" d="M261.0156,-246.2C248.6771,-246.2 241.1667,-246.2 224,-246.2"/>
<polygon fill="#000000" stroke="#000000" points="267.5,-246.2001 275.5,-249.8 271.5,-246.2 275.5,-246.2 275.5,-246.2 275.5,-246.2 271.5,-246.2 275.5,-242.6 267.5,-246.2001 267.5,-246.2001"/>
<ellipse fill="none" stroke="#000000" cx="264.3" cy="-246.2001" rx="3.2" ry="3.2"/>
</g>
<!-- aok_knowledgebase&#45;&gt;users -->
<g id="edge3" class="edge">
<title>aok_knowledgebase:w&#45;&gt;users:e</title>
<path fill="none" stroke="#000000" d="M261.2209,-265.141C248.531,-259.096 243.0563,-246.2 224,-246.2"/>
<polygon fill="#000000" stroke="#000000" points="267.6775,-266.5241 274.7459,-271.7201 271.5887,-267.3621 275.5,-268.2 275.5,-268.2 275.5,-268.2 271.5887,-267.3621 276.2541,-264.6799 267.6775,-266.5241 267.6775,-266.5241"/>
<ellipse fill="none" stroke="#000000" cx="264.5485" cy="-265.8538" rx="3.2" ry="3.2"/>
</g>
<!-- aok_knowledgebase_audit -->
<g id="node3" class="node">
<title>aok_knowledgebase_audit</title>
<g id="a_node3"><a xlink:href="../../tables/aok_knowledgebase_audit.html" xlink:title="aok_knowledgebase_audit" target="_top">
<polygon fill="#ffffff" stroke="transparent" points="579.5,-433.7 579.5,-538.7 776.5,-538.7 776.5,-433.7 579.5,-433.7"/>
<polygon fill="#f5f5f5" stroke="transparent" points="580,-515.2 580,-538.2 777,-538.2 777,-515.2 580,-515.2"/>
<polygon fill="none" stroke="#000000" points="580,-515.2 580,-538.2 777,-538.2 777,-515.2 580,-515.2"/>
<text text-anchor="start" x="585" y="-524.3" font-family="Helvetica,sans-Serif" font-weight="bold" font-size="11.00" fill="#000000">aok_knowledgebase_audit</text>
<text text-anchor="start" x="742.0437" y="-523.3" font-family="Helvetica,sans-Serif" font-size="11.00" fill="#000000">[table]</text>
<polygon fill="none" stroke="#000000" points="580,-493.2 580,-515.2 777,-515.2 777,-493.2 580,-493.2"/>
<image xlink:href="../../images/primaryKeys.png" width="11px" height="12px" preserveAspectRatio="xMinYMin meet" x="585" y="-510.2"/>
<text text-anchor="start" x="600" y="-500.3" font-family="Helvetica,sans-Serif" font-size="11.00" fill="#000000">id</text>
<polygon fill="#c0c0c0" stroke="transparent" points="580,-471.2 580,-493.2 777,-493.2 777,-471.2 580,-471.2"/>
<polygon fill="none" stroke="#000000" points="580,-471.2 580,-493.2 777,-493.2 777,-471.2 580,-471.2"/>
<image xlink:href="../../images/foreignKeys.png" width="11px" height="12px" preserveAspectRatio="xMinYMin meet" x="585" y="-488.2"/>
<text text-anchor="start" x="600" y="-478.3" font-family="Helvetica,sans-Serif" font-size="11.00" fill="#000000">parent_id</text>
<polygon fill="none" stroke="#000000" points="580,-452.2 580,-471.2 777,-471.2 777,-452.2 580,-452.2"/>
<text text-anchor="start" x="583" y="-458.3" font-family="Helvetica,sans-Serif" font-size="11.00" fill="#000000">...</text>
<polygon fill="#ffffff" stroke="transparent" points="580,-433.2 580,-452.2 677,-452.2 677,-433.2 580,-433.2"/>
<polygon fill="none" stroke="#000000" points="580,-433.2 580,-452.2 677,-452.2 677,-433.2 580,-433.2"/>
<text text-anchor="start" x="583" y="-439.3" font-family="Helvetica,sans-Serif" font-size="11.00" fill="#000000">&lt; 1</text>
<polygon fill="#ffffff" stroke="transparent" points="677,-433.2 677,-452.2 727,-452.2 727,-433.2 677,-433.2"/>
<polygon fill="none" stroke="#000000" points="677,-433.2 677,-452.2 727,-452.2 727,-433.2 677,-433.2"/>
<text text-anchor="start" x="717.8862" y="-439.3" font-family="Helvetica,sans-Serif" font-size="11.00" fill="#000000"> &#160;</text>
<polygon fill="#ffffff" stroke="transparent" points="727,-433.2 727,-452.2 777,-452.2 777,-433.2 727,-433.2"/>
<polygon fill="none" stroke="#000000" points="727,-433.2 727,-452.2 777,-452.2 777,-433.2 727,-433.2"/>
<text text-anchor="start" x="767.8862" y="-439.3" font-family="Helvetica,sans-Serif" font-size="11.00" fill="#000000"> &#160;</text>
</a>
</g>
</g>
<!-- aok_knowledgebase_audit&#45;&gt;aok_knowledgebase -->
<g id="edge4" class="edge">
<title>aok_knowledgebase_audit:w&#45;&gt;aok_knowledgebase:e</title>
<path fill="none" stroke="#000000" d="M565.565,-479.6831C521.1854,-461.9247 559.5925,-356.2 498.5,-356.2"/>
<polygon fill="#000000" stroke="#000000" points="572.1189,-480.8258 579.3816,-485.7465 576.0595,-481.5129 580,-482.2 580,-482.2 580,-482.2 576.0595,-481.5129 580.6184,-478.6535 572.1189,-480.8258 572.1189,-480.8258"/>
<ellipse fill="none" stroke="#000000" cx="568.9665" cy="-480.2761" rx="3.2" ry="3.2"/>
</g>
<!-- aok_knowledgebase_categories -->
<g id="node4" class="node">
<title>aok_knowledgebase_categories</title>
<g id="a_node4"><a xlink:href="../../tables/aok_knowledgebase_categories.html" xlink:title="aok_knowledgebase_categories" target="_top">
<polygon fill="#ffffff" stroke="transparent" points="549,-285.7 549,-412.7 807,-412.7 807,-285.7 549,-285.7"/>
<polygon fill="#f5f5f5" stroke="transparent" points="549,-389.2 549,-412.2 807,-412.2 807,-389.2 549,-389.2"/>
<polygon fill="none" stroke="#000000" points="549,-389.2 549,-412.2 807,-412.2 807,-389.2 549,-389.2"/>
<text text-anchor="start" x="554" y="-398.3" font-family="Helvetica,sans-Serif" font-weight="bold" font-size="11.00" fill="#000000">aok_knowledgebase_categories</text>
<text text-anchor="start" x="772.0437" y="-397.3" font-family="Helvetica,sans-Serif" font-size="11.00" fill="#000000">[table]</text>
<polygon fill="none" stroke="#000000" points="549,-367.2 549,-389.2 807,-389.2 807,-367.2 549,-367.2"/>
<image xlink:href="../../images/primaryKeys.png" width="11px" height="12px" preserveAspectRatio="xMinYMin meet" x="554" y="-384.2"/>
<text text-anchor="start" x="569" y="-374.3" font-family="Helvetica,sans-Serif" font-size="11.00" fill="#000000">id</text>
<polygon fill="#ffffff" stroke="transparent" points="549,-345.2 549,-367.2 807,-367.2 807,-345.2 549,-345.2"/>
<polygon fill="none" stroke="#000000" points="549,-345.2 549,-367.2 807,-367.2 807,-345.2 549,-345.2"/>
<image xlink:href="../../images/foreignKeys.png" width="11px" height="12px" preserveAspectRatio="xMinYMin meet" x="554" y="-362.2"/>
<text text-anchor="start" x="569" y="-352.3" font-family="Helvetica,sans-Serif" font-size="11.00" fill="#000000">aok_knowledgebase_id</text>
<polygon fill="#ffffff" stroke="transparent" points="549,-323.2 549,-345.2 807,-345.2 807,-323.2 549,-323.2"/>
<polygon fill="none" stroke="#000000" points="549,-323.2 549,-345.2 807,-345.2 807,-323.2 549,-323.2"/>
<image xlink:href="../../images/foreignKeys.png" width="11px" height="12px" preserveAspectRatio="xMinYMin meet" x="554" y="-340.2"/>
<text text-anchor="start" x="569" y="-330.3" font-family="Helvetica,sans-Serif" font-size="11.00" fill="#000000">aok_knowledge_base_categories_id</text>
<polygon fill="none" stroke="#000000" points="549,-304.2 549,-323.2 807,-323.2 807,-304.2 549,-304.2"/>
<text text-anchor="start" x="552" y="-310.3" font-family="Helvetica,sans-Serif" font-size="11.00" fill="#000000">...</text>
<polygon fill="#ffffff" stroke="transparent" points="549,-285.2 549,-304.2 676,-304.2 676,-285.2 549,-285.2"/>
<polygon fill="none" stroke="#000000" points="549,-285.2 549,-304.2 676,-304.2 676,-285.2 549,-285.2"/>
<text text-anchor="start" x="552" y="-291.3" font-family="Helvetica,sans-Serif" font-size="11.00" fill="#000000">&lt; 2</text>
<polygon fill="#ffffff" stroke="transparent" points="676,-285.2 676,-304.2 741,-304.2 741,-285.2 676,-285.2"/>
<polygon fill="none" stroke="#000000" points="676,-285.2 676,-304.2 741,-304.2 741,-285.2 676,-285.2"/>
<text text-anchor="start" x="731.8862" y="-291.3" font-family="Helvetica,sans-Serif" font-size="11.00" fill="#000000"> &#160;</text>
<polygon fill="#ffffff" stroke="transparent" points="741,-285.2 741,-304.2 807,-304.2 807,-285.2 741,-285.2"/>
<polygon fill="none" stroke="#000000" points="741,-285.2 741,-304.2 807,-304.2 807,-285.2 741,-285.2"/>
<text text-anchor="start" x="797.8862" y="-291.3" font-family="Helvetica,sans-Serif" font-size="11.00" fill="#000000"> &#160;</text>
</a>
</g>
</g>
<!-- aok_knowledgebase_categories&#45;&gt;aok_knowledgebase -->
<g id="edge5" class="edge">
<title>aok_knowledgebase_categories:w&#45;&gt;aok_knowledgebase:e</title>
<path fill="none" stroke="#000000" d="M534.4203,-356.2C522.5435,-356.2 515.158,-356.2 498.5,-356.2"/>
<polygon fill="#000000" stroke="#000000" points="541,-356.2001 549,-359.8 545,-356.2 549,-356.2 549,-356.2 549,-356.2 545,-356.2 549,-352.6 541,-356.2001 541,-356.2001"/>
<ellipse fill="none" stroke="#000000" cx="537.8" cy="-356.2001" rx="3.2" ry="3.2"/>
</g>
<!-- securitygroups_records -->
<g id="node5" class="node">
<title>securitygroups_records</title>
<g id="a_node5"><a xlink:href="../../tables/securitygroups_records.html" xlink:title="securitygroups_records" target="_top">
<polygon fill="#ffffff" stroke="transparent" points="588.5,-93.7 588.5,-264.7 767.5,-264.7 767.5,-93.7 588.5,-93.7"/>
<polygon fill="#f5f5f5" stroke="transparent" points="589,-241.2 589,-264.2 768,-264.2 768,-241.2 589,-241.2"/>
<polygon fill="none" stroke="#000000" points="589,-241.2 589,-264.2 768,-264.2 768,-241.2 589,-241.2"/>
<text text-anchor="start" x="594" y="-250.3" font-family="Helvetica,sans-Serif" font-weight="bold" font-size="11.00" fill="#000000">securitygroups_records</text>
<text text-anchor="start" x="733.0437" y="-249.3" font-family="Helvetica,sans-Serif" font-size="11.00" fill="#000000">[table]</text>
<polygon fill="none" stroke="#000000" points="589,-219.2 589,-241.2 768,-241.2 768,-219.2 589,-219.2"/>
<image xlink:href="../../images/primaryKeys.png" width="11px" height="12px" preserveAspectRatio="xMinYMin meet" x="594" y="-236.2"/>
<text text-anchor="start" x="609" y="-226.3" font-family="Helvetica,sans-Serif" font-size="11.00" fill="#000000">id</text>
<polygon fill="#ffffff" stroke="transparent" points="589,-197.2 589,-219.2 768,-219.2 768,-197.2 589,-197.2"/>
<polygon fill="none" stroke="#000000" points="589,-197.2 589,-219.2 768,-219.2 768,-197.2 589,-197.2"/>
<image xlink:href="../../images/foreignKeys.png" width="11px" height="12px" preserveAspectRatio="xMinYMin meet" x="594" y="-214.2"/>
<text text-anchor="start" x="609" y="-204.3" font-family="Helvetica,sans-Serif" font-size="11.00" fill="#000000">securitygroup_id</text>
<polygon fill="#ffffff" stroke="transparent" points="589,-175.2 589,-197.2 768,-197.2 768,-175.2 589,-175.2"/>
<polygon fill="none" stroke="#000000" points="589,-175.2 589,-197.2 768,-197.2 768,-175.2 589,-175.2"/>
<image xlink:href="../../images/foreignKeys.png" width="11px" height="12px" preserveAspectRatio="xMinYMin meet" x="594" y="-192.2"/>
<text text-anchor="start" x="609" y="-182.3" font-family="Helvetica,sans-Serif" font-size="11.00" fill="#000000">record_id</text>
<polygon fill="#ffffff" stroke="transparent" points="589,-153.2 589,-175.2 768,-175.2 768,-153.2 589,-153.2"/>
<polygon fill="none" stroke="#000000" points="589,-153.2 589,-175.2 768,-175.2 768,-153.2 589,-153.2"/>
<text text-anchor="start" x="609" y="-160.3" font-family="Helvetica,sans-Serif" font-size="11.00" fill="#000000">module</text>
<polygon fill="#ffffff" stroke="transparent" points="589,-131.2 589,-153.2 768,-153.2 768,-131.2 589,-131.2"/>
<polygon fill="none" stroke="#000000" points="589,-131.2 589,-153.2 768,-153.2 768,-131.2 589,-131.2"/>
<text text-anchor="start" x="609" y="-138.3" font-family="Helvetica,sans-Serif" font-size="11.00" fill="#000000">deleted</text>
<polygon fill="none" stroke="#000000" points="589,-112.2 589,-131.2 768,-131.2 768,-112.2 589,-112.2"/>
<text text-anchor="start" x="592" y="-118.3" font-family="Helvetica,sans-Serif" font-size="11.00" fill="#000000">...</text>
<polygon fill="#ffffff" stroke="transparent" points="589,-93.2 589,-112.2 680,-112.2 680,-93.2 589,-93.2"/>
<polygon fill="none" stroke="#000000" points="589,-93.2 589,-112.2 680,-112.2 680,-93.2 589,-93.2"/>
<text text-anchor="start" x="592" y="-99.3" font-family="Helvetica,sans-Serif" font-size="11.00" fill="#000000">&lt; 41</text>
<polygon fill="#ffffff" stroke="transparent" points="680,-93.2 680,-112.2 724,-112.2 724,-93.2 680,-93.2"/>
<polygon fill="none" stroke="#000000" points="680,-93.2 680,-112.2 724,-112.2 724,-93.2 680,-93.2"/>
<text text-anchor="start" x="714.8862" y="-99.3" font-family="Helvetica,sans-Serif" font-size="11.00" fill="#000000"> &#160;</text>
<polygon fill="#ffffff" stroke="transparent" points="724,-93.2 724,-112.2 768,-112.2 768,-93.2 724,-93.2"/>
<polygon fill="none" stroke="#000000" points="724,-93.2 724,-112.2 768,-112.2 768,-93.2 724,-93.2"/>
<text text-anchor="start" x="758.8862" y="-99.3" font-family="Helvetica,sans-Serif" font-size="11.00" fill="#000000"> &#160;</text>
</a>
</g>
</g>
<!-- securitygroups_records&#45;&gt;aok_knowledgebase -->
<g id="edge6" class="edge">
<title>securitygroups_records:w&#45;&gt;aok_knowledgebase:e</title>
<path fill="none" stroke="#000000" d="M574.5415,-188.5325C548.061,-198.7559 559.3865,-240.638 541,-275.2 521.9061,-311.0917 539.1545,-356.2 498.5,-356.2"/>
<polygon fill="#000000" stroke="#000000" points="581.1021,-187.4742 589.5734,-189.7541 585.0511,-186.8371 589,-186.2 589,-186.2 589,-186.2 585.0511,-186.8371 588.4266,-182.6459 581.1021,-187.4742 581.1021,-187.4742"/>
<ellipse fill="none" stroke="#000000" cx="577.943" cy="-187.9838" rx="3.2" ry="3.2"/>
</g>
</g>
</svg>
