<?xml version="1.0" encoding="UTF-8" standalone="no"?>
<!DOCTYPE svg PUBLIC "-//W3C//DTD SVG 1.1//EN"
 "http://www.w3.org/Graphics/SVG/1.1/DTD/svg11.dtd">
<!-- Generated by graphviz version 2.40.1 (20161225.0304)
 -->
<!-- Title: twoDegreesRelationshipsDiagram Pages: 1 -->
<svg width="640pt" height="371pt"
 viewBox="0.00 0.00 640.00 371.20" xmlns="http://www.w3.org/2000/svg" xmlns:xlink="http://www.w3.org/1999/xlink">
<g id="graph0" class="graph" transform="scale(1 1) rotate(0) translate(4 367.2)">
<title>twoDegreesRelationshipsDiagram</title>
<polygon fill="#ffffff" stroke="transparent" points="-4,4 -4,-367.2 636,-367.2 636,4 -4,4"/>
<text text-anchor="middle" x="72.4936" y="-7.3" font-family="Helvetica,sans-Serif" font-size="11.00" fill="#000000">Generated by SchemaSpy</text>
<!-- aok_knowledgebase_categories -->
<g id="node1" class="node">
<title>aok_knowledgebase_categories</title>
<g id="a_node1"><a xlink:href="../../tables/aok_knowledgebase_categories.html" xlink:title="aok_knowledgebase_categories" target="_top">
<polygon fill="#ffffff" stroke="transparent" points="296,-120.7 296,-276.7 624,-276.7 624,-120.7 296,-120.7"/>
<polygon fill="#f5f5f5" stroke="transparent" points="298,-251.7 298,-274.7 622,-274.7 622,-251.7 298,-251.7"/>
<polygon fill="none" stroke="#000000" points="298,-251.7 298,-274.7 622,-274.7 622,-251.7 298,-251.7"/>
<text text-anchor="start" x="303" y="-260.8" font-family="Helvetica,sans-Serif" font-weight="bold" font-size="11.00" fill="#000000">aok_knowledgebase_categories</text>
<text text-anchor="start" x="587.0437" y="-259.8" font-family="Helvetica,sans-Serif" font-size="11.00" fill="#000000">[table]</text>
<polygon fill="none" stroke="#000000" points="298,-229.7 298,-251.7 556,-251.7 556,-229.7 298,-229.7"/>
<image xlink:href="../../images/primaryKeys.png" width="11px" height="12px" preserveAspectRatio="xMinYMin meet" x="303" y="-246.7"/>
<text text-anchor="start" x="318" y="-236.8" font-family="Helvetica,sans-Serif" font-size="11.00" fill="#000000">id</text>
<polygon fill="none" stroke="#000000" points="556,-229.7 556,-251.7 622,-251.7 622,-229.7 556,-229.7"/>
<text text-anchor="start" x="559" y="-237.4" font-family="Helvetica,sans-Serif" font-size="11.00" fill="#000000">varchar[36]</text>
<polygon fill="none" stroke="#000000" points="298,-207.7 298,-229.7 556,-229.7 556,-207.7 298,-207.7"/>
<text text-anchor="start" x="318" y="-214.8" font-family="Helvetica,sans-Serif" font-size="11.00" fill="#000000">date_modified</text>
<polygon fill="none" stroke="#000000" points="556,-207.7 556,-229.7 622,-229.7 622,-207.7 556,-207.7"/>
<text text-anchor="start" x="558.7401" y="-215.4" font-family="Helvetica,sans-Serif" font-size="11.00" fill="#000000">datetime[26]</text>
<polygon fill="none" stroke="#000000" points="298,-185.7 298,-207.7 556,-207.7 556,-185.7 298,-185.7"/>
<text text-anchor="start" x="318" y="-192.8" font-family="Helvetica,sans-Serif" font-size="11.00" fill="#000000">deleted</text>
<polygon fill="none" stroke="#000000" points="556,-185.7 556,-207.7 622,-207.7 622,-185.7 556,-185.7"/>
<text text-anchor="start" x="559" y="-193.4" font-family="Helvetica,sans-Serif" font-size="11.00" fill="#000000">bit[1]</text>
<polygon fill="#ffffff" stroke="transparent" points="298,-163.7 298,-185.7 556,-185.7 556,-163.7 298,-163.7"/>
<polygon fill="none" stroke="#000000" points="298,-163.7 298,-185.7 556,-185.7 556,-163.7 298,-163.7"/>
<image xlink:href="../../images/foreignKeys.png" width="11px" height="12px" preserveAspectRatio="xMinYMin meet" x="303" y="-180.7"/>
<text text-anchor="start" x="318" y="-170.8" font-family="Helvetica,sans-Serif" font-size="11.00" fill="#000000">aok_knowledgebase_id</text>
<polygon fill="none" stroke="#000000" points="556,-163.7 556,-185.7 622,-185.7 622,-163.7 556,-163.7"/>
<text text-anchor="start" x="559" y="-171.4" font-family="Helvetica,sans-Serif" font-size="11.00" fill="#000000">varchar[36]</text>
<polygon fill="#ffffff" stroke="transparent" points="298,-141.7 298,-163.7 556,-163.7 556,-141.7 298,-141.7"/>
<polygon fill="none" stroke="#000000" points="298,-141.7 298,-163.7 556,-163.7 556,-141.7 298,-141.7"/>
<image xlink:href="../../images/foreignKeys.png" width="11px" height="12px" preserveAspectRatio="xMinYMin meet" x="303" y="-158.7"/>
<text text-anchor="start" x="318" y="-148.8" font-family="Helvetica,sans-Serif" font-size="11.00" fill="#000000">aok_knowledge_base_categories_id</text>
<polygon fill="none" stroke="#000000" points="556,-141.7 556,-163.7 622,-163.7 622,-141.7 556,-141.7"/>
<text text-anchor="start" x="559" y="-149.4" font-family="Helvetica,sans-Serif" font-size="11.00" fill="#000000">varchar[36]</text>
<polygon fill="#ffffff" stroke="transparent" points="298,-122.7 298,-141.7 431,-141.7 431,-122.7 298,-122.7"/>
<polygon fill="none" stroke="#000000" points="298,-122.7 298,-141.7 431,-141.7 431,-122.7 298,-122.7"/>
<text text-anchor="start" x="301" y="-128.8" font-family="Helvetica,sans-Serif" font-size="11.00" fill="#000000">&lt; 2</text>
<polygon fill="#ffffff" stroke="transparent" points="431,-122.7 431,-141.7 556,-141.7 556,-122.7 431,-122.7"/>
<polygon fill="none" stroke="#000000" points="431,-122.7 431,-141.7 556,-141.7 556,-122.7 431,-122.7"/>
<text text-anchor="start" x="546.8862" y="-128.8" font-family="Helvetica,sans-Serif" font-size="11.00" fill="#000000"> &#160;</text>
<polygon fill="#ffffff" stroke="transparent" points="556,-122.7 556,-141.7 622,-141.7 622,-122.7 556,-122.7"/>
<polygon fill="none" stroke="#000000" points="556,-122.7 556,-141.7 622,-141.7 622,-122.7 556,-122.7"/>
<text text-anchor="start" x="603.4053" y="-128.8" font-family="Helvetica,sans-Serif" font-size="11.00" fill="#000000">0 &gt;</text>
<polygon fill="none" stroke="#000000" stroke-width="2" points="297,-121.7 297,-275.7 623,-275.7 623,-121.7 297,-121.7"/>
</a>
</g>
</g>
<!-- aok_knowledge_base_categories -->
<g id="node2" class="node">
<title>aok_knowledge_base_categories</title>
<g id="a_node2"><a xlink:href="../../tables/aok_knowledge_base_categories.html" xlink:title="aok_knowledge_base_categories" target="_top">
<polygon fill="#ffffff" stroke="transparent" points="8,-38.2 8,-187.2 247,-187.2 247,-38.2 8,-38.2"/>
<polygon fill="#f5f5f5" stroke="transparent" points="8.5,-163.7 8.5,-186.7 247.5,-186.7 247.5,-163.7 8.5,-163.7"/>
<polygon fill="none" stroke="#000000" points="8.5,-163.7 8.5,-186.7 247.5,-186.7 247.5,-163.7 8.5,-163.7"/>
<text text-anchor="start" x="13.5" y="-172.8" font-family="Helvetica,sans-Serif" font-weight="bold" font-size="11.00" fill="#000000">aok_knowledge_base_categories</text>
<text text-anchor="start" x="212.5437" y="-171.8" font-family="Helvetica,sans-Serif" font-size="11.00" fill="#000000">[table]</text>
<polygon fill="none" stroke="#000000" points="8.5,-141.7 8.5,-163.7 247.5,-163.7 247.5,-141.7 8.5,-141.7"/>
<image xlink:href="../../images/primaryKeys.png" width="11px" height="12px" preserveAspectRatio="xMinYMin meet" x="13.5" y="-158.7"/>
<text text-anchor="start" x="28.5" y="-148.8" font-family="Helvetica,sans-Serif" font-size="11.00" fill="#000000">id</text>
<polygon fill="#c0c0c0" stroke="transparent" points="8.5,-119.7 8.5,-141.7 247.5,-141.7 247.5,-119.7 8.5,-119.7"/>
<polygon fill="none" stroke="#000000" points="8.5,-119.7 8.5,-141.7 247.5,-141.7 247.5,-119.7 8.5,-119.7"/>
<image xlink:href="../../images/foreignKeys.png" width="11px" height="12px" preserveAspectRatio="xMinYMin meet" x="13.5" y="-136.7"/>
<text text-anchor="start" x="28.5" y="-126.8" font-family="Helvetica,sans-Serif" font-size="11.00" fill="#000000">modified_user_id</text>
<polygon fill="#c0c0c0" stroke="transparent" points="8.5,-97.7 8.5,-119.7 247.5,-119.7 247.5,-97.7 8.5,-97.7"/>
<polygon fill="none" stroke="#000000" points="8.5,-97.7 8.5,-119.7 247.5,-119.7 247.5,-97.7 8.5,-97.7"/>
<image xlink:href="../../images/foreignKeys.png" width="11px" height="12px" preserveAspectRatio="xMinYMin meet" x="13.5" y="-114.7"/>
<text text-anchor="start" x="28.5" y="-104.8" font-family="Helvetica,sans-Serif" font-size="11.00" fill="#000000">created_by</text>
<polygon fill="#c0c0c0" stroke="transparent" points="8.5,-75.7 8.5,-97.7 247.5,-97.7 247.5,-75.7 8.5,-75.7"/>
<polygon fill="none" stroke="#000000" points="8.5,-75.7 8.5,-97.7 247.5,-97.7 247.5,-75.7 8.5,-75.7"/>
<image xlink:href="../../images/foreignKeys.png" width="11px" height="12px" preserveAspectRatio="xMinYMin meet" x="13.5" y="-92.7"/>
<text text-anchor="start" x="28.5" y="-82.8" font-family="Helvetica,sans-Serif" font-size="11.00" fill="#000000">assigned_user_id</text>
<polygon fill="none" stroke="#000000" points="8.5,-56.7 8.5,-75.7 247.5,-75.7 247.5,-56.7 8.5,-56.7"/>
<text text-anchor="start" x="11.5" y="-62.8" font-family="Helvetica,sans-Serif" font-size="11.00" fill="#000000">...</text>
<polygon fill="#ffffff" stroke="transparent" points="8.5,-37.7 8.5,-56.7 121.5,-56.7 121.5,-37.7 8.5,-37.7"/>
<polygon fill="none" stroke="#000000" points="8.5,-37.7 8.5,-56.7 121.5,-56.7 121.5,-37.7 8.5,-37.7"/>
<text text-anchor="start" x="11.5" y="-43.8" font-family="Helvetica,sans-Serif" font-size="11.00" fill="#000000">&lt; 3</text>
<polygon fill="#ffffff" stroke="transparent" points="121.5,-37.7 121.5,-56.7 179.5,-56.7 179.5,-37.7 121.5,-37.7"/>
<polygon fill="none" stroke="#000000" points="121.5,-37.7 121.5,-56.7 179.5,-56.7 179.5,-37.7 121.5,-37.7"/>
<text text-anchor="start" x="170.3862" y="-43.8" font-family="Helvetica,sans-Serif" font-size="11.00" fill="#000000"> &#160;</text>
<polygon fill="#ffffff" stroke="transparent" points="179.5,-37.7 179.5,-56.7 247.5,-56.7 247.5,-37.7 179.5,-37.7"/>
<polygon fill="none" stroke="#000000" points="179.5,-37.7 179.5,-56.7 247.5,-56.7 247.5,-37.7 179.5,-37.7"/>
<text text-anchor="start" x="228.9053" y="-43.8" font-family="Helvetica,sans-Serif" font-size="11.00" fill="#000000">2 &gt;</text>
</a>
</g>
</g>
<!-- aok_knowledgebase_categories&#45;&gt;aok_knowledge_base_categories -->
<g id="edge1" class="edge">
<title>aok_knowledgebase_categories:w&#45;&gt;aok_knowledge_base_categories:e</title>
<path fill="none" stroke="#000000" d="M283.4203,-152.7C271.5435,-152.7 264.158,-152.7 247.5,-152.7"/>
<polygon fill="#000000" stroke="#000000" points="290,-152.7001 298,-156.3 294,-152.7 298,-152.7 298,-152.7 298,-152.7 294,-152.7 298,-149.1 290,-152.7001 290,-152.7001"/>
<ellipse fill="none" stroke="#000000" cx="286.8" cy="-152.7001" rx="3.2" ry="3.2"/>
</g>
<!-- aok_knowledgebase -->
<g id="node3" class="node">
<title>aok_knowledgebase</title>
<g id="a_node3"><a xlink:href="../../tables/aok_knowledgebase.html" xlink:title="aok_knowledgebase" target="_top">
<polygon fill="#ffffff" stroke="transparent" points="49.5,-209.2 49.5,-358.2 205.5,-358.2 205.5,-209.2 49.5,-209.2"/>
<polygon fill="#f5f5f5" stroke="transparent" points="49.5,-334.7 49.5,-357.7 205.5,-357.7 205.5,-334.7 49.5,-334.7"/>
<polygon fill="none" stroke="#000000" points="49.5,-334.7 49.5,-357.7 205.5,-357.7 205.5,-334.7 49.5,-334.7"/>
<text text-anchor="start" x="54.5" y="-343.8" font-family="Helvetica,sans-Serif" font-weight="bold" font-size="11.00" fill="#000000">aok_knowledgebase</text>
<text text-anchor="start" x="170.5437" y="-342.8" font-family="Helvetica,sans-Serif" font-size="11.00" fill="#000000">[table]</text>
<polygon fill="none" stroke="#000000" points="49.5,-312.7 49.5,-334.7 205.5,-334.7 205.5,-312.7 49.5,-312.7"/>
<image xlink:href="../../images/primaryKeys.png" width="11px" height="12px" preserveAspectRatio="xMinYMin meet" x="54.5" y="-329.7"/>
<text text-anchor="start" x="69.5" y="-319.8" font-family="Helvetica,sans-Serif" font-size="11.00" fill="#000000">id</text>
<polygon fill="#c0c0c0" stroke="transparent" points="49.5,-290.7 49.5,-312.7 205.5,-312.7 205.5,-290.7 49.5,-290.7"/>
<polygon fill="none" stroke="#000000" points="49.5,-290.7 49.5,-312.7 205.5,-312.7 205.5,-290.7 49.5,-290.7"/>
<image xlink:href="../../images/foreignKeys.png" width="11px" height="12px" preserveAspectRatio="xMinYMin meet" x="54.5" y="-307.7"/>
<text text-anchor="start" x="69.5" y="-297.8" font-family="Helvetica,sans-Serif" font-size="11.00" fill="#000000">modified_user_id</text>
<polygon fill="#c0c0c0" stroke="transparent" points="49.5,-268.7 49.5,-290.7 205.5,-290.7 205.5,-268.7 49.5,-268.7"/>
<polygon fill="none" stroke="#000000" points="49.5,-268.7 49.5,-290.7 205.5,-290.7 205.5,-268.7 49.5,-268.7"/>
<image xlink:href="../../images/foreignKeys.png" width="11px" height="12px" preserveAspectRatio="xMinYMin meet" x="54.5" y="-285.7"/>
<text text-anchor="start" x="69.5" y="-275.8" font-family="Helvetica,sans-Serif" font-size="11.00" fill="#000000">created_by</text>
<polygon fill="#c0c0c0" stroke="transparent" points="49.5,-246.7 49.5,-268.7 205.5,-268.7 205.5,-246.7 49.5,-246.7"/>
<polygon fill="none" stroke="#000000" points="49.5,-246.7 49.5,-268.7 205.5,-268.7 205.5,-246.7 49.5,-246.7"/>
<image xlink:href="../../images/foreignKeys.png" width="11px" height="12px" preserveAspectRatio="xMinYMin meet" x="54.5" y="-263.7"/>
<text text-anchor="start" x="69.5" y="-253.8" font-family="Helvetica,sans-Serif" font-size="11.00" fill="#000000">assigned_user_id</text>
<polygon fill="none" stroke="#000000" points="49.5,-227.7 49.5,-246.7 205.5,-246.7 205.5,-227.7 49.5,-227.7"/>
<text text-anchor="start" x="52.5" y="-233.8" font-family="Helvetica,sans-Serif" font-size="11.00" fill="#000000">...</text>
<polygon fill="#ffffff" stroke="transparent" points="49.5,-208.7 49.5,-227.7 121.5,-227.7 121.5,-208.7 49.5,-208.7"/>
<polygon fill="none" stroke="#000000" points="49.5,-208.7 49.5,-227.7 121.5,-227.7 121.5,-208.7 49.5,-208.7"/>
<text text-anchor="start" x="52.5" y="-214.8" font-family="Helvetica,sans-Serif" font-size="11.00" fill="#000000">&lt; 3</text>
<polygon fill="#ffffff" stroke="transparent" points="121.5,-208.7 121.5,-227.7 158.5,-227.7 158.5,-208.7 121.5,-208.7"/>
<polygon fill="none" stroke="#000000" points="121.5,-208.7 121.5,-227.7 158.5,-227.7 158.5,-208.7 121.5,-208.7"/>
<text text-anchor="start" x="149.3862" y="-214.8" font-family="Helvetica,sans-Serif" font-size="11.00" fill="#000000"> &#160;</text>
<polygon fill="#ffffff" stroke="transparent" points="158.5,-208.7 158.5,-227.7 205.5,-227.7 205.5,-208.7 158.5,-208.7"/>
<polygon fill="none" stroke="#000000" points="158.5,-208.7 158.5,-227.7 205.5,-227.7 205.5,-208.7 158.5,-208.7"/>
<text text-anchor="start" x="186.9053" y="-214.8" font-family="Helvetica,sans-Serif" font-size="11.00" fill="#000000">3 &gt;</text>
</a>
</g>
</g>
<!-- aok_knowledgebase_categories&#45;&gt;aok_knowledgebase -->
<g id="edge2" class="edge">
<title>aok_knowledgebase_categories:w&#45;&gt;aok_knowledgebase:e</title>
<path fill="none" stroke="#000000" d="M283.5563,-176.8063C228.2701,-194.9165 277.965,-323.7 205.5,-323.7"/>
<polygon fill="#000000" stroke="#000000" points="290.0837,-175.8545 298.5195,-178.2623 294.0419,-175.2772 298,-174.7 298,-174.7 298,-174.7 294.0419,-175.2772 297.4805,-171.1377 290.0837,-175.8545 290.0837,-175.8545"/>
<ellipse fill="none" stroke="#000000" cx="286.9172" cy="-176.3163" rx="3.2" ry="3.2"/>
</g>
<!-- securitygroups_records -->
<g id="node4" class="node">
<title>securitygroups_records</title>
<g id="a_node4"><a xlink:href="../../tables/securitygroups_records.html" xlink:title="securitygroups_records" target="_top">
<polygon fill="#ffffff" stroke="transparent" points="381.5,-298.2 381.5,-359.2 538.5,-359.2 538.5,-298.2 381.5,-298.2"/>
<polygon fill="#f5f5f5" stroke="transparent" points="382,-335.7 382,-358.7 539,-358.7 539,-335.7 382,-335.7"/>
<polygon fill="none" stroke="#000000" points="382,-335.7 382,-358.7 539,-358.7 539,-335.7 382,-335.7"/>
<text text-anchor="start" x="386.8528" y="-344.8" font-family="Helvetica,sans-Serif" font-weight="bold" font-size="11.00" fill="#000000">securitygroups_records</text>
<text text-anchor="start" x="504.5219" y="-343.8" font-family="Helvetica,sans-Serif" font-size="11.00" fill="#000000">[table]</text>
<polygon fill="none" stroke="#000000" points="382,-316.7 382,-335.7 539,-335.7 539,-316.7 382,-316.7"/>
<text text-anchor="start" x="385" y="-322.8" font-family="Helvetica,sans-Serif" font-size="11.00" fill="#000000">...</text>
<polygon fill="#ffffff" stroke="transparent" points="382,-297.7 382,-316.7 462,-316.7 462,-297.7 382,-297.7"/>
<polygon fill="none" stroke="#000000" points="382,-297.7 382,-316.7 462,-316.7 462,-297.7 382,-297.7"/>
<text text-anchor="start" x="385" y="-303.8" font-family="Helvetica,sans-Serif" font-size="11.00" fill="#000000">&lt; 41</text>
<polygon fill="#ffffff" stroke="transparent" points="462,-297.7 462,-316.7 500,-316.7 500,-297.7 462,-297.7"/>
<polygon fill="none" stroke="#000000" points="462,-297.7 462,-316.7 500,-316.7 500,-297.7 462,-297.7"/>
<text text-anchor="start" x="490.8862" y="-303.8" font-family="Helvetica,sans-Serif" font-size="11.00" fill="#000000"> &#160;</text>
<polygon fill="#ffffff" stroke="transparent" points="500,-297.7 500,-316.7 539,-316.7 539,-297.7 500,-297.7"/>
<polygon fill="none" stroke="#000000" points="500,-297.7 500,-316.7 539,-316.7 539,-297.7 500,-297.7"/>
<text text-anchor="start" x="529.8862" y="-303.8" font-family="Helvetica,sans-Serif" font-size="11.00" fill="#000000"> &#160;</text>
</a>
</g>
</g>
<!-- securitygroups_records&#45;&gt;aok_knowledgebase -->
<g id="edge3" class="edge">
<title>securitygroups_records:w&#45;&gt;aok_knowledgebase:e</title>
<path fill="none" stroke="#000000" d="M367.5329,-325.6761C300.7794,-325.4505 278.8932,-323.7 205.5,-323.7"/>
<polygon fill="#000000" stroke="#000000" points="374,-325.6868 381.994,-329.3 378,-325.6934 382,-325.7 382,-325.7 382,-325.7 378,-325.6934 382.006,-322.1 374,-325.6868 374,-325.6868"/>
<ellipse fill="none" stroke="#000000" cx="370.8" cy="-325.6815" rx="3.2" ry="3.2"/>
</g>
</g>
</svg>
