<?xml version="1.0" encoding="UTF-8" standalone="no"?>
<!DOCTYPE svg PUBLIC "-//W3C//DTD SVG 1.1//EN"
 "http://www.w3.org/Graphics/SVG/1.1/DTD/svg11.dtd">
<!-- Generated by graphviz version 2.40.1 (20161225.0304)
 -->
<!-- Title: oneDegreeRelationshipsDiagram Pages: 1 -->
<svg width="938pt" height="552pt"
 viewBox="0.00 0.00 938.00 552.20" xmlns="http://www.w3.org/2000/svg" xmlns:xlink="http://www.w3.org/1999/xlink">
<g id="graph0" class="graph" transform="scale(1 1) rotate(0) translate(4 548.2)">
<title>oneDegreeRelationshipsDiagram</title>
<polygon fill="#ffffff" stroke="transparent" points="-4,4 -4,-548.2 934,-548.2 934,4 -4,4"/>
<text text-anchor="middle" x="72.4936" y="-7.3" font-family="Helvetica,sans-Serif" font-size="11.00" fill="#000000">Generated by SchemaSpy</text>
<!-- aop_case_events -->
<g id="node1" class="node">
<title>aop_case_events</title>
<g id="a_node1"><a xlink:href="../../tables/aop_case_events.html" xlink:title="aop_case_events" target="_top">
<polygon fill="#ffffff" stroke="transparent" points="492,-253.7 492,-519.7 698,-519.7 698,-253.7 492,-253.7"/>
<polygon fill="#f5f5f5" stroke="transparent" points="494,-494.7 494,-517.7 696,-517.7 696,-494.7 494,-494.7"/>
<polygon fill="none" stroke="#000000" points="494,-494.7 494,-517.7 696,-517.7 696,-494.7 494,-494.7"/>
<text text-anchor="start" x="499" y="-503.8" font-family="Helvetica,sans-Serif" font-weight="bold" font-size="11.00" fill="#000000">aop_case_events</text>
<text text-anchor="start" x="661.0437" y="-502.8" font-family="Helvetica,sans-Serif" font-size="11.00" fill="#000000">[table]</text>
<polygon fill="none" stroke="#000000" points="494,-472.7 494,-494.7 629,-494.7 629,-472.7 494,-472.7"/>
<image xlink:href="../../images/primaryKeys.png" width="11px" height="12px" preserveAspectRatio="xMinYMin meet" x="499" y="-489.7"/>
<text text-anchor="start" x="514" y="-479.8" font-family="Helvetica,sans-Serif" font-size="11.00" fill="#000000">id</text>
<polygon fill="none" stroke="#000000" points="629,-472.7 629,-494.7 696,-494.7 696,-472.7 629,-472.7"/>
<text text-anchor="start" x="632" y="-480.4" font-family="Helvetica,sans-Serif" font-size="11.00" fill="#000000">char[36]</text>
<polygon fill="none" stroke="#000000" points="494,-450.7 494,-472.7 629,-472.7 629,-450.7 494,-450.7"/>
<text text-anchor="start" x="514" y="-457.8" font-family="Helvetica,sans-Serif" font-size="11.00" fill="#000000">name</text>
<polygon fill="none" stroke="#000000" points="629,-450.7 629,-472.7 696,-472.7 696,-450.7 629,-450.7"/>
<text text-anchor="start" x="631.9365" y="-458.4" font-family="Helvetica,sans-Serif" font-size="11.00" fill="#000000">varchar[255]</text>
<polygon fill="none" stroke="#000000" points="494,-428.7 494,-450.7 629,-450.7 629,-428.7 494,-428.7"/>
<text text-anchor="start" x="514" y="-435.8" font-family="Helvetica,sans-Serif" font-size="11.00" fill="#000000">date_entered</text>
<polygon fill="none" stroke="#000000" points="629,-428.7 629,-450.7 696,-450.7 696,-428.7 629,-428.7"/>
<text text-anchor="start" x="632" y="-436.4" font-family="Helvetica,sans-Serif" font-size="11.00" fill="#000000">datetime[26]</text>
<polygon fill="none" stroke="#000000" points="494,-406.7 494,-428.7 629,-428.7 629,-406.7 494,-406.7"/>
<text text-anchor="start" x="514" y="-413.8" font-family="Helvetica,sans-Serif" font-size="11.00" fill="#000000">date_modified</text>
<polygon fill="none" stroke="#000000" points="629,-406.7 629,-428.7 696,-428.7 696,-406.7 629,-406.7"/>
<text text-anchor="start" x="632" y="-414.4" font-family="Helvetica,sans-Serif" font-size="11.00" fill="#000000">datetime[26]</text>
<polygon fill="none" stroke="#000000" points="494,-384.7 494,-406.7 629,-406.7 629,-384.7 494,-384.7"/>
<image xlink:href="../../images/foreignKeys.png" width="11px" height="12px" preserveAspectRatio="xMinYMin meet" x="499" y="-401.7"/>
<text text-anchor="start" x="514" y="-391.8" font-family="Helvetica,sans-Serif" font-size="11.00" fill="#000000">modified_user_id</text>
<polygon fill="none" stroke="#000000" points="629,-384.7 629,-406.7 696,-406.7 696,-384.7 629,-384.7"/>
<text text-anchor="start" x="632" y="-392.4" font-family="Helvetica,sans-Serif" font-size="11.00" fill="#000000">char[36]</text>
<polygon fill="none" stroke="#000000" points="494,-362.7 494,-384.7 629,-384.7 629,-362.7 494,-362.7"/>
<image xlink:href="../../images/foreignKeys.png" width="11px" height="12px" preserveAspectRatio="xMinYMin meet" x="499" y="-379.7"/>
<text text-anchor="start" x="514" y="-369.8" font-family="Helvetica,sans-Serif" font-size="11.00" fill="#000000">created_by</text>
<polygon fill="none" stroke="#000000" points="629,-362.7 629,-384.7 696,-384.7 696,-362.7 629,-362.7"/>
<text text-anchor="start" x="632" y="-370.4" font-family="Helvetica,sans-Serif" font-size="11.00" fill="#000000">char[36]</text>
<polygon fill="none" stroke="#000000" points="494,-340.7 494,-362.7 629,-362.7 629,-340.7 494,-340.7"/>
<text text-anchor="start" x="514" y="-347.8" font-family="Helvetica,sans-Serif" font-size="11.00" fill="#000000">description</text>
<polygon fill="none" stroke="#000000" points="629,-340.7 629,-362.7 696,-362.7 696,-340.7 629,-340.7"/>
<text text-anchor="start" x="632" y="-348.4" font-family="Helvetica,sans-Serif" font-size="11.00" fill="#000000">text[65535]</text>
<polygon fill="none" stroke="#000000" points="494,-318.7 494,-340.7 629,-340.7 629,-318.7 494,-318.7"/>
<text text-anchor="start" x="514" y="-325.8" font-family="Helvetica,sans-Serif" font-size="11.00" fill="#000000">deleted</text>
<polygon fill="none" stroke="#000000" points="629,-318.7 629,-340.7 696,-340.7 696,-318.7 629,-318.7"/>
<text text-anchor="start" x="632" y="-326.4" font-family="Helvetica,sans-Serif" font-size="11.00" fill="#000000">bit[1]</text>
<polygon fill="none" stroke="#000000" points="494,-296.7 494,-318.7 629,-318.7 629,-296.7 494,-296.7"/>
<image xlink:href="../../images/foreignKeys.png" width="11px" height="12px" preserveAspectRatio="xMinYMin meet" x="499" y="-313.7"/>
<text text-anchor="start" x="514" y="-303.8" font-family="Helvetica,sans-Serif" font-size="11.00" fill="#000000">assigned_user_id</text>
<polygon fill="none" stroke="#000000" points="629,-296.7 629,-318.7 696,-318.7 696,-296.7 629,-296.7"/>
<text text-anchor="start" x="632" y="-304.4" font-family="Helvetica,sans-Serif" font-size="11.00" fill="#000000">char[36]</text>
<polygon fill="none" stroke="#000000" points="494,-274.7 494,-296.7 629,-296.7 629,-274.7 494,-274.7"/>
<image xlink:href="../../images/foreignKeys.png" width="11px" height="12px" preserveAspectRatio="xMinYMin meet" x="499" y="-291.7"/>
<text text-anchor="start" x="514" y="-281.8" font-family="Helvetica,sans-Serif" font-size="11.00" fill="#000000">case_id</text>
<polygon fill="none" stroke="#000000" points="629,-274.7 629,-296.7 696,-296.7 696,-274.7 629,-274.7"/>
<text text-anchor="start" x="632" y="-282.4" font-family="Helvetica,sans-Serif" font-size="11.00" fill="#000000">char[36]</text>
<polygon fill="#ffffff" stroke="transparent" points="494,-255.7 494,-274.7 566,-274.7 566,-255.7 494,-255.7"/>
<polygon fill="none" stroke="#000000" points="494,-255.7 494,-274.7 566,-274.7 566,-255.7 494,-255.7"/>
<text text-anchor="start" x="497" y="-261.8" font-family="Helvetica,sans-Serif" font-size="11.00" fill="#000000">&lt; 4</text>
<polygon fill="#ffffff" stroke="transparent" points="566,-255.7 566,-274.7 629,-274.7 629,-255.7 566,-255.7"/>
<polygon fill="none" stroke="#000000" points="566,-255.7 566,-274.7 629,-274.7 629,-255.7 566,-255.7"/>
<text text-anchor="start" x="619.8862" y="-261.8" font-family="Helvetica,sans-Serif" font-size="11.00" fill="#000000"> &#160;</text>
<polygon fill="#ffffff" stroke="transparent" points="629,-255.7 629,-274.7 696,-274.7 696,-255.7 629,-255.7"/>
<polygon fill="none" stroke="#000000" points="629,-255.7 629,-274.7 696,-274.7 696,-255.7 629,-255.7"/>
<text text-anchor="start" x="677.4053" y="-261.8" font-family="Helvetica,sans-Serif" font-size="11.00" fill="#000000">1 &gt;</text>
<polygon fill="none" stroke="#000000" stroke-width="2" points="493,-254.7 493,-518.7 697,-518.7 697,-254.7 493,-254.7"/>
</a>
</g>
</g>
<!-- users -->
<g id="node2" class="node">
<title>users</title>
<g id="a_node2"><a xlink:href="../../tables/users.html" xlink:title="users" target="_top">
<polygon fill="#ffffff" stroke="transparent" points="8,-111.2 8,-326.2 224,-326.2 224,-111.2 8,-111.2"/>
<polygon fill="#f5f5f5" stroke="transparent" points="8,-302.7 8,-325.7 224,-325.7 224,-302.7 8,-302.7"/>
<polygon fill="none" stroke="#000000" points="8,-302.7 8,-325.7 224,-325.7 224,-302.7 8,-302.7"/>
<text text-anchor="start" x="13" y="-311.8" font-family="Helvetica,sans-Serif" font-weight="bold" font-size="11.00" fill="#000000">users</text>
<text text-anchor="start" x="189.0437" y="-310.8" font-family="Helvetica,sans-Serif" font-size="11.00" fill="#000000">[table]</text>
<polygon fill="none" stroke="#000000" points="8,-280.7 8,-302.7 224,-302.7 224,-280.7 8,-280.7"/>
<image xlink:href="../../images/primaryKeys.png" width="11px" height="12px" preserveAspectRatio="xMinYMin meet" x="13" y="-297.7"/>
<text text-anchor="start" x="28" y="-287.8" font-family="Helvetica,sans-Serif" font-size="11.00" fill="#000000">id</text>
<polygon fill="#ffffff" stroke="transparent" points="8,-258.7 8,-280.7 224,-280.7 224,-258.7 8,-258.7"/>
<polygon fill="none" stroke="#000000" points="8,-258.7 8,-280.7 224,-280.7 224,-258.7 8,-258.7"/>
<text text-anchor="start" x="28" y="-265.8" font-family="Helvetica,sans-Serif" font-size="11.00" fill="#000000">user_name</text>
<polygon fill="#ffffff" stroke="transparent" points="8,-236.7 8,-258.7 224,-258.7 224,-236.7 8,-236.7"/>
<polygon fill="none" stroke="#000000" points="8,-236.7 8,-258.7 224,-258.7 224,-236.7 8,-236.7"/>
<text text-anchor="start" x="28" y="-243.8" font-family="Helvetica,sans-Serif" font-size="11.00" fill="#000000">first_name</text>
<polygon fill="#ffffff" stroke="transparent" points="8,-214.7 8,-236.7 224,-236.7 224,-214.7 8,-214.7"/>
<polygon fill="none" stroke="#000000" points="8,-214.7 8,-236.7 224,-236.7 224,-214.7 8,-214.7"/>
<text text-anchor="start" x="28" y="-221.8" font-family="Helvetica,sans-Serif" font-size="11.00" fill="#000000">last_name</text>
<polygon fill="#ffffff" stroke="transparent" points="8,-192.7 8,-214.7 224,-214.7 224,-192.7 8,-192.7"/>
<polygon fill="none" stroke="#000000" points="8,-192.7 8,-214.7 224,-214.7 224,-192.7 8,-192.7"/>
<text text-anchor="start" x="28" y="-199.8" font-family="Helvetica,sans-Serif" font-size="11.00" fill="#000000">status</text>
<polygon fill="#c0c0c0" stroke="transparent" points="8,-170.7 8,-192.7 224,-192.7 224,-170.7 8,-170.7"/>
<polygon fill="none" stroke="#000000" points="8,-170.7 8,-192.7 224,-192.7 224,-170.7 8,-170.7"/>
<image xlink:href="../../images/foreignKeys.png" width="11px" height="12px" preserveAspectRatio="xMinYMin meet" x="13" y="-187.7"/>
<text text-anchor="start" x="28" y="-177.8" font-family="Helvetica,sans-Serif" font-size="11.00" fill="#000000">reports_to_id</text>
<polygon fill="#ffffff" stroke="transparent" points="8,-148.7 8,-170.7 224,-170.7 224,-148.7 8,-148.7"/>
<polygon fill="none" stroke="#000000" points="8,-148.7 8,-170.7 224,-170.7 224,-148.7 8,-148.7"/>
<text text-anchor="start" x="28" y="-155.8" font-family="Helvetica,sans-Serif" font-size="11.00" fill="#000000">is_group</text>
<polygon fill="none" stroke="#000000" points="8,-129.7 8,-148.7 224,-148.7 224,-129.7 8,-129.7"/>
<text text-anchor="start" x="11" y="-135.8" font-family="Helvetica,sans-Serif" font-size="11.00" fill="#000000">...</text>
<polygon fill="#ffffff" stroke="transparent" points="8,-110.7 8,-129.7 104,-129.7 104,-110.7 8,-110.7"/>
<polygon fill="none" stroke="#000000" points="8,-110.7 8,-129.7 104,-129.7 104,-110.7 8,-110.7"/>
<text text-anchor="start" x="11" y="-116.8" font-family="Helvetica,sans-Serif" font-size="11.00" fill="#000000">&lt; 2</text>
<polygon fill="#ffffff" stroke="transparent" points="104,-110.7 104,-129.7 153,-129.7 153,-110.7 104,-110.7"/>
<polygon fill="none" stroke="#000000" points="104,-110.7 104,-129.7 153,-129.7 153,-110.7 104,-110.7"/>
<text text-anchor="start" x="143.8862" y="-116.8" font-family="Helvetica,sans-Serif" font-size="11.00" fill="#000000"> &#160;</text>
<polygon fill="#ffffff" stroke="transparent" points="153,-110.7 153,-129.7 224,-129.7 224,-110.7 153,-110.7"/>
<polygon fill="none" stroke="#000000" points="153,-110.7 153,-129.7 224,-129.7 224,-110.7 153,-110.7"/>
<text text-anchor="start" x="193.1755" y="-116.8" font-family="Helvetica,sans-Serif" font-size="11.00" fill="#000000">214 &gt;</text>
</a>
</g>
</g>
<!-- aop_case_events&#45;&gt;users -->
<g id="edge1" class="edge">
<title>aop_case_events:w&#45;&gt;users:e</title>
<path fill="none" stroke="#000000" d="M479.9116,-311.0841C470.5615,-316.3016 466.0002,-326.0855 451,-329.7 370.6335,-349.0652 341.9606,-359.8801 265,-329.7 241.8697,-320.6295 248.8452,-291.7 224,-291.7"/>
<polygon fill="#000000" stroke="#000000" points="486.2213,-309.5685 494.8408,-311.2004 490.1106,-308.6343 494,-307.7 494,-307.7 494,-307.7 490.1106,-308.6343 493.1592,-304.1996 486.2213,-309.5685 486.2213,-309.5685"/>
<ellipse fill="none" stroke="#000000" cx="483.1098" cy="-310.3159" rx="3.2" ry="3.2"/>
</g>
<!-- aop_case_events&#45;&gt;users -->
<g id="edge3" class="edge">
<title>aop_case_events:w&#45;&gt;users:e</title>
<path fill="none" stroke="#000000" d="M479.4485,-373.8779C387.7694,-376.1093 349.1219,-397.7613 265,-348.7 238.0434,-332.9784 255.2062,-291.7 224,-291.7"/>
<polygon fill="#000000" stroke="#000000" points="486.0006,-373.7979 494.044,-377.2997 490.0003,-373.7489 494,-373.7 494,-373.7 494,-373.7 490.0003,-373.7489 493.956,-370.1003 486.0006,-373.7979 486.0006,-373.7979"/>
<ellipse fill="none" stroke="#000000" cx="482.8008" cy="-373.837" rx="3.2" ry="3.2"/>
</g>
<!-- aop_case_events&#45;&gt;users -->
<g id="edge4" class="edge">
<title>aop_case_events:w&#45;&gt;users:e</title>
<path fill="none" stroke="#000000" d="M479.4384,-395.9414C387.5083,-398.9781 345.1867,-428.731 265,-373.7 231.4044,-350.6439 264.7461,-291.7 224,-291.7"/>
<polygon fill="#000000" stroke="#000000" points="486.0011,-395.8326 494.0597,-399.2995 490.0005,-395.7663 494,-395.7 494,-395.7 494,-395.7 490.0005,-395.7663 493.9403,-392.1005 486.0011,-395.8326 486.0011,-395.8326"/>
<ellipse fill="none" stroke="#000000" cx="482.8015" cy="-395.8857" rx="3.2" ry="3.2"/>
</g>
<!-- cases -->
<g id="node3" class="node">
<title>cases</title>
<g id="a_node3"><a xlink:href="../../tables/cases.html" xlink:title="cases" target="_top">
<polygon fill="#ffffff" stroke="transparent" points="273,-38.2 273,-319.2 443,-319.2 443,-38.2 273,-38.2"/>
<polygon fill="#f5f5f5" stroke="transparent" points="273,-295.7 273,-318.7 443,-318.7 443,-295.7 273,-295.7"/>
<polygon fill="none" stroke="#000000" points="273,-295.7 273,-318.7 443,-318.7 443,-295.7 273,-295.7"/>
<text text-anchor="start" x="278" y="-304.8" font-family="Helvetica,sans-Serif" font-weight="bold" font-size="11.00" fill="#000000">cases</text>
<text text-anchor="start" x="408.0437" y="-303.8" font-family="Helvetica,sans-Serif" font-size="11.00" fill="#000000">[table]</text>
<polygon fill="none" stroke="#000000" points="273,-273.7 273,-295.7 443,-295.7 443,-273.7 273,-273.7"/>
<image xlink:href="../../images/primaryKeys.png" width="11px" height="12px" preserveAspectRatio="xMinYMin meet" x="278" y="-290.7"/>
<text text-anchor="start" x="293" y="-280.8" font-family="Helvetica,sans-Serif" font-size="11.00" fill="#000000">id</text>
<polygon fill="#ffffff" stroke="transparent" points="273,-251.7 273,-273.7 443,-273.7 443,-251.7 273,-251.7"/>
<polygon fill="none" stroke="#000000" points="273,-251.7 273,-273.7 443,-273.7 443,-251.7 273,-251.7"/>
<text text-anchor="start" x="293" y="-258.8" font-family="Helvetica,sans-Serif" font-size="11.00" fill="#000000">name</text>
<polygon fill="#c0c0c0" stroke="transparent" points="273,-229.7 273,-251.7 443,-251.7 443,-229.7 273,-229.7"/>
<polygon fill="none" stroke="#000000" points="273,-229.7 273,-251.7 443,-251.7 443,-229.7 273,-229.7"/>
<image xlink:href="../../images/foreignKeys.png" width="11px" height="12px" preserveAspectRatio="xMinYMin meet" x="278" y="-246.7"/>
<text text-anchor="start" x="293" y="-236.8" font-family="Helvetica,sans-Serif" font-size="11.00" fill="#000000">modified_user_id</text>
<polygon fill="#c0c0c0" stroke="transparent" points="273,-207.7 273,-229.7 443,-229.7 443,-207.7 273,-207.7"/>
<polygon fill="none" stroke="#000000" points="273,-207.7 273,-229.7 443,-229.7 443,-207.7 273,-207.7"/>
<image xlink:href="../../images/foreignKeys.png" width="11px" height="12px" preserveAspectRatio="xMinYMin meet" x="278" y="-224.7"/>
<text text-anchor="start" x="293" y="-214.8" font-family="Helvetica,sans-Serif" font-size="11.00" fill="#000000">created_by</text>
<polygon fill="#ffffff" stroke="transparent" points="273,-185.7 273,-207.7 443,-207.7 443,-185.7 273,-185.7"/>
<polygon fill="none" stroke="#000000" points="273,-185.7 273,-207.7 443,-207.7 443,-185.7 273,-185.7"/>
<text text-anchor="start" x="293" y="-192.8" font-family="Helvetica,sans-Serif" font-size="11.00" fill="#000000">deleted</text>
<polygon fill="#c0c0c0" stroke="transparent" points="273,-163.7 273,-185.7 443,-185.7 443,-163.7 273,-163.7"/>
<polygon fill="none" stroke="#000000" points="273,-163.7 273,-185.7 443,-185.7 443,-163.7 273,-163.7"/>
<image xlink:href="../../images/foreignKeys.png" width="11px" height="12px" preserveAspectRatio="xMinYMin meet" x="278" y="-180.7"/>
<text text-anchor="start" x="293" y="-170.8" font-family="Helvetica,sans-Serif" font-size="11.00" fill="#000000">assigned_user_id</text>
<polygon fill="#ffffff" stroke="transparent" points="273,-141.7 273,-163.7 443,-163.7 443,-141.7 273,-141.7"/>
<polygon fill="none" stroke="#000000" points="273,-141.7 273,-163.7 443,-163.7 443,-141.7 273,-141.7"/>
<text text-anchor="start" x="293" y="-148.8" font-family="Helvetica,sans-Serif" font-size="11.00" fill="#000000">case_number</text>
<polygon fill="#ffffff" stroke="transparent" points="273,-119.7 273,-141.7 443,-141.7 443,-119.7 273,-119.7"/>
<polygon fill="none" stroke="#000000" points="273,-119.7 273,-141.7 443,-141.7 443,-119.7 273,-119.7"/>
<text text-anchor="start" x="293" y="-126.8" font-family="Helvetica,sans-Serif" font-size="11.00" fill="#000000">status</text>
<polygon fill="#ffffff" stroke="transparent" points="273,-97.7 273,-119.7 443,-119.7 443,-97.7 273,-97.7"/>
<polygon fill="none" stroke="#000000" points="273,-97.7 273,-119.7 443,-119.7 443,-97.7 273,-97.7"/>
<image xlink:href="../../images/foreignKeys.png" width="11px" height="12px" preserveAspectRatio="xMinYMin meet" x="278" y="-114.7"/>
<text text-anchor="start" x="293" y="-104.8" font-family="Helvetica,sans-Serif" font-size="11.00" fill="#000000">account_id</text>
<polygon fill="none" stroke="#000000" points="273,-75.7 273,-97.7 443,-97.7 443,-75.7 273,-75.7"/>
<image xlink:href="../../images/foreignKeys.png" width="11px" height="12px" preserveAspectRatio="xMinYMin meet" x="278" y="-92.7"/>
<text text-anchor="start" x="293" y="-82.8" font-family="Helvetica,sans-Serif" font-size="11.00" fill="#000000">contact_created_by_id</text>
<polygon fill="none" stroke="#000000" points="273,-56.7 273,-75.7 443,-75.7 443,-56.7 273,-56.7"/>
<text text-anchor="start" x="276" y="-62.8" font-family="Helvetica,sans-Serif" font-size="11.00" fill="#000000">...</text>
<polygon fill="#ffffff" stroke="transparent" points="273,-37.7 273,-56.7 349,-56.7 349,-37.7 273,-37.7"/>
<polygon fill="none" stroke="#000000" points="273,-37.7 273,-56.7 349,-56.7 349,-37.7 273,-37.7"/>
<text text-anchor="start" x="276" y="-43.8" font-family="Helvetica,sans-Serif" font-size="11.00" fill="#000000">&lt; 6</text>
<polygon fill="#ffffff" stroke="transparent" points="349,-37.7 349,-56.7 388,-56.7 388,-37.7 349,-37.7"/>
<polygon fill="none" stroke="#000000" points="349,-37.7 349,-56.7 388,-56.7 388,-37.7 349,-37.7"/>
<text text-anchor="start" x="378.8862" y="-43.8" font-family="Helvetica,sans-Serif" font-size="11.00" fill="#000000"> &#160;</text>
<polygon fill="#ffffff" stroke="transparent" points="388,-37.7 388,-56.7 443,-56.7 443,-37.7 388,-37.7"/>
<polygon fill="none" stroke="#000000" points="388,-37.7 388,-56.7 443,-56.7 443,-37.7 388,-37.7"/>
<text text-anchor="start" x="418.2904" y="-43.8" font-family="Helvetica,sans-Serif" font-size="11.00" fill="#000000">15 &gt;</text>
</a>
</g>
</g>
<!-- aop_case_events&#45;&gt;cases -->
<g id="edge2" class="edge">
<title>aop_case_events:w&#45;&gt;cases:e</title>
<path fill="none" stroke="#000000" d="M479.2747,-285.5349C467.2808,-285.2508 459.8262,-284.7 443,-284.7"/>
<polygon fill="#000000" stroke="#000000" points="486.0005,-285.6102 493.9596,-289.2998 490.0003,-285.6551 494,-285.7 494,-285.7 494,-285.7 490.0003,-285.6551 494.0404,-282.1002 486.0005,-285.6102 486.0005,-285.6102"/>
<ellipse fill="none" stroke="#000000" cx="482.8007" cy="-285.5743" rx="3.2" ry="3.2"/>
</g>
<!-- cases&#45;&gt;users -->
<g id="edge6" class="edge">
<title>cases:w&#45;&gt;users:e</title>
<path fill="none" stroke="#000000" d="M258.8892,-178.3299C228.7353,-198.0782 274.4302,-291.7 224,-291.7"/>
<polygon fill="#000000" stroke="#000000" points="265.2522,-176.6931 273.8969,-178.1865 269.1261,-175.6965 273,-174.7 273,-174.7 273,-174.7 269.1261,-175.6965 272.1031,-171.2135 265.2522,-176.6931 265.2522,-176.6931"/>
<ellipse fill="none" stroke="#000000" cx="262.1531" cy="-177.4903" rx="3.2" ry="3.2"/>
</g>
<!-- cases&#45;&gt;users -->
<g id="edge7" class="edge">
<title>cases:w&#45;&gt;users:e</title>
<path fill="none" stroke="#000000" d="M259.1598,-223.4897C241.3684,-239.7303 256.9702,-291.7 224,-291.7"/>
<polygon fill="#000000" stroke="#000000" points="265.4399,-221.3164 274.1774,-222.102 269.22,-220.0082 273,-218.7 273,-218.7 273,-218.7 269.22,-220.0082 271.8226,-215.298 265.4399,-221.3164 265.4399,-221.3164"/>
<ellipse fill="none" stroke="#000000" cx="262.4159" cy="-222.3629" rx="3.2" ry="3.2"/>
</g>
<!-- cases&#45;&gt;users -->
<g id="edge8" class="edge">
<title>cases:w&#45;&gt;users:e</title>
<path fill="none" stroke="#000000" d="M259.0912,-245.7765C245.2553,-258.6764 249.2939,-291.7 224,-291.7"/>
<polygon fill="#000000" stroke="#000000" points="265.4849,-243.4429 274.2343,-244.0818 269.2425,-242.0715 273,-240.7 273,-240.7 273,-240.7 269.2425,-242.0715 271.7657,-237.3182 265.4849,-243.4429 265.4849,-243.4429"/>
<ellipse fill="none" stroke="#000000" cx="262.4789" cy="-244.5401" rx="3.2" ry="3.2"/>
</g>
<!-- aop_case_events_audit -->
<g id="node4" class="node">
<title>aop_case_events_audit</title>
<g id="a_node4"><a xlink:href="../../tables/aop_case_events_audit.html" xlink:title="aop_case_events_audit" target="_top">
<polygon fill="#ffffff" stroke="transparent" points="747,-435.2 747,-540.2 922,-540.2 922,-435.2 747,-435.2"/>
<polygon fill="#f5f5f5" stroke="transparent" points="747.5,-516.7 747.5,-539.7 922.5,-539.7 922.5,-516.7 747.5,-516.7"/>
<polygon fill="none" stroke="#000000" points="747.5,-516.7 747.5,-539.7 922.5,-539.7 922.5,-516.7 747.5,-516.7"/>
<text text-anchor="start" x="752.5" y="-525.8" font-family="Helvetica,sans-Serif" font-weight="bold" font-size="11.00" fill="#000000">aop_case_events_audit</text>
<text text-anchor="start" x="887.5437" y="-524.8" font-family="Helvetica,sans-Serif" font-size="11.00" fill="#000000">[table]</text>
<polygon fill="none" stroke="#000000" points="747.5,-494.7 747.5,-516.7 922.5,-516.7 922.5,-494.7 747.5,-494.7"/>
<image xlink:href="../../images/primaryKeys.png" width="11px" height="12px" preserveAspectRatio="xMinYMin meet" x="752.5" y="-511.7"/>
<text text-anchor="start" x="767.5" y="-501.8" font-family="Helvetica,sans-Serif" font-size="11.00" fill="#000000">id</text>
<polygon fill="#c0c0c0" stroke="transparent" points="747.5,-472.7 747.5,-494.7 922.5,-494.7 922.5,-472.7 747.5,-472.7"/>
<polygon fill="none" stroke="#000000" points="747.5,-472.7 747.5,-494.7 922.5,-494.7 922.5,-472.7 747.5,-472.7"/>
<image xlink:href="../../images/foreignKeys.png" width="11px" height="12px" preserveAspectRatio="xMinYMin meet" x="752.5" y="-489.7"/>
<text text-anchor="start" x="767.5" y="-479.8" font-family="Helvetica,sans-Serif" font-size="11.00" fill="#000000">parent_id</text>
<polygon fill="none" stroke="#000000" points="747.5,-453.7 747.5,-472.7 922.5,-472.7 922.5,-453.7 747.5,-453.7"/>
<text text-anchor="start" x="750.5" y="-459.8" font-family="Helvetica,sans-Serif" font-size="11.00" fill="#000000">...</text>
<polygon fill="#ffffff" stroke="transparent" points="747.5,-434.7 747.5,-453.7 833.5,-453.7 833.5,-434.7 747.5,-434.7"/>
<polygon fill="none" stroke="#000000" points="747.5,-434.7 747.5,-453.7 833.5,-453.7 833.5,-434.7 747.5,-434.7"/>
<text text-anchor="start" x="750.5" y="-440.8" font-family="Helvetica,sans-Serif" font-size="11.00" fill="#000000">&lt; 1</text>
<polygon fill="#ffffff" stroke="transparent" points="833.5,-434.7 833.5,-453.7 877.5,-453.7 877.5,-434.7 833.5,-434.7"/>
<polygon fill="none" stroke="#000000" points="833.5,-434.7 833.5,-453.7 877.5,-453.7 877.5,-434.7 833.5,-434.7"/>
<text text-anchor="start" x="868.3862" y="-440.8" font-family="Helvetica,sans-Serif" font-size="11.00" fill="#000000"> &#160;</text>
<polygon fill="#ffffff" stroke="transparent" points="877.5,-434.7 877.5,-453.7 922.5,-453.7 922.5,-434.7 877.5,-434.7"/>
<polygon fill="none" stroke="#000000" points="877.5,-434.7 877.5,-453.7 922.5,-453.7 922.5,-434.7 877.5,-434.7"/>
<text text-anchor="start" x="913.3862" y="-440.8" font-family="Helvetica,sans-Serif" font-size="11.00" fill="#000000"> &#160;</text>
</a>
</g>
</g>
<!-- aop_case_events_audit&#45;&gt;aop_case_events -->
<g id="edge5" class="edge">
<title>aop_case_events_audit:w&#45;&gt;aop_case_events:e</title>
<path fill="none" stroke="#000000" d="M733.0156,-483.7C720.6771,-483.7 713.1667,-483.7 696,-483.7"/>
<polygon fill="#000000" stroke="#000000" points="739.5,-483.7001 747.5,-487.3 743.5,-483.7 747.5,-483.7 747.5,-483.7 747.5,-483.7 743.5,-483.7 747.5,-480.1 739.5,-483.7001 739.5,-483.7001"/>
<ellipse fill="none" stroke="#000000" cx="736.3" cy="-483.7001" rx="3.2" ry="3.2"/>
</g>
</g>
</svg>
