<?xml version="1.0" encoding="UTF-8" standalone="no"?>
<!DOCTYPE svg PUBLIC "-//W3C//DTD SVG 1.1//EN"
 "http://www.w3.org/Graphics/SVG/1.1/DTD/svg11.dtd">
<!-- Generated by graphviz version 2.40.1 (20161225.0304)
 -->
<!-- Title: oneDegreeRelationshipsDiagram Pages: 1 -->
<svg width="471pt" height="316pt"
 viewBox="0.00 0.00 471.00 316.20" xmlns="http://www.w3.org/2000/svg" xmlns:xlink="http://www.w3.org/1999/xlink">
<g id="graph0" class="graph" transform="scale(1 1) rotate(0) translate(4 312.2)">
<title>oneDegreeRelationshipsDiagram</title>
<polygon fill="#ffffff" stroke="transparent" points="-4,4 -4,-312.2 467,-312.2 467,4 -4,4"/>
<text text-anchor="middle" x="72.4936" y="-7.3" font-family="Helvetica,sans-Serif" font-size="11.00" fill="#000000">Generated by SchemaSpy</text>
<!-- aop_case_updates_audit -->
<g id="node1" class="node">
<title>aop_case_updates_audit</title>
<g id="a_node1"><a xlink:href="../../tables/aop_case_updates_audit.html" xlink:title="aop_case_updates_audit" target="_top">
<polygon fill="#ffffff" stroke="transparent" points="200,-38.2 200,-304.2 455,-304.2 455,-38.2 200,-38.2"/>
<polygon fill="#f5f5f5" stroke="transparent" points="202.5,-279.2 202.5,-302.2 453.5,-302.2 453.5,-279.2 202.5,-279.2"/>
<polygon fill="none" stroke="#000000" points="202.5,-279.2 202.5,-302.2 453.5,-302.2 453.5,-279.2 202.5,-279.2"/>
<text text-anchor="start" x="207.5" y="-288.3" font-family="Helvetica,sans-Serif" font-weight="bold" font-size="11.00" fill="#000000">aop_case_updates_audit</text>
<text text-anchor="start" x="418.5437" y="-287.3" font-family="Helvetica,sans-Serif" font-size="11.00" fill="#000000">[table]</text>
<polygon fill="none" stroke="#000000" points="202.5,-257.2 202.5,-279.2 386.5,-279.2 386.5,-257.2 202.5,-257.2"/>
<image xlink:href="../../images/primaryKeys.png" width="11px" height="12px" preserveAspectRatio="xMinYMin meet" x="207.5" y="-274.2"/>
<text text-anchor="start" x="222.5" y="-264.3" font-family="Helvetica,sans-Serif" font-size="11.00" fill="#000000">id</text>
<polygon fill="none" stroke="#000000" points="386.5,-257.2 386.5,-279.2 453.5,-279.2 453.5,-257.2 386.5,-257.2"/>
<text text-anchor="start" x="389.5" y="-264.9" font-family="Helvetica,sans-Serif" font-size="11.00" fill="#000000">char[36]</text>
<polygon fill="#ffffff" stroke="transparent" points="202.5,-235.2 202.5,-257.2 386.5,-257.2 386.5,-235.2 202.5,-235.2"/>
<polygon fill="none" stroke="#000000" points="202.5,-235.2 202.5,-257.2 386.5,-257.2 386.5,-235.2 202.5,-235.2"/>
<image xlink:href="../../images/foreignKeys.png" width="11px" height="12px" preserveAspectRatio="xMinYMin meet" x="207.5" y="-252.2"/>
<text text-anchor="start" x="222.5" y="-242.3" font-family="Helvetica,sans-Serif" font-size="11.00" fill="#000000">parent_id</text>
<polygon fill="none" stroke="#000000" points="386.5,-235.2 386.5,-257.2 453.5,-257.2 453.5,-235.2 386.5,-235.2"/>
<text text-anchor="start" x="389.5" y="-242.9" font-family="Helvetica,sans-Serif" font-size="11.00" fill="#000000">char[36]</text>
<polygon fill="none" stroke="#000000" points="202.5,-213.2 202.5,-235.2 386.5,-235.2 386.5,-213.2 202.5,-213.2"/>
<text text-anchor="start" x="222.5" y="-220.3" font-family="Helvetica,sans-Serif" font-size="11.00" fill="#000000">date_created</text>
<polygon fill="none" stroke="#000000" points="386.5,-213.2 386.5,-235.2 453.5,-235.2 453.5,-213.2 386.5,-213.2"/>
<text text-anchor="start" x="389.5" y="-220.9" font-family="Helvetica,sans-Serif" font-size="11.00" fill="#000000">datetime[26]</text>
<polygon fill="none" stroke="#000000" points="202.5,-191.2 202.5,-213.2 386.5,-213.2 386.5,-191.2 202.5,-191.2"/>
<text text-anchor="start" x="222.5" y="-198.3" font-family="Helvetica,sans-Serif" font-size="11.00" fill="#000000">created_by</text>
<polygon fill="none" stroke="#000000" points="386.5,-191.2 386.5,-213.2 453.5,-213.2 453.5,-191.2 386.5,-191.2"/>
<text text-anchor="start" x="389.5" y="-198.9" font-family="Helvetica,sans-Serif" font-size="11.00" fill="#000000">varchar[36]</text>
<polygon fill="none" stroke="#000000" points="202.5,-169.2 202.5,-191.2 386.5,-191.2 386.5,-169.2 202.5,-169.2"/>
<text text-anchor="start" x="222.5" y="-176.3" font-family="Helvetica,sans-Serif" font-size="11.00" fill="#000000">field_name</text>
<polygon fill="none" stroke="#000000" points="386.5,-169.2 386.5,-191.2 453.5,-191.2 453.5,-169.2 386.5,-169.2"/>
<text text-anchor="start" x="389.4365" y="-176.9" font-family="Helvetica,sans-Serif" font-size="11.00" fill="#000000">varchar[100]</text>
<polygon fill="none" stroke="#000000" points="202.5,-147.2 202.5,-169.2 386.5,-169.2 386.5,-147.2 202.5,-147.2"/>
<text text-anchor="start" x="222.5" y="-154.3" font-family="Helvetica,sans-Serif" font-size="11.00" fill="#000000">data_type</text>
<polygon fill="none" stroke="#000000" points="386.5,-147.2 386.5,-169.2 453.5,-169.2 453.5,-147.2 386.5,-147.2"/>
<text text-anchor="start" x="389.4365" y="-154.9" font-family="Helvetica,sans-Serif" font-size="11.00" fill="#000000">varchar[100]</text>
<polygon fill="none" stroke="#000000" points="202.5,-125.2 202.5,-147.2 386.5,-147.2 386.5,-125.2 202.5,-125.2"/>
<text text-anchor="start" x="222.5" y="-132.3" font-family="Helvetica,sans-Serif" font-size="11.00" fill="#000000">before_value_string</text>
<polygon fill="none" stroke="#000000" points="386.5,-125.2 386.5,-147.2 453.5,-147.2 453.5,-125.2 386.5,-125.2"/>
<text text-anchor="start" x="389.4365" y="-132.9" font-family="Helvetica,sans-Serif" font-size="11.00" fill="#000000">varchar[255]</text>
<polygon fill="none" stroke="#000000" points="202.5,-103.2 202.5,-125.2 386.5,-125.2 386.5,-103.2 202.5,-103.2"/>
<text text-anchor="start" x="222.5" y="-110.3" font-family="Helvetica,sans-Serif" font-size="11.00" fill="#000000">after_value_string</text>
<polygon fill="none" stroke="#000000" points="386.5,-103.2 386.5,-125.2 453.5,-125.2 453.5,-103.2 386.5,-103.2"/>
<text text-anchor="start" x="389.4365" y="-110.9" font-family="Helvetica,sans-Serif" font-size="11.00" fill="#000000">varchar[255]</text>
<polygon fill="none" stroke="#000000" points="202.5,-81.2 202.5,-103.2 386.5,-103.2 386.5,-81.2 202.5,-81.2"/>
<text text-anchor="start" x="222.5" y="-88.3" font-family="Helvetica,sans-Serif" font-size="11.00" fill="#000000">before_value_text</text>
<polygon fill="none" stroke="#000000" points="386.5,-81.2 386.5,-103.2 453.5,-103.2 453.5,-81.2 386.5,-81.2"/>
<text text-anchor="start" x="389.5" y="-88.9" font-family="Helvetica,sans-Serif" font-size="11.00" fill="#000000">text[65535]</text>
<polygon fill="none" stroke="#000000" points="202.5,-59.2 202.5,-81.2 386.5,-81.2 386.5,-59.2 202.5,-59.2"/>
<text text-anchor="start" x="222.5" y="-66.3" font-family="Helvetica,sans-Serif" font-size="11.00" fill="#000000">after_value_text</text>
<polygon fill="none" stroke="#000000" points="386.5,-59.2 386.5,-81.2 453.5,-81.2 453.5,-59.2 386.5,-59.2"/>
<text text-anchor="start" x="389.5" y="-66.9" font-family="Helvetica,sans-Serif" font-size="11.00" fill="#000000">text[65535]</text>
<polygon fill="#ffffff" stroke="transparent" points="202.5,-40.2 202.5,-59.2 298.5,-59.2 298.5,-40.2 202.5,-40.2"/>
<polygon fill="none" stroke="#000000" points="202.5,-40.2 202.5,-59.2 298.5,-59.2 298.5,-40.2 202.5,-40.2"/>
<text text-anchor="start" x="205.5" y="-46.3" font-family="Helvetica,sans-Serif" font-size="11.00" fill="#000000">&lt; 1</text>
<polygon fill="#ffffff" stroke="transparent" points="298.5,-40.2 298.5,-59.2 386.5,-59.2 386.5,-40.2 298.5,-40.2"/>
<polygon fill="none" stroke="#000000" points="298.5,-40.2 298.5,-59.2 386.5,-59.2 386.5,-40.2 298.5,-40.2"/>
<text text-anchor="start" x="377.3862" y="-46.3" font-family="Helvetica,sans-Serif" font-size="11.00" fill="#000000"> &#160;</text>
<polygon fill="#ffffff" stroke="transparent" points="386.5,-40.2 386.5,-59.2 453.5,-59.2 453.5,-40.2 386.5,-40.2"/>
<polygon fill="none" stroke="#000000" points="386.5,-40.2 386.5,-59.2 453.5,-59.2 453.5,-40.2 386.5,-40.2"/>
<text text-anchor="start" x="434.9053" y="-46.3" font-family="Helvetica,sans-Serif" font-size="11.00" fill="#000000">0 &gt;</text>
<polygon fill="none" stroke="#000000" stroke-width="2" points="201,-39.2 201,-303.2 454,-303.2 454,-39.2 201,-39.2"/>
</a>
</g>
</g>
<!-- aop_case_updates -->
<g id="node2" class="node">
<title>aop_case_updates</title>
<g id="a_node2"><a xlink:href="../../tables/aop_case_updates.html" xlink:title="aop_case_updates" target="_top">
<polygon fill="#ffffff" stroke="transparent" points="8,-87.7 8,-280.7 151,-280.7 151,-87.7 8,-87.7"/>
<polygon fill="#f5f5f5" stroke="transparent" points="8.5,-257.2 8.5,-280.2 151.5,-280.2 151.5,-257.2 8.5,-257.2"/>
<polygon fill="none" stroke="#000000" points="8.5,-257.2 8.5,-280.2 151.5,-280.2 151.5,-257.2 8.5,-257.2"/>
<text text-anchor="start" x="13.5" y="-266.3" font-family="Helvetica,sans-Serif" font-weight="bold" font-size="11.00" fill="#000000">aop_case_updates</text>
<text text-anchor="start" x="116.5437" y="-265.3" font-family="Helvetica,sans-Serif" font-size="11.00" fill="#000000">[table]</text>
<polygon fill="none" stroke="#000000" points="8.5,-235.2 8.5,-257.2 151.5,-257.2 151.5,-235.2 8.5,-235.2"/>
<image xlink:href="../../images/primaryKeys.png" width="11px" height="12px" preserveAspectRatio="xMinYMin meet" x="13.5" y="-252.2"/>
<text text-anchor="start" x="28.5" y="-242.3" font-family="Helvetica,sans-Serif" font-size="11.00" fill="#000000">id</text>
<polygon fill="#c0c0c0" stroke="transparent" points="8.5,-213.2 8.5,-235.2 151.5,-235.2 151.5,-213.2 8.5,-213.2"/>
<polygon fill="none" stroke="#000000" points="8.5,-213.2 8.5,-235.2 151.5,-235.2 151.5,-213.2 8.5,-213.2"/>
<image xlink:href="../../images/foreignKeys.png" width="11px" height="12px" preserveAspectRatio="xMinYMin meet" x="13.5" y="-230.2"/>
<text text-anchor="start" x="28.5" y="-220.3" font-family="Helvetica,sans-Serif" font-size="11.00" fill="#000000">modified_user_id</text>
<polygon fill="#c0c0c0" stroke="transparent" points="8.5,-191.2 8.5,-213.2 151.5,-213.2 151.5,-191.2 8.5,-191.2"/>
<polygon fill="none" stroke="#000000" points="8.5,-191.2 8.5,-213.2 151.5,-213.2 151.5,-191.2 8.5,-191.2"/>
<image xlink:href="../../images/foreignKeys.png" width="11px" height="12px" preserveAspectRatio="xMinYMin meet" x="13.5" y="-208.2"/>
<text text-anchor="start" x="28.5" y="-198.3" font-family="Helvetica,sans-Serif" font-size="11.00" fill="#000000">created_by</text>
<polygon fill="#c0c0c0" stroke="transparent" points="8.5,-169.2 8.5,-191.2 151.5,-191.2 151.5,-169.2 8.5,-169.2"/>
<polygon fill="none" stroke="#000000" points="8.5,-169.2 8.5,-191.2 151.5,-191.2 151.5,-169.2 8.5,-169.2"/>
<image xlink:href="../../images/foreignKeys.png" width="11px" height="12px" preserveAspectRatio="xMinYMin meet" x="13.5" y="-186.2"/>
<text text-anchor="start" x="28.5" y="-176.3" font-family="Helvetica,sans-Serif" font-size="11.00" fill="#000000">assigned_user_id</text>
<polygon fill="none" stroke="#000000" points="8.5,-147.2 8.5,-169.2 151.5,-169.2 151.5,-147.2 8.5,-147.2"/>
<image xlink:href="../../images/foreignKeys.png" width="11px" height="12px" preserveAspectRatio="xMinYMin meet" x="13.5" y="-164.2"/>
<text text-anchor="start" x="28.5" y="-154.3" font-family="Helvetica,sans-Serif" font-size="11.00" fill="#000000">case_id</text>
<polygon fill="none" stroke="#000000" points="8.5,-125.2 8.5,-147.2 151.5,-147.2 151.5,-125.2 8.5,-125.2"/>
<image xlink:href="../../images/foreignKeys.png" width="11px" height="12px" preserveAspectRatio="xMinYMin meet" x="13.5" y="-142.2"/>
<text text-anchor="start" x="28.5" y="-132.3" font-family="Helvetica,sans-Serif" font-size="11.00" fill="#000000">contact_id</text>
<polygon fill="none" stroke="#000000" points="8.5,-106.2 8.5,-125.2 151.5,-125.2 151.5,-106.2 8.5,-106.2"/>
<text text-anchor="start" x="11.5" y="-112.3" font-family="Helvetica,sans-Serif" font-size="11.00" fill="#000000">...</text>
<polygon fill="#ffffff" stroke="transparent" points="8.5,-87.2 8.5,-106.2 73.5,-106.2 73.5,-87.2 8.5,-87.2"/>
<polygon fill="none" stroke="#000000" points="8.5,-87.2 8.5,-106.2 73.5,-106.2 73.5,-87.2 8.5,-87.2"/>
<text text-anchor="start" x="11.5" y="-93.3" font-family="Helvetica,sans-Serif" font-size="11.00" fill="#000000">&lt; 5</text>
<polygon fill="#ffffff" stroke="transparent" points="73.5,-87.2 73.5,-106.2 107.5,-106.2 107.5,-87.2 73.5,-87.2"/>
<polygon fill="none" stroke="#000000" points="73.5,-87.2 73.5,-106.2 107.5,-106.2 107.5,-87.2 73.5,-87.2"/>
<text text-anchor="start" x="98.3862" y="-93.3" font-family="Helvetica,sans-Serif" font-size="11.00" fill="#000000"> &#160;</text>
<polygon fill="#ffffff" stroke="transparent" points="107.5,-87.2 107.5,-106.2 151.5,-106.2 151.5,-87.2 107.5,-87.2"/>
<polygon fill="none" stroke="#000000" points="107.5,-87.2 107.5,-106.2 151.5,-106.2 151.5,-87.2 107.5,-87.2"/>
<text text-anchor="start" x="132.9053" y="-93.3" font-family="Helvetica,sans-Serif" font-size="11.00" fill="#000000">2 &gt;</text>
</a>
</g>
</g>
<!-- aop_case_updates_audit&#45;&gt;aop_case_updates -->
<g id="edge1" class="edge">
<title>aop_case_updates_audit:w&#45;&gt;aop_case_updates:e</title>
<path fill="none" stroke="#000000" d="M187.776,-246.2C175.7815,-246.2 168.3229,-246.2 151.5,-246.2"/>
<polygon fill="#000000" stroke="#000000" points="194.5,-246.2001 202.5,-249.8 198.5,-246.2 202.5,-246.2 202.5,-246.2 202.5,-246.2 198.5,-246.2 202.5,-242.6 194.5,-246.2001 194.5,-246.2001"/>
<ellipse fill="none" stroke="#000000" cx="191.3" cy="-246.2001" rx="3.2" ry="3.2"/>
</g>
</g>
</svg>
