<?xml version="1.0" encoding="UTF-8" standalone="no"?>
<!DOCTYPE svg PUBLIC "-//W3C//DTD SVG 1.1//EN"
 "http://www.w3.org/Graphics/SVG/1.1/DTD/svg11.dtd">
<!-- Generated by graphviz version 2.40.1 (20161225.0304)
 -->
<!-- Title: twoDegreesRelationshipsDiagram Pages: 1 -->
<svg width="574pt" height="316pt"
 viewBox="0.00 0.00 574.00 316.20" xmlns="http://www.w3.org/2000/svg" xmlns:xlink="http://www.w3.org/1999/xlink">
<g id="graph0" class="graph" transform="scale(1 1) rotate(0) translate(4 312.2)">
<title>twoDegreesRelationshipsDiagram</title>
<polygon fill="#ffffff" stroke="transparent" points="-4,4 -4,-312.2 570,-312.2 570,4 -4,4"/>
<text text-anchor="middle" x="72.4936" y="-7.3" font-family="Helvetica,sans-Serif" font-size="11.00" fill="#000000">Generated by SchemaSpy</text>
<!-- aop_case_events -->
<g id="node1" class="node">
<title>aop_case_events</title>
<g id="a_node1"><a xlink:href="../../tables/aop_case_events.html" xlink:title="aop_case_events" target="_top">
<polygon fill="#ffffff" stroke="transparent" points="128,-109.7 128,-280.7 263,-280.7 263,-109.7 128,-109.7"/>
<polygon fill="#f5f5f5" stroke="transparent" points="128.5,-257.2 128.5,-280.2 263.5,-280.2 263.5,-257.2 128.5,-257.2"/>
<polygon fill="none" stroke="#000000" points="128.5,-257.2 128.5,-280.2 263.5,-280.2 263.5,-257.2 128.5,-257.2"/>
<text text-anchor="start" x="133.5" y="-266.3" font-family="Helvetica,sans-Serif" font-weight="bold" font-size="11.00" fill="#000000">aop_case_events</text>
<text text-anchor="start" x="228.5437" y="-265.3" font-family="Helvetica,sans-Serif" font-size="11.00" fill="#000000">[table]</text>
<polygon fill="none" stroke="#000000" points="128.5,-235.2 128.5,-257.2 263.5,-257.2 263.5,-235.2 128.5,-235.2"/>
<image xlink:href="../../images/primaryKeys.png" width="11px" height="12px" preserveAspectRatio="xMinYMin meet" x="133.5" y="-252.2"/>
<text text-anchor="start" x="148.5" y="-242.3" font-family="Helvetica,sans-Serif" font-size="11.00" fill="#000000">id</text>
<polygon fill="#c0c0c0" stroke="transparent" points="128.5,-213.2 128.5,-235.2 263.5,-235.2 263.5,-213.2 128.5,-213.2"/>
<polygon fill="none" stroke="#000000" points="128.5,-213.2 128.5,-235.2 263.5,-235.2 263.5,-213.2 128.5,-213.2"/>
<image xlink:href="../../images/foreignKeys.png" width="11px" height="12px" preserveAspectRatio="xMinYMin meet" x="133.5" y="-230.2"/>
<text text-anchor="start" x="148.5" y="-220.3" font-family="Helvetica,sans-Serif" font-size="11.00" fill="#000000">modified_user_id</text>
<polygon fill="#c0c0c0" stroke="transparent" points="128.5,-191.2 128.5,-213.2 263.5,-213.2 263.5,-191.2 128.5,-191.2"/>
<polygon fill="none" stroke="#000000" points="128.5,-191.2 128.5,-213.2 263.5,-213.2 263.5,-191.2 128.5,-191.2"/>
<image xlink:href="../../images/foreignKeys.png" width="11px" height="12px" preserveAspectRatio="xMinYMin meet" x="133.5" y="-208.2"/>
<text text-anchor="start" x="148.5" y="-198.3" font-family="Helvetica,sans-Serif" font-size="11.00" fill="#000000">created_by</text>
<polygon fill="#c0c0c0" stroke="transparent" points="128.5,-169.2 128.5,-191.2 263.5,-191.2 263.5,-169.2 128.5,-169.2"/>
<polygon fill="none" stroke="#000000" points="128.5,-169.2 128.5,-191.2 263.5,-191.2 263.5,-169.2 128.5,-169.2"/>
<image xlink:href="../../images/foreignKeys.png" width="11px" height="12px" preserveAspectRatio="xMinYMin meet" x="133.5" y="-186.2"/>
<text text-anchor="start" x="148.5" y="-176.3" font-family="Helvetica,sans-Serif" font-size="11.00" fill="#000000">assigned_user_id</text>
<polygon fill="none" stroke="#000000" points="128.5,-147.2 128.5,-169.2 263.5,-169.2 263.5,-147.2 128.5,-147.2"/>
<image xlink:href="../../images/foreignKeys.png" width="11px" height="12px" preserveAspectRatio="xMinYMin meet" x="133.5" y="-164.2"/>
<text text-anchor="start" x="148.5" y="-154.3" font-family="Helvetica,sans-Serif" font-size="11.00" fill="#000000">case_id</text>
<polygon fill="none" stroke="#000000" points="128.5,-128.2 128.5,-147.2 263.5,-147.2 263.5,-128.2 128.5,-128.2"/>
<text text-anchor="start" x="131.5" y="-134.3" font-family="Helvetica,sans-Serif" font-size="11.00" fill="#000000">...</text>
<polygon fill="#ffffff" stroke="transparent" points="128.5,-109.2 128.5,-128.2 189.5,-128.2 189.5,-109.2 128.5,-109.2"/>
<polygon fill="none" stroke="#000000" points="128.5,-109.2 128.5,-128.2 189.5,-128.2 189.5,-109.2 128.5,-109.2"/>
<text text-anchor="start" x="131.5" y="-115.3" font-family="Helvetica,sans-Serif" font-size="11.00" fill="#000000">&lt; 4</text>
<polygon fill="#ffffff" stroke="transparent" points="189.5,-109.2 189.5,-128.2 221.5,-128.2 221.5,-109.2 189.5,-109.2"/>
<polygon fill="none" stroke="#000000" points="189.5,-109.2 189.5,-128.2 221.5,-128.2 221.5,-109.2 189.5,-109.2"/>
<text text-anchor="start" x="212.3862" y="-115.3" font-family="Helvetica,sans-Serif" font-size="11.00" fill="#000000"> &#160;</text>
<polygon fill="#ffffff" stroke="transparent" points="221.5,-109.2 221.5,-128.2 263.5,-128.2 263.5,-109.2 221.5,-109.2"/>
<polygon fill="none" stroke="#000000" points="221.5,-109.2 221.5,-128.2 263.5,-128.2 263.5,-109.2 221.5,-109.2"/>
<text text-anchor="start" x="244.9053" y="-115.3" font-family="Helvetica,sans-Serif" font-size="11.00" fill="#000000">1 &gt;</text>
</a>
</g>
</g>
<!-- cases -->
<g id="node2" class="node">
<title>cases</title>
<g id="a_node2"><a xlink:href="../../tables/cases.html" xlink:title="cases" target="_top">
<polygon fill="#ffffff" stroke="transparent" points="8,-130.7 8,-191.7 79,-191.7 79,-130.7 8,-130.7"/>
<polygon fill="#f5f5f5" stroke="transparent" points="8.5,-168.2 8.5,-191.2 79.5,-191.2 79.5,-168.2 8.5,-168.2"/>
<polygon fill="none" stroke="#000000" points="8.5,-168.2 8.5,-191.2 79.5,-191.2 79.5,-168.2 8.5,-168.2"/>
<text text-anchor="start" x="13.1351" y="-177.3" font-family="Helvetica,sans-Serif" font-weight="bold" font-size="11.00" fill="#000000">cases</text>
<text text-anchor="start" x="45.0219" y="-176.3" font-family="Helvetica,sans-Serif" font-size="11.00" fill="#000000">[table]</text>
<polygon fill="none" stroke="#000000" points="8.5,-149.2 8.5,-168.2 79.5,-168.2 79.5,-149.2 8.5,-149.2"/>
<text text-anchor="start" x="11.5" y="-155.3" font-family="Helvetica,sans-Serif" font-size="11.00" fill="#000000">...</text>
<polygon fill="#ffffff" stroke="transparent" points="8.5,-130.2 8.5,-149.2 34.5,-149.2 34.5,-130.2 8.5,-130.2"/>
<polygon fill="none" stroke="#000000" points="8.5,-130.2 8.5,-149.2 34.5,-149.2 34.5,-130.2 8.5,-130.2"/>
<text text-anchor="start" x="11.5" y="-136.3" font-family="Helvetica,sans-Serif" font-size="11.00" fill="#000000">&lt; 6</text>
<polygon fill="#ffffff" stroke="transparent" points="34.5,-130.2 34.5,-149.2 49.5,-149.2 49.5,-130.2 34.5,-130.2"/>
<polygon fill="none" stroke="#000000" points="34.5,-130.2 34.5,-149.2 49.5,-149.2 49.5,-130.2 34.5,-130.2"/>
<text text-anchor="start" x="40.3862" y="-136.3" font-family="Helvetica,sans-Serif" font-size="11.00" fill="#000000"> &#160;</text>
<polygon fill="#ffffff" stroke="transparent" points="49.5,-130.2 49.5,-149.2 79.5,-149.2 79.5,-130.2 49.5,-130.2"/>
<polygon fill="none" stroke="#000000" points="49.5,-130.2 49.5,-149.2 79.5,-149.2 79.5,-130.2 49.5,-130.2"/>
<text text-anchor="start" x="54.7904" y="-136.3" font-family="Helvetica,sans-Serif" font-size="11.00" fill="#000000">15 &gt;</text>
</a>
</g>
</g>
<!-- aop_case_events&#45;&gt;cases -->
<g id="edge1" class="edge">
<title>aop_case_events:w&#45;&gt;cases:e</title>
<path fill="none" stroke="#000000" d="M113.9909,-158.2C102.6774,-158.2 95.4931,-158.2 79.5,-158.2"/>
<polygon fill="#000000" stroke="#000000" points="120.5,-158.2001 128.5,-161.8 124.5,-158.2 128.5,-158.2 128.5,-158.2 128.5,-158.2 124.5,-158.2 128.5,-154.6 120.5,-158.2001 120.5,-158.2001"/>
<ellipse fill="none" stroke="#000000" cx="117.3" cy="-158.2001" rx="3.2" ry="3.2"/>
</g>
<!-- aop_case_events_audit -->
<g id="node3" class="node">
<title>aop_case_events_audit</title>
<g id="a_node3"><a xlink:href="../../tables/aop_case_events_audit.html" xlink:title="aop_case_events_audit" target="_top">
<polygon fill="#ffffff" stroke="transparent" points="312,-38.2 312,-304.2 558,-304.2 558,-38.2 312,-38.2"/>
<polygon fill="#f5f5f5" stroke="transparent" points="314,-279.2 314,-302.2 556,-302.2 556,-279.2 314,-279.2"/>
<polygon fill="none" stroke="#000000" points="314,-279.2 314,-302.2 556,-302.2 556,-279.2 314,-279.2"/>
<text text-anchor="start" x="319" y="-288.3" font-family="Helvetica,sans-Serif" font-weight="bold" font-size="11.00" fill="#000000">aop_case_events_audit</text>
<text text-anchor="start" x="521.0437" y="-287.3" font-family="Helvetica,sans-Serif" font-size="11.00" fill="#000000">[table]</text>
<polygon fill="none" stroke="#000000" points="314,-257.2 314,-279.2 489,-279.2 489,-257.2 314,-257.2"/>
<image xlink:href="../../images/primaryKeys.png" width="11px" height="12px" preserveAspectRatio="xMinYMin meet" x="319" y="-274.2"/>
<text text-anchor="start" x="334" y="-264.3" font-family="Helvetica,sans-Serif" font-size="11.00" fill="#000000">id</text>
<polygon fill="none" stroke="#000000" points="489,-257.2 489,-279.2 556,-279.2 556,-257.2 489,-257.2"/>
<text text-anchor="start" x="492" y="-264.9" font-family="Helvetica,sans-Serif" font-size="11.00" fill="#000000">char[36]</text>
<polygon fill="#ffffff" stroke="transparent" points="314,-235.2 314,-257.2 489,-257.2 489,-235.2 314,-235.2"/>
<polygon fill="none" stroke="#000000" points="314,-235.2 314,-257.2 489,-257.2 489,-235.2 314,-235.2"/>
<image xlink:href="../../images/foreignKeys.png" width="11px" height="12px" preserveAspectRatio="xMinYMin meet" x="319" y="-252.2"/>
<text text-anchor="start" x="334" y="-242.3" font-family="Helvetica,sans-Serif" font-size="11.00" fill="#000000">parent_id</text>
<polygon fill="none" stroke="#000000" points="489,-235.2 489,-257.2 556,-257.2 556,-235.2 489,-235.2"/>
<text text-anchor="start" x="492" y="-242.9" font-family="Helvetica,sans-Serif" font-size="11.00" fill="#000000">char[36]</text>
<polygon fill="none" stroke="#000000" points="314,-213.2 314,-235.2 489,-235.2 489,-213.2 314,-213.2"/>
<text text-anchor="start" x="334" y="-220.3" font-family="Helvetica,sans-Serif" font-size="11.00" fill="#000000">date_created</text>
<polygon fill="none" stroke="#000000" points="489,-213.2 489,-235.2 556,-235.2 556,-213.2 489,-213.2"/>
<text text-anchor="start" x="492" y="-220.9" font-family="Helvetica,sans-Serif" font-size="11.00" fill="#000000">datetime[26]</text>
<polygon fill="none" stroke="#000000" points="314,-191.2 314,-213.2 489,-213.2 489,-191.2 314,-191.2"/>
<text text-anchor="start" x="334" y="-198.3" font-family="Helvetica,sans-Serif" font-size="11.00" fill="#000000">created_by</text>
<polygon fill="none" stroke="#000000" points="489,-191.2 489,-213.2 556,-213.2 556,-191.2 489,-191.2"/>
<text text-anchor="start" x="492" y="-198.9" font-family="Helvetica,sans-Serif" font-size="11.00" fill="#000000">varchar[36]</text>
<polygon fill="none" stroke="#000000" points="314,-169.2 314,-191.2 489,-191.2 489,-169.2 314,-169.2"/>
<text text-anchor="start" x="334" y="-176.3" font-family="Helvetica,sans-Serif" font-size="11.00" fill="#000000">field_name</text>
<polygon fill="none" stroke="#000000" points="489,-169.2 489,-191.2 556,-191.2 556,-169.2 489,-169.2"/>
<text text-anchor="start" x="491.9365" y="-176.9" font-family="Helvetica,sans-Serif" font-size="11.00" fill="#000000">varchar[100]</text>
<polygon fill="none" stroke="#000000" points="314,-147.2 314,-169.2 489,-169.2 489,-147.2 314,-147.2"/>
<text text-anchor="start" x="334" y="-154.3" font-family="Helvetica,sans-Serif" font-size="11.00" fill="#000000">data_type</text>
<polygon fill="none" stroke="#000000" points="489,-147.2 489,-169.2 556,-169.2 556,-147.2 489,-147.2"/>
<text text-anchor="start" x="491.9365" y="-154.9" font-family="Helvetica,sans-Serif" font-size="11.00" fill="#000000">varchar[100]</text>
<polygon fill="none" stroke="#000000" points="314,-125.2 314,-147.2 489,-147.2 489,-125.2 314,-125.2"/>
<text text-anchor="start" x="334" y="-132.3" font-family="Helvetica,sans-Serif" font-size="11.00" fill="#000000">before_value_string</text>
<polygon fill="none" stroke="#000000" points="489,-125.2 489,-147.2 556,-147.2 556,-125.2 489,-125.2"/>
<text text-anchor="start" x="491.9365" y="-132.9" font-family="Helvetica,sans-Serif" font-size="11.00" fill="#000000">varchar[255]</text>
<polygon fill="none" stroke="#000000" points="314,-103.2 314,-125.2 489,-125.2 489,-103.2 314,-103.2"/>
<text text-anchor="start" x="334" y="-110.3" font-family="Helvetica,sans-Serif" font-size="11.00" fill="#000000">after_value_string</text>
<polygon fill="none" stroke="#000000" points="489,-103.2 489,-125.2 556,-125.2 556,-103.2 489,-103.2"/>
<text text-anchor="start" x="491.9365" y="-110.9" font-family="Helvetica,sans-Serif" font-size="11.00" fill="#000000">varchar[255]</text>
<polygon fill="none" stroke="#000000" points="314,-81.2 314,-103.2 489,-103.2 489,-81.2 314,-81.2"/>
<text text-anchor="start" x="334" y="-88.3" font-family="Helvetica,sans-Serif" font-size="11.00" fill="#000000">before_value_text</text>
<polygon fill="none" stroke="#000000" points="489,-81.2 489,-103.2 556,-103.2 556,-81.2 489,-81.2"/>
<text text-anchor="start" x="492" y="-88.9" font-family="Helvetica,sans-Serif" font-size="11.00" fill="#000000">text[65535]</text>
<polygon fill="none" stroke="#000000" points="314,-59.2 314,-81.2 489,-81.2 489,-59.2 314,-59.2"/>
<text text-anchor="start" x="334" y="-66.3" font-family="Helvetica,sans-Serif" font-size="11.00" fill="#000000">after_value_text</text>
<polygon fill="none" stroke="#000000" points="489,-59.2 489,-81.2 556,-81.2 556,-59.2 489,-59.2"/>
<text text-anchor="start" x="492" y="-66.9" font-family="Helvetica,sans-Serif" font-size="11.00" fill="#000000">text[65535]</text>
<polygon fill="#ffffff" stroke="transparent" points="314,-40.2 314,-59.2 406,-59.2 406,-40.2 314,-40.2"/>
<polygon fill="none" stroke="#000000" points="314,-40.2 314,-59.2 406,-59.2 406,-40.2 314,-40.2"/>
<text text-anchor="start" x="317" y="-46.3" font-family="Helvetica,sans-Serif" font-size="11.00" fill="#000000">&lt; 1</text>
<polygon fill="#ffffff" stroke="transparent" points="406,-40.2 406,-59.2 489,-59.2 489,-40.2 406,-40.2"/>
<polygon fill="none" stroke="#000000" points="406,-40.2 406,-59.2 489,-59.2 489,-40.2 406,-40.2"/>
<text text-anchor="start" x="479.8862" y="-46.3" font-family="Helvetica,sans-Serif" font-size="11.00" fill="#000000"> &#160;</text>
<polygon fill="#ffffff" stroke="transparent" points="489,-40.2 489,-59.2 556,-59.2 556,-40.2 489,-40.2"/>
<polygon fill="none" stroke="#000000" points="489,-40.2 489,-59.2 556,-59.2 556,-40.2 489,-40.2"/>
<text text-anchor="start" x="537.4053" y="-46.3" font-family="Helvetica,sans-Serif" font-size="11.00" fill="#000000">0 &gt;</text>
<polygon fill="none" stroke="#000000" stroke-width="2" points="313,-39.2 313,-303.2 557,-303.2 557,-39.2 313,-39.2"/>
</a>
</g>
</g>
<!-- aop_case_events_audit&#45;&gt;aop_case_events -->
<g id="edge2" class="edge">
<title>aop_case_events_audit:w&#45;&gt;aop_case_events:e</title>
<path fill="none" stroke="#000000" d="M299.4203,-246.2C287.5435,-246.2 280.158,-246.2 263.5,-246.2"/>
<polygon fill="#000000" stroke="#000000" points="306,-246.2001 314,-249.8 310,-246.2 314,-246.2 314,-246.2 314,-246.2 310,-246.2 314,-242.6 306,-246.2001 306,-246.2001"/>
<ellipse fill="none" stroke="#000000" cx="302.8" cy="-246.2001" rx="3.2" ry="3.2"/>
</g>
</g>
</svg>
