<?xml version="1.0" encoding="UTF-8" standalone="no"?>
<!DOCTYPE svg PUBLIC "-//W3C//DTD SVG 1.1//EN"
 "http://www.w3.org/Graphics/SVG/1.1/DTD/svg11.dtd">
<!-- Generated by graphviz version 2.40.1 (20161225.0304)
 -->
<!-- Title: oneDegreeRelationshipsDiagram Pages: 1 -->
<svg width="722pt" height="602pt"
 viewBox="0.00 0.00 722.00 602.20" xmlns="http://www.w3.org/2000/svg" xmlns:xlink="http://www.w3.org/1999/xlink">
<g id="graph0" class="graph" transform="scale(1 1) rotate(0) translate(4 598.2)">
<title>oneDegreeRelationshipsDiagram</title>
<polygon fill="#ffffff" stroke="transparent" points="-4,4 -4,-598.2 718,-598.2 718,4 -4,4"/>
<text text-anchor="middle" x="72.4936" y="-7.3" font-family="Helvetica,sans-Serif" font-size="11.00" fill="#000000">Generated by SchemaSpy</text>
<!-- aor_fields -->
<g id="node1" class="node">
<title>aor_fields</title>
<g id="a_node1"><a xlink:href="../../tables/aor_fields.html" xlink:title="aor_fields" target="_top">
<polygon fill="#ffffff" stroke="transparent" points="457,-38.2 457,-590.2 706,-590.2 706,-38.2 457,-38.2"/>
<polygon fill="#f5f5f5" stroke="transparent" points="459.5,-565.2 459.5,-588.2 704.5,-588.2 704.5,-565.2 459.5,-565.2"/>
<polygon fill="none" stroke="#000000" points="459.5,-565.2 459.5,-588.2 704.5,-588.2 704.5,-565.2 459.5,-565.2"/>
<text text-anchor="start" x="464.5" y="-574.3" font-family="Helvetica,sans-Serif" font-weight="bold" font-size="11.00" fill="#000000">aor_fields</text>
<text text-anchor="start" x="669.5437" y="-573.3" font-family="Helvetica,sans-Serif" font-size="11.00" fill="#000000">[table]</text>
<polygon fill="none" stroke="#000000" points="459.5,-543.2 459.5,-565.2 593.5,-565.2 593.5,-543.2 459.5,-543.2"/>
<image xlink:href="../../images/primaryKeys.png" width="11px" height="12px" preserveAspectRatio="xMinYMin meet" x="464.5" y="-560.2"/>
<text text-anchor="start" x="479.5" y="-550.3" font-family="Helvetica,sans-Serif" font-size="11.00" fill="#000000">id</text>
<polygon fill="none" stroke="#000000" points="593.5,-543.2 593.5,-565.2 704.5,-565.2 704.5,-543.2 593.5,-543.2"/>
<text text-anchor="start" x="596.5" y="-550.9" font-family="Helvetica,sans-Serif" font-size="11.00" fill="#000000">char[36]</text>
<polygon fill="none" stroke="#000000" points="459.5,-521.2 459.5,-543.2 593.5,-543.2 593.5,-521.2 459.5,-521.2"/>
<text text-anchor="start" x="479.5" y="-528.3" font-family="Helvetica,sans-Serif" font-size="11.00" fill="#000000">name</text>
<polygon fill="none" stroke="#000000" points="593.5,-521.2 593.5,-543.2 704.5,-543.2 704.5,-521.2 593.5,-521.2"/>
<text text-anchor="start" x="596.5" y="-528.9" font-family="Helvetica,sans-Serif" font-size="11.00" fill="#000000">varchar[255]</text>
<polygon fill="none" stroke="#000000" points="459.5,-499.2 459.5,-521.2 593.5,-521.2 593.5,-499.2 459.5,-499.2"/>
<text text-anchor="start" x="479.5" y="-506.3" font-family="Helvetica,sans-Serif" font-size="11.00" fill="#000000">date_entered</text>
<polygon fill="none" stroke="#000000" points="593.5,-499.2 593.5,-521.2 704.5,-521.2 704.5,-499.2 593.5,-499.2"/>
<text text-anchor="start" x="596.5" y="-506.9" font-family="Helvetica,sans-Serif" font-size="11.00" fill="#000000">datetime[26]</text>
<polygon fill="none" stroke="#000000" points="459.5,-477.2 459.5,-499.2 593.5,-499.2 593.5,-477.2 459.5,-477.2"/>
<text text-anchor="start" x="479.5" y="-484.3" font-family="Helvetica,sans-Serif" font-size="11.00" fill="#000000">date_modified</text>
<polygon fill="none" stroke="#000000" points="593.5,-477.2 593.5,-499.2 704.5,-499.2 704.5,-477.2 593.5,-477.2"/>
<text text-anchor="start" x="596.5" y="-484.9" font-family="Helvetica,sans-Serif" font-size="11.00" fill="#000000">datetime[26]</text>
<polygon fill="none" stroke="#000000" points="459.5,-455.2 459.5,-477.2 593.5,-477.2 593.5,-455.2 459.5,-455.2"/>
<image xlink:href="../../images/foreignKeys.png" width="11px" height="12px" preserveAspectRatio="xMinYMin meet" x="464.5" y="-472.2"/>
<text text-anchor="start" x="479.5" y="-462.3" font-family="Helvetica,sans-Serif" font-size="11.00" fill="#000000">modified_user_id</text>
<polygon fill="none" stroke="#000000" points="593.5,-455.2 593.5,-477.2 704.5,-477.2 704.5,-455.2 593.5,-455.2"/>
<text text-anchor="start" x="596.5" y="-462.9" font-family="Helvetica,sans-Serif" font-size="11.00" fill="#000000">char[36]</text>
<polygon fill="none" stroke="#000000" points="459.5,-433.2 459.5,-455.2 593.5,-455.2 593.5,-433.2 459.5,-433.2"/>
<image xlink:href="../../images/foreignKeys.png" width="11px" height="12px" preserveAspectRatio="xMinYMin meet" x="464.5" y="-450.2"/>
<text text-anchor="start" x="479.5" y="-440.3" font-family="Helvetica,sans-Serif" font-size="11.00" fill="#000000">created_by</text>
<polygon fill="none" stroke="#000000" points="593.5,-433.2 593.5,-455.2 704.5,-455.2 704.5,-433.2 593.5,-433.2"/>
<text text-anchor="start" x="596.5" y="-440.9" font-family="Helvetica,sans-Serif" font-size="11.00" fill="#000000">char[36]</text>
<polygon fill="none" stroke="#000000" points="459.5,-411.2 459.5,-433.2 593.5,-433.2 593.5,-411.2 459.5,-411.2"/>
<text text-anchor="start" x="479.5" y="-418.3" font-family="Helvetica,sans-Serif" font-size="11.00" fill="#000000">description</text>
<polygon fill="none" stroke="#000000" points="593.5,-411.2 593.5,-433.2 704.5,-433.2 704.5,-411.2 593.5,-411.2"/>
<text text-anchor="start" x="596.5" y="-418.9" font-family="Helvetica,sans-Serif" font-size="11.00" fill="#000000">text[65535]</text>
<polygon fill="none" stroke="#000000" points="459.5,-389.2 459.5,-411.2 593.5,-411.2 593.5,-389.2 459.5,-389.2"/>
<text text-anchor="start" x="479.5" y="-396.3" font-family="Helvetica,sans-Serif" font-size="11.00" fill="#000000">deleted</text>
<polygon fill="none" stroke="#000000" points="593.5,-389.2 593.5,-411.2 704.5,-411.2 704.5,-389.2 593.5,-389.2"/>
<text text-anchor="start" x="596.5" y="-396.9" font-family="Helvetica,sans-Serif" font-size="11.00" fill="#000000">bit[1]</text>
<polygon fill="#ffffff" stroke="transparent" points="459.5,-367.2 459.5,-389.2 593.5,-389.2 593.5,-367.2 459.5,-367.2"/>
<polygon fill="none" stroke="#000000" points="459.5,-367.2 459.5,-389.2 593.5,-389.2 593.5,-367.2 459.5,-367.2"/>
<image xlink:href="../../images/foreignKeys.png" width="11px" height="12px" preserveAspectRatio="xMinYMin meet" x="464.5" y="-384.2"/>
<text text-anchor="start" x="479.5" y="-374.3" font-family="Helvetica,sans-Serif" font-size="11.00" fill="#000000">aor_report_id</text>
<polygon fill="none" stroke="#000000" points="593.5,-367.2 593.5,-389.2 704.5,-389.2 704.5,-367.2 593.5,-367.2"/>
<text text-anchor="start" x="596.5" y="-374.9" font-family="Helvetica,sans-Serif" font-size="11.00" fill="#000000">char[36]</text>
<polygon fill="none" stroke="#000000" points="459.5,-345.2 459.5,-367.2 593.5,-367.2 593.5,-345.2 459.5,-345.2"/>
<text text-anchor="start" x="479.5" y="-352.3" font-family="Helvetica,sans-Serif" font-size="11.00" fill="#000000">field_order</text>
<polygon fill="none" stroke="#000000" points="593.5,-345.2 593.5,-367.2 704.5,-367.2 704.5,-345.2 593.5,-345.2"/>
<text text-anchor="start" x="596.5" y="-352.9" font-family="Helvetica,sans-Serif" font-size="11.00" fill="#000000">int[10]</text>
<polygon fill="none" stroke="#000000" points="459.5,-323.2 459.5,-345.2 593.5,-345.2 593.5,-323.2 459.5,-323.2"/>
<text text-anchor="start" x="479.5" y="-330.3" font-family="Helvetica,sans-Serif" font-size="11.00" fill="#000000">module_path</text>
<polygon fill="none" stroke="#000000" points="593.5,-323.2 593.5,-345.2 704.5,-345.2 704.5,-323.2 593.5,-323.2"/>
<text text-anchor="start" x="596.1115" y="-330.9" font-family="Helvetica,sans-Serif" font-size="11.00" fill="#000000">longtext[2147483647]</text>
<polygon fill="none" stroke="#000000" points="459.5,-301.2 459.5,-323.2 593.5,-323.2 593.5,-301.2 459.5,-301.2"/>
<text text-anchor="start" x="479.5" y="-308.3" font-family="Helvetica,sans-Serif" font-size="11.00" fill="#000000">field</text>
<polygon fill="none" stroke="#000000" points="593.5,-301.2 593.5,-323.2 704.5,-323.2 704.5,-301.2 593.5,-301.2"/>
<text text-anchor="start" x="596.5" y="-308.9" font-family="Helvetica,sans-Serif" font-size="11.00" fill="#000000">varchar[100]</text>
<polygon fill="none" stroke="#000000" points="459.5,-279.2 459.5,-301.2 593.5,-301.2 593.5,-279.2 459.5,-279.2"/>
<text text-anchor="start" x="479.5" y="-286.3" font-family="Helvetica,sans-Serif" font-size="11.00" fill="#000000">display</text>
<polygon fill="none" stroke="#000000" points="593.5,-279.2 593.5,-301.2 704.5,-301.2 704.5,-279.2 593.5,-279.2"/>
<text text-anchor="start" x="596.5" y="-286.9" font-family="Helvetica,sans-Serif" font-size="11.00" fill="#000000">bit[1]</text>
<polygon fill="none" stroke="#000000" points="459.5,-257.2 459.5,-279.2 593.5,-279.2 593.5,-257.2 459.5,-257.2"/>
<text text-anchor="start" x="479.5" y="-264.3" font-family="Helvetica,sans-Serif" font-size="11.00" fill="#000000">link</text>
<polygon fill="none" stroke="#000000" points="593.5,-257.2 593.5,-279.2 704.5,-279.2 704.5,-257.2 593.5,-257.2"/>
<text text-anchor="start" x="596.5" y="-264.9" font-family="Helvetica,sans-Serif" font-size="11.00" fill="#000000">bit[1]</text>
<polygon fill="none" stroke="#000000" points="459.5,-235.2 459.5,-257.2 593.5,-257.2 593.5,-235.2 459.5,-235.2"/>
<text text-anchor="start" x="479.5" y="-242.3" font-family="Helvetica,sans-Serif" font-size="11.00" fill="#000000">label</text>
<polygon fill="none" stroke="#000000" points="593.5,-235.2 593.5,-257.2 704.5,-257.2 704.5,-235.2 593.5,-235.2"/>
<text text-anchor="start" x="596.5" y="-242.9" font-family="Helvetica,sans-Serif" font-size="11.00" fill="#000000">varchar[255]</text>
<polygon fill="none" stroke="#000000" points="459.5,-213.2 459.5,-235.2 593.5,-235.2 593.5,-213.2 459.5,-213.2"/>
<text text-anchor="start" x="479.5" y="-220.3" font-family="Helvetica,sans-Serif" font-size="11.00" fill="#000000">field_function</text>
<polygon fill="none" stroke="#000000" points="593.5,-213.2 593.5,-235.2 704.5,-235.2 704.5,-213.2 593.5,-213.2"/>
<text text-anchor="start" x="596.5" y="-220.9" font-family="Helvetica,sans-Serif" font-size="11.00" fill="#000000">varchar[100]</text>
<polygon fill="none" stroke="#000000" points="459.5,-191.2 459.5,-213.2 593.5,-213.2 593.5,-191.2 459.5,-191.2"/>
<text text-anchor="start" x="479.5" y="-198.3" font-family="Helvetica,sans-Serif" font-size="11.00" fill="#000000">sort_by</text>
<polygon fill="none" stroke="#000000" points="593.5,-191.2 593.5,-213.2 704.5,-213.2 704.5,-191.2 593.5,-191.2"/>
<text text-anchor="start" x="596.5" y="-198.9" font-family="Helvetica,sans-Serif" font-size="11.00" fill="#000000">varchar[100]</text>
<polygon fill="none" stroke="#000000" points="459.5,-169.2 459.5,-191.2 593.5,-191.2 593.5,-169.2 459.5,-169.2"/>
<text text-anchor="start" x="479.5" y="-176.3" font-family="Helvetica,sans-Serif" font-size="11.00" fill="#000000">format</text>
<polygon fill="none" stroke="#000000" points="593.5,-169.2 593.5,-191.2 704.5,-191.2 704.5,-169.2 593.5,-169.2"/>
<text text-anchor="start" x="596.5" y="-176.9" font-family="Helvetica,sans-Serif" font-size="11.00" fill="#000000">varchar[100]</text>
<polygon fill="none" stroke="#000000" points="459.5,-147.2 459.5,-169.2 593.5,-169.2 593.5,-147.2 459.5,-147.2"/>
<text text-anchor="start" x="479.5" y="-154.3" font-family="Helvetica,sans-Serif" font-size="11.00" fill="#000000">total</text>
<polygon fill="none" stroke="#000000" points="593.5,-147.2 593.5,-169.2 704.5,-169.2 704.5,-147.2 593.5,-147.2"/>
<text text-anchor="start" x="596.5" y="-154.9" font-family="Helvetica,sans-Serif" font-size="11.00" fill="#000000">varchar[100]</text>
<polygon fill="none" stroke="#000000" points="459.5,-125.2 459.5,-147.2 593.5,-147.2 593.5,-125.2 459.5,-125.2"/>
<text text-anchor="start" x="479.5" y="-132.3" font-family="Helvetica,sans-Serif" font-size="11.00" fill="#000000">sort_order</text>
<polygon fill="none" stroke="#000000" points="593.5,-125.2 593.5,-147.2 704.5,-147.2 704.5,-125.2 593.5,-125.2"/>
<text text-anchor="start" x="596.5" y="-132.9" font-family="Helvetica,sans-Serif" font-size="11.00" fill="#000000">varchar[100]</text>
<polygon fill="none" stroke="#000000" points="459.5,-103.2 459.5,-125.2 593.5,-125.2 593.5,-103.2 459.5,-103.2"/>
<text text-anchor="start" x="479.5" y="-110.3" font-family="Helvetica,sans-Serif" font-size="11.00" fill="#000000">group_by</text>
<polygon fill="none" stroke="#000000" points="593.5,-103.2 593.5,-125.2 704.5,-125.2 704.5,-103.2 593.5,-103.2"/>
<text text-anchor="start" x="596.5" y="-110.9" font-family="Helvetica,sans-Serif" font-size="11.00" fill="#000000">bit[1]</text>
<polygon fill="none" stroke="#000000" points="459.5,-81.2 459.5,-103.2 593.5,-103.2 593.5,-81.2 459.5,-81.2"/>
<text text-anchor="start" x="479.5" y="-88.3" font-family="Helvetica,sans-Serif" font-size="11.00" fill="#000000">group_order</text>
<polygon fill="none" stroke="#000000" points="593.5,-81.2 593.5,-103.2 704.5,-103.2 704.5,-81.2 593.5,-81.2"/>
<text text-anchor="start" x="596.5" y="-88.9" font-family="Helvetica,sans-Serif" font-size="11.00" fill="#000000">varchar[100]</text>
<polygon fill="none" stroke="#000000" points="459.5,-59.2 459.5,-81.2 593.5,-81.2 593.5,-59.2 459.5,-59.2"/>
<text text-anchor="start" x="479.5" y="-66.3" font-family="Helvetica,sans-Serif" font-size="11.00" fill="#000000">group_display</text>
<polygon fill="none" stroke="#000000" points="593.5,-59.2 593.5,-81.2 704.5,-81.2 704.5,-59.2 593.5,-59.2"/>
<text text-anchor="start" x="596.5" y="-66.9" font-family="Helvetica,sans-Serif" font-size="11.00" fill="#000000">int[10]</text>
<polygon fill="#ffffff" stroke="transparent" points="459.5,-40.2 459.5,-59.2 530.5,-59.2 530.5,-40.2 459.5,-40.2"/>
<polygon fill="none" stroke="#000000" points="459.5,-40.2 459.5,-59.2 530.5,-59.2 530.5,-40.2 459.5,-40.2"/>
<text text-anchor="start" x="462.5" y="-46.3" font-family="Helvetica,sans-Serif" font-size="11.00" fill="#000000">&lt; 3</text>
<polygon fill="#ffffff" stroke="transparent" points="530.5,-40.2 530.5,-59.2 593.5,-59.2 593.5,-40.2 530.5,-40.2"/>
<polygon fill="none" stroke="#000000" points="530.5,-40.2 530.5,-59.2 593.5,-59.2 593.5,-40.2 530.5,-40.2"/>
<text text-anchor="start" x="584.3862" y="-46.3" font-family="Helvetica,sans-Serif" font-size="11.00" fill="#000000"> &#160;</text>
<polygon fill="#ffffff" stroke="transparent" points="593.5,-40.2 593.5,-59.2 704.5,-59.2 704.5,-40.2 593.5,-40.2"/>
<polygon fill="none" stroke="#000000" points="593.5,-40.2 593.5,-59.2 704.5,-59.2 704.5,-40.2 593.5,-40.2"/>
<text text-anchor="start" x="685.9053" y="-46.3" font-family="Helvetica,sans-Serif" font-size="11.00" fill="#000000">0 &gt;</text>
<polygon fill="none" stroke="#000000" stroke-width="2" points="458,-39.2 458,-589.2 705,-589.2 705,-39.2 458,-39.2"/>
</a>
</g>
</g>
<!-- aor_reports -->
<g id="node2" class="node">
<title>aor_reports</title>
<g id="a_node2"><a xlink:href="../../tables/aor_reports.html" xlink:title="aor_reports" target="_top">
<polygon fill="#ffffff" stroke="transparent" points="273,-265.7 273,-414.7 408,-414.7 408,-265.7 273,-265.7"/>
<polygon fill="#f5f5f5" stroke="transparent" points="273.5,-391.2 273.5,-414.2 408.5,-414.2 408.5,-391.2 273.5,-391.2"/>
<polygon fill="none" stroke="#000000" points="273.5,-391.2 273.5,-414.2 408.5,-414.2 408.5,-391.2 273.5,-391.2"/>
<text text-anchor="start" x="278.5" y="-400.3" font-family="Helvetica,sans-Serif" font-weight="bold" font-size="11.00" fill="#000000">aor_reports</text>
<text text-anchor="start" x="373.5437" y="-399.3" font-family="Helvetica,sans-Serif" font-size="11.00" fill="#000000">[table]</text>
<polygon fill="none" stroke="#000000" points="273.5,-369.2 273.5,-391.2 408.5,-391.2 408.5,-369.2 273.5,-369.2"/>
<image xlink:href="../../images/primaryKeys.png" width="11px" height="12px" preserveAspectRatio="xMinYMin meet" x="278.5" y="-386.2"/>
<text text-anchor="start" x="293.5" y="-376.3" font-family="Helvetica,sans-Serif" font-size="11.00" fill="#000000">id</text>
<polygon fill="#c0c0c0" stroke="transparent" points="273.5,-347.2 273.5,-369.2 408.5,-369.2 408.5,-347.2 273.5,-347.2"/>
<polygon fill="none" stroke="#000000" points="273.5,-347.2 273.5,-369.2 408.5,-369.2 408.5,-347.2 273.5,-347.2"/>
<image xlink:href="../../images/foreignKeys.png" width="11px" height="12px" preserveAspectRatio="xMinYMin meet" x="278.5" y="-364.2"/>
<text text-anchor="start" x="293.5" y="-354.3" font-family="Helvetica,sans-Serif" font-size="11.00" fill="#000000">modified_user_id</text>
<polygon fill="#c0c0c0" stroke="transparent" points="273.5,-325.2 273.5,-347.2 408.5,-347.2 408.5,-325.2 273.5,-325.2"/>
<polygon fill="none" stroke="#000000" points="273.5,-325.2 273.5,-347.2 408.5,-347.2 408.5,-325.2 273.5,-325.2"/>
<image xlink:href="../../images/foreignKeys.png" width="11px" height="12px" preserveAspectRatio="xMinYMin meet" x="278.5" y="-342.2"/>
<text text-anchor="start" x="293.5" y="-332.3" font-family="Helvetica,sans-Serif" font-size="11.00" fill="#000000">created_by</text>
<polygon fill="#c0c0c0" stroke="transparent" points="273.5,-303.2 273.5,-325.2 408.5,-325.2 408.5,-303.2 273.5,-303.2"/>
<polygon fill="none" stroke="#000000" points="273.5,-303.2 273.5,-325.2 408.5,-325.2 408.5,-303.2 273.5,-303.2"/>
<image xlink:href="../../images/foreignKeys.png" width="11px" height="12px" preserveAspectRatio="xMinYMin meet" x="278.5" y="-320.2"/>
<text text-anchor="start" x="293.5" y="-310.3" font-family="Helvetica,sans-Serif" font-size="11.00" fill="#000000">assigned_user_id</text>
<polygon fill="none" stroke="#000000" points="273.5,-284.2 273.5,-303.2 408.5,-303.2 408.5,-284.2 273.5,-284.2"/>
<text text-anchor="start" x="276.5" y="-290.3" font-family="Helvetica,sans-Serif" font-size="11.00" fill="#000000">...</text>
<polygon fill="#ffffff" stroke="transparent" points="273.5,-265.2 273.5,-284.2 334.5,-284.2 334.5,-265.2 273.5,-265.2"/>
<polygon fill="none" stroke="#000000" points="273.5,-265.2 273.5,-284.2 334.5,-284.2 334.5,-265.2 273.5,-265.2"/>
<text text-anchor="start" x="276.5" y="-271.3" font-family="Helvetica,sans-Serif" font-size="11.00" fill="#000000">&lt; 3</text>
<polygon fill="#ffffff" stroke="transparent" points="334.5,-265.2 334.5,-284.2 366.5,-284.2 366.5,-265.2 334.5,-265.2"/>
<polygon fill="none" stroke="#000000" points="334.5,-265.2 334.5,-284.2 366.5,-284.2 366.5,-265.2 334.5,-265.2"/>
<text text-anchor="start" x="357.3862" y="-271.3" font-family="Helvetica,sans-Serif" font-size="11.00" fill="#000000"> &#160;</text>
<polygon fill="#ffffff" stroke="transparent" points="366.5,-265.2 366.5,-284.2 408.5,-284.2 408.5,-265.2 366.5,-265.2"/>
<polygon fill="none" stroke="#000000" points="366.5,-265.2 366.5,-284.2 408.5,-284.2 408.5,-265.2 366.5,-265.2"/>
<text text-anchor="start" x="389.9053" y="-271.3" font-family="Helvetica,sans-Serif" font-size="11.00" fill="#000000">6 &gt;</text>
</a>
</g>
</g>
<!-- aor_fields&#45;&gt;aor_reports -->
<g id="edge1" class="edge">
<title>aor_fields:w&#45;&gt;aor_reports:e</title>
<path fill="none" stroke="#000000" d="M444.7711,-378.5303C432.7786,-379.0983 425.3358,-380.2 408.5,-380.2"/>
<polygon fill="#000000" stroke="#000000" points="451.502,-378.3794 459.5807,-381.7991 455.501,-378.2897 459.5,-378.2 459.5,-378.2 459.5,-378.2 455.501,-378.2897 459.4193,-374.6009 451.502,-378.3794 451.502,-378.3794"/>
<ellipse fill="none" stroke="#000000" cx="448.3028" cy="-378.4511" rx="3.2" ry="3.2"/>
</g>
<!-- users -->
<g id="node3" class="node">
<title>users</title>
<g id="a_node3"><a xlink:href="../../tables/users.html" xlink:title="users" target="_top">
<polygon fill="#ffffff" stroke="transparent" points="8,-177.7 8,-392.7 224,-392.7 224,-177.7 8,-177.7"/>
<polygon fill="#f5f5f5" stroke="transparent" points="8,-369.2 8,-392.2 224,-392.2 224,-369.2 8,-369.2"/>
<polygon fill="none" stroke="#000000" points="8,-369.2 8,-392.2 224,-392.2 224,-369.2 8,-369.2"/>
<text text-anchor="start" x="13" y="-378.3" font-family="Helvetica,sans-Serif" font-weight="bold" font-size="11.00" fill="#000000">users</text>
<text text-anchor="start" x="189.0437" y="-377.3" font-family="Helvetica,sans-Serif" font-size="11.00" fill="#000000">[table]</text>
<polygon fill="none" stroke="#000000" points="8,-347.2 8,-369.2 224,-369.2 224,-347.2 8,-347.2"/>
<image xlink:href="../../images/primaryKeys.png" width="11px" height="12px" preserveAspectRatio="xMinYMin meet" x="13" y="-364.2"/>
<text text-anchor="start" x="28" y="-354.3" font-family="Helvetica,sans-Serif" font-size="11.00" fill="#000000">id</text>
<polygon fill="#ffffff" stroke="transparent" points="8,-325.2 8,-347.2 224,-347.2 224,-325.2 8,-325.2"/>
<polygon fill="none" stroke="#000000" points="8,-325.2 8,-347.2 224,-347.2 224,-325.2 8,-325.2"/>
<text text-anchor="start" x="28" y="-332.3" font-family="Helvetica,sans-Serif" font-size="11.00" fill="#000000">user_name</text>
<polygon fill="#ffffff" stroke="transparent" points="8,-303.2 8,-325.2 224,-325.2 224,-303.2 8,-303.2"/>
<polygon fill="none" stroke="#000000" points="8,-303.2 8,-325.2 224,-325.2 224,-303.2 8,-303.2"/>
<text text-anchor="start" x="28" y="-310.3" font-family="Helvetica,sans-Serif" font-size="11.00" fill="#000000">first_name</text>
<polygon fill="#ffffff" stroke="transparent" points="8,-281.2 8,-303.2 224,-303.2 224,-281.2 8,-281.2"/>
<polygon fill="none" stroke="#000000" points="8,-281.2 8,-303.2 224,-303.2 224,-281.2 8,-281.2"/>
<text text-anchor="start" x="28" y="-288.3" font-family="Helvetica,sans-Serif" font-size="11.00" fill="#000000">last_name</text>
<polygon fill="#ffffff" stroke="transparent" points="8,-259.2 8,-281.2 224,-281.2 224,-259.2 8,-259.2"/>
<polygon fill="none" stroke="#000000" points="8,-259.2 8,-281.2 224,-281.2 224,-259.2 8,-259.2"/>
<text text-anchor="start" x="28" y="-266.3" font-family="Helvetica,sans-Serif" font-size="11.00" fill="#000000">status</text>
<polygon fill="#c0c0c0" stroke="transparent" points="8,-237.2 8,-259.2 224,-259.2 224,-237.2 8,-237.2"/>
<polygon fill="none" stroke="#000000" points="8,-237.2 8,-259.2 224,-259.2 224,-237.2 8,-237.2"/>
<image xlink:href="../../images/foreignKeys.png" width="11px" height="12px" preserveAspectRatio="xMinYMin meet" x="13" y="-254.2"/>
<text text-anchor="start" x="28" y="-244.3" font-family="Helvetica,sans-Serif" font-size="11.00" fill="#000000">reports_to_id</text>
<polygon fill="#ffffff" stroke="transparent" points="8,-215.2 8,-237.2 224,-237.2 224,-215.2 8,-215.2"/>
<polygon fill="none" stroke="#000000" points="8,-215.2 8,-237.2 224,-237.2 224,-215.2 8,-215.2"/>
<text text-anchor="start" x="28" y="-222.3" font-family="Helvetica,sans-Serif" font-size="11.00" fill="#000000">is_group</text>
<polygon fill="none" stroke="#000000" points="8,-196.2 8,-215.2 224,-215.2 224,-196.2 8,-196.2"/>
<text text-anchor="start" x="11" y="-202.3" font-family="Helvetica,sans-Serif" font-size="11.00" fill="#000000">...</text>
<polygon fill="#ffffff" stroke="transparent" points="8,-177.2 8,-196.2 104,-196.2 104,-177.2 8,-177.2"/>
<polygon fill="none" stroke="#000000" points="8,-177.2 8,-196.2 104,-196.2 104,-177.2 8,-177.2"/>
<text text-anchor="start" x="11" y="-183.3" font-family="Helvetica,sans-Serif" font-size="11.00" fill="#000000">&lt; 2</text>
<polygon fill="#ffffff" stroke="transparent" points="104,-177.2 104,-196.2 153,-196.2 153,-177.2 104,-177.2"/>
<polygon fill="none" stroke="#000000" points="104,-177.2 104,-196.2 153,-196.2 153,-177.2 104,-177.2"/>
<text text-anchor="start" x="143.8862" y="-183.3" font-family="Helvetica,sans-Serif" font-size="11.00" fill="#000000"> &#160;</text>
<polygon fill="#ffffff" stroke="transparent" points="153,-177.2 153,-196.2 224,-196.2 224,-177.2 153,-177.2"/>
<polygon fill="none" stroke="#000000" points="153,-177.2 153,-196.2 224,-196.2 224,-177.2 153,-177.2"/>
<text text-anchor="start" x="193.1755" y="-183.3" font-family="Helvetica,sans-Serif" font-size="11.00" fill="#000000">214 &gt;</text>
</a>
</g>
</g>
<!-- aor_fields&#45;&gt;users -->
<g id="edge2" class="edge">
<title>aor_fields:w&#45;&gt;users:e</title>
<path fill="none" stroke="#000000" d="M444.7578,-444.459C368.52,-447.1245 334.2985,-468.5994 265,-425.2 235.4126,-406.6703 258.9108,-358.2 224,-358.2"/>
<polygon fill="#000000" stroke="#000000" points="451.5012,-444.3406 459.5632,-447.7994 455.5006,-444.2703 459.5,-444.2 459.5,-444.2 459.5,-444.2 455.5006,-444.2703 459.4368,-440.6006 451.5012,-444.3406 451.5012,-444.3406"/>
<ellipse fill="none" stroke="#000000" cx="448.3017" cy="-444.3968" rx="3.2" ry="3.2"/>
</g>
<!-- aor_fields&#45;&gt;users -->
<g id="edge3" class="edge">
<title>aor_fields:w&#45;&gt;users:e</title>
<path fill="none" stroke="#000000" d="M444.7368,-466.5094C368.2434,-469.7001 331.6199,-495.5403 265,-448.2 229.17,-422.7391 267.9551,-358.2 224,-358.2"/>
<polygon fill="#000000" stroke="#000000" points="451.5018,-466.3677 459.5755,-469.7992 455.5009,-466.2838 459.5,-466.2 459.5,-466.2 459.5,-466.2 455.5009,-466.2838 459.4245,-462.6008 451.5018,-466.3677 451.5018,-466.3677"/>
<ellipse fill="none" stroke="#000000" cx="448.3025" cy="-466.4348" rx="3.2" ry="3.2"/>
</g>
<!-- aor_reports&#45;&gt;users -->
<g id="edge4" class="edge">
<title>aor_reports:w&#45;&gt;users:e</title>
<path fill="none" stroke="#000000" d="M259.7159,-318.9088C246.2705,-330.2596 247.456,-358.2 224,-358.2"/>
<polygon fill="#000000" stroke="#000000" points="265.9295,-316.7862 274.6638,-317.6067 269.7148,-315.4931 273.5,-314.2 273.5,-314.2 273.5,-314.2 269.7148,-315.4931 272.3362,-310.7933 265.9295,-316.7862 265.9295,-316.7862"/>
<ellipse fill="none" stroke="#000000" cx="262.9013" cy="-317.8206" rx="3.2" ry="3.2"/>
</g>
<!-- aor_reports&#45;&gt;users -->
<g id="edge5" class="edge">
<title>aor_reports:w&#45;&gt;users:e</title>
<path fill="none" stroke="#000000" d="M259.3612,-339.4462C247.4382,-345.5658 242.2443,-358.2 224,-358.2"/>
<polygon fill="#000000" stroke="#000000" points="265.7029,-337.9902 274.3056,-339.7087 269.6014,-337.0951 273.5,-336.2 273.5,-336.2 273.5,-336.2 269.6014,-337.0951 272.6944,-332.6913 265.7029,-337.9902 265.7029,-337.9902"/>
<ellipse fill="none" stroke="#000000" cx="262.584" cy="-338.7063" rx="3.2" ry="3.2"/>
</g>
<!-- aor_reports&#45;&gt;users -->
<g id="edge6" class="edge">
<title>aor_reports:w&#45;&gt;users:e</title>
<path fill="none" stroke="#000000" d="M258.8428,-358.2C247.4139,-358.2 240.1563,-358.2 224,-358.2"/>
<polygon fill="#000000" stroke="#000000" points="265.5,-358.2001 273.5,-361.8 269.5,-358.2 273.5,-358.2 273.5,-358.2 273.5,-358.2 269.5,-358.2 273.5,-354.6 265.5,-358.2001 265.5,-358.2001"/>
<ellipse fill="none" stroke="#000000" cx="262.3" cy="-358.2001" rx="3.2" ry="3.2"/>
</g>
</g>
</svg>
