<?xml version="1.0" encoding="UTF-8" standalone="no"?>
<!DOCTYPE svg PUBLIC "-//W3C//DTD SVG 1.1//EN"
 "http://www.w3.org/Graphics/SVG/1.1/DTD/svg11.dtd">
<!-- Generated by graphviz version 2.40.1 (20161225.0304)
 -->
<!-- Title: oneDegreeRelationshipsDiagram Pages: 1 -->
<svg width="722pt" height="492pt"
 viewBox="0.00 0.00 722.00 492.20" xmlns="http://www.w3.org/2000/svg" xmlns:xlink="http://www.w3.org/1999/xlink">
<g id="graph0" class="graph" transform="scale(1 1) rotate(0) translate(4 488.2)">
<title>oneDegreeRelationshipsDiagram</title>
<polygon fill="#ffffff" stroke="transparent" points="-4,4 -4,-488.2 718,-488.2 718,4 -4,4"/>
<text text-anchor="middle" x="72.4936" y="-7.3" font-family="Helvetica,sans-Serif" font-size="11.00" fill="#000000">Generated by SchemaSpy</text>
<!-- aor_conditions -->
<g id="node1" class="node">
<title>aor_conditions</title>
<g id="a_node1"><a xlink:href="../../tables/aor_conditions.html" xlink:title="aor_conditions" target="_top">
<polygon fill="#ffffff" stroke="transparent" points="457,-38.2 457,-480.2 706,-480.2 706,-38.2 457,-38.2"/>
<polygon fill="#f5f5f5" stroke="transparent" points="459.5,-455.2 459.5,-478.2 704.5,-478.2 704.5,-455.2 459.5,-455.2"/>
<polygon fill="none" stroke="#000000" points="459.5,-455.2 459.5,-478.2 704.5,-478.2 704.5,-455.2 459.5,-455.2"/>
<text text-anchor="start" x="464.5" y="-464.3" font-family="Helvetica,sans-Serif" font-weight="bold" font-size="11.00" fill="#000000">aor_conditions</text>
<text text-anchor="start" x="669.5437" y="-463.3" font-family="Helvetica,sans-Serif" font-size="11.00" fill="#000000">[table]</text>
<polygon fill="none" stroke="#000000" points="459.5,-433.2 459.5,-455.2 593.5,-455.2 593.5,-433.2 459.5,-433.2"/>
<image xlink:href="../../images/primaryKeys.png" width="11px" height="12px" preserveAspectRatio="xMinYMin meet" x="464.5" y="-450.2"/>
<text text-anchor="start" x="479.5" y="-440.3" font-family="Helvetica,sans-Serif" font-size="11.00" fill="#000000">id</text>
<polygon fill="none" stroke="#000000" points="593.5,-433.2 593.5,-455.2 704.5,-455.2 704.5,-433.2 593.5,-433.2"/>
<text text-anchor="start" x="596.5" y="-440.9" font-family="Helvetica,sans-Serif" font-size="11.00" fill="#000000">char[36]</text>
<polygon fill="none" stroke="#000000" points="459.5,-411.2 459.5,-433.2 593.5,-433.2 593.5,-411.2 459.5,-411.2"/>
<text text-anchor="start" x="479.5" y="-418.3" font-family="Helvetica,sans-Serif" font-size="11.00" fill="#000000">name</text>
<polygon fill="none" stroke="#000000" points="593.5,-411.2 593.5,-433.2 704.5,-433.2 704.5,-411.2 593.5,-411.2"/>
<text text-anchor="start" x="596.5" y="-418.9" font-family="Helvetica,sans-Serif" font-size="11.00" fill="#000000">varchar[255]</text>
<polygon fill="none" stroke="#000000" points="459.5,-389.2 459.5,-411.2 593.5,-411.2 593.5,-389.2 459.5,-389.2"/>
<text text-anchor="start" x="479.5" y="-396.3" font-family="Helvetica,sans-Serif" font-size="11.00" fill="#000000">date_entered</text>
<polygon fill="none" stroke="#000000" points="593.5,-389.2 593.5,-411.2 704.5,-411.2 704.5,-389.2 593.5,-389.2"/>
<text text-anchor="start" x="596.5" y="-396.9" font-family="Helvetica,sans-Serif" font-size="11.00" fill="#000000">datetime[26]</text>
<polygon fill="none" stroke="#000000" points="459.5,-367.2 459.5,-389.2 593.5,-389.2 593.5,-367.2 459.5,-367.2"/>
<text text-anchor="start" x="479.5" y="-374.3" font-family="Helvetica,sans-Serif" font-size="11.00" fill="#000000">date_modified</text>
<polygon fill="none" stroke="#000000" points="593.5,-367.2 593.5,-389.2 704.5,-389.2 704.5,-367.2 593.5,-367.2"/>
<text text-anchor="start" x="596.5" y="-374.9" font-family="Helvetica,sans-Serif" font-size="11.00" fill="#000000">datetime[26]</text>
<polygon fill="none" stroke="#000000" points="459.5,-345.2 459.5,-367.2 593.5,-367.2 593.5,-345.2 459.5,-345.2"/>
<image xlink:href="../../images/foreignKeys.png" width="11px" height="12px" preserveAspectRatio="xMinYMin meet" x="464.5" y="-362.2"/>
<text text-anchor="start" x="479.5" y="-352.3" font-family="Helvetica,sans-Serif" font-size="11.00" fill="#000000">modified_user_id</text>
<polygon fill="none" stroke="#000000" points="593.5,-345.2 593.5,-367.2 704.5,-367.2 704.5,-345.2 593.5,-345.2"/>
<text text-anchor="start" x="596.5" y="-352.9" font-family="Helvetica,sans-Serif" font-size="11.00" fill="#000000">char[36]</text>
<polygon fill="none" stroke="#000000" points="459.5,-323.2 459.5,-345.2 593.5,-345.2 593.5,-323.2 459.5,-323.2"/>
<image xlink:href="../../images/foreignKeys.png" width="11px" height="12px" preserveAspectRatio="xMinYMin meet" x="464.5" y="-340.2"/>
<text text-anchor="start" x="479.5" y="-330.3" font-family="Helvetica,sans-Serif" font-size="11.00" fill="#000000">created_by</text>
<polygon fill="none" stroke="#000000" points="593.5,-323.2 593.5,-345.2 704.5,-345.2 704.5,-323.2 593.5,-323.2"/>
<text text-anchor="start" x="596.5" y="-330.9" font-family="Helvetica,sans-Serif" font-size="11.00" fill="#000000">char[36]</text>
<polygon fill="none" stroke="#000000" points="459.5,-301.2 459.5,-323.2 593.5,-323.2 593.5,-301.2 459.5,-301.2"/>
<text text-anchor="start" x="479.5" y="-308.3" font-family="Helvetica,sans-Serif" font-size="11.00" fill="#000000">description</text>
<polygon fill="none" stroke="#000000" points="593.5,-301.2 593.5,-323.2 704.5,-323.2 704.5,-301.2 593.5,-301.2"/>
<text text-anchor="start" x="596.5" y="-308.9" font-family="Helvetica,sans-Serif" font-size="11.00" fill="#000000">text[65535]</text>
<polygon fill="none" stroke="#000000" points="459.5,-279.2 459.5,-301.2 593.5,-301.2 593.5,-279.2 459.5,-279.2"/>
<text text-anchor="start" x="479.5" y="-286.3" font-family="Helvetica,sans-Serif" font-size="11.00" fill="#000000">deleted</text>
<polygon fill="none" stroke="#000000" points="593.5,-279.2 593.5,-301.2 704.5,-301.2 704.5,-279.2 593.5,-279.2"/>
<text text-anchor="start" x="596.5" y="-286.9" font-family="Helvetica,sans-Serif" font-size="11.00" fill="#000000">bit[1]</text>
<polygon fill="#ffffff" stroke="transparent" points="459.5,-257.2 459.5,-279.2 593.5,-279.2 593.5,-257.2 459.5,-257.2"/>
<polygon fill="none" stroke="#000000" points="459.5,-257.2 459.5,-279.2 593.5,-279.2 593.5,-257.2 459.5,-257.2"/>
<image xlink:href="../../images/foreignKeys.png" width="11px" height="12px" preserveAspectRatio="xMinYMin meet" x="464.5" y="-274.2"/>
<text text-anchor="start" x="479.5" y="-264.3" font-family="Helvetica,sans-Serif" font-size="11.00" fill="#000000">aor_report_id</text>
<polygon fill="none" stroke="#000000" points="593.5,-257.2 593.5,-279.2 704.5,-279.2 704.5,-257.2 593.5,-257.2"/>
<text text-anchor="start" x="596.5" y="-264.9" font-family="Helvetica,sans-Serif" font-size="11.00" fill="#000000">char[36]</text>
<polygon fill="none" stroke="#000000" points="459.5,-235.2 459.5,-257.2 593.5,-257.2 593.5,-235.2 459.5,-235.2"/>
<text text-anchor="start" x="479.5" y="-242.3" font-family="Helvetica,sans-Serif" font-size="11.00" fill="#000000">condition_order</text>
<polygon fill="none" stroke="#000000" points="593.5,-235.2 593.5,-257.2 704.5,-257.2 704.5,-235.2 593.5,-235.2"/>
<text text-anchor="start" x="596.5" y="-242.9" font-family="Helvetica,sans-Serif" font-size="11.00" fill="#000000">int[10]</text>
<polygon fill="none" stroke="#000000" points="459.5,-213.2 459.5,-235.2 593.5,-235.2 593.5,-213.2 459.5,-213.2"/>
<text text-anchor="start" x="479.5" y="-220.3" font-family="Helvetica,sans-Serif" font-size="11.00" fill="#000000">logic_op</text>
<polygon fill="none" stroke="#000000" points="593.5,-213.2 593.5,-235.2 704.5,-235.2 704.5,-213.2 593.5,-213.2"/>
<text text-anchor="start" x="596.5" y="-220.9" font-family="Helvetica,sans-Serif" font-size="11.00" fill="#000000">varchar[255]</text>
<polygon fill="none" stroke="#000000" points="459.5,-191.2 459.5,-213.2 593.5,-213.2 593.5,-191.2 459.5,-191.2"/>
<text text-anchor="start" x="479.5" y="-198.3" font-family="Helvetica,sans-Serif" font-size="11.00" fill="#000000">parenthesis</text>
<polygon fill="none" stroke="#000000" points="593.5,-191.2 593.5,-213.2 704.5,-213.2 704.5,-191.2 593.5,-191.2"/>
<text text-anchor="start" x="596.5" y="-198.9" font-family="Helvetica,sans-Serif" font-size="11.00" fill="#000000">varchar[255]</text>
<polygon fill="none" stroke="#000000" points="459.5,-169.2 459.5,-191.2 593.5,-191.2 593.5,-169.2 459.5,-169.2"/>
<text text-anchor="start" x="479.5" y="-176.3" font-family="Helvetica,sans-Serif" font-size="11.00" fill="#000000">module_path</text>
<polygon fill="none" stroke="#000000" points="593.5,-169.2 593.5,-191.2 704.5,-191.2 704.5,-169.2 593.5,-169.2"/>
<text text-anchor="start" x="596.1115" y="-176.9" font-family="Helvetica,sans-Serif" font-size="11.00" fill="#000000">longtext[2147483647]</text>
<polygon fill="none" stroke="#000000" points="459.5,-147.2 459.5,-169.2 593.5,-169.2 593.5,-147.2 459.5,-147.2"/>
<text text-anchor="start" x="479.5" y="-154.3" font-family="Helvetica,sans-Serif" font-size="11.00" fill="#000000">field</text>
<polygon fill="none" stroke="#000000" points="593.5,-147.2 593.5,-169.2 704.5,-169.2 704.5,-147.2 593.5,-147.2"/>
<text text-anchor="start" x="596.5" y="-154.9" font-family="Helvetica,sans-Serif" font-size="11.00" fill="#000000">varchar[100]</text>
<polygon fill="none" stroke="#000000" points="459.5,-125.2 459.5,-147.2 593.5,-147.2 593.5,-125.2 459.5,-125.2"/>
<text text-anchor="start" x="479.5" y="-132.3" font-family="Helvetica,sans-Serif" font-size="11.00" fill="#000000">operator</text>
<polygon fill="none" stroke="#000000" points="593.5,-125.2 593.5,-147.2 704.5,-147.2 704.5,-125.2 593.5,-125.2"/>
<text text-anchor="start" x="596.5" y="-132.9" font-family="Helvetica,sans-Serif" font-size="11.00" fill="#000000">varchar[100]</text>
<polygon fill="none" stroke="#000000" points="459.5,-103.2 459.5,-125.2 593.5,-125.2 593.5,-103.2 459.5,-103.2"/>
<text text-anchor="start" x="479.5" y="-110.3" font-family="Helvetica,sans-Serif" font-size="11.00" fill="#000000">value_type</text>
<polygon fill="none" stroke="#000000" points="593.5,-103.2 593.5,-125.2 704.5,-125.2 704.5,-103.2 593.5,-103.2"/>
<text text-anchor="start" x="596.5" y="-110.9" font-family="Helvetica,sans-Serif" font-size="11.00" fill="#000000">varchar[100]</text>
<polygon fill="none" stroke="#000000" points="459.5,-81.2 459.5,-103.2 593.5,-103.2 593.5,-81.2 459.5,-81.2"/>
<text text-anchor="start" x="479.5" y="-88.3" font-family="Helvetica,sans-Serif" font-size="11.00" fill="#000000">value</text>
<polygon fill="none" stroke="#000000" points="593.5,-81.2 593.5,-103.2 704.5,-103.2 704.5,-81.2 593.5,-81.2"/>
<text text-anchor="start" x="596.5" y="-88.9" font-family="Helvetica,sans-Serif" font-size="11.00" fill="#000000">varchar[255]</text>
<polygon fill="none" stroke="#000000" points="459.5,-59.2 459.5,-81.2 593.5,-81.2 593.5,-59.2 459.5,-59.2"/>
<text text-anchor="start" x="479.5" y="-66.3" font-family="Helvetica,sans-Serif" font-size="11.00" fill="#000000">parameter</text>
<polygon fill="none" stroke="#000000" points="593.5,-59.2 593.5,-81.2 704.5,-81.2 704.5,-59.2 593.5,-59.2"/>
<text text-anchor="start" x="596.5" y="-66.9" font-family="Helvetica,sans-Serif" font-size="11.00" fill="#000000">bit[1]</text>
<polygon fill="#ffffff" stroke="transparent" points="459.5,-40.2 459.5,-59.2 530.5,-59.2 530.5,-40.2 459.5,-40.2"/>
<polygon fill="none" stroke="#000000" points="459.5,-40.2 459.5,-59.2 530.5,-59.2 530.5,-40.2 459.5,-40.2"/>
<text text-anchor="start" x="462.5" y="-46.3" font-family="Helvetica,sans-Serif" font-size="11.00" fill="#000000">&lt; 3</text>
<polygon fill="#ffffff" stroke="transparent" points="530.5,-40.2 530.5,-59.2 593.5,-59.2 593.5,-40.2 530.5,-40.2"/>
<polygon fill="none" stroke="#000000" points="530.5,-40.2 530.5,-59.2 593.5,-59.2 593.5,-40.2 530.5,-40.2"/>
<text text-anchor="start" x="584.3862" y="-46.3" font-family="Helvetica,sans-Serif" font-size="11.00" fill="#000000"> &#160;</text>
<polygon fill="#ffffff" stroke="transparent" points="593.5,-40.2 593.5,-59.2 704.5,-59.2 704.5,-40.2 593.5,-40.2"/>
<polygon fill="none" stroke="#000000" points="593.5,-40.2 593.5,-59.2 704.5,-59.2 704.5,-40.2 593.5,-40.2"/>
<text text-anchor="start" x="685.9053" y="-46.3" font-family="Helvetica,sans-Serif" font-size="11.00" fill="#000000">0 &gt;</text>
<polygon fill="none" stroke="#000000" stroke-width="2" points="458,-39.2 458,-479.2 705,-479.2 705,-39.2 458,-39.2"/>
</a>
</g>
</g>
<!-- aor_reports -->
<g id="node2" class="node">
<title>aor_reports</title>
<g id="a_node2"><a xlink:href="../../tables/aor_reports.html" xlink:title="aor_reports" target="_top">
<polygon fill="#ffffff" stroke="transparent" points="273,-155.7 273,-304.7 408,-304.7 408,-155.7 273,-155.7"/>
<polygon fill="#f5f5f5" stroke="transparent" points="273.5,-281.2 273.5,-304.2 408.5,-304.2 408.5,-281.2 273.5,-281.2"/>
<polygon fill="none" stroke="#000000" points="273.5,-281.2 273.5,-304.2 408.5,-304.2 408.5,-281.2 273.5,-281.2"/>
<text text-anchor="start" x="278.5" y="-290.3" font-family="Helvetica,sans-Serif" font-weight="bold" font-size="11.00" fill="#000000">aor_reports</text>
<text text-anchor="start" x="373.5437" y="-289.3" font-family="Helvetica,sans-Serif" font-size="11.00" fill="#000000">[table]</text>
<polygon fill="none" stroke="#000000" points="273.5,-259.2 273.5,-281.2 408.5,-281.2 408.5,-259.2 273.5,-259.2"/>
<image xlink:href="../../images/primaryKeys.png" width="11px" height="12px" preserveAspectRatio="xMinYMin meet" x="278.5" y="-276.2"/>
<text text-anchor="start" x="293.5" y="-266.3" font-family="Helvetica,sans-Serif" font-size="11.00" fill="#000000">id</text>
<polygon fill="#c0c0c0" stroke="transparent" points="273.5,-237.2 273.5,-259.2 408.5,-259.2 408.5,-237.2 273.5,-237.2"/>
<polygon fill="none" stroke="#000000" points="273.5,-237.2 273.5,-259.2 408.5,-259.2 408.5,-237.2 273.5,-237.2"/>
<image xlink:href="../../images/foreignKeys.png" width="11px" height="12px" preserveAspectRatio="xMinYMin meet" x="278.5" y="-254.2"/>
<text text-anchor="start" x="293.5" y="-244.3" font-family="Helvetica,sans-Serif" font-size="11.00" fill="#000000">modified_user_id</text>
<polygon fill="#c0c0c0" stroke="transparent" points="273.5,-215.2 273.5,-237.2 408.5,-237.2 408.5,-215.2 273.5,-215.2"/>
<polygon fill="none" stroke="#000000" points="273.5,-215.2 273.5,-237.2 408.5,-237.2 408.5,-215.2 273.5,-215.2"/>
<image xlink:href="../../images/foreignKeys.png" width="11px" height="12px" preserveAspectRatio="xMinYMin meet" x="278.5" y="-232.2"/>
<text text-anchor="start" x="293.5" y="-222.3" font-family="Helvetica,sans-Serif" font-size="11.00" fill="#000000">created_by</text>
<polygon fill="#c0c0c0" stroke="transparent" points="273.5,-193.2 273.5,-215.2 408.5,-215.2 408.5,-193.2 273.5,-193.2"/>
<polygon fill="none" stroke="#000000" points="273.5,-193.2 273.5,-215.2 408.5,-215.2 408.5,-193.2 273.5,-193.2"/>
<image xlink:href="../../images/foreignKeys.png" width="11px" height="12px" preserveAspectRatio="xMinYMin meet" x="278.5" y="-210.2"/>
<text text-anchor="start" x="293.5" y="-200.3" font-family="Helvetica,sans-Serif" font-size="11.00" fill="#000000">assigned_user_id</text>
<polygon fill="none" stroke="#000000" points="273.5,-174.2 273.5,-193.2 408.5,-193.2 408.5,-174.2 273.5,-174.2"/>
<text text-anchor="start" x="276.5" y="-180.3" font-family="Helvetica,sans-Serif" font-size="11.00" fill="#000000">...</text>
<polygon fill="#ffffff" stroke="transparent" points="273.5,-155.2 273.5,-174.2 334.5,-174.2 334.5,-155.2 273.5,-155.2"/>
<polygon fill="none" stroke="#000000" points="273.5,-155.2 273.5,-174.2 334.5,-174.2 334.5,-155.2 273.5,-155.2"/>
<text text-anchor="start" x="276.5" y="-161.3" font-family="Helvetica,sans-Serif" font-size="11.00" fill="#000000">&lt; 3</text>
<polygon fill="#ffffff" stroke="transparent" points="334.5,-155.2 334.5,-174.2 366.5,-174.2 366.5,-155.2 334.5,-155.2"/>
<polygon fill="none" stroke="#000000" points="334.5,-155.2 334.5,-174.2 366.5,-174.2 366.5,-155.2 334.5,-155.2"/>
<text text-anchor="start" x="357.3862" y="-161.3" font-family="Helvetica,sans-Serif" font-size="11.00" fill="#000000"> &#160;</text>
<polygon fill="#ffffff" stroke="transparent" points="366.5,-155.2 366.5,-174.2 408.5,-174.2 408.5,-155.2 366.5,-155.2"/>
<polygon fill="none" stroke="#000000" points="366.5,-155.2 366.5,-174.2 408.5,-174.2 408.5,-155.2 366.5,-155.2"/>
<text text-anchor="start" x="389.9053" y="-161.3" font-family="Helvetica,sans-Serif" font-size="11.00" fill="#000000">6 &gt;</text>
</a>
</g>
</g>
<!-- aor_conditions&#45;&gt;aor_reports -->
<g id="edge1" class="edge">
<title>aor_conditions:w&#45;&gt;aor_reports:e</title>
<path fill="none" stroke="#000000" d="M444.7711,-268.5303C432.7786,-269.0983 425.3358,-270.2 408.5,-270.2"/>
<polygon fill="#000000" stroke="#000000" points="451.502,-268.3794 459.5807,-271.7991 455.501,-268.2897 459.5,-268.2 459.5,-268.2 459.5,-268.2 455.501,-268.2897 459.4193,-264.6009 451.502,-268.3794 451.502,-268.3794"/>
<ellipse fill="none" stroke="#000000" cx="448.3028" cy="-268.4511" rx="3.2" ry="3.2"/>
</g>
<!-- users -->
<g id="node3" class="node">
<title>users</title>
<g id="a_node3"><a xlink:href="../../tables/users.html" xlink:title="users" target="_top">
<polygon fill="#ffffff" stroke="transparent" points="8,-67.7 8,-282.7 224,-282.7 224,-67.7 8,-67.7"/>
<polygon fill="#f5f5f5" stroke="transparent" points="8,-259.2 8,-282.2 224,-282.2 224,-259.2 8,-259.2"/>
<polygon fill="none" stroke="#000000" points="8,-259.2 8,-282.2 224,-282.2 224,-259.2 8,-259.2"/>
<text text-anchor="start" x="13" y="-268.3" font-family="Helvetica,sans-Serif" font-weight="bold" font-size="11.00" fill="#000000">users</text>
<text text-anchor="start" x="189.0437" y="-267.3" font-family="Helvetica,sans-Serif" font-size="11.00" fill="#000000">[table]</text>
<polygon fill="none" stroke="#000000" points="8,-237.2 8,-259.2 224,-259.2 224,-237.2 8,-237.2"/>
<image xlink:href="../../images/primaryKeys.png" width="11px" height="12px" preserveAspectRatio="xMinYMin meet" x="13" y="-254.2"/>
<text text-anchor="start" x="28" y="-244.3" font-family="Helvetica,sans-Serif" font-size="11.00" fill="#000000">id</text>
<polygon fill="#ffffff" stroke="transparent" points="8,-215.2 8,-237.2 224,-237.2 224,-215.2 8,-215.2"/>
<polygon fill="none" stroke="#000000" points="8,-215.2 8,-237.2 224,-237.2 224,-215.2 8,-215.2"/>
<text text-anchor="start" x="28" y="-222.3" font-family="Helvetica,sans-Serif" font-size="11.00" fill="#000000">user_name</text>
<polygon fill="#ffffff" stroke="transparent" points="8,-193.2 8,-215.2 224,-215.2 224,-193.2 8,-193.2"/>
<polygon fill="none" stroke="#000000" points="8,-193.2 8,-215.2 224,-215.2 224,-193.2 8,-193.2"/>
<text text-anchor="start" x="28" y="-200.3" font-family="Helvetica,sans-Serif" font-size="11.00" fill="#000000">first_name</text>
<polygon fill="#ffffff" stroke="transparent" points="8,-171.2 8,-193.2 224,-193.2 224,-171.2 8,-171.2"/>
<polygon fill="none" stroke="#000000" points="8,-171.2 8,-193.2 224,-193.2 224,-171.2 8,-171.2"/>
<text text-anchor="start" x="28" y="-178.3" font-family="Helvetica,sans-Serif" font-size="11.00" fill="#000000">last_name</text>
<polygon fill="#ffffff" stroke="transparent" points="8,-149.2 8,-171.2 224,-171.2 224,-149.2 8,-149.2"/>
<polygon fill="none" stroke="#000000" points="8,-149.2 8,-171.2 224,-171.2 224,-149.2 8,-149.2"/>
<text text-anchor="start" x="28" y="-156.3" font-family="Helvetica,sans-Serif" font-size="11.00" fill="#000000">status</text>
<polygon fill="#c0c0c0" stroke="transparent" points="8,-127.2 8,-149.2 224,-149.2 224,-127.2 8,-127.2"/>
<polygon fill="none" stroke="#000000" points="8,-127.2 8,-149.2 224,-149.2 224,-127.2 8,-127.2"/>
<image xlink:href="../../images/foreignKeys.png" width="11px" height="12px" preserveAspectRatio="xMinYMin meet" x="13" y="-144.2"/>
<text text-anchor="start" x="28" y="-134.3" font-family="Helvetica,sans-Serif" font-size="11.00" fill="#000000">reports_to_id</text>
<polygon fill="#ffffff" stroke="transparent" points="8,-105.2 8,-127.2 224,-127.2 224,-105.2 8,-105.2"/>
<polygon fill="none" stroke="#000000" points="8,-105.2 8,-127.2 224,-127.2 224,-105.2 8,-105.2"/>
<text text-anchor="start" x="28" y="-112.3" font-family="Helvetica,sans-Serif" font-size="11.00" fill="#000000">is_group</text>
<polygon fill="none" stroke="#000000" points="8,-86.2 8,-105.2 224,-105.2 224,-86.2 8,-86.2"/>
<text text-anchor="start" x="11" y="-92.3" font-family="Helvetica,sans-Serif" font-size="11.00" fill="#000000">...</text>
<polygon fill="#ffffff" stroke="transparent" points="8,-67.2 8,-86.2 104,-86.2 104,-67.2 8,-67.2"/>
<polygon fill="none" stroke="#000000" points="8,-67.2 8,-86.2 104,-86.2 104,-67.2 8,-67.2"/>
<text text-anchor="start" x="11" y="-73.3" font-family="Helvetica,sans-Serif" font-size="11.00" fill="#000000">&lt; 2</text>
<polygon fill="#ffffff" stroke="transparent" points="104,-67.2 104,-86.2 153,-86.2 153,-67.2 104,-67.2"/>
<polygon fill="none" stroke="#000000" points="104,-67.2 104,-86.2 153,-86.2 153,-67.2 104,-67.2"/>
<text text-anchor="start" x="143.8862" y="-73.3" font-family="Helvetica,sans-Serif" font-size="11.00" fill="#000000"> &#160;</text>
<polygon fill="#ffffff" stroke="transparent" points="153,-67.2 153,-86.2 224,-86.2 224,-67.2 153,-67.2"/>
<polygon fill="none" stroke="#000000" points="153,-67.2 153,-86.2 224,-86.2 224,-67.2 153,-67.2"/>
<text text-anchor="start" x="193.1755" y="-73.3" font-family="Helvetica,sans-Serif" font-size="11.00" fill="#000000">214 &gt;</text>
</a>
</g>
</g>
<!-- aor_conditions&#45;&gt;users -->
<g id="edge2" class="edge">
<title>aor_conditions:w&#45;&gt;users:e</title>
<path fill="none" stroke="#000000" d="M444.7578,-334.459C368.52,-337.1245 334.2985,-358.5994 265,-315.2 235.4126,-296.6703 258.9108,-248.2 224,-248.2"/>
<polygon fill="#000000" stroke="#000000" points="451.5012,-334.3406 459.5632,-337.7994 455.5006,-334.2703 459.5,-334.2 459.5,-334.2 459.5,-334.2 455.5006,-334.2703 459.4368,-330.6006 451.5012,-334.3406 451.5012,-334.3406"/>
<ellipse fill="none" stroke="#000000" cx="448.3017" cy="-334.3968" rx="3.2" ry="3.2"/>
</g>
<!-- aor_conditions&#45;&gt;users -->
<g id="edge3" class="edge">
<title>aor_conditions:w&#45;&gt;users:e</title>
<path fill="none" stroke="#000000" d="M444.7368,-356.5094C368.2434,-359.7001 331.6199,-385.5403 265,-338.2 229.17,-312.7391 267.9551,-248.2 224,-248.2"/>
<polygon fill="#000000" stroke="#000000" points="451.5018,-356.3677 459.5755,-359.7992 455.5009,-356.2838 459.5,-356.2 459.5,-356.2 459.5,-356.2 455.5009,-356.2838 459.4245,-352.6008 451.5018,-356.3677 451.5018,-356.3677"/>
<ellipse fill="none" stroke="#000000" cx="448.3025" cy="-356.4348" rx="3.2" ry="3.2"/>
</g>
<!-- aor_reports&#45;&gt;users -->
<g id="edge4" class="edge">
<title>aor_reports:w&#45;&gt;users:e</title>
<path fill="none" stroke="#000000" d="M259.7159,-208.9088C246.2705,-220.2596 247.456,-248.2 224,-248.2"/>
<polygon fill="#000000" stroke="#000000" points="265.9295,-206.7862 274.6638,-207.6067 269.7148,-205.4931 273.5,-204.2 273.5,-204.2 273.5,-204.2 269.7148,-205.4931 272.3362,-200.7933 265.9295,-206.7862 265.9295,-206.7862"/>
<ellipse fill="none" stroke="#000000" cx="262.9013" cy="-207.8206" rx="3.2" ry="3.2"/>
</g>
<!-- aor_reports&#45;&gt;users -->
<g id="edge5" class="edge">
<title>aor_reports:w&#45;&gt;users:e</title>
<path fill="none" stroke="#000000" d="M259.3612,-229.4462C247.4382,-235.5658 242.2443,-248.2 224,-248.2"/>
<polygon fill="#000000" stroke="#000000" points="265.7029,-227.9902 274.3056,-229.7087 269.6014,-227.0951 273.5,-226.2 273.5,-226.2 273.5,-226.2 269.6014,-227.0951 272.6944,-222.6913 265.7029,-227.9902 265.7029,-227.9902"/>
<ellipse fill="none" stroke="#000000" cx="262.584" cy="-228.7063" rx="3.2" ry="3.2"/>
</g>
<!-- aor_reports&#45;&gt;users -->
<g id="edge6" class="edge">
<title>aor_reports:w&#45;&gt;users:e</title>
<path fill="none" stroke="#000000" d="M258.8428,-248.2C247.4139,-248.2 240.1563,-248.2 224,-248.2"/>
<polygon fill="#000000" stroke="#000000" points="265.5,-248.2001 273.5,-251.8 269.5,-248.2 273.5,-248.2 273.5,-248.2 273.5,-248.2 269.5,-248.2 273.5,-244.6 265.5,-248.2001 265.5,-248.2001"/>
<ellipse fill="none" stroke="#000000" cx="262.3" cy="-248.2001" rx="3.2" ry="3.2"/>
</g>
</g>
</svg>
