<?xml version="1.0" encoding="UTF-8" standalone="no"?>
<!DOCTYPE svg PUBLIC "-//W3C//DTD SVG 1.1//EN"
 "http://www.w3.org/Graphics/SVG/1.1/DTD/svg11.dtd">
<!-- Generated by graphviz version 2.40.1 (20161225.0304)
 -->
<!-- Title: oneDegreeRelationshipsDiagram Pages: 1 -->
<svg width="945pt" height="863pt"
 viewBox="0.00 0.00 945.00 863.20" xmlns="http://www.w3.org/2000/svg" xmlns:xlink="http://www.w3.org/1999/xlink">
<g id="graph0" class="graph" transform="scale(1 1) rotate(0) translate(4 859.2)">
<title>oneDegreeRelationshipsDiagram</title>
<polygon fill="#ffffff" stroke="transparent" points="-4,4 -4,-859.2 941,-859.2 941,4 -4,4"/>
<text text-anchor="middle" x="72.4936" y="-7.3" font-family="Helvetica,sans-Serif" font-size="11.00" fill="#000000">Generated by SchemaSpy</text>
<!-- aor_charts -->
<g id="node1" class="node">
<title>aor_charts</title>
<g id="a_node1"><a xlink:href="../../tables/aor_charts.html" xlink:title="aor_charts" target="_top">
<polygon fill="#ffffff" stroke="transparent" points="547.5,-702.2 547.5,-851.2 681.5,-851.2 681.5,-702.2 547.5,-702.2"/>
<polygon fill="#f5f5f5" stroke="transparent" points="547.5,-827.7 547.5,-850.7 681.5,-850.7 681.5,-827.7 547.5,-827.7"/>
<polygon fill="none" stroke="#000000" points="547.5,-827.7 547.5,-850.7 681.5,-850.7 681.5,-827.7 547.5,-827.7"/>
<text text-anchor="start" x="552.5" y="-836.8" font-family="Helvetica,sans-Serif" font-weight="bold" font-size="11.00" fill="#000000">aor_charts</text>
<text text-anchor="start" x="646.5437" y="-835.8" font-family="Helvetica,sans-Serif" font-size="11.00" fill="#000000">[table]</text>
<polygon fill="none" stroke="#000000" points="547.5,-805.7 547.5,-827.7 681.5,-827.7 681.5,-805.7 547.5,-805.7"/>
<image xlink:href="../../images/primaryKeys.png" width="11px" height="12px" preserveAspectRatio="xMinYMin meet" x="552.5" y="-822.7"/>
<text text-anchor="start" x="567.5" y="-812.8" font-family="Helvetica,sans-Serif" font-size="11.00" fill="#000000">id</text>
<polygon fill="#c0c0c0" stroke="transparent" points="547.5,-783.7 547.5,-805.7 681.5,-805.7 681.5,-783.7 547.5,-783.7"/>
<polygon fill="none" stroke="#000000" points="547.5,-783.7 547.5,-805.7 681.5,-805.7 681.5,-783.7 547.5,-783.7"/>
<image xlink:href="../../images/foreignKeys.png" width="11px" height="12px" preserveAspectRatio="xMinYMin meet" x="552.5" y="-800.7"/>
<text text-anchor="start" x="567.5" y="-790.8" font-family="Helvetica,sans-Serif" font-size="11.00" fill="#000000">modified_user_id</text>
<polygon fill="#c0c0c0" stroke="transparent" points="547.5,-761.7 547.5,-783.7 681.5,-783.7 681.5,-761.7 547.5,-761.7"/>
<polygon fill="none" stroke="#000000" points="547.5,-761.7 547.5,-783.7 681.5,-783.7 681.5,-761.7 547.5,-761.7"/>
<image xlink:href="../../images/foreignKeys.png" width="11px" height="12px" preserveAspectRatio="xMinYMin meet" x="552.5" y="-778.7"/>
<text text-anchor="start" x="567.5" y="-768.8" font-family="Helvetica,sans-Serif" font-size="11.00" fill="#000000">created_by</text>
<polygon fill="none" stroke="#000000" points="547.5,-739.7 547.5,-761.7 681.5,-761.7 681.5,-739.7 547.5,-739.7"/>
<image xlink:href="../../images/foreignKeys.png" width="11px" height="12px" preserveAspectRatio="xMinYMin meet" x="552.5" y="-756.7"/>
<text text-anchor="start" x="567.5" y="-746.8" font-family="Helvetica,sans-Serif" font-size="11.00" fill="#000000">aor_report_id</text>
<polygon fill="none" stroke="#000000" points="547.5,-720.7 547.5,-739.7 681.5,-739.7 681.5,-720.7 547.5,-720.7"/>
<text text-anchor="start" x="550.5" y="-726.8" font-family="Helvetica,sans-Serif" font-size="11.00" fill="#000000">...</text>
<polygon fill="#ffffff" stroke="transparent" points="547.5,-701.7 547.5,-720.7 612.5,-720.7 612.5,-701.7 547.5,-701.7"/>
<polygon fill="none" stroke="#000000" points="547.5,-701.7 547.5,-720.7 612.5,-720.7 612.5,-701.7 547.5,-701.7"/>
<text text-anchor="start" x="550.5" y="-707.8" font-family="Helvetica,sans-Serif" font-size="11.00" fill="#000000">&lt; 3</text>
<polygon fill="#ffffff" stroke="transparent" points="612.5,-701.7 612.5,-720.7 646.5,-720.7 646.5,-701.7 612.5,-701.7"/>
<polygon fill="none" stroke="#000000" points="612.5,-701.7 612.5,-720.7 646.5,-720.7 646.5,-701.7 612.5,-701.7"/>
<text text-anchor="start" x="637.3862" y="-707.8" font-family="Helvetica,sans-Serif" font-size="11.00" fill="#000000"> &#160;</text>
<polygon fill="#ffffff" stroke="transparent" points="646.5,-701.7 646.5,-720.7 681.5,-720.7 681.5,-701.7 646.5,-701.7"/>
<polygon fill="none" stroke="#000000" points="646.5,-701.7 646.5,-720.7 681.5,-720.7 681.5,-701.7 646.5,-701.7"/>
<text text-anchor="start" x="672.3862" y="-707.8" font-family="Helvetica,sans-Serif" font-size="11.00" fill="#000000"> &#160;</text>
</a>
</g>
</g>
<!-- aor_reports -->
<g id="node2" class="node">
<title>aor_reports</title>
<g id="a_node2"><a xlink:href="../../tables/aor_reports.html" xlink:title="aor_reports" target="_top">
<polygon fill="#ffffff" stroke="transparent" points="273,-287.7 273,-575.7 479,-575.7 479,-287.7 273,-287.7"/>
<polygon fill="#f5f5f5" stroke="transparent" points="275,-550.7 275,-573.7 477,-573.7 477,-550.7 275,-550.7"/>
<polygon fill="none" stroke="#000000" points="275,-550.7 275,-573.7 477,-573.7 477,-550.7 275,-550.7"/>
<text text-anchor="start" x="280" y="-559.8" font-family="Helvetica,sans-Serif" font-weight="bold" font-size="11.00" fill="#000000">aor_reports</text>
<text text-anchor="start" x="442.0437" y="-558.8" font-family="Helvetica,sans-Serif" font-size="11.00" fill="#000000">[table]</text>
<polygon fill="none" stroke="#000000" points="275,-528.7 275,-550.7 410,-550.7 410,-528.7 275,-528.7"/>
<image xlink:href="../../images/primaryKeys.png" width="11px" height="12px" preserveAspectRatio="xMinYMin meet" x="280" y="-545.7"/>
<text text-anchor="start" x="295" y="-535.8" font-family="Helvetica,sans-Serif" font-size="11.00" fill="#000000">id</text>
<polygon fill="none" stroke="#000000" points="410,-528.7 410,-550.7 477,-550.7 477,-528.7 410,-528.7"/>
<text text-anchor="start" x="413" y="-536.4" font-family="Helvetica,sans-Serif" font-size="11.00" fill="#000000">char[36]</text>
<polygon fill="none" stroke="#000000" points="275,-506.7 275,-528.7 410,-528.7 410,-506.7 275,-506.7"/>
<text text-anchor="start" x="295" y="-513.8" font-family="Helvetica,sans-Serif" font-size="11.00" fill="#000000">name</text>
<polygon fill="none" stroke="#000000" points="410,-506.7 410,-528.7 477,-528.7 477,-506.7 410,-506.7"/>
<text text-anchor="start" x="412.9365" y="-514.4" font-family="Helvetica,sans-Serif" font-size="11.00" fill="#000000">varchar[255]</text>
<polygon fill="none" stroke="#000000" points="275,-484.7 275,-506.7 410,-506.7 410,-484.7 275,-484.7"/>
<text text-anchor="start" x="295" y="-491.8" font-family="Helvetica,sans-Serif" font-size="11.00" fill="#000000">date_entered</text>
<polygon fill="none" stroke="#000000" points="410,-484.7 410,-506.7 477,-506.7 477,-484.7 410,-484.7"/>
<text text-anchor="start" x="413" y="-492.4" font-family="Helvetica,sans-Serif" font-size="11.00" fill="#000000">datetime[26]</text>
<polygon fill="none" stroke="#000000" points="275,-462.7 275,-484.7 410,-484.7 410,-462.7 275,-462.7"/>
<text text-anchor="start" x="295" y="-469.8" font-family="Helvetica,sans-Serif" font-size="11.00" fill="#000000">date_modified</text>
<polygon fill="none" stroke="#000000" points="410,-462.7 410,-484.7 477,-484.7 477,-462.7 410,-462.7"/>
<text text-anchor="start" x="413" y="-470.4" font-family="Helvetica,sans-Serif" font-size="11.00" fill="#000000">datetime[26]</text>
<polygon fill="none" stroke="#000000" points="275,-440.7 275,-462.7 410,-462.7 410,-440.7 275,-440.7"/>
<image xlink:href="../../images/foreignKeys.png" width="11px" height="12px" preserveAspectRatio="xMinYMin meet" x="280" y="-457.7"/>
<text text-anchor="start" x="295" y="-447.8" font-family="Helvetica,sans-Serif" font-size="11.00" fill="#000000">modified_user_id</text>
<polygon fill="none" stroke="#000000" points="410,-440.7 410,-462.7 477,-462.7 477,-440.7 410,-440.7"/>
<text text-anchor="start" x="413" y="-448.4" font-family="Helvetica,sans-Serif" font-size="11.00" fill="#000000">char[36]</text>
<polygon fill="none" stroke="#000000" points="275,-418.7 275,-440.7 410,-440.7 410,-418.7 275,-418.7"/>
<image xlink:href="../../images/foreignKeys.png" width="11px" height="12px" preserveAspectRatio="xMinYMin meet" x="280" y="-435.7"/>
<text text-anchor="start" x="295" y="-425.8" font-family="Helvetica,sans-Serif" font-size="11.00" fill="#000000">created_by</text>
<polygon fill="none" stroke="#000000" points="410,-418.7 410,-440.7 477,-440.7 477,-418.7 410,-418.7"/>
<text text-anchor="start" x="413" y="-426.4" font-family="Helvetica,sans-Serif" font-size="11.00" fill="#000000">char[36]</text>
<polygon fill="none" stroke="#000000" points="275,-396.7 275,-418.7 410,-418.7 410,-396.7 275,-396.7"/>
<text text-anchor="start" x="295" y="-403.8" font-family="Helvetica,sans-Serif" font-size="11.00" fill="#000000">description</text>
<polygon fill="none" stroke="#000000" points="410,-396.7 410,-418.7 477,-418.7 477,-396.7 410,-396.7"/>
<text text-anchor="start" x="413" y="-404.4" font-family="Helvetica,sans-Serif" font-size="11.00" fill="#000000">text[65535]</text>
<polygon fill="none" stroke="#000000" points="275,-374.7 275,-396.7 410,-396.7 410,-374.7 275,-374.7"/>
<text text-anchor="start" x="295" y="-381.8" font-family="Helvetica,sans-Serif" font-size="11.00" fill="#000000">deleted</text>
<polygon fill="none" stroke="#000000" points="410,-374.7 410,-396.7 477,-396.7 477,-374.7 410,-374.7"/>
<text text-anchor="start" x="413" y="-382.4" font-family="Helvetica,sans-Serif" font-size="11.00" fill="#000000">bit[1]</text>
<polygon fill="none" stroke="#000000" points="275,-352.7 275,-374.7 410,-374.7 410,-352.7 275,-352.7"/>
<image xlink:href="../../images/foreignKeys.png" width="11px" height="12px" preserveAspectRatio="xMinYMin meet" x="280" y="-369.7"/>
<text text-anchor="start" x="295" y="-359.8" font-family="Helvetica,sans-Serif" font-size="11.00" fill="#000000">assigned_user_id</text>
<polygon fill="none" stroke="#000000" points="410,-352.7 410,-374.7 477,-374.7 477,-352.7 410,-352.7"/>
<text text-anchor="start" x="413" y="-360.4" font-family="Helvetica,sans-Serif" font-size="11.00" fill="#000000">char[36]</text>
<polygon fill="none" stroke="#000000" points="275,-330.7 275,-352.7 410,-352.7 410,-330.7 275,-330.7"/>
<text text-anchor="start" x="295" y="-337.8" font-family="Helvetica,sans-Serif" font-size="11.00" fill="#000000">report_module</text>
<polygon fill="none" stroke="#000000" points="410,-330.7 410,-352.7 477,-352.7 477,-330.7 410,-330.7"/>
<text text-anchor="start" x="412.9365" y="-338.4" font-family="Helvetica,sans-Serif" font-size="11.00" fill="#000000">varchar[100]</text>
<polygon fill="none" stroke="#000000" points="275,-308.7 275,-330.7 410,-330.7 410,-308.7 275,-308.7"/>
<text text-anchor="start" x="295" y="-315.8" font-family="Helvetica,sans-Serif" font-size="11.00" fill="#000000">graphs_per_row</text>
<polygon fill="none" stroke="#000000" points="410,-308.7 410,-330.7 477,-330.7 477,-308.7 410,-308.7"/>
<text text-anchor="start" x="413" y="-316.4" font-family="Helvetica,sans-Serif" font-size="11.00" fill="#000000">int[10]</text>
<polygon fill="#ffffff" stroke="transparent" points="275,-289.7 275,-308.7 347,-308.7 347,-289.7 275,-289.7"/>
<polygon fill="none" stroke="#000000" points="275,-289.7 275,-308.7 347,-308.7 347,-289.7 275,-289.7"/>
<text text-anchor="start" x="278" y="-295.8" font-family="Helvetica,sans-Serif" font-size="11.00" fill="#000000">&lt; 3</text>
<polygon fill="#ffffff" stroke="transparent" points="347,-289.7 347,-308.7 410,-308.7 410,-289.7 347,-289.7"/>
<polygon fill="none" stroke="#000000" points="347,-289.7 347,-308.7 410,-308.7 410,-289.7 347,-289.7"/>
<text text-anchor="start" x="400.8862" y="-295.8" font-family="Helvetica,sans-Serif" font-size="11.00" fill="#000000"> &#160;</text>
<polygon fill="#ffffff" stroke="transparent" points="410,-289.7 410,-308.7 477,-308.7 477,-289.7 410,-289.7"/>
<polygon fill="none" stroke="#000000" points="410,-289.7 410,-308.7 477,-308.7 477,-289.7 410,-289.7"/>
<text text-anchor="start" x="458.4053" y="-295.8" font-family="Helvetica,sans-Serif" font-size="11.00" fill="#000000">6 &gt;</text>
<polygon fill="none" stroke="#000000" stroke-width="2" points="274,-288.7 274,-574.7 478,-574.7 478,-288.7 274,-288.7"/>
</a>
</g>
</g>
<!-- aor_charts&#45;&gt;aor_reports -->
<g id="edge1" class="edge">
<title>aor_charts:w&#45;&gt;aor_reports:e</title>
<path fill="none" stroke="#000000" d="M532.7933,-748.7459C462.3155,-727.4746 570.2736,-539.7 477,-539.7"/>
<polygon fill="#000000" stroke="#000000" points="539.5697,-749.6463 547.0258,-754.2686 543.5348,-750.1731 547.5,-750.7 547.5,-750.7 547.5,-750.7 543.5348,-750.1731 547.9742,-747.1314 539.5697,-749.6463 539.5697,-749.6463"/>
<ellipse fill="none" stroke="#000000" cx="536.3976" cy="-749.2248" rx="3.2" ry="3.2"/>
</g>
<!-- users -->
<g id="node3" class="node">
<title>users</title>
<g id="a_node3"><a xlink:href="../../tables/users.html" xlink:title="users" target="_top">
<polygon fill="#ffffff" stroke="transparent" points="8,-249.2 8,-464.2 224,-464.2 224,-249.2 8,-249.2"/>
<polygon fill="#f5f5f5" stroke="transparent" points="8,-440.7 8,-463.7 224,-463.7 224,-440.7 8,-440.7"/>
<polygon fill="none" stroke="#000000" points="8,-440.7 8,-463.7 224,-463.7 224,-440.7 8,-440.7"/>
<text text-anchor="start" x="13" y="-449.8" font-family="Helvetica,sans-Serif" font-weight="bold" font-size="11.00" fill="#000000">users</text>
<text text-anchor="start" x="189.0437" y="-448.8" font-family="Helvetica,sans-Serif" font-size="11.00" fill="#000000">[table]</text>
<polygon fill="none" stroke="#000000" points="8,-418.7 8,-440.7 224,-440.7 224,-418.7 8,-418.7"/>
<image xlink:href="../../images/primaryKeys.png" width="11px" height="12px" preserveAspectRatio="xMinYMin meet" x="13" y="-435.7"/>
<text text-anchor="start" x="28" y="-425.8" font-family="Helvetica,sans-Serif" font-size="11.00" fill="#000000">id</text>
<polygon fill="#ffffff" stroke="transparent" points="8,-396.7 8,-418.7 224,-418.7 224,-396.7 8,-396.7"/>
<polygon fill="none" stroke="#000000" points="8,-396.7 8,-418.7 224,-418.7 224,-396.7 8,-396.7"/>
<text text-anchor="start" x="28" y="-403.8" font-family="Helvetica,sans-Serif" font-size="11.00" fill="#000000">user_name</text>
<polygon fill="#ffffff" stroke="transparent" points="8,-374.7 8,-396.7 224,-396.7 224,-374.7 8,-374.7"/>
<polygon fill="none" stroke="#000000" points="8,-374.7 8,-396.7 224,-396.7 224,-374.7 8,-374.7"/>
<text text-anchor="start" x="28" y="-381.8" font-family="Helvetica,sans-Serif" font-size="11.00" fill="#000000">first_name</text>
<polygon fill="#ffffff" stroke="transparent" points="8,-352.7 8,-374.7 224,-374.7 224,-352.7 8,-352.7"/>
<polygon fill="none" stroke="#000000" points="8,-352.7 8,-374.7 224,-374.7 224,-352.7 8,-352.7"/>
<text text-anchor="start" x="28" y="-359.8" font-family="Helvetica,sans-Serif" font-size="11.00" fill="#000000">last_name</text>
<polygon fill="#ffffff" stroke="transparent" points="8,-330.7 8,-352.7 224,-352.7 224,-330.7 8,-330.7"/>
<polygon fill="none" stroke="#000000" points="8,-330.7 8,-352.7 224,-352.7 224,-330.7 8,-330.7"/>
<text text-anchor="start" x="28" y="-337.8" font-family="Helvetica,sans-Serif" font-size="11.00" fill="#000000">status</text>
<polygon fill="#c0c0c0" stroke="transparent" points="8,-308.7 8,-330.7 224,-330.7 224,-308.7 8,-308.7"/>
<polygon fill="none" stroke="#000000" points="8,-308.7 8,-330.7 224,-330.7 224,-308.7 8,-308.7"/>
<image xlink:href="../../images/foreignKeys.png" width="11px" height="12px" preserveAspectRatio="xMinYMin meet" x="13" y="-325.7"/>
<text text-anchor="start" x="28" y="-315.8" font-family="Helvetica,sans-Serif" font-size="11.00" fill="#000000">reports_to_id</text>
<polygon fill="#ffffff" stroke="transparent" points="8,-286.7 8,-308.7 224,-308.7 224,-286.7 8,-286.7"/>
<polygon fill="none" stroke="#000000" points="8,-286.7 8,-308.7 224,-308.7 224,-286.7 8,-286.7"/>
<text text-anchor="start" x="28" y="-293.8" font-family="Helvetica,sans-Serif" font-size="11.00" fill="#000000">is_group</text>
<polygon fill="none" stroke="#000000" points="8,-267.7 8,-286.7 224,-286.7 224,-267.7 8,-267.7"/>
<text text-anchor="start" x="11" y="-273.8" font-family="Helvetica,sans-Serif" font-size="11.00" fill="#000000">...</text>
<polygon fill="#ffffff" stroke="transparent" points="8,-248.7 8,-267.7 104,-267.7 104,-248.7 8,-248.7"/>
<polygon fill="none" stroke="#000000" points="8,-248.7 8,-267.7 104,-267.7 104,-248.7 8,-248.7"/>
<text text-anchor="start" x="11" y="-254.8" font-family="Helvetica,sans-Serif" font-size="11.00" fill="#000000">&lt; 2</text>
<polygon fill="#ffffff" stroke="transparent" points="104,-248.7 104,-267.7 153,-267.7 153,-248.7 104,-248.7"/>
<polygon fill="none" stroke="#000000" points="104,-248.7 104,-267.7 153,-267.7 153,-248.7 104,-248.7"/>
<text text-anchor="start" x="143.8862" y="-254.8" font-family="Helvetica,sans-Serif" font-size="11.00" fill="#000000"> &#160;</text>
<polygon fill="#ffffff" stroke="transparent" points="153,-248.7 153,-267.7 224,-267.7 224,-248.7 153,-248.7"/>
<polygon fill="none" stroke="#000000" points="153,-248.7 153,-267.7 224,-267.7 224,-248.7 153,-248.7"/>
<text text-anchor="start" x="193.1755" y="-254.8" font-family="Helvetica,sans-Serif" font-size="11.00" fill="#000000">214 &gt;</text>
</a>
</g>
</g>
<!-- aor_charts&#45;&gt;users -->
<g id="edge2" class="edge">
<title>aor_charts:w&#45;&gt;users:e</title>
<path fill="none" stroke="#000000" d="M532.9906,-770.0197C472.066,-753.2447 284.3253,-662.61 265,-637.7 207.2441,-563.2535 318.2233,-429.7 224,-429.7"/>
<polygon fill="#000000" stroke="#000000" points="539.6331,-771.2467 546.846,-776.2401 543.5665,-771.9734 547.5,-772.7 547.5,-772.7 547.5,-772.7 543.5665,-771.9734 548.154,-769.1599 539.6331,-771.2467 539.6331,-771.2467"/>
<ellipse fill="none" stroke="#000000" cx="536.4863" cy="-770.6654" rx="3.2" ry="3.2"/>
</g>
<!-- aor_charts&#45;&gt;users -->
<g id="edge3" class="edge">
<title>aor_charts:w&#45;&gt;users:e</title>
<path fill="none" stroke="#000000" d="M533.0859,-794.7334C410.7225,-795.258 347.198,-800.5297 265,-703.7 225.1566,-656.7642 285.5668,-429.7 224,-429.7"/>
<polygon fill="#000000" stroke="#000000" points="539.5,-794.7186 547.5084,-798.3 543.5,-794.7093 547.5,-794.7 547.5,-794.7 547.5,-794.7 543.5,-794.7093 547.4916,-791.1 539.5,-794.7186 539.5,-794.7186"/>
<ellipse fill="none" stroke="#000000" cx="536.3" cy="-794.726" rx="3.2" ry="3.2"/>
</g>
<!-- aor_reports&#45;&gt;users -->
<g id="edge10" class="edge">
<title>aor_reports:w&#45;&gt;users:e</title>
<path fill="none" stroke="#000000" d="M261.0846,-368.4466C243.902,-383.5798 254.9886,-429.7 224,-429.7"/>
<polygon fill="#000000" stroke="#000000" points="267.4284,-366.2827 276.1622,-367.1072 271.2142,-364.9914 275,-363.7 275,-363.7 275,-363.7 271.2142,-364.9914 273.8378,-360.2928 267.4284,-366.2827 267.4284,-366.2827"/>
<ellipse fill="none" stroke="#000000" cx="264.3997" cy="-367.3158" rx="3.2" ry="3.2"/>
</g>
<!-- aor_reports&#45;&gt;users -->
<g id="edge11" class="edge">
<title>aor_reports:w&#45;&gt;users:e</title>
<path fill="none" stroke="#000000" d="M260.276,-429.7C248.2815,-429.7 240.8229,-429.7 224,-429.7"/>
<polygon fill="#000000" stroke="#000000" points="267,-429.7001 275,-433.3 271,-429.7 275,-429.7 275,-429.7 275,-429.7 271,-429.7 275,-426.1 267,-429.7001 267,-429.7001"/>
<ellipse fill="none" stroke="#000000" cx="263.8" cy="-429.7001" rx="3.2" ry="3.2"/>
</g>
<!-- aor_reports&#45;&gt;users -->
<g id="edge12" class="edge">
<title>aor_reports:w&#45;&gt;users:e</title>
<path fill="none" stroke="#000000" d="M260.8489,-448.641C248.2843,-442.596 242.9,-429.7 224,-429.7"/>
<polygon fill="#000000" stroke="#000000" points="267.1806,-450.0097 274.2393,-455.2187 271.0903,-450.8548 275,-451.7 275,-451.7 275,-451.7 271.0903,-450.8548 275.7607,-448.1813 267.1806,-450.0097 267.1806,-450.0097"/>
<ellipse fill="none" stroke="#000000" cx="264.0528" cy="-449.3335" rx="3.2" ry="3.2"/>
</g>
<!-- aor_conditions -->
<g id="node4" class="node">
<title>aor_conditions</title>
<g id="a_node4"><a xlink:href="../../tables/aor_conditions.html" xlink:title="aor_conditions" target="_top">
<polygon fill="#ffffff" stroke="transparent" points="547.5,-532.2 547.5,-681.2 681.5,-681.2 681.5,-532.2 547.5,-532.2"/>
<polygon fill="#f5f5f5" stroke="transparent" points="547.5,-657.7 547.5,-680.7 681.5,-680.7 681.5,-657.7 547.5,-657.7"/>
<polygon fill="none" stroke="#000000" points="547.5,-657.7 547.5,-680.7 681.5,-680.7 681.5,-657.7 547.5,-657.7"/>
<text text-anchor="start" x="552.5" y="-666.8" font-family="Helvetica,sans-Serif" font-weight="bold" font-size="11.00" fill="#000000">aor_conditions</text>
<text text-anchor="start" x="646.5437" y="-665.8" font-family="Helvetica,sans-Serif" font-size="11.00" fill="#000000">[table]</text>
<polygon fill="none" stroke="#000000" points="547.5,-635.7 547.5,-657.7 681.5,-657.7 681.5,-635.7 547.5,-635.7"/>
<image xlink:href="../../images/primaryKeys.png" width="11px" height="12px" preserveAspectRatio="xMinYMin meet" x="552.5" y="-652.7"/>
<text text-anchor="start" x="567.5" y="-642.8" font-family="Helvetica,sans-Serif" font-size="11.00" fill="#000000">id</text>
<polygon fill="#c0c0c0" stroke="transparent" points="547.5,-613.7 547.5,-635.7 681.5,-635.7 681.5,-613.7 547.5,-613.7"/>
<polygon fill="none" stroke="#000000" points="547.5,-613.7 547.5,-635.7 681.5,-635.7 681.5,-613.7 547.5,-613.7"/>
<image xlink:href="../../images/foreignKeys.png" width="11px" height="12px" preserveAspectRatio="xMinYMin meet" x="552.5" y="-630.7"/>
<text text-anchor="start" x="567.5" y="-620.8" font-family="Helvetica,sans-Serif" font-size="11.00" fill="#000000">modified_user_id</text>
<polygon fill="#c0c0c0" stroke="transparent" points="547.5,-591.7 547.5,-613.7 681.5,-613.7 681.5,-591.7 547.5,-591.7"/>
<polygon fill="none" stroke="#000000" points="547.5,-591.7 547.5,-613.7 681.5,-613.7 681.5,-591.7 547.5,-591.7"/>
<image xlink:href="../../images/foreignKeys.png" width="11px" height="12px" preserveAspectRatio="xMinYMin meet" x="552.5" y="-608.7"/>
<text text-anchor="start" x="567.5" y="-598.8" font-family="Helvetica,sans-Serif" font-size="11.00" fill="#000000">created_by</text>
<polygon fill="#ffffff" stroke="transparent" points="547.5,-569.7 547.5,-591.7 681.5,-591.7 681.5,-569.7 547.5,-569.7"/>
<polygon fill="none" stroke="#000000" points="547.5,-569.7 547.5,-591.7 681.5,-591.7 681.5,-569.7 547.5,-569.7"/>
<image xlink:href="../../images/foreignKeys.png" width="11px" height="12px" preserveAspectRatio="xMinYMin meet" x="552.5" y="-586.7"/>
<text text-anchor="start" x="567.5" y="-576.8" font-family="Helvetica,sans-Serif" font-size="11.00" fill="#000000">aor_report_id</text>
<polygon fill="none" stroke="#000000" points="547.5,-550.7 547.5,-569.7 681.5,-569.7 681.5,-550.7 547.5,-550.7"/>
<text text-anchor="start" x="550.5" y="-556.8" font-family="Helvetica,sans-Serif" font-size="11.00" fill="#000000">...</text>
<polygon fill="#ffffff" stroke="transparent" points="547.5,-531.7 547.5,-550.7 612.5,-550.7 612.5,-531.7 547.5,-531.7"/>
<polygon fill="none" stroke="#000000" points="547.5,-531.7 547.5,-550.7 612.5,-550.7 612.5,-531.7 547.5,-531.7"/>
<text text-anchor="start" x="550.5" y="-537.8" font-family="Helvetica,sans-Serif" font-size="11.00" fill="#000000">&lt; 3</text>
<polygon fill="#ffffff" stroke="transparent" points="612.5,-531.7 612.5,-550.7 646.5,-550.7 646.5,-531.7 612.5,-531.7"/>
<polygon fill="none" stroke="#000000" points="612.5,-531.7 612.5,-550.7 646.5,-550.7 646.5,-531.7 612.5,-531.7"/>
<text text-anchor="start" x="637.3862" y="-537.8" font-family="Helvetica,sans-Serif" font-size="11.00" fill="#000000"> &#160;</text>
<polygon fill="#ffffff" stroke="transparent" points="646.5,-531.7 646.5,-550.7 681.5,-550.7 681.5,-531.7 646.5,-531.7"/>
<polygon fill="none" stroke="#000000" points="646.5,-531.7 646.5,-550.7 681.5,-550.7 681.5,-531.7 646.5,-531.7"/>
<text text-anchor="start" x="672.3862" y="-537.8" font-family="Helvetica,sans-Serif" font-size="11.00" fill="#000000"> &#160;</text>
</a>
</g>
</g>
<!-- aor_conditions&#45;&gt;aor_reports -->
<g id="edge4" class="edge">
<title>aor_conditions:w&#45;&gt;aor_reports:e</title>
<path fill="none" stroke="#000000" d="M533.3262,-578.1353C510.9731,-569.1594 507.7248,-539.7 477,-539.7"/>
<polygon fill="#000000" stroke="#000000" points="539.6278,-579.2755 546.859,-584.2425 543.5639,-579.9877 547.5,-580.7 547.5,-580.7 547.5,-580.7 543.5639,-579.9877 548.141,-577.1575 539.6278,-579.2755 539.6278,-579.2755"/>
<ellipse fill="none" stroke="#000000" cx="536.479" cy="-578.7057" rx="3.2" ry="3.2"/>
</g>
<!-- aor_conditions&#45;&gt;users -->
<g id="edge5" class="edge">
<title>aor_conditions:w&#45;&gt;users:e</title>
<path fill="none" stroke="#000000" d="M532.7136,-603.023C461.1842,-605.7362 310.2347,-623.728 265,-586.7 209.1946,-541.0191 296.1179,-429.7 224,-429.7"/>
<polygon fill="#000000" stroke="#000000" points="539.5019,-602.8748 547.5786,-606.2991 543.501,-602.7874 547.5,-602.7 547.5,-602.7 547.5,-602.7 543.501,-602.7874 547.4214,-599.1009 539.5019,-602.8748 539.5019,-602.8748"/>
<ellipse fill="none" stroke="#000000" cx="536.3027" cy="-602.9447" rx="3.2" ry="3.2"/>
</g>
<!-- aor_conditions&#45;&gt;users -->
<g id="edge6" class="edge">
<title>aor_conditions:w&#45;&gt;users:e</title>
<path fill="none" stroke="#000000" d="M533.0518,-624.9816C416.9215,-629.4974 357.27,-685.7745 265,-607.7 203.0263,-555.2608 305.1826,-429.7 224,-429.7"/>
<polygon fill="#000000" stroke="#000000" points="539.5015,-624.8559 547.5702,-628.2993 543.5008,-624.778 547.5,-624.7 547.5,-624.7 547.5,-624.7 543.5008,-624.778 547.4298,-621.1007 539.5015,-624.8559 539.5015,-624.8559"/>
<ellipse fill="none" stroke="#000000" cx="536.3021" cy="-624.9183" rx="3.2" ry="3.2"/>
</g>
<!-- aor_fields -->
<g id="node5" class="node">
<title>aor_fields</title>
<g id="a_node5"><a xlink:href="../../tables/aor_fields.html" xlink:title="aor_fields" target="_top">
<polygon fill="#ffffff" stroke="transparent" points="547.5,-208.2 547.5,-357.2 681.5,-357.2 681.5,-208.2 547.5,-208.2"/>
<polygon fill="#f5f5f5" stroke="transparent" points="547.5,-333.7 547.5,-356.7 681.5,-356.7 681.5,-333.7 547.5,-333.7"/>
<polygon fill="none" stroke="#000000" points="547.5,-333.7 547.5,-356.7 681.5,-356.7 681.5,-333.7 547.5,-333.7"/>
<text text-anchor="start" x="552.5" y="-342.8" font-family="Helvetica,sans-Serif" font-weight="bold" font-size="11.00" fill="#000000">aor_fields</text>
<text text-anchor="start" x="646.5437" y="-341.8" font-family="Helvetica,sans-Serif" font-size="11.00" fill="#000000">[table]</text>
<polygon fill="none" stroke="#000000" points="547.5,-311.7 547.5,-333.7 681.5,-333.7 681.5,-311.7 547.5,-311.7"/>
<image xlink:href="../../images/primaryKeys.png" width="11px" height="12px" preserveAspectRatio="xMinYMin meet" x="552.5" y="-328.7"/>
<text text-anchor="start" x="567.5" y="-318.8" font-family="Helvetica,sans-Serif" font-size="11.00" fill="#000000">id</text>
<polygon fill="#c0c0c0" stroke="transparent" points="547.5,-289.7 547.5,-311.7 681.5,-311.7 681.5,-289.7 547.5,-289.7"/>
<polygon fill="none" stroke="#000000" points="547.5,-289.7 547.5,-311.7 681.5,-311.7 681.5,-289.7 547.5,-289.7"/>
<image xlink:href="../../images/foreignKeys.png" width="11px" height="12px" preserveAspectRatio="xMinYMin meet" x="552.5" y="-306.7"/>
<text text-anchor="start" x="567.5" y="-296.8" font-family="Helvetica,sans-Serif" font-size="11.00" fill="#000000">modified_user_id</text>
<polygon fill="#c0c0c0" stroke="transparent" points="547.5,-267.7 547.5,-289.7 681.5,-289.7 681.5,-267.7 547.5,-267.7"/>
<polygon fill="none" stroke="#000000" points="547.5,-267.7 547.5,-289.7 681.5,-289.7 681.5,-267.7 547.5,-267.7"/>
<image xlink:href="../../images/foreignKeys.png" width="11px" height="12px" preserveAspectRatio="xMinYMin meet" x="552.5" y="-284.7"/>
<text text-anchor="start" x="567.5" y="-274.8" font-family="Helvetica,sans-Serif" font-size="11.00" fill="#000000">created_by</text>
<polygon fill="#ffffff" stroke="transparent" points="547.5,-245.7 547.5,-267.7 681.5,-267.7 681.5,-245.7 547.5,-245.7"/>
<polygon fill="none" stroke="#000000" points="547.5,-245.7 547.5,-267.7 681.5,-267.7 681.5,-245.7 547.5,-245.7"/>
<image xlink:href="../../images/foreignKeys.png" width="11px" height="12px" preserveAspectRatio="xMinYMin meet" x="552.5" y="-262.7"/>
<text text-anchor="start" x="567.5" y="-252.8" font-family="Helvetica,sans-Serif" font-size="11.00" fill="#000000">aor_report_id</text>
<polygon fill="none" stroke="#000000" points="547.5,-226.7 547.5,-245.7 681.5,-245.7 681.5,-226.7 547.5,-226.7"/>
<text text-anchor="start" x="550.5" y="-232.8" font-family="Helvetica,sans-Serif" font-size="11.00" fill="#000000">...</text>
<polygon fill="#ffffff" stroke="transparent" points="547.5,-207.7 547.5,-226.7 612.5,-226.7 612.5,-207.7 547.5,-207.7"/>
<polygon fill="none" stroke="#000000" points="547.5,-207.7 547.5,-226.7 612.5,-226.7 612.5,-207.7 547.5,-207.7"/>
<text text-anchor="start" x="550.5" y="-213.8" font-family="Helvetica,sans-Serif" font-size="11.00" fill="#000000">&lt; 3</text>
<polygon fill="#ffffff" stroke="transparent" points="612.5,-207.7 612.5,-226.7 646.5,-226.7 646.5,-207.7 612.5,-207.7"/>
<polygon fill="none" stroke="#000000" points="612.5,-207.7 612.5,-226.7 646.5,-226.7 646.5,-207.7 612.5,-207.7"/>
<text text-anchor="start" x="637.3862" y="-213.8" font-family="Helvetica,sans-Serif" font-size="11.00" fill="#000000"> &#160;</text>
<polygon fill="#ffffff" stroke="transparent" points="646.5,-207.7 646.5,-226.7 681.5,-226.7 681.5,-207.7 646.5,-207.7"/>
<polygon fill="none" stroke="#000000" points="646.5,-207.7 646.5,-226.7 681.5,-226.7 681.5,-207.7 646.5,-207.7"/>
<text text-anchor="start" x="672.3862" y="-213.8" font-family="Helvetica,sans-Serif" font-size="11.00" fill="#000000"> &#160;</text>
</a>
</g>
</g>
<!-- aor_fields&#45;&gt;aor_reports -->
<g id="edge7" class="edge">
<title>aor_fields:w&#45;&gt;aor_reports:e</title>
<path fill="none" stroke="#000000" d="M533.9155,-262.1006C491.5548,-301.2253 536.4944,-539.7 477,-539.7"/>
<polygon fill="#000000" stroke="#000000" points="540.0659,-259.6555 548.83,-260.0453 543.783,-258.1777 547.5,-256.7 547.5,-256.7 547.5,-256.7 543.783,-258.1777 546.17,-253.3547 540.0659,-259.6555 540.0659,-259.6555"/>
<ellipse fill="none" stroke="#000000" cx="537.0923" cy="-260.8377" rx="3.2" ry="3.2"/>
</g>
<!-- aor_fields&#45;&gt;users -->
<g id="edge8" class="edge">
<title>aor_fields:w&#45;&gt;users:e</title>
<path fill="none" stroke="#000000" d="M533.0673,-276.7331C516.3062,-271.6684 509.9638,-258.2577 487,-253.7 390.2211,-234.492 342.2781,-192.355 265,-253.7 202.0941,-303.636 304.3167,-429.7 224,-429.7"/>
<polygon fill="#000000" stroke="#000000" points="539.5733,-277.6197 547.0139,-282.267 543.5366,-278.1598 547.5,-278.7 547.5,-278.7 547.5,-278.7 543.5366,-278.1598 547.9861,-275.133 539.5733,-277.6197 539.5733,-277.6197"/>
<ellipse fill="none" stroke="#000000" cx="536.4026" cy="-277.1876" rx="3.2" ry="3.2"/>
</g>
<!-- aor_fields&#45;&gt;users -->
<g id="edge9" class="edge">
<title>aor_fields:w&#45;&gt;users:e</title>
<path fill="none" stroke="#000000" d="M533.1691,-298.8891C516.4416,-294.2265 509.7671,-281.8816 487,-277.7 438.4783,-268.788 304.1638,-247.7004 265,-277.7 209.4536,-320.2488 293.97,-429.7 224,-429.7"/>
<polygon fill="#000000" stroke="#000000" points="539.5631,-299.697 547.0487,-304.2716 543.5316,-300.1985 547.5,-300.7 547.5,-300.7 547.5,-300.7 543.5316,-300.1985 547.9513,-297.1284 539.5631,-299.697 539.5631,-299.697"/>
<ellipse fill="none" stroke="#000000" cx="536.3884" cy="-299.2959" rx="3.2" ry="3.2"/>
</g>
<!-- aor_reports_audit -->
<g id="node6" class="node">
<title>aor_reports_audit</title>
<g id="a_node6"><a xlink:href="../../tables/aor_reports_audit.html" xlink:title="aor_reports_audit" target="_top">
<polygon fill="#ffffff" stroke="transparent" points="537.5,-406.2 537.5,-511.2 691.5,-511.2 691.5,-406.2 537.5,-406.2"/>
<polygon fill="#f5f5f5" stroke="transparent" points="537.5,-487.7 537.5,-510.7 691.5,-510.7 691.5,-487.7 537.5,-487.7"/>
<polygon fill="none" stroke="#000000" points="537.5,-487.7 537.5,-510.7 691.5,-510.7 691.5,-487.7 537.5,-487.7"/>
<text text-anchor="start" x="542.5" y="-496.8" font-family="Helvetica,sans-Serif" font-weight="bold" font-size="11.00" fill="#000000">aor_reports_audit</text>
<text text-anchor="start" x="656.5437" y="-495.8" font-family="Helvetica,sans-Serif" font-size="11.00" fill="#000000">[table]</text>
<polygon fill="none" stroke="#000000" points="537.5,-465.7 537.5,-487.7 691.5,-487.7 691.5,-465.7 537.5,-465.7"/>
<image xlink:href="../../images/primaryKeys.png" width="11px" height="12px" preserveAspectRatio="xMinYMin meet" x="542.5" y="-482.7"/>
<text text-anchor="start" x="557.5" y="-472.8" font-family="Helvetica,sans-Serif" font-size="11.00" fill="#000000">id</text>
<polygon fill="#c0c0c0" stroke="transparent" points="537.5,-443.7 537.5,-465.7 691.5,-465.7 691.5,-443.7 537.5,-443.7"/>
<polygon fill="none" stroke="#000000" points="537.5,-443.7 537.5,-465.7 691.5,-465.7 691.5,-443.7 537.5,-443.7"/>
<image xlink:href="../../images/foreignKeys.png" width="11px" height="12px" preserveAspectRatio="xMinYMin meet" x="542.5" y="-460.7"/>
<text text-anchor="start" x="557.5" y="-450.8" font-family="Helvetica,sans-Serif" font-size="11.00" fill="#000000">parent_id</text>
<polygon fill="none" stroke="#000000" points="537.5,-424.7 537.5,-443.7 691.5,-443.7 691.5,-424.7 537.5,-424.7"/>
<text text-anchor="start" x="540.5" y="-430.8" font-family="Helvetica,sans-Serif" font-size="11.00" fill="#000000">...</text>
<polygon fill="#ffffff" stroke="transparent" points="537.5,-405.7 537.5,-424.7 612.5,-424.7 612.5,-405.7 537.5,-405.7"/>
<polygon fill="none" stroke="#000000" points="537.5,-405.7 537.5,-424.7 612.5,-424.7 612.5,-405.7 537.5,-405.7"/>
<text text-anchor="start" x="540.5" y="-411.8" font-family="Helvetica,sans-Serif" font-size="11.00" fill="#000000">&lt; 1</text>
<polygon fill="#ffffff" stroke="transparent" points="612.5,-405.7 612.5,-424.7 651.5,-424.7 651.5,-405.7 612.5,-405.7"/>
<polygon fill="none" stroke="#000000" points="612.5,-405.7 612.5,-424.7 651.5,-424.7 651.5,-405.7 612.5,-405.7"/>
<text text-anchor="start" x="642.3862" y="-411.8" font-family="Helvetica,sans-Serif" font-size="11.00" fill="#000000"> &#160;</text>
<polygon fill="#ffffff" stroke="transparent" points="651.5,-405.7 651.5,-424.7 691.5,-424.7 691.5,-405.7 651.5,-405.7"/>
<polygon fill="none" stroke="#000000" points="651.5,-405.7 651.5,-424.7 691.5,-424.7 691.5,-405.7 651.5,-405.7"/>
<text text-anchor="start" x="682.3862" y="-411.8" font-family="Helvetica,sans-Serif" font-size="11.00" fill="#000000"> &#160;</text>
</a>
</g>
</g>
<!-- aor_reports_audit&#45;&gt;aor_reports -->
<g id="edge13" class="edge">
<title>aor_reports_audit:w&#45;&gt;aor_reports:e</title>
<path fill="none" stroke="#000000" d="M523.489,-458.3523C497.9617,-474.6219 517.5737,-539.7 477,-539.7"/>
<polygon fill="#000000" stroke="#000000" points="529.7587,-456.718 538.4081,-458.1836 533.6293,-455.709 537.5,-454.7 537.5,-454.7 537.5,-454.7 533.6293,-455.709 536.5919,-451.2164 529.7587,-456.718 529.7587,-456.718"/>
<ellipse fill="none" stroke="#000000" cx="526.6622" cy="-457.5252" rx="3.2" ry="3.2"/>
</g>
<!-- aor_scheduled_reports -->
<g id="node7" class="node">
<title>aor_scheduled_reports</title>
<g id="a_node7"><a xlink:href="../../tables/aor_scheduled_reports.html" xlink:title="aor_scheduled_reports" target="_top">
<polygon fill="#ffffff" stroke="transparent" points="528,-38.2 528,-187.2 701,-187.2 701,-38.2 528,-38.2"/>
<polygon fill="#f5f5f5" stroke="transparent" points="528.5,-163.7 528.5,-186.7 701.5,-186.7 701.5,-163.7 528.5,-163.7"/>
<polygon fill="none" stroke="#000000" points="528.5,-163.7 528.5,-186.7 701.5,-186.7 701.5,-163.7 528.5,-163.7"/>
<text text-anchor="start" x="533.5" y="-172.8" font-family="Helvetica,sans-Serif" font-weight="bold" font-size="11.00" fill="#000000">aor_scheduled_reports</text>
<text text-anchor="start" x="666.5437" y="-171.8" font-family="Helvetica,sans-Serif" font-size="11.00" fill="#000000">[table]</text>
<polygon fill="none" stroke="#000000" points="528.5,-141.7 528.5,-163.7 701.5,-163.7 701.5,-141.7 528.5,-141.7"/>
<image xlink:href="../../images/primaryKeys.png" width="11px" height="12px" preserveAspectRatio="xMinYMin meet" x="533.5" y="-158.7"/>
<text text-anchor="start" x="548.5" y="-148.8" font-family="Helvetica,sans-Serif" font-size="11.00" fill="#000000">id</text>
<polygon fill="#c0c0c0" stroke="transparent" points="528.5,-119.7 528.5,-141.7 701.5,-141.7 701.5,-119.7 528.5,-119.7"/>
<polygon fill="none" stroke="#000000" points="528.5,-119.7 528.5,-141.7 701.5,-141.7 701.5,-119.7 528.5,-119.7"/>
<image xlink:href="../../images/foreignKeys.png" width="11px" height="12px" preserveAspectRatio="xMinYMin meet" x="533.5" y="-136.7"/>
<text text-anchor="start" x="548.5" y="-126.8" font-family="Helvetica,sans-Serif" font-size="11.00" fill="#000000">modified_user_id</text>
<polygon fill="#c0c0c0" stroke="transparent" points="528.5,-97.7 528.5,-119.7 701.5,-119.7 701.5,-97.7 528.5,-97.7"/>
<polygon fill="none" stroke="#000000" points="528.5,-97.7 528.5,-119.7 701.5,-119.7 701.5,-97.7 528.5,-97.7"/>
<image xlink:href="../../images/foreignKeys.png" width="11px" height="12px" preserveAspectRatio="xMinYMin meet" x="533.5" y="-114.7"/>
<text text-anchor="start" x="548.5" y="-104.8" font-family="Helvetica,sans-Serif" font-size="11.00" fill="#000000">created_by</text>
<polygon fill="none" stroke="#000000" points="528.5,-75.7 528.5,-97.7 701.5,-97.7 701.5,-75.7 528.5,-75.7"/>
<image xlink:href="../../images/foreignKeys.png" width="11px" height="12px" preserveAspectRatio="xMinYMin meet" x="533.5" y="-92.7"/>
<text text-anchor="start" x="548.5" y="-82.8" font-family="Helvetica,sans-Serif" font-size="11.00" fill="#000000">aor_report_id</text>
<polygon fill="none" stroke="#000000" points="528.5,-56.7 528.5,-75.7 701.5,-75.7 701.5,-56.7 528.5,-56.7"/>
<text text-anchor="start" x="531.5" y="-62.8" font-family="Helvetica,sans-Serif" font-size="11.00" fill="#000000">...</text>
<polygon fill="#ffffff" stroke="transparent" points="528.5,-37.7 528.5,-56.7 608.5,-56.7 608.5,-37.7 528.5,-37.7"/>
<polygon fill="none" stroke="#000000" points="528.5,-37.7 528.5,-56.7 608.5,-56.7 608.5,-37.7 528.5,-37.7"/>
<text text-anchor="start" x="531.5" y="-43.8" font-family="Helvetica,sans-Serif" font-size="11.00" fill="#000000">&lt; 3</text>
<polygon fill="#ffffff" stroke="transparent" points="608.5,-37.7 608.5,-56.7 650.5,-56.7 650.5,-37.7 608.5,-37.7"/>
<polygon fill="none" stroke="#000000" points="608.5,-37.7 608.5,-56.7 650.5,-56.7 650.5,-37.7 608.5,-37.7"/>
<text text-anchor="start" x="641.3862" y="-43.8" font-family="Helvetica,sans-Serif" font-size="11.00" fill="#000000"> &#160;</text>
<polygon fill="#ffffff" stroke="transparent" points="650.5,-37.7 650.5,-56.7 701.5,-56.7 701.5,-37.7 650.5,-37.7"/>
<polygon fill="none" stroke="#000000" points="650.5,-37.7 650.5,-56.7 701.5,-56.7 701.5,-37.7 650.5,-37.7"/>
<text text-anchor="start" x="682.9053" y="-43.8" font-family="Helvetica,sans-Serif" font-size="11.00" fill="#000000">1 &gt;</text>
</a>
</g>
</g>
<!-- aor_scheduled_reports&#45;&gt;aor_reports -->
<g id="edge14" class="edge">
<title>aor_scheduled_reports:w&#45;&gt;aor_reports:e</title>
<path fill="none" stroke="#000000" d="M514.5037,-90.3464C442.4224,-133.2176 572.9723,-539.7 477,-539.7"/>
<polygon fill="#000000" stroke="#000000" points="520.7584,-88.7169 529.4076,-90.1837 524.6292,-87.7085 528.5,-86.7 528.5,-86.7 528.5,-86.7 524.6292,-87.7085 527.5924,-83.2163 520.7584,-88.7169 520.7584,-88.7169"/>
<ellipse fill="none" stroke="#000000" cx="517.6618" cy="-89.5237" rx="3.2" ry="3.2"/>
</g>
<!-- aor_scheduled_reports&#45;&gt;users -->
<g id="edge15" class="edge">
<title>aor_scheduled_reports:w&#45;&gt;users:e</title>
<path fill="none" stroke="#000000" d="M514.0671,-108.5499C403.7822,-106.2909 343.9536,-80.4601 265,-163.7 223.8406,-207.094 283.8092,-429.7 224,-429.7"/>
<polygon fill="#000000" stroke="#000000" points="520.5004,-108.6167 528.4625,-112.2998 524.5002,-108.6584 528.5,-108.7 528.5,-108.7 528.5,-108.7 524.5002,-108.6584 528.5375,-105.1002 520.5004,-108.6167 520.5004,-108.6167"/>
<ellipse fill="none" stroke="#000000" cx="517.3006" cy="-108.5834" rx="3.2" ry="3.2"/>
</g>
<!-- aor_scheduled_reports&#45;&gt;users -->
<g id="edge16" class="edge">
<title>aor_scheduled_reports:w&#45;&gt;users:e</title>
<path fill="none" stroke="#000000" d="M514.3851,-134.9272C459.9691,-152.1441 267.2018,-216.1906 265,-218.7 201.9935,-290.5088 319.5318,-429.7 224,-429.7"/>
<polygon fill="#000000" stroke="#000000" points="520.8363,-132.9952 529.5328,-134.1487 524.6682,-131.8476 528.5,-130.7 528.5,-130.7 528.5,-130.7 524.6682,-131.8476 527.4672,-127.2513 520.8363,-132.9952 520.8363,-132.9952"/>
<ellipse fill="none" stroke="#000000" cx="517.7708" cy="-133.9133" rx="3.2" ry="3.2"/>
</g>
<!-- securitygroups_records -->
<g id="node8" class="node">
<title>securitygroups_records</title>
<g id="a_node8"><a xlink:href="../../tables/securitygroups_records.html" xlink:title="securitygroups_records" target="_top">
<polygon fill="#ffffff" stroke="transparent" points="750,-174.2 750,-345.2 929,-345.2 929,-174.2 750,-174.2"/>
<polygon fill="#f5f5f5" stroke="transparent" points="750.5,-321.7 750.5,-344.7 929.5,-344.7 929.5,-321.7 750.5,-321.7"/>
<polygon fill="none" stroke="#000000" points="750.5,-321.7 750.5,-344.7 929.5,-344.7 929.5,-321.7 750.5,-321.7"/>
<text text-anchor="start" x="755.5" y="-330.8" font-family="Helvetica,sans-Serif" font-weight="bold" font-size="11.00" fill="#000000">securitygroups_records</text>
<text text-anchor="start" x="894.5437" y="-329.8" font-family="Helvetica,sans-Serif" font-size="11.00" fill="#000000">[table]</text>
<polygon fill="none" stroke="#000000" points="750.5,-299.7 750.5,-321.7 929.5,-321.7 929.5,-299.7 750.5,-299.7"/>
<image xlink:href="../../images/primaryKeys.png" width="11px" height="12px" preserveAspectRatio="xMinYMin meet" x="755.5" y="-316.7"/>
<text text-anchor="start" x="770.5" y="-306.8" font-family="Helvetica,sans-Serif" font-size="11.00" fill="#000000">id</text>
<polygon fill="#ffffff" stroke="transparent" points="750.5,-277.7 750.5,-299.7 929.5,-299.7 929.5,-277.7 750.5,-277.7"/>
<polygon fill="none" stroke="#000000" points="750.5,-277.7 750.5,-299.7 929.5,-299.7 929.5,-277.7 750.5,-277.7"/>
<image xlink:href="../../images/foreignKeys.png" width="11px" height="12px" preserveAspectRatio="xMinYMin meet" x="755.5" y="-294.7"/>
<text text-anchor="start" x="770.5" y="-284.8" font-family="Helvetica,sans-Serif" font-size="11.00" fill="#000000">securitygroup_id</text>
<polygon fill="#ffffff" stroke="transparent" points="750.5,-255.7 750.5,-277.7 929.5,-277.7 929.5,-255.7 750.5,-255.7"/>
<polygon fill="none" stroke="#000000" points="750.5,-255.7 750.5,-277.7 929.5,-277.7 929.5,-255.7 750.5,-255.7"/>
<image xlink:href="../../images/foreignKeys.png" width="11px" height="12px" preserveAspectRatio="xMinYMin meet" x="755.5" y="-272.7"/>
<text text-anchor="start" x="770.5" y="-262.8" font-family="Helvetica,sans-Serif" font-size="11.00" fill="#000000">record_id</text>
<polygon fill="#ffffff" stroke="transparent" points="750.5,-233.7 750.5,-255.7 929.5,-255.7 929.5,-233.7 750.5,-233.7"/>
<polygon fill="none" stroke="#000000" points="750.5,-233.7 750.5,-255.7 929.5,-255.7 929.5,-233.7 750.5,-233.7"/>
<text text-anchor="start" x="770.5" y="-240.8" font-family="Helvetica,sans-Serif" font-size="11.00" fill="#000000">module</text>
<polygon fill="#ffffff" stroke="transparent" points="750.5,-211.7 750.5,-233.7 929.5,-233.7 929.5,-211.7 750.5,-211.7"/>
<polygon fill="none" stroke="#000000" points="750.5,-211.7 750.5,-233.7 929.5,-233.7 929.5,-211.7 750.5,-211.7"/>
<text text-anchor="start" x="770.5" y="-218.8" font-family="Helvetica,sans-Serif" font-size="11.00" fill="#000000">deleted</text>
<polygon fill="none" stroke="#000000" points="750.5,-192.7 750.5,-211.7 929.5,-211.7 929.5,-192.7 750.5,-192.7"/>
<text text-anchor="start" x="753.5" y="-198.8" font-family="Helvetica,sans-Serif" font-size="11.00" fill="#000000">...</text>
<polygon fill="#ffffff" stroke="transparent" points="750.5,-173.7 750.5,-192.7 841.5,-192.7 841.5,-173.7 750.5,-173.7"/>
<polygon fill="none" stroke="#000000" points="750.5,-173.7 750.5,-192.7 841.5,-192.7 841.5,-173.7 750.5,-173.7"/>
<text text-anchor="start" x="753.5" y="-179.8" font-family="Helvetica,sans-Serif" font-size="11.00" fill="#000000">&lt; 41</text>
<polygon fill="#ffffff" stroke="transparent" points="841.5,-173.7 841.5,-192.7 885.5,-192.7 885.5,-173.7 841.5,-173.7"/>
<polygon fill="none" stroke="#000000" points="841.5,-173.7 841.5,-192.7 885.5,-192.7 885.5,-173.7 841.5,-173.7"/>
<text text-anchor="start" x="876.3862" y="-179.8" font-family="Helvetica,sans-Serif" font-size="11.00" fill="#000000"> &#160;</text>
<polygon fill="#ffffff" stroke="transparent" points="885.5,-173.7 885.5,-192.7 929.5,-192.7 929.5,-173.7 885.5,-173.7"/>
<polygon fill="none" stroke="#000000" points="885.5,-173.7 885.5,-192.7 929.5,-192.7 929.5,-173.7 885.5,-173.7"/>
<text text-anchor="start" x="920.3862" y="-179.8" font-family="Helvetica,sans-Serif" font-size="11.00" fill="#000000"> &#160;</text>
</a>
</g>
</g>
<!-- securitygroups_records&#45;&gt;aor_reports -->
<g id="edge17" class="edge">
<title>securitygroups_records:w&#45;&gt;aor_reports:e</title>
<path fill="none" stroke="#000000" d="M736.3508,-269.8131C711.9777,-283.8294 742.4418,-341.5303 709,-367.7 642.1256,-420.0323 584.1843,-340.1011 520,-395.7 469.515,-439.4321 543.7925,-539.7 477,-539.7"/>
<polygon fill="#000000" stroke="#000000" points="742.6869,-268.4191 751.2736,-270.2159 746.5934,-267.5596 750.5,-266.7 750.5,-266.7 750.5,-266.7 746.5934,-267.5596 749.7264,-263.1841 742.6869,-268.4191 742.6869,-268.4191"/>
<ellipse fill="none" stroke="#000000" cx="739.5616" cy="-269.1067" rx="3.2" ry="3.2"/>
</g>
<!-- securitygroups_records&#45;&gt;aor_scheduled_reports -->
<g id="edge18" class="edge">
<title>securitygroups_records:w&#45;&gt;aor_scheduled_reports:e</title>
<path fill="none" stroke="#000000" d="M736.2787,-262.907C707.3671,-243.1263 750.6168,-152.7 701.5,-152.7"/>
<polygon fill="#000000" stroke="#000000" points="742.7702,-264.6383 749.5723,-270.1784 746.6351,-265.6692 750.5,-266.7 750.5,-266.7 750.5,-266.7 746.6351,-265.6692 751.4277,-263.2216 742.7702,-264.6383 742.7702,-264.6383"/>
<ellipse fill="none" stroke="#000000" cx="739.6783" cy="-263.8137" rx="3.2" ry="3.2"/>
</g>
</g>
</svg>
