<?xml version="1.0" encoding="UTF-8" standalone="no"?>
<!DOCTYPE svg PUBLIC "-//W3C//DTD SVG 1.1//EN"
 "http://www.w3.org/Graphics/SVG/1.1/DTD/svg11.dtd">
<!-- Generated by graphviz version 2.40.1 (20161225.0304)
 -->
<!-- Title: twoDegreesRelationshipsDiagram Pages: 1 -->
<svg width="732pt" height="417pt"
 viewBox="0.00 0.00 732.00 416.70" xmlns="http://www.w3.org/2000/svg" xmlns:xlink="http://www.w3.org/1999/xlink">
<g id="graph0" class="graph" transform="scale(1 1) rotate(0) translate(4 412.7)">
<title>twoDegreesRelationshipsDiagram</title>
<polygon fill="#ffffff" stroke="transparent" points="-4,4 -4,-412.7 728,-412.7 728,4 -4,4"/>
<text text-anchor="middle" x="72.4936" y="-7.3" font-family="Helvetica,sans-Serif" font-size="11.00" fill="#000000">Generated by SchemaSpy</text>
<!-- aos_line_item_groups -->
<g id="node1" class="node">
<title>aos_line_item_groups</title>
<g id="a_node1"><a xlink:href="../../tables/aos_line_item_groups.html" xlink:title="aos_line_item_groups" target="_top">
<polygon fill="#ffffff" stroke="transparent" points="168,-108.2 168,-279.2 391,-279.2 391,-108.2 168,-108.2"/>
<polygon fill="#f5f5f5" stroke="transparent" points="168.5,-255.7 168.5,-278.7 391.5,-278.7 391.5,-255.7 168.5,-255.7"/>
<polygon fill="none" stroke="#000000" points="168.5,-255.7 168.5,-278.7 391.5,-278.7 391.5,-255.7 168.5,-255.7"/>
<text text-anchor="start" x="173.5" y="-264.8" font-family="Helvetica,sans-Serif" font-weight="bold" font-size="11.00" fill="#000000">aos_line_item_groups</text>
<text text-anchor="start" x="356.5437" y="-263.8" font-family="Helvetica,sans-Serif" font-size="11.00" fill="#000000">[table]</text>
<polygon fill="none" stroke="#000000" points="168.5,-233.7 168.5,-255.7 391.5,-255.7 391.5,-233.7 168.5,-233.7"/>
<image xlink:href="../../images/primaryKeys.png" width="11px" height="12px" preserveAspectRatio="xMinYMin meet" x="173.5" y="-250.7"/>
<text text-anchor="start" x="188.5" y="-240.8" font-family="Helvetica,sans-Serif" font-size="11.00" fill="#000000">id</text>
<polygon fill="#c0c0c0" stroke="transparent" points="168.5,-211.7 168.5,-233.7 391.5,-233.7 391.5,-211.7 168.5,-211.7"/>
<polygon fill="none" stroke="#000000" points="168.5,-211.7 168.5,-233.7 391.5,-233.7 391.5,-211.7 168.5,-211.7"/>
<image xlink:href="../../images/foreignKeys.png" width="11px" height="12px" preserveAspectRatio="xMinYMin meet" x="173.5" y="-228.7"/>
<text text-anchor="start" x="188.5" y="-218.8" font-family="Helvetica,sans-Serif" font-size="11.00" fill="#000000">modified_user_id</text>
<polygon fill="#c0c0c0" stroke="transparent" points="168.5,-189.7 168.5,-211.7 391.5,-211.7 391.5,-189.7 168.5,-189.7"/>
<polygon fill="none" stroke="#000000" points="168.5,-189.7 168.5,-211.7 391.5,-211.7 391.5,-189.7 168.5,-189.7"/>
<image xlink:href="../../images/foreignKeys.png" width="11px" height="12px" preserveAspectRatio="xMinYMin meet" x="173.5" y="-206.7"/>
<text text-anchor="start" x="188.5" y="-196.8" font-family="Helvetica,sans-Serif" font-size="11.00" fill="#000000">created_by</text>
<polygon fill="#c0c0c0" stroke="transparent" points="168.5,-167.7 168.5,-189.7 391.5,-189.7 391.5,-167.7 168.5,-167.7"/>
<polygon fill="none" stroke="#000000" points="168.5,-167.7 168.5,-189.7 391.5,-189.7 391.5,-167.7 168.5,-167.7"/>
<image xlink:href="../../images/foreignKeys.png" width="11px" height="12px" preserveAspectRatio="xMinYMin meet" x="173.5" y="-184.7"/>
<text text-anchor="start" x="188.5" y="-174.8" font-family="Helvetica,sans-Serif" font-size="11.00" fill="#000000">assigned_user_id</text>
<polygon fill="none" stroke="#000000" points="168.5,-145.7 168.5,-167.7 391.5,-167.7 391.5,-145.7 168.5,-145.7"/>
<image xlink:href="../../images/foreignKeys.png" width="11px" height="12px" preserveAspectRatio="xMinYMin meet" x="173.5" y="-162.7"/>
<text text-anchor="start" x="188.5" y="-152.8" font-family="Helvetica,sans-Serif" font-size="11.00" fill="#000000">parent_id</text>
<polygon fill="none" stroke="#000000" points="168.5,-126.7 168.5,-145.7 391.5,-145.7 391.5,-126.7 168.5,-126.7"/>
<text text-anchor="start" x="171.5" y="-132.8" font-family="Helvetica,sans-Serif" font-size="11.00" fill="#000000">...</text>
<polygon fill="#ffffff" stroke="transparent" points="168.5,-107.7 168.5,-126.7 273.5,-126.7 273.5,-107.7 168.5,-107.7"/>
<polygon fill="none" stroke="#000000" points="168.5,-107.7 168.5,-126.7 273.5,-126.7 273.5,-107.7 168.5,-107.7"/>
<text text-anchor="start" x="171.5" y="-113.8" font-family="Helvetica,sans-Serif" font-size="11.00" fill="#000000">&lt; 6</text>
<polygon fill="#ffffff" stroke="transparent" points="273.5,-107.7 273.5,-126.7 327.5,-126.7 327.5,-107.7 273.5,-107.7"/>
<polygon fill="none" stroke="#000000" points="273.5,-107.7 273.5,-126.7 327.5,-126.7 327.5,-107.7 273.5,-107.7"/>
<text text-anchor="start" x="318.3862" y="-113.8" font-family="Helvetica,sans-Serif" font-size="11.00" fill="#000000"> &#160;</text>
<polygon fill="#ffffff" stroke="transparent" points="327.5,-107.7 327.5,-126.7 391.5,-126.7 391.5,-107.7 327.5,-107.7"/>
<polygon fill="none" stroke="#000000" points="327.5,-107.7 327.5,-126.7 391.5,-126.7 391.5,-107.7 327.5,-107.7"/>
<text text-anchor="start" x="372.9053" y="-113.8" font-family="Helvetica,sans-Serif" font-size="11.00" fill="#000000">2 &gt;</text>
</a>
</g>
</g>
<!-- aos_contracts -->
<g id="node2" class="node">
<title>aos_contracts</title>
<g id="a_node2"><a xlink:href="../../tables/aos_contracts.html" xlink:title="aos_contracts" target="_top">
<polygon fill="#ffffff" stroke="transparent" points="8,-241.2 8,-302.2 119,-302.2 119,-241.2 8,-241.2"/>
<polygon fill="#f5f5f5" stroke="transparent" points="8.5,-278.7 8.5,-301.7 119.5,-301.7 119.5,-278.7 8.5,-278.7"/>
<polygon fill="none" stroke="#000000" points="8.5,-278.7 8.5,-301.7 119.5,-301.7 119.5,-278.7 8.5,-278.7"/>
<text text-anchor="start" x="13.2674" y="-287.8" font-family="Helvetica,sans-Serif" font-weight="bold" font-size="11.00" fill="#000000">aos_contracts</text>
<text text-anchor="start" x="85.0219" y="-286.8" font-family="Helvetica,sans-Serif" font-size="11.00" fill="#000000">[table]</text>
<polygon fill="none" stroke="#000000" points="8.5,-259.7 8.5,-278.7 119.5,-278.7 119.5,-259.7 8.5,-259.7"/>
<text text-anchor="start" x="11.5" y="-265.8" font-family="Helvetica,sans-Serif" font-size="11.00" fill="#000000">...</text>
<polygon fill="#ffffff" stroke="transparent" points="8.5,-240.7 8.5,-259.7 54.5,-259.7 54.5,-240.7 8.5,-240.7"/>
<polygon fill="none" stroke="#000000" points="8.5,-240.7 8.5,-259.7 54.5,-259.7 54.5,-240.7 8.5,-240.7"/>
<text text-anchor="start" x="11.5" y="-246.8" font-family="Helvetica,sans-Serif" font-size="11.00" fill="#000000">&lt; 6</text>
<polygon fill="#ffffff" stroke="transparent" points="54.5,-240.7 54.5,-259.7 79.5,-259.7 79.5,-240.7 54.5,-240.7"/>
<polygon fill="none" stroke="#000000" points="54.5,-240.7 54.5,-259.7 79.5,-259.7 79.5,-240.7 54.5,-240.7"/>
<text text-anchor="start" x="70.3862" y="-246.8" font-family="Helvetica,sans-Serif" font-size="11.00" fill="#000000"> &#160;</text>
<polygon fill="#ffffff" stroke="transparent" points="79.5,-240.7 79.5,-259.7 119.5,-259.7 119.5,-240.7 79.5,-240.7"/>
<polygon fill="none" stroke="#000000" points="79.5,-240.7 79.5,-259.7 119.5,-259.7 119.5,-240.7 79.5,-240.7"/>
<text text-anchor="start" x="94.7904" y="-246.8" font-family="Helvetica,sans-Serif" font-size="11.00" fill="#000000">11 &gt;</text>
</a>
</g>
</g>
<!-- aos_line_item_groups&#45;&gt;aos_contracts -->
<g id="edge1" class="edge">
<title>aos_line_item_groups:w&#45;&gt;aos_contracts:e</title>
<path fill="none" stroke="#000000" d="M154.4649,-160.4264C125.855,-179.8602 167.8905,-268.7 119.5,-268.7"/>
<polygon fill="#000000" stroke="#000000" points="160.7679,-158.753 169.4238,-160.1794 164.6339,-157.7265 168.5,-156.7 168.5,-156.7 168.5,-156.7 164.6339,-157.7265 167.5762,-153.2206 160.7679,-158.753 160.7679,-158.753"/>
<ellipse fill="none" stroke="#000000" cx="157.6751" cy="-159.5742" rx="3.2" ry="3.2"/>
</g>
<!-- aos_invoices -->
<g id="node3" class="node">
<title>aos_invoices</title>
<g id="a_node3"><a xlink:href="../../tables/aos_invoices.html" xlink:title="aos_invoices" target="_top">
<polygon fill="#ffffff" stroke="transparent" points="10.5,-38.2 10.5,-99.2 116.5,-99.2 116.5,-38.2 10.5,-38.2"/>
<polygon fill="#f5f5f5" stroke="transparent" points="10.5,-75.7 10.5,-98.7 116.5,-98.7 116.5,-75.7 10.5,-75.7"/>
<polygon fill="none" stroke="#000000" points="10.5,-75.7 10.5,-98.7 116.5,-98.7 116.5,-75.7 10.5,-75.7"/>
<text text-anchor="start" x="15.2144" y="-84.8" font-family="Helvetica,sans-Serif" font-weight="bold" font-size="11.00" fill="#000000">aos_invoices</text>
<text text-anchor="start" x="82.0219" y="-83.8" font-family="Helvetica,sans-Serif" font-size="11.00" fill="#000000">[table]</text>
<polygon fill="none" stroke="#000000" points="10.5,-56.7 10.5,-75.7 116.5,-75.7 116.5,-56.7 10.5,-56.7"/>
<text text-anchor="start" x="13.5" y="-62.8" font-family="Helvetica,sans-Serif" font-size="11.00" fill="#000000">...</text>
<polygon fill="#ffffff" stroke="transparent" points="10.5,-37.7 10.5,-56.7 57.5,-56.7 57.5,-37.7 10.5,-37.7"/>
<polygon fill="none" stroke="#000000" points="10.5,-37.7 10.5,-56.7 57.5,-56.7 57.5,-37.7 10.5,-37.7"/>
<text text-anchor="start" x="13.5" y="-43.8" font-family="Helvetica,sans-Serif" font-size="11.00" fill="#000000">&lt; 5</text>
<polygon fill="#ffffff" stroke="transparent" points="57.5,-37.7 57.5,-56.7 82.5,-56.7 82.5,-37.7 57.5,-37.7"/>
<polygon fill="none" stroke="#000000" points="57.5,-37.7 57.5,-56.7 82.5,-56.7 82.5,-37.7 57.5,-37.7"/>
<text text-anchor="start" x="73.3862" y="-43.8" font-family="Helvetica,sans-Serif" font-size="11.00" fill="#000000"> &#160;</text>
<polygon fill="#ffffff" stroke="transparent" points="82.5,-37.7 82.5,-56.7 116.5,-56.7 116.5,-37.7 82.5,-37.7"/>
<polygon fill="none" stroke="#000000" points="82.5,-37.7 82.5,-56.7 116.5,-56.7 116.5,-37.7 82.5,-37.7"/>
<text text-anchor="start" x="97.9053" y="-43.8" font-family="Helvetica,sans-Serif" font-size="11.00" fill="#000000">5 &gt;</text>
</a>
</g>
</g>
<!-- aos_line_item_groups&#45;&gt;aos_invoices -->
<g id="edge2" class="edge">
<title>aos_line_item_groups:w&#45;&gt;aos_invoices:e</title>
<path fill="none" stroke="#000000" d="M154.4842,-152.5535C131.0726,-134.7512 157.0772,-65.7 116.5,-65.7"/>
<polygon fill="#000000" stroke="#000000" points="160.8287,-154.4304 167.4787,-160.1521 164.6643,-155.5652 168.5,-156.7 168.5,-156.7 168.5,-156.7 164.6643,-155.5652 169.5213,-153.2479 160.8287,-154.4304 160.8287,-154.4304"/>
<ellipse fill="none" stroke="#000000" cx="157.7601" cy="-153.5226" rx="3.2" ry="3.2"/>
</g>
<!-- aos_quotes -->
<g id="node4" class="node">
<title>aos_quotes</title>
<g id="a_node4"><a xlink:href="../../tables/aos_quotes.html" xlink:title="aos_quotes" target="_top">
<polygon fill="#ffffff" stroke="transparent" points="14,-124.2 14,-185.2 113,-185.2 113,-124.2 14,-124.2"/>
<polygon fill="#f5f5f5" stroke="transparent" points="14.5,-161.7 14.5,-184.7 113.5,-184.7 113.5,-161.7 14.5,-161.7"/>
<polygon fill="none" stroke="#000000" points="14.5,-161.7 14.5,-184.7 113.5,-184.7 113.5,-161.7 14.5,-161.7"/>
<text text-anchor="start" x="19.0694" y="-170.8" font-family="Helvetica,sans-Serif" font-weight="bold" font-size="11.00" fill="#000000">aos_quotes</text>
<text text-anchor="start" x="79.0219" y="-169.8" font-family="Helvetica,sans-Serif" font-size="11.00" fill="#000000">[table]</text>
<polygon fill="none" stroke="#000000" points="14.5,-142.7 14.5,-161.7 113.5,-161.7 113.5,-142.7 14.5,-142.7"/>
<text text-anchor="start" x="17.5" y="-148.8" font-family="Helvetica,sans-Serif" font-size="11.00" fill="#000000">...</text>
<polygon fill="#ffffff" stroke="transparent" points="14.5,-123.7 14.5,-142.7 57.5,-142.7 57.5,-123.7 14.5,-123.7"/>
<polygon fill="none" stroke="#000000" points="14.5,-123.7 14.5,-142.7 57.5,-142.7 57.5,-123.7 14.5,-123.7"/>
<text text-anchor="start" x="17.5" y="-129.8" font-family="Helvetica,sans-Serif" font-size="11.00" fill="#000000">&lt; 6</text>
<polygon fill="#ffffff" stroke="transparent" points="57.5,-123.7 57.5,-142.7 80.5,-142.7 80.5,-123.7 57.5,-123.7"/>
<polygon fill="none" stroke="#000000" points="57.5,-123.7 57.5,-142.7 80.5,-142.7 80.5,-123.7 57.5,-123.7"/>
<text text-anchor="start" x="71.3862" y="-129.8" font-family="Helvetica,sans-Serif" font-size="11.00" fill="#000000"> &#160;</text>
<polygon fill="#ffffff" stroke="transparent" points="80.5,-123.7 80.5,-142.7 113.5,-142.7 113.5,-123.7 80.5,-123.7"/>
<polygon fill="none" stroke="#000000" points="80.5,-123.7 80.5,-142.7 113.5,-142.7 113.5,-123.7 80.5,-123.7"/>
<text text-anchor="start" x="94.9053" y="-129.8" font-family="Helvetica,sans-Serif" font-size="11.00" fill="#000000">7 &gt;</text>
</a>
</g>
</g>
<!-- aos_line_item_groups&#45;&gt;aos_quotes -->
<g id="edge3" class="edge">
<title>aos_line_item_groups:w&#45;&gt;aos_quotes:e</title>
<path fill="none" stroke="#000000" d="M153.8328,-156.0048C140.161,-154.6309 132.2925,-151.7 113.5,-151.7"/>
<polygon fill="#000000" stroke="#000000" points="160.509,-156.3212 168.3295,-160.296 164.5045,-156.5106 168.5,-156.7 168.5,-156.7 168.5,-156.7 164.5045,-156.5106 168.6705,-153.104 160.509,-156.3212 160.509,-156.3212"/>
<ellipse fill="none" stroke="#000000" cx="157.3126" cy="-156.1696" rx="3.2" ry="3.2"/>
</g>
<!-- aos_line_item_groups_audit -->
<g id="node5" class="node">
<title>aos_line_item_groups_audit</title>
<g id="a_node5"><a xlink:href="../../tables/aos_line_item_groups_audit.html" xlink:title="aos_line_item_groups_audit" target="_top">
<polygon fill="#ffffff" stroke="transparent" points="440,-138.7 440,-404.7 716,-404.7 716,-138.7 440,-138.7"/>
<polygon fill="#f5f5f5" stroke="transparent" points="442,-379.7 442,-402.7 714,-402.7 714,-379.7 442,-379.7"/>
<polygon fill="none" stroke="#000000" points="442,-379.7 442,-402.7 714,-402.7 714,-379.7 442,-379.7"/>
<text text-anchor="start" x="447" y="-388.8" font-family="Helvetica,sans-Serif" font-weight="bold" font-size="11.00" fill="#000000">aos_line_item_groups_audit</text>
<text text-anchor="start" x="679.0437" y="-387.8" font-family="Helvetica,sans-Serif" font-size="11.00" fill="#000000">[table]</text>
<polygon fill="none" stroke="#000000" points="442,-357.7 442,-379.7 647,-379.7 647,-357.7 442,-357.7"/>
<image xlink:href="../../images/primaryKeys.png" width="11px" height="12px" preserveAspectRatio="xMinYMin meet" x="447" y="-374.7"/>
<text text-anchor="start" x="462" y="-364.8" font-family="Helvetica,sans-Serif" font-size="11.00" fill="#000000">id</text>
<polygon fill="none" stroke="#000000" points="647,-357.7 647,-379.7 714,-379.7 714,-357.7 647,-357.7"/>
<text text-anchor="start" x="650" y="-365.4" font-family="Helvetica,sans-Serif" font-size="11.00" fill="#000000">char[36]</text>
<polygon fill="#ffffff" stroke="transparent" points="442,-335.7 442,-357.7 647,-357.7 647,-335.7 442,-335.7"/>
<polygon fill="none" stroke="#000000" points="442,-335.7 442,-357.7 647,-357.7 647,-335.7 442,-335.7"/>
<image xlink:href="../../images/foreignKeys.png" width="11px" height="12px" preserveAspectRatio="xMinYMin meet" x="447" y="-352.7"/>
<text text-anchor="start" x="462" y="-342.8" font-family="Helvetica,sans-Serif" font-size="11.00" fill="#000000">parent_id</text>
<polygon fill="none" stroke="#000000" points="647,-335.7 647,-357.7 714,-357.7 714,-335.7 647,-335.7"/>
<text text-anchor="start" x="650" y="-343.4" font-family="Helvetica,sans-Serif" font-size="11.00" fill="#000000">char[36]</text>
<polygon fill="none" stroke="#000000" points="442,-313.7 442,-335.7 647,-335.7 647,-313.7 442,-313.7"/>
<text text-anchor="start" x="462" y="-320.8" font-family="Helvetica,sans-Serif" font-size="11.00" fill="#000000">date_created</text>
<polygon fill="none" stroke="#000000" points="647,-313.7 647,-335.7 714,-335.7 714,-313.7 647,-313.7"/>
<text text-anchor="start" x="650" y="-321.4" font-family="Helvetica,sans-Serif" font-size="11.00" fill="#000000">datetime[26]</text>
<polygon fill="none" stroke="#000000" points="442,-291.7 442,-313.7 647,-313.7 647,-291.7 442,-291.7"/>
<text text-anchor="start" x="462" y="-298.8" font-family="Helvetica,sans-Serif" font-size="11.00" fill="#000000">created_by</text>
<polygon fill="none" stroke="#000000" points="647,-291.7 647,-313.7 714,-313.7 714,-291.7 647,-291.7"/>
<text text-anchor="start" x="650" y="-299.4" font-family="Helvetica,sans-Serif" font-size="11.00" fill="#000000">varchar[36]</text>
<polygon fill="none" stroke="#000000" points="442,-269.7 442,-291.7 647,-291.7 647,-269.7 442,-269.7"/>
<text text-anchor="start" x="462" y="-276.8" font-family="Helvetica,sans-Serif" font-size="11.00" fill="#000000">field_name</text>
<polygon fill="none" stroke="#000000" points="647,-269.7 647,-291.7 714,-291.7 714,-269.7 647,-269.7"/>
<text text-anchor="start" x="649.9365" y="-277.4" font-family="Helvetica,sans-Serif" font-size="11.00" fill="#000000">varchar[100]</text>
<polygon fill="none" stroke="#000000" points="442,-247.7 442,-269.7 647,-269.7 647,-247.7 442,-247.7"/>
<text text-anchor="start" x="462" y="-254.8" font-family="Helvetica,sans-Serif" font-size="11.00" fill="#000000">data_type</text>
<polygon fill="none" stroke="#000000" points="647,-247.7 647,-269.7 714,-269.7 714,-247.7 647,-247.7"/>
<text text-anchor="start" x="649.9365" y="-255.4" font-family="Helvetica,sans-Serif" font-size="11.00" fill="#000000">varchar[100]</text>
<polygon fill="none" stroke="#000000" points="442,-225.7 442,-247.7 647,-247.7 647,-225.7 442,-225.7"/>
<text text-anchor="start" x="462" y="-232.8" font-family="Helvetica,sans-Serif" font-size="11.00" fill="#000000">before_value_string</text>
<polygon fill="none" stroke="#000000" points="647,-225.7 647,-247.7 714,-247.7 714,-225.7 647,-225.7"/>
<text text-anchor="start" x="649.9365" y="-233.4" font-family="Helvetica,sans-Serif" font-size="11.00" fill="#000000">varchar[255]</text>
<polygon fill="none" stroke="#000000" points="442,-203.7 442,-225.7 647,-225.7 647,-203.7 442,-203.7"/>
<text text-anchor="start" x="462" y="-210.8" font-family="Helvetica,sans-Serif" font-size="11.00" fill="#000000">after_value_string</text>
<polygon fill="none" stroke="#000000" points="647,-203.7 647,-225.7 714,-225.7 714,-203.7 647,-203.7"/>
<text text-anchor="start" x="649.9365" y="-211.4" font-family="Helvetica,sans-Serif" font-size="11.00" fill="#000000">varchar[255]</text>
<polygon fill="none" stroke="#000000" points="442,-181.7 442,-203.7 647,-203.7 647,-181.7 442,-181.7"/>
<text text-anchor="start" x="462" y="-188.8" font-family="Helvetica,sans-Serif" font-size="11.00" fill="#000000">before_value_text</text>
<polygon fill="none" stroke="#000000" points="647,-181.7 647,-203.7 714,-203.7 714,-181.7 647,-181.7"/>
<text text-anchor="start" x="650" y="-189.4" font-family="Helvetica,sans-Serif" font-size="11.00" fill="#000000">text[65535]</text>
<polygon fill="none" stroke="#000000" points="442,-159.7 442,-181.7 647,-181.7 647,-159.7 442,-159.7"/>
<text text-anchor="start" x="462" y="-166.8" font-family="Helvetica,sans-Serif" font-size="11.00" fill="#000000">after_value_text</text>
<polygon fill="none" stroke="#000000" points="647,-159.7 647,-181.7 714,-181.7 714,-159.7 647,-159.7"/>
<text text-anchor="start" x="650" y="-167.4" font-family="Helvetica,sans-Serif" font-size="11.00" fill="#000000">text[65535]</text>
<polygon fill="#ffffff" stroke="transparent" points="442,-140.7 442,-159.7 549,-159.7 549,-140.7 442,-140.7"/>
<polygon fill="none" stroke="#000000" points="442,-140.7 442,-159.7 549,-159.7 549,-140.7 442,-140.7"/>
<text text-anchor="start" x="445" y="-146.8" font-family="Helvetica,sans-Serif" font-size="11.00" fill="#000000">&lt; 1</text>
<polygon fill="#ffffff" stroke="transparent" points="549,-140.7 549,-159.7 647,-159.7 647,-140.7 549,-140.7"/>
<polygon fill="none" stroke="#000000" points="549,-140.7 549,-159.7 647,-159.7 647,-140.7 549,-140.7"/>
<text text-anchor="start" x="637.8862" y="-146.8" font-family="Helvetica,sans-Serif" font-size="11.00" fill="#000000"> &#160;</text>
<polygon fill="#ffffff" stroke="transparent" points="647,-140.7 647,-159.7 714,-159.7 714,-140.7 647,-140.7"/>
<polygon fill="none" stroke="#000000" points="647,-140.7 647,-159.7 714,-159.7 714,-140.7 647,-140.7"/>
<text text-anchor="start" x="695.4053" y="-146.8" font-family="Helvetica,sans-Serif" font-size="11.00" fill="#000000">0 &gt;</text>
<polygon fill="none" stroke="#000000" stroke-width="2" points="441,-139.7 441,-403.7 715,-403.7 715,-139.7 441,-139.7"/>
</a>
</g>
</g>
<!-- aos_line_item_groups_audit&#45;&gt;aos_line_item_groups -->
<g id="edge4" class="edge">
<title>aos_line_item_groups_audit:w&#45;&gt;aos_line_item_groups:e</title>
<path fill="none" stroke="#000000" d="M428.0618,-342.826C401.9001,-324.1945 436.1573,-244.7 391.5,-244.7"/>
<polygon fill="#000000" stroke="#000000" points="434.2922,-344.5577 441.0359,-350.1685 438.1461,-345.6288 442,-346.7 442,-346.7 442,-346.7 438.1461,-345.6288 442.9641,-343.2315 434.2922,-344.5577 434.2922,-344.5577"/>
<ellipse fill="none" stroke="#000000" cx="431.209" cy="-343.7007" rx="3.2" ry="3.2"/>
</g>
<!-- aos_products_quotes -->
<g id="node6" class="node">
<title>aos_products_quotes</title>
<g id="a_node6"><a xlink:href="../../tables/aos_products_quotes.html" xlink:title="aos_products_quotes" target="_top">
<polygon fill="#ffffff" stroke="transparent" points="504,-56.2 504,-117.2 652,-117.2 652,-56.2 504,-56.2"/>
<polygon fill="#f5f5f5" stroke="transparent" points="504,-93.7 504,-116.7 652,-116.7 652,-93.7 504,-93.7"/>
<polygon fill="none" stroke="#000000" points="504,-93.7 504,-116.7 652,-116.7 652,-93.7 504,-93.7"/>
<text text-anchor="start" x="508.9228" y="-102.8" font-family="Helvetica,sans-Serif" font-weight="bold" font-size="11.00" fill="#000000">aos_products_quotes</text>
<text text-anchor="start" x="617.5219" y="-101.8" font-family="Helvetica,sans-Serif" font-size="11.00" fill="#000000">[table]</text>
<polygon fill="none" stroke="#000000" points="504,-74.7 504,-93.7 652,-93.7 652,-74.7 504,-74.7"/>
<text text-anchor="start" x="507" y="-80.8" font-family="Helvetica,sans-Serif" font-size="11.00" fill="#000000">...</text>
<polygon fill="#ffffff" stroke="transparent" points="504,-55.7 504,-74.7 572,-74.7 572,-55.7 504,-55.7"/>
<polygon fill="none" stroke="#000000" points="504,-55.7 504,-74.7 572,-74.7 572,-55.7 504,-55.7"/>
<text text-anchor="start" x="507" y="-61.8" font-family="Helvetica,sans-Serif" font-size="11.00" fill="#000000">&lt; 8</text>
<polygon fill="#ffffff" stroke="transparent" points="572,-55.7 572,-74.7 607,-74.7 607,-55.7 572,-55.7"/>
<polygon fill="none" stroke="#000000" points="572,-55.7 572,-74.7 607,-74.7 607,-55.7 572,-55.7"/>
<text text-anchor="start" x="597.8862" y="-61.8" font-family="Helvetica,sans-Serif" font-size="11.00" fill="#000000"> &#160;</text>
<polygon fill="#ffffff" stroke="transparent" points="607,-55.7 607,-74.7 652,-74.7 652,-55.7 607,-55.7"/>
<polygon fill="none" stroke="#000000" points="607,-55.7 607,-74.7 652,-74.7 652,-55.7 607,-55.7"/>
<text text-anchor="start" x="633.4053" y="-61.8" font-family="Helvetica,sans-Serif" font-size="11.00" fill="#000000">1 &gt;</text>
</a>
</g>
</g>
<!-- aos_products_quotes&#45;&gt;aos_line_item_groups -->
<g id="edge5" class="edge">
<title>aos_products_quotes:w&#45;&gt;aos_line_item_groups:e</title>
<path fill="none" stroke="#000000" d="M489.5726,-84.6162C462.9977,-88.3403 452.241,-103.363 432,-128.7 397.9164,-171.3648 446.1075,-244.7 391.5,-244.7"/>
<polygon fill="#000000" stroke="#000000" points="496.0161,-84.2071 504.2282,-87.2928 500.008,-83.9535 504,-83.7 504,-83.7 504,-83.7 500.008,-83.9535 503.7718,-80.1072 496.0161,-84.2071 496.0161,-84.2071"/>
<ellipse fill="none" stroke="#000000" cx="492.8225" cy="-84.4099" rx="3.2" ry="3.2"/>
</g>
<!-- aos_products_quotes&#45;&gt;aos_contracts -->
<g id="edge6" class="edge">
<title>aos_products_quotes:w&#45;&gt;aos_contracts:e</title>
<path fill="none" stroke="#000000" d="M489.4695,-84.5394C462.5088,-87.9759 450.5027,-102.0672 432,-128.7 390.3248,-188.6874 455.5977,-243.5264 399,-289.7 316.6934,-356.8475 263.1984,-314.8643 160,-289.7 140.3013,-284.8966 139.7759,-268.7 119.5,-268.7"/>
<polygon fill="#000000" stroke="#000000" points="496.0133,-84.1614 504.2076,-87.294 500.0067,-83.9307 504,-83.7 504,-83.7 504,-83.7 500.0067,-83.9307 503.7924,-80.106 496.0133,-84.1614 496.0133,-84.1614"/>
<ellipse fill="none" stroke="#000000" cx="492.8186" cy="-84.346" rx="3.2" ry="3.2"/>
</g>
<!-- aos_products_quotes&#45;&gt;aos_invoices -->
<g id="edge7" class="edge">
<title>aos_products_quotes:w&#45;&gt;aos_invoices:e</title>
<path fill="none" stroke="#000000" d="M489.334,-83.4427C454.0995,-82.1428 440.4885,-76.2602 399,-73.7 273.6326,-65.9636 242.1059,-65.7 116.5,-65.7"/>
<polygon fill="#000000" stroke="#000000" points="496.0012,-83.5596 503.9368,-87.2994 500.0006,-83.6298 504,-83.7 504,-83.7 504,-83.7 500.0006,-83.6298 504.0632,-80.1006 496.0012,-83.5596 496.0012,-83.5596"/>
<ellipse fill="none" stroke="#000000" cx="492.8017" cy="-83.5034" rx="3.2" ry="3.2"/>
</g>
<!-- aos_products_quotes&#45;&gt;aos_quotes -->
<g id="edge8" class="edge">
<title>aos_products_quotes:w&#45;&gt;aos_quotes:e</title>
<path fill="none" stroke="#000000" d="M489.3444,-83.5157C404.663,-81.6191 224.8458,-66.3534 160,-97.7 131.485,-111.4842 145.1719,-151.7 113.5,-151.7"/>
<polygon fill="#000000" stroke="#000000" points="496.0006,-83.5994 503.9547,-87.2997 500.0003,-83.6497 504,-83.7 504,-83.7 504,-83.7 500.0003,-83.6497 504.0453,-80.1003 496.0006,-83.5994 496.0006,-83.5994"/>
<ellipse fill="none" stroke="#000000" cx="492.8009" cy="-83.5591" rx="3.2" ry="3.2"/>
</g>
</g>
</svg>
