<?xml version="1.0" encoding="UTF-8" standalone="no"?>
<!DOCTYPE svg PUBLIC "-//W3C//DTD SVG 1.1//EN"
 "http://www.w3.org/Graphics/SVG/1.1/DTD/svg11.dtd">
<!-- Generated by graphviz version 2.40.1 (20161225.0304)
 -->
<!-- Title: twoDegreesRelationshipsDiagram Pages: 1 -->
<svg width="962pt" height="422pt"
 viewBox="0.00 0.00 962.00 421.70" xmlns="http://www.w3.org/2000/svg" xmlns:xlink="http://www.w3.org/1999/xlink">
<g id="graph0" class="graph" transform="scale(1 1) rotate(0) translate(4 417.7)">
<title>twoDegreesRelationshipsDiagram</title>
<polygon fill="#ffffff" stroke="transparent" points="-4,4 -4,-417.7 958,-417.7 958,4 -4,4"/>
<text text-anchor="middle" x="72.4936" y="-7.3" font-family="Helvetica,sans-Serif" font-size="11.00" fill="#000000">Generated by SchemaSpy</text>
<!-- aos_line_item_groups -->
<g id="node1" class="node">
<title>aos_line_item_groups</title>
<g id="a_node1"><a xlink:href="../../tables/aos_line_item_groups.html" xlink:title="aos_line_item_groups" target="_top">
<polygon fill="#ffffff" stroke="transparent" points="168,-148.2 168,-209.2 318,-209.2 318,-148.2 168,-148.2"/>
<polygon fill="#f5f5f5" stroke="transparent" points="168,-185.7 168,-208.7 318,-208.7 318,-185.7 168,-185.7"/>
<polygon fill="none" stroke="#000000" points="168,-185.7 168,-208.7 318,-208.7 318,-185.7 168,-185.7"/>
<text text-anchor="start" x="172.7089" y="-194.8" font-family="Helvetica,sans-Serif" font-weight="bold" font-size="11.00" fill="#000000">aos_line_item_groups</text>
<text text-anchor="start" x="283.5219" y="-193.8" font-family="Helvetica,sans-Serif" font-size="11.00" fill="#000000">[table]</text>
<polygon fill="none" stroke="#000000" points="168,-166.7 168,-185.7 318,-185.7 318,-166.7 168,-166.7"/>
<text text-anchor="start" x="171" y="-172.8" font-family="Helvetica,sans-Serif" font-size="11.00" fill="#000000">...</text>
<polygon fill="#ffffff" stroke="transparent" points="168,-147.7 168,-166.7 237,-166.7 237,-147.7 168,-147.7"/>
<polygon fill="none" stroke="#000000" points="168,-147.7 168,-166.7 237,-166.7 237,-147.7 168,-147.7"/>
<text text-anchor="start" x="171" y="-153.8" font-family="Helvetica,sans-Serif" font-size="11.00" fill="#000000">&lt; 6</text>
<polygon fill="#ffffff" stroke="transparent" points="237,-147.7 237,-166.7 273,-166.7 273,-147.7 237,-147.7"/>
<polygon fill="none" stroke="#000000" points="237,-147.7 237,-166.7 273,-166.7 273,-147.7 237,-147.7"/>
<text text-anchor="start" x="263.8862" y="-153.8" font-family="Helvetica,sans-Serif" font-size="11.00" fill="#000000"> &#160;</text>
<polygon fill="#ffffff" stroke="transparent" points="273,-147.7 273,-166.7 318,-166.7 318,-147.7 273,-147.7"/>
<polygon fill="none" stroke="#000000" points="273,-147.7 273,-166.7 318,-166.7 318,-147.7 273,-147.7"/>
<text text-anchor="start" x="299.4053" y="-153.8" font-family="Helvetica,sans-Serif" font-size="11.00" fill="#000000">2 &gt;</text>
</a>
</g>
</g>
<!-- aos_contracts -->
<g id="node2" class="node">
<title>aos_contracts</title>
<g id="a_node2"><a xlink:href="../../tables/aos_contracts.html" xlink:title="aos_contracts" target="_top">
<polygon fill="#ffffff" stroke="transparent" points="8,-253.2 8,-314.2 119,-314.2 119,-253.2 8,-253.2"/>
<polygon fill="#f5f5f5" stroke="transparent" points="8.5,-290.7 8.5,-313.7 119.5,-313.7 119.5,-290.7 8.5,-290.7"/>
<polygon fill="none" stroke="#000000" points="8.5,-290.7 8.5,-313.7 119.5,-313.7 119.5,-290.7 8.5,-290.7"/>
<text text-anchor="start" x="13.2674" y="-299.8" font-family="Helvetica,sans-Serif" font-weight="bold" font-size="11.00" fill="#000000">aos_contracts</text>
<text text-anchor="start" x="85.0219" y="-298.8" font-family="Helvetica,sans-Serif" font-size="11.00" fill="#000000">[table]</text>
<polygon fill="none" stroke="#000000" points="8.5,-271.7 8.5,-290.7 119.5,-290.7 119.5,-271.7 8.5,-271.7"/>
<text text-anchor="start" x="11.5" y="-277.8" font-family="Helvetica,sans-Serif" font-size="11.00" fill="#000000">...</text>
<polygon fill="#ffffff" stroke="transparent" points="8.5,-252.7 8.5,-271.7 54.5,-271.7 54.5,-252.7 8.5,-252.7"/>
<polygon fill="none" stroke="#000000" points="8.5,-252.7 8.5,-271.7 54.5,-271.7 54.5,-252.7 8.5,-252.7"/>
<text text-anchor="start" x="11.5" y="-258.8" font-family="Helvetica,sans-Serif" font-size="11.00" fill="#000000">&lt; 6</text>
<polygon fill="#ffffff" stroke="transparent" points="54.5,-252.7 54.5,-271.7 79.5,-271.7 79.5,-252.7 54.5,-252.7"/>
<polygon fill="none" stroke="#000000" points="54.5,-252.7 54.5,-271.7 79.5,-271.7 79.5,-252.7 54.5,-252.7"/>
<text text-anchor="start" x="70.3862" y="-258.8" font-family="Helvetica,sans-Serif" font-size="11.00" fill="#000000"> &#160;</text>
<polygon fill="#ffffff" stroke="transparent" points="79.5,-252.7 79.5,-271.7 119.5,-271.7 119.5,-252.7 79.5,-252.7"/>
<polygon fill="none" stroke="#000000" points="79.5,-252.7 79.5,-271.7 119.5,-271.7 119.5,-252.7 79.5,-252.7"/>
<text text-anchor="start" x="94.7904" y="-258.8" font-family="Helvetica,sans-Serif" font-size="11.00" fill="#000000">11 &gt;</text>
</a>
</g>
</g>
<!-- aos_line_item_groups&#45;&gt;aos_contracts -->
<g id="edge1" class="edge">
<title>aos_line_item_groups:w&#45;&gt;aos_contracts:e</title>
<path fill="none" stroke="#000000" d="M153.9431,-179.6879C127.8724,-198.8674 164.8805,-280.7 119.5,-280.7"/>
<polygon fill="#000000" stroke="#000000" points="160.3037,-177.8835 168.9826,-179.1633 164.1519,-176.7917 168,-175.7 168,-175.7 168,-175.7 164.1519,-176.7917 167.0174,-172.2367 160.3037,-177.8835 160.3037,-177.8835"/>
<ellipse fill="none" stroke="#000000" cx="157.2252" cy="-178.7568" rx="3.2" ry="3.2"/>
</g>
<!-- aos_invoices -->
<g id="node3" class="node">
<title>aos_invoices</title>
<g id="a_node3"><a xlink:href="../../tables/aos_invoices.html" xlink:title="aos_invoices" target="_top">
<polygon fill="#ffffff" stroke="transparent" points="10.5,-171.2 10.5,-232.2 116.5,-232.2 116.5,-171.2 10.5,-171.2"/>
<polygon fill="#f5f5f5" stroke="transparent" points="10.5,-208.7 10.5,-231.7 116.5,-231.7 116.5,-208.7 10.5,-208.7"/>
<polygon fill="none" stroke="#000000" points="10.5,-208.7 10.5,-231.7 116.5,-231.7 116.5,-208.7 10.5,-208.7"/>
<text text-anchor="start" x="15.2144" y="-217.8" font-family="Helvetica,sans-Serif" font-weight="bold" font-size="11.00" fill="#000000">aos_invoices</text>
<text text-anchor="start" x="82.0219" y="-216.8" font-family="Helvetica,sans-Serif" font-size="11.00" fill="#000000">[table]</text>
<polygon fill="none" stroke="#000000" points="10.5,-189.7 10.5,-208.7 116.5,-208.7 116.5,-189.7 10.5,-189.7"/>
<text text-anchor="start" x="13.5" y="-195.8" font-family="Helvetica,sans-Serif" font-size="11.00" fill="#000000">...</text>
<polygon fill="#ffffff" stroke="transparent" points="10.5,-170.7 10.5,-189.7 57.5,-189.7 57.5,-170.7 10.5,-170.7"/>
<polygon fill="none" stroke="#000000" points="10.5,-170.7 10.5,-189.7 57.5,-189.7 57.5,-170.7 10.5,-170.7"/>
<text text-anchor="start" x="13.5" y="-176.8" font-family="Helvetica,sans-Serif" font-size="11.00" fill="#000000">&lt; 5</text>
<polygon fill="#ffffff" stroke="transparent" points="57.5,-170.7 57.5,-189.7 82.5,-189.7 82.5,-170.7 57.5,-170.7"/>
<polygon fill="none" stroke="#000000" points="57.5,-170.7 57.5,-189.7 82.5,-189.7 82.5,-170.7 57.5,-170.7"/>
<text text-anchor="start" x="73.3862" y="-176.8" font-family="Helvetica,sans-Serif" font-size="11.00" fill="#000000"> &#160;</text>
<polygon fill="#ffffff" stroke="transparent" points="82.5,-170.7 82.5,-189.7 116.5,-189.7 116.5,-170.7 82.5,-170.7"/>
<polygon fill="none" stroke="#000000" points="82.5,-170.7 82.5,-189.7 116.5,-189.7 116.5,-170.7 82.5,-170.7"/>
<text text-anchor="start" x="97.9053" y="-176.8" font-family="Helvetica,sans-Serif" font-size="11.00" fill="#000000">5 &gt;</text>
</a>
</g>
</g>
<!-- aos_line_item_groups&#45;&gt;aos_invoices -->
<g id="edge2" class="edge">
<title>aos_line_item_groups:w&#45;&gt;aos_invoices:e</title>
<path fill="none" stroke="#000000" d="M153.6701,-178.8981C140.9906,-185.2178 135.6925,-198.7 116.5,-198.7"/>
<polygon fill="#000000" stroke="#000000" points="160.1921,-177.4426 168.7842,-179.2136 164.096,-176.5713 168,-175.7 168,-175.7 168,-175.7 164.096,-176.5713 167.2158,-172.1864 160.1921,-177.4426 160.1921,-177.4426"/>
<ellipse fill="none" stroke="#000000" cx="157.0689" cy="-178.1396" rx="3.2" ry="3.2"/>
</g>
<!-- aos_quotes -->
<g id="node4" class="node">
<title>aos_quotes</title>
<g id="a_node4"><a xlink:href="../../tables/aos_quotes.html" xlink:title="aos_quotes" target="_top">
<polygon fill="#ffffff" stroke="transparent" points="14,-89.2 14,-150.2 113,-150.2 113,-89.2 14,-89.2"/>
<polygon fill="#f5f5f5" stroke="transparent" points="14.5,-126.7 14.5,-149.7 113.5,-149.7 113.5,-126.7 14.5,-126.7"/>
<polygon fill="none" stroke="#000000" points="14.5,-126.7 14.5,-149.7 113.5,-149.7 113.5,-126.7 14.5,-126.7"/>
<text text-anchor="start" x="19.0694" y="-135.8" font-family="Helvetica,sans-Serif" font-weight="bold" font-size="11.00" fill="#000000">aos_quotes</text>
<text text-anchor="start" x="79.0219" y="-134.8" font-family="Helvetica,sans-Serif" font-size="11.00" fill="#000000">[table]</text>
<polygon fill="none" stroke="#000000" points="14.5,-107.7 14.5,-126.7 113.5,-126.7 113.5,-107.7 14.5,-107.7"/>
<text text-anchor="start" x="17.5" y="-113.8" font-family="Helvetica,sans-Serif" font-size="11.00" fill="#000000">...</text>
<polygon fill="#ffffff" stroke="transparent" points="14.5,-88.7 14.5,-107.7 57.5,-107.7 57.5,-88.7 14.5,-88.7"/>
<polygon fill="none" stroke="#000000" points="14.5,-88.7 14.5,-107.7 57.5,-107.7 57.5,-88.7 14.5,-88.7"/>
<text text-anchor="start" x="17.5" y="-94.8" font-family="Helvetica,sans-Serif" font-size="11.00" fill="#000000">&lt; 6</text>
<polygon fill="#ffffff" stroke="transparent" points="57.5,-88.7 57.5,-107.7 80.5,-107.7 80.5,-88.7 57.5,-88.7"/>
<polygon fill="none" stroke="#000000" points="57.5,-88.7 57.5,-107.7 80.5,-107.7 80.5,-88.7 57.5,-88.7"/>
<text text-anchor="start" x="71.3862" y="-94.8" font-family="Helvetica,sans-Serif" font-size="11.00" fill="#000000"> &#160;</text>
<polygon fill="#ffffff" stroke="transparent" points="80.5,-88.7 80.5,-107.7 113.5,-107.7 113.5,-88.7 80.5,-88.7"/>
<polygon fill="none" stroke="#000000" points="80.5,-88.7 80.5,-107.7 113.5,-107.7 113.5,-88.7 80.5,-88.7"/>
<text text-anchor="start" x="94.9053" y="-94.8" font-family="Helvetica,sans-Serif" font-size="11.00" fill="#000000">7 &gt;</text>
</a>
</g>
</g>
<!-- aos_line_item_groups&#45;&gt;aos_quotes -->
<g id="edge3" class="edge">
<title>aos_line_item_groups:w&#45;&gt;aos_quotes:e</title>
<path fill="none" stroke="#000000" d="M154.2124,-171.4569C136.4305,-157.9287 143.341,-116.7 113.5,-116.7"/>
<polygon fill="#000000" stroke="#000000" points="160.3539,-173.3469 166.9411,-179.1407 164.1769,-174.5234 168,-175.7 168,-175.7 168,-175.7 164.1769,-174.5234 169.0589,-172.2593 160.3539,-173.3469 160.3539,-173.3469"/>
<ellipse fill="none" stroke="#000000" cx="157.2954" cy="-172.4056" rx="3.2" ry="3.2"/>
</g>
<!-- aos_products_quotes -->
<g id="node5" class="node">
<title>aos_products_quotes</title>
<g id="a_node5"><a xlink:href="../../tables/aos_products_quotes.html" xlink:title="aos_products_quotes" target="_top">
<polygon fill="#ffffff" stroke="transparent" points="367,-127.2 367,-386.2 623,-386.2 623,-127.2 367,-127.2"/>
<polygon fill="#f5f5f5" stroke="transparent" points="367,-362.7 367,-385.7 623,-385.7 623,-362.7 367,-362.7"/>
<polygon fill="none" stroke="#000000" points="367,-362.7 367,-385.7 623,-385.7 623,-362.7 367,-362.7"/>
<text text-anchor="start" x="372" y="-371.8" font-family="Helvetica,sans-Serif" font-weight="bold" font-size="11.00" fill="#000000">aos_products_quotes</text>
<text text-anchor="start" x="588.0437" y="-370.8" font-family="Helvetica,sans-Serif" font-size="11.00" fill="#000000">[table]</text>
<polygon fill="none" stroke="#000000" points="367,-340.7 367,-362.7 623,-362.7 623,-340.7 367,-340.7"/>
<image xlink:href="../../images/primaryKeys.png" width="11px" height="12px" preserveAspectRatio="xMinYMin meet" x="372" y="-357.7"/>
<text text-anchor="start" x="387" y="-347.8" font-family="Helvetica,sans-Serif" font-size="11.00" fill="#000000">id</text>
<polygon fill="#c0c0c0" stroke="transparent" points="367,-318.7 367,-340.7 623,-340.7 623,-318.7 367,-318.7"/>
<polygon fill="none" stroke="#000000" points="367,-318.7 367,-340.7 623,-340.7 623,-318.7 367,-318.7"/>
<image xlink:href="../../images/foreignKeys.png" width="11px" height="12px" preserveAspectRatio="xMinYMin meet" x="372" y="-335.7"/>
<text text-anchor="start" x="387" y="-325.8" font-family="Helvetica,sans-Serif" font-size="11.00" fill="#000000">modified_user_id</text>
<polygon fill="#c0c0c0" stroke="transparent" points="367,-296.7 367,-318.7 623,-318.7 623,-296.7 367,-296.7"/>
<polygon fill="none" stroke="#000000" points="367,-296.7 367,-318.7 623,-318.7 623,-296.7 367,-296.7"/>
<image xlink:href="../../images/foreignKeys.png" width="11px" height="12px" preserveAspectRatio="xMinYMin meet" x="372" y="-313.7"/>
<text text-anchor="start" x="387" y="-303.8" font-family="Helvetica,sans-Serif" font-size="11.00" fill="#000000">created_by</text>
<polygon fill="#ffffff" stroke="transparent" points="367,-274.7 367,-296.7 623,-296.7 623,-274.7 367,-274.7"/>
<polygon fill="none" stroke="#000000" points="367,-274.7 367,-296.7 623,-296.7 623,-274.7 367,-274.7"/>
<text text-anchor="start" x="387" y="-281.8" font-family="Helvetica,sans-Serif" font-size="11.00" fill="#000000">deleted</text>
<polygon fill="#c0c0c0" stroke="transparent" points="367,-252.7 367,-274.7 623,-274.7 623,-252.7 367,-252.7"/>
<polygon fill="none" stroke="#000000" points="367,-252.7 367,-274.7 623,-274.7 623,-252.7 367,-252.7"/>
<image xlink:href="../../images/foreignKeys.png" width="11px" height="12px" preserveAspectRatio="xMinYMin meet" x="372" y="-269.7"/>
<text text-anchor="start" x="387" y="-259.8" font-family="Helvetica,sans-Serif" font-size="11.00" fill="#000000">assigned_user_id</text>
<polygon fill="#ffffff" stroke="transparent" points="367,-230.7 367,-252.7 623,-252.7 623,-230.7 367,-230.7"/>
<polygon fill="none" stroke="#000000" points="367,-230.7 367,-252.7 623,-252.7 623,-230.7 367,-230.7"/>
<text text-anchor="start" x="387" y="-237.8" font-family="Helvetica,sans-Serif" font-size="11.00" fill="#000000">parent_type</text>
<polygon fill="#ffffff" stroke="transparent" points="367,-208.7 367,-230.7 623,-230.7 623,-208.7 367,-208.7"/>
<polygon fill="none" stroke="#000000" points="367,-208.7 367,-230.7 623,-230.7 623,-208.7 367,-208.7"/>
<image xlink:href="../../images/foreignKeys.png" width="11px" height="12px" preserveAspectRatio="xMinYMin meet" x="372" y="-225.7"/>
<text text-anchor="start" x="387" y="-215.8" font-family="Helvetica,sans-Serif" font-size="11.00" fill="#000000">parent_id</text>
<polygon fill="none" stroke="#000000" points="367,-186.7 367,-208.7 623,-208.7 623,-186.7 367,-186.7"/>
<image xlink:href="../../images/foreignKeys.png" width="11px" height="12px" preserveAspectRatio="xMinYMin meet" x="372" y="-203.7"/>
<text text-anchor="start" x="387" y="-193.8" font-family="Helvetica,sans-Serif" font-size="11.00" fill="#000000">product_id</text>
<polygon fill="none" stroke="#000000" points="367,-164.7 367,-186.7 623,-186.7 623,-164.7 367,-164.7"/>
<image xlink:href="../../images/foreignKeys.png" width="11px" height="12px" preserveAspectRatio="xMinYMin meet" x="372" y="-181.7"/>
<text text-anchor="start" x="387" y="-171.8" font-family="Helvetica,sans-Serif" font-size="11.00" fill="#000000">group_id</text>
<polygon fill="none" stroke="#000000" points="367,-145.7 367,-164.7 623,-164.7 623,-145.7 367,-145.7"/>
<text text-anchor="start" x="370" y="-151.8" font-family="Helvetica,sans-Serif" font-size="11.00" fill="#000000">...</text>
<polygon fill="#ffffff" stroke="transparent" points="367,-126.7 367,-145.7 489,-145.7 489,-126.7 367,-126.7"/>
<polygon fill="none" stroke="#000000" points="367,-126.7 367,-145.7 489,-145.7 489,-126.7 367,-126.7"/>
<text text-anchor="start" x="370" y="-132.8" font-family="Helvetica,sans-Serif" font-size="11.00" fill="#000000">&lt; 8</text>
<polygon fill="#ffffff" stroke="transparent" points="489,-126.7 489,-145.7 551,-145.7 551,-126.7 489,-126.7"/>
<polygon fill="none" stroke="#000000" points="489,-126.7 489,-145.7 551,-145.7 551,-126.7 489,-126.7"/>
<text text-anchor="start" x="541.8862" y="-132.8" font-family="Helvetica,sans-Serif" font-size="11.00" fill="#000000"> &#160;</text>
<polygon fill="#ffffff" stroke="transparent" points="551,-126.7 551,-145.7 623,-145.7 623,-126.7 551,-126.7"/>
<polygon fill="none" stroke="#000000" points="551,-126.7 551,-145.7 623,-145.7 623,-126.7 551,-126.7"/>
<text text-anchor="start" x="604.4053" y="-132.8" font-family="Helvetica,sans-Serif" font-size="11.00" fill="#000000">1 &gt;</text>
</a>
</g>
</g>
<!-- aos_products_quotes&#45;&gt;aos_line_item_groups -->
<g id="edge4" class="edge">
<title>aos_products_quotes:w&#45;&gt;aos_line_item_groups:e</title>
<path fill="none" stroke="#000000" d="M352.4909,-175.7C341.1774,-175.7 333.9931,-175.7 318,-175.7"/>
<polygon fill="#000000" stroke="#000000" points="359,-175.7001 367,-179.3 363,-175.7 367,-175.7 367,-175.7 367,-175.7 363,-175.7 367,-172.1 359,-175.7001 359,-175.7001"/>
<ellipse fill="none" stroke="#000000" cx="355.8" cy="-175.7001" rx="3.2" ry="3.2"/>
</g>
<!-- aos_products_quotes&#45;&gt;aos_contracts -->
<g id="edge5" class="edge">
<title>aos_products_quotes:w&#45;&gt;aos_contracts:e</title>
<path fill="none" stroke="#000000" d="M352.9787,-223.2543C344.1926,-228.5658 340.0833,-238.5042 326,-243.7 238.5241,-275.9729 212.7394,-280.7 119.5,-280.7"/>
<polygon fill="#000000" stroke="#000000" points="359.2453,-221.6658 367.8846,-223.1896 363.1226,-220.6829 367,-219.7 367,-219.7 367,-219.7 363.1226,-220.6829 366.1154,-216.2104 359.2453,-221.6658 359.2453,-221.6658"/>
<ellipse fill="none" stroke="#000000" cx="356.1434" cy="-222.4521" rx="3.2" ry="3.2"/>
</g>
<!-- aos_products_quotes&#45;&gt;aos_invoices -->
<g id="edge6" class="edge">
<title>aos_products_quotes:w&#45;&gt;aos_invoices:e</title>
<path fill="none" stroke="#000000" d="M352.4831,-219.874C272.0385,-221.8211 244.779,-239.0931 160,-219.7 139.0722,-214.9128 137.9683,-198.7 116.5,-198.7"/>
<polygon fill="#000000" stroke="#000000" points="359.0006,-219.7959 367.0432,-223.2997 363.0003,-219.748 367,-219.7 367,-219.7 367,-219.7 363.0003,-219.748 366.9568,-216.1003 359.0006,-219.7959 359.0006,-219.7959"/>
<ellipse fill="none" stroke="#000000" cx="355.8008" cy="-219.8343" rx="3.2" ry="3.2"/>
</g>
<!-- aos_products_quotes&#45;&gt;aos_quotes -->
<g id="edge7" class="edge">
<title>aos_products_quotes:w&#45;&gt;aos_quotes:e</title>
<path fill="none" stroke="#000000" d="M353.0357,-215.934C334.851,-202.5853 354.4508,-157.2825 326,-137.7 286.9118,-110.7959 160.9523,-116.7 113.5,-116.7"/>
<polygon fill="#000000" stroke="#000000" points="359.276,-217.6169 366.0626,-223.1758 363.138,-218.6584 367,-219.7 367,-219.7 367,-219.7 363.138,-218.6584 367.9374,-216.2242 359.276,-217.6169 359.276,-217.6169"/>
<ellipse fill="none" stroke="#000000" cx="356.1863" cy="-216.7836" rx="3.2" ry="3.2"/>
</g>
<!-- aos_products -->
<g id="node6" class="node">
<title>aos_products</title>
<g id="a_node6"><a xlink:href="../../tables/aos_products.html" xlink:title="aos_products" target="_top">
<polygon fill="#ffffff" stroke="transparent" points="188.5,-38.2 188.5,-99.2 297.5,-99.2 297.5,-38.2 188.5,-38.2"/>
<polygon fill="#f5f5f5" stroke="transparent" points="189,-75.7 189,-98.7 298,-98.7 298,-75.7 189,-75.7"/>
<polygon fill="none" stroke="#000000" points="189,-75.7 189,-98.7 298,-98.7 298,-75.7 189,-75.7"/>
<text text-anchor="start" x="193.9885" y="-84.8" font-family="Helvetica,sans-Serif" font-weight="bold" font-size="11.00" fill="#000000">aos_products</text>
<text text-anchor="start" x="263.5219" y="-83.8" font-family="Helvetica,sans-Serif" font-size="11.00" fill="#000000">[table]</text>
<polygon fill="none" stroke="#000000" points="189,-56.7 189,-75.7 298,-75.7 298,-56.7 189,-56.7"/>
<text text-anchor="start" x="192" y="-62.8" font-family="Helvetica,sans-Serif" font-size="11.00" fill="#000000">...</text>
<polygon fill="#ffffff" stroke="transparent" points="189,-37.7 189,-56.7 237,-56.7 237,-37.7 189,-37.7"/>
<polygon fill="none" stroke="#000000" points="189,-37.7 189,-56.7 237,-56.7 237,-37.7 189,-37.7"/>
<text text-anchor="start" x="192" y="-43.8" font-family="Helvetica,sans-Serif" font-size="11.00" fill="#000000">&lt; 4</text>
<polygon fill="#ffffff" stroke="transparent" points="237,-37.7 237,-56.7 263,-56.7 263,-37.7 237,-37.7"/>
<polygon fill="none" stroke="#000000" points="237,-37.7 237,-56.7 263,-56.7 263,-37.7 237,-37.7"/>
<text text-anchor="start" x="253.8862" y="-43.8" font-family="Helvetica,sans-Serif" font-size="11.00" fill="#000000"> &#160;</text>
<polygon fill="#ffffff" stroke="transparent" points="263,-37.7 263,-56.7 298,-56.7 298,-37.7 263,-37.7"/>
<polygon fill="none" stroke="#000000" points="263,-37.7 263,-56.7 298,-56.7 298,-37.7 263,-37.7"/>
<text text-anchor="start" x="279.4053" y="-43.8" font-family="Helvetica,sans-Serif" font-size="11.00" fill="#000000">3 &gt;</text>
</a>
</g>
</g>
<!-- aos_products_quotes&#45;&gt;aos_products -->
<g id="edge8" class="edge">
<title>aos_products_quotes:w&#45;&gt;aos_products:e</title>
<path fill="none" stroke="#000000" d="M352.64,-194.943C310.7409,-175.9874 358.5094,-65.7 298,-65.7"/>
<polygon fill="#000000" stroke="#000000" points="359.1435,-196.1916 366.3212,-201.2354 363.0717,-196.9458 367,-197.7 367,-197.7 367,-197.7 363.0717,-196.9458 367.6788,-194.1646 359.1435,-196.1916 359.1435,-196.1916"/>
<ellipse fill="none" stroke="#000000" cx="356.0009" cy="-195.5882" rx="3.2" ry="3.2"/>
</g>
<!-- aos_products_quotes_audit -->
<g id="node7" class="node">
<title>aos_products_quotes_audit</title>
<g id="a_node7"><a xlink:href="../../tables/aos_products_quotes_audit.html" xlink:title="aos_products_quotes_audit" target="_top">
<polygon fill="#ffffff" stroke="transparent" points="672,-143.7 672,-409.7 946,-409.7 946,-143.7 672,-143.7"/>
<polygon fill="#f5f5f5" stroke="transparent" points="674,-384.7 674,-407.7 944,-407.7 944,-384.7 674,-384.7"/>
<polygon fill="none" stroke="#000000" points="674,-384.7 674,-407.7 944,-407.7 944,-384.7 674,-384.7"/>
<text text-anchor="start" x="679" y="-393.8" font-family="Helvetica,sans-Serif" font-weight="bold" font-size="11.00" fill="#000000">aos_products_quotes_audit</text>
<text text-anchor="start" x="909.0437" y="-392.8" font-family="Helvetica,sans-Serif" font-size="11.00" fill="#000000">[table]</text>
<polygon fill="none" stroke="#000000" points="674,-362.7 674,-384.7 877,-384.7 877,-362.7 674,-362.7"/>
<image xlink:href="../../images/primaryKeys.png" width="11px" height="12px" preserveAspectRatio="xMinYMin meet" x="679" y="-379.7"/>
<text text-anchor="start" x="694" y="-369.8" font-family="Helvetica,sans-Serif" font-size="11.00" fill="#000000">id</text>
<polygon fill="none" stroke="#000000" points="877,-362.7 877,-384.7 944,-384.7 944,-362.7 877,-362.7"/>
<text text-anchor="start" x="880" y="-370.4" font-family="Helvetica,sans-Serif" font-size="11.00" fill="#000000">char[36]</text>
<polygon fill="#ffffff" stroke="transparent" points="674,-340.7 674,-362.7 877,-362.7 877,-340.7 674,-340.7"/>
<polygon fill="none" stroke="#000000" points="674,-340.7 674,-362.7 877,-362.7 877,-340.7 674,-340.7"/>
<image xlink:href="../../images/foreignKeys.png" width="11px" height="12px" preserveAspectRatio="xMinYMin meet" x="679" y="-357.7"/>
<text text-anchor="start" x="694" y="-347.8" font-family="Helvetica,sans-Serif" font-size="11.00" fill="#000000">parent_id</text>
<polygon fill="none" stroke="#000000" points="877,-340.7 877,-362.7 944,-362.7 944,-340.7 877,-340.7"/>
<text text-anchor="start" x="880" y="-348.4" font-family="Helvetica,sans-Serif" font-size="11.00" fill="#000000">char[36]</text>
<polygon fill="none" stroke="#000000" points="674,-318.7 674,-340.7 877,-340.7 877,-318.7 674,-318.7"/>
<text text-anchor="start" x="694" y="-325.8" font-family="Helvetica,sans-Serif" font-size="11.00" fill="#000000">date_created</text>
<polygon fill="none" stroke="#000000" points="877,-318.7 877,-340.7 944,-340.7 944,-318.7 877,-318.7"/>
<text text-anchor="start" x="880" y="-326.4" font-family="Helvetica,sans-Serif" font-size="11.00" fill="#000000">datetime[26]</text>
<polygon fill="none" stroke="#000000" points="674,-296.7 674,-318.7 877,-318.7 877,-296.7 674,-296.7"/>
<text text-anchor="start" x="694" y="-303.8" font-family="Helvetica,sans-Serif" font-size="11.00" fill="#000000">created_by</text>
<polygon fill="none" stroke="#000000" points="877,-296.7 877,-318.7 944,-318.7 944,-296.7 877,-296.7"/>
<text text-anchor="start" x="880" y="-304.4" font-family="Helvetica,sans-Serif" font-size="11.00" fill="#000000">varchar[36]</text>
<polygon fill="none" stroke="#000000" points="674,-274.7 674,-296.7 877,-296.7 877,-274.7 674,-274.7"/>
<text text-anchor="start" x="694" y="-281.8" font-family="Helvetica,sans-Serif" font-size="11.00" fill="#000000">field_name</text>
<polygon fill="none" stroke="#000000" points="877,-274.7 877,-296.7 944,-296.7 944,-274.7 877,-274.7"/>
<text text-anchor="start" x="879.9365" y="-282.4" font-family="Helvetica,sans-Serif" font-size="11.00" fill="#000000">varchar[100]</text>
<polygon fill="none" stroke="#000000" points="674,-252.7 674,-274.7 877,-274.7 877,-252.7 674,-252.7"/>
<text text-anchor="start" x="694" y="-259.8" font-family="Helvetica,sans-Serif" font-size="11.00" fill="#000000">data_type</text>
<polygon fill="none" stroke="#000000" points="877,-252.7 877,-274.7 944,-274.7 944,-252.7 877,-252.7"/>
<text text-anchor="start" x="879.9365" y="-260.4" font-family="Helvetica,sans-Serif" font-size="11.00" fill="#000000">varchar[100]</text>
<polygon fill="none" stroke="#000000" points="674,-230.7 674,-252.7 877,-252.7 877,-230.7 674,-230.7"/>
<text text-anchor="start" x="694" y="-237.8" font-family="Helvetica,sans-Serif" font-size="11.00" fill="#000000">before_value_string</text>
<polygon fill="none" stroke="#000000" points="877,-230.7 877,-252.7 944,-252.7 944,-230.7 877,-230.7"/>
<text text-anchor="start" x="879.9365" y="-238.4" font-family="Helvetica,sans-Serif" font-size="11.00" fill="#000000">varchar[255]</text>
<polygon fill="none" stroke="#000000" points="674,-208.7 674,-230.7 877,-230.7 877,-208.7 674,-208.7"/>
<text text-anchor="start" x="694" y="-215.8" font-family="Helvetica,sans-Serif" font-size="11.00" fill="#000000">after_value_string</text>
<polygon fill="none" stroke="#000000" points="877,-208.7 877,-230.7 944,-230.7 944,-208.7 877,-208.7"/>
<text text-anchor="start" x="879.9365" y="-216.4" font-family="Helvetica,sans-Serif" font-size="11.00" fill="#000000">varchar[255]</text>
<polygon fill="none" stroke="#000000" points="674,-186.7 674,-208.7 877,-208.7 877,-186.7 674,-186.7"/>
<text text-anchor="start" x="694" y="-193.8" font-family="Helvetica,sans-Serif" font-size="11.00" fill="#000000">before_value_text</text>
<polygon fill="none" stroke="#000000" points="877,-186.7 877,-208.7 944,-208.7 944,-186.7 877,-186.7"/>
<text text-anchor="start" x="880" y="-194.4" font-family="Helvetica,sans-Serif" font-size="11.00" fill="#000000">text[65535]</text>
<polygon fill="none" stroke="#000000" points="674,-164.7 674,-186.7 877,-186.7 877,-164.7 674,-164.7"/>
<text text-anchor="start" x="694" y="-171.8" font-family="Helvetica,sans-Serif" font-size="11.00" fill="#000000">after_value_text</text>
<polygon fill="none" stroke="#000000" points="877,-164.7 877,-186.7 944,-186.7 944,-164.7 877,-164.7"/>
<text text-anchor="start" x="880" y="-172.4" font-family="Helvetica,sans-Serif" font-size="11.00" fill="#000000">text[65535]</text>
<polygon fill="#ffffff" stroke="transparent" points="674,-145.7 674,-164.7 780,-164.7 780,-145.7 674,-145.7"/>
<polygon fill="none" stroke="#000000" points="674,-145.7 674,-164.7 780,-164.7 780,-145.7 674,-145.7"/>
<text text-anchor="start" x="677" y="-151.8" font-family="Helvetica,sans-Serif" font-size="11.00" fill="#000000">&lt; 1</text>
<polygon fill="#ffffff" stroke="transparent" points="780,-145.7 780,-164.7 877,-164.7 877,-145.7 780,-145.7"/>
<polygon fill="none" stroke="#000000" points="780,-145.7 780,-164.7 877,-164.7 877,-145.7 780,-145.7"/>
<text text-anchor="start" x="867.8862" y="-151.8" font-family="Helvetica,sans-Serif" font-size="11.00" fill="#000000"> &#160;</text>
<polygon fill="#ffffff" stroke="transparent" points="877,-145.7 877,-164.7 944,-164.7 944,-145.7 877,-145.7"/>
<polygon fill="none" stroke="#000000" points="877,-145.7 877,-164.7 944,-164.7 944,-145.7 877,-145.7"/>
<text text-anchor="start" x="925.4053" y="-151.8" font-family="Helvetica,sans-Serif" font-size="11.00" fill="#000000">0 &gt;</text>
<polygon fill="none" stroke="#000000" stroke-width="2" points="673,-144.7 673,-408.7 945,-408.7 945,-144.7 673,-144.7"/>
</a>
</g>
</g>
<!-- aos_products_quotes_audit&#45;&gt;aos_products_quotes -->
<g id="edge9" class="edge">
<title>aos_products_quotes_audit:w&#45;&gt;aos_products_quotes:e</title>
<path fill="none" stroke="#000000" d="M659.276,-351.7C647.2815,-351.7 639.8229,-351.7 623,-351.7"/>
<polygon fill="#000000" stroke="#000000" points="666,-351.7001 674,-355.3 670,-351.7 674,-351.7 674,-351.7 674,-351.7 670,-351.7 674,-348.1 666,-351.7001 666,-351.7001"/>
<ellipse fill="none" stroke="#000000" cx="662.8" cy="-351.7001" rx="3.2" ry="3.2"/>
</g>
</g>
</svg>
