<?xml version="1.0" encoding="UTF-8" standalone="no"?>
<!DOCTYPE svg PUBLIC "-//W3C//DTD SVG 1.1//EN"
 "http://www.w3.org/Graphics/SVG/1.1/DTD/svg11.dtd">
<!-- Generated by graphviz version 2.40.1 (20161225.0304)
 -->
<!-- Title: oneDegreeRelationshipsDiagram Pages: 1 -->
<svg width="575pt" height="435pt"
 viewBox="0.00 0.00 575.00 435.20" xmlns="http://www.w3.org/2000/svg" xmlns:xlink="http://www.w3.org/1999/xlink">
<g id="graph0" class="graph" transform="scale(1 1) rotate(0) translate(4 431.2)">
<title>oneDegreeRelationshipsDiagram</title>
<polygon fill="#ffffff" stroke="transparent" points="-4,4 -4,-431.2 571,-431.2 571,4 -4,4"/>
<text text-anchor="middle" x="72.4936" y="-7.3" font-family="Helvetica,sans-Serif" font-size="11.00" fill="#000000">Generated by SchemaSpy</text>
<!-- aos_quotes_project_c -->
<g id="node1" class="node">
<title>aos_quotes_project_c</title>
<g id="a_node1"><a xlink:href="../../tables/aos_quotes_project_c.html" xlink:title="aos_quotes_project_c" target="_top">
<polygon fill="#ffffff" stroke="transparent" points="280,-227.7 280,-383.7 559,-383.7 559,-227.7 280,-227.7"/>
<polygon fill="#f5f5f5" stroke="transparent" points="282.5,-358.7 282.5,-381.7 557.5,-381.7 557.5,-358.7 282.5,-358.7"/>
<polygon fill="none" stroke="#000000" points="282.5,-358.7 282.5,-381.7 557.5,-381.7 557.5,-358.7 282.5,-358.7"/>
<text text-anchor="start" x="287.5" y="-367.8" font-family="Helvetica,sans-Serif" font-weight="bold" font-size="11.00" fill="#000000">aos_quotes_project_c</text>
<text text-anchor="start" x="522.5437" y="-366.8" font-family="Helvetica,sans-Serif" font-size="11.00" fill="#000000">[table]</text>
<polygon fill="none" stroke="#000000" points="282.5,-336.7 282.5,-358.7 491.5,-358.7 491.5,-336.7 282.5,-336.7"/>
<image xlink:href="../../images/primaryKeys.png" width="11px" height="12px" preserveAspectRatio="xMinYMin meet" x="287.5" y="-353.7"/>
<text text-anchor="start" x="302.5" y="-343.8" font-family="Helvetica,sans-Serif" font-size="11.00" fill="#000000">id</text>
<polygon fill="none" stroke="#000000" points="491.5,-336.7 491.5,-358.7 557.5,-358.7 557.5,-336.7 491.5,-336.7"/>
<text text-anchor="start" x="494.5" y="-344.4" font-family="Helvetica,sans-Serif" font-size="11.00" fill="#000000">varchar[36]</text>
<polygon fill="none" stroke="#000000" points="282.5,-314.7 282.5,-336.7 491.5,-336.7 491.5,-314.7 282.5,-314.7"/>
<text text-anchor="start" x="302.5" y="-321.8" font-family="Helvetica,sans-Serif" font-size="11.00" fill="#000000">date_modified</text>
<polygon fill="none" stroke="#000000" points="491.5,-314.7 491.5,-336.7 557.5,-336.7 557.5,-314.7 491.5,-314.7"/>
<text text-anchor="start" x="494.2401" y="-322.4" font-family="Helvetica,sans-Serif" font-size="11.00" fill="#000000">datetime[26]</text>
<polygon fill="none" stroke="#000000" points="282.5,-292.7 282.5,-314.7 491.5,-314.7 491.5,-292.7 282.5,-292.7"/>
<text text-anchor="start" x="302.5" y="-299.8" font-family="Helvetica,sans-Serif" font-size="11.00" fill="#000000">deleted</text>
<polygon fill="none" stroke="#000000" points="491.5,-292.7 491.5,-314.7 557.5,-314.7 557.5,-292.7 491.5,-292.7"/>
<text text-anchor="start" x="494.5" y="-300.4" font-family="Helvetica,sans-Serif" font-size="11.00" fill="#000000">bit[1]</text>
<polygon fill="#ffffff" stroke="transparent" points="282.5,-270.7 282.5,-292.7 491.5,-292.7 491.5,-270.7 282.5,-270.7"/>
<polygon fill="none" stroke="#000000" points="282.5,-270.7 282.5,-292.7 491.5,-292.7 491.5,-270.7 282.5,-270.7"/>
<image xlink:href="../../images/foreignKeys.png" width="11px" height="12px" preserveAspectRatio="xMinYMin meet" x="287.5" y="-287.7"/>
<text text-anchor="start" x="302.5" y="-277.8" font-family="Helvetica,sans-Serif" font-size="11.00" fill="#000000">aos_quotes1112_quotes_ida</text>
<polygon fill="none" stroke="#000000" points="491.5,-270.7 491.5,-292.7 557.5,-292.7 557.5,-270.7 491.5,-270.7"/>
<text text-anchor="start" x="494.5" y="-278.4" font-family="Helvetica,sans-Serif" font-size="11.00" fill="#000000">varchar[36]</text>
<polygon fill="#ffffff" stroke="transparent" points="282.5,-248.7 282.5,-270.7 491.5,-270.7 491.5,-248.7 282.5,-248.7"/>
<polygon fill="none" stroke="#000000" points="282.5,-248.7 282.5,-270.7 491.5,-270.7 491.5,-248.7 282.5,-248.7"/>
<image xlink:href="../../images/foreignKeys.png" width="11px" height="12px" preserveAspectRatio="xMinYMin meet" x="287.5" y="-265.7"/>
<text text-anchor="start" x="302.5" y="-255.8" font-family="Helvetica,sans-Serif" font-size="11.00" fill="#000000">aos_quotes7207project_idb</text>
<polygon fill="none" stroke="#000000" points="491.5,-248.7 491.5,-270.7 557.5,-270.7 557.5,-248.7 491.5,-248.7"/>
<text text-anchor="start" x="494.5" y="-256.4" font-family="Helvetica,sans-Serif" font-size="11.00" fill="#000000">varchar[36]</text>
<polygon fill="#ffffff" stroke="transparent" points="282.5,-229.7 282.5,-248.7 391.5,-248.7 391.5,-229.7 282.5,-229.7"/>
<polygon fill="none" stroke="#000000" points="282.5,-229.7 282.5,-248.7 391.5,-248.7 391.5,-229.7 282.5,-229.7"/>
<text text-anchor="start" x="285.5" y="-235.8" font-family="Helvetica,sans-Serif" font-size="11.00" fill="#000000">&lt; 2</text>
<polygon fill="#ffffff" stroke="transparent" points="391.5,-229.7 391.5,-248.7 491.5,-248.7 491.5,-229.7 391.5,-229.7"/>
<polygon fill="none" stroke="#000000" points="391.5,-229.7 391.5,-248.7 491.5,-248.7 491.5,-229.7 391.5,-229.7"/>
<text text-anchor="start" x="482.3862" y="-235.8" font-family="Helvetica,sans-Serif" font-size="11.00" fill="#000000"> &#160;</text>
<polygon fill="#ffffff" stroke="transparent" points="491.5,-229.7 491.5,-248.7 557.5,-248.7 557.5,-229.7 491.5,-229.7"/>
<polygon fill="none" stroke="#000000" points="491.5,-229.7 491.5,-248.7 557.5,-248.7 557.5,-229.7 491.5,-229.7"/>
<text text-anchor="start" x="538.9053" y="-235.8" font-family="Helvetica,sans-Serif" font-size="11.00" fill="#000000">0 &gt;</text>
<polygon fill="none" stroke="#000000" stroke-width="2" points="281,-228.7 281,-382.7 558,-382.7 558,-228.7 281,-228.7"/>
</a>
</g>
</g>
<!-- aos_quotes -->
<g id="node2" class="node">
<title>aos_quotes</title>
<g id="a_node2"><a xlink:href="../../tables/aos_quotes.html" xlink:title="aos_quotes" target="_top">
<polygon fill="#ffffff" stroke="transparent" points="8,-208.2 8,-423.2 231,-423.2 231,-208.2 8,-208.2"/>
<polygon fill="#f5f5f5" stroke="transparent" points="8.5,-399.7 8.5,-422.7 231.5,-422.7 231.5,-399.7 8.5,-399.7"/>
<polygon fill="none" stroke="#000000" points="8.5,-399.7 8.5,-422.7 231.5,-422.7 231.5,-399.7 8.5,-399.7"/>
<text text-anchor="start" x="13.5" y="-408.8" font-family="Helvetica,sans-Serif" font-weight="bold" font-size="11.00" fill="#000000">aos_quotes</text>
<text text-anchor="start" x="196.5437" y="-407.8" font-family="Helvetica,sans-Serif" font-size="11.00" fill="#000000">[table]</text>
<polygon fill="none" stroke="#000000" points="8.5,-377.7 8.5,-399.7 231.5,-399.7 231.5,-377.7 8.5,-377.7"/>
<image xlink:href="../../images/primaryKeys.png" width="11px" height="12px" preserveAspectRatio="xMinYMin meet" x="13.5" y="-394.7"/>
<text text-anchor="start" x="28.5" y="-384.8" font-family="Helvetica,sans-Serif" font-size="11.00" fill="#000000">id</text>
<polygon fill="#c0c0c0" stroke="transparent" points="8.5,-355.7 8.5,-377.7 231.5,-377.7 231.5,-355.7 8.5,-355.7"/>
<polygon fill="none" stroke="#000000" points="8.5,-355.7 8.5,-377.7 231.5,-377.7 231.5,-355.7 8.5,-355.7"/>
<image xlink:href="../../images/foreignKeys.png" width="11px" height="12px" preserveAspectRatio="xMinYMin meet" x="13.5" y="-372.7"/>
<text text-anchor="start" x="28.5" y="-362.8" font-family="Helvetica,sans-Serif" font-size="11.00" fill="#000000">modified_user_id</text>
<polygon fill="#c0c0c0" stroke="transparent" points="8.5,-333.7 8.5,-355.7 231.5,-355.7 231.5,-333.7 8.5,-333.7"/>
<polygon fill="none" stroke="#000000" points="8.5,-333.7 8.5,-355.7 231.5,-355.7 231.5,-333.7 8.5,-333.7"/>
<image xlink:href="../../images/foreignKeys.png" width="11px" height="12px" preserveAspectRatio="xMinYMin meet" x="13.5" y="-350.7"/>
<text text-anchor="start" x="28.5" y="-340.8" font-family="Helvetica,sans-Serif" font-size="11.00" fill="#000000">created_by</text>
<polygon fill="#c0c0c0" stroke="transparent" points="8.5,-311.7 8.5,-333.7 231.5,-333.7 231.5,-311.7 8.5,-311.7"/>
<polygon fill="none" stroke="#000000" points="8.5,-311.7 8.5,-333.7 231.5,-333.7 231.5,-311.7 8.5,-311.7"/>
<image xlink:href="../../images/foreignKeys.png" width="11px" height="12px" preserveAspectRatio="xMinYMin meet" x="13.5" y="-328.7"/>
<text text-anchor="start" x="28.5" y="-318.8" font-family="Helvetica,sans-Serif" font-size="11.00" fill="#000000">assigned_user_id</text>
<polygon fill="none" stroke="#000000" points="8.5,-289.7 8.5,-311.7 231.5,-311.7 231.5,-289.7 8.5,-289.7"/>
<image xlink:href="../../images/foreignKeys.png" width="11px" height="12px" preserveAspectRatio="xMinYMin meet" x="13.5" y="-306.7"/>
<text text-anchor="start" x="28.5" y="-296.8" font-family="Helvetica,sans-Serif" font-size="11.00" fill="#000000">billing_account_id</text>
<polygon fill="none" stroke="#000000" points="8.5,-267.7 8.5,-289.7 231.5,-289.7 231.5,-267.7 8.5,-267.7"/>
<image xlink:href="../../images/foreignKeys.png" width="11px" height="12px" preserveAspectRatio="xMinYMin meet" x="13.5" y="-284.7"/>
<text text-anchor="start" x="28.5" y="-274.8" font-family="Helvetica,sans-Serif" font-size="11.00" fill="#000000">billing_contact_id</text>
<polygon fill="none" stroke="#000000" points="8.5,-245.7 8.5,-267.7 231.5,-267.7 231.5,-245.7 8.5,-245.7"/>
<image xlink:href="../../images/foreignKeys.png" width="11px" height="12px" preserveAspectRatio="xMinYMin meet" x="13.5" y="-262.7"/>
<text text-anchor="start" x="28.5" y="-252.8" font-family="Helvetica,sans-Serif" font-size="11.00" fill="#000000">opportunity_id</text>
<polygon fill="none" stroke="#000000" points="8.5,-226.7 8.5,-245.7 231.5,-245.7 231.5,-226.7 8.5,-226.7"/>
<text text-anchor="start" x="11.5" y="-232.8" font-family="Helvetica,sans-Serif" font-size="11.00" fill="#000000">...</text>
<polygon fill="#ffffff" stroke="transparent" points="8.5,-207.7 8.5,-226.7 113.5,-226.7 113.5,-207.7 8.5,-207.7"/>
<polygon fill="none" stroke="#000000" points="8.5,-207.7 8.5,-226.7 113.5,-226.7 113.5,-207.7 8.5,-207.7"/>
<text text-anchor="start" x="11.5" y="-213.8" font-family="Helvetica,sans-Serif" font-size="11.00" fill="#000000">&lt; 6</text>
<polygon fill="#ffffff" stroke="transparent" points="113.5,-207.7 113.5,-226.7 167.5,-226.7 167.5,-207.7 113.5,-207.7"/>
<polygon fill="none" stroke="#000000" points="113.5,-207.7 113.5,-226.7 167.5,-226.7 167.5,-207.7 113.5,-207.7"/>
<text text-anchor="start" x="158.3862" y="-213.8" font-family="Helvetica,sans-Serif" font-size="11.00" fill="#000000"> &#160;</text>
<polygon fill="#ffffff" stroke="transparent" points="167.5,-207.7 167.5,-226.7 231.5,-226.7 231.5,-207.7 167.5,-207.7"/>
<polygon fill="none" stroke="#000000" points="167.5,-207.7 167.5,-226.7 231.5,-226.7 231.5,-207.7 167.5,-207.7"/>
<text text-anchor="start" x="212.9053" y="-213.8" font-family="Helvetica,sans-Serif" font-size="11.00" fill="#000000">7 &gt;</text>
</a>
</g>
</g>
<!-- aos_quotes_project_c&#45;&gt;aos_quotes -->
<g id="edge1" class="edge">
<title>aos_quotes_project_c:w&#45;&gt;aos_quotes:e</title>
<path fill="none" stroke="#000000" d="M268.4064,-285.5082C240.7616,-304.5691 278.2134,-388.7 231.5,-388.7"/>
<polygon fill="#000000" stroke="#000000" points="274.777,-283.7869 283.4391,-285.1754 278.6385,-282.7434 282.5,-281.7 282.5,-281.7 282.5,-281.7 278.6385,-282.7434 281.5609,-278.2246 274.777,-283.7869 274.777,-283.7869"/>
<ellipse fill="none" stroke="#000000" cx="271.6878" cy="-284.6216" rx="3.2" ry="3.2"/>
</g>
<!-- project -->
<g id="node3" class="node">
<title>project</title>
<g id="a_node3"><a xlink:href="../../tables/project.html" xlink:title="project" target="_top">
<polygon fill="#ffffff" stroke="transparent" points="26,-38.2 26,-187.2 213,-187.2 213,-38.2 26,-38.2"/>
<polygon fill="#f5f5f5" stroke="transparent" points="26.5,-163.7 26.5,-186.7 213.5,-186.7 213.5,-163.7 26.5,-163.7"/>
<polygon fill="none" stroke="#000000" points="26.5,-163.7 26.5,-186.7 213.5,-186.7 213.5,-163.7 26.5,-163.7"/>
<text text-anchor="start" x="31.5" y="-172.8" font-family="Helvetica,sans-Serif" font-weight="bold" font-size="11.00" fill="#000000">project</text>
<text text-anchor="start" x="178.5437" y="-171.8" font-family="Helvetica,sans-Serif" font-size="11.00" fill="#000000">[table]</text>
<polygon fill="none" stroke="#000000" points="26.5,-141.7 26.5,-163.7 213.5,-163.7 213.5,-141.7 26.5,-141.7"/>
<image xlink:href="../../images/primaryKeys.png" width="11px" height="12px" preserveAspectRatio="xMinYMin meet" x="31.5" y="-158.7"/>
<text text-anchor="start" x="46.5" y="-148.8" font-family="Helvetica,sans-Serif" font-size="11.00" fill="#000000">id</text>
<polygon fill="#c0c0c0" stroke="transparent" points="26.5,-119.7 26.5,-141.7 213.5,-141.7 213.5,-119.7 26.5,-119.7"/>
<polygon fill="none" stroke="#000000" points="26.5,-119.7 26.5,-141.7 213.5,-141.7 213.5,-119.7 26.5,-119.7"/>
<image xlink:href="../../images/foreignKeys.png" width="11px" height="12px" preserveAspectRatio="xMinYMin meet" x="31.5" y="-136.7"/>
<text text-anchor="start" x="46.5" y="-126.8" font-family="Helvetica,sans-Serif" font-size="11.00" fill="#000000">assigned_user_id</text>
<polygon fill="#c0c0c0" stroke="transparent" points="26.5,-97.7 26.5,-119.7 213.5,-119.7 213.5,-97.7 26.5,-97.7"/>
<polygon fill="none" stroke="#000000" points="26.5,-97.7 26.5,-119.7 213.5,-119.7 213.5,-97.7 26.5,-97.7"/>
<image xlink:href="../../images/foreignKeys.png" width="11px" height="12px" preserveAspectRatio="xMinYMin meet" x="31.5" y="-114.7"/>
<text text-anchor="start" x="46.5" y="-104.8" font-family="Helvetica,sans-Serif" font-size="11.00" fill="#000000">modified_user_id</text>
<polygon fill="#c0c0c0" stroke="transparent" points="26.5,-75.7 26.5,-97.7 213.5,-97.7 213.5,-75.7 26.5,-75.7"/>
<polygon fill="none" stroke="#000000" points="26.5,-75.7 26.5,-97.7 213.5,-97.7 213.5,-75.7 26.5,-75.7"/>
<image xlink:href="../../images/foreignKeys.png" width="11px" height="12px" preserveAspectRatio="xMinYMin meet" x="31.5" y="-92.7"/>
<text text-anchor="start" x="46.5" y="-82.8" font-family="Helvetica,sans-Serif" font-size="11.00" fill="#000000">created_by</text>
<polygon fill="none" stroke="#000000" points="26.5,-56.7 26.5,-75.7 213.5,-75.7 213.5,-56.7 26.5,-56.7"/>
<text text-anchor="start" x="29.5" y="-62.8" font-family="Helvetica,sans-Serif" font-size="11.00" fill="#000000">...</text>
<polygon fill="#ffffff" stroke="transparent" points="26.5,-37.7 26.5,-56.7 110.5,-56.7 110.5,-37.7 26.5,-37.7"/>
<polygon fill="none" stroke="#000000" points="26.5,-37.7 26.5,-56.7 110.5,-56.7 110.5,-37.7 26.5,-37.7"/>
<text text-anchor="start" x="29.5" y="-43.8" font-family="Helvetica,sans-Serif" font-size="11.00" fill="#000000">&lt; 4</text>
<polygon fill="#ffffff" stroke="transparent" points="110.5,-37.7 110.5,-56.7 154.5,-56.7 154.5,-37.7 110.5,-37.7"/>
<polygon fill="none" stroke="#000000" points="110.5,-37.7 110.5,-56.7 154.5,-56.7 154.5,-37.7 110.5,-37.7"/>
<text text-anchor="start" x="145.3862" y="-43.8" font-family="Helvetica,sans-Serif" font-size="11.00" fill="#000000"> &#160;</text>
<polygon fill="#ffffff" stroke="transparent" points="154.5,-37.7 154.5,-56.7 213.5,-56.7 213.5,-37.7 154.5,-37.7"/>
<polygon fill="none" stroke="#000000" points="154.5,-37.7 154.5,-56.7 213.5,-56.7 213.5,-37.7 154.5,-37.7"/>
<text text-anchor="start" x="188.7904" y="-43.8" font-family="Helvetica,sans-Serif" font-size="11.00" fill="#000000">18 &gt;</text>
</a>
</g>
</g>
<!-- aos_quotes_project_c&#45;&gt;project -->
<g id="edge2" class="edge">
<title>aos_quotes_project_c:w&#45;&gt;project:e</title>
<path fill="none" stroke="#000000" d="M268.1658,-256.6131C233.8471,-239.0693 264.339,-152.7 213.5,-152.7"/>
<polygon fill="#000000" stroke="#000000" points="274.6793,-258.0157 281.7421,-263.2193 278.5896,-258.8579 282.5,-259.7 282.5,-259.7 282.5,-259.7 278.5896,-258.8579 283.2579,-256.1807 274.6793,-258.0157 274.6793,-258.0157"/>
<ellipse fill="none" stroke="#000000" cx="271.551" cy="-257.342" rx="3.2" ry="3.2"/>
</g>
</g>
</svg>
