<?xml version="1.0" encoding="UTF-8" standalone="no"?>
<!DOCTYPE svg PUBLIC "-//W3C//DTD SVG 1.1//EN"
 "http://www.w3.org/Graphics/SVG/1.1/DTD/svg11.dtd">
<!-- Generated by graphviz version 2.40.1 (20161225.0304)
 -->
<!-- Title: oneDegreeRelationshipsDiagram Pages: 1 -->
<svg width="1085pt" height="785pt"
 viewBox="0.00 0.00 1085.00 784.67" xmlns="http://www.w3.org/2000/svg" xmlns:xlink="http://www.w3.org/1999/xlink">
<g id="graph0" class="graph" transform="scale(1 1) rotate(0) translate(4 780.6678)">
<title>oneDegreeRelationshipsDiagram</title>
<polygon fill="#ffffff" stroke="transparent" points="-4,4 -4,-780.6678 1081,-780.6678 1081,4 -4,4"/>
<text text-anchor="middle" x="72.4936" y="-7.3" font-family="Helvetica,sans-Serif" font-size="11.00" fill="#000000">Generated by SchemaSpy</text>
<!-- aos_product_categories -->
<g id="node1" class="node">
<title>aos_product_categories</title>
<g id="a_node1"><a xlink:href="../../tables/aos_product_categories.html" xlink:title="aos_product_categories" target="_top">
<polygon fill="#ffffff" stroke="transparent" points="273,-254.6678 273,-425.6678 453,-425.6678 453,-254.6678 273,-254.6678"/>
<polygon fill="#f5f5f5" stroke="transparent" points="273,-402.1678 273,-425.1678 453,-425.1678 453,-402.1678 273,-402.1678"/>
<polygon fill="none" stroke="#000000" points="273,-402.1678 273,-425.1678 453,-425.1678 453,-402.1678 273,-402.1678"/>
<text text-anchor="start" x="278" y="-411.2678" font-family="Helvetica,sans-Serif" font-weight="bold" font-size="11.00" fill="#000000">aos_product_categories</text>
<text text-anchor="start" x="418.0437" y="-410.2678" font-family="Helvetica,sans-Serif" font-size="11.00" fill="#000000">[table]</text>
<polygon fill="none" stroke="#000000" points="273,-380.1678 273,-402.1678 453,-402.1678 453,-380.1678 273,-380.1678"/>
<image xlink:href="../../images/primaryKeys.png" width="11px" height="12px" preserveAspectRatio="xMinYMin meet" x="278" y="-397.168"/>
<text text-anchor="start" x="293" y="-387.2678" font-family="Helvetica,sans-Serif" font-size="11.00" fill="#000000">id</text>
<polygon fill="#c0c0c0" stroke="transparent" points="273,-358.1678 273,-380.1678 453,-380.1678 453,-358.1678 273,-358.1678"/>
<polygon fill="none" stroke="#000000" points="273,-358.1678 273,-380.1678 453,-380.1678 453,-358.1678 273,-358.1678"/>
<image xlink:href="../../images/foreignKeys.png" width="11px" height="12px" preserveAspectRatio="xMinYMin meet" x="278" y="-375.168"/>
<text text-anchor="start" x="293" y="-365.2678" font-family="Helvetica,sans-Serif" font-size="11.00" fill="#000000">modified_user_id</text>
<polygon fill="#c0c0c0" stroke="transparent" points="273,-336.1678 273,-358.1678 453,-358.1678 453,-336.1678 273,-336.1678"/>
<polygon fill="none" stroke="#000000" points="273,-336.1678 273,-358.1678 453,-358.1678 453,-336.1678 273,-336.1678"/>
<image xlink:href="../../images/foreignKeys.png" width="11px" height="12px" preserveAspectRatio="xMinYMin meet" x="278" y="-353.168"/>
<text text-anchor="start" x="293" y="-343.2678" font-family="Helvetica,sans-Serif" font-size="11.00" fill="#000000">created_by</text>
<polygon fill="#c0c0c0" stroke="transparent" points="273,-314.1678 273,-336.1678 453,-336.1678 453,-314.1678 273,-314.1678"/>
<polygon fill="none" stroke="#000000" points="273,-314.1678 273,-336.1678 453,-336.1678 453,-314.1678 273,-314.1678"/>
<image xlink:href="../../images/foreignKeys.png" width="11px" height="12px" preserveAspectRatio="xMinYMin meet" x="278" y="-331.168"/>
<text text-anchor="start" x="293" y="-321.2678" font-family="Helvetica,sans-Serif" font-size="11.00" fill="#000000">assigned_user_id</text>
<polygon fill="none" stroke="#000000" points="273,-292.1678 273,-314.1678 453,-314.1678 453,-292.1678 273,-292.1678"/>
<image xlink:href="../../images/foreignKeys.png" width="11px" height="12px" preserveAspectRatio="xMinYMin meet" x="278" y="-309.168"/>
<text text-anchor="start" x="293" y="-299.2678" font-family="Helvetica,sans-Serif" font-size="11.00" fill="#000000">parent_category_id</text>
<polygon fill="none" stroke="#000000" points="273,-273.1678 273,-292.1678 453,-292.1678 453,-273.1678 273,-273.1678"/>
<text text-anchor="start" x="276" y="-279.2678" font-family="Helvetica,sans-Serif" font-size="11.00" fill="#000000">...</text>
<polygon fill="#ffffff" stroke="transparent" points="273,-254.1678 273,-273.1678 357,-273.1678 357,-254.1678 273,-254.1678"/>
<polygon fill="none" stroke="#000000" points="273,-254.1678 273,-273.1678 357,-273.1678 357,-254.1678 273,-254.1678"/>
<text text-anchor="start" x="276" y="-260.2678" font-family="Helvetica,sans-Serif" font-size="11.00" fill="#000000">&lt; 4</text>
<polygon fill="#ffffff" stroke="transparent" points="357,-254.1678 357,-273.1678 400,-273.1678 400,-254.1678 357,-254.1678"/>
<polygon fill="none" stroke="#000000" points="357,-254.1678 357,-273.1678 400,-273.1678 400,-254.1678 357,-254.1678"/>
<text text-anchor="start" x="390.8862" y="-260.2678" font-family="Helvetica,sans-Serif" font-size="11.00" fill="#000000"> &#160;</text>
<polygon fill="#ffffff" stroke="transparent" points="400,-254.1678 400,-273.1678 453,-273.1678 453,-254.1678 400,-254.1678"/>
<polygon fill="none" stroke="#000000" points="400,-254.1678 400,-273.1678 453,-273.1678 453,-254.1678 400,-254.1678"/>
<text text-anchor="start" x="434.4053" y="-260.2678" font-family="Helvetica,sans-Serif" font-size="11.00" fill="#000000">4 &gt;</text>
</a>
</g>
</g>
<!-- users -->
<g id="node2" class="node">
<title>users</title>
<g id="a_node2"><a xlink:href="../../tables/users.html" xlink:title="users" target="_top">
<polygon fill="#ffffff" stroke="transparent" points="8,-296.6678 8,-511.6678 224,-511.6678 224,-296.6678 8,-296.6678"/>
<polygon fill="#f5f5f5" stroke="transparent" points="8,-488.1678 8,-511.1678 224,-511.1678 224,-488.1678 8,-488.1678"/>
<polygon fill="none" stroke="#000000" points="8,-488.1678 8,-511.1678 224,-511.1678 224,-488.1678 8,-488.1678"/>
<text text-anchor="start" x="13" y="-497.2678" font-family="Helvetica,sans-Serif" font-weight="bold" font-size="11.00" fill="#000000">users</text>
<text text-anchor="start" x="189.0437" y="-496.2678" font-family="Helvetica,sans-Serif" font-size="11.00" fill="#000000">[table]</text>
<polygon fill="none" stroke="#000000" points="8,-466.1678 8,-488.1678 224,-488.1678 224,-466.1678 8,-466.1678"/>
<image xlink:href="../../images/primaryKeys.png" width="11px" height="12px" preserveAspectRatio="xMinYMin meet" x="13" y="-483.168"/>
<text text-anchor="start" x="28" y="-473.2678" font-family="Helvetica,sans-Serif" font-size="11.00" fill="#000000">id</text>
<polygon fill="#ffffff" stroke="transparent" points="8,-444.1678 8,-466.1678 224,-466.1678 224,-444.1678 8,-444.1678"/>
<polygon fill="none" stroke="#000000" points="8,-444.1678 8,-466.1678 224,-466.1678 224,-444.1678 8,-444.1678"/>
<text text-anchor="start" x="28" y="-451.2678" font-family="Helvetica,sans-Serif" font-size="11.00" fill="#000000">user_name</text>
<polygon fill="#ffffff" stroke="transparent" points="8,-422.1678 8,-444.1678 224,-444.1678 224,-422.1678 8,-422.1678"/>
<polygon fill="none" stroke="#000000" points="8,-422.1678 8,-444.1678 224,-444.1678 224,-422.1678 8,-422.1678"/>
<text text-anchor="start" x="28" y="-429.2678" font-family="Helvetica,sans-Serif" font-size="11.00" fill="#000000">first_name</text>
<polygon fill="#ffffff" stroke="transparent" points="8,-400.1678 8,-422.1678 224,-422.1678 224,-400.1678 8,-400.1678"/>
<polygon fill="none" stroke="#000000" points="8,-400.1678 8,-422.1678 224,-422.1678 224,-400.1678 8,-400.1678"/>
<text text-anchor="start" x="28" y="-407.2678" font-family="Helvetica,sans-Serif" font-size="11.00" fill="#000000">last_name</text>
<polygon fill="#ffffff" stroke="transparent" points="8,-378.1678 8,-400.1678 224,-400.1678 224,-378.1678 8,-378.1678"/>
<polygon fill="none" stroke="#000000" points="8,-378.1678 8,-400.1678 224,-400.1678 224,-378.1678 8,-378.1678"/>
<text text-anchor="start" x="28" y="-385.2678" font-family="Helvetica,sans-Serif" font-size="11.00" fill="#000000">status</text>
<polygon fill="#c0c0c0" stroke="transparent" points="8,-356.1678 8,-378.1678 224,-378.1678 224,-356.1678 8,-356.1678"/>
<polygon fill="none" stroke="#000000" points="8,-356.1678 8,-378.1678 224,-378.1678 224,-356.1678 8,-356.1678"/>
<image xlink:href="../../images/foreignKeys.png" width="11px" height="12px" preserveAspectRatio="xMinYMin meet" x="13" y="-373.168"/>
<text text-anchor="start" x="28" y="-363.2678" font-family="Helvetica,sans-Serif" font-size="11.00" fill="#000000">reports_to_id</text>
<polygon fill="#ffffff" stroke="transparent" points="8,-334.1678 8,-356.1678 224,-356.1678 224,-334.1678 8,-334.1678"/>
<polygon fill="none" stroke="#000000" points="8,-334.1678 8,-356.1678 224,-356.1678 224,-334.1678 8,-334.1678"/>
<text text-anchor="start" x="28" y="-341.2678" font-family="Helvetica,sans-Serif" font-size="11.00" fill="#000000">is_group</text>
<polygon fill="none" stroke="#000000" points="8,-315.1678 8,-334.1678 224,-334.1678 224,-315.1678 8,-315.1678"/>
<text text-anchor="start" x="11" y="-321.2678" font-family="Helvetica,sans-Serif" font-size="11.00" fill="#000000">...</text>
<polygon fill="#ffffff" stroke="transparent" points="8,-296.1678 8,-315.1678 104,-315.1678 104,-296.1678 8,-296.1678"/>
<polygon fill="none" stroke="#000000" points="8,-296.1678 8,-315.1678 104,-315.1678 104,-296.1678 8,-296.1678"/>
<text text-anchor="start" x="11" y="-302.2678" font-family="Helvetica,sans-Serif" font-size="11.00" fill="#000000">&lt; 2</text>
<polygon fill="#ffffff" stroke="transparent" points="104,-296.1678 104,-315.1678 153,-315.1678 153,-296.1678 104,-296.1678"/>
<polygon fill="none" stroke="#000000" points="104,-296.1678 104,-315.1678 153,-315.1678 153,-296.1678 104,-296.1678"/>
<text text-anchor="start" x="143.8862" y="-302.2678" font-family="Helvetica,sans-Serif" font-size="11.00" fill="#000000"> &#160;</text>
<polygon fill="#ffffff" stroke="transparent" points="153,-296.1678 153,-315.1678 224,-315.1678 224,-296.1678 153,-296.1678"/>
<polygon fill="none" stroke="#000000" points="153,-296.1678 153,-315.1678 224,-315.1678 224,-296.1678 153,-296.1678"/>
<text text-anchor="start" x="193.1755" y="-302.2678" font-family="Helvetica,sans-Serif" font-size="11.00" fill="#000000">214 &gt;</text>
</a>
</g>
</g>
<!-- aos_product_categories&#45;&gt;users -->
<g id="edge1" class="edge">
<title>aos_product_categories:w&#45;&gt;users:e</title>
<path fill="none" stroke="#000000" d="M258.661,-328.0685C216.1687,-349.0825 289.1565,-477.1678 224,-477.1678"/>
<polygon fill="#000000" stroke="#000000" points="265.1588,-326.7541 273.7138,-328.6964 269.0794,-325.9609 273,-325.1678 273,-325.1678 273,-325.1678 269.0794,-325.9609 272.2862,-321.6393 265.1588,-326.7541 265.1588,-326.7541"/>
<ellipse fill="none" stroke="#000000" cx="262.0224" cy="-327.3886" rx="3.2" ry="3.2"/>
</g>
<!-- aos_product_categories&#45;&gt;users -->
<g id="edge2" class="edge">
<title>aos_product_categories:w&#45;&gt;users:e</title>
<path fill="none" stroke="#000000" d="M258.5544,-350.645C224.5041,-371.3187 279.7159,-477.1678 224,-477.1678"/>
<polygon fill="#000000" stroke="#000000" points="265.2222,-349.0401 273.8425,-350.6679 269.1111,-348.1039 273,-347.1678 273,-347.1678 273,-347.1678 269.1111,-348.1039 272.1575,-343.6678 265.2222,-349.0401 265.2222,-349.0401"/>
<ellipse fill="none" stroke="#000000" cx="262.111" cy="-349.789" rx="3.2" ry="3.2"/>
</g>
<!-- aos_product_categories&#45;&gt;users -->
<g id="edge3" class="edge">
<title>aos_product_categories:w&#45;&gt;users:e</title>
<path fill="none" stroke="#000000" d="M258.971,-373.0116C231.6726,-392.2506 270.7383,-477.1678 224,-477.1678"/>
<polygon fill="#000000" stroke="#000000" points="265.2844,-371.2819 273.9513,-372.6399 269.1422,-370.2248 273,-369.1678 273,-369.1678 273,-369.1678 269.1422,-370.2248 272.0487,-365.6958 265.2844,-371.2819 265.2844,-371.2819"/>
<ellipse fill="none" stroke="#000000" cx="262.1981" cy="-372.1275" rx="3.2" ry="3.2"/>
</g>
<!-- aos_products -->
<g id="node3" class="node">
<title>aos_products</title>
<g id="a_node3"><a xlink:href="../../tables/aos_products.html" xlink:title="aos_products" target="_top">
<polygon fill="#ffffff" stroke="transparent" points="502,-96.1678 502,-626.1678 764,-626.1678 764,-96.1678 502,-96.1678"/>
<polygon fill="#f5f5f5" stroke="transparent" points="504,-601.1678 504,-624.1678 762,-624.1678 762,-601.1678 504,-601.1678"/>
<polygon fill="none" stroke="#000000" points="504,-601.1678 504,-624.1678 762,-624.1678 762,-601.1678 504,-601.1678"/>
<text text-anchor="start" x="509" y="-610.2678" font-family="Helvetica,sans-Serif" font-weight="bold" font-size="11.00" fill="#000000">aos_products</text>
<text text-anchor="start" x="727.0437" y="-609.2678" font-family="Helvetica,sans-Serif" font-size="11.00" fill="#000000">[table]</text>
<polygon fill="none" stroke="#000000" points="504,-579.1678 504,-601.1678 691,-601.1678 691,-579.1678 504,-579.1678"/>
<image xlink:href="../../images/primaryKeys.png" width="11px" height="12px" preserveAspectRatio="xMinYMin meet" x="509" y="-596.168"/>
<text text-anchor="start" x="524" y="-586.2678" font-family="Helvetica,sans-Serif" font-size="11.00" fill="#000000">id</text>
<polygon fill="none" stroke="#000000" points="691,-579.1678 691,-601.1678 762,-601.1678 762,-579.1678 691,-579.1678"/>
<text text-anchor="start" x="694" y="-586.8678" font-family="Helvetica,sans-Serif" font-size="11.00" fill="#000000">char[36]</text>
<polygon fill="none" stroke="#000000" points="504,-557.1678 504,-579.1678 691,-579.1678 691,-557.1678 504,-557.1678"/>
<text text-anchor="start" x="524" y="-564.2678" font-family="Helvetica,sans-Serif" font-size="11.00" fill="#000000">name</text>
<polygon fill="none" stroke="#000000" points="691,-557.1678 691,-579.1678 762,-579.1678 762,-557.1678 691,-557.1678"/>
<text text-anchor="start" x="694" y="-564.8678" font-family="Helvetica,sans-Serif" font-size="11.00" fill="#000000">varchar[255]</text>
<polygon fill="none" stroke="#000000" points="504,-535.1678 504,-557.1678 691,-557.1678 691,-535.1678 504,-535.1678"/>
<text text-anchor="start" x="524" y="-542.2678" font-family="Helvetica,sans-Serif" font-size="11.00" fill="#000000">date_entered</text>
<polygon fill="none" stroke="#000000" points="691,-535.1678 691,-557.1678 762,-557.1678 762,-535.1678 691,-535.1678"/>
<text text-anchor="start" x="694" y="-542.8678" font-family="Helvetica,sans-Serif" font-size="11.00" fill="#000000">datetime[26]</text>
<polygon fill="none" stroke="#000000" points="504,-513.1678 504,-535.1678 691,-535.1678 691,-513.1678 504,-513.1678"/>
<text text-anchor="start" x="524" y="-520.2678" font-family="Helvetica,sans-Serif" font-size="11.00" fill="#000000">date_modified</text>
<polygon fill="none" stroke="#000000" points="691,-513.1678 691,-535.1678 762,-535.1678 762,-513.1678 691,-513.1678"/>
<text text-anchor="start" x="694" y="-520.8678" font-family="Helvetica,sans-Serif" font-size="11.00" fill="#000000">datetime[26]</text>
<polygon fill="none" stroke="#000000" points="504,-491.1678 504,-513.1678 691,-513.1678 691,-491.1678 504,-491.1678"/>
<image xlink:href="../../images/foreignKeys.png" width="11px" height="12px" preserveAspectRatio="xMinYMin meet" x="509" y="-508.168"/>
<text text-anchor="start" x="524" y="-498.2678" font-family="Helvetica,sans-Serif" font-size="11.00" fill="#000000">modified_user_id</text>
<polygon fill="none" stroke="#000000" points="691,-491.1678 691,-513.1678 762,-513.1678 762,-491.1678 691,-491.1678"/>
<text text-anchor="start" x="694" y="-498.8678" font-family="Helvetica,sans-Serif" font-size="11.00" fill="#000000">char[36]</text>
<polygon fill="none" stroke="#000000" points="504,-469.1678 504,-491.1678 691,-491.1678 691,-469.1678 504,-469.1678"/>
<image xlink:href="../../images/foreignKeys.png" width="11px" height="12px" preserveAspectRatio="xMinYMin meet" x="509" y="-486.168"/>
<text text-anchor="start" x="524" y="-476.2678" font-family="Helvetica,sans-Serif" font-size="11.00" fill="#000000">created_by</text>
<polygon fill="none" stroke="#000000" points="691,-469.1678 691,-491.1678 762,-491.1678 762,-469.1678 691,-469.1678"/>
<text text-anchor="start" x="694" y="-476.8678" font-family="Helvetica,sans-Serif" font-size="11.00" fill="#000000">char[36]</text>
<polygon fill="none" stroke="#000000" points="504,-447.1678 504,-469.1678 691,-469.1678 691,-447.1678 504,-447.1678"/>
<text text-anchor="start" x="524" y="-454.2678" font-family="Helvetica,sans-Serif" font-size="11.00" fill="#000000">description</text>
<polygon fill="none" stroke="#000000" points="691,-447.1678 691,-469.1678 762,-469.1678 762,-447.1678 691,-447.1678"/>
<text text-anchor="start" x="694" y="-454.8678" font-family="Helvetica,sans-Serif" font-size="11.00" fill="#000000">text[65535]</text>
<polygon fill="none" stroke="#000000" points="504,-425.1678 504,-447.1678 691,-447.1678 691,-425.1678 504,-425.1678"/>
<text text-anchor="start" x="524" y="-432.2678" font-family="Helvetica,sans-Serif" font-size="11.00" fill="#000000">deleted</text>
<polygon fill="none" stroke="#000000" points="691,-425.1678 691,-447.1678 762,-447.1678 762,-425.1678 691,-425.1678"/>
<text text-anchor="start" x="694" y="-432.8678" font-family="Helvetica,sans-Serif" font-size="11.00" fill="#000000">bit[1]</text>
<polygon fill="none" stroke="#000000" points="504,-403.1678 504,-425.1678 691,-425.1678 691,-403.1678 504,-403.1678"/>
<image xlink:href="../../images/foreignKeys.png" width="11px" height="12px" preserveAspectRatio="xMinYMin meet" x="509" y="-420.168"/>
<text text-anchor="start" x="524" y="-410.2678" font-family="Helvetica,sans-Serif" font-size="11.00" fill="#000000">assigned_user_id</text>
<polygon fill="none" stroke="#000000" points="691,-403.1678 691,-425.1678 762,-425.1678 762,-403.1678 691,-403.1678"/>
<text text-anchor="start" x="694" y="-410.8678" font-family="Helvetica,sans-Serif" font-size="11.00" fill="#000000">char[36]</text>
<polygon fill="none" stroke="#000000" points="504,-381.1678 504,-403.1678 691,-403.1678 691,-381.1678 504,-381.1678"/>
<text text-anchor="start" x="524" y="-388.2678" font-family="Helvetica,sans-Serif" font-size="11.00" fill="#000000">maincode</text>
<polygon fill="none" stroke="#000000" points="691,-381.1678 691,-403.1678 762,-403.1678 762,-381.1678 691,-381.1678"/>
<text text-anchor="start" x="694" y="-388.8678" font-family="Helvetica,sans-Serif" font-size="11.00" fill="#000000">varchar[100]</text>
<polygon fill="none" stroke="#000000" points="504,-359.1678 504,-381.1678 691,-381.1678 691,-359.1678 504,-359.1678"/>
<text text-anchor="start" x="524" y="-366.2678" font-family="Helvetica,sans-Serif" font-size="11.00" fill="#000000">part_number</text>
<polygon fill="none" stroke="#000000" points="691,-359.1678 691,-381.1678 762,-381.1678 762,-359.1678 691,-359.1678"/>
<text text-anchor="start" x="694" y="-366.8678" font-family="Helvetica,sans-Serif" font-size="11.00" fill="#000000">varchar[25]</text>
<polygon fill="none" stroke="#000000" points="504,-337.1678 504,-359.1678 691,-359.1678 691,-337.1678 504,-337.1678"/>
<text text-anchor="start" x="524" y="-344.2678" font-family="Helvetica,sans-Serif" font-size="11.00" fill="#000000">category</text>
<polygon fill="none" stroke="#000000" points="691,-337.1678 691,-359.1678 762,-359.1678 762,-337.1678 691,-337.1678"/>
<text text-anchor="start" x="694" y="-344.8678" font-family="Helvetica,sans-Serif" font-size="11.00" fill="#000000">varchar[100]</text>
<polygon fill="none" stroke="#000000" points="504,-315.1678 504,-337.1678 691,-337.1678 691,-315.1678 504,-315.1678"/>
<text text-anchor="start" x="524" y="-322.2678" font-family="Helvetica,sans-Serif" font-size="11.00" fill="#000000">type</text>
<polygon fill="none" stroke="#000000" points="691,-315.1678 691,-337.1678 762,-337.1678 762,-315.1678 691,-315.1678"/>
<text text-anchor="start" x="694" y="-322.8678" font-family="Helvetica,sans-Serif" font-size="11.00" fill="#000000">varchar[100]</text>
<polygon fill="none" stroke="#000000" points="504,-293.1678 504,-315.1678 691,-315.1678 691,-293.1678 504,-293.1678"/>
<text text-anchor="start" x="524" y="-300.2678" font-family="Helvetica,sans-Serif" font-size="11.00" fill="#000000">cost</text>
<polygon fill="none" stroke="#000000" points="691,-293.1678 691,-315.1678 762,-315.1678 762,-293.1678 691,-293.1678"/>
<text text-anchor="start" x="693.7981" y="-300.8678" font-family="Helvetica,sans-Serif" font-size="11.00" fill="#000000">decimal[26,6]</text>
<polygon fill="none" stroke="#000000" points="504,-271.1678 504,-293.1678 691,-293.1678 691,-271.1678 504,-271.1678"/>
<text text-anchor="start" x="524" y="-278.2678" font-family="Helvetica,sans-Serif" font-size="11.00" fill="#000000">cost_usdollar</text>
<polygon fill="none" stroke="#000000" points="691,-271.1678 691,-293.1678 762,-293.1678 762,-271.1678 691,-271.1678"/>
<text text-anchor="start" x="693.7981" y="-278.8678" font-family="Helvetica,sans-Serif" font-size="11.00" fill="#000000">decimal[26,6]</text>
<polygon fill="none" stroke="#000000" points="504,-249.1678 504,-271.1678 691,-271.1678 691,-249.1678 504,-249.1678"/>
<text text-anchor="start" x="524" y="-256.2678" font-family="Helvetica,sans-Serif" font-size="11.00" fill="#000000">currency_id</text>
<polygon fill="none" stroke="#000000" points="691,-249.1678 691,-271.1678 762,-271.1678 762,-249.1678 691,-249.1678"/>
<text text-anchor="start" x="694" y="-256.8678" font-family="Helvetica,sans-Serif" font-size="11.00" fill="#000000">char[36]</text>
<polygon fill="none" stroke="#000000" points="504,-227.1678 504,-249.1678 691,-249.1678 691,-227.1678 504,-227.1678"/>
<text text-anchor="start" x="524" y="-234.2678" font-family="Helvetica,sans-Serif" font-size="11.00" fill="#000000">price</text>
<polygon fill="none" stroke="#000000" points="691,-227.1678 691,-249.1678 762,-249.1678 762,-227.1678 691,-227.1678"/>
<text text-anchor="start" x="693.7981" y="-234.8678" font-family="Helvetica,sans-Serif" font-size="11.00" fill="#000000">decimal[26,6]</text>
<polygon fill="none" stroke="#000000" points="504,-205.1678 504,-227.1678 691,-227.1678 691,-205.1678 504,-205.1678"/>
<text text-anchor="start" x="524" y="-212.2678" font-family="Helvetica,sans-Serif" font-size="11.00" fill="#000000">price_usdollar</text>
<polygon fill="none" stroke="#000000" points="691,-205.1678 691,-227.1678 762,-227.1678 762,-205.1678 691,-205.1678"/>
<text text-anchor="start" x="693.7981" y="-212.8678" font-family="Helvetica,sans-Serif" font-size="11.00" fill="#000000">decimal[26,6]</text>
<polygon fill="none" stroke="#000000" points="504,-183.1678 504,-205.1678 691,-205.1678 691,-183.1678 504,-183.1678"/>
<text text-anchor="start" x="524" y="-190.2678" font-family="Helvetica,sans-Serif" font-size="11.00" fill="#000000">url</text>
<polygon fill="none" stroke="#000000" points="691,-183.1678 691,-205.1678 762,-205.1678 762,-183.1678 691,-183.1678"/>
<text text-anchor="start" x="694" y="-190.8678" font-family="Helvetica,sans-Serif" font-size="11.00" fill="#000000">varchar[255]</text>
<polygon fill="none" stroke="#000000" points="504,-161.1678 504,-183.1678 691,-183.1678 691,-161.1678 504,-161.1678"/>
<text text-anchor="start" x="524" y="-168.2678" font-family="Helvetica,sans-Serif" font-size="11.00" fill="#000000">contact_id</text>
<polygon fill="none" stroke="#000000" points="691,-161.1678 691,-183.1678 762,-183.1678 762,-161.1678 691,-161.1678"/>
<text text-anchor="start" x="694" y="-168.8678" font-family="Helvetica,sans-Serif" font-size="11.00" fill="#000000">char[36]</text>
<polygon fill="none" stroke="#000000" points="504,-139.1678 504,-161.1678 691,-161.1678 691,-139.1678 504,-139.1678"/>
<text text-anchor="start" x="524" y="-146.2678" font-family="Helvetica,sans-Serif" font-size="11.00" fill="#000000">product_image</text>
<polygon fill="none" stroke="#000000" points="691,-139.1678 691,-161.1678 762,-161.1678 762,-139.1678 691,-139.1678"/>
<text text-anchor="start" x="694" y="-146.8678" font-family="Helvetica,sans-Serif" font-size="11.00" fill="#000000">varchar[255]</text>
<polygon fill="none" stroke="#000000" points="504,-117.1678 504,-139.1678 691,-139.1678 691,-117.1678 504,-117.1678"/>
<image xlink:href="../../images/foreignKeys.png" width="11px" height="12px" preserveAspectRatio="xMinYMin meet" x="509" y="-134.168"/>
<text text-anchor="start" x="524" y="-124.2678" font-family="Helvetica,sans-Serif" font-size="11.00" fill="#000000">aos_product_category_id</text>
<polygon fill="none" stroke="#000000" points="691,-117.1678 691,-139.1678 762,-139.1678 762,-117.1678 691,-117.1678"/>
<text text-anchor="start" x="694" y="-124.8678" font-family="Helvetica,sans-Serif" font-size="11.00" fill="#000000">char[36]</text>
<polygon fill="#ffffff" stroke="transparent" points="504,-98.1678 504,-117.1678 602,-117.1678 602,-98.1678 504,-98.1678"/>
<polygon fill="none" stroke="#000000" points="504,-98.1678 504,-117.1678 602,-117.1678 602,-98.1678 504,-98.1678"/>
<text text-anchor="start" x="507" y="-104.2678" font-family="Helvetica,sans-Serif" font-size="11.00" fill="#000000">&lt; 4</text>
<polygon fill="#ffffff" stroke="transparent" points="602,-98.1678 602,-117.1678 691,-117.1678 691,-98.1678 602,-98.1678"/>
<polygon fill="none" stroke="#000000" points="602,-98.1678 602,-117.1678 691,-117.1678 691,-98.1678 602,-98.1678"/>
<text text-anchor="start" x="681.8862" y="-104.2678" font-family="Helvetica,sans-Serif" font-size="11.00" fill="#000000"> &#160;</text>
<polygon fill="#ffffff" stroke="transparent" points="691,-98.1678 691,-117.1678 762,-117.1678 762,-98.1678 691,-98.1678"/>
<polygon fill="none" stroke="#000000" points="691,-98.1678 691,-117.1678 762,-117.1678 762,-98.1678 691,-98.1678"/>
<text text-anchor="start" x="743.4053" y="-104.2678" font-family="Helvetica,sans-Serif" font-size="11.00" fill="#000000">3 &gt;</text>
<polygon fill="none" stroke="#000000" stroke-width="2" points="503,-97.1678 503,-625.1678 763,-625.1678 763,-97.1678 503,-97.1678"/>
</a>
</g>
</g>
<!-- aos_products&#45;&gt;aos_product_categories -->
<g id="edge4" class="edge">
<title>aos_products:w&#45;&gt;aos_product_categories:e</title>
<path fill="none" stroke="#000000" d="M489.4811,-129.7791C401.4668,-151.7563 566.6014,-391.1678 453,-391.1678"/>
<polygon fill="#000000" stroke="#000000" points="496.0488,-129.0503 504.3971,-131.7459 500.0244,-128.6091 504,-128.1678 504,-128.1678 504,-128.1678 500.0244,-128.6091 503.6029,-124.5898 496.0488,-129.0503 496.0488,-129.0503"/>
<ellipse fill="none" stroke="#000000" cx="492.8683" cy="-129.4033" rx="3.2" ry="3.2"/>
</g>
<!-- aos_products&#45;&gt;users -->
<g id="edge5" class="edge">
<title>aos_products:w&#45;&gt;users:e</title>
<path fill="none" stroke="#000000" d="M489.8335,-417.2757C480.3763,-422.1146 475.6709,-431.3892 461,-436.1678 377.1424,-463.4821 351.47,-449.8152 265,-467.1678 246.6102,-470.8583 242.7564,-477.1678 224,-477.1678"/>
<polygon fill="#000000" stroke="#000000" points="496.1858,-415.8821 504.7714,-417.6842 500.0929,-415.025 504,-414.1678 504,-414.1678 504,-414.1678 500.0929,-415.025 503.2286,-410.6514 496.1858,-415.8821 496.1858,-415.8821"/>
<ellipse fill="none" stroke="#000000" cx="493.0602" cy="-416.5678" rx="3.2" ry="3.2"/>
</g>
<!-- aos_products&#45;&gt;users -->
<g id="edge6" class="edge">
<title>aos_products:w&#45;&gt;users:e</title>
<path fill="none" stroke="#000000" d="M489.4882,-480.1538C376.9086,-479.9324 343.4687,-477.1678 224,-477.1678"/>
<polygon fill="#000000" stroke="#000000" points="496,-480.16 503.9965,-483.7678 500,-480.1639 504,-480.1678 504,-480.1678 504,-480.1678 500,-480.1639 504.0035,-476.5678 496,-480.16 496,-480.16"/>
<ellipse fill="none" stroke="#000000" cx="492.8" cy="-480.1569" rx="3.2" ry="3.2"/>
</g>
<!-- aos_products&#45;&gt;users -->
<g id="edge7" class="edge">
<title>aos_products:w&#45;&gt;users:e</title>
<path fill="none" stroke="#000000" d="M489.5405,-502.1851C394.8421,-502.4038 365.1161,-504.3569 265,-488.1678 246.3753,-485.1562 242.8667,-477.1678 224,-477.1678"/>
<polygon fill="#000000" stroke="#000000" points="496,-502.1775 504.0043,-505.7678 500,-502.1726 504,-502.1678 504,-502.1678 504,-502.1678 500,-502.1726 503.9957,-498.5678 496,-502.1775 496,-502.1775"/>
<ellipse fill="none" stroke="#000000" cx="492.8" cy="-502.1813" rx="3.2" ry="3.2"/>
</g>
<!-- aos_products_audit -->
<g id="node4" class="node">
<title>aos_products_audit</title>
<g id="a_node4"><a xlink:href="../../tables/aos_products_audit.html" xlink:title="aos_products_audit" target="_top">
<polygon fill="#ffffff" stroke="transparent" points="864,-387.6678 864,-492.6678 1018,-492.6678 1018,-387.6678 864,-387.6678"/>
<polygon fill="#f5f5f5" stroke="transparent" points="864,-469.1678 864,-492.1678 1018,-492.1678 1018,-469.1678 864,-469.1678"/>
<polygon fill="none" stroke="#000000" points="864,-469.1678 864,-492.1678 1018,-492.1678 1018,-469.1678 864,-469.1678"/>
<text text-anchor="start" x="869" y="-478.2678" font-family="Helvetica,sans-Serif" font-weight="bold" font-size="11.00" fill="#000000">aos_products_audit</text>
<text text-anchor="start" x="983.0437" y="-477.2678" font-family="Helvetica,sans-Serif" font-size="11.00" fill="#000000">[table]</text>
<polygon fill="none" stroke="#000000" points="864,-447.1678 864,-469.1678 1018,-469.1678 1018,-447.1678 864,-447.1678"/>
<image xlink:href="../../images/primaryKeys.png" width="11px" height="12px" preserveAspectRatio="xMinYMin meet" x="869" y="-464.168"/>
<text text-anchor="start" x="884" y="-454.2678" font-family="Helvetica,sans-Serif" font-size="11.00" fill="#000000">id</text>
<polygon fill="#c0c0c0" stroke="transparent" points="864,-425.1678 864,-447.1678 1018,-447.1678 1018,-425.1678 864,-425.1678"/>
<polygon fill="none" stroke="#000000" points="864,-425.1678 864,-447.1678 1018,-447.1678 1018,-425.1678 864,-425.1678"/>
<image xlink:href="../../images/foreignKeys.png" width="11px" height="12px" preserveAspectRatio="xMinYMin meet" x="869" y="-442.168"/>
<text text-anchor="start" x="884" y="-432.2678" font-family="Helvetica,sans-Serif" font-size="11.00" fill="#000000">parent_id</text>
<polygon fill="none" stroke="#000000" points="864,-406.1678 864,-425.1678 1018,-425.1678 1018,-406.1678 864,-406.1678"/>
<text text-anchor="start" x="867" y="-412.2678" font-family="Helvetica,sans-Serif" font-size="11.00" fill="#000000">...</text>
<polygon fill="#ffffff" stroke="transparent" points="864,-387.1678 864,-406.1678 939,-406.1678 939,-387.1678 864,-387.1678"/>
<polygon fill="none" stroke="#000000" points="864,-387.1678 864,-406.1678 939,-406.1678 939,-387.1678 864,-387.1678"/>
<text text-anchor="start" x="867" y="-393.2678" font-family="Helvetica,sans-Serif" font-size="11.00" fill="#000000">&lt; 1</text>
<polygon fill="#ffffff" stroke="transparent" points="939,-387.1678 939,-406.1678 978,-406.1678 978,-387.1678 939,-387.1678"/>
<polygon fill="none" stroke="#000000" points="939,-387.1678 939,-406.1678 978,-406.1678 978,-387.1678 939,-387.1678"/>
<text text-anchor="start" x="968.8862" y="-393.2678" font-family="Helvetica,sans-Serif" font-size="11.00" fill="#000000"> &#160;</text>
<polygon fill="#ffffff" stroke="transparent" points="978,-387.1678 978,-406.1678 1018,-406.1678 1018,-387.1678 978,-387.1678"/>
<polygon fill="none" stroke="#000000" points="978,-387.1678 978,-406.1678 1018,-406.1678 1018,-387.1678 978,-387.1678"/>
<text text-anchor="start" x="1008.8862" y="-393.2678" font-family="Helvetica,sans-Serif" font-size="11.00" fill="#000000"> &#160;</text>
</a>
</g>
</g>
<!-- aos_products_audit&#45;&gt;aos_products -->
<g id="edge8" class="edge">
<title>aos_products_audit:w&#45;&gt;aos_products:e</title>
<path fill="none" stroke="#000000" d="M849.592,-438.0897C824.6096,-445.7206 823.9854,-474.8442 805,-503.1678 780.9847,-538.9954 805.1317,-590.1678 762,-590.1678"/>
<polygon fill="#000000" stroke="#000000" points="856.0702,-437.2256 864.476,-439.7362 860.0351,-436.6967 864,-436.1678 864,-436.1678 864,-436.1678 860.0351,-436.6967 863.524,-432.5994 856.0702,-437.2256 856.0702,-437.2256"/>
<ellipse fill="none" stroke="#000000" cx="852.8983" cy="-437.6487" rx="3.2" ry="3.2"/>
</g>
<!-- aos_products_quotes -->
<g id="node5" class="node">
<title>aos_products_quotes</title>
<g id="a_node5"><a xlink:href="../../tables/aos_products_quotes.html" xlink:title="aos_products_quotes" target="_top">
<polygon fill="#ffffff" stroke="transparent" points="813,-513.6678 813,-772.6678 1069,-772.6678 1069,-513.6678 813,-513.6678"/>
<polygon fill="#f5f5f5" stroke="transparent" points="813,-749.1678 813,-772.1678 1069,-772.1678 1069,-749.1678 813,-749.1678"/>
<polygon fill="none" stroke="#000000" points="813,-749.1678 813,-772.1678 1069,-772.1678 1069,-749.1678 813,-749.1678"/>
<text text-anchor="start" x="818" y="-758.2678" font-family="Helvetica,sans-Serif" font-weight="bold" font-size="11.00" fill="#000000">aos_products_quotes</text>
<text text-anchor="start" x="1034.0437" y="-757.2678" font-family="Helvetica,sans-Serif" font-size="11.00" fill="#000000">[table]</text>
<polygon fill="none" stroke="#000000" points="813,-727.1678 813,-749.1678 1069,-749.1678 1069,-727.1678 813,-727.1678"/>
<image xlink:href="../../images/primaryKeys.png" width="11px" height="12px" preserveAspectRatio="xMinYMin meet" x="818" y="-744.168"/>
<text text-anchor="start" x="833" y="-734.2678" font-family="Helvetica,sans-Serif" font-size="11.00" fill="#000000">id</text>
<polygon fill="#c0c0c0" stroke="transparent" points="813,-705.1678 813,-727.1678 1069,-727.1678 1069,-705.1678 813,-705.1678"/>
<polygon fill="none" stroke="#000000" points="813,-705.1678 813,-727.1678 1069,-727.1678 1069,-705.1678 813,-705.1678"/>
<image xlink:href="../../images/foreignKeys.png" width="11px" height="12px" preserveAspectRatio="xMinYMin meet" x="818" y="-722.168"/>
<text text-anchor="start" x="833" y="-712.2678" font-family="Helvetica,sans-Serif" font-size="11.00" fill="#000000">modified_user_id</text>
<polygon fill="#c0c0c0" stroke="transparent" points="813,-683.1678 813,-705.1678 1069,-705.1678 1069,-683.1678 813,-683.1678"/>
<polygon fill="none" stroke="#000000" points="813,-683.1678 813,-705.1678 1069,-705.1678 1069,-683.1678 813,-683.1678"/>
<image xlink:href="../../images/foreignKeys.png" width="11px" height="12px" preserveAspectRatio="xMinYMin meet" x="818" y="-700.168"/>
<text text-anchor="start" x="833" y="-690.2678" font-family="Helvetica,sans-Serif" font-size="11.00" fill="#000000">created_by</text>
<polygon fill="#ffffff" stroke="transparent" points="813,-661.1678 813,-683.1678 1069,-683.1678 1069,-661.1678 813,-661.1678"/>
<polygon fill="none" stroke="#000000" points="813,-661.1678 813,-683.1678 1069,-683.1678 1069,-661.1678 813,-661.1678"/>
<text text-anchor="start" x="833" y="-668.2678" font-family="Helvetica,sans-Serif" font-size="11.00" fill="#000000">deleted</text>
<polygon fill="#c0c0c0" stroke="transparent" points="813,-639.1678 813,-661.1678 1069,-661.1678 1069,-639.1678 813,-639.1678"/>
<polygon fill="none" stroke="#000000" points="813,-639.1678 813,-661.1678 1069,-661.1678 1069,-639.1678 813,-639.1678"/>
<image xlink:href="../../images/foreignKeys.png" width="11px" height="12px" preserveAspectRatio="xMinYMin meet" x="818" y="-656.168"/>
<text text-anchor="start" x="833" y="-646.2678" font-family="Helvetica,sans-Serif" font-size="11.00" fill="#000000">assigned_user_id</text>
<polygon fill="#ffffff" stroke="transparent" points="813,-617.1678 813,-639.1678 1069,-639.1678 1069,-617.1678 813,-617.1678"/>
<polygon fill="none" stroke="#000000" points="813,-617.1678 813,-639.1678 1069,-639.1678 1069,-617.1678 813,-617.1678"/>
<text text-anchor="start" x="833" y="-624.2678" font-family="Helvetica,sans-Serif" font-size="11.00" fill="#000000">parent_type</text>
<polygon fill="#ffffff" stroke="transparent" points="813,-595.1678 813,-617.1678 1069,-617.1678 1069,-595.1678 813,-595.1678"/>
<polygon fill="none" stroke="#000000" points="813,-595.1678 813,-617.1678 1069,-617.1678 1069,-595.1678 813,-595.1678"/>
<image xlink:href="../../images/foreignKeys.png" width="11px" height="12px" preserveAspectRatio="xMinYMin meet" x="818" y="-612.168"/>
<text text-anchor="start" x="833" y="-602.2678" font-family="Helvetica,sans-Serif" font-size="11.00" fill="#000000">parent_id</text>
<polygon fill="none" stroke="#000000" points="813,-573.1678 813,-595.1678 1069,-595.1678 1069,-573.1678 813,-573.1678"/>
<image xlink:href="../../images/foreignKeys.png" width="11px" height="12px" preserveAspectRatio="xMinYMin meet" x="818" y="-590.168"/>
<text text-anchor="start" x="833" y="-580.2678" font-family="Helvetica,sans-Serif" font-size="11.00" fill="#000000">product_id</text>
<polygon fill="none" stroke="#000000" points="813,-551.1678 813,-573.1678 1069,-573.1678 1069,-551.1678 813,-551.1678"/>
<image xlink:href="../../images/foreignKeys.png" width="11px" height="12px" preserveAspectRatio="xMinYMin meet" x="818" y="-568.168"/>
<text text-anchor="start" x="833" y="-558.2678" font-family="Helvetica,sans-Serif" font-size="11.00" fill="#000000">group_id</text>
<polygon fill="none" stroke="#000000" points="813,-532.1678 813,-551.1678 1069,-551.1678 1069,-532.1678 813,-532.1678"/>
<text text-anchor="start" x="816" y="-538.2678" font-family="Helvetica,sans-Serif" font-size="11.00" fill="#000000">...</text>
<polygon fill="#ffffff" stroke="transparent" points="813,-513.1678 813,-532.1678 935,-532.1678 935,-513.1678 813,-513.1678"/>
<polygon fill="none" stroke="#000000" points="813,-513.1678 813,-532.1678 935,-532.1678 935,-513.1678 813,-513.1678"/>
<text text-anchor="start" x="816" y="-519.2678" font-family="Helvetica,sans-Serif" font-size="11.00" fill="#000000">&lt; 8</text>
<polygon fill="#ffffff" stroke="transparent" points="935,-513.1678 935,-532.1678 997,-532.1678 997,-513.1678 935,-513.1678"/>
<polygon fill="none" stroke="#000000" points="935,-513.1678 935,-532.1678 997,-532.1678 997,-513.1678 935,-513.1678"/>
<text text-anchor="start" x="987.8862" y="-519.2678" font-family="Helvetica,sans-Serif" font-size="11.00" fill="#000000"> &#160;</text>
<polygon fill="#ffffff" stroke="transparent" points="997,-513.1678 997,-532.1678 1069,-532.1678 1069,-513.1678 997,-513.1678"/>
<polygon fill="none" stroke="#000000" points="997,-513.1678 997,-532.1678 1069,-532.1678 1069,-513.1678 997,-513.1678"/>
<text text-anchor="start" x="1050.4053" y="-519.2678" font-family="Helvetica,sans-Serif" font-size="11.00" fill="#000000">1 &gt;</text>
</a>
</g>
</g>
<!-- aos_products_quotes&#45;&gt;users -->
<g id="edge9" class="edge">
<title>aos_products_quotes:w&#45;&gt;users:e</title>
<path fill="none" stroke="#000000" d="M798.4007,-650.2619C668.1173,-651.9469 625.5063,-675.2416 494,-637.1678 381.1586,-604.4979 364.4669,-567.6724 265,-505.1678 246.3165,-493.4272 246.0661,-477.1678 224,-477.1678"/>
<polygon fill="#000000" stroke="#000000" points="805.0002,-650.2194 813.0232,-653.7677 809.0001,-650.1936 813,-650.1678 813,-650.1678 813,-650.1678 809.0001,-650.1936 812.9768,-646.5679 805.0002,-650.2194 805.0002,-650.2194"/>
<ellipse fill="none" stroke="#000000" cx="801.8002" cy="-650.2401" rx="3.2" ry="3.2"/>
</g>
<!-- aos_products_quotes&#45;&gt;users -->
<g id="edge10" class="edge">
<title>aos_products_quotes:w&#45;&gt;users:e</title>
<path fill="none" stroke="#000000" d="M798.5453,-694.2259C559.1356,-696.1354 442.2576,-743.3747 265,-575.1678 230.752,-542.6685 271.2137,-477.1678 224,-477.1678"/>
<polygon fill="#000000" stroke="#000000" points="805.0001,-694.2 813.0145,-697.7678 809,-694.1839 813,-694.1678 813,-694.1678 813,-694.1678 809,-694.1839 812.9855,-690.5679 805.0001,-694.2 805.0001,-694.2"/>
<ellipse fill="none" stroke="#000000" cx="801.8001" cy="-694.2129" rx="3.2" ry="3.2"/>
</g>
<!-- aos_products_quotes&#45;&gt;users -->
<g id="edge11" class="edge">
<title>aos_products_quotes:w&#45;&gt;users:e</title>
<path fill="none" stroke="#000000" d="M798.3781,-716.2861C562.0292,-720.0965 434.2193,-813.5494 265,-642.1678 211.9089,-588.3983 299.5634,-477.1678 224,-477.1678"/>
<polygon fill="#000000" stroke="#000000" points="805.0003,-716.2326 813.0291,-719.7677 809.0001,-716.2002 813,-716.1678 813,-716.1678 813,-716.1678 809.0001,-716.2002 812.9709,-712.5679 805.0003,-716.2326 805.0003,-716.2326"/>
<ellipse fill="none" stroke="#000000" cx="801.8004" cy="-716.2585" rx="3.2" ry="3.2"/>
</g>
<!-- aos_products_quotes&#45;&gt;aos_products -->
<g id="edge12" class="edge">
<title>aos_products_quotes:w&#45;&gt;aos_products:e</title>
<path fill="none" stroke="#000000" d="M798.6123,-585.1053C786.4082,-586.7928 779.1172,-590.1678 762,-590.1678"/>
<polygon fill="#000000" stroke="#000000" points="805.0169,-584.6881 813.2341,-587.7602 809.0085,-584.4279 813,-584.1678 813,-584.1678 813,-584.1678 809.0085,-584.4279 812.7659,-580.5754 805.0169,-584.6881 805.0169,-584.6881"/>
<ellipse fill="none" stroke="#000000" cx="801.8237" cy="-584.8961" rx="3.2" ry="3.2"/>
</g>
<!-- securitygroups_records -->
<g id="node6" class="node">
<title>securitygroups_records</title>
<g id="a_node6"><a xlink:href="../../tables/securitygroups_records.html" xlink:title="securitygroups_records" target="_top">
<polygon fill="#ffffff" stroke="transparent" points="851.5,-87.6678 851.5,-258.6678 1030.5,-258.6678 1030.5,-87.6678 851.5,-87.6678"/>
<polygon fill="#f5f5f5" stroke="transparent" points="852,-235.1678 852,-258.1678 1031,-258.1678 1031,-235.1678 852,-235.1678"/>
<polygon fill="none" stroke="#000000" points="852,-235.1678 852,-258.1678 1031,-258.1678 1031,-235.1678 852,-235.1678"/>
<text text-anchor="start" x="857" y="-244.2678" font-family="Helvetica,sans-Serif" font-weight="bold" font-size="11.00" fill="#000000">securitygroups_records</text>
<text text-anchor="start" x="996.0437" y="-243.2678" font-family="Helvetica,sans-Serif" font-size="11.00" fill="#000000">[table]</text>
<polygon fill="none" stroke="#000000" points="852,-213.1678 852,-235.1678 1031,-235.1678 1031,-213.1678 852,-213.1678"/>
<image xlink:href="../../images/primaryKeys.png" width="11px" height="12px" preserveAspectRatio="xMinYMin meet" x="857" y="-230.168"/>
<text text-anchor="start" x="872" y="-220.2678" font-family="Helvetica,sans-Serif" font-size="11.00" fill="#000000">id</text>
<polygon fill="#ffffff" stroke="transparent" points="852,-191.1678 852,-213.1678 1031,-213.1678 1031,-191.1678 852,-191.1678"/>
<polygon fill="none" stroke="#000000" points="852,-191.1678 852,-213.1678 1031,-213.1678 1031,-191.1678 852,-191.1678"/>
<image xlink:href="../../images/foreignKeys.png" width="11px" height="12px" preserveAspectRatio="xMinYMin meet" x="857" y="-208.168"/>
<text text-anchor="start" x="872" y="-198.2678" font-family="Helvetica,sans-Serif" font-size="11.00" fill="#000000">securitygroup_id</text>
<polygon fill="#ffffff" stroke="transparent" points="852,-169.1678 852,-191.1678 1031,-191.1678 1031,-169.1678 852,-169.1678"/>
<polygon fill="none" stroke="#000000" points="852,-169.1678 852,-191.1678 1031,-191.1678 1031,-169.1678 852,-169.1678"/>
<image xlink:href="../../images/foreignKeys.png" width="11px" height="12px" preserveAspectRatio="xMinYMin meet" x="857" y="-186.168"/>
<text text-anchor="start" x="872" y="-176.2678" font-family="Helvetica,sans-Serif" font-size="11.00" fill="#000000">record_id</text>
<polygon fill="#ffffff" stroke="transparent" points="852,-147.1678 852,-169.1678 1031,-169.1678 1031,-147.1678 852,-147.1678"/>
<polygon fill="none" stroke="#000000" points="852,-147.1678 852,-169.1678 1031,-169.1678 1031,-147.1678 852,-147.1678"/>
<text text-anchor="start" x="872" y="-154.2678" font-family="Helvetica,sans-Serif" font-size="11.00" fill="#000000">module</text>
<polygon fill="#ffffff" stroke="transparent" points="852,-125.1678 852,-147.1678 1031,-147.1678 1031,-125.1678 852,-125.1678"/>
<polygon fill="none" stroke="#000000" points="852,-125.1678 852,-147.1678 1031,-147.1678 1031,-125.1678 852,-125.1678"/>
<text text-anchor="start" x="872" y="-132.2678" font-family="Helvetica,sans-Serif" font-size="11.00" fill="#000000">deleted</text>
<polygon fill="none" stroke="#000000" points="852,-106.1678 852,-125.1678 1031,-125.1678 1031,-106.1678 852,-106.1678"/>
<text text-anchor="start" x="855" y="-112.2678" font-family="Helvetica,sans-Serif" font-size="11.00" fill="#000000">...</text>
<polygon fill="#ffffff" stroke="transparent" points="852,-87.1678 852,-106.1678 943,-106.1678 943,-87.1678 852,-87.1678"/>
<polygon fill="none" stroke="#000000" points="852,-87.1678 852,-106.1678 943,-106.1678 943,-87.1678 852,-87.1678"/>
<text text-anchor="start" x="855" y="-93.2678" font-family="Helvetica,sans-Serif" font-size="11.00" fill="#000000">&lt; 41</text>
<polygon fill="#ffffff" stroke="transparent" points="943,-87.1678 943,-106.1678 987,-106.1678 987,-87.1678 943,-87.1678"/>
<polygon fill="none" stroke="#000000" points="943,-87.1678 943,-106.1678 987,-106.1678 987,-87.1678 943,-87.1678"/>
<text text-anchor="start" x="977.8862" y="-93.2678" font-family="Helvetica,sans-Serif" font-size="11.00" fill="#000000"> &#160;</text>
<polygon fill="#ffffff" stroke="transparent" points="987,-87.1678 987,-106.1678 1031,-106.1678 1031,-87.1678 987,-87.1678"/>
<polygon fill="none" stroke="#000000" points="987,-87.1678 987,-106.1678 1031,-106.1678 1031,-87.1678 987,-87.1678"/>
<text text-anchor="start" x="1021.8862" y="-93.2678" font-family="Helvetica,sans-Serif" font-size="11.00" fill="#000000"> &#160;</text>
</a>
</g>
</g>
<!-- securitygroups_records&#45;&gt;aos_product_categories -->
<g id="edge13" class="edge">
<title>securitygroups_records:w&#45;&gt;aos_product_categories:e</title>
<path fill="none" stroke="#000000" d="M837.5078,-178.0745C801.1527,-166.1001 816.9647,-106.087 772,-85.1678 659.9747,-33.0496 586.9874,-3.8086 494,-85.1678 442.3662,-130.3448 521.6077,-391.1678 453,-391.1678"/>
<polygon fill="#000000" stroke="#000000" points="844.0822,-179.0241 851.4853,-183.7308 848.0411,-179.5959 852,-180.1678 852,-180.1678 852,-180.1678 848.0411,-179.5959 852.5147,-176.6048 844.0822,-179.0241 844.0822,-179.0241"/>
<ellipse fill="none" stroke="#000000" cx="840.915" cy="-178.5666" rx="3.2" ry="3.2"/>
</g>
<!-- securitygroups_records&#45;&gt;aos_products -->
<g id="edge14" class="edge">
<title>securitygroups_records:w&#45;&gt;aos_products:e</title>
<path fill="none" stroke="#000000" d="M837.2739,-181.3387C769.2397,-193.3006 823.1817,-294.5827 805,-377.1678 794.6176,-424.3267 810.2882,-590.1678 762,-590.1678"/>
<polygon fill="#000000" stroke="#000000" points="844.0252,-180.8019 852.2854,-183.7565 848.0126,-180.4849 852,-180.1678 852,-180.1678 852,-180.1678 848.0126,-180.4849 851.7146,-176.5791 844.0252,-180.8019 844.0252,-180.8019"/>
<ellipse fill="none" stroke="#000000" cx="840.8352" cy="-181.0556" rx="3.2" ry="3.2"/>
</g>
</g>
</svg>
