<?xml version="1.0" encoding="UTF-8" standalone="no"?>
<!DOCTYPE svg PUBLIC "-//W3C//DTD SVG 1.1//EN"
 "http://www.w3.org/Graphics/SVG/1.1/DTD/svg11.dtd">
<!-- Generated by graphviz version 2.40.1 (20161225.0304)
 -->
<!-- Title: oneDegreeRelationshipsDiagram Pages: 1 -->
<svg width="572pt" height="316pt"
 viewBox="0.00 0.00 572.00 316.20" xmlns="http://www.w3.org/2000/svg" xmlns:xlink="http://www.w3.org/1999/xlink">
<g id="graph0" class="graph" transform="scale(1 1) rotate(0) translate(4 312.2)">
<title>oneDegreeRelationshipsDiagram</title>
<polygon fill="#ffffff" stroke="transparent" points="-4,4 -4,-312.2 568,-312.2 568,4 -4,4"/>
<text text-anchor="middle" x="72.4936" y="-7.3" font-family="Helvetica,sans-Serif" font-size="11.00" fill="#000000">Generated by SchemaSpy</text>
<!-- aos_line_item_groups_audit -->
<g id="node1" class="node">
<title>aos_line_item_groups_audit</title>
<g id="a_node1"><a xlink:href="../../tables/aos_line_item_groups_audit.html" xlink:title="aos_line_item_groups_audit" target="_top">
<polygon fill="#ffffff" stroke="transparent" points="280,-38.2 280,-304.2 556,-304.2 556,-38.2 280,-38.2"/>
<polygon fill="#f5f5f5" stroke="transparent" points="282,-279.2 282,-302.2 554,-302.2 554,-279.2 282,-279.2"/>
<polygon fill="none" stroke="#000000" points="282,-279.2 282,-302.2 554,-302.2 554,-279.2 282,-279.2"/>
<text text-anchor="start" x="287" y="-288.3" font-family="Helvetica,sans-Serif" font-weight="bold" font-size="11.00" fill="#000000">aos_line_item_groups_audit</text>
<text text-anchor="start" x="519.0437" y="-287.3" font-family="Helvetica,sans-Serif" font-size="11.00" fill="#000000">[table]</text>
<polygon fill="none" stroke="#000000" points="282,-257.2 282,-279.2 487,-279.2 487,-257.2 282,-257.2"/>
<image xlink:href="../../images/primaryKeys.png" width="11px" height="12px" preserveAspectRatio="xMinYMin meet" x="287" y="-274.2"/>
<text text-anchor="start" x="302" y="-264.3" font-family="Helvetica,sans-Serif" font-size="11.00" fill="#000000">id</text>
<polygon fill="none" stroke="#000000" points="487,-257.2 487,-279.2 554,-279.2 554,-257.2 487,-257.2"/>
<text text-anchor="start" x="490" y="-264.9" font-family="Helvetica,sans-Serif" font-size="11.00" fill="#000000">char[36]</text>
<polygon fill="#ffffff" stroke="transparent" points="282,-235.2 282,-257.2 487,-257.2 487,-235.2 282,-235.2"/>
<polygon fill="none" stroke="#000000" points="282,-235.2 282,-257.2 487,-257.2 487,-235.2 282,-235.2"/>
<image xlink:href="../../images/foreignKeys.png" width="11px" height="12px" preserveAspectRatio="xMinYMin meet" x="287" y="-252.2"/>
<text text-anchor="start" x="302" y="-242.3" font-family="Helvetica,sans-Serif" font-size="11.00" fill="#000000">parent_id</text>
<polygon fill="none" stroke="#000000" points="487,-235.2 487,-257.2 554,-257.2 554,-235.2 487,-235.2"/>
<text text-anchor="start" x="490" y="-242.9" font-family="Helvetica,sans-Serif" font-size="11.00" fill="#000000">char[36]</text>
<polygon fill="none" stroke="#000000" points="282,-213.2 282,-235.2 487,-235.2 487,-213.2 282,-213.2"/>
<text text-anchor="start" x="302" y="-220.3" font-family="Helvetica,sans-Serif" font-size="11.00" fill="#000000">date_created</text>
<polygon fill="none" stroke="#000000" points="487,-213.2 487,-235.2 554,-235.2 554,-213.2 487,-213.2"/>
<text text-anchor="start" x="490" y="-220.9" font-family="Helvetica,sans-Serif" font-size="11.00" fill="#000000">datetime[26]</text>
<polygon fill="none" stroke="#000000" points="282,-191.2 282,-213.2 487,-213.2 487,-191.2 282,-191.2"/>
<text text-anchor="start" x="302" y="-198.3" font-family="Helvetica,sans-Serif" font-size="11.00" fill="#000000">created_by</text>
<polygon fill="none" stroke="#000000" points="487,-191.2 487,-213.2 554,-213.2 554,-191.2 487,-191.2"/>
<text text-anchor="start" x="490" y="-198.9" font-family="Helvetica,sans-Serif" font-size="11.00" fill="#000000">varchar[36]</text>
<polygon fill="none" stroke="#000000" points="282,-169.2 282,-191.2 487,-191.2 487,-169.2 282,-169.2"/>
<text text-anchor="start" x="302" y="-176.3" font-family="Helvetica,sans-Serif" font-size="11.00" fill="#000000">field_name</text>
<polygon fill="none" stroke="#000000" points="487,-169.2 487,-191.2 554,-191.2 554,-169.2 487,-169.2"/>
<text text-anchor="start" x="489.9365" y="-176.9" font-family="Helvetica,sans-Serif" font-size="11.00" fill="#000000">varchar[100]</text>
<polygon fill="none" stroke="#000000" points="282,-147.2 282,-169.2 487,-169.2 487,-147.2 282,-147.2"/>
<text text-anchor="start" x="302" y="-154.3" font-family="Helvetica,sans-Serif" font-size="11.00" fill="#000000">data_type</text>
<polygon fill="none" stroke="#000000" points="487,-147.2 487,-169.2 554,-169.2 554,-147.2 487,-147.2"/>
<text text-anchor="start" x="489.9365" y="-154.9" font-family="Helvetica,sans-Serif" font-size="11.00" fill="#000000">varchar[100]</text>
<polygon fill="none" stroke="#000000" points="282,-125.2 282,-147.2 487,-147.2 487,-125.2 282,-125.2"/>
<text text-anchor="start" x="302" y="-132.3" font-family="Helvetica,sans-Serif" font-size="11.00" fill="#000000">before_value_string</text>
<polygon fill="none" stroke="#000000" points="487,-125.2 487,-147.2 554,-147.2 554,-125.2 487,-125.2"/>
<text text-anchor="start" x="489.9365" y="-132.9" font-family="Helvetica,sans-Serif" font-size="11.00" fill="#000000">varchar[255]</text>
<polygon fill="none" stroke="#000000" points="282,-103.2 282,-125.2 487,-125.2 487,-103.2 282,-103.2"/>
<text text-anchor="start" x="302" y="-110.3" font-family="Helvetica,sans-Serif" font-size="11.00" fill="#000000">after_value_string</text>
<polygon fill="none" stroke="#000000" points="487,-103.2 487,-125.2 554,-125.2 554,-103.2 487,-103.2"/>
<text text-anchor="start" x="489.9365" y="-110.9" font-family="Helvetica,sans-Serif" font-size="11.00" fill="#000000">varchar[255]</text>
<polygon fill="none" stroke="#000000" points="282,-81.2 282,-103.2 487,-103.2 487,-81.2 282,-81.2"/>
<text text-anchor="start" x="302" y="-88.3" font-family="Helvetica,sans-Serif" font-size="11.00" fill="#000000">before_value_text</text>
<polygon fill="none" stroke="#000000" points="487,-81.2 487,-103.2 554,-103.2 554,-81.2 487,-81.2"/>
<text text-anchor="start" x="490" y="-88.9" font-family="Helvetica,sans-Serif" font-size="11.00" fill="#000000">text[65535]</text>
<polygon fill="none" stroke="#000000" points="282,-59.2 282,-81.2 487,-81.2 487,-59.2 282,-59.2"/>
<text text-anchor="start" x="302" y="-66.3" font-family="Helvetica,sans-Serif" font-size="11.00" fill="#000000">after_value_text</text>
<polygon fill="none" stroke="#000000" points="487,-59.2 487,-81.2 554,-81.2 554,-59.2 487,-59.2"/>
<text text-anchor="start" x="490" y="-66.9" font-family="Helvetica,sans-Serif" font-size="11.00" fill="#000000">text[65535]</text>
<polygon fill="#ffffff" stroke="transparent" points="282,-40.2 282,-59.2 389,-59.2 389,-40.2 282,-40.2"/>
<polygon fill="none" stroke="#000000" points="282,-40.2 282,-59.2 389,-59.2 389,-40.2 282,-40.2"/>
<text text-anchor="start" x="285" y="-46.3" font-family="Helvetica,sans-Serif" font-size="11.00" fill="#000000">&lt; 1</text>
<polygon fill="#ffffff" stroke="transparent" points="389,-40.2 389,-59.2 487,-59.2 487,-40.2 389,-40.2"/>
<polygon fill="none" stroke="#000000" points="389,-40.2 389,-59.2 487,-59.2 487,-40.2 389,-40.2"/>
<text text-anchor="start" x="477.8862" y="-46.3" font-family="Helvetica,sans-Serif" font-size="11.00" fill="#000000"> &#160;</text>
<polygon fill="#ffffff" stroke="transparent" points="487,-40.2 487,-59.2 554,-59.2 554,-40.2 487,-40.2"/>
<polygon fill="none" stroke="#000000" points="487,-40.2 487,-59.2 554,-59.2 554,-40.2 487,-40.2"/>
<text text-anchor="start" x="535.4053" y="-46.3" font-family="Helvetica,sans-Serif" font-size="11.00" fill="#000000">0 &gt;</text>
<polygon fill="none" stroke="#000000" stroke-width="2" points="281,-39.2 281,-303.2 555,-303.2 555,-39.2 281,-39.2"/>
</a>
</g>
</g>
<!-- aos_line_item_groups -->
<g id="node2" class="node">
<title>aos_line_item_groups</title>
<g id="a_node2"><a xlink:href="../../tables/aos_line_item_groups.html" xlink:title="aos_line_item_groups" target="_top">
<polygon fill="#ffffff" stroke="transparent" points="8,-109.7 8,-280.7 231,-280.7 231,-109.7 8,-109.7"/>
<polygon fill="#f5f5f5" stroke="transparent" points="8.5,-257.2 8.5,-280.2 231.5,-280.2 231.5,-257.2 8.5,-257.2"/>
<polygon fill="none" stroke="#000000" points="8.5,-257.2 8.5,-280.2 231.5,-280.2 231.5,-257.2 8.5,-257.2"/>
<text text-anchor="start" x="13.5" y="-266.3" font-family="Helvetica,sans-Serif" font-weight="bold" font-size="11.00" fill="#000000">aos_line_item_groups</text>
<text text-anchor="start" x="196.5437" y="-265.3" font-family="Helvetica,sans-Serif" font-size="11.00" fill="#000000">[table]</text>
<polygon fill="none" stroke="#000000" points="8.5,-235.2 8.5,-257.2 231.5,-257.2 231.5,-235.2 8.5,-235.2"/>
<image xlink:href="../../images/primaryKeys.png" width="11px" height="12px" preserveAspectRatio="xMinYMin meet" x="13.5" y="-252.2"/>
<text text-anchor="start" x="28.5" y="-242.3" font-family="Helvetica,sans-Serif" font-size="11.00" fill="#000000">id</text>
<polygon fill="#c0c0c0" stroke="transparent" points="8.5,-213.2 8.5,-235.2 231.5,-235.2 231.5,-213.2 8.5,-213.2"/>
<polygon fill="none" stroke="#000000" points="8.5,-213.2 8.5,-235.2 231.5,-235.2 231.5,-213.2 8.5,-213.2"/>
<image xlink:href="../../images/foreignKeys.png" width="11px" height="12px" preserveAspectRatio="xMinYMin meet" x="13.5" y="-230.2"/>
<text text-anchor="start" x="28.5" y="-220.3" font-family="Helvetica,sans-Serif" font-size="11.00" fill="#000000">modified_user_id</text>
<polygon fill="#c0c0c0" stroke="transparent" points="8.5,-191.2 8.5,-213.2 231.5,-213.2 231.5,-191.2 8.5,-191.2"/>
<polygon fill="none" stroke="#000000" points="8.5,-191.2 8.5,-213.2 231.5,-213.2 231.5,-191.2 8.5,-191.2"/>
<image xlink:href="../../images/foreignKeys.png" width="11px" height="12px" preserveAspectRatio="xMinYMin meet" x="13.5" y="-208.2"/>
<text text-anchor="start" x="28.5" y="-198.3" font-family="Helvetica,sans-Serif" font-size="11.00" fill="#000000">created_by</text>
<polygon fill="#c0c0c0" stroke="transparent" points="8.5,-169.2 8.5,-191.2 231.5,-191.2 231.5,-169.2 8.5,-169.2"/>
<polygon fill="none" stroke="#000000" points="8.5,-169.2 8.5,-191.2 231.5,-191.2 231.5,-169.2 8.5,-169.2"/>
<image xlink:href="../../images/foreignKeys.png" width="11px" height="12px" preserveAspectRatio="xMinYMin meet" x="13.5" y="-186.2"/>
<text text-anchor="start" x="28.5" y="-176.3" font-family="Helvetica,sans-Serif" font-size="11.00" fill="#000000">assigned_user_id</text>
<polygon fill="none" stroke="#000000" points="8.5,-147.2 8.5,-169.2 231.5,-169.2 231.5,-147.2 8.5,-147.2"/>
<image xlink:href="../../images/foreignKeys.png" width="11px" height="12px" preserveAspectRatio="xMinYMin meet" x="13.5" y="-164.2"/>
<text text-anchor="start" x="28.5" y="-154.3" font-family="Helvetica,sans-Serif" font-size="11.00" fill="#000000">parent_id</text>
<polygon fill="none" stroke="#000000" points="8.5,-128.2 8.5,-147.2 231.5,-147.2 231.5,-128.2 8.5,-128.2"/>
<text text-anchor="start" x="11.5" y="-134.3" font-family="Helvetica,sans-Serif" font-size="11.00" fill="#000000">...</text>
<polygon fill="#ffffff" stroke="transparent" points="8.5,-109.2 8.5,-128.2 113.5,-128.2 113.5,-109.2 8.5,-109.2"/>
<polygon fill="none" stroke="#000000" points="8.5,-109.2 8.5,-128.2 113.5,-128.2 113.5,-109.2 8.5,-109.2"/>
<text text-anchor="start" x="11.5" y="-115.3" font-family="Helvetica,sans-Serif" font-size="11.00" fill="#000000">&lt; 6</text>
<polygon fill="#ffffff" stroke="transparent" points="113.5,-109.2 113.5,-128.2 167.5,-128.2 167.5,-109.2 113.5,-109.2"/>
<polygon fill="none" stroke="#000000" points="113.5,-109.2 113.5,-128.2 167.5,-128.2 167.5,-109.2 113.5,-109.2"/>
<text text-anchor="start" x="158.3862" y="-115.3" font-family="Helvetica,sans-Serif" font-size="11.00" fill="#000000"> &#160;</text>
<polygon fill="#ffffff" stroke="transparent" points="167.5,-109.2 167.5,-128.2 231.5,-128.2 231.5,-109.2 167.5,-109.2"/>
<polygon fill="none" stroke="#000000" points="167.5,-109.2 167.5,-128.2 231.5,-128.2 231.5,-109.2 167.5,-109.2"/>
<text text-anchor="start" x="212.9053" y="-115.3" font-family="Helvetica,sans-Serif" font-size="11.00" fill="#000000">2 &gt;</text>
</a>
</g>
</g>
<!-- aos_line_item_groups_audit&#45;&gt;aos_line_item_groups -->
<g id="edge1" class="edge">
<title>aos_line_item_groups_audit:w&#45;&gt;aos_line_item_groups:e</title>
<path fill="none" stroke="#000000" d="M267.4203,-246.2C255.5435,-246.2 248.158,-246.2 231.5,-246.2"/>
<polygon fill="#000000" stroke="#000000" points="274,-246.2001 282,-249.8 278,-246.2 282,-246.2 282,-246.2 282,-246.2 278,-246.2 282,-242.6 274,-246.2001 274,-246.2001"/>
<ellipse fill="none" stroke="#000000" cx="270.8" cy="-246.2001" rx="3.2" ry="3.2"/>
</g>
</g>
</svg>
