<?xml version="1.0" encoding="UTF-8" standalone="no"?>
<!DOCTYPE svg PUBLIC "-//W3C//DTD SVG 1.1//EN"
 "http://www.w3.org/Graphics/SVG/1.1/DTD/svg11.dtd">
<!-- Generated by graphviz version 2.40.1 (20161225.0304)
 -->
<!-- Title: oneDegreeRelationshipsDiagram Pages: 1 -->
<svg width="479pt" height="316pt"
 viewBox="0.00 0.00 479.00 316.20" xmlns="http://www.w3.org/2000/svg" xmlns:xlink="http://www.w3.org/1999/xlink">
<g id="graph0" class="graph" transform="scale(1 1) rotate(0) translate(4 312.2)">
<title>oneDegreeRelationshipsDiagram</title>
<polygon fill="#ffffff" stroke="transparent" points="-4,4 -4,-312.2 475,-312.2 475,4 -4,4"/>
<text text-anchor="middle" x="72.4936" y="-7.3" font-family="Helvetica,sans-Serif" font-size="11.00" fill="#000000">Generated by SchemaSpy</text>
<!-- aos_pdf_templates_audit -->
<g id="node1" class="node">
<title>aos_pdf_templates_audit</title>
<g id="a_node1"><a xlink:href="../../tables/aos_pdf_templates_audit.html" xlink:title="aos_pdf_templates_audit" target="_top">
<polygon fill="#ffffff" stroke="transparent" points="204,-38.2 204,-304.2 463,-304.2 463,-38.2 204,-38.2"/>
<polygon fill="#f5f5f5" stroke="transparent" points="206.5,-279.2 206.5,-302.2 461.5,-302.2 461.5,-279.2 206.5,-279.2"/>
<polygon fill="none" stroke="#000000" points="206.5,-279.2 206.5,-302.2 461.5,-302.2 461.5,-279.2 206.5,-279.2"/>
<text text-anchor="start" x="211.5" y="-288.3" font-family="Helvetica,sans-Serif" font-weight="bold" font-size="11.00" fill="#000000">aos_pdf_templates_audit</text>
<text text-anchor="start" x="426.5437" y="-287.3" font-family="Helvetica,sans-Serif" font-size="11.00" fill="#000000">[table]</text>
<polygon fill="none" stroke="#000000" points="206.5,-257.2 206.5,-279.2 394.5,-279.2 394.5,-257.2 206.5,-257.2"/>
<image xlink:href="../../images/primaryKeys.png" width="11px" height="12px" preserveAspectRatio="xMinYMin meet" x="211.5" y="-274.2"/>
<text text-anchor="start" x="226.5" y="-264.3" font-family="Helvetica,sans-Serif" font-size="11.00" fill="#000000">id</text>
<polygon fill="none" stroke="#000000" points="394.5,-257.2 394.5,-279.2 461.5,-279.2 461.5,-257.2 394.5,-257.2"/>
<text text-anchor="start" x="397.5" y="-264.9" font-family="Helvetica,sans-Serif" font-size="11.00" fill="#000000">char[36]</text>
<polygon fill="#ffffff" stroke="transparent" points="206.5,-235.2 206.5,-257.2 394.5,-257.2 394.5,-235.2 206.5,-235.2"/>
<polygon fill="none" stroke="#000000" points="206.5,-235.2 206.5,-257.2 394.5,-257.2 394.5,-235.2 206.5,-235.2"/>
<image xlink:href="../../images/foreignKeys.png" width="11px" height="12px" preserveAspectRatio="xMinYMin meet" x="211.5" y="-252.2"/>
<text text-anchor="start" x="226.5" y="-242.3" font-family="Helvetica,sans-Serif" font-size="11.00" fill="#000000">parent_id</text>
<polygon fill="none" stroke="#000000" points="394.5,-235.2 394.5,-257.2 461.5,-257.2 461.5,-235.2 394.5,-235.2"/>
<text text-anchor="start" x="397.5" y="-242.9" font-family="Helvetica,sans-Serif" font-size="11.00" fill="#000000">char[36]</text>
<polygon fill="none" stroke="#000000" points="206.5,-213.2 206.5,-235.2 394.5,-235.2 394.5,-213.2 206.5,-213.2"/>
<text text-anchor="start" x="226.5" y="-220.3" font-family="Helvetica,sans-Serif" font-size="11.00" fill="#000000">date_created</text>
<polygon fill="none" stroke="#000000" points="394.5,-213.2 394.5,-235.2 461.5,-235.2 461.5,-213.2 394.5,-213.2"/>
<text text-anchor="start" x="397.5" y="-220.9" font-family="Helvetica,sans-Serif" font-size="11.00" fill="#000000">datetime[26]</text>
<polygon fill="none" stroke="#000000" points="206.5,-191.2 206.5,-213.2 394.5,-213.2 394.5,-191.2 206.5,-191.2"/>
<text text-anchor="start" x="226.5" y="-198.3" font-family="Helvetica,sans-Serif" font-size="11.00" fill="#000000">created_by</text>
<polygon fill="none" stroke="#000000" points="394.5,-191.2 394.5,-213.2 461.5,-213.2 461.5,-191.2 394.5,-191.2"/>
<text text-anchor="start" x="397.5" y="-198.9" font-family="Helvetica,sans-Serif" font-size="11.00" fill="#000000">varchar[36]</text>
<polygon fill="none" stroke="#000000" points="206.5,-169.2 206.5,-191.2 394.5,-191.2 394.5,-169.2 206.5,-169.2"/>
<text text-anchor="start" x="226.5" y="-176.3" font-family="Helvetica,sans-Serif" font-size="11.00" fill="#000000">field_name</text>
<polygon fill="none" stroke="#000000" points="394.5,-169.2 394.5,-191.2 461.5,-191.2 461.5,-169.2 394.5,-169.2"/>
<text text-anchor="start" x="397.4365" y="-176.9" font-family="Helvetica,sans-Serif" font-size="11.00" fill="#000000">varchar[100]</text>
<polygon fill="none" stroke="#000000" points="206.5,-147.2 206.5,-169.2 394.5,-169.2 394.5,-147.2 206.5,-147.2"/>
<text text-anchor="start" x="226.5" y="-154.3" font-family="Helvetica,sans-Serif" font-size="11.00" fill="#000000">data_type</text>
<polygon fill="none" stroke="#000000" points="394.5,-147.2 394.5,-169.2 461.5,-169.2 461.5,-147.2 394.5,-147.2"/>
<text text-anchor="start" x="397.4365" y="-154.9" font-family="Helvetica,sans-Serif" font-size="11.00" fill="#000000">varchar[100]</text>
<polygon fill="none" stroke="#000000" points="206.5,-125.2 206.5,-147.2 394.5,-147.2 394.5,-125.2 206.5,-125.2"/>
<text text-anchor="start" x="226.5" y="-132.3" font-family="Helvetica,sans-Serif" font-size="11.00" fill="#000000">before_value_string</text>
<polygon fill="none" stroke="#000000" points="394.5,-125.2 394.5,-147.2 461.5,-147.2 461.5,-125.2 394.5,-125.2"/>
<text text-anchor="start" x="397.4365" y="-132.9" font-family="Helvetica,sans-Serif" font-size="11.00" fill="#000000">varchar[255]</text>
<polygon fill="none" stroke="#000000" points="206.5,-103.2 206.5,-125.2 394.5,-125.2 394.5,-103.2 206.5,-103.2"/>
<text text-anchor="start" x="226.5" y="-110.3" font-family="Helvetica,sans-Serif" font-size="11.00" fill="#000000">after_value_string</text>
<polygon fill="none" stroke="#000000" points="394.5,-103.2 394.5,-125.2 461.5,-125.2 461.5,-103.2 394.5,-103.2"/>
<text text-anchor="start" x="397.4365" y="-110.9" font-family="Helvetica,sans-Serif" font-size="11.00" fill="#000000">varchar[255]</text>
<polygon fill="none" stroke="#000000" points="206.5,-81.2 206.5,-103.2 394.5,-103.2 394.5,-81.2 206.5,-81.2"/>
<text text-anchor="start" x="226.5" y="-88.3" font-family="Helvetica,sans-Serif" font-size="11.00" fill="#000000">before_value_text</text>
<polygon fill="none" stroke="#000000" points="394.5,-81.2 394.5,-103.2 461.5,-103.2 461.5,-81.2 394.5,-81.2"/>
<text text-anchor="start" x="397.5" y="-88.9" font-family="Helvetica,sans-Serif" font-size="11.00" fill="#000000">text[65535]</text>
<polygon fill="none" stroke="#000000" points="206.5,-59.2 206.5,-81.2 394.5,-81.2 394.5,-59.2 206.5,-59.2"/>
<text text-anchor="start" x="226.5" y="-66.3" font-family="Helvetica,sans-Serif" font-size="11.00" fill="#000000">after_value_text</text>
<polygon fill="none" stroke="#000000" points="394.5,-59.2 394.5,-81.2 461.5,-81.2 461.5,-59.2 394.5,-59.2"/>
<text text-anchor="start" x="397.5" y="-66.9" font-family="Helvetica,sans-Serif" font-size="11.00" fill="#000000">text[65535]</text>
<polygon fill="#ffffff" stroke="transparent" points="206.5,-40.2 206.5,-59.2 304.5,-59.2 304.5,-40.2 206.5,-40.2"/>
<polygon fill="none" stroke="#000000" points="206.5,-40.2 206.5,-59.2 304.5,-59.2 304.5,-40.2 206.5,-40.2"/>
<text text-anchor="start" x="209.5" y="-46.3" font-family="Helvetica,sans-Serif" font-size="11.00" fill="#000000">&lt; 1</text>
<polygon fill="#ffffff" stroke="transparent" points="304.5,-40.2 304.5,-59.2 394.5,-59.2 394.5,-40.2 304.5,-40.2"/>
<polygon fill="none" stroke="#000000" points="304.5,-40.2 304.5,-59.2 394.5,-59.2 394.5,-40.2 304.5,-40.2"/>
<text text-anchor="start" x="385.3862" y="-46.3" font-family="Helvetica,sans-Serif" font-size="11.00" fill="#000000"> &#160;</text>
<polygon fill="#ffffff" stroke="transparent" points="394.5,-40.2 394.5,-59.2 461.5,-59.2 461.5,-40.2 394.5,-40.2"/>
<polygon fill="none" stroke="#000000" points="394.5,-40.2 394.5,-59.2 461.5,-59.2 461.5,-40.2 394.5,-40.2"/>
<text text-anchor="start" x="442.9053" y="-46.3" font-family="Helvetica,sans-Serif" font-size="11.00" fill="#000000">0 &gt;</text>
<polygon fill="none" stroke="#000000" stroke-width="2" points="205,-39.2 205,-303.2 462,-303.2 462,-39.2 205,-39.2"/>
</a>
</g>
</g>
<!-- aos_pdf_templates -->
<g id="node2" class="node">
<title>aos_pdf_templates</title>
<g id="a_node2"><a xlink:href="../../tables/aos_pdf_templates.html" xlink:title="aos_pdf_templates" target="_top">
<polygon fill="#ffffff" stroke="transparent" points="8,-131.7 8,-280.7 155,-280.7 155,-131.7 8,-131.7"/>
<polygon fill="#f5f5f5" stroke="transparent" points="8.5,-257.2 8.5,-280.2 155.5,-280.2 155.5,-257.2 8.5,-257.2"/>
<polygon fill="none" stroke="#000000" points="8.5,-257.2 8.5,-280.2 155.5,-280.2 155.5,-257.2 8.5,-257.2"/>
<text text-anchor="start" x="13.5" y="-266.3" font-family="Helvetica,sans-Serif" font-weight="bold" font-size="11.00" fill="#000000">aos_pdf_templates</text>
<text text-anchor="start" x="120.5437" y="-265.3" font-family="Helvetica,sans-Serif" font-size="11.00" fill="#000000">[table]</text>
<polygon fill="none" stroke="#000000" points="8.5,-235.2 8.5,-257.2 155.5,-257.2 155.5,-235.2 8.5,-235.2"/>
<image xlink:href="../../images/primaryKeys.png" width="11px" height="12px" preserveAspectRatio="xMinYMin meet" x="13.5" y="-252.2"/>
<text text-anchor="start" x="28.5" y="-242.3" font-family="Helvetica,sans-Serif" font-size="11.00" fill="#000000">id</text>
<polygon fill="#c0c0c0" stroke="transparent" points="8.5,-213.2 8.5,-235.2 155.5,-235.2 155.5,-213.2 8.5,-213.2"/>
<polygon fill="none" stroke="#000000" points="8.5,-213.2 8.5,-235.2 155.5,-235.2 155.5,-213.2 8.5,-213.2"/>
<image xlink:href="../../images/foreignKeys.png" width="11px" height="12px" preserveAspectRatio="xMinYMin meet" x="13.5" y="-230.2"/>
<text text-anchor="start" x="28.5" y="-220.3" font-family="Helvetica,sans-Serif" font-size="11.00" fill="#000000">modified_user_id</text>
<polygon fill="#c0c0c0" stroke="transparent" points="8.5,-191.2 8.5,-213.2 155.5,-213.2 155.5,-191.2 8.5,-191.2"/>
<polygon fill="none" stroke="#000000" points="8.5,-191.2 8.5,-213.2 155.5,-213.2 155.5,-191.2 8.5,-191.2"/>
<image xlink:href="../../images/foreignKeys.png" width="11px" height="12px" preserveAspectRatio="xMinYMin meet" x="13.5" y="-208.2"/>
<text text-anchor="start" x="28.5" y="-198.3" font-family="Helvetica,sans-Serif" font-size="11.00" fill="#000000">created_by</text>
<polygon fill="#c0c0c0" stroke="transparent" points="8.5,-169.2 8.5,-191.2 155.5,-191.2 155.5,-169.2 8.5,-169.2"/>
<polygon fill="none" stroke="#000000" points="8.5,-169.2 8.5,-191.2 155.5,-191.2 155.5,-169.2 8.5,-169.2"/>
<image xlink:href="../../images/foreignKeys.png" width="11px" height="12px" preserveAspectRatio="xMinYMin meet" x="13.5" y="-186.2"/>
<text text-anchor="start" x="28.5" y="-176.3" font-family="Helvetica,sans-Serif" font-size="11.00" fill="#000000">assigned_user_id</text>
<polygon fill="none" stroke="#000000" points="8.5,-150.2 8.5,-169.2 155.5,-169.2 155.5,-150.2 8.5,-150.2"/>
<text text-anchor="start" x="11.5" y="-156.3" font-family="Helvetica,sans-Serif" font-size="11.00" fill="#000000">...</text>
<polygon fill="#ffffff" stroke="transparent" points="8.5,-131.2 8.5,-150.2 75.5,-150.2 75.5,-131.2 8.5,-131.2"/>
<polygon fill="none" stroke="#000000" points="8.5,-131.2 8.5,-150.2 75.5,-150.2 75.5,-131.2 8.5,-131.2"/>
<text text-anchor="start" x="11.5" y="-137.3" font-family="Helvetica,sans-Serif" font-size="11.00" fill="#000000">&lt; 3</text>
<polygon fill="#ffffff" stroke="transparent" points="75.5,-131.2 75.5,-150.2 110.5,-150.2 110.5,-131.2 75.5,-131.2"/>
<polygon fill="none" stroke="#000000" points="75.5,-131.2 75.5,-150.2 110.5,-150.2 110.5,-131.2 75.5,-131.2"/>
<text text-anchor="start" x="101.3862" y="-137.3" font-family="Helvetica,sans-Serif" font-size="11.00" fill="#000000"> &#160;</text>
<polygon fill="#ffffff" stroke="transparent" points="110.5,-131.2 110.5,-150.2 155.5,-150.2 155.5,-131.2 110.5,-131.2"/>
<polygon fill="none" stroke="#000000" points="110.5,-131.2 110.5,-150.2 155.5,-150.2 155.5,-131.2 110.5,-131.2"/>
<text text-anchor="start" x="136.9053" y="-137.3" font-family="Helvetica,sans-Serif" font-size="11.00" fill="#000000">2 &gt;</text>
</a>
</g>
</g>
<!-- aos_pdf_templates_audit&#45;&gt;aos_pdf_templates -->
<g id="edge1" class="edge">
<title>aos_pdf_templates_audit:w&#45;&gt;aos_pdf_templates:e</title>
<path fill="none" stroke="#000000" d="M191.776,-246.2C179.7815,-246.2 172.3229,-246.2 155.5,-246.2"/>
<polygon fill="#000000" stroke="#000000" points="198.5,-246.2001 206.5,-249.8 202.5,-246.2 206.5,-246.2 206.5,-246.2 206.5,-246.2 202.5,-246.2 206.5,-242.6 198.5,-246.2001 198.5,-246.2001"/>
<ellipse fill="none" stroke="#000000" cx="195.3" cy="-246.2001" rx="3.2" ry="3.2"/>
</g>
</g>
</svg>
