<?xml version="1.0" encoding="UTF-8" standalone="no"?>
<!DOCTYPE svg PUBLIC "-//W3C//DTD SVG 1.1//EN"
 "http://www.w3.org/Graphics/SVG/1.1/DTD/svg11.dtd">
<!-- Generated by graphviz version 2.40.1 (20161225.0304)
 -->
<!-- Title: twoDegreesRelationshipsDiagram Pages: 1 -->
<svg width="694pt" height="520pt"
 viewBox="0.00 0.00 694.00 519.70" xmlns="http://www.w3.org/2000/svg" xmlns:xlink="http://www.w3.org/1999/xlink">
<g id="graph0" class="graph" transform="scale(1 1) rotate(0) translate(4 515.7)">
<title>twoDegreesRelationshipsDiagram</title>
<polygon fill="#ffffff" stroke="transparent" points="-4,4 -4,-515.7 690,-515.7 690,4 -4,4"/>
<text text-anchor="middle" x="72.4936" y="-7.3" font-family="Helvetica,sans-Serif" font-size="11.00" fill="#000000">Generated by SchemaSpy</text>
<!-- aos_products -->
<g id="node1" class="node">
<title>aos_products</title>
<g id="a_node1"><a xlink:href="../../tables/aos_products.html" xlink:title="aos_products" target="_top">
<polygon fill="#ffffff" stroke="transparent" points="217,-70.2 217,-241.2 404,-241.2 404,-70.2 217,-70.2"/>
<polygon fill="#f5f5f5" stroke="transparent" points="217.5,-217.7 217.5,-240.7 404.5,-240.7 404.5,-217.7 217.5,-217.7"/>
<polygon fill="none" stroke="#000000" points="217.5,-217.7 217.5,-240.7 404.5,-240.7 404.5,-217.7 217.5,-217.7"/>
<text text-anchor="start" x="222.5" y="-226.8" font-family="Helvetica,sans-Serif" font-weight="bold" font-size="11.00" fill="#000000">aos_products</text>
<text text-anchor="start" x="369.5437" y="-225.8" font-family="Helvetica,sans-Serif" font-size="11.00" fill="#000000">[table]</text>
<polygon fill="none" stroke="#000000" points="217.5,-195.7 217.5,-217.7 404.5,-217.7 404.5,-195.7 217.5,-195.7"/>
<image xlink:href="../../images/primaryKeys.png" width="11px" height="12px" preserveAspectRatio="xMinYMin meet" x="222.5" y="-212.7"/>
<text text-anchor="start" x="237.5" y="-202.8" font-family="Helvetica,sans-Serif" font-size="11.00" fill="#000000">id</text>
<polygon fill="#c0c0c0" stroke="transparent" points="217.5,-173.7 217.5,-195.7 404.5,-195.7 404.5,-173.7 217.5,-173.7"/>
<polygon fill="none" stroke="#000000" points="217.5,-173.7 217.5,-195.7 404.5,-195.7 404.5,-173.7 217.5,-173.7"/>
<image xlink:href="../../images/foreignKeys.png" width="11px" height="12px" preserveAspectRatio="xMinYMin meet" x="222.5" y="-190.7"/>
<text text-anchor="start" x="237.5" y="-180.8" font-family="Helvetica,sans-Serif" font-size="11.00" fill="#000000">modified_user_id</text>
<polygon fill="#c0c0c0" stroke="transparent" points="217.5,-151.7 217.5,-173.7 404.5,-173.7 404.5,-151.7 217.5,-151.7"/>
<polygon fill="none" stroke="#000000" points="217.5,-151.7 217.5,-173.7 404.5,-173.7 404.5,-151.7 217.5,-151.7"/>
<image xlink:href="../../images/foreignKeys.png" width="11px" height="12px" preserveAspectRatio="xMinYMin meet" x="222.5" y="-168.7"/>
<text text-anchor="start" x="237.5" y="-158.8" font-family="Helvetica,sans-Serif" font-size="11.00" fill="#000000">created_by</text>
<polygon fill="#c0c0c0" stroke="transparent" points="217.5,-129.7 217.5,-151.7 404.5,-151.7 404.5,-129.7 217.5,-129.7"/>
<polygon fill="none" stroke="#000000" points="217.5,-129.7 217.5,-151.7 404.5,-151.7 404.5,-129.7 217.5,-129.7"/>
<image xlink:href="../../images/foreignKeys.png" width="11px" height="12px" preserveAspectRatio="xMinYMin meet" x="222.5" y="-146.7"/>
<text text-anchor="start" x="237.5" y="-136.8" font-family="Helvetica,sans-Serif" font-size="11.00" fill="#000000">assigned_user_id</text>
<polygon fill="none" stroke="#000000" points="217.5,-107.7 217.5,-129.7 404.5,-129.7 404.5,-107.7 217.5,-107.7"/>
<image xlink:href="../../images/foreignKeys.png" width="11px" height="12px" preserveAspectRatio="xMinYMin meet" x="222.5" y="-124.7"/>
<text text-anchor="start" x="237.5" y="-114.8" font-family="Helvetica,sans-Serif" font-size="11.00" fill="#000000">aos_product_category_id</text>
<polygon fill="none" stroke="#000000" points="217.5,-88.7 217.5,-107.7 404.5,-107.7 404.5,-88.7 217.5,-88.7"/>
<text text-anchor="start" x="220.5" y="-94.8" font-family="Helvetica,sans-Serif" font-size="11.00" fill="#000000">...</text>
<polygon fill="#ffffff" stroke="transparent" points="217.5,-69.7 217.5,-88.7 304.5,-88.7 304.5,-69.7 217.5,-69.7"/>
<polygon fill="none" stroke="#000000" points="217.5,-69.7 217.5,-88.7 304.5,-88.7 304.5,-69.7 217.5,-69.7"/>
<text text-anchor="start" x="220.5" y="-75.8" font-family="Helvetica,sans-Serif" font-size="11.00" fill="#000000">&lt; 4</text>
<polygon fill="#ffffff" stroke="transparent" points="304.5,-69.7 304.5,-88.7 349.5,-88.7 349.5,-69.7 304.5,-69.7"/>
<polygon fill="none" stroke="#000000" points="304.5,-69.7 304.5,-88.7 349.5,-88.7 349.5,-69.7 304.5,-69.7"/>
<text text-anchor="start" x="340.3862" y="-75.8" font-family="Helvetica,sans-Serif" font-size="11.00" fill="#000000"> &#160;</text>
<polygon fill="#ffffff" stroke="transparent" points="349.5,-69.7 349.5,-88.7 404.5,-88.7 404.5,-69.7 349.5,-69.7"/>
<polygon fill="none" stroke="#000000" points="349.5,-69.7 349.5,-88.7 404.5,-88.7 404.5,-69.7 349.5,-69.7"/>
<text text-anchor="start" x="385.9053" y="-75.8" font-family="Helvetica,sans-Serif" font-size="11.00" fill="#000000">3 &gt;</text>
</a>
</g>
</g>
<!-- aos_product_categories -->
<g id="node2" class="node">
<title>aos_product_categories</title>
<g id="a_node2"><a xlink:href="../../tables/aos_product_categories.html" xlink:title="aos_product_categories" target="_top">
<polygon fill="#ffffff" stroke="transparent" points="8,-54.2 8,-115.2 168,-115.2 168,-54.2 8,-54.2"/>
<polygon fill="#f5f5f5" stroke="transparent" points="8,-91.7 8,-114.7 168,-114.7 168,-91.7 8,-91.7"/>
<polygon fill="none" stroke="#000000" points="8,-91.7 8,-114.7 168,-114.7 168,-91.7 8,-91.7"/>
<text text-anchor="start" x="12.8139" y="-100.8" font-family="Helvetica,sans-Serif" font-weight="bold" font-size="11.00" fill="#000000">aos_product_categories</text>
<text text-anchor="start" x="133.5219" y="-99.8" font-family="Helvetica,sans-Serif" font-size="11.00" fill="#000000">[table]</text>
<polygon fill="none" stroke="#000000" points="8,-72.7 8,-91.7 168,-91.7 168,-72.7 8,-72.7"/>
<text text-anchor="start" x="11" y="-78.8" font-family="Helvetica,sans-Serif" font-size="11.00" fill="#000000">...</text>
<polygon fill="#ffffff" stroke="transparent" points="8,-53.7 8,-72.7 82,-72.7 82,-53.7 8,-53.7"/>
<polygon fill="none" stroke="#000000" points="8,-53.7 8,-72.7 82,-72.7 82,-53.7 8,-53.7"/>
<text text-anchor="start" x="11" y="-59.8" font-family="Helvetica,sans-Serif" font-size="11.00" fill="#000000">&lt; 4</text>
<polygon fill="#ffffff" stroke="transparent" points="82,-53.7 82,-72.7 120,-72.7 120,-53.7 82,-53.7"/>
<polygon fill="none" stroke="#000000" points="82,-53.7 82,-72.7 120,-72.7 120,-53.7 82,-53.7"/>
<text text-anchor="start" x="110.8862" y="-59.8" font-family="Helvetica,sans-Serif" font-size="11.00" fill="#000000"> &#160;</text>
<polygon fill="#ffffff" stroke="transparent" points="120,-53.7 120,-72.7 168,-72.7 168,-53.7 120,-53.7"/>
<polygon fill="none" stroke="#000000" points="120,-53.7 120,-72.7 168,-72.7 168,-53.7 120,-53.7"/>
<text text-anchor="start" x="149.4053" y="-59.8" font-family="Helvetica,sans-Serif" font-size="11.00" fill="#000000">4 &gt;</text>
</a>
</g>
</g>
<!-- aos_products&#45;&gt;aos_product_categories -->
<g id="edge1" class="edge">
<title>aos_products:w&#45;&gt;aos_product_categories:e</title>
<path fill="none" stroke="#000000" d="M203.5092,-114.1631C190.8361,-104.283 189.4584,-81.7 168,-81.7"/>
<polygon fill="#000000" stroke="#000000" points="209.8901,-116.2322 216.3895,-122.1244 213.6951,-117.4661 217.5,-118.7 217.5,-118.7 217.5,-118.7 213.6951,-117.4661 218.6105,-115.2756 209.8901,-116.2322 209.8901,-116.2322"/>
<ellipse fill="none" stroke="#000000" cx="206.8462" cy="-115.2451" rx="3.2" ry="3.2"/>
</g>
<!-- aos_products_audit -->
<g id="node3" class="node">
<title>aos_products_audit</title>
<g id="a_node3"><a xlink:href="../../tables/aos_products_audit.html" xlink:title="aos_products_audit" target="_top">
<polygon fill="#ffffff" stroke="transparent" points="453,-241.7 453,-507.7 678,-507.7 678,-241.7 453,-241.7"/>
<polygon fill="#f5f5f5" stroke="transparent" points="455.5,-482.7 455.5,-505.7 676.5,-505.7 676.5,-482.7 455.5,-482.7"/>
<polygon fill="none" stroke="#000000" points="455.5,-482.7 455.5,-505.7 676.5,-505.7 676.5,-482.7 455.5,-482.7"/>
<text text-anchor="start" x="460.5" y="-491.8" font-family="Helvetica,sans-Serif" font-weight="bold" font-size="11.00" fill="#000000">aos_products_audit</text>
<text text-anchor="start" x="641.5437" y="-490.8" font-family="Helvetica,sans-Serif" font-size="11.00" fill="#000000">[table]</text>
<polygon fill="none" stroke="#000000" points="455.5,-460.7 455.5,-482.7 609.5,-482.7 609.5,-460.7 455.5,-460.7"/>
<image xlink:href="../../images/primaryKeys.png" width="11px" height="12px" preserveAspectRatio="xMinYMin meet" x="460.5" y="-477.7"/>
<text text-anchor="start" x="475.5" y="-467.8" font-family="Helvetica,sans-Serif" font-size="11.00" fill="#000000">id</text>
<polygon fill="none" stroke="#000000" points="609.5,-460.7 609.5,-482.7 676.5,-482.7 676.5,-460.7 609.5,-460.7"/>
<text text-anchor="start" x="612.5" y="-468.4" font-family="Helvetica,sans-Serif" font-size="11.00" fill="#000000">char[36]</text>
<polygon fill="#ffffff" stroke="transparent" points="455.5,-438.7 455.5,-460.7 609.5,-460.7 609.5,-438.7 455.5,-438.7"/>
<polygon fill="none" stroke="#000000" points="455.5,-438.7 455.5,-460.7 609.5,-460.7 609.5,-438.7 455.5,-438.7"/>
<image xlink:href="../../images/foreignKeys.png" width="11px" height="12px" preserveAspectRatio="xMinYMin meet" x="460.5" y="-455.7"/>
<text text-anchor="start" x="475.5" y="-445.8" font-family="Helvetica,sans-Serif" font-size="11.00" fill="#000000">parent_id</text>
<polygon fill="none" stroke="#000000" points="609.5,-438.7 609.5,-460.7 676.5,-460.7 676.5,-438.7 609.5,-438.7"/>
<text text-anchor="start" x="612.5" y="-446.4" font-family="Helvetica,sans-Serif" font-size="11.00" fill="#000000">char[36]</text>
<polygon fill="none" stroke="#000000" points="455.5,-416.7 455.5,-438.7 609.5,-438.7 609.5,-416.7 455.5,-416.7"/>
<text text-anchor="start" x="475.5" y="-423.8" font-family="Helvetica,sans-Serif" font-size="11.00" fill="#000000">date_created</text>
<polygon fill="none" stroke="#000000" points="609.5,-416.7 609.5,-438.7 676.5,-438.7 676.5,-416.7 609.5,-416.7"/>
<text text-anchor="start" x="612.5" y="-424.4" font-family="Helvetica,sans-Serif" font-size="11.00" fill="#000000">datetime[26]</text>
<polygon fill="none" stroke="#000000" points="455.5,-394.7 455.5,-416.7 609.5,-416.7 609.5,-394.7 455.5,-394.7"/>
<text text-anchor="start" x="475.5" y="-401.8" font-family="Helvetica,sans-Serif" font-size="11.00" fill="#000000">created_by</text>
<polygon fill="none" stroke="#000000" points="609.5,-394.7 609.5,-416.7 676.5,-416.7 676.5,-394.7 609.5,-394.7"/>
<text text-anchor="start" x="612.5" y="-402.4" font-family="Helvetica,sans-Serif" font-size="11.00" fill="#000000">varchar[36]</text>
<polygon fill="none" stroke="#000000" points="455.5,-372.7 455.5,-394.7 609.5,-394.7 609.5,-372.7 455.5,-372.7"/>
<text text-anchor="start" x="475.5" y="-379.8" font-family="Helvetica,sans-Serif" font-size="11.00" fill="#000000">field_name</text>
<polygon fill="none" stroke="#000000" points="609.5,-372.7 609.5,-394.7 676.5,-394.7 676.5,-372.7 609.5,-372.7"/>
<text text-anchor="start" x="612.4365" y="-380.4" font-family="Helvetica,sans-Serif" font-size="11.00" fill="#000000">varchar[100]</text>
<polygon fill="none" stroke="#000000" points="455.5,-350.7 455.5,-372.7 609.5,-372.7 609.5,-350.7 455.5,-350.7"/>
<text text-anchor="start" x="475.5" y="-357.8" font-family="Helvetica,sans-Serif" font-size="11.00" fill="#000000">data_type</text>
<polygon fill="none" stroke="#000000" points="609.5,-350.7 609.5,-372.7 676.5,-372.7 676.5,-350.7 609.5,-350.7"/>
<text text-anchor="start" x="612.4365" y="-358.4" font-family="Helvetica,sans-Serif" font-size="11.00" fill="#000000">varchar[100]</text>
<polygon fill="none" stroke="#000000" points="455.5,-328.7 455.5,-350.7 609.5,-350.7 609.5,-328.7 455.5,-328.7"/>
<text text-anchor="start" x="475.5" y="-335.8" font-family="Helvetica,sans-Serif" font-size="11.00" fill="#000000">before_value_string</text>
<polygon fill="none" stroke="#000000" points="609.5,-328.7 609.5,-350.7 676.5,-350.7 676.5,-328.7 609.5,-328.7"/>
<text text-anchor="start" x="612.4365" y="-336.4" font-family="Helvetica,sans-Serif" font-size="11.00" fill="#000000">varchar[255]</text>
<polygon fill="none" stroke="#000000" points="455.5,-306.7 455.5,-328.7 609.5,-328.7 609.5,-306.7 455.5,-306.7"/>
<text text-anchor="start" x="475.5" y="-313.8" font-family="Helvetica,sans-Serif" font-size="11.00" fill="#000000">after_value_string</text>
<polygon fill="none" stroke="#000000" points="609.5,-306.7 609.5,-328.7 676.5,-328.7 676.5,-306.7 609.5,-306.7"/>
<text text-anchor="start" x="612.4365" y="-314.4" font-family="Helvetica,sans-Serif" font-size="11.00" fill="#000000">varchar[255]</text>
<polygon fill="none" stroke="#000000" points="455.5,-284.7 455.5,-306.7 609.5,-306.7 609.5,-284.7 455.5,-284.7"/>
<text text-anchor="start" x="475.5" y="-291.8" font-family="Helvetica,sans-Serif" font-size="11.00" fill="#000000">before_value_text</text>
<polygon fill="none" stroke="#000000" points="609.5,-284.7 609.5,-306.7 676.5,-306.7 676.5,-284.7 609.5,-284.7"/>
<text text-anchor="start" x="612.5" y="-292.4" font-family="Helvetica,sans-Serif" font-size="11.00" fill="#000000">text[65535]</text>
<polygon fill="none" stroke="#000000" points="455.5,-262.7 455.5,-284.7 609.5,-284.7 609.5,-262.7 455.5,-262.7"/>
<text text-anchor="start" x="475.5" y="-269.8" font-family="Helvetica,sans-Serif" font-size="11.00" fill="#000000">after_value_text</text>
<polygon fill="none" stroke="#000000" points="609.5,-262.7 609.5,-284.7 676.5,-284.7 676.5,-262.7 609.5,-262.7"/>
<text text-anchor="start" x="612.5" y="-270.4" font-family="Helvetica,sans-Serif" font-size="11.00" fill="#000000">text[65535]</text>
<polygon fill="#ffffff" stroke="transparent" points="455.5,-243.7 455.5,-262.7 536.5,-262.7 536.5,-243.7 455.5,-243.7"/>
<polygon fill="none" stroke="#000000" points="455.5,-243.7 455.5,-262.7 536.5,-262.7 536.5,-243.7 455.5,-243.7"/>
<text text-anchor="start" x="458.5" y="-249.8" font-family="Helvetica,sans-Serif" font-size="11.00" fill="#000000">&lt; 1</text>
<polygon fill="#ffffff" stroke="transparent" points="536.5,-243.7 536.5,-262.7 609.5,-262.7 609.5,-243.7 536.5,-243.7"/>
<polygon fill="none" stroke="#000000" points="536.5,-243.7 536.5,-262.7 609.5,-262.7 609.5,-243.7 536.5,-243.7"/>
<text text-anchor="start" x="600.3862" y="-249.8" font-family="Helvetica,sans-Serif" font-size="11.00" fill="#000000"> &#160;</text>
<polygon fill="#ffffff" stroke="transparent" points="609.5,-243.7 609.5,-262.7 676.5,-262.7 676.5,-243.7 609.5,-243.7"/>
<polygon fill="none" stroke="#000000" points="609.5,-243.7 609.5,-262.7 676.5,-262.7 676.5,-243.7 609.5,-243.7"/>
<text text-anchor="start" x="657.9053" y="-249.8" font-family="Helvetica,sans-Serif" font-size="11.00" fill="#000000">0 &gt;</text>
<polygon fill="none" stroke="#000000" stroke-width="2" points="454,-242.7 454,-506.7 677,-506.7 677,-242.7 454,-242.7"/>
</a>
</g>
</g>
<!-- aos_products_audit&#45;&gt;aos_products -->
<g id="edge2" class="edge">
<title>aos_products_audit:w&#45;&gt;aos_products:e</title>
<path fill="none" stroke="#000000" d="M440.7817,-447.8837C361.6606,-425.6469 509.2491,-206.7 404.5,-206.7"/>
<polygon fill="#000000" stroke="#000000" points="447.5602,-448.7202 455.0591,-453.2729 451.5301,-449.2101 455.5,-449.7 455.5,-449.7 455.5,-449.7 451.5301,-449.2101 455.9409,-446.1271 447.5602,-448.7202 447.5602,-448.7202"/>
<ellipse fill="none" stroke="#000000" cx="444.3843" cy="-448.3282" rx="3.2" ry="3.2"/>
</g>
<!-- aos_products_quotes -->
<g id="node4" class="node">
<title>aos_products_quotes</title>
<g id="a_node4"><a xlink:href="../../tables/aos_products_quotes.html" xlink:title="aos_products_quotes" target="_top">
<polygon fill="#ffffff" stroke="transparent" points="491.5,-159.2 491.5,-220.2 639.5,-220.2 639.5,-159.2 491.5,-159.2"/>
<polygon fill="#f5f5f5" stroke="transparent" points="491.5,-196.7 491.5,-219.7 639.5,-219.7 639.5,-196.7 491.5,-196.7"/>
<polygon fill="none" stroke="#000000" points="491.5,-196.7 491.5,-219.7 639.5,-219.7 639.5,-196.7 491.5,-196.7"/>
<text text-anchor="start" x="496.4228" y="-205.8" font-family="Helvetica,sans-Serif" font-weight="bold" font-size="11.00" fill="#000000">aos_products_quotes</text>
<text text-anchor="start" x="605.0219" y="-204.8" font-family="Helvetica,sans-Serif" font-size="11.00" fill="#000000">[table]</text>
<polygon fill="none" stroke="#000000" points="491.5,-177.7 491.5,-196.7 639.5,-196.7 639.5,-177.7 491.5,-177.7"/>
<text text-anchor="start" x="494.5" y="-183.8" font-family="Helvetica,sans-Serif" font-size="11.00" fill="#000000">...</text>
<polygon fill="#ffffff" stroke="transparent" points="491.5,-158.7 491.5,-177.7 559.5,-177.7 559.5,-158.7 491.5,-158.7"/>
<polygon fill="none" stroke="#000000" points="491.5,-158.7 491.5,-177.7 559.5,-177.7 559.5,-158.7 491.5,-158.7"/>
<text text-anchor="start" x="494.5" y="-164.8" font-family="Helvetica,sans-Serif" font-size="11.00" fill="#000000">&lt; 8</text>
<polygon fill="#ffffff" stroke="transparent" points="559.5,-158.7 559.5,-177.7 594.5,-177.7 594.5,-158.7 559.5,-158.7"/>
<polygon fill="none" stroke="#000000" points="559.5,-158.7 559.5,-177.7 594.5,-177.7 594.5,-158.7 559.5,-158.7"/>
<text text-anchor="start" x="585.3862" y="-164.8" font-family="Helvetica,sans-Serif" font-size="11.00" fill="#000000"> &#160;</text>
<polygon fill="#ffffff" stroke="transparent" points="594.5,-158.7 594.5,-177.7 639.5,-177.7 639.5,-158.7 594.5,-158.7"/>
<polygon fill="none" stroke="#000000" points="594.5,-158.7 594.5,-177.7 639.5,-177.7 639.5,-158.7 594.5,-158.7"/>
<text text-anchor="start" x="620.9053" y="-164.8" font-family="Helvetica,sans-Serif" font-size="11.00" fill="#000000">1 &gt;</text>
</a>
</g>
</g>
<!-- aos_products_quotes&#45;&gt;aos_products -->
<g id="edge3" class="edge">
<title>aos_products_quotes:w&#45;&gt;aos_products:e</title>
<path fill="none" stroke="#000000" d="M476.8591,-187.7193C449.1345,-191.7949 438.7509,-206.7 404.5,-206.7"/>
<polygon fill="#000000" stroke="#000000" points="483.5193,-187.2557 491.7501,-190.2913 487.5097,-186.9778 491.5,-186.7 491.5,-186.7 491.5,-186.7 487.5097,-186.9778 491.2499,-183.1087 483.5193,-187.2557 483.5193,-187.2557"/>
<ellipse fill="none" stroke="#000000" cx="480.327" cy="-187.4779" rx="3.2" ry="3.2"/>
</g>
<!-- securitygroups_records -->
<g id="node5" class="node">
<title>securitygroups_records</title>
<g id="a_node5"><a xlink:href="../../tables/securitygroups_records.html" xlink:title="securitygroups_records" target="_top">
<polygon fill="#ffffff" stroke="transparent" points="487,-38.2 487,-99.2 644,-99.2 644,-38.2 487,-38.2"/>
<polygon fill="#f5f5f5" stroke="transparent" points="487.5,-75.7 487.5,-98.7 644.5,-98.7 644.5,-75.7 487.5,-75.7"/>
<polygon fill="none" stroke="#000000" points="487.5,-75.7 487.5,-98.7 644.5,-98.7 644.5,-75.7 487.5,-75.7"/>
<text text-anchor="start" x="492.3528" y="-84.8" font-family="Helvetica,sans-Serif" font-weight="bold" font-size="11.00" fill="#000000">securitygroups_records</text>
<text text-anchor="start" x="610.0219" y="-83.8" font-family="Helvetica,sans-Serif" font-size="11.00" fill="#000000">[table]</text>
<polygon fill="none" stroke="#000000" points="487.5,-56.7 487.5,-75.7 644.5,-75.7 644.5,-56.7 487.5,-56.7"/>
<text text-anchor="start" x="490.5" y="-62.8" font-family="Helvetica,sans-Serif" font-size="11.00" fill="#000000">...</text>
<polygon fill="#ffffff" stroke="transparent" points="487.5,-37.7 487.5,-56.7 567.5,-56.7 567.5,-37.7 487.5,-37.7"/>
<polygon fill="none" stroke="#000000" points="487.5,-37.7 487.5,-56.7 567.5,-56.7 567.5,-37.7 487.5,-37.7"/>
<text text-anchor="start" x="490.5" y="-43.8" font-family="Helvetica,sans-Serif" font-size="11.00" fill="#000000">&lt; 41</text>
<polygon fill="#ffffff" stroke="transparent" points="567.5,-37.7 567.5,-56.7 605.5,-56.7 605.5,-37.7 567.5,-37.7"/>
<polygon fill="none" stroke="#000000" points="567.5,-37.7 567.5,-56.7 605.5,-56.7 605.5,-37.7 567.5,-37.7"/>
<text text-anchor="start" x="596.3862" y="-43.8" font-family="Helvetica,sans-Serif" font-size="11.00" fill="#000000"> &#160;</text>
<polygon fill="#ffffff" stroke="transparent" points="605.5,-37.7 605.5,-56.7 644.5,-56.7 644.5,-37.7 605.5,-37.7"/>
<polygon fill="none" stroke="#000000" points="605.5,-37.7 605.5,-56.7 644.5,-56.7 644.5,-37.7 605.5,-37.7"/>
<text text-anchor="start" x="635.3862" y="-43.8" font-family="Helvetica,sans-Serif" font-size="11.00" fill="#000000"> &#160;</text>
</a>
</g>
</g>
<!-- securitygroups_records&#45;&gt;aos_products -->
<g id="edge5" class="edge">
<title>securitygroups_records:w&#45;&gt;aos_products:e</title>
<path fill="none" stroke="#000000" d="M474.271,-72.5007C447.9499,-100.666 436.0301,-206.7 404.5,-206.7"/>
<polygon fill="#000000" stroke="#000000" points="480.3851,-69.3576 489.1459,-68.9017 483.9425,-67.5288 487.5,-65.7 487.5,-65.7 487.5,-65.7 483.9425,-67.5288 485.8541,-62.4983 480.3851,-69.3576 480.3851,-69.3576"/>
<ellipse fill="none" stroke="#000000" cx="477.5391" cy="-70.8207" rx="3.2" ry="3.2"/>
</g>
<!-- securitygroups_records&#45;&gt;aos_product_categories -->
<g id="edge4" class="edge">
<title>securitygroups_records:w&#45;&gt;aos_product_categories:e</title>
<path fill="none" stroke="#000000" d="M473.0767,-65.3738C450.5586,-64.291 440.2481,-60.8207 412,-59.7 321.8487,-56.1235 296.5007,-37.7073 209,-59.7 188.944,-64.7409 188.6798,-81.7 168,-81.7"/>
<polygon fill="#000000" stroke="#000000" points="479.502,-65.5191 487.4186,-69.2991 483.501,-65.6095 487.5,-65.7 487.5,-65.7 487.5,-65.7 483.501,-65.6095 487.5814,-62.1009 479.502,-65.5191 479.502,-65.5191"/>
<ellipse fill="none" stroke="#000000" cx="476.3029" cy="-65.4467" rx="3.2" ry="3.2"/>
</g>
</g>
</svg>
