<?xml version="1.0" encoding="UTF-8" standalone="no"?>
<!DOCTYPE svg PUBLIC "-//W3C//DTD SVG 1.1//EN"
 "http://www.w3.org/Graphics/SVG/1.1/DTD/svg11.dtd">
<!-- Generated by graphviz version 2.40.1 (20161225.0304)
 -->
<!-- Title: oneDegreeRelationshipsDiagram Pages: 1 -->
<svg width="575pt" height="479pt"
 viewBox="0.00 0.00 575.00 479.20" xmlns="http://www.w3.org/2000/svg" xmlns:xlink="http://www.w3.org/1999/xlink">
<g id="graph0" class="graph" transform="scale(1 1) rotate(0) translate(4 475.2)">
<title>oneDegreeRelationshipsDiagram</title>
<polygon fill="#ffffff" stroke="transparent" points="-4,4 -4,-475.2 571,-475.2 571,4 -4,4"/>
<text text-anchor="middle" x="72.4936" y="-7.3" font-family="Helvetica,sans-Serif" font-size="11.00" fill="#000000">Generated by SchemaSpy</text>
<!-- aos_quotes_aos_invoices_c -->
<g id="node1" class="node">
<title>aos_quotes_aos_invoices_c</title>
<g id="a_node1"><a xlink:href="../../tables/aos_quotes_aos_invoices_c.html" xlink:title="aos_quotes_aos_invoices_c" target="_top">
<polygon fill="#ffffff" stroke="transparent" points="280,-271.7 280,-427.7 559,-427.7 559,-271.7 280,-271.7"/>
<polygon fill="#f5f5f5" stroke="transparent" points="282.5,-402.7 282.5,-425.7 557.5,-425.7 557.5,-402.7 282.5,-402.7"/>
<polygon fill="none" stroke="#000000" points="282.5,-402.7 282.5,-425.7 557.5,-425.7 557.5,-402.7 282.5,-402.7"/>
<text text-anchor="start" x="287.5" y="-411.8" font-family="Helvetica,sans-Serif" font-weight="bold" font-size="11.00" fill="#000000">aos_quotes_aos_invoices_c</text>
<text text-anchor="start" x="522.5437" y="-410.8" font-family="Helvetica,sans-Serif" font-size="11.00" fill="#000000">[table]</text>
<polygon fill="none" stroke="#000000" points="282.5,-380.7 282.5,-402.7 491.5,-402.7 491.5,-380.7 282.5,-380.7"/>
<image xlink:href="../../images/primaryKeys.png" width="11px" height="12px" preserveAspectRatio="xMinYMin meet" x="287.5" y="-397.7"/>
<text text-anchor="start" x="302.5" y="-387.8" font-family="Helvetica,sans-Serif" font-size="11.00" fill="#000000">id</text>
<polygon fill="none" stroke="#000000" points="491.5,-380.7 491.5,-402.7 557.5,-402.7 557.5,-380.7 491.5,-380.7"/>
<text text-anchor="start" x="494.5" y="-388.4" font-family="Helvetica,sans-Serif" font-size="11.00" fill="#000000">varchar[36]</text>
<polygon fill="none" stroke="#000000" points="282.5,-358.7 282.5,-380.7 491.5,-380.7 491.5,-358.7 282.5,-358.7"/>
<text text-anchor="start" x="302.5" y="-365.8" font-family="Helvetica,sans-Serif" font-size="11.00" fill="#000000">date_modified</text>
<polygon fill="none" stroke="#000000" points="491.5,-358.7 491.5,-380.7 557.5,-380.7 557.5,-358.7 491.5,-358.7"/>
<text text-anchor="start" x="494.2401" y="-366.4" font-family="Helvetica,sans-Serif" font-size="11.00" fill="#000000">datetime[26]</text>
<polygon fill="none" stroke="#000000" points="282.5,-336.7 282.5,-358.7 491.5,-358.7 491.5,-336.7 282.5,-336.7"/>
<text text-anchor="start" x="302.5" y="-343.8" font-family="Helvetica,sans-Serif" font-size="11.00" fill="#000000">deleted</text>
<polygon fill="none" stroke="#000000" points="491.5,-336.7 491.5,-358.7 557.5,-358.7 557.5,-336.7 491.5,-336.7"/>
<text text-anchor="start" x="494.5" y="-344.4" font-family="Helvetica,sans-Serif" font-size="11.00" fill="#000000">bit[1]</text>
<polygon fill="#ffffff" stroke="transparent" points="282.5,-314.7 282.5,-336.7 491.5,-336.7 491.5,-314.7 282.5,-314.7"/>
<polygon fill="none" stroke="#000000" points="282.5,-314.7 282.5,-336.7 491.5,-336.7 491.5,-314.7 282.5,-314.7"/>
<image xlink:href="../../images/foreignKeys.png" width="11px" height="12px" preserveAspectRatio="xMinYMin meet" x="287.5" y="-331.7"/>
<text text-anchor="start" x="302.5" y="-321.8" font-family="Helvetica,sans-Serif" font-size="11.00" fill="#000000">aos_quotes77d9_quotes_ida</text>
<polygon fill="none" stroke="#000000" points="491.5,-314.7 491.5,-336.7 557.5,-336.7 557.5,-314.7 491.5,-314.7"/>
<text text-anchor="start" x="494.5" y="-322.4" font-family="Helvetica,sans-Serif" font-size="11.00" fill="#000000">varchar[36]</text>
<polygon fill="#ffffff" stroke="transparent" points="282.5,-292.7 282.5,-314.7 491.5,-314.7 491.5,-292.7 282.5,-292.7"/>
<polygon fill="none" stroke="#000000" points="282.5,-292.7 282.5,-314.7 491.5,-314.7 491.5,-292.7 282.5,-292.7"/>
<image xlink:href="../../images/foreignKeys.png" width="11px" height="12px" preserveAspectRatio="xMinYMin meet" x="287.5" y="-309.7"/>
<text text-anchor="start" x="302.5" y="-299.8" font-family="Helvetica,sans-Serif" font-size="11.00" fill="#000000">aos_quotes6b83nvoices_idb</text>
<polygon fill="none" stroke="#000000" points="491.5,-292.7 491.5,-314.7 557.5,-314.7 557.5,-292.7 491.5,-292.7"/>
<text text-anchor="start" x="494.5" y="-300.4" font-family="Helvetica,sans-Serif" font-size="11.00" fill="#000000">varchar[36]</text>
<polygon fill="#ffffff" stroke="transparent" points="282.5,-273.7 282.5,-292.7 391.5,-292.7 391.5,-273.7 282.5,-273.7"/>
<polygon fill="none" stroke="#000000" points="282.5,-273.7 282.5,-292.7 391.5,-292.7 391.5,-273.7 282.5,-273.7"/>
<text text-anchor="start" x="285.5" y="-279.8" font-family="Helvetica,sans-Serif" font-size="11.00" fill="#000000">&lt; 2</text>
<polygon fill="#ffffff" stroke="transparent" points="391.5,-273.7 391.5,-292.7 491.5,-292.7 491.5,-273.7 391.5,-273.7"/>
<polygon fill="none" stroke="#000000" points="391.5,-273.7 391.5,-292.7 491.5,-292.7 491.5,-273.7 391.5,-273.7"/>
<text text-anchor="start" x="482.3862" y="-279.8" font-family="Helvetica,sans-Serif" font-size="11.00" fill="#000000"> &#160;</text>
<polygon fill="#ffffff" stroke="transparent" points="491.5,-273.7 491.5,-292.7 557.5,-292.7 557.5,-273.7 491.5,-273.7"/>
<polygon fill="none" stroke="#000000" points="491.5,-273.7 491.5,-292.7 557.5,-292.7 557.5,-273.7 491.5,-273.7"/>
<text text-anchor="start" x="538.9053" y="-279.8" font-family="Helvetica,sans-Serif" font-size="11.00" fill="#000000">0 &gt;</text>
<polygon fill="none" stroke="#000000" stroke-width="2" points="281,-272.7 281,-426.7 558,-426.7 558,-272.7 281,-272.7"/>
</a>
</g>
</g>
<!-- aos_invoices -->
<g id="node2" class="node">
<title>aos_invoices</title>
<g id="a_node2"><a xlink:href="../../tables/aos_invoices.html" xlink:title="aos_invoices" target="_top">
<polygon fill="#ffffff" stroke="transparent" points="8,-38.2 8,-231.2 231,-231.2 231,-38.2 8,-38.2"/>
<polygon fill="#f5f5f5" stroke="transparent" points="8.5,-207.7 8.5,-230.7 231.5,-230.7 231.5,-207.7 8.5,-207.7"/>
<polygon fill="none" stroke="#000000" points="8.5,-207.7 8.5,-230.7 231.5,-230.7 231.5,-207.7 8.5,-207.7"/>
<text text-anchor="start" x="13.5" y="-216.8" font-family="Helvetica,sans-Serif" font-weight="bold" font-size="11.00" fill="#000000">aos_invoices</text>
<text text-anchor="start" x="196.5437" y="-215.8" font-family="Helvetica,sans-Serif" font-size="11.00" fill="#000000">[table]</text>
<polygon fill="none" stroke="#000000" points="8.5,-185.7 8.5,-207.7 231.5,-207.7 231.5,-185.7 8.5,-185.7"/>
<image xlink:href="../../images/primaryKeys.png" width="11px" height="12px" preserveAspectRatio="xMinYMin meet" x="13.5" y="-202.7"/>
<text text-anchor="start" x="28.5" y="-192.8" font-family="Helvetica,sans-Serif" font-size="11.00" fill="#000000">id</text>
<polygon fill="#c0c0c0" stroke="transparent" points="8.5,-163.7 8.5,-185.7 231.5,-185.7 231.5,-163.7 8.5,-163.7"/>
<polygon fill="none" stroke="#000000" points="8.5,-163.7 8.5,-185.7 231.5,-185.7 231.5,-163.7 8.5,-163.7"/>
<image xlink:href="../../images/foreignKeys.png" width="11px" height="12px" preserveAspectRatio="xMinYMin meet" x="13.5" y="-180.7"/>
<text text-anchor="start" x="28.5" y="-170.8" font-family="Helvetica,sans-Serif" font-size="11.00" fill="#000000">modified_user_id</text>
<polygon fill="#c0c0c0" stroke="transparent" points="8.5,-141.7 8.5,-163.7 231.5,-163.7 231.5,-141.7 8.5,-141.7"/>
<polygon fill="none" stroke="#000000" points="8.5,-141.7 8.5,-163.7 231.5,-163.7 231.5,-141.7 8.5,-141.7"/>
<image xlink:href="../../images/foreignKeys.png" width="11px" height="12px" preserveAspectRatio="xMinYMin meet" x="13.5" y="-158.7"/>
<text text-anchor="start" x="28.5" y="-148.8" font-family="Helvetica,sans-Serif" font-size="11.00" fill="#000000">created_by</text>
<polygon fill="#c0c0c0" stroke="transparent" points="8.5,-119.7 8.5,-141.7 231.5,-141.7 231.5,-119.7 8.5,-119.7"/>
<polygon fill="none" stroke="#000000" points="8.5,-119.7 8.5,-141.7 231.5,-141.7 231.5,-119.7 8.5,-119.7"/>
<image xlink:href="../../images/foreignKeys.png" width="11px" height="12px" preserveAspectRatio="xMinYMin meet" x="13.5" y="-136.7"/>
<text text-anchor="start" x="28.5" y="-126.8" font-family="Helvetica,sans-Serif" font-size="11.00" fill="#000000">assigned_user_id</text>
<polygon fill="none" stroke="#000000" points="8.5,-97.7 8.5,-119.7 231.5,-119.7 231.5,-97.7 8.5,-97.7"/>
<image xlink:href="../../images/foreignKeys.png" width="11px" height="12px" preserveAspectRatio="xMinYMin meet" x="13.5" y="-114.7"/>
<text text-anchor="start" x="28.5" y="-104.8" font-family="Helvetica,sans-Serif" font-size="11.00" fill="#000000">billing_account_id</text>
<polygon fill="none" stroke="#000000" points="8.5,-75.7 8.5,-97.7 231.5,-97.7 231.5,-75.7 8.5,-75.7"/>
<image xlink:href="../../images/foreignKeys.png" width="11px" height="12px" preserveAspectRatio="xMinYMin meet" x="13.5" y="-92.7"/>
<text text-anchor="start" x="28.5" y="-82.8" font-family="Helvetica,sans-Serif" font-size="11.00" fill="#000000">billing_contact_id</text>
<polygon fill="none" stroke="#000000" points="8.5,-56.7 8.5,-75.7 231.5,-75.7 231.5,-56.7 8.5,-56.7"/>
<text text-anchor="start" x="11.5" y="-62.8" font-family="Helvetica,sans-Serif" font-size="11.00" fill="#000000">...</text>
<polygon fill="#ffffff" stroke="transparent" points="8.5,-37.7 8.5,-56.7 113.5,-56.7 113.5,-37.7 8.5,-37.7"/>
<polygon fill="none" stroke="#000000" points="8.5,-37.7 8.5,-56.7 113.5,-56.7 113.5,-37.7 8.5,-37.7"/>
<text text-anchor="start" x="11.5" y="-43.8" font-family="Helvetica,sans-Serif" font-size="11.00" fill="#000000">&lt; 5</text>
<polygon fill="#ffffff" stroke="transparent" points="113.5,-37.7 113.5,-56.7 167.5,-56.7 167.5,-37.7 113.5,-37.7"/>
<polygon fill="none" stroke="#000000" points="113.5,-37.7 113.5,-56.7 167.5,-56.7 167.5,-37.7 113.5,-37.7"/>
<text text-anchor="start" x="158.3862" y="-43.8" font-family="Helvetica,sans-Serif" font-size="11.00" fill="#000000"> &#160;</text>
<polygon fill="#ffffff" stroke="transparent" points="167.5,-37.7 167.5,-56.7 231.5,-56.7 231.5,-37.7 167.5,-37.7"/>
<polygon fill="none" stroke="#000000" points="167.5,-37.7 167.5,-56.7 231.5,-56.7 231.5,-37.7 167.5,-37.7"/>
<text text-anchor="start" x="212.9053" y="-43.8" font-family="Helvetica,sans-Serif" font-size="11.00" fill="#000000">5 &gt;</text>
</a>
</g>
</g>
<!-- aos_quotes_aos_invoices_c&#45;&gt;aos_invoices -->
<g id="edge1" class="edge">
<title>aos_quotes_aos_invoices_c:w&#45;&gt;aos_invoices:e</title>
<path fill="none" stroke="#000000" d="M268.4064,-299.8918C240.7616,-280.8309 278.2134,-196.7 231.5,-196.7"/>
<polygon fill="#000000" stroke="#000000" points="274.777,-301.6131 281.5609,-307.1754 278.6385,-302.6566 282.5,-303.7 282.5,-303.7 282.5,-303.7 278.6385,-302.6566 283.4391,-300.2246 274.777,-301.6131 274.777,-301.6131"/>
<ellipse fill="none" stroke="#000000" cx="271.6878" cy="-300.7784" rx="3.2" ry="3.2"/>
</g>
<!-- aos_quotes -->
<g id="node3" class="node">
<title>aos_quotes</title>
<g id="a_node3"><a xlink:href="../../tables/aos_quotes.html" xlink:title="aos_quotes" target="_top">
<polygon fill="#ffffff" stroke="transparent" points="8,-252.2 8,-467.2 231,-467.2 231,-252.2 8,-252.2"/>
<polygon fill="#f5f5f5" stroke="transparent" points="8.5,-443.7 8.5,-466.7 231.5,-466.7 231.5,-443.7 8.5,-443.7"/>
<polygon fill="none" stroke="#000000" points="8.5,-443.7 8.5,-466.7 231.5,-466.7 231.5,-443.7 8.5,-443.7"/>
<text text-anchor="start" x="13.5" y="-452.8" font-family="Helvetica,sans-Serif" font-weight="bold" font-size="11.00" fill="#000000">aos_quotes</text>
<text text-anchor="start" x="196.5437" y="-451.8" font-family="Helvetica,sans-Serif" font-size="11.00" fill="#000000">[table]</text>
<polygon fill="none" stroke="#000000" points="8.5,-421.7 8.5,-443.7 231.5,-443.7 231.5,-421.7 8.5,-421.7"/>
<image xlink:href="../../images/primaryKeys.png" width="11px" height="12px" preserveAspectRatio="xMinYMin meet" x="13.5" y="-438.7"/>
<text text-anchor="start" x="28.5" y="-428.8" font-family="Helvetica,sans-Serif" font-size="11.00" fill="#000000">id</text>
<polygon fill="#c0c0c0" stroke="transparent" points="8.5,-399.7 8.5,-421.7 231.5,-421.7 231.5,-399.7 8.5,-399.7"/>
<polygon fill="none" stroke="#000000" points="8.5,-399.7 8.5,-421.7 231.5,-421.7 231.5,-399.7 8.5,-399.7"/>
<image xlink:href="../../images/foreignKeys.png" width="11px" height="12px" preserveAspectRatio="xMinYMin meet" x="13.5" y="-416.7"/>
<text text-anchor="start" x="28.5" y="-406.8" font-family="Helvetica,sans-Serif" font-size="11.00" fill="#000000">modified_user_id</text>
<polygon fill="#c0c0c0" stroke="transparent" points="8.5,-377.7 8.5,-399.7 231.5,-399.7 231.5,-377.7 8.5,-377.7"/>
<polygon fill="none" stroke="#000000" points="8.5,-377.7 8.5,-399.7 231.5,-399.7 231.5,-377.7 8.5,-377.7"/>
<image xlink:href="../../images/foreignKeys.png" width="11px" height="12px" preserveAspectRatio="xMinYMin meet" x="13.5" y="-394.7"/>
<text text-anchor="start" x="28.5" y="-384.8" font-family="Helvetica,sans-Serif" font-size="11.00" fill="#000000">created_by</text>
<polygon fill="#c0c0c0" stroke="transparent" points="8.5,-355.7 8.5,-377.7 231.5,-377.7 231.5,-355.7 8.5,-355.7"/>
<polygon fill="none" stroke="#000000" points="8.5,-355.7 8.5,-377.7 231.5,-377.7 231.5,-355.7 8.5,-355.7"/>
<image xlink:href="../../images/foreignKeys.png" width="11px" height="12px" preserveAspectRatio="xMinYMin meet" x="13.5" y="-372.7"/>
<text text-anchor="start" x="28.5" y="-362.8" font-family="Helvetica,sans-Serif" font-size="11.00" fill="#000000">assigned_user_id</text>
<polygon fill="none" stroke="#000000" points="8.5,-333.7 8.5,-355.7 231.5,-355.7 231.5,-333.7 8.5,-333.7"/>
<image xlink:href="../../images/foreignKeys.png" width="11px" height="12px" preserveAspectRatio="xMinYMin meet" x="13.5" y="-350.7"/>
<text text-anchor="start" x="28.5" y="-340.8" font-family="Helvetica,sans-Serif" font-size="11.00" fill="#000000">billing_account_id</text>
<polygon fill="none" stroke="#000000" points="8.5,-311.7 8.5,-333.7 231.5,-333.7 231.5,-311.7 8.5,-311.7"/>
<image xlink:href="../../images/foreignKeys.png" width="11px" height="12px" preserveAspectRatio="xMinYMin meet" x="13.5" y="-328.7"/>
<text text-anchor="start" x="28.5" y="-318.8" font-family="Helvetica,sans-Serif" font-size="11.00" fill="#000000">billing_contact_id</text>
<polygon fill="none" stroke="#000000" points="8.5,-289.7 8.5,-311.7 231.5,-311.7 231.5,-289.7 8.5,-289.7"/>
<image xlink:href="../../images/foreignKeys.png" width="11px" height="12px" preserveAspectRatio="xMinYMin meet" x="13.5" y="-306.7"/>
<text text-anchor="start" x="28.5" y="-296.8" font-family="Helvetica,sans-Serif" font-size="11.00" fill="#000000">opportunity_id</text>
<polygon fill="none" stroke="#000000" points="8.5,-270.7 8.5,-289.7 231.5,-289.7 231.5,-270.7 8.5,-270.7"/>
<text text-anchor="start" x="11.5" y="-276.8" font-family="Helvetica,sans-Serif" font-size="11.00" fill="#000000">...</text>
<polygon fill="#ffffff" stroke="transparent" points="8.5,-251.7 8.5,-270.7 113.5,-270.7 113.5,-251.7 8.5,-251.7"/>
<polygon fill="none" stroke="#000000" points="8.5,-251.7 8.5,-270.7 113.5,-270.7 113.5,-251.7 8.5,-251.7"/>
<text text-anchor="start" x="11.5" y="-257.8" font-family="Helvetica,sans-Serif" font-size="11.00" fill="#000000">&lt; 6</text>
<polygon fill="#ffffff" stroke="transparent" points="113.5,-251.7 113.5,-270.7 167.5,-270.7 167.5,-251.7 113.5,-251.7"/>
<polygon fill="none" stroke="#000000" points="113.5,-251.7 113.5,-270.7 167.5,-270.7 167.5,-251.7 113.5,-251.7"/>
<text text-anchor="start" x="158.3862" y="-257.8" font-family="Helvetica,sans-Serif" font-size="11.00" fill="#000000"> &#160;</text>
<polygon fill="#ffffff" stroke="transparent" points="167.5,-251.7 167.5,-270.7 231.5,-270.7 231.5,-251.7 167.5,-251.7"/>
<polygon fill="none" stroke="#000000" points="167.5,-251.7 167.5,-270.7 231.5,-270.7 231.5,-251.7 167.5,-251.7"/>
<text text-anchor="start" x="212.9053" y="-257.8" font-family="Helvetica,sans-Serif" font-size="11.00" fill="#000000">7 &gt;</text>
</a>
</g>
</g>
<!-- aos_quotes_aos_invoices_c&#45;&gt;aos_quotes -->
<g id="edge2" class="edge">
<title>aos_quotes_aos_invoices_c:w&#45;&gt;aos_quotes:e</title>
<path fill="none" stroke="#000000" d="M268.4064,-329.5082C240.7616,-348.5691 278.2134,-432.7 231.5,-432.7"/>
<polygon fill="#000000" stroke="#000000" points="274.777,-327.7869 283.4391,-329.1754 278.6385,-326.7434 282.5,-325.7 282.5,-325.7 282.5,-325.7 278.6385,-326.7434 281.5609,-322.2246 274.777,-327.7869 274.777,-327.7869"/>
<ellipse fill="none" stroke="#000000" cx="271.6878" cy="-328.6216" rx="3.2" ry="3.2"/>
</g>
</g>
</svg>
