<?xml version="1.0" encoding="UTF-8" standalone="no"?>
<!DOCTYPE svg PUBLIC "-//W3C//DTD SVG 1.1//EN"
 "http://www.w3.org/Graphics/SVG/1.1/DTD/svg11.dtd">
<!-- Generated by graphviz version 2.40.1 (20161225.0304)
 -->
<!-- Title: twoDegreesRelationshipsDiagram Pages: 1 -->
<svg width="479pt" height="399pt"
 viewBox="0.00 0.00 479.00 398.70" xmlns="http://www.w3.org/2000/svg" xmlns:xlink="http://www.w3.org/1999/xlink">
<g id="graph0" class="graph" transform="scale(1 1) rotate(0) translate(4 394.7)">
<title>twoDegreesRelationshipsDiagram</title>
<polygon fill="#ffffff" stroke="transparent" points="-4,4 -4,-394.7 475,-394.7 475,4 -4,4"/>
<text text-anchor="middle" x="72.4936" y="-7.3" font-family="Helvetica,sans-Serif" font-size="11.00" fill="#000000">Generated by SchemaSpy</text>
<!-- aos_pdf_templates_audit -->
<g id="node1" class="node">
<title>aos_pdf_templates_audit</title>
<g id="a_node1"><a xlink:href="../../tables/aos_pdf_templates_audit.html" xlink:title="aos_pdf_templates_audit" target="_top">
<polygon fill="#ffffff" stroke="transparent" points="204,-120.7 204,-386.7 463,-386.7 463,-120.7 204,-120.7"/>
<polygon fill="#f5f5f5" stroke="transparent" points="206.5,-361.7 206.5,-384.7 461.5,-384.7 461.5,-361.7 206.5,-361.7"/>
<polygon fill="none" stroke="#000000" points="206.5,-361.7 206.5,-384.7 461.5,-384.7 461.5,-361.7 206.5,-361.7"/>
<text text-anchor="start" x="211.5" y="-370.8" font-family="Helvetica,sans-Serif" font-weight="bold" font-size="11.00" fill="#000000">aos_pdf_templates_audit</text>
<text text-anchor="start" x="426.5437" y="-369.8" font-family="Helvetica,sans-Serif" font-size="11.00" fill="#000000">[table]</text>
<polygon fill="none" stroke="#000000" points="206.5,-339.7 206.5,-361.7 394.5,-361.7 394.5,-339.7 206.5,-339.7"/>
<image xlink:href="../../images/primaryKeys.png" width="11px" height="12px" preserveAspectRatio="xMinYMin meet" x="211.5" y="-356.7"/>
<text text-anchor="start" x="226.5" y="-346.8" font-family="Helvetica,sans-Serif" font-size="11.00" fill="#000000">id</text>
<polygon fill="none" stroke="#000000" points="394.5,-339.7 394.5,-361.7 461.5,-361.7 461.5,-339.7 394.5,-339.7"/>
<text text-anchor="start" x="397.5" y="-347.4" font-family="Helvetica,sans-Serif" font-size="11.00" fill="#000000">char[36]</text>
<polygon fill="#ffffff" stroke="transparent" points="206.5,-317.7 206.5,-339.7 394.5,-339.7 394.5,-317.7 206.5,-317.7"/>
<polygon fill="none" stroke="#000000" points="206.5,-317.7 206.5,-339.7 394.5,-339.7 394.5,-317.7 206.5,-317.7"/>
<image xlink:href="../../images/foreignKeys.png" width="11px" height="12px" preserveAspectRatio="xMinYMin meet" x="211.5" y="-334.7"/>
<text text-anchor="start" x="226.5" y="-324.8" font-family="Helvetica,sans-Serif" font-size="11.00" fill="#000000">parent_id</text>
<polygon fill="none" stroke="#000000" points="394.5,-317.7 394.5,-339.7 461.5,-339.7 461.5,-317.7 394.5,-317.7"/>
<text text-anchor="start" x="397.5" y="-325.4" font-family="Helvetica,sans-Serif" font-size="11.00" fill="#000000">char[36]</text>
<polygon fill="none" stroke="#000000" points="206.5,-295.7 206.5,-317.7 394.5,-317.7 394.5,-295.7 206.5,-295.7"/>
<text text-anchor="start" x="226.5" y="-302.8" font-family="Helvetica,sans-Serif" font-size="11.00" fill="#000000">date_created</text>
<polygon fill="none" stroke="#000000" points="394.5,-295.7 394.5,-317.7 461.5,-317.7 461.5,-295.7 394.5,-295.7"/>
<text text-anchor="start" x="397.5" y="-303.4" font-family="Helvetica,sans-Serif" font-size="11.00" fill="#000000">datetime[26]</text>
<polygon fill="none" stroke="#000000" points="206.5,-273.7 206.5,-295.7 394.5,-295.7 394.5,-273.7 206.5,-273.7"/>
<text text-anchor="start" x="226.5" y="-280.8" font-family="Helvetica,sans-Serif" font-size="11.00" fill="#000000">created_by</text>
<polygon fill="none" stroke="#000000" points="394.5,-273.7 394.5,-295.7 461.5,-295.7 461.5,-273.7 394.5,-273.7"/>
<text text-anchor="start" x="397.5" y="-281.4" font-family="Helvetica,sans-Serif" font-size="11.00" fill="#000000">varchar[36]</text>
<polygon fill="none" stroke="#000000" points="206.5,-251.7 206.5,-273.7 394.5,-273.7 394.5,-251.7 206.5,-251.7"/>
<text text-anchor="start" x="226.5" y="-258.8" font-family="Helvetica,sans-Serif" font-size="11.00" fill="#000000">field_name</text>
<polygon fill="none" stroke="#000000" points="394.5,-251.7 394.5,-273.7 461.5,-273.7 461.5,-251.7 394.5,-251.7"/>
<text text-anchor="start" x="397.4365" y="-259.4" font-family="Helvetica,sans-Serif" font-size="11.00" fill="#000000">varchar[100]</text>
<polygon fill="none" stroke="#000000" points="206.5,-229.7 206.5,-251.7 394.5,-251.7 394.5,-229.7 206.5,-229.7"/>
<text text-anchor="start" x="226.5" y="-236.8" font-family="Helvetica,sans-Serif" font-size="11.00" fill="#000000">data_type</text>
<polygon fill="none" stroke="#000000" points="394.5,-229.7 394.5,-251.7 461.5,-251.7 461.5,-229.7 394.5,-229.7"/>
<text text-anchor="start" x="397.4365" y="-237.4" font-family="Helvetica,sans-Serif" font-size="11.00" fill="#000000">varchar[100]</text>
<polygon fill="none" stroke="#000000" points="206.5,-207.7 206.5,-229.7 394.5,-229.7 394.5,-207.7 206.5,-207.7"/>
<text text-anchor="start" x="226.5" y="-214.8" font-family="Helvetica,sans-Serif" font-size="11.00" fill="#000000">before_value_string</text>
<polygon fill="none" stroke="#000000" points="394.5,-207.7 394.5,-229.7 461.5,-229.7 461.5,-207.7 394.5,-207.7"/>
<text text-anchor="start" x="397.4365" y="-215.4" font-family="Helvetica,sans-Serif" font-size="11.00" fill="#000000">varchar[255]</text>
<polygon fill="none" stroke="#000000" points="206.5,-185.7 206.5,-207.7 394.5,-207.7 394.5,-185.7 206.5,-185.7"/>
<text text-anchor="start" x="226.5" y="-192.8" font-family="Helvetica,sans-Serif" font-size="11.00" fill="#000000">after_value_string</text>
<polygon fill="none" stroke="#000000" points="394.5,-185.7 394.5,-207.7 461.5,-207.7 461.5,-185.7 394.5,-185.7"/>
<text text-anchor="start" x="397.4365" y="-193.4" font-family="Helvetica,sans-Serif" font-size="11.00" fill="#000000">varchar[255]</text>
<polygon fill="none" stroke="#000000" points="206.5,-163.7 206.5,-185.7 394.5,-185.7 394.5,-163.7 206.5,-163.7"/>
<text text-anchor="start" x="226.5" y="-170.8" font-family="Helvetica,sans-Serif" font-size="11.00" fill="#000000">before_value_text</text>
<polygon fill="none" stroke="#000000" points="394.5,-163.7 394.5,-185.7 461.5,-185.7 461.5,-163.7 394.5,-163.7"/>
<text text-anchor="start" x="397.5" y="-171.4" font-family="Helvetica,sans-Serif" font-size="11.00" fill="#000000">text[65535]</text>
<polygon fill="none" stroke="#000000" points="206.5,-141.7 206.5,-163.7 394.5,-163.7 394.5,-141.7 206.5,-141.7"/>
<text text-anchor="start" x="226.5" y="-148.8" font-family="Helvetica,sans-Serif" font-size="11.00" fill="#000000">after_value_text</text>
<polygon fill="none" stroke="#000000" points="394.5,-141.7 394.5,-163.7 461.5,-163.7 461.5,-141.7 394.5,-141.7"/>
<text text-anchor="start" x="397.5" y="-149.4" font-family="Helvetica,sans-Serif" font-size="11.00" fill="#000000">text[65535]</text>
<polygon fill="#ffffff" stroke="transparent" points="206.5,-122.7 206.5,-141.7 304.5,-141.7 304.5,-122.7 206.5,-122.7"/>
<polygon fill="none" stroke="#000000" points="206.5,-122.7 206.5,-141.7 304.5,-141.7 304.5,-122.7 206.5,-122.7"/>
<text text-anchor="start" x="209.5" y="-128.8" font-family="Helvetica,sans-Serif" font-size="11.00" fill="#000000">&lt; 1</text>
<polygon fill="#ffffff" stroke="transparent" points="304.5,-122.7 304.5,-141.7 394.5,-141.7 394.5,-122.7 304.5,-122.7"/>
<polygon fill="none" stroke="#000000" points="304.5,-122.7 304.5,-141.7 394.5,-141.7 394.5,-122.7 304.5,-122.7"/>
<text text-anchor="start" x="385.3862" y="-128.8" font-family="Helvetica,sans-Serif" font-size="11.00" fill="#000000"> &#160;</text>
<polygon fill="#ffffff" stroke="transparent" points="394.5,-122.7 394.5,-141.7 461.5,-141.7 461.5,-122.7 394.5,-122.7"/>
<polygon fill="none" stroke="#000000" points="394.5,-122.7 394.5,-141.7 461.5,-141.7 461.5,-122.7 394.5,-122.7"/>
<text text-anchor="start" x="442.9053" y="-128.8" font-family="Helvetica,sans-Serif" font-size="11.00" fill="#000000">0 &gt;</text>
<polygon fill="none" stroke="#000000" stroke-width="2" points="205,-121.7 205,-385.7 462,-385.7 462,-121.7 205,-121.7"/>
</a>
</g>
</g>
<!-- aos_pdf_templates -->
<g id="node2" class="node">
<title>aos_pdf_templates</title>
<g id="a_node2"><a xlink:href="../../tables/aos_pdf_templates.html" xlink:title="aos_pdf_templates" target="_top">
<polygon fill="#ffffff" stroke="transparent" points="8,-82.2 8,-231.2 155,-231.2 155,-82.2 8,-82.2"/>
<polygon fill="#f5f5f5" stroke="transparent" points="8.5,-207.7 8.5,-230.7 155.5,-230.7 155.5,-207.7 8.5,-207.7"/>
<polygon fill="none" stroke="#000000" points="8.5,-207.7 8.5,-230.7 155.5,-230.7 155.5,-207.7 8.5,-207.7"/>
<text text-anchor="start" x="13.5" y="-216.8" font-family="Helvetica,sans-Serif" font-weight="bold" font-size="11.00" fill="#000000">aos_pdf_templates</text>
<text text-anchor="start" x="120.5437" y="-215.8" font-family="Helvetica,sans-Serif" font-size="11.00" fill="#000000">[table]</text>
<polygon fill="none" stroke="#000000" points="8.5,-185.7 8.5,-207.7 155.5,-207.7 155.5,-185.7 8.5,-185.7"/>
<image xlink:href="../../images/primaryKeys.png" width="11px" height="12px" preserveAspectRatio="xMinYMin meet" x="13.5" y="-202.7"/>
<text text-anchor="start" x="28.5" y="-192.8" font-family="Helvetica,sans-Serif" font-size="11.00" fill="#000000">id</text>
<polygon fill="#c0c0c0" stroke="transparent" points="8.5,-163.7 8.5,-185.7 155.5,-185.7 155.5,-163.7 8.5,-163.7"/>
<polygon fill="none" stroke="#000000" points="8.5,-163.7 8.5,-185.7 155.5,-185.7 155.5,-163.7 8.5,-163.7"/>
<image xlink:href="../../images/foreignKeys.png" width="11px" height="12px" preserveAspectRatio="xMinYMin meet" x="13.5" y="-180.7"/>
<text text-anchor="start" x="28.5" y="-170.8" font-family="Helvetica,sans-Serif" font-size="11.00" fill="#000000">modified_user_id</text>
<polygon fill="#c0c0c0" stroke="transparent" points="8.5,-141.7 8.5,-163.7 155.5,-163.7 155.5,-141.7 8.5,-141.7"/>
<polygon fill="none" stroke="#000000" points="8.5,-141.7 8.5,-163.7 155.5,-163.7 155.5,-141.7 8.5,-141.7"/>
<image xlink:href="../../images/foreignKeys.png" width="11px" height="12px" preserveAspectRatio="xMinYMin meet" x="13.5" y="-158.7"/>
<text text-anchor="start" x="28.5" y="-148.8" font-family="Helvetica,sans-Serif" font-size="11.00" fill="#000000">created_by</text>
<polygon fill="#c0c0c0" stroke="transparent" points="8.5,-119.7 8.5,-141.7 155.5,-141.7 155.5,-119.7 8.5,-119.7"/>
<polygon fill="none" stroke="#000000" points="8.5,-119.7 8.5,-141.7 155.5,-141.7 155.5,-119.7 8.5,-119.7"/>
<image xlink:href="../../images/foreignKeys.png" width="11px" height="12px" preserveAspectRatio="xMinYMin meet" x="13.5" y="-136.7"/>
<text text-anchor="start" x="28.5" y="-126.8" font-family="Helvetica,sans-Serif" font-size="11.00" fill="#000000">assigned_user_id</text>
<polygon fill="none" stroke="#000000" points="8.5,-100.7 8.5,-119.7 155.5,-119.7 155.5,-100.7 8.5,-100.7"/>
<text text-anchor="start" x="11.5" y="-106.8" font-family="Helvetica,sans-Serif" font-size="11.00" fill="#000000">...</text>
<polygon fill="#ffffff" stroke="transparent" points="8.5,-81.7 8.5,-100.7 75.5,-100.7 75.5,-81.7 8.5,-81.7"/>
<polygon fill="none" stroke="#000000" points="8.5,-81.7 8.5,-100.7 75.5,-100.7 75.5,-81.7 8.5,-81.7"/>
<text text-anchor="start" x="11.5" y="-87.8" font-family="Helvetica,sans-Serif" font-size="11.00" fill="#000000">&lt; 3</text>
<polygon fill="#ffffff" stroke="transparent" points="75.5,-81.7 75.5,-100.7 110.5,-100.7 110.5,-81.7 75.5,-81.7"/>
<polygon fill="none" stroke="#000000" points="75.5,-81.7 75.5,-100.7 110.5,-100.7 110.5,-81.7 75.5,-81.7"/>
<text text-anchor="start" x="101.3862" y="-87.8" font-family="Helvetica,sans-Serif" font-size="11.00" fill="#000000"> &#160;</text>
<polygon fill="#ffffff" stroke="transparent" points="110.5,-81.7 110.5,-100.7 155.5,-100.7 155.5,-81.7 110.5,-81.7"/>
<polygon fill="none" stroke="#000000" points="110.5,-81.7 110.5,-100.7 155.5,-100.7 155.5,-81.7 110.5,-81.7"/>
<text text-anchor="start" x="136.9053" y="-87.8" font-family="Helvetica,sans-Serif" font-size="11.00" fill="#000000">2 &gt;</text>
</a>
</g>
</g>
<!-- aos_pdf_templates_audit&#45;&gt;aos_pdf_templates -->
<g id="edge1" class="edge">
<title>aos_pdf_templates_audit:w&#45;&gt;aos_pdf_templates:e</title>
<path fill="none" stroke="#000000" d="M192.2146,-325.4371C156.4192,-305.1102 212.497,-196.7 155.5,-196.7"/>
<polygon fill="#000000" stroke="#000000" points="198.7009,-326.9185 205.6983,-332.2096 202.6004,-327.8093 206.5,-328.7 206.5,-328.7 206.5,-328.7 202.6004,-327.8093 207.3017,-325.1904 198.7009,-326.9185 198.7009,-326.9185"/>
<ellipse fill="none" stroke="#000000" cx="195.5812" cy="-326.206" rx="3.2" ry="3.2"/>
</g>
<!-- securitygroups_records -->
<g id="node3" class="node">
<title>securitygroups_records</title>
<g id="a_node3"><a xlink:href="../../tables/securitygroups_records.html" xlink:title="securitygroups_records" target="_top">
<polygon fill="#ffffff" stroke="transparent" points="255,-38.2 255,-99.2 412,-99.2 412,-38.2 255,-38.2"/>
<polygon fill="#f5f5f5" stroke="transparent" points="255.5,-75.7 255.5,-98.7 412.5,-98.7 412.5,-75.7 255.5,-75.7"/>
<polygon fill="none" stroke="#000000" points="255.5,-75.7 255.5,-98.7 412.5,-98.7 412.5,-75.7 255.5,-75.7"/>
<text text-anchor="start" x="260.3528" y="-84.8" font-family="Helvetica,sans-Serif" font-weight="bold" font-size="11.00" fill="#000000">securitygroups_records</text>
<text text-anchor="start" x="378.0219" y="-83.8" font-family="Helvetica,sans-Serif" font-size="11.00" fill="#000000">[table]</text>
<polygon fill="none" stroke="#000000" points="255.5,-56.7 255.5,-75.7 412.5,-75.7 412.5,-56.7 255.5,-56.7"/>
<text text-anchor="start" x="258.5" y="-62.8" font-family="Helvetica,sans-Serif" font-size="11.00" fill="#000000">...</text>
<polygon fill="#ffffff" stroke="transparent" points="255.5,-37.7 255.5,-56.7 335.5,-56.7 335.5,-37.7 255.5,-37.7"/>
<polygon fill="none" stroke="#000000" points="255.5,-37.7 255.5,-56.7 335.5,-56.7 335.5,-37.7 255.5,-37.7"/>
<text text-anchor="start" x="258.5" y="-43.8" font-family="Helvetica,sans-Serif" font-size="11.00" fill="#000000">&lt; 41</text>
<polygon fill="#ffffff" stroke="transparent" points="335.5,-37.7 335.5,-56.7 373.5,-56.7 373.5,-37.7 335.5,-37.7"/>
<polygon fill="none" stroke="#000000" points="335.5,-37.7 335.5,-56.7 373.5,-56.7 373.5,-37.7 335.5,-37.7"/>
<text text-anchor="start" x="364.3862" y="-43.8" font-family="Helvetica,sans-Serif" font-size="11.00" fill="#000000"> &#160;</text>
<polygon fill="#ffffff" stroke="transparent" points="373.5,-37.7 373.5,-56.7 412.5,-56.7 412.5,-37.7 373.5,-37.7"/>
<polygon fill="none" stroke="#000000" points="373.5,-37.7 373.5,-56.7 412.5,-56.7 412.5,-37.7 373.5,-37.7"/>
<text text-anchor="start" x="403.3862" y="-43.8" font-family="Helvetica,sans-Serif" font-size="11.00" fill="#000000"> &#160;</text>
</a>
</g>
</g>
<!-- securitygroups_records&#45;&gt;aos_pdf_templates -->
<g id="edge2" class="edge">
<title>securitygroups_records:w&#45;&gt;aos_pdf_templates:e</title>
<path fill="none" stroke="#000000" d="M240.933,-67.2692C220.0769,-72.3514 213.3827,-89.2788 196,-110.7 169.3787,-143.5061 197.7485,-196.7 155.5,-196.7"/>
<polygon fill="#000000" stroke="#000000" points="247.546,-66.5569 255.8856,-69.2793 251.523,-66.1284 255.5,-65.7 255.5,-65.7 255.5,-65.7 251.523,-66.1284 255.1144,-62.1207 247.546,-66.5569 247.546,-66.5569"/>
<ellipse fill="none" stroke="#000000" cx="244.3644" cy="-66.8996" rx="3.2" ry="3.2"/>
</g>
</g>
</svg>
