<?xml version="1.0" encoding="UTF-8" standalone="no"?>
<!DOCTYPE svg PUBLIC "-//W3C//DTD SVG 1.1//EN"
 "http://www.w3.org/Graphics/SVG/1.1/DTD/svg11.dtd">
<!-- Generated by graphviz version 2.40.1 (20161225.0304)
 -->
<!-- Title: oneDegreeRelationshipsDiagram Pages: 1 -->
<svg width="517pt" height="316pt"
 viewBox="0.00 0.00 517.00 316.20" xmlns="http://www.w3.org/2000/svg" xmlns:xlink="http://www.w3.org/1999/xlink">
<g id="graph0" class="graph" transform="scale(1 1) rotate(0) translate(4 312.2)">
<title>oneDegreeRelationshipsDiagram</title>
<polygon fill="#ffffff" stroke="transparent" points="-4,4 -4,-312.2 513,-312.2 513,4 -4,4"/>
<text text-anchor="middle" x="72.4936" y="-7.3" font-family="Helvetica,sans-Serif" font-size="11.00" fill="#000000">Generated by SchemaSpy</text>
<!-- aos_contracts_audit -->
<g id="node1" class="node">
<title>aos_contracts_audit</title>
<g id="a_node1"><a xlink:href="../../tables/aos_contracts_audit.html" xlink:title="aos_contracts_audit" target="_top">
<polygon fill="#ffffff" stroke="transparent" points="275,-38.2 275,-304.2 501,-304.2 501,-38.2 275,-38.2"/>
<polygon fill="#f5f5f5" stroke="transparent" points="277,-279.2 277,-302.2 499,-302.2 499,-279.2 277,-279.2"/>
<polygon fill="none" stroke="#000000" points="277,-279.2 277,-302.2 499,-302.2 499,-279.2 277,-279.2"/>
<text text-anchor="start" x="282" y="-288.3" font-family="Helvetica,sans-Serif" font-weight="bold" font-size="11.00" fill="#000000">aos_contracts_audit</text>
<text text-anchor="start" x="464.0437" y="-287.3" font-family="Helvetica,sans-Serif" font-size="11.00" fill="#000000">[table]</text>
<polygon fill="none" stroke="#000000" points="277,-257.2 277,-279.2 432,-279.2 432,-257.2 277,-257.2"/>
<image xlink:href="../../images/primaryKeys.png" width="11px" height="12px" preserveAspectRatio="xMinYMin meet" x="282" y="-274.2"/>
<text text-anchor="start" x="297" y="-264.3" font-family="Helvetica,sans-Serif" font-size="11.00" fill="#000000">id</text>
<polygon fill="none" stroke="#000000" points="432,-257.2 432,-279.2 499,-279.2 499,-257.2 432,-257.2"/>
<text text-anchor="start" x="435" y="-264.9" font-family="Helvetica,sans-Serif" font-size="11.00" fill="#000000">char[36]</text>
<polygon fill="#ffffff" stroke="transparent" points="277,-235.2 277,-257.2 432,-257.2 432,-235.2 277,-235.2"/>
<polygon fill="none" stroke="#000000" points="277,-235.2 277,-257.2 432,-257.2 432,-235.2 277,-235.2"/>
<image xlink:href="../../images/foreignKeys.png" width="11px" height="12px" preserveAspectRatio="xMinYMin meet" x="282" y="-252.2"/>
<text text-anchor="start" x="297" y="-242.3" font-family="Helvetica,sans-Serif" font-size="11.00" fill="#000000">parent_id</text>
<polygon fill="none" stroke="#000000" points="432,-235.2 432,-257.2 499,-257.2 499,-235.2 432,-235.2"/>
<text text-anchor="start" x="435" y="-242.9" font-family="Helvetica,sans-Serif" font-size="11.00" fill="#000000">char[36]</text>
<polygon fill="none" stroke="#000000" points="277,-213.2 277,-235.2 432,-235.2 432,-213.2 277,-213.2"/>
<text text-anchor="start" x="297" y="-220.3" font-family="Helvetica,sans-Serif" font-size="11.00" fill="#000000">date_created</text>
<polygon fill="none" stroke="#000000" points="432,-213.2 432,-235.2 499,-235.2 499,-213.2 432,-213.2"/>
<text text-anchor="start" x="435" y="-220.9" font-family="Helvetica,sans-Serif" font-size="11.00" fill="#000000">datetime[26]</text>
<polygon fill="none" stroke="#000000" points="277,-191.2 277,-213.2 432,-213.2 432,-191.2 277,-191.2"/>
<text text-anchor="start" x="297" y="-198.3" font-family="Helvetica,sans-Serif" font-size="11.00" fill="#000000">created_by</text>
<polygon fill="none" stroke="#000000" points="432,-191.2 432,-213.2 499,-213.2 499,-191.2 432,-191.2"/>
<text text-anchor="start" x="435" y="-198.9" font-family="Helvetica,sans-Serif" font-size="11.00" fill="#000000">varchar[36]</text>
<polygon fill="none" stroke="#000000" points="277,-169.2 277,-191.2 432,-191.2 432,-169.2 277,-169.2"/>
<text text-anchor="start" x="297" y="-176.3" font-family="Helvetica,sans-Serif" font-size="11.00" fill="#000000">field_name</text>
<polygon fill="none" stroke="#000000" points="432,-169.2 432,-191.2 499,-191.2 499,-169.2 432,-169.2"/>
<text text-anchor="start" x="434.9365" y="-176.9" font-family="Helvetica,sans-Serif" font-size="11.00" fill="#000000">varchar[100]</text>
<polygon fill="none" stroke="#000000" points="277,-147.2 277,-169.2 432,-169.2 432,-147.2 277,-147.2"/>
<text text-anchor="start" x="297" y="-154.3" font-family="Helvetica,sans-Serif" font-size="11.00" fill="#000000">data_type</text>
<polygon fill="none" stroke="#000000" points="432,-147.2 432,-169.2 499,-169.2 499,-147.2 432,-147.2"/>
<text text-anchor="start" x="434.9365" y="-154.9" font-family="Helvetica,sans-Serif" font-size="11.00" fill="#000000">varchar[100]</text>
<polygon fill="none" stroke="#000000" points="277,-125.2 277,-147.2 432,-147.2 432,-125.2 277,-125.2"/>
<text text-anchor="start" x="297" y="-132.3" font-family="Helvetica,sans-Serif" font-size="11.00" fill="#000000">before_value_string</text>
<polygon fill="none" stroke="#000000" points="432,-125.2 432,-147.2 499,-147.2 499,-125.2 432,-125.2"/>
<text text-anchor="start" x="434.9365" y="-132.9" font-family="Helvetica,sans-Serif" font-size="11.00" fill="#000000">varchar[255]</text>
<polygon fill="none" stroke="#000000" points="277,-103.2 277,-125.2 432,-125.2 432,-103.2 277,-103.2"/>
<text text-anchor="start" x="297" y="-110.3" font-family="Helvetica,sans-Serif" font-size="11.00" fill="#000000">after_value_string</text>
<polygon fill="none" stroke="#000000" points="432,-103.2 432,-125.2 499,-125.2 499,-103.2 432,-103.2"/>
<text text-anchor="start" x="434.9365" y="-110.9" font-family="Helvetica,sans-Serif" font-size="11.00" fill="#000000">varchar[255]</text>
<polygon fill="none" stroke="#000000" points="277,-81.2 277,-103.2 432,-103.2 432,-81.2 277,-81.2"/>
<text text-anchor="start" x="297" y="-88.3" font-family="Helvetica,sans-Serif" font-size="11.00" fill="#000000">before_value_text</text>
<polygon fill="none" stroke="#000000" points="432,-81.2 432,-103.2 499,-103.2 499,-81.2 432,-81.2"/>
<text text-anchor="start" x="435" y="-88.9" font-family="Helvetica,sans-Serif" font-size="11.00" fill="#000000">text[65535]</text>
<polygon fill="none" stroke="#000000" points="277,-59.2 277,-81.2 432,-81.2 432,-59.2 277,-59.2"/>
<text text-anchor="start" x="297" y="-66.3" font-family="Helvetica,sans-Serif" font-size="11.00" fill="#000000">after_value_text</text>
<polygon fill="none" stroke="#000000" points="432,-59.2 432,-81.2 499,-81.2 499,-59.2 432,-59.2"/>
<text text-anchor="start" x="435" y="-66.9" font-family="Helvetica,sans-Serif" font-size="11.00" fill="#000000">text[65535]</text>
<polygon fill="#ffffff" stroke="transparent" points="277,-40.2 277,-59.2 359,-59.2 359,-40.2 277,-40.2"/>
<polygon fill="none" stroke="#000000" points="277,-40.2 277,-59.2 359,-59.2 359,-40.2 277,-40.2"/>
<text text-anchor="start" x="280" y="-46.3" font-family="Helvetica,sans-Serif" font-size="11.00" fill="#000000">&lt; 1</text>
<polygon fill="#ffffff" stroke="transparent" points="359,-40.2 359,-59.2 432,-59.2 432,-40.2 359,-40.2"/>
<polygon fill="none" stroke="#000000" points="359,-40.2 359,-59.2 432,-59.2 432,-40.2 359,-40.2"/>
<text text-anchor="start" x="422.8862" y="-46.3" font-family="Helvetica,sans-Serif" font-size="11.00" fill="#000000"> &#160;</text>
<polygon fill="#ffffff" stroke="transparent" points="432,-40.2 432,-59.2 499,-59.2 499,-40.2 432,-40.2"/>
<polygon fill="none" stroke="#000000" points="432,-40.2 432,-59.2 499,-59.2 499,-40.2 432,-40.2"/>
<text text-anchor="start" x="480.4053" y="-46.3" font-family="Helvetica,sans-Serif" font-size="11.00" fill="#000000">0 &gt;</text>
<polygon fill="none" stroke="#000000" stroke-width="2" points="276,-39.2 276,-303.2 500,-303.2 500,-39.2 276,-39.2"/>
</a>
</g>
</g>
<!-- aos_contracts -->
<g id="node2" class="node">
<title>aos_contracts</title>
<g id="a_node2"><a xlink:href="../../tables/aos_contracts.html" xlink:title="aos_contracts" target="_top">
<polygon fill="#ffffff" stroke="transparent" points="8,-65.7 8,-280.7 226,-280.7 226,-65.7 8,-65.7"/>
<polygon fill="#f5f5f5" stroke="transparent" points="8,-257.2 8,-280.2 226,-280.2 226,-257.2 8,-257.2"/>
<polygon fill="none" stroke="#000000" points="8,-257.2 8,-280.2 226,-280.2 226,-257.2 8,-257.2"/>
<text text-anchor="start" x="13" y="-266.3" font-family="Helvetica,sans-Serif" font-weight="bold" font-size="11.00" fill="#000000">aos_contracts</text>
<text text-anchor="start" x="191.0437" y="-265.3" font-family="Helvetica,sans-Serif" font-size="11.00" fill="#000000">[table]</text>
<polygon fill="none" stroke="#000000" points="8,-235.2 8,-257.2 226,-257.2 226,-235.2 8,-235.2"/>
<image xlink:href="../../images/primaryKeys.png" width="11px" height="12px" preserveAspectRatio="xMinYMin meet" x="13" y="-252.2"/>
<text text-anchor="start" x="28" y="-242.3" font-family="Helvetica,sans-Serif" font-size="11.00" fill="#000000">id</text>
<polygon fill="#c0c0c0" stroke="transparent" points="8,-213.2 8,-235.2 226,-235.2 226,-213.2 8,-213.2"/>
<polygon fill="none" stroke="#000000" points="8,-213.2 8,-235.2 226,-235.2 226,-213.2 8,-213.2"/>
<image xlink:href="../../images/foreignKeys.png" width="11px" height="12px" preserveAspectRatio="xMinYMin meet" x="13" y="-230.2"/>
<text text-anchor="start" x="28" y="-220.3" font-family="Helvetica,sans-Serif" font-size="11.00" fill="#000000">modified_user_id</text>
<polygon fill="#c0c0c0" stroke="transparent" points="8,-191.2 8,-213.2 226,-213.2 226,-191.2 8,-191.2"/>
<polygon fill="none" stroke="#000000" points="8,-191.2 8,-213.2 226,-213.2 226,-191.2 8,-191.2"/>
<image xlink:href="../../images/foreignKeys.png" width="11px" height="12px" preserveAspectRatio="xMinYMin meet" x="13" y="-208.2"/>
<text text-anchor="start" x="28" y="-198.3" font-family="Helvetica,sans-Serif" font-size="11.00" fill="#000000">created_by</text>
<polygon fill="#c0c0c0" stroke="transparent" points="8,-169.2 8,-191.2 226,-191.2 226,-169.2 8,-169.2"/>
<polygon fill="none" stroke="#000000" points="8,-169.2 8,-191.2 226,-191.2 226,-169.2 8,-169.2"/>
<image xlink:href="../../images/foreignKeys.png" width="11px" height="12px" preserveAspectRatio="xMinYMin meet" x="13" y="-186.2"/>
<text text-anchor="start" x="28" y="-176.3" font-family="Helvetica,sans-Serif" font-size="11.00" fill="#000000">assigned_user_id</text>
<polygon fill="none" stroke="#000000" points="8,-147.2 8,-169.2 226,-169.2 226,-147.2 8,-147.2"/>
<image xlink:href="../../images/foreignKeys.png" width="11px" height="12px" preserveAspectRatio="xMinYMin meet" x="13" y="-164.2"/>
<text text-anchor="start" x="28" y="-154.3" font-family="Helvetica,sans-Serif" font-size="11.00" fill="#000000">contract_account_id</text>
<polygon fill="none" stroke="#000000" points="8,-125.2 8,-147.2 226,-147.2 226,-125.2 8,-125.2"/>
<image xlink:href="../../images/foreignKeys.png" width="11px" height="12px" preserveAspectRatio="xMinYMin meet" x="13" y="-142.2"/>
<text text-anchor="start" x="28" y="-132.3" font-family="Helvetica,sans-Serif" font-size="11.00" fill="#000000">opportunity_id</text>
<polygon fill="none" stroke="#000000" points="8,-103.2 8,-125.2 226,-125.2 226,-103.2 8,-103.2"/>
<image xlink:href="../../images/foreignKeys.png" width="11px" height="12px" preserveAspectRatio="xMinYMin meet" x="13" y="-120.2"/>
<text text-anchor="start" x="28" y="-110.3" font-family="Helvetica,sans-Serif" font-size="11.00" fill="#000000">contact_id</text>
<polygon fill="none" stroke="#000000" points="8,-84.2 8,-103.2 226,-103.2 226,-84.2 8,-84.2"/>
<text text-anchor="start" x="11" y="-90.3" font-family="Helvetica,sans-Serif" font-size="11.00" fill="#000000">...</text>
<polygon fill="#ffffff" stroke="transparent" points="8,-65.2 8,-84.2 108,-84.2 108,-65.2 8,-65.2"/>
<polygon fill="none" stroke="#000000" points="8,-65.2 8,-84.2 108,-84.2 108,-65.2 8,-65.2"/>
<text text-anchor="start" x="11" y="-71.3" font-family="Helvetica,sans-Serif" font-size="11.00" fill="#000000">&lt; 6</text>
<polygon fill="#ffffff" stroke="transparent" points="108,-65.2 108,-84.2 159,-84.2 159,-65.2 108,-65.2"/>
<polygon fill="none" stroke="#000000" points="108,-65.2 108,-84.2 159,-84.2 159,-65.2 108,-65.2"/>
<text text-anchor="start" x="149.8862" y="-71.3" font-family="Helvetica,sans-Serif" font-size="11.00" fill="#000000"> &#160;</text>
<polygon fill="#ffffff" stroke="transparent" points="159,-65.2 159,-84.2 226,-84.2 226,-65.2 159,-65.2"/>
<polygon fill="none" stroke="#000000" points="159,-65.2 159,-84.2 226,-84.2 226,-65.2 159,-65.2"/>
<text text-anchor="start" x="201.2904" y="-71.3" font-family="Helvetica,sans-Serif" font-size="11.00" fill="#000000">11 &gt;</text>
</a>
</g>
</g>
<!-- aos_contracts_audit&#45;&gt;aos_contracts -->
<g id="edge1" class="edge">
<title>aos_contracts_audit:w&#45;&gt;aos_contracts:e</title>
<path fill="none" stroke="#000000" d="M262.276,-246.2C250.2815,-246.2 242.8229,-246.2 226,-246.2"/>
<polygon fill="#000000" stroke="#000000" points="269,-246.2001 277,-249.8 273,-246.2 277,-246.2 277,-246.2 277,-246.2 273,-246.2 277,-242.6 269,-246.2001 269,-246.2001"/>
<ellipse fill="none" stroke="#000000" cx="265.8" cy="-246.2001" rx="3.2" ry="3.2"/>
</g>
</g>
</svg>
