<?xml version="1.0" encoding="UTF-8" standalone="no"?>
<!DOCTYPE svg PUBLIC "-//W3C//DTD SVG 1.1//EN"
 "http://www.w3.org/Graphics/SVG/1.1/DTD/svg11.dtd">
<!-- Generated by graphviz version 2.40.1 (20161225.0304)
 -->
<!-- Title: twoDegreesRelationshipsDiagram Pages: 1 -->
<svg width="926pt" height="725pt"
 viewBox="0.00 0.00 926.00 725.33" xmlns="http://www.w3.org/2000/svg" xmlns:xlink="http://www.w3.org/1999/xlink">
<g id="graph0" class="graph" transform="scale(1 1) rotate(0) translate(4 721.3303)">
<title>twoDegreesRelationshipsDiagram</title>
<polygon fill="#ffffff" stroke="transparent" points="-4,4 -4,-721.3303 922,-721.3303 922,4 -4,4"/>
<text text-anchor="middle" x="72.4936" y="-7.3" font-family="Helvetica,sans-Serif" font-size="11.00" fill="#000000">Generated by SchemaSpy</text>
<!-- aos_invoices -->
<g id="node1" class="node">
<title>aos_invoices</title>
<g id="a_node1"><a xlink:href="../../tables/aos_invoices.html" xlink:title="aos_invoices" target="_top">
<polygon fill="#ffffff" stroke="transparent" points="162,-122.2 162,-315.2 385,-315.2 385,-122.2 162,-122.2"/>
<polygon fill="#f5f5f5" stroke="transparent" points="162.5,-291.7 162.5,-314.7 385.5,-314.7 385.5,-291.7 162.5,-291.7"/>
<polygon fill="none" stroke="#000000" points="162.5,-291.7 162.5,-314.7 385.5,-314.7 385.5,-291.7 162.5,-291.7"/>
<text text-anchor="start" x="167.5" y="-300.8" font-family="Helvetica,sans-Serif" font-weight="bold" font-size="11.00" fill="#000000">aos_invoices</text>
<text text-anchor="start" x="350.5437" y="-299.8" font-family="Helvetica,sans-Serif" font-size="11.00" fill="#000000">[table]</text>
<polygon fill="none" stroke="#000000" points="162.5,-269.7 162.5,-291.7 385.5,-291.7 385.5,-269.7 162.5,-269.7"/>
<image xlink:href="../../images/primaryKeys.png" width="11px" height="12px" preserveAspectRatio="xMinYMin meet" x="167.5" y="-286.7"/>
<text text-anchor="start" x="182.5" y="-276.8" font-family="Helvetica,sans-Serif" font-size="11.00" fill="#000000">id</text>
<polygon fill="#c0c0c0" stroke="transparent" points="162.5,-247.7 162.5,-269.7 385.5,-269.7 385.5,-247.7 162.5,-247.7"/>
<polygon fill="none" stroke="#000000" points="162.5,-247.7 162.5,-269.7 385.5,-269.7 385.5,-247.7 162.5,-247.7"/>
<image xlink:href="../../images/foreignKeys.png" width="11px" height="12px" preserveAspectRatio="xMinYMin meet" x="167.5" y="-264.7"/>
<text text-anchor="start" x="182.5" y="-254.8" font-family="Helvetica,sans-Serif" font-size="11.00" fill="#000000">modified_user_id</text>
<polygon fill="#c0c0c0" stroke="transparent" points="162.5,-225.7 162.5,-247.7 385.5,-247.7 385.5,-225.7 162.5,-225.7"/>
<polygon fill="none" stroke="#000000" points="162.5,-225.7 162.5,-247.7 385.5,-247.7 385.5,-225.7 162.5,-225.7"/>
<image xlink:href="../../images/foreignKeys.png" width="11px" height="12px" preserveAspectRatio="xMinYMin meet" x="167.5" y="-242.7"/>
<text text-anchor="start" x="182.5" y="-232.8" font-family="Helvetica,sans-Serif" font-size="11.00" fill="#000000">created_by</text>
<polygon fill="#c0c0c0" stroke="transparent" points="162.5,-203.7 162.5,-225.7 385.5,-225.7 385.5,-203.7 162.5,-203.7"/>
<polygon fill="none" stroke="#000000" points="162.5,-203.7 162.5,-225.7 385.5,-225.7 385.5,-203.7 162.5,-203.7"/>
<image xlink:href="../../images/foreignKeys.png" width="11px" height="12px" preserveAspectRatio="xMinYMin meet" x="167.5" y="-220.7"/>
<text text-anchor="start" x="182.5" y="-210.8" font-family="Helvetica,sans-Serif" font-size="11.00" fill="#000000">assigned_user_id</text>
<polygon fill="none" stroke="#000000" points="162.5,-181.7 162.5,-203.7 385.5,-203.7 385.5,-181.7 162.5,-181.7"/>
<image xlink:href="../../images/foreignKeys.png" width="11px" height="12px" preserveAspectRatio="xMinYMin meet" x="167.5" y="-198.7"/>
<text text-anchor="start" x="182.5" y="-188.8" font-family="Helvetica,sans-Serif" font-size="11.00" fill="#000000">billing_account_id</text>
<polygon fill="none" stroke="#000000" points="162.5,-159.7 162.5,-181.7 385.5,-181.7 385.5,-159.7 162.5,-159.7"/>
<image xlink:href="../../images/foreignKeys.png" width="11px" height="12px" preserveAspectRatio="xMinYMin meet" x="167.5" y="-176.7"/>
<text text-anchor="start" x="182.5" y="-166.8" font-family="Helvetica,sans-Serif" font-size="11.00" fill="#000000">billing_contact_id</text>
<polygon fill="none" stroke="#000000" points="162.5,-140.7 162.5,-159.7 385.5,-159.7 385.5,-140.7 162.5,-140.7"/>
<text text-anchor="start" x="165.5" y="-146.8" font-family="Helvetica,sans-Serif" font-size="11.00" fill="#000000">...</text>
<polygon fill="#ffffff" stroke="transparent" points="162.5,-121.7 162.5,-140.7 267.5,-140.7 267.5,-121.7 162.5,-121.7"/>
<polygon fill="none" stroke="#000000" points="162.5,-121.7 162.5,-140.7 267.5,-140.7 267.5,-121.7 162.5,-121.7"/>
<text text-anchor="start" x="165.5" y="-127.8" font-family="Helvetica,sans-Serif" font-size="11.00" fill="#000000">&lt; 5</text>
<polygon fill="#ffffff" stroke="transparent" points="267.5,-121.7 267.5,-140.7 321.5,-140.7 321.5,-121.7 267.5,-121.7"/>
<polygon fill="none" stroke="#000000" points="267.5,-121.7 267.5,-140.7 321.5,-140.7 321.5,-121.7 267.5,-121.7"/>
<text text-anchor="start" x="312.3862" y="-127.8" font-family="Helvetica,sans-Serif" font-size="11.00" fill="#000000"> &#160;</text>
<polygon fill="#ffffff" stroke="transparent" points="321.5,-121.7 321.5,-140.7 385.5,-140.7 385.5,-121.7 321.5,-121.7"/>
<polygon fill="none" stroke="#000000" points="321.5,-121.7 321.5,-140.7 385.5,-140.7 385.5,-121.7 321.5,-121.7"/>
<text text-anchor="start" x="366.9053" y="-127.8" font-family="Helvetica,sans-Serif" font-size="11.00" fill="#000000">5 &gt;</text>
</a>
</g>
</g>
<!-- accounts -->
<g id="node2" class="node">
<title>accounts</title>
<g id="a_node2"><a xlink:href="../../tables/accounts.html" xlink:title="accounts" target="_top">
<polygon fill="#ffffff" stroke="transparent" points="17,-213.2 17,-274.2 104,-274.2 104,-213.2 17,-213.2"/>
<polygon fill="#f5f5f5" stroke="transparent" points="17.5,-250.7 17.5,-273.7 104.5,-273.7 104.5,-250.7 17.5,-250.7"/>
<polygon fill="none" stroke="#000000" points="17.5,-250.7 17.5,-273.7 104.5,-273.7 104.5,-250.7 17.5,-250.7"/>
<text text-anchor="start" x="22.4918" y="-259.8" font-family="Helvetica,sans-Serif" font-weight="bold" font-size="11.00" fill="#000000">accounts</text>
<text text-anchor="start" x="70.0219" y="-258.8" font-family="Helvetica,sans-Serif" font-size="11.00" fill="#000000">[table]</text>
<polygon fill="none" stroke="#000000" points="17.5,-231.7 17.5,-250.7 104.5,-250.7 104.5,-231.7 17.5,-231.7"/>
<text text-anchor="start" x="20.5" y="-237.8" font-family="Helvetica,sans-Serif" font-size="11.00" fill="#000000">...</text>
<polygon fill="#ffffff" stroke="transparent" points="17.5,-212.7 17.5,-231.7 51.5,-231.7 51.5,-212.7 17.5,-212.7"/>
<polygon fill="none" stroke="#000000" points="17.5,-212.7 17.5,-231.7 51.5,-231.7 51.5,-212.7 17.5,-212.7"/>
<text text-anchor="start" x="20.5" y="-218.8" font-family="Helvetica,sans-Serif" font-size="11.00" fill="#000000">&lt; 6</text>
<polygon fill="#ffffff" stroke="transparent" points="51.5,-212.7 51.5,-231.7 70.5,-231.7 70.5,-212.7 51.5,-212.7"/>
<polygon fill="none" stroke="#000000" points="51.5,-212.7 51.5,-231.7 70.5,-231.7 70.5,-212.7 51.5,-212.7"/>
<text text-anchor="start" x="61.3862" y="-218.8" font-family="Helvetica,sans-Serif" font-size="11.00" fill="#000000"> &#160;</text>
<polygon fill="#ffffff" stroke="transparent" points="70.5,-212.7 70.5,-231.7 104.5,-231.7 104.5,-212.7 70.5,-212.7"/>
<polygon fill="none" stroke="#000000" points="70.5,-212.7 70.5,-231.7 104.5,-231.7 104.5,-212.7 70.5,-212.7"/>
<text text-anchor="start" x="79.7904" y="-218.8" font-family="Helvetica,sans-Serif" font-size="11.00" fill="#000000">23 &gt;</text>
</a>
</g>
</g>
<!-- aos_invoices&#45;&gt;accounts -->
<g id="edge1" class="edge">
<title>aos_invoices:w&#45;&gt;accounts:e</title>
<path fill="none" stroke="#000000" d="M148.5725,-196.4665C130.8541,-207.782 132.2095,-240.7 104.5,-240.7"/>
<polygon fill="#000000" stroke="#000000" points="154.7774,-194.7885 163.4398,-196.1752 158.6387,-193.7443 162.5,-192.7 162.5,-192.7 162.5,-192.7 158.6387,-193.7443 161.5602,-189.2248 154.7774,-194.7885 154.7774,-194.7885"/>
<ellipse fill="none" stroke="#000000" cx="151.6884" cy="-195.6239" rx="3.2" ry="3.2"/>
</g>
<!-- contacts -->
<g id="node3" class="node">
<title>contacts</title>
<g id="a_node3"><a xlink:href="../../tables/contacts.html" xlink:title="contacts" target="_top">
<polygon fill="#ffffff" stroke="transparent" points="19,-131.2 19,-192.2 102,-192.2 102,-131.2 19,-131.2"/>
<polygon fill="#f5f5f5" stroke="transparent" points="19.5,-168.7 19.5,-191.7 102.5,-191.7 102.5,-168.7 19.5,-168.7"/>
<polygon fill="none" stroke="#000000" points="19.5,-168.7 19.5,-191.7 102.5,-191.7 102.5,-168.7 19.5,-168.7"/>
<text text-anchor="start" x="24.0208" y="-177.8" font-family="Helvetica,sans-Serif" font-weight="bold" font-size="11.00" fill="#000000">contacts</text>
<text text-anchor="start" x="68.0219" y="-176.8" font-family="Helvetica,sans-Serif" font-size="11.00" fill="#000000">[table]</text>
<polygon fill="none" stroke="#000000" points="19.5,-149.7 19.5,-168.7 102.5,-168.7 102.5,-149.7 19.5,-149.7"/>
<text text-anchor="start" x="22.5" y="-155.8" font-family="Helvetica,sans-Serif" font-size="11.00" fill="#000000">...</text>
<polygon fill="#ffffff" stroke="transparent" points="19.5,-130.7 19.5,-149.7 51.5,-149.7 51.5,-130.7 19.5,-130.7"/>
<polygon fill="none" stroke="#000000" points="19.5,-130.7 19.5,-149.7 51.5,-149.7 51.5,-130.7 19.5,-130.7"/>
<text text-anchor="start" x="22.5" y="-136.8" font-family="Helvetica,sans-Serif" font-size="11.00" fill="#000000">&lt; 7</text>
<polygon fill="#ffffff" stroke="transparent" points="51.5,-130.7 51.5,-149.7 69.5,-149.7 69.5,-130.7 51.5,-130.7"/>
<polygon fill="none" stroke="#000000" points="51.5,-130.7 51.5,-149.7 69.5,-149.7 69.5,-130.7 51.5,-130.7"/>
<text text-anchor="start" x="60.3862" y="-136.8" font-family="Helvetica,sans-Serif" font-size="11.00" fill="#000000"> &#160;</text>
<polygon fill="#ffffff" stroke="transparent" points="69.5,-130.7 69.5,-149.7 102.5,-149.7 102.5,-130.7 69.5,-130.7"/>
<polygon fill="none" stroke="#000000" points="69.5,-130.7 69.5,-149.7 102.5,-149.7 102.5,-130.7 69.5,-130.7"/>
<text text-anchor="start" x="77.7904" y="-136.8" font-family="Helvetica,sans-Serif" font-size="11.00" fill="#000000">30 &gt;</text>
</a>
</g>
</g>
<!-- aos_invoices&#45;&gt;contacts -->
<g id="edge2" class="edge">
<title>aos_invoices:w&#45;&gt;contacts:e</title>
<path fill="none" stroke="#000000" d="M147.7668,-169.3234C131.9779,-166.1714 123.9584,-158.7 102.5,-158.7"/>
<polygon fill="#000000" stroke="#000000" points="154.5347,-169.9557 162.1651,-174.2844 158.5173,-170.3279 162.5,-170.7 162.5,-170.7 162.5,-170.7 158.5173,-170.3279 162.8349,-167.1156 154.5347,-169.9557 154.5347,-169.9557"/>
<ellipse fill="none" stroke="#000000" cx="151.3486" cy="-169.658" rx="3.2" ry="3.2"/>
</g>
<!-- aos_line_item_groups -->
<g id="node4" class="node">
<title>aos_line_item_groups</title>
<g id="a_node4"><a xlink:href="../../tables/aos_line_item_groups.html" xlink:title="aos_line_item_groups" target="_top">
<polygon fill="#ffffff" stroke="transparent" points="498.5,-241.2 498.5,-302.2 648.5,-302.2 648.5,-241.2 498.5,-241.2"/>
<polygon fill="#f5f5f5" stroke="transparent" points="498.5,-278.7 498.5,-301.7 648.5,-301.7 648.5,-278.7 498.5,-278.7"/>
<polygon fill="none" stroke="#000000" points="498.5,-278.7 498.5,-301.7 648.5,-301.7 648.5,-278.7 498.5,-278.7"/>
<text text-anchor="start" x="503.2089" y="-287.8" font-family="Helvetica,sans-Serif" font-weight="bold" font-size="11.00" fill="#000000">aos_line_item_groups</text>
<text text-anchor="start" x="614.0219" y="-286.8" font-family="Helvetica,sans-Serif" font-size="11.00" fill="#000000">[table]</text>
<polygon fill="none" stroke="#000000" points="498.5,-259.7 498.5,-278.7 648.5,-278.7 648.5,-259.7 498.5,-259.7"/>
<text text-anchor="start" x="501.5" y="-265.8" font-family="Helvetica,sans-Serif" font-size="11.00" fill="#000000">...</text>
<polygon fill="#ffffff" stroke="transparent" points="498.5,-240.7 498.5,-259.7 567.5,-259.7 567.5,-240.7 498.5,-240.7"/>
<polygon fill="none" stroke="#000000" points="498.5,-240.7 498.5,-259.7 567.5,-259.7 567.5,-240.7 498.5,-240.7"/>
<text text-anchor="start" x="501.5" y="-246.8" font-family="Helvetica,sans-Serif" font-size="11.00" fill="#000000">&lt; 6</text>
<polygon fill="#ffffff" stroke="transparent" points="567.5,-240.7 567.5,-259.7 603.5,-259.7 603.5,-240.7 567.5,-240.7"/>
<polygon fill="none" stroke="#000000" points="567.5,-240.7 567.5,-259.7 603.5,-259.7 603.5,-240.7 567.5,-240.7"/>
<text text-anchor="start" x="594.3862" y="-246.8" font-family="Helvetica,sans-Serif" font-size="11.00" fill="#000000"> &#160;</text>
<polygon fill="#ffffff" stroke="transparent" points="603.5,-240.7 603.5,-259.7 648.5,-259.7 648.5,-240.7 603.5,-240.7"/>
<polygon fill="none" stroke="#000000" points="603.5,-240.7 603.5,-259.7 648.5,-259.7 648.5,-240.7 603.5,-240.7"/>
<text text-anchor="start" x="629.9053" y="-246.8" font-family="Helvetica,sans-Serif" font-size="11.00" fill="#000000">2 &gt;</text>
</a>
</g>
</g>
<!-- aos_line_item_groups&#45;&gt;aos_invoices -->
<g id="edge3" class="edge">
<title>aos_line_item_groups:w&#45;&gt;aos_invoices:e</title>
<path fill="none" stroke="#000000" d="M483.9686,-269.0591C445.1002,-271.0558 430.7766,-280.7 385.5,-280.7"/>
<polygon fill="#000000" stroke="#000000" points="490.5024,-268.8977 498.589,-272.2989 494.5012,-268.7989 498.5,-268.7 498.5,-268.7 498.5,-268.7 494.5012,-268.7989 498.411,-265.1011 490.5024,-268.8977 490.5024,-268.8977"/>
<ellipse fill="none" stroke="#000000" cx="487.3034" cy="-268.9768" rx="3.2" ry="3.2"/>
</g>
<!-- aos_quotes -->
<g id="node5" class="node">
<title>aos_quotes</title>
<g id="a_node5"><a xlink:href="../../tables/aos_quotes.html" xlink:title="aos_quotes" target="_top">
<polygon fill="#ffffff" stroke="transparent" points="162,-336.2 162,-551.2 385,-551.2 385,-336.2 162,-336.2"/>
<polygon fill="#f5f5f5" stroke="transparent" points="162.5,-527.7 162.5,-550.7 385.5,-550.7 385.5,-527.7 162.5,-527.7"/>
<polygon fill="none" stroke="#000000" points="162.5,-527.7 162.5,-550.7 385.5,-550.7 385.5,-527.7 162.5,-527.7"/>
<text text-anchor="start" x="167.5" y="-536.8" font-family="Helvetica,sans-Serif" font-weight="bold" font-size="11.00" fill="#000000">aos_quotes</text>
<text text-anchor="start" x="350.5437" y="-535.8" font-family="Helvetica,sans-Serif" font-size="11.00" fill="#000000">[table]</text>
<polygon fill="none" stroke="#000000" points="162.5,-505.7 162.5,-527.7 385.5,-527.7 385.5,-505.7 162.5,-505.7"/>
<image xlink:href="../../images/primaryKeys.png" width="11px" height="12px" preserveAspectRatio="xMinYMin meet" x="167.5" y="-522.7"/>
<text text-anchor="start" x="182.5" y="-512.8" font-family="Helvetica,sans-Serif" font-size="11.00" fill="#000000">id</text>
<polygon fill="#c0c0c0" stroke="transparent" points="162.5,-483.7 162.5,-505.7 385.5,-505.7 385.5,-483.7 162.5,-483.7"/>
<polygon fill="none" stroke="#000000" points="162.5,-483.7 162.5,-505.7 385.5,-505.7 385.5,-483.7 162.5,-483.7"/>
<image xlink:href="../../images/foreignKeys.png" width="11px" height="12px" preserveAspectRatio="xMinYMin meet" x="167.5" y="-500.7"/>
<text text-anchor="start" x="182.5" y="-490.8" font-family="Helvetica,sans-Serif" font-size="11.00" fill="#000000">modified_user_id</text>
<polygon fill="#c0c0c0" stroke="transparent" points="162.5,-461.7 162.5,-483.7 385.5,-483.7 385.5,-461.7 162.5,-461.7"/>
<polygon fill="none" stroke="#000000" points="162.5,-461.7 162.5,-483.7 385.5,-483.7 385.5,-461.7 162.5,-461.7"/>
<image xlink:href="../../images/foreignKeys.png" width="11px" height="12px" preserveAspectRatio="xMinYMin meet" x="167.5" y="-478.7"/>
<text text-anchor="start" x="182.5" y="-468.8" font-family="Helvetica,sans-Serif" font-size="11.00" fill="#000000">created_by</text>
<polygon fill="#c0c0c0" stroke="transparent" points="162.5,-439.7 162.5,-461.7 385.5,-461.7 385.5,-439.7 162.5,-439.7"/>
<polygon fill="none" stroke="#000000" points="162.5,-439.7 162.5,-461.7 385.5,-461.7 385.5,-439.7 162.5,-439.7"/>
<image xlink:href="../../images/foreignKeys.png" width="11px" height="12px" preserveAspectRatio="xMinYMin meet" x="167.5" y="-456.7"/>
<text text-anchor="start" x="182.5" y="-446.8" font-family="Helvetica,sans-Serif" font-size="11.00" fill="#000000">assigned_user_id</text>
<polygon fill="none" stroke="#000000" points="162.5,-417.7 162.5,-439.7 385.5,-439.7 385.5,-417.7 162.5,-417.7"/>
<image xlink:href="../../images/foreignKeys.png" width="11px" height="12px" preserveAspectRatio="xMinYMin meet" x="167.5" y="-434.7"/>
<text text-anchor="start" x="182.5" y="-424.8" font-family="Helvetica,sans-Serif" font-size="11.00" fill="#000000">billing_account_id</text>
<polygon fill="none" stroke="#000000" points="162.5,-395.7 162.5,-417.7 385.5,-417.7 385.5,-395.7 162.5,-395.7"/>
<image xlink:href="../../images/foreignKeys.png" width="11px" height="12px" preserveAspectRatio="xMinYMin meet" x="167.5" y="-412.7"/>
<text text-anchor="start" x="182.5" y="-402.8" font-family="Helvetica,sans-Serif" font-size="11.00" fill="#000000">billing_contact_id</text>
<polygon fill="none" stroke="#000000" points="162.5,-373.7 162.5,-395.7 385.5,-395.7 385.5,-373.7 162.5,-373.7"/>
<image xlink:href="../../images/foreignKeys.png" width="11px" height="12px" preserveAspectRatio="xMinYMin meet" x="167.5" y="-390.7"/>
<text text-anchor="start" x="182.5" y="-380.8" font-family="Helvetica,sans-Serif" font-size="11.00" fill="#000000">opportunity_id</text>
<polygon fill="none" stroke="#000000" points="162.5,-354.7 162.5,-373.7 385.5,-373.7 385.5,-354.7 162.5,-354.7"/>
<text text-anchor="start" x="165.5" y="-360.8" font-family="Helvetica,sans-Serif" font-size="11.00" fill="#000000">...</text>
<polygon fill="#ffffff" stroke="transparent" points="162.5,-335.7 162.5,-354.7 267.5,-354.7 267.5,-335.7 162.5,-335.7"/>
<polygon fill="none" stroke="#000000" points="162.5,-335.7 162.5,-354.7 267.5,-354.7 267.5,-335.7 162.5,-335.7"/>
<text text-anchor="start" x="165.5" y="-341.8" font-family="Helvetica,sans-Serif" font-size="11.00" fill="#000000">&lt; 6</text>
<polygon fill="#ffffff" stroke="transparent" points="267.5,-335.7 267.5,-354.7 321.5,-354.7 321.5,-335.7 267.5,-335.7"/>
<polygon fill="none" stroke="#000000" points="267.5,-335.7 267.5,-354.7 321.5,-354.7 321.5,-335.7 267.5,-335.7"/>
<text text-anchor="start" x="312.3862" y="-341.8" font-family="Helvetica,sans-Serif" font-size="11.00" fill="#000000"> &#160;</text>
<polygon fill="#ffffff" stroke="transparent" points="321.5,-335.7 321.5,-354.7 385.5,-354.7 385.5,-335.7 321.5,-335.7"/>
<polygon fill="none" stroke="#000000" points="321.5,-335.7 321.5,-354.7 385.5,-354.7 385.5,-335.7 321.5,-335.7"/>
<text text-anchor="start" x="366.9053" y="-341.8" font-family="Helvetica,sans-Serif" font-size="11.00" fill="#000000">7 &gt;</text>
</a>
</g>
</g>
<!-- aos_line_item_groups&#45;&gt;aos_quotes -->
<g id="edge4" class="edge">
<title>aos_line_item_groups:w&#45;&gt;aos_quotes:e</title>
<path fill="none" stroke="#000000" d="M483.9604,-269.4913C456.9303,-272.7412 444.5734,-286.1624 426,-312.7 372.997,-388.4306 477.9362,-516.7 385.5,-516.7"/>
<polygon fill="#000000" stroke="#000000" points="490.5118,-269.1348 498.6956,-272.2947 494.5059,-268.9174 498.5,-268.7 498.5,-268.7 498.5,-268.7 494.5059,-268.9174 498.3044,-265.1053 490.5118,-269.1348 490.5118,-269.1348"/>
<ellipse fill="none" stroke="#000000" cx="487.3165" cy="-269.3087" rx="3.2" ry="3.2"/>
</g>
<!-- aos_quotes&#45;&gt;accounts -->
<g id="edge8" class="edge">
<title>aos_quotes:w&#45;&gt;accounts:e</title>
<path fill="none" stroke="#000000" d="M148.0294,-426.4577C89.2766,-405.2466 186.3057,-240.7 104.5,-240.7"/>
<polygon fill="#000000" stroke="#000000" points="154.5943,-427.4749 161.9487,-432.2575 158.5472,-428.0875 162.5,-428.7 162.5,-428.7 162.5,-428.7 158.5472,-428.0875 163.0513,-425.1425 154.5943,-427.4749 154.5943,-427.4749"/>
<ellipse fill="none" stroke="#000000" cx="151.4321" cy="-426.9849" rx="3.2" ry="3.2"/>
</g>
<!-- aos_quotes&#45;&gt;contacts -->
<g id="edge9" class="edge">
<title>aos_quotes:w&#45;&gt;contacts:e</title>
<path fill="none" stroke="#000000" d="M149.2745,-400.5696C114.8441,-362.3797 153.8854,-158.7 102.5,-158.7"/>
<polygon fill="#000000" stroke="#000000" points="155.2418,-403.3356 160.986,-409.9662 158.8709,-405.0178 162.5,-406.7 162.5,-406.7 162.5,-406.7 158.8709,-405.0178 164.014,-403.4338 155.2418,-403.3356 155.2418,-403.3356"/>
<ellipse fill="none" stroke="#000000" cx="152.3385" cy="-401.9899" rx="3.2" ry="3.2"/>
</g>
<!-- opportunities -->
<g id="node7" class="node">
<title>opportunities</title>
<g id="a_node7"><a xlink:href="../../tables/opportunities.html" xlink:title="opportunities" target="_top">
<polygon fill="#ffffff" stroke="transparent" points="8,-38.2 8,-99.2 113,-99.2 113,-38.2 8,-38.2"/>
<polygon fill="#f5f5f5" stroke="transparent" points="8.5,-75.7 8.5,-98.7 113.5,-98.7 113.5,-75.7 8.5,-75.7"/>
<polygon fill="none" stroke="#000000" points="8.5,-75.7 8.5,-98.7 113.5,-98.7 113.5,-75.7 8.5,-75.7"/>
<text text-anchor="start" x="13.0191" y="-84.8" font-family="Helvetica,sans-Serif" font-weight="bold" font-size="11.00" fill="#000000">opportunities</text>
<text text-anchor="start" x="79.0219" y="-83.8" font-family="Helvetica,sans-Serif" font-size="11.00" fill="#000000">[table]</text>
<polygon fill="none" stroke="#000000" points="8.5,-56.7 8.5,-75.7 113.5,-75.7 113.5,-56.7 8.5,-56.7"/>
<text text-anchor="start" x="11.5" y="-62.8" font-family="Helvetica,sans-Serif" font-size="11.00" fill="#000000">...</text>
<polygon fill="#ffffff" stroke="transparent" points="8.5,-37.7 8.5,-56.7 51.5,-56.7 51.5,-37.7 8.5,-37.7"/>
<polygon fill="none" stroke="#000000" points="8.5,-37.7 8.5,-56.7 51.5,-56.7 51.5,-37.7 8.5,-37.7"/>
<text text-anchor="start" x="11.5" y="-43.8" font-family="Helvetica,sans-Serif" font-size="11.00" fill="#000000">&lt; 6</text>
<polygon fill="#ffffff" stroke="transparent" points="51.5,-37.7 51.5,-56.7 74.5,-56.7 74.5,-37.7 51.5,-37.7"/>
<polygon fill="none" stroke="#000000" points="51.5,-37.7 51.5,-56.7 74.5,-56.7 74.5,-37.7 51.5,-37.7"/>
<text text-anchor="start" x="65.3862" y="-43.8" font-family="Helvetica,sans-Serif" font-size="11.00" fill="#000000"> &#160;</text>
<polygon fill="#ffffff" stroke="transparent" points="74.5,-37.7 74.5,-56.7 113.5,-56.7 113.5,-37.7 74.5,-37.7"/>
<polygon fill="none" stroke="#000000" points="74.5,-37.7 74.5,-56.7 113.5,-56.7 113.5,-37.7 74.5,-37.7"/>
<text text-anchor="start" x="88.7904" y="-43.8" font-family="Helvetica,sans-Serif" font-size="11.00" fill="#000000">17 &gt;</text>
</a>
</g>
</g>
<!-- aos_quotes&#45;&gt;opportunities -->
<g id="edge10" class="edge">
<title>aos_quotes:w&#45;&gt;opportunities:e</title>
<path fill="none" stroke="#000000" d="M148.8562,-379.4293C104.203,-337.9532 179.7572,-65.7 113.5,-65.7"/>
<polygon fill="#000000" stroke="#000000" points="155.0375,-381.8171 161.2027,-388.0581 158.7687,-383.2586 162.5,-384.7 162.5,-384.7 162.5,-384.7 158.7687,-383.2586 163.7973,-381.3419 155.0375,-381.8171 155.0375,-381.8171"/>
<ellipse fill="none" stroke="#000000" cx="152.0525" cy="-380.664" rx="3.2" ry="3.2"/>
</g>
<!-- aos_products_quotes -->
<g id="node6" class="node">
<title>aos_products_quotes</title>
<g id="a_node6"><a xlink:href="../../tables/aos_products_quotes.html" xlink:title="aos_products_quotes" target="_top">
<polygon fill="#ffffff" stroke="transparent" points="762,-241.2 762,-302.2 910,-302.2 910,-241.2 762,-241.2"/>
<polygon fill="#f5f5f5" stroke="transparent" points="762,-278.7 762,-301.7 910,-301.7 910,-278.7 762,-278.7"/>
<polygon fill="none" stroke="#000000" points="762,-278.7 762,-301.7 910,-301.7 910,-278.7 762,-278.7"/>
<text text-anchor="start" x="766.9227" y="-287.8" font-family="Helvetica,sans-Serif" font-weight="bold" font-size="11.00" fill="#000000">aos_products_quotes</text>
<text text-anchor="start" x="875.5219" y="-286.8" font-family="Helvetica,sans-Serif" font-size="11.00" fill="#000000">[table]</text>
<polygon fill="none" stroke="#000000" points="762,-259.7 762,-278.7 910,-278.7 910,-259.7 762,-259.7"/>
<text text-anchor="start" x="765" y="-265.8" font-family="Helvetica,sans-Serif" font-size="11.00" fill="#000000">...</text>
<polygon fill="#ffffff" stroke="transparent" points="762,-240.7 762,-259.7 830,-259.7 830,-240.7 762,-240.7"/>
<polygon fill="none" stroke="#000000" points="762,-240.7 762,-259.7 830,-259.7 830,-240.7 762,-240.7"/>
<text text-anchor="start" x="765" y="-246.8" font-family="Helvetica,sans-Serif" font-size="11.00" fill="#000000">&lt; 8</text>
<polygon fill="#ffffff" stroke="transparent" points="830,-240.7 830,-259.7 865,-259.7 865,-240.7 830,-240.7"/>
<polygon fill="none" stroke="#000000" points="830,-240.7 830,-259.7 865,-259.7 865,-240.7 830,-240.7"/>
<text text-anchor="start" x="855.8862" y="-246.8" font-family="Helvetica,sans-Serif" font-size="11.00" fill="#000000"> &#160;</text>
<polygon fill="#ffffff" stroke="transparent" points="865,-240.7 865,-259.7 910,-259.7 910,-240.7 865,-240.7"/>
<polygon fill="none" stroke="#000000" points="865,-240.7 865,-259.7 910,-259.7 910,-240.7 865,-240.7"/>
<text text-anchor="start" x="891.4053" y="-246.8" font-family="Helvetica,sans-Serif" font-size="11.00" fill="#000000">1 &gt;</text>
</a>
</g>
</g>
<!-- aos_products_quotes&#45;&gt;aos_invoices -->
<g id="edge6" class="edge">
<title>aos_products_quotes:w&#45;&gt;aos_invoices:e</title>
<path fill="none" stroke="#000000" d="M748.3649,-264.038C738.7609,-255.4765 738.3477,-237.5029 721,-230.7 598.9388,-182.8337 544.3426,-174.2629 426,-230.7 400.1874,-243.0099 414.0977,-280.7 385.5,-280.7"/>
<polygon fill="#000000" stroke="#000000" points="754.4302,-266.1118 760.8353,-272.1064 758.2151,-267.4059 762,-268.7 762,-268.7 762,-268.7 758.2151,-267.4059 763.1647,-265.2936 754.4302,-266.1118 754.4302,-266.1118"/>
<ellipse fill="none" stroke="#000000" cx="751.4023" cy="-265.0765" rx="3.2" ry="3.2"/>
</g>
<!-- aos_products_quotes&#45;&gt;aos_line_item_groups -->
<g id="edge5" class="edge">
<title>aos_products_quotes:w&#45;&gt;aos_line_item_groups:e</title>
<path fill="none" stroke="#000000" d="M747.4669,-268.7C708.5393,-268.7 693.7227,-268.7 648.5,-268.7"/>
<polygon fill="#000000" stroke="#000000" points="754,-268.7001 762,-272.3 758,-268.7 762,-268.7 762,-268.7 762,-268.7 758,-268.7 762,-265.1 754,-268.7001 754,-268.7001"/>
<ellipse fill="none" stroke="#000000" cx="750.8" cy="-268.7001" rx="3.2" ry="3.2"/>
</g>
<!-- aos_products_quotes&#45;&gt;aos_quotes -->
<g id="edge7" class="edge">
<title>aos_products_quotes:w&#45;&gt;aos_quotes:e</title>
<path fill="none" stroke="#000000" d="M748.0289,-272.4012C688.7363,-308.6823 781.1272,-600.6212 721,-654.7 623.5172,-742.3768 530.9545,-733.2791 426,-654.7 374.8319,-616.3906 449.4201,-516.7 385.5,-516.7"/>
<polygon fill="#000000" stroke="#000000" points="754.2668,-270.7487 762.9219,-272.18 758.1334,-269.7244 762,-268.7 762,-268.7 762,-268.7 758.1334,-269.7244 761.0781,-265.22 754.2668,-270.7487 754.2668,-270.7487"/>
<ellipse fill="none" stroke="#000000" cx="751.1735" cy="-271.5682" rx="3.2" ry="3.2"/>
</g>
<!-- aos_quotes_aos_invoices_c -->
<g id="node8" class="node">
<title>aos_quotes_aos_invoices_c</title>
<g id="a_node8"><a xlink:href="../../tables/aos_quotes_aos_invoices_c.html" xlink:title="aos_quotes_aos_invoices_c" target="_top">
<polygon fill="#ffffff" stroke="transparent" points="434,-323.7 434,-479.7 713,-479.7 713,-323.7 434,-323.7"/>
<polygon fill="#f5f5f5" stroke="transparent" points="436.5,-454.7 436.5,-477.7 711.5,-477.7 711.5,-454.7 436.5,-454.7"/>
<polygon fill="none" stroke="#000000" points="436.5,-454.7 436.5,-477.7 711.5,-477.7 711.5,-454.7 436.5,-454.7"/>
<text text-anchor="start" x="441.5" y="-463.8" font-family="Helvetica,sans-Serif" font-weight="bold" font-size="11.00" fill="#000000">aos_quotes_aos_invoices_c</text>
<text text-anchor="start" x="676.5437" y="-462.8" font-family="Helvetica,sans-Serif" font-size="11.00" fill="#000000">[table]</text>
<polygon fill="none" stroke="#000000" points="436.5,-432.7 436.5,-454.7 645.5,-454.7 645.5,-432.7 436.5,-432.7"/>
<image xlink:href="../../images/primaryKeys.png" width="11px" height="12px" preserveAspectRatio="xMinYMin meet" x="441.5" y="-449.7"/>
<text text-anchor="start" x="456.5" y="-439.8" font-family="Helvetica,sans-Serif" font-size="11.00" fill="#000000">id</text>
<polygon fill="none" stroke="#000000" points="645.5,-432.7 645.5,-454.7 711.5,-454.7 711.5,-432.7 645.5,-432.7"/>
<text text-anchor="start" x="648.5" y="-440.4" font-family="Helvetica,sans-Serif" font-size="11.00" fill="#000000">varchar[36]</text>
<polygon fill="none" stroke="#000000" points="436.5,-410.7 436.5,-432.7 645.5,-432.7 645.5,-410.7 436.5,-410.7"/>
<text text-anchor="start" x="456.5" y="-417.8" font-family="Helvetica,sans-Serif" font-size="11.00" fill="#000000">date_modified</text>
<polygon fill="none" stroke="#000000" points="645.5,-410.7 645.5,-432.7 711.5,-432.7 711.5,-410.7 645.5,-410.7"/>
<text text-anchor="start" x="648.2401" y="-418.4" font-family="Helvetica,sans-Serif" font-size="11.00" fill="#000000">datetime[26]</text>
<polygon fill="none" stroke="#000000" points="436.5,-388.7 436.5,-410.7 645.5,-410.7 645.5,-388.7 436.5,-388.7"/>
<text text-anchor="start" x="456.5" y="-395.8" font-family="Helvetica,sans-Serif" font-size="11.00" fill="#000000">deleted</text>
<polygon fill="none" stroke="#000000" points="645.5,-388.7 645.5,-410.7 711.5,-410.7 711.5,-388.7 645.5,-388.7"/>
<text text-anchor="start" x="648.5" y="-396.4" font-family="Helvetica,sans-Serif" font-size="11.00" fill="#000000">bit[1]</text>
<polygon fill="#ffffff" stroke="transparent" points="436.5,-366.7 436.5,-388.7 645.5,-388.7 645.5,-366.7 436.5,-366.7"/>
<polygon fill="none" stroke="#000000" points="436.5,-366.7 436.5,-388.7 645.5,-388.7 645.5,-366.7 436.5,-366.7"/>
<image xlink:href="../../images/foreignKeys.png" width="11px" height="12px" preserveAspectRatio="xMinYMin meet" x="441.5" y="-383.7"/>
<text text-anchor="start" x="456.5" y="-373.8" font-family="Helvetica,sans-Serif" font-size="11.00" fill="#000000">aos_quotes77d9_quotes_ida</text>
<polygon fill="none" stroke="#000000" points="645.5,-366.7 645.5,-388.7 711.5,-388.7 711.5,-366.7 645.5,-366.7"/>
<text text-anchor="start" x="648.5" y="-374.4" font-family="Helvetica,sans-Serif" font-size="11.00" fill="#000000">varchar[36]</text>
<polygon fill="#ffffff" stroke="transparent" points="436.5,-344.7 436.5,-366.7 645.5,-366.7 645.5,-344.7 436.5,-344.7"/>
<polygon fill="none" stroke="#000000" points="436.5,-344.7 436.5,-366.7 645.5,-366.7 645.5,-344.7 436.5,-344.7"/>
<image xlink:href="../../images/foreignKeys.png" width="11px" height="12px" preserveAspectRatio="xMinYMin meet" x="441.5" y="-361.7"/>
<text text-anchor="start" x="456.5" y="-351.8" font-family="Helvetica,sans-Serif" font-size="11.00" fill="#000000">aos_quotes6b83nvoices_idb</text>
<polygon fill="none" stroke="#000000" points="645.5,-344.7 645.5,-366.7 711.5,-366.7 711.5,-344.7 645.5,-344.7"/>
<text text-anchor="start" x="648.5" y="-352.4" font-family="Helvetica,sans-Serif" font-size="11.00" fill="#000000">varchar[36]</text>
<polygon fill="#ffffff" stroke="transparent" points="436.5,-325.7 436.5,-344.7 545.5,-344.7 545.5,-325.7 436.5,-325.7"/>
<polygon fill="none" stroke="#000000" points="436.5,-325.7 436.5,-344.7 545.5,-344.7 545.5,-325.7 436.5,-325.7"/>
<text text-anchor="start" x="439.5" y="-331.8" font-family="Helvetica,sans-Serif" font-size="11.00" fill="#000000">&lt; 2</text>
<polygon fill="#ffffff" stroke="transparent" points="545.5,-325.7 545.5,-344.7 645.5,-344.7 645.5,-325.7 545.5,-325.7"/>
<polygon fill="none" stroke="#000000" points="545.5,-325.7 545.5,-344.7 645.5,-344.7 645.5,-325.7 545.5,-325.7"/>
<text text-anchor="start" x="636.3862" y="-331.8" font-family="Helvetica,sans-Serif" font-size="11.00" fill="#000000"> &#160;</text>
<polygon fill="#ffffff" stroke="transparent" points="645.5,-325.7 645.5,-344.7 711.5,-344.7 711.5,-325.7 645.5,-325.7"/>
<polygon fill="none" stroke="#000000" points="645.5,-325.7 645.5,-344.7 711.5,-344.7 711.5,-325.7 645.5,-325.7"/>
<text text-anchor="start" x="692.9053" y="-331.8" font-family="Helvetica,sans-Serif" font-size="11.00" fill="#000000">0 &gt;</text>
<polygon fill="none" stroke="#000000" stroke-width="2" points="435,-324.7 435,-478.7 712,-478.7 712,-324.7 435,-324.7"/>
</a>
</g>
</g>
<!-- aos_quotes_aos_invoices_c&#45;&gt;aos_invoices -->
<g id="edge11" class="edge">
<title>aos_quotes_aos_invoices_c:w&#45;&gt;aos_invoices:e</title>
<path fill="none" stroke="#000000" d="M422.7145,-351.233C403.4427,-335.0869 419.8264,-280.7 385.5,-280.7"/>
<polygon fill="#000000" stroke="#000000" points="428.8896,-353.2339 435.3903,-359.1247 432.6948,-354.467 436.5,-355.7 436.5,-355.7 436.5,-355.7 432.6948,-354.467 437.6097,-352.2753 428.8896,-353.2339 428.8896,-353.2339"/>
<ellipse fill="none" stroke="#000000" cx="425.8454" cy="-352.2475" rx="3.2" ry="3.2"/>
</g>
<!-- aos_quotes_aos_invoices_c&#45;&gt;aos_quotes -->
<g id="edge12" class="edge">
<title>aos_quotes_aos_invoices_c:w&#45;&gt;aos_quotes:e</title>
<path fill="none" stroke="#000000" d="M422.0967,-380.8644C383.9979,-401.5546 445.3926,-516.7 385.5,-516.7"/>
<polygon fill="#000000" stroke="#000000" points="428.6863,-379.4167 437.2725,-381.2161 432.5932,-378.5583 436.5,-377.7 436.5,-377.7 436.5,-377.7 432.5932,-378.5583 435.7275,-374.1839 428.6863,-379.4167 428.6863,-379.4167"/>
<ellipse fill="none" stroke="#000000" cx="425.5609" cy="-380.1034" rx="3.2" ry="3.2"/>
</g>
<!-- aos_quotes_os_contracts_c -->
<g id="node9" class="node">
<title>aos_quotes_os_contracts_c</title>
<g id="a_node9"><a xlink:href="../../tables/aos_quotes_os_contracts_c.html" xlink:title="aos_quotes_os_contracts_c" target="_top">
<polygon fill="#ffffff" stroke="transparent" points="484,-583.2 484,-644.2 663,-644.2 663,-583.2 484,-583.2"/>
<polygon fill="#f5f5f5" stroke="transparent" points="484.5,-620.7 484.5,-643.7 663.5,-643.7 663.5,-620.7 484.5,-620.7"/>
<polygon fill="none" stroke="#000000" points="484.5,-620.7 484.5,-643.7 663.5,-643.7 663.5,-620.7 484.5,-620.7"/>
<text text-anchor="start" x="489.0294" y="-629.8" font-family="Helvetica,sans-Serif" font-weight="bold" font-size="11.00" fill="#000000">aos_quotes_os_contracts_c</text>
<text text-anchor="start" x="629.0219" y="-628.8" font-family="Helvetica,sans-Serif" font-size="11.00" fill="#000000">[table]</text>
<polygon fill="none" stroke="#000000" points="484.5,-601.7 484.5,-620.7 663.5,-620.7 663.5,-601.7 484.5,-601.7"/>
<text text-anchor="start" x="487.5" y="-607.8" font-family="Helvetica,sans-Serif" font-size="11.00" fill="#000000">...</text>
<polygon fill="#ffffff" stroke="transparent" points="484.5,-582.7 484.5,-601.7 572.5,-601.7 572.5,-582.7 484.5,-582.7"/>
<polygon fill="none" stroke="#000000" points="484.5,-582.7 484.5,-601.7 572.5,-601.7 572.5,-582.7 484.5,-582.7"/>
<text text-anchor="start" x="487.5" y="-588.8" font-family="Helvetica,sans-Serif" font-size="11.00" fill="#000000">&lt; 2</text>
<polygon fill="#ffffff" stroke="transparent" points="572.5,-582.7 572.5,-601.7 617.5,-601.7 617.5,-582.7 572.5,-582.7"/>
<polygon fill="none" stroke="#000000" points="572.5,-582.7 572.5,-601.7 617.5,-601.7 617.5,-582.7 572.5,-582.7"/>
<text text-anchor="start" x="608.3862" y="-588.8" font-family="Helvetica,sans-Serif" font-size="11.00" fill="#000000"> &#160;</text>
<polygon fill="#ffffff" stroke="transparent" points="617.5,-582.7 617.5,-601.7 663.5,-601.7 663.5,-582.7 617.5,-582.7"/>
<polygon fill="none" stroke="#000000" points="617.5,-582.7 617.5,-601.7 663.5,-601.7 663.5,-582.7 617.5,-582.7"/>
<text text-anchor="start" x="654.3862" y="-588.8" font-family="Helvetica,sans-Serif" font-size="11.00" fill="#000000"> &#160;</text>
</a>
</g>
</g>
<!-- aos_quotes_os_contracts_c&#45;&gt;aos_quotes -->
<g id="edge13" class="edge">
<title>aos_quotes_os_contracts_c:w&#45;&gt;aos_quotes:e</title>
<path fill="none" stroke="#000000" d="M470.051,-609.1579C451.1252,-604.5698 444.4282,-590.228 426,-572.7 403.7439,-551.5311 416.2157,-516.7 385.5,-516.7"/>
<polygon fill="#000000" stroke="#000000" points="476.5452,-609.851 484.1179,-614.2797 480.5226,-610.2755 484.5,-610.7 484.5,-610.7 484.5,-610.7 480.5226,-610.2755 484.8821,-607.1203 476.5452,-609.851 476.5452,-609.851"/>
<ellipse fill="none" stroke="#000000" cx="473.3632" cy="-609.5114" rx="3.2" ry="3.2"/>
</g>
<!-- aos_quotes_project_c -->
<g id="node10" class="node">
<title>aos_quotes_project_c</title>
<g id="a_node10"><a xlink:href="../../tables/aos_quotes_project_c.html" xlink:title="aos_quotes_project_c" target="_top">
<polygon fill="#ffffff" stroke="transparent" points="498.5,-501.2 498.5,-562.2 648.5,-562.2 648.5,-501.2 498.5,-501.2"/>
<polygon fill="#f5f5f5" stroke="transparent" points="498.5,-538.7 498.5,-561.7 648.5,-561.7 648.5,-538.7 498.5,-538.7"/>
<polygon fill="none" stroke="#000000" points="498.5,-538.7 498.5,-561.7 648.5,-561.7 648.5,-538.7 498.5,-538.7"/>
<text text-anchor="start" x="503.2023" y="-547.8" font-family="Helvetica,sans-Serif" font-weight="bold" font-size="11.00" fill="#000000">aos_quotes_project_c</text>
<text text-anchor="start" x="614.0219" y="-546.8" font-family="Helvetica,sans-Serif" font-size="11.00" fill="#000000">[table]</text>
<polygon fill="none" stroke="#000000" points="498.5,-519.7 498.5,-538.7 648.5,-538.7 648.5,-519.7 498.5,-519.7"/>
<text text-anchor="start" x="501.5" y="-525.8" font-family="Helvetica,sans-Serif" font-size="11.00" fill="#000000">...</text>
<polygon fill="#ffffff" stroke="transparent" points="498.5,-500.7 498.5,-519.7 571.5,-519.7 571.5,-500.7 498.5,-500.7"/>
<polygon fill="none" stroke="#000000" points="498.5,-500.7 498.5,-519.7 571.5,-519.7 571.5,-500.7 498.5,-500.7"/>
<text text-anchor="start" x="501.5" y="-506.8" font-family="Helvetica,sans-Serif" font-size="11.00" fill="#000000">&lt; 2</text>
<polygon fill="#ffffff" stroke="transparent" points="571.5,-500.7 571.5,-519.7 609.5,-519.7 609.5,-500.7 571.5,-500.7"/>
<polygon fill="none" stroke="#000000" points="571.5,-500.7 571.5,-519.7 609.5,-519.7 609.5,-500.7 571.5,-500.7"/>
<text text-anchor="start" x="600.3862" y="-506.8" font-family="Helvetica,sans-Serif" font-size="11.00" fill="#000000"> &#160;</text>
<polygon fill="#ffffff" stroke="transparent" points="609.5,-500.7 609.5,-519.7 648.5,-519.7 648.5,-500.7 609.5,-500.7"/>
<polygon fill="none" stroke="#000000" points="609.5,-500.7 609.5,-519.7 648.5,-519.7 648.5,-500.7 609.5,-500.7"/>
<text text-anchor="start" x="639.3862" y="-506.8" font-family="Helvetica,sans-Serif" font-size="11.00" fill="#000000"> &#160;</text>
</a>
</g>
</g>
<!-- aos_quotes_project_c&#45;&gt;aos_quotes -->
<g id="edge14" class="edge">
<title>aos_quotes_project_c:w&#45;&gt;aos_quotes:e</title>
<path fill="none" stroke="#000000" d="M483.9686,-528.3409C445.1002,-526.3442 430.7766,-516.7 385.5,-516.7"/>
<polygon fill="#000000" stroke="#000000" points="490.5024,-528.5023 498.411,-532.2989 494.5012,-528.6011 498.5,-528.7 498.5,-528.7 498.5,-528.7 494.5012,-528.6011 498.589,-525.1011 490.5024,-528.5023 490.5024,-528.5023"/>
<ellipse fill="none" stroke="#000000" cx="487.3034" cy="-528.4232" rx="3.2" ry="3.2"/>
</g>
<!-- securitygroups_records -->
<g id="node11" class="node">
<title>securitygroups_records</title>
<g id="a_node11"><a xlink:href="../../tables/securitygroups_records.html" xlink:title="securitygroups_records" target="_top">
<polygon fill="#ffffff" stroke="transparent" points="495,-70.2 495,-131.2 652,-131.2 652,-70.2 495,-70.2"/>
<polygon fill="#f5f5f5" stroke="transparent" points="495.5,-107.7 495.5,-130.7 652.5,-130.7 652.5,-107.7 495.5,-107.7"/>
<polygon fill="none" stroke="#000000" points="495.5,-107.7 495.5,-130.7 652.5,-130.7 652.5,-107.7 495.5,-107.7"/>
<text text-anchor="start" x="500.3528" y="-116.8" font-family="Helvetica,sans-Serif" font-weight="bold" font-size="11.00" fill="#000000">securitygroups_records</text>
<text text-anchor="start" x="618.0219" y="-115.8" font-family="Helvetica,sans-Serif" font-size="11.00" fill="#000000">[table]</text>
<polygon fill="none" stroke="#000000" points="495.5,-88.7 495.5,-107.7 652.5,-107.7 652.5,-88.7 495.5,-88.7"/>
<text text-anchor="start" x="498.5" y="-94.8" font-family="Helvetica,sans-Serif" font-size="11.00" fill="#000000">...</text>
<polygon fill="#ffffff" stroke="transparent" points="495.5,-69.7 495.5,-88.7 575.5,-88.7 575.5,-69.7 495.5,-69.7"/>
<polygon fill="none" stroke="#000000" points="495.5,-69.7 495.5,-88.7 575.5,-88.7 575.5,-69.7 495.5,-69.7"/>
<text text-anchor="start" x="498.5" y="-75.8" font-family="Helvetica,sans-Serif" font-size="11.00" fill="#000000">&lt; 41</text>
<polygon fill="#ffffff" stroke="transparent" points="575.5,-69.7 575.5,-88.7 613.5,-88.7 613.5,-69.7 575.5,-69.7"/>
<polygon fill="none" stroke="#000000" points="575.5,-69.7 575.5,-88.7 613.5,-88.7 613.5,-69.7 575.5,-69.7"/>
<text text-anchor="start" x="604.3862" y="-75.8" font-family="Helvetica,sans-Serif" font-size="11.00" fill="#000000"> &#160;</text>
<polygon fill="#ffffff" stroke="transparent" points="613.5,-69.7 613.5,-88.7 652.5,-88.7 652.5,-69.7 613.5,-69.7"/>
<polygon fill="none" stroke="#000000" points="613.5,-69.7 613.5,-88.7 652.5,-88.7 652.5,-69.7 613.5,-69.7"/>
<text text-anchor="start" x="643.3862" y="-75.8" font-family="Helvetica,sans-Serif" font-size="11.00" fill="#000000"> &#160;</text>
</a>
</g>
</g>
<!-- securitygroups_records&#45;&gt;aos_invoices -->
<g id="edge16" class="edge">
<title>securitygroups_records:w&#45;&gt;aos_invoices:e</title>
<path fill="none" stroke="#000000" d="M480.9497,-99.2752C440.9137,-109.0058 452.453,-161.9828 426,-206.7 406.9109,-238.9689 422.9924,-280.7 385.5,-280.7"/>
<polygon fill="#000000" stroke="#000000" points="487.5465,-98.5611 495.8875,-101.2791 491.5232,-98.1306 495.5,-97.7 495.5,-97.7 495.5,-97.7 491.5232,-98.1306 495.1125,-94.1209 487.5465,-98.5611 487.5465,-98.5611"/>
<ellipse fill="none" stroke="#000000" cx="484.3651" cy="-98.9055" rx="3.2" ry="3.2"/>
</g>
<!-- securitygroups_records&#45;&gt;accounts -->
<g id="edge15" class="edge">
<title>securitygroups_records:w&#45;&gt;accounts:e</title>
<path fill="none" stroke="#000000" d="M480.882,-97.4035C396.1012,-94.3429 211.694,-69.4628 154,-111.7 104.4498,-147.9752 165.9094,-240.7 104.5,-240.7"/>
<polygon fill="#000000" stroke="#000000" points="487.5016,-97.5377 495.427,-101.2993 491.5008,-97.6189 495.5,-97.7 495.5,-97.7 495.5,-97.7 491.5008,-97.6189 495.573,-94.1007 487.5016,-97.5377 487.5016,-97.5377"/>
<ellipse fill="none" stroke="#000000" cx="484.3023" cy="-97.4728" rx="3.2" ry="3.2"/>
</g>
<!-- securitygroups_records&#45;&gt;contacts -->
<g id="edge18" class="edge">
<title>securitygroups_records:w&#45;&gt;contacts:e</title>
<path fill="none" stroke="#000000" d="M480.7287,-97.4011C446.671,-95.9539 433.3602,-89.6641 393,-87.7 286.9033,-82.5368 248.6259,-39.4392 154,-87.7 119.273,-105.4113 141.4827,-158.7 102.5,-158.7"/>
<polygon fill="#000000" stroke="#000000" points="487.5016,-97.5381 495.4271,-101.2993 491.5008,-97.6191 495.5,-97.7 495.5,-97.7 495.5,-97.7 491.5008,-97.6191 495.5729,-94.1007 487.5016,-97.5381 487.5016,-97.5381"/>
<ellipse fill="none" stroke="#000000" cx="484.3023" cy="-97.4734" rx="3.2" ry="3.2"/>
</g>
<!-- securitygroups_records&#45;&gt;aos_quotes -->
<g id="edge17" class="edge">
<title>securitygroups_records:w&#45;&gt;aos_quotes:e</title>
<path fill="none" stroke="#000000" d="M481.0365,-98.9984C431.3815,-108.7933 444.781,-172.2908 426,-230.7 406.3511,-291.8083 449.6896,-516.7 385.5,-516.7"/>
<polygon fill="#000000" stroke="#000000" points="487.532,-98.4153 495.8219,-101.2856 491.516,-98.0577 495.5,-97.7 495.5,-97.7 495.5,-97.7 491.516,-98.0577 495.1781,-94.1144 487.532,-98.4153 487.532,-98.4153"/>
<ellipse fill="none" stroke="#000000" cx="484.3449" cy="-98.7014" rx="3.2" ry="3.2"/>
</g>
<!-- securitygroups_records&#45;&gt;opportunities -->
<g id="edge19" class="edge">
<title>securitygroups_records:w&#45;&gt;opportunities:e</title>
<path fill="none" stroke="#000000" d="M481.0088,-96.7357C445.1815,-91.6751 435.4899,-68.1342 393,-60.7 288.3672,-42.3932 260.0219,-54.1802 154,-60.7 135.8975,-61.8132 131.6367,-65.7 113.5,-65.7"/>
<polygon fill="#000000" stroke="#000000" points="487.5177,-97.1688 495.261,-101.2921 491.5088,-97.4344 495.5,-97.7 495.5,-97.7 495.5,-97.7 491.5088,-97.4344 495.739,-94.1079 487.5177,-97.1688 487.5177,-97.1688"/>
<ellipse fill="none" stroke="#000000" cx="484.3247" cy="-96.9563" rx="3.2" ry="3.2"/>
</g>
</g>
</svg>
