<?xml version="1.0" encoding="UTF-8" standalone="no"?>
<!DOCTYPE svg PUBLIC "-//W3C//DTD SVG 1.1//EN"
 "http://www.w3.org/Graphics/SVG/1.1/DTD/svg11.dtd">
<!-- Generated by graphviz version 2.40.1 (20161225.0304)
 -->
<!-- Title: oneDegreeRelationshipsDiagram Pages: 1 -->
<svg width="521pt" height="316pt"
 viewBox="0.00 0.00 521.00 316.20" xmlns="http://www.w3.org/2000/svg" xmlns:xlink="http://www.w3.org/1999/xlink">
<g id="graph0" class="graph" transform="scale(1 1) rotate(0) translate(4 312.2)">
<title>oneDegreeRelationshipsDiagram</title>
<polygon fill="#ffffff" stroke="transparent" points="-4,4 -4,-312.2 517,-312.2 517,4 -4,4"/>
<text text-anchor="middle" x="72.4936" y="-7.3" font-family="Helvetica,sans-Serif" font-size="11.00" fill="#000000">Generated by SchemaSpy</text>
<!-- aos_invoices_audit -->
<g id="node1" class="node">
<title>aos_invoices_audit</title>
<g id="a_node1"><a xlink:href="../../tables/aos_invoices_audit.html" xlink:title="aos_invoices_audit" target="_top">
<polygon fill="#ffffff" stroke="transparent" points="280,-38.2 280,-304.2 505,-304.2 505,-38.2 280,-38.2"/>
<polygon fill="#f5f5f5" stroke="transparent" points="282.5,-279.2 282.5,-302.2 503.5,-302.2 503.5,-279.2 282.5,-279.2"/>
<polygon fill="none" stroke="#000000" points="282.5,-279.2 282.5,-302.2 503.5,-302.2 503.5,-279.2 282.5,-279.2"/>
<text text-anchor="start" x="287.5" y="-288.3" font-family="Helvetica,sans-Serif" font-weight="bold" font-size="11.00" fill="#000000">aos_invoices_audit</text>
<text text-anchor="start" x="468.5437" y="-287.3" font-family="Helvetica,sans-Serif" font-size="11.00" fill="#000000">[table]</text>
<polygon fill="none" stroke="#000000" points="282.5,-257.2 282.5,-279.2 436.5,-279.2 436.5,-257.2 282.5,-257.2"/>
<image xlink:href="../../images/primaryKeys.png" width="11px" height="12px" preserveAspectRatio="xMinYMin meet" x="287.5" y="-274.2"/>
<text text-anchor="start" x="302.5" y="-264.3" font-family="Helvetica,sans-Serif" font-size="11.00" fill="#000000">id</text>
<polygon fill="none" stroke="#000000" points="436.5,-257.2 436.5,-279.2 503.5,-279.2 503.5,-257.2 436.5,-257.2"/>
<text text-anchor="start" x="439.5" y="-264.9" font-family="Helvetica,sans-Serif" font-size="11.00" fill="#000000">char[36]</text>
<polygon fill="#ffffff" stroke="transparent" points="282.5,-235.2 282.5,-257.2 436.5,-257.2 436.5,-235.2 282.5,-235.2"/>
<polygon fill="none" stroke="#000000" points="282.5,-235.2 282.5,-257.2 436.5,-257.2 436.5,-235.2 282.5,-235.2"/>
<image xlink:href="../../images/foreignKeys.png" width="11px" height="12px" preserveAspectRatio="xMinYMin meet" x="287.5" y="-252.2"/>
<text text-anchor="start" x="302.5" y="-242.3" font-family="Helvetica,sans-Serif" font-size="11.00" fill="#000000">parent_id</text>
<polygon fill="none" stroke="#000000" points="436.5,-235.2 436.5,-257.2 503.5,-257.2 503.5,-235.2 436.5,-235.2"/>
<text text-anchor="start" x="439.5" y="-242.9" font-family="Helvetica,sans-Serif" font-size="11.00" fill="#000000">char[36]</text>
<polygon fill="none" stroke="#000000" points="282.5,-213.2 282.5,-235.2 436.5,-235.2 436.5,-213.2 282.5,-213.2"/>
<text text-anchor="start" x="302.5" y="-220.3" font-family="Helvetica,sans-Serif" font-size="11.00" fill="#000000">date_created</text>
<polygon fill="none" stroke="#000000" points="436.5,-213.2 436.5,-235.2 503.5,-235.2 503.5,-213.2 436.5,-213.2"/>
<text text-anchor="start" x="439.5" y="-220.9" font-family="Helvetica,sans-Serif" font-size="11.00" fill="#000000">datetime[26]</text>
<polygon fill="none" stroke="#000000" points="282.5,-191.2 282.5,-213.2 436.5,-213.2 436.5,-191.2 282.5,-191.2"/>
<text text-anchor="start" x="302.5" y="-198.3" font-family="Helvetica,sans-Serif" font-size="11.00" fill="#000000">created_by</text>
<polygon fill="none" stroke="#000000" points="436.5,-191.2 436.5,-213.2 503.5,-213.2 503.5,-191.2 436.5,-191.2"/>
<text text-anchor="start" x="439.5" y="-198.9" font-family="Helvetica,sans-Serif" font-size="11.00" fill="#000000">varchar[36]</text>
<polygon fill="none" stroke="#000000" points="282.5,-169.2 282.5,-191.2 436.5,-191.2 436.5,-169.2 282.5,-169.2"/>
<text text-anchor="start" x="302.5" y="-176.3" font-family="Helvetica,sans-Serif" font-size="11.00" fill="#000000">field_name</text>
<polygon fill="none" stroke="#000000" points="436.5,-169.2 436.5,-191.2 503.5,-191.2 503.5,-169.2 436.5,-169.2"/>
<text text-anchor="start" x="439.4365" y="-176.9" font-family="Helvetica,sans-Serif" font-size="11.00" fill="#000000">varchar[100]</text>
<polygon fill="none" stroke="#000000" points="282.5,-147.2 282.5,-169.2 436.5,-169.2 436.5,-147.2 282.5,-147.2"/>
<text text-anchor="start" x="302.5" y="-154.3" font-family="Helvetica,sans-Serif" font-size="11.00" fill="#000000">data_type</text>
<polygon fill="none" stroke="#000000" points="436.5,-147.2 436.5,-169.2 503.5,-169.2 503.5,-147.2 436.5,-147.2"/>
<text text-anchor="start" x="439.4365" y="-154.9" font-family="Helvetica,sans-Serif" font-size="11.00" fill="#000000">varchar[100]</text>
<polygon fill="none" stroke="#000000" points="282.5,-125.2 282.5,-147.2 436.5,-147.2 436.5,-125.2 282.5,-125.2"/>
<text text-anchor="start" x="302.5" y="-132.3" font-family="Helvetica,sans-Serif" font-size="11.00" fill="#000000">before_value_string</text>
<polygon fill="none" stroke="#000000" points="436.5,-125.2 436.5,-147.2 503.5,-147.2 503.5,-125.2 436.5,-125.2"/>
<text text-anchor="start" x="439.4365" y="-132.9" font-family="Helvetica,sans-Serif" font-size="11.00" fill="#000000">varchar[255]</text>
<polygon fill="none" stroke="#000000" points="282.5,-103.2 282.5,-125.2 436.5,-125.2 436.5,-103.2 282.5,-103.2"/>
<text text-anchor="start" x="302.5" y="-110.3" font-family="Helvetica,sans-Serif" font-size="11.00" fill="#000000">after_value_string</text>
<polygon fill="none" stroke="#000000" points="436.5,-103.2 436.5,-125.2 503.5,-125.2 503.5,-103.2 436.5,-103.2"/>
<text text-anchor="start" x="439.4365" y="-110.9" font-family="Helvetica,sans-Serif" font-size="11.00" fill="#000000">varchar[255]</text>
<polygon fill="none" stroke="#000000" points="282.5,-81.2 282.5,-103.2 436.5,-103.2 436.5,-81.2 282.5,-81.2"/>
<text text-anchor="start" x="302.5" y="-88.3" font-family="Helvetica,sans-Serif" font-size="11.00" fill="#000000">before_value_text</text>
<polygon fill="none" stroke="#000000" points="436.5,-81.2 436.5,-103.2 503.5,-103.2 503.5,-81.2 436.5,-81.2"/>
<text text-anchor="start" x="439.5" y="-88.9" font-family="Helvetica,sans-Serif" font-size="11.00" fill="#000000">text[65535]</text>
<polygon fill="none" stroke="#000000" points="282.5,-59.2 282.5,-81.2 436.5,-81.2 436.5,-59.2 282.5,-59.2"/>
<text text-anchor="start" x="302.5" y="-66.3" font-family="Helvetica,sans-Serif" font-size="11.00" fill="#000000">after_value_text</text>
<polygon fill="none" stroke="#000000" points="436.5,-59.2 436.5,-81.2 503.5,-81.2 503.5,-59.2 436.5,-59.2"/>
<text text-anchor="start" x="439.5" y="-66.9" font-family="Helvetica,sans-Serif" font-size="11.00" fill="#000000">text[65535]</text>
<polygon fill="#ffffff" stroke="transparent" points="282.5,-40.2 282.5,-59.2 363.5,-59.2 363.5,-40.2 282.5,-40.2"/>
<polygon fill="none" stroke="#000000" points="282.5,-40.2 282.5,-59.2 363.5,-59.2 363.5,-40.2 282.5,-40.2"/>
<text text-anchor="start" x="285.5" y="-46.3" font-family="Helvetica,sans-Serif" font-size="11.00" fill="#000000">&lt; 1</text>
<polygon fill="#ffffff" stroke="transparent" points="363.5,-40.2 363.5,-59.2 436.5,-59.2 436.5,-40.2 363.5,-40.2"/>
<polygon fill="none" stroke="#000000" points="363.5,-40.2 363.5,-59.2 436.5,-59.2 436.5,-40.2 363.5,-40.2"/>
<text text-anchor="start" x="427.3862" y="-46.3" font-family="Helvetica,sans-Serif" font-size="11.00" fill="#000000"> &#160;</text>
<polygon fill="#ffffff" stroke="transparent" points="436.5,-40.2 436.5,-59.2 503.5,-59.2 503.5,-40.2 436.5,-40.2"/>
<polygon fill="none" stroke="#000000" points="436.5,-40.2 436.5,-59.2 503.5,-59.2 503.5,-40.2 436.5,-40.2"/>
<text text-anchor="start" x="484.9053" y="-46.3" font-family="Helvetica,sans-Serif" font-size="11.00" fill="#000000">0 &gt;</text>
<polygon fill="none" stroke="#000000" stroke-width="2" points="281,-39.2 281,-303.2 504,-303.2 504,-39.2 281,-39.2"/>
</a>
</g>
</g>
<!-- aos_invoices -->
<g id="node2" class="node">
<title>aos_invoices</title>
<g id="a_node2"><a xlink:href="../../tables/aos_invoices.html" xlink:title="aos_invoices" target="_top">
<polygon fill="#ffffff" stroke="transparent" points="8,-87.7 8,-280.7 231,-280.7 231,-87.7 8,-87.7"/>
<polygon fill="#f5f5f5" stroke="transparent" points="8.5,-257.2 8.5,-280.2 231.5,-280.2 231.5,-257.2 8.5,-257.2"/>
<polygon fill="none" stroke="#000000" points="8.5,-257.2 8.5,-280.2 231.5,-280.2 231.5,-257.2 8.5,-257.2"/>
<text text-anchor="start" x="13.5" y="-266.3" font-family="Helvetica,sans-Serif" font-weight="bold" font-size="11.00" fill="#000000">aos_invoices</text>
<text text-anchor="start" x="196.5437" y="-265.3" font-family="Helvetica,sans-Serif" font-size="11.00" fill="#000000">[table]</text>
<polygon fill="none" stroke="#000000" points="8.5,-235.2 8.5,-257.2 231.5,-257.2 231.5,-235.2 8.5,-235.2"/>
<image xlink:href="../../images/primaryKeys.png" width="11px" height="12px" preserveAspectRatio="xMinYMin meet" x="13.5" y="-252.2"/>
<text text-anchor="start" x="28.5" y="-242.3" font-family="Helvetica,sans-Serif" font-size="11.00" fill="#000000">id</text>
<polygon fill="#c0c0c0" stroke="transparent" points="8.5,-213.2 8.5,-235.2 231.5,-235.2 231.5,-213.2 8.5,-213.2"/>
<polygon fill="none" stroke="#000000" points="8.5,-213.2 8.5,-235.2 231.5,-235.2 231.5,-213.2 8.5,-213.2"/>
<image xlink:href="../../images/foreignKeys.png" width="11px" height="12px" preserveAspectRatio="xMinYMin meet" x="13.5" y="-230.2"/>
<text text-anchor="start" x="28.5" y="-220.3" font-family="Helvetica,sans-Serif" font-size="11.00" fill="#000000">modified_user_id</text>
<polygon fill="#c0c0c0" stroke="transparent" points="8.5,-191.2 8.5,-213.2 231.5,-213.2 231.5,-191.2 8.5,-191.2"/>
<polygon fill="none" stroke="#000000" points="8.5,-191.2 8.5,-213.2 231.5,-213.2 231.5,-191.2 8.5,-191.2"/>
<image xlink:href="../../images/foreignKeys.png" width="11px" height="12px" preserveAspectRatio="xMinYMin meet" x="13.5" y="-208.2"/>
<text text-anchor="start" x="28.5" y="-198.3" font-family="Helvetica,sans-Serif" font-size="11.00" fill="#000000">created_by</text>
<polygon fill="#c0c0c0" stroke="transparent" points="8.5,-169.2 8.5,-191.2 231.5,-191.2 231.5,-169.2 8.5,-169.2"/>
<polygon fill="none" stroke="#000000" points="8.5,-169.2 8.5,-191.2 231.5,-191.2 231.5,-169.2 8.5,-169.2"/>
<image xlink:href="../../images/foreignKeys.png" width="11px" height="12px" preserveAspectRatio="xMinYMin meet" x="13.5" y="-186.2"/>
<text text-anchor="start" x="28.5" y="-176.3" font-family="Helvetica,sans-Serif" font-size="11.00" fill="#000000">assigned_user_id</text>
<polygon fill="none" stroke="#000000" points="8.5,-147.2 8.5,-169.2 231.5,-169.2 231.5,-147.2 8.5,-147.2"/>
<image xlink:href="../../images/foreignKeys.png" width="11px" height="12px" preserveAspectRatio="xMinYMin meet" x="13.5" y="-164.2"/>
<text text-anchor="start" x="28.5" y="-154.3" font-family="Helvetica,sans-Serif" font-size="11.00" fill="#000000">billing_account_id</text>
<polygon fill="none" stroke="#000000" points="8.5,-125.2 8.5,-147.2 231.5,-147.2 231.5,-125.2 8.5,-125.2"/>
<image xlink:href="../../images/foreignKeys.png" width="11px" height="12px" preserveAspectRatio="xMinYMin meet" x="13.5" y="-142.2"/>
<text text-anchor="start" x="28.5" y="-132.3" font-family="Helvetica,sans-Serif" font-size="11.00" fill="#000000">billing_contact_id</text>
<polygon fill="none" stroke="#000000" points="8.5,-106.2 8.5,-125.2 231.5,-125.2 231.5,-106.2 8.5,-106.2"/>
<text text-anchor="start" x="11.5" y="-112.3" font-family="Helvetica,sans-Serif" font-size="11.00" fill="#000000">...</text>
<polygon fill="#ffffff" stroke="transparent" points="8.5,-87.2 8.5,-106.2 113.5,-106.2 113.5,-87.2 8.5,-87.2"/>
<polygon fill="none" stroke="#000000" points="8.5,-87.2 8.5,-106.2 113.5,-106.2 113.5,-87.2 8.5,-87.2"/>
<text text-anchor="start" x="11.5" y="-93.3" font-family="Helvetica,sans-Serif" font-size="11.00" fill="#000000">&lt; 5</text>
<polygon fill="#ffffff" stroke="transparent" points="113.5,-87.2 113.5,-106.2 167.5,-106.2 167.5,-87.2 113.5,-87.2"/>
<polygon fill="none" stroke="#000000" points="113.5,-87.2 113.5,-106.2 167.5,-106.2 167.5,-87.2 113.5,-87.2"/>
<text text-anchor="start" x="158.3862" y="-93.3" font-family="Helvetica,sans-Serif" font-size="11.00" fill="#000000"> &#160;</text>
<polygon fill="#ffffff" stroke="transparent" points="167.5,-87.2 167.5,-106.2 231.5,-106.2 231.5,-87.2 167.5,-87.2"/>
<polygon fill="none" stroke="#000000" points="167.5,-87.2 167.5,-106.2 231.5,-106.2 231.5,-87.2 167.5,-87.2"/>
<text text-anchor="start" x="212.9053" y="-93.3" font-family="Helvetica,sans-Serif" font-size="11.00" fill="#000000">5 &gt;</text>
</a>
</g>
</g>
<!-- aos_invoices_audit&#45;&gt;aos_invoices -->
<g id="edge1" class="edge">
<title>aos_invoices_audit:w&#45;&gt;aos_invoices:e</title>
<path fill="none" stroke="#000000" d="M267.776,-246.2C255.7815,-246.2 248.3229,-246.2 231.5,-246.2"/>
<polygon fill="#000000" stroke="#000000" points="274.5,-246.2001 282.5,-249.8 278.5,-246.2 282.5,-246.2 282.5,-246.2 282.5,-246.2 278.5,-246.2 282.5,-242.6 274.5,-246.2001 274.5,-246.2001"/>
<ellipse fill="none" stroke="#000000" cx="271.3" cy="-246.2001" rx="3.2" ry="3.2"/>
</g>
</g>
</svg>
