<?xml version="1.0" encoding="UTF-8" standalone="no"?>
<!DOCTYPE svg PUBLIC "-//W3C//DTD SVG 1.1//EN"
 "http://www.w3.org/Graphics/SVG/1.1/DTD/svg11.dtd">
<!-- Generated by graphviz version 2.40.1 (20161225.0304)
 -->
<!-- Title: twoDegreesRelationshipsDiagram Pages: 1 -->
<svg width="1132pt" height="1262pt"
 viewBox="0.00 0.00 1132.00 1262.20" xmlns="http://www.w3.org/2000/svg" xmlns:xlink="http://www.w3.org/1999/xlink">
<g id="graph0" class="graph" transform="scale(1 1) rotate(0) translate(4 1258.2037)">
<title>twoDegreesRelationshipsDiagram</title>
<polygon fill="#ffffff" stroke="transparent" points="-4,4 -4,-1258.2037 1128,-1258.2037 1128,4 -4,4"/>
<text text-anchor="middle" x="72.4936" y="-7.3" font-family="Helvetica,sans-Serif" font-size="11.00" fill="#000000">Generated by SchemaSpy</text>
<!-- aos_contracts -->
<g id="node1" class="node">
<title>aos_contracts</title>
<g id="a_node1"><a xlink:href="../../tables/aos_contracts.html" xlink:title="aos_contracts" target="_top">
<polygon fill="#ffffff" stroke="transparent" points="164.5,-426.4913 164.5,-641.4913 382.5,-641.4913 382.5,-426.4913 164.5,-426.4913"/>
<polygon fill="#f5f5f5" stroke="transparent" points="164.5,-617.9913 164.5,-640.9913 382.5,-640.9913 382.5,-617.9913 164.5,-617.9913"/>
<polygon fill="none" stroke="#000000" points="164.5,-617.9913 164.5,-640.9913 382.5,-640.9913 382.5,-617.9913 164.5,-617.9913"/>
<text text-anchor="start" x="169.5" y="-627.0913" font-family="Helvetica,sans-Serif" font-weight="bold" font-size="11.00" fill="#000000">aos_contracts</text>
<text text-anchor="start" x="347.5437" y="-626.0913" font-family="Helvetica,sans-Serif" font-size="11.00" fill="#000000">[table]</text>
<polygon fill="none" stroke="#000000" points="164.5,-595.9913 164.5,-617.9913 382.5,-617.9913 382.5,-595.9913 164.5,-595.9913"/>
<image xlink:href="../../images/primaryKeys.png" width="11px" height="12px" preserveAspectRatio="xMinYMin meet" x="169.5" y="-612.991"/>
<text text-anchor="start" x="184.5" y="-603.0913" font-family="Helvetica,sans-Serif" font-size="11.00" fill="#000000">id</text>
<polygon fill="#c0c0c0" stroke="transparent" points="164.5,-573.9913 164.5,-595.9913 382.5,-595.9913 382.5,-573.9913 164.5,-573.9913"/>
<polygon fill="none" stroke="#000000" points="164.5,-573.9913 164.5,-595.9913 382.5,-595.9913 382.5,-573.9913 164.5,-573.9913"/>
<image xlink:href="../../images/foreignKeys.png" width="11px" height="12px" preserveAspectRatio="xMinYMin meet" x="169.5" y="-590.991"/>
<text text-anchor="start" x="184.5" y="-581.0913" font-family="Helvetica,sans-Serif" font-size="11.00" fill="#000000">modified_user_id</text>
<polygon fill="#c0c0c0" stroke="transparent" points="164.5,-551.9913 164.5,-573.9913 382.5,-573.9913 382.5,-551.9913 164.5,-551.9913"/>
<polygon fill="none" stroke="#000000" points="164.5,-551.9913 164.5,-573.9913 382.5,-573.9913 382.5,-551.9913 164.5,-551.9913"/>
<image xlink:href="../../images/foreignKeys.png" width="11px" height="12px" preserveAspectRatio="xMinYMin meet" x="169.5" y="-568.991"/>
<text text-anchor="start" x="184.5" y="-559.0913" font-family="Helvetica,sans-Serif" font-size="11.00" fill="#000000">created_by</text>
<polygon fill="#c0c0c0" stroke="transparent" points="164.5,-529.9913 164.5,-551.9913 382.5,-551.9913 382.5,-529.9913 164.5,-529.9913"/>
<polygon fill="none" stroke="#000000" points="164.5,-529.9913 164.5,-551.9913 382.5,-551.9913 382.5,-529.9913 164.5,-529.9913"/>
<image xlink:href="../../images/foreignKeys.png" width="11px" height="12px" preserveAspectRatio="xMinYMin meet" x="169.5" y="-546.991"/>
<text text-anchor="start" x="184.5" y="-537.0913" font-family="Helvetica,sans-Serif" font-size="11.00" fill="#000000">assigned_user_id</text>
<polygon fill="none" stroke="#000000" points="164.5,-507.9913 164.5,-529.9913 382.5,-529.9913 382.5,-507.9913 164.5,-507.9913"/>
<image xlink:href="../../images/foreignKeys.png" width="11px" height="12px" preserveAspectRatio="xMinYMin meet" x="169.5" y="-524.991"/>
<text text-anchor="start" x="184.5" y="-515.0913" font-family="Helvetica,sans-Serif" font-size="11.00" fill="#000000">contract_account_id</text>
<polygon fill="none" stroke="#000000" points="164.5,-485.9913 164.5,-507.9913 382.5,-507.9913 382.5,-485.9913 164.5,-485.9913"/>
<image xlink:href="../../images/foreignKeys.png" width="11px" height="12px" preserveAspectRatio="xMinYMin meet" x="169.5" y="-502.991"/>
<text text-anchor="start" x="184.5" y="-493.0913" font-family="Helvetica,sans-Serif" font-size="11.00" fill="#000000">opportunity_id</text>
<polygon fill="none" stroke="#000000" points="164.5,-463.9913 164.5,-485.9913 382.5,-485.9913 382.5,-463.9913 164.5,-463.9913"/>
<image xlink:href="../../images/foreignKeys.png" width="11px" height="12px" preserveAspectRatio="xMinYMin meet" x="169.5" y="-480.991"/>
<text text-anchor="start" x="184.5" y="-471.0913" font-family="Helvetica,sans-Serif" font-size="11.00" fill="#000000">contact_id</text>
<polygon fill="none" stroke="#000000" points="164.5,-444.9913 164.5,-463.9913 382.5,-463.9913 382.5,-444.9913 164.5,-444.9913"/>
<text text-anchor="start" x="167.5" y="-451.0913" font-family="Helvetica,sans-Serif" font-size="11.00" fill="#000000">...</text>
<polygon fill="#ffffff" stroke="transparent" points="164.5,-425.9913 164.5,-444.9913 264.5,-444.9913 264.5,-425.9913 164.5,-425.9913"/>
<polygon fill="none" stroke="#000000" points="164.5,-425.9913 164.5,-444.9913 264.5,-444.9913 264.5,-425.9913 164.5,-425.9913"/>
<text text-anchor="start" x="167.5" y="-432.0913" font-family="Helvetica,sans-Serif" font-size="11.00" fill="#000000">&lt; 6</text>
<polygon fill="#ffffff" stroke="transparent" points="264.5,-425.9913 264.5,-444.9913 315.5,-444.9913 315.5,-425.9913 264.5,-425.9913"/>
<polygon fill="none" stroke="#000000" points="264.5,-425.9913 264.5,-444.9913 315.5,-444.9913 315.5,-425.9913 264.5,-425.9913"/>
<text text-anchor="start" x="306.3862" y="-432.0913" font-family="Helvetica,sans-Serif" font-size="11.00" fill="#000000"> &#160;</text>
<polygon fill="#ffffff" stroke="transparent" points="315.5,-425.9913 315.5,-444.9913 382.5,-444.9913 382.5,-425.9913 315.5,-425.9913"/>
<polygon fill="none" stroke="#000000" points="315.5,-425.9913 315.5,-444.9913 382.5,-444.9913 382.5,-425.9913 315.5,-425.9913"/>
<text text-anchor="start" x="357.7904" y="-432.0913" font-family="Helvetica,sans-Serif" font-size="11.00" fill="#000000">11 &gt;</text>
</a>
</g>
</g>
<!-- contacts -->
<g id="node2" class="node">
<title>contacts</title>
<g id="a_node2"><a xlink:href="../../tables/contacts.html" xlink:title="contacts" target="_top">
<polygon fill="#ffffff" stroke="transparent" points="19,-202.4913 19,-263.4913 102,-263.4913 102,-202.4913 19,-202.4913"/>
<polygon fill="#f5f5f5" stroke="transparent" points="19.5,-239.9913 19.5,-262.9913 102.5,-262.9913 102.5,-239.9913 19.5,-239.9913"/>
<polygon fill="none" stroke="#000000" points="19.5,-239.9913 19.5,-262.9913 102.5,-262.9913 102.5,-239.9913 19.5,-239.9913"/>
<text text-anchor="start" x="24.0208" y="-249.0913" font-family="Helvetica,sans-Serif" font-weight="bold" font-size="11.00" fill="#000000">contacts</text>
<text text-anchor="start" x="68.0219" y="-248.0913" font-family="Helvetica,sans-Serif" font-size="11.00" fill="#000000">[table]</text>
<polygon fill="none" stroke="#000000" points="19.5,-220.9913 19.5,-239.9913 102.5,-239.9913 102.5,-220.9913 19.5,-220.9913"/>
<text text-anchor="start" x="22.5" y="-227.0913" font-family="Helvetica,sans-Serif" font-size="11.00" fill="#000000">...</text>
<polygon fill="#ffffff" stroke="transparent" points="19.5,-201.9913 19.5,-220.9913 51.5,-220.9913 51.5,-201.9913 19.5,-201.9913"/>
<polygon fill="none" stroke="#000000" points="19.5,-201.9913 19.5,-220.9913 51.5,-220.9913 51.5,-201.9913 19.5,-201.9913"/>
<text text-anchor="start" x="22.5" y="-208.0913" font-family="Helvetica,sans-Serif" font-size="11.00" fill="#000000">&lt; 7</text>
<polygon fill="#ffffff" stroke="transparent" points="51.5,-201.9913 51.5,-220.9913 69.5,-220.9913 69.5,-201.9913 51.5,-201.9913"/>
<polygon fill="none" stroke="#000000" points="51.5,-201.9913 51.5,-220.9913 69.5,-220.9913 69.5,-201.9913 51.5,-201.9913"/>
<text text-anchor="start" x="60.3862" y="-208.0913" font-family="Helvetica,sans-Serif" font-size="11.00" fill="#000000"> &#160;</text>
<polygon fill="#ffffff" stroke="transparent" points="69.5,-201.9913 69.5,-220.9913 102.5,-220.9913 102.5,-201.9913 69.5,-201.9913"/>
<polygon fill="none" stroke="#000000" points="69.5,-201.9913 69.5,-220.9913 102.5,-220.9913 102.5,-201.9913 69.5,-201.9913"/>
<text text-anchor="start" x="77.7904" y="-208.0913" font-family="Helvetica,sans-Serif" font-size="11.00" fill="#000000">30 &gt;</text>
</a>
</g>
</g>
<!-- aos_contracts&#45;&gt;contacts -->
<g id="edge1" class="edge">
<title>aos_contracts:w&#45;&gt;contacts:e</title>
<path fill="none" stroke="#000000" d="M149.9493,-473.296C67.4061,-451.6497 209.337,-229.9913 102.5,-229.9913"/>
<polygon fill="#000000" stroke="#000000" points="156.5538,-474.0654 164.0834,-478.5671 160.5269,-474.5284 164.5,-474.9913 164.5,-474.9913 164.5,-474.9913 160.5269,-474.5284 164.9166,-471.4155 156.5538,-474.0654 156.5538,-474.0654"/>
<ellipse fill="none" stroke="#000000" cx="153.3753" cy="-473.6951" rx="3.2" ry="3.2"/>
</g>
<!-- accounts -->
<g id="node3" class="node">
<title>accounts</title>
<g id="a_node3"><a xlink:href="../../tables/accounts.html" xlink:title="accounts" target="_top">
<polygon fill="#ffffff" stroke="transparent" points="17,-333.4913 17,-394.4913 104,-394.4913 104,-333.4913 17,-333.4913"/>
<polygon fill="#f5f5f5" stroke="transparent" points="17.5,-370.9913 17.5,-393.9913 104.5,-393.9913 104.5,-370.9913 17.5,-370.9913"/>
<polygon fill="none" stroke="#000000" points="17.5,-370.9913 17.5,-393.9913 104.5,-393.9913 104.5,-370.9913 17.5,-370.9913"/>
<text text-anchor="start" x="22.4918" y="-380.0913" font-family="Helvetica,sans-Serif" font-weight="bold" font-size="11.00" fill="#000000">accounts</text>
<text text-anchor="start" x="70.0219" y="-379.0913" font-family="Helvetica,sans-Serif" font-size="11.00" fill="#000000">[table]</text>
<polygon fill="none" stroke="#000000" points="17.5,-351.9913 17.5,-370.9913 104.5,-370.9913 104.5,-351.9913 17.5,-351.9913"/>
<text text-anchor="start" x="20.5" y="-358.0913" font-family="Helvetica,sans-Serif" font-size="11.00" fill="#000000">...</text>
<polygon fill="#ffffff" stroke="transparent" points="17.5,-332.9913 17.5,-351.9913 51.5,-351.9913 51.5,-332.9913 17.5,-332.9913"/>
<polygon fill="none" stroke="#000000" points="17.5,-332.9913 17.5,-351.9913 51.5,-351.9913 51.5,-332.9913 17.5,-332.9913"/>
<text text-anchor="start" x="20.5" y="-339.0913" font-family="Helvetica,sans-Serif" font-size="11.00" fill="#000000">&lt; 6</text>
<polygon fill="#ffffff" stroke="transparent" points="51.5,-332.9913 51.5,-351.9913 70.5,-351.9913 70.5,-332.9913 51.5,-332.9913"/>
<polygon fill="none" stroke="#000000" points="51.5,-332.9913 51.5,-351.9913 70.5,-351.9913 70.5,-332.9913 51.5,-332.9913"/>
<text text-anchor="start" x="61.3862" y="-339.0913" font-family="Helvetica,sans-Serif" font-size="11.00" fill="#000000"> &#160;</text>
<polygon fill="#ffffff" stroke="transparent" points="70.5,-332.9913 70.5,-351.9913 104.5,-351.9913 104.5,-332.9913 70.5,-332.9913"/>
<polygon fill="none" stroke="#000000" points="70.5,-332.9913 70.5,-351.9913 104.5,-351.9913 104.5,-332.9913 70.5,-332.9913"/>
<text text-anchor="start" x="79.7904" y="-339.0913" font-family="Helvetica,sans-Serif" font-size="11.00" fill="#000000">23 &gt;</text>
</a>
</g>
</g>
<!-- aos_contracts&#45;&gt;accounts -->
<g id="edge2" class="edge">
<title>aos_contracts:w&#45;&gt;accounts:e</title>
<path fill="none" stroke="#000000" d="M150.067,-516.3808C102.1716,-495.8378 173.8934,-360.9913 104.5,-360.9913"/>
<polygon fill="#000000" stroke="#000000" points="156.6277,-517.5674 163.8592,-522.5338 160.5639,-518.2794 164.5,-518.9913 164.5,-518.9913 164.5,-518.9913 160.5639,-518.2794 165.1408,-515.4488 156.6277,-517.5674 156.6277,-517.5674"/>
<ellipse fill="none" stroke="#000000" cx="153.4788" cy="-516.9978" rx="3.2" ry="3.2"/>
</g>
<!-- opportunities -->
<g id="node4" class="node">
<title>opportunities</title>
<g id="a_node4"><a xlink:href="../../tables/opportunities.html" xlink:title="opportunities" target="_top">
<polygon fill="#ffffff" stroke="transparent" points="8,-567.4913 8,-628.4913 113,-628.4913 113,-567.4913 8,-567.4913"/>
<polygon fill="#f5f5f5" stroke="transparent" points="8.5,-604.9913 8.5,-627.9913 113.5,-627.9913 113.5,-604.9913 8.5,-604.9913"/>
<polygon fill="none" stroke="#000000" points="8.5,-604.9913 8.5,-627.9913 113.5,-627.9913 113.5,-604.9913 8.5,-604.9913"/>
<text text-anchor="start" x="13.0191" y="-614.0913" font-family="Helvetica,sans-Serif" font-weight="bold" font-size="11.00" fill="#000000">opportunities</text>
<text text-anchor="start" x="79.0219" y="-613.0913" font-family="Helvetica,sans-Serif" font-size="11.00" fill="#000000">[table]</text>
<polygon fill="none" stroke="#000000" points="8.5,-585.9913 8.5,-604.9913 113.5,-604.9913 113.5,-585.9913 8.5,-585.9913"/>
<text text-anchor="start" x="11.5" y="-592.0913" font-family="Helvetica,sans-Serif" font-size="11.00" fill="#000000">...</text>
<polygon fill="#ffffff" stroke="transparent" points="8.5,-566.9913 8.5,-585.9913 51.5,-585.9913 51.5,-566.9913 8.5,-566.9913"/>
<polygon fill="none" stroke="#000000" points="8.5,-566.9913 8.5,-585.9913 51.5,-585.9913 51.5,-566.9913 8.5,-566.9913"/>
<text text-anchor="start" x="11.5" y="-573.0913" font-family="Helvetica,sans-Serif" font-size="11.00" fill="#000000">&lt; 6</text>
<polygon fill="#ffffff" stroke="transparent" points="51.5,-566.9913 51.5,-585.9913 74.5,-585.9913 74.5,-566.9913 51.5,-566.9913"/>
<polygon fill="none" stroke="#000000" points="51.5,-566.9913 51.5,-585.9913 74.5,-585.9913 74.5,-566.9913 51.5,-566.9913"/>
<text text-anchor="start" x="65.3862" y="-573.0913" font-family="Helvetica,sans-Serif" font-size="11.00" fill="#000000"> &#160;</text>
<polygon fill="#ffffff" stroke="transparent" points="74.5,-566.9913 74.5,-585.9913 113.5,-585.9913 113.5,-566.9913 74.5,-566.9913"/>
<polygon fill="none" stroke="#000000" points="74.5,-566.9913 74.5,-585.9913 113.5,-585.9913 113.5,-566.9913 74.5,-566.9913"/>
<text text-anchor="start" x="88.7904" y="-573.0913" font-family="Helvetica,sans-Serif" font-size="11.00" fill="#000000">17 &gt;</text>
</a>
</g>
</g>
<!-- aos_contracts&#45;&gt;opportunities -->
<g id="edge3" class="edge">
<title>aos_contracts:w&#45;&gt;opportunities:e</title>
<path fill="none" stroke="#000000" d="M150.5571,-500.9544C125.4188,-519.2887 156.6548,-594.9913 113.5,-594.9913"/>
<polygon fill="#000000" stroke="#000000" points="156.8048,-499.1786 165.4843,-500.4542 160.6524,-498.085 164.5,-496.9913 164.5,-496.9913 164.5,-496.9913 160.6524,-498.085 163.5157,-493.5285 156.8048,-499.1786 156.8048,-499.1786"/>
<ellipse fill="none" stroke="#000000" cx="153.7267" cy="-500.0535" rx="3.2" ry="3.2"/>
</g>
<!-- aos_contracts_documents -->
<g id="node5" class="node">
<title>aos_contracts_documents</title>
<g id="a_node5"><a xlink:href="../../tables/aos_contracts_documents.html" xlink:title="aos_contracts_documents" target="_top">
<polygon fill="#ffffff" stroke="transparent" points="488,-509.4913 488,-570.4913 659,-570.4913 659,-509.4913 488,-509.4913"/>
<polygon fill="#f5f5f5" stroke="transparent" points="488.5,-546.9913 488.5,-569.9913 659.5,-569.9913 659.5,-546.9913 488.5,-546.9913"/>
<polygon fill="none" stroke="#000000" points="488.5,-546.9913 488.5,-569.9913 659.5,-569.9913 659.5,-546.9913 488.5,-546.9913"/>
<text text-anchor="start" x="493.3134" y="-556.0913" font-family="Helvetica,sans-Serif" font-weight="bold" font-size="11.00" fill="#000000">aos_contracts_documents</text>
<text text-anchor="start" x="625.0219" y="-555.0913" font-family="Helvetica,sans-Serif" font-size="11.00" fill="#000000">[table]</text>
<polygon fill="none" stroke="#000000" points="488.5,-527.9913 488.5,-546.9913 659.5,-546.9913 659.5,-527.9913 488.5,-527.9913"/>
<text text-anchor="start" x="491.5" y="-534.0913" font-family="Helvetica,sans-Serif" font-size="11.00" fill="#000000">...</text>
<polygon fill="#ffffff" stroke="transparent" points="488.5,-508.9913 488.5,-527.9913 572.5,-527.9913 572.5,-508.9913 488.5,-508.9913"/>
<polygon fill="none" stroke="#000000" points="488.5,-508.9913 488.5,-527.9913 572.5,-527.9913 572.5,-508.9913 488.5,-508.9913"/>
<text text-anchor="start" x="491.5" y="-515.0913" font-family="Helvetica,sans-Serif" font-size="11.00" fill="#000000">&lt; 2</text>
<polygon fill="#ffffff" stroke="transparent" points="572.5,-508.9913 572.5,-527.9913 615.5,-527.9913 615.5,-508.9913 572.5,-508.9913"/>
<polygon fill="none" stroke="#000000" points="572.5,-508.9913 572.5,-527.9913 615.5,-527.9913 615.5,-508.9913 572.5,-508.9913"/>
<text text-anchor="start" x="606.3862" y="-515.0913" font-family="Helvetica,sans-Serif" font-size="11.00" fill="#000000"> &#160;</text>
<polygon fill="#ffffff" stroke="transparent" points="615.5,-508.9913 615.5,-527.9913 659.5,-527.9913 659.5,-508.9913 615.5,-508.9913"/>
<polygon fill="none" stroke="#000000" points="615.5,-508.9913 615.5,-527.9913 659.5,-527.9913 659.5,-508.9913 615.5,-508.9913"/>
<text text-anchor="start" x="650.3862" y="-515.0913" font-family="Helvetica,sans-Serif" font-size="11.00" fill="#000000"> &#160;</text>
</a>
</g>
</g>
<!-- aos_contracts_documents&#45;&gt;aos_contracts -->
<g id="edge4" class="edge">
<title>aos_contracts_documents:w&#45;&gt;aos_contracts:e</title>
<path fill="none" stroke="#000000" d="M474.188,-538.7217C432.7826,-549.5011 433.6639,-606.9913 382.5,-606.9913"/>
<polygon fill="#000000" stroke="#000000" points="480.5578,-537.9516 488.9321,-540.5653 484.5289,-537.4715 488.5,-536.9913 488.5,-536.9913 488.5,-536.9913 484.5289,-537.4715 488.0679,-533.4174 480.5578,-537.9516 480.5578,-537.9516"/>
<ellipse fill="none" stroke="#000000" cx="477.381" cy="-538.3357" rx="3.2" ry="3.2"/>
</g>
<!-- aos_line_item_groups -->
<g id="node6" class="node">
<title>aos_line_item_groups</title>
<g id="a_node6"><a xlink:href="../../tables/aos_line_item_groups.html" xlink:title="aos_line_item_groups" target="_top">
<polygon fill="#ffffff" stroke="transparent" points="498.5,-756.4913 498.5,-817.4913 648.5,-817.4913 648.5,-756.4913 498.5,-756.4913"/>
<polygon fill="#f5f5f5" stroke="transparent" points="498.5,-793.9913 498.5,-816.9913 648.5,-816.9913 648.5,-793.9913 498.5,-793.9913"/>
<polygon fill="none" stroke="#000000" points="498.5,-793.9913 498.5,-816.9913 648.5,-816.9913 648.5,-793.9913 498.5,-793.9913"/>
<text text-anchor="start" x="503.2089" y="-803.0913" font-family="Helvetica,sans-Serif" font-weight="bold" font-size="11.00" fill="#000000">aos_line_item_groups</text>
<text text-anchor="start" x="614.0219" y="-802.0913" font-family="Helvetica,sans-Serif" font-size="11.00" fill="#000000">[table]</text>
<polygon fill="none" stroke="#000000" points="498.5,-774.9913 498.5,-793.9913 648.5,-793.9913 648.5,-774.9913 498.5,-774.9913"/>
<text text-anchor="start" x="501.5" y="-781.0913" font-family="Helvetica,sans-Serif" font-size="11.00" fill="#000000">...</text>
<polygon fill="#ffffff" stroke="transparent" points="498.5,-755.9913 498.5,-774.9913 567.5,-774.9913 567.5,-755.9913 498.5,-755.9913"/>
<polygon fill="none" stroke="#000000" points="498.5,-755.9913 498.5,-774.9913 567.5,-774.9913 567.5,-755.9913 498.5,-755.9913"/>
<text text-anchor="start" x="501.5" y="-762.0913" font-family="Helvetica,sans-Serif" font-size="11.00" fill="#000000">&lt; 6</text>
<polygon fill="#ffffff" stroke="transparent" points="567.5,-755.9913 567.5,-774.9913 603.5,-774.9913 603.5,-755.9913 567.5,-755.9913"/>
<polygon fill="none" stroke="#000000" points="567.5,-755.9913 567.5,-774.9913 603.5,-774.9913 603.5,-755.9913 567.5,-755.9913"/>
<text text-anchor="start" x="594.3862" y="-762.0913" font-family="Helvetica,sans-Serif" font-size="11.00" fill="#000000"> &#160;</text>
<polygon fill="#ffffff" stroke="transparent" points="603.5,-755.9913 603.5,-774.9913 648.5,-774.9913 648.5,-755.9913 603.5,-755.9913"/>
<polygon fill="none" stroke="#000000" points="603.5,-755.9913 603.5,-774.9913 648.5,-774.9913 648.5,-755.9913 603.5,-755.9913"/>
<text text-anchor="start" x="629.9053" y="-762.0913" font-family="Helvetica,sans-Serif" font-size="11.00" fill="#000000">2 &gt;</text>
</a>
</g>
</g>
<!-- aos_line_item_groups&#45;&gt;aos_contracts -->
<g id="edge5" class="edge">
<title>aos_line_item_groups:w&#45;&gt;aos_contracts:e</title>
<path fill="none" stroke="#000000" d="M483.8313,-783.1668C457.5863,-779.8957 445.9995,-766.7876 426,-741.9913 386.4248,-692.9242 445.5379,-606.9913 382.5,-606.9913"/>
<polygon fill="#000000" stroke="#000000" points="490.5126,-783.5423 498.2979,-787.5857 494.5063,-783.7668 498.5,-783.9913 498.5,-783.9913 498.5,-783.9913 494.5063,-783.7668 498.7021,-780.397 490.5126,-783.5423 490.5126,-783.5423"/>
<ellipse fill="none" stroke="#000000" cx="487.3177" cy="-783.3627" rx="3.2" ry="3.2"/>
</g>
<!-- aos_quotes -->
<g id="node7" class="node">
<title>aos_quotes</title>
<g id="a_node7"><a xlink:href="../../tables/aos_quotes.html" xlink:title="aos_quotes" target="_top">
<polygon fill="#ffffff" stroke="transparent" points="162,-744.4913 162,-959.4913 385,-959.4913 385,-744.4913 162,-744.4913"/>
<polygon fill="#f5f5f5" stroke="transparent" points="162.5,-935.9913 162.5,-958.9913 385.5,-958.9913 385.5,-935.9913 162.5,-935.9913"/>
<polygon fill="none" stroke="#000000" points="162.5,-935.9913 162.5,-958.9913 385.5,-958.9913 385.5,-935.9913 162.5,-935.9913"/>
<text text-anchor="start" x="167.5" y="-945.0913" font-family="Helvetica,sans-Serif" font-weight="bold" font-size="11.00" fill="#000000">aos_quotes</text>
<text text-anchor="start" x="350.5437" y="-944.0913" font-family="Helvetica,sans-Serif" font-size="11.00" fill="#000000">[table]</text>
<polygon fill="none" stroke="#000000" points="162.5,-913.9913 162.5,-935.9913 385.5,-935.9913 385.5,-913.9913 162.5,-913.9913"/>
<image xlink:href="../../images/primaryKeys.png" width="11px" height="12px" preserveAspectRatio="xMinYMin meet" x="167.5" y="-930.991"/>
<text text-anchor="start" x="182.5" y="-921.0913" font-family="Helvetica,sans-Serif" font-size="11.00" fill="#000000">id</text>
<polygon fill="#c0c0c0" stroke="transparent" points="162.5,-891.9913 162.5,-913.9913 385.5,-913.9913 385.5,-891.9913 162.5,-891.9913"/>
<polygon fill="none" stroke="#000000" points="162.5,-891.9913 162.5,-913.9913 385.5,-913.9913 385.5,-891.9913 162.5,-891.9913"/>
<image xlink:href="../../images/foreignKeys.png" width="11px" height="12px" preserveAspectRatio="xMinYMin meet" x="167.5" y="-908.991"/>
<text text-anchor="start" x="182.5" y="-899.0913" font-family="Helvetica,sans-Serif" font-size="11.00" fill="#000000">modified_user_id</text>
<polygon fill="#c0c0c0" stroke="transparent" points="162.5,-869.9913 162.5,-891.9913 385.5,-891.9913 385.5,-869.9913 162.5,-869.9913"/>
<polygon fill="none" stroke="#000000" points="162.5,-869.9913 162.5,-891.9913 385.5,-891.9913 385.5,-869.9913 162.5,-869.9913"/>
<image xlink:href="../../images/foreignKeys.png" width="11px" height="12px" preserveAspectRatio="xMinYMin meet" x="167.5" y="-886.991"/>
<text text-anchor="start" x="182.5" y="-877.0913" font-family="Helvetica,sans-Serif" font-size="11.00" fill="#000000">created_by</text>
<polygon fill="#c0c0c0" stroke="transparent" points="162.5,-847.9913 162.5,-869.9913 385.5,-869.9913 385.5,-847.9913 162.5,-847.9913"/>
<polygon fill="none" stroke="#000000" points="162.5,-847.9913 162.5,-869.9913 385.5,-869.9913 385.5,-847.9913 162.5,-847.9913"/>
<image xlink:href="../../images/foreignKeys.png" width="11px" height="12px" preserveAspectRatio="xMinYMin meet" x="167.5" y="-864.991"/>
<text text-anchor="start" x="182.5" y="-855.0913" font-family="Helvetica,sans-Serif" font-size="11.00" fill="#000000">assigned_user_id</text>
<polygon fill="none" stroke="#000000" points="162.5,-825.9913 162.5,-847.9913 385.5,-847.9913 385.5,-825.9913 162.5,-825.9913"/>
<image xlink:href="../../images/foreignKeys.png" width="11px" height="12px" preserveAspectRatio="xMinYMin meet" x="167.5" y="-842.991"/>
<text text-anchor="start" x="182.5" y="-833.0913" font-family="Helvetica,sans-Serif" font-size="11.00" fill="#000000">billing_account_id</text>
<polygon fill="none" stroke="#000000" points="162.5,-803.9913 162.5,-825.9913 385.5,-825.9913 385.5,-803.9913 162.5,-803.9913"/>
<image xlink:href="../../images/foreignKeys.png" width="11px" height="12px" preserveAspectRatio="xMinYMin meet" x="167.5" y="-820.991"/>
<text text-anchor="start" x="182.5" y="-811.0913" font-family="Helvetica,sans-Serif" font-size="11.00" fill="#000000">billing_contact_id</text>
<polygon fill="none" stroke="#000000" points="162.5,-781.9913 162.5,-803.9913 385.5,-803.9913 385.5,-781.9913 162.5,-781.9913"/>
<image xlink:href="../../images/foreignKeys.png" width="11px" height="12px" preserveAspectRatio="xMinYMin meet" x="167.5" y="-798.991"/>
<text text-anchor="start" x="182.5" y="-789.0913" font-family="Helvetica,sans-Serif" font-size="11.00" fill="#000000">opportunity_id</text>
<polygon fill="none" stroke="#000000" points="162.5,-762.9913 162.5,-781.9913 385.5,-781.9913 385.5,-762.9913 162.5,-762.9913"/>
<text text-anchor="start" x="165.5" y="-769.0913" font-family="Helvetica,sans-Serif" font-size="11.00" fill="#000000">...</text>
<polygon fill="#ffffff" stroke="transparent" points="162.5,-743.9913 162.5,-762.9913 267.5,-762.9913 267.5,-743.9913 162.5,-743.9913"/>
<polygon fill="none" stroke="#000000" points="162.5,-743.9913 162.5,-762.9913 267.5,-762.9913 267.5,-743.9913 162.5,-743.9913"/>
<text text-anchor="start" x="165.5" y="-750.0913" font-family="Helvetica,sans-Serif" font-size="11.00" fill="#000000">&lt; 6</text>
<polygon fill="#ffffff" stroke="transparent" points="267.5,-743.9913 267.5,-762.9913 321.5,-762.9913 321.5,-743.9913 267.5,-743.9913"/>
<polygon fill="none" stroke="#000000" points="267.5,-743.9913 267.5,-762.9913 321.5,-762.9913 321.5,-743.9913 267.5,-743.9913"/>
<text text-anchor="start" x="312.3862" y="-750.0913" font-family="Helvetica,sans-Serif" font-size="11.00" fill="#000000"> &#160;</text>
<polygon fill="#ffffff" stroke="transparent" points="321.5,-743.9913 321.5,-762.9913 385.5,-762.9913 385.5,-743.9913 321.5,-743.9913"/>
<polygon fill="none" stroke="#000000" points="321.5,-743.9913 321.5,-762.9913 385.5,-762.9913 385.5,-743.9913 321.5,-743.9913"/>
<text text-anchor="start" x="366.9053" y="-750.0913" font-family="Helvetica,sans-Serif" font-size="11.00" fill="#000000">7 &gt;</text>
</a>
</g>
</g>
<!-- aos_line_item_groups&#45;&gt;aos_quotes -->
<g id="edge6" class="edge">
<title>aos_line_item_groups:w&#45;&gt;aos_quotes:e</title>
<path fill="none" stroke="#000000" d="M484.1118,-784.9002C457.6478,-788.5899 447.1243,-803.4357 426,-827.9913 395.5327,-863.4076 432.218,-924.9913 385.5,-924.9913"/>
<polygon fill="#000000" stroke="#000000" points="490.5159,-784.4957 498.727,-787.5842 494.508,-784.2435 498.5,-783.9913 498.5,-783.9913 498.5,-783.9913 494.508,-784.2435 498.273,-780.3985 490.5159,-784.4957 490.5159,-784.4957"/>
<ellipse fill="none" stroke="#000000" cx="487.3223" cy="-784.6974" rx="3.2" ry="3.2"/>
</g>
<!-- aos_quotes&#45;&gt;contacts -->
<g id="edge11" class="edge">
<title>aos_quotes:w&#45;&gt;contacts:e</title>
<path fill="none" stroke="#000000" d="M150.64,-806.7216C106.4262,-735.6179 163.2467,-229.9913 102.5,-229.9913"/>
<polygon fill="#000000" stroke="#000000" points="155.9378,-810.4156 160.4409,-817.9443 159.2189,-812.7035 162.5,-814.9913 162.5,-814.9913 162.5,-814.9913 159.2189,-812.7035 164.5591,-812.0383 155.9378,-810.4156 155.9378,-810.4156"/>
<ellipse fill="none" stroke="#000000" cx="153.3129" cy="-808.5853" rx="3.2" ry="3.2"/>
</g>
<!-- aos_quotes&#45;&gt;accounts -->
<g id="edge10" class="edge">
<title>aos_quotes:w&#45;&gt;accounts:e</title>
<path fill="none" stroke="#000000" d="M148.2221,-833.4336C71.0195,-789.8751 205.6489,-360.9913 104.5,-360.9913"/>
<polygon fill="#000000" stroke="#000000" points="154.7374,-835.057 161.6295,-840.4845 158.6187,-836.0242 162.5,-836.9913 162.5,-836.9913 162.5,-836.9913 158.6187,-836.0242 163.3705,-833.4981 154.7374,-835.057 154.7374,-835.057"/>
<ellipse fill="none" stroke="#000000" cx="151.6323" cy="-834.2833" rx="3.2" ry="3.2"/>
</g>
<!-- aos_quotes&#45;&gt;opportunities -->
<g id="edge12" class="edge">
<title>aos_quotes:w&#45;&gt;opportunities:e</title>
<path fill="none" stroke="#000000" d="M148.0062,-790.7677C87.513,-769.0148 198.4888,-594.9913 113.5,-594.9913"/>
<polygon fill="#000000" stroke="#000000" points="154.5925,-791.7781 161.9541,-796.5497 158.5463,-792.3847 162.5,-792.9913 162.5,-792.9913 162.5,-792.9913 158.5463,-792.3847 163.0459,-789.433 154.5925,-791.7781 154.5925,-791.7781"/>
<ellipse fill="none" stroke="#000000" cx="151.4295" cy="-791.2928" rx="3.2" ry="3.2"/>
</g>
<!-- aos_products_quotes -->
<g id="node8" class="node">
<title>aos_products_quotes</title>
<g id="a_node8"><a xlink:href="../../tables/aos_products_quotes.html" xlink:title="aos_products_quotes" target="_top">
<polygon fill="#ffffff" stroke="transparent" points="762,-756.4913 762,-817.4913 910,-817.4913 910,-756.4913 762,-756.4913"/>
<polygon fill="#f5f5f5" stroke="transparent" points="762,-793.9913 762,-816.9913 910,-816.9913 910,-793.9913 762,-793.9913"/>
<polygon fill="none" stroke="#000000" points="762,-793.9913 762,-816.9913 910,-816.9913 910,-793.9913 762,-793.9913"/>
<text text-anchor="start" x="766.9227" y="-803.0913" font-family="Helvetica,sans-Serif" font-weight="bold" font-size="11.00" fill="#000000">aos_products_quotes</text>
<text text-anchor="start" x="875.5219" y="-802.0913" font-family="Helvetica,sans-Serif" font-size="11.00" fill="#000000">[table]</text>
<polygon fill="none" stroke="#000000" points="762,-774.9913 762,-793.9913 910,-793.9913 910,-774.9913 762,-774.9913"/>
<text text-anchor="start" x="765" y="-781.0913" font-family="Helvetica,sans-Serif" font-size="11.00" fill="#000000">...</text>
<polygon fill="#ffffff" stroke="transparent" points="762,-755.9913 762,-774.9913 830,-774.9913 830,-755.9913 762,-755.9913"/>
<polygon fill="none" stroke="#000000" points="762,-755.9913 762,-774.9913 830,-774.9913 830,-755.9913 762,-755.9913"/>
<text text-anchor="start" x="765" y="-762.0913" font-family="Helvetica,sans-Serif" font-size="11.00" fill="#000000">&lt; 8</text>
<polygon fill="#ffffff" stroke="transparent" points="830,-755.9913 830,-774.9913 865,-774.9913 865,-755.9913 830,-755.9913"/>
<polygon fill="none" stroke="#000000" points="830,-755.9913 830,-774.9913 865,-774.9913 865,-755.9913 830,-755.9913"/>
<text text-anchor="start" x="855.8862" y="-762.0913" font-family="Helvetica,sans-Serif" font-size="11.00" fill="#000000"> &#160;</text>
<polygon fill="#ffffff" stroke="transparent" points="865,-755.9913 865,-774.9913 910,-774.9913 910,-755.9913 865,-755.9913"/>
<polygon fill="none" stroke="#000000" points="865,-755.9913 865,-774.9913 910,-774.9913 910,-755.9913 865,-755.9913"/>
<text text-anchor="start" x="891.4053" y="-762.0913" font-family="Helvetica,sans-Serif" font-size="11.00" fill="#000000">1 &gt;</text>
</a>
</g>
</g>
<!-- aos_products_quotes&#45;&gt;aos_contracts -->
<g id="edge8" class="edge">
<title>aos_products_quotes:w&#45;&gt;aos_contracts:e</title>
<path fill="none" stroke="#000000" d="M748.2337,-779.6233C738.4111,-771.5516 737.648,-754.3619 721,-745.9913 601.8436,-686.0798 533.0836,-770.4945 426,-690.9913 392.2441,-665.9296 424.5423,-606.9913 382.5,-606.9913"/>
<polygon fill="#000000" stroke="#000000" points="754.3746,-781.5718 760.9112,-787.4227 758.1873,-782.7816 762,-783.9913 762,-783.9913 762,-783.9913 758.1873,-782.7816 763.0888,-780.5599 754.3746,-781.5718 754.3746,-781.5718"/>
<ellipse fill="none" stroke="#000000" cx="751.3245" cy="-780.604" rx="3.2" ry="3.2"/>
</g>
<!-- aos_products_quotes&#45;&gt;aos_line_item_groups -->
<g id="edge7" class="edge">
<title>aos_products_quotes:w&#45;&gt;aos_line_item_groups:e</title>
<path fill="none" stroke="#000000" d="M747.4669,-783.9913C708.5393,-783.9913 693.7227,-783.9913 648.5,-783.9913"/>
<polygon fill="#000000" stroke="#000000" points="754,-783.9914 762,-787.5913 758,-783.9914 762,-783.9913 762,-783.9913 762,-783.9913 758,-783.9914 762,-780.3913 754,-783.9914 754,-783.9914"/>
<ellipse fill="none" stroke="#000000" cx="750.8" cy="-783.9914" rx="3.2" ry="3.2"/>
</g>
<!-- aos_products_quotes&#45;&gt;aos_quotes -->
<g id="edge9" class="edge">
<title>aos_products_quotes:w&#45;&gt;aos_quotes:e</title>
<path fill="none" stroke="#000000" d="M748.0289,-787.6926C688.7363,-823.9737 781.1272,-1115.9125 721,-1169.9913 696.6293,-1191.9105 450.9961,-1191.1946 426,-1169.9913 383.9177,-1134.2944 440.6833,-924.9913 385.5,-924.9913"/>
<polygon fill="#000000" stroke="#000000" points="754.2668,-786.0401 762.9219,-787.4713 758.1334,-785.0157 762,-783.9913 762,-783.9913 762,-783.9913 758.1334,-785.0157 761.0781,-780.5114 754.2668,-786.0401 754.2668,-786.0401"/>
<ellipse fill="none" stroke="#000000" cx="751.1735" cy="-786.8595" rx="3.2" ry="3.2"/>
</g>
<!-- aos_quotes_aos_invoices_c -->
<g id="node9" class="node">
<title>aos_quotes_aos_invoices_c</title>
<g id="a_node9"><a xlink:href="../../tables/aos_quotes_aos_invoices_c.html" xlink:title="aos_quotes_aos_invoices_c" target="_top">
<polygon fill="#ffffff" stroke="transparent" points="483,-1016.4913 483,-1077.4913 664,-1077.4913 664,-1016.4913 483,-1016.4913"/>
<polygon fill="#f5f5f5" stroke="transparent" points="483.5,-1053.9913 483.5,-1076.9913 664.5,-1076.9913 664.5,-1053.9913 483.5,-1053.9913"/>
<polygon fill="none" stroke="#000000" points="483.5,-1053.9913 483.5,-1076.9913 664.5,-1076.9913 664.5,-1053.9913 483.5,-1053.9913"/>
<text text-anchor="start" x="488.4189" y="-1063.0913" font-family="Helvetica,sans-Serif" font-weight="bold" font-size="11.00" fill="#000000">aos_quotes_aos_invoices_c</text>
<text text-anchor="start" x="630.0219" y="-1062.0913" font-family="Helvetica,sans-Serif" font-size="11.00" fill="#000000">[table]</text>
<polygon fill="none" stroke="#000000" points="483.5,-1034.9913 483.5,-1053.9913 664.5,-1053.9913 664.5,-1034.9913 483.5,-1034.9913"/>
<text text-anchor="start" x="486.5" y="-1041.0913" font-family="Helvetica,sans-Serif" font-size="11.00" fill="#000000">...</text>
<polygon fill="#ffffff" stroke="transparent" points="483.5,-1015.9913 483.5,-1034.9913 572.5,-1034.9913 572.5,-1015.9913 483.5,-1015.9913"/>
<polygon fill="none" stroke="#000000" points="483.5,-1015.9913 483.5,-1034.9913 572.5,-1034.9913 572.5,-1015.9913 483.5,-1015.9913"/>
<text text-anchor="start" x="486.5" y="-1022.0913" font-family="Helvetica,sans-Serif" font-size="11.00" fill="#000000">&lt; 2</text>
<polygon fill="#ffffff" stroke="transparent" points="572.5,-1015.9913 572.5,-1034.9913 618.5,-1034.9913 618.5,-1015.9913 572.5,-1015.9913"/>
<polygon fill="none" stroke="#000000" points="572.5,-1015.9913 572.5,-1034.9913 618.5,-1034.9913 618.5,-1015.9913 572.5,-1015.9913"/>
<text text-anchor="start" x="609.3862" y="-1022.0913" font-family="Helvetica,sans-Serif" font-size="11.00" fill="#000000"> &#160;</text>
<polygon fill="#ffffff" stroke="transparent" points="618.5,-1015.9913 618.5,-1034.9913 664.5,-1034.9913 664.5,-1015.9913 618.5,-1015.9913"/>
<polygon fill="none" stroke="#000000" points="618.5,-1015.9913 618.5,-1034.9913 664.5,-1034.9913 664.5,-1015.9913 618.5,-1015.9913"/>
<text text-anchor="start" x="655.3862" y="-1022.0913" font-family="Helvetica,sans-Serif" font-size="11.00" fill="#000000"> &#160;</text>
</a>
</g>
</g>
<!-- aos_quotes_aos_invoices_c&#45;&gt;aos_quotes -->
<g id="edge13" class="edge">
<title>aos_quotes_aos_invoices_c:w&#45;&gt;aos_quotes:e</title>
<path fill="none" stroke="#000000" d="M469.1005,-1042.5729C450.0697,-1038.3198 442.6675,-1024.7956 426,-1005.9913 399.3023,-975.871 425.7492,-924.9913 385.5,-924.9913"/>
<polygon fill="#000000" stroke="#000000" points="475.5385,-1043.207 483.1471,-1047.574 479.5193,-1043.5992 483.5,-1043.9913 483.5,-1043.9913 483.5,-1043.9913 479.5193,-1043.5992 483.8529,-1040.4087 475.5385,-1043.207 475.5385,-1043.207"/>
<ellipse fill="none" stroke="#000000" cx="472.3539" cy="-1042.8933" rx="3.2" ry="3.2"/>
</g>
<!-- aos_quotes_os_contracts_c -->
<g id="node10" class="node">
<title>aos_quotes_os_contracts_c</title>
<g id="a_node10"><a xlink:href="../../tables/aos_quotes_os_contracts_c.html" xlink:title="aos_quotes_os_contracts_c" target="_top">
<polygon fill="#ffffff" stroke="transparent" points="434,-838.9913 434,-994.9913 713,-994.9913 713,-838.9913 434,-838.9913"/>
<polygon fill="#f5f5f5" stroke="transparent" points="436.5,-969.9913 436.5,-992.9913 711.5,-992.9913 711.5,-969.9913 436.5,-969.9913"/>
<polygon fill="none" stroke="#000000" points="436.5,-969.9913 436.5,-992.9913 711.5,-992.9913 711.5,-969.9913 436.5,-969.9913"/>
<text text-anchor="start" x="441.5" y="-979.0913" font-family="Helvetica,sans-Serif" font-weight="bold" font-size="11.00" fill="#000000">aos_quotes_os_contracts_c</text>
<text text-anchor="start" x="676.5437" y="-978.0913" font-family="Helvetica,sans-Serif" font-size="11.00" fill="#000000">[table]</text>
<polygon fill="none" stroke="#000000" points="436.5,-947.9913 436.5,-969.9913 645.5,-969.9913 645.5,-947.9913 436.5,-947.9913"/>
<image xlink:href="../../images/primaryKeys.png" width="11px" height="12px" preserveAspectRatio="xMinYMin meet" x="441.5" y="-964.991"/>
<text text-anchor="start" x="456.5" y="-955.0913" font-family="Helvetica,sans-Serif" font-size="11.00" fill="#000000">id</text>
<polygon fill="none" stroke="#000000" points="645.5,-947.9913 645.5,-969.9913 711.5,-969.9913 711.5,-947.9913 645.5,-947.9913"/>
<text text-anchor="start" x="648.5" y="-955.6913" font-family="Helvetica,sans-Serif" font-size="11.00" fill="#000000">varchar[36]</text>
<polygon fill="none" stroke="#000000" points="436.5,-925.9913 436.5,-947.9913 645.5,-947.9913 645.5,-925.9913 436.5,-925.9913"/>
<text text-anchor="start" x="456.5" y="-933.0913" font-family="Helvetica,sans-Serif" font-size="11.00" fill="#000000">date_modified</text>
<polygon fill="none" stroke="#000000" points="645.5,-925.9913 645.5,-947.9913 711.5,-947.9913 711.5,-925.9913 645.5,-925.9913"/>
<text text-anchor="start" x="648.2401" y="-933.6913" font-family="Helvetica,sans-Serif" font-size="11.00" fill="#000000">datetime[26]</text>
<polygon fill="none" stroke="#000000" points="436.5,-903.9913 436.5,-925.9913 645.5,-925.9913 645.5,-903.9913 436.5,-903.9913"/>
<text text-anchor="start" x="456.5" y="-911.0913" font-family="Helvetica,sans-Serif" font-size="11.00" fill="#000000">deleted</text>
<polygon fill="none" stroke="#000000" points="645.5,-903.9913 645.5,-925.9913 711.5,-925.9913 711.5,-903.9913 645.5,-903.9913"/>
<text text-anchor="start" x="648.5" y="-911.6913" font-family="Helvetica,sans-Serif" font-size="11.00" fill="#000000">bit[1]</text>
<polygon fill="#ffffff" stroke="transparent" points="436.5,-881.9913 436.5,-903.9913 645.5,-903.9913 645.5,-881.9913 436.5,-881.9913"/>
<polygon fill="none" stroke="#000000" points="436.5,-881.9913 436.5,-903.9913 645.5,-903.9913 645.5,-881.9913 436.5,-881.9913"/>
<image xlink:href="../../images/foreignKeys.png" width="11px" height="12px" preserveAspectRatio="xMinYMin meet" x="441.5" y="-898.991"/>
<text text-anchor="start" x="456.5" y="-889.0913" font-family="Helvetica,sans-Serif" font-size="11.00" fill="#000000">aos_quotese81e_quotes_ida</text>
<polygon fill="none" stroke="#000000" points="645.5,-881.9913 645.5,-903.9913 711.5,-903.9913 711.5,-881.9913 645.5,-881.9913"/>
<text text-anchor="start" x="648.5" y="-889.6913" font-family="Helvetica,sans-Serif" font-size="11.00" fill="#000000">varchar[36]</text>
<polygon fill="#ffffff" stroke="transparent" points="436.5,-859.9913 436.5,-881.9913 645.5,-881.9913 645.5,-859.9913 436.5,-859.9913"/>
<polygon fill="none" stroke="#000000" points="436.5,-859.9913 436.5,-881.9913 645.5,-881.9913 645.5,-859.9913 436.5,-859.9913"/>
<image xlink:href="../../images/foreignKeys.png" width="11px" height="12px" preserveAspectRatio="xMinYMin meet" x="441.5" y="-876.991"/>
<text text-anchor="start" x="456.5" y="-867.0913" font-family="Helvetica,sans-Serif" font-size="11.00" fill="#000000">aos_quotes4dc0ntracts_idb</text>
<polygon fill="none" stroke="#000000" points="645.5,-859.9913 645.5,-881.9913 711.5,-881.9913 711.5,-859.9913 645.5,-859.9913"/>
<text text-anchor="start" x="648.5" y="-867.6913" font-family="Helvetica,sans-Serif" font-size="11.00" fill="#000000">varchar[36]</text>
<polygon fill="#ffffff" stroke="transparent" points="436.5,-840.9913 436.5,-859.9913 545.5,-859.9913 545.5,-840.9913 436.5,-840.9913"/>
<polygon fill="none" stroke="#000000" points="436.5,-840.9913 436.5,-859.9913 545.5,-859.9913 545.5,-840.9913 436.5,-840.9913"/>
<text text-anchor="start" x="439.5" y="-847.0913" font-family="Helvetica,sans-Serif" font-size="11.00" fill="#000000">&lt; 2</text>
<polygon fill="#ffffff" stroke="transparent" points="545.5,-840.9913 545.5,-859.9913 645.5,-859.9913 645.5,-840.9913 545.5,-840.9913"/>
<polygon fill="none" stroke="#000000" points="545.5,-840.9913 545.5,-859.9913 645.5,-859.9913 645.5,-840.9913 545.5,-840.9913"/>
<text text-anchor="start" x="636.3862" y="-847.0913" font-family="Helvetica,sans-Serif" font-size="11.00" fill="#000000"> &#160;</text>
<polygon fill="#ffffff" stroke="transparent" points="645.5,-840.9913 645.5,-859.9913 711.5,-859.9913 711.5,-840.9913 645.5,-840.9913"/>
<polygon fill="none" stroke="#000000" points="645.5,-840.9913 645.5,-859.9913 711.5,-859.9913 711.5,-840.9913 645.5,-840.9913"/>
<text text-anchor="start" x="692.9053" y="-847.0913" font-family="Helvetica,sans-Serif" font-size="11.00" fill="#000000">0 &gt;</text>
<polygon fill="none" stroke="#000000" stroke-width="2" points="435,-839.9913 435,-993.9913 712,-993.9913 712,-839.9913 435,-839.9913"/>
</a>
</g>
</g>
<!-- aos_quotes_os_contracts_c&#45;&gt;aos_contracts -->
<g id="edge14" class="edge">
<title>aos_quotes_os_contracts_c:w&#45;&gt;aos_contracts:e</title>
<path fill="none" stroke="#000000" d="M422.1529,-869.441C332.7895,-847.8053 496.8828,-606.9913 382.5,-606.9913"/>
<polygon fill="#000000" stroke="#000000" points="428.5463,-870.1318 436.1132,-874.5705 432.5232,-870.5616 436.5,-870.9913 436.5,-870.9913 436.5,-870.9913 432.5232,-870.5616 436.8868,-867.4122 428.5463,-870.1318 428.5463,-870.1318"/>
<ellipse fill="none" stroke="#000000" cx="425.3648" cy="-869.788" rx="3.2" ry="3.2"/>
</g>
<!-- aos_quotes_os_contracts_c&#45;&gt;aos_quotes -->
<g id="edge15" class="edge">
<title>aos_quotes_os_contracts_c:w&#45;&gt;aos_quotes:e</title>
<path fill="none" stroke="#000000" d="M422.5293,-896.9152C409.4416,-905.4601 406.4055,-924.9913 385.5,-924.9913"/>
<polygon fill="#000000" stroke="#000000" points="428.798,-895.1546 437.4735,-896.4572 432.649,-894.0729 436.5,-892.9913 436.5,-892.9913 436.5,-892.9913 432.649,-894.0729 435.5265,-889.5254 428.798,-895.1546 428.798,-895.1546"/>
<ellipse fill="none" stroke="#000000" cx="425.7172" cy="-896.0199" rx="3.2" ry="3.2"/>
</g>
<!-- aos_quotes_project_c -->
<g id="node11" class="node">
<title>aos_quotes_project_c</title>
<g id="a_node11"><a xlink:href="../../tables/aos_quotes_project_c.html" xlink:title="aos_quotes_project_c" target="_top">
<polygon fill="#ffffff" stroke="transparent" points="498.5,-1098.4913 498.5,-1159.4913 648.5,-1159.4913 648.5,-1098.4913 498.5,-1098.4913"/>
<polygon fill="#f5f5f5" stroke="transparent" points="498.5,-1135.9913 498.5,-1158.9913 648.5,-1158.9913 648.5,-1135.9913 498.5,-1135.9913"/>
<polygon fill="none" stroke="#000000" points="498.5,-1135.9913 498.5,-1158.9913 648.5,-1158.9913 648.5,-1135.9913 498.5,-1135.9913"/>
<text text-anchor="start" x="503.2023" y="-1145.0913" font-family="Helvetica,sans-Serif" font-weight="bold" font-size="11.00" fill="#000000">aos_quotes_project_c</text>
<text text-anchor="start" x="614.0219" y="-1144.0913" font-family="Helvetica,sans-Serif" font-size="11.00" fill="#000000">[table]</text>
<polygon fill="none" stroke="#000000" points="498.5,-1116.9913 498.5,-1135.9913 648.5,-1135.9913 648.5,-1116.9913 498.5,-1116.9913"/>
<text text-anchor="start" x="501.5" y="-1123.0913" font-family="Helvetica,sans-Serif" font-size="11.00" fill="#000000">...</text>
<polygon fill="#ffffff" stroke="transparent" points="498.5,-1097.9913 498.5,-1116.9913 571.5,-1116.9913 571.5,-1097.9913 498.5,-1097.9913"/>
<polygon fill="none" stroke="#000000" points="498.5,-1097.9913 498.5,-1116.9913 571.5,-1116.9913 571.5,-1097.9913 498.5,-1097.9913"/>
<text text-anchor="start" x="501.5" y="-1104.0913" font-family="Helvetica,sans-Serif" font-size="11.00" fill="#000000">&lt; 2</text>
<polygon fill="#ffffff" stroke="transparent" points="571.5,-1097.9913 571.5,-1116.9913 609.5,-1116.9913 609.5,-1097.9913 571.5,-1097.9913"/>
<polygon fill="none" stroke="#000000" points="571.5,-1097.9913 571.5,-1116.9913 609.5,-1116.9913 609.5,-1097.9913 571.5,-1097.9913"/>
<text text-anchor="start" x="600.3862" y="-1104.0913" font-family="Helvetica,sans-Serif" font-size="11.00" fill="#000000"> &#160;</text>
<polygon fill="#ffffff" stroke="transparent" points="609.5,-1097.9913 609.5,-1116.9913 648.5,-1116.9913 648.5,-1097.9913 609.5,-1097.9913"/>
<polygon fill="none" stroke="#000000" points="609.5,-1097.9913 609.5,-1116.9913 648.5,-1116.9913 648.5,-1097.9913 609.5,-1097.9913"/>
<text text-anchor="start" x="639.3862" y="-1104.0913" font-family="Helvetica,sans-Serif" font-size="11.00" fill="#000000"> &#160;</text>
</a>
</g>
</g>
<!-- aos_quotes_project_c&#45;&gt;aos_quotes -->
<g id="edge16" class="edge">
<title>aos_quotes_project_c:w&#45;&gt;aos_quotes:e</title>
<path fill="none" stroke="#000000" d="M484.0551,-1125.3732C457.9903,-1122.8757 445.2232,-1112.4667 426,-1087.9913 379.8925,-1029.2862 460.1472,-924.9913 385.5,-924.9913"/>
<polygon fill="#000000" stroke="#000000" points="490.5073,-1125.6493 498.3461,-1129.588 494.5037,-1125.8203 498.5,-1125.9913 498.5,-1125.9913 498.5,-1125.9913 494.5037,-1125.8203 498.6539,-1122.3946 490.5073,-1125.6493 490.5073,-1125.6493"/>
<ellipse fill="none" stroke="#000000" cx="487.3102" cy="-1125.5124" rx="3.2" ry="3.2"/>
</g>
<!-- calls -->
<g id="node12" class="node">
<title>calls</title>
<g id="a_node12"><a xlink:href="../../tables/calls.html" xlink:title="calls" target="_top">
<polygon fill="#ffffff" stroke="transparent" points="541.5,-619.4913 541.5,-680.4913 605.5,-680.4913 605.5,-619.4913 541.5,-619.4913"/>
<polygon fill="#f5f5f5" stroke="transparent" points="541.5,-656.9913 541.5,-679.9913 605.5,-679.9913 605.5,-656.9913 541.5,-656.9913"/>
<polygon fill="none" stroke="#000000" points="541.5,-656.9913 541.5,-679.9913 605.5,-679.9913 605.5,-656.9913 541.5,-656.9913"/>
<text text-anchor="start" x="546.0017" y="-666.0913" font-family="Helvetica,sans-Serif" font-weight="bold" font-size="11.00" fill="#000000">calls</text>
<text text-anchor="start" x="571.0219" y="-665.0913" font-family="Helvetica,sans-Serif" font-size="11.00" fill="#000000">[table]</text>
<polygon fill="none" stroke="#000000" points="541.5,-637.9913 541.5,-656.9913 605.5,-656.9913 605.5,-637.9913 541.5,-637.9913"/>
<text text-anchor="start" x="544.5" y="-644.0913" font-family="Helvetica,sans-Serif" font-size="11.00" fill="#000000">...</text>
<polygon fill="#ffffff" stroke="transparent" points="541.5,-618.9913 541.5,-637.9913 570.5,-637.9913 570.5,-618.9913 541.5,-618.9913"/>
<polygon fill="none" stroke="#000000" points="541.5,-618.9913 541.5,-637.9913 570.5,-637.9913 570.5,-618.9913 541.5,-618.9913"/>
<text text-anchor="start" x="544.5" y="-625.0913" font-family="Helvetica,sans-Serif" font-size="11.00" fill="#000000">&lt; 12</text>
<polygon fill="#ffffff" stroke="transparent" points="570.5,-618.9913 570.5,-637.9913 583.5,-637.9913 583.5,-618.9913 570.5,-618.9913"/>
<polygon fill="none" stroke="#000000" points="570.5,-618.9913 570.5,-637.9913 583.5,-637.9913 583.5,-618.9913 570.5,-618.9913"/>
<text text-anchor="start" x="574.3862" y="-625.0913" font-family="Helvetica,sans-Serif" font-size="11.00" fill="#000000"> &#160;</text>
<polygon fill="#ffffff" stroke="transparent" points="583.5,-618.9913 583.5,-637.9913 605.5,-637.9913 605.5,-618.9913 583.5,-618.9913"/>
<polygon fill="none" stroke="#000000" points="583.5,-618.9913 583.5,-637.9913 605.5,-637.9913 605.5,-618.9913 583.5,-618.9913"/>
<text text-anchor="start" x="586.9053" y="-625.0913" font-family="Helvetica,sans-Serif" font-size="11.00" fill="#000000">6 &gt;</text>
</a>
</g>
</g>
<!-- calls&#45;&gt;aos_contracts -->
<g id="edge18" class="edge">
<title>calls:w&#45;&gt;aos_contracts:e</title>
<path fill="none" stroke="#000000" d="M526.9719,-646.4259C466.4717,-641.5641 450.245,-606.9913 382.5,-606.9913"/>
<polygon fill="#000000" stroke="#000000" points="533.5061,-646.6801 541.36,-650.5886 537.503,-646.8357 541.5,-646.9913 541.5,-646.9913 541.5,-646.9913 537.503,-646.8357 541.64,-643.3941 533.5061,-646.6801 533.5061,-646.6801"/>
<ellipse fill="none" stroke="#000000" cx="530.3085" cy="-646.5557" rx="3.2" ry="3.2"/>
</g>
<!-- calls&#45;&gt;accounts -->
<g id="edge17" class="edge">
<title>calls:w&#45;&gt;accounts:e</title>
<path fill="none" stroke="#000000" d="M526.9712,-647.4535C431.4504,-652.9487 216.3971,-704.6708 154,-651.9913 103.8785,-609.6757 170.0956,-360.9913 104.5,-360.9913"/>
<polygon fill="#000000" stroke="#000000" points="533.504,-647.2457 541.6145,-650.5895 537.502,-647.1185 541.5,-646.9913 541.5,-646.9913 541.5,-646.9913 537.502,-647.1185 541.3855,-643.3931 533.504,-647.2457 533.504,-647.2457"/>
<ellipse fill="none" stroke="#000000" cx="530.3057" cy="-647.3475" rx="3.2" ry="3.2"/>
</g>
<!-- calls&#45;&gt;opportunities -->
<g id="edge19" class="edge">
<title>calls:w&#45;&gt;opportunities:e</title>
<path fill="none" stroke="#000000" d="M527.0749,-647.2721C364.8877,-653.6077 296.7501,-764.2157 154,-675.9913 119.762,-654.8311 153.7492,-594.9913 113.5,-594.9913"/>
<polygon fill="#000000" stroke="#000000" points="533.5015,-647.147 541.5701,-650.5906 537.5008,-647.0692 541.5,-646.9913 541.5,-646.9913 541.5,-646.9913 537.5008,-647.0692 541.4299,-643.392 533.5015,-647.147 533.5015,-647.147"/>
<ellipse fill="none" stroke="#000000" cx="530.3021" cy="-647.2093" rx="3.2" ry="3.2"/>
</g>
<!-- emails_beans -->
<g id="node13" class="node">
<title>emails_beans</title>
<g id="a_node13"><a xlink:href="../../tables/emails_beans.html" xlink:title="emails_beans" target="_top">
<polygon fill="#ffffff" stroke="transparent" points="781,-252.4913 781,-313.4913 891,-313.4913 891,-252.4913 781,-252.4913"/>
<polygon fill="#f5f5f5" stroke="transparent" points="781,-289.9913 781,-312.9913 891,-312.9913 891,-289.9913 781,-289.9913"/>
<polygon fill="none" stroke="#000000" points="781,-289.9913 781,-312.9913 891,-312.9913 891,-289.9913 781,-289.9913"/>
<text text-anchor="start" x="785.576" y="-299.0913" font-family="Helvetica,sans-Serif" font-weight="bold" font-size="11.00" fill="#000000">emails_beans</text>
<text text-anchor="start" x="856.5219" y="-298.0913" font-family="Helvetica,sans-Serif" font-size="11.00" fill="#000000">[table]</text>
<polygon fill="none" stroke="#000000" points="781,-270.9913 781,-289.9913 891,-289.9913 891,-270.9913 781,-270.9913"/>
<text text-anchor="start" x="784" y="-277.0913" font-family="Helvetica,sans-Serif" font-size="11.00" fill="#000000">...</text>
<polygon fill="#ffffff" stroke="transparent" points="781,-251.9913 781,-270.9913 837,-270.9913 837,-251.9913 781,-251.9913"/>
<polygon fill="none" stroke="#000000" points="781,-251.9913 781,-270.9913 837,-270.9913 837,-251.9913 781,-251.9913"/>
<text text-anchor="start" x="784" y="-258.0913" font-family="Helvetica,sans-Serif" font-size="11.00" fill="#000000">&lt; 14</text>
<polygon fill="#ffffff" stroke="transparent" points="837,-251.9913 837,-270.9913 864,-270.9913 864,-251.9913 837,-251.9913"/>
<polygon fill="none" stroke="#000000" points="837,-251.9913 837,-270.9913 864,-270.9913 864,-251.9913 837,-251.9913"/>
<text text-anchor="start" x="854.8862" y="-258.0913" font-family="Helvetica,sans-Serif" font-size="11.00" fill="#000000"> &#160;</text>
<polygon fill="#ffffff" stroke="transparent" points="864,-251.9913 864,-270.9913 891,-270.9913 891,-251.9913 864,-251.9913"/>
<polygon fill="none" stroke="#000000" points="864,-251.9913 864,-270.9913 891,-270.9913 891,-251.9913 864,-251.9913"/>
<text text-anchor="start" x="881.8862" y="-258.0913" font-family="Helvetica,sans-Serif" font-size="11.00" fill="#000000"> &#160;</text>
</a>
</g>
</g>
<!-- emails_beans&#45;&gt;aos_contracts -->
<g id="edge21" class="edge">
<title>emails_beans:w&#45;&gt;aos_contracts:e</title>
<path fill="none" stroke="#000000" d="M766.5073,-281.7366C713.9987,-296.3773 777.4493,-399.2902 721,-443.9913 669.4226,-484.8345 477.3635,-427.8795 426,-468.9913 375.7937,-509.1769 446.8083,-606.9913 382.5,-606.9913"/>
<polygon fill="#000000" stroke="#000000" points="773.0574,-280.9479 781.4304,-283.5655 777.0287,-280.4696 781,-279.9913 781,-279.9913 781,-279.9913 777.0287,-280.4696 780.5696,-276.4171 773.0574,-280.9479 773.0574,-280.9479"/>
<ellipse fill="none" stroke="#000000" cx="769.8803" cy="-281.3305" rx="3.2" ry="3.2"/>
</g>
<!-- emails_beans&#45;&gt;contacts -->
<g id="edge22" class="edge">
<title>emails_beans:w&#45;&gt;contacts:e</title>
<path fill="none" stroke="#000000" d="M766.6553,-277.6293C730.7875,-263.4913 766.2544,-189.7492 721,-161.9913 505.2882,-29.6791 399.4968,-152.5955 154,-213.9913 130.748,-219.8064 126.4681,-229.9913 102.5,-229.9913"/>
<polygon fill="#000000" stroke="#000000" points="773.1063,-278.6915 780.4151,-283.5435 777.0531,-279.3414 781,-279.9913 781,-279.9913 781,-279.9913 777.0531,-279.3414 781.5849,-276.4392 773.1063,-278.6915 773.1063,-278.6915"/>
<ellipse fill="none" stroke="#000000" cx="769.9488" cy="-278.1715" rx="3.2" ry="3.2"/>
</g>
<!-- emails_beans&#45;&gt;accounts -->
<g id="edge20" class="edge">
<title>emails_beans:w&#45;&gt;accounts:e</title>
<path fill="none" stroke="#000000" d="M766.7221,-277.2876C738.1272,-264.1796 759.3702,-207.0202 721,-185.9913 606.0239,-122.9785 556.9507,-179.5079 426,-185.9913 365.3328,-188.995 201.4787,-175.1059 154,-212.9913 99.7852,-256.2518 173.8593,-360.9913 104.5,-360.9913"/>
<polygon fill="#000000" stroke="#000000" points="773.1397,-278.5028 780.3302,-283.5285 777.0698,-279.2471 781,-279.9913 781,-279.9913 781,-279.9913 777.0698,-279.2471 781.6698,-276.4542 773.1397,-278.5028 773.1397,-278.5028"/>
<ellipse fill="none" stroke="#000000" cx="769.9956" cy="-277.9074" rx="3.2" ry="3.2"/>
</g>
<!-- emails_beans&#45;&gt;opportunities -->
<g id="edge24" class="edge">
<title>emails_beans:w&#45;&gt;opportunities:e</title>
<path fill="none" stroke="#000000" d="M766.1423,-280.0154C614.4984,-280.5141 251.7589,-289.6075 154,-384.9913 85.9658,-451.3725 208.5532,-594.9913 113.5,-594.9913"/>
<polygon fill="#000000" stroke="#000000" points="773,-280.0044 781.0059,-283.5913 777,-279.9978 781,-279.9913 781,-279.9913 781,-279.9913 777,-279.9978 780.9941,-276.3913 773,-280.0044 773,-280.0044"/>
<ellipse fill="none" stroke="#000000" cx="769.8" cy="-280.0096" rx="3.2" ry="3.2"/>
</g>
<!-- meetings -->
<g id="node14" class="node">
<title>meetings</title>
<g id="a_node14"><a xlink:href="../../tables/meetings.html" xlink:title="meetings" target="_top">
<polygon fill="#ffffff" stroke="transparent" points="530,-372.4913 530,-433.4913 617,-433.4913 617,-372.4913 530,-372.4913"/>
<polygon fill="#f5f5f5" stroke="transparent" points="530.5,-409.9913 530.5,-432.9913 617.5,-432.9913 617.5,-409.9913 530.5,-409.9913"/>
<polygon fill="none" stroke="#000000" points="530.5,-409.9913 530.5,-432.9913 617.5,-432.9913 617.5,-409.9913 530.5,-409.9913"/>
<text text-anchor="start" x="535.1904" y="-419.0913" font-family="Helvetica,sans-Serif" font-weight="bold" font-size="11.00" fill="#000000">meetings</text>
<text text-anchor="start" x="583.0219" y="-418.0913" font-family="Helvetica,sans-Serif" font-size="11.00" fill="#000000">[table]</text>
<polygon fill="none" stroke="#000000" points="530.5,-390.9913 530.5,-409.9913 617.5,-409.9913 617.5,-390.9913 530.5,-390.9913"/>
<text text-anchor="start" x="533.5" y="-397.0913" font-family="Helvetica,sans-Serif" font-size="11.00" fill="#000000">...</text>
<polygon fill="#ffffff" stroke="transparent" points="530.5,-371.9913 530.5,-390.9913 570.5,-390.9913 570.5,-371.9913 530.5,-371.9913"/>
<polygon fill="none" stroke="#000000" points="530.5,-371.9913 530.5,-390.9913 570.5,-390.9913 570.5,-371.9913 530.5,-371.9913"/>
<text text-anchor="start" x="533.5" y="-378.0913" font-family="Helvetica,sans-Serif" font-size="11.00" fill="#000000">&lt; 13</text>
<polygon fill="#ffffff" stroke="transparent" points="570.5,-371.9913 570.5,-390.9913 589.5,-390.9913 589.5,-371.9913 570.5,-371.9913"/>
<polygon fill="none" stroke="#000000" points="570.5,-371.9913 570.5,-390.9913 589.5,-390.9913 589.5,-371.9913 570.5,-371.9913"/>
<text text-anchor="start" x="580.3862" y="-378.0913" font-family="Helvetica,sans-Serif" font-size="11.00" fill="#000000"> &#160;</text>
<polygon fill="#ffffff" stroke="transparent" points="589.5,-371.9913 589.5,-390.9913 617.5,-390.9913 617.5,-371.9913 589.5,-371.9913"/>
<polygon fill="none" stroke="#000000" points="589.5,-371.9913 589.5,-390.9913 617.5,-390.9913 617.5,-371.9913 589.5,-371.9913"/>
<text text-anchor="start" x="598.9053" y="-378.0913" font-family="Helvetica,sans-Serif" font-size="11.00" fill="#000000">7 &gt;</text>
</a>
</g>
</g>
<!-- emails_beans&#45;&gt;meetings -->
<g id="edge23" class="edge">
<title>emails_beans:w&#45;&gt;meetings:e</title>
<path fill="none" stroke="#000000" d="M766.2136,-281.179C692.4607,-293.6418 702.3566,-399.9913 617.5,-399.9913"/>
<polygon fill="#000000" stroke="#000000" points="773.0257,-280.6319 781.2883,-283.5798 777.0128,-280.3116 781,-279.9913 781,-279.9913 781,-279.9913 777.0128,-280.3116 780.7117,-276.4029 773.0257,-280.6319 773.0257,-280.6319"/>
<ellipse fill="none" stroke="#000000" cx="769.836" cy="-280.8881" rx="3.2" ry="3.2"/>
</g>
<!-- tasks -->
<g id="node15" class="node">
<title>tasks</title>
<g id="a_node15"><a xlink:href="../../tables/tasks.html" xlink:title="tasks" target="_top">
<polygon fill="#ffffff" stroke="transparent" points="539.5,-196.4913 539.5,-257.4913 607.5,-257.4913 607.5,-196.4913 539.5,-196.4913"/>
<polygon fill="#f5f5f5" stroke="transparent" points="539.5,-233.9913 539.5,-256.9913 607.5,-256.9913 607.5,-233.9913 539.5,-233.9913"/>
<polygon fill="none" stroke="#000000" points="539.5,-233.9913 539.5,-256.9913 607.5,-256.9913 607.5,-233.9913 539.5,-233.9913"/>
<text text-anchor="start" x="544.1641" y="-243.0913" font-family="Helvetica,sans-Serif" font-weight="bold" font-size="11.00" fill="#000000">tasks</text>
<text text-anchor="start" x="573.0219" y="-242.0913" font-family="Helvetica,sans-Serif" font-size="11.00" fill="#000000">[table]</text>
<polygon fill="none" stroke="#000000" points="539.5,-214.9913 539.5,-233.9913 607.5,-233.9913 607.5,-214.9913 539.5,-214.9913"/>
<text text-anchor="start" x="542.5" y="-221.0913" font-family="Helvetica,sans-Serif" font-size="11.00" fill="#000000">...</text>
<polygon fill="#ffffff" stroke="transparent" points="539.5,-195.9913 539.5,-214.9913 570.5,-214.9913 570.5,-195.9913 539.5,-195.9913"/>
<polygon fill="none" stroke="#000000" points="539.5,-195.9913 539.5,-214.9913 570.5,-214.9913 570.5,-195.9913 539.5,-195.9913"/>
<text text-anchor="start" x="542.5" y="-202.0913" font-family="Helvetica,sans-Serif" font-size="11.00" fill="#000000">&lt; 14</text>
<polygon fill="#ffffff" stroke="transparent" points="570.5,-195.9913 570.5,-214.9913 584.5,-214.9913 584.5,-195.9913 570.5,-195.9913"/>
<polygon fill="none" stroke="#000000" points="570.5,-195.9913 570.5,-214.9913 584.5,-214.9913 584.5,-195.9913 570.5,-195.9913"/>
<text text-anchor="start" x="575.3862" y="-202.0913" font-family="Helvetica,sans-Serif" font-size="11.00" fill="#000000"> &#160;</text>
<polygon fill="#ffffff" stroke="transparent" points="584.5,-195.9913 584.5,-214.9913 607.5,-214.9913 607.5,-195.9913 584.5,-195.9913"/>
<polygon fill="none" stroke="#000000" points="584.5,-195.9913 584.5,-214.9913 607.5,-214.9913 607.5,-195.9913 584.5,-195.9913"/>
<text text-anchor="start" x="588.9053" y="-202.0913" font-family="Helvetica,sans-Serif" font-size="11.00" fill="#000000">3 &gt;</text>
</a>
</g>
</g>
<!-- emails_beans&#45;&gt;tasks -->
<g id="edge25" class="edge">
<title>emails_beans:w&#45;&gt;tasks:e</title>
<path fill="none" stroke="#000000" d="M766.5887,-279.3624C698.2695,-273.2101 683.464,-223.9913 607.5,-223.9913"/>
<polygon fill="#000000" stroke="#000000" points="773.0076,-279.6425 780.843,-283.5879 777.0038,-279.8169 781,-279.9913 781,-279.9913 781,-279.9913 777.0038,-279.8169 781.157,-276.3947 773.0076,-279.6425 773.0076,-279.6425"/>
<ellipse fill="none" stroke="#000000" cx="769.8106" cy="-279.503" rx="3.2" ry="3.2"/>
</g>
<!-- meetings&#45;&gt;aos_contracts -->
<g id="edge27" class="edge">
<title>meetings:w&#45;&gt;aos_contracts:e</title>
<path fill="none" stroke="#000000" d="M516.1004,-400.2808C475.2152,-402.0872 455.7736,-412.9022 426,-447.9913 378.5992,-503.8547 455.7636,-606.9913 382.5,-606.9913"/>
<polygon fill="#000000" stroke="#000000" points="522.5016,-400.1521 530.5724,-403.5906 526.5008,-400.0717 530.5,-399.9913 530.5,-399.9913 530.5,-399.9913 526.5008,-400.0717 530.4276,-396.3921 522.5016,-400.1521 522.5016,-400.1521"/>
<ellipse fill="none" stroke="#000000" cx="519.3023" cy="-400.2165" rx="3.2" ry="3.2"/>
</g>
<!-- meetings&#45;&gt;accounts -->
<g id="edge26" class="edge">
<title>meetings:w&#45;&gt;accounts:e</title>
<path fill="none" stroke="#000000" d="M516.0244,-399.9143C337.9103,-397.9989 289.7049,-360.9913 104.5,-360.9913"/>
<polygon fill="#000000" stroke="#000000" points="522.5001,-399.9487 530.4808,-403.5913 526.5001,-399.97 530.5,-399.9913 530.5,-399.9913 530.5,-399.9913 526.5001,-399.97 530.5192,-396.3914 522.5001,-399.9487 522.5001,-399.9487"/>
<ellipse fill="none" stroke="#000000" cx="519.3002" cy="-399.9317" rx="3.2" ry="3.2"/>
</g>
<!-- meetings&#45;&gt;opportunities -->
<g id="edge28" class="edge">
<title>meetings:w&#45;&gt;opportunities:e</title>
<path fill="none" stroke="#000000" d="M516.0897,-399.6961C423.119,-396.2742 214.9075,-365.169 154,-415.9913 91.3724,-468.249 195.0665,-594.9913 113.5,-594.9913"/>
<polygon fill="#000000" stroke="#000000" points="522.5017,-399.8274 530.4262,-403.5906 526.5008,-399.9094 530.5,-399.9913 530.5,-399.9913 530.5,-399.9913 526.5008,-399.9094 530.5738,-396.3921 522.5017,-399.8274 522.5017,-399.8274"/>
<ellipse fill="none" stroke="#000000" cx="519.3023" cy="-399.7619" rx="3.2" ry="3.2"/>
</g>
<!-- tasks&#45;&gt;aos_contracts -->
<g id="edge48" class="edge">
<title>tasks:w&#45;&gt;aos_contracts:e</title>
<path fill="none" stroke="#000000" d="M525.0943,-224.7964C459.8444,-232.5099 457.1065,-294.5223 426,-361.9913 402.848,-412.2071 437.7959,-606.9913 382.5,-606.9913"/>
<polygon fill="#000000" stroke="#000000" points="531.5125,-224.4378 539.7009,-227.5857 535.5062,-224.2146 539.5,-223.9913 539.5,-223.9913 539.5,-223.9913 535.5062,-224.2146 539.2991,-220.3969 531.5125,-224.4378 531.5125,-224.4378"/>
<ellipse fill="none" stroke="#000000" cx="528.3175" cy="-224.6164" rx="3.2" ry="3.2"/>
</g>
<!-- tasks&#45;&gt;contacts -->
<g id="edge46" class="edge">
<title>tasks:w&#45;&gt;contacts:e</title>
<path fill="none" stroke="#000000" d="M524.7614,-223.9273C365.4645,-222.5318 319.2455,-198.9939 154,-217.9913 130.6518,-220.6756 126.002,-229.9913 102.5,-229.9913"/>
<polygon fill="#000000" stroke="#000000" points="531.5001,-223.9565 539.4843,-227.5913 535.5,-223.9739 539.5,-223.9913 539.5,-223.9913 539.5,-223.9913 535.5,-223.9739 539.5157,-220.3914 531.5001,-223.9565 531.5001,-223.9565"/>
<ellipse fill="none" stroke="#000000" cx="528.3001" cy="-223.9426" rx="3.2" ry="3.2"/>
</g>
<!-- tasks&#45;&gt;contacts -->
<g id="edge49" class="edge">
<title>tasks:w&#45;&gt;contacts:e</title>
<path fill="none" stroke="#000000" d="M524.7644,-223.9533C365.5157,-223.1257 319.8225,-209.1887 154,-221.9913 130.9053,-223.7744 125.6634,-229.9913 102.5,-229.9913"/>
<polygon fill="#000000" stroke="#000000" points="531.5,-223.9706 539.4907,-227.5913 535.5,-223.981 539.5,-223.9913 539.5,-223.9913 539.5,-223.9913 535.5,-223.981 539.5093,-220.3913 531.5,-223.9706 531.5,-223.9706"/>
<ellipse fill="none" stroke="#000000" cx="528.3" cy="-223.9624" rx="3.2" ry="3.2"/>
</g>
<!-- tasks&#45;&gt;accounts -->
<g id="edge47" class="edge">
<title>tasks:w&#45;&gt;accounts:e</title>
<path fill="none" stroke="#000000" d="M525.0661,-223.7792C430.3829,-221.2781 220.637,-198.3238 154,-244.9913 108.0863,-277.1458 160.5533,-360.9913 104.5,-360.9913"/>
<polygon fill="#000000" stroke="#000000" points="531.5009,-223.8737 539.4471,-227.5909 535.5004,-223.9325 539.5,-223.9913 539.5,-223.9913 539.5,-223.9913 535.5004,-223.9325 539.5529,-220.3917 531.5009,-223.8737 531.5009,-223.8737"/>
<ellipse fill="none" stroke="#000000" cx="528.3012" cy="-223.8267" rx="3.2" ry="3.2"/>
</g>
<!-- tasks&#45;&gt;opportunities -->
<g id="edge50" class="edge">
<title>tasks:w&#45;&gt;opportunities:e</title>
<path fill="none" stroke="#000000" d="M525.1241,-225.6346C455.3694,-233.8673 155.6922,-270.3005 154,-271.9913 102.826,-323.1213 185.8398,-594.9913 113.5,-594.9913"/>
<polygon fill="#000000" stroke="#000000" points="531.5518,-224.8999 539.9089,-227.568 535.5259,-224.4456 539.5,-223.9913 539.5,-223.9913 539.5,-223.9913 535.5259,-224.4456 539.0911,-220.4146 531.5518,-224.8999 531.5518,-224.8999"/>
<ellipse fill="none" stroke="#000000" cx="528.3725" cy="-225.2633" rx="3.2" ry="3.2"/>
</g>
<!-- notes -->
<g id="node16" class="node">
<title>notes</title>
<g id="a_node16"><a xlink:href="../../tables/notes.html" xlink:title="notes" target="_top">
<polygon fill="#ffffff" stroke="transparent" points="801.5,-353.4913 801.5,-414.4913 870.5,-414.4913 870.5,-353.4913 801.5,-353.4913"/>
<polygon fill="#f5f5f5" stroke="transparent" points="802,-390.9913 802,-413.9913 871,-413.9913 871,-390.9913 802,-390.9913"/>
<polygon fill="none" stroke="#000000" points="802,-390.9913 802,-413.9913 871,-413.9913 871,-390.9913 802,-390.9913"/>
<text text-anchor="start" x="806.5492" y="-400.0913" font-family="Helvetica,sans-Serif" font-weight="bold" font-size="11.00" fill="#000000">notes</text>
<text text-anchor="start" x="836.5219" y="-399.0913" font-family="Helvetica,sans-Serif" font-size="11.00" fill="#000000">[table]</text>
<polygon fill="none" stroke="#000000" points="802,-371.9913 802,-390.9913 871,-390.9913 871,-371.9913 802,-371.9913"/>
<text text-anchor="start" x="805" y="-378.0913" font-family="Helvetica,sans-Serif" font-size="11.00" fill="#000000">...</text>
<polygon fill="#ffffff" stroke="transparent" points="802,-352.9913 802,-371.9913 833,-371.9913 833,-352.9913 802,-352.9913"/>
<polygon fill="none" stroke="#000000" points="802,-352.9913 802,-371.9913 833,-371.9913 833,-352.9913 802,-352.9913"/>
<text text-anchor="start" x="805" y="-359.0913" font-family="Helvetica,sans-Serif" font-size="11.00" fill="#000000">&lt; 19</text>
<polygon fill="#ffffff" stroke="transparent" points="833,-352.9913 833,-371.9913 847,-371.9913 847,-352.9913 833,-352.9913"/>
<polygon fill="none" stroke="#000000" points="833,-352.9913 833,-371.9913 847,-371.9913 847,-352.9913 833,-352.9913"/>
<text text-anchor="start" x="837.8862" y="-359.0913" font-family="Helvetica,sans-Serif" font-size="11.00" fill="#000000"> &#160;</text>
<polygon fill="#ffffff" stroke="transparent" points="847,-352.9913 847,-371.9913 871,-371.9913 871,-352.9913 847,-352.9913"/>
<polygon fill="none" stroke="#000000" points="847,-352.9913 847,-371.9913 871,-371.9913 871,-352.9913 847,-352.9913"/>
<text text-anchor="start" x="852.4053" y="-359.0913" font-family="Helvetica,sans-Serif" font-size="11.00" fill="#000000">1 &gt;</text>
</a>
</g>
</g>
<!-- notes&#45;&gt;aos_contracts -->
<g id="edge31" class="edge">
<title>notes:w&#45;&gt;aos_contracts:e</title>
<path fill="none" stroke="#000000" d="M787.5222,-382.9862C752.4601,-393.9237 763.2855,-446.8881 721,-467.9913 603.0408,-526.8606 531.2447,-419.5967 426,-498.9913 384.6892,-530.1554 434.2472,-606.9913 382.5,-606.9913"/>
<polygon fill="#000000" stroke="#000000" points="794.0749,-382.0834 802.4914,-384.5576 798.0374,-381.5374 802,-380.9913 802,-380.9913 802,-380.9913 798.0374,-381.5374 801.5086,-377.425 794.0749,-382.0834 794.0749,-382.0834"/>
<ellipse fill="none" stroke="#000000" cx="790.9048" cy="-382.5202" rx="3.2" ry="3.2"/>
</g>
<!-- notes&#45;&gt;contacts -->
<g id="edge29" class="edge">
<title>notes:w&#45;&gt;contacts:e</title>
<path fill="none" stroke="#000000" d="M787.6512,-379.7221C760.8872,-374.5778 753.48,-355.0752 721,-344.9913 687.6216,-334.6285 137.45,-229.9913 102.5,-229.9913"/>
<polygon fill="#000000" stroke="#000000" points="794.0311,-380.2864 801.6828,-384.5773 798.0156,-380.6388 802,-380.9913 802,-380.9913 802,-380.9913 798.0156,-380.6388 802.3172,-377.4053 794.0311,-380.2864 794.0311,-380.2864"/>
<ellipse fill="none" stroke="#000000" cx="790.8436" cy="-380.0044" rx="3.2" ry="3.2"/>
</g>
<!-- notes&#45;&gt;contacts -->
<g id="edge33" class="edge">
<title>notes:w&#45;&gt;contacts:e</title>
<path fill="none" stroke="#000000" d="M787.48,-379.8222C761.2171,-375.238 752.9396,-358.2851 721,-348.9913 653.8042,-329.4388 172.4826,-229.9913 102.5,-229.9913"/>
<polygon fill="#000000" stroke="#000000" points="794.0258,-380.3492 801.7111,-384.5797 798.0129,-380.6703 802,-380.9913 802,-380.9913 802,-380.9913 798.0129,-380.6703 802.2889,-377.4029 794.0258,-380.3492 794.0258,-380.3492"/>
<ellipse fill="none" stroke="#000000" cx="790.8361" cy="-380.0924" rx="3.2" ry="3.2"/>
</g>
<!-- notes&#45;&gt;accounts -->
<g id="edge30" class="edge">
<title>notes:w&#45;&gt;accounts:e</title>
<path fill="none" stroke="#000000" d="M787.3018,-380.1052C762.2064,-376.8722 752.2684,-365.7062 721,-361.9913 470.7583,-332.2615 405.9887,-357.4462 154,-359.9913 131.9966,-360.2136 126.5045,-360.9913 104.5,-360.9913"/>
<polygon fill="#000000" stroke="#000000" points="794.0145,-380.5099 801.7833,-384.5848 798.0072,-380.7506 802,-380.9913 802,-380.9913 802,-380.9913 798.0072,-380.7506 802.2167,-377.3979 794.0145,-380.5099 794.0145,-380.5099"/>
<ellipse fill="none" stroke="#000000" cx="790.8203" cy="-380.3173" rx="3.2" ry="3.2"/>
</g>
<!-- notes&#45;&gt;opportunities -->
<g id="edge35" class="edge">
<title>notes:w&#45;&gt;opportunities:e</title>
<path fill="none" stroke="#000000" d="M787.4169,-381.886C672.0088,-397.2057 827.973,-605.2104 721,-690.9913 671.8397,-730.4127 205.7929,-738.8838 154,-702.9913 111.8648,-673.7916 164.764,-594.9913 113.5,-594.9913"/>
<polygon fill="#000000" stroke="#000000" points="794.015,-381.4812 802.2205,-384.5846 798.0075,-381.2363 802,-380.9913 802,-380.9913 802,-380.9913 798.0075,-381.2363 801.7795,-377.3981 794.015,-381.4812 794.015,-381.4812"/>
<ellipse fill="none" stroke="#000000" cx="790.821" cy="-381.6772" rx="3.2" ry="3.2"/>
</g>
<!-- notes&#45;&gt;calls -->
<g id="edge32" class="edge">
<title>notes:w&#45;&gt;calls:e</title>
<path fill="none" stroke="#000000" d="M787.3207,-382.1879C714.4822,-395.289 780.5342,-512.8698 721,-580.9913 682.0938,-625.5094 664.6232,-646.9913 605.5,-646.9913"/>
<polygon fill="#000000" stroke="#000000" points="794.0264,-381.6413 802.2925,-384.5794 798.0132,-381.3163 802,-380.9913 802,-380.9913 802,-380.9913 798.0132,-381.3163 801.7075,-377.4032 794.0264,-381.6413 794.0264,-381.6413"/>
<ellipse fill="none" stroke="#000000" cx="790.837" cy="-381.9013" rx="3.2" ry="3.2"/>
</g>
<!-- notes&#45;&gt;meetings -->
<g id="edge34" class="edge">
<title>notes:w&#45;&gt;meetings:e</title>
<path fill="none" stroke="#000000" d="M787.249,-381.2047C716.8669,-383.2921 694.7816,-399.9913 617.5,-399.9913"/>
<polygon fill="#000000" stroke="#000000" points="794.0008,-381.1071 802.0521,-384.5909 798.0004,-381.0492 802,-380.9913 802,-380.9913 802,-380.9913 798.0004,-381.0492 801.9479,-377.3917 794.0008,-381.1071 794.0008,-381.1071"/>
<ellipse fill="none" stroke="#000000" cx="790.8012" cy="-381.1534" rx="3.2" ry="3.2"/>
</g>
<!-- notes&#45;&gt;tasks -->
<g id="edge36" class="edge">
<title>notes:w&#45;&gt;tasks:e</title>
<path fill="none" stroke="#000000" d="M787.2372,-379.3024C752.328,-370.3701 756.2532,-327.9527 721,-298.9913 674.281,-260.6105 667.9628,-223.9913 607.5,-223.9913"/>
<polygon fill="#000000" stroke="#000000" points="794.0518,-380.082 801.5908,-384.568 798.0259,-380.5367 802,-380.9913 802,-380.9913 802,-380.9913 798.0259,-380.5367 802.4092,-377.4147 794.0518,-380.082 794.0518,-380.082"/>
<ellipse fill="none" stroke="#000000" cx="790.8726" cy="-379.7183" rx="3.2" ry="3.2"/>
</g>
<!-- securitygroups_records -->
<g id="node17" class="node">
<title>securitygroups_records</title>
<g id="a_node17"><a xlink:href="../../tables/securitygroups_records.html" xlink:title="securitygroups_records" target="_top">
<polygon fill="#ffffff" stroke="transparent" points="959,-411.4913 959,-472.4913 1116,-472.4913 1116,-411.4913 959,-411.4913"/>
<polygon fill="#f5f5f5" stroke="transparent" points="959.5,-448.9913 959.5,-471.9913 1116.5,-471.9913 1116.5,-448.9913 959.5,-448.9913"/>
<polygon fill="none" stroke="#000000" points="959.5,-448.9913 959.5,-471.9913 1116.5,-471.9913 1116.5,-448.9913 959.5,-448.9913"/>
<text text-anchor="start" x="964.3528" y="-458.0913" font-family="Helvetica,sans-Serif" font-weight="bold" font-size="11.00" fill="#000000">securitygroups_records</text>
<text text-anchor="start" x="1082.0219" y="-457.0913" font-family="Helvetica,sans-Serif" font-size="11.00" fill="#000000">[table]</text>
<polygon fill="none" stroke="#000000" points="959.5,-429.9913 959.5,-448.9913 1116.5,-448.9913 1116.5,-429.9913 959.5,-429.9913"/>
<text text-anchor="start" x="962.5" y="-436.0913" font-family="Helvetica,sans-Serif" font-size="11.00" fill="#000000">...</text>
<polygon fill="#ffffff" stroke="transparent" points="959.5,-410.9913 959.5,-429.9913 1039.5,-429.9913 1039.5,-410.9913 959.5,-410.9913"/>
<polygon fill="none" stroke="#000000" points="959.5,-410.9913 959.5,-429.9913 1039.5,-429.9913 1039.5,-410.9913 959.5,-410.9913"/>
<text text-anchor="start" x="962.5" y="-417.0913" font-family="Helvetica,sans-Serif" font-size="11.00" fill="#000000">&lt; 41</text>
<polygon fill="#ffffff" stroke="transparent" points="1039.5,-410.9913 1039.5,-429.9913 1077.5,-429.9913 1077.5,-410.9913 1039.5,-410.9913"/>
<polygon fill="none" stroke="#000000" points="1039.5,-410.9913 1039.5,-429.9913 1077.5,-429.9913 1077.5,-410.9913 1039.5,-410.9913"/>
<text text-anchor="start" x="1068.3862" y="-417.0913" font-family="Helvetica,sans-Serif" font-size="11.00" fill="#000000"> &#160;</text>
<polygon fill="#ffffff" stroke="transparent" points="1077.5,-410.9913 1077.5,-429.9913 1116.5,-429.9913 1116.5,-410.9913 1077.5,-410.9913"/>
<polygon fill="none" stroke="#000000" points="1077.5,-410.9913 1077.5,-429.9913 1116.5,-429.9913 1116.5,-410.9913 1077.5,-410.9913"/>
<text text-anchor="start" x="1107.3862" y="-417.0913" font-family="Helvetica,sans-Serif" font-size="11.00" fill="#000000"> &#160;</text>
</a>
</g>
</g>
<!-- securitygroups_records&#45;&gt;aos_contracts -->
<g id="edge38" class="edge">
<title>securitygroups_records:w&#45;&gt;aos_contracts:e</title>
<path fill="none" stroke="#000000" d="M944.9384,-439.508C836.1352,-447.4696 833.7797,-545.2574 721,-580.9913 649.08,-603.779 457.9438,-606.9913 382.5,-606.9913"/>
<polygon fill="#000000" stroke="#000000" points="951.505,-439.2751 959.6277,-442.5891 955.5025,-439.1332 959.5,-438.9913 959.5,-438.9913 959.5,-438.9913 955.5025,-439.1332 959.3723,-435.3936 951.505,-439.2751 951.505,-439.2751"/>
<ellipse fill="none" stroke="#000000" cx="948.307" cy="-439.3886" rx="3.2" ry="3.2"/>
</g>
<!-- securitygroups_records&#45;&gt;contacts -->
<g id="edge41" class="edge">
<title>securitygroups_records:w&#45;&gt;contacts:e</title>
<path fill="none" stroke="#000000" d="M945.8305,-434.178C905.1499,-400.1064 957.1973,-195.3966 918,-150.9913 805.322,-23.3423 293.985,3.9355 154,-92.9913 100.5198,-130.0215 167.5489,-229.9913 102.5,-229.9913"/>
<polygon fill="#000000" stroke="#000000" points="951.9541,-436.3343 958.3043,-442.387 955.7271,-437.6628 959.5,-438.9913 959.5,-438.9913 959.5,-438.9913 955.7271,-437.6628 960.6957,-435.5957 951.9541,-436.3343 951.9541,-436.3343"/>
<ellipse fill="none" stroke="#000000" cx="948.9358" cy="-435.2714" rx="3.2" ry="3.2"/>
</g>
<!-- securitygroups_records&#45;&gt;accounts -->
<g id="edge37" class="edge">
<title>securitygroups_records:w&#45;&gt;accounts:e</title>
<path fill="none" stroke="#000000" d="M945.7897,-433.0263C913.9343,-398.9936 952.5056,-229.638 918,-193.9913 855.8613,-129.7978 809.8944,-162.925 721,-153.9913 469.9353,-128.76 346.5219,-19.8796 154,-182.9913 91.3494,-236.0712 186.6131,-360.9913 104.5,-360.9913"/>
<polygon fill="#000000" stroke="#000000" points="952.1642,-435.7997 958.0637,-442.2924 955.8321,-437.3955 959.5,-438.9913 959.5,-438.9913 959.5,-438.9913 955.8321,-437.3955 960.9363,-435.6902 952.1642,-435.7997 952.1642,-435.7997"/>
<ellipse fill="none" stroke="#000000" cx="949.2299" cy="-434.523" rx="3.2" ry="3.2"/>
</g>
<!-- securitygroups_records&#45;&gt;opportunities -->
<g id="edge44" class="edge">
<title>securitygroups_records:w&#45;&gt;opportunities:e</title>
<path fill="none" stroke="#000000" d="M947.1859,-447.0144C902.9528,-512.0991 941.7426,-952.5476 918,-1005.9913 866.5678,-1121.7632 837.4906,-1162.2085 721,-1211.9913 469.0498,-1319.6635 279.4636,-1213.5711 154,-969.9913 115.6191,-895.4772 197.3179,-594.9913 113.5,-594.9913"/>
<polygon fill="#000000" stroke="#000000" points="952.7971,-443.3585 961.4652,-442.0076 956.1486,-441.1749 959.5,-438.9913 959.5,-438.9913 959.5,-438.9913 956.1486,-441.1749 957.5348,-435.975 952.7971,-443.3585 952.7971,-443.3585"/>
<ellipse fill="none" stroke="#000000" cx="950.116" cy="-445.1053" rx="3.2" ry="3.2"/>
</g>
<!-- securitygroups_records&#45;&gt;aos_quotes -->
<g id="edge39" class="edge">
<title>securitygroups_records:w&#45;&gt;aos_quotes:e</title>
<path fill="none" stroke="#000000" d="M948.3565,-448.3253C918.6875,-503.9475 929.722,-790.5613 918,-827.9913 863.4915,-1002.0454 877.9,-1094.9947 721,-1187.9913 664.6061,-1221.4167 475.7575,-1230.673 426,-1187.9913 381.1171,-1149.491 444.6334,-924.9913 385.5,-924.9913"/>
<polygon fill="#000000" stroke="#000000" points="953.3671,-444.1283 961.8116,-441.7511 956.4336,-441.5598 959.5,-438.9913 959.5,-438.9913 959.5,-438.9913 956.4336,-441.5598 957.1884,-436.2315 953.3671,-444.1283 953.3671,-444.1283"/>
<ellipse fill="none" stroke="#000000" cx="950.914" cy="-446.1831" rx="3.2" ry="3.2"/>
</g>
<!-- securitygroups_records&#45;&gt;calls -->
<g id="edge40" class="edge">
<title>securitygroups_records:w&#45;&gt;calls:e</title>
<path fill="none" stroke="#000000" d="M945.2028,-440.8232C896.1791,-455.7506 970.4771,-558.0562 918,-604.9913 813.5458,-698.4144 745.6377,-646.9913 605.5,-646.9913"/>
<polygon fill="#000000" stroke="#000000" points="951.5649,-440.0081 959.9575,-442.5621 955.5324,-439.4997 959.5,-438.9913 959.5,-438.9913 959.5,-438.9913 955.5324,-439.4997 959.0425,-435.4205 951.5649,-440.0081 951.5649,-440.0081"/>
<ellipse fill="none" stroke="#000000" cx="948.3908" cy="-440.4148" rx="3.2" ry="3.2"/>
</g>
<!-- securitygroups_records&#45;&gt;meetings -->
<g id="edge42" class="edge">
<title>securitygroups_records:w&#45;&gt;meetings:e</title>
<path fill="none" stroke="#000000" d="M945.0726,-438.9668C865.2238,-438.6781 839.868,-435.7446 754,-424.9913 692.8022,-417.3275 679.1758,-399.9913 617.5,-399.9913"/>
<polygon fill="#000000" stroke="#000000" points="951.5,-438.9777 959.4938,-442.5913 955.5,-438.9845 959.5,-438.9913 959.5,-438.9913 959.5,-438.9913 955.5,-438.9845 959.5062,-435.3913 951.5,-438.9777 951.5,-438.9777"/>
<ellipse fill="none" stroke="#000000" cx="948.3" cy="-438.9722" rx="3.2" ry="3.2"/>
</g>
<!-- securitygroups_records&#45;&gt;tasks -->
<g id="edge45" class="edge">
<title>securitygroups_records:w&#45;&gt;tasks:e</title>
<path fill="none" stroke="#000000" d="M945.0337,-437.4201C883.7807,-421.975 981.5856,-296.7046 918,-241.9913 813.219,-151.8307 745.7317,-223.9913 607.5,-223.9913"/>
<polygon fill="#000000" stroke="#000000" points="951.5468,-438.1275 959.1113,-442.5703 955.5234,-438.5594 959.5,-438.9913 959.5,-438.9913 959.5,-438.9913 955.5234,-438.5594 959.8887,-435.4124 951.5468,-438.1275 951.5468,-438.1275"/>
<ellipse fill="none" stroke="#000000" cx="948.3655" cy="-437.7819" rx="3.2" ry="3.2"/>
</g>
<!-- securitygroups_records&#45;&gt;notes -->
<g id="edge43" class="edge">
<title>securitygroups_records:w&#45;&gt;notes:e</title>
<path fill="none" stroke="#000000" d="M944.9639,-436.7885C913.0522,-426.1941 912.5166,-380.9913 871,-380.9913"/>
<polygon fill="#000000" stroke="#000000" points="951.5903,-437.7926 958.9606,-442.5507 955.5452,-438.392 959.5,-438.9913 959.5,-438.9913 959.5,-438.9913 955.5452,-438.392 960.0394,-435.432 951.5903,-437.7926 951.5903,-437.7926"/>
<ellipse fill="none" stroke="#000000" cx="948.4264" cy="-437.3131" rx="3.2" ry="3.2"/>
</g>
</g>
</svg>
