<?xml version="1.0" encoding="UTF-8" standalone="no"?>
<!DOCTYPE svg PUBLIC "-//W3C//DTD SVG 1.1//EN"
 "http://www.w3.org/Graphics/SVG/1.1/DTD/svg11.dtd">
<!-- Generated by graphviz version 2.40.1 (20161225.0304)
 -->
<!-- Title: oneDegreeRelationshipsDiagram Pages: 1 -->
<svg width="1038pt" height="488pt"
 viewBox="0.00 0.00 1038.00 487.70" xmlns="http://www.w3.org/2000/svg" xmlns:xlink="http://www.w3.org/1999/xlink">
<g id="graph0" class="graph" transform="scale(1 1) rotate(0) translate(4 483.7)">
<title>oneDegreeRelationshipsDiagram</title>
<polygon fill="#ffffff" stroke="transparent" points="-4,4 -4,-483.7 1034,-483.7 1034,4 -4,4"/>
<text text-anchor="middle" x="72.4936" y="-7.3" font-family="Helvetica,sans-Serif" font-size="11.00" fill="#000000">Generated by SchemaSpy</text>
<!-- aos_product_categories -->
<g id="node1" class="node">
<title>aos_product_categories</title>
<g id="a_node1"><a xlink:href="../../tables/aos_product_categories.html" xlink:title="aos_product_categories" target="_top">
<polygon fill="#ffffff" stroke="transparent" points="273,-38.2 273,-326.2 524,-326.2 524,-38.2 273,-38.2"/>
<polygon fill="#f5f5f5" stroke="transparent" points="275.5,-301.2 275.5,-324.2 522.5,-324.2 522.5,-301.2 275.5,-301.2"/>
<polygon fill="none" stroke="#000000" points="275.5,-301.2 275.5,-324.2 522.5,-324.2 522.5,-301.2 275.5,-301.2"/>
<text text-anchor="start" x="280.5" y="-310.3" font-family="Helvetica,sans-Serif" font-weight="bold" font-size="11.00" fill="#000000">aos_product_categories</text>
<text text-anchor="start" x="487.5437" y="-309.3" font-family="Helvetica,sans-Serif" font-size="11.00" fill="#000000">[table]</text>
<polygon fill="none" stroke="#000000" points="275.5,-279.2 275.5,-301.2 455.5,-301.2 455.5,-279.2 275.5,-279.2"/>
<image xlink:href="../../images/primaryKeys.png" width="11px" height="12px" preserveAspectRatio="xMinYMin meet" x="280.5" y="-296.2"/>
<text text-anchor="start" x="295.5" y="-286.3" font-family="Helvetica,sans-Serif" font-size="11.00" fill="#000000">id</text>
<polygon fill="none" stroke="#000000" points="455.5,-279.2 455.5,-301.2 522.5,-301.2 522.5,-279.2 455.5,-279.2"/>
<text text-anchor="start" x="458.5" y="-286.9" font-family="Helvetica,sans-Serif" font-size="11.00" fill="#000000">char[36]</text>
<polygon fill="none" stroke="#000000" points="275.5,-257.2 275.5,-279.2 455.5,-279.2 455.5,-257.2 275.5,-257.2"/>
<text text-anchor="start" x="295.5" y="-264.3" font-family="Helvetica,sans-Serif" font-size="11.00" fill="#000000">name</text>
<polygon fill="none" stroke="#000000" points="455.5,-257.2 455.5,-279.2 522.5,-279.2 522.5,-257.2 455.5,-257.2"/>
<text text-anchor="start" x="458.4365" y="-264.9" font-family="Helvetica,sans-Serif" font-size="11.00" fill="#000000">varchar[255]</text>
<polygon fill="none" stroke="#000000" points="275.5,-235.2 275.5,-257.2 455.5,-257.2 455.5,-235.2 275.5,-235.2"/>
<text text-anchor="start" x="295.5" y="-242.3" font-family="Helvetica,sans-Serif" font-size="11.00" fill="#000000">date_entered</text>
<polygon fill="none" stroke="#000000" points="455.5,-235.2 455.5,-257.2 522.5,-257.2 522.5,-235.2 455.5,-235.2"/>
<text text-anchor="start" x="458.5" y="-242.9" font-family="Helvetica,sans-Serif" font-size="11.00" fill="#000000">datetime[26]</text>
<polygon fill="none" stroke="#000000" points="275.5,-213.2 275.5,-235.2 455.5,-235.2 455.5,-213.2 275.5,-213.2"/>
<text text-anchor="start" x="295.5" y="-220.3" font-family="Helvetica,sans-Serif" font-size="11.00" fill="#000000">date_modified</text>
<polygon fill="none" stroke="#000000" points="455.5,-213.2 455.5,-235.2 522.5,-235.2 522.5,-213.2 455.5,-213.2"/>
<text text-anchor="start" x="458.5" y="-220.9" font-family="Helvetica,sans-Serif" font-size="11.00" fill="#000000">datetime[26]</text>
<polygon fill="none" stroke="#000000" points="275.5,-191.2 275.5,-213.2 455.5,-213.2 455.5,-191.2 275.5,-191.2"/>
<image xlink:href="../../images/foreignKeys.png" width="11px" height="12px" preserveAspectRatio="xMinYMin meet" x="280.5" y="-208.2"/>
<text text-anchor="start" x="295.5" y="-198.3" font-family="Helvetica,sans-Serif" font-size="11.00" fill="#000000">modified_user_id</text>
<polygon fill="none" stroke="#000000" points="455.5,-191.2 455.5,-213.2 522.5,-213.2 522.5,-191.2 455.5,-191.2"/>
<text text-anchor="start" x="458.5" y="-198.9" font-family="Helvetica,sans-Serif" font-size="11.00" fill="#000000">char[36]</text>
<polygon fill="none" stroke="#000000" points="275.5,-169.2 275.5,-191.2 455.5,-191.2 455.5,-169.2 275.5,-169.2"/>
<image xlink:href="../../images/foreignKeys.png" width="11px" height="12px" preserveAspectRatio="xMinYMin meet" x="280.5" y="-186.2"/>
<text text-anchor="start" x="295.5" y="-176.3" font-family="Helvetica,sans-Serif" font-size="11.00" fill="#000000">created_by</text>
<polygon fill="none" stroke="#000000" points="455.5,-169.2 455.5,-191.2 522.5,-191.2 522.5,-169.2 455.5,-169.2"/>
<text text-anchor="start" x="458.5" y="-176.9" font-family="Helvetica,sans-Serif" font-size="11.00" fill="#000000">char[36]</text>
<polygon fill="none" stroke="#000000" points="275.5,-147.2 275.5,-169.2 455.5,-169.2 455.5,-147.2 275.5,-147.2"/>
<text text-anchor="start" x="295.5" y="-154.3" font-family="Helvetica,sans-Serif" font-size="11.00" fill="#000000">description</text>
<polygon fill="none" stroke="#000000" points="455.5,-147.2 455.5,-169.2 522.5,-169.2 522.5,-147.2 455.5,-147.2"/>
<text text-anchor="start" x="458.5" y="-154.9" font-family="Helvetica,sans-Serif" font-size="11.00" fill="#000000">text[65535]</text>
<polygon fill="none" stroke="#000000" points="275.5,-125.2 275.5,-147.2 455.5,-147.2 455.5,-125.2 275.5,-125.2"/>
<text text-anchor="start" x="295.5" y="-132.3" font-family="Helvetica,sans-Serif" font-size="11.00" fill="#000000">deleted</text>
<polygon fill="none" stroke="#000000" points="455.5,-125.2 455.5,-147.2 522.5,-147.2 522.5,-125.2 455.5,-125.2"/>
<text text-anchor="start" x="458.5" y="-132.9" font-family="Helvetica,sans-Serif" font-size="11.00" fill="#000000">bit[1]</text>
<polygon fill="none" stroke="#000000" points="275.5,-103.2 275.5,-125.2 455.5,-125.2 455.5,-103.2 275.5,-103.2"/>
<image xlink:href="../../images/foreignKeys.png" width="11px" height="12px" preserveAspectRatio="xMinYMin meet" x="280.5" y="-120.2"/>
<text text-anchor="start" x="295.5" y="-110.3" font-family="Helvetica,sans-Serif" font-size="11.00" fill="#000000">assigned_user_id</text>
<polygon fill="none" stroke="#000000" points="455.5,-103.2 455.5,-125.2 522.5,-125.2 522.5,-103.2 455.5,-103.2"/>
<text text-anchor="start" x="458.5" y="-110.9" font-family="Helvetica,sans-Serif" font-size="11.00" fill="#000000">char[36]</text>
<polygon fill="none" stroke="#000000" points="275.5,-81.2 275.5,-103.2 455.5,-103.2 455.5,-81.2 275.5,-81.2"/>
<text text-anchor="start" x="295.5" y="-88.3" font-family="Helvetica,sans-Serif" font-size="11.00" fill="#000000">is_parent</text>
<polygon fill="none" stroke="#000000" points="455.5,-81.2 455.5,-103.2 522.5,-103.2 522.5,-81.2 455.5,-81.2"/>
<text text-anchor="start" x="458.5" y="-88.9" font-family="Helvetica,sans-Serif" font-size="11.00" fill="#000000">bit[1]</text>
<polygon fill="none" stroke="#000000" points="275.5,-59.2 275.5,-81.2 455.5,-81.2 455.5,-59.2 275.5,-59.2"/>
<image xlink:href="../../images/foreignKeys.png" width="11px" height="12px" preserveAspectRatio="xMinYMin meet" x="280.5" y="-76.2"/>
<text text-anchor="start" x="295.5" y="-66.3" font-family="Helvetica,sans-Serif" font-size="11.00" fill="#000000">parent_category_id</text>
<polygon fill="none" stroke="#000000" points="455.5,-59.2 455.5,-81.2 522.5,-81.2 522.5,-59.2 455.5,-59.2"/>
<text text-anchor="start" x="458.5" y="-66.9" font-family="Helvetica,sans-Serif" font-size="11.00" fill="#000000">char[36]</text>
<polygon fill="#ffffff" stroke="transparent" points="275.5,-40.2 275.5,-59.2 369.5,-59.2 369.5,-40.2 275.5,-40.2"/>
<polygon fill="none" stroke="#000000" points="275.5,-40.2 275.5,-59.2 369.5,-59.2 369.5,-40.2 275.5,-40.2"/>
<text text-anchor="start" x="278.5" y="-46.3" font-family="Helvetica,sans-Serif" font-size="11.00" fill="#000000">&lt; 4</text>
<polygon fill="#ffffff" stroke="transparent" points="369.5,-40.2 369.5,-59.2 455.5,-59.2 455.5,-40.2 369.5,-40.2"/>
<polygon fill="none" stroke="#000000" points="369.5,-40.2 369.5,-59.2 455.5,-59.2 455.5,-40.2 369.5,-40.2"/>
<text text-anchor="start" x="446.3862" y="-46.3" font-family="Helvetica,sans-Serif" font-size="11.00" fill="#000000"> &#160;</text>
<polygon fill="#ffffff" stroke="transparent" points="455.5,-40.2 455.5,-59.2 522.5,-59.2 522.5,-40.2 455.5,-40.2"/>
<polygon fill="none" stroke="#000000" points="455.5,-40.2 455.5,-59.2 522.5,-59.2 522.5,-40.2 455.5,-40.2"/>
<text text-anchor="start" x="503.9053" y="-46.3" font-family="Helvetica,sans-Serif" font-size="11.00" fill="#000000">4 &gt;</text>
<polygon fill="none" stroke="#000000" stroke-width="2" points="274,-39.2 274,-325.2 523,-325.2 523,-39.2 274,-39.2"/>
</a>
</g>
</g>
<!-- aos_product_categories&#45;&gt;aos_product_categories -->
<g id="edge4" class="edge">
<title>aos_product_categories:w&#45;&gt;aos_product_categories:e</title>
<path fill="none" stroke="#000000" d="M264.953,-80.0159C205.5395,-146.3895 215.2305,-343.2 399,-343.2 593,-343.2 593,-334.5333 522.5,-290.2"/>
<polygon fill="#000000" stroke="#000000" points="269.6438,-75.6502 277.9526,-72.8353 272.5719,-72.9251 275.5,-70.2 275.5,-70.2 275.5,-70.2 272.5719,-72.9251 273.0474,-67.5647 269.6438,-75.6502 269.6438,-75.6502"/>
<ellipse fill="none" stroke="#000000" cx="267.3013" cy="-77.8303" rx="3.2" ry="3.2"/>
</g>
<!-- users -->
<g id="node2" class="node">
<title>users</title>
<g id="a_node2"><a xlink:href="../../tables/users.html" xlink:title="users" target="_top">
<polygon fill="#ffffff" stroke="transparent" points="8,-104.7 8,-319.7 224,-319.7 224,-104.7 8,-104.7"/>
<polygon fill="#f5f5f5" stroke="transparent" points="8,-296.2 8,-319.2 224,-319.2 224,-296.2 8,-296.2"/>
<polygon fill="none" stroke="#000000" points="8,-296.2 8,-319.2 224,-319.2 224,-296.2 8,-296.2"/>
<text text-anchor="start" x="13" y="-305.3" font-family="Helvetica,sans-Serif" font-weight="bold" font-size="11.00" fill="#000000">users</text>
<text text-anchor="start" x="189.0437" y="-304.3" font-family="Helvetica,sans-Serif" font-size="11.00" fill="#000000">[table]</text>
<polygon fill="none" stroke="#000000" points="8,-274.2 8,-296.2 224,-296.2 224,-274.2 8,-274.2"/>
<image xlink:href="../../images/primaryKeys.png" width="11px" height="12px" preserveAspectRatio="xMinYMin meet" x="13" y="-291.2"/>
<text text-anchor="start" x="28" y="-281.3" font-family="Helvetica,sans-Serif" font-size="11.00" fill="#000000">id</text>
<polygon fill="#ffffff" stroke="transparent" points="8,-252.2 8,-274.2 224,-274.2 224,-252.2 8,-252.2"/>
<polygon fill="none" stroke="#000000" points="8,-252.2 8,-274.2 224,-274.2 224,-252.2 8,-252.2"/>
<text text-anchor="start" x="28" y="-259.3" font-family="Helvetica,sans-Serif" font-size="11.00" fill="#000000">user_name</text>
<polygon fill="#ffffff" stroke="transparent" points="8,-230.2 8,-252.2 224,-252.2 224,-230.2 8,-230.2"/>
<polygon fill="none" stroke="#000000" points="8,-230.2 8,-252.2 224,-252.2 224,-230.2 8,-230.2"/>
<text text-anchor="start" x="28" y="-237.3" font-family="Helvetica,sans-Serif" font-size="11.00" fill="#000000">first_name</text>
<polygon fill="#ffffff" stroke="transparent" points="8,-208.2 8,-230.2 224,-230.2 224,-208.2 8,-208.2"/>
<polygon fill="none" stroke="#000000" points="8,-208.2 8,-230.2 224,-230.2 224,-208.2 8,-208.2"/>
<text text-anchor="start" x="28" y="-215.3" font-family="Helvetica,sans-Serif" font-size="11.00" fill="#000000">last_name</text>
<polygon fill="#ffffff" stroke="transparent" points="8,-186.2 8,-208.2 224,-208.2 224,-186.2 8,-186.2"/>
<polygon fill="none" stroke="#000000" points="8,-186.2 8,-208.2 224,-208.2 224,-186.2 8,-186.2"/>
<text text-anchor="start" x="28" y="-193.3" font-family="Helvetica,sans-Serif" font-size="11.00" fill="#000000">status</text>
<polygon fill="#c0c0c0" stroke="transparent" points="8,-164.2 8,-186.2 224,-186.2 224,-164.2 8,-164.2"/>
<polygon fill="none" stroke="#000000" points="8,-164.2 8,-186.2 224,-186.2 224,-164.2 8,-164.2"/>
<image xlink:href="../../images/foreignKeys.png" width="11px" height="12px" preserveAspectRatio="xMinYMin meet" x="13" y="-181.2"/>
<text text-anchor="start" x="28" y="-171.3" font-family="Helvetica,sans-Serif" font-size="11.00" fill="#000000">reports_to_id</text>
<polygon fill="#ffffff" stroke="transparent" points="8,-142.2 8,-164.2 224,-164.2 224,-142.2 8,-142.2"/>
<polygon fill="none" stroke="#000000" points="8,-142.2 8,-164.2 224,-164.2 224,-142.2 8,-142.2"/>
<text text-anchor="start" x="28" y="-149.3" font-family="Helvetica,sans-Serif" font-size="11.00" fill="#000000">is_group</text>
<polygon fill="none" stroke="#000000" points="8,-123.2 8,-142.2 224,-142.2 224,-123.2 8,-123.2"/>
<text text-anchor="start" x="11" y="-129.3" font-family="Helvetica,sans-Serif" font-size="11.00" fill="#000000">...</text>
<polygon fill="#ffffff" stroke="transparent" points="8,-104.2 8,-123.2 104,-123.2 104,-104.2 8,-104.2"/>
<polygon fill="none" stroke="#000000" points="8,-104.2 8,-123.2 104,-123.2 104,-104.2 8,-104.2"/>
<text text-anchor="start" x="11" y="-110.3" font-family="Helvetica,sans-Serif" font-size="11.00" fill="#000000">&lt; 2</text>
<polygon fill="#ffffff" stroke="transparent" points="104,-104.2 104,-123.2 153,-123.2 153,-104.2 104,-104.2"/>
<polygon fill="none" stroke="#000000" points="104,-104.2 104,-123.2 153,-123.2 153,-104.2 104,-104.2"/>
<text text-anchor="start" x="143.8862" y="-110.3" font-family="Helvetica,sans-Serif" font-size="11.00" fill="#000000"> &#160;</text>
<polygon fill="#ffffff" stroke="transparent" points="153,-104.2 153,-123.2 224,-123.2 224,-104.2 153,-104.2"/>
<polygon fill="none" stroke="#000000" points="153,-104.2 153,-123.2 224,-123.2 224,-104.2 153,-104.2"/>
<text text-anchor="start" x="193.1755" y="-110.3" font-family="Helvetica,sans-Serif" font-size="11.00" fill="#000000">214 &gt;</text>
</a>
</g>
</g>
<!-- aos_product_categories&#45;&gt;users -->
<g id="edge1" class="edge">
<title>aos_product_categories:w&#45;&gt;users:e</title>
<path fill="none" stroke="#000000" d="M261.0753,-116.75C210.6536,-138.0218 297.6361,-285.2 224,-285.2"/>
<polygon fill="#000000" stroke="#000000" points="267.6221,-115.5927 276.1267,-117.745 271.5611,-114.8963 275.5,-114.2 275.5,-114.2 275.5,-114.2 271.5611,-114.8963 274.8733,-110.655 267.6221,-115.5927 267.6221,-115.5927"/>
<ellipse fill="none" stroke="#000000" cx="264.471" cy="-116.1498" rx="3.2" ry="3.2"/>
</g>
<!-- aos_product_categories&#45;&gt;users -->
<g id="edge2" class="edge">
<title>aos_product_categories:w&#45;&gt;users:e</title>
<path fill="none" stroke="#000000" d="M261.5525,-183.937C234.0666,-202.6416 270.0896,-285.2 224,-285.2"/>
<polygon fill="#000000" stroke="#000000" points="267.7726,-182.2705 276.4317,-183.6773 271.6363,-181.2352 275.5,-180.2 275.5,-180.2 275.5,-180.2 271.6363,-181.2352 274.5683,-176.7227 267.7726,-182.2705 267.7726,-182.2705"/>
<ellipse fill="none" stroke="#000000" cx="264.6816" cy="-183.0987" rx="3.2" ry="3.2"/>
</g>
<!-- aos_product_categories&#45;&gt;users -->
<g id="edge3" class="edge">
<title>aos_product_categories:w&#45;&gt;users:e</title>
<path fill="none" stroke="#000000" d="M261.7068,-206.4301C240.2746,-223.3439 261.4777,-285.2 224,-285.2"/>
<polygon fill="#000000" stroke="#000000" points="267.8516,-204.5456 276.5555,-205.6418 271.6758,-203.3728 275.5,-202.2 275.5,-202.2 275.5,-202.2 271.6758,-203.3728 274.4445,-198.7582 267.8516,-204.5456 267.8516,-204.5456"/>
<ellipse fill="none" stroke="#000000" cx="264.7922" cy="-205.4839" rx="3.2" ry="3.2"/>
</g>
<!-- aos_product_categories_audit -->
<g id="node3" class="node">
<title>aos_product_categories_audit</title>
<g id="a_node3"><a xlink:href="../../tables/aos_product_categories_audit.html" xlink:title="aos_product_categories_audit" target="_top">
<polygon fill="#ffffff" stroke="transparent" points="573,-178.7 573,-283.7 794,-283.7 794,-178.7 573,-178.7"/>
<polygon fill="#f5f5f5" stroke="transparent" points="573.5,-260.2 573.5,-283.2 794.5,-283.2 794.5,-260.2 573.5,-260.2"/>
<polygon fill="none" stroke="#000000" points="573.5,-260.2 573.5,-283.2 794.5,-283.2 794.5,-260.2 573.5,-260.2"/>
<text text-anchor="start" x="578.5" y="-269.3" font-family="Helvetica,sans-Serif" font-weight="bold" font-size="11.00" fill="#000000">aos_product_categories_audit</text>
<text text-anchor="start" x="759.5437" y="-268.3" font-family="Helvetica,sans-Serif" font-size="11.00" fill="#000000">[table]</text>
<polygon fill="none" stroke="#000000" points="573.5,-238.2 573.5,-260.2 794.5,-260.2 794.5,-238.2 573.5,-238.2"/>
<image xlink:href="../../images/primaryKeys.png" width="11px" height="12px" preserveAspectRatio="xMinYMin meet" x="578.5" y="-255.2"/>
<text text-anchor="start" x="593.5" y="-245.3" font-family="Helvetica,sans-Serif" font-size="11.00" fill="#000000">id</text>
<polygon fill="#c0c0c0" stroke="transparent" points="573.5,-216.2 573.5,-238.2 794.5,-238.2 794.5,-216.2 573.5,-216.2"/>
<polygon fill="none" stroke="#000000" points="573.5,-216.2 573.5,-238.2 794.5,-238.2 794.5,-216.2 573.5,-216.2"/>
<image xlink:href="../../images/foreignKeys.png" width="11px" height="12px" preserveAspectRatio="xMinYMin meet" x="578.5" y="-233.2"/>
<text text-anchor="start" x="593.5" y="-223.3" font-family="Helvetica,sans-Serif" font-size="11.00" fill="#000000">parent_id</text>
<polygon fill="none" stroke="#000000" points="573.5,-197.2 573.5,-216.2 794.5,-216.2 794.5,-197.2 573.5,-197.2"/>
<text text-anchor="start" x="576.5" y="-203.3" font-family="Helvetica,sans-Serif" font-size="11.00" fill="#000000">...</text>
<polygon fill="#ffffff" stroke="transparent" points="573.5,-178.2 573.5,-197.2 682.5,-197.2 682.5,-178.2 573.5,-178.2"/>
<polygon fill="none" stroke="#000000" points="573.5,-178.2 573.5,-197.2 682.5,-197.2 682.5,-178.2 573.5,-178.2"/>
<text text-anchor="start" x="576.5" y="-184.3" font-family="Helvetica,sans-Serif" font-size="11.00" fill="#000000">&lt; 1</text>
<polygon fill="#ffffff" stroke="transparent" points="682.5,-178.2 682.5,-197.2 738.5,-197.2 738.5,-178.2 682.5,-178.2"/>
<polygon fill="none" stroke="#000000" points="682.5,-178.2 682.5,-197.2 738.5,-197.2 738.5,-178.2 682.5,-178.2"/>
<text text-anchor="start" x="729.3862" y="-184.3" font-family="Helvetica,sans-Serif" font-size="11.00" fill="#000000"> &#160;</text>
<polygon fill="#ffffff" stroke="transparent" points="738.5,-178.2 738.5,-197.2 794.5,-197.2 794.5,-178.2 738.5,-178.2"/>
<polygon fill="none" stroke="#000000" points="738.5,-178.2 738.5,-197.2 794.5,-197.2 794.5,-178.2 738.5,-178.2"/>
<text text-anchor="start" x="785.3862" y="-184.3" font-family="Helvetica,sans-Serif" font-size="11.00" fill="#000000"> &#160;</text>
</a>
</g>
</g>
<!-- aos_product_categories_audit&#45;&gt;aos_product_categories -->
<g id="edge5" class="edge">
<title>aos_product_categories_audit:w&#45;&gt;aos_product_categories:e</title>
<path fill="none" stroke="#000000" d="M559.4033,-232.1435C543.025,-246.9952 552.3329,-290.2 522.5,-290.2"/>
<polygon fill="#000000" stroke="#000000" points="565.9507,-229.8474 574.6913,-230.5972 569.7254,-228.5237 573.5,-227.2 573.5,-227.2 573.5,-227.2 569.7254,-228.5237 572.3087,-223.8028 565.9507,-229.8474 565.9507,-229.8474"/>
<ellipse fill="none" stroke="#000000" cx="562.931" cy="-230.9064" rx="3.2" ry="3.2"/>
</g>
<!-- aos_products -->
<g id="node4" class="node">
<title>aos_products</title>
<g id="a_node4"><a xlink:href="../../tables/aos_products.html" xlink:title="aos_products" target="_top">
<polygon fill="#ffffff" stroke="transparent" points="590,-304.7 590,-475.7 777,-475.7 777,-304.7 590,-304.7"/>
<polygon fill="#f5f5f5" stroke="transparent" points="590.5,-452.2 590.5,-475.2 777.5,-475.2 777.5,-452.2 590.5,-452.2"/>
<polygon fill="none" stroke="#000000" points="590.5,-452.2 590.5,-475.2 777.5,-475.2 777.5,-452.2 590.5,-452.2"/>
<text text-anchor="start" x="595.5" y="-461.3" font-family="Helvetica,sans-Serif" font-weight="bold" font-size="11.00" fill="#000000">aos_products</text>
<text text-anchor="start" x="742.5437" y="-460.3" font-family="Helvetica,sans-Serif" font-size="11.00" fill="#000000">[table]</text>
<polygon fill="none" stroke="#000000" points="590.5,-430.2 590.5,-452.2 777.5,-452.2 777.5,-430.2 590.5,-430.2"/>
<image xlink:href="../../images/primaryKeys.png" width="11px" height="12px" preserveAspectRatio="xMinYMin meet" x="595.5" y="-447.2"/>
<text text-anchor="start" x="610.5" y="-437.3" font-family="Helvetica,sans-Serif" font-size="11.00" fill="#000000">id</text>
<polygon fill="#c0c0c0" stroke="transparent" points="590.5,-408.2 590.5,-430.2 777.5,-430.2 777.5,-408.2 590.5,-408.2"/>
<polygon fill="none" stroke="#000000" points="590.5,-408.2 590.5,-430.2 777.5,-430.2 777.5,-408.2 590.5,-408.2"/>
<image xlink:href="../../images/foreignKeys.png" width="11px" height="12px" preserveAspectRatio="xMinYMin meet" x="595.5" y="-425.2"/>
<text text-anchor="start" x="610.5" y="-415.3" font-family="Helvetica,sans-Serif" font-size="11.00" fill="#000000">modified_user_id</text>
<polygon fill="#c0c0c0" stroke="transparent" points="590.5,-386.2 590.5,-408.2 777.5,-408.2 777.5,-386.2 590.5,-386.2"/>
<polygon fill="none" stroke="#000000" points="590.5,-386.2 590.5,-408.2 777.5,-408.2 777.5,-386.2 590.5,-386.2"/>
<image xlink:href="../../images/foreignKeys.png" width="11px" height="12px" preserveAspectRatio="xMinYMin meet" x="595.5" y="-403.2"/>
<text text-anchor="start" x="610.5" y="-393.3" font-family="Helvetica,sans-Serif" font-size="11.00" fill="#000000">created_by</text>
<polygon fill="#c0c0c0" stroke="transparent" points="590.5,-364.2 590.5,-386.2 777.5,-386.2 777.5,-364.2 590.5,-364.2"/>
<polygon fill="none" stroke="#000000" points="590.5,-364.2 590.5,-386.2 777.5,-386.2 777.5,-364.2 590.5,-364.2"/>
<image xlink:href="../../images/foreignKeys.png" width="11px" height="12px" preserveAspectRatio="xMinYMin meet" x="595.5" y="-381.2"/>
<text text-anchor="start" x="610.5" y="-371.3" font-family="Helvetica,sans-Serif" font-size="11.00" fill="#000000">assigned_user_id</text>
<polygon fill="none" stroke="#000000" points="590.5,-342.2 590.5,-364.2 777.5,-364.2 777.5,-342.2 590.5,-342.2"/>
<image xlink:href="../../images/foreignKeys.png" width="11px" height="12px" preserveAspectRatio="xMinYMin meet" x="595.5" y="-359.2"/>
<text text-anchor="start" x="610.5" y="-349.3" font-family="Helvetica,sans-Serif" font-size="11.00" fill="#000000">aos_product_category_id</text>
<polygon fill="none" stroke="#000000" points="590.5,-323.2 590.5,-342.2 777.5,-342.2 777.5,-323.2 590.5,-323.2"/>
<text text-anchor="start" x="593.5" y="-329.3" font-family="Helvetica,sans-Serif" font-size="11.00" fill="#000000">...</text>
<polygon fill="#ffffff" stroke="transparent" points="590.5,-304.2 590.5,-323.2 677.5,-323.2 677.5,-304.2 590.5,-304.2"/>
<polygon fill="none" stroke="#000000" points="590.5,-304.2 590.5,-323.2 677.5,-323.2 677.5,-304.2 590.5,-304.2"/>
<text text-anchor="start" x="593.5" y="-310.3" font-family="Helvetica,sans-Serif" font-size="11.00" fill="#000000">&lt; 4</text>
<polygon fill="#ffffff" stroke="transparent" points="677.5,-304.2 677.5,-323.2 722.5,-323.2 722.5,-304.2 677.5,-304.2"/>
<polygon fill="none" stroke="#000000" points="677.5,-304.2 677.5,-323.2 722.5,-323.2 722.5,-304.2 677.5,-304.2"/>
<text text-anchor="start" x="713.3862" y="-310.3" font-family="Helvetica,sans-Serif" font-size="11.00" fill="#000000"> &#160;</text>
<polygon fill="#ffffff" stroke="transparent" points="722.5,-304.2 722.5,-323.2 777.5,-323.2 777.5,-304.2 722.5,-304.2"/>
<polygon fill="none" stroke="#000000" points="722.5,-304.2 722.5,-323.2 777.5,-323.2 777.5,-304.2 722.5,-304.2"/>
<text text-anchor="start" x="758.9053" y="-310.3" font-family="Helvetica,sans-Serif" font-size="11.00" fill="#000000">3 &gt;</text>
</a>
</g>
</g>
<!-- aos_products&#45;&gt;aos_product_categories -->
<g id="edge6" class="edge">
<title>aos_products:w&#45;&gt;aos_product_categories:e</title>
<path fill="none" stroke="#000000" d="M576.4354,-349.9892C552.1986,-337.151 558.0666,-290.2 522.5,-290.2"/>
<polygon fill="#000000" stroke="#000000" points="582.7007,-351.4195 589.6988,-356.7097 586.6003,-352.3097 590.5,-353.2 590.5,-353.2 590.5,-353.2 586.6003,-352.3097 591.3012,-349.6903 582.7007,-351.4195 582.7007,-351.4195"/>
<ellipse fill="none" stroke="#000000" cx="579.5809" cy="-350.7072" rx="3.2" ry="3.2"/>
</g>
<!-- aos_products&#45;&gt;users -->
<g id="edge7" class="edge">
<title>aos_products:w&#45;&gt;users:e</title>
<path fill="none" stroke="#000000" d="M576.0849,-375.381C495.3409,-377.1688 323.0003,-390.8527 265,-355.2 234.2842,-336.3191 260.0548,-285.2 224,-285.2"/>
<polygon fill="#000000" stroke="#000000" points="582.5006,-375.3005 590.5452,-378.7997 586.5003,-375.2503 590.5,-375.2 590.5,-375.2 590.5,-375.2 586.5003,-375.2503 590.4548,-371.6003 582.5006,-375.3005 582.5006,-375.3005"/>
<ellipse fill="none" stroke="#000000" cx="579.3009" cy="-375.3407" rx="3.2" ry="3.2"/>
</g>
<!-- aos_products&#45;&gt;users -->
<g id="edge8" class="edge">
<title>aos_products:w&#45;&gt;users:e</title>
<path fill="none" stroke="#000000" d="M576.0622,-397.4157C495.0915,-399.5504 320.9407,-416.0044 265,-377.2 228.2176,-351.6852 268.7655,-285.2 224,-285.2"/>
<polygon fill="#000000" stroke="#000000" points="582.5009,-397.3196 590.5538,-400.7996 586.5004,-397.2598 590.5,-397.2 590.5,-397.2 590.5,-397.2 586.5004,-397.2598 590.4462,-393.6004 582.5009,-397.3196 582.5009,-397.3196"/>
<ellipse fill="none" stroke="#000000" cx="579.3012" cy="-397.3674" rx="3.2" ry="3.2"/>
</g>
<!-- aos_products&#45;&gt;users -->
<g id="edge9" class="edge">
<title>aos_products:w&#45;&gt;users:e</title>
<path fill="none" stroke="#000000" d="M575.9143,-419.4259C441.0841,-423.5974 376.9919,-483.1866 265,-399.2 221.9236,-366.8955 277.8439,-285.2 224,-285.2"/>
<polygon fill="#000000" stroke="#000000" points="582.501,-419.3239 590.5558,-422.7996 586.5005,-419.262 590.5,-419.2 590.5,-419.2 590.5,-419.2 586.5005,-419.262 590.4442,-415.6004 582.501,-419.3239 582.501,-419.3239"/>
<ellipse fill="none" stroke="#000000" cx="579.3013" cy="-419.3735" rx="3.2" ry="3.2"/>
</g>
<!-- securitygroups_records -->
<g id="node5" class="node">
<title>securitygroups_records</title>
<g id="a_node5"><a xlink:href="../../tables/securitygroups_records.html" xlink:title="securitygroups_records" target="_top">
<polygon fill="#ffffff" stroke="transparent" points="843,-204.7 843,-375.7 1022,-375.7 1022,-204.7 843,-204.7"/>
<polygon fill="#f5f5f5" stroke="transparent" points="843.5,-352.2 843.5,-375.2 1022.5,-375.2 1022.5,-352.2 843.5,-352.2"/>
<polygon fill="none" stroke="#000000" points="843.5,-352.2 843.5,-375.2 1022.5,-375.2 1022.5,-352.2 843.5,-352.2"/>
<text text-anchor="start" x="848.5" y="-361.3" font-family="Helvetica,sans-Serif" font-weight="bold" font-size="11.00" fill="#000000">securitygroups_records</text>
<text text-anchor="start" x="987.5437" y="-360.3" font-family="Helvetica,sans-Serif" font-size="11.00" fill="#000000">[table]</text>
<polygon fill="none" stroke="#000000" points="843.5,-330.2 843.5,-352.2 1022.5,-352.2 1022.5,-330.2 843.5,-330.2"/>
<image xlink:href="../../images/primaryKeys.png" width="11px" height="12px" preserveAspectRatio="xMinYMin meet" x="848.5" y="-347.2"/>
<text text-anchor="start" x="863.5" y="-337.3" font-family="Helvetica,sans-Serif" font-size="11.00" fill="#000000">id</text>
<polygon fill="#ffffff" stroke="transparent" points="843.5,-308.2 843.5,-330.2 1022.5,-330.2 1022.5,-308.2 843.5,-308.2"/>
<polygon fill="none" stroke="#000000" points="843.5,-308.2 843.5,-330.2 1022.5,-330.2 1022.5,-308.2 843.5,-308.2"/>
<image xlink:href="../../images/foreignKeys.png" width="11px" height="12px" preserveAspectRatio="xMinYMin meet" x="848.5" y="-325.2"/>
<text text-anchor="start" x="863.5" y="-315.3" font-family="Helvetica,sans-Serif" font-size="11.00" fill="#000000">securitygroup_id</text>
<polygon fill="#ffffff" stroke="transparent" points="843.5,-286.2 843.5,-308.2 1022.5,-308.2 1022.5,-286.2 843.5,-286.2"/>
<polygon fill="none" stroke="#000000" points="843.5,-286.2 843.5,-308.2 1022.5,-308.2 1022.5,-286.2 843.5,-286.2"/>
<image xlink:href="../../images/foreignKeys.png" width="11px" height="12px" preserveAspectRatio="xMinYMin meet" x="848.5" y="-303.2"/>
<text text-anchor="start" x="863.5" y="-293.3" font-family="Helvetica,sans-Serif" font-size="11.00" fill="#000000">record_id</text>
<polygon fill="#ffffff" stroke="transparent" points="843.5,-264.2 843.5,-286.2 1022.5,-286.2 1022.5,-264.2 843.5,-264.2"/>
<polygon fill="none" stroke="#000000" points="843.5,-264.2 843.5,-286.2 1022.5,-286.2 1022.5,-264.2 843.5,-264.2"/>
<text text-anchor="start" x="863.5" y="-271.3" font-family="Helvetica,sans-Serif" font-size="11.00" fill="#000000">module</text>
<polygon fill="#ffffff" stroke="transparent" points="843.5,-242.2 843.5,-264.2 1022.5,-264.2 1022.5,-242.2 843.5,-242.2"/>
<polygon fill="none" stroke="#000000" points="843.5,-242.2 843.5,-264.2 1022.5,-264.2 1022.5,-242.2 843.5,-242.2"/>
<text text-anchor="start" x="863.5" y="-249.3" font-family="Helvetica,sans-Serif" font-size="11.00" fill="#000000">deleted</text>
<polygon fill="none" stroke="#000000" points="843.5,-223.2 843.5,-242.2 1022.5,-242.2 1022.5,-223.2 843.5,-223.2"/>
<text text-anchor="start" x="846.5" y="-229.3" font-family="Helvetica,sans-Serif" font-size="11.00" fill="#000000">...</text>
<polygon fill="#ffffff" stroke="transparent" points="843.5,-204.2 843.5,-223.2 934.5,-223.2 934.5,-204.2 843.5,-204.2"/>
<polygon fill="none" stroke="#000000" points="843.5,-204.2 843.5,-223.2 934.5,-223.2 934.5,-204.2 843.5,-204.2"/>
<text text-anchor="start" x="846.5" y="-210.3" font-family="Helvetica,sans-Serif" font-size="11.00" fill="#000000">&lt; 41</text>
<polygon fill="#ffffff" stroke="transparent" points="934.5,-204.2 934.5,-223.2 978.5,-223.2 978.5,-204.2 934.5,-204.2"/>
<polygon fill="none" stroke="#000000" points="934.5,-204.2 934.5,-223.2 978.5,-223.2 978.5,-204.2 934.5,-204.2"/>
<text text-anchor="start" x="969.3862" y="-210.3" font-family="Helvetica,sans-Serif" font-size="11.00" fill="#000000"> &#160;</text>
<polygon fill="#ffffff" stroke="transparent" points="978.5,-204.2 978.5,-223.2 1022.5,-223.2 1022.5,-204.2 978.5,-204.2"/>
<polygon fill="none" stroke="#000000" points="978.5,-204.2 978.5,-223.2 1022.5,-223.2 1022.5,-204.2 978.5,-204.2"/>
<text text-anchor="start" x="1013.3862" y="-210.3" font-family="Helvetica,sans-Serif" font-size="11.00" fill="#000000"> &#160;</text>
</a>
</g>
</g>
<!-- securitygroups_records&#45;&gt;aos_product_categories -->
<g id="edge10" class="edge">
<title>securitygroups_records:w&#45;&gt;aos_product_categories:e</title>
<path fill="none" stroke="#000000" d="M829.2798,-294.6653C795.33,-279.4864 845.92,-200.2075 802,-168.2 716.8737,-106.1627 650.8635,-107.1871 565,-168.2 518.1951,-201.4586 579.9181,-290.2 522.5,-290.2"/>
<polygon fill="#000000" stroke="#000000" points="835.6241,-295.7961 842.8682,-300.7441 839.5621,-296.4981 843.5,-297.2 843.5,-297.2 843.5,-297.2 839.5621,-296.4981 844.1318,-293.6559 835.6241,-295.7961 835.6241,-295.7961"/>
<ellipse fill="none" stroke="#000000" cx="832.4738" cy="-295.2346" rx="3.2" ry="3.2"/>
</g>
<!-- securitygroups_records&#45;&gt;aos_products -->
<g id="edge11" class="edge">
<title>securitygroups_records:w&#45;&gt;aos_products:e</title>
<path fill="none" stroke="#000000" d="M829.2313,-299.8223C784.1472,-319.3391 842.2644,-441.2 777.5,-441.2"/>
<polygon fill="#000000" stroke="#000000" points="835.6318,-298.6461 844.1507,-300.7407 839.5659,-297.923 843.5,-297.2 843.5,-297.2 843.5,-297.2 839.5659,-297.923 842.8493,-293.6593 835.6318,-298.6461 835.6318,-298.6461"/>
<ellipse fill="none" stroke="#000000" cx="832.4845" cy="-299.2245" rx="3.2" ry="3.2"/>
</g>
</g>
</svg>
