<?xml version="1.0" encoding="UTF-8" standalone="no"?>
<!DOCTYPE svg PUBLIC "-//W3C//DTD SVG 1.1//EN"
 "http://www.w3.org/Graphics/SVG/1.1/DTD/svg11.dtd">
<!-- Generated by graphviz version 2.40.1 (20161225.0304)
 -->
<!-- Title: twoDegreesRelationshipsDiagram Pages: 1 -->
<svg width="1174pt" height="1577pt"
 viewBox="0.00 0.00 1174.00 1576.59" xmlns="http://www.w3.org/2000/svg" xmlns:xlink="http://www.w3.org/1999/xlink">
<g id="graph0" class="graph" transform="scale(1 1) rotate(0) translate(4 1572.5933)">
<title>twoDegreesRelationshipsDiagram</title>
<polygon fill="#ffffff" stroke="transparent" points="-4,4 -4,-1572.5933 1170,-1572.5933 1170,4 -4,4"/>
<text text-anchor="middle" x="72.4936" y="-7.3" font-family="Helvetica,sans-Serif" font-size="11.00" fill="#000000">Generated by SchemaSpy</text>
<!-- aos_contracts -->
<g id="node1" class="node">
<title>aos_contracts</title>
<g id="a_node1"><a xlink:href="../../tables/aos_contracts.html" xlink:title="aos_contracts" target="_top">
<polygon fill="#ffffff" stroke="transparent" points="224,-382.5933 224,-597.5933 442,-597.5933 442,-382.5933 224,-382.5933"/>
<polygon fill="#f5f5f5" stroke="transparent" points="224,-574.0933 224,-597.0933 442,-597.0933 442,-574.0933 224,-574.0933"/>
<polygon fill="none" stroke="#000000" points="224,-574.0933 224,-597.0933 442,-597.0933 442,-574.0933 224,-574.0933"/>
<text text-anchor="start" x="229" y="-583.1933" font-family="Helvetica,sans-Serif" font-weight="bold" font-size="11.00" fill="#000000">aos_contracts</text>
<text text-anchor="start" x="407.0437" y="-582.1933" font-family="Helvetica,sans-Serif" font-size="11.00" fill="#000000">[table]</text>
<polygon fill="none" stroke="#000000" points="224,-552.0933 224,-574.0933 442,-574.0933 442,-552.0933 224,-552.0933"/>
<image xlink:href="../../images/primaryKeys.png" width="11px" height="12px" preserveAspectRatio="xMinYMin meet" x="229" y="-569.093"/>
<text text-anchor="start" x="244" y="-559.1933" font-family="Helvetica,sans-Serif" font-size="11.00" fill="#000000">id</text>
<polygon fill="#c0c0c0" stroke="transparent" points="224,-530.0933 224,-552.0933 442,-552.0933 442,-530.0933 224,-530.0933"/>
<polygon fill="none" stroke="#000000" points="224,-530.0933 224,-552.0933 442,-552.0933 442,-530.0933 224,-530.0933"/>
<image xlink:href="../../images/foreignKeys.png" width="11px" height="12px" preserveAspectRatio="xMinYMin meet" x="229" y="-547.093"/>
<text text-anchor="start" x="244" y="-537.1933" font-family="Helvetica,sans-Serif" font-size="11.00" fill="#000000">modified_user_id</text>
<polygon fill="#c0c0c0" stroke="transparent" points="224,-508.0933 224,-530.0933 442,-530.0933 442,-508.0933 224,-508.0933"/>
<polygon fill="none" stroke="#000000" points="224,-508.0933 224,-530.0933 442,-530.0933 442,-508.0933 224,-508.0933"/>
<image xlink:href="../../images/foreignKeys.png" width="11px" height="12px" preserveAspectRatio="xMinYMin meet" x="229" y="-525.093"/>
<text text-anchor="start" x="244" y="-515.1933" font-family="Helvetica,sans-Serif" font-size="11.00" fill="#000000">created_by</text>
<polygon fill="#c0c0c0" stroke="transparent" points="224,-486.0933 224,-508.0933 442,-508.0933 442,-486.0933 224,-486.0933"/>
<polygon fill="none" stroke="#000000" points="224,-486.0933 224,-508.0933 442,-508.0933 442,-486.0933 224,-486.0933"/>
<image xlink:href="../../images/foreignKeys.png" width="11px" height="12px" preserveAspectRatio="xMinYMin meet" x="229" y="-503.093"/>
<text text-anchor="start" x="244" y="-493.1933" font-family="Helvetica,sans-Serif" font-size="11.00" fill="#000000">assigned_user_id</text>
<polygon fill="none" stroke="#000000" points="224,-464.0933 224,-486.0933 442,-486.0933 442,-464.0933 224,-464.0933"/>
<image xlink:href="../../images/foreignKeys.png" width="11px" height="12px" preserveAspectRatio="xMinYMin meet" x="229" y="-481.093"/>
<text text-anchor="start" x="244" y="-471.1933" font-family="Helvetica,sans-Serif" font-size="11.00" fill="#000000">contract_account_id</text>
<polygon fill="none" stroke="#000000" points="224,-442.0933 224,-464.0933 442,-464.0933 442,-442.0933 224,-442.0933"/>
<image xlink:href="../../images/foreignKeys.png" width="11px" height="12px" preserveAspectRatio="xMinYMin meet" x="229" y="-459.093"/>
<text text-anchor="start" x="244" y="-449.1933" font-family="Helvetica,sans-Serif" font-size="11.00" fill="#000000">opportunity_id</text>
<polygon fill="none" stroke="#000000" points="224,-420.0933 224,-442.0933 442,-442.0933 442,-420.0933 224,-420.0933"/>
<image xlink:href="../../images/foreignKeys.png" width="11px" height="12px" preserveAspectRatio="xMinYMin meet" x="229" y="-437.093"/>
<text text-anchor="start" x="244" y="-427.1933" font-family="Helvetica,sans-Serif" font-size="11.00" fill="#000000">contact_id</text>
<polygon fill="none" stroke="#000000" points="224,-401.0933 224,-420.0933 442,-420.0933 442,-401.0933 224,-401.0933"/>
<text text-anchor="start" x="227" y="-407.1933" font-family="Helvetica,sans-Serif" font-size="11.00" fill="#000000">...</text>
<polygon fill="#ffffff" stroke="transparent" points="224,-382.0933 224,-401.0933 324,-401.0933 324,-382.0933 224,-382.0933"/>
<polygon fill="none" stroke="#000000" points="224,-382.0933 224,-401.0933 324,-401.0933 324,-382.0933 224,-382.0933"/>
<text text-anchor="start" x="227" y="-388.1933" font-family="Helvetica,sans-Serif" font-size="11.00" fill="#000000">&lt; 6</text>
<polygon fill="#ffffff" stroke="transparent" points="324,-382.0933 324,-401.0933 375,-401.0933 375,-382.0933 324,-382.0933"/>
<polygon fill="none" stroke="#000000" points="324,-382.0933 324,-401.0933 375,-401.0933 375,-382.0933 324,-382.0933"/>
<text text-anchor="start" x="365.8862" y="-388.1933" font-family="Helvetica,sans-Serif" font-size="11.00" fill="#000000"> &#160;</text>
<polygon fill="#ffffff" stroke="transparent" points="375,-382.0933 375,-401.0933 442,-401.0933 442,-382.0933 375,-382.0933"/>
<polygon fill="none" stroke="#000000" points="375,-382.0933 375,-401.0933 442,-401.0933 442,-382.0933 375,-382.0933"/>
<text text-anchor="start" x="417.2904" y="-388.1933" font-family="Helvetica,sans-Serif" font-size="11.00" fill="#000000">11 &gt;</text>
</a>
</g>
</g>
<!-- contacts -->
<g id="node2" class="node">
<title>contacts</title>
<g id="a_node2"><a xlink:href="../../tables/contacts.html" xlink:title="contacts" target="_top">
<polygon fill="#ffffff" stroke="transparent" points="50,-168.5933 50,-229.5933 133,-229.5933 133,-168.5933 50,-168.5933"/>
<polygon fill="#f5f5f5" stroke="transparent" points="50.5,-206.0933 50.5,-229.0933 133.5,-229.0933 133.5,-206.0933 50.5,-206.0933"/>
<polygon fill="none" stroke="#000000" points="50.5,-206.0933 50.5,-229.0933 133.5,-229.0933 133.5,-206.0933 50.5,-206.0933"/>
<text text-anchor="start" x="55.0208" y="-215.1933" font-family="Helvetica,sans-Serif" font-weight="bold" font-size="11.00" fill="#000000">contacts</text>
<text text-anchor="start" x="99.0219" y="-214.1933" font-family="Helvetica,sans-Serif" font-size="11.00" fill="#000000">[table]</text>
<polygon fill="none" stroke="#000000" points="50.5,-187.0933 50.5,-206.0933 133.5,-206.0933 133.5,-187.0933 50.5,-187.0933"/>
<text text-anchor="start" x="53.5" y="-193.1933" font-family="Helvetica,sans-Serif" font-size="11.00" fill="#000000">...</text>
<polygon fill="#ffffff" stroke="transparent" points="50.5,-168.0933 50.5,-187.0933 82.5,-187.0933 82.5,-168.0933 50.5,-168.0933"/>
<polygon fill="none" stroke="#000000" points="50.5,-168.0933 50.5,-187.0933 82.5,-187.0933 82.5,-168.0933 50.5,-168.0933"/>
<text text-anchor="start" x="53.5" y="-174.1933" font-family="Helvetica,sans-Serif" font-size="11.00" fill="#000000">&lt; 7</text>
<polygon fill="#ffffff" stroke="transparent" points="82.5,-168.0933 82.5,-187.0933 100.5,-187.0933 100.5,-168.0933 82.5,-168.0933"/>
<polygon fill="none" stroke="#000000" points="82.5,-168.0933 82.5,-187.0933 100.5,-187.0933 100.5,-168.0933 82.5,-168.0933"/>
<text text-anchor="start" x="91.3862" y="-174.1933" font-family="Helvetica,sans-Serif" font-size="11.00" fill="#000000"> &#160;</text>
<polygon fill="#ffffff" stroke="transparent" points="100.5,-168.0933 100.5,-187.0933 133.5,-187.0933 133.5,-168.0933 100.5,-168.0933"/>
<polygon fill="none" stroke="#000000" points="100.5,-168.0933 100.5,-187.0933 133.5,-187.0933 133.5,-168.0933 100.5,-168.0933"/>
<text text-anchor="start" x="108.7904" y="-174.1933" font-family="Helvetica,sans-Serif" font-size="11.00" fill="#000000">30 &gt;</text>
</a>
</g>
</g>
<!-- aos_contracts&#45;&gt;contacts -->
<g id="edge1" class="edge">
<title>aos_contracts:w&#45;&gt;contacts:e</title>
<path fill="none" stroke="#000000" d="M209.5641,-429.6376C154.9823,-417.0075 214.778,-324.881 183,-259.0933 167.5117,-227.0291 169.109,-196.0933 133.5,-196.0933"/>
<polygon fill="#000000" stroke="#000000" points="216.0404,-430.2906 223.6388,-434.6751 220.0202,-430.692 224,-431.0933 224,-431.0933 224,-431.0933 220.0202,-430.692 224.3612,-427.5115 216.0404,-430.2906 216.0404,-430.2906"/>
<ellipse fill="none" stroke="#000000" cx="212.8565" cy="-429.9695" rx="3.2" ry="3.2"/>
</g>
<!-- accounts -->
<g id="node3" class="node">
<title>accounts</title>
<g id="a_node3"><a xlink:href="../../tables/accounts.html" xlink:title="accounts" target="_top">
<polygon fill="#ffffff" stroke="transparent" points="48,-703.5933 48,-764.5933 135,-764.5933 135,-703.5933 48,-703.5933"/>
<polygon fill="#f5f5f5" stroke="transparent" points="48.5,-741.0933 48.5,-764.0933 135.5,-764.0933 135.5,-741.0933 48.5,-741.0933"/>
<polygon fill="none" stroke="#000000" points="48.5,-741.0933 48.5,-764.0933 135.5,-764.0933 135.5,-741.0933 48.5,-741.0933"/>
<text text-anchor="start" x="53.4918" y="-750.1933" font-family="Helvetica,sans-Serif" font-weight="bold" font-size="11.00" fill="#000000">accounts</text>
<text text-anchor="start" x="101.0219" y="-749.1933" font-family="Helvetica,sans-Serif" font-size="11.00" fill="#000000">[table]</text>
<polygon fill="none" stroke="#000000" points="48.5,-722.0933 48.5,-741.0933 135.5,-741.0933 135.5,-722.0933 48.5,-722.0933"/>
<text text-anchor="start" x="51.5" y="-728.1933" font-family="Helvetica,sans-Serif" font-size="11.00" fill="#000000">...</text>
<polygon fill="#ffffff" stroke="transparent" points="48.5,-703.0933 48.5,-722.0933 82.5,-722.0933 82.5,-703.0933 48.5,-703.0933"/>
<polygon fill="none" stroke="#000000" points="48.5,-703.0933 48.5,-722.0933 82.5,-722.0933 82.5,-703.0933 48.5,-703.0933"/>
<text text-anchor="start" x="51.5" y="-709.1933" font-family="Helvetica,sans-Serif" font-size="11.00" fill="#000000">&lt; 6</text>
<polygon fill="#ffffff" stroke="transparent" points="82.5,-703.0933 82.5,-722.0933 101.5,-722.0933 101.5,-703.0933 82.5,-703.0933"/>
<polygon fill="none" stroke="#000000" points="82.5,-703.0933 82.5,-722.0933 101.5,-722.0933 101.5,-703.0933 82.5,-703.0933"/>
<text text-anchor="start" x="92.3862" y="-709.1933" font-family="Helvetica,sans-Serif" font-size="11.00" fill="#000000"> &#160;</text>
<polygon fill="#ffffff" stroke="transparent" points="101.5,-703.0933 101.5,-722.0933 135.5,-722.0933 135.5,-703.0933 101.5,-703.0933"/>
<polygon fill="none" stroke="#000000" points="101.5,-703.0933 101.5,-722.0933 135.5,-722.0933 135.5,-703.0933 101.5,-703.0933"/>
<text text-anchor="start" x="110.7904" y="-709.1933" font-family="Helvetica,sans-Serif" font-size="11.00" fill="#000000">23 &gt;</text>
</a>
</g>
</g>
<!-- aos_contracts&#45;&gt;accounts -->
<g id="edge2" class="edge">
<title>aos_contracts:w&#45;&gt;accounts:e</title>
<path fill="none" stroke="#000000" d="M209.6623,-476.533C116.4717,-497.0989 250.5944,-731.0933 135.5,-731.0933"/>
<polygon fill="#000000" stroke="#000000" points="216.04,-475.8926 224.3597,-478.6753 220.02,-475.493 224,-475.0933 224,-475.0933 224,-475.0933 220.02,-475.493 223.6403,-471.5113 216.04,-475.8926 216.04,-475.8926"/>
<ellipse fill="none" stroke="#000000" cx="212.856" cy="-476.2124" rx="3.2" ry="3.2"/>
</g>
<!-- opportunities -->
<g id="node4" class="node">
<title>opportunities</title>
<g id="a_node4"><a xlink:href="../../tables/opportunities.html" xlink:title="opportunities" target="_top">
<polygon fill="#ffffff" stroke="transparent" points="39,-269.5933 39,-330.5933 144,-330.5933 144,-269.5933 39,-269.5933"/>
<polygon fill="#f5f5f5" stroke="transparent" points="39.5,-307.0933 39.5,-330.0933 144.5,-330.0933 144.5,-307.0933 39.5,-307.0933"/>
<polygon fill="none" stroke="#000000" points="39.5,-307.0933 39.5,-330.0933 144.5,-330.0933 144.5,-307.0933 39.5,-307.0933"/>
<text text-anchor="start" x="44.0191" y="-316.1933" font-family="Helvetica,sans-Serif" font-weight="bold" font-size="11.00" fill="#000000">opportunities</text>
<text text-anchor="start" x="110.0219" y="-315.1933" font-family="Helvetica,sans-Serif" font-size="11.00" fill="#000000">[table]</text>
<polygon fill="none" stroke="#000000" points="39.5,-288.0933 39.5,-307.0933 144.5,-307.0933 144.5,-288.0933 39.5,-288.0933"/>
<text text-anchor="start" x="42.5" y="-294.1933" font-family="Helvetica,sans-Serif" font-size="11.00" fill="#000000">...</text>
<polygon fill="#ffffff" stroke="transparent" points="39.5,-269.0933 39.5,-288.0933 82.5,-288.0933 82.5,-269.0933 39.5,-269.0933"/>
<polygon fill="none" stroke="#000000" points="39.5,-269.0933 39.5,-288.0933 82.5,-288.0933 82.5,-269.0933 39.5,-269.0933"/>
<text text-anchor="start" x="42.5" y="-275.1933" font-family="Helvetica,sans-Serif" font-size="11.00" fill="#000000">&lt; 6</text>
<polygon fill="#ffffff" stroke="transparent" points="82.5,-269.0933 82.5,-288.0933 105.5,-288.0933 105.5,-269.0933 82.5,-269.0933"/>
<polygon fill="none" stroke="#000000" points="82.5,-269.0933 82.5,-288.0933 105.5,-288.0933 105.5,-269.0933 82.5,-269.0933"/>
<text text-anchor="start" x="96.3862" y="-275.1933" font-family="Helvetica,sans-Serif" font-size="11.00" fill="#000000"> &#160;</text>
<polygon fill="#ffffff" stroke="transparent" points="105.5,-269.0933 105.5,-288.0933 144.5,-288.0933 144.5,-269.0933 105.5,-269.0933"/>
<polygon fill="none" stroke="#000000" points="105.5,-269.0933 105.5,-288.0933 144.5,-288.0933 144.5,-269.0933 105.5,-269.0933"/>
<text text-anchor="start" x="119.7904" y="-275.1933" font-family="Helvetica,sans-Serif" font-size="11.00" fill="#000000">17 &gt;</text>
</a>
</g>
</g>
<!-- aos_contracts&#45;&gt;opportunities -->
<g id="edge3" class="edge">
<title>aos_contracts:w&#45;&gt;opportunities:e</title>
<path fill="none" stroke="#000000" d="M209.7617,-450.888C156.1279,-431.927 216.8459,-297.0933 144.5,-297.0933"/>
<polygon fill="#000000" stroke="#000000" points="216.0943,-451.8688 223.449,-456.6509 220.0471,-452.481 224,-453.0933 224,-453.0933 224,-453.0933 220.0471,-452.481 224.551,-449.5357 216.0943,-451.8688 216.0943,-451.8688"/>
<ellipse fill="none" stroke="#000000" cx="212.932" cy="-451.379" rx="3.2" ry="3.2"/>
</g>
<!-- aos_contracts_documents -->
<g id="node5" class="node">
<title>aos_contracts_documents</title>
<g id="a_node5"><a xlink:href="../../tables/aos_contracts_documents.html" xlink:title="aos_contracts_documents" target="_top">
<polygon fill="#ffffff" stroke="transparent" points="491,-784.0933 491,-962.0933 755,-962.0933 755,-784.0933 491,-784.0933"/>
<polygon fill="#f5f5f5" stroke="transparent" points="493,-937.0933 493,-960.0933 753,-960.0933 753,-937.0933 493,-937.0933"/>
<polygon fill="none" stroke="#000000" points="493,-937.0933 493,-960.0933 753,-960.0933 753,-937.0933 493,-937.0933"/>
<text text-anchor="start" x="498" y="-946.1933" font-family="Helvetica,sans-Serif" font-weight="bold" font-size="11.00" fill="#000000">aos_contracts_documents</text>
<text text-anchor="start" x="718.0437" y="-945.1933" font-family="Helvetica,sans-Serif" font-size="11.00" fill="#000000">[table]</text>
<polygon fill="none" stroke="#000000" points="493,-915.0933 493,-937.0933 687,-937.0933 687,-915.0933 493,-915.0933"/>
<image xlink:href="../../images/primaryKeys.png" width="11px" height="12px" preserveAspectRatio="xMinYMin meet" x="498" y="-932.093"/>
<text text-anchor="start" x="513" y="-922.1933" font-family="Helvetica,sans-Serif" font-size="11.00" fill="#000000">id</text>
<polygon fill="none" stroke="#000000" points="687,-915.0933 687,-937.0933 753,-937.0933 753,-915.0933 687,-915.0933"/>
<text text-anchor="start" x="690" y="-922.7933" font-family="Helvetica,sans-Serif" font-size="11.00" fill="#000000">varchar[36]</text>
<polygon fill="none" stroke="#000000" points="493,-893.0933 493,-915.0933 687,-915.0933 687,-893.0933 493,-893.0933"/>
<text text-anchor="start" x="513" y="-900.1933" font-family="Helvetica,sans-Serif" font-size="11.00" fill="#000000">date_modified</text>
<polygon fill="none" stroke="#000000" points="687,-893.0933 687,-915.0933 753,-915.0933 753,-893.0933 687,-893.0933"/>
<text text-anchor="start" x="689.7401" y="-900.7933" font-family="Helvetica,sans-Serif" font-size="11.00" fill="#000000">datetime[26]</text>
<polygon fill="none" stroke="#000000" points="493,-871.0933 493,-893.0933 687,-893.0933 687,-871.0933 493,-871.0933"/>
<text text-anchor="start" x="513" y="-878.1933" font-family="Helvetica,sans-Serif" font-size="11.00" fill="#000000">deleted</text>
<polygon fill="none" stroke="#000000" points="687,-871.0933 687,-893.0933 753,-893.0933 753,-871.0933 687,-871.0933"/>
<text text-anchor="start" x="690" y="-878.7933" font-family="Helvetica,sans-Serif" font-size="11.00" fill="#000000">bit[1]</text>
<polygon fill="#ffffff" stroke="transparent" points="493,-849.0933 493,-871.0933 687,-871.0933 687,-849.0933 493,-849.0933"/>
<polygon fill="none" stroke="#000000" points="493,-849.0933 493,-871.0933 687,-871.0933 687,-849.0933 493,-849.0933"/>
<image xlink:href="../../images/foreignKeys.png" width="11px" height="12px" preserveAspectRatio="xMinYMin meet" x="498" y="-866.093"/>
<text text-anchor="start" x="513" y="-856.1933" font-family="Helvetica,sans-Serif" font-size="11.00" fill="#000000">aos_contracts_id</text>
<polygon fill="none" stroke="#000000" points="687,-849.0933 687,-871.0933 753,-871.0933 753,-849.0933 687,-849.0933"/>
<text text-anchor="start" x="690" y="-856.7933" font-family="Helvetica,sans-Serif" font-size="11.00" fill="#000000">varchar[36]</text>
<polygon fill="#ffffff" stroke="transparent" points="493,-827.0933 493,-849.0933 687,-849.0933 687,-827.0933 493,-827.0933"/>
<polygon fill="none" stroke="#000000" points="493,-827.0933 493,-849.0933 687,-849.0933 687,-827.0933 493,-827.0933"/>
<image xlink:href="../../images/foreignKeys.png" width="11px" height="12px" preserveAspectRatio="xMinYMin meet" x="498" y="-844.093"/>
<text text-anchor="start" x="513" y="-834.1933" font-family="Helvetica,sans-Serif" font-size="11.00" fill="#000000">documents_id</text>
<polygon fill="none" stroke="#000000" points="687,-827.0933 687,-849.0933 753,-849.0933 753,-827.0933 687,-827.0933"/>
<text text-anchor="start" x="690" y="-834.7933" font-family="Helvetica,sans-Serif" font-size="11.00" fill="#000000">varchar[36]</text>
<polygon fill="none" stroke="#000000" points="493,-805.0933 493,-827.0933 687,-827.0933 687,-805.0933 493,-805.0933"/>
<text text-anchor="start" x="513" y="-812.1933" font-family="Helvetica,sans-Serif" font-size="11.00" fill="#000000">document_revision_id</text>
<polygon fill="none" stroke="#000000" points="687,-805.0933 687,-827.0933 753,-827.0933 753,-805.0933 687,-805.0933"/>
<text text-anchor="start" x="690" y="-812.7933" font-family="Helvetica,sans-Serif" font-size="11.00" fill="#000000">varchar[36]</text>
<polygon fill="#ffffff" stroke="transparent" points="493,-786.0933 493,-805.0933 594,-805.0933 594,-786.0933 493,-786.0933"/>
<polygon fill="none" stroke="#000000" points="493,-786.0933 493,-805.0933 594,-805.0933 594,-786.0933 493,-786.0933"/>
<text text-anchor="start" x="496" y="-792.1933" font-family="Helvetica,sans-Serif" font-size="11.00" fill="#000000">&lt; 2</text>
<polygon fill="#ffffff" stroke="transparent" points="594,-786.0933 594,-805.0933 687,-805.0933 687,-786.0933 594,-786.0933"/>
<polygon fill="none" stroke="#000000" points="594,-786.0933 594,-805.0933 687,-805.0933 687,-786.0933 594,-786.0933"/>
<text text-anchor="start" x="677.8862" y="-792.1933" font-family="Helvetica,sans-Serif" font-size="11.00" fill="#000000"> &#160;</text>
<polygon fill="#ffffff" stroke="transparent" points="687,-786.0933 687,-805.0933 753,-805.0933 753,-786.0933 687,-786.0933"/>
<polygon fill="none" stroke="#000000" points="687,-786.0933 687,-805.0933 753,-805.0933 753,-786.0933 687,-786.0933"/>
<text text-anchor="start" x="734.4053" y="-792.1933" font-family="Helvetica,sans-Serif" font-size="11.00" fill="#000000">0 &gt;</text>
<polygon fill="none" stroke="#000000" stroke-width="2" points="492,-785.0933 492,-961.0933 754,-961.0933 754,-785.0933 492,-785.0933"/>
</a>
</g>
</g>
<!-- aos_contracts_documents&#45;&gt;aos_contracts -->
<g id="edge4" class="edge">
<title>aos_contracts_documents:w&#45;&gt;aos_contracts:e</title>
<path fill="none" stroke="#000000" d="M479.6422,-854.6848C438.3549,-814.4314 503.6035,-563.0933 442,-563.0933"/>
<polygon fill="#000000" stroke="#000000" points="485.5848,-857.0909 491.6489,-863.4302 489.2924,-858.5921 493,-860.0933 493,-860.0933 493,-860.0933 489.2924,-858.5921 494.3511,-856.7564 485.5848,-857.0909 485.5848,-857.0909"/>
<ellipse fill="none" stroke="#000000" cx="482.6187" cy="-855.8899" rx="3.2" ry="3.2"/>
</g>
<!-- documents -->
<g id="node6" class="node">
<title>documents</title>
<g id="a_node6"><a xlink:href="../../tables/documents.html" xlink:title="documents" target="_top">
<polygon fill="#ffffff" stroke="transparent" points="8,-1098.5933 8,-1291.5933 175,-1291.5933 175,-1098.5933 8,-1098.5933"/>
<polygon fill="#f5f5f5" stroke="transparent" points="8.5,-1268.0933 8.5,-1291.0933 175.5,-1291.0933 175.5,-1268.0933 8.5,-1268.0933"/>
<polygon fill="none" stroke="#000000" points="8.5,-1268.0933 8.5,-1291.0933 175.5,-1291.0933 175.5,-1268.0933 8.5,-1268.0933"/>
<text text-anchor="start" x="13.5" y="-1277.1933" font-family="Helvetica,sans-Serif" font-weight="bold" font-size="11.00" fill="#000000">documents</text>
<text text-anchor="start" x="140.5437" y="-1276.1933" font-family="Helvetica,sans-Serif" font-size="11.00" fill="#000000">[table]</text>
<polygon fill="none" stroke="#000000" points="8.5,-1246.0933 8.5,-1268.0933 175.5,-1268.0933 175.5,-1246.0933 8.5,-1246.0933"/>
<image xlink:href="../../images/primaryKeys.png" width="11px" height="12px" preserveAspectRatio="xMinYMin meet" x="13.5" y="-1263.09"/>
<text text-anchor="start" x="28.5" y="-1253.1933" font-family="Helvetica,sans-Serif" font-size="11.00" fill="#000000">id</text>
<polygon fill="#c0c0c0" stroke="transparent" points="8.5,-1224.0933 8.5,-1246.0933 175.5,-1246.0933 175.5,-1224.0933 8.5,-1224.0933"/>
<polygon fill="none" stroke="#000000" points="8.5,-1224.0933 8.5,-1246.0933 175.5,-1246.0933 175.5,-1224.0933 8.5,-1224.0933"/>
<image xlink:href="../../images/foreignKeys.png" width="11px" height="12px" preserveAspectRatio="xMinYMin meet" x="13.5" y="-1241.09"/>
<text text-anchor="start" x="28.5" y="-1231.1933" font-family="Helvetica,sans-Serif" font-size="11.00" fill="#000000">modified_user_id</text>
<polygon fill="#c0c0c0" stroke="transparent" points="8.5,-1202.0933 8.5,-1224.0933 175.5,-1224.0933 175.5,-1202.0933 8.5,-1202.0933"/>
<polygon fill="none" stroke="#000000" points="8.5,-1202.0933 8.5,-1224.0933 175.5,-1224.0933 175.5,-1202.0933 8.5,-1202.0933"/>
<image xlink:href="../../images/foreignKeys.png" width="11px" height="12px" preserveAspectRatio="xMinYMin meet" x="13.5" y="-1219.09"/>
<text text-anchor="start" x="28.5" y="-1209.1933" font-family="Helvetica,sans-Serif" font-size="11.00" fill="#000000">created_by</text>
<polygon fill="#c0c0c0" stroke="transparent" points="8.5,-1180.0933 8.5,-1202.0933 175.5,-1202.0933 175.5,-1180.0933 8.5,-1180.0933"/>
<polygon fill="none" stroke="#000000" points="8.5,-1180.0933 8.5,-1202.0933 175.5,-1202.0933 175.5,-1180.0933 8.5,-1180.0933"/>
<image xlink:href="../../images/foreignKeys.png" width="11px" height="12px" preserveAspectRatio="xMinYMin meet" x="13.5" y="-1197.09"/>
<text text-anchor="start" x="28.5" y="-1187.1933" font-family="Helvetica,sans-Serif" font-size="11.00" fill="#000000">assigned_user_id</text>
<polygon fill="#ffffff" stroke="transparent" points="8.5,-1158.0933 8.5,-1180.0933 175.5,-1180.0933 175.5,-1158.0933 8.5,-1158.0933"/>
<polygon fill="none" stroke="#000000" points="8.5,-1158.0933 8.5,-1180.0933 175.5,-1180.0933 175.5,-1158.0933 8.5,-1158.0933"/>
<text text-anchor="start" x="28.5" y="-1165.1933" font-family="Helvetica,sans-Serif" font-size="11.00" fill="#000000">category_id</text>
<polygon fill="#ffffff" stroke="transparent" points="8.5,-1136.0933 8.5,-1158.0933 175.5,-1158.0933 175.5,-1136.0933 8.5,-1136.0933"/>
<polygon fill="none" stroke="#000000" points="8.5,-1136.0933 8.5,-1158.0933 175.5,-1158.0933 175.5,-1136.0933 8.5,-1136.0933"/>
<text text-anchor="start" x="28.5" y="-1143.1933" font-family="Helvetica,sans-Serif" font-size="11.00" fill="#000000">subcategory_id</text>
<polygon fill="none" stroke="#000000" points="8.5,-1117.0933 8.5,-1136.0933 175.5,-1136.0933 175.5,-1117.0933 8.5,-1117.0933"/>
<text text-anchor="start" x="11.5" y="-1123.1933" font-family="Helvetica,sans-Serif" font-size="11.00" fill="#000000">...</text>
<polygon fill="#ffffff" stroke="transparent" points="8.5,-1098.0933 8.5,-1117.0933 85.5,-1117.0933 85.5,-1098.0933 8.5,-1098.0933"/>
<polygon fill="none" stroke="#000000" points="8.5,-1098.0933 8.5,-1117.0933 85.5,-1117.0933 85.5,-1098.0933 8.5,-1098.0933"/>
<text text-anchor="start" x="11.5" y="-1104.1933" font-family="Helvetica,sans-Serif" font-size="11.00" fill="#000000">&lt; 3</text>
<polygon fill="#ffffff" stroke="transparent" points="85.5,-1098.0933 85.5,-1117.0933 125.5,-1117.0933 125.5,-1098.0933 85.5,-1098.0933"/>
<polygon fill="none" stroke="#000000" points="85.5,-1098.0933 85.5,-1117.0933 125.5,-1117.0933 125.5,-1098.0933 85.5,-1098.0933"/>
<text text-anchor="start" x="116.3862" y="-1104.1933" font-family="Helvetica,sans-Serif" font-size="11.00" fill="#000000"> &#160;</text>
<polygon fill="#ffffff" stroke="transparent" points="125.5,-1098.0933 125.5,-1117.0933 175.5,-1117.0933 175.5,-1098.0933 125.5,-1098.0933"/>
<polygon fill="none" stroke="#000000" points="125.5,-1098.0933 125.5,-1117.0933 175.5,-1117.0933 175.5,-1098.0933 125.5,-1098.0933"/>
<text text-anchor="start" x="156.9053" y="-1104.1933" font-family="Helvetica,sans-Serif" font-size="11.00" fill="#000000">9 &gt;</text>
</a>
</g>
</g>
<!-- aos_contracts_documents&#45;&gt;documents -->
<g id="edge5" class="edge">
<title>aos_contracts_documents:w&#45;&gt;documents:e</title>
<path fill="none" stroke="#000000" d="M479.089,-842.0874C425.8575,-877.5956 502.114,-1139.0898 450,-1191.0933 412.9288,-1228.0858 263.4643,-1196.9606 216,-1219.0933 193.6298,-1229.5245 200.1827,-1257.0933 175.5,-1257.0933"/>
<polygon fill="#000000" stroke="#000000" points="485.3107,-840.3011 493.9935,-841.5535 489.1553,-839.1972 493,-838.0933 493,-838.0933 493,-838.0933 489.1553,-839.1972 492.0065,-834.6331 485.3107,-840.3011 485.3107,-840.3011"/>
<ellipse fill="none" stroke="#000000" cx="482.2349" cy="-841.1842" rx="3.2" ry="3.2"/>
</g>
<!-- aos_line_item_groups -->
<g id="node7" class="node">
<title>aos_line_item_groups</title>
<g id="a_node7"><a xlink:href="../../tables/aos_line_item_groups.html" xlink:title="aos_line_item_groups" target="_top">
<polygon fill="#ffffff" stroke="transparent" points="548,-564.5933 548,-625.5933 698,-625.5933 698,-564.5933 548,-564.5933"/>
<polygon fill="#f5f5f5" stroke="transparent" points="548,-602.0933 548,-625.0933 698,-625.0933 698,-602.0933 548,-602.0933"/>
<polygon fill="none" stroke="#000000" points="548,-602.0933 548,-625.0933 698,-625.0933 698,-602.0933 548,-602.0933"/>
<text text-anchor="start" x="552.7089" y="-611.1933" font-family="Helvetica,sans-Serif" font-weight="bold" font-size="11.00" fill="#000000">aos_line_item_groups</text>
<text text-anchor="start" x="663.5219" y="-610.1933" font-family="Helvetica,sans-Serif" font-size="11.00" fill="#000000">[table]</text>
<polygon fill="none" stroke="#000000" points="548,-583.0933 548,-602.0933 698,-602.0933 698,-583.0933 548,-583.0933"/>
<text text-anchor="start" x="551" y="-589.1933" font-family="Helvetica,sans-Serif" font-size="11.00" fill="#000000">...</text>
<polygon fill="#ffffff" stroke="transparent" points="548,-564.0933 548,-583.0933 617,-583.0933 617,-564.0933 548,-564.0933"/>
<polygon fill="none" stroke="#000000" points="548,-564.0933 548,-583.0933 617,-583.0933 617,-564.0933 548,-564.0933"/>
<text text-anchor="start" x="551" y="-570.1933" font-family="Helvetica,sans-Serif" font-size="11.00" fill="#000000">&lt; 6</text>
<polygon fill="#ffffff" stroke="transparent" points="617,-564.0933 617,-583.0933 653,-583.0933 653,-564.0933 617,-564.0933"/>
<polygon fill="none" stroke="#000000" points="617,-564.0933 617,-583.0933 653,-583.0933 653,-564.0933 617,-564.0933"/>
<text text-anchor="start" x="643.8862" y="-570.1933" font-family="Helvetica,sans-Serif" font-size="11.00" fill="#000000"> &#160;</text>
<polygon fill="#ffffff" stroke="transparent" points="653,-564.0933 653,-583.0933 698,-583.0933 698,-564.0933 653,-564.0933"/>
<polygon fill="none" stroke="#000000" points="653,-564.0933 653,-583.0933 698,-583.0933 698,-564.0933 653,-564.0933"/>
<text text-anchor="start" x="679.4053" y="-570.1933" font-family="Helvetica,sans-Serif" font-size="11.00" fill="#000000">2 &gt;</text>
</a>
</g>
</g>
<!-- aos_line_item_groups&#45;&gt;aos_contracts -->
<g id="edge6" class="edge">
<title>aos_line_item_groups:w&#45;&gt;aos_contracts:e</title>
<path fill="none" stroke="#000000" d="M533.322,-591.1284C496.8538,-586.0965 485.5003,-563.0933 442,-563.0933"/>
<polygon fill="#000000" stroke="#000000" points="540.0172,-591.5685 547.7638,-595.6855 544.0086,-591.8309 548,-592.0933 548,-592.0933 548,-592.0933 544.0086,-591.8309 548.2362,-588.5011 540.0172,-591.5685 540.0172,-591.5685"/>
<ellipse fill="none" stroke="#000000" cx="536.8241" cy="-591.3586" rx="3.2" ry="3.2"/>
</g>
<!-- aos_products_quotes -->
<g id="node8" class="node">
<title>aos_products_quotes</title>
<g id="a_node8"><a xlink:href="../../tables/aos_products_quotes.html" xlink:title="aos_products_quotes" target="_top">
<polygon fill="#ffffff" stroke="transparent" points="804,-584.5933 804,-645.5933 952,-645.5933 952,-584.5933 804,-584.5933"/>
<polygon fill="#f5f5f5" stroke="transparent" points="804,-622.0933 804,-645.0933 952,-645.0933 952,-622.0933 804,-622.0933"/>
<polygon fill="none" stroke="#000000" points="804,-622.0933 804,-645.0933 952,-645.0933 952,-622.0933 804,-622.0933"/>
<text text-anchor="start" x="808.9227" y="-631.1933" font-family="Helvetica,sans-Serif" font-weight="bold" font-size="11.00" fill="#000000">aos_products_quotes</text>
<text text-anchor="start" x="917.5219" y="-630.1933" font-family="Helvetica,sans-Serif" font-size="11.00" fill="#000000">[table]</text>
<polygon fill="none" stroke="#000000" points="804,-603.0933 804,-622.0933 952,-622.0933 952,-603.0933 804,-603.0933"/>
<text text-anchor="start" x="807" y="-609.1933" font-family="Helvetica,sans-Serif" font-size="11.00" fill="#000000">...</text>
<polygon fill="#ffffff" stroke="transparent" points="804,-584.0933 804,-603.0933 872,-603.0933 872,-584.0933 804,-584.0933"/>
<polygon fill="none" stroke="#000000" points="804,-584.0933 804,-603.0933 872,-603.0933 872,-584.0933 804,-584.0933"/>
<text text-anchor="start" x="807" y="-590.1933" font-family="Helvetica,sans-Serif" font-size="11.00" fill="#000000">&lt; 8</text>
<polygon fill="#ffffff" stroke="transparent" points="872,-584.0933 872,-603.0933 907,-603.0933 907,-584.0933 872,-584.0933"/>
<polygon fill="none" stroke="#000000" points="872,-584.0933 872,-603.0933 907,-603.0933 907,-584.0933 872,-584.0933"/>
<text text-anchor="start" x="897.8862" y="-590.1933" font-family="Helvetica,sans-Serif" font-size="11.00" fill="#000000"> &#160;</text>
<polygon fill="#ffffff" stroke="transparent" points="907,-584.0933 907,-603.0933 952,-603.0933 952,-584.0933 907,-584.0933"/>
<polygon fill="none" stroke="#000000" points="907,-584.0933 907,-603.0933 952,-603.0933 952,-584.0933 907,-584.0933"/>
<text text-anchor="start" x="933.4053" y="-590.1933" font-family="Helvetica,sans-Serif" font-size="11.00" fill="#000000">1 &gt;</text>
</a>
</g>
</g>
<!-- aos_products_quotes&#45;&gt;aos_contracts -->
<g id="edge8" class="edge">
<title>aos_products_quotes:w&#45;&gt;aos_contracts:e</title>
<path fill="none" stroke="#000000" d="M790.0801,-615.9653C781.4266,-621.6917 777.488,-632.1647 763,-636.0933 642.8929,-668.6618 590.4012,-698.9535 483,-636.0933 450.8848,-617.2968 479.2114,-563.0933 442,-563.0933"/>
<polygon fill="#000000" stroke="#000000" points="796.2926,-614.2372 804.9648,-615.5616 800.1463,-613.1653 804,-612.0933 804,-612.0933 804,-612.0933 800.1463,-613.1653 803.0352,-608.625 796.2926,-614.2372 796.2926,-614.2372"/>
<ellipse fill="none" stroke="#000000" cx="793.2097" cy="-615.0948" rx="3.2" ry="3.2"/>
</g>
<!-- aos_products_quotes&#45;&gt;aos_line_item_groups -->
<g id="edge7" class="edge">
<title>aos_products_quotes:w&#45;&gt;aos_line_item_groups:e</title>
<path fill="none" stroke="#000000" d="M789.5275,-611.4279C753.3924,-607.9576 740.6987,-592.0933 698,-592.0933"/>
<polygon fill="#000000" stroke="#000000" points="796.0084,-611.7258 803.8346,-615.6895 800.0042,-611.9096 804,-612.0933 804,-612.0933 804,-612.0933 800.0042,-611.9096 804.1654,-608.4971 796.0084,-611.7258 796.0084,-611.7258"/>
<ellipse fill="none" stroke="#000000" cx="792.8118" cy="-611.5788" rx="3.2" ry="3.2"/>
</g>
<!-- aos_quotes_os_contracts_c -->
<g id="node9" class="node">
<title>aos_quotes_os_contracts_c</title>
<g id="a_node9"><a xlink:href="../../tables/aos_quotes_os_contracts_c.html" xlink:title="aos_quotes_os_contracts_c" target="_top">
<polygon fill="#ffffff" stroke="transparent" points="533.5,-454.5933 533.5,-515.5933 712.5,-515.5933 712.5,-454.5933 533.5,-454.5933"/>
<polygon fill="#f5f5f5" stroke="transparent" points="534,-492.0933 534,-515.0933 713,-515.0933 713,-492.0933 534,-492.0933"/>
<polygon fill="none" stroke="#000000" points="534,-492.0933 534,-515.0933 713,-515.0933 713,-492.0933 534,-492.0933"/>
<text text-anchor="start" x="538.5294" y="-501.1933" font-family="Helvetica,sans-Serif" font-weight="bold" font-size="11.00" fill="#000000">aos_quotes_os_contracts_c</text>
<text text-anchor="start" x="678.5219" y="-500.1933" font-family="Helvetica,sans-Serif" font-size="11.00" fill="#000000">[table]</text>
<polygon fill="none" stroke="#000000" points="534,-473.0933 534,-492.0933 713,-492.0933 713,-473.0933 534,-473.0933"/>
<text text-anchor="start" x="537" y="-479.1933" font-family="Helvetica,sans-Serif" font-size="11.00" fill="#000000">...</text>
<polygon fill="#ffffff" stroke="transparent" points="534,-454.0933 534,-473.0933 622,-473.0933 622,-454.0933 534,-454.0933"/>
<polygon fill="none" stroke="#000000" points="534,-454.0933 534,-473.0933 622,-473.0933 622,-454.0933 534,-454.0933"/>
<text text-anchor="start" x="537" y="-460.1933" font-family="Helvetica,sans-Serif" font-size="11.00" fill="#000000">&lt; 2</text>
<polygon fill="#ffffff" stroke="transparent" points="622,-454.0933 622,-473.0933 667,-473.0933 667,-454.0933 622,-454.0933"/>
<polygon fill="none" stroke="#000000" points="622,-454.0933 622,-473.0933 667,-473.0933 667,-454.0933 622,-454.0933"/>
<text text-anchor="start" x="657.8862" y="-460.1933" font-family="Helvetica,sans-Serif" font-size="11.00" fill="#000000"> &#160;</text>
<polygon fill="#ffffff" stroke="transparent" points="667,-454.0933 667,-473.0933 713,-473.0933 713,-454.0933 667,-454.0933"/>
<polygon fill="none" stroke="#000000" points="667,-454.0933 667,-473.0933 713,-473.0933 713,-454.0933 667,-454.0933"/>
<text text-anchor="start" x="703.8862" y="-460.1933" font-family="Helvetica,sans-Serif" font-size="11.00" fill="#000000"> &#160;</text>
</a>
</g>
</g>
<!-- aos_quotes_os_contracts_c&#45;&gt;aos_contracts -->
<g id="edge9" class="edge">
<title>aos_quotes_os_contracts_c:w&#45;&gt;aos_contracts:e</title>
<path fill="none" stroke="#000000" d="M520.557,-487.4079C495.2863,-505.4283 464.9831,-563.0933 442,-563.0933"/>
<polygon fill="#000000" stroke="#000000" points="526.5603,-485.0346 535.3236,-485.4412 530.2802,-483.5639 534,-482.0933 534,-482.0933 534,-482.0933 530.2802,-483.5639 532.6764,-478.7454 526.5603,-485.0346 526.5603,-485.0346"/>
<ellipse fill="none" stroke="#000000" cx="523.5844" cy="-486.2111" rx="3.2" ry="3.2"/>
</g>
<!-- calls -->
<g id="node10" class="node">
<title>calls</title>
<g id="a_node10"><a xlink:href="../../tables/calls.html" xlink:title="calls" target="_top">
<polygon fill="#ffffff" stroke="transparent" points="591,-290.5933 591,-351.5933 655,-351.5933 655,-290.5933 591,-290.5933"/>
<polygon fill="#f5f5f5" stroke="transparent" points="591,-328.0933 591,-351.0933 655,-351.0933 655,-328.0933 591,-328.0933"/>
<polygon fill="none" stroke="#000000" points="591,-328.0933 591,-351.0933 655,-351.0933 655,-328.0933 591,-328.0933"/>
<text text-anchor="start" x="595.5017" y="-337.1933" font-family="Helvetica,sans-Serif" font-weight="bold" font-size="11.00" fill="#000000">calls</text>
<text text-anchor="start" x="620.5219" y="-336.1933" font-family="Helvetica,sans-Serif" font-size="11.00" fill="#000000">[table]</text>
<polygon fill="none" stroke="#000000" points="591,-309.0933 591,-328.0933 655,-328.0933 655,-309.0933 591,-309.0933"/>
<text text-anchor="start" x="594" y="-315.1933" font-family="Helvetica,sans-Serif" font-size="11.00" fill="#000000">...</text>
<polygon fill="#ffffff" stroke="transparent" points="591,-290.0933 591,-309.0933 620,-309.0933 620,-290.0933 591,-290.0933"/>
<polygon fill="none" stroke="#000000" points="591,-290.0933 591,-309.0933 620,-309.0933 620,-290.0933 591,-290.0933"/>
<text text-anchor="start" x="594" y="-296.1933" font-family="Helvetica,sans-Serif" font-size="11.00" fill="#000000">&lt; 12</text>
<polygon fill="#ffffff" stroke="transparent" points="620,-290.0933 620,-309.0933 633,-309.0933 633,-290.0933 620,-290.0933"/>
<polygon fill="none" stroke="#000000" points="620,-290.0933 620,-309.0933 633,-309.0933 633,-290.0933 620,-290.0933"/>
<text text-anchor="start" x="623.8862" y="-296.1933" font-family="Helvetica,sans-Serif" font-size="11.00" fill="#000000"> &#160;</text>
<polygon fill="#ffffff" stroke="transparent" points="633,-290.0933 633,-309.0933 655,-309.0933 655,-290.0933 633,-290.0933"/>
<polygon fill="none" stroke="#000000" points="633,-290.0933 633,-309.0933 655,-309.0933 655,-290.0933 633,-290.0933"/>
<text text-anchor="start" x="636.4053" y="-296.1933" font-family="Helvetica,sans-Serif" font-size="11.00" fill="#000000">6 &gt;</text>
</a>
</g>
</g>
<!-- calls&#45;&gt;aos_contracts -->
<g id="edge11" class="edge">
<title>calls:w&#45;&gt;aos_contracts:e</title>
<path fill="none" stroke="#000000" d="M576.4328,-318.3218C533.9802,-319.8058 512.7621,-329.2049 483,-366.0933 426.8437,-435.6957 531.4317,-563.0933 442,-563.0933"/>
<polygon fill="#000000" stroke="#000000" points="583.001,-318.2188 591.0565,-321.6929 587.0005,-318.1561 591,-318.0933 591,-318.0933 591,-318.0933 587.0005,-318.1561 590.9435,-314.4937 583.001,-318.2188 583.001,-318.2188"/>
<ellipse fill="none" stroke="#000000" cx="579.8014" cy="-318.269" rx="3.2" ry="3.2"/>
</g>
<!-- calls&#45;&gt;accounts -->
<g id="edge10" class="edge">
<title>calls:w&#45;&gt;accounts:e</title>
<path fill="none" stroke="#000000" d="M576.518,-318.0761C483.1187,-317.9257 274.5381,-317.9284 216,-372.0933 95.9792,-483.1475 299.0177,-731.0933 135.5,-731.0933"/>
<polygon fill="#000000" stroke="#000000" points="583,-318.0837 590.9957,-321.6933 587,-318.0885 591,-318.0933 591,-318.0933 591,-318.0933 587,-318.0885 591.0043,-314.4933 583,-318.0837 583,-318.0837"/>
<ellipse fill="none" stroke="#000000" cx="579.8" cy="-318.0799" rx="3.2" ry="3.2"/>
</g>
<!-- calls&#45;&gt;opportunities -->
<g id="edge12" class="edge">
<title>calls:w&#45;&gt;opportunities:e</title>
<path fill="none" stroke="#000000" d="M576.4319,-318.0549C389.7945,-317.0604 338.2166,-297.0933 144.5,-297.0933"/>
<polygon fill="#000000" stroke="#000000" points="583,-318.0721 590.9905,-321.6933 587,-318.0827 591,-318.0933 591,-318.0933 591,-318.0933 587,-318.0827 591.0095,-314.4933 583,-318.0721 583,-318.0721"/>
<ellipse fill="none" stroke="#000000" cx="579.8" cy="-318.0637" rx="3.2" ry="3.2"/>
</g>
<!-- document_revisions -->
<g id="node11" class="node">
<title>document_revisions</title>
<g id="a_node11"><a xlink:href="../../tables/document_revisions.html" xlink:title="document_revisions" target="_top">
<polygon fill="#ffffff" stroke="transparent" points="263,-1393.5933 263,-1454.5933 403,-1454.5933 403,-1393.5933 263,-1393.5933"/>
<polygon fill="#f5f5f5" stroke="transparent" points="263,-1431.0933 263,-1454.0933 403,-1454.0933 403,-1431.0933 263,-1431.0933"/>
<polygon fill="none" stroke="#000000" points="263,-1431.0933 263,-1454.0933 403,-1454.0933 403,-1431.0933 263,-1431.0933"/>
<text text-anchor="start" x="267.6017" y="-1440.1933" font-family="Helvetica,sans-Serif" font-weight="bold" font-size="11.00" fill="#000000">document_revisions</text>
<text text-anchor="start" x="368.5219" y="-1439.1933" font-family="Helvetica,sans-Serif" font-size="11.00" fill="#000000">[table]</text>
<polygon fill="none" stroke="#000000" points="263,-1412.0933 263,-1431.0933 403,-1431.0933 403,-1412.0933 263,-1412.0933"/>
<text text-anchor="start" x="266" y="-1418.1933" font-family="Helvetica,sans-Serif" font-size="11.00" fill="#000000">...</text>
<polygon fill="#ffffff" stroke="transparent" points="263,-1393.0933 263,-1412.0933 331,-1412.0933 331,-1393.0933 263,-1393.0933"/>
<polygon fill="none" stroke="#000000" points="263,-1393.0933 263,-1412.0933 331,-1412.0933 331,-1393.0933 263,-1393.0933"/>
<text text-anchor="start" x="266" y="-1399.1933" font-family="Helvetica,sans-Serif" font-size="11.00" fill="#000000">&lt; 2</text>
<polygon fill="#ffffff" stroke="transparent" points="331,-1393.0933 331,-1412.0933 367,-1412.0933 367,-1393.0933 331,-1393.0933"/>
<polygon fill="none" stroke="#000000" points="331,-1393.0933 331,-1412.0933 367,-1412.0933 367,-1393.0933 331,-1393.0933"/>
<text text-anchor="start" x="357.8862" y="-1399.1933" font-family="Helvetica,sans-Serif" font-size="11.00" fill="#000000"> &#160;</text>
<polygon fill="#ffffff" stroke="transparent" points="367,-1393.0933 367,-1412.0933 403,-1412.0933 403,-1393.0933 367,-1393.0933"/>
<polygon fill="none" stroke="#000000" points="367,-1393.0933 367,-1412.0933 403,-1412.0933 403,-1393.0933 367,-1393.0933"/>
<text text-anchor="start" x="393.8862" y="-1399.1933" font-family="Helvetica,sans-Serif" font-size="11.00" fill="#000000"> &#160;</text>
</a>
</g>
</g>
<!-- document_revisions&#45;&gt;documents -->
<g id="edge13" class="edge">
<title>document_revisions:w&#45;&gt;documents:e</title>
<path fill="none" stroke="#000000" d="M248.6245,-1419.0679C233.5942,-1414.1283 227.9846,-1400.5758 216,-1383.0933 182.741,-1334.5769 234.3218,-1257.0933 175.5,-1257.0933"/>
<polygon fill="#000000" stroke="#000000" points="255.0782,-1419.9771 262.4977,-1424.6581 259.0391,-1420.5352 263,-1421.0933 263,-1421.0933 263,-1421.0933 259.0391,-1420.5352 263.5023,-1417.5285 255.0782,-1419.9771 255.0782,-1419.9771"/>
<ellipse fill="none" stroke="#000000" cx="251.9095" cy="-1419.5306" rx="3.2" ry="3.2"/>
</g>
<!-- documents_accounts -->
<g id="node12" class="node">
<title>documents_accounts</title>
<g id="a_node12"><a xlink:href="../../tables/documents_accounts.html" xlink:title="documents_accounts" target="_top">
<polygon fill="#ffffff" stroke="transparent" points="260,-1119.5933 260,-1180.5933 406,-1180.5933 406,-1119.5933 260,-1119.5933"/>
<polygon fill="#f5f5f5" stroke="transparent" points="260,-1157.0933 260,-1180.0933 406,-1180.0933 406,-1157.0933 260,-1157.0933"/>
<polygon fill="none" stroke="#000000" points="260,-1157.0933 260,-1180.0933 406,-1180.0933 406,-1157.0933 260,-1157.0933"/>
<text text-anchor="start" x="264.5377" y="-1166.1933" font-family="Helvetica,sans-Serif" font-weight="bold" font-size="11.00" fill="#000000">documents_accounts</text>
<text text-anchor="start" x="371.5219" y="-1165.1933" font-family="Helvetica,sans-Serif" font-size="11.00" fill="#000000">[table]</text>
<polygon fill="none" stroke="#000000" points="260,-1138.0933 260,-1157.0933 406,-1157.0933 406,-1138.0933 260,-1138.0933"/>
<text text-anchor="start" x="263" y="-1144.1933" font-family="Helvetica,sans-Serif" font-size="11.00" fill="#000000">...</text>
<polygon fill="#ffffff" stroke="transparent" points="260,-1119.0933 260,-1138.0933 331,-1138.0933 331,-1119.0933 260,-1119.0933"/>
<polygon fill="none" stroke="#000000" points="260,-1119.0933 260,-1138.0933 331,-1138.0933 331,-1119.0933 260,-1119.0933"/>
<text text-anchor="start" x="263" y="-1125.1933" font-family="Helvetica,sans-Serif" font-size="11.00" fill="#000000">&lt; 2</text>
<polygon fill="#ffffff" stroke="transparent" points="331,-1119.0933 331,-1138.0933 368,-1138.0933 368,-1119.0933 331,-1119.0933"/>
<polygon fill="none" stroke="#000000" points="331,-1119.0933 331,-1138.0933 368,-1138.0933 368,-1119.0933 331,-1119.0933"/>
<text text-anchor="start" x="358.8862" y="-1125.1933" font-family="Helvetica,sans-Serif" font-size="11.00" fill="#000000"> &#160;</text>
<polygon fill="#ffffff" stroke="transparent" points="368,-1119.0933 368,-1138.0933 406,-1138.0933 406,-1119.0933 368,-1119.0933"/>
<polygon fill="none" stroke="#000000" points="368,-1119.0933 368,-1138.0933 406,-1138.0933 406,-1119.0933 368,-1119.0933"/>
<text text-anchor="start" x="396.8862" y="-1125.1933" font-family="Helvetica,sans-Serif" font-size="11.00" fill="#000000"> &#160;</text>
</a>
</g>
</g>
<!-- documents_accounts&#45;&gt;accounts -->
<g id="edge14" class="edge">
<title>documents_accounts:w&#45;&gt;accounts:e</title>
<path fill="none" stroke="#000000" d="M245.1695,-1146.1772C80.9686,-1124.6543 323.2143,-731.0933 135.5,-731.0933"/>
<polygon fill="#000000" stroke="#000000" points="252.0152,-1146.6 259.778,-1150.6865 256.0076,-1146.8467 260,-1147.0933 260,-1147.0933 260,-1147.0933 256.0076,-1146.8467 260.222,-1143.5002 252.0152,-1146.6 252.0152,-1146.6"/>
<ellipse fill="none" stroke="#000000" cx="248.8213" cy="-1146.4027" rx="3.2" ry="3.2"/>
</g>
<!-- documents_accounts&#45;&gt;documents -->
<g id="edge15" class="edge">
<title>documents_accounts:w&#45;&gt;documents:e</title>
<path fill="none" stroke="#000000" d="M245.8434,-1149.9756C231.3095,-1157.2132 230.1448,-1176.8789 216,-1195.0933 195.8125,-1221.0889 208.4137,-1257.0933 175.5,-1257.0933"/>
<polygon fill="#000000" stroke="#000000" points="252.1608,-1148.6894 260.7182,-1150.6209 256.0804,-1147.8914 260,-1147.0933 260,-1147.0933 260,-1147.0933 256.0804,-1147.8914 259.2818,-1143.5657 252.1608,-1148.6894 252.1608,-1148.6894"/>
<ellipse fill="none" stroke="#000000" cx="249.0252" cy="-1149.3278" rx="3.2" ry="3.2"/>
</g>
<!-- documents_bugs -->
<g id="node13" class="node">
<title>documents_bugs</title>
<g id="a_node13"><a xlink:href="../../tables/documents_bugs.html" xlink:title="documents_bugs" target="_top">
<polygon fill="#ffffff" stroke="transparent" points="270,-1311.5933 270,-1372.5933 396,-1372.5933 396,-1311.5933 270,-1311.5933"/>
<polygon fill="#f5f5f5" stroke="transparent" points="270,-1349.0933 270,-1372.0933 396,-1372.0933 396,-1349.0933 270,-1349.0933"/>
<polygon fill="none" stroke="#000000" points="270,-1349.0933 270,-1372.0933 396,-1372.0933 396,-1349.0933 270,-1349.0933"/>
<text text-anchor="start" x="274.6236" y="-1358.1933" font-family="Helvetica,sans-Serif" font-weight="bold" font-size="11.00" fill="#000000">documents_bugs</text>
<text text-anchor="start" x="361.5219" y="-1357.1933" font-family="Helvetica,sans-Serif" font-size="11.00" fill="#000000">[table]</text>
<polygon fill="none" stroke="#000000" points="270,-1330.0933 270,-1349.0933 396,-1349.0933 396,-1330.0933 270,-1330.0933"/>
<text text-anchor="start" x="273" y="-1336.1933" font-family="Helvetica,sans-Serif" font-size="11.00" fill="#000000">...</text>
<polygon fill="#ffffff" stroke="transparent" points="270,-1311.0933 270,-1330.0933 331,-1330.0933 331,-1311.0933 270,-1311.0933"/>
<polygon fill="none" stroke="#000000" points="270,-1311.0933 270,-1330.0933 331,-1330.0933 331,-1311.0933 270,-1311.0933"/>
<text text-anchor="start" x="273" y="-1317.1933" font-family="Helvetica,sans-Serif" font-size="11.00" fill="#000000">&lt; 2</text>
<polygon fill="#ffffff" stroke="transparent" points="331,-1311.0933 331,-1330.0933 363,-1330.0933 363,-1311.0933 331,-1311.0933"/>
<polygon fill="none" stroke="#000000" points="331,-1311.0933 331,-1330.0933 363,-1330.0933 363,-1311.0933 331,-1311.0933"/>
<text text-anchor="start" x="353.8862" y="-1317.1933" font-family="Helvetica,sans-Serif" font-size="11.00" fill="#000000"> &#160;</text>
<polygon fill="#ffffff" stroke="transparent" points="363,-1311.0933 363,-1330.0933 396,-1330.0933 396,-1311.0933 363,-1311.0933"/>
<polygon fill="none" stroke="#000000" points="363,-1311.0933 363,-1330.0933 396,-1330.0933 396,-1311.0933 363,-1311.0933"/>
<text text-anchor="start" x="386.8862" y="-1317.1933" font-family="Helvetica,sans-Serif" font-size="11.00" fill="#000000"> &#160;</text>
</a>
</g>
</g>
<!-- documents_bugs&#45;&gt;documents -->
<g id="edge16" class="edge">
<title>documents_bugs:w&#45;&gt;documents:e</title>
<path fill="none" stroke="#000000" d="M255.5222,-1337.0928C238.8986,-1331.7817 233.7539,-1316.6647 216,-1301.0933 196.0181,-1283.5678 202.0786,-1257.0933 175.5,-1257.0933"/>
<polygon fill="#000000" stroke="#000000" points="262.0753,-1337.9982 269.5072,-1342.6594 266.0376,-1338.5458 270,-1339.0933 270,-1339.0933 270,-1339.0933 266.0376,-1338.5458 270.4928,-1335.5272 262.0753,-1337.9982 262.0753,-1337.9982"/>
<ellipse fill="none" stroke="#000000" cx="258.9054" cy="-1337.5602" rx="3.2" ry="3.2"/>
</g>
<!-- documents_cases -->
<g id="node14" class="node">
<title>documents_cases</title>
<g id="a_node14"><a xlink:href="../../tables/documents_cases.html" xlink:title="documents_cases" target="_top">
<polygon fill="#ffffff" stroke="transparent" points="267.5,-1229.5933 267.5,-1290.5933 398.5,-1290.5933 398.5,-1229.5933 267.5,-1229.5933"/>
<polygon fill="#f5f5f5" stroke="transparent" points="268,-1267.0933 268,-1290.0933 399,-1290.0933 399,-1267.0933 268,-1267.0933"/>
<polygon fill="none" stroke="#000000" points="268,-1267.0933 268,-1290.0933 399,-1290.0933 399,-1267.0933 268,-1267.0933"/>
<text text-anchor="start" x="272.681" y="-1276.1933" font-family="Helvetica,sans-Serif" font-weight="bold" font-size="11.00" fill="#000000">documents_cases</text>
<text text-anchor="start" x="364.5219" y="-1275.1933" font-family="Helvetica,sans-Serif" font-size="11.00" fill="#000000">[table]</text>
<polygon fill="none" stroke="#000000" points="268,-1248.0933 268,-1267.0933 399,-1267.0933 399,-1248.0933 268,-1248.0933"/>
<text text-anchor="start" x="271" y="-1254.1933" font-family="Helvetica,sans-Serif" font-size="11.00" fill="#000000">...</text>
<polygon fill="#ffffff" stroke="transparent" points="268,-1229.0933 268,-1248.0933 332,-1248.0933 332,-1229.0933 268,-1229.0933"/>
<polygon fill="none" stroke="#000000" points="268,-1229.0933 268,-1248.0933 332,-1248.0933 332,-1229.0933 268,-1229.0933"/>
<text text-anchor="start" x="271" y="-1235.1933" font-family="Helvetica,sans-Serif" font-size="11.00" fill="#000000">&lt; 2</text>
<polygon fill="#ffffff" stroke="transparent" points="332,-1229.0933 332,-1248.0933 365,-1248.0933 365,-1229.0933 332,-1229.0933"/>
<polygon fill="none" stroke="#000000" points="332,-1229.0933 332,-1248.0933 365,-1248.0933 365,-1229.0933 332,-1229.0933"/>
<text text-anchor="start" x="355.8862" y="-1235.1933" font-family="Helvetica,sans-Serif" font-size="11.00" fill="#000000"> &#160;</text>
<polygon fill="#ffffff" stroke="transparent" points="365,-1229.0933 365,-1248.0933 399,-1248.0933 399,-1229.0933 365,-1229.0933"/>
<polygon fill="none" stroke="#000000" points="365,-1229.0933 365,-1248.0933 399,-1248.0933 399,-1229.0933 365,-1229.0933"/>
<text text-anchor="start" x="389.8862" y="-1235.1933" font-family="Helvetica,sans-Serif" font-size="11.00" fill="#000000"> &#160;</text>
</a>
</g>
</g>
<!-- documents_cases&#45;&gt;documents -->
<g id="edge17" class="edge">
<title>documents_cases:w&#45;&gt;documents:e</title>
<path fill="none" stroke="#000000" d="M253.5065,-1257.0933C223.7268,-1257.0933 211.3116,-1257.0933 175.5,-1257.0933"/>
<polygon fill="#000000" stroke="#000000" points="260,-1257.0934 268,-1260.6933 264,-1257.0933 268,-1257.0933 268,-1257.0933 268,-1257.0933 264,-1257.0933 268,-1253.4933 260,-1257.0934 260,-1257.0934"/>
<ellipse fill="none" stroke="#000000" cx="256.8" cy="-1257.0934" rx="3.2" ry="3.2"/>
</g>
<!-- documents_contacts -->
<g id="node15" class="node">
<title>documents_contacts</title>
<g id="a_node15"><a xlink:href="../../tables/documents_contacts.html" xlink:title="documents_contacts" target="_top">
<polygon fill="#ffffff" stroke="transparent" points="261.5,-618.5933 261.5,-679.5933 404.5,-679.5933 404.5,-618.5933 261.5,-618.5933"/>
<polygon fill="#f5f5f5" stroke="transparent" points="262,-656.0933 262,-679.0933 405,-679.0933 405,-656.0933 262,-656.0933"/>
<polygon fill="none" stroke="#000000" points="262,-656.0933 262,-679.0933 405,-679.0933 405,-656.0933 262,-656.0933"/>
<text text-anchor="start" x="266.5667" y="-665.1933" font-family="Helvetica,sans-Serif" font-weight="bold" font-size="11.00" fill="#000000">documents_contacts</text>
<text text-anchor="start" x="370.5219" y="-664.1933" font-family="Helvetica,sans-Serif" font-size="11.00" fill="#000000">[table]</text>
<polygon fill="none" stroke="#000000" points="262,-637.0933 262,-656.0933 405,-656.0933 405,-637.0933 262,-637.0933"/>
<text text-anchor="start" x="265" y="-643.1933" font-family="Helvetica,sans-Serif" font-size="11.00" fill="#000000">...</text>
<polygon fill="#ffffff" stroke="transparent" points="262,-618.0933 262,-637.0933 332,-637.0933 332,-618.0933 262,-618.0933"/>
<polygon fill="none" stroke="#000000" points="262,-618.0933 262,-637.0933 332,-637.0933 332,-618.0933 262,-618.0933"/>
<text text-anchor="start" x="265" y="-624.1933" font-family="Helvetica,sans-Serif" font-size="11.00" fill="#000000">&lt; 2</text>
<polygon fill="#ffffff" stroke="transparent" points="332,-618.0933 332,-637.0933 368,-637.0933 368,-618.0933 332,-618.0933"/>
<polygon fill="none" stroke="#000000" points="332,-618.0933 332,-637.0933 368,-637.0933 368,-618.0933 332,-618.0933"/>
<text text-anchor="start" x="358.8862" y="-624.1933" font-family="Helvetica,sans-Serif" font-size="11.00" fill="#000000"> &#160;</text>
<polygon fill="#ffffff" stroke="transparent" points="368,-618.0933 368,-637.0933 405,-637.0933 405,-618.0933 368,-618.0933"/>
<polygon fill="none" stroke="#000000" points="368,-618.0933 368,-637.0933 405,-637.0933 405,-618.0933 368,-618.0933"/>
<text text-anchor="start" x="395.8862" y="-624.1933" font-family="Helvetica,sans-Serif" font-size="11.00" fill="#000000"> &#160;</text>
</a>
</g>
</g>
<!-- documents_contacts&#45;&gt;contacts -->
<g id="edge18" class="edge">
<title>documents_contacts:w&#45;&gt;contacts:e</title>
<path fill="none" stroke="#000000" d="M247.5829,-644.2022C232.2633,-639.5528 225.7979,-626.582 216,-608.0933 143.0448,-470.4267 240.8082,-403.7749 183,-259.0933 169.7878,-226.0261 169.109,-196.0933 133.5,-196.0933"/>
<polygon fill="#000000" stroke="#000000" points="254.0679,-645.0528 261.5318,-649.6627 258.034,-645.573 262,-646.0933 262,-646.0933 262,-646.0933 258.034,-645.573 262.4682,-642.5239 254.0679,-645.0528 254.0679,-645.0528"/>
<ellipse fill="none" stroke="#000000" cx="250.8951" cy="-644.6366" rx="3.2" ry="3.2"/>
</g>
<!-- documents_contacts&#45;&gt;documents -->
<g id="edge19" class="edge">
<title>documents_contacts:w&#45;&gt;documents:e</title>
<path fill="none" stroke="#000000" d="M253.782,-658.0243C224.6271,-743.3189 206.9372,-1257.0933 175.5,-1257.0933"/>
<polygon fill="#000000" stroke="#000000" points="257.462,-652.6817 264.9648,-648.1354 259.731,-649.3875 262,-646.0933 262,-646.0933 262,-646.0933 259.731,-649.3875 259.0352,-644.0512 257.462,-652.6817 257.462,-652.6817"/>
<ellipse fill="none" stroke="#000000" cx="255.6467" cy="-655.317" rx="3.2" ry="3.2"/>
</g>
<!-- documents_opportunities -->
<g id="node16" class="node">
<title>documents_opportunities</title>
<g id="a_node16"><a xlink:href="../../tables/documents_opportunities.html" xlink:title="documents_opportunities" target="_top">
<polygon fill="#ffffff" stroke="transparent" points="250.5,-1037.5933 250.5,-1098.5933 415.5,-1098.5933 415.5,-1037.5933 250.5,-1037.5933"/>
<polygon fill="#f5f5f5" stroke="transparent" points="251,-1075.0933 251,-1098.0933 416,-1098.0933 416,-1075.0933 251,-1075.0933"/>
<polygon fill="none" stroke="#000000" points="251,-1075.0933 251,-1098.0933 416,-1098.0933 416,-1075.0933 251,-1075.0933"/>
<text text-anchor="start" x="255.565" y="-1084.1933" font-family="Helvetica,sans-Serif" font-weight="bold" font-size="11.00" fill="#000000">documents_opportunities</text>
<text text-anchor="start" x="381.5219" y="-1083.1933" font-family="Helvetica,sans-Serif" font-size="11.00" fill="#000000">[table]</text>
<polygon fill="none" stroke="#000000" points="251,-1056.0933 251,-1075.0933 416,-1075.0933 416,-1056.0933 251,-1056.0933"/>
<text text-anchor="start" x="254" y="-1062.1933" font-family="Helvetica,sans-Serif" font-size="11.00" fill="#000000">...</text>
<polygon fill="#ffffff" stroke="transparent" points="251,-1037.0933 251,-1056.0933 332,-1056.0933 332,-1037.0933 251,-1037.0933"/>
<polygon fill="none" stroke="#000000" points="251,-1037.0933 251,-1056.0933 332,-1056.0933 332,-1037.0933 251,-1037.0933"/>
<text text-anchor="start" x="254" y="-1043.1933" font-family="Helvetica,sans-Serif" font-size="11.00" fill="#000000">&lt; 2</text>
<polygon fill="#ffffff" stroke="transparent" points="332,-1037.0933 332,-1056.0933 374,-1056.0933 374,-1037.0933 332,-1037.0933"/>
<polygon fill="none" stroke="#000000" points="332,-1037.0933 332,-1056.0933 374,-1056.0933 374,-1037.0933 332,-1037.0933"/>
<text text-anchor="start" x="364.8862" y="-1043.1933" font-family="Helvetica,sans-Serif" font-size="11.00" fill="#000000"> &#160;</text>
<polygon fill="#ffffff" stroke="transparent" points="374,-1037.0933 374,-1056.0933 416,-1056.0933 416,-1037.0933 374,-1037.0933"/>
<polygon fill="none" stroke="#000000" points="374,-1037.0933 374,-1056.0933 416,-1056.0933 416,-1037.0933 374,-1037.0933"/>
<text text-anchor="start" x="406.8862" y="-1043.1933" font-family="Helvetica,sans-Serif" font-size="11.00" fill="#000000"> &#160;</text>
</a>
</g>
</g>
<!-- documents_opportunities&#45;&gt;opportunities -->
<g id="edge21" class="edge">
<title>documents_opportunities:w&#45;&gt;opportunities:e</title>
<path fill="none" stroke="#000000" d="M236.4573,-1063.0243C92.7403,-1019.2972 311.5837,-297.0933 144.5,-297.0933"/>
<polygon fill="#000000" stroke="#000000" points="243.0798,-1063.9665 250.4929,-1068.6574 247.0399,-1064.5299 251,-1065.0933 251,-1065.0933 251,-1065.0933 247.0399,-1064.5299 251.5071,-1061.5292 243.0798,-1063.9665 243.0798,-1063.9665"/>
<ellipse fill="none" stroke="#000000" cx="239.9117" cy="-1063.5157" rx="3.2" ry="3.2"/>
</g>
<!-- documents_opportunities&#45;&gt;documents -->
<g id="edge20" class="edge">
<title>documents_opportunities:w&#45;&gt;documents:e</title>
<path fill="none" stroke="#000000" d="M236.451,-1067.1196C171.6391,-1087.6394 261.642,-1257.0933 175.5,-1257.0933"/>
<polygon fill="#000000" stroke="#000000" points="243.0765,-1066.1969 251.4966,-1068.6589 247.0382,-1065.6451 251,-1065.0933 251,-1065.0933 251,-1065.0933 247.0382,-1065.6451 250.5034,-1061.5277 243.0765,-1066.1969 243.0765,-1066.1969"/>
<ellipse fill="none" stroke="#000000" cx="239.9071" cy="-1066.6384" rx="3.2" ry="3.2"/>
</g>
<!-- emails_beans -->
<g id="node17" class="node">
<title>emails_beans</title>
<g id="a_node17"><a xlink:href="../../tables/emails_beans.html" xlink:title="emails_beans" target="_top">
<polygon fill="#ffffff" stroke="transparent" points="823,-388.5933 823,-449.5933 933,-449.5933 933,-388.5933 823,-388.5933"/>
<polygon fill="#f5f5f5" stroke="transparent" points="823,-426.0933 823,-449.0933 933,-449.0933 933,-426.0933 823,-426.0933"/>
<polygon fill="none" stroke="#000000" points="823,-426.0933 823,-449.0933 933,-449.0933 933,-426.0933 823,-426.0933"/>
<text text-anchor="start" x="827.576" y="-435.1933" font-family="Helvetica,sans-Serif" font-weight="bold" font-size="11.00" fill="#000000">emails_beans</text>
<text text-anchor="start" x="898.5219" y="-434.1933" font-family="Helvetica,sans-Serif" font-size="11.00" fill="#000000">[table]</text>
<polygon fill="none" stroke="#000000" points="823,-407.0933 823,-426.0933 933,-426.0933 933,-407.0933 823,-407.0933"/>
<text text-anchor="start" x="826" y="-413.1933" font-family="Helvetica,sans-Serif" font-size="11.00" fill="#000000">...</text>
<polygon fill="#ffffff" stroke="transparent" points="823,-388.0933 823,-407.0933 879,-407.0933 879,-388.0933 823,-388.0933"/>
<polygon fill="none" stroke="#000000" points="823,-388.0933 823,-407.0933 879,-407.0933 879,-388.0933 823,-388.0933"/>
<text text-anchor="start" x="826" y="-394.1933" font-family="Helvetica,sans-Serif" font-size="11.00" fill="#000000">&lt; 14</text>
<polygon fill="#ffffff" stroke="transparent" points="879,-388.0933 879,-407.0933 906,-407.0933 906,-388.0933 879,-388.0933"/>
<polygon fill="none" stroke="#000000" points="879,-388.0933 879,-407.0933 906,-407.0933 906,-388.0933 879,-388.0933"/>
<text text-anchor="start" x="896.8862" y="-394.1933" font-family="Helvetica,sans-Serif" font-size="11.00" fill="#000000"> &#160;</text>
<polygon fill="#ffffff" stroke="transparent" points="906,-388.0933 906,-407.0933 933,-407.0933 933,-388.0933 906,-388.0933"/>
<polygon fill="none" stroke="#000000" points="906,-388.0933 906,-407.0933 933,-407.0933 933,-388.0933 906,-388.0933"/>
<text text-anchor="start" x="923.8862" y="-394.1933" font-family="Helvetica,sans-Serif" font-size="11.00" fill="#000000"> &#160;</text>
</a>
</g>
</g>
<!-- emails_beans&#45;&gt;aos_contracts -->
<g id="edge23" class="edge">
<title>emails_beans:w&#45;&gt;aos_contracts:e</title>
<path fill="none" stroke="#000000" d="M808.3397,-416.2071C740.1053,-417.0451 510.3594,-422.834 483,-444.0933 438.8278,-478.4168 497.94,-563.0933 442,-563.0933"/>
<polygon fill="#000000" stroke="#000000" points="815.0002,-416.1555 823.028,-419.6932 819.0001,-416.1244 823,-416.0933 823,-416.0933 823,-416.0933 819.0001,-416.1244 822.972,-412.4934 815.0002,-416.1555 815.0002,-416.1555"/>
<ellipse fill="none" stroke="#000000" cx="811.8003" cy="-416.1803" rx="3.2" ry="3.2"/>
</g>
<!-- emails_beans&#45;&gt;contacts -->
<g id="edge24" class="edge">
<title>emails_beans:w&#45;&gt;contacts:e</title>
<path fill="none" stroke="#000000" d="M808.4132,-414.7419C734.9215,-399.4021 837.1073,-257.5268 763,-198.0933 653.8707,-110.5725 273.3896,-196.0933 133.5,-196.0933"/>
<polygon fill="#000000" stroke="#000000" points="815.0341,-415.3553 822.6679,-419.678 819.0171,-415.7243 823,-416.0933 823,-416.0933 823,-416.0933 819.0171,-415.7243 823.3321,-412.5087 815.0341,-415.3553 815.0341,-415.3553"/>
<ellipse fill="none" stroke="#000000" cx="811.8478" cy="-415.06" rx="3.2" ry="3.2"/>
</g>
<!-- emails_beans&#45;&gt;accounts -->
<g id="edge22" class="edge">
<title>emails_beans:w&#45;&gt;accounts:e</title>
<path fill="none" stroke="#000000" d="M808.7618,-418.53C711.1778,-455.1059 850.7407,-892.3098 763,-973.0933 717.2249,-1015.2388 542.3663,-991.728 483,-973.0933 393.2165,-944.9109 229.6027,-731.0933 135.5,-731.0933"/>
<polygon fill="#000000" stroke="#000000" points="815.1146,-417.4428 823.6073,-419.6417 819.0573,-416.7681 823,-416.0933 823,-416.0933 823,-416.0933 819.0573,-416.7681 822.3927,-412.5449 815.1146,-417.4428 815.1146,-417.4428"/>
<ellipse fill="none" stroke="#000000" cx="811.9605" cy="-417.9827" rx="3.2" ry="3.2"/>
</g>
<!-- emails_beans&#45;&gt;opportunities -->
<g id="edge26" class="edge">
<title>emails_beans:w&#45;&gt;opportunities:e</title>
<path fill="none" stroke="#000000" d="M808.2972,-415.8496C663.511,-411.3013 344.9898,-344.2846 216,-316.0933 183.8776,-309.0728 177.3806,-297.0933 144.5,-297.0933"/>
<polygon fill="#000000" stroke="#000000" points="815.0011,-415.9607 822.9403,-419.6928 819.0005,-416.027 823,-416.0933 823,-416.0933 823,-416.0933 819.0005,-416.027 823.0597,-412.4938 815.0011,-415.9607 815.0011,-415.9607"/>
<ellipse fill="none" stroke="#000000" cx="811.8015" cy="-415.9076" rx="3.2" ry="3.2"/>
</g>
<!-- meetings -->
<g id="node18" class="node">
<title>meetings</title>
<g id="a_node18"><a xlink:href="../../tables/meetings.html" xlink:title="meetings" target="_top">
<polygon fill="#ffffff" stroke="transparent" points="579.5,-701.5933 579.5,-762.5933 666.5,-762.5933 666.5,-701.5933 579.5,-701.5933"/>
<polygon fill="#f5f5f5" stroke="transparent" points="580,-739.0933 580,-762.0933 667,-762.0933 667,-739.0933 580,-739.0933"/>
<polygon fill="none" stroke="#000000" points="580,-739.0933 580,-762.0933 667,-762.0933 667,-739.0933 580,-739.0933"/>
<text text-anchor="start" x="584.6904" y="-748.1933" font-family="Helvetica,sans-Serif" font-weight="bold" font-size="11.00" fill="#000000">meetings</text>
<text text-anchor="start" x="632.5219" y="-747.1933" font-family="Helvetica,sans-Serif" font-size="11.00" fill="#000000">[table]</text>
<polygon fill="none" stroke="#000000" points="580,-720.0933 580,-739.0933 667,-739.0933 667,-720.0933 580,-720.0933"/>
<text text-anchor="start" x="583" y="-726.1933" font-family="Helvetica,sans-Serif" font-size="11.00" fill="#000000">...</text>
<polygon fill="#ffffff" stroke="transparent" points="580,-701.0933 580,-720.0933 620,-720.0933 620,-701.0933 580,-701.0933"/>
<polygon fill="none" stroke="#000000" points="580,-701.0933 580,-720.0933 620,-720.0933 620,-701.0933 580,-701.0933"/>
<text text-anchor="start" x="583" y="-707.1933" font-family="Helvetica,sans-Serif" font-size="11.00" fill="#000000">&lt; 13</text>
<polygon fill="#ffffff" stroke="transparent" points="620,-701.0933 620,-720.0933 639,-720.0933 639,-701.0933 620,-701.0933"/>
<polygon fill="none" stroke="#000000" points="620,-701.0933 620,-720.0933 639,-720.0933 639,-701.0933 620,-701.0933"/>
<text text-anchor="start" x="629.8862" y="-707.1933" font-family="Helvetica,sans-Serif" font-size="11.00" fill="#000000"> &#160;</text>
<polygon fill="#ffffff" stroke="transparent" points="639,-701.0933 639,-720.0933 667,-720.0933 667,-701.0933 639,-701.0933"/>
<polygon fill="none" stroke="#000000" points="639,-701.0933 639,-720.0933 667,-720.0933 667,-701.0933 639,-701.0933"/>
<text text-anchor="start" x="648.4053" y="-707.1933" font-family="Helvetica,sans-Serif" font-size="11.00" fill="#000000">7 &gt;</text>
</a>
</g>
</g>
<!-- emails_beans&#45;&gt;meetings -->
<g id="edge25" class="edge">
<title>emails_beans:w&#45;&gt;meetings:e</title>
<path fill="none" stroke="#000000" d="M808.4761,-417.1108C721.8506,-430.4551 822.543,-571.997 763,-660.0933 733.5765,-703.6266 719.5442,-729.0933 667,-729.0933"/>
<polygon fill="#000000" stroke="#000000" points="815.0196,-416.6524 823.2516,-419.6845 819.0098,-416.3729 823,-416.0933 823,-416.0933 823,-416.0933 819.0098,-416.3729 822.7484,-412.5021 815.0196,-416.6524 815.0196,-416.6524"/>
<ellipse fill="none" stroke="#000000" cx="811.8274" cy="-416.8761" rx="3.2" ry="3.2"/>
</g>
<!-- tasks -->
<g id="node19" class="node">
<title>tasks</title>
<g id="a_node19"><a xlink:href="../../tables/tasks.html" xlink:title="tasks" target="_top">
<polygon fill="#ffffff" stroke="transparent" points="589,-208.5933 589,-269.5933 657,-269.5933 657,-208.5933 589,-208.5933"/>
<polygon fill="#f5f5f5" stroke="transparent" points="589,-246.0933 589,-269.0933 657,-269.0933 657,-246.0933 589,-246.0933"/>
<polygon fill="none" stroke="#000000" points="589,-246.0933 589,-269.0933 657,-269.0933 657,-246.0933 589,-246.0933"/>
<text text-anchor="start" x="593.6641" y="-255.1933" font-family="Helvetica,sans-Serif" font-weight="bold" font-size="11.00" fill="#000000">tasks</text>
<text text-anchor="start" x="622.5219" y="-254.1933" font-family="Helvetica,sans-Serif" font-size="11.00" fill="#000000">[table]</text>
<polygon fill="none" stroke="#000000" points="589,-227.0933 589,-246.0933 657,-246.0933 657,-227.0933 589,-227.0933"/>
<text text-anchor="start" x="592" y="-233.1933" font-family="Helvetica,sans-Serif" font-size="11.00" fill="#000000">...</text>
<polygon fill="#ffffff" stroke="transparent" points="589,-208.0933 589,-227.0933 620,-227.0933 620,-208.0933 589,-208.0933"/>
<polygon fill="none" stroke="#000000" points="589,-208.0933 589,-227.0933 620,-227.0933 620,-208.0933 589,-208.0933"/>
<text text-anchor="start" x="592" y="-214.1933" font-family="Helvetica,sans-Serif" font-size="11.00" fill="#000000">&lt; 14</text>
<polygon fill="#ffffff" stroke="transparent" points="620,-208.0933 620,-227.0933 634,-227.0933 634,-208.0933 620,-208.0933"/>
<polygon fill="none" stroke="#000000" points="620,-208.0933 620,-227.0933 634,-227.0933 634,-208.0933 620,-208.0933"/>
<text text-anchor="start" x="624.8862" y="-214.1933" font-family="Helvetica,sans-Serif" font-size="11.00" fill="#000000"> &#160;</text>
<polygon fill="#ffffff" stroke="transparent" points="634,-208.0933 634,-227.0933 657,-227.0933 657,-208.0933 634,-208.0933"/>
<polygon fill="none" stroke="#000000" points="634,-208.0933 634,-227.0933 657,-227.0933 657,-208.0933 634,-208.0933"/>
<text text-anchor="start" x="638.4053" y="-214.1933" font-family="Helvetica,sans-Serif" font-size="11.00" fill="#000000">3 &gt;</text>
</a>
</g>
</g>
<!-- emails_beans&#45;&gt;tasks -->
<g id="edge27" class="edge">
<title>emails_beans:w&#45;&gt;tasks:e</title>
<path fill="none" stroke="#000000" d="M808.4724,-414.1883C765.3519,-400.9806 806.1687,-322.3208 763,-280.0933 726.5362,-244.4245 708.0086,-236.0933 657,-236.0933"/>
<polygon fill="#000000" stroke="#000000" points="815.0679,-415.0531 822.5319,-419.6627 819.034,-415.5732 823,-416.0933 823,-416.0933 823,-416.0933 819.034,-415.5732 823.4681,-412.5239 815.0679,-415.0531 815.0679,-415.0531"/>
<ellipse fill="none" stroke="#000000" cx="811.8951" cy="-414.6371" rx="3.2" ry="3.2"/>
</g>
<!-- meetings&#45;&gt;aos_contracts -->
<g id="edge30" class="edge">
<title>meetings:w&#45;&gt;aos_contracts:e</title>
<path fill="none" stroke="#000000" d="M565.5587,-728.804C528.854,-727.1625 511.2358,-717.97 483,-687.0933 443.8283,-644.258 500.0455,-563.0933 442,-563.0933"/>
<polygon fill="#000000" stroke="#000000" points="572.0016,-728.933 579.9279,-732.6926 576.0008,-729.0132 580,-729.0933 580,-729.0933 580,-729.0933 576.0008,-729.0132 580.0721,-725.494 572.0016,-728.933 572.0016,-728.933"/>
<ellipse fill="none" stroke="#000000" cx="568.8022" cy="-728.8689" rx="3.2" ry="3.2"/>
</g>
<!-- meetings&#45;&gt;accounts -->
<g id="edge29" class="edge">
<title>meetings:w&#45;&gt;accounts:e</title>
<path fill="none" stroke="#000000" d="M565.3628,-729.3076C519.1036,-730.7161 502.7544,-738.6636 450,-741.0933 346.1101,-745.878 319.8015,-747.5159 216,-741.0933 180.016,-738.8668 171.5528,-731.0933 135.5,-731.0933"/>
<polygon fill="#000000" stroke="#000000" points="572.0009,-729.2105 580.0527,-732.6929 576.0004,-729.1519 580,-729.0933 580,-729.0933 580,-729.0933 576.0004,-729.1519 579.9473,-725.4937 572.0009,-729.2105 572.0009,-729.2105"/>
<ellipse fill="none" stroke="#000000" cx="568.8012" cy="-729.2574" rx="3.2" ry="3.2"/>
</g>
<!-- meetings&#45;&gt;opportunities -->
<g id="edge31" class="edge">
<title>meetings:w&#45;&gt;opportunities:e</title>
<path fill="none" stroke="#000000" d="M565.4317,-729.2259C474.7402,-730.6703 272.3328,-742.4448 216,-690.0933 85.9533,-569.2375 322.0339,-297.0933 144.5,-297.0933"/>
<polygon fill="#000000" stroke="#000000" points="572.0003,-729.1661 580.0328,-732.6932 576.0002,-729.1297 580,-729.0933 580,-729.0933 580,-729.0933 576.0002,-729.1297 579.9672,-725.4935 572.0003,-729.1661 572.0003,-729.1661"/>
<ellipse fill="none" stroke="#000000" cx="568.8005" cy="-729.1953" rx="3.2" ry="3.2"/>
</g>
<!-- tasks&#45;&gt;aos_contracts -->
<g id="edge51" class="edge">
<title>tasks:w&#45;&gt;aos_contracts:e</title>
<path fill="none" stroke="#000000" d="M574.5358,-236.2366C533.1959,-237.1976 511.1812,-243.828 483,-280.0933 444.0086,-330.2699 505.5455,-563.0933 442,-563.0933"/>
<polygon fill="#000000" stroke="#000000" points="581.0004,-236.1726 589.0357,-239.6931 585.0002,-236.1329 589,-236.0933 589,-236.0933 589,-236.0933 585.0002,-236.1329 588.9643,-232.4935 581.0004,-236.1726 581.0004,-236.1726"/>
<ellipse fill="none" stroke="#000000" cx="577.8005" cy="-236.2043" rx="3.2" ry="3.2"/>
</g>
<!-- tasks&#45;&gt;contacts -->
<g id="edge49" class="edge">
<title>tasks:w&#45;&gt;contacts:e</title>
<path fill="none" stroke="#000000" d="M574.3867,-236.0229C383.2894,-234.164 331.762,-196.0933 133.5,-196.0933"/>
<polygon fill="#000000" stroke="#000000" points="581.0001,-236.0547 588.9826,-239.6933 585,-236.074 589,-236.0933 589,-236.0933 589,-236.0933 585,-236.074 589.0174,-232.4933 581.0001,-236.0547 581.0001,-236.0547"/>
<ellipse fill="none" stroke="#000000" cx="577.8001" cy="-236.0393" rx="3.2" ry="3.2"/>
</g>
<!-- tasks&#45;&gt;contacts -->
<g id="edge52" class="edge">
<title>tasks:w&#45;&gt;contacts:e</title>
<path fill="none" stroke="#000000" d="M574.3867,-236.0229C383.2894,-234.164 331.762,-196.0933 133.5,-196.0933"/>
<polygon fill="#000000" stroke="#000000" points="581.0001,-236.0547 588.9826,-239.6933 585,-236.074 589,-236.0933 589,-236.0933 589,-236.0933 585,-236.074 589.0174,-232.4933 581.0001,-236.0547 581.0001,-236.0547"/>
<ellipse fill="none" stroke="#000000" cx="577.8001" cy="-236.0393" rx="3.2" ry="3.2"/>
</g>
<!-- tasks&#45;&gt;accounts -->
<g id="edge50" class="edge">
<title>tasks:w&#45;&gt;accounts:e</title>
<path fill="none" stroke="#000000" d="M574.3591,-236.6616C521.8826,-240.9227 508.2009,-268.0897 450,-282.0933 398.848,-294.4009 253.936,-281.6398 216,-318.0933 81.1555,-447.6682 322.5099,-731.0933 135.5,-731.0933"/>
<polygon fill="#000000" stroke="#000000" points="581.006,-236.4036 589.1397,-239.6906 585.003,-236.2485 589,-236.0933 589,-236.0933 589,-236.0933 585.003,-236.2485 588.8603,-232.496 581.006,-236.4036 581.006,-236.4036"/>
<ellipse fill="none" stroke="#000000" cx="577.8084" cy="-236.5278" rx="3.2" ry="3.2"/>
</g>
<!-- tasks&#45;&gt;opportunities -->
<g id="edge53" class="edge">
<title>tasks:w&#45;&gt;opportunities:e</title>
<path fill="none" stroke="#000000" d="M574.3841,-236.2049C387.2222,-239.0936 338.9414,-297.0933 144.5,-297.0933"/>
<polygon fill="#000000" stroke="#000000" points="581.0002,-236.1544 589.0275,-239.6932 585.0001,-236.1239 589,-236.0933 589,-236.0933 589,-236.0933 585.0001,-236.1239 588.9725,-232.4934 581.0002,-236.1544 581.0002,-236.1544"/>
<ellipse fill="none" stroke="#000000" cx="577.8003" cy="-236.1789" rx="3.2" ry="3.2"/>
</g>
<!-- linked_documents -->
<g id="node20" class="node">
<title>linked_documents</title>
<g id="a_node20"><a xlink:href="../../tables/linked_documents.html" xlink:title="linked_documents" target="_top">
<polygon fill="#ffffff" stroke="transparent" points="267.5,-1503.5933 267.5,-1564.5933 398.5,-1564.5933 398.5,-1503.5933 267.5,-1503.5933"/>
<polygon fill="#f5f5f5" stroke="transparent" points="268,-1541.0933 268,-1564.0933 399,-1564.0933 399,-1541.0933 268,-1541.0933"/>
<polygon fill="none" stroke="#000000" points="268,-1541.0933 268,-1564.0933 399,-1564.0933 399,-1541.0933 268,-1541.0933"/>
<text text-anchor="start" x="272.6826" y="-1550.1933" font-family="Helvetica,sans-Serif" font-weight="bold" font-size="11.00" fill="#000000">linked_documents</text>
<text text-anchor="start" x="364.5219" y="-1549.1933" font-family="Helvetica,sans-Serif" font-size="11.00" fill="#000000">[table]</text>
<polygon fill="none" stroke="#000000" points="268,-1522.0933 268,-1541.0933 399,-1541.0933 399,-1522.0933 268,-1522.0933"/>
<text text-anchor="start" x="271" y="-1528.1933" font-family="Helvetica,sans-Serif" font-size="11.00" fill="#000000">...</text>
<polygon fill="#ffffff" stroke="transparent" points="268,-1503.0933 268,-1522.0933 332,-1522.0933 332,-1503.0933 268,-1503.0933"/>
<polygon fill="none" stroke="#000000" points="268,-1503.0933 268,-1522.0933 332,-1522.0933 332,-1503.0933 268,-1503.0933"/>
<text text-anchor="start" x="271" y="-1509.1933" font-family="Helvetica,sans-Serif" font-size="11.00" fill="#000000">&lt; 2</text>
<polygon fill="#ffffff" stroke="transparent" points="332,-1503.0933 332,-1522.0933 365,-1522.0933 365,-1503.0933 332,-1503.0933"/>
<polygon fill="none" stroke="#000000" points="332,-1503.0933 332,-1522.0933 365,-1522.0933 365,-1503.0933 332,-1503.0933"/>
<text text-anchor="start" x="355.8862" y="-1509.1933" font-family="Helvetica,sans-Serif" font-size="11.00" fill="#000000"> &#160;</text>
<polygon fill="#ffffff" stroke="transparent" points="365,-1503.0933 365,-1522.0933 399,-1522.0933 399,-1503.0933 365,-1503.0933"/>
<polygon fill="none" stroke="#000000" points="365,-1503.0933 365,-1522.0933 399,-1522.0933 399,-1503.0933 365,-1503.0933"/>
<text text-anchor="start" x="389.8862" y="-1509.1933" font-family="Helvetica,sans-Serif" font-size="11.00" fill="#000000"> &#160;</text>
</a>
</g>
</g>
<!-- linked_documents&#45;&gt;documents -->
<g id="edge28" class="edge">
<title>linked_documents:w&#45;&gt;documents:e</title>
<path fill="none" stroke="#000000" d="M253.461,-1529.4111C235.3085,-1524.6201 228.2463,-1509.8938 216,-1489.0933 189.4478,-1443.9939 227.8352,-1257.0933 175.5,-1257.0933"/>
<polygon fill="#000000" stroke="#000000" points="260.053,-1530.1738 267.5862,-1534.6694 264.0265,-1530.6335 268,-1531.0933 268,-1531.0933 268,-1531.0933 264.0265,-1530.6335 268.4138,-1527.5172 260.053,-1530.1738 260.053,-1530.1738"/>
<ellipse fill="none" stroke="#000000" cx="256.8742" cy="-1529.806" rx="3.2" ry="3.2"/>
</g>
<!-- notes -->
<g id="node21" class="node">
<title>notes</title>
<g id="a_node21"><a xlink:href="../../tables/notes.html" xlink:title="notes" target="_top">
<polygon fill="#ffffff" stroke="transparent" points="843.5,-270.5933 843.5,-331.5933 912.5,-331.5933 912.5,-270.5933 843.5,-270.5933"/>
<polygon fill="#f5f5f5" stroke="transparent" points="844,-308.0933 844,-331.0933 913,-331.0933 913,-308.0933 844,-308.0933"/>
<polygon fill="none" stroke="#000000" points="844,-308.0933 844,-331.0933 913,-331.0933 913,-308.0933 844,-308.0933"/>
<text text-anchor="start" x="848.5492" y="-317.1933" font-family="Helvetica,sans-Serif" font-weight="bold" font-size="11.00" fill="#000000">notes</text>
<text text-anchor="start" x="878.5219" y="-316.1933" font-family="Helvetica,sans-Serif" font-size="11.00" fill="#000000">[table]</text>
<polygon fill="none" stroke="#000000" points="844,-289.0933 844,-308.0933 913,-308.0933 913,-289.0933 844,-289.0933"/>
<text text-anchor="start" x="847" y="-295.1933" font-family="Helvetica,sans-Serif" font-size="11.00" fill="#000000">...</text>
<polygon fill="#ffffff" stroke="transparent" points="844,-270.0933 844,-289.0933 875,-289.0933 875,-270.0933 844,-270.0933"/>
<polygon fill="none" stroke="#000000" points="844,-270.0933 844,-289.0933 875,-289.0933 875,-270.0933 844,-270.0933"/>
<text text-anchor="start" x="847" y="-276.1933" font-family="Helvetica,sans-Serif" font-size="11.00" fill="#000000">&lt; 19</text>
<polygon fill="#ffffff" stroke="transparent" points="875,-270.0933 875,-289.0933 889,-289.0933 889,-270.0933 875,-270.0933"/>
<polygon fill="none" stroke="#000000" points="875,-270.0933 875,-289.0933 889,-289.0933 889,-270.0933 875,-270.0933"/>
<text text-anchor="start" x="879.8862" y="-276.1933" font-family="Helvetica,sans-Serif" font-size="11.00" fill="#000000"> &#160;</text>
<polygon fill="#ffffff" stroke="transparent" points="889,-270.0933 889,-289.0933 913,-289.0933 913,-270.0933 889,-270.0933"/>
<polygon fill="none" stroke="#000000" points="889,-270.0933 889,-289.0933 913,-289.0933 913,-270.0933 889,-270.0933"/>
<text text-anchor="start" x="894.4053" y="-276.1933" font-family="Helvetica,sans-Serif" font-size="11.00" fill="#000000">1 &gt;</text>
</a>
</g>
</g>
<!-- notes&#45;&gt;aos_contracts -->
<g id="edge34" class="edge">
<title>notes:w&#45;&gt;aos_contracts:e</title>
<path fill="none" stroke="#000000" d="M829.4629,-299.9454C799.0142,-308.6024 799.6898,-345.3606 763,-362.0933 647.7641,-414.6477 576.2041,-329.3362 483,-415.0933 432.7714,-461.3086 510.2551,-563.0933 442,-563.0933"/>
<polygon fill="#000000" stroke="#000000" points="836.0641,-299.1044 844.455,-301.6644 840.0321,-298.5988 844,-298.0933 844,-298.0933 844,-298.0933 840.0321,-298.5988 843.545,-294.5222 836.0641,-299.1044 836.0641,-299.1044"/>
<ellipse fill="none" stroke="#000000" cx="832.8898" cy="-299.5088" rx="3.2" ry="3.2"/>
</g>
<!-- notes&#45;&gt;contacts -->
<g id="edge32" class="edge">
<title>notes:w&#45;&gt;contacts:e</title>
<path fill="none" stroke="#000000" d="M829.4912,-296.2767C782.9528,-283.0405 816.298,-201.0519 763,-169.0933 554.3305,-43.9707 450.6237,-82.6703 216,-147.0933 174.8757,-158.3852 176.1464,-196.0933 133.5,-196.0933"/>
<polygon fill="#000000" stroke="#000000" points="836.062,-297.0994 843.5527,-301.6654 840.031,-297.5963 844,-298.0933 844,-298.0933 844,-298.0933 840.031,-297.5963 844.4473,-294.5212 836.062,-297.0994 836.062,-297.0994"/>
<ellipse fill="none" stroke="#000000" cx="832.8868" cy="-296.7018" rx="3.2" ry="3.2"/>
</g>
<!-- notes&#45;&gt;contacts -->
<g id="edge36" class="edge">
<title>notes:w&#45;&gt;contacts:e</title>
<path fill="none" stroke="#000000" d="M829.4918,-296.2484C784.1913,-283.1544 815.2285,-203.9057 763,-173.0933 553.4424,-49.4639 451.7635,-90.975 216,-151.0933 175.5285,-161.4133 175.2665,-196.0933 133.5,-196.0933"/>
<polygon fill="#000000" stroke="#000000" points="836.0639,-297.0841 843.5458,-301.6645 840.032,-297.5887 844,-298.0933 844,-298.0933 844,-298.0933 840.032,-297.5887 844.4542,-294.5221 836.0639,-297.0841 836.0639,-297.0841"/>
<ellipse fill="none" stroke="#000000" cx="832.8895" cy="-296.6804" rx="3.2" ry="3.2"/>
</g>
<!-- notes&#45;&gt;accounts -->
<g id="edge33" class="edge">
<title>notes:w&#45;&gt;accounts:e</title>
<path fill="none" stroke="#000000" d="M829.5369,-300.274C804.0776,-309.2254 807.7285,-344.2737 796,-378.0933 777.0615,-432.703 802.9699,-594.3405 763,-636.0933 738.6183,-661.5626 170.7584,-731.0933 135.5,-731.0933"/>
<polygon fill="#000000" stroke="#000000" points="836.0894,-299.2861 844.5368,-301.6531 840.0447,-298.6897 844,-298.0933 844,-298.0933 844,-298.0933 840.0447,-298.6897 843.4632,-294.5335 836.0894,-299.2861 836.0894,-299.2861"/>
<ellipse fill="none" stroke="#000000" cx="832.9252" cy="-299.7632" rx="3.2" ry="3.2"/>
</g>
<!-- notes&#45;&gt;opportunities -->
<g id="edge38" class="edge">
<title>notes:w&#45;&gt;opportunities:e</title>
<path fill="none" stroke="#000000" d="M829.5227,-296.0541C791.4807,-283.8547 809.5838,-220.3089 763,-198.0933 650.6748,-144.5259 606.9324,-186.8154 483,-198.0933 362.848,-209.0272 327.3173,-200.569 216,-247.0933 180.2221,-262.0464 183.277,-297.0933 144.5,-297.0933"/>
<polygon fill="#000000" stroke="#000000" points="836.0782,-296.9774 843.4979,-301.6581 840.0391,-297.5354 844,-298.0933 844,-298.0933 844,-298.0933 840.0391,-297.5354 844.5021,-294.5285 836.0782,-296.9774 836.0782,-296.9774"/>
<ellipse fill="none" stroke="#000000" cx="832.9095" cy="-296.5311" rx="3.2" ry="3.2"/>
</g>
<!-- notes&#45;&gt;calls -->
<g id="edge35" class="edge">
<title>notes:w&#45;&gt;calls:e</title>
<path fill="none" stroke="#000000" d="M829.3367,-298.3044C756.8655,-300.4419 734.3547,-318.0933 655,-318.0933"/>
<polygon fill="#000000" stroke="#000000" points="836.0008,-298.2085 844.0518,-301.6929 840.0004,-298.1509 844,-298.0933 844,-298.0933 844,-298.0933 840.0004,-298.1509 843.9482,-294.4937 836.0008,-298.2085 836.0008,-298.2085"/>
<ellipse fill="none" stroke="#000000" cx="832.8012" cy="-298.2546" rx="3.2" ry="3.2"/>
</g>
<!-- notes&#45;&gt;meetings -->
<g id="edge37" class="edge">
<title>notes:w&#45;&gt;meetings:e</title>
<path fill="none" stroke="#000000" d="M829.5267,-300.2705C804.028,-309.2083 807.547,-344.2113 796,-378.0933 755.2939,-497.536 827.015,-551.3475 763,-660.0933 736.3446,-705.3744 719.5442,-729.0933 667,-729.0933"/>
<polygon fill="#000000" stroke="#000000" points="836.089,-299.2834 844.5355,-301.6532 840.0445,-298.6884 844,-298.0933 844,-298.0933 844,-298.0933 840.0445,-298.6884 843.4645,-294.5334 836.089,-299.2834 836.089,-299.2834"/>
<ellipse fill="none" stroke="#000000" cx="832.9246" cy="-299.7594" rx="3.2" ry="3.2"/>
</g>
<!-- notes&#45;&gt;tasks -->
<g id="edge39" class="edge">
<title>notes:w&#45;&gt;tasks:e</title>
<path fill="none" stroke="#000000" d="M829.3576,-297.4797C754.7879,-291.0405 739.4296,-236.0933 657,-236.0933"/>
<polygon fill="#000000" stroke="#000000" points="836.007,-297.7583 843.8492,-301.6901 840.0035,-297.9258 844,-298.0933 844,-298.0933 844,-298.0933 840.0035,-297.9258 844.1508,-294.4965 836.007,-297.7583 836.007,-297.7583"/>
<ellipse fill="none" stroke="#000000" cx="832.8098" cy="-297.6243" rx="3.2" ry="3.2"/>
</g>
<!-- securitygroups_records -->
<g id="node22" class="node">
<title>securitygroups_records</title>
<g id="a_node22"><a xlink:href="../../tables/securitygroups_records.html" xlink:title="securitygroups_records" target="_top">
<polygon fill="#ffffff" stroke="transparent" points="1001,-328.5933 1001,-389.5933 1158,-389.5933 1158,-328.5933 1001,-328.5933"/>
<polygon fill="#f5f5f5" stroke="transparent" points="1001.5,-366.0933 1001.5,-389.0933 1158.5,-389.0933 1158.5,-366.0933 1001.5,-366.0933"/>
<polygon fill="none" stroke="#000000" points="1001.5,-366.0933 1001.5,-389.0933 1158.5,-389.0933 1158.5,-366.0933 1001.5,-366.0933"/>
<text text-anchor="start" x="1006.3528" y="-375.1933" font-family="Helvetica,sans-Serif" font-weight="bold" font-size="11.00" fill="#000000">securitygroups_records</text>
<text text-anchor="start" x="1124.0219" y="-374.1933" font-family="Helvetica,sans-Serif" font-size="11.00" fill="#000000">[table]</text>
<polygon fill="none" stroke="#000000" points="1001.5,-347.0933 1001.5,-366.0933 1158.5,-366.0933 1158.5,-347.0933 1001.5,-347.0933"/>
<text text-anchor="start" x="1004.5" y="-353.1933" font-family="Helvetica,sans-Serif" font-size="11.00" fill="#000000">...</text>
<polygon fill="#ffffff" stroke="transparent" points="1001.5,-328.0933 1001.5,-347.0933 1081.5,-347.0933 1081.5,-328.0933 1001.5,-328.0933"/>
<polygon fill="none" stroke="#000000" points="1001.5,-328.0933 1001.5,-347.0933 1081.5,-347.0933 1081.5,-328.0933 1001.5,-328.0933"/>
<text text-anchor="start" x="1004.5" y="-334.1933" font-family="Helvetica,sans-Serif" font-size="11.00" fill="#000000">&lt; 41</text>
<polygon fill="#ffffff" stroke="transparent" points="1081.5,-328.0933 1081.5,-347.0933 1119.5,-347.0933 1119.5,-328.0933 1081.5,-328.0933"/>
<polygon fill="none" stroke="#000000" points="1081.5,-328.0933 1081.5,-347.0933 1119.5,-347.0933 1119.5,-328.0933 1081.5,-328.0933"/>
<text text-anchor="start" x="1110.3862" y="-334.1933" font-family="Helvetica,sans-Serif" font-size="11.00" fill="#000000"> &#160;</text>
<polygon fill="#ffffff" stroke="transparent" points="1119.5,-328.0933 1119.5,-347.0933 1158.5,-347.0933 1158.5,-328.0933 1119.5,-328.0933"/>
<polygon fill="none" stroke="#000000" points="1119.5,-328.0933 1119.5,-347.0933 1158.5,-347.0933 1158.5,-328.0933 1119.5,-328.0933"/>
<text text-anchor="start" x="1149.3862" y="-334.1933" font-family="Helvetica,sans-Serif" font-size="11.00" fill="#000000"> &#160;</text>
</a>
</g>
</g>
<!-- securitygroups_records&#45;&gt;aos_contracts -->
<g id="edge41" class="edge">
<title>securitygroups_records:w&#45;&gt;aos_contracts:e</title>
<path fill="none" stroke="#000000" d="M987.2544,-358.9773C961.3132,-372.4794 991.7887,-430.0489 960,-460.0933 892.8915,-523.5194 853.2816,-506.7116 763,-526.0933 640.7209,-552.3442 606.5097,-534.4303 483,-554.0933 464.5759,-557.0264 460.6561,-563.0933 442,-563.0933"/>
<polygon fill="#000000" stroke="#000000" points="993.6591,-357.6808 1002.2144,-359.6217 997.5795,-356.887 1001.5,-356.0933 1001.5,-356.0933 1001.5,-356.0933 997.5795,-356.887 1000.7856,-352.5649 993.6591,-357.6808 993.6591,-357.6808"/>
<ellipse fill="none" stroke="#000000" cx="990.5227" cy="-358.3157" rx="3.2" ry="3.2"/>
</g>
<!-- securitygroups_records&#45;&gt;contacts -->
<g id="edge43" class="edge">
<title>securitygroups_records:w&#45;&gt;contacts:e</title>
<path fill="none" stroke="#000000" d="M986.8734,-354.5305C928.8012,-340.129 1011.439,-229.6826 960,-169.0933 898.9479,-97.1808 855.6233,-107.973 763,-90.0933 524.2813,-44.012 434.7384,10.0371 216,-96.0933 164.1622,-121.2447 191.1173,-196.0933 133.5,-196.0933"/>
<polygon fill="#000000" stroke="#000000" points="993.5453,-355.2433 1001.1175,-359.6729 997.5226,-355.6683 1001.5,-356.0933 1001.5,-356.0933 1001.5,-356.0933 997.5226,-355.6683 1001.8825,-352.5137 993.5453,-355.2433 993.5453,-355.2433"/>
<ellipse fill="none" stroke="#000000" cx="990.3634" cy="-354.9033" rx="3.2" ry="3.2"/>
</g>
<!-- securitygroups_records&#45;&gt;accounts -->
<g id="edge40" class="edge">
<title>securitygroups_records:w&#45;&gt;accounts:e</title>
<path fill="none" stroke="#000000" d="M987.4381,-359.7968C931.8959,-392.7532 985.4037,-636.1285 960,-704.0933 905.4461,-850.046 900.6968,-921.1692 763,-994.0933 653.026,-1052.3354 604.5567,-1020.7462 483,-994.0933 355.3787,-966.1106 312.4542,-959.2228 216,-871.0933 163.0123,-822.6789 207.275,-731.0933 135.5,-731.0933"/>
<polygon fill="#000000" stroke="#000000" points="993.7638,-358.1308 1002.4169,-359.5746 997.6319,-357.1121 1001.5,-356.0933 1001.5,-356.0933 1001.5,-356.0933 997.6319,-357.1121 1000.5831,-352.612 993.7638,-358.1308 993.7638,-358.1308"/>
<ellipse fill="none" stroke="#000000" cx="990.6693" cy="-358.9458" rx="3.2" ry="3.2"/>
</g>
<!-- securitygroups_records&#45;&gt;opportunities -->
<g id="edge47" class="edge">
<title>securitygroups_records:w&#45;&gt;opportunities:e</title>
<path fill="none" stroke="#000000" d="M987.0164,-353.8721C948.03,-339.2321 1003.2194,-255.9229 960,-215.0933 894.6422,-153.3494 852.32,-179.3831 763,-169.0933 521.147,-141.2314 426.4514,-75.7031 216,-198.0933 169.0818,-225.3791 198.7755,-297.0933 144.5,-297.0933"/>
<polygon fill="#000000" stroke="#000000" points="993.5924,-354.8806 1000.9543,-359.6517 997.5462,-355.4869 1001.5,-356.0933 1001.5,-356.0933 1001.5,-356.0933 997.5462,-355.4869 1002.0457,-352.5349 993.5924,-354.8806 993.5924,-354.8806"/>
<ellipse fill="none" stroke="#000000" cx="990.4294" cy="-354.3955" rx="3.2" ry="3.2"/>
</g>
<!-- securitygroups_records&#45;&gt;documents -->
<g id="edge44" class="edge">
<title>securitygroups_records:w&#45;&gt;documents:e</title>
<path fill="none" stroke="#000000" d="M989.6935,-364.5583C951.7784,-425.9943 979.0804,-802.3775 960,-849.0933 825.6061,-1178.1379 771.6339,-1313.8197 450,-1465.0933 402.9447,-1487.2247 256.1298,-1498.163 216,-1465.0933 143.3184,-1405.1987 269.6805,-1257.0933 175.5,-1257.0933"/>
<polygon fill="#000000" stroke="#000000" points="994.9984,-360.7548 1003.5977,-359.019 998.2492,-358.4241 1001.5,-356.0933 1001.5,-356.0933 1001.5,-356.0933 998.2492,-358.4241 999.4023,-353.1676 994.9984,-360.7548 994.9984,-360.7548"/>
<ellipse fill="none" stroke="#000000" cx="992.3978" cy="-362.6194" rx="3.2" ry="3.2"/>
</g>
<!-- securitygroups_records&#45;&gt;calls -->
<g id="edge42" class="edge">
<title>securitygroups_records:w&#45;&gt;calls:e</title>
<path fill="none" stroke="#000000" d="M987.0731,-356.0639C907.2309,-355.7211 881.9337,-352.3078 796,-342.0933 732.8764,-334.5902 718.568,-318.0933 655,-318.0933"/>
<polygon fill="#000000" stroke="#000000" points="993.5,-356.077 1001.4926,-359.6933 997.5,-356.0851 1001.5,-356.0933 1001.5,-356.0933 1001.5,-356.0933 997.5,-356.0851 1001.5074,-352.4933 993.5,-356.077 993.5,-356.077"/>
<ellipse fill="none" stroke="#000000" cx="990.3" cy="-356.0704" rx="3.2" ry="3.2"/>
</g>
<!-- securitygroups_records&#45;&gt;meetings -->
<g id="edge45" class="edge">
<title>securitygroups_records:w&#45;&gt;meetings:e</title>
<path fill="none" stroke="#000000" d="M987.585,-360.8906C945.0326,-395.7541 1001.2935,-610.1401 960,-656.0933 870.3001,-755.9151 801.2031,-729.0933 667,-729.0933"/>
<polygon fill="#000000" stroke="#000000" points="993.9369,-358.7008 1002.6734,-359.4967 997.7184,-357.3971 1001.5,-356.0933 1001.5,-356.0933 1001.5,-356.0933 997.7184,-357.3971 1000.3266,-352.6899 993.9369,-358.7008 993.9369,-358.7008"/>
<ellipse fill="none" stroke="#000000" cx="990.9116" cy="-359.7438" rx="3.2" ry="3.2"/>
</g>
<!-- securitygroups_records&#45;&gt;tasks -->
<g id="edge48" class="edge">
<title>securitygroups_records:w&#45;&gt;tasks:e</title>
<path fill="none" stroke="#000000" d="M987.3057,-352.704C964.9616,-338.5158 992.7856,-283.544 960,-260.0933 850.1255,-181.5028 792.0884,-236.0933 657,-236.0933"/>
<polygon fill="#000000" stroke="#000000" points="993.7188,-354.2353 1000.6639,-359.5949 997.6094,-355.1643 1001.5,-356.0933 1001.5,-356.0933 1001.5,-356.0933 997.6094,-355.1643 1002.3361,-352.5917 993.7188,-354.2353 993.7188,-354.2353"/>
<ellipse fill="none" stroke="#000000" cx="990.6063" cy="-353.492" rx="3.2" ry="3.2"/>
</g>
<!-- securitygroups_records&#45;&gt;notes -->
<g id="edge46" class="edge">
<title>securitygroups_records:w&#45;&gt;notes:e</title>
<path fill="none" stroke="#000000" d="M986.9639,-353.8905C955.0522,-343.2961 954.5166,-298.0933 913,-298.0933"/>
<polygon fill="#000000" stroke="#000000" points="993.5903,-354.8946 1000.9606,-359.6527 997.5452,-355.4939 1001.5,-356.0933 1001.5,-356.0933 1001.5,-356.0933 997.5452,-355.4939 1002.0394,-352.5339 993.5903,-354.8946 993.5903,-354.8946"/>
<ellipse fill="none" stroke="#000000" cx="990.4264" cy="-354.4151" rx="3.2" ry="3.2"/>
</g>
</g>
</svg>
