<?xml version="1.0" encoding="UTF-8" standalone="no"?>
<!DOCTYPE svg PUBLIC "-//W3C//DTD SVG 1.1//EN"
 "http://www.w3.org/Graphics/SVG/1.1/DTD/svg11.dtd">
<!-- Generated by graphviz version 2.40.1 (20161225.0304)
 -->
<!-- Title: twoDegreesRelationshipsDiagram Pages: 1 -->
<svg width="1074pt" height="1209pt"
 viewBox="0.00 0.00 1074.00 1209.35" xmlns="http://www.w3.org/2000/svg" xmlns:xlink="http://www.w3.org/1999/xlink">
<g id="graph0" class="graph" transform="scale(1 1) rotate(0) translate(4 1205.3543)">
<title>twoDegreesRelationshipsDiagram</title>
<polygon fill="#ffffff" stroke="transparent" points="-4,4 -4,-1205.3543 1070,-1205.3543 1070,4 -4,4"/>
<text text-anchor="middle" x="72.4936" y="-7.3" font-family="Helvetica,sans-Serif" font-size="11.00" fill="#000000">Generated by SchemaSpy</text>
<!-- aos_contracts -->
<g id="node1" class="node">
<title>aos_contracts</title>
<g id="a_node1"><a xlink:href="../../tables/aos_contracts.html" xlink:title="aos_contracts" target="_top">
<polygon fill="#ffffff" stroke="transparent" points="162,-513.0421 162,-728.0421 380,-728.0421 380,-513.0421 162,-513.0421"/>
<polygon fill="#f5f5f5" stroke="transparent" points="162,-704.5421 162,-727.5421 380,-727.5421 380,-704.5421 162,-704.5421"/>
<polygon fill="none" stroke="#000000" points="162,-704.5421 162,-727.5421 380,-727.5421 380,-704.5421 162,-704.5421"/>
<text text-anchor="start" x="167" y="-713.6421" font-family="Helvetica,sans-Serif" font-weight="bold" font-size="11.00" fill="#000000">aos_contracts</text>
<text text-anchor="start" x="345.0437" y="-712.6421" font-family="Helvetica,sans-Serif" font-size="11.00" fill="#000000">[table]</text>
<polygon fill="none" stroke="#000000" points="162,-682.5421 162,-704.5421 380,-704.5421 380,-682.5421 162,-682.5421"/>
<image xlink:href="../../images/primaryKeys.png" width="11px" height="12px" preserveAspectRatio="xMinYMin meet" x="167" y="-699.542"/>
<text text-anchor="start" x="182" y="-689.6421" font-family="Helvetica,sans-Serif" font-size="11.00" fill="#000000">id</text>
<polygon fill="#c0c0c0" stroke="transparent" points="162,-660.5421 162,-682.5421 380,-682.5421 380,-660.5421 162,-660.5421"/>
<polygon fill="none" stroke="#000000" points="162,-660.5421 162,-682.5421 380,-682.5421 380,-660.5421 162,-660.5421"/>
<image xlink:href="../../images/foreignKeys.png" width="11px" height="12px" preserveAspectRatio="xMinYMin meet" x="167" y="-677.542"/>
<text text-anchor="start" x="182" y="-667.6421" font-family="Helvetica,sans-Serif" font-size="11.00" fill="#000000">modified_user_id</text>
<polygon fill="#c0c0c0" stroke="transparent" points="162,-638.5421 162,-660.5421 380,-660.5421 380,-638.5421 162,-638.5421"/>
<polygon fill="none" stroke="#000000" points="162,-638.5421 162,-660.5421 380,-660.5421 380,-638.5421 162,-638.5421"/>
<image xlink:href="../../images/foreignKeys.png" width="11px" height="12px" preserveAspectRatio="xMinYMin meet" x="167" y="-655.542"/>
<text text-anchor="start" x="182" y="-645.6421" font-family="Helvetica,sans-Serif" font-size="11.00" fill="#000000">created_by</text>
<polygon fill="#c0c0c0" stroke="transparent" points="162,-616.5421 162,-638.5421 380,-638.5421 380,-616.5421 162,-616.5421"/>
<polygon fill="none" stroke="#000000" points="162,-616.5421 162,-638.5421 380,-638.5421 380,-616.5421 162,-616.5421"/>
<image xlink:href="../../images/foreignKeys.png" width="11px" height="12px" preserveAspectRatio="xMinYMin meet" x="167" y="-633.542"/>
<text text-anchor="start" x="182" y="-623.6421" font-family="Helvetica,sans-Serif" font-size="11.00" fill="#000000">assigned_user_id</text>
<polygon fill="none" stroke="#000000" points="162,-594.5421 162,-616.5421 380,-616.5421 380,-594.5421 162,-594.5421"/>
<image xlink:href="../../images/foreignKeys.png" width="11px" height="12px" preserveAspectRatio="xMinYMin meet" x="167" y="-611.542"/>
<text text-anchor="start" x="182" y="-601.6421" font-family="Helvetica,sans-Serif" font-size="11.00" fill="#000000">contract_account_id</text>
<polygon fill="none" stroke="#000000" points="162,-572.5421 162,-594.5421 380,-594.5421 380,-572.5421 162,-572.5421"/>
<image xlink:href="../../images/foreignKeys.png" width="11px" height="12px" preserveAspectRatio="xMinYMin meet" x="167" y="-589.542"/>
<text text-anchor="start" x="182" y="-579.6421" font-family="Helvetica,sans-Serif" font-size="11.00" fill="#000000">opportunity_id</text>
<polygon fill="none" stroke="#000000" points="162,-550.5421 162,-572.5421 380,-572.5421 380,-550.5421 162,-550.5421"/>
<image xlink:href="../../images/foreignKeys.png" width="11px" height="12px" preserveAspectRatio="xMinYMin meet" x="167" y="-567.542"/>
<text text-anchor="start" x="182" y="-557.6421" font-family="Helvetica,sans-Serif" font-size="11.00" fill="#000000">contact_id</text>
<polygon fill="none" stroke="#000000" points="162,-531.5421 162,-550.5421 380,-550.5421 380,-531.5421 162,-531.5421"/>
<text text-anchor="start" x="165" y="-537.6421" font-family="Helvetica,sans-Serif" font-size="11.00" fill="#000000">...</text>
<polygon fill="#ffffff" stroke="transparent" points="162,-512.5421 162,-531.5421 262,-531.5421 262,-512.5421 162,-512.5421"/>
<polygon fill="none" stroke="#000000" points="162,-512.5421 162,-531.5421 262,-531.5421 262,-512.5421 162,-512.5421"/>
<text text-anchor="start" x="165" y="-518.6421" font-family="Helvetica,sans-Serif" font-size="11.00" fill="#000000">&lt; 6</text>
<polygon fill="#ffffff" stroke="transparent" points="262,-512.5421 262,-531.5421 313,-531.5421 313,-512.5421 262,-512.5421"/>
<polygon fill="none" stroke="#000000" points="262,-512.5421 262,-531.5421 313,-531.5421 313,-512.5421 262,-512.5421"/>
<text text-anchor="start" x="303.8862" y="-518.6421" font-family="Helvetica,sans-Serif" font-size="11.00" fill="#000000"> &#160;</text>
<polygon fill="#ffffff" stroke="transparent" points="313,-512.5421 313,-531.5421 380,-531.5421 380,-512.5421 313,-512.5421"/>
<polygon fill="none" stroke="#000000" points="313,-512.5421 313,-531.5421 380,-531.5421 380,-512.5421 313,-512.5421"/>
<text text-anchor="start" x="355.2904" y="-518.6421" font-family="Helvetica,sans-Serif" font-size="11.00" fill="#000000">11 &gt;</text>
</a>
</g>
</g>
<!-- contacts -->
<g id="node2" class="node">
<title>contacts</title>
<g id="a_node2"><a xlink:href="../../tables/contacts.html" xlink:title="contacts" target="_top">
<polygon fill="#ffffff" stroke="transparent" points="19,-101.0421 19,-162.0421 102,-162.0421 102,-101.0421 19,-101.0421"/>
<polygon fill="#f5f5f5" stroke="transparent" points="19.5,-138.5421 19.5,-161.5421 102.5,-161.5421 102.5,-138.5421 19.5,-138.5421"/>
<polygon fill="none" stroke="#000000" points="19.5,-138.5421 19.5,-161.5421 102.5,-161.5421 102.5,-138.5421 19.5,-138.5421"/>
<text text-anchor="start" x="24.0208" y="-147.6421" font-family="Helvetica,sans-Serif" font-weight="bold" font-size="11.00" fill="#000000">contacts</text>
<text text-anchor="start" x="68.0219" y="-146.6421" font-family="Helvetica,sans-Serif" font-size="11.00" fill="#000000">[table]</text>
<polygon fill="none" stroke="#000000" points="19.5,-119.5421 19.5,-138.5421 102.5,-138.5421 102.5,-119.5421 19.5,-119.5421"/>
<text text-anchor="start" x="22.5" y="-125.6421" font-family="Helvetica,sans-Serif" font-size="11.00" fill="#000000">...</text>
<polygon fill="#ffffff" stroke="transparent" points="19.5,-100.5421 19.5,-119.5421 51.5,-119.5421 51.5,-100.5421 19.5,-100.5421"/>
<polygon fill="none" stroke="#000000" points="19.5,-100.5421 19.5,-119.5421 51.5,-119.5421 51.5,-100.5421 19.5,-100.5421"/>
<text text-anchor="start" x="22.5" y="-106.6421" font-family="Helvetica,sans-Serif" font-size="11.00" fill="#000000">&lt; 7</text>
<polygon fill="#ffffff" stroke="transparent" points="51.5,-100.5421 51.5,-119.5421 69.5,-119.5421 69.5,-100.5421 51.5,-100.5421"/>
<polygon fill="none" stroke="#000000" points="51.5,-100.5421 51.5,-119.5421 69.5,-119.5421 69.5,-100.5421 51.5,-100.5421"/>
<text text-anchor="start" x="60.3862" y="-106.6421" font-family="Helvetica,sans-Serif" font-size="11.00" fill="#000000"> &#160;</text>
<polygon fill="#ffffff" stroke="transparent" points="69.5,-100.5421 69.5,-119.5421 102.5,-119.5421 102.5,-100.5421 69.5,-100.5421"/>
<polygon fill="none" stroke="#000000" points="69.5,-100.5421 69.5,-119.5421 102.5,-119.5421 102.5,-100.5421 69.5,-100.5421"/>
<text text-anchor="start" x="77.7904" y="-106.6421" font-family="Helvetica,sans-Serif" font-size="11.00" fill="#000000">30 &gt;</text>
</a>
</g>
</g>
<!-- aos_contracts&#45;&gt;contacts -->
<g id="edge1" class="edge">
<title>aos_contracts:w&#45;&gt;contacts:e</title>
<path fill="none" stroke="#000000" d="M148.0698,-557.7988C78.9187,-515.4777 194.3148,-128.5421 102.5,-128.5421"/>
<polygon fill="#000000" stroke="#000000" points="154.2741,-559.4659 161.0657,-565.0188 158.137,-560.504 162,-561.5421 162,-561.5421 162,-561.5421 158.137,-560.504 162.9343,-558.0654 154.2741,-559.4659 154.2741,-559.4659"/>
<ellipse fill="none" stroke="#000000" cx="151.1837" cy="-558.6355" rx="3.2" ry="3.2"/>
</g>
<!-- accounts -->
<g id="node3" class="node">
<title>accounts</title>
<g id="a_node3"><a xlink:href="../../tables/accounts.html" xlink:title="accounts" target="_top">
<polygon fill="#ffffff" stroke="transparent" points="17,-1046.0421 17,-1107.0421 104,-1107.0421 104,-1046.0421 17,-1046.0421"/>
<polygon fill="#f5f5f5" stroke="transparent" points="17.5,-1083.5421 17.5,-1106.5421 104.5,-1106.5421 104.5,-1083.5421 17.5,-1083.5421"/>
<polygon fill="none" stroke="#000000" points="17.5,-1083.5421 17.5,-1106.5421 104.5,-1106.5421 104.5,-1083.5421 17.5,-1083.5421"/>
<text text-anchor="start" x="22.4918" y="-1092.6421" font-family="Helvetica,sans-Serif" font-weight="bold" font-size="11.00" fill="#000000">accounts</text>
<text text-anchor="start" x="70.0219" y="-1091.6421" font-family="Helvetica,sans-Serif" font-size="11.00" fill="#000000">[table]</text>
<polygon fill="none" stroke="#000000" points="17.5,-1064.5421 17.5,-1083.5421 104.5,-1083.5421 104.5,-1064.5421 17.5,-1064.5421"/>
<text text-anchor="start" x="20.5" y="-1070.6421" font-family="Helvetica,sans-Serif" font-size="11.00" fill="#000000">...</text>
<polygon fill="#ffffff" stroke="transparent" points="17.5,-1045.5421 17.5,-1064.5421 51.5,-1064.5421 51.5,-1045.5421 17.5,-1045.5421"/>
<polygon fill="none" stroke="#000000" points="17.5,-1045.5421 17.5,-1064.5421 51.5,-1064.5421 51.5,-1045.5421 17.5,-1045.5421"/>
<text text-anchor="start" x="20.5" y="-1051.6421" font-family="Helvetica,sans-Serif" font-size="11.00" fill="#000000">&lt; 6</text>
<polygon fill="#ffffff" stroke="transparent" points="51.5,-1045.5421 51.5,-1064.5421 70.5,-1064.5421 70.5,-1045.5421 51.5,-1045.5421"/>
<polygon fill="none" stroke="#000000" points="51.5,-1045.5421 51.5,-1064.5421 70.5,-1064.5421 70.5,-1045.5421 51.5,-1045.5421"/>
<text text-anchor="start" x="61.3862" y="-1051.6421" font-family="Helvetica,sans-Serif" font-size="11.00" fill="#000000"> &#160;</text>
<polygon fill="#ffffff" stroke="transparent" points="70.5,-1045.5421 70.5,-1064.5421 104.5,-1064.5421 104.5,-1045.5421 70.5,-1045.5421"/>
<polygon fill="none" stroke="#000000" points="70.5,-1045.5421 70.5,-1064.5421 104.5,-1064.5421 104.5,-1045.5421 70.5,-1045.5421"/>
<text text-anchor="start" x="79.7904" y="-1051.6421" font-family="Helvetica,sans-Serif" font-size="11.00" fill="#000000">23 &gt;</text>
</a>
</g>
</g>
<!-- aos_contracts&#45;&gt;accounts -->
<g id="edge2" class="edge">
<title>aos_contracts:w&#45;&gt;accounts:e</title>
<path fill="none" stroke="#000000" d="M147.9569,-609.0401C71.9996,-651.8665 203.9611,-1073.5421 104.5,-1073.5421"/>
<polygon fill="#000000" stroke="#000000" points="154.2372,-607.4758 162.8701,-609.0354 158.1186,-606.5089 162,-605.5421 162,-605.5421 162,-605.5421 158.1186,-606.5089 161.1299,-602.0488 154.2372,-607.4758 154.2372,-607.4758"/>
<ellipse fill="none" stroke="#000000" cx="151.1321" cy="-608.2492" rx="3.2" ry="3.2"/>
</g>
<!-- opportunities -->
<g id="node4" class="node">
<title>opportunities</title>
<g id="a_node4"><a xlink:href="../../tables/opportunities.html" xlink:title="opportunities" target="_top">
<polygon fill="#ffffff" stroke="transparent" points="8,-556.0421 8,-617.0421 113,-617.0421 113,-556.0421 8,-556.0421"/>
<polygon fill="#f5f5f5" stroke="transparent" points="8.5,-593.5421 8.5,-616.5421 113.5,-616.5421 113.5,-593.5421 8.5,-593.5421"/>
<polygon fill="none" stroke="#000000" points="8.5,-593.5421 8.5,-616.5421 113.5,-616.5421 113.5,-593.5421 8.5,-593.5421"/>
<text text-anchor="start" x="13.0191" y="-602.6421" font-family="Helvetica,sans-Serif" font-weight="bold" font-size="11.00" fill="#000000">opportunities</text>
<text text-anchor="start" x="79.0219" y="-601.6421" font-family="Helvetica,sans-Serif" font-size="11.00" fill="#000000">[table]</text>
<polygon fill="none" stroke="#000000" points="8.5,-574.5421 8.5,-593.5421 113.5,-593.5421 113.5,-574.5421 8.5,-574.5421"/>
<text text-anchor="start" x="11.5" y="-580.6421" font-family="Helvetica,sans-Serif" font-size="11.00" fill="#000000">...</text>
<polygon fill="#ffffff" stroke="transparent" points="8.5,-555.5421 8.5,-574.5421 51.5,-574.5421 51.5,-555.5421 8.5,-555.5421"/>
<polygon fill="none" stroke="#000000" points="8.5,-555.5421 8.5,-574.5421 51.5,-574.5421 51.5,-555.5421 8.5,-555.5421"/>
<text text-anchor="start" x="11.5" y="-561.6421" font-family="Helvetica,sans-Serif" font-size="11.00" fill="#000000">&lt; 6</text>
<polygon fill="#ffffff" stroke="transparent" points="51.5,-555.5421 51.5,-574.5421 74.5,-574.5421 74.5,-555.5421 51.5,-555.5421"/>
<polygon fill="none" stroke="#000000" points="51.5,-555.5421 51.5,-574.5421 74.5,-574.5421 74.5,-555.5421 51.5,-555.5421"/>
<text text-anchor="start" x="65.3862" y="-561.6421" font-family="Helvetica,sans-Serif" font-size="11.00" fill="#000000"> &#160;</text>
<polygon fill="#ffffff" stroke="transparent" points="74.5,-555.5421 74.5,-574.5421 113.5,-574.5421 113.5,-555.5421 74.5,-555.5421"/>
<polygon fill="none" stroke="#000000" points="74.5,-555.5421 74.5,-574.5421 113.5,-574.5421 113.5,-555.5421 74.5,-555.5421"/>
<text text-anchor="start" x="88.7904" y="-561.6421" font-family="Helvetica,sans-Serif" font-size="11.00" fill="#000000">17 &gt;</text>
</a>
</g>
</g>
<!-- aos_contracts&#45;&gt;opportunities -->
<g id="edge3" class="edge">
<title>aos_contracts:w&#45;&gt;opportunities:e</title>
<path fill="none" stroke="#000000" d="M147.2829,-583.5421C136.2886,-583.5421 129.1615,-583.5421 113.5,-583.5421"/>
<polygon fill="#000000" stroke="#000000" points="154,-583.5421 162,-587.1421 158,-583.5421 162,-583.5421 162,-583.5421 162,-583.5421 158,-583.5421 162,-579.9421 154,-583.5421 154,-583.5421"/>
<ellipse fill="none" stroke="#000000" cx="150.8" cy="-583.5422" rx="3.2" ry="3.2"/>
</g>
<!-- aos_contracts_audit -->
<g id="node5" class="node">
<title>aos_contracts_audit</title>
<g id="a_node5"><a xlink:href="../../tables/aos_contracts_audit.html" xlink:title="aos_contracts_audit" target="_top">
<polygon fill="#ffffff" stroke="transparent" points="429,-485.5421 429,-751.5421 655,-751.5421 655,-485.5421 429,-485.5421"/>
<polygon fill="#f5f5f5" stroke="transparent" points="431,-726.5421 431,-749.5421 653,-749.5421 653,-726.5421 431,-726.5421"/>
<polygon fill="none" stroke="#000000" points="431,-726.5421 431,-749.5421 653,-749.5421 653,-726.5421 431,-726.5421"/>
<text text-anchor="start" x="436" y="-735.6421" font-family="Helvetica,sans-Serif" font-weight="bold" font-size="11.00" fill="#000000">aos_contracts_audit</text>
<text text-anchor="start" x="618.0437" y="-734.6421" font-family="Helvetica,sans-Serif" font-size="11.00" fill="#000000">[table]</text>
<polygon fill="none" stroke="#000000" points="431,-704.5421 431,-726.5421 586,-726.5421 586,-704.5421 431,-704.5421"/>
<image xlink:href="../../images/primaryKeys.png" width="11px" height="12px" preserveAspectRatio="xMinYMin meet" x="436" y="-721.542"/>
<text text-anchor="start" x="451" y="-711.6421" font-family="Helvetica,sans-Serif" font-size="11.00" fill="#000000">id</text>
<polygon fill="none" stroke="#000000" points="586,-704.5421 586,-726.5421 653,-726.5421 653,-704.5421 586,-704.5421"/>
<text text-anchor="start" x="589" y="-712.2421" font-family="Helvetica,sans-Serif" font-size="11.00" fill="#000000">char[36]</text>
<polygon fill="#ffffff" stroke="transparent" points="431,-682.5421 431,-704.5421 586,-704.5421 586,-682.5421 431,-682.5421"/>
<polygon fill="none" stroke="#000000" points="431,-682.5421 431,-704.5421 586,-704.5421 586,-682.5421 431,-682.5421"/>
<image xlink:href="../../images/foreignKeys.png" width="11px" height="12px" preserveAspectRatio="xMinYMin meet" x="436" y="-699.542"/>
<text text-anchor="start" x="451" y="-689.6421" font-family="Helvetica,sans-Serif" font-size="11.00" fill="#000000">parent_id</text>
<polygon fill="none" stroke="#000000" points="586,-682.5421 586,-704.5421 653,-704.5421 653,-682.5421 586,-682.5421"/>
<text text-anchor="start" x="589" y="-690.2421" font-family="Helvetica,sans-Serif" font-size="11.00" fill="#000000">char[36]</text>
<polygon fill="none" stroke="#000000" points="431,-660.5421 431,-682.5421 586,-682.5421 586,-660.5421 431,-660.5421"/>
<text text-anchor="start" x="451" y="-667.6421" font-family="Helvetica,sans-Serif" font-size="11.00" fill="#000000">date_created</text>
<polygon fill="none" stroke="#000000" points="586,-660.5421 586,-682.5421 653,-682.5421 653,-660.5421 586,-660.5421"/>
<text text-anchor="start" x="589" y="-668.2421" font-family="Helvetica,sans-Serif" font-size="11.00" fill="#000000">datetime[26]</text>
<polygon fill="none" stroke="#000000" points="431,-638.5421 431,-660.5421 586,-660.5421 586,-638.5421 431,-638.5421"/>
<text text-anchor="start" x="451" y="-645.6421" font-family="Helvetica,sans-Serif" font-size="11.00" fill="#000000">created_by</text>
<polygon fill="none" stroke="#000000" points="586,-638.5421 586,-660.5421 653,-660.5421 653,-638.5421 586,-638.5421"/>
<text text-anchor="start" x="589" y="-646.2421" font-family="Helvetica,sans-Serif" font-size="11.00" fill="#000000">varchar[36]</text>
<polygon fill="none" stroke="#000000" points="431,-616.5421 431,-638.5421 586,-638.5421 586,-616.5421 431,-616.5421"/>
<text text-anchor="start" x="451" y="-623.6421" font-family="Helvetica,sans-Serif" font-size="11.00" fill="#000000">field_name</text>
<polygon fill="none" stroke="#000000" points="586,-616.5421 586,-638.5421 653,-638.5421 653,-616.5421 586,-616.5421"/>
<text text-anchor="start" x="588.9365" y="-624.2421" font-family="Helvetica,sans-Serif" font-size="11.00" fill="#000000">varchar[100]</text>
<polygon fill="none" stroke="#000000" points="431,-594.5421 431,-616.5421 586,-616.5421 586,-594.5421 431,-594.5421"/>
<text text-anchor="start" x="451" y="-601.6421" font-family="Helvetica,sans-Serif" font-size="11.00" fill="#000000">data_type</text>
<polygon fill="none" stroke="#000000" points="586,-594.5421 586,-616.5421 653,-616.5421 653,-594.5421 586,-594.5421"/>
<text text-anchor="start" x="588.9365" y="-602.2421" font-family="Helvetica,sans-Serif" font-size="11.00" fill="#000000">varchar[100]</text>
<polygon fill="none" stroke="#000000" points="431,-572.5421 431,-594.5421 586,-594.5421 586,-572.5421 431,-572.5421"/>
<text text-anchor="start" x="451" y="-579.6421" font-family="Helvetica,sans-Serif" font-size="11.00" fill="#000000">before_value_string</text>
<polygon fill="none" stroke="#000000" points="586,-572.5421 586,-594.5421 653,-594.5421 653,-572.5421 586,-572.5421"/>
<text text-anchor="start" x="588.9365" y="-580.2421" font-family="Helvetica,sans-Serif" font-size="11.00" fill="#000000">varchar[255]</text>
<polygon fill="none" stroke="#000000" points="431,-550.5421 431,-572.5421 586,-572.5421 586,-550.5421 431,-550.5421"/>
<text text-anchor="start" x="451" y="-557.6421" font-family="Helvetica,sans-Serif" font-size="11.00" fill="#000000">after_value_string</text>
<polygon fill="none" stroke="#000000" points="586,-550.5421 586,-572.5421 653,-572.5421 653,-550.5421 586,-550.5421"/>
<text text-anchor="start" x="588.9365" y="-558.2421" font-family="Helvetica,sans-Serif" font-size="11.00" fill="#000000">varchar[255]</text>
<polygon fill="none" stroke="#000000" points="431,-528.5421 431,-550.5421 586,-550.5421 586,-528.5421 431,-528.5421"/>
<text text-anchor="start" x="451" y="-535.6421" font-family="Helvetica,sans-Serif" font-size="11.00" fill="#000000">before_value_text</text>
<polygon fill="none" stroke="#000000" points="586,-528.5421 586,-550.5421 653,-550.5421 653,-528.5421 586,-528.5421"/>
<text text-anchor="start" x="589" y="-536.2421" font-family="Helvetica,sans-Serif" font-size="11.00" fill="#000000">text[65535]</text>
<polygon fill="none" stroke="#000000" points="431,-506.5421 431,-528.5421 586,-528.5421 586,-506.5421 431,-506.5421"/>
<text text-anchor="start" x="451" y="-513.6421" font-family="Helvetica,sans-Serif" font-size="11.00" fill="#000000">after_value_text</text>
<polygon fill="none" stroke="#000000" points="586,-506.5421 586,-528.5421 653,-528.5421 653,-506.5421 586,-506.5421"/>
<text text-anchor="start" x="589" y="-514.2421" font-family="Helvetica,sans-Serif" font-size="11.00" fill="#000000">text[65535]</text>
<polygon fill="#ffffff" stroke="transparent" points="431,-487.5421 431,-506.5421 513,-506.5421 513,-487.5421 431,-487.5421"/>
<polygon fill="none" stroke="#000000" points="431,-487.5421 431,-506.5421 513,-506.5421 513,-487.5421 431,-487.5421"/>
<text text-anchor="start" x="434" y="-493.6421" font-family="Helvetica,sans-Serif" font-size="11.00" fill="#000000">&lt; 1</text>
<polygon fill="#ffffff" stroke="transparent" points="513,-487.5421 513,-506.5421 586,-506.5421 586,-487.5421 513,-487.5421"/>
<polygon fill="none" stroke="#000000" points="513,-487.5421 513,-506.5421 586,-506.5421 586,-487.5421 513,-487.5421"/>
<text text-anchor="start" x="576.8862" y="-493.6421" font-family="Helvetica,sans-Serif" font-size="11.00" fill="#000000"> &#160;</text>
<polygon fill="#ffffff" stroke="transparent" points="586,-487.5421 586,-506.5421 653,-506.5421 653,-487.5421 586,-487.5421"/>
<polygon fill="none" stroke="#000000" points="586,-487.5421 586,-506.5421 653,-506.5421 653,-487.5421 586,-487.5421"/>
<text text-anchor="start" x="634.4053" y="-493.6421" font-family="Helvetica,sans-Serif" font-size="11.00" fill="#000000">0 &gt;</text>
<polygon fill="none" stroke="#000000" stroke-width="2" points="430,-486.5421 430,-750.5421 654,-750.5421 654,-486.5421 430,-486.5421"/>
</a>
</g>
</g>
<!-- aos_contracts_audit&#45;&gt;aos_contracts -->
<g id="edge4" class="edge">
<title>aos_contracts_audit:w&#45;&gt;aos_contracts:e</title>
<path fill="none" stroke="#000000" d="M416.276,-693.5421C404.2815,-693.5421 396.8229,-693.5421 380,-693.5421"/>
<polygon fill="#000000" stroke="#000000" points="423,-693.5421 431,-697.1421 427,-693.5421 431,-693.5421 431,-693.5421 431,-693.5421 427,-693.5421 431,-689.9421 423,-693.5421 423,-693.5421"/>
<ellipse fill="none" stroke="#000000" cx="419.8" cy="-693.5422" rx="3.2" ry="3.2"/>
</g>
<!-- aos_contracts_documents -->
<g id="node6" class="node">
<title>aos_contracts_documents</title>
<g id="a_node6"><a xlink:href="../../tables/aos_contracts_documents.html" xlink:title="aos_contracts_documents" target="_top">
<polygon fill="#ffffff" stroke="transparent" points="456.5,-403.0421 456.5,-464.0421 627.5,-464.0421 627.5,-403.0421 456.5,-403.0421"/>
<polygon fill="#f5f5f5" stroke="transparent" points="457,-440.5421 457,-463.5421 628,-463.5421 628,-440.5421 457,-440.5421"/>
<polygon fill="none" stroke="#000000" points="457,-440.5421 457,-463.5421 628,-463.5421 628,-440.5421 457,-440.5421"/>
<text text-anchor="start" x="461.8134" y="-449.6421" font-family="Helvetica,sans-Serif" font-weight="bold" font-size="11.00" fill="#000000">aos_contracts_documents</text>
<text text-anchor="start" x="593.5219" y="-448.6421" font-family="Helvetica,sans-Serif" font-size="11.00" fill="#000000">[table]</text>
<polygon fill="none" stroke="#000000" points="457,-421.5421 457,-440.5421 628,-440.5421 628,-421.5421 457,-421.5421"/>
<text text-anchor="start" x="460" y="-427.6421" font-family="Helvetica,sans-Serif" font-size="11.00" fill="#000000">...</text>
<polygon fill="#ffffff" stroke="transparent" points="457,-402.5421 457,-421.5421 541,-421.5421 541,-402.5421 457,-402.5421"/>
<polygon fill="none" stroke="#000000" points="457,-402.5421 457,-421.5421 541,-421.5421 541,-402.5421 457,-402.5421"/>
<text text-anchor="start" x="460" y="-408.6421" font-family="Helvetica,sans-Serif" font-size="11.00" fill="#000000">&lt; 2</text>
<polygon fill="#ffffff" stroke="transparent" points="541,-402.5421 541,-421.5421 584,-421.5421 584,-402.5421 541,-402.5421"/>
<polygon fill="none" stroke="#000000" points="541,-402.5421 541,-421.5421 584,-421.5421 584,-402.5421 541,-402.5421"/>
<text text-anchor="start" x="574.8862" y="-408.6421" font-family="Helvetica,sans-Serif" font-size="11.00" fill="#000000"> &#160;</text>
<polygon fill="#ffffff" stroke="transparent" points="584,-402.5421 584,-421.5421 628,-421.5421 628,-402.5421 584,-402.5421"/>
<polygon fill="none" stroke="#000000" points="584,-402.5421 584,-421.5421 628,-421.5421 628,-402.5421 584,-402.5421"/>
<text text-anchor="start" x="618.8862" y="-408.6421" font-family="Helvetica,sans-Serif" font-size="11.00" fill="#000000"> &#160;</text>
</a>
</g>
</g>
<!-- aos_contracts_documents&#45;&gt;aos_contracts -->
<g id="edge5" class="edge">
<title>aos_contracts_documents:w&#45;&gt;aos_contracts:e</title>
<path fill="none" stroke="#000000" d="M442.786,-433.8622C430.9235,-440.81 429.1804,-457.7203 421,-475.5421 400.4365,-520.3418 429.2938,-693.5421 380,-693.5421"/>
<polygon fill="#000000" stroke="#000000" points="449.2097,-432.3618 457.8189,-434.0477 453.1048,-431.4519 457,-430.5421 457,-430.5421 457,-430.5421 453.1048,-431.4519 456.1811,-427.0365 449.2097,-432.3618 449.2097,-432.3618"/>
<ellipse fill="none" stroke="#000000" cx="446.0936" cy="-433.0897" rx="3.2" ry="3.2"/>
</g>
<!-- aos_line_item_groups -->
<g id="node7" class="node">
<title>aos_line_item_groups</title>
<g id="a_node7"><a xlink:href="../../tables/aos_line_item_groups.html" xlink:title="aos_line_item_groups" target="_top">
<polygon fill="#ffffff" stroke="transparent" points="467,-773.0421 467,-834.0421 617,-834.0421 617,-773.0421 467,-773.0421"/>
<polygon fill="#f5f5f5" stroke="transparent" points="467,-810.5421 467,-833.5421 617,-833.5421 617,-810.5421 467,-810.5421"/>
<polygon fill="none" stroke="#000000" points="467,-810.5421 467,-833.5421 617,-833.5421 617,-810.5421 467,-810.5421"/>
<text text-anchor="start" x="471.7089" y="-819.6421" font-family="Helvetica,sans-Serif" font-weight="bold" font-size="11.00" fill="#000000">aos_line_item_groups</text>
<text text-anchor="start" x="582.5219" y="-818.6421" font-family="Helvetica,sans-Serif" font-size="11.00" fill="#000000">[table]</text>
<polygon fill="none" stroke="#000000" points="467,-791.5421 467,-810.5421 617,-810.5421 617,-791.5421 467,-791.5421"/>
<text text-anchor="start" x="470" y="-797.6421" font-family="Helvetica,sans-Serif" font-size="11.00" fill="#000000">...</text>
<polygon fill="#ffffff" stroke="transparent" points="467,-772.5421 467,-791.5421 536,-791.5421 536,-772.5421 467,-772.5421"/>
<polygon fill="none" stroke="#000000" points="467,-772.5421 467,-791.5421 536,-791.5421 536,-772.5421 467,-772.5421"/>
<text text-anchor="start" x="470" y="-778.6421" font-family="Helvetica,sans-Serif" font-size="11.00" fill="#000000">&lt; 6</text>
<polygon fill="#ffffff" stroke="transparent" points="536,-772.5421 536,-791.5421 572,-791.5421 572,-772.5421 536,-772.5421"/>
<polygon fill="none" stroke="#000000" points="536,-772.5421 536,-791.5421 572,-791.5421 572,-772.5421 536,-772.5421"/>
<text text-anchor="start" x="562.8862" y="-778.6421" font-family="Helvetica,sans-Serif" font-size="11.00" fill="#000000"> &#160;</text>
<polygon fill="#ffffff" stroke="transparent" points="572,-772.5421 572,-791.5421 617,-791.5421 617,-772.5421 572,-772.5421"/>
<polygon fill="none" stroke="#000000" points="572,-772.5421 572,-791.5421 617,-791.5421 617,-772.5421 572,-772.5421"/>
<text text-anchor="start" x="598.4053" y="-778.6421" font-family="Helvetica,sans-Serif" font-size="11.00" fill="#000000">2 &gt;</text>
</a>
</g>
</g>
<!-- aos_line_item_groups&#45;&gt;aos_contracts -->
<g id="edge6" class="edge">
<title>aos_line_item_groups:w&#45;&gt;aos_contracts:e</title>
<path fill="none" stroke="#000000" d="M452.6725,-798.1414C438.7868,-792.6194 434.4767,-778.2769 421,-762.5421 397.7952,-735.4491 415.672,-693.5421 380,-693.5421"/>
<polygon fill="#000000" stroke="#000000" points="459.11,-799.22 466.4051,-804.0926 463.055,-799.881 467,-800.5421 467,-800.5421 467,-800.5421 463.055,-799.881 467.5949,-796.9916 459.11,-799.22 459.11,-799.22"/>
<ellipse fill="none" stroke="#000000" cx="455.954" cy="-798.6911" rx="3.2" ry="3.2"/>
</g>
<!-- aos_products_quotes -->
<g id="node8" class="node">
<title>aos_products_quotes</title>
<g id="a_node8"><a xlink:href="../../tables/aos_products_quotes.html" xlink:title="aos_products_quotes" target="_top">
<polygon fill="#ffffff" stroke="transparent" points="704,-791.0421 704,-852.0421 852,-852.0421 852,-791.0421 704,-791.0421"/>
<polygon fill="#f5f5f5" stroke="transparent" points="704,-828.5421 704,-851.5421 852,-851.5421 852,-828.5421 704,-828.5421"/>
<polygon fill="none" stroke="#000000" points="704,-828.5421 704,-851.5421 852,-851.5421 852,-828.5421 704,-828.5421"/>
<text text-anchor="start" x="708.9227" y="-837.6421" font-family="Helvetica,sans-Serif" font-weight="bold" font-size="11.00" fill="#000000">aos_products_quotes</text>
<text text-anchor="start" x="817.5219" y="-836.6421" font-family="Helvetica,sans-Serif" font-size="11.00" fill="#000000">[table]</text>
<polygon fill="none" stroke="#000000" points="704,-809.5421 704,-828.5421 852,-828.5421 852,-809.5421 704,-809.5421"/>
<text text-anchor="start" x="707" y="-815.6421" font-family="Helvetica,sans-Serif" font-size="11.00" fill="#000000">...</text>
<polygon fill="#ffffff" stroke="transparent" points="704,-790.5421 704,-809.5421 772,-809.5421 772,-790.5421 704,-790.5421"/>
<polygon fill="none" stroke="#000000" points="704,-790.5421 704,-809.5421 772,-809.5421 772,-790.5421 704,-790.5421"/>
<text text-anchor="start" x="707" y="-796.6421" font-family="Helvetica,sans-Serif" font-size="11.00" fill="#000000">&lt; 8</text>
<polygon fill="#ffffff" stroke="transparent" points="772,-790.5421 772,-809.5421 807,-809.5421 807,-790.5421 772,-790.5421"/>
<polygon fill="none" stroke="#000000" points="772,-790.5421 772,-809.5421 807,-809.5421 807,-790.5421 772,-790.5421"/>
<text text-anchor="start" x="797.8862" y="-796.6421" font-family="Helvetica,sans-Serif" font-size="11.00" fill="#000000"> &#160;</text>
<polygon fill="#ffffff" stroke="transparent" points="807,-790.5421 807,-809.5421 852,-809.5421 852,-790.5421 807,-790.5421"/>
<polygon fill="none" stroke="#000000" points="807,-790.5421 807,-809.5421 852,-809.5421 852,-790.5421 807,-790.5421"/>
<text text-anchor="start" x="833.4053" y="-796.6421" font-family="Helvetica,sans-Serif" font-size="11.00" fill="#000000">1 &gt;</text>
</a>
</g>
</g>
<!-- aos_products_quotes&#45;&gt;aos_contracts -->
<g id="edge8" class="edge">
<title>aos_products_quotes:w&#45;&gt;aos_contracts:e</title>
<path fill="none" stroke="#000000" d="M689.9384,-822.7314C681.3336,-828.9281 677.7317,-840.2648 663,-844.5421 611.355,-859.5369 463.7193,-877.2088 421,-844.5421 365.759,-802.3002 449.541,-693.5421 380,-693.5421"/>
<polygon fill="#000000" stroke="#000000" points="696.333,-820.8263 705.0279,-821.9922 700.1665,-819.6842 704,-818.5421 704,-818.5421 704,-818.5421 700.1665,-819.6842 702.9721,-815.092 696.333,-820.8263 696.333,-820.8263"/>
<ellipse fill="none" stroke="#000000" cx="693.2662" cy="-821.74" rx="3.2" ry="3.2"/>
</g>
<!-- aos_products_quotes&#45;&gt;aos_line_item_groups -->
<g id="edge7" class="edge">
<title>aos_products_quotes:w&#45;&gt;aos_line_item_groups:e</title>
<path fill="none" stroke="#000000" d="M689.4079,-817.6247C661.731,-813.9567 651.0872,-800.5421 617,-800.5421"/>
<polygon fill="#000000" stroke="#000000" points="696.0158,-818.0401 703.7741,-822.135 700.0079,-818.2911 704,-818.5421 704,-818.5421 704,-818.5421 700.0079,-818.2911 704.2259,-814.9492 696.0158,-818.0401 696.0158,-818.0401"/>
<ellipse fill="none" stroke="#000000" cx="692.8221" cy="-817.8393" rx="3.2" ry="3.2"/>
</g>
<!-- aos_quotes_os_contracts_c -->
<g id="node9" class="node">
<title>aos_quotes_os_contracts_c</title>
<g id="a_node9"><a xlink:href="../../tables/aos_quotes_os_contracts_c.html" xlink:title="aos_quotes_os_contracts_c" target="_top">
<polygon fill="#ffffff" stroke="transparent" points="452.5,-293.0421 452.5,-354.0421 631.5,-354.0421 631.5,-293.0421 452.5,-293.0421"/>
<polygon fill="#f5f5f5" stroke="transparent" points="453,-330.5421 453,-353.5421 632,-353.5421 632,-330.5421 453,-330.5421"/>
<polygon fill="none" stroke="#000000" points="453,-330.5421 453,-353.5421 632,-353.5421 632,-330.5421 453,-330.5421"/>
<text text-anchor="start" x="457.5294" y="-339.6421" font-family="Helvetica,sans-Serif" font-weight="bold" font-size="11.00" fill="#000000">aos_quotes_os_contracts_c</text>
<text text-anchor="start" x="597.5219" y="-338.6421" font-family="Helvetica,sans-Serif" font-size="11.00" fill="#000000">[table]</text>
<polygon fill="none" stroke="#000000" points="453,-311.5421 453,-330.5421 632,-330.5421 632,-311.5421 453,-311.5421"/>
<text text-anchor="start" x="456" y="-317.6421" font-family="Helvetica,sans-Serif" font-size="11.00" fill="#000000">...</text>
<polygon fill="#ffffff" stroke="transparent" points="453,-292.5421 453,-311.5421 541,-311.5421 541,-292.5421 453,-292.5421"/>
<polygon fill="none" stroke="#000000" points="453,-292.5421 453,-311.5421 541,-311.5421 541,-292.5421 453,-292.5421"/>
<text text-anchor="start" x="456" y="-298.6421" font-family="Helvetica,sans-Serif" font-size="11.00" fill="#000000">&lt; 2</text>
<polygon fill="#ffffff" stroke="transparent" points="541,-292.5421 541,-311.5421 586,-311.5421 586,-292.5421 541,-292.5421"/>
<polygon fill="none" stroke="#000000" points="541,-292.5421 541,-311.5421 586,-311.5421 586,-292.5421 541,-292.5421"/>
<text text-anchor="start" x="576.8862" y="-298.6421" font-family="Helvetica,sans-Serif" font-size="11.00" fill="#000000"> &#160;</text>
<polygon fill="#ffffff" stroke="transparent" points="586,-292.5421 586,-311.5421 632,-311.5421 632,-292.5421 586,-292.5421"/>
<polygon fill="none" stroke="#000000" points="586,-292.5421 586,-311.5421 632,-311.5421 632,-292.5421 586,-292.5421"/>
<text text-anchor="start" x="622.8862" y="-298.6421" font-family="Helvetica,sans-Serif" font-size="11.00" fill="#000000"> &#160;</text>
</a>
</g>
</g>
<!-- aos_quotes_os_contracts_c&#45;&gt;aos_contracts -->
<g id="edge9" class="edge">
<title>aos_quotes_os_contracts_c:w&#45;&gt;aos_contracts:e</title>
<path fill="none" stroke="#000000" d="M439.1893,-324.7311C379.8243,-365.7101 459.1826,-693.5421 380,-693.5421"/>
<polygon fill="#000000" stroke="#000000" points="445.3444,-322.8642 454.0449,-323.9871 449.1722,-321.7031 453,-320.5421 453,-320.5421 453,-320.5421 449.1722,-321.7031 451.9551,-317.0971 445.3444,-322.8642 445.3444,-322.8642"/>
<ellipse fill="none" stroke="#000000" cx="442.2822" cy="-323.793" rx="3.2" ry="3.2"/>
</g>
<!-- calls -->
<g id="node10" class="node">
<title>calls</title>
<g id="a_node10"><a xlink:href="../../tables/calls.html" xlink:title="calls" target="_top">
<polygon fill="#ffffff" stroke="transparent" points="510,-1059.0421 510,-1120.0421 574,-1120.0421 574,-1059.0421 510,-1059.0421"/>
<polygon fill="#f5f5f5" stroke="transparent" points="510,-1096.5421 510,-1119.5421 574,-1119.5421 574,-1096.5421 510,-1096.5421"/>
<polygon fill="none" stroke="#000000" points="510,-1096.5421 510,-1119.5421 574,-1119.5421 574,-1096.5421 510,-1096.5421"/>
<text text-anchor="start" x="514.5017" y="-1105.6421" font-family="Helvetica,sans-Serif" font-weight="bold" font-size="11.00" fill="#000000">calls</text>
<text text-anchor="start" x="539.5219" y="-1104.6421" font-family="Helvetica,sans-Serif" font-size="11.00" fill="#000000">[table]</text>
<polygon fill="none" stroke="#000000" points="510,-1077.5421 510,-1096.5421 574,-1096.5421 574,-1077.5421 510,-1077.5421"/>
<text text-anchor="start" x="513" y="-1083.6421" font-family="Helvetica,sans-Serif" font-size="11.00" fill="#000000">...</text>
<polygon fill="#ffffff" stroke="transparent" points="510,-1058.5421 510,-1077.5421 539,-1077.5421 539,-1058.5421 510,-1058.5421"/>
<polygon fill="none" stroke="#000000" points="510,-1058.5421 510,-1077.5421 539,-1077.5421 539,-1058.5421 510,-1058.5421"/>
<text text-anchor="start" x="513" y="-1064.6421" font-family="Helvetica,sans-Serif" font-size="11.00" fill="#000000">&lt; 12</text>
<polygon fill="#ffffff" stroke="transparent" points="539,-1058.5421 539,-1077.5421 552,-1077.5421 552,-1058.5421 539,-1058.5421"/>
<polygon fill="none" stroke="#000000" points="539,-1058.5421 539,-1077.5421 552,-1077.5421 552,-1058.5421 539,-1058.5421"/>
<text text-anchor="start" x="542.8862" y="-1064.6421" font-family="Helvetica,sans-Serif" font-size="11.00" fill="#000000"> &#160;</text>
<polygon fill="#ffffff" stroke="transparent" points="552,-1058.5421 552,-1077.5421 574,-1077.5421 574,-1058.5421 552,-1058.5421"/>
<polygon fill="none" stroke="#000000" points="552,-1058.5421 552,-1077.5421 574,-1077.5421 574,-1058.5421 552,-1058.5421"/>
<text text-anchor="start" x="555.4053" y="-1064.6421" font-family="Helvetica,sans-Serif" font-size="11.00" fill="#000000">6 &gt;</text>
</a>
</g>
</g>
<!-- calls&#45;&gt;aos_contracts -->
<g id="edge11" class="edge">
<title>calls:w&#45;&gt;aos_contracts:e</title>
<path fill="none" stroke="#000000" d="M495.5123,-1085.7638C457.4985,-1081.3777 443.2208,-1058.5784 421,-1020.5421 384.0578,-957.3066 453.2356,-693.5421 380,-693.5421"/>
<polygon fill="#000000" stroke="#000000" points="502.0115,-1086.1129 509.8069,-1090.1369 506.0058,-1086.3275 510,-1086.5421 510,-1086.5421 510,-1086.5421 506.0058,-1086.3275 510.1931,-1082.9473 502.0115,-1086.1129 502.0115,-1086.1129"/>
<ellipse fill="none" stroke="#000000" cx="498.8161" cy="-1085.9412" rx="3.2" ry="3.2"/>
</g>
<!-- calls&#45;&gt;accounts -->
<g id="edge10" class="edge">
<title>calls:w&#45;&gt;accounts:e</title>
<path fill="none" stroke="#000000" d="M495.5042,-1086.5801C349.1331,-1087.3509 306.4569,-1099.4368 154,-1083.5421 131.6766,-1081.2147 126.9444,-1073.5421 104.5,-1073.5421"/>
<polygon fill="#000000" stroke="#000000" points="502,-1086.5631 510.0095,-1090.1421 506,-1086.5526 510,-1086.5421 510,-1086.5421 510,-1086.5421 506,-1086.5526 509.9905,-1082.9421 502,-1086.5631 502,-1086.5631"/>
<ellipse fill="none" stroke="#000000" cx="498.8" cy="-1086.5715" rx="3.2" ry="3.2"/>
</g>
<!-- calls&#45;&gt;opportunities -->
<g id="edge12" class="edge">
<title>calls:w&#45;&gt;opportunities:e</title>
<path fill="none" stroke="#000000" d="M495.4057,-1085.9969C424.3507,-1081.9831 179.1009,-1056.4162 154,-1029.5421 86.0698,-956.8131 213.0189,-583.5421 113.5,-583.5421"/>
<polygon fill="#000000" stroke="#000000" points="502.0056,-1086.2434 509.8656,-1090.1396 506.0028,-1086.3927 510,-1086.5421 510,-1086.5421 510,-1086.5421 506.0028,-1086.3927 510.1344,-1082.9446 502.0056,-1086.2434 502.0056,-1086.2434"/>
<ellipse fill="none" stroke="#000000" cx="498.8078" cy="-1086.1239" rx="3.2" ry="3.2"/>
</g>
<!-- emails_beans -->
<g id="node11" class="node">
<title>emails_beans</title>
<g id="a_node11"><a xlink:href="../../tables/emails_beans.html" xlink:title="emails_beans" target="_top">
<polygon fill="#ffffff" stroke="transparent" points="723,-176.0421 723,-237.0421 833,-237.0421 833,-176.0421 723,-176.0421"/>
<polygon fill="#f5f5f5" stroke="transparent" points="723,-213.5421 723,-236.5421 833,-236.5421 833,-213.5421 723,-213.5421"/>
<polygon fill="none" stroke="#000000" points="723,-213.5421 723,-236.5421 833,-236.5421 833,-213.5421 723,-213.5421"/>
<text text-anchor="start" x="727.576" y="-222.6421" font-family="Helvetica,sans-Serif" font-weight="bold" font-size="11.00" fill="#000000">emails_beans</text>
<text text-anchor="start" x="798.5219" y="-221.6421" font-family="Helvetica,sans-Serif" font-size="11.00" fill="#000000">[table]</text>
<polygon fill="none" stroke="#000000" points="723,-194.5421 723,-213.5421 833,-213.5421 833,-194.5421 723,-194.5421"/>
<text text-anchor="start" x="726" y="-200.6421" font-family="Helvetica,sans-Serif" font-size="11.00" fill="#000000">...</text>
<polygon fill="#ffffff" stroke="transparent" points="723,-175.5421 723,-194.5421 779,-194.5421 779,-175.5421 723,-175.5421"/>
<polygon fill="none" stroke="#000000" points="723,-175.5421 723,-194.5421 779,-194.5421 779,-175.5421 723,-175.5421"/>
<text text-anchor="start" x="726" y="-181.6421" font-family="Helvetica,sans-Serif" font-size="11.00" fill="#000000">&lt; 14</text>
<polygon fill="#ffffff" stroke="transparent" points="779,-175.5421 779,-194.5421 806,-194.5421 806,-175.5421 779,-175.5421"/>
<polygon fill="none" stroke="#000000" points="779,-175.5421 779,-194.5421 806,-194.5421 806,-175.5421 779,-175.5421"/>
<text text-anchor="start" x="796.8862" y="-181.6421" font-family="Helvetica,sans-Serif" font-size="11.00" fill="#000000"> &#160;</text>
<polygon fill="#ffffff" stroke="transparent" points="806,-175.5421 806,-194.5421 833,-194.5421 833,-175.5421 806,-175.5421"/>
<polygon fill="none" stroke="#000000" points="806,-175.5421 806,-194.5421 833,-194.5421 833,-175.5421 806,-175.5421"/>
<text text-anchor="start" x="823.8862" y="-181.6421" font-family="Helvetica,sans-Serif" font-size="11.00" fill="#000000"> &#160;</text>
</a>
</g>
</g>
<!-- emails_beans&#45;&gt;aos_contracts -->
<g id="edge14" class="edge">
<title>emails_beans:w&#45;&gt;aos_contracts:e</title>
<path fill="none" stroke="#000000" d="M708.3199,-205.0034C691.9347,-208.627 684.5997,-218.1915 663,-224.5421 556.8897,-255.7397 493.7205,-199.2089 421,-282.5421 360.6503,-351.6992 471.7867,-693.5421 380,-693.5421"/>
<polygon fill="#000000" stroke="#000000" points="715.0393,-204.3346 723.3566,-207.1244 719.0197,-203.9383 723,-203.5421 723,-203.5421 723,-203.5421 719.0197,-203.9383 722.6434,-199.9598 715.0393,-204.3346 715.0393,-204.3346"/>
<ellipse fill="none" stroke="#000000" cx="711.8551" cy="-204.6516" rx="3.2" ry="3.2"/>
</g>
<!-- emails_beans&#45;&gt;contacts -->
<g id="edge15" class="edge">
<title>emails_beans:w&#45;&gt;contacts:e</title>
<path fill="none" stroke="#000000" d="M708.7276,-201.1174C674.6907,-187.2414 706.5294,-117.6049 663,-91.5421 555.9026,-27.4184 227.3266,-128.5421 102.5,-128.5421"/>
<polygon fill="#000000" stroke="#000000" points="715.113,-202.2022 722.397,-207.0912 719.0565,-202.8721 723,-203.5421 723,-203.5421 723,-203.5421 719.0565,-202.8721 723.603,-199.9929 715.113,-202.2022 715.113,-202.2022"/>
<ellipse fill="none" stroke="#000000" cx="711.9582" cy="-201.6662" rx="3.2" ry="3.2"/>
</g>
<!-- emails_beans&#45;&gt;accounts -->
<g id="edge13" class="edge">
<title>emails_beans:w&#45;&gt;accounts:e</title>
<path fill="none" stroke="#000000" d="M708.4913,-203.7448C646.5741,-205.0477 448.6089,-212.6034 421,-225.5421 266.1678,-298.1031 224.7752,-346.8855 154,-502.5421 127.6412,-560.5133 168.1824,-1073.5421 104.5,-1073.5421"/>
<polygon fill="#000000" stroke="#000000" points="715.0008,-203.6539 723.0503,-207.1417 719.0004,-203.598 723,-203.5421 723,-203.5421 723,-203.5421 719.0004,-203.598 722.9497,-199.9424 715.0008,-203.6539 715.0008,-203.6539"/>
<ellipse fill="none" stroke="#000000" cx="711.8011" cy="-203.6986" rx="3.2" ry="3.2"/>
</g>
<!-- emails_beans&#45;&gt;opportunities -->
<g id="edge17" class="edge">
<title>emails_beans:w&#45;&gt;opportunities:e</title>
<path fill="none" stroke="#000000" d="M708.358,-203.4006C570.6202,-200.9562 237.2479,-168.7521 154,-258.5421 104.5173,-311.9135 186.2808,-583.5421 113.5,-583.5421"/>
<polygon fill="#000000" stroke="#000000" points="715.0004,-203.4648 722.9652,-207.1419 719.0002,-203.5034 723,-203.5421 723,-203.5421 723,-203.5421 719.0002,-203.5034 723.0348,-199.9423 715.0004,-203.4648 715.0004,-203.4648"/>
<ellipse fill="none" stroke="#000000" cx="711.8005" cy="-203.4338" rx="3.2" ry="3.2"/>
</g>
<!-- meetings -->
<g id="node12" class="node">
<title>meetings</title>
<g id="a_node12"><a xlink:href="../../tables/meetings.html" xlink:title="meetings" target="_top">
<polygon fill="#ffffff" stroke="transparent" points="498.5,-949.0421 498.5,-1010.0421 585.5,-1010.0421 585.5,-949.0421 498.5,-949.0421"/>
<polygon fill="#f5f5f5" stroke="transparent" points="499,-986.5421 499,-1009.5421 586,-1009.5421 586,-986.5421 499,-986.5421"/>
<polygon fill="none" stroke="#000000" points="499,-986.5421 499,-1009.5421 586,-1009.5421 586,-986.5421 499,-986.5421"/>
<text text-anchor="start" x="503.6904" y="-995.6421" font-family="Helvetica,sans-Serif" font-weight="bold" font-size="11.00" fill="#000000">meetings</text>
<text text-anchor="start" x="551.5219" y="-994.6421" font-family="Helvetica,sans-Serif" font-size="11.00" fill="#000000">[table]</text>
<polygon fill="none" stroke="#000000" points="499,-967.5421 499,-986.5421 586,-986.5421 586,-967.5421 499,-967.5421"/>
<text text-anchor="start" x="502" y="-973.6421" font-family="Helvetica,sans-Serif" font-size="11.00" fill="#000000">...</text>
<polygon fill="#ffffff" stroke="transparent" points="499,-948.5421 499,-967.5421 539,-967.5421 539,-948.5421 499,-948.5421"/>
<polygon fill="none" stroke="#000000" points="499,-948.5421 499,-967.5421 539,-967.5421 539,-948.5421 499,-948.5421"/>
<text text-anchor="start" x="502" y="-954.6421" font-family="Helvetica,sans-Serif" font-size="11.00" fill="#000000">&lt; 13</text>
<polygon fill="#ffffff" stroke="transparent" points="539,-948.5421 539,-967.5421 558,-967.5421 558,-948.5421 539,-948.5421"/>
<polygon fill="none" stroke="#000000" points="539,-948.5421 539,-967.5421 558,-967.5421 558,-948.5421 539,-948.5421"/>
<text text-anchor="start" x="548.8862" y="-954.6421" font-family="Helvetica,sans-Serif" font-size="11.00" fill="#000000"> &#160;</text>
<polygon fill="#ffffff" stroke="transparent" points="558,-948.5421 558,-967.5421 586,-967.5421 586,-948.5421 558,-948.5421"/>
<polygon fill="none" stroke="#000000" points="558,-948.5421 558,-967.5421 586,-967.5421 586,-948.5421 558,-948.5421"/>
<text text-anchor="start" x="567.4053" y="-954.6421" font-family="Helvetica,sans-Serif" font-size="11.00" fill="#000000">7 &gt;</text>
</a>
</g>
</g>
<!-- emails_beans&#45;&gt;meetings -->
<g id="edge16" class="edge">
<title>emails_beans:w&#45;&gt;meetings:e</title>
<path fill="none" stroke="#000000" d="M710.0905,-210.8055C655.6591,-277.4033 683.4175,-780.9565 663,-844.5421 642.2354,-909.2087 653.9186,-976.5421 586,-976.5421"/>
<polygon fill="#000000" stroke="#000000" points="716.0278,-207.465 724.7653,-206.6796 719.5139,-205.5035 723,-203.5421 723,-203.5421 723,-203.5421 719.5139,-205.5035 721.2347,-200.4046 716.0278,-207.465 716.0278,-207.465"/>
<ellipse fill="none" stroke="#000000" cx="713.2389" cy="-209.0341" rx="3.2" ry="3.2"/>
</g>
<!-- tasks -->
<g id="node13" class="node">
<title>tasks</title>
<g id="a_node13"><a xlink:href="../../tables/tasks.html" xlink:title="tasks" target="_top">
<polygon fill="#ffffff" stroke="transparent" points="508,-102.0421 508,-163.0421 576,-163.0421 576,-102.0421 508,-102.0421"/>
<polygon fill="#f5f5f5" stroke="transparent" points="508,-139.5421 508,-162.5421 576,-162.5421 576,-139.5421 508,-139.5421"/>
<polygon fill="none" stroke="#000000" points="508,-139.5421 508,-162.5421 576,-162.5421 576,-139.5421 508,-139.5421"/>
<text text-anchor="start" x="512.6641" y="-148.6421" font-family="Helvetica,sans-Serif" font-weight="bold" font-size="11.00" fill="#000000">tasks</text>
<text text-anchor="start" x="541.5219" y="-147.6421" font-family="Helvetica,sans-Serif" font-size="11.00" fill="#000000">[table]</text>
<polygon fill="none" stroke="#000000" points="508,-120.5421 508,-139.5421 576,-139.5421 576,-120.5421 508,-120.5421"/>
<text text-anchor="start" x="511" y="-126.6421" font-family="Helvetica,sans-Serif" font-size="11.00" fill="#000000">...</text>
<polygon fill="#ffffff" stroke="transparent" points="508,-101.5421 508,-120.5421 539,-120.5421 539,-101.5421 508,-101.5421"/>
<polygon fill="none" stroke="#000000" points="508,-101.5421 508,-120.5421 539,-120.5421 539,-101.5421 508,-101.5421"/>
<text text-anchor="start" x="511" y="-107.6421" font-family="Helvetica,sans-Serif" font-size="11.00" fill="#000000">&lt; 14</text>
<polygon fill="#ffffff" stroke="transparent" points="539,-101.5421 539,-120.5421 553,-120.5421 553,-101.5421 539,-101.5421"/>
<polygon fill="none" stroke="#000000" points="539,-101.5421 539,-120.5421 553,-120.5421 553,-101.5421 539,-101.5421"/>
<text text-anchor="start" x="543.8862" y="-107.6421" font-family="Helvetica,sans-Serif" font-size="11.00" fill="#000000"> &#160;</text>
<polygon fill="#ffffff" stroke="transparent" points="553,-101.5421 553,-120.5421 576,-120.5421 576,-101.5421 553,-101.5421"/>
<polygon fill="none" stroke="#000000" points="553,-101.5421 553,-120.5421 576,-120.5421 576,-101.5421 553,-101.5421"/>
<text text-anchor="start" x="557.4053" y="-107.6421" font-family="Helvetica,sans-Serif" font-size="11.00" fill="#000000">3 &gt;</text>
</a>
</g>
</g>
<!-- emails_beans&#45;&gt;tasks -->
<g id="edge18" class="edge">
<title>emails_beans:w&#45;&gt;tasks:e</title>
<path fill="none" stroke="#000000" d="M708.7265,-200.7316C669.6299,-187.2146 608.2865,-129.5421 576,-129.5421"/>
<polygon fill="#000000" stroke="#000000" points="715.1507,-201.9965 722.3045,-207.0743 719.0754,-202.7693 723,-203.5421 723,-203.5421 723,-203.5421 719.0754,-202.7693 723.6955,-200.0099 715.1507,-201.9965 715.1507,-201.9965"/>
<ellipse fill="none" stroke="#000000" cx="712.011" cy="-201.3782" rx="3.2" ry="3.2"/>
</g>
<!-- meetings&#45;&gt;aos_contracts -->
<g id="edge20" class="edge">
<title>meetings:w&#45;&gt;aos_contracts:e</title>
<path fill="none" stroke="#000000" d="M484.6199,-975.3501C447.8061,-968.707 441.779,-935.1265 421,-895.5421 399.7109,-854.986 425.8042,-693.5421 380,-693.5421"/>
<polygon fill="#000000" stroke="#000000" points="491.0273,-975.8812 498.7026,-980.1298 495.0137,-976.2116 499,-976.5421 499,-976.5421 499,-976.5421 495.0137,-976.2116 499.2974,-972.9544 491.0273,-975.8812 491.0273,-975.8812"/>
<ellipse fill="none" stroke="#000000" cx="487.8383" cy="-975.6168" rx="3.2" ry="3.2"/>
</g>
<!-- meetings&#45;&gt;accounts -->
<g id="edge19" class="edge">
<title>meetings:w&#45;&gt;accounts:e</title>
<path fill="none" stroke="#000000" d="M484.5129,-976.7557C316.5084,-981.7743 280.1186,-1073.5421 104.5,-1073.5421"/>
<polygon fill="#000000" stroke="#000000" points="491.0009,-976.6601 499.0531,-980.1417 495.0004,-976.6011 499,-976.5421 499,-976.5421 499,-976.5421 495.0004,-976.6011 498.9469,-972.9425 491.0009,-976.6601 491.0009,-976.6601"/>
<ellipse fill="none" stroke="#000000" cx="487.8012" cy="-976.7073" rx="3.2" ry="3.2"/>
</g>
<!-- meetings&#45;&gt;opportunities -->
<g id="edge21" class="edge">
<title>meetings:w&#45;&gt;opportunities:e</title>
<path fill="none" stroke="#000000" d="M484.2898,-976.7444C339.2435,-980.7129 259.3719,-1040.5764 154,-934.5421 98.654,-878.8481 192.0175,-583.5421 113.5,-583.5421"/>
<polygon fill="#000000" stroke="#000000" points="491.0008,-976.6522 499.0495,-980.1418 495.0004,-976.5971 499,-976.5421 499,-976.5421 499,-976.5421 495.0004,-976.5971 498.9505,-972.9424 491.0008,-976.6522 491.0008,-976.6522"/>
<ellipse fill="none" stroke="#000000" cx="487.8011" cy="-976.6962" rx="3.2" ry="3.2"/>
</g>
<!-- tasks&#45;&gt;aos_contracts -->
<g id="edge40" class="edge">
<title>tasks:w&#45;&gt;aos_contracts:e</title>
<path fill="none" stroke="#000000" d="M493.5191,-130.606C447.5057,-137.875 442.0312,-181.4295 421,-231.5421 401.0569,-279.0619 431.5351,-693.5421 380,-693.5421"/>
<polygon fill="#000000" stroke="#000000" points="500.0215,-130.1283 508.2638,-133.1324 504.0108,-129.8352 508,-129.5421 508,-129.5421 508,-129.5421 504.0108,-129.8352 507.7362,-125.9518 500.0215,-130.1283 500.0215,-130.1283"/>
<ellipse fill="none" stroke="#000000" cx="496.8301" cy="-130.3628" rx="3.2" ry="3.2"/>
</g>
<!-- tasks&#45;&gt;contacts -->
<g id="edge38" class="edge">
<title>tasks:w&#45;&gt;contacts:e</title>
<path fill="none" stroke="#000000" d="M493.5138,-129.5399C325.2123,-129.4882 277.7948,-128.5421 102.5,-128.5421"/>
<polygon fill="#000000" stroke="#000000" points="500,-129.5408 507.9994,-133.1421 504,-129.5415 508,-129.5421 508,-129.5421 508,-129.5421 504,-129.5415 508.0006,-125.9421 500,-129.5408 500,-129.5408"/>
<ellipse fill="none" stroke="#000000" cx="496.8" cy="-129.5403" rx="3.2" ry="3.2"/>
</g>
<!-- tasks&#45;&gt;contacts -->
<g id="edge41" class="edge">
<title>tasks:w&#45;&gt;contacts:e</title>
<path fill="none" stroke="#000000" d="M493.5138,-129.5399C325.2123,-129.4882 277.7948,-128.5421 102.5,-128.5421"/>
<polygon fill="#000000" stroke="#000000" points="500,-129.5408 507.9994,-133.1421 504,-129.5415 508,-129.5421 508,-129.5421 508,-129.5421 504,-129.5415 508.0006,-125.9421 500,-129.5408 500,-129.5408"/>
<ellipse fill="none" stroke="#000000" cx="496.8" cy="-129.5403" rx="3.2" ry="3.2"/>
</g>
<!-- tasks&#45;&gt;accounts -->
<g id="edge39" class="edge">
<title>tasks:w&#45;&gt;accounts:e</title>
<path fill="none" stroke="#000000" d="M493.7222,-133.2597C426.9038,-155.4169 165.0972,-269.6382 154,-285.5421 103.7989,-357.487 192.2281,-1073.5421 104.5,-1073.5421"/>
<polygon fill="#000000" stroke="#000000" points="500.2581,-131.5579 508.9071,-133.0259 504.1291,-130.55 508,-129.5421 508,-129.5421 508,-129.5421 504.1291,-130.55 507.0929,-126.0583 500.2581,-131.5579 500.2581,-131.5579"/>
<ellipse fill="none" stroke="#000000" cx="497.1614" cy="-132.3643" rx="3.2" ry="3.2"/>
</g>
<!-- tasks&#45;&gt;opportunities -->
<g id="edge42" class="edge">
<title>tasks:w&#45;&gt;opportunities:e</title>
<path fill="none" stroke="#000000" d="M493.4991,-131.3959C427.1089,-140.1471 155.5163,-176.9673 154,-178.5421 91.2656,-243.6988 203.9489,-583.5421 113.5,-583.5421"/>
<polygon fill="#000000" stroke="#000000" points="500.0646,-130.5566 508.4565,-133.113 504.0323,-130.0493 508,-129.5421 508,-129.5421 508,-129.5421 504.0323,-130.0493 507.5435,-125.9712 500.0646,-130.5566 500.0646,-130.5566"/>
<ellipse fill="none" stroke="#000000" cx="496.8904" cy="-130.9624" rx="3.2" ry="3.2"/>
</g>
<!-- notes -->
<g id="node14" class="node">
<title>notes</title>
<g id="a_node14"><a xlink:href="../../tables/notes.html" xlink:title="notes" target="_top">
<polygon fill="#ffffff" stroke="transparent" points="743.5,-891.0421 743.5,-952.0421 812.5,-952.0421 812.5,-891.0421 743.5,-891.0421"/>
<polygon fill="#f5f5f5" stroke="transparent" points="744,-928.5421 744,-951.5421 813,-951.5421 813,-928.5421 744,-928.5421"/>
<polygon fill="none" stroke="#000000" points="744,-928.5421 744,-951.5421 813,-951.5421 813,-928.5421 744,-928.5421"/>
<text text-anchor="start" x="748.5492" y="-937.6421" font-family="Helvetica,sans-Serif" font-weight="bold" font-size="11.00" fill="#000000">notes</text>
<text text-anchor="start" x="778.5219" y="-936.6421" font-family="Helvetica,sans-Serif" font-size="11.00" fill="#000000">[table]</text>
<polygon fill="none" stroke="#000000" points="744,-909.5421 744,-928.5421 813,-928.5421 813,-909.5421 744,-909.5421"/>
<text text-anchor="start" x="747" y="-915.6421" font-family="Helvetica,sans-Serif" font-size="11.00" fill="#000000">...</text>
<polygon fill="#ffffff" stroke="transparent" points="744,-890.5421 744,-909.5421 775,-909.5421 775,-890.5421 744,-890.5421"/>
<polygon fill="none" stroke="#000000" points="744,-890.5421 744,-909.5421 775,-909.5421 775,-890.5421 744,-890.5421"/>
<text text-anchor="start" x="747" y="-896.6421" font-family="Helvetica,sans-Serif" font-size="11.00" fill="#000000">&lt; 19</text>
<polygon fill="#ffffff" stroke="transparent" points="775,-890.5421 775,-909.5421 789,-909.5421 789,-890.5421 775,-890.5421"/>
<polygon fill="none" stroke="#000000" points="775,-890.5421 775,-909.5421 789,-909.5421 789,-890.5421 775,-890.5421"/>
<text text-anchor="start" x="779.8862" y="-896.6421" font-family="Helvetica,sans-Serif" font-size="11.00" fill="#000000"> &#160;</text>
<polygon fill="#ffffff" stroke="transparent" points="789,-890.5421 789,-909.5421 813,-909.5421 813,-890.5421 789,-890.5421"/>
<polygon fill="none" stroke="#000000" points="789,-890.5421 789,-909.5421 813,-909.5421 813,-890.5421 789,-890.5421"/>
<text text-anchor="start" x="794.4053" y="-896.6421" font-family="Helvetica,sans-Serif" font-size="11.00" fill="#000000">1 &gt;</text>
</a>
</g>
</g>
<!-- notes&#45;&gt;aos_contracts -->
<g id="edge24" class="edge">
<title>notes:w&#45;&gt;aos_contracts:e</title>
<path fill="none" stroke="#000000" d="M729.359,-917.9537C704.259,-915.7818 693.7582,-908.0566 663,-902.5421 609.3833,-892.9293 460.9689,-900.5508 421,-863.5421 363.971,-810.7369 457.7219,-693.5421 380,-693.5421"/>
<polygon fill="#000000" stroke="#000000" points="736.0065,-918.2208 743.8554,-922.1392 740.0032,-918.3814 744,-918.5421 744,-918.5421 744,-918.5421 740.0032,-918.3814 744.1446,-914.945 736.0065,-918.2208 736.0065,-918.2208"/>
<ellipse fill="none" stroke="#000000" cx="732.809" cy="-918.0922" rx="3.2" ry="3.2"/>
</g>
<!-- notes&#45;&gt;contacts -->
<g id="edge22" class="edge">
<title>notes:w&#45;&gt;contacts:e</title>
<path fill="none" stroke="#000000" d="M729.2437,-918.5905C463.7521,-920.3074 298.3451,-965.7727 154,-738.5421 117.5284,-681.1279 170.5189,-128.5421 102.5,-128.5421"/>
<polygon fill="#000000" stroke="#000000" points="736,-918.5684 744.0118,-922.1421 740,-918.5552 744,-918.5421 744,-918.5421 744,-918.5421 740,-918.5552 743.9882,-914.9421 736,-918.5684 736,-918.5684"/>
<ellipse fill="none" stroke="#000000" cx="732.8001" cy="-918.5789" rx="3.2" ry="3.2"/>
</g>
<!-- notes&#45;&gt;contacts -->
<g id="edge26" class="edge">
<title>notes:w&#45;&gt;contacts:e</title>
<path fill="none" stroke="#000000" d="M729.2154,-918.5878C463.2131,-920.2075 297.4106,-962.9714 154,-734.5421 118.0691,-677.3102 170.076,-128.5421 102.5,-128.5421"/>
<polygon fill="#000000" stroke="#000000" points="736,-918.5669 744.0111,-922.1421 740,-918.5545 744,-918.5421 744,-918.5421 744,-918.5421 740,-918.5545 743.9889,-914.9421 736,-918.5669 736,-918.5669"/>
<ellipse fill="none" stroke="#000000" cx="732.8001" cy="-918.5768" rx="3.2" ry="3.2"/>
</g>
<!-- notes&#45;&gt;accounts -->
<g id="edge23" class="edge">
<title>notes:w&#45;&gt;accounts:e</title>
<path fill="none" stroke="#000000" d="M729.2166,-919.8897C653.838,-935.1819 741.5377,-1076.4744 663,-1130.5421 569.6366,-1194.8163 262.7055,-1129.6515 154,-1097.5421 130.552,-1090.616 128.9495,-1073.5421 104.5,-1073.5421"/>
<polygon fill="#000000" stroke="#000000" points="736.033,-919.2684 744.3268,-922.1272 740.0165,-918.9053 744,-918.5421 744,-918.5421 744,-918.5421 740.0165,-918.9053 743.6732,-914.957 736.033,-919.2684 736.033,-919.2684"/>
<ellipse fill="none" stroke="#000000" cx="732.8462" cy="-919.5589" rx="3.2" ry="3.2"/>
</g>
<!-- notes&#45;&gt;opportunities -->
<g id="edge28" class="edge">
<title>notes:w&#45;&gt;opportunities:e</title>
<path fill="none" stroke="#000000" d="M729.3703,-920.6205C691.0051,-933.0552 710.0393,-997.8296 663,-1020.5421 611.8718,-1045.2289 192.8414,-1016.9532 154,-975.5421 94.0888,-911.6672 201.0748,-583.5421 113.5,-583.5421"/>
<polygon fill="#000000" stroke="#000000" points="736.0795,-919.6674 744.5064,-922.1063 740.0398,-919.1047 744,-918.5421 744,-918.5421 744,-918.5421 740.0398,-919.1047 743.4936,-914.9779 736.0795,-919.6674 736.0795,-919.6674"/>
<ellipse fill="none" stroke="#000000" cx="732.9113" cy="-920.1175" rx="3.2" ry="3.2"/>
</g>
<!-- notes&#45;&gt;calls -->
<g id="edge25" class="edge">
<title>notes:w&#45;&gt;calls:e</title>
<path fill="none" stroke="#000000" d="M729.576,-920.1329C682.6934,-931.7535 708.9368,-1004.2369 663,-1044.5421 630.1224,-1073.3891 617.7388,-1086.5421 574,-1086.5421"/>
<polygon fill="#000000" stroke="#000000" points="736.0482,-919.4192 744.3947,-922.1204 740.0241,-918.9806 744,-918.5421 744,-918.5421 744,-918.5421 740.0241,-918.9806 743.6053,-914.9638 736.0482,-919.4192 736.0482,-919.4192"/>
<ellipse fill="none" stroke="#000000" cx="732.8675" cy="-919.77" rx="3.2" ry="3.2"/>
</g>
<!-- notes&#45;&gt;meetings -->
<g id="edge27" class="edge">
<title>notes:w&#45;&gt;meetings:e</title>
<path fill="none" stroke="#000000" d="M729.5479,-919.3181C667.7382,-926.2007 655.6905,-976.5421 586,-976.5421"/>
<polygon fill="#000000" stroke="#000000" points="736.0115,-918.9711 744.1931,-922.1369 740.0058,-918.7566 744,-918.5421 744,-918.5421 744,-918.5421 740.0058,-918.7566 743.8069,-914.9473 736.0115,-918.9711 736.0115,-918.9711"/>
<ellipse fill="none" stroke="#000000" cx="732.8161" cy="-919.1427" rx="3.2" ry="3.2"/>
</g>
<!-- notes&#45;&gt;tasks -->
<g id="edge29" class="edge">
<title>notes:w&#45;&gt;tasks:e</title>
<path fill="none" stroke="#000000" d="M729.5404,-916.3796C709.9223,-909.6028 706.138,-887.7244 696,-862.5421 647.7879,-742.7852 699.5362,-406.3614 663,-282.5421 640.8614,-207.5155 654.2247,-129.5421 576,-129.5421"/>
<polygon fill="#000000" stroke="#000000" points="736.088,-917.3588 743.4675,-922.1025 740.044,-917.9504 744,-918.5421 744,-918.5421 744,-918.5421 740.044,-917.9504 744.5325,-914.9817 736.088,-917.3588 736.088,-917.3588"/>
<ellipse fill="none" stroke="#000000" cx="732.9232" cy="-916.8854" rx="3.2" ry="3.2"/>
</g>
<!-- securitygroups_records -->
<g id="node15" class="node">
<title>securitygroups_records</title>
<g id="a_node15"><a xlink:href="../../tables/securitygroups_records.html" xlink:title="securitygroups_records" target="_top">
<polygon fill="#ffffff" stroke="transparent" points="901,-621.0421 901,-682.0421 1058,-682.0421 1058,-621.0421 901,-621.0421"/>
<polygon fill="#f5f5f5" stroke="transparent" points="901.5,-658.5421 901.5,-681.5421 1058.5,-681.5421 1058.5,-658.5421 901.5,-658.5421"/>
<polygon fill="none" stroke="#000000" points="901.5,-658.5421 901.5,-681.5421 1058.5,-681.5421 1058.5,-658.5421 901.5,-658.5421"/>
<text text-anchor="start" x="906.3528" y="-667.6421" font-family="Helvetica,sans-Serif" font-weight="bold" font-size="11.00" fill="#000000">securitygroups_records</text>
<text text-anchor="start" x="1024.0219" y="-666.6421" font-family="Helvetica,sans-Serif" font-size="11.00" fill="#000000">[table]</text>
<polygon fill="none" stroke="#000000" points="901.5,-639.5421 901.5,-658.5421 1058.5,-658.5421 1058.5,-639.5421 901.5,-639.5421"/>
<text text-anchor="start" x="904.5" y="-645.6421" font-family="Helvetica,sans-Serif" font-size="11.00" fill="#000000">...</text>
<polygon fill="#ffffff" stroke="transparent" points="901.5,-620.5421 901.5,-639.5421 981.5,-639.5421 981.5,-620.5421 901.5,-620.5421"/>
<polygon fill="none" stroke="#000000" points="901.5,-620.5421 901.5,-639.5421 981.5,-639.5421 981.5,-620.5421 901.5,-620.5421"/>
<text text-anchor="start" x="904.5" y="-626.6421" font-family="Helvetica,sans-Serif" font-size="11.00" fill="#000000">&lt; 41</text>
<polygon fill="#ffffff" stroke="transparent" points="981.5,-620.5421 981.5,-639.5421 1019.5,-639.5421 1019.5,-620.5421 981.5,-620.5421"/>
<polygon fill="none" stroke="#000000" points="981.5,-620.5421 981.5,-639.5421 1019.5,-639.5421 1019.5,-620.5421 981.5,-620.5421"/>
<text text-anchor="start" x="1010.3862" y="-626.6421" font-family="Helvetica,sans-Serif" font-size="11.00" fill="#000000"> &#160;</text>
<polygon fill="#ffffff" stroke="transparent" points="1019.5,-620.5421 1019.5,-639.5421 1058.5,-639.5421 1058.5,-620.5421 1019.5,-620.5421"/>
<polygon fill="none" stroke="#000000" points="1019.5,-620.5421 1019.5,-639.5421 1058.5,-639.5421 1058.5,-620.5421 1019.5,-620.5421"/>
<text text-anchor="start" x="1049.3862" y="-626.6421" font-family="Helvetica,sans-Serif" font-size="11.00" fill="#000000"> &#160;</text>
</a>
</g>
</g>
<!-- securitygroups_records&#45;&gt;aos_contracts -->
<g id="edge31" class="edge">
<title>securitygroups_records:w&#45;&gt;aos_contracts:e</title>
<path fill="none" stroke="#000000" d="M886.7065,-647.9125C749.731,-635.8074 800.8572,-452.5225 663,-392.5421 613.6876,-371.0867 461.5116,-357.1746 421,-392.5421 370.1463,-436.9385 447.5066,-693.5421 380,-693.5421"/>
<polygon fill="#000000" stroke="#000000" points="893.5072,-648.2019 901.3469,-652.1388 897.5036,-648.372 901.5,-648.5421 901.5,-648.5421 901.5,-648.5421 897.5036,-648.372 901.6531,-644.9453 893.5072,-648.2019 893.5072,-648.2019"/>
<ellipse fill="none" stroke="#000000" cx="890.3101" cy="-648.0658" rx="3.2" ry="3.2"/>
</g>
<!-- securitygroups_records&#45;&gt;contacts -->
<g id="edge33" class="edge">
<title>securitygroups_records:w&#45;&gt;contacts:e</title>
<path fill="none" stroke="#000000" d="M889.5021,-639.9673C849.987,-574.2762 896.2969,-152.2249 860,-110.5421 801.1482,-42.9575 752.1002,-77.1531 663,-67.5421 437.9571,-43.2673 363.7534,.529 154,-84.5421 126.102,-95.8569 132.6052,-128.5421 102.5,-128.5421"/>
<polygon fill="#000000" stroke="#000000" points="894.9914,-643.8904 899.4067,-651.471 898.2457,-646.2163 901.5,-648.5421 901.5,-648.5421 901.5,-648.5421 898.2457,-646.2163 903.5933,-645.6132 894.9914,-643.8904 894.9914,-643.8904"/>
<ellipse fill="none" stroke="#000000" cx="892.3879" cy="-642.0298" rx="3.2" ry="3.2"/>
</g>
<!-- securitygroups_records&#45;&gt;accounts -->
<g id="edge30" class="edge">
<title>securitygroups_records:w&#45;&gt;accounts:e</title>
<path fill="none" stroke="#000000" d="M887.2838,-651.988C823.5954,-686.9712 906.6215,-977.9714 860,-1047.5421 804.6507,-1130.1368 759.4124,-1129.2504 663,-1153.5421 443.4097,-1208.8693 355.8145,-1233.2646 154,-1130.5421 124.098,-1115.3221 138.0526,-1073.5421 104.5,-1073.5421"/>
<polygon fill="#000000" stroke="#000000" points="893.7251,-650.4267 902.3481,-652.0408 897.6126,-649.4844 901.5,-648.5421 901.5,-648.5421 901.5,-648.5421 897.6126,-649.4844 900.6519,-645.0434 893.7251,-650.4267 893.7251,-650.4267"/>
<ellipse fill="none" stroke="#000000" cx="890.6152" cy="-651.1805" rx="3.2" ry="3.2"/>
</g>
<!-- securitygroups_records&#45;&gt;opportunities -->
<g id="edge36" class="edge">
<title>securitygroups_records:w&#45;&gt;opportunities:e</title>
<path fill="none" stroke="#000000" d="M887.9702,-642.9464C855.7049,-610.9963 886.4139,-451.666 860,-411.5421 802.4536,-324.1264 763.2905,-312.4568 663,-282.5421 559.9318,-251.7988 522.2327,-246.2083 421,-282.5421 276.2787,-334.4845 249.7995,-382.2727 154,-502.5421 128.923,-534.0245 153.7492,-583.5421 113.5,-583.5421"/>
<polygon fill="#000000" stroke="#000000" points="894.1073,-645.4846 900.1241,-651.8688 897.8037,-647.0133 901.5,-648.5421 901.5,-648.5421 901.5,-648.5421 897.8037,-647.0133 902.8759,-645.2154 894.1073,-645.4846 894.1073,-645.4846"/>
<ellipse fill="none" stroke="#000000" cx="891.1502" cy="-644.2616" rx="3.2" ry="3.2"/>
</g>
<!-- securitygroups_records&#45;&gt;calls -->
<g id="edge32" class="edge">
<title>securitygroups_records:w&#45;&gt;calls:e</title>
<path fill="none" stroke="#000000" d="M887.5482,-652.5839C835.6995,-687.4312 905.3813,-937.1805 860,-992.5421 775.1767,-1096.0198 707.8007,-1086.5421 574,-1086.5421"/>
<polygon fill="#000000" stroke="#000000" points="893.8159,-650.7682 902.5017,-651.9999 897.658,-649.6551 901.5,-648.5421 901.5,-648.5421 901.5,-648.5421 897.658,-649.6551 900.4983,-645.0843 893.8159,-650.7682 893.8159,-650.7682"/>
<ellipse fill="none" stroke="#000000" cx="890.7423" cy="-651.6586" rx="3.2" ry="3.2"/>
</g>
<!-- securitygroups_records&#45;&gt;meetings -->
<g id="edge34" class="edge">
<title>securitygroups_records:w&#45;&gt;meetings:e</title>
<path fill="none" stroke="#000000" d="M887.6334,-653.1865C842.9034,-688.8129 907.687,-918.5408 860,-962.5421 770.3842,-1045.2315 707.9366,-976.5421 586,-976.5421"/>
<polygon fill="#000000" stroke="#000000" points="893.9142,-651.0829 902.6433,-651.9557 897.7071,-649.8125 901.5,-648.5421 901.5,-648.5421 901.5,-648.5421 897.7071,-649.8125 900.3567,-645.1285 893.9142,-651.0829 893.9142,-651.0829"/>
<ellipse fill="none" stroke="#000000" cx="890.8798" cy="-652.0992" rx="3.2" ry="3.2"/>
</g>
<!-- securitygroups_records&#45;&gt;tasks -->
<g id="edge37" class="edge">
<title>securitygroups_records:w&#45;&gt;tasks:e</title>
<path fill="none" stroke="#000000" d="M890.0068,-639.647C855.366,-576.7974 894.1777,-201.1284 860,-165.5421 771.8677,-73.7774 703.2323,-129.5421 576,-129.5421"/>
<polygon fill="#000000" stroke="#000000" points="895.1734,-643.6457 899.2966,-651.3891 898.3367,-646.0939 901.5,-648.5421 901.5,-648.5421 901.5,-648.5421 898.3367,-646.0939 903.7034,-645.6951 895.1734,-643.6457 895.1734,-643.6457"/>
<ellipse fill="none" stroke="#000000" cx="892.6428" cy="-641.6871" rx="3.2" ry="3.2"/>
</g>
<!-- securitygroups_records&#45;&gt;notes -->
<g id="edge35" class="edge">
<title>securitygroups_records:w&#45;&gt;notes:e</title>
<path fill="none" stroke="#000000" d="M888.1776,-654.2646C858.5555,-684.2756 878.5672,-823.5986 860,-862.5421 846.0162,-891.8722 845.4931,-918.5421 813,-918.5421"/>
<polygon fill="#000000" stroke="#000000" points="894.1494,-651.6995 902.9208,-651.8499 897.8247,-650.1208 901.5,-648.5421 901.5,-648.5421 901.5,-648.5421 897.8247,-650.1208 900.0792,-645.2343 894.1494,-651.6995 894.1494,-651.6995"/>
<ellipse fill="none" stroke="#000000" cx="891.2092" cy="-652.9625" rx="3.2" ry="3.2"/>
</g>
</g>
</svg>
