<?xml version="1.0" encoding="UTF-8" standalone="no"?>
<!DOCTYPE svg PUBLIC "-//W3C//DTD SVG 1.1//EN"
 "http://www.w3.org/Graphics/SVG/1.1/DTD/svg11.dtd">
<!-- Generated by graphviz version 2.40.1 (20161225.0304)
 -->
<!-- Title: twoDegreesRelationshipsDiagram Pages: 1 -->
<svg width="436pt" height="645pt"
 viewBox="0.00 0.00 436.00 645.20" xmlns="http://www.w3.org/2000/svg" xmlns:xlink="http://www.w3.org/1999/xlink">
<g id="graph0" class="graph" transform="scale(1 1) rotate(0) translate(4 641.2)">
<title>twoDegreesRelationshipsDiagram</title>
<polygon fill="#ffffff" stroke="transparent" points="-4,4 -4,-641.2 432,-641.2 432,4 -4,4"/>
<text text-anchor="middle" x="72.4936" y="-7.3" font-family="Helvetica,sans-Serif" font-size="11.00" fill="#000000">Generated by SchemaSpy</text>
<!-- aow_actions -->
<g id="node1" class="node">
<title>aow_actions</title>
<g id="a_node1"><a xlink:href="../../tables/aow_actions.html" xlink:title="aow_actions" target="_top">
<polygon fill="#ffffff" stroke="transparent" points="254,-572.2 254,-633.2 358,-633.2 358,-572.2 254,-572.2"/>
<polygon fill="#f5f5f5" stroke="transparent" points="254,-609.7 254,-632.7 358,-632.7 358,-609.7 254,-609.7"/>
<polygon fill="none" stroke="#000000" points="254,-609.7 254,-632.7 358,-632.7 358,-609.7 254,-609.7"/>
<text text-anchor="start" x="258.936" y="-618.8" font-family="Helvetica,sans-Serif" font-weight="bold" font-size="11.00" fill="#000000">aow_actions</text>
<text text-anchor="start" x="323.5219" y="-617.8" font-family="Helvetica,sans-Serif" font-size="11.00" fill="#000000">[table]</text>
<polygon fill="none" stroke="#000000" points="254,-590.7 254,-609.7 358,-609.7 358,-590.7 254,-590.7"/>
<text text-anchor="start" x="257" y="-596.8" font-family="Helvetica,sans-Serif" font-size="11.00" fill="#000000">...</text>
<polygon fill="#ffffff" stroke="transparent" points="254,-571.7 254,-590.7 300,-590.7 300,-571.7 254,-571.7"/>
<polygon fill="none" stroke="#000000" points="254,-571.7 254,-590.7 300,-590.7 300,-571.7 254,-571.7"/>
<text text-anchor="start" x="257" y="-577.8" font-family="Helvetica,sans-Serif" font-size="11.00" fill="#000000">&lt; 3</text>
<polygon fill="#ffffff" stroke="transparent" points="300,-571.7 300,-590.7 324,-590.7 324,-571.7 300,-571.7"/>
<polygon fill="none" stroke="#000000" points="300,-571.7 300,-590.7 324,-590.7 324,-571.7 300,-571.7"/>
<text text-anchor="start" x="314.8862" y="-577.8" font-family="Helvetica,sans-Serif" font-size="11.00" fill="#000000"> &#160;</text>
<polygon fill="#ffffff" stroke="transparent" points="324,-571.7 324,-590.7 358,-590.7 358,-571.7 324,-571.7"/>
<polygon fill="none" stroke="#000000" points="324,-571.7 324,-590.7 358,-590.7 358,-571.7 324,-571.7"/>
<text text-anchor="start" x="339.4053" y="-577.8" font-family="Helvetica,sans-Serif" font-size="11.00" fill="#000000">1 &gt;</text>
</a>
</g>
</g>
<!-- aow_workflow -->
<g id="node2" class="node">
<title>aow_workflow</title>
<g id="a_node2"><a xlink:href="../../tables/aow_workflow.html" xlink:title="aow_workflow" target="_top">
<polygon fill="#ffffff" stroke="transparent" points="8,-299.2 8,-470.2 143,-470.2 143,-299.2 8,-299.2"/>
<polygon fill="#f5f5f5" stroke="transparent" points="8.5,-446.7 8.5,-469.7 143.5,-469.7 143.5,-446.7 8.5,-446.7"/>
<polygon fill="none" stroke="#000000" points="8.5,-446.7 8.5,-469.7 143.5,-469.7 143.5,-446.7 8.5,-446.7"/>
<text text-anchor="start" x="13.5" y="-455.8" font-family="Helvetica,sans-Serif" font-weight="bold" font-size="11.00" fill="#000000">aow_workflow</text>
<text text-anchor="start" x="108.5437" y="-454.8" font-family="Helvetica,sans-Serif" font-size="11.00" fill="#000000">[table]</text>
<polygon fill="none" stroke="#000000" points="8.5,-424.7 8.5,-446.7 143.5,-446.7 143.5,-424.7 8.5,-424.7"/>
<image xlink:href="../../images/primaryKeys.png" width="11px" height="12px" preserveAspectRatio="xMinYMin meet" x="13.5" y="-441.7"/>
<text text-anchor="start" x="28.5" y="-431.8" font-family="Helvetica,sans-Serif" font-size="11.00" fill="#000000">id</text>
<polygon fill="#c0c0c0" stroke="transparent" points="8.5,-402.7 8.5,-424.7 143.5,-424.7 143.5,-402.7 8.5,-402.7"/>
<polygon fill="none" stroke="#000000" points="8.5,-402.7 8.5,-424.7 143.5,-424.7 143.5,-402.7 8.5,-402.7"/>
<image xlink:href="../../images/foreignKeys.png" width="11px" height="12px" preserveAspectRatio="xMinYMin meet" x="13.5" y="-419.7"/>
<text text-anchor="start" x="28.5" y="-409.8" font-family="Helvetica,sans-Serif" font-size="11.00" fill="#000000">modified_user_id</text>
<polygon fill="#c0c0c0" stroke="transparent" points="8.5,-380.7 8.5,-402.7 143.5,-402.7 143.5,-380.7 8.5,-380.7"/>
<polygon fill="none" stroke="#000000" points="8.5,-380.7 8.5,-402.7 143.5,-402.7 143.5,-380.7 8.5,-380.7"/>
<image xlink:href="../../images/foreignKeys.png" width="11px" height="12px" preserveAspectRatio="xMinYMin meet" x="13.5" y="-397.7"/>
<text text-anchor="start" x="28.5" y="-387.8" font-family="Helvetica,sans-Serif" font-size="11.00" fill="#000000">created_by</text>
<polygon fill="#c0c0c0" stroke="transparent" points="8.5,-358.7 8.5,-380.7 143.5,-380.7 143.5,-358.7 8.5,-358.7"/>
<polygon fill="none" stroke="#000000" points="8.5,-358.7 8.5,-380.7 143.5,-380.7 143.5,-358.7 8.5,-358.7"/>
<image xlink:href="../../images/foreignKeys.png" width="11px" height="12px" preserveAspectRatio="xMinYMin meet" x="13.5" y="-375.7"/>
<text text-anchor="start" x="28.5" y="-365.8" font-family="Helvetica,sans-Serif" font-size="11.00" fill="#000000">assigned_user_id</text>
<polygon fill="#ffffff" stroke="transparent" points="8.5,-336.7 8.5,-358.7 143.5,-358.7 143.5,-336.7 8.5,-336.7"/>
<polygon fill="none" stroke="#000000" points="8.5,-336.7 8.5,-358.7 143.5,-358.7 143.5,-336.7 8.5,-336.7"/>
<text text-anchor="start" x="28.5" y="-343.8" font-family="Helvetica,sans-Serif" font-size="11.00" fill="#000000">status</text>
<polygon fill="none" stroke="#000000" points="8.5,-317.7 8.5,-336.7 143.5,-336.7 143.5,-317.7 8.5,-317.7"/>
<text text-anchor="start" x="11.5" y="-323.8" font-family="Helvetica,sans-Serif" font-size="11.00" fill="#000000">...</text>
<polygon fill="#ffffff" stroke="transparent" points="8.5,-298.7 8.5,-317.7 69.5,-317.7 69.5,-298.7 8.5,-298.7"/>
<polygon fill="none" stroke="#000000" points="8.5,-298.7 8.5,-317.7 69.5,-317.7 69.5,-298.7 8.5,-298.7"/>
<text text-anchor="start" x="11.5" y="-304.8" font-family="Helvetica,sans-Serif" font-size="11.00" fill="#000000">&lt; 3</text>
<polygon fill="#ffffff" stroke="transparent" points="69.5,-298.7 69.5,-317.7 101.5,-317.7 101.5,-298.7 69.5,-298.7"/>
<polygon fill="none" stroke="#000000" points="69.5,-298.7 69.5,-317.7 101.5,-317.7 101.5,-298.7 69.5,-298.7"/>
<text text-anchor="start" x="92.3862" y="-304.8" font-family="Helvetica,sans-Serif" font-size="11.00" fill="#000000"> &#160;</text>
<polygon fill="#ffffff" stroke="transparent" points="101.5,-298.7 101.5,-317.7 143.5,-317.7 143.5,-298.7 101.5,-298.7"/>
<polygon fill="none" stroke="#000000" points="101.5,-298.7 101.5,-317.7 143.5,-317.7 143.5,-298.7 101.5,-298.7"/>
<text text-anchor="start" x="124.9053" y="-304.8" font-family="Helvetica,sans-Serif" font-size="11.00" fill="#000000">5 &gt;</text>
</a>
</g>
</g>
<!-- aow_actions&#45;&gt;aow_workflow -->
<g id="edge1" class="edge">
<title>aow_actions:w&#45;&gt;aow_workflow:e</title>
<path fill="none" stroke="#000000" d="M239.3299,-598.9313C214.6964,-596.0421 203.1519,-584.8 184,-561.7 146.4569,-516.4174 202.3218,-435.7 143.5,-435.7"/>
<polygon fill="#000000" stroke="#000000" points="246.011,-599.2813 253.8116,-603.2951 250.0055,-599.4907 254,-599.7 254,-599.7 254,-599.7 250.0055,-599.4907 254.1884,-596.1049 246.011,-599.2813 246.011,-599.2813"/>
<ellipse fill="none" stroke="#000000" cx="242.8153" cy="-599.1139" rx="3.2" ry="3.2"/>
</g>
<!-- aow_conditions -->
<g id="node3" class="node">
<title>aow_conditions</title>
<g id="a_node3"><a xlink:href="../../tables/aow_conditions.html" xlink:title="aow_conditions" target="_top">
<polygon fill="#ffffff" stroke="transparent" points="247,-490.2 247,-551.2 365,-551.2 365,-490.2 247,-490.2"/>
<polygon fill="#f5f5f5" stroke="transparent" points="247,-527.7 247,-550.7 365,-550.7 365,-527.7 247,-527.7"/>
<polygon fill="none" stroke="#000000" points="247,-527.7 247,-550.7 365,-550.7 365,-527.7 247,-527.7"/>
<text text-anchor="start" x="251.6006" y="-536.8" font-family="Helvetica,sans-Serif" font-weight="bold" font-size="11.00" fill="#000000">aow_conditions</text>
<text text-anchor="start" x="330.5219" y="-535.8" font-family="Helvetica,sans-Serif" font-size="11.00" fill="#000000">[table]</text>
<polygon fill="none" stroke="#000000" points="247,-508.7 247,-527.7 365,-527.7 365,-508.7 247,-508.7"/>
<text text-anchor="start" x="250" y="-514.8" font-family="Helvetica,sans-Serif" font-size="11.00" fill="#000000">...</text>
<polygon fill="#ffffff" stroke="transparent" points="247,-489.7 247,-508.7 304,-508.7 304,-489.7 247,-489.7"/>
<polygon fill="none" stroke="#000000" points="247,-489.7 247,-508.7 304,-508.7 304,-489.7 247,-489.7"/>
<text text-anchor="start" x="250" y="-495.8" font-family="Helvetica,sans-Serif" font-size="11.00" fill="#000000">&lt; 3</text>
<polygon fill="#ffffff" stroke="transparent" points="304,-489.7 304,-508.7 334,-508.7 334,-489.7 304,-489.7"/>
<polygon fill="none" stroke="#000000" points="304,-489.7 304,-508.7 334,-508.7 334,-489.7 304,-489.7"/>
<text text-anchor="start" x="324.8862" y="-495.8" font-family="Helvetica,sans-Serif" font-size="11.00" fill="#000000"> &#160;</text>
<polygon fill="#ffffff" stroke="transparent" points="334,-489.7 334,-508.7 365,-508.7 365,-489.7 334,-489.7"/>
<polygon fill="none" stroke="#000000" points="334,-489.7 334,-508.7 365,-508.7 365,-489.7 334,-489.7"/>
<text text-anchor="start" x="355.8862" y="-495.8" font-family="Helvetica,sans-Serif" font-size="11.00" fill="#000000"> &#160;</text>
</a>
</g>
</g>
<!-- aow_conditions&#45;&gt;aow_workflow -->
<g id="edge2" class="edge">
<title>aow_conditions:w&#45;&gt;aow_workflow:e</title>
<path fill="none" stroke="#000000" d="M232.6416,-516.3003C212.0559,-511.7874 205.0733,-496.9082 184,-479.7 163.4132,-462.8891 170.0786,-435.7 143.5,-435.7"/>
<polygon fill="#000000" stroke="#000000" points="239.0377,-516.9238 246.6507,-521.283 243.0189,-517.3119 247,-517.7 247,-517.7 247,-517.7 243.0189,-517.3119 247.3493,-514.117 239.0377,-516.9238 239.0377,-516.9238"/>
<ellipse fill="none" stroke="#000000" cx="235.8528" cy="-516.6133" rx="3.2" ry="3.2"/>
</g>
<!-- aow_processed -->
<g id="node4" class="node">
<title>aow_processed</title>
<g id="a_node4"><a xlink:href="../../tables/aow_processed.html" xlink:title="aow_processed" target="_top">
<polygon fill="#ffffff" stroke="transparent" points="246,-408.2 246,-469.2 366,-469.2 366,-408.2 246,-408.2"/>
<polygon fill="#f5f5f5" stroke="transparent" points="246,-445.7 246,-468.7 366,-468.7 366,-445.7 246,-445.7"/>
<polygon fill="none" stroke="#000000" points="246,-445.7 246,-468.7 366,-468.7 366,-445.7 246,-445.7"/>
<text text-anchor="start" x="250.989" y="-454.8" font-family="Helvetica,sans-Serif" font-weight="bold" font-size="11.00" fill="#000000">aow_processed</text>
<text text-anchor="start" x="331.5219" y="-453.8" font-family="Helvetica,sans-Serif" font-size="11.00" fill="#000000">[table]</text>
<polygon fill="none" stroke="#000000" points="246,-426.7 246,-445.7 366,-445.7 366,-426.7 246,-426.7"/>
<text text-anchor="start" x="249" y="-432.8" font-family="Helvetica,sans-Serif" font-size="11.00" fill="#000000">...</text>
<polygon fill="#ffffff" stroke="transparent" points="246,-407.7 246,-426.7 300,-426.7 300,-407.7 246,-407.7"/>
<polygon fill="none" stroke="#000000" points="246,-407.7 246,-426.7 300,-426.7 300,-407.7 246,-407.7"/>
<text text-anchor="start" x="249" y="-413.8" font-family="Helvetica,sans-Serif" font-size="11.00" fill="#000000">&lt; 3</text>
<polygon fill="#ffffff" stroke="transparent" points="300,-407.7 300,-426.7 328,-426.7 328,-407.7 300,-407.7"/>
<polygon fill="none" stroke="#000000" points="300,-407.7 300,-426.7 328,-426.7 328,-407.7 300,-407.7"/>
<text text-anchor="start" x="318.8862" y="-413.8" font-family="Helvetica,sans-Serif" font-size="11.00" fill="#000000"> &#160;</text>
<polygon fill="#ffffff" stroke="transparent" points="328,-407.7 328,-426.7 366,-426.7 366,-407.7 328,-407.7"/>
<polygon fill="none" stroke="#000000" points="328,-407.7 328,-426.7 366,-426.7 366,-407.7 328,-407.7"/>
<text text-anchor="start" x="347.4053" y="-413.8" font-family="Helvetica,sans-Serif" font-size="11.00" fill="#000000">1 &gt;</text>
</a>
</g>
</g>
<!-- aow_processed&#45;&gt;aow_workflow -->
<g id="edge3" class="edge">
<title>aow_processed:w&#45;&gt;aow_workflow:e</title>
<path fill="none" stroke="#000000" d="M231.282,-435.7C197.306,-435.7 183.717,-435.7 143.5,-435.7"/>
<polygon fill="#000000" stroke="#000000" points="238,-435.7001 246,-439.3 242,-435.7 246,-435.7 246,-435.7 246,-435.7 242,-435.7 246,-432.1 238,-435.7001 238,-435.7001"/>
<ellipse fill="none" stroke="#000000" cx="234.8" cy="-435.7001" rx="3.2" ry="3.2"/>
</g>
<!-- aow_workflow_audit -->
<g id="node5" class="node">
<title>aow_workflow_audit</title>
<g id="a_node5"><a xlink:href="../../tables/aow_workflow_audit.html" xlink:title="aow_workflow_audit" target="_top">
<polygon fill="#ffffff" stroke="transparent" points="192,-120.7 192,-386.7 420,-386.7 420,-120.7 192,-120.7"/>
<polygon fill="#f5f5f5" stroke="transparent" points="194,-361.7 194,-384.7 418,-384.7 418,-361.7 194,-361.7"/>
<polygon fill="none" stroke="#000000" points="194,-361.7 194,-384.7 418,-384.7 418,-361.7 194,-361.7"/>
<text text-anchor="start" x="199" y="-370.8" font-family="Helvetica,sans-Serif" font-weight="bold" font-size="11.00" fill="#000000">aow_workflow_audit</text>
<text text-anchor="start" x="383.0437" y="-369.8" font-family="Helvetica,sans-Serif" font-size="11.00" fill="#000000">[table]</text>
<polygon fill="none" stroke="#000000" points="194,-339.7 194,-361.7 351,-361.7 351,-339.7 194,-339.7"/>
<image xlink:href="../../images/primaryKeys.png" width="11px" height="12px" preserveAspectRatio="xMinYMin meet" x="199" y="-356.7"/>
<text text-anchor="start" x="214" y="-346.8" font-family="Helvetica,sans-Serif" font-size="11.00" fill="#000000">id</text>
<polygon fill="none" stroke="#000000" points="351,-339.7 351,-361.7 418,-361.7 418,-339.7 351,-339.7"/>
<text text-anchor="start" x="354" y="-347.4" font-family="Helvetica,sans-Serif" font-size="11.00" fill="#000000">char[36]</text>
<polygon fill="#ffffff" stroke="transparent" points="194,-317.7 194,-339.7 351,-339.7 351,-317.7 194,-317.7"/>
<polygon fill="none" stroke="#000000" points="194,-317.7 194,-339.7 351,-339.7 351,-317.7 194,-317.7"/>
<image xlink:href="../../images/foreignKeys.png" width="11px" height="12px" preserveAspectRatio="xMinYMin meet" x="199" y="-334.7"/>
<text text-anchor="start" x="214" y="-324.8" font-family="Helvetica,sans-Serif" font-size="11.00" fill="#000000">parent_id</text>
<polygon fill="none" stroke="#000000" points="351,-317.7 351,-339.7 418,-339.7 418,-317.7 351,-317.7"/>
<text text-anchor="start" x="354" y="-325.4" font-family="Helvetica,sans-Serif" font-size="11.00" fill="#000000">char[36]</text>
<polygon fill="none" stroke="#000000" points="194,-295.7 194,-317.7 351,-317.7 351,-295.7 194,-295.7"/>
<text text-anchor="start" x="214" y="-302.8" font-family="Helvetica,sans-Serif" font-size="11.00" fill="#000000">date_created</text>
<polygon fill="none" stroke="#000000" points="351,-295.7 351,-317.7 418,-317.7 418,-295.7 351,-295.7"/>
<text text-anchor="start" x="354" y="-303.4" font-family="Helvetica,sans-Serif" font-size="11.00" fill="#000000">datetime[26]</text>
<polygon fill="none" stroke="#000000" points="194,-273.7 194,-295.7 351,-295.7 351,-273.7 194,-273.7"/>
<text text-anchor="start" x="214" y="-280.8" font-family="Helvetica,sans-Serif" font-size="11.00" fill="#000000">created_by</text>
<polygon fill="none" stroke="#000000" points="351,-273.7 351,-295.7 418,-295.7 418,-273.7 351,-273.7"/>
<text text-anchor="start" x="354" y="-281.4" font-family="Helvetica,sans-Serif" font-size="11.00" fill="#000000">varchar[36]</text>
<polygon fill="none" stroke="#000000" points="194,-251.7 194,-273.7 351,-273.7 351,-251.7 194,-251.7"/>
<text text-anchor="start" x="214" y="-258.8" font-family="Helvetica,sans-Serif" font-size="11.00" fill="#000000">field_name</text>
<polygon fill="none" stroke="#000000" points="351,-251.7 351,-273.7 418,-273.7 418,-251.7 351,-251.7"/>
<text text-anchor="start" x="353.9365" y="-259.4" font-family="Helvetica,sans-Serif" font-size="11.00" fill="#000000">varchar[100]</text>
<polygon fill="none" stroke="#000000" points="194,-229.7 194,-251.7 351,-251.7 351,-229.7 194,-229.7"/>
<text text-anchor="start" x="214" y="-236.8" font-family="Helvetica,sans-Serif" font-size="11.00" fill="#000000">data_type</text>
<polygon fill="none" stroke="#000000" points="351,-229.7 351,-251.7 418,-251.7 418,-229.7 351,-229.7"/>
<text text-anchor="start" x="353.9365" y="-237.4" font-family="Helvetica,sans-Serif" font-size="11.00" fill="#000000">varchar[100]</text>
<polygon fill="none" stroke="#000000" points="194,-207.7 194,-229.7 351,-229.7 351,-207.7 194,-207.7"/>
<text text-anchor="start" x="214" y="-214.8" font-family="Helvetica,sans-Serif" font-size="11.00" fill="#000000">before_value_string</text>
<polygon fill="none" stroke="#000000" points="351,-207.7 351,-229.7 418,-229.7 418,-207.7 351,-207.7"/>
<text text-anchor="start" x="353.9365" y="-215.4" font-family="Helvetica,sans-Serif" font-size="11.00" fill="#000000">varchar[255]</text>
<polygon fill="none" stroke="#000000" points="194,-185.7 194,-207.7 351,-207.7 351,-185.7 194,-185.7"/>
<text text-anchor="start" x="214" y="-192.8" font-family="Helvetica,sans-Serif" font-size="11.00" fill="#000000">after_value_string</text>
<polygon fill="none" stroke="#000000" points="351,-185.7 351,-207.7 418,-207.7 418,-185.7 351,-185.7"/>
<text text-anchor="start" x="353.9365" y="-193.4" font-family="Helvetica,sans-Serif" font-size="11.00" fill="#000000">varchar[255]</text>
<polygon fill="none" stroke="#000000" points="194,-163.7 194,-185.7 351,-185.7 351,-163.7 194,-163.7"/>
<text text-anchor="start" x="214" y="-170.8" font-family="Helvetica,sans-Serif" font-size="11.00" fill="#000000">before_value_text</text>
<polygon fill="none" stroke="#000000" points="351,-163.7 351,-185.7 418,-185.7 418,-163.7 351,-163.7"/>
<text text-anchor="start" x="354" y="-171.4" font-family="Helvetica,sans-Serif" font-size="11.00" fill="#000000">text[65535]</text>
<polygon fill="none" stroke="#000000" points="194,-141.7 194,-163.7 351,-163.7 351,-141.7 194,-141.7"/>
<text text-anchor="start" x="214" y="-148.8" font-family="Helvetica,sans-Serif" font-size="11.00" fill="#000000">after_value_text</text>
<polygon fill="none" stroke="#000000" points="351,-141.7 351,-163.7 418,-163.7 418,-141.7 351,-141.7"/>
<text text-anchor="start" x="354" y="-149.4" font-family="Helvetica,sans-Serif" font-size="11.00" fill="#000000">text[65535]</text>
<polygon fill="#ffffff" stroke="transparent" points="194,-122.7 194,-141.7 277,-141.7 277,-122.7 194,-122.7"/>
<polygon fill="none" stroke="#000000" points="194,-122.7 194,-141.7 277,-141.7 277,-122.7 194,-122.7"/>
<text text-anchor="start" x="197" y="-128.8" font-family="Helvetica,sans-Serif" font-size="11.00" fill="#000000">&lt; 1</text>
<polygon fill="#ffffff" stroke="transparent" points="277,-122.7 277,-141.7 351,-141.7 351,-122.7 277,-122.7"/>
<polygon fill="none" stroke="#000000" points="277,-122.7 277,-141.7 351,-141.7 351,-122.7 277,-122.7"/>
<text text-anchor="start" x="341.8862" y="-128.8" font-family="Helvetica,sans-Serif" font-size="11.00" fill="#000000"> &#160;</text>
<polygon fill="#ffffff" stroke="transparent" points="351,-122.7 351,-141.7 418,-141.7 418,-122.7 351,-122.7"/>
<polygon fill="none" stroke="#000000" points="351,-122.7 351,-141.7 418,-141.7 418,-122.7 351,-122.7"/>
<text text-anchor="start" x="399.4053" y="-128.8" font-family="Helvetica,sans-Serif" font-size="11.00" fill="#000000">0 &gt;</text>
<polygon fill="none" stroke="#000000" stroke-width="2" points="193,-121.7 193,-385.7 419,-385.7 419,-121.7 193,-121.7"/>
</a>
</g>
</g>
<!-- aow_workflow_audit&#45;&gt;aow_workflow -->
<g id="edge4" class="edge">
<title>aow_workflow_audit:w&#45;&gt;aow_workflow:e</title>
<path fill="none" stroke="#000000" d="M179.9464,-332.5082C152.4242,-351.5691 190.129,-435.7 143.5,-435.7"/>
<polygon fill="#000000" stroke="#000000" points="186.2785,-330.7924 194.9416,-332.1747 190.1392,-329.7462 194,-328.7 194,-328.7 194,-328.7 190.1392,-329.7462 193.0584,-325.2253 186.2785,-330.7924 186.2785,-330.7924"/>
<ellipse fill="none" stroke="#000000" cx="183.1898" cy="-331.6293" rx="3.2" ry="3.2"/>
</g>
<!-- securitygroups_records -->
<g id="node6" class="node">
<title>securitygroups_records</title>
<g id="a_node6"><a xlink:href="../../tables/securitygroups_records.html" xlink:title="securitygroups_records" target="_top">
<polygon fill="#ffffff" stroke="transparent" points="227.5,-38.2 227.5,-99.2 384.5,-99.2 384.5,-38.2 227.5,-38.2"/>
<polygon fill="#f5f5f5" stroke="transparent" points="228,-75.7 228,-98.7 385,-98.7 385,-75.7 228,-75.7"/>
<polygon fill="none" stroke="#000000" points="228,-75.7 228,-98.7 385,-98.7 385,-75.7 228,-75.7"/>
<text text-anchor="start" x="232.8528" y="-84.8" font-family="Helvetica,sans-Serif" font-weight="bold" font-size="11.00" fill="#000000">securitygroups_records</text>
<text text-anchor="start" x="350.5219" y="-83.8" font-family="Helvetica,sans-Serif" font-size="11.00" fill="#000000">[table]</text>
<polygon fill="none" stroke="#000000" points="228,-56.7 228,-75.7 385,-75.7 385,-56.7 228,-56.7"/>
<text text-anchor="start" x="231" y="-62.8" font-family="Helvetica,sans-Serif" font-size="11.00" fill="#000000">...</text>
<polygon fill="#ffffff" stroke="transparent" points="228,-37.7 228,-56.7 308,-56.7 308,-37.7 228,-37.7"/>
<polygon fill="none" stroke="#000000" points="228,-37.7 228,-56.7 308,-56.7 308,-37.7 228,-37.7"/>
<text text-anchor="start" x="231" y="-43.8" font-family="Helvetica,sans-Serif" font-size="11.00" fill="#000000">&lt; 41</text>
<polygon fill="#ffffff" stroke="transparent" points="308,-37.7 308,-56.7 346,-56.7 346,-37.7 308,-37.7"/>
<polygon fill="none" stroke="#000000" points="308,-37.7 308,-56.7 346,-56.7 346,-37.7 308,-37.7"/>
<text text-anchor="start" x="336.8862" y="-43.8" font-family="Helvetica,sans-Serif" font-size="11.00" fill="#000000"> &#160;</text>
<polygon fill="#ffffff" stroke="transparent" points="346,-37.7 346,-56.7 385,-56.7 385,-37.7 346,-37.7"/>
<polygon fill="none" stroke="#000000" points="346,-37.7 346,-56.7 385,-56.7 385,-37.7 346,-37.7"/>
<text text-anchor="start" x="375.8862" y="-43.8" font-family="Helvetica,sans-Serif" font-size="11.00" fill="#000000"> &#160;</text>
</a>
</g>
</g>
<!-- securitygroups_records&#45;&gt;aow_workflow -->
<g id="edge5" class="edge">
<title>securitygroups_records:w&#45;&gt;aow_workflow:e</title>
<path fill="none" stroke="#000000" d="M213.6651,-68.0303C198.1092,-73.9671 193.6767,-90.62 184,-110.7 152.4038,-176.2647 216.2808,-435.7 143.5,-435.7"/>
<polygon fill="#000000" stroke="#000000" points="220.1037,-66.9837 228.5777,-69.2534 224.0518,-66.3418 228,-65.7 228,-65.7 228,-65.7 224.0518,-66.3418 227.4223,-62.1466 220.1037,-66.9837 220.1037,-66.9837"/>
<ellipse fill="none" stroke="#000000" cx="216.9451" cy="-67.4972" rx="3.2" ry="3.2"/>
</g>
</g>
</svg>
