<?xml version="1.0" encoding="UTF-8" standalone="no"?>
<!DOCTYPE svg PUBLIC "-//W3C//DTD SVG 1.1//EN"
 "http://www.w3.org/Graphics/SVG/1.1/DTD/svg11.dtd">
<!-- Generated by graphviz version 2.40.1 (20161225.0304)
 -->
<!-- Title: oneDegreeRelationshipsDiagram Pages: 1 -->
<svg width="723pt" height="923pt"
 viewBox="0.00 0.00 723.00 923.20" xmlns="http://www.w3.org/2000/svg" xmlns:xlink="http://www.w3.org/1999/xlink">
<g id="graph0" class="graph" transform="scale(1 1) rotate(0) translate(4 919.2)">
<title>oneDegreeRelationshipsDiagram</title>
<polygon fill="#ffffff" stroke="transparent" points="-4,4 -4,-919.2 719,-919.2 719,4 -4,4"/>
<text text-anchor="middle" x="72.4936" y="-7.3" font-family="Helvetica,sans-Serif" font-size="11.00" fill="#000000">Generated by SchemaSpy</text>
<!-- aow_actions -->
<g id="node1" class="node">
<title>aow_actions</title>
<g id="a_node1"><a xlink:href="../../tables/aow_actions.html" xlink:title="aow_actions" target="_top">
<polygon fill="#ffffff" stroke="transparent" points="550,-762.2 550,-911.2 685,-911.2 685,-762.2 550,-762.2"/>
<polygon fill="#f5f5f5" stroke="transparent" points="550.5,-887.7 550.5,-910.7 685.5,-910.7 685.5,-887.7 550.5,-887.7"/>
<polygon fill="none" stroke="#000000" points="550.5,-887.7 550.5,-910.7 685.5,-910.7 685.5,-887.7 550.5,-887.7"/>
<text text-anchor="start" x="555.5" y="-896.8" font-family="Helvetica,sans-Serif" font-weight="bold" font-size="11.00" fill="#000000">aow_actions</text>
<text text-anchor="start" x="650.5437" y="-895.8" font-family="Helvetica,sans-Serif" font-size="11.00" fill="#000000">[table]</text>
<polygon fill="none" stroke="#000000" points="550.5,-865.7 550.5,-887.7 685.5,-887.7 685.5,-865.7 550.5,-865.7"/>
<image xlink:href="../../images/primaryKeys.png" width="11px" height="12px" preserveAspectRatio="xMinYMin meet" x="555.5" y="-882.7"/>
<text text-anchor="start" x="570.5" y="-872.8" font-family="Helvetica,sans-Serif" font-size="11.00" fill="#000000">id</text>
<polygon fill="#c0c0c0" stroke="transparent" points="550.5,-843.7 550.5,-865.7 685.5,-865.7 685.5,-843.7 550.5,-843.7"/>
<polygon fill="none" stroke="#000000" points="550.5,-843.7 550.5,-865.7 685.5,-865.7 685.5,-843.7 550.5,-843.7"/>
<image xlink:href="../../images/foreignKeys.png" width="11px" height="12px" preserveAspectRatio="xMinYMin meet" x="555.5" y="-860.7"/>
<text text-anchor="start" x="570.5" y="-850.8" font-family="Helvetica,sans-Serif" font-size="11.00" fill="#000000">modified_user_id</text>
<polygon fill="#c0c0c0" stroke="transparent" points="550.5,-821.7 550.5,-843.7 685.5,-843.7 685.5,-821.7 550.5,-821.7"/>
<polygon fill="none" stroke="#000000" points="550.5,-821.7 550.5,-843.7 685.5,-843.7 685.5,-821.7 550.5,-821.7"/>
<image xlink:href="../../images/foreignKeys.png" width="11px" height="12px" preserveAspectRatio="xMinYMin meet" x="555.5" y="-838.7"/>
<text text-anchor="start" x="570.5" y="-828.8" font-family="Helvetica,sans-Serif" font-size="11.00" fill="#000000">created_by</text>
<polygon fill="#ffffff" stroke="transparent" points="550.5,-799.7 550.5,-821.7 685.5,-821.7 685.5,-799.7 550.5,-799.7"/>
<polygon fill="none" stroke="#000000" points="550.5,-799.7 550.5,-821.7 685.5,-821.7 685.5,-799.7 550.5,-799.7"/>
<image xlink:href="../../images/foreignKeys.png" width="11px" height="12px" preserveAspectRatio="xMinYMin meet" x="555.5" y="-816.7"/>
<text text-anchor="start" x="570.5" y="-806.8" font-family="Helvetica,sans-Serif" font-size="11.00" fill="#000000">aow_workflow_id</text>
<polygon fill="none" stroke="#000000" points="550.5,-780.7 550.5,-799.7 685.5,-799.7 685.5,-780.7 550.5,-780.7"/>
<text text-anchor="start" x="553.5" y="-786.8" font-family="Helvetica,sans-Serif" font-size="11.00" fill="#000000">...</text>
<polygon fill="#ffffff" stroke="transparent" points="550.5,-761.7 550.5,-780.7 611.5,-780.7 611.5,-761.7 550.5,-761.7"/>
<polygon fill="none" stroke="#000000" points="550.5,-761.7 550.5,-780.7 611.5,-780.7 611.5,-761.7 550.5,-761.7"/>
<text text-anchor="start" x="553.5" y="-767.8" font-family="Helvetica,sans-Serif" font-size="11.00" fill="#000000">&lt; 3</text>
<polygon fill="#ffffff" stroke="transparent" points="611.5,-761.7 611.5,-780.7 643.5,-780.7 643.5,-761.7 611.5,-761.7"/>
<polygon fill="none" stroke="#000000" points="611.5,-761.7 611.5,-780.7 643.5,-780.7 643.5,-761.7 611.5,-761.7"/>
<text text-anchor="start" x="634.3862" y="-767.8" font-family="Helvetica,sans-Serif" font-size="11.00" fill="#000000"> &#160;</text>
<polygon fill="#ffffff" stroke="transparent" points="643.5,-761.7 643.5,-780.7 685.5,-780.7 685.5,-761.7 643.5,-761.7"/>
<polygon fill="none" stroke="#000000" points="643.5,-761.7 643.5,-780.7 685.5,-780.7 685.5,-761.7 643.5,-761.7"/>
<text text-anchor="start" x="666.9053" y="-767.8" font-family="Helvetica,sans-Serif" font-size="11.00" fill="#000000">1 &gt;</text>
</a>
</g>
</g>
<!-- aow_workflow -->
<g id="node2" class="node">
<title>aow_workflow</title>
<g id="a_node2"><a xlink:href="../../tables/aow_workflow.html" xlink:title="aow_workflow" target="_top">
<polygon fill="#ffffff" stroke="transparent" points="273,-279.7 273,-633.7 479,-633.7 479,-279.7 273,-279.7"/>
<polygon fill="#f5f5f5" stroke="transparent" points="275,-608.7 275,-631.7 477,-631.7 477,-608.7 275,-608.7"/>
<polygon fill="none" stroke="#000000" points="275,-608.7 275,-631.7 477,-631.7 477,-608.7 275,-608.7"/>
<text text-anchor="start" x="280" y="-617.8" font-family="Helvetica,sans-Serif" font-weight="bold" font-size="11.00" fill="#000000">aow_workflow</text>
<text text-anchor="start" x="442.0437" y="-616.8" font-family="Helvetica,sans-Serif" font-size="11.00" fill="#000000">[table]</text>
<polygon fill="none" stroke="#000000" points="275,-586.7 275,-608.7 410,-608.7 410,-586.7 275,-586.7"/>
<image xlink:href="../../images/primaryKeys.png" width="11px" height="12px" preserveAspectRatio="xMinYMin meet" x="280" y="-603.7"/>
<text text-anchor="start" x="295" y="-593.8" font-family="Helvetica,sans-Serif" font-size="11.00" fill="#000000">id</text>
<polygon fill="none" stroke="#000000" points="410,-586.7 410,-608.7 477,-608.7 477,-586.7 410,-586.7"/>
<text text-anchor="start" x="413" y="-594.4" font-family="Helvetica,sans-Serif" font-size="11.00" fill="#000000">char[36]</text>
<polygon fill="none" stroke="#000000" points="275,-564.7 275,-586.7 410,-586.7 410,-564.7 275,-564.7"/>
<text text-anchor="start" x="295" y="-571.8" font-family="Helvetica,sans-Serif" font-size="11.00" fill="#000000">name</text>
<polygon fill="none" stroke="#000000" points="410,-564.7 410,-586.7 477,-586.7 477,-564.7 410,-564.7"/>
<text text-anchor="start" x="412.9365" y="-572.4" font-family="Helvetica,sans-Serif" font-size="11.00" fill="#000000">varchar[255]</text>
<polygon fill="none" stroke="#000000" points="275,-542.7 275,-564.7 410,-564.7 410,-542.7 275,-542.7"/>
<text text-anchor="start" x="295" y="-549.8" font-family="Helvetica,sans-Serif" font-size="11.00" fill="#000000">date_entered</text>
<polygon fill="none" stroke="#000000" points="410,-542.7 410,-564.7 477,-564.7 477,-542.7 410,-542.7"/>
<text text-anchor="start" x="413" y="-550.4" font-family="Helvetica,sans-Serif" font-size="11.00" fill="#000000">datetime[26]</text>
<polygon fill="none" stroke="#000000" points="275,-520.7 275,-542.7 410,-542.7 410,-520.7 275,-520.7"/>
<text text-anchor="start" x="295" y="-527.8" font-family="Helvetica,sans-Serif" font-size="11.00" fill="#000000">date_modified</text>
<polygon fill="none" stroke="#000000" points="410,-520.7 410,-542.7 477,-542.7 477,-520.7 410,-520.7"/>
<text text-anchor="start" x="413" y="-528.4" font-family="Helvetica,sans-Serif" font-size="11.00" fill="#000000">datetime[26]</text>
<polygon fill="none" stroke="#000000" points="275,-498.7 275,-520.7 410,-520.7 410,-498.7 275,-498.7"/>
<image xlink:href="../../images/foreignKeys.png" width="11px" height="12px" preserveAspectRatio="xMinYMin meet" x="280" y="-515.7"/>
<text text-anchor="start" x="295" y="-505.8" font-family="Helvetica,sans-Serif" font-size="11.00" fill="#000000">modified_user_id</text>
<polygon fill="none" stroke="#000000" points="410,-498.7 410,-520.7 477,-520.7 477,-498.7 410,-498.7"/>
<text text-anchor="start" x="413" y="-506.4" font-family="Helvetica,sans-Serif" font-size="11.00" fill="#000000">char[36]</text>
<polygon fill="none" stroke="#000000" points="275,-476.7 275,-498.7 410,-498.7 410,-476.7 275,-476.7"/>
<image xlink:href="../../images/foreignKeys.png" width="11px" height="12px" preserveAspectRatio="xMinYMin meet" x="280" y="-493.7"/>
<text text-anchor="start" x="295" y="-483.8" font-family="Helvetica,sans-Serif" font-size="11.00" fill="#000000">created_by</text>
<polygon fill="none" stroke="#000000" points="410,-476.7 410,-498.7 477,-498.7 477,-476.7 410,-476.7"/>
<text text-anchor="start" x="413" y="-484.4" font-family="Helvetica,sans-Serif" font-size="11.00" fill="#000000">char[36]</text>
<polygon fill="none" stroke="#000000" points="275,-454.7 275,-476.7 410,-476.7 410,-454.7 275,-454.7"/>
<text text-anchor="start" x="295" y="-461.8" font-family="Helvetica,sans-Serif" font-size="11.00" fill="#000000">description</text>
<polygon fill="none" stroke="#000000" points="410,-454.7 410,-476.7 477,-476.7 477,-454.7 410,-454.7"/>
<text text-anchor="start" x="413" y="-462.4" font-family="Helvetica,sans-Serif" font-size="11.00" fill="#000000">text[65535]</text>
<polygon fill="none" stroke="#000000" points="275,-432.7 275,-454.7 410,-454.7 410,-432.7 275,-432.7"/>
<text text-anchor="start" x="295" y="-439.8" font-family="Helvetica,sans-Serif" font-size="11.00" fill="#000000">deleted</text>
<polygon fill="none" stroke="#000000" points="410,-432.7 410,-454.7 477,-454.7 477,-432.7 410,-432.7"/>
<text text-anchor="start" x="413" y="-440.4" font-family="Helvetica,sans-Serif" font-size="11.00" fill="#000000">bit[1]</text>
<polygon fill="none" stroke="#000000" points="275,-410.7 275,-432.7 410,-432.7 410,-410.7 275,-410.7"/>
<image xlink:href="../../images/foreignKeys.png" width="11px" height="12px" preserveAspectRatio="xMinYMin meet" x="280" y="-427.7"/>
<text text-anchor="start" x="295" y="-417.8" font-family="Helvetica,sans-Serif" font-size="11.00" fill="#000000">assigned_user_id</text>
<polygon fill="none" stroke="#000000" points="410,-410.7 410,-432.7 477,-432.7 477,-410.7 410,-410.7"/>
<text text-anchor="start" x="413" y="-418.4" font-family="Helvetica,sans-Serif" font-size="11.00" fill="#000000">char[36]</text>
<polygon fill="none" stroke="#000000" points="275,-388.7 275,-410.7 410,-410.7 410,-388.7 275,-388.7"/>
<text text-anchor="start" x="295" y="-395.8" font-family="Helvetica,sans-Serif" font-size="11.00" fill="#000000">flow_module</text>
<polygon fill="none" stroke="#000000" points="410,-388.7 410,-410.7 477,-410.7 477,-388.7 410,-388.7"/>
<text text-anchor="start" x="412.9365" y="-396.4" font-family="Helvetica,sans-Serif" font-size="11.00" fill="#000000">varchar[100]</text>
<polygon fill="none" stroke="#000000" points="275,-366.7 275,-388.7 410,-388.7 410,-366.7 275,-366.7"/>
<text text-anchor="start" x="295" y="-373.8" font-family="Helvetica,sans-Serif" font-size="11.00" fill="#000000">flow_run_on</text>
<polygon fill="none" stroke="#000000" points="410,-366.7 410,-388.7 477,-388.7 477,-366.7 410,-366.7"/>
<text text-anchor="start" x="412.9365" y="-374.4" font-family="Helvetica,sans-Serif" font-size="11.00" fill="#000000">varchar[100]</text>
<polygon fill="#ffffff" stroke="transparent" points="275,-344.7 275,-366.7 410,-366.7 410,-344.7 275,-344.7"/>
<polygon fill="none" stroke="#000000" points="275,-344.7 275,-366.7 410,-366.7 410,-344.7 275,-344.7"/>
<text text-anchor="start" x="295" y="-351.8" font-family="Helvetica,sans-Serif" font-size="11.00" fill="#000000">status</text>
<polygon fill="none" stroke="#000000" points="410,-344.7 410,-366.7 477,-366.7 477,-344.7 410,-344.7"/>
<text text-anchor="start" x="412.9365" y="-352.4" font-family="Helvetica,sans-Serif" font-size="11.00" fill="#000000">varchar[100]</text>
<polygon fill="none" stroke="#000000" points="275,-322.7 275,-344.7 410,-344.7 410,-322.7 275,-322.7"/>
<text text-anchor="start" x="295" y="-329.8" font-family="Helvetica,sans-Serif" font-size="11.00" fill="#000000">run_when</text>
<polygon fill="none" stroke="#000000" points="410,-322.7 410,-344.7 477,-344.7 477,-322.7 410,-322.7"/>
<text text-anchor="start" x="412.9365" y="-330.4" font-family="Helvetica,sans-Serif" font-size="11.00" fill="#000000">varchar[100]</text>
<polygon fill="none" stroke="#000000" points="275,-300.7 275,-322.7 410,-322.7 410,-300.7 275,-300.7"/>
<text text-anchor="start" x="295" y="-307.8" font-family="Helvetica,sans-Serif" font-size="11.00" fill="#000000">multiple_runs</text>
<polygon fill="none" stroke="#000000" points="410,-300.7 410,-322.7 477,-322.7 477,-300.7 410,-300.7"/>
<text text-anchor="start" x="413" y="-308.4" font-family="Helvetica,sans-Serif" font-size="11.00" fill="#000000">bit[1]</text>
<polygon fill="#ffffff" stroke="transparent" points="275,-281.7 275,-300.7 347,-300.7 347,-281.7 275,-281.7"/>
<polygon fill="none" stroke="#000000" points="275,-281.7 275,-300.7 347,-300.7 347,-281.7 275,-281.7"/>
<text text-anchor="start" x="278" y="-287.8" font-family="Helvetica,sans-Serif" font-size="11.00" fill="#000000">&lt; 3</text>
<polygon fill="#ffffff" stroke="transparent" points="347,-281.7 347,-300.7 410,-300.7 410,-281.7 347,-281.7"/>
<polygon fill="none" stroke="#000000" points="347,-281.7 347,-300.7 410,-300.7 410,-281.7 347,-281.7"/>
<text text-anchor="start" x="400.8862" y="-287.8" font-family="Helvetica,sans-Serif" font-size="11.00" fill="#000000"> &#160;</text>
<polygon fill="#ffffff" stroke="transparent" points="410,-281.7 410,-300.7 477,-300.7 477,-281.7 410,-281.7"/>
<polygon fill="none" stroke="#000000" points="410,-281.7 410,-300.7 477,-300.7 477,-281.7 410,-281.7"/>
<text text-anchor="start" x="458.4053" y="-287.8" font-family="Helvetica,sans-Serif" font-size="11.00" fill="#000000">5 &gt;</text>
<polygon fill="none" stroke="#000000" stroke-width="2" points="274,-280.7 274,-632.7 478,-632.7 478,-280.7 274,-280.7"/>
</a>
</g>
</g>
<!-- aow_actions&#45;&gt;aow_workflow -->
<g id="edge1" class="edge">
<title>aow_actions:w&#45;&gt;aow_workflow:e</title>
<path fill="none" stroke="#000000" d="M536.0319,-808.8586C463.5445,-788.0401 571.6677,-597.7 477,-597.7"/>
<polygon fill="#000000" stroke="#000000" points="542.564,-809.6899 550.0455,-814.2712 546.532,-810.195 550.5,-810.7 550.5,-810.7 550.5,-810.7 546.532,-810.195 550.9545,-807.1288 542.564,-809.6899 542.564,-809.6899"/>
<ellipse fill="none" stroke="#000000" cx="539.3896" cy="-809.2859" rx="3.2" ry="3.2"/>
</g>
<!-- users -->
<g id="node3" class="node">
<title>users</title>
<g id="a_node3"><a xlink:href="../../tables/users.html" xlink:title="users" target="_top">
<polygon fill="#ffffff" stroke="transparent" points="8,-329.2 8,-544.2 224,-544.2 224,-329.2 8,-329.2"/>
<polygon fill="#f5f5f5" stroke="transparent" points="8,-520.7 8,-543.7 224,-543.7 224,-520.7 8,-520.7"/>
<polygon fill="none" stroke="#000000" points="8,-520.7 8,-543.7 224,-543.7 224,-520.7 8,-520.7"/>
<text text-anchor="start" x="13" y="-529.8" font-family="Helvetica,sans-Serif" font-weight="bold" font-size="11.00" fill="#000000">users</text>
<text text-anchor="start" x="189.0437" y="-528.8" font-family="Helvetica,sans-Serif" font-size="11.00" fill="#000000">[table]</text>
<polygon fill="none" stroke="#000000" points="8,-498.7 8,-520.7 224,-520.7 224,-498.7 8,-498.7"/>
<image xlink:href="../../images/primaryKeys.png" width="11px" height="12px" preserveAspectRatio="xMinYMin meet" x="13" y="-515.7"/>
<text text-anchor="start" x="28" y="-505.8" font-family="Helvetica,sans-Serif" font-size="11.00" fill="#000000">id</text>
<polygon fill="#ffffff" stroke="transparent" points="8,-476.7 8,-498.7 224,-498.7 224,-476.7 8,-476.7"/>
<polygon fill="none" stroke="#000000" points="8,-476.7 8,-498.7 224,-498.7 224,-476.7 8,-476.7"/>
<text text-anchor="start" x="28" y="-483.8" font-family="Helvetica,sans-Serif" font-size="11.00" fill="#000000">user_name</text>
<polygon fill="#ffffff" stroke="transparent" points="8,-454.7 8,-476.7 224,-476.7 224,-454.7 8,-454.7"/>
<polygon fill="none" stroke="#000000" points="8,-454.7 8,-476.7 224,-476.7 224,-454.7 8,-454.7"/>
<text text-anchor="start" x="28" y="-461.8" font-family="Helvetica,sans-Serif" font-size="11.00" fill="#000000">first_name</text>
<polygon fill="#ffffff" stroke="transparent" points="8,-432.7 8,-454.7 224,-454.7 224,-432.7 8,-432.7"/>
<polygon fill="none" stroke="#000000" points="8,-432.7 8,-454.7 224,-454.7 224,-432.7 8,-432.7"/>
<text text-anchor="start" x="28" y="-439.8" font-family="Helvetica,sans-Serif" font-size="11.00" fill="#000000">last_name</text>
<polygon fill="#ffffff" stroke="transparent" points="8,-410.7 8,-432.7 224,-432.7 224,-410.7 8,-410.7"/>
<polygon fill="none" stroke="#000000" points="8,-410.7 8,-432.7 224,-432.7 224,-410.7 8,-410.7"/>
<text text-anchor="start" x="28" y="-417.8" font-family="Helvetica,sans-Serif" font-size="11.00" fill="#000000">status</text>
<polygon fill="#c0c0c0" stroke="transparent" points="8,-388.7 8,-410.7 224,-410.7 224,-388.7 8,-388.7"/>
<polygon fill="none" stroke="#000000" points="8,-388.7 8,-410.7 224,-410.7 224,-388.7 8,-388.7"/>
<image xlink:href="../../images/foreignKeys.png" width="11px" height="12px" preserveAspectRatio="xMinYMin meet" x="13" y="-405.7"/>
<text text-anchor="start" x="28" y="-395.8" font-family="Helvetica,sans-Serif" font-size="11.00" fill="#000000">reports_to_id</text>
<polygon fill="#ffffff" stroke="transparent" points="8,-366.7 8,-388.7 224,-388.7 224,-366.7 8,-366.7"/>
<polygon fill="none" stroke="#000000" points="8,-366.7 8,-388.7 224,-388.7 224,-366.7 8,-366.7"/>
<text text-anchor="start" x="28" y="-373.8" font-family="Helvetica,sans-Serif" font-size="11.00" fill="#000000">is_group</text>
<polygon fill="none" stroke="#000000" points="8,-347.7 8,-366.7 224,-366.7 224,-347.7 8,-347.7"/>
<text text-anchor="start" x="11" y="-353.8" font-family="Helvetica,sans-Serif" font-size="11.00" fill="#000000">...</text>
<polygon fill="#ffffff" stroke="transparent" points="8,-328.7 8,-347.7 104,-347.7 104,-328.7 8,-328.7"/>
<polygon fill="none" stroke="#000000" points="8,-328.7 8,-347.7 104,-347.7 104,-328.7 8,-328.7"/>
<text text-anchor="start" x="11" y="-334.8" font-family="Helvetica,sans-Serif" font-size="11.00" fill="#000000">&lt; 2</text>
<polygon fill="#ffffff" stroke="transparent" points="104,-328.7 104,-347.7 153,-347.7 153,-328.7 104,-328.7"/>
<polygon fill="none" stroke="#000000" points="104,-328.7 104,-347.7 153,-347.7 153,-328.7 104,-328.7"/>
<text text-anchor="start" x="143.8862" y="-334.8" font-family="Helvetica,sans-Serif" font-size="11.00" fill="#000000"> &#160;</text>
<polygon fill="#ffffff" stroke="transparent" points="153,-328.7 153,-347.7 224,-347.7 224,-328.7 153,-328.7"/>
<polygon fill="none" stroke="#000000" points="153,-328.7 153,-347.7 224,-347.7 224,-328.7 153,-328.7"/>
<text text-anchor="start" x="193.1755" y="-334.8" font-family="Helvetica,sans-Serif" font-size="11.00" fill="#000000">214 &gt;</text>
</a>
</g>
</g>
<!-- aow_actions&#45;&gt;users -->
<g id="edge2" class="edge">
<title>aow_actions:w&#45;&gt;users:e</title>
<path fill="none" stroke="#000000" d="M536.2336,-830.0817C475.1117,-813.3 284.8483,-720.744 265,-695.7 212.4212,-629.3578 308.6512,-509.7 224,-509.7"/>
<polygon fill="#000000" stroke="#000000" points="542.6314,-831.2558 549.8501,-836.2409 546.5657,-831.9779 550.5,-832.7 550.5,-832.7 550.5,-832.7 546.5657,-831.9779 551.1499,-829.1591 542.6314,-831.2558 542.6314,-831.2558"/>
<ellipse fill="none" stroke="#000000" cx="539.484" cy="-830.6782" rx="3.2" ry="3.2"/>
</g>
<!-- aow_actions&#45;&gt;users -->
<g id="edge3" class="edge">
<title>aow_actions:w&#45;&gt;users:e</title>
<path fill="none" stroke="#000000" d="M535.9348,-854.7315C412.3094,-855.2245 348.6603,-860.0604 265,-762.7 227.8804,-719.5018 280.9557,-509.7 224,-509.7"/>
<polygon fill="#000000" stroke="#000000" points="542.5,-854.7174 550.5078,-858.3 546.5,-854.7087 550.5,-854.7 550.5,-854.7 550.5,-854.7 546.5,-854.7087 550.4922,-851.1 542.5,-854.7174 542.5,-854.7174"/>
<ellipse fill="none" stroke="#000000" cx="539.3" cy="-854.7243" rx="3.2" ry="3.2"/>
</g>
<!-- aow_workflow&#45;&gt;users -->
<g id="edge10" class="edge">
<title>aow_workflow:w&#45;&gt;users:e</title>
<path fill="none" stroke="#000000" d="M261.0699,-425.9444C238.7709,-443.5228 263.2009,-509.7 224,-509.7"/>
<polygon fill="#000000" stroke="#000000" points="267.3473,-424.0318 276.0493,-425.1437 271.1737,-422.8659 275,-421.7 275,-421.7 275,-421.7 271.1737,-422.8659 273.9507,-418.2563 267.3473,-424.0318 267.3473,-424.0318"/>
<ellipse fill="none" stroke="#000000" cx="264.2863" cy="-424.9645" rx="3.2" ry="3.2"/>
</g>
<!-- aow_workflow&#45;&gt;users -->
<g id="edge11" class="edge">
<title>aow_workflow:w&#45;&gt;users:e</title>
<path fill="none" stroke="#000000" d="M260.8489,-490.759C248.2843,-496.804 242.9,-509.7 224,-509.7"/>
<polygon fill="#000000" stroke="#000000" points="267.1806,-489.3903 275.7607,-491.2187 271.0903,-488.5452 275,-487.7 275,-487.7 275,-487.7 271.0903,-488.5452 274.2393,-484.1813 267.1806,-489.3903 267.1806,-489.3903"/>
<ellipse fill="none" stroke="#000000" cx="264.0528" cy="-490.0665" rx="3.2" ry="3.2"/>
</g>
<!-- aow_workflow&#45;&gt;users -->
<g id="edge12" class="edge">
<title>aow_workflow:w&#45;&gt;users:e</title>
<path fill="none" stroke="#000000" d="M260.276,-509.7C248.2815,-509.7 240.8229,-509.7 224,-509.7"/>
<polygon fill="#000000" stroke="#000000" points="267,-509.7001 275,-513.3 271,-509.7 275,-509.7 275,-509.7 275,-509.7 271,-509.7 275,-506.1 267,-509.7001 267,-509.7001"/>
<ellipse fill="none" stroke="#000000" cx="263.8" cy="-509.7001" rx="3.2" ry="3.2"/>
</g>
<!-- aow_conditions -->
<g id="node4" class="node">
<title>aow_conditions</title>
<g id="a_node4"><a xlink:href="../../tables/aow_conditions.html" xlink:title="aow_conditions" target="_top">
<polygon fill="#ffffff" stroke="transparent" points="550,-592.2 550,-741.2 685,-741.2 685,-592.2 550,-592.2"/>
<polygon fill="#f5f5f5" stroke="transparent" points="550.5,-717.7 550.5,-740.7 685.5,-740.7 685.5,-717.7 550.5,-717.7"/>
<polygon fill="none" stroke="#000000" points="550.5,-717.7 550.5,-740.7 685.5,-740.7 685.5,-717.7 550.5,-717.7"/>
<text text-anchor="start" x="555.5" y="-726.8" font-family="Helvetica,sans-Serif" font-weight="bold" font-size="11.00" fill="#000000">aow_conditions</text>
<text text-anchor="start" x="650.5437" y="-725.8" font-family="Helvetica,sans-Serif" font-size="11.00" fill="#000000">[table]</text>
<polygon fill="none" stroke="#000000" points="550.5,-695.7 550.5,-717.7 685.5,-717.7 685.5,-695.7 550.5,-695.7"/>
<image xlink:href="../../images/primaryKeys.png" width="11px" height="12px" preserveAspectRatio="xMinYMin meet" x="555.5" y="-712.7"/>
<text text-anchor="start" x="570.5" y="-702.8" font-family="Helvetica,sans-Serif" font-size="11.00" fill="#000000">id</text>
<polygon fill="#c0c0c0" stroke="transparent" points="550.5,-673.7 550.5,-695.7 685.5,-695.7 685.5,-673.7 550.5,-673.7"/>
<polygon fill="none" stroke="#000000" points="550.5,-673.7 550.5,-695.7 685.5,-695.7 685.5,-673.7 550.5,-673.7"/>
<image xlink:href="../../images/foreignKeys.png" width="11px" height="12px" preserveAspectRatio="xMinYMin meet" x="555.5" y="-690.7"/>
<text text-anchor="start" x="570.5" y="-680.8" font-family="Helvetica,sans-Serif" font-size="11.00" fill="#000000">modified_user_id</text>
<polygon fill="#c0c0c0" stroke="transparent" points="550.5,-651.7 550.5,-673.7 685.5,-673.7 685.5,-651.7 550.5,-651.7"/>
<polygon fill="none" stroke="#000000" points="550.5,-651.7 550.5,-673.7 685.5,-673.7 685.5,-651.7 550.5,-651.7"/>
<image xlink:href="../../images/foreignKeys.png" width="11px" height="12px" preserveAspectRatio="xMinYMin meet" x="555.5" y="-668.7"/>
<text text-anchor="start" x="570.5" y="-658.8" font-family="Helvetica,sans-Serif" font-size="11.00" fill="#000000">created_by</text>
<polygon fill="#ffffff" stroke="transparent" points="550.5,-629.7 550.5,-651.7 685.5,-651.7 685.5,-629.7 550.5,-629.7"/>
<polygon fill="none" stroke="#000000" points="550.5,-629.7 550.5,-651.7 685.5,-651.7 685.5,-629.7 550.5,-629.7"/>
<image xlink:href="../../images/foreignKeys.png" width="11px" height="12px" preserveAspectRatio="xMinYMin meet" x="555.5" y="-646.7"/>
<text text-anchor="start" x="570.5" y="-636.8" font-family="Helvetica,sans-Serif" font-size="11.00" fill="#000000">aow_workflow_id</text>
<polygon fill="none" stroke="#000000" points="550.5,-610.7 550.5,-629.7 685.5,-629.7 685.5,-610.7 550.5,-610.7"/>
<text text-anchor="start" x="553.5" y="-616.8" font-family="Helvetica,sans-Serif" font-size="11.00" fill="#000000">...</text>
<polygon fill="#ffffff" stroke="transparent" points="550.5,-591.7 550.5,-610.7 616.5,-610.7 616.5,-591.7 550.5,-591.7"/>
<polygon fill="none" stroke="#000000" points="550.5,-591.7 550.5,-610.7 616.5,-610.7 616.5,-591.7 550.5,-591.7"/>
<text text-anchor="start" x="553.5" y="-597.8" font-family="Helvetica,sans-Serif" font-size="11.00" fill="#000000">&lt; 3</text>
<polygon fill="#ffffff" stroke="transparent" points="616.5,-591.7 616.5,-610.7 650.5,-610.7 650.5,-591.7 616.5,-591.7"/>
<polygon fill="none" stroke="#000000" points="616.5,-591.7 616.5,-610.7 650.5,-610.7 650.5,-591.7 616.5,-591.7"/>
<text text-anchor="start" x="641.3862" y="-597.8" font-family="Helvetica,sans-Serif" font-size="11.00" fill="#000000"> &#160;</text>
<polygon fill="#ffffff" stroke="transparent" points="650.5,-591.7 650.5,-610.7 685.5,-610.7 685.5,-591.7 650.5,-591.7"/>
<polygon fill="none" stroke="#000000" points="650.5,-591.7 650.5,-610.7 685.5,-610.7 685.5,-591.7 650.5,-591.7"/>
<text text-anchor="start" x="676.3862" y="-597.8" font-family="Helvetica,sans-Serif" font-size="11.00" fill="#000000"> &#160;</text>
</a>
</g>
</g>
<!-- aow_conditions&#45;&gt;aow_workflow -->
<g id="edge4" class="edge">
<title>aow_conditions:w&#45;&gt;aow_workflow:e</title>
<path fill="none" stroke="#000000" d="M536.0313,-638.1389C512.4224,-628.8818 509.2285,-597.7 477,-597.7"/>
<polygon fill="#000000" stroke="#000000" points="542.6225,-639.3056 549.8725,-644.2449 546.5612,-640.0028 550.5,-640.7 550.5,-640.7 550.5,-640.7 546.5612,-640.0028 551.1275,-637.1551 542.6225,-639.3056 542.6225,-639.3056"/>
<ellipse fill="none" stroke="#000000" cx="539.4714" cy="-638.7478" rx="3.2" ry="3.2"/>
</g>
<!-- aow_conditions&#45;&gt;users -->
<g id="edge5" class="edge">
<title>aow_conditions:w&#45;&gt;users:e</title>
<path fill="none" stroke="#000000" d="M536.0156,-662.9744C463.9742,-665.3479 311.4417,-681.4524 265,-644.7 215.8284,-605.7872 286.7061,-509.7 224,-509.7"/>
<polygon fill="#000000" stroke="#000000" points="542.5014,-662.8516 550.5682,-666.2994 546.5007,-662.7758 550.5,-662.7 550.5,-662.7 550.5,-662.7 546.5007,-662.7758 550.4318,-659.1006 542.5014,-662.8516 542.5014,-662.8516"/>
<ellipse fill="none" stroke="#000000" cx="539.302" cy="-662.9122" rx="3.2" ry="3.2"/>
</g>
<!-- aow_conditions&#45;&gt;users -->
<g id="edge6" class="edge">
<title>aow_conditions:w&#45;&gt;users:e</title>
<path fill="none" stroke="#000000" d="M535.8974,-684.9714C418.5648,-689.3225 359.2385,-743.4974 265,-665.7 209.7164,-620.0613 295.6879,-509.7 224,-509.7"/>
<polygon fill="#000000" stroke="#000000" points="542.5014,-684.8487 550.5669,-688.2994 546.5007,-684.7744 550.5,-684.7 550.5,-684.7 550.5,-684.7 546.5007,-684.7744 550.4331,-681.1006 542.5014,-684.8487 542.5014,-684.8487"/>
<ellipse fill="none" stroke="#000000" cx="539.3019" cy="-684.9082" rx="3.2" ry="3.2"/>
</g>
<!-- aow_processed -->
<g id="node5" class="node">
<title>aow_processed</title>
<g id="a_node5"><a xlink:href="../../tables/aow_processed.html" xlink:title="aow_processed" target="_top">
<polygon fill="#ffffff" stroke="transparent" points="550,-38.2 550,-253.2 685,-253.2 685,-38.2 550,-38.2"/>
<polygon fill="#f5f5f5" stroke="transparent" points="550.5,-229.7 550.5,-252.7 685.5,-252.7 685.5,-229.7 550.5,-229.7"/>
<polygon fill="none" stroke="#000000" points="550.5,-229.7 550.5,-252.7 685.5,-252.7 685.5,-229.7 550.5,-229.7"/>
<text text-anchor="start" x="555.5" y="-238.8" font-family="Helvetica,sans-Serif" font-weight="bold" font-size="11.00" fill="#000000">aow_processed</text>
<text text-anchor="start" x="650.5437" y="-237.8" font-family="Helvetica,sans-Serif" font-size="11.00" fill="#000000">[table]</text>
<polygon fill="none" stroke="#000000" points="550.5,-207.7 550.5,-229.7 685.5,-229.7 685.5,-207.7 550.5,-207.7"/>
<image xlink:href="../../images/primaryKeys.png" width="11px" height="12px" preserveAspectRatio="xMinYMin meet" x="555.5" y="-224.7"/>
<text text-anchor="start" x="570.5" y="-214.8" font-family="Helvetica,sans-Serif" font-size="11.00" fill="#000000">id</text>
<polygon fill="#c0c0c0" stroke="transparent" points="550.5,-185.7 550.5,-207.7 685.5,-207.7 685.5,-185.7 550.5,-185.7"/>
<polygon fill="none" stroke="#000000" points="550.5,-185.7 550.5,-207.7 685.5,-207.7 685.5,-185.7 550.5,-185.7"/>
<image xlink:href="../../images/foreignKeys.png" width="11px" height="12px" preserveAspectRatio="xMinYMin meet" x="555.5" y="-202.7"/>
<text text-anchor="start" x="570.5" y="-192.8" font-family="Helvetica,sans-Serif" font-size="11.00" fill="#000000">modified_user_id</text>
<polygon fill="#c0c0c0" stroke="transparent" points="550.5,-163.7 550.5,-185.7 685.5,-185.7 685.5,-163.7 550.5,-163.7"/>
<polygon fill="none" stroke="#000000" points="550.5,-163.7 550.5,-185.7 685.5,-185.7 685.5,-163.7 550.5,-163.7"/>
<image xlink:href="../../images/foreignKeys.png" width="11px" height="12px" preserveAspectRatio="xMinYMin meet" x="555.5" y="-180.7"/>
<text text-anchor="start" x="570.5" y="-170.8" font-family="Helvetica,sans-Serif" font-size="11.00" fill="#000000">created_by</text>
<polygon fill="#ffffff" stroke="transparent" points="550.5,-141.7 550.5,-163.7 685.5,-163.7 685.5,-141.7 550.5,-141.7"/>
<polygon fill="none" stroke="#000000" points="550.5,-141.7 550.5,-163.7 685.5,-163.7 685.5,-141.7 550.5,-141.7"/>
<text text-anchor="start" x="570.5" y="-148.8" font-family="Helvetica,sans-Serif" font-size="11.00" fill="#000000">deleted</text>
<polygon fill="#ffffff" stroke="transparent" points="550.5,-119.7 550.5,-141.7 685.5,-141.7 685.5,-119.7 550.5,-119.7"/>
<polygon fill="none" stroke="#000000" points="550.5,-119.7 550.5,-141.7 685.5,-141.7 685.5,-119.7 550.5,-119.7"/>
<image xlink:href="../../images/foreignKeys.png" width="11px" height="12px" preserveAspectRatio="xMinYMin meet" x="555.5" y="-136.7"/>
<text text-anchor="start" x="570.5" y="-126.8" font-family="Helvetica,sans-Serif" font-size="11.00" fill="#000000">aow_workflow_id</text>
<polygon fill="#ffffff" stroke="transparent" points="550.5,-97.7 550.5,-119.7 685.5,-119.7 685.5,-97.7 550.5,-97.7"/>
<polygon fill="none" stroke="#000000" points="550.5,-97.7 550.5,-119.7 685.5,-119.7 685.5,-97.7 550.5,-97.7"/>
<text text-anchor="start" x="570.5" y="-104.8" font-family="Helvetica,sans-Serif" font-size="11.00" fill="#000000">parent_id</text>
<polygon fill="#ffffff" stroke="transparent" points="550.5,-75.7 550.5,-97.7 685.5,-97.7 685.5,-75.7 550.5,-75.7"/>
<polygon fill="none" stroke="#000000" points="550.5,-75.7 550.5,-97.7 685.5,-97.7 685.5,-75.7 550.5,-75.7"/>
<text text-anchor="start" x="570.5" y="-82.8" font-family="Helvetica,sans-Serif" font-size="11.00" fill="#000000">status</text>
<polygon fill="none" stroke="#000000" points="550.5,-56.7 550.5,-75.7 685.5,-75.7 685.5,-56.7 550.5,-56.7"/>
<text text-anchor="start" x="553.5" y="-62.8" font-family="Helvetica,sans-Serif" font-size="11.00" fill="#000000">...</text>
<polygon fill="#ffffff" stroke="transparent" points="550.5,-37.7 550.5,-56.7 611.5,-56.7 611.5,-37.7 550.5,-37.7"/>
<polygon fill="none" stroke="#000000" points="550.5,-37.7 550.5,-56.7 611.5,-56.7 611.5,-37.7 550.5,-37.7"/>
<text text-anchor="start" x="553.5" y="-43.8" font-family="Helvetica,sans-Serif" font-size="11.00" fill="#000000">&lt; 3</text>
<polygon fill="#ffffff" stroke="transparent" points="611.5,-37.7 611.5,-56.7 643.5,-56.7 643.5,-37.7 611.5,-37.7"/>
<polygon fill="none" stroke="#000000" points="611.5,-37.7 611.5,-56.7 643.5,-56.7 643.5,-37.7 611.5,-37.7"/>
<text text-anchor="start" x="634.3862" y="-43.8" font-family="Helvetica,sans-Serif" font-size="11.00" fill="#000000"> &#160;</text>
<polygon fill="#ffffff" stroke="transparent" points="643.5,-37.7 643.5,-56.7 685.5,-56.7 685.5,-37.7 643.5,-37.7"/>
<polygon fill="none" stroke="#000000" points="643.5,-37.7 643.5,-56.7 685.5,-56.7 685.5,-37.7 643.5,-37.7"/>
<text text-anchor="start" x="666.9053" y="-43.8" font-family="Helvetica,sans-Serif" font-size="11.00" fill="#000000">1 &gt;</text>
</a>
</g>
</g>
<!-- aow_processed&#45;&gt;aow_workflow -->
<g id="edge7" class="edge">
<title>aow_processed:w&#45;&gt;aow_workflow:e</title>
<path fill="none" stroke="#000000" d="M536.3018,-134.1905C458.6961,-176.9254 576.7204,-597.7 477,-597.7"/>
<polygon fill="#000000" stroke="#000000" points="542.7313,-132.6099 551.3595,-134.1959 546.6157,-131.6549 550.5,-130.7 550.5,-130.7 550.5,-130.7 546.6157,-131.6549 549.6405,-127.2041 542.7313,-132.6099 542.7313,-132.6099"/>
<ellipse fill="none" stroke="#000000" cx="539.6238" cy="-133.3739" rx="3.2" ry="3.2"/>
</g>
<!-- aow_processed&#45;&gt;users -->
<g id="edge8" class="edge">
<title>aow_processed:w&#45;&gt;users:e</title>
<path fill="none" stroke="#000000" d="M535.9733,-174.5526C415.8879,-172.1484 350.6837,-142.3072 265,-232.7 222.1915,-277.8612 286.2262,-509.7 224,-509.7"/>
<polygon fill="#000000" stroke="#000000" points="542.5004,-174.6188 550.4635,-178.2998 546.5002,-174.6594 550.5,-174.7 550.5,-174.7 550.5,-174.7 546.5002,-174.6594 550.5365,-171.1002 542.5004,-174.6188 542.5004,-174.6188"/>
<ellipse fill="none" stroke="#000000" cx="539.3006" cy="-174.5863" rx="3.2" ry="3.2"/>
</g>
<!-- aow_processed&#45;&gt;users -->
<g id="edge9" class="edge">
<title>aow_processed:w&#45;&gt;users:e</title>
<path fill="none" stroke="#000000" d="M536.1098,-199.5899C478.5325,-212.4929 269.8551,-264.4341 265,-269.7 228.3243,-309.4787 278.106,-509.7 224,-509.7"/>
<polygon fill="#000000" stroke="#000000" points="542.6566,-198.2752 551.2088,-200.2295 546.5783,-197.4876 550.5,-196.7 550.5,-196.7 550.5,-196.7 546.5783,-197.4876 549.7912,-193.1705 542.6566,-198.2752 542.6566,-198.2752"/>
<ellipse fill="none" stroke="#000000" cx="539.5192" cy="-198.9053" rx="3.2" ry="3.2"/>
</g>
<!-- aow_workflow_audit -->
<g id="node6" class="node">
<title>aow_workflow_audit</title>
<g id="a_node6"><a xlink:href="../../tables/aow_workflow_audit.html" xlink:title="aow_workflow_audit" target="_top">
<polygon fill="#ffffff" stroke="transparent" points="539,-274.2 539,-379.2 696,-379.2 696,-274.2 539,-274.2"/>
<polygon fill="#f5f5f5" stroke="transparent" points="539.5,-355.7 539.5,-378.7 696.5,-378.7 696.5,-355.7 539.5,-355.7"/>
<polygon fill="none" stroke="#000000" points="539.5,-355.7 539.5,-378.7 696.5,-378.7 696.5,-355.7 539.5,-355.7"/>
<text text-anchor="start" x="544.5" y="-364.8" font-family="Helvetica,sans-Serif" font-weight="bold" font-size="11.00" fill="#000000">aow_workflow_audit</text>
<text text-anchor="start" x="661.5437" y="-363.8" font-family="Helvetica,sans-Serif" font-size="11.00" fill="#000000">[table]</text>
<polygon fill="none" stroke="#000000" points="539.5,-333.7 539.5,-355.7 696.5,-355.7 696.5,-333.7 539.5,-333.7"/>
<image xlink:href="../../images/primaryKeys.png" width="11px" height="12px" preserveAspectRatio="xMinYMin meet" x="544.5" y="-350.7"/>
<text text-anchor="start" x="559.5" y="-340.8" font-family="Helvetica,sans-Serif" font-size="11.00" fill="#000000">id</text>
<polygon fill="#c0c0c0" stroke="transparent" points="539.5,-311.7 539.5,-333.7 696.5,-333.7 696.5,-311.7 539.5,-311.7"/>
<polygon fill="none" stroke="#000000" points="539.5,-311.7 539.5,-333.7 696.5,-333.7 696.5,-311.7 539.5,-311.7"/>
<image xlink:href="../../images/foreignKeys.png" width="11px" height="12px" preserveAspectRatio="xMinYMin meet" x="544.5" y="-328.7"/>
<text text-anchor="start" x="559.5" y="-318.8" font-family="Helvetica,sans-Serif" font-size="11.00" fill="#000000">parent_id</text>
<polygon fill="none" stroke="#000000" points="539.5,-292.7 539.5,-311.7 696.5,-311.7 696.5,-292.7 539.5,-292.7"/>
<text text-anchor="start" x="542.5" y="-298.8" font-family="Helvetica,sans-Serif" font-size="11.00" fill="#000000">...</text>
<polygon fill="#ffffff" stroke="transparent" points="539.5,-273.7 539.5,-292.7 616.5,-292.7 616.5,-273.7 539.5,-273.7"/>
<polygon fill="none" stroke="#000000" points="539.5,-273.7 539.5,-292.7 616.5,-292.7 616.5,-273.7 539.5,-273.7"/>
<text text-anchor="start" x="542.5" y="-279.8" font-family="Helvetica,sans-Serif" font-size="11.00" fill="#000000">&lt; 1</text>
<polygon fill="#ffffff" stroke="transparent" points="616.5,-273.7 616.5,-292.7 656.5,-292.7 656.5,-273.7 616.5,-273.7"/>
<polygon fill="none" stroke="#000000" points="616.5,-273.7 616.5,-292.7 656.5,-292.7 656.5,-273.7 616.5,-273.7"/>
<text text-anchor="start" x="647.3862" y="-279.8" font-family="Helvetica,sans-Serif" font-size="11.00" fill="#000000"> &#160;</text>
<polygon fill="#ffffff" stroke="transparent" points="656.5,-273.7 656.5,-292.7 696.5,-292.7 696.5,-273.7 656.5,-273.7"/>
<polygon fill="none" stroke="#000000" points="656.5,-273.7 656.5,-292.7 696.5,-292.7 696.5,-273.7 656.5,-273.7"/>
<text text-anchor="start" x="687.3862" y="-279.8" font-family="Helvetica,sans-Serif" font-size="11.00" fill="#000000"> &#160;</text>
</a>
</g>
</g>
<!-- aow_workflow_audit&#45;&gt;aow_workflow -->
<g id="edge13" class="edge">
<title>aow_workflow_audit:w&#45;&gt;aow_workflow:e</title>
<path fill="none" stroke="#000000" d="M525.9644,-328.4438C486.704,-367.9347 534.2839,-597.7 477,-597.7"/>
<polygon fill="#000000" stroke="#000000" points="532.1356,-325.8251 540.9063,-326.014 535.8178,-324.2625 539.5,-322.7 539.5,-322.7 539.5,-322.7 535.8178,-324.2625 538.0937,-319.386 532.1356,-325.8251 532.1356,-325.8251"/>
<ellipse fill="none" stroke="#000000" cx="529.1899" cy="-327.0751" rx="3.2" ry="3.2"/>
</g>
<!-- securitygroups_records -->
<g id="node7" class="node">
<title>securitygroups_records</title>
<g id="a_node7"><a xlink:href="../../tables/securitygroups_records.html" xlink:title="securitygroups_records" target="_top">
<polygon fill="#ffffff" stroke="transparent" points="528,-400.2 528,-571.2 707,-571.2 707,-400.2 528,-400.2"/>
<polygon fill="#f5f5f5" stroke="transparent" points="528.5,-547.7 528.5,-570.7 707.5,-570.7 707.5,-547.7 528.5,-547.7"/>
<polygon fill="none" stroke="#000000" points="528.5,-547.7 528.5,-570.7 707.5,-570.7 707.5,-547.7 528.5,-547.7"/>
<text text-anchor="start" x="533.5" y="-556.8" font-family="Helvetica,sans-Serif" font-weight="bold" font-size="11.00" fill="#000000">securitygroups_records</text>
<text text-anchor="start" x="672.5437" y="-555.8" font-family="Helvetica,sans-Serif" font-size="11.00" fill="#000000">[table]</text>
<polygon fill="none" stroke="#000000" points="528.5,-525.7 528.5,-547.7 707.5,-547.7 707.5,-525.7 528.5,-525.7"/>
<image xlink:href="../../images/primaryKeys.png" width="11px" height="12px" preserveAspectRatio="xMinYMin meet" x="533.5" y="-542.7"/>
<text text-anchor="start" x="548.5" y="-532.8" font-family="Helvetica,sans-Serif" font-size="11.00" fill="#000000">id</text>
<polygon fill="#ffffff" stroke="transparent" points="528.5,-503.7 528.5,-525.7 707.5,-525.7 707.5,-503.7 528.5,-503.7"/>
<polygon fill="none" stroke="#000000" points="528.5,-503.7 528.5,-525.7 707.5,-525.7 707.5,-503.7 528.5,-503.7"/>
<image xlink:href="../../images/foreignKeys.png" width="11px" height="12px" preserveAspectRatio="xMinYMin meet" x="533.5" y="-520.7"/>
<text text-anchor="start" x="548.5" y="-510.8" font-family="Helvetica,sans-Serif" font-size="11.00" fill="#000000">securitygroup_id</text>
<polygon fill="#ffffff" stroke="transparent" points="528.5,-481.7 528.5,-503.7 707.5,-503.7 707.5,-481.7 528.5,-481.7"/>
<polygon fill="none" stroke="#000000" points="528.5,-481.7 528.5,-503.7 707.5,-503.7 707.5,-481.7 528.5,-481.7"/>
<image xlink:href="../../images/foreignKeys.png" width="11px" height="12px" preserveAspectRatio="xMinYMin meet" x="533.5" y="-498.7"/>
<text text-anchor="start" x="548.5" y="-488.8" font-family="Helvetica,sans-Serif" font-size="11.00" fill="#000000">record_id</text>
<polygon fill="#ffffff" stroke="transparent" points="528.5,-459.7 528.5,-481.7 707.5,-481.7 707.5,-459.7 528.5,-459.7"/>
<polygon fill="none" stroke="#000000" points="528.5,-459.7 528.5,-481.7 707.5,-481.7 707.5,-459.7 528.5,-459.7"/>
<text text-anchor="start" x="548.5" y="-466.8" font-family="Helvetica,sans-Serif" font-size="11.00" fill="#000000">module</text>
<polygon fill="#ffffff" stroke="transparent" points="528.5,-437.7 528.5,-459.7 707.5,-459.7 707.5,-437.7 528.5,-437.7"/>
<polygon fill="none" stroke="#000000" points="528.5,-437.7 528.5,-459.7 707.5,-459.7 707.5,-437.7 528.5,-437.7"/>
<text text-anchor="start" x="548.5" y="-444.8" font-family="Helvetica,sans-Serif" font-size="11.00" fill="#000000">deleted</text>
<polygon fill="none" stroke="#000000" points="528.5,-418.7 528.5,-437.7 707.5,-437.7 707.5,-418.7 528.5,-418.7"/>
<text text-anchor="start" x="531.5" y="-424.8" font-family="Helvetica,sans-Serif" font-size="11.00" fill="#000000">...</text>
<polygon fill="#ffffff" stroke="transparent" points="528.5,-399.7 528.5,-418.7 619.5,-418.7 619.5,-399.7 528.5,-399.7"/>
<polygon fill="none" stroke="#000000" points="528.5,-399.7 528.5,-418.7 619.5,-418.7 619.5,-399.7 528.5,-399.7"/>
<text text-anchor="start" x="531.5" y="-405.8" font-family="Helvetica,sans-Serif" font-size="11.00" fill="#000000">&lt; 41</text>
<polygon fill="#ffffff" stroke="transparent" points="619.5,-399.7 619.5,-418.7 663.5,-418.7 663.5,-399.7 619.5,-399.7"/>
<polygon fill="none" stroke="#000000" points="619.5,-399.7 619.5,-418.7 663.5,-418.7 663.5,-399.7 619.5,-399.7"/>
<text text-anchor="start" x="654.3862" y="-405.8" font-family="Helvetica,sans-Serif" font-size="11.00" fill="#000000"> &#160;</text>
<polygon fill="#ffffff" stroke="transparent" points="663.5,-399.7 663.5,-418.7 707.5,-418.7 707.5,-399.7 663.5,-399.7"/>
<polygon fill="none" stroke="#000000" points="663.5,-399.7 663.5,-418.7 707.5,-418.7 707.5,-399.7 663.5,-399.7"/>
<text text-anchor="start" x="698.3862" y="-405.8" font-family="Helvetica,sans-Serif" font-size="11.00" fill="#000000"> &#160;</text>
</a>
</g>
</g>
<!-- securitygroups_records&#45;&gt;aow_workflow -->
<g id="edge14" class="edge">
<title>securitygroups_records:w&#45;&gt;aow_workflow:e</title>
<path fill="none" stroke="#000000" d="M514.5525,-496.437C487.0666,-515.1416 523.0896,-597.7 477,-597.7"/>
<polygon fill="#000000" stroke="#000000" points="520.7726,-494.7705 529.4317,-496.1773 524.6363,-493.7352 528.5,-492.7 528.5,-492.7 528.5,-492.7 524.6363,-493.7352 527.5683,-489.2227 520.7726,-494.7705 520.7726,-494.7705"/>
<ellipse fill="none" stroke="#000000" cx="517.6816" cy="-495.5987" rx="3.2" ry="3.2"/>
</g>
</g>
</svg>
