<?xml version="1.0" encoding="UTF-8" standalone="no"?>
<!DOCTYPE svg PUBLIC "-//W3C//DTD SVG 1.1//EN"
 "http://www.w3.org/Graphics/SVG/1.1/DTD/svg11.dtd">
<!-- Generated by graphviz version 2.40.1 (20161225.0304)
 -->
<!-- Title: oneDegreeRelationshipsDiagram Pages: 1 -->
<svg width="723pt" height="463pt"
 viewBox="0.00 0.00 723.00 462.70" xmlns="http://www.w3.org/2000/svg" xmlns:xlink="http://www.w3.org/1999/xlink">
<g id="graph0" class="graph" transform="scale(1 1) rotate(0) translate(4 458.7)">
<title>oneDegreeRelationshipsDiagram</title>
<polygon fill="#ffffff" stroke="transparent" points="-4,4 -4,-458.7 719,-458.7 719,4 -4,4"/>
<text text-anchor="middle" x="72.4936" y="-7.3" font-family="Helvetica,sans-Serif" font-size="11.00" fill="#000000">Generated by SchemaSpy</text>
<!-- aow_conditions -->
<g id="node1" class="node">
<title>aow_conditions</title>
<g id="a_node1"><a xlink:href="../../tables/aow_conditions.html" xlink:title="aow_conditions" target="_top">
<polygon fill="#ffffff" stroke="transparent" points="457,-74.7 457,-450.7 707,-450.7 707,-74.7 457,-74.7"/>
<polygon fill="#f5f5f5" stroke="transparent" points="459,-425.7 459,-448.7 705,-448.7 705,-425.7 459,-425.7"/>
<polygon fill="none" stroke="#000000" points="459,-425.7 459,-448.7 705,-448.7 705,-425.7 459,-425.7"/>
<text text-anchor="start" x="464" y="-434.8" font-family="Helvetica,sans-Serif" font-weight="bold" font-size="11.00" fill="#000000">aow_conditions</text>
<text text-anchor="start" x="670.0437" y="-433.8" font-family="Helvetica,sans-Serif" font-size="11.00" fill="#000000">[table]</text>
<polygon fill="none" stroke="#000000" points="459,-403.7 459,-425.7 594,-425.7 594,-403.7 459,-403.7"/>
<image xlink:href="../../images/primaryKeys.png" width="11px" height="12px" preserveAspectRatio="xMinYMin meet" x="464" y="-420.7"/>
<text text-anchor="start" x="479" y="-410.8" font-family="Helvetica,sans-Serif" font-size="11.00" fill="#000000">id</text>
<polygon fill="none" stroke="#000000" points="594,-403.7 594,-425.7 705,-425.7 705,-403.7 594,-403.7"/>
<text text-anchor="start" x="597" y="-411.4" font-family="Helvetica,sans-Serif" font-size="11.00" fill="#000000">char[36]</text>
<polygon fill="none" stroke="#000000" points="459,-381.7 459,-403.7 594,-403.7 594,-381.7 459,-381.7"/>
<text text-anchor="start" x="479" y="-388.8" font-family="Helvetica,sans-Serif" font-size="11.00" fill="#000000">name</text>
<polygon fill="none" stroke="#000000" points="594,-381.7 594,-403.7 705,-403.7 705,-381.7 594,-381.7"/>
<text text-anchor="start" x="597" y="-389.4" font-family="Helvetica,sans-Serif" font-size="11.00" fill="#000000">varchar[255]</text>
<polygon fill="none" stroke="#000000" points="459,-359.7 459,-381.7 594,-381.7 594,-359.7 459,-359.7"/>
<text text-anchor="start" x="479" y="-366.8" font-family="Helvetica,sans-Serif" font-size="11.00" fill="#000000">date_entered</text>
<polygon fill="none" stroke="#000000" points="594,-359.7 594,-381.7 705,-381.7 705,-359.7 594,-359.7"/>
<text text-anchor="start" x="597" y="-367.4" font-family="Helvetica,sans-Serif" font-size="11.00" fill="#000000">datetime[26]</text>
<polygon fill="none" stroke="#000000" points="459,-337.7 459,-359.7 594,-359.7 594,-337.7 459,-337.7"/>
<text text-anchor="start" x="479" y="-344.8" font-family="Helvetica,sans-Serif" font-size="11.00" fill="#000000">date_modified</text>
<polygon fill="none" stroke="#000000" points="594,-337.7 594,-359.7 705,-359.7 705,-337.7 594,-337.7"/>
<text text-anchor="start" x="597" y="-345.4" font-family="Helvetica,sans-Serif" font-size="11.00" fill="#000000">datetime[26]</text>
<polygon fill="none" stroke="#000000" points="459,-315.7 459,-337.7 594,-337.7 594,-315.7 459,-315.7"/>
<image xlink:href="../../images/foreignKeys.png" width="11px" height="12px" preserveAspectRatio="xMinYMin meet" x="464" y="-332.7"/>
<text text-anchor="start" x="479" y="-322.8" font-family="Helvetica,sans-Serif" font-size="11.00" fill="#000000">modified_user_id</text>
<polygon fill="none" stroke="#000000" points="594,-315.7 594,-337.7 705,-337.7 705,-315.7 594,-315.7"/>
<text text-anchor="start" x="597" y="-323.4" font-family="Helvetica,sans-Serif" font-size="11.00" fill="#000000">char[36]</text>
<polygon fill="none" stroke="#000000" points="459,-293.7 459,-315.7 594,-315.7 594,-293.7 459,-293.7"/>
<image xlink:href="../../images/foreignKeys.png" width="11px" height="12px" preserveAspectRatio="xMinYMin meet" x="464" y="-310.7"/>
<text text-anchor="start" x="479" y="-300.8" font-family="Helvetica,sans-Serif" font-size="11.00" fill="#000000">created_by</text>
<polygon fill="none" stroke="#000000" points="594,-293.7 594,-315.7 705,-315.7 705,-293.7 594,-293.7"/>
<text text-anchor="start" x="597" y="-301.4" font-family="Helvetica,sans-Serif" font-size="11.00" fill="#000000">char[36]</text>
<polygon fill="none" stroke="#000000" points="459,-271.7 459,-293.7 594,-293.7 594,-271.7 459,-271.7"/>
<text text-anchor="start" x="479" y="-278.8" font-family="Helvetica,sans-Serif" font-size="11.00" fill="#000000">description</text>
<polygon fill="none" stroke="#000000" points="594,-271.7 594,-293.7 705,-293.7 705,-271.7 594,-271.7"/>
<text text-anchor="start" x="597" y="-279.4" font-family="Helvetica,sans-Serif" font-size="11.00" fill="#000000">text[65535]</text>
<polygon fill="none" stroke="#000000" points="459,-249.7 459,-271.7 594,-271.7 594,-249.7 459,-249.7"/>
<text text-anchor="start" x="479" y="-256.8" font-family="Helvetica,sans-Serif" font-size="11.00" fill="#000000">deleted</text>
<polygon fill="none" stroke="#000000" points="594,-249.7 594,-271.7 705,-271.7 705,-249.7 594,-249.7"/>
<text text-anchor="start" x="597" y="-257.4" font-family="Helvetica,sans-Serif" font-size="11.00" fill="#000000">bit[1]</text>
<polygon fill="#ffffff" stroke="transparent" points="459,-227.7 459,-249.7 594,-249.7 594,-227.7 459,-227.7"/>
<polygon fill="none" stroke="#000000" points="459,-227.7 459,-249.7 594,-249.7 594,-227.7 459,-227.7"/>
<image xlink:href="../../images/foreignKeys.png" width="11px" height="12px" preserveAspectRatio="xMinYMin meet" x="464" y="-244.7"/>
<text text-anchor="start" x="479" y="-234.8" font-family="Helvetica,sans-Serif" font-size="11.00" fill="#000000">aow_workflow_id</text>
<polygon fill="none" stroke="#000000" points="594,-227.7 594,-249.7 705,-249.7 705,-227.7 594,-227.7"/>
<text text-anchor="start" x="597" y="-235.4" font-family="Helvetica,sans-Serif" font-size="11.00" fill="#000000">char[36]</text>
<polygon fill="none" stroke="#000000" points="459,-205.7 459,-227.7 594,-227.7 594,-205.7 459,-205.7"/>
<text text-anchor="start" x="479" y="-212.8" font-family="Helvetica,sans-Serif" font-size="11.00" fill="#000000">condition_order</text>
<polygon fill="none" stroke="#000000" points="594,-205.7 594,-227.7 705,-227.7 705,-205.7 594,-205.7"/>
<text text-anchor="start" x="597" y="-213.4" font-family="Helvetica,sans-Serif" font-size="11.00" fill="#000000">int[10]</text>
<polygon fill="none" stroke="#000000" points="459,-183.7 459,-205.7 594,-205.7 594,-183.7 459,-183.7"/>
<text text-anchor="start" x="479" y="-190.8" font-family="Helvetica,sans-Serif" font-size="11.00" fill="#000000">module_path</text>
<polygon fill="none" stroke="#000000" points="594,-183.7 594,-205.7 705,-205.7 705,-183.7 594,-183.7"/>
<text text-anchor="start" x="596.6115" y="-191.4" font-family="Helvetica,sans-Serif" font-size="11.00" fill="#000000">longtext[2147483647]</text>
<polygon fill="none" stroke="#000000" points="459,-161.7 459,-183.7 594,-183.7 594,-161.7 459,-161.7"/>
<text text-anchor="start" x="479" y="-168.8" font-family="Helvetica,sans-Serif" font-size="11.00" fill="#000000">field</text>
<polygon fill="none" stroke="#000000" points="594,-161.7 594,-183.7 705,-183.7 705,-161.7 594,-161.7"/>
<text text-anchor="start" x="597" y="-169.4" font-family="Helvetica,sans-Serif" font-size="11.00" fill="#000000">varchar[100]</text>
<polygon fill="none" stroke="#000000" points="459,-139.7 459,-161.7 594,-161.7 594,-139.7 459,-139.7"/>
<text text-anchor="start" x="479" y="-146.8" font-family="Helvetica,sans-Serif" font-size="11.00" fill="#000000">operator</text>
<polygon fill="none" stroke="#000000" points="594,-139.7 594,-161.7 705,-161.7 705,-139.7 594,-139.7"/>
<text text-anchor="start" x="597" y="-147.4" font-family="Helvetica,sans-Serif" font-size="11.00" fill="#000000">varchar[100]</text>
<polygon fill="none" stroke="#000000" points="459,-117.7 459,-139.7 594,-139.7 594,-117.7 459,-117.7"/>
<text text-anchor="start" x="479" y="-124.8" font-family="Helvetica,sans-Serif" font-size="11.00" fill="#000000">value_type</text>
<polygon fill="none" stroke="#000000" points="594,-117.7 594,-139.7 705,-139.7 705,-117.7 594,-117.7"/>
<text text-anchor="start" x="597" y="-125.4" font-family="Helvetica,sans-Serif" font-size="11.00" fill="#000000">varchar[255]</text>
<polygon fill="none" stroke="#000000" points="459,-95.7 459,-117.7 594,-117.7 594,-95.7 459,-95.7"/>
<text text-anchor="start" x="479" y="-102.8" font-family="Helvetica,sans-Serif" font-size="11.00" fill="#000000">value</text>
<polygon fill="none" stroke="#000000" points="594,-95.7 594,-117.7 705,-117.7 705,-95.7 594,-95.7"/>
<text text-anchor="start" x="597" y="-103.4" font-family="Helvetica,sans-Serif" font-size="11.00" fill="#000000">varchar[255]</text>
<polygon fill="#ffffff" stroke="transparent" points="459,-76.7 459,-95.7 531,-95.7 531,-76.7 459,-76.7"/>
<polygon fill="none" stroke="#000000" points="459,-76.7 459,-95.7 531,-95.7 531,-76.7 459,-76.7"/>
<text text-anchor="start" x="462" y="-82.8" font-family="Helvetica,sans-Serif" font-size="11.00" fill="#000000">&lt; 3</text>
<polygon fill="#ffffff" stroke="transparent" points="531,-76.7 531,-95.7 594,-95.7 594,-76.7 531,-76.7"/>
<polygon fill="none" stroke="#000000" points="531,-76.7 531,-95.7 594,-95.7 594,-76.7 531,-76.7"/>
<text text-anchor="start" x="584.8862" y="-82.8" font-family="Helvetica,sans-Serif" font-size="11.00" fill="#000000"> &#160;</text>
<polygon fill="#ffffff" stroke="transparent" points="594,-76.7 594,-95.7 705,-95.7 705,-76.7 594,-76.7"/>
<polygon fill="none" stroke="#000000" points="594,-76.7 594,-95.7 705,-95.7 705,-76.7 594,-76.7"/>
<text text-anchor="start" x="686.4053" y="-82.8" font-family="Helvetica,sans-Serif" font-size="11.00" fill="#000000">0 &gt;</text>
<polygon fill="none" stroke="#000000" stroke-width="2" points="458,-75.7 458,-449.7 706,-449.7 706,-75.7 458,-75.7"/>
</a>
</g>
</g>
<!-- aow_workflow -->
<g id="node2" class="node">
<title>aow_workflow</title>
<g id="a_node2"><a xlink:href="../../tables/aow_workflow.html" xlink:title="aow_workflow" target="_top">
<polygon fill="#ffffff" stroke="transparent" points="273,-104.2 273,-275.2 408,-275.2 408,-104.2 273,-104.2"/>
<polygon fill="#f5f5f5" stroke="transparent" points="273.5,-251.7 273.5,-274.7 408.5,-274.7 408.5,-251.7 273.5,-251.7"/>
<polygon fill="none" stroke="#000000" points="273.5,-251.7 273.5,-274.7 408.5,-274.7 408.5,-251.7 273.5,-251.7"/>
<text text-anchor="start" x="278.5" y="-260.8" font-family="Helvetica,sans-Serif" font-weight="bold" font-size="11.00" fill="#000000">aow_workflow</text>
<text text-anchor="start" x="373.5437" y="-259.8" font-family="Helvetica,sans-Serif" font-size="11.00" fill="#000000">[table]</text>
<polygon fill="none" stroke="#000000" points="273.5,-229.7 273.5,-251.7 408.5,-251.7 408.5,-229.7 273.5,-229.7"/>
<image xlink:href="../../images/primaryKeys.png" width="11px" height="12px" preserveAspectRatio="xMinYMin meet" x="278.5" y="-246.7"/>
<text text-anchor="start" x="293.5" y="-236.8" font-family="Helvetica,sans-Serif" font-size="11.00" fill="#000000">id</text>
<polygon fill="#c0c0c0" stroke="transparent" points="273.5,-207.7 273.5,-229.7 408.5,-229.7 408.5,-207.7 273.5,-207.7"/>
<polygon fill="none" stroke="#000000" points="273.5,-207.7 273.5,-229.7 408.5,-229.7 408.5,-207.7 273.5,-207.7"/>
<image xlink:href="../../images/foreignKeys.png" width="11px" height="12px" preserveAspectRatio="xMinYMin meet" x="278.5" y="-224.7"/>
<text text-anchor="start" x="293.5" y="-214.8" font-family="Helvetica,sans-Serif" font-size="11.00" fill="#000000">modified_user_id</text>
<polygon fill="#c0c0c0" stroke="transparent" points="273.5,-185.7 273.5,-207.7 408.5,-207.7 408.5,-185.7 273.5,-185.7"/>
<polygon fill="none" stroke="#000000" points="273.5,-185.7 273.5,-207.7 408.5,-207.7 408.5,-185.7 273.5,-185.7"/>
<image xlink:href="../../images/foreignKeys.png" width="11px" height="12px" preserveAspectRatio="xMinYMin meet" x="278.5" y="-202.7"/>
<text text-anchor="start" x="293.5" y="-192.8" font-family="Helvetica,sans-Serif" font-size="11.00" fill="#000000">created_by</text>
<polygon fill="#c0c0c0" stroke="transparent" points="273.5,-163.7 273.5,-185.7 408.5,-185.7 408.5,-163.7 273.5,-163.7"/>
<polygon fill="none" stroke="#000000" points="273.5,-163.7 273.5,-185.7 408.5,-185.7 408.5,-163.7 273.5,-163.7"/>
<image xlink:href="../../images/foreignKeys.png" width="11px" height="12px" preserveAspectRatio="xMinYMin meet" x="278.5" y="-180.7"/>
<text text-anchor="start" x="293.5" y="-170.8" font-family="Helvetica,sans-Serif" font-size="11.00" fill="#000000">assigned_user_id</text>
<polygon fill="#ffffff" stroke="transparent" points="273.5,-141.7 273.5,-163.7 408.5,-163.7 408.5,-141.7 273.5,-141.7"/>
<polygon fill="none" stroke="#000000" points="273.5,-141.7 273.5,-163.7 408.5,-163.7 408.5,-141.7 273.5,-141.7"/>
<text text-anchor="start" x="293.5" y="-148.8" font-family="Helvetica,sans-Serif" font-size="11.00" fill="#000000">status</text>
<polygon fill="none" stroke="#000000" points="273.5,-122.7 273.5,-141.7 408.5,-141.7 408.5,-122.7 273.5,-122.7"/>
<text text-anchor="start" x="276.5" y="-128.8" font-family="Helvetica,sans-Serif" font-size="11.00" fill="#000000">...</text>
<polygon fill="#ffffff" stroke="transparent" points="273.5,-103.7 273.5,-122.7 334.5,-122.7 334.5,-103.7 273.5,-103.7"/>
<polygon fill="none" stroke="#000000" points="273.5,-103.7 273.5,-122.7 334.5,-122.7 334.5,-103.7 273.5,-103.7"/>
<text text-anchor="start" x="276.5" y="-109.8" font-family="Helvetica,sans-Serif" font-size="11.00" fill="#000000">&lt; 3</text>
<polygon fill="#ffffff" stroke="transparent" points="334.5,-103.7 334.5,-122.7 366.5,-122.7 366.5,-103.7 334.5,-103.7"/>
<polygon fill="none" stroke="#000000" points="334.5,-103.7 334.5,-122.7 366.5,-122.7 366.5,-103.7 334.5,-103.7"/>
<text text-anchor="start" x="357.3862" y="-109.8" font-family="Helvetica,sans-Serif" font-size="11.00" fill="#000000"> &#160;</text>
<polygon fill="#ffffff" stroke="transparent" points="366.5,-103.7 366.5,-122.7 408.5,-122.7 408.5,-103.7 366.5,-103.7"/>
<polygon fill="none" stroke="#000000" points="366.5,-103.7 366.5,-122.7 408.5,-122.7 408.5,-103.7 366.5,-103.7"/>
<text text-anchor="start" x="389.9053" y="-109.8" font-family="Helvetica,sans-Serif" font-size="11.00" fill="#000000">5 &gt;</text>
</a>
</g>
</g>
<!-- aow_conditions&#45;&gt;aow_workflow -->
<g id="edge1" class="edge">
<title>aow_conditions:w&#45;&gt;aow_workflow:e</title>
<path fill="none" stroke="#000000" d="M444.4154,-239.0303C432.5405,-239.5983 425.171,-240.7 408.5,-240.7"/>
<polygon fill="#000000" stroke="#000000" points="451.0021,-238.8812 459.0815,-242.2991 455.001,-238.7906 459,-238.7 459,-238.7 459,-238.7 455.001,-238.7906 458.9185,-235.1009 451.0021,-238.8812 451.0021,-238.8812"/>
<ellipse fill="none" stroke="#000000" cx="447.8029" cy="-238.9536" rx="3.2" ry="3.2"/>
</g>
<!-- users -->
<g id="node3" class="node">
<title>users</title>
<g id="a_node3"><a xlink:href="../../tables/users.html" xlink:title="users" target="_top">
<polygon fill="#ffffff" stroke="transparent" points="8,-38.2 8,-253.2 224,-253.2 224,-38.2 8,-38.2"/>
<polygon fill="#f5f5f5" stroke="transparent" points="8,-229.7 8,-252.7 224,-252.7 224,-229.7 8,-229.7"/>
<polygon fill="none" stroke="#000000" points="8,-229.7 8,-252.7 224,-252.7 224,-229.7 8,-229.7"/>
<text text-anchor="start" x="13" y="-238.8" font-family="Helvetica,sans-Serif" font-weight="bold" font-size="11.00" fill="#000000">users</text>
<text text-anchor="start" x="189.0437" y="-237.8" font-family="Helvetica,sans-Serif" font-size="11.00" fill="#000000">[table]</text>
<polygon fill="none" stroke="#000000" points="8,-207.7 8,-229.7 224,-229.7 224,-207.7 8,-207.7"/>
<image xlink:href="../../images/primaryKeys.png" width="11px" height="12px" preserveAspectRatio="xMinYMin meet" x="13" y="-224.7"/>
<text text-anchor="start" x="28" y="-214.8" font-family="Helvetica,sans-Serif" font-size="11.00" fill="#000000">id</text>
<polygon fill="#ffffff" stroke="transparent" points="8,-185.7 8,-207.7 224,-207.7 224,-185.7 8,-185.7"/>
<polygon fill="none" stroke="#000000" points="8,-185.7 8,-207.7 224,-207.7 224,-185.7 8,-185.7"/>
<text text-anchor="start" x="28" y="-192.8" font-family="Helvetica,sans-Serif" font-size="11.00" fill="#000000">user_name</text>
<polygon fill="#ffffff" stroke="transparent" points="8,-163.7 8,-185.7 224,-185.7 224,-163.7 8,-163.7"/>
<polygon fill="none" stroke="#000000" points="8,-163.7 8,-185.7 224,-185.7 224,-163.7 8,-163.7"/>
<text text-anchor="start" x="28" y="-170.8" font-family="Helvetica,sans-Serif" font-size="11.00" fill="#000000">first_name</text>
<polygon fill="#ffffff" stroke="transparent" points="8,-141.7 8,-163.7 224,-163.7 224,-141.7 8,-141.7"/>
<polygon fill="none" stroke="#000000" points="8,-141.7 8,-163.7 224,-163.7 224,-141.7 8,-141.7"/>
<text text-anchor="start" x="28" y="-148.8" font-family="Helvetica,sans-Serif" font-size="11.00" fill="#000000">last_name</text>
<polygon fill="#ffffff" stroke="transparent" points="8,-119.7 8,-141.7 224,-141.7 224,-119.7 8,-119.7"/>
<polygon fill="none" stroke="#000000" points="8,-119.7 8,-141.7 224,-141.7 224,-119.7 8,-119.7"/>
<text text-anchor="start" x="28" y="-126.8" font-family="Helvetica,sans-Serif" font-size="11.00" fill="#000000">status</text>
<polygon fill="#c0c0c0" stroke="transparent" points="8,-97.7 8,-119.7 224,-119.7 224,-97.7 8,-97.7"/>
<polygon fill="none" stroke="#000000" points="8,-97.7 8,-119.7 224,-119.7 224,-97.7 8,-97.7"/>
<image xlink:href="../../images/foreignKeys.png" width="11px" height="12px" preserveAspectRatio="xMinYMin meet" x="13" y="-114.7"/>
<text text-anchor="start" x="28" y="-104.8" font-family="Helvetica,sans-Serif" font-size="11.00" fill="#000000">reports_to_id</text>
<polygon fill="#ffffff" stroke="transparent" points="8,-75.7 8,-97.7 224,-97.7 224,-75.7 8,-75.7"/>
<polygon fill="none" stroke="#000000" points="8,-75.7 8,-97.7 224,-97.7 224,-75.7 8,-75.7"/>
<text text-anchor="start" x="28" y="-82.8" font-family="Helvetica,sans-Serif" font-size="11.00" fill="#000000">is_group</text>
<polygon fill="none" stroke="#000000" points="8,-56.7 8,-75.7 224,-75.7 224,-56.7 8,-56.7"/>
<text text-anchor="start" x="11" y="-62.8" font-family="Helvetica,sans-Serif" font-size="11.00" fill="#000000">...</text>
<polygon fill="#ffffff" stroke="transparent" points="8,-37.7 8,-56.7 104,-56.7 104,-37.7 8,-37.7"/>
<polygon fill="none" stroke="#000000" points="8,-37.7 8,-56.7 104,-56.7 104,-37.7 8,-37.7"/>
<text text-anchor="start" x="11" y="-43.8" font-family="Helvetica,sans-Serif" font-size="11.00" fill="#000000">&lt; 2</text>
<polygon fill="#ffffff" stroke="transparent" points="104,-37.7 104,-56.7 153,-56.7 153,-37.7 104,-37.7"/>
<polygon fill="none" stroke="#000000" points="104,-37.7 104,-56.7 153,-56.7 153,-37.7 104,-37.7"/>
<text text-anchor="start" x="143.8862" y="-43.8" font-family="Helvetica,sans-Serif" font-size="11.00" fill="#000000"> &#160;</text>
<polygon fill="#ffffff" stroke="transparent" points="153,-37.7 153,-56.7 224,-56.7 224,-37.7 153,-37.7"/>
<polygon fill="none" stroke="#000000" points="153,-37.7 153,-56.7 224,-56.7 224,-37.7 153,-37.7"/>
<text text-anchor="start" x="193.1755" y="-43.8" font-family="Helvetica,sans-Serif" font-size="11.00" fill="#000000">214 &gt;</text>
</a>
</g>
</g>
<!-- aow_conditions&#45;&gt;users -->
<g id="edge2" class="edge">
<title>aow_conditions:w&#45;&gt;users:e</title>
<path fill="none" stroke="#000000" d="M444.2954,-304.9579C368.2516,-307.6126 334.1167,-328.9975 265,-285.7 235.4149,-267.1666 258.9108,-218.7 224,-218.7"/>
<polygon fill="#000000" stroke="#000000" points="451.0012,-304.8403 459.0632,-308.2994 455.0006,-304.7702 459,-304.7 459,-304.7 459,-304.7 455.0006,-304.7702 458.9368,-301.1006 451.0012,-304.8403 451.0012,-304.8403"/>
<ellipse fill="none" stroke="#000000" cx="447.8017" cy="-304.8965" rx="3.2" ry="3.2"/>
</g>
<!-- aow_conditions&#45;&gt;users -->
<g id="edge3" class="edge">
<title>aow_conditions:w&#45;&gt;users:e</title>
<path fill="none" stroke="#000000" d="M444.2806,-327.0176C368.0103,-330.2944 331.4365,-356.8739 265,-309.7 228.8307,-284.0176 268.3599,-218.7 224,-218.7"/>
<polygon fill="#000000" stroke="#000000" points="451.0019,-326.8726 459.0777,-330.2992 455.0009,-326.7863 459,-326.7 459,-326.7 459,-326.7 455.0009,-326.7863 458.9223,-323.1008 451.0019,-326.8726 451.0019,-326.8726"/>
<ellipse fill="none" stroke="#000000" cx="447.8026" cy="-326.9417" rx="3.2" ry="3.2"/>
</g>
<!-- aow_workflow&#45;&gt;users -->
<g id="edge4" class="edge">
<title>aow_workflow:w&#45;&gt;users:e</title>
<path fill="none" stroke="#000000" d="M259.7159,-179.4088C246.2705,-190.7596 247.456,-218.7 224,-218.7"/>
<polygon fill="#000000" stroke="#000000" points="265.9295,-177.2862 274.6638,-178.1067 269.7148,-175.9931 273.5,-174.7 273.5,-174.7 273.5,-174.7 269.7148,-175.9931 272.3362,-171.2933 265.9295,-177.2862 265.9295,-177.2862"/>
<ellipse fill="none" stroke="#000000" cx="262.9013" cy="-178.3206" rx="3.2" ry="3.2"/>
</g>
<!-- aow_workflow&#45;&gt;users -->
<g id="edge5" class="edge">
<title>aow_workflow:w&#45;&gt;users:e</title>
<path fill="none" stroke="#000000" d="M259.3612,-199.9462C247.4382,-206.0658 242.2443,-218.7 224,-218.7"/>
<polygon fill="#000000" stroke="#000000" points="265.7029,-198.4902 274.3056,-200.2087 269.6014,-197.5951 273.5,-196.7 273.5,-196.7 273.5,-196.7 269.6014,-197.5951 272.6944,-193.1913 265.7029,-198.4902 265.7029,-198.4902"/>
<ellipse fill="none" stroke="#000000" cx="262.584" cy="-199.2063" rx="3.2" ry="3.2"/>
</g>
<!-- aow_workflow&#45;&gt;users -->
<g id="edge6" class="edge">
<title>aow_workflow:w&#45;&gt;users:e</title>
<path fill="none" stroke="#000000" d="M258.8428,-218.7C247.4139,-218.7 240.1563,-218.7 224,-218.7"/>
<polygon fill="#000000" stroke="#000000" points="265.5,-218.7001 273.5,-222.3 269.5,-218.7 273.5,-218.7 273.5,-218.7 273.5,-218.7 269.5,-218.7 273.5,-215.1 265.5,-218.7001 265.5,-218.7001"/>
<ellipse fill="none" stroke="#000000" cx="262.3" cy="-218.7001" rx="3.2" ry="3.2"/>
</g>
</g>
</svg>
