<?xml version="1.0" encoding="UTF-8" standalone="no"?>
<!DOCTYPE svg PUBLIC "-//W3C//DTD SVG 1.1//EN"
 "http://www.w3.org/Graphics/SVG/1.1/DTD/svg11.dtd">
<!-- Generated by graphviz version 2.40.1 (20161225.0304)
 -->
<!-- Title: twoDegreesRelationshipsDiagram Pages: 1 -->
<svg width="650pt" height="435pt"
 viewBox="0.00 0.00 650.00 435.20" xmlns="http://www.w3.org/2000/svg" xmlns:xlink="http://www.w3.org/1999/xlink">
<g id="graph0" class="graph" transform="scale(1 1) rotate(0) translate(4 431.2)">
<title>twoDegreesRelationshipsDiagram</title>
<polygon fill="#ffffff" stroke="transparent" points="-4,4 -4,-431.2 646,-431.2 646,4 -4,4"/>
<text text-anchor="middle" x="72.4936" y="-7.3" font-family="Helvetica,sans-Serif" font-size="11.00" fill="#000000">Generated by SchemaSpy</text>
<!-- aow_actions -->
<g id="node1" class="node">
<title>aow_actions</title>
<g id="a_node1"><a xlink:href="../../tables/aow_actions.html" xlink:title="aow_actions" target="_top">
<polygon fill="#ffffff" stroke="transparent" points="169,-38.2 169,-187.2 304,-187.2 304,-38.2 169,-38.2"/>
<polygon fill="#f5f5f5" stroke="transparent" points="169.5,-163.7 169.5,-186.7 304.5,-186.7 304.5,-163.7 169.5,-163.7"/>
<polygon fill="none" stroke="#000000" points="169.5,-163.7 169.5,-186.7 304.5,-186.7 304.5,-163.7 169.5,-163.7"/>
<text text-anchor="start" x="174.5" y="-172.8" font-family="Helvetica,sans-Serif" font-weight="bold" font-size="11.00" fill="#000000">aow_actions</text>
<text text-anchor="start" x="269.5437" y="-171.8" font-family="Helvetica,sans-Serif" font-size="11.00" fill="#000000">[table]</text>
<polygon fill="none" stroke="#000000" points="169.5,-141.7 169.5,-163.7 304.5,-163.7 304.5,-141.7 169.5,-141.7"/>
<image xlink:href="../../images/primaryKeys.png" width="11px" height="12px" preserveAspectRatio="xMinYMin meet" x="174.5" y="-158.7"/>
<text text-anchor="start" x="189.5" y="-148.8" font-family="Helvetica,sans-Serif" font-size="11.00" fill="#000000">id</text>
<polygon fill="#c0c0c0" stroke="transparent" points="169.5,-119.7 169.5,-141.7 304.5,-141.7 304.5,-119.7 169.5,-119.7"/>
<polygon fill="none" stroke="#000000" points="169.5,-119.7 169.5,-141.7 304.5,-141.7 304.5,-119.7 169.5,-119.7"/>
<image xlink:href="../../images/foreignKeys.png" width="11px" height="12px" preserveAspectRatio="xMinYMin meet" x="174.5" y="-136.7"/>
<text text-anchor="start" x="189.5" y="-126.8" font-family="Helvetica,sans-Serif" font-size="11.00" fill="#000000">modified_user_id</text>
<polygon fill="#c0c0c0" stroke="transparent" points="169.5,-97.7 169.5,-119.7 304.5,-119.7 304.5,-97.7 169.5,-97.7"/>
<polygon fill="none" stroke="#000000" points="169.5,-97.7 169.5,-119.7 304.5,-119.7 304.5,-97.7 169.5,-97.7"/>
<image xlink:href="../../images/foreignKeys.png" width="11px" height="12px" preserveAspectRatio="xMinYMin meet" x="174.5" y="-114.7"/>
<text text-anchor="start" x="189.5" y="-104.8" font-family="Helvetica,sans-Serif" font-size="11.00" fill="#000000">created_by</text>
<polygon fill="#ffffff" stroke="transparent" points="169.5,-75.7 169.5,-97.7 304.5,-97.7 304.5,-75.7 169.5,-75.7"/>
<polygon fill="none" stroke="#000000" points="169.5,-75.7 169.5,-97.7 304.5,-97.7 304.5,-75.7 169.5,-75.7"/>
<image xlink:href="../../images/foreignKeys.png" width="11px" height="12px" preserveAspectRatio="xMinYMin meet" x="174.5" y="-92.7"/>
<text text-anchor="start" x="189.5" y="-82.8" font-family="Helvetica,sans-Serif" font-size="11.00" fill="#000000">aow_workflow_id</text>
<polygon fill="none" stroke="#000000" points="169.5,-56.7 169.5,-75.7 304.5,-75.7 304.5,-56.7 169.5,-56.7"/>
<text text-anchor="start" x="172.5" y="-62.8" font-family="Helvetica,sans-Serif" font-size="11.00" fill="#000000">...</text>
<polygon fill="#ffffff" stroke="transparent" points="169.5,-37.7 169.5,-56.7 230.5,-56.7 230.5,-37.7 169.5,-37.7"/>
<polygon fill="none" stroke="#000000" points="169.5,-37.7 169.5,-56.7 230.5,-56.7 230.5,-37.7 169.5,-37.7"/>
<text text-anchor="start" x="172.5" y="-43.8" font-family="Helvetica,sans-Serif" font-size="11.00" fill="#000000">&lt; 3</text>
<polygon fill="#ffffff" stroke="transparent" points="230.5,-37.7 230.5,-56.7 262.5,-56.7 262.5,-37.7 230.5,-37.7"/>
<polygon fill="none" stroke="#000000" points="230.5,-37.7 230.5,-56.7 262.5,-56.7 262.5,-37.7 230.5,-37.7"/>
<text text-anchor="start" x="253.3862" y="-43.8" font-family="Helvetica,sans-Serif" font-size="11.00" fill="#000000"> &#160;</text>
<polygon fill="#ffffff" stroke="transparent" points="262.5,-37.7 262.5,-56.7 304.5,-56.7 304.5,-37.7 262.5,-37.7"/>
<polygon fill="none" stroke="#000000" points="262.5,-37.7 262.5,-56.7 304.5,-56.7 304.5,-37.7 262.5,-37.7"/>
<text text-anchor="start" x="285.9053" y="-43.8" font-family="Helvetica,sans-Serif" font-size="11.00" fill="#000000">1 &gt;</text>
</a>
</g>
</g>
<!-- aow_workflow -->
<g id="node2" class="node">
<title>aow_workflow</title>
<g id="a_node2"><a xlink:href="../../tables/aow_workflow.html" xlink:title="aow_workflow" target="_top">
<polygon fill="#ffffff" stroke="transparent" points="8,-166.2 8,-227.2 120,-227.2 120,-166.2 8,-166.2"/>
<polygon fill="#f5f5f5" stroke="transparent" points="8,-203.7 8,-226.7 120,-226.7 120,-203.7 8,-203.7"/>
<polygon fill="none" stroke="#000000" points="8,-203.7 8,-226.7 120,-226.7 120,-203.7 8,-203.7"/>
<text text-anchor="start" x="12.9716" y="-212.8" font-family="Helvetica,sans-Serif" font-weight="bold" font-size="11.00" fill="#000000">aow_workflow</text>
<text text-anchor="start" x="85.5219" y="-211.8" font-family="Helvetica,sans-Serif" font-size="11.00" fill="#000000">[table]</text>
<polygon fill="none" stroke="#000000" points="8,-184.7 8,-203.7 120,-203.7 120,-184.7 8,-184.7"/>
<text text-anchor="start" x="11" y="-190.8" font-family="Helvetica,sans-Serif" font-size="11.00" fill="#000000">...</text>
<polygon fill="#ffffff" stroke="transparent" points="8,-165.7 8,-184.7 58,-184.7 58,-165.7 8,-165.7"/>
<polygon fill="none" stroke="#000000" points="8,-165.7 8,-184.7 58,-184.7 58,-165.7 8,-165.7"/>
<text text-anchor="start" x="11" y="-171.8" font-family="Helvetica,sans-Serif" font-size="11.00" fill="#000000">&lt; 3</text>
<polygon fill="#ffffff" stroke="transparent" points="58,-165.7 58,-184.7 84,-184.7 84,-165.7 58,-165.7"/>
<polygon fill="none" stroke="#000000" points="58,-165.7 58,-184.7 84,-184.7 84,-165.7 58,-165.7"/>
<text text-anchor="start" x="74.8862" y="-171.8" font-family="Helvetica,sans-Serif" font-size="11.00" fill="#000000"> &#160;</text>
<polygon fill="#ffffff" stroke="transparent" points="84,-165.7 84,-184.7 120,-184.7 120,-165.7 84,-165.7"/>
<polygon fill="none" stroke="#000000" points="84,-165.7 84,-184.7 120,-184.7 120,-165.7 84,-165.7"/>
<text text-anchor="start" x="101.4053" y="-171.8" font-family="Helvetica,sans-Serif" font-size="11.00" fill="#000000">5 &gt;</text>
</a>
</g>
</g>
<!-- aow_actions&#45;&gt;aow_workflow -->
<g id="edge1" class="edge">
<title>aow_actions:w&#45;&gt;aow_workflow:e</title>
<path fill="none" stroke="#000000" d="M155.5258,-90.5082C128.2481,-109.5691 166.4621,-193.7 120,-193.7"/>
<polygon fill="#000000" stroke="#000000" points="161.7815,-88.8035 170.4466,-90.1733 165.6407,-87.7517 169.5,-86.7 169.5,-86.7 169.5,-86.7 165.6407,-87.7517 168.5534,-83.2267 161.7815,-88.8035 161.7815,-88.8035"/>
<ellipse fill="none" stroke="#000000" cx="158.6941" cy="-89.6448" rx="3.2" ry="3.2"/>
</g>
<!-- aow_processed -->
<g id="node3" class="node">
<title>aow_processed</title>
<g id="a_node3"><a xlink:href="../../tables/aow_processed.html" xlink:title="aow_processed" target="_top">
<polygon fill="#ffffff" stroke="transparent" points="169,-208.2 169,-423.2 304,-423.2 304,-208.2 169,-208.2"/>
<polygon fill="#f5f5f5" stroke="transparent" points="169.5,-399.7 169.5,-422.7 304.5,-422.7 304.5,-399.7 169.5,-399.7"/>
<polygon fill="none" stroke="#000000" points="169.5,-399.7 169.5,-422.7 304.5,-422.7 304.5,-399.7 169.5,-399.7"/>
<text text-anchor="start" x="174.5" y="-408.8" font-family="Helvetica,sans-Serif" font-weight="bold" font-size="11.00" fill="#000000">aow_processed</text>
<text text-anchor="start" x="269.5437" y="-407.8" font-family="Helvetica,sans-Serif" font-size="11.00" fill="#000000">[table]</text>
<polygon fill="none" stroke="#000000" points="169.5,-377.7 169.5,-399.7 304.5,-399.7 304.5,-377.7 169.5,-377.7"/>
<image xlink:href="../../images/primaryKeys.png" width="11px" height="12px" preserveAspectRatio="xMinYMin meet" x="174.5" y="-394.7"/>
<text text-anchor="start" x="189.5" y="-384.8" font-family="Helvetica,sans-Serif" font-size="11.00" fill="#000000">id</text>
<polygon fill="#c0c0c0" stroke="transparent" points="169.5,-355.7 169.5,-377.7 304.5,-377.7 304.5,-355.7 169.5,-355.7"/>
<polygon fill="none" stroke="#000000" points="169.5,-355.7 169.5,-377.7 304.5,-377.7 304.5,-355.7 169.5,-355.7"/>
<image xlink:href="../../images/foreignKeys.png" width="11px" height="12px" preserveAspectRatio="xMinYMin meet" x="174.5" y="-372.7"/>
<text text-anchor="start" x="189.5" y="-362.8" font-family="Helvetica,sans-Serif" font-size="11.00" fill="#000000">modified_user_id</text>
<polygon fill="#c0c0c0" stroke="transparent" points="169.5,-333.7 169.5,-355.7 304.5,-355.7 304.5,-333.7 169.5,-333.7"/>
<polygon fill="none" stroke="#000000" points="169.5,-333.7 169.5,-355.7 304.5,-355.7 304.5,-333.7 169.5,-333.7"/>
<image xlink:href="../../images/foreignKeys.png" width="11px" height="12px" preserveAspectRatio="xMinYMin meet" x="174.5" y="-350.7"/>
<text text-anchor="start" x="189.5" y="-340.8" font-family="Helvetica,sans-Serif" font-size="11.00" fill="#000000">created_by</text>
<polygon fill="#ffffff" stroke="transparent" points="169.5,-311.7 169.5,-333.7 304.5,-333.7 304.5,-311.7 169.5,-311.7"/>
<polygon fill="none" stroke="#000000" points="169.5,-311.7 169.5,-333.7 304.5,-333.7 304.5,-311.7 169.5,-311.7"/>
<text text-anchor="start" x="189.5" y="-318.8" font-family="Helvetica,sans-Serif" font-size="11.00" fill="#000000">deleted</text>
<polygon fill="#ffffff" stroke="transparent" points="169.5,-289.7 169.5,-311.7 304.5,-311.7 304.5,-289.7 169.5,-289.7"/>
<polygon fill="none" stroke="#000000" points="169.5,-289.7 169.5,-311.7 304.5,-311.7 304.5,-289.7 169.5,-289.7"/>
<image xlink:href="../../images/foreignKeys.png" width="11px" height="12px" preserveAspectRatio="xMinYMin meet" x="174.5" y="-306.7"/>
<text text-anchor="start" x="189.5" y="-296.8" font-family="Helvetica,sans-Serif" font-size="11.00" fill="#000000">aow_workflow_id</text>
<polygon fill="#ffffff" stroke="transparent" points="169.5,-267.7 169.5,-289.7 304.5,-289.7 304.5,-267.7 169.5,-267.7"/>
<polygon fill="none" stroke="#000000" points="169.5,-267.7 169.5,-289.7 304.5,-289.7 304.5,-267.7 169.5,-267.7"/>
<text text-anchor="start" x="189.5" y="-274.8" font-family="Helvetica,sans-Serif" font-size="11.00" fill="#000000">parent_id</text>
<polygon fill="#ffffff" stroke="transparent" points="169.5,-245.7 169.5,-267.7 304.5,-267.7 304.5,-245.7 169.5,-245.7"/>
<polygon fill="none" stroke="#000000" points="169.5,-245.7 169.5,-267.7 304.5,-267.7 304.5,-245.7 169.5,-245.7"/>
<text text-anchor="start" x="189.5" y="-252.8" font-family="Helvetica,sans-Serif" font-size="11.00" fill="#000000">status</text>
<polygon fill="none" stroke="#000000" points="169.5,-226.7 169.5,-245.7 304.5,-245.7 304.5,-226.7 169.5,-226.7"/>
<text text-anchor="start" x="172.5" y="-232.8" font-family="Helvetica,sans-Serif" font-size="11.00" fill="#000000">...</text>
<polygon fill="#ffffff" stroke="transparent" points="169.5,-207.7 169.5,-226.7 230.5,-226.7 230.5,-207.7 169.5,-207.7"/>
<polygon fill="none" stroke="#000000" points="169.5,-207.7 169.5,-226.7 230.5,-226.7 230.5,-207.7 169.5,-207.7"/>
<text text-anchor="start" x="172.5" y="-213.8" font-family="Helvetica,sans-Serif" font-size="11.00" fill="#000000">&lt; 3</text>
<polygon fill="#ffffff" stroke="transparent" points="230.5,-207.7 230.5,-226.7 262.5,-226.7 262.5,-207.7 230.5,-207.7"/>
<polygon fill="none" stroke="#000000" points="230.5,-207.7 230.5,-226.7 262.5,-226.7 262.5,-207.7 230.5,-207.7"/>
<text text-anchor="start" x="253.3862" y="-213.8" font-family="Helvetica,sans-Serif" font-size="11.00" fill="#000000"> &#160;</text>
<polygon fill="#ffffff" stroke="transparent" points="262.5,-207.7 262.5,-226.7 304.5,-226.7 304.5,-207.7 262.5,-207.7"/>
<polygon fill="none" stroke="#000000" points="262.5,-207.7 262.5,-226.7 304.5,-226.7 304.5,-207.7 262.5,-207.7"/>
<text text-anchor="start" x="285.9053" y="-213.8" font-family="Helvetica,sans-Serif" font-size="11.00" fill="#000000">1 &gt;</text>
</a>
</g>
</g>
<!-- aow_processed&#45;&gt;aow_workflow -->
<g id="edge2" class="edge">
<title>aow_processed:w&#45;&gt;aow_workflow:e</title>
<path fill="none" stroke="#000000" d="M155.5258,-296.8918C128.2481,-277.8309 166.4621,-193.7 120,-193.7"/>
<polygon fill="#000000" stroke="#000000" points="161.7815,-298.5965 168.5534,-304.1733 165.6407,-299.6483 169.5,-300.7 169.5,-300.7 169.5,-300.7 165.6407,-299.6483 170.4466,-297.2267 161.7815,-298.5965 161.7815,-298.5965"/>
<ellipse fill="none" stroke="#000000" cx="158.6941" cy="-297.7552" rx="3.2" ry="3.2"/>
</g>
<!-- aow_processed_aow_actions -->
<g id="node4" class="node">
<title>aow_processed_aow_actions</title>
<g id="a_node4"><a xlink:href="../../tables/aow_processed_aow_actions.html" xlink:title="aow_processed_aow_actions" target="_top">
<polygon fill="#ffffff" stroke="transparent" points="353,-161.7 353,-339.7 634,-339.7 634,-161.7 353,-161.7"/>
<polygon fill="#f5f5f5" stroke="transparent" points="355.5,-314.7 355.5,-337.7 632.5,-337.7 632.5,-314.7 355.5,-314.7"/>
<polygon fill="none" stroke="#000000" points="355.5,-314.7 355.5,-337.7 632.5,-337.7 632.5,-314.7 355.5,-314.7"/>
<text text-anchor="start" x="360.5" y="-323.8" font-family="Helvetica,sans-Serif" font-weight="bold" font-size="11.00" fill="#000000">aow_processed_aow_actions</text>
<text text-anchor="start" x="597.5437" y="-322.8" font-family="Helvetica,sans-Serif" font-size="11.00" fill="#000000">[table]</text>
<polygon fill="none" stroke="#000000" points="355.5,-292.7 355.5,-314.7 566.5,-314.7 566.5,-292.7 355.5,-292.7"/>
<image xlink:href="../../images/primaryKeys.png" width="11px" height="12px" preserveAspectRatio="xMinYMin meet" x="360.5" y="-309.7"/>
<text text-anchor="start" x="375.5" y="-299.8" font-family="Helvetica,sans-Serif" font-size="11.00" fill="#000000">id</text>
<polygon fill="none" stroke="#000000" points="566.5,-292.7 566.5,-314.7 632.5,-314.7 632.5,-292.7 566.5,-292.7"/>
<text text-anchor="start" x="569.5" y="-300.4" font-family="Helvetica,sans-Serif" font-size="11.00" fill="#000000">varchar[36]</text>
<polygon fill="#ffffff" stroke="transparent" points="355.5,-270.7 355.5,-292.7 566.5,-292.7 566.5,-270.7 355.5,-270.7"/>
<polygon fill="none" stroke="#000000" points="355.5,-270.7 355.5,-292.7 566.5,-292.7 566.5,-270.7 355.5,-270.7"/>
<image xlink:href="../../images/foreignKeys.png" width="11px" height="12px" preserveAspectRatio="xMinYMin meet" x="360.5" y="-287.7"/>
<text text-anchor="start" x="375.5" y="-277.8" font-family="Helvetica,sans-Serif" font-size="11.00" fill="#000000">aow_processed_id</text>
<polygon fill="none" stroke="#000000" points="566.5,-270.7 566.5,-292.7 632.5,-292.7 632.5,-270.7 566.5,-270.7"/>
<text text-anchor="start" x="569.5" y="-278.4" font-family="Helvetica,sans-Serif" font-size="11.00" fill="#000000">varchar[36]</text>
<polygon fill="#ffffff" stroke="transparent" points="355.5,-248.7 355.5,-270.7 566.5,-270.7 566.5,-248.7 355.5,-248.7"/>
<polygon fill="none" stroke="#000000" points="355.5,-248.7 355.5,-270.7 566.5,-270.7 566.5,-248.7 355.5,-248.7"/>
<image xlink:href="../../images/foreignKeys.png" width="11px" height="12px" preserveAspectRatio="xMinYMin meet" x="360.5" y="-265.7"/>
<text text-anchor="start" x="375.5" y="-255.8" font-family="Helvetica,sans-Serif" font-size="11.00" fill="#000000">aow_action_id</text>
<polygon fill="none" stroke="#000000" points="566.5,-248.7 566.5,-270.7 632.5,-270.7 632.5,-248.7 566.5,-248.7"/>
<text text-anchor="start" x="569.5" y="-256.4" font-family="Helvetica,sans-Serif" font-size="11.00" fill="#000000">varchar[36]</text>
<polygon fill="none" stroke="#000000" points="355.5,-226.7 355.5,-248.7 566.5,-248.7 566.5,-226.7 355.5,-226.7"/>
<text text-anchor="start" x="375.5" y="-233.8" font-family="Helvetica,sans-Serif" font-size="11.00" fill="#000000">status</text>
<polygon fill="none" stroke="#000000" points="566.5,-226.7 566.5,-248.7 632.5,-248.7 632.5,-226.7 566.5,-226.7"/>
<text text-anchor="start" x="569.5" y="-234.4" font-family="Helvetica,sans-Serif" font-size="11.00" fill="#000000">varchar[36]</text>
<polygon fill="none" stroke="#000000" points="355.5,-204.7 355.5,-226.7 566.5,-226.7 566.5,-204.7 355.5,-204.7"/>
<text text-anchor="start" x="375.5" y="-211.8" font-family="Helvetica,sans-Serif" font-size="11.00" fill="#000000">date_modified</text>
<polygon fill="none" stroke="#000000" points="566.5,-204.7 566.5,-226.7 632.5,-226.7 632.5,-204.7 566.5,-204.7"/>
<text text-anchor="start" x="569.2401" y="-212.4" font-family="Helvetica,sans-Serif" font-size="11.00" fill="#000000">datetime[26]</text>
<polygon fill="#ffffff" stroke="transparent" points="355.5,-182.7 355.5,-204.7 566.5,-204.7 566.5,-182.7 355.5,-182.7"/>
<polygon fill="none" stroke="#000000" points="355.5,-182.7 355.5,-204.7 566.5,-204.7 566.5,-182.7 355.5,-182.7"/>
<text text-anchor="start" x="375.5" y="-189.8" font-family="Helvetica,sans-Serif" font-size="11.00" fill="#000000">deleted</text>
<polygon fill="none" stroke="#000000" points="566.5,-182.7 566.5,-204.7 632.5,-204.7 632.5,-182.7 566.5,-182.7"/>
<text text-anchor="start" x="569.5" y="-190.4" font-family="Helvetica,sans-Serif" font-size="11.00" fill="#000000">bit[1]</text>
<polygon fill="#ffffff" stroke="transparent" points="355.5,-163.7 355.5,-182.7 465.5,-182.7 465.5,-163.7 355.5,-163.7"/>
<polygon fill="none" stroke="#000000" points="355.5,-163.7 355.5,-182.7 465.5,-182.7 465.5,-163.7 355.5,-163.7"/>
<text text-anchor="start" x="358.5" y="-169.8" font-family="Helvetica,sans-Serif" font-size="11.00" fill="#000000">&lt; 2</text>
<polygon fill="#ffffff" stroke="transparent" points="465.5,-163.7 465.5,-182.7 566.5,-182.7 566.5,-163.7 465.5,-163.7"/>
<polygon fill="none" stroke="#000000" points="465.5,-163.7 465.5,-182.7 566.5,-182.7 566.5,-163.7 465.5,-163.7"/>
<text text-anchor="start" x="557.3862" y="-169.8" font-family="Helvetica,sans-Serif" font-size="11.00" fill="#000000"> &#160;</text>
<polygon fill="#ffffff" stroke="transparent" points="566.5,-163.7 566.5,-182.7 632.5,-182.7 632.5,-163.7 566.5,-163.7"/>
<polygon fill="none" stroke="#000000" points="566.5,-163.7 566.5,-182.7 632.5,-182.7 632.5,-163.7 566.5,-163.7"/>
<text text-anchor="start" x="613.9053" y="-169.8" font-family="Helvetica,sans-Serif" font-size="11.00" fill="#000000">0 &gt;</text>
<polygon fill="none" stroke="#000000" stroke-width="2" points="354,-162.7 354,-338.7 633,-338.7 633,-162.7 354,-162.7"/>
</a>
</g>
</g>
<!-- aow_processed_aow_actions&#45;&gt;aow_actions -->
<g id="edge3" class="edge">
<title>aow_processed_aow_actions:w&#45;&gt;aow_actions:e</title>
<path fill="none" stroke="#000000" d="M341.4064,-255.8918C313.7616,-236.8309 351.2134,-152.7 304.5,-152.7"/>
<polygon fill="#000000" stroke="#000000" points="347.777,-257.6131 354.5609,-263.1754 351.6385,-258.6566 355.5,-259.7 355.5,-259.7 355.5,-259.7 351.6385,-258.6566 356.4391,-256.2246 347.777,-257.6131 347.777,-257.6131"/>
<ellipse fill="none" stroke="#000000" cx="344.6878" cy="-256.7784" rx="3.2" ry="3.2"/>
</g>
<!-- aow_processed_aow_actions&#45;&gt;aow_processed -->
<g id="edge4" class="edge">
<title>aow_processed_aow_actions:w&#45;&gt;aow_processed:e</title>
<path fill="none" stroke="#000000" d="M341.4064,-285.5082C313.7616,-304.5691 351.2134,-388.7 304.5,-388.7"/>
<polygon fill="#000000" stroke="#000000" points="347.777,-283.7869 356.4391,-285.1754 351.6385,-282.7434 355.5,-281.7 355.5,-281.7 355.5,-281.7 351.6385,-282.7434 354.5609,-278.2246 347.777,-283.7869 347.777,-283.7869"/>
<ellipse fill="none" stroke="#000000" cx="344.6878" cy="-284.6216" rx="3.2" ry="3.2"/>
</g>
</g>
</svg>
