<?xml version="1.0" encoding="UTF-8" standalone="no"?>
<!DOCTYPE svg PUBLIC "-//W3C//DTD SVG 1.1//EN"
 "http://www.w3.org/Graphics/SVG/1.1/DTD/svg11.dtd">
<!-- Generated by graphviz version 2.40.1 (20161225.0304)
 -->
<!-- Title: twoDegreesRelationshipsDiagram Pages: 1 -->
<svg width="935pt" height="1169pt"
 viewBox="0.00 0.00 935.00 1168.82" xmlns="http://www.w3.org/2000/svg" xmlns:xlink="http://www.w3.org/1999/xlink">
<g id="graph0" class="graph" transform="scale(1 1) rotate(0) translate(4 1164.8164)">
<title>twoDegreesRelationshipsDiagram</title>
<polygon fill="#ffffff" stroke="transparent" points="-4,4 -4,-1164.8164 931,-1164.8164 931,4 -4,4"/>
<text text-anchor="middle" x="72.4936" y="-7.3" font-family="Helvetica,sans-Serif" font-size="11.00" fill="#000000">Generated by SchemaSpy</text>
<!-- accounts_bugs -->
<g id="node1" class="node">
<title>accounts_bugs</title>
<g id="a_node1"><a xlink:href="../../tables/accounts_bugs.html" xlink:title="accounts_bugs" target="_top">
<polygon fill="#ffffff" stroke="transparent" points="383.5,-1095.8164 383.5,-1156.8164 499.5,-1156.8164 499.5,-1095.8164 383.5,-1095.8164"/>
<polygon fill="#f5f5f5" stroke="transparent" points="383.5,-1133.3164 383.5,-1156.3164 499.5,-1156.3164 499.5,-1133.3164 383.5,-1133.3164"/>
<polygon fill="none" stroke="#000000" points="383.5,-1133.3164 383.5,-1156.3164 499.5,-1156.3164 499.5,-1133.3164 383.5,-1133.3164"/>
<text text-anchor="start" x="388.012" y="-1142.4164" font-family="Helvetica,sans-Serif" font-weight="bold" font-size="11.00" fill="#000000">accounts_bugs</text>
<text text-anchor="start" x="465.0219" y="-1141.4164" font-family="Helvetica,sans-Serif" font-size="11.00" fill="#000000">[table]</text>
<polygon fill="none" stroke="#000000" points="383.5,-1114.3164 383.5,-1133.3164 499.5,-1133.3164 499.5,-1114.3164 383.5,-1114.3164"/>
<text text-anchor="start" x="386.5" y="-1120.4164" font-family="Helvetica,sans-Serif" font-size="11.00" fill="#000000">...</text>
<polygon fill="#ffffff" stroke="transparent" points="383.5,-1095.3164 383.5,-1114.3164 439.5,-1114.3164 439.5,-1095.3164 383.5,-1095.3164"/>
<polygon fill="none" stroke="#000000" points="383.5,-1095.3164 383.5,-1114.3164 439.5,-1114.3164 439.5,-1095.3164 383.5,-1095.3164"/>
<text text-anchor="start" x="386.5" y="-1101.4164" font-family="Helvetica,sans-Serif" font-size="11.00" fill="#000000">&lt; 2</text>
<polygon fill="#ffffff" stroke="transparent" points="439.5,-1095.3164 439.5,-1114.3164 469.5,-1114.3164 469.5,-1095.3164 439.5,-1095.3164"/>
<polygon fill="none" stroke="#000000" points="439.5,-1095.3164 439.5,-1114.3164 469.5,-1114.3164 469.5,-1095.3164 439.5,-1095.3164"/>
<text text-anchor="start" x="460.3862" y="-1101.4164" font-family="Helvetica,sans-Serif" font-size="11.00" fill="#000000"> &#160;</text>
<polygon fill="#ffffff" stroke="transparent" points="469.5,-1095.3164 469.5,-1114.3164 499.5,-1114.3164 499.5,-1095.3164 469.5,-1095.3164"/>
<polygon fill="none" stroke="#000000" points="469.5,-1095.3164 469.5,-1114.3164 499.5,-1114.3164 499.5,-1095.3164 469.5,-1095.3164"/>
<text text-anchor="start" x="490.3862" y="-1101.4164" font-family="Helvetica,sans-Serif" font-size="11.00" fill="#000000"> &#160;</text>
</a>
</g>
</g>
<!-- bugs -->
<g id="node2" class="node">
<title>bugs</title>
<g id="a_node2"><a xlink:href="../../tables/bugs.html" xlink:title="bugs" target="_top">
<polygon fill="#ffffff" stroke="transparent" points="141,-277.8164 141,-514.8164 280,-514.8164 280,-277.8164 141,-277.8164"/>
<polygon fill="#f5f5f5" stroke="transparent" points="141.5,-491.3164 141.5,-514.3164 280.5,-514.3164 280.5,-491.3164 141.5,-491.3164"/>
<polygon fill="none" stroke="#000000" points="141.5,-491.3164 141.5,-514.3164 280.5,-514.3164 280.5,-491.3164 141.5,-491.3164"/>
<text text-anchor="start" x="146.5" y="-500.4164" font-family="Helvetica,sans-Serif" font-weight="bold" font-size="11.00" fill="#000000">bugs</text>
<text text-anchor="start" x="245.5437" y="-499.4164" font-family="Helvetica,sans-Serif" font-size="11.00" fill="#000000">[table]</text>
<polygon fill="none" stroke="#000000" points="141.5,-469.3164 141.5,-491.3164 280.5,-491.3164 280.5,-469.3164 141.5,-469.3164"/>
<image xlink:href="../../images/primaryKeys.png" width="11px" height="12px" preserveAspectRatio="xMinYMin meet" x="146.5" y="-486.316"/>
<text text-anchor="start" x="161.5" y="-476.4164" font-family="Helvetica,sans-Serif" font-size="11.00" fill="#000000">id</text>
<polygon fill="#ffffff" stroke="transparent" points="141.5,-447.3164 141.5,-469.3164 280.5,-469.3164 280.5,-447.3164 141.5,-447.3164"/>
<polygon fill="none" stroke="#000000" points="141.5,-447.3164 141.5,-469.3164 280.5,-469.3164 280.5,-447.3164 141.5,-447.3164"/>
<text text-anchor="start" x="161.5" y="-454.4164" font-family="Helvetica,sans-Serif" font-size="11.00" fill="#000000">name</text>
<polygon fill="#c0c0c0" stroke="transparent" points="141.5,-425.3164 141.5,-447.3164 280.5,-447.3164 280.5,-425.3164 141.5,-425.3164"/>
<polygon fill="none" stroke="#000000" points="141.5,-425.3164 141.5,-447.3164 280.5,-447.3164 280.5,-425.3164 141.5,-425.3164"/>
<image xlink:href="../../images/foreignKeys.png" width="11px" height="12px" preserveAspectRatio="xMinYMin meet" x="146.5" y="-442.316"/>
<text text-anchor="start" x="161.5" y="-432.4164" font-family="Helvetica,sans-Serif" font-size="11.00" fill="#000000">modified_user_id</text>
<polygon fill="#c0c0c0" stroke="transparent" points="141.5,-403.3164 141.5,-425.3164 280.5,-425.3164 280.5,-403.3164 141.5,-403.3164"/>
<polygon fill="none" stroke="#000000" points="141.5,-403.3164 141.5,-425.3164 280.5,-425.3164 280.5,-403.3164 141.5,-403.3164"/>
<image xlink:href="../../images/foreignKeys.png" width="11px" height="12px" preserveAspectRatio="xMinYMin meet" x="146.5" y="-420.316"/>
<text text-anchor="start" x="161.5" y="-410.4164" font-family="Helvetica,sans-Serif" font-size="11.00" fill="#000000">created_by</text>
<polygon fill="#c0c0c0" stroke="transparent" points="141.5,-381.3164 141.5,-403.3164 280.5,-403.3164 280.5,-381.3164 141.5,-381.3164"/>
<polygon fill="none" stroke="#000000" points="141.5,-381.3164 141.5,-403.3164 280.5,-403.3164 280.5,-381.3164 141.5,-381.3164"/>
<image xlink:href="../../images/foreignKeys.png" width="11px" height="12px" preserveAspectRatio="xMinYMin meet" x="146.5" y="-398.316"/>
<text text-anchor="start" x="161.5" y="-388.4164" font-family="Helvetica,sans-Serif" font-size="11.00" fill="#000000">assigned_user_id</text>
<polygon fill="#ffffff" stroke="transparent" points="141.5,-359.3164 141.5,-381.3164 280.5,-381.3164 280.5,-359.3164 141.5,-359.3164"/>
<polygon fill="none" stroke="#000000" points="141.5,-359.3164 141.5,-381.3164 280.5,-381.3164 280.5,-359.3164 141.5,-359.3164"/>
<text text-anchor="start" x="161.5" y="-366.4164" font-family="Helvetica,sans-Serif" font-size="11.00" fill="#000000">bug_number</text>
<polygon fill="none" stroke="#000000" points="141.5,-337.3164 141.5,-359.3164 280.5,-359.3164 280.5,-337.3164 141.5,-337.3164"/>
<image xlink:href="../../images/foreignKeys.png" width="11px" height="12px" preserveAspectRatio="xMinYMin meet" x="146.5" y="-354.316"/>
<text text-anchor="start" x="161.5" y="-344.4164" font-family="Helvetica,sans-Serif" font-size="11.00" fill="#000000">found_in_release</text>
<polygon fill="none" stroke="#000000" points="141.5,-315.3164 141.5,-337.3164 280.5,-337.3164 280.5,-315.3164 141.5,-315.3164"/>
<image xlink:href="../../images/foreignKeys.png" width="11px" height="12px" preserveAspectRatio="xMinYMin meet" x="146.5" y="-332.316"/>
<text text-anchor="start" x="161.5" y="-322.4164" font-family="Helvetica,sans-Serif" font-size="11.00" fill="#000000">fixed_in_release</text>
<polygon fill="none" stroke="#000000" points="141.5,-296.3164 141.5,-315.3164 280.5,-315.3164 280.5,-296.3164 141.5,-296.3164"/>
<text text-anchor="start" x="144.5" y="-302.4164" font-family="Helvetica,sans-Serif" font-size="11.00" fill="#000000">...</text>
<polygon fill="#ffffff" stroke="transparent" points="141.5,-277.3164 141.5,-296.3164 201.5,-296.3164 201.5,-277.3164 141.5,-277.3164"/>
<polygon fill="none" stroke="#000000" points="141.5,-277.3164 141.5,-296.3164 201.5,-296.3164 201.5,-277.3164 141.5,-277.3164"/>
<text text-anchor="start" x="144.5" y="-283.4164" font-family="Helvetica,sans-Serif" font-size="11.00" fill="#000000">&lt; 5</text>
<polygon fill="#ffffff" stroke="transparent" points="201.5,-277.3164 201.5,-296.3164 233.5,-296.3164 233.5,-277.3164 201.5,-277.3164"/>
<polygon fill="none" stroke="#000000" points="201.5,-277.3164 201.5,-296.3164 233.5,-296.3164 233.5,-277.3164 201.5,-277.3164"/>
<text text-anchor="start" x="224.3862" y="-283.4164" font-family="Helvetica,sans-Serif" font-size="11.00" fill="#000000"> &#160;</text>
<polygon fill="#ffffff" stroke="transparent" points="233.5,-277.3164 233.5,-296.3164 280.5,-296.3164 280.5,-277.3164 233.5,-277.3164"/>
<polygon fill="none" stroke="#000000" points="233.5,-277.3164 233.5,-296.3164 280.5,-296.3164 280.5,-277.3164 233.5,-277.3164"/>
<text text-anchor="start" x="255.7904" y="-283.4164" font-family="Helvetica,sans-Serif" font-size="11.00" fill="#000000">13 &gt;</text>
</a>
</g>
</g>
<!-- accounts_bugs&#45;&gt;bugs -->
<g id="edge1" class="edge">
<title>accounts_bugs:w&#45;&gt;bugs:e</title>
<path fill="none" stroke="#000000" d="M368.963,-1122.4592C346.5853,-1119.4925 335.1041,-1108.5453 321,-1085.3164 286.0337,-1027.7279 347.8727,-480.3164 280.5,-480.3164"/>
<polygon fill="#000000" stroke="#000000" points="375.5139,-1122.8454 383.2881,-1126.9101 379.5069,-1123.0809 383.5,-1123.3164 383.5,-1123.3164 383.5,-1123.3164 379.5069,-1123.0809 383.7119,-1119.7226 375.5139,-1122.8454 375.5139,-1122.8454"/>
<ellipse fill="none" stroke="#000000" cx="372.3194" cy="-1122.6571" rx="3.2" ry="3.2"/>
</g>
<!-- releases -->
<g id="node3" class="node">
<title>releases</title>
<g id="a_node3"><a xlink:href="../../tables/releases.html" xlink:title="releases" target="_top">
<polygon fill="#ffffff" stroke="transparent" points="8,-309.8164 8,-370.8164 92,-370.8164 92,-309.8164 8,-309.8164"/>
<polygon fill="#f5f5f5" stroke="transparent" points="8,-347.3164 8,-370.3164 92,-370.3164 92,-347.3164 8,-347.3164"/>
<polygon fill="none" stroke="#000000" points="8,-347.3164 8,-370.3164 92,-370.3164 92,-347.3164 8,-347.3164"/>
<text text-anchor="start" x="12.7188" y="-356.4164" font-family="Helvetica,sans-Serif" font-weight="bold" font-size="11.00" fill="#000000">releases</text>
<text text-anchor="start" x="57.5219" y="-355.4164" font-family="Helvetica,sans-Serif" font-size="11.00" fill="#000000">[table]</text>
<polygon fill="none" stroke="#000000" points="8,-328.3164 8,-347.3164 92,-347.3164 92,-328.3164 8,-328.3164"/>
<text text-anchor="start" x="11" y="-334.4164" font-family="Helvetica,sans-Serif" font-size="11.00" fill="#000000">...</text>
<polygon fill="#ffffff" stroke="transparent" points="8,-309.3164 8,-328.3164 39,-328.3164 39,-309.3164 8,-309.3164"/>
<polygon fill="none" stroke="#000000" points="8,-309.3164 8,-328.3164 39,-328.3164 39,-309.3164 8,-309.3164"/>
<text text-anchor="start" x="11" y="-315.4164" font-family="Helvetica,sans-Serif" font-size="11.00" fill="#000000"> &#160;</text>
<polygon fill="#ffffff" stroke="transparent" points="39,-309.3164 39,-328.3164 61,-328.3164 61,-309.3164 39,-309.3164"/>
<polygon fill="none" stroke="#000000" points="39,-309.3164 39,-328.3164 61,-328.3164 61,-309.3164 39,-309.3164"/>
<text text-anchor="start" x="51.8862" y="-315.4164" font-family="Helvetica,sans-Serif" font-size="11.00" fill="#000000"> &#160;</text>
<polygon fill="#ffffff" stroke="transparent" points="61,-309.3164 61,-328.3164 92,-328.3164 92,-309.3164 61,-309.3164"/>
<polygon fill="none" stroke="#000000" points="61,-309.3164 61,-328.3164 92,-328.3164 92,-309.3164 61,-309.3164"/>
<text text-anchor="start" x="73.4053" y="-315.4164" font-family="Helvetica,sans-Serif" font-size="11.00" fill="#000000">2 &gt;</text>
</a>
</g>
</g>
<!-- bugs&#45;&gt;releases -->
<g id="edge2" class="edge">
<title>bugs:w&#45;&gt;releases:e</title>
<path fill="none" stroke="#000000" d="M127.0598,-328.1328C115.4771,-331.2571 108.7264,-337.3164 92,-337.3164"/>
<polygon fill="#000000" stroke="#000000" points="133.5626,-327.3149 141.9493,-329.8882 137.5313,-326.8156 141.5,-326.3164 141.5,-326.3164 141.5,-326.3164 137.5313,-326.8156 141.0507,-322.7445 133.5626,-327.3149 133.5626,-327.3149"/>
<ellipse fill="none" stroke="#000000" cx="130.3876" cy="-327.7143" rx="3.2" ry="3.2"/>
</g>
<!-- bugs&#45;&gt;releases -->
<g id="edge3" class="edge">
<title>bugs:w&#45;&gt;releases:e</title>
<path fill="none" stroke="#000000" d="M127.0598,-346.4999C115.4771,-343.3756 108.7264,-337.3164 92,-337.3164"/>
<polygon fill="#000000" stroke="#000000" points="133.5626,-347.3179 141.0507,-351.8882 137.5313,-347.8171 141.5,-348.3164 141.5,-348.3164 141.5,-348.3164 137.5313,-347.8171 141.9493,-344.7445 133.5626,-347.3179 133.5626,-347.3179"/>
<ellipse fill="none" stroke="#000000" cx="130.3876" cy="-346.9185" rx="3.2" ry="3.2"/>
</g>
<!-- bugs_audit -->
<g id="node4" class="node">
<title>bugs_audit</title>
<g id="a_node4"><a xlink:href="../../tables/bugs_audit.html" xlink:title="bugs_audit" target="_top">
<polygon fill="#ffffff" stroke="transparent" points="329,-808.3164 329,-1074.3164 554,-1074.3164 554,-808.3164 329,-808.3164"/>
<polygon fill="#f5f5f5" stroke="transparent" points="331.5,-1049.3164 331.5,-1072.3164 552.5,-1072.3164 552.5,-1049.3164 331.5,-1049.3164"/>
<polygon fill="none" stroke="#000000" points="331.5,-1049.3164 331.5,-1072.3164 552.5,-1072.3164 552.5,-1049.3164 331.5,-1049.3164"/>
<text text-anchor="start" x="336.5" y="-1058.4164" font-family="Helvetica,sans-Serif" font-weight="bold" font-size="11.00" fill="#000000">bugs_audit</text>
<text text-anchor="start" x="517.5437" y="-1057.4164" font-family="Helvetica,sans-Serif" font-size="11.00" fill="#000000">[table]</text>
<polygon fill="none" stroke="#000000" points="331.5,-1027.3164 331.5,-1049.3164 485.5,-1049.3164 485.5,-1027.3164 331.5,-1027.3164"/>
<image xlink:href="../../images/primaryKeys.png" width="11px" height="12px" preserveAspectRatio="xMinYMin meet" x="336.5" y="-1044.32"/>
<text text-anchor="start" x="351.5" y="-1034.4164" font-family="Helvetica,sans-Serif" font-size="11.00" fill="#000000">id</text>
<polygon fill="none" stroke="#000000" points="485.5,-1027.3164 485.5,-1049.3164 552.5,-1049.3164 552.5,-1027.3164 485.5,-1027.3164"/>
<text text-anchor="start" x="488.5" y="-1035.0164" font-family="Helvetica,sans-Serif" font-size="11.00" fill="#000000">char[36]</text>
<polygon fill="#ffffff" stroke="transparent" points="331.5,-1005.3164 331.5,-1027.3164 485.5,-1027.3164 485.5,-1005.3164 331.5,-1005.3164"/>
<polygon fill="none" stroke="#000000" points="331.5,-1005.3164 331.5,-1027.3164 485.5,-1027.3164 485.5,-1005.3164 331.5,-1005.3164"/>
<image xlink:href="../../images/foreignKeys.png" width="11px" height="12px" preserveAspectRatio="xMinYMin meet" x="336.5" y="-1022.32"/>
<text text-anchor="start" x="351.5" y="-1012.4164" font-family="Helvetica,sans-Serif" font-size="11.00" fill="#000000">parent_id</text>
<polygon fill="none" stroke="#000000" points="485.5,-1005.3164 485.5,-1027.3164 552.5,-1027.3164 552.5,-1005.3164 485.5,-1005.3164"/>
<text text-anchor="start" x="488.5" y="-1013.0164" font-family="Helvetica,sans-Serif" font-size="11.00" fill="#000000">char[36]</text>
<polygon fill="none" stroke="#000000" points="331.5,-983.3164 331.5,-1005.3164 485.5,-1005.3164 485.5,-983.3164 331.5,-983.3164"/>
<text text-anchor="start" x="351.5" y="-990.4164" font-family="Helvetica,sans-Serif" font-size="11.00" fill="#000000">date_created</text>
<polygon fill="none" stroke="#000000" points="485.5,-983.3164 485.5,-1005.3164 552.5,-1005.3164 552.5,-983.3164 485.5,-983.3164"/>
<text text-anchor="start" x="488.5" y="-991.0164" font-family="Helvetica,sans-Serif" font-size="11.00" fill="#000000">datetime[26]</text>
<polygon fill="none" stroke="#000000" points="331.5,-961.3164 331.5,-983.3164 485.5,-983.3164 485.5,-961.3164 331.5,-961.3164"/>
<text text-anchor="start" x="351.5" y="-968.4164" font-family="Helvetica,sans-Serif" font-size="11.00" fill="#000000">created_by</text>
<polygon fill="none" stroke="#000000" points="485.5,-961.3164 485.5,-983.3164 552.5,-983.3164 552.5,-961.3164 485.5,-961.3164"/>
<text text-anchor="start" x="488.5" y="-969.0164" font-family="Helvetica,sans-Serif" font-size="11.00" fill="#000000">varchar[36]</text>
<polygon fill="none" stroke="#000000" points="331.5,-939.3164 331.5,-961.3164 485.5,-961.3164 485.5,-939.3164 331.5,-939.3164"/>
<text text-anchor="start" x="351.5" y="-946.4164" font-family="Helvetica,sans-Serif" font-size="11.00" fill="#000000">field_name</text>
<polygon fill="none" stroke="#000000" points="485.5,-939.3164 485.5,-961.3164 552.5,-961.3164 552.5,-939.3164 485.5,-939.3164"/>
<text text-anchor="start" x="488.4365" y="-947.0164" font-family="Helvetica,sans-Serif" font-size="11.00" fill="#000000">varchar[100]</text>
<polygon fill="none" stroke="#000000" points="331.5,-917.3164 331.5,-939.3164 485.5,-939.3164 485.5,-917.3164 331.5,-917.3164"/>
<text text-anchor="start" x="351.5" y="-924.4164" font-family="Helvetica,sans-Serif" font-size="11.00" fill="#000000">data_type</text>
<polygon fill="none" stroke="#000000" points="485.5,-917.3164 485.5,-939.3164 552.5,-939.3164 552.5,-917.3164 485.5,-917.3164"/>
<text text-anchor="start" x="488.4365" y="-925.0164" font-family="Helvetica,sans-Serif" font-size="11.00" fill="#000000">varchar[100]</text>
<polygon fill="none" stroke="#000000" points="331.5,-895.3164 331.5,-917.3164 485.5,-917.3164 485.5,-895.3164 331.5,-895.3164"/>
<text text-anchor="start" x="351.5" y="-902.4164" font-family="Helvetica,sans-Serif" font-size="11.00" fill="#000000">before_value_string</text>
<polygon fill="none" stroke="#000000" points="485.5,-895.3164 485.5,-917.3164 552.5,-917.3164 552.5,-895.3164 485.5,-895.3164"/>
<text text-anchor="start" x="488.4365" y="-903.0164" font-family="Helvetica,sans-Serif" font-size="11.00" fill="#000000">varchar[255]</text>
<polygon fill="none" stroke="#000000" points="331.5,-873.3164 331.5,-895.3164 485.5,-895.3164 485.5,-873.3164 331.5,-873.3164"/>
<text text-anchor="start" x="351.5" y="-880.4164" font-family="Helvetica,sans-Serif" font-size="11.00" fill="#000000">after_value_string</text>
<polygon fill="none" stroke="#000000" points="485.5,-873.3164 485.5,-895.3164 552.5,-895.3164 552.5,-873.3164 485.5,-873.3164"/>
<text text-anchor="start" x="488.4365" y="-881.0164" font-family="Helvetica,sans-Serif" font-size="11.00" fill="#000000">varchar[255]</text>
<polygon fill="none" stroke="#000000" points="331.5,-851.3164 331.5,-873.3164 485.5,-873.3164 485.5,-851.3164 331.5,-851.3164"/>
<text text-anchor="start" x="351.5" y="-858.4164" font-family="Helvetica,sans-Serif" font-size="11.00" fill="#000000">before_value_text</text>
<polygon fill="none" stroke="#000000" points="485.5,-851.3164 485.5,-873.3164 552.5,-873.3164 552.5,-851.3164 485.5,-851.3164"/>
<text text-anchor="start" x="488.5" y="-859.0164" font-family="Helvetica,sans-Serif" font-size="11.00" fill="#000000">text[65535]</text>
<polygon fill="none" stroke="#000000" points="331.5,-829.3164 331.5,-851.3164 485.5,-851.3164 485.5,-829.3164 331.5,-829.3164"/>
<text text-anchor="start" x="351.5" y="-836.4164" font-family="Helvetica,sans-Serif" font-size="11.00" fill="#000000">after_value_text</text>
<polygon fill="none" stroke="#000000" points="485.5,-829.3164 485.5,-851.3164 552.5,-851.3164 552.5,-829.3164 485.5,-829.3164"/>
<text text-anchor="start" x="488.5" y="-837.0164" font-family="Helvetica,sans-Serif" font-size="11.00" fill="#000000">text[65535]</text>
<polygon fill="#ffffff" stroke="transparent" points="331.5,-810.3164 331.5,-829.3164 412.5,-829.3164 412.5,-810.3164 331.5,-810.3164"/>
<polygon fill="none" stroke="#000000" points="331.5,-810.3164 331.5,-829.3164 412.5,-829.3164 412.5,-810.3164 331.5,-810.3164"/>
<text text-anchor="start" x="334.5" y="-816.4164" font-family="Helvetica,sans-Serif" font-size="11.00" fill="#000000">&lt; 1</text>
<polygon fill="#ffffff" stroke="transparent" points="412.5,-810.3164 412.5,-829.3164 485.5,-829.3164 485.5,-810.3164 412.5,-810.3164"/>
<polygon fill="none" stroke="#000000" points="412.5,-810.3164 412.5,-829.3164 485.5,-829.3164 485.5,-810.3164 412.5,-810.3164"/>
<text text-anchor="start" x="476.3862" y="-816.4164" font-family="Helvetica,sans-Serif" font-size="11.00" fill="#000000"> &#160;</text>
<polygon fill="#ffffff" stroke="transparent" points="485.5,-810.3164 485.5,-829.3164 552.5,-829.3164 552.5,-810.3164 485.5,-810.3164"/>
<polygon fill="none" stroke="#000000" points="485.5,-810.3164 485.5,-829.3164 552.5,-829.3164 552.5,-810.3164 485.5,-810.3164"/>
<text text-anchor="start" x="533.9053" y="-816.4164" font-family="Helvetica,sans-Serif" font-size="11.00" fill="#000000">0 &gt;</text>
<polygon fill="none" stroke="#000000" stroke-width="2" points="330,-809.3164 330,-1073.3164 553,-1073.3164 553,-809.3164 330,-809.3164"/>
</a>
</g>
</g>
<!-- bugs_audit&#45;&gt;bugs -->
<g id="edge4" class="edge">
<title>bugs_audit:w&#45;&gt;bugs:e</title>
<path fill="none" stroke="#000000" d="M319.9519,-1007.4603C281.3883,-937.7701 335.7676,-480.3164 280.5,-480.3164"/>
<polygon fill="#000000" stroke="#000000" points="325.1518,-1011.448 329.3092,-1019.1731 328.3259,-1013.8822 331.5,-1016.3164 331.5,-1016.3164 331.5,-1016.3164 328.3259,-1013.8822 333.6908,-1013.4597 325.1518,-1011.448 325.1518,-1011.448"/>
<ellipse fill="none" stroke="#000000" cx="322.6125" cy="-1009.5007" rx="3.2" ry="3.2"/>
</g>
<!-- calls -->
<g id="node5" class="node">
<title>calls</title>
<g id="a_node5"><a xlink:href="../../tables/calls.html" xlink:title="calls" target="_top">
<polygon fill="#ffffff" stroke="transparent" points="409.5,-452.8164 409.5,-513.8164 473.5,-513.8164 473.5,-452.8164 409.5,-452.8164"/>
<polygon fill="#f5f5f5" stroke="transparent" points="409.5,-490.3164 409.5,-513.3164 473.5,-513.3164 473.5,-490.3164 409.5,-490.3164"/>
<polygon fill="none" stroke="#000000" points="409.5,-490.3164 409.5,-513.3164 473.5,-513.3164 473.5,-490.3164 409.5,-490.3164"/>
<text text-anchor="start" x="414.0017" y="-499.4164" font-family="Helvetica,sans-Serif" font-weight="bold" font-size="11.00" fill="#000000">calls</text>
<text text-anchor="start" x="439.0219" y="-498.4164" font-family="Helvetica,sans-Serif" font-size="11.00" fill="#000000">[table]</text>
<polygon fill="none" stroke="#000000" points="409.5,-471.3164 409.5,-490.3164 473.5,-490.3164 473.5,-471.3164 409.5,-471.3164"/>
<text text-anchor="start" x="412.5" y="-477.4164" font-family="Helvetica,sans-Serif" font-size="11.00" fill="#000000">...</text>
<polygon fill="#ffffff" stroke="transparent" points="409.5,-452.3164 409.5,-471.3164 438.5,-471.3164 438.5,-452.3164 409.5,-452.3164"/>
<polygon fill="none" stroke="#000000" points="409.5,-452.3164 409.5,-471.3164 438.5,-471.3164 438.5,-452.3164 409.5,-452.3164"/>
<text text-anchor="start" x="412.5" y="-458.4164" font-family="Helvetica,sans-Serif" font-size="11.00" fill="#000000">&lt; 12</text>
<polygon fill="#ffffff" stroke="transparent" points="438.5,-452.3164 438.5,-471.3164 451.5,-471.3164 451.5,-452.3164 438.5,-452.3164"/>
<polygon fill="none" stroke="#000000" points="438.5,-452.3164 438.5,-471.3164 451.5,-471.3164 451.5,-452.3164 438.5,-452.3164"/>
<text text-anchor="start" x="442.3862" y="-458.4164" font-family="Helvetica,sans-Serif" font-size="11.00" fill="#000000"> &#160;</text>
<polygon fill="#ffffff" stroke="transparent" points="451.5,-452.3164 451.5,-471.3164 473.5,-471.3164 473.5,-452.3164 451.5,-452.3164"/>
<polygon fill="none" stroke="#000000" points="451.5,-452.3164 451.5,-471.3164 473.5,-471.3164 473.5,-452.3164 451.5,-452.3164"/>
<text text-anchor="start" x="454.9053" y="-458.4164" font-family="Helvetica,sans-Serif" font-size="11.00" fill="#000000">6 &gt;</text>
</a>
</g>
</g>
<!-- calls&#45;&gt;bugs -->
<g id="edge5" class="edge">
<title>calls:w&#45;&gt;bugs:e</title>
<path fill="none" stroke="#000000" d="M395.0258,-480.3164C349.2441,-480.3164 332.6823,-480.3164 280.5,-480.3164"/>
<polygon fill="#000000" stroke="#000000" points="401.5,-480.3164 409.5,-483.9164 405.5,-480.3164 409.5,-480.3164 409.5,-480.3164 409.5,-480.3164 405.5,-480.3164 409.5,-476.7164 401.5,-480.3164 401.5,-480.3164"/>
<ellipse fill="none" stroke="#000000" cx="398.3" cy="-480.3164" rx="3.2" ry="3.2"/>
</g>
<!-- cases_bugs -->
<g id="node6" class="node">
<title>cases_bugs</title>
<g id="a_node6"><a xlink:href="../../tables/cases_bugs.html" xlink:title="cases_bugs" target="_top">
<polygon fill="#ffffff" stroke="transparent" points="391,-698.8164 391,-759.8164 492,-759.8164 492,-698.8164 391,-698.8164"/>
<polygon fill="#f5f5f5" stroke="transparent" points="391.5,-736.3164 391.5,-759.3164 492.5,-759.3164 492.5,-736.3164 391.5,-736.3164"/>
<polygon fill="none" stroke="#000000" points="391.5,-736.3164 391.5,-759.3164 492.5,-759.3164 492.5,-736.3164 391.5,-736.3164"/>
<text text-anchor="start" x="396.1553" y="-745.4164" font-family="Helvetica,sans-Serif" font-weight="bold" font-size="11.00" fill="#000000">cases_bugs</text>
<text text-anchor="start" x="458.0219" y="-744.4164" font-family="Helvetica,sans-Serif" font-size="11.00" fill="#000000">[table]</text>
<polygon fill="none" stroke="#000000" points="391.5,-717.3164 391.5,-736.3164 492.5,-736.3164 492.5,-717.3164 391.5,-717.3164"/>
<text text-anchor="start" x="394.5" y="-723.4164" font-family="Helvetica,sans-Serif" font-size="11.00" fill="#000000">...</text>
<polygon fill="#ffffff" stroke="transparent" points="391.5,-698.3164 391.5,-717.3164 440.5,-717.3164 440.5,-698.3164 391.5,-698.3164"/>
<polygon fill="none" stroke="#000000" points="391.5,-698.3164 391.5,-717.3164 440.5,-717.3164 440.5,-698.3164 391.5,-698.3164"/>
<text text-anchor="start" x="394.5" y="-704.4164" font-family="Helvetica,sans-Serif" font-size="11.00" fill="#000000">&lt; 2</text>
<polygon fill="#ffffff" stroke="transparent" points="440.5,-698.3164 440.5,-717.3164 466.5,-717.3164 466.5,-698.3164 440.5,-698.3164"/>
<polygon fill="none" stroke="#000000" points="440.5,-698.3164 440.5,-717.3164 466.5,-717.3164 466.5,-698.3164 440.5,-698.3164"/>
<text text-anchor="start" x="457.3862" y="-704.4164" font-family="Helvetica,sans-Serif" font-size="11.00" fill="#000000"> &#160;</text>
<polygon fill="#ffffff" stroke="transparent" points="466.5,-698.3164 466.5,-717.3164 492.5,-717.3164 492.5,-698.3164 466.5,-698.3164"/>
<polygon fill="none" stroke="#000000" points="466.5,-698.3164 466.5,-717.3164 492.5,-717.3164 492.5,-698.3164 466.5,-698.3164"/>
<text text-anchor="start" x="483.3862" y="-704.4164" font-family="Helvetica,sans-Serif" font-size="11.00" fill="#000000"> &#160;</text>
</a>
</g>
</g>
<!-- cases_bugs&#45;&gt;bugs -->
<g id="edge6" class="edge">
<title>cases_bugs:w&#45;&gt;bugs:e</title>
<path fill="none" stroke="#000000" d="M376.9941,-725.6669C351.6448,-723.1204 338.9647,-712.7306 321,-688.3164 265.1821,-612.459 374.6805,-480.3164 280.5,-480.3164"/>
<polygon fill="#000000" stroke="#000000" points="383.508,-725.9585 391.339,-729.9128 387.504,-726.1374 391.5,-726.3164 391.5,-726.3164 391.5,-726.3164 387.504,-726.1374 391.661,-722.72 383.508,-725.9585 383.508,-725.9585"/>
<ellipse fill="none" stroke="#000000" cx="380.3112" cy="-725.8153" rx="3.2" ry="3.2"/>
</g>
<!-- contacts_bugs -->
<g id="node7" class="node">
<title>contacts_bugs</title>
<g id="a_node7"><a xlink:href="../../tables/contacts_bugs.html" xlink:title="contacts_bugs" target="_top">
<polygon fill="#ffffff" stroke="transparent" points="385,-616.8164 385,-677.8164 498,-677.8164 498,-616.8164 385,-616.8164"/>
<polygon fill="#f5f5f5" stroke="transparent" points="385.5,-654.3164 385.5,-677.3164 498.5,-677.3164 498.5,-654.3164 385.5,-654.3164"/>
<polygon fill="none" stroke="#000000" points="385.5,-654.3164 385.5,-677.3164 498.5,-677.3164 498.5,-654.3164 385.5,-654.3164"/>
<text text-anchor="start" x="390.041" y="-663.4164" font-family="Helvetica,sans-Serif" font-weight="bold" font-size="11.00" fill="#000000">contacts_bugs</text>
<text text-anchor="start" x="464.0219" y="-662.4164" font-family="Helvetica,sans-Serif" font-size="11.00" fill="#000000">[table]</text>
<polygon fill="none" stroke="#000000" points="385.5,-635.3164 385.5,-654.3164 498.5,-654.3164 498.5,-635.3164 385.5,-635.3164"/>
<text text-anchor="start" x="388.5" y="-641.4164" font-family="Helvetica,sans-Serif" font-size="11.00" fill="#000000">...</text>
<polygon fill="#ffffff" stroke="transparent" points="385.5,-616.3164 385.5,-635.3164 440.5,-635.3164 440.5,-616.3164 385.5,-616.3164"/>
<polygon fill="none" stroke="#000000" points="385.5,-616.3164 385.5,-635.3164 440.5,-635.3164 440.5,-616.3164 385.5,-616.3164"/>
<text text-anchor="start" x="388.5" y="-622.4164" font-family="Helvetica,sans-Serif" font-size="11.00" fill="#000000">&lt; 2</text>
<polygon fill="#ffffff" stroke="transparent" points="440.5,-616.3164 440.5,-635.3164 469.5,-635.3164 469.5,-616.3164 440.5,-616.3164"/>
<polygon fill="none" stroke="#000000" points="440.5,-616.3164 440.5,-635.3164 469.5,-635.3164 469.5,-616.3164 440.5,-616.3164"/>
<text text-anchor="start" x="460.3862" y="-622.4164" font-family="Helvetica,sans-Serif" font-size="11.00" fill="#000000"> &#160;</text>
<polygon fill="#ffffff" stroke="transparent" points="469.5,-616.3164 469.5,-635.3164 498.5,-635.3164 498.5,-616.3164 469.5,-616.3164"/>
<polygon fill="none" stroke="#000000" points="469.5,-616.3164 469.5,-635.3164 498.5,-635.3164 498.5,-616.3164 469.5,-616.3164"/>
<text text-anchor="start" x="489.3862" y="-622.4164" font-family="Helvetica,sans-Serif" font-size="11.00" fill="#000000"> &#160;</text>
</a>
</g>
</g>
<!-- contacts_bugs&#45;&gt;bugs -->
<g id="edge7" class="edge">
<title>contacts_bugs:w&#45;&gt;bugs:e</title>
<path fill="none" stroke="#000000" d="M370.8209,-643.3373C348.5228,-639.997 338.3738,-628.0355 321,-606.3164 284.2564,-560.3827 339.3218,-480.3164 280.5,-480.3164"/>
<polygon fill="#000000" stroke="#000000" points="377.5177,-643.7839 385.2604,-647.9084 381.5089,-644.0501 385.5,-644.3164 385.5,-644.3164 385.5,-644.3164 381.5089,-644.0501 385.7396,-640.7243 377.5177,-643.7839 377.5177,-643.7839"/>
<ellipse fill="none" stroke="#000000" cx="374.3248" cy="-643.5709" rx="3.2" ry="3.2"/>
</g>
<!-- documents_bugs -->
<g id="node8" class="node">
<title>documents_bugs</title>
<g id="a_node8"><a xlink:href="../../tables/documents_bugs.html" xlink:title="documents_bugs" target="_top">
<polygon fill="#ffffff" stroke="transparent" points="378.5,-534.8164 378.5,-595.8164 504.5,-595.8164 504.5,-534.8164 378.5,-534.8164"/>
<polygon fill="#f5f5f5" stroke="transparent" points="378.5,-572.3164 378.5,-595.3164 504.5,-595.3164 504.5,-572.3164 378.5,-572.3164"/>
<polygon fill="none" stroke="#000000" points="378.5,-572.3164 378.5,-595.3164 504.5,-595.3164 504.5,-572.3164 378.5,-572.3164"/>
<text text-anchor="start" x="383.1236" y="-581.4164" font-family="Helvetica,sans-Serif" font-weight="bold" font-size="11.00" fill="#000000">documents_bugs</text>
<text text-anchor="start" x="470.0219" y="-580.4164" font-family="Helvetica,sans-Serif" font-size="11.00" fill="#000000">[table]</text>
<polygon fill="none" stroke="#000000" points="378.5,-553.3164 378.5,-572.3164 504.5,-572.3164 504.5,-553.3164 378.5,-553.3164"/>
<text text-anchor="start" x="381.5" y="-559.4164" font-family="Helvetica,sans-Serif" font-size="11.00" fill="#000000">...</text>
<polygon fill="#ffffff" stroke="transparent" points="378.5,-534.3164 378.5,-553.3164 439.5,-553.3164 439.5,-534.3164 378.5,-534.3164"/>
<polygon fill="none" stroke="#000000" points="378.5,-534.3164 378.5,-553.3164 439.5,-553.3164 439.5,-534.3164 378.5,-534.3164"/>
<text text-anchor="start" x="381.5" y="-540.4164" font-family="Helvetica,sans-Serif" font-size="11.00" fill="#000000">&lt; 2</text>
<polygon fill="#ffffff" stroke="transparent" points="439.5,-534.3164 439.5,-553.3164 471.5,-553.3164 471.5,-534.3164 439.5,-534.3164"/>
<polygon fill="none" stroke="#000000" points="439.5,-534.3164 439.5,-553.3164 471.5,-553.3164 471.5,-534.3164 439.5,-534.3164"/>
<text text-anchor="start" x="462.3862" y="-540.4164" font-family="Helvetica,sans-Serif" font-size="11.00" fill="#000000"> &#160;</text>
<polygon fill="#ffffff" stroke="transparent" points="471.5,-534.3164 471.5,-553.3164 504.5,-553.3164 504.5,-534.3164 471.5,-534.3164"/>
<polygon fill="none" stroke="#000000" points="471.5,-534.3164 471.5,-553.3164 504.5,-553.3164 504.5,-534.3164 471.5,-534.3164"/>
<text text-anchor="start" x="495.3862" y="-540.4164" font-family="Helvetica,sans-Serif" font-size="11.00" fill="#000000"> &#160;</text>
</a>
</g>
</g>
<!-- documents_bugs&#45;&gt;bugs -->
<g id="edge8" class="edge">
<title>documents_bugs:w&#45;&gt;bugs:e</title>
<path fill="none" stroke="#000000" d="M364.0774,-560.5836C345.8994,-555.5975 340.0403,-540.5299 321,-524.3164 300.7641,-507.0847 307.0786,-480.3164 280.5,-480.3164"/>
<polygon fill="#000000" stroke="#000000" points="370.5571,-561.3621 378.0706,-565.8907 374.5286,-561.8392 378.5,-562.3164 378.5,-562.3164 378.5,-562.3164 374.5286,-561.8392 378.9294,-558.7421 370.5571,-561.3621 370.5571,-561.3621"/>
<ellipse fill="none" stroke="#000000" cx="367.38" cy="-560.9803" rx="3.2" ry="3.2"/>
</g>
<!-- emails -->
<g id="node9" class="node">
<title>emails</title>
<g id="a_node9"><a xlink:href="../../tables/emails.html" xlink:title="emails" target="_top">
<polygon fill="#ffffff" stroke="transparent" points="404.5,-178.8164 404.5,-239.8164 478.5,-239.8164 478.5,-178.8164 404.5,-178.8164"/>
<polygon fill="#f5f5f5" stroke="transparent" points="404.5,-216.3164 404.5,-239.3164 478.5,-239.3164 478.5,-216.3164 404.5,-216.3164"/>
<polygon fill="none" stroke="#000000" points="404.5,-216.3164 404.5,-239.3164 478.5,-239.3164 478.5,-216.3164 404.5,-216.3164"/>
<text text-anchor="start" x="409.1133" y="-225.4164" font-family="Helvetica,sans-Serif" font-weight="bold" font-size="11.00" fill="#000000">emails</text>
<text text-anchor="start" x="444.0219" y="-224.4164" font-family="Helvetica,sans-Serif" font-size="11.00" fill="#000000">[table]</text>
<polygon fill="none" stroke="#000000" points="404.5,-197.3164 404.5,-216.3164 478.5,-216.3164 478.5,-197.3164 404.5,-197.3164"/>
<text text-anchor="start" x="407.5" y="-203.4164" font-family="Helvetica,sans-Serif" font-size="11.00" fill="#000000">...</text>
<polygon fill="#ffffff" stroke="transparent" points="404.5,-178.3164 404.5,-197.3164 438.5,-197.3164 438.5,-178.3164 404.5,-178.3164"/>
<polygon fill="none" stroke="#000000" points="404.5,-178.3164 404.5,-197.3164 438.5,-197.3164 438.5,-178.3164 404.5,-178.3164"/>
<text text-anchor="start" x="407.5" y="-184.4164" font-family="Helvetica,sans-Serif" font-size="11.00" fill="#000000">&lt; 12</text>
<polygon fill="#ffffff" stroke="transparent" points="438.5,-178.3164 438.5,-197.3164 453.5,-197.3164 453.5,-178.3164 438.5,-178.3164"/>
<polygon fill="none" stroke="#000000" points="438.5,-178.3164 438.5,-197.3164 453.5,-197.3164 453.5,-178.3164 438.5,-178.3164"/>
<text text-anchor="start" x="444.3862" y="-184.4164" font-family="Helvetica,sans-Serif" font-size="11.00" fill="#000000"> &#160;</text>
<polygon fill="#ffffff" stroke="transparent" points="453.5,-178.3164 453.5,-197.3164 478.5,-197.3164 478.5,-178.3164 453.5,-178.3164"/>
<polygon fill="none" stroke="#000000" points="453.5,-178.3164 453.5,-197.3164 478.5,-197.3164 478.5,-178.3164 453.5,-178.3164"/>
<text text-anchor="start" x="459.9053" y="-184.4164" font-family="Helvetica,sans-Serif" font-size="11.00" fill="#000000">3 &gt;</text>
</a>
</g>
</g>
<!-- emails&#45;&gt;bugs -->
<g id="edge9" class="edge">
<title>emails:w&#45;&gt;bugs:e</title>
<path fill="none" stroke="#000000" d="M389.8821,-206.8168C358.2196,-209.2146 342.6262,-220.6593 321,-250.3164 290.4223,-292.249 332.3975,-480.3164 280.5,-480.3164"/>
<polygon fill="#000000" stroke="#000000" points="396.5047,-206.5901 404.6232,-209.9143 400.5023,-206.4533 404.5,-206.3164 404.5,-206.3164 404.5,-206.3164 400.5023,-206.4533 404.3768,-202.7185 396.5047,-206.5901 396.5047,-206.5901"/>
<ellipse fill="none" stroke="#000000" cx="393.3066" cy="-206.6996" rx="3.2" ry="3.2"/>
</g>
<!-- emails_beans -->
<g id="node10" class="node">
<title>emails_beans</title>
<g id="a_node10"><a xlink:href="../../tables/emails_beans.html" xlink:title="emails_beans" target="_top">
<polygon fill="#ffffff" stroke="transparent" points="603,-238.8164 603,-299.8164 713,-299.8164 713,-238.8164 603,-238.8164"/>
<polygon fill="#f5f5f5" stroke="transparent" points="603,-276.3164 603,-299.3164 713,-299.3164 713,-276.3164 603,-276.3164"/>
<polygon fill="none" stroke="#000000" points="603,-276.3164 603,-299.3164 713,-299.3164 713,-276.3164 603,-276.3164"/>
<text text-anchor="start" x="607.576" y="-285.4164" font-family="Helvetica,sans-Serif" font-weight="bold" font-size="11.00" fill="#000000">emails_beans</text>
<text text-anchor="start" x="678.5219" y="-284.4164" font-family="Helvetica,sans-Serif" font-size="11.00" fill="#000000">[table]</text>
<polygon fill="none" stroke="#000000" points="603,-257.3164 603,-276.3164 713,-276.3164 713,-257.3164 603,-257.3164"/>
<text text-anchor="start" x="606" y="-263.4164" font-family="Helvetica,sans-Serif" font-size="11.00" fill="#000000">...</text>
<polygon fill="#ffffff" stroke="transparent" points="603,-238.3164 603,-257.3164 659,-257.3164 659,-238.3164 603,-238.3164"/>
<polygon fill="none" stroke="#000000" points="603,-238.3164 603,-257.3164 659,-257.3164 659,-238.3164 603,-238.3164"/>
<text text-anchor="start" x="606" y="-244.4164" font-family="Helvetica,sans-Serif" font-size="11.00" fill="#000000">&lt; 14</text>
<polygon fill="#ffffff" stroke="transparent" points="659,-238.3164 659,-257.3164 686,-257.3164 686,-238.3164 659,-238.3164"/>
<polygon fill="none" stroke="#000000" points="659,-238.3164 659,-257.3164 686,-257.3164 686,-238.3164 659,-238.3164"/>
<text text-anchor="start" x="676.8862" y="-244.4164" font-family="Helvetica,sans-Serif" font-size="11.00" fill="#000000"> &#160;</text>
<polygon fill="#ffffff" stroke="transparent" points="686,-238.3164 686,-257.3164 713,-257.3164 713,-238.3164 686,-238.3164"/>
<polygon fill="none" stroke="#000000" points="686,-238.3164 686,-257.3164 713,-257.3164 713,-238.3164 686,-238.3164"/>
<text text-anchor="start" x="703.8862" y="-244.4164" font-family="Helvetica,sans-Serif" font-size="11.00" fill="#000000"> &#160;</text>
</a>
</g>
</g>
<!-- emails_beans&#45;&gt;bugs -->
<g id="edge10" class="edge">
<title>emails_beans:w&#45;&gt;bugs:e</title>
<path fill="none" stroke="#000000" d="M588.6845,-264.5763C534.5406,-249.0659 621.7528,-133.9893 562,-86.3164 478.2719,-19.5151 400.517,-14.554 321,-86.3164 255.6581,-145.2859 368.5169,-480.3164 280.5,-480.3164"/>
<polygon fill="#000000" stroke="#000000" points="595.0585,-265.351 602.5656,-269.8901 599.0292,-265.8337 603,-266.3164 603,-266.3164 603,-266.3164 599.0292,-265.8337 603.4344,-262.7427 595.0585,-265.351 595.0585,-265.351"/>
<ellipse fill="none" stroke="#000000" cx="591.8818" cy="-264.9648" rx="3.2" ry="3.2"/>
</g>
<!-- emails_beans&#45;&gt;emails -->
<g id="edge13" class="edge">
<title>emails_beans:w&#45;&gt;emails:e</title>
<path fill="none" stroke="#000000" d="M588.7539,-263.2585C555.6456,-251.0316 505.013,-206.3164 478.5,-206.3164"/>
<polygon fill="#000000" stroke="#000000" points="595.1782,-264.6374 602.2445,-269.8362 599.0891,-265.4769 603,-266.3164 603,-266.3164 603,-266.3164 599.0891,-265.4769 603.7555,-262.7965 595.1782,-264.6374 595.1782,-264.6374"/>
<ellipse fill="none" stroke="#000000" cx="592.0494" cy="-263.9658" rx="3.2" ry="3.2"/>
</g>
<!-- meetings -->
<g id="node11" class="node">
<title>meetings</title>
<g id="a_node11"><a xlink:href="../../tables/meetings.html" xlink:title="meetings" target="_top">
<polygon fill="#ffffff" stroke="transparent" points="398,-342.8164 398,-403.8164 485,-403.8164 485,-342.8164 398,-342.8164"/>
<polygon fill="#f5f5f5" stroke="transparent" points="398.5,-380.3164 398.5,-403.3164 485.5,-403.3164 485.5,-380.3164 398.5,-380.3164"/>
<polygon fill="none" stroke="#000000" points="398.5,-380.3164 398.5,-403.3164 485.5,-403.3164 485.5,-380.3164 398.5,-380.3164"/>
<text text-anchor="start" x="403.1904" y="-389.4164" font-family="Helvetica,sans-Serif" font-weight="bold" font-size="11.00" fill="#000000">meetings</text>
<text text-anchor="start" x="451.0219" y="-388.4164" font-family="Helvetica,sans-Serif" font-size="11.00" fill="#000000">[table]</text>
<polygon fill="none" stroke="#000000" points="398.5,-361.3164 398.5,-380.3164 485.5,-380.3164 485.5,-361.3164 398.5,-361.3164"/>
<text text-anchor="start" x="401.5" y="-367.4164" font-family="Helvetica,sans-Serif" font-size="11.00" fill="#000000">...</text>
<polygon fill="#ffffff" stroke="transparent" points="398.5,-342.3164 398.5,-361.3164 438.5,-361.3164 438.5,-342.3164 398.5,-342.3164"/>
<polygon fill="none" stroke="#000000" points="398.5,-342.3164 398.5,-361.3164 438.5,-361.3164 438.5,-342.3164 398.5,-342.3164"/>
<text text-anchor="start" x="401.5" y="-348.4164" font-family="Helvetica,sans-Serif" font-size="11.00" fill="#000000">&lt; 13</text>
<polygon fill="#ffffff" stroke="transparent" points="438.5,-342.3164 438.5,-361.3164 457.5,-361.3164 457.5,-342.3164 438.5,-342.3164"/>
<polygon fill="none" stroke="#000000" points="438.5,-342.3164 438.5,-361.3164 457.5,-361.3164 457.5,-342.3164 438.5,-342.3164"/>
<text text-anchor="start" x="448.3862" y="-348.4164" font-family="Helvetica,sans-Serif" font-size="11.00" fill="#000000"> &#160;</text>
<polygon fill="#ffffff" stroke="transparent" points="457.5,-342.3164 457.5,-361.3164 485.5,-361.3164 485.5,-342.3164 457.5,-342.3164"/>
<polygon fill="none" stroke="#000000" points="457.5,-342.3164 457.5,-361.3164 485.5,-361.3164 485.5,-342.3164 457.5,-342.3164"/>
<text text-anchor="start" x="466.9053" y="-348.4164" font-family="Helvetica,sans-Serif" font-size="11.00" fill="#000000">7 &gt;</text>
</a>
</g>
</g>
<!-- emails_beans&#45;&gt;meetings -->
<g id="edge11" class="edge">
<title>emails_beans:w&#45;&gt;meetings:e</title>
<path fill="none" stroke="#000000" d="M589.008,-270.0974C573.8837,-281.055 582.9575,-313.2579 562,-332.3164 533.9134,-357.858 523.4636,-370.3164 485.5,-370.3164"/>
<polygon fill="#000000" stroke="#000000" points="595.277,-268.4034 603.9392,-269.7917 599.1385,-267.3599 603,-266.3164 603,-266.3164 603,-266.3164 599.1385,-267.3599 602.0608,-262.841 595.277,-268.4034 595.277,-268.4034"/>
<ellipse fill="none" stroke="#000000" cx="592.1878" cy="-269.2382" rx="3.2" ry="3.2"/>
</g>
<!-- tasks -->
<g id="node12" class="node">
<title>tasks</title>
<g id="a_node12"><a xlink:href="../../tables/tasks.html" xlink:title="tasks" target="_top">
<polygon fill="#ffffff" stroke="transparent" points="407.5,-260.8164 407.5,-321.8164 475.5,-321.8164 475.5,-260.8164 407.5,-260.8164"/>
<polygon fill="#f5f5f5" stroke="transparent" points="407.5,-298.3164 407.5,-321.3164 475.5,-321.3164 475.5,-298.3164 407.5,-298.3164"/>
<polygon fill="none" stroke="#000000" points="407.5,-298.3164 407.5,-321.3164 475.5,-321.3164 475.5,-298.3164 407.5,-298.3164"/>
<text text-anchor="start" x="412.1641" y="-307.4164" font-family="Helvetica,sans-Serif" font-weight="bold" font-size="11.00" fill="#000000">tasks</text>
<text text-anchor="start" x="441.0219" y="-306.4164" font-family="Helvetica,sans-Serif" font-size="11.00" fill="#000000">[table]</text>
<polygon fill="none" stroke="#000000" points="407.5,-279.3164 407.5,-298.3164 475.5,-298.3164 475.5,-279.3164 407.5,-279.3164"/>
<text text-anchor="start" x="410.5" y="-285.4164" font-family="Helvetica,sans-Serif" font-size="11.00" fill="#000000">...</text>
<polygon fill="#ffffff" stroke="transparent" points="407.5,-260.3164 407.5,-279.3164 438.5,-279.3164 438.5,-260.3164 407.5,-260.3164"/>
<polygon fill="none" stroke="#000000" points="407.5,-260.3164 407.5,-279.3164 438.5,-279.3164 438.5,-260.3164 407.5,-260.3164"/>
<text text-anchor="start" x="410.5" y="-266.4164" font-family="Helvetica,sans-Serif" font-size="11.00" fill="#000000">&lt; 14</text>
<polygon fill="#ffffff" stroke="transparent" points="438.5,-260.3164 438.5,-279.3164 452.5,-279.3164 452.5,-260.3164 438.5,-260.3164"/>
<polygon fill="none" stroke="#000000" points="438.5,-260.3164 438.5,-279.3164 452.5,-279.3164 452.5,-260.3164 438.5,-260.3164"/>
<text text-anchor="start" x="443.3862" y="-266.4164" font-family="Helvetica,sans-Serif" font-size="11.00" fill="#000000"> &#160;</text>
<polygon fill="#ffffff" stroke="transparent" points="452.5,-260.3164 452.5,-279.3164 475.5,-279.3164 475.5,-260.3164 452.5,-260.3164"/>
<polygon fill="none" stroke="#000000" points="452.5,-260.3164 452.5,-279.3164 475.5,-279.3164 475.5,-260.3164 452.5,-260.3164"/>
<text text-anchor="start" x="456.9053" y="-266.4164" font-family="Helvetica,sans-Serif" font-size="11.00" fill="#000000">3 &gt;</text>
</a>
</g>
</g>
<!-- emails_beans&#45;&gt;tasks -->
<g id="edge12" class="edge">
<title>emails_beans:w&#45;&gt;tasks:e</title>
<path fill="none" stroke="#000000" d="M588.5256,-266.8172C542.888,-270.0919 527.8377,-288.3164 475.5,-288.3164"/>
<polygon fill="#000000" stroke="#000000" points="595.0048,-266.5931 603.1245,-269.9142 599.0024,-266.4547 603,-266.3164 603,-266.3164 603,-266.3164 599.0024,-266.4547 602.8755,-262.7185 595.0048,-266.5931 595.0048,-266.5931"/>
<ellipse fill="none" stroke="#000000" cx="591.8067" cy="-266.7037" rx="3.2" ry="3.2"/>
</g>
<!-- meetings&#45;&gt;bugs -->
<g id="edge14" class="edge">
<title>meetings:w&#45;&gt;bugs:e</title>
<path fill="none" stroke="#000000" d="M383.9527,-371.3328C355.4909,-375.7005 346.1417,-393.7736 321,-418.3164 297.4477,-441.3076 313.4137,-480.3164 280.5,-480.3164"/>
<polygon fill="#000000" stroke="#000000" points="390.5195,-370.874 398.7509,-373.9076 394.5097,-370.5952 398.5,-370.3164 398.5,-370.3164 398.5,-370.3164 394.5097,-370.5952 398.2491,-366.7251 390.5195,-370.874 390.5195,-370.874"/>
<ellipse fill="none" stroke="#000000" cx="387.3272" cy="-371.0971" rx="3.2" ry="3.2"/>
</g>
<!-- tasks&#45;&gt;bugs -->
<g id="edge27" class="edge">
<title>tasks:w&#45;&gt;bugs:e</title>
<path fill="none" stroke="#000000" d="M392.9513,-288.8028C360.2997,-291.2097 344.9452,-302.9269 321,-332.3164 277.9243,-385.186 348.6962,-480.3164 280.5,-480.3164"/>
<polygon fill="#000000" stroke="#000000" points="399.5045,-288.5838 407.6203,-291.9144 403.5022,-288.4501 407.5,-288.3164 407.5,-288.3164 407.5,-288.3164 403.5022,-288.4501 407.3797,-284.7184 399.5045,-288.5838 399.5045,-288.5838"/>
<ellipse fill="none" stroke="#000000" cx="396.3063" cy="-288.6907" rx="3.2" ry="3.2"/>
</g>
<!-- notes -->
<g id="node13" class="node">
<title>notes</title>
<g id="a_node13"><a xlink:href="../../tables/notes.html" xlink:title="notes" target="_top">
<polygon fill="#ffffff" stroke="transparent" points="623.5,-380.8164 623.5,-441.8164 692.5,-441.8164 692.5,-380.8164 623.5,-380.8164"/>
<polygon fill="#f5f5f5" stroke="transparent" points="624,-418.3164 624,-441.3164 693,-441.3164 693,-418.3164 624,-418.3164"/>
<polygon fill="none" stroke="#000000" points="624,-418.3164 624,-441.3164 693,-441.3164 693,-418.3164 624,-418.3164"/>
<text text-anchor="start" x="628.5492" y="-427.4164" font-family="Helvetica,sans-Serif" font-weight="bold" font-size="11.00" fill="#000000">notes</text>
<text text-anchor="start" x="658.5219" y="-426.4164" font-family="Helvetica,sans-Serif" font-size="11.00" fill="#000000">[table]</text>
<polygon fill="none" stroke="#000000" points="624,-399.3164 624,-418.3164 693,-418.3164 693,-399.3164 624,-399.3164"/>
<text text-anchor="start" x="627" y="-405.4164" font-family="Helvetica,sans-Serif" font-size="11.00" fill="#000000">...</text>
<polygon fill="#ffffff" stroke="transparent" points="624,-380.3164 624,-399.3164 655,-399.3164 655,-380.3164 624,-380.3164"/>
<polygon fill="none" stroke="#000000" points="624,-380.3164 624,-399.3164 655,-399.3164 655,-380.3164 624,-380.3164"/>
<text text-anchor="start" x="627" y="-386.4164" font-family="Helvetica,sans-Serif" font-size="11.00" fill="#000000">&lt; 19</text>
<polygon fill="#ffffff" stroke="transparent" points="655,-380.3164 655,-399.3164 669,-399.3164 669,-380.3164 655,-380.3164"/>
<polygon fill="none" stroke="#000000" points="655,-380.3164 655,-399.3164 669,-399.3164 669,-380.3164 655,-380.3164"/>
<text text-anchor="start" x="659.8862" y="-386.4164" font-family="Helvetica,sans-Serif" font-size="11.00" fill="#000000"> &#160;</text>
<polygon fill="#ffffff" stroke="transparent" points="669,-380.3164 669,-399.3164 693,-399.3164 693,-380.3164 669,-380.3164"/>
<polygon fill="none" stroke="#000000" points="669,-380.3164 669,-399.3164 693,-399.3164 693,-380.3164 669,-380.3164"/>
<text text-anchor="start" x="674.4053" y="-386.4164" font-family="Helvetica,sans-Serif" font-size="11.00" fill="#000000">1 &gt;</text>
</a>
</g>
</g>
<!-- notes&#45;&gt;bugs -->
<g id="edge15" class="edge">
<title>notes:w&#45;&gt;bugs:e</title>
<path fill="none" stroke="#000000" d="M609.2681,-409.5926C549.1671,-415.4024 327.743,-439.2022 321,-442.3164 298.5917,-452.6653 305.1827,-480.3164 280.5,-480.3164"/>
<polygon fill="#000000" stroke="#000000" points="616.0298,-409.0069 624.3107,-411.9029 620.0149,-408.6616 624,-408.3164 624,-408.3164 624,-408.3164 620.0149,-408.6616 623.6893,-404.7298 616.0298,-409.0069 616.0298,-409.0069"/>
<ellipse fill="none" stroke="#000000" cx="612.8418" cy="-409.2831" rx="3.2" ry="3.2"/>
</g>
<!-- notes&#45;&gt;calls -->
<g id="edge16" class="edge">
<title>notes:w&#45;&gt;calls:e</title>
<path fill="none" stroke="#000000" d="M609.5391,-409.8865C591.1963,-414.355 584.5375,-427.516 562,-438.3164 522.7375,-457.1316 517.038,-480.3164 473.5,-480.3164"/>
<polygon fill="#000000" stroke="#000000" points="616.0467,-409.18 624.3886,-411.8953 620.0234,-408.7482 624,-408.3164 624,-408.3164 624,-408.3164 620.0234,-408.7482 623.6114,-404.7374 616.0467,-409.18 616.0467,-409.18"/>
<ellipse fill="none" stroke="#000000" cx="612.8654" cy="-409.5254" rx="3.2" ry="3.2"/>
</g>
<!-- notes&#45;&gt;emails -->
<g id="edge17" class="edge">
<title>notes:w&#45;&gt;emails:e</title>
<path fill="none" stroke="#000000" d="M609.4002,-406.6946C557.3972,-393.4591 608.5658,-302.3622 562,-250.3164 534.0296,-219.0544 520.4482,-206.3164 478.5,-206.3164"/>
<polygon fill="#000000" stroke="#000000" points="616.0489,-407.4331 623.6025,-411.8944 620.0245,-407.8747 624,-408.3164 624,-408.3164 624,-408.3164 620.0245,-407.8747 624.3975,-404.7384 616.0489,-407.4331 616.0489,-407.4331"/>
<ellipse fill="none" stroke="#000000" cx="612.8685" cy="-407.0798" rx="3.2" ry="3.2"/>
</g>
<!-- notes&#45;&gt;meetings -->
<g id="edge18" class="edge">
<title>notes:w&#45;&gt;meetings:e</title>
<path fill="none" stroke="#000000" d="M609.303,-407.5912C558.0347,-402.3377 544.0943,-370.3164 485.5,-370.3164"/>
<polygon fill="#000000" stroke="#000000" points="616.0097,-407.9221 623.8226,-411.912 620.0049,-408.1192 624,-408.3164 624,-408.3164 624,-408.3164 620.0049,-408.1192 624.1774,-404.7207 616.0097,-407.9221 616.0097,-407.9221"/>
<ellipse fill="none" stroke="#000000" cx="612.8136" cy="-407.7643" rx="3.2" ry="3.2"/>
</g>
<!-- notes&#45;&gt;tasks -->
<g id="edge19" class="edge">
<title>notes:w&#45;&gt;tasks:e</title>
<path fill="none" stroke="#000000" d="M609.5055,-405.9063C583.6603,-395.7718 591.4289,-356.043 562,-332.3164 528.4217,-305.2444 518.6323,-288.3164 475.5,-288.3164"/>
<polygon fill="#000000" stroke="#000000" points="616.1083,-407.0041 623.4095,-411.8676 620.0542,-407.6602 624,-408.3164 624,-408.3164 624,-408.3164 620.0542,-407.6602 624.5905,-404.7651 616.1083,-407.0041 616.1083,-407.0041"/>
<ellipse fill="none" stroke="#000000" cx="612.9517" cy="-406.4792" rx="3.2" ry="3.2"/>
</g>
<!-- projects_bugs -->
<g id="node14" class="node">
<title>projects_bugs</title>
<g id="a_node14"><a xlink:href="../../tables/projects_bugs.html" xlink:title="projects_bugs" target="_top">
<polygon fill="#ffffff" stroke="transparent" points="386,-96.8164 386,-157.8164 497,-157.8164 497,-96.8164 386,-96.8164"/>
<polygon fill="#f5f5f5" stroke="transparent" points="386.5,-134.3164 386.5,-157.3164 497.5,-157.3164 497.5,-134.3164 386.5,-134.3164"/>
<polygon fill="none" stroke="#000000" points="386.5,-134.3164 386.5,-157.3164 497.5,-157.3164 497.5,-134.3164 386.5,-134.3164"/>
<text text-anchor="start" x="391.268" y="-143.4164" font-family="Helvetica,sans-Serif" font-weight="bold" font-size="11.00" fill="#000000">projects_bugs</text>
<text text-anchor="start" x="463.0219" y="-142.4164" font-family="Helvetica,sans-Serif" font-size="11.00" fill="#000000">[table]</text>
<polygon fill="none" stroke="#000000" points="386.5,-115.3164 386.5,-134.3164 497.5,-134.3164 497.5,-115.3164 386.5,-115.3164"/>
<text text-anchor="start" x="389.5" y="-121.4164" font-family="Helvetica,sans-Serif" font-size="11.00" fill="#000000">...</text>
<polygon fill="#ffffff" stroke="transparent" points="386.5,-96.3164 386.5,-115.3164 440.5,-115.3164 440.5,-96.3164 386.5,-96.3164"/>
<polygon fill="none" stroke="#000000" points="386.5,-96.3164 386.5,-115.3164 440.5,-115.3164 440.5,-96.3164 386.5,-96.3164"/>
<text text-anchor="start" x="389.5" y="-102.4164" font-family="Helvetica,sans-Serif" font-size="11.00" fill="#000000">&lt; 2</text>
<polygon fill="#ffffff" stroke="transparent" points="440.5,-96.3164 440.5,-115.3164 468.5,-115.3164 468.5,-96.3164 440.5,-96.3164"/>
<polygon fill="none" stroke="#000000" points="440.5,-96.3164 440.5,-115.3164 468.5,-115.3164 468.5,-96.3164 440.5,-96.3164"/>
<text text-anchor="start" x="459.3862" y="-102.4164" font-family="Helvetica,sans-Serif" font-size="11.00" fill="#000000"> &#160;</text>
<polygon fill="#ffffff" stroke="transparent" points="468.5,-96.3164 468.5,-115.3164 497.5,-115.3164 497.5,-96.3164 468.5,-96.3164"/>
<polygon fill="none" stroke="#000000" points="468.5,-96.3164 468.5,-115.3164 497.5,-115.3164 497.5,-96.3164 468.5,-96.3164"/>
<text text-anchor="start" x="488.3862" y="-102.4164" font-family="Helvetica,sans-Serif" font-size="11.00" fill="#000000"> &#160;</text>
</a>
</g>
</g>
<!-- projects_bugs&#45;&gt;bugs -->
<g id="edge20" class="edge">
<title>projects_bugs:w&#45;&gt;bugs:e</title>
<path fill="none" stroke="#000000" d="M371.9755,-125.3088C347.6313,-128.9996 336.6438,-143.0386 321,-168.3164 284.2073,-227.7673 350.415,-480.3164 280.5,-480.3164"/>
<polygon fill="#000000" stroke="#000000" points="378.5186,-124.8618 386.7454,-127.908 382.5093,-124.5891 386.5,-124.3164 386.5,-124.3164 386.5,-124.3164 382.5093,-124.5891 386.2546,-120.7247 378.5186,-124.8618 378.5186,-124.8618"/>
<ellipse fill="none" stroke="#000000" cx="375.3261" cy="-125.0799" rx="3.2" ry="3.2"/>
</g>
<!-- securitygroups_records -->
<g id="node15" class="node">
<title>securitygroups_records</title>
<g id="a_node15"><a xlink:href="../../tables/securitygroups_records.html" xlink:title="securitygroups_records" target="_top">
<polygon fill="#ffffff" stroke="transparent" points="762,-354.8164 762,-415.8164 919,-415.8164 919,-354.8164 762,-354.8164"/>
<polygon fill="#f5f5f5" stroke="transparent" points="762.5,-392.3164 762.5,-415.3164 919.5,-415.3164 919.5,-392.3164 762.5,-392.3164"/>
<polygon fill="none" stroke="#000000" points="762.5,-392.3164 762.5,-415.3164 919.5,-415.3164 919.5,-392.3164 762.5,-392.3164"/>
<text text-anchor="start" x="767.3528" y="-401.4164" font-family="Helvetica,sans-Serif" font-weight="bold" font-size="11.00" fill="#000000">securitygroups_records</text>
<text text-anchor="start" x="885.0219" y="-400.4164" font-family="Helvetica,sans-Serif" font-size="11.00" fill="#000000">[table]</text>
<polygon fill="none" stroke="#000000" points="762.5,-373.3164 762.5,-392.3164 919.5,-392.3164 919.5,-373.3164 762.5,-373.3164"/>
<text text-anchor="start" x="765.5" y="-379.4164" font-family="Helvetica,sans-Serif" font-size="11.00" fill="#000000">...</text>
<polygon fill="#ffffff" stroke="transparent" points="762.5,-354.3164 762.5,-373.3164 842.5,-373.3164 842.5,-354.3164 762.5,-354.3164"/>
<polygon fill="none" stroke="#000000" points="762.5,-354.3164 762.5,-373.3164 842.5,-373.3164 842.5,-354.3164 762.5,-354.3164"/>
<text text-anchor="start" x="765.5" y="-360.4164" font-family="Helvetica,sans-Serif" font-size="11.00" fill="#000000">&lt; 41</text>
<polygon fill="#ffffff" stroke="transparent" points="842.5,-354.3164 842.5,-373.3164 880.5,-373.3164 880.5,-354.3164 842.5,-354.3164"/>
<polygon fill="none" stroke="#000000" points="842.5,-354.3164 842.5,-373.3164 880.5,-373.3164 880.5,-354.3164 842.5,-354.3164"/>
<text text-anchor="start" x="871.3862" y="-360.4164" font-family="Helvetica,sans-Serif" font-size="11.00" fill="#000000"> &#160;</text>
<polygon fill="#ffffff" stroke="transparent" points="880.5,-354.3164 880.5,-373.3164 919.5,-373.3164 919.5,-354.3164 880.5,-354.3164"/>
<polygon fill="none" stroke="#000000" points="880.5,-354.3164 880.5,-373.3164 919.5,-373.3164 919.5,-354.3164 880.5,-354.3164"/>
<text text-anchor="start" x="910.3862" y="-360.4164" font-family="Helvetica,sans-Serif" font-size="11.00" fill="#000000"> &#160;</text>
</a>
</g>
</g>
<!-- securitygroups_records&#45;&gt;bugs -->
<g id="edge21" class="edge">
<title>securitygroups_records:w&#45;&gt;bugs:e</title>
<path fill="none" stroke="#000000" d="M747.9822,-384.7813C721.0697,-395.973 739.0411,-443.068 721,-480.3164 656.9259,-612.6063 688.4781,-695.4204 562,-770.3164 515.918,-797.6045 361.4036,-805.4695 321,-770.3164 271.9097,-727.6054 345.5699,-480.3164 280.5,-480.3164"/>
<polygon fill="#000000" stroke="#000000" points="754.6129,-383.6555 763.1026,-385.8656 758.5564,-382.9859 762.5,-382.3164 762.5,-382.3164 762.5,-382.3164 758.5564,-382.9859 761.8974,-378.7672 754.6129,-383.6555 754.6129,-383.6555"/>
<ellipse fill="none" stroke="#000000" cx="751.458" cy="-384.1912" rx="3.2" ry="3.2"/>
</g>
<!-- securitygroups_records&#45;&gt;calls -->
<g id="edge22" class="edge">
<title>securitygroups_records:w&#45;&gt;calls:e</title>
<path fill="none" stroke="#000000" d="M748.2552,-386.7237C733.5408,-399.4216 745.9115,-436.2026 721,-452.3164 628.0488,-512.4407 584.2017,-480.3164 473.5,-480.3164"/>
<polygon fill="#000000" stroke="#000000" points="754.8574,-384.681 763.5641,-385.7555 758.6787,-383.4987 762.5,-382.3164 762.5,-382.3164 762.5,-382.3164 758.6787,-383.4987 761.4359,-378.8772 754.8574,-384.681 754.8574,-384.681"/>
<ellipse fill="none" stroke="#000000" cx="751.8004" cy="-385.6269" rx="3.2" ry="3.2"/>
</g>
<!-- securitygroups_records&#45;&gt;emails -->
<g id="edge23" class="edge">
<title>securitygroups_records:w&#45;&gt;emails:e</title>
<path fill="none" stroke="#000000" d="M748.0136,-380.2228C704.4093,-364.9565 770.8102,-270.1877 721,-228.3164 638.1603,-158.6799 586.7204,-206.3164 478.5,-206.3164"/>
<polygon fill="#000000" stroke="#000000" points="754.5823,-381.172 761.9851,-385.8793 758.5411,-381.7442 762.5,-382.3164 762.5,-382.3164 762.5,-382.3164 758.5411,-381.7442 763.0149,-378.7534 754.5823,-381.172 754.5823,-381.172"/>
<ellipse fill="none" stroke="#000000" cx="751.4152" cy="-380.7143" rx="3.2" ry="3.2"/>
</g>
<!-- securitygroups_records&#45;&gt;meetings -->
<g id="edge24" class="edge">
<title>securitygroups_records:w&#45;&gt;meetings:e</title>
<path fill="none" stroke="#000000" d="M748.1959,-380.0756C739.7087,-377.1455 734.0695,-372.168 721,-370.3164 617.3682,-355.6342 590.1667,-370.3164 485.5,-370.3164"/>
<polygon fill="#000000" stroke="#000000" points="754.5964,-381.0782 761.9428,-385.873 758.5482,-381.6973 762.5,-382.3164 762.5,-382.3164 762.5,-382.3164 758.5482,-381.6973 763.0572,-378.7597 754.5964,-381.0782 754.5964,-381.0782"/>
<ellipse fill="none" stroke="#000000" cx="751.4349" cy="-380.583" rx="3.2" ry="3.2"/>
</g>
<!-- securitygroups_records&#45;&gt;tasks -->
<g id="edge26" class="edge">
<title>securitygroups_records:w&#45;&gt;tasks:e</title>
<path fill="none" stroke="#000000" d="M748.3979,-379.2662C739.3718,-374.6691 734.7474,-365.909 721,-360.3164 668.3376,-338.8926 532.3534,-288.3164 475.5,-288.3164"/>
<polygon fill="#000000" stroke="#000000" points="754.6808,-380.6251 761.7389,-385.835 758.5904,-381.4707 762.5,-382.3164 762.5,-382.3164 762.5,-382.3164 758.5904,-381.4707 763.2611,-378.7977 754.6808,-380.6251 754.6808,-380.6251"/>
<ellipse fill="none" stroke="#000000" cx="751.5531" cy="-379.9486" rx="3.2" ry="3.2"/>
</g>
<!-- securitygroups_records&#45;&gt;notes -->
<g id="edge25" class="edge">
<title>securitygroups_records:w&#45;&gt;notes:e</title>
<path fill="none" stroke="#000000" d="M748.0941,-384.2706C727.5003,-390.3172 720.4401,-408.3164 693,-408.3164"/>
<polygon fill="#000000" stroke="#000000" points="754.5726,-383.3918 762.9839,-385.8837 758.5363,-382.8541 762.5,-382.3164 762.5,-382.3164 762.5,-382.3164 758.5363,-382.8541 762.0161,-378.749 754.5726,-383.3918 754.5726,-383.3918"/>
<ellipse fill="none" stroke="#000000" cx="751.4017" cy="-383.822" rx="3.2" ry="3.2"/>
</g>
</g>
</svg>
