<?xml version="1.0" encoding="UTF-8" standalone="no"?>
<!DOCTYPE svg PUBLIC "-//W3C//DTD SVG 1.1//EN"
 "http://www.w3.org/Graphics/SVG/1.1/DTD/svg11.dtd">
<!-- Generated by graphviz version 2.40.1 (20161225.0304)
 -->
<!-- Title: oneDegreeRelationshipsDiagram Pages: 1 -->
<svg width="437pt" height="316pt"
 viewBox="0.00 0.00 437.00 316.20" xmlns="http://www.w3.org/2000/svg" xmlns:xlink="http://www.w3.org/1999/xlink">
<g id="graph0" class="graph" transform="scale(1 1) rotate(0) translate(4 312.2)">
<title>oneDegreeRelationshipsDiagram</title>
<polygon fill="#ffffff" stroke="transparent" points="-4,4 -4,-312.2 433,-312.2 433,4 -4,4"/>
<text text-anchor="middle" x="72.4936" y="-7.3" font-family="Helvetica,sans-Serif" font-size="11.00" fill="#000000">Generated by SchemaSpy</text>
<!-- bugs_audit -->
<g id="node1" class="node">
<title>bugs_audit</title>
<g id="a_node1"><a xlink:href="../../tables/bugs_audit.html" xlink:title="bugs_audit" target="_top">
<polygon fill="#ffffff" stroke="transparent" points="196,-38.2 196,-304.2 421,-304.2 421,-38.2 196,-38.2"/>
<polygon fill="#f5f5f5" stroke="transparent" points="198.5,-279.2 198.5,-302.2 419.5,-302.2 419.5,-279.2 198.5,-279.2"/>
<polygon fill="none" stroke="#000000" points="198.5,-279.2 198.5,-302.2 419.5,-302.2 419.5,-279.2 198.5,-279.2"/>
<text text-anchor="start" x="203.5" y="-288.3" font-family="Helvetica,sans-Serif" font-weight="bold" font-size="11.00" fill="#000000">bugs_audit</text>
<text text-anchor="start" x="384.5437" y="-287.3" font-family="Helvetica,sans-Serif" font-size="11.00" fill="#000000">[table]</text>
<polygon fill="none" stroke="#000000" points="198.5,-257.2 198.5,-279.2 352.5,-279.2 352.5,-257.2 198.5,-257.2"/>
<image xlink:href="../../images/primaryKeys.png" width="11px" height="12px" preserveAspectRatio="xMinYMin meet" x="203.5" y="-274.2"/>
<text text-anchor="start" x="218.5" y="-264.3" font-family="Helvetica,sans-Serif" font-size="11.00" fill="#000000">id</text>
<polygon fill="none" stroke="#000000" points="352.5,-257.2 352.5,-279.2 419.5,-279.2 419.5,-257.2 352.5,-257.2"/>
<text text-anchor="start" x="355.5" y="-264.9" font-family="Helvetica,sans-Serif" font-size="11.00" fill="#000000">char[36]</text>
<polygon fill="#ffffff" stroke="transparent" points="198.5,-235.2 198.5,-257.2 352.5,-257.2 352.5,-235.2 198.5,-235.2"/>
<polygon fill="none" stroke="#000000" points="198.5,-235.2 198.5,-257.2 352.5,-257.2 352.5,-235.2 198.5,-235.2"/>
<image xlink:href="../../images/foreignKeys.png" width="11px" height="12px" preserveAspectRatio="xMinYMin meet" x="203.5" y="-252.2"/>
<text text-anchor="start" x="218.5" y="-242.3" font-family="Helvetica,sans-Serif" font-size="11.00" fill="#000000">parent_id</text>
<polygon fill="none" stroke="#000000" points="352.5,-235.2 352.5,-257.2 419.5,-257.2 419.5,-235.2 352.5,-235.2"/>
<text text-anchor="start" x="355.5" y="-242.9" font-family="Helvetica,sans-Serif" font-size="11.00" fill="#000000">char[36]</text>
<polygon fill="none" stroke="#000000" points="198.5,-213.2 198.5,-235.2 352.5,-235.2 352.5,-213.2 198.5,-213.2"/>
<text text-anchor="start" x="218.5" y="-220.3" font-family="Helvetica,sans-Serif" font-size="11.00" fill="#000000">date_created</text>
<polygon fill="none" stroke="#000000" points="352.5,-213.2 352.5,-235.2 419.5,-235.2 419.5,-213.2 352.5,-213.2"/>
<text text-anchor="start" x="355.5" y="-220.9" font-family="Helvetica,sans-Serif" font-size="11.00" fill="#000000">datetime[26]</text>
<polygon fill="none" stroke="#000000" points="198.5,-191.2 198.5,-213.2 352.5,-213.2 352.5,-191.2 198.5,-191.2"/>
<text text-anchor="start" x="218.5" y="-198.3" font-family="Helvetica,sans-Serif" font-size="11.00" fill="#000000">created_by</text>
<polygon fill="none" stroke="#000000" points="352.5,-191.2 352.5,-213.2 419.5,-213.2 419.5,-191.2 352.5,-191.2"/>
<text text-anchor="start" x="355.5" y="-198.9" font-family="Helvetica,sans-Serif" font-size="11.00" fill="#000000">varchar[36]</text>
<polygon fill="none" stroke="#000000" points="198.5,-169.2 198.5,-191.2 352.5,-191.2 352.5,-169.2 198.5,-169.2"/>
<text text-anchor="start" x="218.5" y="-176.3" font-family="Helvetica,sans-Serif" font-size="11.00" fill="#000000">field_name</text>
<polygon fill="none" stroke="#000000" points="352.5,-169.2 352.5,-191.2 419.5,-191.2 419.5,-169.2 352.5,-169.2"/>
<text text-anchor="start" x="355.4365" y="-176.9" font-family="Helvetica,sans-Serif" font-size="11.00" fill="#000000">varchar[100]</text>
<polygon fill="none" stroke="#000000" points="198.5,-147.2 198.5,-169.2 352.5,-169.2 352.5,-147.2 198.5,-147.2"/>
<text text-anchor="start" x="218.5" y="-154.3" font-family="Helvetica,sans-Serif" font-size="11.00" fill="#000000">data_type</text>
<polygon fill="none" stroke="#000000" points="352.5,-147.2 352.5,-169.2 419.5,-169.2 419.5,-147.2 352.5,-147.2"/>
<text text-anchor="start" x="355.4365" y="-154.9" font-family="Helvetica,sans-Serif" font-size="11.00" fill="#000000">varchar[100]</text>
<polygon fill="none" stroke="#000000" points="198.5,-125.2 198.5,-147.2 352.5,-147.2 352.5,-125.2 198.5,-125.2"/>
<text text-anchor="start" x="218.5" y="-132.3" font-family="Helvetica,sans-Serif" font-size="11.00" fill="#000000">before_value_string</text>
<polygon fill="none" stroke="#000000" points="352.5,-125.2 352.5,-147.2 419.5,-147.2 419.5,-125.2 352.5,-125.2"/>
<text text-anchor="start" x="355.4365" y="-132.9" font-family="Helvetica,sans-Serif" font-size="11.00" fill="#000000">varchar[255]</text>
<polygon fill="none" stroke="#000000" points="198.5,-103.2 198.5,-125.2 352.5,-125.2 352.5,-103.2 198.5,-103.2"/>
<text text-anchor="start" x="218.5" y="-110.3" font-family="Helvetica,sans-Serif" font-size="11.00" fill="#000000">after_value_string</text>
<polygon fill="none" stroke="#000000" points="352.5,-103.2 352.5,-125.2 419.5,-125.2 419.5,-103.2 352.5,-103.2"/>
<text text-anchor="start" x="355.4365" y="-110.9" font-family="Helvetica,sans-Serif" font-size="11.00" fill="#000000">varchar[255]</text>
<polygon fill="none" stroke="#000000" points="198.5,-81.2 198.5,-103.2 352.5,-103.2 352.5,-81.2 198.5,-81.2"/>
<text text-anchor="start" x="218.5" y="-88.3" font-family="Helvetica,sans-Serif" font-size="11.00" fill="#000000">before_value_text</text>
<polygon fill="none" stroke="#000000" points="352.5,-81.2 352.5,-103.2 419.5,-103.2 419.5,-81.2 352.5,-81.2"/>
<text text-anchor="start" x="355.5" y="-88.9" font-family="Helvetica,sans-Serif" font-size="11.00" fill="#000000">text[65535]</text>
<polygon fill="none" stroke="#000000" points="198.5,-59.2 198.5,-81.2 352.5,-81.2 352.5,-59.2 198.5,-59.2"/>
<text text-anchor="start" x="218.5" y="-66.3" font-family="Helvetica,sans-Serif" font-size="11.00" fill="#000000">after_value_text</text>
<polygon fill="none" stroke="#000000" points="352.5,-59.2 352.5,-81.2 419.5,-81.2 419.5,-59.2 352.5,-59.2"/>
<text text-anchor="start" x="355.5" y="-66.9" font-family="Helvetica,sans-Serif" font-size="11.00" fill="#000000">text[65535]</text>
<polygon fill="#ffffff" stroke="transparent" points="198.5,-40.2 198.5,-59.2 279.5,-59.2 279.5,-40.2 198.5,-40.2"/>
<polygon fill="none" stroke="#000000" points="198.5,-40.2 198.5,-59.2 279.5,-59.2 279.5,-40.2 198.5,-40.2"/>
<text text-anchor="start" x="201.5" y="-46.3" font-family="Helvetica,sans-Serif" font-size="11.00" fill="#000000">&lt; 1</text>
<polygon fill="#ffffff" stroke="transparent" points="279.5,-40.2 279.5,-59.2 352.5,-59.2 352.5,-40.2 279.5,-40.2"/>
<polygon fill="none" stroke="#000000" points="279.5,-40.2 279.5,-59.2 352.5,-59.2 352.5,-40.2 279.5,-40.2"/>
<text text-anchor="start" x="343.3862" y="-46.3" font-family="Helvetica,sans-Serif" font-size="11.00" fill="#000000"> &#160;</text>
<polygon fill="#ffffff" stroke="transparent" points="352.5,-40.2 352.5,-59.2 419.5,-59.2 419.5,-40.2 352.5,-40.2"/>
<polygon fill="none" stroke="#000000" points="352.5,-40.2 352.5,-59.2 419.5,-59.2 419.5,-40.2 352.5,-40.2"/>
<text text-anchor="start" x="400.9053" y="-46.3" font-family="Helvetica,sans-Serif" font-size="11.00" fill="#000000">0 &gt;</text>
<polygon fill="none" stroke="#000000" stroke-width="2" points="197,-39.2 197,-303.2 420,-303.2 420,-39.2 197,-39.2"/>
</a>
</g>
</g>
<!-- bugs -->
<g id="node2" class="node">
<title>bugs</title>
<g id="a_node2"><a xlink:href="../../tables/bugs.html" xlink:title="bugs" target="_top">
<polygon fill="#ffffff" stroke="transparent" points="8,-43.7 8,-280.7 147,-280.7 147,-43.7 8,-43.7"/>
<polygon fill="#f5f5f5" stroke="transparent" points="8.5,-257.2 8.5,-280.2 147.5,-280.2 147.5,-257.2 8.5,-257.2"/>
<polygon fill="none" stroke="#000000" points="8.5,-257.2 8.5,-280.2 147.5,-280.2 147.5,-257.2 8.5,-257.2"/>
<text text-anchor="start" x="13.5" y="-266.3" font-family="Helvetica,sans-Serif" font-weight="bold" font-size="11.00" fill="#000000">bugs</text>
<text text-anchor="start" x="112.5437" y="-265.3" font-family="Helvetica,sans-Serif" font-size="11.00" fill="#000000">[table]</text>
<polygon fill="none" stroke="#000000" points="8.5,-235.2 8.5,-257.2 147.5,-257.2 147.5,-235.2 8.5,-235.2"/>
<image xlink:href="../../images/primaryKeys.png" width="11px" height="12px" preserveAspectRatio="xMinYMin meet" x="13.5" y="-252.2"/>
<text text-anchor="start" x="28.5" y="-242.3" font-family="Helvetica,sans-Serif" font-size="11.00" fill="#000000">id</text>
<polygon fill="#ffffff" stroke="transparent" points="8.5,-213.2 8.5,-235.2 147.5,-235.2 147.5,-213.2 8.5,-213.2"/>
<polygon fill="none" stroke="#000000" points="8.5,-213.2 8.5,-235.2 147.5,-235.2 147.5,-213.2 8.5,-213.2"/>
<text text-anchor="start" x="28.5" y="-220.3" font-family="Helvetica,sans-Serif" font-size="11.00" fill="#000000">name</text>
<polygon fill="#c0c0c0" stroke="transparent" points="8.5,-191.2 8.5,-213.2 147.5,-213.2 147.5,-191.2 8.5,-191.2"/>
<polygon fill="none" stroke="#000000" points="8.5,-191.2 8.5,-213.2 147.5,-213.2 147.5,-191.2 8.5,-191.2"/>
<image xlink:href="../../images/foreignKeys.png" width="11px" height="12px" preserveAspectRatio="xMinYMin meet" x="13.5" y="-208.2"/>
<text text-anchor="start" x="28.5" y="-198.3" font-family="Helvetica,sans-Serif" font-size="11.00" fill="#000000">modified_user_id</text>
<polygon fill="#c0c0c0" stroke="transparent" points="8.5,-169.2 8.5,-191.2 147.5,-191.2 147.5,-169.2 8.5,-169.2"/>
<polygon fill="none" stroke="#000000" points="8.5,-169.2 8.5,-191.2 147.5,-191.2 147.5,-169.2 8.5,-169.2"/>
<image xlink:href="../../images/foreignKeys.png" width="11px" height="12px" preserveAspectRatio="xMinYMin meet" x="13.5" y="-186.2"/>
<text text-anchor="start" x="28.5" y="-176.3" font-family="Helvetica,sans-Serif" font-size="11.00" fill="#000000">created_by</text>
<polygon fill="#c0c0c0" stroke="transparent" points="8.5,-147.2 8.5,-169.2 147.5,-169.2 147.5,-147.2 8.5,-147.2"/>
<polygon fill="none" stroke="#000000" points="8.5,-147.2 8.5,-169.2 147.5,-169.2 147.5,-147.2 8.5,-147.2"/>
<image xlink:href="../../images/foreignKeys.png" width="11px" height="12px" preserveAspectRatio="xMinYMin meet" x="13.5" y="-164.2"/>
<text text-anchor="start" x="28.5" y="-154.3" font-family="Helvetica,sans-Serif" font-size="11.00" fill="#000000">assigned_user_id</text>
<polygon fill="#ffffff" stroke="transparent" points="8.5,-125.2 8.5,-147.2 147.5,-147.2 147.5,-125.2 8.5,-125.2"/>
<polygon fill="none" stroke="#000000" points="8.5,-125.2 8.5,-147.2 147.5,-147.2 147.5,-125.2 8.5,-125.2"/>
<text text-anchor="start" x="28.5" y="-132.3" font-family="Helvetica,sans-Serif" font-size="11.00" fill="#000000">bug_number</text>
<polygon fill="none" stroke="#000000" points="8.5,-103.2 8.5,-125.2 147.5,-125.2 147.5,-103.2 8.5,-103.2"/>
<image xlink:href="../../images/foreignKeys.png" width="11px" height="12px" preserveAspectRatio="xMinYMin meet" x="13.5" y="-120.2"/>
<text text-anchor="start" x="28.5" y="-110.3" font-family="Helvetica,sans-Serif" font-size="11.00" fill="#000000">found_in_release</text>
<polygon fill="none" stroke="#000000" points="8.5,-81.2 8.5,-103.2 147.5,-103.2 147.5,-81.2 8.5,-81.2"/>
<image xlink:href="../../images/foreignKeys.png" width="11px" height="12px" preserveAspectRatio="xMinYMin meet" x="13.5" y="-98.2"/>
<text text-anchor="start" x="28.5" y="-88.3" font-family="Helvetica,sans-Serif" font-size="11.00" fill="#000000">fixed_in_release</text>
<polygon fill="none" stroke="#000000" points="8.5,-62.2 8.5,-81.2 147.5,-81.2 147.5,-62.2 8.5,-62.2"/>
<text text-anchor="start" x="11.5" y="-68.3" font-family="Helvetica,sans-Serif" font-size="11.00" fill="#000000">...</text>
<polygon fill="#ffffff" stroke="transparent" points="8.5,-43.2 8.5,-62.2 68.5,-62.2 68.5,-43.2 8.5,-43.2"/>
<polygon fill="none" stroke="#000000" points="8.5,-43.2 8.5,-62.2 68.5,-62.2 68.5,-43.2 8.5,-43.2"/>
<text text-anchor="start" x="11.5" y="-49.3" font-family="Helvetica,sans-Serif" font-size="11.00" fill="#000000">&lt; 5</text>
<polygon fill="#ffffff" stroke="transparent" points="68.5,-43.2 68.5,-62.2 100.5,-62.2 100.5,-43.2 68.5,-43.2"/>
<polygon fill="none" stroke="#000000" points="68.5,-43.2 68.5,-62.2 100.5,-62.2 100.5,-43.2 68.5,-43.2"/>
<text text-anchor="start" x="91.3862" y="-49.3" font-family="Helvetica,sans-Serif" font-size="11.00" fill="#000000"> &#160;</text>
<polygon fill="#ffffff" stroke="transparent" points="100.5,-43.2 100.5,-62.2 147.5,-62.2 147.5,-43.2 100.5,-43.2"/>
<polygon fill="none" stroke="#000000" points="100.5,-43.2 100.5,-62.2 147.5,-62.2 147.5,-43.2 100.5,-43.2"/>
<text text-anchor="start" x="122.7904" y="-49.3" font-family="Helvetica,sans-Serif" font-size="11.00" fill="#000000">13 &gt;</text>
</a>
</g>
</g>
<!-- bugs_audit&#45;&gt;bugs -->
<g id="edge1" class="edge">
<title>bugs_audit:w&#45;&gt;bugs:e</title>
<path fill="none" stroke="#000000" d="M183.776,-246.2C171.7815,-246.2 164.3229,-246.2 147.5,-246.2"/>
<polygon fill="#000000" stroke="#000000" points="190.5,-246.2001 198.5,-249.8 194.5,-246.2 198.5,-246.2 198.5,-246.2 198.5,-246.2 194.5,-246.2 198.5,-242.6 190.5,-246.2001 190.5,-246.2001"/>
<ellipse fill="none" stroke="#000000" cx="187.3" cy="-246.2001" rx="3.2" ry="3.2"/>
</g>
</g>
</svg>
