<?xml version="1.0" encoding="UTF-8" standalone="no"?>
<!DOCTYPE svg PUBLIC "-//W3C//DTD SVG 1.1//EN"
 "http://www.w3.org/Graphics/SVG/1.1/DTD/svg11.dtd">
<!-- Generated by graphviz version 2.40.1 (20161225.0304)
 -->
<!-- Title: twoDegreesRelationshipsDiagram Pages: 1 -->
<svg width="565pt" height="316pt"
 viewBox="0.00 0.00 565.00 316.20" xmlns="http://www.w3.org/2000/svg" xmlns:xlink="http://www.w3.org/1999/xlink">
<g id="graph0" class="graph" transform="scale(1 1) rotate(0) translate(4 312.2)">
<title>twoDegreesRelationshipsDiagram</title>
<polygon fill="#ffffff" stroke="transparent" points="-4,4 -4,-312.2 561,-312.2 561,4 -4,4"/>
<text text-anchor="middle" x="72.4936" y="-7.3" font-family="Helvetica,sans-Serif" font-size="11.00" fill="#000000">Generated by SchemaSpy</text>
<!-- calls_reschedule -->
<g id="node1" class="node">
<title>calls_reschedule</title>
<g id="a_node1"><a xlink:href="../../tables/calls_reschedule.html" xlink:title="calls_reschedule" target="_top">
<polygon fill="#ffffff" stroke="transparent" points="121,-109.7 121,-280.7 256,-280.7 256,-109.7 121,-109.7"/>
<polygon fill="#f5f5f5" stroke="transparent" points="121.5,-257.2 121.5,-280.2 256.5,-280.2 256.5,-257.2 121.5,-257.2"/>
<polygon fill="none" stroke="#000000" points="121.5,-257.2 121.5,-280.2 256.5,-280.2 256.5,-257.2 121.5,-257.2"/>
<text text-anchor="start" x="126.5" y="-266.3" font-family="Helvetica,sans-Serif" font-weight="bold" font-size="11.00" fill="#000000">calls_reschedule</text>
<text text-anchor="start" x="221.5437" y="-265.3" font-family="Helvetica,sans-Serif" font-size="11.00" fill="#000000">[table]</text>
<polygon fill="none" stroke="#000000" points="121.5,-235.2 121.5,-257.2 256.5,-257.2 256.5,-235.2 121.5,-235.2"/>
<image xlink:href="../../images/primaryKeys.png" width="11px" height="12px" preserveAspectRatio="xMinYMin meet" x="126.5" y="-252.2"/>
<text text-anchor="start" x="141.5" y="-242.3" font-family="Helvetica,sans-Serif" font-size="11.00" fill="#000000">id</text>
<polygon fill="#c0c0c0" stroke="transparent" points="121.5,-213.2 121.5,-235.2 256.5,-235.2 256.5,-213.2 121.5,-213.2"/>
<polygon fill="none" stroke="#000000" points="121.5,-213.2 121.5,-235.2 256.5,-235.2 256.5,-213.2 121.5,-213.2"/>
<image xlink:href="../../images/foreignKeys.png" width="11px" height="12px" preserveAspectRatio="xMinYMin meet" x="126.5" y="-230.2"/>
<text text-anchor="start" x="141.5" y="-220.3" font-family="Helvetica,sans-Serif" font-size="11.00" fill="#000000">modified_user_id</text>
<polygon fill="#c0c0c0" stroke="transparent" points="121.5,-191.2 121.5,-213.2 256.5,-213.2 256.5,-191.2 121.5,-191.2"/>
<polygon fill="none" stroke="#000000" points="121.5,-191.2 121.5,-213.2 256.5,-213.2 256.5,-191.2 121.5,-191.2"/>
<image xlink:href="../../images/foreignKeys.png" width="11px" height="12px" preserveAspectRatio="xMinYMin meet" x="126.5" y="-208.2"/>
<text text-anchor="start" x="141.5" y="-198.3" font-family="Helvetica,sans-Serif" font-size="11.00" fill="#000000">created_by</text>
<polygon fill="#c0c0c0" stroke="transparent" points="121.5,-169.2 121.5,-191.2 256.5,-191.2 256.5,-169.2 121.5,-169.2"/>
<polygon fill="none" stroke="#000000" points="121.5,-169.2 121.5,-191.2 256.5,-191.2 256.5,-169.2 121.5,-169.2"/>
<image xlink:href="../../images/foreignKeys.png" width="11px" height="12px" preserveAspectRatio="xMinYMin meet" x="126.5" y="-186.2"/>
<text text-anchor="start" x="141.5" y="-176.3" font-family="Helvetica,sans-Serif" font-size="11.00" fill="#000000">assigned_user_id</text>
<polygon fill="none" stroke="#000000" points="121.5,-147.2 121.5,-169.2 256.5,-169.2 256.5,-147.2 121.5,-147.2"/>
<image xlink:href="../../images/foreignKeys.png" width="11px" height="12px" preserveAspectRatio="xMinYMin meet" x="126.5" y="-164.2"/>
<text text-anchor="start" x="141.5" y="-154.3" font-family="Helvetica,sans-Serif" font-size="11.00" fill="#000000">call_id</text>
<polygon fill="none" stroke="#000000" points="121.5,-128.2 121.5,-147.2 256.5,-147.2 256.5,-128.2 121.5,-128.2"/>
<text text-anchor="start" x="124.5" y="-134.3" font-family="Helvetica,sans-Serif" font-size="11.00" fill="#000000">...</text>
<polygon fill="#ffffff" stroke="transparent" points="121.5,-109.2 121.5,-128.2 182.5,-128.2 182.5,-109.2 121.5,-109.2"/>
<polygon fill="none" stroke="#000000" points="121.5,-109.2 121.5,-128.2 182.5,-128.2 182.5,-109.2 121.5,-109.2"/>
<text text-anchor="start" x="124.5" y="-115.3" font-family="Helvetica,sans-Serif" font-size="11.00" fill="#000000">&lt; 4</text>
<polygon fill="#ffffff" stroke="transparent" points="182.5,-109.2 182.5,-128.2 214.5,-128.2 214.5,-109.2 182.5,-109.2"/>
<polygon fill="none" stroke="#000000" points="182.5,-109.2 182.5,-128.2 214.5,-128.2 214.5,-109.2 182.5,-109.2"/>
<text text-anchor="start" x="205.3862" y="-115.3" font-family="Helvetica,sans-Serif" font-size="11.00" fill="#000000"> &#160;</text>
<polygon fill="#ffffff" stroke="transparent" points="214.5,-109.2 214.5,-128.2 256.5,-128.2 256.5,-109.2 214.5,-109.2"/>
<polygon fill="none" stroke="#000000" points="214.5,-109.2 214.5,-128.2 256.5,-128.2 256.5,-109.2 214.5,-109.2"/>
<text text-anchor="start" x="237.9053" y="-115.3" font-family="Helvetica,sans-Serif" font-size="11.00" fill="#000000">1 &gt;</text>
</a>
</g>
</g>
<!-- calls -->
<g id="node2" class="node">
<title>calls</title>
<g id="a_node2"><a xlink:href="../../tables/calls.html" xlink:title="calls" target="_top">
<polygon fill="#ffffff" stroke="transparent" points="8,-130.7 8,-191.7 72,-191.7 72,-130.7 8,-130.7"/>
<polygon fill="#f5f5f5" stroke="transparent" points="8,-168.2 8,-191.2 72,-191.2 72,-168.2 8,-168.2"/>
<polygon fill="none" stroke="#000000" points="8,-168.2 8,-191.2 72,-191.2 72,-168.2 8,-168.2"/>
<text text-anchor="start" x="12.5017" y="-177.3" font-family="Helvetica,sans-Serif" font-weight="bold" font-size="11.00" fill="#000000">calls</text>
<text text-anchor="start" x="37.5219" y="-176.3" font-family="Helvetica,sans-Serif" font-size="11.00" fill="#000000">[table]</text>
<polygon fill="none" stroke="#000000" points="8,-149.2 8,-168.2 72,-168.2 72,-149.2 8,-149.2"/>
<text text-anchor="start" x="11" y="-155.3" font-family="Helvetica,sans-Serif" font-size="11.00" fill="#000000">...</text>
<polygon fill="#ffffff" stroke="transparent" points="8,-130.2 8,-149.2 37,-149.2 37,-130.2 8,-130.2"/>
<polygon fill="none" stroke="#000000" points="8,-130.2 8,-149.2 37,-149.2 37,-130.2 8,-130.2"/>
<text text-anchor="start" x="11" y="-136.3" font-family="Helvetica,sans-Serif" font-size="11.00" fill="#000000">&lt; 12</text>
<polygon fill="#ffffff" stroke="transparent" points="37,-130.2 37,-149.2 50,-149.2 50,-130.2 37,-130.2"/>
<polygon fill="none" stroke="#000000" points="37,-130.2 37,-149.2 50,-149.2 50,-130.2 37,-130.2"/>
<text text-anchor="start" x="40.8862" y="-136.3" font-family="Helvetica,sans-Serif" font-size="11.00" fill="#000000"> &#160;</text>
<polygon fill="#ffffff" stroke="transparent" points="50,-130.2 50,-149.2 72,-149.2 72,-130.2 50,-130.2"/>
<polygon fill="none" stroke="#000000" points="50,-130.2 50,-149.2 72,-149.2 72,-130.2 50,-130.2"/>
<text text-anchor="start" x="53.4053" y="-136.3" font-family="Helvetica,sans-Serif" font-size="11.00" fill="#000000">6 &gt;</text>
</a>
</g>
</g>
<!-- calls_reschedule&#45;&gt;calls -->
<g id="edge1" class="edge">
<title>calls_reschedule:w&#45;&gt;calls:e</title>
<path fill="none" stroke="#000000" d="M106.8428,-158.2C95.4139,-158.2 88.1563,-158.2 72,-158.2"/>
<polygon fill="#000000" stroke="#000000" points="113.5,-158.2001 121.5,-161.8 117.5,-158.2 121.5,-158.2 121.5,-158.2 121.5,-158.2 117.5,-158.2 121.5,-154.6 113.5,-158.2001 113.5,-158.2001"/>
<ellipse fill="none" stroke="#000000" cx="110.3" cy="-158.2001" rx="3.2" ry="3.2"/>
</g>
<!-- calls_reschedule_audit -->
<g id="node3" class="node">
<title>calls_reschedule_audit</title>
<g id="a_node3"><a xlink:href="../../tables/calls_reschedule_audit.html" xlink:title="calls_reschedule_audit" target="_top">
<polygon fill="#ffffff" stroke="transparent" points="305,-38.2 305,-304.2 549,-304.2 549,-38.2 305,-38.2"/>
<polygon fill="#f5f5f5" stroke="transparent" points="307,-279.2 307,-302.2 547,-302.2 547,-279.2 307,-279.2"/>
<polygon fill="none" stroke="#000000" points="307,-279.2 307,-302.2 547,-302.2 547,-279.2 307,-279.2"/>
<text text-anchor="start" x="312" y="-288.3" font-family="Helvetica,sans-Serif" font-weight="bold" font-size="11.00" fill="#000000">calls_reschedule_audit</text>
<text text-anchor="start" x="512.0437" y="-287.3" font-family="Helvetica,sans-Serif" font-size="11.00" fill="#000000">[table]</text>
<polygon fill="none" stroke="#000000" points="307,-257.2 307,-279.2 480,-279.2 480,-257.2 307,-257.2"/>
<image xlink:href="../../images/primaryKeys.png" width="11px" height="12px" preserveAspectRatio="xMinYMin meet" x="312" y="-274.2"/>
<text text-anchor="start" x="327" y="-264.3" font-family="Helvetica,sans-Serif" font-size="11.00" fill="#000000">id</text>
<polygon fill="none" stroke="#000000" points="480,-257.2 480,-279.2 547,-279.2 547,-257.2 480,-257.2"/>
<text text-anchor="start" x="483" y="-264.9" font-family="Helvetica,sans-Serif" font-size="11.00" fill="#000000">char[36]</text>
<polygon fill="#ffffff" stroke="transparent" points="307,-235.2 307,-257.2 480,-257.2 480,-235.2 307,-235.2"/>
<polygon fill="none" stroke="#000000" points="307,-235.2 307,-257.2 480,-257.2 480,-235.2 307,-235.2"/>
<image xlink:href="../../images/foreignKeys.png" width="11px" height="12px" preserveAspectRatio="xMinYMin meet" x="312" y="-252.2"/>
<text text-anchor="start" x="327" y="-242.3" font-family="Helvetica,sans-Serif" font-size="11.00" fill="#000000">parent_id</text>
<polygon fill="none" stroke="#000000" points="480,-235.2 480,-257.2 547,-257.2 547,-235.2 480,-235.2"/>
<text text-anchor="start" x="483" y="-242.9" font-family="Helvetica,sans-Serif" font-size="11.00" fill="#000000">char[36]</text>
<polygon fill="none" stroke="#000000" points="307,-213.2 307,-235.2 480,-235.2 480,-213.2 307,-213.2"/>
<text text-anchor="start" x="327" y="-220.3" font-family="Helvetica,sans-Serif" font-size="11.00" fill="#000000">date_created</text>
<polygon fill="none" stroke="#000000" points="480,-213.2 480,-235.2 547,-235.2 547,-213.2 480,-213.2"/>
<text text-anchor="start" x="483" y="-220.9" font-family="Helvetica,sans-Serif" font-size="11.00" fill="#000000">datetime[26]</text>
<polygon fill="none" stroke="#000000" points="307,-191.2 307,-213.2 480,-213.2 480,-191.2 307,-191.2"/>
<text text-anchor="start" x="327" y="-198.3" font-family="Helvetica,sans-Serif" font-size="11.00" fill="#000000">created_by</text>
<polygon fill="none" stroke="#000000" points="480,-191.2 480,-213.2 547,-213.2 547,-191.2 480,-191.2"/>
<text text-anchor="start" x="483" y="-198.9" font-family="Helvetica,sans-Serif" font-size="11.00" fill="#000000">varchar[36]</text>
<polygon fill="none" stroke="#000000" points="307,-169.2 307,-191.2 480,-191.2 480,-169.2 307,-169.2"/>
<text text-anchor="start" x="327" y="-176.3" font-family="Helvetica,sans-Serif" font-size="11.00" fill="#000000">field_name</text>
<polygon fill="none" stroke="#000000" points="480,-169.2 480,-191.2 547,-191.2 547,-169.2 480,-169.2"/>
<text text-anchor="start" x="482.9365" y="-176.9" font-family="Helvetica,sans-Serif" font-size="11.00" fill="#000000">varchar[100]</text>
<polygon fill="none" stroke="#000000" points="307,-147.2 307,-169.2 480,-169.2 480,-147.2 307,-147.2"/>
<text text-anchor="start" x="327" y="-154.3" font-family="Helvetica,sans-Serif" font-size="11.00" fill="#000000">data_type</text>
<polygon fill="none" stroke="#000000" points="480,-147.2 480,-169.2 547,-169.2 547,-147.2 480,-147.2"/>
<text text-anchor="start" x="482.9365" y="-154.9" font-family="Helvetica,sans-Serif" font-size="11.00" fill="#000000">varchar[100]</text>
<polygon fill="none" stroke="#000000" points="307,-125.2 307,-147.2 480,-147.2 480,-125.2 307,-125.2"/>
<text text-anchor="start" x="327" y="-132.3" font-family="Helvetica,sans-Serif" font-size="11.00" fill="#000000">before_value_string</text>
<polygon fill="none" stroke="#000000" points="480,-125.2 480,-147.2 547,-147.2 547,-125.2 480,-125.2"/>
<text text-anchor="start" x="482.9365" y="-132.9" font-family="Helvetica,sans-Serif" font-size="11.00" fill="#000000">varchar[255]</text>
<polygon fill="none" stroke="#000000" points="307,-103.2 307,-125.2 480,-125.2 480,-103.2 307,-103.2"/>
<text text-anchor="start" x="327" y="-110.3" font-family="Helvetica,sans-Serif" font-size="11.00" fill="#000000">after_value_string</text>
<polygon fill="none" stroke="#000000" points="480,-103.2 480,-125.2 547,-125.2 547,-103.2 480,-103.2"/>
<text text-anchor="start" x="482.9365" y="-110.9" font-family="Helvetica,sans-Serif" font-size="11.00" fill="#000000">varchar[255]</text>
<polygon fill="none" stroke="#000000" points="307,-81.2 307,-103.2 480,-103.2 480,-81.2 307,-81.2"/>
<text text-anchor="start" x="327" y="-88.3" font-family="Helvetica,sans-Serif" font-size="11.00" fill="#000000">before_value_text</text>
<polygon fill="none" stroke="#000000" points="480,-81.2 480,-103.2 547,-103.2 547,-81.2 480,-81.2"/>
<text text-anchor="start" x="483" y="-88.9" font-family="Helvetica,sans-Serif" font-size="11.00" fill="#000000">text[65535]</text>
<polygon fill="none" stroke="#000000" points="307,-59.2 307,-81.2 480,-81.2 480,-59.2 307,-59.2"/>
<text text-anchor="start" x="327" y="-66.3" font-family="Helvetica,sans-Serif" font-size="11.00" fill="#000000">after_value_text</text>
<polygon fill="none" stroke="#000000" points="480,-59.2 480,-81.2 547,-81.2 547,-59.2 480,-59.2"/>
<text text-anchor="start" x="483" y="-66.9" font-family="Helvetica,sans-Serif" font-size="11.00" fill="#000000">text[65535]</text>
<polygon fill="#ffffff" stroke="transparent" points="307,-40.2 307,-59.2 398,-59.2 398,-40.2 307,-40.2"/>
<polygon fill="none" stroke="#000000" points="307,-40.2 307,-59.2 398,-59.2 398,-40.2 307,-40.2"/>
<text text-anchor="start" x="310" y="-46.3" font-family="Helvetica,sans-Serif" font-size="11.00" fill="#000000">&lt; 1</text>
<polygon fill="#ffffff" stroke="transparent" points="398,-40.2 398,-59.2 480,-59.2 480,-40.2 398,-40.2"/>
<polygon fill="none" stroke="#000000" points="398,-40.2 398,-59.2 480,-59.2 480,-40.2 398,-40.2"/>
<text text-anchor="start" x="470.8862" y="-46.3" font-family="Helvetica,sans-Serif" font-size="11.00" fill="#000000"> &#160;</text>
<polygon fill="#ffffff" stroke="transparent" points="480,-40.2 480,-59.2 547,-59.2 547,-40.2 480,-40.2"/>
<polygon fill="none" stroke="#000000" points="480,-40.2 480,-59.2 547,-59.2 547,-40.2 480,-40.2"/>
<text text-anchor="start" x="528.4053" y="-46.3" font-family="Helvetica,sans-Serif" font-size="11.00" fill="#000000">0 &gt;</text>
<polygon fill="none" stroke="#000000" stroke-width="2" points="306,-39.2 306,-303.2 548,-303.2 548,-39.2 306,-39.2"/>
</a>
</g>
</g>
<!-- calls_reschedule_audit&#45;&gt;calls_reschedule -->
<g id="edge2" class="edge">
<title>calls_reschedule_audit:w&#45;&gt;calls_reschedule:e</title>
<path fill="none" stroke="#000000" d="M292.4203,-246.2C280.5435,-246.2 273.158,-246.2 256.5,-246.2"/>
<polygon fill="#000000" stroke="#000000" points="299,-246.2001 307,-249.8 303,-246.2 307,-246.2 307,-246.2 307,-246.2 303,-246.2 307,-242.6 299,-246.2001 299,-246.2001"/>
<ellipse fill="none" stroke="#000000" cx="295.8" cy="-246.2001" rx="3.2" ry="3.2"/>
</g>
</g>
</svg>
