<?xml version="1.0" encoding="UTF-8" standalone="no"?>
<!DOCTYPE svg PUBLIC "-//W3C//DTD SVG 1.1//EN"
 "http://www.w3.org/Graphics/SVG/1.1/DTD/svg11.dtd">
<!-- Generated by graphviz version 2.40.1 (20161225.0304)
 -->
<!-- Title: oneDegreeRelationshipsDiagram Pages: 1 -->
<svg width="422pt" height="355pt"
 viewBox="0.00 0.00 422.00 354.70" xmlns="http://www.w3.org/2000/svg" xmlns:xlink="http://www.w3.org/1999/xlink">
<g id="graph0" class="graph" transform="scale(1 1) rotate(0) translate(4 350.7)">
<title>oneDegreeRelationshipsDiagram</title>
<polygon fill="#ffffff" stroke="transparent" points="-4,4 -4,-350.7 418,-350.7 418,4 -4,4"/>
<text text-anchor="middle" x="72.4936" y="-7.3" font-family="Helvetica,sans-Serif" font-size="11.00" fill="#000000">Generated by SchemaSpy</text>
<!-- campaign_trkrs -->
<g id="node1" class="node">
<title>campaign_trkrs</title>
<g id="a_node1"><a xlink:href="../../tables/campaign_trkrs.html" xlink:title="campaign_trkrs" target="_top">
<polygon fill="#ffffff" stroke="transparent" points="201,-54.7 201,-342.7 406,-342.7 406,-54.7 201,-54.7"/>
<polygon fill="#f5f5f5" stroke="transparent" points="203.5,-317.7 203.5,-340.7 404.5,-340.7 404.5,-317.7 203.5,-317.7"/>
<polygon fill="none" stroke="#000000" points="203.5,-317.7 203.5,-340.7 404.5,-340.7 404.5,-317.7 203.5,-317.7"/>
<text text-anchor="start" x="208.5" y="-326.8" font-family="Helvetica,sans-Serif" font-weight="bold" font-size="11.00" fill="#000000">campaign_trkrs</text>
<text text-anchor="start" x="369.5437" y="-325.8" font-family="Helvetica,sans-Serif" font-size="11.00" fill="#000000">[table]</text>
<polygon fill="none" stroke="#000000" points="203.5,-295.7 203.5,-317.7 337.5,-317.7 337.5,-295.7 203.5,-295.7"/>
<image xlink:href="../../images/primaryKeys.png" width="11px" height="12px" preserveAspectRatio="xMinYMin meet" x="208.5" y="-312.7"/>
<text text-anchor="start" x="223.5" y="-302.8" font-family="Helvetica,sans-Serif" font-size="11.00" fill="#000000">id</text>
<polygon fill="none" stroke="#000000" points="337.5,-295.7 337.5,-317.7 404.5,-317.7 404.5,-295.7 337.5,-295.7"/>
<text text-anchor="start" x="340.5" y="-303.4" font-family="Helvetica,sans-Serif" font-size="11.00" fill="#000000">char[36]</text>
<polygon fill="none" stroke="#000000" points="203.5,-273.7 203.5,-295.7 337.5,-295.7 337.5,-273.7 203.5,-273.7"/>
<text text-anchor="start" x="223.5" y="-280.8" font-family="Helvetica,sans-Serif" font-size="11.00" fill="#000000">tracker_name</text>
<polygon fill="none" stroke="#000000" points="337.5,-273.7 337.5,-295.7 404.5,-295.7 404.5,-273.7 337.5,-273.7"/>
<text text-anchor="start" x="340.4365" y="-281.4" font-family="Helvetica,sans-Serif" font-size="11.00" fill="#000000">varchar[255]</text>
<polygon fill="none" stroke="#000000" points="203.5,-251.7 203.5,-273.7 337.5,-273.7 337.5,-251.7 203.5,-251.7"/>
<text text-anchor="start" x="223.5" y="-258.8" font-family="Helvetica,sans-Serif" font-size="11.00" fill="#000000">tracker_url</text>
<polygon fill="none" stroke="#000000" points="337.5,-251.7 337.5,-273.7 404.5,-273.7 404.5,-251.7 337.5,-251.7"/>
<text text-anchor="start" x="340.4365" y="-259.4" font-family="Helvetica,sans-Serif" font-size="11.00" fill="#000000">varchar[255]</text>
<polygon fill="#ffffff" stroke="transparent" points="203.5,-229.7 203.5,-251.7 337.5,-251.7 337.5,-229.7 203.5,-229.7"/>
<polygon fill="none" stroke="#000000" points="203.5,-229.7 203.5,-251.7 337.5,-251.7 337.5,-229.7 203.5,-229.7"/>
<text text-anchor="start" x="223.5" y="-236.8" font-family="Helvetica,sans-Serif" font-size="11.00" fill="#000000">tracker_key</text>
<polygon fill="none" stroke="#000000" points="337.5,-229.7 337.5,-251.7 404.5,-251.7 404.5,-229.7 337.5,-229.7"/>
<text text-anchor="start" x="340.5" y="-237.4" font-family="Helvetica,sans-Serif" font-size="11.00" fill="#000000">int[10]</text>
<polygon fill="none" stroke="#000000" points="203.5,-207.7 203.5,-229.7 337.5,-229.7 337.5,-207.7 203.5,-207.7"/>
<image xlink:href="../../images/foreignKeys.png" width="11px" height="12px" preserveAspectRatio="xMinYMin meet" x="208.5" y="-224.7"/>
<text text-anchor="start" x="223.5" y="-214.8" font-family="Helvetica,sans-Serif" font-size="11.00" fill="#000000">campaign_id</text>
<polygon fill="none" stroke="#000000" points="337.5,-207.7 337.5,-229.7 404.5,-229.7 404.5,-207.7 337.5,-207.7"/>
<text text-anchor="start" x="340.5" y="-215.4" font-family="Helvetica,sans-Serif" font-size="11.00" fill="#000000">char[36]</text>
<polygon fill="none" stroke="#000000" points="203.5,-185.7 203.5,-207.7 337.5,-207.7 337.5,-185.7 203.5,-185.7"/>
<text text-anchor="start" x="223.5" y="-192.8" font-family="Helvetica,sans-Serif" font-size="11.00" fill="#000000">date_entered</text>
<polygon fill="none" stroke="#000000" points="337.5,-185.7 337.5,-207.7 404.5,-207.7 404.5,-185.7 337.5,-185.7"/>
<text text-anchor="start" x="340.5" y="-193.4" font-family="Helvetica,sans-Serif" font-size="11.00" fill="#000000">datetime[26]</text>
<polygon fill="none" stroke="#000000" points="203.5,-163.7 203.5,-185.7 337.5,-185.7 337.5,-163.7 203.5,-163.7"/>
<text text-anchor="start" x="223.5" y="-170.8" font-family="Helvetica,sans-Serif" font-size="11.00" fill="#000000">date_modified</text>
<polygon fill="none" stroke="#000000" points="337.5,-163.7 337.5,-185.7 404.5,-185.7 404.5,-163.7 337.5,-163.7"/>
<text text-anchor="start" x="340.5" y="-171.4" font-family="Helvetica,sans-Serif" font-size="11.00" fill="#000000">datetime[26]</text>
<polygon fill="none" stroke="#000000" points="203.5,-141.7 203.5,-163.7 337.5,-163.7 337.5,-141.7 203.5,-141.7"/>
<text text-anchor="start" x="223.5" y="-148.8" font-family="Helvetica,sans-Serif" font-size="11.00" fill="#000000">modified_user_id</text>
<polygon fill="none" stroke="#000000" points="337.5,-141.7 337.5,-163.7 404.5,-163.7 404.5,-141.7 337.5,-141.7"/>
<text text-anchor="start" x="340.5" y="-149.4" font-family="Helvetica,sans-Serif" font-size="11.00" fill="#000000">char[36]</text>
<polygon fill="none" stroke="#000000" points="203.5,-119.7 203.5,-141.7 337.5,-141.7 337.5,-119.7 203.5,-119.7"/>
<text text-anchor="start" x="223.5" y="-126.8" font-family="Helvetica,sans-Serif" font-size="11.00" fill="#000000">created_by</text>
<polygon fill="none" stroke="#000000" points="337.5,-119.7 337.5,-141.7 404.5,-141.7 404.5,-119.7 337.5,-119.7"/>
<text text-anchor="start" x="340.5" y="-127.4" font-family="Helvetica,sans-Serif" font-size="11.00" fill="#000000">char[36]</text>
<polygon fill="none" stroke="#000000" points="203.5,-97.7 203.5,-119.7 337.5,-119.7 337.5,-97.7 203.5,-97.7"/>
<text text-anchor="start" x="223.5" y="-104.8" font-family="Helvetica,sans-Serif" font-size="11.00" fill="#000000">is_optout</text>
<polygon fill="none" stroke="#000000" points="337.5,-97.7 337.5,-119.7 404.5,-119.7 404.5,-97.7 337.5,-97.7"/>
<text text-anchor="start" x="340.5" y="-105.4" font-family="Helvetica,sans-Serif" font-size="11.00" fill="#000000">bit[1]</text>
<polygon fill="none" stroke="#000000" points="203.5,-75.7 203.5,-97.7 337.5,-97.7 337.5,-75.7 203.5,-75.7"/>
<text text-anchor="start" x="223.5" y="-82.8" font-family="Helvetica,sans-Serif" font-size="11.00" fill="#000000">deleted</text>
<polygon fill="none" stroke="#000000" points="337.5,-75.7 337.5,-97.7 404.5,-97.7 404.5,-75.7 337.5,-75.7"/>
<text text-anchor="start" x="340.5" y="-83.4" font-family="Helvetica,sans-Serif" font-size="11.00" fill="#000000">bit[1]</text>
<polygon fill="#ffffff" stroke="transparent" points="203.5,-56.7 203.5,-75.7 274.5,-75.7 274.5,-56.7 203.5,-56.7"/>
<polygon fill="none" stroke="#000000" points="203.5,-56.7 203.5,-75.7 274.5,-75.7 274.5,-56.7 203.5,-56.7"/>
<text text-anchor="start" x="206.5" y="-62.8" font-family="Helvetica,sans-Serif" font-size="11.00" fill="#000000">&lt; 1</text>
<polygon fill="#ffffff" stroke="transparent" points="274.5,-56.7 274.5,-75.7 337.5,-75.7 337.5,-56.7 274.5,-56.7"/>
<polygon fill="none" stroke="#000000" points="274.5,-56.7 274.5,-75.7 337.5,-75.7 337.5,-56.7 274.5,-56.7"/>
<text text-anchor="start" x="328.3862" y="-62.8" font-family="Helvetica,sans-Serif" font-size="11.00" fill="#000000"> &#160;</text>
<polygon fill="#ffffff" stroke="transparent" points="337.5,-56.7 337.5,-75.7 404.5,-75.7 404.5,-56.7 337.5,-56.7"/>
<polygon fill="none" stroke="#000000" points="337.5,-56.7 337.5,-75.7 404.5,-75.7 404.5,-56.7 337.5,-56.7"/>
<text text-anchor="start" x="385.9053" y="-62.8" font-family="Helvetica,sans-Serif" font-size="11.00" fill="#000000">0 &gt;</text>
<polygon fill="none" stroke="#000000" stroke-width="2" points="202,-55.7 202,-341.7 405,-341.7 405,-55.7 202,-55.7"/>
</a>
</g>
</g>
<!-- campaigns -->
<g id="node2" class="node">
<title>campaigns</title>
<g id="a_node2"><a xlink:href="../../tables/campaigns.html" xlink:title="campaigns" target="_top">
<polygon fill="#ffffff" stroke="transparent" points="8,-38.2 8,-253.2 152,-253.2 152,-38.2 8,-38.2"/>
<polygon fill="#f5f5f5" stroke="transparent" points="8,-229.7 8,-252.7 152,-252.7 152,-229.7 8,-229.7"/>
<polygon fill="none" stroke="#000000" points="8,-229.7 8,-252.7 152,-252.7 152,-229.7 8,-229.7"/>
<text text-anchor="start" x="13" y="-238.8" font-family="Helvetica,sans-Serif" font-weight="bold" font-size="11.00" fill="#000000">campaigns</text>
<text text-anchor="start" x="117.0437" y="-237.8" font-family="Helvetica,sans-Serif" font-size="11.00" fill="#000000">[table]</text>
<polygon fill="none" stroke="#000000" points="8,-207.7 8,-229.7 152,-229.7 152,-207.7 8,-207.7"/>
<image xlink:href="../../images/primaryKeys.png" width="11px" height="12px" preserveAspectRatio="xMinYMin meet" x="13" y="-224.7"/>
<text text-anchor="start" x="28" y="-214.8" font-family="Helvetica,sans-Serif" font-size="11.00" fill="#000000">id</text>
<polygon fill="#ffffff" stroke="transparent" points="8,-185.7 8,-207.7 152,-207.7 152,-185.7 8,-185.7"/>
<polygon fill="none" stroke="#000000" points="8,-185.7 8,-207.7 152,-207.7 152,-185.7 8,-185.7"/>
<text text-anchor="start" x="28" y="-192.8" font-family="Helvetica,sans-Serif" font-size="11.00" fill="#000000">name</text>
<polygon fill="#c0c0c0" stroke="transparent" points="8,-163.7 8,-185.7 152,-185.7 152,-163.7 8,-163.7"/>
<polygon fill="none" stroke="#000000" points="8,-163.7 8,-185.7 152,-185.7 152,-163.7 8,-163.7"/>
<image xlink:href="../../images/foreignKeys.png" width="11px" height="12px" preserveAspectRatio="xMinYMin meet" x="13" y="-180.7"/>
<text text-anchor="start" x="28" y="-170.8" font-family="Helvetica,sans-Serif" font-size="11.00" fill="#000000">modified_user_id</text>
<polygon fill="#c0c0c0" stroke="transparent" points="8,-141.7 8,-163.7 152,-163.7 152,-141.7 8,-141.7"/>
<polygon fill="none" stroke="#000000" points="8,-141.7 8,-163.7 152,-163.7 152,-141.7 8,-141.7"/>
<image xlink:href="../../images/foreignKeys.png" width="11px" height="12px" preserveAspectRatio="xMinYMin meet" x="13" y="-158.7"/>
<text text-anchor="start" x="28" y="-148.8" font-family="Helvetica,sans-Serif" font-size="11.00" fill="#000000">created_by</text>
<polygon fill="#c0c0c0" stroke="transparent" points="8,-119.7 8,-141.7 152,-141.7 152,-119.7 8,-119.7"/>
<polygon fill="none" stroke="#000000" points="8,-119.7 8,-141.7 152,-141.7 152,-119.7 8,-119.7"/>
<image xlink:href="../../images/foreignKeys.png" width="11px" height="12px" preserveAspectRatio="xMinYMin meet" x="13" y="-136.7"/>
<text text-anchor="start" x="28" y="-126.8" font-family="Helvetica,sans-Serif" font-size="11.00" fill="#000000">assigned_user_id</text>
<polygon fill="#ffffff" stroke="transparent" points="8,-97.7 8,-119.7 152,-119.7 152,-97.7 8,-97.7"/>
<polygon fill="none" stroke="#000000" points="8,-97.7 8,-119.7 152,-119.7 152,-97.7 8,-97.7"/>
<text text-anchor="start" x="28" y="-104.8" font-family="Helvetica,sans-Serif" font-size="11.00" fill="#000000">tracker_key</text>
<polygon fill="#ffffff" stroke="transparent" points="8,-75.7 8,-97.7 152,-97.7 152,-75.7 8,-75.7"/>
<polygon fill="none" stroke="#000000" points="8,-75.7 8,-97.7 152,-97.7 152,-75.7 8,-75.7"/>
<image xlink:href="../../images/foreignKeys.png" width="11px" height="12px" preserveAspectRatio="xMinYMin meet" x="13" y="-92.7"/>
<text text-anchor="start" x="28" y="-82.8" font-family="Helvetica,sans-Serif" font-size="11.00" fill="#000000">survey_id</text>
<polygon fill="none" stroke="#000000" points="8,-56.7 8,-75.7 152,-75.7 152,-56.7 8,-56.7"/>
<text text-anchor="start" x="11" y="-62.8" font-family="Helvetica,sans-Serif" font-size="11.00" fill="#000000">...</text>
<polygon fill="#ffffff" stroke="transparent" points="8,-37.7 8,-56.7 71,-56.7 71,-37.7 8,-37.7"/>
<polygon fill="none" stroke="#000000" points="8,-37.7 8,-56.7 71,-56.7 71,-37.7 8,-37.7"/>
<text text-anchor="start" x="11" y="-43.8" font-family="Helvetica,sans-Serif" font-size="11.00" fill="#000000">&lt; 4</text>
<polygon fill="#ffffff" stroke="transparent" points="71,-37.7 71,-56.7 104,-56.7 104,-37.7 71,-37.7"/>
<polygon fill="none" stroke="#000000" points="71,-37.7 71,-56.7 104,-56.7 104,-37.7 71,-37.7"/>
<text text-anchor="start" x="94.8862" y="-43.8" font-family="Helvetica,sans-Serif" font-size="11.00" fill="#000000"> &#160;</text>
<polygon fill="#ffffff" stroke="transparent" points="104,-37.7 104,-56.7 152,-56.7 152,-37.7 104,-37.7"/>
<polygon fill="none" stroke="#000000" points="104,-37.7 104,-56.7 152,-56.7 152,-37.7 104,-37.7"/>
<text text-anchor="start" x="127.2904" y="-43.8" font-family="Helvetica,sans-Serif" font-size="11.00" fill="#000000">13 &gt;</text>
</a>
</g>
</g>
<!-- campaign_trkrs&#45;&gt;campaigns -->
<g id="edge1" class="edge">
<title>campaign_trkrs:w&#45;&gt;campaigns:e</title>
<path fill="none" stroke="#000000" d="M189.0156,-218.7C176.6771,-218.7 169.1667,-218.7 152,-218.7"/>
<polygon fill="#000000" stroke="#000000" points="195.5,-218.7001 203.5,-222.3 199.5,-218.7 203.5,-218.7 203.5,-218.7 203.5,-218.7 199.5,-218.7 203.5,-215.1 195.5,-218.7001 195.5,-218.7001"/>
<ellipse fill="none" stroke="#000000" cx="192.3" cy="-218.7001" rx="3.2" ry="3.2"/>
</g>
</g>
</svg>
