<?xml version="1.0" encoding="UTF-8" standalone="no"?>
<!DOCTYPE svg PUBLIC "-//W3C//DTD SVG 1.1//EN"
 "http://www.w3.org/Graphics/SVG/1.1/DTD/svg11.dtd">
<!-- Generated by graphviz version 2.40.1 (20161225.0304)
 -->
<!-- Title: oneDegreeRelationshipsDiagram Pages: 1 -->
<svg width="442pt" height="316pt"
 viewBox="0.00 0.00 442.00 316.20" xmlns="http://www.w3.org/2000/svg" xmlns:xlink="http://www.w3.org/1999/xlink">
<g id="graph0" class="graph" transform="scale(1 1) rotate(0) translate(4 312.2)">
<title>oneDegreeRelationshipsDiagram</title>
<polygon fill="#ffffff" stroke="transparent" points="-4,4 -4,-312.2 438,-312.2 438,4 -4,4"/>
<text text-anchor="middle" x="72.4936" y="-7.3" font-family="Helvetica,sans-Serif" font-size="11.00" fill="#000000">Generated by SchemaSpy</text>
<!-- campaigns_audit -->
<g id="node1" class="node">
<title>campaigns_audit</title>
<g id="a_node1"><a xlink:href="../../tables/campaigns_audit.html" xlink:title="campaigns_audit" target="_top">
<polygon fill="#ffffff" stroke="transparent" points="201,-38.2 201,-304.2 426,-304.2 426,-38.2 201,-38.2"/>
<polygon fill="#f5f5f5" stroke="transparent" points="203.5,-279.2 203.5,-302.2 424.5,-302.2 424.5,-279.2 203.5,-279.2"/>
<polygon fill="none" stroke="#000000" points="203.5,-279.2 203.5,-302.2 424.5,-302.2 424.5,-279.2 203.5,-279.2"/>
<text text-anchor="start" x="208.5" y="-288.3" font-family="Helvetica,sans-Serif" font-weight="bold" font-size="11.00" fill="#000000">campaigns_audit</text>
<text text-anchor="start" x="389.5437" y="-287.3" font-family="Helvetica,sans-Serif" font-size="11.00" fill="#000000">[table]</text>
<polygon fill="none" stroke="#000000" points="203.5,-257.2 203.5,-279.2 357.5,-279.2 357.5,-257.2 203.5,-257.2"/>
<image xlink:href="../../images/primaryKeys.png" width="11px" height="12px" preserveAspectRatio="xMinYMin meet" x="208.5" y="-274.2"/>
<text text-anchor="start" x="223.5" y="-264.3" font-family="Helvetica,sans-Serif" font-size="11.00" fill="#000000">id</text>
<polygon fill="none" stroke="#000000" points="357.5,-257.2 357.5,-279.2 424.5,-279.2 424.5,-257.2 357.5,-257.2"/>
<text text-anchor="start" x="360.5" y="-264.9" font-family="Helvetica,sans-Serif" font-size="11.00" fill="#000000">char[36]</text>
<polygon fill="#ffffff" stroke="transparent" points="203.5,-235.2 203.5,-257.2 357.5,-257.2 357.5,-235.2 203.5,-235.2"/>
<polygon fill="none" stroke="#000000" points="203.5,-235.2 203.5,-257.2 357.5,-257.2 357.5,-235.2 203.5,-235.2"/>
<image xlink:href="../../images/foreignKeys.png" width="11px" height="12px" preserveAspectRatio="xMinYMin meet" x="208.5" y="-252.2"/>
<text text-anchor="start" x="223.5" y="-242.3" font-family="Helvetica,sans-Serif" font-size="11.00" fill="#000000">parent_id</text>
<polygon fill="none" stroke="#000000" points="357.5,-235.2 357.5,-257.2 424.5,-257.2 424.5,-235.2 357.5,-235.2"/>
<text text-anchor="start" x="360.5" y="-242.9" font-family="Helvetica,sans-Serif" font-size="11.00" fill="#000000">char[36]</text>
<polygon fill="none" stroke="#000000" points="203.5,-213.2 203.5,-235.2 357.5,-235.2 357.5,-213.2 203.5,-213.2"/>
<text text-anchor="start" x="223.5" y="-220.3" font-family="Helvetica,sans-Serif" font-size="11.00" fill="#000000">date_created</text>
<polygon fill="none" stroke="#000000" points="357.5,-213.2 357.5,-235.2 424.5,-235.2 424.5,-213.2 357.5,-213.2"/>
<text text-anchor="start" x="360.5" y="-220.9" font-family="Helvetica,sans-Serif" font-size="11.00" fill="#000000">datetime[26]</text>
<polygon fill="none" stroke="#000000" points="203.5,-191.2 203.5,-213.2 357.5,-213.2 357.5,-191.2 203.5,-191.2"/>
<text text-anchor="start" x="223.5" y="-198.3" font-family="Helvetica,sans-Serif" font-size="11.00" fill="#000000">created_by</text>
<polygon fill="none" stroke="#000000" points="357.5,-191.2 357.5,-213.2 424.5,-213.2 424.5,-191.2 357.5,-191.2"/>
<text text-anchor="start" x="360.5" y="-198.9" font-family="Helvetica,sans-Serif" font-size="11.00" fill="#000000">varchar[36]</text>
<polygon fill="none" stroke="#000000" points="203.5,-169.2 203.5,-191.2 357.5,-191.2 357.5,-169.2 203.5,-169.2"/>
<text text-anchor="start" x="223.5" y="-176.3" font-family="Helvetica,sans-Serif" font-size="11.00" fill="#000000">field_name</text>
<polygon fill="none" stroke="#000000" points="357.5,-169.2 357.5,-191.2 424.5,-191.2 424.5,-169.2 357.5,-169.2"/>
<text text-anchor="start" x="360.4365" y="-176.9" font-family="Helvetica,sans-Serif" font-size="11.00" fill="#000000">varchar[100]</text>
<polygon fill="none" stroke="#000000" points="203.5,-147.2 203.5,-169.2 357.5,-169.2 357.5,-147.2 203.5,-147.2"/>
<text text-anchor="start" x="223.5" y="-154.3" font-family="Helvetica,sans-Serif" font-size="11.00" fill="#000000">data_type</text>
<polygon fill="none" stroke="#000000" points="357.5,-147.2 357.5,-169.2 424.5,-169.2 424.5,-147.2 357.5,-147.2"/>
<text text-anchor="start" x="360.4365" y="-154.9" font-family="Helvetica,sans-Serif" font-size="11.00" fill="#000000">varchar[100]</text>
<polygon fill="none" stroke="#000000" points="203.5,-125.2 203.5,-147.2 357.5,-147.2 357.5,-125.2 203.5,-125.2"/>
<text text-anchor="start" x="223.5" y="-132.3" font-family="Helvetica,sans-Serif" font-size="11.00" fill="#000000">before_value_string</text>
<polygon fill="none" stroke="#000000" points="357.5,-125.2 357.5,-147.2 424.5,-147.2 424.5,-125.2 357.5,-125.2"/>
<text text-anchor="start" x="360.4365" y="-132.9" font-family="Helvetica,sans-Serif" font-size="11.00" fill="#000000">varchar[255]</text>
<polygon fill="none" stroke="#000000" points="203.5,-103.2 203.5,-125.2 357.5,-125.2 357.5,-103.2 203.5,-103.2"/>
<text text-anchor="start" x="223.5" y="-110.3" font-family="Helvetica,sans-Serif" font-size="11.00" fill="#000000">after_value_string</text>
<polygon fill="none" stroke="#000000" points="357.5,-103.2 357.5,-125.2 424.5,-125.2 424.5,-103.2 357.5,-103.2"/>
<text text-anchor="start" x="360.4365" y="-110.9" font-family="Helvetica,sans-Serif" font-size="11.00" fill="#000000">varchar[255]</text>
<polygon fill="none" stroke="#000000" points="203.5,-81.2 203.5,-103.2 357.5,-103.2 357.5,-81.2 203.5,-81.2"/>
<text text-anchor="start" x="223.5" y="-88.3" font-family="Helvetica,sans-Serif" font-size="11.00" fill="#000000">before_value_text</text>
<polygon fill="none" stroke="#000000" points="357.5,-81.2 357.5,-103.2 424.5,-103.2 424.5,-81.2 357.5,-81.2"/>
<text text-anchor="start" x="360.5" y="-88.9" font-family="Helvetica,sans-Serif" font-size="11.00" fill="#000000">text[65535]</text>
<polygon fill="none" stroke="#000000" points="203.5,-59.2 203.5,-81.2 357.5,-81.2 357.5,-59.2 203.5,-59.2"/>
<text text-anchor="start" x="223.5" y="-66.3" font-family="Helvetica,sans-Serif" font-size="11.00" fill="#000000">after_value_text</text>
<polygon fill="none" stroke="#000000" points="357.5,-59.2 357.5,-81.2 424.5,-81.2 424.5,-59.2 357.5,-59.2"/>
<text text-anchor="start" x="360.5" y="-66.9" font-family="Helvetica,sans-Serif" font-size="11.00" fill="#000000">text[65535]</text>
<polygon fill="#ffffff" stroke="transparent" points="203.5,-40.2 203.5,-59.2 284.5,-59.2 284.5,-40.2 203.5,-40.2"/>
<polygon fill="none" stroke="#000000" points="203.5,-40.2 203.5,-59.2 284.5,-59.2 284.5,-40.2 203.5,-40.2"/>
<text text-anchor="start" x="206.5" y="-46.3" font-family="Helvetica,sans-Serif" font-size="11.00" fill="#000000">&lt; 1</text>
<polygon fill="#ffffff" stroke="transparent" points="284.5,-40.2 284.5,-59.2 357.5,-59.2 357.5,-40.2 284.5,-40.2"/>
<polygon fill="none" stroke="#000000" points="284.5,-40.2 284.5,-59.2 357.5,-59.2 357.5,-40.2 284.5,-40.2"/>
<text text-anchor="start" x="348.3862" y="-46.3" font-family="Helvetica,sans-Serif" font-size="11.00" fill="#000000"> &#160;</text>
<polygon fill="#ffffff" stroke="transparent" points="357.5,-40.2 357.5,-59.2 424.5,-59.2 424.5,-40.2 357.5,-40.2"/>
<polygon fill="none" stroke="#000000" points="357.5,-40.2 357.5,-59.2 424.5,-59.2 424.5,-40.2 357.5,-40.2"/>
<text text-anchor="start" x="405.9053" y="-46.3" font-family="Helvetica,sans-Serif" font-size="11.00" fill="#000000">0 &gt;</text>
<polygon fill="none" stroke="#000000" stroke-width="2" points="202,-39.2 202,-303.2 425,-303.2 425,-39.2 202,-39.2"/>
</a>
</g>
</g>
<!-- campaigns -->
<g id="node2" class="node">
<title>campaigns</title>
<g id="a_node2"><a xlink:href="../../tables/campaigns.html" xlink:title="campaigns" target="_top">
<polygon fill="#ffffff" stroke="transparent" points="8,-65.7 8,-280.7 152,-280.7 152,-65.7 8,-65.7"/>
<polygon fill="#f5f5f5" stroke="transparent" points="8,-257.2 8,-280.2 152,-280.2 152,-257.2 8,-257.2"/>
<polygon fill="none" stroke="#000000" points="8,-257.2 8,-280.2 152,-280.2 152,-257.2 8,-257.2"/>
<text text-anchor="start" x="13" y="-266.3" font-family="Helvetica,sans-Serif" font-weight="bold" font-size="11.00" fill="#000000">campaigns</text>
<text text-anchor="start" x="117.0437" y="-265.3" font-family="Helvetica,sans-Serif" font-size="11.00" fill="#000000">[table]</text>
<polygon fill="none" stroke="#000000" points="8,-235.2 8,-257.2 152,-257.2 152,-235.2 8,-235.2"/>
<image xlink:href="../../images/primaryKeys.png" width="11px" height="12px" preserveAspectRatio="xMinYMin meet" x="13" y="-252.2"/>
<text text-anchor="start" x="28" y="-242.3" font-family="Helvetica,sans-Serif" font-size="11.00" fill="#000000">id</text>
<polygon fill="#ffffff" stroke="transparent" points="8,-213.2 8,-235.2 152,-235.2 152,-213.2 8,-213.2"/>
<polygon fill="none" stroke="#000000" points="8,-213.2 8,-235.2 152,-235.2 152,-213.2 8,-213.2"/>
<text text-anchor="start" x="28" y="-220.3" font-family="Helvetica,sans-Serif" font-size="11.00" fill="#000000">name</text>
<polygon fill="#c0c0c0" stroke="transparent" points="8,-191.2 8,-213.2 152,-213.2 152,-191.2 8,-191.2"/>
<polygon fill="none" stroke="#000000" points="8,-191.2 8,-213.2 152,-213.2 152,-191.2 8,-191.2"/>
<image xlink:href="../../images/foreignKeys.png" width="11px" height="12px" preserveAspectRatio="xMinYMin meet" x="13" y="-208.2"/>
<text text-anchor="start" x="28" y="-198.3" font-family="Helvetica,sans-Serif" font-size="11.00" fill="#000000">modified_user_id</text>
<polygon fill="#c0c0c0" stroke="transparent" points="8,-169.2 8,-191.2 152,-191.2 152,-169.2 8,-169.2"/>
<polygon fill="none" stroke="#000000" points="8,-169.2 8,-191.2 152,-191.2 152,-169.2 8,-169.2"/>
<image xlink:href="../../images/foreignKeys.png" width="11px" height="12px" preserveAspectRatio="xMinYMin meet" x="13" y="-186.2"/>
<text text-anchor="start" x="28" y="-176.3" font-family="Helvetica,sans-Serif" font-size="11.00" fill="#000000">created_by</text>
<polygon fill="#c0c0c0" stroke="transparent" points="8,-147.2 8,-169.2 152,-169.2 152,-147.2 8,-147.2"/>
<polygon fill="none" stroke="#000000" points="8,-147.2 8,-169.2 152,-169.2 152,-147.2 8,-147.2"/>
<image xlink:href="../../images/foreignKeys.png" width="11px" height="12px" preserveAspectRatio="xMinYMin meet" x="13" y="-164.2"/>
<text text-anchor="start" x="28" y="-154.3" font-family="Helvetica,sans-Serif" font-size="11.00" fill="#000000">assigned_user_id</text>
<polygon fill="#ffffff" stroke="transparent" points="8,-125.2 8,-147.2 152,-147.2 152,-125.2 8,-125.2"/>
<polygon fill="none" stroke="#000000" points="8,-125.2 8,-147.2 152,-147.2 152,-125.2 8,-125.2"/>
<text text-anchor="start" x="28" y="-132.3" font-family="Helvetica,sans-Serif" font-size="11.00" fill="#000000">tracker_key</text>
<polygon fill="#ffffff" stroke="transparent" points="8,-103.2 8,-125.2 152,-125.2 152,-103.2 8,-103.2"/>
<polygon fill="none" stroke="#000000" points="8,-103.2 8,-125.2 152,-125.2 152,-103.2 8,-103.2"/>
<image xlink:href="../../images/foreignKeys.png" width="11px" height="12px" preserveAspectRatio="xMinYMin meet" x="13" y="-120.2"/>
<text text-anchor="start" x="28" y="-110.3" font-family="Helvetica,sans-Serif" font-size="11.00" fill="#000000">survey_id</text>
<polygon fill="none" stroke="#000000" points="8,-84.2 8,-103.2 152,-103.2 152,-84.2 8,-84.2"/>
<text text-anchor="start" x="11" y="-90.3" font-family="Helvetica,sans-Serif" font-size="11.00" fill="#000000">...</text>
<polygon fill="#ffffff" stroke="transparent" points="8,-65.2 8,-84.2 71,-84.2 71,-65.2 8,-65.2"/>
<polygon fill="none" stroke="#000000" points="8,-65.2 8,-84.2 71,-84.2 71,-65.2 8,-65.2"/>
<text text-anchor="start" x="11" y="-71.3" font-family="Helvetica,sans-Serif" font-size="11.00" fill="#000000">&lt; 4</text>
<polygon fill="#ffffff" stroke="transparent" points="71,-65.2 71,-84.2 104,-84.2 104,-65.2 71,-65.2"/>
<polygon fill="none" stroke="#000000" points="71,-65.2 71,-84.2 104,-84.2 104,-65.2 71,-65.2"/>
<text text-anchor="start" x="94.8862" y="-71.3" font-family="Helvetica,sans-Serif" font-size="11.00" fill="#000000"> &#160;</text>
<polygon fill="#ffffff" stroke="transparent" points="104,-65.2 104,-84.2 152,-84.2 152,-65.2 104,-65.2"/>
<polygon fill="none" stroke="#000000" points="104,-65.2 104,-84.2 152,-84.2 152,-65.2 104,-65.2"/>
<text text-anchor="start" x="127.2904" y="-71.3" font-family="Helvetica,sans-Serif" font-size="11.00" fill="#000000">13 &gt;</text>
</a>
</g>
</g>
<!-- campaigns_audit&#45;&gt;campaigns -->
<g id="edge1" class="edge">
<title>campaigns_audit:w&#45;&gt;campaigns:e</title>
<path fill="none" stroke="#000000" d="M189.0156,-246.2C176.6771,-246.2 169.1667,-246.2 152,-246.2"/>
<polygon fill="#000000" stroke="#000000" points="195.5,-246.2001 203.5,-249.8 199.5,-246.2 203.5,-246.2 203.5,-246.2 203.5,-246.2 199.5,-246.2 203.5,-242.6 195.5,-246.2001 195.5,-246.2001"/>
<ellipse fill="none" stroke="#000000" cx="192.3" cy="-246.2001" rx="3.2" ry="3.2"/>
</g>
</g>
</svg>
