<?xml version="1.0" encoding="UTF-8" standalone="no"?>
<!DOCTYPE svg PUBLIC "-//W3C//DTD SVG 1.1//EN"
 "http://www.w3.org/Graphics/SVG/1.1/DTD/svg11.dtd">
<!-- Generated by graphviz version 2.40.1 (20161225.0304)
 -->
<!-- Title: twoDegreesRelationshipsDiagram Pages: 1 -->
<svg width="1200pt" height="934pt"
 viewBox="0.00 0.00 1200.00 934.33" xmlns="http://www.w3.org/2000/svg" xmlns:xlink="http://www.w3.org/1999/xlink">
<g id="graph0" class="graph" transform="scale(1 1) rotate(0) translate(4 930.3266)">
<title>twoDegreesRelationshipsDiagram</title>
<polygon fill="#ffffff" stroke="transparent" points="-4,4 -4,-930.3266 1196,-930.3266 1196,4 -4,4"/>
<text text-anchor="middle" x="72.4936" y="-7.3" font-family="Helvetica,sans-Serif" font-size="11.00" fill="#000000">Generated by SchemaSpy</text>
<!-- accounts -->
<g id="node1" class="node">
<title>accounts</title>
<g id="a_node1"><a xlink:href="../../tables/accounts.html" xlink:title="accounts" target="_top">
<polygon fill="#ffffff" stroke="transparent" points="389,-168.8266 389,-229.8266 476,-229.8266 476,-168.8266 389,-168.8266"/>
<polygon fill="#f5f5f5" stroke="transparent" points="389.5,-206.3266 389.5,-229.3266 476.5,-229.3266 476.5,-206.3266 389.5,-206.3266"/>
<polygon fill="none" stroke="#000000" points="389.5,-206.3266 389.5,-229.3266 476.5,-229.3266 476.5,-206.3266 389.5,-206.3266"/>
<text text-anchor="start" x="394.4918" y="-215.4266" font-family="Helvetica,sans-Serif" font-weight="bold" font-size="11.00" fill="#000000">accounts</text>
<text text-anchor="start" x="442.0219" y="-214.4266" font-family="Helvetica,sans-Serif" font-size="11.00" fill="#000000">[table]</text>
<polygon fill="none" stroke="#000000" points="389.5,-187.3266 389.5,-206.3266 476.5,-206.3266 476.5,-187.3266 389.5,-187.3266"/>
<text text-anchor="start" x="392.5" y="-193.4266" font-family="Helvetica,sans-Serif" font-size="11.00" fill="#000000">...</text>
<polygon fill="#ffffff" stroke="transparent" points="389.5,-168.3266 389.5,-187.3266 423.5,-187.3266 423.5,-168.3266 389.5,-168.3266"/>
<polygon fill="none" stroke="#000000" points="389.5,-168.3266 389.5,-187.3266 423.5,-187.3266 423.5,-168.3266 389.5,-168.3266"/>
<text text-anchor="start" x="392.5" y="-174.4266" font-family="Helvetica,sans-Serif" font-size="11.00" fill="#000000">&lt; 6</text>
<polygon fill="#ffffff" stroke="transparent" points="423.5,-168.3266 423.5,-187.3266 442.5,-187.3266 442.5,-168.3266 423.5,-168.3266"/>
<polygon fill="none" stroke="#000000" points="423.5,-168.3266 423.5,-187.3266 442.5,-187.3266 442.5,-168.3266 423.5,-168.3266"/>
<text text-anchor="start" x="433.3862" y="-174.4266" font-family="Helvetica,sans-Serif" font-size="11.00" fill="#000000"> &#160;</text>
<polygon fill="#ffffff" stroke="transparent" points="442.5,-168.3266 442.5,-187.3266 476.5,-187.3266 476.5,-168.3266 442.5,-168.3266"/>
<polygon fill="none" stroke="#000000" points="442.5,-168.3266 442.5,-187.3266 476.5,-187.3266 476.5,-168.3266 442.5,-168.3266"/>
<text text-anchor="start" x="451.7904" y="-174.4266" font-family="Helvetica,sans-Serif" font-size="11.00" fill="#000000">23 &gt;</text>
</a>
</g>
</g>
<!-- campaigns -->
<g id="node2" class="node">
<title>campaigns</title>
<g id="a_node2"><a xlink:href="../../tables/campaigns.html" xlink:title="campaigns" target="_top">
<polygon fill="#ffffff" stroke="transparent" points="137,-182.8266 137,-397.8266 281,-397.8266 281,-182.8266 137,-182.8266"/>
<polygon fill="#f5f5f5" stroke="transparent" points="137,-374.3266 137,-397.3266 281,-397.3266 281,-374.3266 137,-374.3266"/>
<polygon fill="none" stroke="#000000" points="137,-374.3266 137,-397.3266 281,-397.3266 281,-374.3266 137,-374.3266"/>
<text text-anchor="start" x="142" y="-383.4266" font-family="Helvetica,sans-Serif" font-weight="bold" font-size="11.00" fill="#000000">campaigns</text>
<text text-anchor="start" x="246.0437" y="-382.4266" font-family="Helvetica,sans-Serif" font-size="11.00" fill="#000000">[table]</text>
<polygon fill="none" stroke="#000000" points="137,-352.3266 137,-374.3266 281,-374.3266 281,-352.3266 137,-352.3266"/>
<image xlink:href="../../images/primaryKeys.png" width="11px" height="12px" preserveAspectRatio="xMinYMin meet" x="142" y="-369.327"/>
<text text-anchor="start" x="157" y="-359.4266" font-family="Helvetica,sans-Serif" font-size="11.00" fill="#000000">id</text>
<polygon fill="#ffffff" stroke="transparent" points="137,-330.3266 137,-352.3266 281,-352.3266 281,-330.3266 137,-330.3266"/>
<polygon fill="none" stroke="#000000" points="137,-330.3266 137,-352.3266 281,-352.3266 281,-330.3266 137,-330.3266"/>
<text text-anchor="start" x="157" y="-337.4266" font-family="Helvetica,sans-Serif" font-size="11.00" fill="#000000">name</text>
<polygon fill="#c0c0c0" stroke="transparent" points="137,-308.3266 137,-330.3266 281,-330.3266 281,-308.3266 137,-308.3266"/>
<polygon fill="none" stroke="#000000" points="137,-308.3266 137,-330.3266 281,-330.3266 281,-308.3266 137,-308.3266"/>
<image xlink:href="../../images/foreignKeys.png" width="11px" height="12px" preserveAspectRatio="xMinYMin meet" x="142" y="-325.327"/>
<text text-anchor="start" x="157" y="-315.4266" font-family="Helvetica,sans-Serif" font-size="11.00" fill="#000000">modified_user_id</text>
<polygon fill="#c0c0c0" stroke="transparent" points="137,-286.3266 137,-308.3266 281,-308.3266 281,-286.3266 137,-286.3266"/>
<polygon fill="none" stroke="#000000" points="137,-286.3266 137,-308.3266 281,-308.3266 281,-286.3266 137,-286.3266"/>
<image xlink:href="../../images/foreignKeys.png" width="11px" height="12px" preserveAspectRatio="xMinYMin meet" x="142" y="-303.327"/>
<text text-anchor="start" x="157" y="-293.4266" font-family="Helvetica,sans-Serif" font-size="11.00" fill="#000000">created_by</text>
<polygon fill="#c0c0c0" stroke="transparent" points="137,-264.3266 137,-286.3266 281,-286.3266 281,-264.3266 137,-264.3266"/>
<polygon fill="none" stroke="#000000" points="137,-264.3266 137,-286.3266 281,-286.3266 281,-264.3266 137,-264.3266"/>
<image xlink:href="../../images/foreignKeys.png" width="11px" height="12px" preserveAspectRatio="xMinYMin meet" x="142" y="-281.327"/>
<text text-anchor="start" x="157" y="-271.4266" font-family="Helvetica,sans-Serif" font-size="11.00" fill="#000000">assigned_user_id</text>
<polygon fill="#ffffff" stroke="transparent" points="137,-242.3266 137,-264.3266 281,-264.3266 281,-242.3266 137,-242.3266"/>
<polygon fill="none" stroke="#000000" points="137,-242.3266 137,-264.3266 281,-264.3266 281,-242.3266 137,-242.3266"/>
<text text-anchor="start" x="157" y="-249.4266" font-family="Helvetica,sans-Serif" font-size="11.00" fill="#000000">tracker_key</text>
<polygon fill="#ffffff" stroke="transparent" points="137,-220.3266 137,-242.3266 281,-242.3266 281,-220.3266 137,-220.3266"/>
<polygon fill="none" stroke="#000000" points="137,-220.3266 137,-242.3266 281,-242.3266 281,-220.3266 137,-220.3266"/>
<image xlink:href="../../images/foreignKeys.png" width="11px" height="12px" preserveAspectRatio="xMinYMin meet" x="142" y="-237.327"/>
<text text-anchor="start" x="157" y="-227.4266" font-family="Helvetica,sans-Serif" font-size="11.00" fill="#000000">survey_id</text>
<polygon fill="none" stroke="#000000" points="137,-201.3266 137,-220.3266 281,-220.3266 281,-201.3266 137,-201.3266"/>
<text text-anchor="start" x="140" y="-207.4266" font-family="Helvetica,sans-Serif" font-size="11.00" fill="#000000">...</text>
<polygon fill="#ffffff" stroke="transparent" points="137,-182.3266 137,-201.3266 200,-201.3266 200,-182.3266 137,-182.3266"/>
<polygon fill="none" stroke="#000000" points="137,-182.3266 137,-201.3266 200,-201.3266 200,-182.3266 137,-182.3266"/>
<text text-anchor="start" x="140" y="-188.4266" font-family="Helvetica,sans-Serif" font-size="11.00" fill="#000000">&lt; 4</text>
<polygon fill="#ffffff" stroke="transparent" points="200,-182.3266 200,-201.3266 233,-201.3266 233,-182.3266 200,-182.3266"/>
<polygon fill="none" stroke="#000000" points="200,-182.3266 200,-201.3266 233,-201.3266 233,-182.3266 200,-182.3266"/>
<text text-anchor="start" x="223.8862" y="-188.4266" font-family="Helvetica,sans-Serif" font-size="11.00" fill="#000000"> &#160;</text>
<polygon fill="#ffffff" stroke="transparent" points="233,-182.3266 233,-201.3266 281,-201.3266 281,-182.3266 233,-182.3266"/>
<polygon fill="none" stroke="#000000" points="233,-182.3266 233,-201.3266 281,-201.3266 281,-182.3266 233,-182.3266"/>
<text text-anchor="start" x="256.2904" y="-188.4266" font-family="Helvetica,sans-Serif" font-size="11.00" fill="#000000">13 &gt;</text>
</a>
</g>
</g>
<!-- accounts&#45;&gt;campaigns -->
<g id="edge1" class="edge">
<title>accounts:w&#45;&gt;campaigns:e</title>
<path fill="none" stroke="#000000" d="M374.8093,-197.4061C350.4212,-201.3906 340.5498,-216.2985 322,-240.3266 286.7868,-285.9394 338.6237,-363.3266 281,-363.3266"/>
<polygon fill="#000000" stroke="#000000" points="381.5215,-196.9129 389.7638,-199.917 385.5108,-196.6198 389.5,-196.3266 389.5,-196.3266 389.5,-196.3266 385.5108,-196.6198 389.2362,-192.7363 381.5215,-196.9129 381.5215,-196.9129"/>
<ellipse fill="none" stroke="#000000" cx="378.3301" cy="-197.1474" rx="3.2" ry="3.2"/>
</g>
<!-- surveys -->
<g id="node8" class="node">
<title>surveys</title>
<g id="a_node8"><a xlink:href="../../tables/surveys.html" xlink:title="surveys" target="_top">
<polygon fill="#ffffff" stroke="transparent" points="8,-58.8266 8,-119.8266 88,-119.8266 88,-58.8266 8,-58.8266"/>
<polygon fill="#f5f5f5" stroke="transparent" points="8,-96.3266 8,-119.3266 88,-119.3266 88,-96.3266 8,-96.3266"/>
<polygon fill="none" stroke="#000000" points="8,-96.3266 8,-119.3266 88,-119.3266 88,-96.3266 8,-96.3266"/>
<text text-anchor="start" x="12.5542" y="-105.4266" font-family="Helvetica,sans-Serif" font-weight="bold" font-size="11.00" fill="#000000">surveys</text>
<text text-anchor="start" x="53.5219" y="-104.4266" font-family="Helvetica,sans-Serif" font-size="11.00" fill="#000000">[table]</text>
<polygon fill="none" stroke="#000000" points="8,-77.3266 8,-96.3266 88,-96.3266 88,-77.3266 8,-77.3266"/>
<text text-anchor="start" x="11" y="-83.4266" font-family="Helvetica,sans-Serif" font-size="11.00" fill="#000000">...</text>
<polygon fill="#ffffff" stroke="transparent" points="8,-58.3266 8,-77.3266 42,-77.3266 42,-58.3266 8,-58.3266"/>
<polygon fill="none" stroke="#000000" points="8,-58.3266 8,-77.3266 42,-77.3266 42,-58.3266 8,-58.3266"/>
<text text-anchor="start" x="11" y="-64.4266" font-family="Helvetica,sans-Serif" font-size="11.00" fill="#000000">&lt; 3</text>
<polygon fill="#ffffff" stroke="transparent" points="42,-58.3266 42,-77.3266 60,-77.3266 60,-58.3266 42,-58.3266"/>
<polygon fill="none" stroke="#000000" points="42,-58.3266 42,-77.3266 60,-77.3266 60,-58.3266 42,-58.3266"/>
<text text-anchor="start" x="50.8862" y="-64.4266" font-family="Helvetica,sans-Serif" font-size="11.00" fill="#000000"> &#160;</text>
<polygon fill="#ffffff" stroke="transparent" points="60,-58.3266 60,-77.3266 88,-77.3266 88,-58.3266 60,-58.3266"/>
<polygon fill="none" stroke="#000000" points="60,-58.3266 60,-77.3266 88,-77.3266 88,-58.3266 60,-58.3266"/>
<text text-anchor="start" x="69.4053" y="-64.4266" font-family="Helvetica,sans-Serif" font-size="11.00" fill="#000000">5 &gt;</text>
</a>
</g>
</g>
<!-- campaigns&#45;&gt;surveys -->
<g id="edge8" class="edge">
<title>campaigns:w&#45;&gt;surveys:e</title>
<path fill="none" stroke="#000000" d="M122.7013,-228.2981C82.7917,-207.4756 150.1788,-86.3266 88,-86.3266"/>
<polygon fill="#000000" stroke="#000000" points="129.1736,-229.6689 136.254,-234.8485 133.0868,-230.4978 137,-231.3266 137,-231.3266 137,-231.3266 133.0868,-230.4978 137.746,-227.8048 129.1736,-229.6689 129.1736,-229.6689"/>
<ellipse fill="none" stroke="#000000" cx="126.0431" cy="-229.0058" rx="3.2" ry="3.2"/>
</g>
<!-- campaign_log -->
<g id="node3" class="node">
<title>campaign_log</title>
<g id="a_node3"><a xlink:href="../../tables/campaign_log.html" xlink:title="campaign_log" target="_top">
<polygon fill="#ffffff" stroke="transparent" points="729,-276.8266 729,-337.8266 840,-337.8266 840,-276.8266 729,-276.8266"/>
<polygon fill="#f5f5f5" stroke="transparent" points="729.5,-314.3266 729.5,-337.3266 840.5,-337.3266 840.5,-314.3266 729.5,-314.3266"/>
<polygon fill="none" stroke="#000000" points="729.5,-314.3266 729.5,-337.3266 840.5,-337.3266 840.5,-314.3266 729.5,-314.3266"/>
<text text-anchor="start" x="734.2686" y="-323.4266" font-family="Helvetica,sans-Serif" font-weight="bold" font-size="11.00" fill="#000000">campaign_log</text>
<text text-anchor="start" x="806.0219" y="-322.4266" font-family="Helvetica,sans-Serif" font-size="11.00" fill="#000000">[table]</text>
<polygon fill="none" stroke="#000000" points="729.5,-295.3266 729.5,-314.3266 840.5,-314.3266 840.5,-295.3266 729.5,-295.3266"/>
<text text-anchor="start" x="732.5" y="-301.4266" font-family="Helvetica,sans-Serif" font-size="11.00" fill="#000000">...</text>
<polygon fill="#ffffff" stroke="transparent" points="729.5,-276.3266 729.5,-295.3266 778.5,-295.3266 778.5,-276.3266 729.5,-276.3266"/>
<polygon fill="none" stroke="#000000" points="729.5,-276.3266 729.5,-295.3266 778.5,-295.3266 778.5,-276.3266 729.5,-276.3266"/>
<text text-anchor="start" x="732.5" y="-282.4266" font-family="Helvetica,sans-Serif" font-size="11.00" fill="#000000">&lt; 5</text>
<polygon fill="#ffffff" stroke="transparent" points="778.5,-276.3266 778.5,-295.3266 804.5,-295.3266 804.5,-276.3266 778.5,-276.3266"/>
<polygon fill="none" stroke="#000000" points="778.5,-276.3266 778.5,-295.3266 804.5,-295.3266 804.5,-276.3266 778.5,-276.3266"/>
<text text-anchor="start" x="795.3862" y="-282.4266" font-family="Helvetica,sans-Serif" font-size="11.00" fill="#000000"> &#160;</text>
<polygon fill="#ffffff" stroke="transparent" points="804.5,-276.3266 804.5,-295.3266 840.5,-295.3266 840.5,-276.3266 804.5,-276.3266"/>
<polygon fill="none" stroke="#000000" points="804.5,-276.3266 804.5,-295.3266 840.5,-295.3266 840.5,-276.3266 804.5,-276.3266"/>
<text text-anchor="start" x="821.9053" y="-282.4266" font-family="Helvetica,sans-Serif" font-size="11.00" fill="#000000">5 &gt;</text>
</a>
</g>
</g>
<!-- campaign_log&#45;&gt;accounts -->
<g id="edge3" class="edge">
<title>campaign_log:w&#45;&gt;accounts:e</title>
<path fill="none" stroke="#000000" d="M715.4461,-301.0891C677.6064,-292.2812 576.3981,-268.5274 576,-268.3266 558.8248,-259.6672 558.3812,-251.8762 543,-240.3266 514.6606,-219.0469 511.9394,-196.3266 476.5,-196.3266"/>
<polygon fill="#000000" stroke="#000000" points="721.7042,-302.5307 728.6918,-307.8348 725.6021,-303.4287 729.5,-304.3266 729.5,-304.3266 729.5,-304.3266 725.6021,-303.4287 730.3082,-300.8185 721.7042,-302.5307 721.7042,-302.5307"/>
<ellipse fill="none" stroke="#000000" cx="718.5859" cy="-301.8123" rx="3.2" ry="3.2"/>
</g>
<!-- campaign_log&#45;&gt;campaigns -->
<g id="edge2" class="edge">
<title>campaign_log:w&#45;&gt;campaigns:e</title>
<path fill="none" stroke="#000000" d="M715.0829,-304.9718C638.3369,-310.2116 363.5413,-345.7909 322,-353.3266 303.5448,-356.6745 299.7564,-363.3266 281,-363.3266"/>
<polygon fill="#000000" stroke="#000000" points="721.508,-304.6843 729.661,-307.923 725.504,-304.5055 729.5,-304.3266 729.5,-304.3266 729.5,-304.3266 725.504,-304.5055 729.339,-300.7302 721.508,-304.6843 721.508,-304.6843"/>
<ellipse fill="none" stroke="#000000" cx="718.3112" cy="-304.8274" rx="3.2" ry="3.2"/>
</g>
<!-- contacts -->
<g id="node4" class="node">
<title>contacts</title>
<g id="a_node4"><a xlink:href="../../tables/contacts.html" xlink:title="contacts" target="_top">
<polygon fill="#ffffff" stroke="transparent" points="895,-276.8266 895,-337.8266 978,-337.8266 978,-276.8266 895,-276.8266"/>
<polygon fill="#f5f5f5" stroke="transparent" points="895.5,-314.3266 895.5,-337.3266 978.5,-337.3266 978.5,-314.3266 895.5,-314.3266"/>
<polygon fill="none" stroke="#000000" points="895.5,-314.3266 895.5,-337.3266 978.5,-337.3266 978.5,-314.3266 895.5,-314.3266"/>
<text text-anchor="start" x="900.0208" y="-323.4266" font-family="Helvetica,sans-Serif" font-weight="bold" font-size="11.00" fill="#000000">contacts</text>
<text text-anchor="start" x="944.0219" y="-322.4266" font-family="Helvetica,sans-Serif" font-size="11.00" fill="#000000">[table]</text>
<polygon fill="none" stroke="#000000" points="895.5,-295.3266 895.5,-314.3266 978.5,-314.3266 978.5,-295.3266 895.5,-295.3266"/>
<text text-anchor="start" x="898.5" y="-301.4266" font-family="Helvetica,sans-Serif" font-size="11.00" fill="#000000">...</text>
<polygon fill="#ffffff" stroke="transparent" points="895.5,-276.3266 895.5,-295.3266 927.5,-295.3266 927.5,-276.3266 895.5,-276.3266"/>
<polygon fill="none" stroke="#000000" points="895.5,-276.3266 895.5,-295.3266 927.5,-295.3266 927.5,-276.3266 895.5,-276.3266"/>
<text text-anchor="start" x="898.5" y="-282.4266" font-family="Helvetica,sans-Serif" font-size="11.00" fill="#000000">&lt; 7</text>
<polygon fill="#ffffff" stroke="transparent" points="927.5,-276.3266 927.5,-295.3266 945.5,-295.3266 945.5,-276.3266 927.5,-276.3266"/>
<polygon fill="none" stroke="#000000" points="927.5,-276.3266 927.5,-295.3266 945.5,-295.3266 945.5,-276.3266 927.5,-276.3266"/>
<text text-anchor="start" x="936.3862" y="-282.4266" font-family="Helvetica,sans-Serif" font-size="11.00" fill="#000000"> &#160;</text>
<polygon fill="#ffffff" stroke="transparent" points="945.5,-276.3266 945.5,-295.3266 978.5,-295.3266 978.5,-276.3266 945.5,-276.3266"/>
<polygon fill="none" stroke="#000000" points="945.5,-276.3266 945.5,-295.3266 978.5,-295.3266 978.5,-276.3266 945.5,-276.3266"/>
<text text-anchor="start" x="953.7904" y="-282.4266" font-family="Helvetica,sans-Serif" font-size="11.00" fill="#000000">30 &gt;</text>
</a>
</g>
</g>
<!-- campaign_log&#45;&gt;contacts -->
<g id="edge4" class="edge">
<title>campaign_log:w&#45;&gt;contacts:e</title>
<path fill="none" stroke="#000000" d="M720.4984,-292.9075C720.8329,-286.1464 724.3956,-277.9311 729.5,-272.8266 739.2816,-263.045 968.7184,-263.045 978.5,-272.8266 988.3995,-282.7261 992.5,-304.3266 978.5,-304.3266"/>
<polygon fill="#000000" stroke="#000000" points="724.5474,-298.0439 726.6728,-306.5553 727.0237,-301.1853 729.5,-304.3266 729.5,-304.3266 729.5,-304.3266 727.0237,-301.1853 732.3272,-302.098 724.5474,-298.0439 724.5474,-298.0439"/>
<ellipse fill="none" stroke="#000000" cx="722.5664" cy="-295.5309" rx="3.2" ry="3.2"/>
</g>
<!-- leads -->
<g id="node5" class="node">
<title>leads</title>
<g id="a_node5"><a xlink:href="../../tables/leads.html" xlink:title="leads" target="_top">
<polygon fill="#ffffff" stroke="transparent" points="594.5,-196.8266 594.5,-257.8266 663.5,-257.8266 663.5,-196.8266 594.5,-196.8266"/>
<polygon fill="#f5f5f5" stroke="transparent" points="595,-234.3266 595,-257.3266 664,-257.3266 664,-234.3266 595,-234.3266"/>
<polygon fill="none" stroke="#000000" points="595,-234.3266 595,-257.3266 664,-257.3266 664,-234.3266 595,-234.3266"/>
<text text-anchor="start" x="599.8572" y="-243.4266" font-family="Helvetica,sans-Serif" font-weight="bold" font-size="11.00" fill="#000000">leads</text>
<text text-anchor="start" x="629.5219" y="-242.4266" font-family="Helvetica,sans-Serif" font-size="11.00" fill="#000000">[table]</text>
<polygon fill="none" stroke="#000000" points="595,-215.3266 595,-234.3266 664,-234.3266 664,-215.3266 595,-215.3266"/>
<text text-anchor="start" x="598" y="-221.4266" font-family="Helvetica,sans-Serif" font-size="11.00" fill="#000000">...</text>
<polygon fill="#ffffff" stroke="transparent" points="595,-196.3266 595,-215.3266 623,-215.3266 623,-196.3266 595,-196.3266"/>
<polygon fill="none" stroke="#000000" points="595,-196.3266 595,-215.3266 623,-215.3266 623,-196.3266 595,-196.3266"/>
<text text-anchor="start" x="598" y="-202.4266" font-family="Helvetica,sans-Serif" font-size="11.00" fill="#000000">&lt; 10</text>
<polygon fill="#ffffff" stroke="transparent" points="623,-196.3266 623,-215.3266 636,-215.3266 636,-196.3266 623,-196.3266"/>
<polygon fill="none" stroke="#000000" points="623,-196.3266 623,-215.3266 636,-215.3266 636,-196.3266 623,-196.3266"/>
<text text-anchor="start" x="626.8862" y="-202.4266" font-family="Helvetica,sans-Serif" font-size="11.00" fill="#000000"> &#160;</text>
<polygon fill="#ffffff" stroke="transparent" points="636,-196.3266 636,-215.3266 664,-215.3266 664,-196.3266 636,-196.3266"/>
<polygon fill="none" stroke="#000000" points="636,-196.3266 636,-215.3266 664,-215.3266 664,-196.3266 636,-196.3266"/>
<text text-anchor="start" x="639.2904" y="-202.4266" font-family="Helvetica,sans-Serif" font-size="11.00" fill="#000000">17 &gt;</text>
</a>
</g>
</g>
<!-- campaign_log&#45;&gt;leads -->
<g id="edge5" class="edge">
<title>campaign_log:w&#45;&gt;leads:e</title>
<path fill="none" stroke="#000000" d="M715.3769,-300.8891C689.018,-285.5766 704.2086,-224.3266 664,-224.3266"/>
<polygon fill="#000000" stroke="#000000" points="721.7269,-302.4347 728.6486,-307.8245 725.6135,-303.3807 729.5,-304.3266 729.5,-304.3266 729.5,-304.3266 725.6135,-303.3807 730.3514,-300.8288 721.7269,-302.4347 721.7269,-302.4347"/>
<ellipse fill="none" stroke="#000000" cx="718.6177" cy="-301.6779" rx="3.2" ry="3.2"/>
</g>
<!-- prospects -->
<g id="node6" class="node">
<title>prospects</title>
<g id="a_node6"><a xlink:href="../../tables/prospects.html" xlink:title="prospects" target="_top">
<polygon fill="#ffffff" stroke="transparent" points="584,-414.8266 584,-475.8266 674,-475.8266 674,-414.8266 584,-414.8266"/>
<polygon fill="#f5f5f5" stroke="transparent" points="584,-452.3266 584,-475.3266 674,-475.3266 674,-452.3266 584,-452.3266"/>
<polygon fill="none" stroke="#000000" points="584,-452.3266 584,-475.3266 674,-475.3266 674,-452.3266 584,-452.3266"/>
<text text-anchor="start" x="588.6608" y="-461.4266" font-family="Helvetica,sans-Serif" font-weight="bold" font-size="11.00" fill="#000000">prospects</text>
<text text-anchor="start" x="639.5219" y="-460.4266" font-family="Helvetica,sans-Serif" font-size="11.00" fill="#000000">[table]</text>
<polygon fill="none" stroke="#000000" points="584,-433.3266 584,-452.3266 674,-452.3266 674,-433.3266 584,-433.3266"/>
<text text-anchor="start" x="587" y="-439.4266" font-family="Helvetica,sans-Serif" font-size="11.00" fill="#000000">...</text>
<polygon fill="#ffffff" stroke="transparent" points="584,-414.3266 584,-433.3266 620,-433.3266 620,-414.3266 584,-414.3266"/>
<polygon fill="none" stroke="#000000" points="584,-414.3266 584,-433.3266 620,-433.3266 620,-414.3266 584,-414.3266"/>
<text text-anchor="start" x="587" y="-420.4266" font-family="Helvetica,sans-Serif" font-size="11.00" fill="#000000">&lt; 5</text>
<polygon fill="#ffffff" stroke="transparent" points="620,-414.3266 620,-433.3266 639,-433.3266 639,-414.3266 620,-414.3266"/>
<polygon fill="none" stroke="#000000" points="620,-414.3266 620,-433.3266 639,-433.3266 639,-414.3266 620,-414.3266"/>
<text text-anchor="start" x="629.8862" y="-420.4266" font-family="Helvetica,sans-Serif" font-size="11.00" fill="#000000"> &#160;</text>
<polygon fill="#ffffff" stroke="transparent" points="639,-414.3266 639,-433.3266 674,-433.3266 674,-414.3266 639,-414.3266"/>
<polygon fill="none" stroke="#000000" points="639,-414.3266 639,-433.3266 674,-433.3266 674,-414.3266 639,-414.3266"/>
<text text-anchor="start" x="649.2904" y="-420.4266" font-family="Helvetica,sans-Serif" font-size="11.00" fill="#000000">12 &gt;</text>
</a>
</g>
</g>
<!-- campaign_log&#45;&gt;prospects -->
<g id="edge6" class="edge">
<title>campaign_log:w&#45;&gt;prospects:e</title>
<path fill="none" stroke="#000000" d="M715.1852,-307.3373C675.7742,-327.5184 734.2974,-442.3266 674,-442.3266"/>
<polygon fill="#000000" stroke="#000000" points="721.6713,-305.9732 730.241,-307.8496 725.5856,-305.1499 729.5,-304.3266 729.5,-304.3266 729.5,-304.3266 725.5856,-305.1499 728.759,-300.8037 721.6713,-305.9732 721.6713,-305.9732"/>
<ellipse fill="none" stroke="#000000" cx="718.5398" cy="-306.6318" rx="3.2" ry="3.2"/>
</g>
<!-- contacts&#45;&gt;campaigns -->
<g id="edge9" class="edge">
<title>contacts:w&#45;&gt;campaigns:e</title>
<path fill="none" stroke="#000000" d="M881.7465,-309.0604C871.3765,-318.5973 872.7891,-339.9269 854,-348.3266 795.8572,-374.3196 344.6885,-363.3266 281,-363.3266"/>
<polygon fill="#000000" stroke="#000000" points="887.9355,-306.9303 896.6716,-307.7307 891.7178,-305.6285 895.5,-304.3266 895.5,-304.3266 895.5,-304.3266 891.7178,-305.6285 894.3284,-300.9226 887.9355,-306.9303 887.9355,-306.9303"/>
<ellipse fill="none" stroke="#000000" cx="884.9097" cy="-307.9717" rx="3.2" ry="3.2"/>
</g>
<!-- contacts&#45;&gt;campaign_log -->
<g id="edge10" class="edge">
<title>contacts:w&#45;&gt;campaign_log:e</title>
<path fill="none" stroke="#000000" d="M884.7872,-304.3266C868.5569,-304.3266 860.934,-304.3266 840.5,-304.3266"/>
<polygon fill="#000000" stroke="#000000" points="894.7,-300.3266 894.7,-308.3266 893.1,-308.3267 893.1,-300.3267 894.7,-300.3266"/>
<polyline fill="none" stroke="#000000" points="895.5,-304.3266 891.5,-304.3267 "/>
<ellipse fill="none" stroke="#000000" cx="888.3" cy="-304.3267" rx="3.2" ry="3.2"/>
</g>
<!-- leads&#45;&gt;accounts -->
<g id="edge13" class="edge">
<title>leads:w&#45;&gt;accounts:e</title>
<path fill="none" stroke="#000000" d="M580.5905,-223.6064C538.5164,-219.2237 525.4378,-196.3266 476.5,-196.3266"/>
<polygon fill="#000000" stroke="#000000" points="587.01,-223.9272 594.8202,-227.9222 591.005,-224.1269 595,-224.3266 595,-224.3266 595,-224.3266 591.005,-224.1269 595.1798,-220.7311 587.01,-223.9272 587.01,-223.9272"/>
<ellipse fill="none" stroke="#000000" cx="583.814" cy="-223.7674" rx="3.2" ry="3.2"/>
</g>
<!-- leads&#45;&gt;campaigns -->
<g id="edge14" class="edge">
<title>leads:w&#45;&gt;campaigns:e</title>
<path fill="none" stroke="#000000" d="M580.9415,-220.8437C562.3757,-209.2643 571.2169,-172.0177 543,-158.3266 498.8154,-136.8879 359.9797,-127.1907 322,-158.3266 250.1446,-217.234 373.9155,-363.3266 281,-363.3266"/>
<polygon fill="#000000" stroke="#000000" points="587.2348,-222.4028 594.1343,-227.821 591.1174,-223.3647 595,-224.3266 595,-224.3266 595,-224.3266 591.1174,-223.3647 595.8657,-220.8323 587.2348,-222.4028 587.2348,-222.4028"/>
<ellipse fill="none" stroke="#000000" cx="584.1287" cy="-221.6333" rx="3.2" ry="3.2"/>
</g>
<!-- leads&#45;&gt;campaign_log -->
<g id="edge16" class="edge">
<title>leads:w&#45;&gt;campaign_log:e</title>
<path fill="none" stroke="#000000" d="M604.6888,-220.3371C625.2739,-211.8609 671.5,-192.8266 671.5,-192.8266 703.378,-210.4815 683.8864,-243.3571 715,-262.3266 738.8954,-276.8953 821.5536,-252.2289 840.5,-272.8266 849.9778,-283.1306 854.5,-304.3266 840.5,-304.3266"/>
<polygon fill="#000000" stroke="#000000" points="597.2628,-227.7208 594.2167,-220.3233 595.6962,-219.7141 598.7423,-227.1115 597.2628,-227.7208"/>
<polyline fill="none" stroke="#000000" points="595,-224.3266 598.6987,-222.8036 "/>
<ellipse fill="none" stroke="#000000" cx="601.6577" cy="-221.5852" rx="3.2" ry="3.2"/>
</g>
<!-- leads&#45;&gt;contacts -->
<g id="edge15" class="edge">
<title>leads:w&#45;&gt;contacts:e</title>
<path fill="none" stroke="#000000" d="M608.3253,-218.8398C630.243,-209.8148 671.5,-192.8266 671.5,-192.8266 696.3049,-202.761 690.9803,-222.6206 715,-234.3266 821.3923,-286.1772 901.0964,-183.2918 978.5,-272.8266 987.656,-283.4176 992.5,-304.3266 978.5,-304.3266"/>
<polygon fill="#000000" stroke="#000000" points="602.3974,-221.2806 593.6293,-220.9978 598.6987,-222.8036 595,-224.3266 595,-224.3266 595,-224.3266 598.6987,-222.8036 596.3707,-227.6555 602.3974,-221.2806 602.3974,-221.2806"/>
<ellipse fill="none" stroke="#000000" cx="605.3564" cy="-220.0622" rx="3.2" ry="3.2"/>
</g>
<!-- opportunities -->
<g id="node11" class="node">
<title>opportunities</title>
<g id="a_node11"><a xlink:href="../../tables/opportunities.html" xlink:title="opportunities" target="_top">
<polygon fill="#ffffff" stroke="transparent" points="380,-250.8266 380,-311.8266 485,-311.8266 485,-250.8266 380,-250.8266"/>
<polygon fill="#f5f5f5" stroke="transparent" points="380.5,-288.3266 380.5,-311.3266 485.5,-311.3266 485.5,-288.3266 380.5,-288.3266"/>
<polygon fill="none" stroke="#000000" points="380.5,-288.3266 380.5,-311.3266 485.5,-311.3266 485.5,-288.3266 380.5,-288.3266"/>
<text text-anchor="start" x="385.0191" y="-297.4266" font-family="Helvetica,sans-Serif" font-weight="bold" font-size="11.00" fill="#000000">opportunities</text>
<text text-anchor="start" x="451.0219" y="-296.4266" font-family="Helvetica,sans-Serif" font-size="11.00" fill="#000000">[table]</text>
<polygon fill="none" stroke="#000000" points="380.5,-269.3266 380.5,-288.3266 485.5,-288.3266 485.5,-269.3266 380.5,-269.3266"/>
<text text-anchor="start" x="383.5" y="-275.4266" font-family="Helvetica,sans-Serif" font-size="11.00" fill="#000000">...</text>
<polygon fill="#ffffff" stroke="transparent" points="380.5,-250.3266 380.5,-269.3266 423.5,-269.3266 423.5,-250.3266 380.5,-250.3266"/>
<polygon fill="none" stroke="#000000" points="380.5,-250.3266 380.5,-269.3266 423.5,-269.3266 423.5,-250.3266 380.5,-250.3266"/>
<text text-anchor="start" x="383.5" y="-256.4266" font-family="Helvetica,sans-Serif" font-size="11.00" fill="#000000">&lt; 6</text>
<polygon fill="#ffffff" stroke="transparent" points="423.5,-250.3266 423.5,-269.3266 446.5,-269.3266 446.5,-250.3266 423.5,-250.3266"/>
<polygon fill="none" stroke="#000000" points="423.5,-250.3266 423.5,-269.3266 446.5,-269.3266 446.5,-250.3266 423.5,-250.3266"/>
<text text-anchor="start" x="437.3862" y="-256.4266" font-family="Helvetica,sans-Serif" font-size="11.00" fill="#000000"> &#160;</text>
<polygon fill="#ffffff" stroke="transparent" points="446.5,-250.3266 446.5,-269.3266 485.5,-269.3266 485.5,-250.3266 446.5,-250.3266"/>
<polygon fill="none" stroke="#000000" points="446.5,-250.3266 446.5,-269.3266 485.5,-269.3266 485.5,-250.3266 446.5,-250.3266"/>
<text text-anchor="start" x="460.7904" y="-256.4266" font-family="Helvetica,sans-Serif" font-size="11.00" fill="#000000">17 &gt;</text>
</a>
</g>
</g>
<!-- leads&#45;&gt;opportunities -->
<g id="edge17" class="edge">
<title>leads:w&#45;&gt;opportunities:e</title>
<path fill="none" stroke="#000000" d="M580.528,-225.771C540.0387,-234.3585 534.4636,-278.3266 485.5,-278.3266"/>
<polygon fill="#000000" stroke="#000000" points="587.0395,-225.1212 595.3575,-227.9088 591.0198,-224.7239 595,-224.3266 595,-224.3266 595,-224.3266 591.0198,-224.7239 594.6425,-220.7444 587.0395,-225.1212 587.0395,-225.1212"/>
<ellipse fill="none" stroke="#000000" cx="583.8554" cy="-225.439" rx="3.2" ry="3.2"/>
</g>
<!-- prospects&#45;&gt;campaigns -->
<g id="edge21" class="edge">
<title>prospects:w&#45;&gt;campaigns:e</title>
<path fill="none" stroke="#000000" d="M570.2682,-437.8881C560.5031,-429.6988 559.832,-412.3209 543,-404.3266 453.4075,-361.7753 419.4121,-391.9899 322,-373.3266 303.5787,-369.7973 299.7564,-363.3266 281,-363.3266"/>
<polygon fill="#000000" stroke="#000000" points="576.3878,-439.8661 582.8927,-445.7521 580.1939,-441.0964 584,-442.3266 584,-442.3266 584,-442.3266 580.1939,-441.0964 585.1073,-438.9011 576.3878,-439.8661 576.3878,-439.8661"/>
<ellipse fill="none" stroke="#000000" cx="573.3429" cy="-438.8819" rx="3.2" ry="3.2"/>
</g>
<!-- campaign_trkrs -->
<g id="node7" class="node">
<title>campaign_trkrs</title>
<g id="a_node7"><a xlink:href="../../tables/campaign_trkrs.html" xlink:title="campaign_trkrs" target="_top">
<polygon fill="#ffffff" stroke="transparent" points="330,-634.3266 330,-922.3266 535,-922.3266 535,-634.3266 330,-634.3266"/>
<polygon fill="#f5f5f5" stroke="transparent" points="332.5,-897.3266 332.5,-920.3266 533.5,-920.3266 533.5,-897.3266 332.5,-897.3266"/>
<polygon fill="none" stroke="#000000" points="332.5,-897.3266 332.5,-920.3266 533.5,-920.3266 533.5,-897.3266 332.5,-897.3266"/>
<text text-anchor="start" x="337.5" y="-906.4266" font-family="Helvetica,sans-Serif" font-weight="bold" font-size="11.00" fill="#000000">campaign_trkrs</text>
<text text-anchor="start" x="498.5437" y="-905.4266" font-family="Helvetica,sans-Serif" font-size="11.00" fill="#000000">[table]</text>
<polygon fill="none" stroke="#000000" points="332.5,-875.3266 332.5,-897.3266 466.5,-897.3266 466.5,-875.3266 332.5,-875.3266"/>
<image xlink:href="../../images/primaryKeys.png" width="11px" height="12px" preserveAspectRatio="xMinYMin meet" x="337.5" y="-892.327"/>
<text text-anchor="start" x="352.5" y="-882.4266" font-family="Helvetica,sans-Serif" font-size="11.00" fill="#000000">id</text>
<polygon fill="none" stroke="#000000" points="466.5,-875.3266 466.5,-897.3266 533.5,-897.3266 533.5,-875.3266 466.5,-875.3266"/>
<text text-anchor="start" x="469.5" y="-883.0266" font-family="Helvetica,sans-Serif" font-size="11.00" fill="#000000">char[36]</text>
<polygon fill="none" stroke="#000000" points="332.5,-853.3266 332.5,-875.3266 466.5,-875.3266 466.5,-853.3266 332.5,-853.3266"/>
<text text-anchor="start" x="352.5" y="-860.4266" font-family="Helvetica,sans-Serif" font-size="11.00" fill="#000000">tracker_name</text>
<polygon fill="none" stroke="#000000" points="466.5,-853.3266 466.5,-875.3266 533.5,-875.3266 533.5,-853.3266 466.5,-853.3266"/>
<text text-anchor="start" x="469.4365" y="-861.0266" font-family="Helvetica,sans-Serif" font-size="11.00" fill="#000000">varchar[255]</text>
<polygon fill="none" stroke="#000000" points="332.5,-831.3266 332.5,-853.3266 466.5,-853.3266 466.5,-831.3266 332.5,-831.3266"/>
<text text-anchor="start" x="352.5" y="-838.4266" font-family="Helvetica,sans-Serif" font-size="11.00" fill="#000000">tracker_url</text>
<polygon fill="none" stroke="#000000" points="466.5,-831.3266 466.5,-853.3266 533.5,-853.3266 533.5,-831.3266 466.5,-831.3266"/>
<text text-anchor="start" x="469.4365" y="-839.0266" font-family="Helvetica,sans-Serif" font-size="11.00" fill="#000000">varchar[255]</text>
<polygon fill="#ffffff" stroke="transparent" points="332.5,-809.3266 332.5,-831.3266 466.5,-831.3266 466.5,-809.3266 332.5,-809.3266"/>
<polygon fill="none" stroke="#000000" points="332.5,-809.3266 332.5,-831.3266 466.5,-831.3266 466.5,-809.3266 332.5,-809.3266"/>
<text text-anchor="start" x="352.5" y="-816.4266" font-family="Helvetica,sans-Serif" font-size="11.00" fill="#000000">tracker_key</text>
<polygon fill="none" stroke="#000000" points="466.5,-809.3266 466.5,-831.3266 533.5,-831.3266 533.5,-809.3266 466.5,-809.3266"/>
<text text-anchor="start" x="469.5" y="-817.0266" font-family="Helvetica,sans-Serif" font-size="11.00" fill="#000000">int[10]</text>
<polygon fill="none" stroke="#000000" points="332.5,-787.3266 332.5,-809.3266 466.5,-809.3266 466.5,-787.3266 332.5,-787.3266"/>
<image xlink:href="../../images/foreignKeys.png" width="11px" height="12px" preserveAspectRatio="xMinYMin meet" x="337.5" y="-804.327"/>
<text text-anchor="start" x="352.5" y="-794.4266" font-family="Helvetica,sans-Serif" font-size="11.00" fill="#000000">campaign_id</text>
<polygon fill="none" stroke="#000000" points="466.5,-787.3266 466.5,-809.3266 533.5,-809.3266 533.5,-787.3266 466.5,-787.3266"/>
<text text-anchor="start" x="469.5" y="-795.0266" font-family="Helvetica,sans-Serif" font-size="11.00" fill="#000000">char[36]</text>
<polygon fill="none" stroke="#000000" points="332.5,-765.3266 332.5,-787.3266 466.5,-787.3266 466.5,-765.3266 332.5,-765.3266"/>
<text text-anchor="start" x="352.5" y="-772.4266" font-family="Helvetica,sans-Serif" font-size="11.00" fill="#000000">date_entered</text>
<polygon fill="none" stroke="#000000" points="466.5,-765.3266 466.5,-787.3266 533.5,-787.3266 533.5,-765.3266 466.5,-765.3266"/>
<text text-anchor="start" x="469.5" y="-773.0266" font-family="Helvetica,sans-Serif" font-size="11.00" fill="#000000">datetime[26]</text>
<polygon fill="none" stroke="#000000" points="332.5,-743.3266 332.5,-765.3266 466.5,-765.3266 466.5,-743.3266 332.5,-743.3266"/>
<text text-anchor="start" x="352.5" y="-750.4266" font-family="Helvetica,sans-Serif" font-size="11.00" fill="#000000">date_modified</text>
<polygon fill="none" stroke="#000000" points="466.5,-743.3266 466.5,-765.3266 533.5,-765.3266 533.5,-743.3266 466.5,-743.3266"/>
<text text-anchor="start" x="469.5" y="-751.0266" font-family="Helvetica,sans-Serif" font-size="11.00" fill="#000000">datetime[26]</text>
<polygon fill="none" stroke="#000000" points="332.5,-721.3266 332.5,-743.3266 466.5,-743.3266 466.5,-721.3266 332.5,-721.3266"/>
<text text-anchor="start" x="352.5" y="-728.4266" font-family="Helvetica,sans-Serif" font-size="11.00" fill="#000000">modified_user_id</text>
<polygon fill="none" stroke="#000000" points="466.5,-721.3266 466.5,-743.3266 533.5,-743.3266 533.5,-721.3266 466.5,-721.3266"/>
<text text-anchor="start" x="469.5" y="-729.0266" font-family="Helvetica,sans-Serif" font-size="11.00" fill="#000000">char[36]</text>
<polygon fill="none" stroke="#000000" points="332.5,-699.3266 332.5,-721.3266 466.5,-721.3266 466.5,-699.3266 332.5,-699.3266"/>
<text text-anchor="start" x="352.5" y="-706.4266" font-family="Helvetica,sans-Serif" font-size="11.00" fill="#000000">created_by</text>
<polygon fill="none" stroke="#000000" points="466.5,-699.3266 466.5,-721.3266 533.5,-721.3266 533.5,-699.3266 466.5,-699.3266"/>
<text text-anchor="start" x="469.5" y="-707.0266" font-family="Helvetica,sans-Serif" font-size="11.00" fill="#000000">char[36]</text>
<polygon fill="none" stroke="#000000" points="332.5,-677.3266 332.5,-699.3266 466.5,-699.3266 466.5,-677.3266 332.5,-677.3266"/>
<text text-anchor="start" x="352.5" y="-684.4266" font-family="Helvetica,sans-Serif" font-size="11.00" fill="#000000">is_optout</text>
<polygon fill="none" stroke="#000000" points="466.5,-677.3266 466.5,-699.3266 533.5,-699.3266 533.5,-677.3266 466.5,-677.3266"/>
<text text-anchor="start" x="469.5" y="-685.0266" font-family="Helvetica,sans-Serif" font-size="11.00" fill="#000000">bit[1]</text>
<polygon fill="none" stroke="#000000" points="332.5,-655.3266 332.5,-677.3266 466.5,-677.3266 466.5,-655.3266 332.5,-655.3266"/>
<text text-anchor="start" x="352.5" y="-662.4266" font-family="Helvetica,sans-Serif" font-size="11.00" fill="#000000">deleted</text>
<polygon fill="none" stroke="#000000" points="466.5,-655.3266 466.5,-677.3266 533.5,-677.3266 533.5,-655.3266 466.5,-655.3266"/>
<text text-anchor="start" x="469.5" y="-663.0266" font-family="Helvetica,sans-Serif" font-size="11.00" fill="#000000">bit[1]</text>
<polygon fill="#ffffff" stroke="transparent" points="332.5,-636.3266 332.5,-655.3266 403.5,-655.3266 403.5,-636.3266 332.5,-636.3266"/>
<polygon fill="none" stroke="#000000" points="332.5,-636.3266 332.5,-655.3266 403.5,-655.3266 403.5,-636.3266 332.5,-636.3266"/>
<text text-anchor="start" x="335.5" y="-642.4266" font-family="Helvetica,sans-Serif" font-size="11.00" fill="#000000">&lt; 1</text>
<polygon fill="#ffffff" stroke="transparent" points="403.5,-636.3266 403.5,-655.3266 466.5,-655.3266 466.5,-636.3266 403.5,-636.3266"/>
<polygon fill="none" stroke="#000000" points="403.5,-636.3266 403.5,-655.3266 466.5,-655.3266 466.5,-636.3266 403.5,-636.3266"/>
<text text-anchor="start" x="457.3862" y="-642.4266" font-family="Helvetica,sans-Serif" font-size="11.00" fill="#000000"> &#160;</text>
<polygon fill="#ffffff" stroke="transparent" points="466.5,-636.3266 466.5,-655.3266 533.5,-655.3266 533.5,-636.3266 466.5,-636.3266"/>
<polygon fill="none" stroke="#000000" points="466.5,-636.3266 466.5,-655.3266 533.5,-655.3266 533.5,-636.3266 466.5,-636.3266"/>
<text text-anchor="start" x="514.9053" y="-642.4266" font-family="Helvetica,sans-Serif" font-size="11.00" fill="#000000">0 &gt;</text>
<polygon fill="none" stroke="#000000" stroke-width="2" points="331,-635.3266 331,-921.3266 534,-921.3266 534,-635.3266 331,-635.3266"/>
</a>
</g>
</g>
<!-- campaign_trkrs&#45;&gt;campaigns -->
<g id="edge7" class="edge">
<title>campaign_trkrs:w&#45;&gt;campaigns:e</title>
<path fill="none" stroke="#000000" d="M318.187,-794.2981C250.6066,-750.4448 372.8283,-363.3266 281,-363.3266"/>
<polygon fill="#000000" stroke="#000000" points="324.7992,-796.1591 331.5246,-801.792 328.6496,-797.2429 332.5,-798.3266 332.5,-798.3266 332.5,-798.3266 328.6496,-797.2429 333.4754,-794.8613 324.7992,-796.1591 324.7992,-796.1591"/>
<ellipse fill="none" stroke="#000000" cx="321.7189" cy="-795.2921" rx="3.2" ry="3.2"/>
</g>
<!-- email_marketing -->
<g id="node9" class="node">
<title>email_marketing</title>
<g id="a_node9"><a xlink:href="../../tables/email_marketing.html" xlink:title="email_marketing" target="_top">
<polygon fill="#ffffff" stroke="transparent" points="723,-553.8266 723,-614.8266 846,-614.8266 846,-553.8266 723,-553.8266"/>
<polygon fill="#f5f5f5" stroke="transparent" points="723.5,-591.3266 723.5,-614.3266 846.5,-614.3266 846.5,-591.3266 723.5,-591.3266"/>
<polygon fill="none" stroke="#000000" points="723.5,-591.3266 723.5,-614.3266 846.5,-614.3266 846.5,-591.3266 723.5,-591.3266"/>
<text text-anchor="start" x="728.1652" y="-600.4266" font-family="Helvetica,sans-Serif" font-weight="bold" font-size="11.00" fill="#000000">email_marketing</text>
<text text-anchor="start" x="812.0219" y="-599.4266" font-family="Helvetica,sans-Serif" font-size="11.00" fill="#000000">[table]</text>
<polygon fill="none" stroke="#000000" points="723.5,-572.3266 723.5,-591.3266 846.5,-591.3266 846.5,-572.3266 723.5,-572.3266"/>
<text text-anchor="start" x="726.5" y="-578.4266" font-family="Helvetica,sans-Serif" font-size="11.00" fill="#000000">...</text>
<polygon fill="#ffffff" stroke="transparent" points="723.5,-553.3266 723.5,-572.3266 778.5,-572.3266 778.5,-553.3266 723.5,-553.3266"/>
<polygon fill="none" stroke="#000000" points="723.5,-553.3266 723.5,-572.3266 778.5,-572.3266 778.5,-553.3266 723.5,-553.3266"/>
<text text-anchor="start" x="726.5" y="-559.4266" font-family="Helvetica,sans-Serif" font-size="11.00" fill="#000000">&lt; 2</text>
<polygon fill="#ffffff" stroke="transparent" points="778.5,-553.3266 778.5,-572.3266 807.5,-572.3266 807.5,-553.3266 778.5,-553.3266"/>
<polygon fill="none" stroke="#000000" points="778.5,-553.3266 778.5,-572.3266 807.5,-572.3266 807.5,-553.3266 778.5,-553.3266"/>
<text text-anchor="start" x="798.3862" y="-559.4266" font-family="Helvetica,sans-Serif" font-size="11.00" fill="#000000"> &#160;</text>
<polygon fill="#ffffff" stroke="transparent" points="807.5,-553.3266 807.5,-572.3266 846.5,-572.3266 846.5,-553.3266 807.5,-553.3266"/>
<polygon fill="none" stroke="#000000" points="807.5,-553.3266 807.5,-572.3266 846.5,-572.3266 846.5,-553.3266 807.5,-553.3266"/>
<text text-anchor="start" x="827.9053" y="-559.4266" font-family="Helvetica,sans-Serif" font-size="11.00" fill="#000000">2 &gt;</text>
</a>
</g>
</g>
<!-- email_marketing&#45;&gt;campaigns -->
<g id="edge11" class="edge">
<title>email_marketing:w&#45;&gt;campaigns:e</title>
<path fill="none" stroke="#000000" d="M709.0504,-581.8404C610.363,-588.2167 386.9799,-650.8706 322,-596.3266 241.4649,-528.7256 386.1466,-363.3266 281,-363.3266"/>
<polygon fill="#000000" stroke="#000000" points="715.5051,-581.611 723.628,-584.9244 719.5025,-581.4688 723.5,-581.3266 723.5,-581.3266 723.5,-581.3266 719.5025,-581.4688 723.372,-577.7289 715.5051,-581.611 715.5051,-581.611"/>
<ellipse fill="none" stroke="#000000" cx="712.3071" cy="-581.7247" rx="3.2" ry="3.2"/>
</g>
<!-- emailman -->
<g id="node10" class="node">
<title>emailman</title>
<g id="a_node10"><a xlink:href="../../tables/emailman.html" xlink:title="emailman" target="_top">
<polygon fill="#ffffff" stroke="transparent" points="387.5,-524.8266 387.5,-585.8266 477.5,-585.8266 477.5,-524.8266 387.5,-524.8266"/>
<polygon fill="#f5f5f5" stroke="transparent" points="387.5,-562.3266 387.5,-585.3266 477.5,-585.3266 477.5,-562.3266 387.5,-562.3266"/>
<polygon fill="none" stroke="#000000" points="387.5,-562.3266 387.5,-585.3266 477.5,-585.3266 477.5,-562.3266 387.5,-562.3266"/>
<text text-anchor="start" x="392.1674" y="-571.4266" font-family="Helvetica,sans-Serif" font-weight="bold" font-size="11.00" fill="#000000">emailman</text>
<text text-anchor="start" x="443.0219" y="-570.4266" font-family="Helvetica,sans-Serif" font-size="11.00" fill="#000000">[table]</text>
<polygon fill="none" stroke="#000000" points="387.5,-543.3266 387.5,-562.3266 477.5,-562.3266 477.5,-543.3266 387.5,-543.3266"/>
<text text-anchor="start" x="390.5" y="-549.4266" font-family="Helvetica,sans-Serif" font-size="11.00" fill="#000000">...</text>
<polygon fill="#ffffff" stroke="transparent" points="387.5,-524.3266 387.5,-543.3266 430.5,-543.3266 430.5,-524.3266 387.5,-524.3266"/>
<polygon fill="none" stroke="#000000" points="387.5,-524.3266 387.5,-543.3266 430.5,-543.3266 430.5,-524.3266 387.5,-524.3266"/>
<text text-anchor="start" x="390.5" y="-530.4266" font-family="Helvetica,sans-Serif" font-size="11.00" fill="#000000">&lt; 1</text>
<polygon fill="#ffffff" stroke="transparent" points="430.5,-524.3266 430.5,-543.3266 453.5,-543.3266 453.5,-524.3266 430.5,-524.3266"/>
<polygon fill="none" stroke="#000000" points="430.5,-524.3266 430.5,-543.3266 453.5,-543.3266 453.5,-524.3266 430.5,-524.3266"/>
<text text-anchor="start" x="444.3862" y="-530.4266" font-family="Helvetica,sans-Serif" font-size="11.00" fill="#000000"> &#160;</text>
<polygon fill="#ffffff" stroke="transparent" points="453.5,-524.3266 453.5,-543.3266 477.5,-543.3266 477.5,-524.3266 453.5,-524.3266"/>
<polygon fill="none" stroke="#000000" points="453.5,-524.3266 453.5,-543.3266 477.5,-543.3266 477.5,-524.3266 453.5,-524.3266"/>
<text text-anchor="start" x="468.3862" y="-530.4266" font-family="Helvetica,sans-Serif" font-size="11.00" fill="#000000"> &#160;</text>
</a>
</g>
</g>
<!-- emailman&#45;&gt;campaigns -->
<g id="edge12" class="edge">
<title>emailman:w&#45;&gt;campaigns:e</title>
<path fill="none" stroke="#000000" d="M372.932,-551.2898C349.4294,-547.5608 339.3387,-533.7947 322,-510.3266 281.6952,-455.7738 348.8269,-363.3266 281,-363.3266"/>
<polygon fill="#000000" stroke="#000000" points="379.5202,-551.7586 387.2444,-555.9176 383.5101,-552.0426 387.5,-552.3266 387.5,-552.3266 387.5,-552.3266 383.5101,-552.0426 387.7556,-548.7357 379.5202,-551.7586 379.5202,-551.7586"/>
<ellipse fill="none" stroke="#000000" cx="376.3283" cy="-551.5314" rx="3.2" ry="3.2"/>
</g>
<!-- opportunities&#45;&gt;campaigns -->
<g id="edge18" class="edge">
<title>opportunities:w&#45;&gt;campaigns:e</title>
<path fill="none" stroke="#000000" d="M366.1659,-280.3894C346.3406,-286.9653 343.2094,-308.0728 322,-326.3266 303.3961,-342.338 305.5452,-363.3266 281,-363.3266"/>
<polygon fill="#000000" stroke="#000000" points="372.5816,-279.4662 381.0128,-281.8899 376.5408,-278.8964 380.5,-278.3266 380.5,-278.3266 380.5,-278.3266 376.5408,-278.8964 379.9872,-274.7633 372.5816,-279.4662 372.5816,-279.4662"/>
<ellipse fill="none" stroke="#000000" cx="369.4142" cy="-279.922" rx="3.2" ry="3.2"/>
</g>
<!-- opportunities&#45;&gt;campaign_log -->
<g id="edge19" class="edge">
<title>opportunities:w&#45;&gt;campaign_log:e</title>
<path fill="none" stroke="#000000" d="M390.8821,-275.4197C418.7324,-267.6216 493,-246.8266 493,-246.8266 533.7528,-257.2641 535.2472,-281.8892 576,-292.3266 621.6381,-304.0153 636.1492,-303.1506 682,-292.3266 700.8608,-287.8742 702.1392,-277.2791 721,-272.8266 721,-272.8266 840.5,-304.3266 840.5,-304.3266"/>
<polygon fill="#000000" stroke="#000000" points="382.3489,-281.9628 380.1918,-274.2591 381.7326,-273.8277 383.8897,-281.5314 382.3489,-281.9628"/>
<polyline fill="none" stroke="#000000" points="380.5,-278.3266 384.3519,-277.2481 "/>
<ellipse fill="none" stroke="#000000" cx="387.4333" cy="-276.3853" rx="3.2" ry="3.2"/>
</g>
<!-- prospect_list_campaigns -->
<g id="node12" class="node">
<title>prospect_list_campaigns</title>
<g id="a_node12"><a xlink:href="../../tables/prospect_list_campaigns.html" xlink:title="prospect_list_campaigns" target="_top">
<polygon fill="#ffffff" stroke="transparent" points="350.5,-414.8266 350.5,-475.8266 514.5,-475.8266 514.5,-414.8266 350.5,-414.8266"/>
<polygon fill="#f5f5f5" stroke="transparent" points="350.5,-452.3266 350.5,-475.3266 514.5,-475.3266 514.5,-452.3266 350.5,-452.3266"/>
<polygon fill="none" stroke="#000000" points="350.5,-452.3266 350.5,-475.3266 514.5,-475.3266 514.5,-452.3266 350.5,-452.3266"/>
<text text-anchor="start" x="355.4879" y="-461.4266" font-family="Helvetica,sans-Serif" font-weight="bold" font-size="11.00" fill="#000000">prospect_list_campaigns</text>
<text text-anchor="start" x="480.0219" y="-460.4266" font-family="Helvetica,sans-Serif" font-size="11.00" fill="#000000">[table]</text>
<polygon fill="none" stroke="#000000" points="350.5,-433.3266 350.5,-452.3266 514.5,-452.3266 514.5,-433.3266 350.5,-433.3266"/>
<text text-anchor="start" x="353.5" y="-439.4266" font-family="Helvetica,sans-Serif" font-size="11.00" fill="#000000">...</text>
<polygon fill="#ffffff" stroke="transparent" points="350.5,-414.3266 350.5,-433.3266 430.5,-433.3266 430.5,-414.3266 350.5,-414.3266"/>
<polygon fill="none" stroke="#000000" points="350.5,-414.3266 350.5,-433.3266 430.5,-433.3266 430.5,-414.3266 350.5,-414.3266"/>
<text text-anchor="start" x="353.5" y="-420.4266" font-family="Helvetica,sans-Serif" font-size="11.00" fill="#000000">&lt; 2</text>
<polygon fill="#ffffff" stroke="transparent" points="430.5,-414.3266 430.5,-433.3266 472.5,-433.3266 472.5,-414.3266 430.5,-414.3266"/>
<polygon fill="none" stroke="#000000" points="430.5,-414.3266 430.5,-433.3266 472.5,-433.3266 472.5,-414.3266 430.5,-414.3266"/>
<text text-anchor="start" x="463.3862" y="-420.4266" font-family="Helvetica,sans-Serif" font-size="11.00" fill="#000000"> &#160;</text>
<polygon fill="#ffffff" stroke="transparent" points="472.5,-414.3266 472.5,-433.3266 514.5,-433.3266 514.5,-414.3266 472.5,-414.3266"/>
<polygon fill="none" stroke="#000000" points="472.5,-414.3266 472.5,-433.3266 514.5,-433.3266 514.5,-414.3266 472.5,-414.3266"/>
<text text-anchor="start" x="505.3862" y="-420.4266" font-family="Helvetica,sans-Serif" font-size="11.00" fill="#000000"> &#160;</text>
</a>
</g>
</g>
<!-- prospect_list_campaigns&#45;&gt;campaigns -->
<g id="edge20" class="edge">
<title>prospect_list_campaigns:w&#45;&gt;campaigns:e</title>
<path fill="none" stroke="#000000" d="M336.3742,-439.1319C308.517,-424.3523 322.1016,-363.3266 281,-363.3266"/>
<polygon fill="#000000" stroke="#000000" points="342.6971,-440.5619 349.7058,-445.838 346.5985,-441.4442 350.5,-442.3266 350.5,-442.3266 350.5,-442.3266 346.5985,-441.4442 351.2942,-438.8153 342.6971,-440.5619 342.6971,-440.5619"/>
<ellipse fill="none" stroke="#000000" cx="339.5759" cy="-439.8559" rx="3.2" ry="3.2"/>
</g>
<!-- securitygroups_records -->
<g id="node13" class="node">
<title>securitygroups_records</title>
<g id="a_node13"><a xlink:href="../../tables/securitygroups_records.html" xlink:title="securitygroups_records" target="_top">
<polygon fill="#ffffff" stroke="transparent" points="1027,-276.8266 1027,-337.8266 1184,-337.8266 1184,-276.8266 1027,-276.8266"/>
<polygon fill="#f5f5f5" stroke="transparent" points="1027.5,-314.3266 1027.5,-337.3266 1184.5,-337.3266 1184.5,-314.3266 1027.5,-314.3266"/>
<polygon fill="none" stroke="#000000" points="1027.5,-314.3266 1027.5,-337.3266 1184.5,-337.3266 1184.5,-314.3266 1027.5,-314.3266"/>
<text text-anchor="start" x="1032.3528" y="-323.4266" font-family="Helvetica,sans-Serif" font-weight="bold" font-size="11.00" fill="#000000">securitygroups_records</text>
<text text-anchor="start" x="1150.0219" y="-322.4266" font-family="Helvetica,sans-Serif" font-size="11.00" fill="#000000">[table]</text>
<polygon fill="none" stroke="#000000" points="1027.5,-295.3266 1027.5,-314.3266 1184.5,-314.3266 1184.5,-295.3266 1027.5,-295.3266"/>
<text text-anchor="start" x="1030.5" y="-301.4266" font-family="Helvetica,sans-Serif" font-size="11.00" fill="#000000">...</text>
<polygon fill="#ffffff" stroke="transparent" points="1027.5,-276.3266 1027.5,-295.3266 1107.5,-295.3266 1107.5,-276.3266 1027.5,-276.3266"/>
<polygon fill="none" stroke="#000000" points="1027.5,-276.3266 1027.5,-295.3266 1107.5,-295.3266 1107.5,-276.3266 1027.5,-276.3266"/>
<text text-anchor="start" x="1030.5" y="-282.4266" font-family="Helvetica,sans-Serif" font-size="11.00" fill="#000000">&lt; 41</text>
<polygon fill="#ffffff" stroke="transparent" points="1107.5,-276.3266 1107.5,-295.3266 1145.5,-295.3266 1145.5,-276.3266 1107.5,-276.3266"/>
<polygon fill="none" stroke="#000000" points="1107.5,-276.3266 1107.5,-295.3266 1145.5,-295.3266 1145.5,-276.3266 1107.5,-276.3266"/>
<text text-anchor="start" x="1136.3862" y="-282.4266" font-family="Helvetica,sans-Serif" font-size="11.00" fill="#000000"> &#160;</text>
<polygon fill="#ffffff" stroke="transparent" points="1145.5,-276.3266 1145.5,-295.3266 1184.5,-295.3266 1184.5,-276.3266 1145.5,-276.3266"/>
<polygon fill="none" stroke="#000000" points="1145.5,-276.3266 1145.5,-295.3266 1184.5,-295.3266 1184.5,-276.3266 1145.5,-276.3266"/>
<text text-anchor="start" x="1175.3862" y="-282.4266" font-family="Helvetica,sans-Serif" font-size="11.00" fill="#000000"> &#160;</text>
</a>
</g>
</g>
<!-- securitygroups_records&#45;&gt;accounts -->
<g id="edge22" class="edge">
<title>securitygroups_records:w&#45;&gt;accounts:e</title>
<path fill="none" stroke="#000000" d="M1013.5545,-300.542C995.8966,-287.5358 1013.4794,-244.4242 986,-225.3266 835.6901,-120.8647 758.8152,-177.163 576,-186.3266 531.6107,-188.5517 520.945,-196.3266 476.5,-196.3266"/>
<polygon fill="#000000" stroke="#000000" points="1019.7793,-302.2313 1026.5571,-307.801 1023.6396,-303.279 1027.5,-304.3266 1027.5,-304.3266 1027.5,-304.3266 1023.6396,-303.279 1028.4429,-300.8523 1019.7793,-302.2313 1019.7793,-302.2313"/>
<ellipse fill="none" stroke="#000000" cx="1016.691" cy="-301.3931" rx="3.2" ry="3.2"/>
</g>
<!-- securitygroups_records&#45;&gt;campaigns -->
<g id="edge23" class="edge">
<title>securitygroups_records:w&#45;&gt;campaigns:e</title>
<path fill="none" stroke="#000000" d="M1013.0253,-306.6925C977.937,-320.8909 1024.5523,-395.4831 986,-434.3266 919.6155,-501.2126 878.7372,-500.3266 784.5,-500.3266 784.5,-500.3266 784.5,-500.3266 629,-500.3266 560.7069,-500.3266 376.4781,-527.5102 322,-486.3266 276.033,-451.5771 338.6237,-363.3266 281,-363.3266"/>
<polygon fill="#000000" stroke="#000000" points="1019.6048,-305.6171 1028.0807,-307.8795 1023.5524,-304.9719 1027.5,-304.3266 1027.5,-304.3266 1027.5,-304.3266 1023.5524,-304.9719 1026.9193,-300.7738 1019.6048,-305.6171 1019.6048,-305.6171"/>
<ellipse fill="none" stroke="#000000" cx="1016.4467" cy="-306.1333" rx="3.2" ry="3.2"/>
</g>
<!-- securitygroups_records&#45;&gt;contacts -->
<g id="edge24" class="edge">
<title>securitygroups_records:w&#45;&gt;contacts:e</title>
<path fill="none" stroke="#000000" d="M1012.9909,-304.3266C1001.6774,-304.3266 994.4931,-304.3266 978.5,-304.3266"/>
<polygon fill="#000000" stroke="#000000" points="1019.5,-304.3267 1027.5,-307.9266 1023.5,-304.3267 1027.5,-304.3266 1027.5,-304.3266 1027.5,-304.3266 1023.5,-304.3267 1027.5,-300.7266 1019.5,-304.3267 1019.5,-304.3267"/>
<ellipse fill="none" stroke="#000000" cx="1016.3" cy="-304.3267" rx="3.2" ry="3.2"/>
</g>
<!-- securitygroups_records&#45;&gt;leads -->
<g id="edge26" class="edge">
<title>securitygroups_records:w&#45;&gt;leads:e</title>
<path fill="none" stroke="#000000" d="M1013.5747,-300.0319C1003.5686,-292.0824 1002.5843,-275.0882 986,-266.3266 858.3904,-198.9098 808.3234,-224.3266 664,-224.3266"/>
<polygon fill="#000000" stroke="#000000" points="1019.8553,-301.9689 1026.439,-307.7668 1023.6777,-303.1478 1027.5,-304.3266 1027.5,-304.3266 1027.5,-304.3266 1023.6777,-303.1478 1028.561,-300.8865 1019.8553,-301.9689 1019.8553,-301.9689"/>
<ellipse fill="none" stroke="#000000" cx="1016.7974" cy="-301.0258" rx="3.2" ry="3.2"/>
</g>
<!-- securitygroups_records&#45;&gt;prospects -->
<g id="edge28" class="edge">
<title>securitygroups_records:w&#45;&gt;prospects:e</title>
<path fill="none" stroke="#000000" d="M1013.271,-307.6689C990.7878,-321.6681 1018.1312,-375.987 986,-400.3266 874.4692,-484.812 813.9174,-442.3266 674,-442.3266"/>
<polygon fill="#000000" stroke="#000000" points="1019.712,-306.156 1028.3232,-307.8313 1023.606,-305.2413 1027.5,-304.3266 1027.5,-304.3266 1027.5,-304.3266 1023.606,-305.2413 1026.6768,-300.822 1019.712,-306.156 1019.712,-306.156"/>
<ellipse fill="none" stroke="#000000" cx="1016.5968" cy="-306.8878" rx="3.2" ry="3.2"/>
</g>
<!-- securitygroups_records&#45;&gt;surveys -->
<g id="edge30" class="edge">
<title>securitygroups_records:w&#45;&gt;surveys:e</title>
<path fill="none" stroke="#000000" d="M1013.0619,-302.9125C948.9806,-288.5098 1042.6501,-167.6254 986,-103.3266 923.4227,-32.3004 879.1607,-34.3266 784.5,-34.3266 784.5,-34.3266 784.5,-34.3266 432.5,-34.3266 382.9963,-34.3266 370.9948,-41.2469 322,-48.3266 269.8603,-55.8608 140.6812,-86.3266 88,-86.3266"/>
<polygon fill="#000000" stroke="#000000" points="1019.5381,-303.5467 1027.149,-307.9095 1023.5191,-303.9367 1027.5,-304.3266 1027.5,-304.3266 1027.5,-304.3266 1023.5191,-303.9367 1027.851,-300.7438 1019.5381,-303.5467 1019.5381,-303.5467"/>
<ellipse fill="none" stroke="#000000" cx="1016.3533" cy="-303.2348" rx="3.2" ry="3.2"/>
</g>
<!-- securitygroups_records&#45;&gt;email_marketing -->
<g id="edge25" class="edge">
<title>securitygroups_records:w&#45;&gt;email_marketing:e</title>
<path fill="none" stroke="#000000" d="M1013.0873,-305.6443C946.2389,-319.5539 1039.1676,-440.301 986,-510.3266 943.9314,-565.7341 916.0683,-581.3266 846.5,-581.3266"/>
<polygon fill="#000000" stroke="#000000" points="1019.5332,-305.055 1027.8278,-307.9117 1023.5166,-304.6908 1027.5,-304.3266 1027.5,-304.3266 1027.5,-304.3266 1023.5166,-304.6908 1027.1722,-300.7416 1019.5332,-305.055 1019.5332,-305.055"/>
<ellipse fill="none" stroke="#000000" cx="1016.3465" cy="-305.3464" rx="3.2" ry="3.2"/>
</g>
<!-- securitygroups_records&#45;&gt;opportunities -->
<g id="edge27" class="edge">
<title>securitygroups_records:w&#45;&gt;opportunities:e</title>
<path fill="none" stroke="#000000" d="M1013.7643,-309.1011C1003.4272,-318.7129 1004.8974,-340.1735 986,-348.3266 875.4094,-396.0401 834.1504,-365.9347 715,-348.3266 651.157,-338.8919 637.7157,-325.1975 576,-306.3266 535.7368,-294.0153 527.6033,-278.3266 485.5,-278.3266"/>
<polygon fill="#000000" stroke="#000000" points="1019.9435,-306.9533 1028.682,-307.7271 1023.7217,-305.64 1027.5,-304.3266 1027.5,-304.3266 1027.5,-304.3266 1023.7217,-305.64 1026.318,-300.9262 1019.9435,-306.9533 1019.9435,-306.9533"/>
<ellipse fill="none" stroke="#000000" cx="1016.9209" cy="-308.0039" rx="3.2" ry="3.2"/>
</g>
<!-- surveyresponses -->
<g id="node14" class="node">
<title>surveyresponses</title>
<g id="a_node14"><a xlink:href="../../tables/surveyresponses.html" xlink:title="surveyresponses" target="_top">
<polygon fill="#ffffff" stroke="transparent" points="369.5,-58.8266 369.5,-119.8266 495.5,-119.8266 495.5,-58.8266 369.5,-58.8266"/>
<polygon fill="#f5f5f5" stroke="transparent" points="369.5,-96.3266 369.5,-119.3266 495.5,-119.3266 495.5,-96.3266 369.5,-96.3266"/>
<polygon fill="none" stroke="#000000" points="369.5,-96.3266 369.5,-119.3266 495.5,-119.3266 495.5,-96.3266 369.5,-96.3266"/>
<text text-anchor="start" x="374.436" y="-105.4266" font-family="Helvetica,sans-Serif" font-weight="bold" font-size="11.00" fill="#000000">surveyresponses</text>
<text text-anchor="start" x="461.0219" y="-104.4266" font-family="Helvetica,sans-Serif" font-size="11.00" fill="#000000">[table]</text>
<polygon fill="none" stroke="#000000" points="369.5,-77.3266 369.5,-96.3266 495.5,-96.3266 495.5,-77.3266 369.5,-77.3266"/>
<text text-anchor="start" x="372.5" y="-83.4266" font-family="Helvetica,sans-Serif" font-size="11.00" fill="#000000">...</text>
<polygon fill="#ffffff" stroke="transparent" points="369.5,-58.3266 369.5,-77.3266 426.5,-77.3266 426.5,-58.3266 369.5,-58.3266"/>
<polygon fill="none" stroke="#000000" points="369.5,-58.3266 369.5,-77.3266 426.5,-77.3266 426.5,-58.3266 369.5,-58.3266"/>
<text text-anchor="start" x="372.5" y="-64.4266" font-family="Helvetica,sans-Serif" font-size="11.00" fill="#000000">&lt; 5</text>
<polygon fill="#ffffff" stroke="transparent" points="426.5,-58.3266 426.5,-77.3266 456.5,-77.3266 456.5,-58.3266 426.5,-58.3266"/>
<polygon fill="none" stroke="#000000" points="426.5,-58.3266 426.5,-77.3266 456.5,-77.3266 456.5,-58.3266 426.5,-58.3266"/>
<text text-anchor="start" x="447.3862" y="-64.4266" font-family="Helvetica,sans-Serif" font-size="11.00" fill="#000000"> &#160;</text>
<polygon fill="#ffffff" stroke="transparent" points="456.5,-58.3266 456.5,-77.3266 495.5,-77.3266 495.5,-58.3266 456.5,-58.3266"/>
<polygon fill="none" stroke="#000000" points="456.5,-58.3266 456.5,-77.3266 495.5,-77.3266 495.5,-58.3266 456.5,-58.3266"/>
<text text-anchor="start" x="476.9053" y="-64.4266" font-family="Helvetica,sans-Serif" font-size="11.00" fill="#000000">3 &gt;</text>
</a>
</g>
</g>
<!-- securitygroups_records&#45;&gt;surveyresponses -->
<g id="edge29" class="edge">
<title>securitygroups_records:w&#45;&gt;surveyresponses:e</title>
<path fill="none" stroke="#000000" d="M1013.0069,-301.8621C978.1562,-287.0855 1027.44,-209.6558 986,-173.3266 819.5153,-27.3747 716.9026,-86.3266 495.5,-86.3266"/>
<polygon fill="#000000" stroke="#000000" points="1019.6132,-302.9855 1026.8965,-307.8757 1023.5566,-303.656 1027.5,-304.3266 1027.5,-304.3266 1027.5,-304.3266 1023.5566,-303.656 1028.1035,-300.7776 1019.6132,-302.9855 1019.6132,-302.9855"/>
<ellipse fill="none" stroke="#000000" cx="1016.4585" cy="-302.449" rx="3.2" ry="3.2"/>
</g>
<!-- surveyresponses&#45;&gt;campaigns -->
<g id="edge31" class="edge">
<title>surveyresponses:w&#45;&gt;campaigns:e</title>
<path fill="none" stroke="#000000" d="M355.156,-88.4735C337.756,-94.5223 333.2319,-112.6816 322,-134.3266 298.1883,-180.2145 332.6981,-363.3266 281,-363.3266"/>
<polygon fill="#000000" stroke="#000000" points="361.5881,-87.5108 370.0329,-89.887 365.5441,-86.9187 369.5,-86.3266 369.5,-86.3266 369.5,-86.3266 365.5441,-86.9187 368.9671,-82.7663 361.5881,-87.5108 361.5881,-87.5108"/>
<ellipse fill="none" stroke="#000000" cx="358.4234" cy="-87.9845" rx="3.2" ry="3.2"/>
</g>
<!-- surveyresponses&#45;&gt;surveys -->
<g id="edge32" class="edge">
<title>surveyresponses:w&#45;&gt;surveys:e</title>
<path fill="none" stroke="#000000" d="M354.9112,-86.3266C241.7338,-86.3266 208.1018,-86.3266 88,-86.3266"/>
<polygon fill="#000000" stroke="#000000" points="361.5,-86.3267 369.5,-89.9266 365.5,-86.3267 369.5,-86.3266 369.5,-86.3266 369.5,-86.3266 365.5,-86.3267 369.5,-82.7266 361.5,-86.3267 361.5,-86.3267"/>
<ellipse fill="none" stroke="#000000" cx="358.3" cy="-86.3267" rx="3.2" ry="3.2"/>
</g>
</g>
</svg>
