<?xml version="1.0" encoding="UTF-8" standalone="no"?>
<!DOCTYPE svg PUBLIC "-//W3C//DTD SVG 1.1//EN"
 "http://www.w3.org/Graphics/SVG/1.1/DTD/svg11.dtd">
<!-- Generated by graphviz version 2.40.1 (20161225.0304)
 -->
<!-- Title: oneDegreeRelationshipsDiagram Pages: 1 -->
<svg width="430pt" height="589pt"
 viewBox="0.00 0.00 430.00 589.20" xmlns="http://www.w3.org/2000/svg" xmlns:xlink="http://www.w3.org/1999/xlink">
<g id="graph0" class="graph" transform="scale(1 1) rotate(0) translate(4 585.2)">
<title>oneDegreeRelationshipsDiagram</title>
<polygon fill="#ffffff" stroke="transparent" points="-4,4 -4,-585.2 426,-585.2 426,4 -4,4"/>
<text text-anchor="middle" x="72.4936" y="-7.3" font-family="Helvetica,sans-Serif" font-size="11.00" fill="#000000">Generated by SchemaSpy</text>
<!-- cases_bugs -->
<g id="node1" class="node">
<title>cases_bugs</title>
<g id="a_node1"><a xlink:href="../../tables/cases_bugs.html" xlink:title="cases_bugs" target="_top">
<polygon fill="#ffffff" stroke="transparent" points="227,-304.7 227,-460.7 414,-460.7 414,-304.7 227,-304.7"/>
<polygon fill="#f5f5f5" stroke="transparent" points="229.5,-435.7 229.5,-458.7 412.5,-458.7 412.5,-435.7 229.5,-435.7"/>
<polygon fill="none" stroke="#000000" points="229.5,-435.7 229.5,-458.7 412.5,-458.7 412.5,-435.7 229.5,-435.7"/>
<text text-anchor="start" x="234.5" y="-444.8" font-family="Helvetica,sans-Serif" font-weight="bold" font-size="11.00" fill="#000000">cases_bugs</text>
<text text-anchor="start" x="377.5437" y="-443.8" font-family="Helvetica,sans-Serif" font-size="11.00" fill="#000000">[table]</text>
<polygon fill="none" stroke="#000000" points="229.5,-413.7 229.5,-435.7 346.5,-435.7 346.5,-413.7 229.5,-413.7"/>
<image xlink:href="../../images/primaryKeys.png" width="11px" height="12px" preserveAspectRatio="xMinYMin meet" x="234.5" y="-430.7"/>
<text text-anchor="start" x="249.5" y="-420.8" font-family="Helvetica,sans-Serif" font-size="11.00" fill="#000000">id</text>
<polygon fill="none" stroke="#000000" points="346.5,-413.7 346.5,-435.7 412.5,-435.7 412.5,-413.7 346.5,-413.7"/>
<text text-anchor="start" x="349.5" y="-421.4" font-family="Helvetica,sans-Serif" font-size="11.00" fill="#000000">varchar[36]</text>
<polygon fill="#ffffff" stroke="transparent" points="229.5,-391.7 229.5,-413.7 346.5,-413.7 346.5,-391.7 229.5,-391.7"/>
<polygon fill="none" stroke="#000000" points="229.5,-391.7 229.5,-413.7 346.5,-413.7 346.5,-391.7 229.5,-391.7"/>
<image xlink:href="../../images/foreignKeys.png" width="11px" height="12px" preserveAspectRatio="xMinYMin meet" x="234.5" y="-408.7"/>
<text text-anchor="start" x="249.5" y="-398.8" font-family="Helvetica,sans-Serif" font-size="11.00" fill="#000000">case_id</text>
<polygon fill="none" stroke="#000000" points="346.5,-391.7 346.5,-413.7 412.5,-413.7 412.5,-391.7 346.5,-391.7"/>
<text text-anchor="start" x="349.5" y="-399.4" font-family="Helvetica,sans-Serif" font-size="11.00" fill="#000000">varchar[36]</text>
<polygon fill="#ffffff" stroke="transparent" points="229.5,-369.7 229.5,-391.7 346.5,-391.7 346.5,-369.7 229.5,-369.7"/>
<polygon fill="none" stroke="#000000" points="229.5,-369.7 229.5,-391.7 346.5,-391.7 346.5,-369.7 229.5,-369.7"/>
<image xlink:href="../../images/foreignKeys.png" width="11px" height="12px" preserveAspectRatio="xMinYMin meet" x="234.5" y="-386.7"/>
<text text-anchor="start" x="249.5" y="-376.8" font-family="Helvetica,sans-Serif" font-size="11.00" fill="#000000">bug_id</text>
<polygon fill="none" stroke="#000000" points="346.5,-369.7 346.5,-391.7 412.5,-391.7 412.5,-369.7 346.5,-369.7"/>
<text text-anchor="start" x="349.5" y="-377.4" font-family="Helvetica,sans-Serif" font-size="11.00" fill="#000000">varchar[36]</text>
<polygon fill="none" stroke="#000000" points="229.5,-347.7 229.5,-369.7 346.5,-369.7 346.5,-347.7 229.5,-347.7"/>
<text text-anchor="start" x="249.5" y="-354.8" font-family="Helvetica,sans-Serif" font-size="11.00" fill="#000000">date_modified</text>
<polygon fill="none" stroke="#000000" points="346.5,-347.7 346.5,-369.7 412.5,-369.7 412.5,-347.7 346.5,-347.7"/>
<text text-anchor="start" x="349.2401" y="-355.4" font-family="Helvetica,sans-Serif" font-size="11.00" fill="#000000">datetime[26]</text>
<polygon fill="none" stroke="#000000" points="229.5,-325.7 229.5,-347.7 346.5,-347.7 346.5,-325.7 229.5,-325.7"/>
<text text-anchor="start" x="249.5" y="-332.8" font-family="Helvetica,sans-Serif" font-size="11.00" fill="#000000">deleted</text>
<polygon fill="none" stroke="#000000" points="346.5,-325.7 346.5,-347.7 412.5,-347.7 412.5,-325.7 346.5,-325.7"/>
<text text-anchor="start" x="349.5" y="-333.4" font-family="Helvetica,sans-Serif" font-size="11.00" fill="#000000">bit[1]</text>
<polygon fill="#ffffff" stroke="transparent" points="229.5,-306.7 229.5,-325.7 292.5,-325.7 292.5,-306.7 229.5,-306.7"/>
<polygon fill="none" stroke="#000000" points="229.5,-306.7 229.5,-325.7 292.5,-325.7 292.5,-306.7 229.5,-306.7"/>
<text text-anchor="start" x="232.5" y="-312.8" font-family="Helvetica,sans-Serif" font-size="11.00" fill="#000000">&lt; 2</text>
<polygon fill="#ffffff" stroke="transparent" points="292.5,-306.7 292.5,-325.7 346.5,-325.7 346.5,-306.7 292.5,-306.7"/>
<polygon fill="none" stroke="#000000" points="292.5,-306.7 292.5,-325.7 346.5,-325.7 346.5,-306.7 292.5,-306.7"/>
<text text-anchor="start" x="337.3862" y="-312.8" font-family="Helvetica,sans-Serif" font-size="11.00" fill="#000000"> &#160;</text>
<polygon fill="#ffffff" stroke="transparent" points="346.5,-306.7 346.5,-325.7 412.5,-325.7 412.5,-306.7 346.5,-306.7"/>
<polygon fill="none" stroke="#000000" points="346.5,-306.7 346.5,-325.7 412.5,-325.7 412.5,-306.7 346.5,-306.7"/>
<text text-anchor="start" x="393.9053" y="-312.8" font-family="Helvetica,sans-Serif" font-size="11.00" fill="#000000">0 &gt;</text>
<polygon fill="none" stroke="#000000" stroke-width="2" points="228,-305.7 228,-459.7 413,-459.7 413,-305.7 228,-305.7"/>
</a>
</g>
</g>
<!-- bugs -->
<g id="node2" class="node">
<title>bugs</title>
<g id="a_node2"><a xlink:href="../../tables/bugs.html" xlink:title="bugs" target="_top">
<polygon fill="#ffffff" stroke="transparent" points="23.5,-38.2 23.5,-275.2 162.5,-275.2 162.5,-38.2 23.5,-38.2"/>
<polygon fill="#f5f5f5" stroke="transparent" points="24,-251.7 24,-274.7 163,-274.7 163,-251.7 24,-251.7"/>
<polygon fill="none" stroke="#000000" points="24,-251.7 24,-274.7 163,-274.7 163,-251.7 24,-251.7"/>
<text text-anchor="start" x="29" y="-260.8" font-family="Helvetica,sans-Serif" font-weight="bold" font-size="11.00" fill="#000000">bugs</text>
<text text-anchor="start" x="128.0437" y="-259.8" font-family="Helvetica,sans-Serif" font-size="11.00" fill="#000000">[table]</text>
<polygon fill="none" stroke="#000000" points="24,-229.7 24,-251.7 163,-251.7 163,-229.7 24,-229.7"/>
<image xlink:href="../../images/primaryKeys.png" width="11px" height="12px" preserveAspectRatio="xMinYMin meet" x="29" y="-246.7"/>
<text text-anchor="start" x="44" y="-236.8" font-family="Helvetica,sans-Serif" font-size="11.00" fill="#000000">id</text>
<polygon fill="#ffffff" stroke="transparent" points="24,-207.7 24,-229.7 163,-229.7 163,-207.7 24,-207.7"/>
<polygon fill="none" stroke="#000000" points="24,-207.7 24,-229.7 163,-229.7 163,-207.7 24,-207.7"/>
<text text-anchor="start" x="44" y="-214.8" font-family="Helvetica,sans-Serif" font-size="11.00" fill="#000000">name</text>
<polygon fill="#c0c0c0" stroke="transparent" points="24,-185.7 24,-207.7 163,-207.7 163,-185.7 24,-185.7"/>
<polygon fill="none" stroke="#000000" points="24,-185.7 24,-207.7 163,-207.7 163,-185.7 24,-185.7"/>
<image xlink:href="../../images/foreignKeys.png" width="11px" height="12px" preserveAspectRatio="xMinYMin meet" x="29" y="-202.7"/>
<text text-anchor="start" x="44" y="-192.8" font-family="Helvetica,sans-Serif" font-size="11.00" fill="#000000">modified_user_id</text>
<polygon fill="#c0c0c0" stroke="transparent" points="24,-163.7 24,-185.7 163,-185.7 163,-163.7 24,-163.7"/>
<polygon fill="none" stroke="#000000" points="24,-163.7 24,-185.7 163,-185.7 163,-163.7 24,-163.7"/>
<image xlink:href="../../images/foreignKeys.png" width="11px" height="12px" preserveAspectRatio="xMinYMin meet" x="29" y="-180.7"/>
<text text-anchor="start" x="44" y="-170.8" font-family="Helvetica,sans-Serif" font-size="11.00" fill="#000000">created_by</text>
<polygon fill="#c0c0c0" stroke="transparent" points="24,-141.7 24,-163.7 163,-163.7 163,-141.7 24,-141.7"/>
<polygon fill="none" stroke="#000000" points="24,-141.7 24,-163.7 163,-163.7 163,-141.7 24,-141.7"/>
<image xlink:href="../../images/foreignKeys.png" width="11px" height="12px" preserveAspectRatio="xMinYMin meet" x="29" y="-158.7"/>
<text text-anchor="start" x="44" y="-148.8" font-family="Helvetica,sans-Serif" font-size="11.00" fill="#000000">assigned_user_id</text>
<polygon fill="#ffffff" stroke="transparent" points="24,-119.7 24,-141.7 163,-141.7 163,-119.7 24,-119.7"/>
<polygon fill="none" stroke="#000000" points="24,-119.7 24,-141.7 163,-141.7 163,-119.7 24,-119.7"/>
<text text-anchor="start" x="44" y="-126.8" font-family="Helvetica,sans-Serif" font-size="11.00" fill="#000000">bug_number</text>
<polygon fill="none" stroke="#000000" points="24,-97.7 24,-119.7 163,-119.7 163,-97.7 24,-97.7"/>
<image xlink:href="../../images/foreignKeys.png" width="11px" height="12px" preserveAspectRatio="xMinYMin meet" x="29" y="-114.7"/>
<text text-anchor="start" x="44" y="-104.8" font-family="Helvetica,sans-Serif" font-size="11.00" fill="#000000">found_in_release</text>
<polygon fill="none" stroke="#000000" points="24,-75.7 24,-97.7 163,-97.7 163,-75.7 24,-75.7"/>
<image xlink:href="../../images/foreignKeys.png" width="11px" height="12px" preserveAspectRatio="xMinYMin meet" x="29" y="-92.7"/>
<text text-anchor="start" x="44" y="-82.8" font-family="Helvetica,sans-Serif" font-size="11.00" fill="#000000">fixed_in_release</text>
<polygon fill="none" stroke="#000000" points="24,-56.7 24,-75.7 163,-75.7 163,-56.7 24,-56.7"/>
<text text-anchor="start" x="27" y="-62.8" font-family="Helvetica,sans-Serif" font-size="11.00" fill="#000000">...</text>
<polygon fill="#ffffff" stroke="transparent" points="24,-37.7 24,-56.7 84,-56.7 84,-37.7 24,-37.7"/>
<polygon fill="none" stroke="#000000" points="24,-37.7 24,-56.7 84,-56.7 84,-37.7 24,-37.7"/>
<text text-anchor="start" x="27" y="-43.8" font-family="Helvetica,sans-Serif" font-size="11.00" fill="#000000">&lt; 5</text>
<polygon fill="#ffffff" stroke="transparent" points="84,-37.7 84,-56.7 116,-56.7 116,-37.7 84,-37.7"/>
<polygon fill="none" stroke="#000000" points="84,-37.7 84,-56.7 116,-56.7 116,-37.7 84,-37.7"/>
<text text-anchor="start" x="106.8862" y="-43.8" font-family="Helvetica,sans-Serif" font-size="11.00" fill="#000000"> &#160;</text>
<polygon fill="#ffffff" stroke="transparent" points="116,-37.7 116,-56.7 163,-56.7 163,-37.7 116,-37.7"/>
<polygon fill="none" stroke="#000000" points="116,-37.7 116,-56.7 163,-56.7 163,-37.7 116,-37.7"/>
<text text-anchor="start" x="138.2904" y="-43.8" font-family="Helvetica,sans-Serif" font-size="11.00" fill="#000000">13 &gt;</text>
</a>
</g>
</g>
<!-- cases_bugs&#45;&gt;bugs -->
<g id="edge1" class="edge">
<title>cases_bugs:w&#45;&gt;bugs:e</title>
<path fill="none" stroke="#000000" d="M215.2225,-378.0283C171.3647,-358.6733 226.2342,-240.7 163,-240.7"/>
<polygon fill="#000000" stroke="#000000" points="221.6365,-379.2285 228.8378,-384.2386 225.5682,-379.9643 229.5,-380.7 229.5,-380.7 229.5,-380.7 225.5682,-379.9643 230.1622,-377.1614 221.6365,-379.2285 221.6365,-379.2285"/>
<ellipse fill="none" stroke="#000000" cx="218.4911" cy="-378.6399" rx="3.2" ry="3.2"/>
</g>
<!-- cases -->
<g id="node3" class="node">
<title>cases</title>
<g id="a_node3"><a xlink:href="../../tables/cases.html" xlink:title="cases" target="_top">
<polygon fill="#ffffff" stroke="transparent" points="8,-296.2 8,-577.2 178,-577.2 178,-296.2 8,-296.2"/>
<polygon fill="#f5f5f5" stroke="transparent" points="8,-553.7 8,-576.7 178,-576.7 178,-553.7 8,-553.7"/>
<polygon fill="none" stroke="#000000" points="8,-553.7 8,-576.7 178,-576.7 178,-553.7 8,-553.7"/>
<text text-anchor="start" x="13" y="-562.8" font-family="Helvetica,sans-Serif" font-weight="bold" font-size="11.00" fill="#000000">cases</text>
<text text-anchor="start" x="143.0437" y="-561.8" font-family="Helvetica,sans-Serif" font-size="11.00" fill="#000000">[table]</text>
<polygon fill="none" stroke="#000000" points="8,-531.7 8,-553.7 178,-553.7 178,-531.7 8,-531.7"/>
<image xlink:href="../../images/primaryKeys.png" width="11px" height="12px" preserveAspectRatio="xMinYMin meet" x="13" y="-548.7"/>
<text text-anchor="start" x="28" y="-538.8" font-family="Helvetica,sans-Serif" font-size="11.00" fill="#000000">id</text>
<polygon fill="#ffffff" stroke="transparent" points="8,-509.7 8,-531.7 178,-531.7 178,-509.7 8,-509.7"/>
<polygon fill="none" stroke="#000000" points="8,-509.7 8,-531.7 178,-531.7 178,-509.7 8,-509.7"/>
<text text-anchor="start" x="28" y="-516.8" font-family="Helvetica,sans-Serif" font-size="11.00" fill="#000000">name</text>
<polygon fill="#c0c0c0" stroke="transparent" points="8,-487.7 8,-509.7 178,-509.7 178,-487.7 8,-487.7"/>
<polygon fill="none" stroke="#000000" points="8,-487.7 8,-509.7 178,-509.7 178,-487.7 8,-487.7"/>
<image xlink:href="../../images/foreignKeys.png" width="11px" height="12px" preserveAspectRatio="xMinYMin meet" x="13" y="-504.7"/>
<text text-anchor="start" x="28" y="-494.8" font-family="Helvetica,sans-Serif" font-size="11.00" fill="#000000">modified_user_id</text>
<polygon fill="#c0c0c0" stroke="transparent" points="8,-465.7 8,-487.7 178,-487.7 178,-465.7 8,-465.7"/>
<polygon fill="none" stroke="#000000" points="8,-465.7 8,-487.7 178,-487.7 178,-465.7 8,-465.7"/>
<image xlink:href="../../images/foreignKeys.png" width="11px" height="12px" preserveAspectRatio="xMinYMin meet" x="13" y="-482.7"/>
<text text-anchor="start" x="28" y="-472.8" font-family="Helvetica,sans-Serif" font-size="11.00" fill="#000000">created_by</text>
<polygon fill="#ffffff" stroke="transparent" points="8,-443.7 8,-465.7 178,-465.7 178,-443.7 8,-443.7"/>
<polygon fill="none" stroke="#000000" points="8,-443.7 8,-465.7 178,-465.7 178,-443.7 8,-443.7"/>
<text text-anchor="start" x="28" y="-450.8" font-family="Helvetica,sans-Serif" font-size="11.00" fill="#000000">deleted</text>
<polygon fill="#c0c0c0" stroke="transparent" points="8,-421.7 8,-443.7 178,-443.7 178,-421.7 8,-421.7"/>
<polygon fill="none" stroke="#000000" points="8,-421.7 8,-443.7 178,-443.7 178,-421.7 8,-421.7"/>
<image xlink:href="../../images/foreignKeys.png" width="11px" height="12px" preserveAspectRatio="xMinYMin meet" x="13" y="-438.7"/>
<text text-anchor="start" x="28" y="-428.8" font-family="Helvetica,sans-Serif" font-size="11.00" fill="#000000">assigned_user_id</text>
<polygon fill="#ffffff" stroke="transparent" points="8,-399.7 8,-421.7 178,-421.7 178,-399.7 8,-399.7"/>
<polygon fill="none" stroke="#000000" points="8,-399.7 8,-421.7 178,-421.7 178,-399.7 8,-399.7"/>
<text text-anchor="start" x="28" y="-406.8" font-family="Helvetica,sans-Serif" font-size="11.00" fill="#000000">case_number</text>
<polygon fill="#ffffff" stroke="transparent" points="8,-377.7 8,-399.7 178,-399.7 178,-377.7 8,-377.7"/>
<polygon fill="none" stroke="#000000" points="8,-377.7 8,-399.7 178,-399.7 178,-377.7 8,-377.7"/>
<text text-anchor="start" x="28" y="-384.8" font-family="Helvetica,sans-Serif" font-size="11.00" fill="#000000">status</text>
<polygon fill="#ffffff" stroke="transparent" points="8,-355.7 8,-377.7 178,-377.7 178,-355.7 8,-355.7"/>
<polygon fill="none" stroke="#000000" points="8,-355.7 8,-377.7 178,-377.7 178,-355.7 8,-355.7"/>
<image xlink:href="../../images/foreignKeys.png" width="11px" height="12px" preserveAspectRatio="xMinYMin meet" x="13" y="-372.7"/>
<text text-anchor="start" x="28" y="-362.8" font-family="Helvetica,sans-Serif" font-size="11.00" fill="#000000">account_id</text>
<polygon fill="none" stroke="#000000" points="8,-333.7 8,-355.7 178,-355.7 178,-333.7 8,-333.7"/>
<image xlink:href="../../images/foreignKeys.png" width="11px" height="12px" preserveAspectRatio="xMinYMin meet" x="13" y="-350.7"/>
<text text-anchor="start" x="28" y="-340.8" font-family="Helvetica,sans-Serif" font-size="11.00" fill="#000000">contact_created_by_id</text>
<polygon fill="none" stroke="#000000" points="8,-314.7 8,-333.7 178,-333.7 178,-314.7 8,-314.7"/>
<text text-anchor="start" x="11" y="-320.8" font-family="Helvetica,sans-Serif" font-size="11.00" fill="#000000">...</text>
<polygon fill="#ffffff" stroke="transparent" points="8,-295.7 8,-314.7 84,-314.7 84,-295.7 8,-295.7"/>
<polygon fill="none" stroke="#000000" points="8,-295.7 8,-314.7 84,-314.7 84,-295.7 8,-295.7"/>
<text text-anchor="start" x="11" y="-301.8" font-family="Helvetica,sans-Serif" font-size="11.00" fill="#000000">&lt; 6</text>
<polygon fill="#ffffff" stroke="transparent" points="84,-295.7 84,-314.7 123,-314.7 123,-295.7 84,-295.7"/>
<polygon fill="none" stroke="#000000" points="84,-295.7 84,-314.7 123,-314.7 123,-295.7 84,-295.7"/>
<text text-anchor="start" x="113.8862" y="-301.8" font-family="Helvetica,sans-Serif" font-size="11.00" fill="#000000"> &#160;</text>
<polygon fill="#ffffff" stroke="transparent" points="123,-295.7 123,-314.7 178,-314.7 178,-295.7 123,-295.7"/>
<polygon fill="none" stroke="#000000" points="123,-295.7 123,-314.7 178,-314.7 178,-295.7 123,-295.7"/>
<text text-anchor="start" x="153.2904" y="-301.8" font-family="Helvetica,sans-Serif" font-size="11.00" fill="#000000">15 &gt;</text>
</a>
</g>
</g>
<!-- cases_bugs&#45;&gt;cases -->
<g id="edge2" class="edge">
<title>cases_bugs:w&#45;&gt;cases:e</title>
<path fill="none" stroke="#000000" d="M215.2346,-405.7543C176.3182,-426.2279 238.4716,-542.7 178,-542.7"/>
<polygon fill="#000000" stroke="#000000" points="221.6773,-404.3749 230.2537,-406.2202 225.5886,-403.5375 229.5,-402.7 229.5,-402.7 229.5,-402.7 225.5886,-403.5375 228.7463,-399.1798 221.6773,-404.3749 221.6773,-404.3749"/>
<ellipse fill="none" stroke="#000000" cx="218.5482" cy="-405.0449" rx="3.2" ry="3.2"/>
</g>
</g>
</svg>
