<?xml version="1.0" encoding="UTF-8" standalone="no"?>
<!DOCTYPE svg PUBLIC "-//W3C//DTD SVG 1.1//EN"
 "http://www.w3.org/Graphics/SVG/1.1/DTD/svg11.dtd">
<!-- Generated by graphviz version 2.40.1 (20161225.0304)
 -->
<!-- Title: twoDegreesRelationshipsDiagram Pages: 1 -->
<svg width="1112pt" height="1486pt"
 viewBox="0.00 0.00 1112.00 1486.04" xmlns="http://www.w3.org/2000/svg" xmlns:xlink="http://www.w3.org/1999/xlink">
<g id="graph0" class="graph" transform="scale(1 1) rotate(0) translate(4 1482.0418)">
<title>twoDegreesRelationshipsDiagram</title>
<polygon fill="#ffffff" stroke="transparent" points="-4,4 -4,-1482.0418 1108,-1482.0418 1108,4 -4,4"/>
<text text-anchor="middle" x="72.4936" y="-7.3" font-family="Helvetica,sans-Serif" font-size="11.00" fill="#000000">Generated by SchemaSpy</text>
<!-- accounts -->
<g id="node1" class="node">
<title>accounts</title>
<g id="a_node1"><a xlink:href="../../tables/accounts.html" xlink:title="accounts" target="_top">
<polygon fill="#ffffff" stroke="transparent" points="151,-1151.4409 151,-1212.4409 238,-1212.4409 238,-1151.4409 151,-1151.4409"/>
<polygon fill="#f5f5f5" stroke="transparent" points="151.5,-1188.9409 151.5,-1211.9409 238.5,-1211.9409 238.5,-1188.9409 151.5,-1188.9409"/>
<polygon fill="none" stroke="#000000" points="151.5,-1188.9409 151.5,-1211.9409 238.5,-1211.9409 238.5,-1188.9409 151.5,-1188.9409"/>
<text text-anchor="start" x="156.4918" y="-1198.0409" font-family="Helvetica,sans-Serif" font-weight="bold" font-size="11.00" fill="#000000">accounts</text>
<text text-anchor="start" x="204.0219" y="-1197.0409" font-family="Helvetica,sans-Serif" font-size="11.00" fill="#000000">[table]</text>
<polygon fill="none" stroke="#000000" points="151.5,-1169.9409 151.5,-1188.9409 238.5,-1188.9409 238.5,-1169.9409 151.5,-1169.9409"/>
<text text-anchor="start" x="154.5" y="-1176.0409" font-family="Helvetica,sans-Serif" font-size="11.00" fill="#000000">...</text>
<polygon fill="#ffffff" stroke="transparent" points="151.5,-1150.9409 151.5,-1169.9409 185.5,-1169.9409 185.5,-1150.9409 151.5,-1150.9409"/>
<polygon fill="none" stroke="#000000" points="151.5,-1150.9409 151.5,-1169.9409 185.5,-1169.9409 185.5,-1150.9409 151.5,-1150.9409"/>
<text text-anchor="start" x="154.5" y="-1157.0409" font-family="Helvetica,sans-Serif" font-size="11.00" fill="#000000">&lt; 6</text>
<polygon fill="#ffffff" stroke="transparent" points="185.5,-1150.9409 185.5,-1169.9409 204.5,-1169.9409 204.5,-1150.9409 185.5,-1150.9409"/>
<polygon fill="none" stroke="#000000" points="185.5,-1150.9409 185.5,-1169.9409 204.5,-1169.9409 204.5,-1150.9409 185.5,-1150.9409"/>
<text text-anchor="start" x="195.3862" y="-1157.0409" font-family="Helvetica,sans-Serif" font-size="11.00" fill="#000000"> &#160;</text>
<polygon fill="#ffffff" stroke="transparent" points="204.5,-1150.9409 204.5,-1169.9409 238.5,-1169.9409 238.5,-1150.9409 204.5,-1150.9409"/>
<polygon fill="none" stroke="#000000" points="204.5,-1150.9409 204.5,-1169.9409 238.5,-1169.9409 238.5,-1150.9409 204.5,-1150.9409"/>
<text text-anchor="start" x="213.7904" y="-1157.0409" font-family="Helvetica,sans-Serif" font-size="11.00" fill="#000000">23 &gt;</text>
</a>
</g>
</g>
<!-- jjwg_maps -->
<g id="node2" class="node">
<title>jjwg_maps</title>
<g id="a_node2"><a xlink:href="../../tables/jjwg_maps.html" xlink:title="jjwg_maps" target="_top">
<polygon fill="#ffffff" stroke="transparent" points="8,-1151.4409 8,-1212.4409 102,-1212.4409 102,-1151.4409 8,-1151.4409"/>
<polygon fill="#f5f5f5" stroke="transparent" points="8,-1188.9409 8,-1211.9409 102,-1211.9409 102,-1188.9409 8,-1188.9409"/>
<polygon fill="none" stroke="#000000" points="8,-1188.9409 8,-1211.9409 102,-1211.9409 102,-1188.9409 8,-1188.9409"/>
<text text-anchor="start" x="12.5279" y="-1198.0409" font-family="Helvetica,sans-Serif" font-weight="bold" font-size="11.00" fill="#000000">jjwg_maps</text>
<text text-anchor="start" x="67.5219" y="-1197.0409" font-family="Helvetica,sans-Serif" font-size="11.00" fill="#000000">[table]</text>
<polygon fill="none" stroke="#000000" points="8,-1169.9409 8,-1188.9409 102,-1188.9409 102,-1169.9409 8,-1169.9409"/>
<text text-anchor="start" x="11" y="-1176.0409" font-family="Helvetica,sans-Serif" font-size="11.00" fill="#000000">...</text>
<polygon fill="#ffffff" stroke="transparent" points="8,-1150.9409 8,-1169.9409 46,-1169.9409 46,-1150.9409 8,-1150.9409"/>
<polygon fill="none" stroke="#000000" points="8,-1150.9409 8,-1169.9409 46,-1169.9409 46,-1150.9409 8,-1150.9409"/>
<text text-anchor="start" x="11" y="-1157.0409" font-family="Helvetica,sans-Serif" font-size="11.00" fill="#000000">&lt; 3</text>
<polygon fill="#ffffff" stroke="transparent" points="46,-1150.9409 46,-1169.9409 66,-1169.9409 66,-1150.9409 46,-1150.9409"/>
<polygon fill="none" stroke="#000000" points="46,-1150.9409 46,-1169.9409 66,-1169.9409 66,-1150.9409 46,-1150.9409"/>
<text text-anchor="start" x="56.8862" y="-1157.0409" font-family="Helvetica,sans-Serif" font-size="11.00" fill="#000000"> &#160;</text>
<polygon fill="#ffffff" stroke="transparent" points="66,-1150.9409 66,-1169.9409 102,-1169.9409 102,-1150.9409 66,-1150.9409"/>
<polygon fill="none" stroke="#000000" points="66,-1150.9409 66,-1169.9409 102,-1169.9409 102,-1150.9409 66,-1150.9409"/>
<text text-anchor="start" x="77.2904" y="-1157.0409" font-family="Helvetica,sans-Serif" font-size="11.00" fill="#000000">12 &gt;</text>
</a>
</g>
</g>
<!-- accounts&#45;&gt;jjwg_maps -->
<g id="edge1" class="edge">
<title>accounts:w&#45;&gt;jjwg_maps:e</title>
<path fill="none" stroke="#000000" d="M141.0474,-1178.9409C126.9907,-1178.9409 120.0469,-1178.9409 102,-1178.9409"/>
<polygon fill="#000000" stroke="#000000" points="150.7,-1174.9409 150.7,-1182.9409 149.1,-1182.9409 149.1,-1174.9409 150.7,-1174.9409"/>
<polyline fill="none" stroke="#000000" points="151.5,-1178.9409 147.5,-1178.9409 "/>
<ellipse fill="none" stroke="#000000" cx="144.3" cy="-1178.9409" rx="3.2" ry="3.2"/>
</g>
<!-- aop_case_events -->
<g id="node3" class="node">
<title>aop_case_events</title>
<g id="a_node3"><a xlink:href="../../tables/aop_case_events.html" xlink:title="aop_case_events" target="_top">
<polygon fill="#ffffff" stroke="transparent" points="554,-922.4409 554,-983.4409 683,-983.4409 683,-922.4409 554,-922.4409"/>
<polygon fill="#f5f5f5" stroke="transparent" points="554.5,-959.9409 554.5,-982.9409 683.5,-982.9409 683.5,-959.9409 554.5,-959.9409"/>
<polygon fill="none" stroke="#000000" points="554.5,-959.9409 554.5,-982.9409 683.5,-982.9409 683.5,-959.9409 554.5,-959.9409"/>
<text text-anchor="start" x="559.3971" y="-969.0409" font-family="Helvetica,sans-Serif" font-weight="bold" font-size="11.00" fill="#000000">aop_case_events</text>
<text text-anchor="start" x="649.0219" y="-968.0409" font-family="Helvetica,sans-Serif" font-size="11.00" fill="#000000">[table]</text>
<polygon fill="none" stroke="#000000" points="554.5,-940.9409 554.5,-959.9409 683.5,-959.9409 683.5,-940.9409 554.5,-940.9409"/>
<text text-anchor="start" x="557.5" y="-947.0409" font-family="Helvetica,sans-Serif" font-size="11.00" fill="#000000">...</text>
<polygon fill="#ffffff" stroke="transparent" points="554.5,-921.9409 554.5,-940.9409 612.5,-940.9409 612.5,-921.9409 554.5,-921.9409"/>
<polygon fill="none" stroke="#000000" points="554.5,-921.9409 554.5,-940.9409 612.5,-940.9409 612.5,-921.9409 554.5,-921.9409"/>
<text text-anchor="start" x="557.5" y="-928.0409" font-family="Helvetica,sans-Serif" font-size="11.00" fill="#000000">&lt; 4</text>
<polygon fill="#ffffff" stroke="transparent" points="612.5,-921.9409 612.5,-940.9409 643.5,-940.9409 643.5,-921.9409 612.5,-921.9409"/>
<polygon fill="none" stroke="#000000" points="612.5,-921.9409 612.5,-940.9409 643.5,-940.9409 643.5,-921.9409 612.5,-921.9409"/>
<text text-anchor="start" x="634.3862" y="-928.0409" font-family="Helvetica,sans-Serif" font-size="11.00" fill="#000000"> &#160;</text>
<polygon fill="#ffffff" stroke="transparent" points="643.5,-921.9409 643.5,-940.9409 683.5,-940.9409 683.5,-921.9409 643.5,-921.9409"/>
<polygon fill="none" stroke="#000000" points="643.5,-921.9409 643.5,-940.9409 683.5,-940.9409 683.5,-921.9409 643.5,-921.9409"/>
<text text-anchor="start" x="664.9053" y="-928.0409" font-family="Helvetica,sans-Serif" font-size="11.00" fill="#000000">1 &gt;</text>
</a>
</g>
</g>
<!-- cases -->
<g id="node4" class="node">
<title>cases</title>
<g id="a_node4"><a xlink:href="../../tables/cases.html" xlink:title="cases" target="_top">
<polygon fill="#ffffff" stroke="transparent" points="287,-596.4409 287,-877.4409 457,-877.4409 457,-596.4409 287,-596.4409"/>
<polygon fill="#f5f5f5" stroke="transparent" points="287,-853.9409 287,-876.9409 457,-876.9409 457,-853.9409 287,-853.9409"/>
<polygon fill="none" stroke="#000000" points="287,-853.9409 287,-876.9409 457,-876.9409 457,-853.9409 287,-853.9409"/>
<text text-anchor="start" x="292" y="-863.0409" font-family="Helvetica,sans-Serif" font-weight="bold" font-size="11.00" fill="#000000">cases</text>
<text text-anchor="start" x="422.0437" y="-862.0409" font-family="Helvetica,sans-Serif" font-size="11.00" fill="#000000">[table]</text>
<polygon fill="none" stroke="#000000" points="287,-831.9409 287,-853.9409 457,-853.9409 457,-831.9409 287,-831.9409"/>
<image xlink:href="../../images/primaryKeys.png" width="11px" height="12px" preserveAspectRatio="xMinYMin meet" x="292" y="-848.941"/>
<text text-anchor="start" x="307" y="-839.0409" font-family="Helvetica,sans-Serif" font-size="11.00" fill="#000000">id</text>
<polygon fill="#ffffff" stroke="transparent" points="287,-809.9409 287,-831.9409 457,-831.9409 457,-809.9409 287,-809.9409"/>
<polygon fill="none" stroke="#000000" points="287,-809.9409 287,-831.9409 457,-831.9409 457,-809.9409 287,-809.9409"/>
<text text-anchor="start" x="307" y="-817.0409" font-family="Helvetica,sans-Serif" font-size="11.00" fill="#000000">name</text>
<polygon fill="#c0c0c0" stroke="transparent" points="287,-787.9409 287,-809.9409 457,-809.9409 457,-787.9409 287,-787.9409"/>
<polygon fill="none" stroke="#000000" points="287,-787.9409 287,-809.9409 457,-809.9409 457,-787.9409 287,-787.9409"/>
<image xlink:href="../../images/foreignKeys.png" width="11px" height="12px" preserveAspectRatio="xMinYMin meet" x="292" y="-804.941"/>
<text text-anchor="start" x="307" y="-795.0409" font-family="Helvetica,sans-Serif" font-size="11.00" fill="#000000">modified_user_id</text>
<polygon fill="#c0c0c0" stroke="transparent" points="287,-765.9409 287,-787.9409 457,-787.9409 457,-765.9409 287,-765.9409"/>
<polygon fill="none" stroke="#000000" points="287,-765.9409 287,-787.9409 457,-787.9409 457,-765.9409 287,-765.9409"/>
<image xlink:href="../../images/foreignKeys.png" width="11px" height="12px" preserveAspectRatio="xMinYMin meet" x="292" y="-782.941"/>
<text text-anchor="start" x="307" y="-773.0409" font-family="Helvetica,sans-Serif" font-size="11.00" fill="#000000">created_by</text>
<polygon fill="#ffffff" stroke="transparent" points="287,-743.9409 287,-765.9409 457,-765.9409 457,-743.9409 287,-743.9409"/>
<polygon fill="none" stroke="#000000" points="287,-743.9409 287,-765.9409 457,-765.9409 457,-743.9409 287,-743.9409"/>
<text text-anchor="start" x="307" y="-751.0409" font-family="Helvetica,sans-Serif" font-size="11.00" fill="#000000">deleted</text>
<polygon fill="#c0c0c0" stroke="transparent" points="287,-721.9409 287,-743.9409 457,-743.9409 457,-721.9409 287,-721.9409"/>
<polygon fill="none" stroke="#000000" points="287,-721.9409 287,-743.9409 457,-743.9409 457,-721.9409 287,-721.9409"/>
<image xlink:href="../../images/foreignKeys.png" width="11px" height="12px" preserveAspectRatio="xMinYMin meet" x="292" y="-738.941"/>
<text text-anchor="start" x="307" y="-729.0409" font-family="Helvetica,sans-Serif" font-size="11.00" fill="#000000">assigned_user_id</text>
<polygon fill="#ffffff" stroke="transparent" points="287,-699.9409 287,-721.9409 457,-721.9409 457,-699.9409 287,-699.9409"/>
<polygon fill="none" stroke="#000000" points="287,-699.9409 287,-721.9409 457,-721.9409 457,-699.9409 287,-699.9409"/>
<text text-anchor="start" x="307" y="-707.0409" font-family="Helvetica,sans-Serif" font-size="11.00" fill="#000000">case_number</text>
<polygon fill="#ffffff" stroke="transparent" points="287,-677.9409 287,-699.9409 457,-699.9409 457,-677.9409 287,-677.9409"/>
<polygon fill="none" stroke="#000000" points="287,-677.9409 287,-699.9409 457,-699.9409 457,-677.9409 287,-677.9409"/>
<text text-anchor="start" x="307" y="-685.0409" font-family="Helvetica,sans-Serif" font-size="11.00" fill="#000000">status</text>
<polygon fill="#ffffff" stroke="transparent" points="287,-655.9409 287,-677.9409 457,-677.9409 457,-655.9409 287,-655.9409"/>
<polygon fill="none" stroke="#000000" points="287,-655.9409 287,-677.9409 457,-677.9409 457,-655.9409 287,-655.9409"/>
<image xlink:href="../../images/foreignKeys.png" width="11px" height="12px" preserveAspectRatio="xMinYMin meet" x="292" y="-672.941"/>
<text text-anchor="start" x="307" y="-663.0409" font-family="Helvetica,sans-Serif" font-size="11.00" fill="#000000">account_id</text>
<polygon fill="none" stroke="#000000" points="287,-633.9409 287,-655.9409 457,-655.9409 457,-633.9409 287,-633.9409"/>
<image xlink:href="../../images/foreignKeys.png" width="11px" height="12px" preserveAspectRatio="xMinYMin meet" x="292" y="-650.941"/>
<text text-anchor="start" x="307" y="-641.0409" font-family="Helvetica,sans-Serif" font-size="11.00" fill="#000000">contact_created_by_id</text>
<polygon fill="none" stroke="#000000" points="287,-614.9409 287,-633.9409 457,-633.9409 457,-614.9409 287,-614.9409"/>
<text text-anchor="start" x="290" y="-621.0409" font-family="Helvetica,sans-Serif" font-size="11.00" fill="#000000">...</text>
<polygon fill="#ffffff" stroke="transparent" points="287,-595.9409 287,-614.9409 363,-614.9409 363,-595.9409 287,-595.9409"/>
<polygon fill="none" stroke="#000000" points="287,-595.9409 287,-614.9409 363,-614.9409 363,-595.9409 287,-595.9409"/>
<text text-anchor="start" x="290" y="-602.0409" font-family="Helvetica,sans-Serif" font-size="11.00" fill="#000000">&lt; 6</text>
<polygon fill="#ffffff" stroke="transparent" points="363,-595.9409 363,-614.9409 402,-614.9409 402,-595.9409 363,-595.9409"/>
<polygon fill="none" stroke="#000000" points="363,-595.9409 363,-614.9409 402,-614.9409 402,-595.9409 363,-595.9409"/>
<text text-anchor="start" x="392.8862" y="-602.0409" font-family="Helvetica,sans-Serif" font-size="11.00" fill="#000000"> &#160;</text>
<polygon fill="#ffffff" stroke="transparent" points="402,-595.9409 402,-614.9409 457,-614.9409 457,-595.9409 402,-595.9409"/>
<polygon fill="none" stroke="#000000" points="402,-595.9409 402,-614.9409 457,-614.9409 457,-595.9409 402,-595.9409"/>
<text text-anchor="start" x="432.2904" y="-602.0409" font-family="Helvetica,sans-Serif" font-size="11.00" fill="#000000">15 &gt;</text>
</a>
</g>
</g>
<!-- aop_case_events&#45;&gt;cases -->
<g id="edge2" class="edge">
<title>aop_case_events:w&#45;&gt;cases:e</title>
<path fill="none" stroke="#000000" d="M540.093,-948.3839C521.7209,-943.8602 514.9747,-929.8925 498,-911.9409 473.4912,-886.0215 492.672,-842.9409 457,-842.9409"/>
<polygon fill="#000000" stroke="#000000" points="546.5463,-949.0813 554.1132,-953.52 550.5232,-949.5111 554.5,-949.9409 554.5,-949.9409 554.5,-949.9409 550.5232,-949.5111 554.8868,-946.3617 546.5463,-949.0813 546.5463,-949.0813"/>
<ellipse fill="none" stroke="#000000" cx="543.3648" cy="-948.7374" rx="3.2" ry="3.2"/>
</g>
<!-- cases&#45;&gt;accounts -->
<g id="edge7" class="edge">
<title>cases:w&#45;&gt;accounts:e</title>
<path fill="none" stroke="#000000" d="M272.8081,-670.2104C188.9481,-713.8159 347.4299,-1178.9409 238.5,-1178.9409"/>
<polygon fill="#000000" stroke="#000000" points="279.2042,-668.7369 287.8082,-670.449 283.1021,-667.8389 287,-666.9409 287,-666.9409 287,-666.9409 283.1021,-667.8389 286.1918,-663.4328 279.2042,-668.7369 279.2042,-668.7369"/>
<ellipse fill="none" stroke="#000000" cx="276.0859" cy="-669.4553" rx="3.2" ry="3.2"/>
</g>
<!-- cases&#45;&gt;jjwg_maps -->
<g id="edge9" class="edge">
<title>cases:w&#45;&gt;jjwg_maps:e</title>
<path fill="none" stroke="#000000" d="M277.4953,-847.4366C231.0093,-887.3083 141.7048,-1178.9409 102,-1178.9409"/>
<polygon fill="#000000" stroke="#000000" points="284.5665,-839.667 287.9872,-846.8989 286.5408,-847.583 283.1201,-840.3512 284.5665,-839.667"/>
<polyline fill="none" stroke="#000000" points="287,-842.9409 283.3841,-844.6512 "/>
<ellipse fill="none" stroke="#000000" cx="280.4914" cy="-846.0195" rx="3.2" ry="3.2"/>
</g>
<!-- contacts -->
<g id="node6" class="node">
<title>contacts</title>
<g id="a_node6"><a xlink:href="../../tables/contacts.html" xlink:title="contacts" target="_top">
<polygon fill="#ffffff" stroke="transparent" points="153,-434.4409 153,-495.4409 236,-495.4409 236,-434.4409 153,-434.4409"/>
<polygon fill="#f5f5f5" stroke="transparent" points="153.5,-471.9409 153.5,-494.9409 236.5,-494.9409 236.5,-471.9409 153.5,-471.9409"/>
<polygon fill="none" stroke="#000000" points="153.5,-471.9409 153.5,-494.9409 236.5,-494.9409 236.5,-471.9409 153.5,-471.9409"/>
<text text-anchor="start" x="158.0208" y="-481.0409" font-family="Helvetica,sans-Serif" font-weight="bold" font-size="11.00" fill="#000000">contacts</text>
<text text-anchor="start" x="202.0219" y="-480.0409" font-family="Helvetica,sans-Serif" font-size="11.00" fill="#000000">[table]</text>
<polygon fill="none" stroke="#000000" points="153.5,-452.9409 153.5,-471.9409 236.5,-471.9409 236.5,-452.9409 153.5,-452.9409"/>
<text text-anchor="start" x="156.5" y="-459.0409" font-family="Helvetica,sans-Serif" font-size="11.00" fill="#000000">...</text>
<polygon fill="#ffffff" stroke="transparent" points="153.5,-433.9409 153.5,-452.9409 185.5,-452.9409 185.5,-433.9409 153.5,-433.9409"/>
<polygon fill="none" stroke="#000000" points="153.5,-433.9409 153.5,-452.9409 185.5,-452.9409 185.5,-433.9409 153.5,-433.9409"/>
<text text-anchor="start" x="156.5" y="-440.0409" font-family="Helvetica,sans-Serif" font-size="11.00" fill="#000000">&lt; 7</text>
<polygon fill="#ffffff" stroke="transparent" points="185.5,-433.9409 185.5,-452.9409 203.5,-452.9409 203.5,-433.9409 185.5,-433.9409"/>
<polygon fill="none" stroke="#000000" points="185.5,-433.9409 185.5,-452.9409 203.5,-452.9409 203.5,-433.9409 185.5,-433.9409"/>
<text text-anchor="start" x="194.3862" y="-440.0409" font-family="Helvetica,sans-Serif" font-size="11.00" fill="#000000"> &#160;</text>
<polygon fill="#ffffff" stroke="transparent" points="203.5,-433.9409 203.5,-452.9409 236.5,-452.9409 236.5,-433.9409 203.5,-433.9409"/>
<polygon fill="none" stroke="#000000" points="203.5,-433.9409 203.5,-452.9409 236.5,-452.9409 236.5,-433.9409 203.5,-433.9409"/>
<text text-anchor="start" x="211.7904" y="-440.0409" font-family="Helvetica,sans-Serif" font-size="11.00" fill="#000000">30 &gt;</text>
</a>
</g>
</g>
<!-- cases&#45;&gt;contacts -->
<g id="edge8" class="edge">
<title>cases:w&#45;&gt;contacts:e</title>
<path fill="none" stroke="#000000" d="M272.7531,-642.6271C217.4378,-621.4432 315.2704,-461.9409 236.5,-461.9409"/>
<polygon fill="#000000" stroke="#000000" points="279.1035,-643.6584 286.4229,-648.4943 283.0517,-644.2996 287,-644.9409 287,-644.9409 287,-644.9409 283.0517,-644.2996 287.5771,-641.3874 279.1035,-643.6584 279.1035,-643.6584"/>
<ellipse fill="none" stroke="#000000" cx="275.9448" cy="-643.1454" rx="3.2" ry="3.2"/>
</g>
<!-- aop_case_updates -->
<g id="node5" class="node">
<title>aop_case_updates</title>
<g id="a_node5"><a xlink:href="../../tables/aop_case_updates.html" xlink:title="aop_case_updates" target="_top">
<polygon fill="#ffffff" stroke="transparent" points="551,-251.4409 551,-312.4409 686,-312.4409 686,-251.4409 551,-251.4409"/>
<polygon fill="#f5f5f5" stroke="transparent" points="551.5,-288.9409 551.5,-311.9409 686.5,-311.9409 686.5,-288.9409 551.5,-288.9409"/>
<polygon fill="none" stroke="#000000" points="551.5,-288.9409 551.5,-311.9409 686.5,-311.9409 686.5,-288.9409 551.5,-288.9409"/>
<text text-anchor="start" x="556.0322" y="-298.0409" font-family="Helvetica,sans-Serif" font-weight="bold" font-size="11.00" fill="#000000">aop_case_updates</text>
<text text-anchor="start" x="652.0219" y="-297.0409" font-family="Helvetica,sans-Serif" font-size="11.00" fill="#000000">[table]</text>
<polygon fill="none" stroke="#000000" points="551.5,-269.9409 551.5,-288.9409 686.5,-288.9409 686.5,-269.9409 551.5,-269.9409"/>
<text text-anchor="start" x="554.5" y="-276.0409" font-family="Helvetica,sans-Serif" font-size="11.00" fill="#000000">...</text>
<polygon fill="#ffffff" stroke="transparent" points="551.5,-250.9409 551.5,-269.9409 612.5,-269.9409 612.5,-250.9409 551.5,-250.9409"/>
<polygon fill="none" stroke="#000000" points="551.5,-250.9409 551.5,-269.9409 612.5,-269.9409 612.5,-250.9409 551.5,-250.9409"/>
<text text-anchor="start" x="554.5" y="-257.0409" font-family="Helvetica,sans-Serif" font-size="11.00" fill="#000000">&lt; 5</text>
<polygon fill="#ffffff" stroke="transparent" points="612.5,-250.9409 612.5,-269.9409 644.5,-269.9409 644.5,-250.9409 612.5,-250.9409"/>
<polygon fill="none" stroke="#000000" points="612.5,-250.9409 612.5,-269.9409 644.5,-269.9409 644.5,-250.9409 612.5,-250.9409"/>
<text text-anchor="start" x="635.3862" y="-257.0409" font-family="Helvetica,sans-Serif" font-size="11.00" fill="#000000"> &#160;</text>
<polygon fill="#ffffff" stroke="transparent" points="644.5,-250.9409 644.5,-269.9409 686.5,-269.9409 686.5,-250.9409 644.5,-250.9409"/>
<polygon fill="none" stroke="#000000" points="644.5,-250.9409 644.5,-269.9409 686.5,-269.9409 686.5,-250.9409 644.5,-250.9409"/>
<text text-anchor="start" x="667.9053" y="-257.0409" font-family="Helvetica,sans-Serif" font-size="11.00" fill="#000000">2 &gt;</text>
</a>
</g>
</g>
<!-- aop_case_updates&#45;&gt;cases -->
<g id="edge3" class="edge">
<title>aop_case_updates:w&#45;&gt;cases:e</title>
<path fill="none" stroke="#000000" d="M537.0454,-280.606C516.8145,-285.872 509.7305,-303.2293 498,-326.9409 472.4971,-378.4915 514.514,-842.9409 457,-842.9409"/>
<polygon fill="#000000" stroke="#000000" points="543.5526,-279.8564 551.912,-282.5172 547.5263,-279.3987 551.5,-278.9409 551.5,-278.9409 551.5,-278.9409 547.5263,-279.3987 551.088,-275.3645 543.5526,-279.8564 543.5526,-279.8564"/>
<ellipse fill="none" stroke="#000000" cx="540.3736" cy="-280.2226" rx="3.2" ry="3.2"/>
</g>
<!-- aop_case_updates&#45;&gt;contacts -->
<g id="edge4" class="edge">
<title>aop_case_updates:w&#45;&gt;contacts:e</title>
<path fill="none" stroke="#000000" d="M536.8106,-279.4658C389.9738,-290.1997 393.3511,-461.9409 236.5,-461.9409"/>
<polygon fill="#000000" stroke="#000000" points="543.5051,-279.2267 551.6286,-282.5386 547.5026,-279.0838 551.5,-278.9409 551.5,-278.9409 551.5,-278.9409 547.5026,-279.0838 551.3714,-275.3432 543.5051,-279.2267 543.5051,-279.2267"/>
<ellipse fill="none" stroke="#000000" cx="540.3071" cy="-279.341" rx="3.2" ry="3.2"/>
</g>
<!-- contacts&#45;&gt;jjwg_maps -->
<g id="edge12" class="edge">
<title>contacts:w&#45;&gt;jjwg_maps:e</title>
<path fill="none" stroke="#000000" d="M143.8407,-466.1516C82.9735,-524.912 178.2839,-1178.9409 102,-1178.9409"/>
<polygon fill="#000000" stroke="#000000" points="151.1682,-458.5938 154.3651,-465.9273 152.8984,-466.5667 149.7015,-459.2332 151.1682,-458.5938"/>
<polyline fill="none" stroke="#000000" points="153.5,-461.9409 149.8332,-463.5393 "/>
<ellipse fill="none" stroke="#000000" cx="146.8998" cy="-464.8181" rx="3.2" ry="3.2"/>
</g>
<!-- calls -->
<g id="node7" class="node">
<title>calls</title>
<g id="a_node7"><a xlink:href="../../tables/calls.html" xlink:title="calls" target="_top">
<polygon fill="#ffffff" stroke="transparent" points="586.5,-1114.4409 586.5,-1175.4409 650.5,-1175.4409 650.5,-1114.4409 586.5,-1114.4409"/>
<polygon fill="#f5f5f5" stroke="transparent" points="586.5,-1151.9409 586.5,-1174.9409 650.5,-1174.9409 650.5,-1151.9409 586.5,-1151.9409"/>
<polygon fill="none" stroke="#000000" points="586.5,-1151.9409 586.5,-1174.9409 650.5,-1174.9409 650.5,-1151.9409 586.5,-1151.9409"/>
<text text-anchor="start" x="591.0017" y="-1161.0409" font-family="Helvetica,sans-Serif" font-weight="bold" font-size="11.00" fill="#000000">calls</text>
<text text-anchor="start" x="616.0219" y="-1160.0409" font-family="Helvetica,sans-Serif" font-size="11.00" fill="#000000">[table]</text>
<polygon fill="none" stroke="#000000" points="586.5,-1132.9409 586.5,-1151.9409 650.5,-1151.9409 650.5,-1132.9409 586.5,-1132.9409"/>
<text text-anchor="start" x="589.5" y="-1139.0409" font-family="Helvetica,sans-Serif" font-size="11.00" fill="#000000">...</text>
<polygon fill="#ffffff" stroke="transparent" points="586.5,-1113.9409 586.5,-1132.9409 615.5,-1132.9409 615.5,-1113.9409 586.5,-1113.9409"/>
<polygon fill="none" stroke="#000000" points="586.5,-1113.9409 586.5,-1132.9409 615.5,-1132.9409 615.5,-1113.9409 586.5,-1113.9409"/>
<text text-anchor="start" x="589.5" y="-1120.0409" font-family="Helvetica,sans-Serif" font-size="11.00" fill="#000000">&lt; 12</text>
<polygon fill="#ffffff" stroke="transparent" points="615.5,-1113.9409 615.5,-1132.9409 628.5,-1132.9409 628.5,-1113.9409 615.5,-1113.9409"/>
<polygon fill="none" stroke="#000000" points="615.5,-1113.9409 615.5,-1132.9409 628.5,-1132.9409 628.5,-1113.9409 615.5,-1113.9409"/>
<text text-anchor="start" x="619.3862" y="-1120.0409" font-family="Helvetica,sans-Serif" font-size="11.00" fill="#000000"> &#160;</text>
<polygon fill="#ffffff" stroke="transparent" points="628.5,-1113.9409 628.5,-1132.9409 650.5,-1132.9409 650.5,-1113.9409 628.5,-1113.9409"/>
<polygon fill="none" stroke="#000000" points="628.5,-1113.9409 628.5,-1132.9409 650.5,-1132.9409 650.5,-1113.9409 628.5,-1113.9409"/>
<text text-anchor="start" x="631.9053" y="-1120.0409" font-family="Helvetica,sans-Serif" font-size="11.00" fill="#000000">6 &gt;</text>
</a>
</g>
</g>
<!-- calls&#45;&gt;accounts -->
<g id="edge5" class="edge">
<title>calls:w&#45;&gt;accounts:e</title>
<path fill="none" stroke="#000000" d="M571.8242,-1142.0537C428.4586,-1144.2872 389.0259,-1178.9409 238.5,-1178.9409"/>
<polygon fill="#000000" stroke="#000000" points="578.5002,-1142.0024 586.5277,-1145.5408 582.5001,-1141.9717 586.5,-1141.9409 586.5,-1141.9409 586.5,-1141.9409 582.5001,-1141.9717 586.4723,-1138.341 578.5002,-1142.0024 578.5002,-1142.0024"/>
<ellipse fill="none" stroke="#000000" cx="575.3003" cy="-1142.027" rx="3.2" ry="3.2"/>
</g>
<!-- calls&#45;&gt;cases -->
<g id="edge6" class="edge">
<title>calls:w&#45;&gt;cases:e</title>
<path fill="none" stroke="#000000" d="M572.0996,-1141.1404C534.4097,-1136.636 521.0201,-1113.3115 498,-1075.9409 470.4267,-1031.1786 509.5733,-842.9409 457,-842.9409"/>
<polygon fill="#000000" stroke="#000000" points="578.5123,-1141.4968 586.3002,-1145.5353 582.5062,-1141.7188 586.5,-1141.9409 586.5,-1141.9409 586.5,-1141.9409 582.5062,-1141.7188 586.6998,-1138.3464 578.5123,-1141.4968 578.5123,-1141.4968"/>
<ellipse fill="none" stroke="#000000" cx="575.3173" cy="-1141.3192" rx="3.2" ry="3.2"/>
</g>
<!-- cases_audit -->
<g id="node8" class="node">
<title>cases_audit</title>
<g id="a_node8"><a xlink:href="../../tables/cases_audit.html" xlink:title="cases_audit" target="_top">
<polygon fill="#ffffff" stroke="transparent" points="506,-634.9409 506,-900.9409 731,-900.9409 731,-634.9409 506,-634.9409"/>
<polygon fill="#f5f5f5" stroke="transparent" points="508.5,-875.9409 508.5,-898.9409 729.5,-898.9409 729.5,-875.9409 508.5,-875.9409"/>
<polygon fill="none" stroke="#000000" points="508.5,-875.9409 508.5,-898.9409 729.5,-898.9409 729.5,-875.9409 508.5,-875.9409"/>
<text text-anchor="start" x="513.5" y="-885.0409" font-family="Helvetica,sans-Serif" font-weight="bold" font-size="11.00" fill="#000000">cases_audit</text>
<text text-anchor="start" x="694.5437" y="-884.0409" font-family="Helvetica,sans-Serif" font-size="11.00" fill="#000000">[table]</text>
<polygon fill="none" stroke="#000000" points="508.5,-853.9409 508.5,-875.9409 662.5,-875.9409 662.5,-853.9409 508.5,-853.9409"/>
<image xlink:href="../../images/primaryKeys.png" width="11px" height="12px" preserveAspectRatio="xMinYMin meet" x="513.5" y="-870.941"/>
<text text-anchor="start" x="528.5" y="-861.0409" font-family="Helvetica,sans-Serif" font-size="11.00" fill="#000000">id</text>
<polygon fill="none" stroke="#000000" points="662.5,-853.9409 662.5,-875.9409 729.5,-875.9409 729.5,-853.9409 662.5,-853.9409"/>
<text text-anchor="start" x="665.5" y="-861.6409" font-family="Helvetica,sans-Serif" font-size="11.00" fill="#000000">char[36]</text>
<polygon fill="#ffffff" stroke="transparent" points="508.5,-831.9409 508.5,-853.9409 662.5,-853.9409 662.5,-831.9409 508.5,-831.9409"/>
<polygon fill="none" stroke="#000000" points="508.5,-831.9409 508.5,-853.9409 662.5,-853.9409 662.5,-831.9409 508.5,-831.9409"/>
<image xlink:href="../../images/foreignKeys.png" width="11px" height="12px" preserveAspectRatio="xMinYMin meet" x="513.5" y="-848.941"/>
<text text-anchor="start" x="528.5" y="-839.0409" font-family="Helvetica,sans-Serif" font-size="11.00" fill="#000000">parent_id</text>
<polygon fill="none" stroke="#000000" points="662.5,-831.9409 662.5,-853.9409 729.5,-853.9409 729.5,-831.9409 662.5,-831.9409"/>
<text text-anchor="start" x="665.5" y="-839.6409" font-family="Helvetica,sans-Serif" font-size="11.00" fill="#000000">char[36]</text>
<polygon fill="none" stroke="#000000" points="508.5,-809.9409 508.5,-831.9409 662.5,-831.9409 662.5,-809.9409 508.5,-809.9409"/>
<text text-anchor="start" x="528.5" y="-817.0409" font-family="Helvetica,sans-Serif" font-size="11.00" fill="#000000">date_created</text>
<polygon fill="none" stroke="#000000" points="662.5,-809.9409 662.5,-831.9409 729.5,-831.9409 729.5,-809.9409 662.5,-809.9409"/>
<text text-anchor="start" x="665.5" y="-817.6409" font-family="Helvetica,sans-Serif" font-size="11.00" fill="#000000">datetime[26]</text>
<polygon fill="none" stroke="#000000" points="508.5,-787.9409 508.5,-809.9409 662.5,-809.9409 662.5,-787.9409 508.5,-787.9409"/>
<text text-anchor="start" x="528.5" y="-795.0409" font-family="Helvetica,sans-Serif" font-size="11.00" fill="#000000">created_by</text>
<polygon fill="none" stroke="#000000" points="662.5,-787.9409 662.5,-809.9409 729.5,-809.9409 729.5,-787.9409 662.5,-787.9409"/>
<text text-anchor="start" x="665.5" y="-795.6409" font-family="Helvetica,sans-Serif" font-size="11.00" fill="#000000">varchar[36]</text>
<polygon fill="none" stroke="#000000" points="508.5,-765.9409 508.5,-787.9409 662.5,-787.9409 662.5,-765.9409 508.5,-765.9409"/>
<text text-anchor="start" x="528.5" y="-773.0409" font-family="Helvetica,sans-Serif" font-size="11.00" fill="#000000">field_name</text>
<polygon fill="none" stroke="#000000" points="662.5,-765.9409 662.5,-787.9409 729.5,-787.9409 729.5,-765.9409 662.5,-765.9409"/>
<text text-anchor="start" x="665.4365" y="-773.6409" font-family="Helvetica,sans-Serif" font-size="11.00" fill="#000000">varchar[100]</text>
<polygon fill="none" stroke="#000000" points="508.5,-743.9409 508.5,-765.9409 662.5,-765.9409 662.5,-743.9409 508.5,-743.9409"/>
<text text-anchor="start" x="528.5" y="-751.0409" font-family="Helvetica,sans-Serif" font-size="11.00" fill="#000000">data_type</text>
<polygon fill="none" stroke="#000000" points="662.5,-743.9409 662.5,-765.9409 729.5,-765.9409 729.5,-743.9409 662.5,-743.9409"/>
<text text-anchor="start" x="665.4365" y="-751.6409" font-family="Helvetica,sans-Serif" font-size="11.00" fill="#000000">varchar[100]</text>
<polygon fill="none" stroke="#000000" points="508.5,-721.9409 508.5,-743.9409 662.5,-743.9409 662.5,-721.9409 508.5,-721.9409"/>
<text text-anchor="start" x="528.5" y="-729.0409" font-family="Helvetica,sans-Serif" font-size="11.00" fill="#000000">before_value_string</text>
<polygon fill="none" stroke="#000000" points="662.5,-721.9409 662.5,-743.9409 729.5,-743.9409 729.5,-721.9409 662.5,-721.9409"/>
<text text-anchor="start" x="665.4365" y="-729.6409" font-family="Helvetica,sans-Serif" font-size="11.00" fill="#000000">varchar[255]</text>
<polygon fill="none" stroke="#000000" points="508.5,-699.9409 508.5,-721.9409 662.5,-721.9409 662.5,-699.9409 508.5,-699.9409"/>
<text text-anchor="start" x="528.5" y="-707.0409" font-family="Helvetica,sans-Serif" font-size="11.00" fill="#000000">after_value_string</text>
<polygon fill="none" stroke="#000000" points="662.5,-699.9409 662.5,-721.9409 729.5,-721.9409 729.5,-699.9409 662.5,-699.9409"/>
<text text-anchor="start" x="665.4365" y="-707.6409" font-family="Helvetica,sans-Serif" font-size="11.00" fill="#000000">varchar[255]</text>
<polygon fill="none" stroke="#000000" points="508.5,-677.9409 508.5,-699.9409 662.5,-699.9409 662.5,-677.9409 508.5,-677.9409"/>
<text text-anchor="start" x="528.5" y="-685.0409" font-family="Helvetica,sans-Serif" font-size="11.00" fill="#000000">before_value_text</text>
<polygon fill="none" stroke="#000000" points="662.5,-677.9409 662.5,-699.9409 729.5,-699.9409 729.5,-677.9409 662.5,-677.9409"/>
<text text-anchor="start" x="665.5" y="-685.6409" font-family="Helvetica,sans-Serif" font-size="11.00" fill="#000000">text[65535]</text>
<polygon fill="none" stroke="#000000" points="508.5,-655.9409 508.5,-677.9409 662.5,-677.9409 662.5,-655.9409 508.5,-655.9409"/>
<text text-anchor="start" x="528.5" y="-663.0409" font-family="Helvetica,sans-Serif" font-size="11.00" fill="#000000">after_value_text</text>
<polygon fill="none" stroke="#000000" points="662.5,-655.9409 662.5,-677.9409 729.5,-677.9409 729.5,-655.9409 662.5,-655.9409"/>
<text text-anchor="start" x="665.5" y="-663.6409" font-family="Helvetica,sans-Serif" font-size="11.00" fill="#000000">text[65535]</text>
<polygon fill="#ffffff" stroke="transparent" points="508.5,-636.9409 508.5,-655.9409 589.5,-655.9409 589.5,-636.9409 508.5,-636.9409"/>
<polygon fill="none" stroke="#000000" points="508.5,-636.9409 508.5,-655.9409 589.5,-655.9409 589.5,-636.9409 508.5,-636.9409"/>
<text text-anchor="start" x="511.5" y="-643.0409" font-family="Helvetica,sans-Serif" font-size="11.00" fill="#000000">&lt; 1</text>
<polygon fill="#ffffff" stroke="transparent" points="589.5,-636.9409 589.5,-655.9409 662.5,-655.9409 662.5,-636.9409 589.5,-636.9409"/>
<polygon fill="none" stroke="#000000" points="589.5,-636.9409 589.5,-655.9409 662.5,-655.9409 662.5,-636.9409 589.5,-636.9409"/>
<text text-anchor="start" x="653.3862" y="-643.0409" font-family="Helvetica,sans-Serif" font-size="11.00" fill="#000000"> &#160;</text>
<polygon fill="#ffffff" stroke="transparent" points="662.5,-636.9409 662.5,-655.9409 729.5,-655.9409 729.5,-636.9409 662.5,-636.9409"/>
<polygon fill="none" stroke="#000000" points="662.5,-636.9409 662.5,-655.9409 729.5,-655.9409 729.5,-636.9409 662.5,-636.9409"/>
<text text-anchor="start" x="710.9053" y="-643.0409" font-family="Helvetica,sans-Serif" font-size="11.00" fill="#000000">0 &gt;</text>
<polygon fill="none" stroke="#000000" stroke-width="2" points="507,-635.9409 507,-899.9409 730,-899.9409 730,-635.9409 507,-635.9409"/>
</a>
</g>
</g>
<!-- cases_audit&#45;&gt;cases -->
<g id="edge10" class="edge">
<title>cases_audit:w&#45;&gt;cases:e</title>
<path fill="none" stroke="#000000" d="M494.0156,-842.9409C481.6771,-842.9409 474.1667,-842.9409 457,-842.9409"/>
<polygon fill="#000000" stroke="#000000" points="500.5,-842.9409 508.5,-846.5409 504.5,-842.9409 508.5,-842.9409 508.5,-842.9409 508.5,-842.9409 504.5,-842.9409 508.5,-839.3409 500.5,-842.9409 500.5,-842.9409"/>
<ellipse fill="none" stroke="#000000" cx="497.3" cy="-842.941" rx="3.2" ry="3.2"/>
</g>
<!-- cases_bugs -->
<g id="node9" class="node">
<title>cases_bugs</title>
<g id="a_node9"><a xlink:href="../../tables/cases_bugs.html" xlink:title="cases_bugs" target="_top">
<polygon fill="#ffffff" stroke="transparent" points="568,-552.4409 568,-613.4409 669,-613.4409 669,-552.4409 568,-552.4409"/>
<polygon fill="#f5f5f5" stroke="transparent" points="568.5,-589.9409 568.5,-612.9409 669.5,-612.9409 669.5,-589.9409 568.5,-589.9409"/>
<polygon fill="none" stroke="#000000" points="568.5,-589.9409 568.5,-612.9409 669.5,-612.9409 669.5,-589.9409 568.5,-589.9409"/>
<text text-anchor="start" x="573.1553" y="-599.0409" font-family="Helvetica,sans-Serif" font-weight="bold" font-size="11.00" fill="#000000">cases_bugs</text>
<text text-anchor="start" x="635.0219" y="-598.0409" font-family="Helvetica,sans-Serif" font-size="11.00" fill="#000000">[table]</text>
<polygon fill="none" stroke="#000000" points="568.5,-570.9409 568.5,-589.9409 669.5,-589.9409 669.5,-570.9409 568.5,-570.9409"/>
<text text-anchor="start" x="571.5" y="-577.0409" font-family="Helvetica,sans-Serif" font-size="11.00" fill="#000000">...</text>
<polygon fill="#ffffff" stroke="transparent" points="568.5,-551.9409 568.5,-570.9409 617.5,-570.9409 617.5,-551.9409 568.5,-551.9409"/>
<polygon fill="none" stroke="#000000" points="568.5,-551.9409 568.5,-570.9409 617.5,-570.9409 617.5,-551.9409 568.5,-551.9409"/>
<text text-anchor="start" x="571.5" y="-558.0409" font-family="Helvetica,sans-Serif" font-size="11.00" fill="#000000">&lt; 2</text>
<polygon fill="#ffffff" stroke="transparent" points="617.5,-551.9409 617.5,-570.9409 643.5,-570.9409 643.5,-551.9409 617.5,-551.9409"/>
<polygon fill="none" stroke="#000000" points="617.5,-551.9409 617.5,-570.9409 643.5,-570.9409 643.5,-551.9409 617.5,-551.9409"/>
<text text-anchor="start" x="634.3862" y="-558.0409" font-family="Helvetica,sans-Serif" font-size="11.00" fill="#000000"> &#160;</text>
<polygon fill="#ffffff" stroke="transparent" points="643.5,-551.9409 643.5,-570.9409 669.5,-570.9409 669.5,-551.9409 643.5,-551.9409"/>
<polygon fill="none" stroke="#000000" points="643.5,-551.9409 643.5,-570.9409 669.5,-570.9409 669.5,-551.9409 643.5,-551.9409"/>
<text text-anchor="start" x="660.3862" y="-558.0409" font-family="Helvetica,sans-Serif" font-size="11.00" fill="#000000"> &#160;</text>
</a>
</g>
</g>
<!-- cases_bugs&#45;&gt;cases -->
<g id="edge11" class="edge">
<title>cases_bugs:w&#45;&gt;cases:e</title>
<path fill="none" stroke="#000000" d="M553.8281,-580.8381C527.537,-584.3926 515.8055,-598.5935 498,-624.9409 470.3991,-665.7829 506.2938,-842.9409 457,-842.9409"/>
<polygon fill="#000000" stroke="#000000" points="560.5149,-580.4292 568.7198,-583.5342 564.5075,-580.1851 568.5,-579.9409 568.5,-579.9409 568.5,-579.9409 564.5075,-580.1851 568.2802,-576.3476 560.5149,-580.4292 560.5149,-580.4292"/>
<ellipse fill="none" stroke="#000000" cx="557.3209" cy="-580.6246" rx="3.2" ry="3.2"/>
</g>
<!-- contacts_cases -->
<g id="node10" class="node">
<title>contacts_cases</title>
<g id="a_node10"><a xlink:href="../../tables/contacts_cases.html" xlink:title="contacts_cases" target="_top">
<polygon fill="#ffffff" stroke="transparent" points="559.5,-169.4409 559.5,-230.4409 677.5,-230.4409 677.5,-169.4409 559.5,-169.4409"/>
<polygon fill="#f5f5f5" stroke="transparent" points="559.5,-206.9409 559.5,-229.9409 677.5,-229.9409 677.5,-206.9409 559.5,-206.9409"/>
<polygon fill="none" stroke="#000000" points="559.5,-206.9409 559.5,-229.9409 677.5,-229.9409 677.5,-206.9409 559.5,-206.9409"/>
<text text-anchor="start" x="564.0984" y="-216.0409" font-family="Helvetica,sans-Serif" font-weight="bold" font-size="11.00" fill="#000000">contacts_cases</text>
<text text-anchor="start" x="643.0219" y="-215.0409" font-family="Helvetica,sans-Serif" font-size="11.00" fill="#000000">[table]</text>
<polygon fill="none" stroke="#000000" points="559.5,-187.9409 559.5,-206.9409 677.5,-206.9409 677.5,-187.9409 559.5,-187.9409"/>
<text text-anchor="start" x="562.5" y="-194.0409" font-family="Helvetica,sans-Serif" font-size="11.00" fill="#000000">...</text>
<polygon fill="#ffffff" stroke="transparent" points="559.5,-168.9409 559.5,-187.9409 616.5,-187.9409 616.5,-168.9409 559.5,-168.9409"/>
<polygon fill="none" stroke="#000000" points="559.5,-168.9409 559.5,-187.9409 616.5,-187.9409 616.5,-168.9409 559.5,-168.9409"/>
<text text-anchor="start" x="562.5" y="-175.0409" font-family="Helvetica,sans-Serif" font-size="11.00" fill="#000000">&lt; 2</text>
<polygon fill="#ffffff" stroke="transparent" points="616.5,-168.9409 616.5,-187.9409 646.5,-187.9409 646.5,-168.9409 616.5,-168.9409"/>
<polygon fill="none" stroke="#000000" points="616.5,-168.9409 616.5,-187.9409 646.5,-187.9409 646.5,-168.9409 616.5,-168.9409"/>
<text text-anchor="start" x="637.3862" y="-175.0409" font-family="Helvetica,sans-Serif" font-size="11.00" fill="#000000"> &#160;</text>
<polygon fill="#ffffff" stroke="transparent" points="646.5,-168.9409 646.5,-187.9409 677.5,-187.9409 677.5,-168.9409 646.5,-168.9409"/>
<polygon fill="none" stroke="#000000" points="646.5,-168.9409 646.5,-187.9409 677.5,-187.9409 677.5,-168.9409 646.5,-168.9409"/>
<text text-anchor="start" x="668.3862" y="-175.0409" font-family="Helvetica,sans-Serif" font-size="11.00" fill="#000000"> &#160;</text>
</a>
</g>
</g>
<!-- contacts_cases&#45;&gt;cases -->
<g id="edge13" class="edge">
<title>contacts_cases:w&#45;&gt;cases:e</title>
<path fill="none" stroke="#000000" d="M544.9414,-198.0684C522.0778,-202.0106 511.7519,-216.2916 498,-240.9409 465.3357,-299.4893 524.0438,-842.9409 457,-842.9409"/>
<polygon fill="#000000" stroke="#000000" points="551.5239,-197.5587 559.778,-200.5301 555.5119,-197.2498 559.5,-196.9409 559.5,-196.9409 559.5,-196.9409 555.5119,-197.2498 559.222,-193.3516 551.5239,-197.5587 551.5239,-197.5587"/>
<ellipse fill="none" stroke="#000000" cx="548.3334" cy="-197.8058" rx="3.2" ry="3.2"/>
</g>
<!-- contacts_cases&#45;&gt;contacts -->
<g id="edge14" class="edge">
<title>contacts_cases:w&#45;&gt;contacts:e</title>
<path fill="none" stroke="#000000" d="M544.9694,-196.9748C421.8935,-197.5989 365.0858,-207.7741 279,-302.9409 229.9298,-357.1874 309.6476,-461.9409 236.5,-461.9409"/>
<polygon fill="#000000" stroke="#000000" points="551.5,-196.9596 559.5084,-200.5409 555.5,-196.9502 559.5,-196.9409 559.5,-196.9409 559.5,-196.9409 555.5,-196.9502 559.4916,-193.3409 551.5,-196.9596 551.5,-196.9596"/>
<ellipse fill="none" stroke="#000000" cx="548.3" cy="-196.9671" rx="3.2" ry="3.2"/>
</g>
<!-- documents_cases -->
<g id="node11" class="node">
<title>documents_cases</title>
<g id="a_node11"><a xlink:href="../../tables/documents_cases.html" xlink:title="documents_cases" target="_top">
<polygon fill="#ffffff" stroke="transparent" points="553,-470.4409 553,-531.4409 684,-531.4409 684,-470.4409 553,-470.4409"/>
<polygon fill="#f5f5f5" stroke="transparent" points="553.5,-507.9409 553.5,-530.9409 684.5,-530.9409 684.5,-507.9409 553.5,-507.9409"/>
<polygon fill="none" stroke="#000000" points="553.5,-507.9409 553.5,-530.9409 684.5,-530.9409 684.5,-507.9409 553.5,-507.9409"/>
<text text-anchor="start" x="558.181" y="-517.0409" font-family="Helvetica,sans-Serif" font-weight="bold" font-size="11.00" fill="#000000">documents_cases</text>
<text text-anchor="start" x="650.0219" y="-516.0409" font-family="Helvetica,sans-Serif" font-size="11.00" fill="#000000">[table]</text>
<polygon fill="none" stroke="#000000" points="553.5,-488.9409 553.5,-507.9409 684.5,-507.9409 684.5,-488.9409 553.5,-488.9409"/>
<text text-anchor="start" x="556.5" y="-495.0409" font-family="Helvetica,sans-Serif" font-size="11.00" fill="#000000">...</text>
<polygon fill="#ffffff" stroke="transparent" points="553.5,-469.9409 553.5,-488.9409 617.5,-488.9409 617.5,-469.9409 553.5,-469.9409"/>
<polygon fill="none" stroke="#000000" points="553.5,-469.9409 553.5,-488.9409 617.5,-488.9409 617.5,-469.9409 553.5,-469.9409"/>
<text text-anchor="start" x="556.5" y="-476.0409" font-family="Helvetica,sans-Serif" font-size="11.00" fill="#000000">&lt; 2</text>
<polygon fill="#ffffff" stroke="transparent" points="617.5,-469.9409 617.5,-488.9409 650.5,-488.9409 650.5,-469.9409 617.5,-469.9409"/>
<polygon fill="none" stroke="#000000" points="617.5,-469.9409 617.5,-488.9409 650.5,-488.9409 650.5,-469.9409 617.5,-469.9409"/>
<text text-anchor="start" x="641.3862" y="-476.0409" font-family="Helvetica,sans-Serif" font-size="11.00" fill="#000000"> &#160;</text>
<polygon fill="#ffffff" stroke="transparent" points="650.5,-469.9409 650.5,-488.9409 684.5,-488.9409 684.5,-469.9409 650.5,-469.9409"/>
<polygon fill="none" stroke="#000000" points="650.5,-469.9409 650.5,-488.9409 684.5,-488.9409 684.5,-469.9409 650.5,-469.9409"/>
<text text-anchor="start" x="675.3862" y="-476.0409" font-family="Helvetica,sans-Serif" font-size="11.00" fill="#000000"> &#160;</text>
</a>
</g>
</g>
<!-- documents_cases&#45;&gt;cases -->
<g id="edge15" class="edge">
<title>documents_cases:w&#45;&gt;cases:e</title>
<path fill="none" stroke="#000000" d="M539.1578,-499.3863C518.9103,-503.9805 510.9055,-519.292 498,-541.9409 464.5791,-600.5939 524.5066,-842.9409 457,-842.9409"/>
<polygon fill="#000000" stroke="#000000" points="545.5403,-498.7431 553.861,-501.5227 549.5202,-498.342 553.5,-497.9409 553.5,-497.9409 553.5,-497.9409 549.5202,-498.342 553.139,-494.359 545.5403,-498.7431 545.5403,-498.7431"/>
<ellipse fill="none" stroke="#000000" cx="542.3564" cy="-499.064" rx="3.2" ry="3.2"/>
</g>
<!-- emails -->
<g id="node12" class="node">
<title>emails</title>
<g id="a_node12"><a xlink:href="../../tables/emails.html" xlink:title="emails" target="_top">
<polygon fill="#ffffff" stroke="transparent" points="581.5,-1196.4409 581.5,-1257.4409 655.5,-1257.4409 655.5,-1196.4409 581.5,-1196.4409"/>
<polygon fill="#f5f5f5" stroke="transparent" points="581.5,-1233.9409 581.5,-1256.9409 655.5,-1256.9409 655.5,-1233.9409 581.5,-1233.9409"/>
<polygon fill="none" stroke="#000000" points="581.5,-1233.9409 581.5,-1256.9409 655.5,-1256.9409 655.5,-1233.9409 581.5,-1233.9409"/>
<text text-anchor="start" x="586.1133" y="-1243.0409" font-family="Helvetica,sans-Serif" font-weight="bold" font-size="11.00" fill="#000000">emails</text>
<text text-anchor="start" x="621.0219" y="-1242.0409" font-family="Helvetica,sans-Serif" font-size="11.00" fill="#000000">[table]</text>
<polygon fill="none" stroke="#000000" points="581.5,-1214.9409 581.5,-1233.9409 655.5,-1233.9409 655.5,-1214.9409 581.5,-1214.9409"/>
<text text-anchor="start" x="584.5" y="-1221.0409" font-family="Helvetica,sans-Serif" font-size="11.00" fill="#000000">...</text>
<polygon fill="#ffffff" stroke="transparent" points="581.5,-1195.9409 581.5,-1214.9409 615.5,-1214.9409 615.5,-1195.9409 581.5,-1195.9409"/>
<polygon fill="none" stroke="#000000" points="581.5,-1195.9409 581.5,-1214.9409 615.5,-1214.9409 615.5,-1195.9409 581.5,-1195.9409"/>
<text text-anchor="start" x="584.5" y="-1202.0409" font-family="Helvetica,sans-Serif" font-size="11.00" fill="#000000">&lt; 12</text>
<polygon fill="#ffffff" stroke="transparent" points="615.5,-1195.9409 615.5,-1214.9409 630.5,-1214.9409 630.5,-1195.9409 615.5,-1195.9409"/>
<polygon fill="none" stroke="#000000" points="615.5,-1195.9409 615.5,-1214.9409 630.5,-1214.9409 630.5,-1195.9409 615.5,-1195.9409"/>
<text text-anchor="start" x="621.3862" y="-1202.0409" font-family="Helvetica,sans-Serif" font-size="11.00" fill="#000000"> &#160;</text>
<polygon fill="#ffffff" stroke="transparent" points="630.5,-1195.9409 630.5,-1214.9409 655.5,-1214.9409 655.5,-1195.9409 630.5,-1195.9409"/>
<polygon fill="none" stroke="#000000" points="630.5,-1195.9409 630.5,-1214.9409 655.5,-1214.9409 655.5,-1195.9409 630.5,-1195.9409"/>
<text text-anchor="start" x="636.9053" y="-1202.0409" font-family="Helvetica,sans-Serif" font-size="11.00" fill="#000000">3 &gt;</text>
</a>
</g>
</g>
<!-- emails&#45;&gt;accounts -->
<g id="edge16" class="edge">
<title>emails:w&#45;&gt;accounts:e</title>
<path fill="none" stroke="#000000" d="M566.9959,-1223.8037C425.3384,-1221.0872 387.2959,-1178.9409 238.5,-1178.9409"/>
<polygon fill="#000000" stroke="#000000" points="573.5004,-1223.8652 581.4659,-1227.5407 577.5002,-1223.903 581.5,-1223.9409 581.5,-1223.9409 581.5,-1223.9409 577.5002,-1223.903 581.5341,-1220.341 573.5004,-1223.8652 573.5004,-1223.8652"/>
<ellipse fill="none" stroke="#000000" cx="570.3005" cy="-1223.8349" rx="3.2" ry="3.2"/>
</g>
<!-- emails&#45;&gt;cases -->
<g id="edge17" class="edge">
<title>emails:w&#45;&gt;cases:e</title>
<path fill="none" stroke="#000000" d="M566.7755,-1223.6386C535.8258,-1222.1672 518.9635,-1214.6118 498,-1185.9409 452.6911,-1123.9736 533.7648,-842.9409 457,-842.9409"/>
<polygon fill="#000000" stroke="#000000" points="573.5017,-1223.7766 581.4261,-1227.5401 577.5008,-1223.8588 581.5,-1223.9409 581.5,-1223.9409 581.5,-1223.9409 577.5008,-1223.8588 581.5739,-1220.3416 573.5017,-1223.7766 573.5017,-1223.7766"/>
<ellipse fill="none" stroke="#000000" cx="570.3024" cy="-1223.7109" rx="3.2" ry="3.2"/>
</g>
<!-- emails_beans -->
<g id="node13" class="node">
<title>emails_beans</title>
<g id="a_node13"><a xlink:href="../../tables/emails_beans.html" xlink:title="emails_beans" target="_top">
<polygon fill="#ffffff" stroke="transparent" points="780,-1266.4409 780,-1327.4409 890,-1327.4409 890,-1266.4409 780,-1266.4409"/>
<polygon fill="#f5f5f5" stroke="transparent" points="780,-1303.9409 780,-1326.9409 890,-1326.9409 890,-1303.9409 780,-1303.9409"/>
<polygon fill="none" stroke="#000000" points="780,-1303.9409 780,-1326.9409 890,-1326.9409 890,-1303.9409 780,-1303.9409"/>
<text text-anchor="start" x="784.576" y="-1313.0409" font-family="Helvetica,sans-Serif" font-weight="bold" font-size="11.00" fill="#000000">emails_beans</text>
<text text-anchor="start" x="855.5219" y="-1312.0409" font-family="Helvetica,sans-Serif" font-size="11.00" fill="#000000">[table]</text>
<polygon fill="none" stroke="#000000" points="780,-1284.9409 780,-1303.9409 890,-1303.9409 890,-1284.9409 780,-1284.9409"/>
<text text-anchor="start" x="783" y="-1291.0409" font-family="Helvetica,sans-Serif" font-size="11.00" fill="#000000">...</text>
<polygon fill="#ffffff" stroke="transparent" points="780,-1265.9409 780,-1284.9409 836,-1284.9409 836,-1265.9409 780,-1265.9409"/>
<polygon fill="none" stroke="#000000" points="780,-1265.9409 780,-1284.9409 836,-1284.9409 836,-1265.9409 780,-1265.9409"/>
<text text-anchor="start" x="783" y="-1272.0409" font-family="Helvetica,sans-Serif" font-size="11.00" fill="#000000">&lt; 14</text>
<polygon fill="#ffffff" stroke="transparent" points="836,-1265.9409 836,-1284.9409 863,-1284.9409 863,-1265.9409 836,-1265.9409"/>
<polygon fill="none" stroke="#000000" points="836,-1265.9409 836,-1284.9409 863,-1284.9409 863,-1265.9409 836,-1265.9409"/>
<text text-anchor="start" x="853.8862" y="-1272.0409" font-family="Helvetica,sans-Serif" font-size="11.00" fill="#000000"> &#160;</text>
<polygon fill="#ffffff" stroke="transparent" points="863,-1265.9409 863,-1284.9409 890,-1284.9409 890,-1265.9409 863,-1265.9409"/>
<polygon fill="none" stroke="#000000" points="863,-1265.9409 863,-1284.9409 890,-1284.9409 890,-1265.9409 863,-1265.9409"/>
<text text-anchor="start" x="880.8862" y="-1272.0409" font-family="Helvetica,sans-Serif" font-size="11.00" fill="#000000"> &#160;</text>
</a>
</g>
</g>
<!-- emails_beans&#45;&gt;accounts -->
<g id="edge18" class="edge">
<title>emails_beans:w&#45;&gt;accounts:e</title>
<path fill="none" stroke="#000000" d="M766.0103,-1297.9716C757.3808,-1303.9334 753.6081,-1314.8384 739,-1318.9409 635.8782,-1347.9009 602.0874,-1344.2116 498,-1318.9409 391.5655,-1293.1003 373.3795,-1261.5157 279,-1205.9409 260.3585,-1194.9639 260.1333,-1178.9409 238.5,-1178.9409"/>
<polygon fill="#000000" stroke="#000000" points="772.3127,-1296.1558 780.9967,-1297.4002 776.1564,-1295.0483 780,-1293.9409 780,-1293.9409 780,-1293.9409 776.1564,-1295.0483 779.0033,-1290.4816 772.3127,-1296.1558 772.3127,-1296.1558"/>
<ellipse fill="none" stroke="#000000" cx="769.2378" cy="-1297.0418" rx="3.2" ry="3.2"/>
</g>
<!-- emails_beans&#45;&gt;cases -->
<g id="edge19" class="edge">
<title>emails_beans:w&#45;&gt;cases:e</title>
<path fill="none" stroke="#000000" d="M765.1548,-1294.1856C693.1743,-1296.2186 539.4586,-1309.2243 498,-1267.9409 430.7658,-1200.9907 551.8829,-842.9409 457,-842.9409"/>
<polygon fill="#000000" stroke="#000000" points="772.0011,-1294.0728 780.0594,-1297.5404 776.0005,-1294.0068 780,-1293.9409 780,-1293.9409 780,-1293.9409 776.0005,-1294.0068 779.9406,-1290.3414 772.0011,-1294.0728 772.0011,-1294.0728"/>
<ellipse fill="none" stroke="#000000" cx="768.8015" cy="-1294.1256" rx="3.2" ry="3.2"/>
</g>
<!-- emails_beans&#45;&gt;contacts -->
<g id="edge20" class="edge">
<title>emails_beans:w&#45;&gt;contacts:e</title>
<path fill="none" stroke="#000000" d="M765.2956,-1294.4086C694.2814,-1298.3725 545.7072,-1325.3844 498,-1291.9409 463.4555,-1267.7246 485.3439,-1239.8987 465,-1202.9409 399.2434,-1083.4836 328.0954,-1086.1557 279,-958.9409 259.045,-907.2341 291.9238,-461.9409 236.5,-461.9409"/>
<polygon fill="#000000" stroke="#000000" points="772.004,-1294.1953 780.1145,-1297.5391 776.002,-1294.0681 780,-1293.9409 780,-1293.9409 780,-1293.9409 776.002,-1294.0681 779.8855,-1290.3427 772.004,-1294.1953 772.004,-1294.1953"/>
<ellipse fill="none" stroke="#000000" cx="768.8057" cy="-1294.297" rx="3.2" ry="3.2"/>
</g>
<!-- emails_beans&#45;&gt;emails -->
<g id="edge23" class="edge">
<title>emails_beans:w&#45;&gt;emails:e</title>
<path fill="none" stroke="#000000" d="M766.6936,-1287.7288C735.5715,-1270.5972 661.9782,-1223.9409 655.5,-1223.9409"/>
<polygon fill="#000000" stroke="#000000" points="772.751,-1290.5567 778.4771,-1297.2029 776.3755,-1292.2488 780,-1293.9409 780,-1293.9409 780,-1293.9409 776.3755,-1292.2488 781.5229,-1290.6788 772.751,-1290.5567 772.751,-1290.5567"/>
<ellipse fill="none" stroke="#000000" cx="769.8514" cy="-1289.203" rx="3.2" ry="3.2"/>
</g>
<!-- meetings -->
<g id="node14" class="node">
<title>meetings</title>
<g id="a_node14"><a xlink:href="../../tables/meetings.html" xlink:title="meetings" target="_top">
<polygon fill="#ffffff" stroke="transparent" points="575,-1360.4409 575,-1421.4409 662,-1421.4409 662,-1360.4409 575,-1360.4409"/>
<polygon fill="#f5f5f5" stroke="transparent" points="575.5,-1397.9409 575.5,-1420.9409 662.5,-1420.9409 662.5,-1397.9409 575.5,-1397.9409"/>
<polygon fill="none" stroke="#000000" points="575.5,-1397.9409 575.5,-1420.9409 662.5,-1420.9409 662.5,-1397.9409 575.5,-1397.9409"/>
<text text-anchor="start" x="580.1904" y="-1407.0409" font-family="Helvetica,sans-Serif" font-weight="bold" font-size="11.00" fill="#000000">meetings</text>
<text text-anchor="start" x="628.0219" y="-1406.0409" font-family="Helvetica,sans-Serif" font-size="11.00" fill="#000000">[table]</text>
<polygon fill="none" stroke="#000000" points="575.5,-1378.9409 575.5,-1397.9409 662.5,-1397.9409 662.5,-1378.9409 575.5,-1378.9409"/>
<text text-anchor="start" x="578.5" y="-1385.0409" font-family="Helvetica,sans-Serif" font-size="11.00" fill="#000000">...</text>
<polygon fill="#ffffff" stroke="transparent" points="575.5,-1359.9409 575.5,-1378.9409 615.5,-1378.9409 615.5,-1359.9409 575.5,-1359.9409"/>
<polygon fill="none" stroke="#000000" points="575.5,-1359.9409 575.5,-1378.9409 615.5,-1378.9409 615.5,-1359.9409 575.5,-1359.9409"/>
<text text-anchor="start" x="578.5" y="-1366.0409" font-family="Helvetica,sans-Serif" font-size="11.00" fill="#000000">&lt; 13</text>
<polygon fill="#ffffff" stroke="transparent" points="615.5,-1359.9409 615.5,-1378.9409 634.5,-1378.9409 634.5,-1359.9409 615.5,-1359.9409"/>
<polygon fill="none" stroke="#000000" points="615.5,-1359.9409 615.5,-1378.9409 634.5,-1378.9409 634.5,-1359.9409 615.5,-1359.9409"/>
<text text-anchor="start" x="625.3862" y="-1366.0409" font-family="Helvetica,sans-Serif" font-size="11.00" fill="#000000"> &#160;</text>
<polygon fill="#ffffff" stroke="transparent" points="634.5,-1359.9409 634.5,-1378.9409 662.5,-1378.9409 662.5,-1359.9409 634.5,-1359.9409"/>
<polygon fill="none" stroke="#000000" points="634.5,-1359.9409 634.5,-1378.9409 662.5,-1378.9409 662.5,-1359.9409 634.5,-1359.9409"/>
<text text-anchor="start" x="643.9053" y="-1366.0409" font-family="Helvetica,sans-Serif" font-size="11.00" fill="#000000">7 &gt;</text>
</a>
</g>
</g>
<!-- emails_beans&#45;&gt;meetings -->
<g id="edge21" class="edge">
<title>emails_beans:w&#45;&gt;meetings:e</title>
<path fill="none" stroke="#000000" d="M766.0667,-1297.9028C753.6799,-1307.2337 756.7226,-1330.9341 739,-1345.9409 709.3993,-1371.0056 701.2872,-1387.9409 662.5,-1387.9409"/>
<polygon fill="#000000" stroke="#000000" points="772.305,-1296.129 780.9846,-1297.4036 776.1525,-1295.0349 780,-1293.9409 780,-1293.9409 780,-1293.9409 776.1525,-1295.0349 779.0154,-1290.4781 772.305,-1296.129 772.305,-1296.129"/>
<ellipse fill="none" stroke="#000000" cx="769.227" cy="-1297.0042" rx="3.2" ry="3.2"/>
</g>
<!-- tasks -->
<g id="node15" class="node">
<title>tasks</title>
<g id="a_node15"><a xlink:href="../../tables/tasks.html" xlink:title="tasks" target="_top">
<polygon fill="#ffffff" stroke="transparent" points="584.5,-1004.4409 584.5,-1065.4409 652.5,-1065.4409 652.5,-1004.4409 584.5,-1004.4409"/>
<polygon fill="#f5f5f5" stroke="transparent" points="584.5,-1041.9409 584.5,-1064.9409 652.5,-1064.9409 652.5,-1041.9409 584.5,-1041.9409"/>
<polygon fill="none" stroke="#000000" points="584.5,-1041.9409 584.5,-1064.9409 652.5,-1064.9409 652.5,-1041.9409 584.5,-1041.9409"/>
<text text-anchor="start" x="589.1641" y="-1051.0409" font-family="Helvetica,sans-Serif" font-weight="bold" font-size="11.00" fill="#000000">tasks</text>
<text text-anchor="start" x="618.0219" y="-1050.0409" font-family="Helvetica,sans-Serif" font-size="11.00" fill="#000000">[table]</text>
<polygon fill="none" stroke="#000000" points="584.5,-1022.9409 584.5,-1041.9409 652.5,-1041.9409 652.5,-1022.9409 584.5,-1022.9409"/>
<text text-anchor="start" x="587.5" y="-1029.0409" font-family="Helvetica,sans-Serif" font-size="11.00" fill="#000000">...</text>
<polygon fill="#ffffff" stroke="transparent" points="584.5,-1003.9409 584.5,-1022.9409 615.5,-1022.9409 615.5,-1003.9409 584.5,-1003.9409"/>
<polygon fill="none" stroke="#000000" points="584.5,-1003.9409 584.5,-1022.9409 615.5,-1022.9409 615.5,-1003.9409 584.5,-1003.9409"/>
<text text-anchor="start" x="587.5" y="-1010.0409" font-family="Helvetica,sans-Serif" font-size="11.00" fill="#000000">&lt; 14</text>
<polygon fill="#ffffff" stroke="transparent" points="615.5,-1003.9409 615.5,-1022.9409 629.5,-1022.9409 629.5,-1003.9409 615.5,-1003.9409"/>
<polygon fill="none" stroke="#000000" points="615.5,-1003.9409 615.5,-1022.9409 629.5,-1022.9409 629.5,-1003.9409 615.5,-1003.9409"/>
<text text-anchor="start" x="620.3862" y="-1010.0409" font-family="Helvetica,sans-Serif" font-size="11.00" fill="#000000"> &#160;</text>
<polygon fill="#ffffff" stroke="transparent" points="629.5,-1003.9409 629.5,-1022.9409 652.5,-1022.9409 652.5,-1003.9409 629.5,-1003.9409"/>
<polygon fill="none" stroke="#000000" points="629.5,-1003.9409 629.5,-1022.9409 652.5,-1022.9409 652.5,-1003.9409 629.5,-1003.9409"/>
<text text-anchor="start" x="633.9053" y="-1010.0409" font-family="Helvetica,sans-Serif" font-size="11.00" fill="#000000">3 &gt;</text>
</a>
</g>
</g>
<!-- emails_beans&#45;&gt;tasks -->
<g id="edge22" class="edge">
<title>emails_beans:w&#45;&gt;tasks:e</title>
<path fill="none" stroke="#000000" d="M765.4127,-1292.5363C704.6714,-1279.1492 780.8695,-1173.0701 739,-1103.9409 713.0869,-1061.1567 702.5197,-1031.9409 652.5,-1031.9409"/>
<polygon fill="#000000" stroke="#000000" points="772.0368,-1293.1741 779.6549,-1297.5243 776.0184,-1293.5575 780,-1293.9409 780,-1293.9409 780,-1293.9409 776.0184,-1293.5575 780.3451,-1290.3575 772.0368,-1293.1741 772.0368,-1293.1741"/>
<ellipse fill="none" stroke="#000000" cx="768.8516" cy="-1292.8673" rx="3.2" ry="3.2"/>
</g>
<!-- meetings&#45;&gt;accounts -->
<g id="edge25" class="edge">
<title>meetings:w&#45;&gt;accounts:e</title>
<path fill="none" stroke="#000000" d="M560.9598,-1388.1274C437.5483,-1391.2724 373.9143,-1432.0501 279,-1345.9409 222.4357,-1294.624 314.8737,-1178.9409 238.5,-1178.9409"/>
<polygon fill="#000000" stroke="#000000" points="567.5007,-1388.0435 575.5462,-1391.5406 571.5003,-1387.9922 575.5,-1387.9409 575.5,-1387.9409 575.5,-1387.9409 571.5003,-1387.9922 575.4538,-1384.3412 567.5007,-1388.0435 567.5007,-1388.0435"/>
<ellipse fill="none" stroke="#000000" cx="564.3009" cy="-1388.0846" rx="3.2" ry="3.2"/>
</g>
<!-- meetings&#45;&gt;jjwg_maps -->
<g id="edge24" class="edge">
<title>meetings:w&#45;&gt;jjwg_maps:e</title>
<path fill="none" stroke="#000000" d="M564.8794,-1388.0514C441.1726,-1390.6351 395.1727,-1437.1374 279,-1382.9409 272.2011,-1379.7691 109.5023,-1178.9409 102,-1178.9409"/>
<polygon fill="#000000" stroke="#000000" points="574.6584,-1383.9494 574.7417,-1391.949 573.1418,-1391.9657 573.0585,-1383.9661 574.6584,-1383.9494"/>
<polyline fill="none" stroke="#000000" points="575.5,-1387.9409 571.5002,-1387.9826 "/>
<ellipse fill="none" stroke="#000000" cx="568.3004" cy="-1388.0159" rx="3.2" ry="3.2"/>
</g>
<!-- meetings&#45;&gt;cases -->
<g id="edge26" class="edge">
<title>meetings:w&#45;&gt;cases:e</title>
<path fill="none" stroke="#000000" d="M561.1438,-1386.7341C520.1,-1379.2412 516.6282,-1337.8959 498,-1291.9409 479.1804,-1245.5138 507.0965,-842.9409 457,-842.9409"/>
<polygon fill="#000000" stroke="#000000" points="567.5281,-1387.2707 575.1984,-1391.5282 571.5141,-1387.6058 575.5,-1387.9409 575.5,-1387.9409 575.5,-1387.9409 571.5141,-1387.6058 575.8016,-1384.3535 567.5281,-1387.2707 567.5281,-1387.2707"/>
<ellipse fill="none" stroke="#000000" cx="564.3394" cy="-1387.0026" rx="3.2" ry="3.2"/>
</g>
<!-- tasks&#45;&gt;accounts -->
<g id="edge47" class="edge">
<title>tasks:w&#45;&gt;accounts:e</title>
<path fill="none" stroke="#000000" d="M570.0052,-1031.9342C440.2758,-1031.8467 387.7255,-1032.025 279,-1112.9409 251.391,-1133.4881 272.9158,-1178.9409 238.5,-1178.9409"/>
<polygon fill="#000000" stroke="#000000" points="576.5,-1031.9371 584.4983,-1035.5409 580.5,-1031.939 584.5,-1031.9409 584.5,-1031.9409 584.5,-1031.9409 580.5,-1031.939 584.5017,-1028.3409 576.5,-1031.9371 576.5,-1031.9371"/>
<ellipse fill="none" stroke="#000000" cx="573.3" cy="-1031.9356" rx="3.2" ry="3.2"/>
</g>
<!-- tasks&#45;&gt;cases -->
<g id="edge48" class="edge">
<title>tasks:w&#45;&gt;cases:e</title>
<path fill="none" stroke="#000000" d="M569.8513,-1031.613C538.0719,-1029.9945 521.9774,-1021.7805 498,-993.9409 452.6181,-941.249 526.541,-842.9409 457,-842.9409"/>
<polygon fill="#000000" stroke="#000000" points="576.502,-1031.7618 584.4194,-1035.54 580.501,-1031.8514 584.5,-1031.9409 584.5,-1031.9409 584.5,-1031.9409 580.501,-1031.8514 584.5806,-1028.3418 576.502,-1031.7618 576.502,-1031.7618"/>
<ellipse fill="none" stroke="#000000" cx="573.3028" cy="-1031.6902" rx="3.2" ry="3.2"/>
</g>
<!-- tasks&#45;&gt;contacts -->
<g id="edge46" class="edge">
<title>tasks:w&#45;&gt;contacts:e</title>
<path fill="none" stroke="#000000" d="M569.8123,-1031.0963C496.158,-1023.4797 332.9184,-965.1313 279,-887.9409 224.5207,-809.9474 331.6366,-461.9409 236.5,-461.9409"/>
<polygon fill="#000000" stroke="#000000" points="576.5132,-1031.4816 584.2933,-1035.5349 580.5066,-1031.7112 584.5,-1031.9409 584.5,-1031.9409 584.5,-1031.9409 580.5066,-1031.7112 584.7067,-1028.3468 576.5132,-1031.4816 576.5132,-1031.4816"/>
<ellipse fill="none" stroke="#000000" cx="573.3185" cy="-1031.2978" rx="3.2" ry="3.2"/>
</g>
<!-- tasks&#45;&gt;contacts -->
<g id="edge49" class="edge">
<title>tasks:w&#45;&gt;contacts:e</title>
<path fill="none" stroke="#000000" d="M569.6952,-1031.0521C493.7426,-1022.8011 330.1209,-958.2094 279,-883.9409 225.5599,-806.3031 330.7522,-461.9409 236.5,-461.9409"/>
<polygon fill="#000000" stroke="#000000" points="576.5144,-1031.4614 584.2843,-1035.5344 580.5072,-1031.7012 584.5,-1031.9409 584.5,-1031.9409 584.5,-1031.9409 580.5072,-1031.7012 584.7157,-1028.3473 576.5144,-1031.4614 576.5144,-1031.4614"/>
<ellipse fill="none" stroke="#000000" cx="573.3201" cy="-1031.2697" rx="3.2" ry="3.2"/>
</g>
<!-- notes -->
<g id="node16" class="node">
<title>notes</title>
<g id="a_node16"><a xlink:href="../../tables/notes.html" xlink:title="notes" target="_top">
<polygon fill="#ffffff" stroke="transparent" points="800.5,-1010.4409 800.5,-1071.4409 869.5,-1071.4409 869.5,-1010.4409 800.5,-1010.4409"/>
<polygon fill="#f5f5f5" stroke="transparent" points="801,-1047.9409 801,-1070.9409 870,-1070.9409 870,-1047.9409 801,-1047.9409"/>
<polygon fill="none" stroke="#000000" points="801,-1047.9409 801,-1070.9409 870,-1070.9409 870,-1047.9409 801,-1047.9409"/>
<text text-anchor="start" x="805.5492" y="-1057.0409" font-family="Helvetica,sans-Serif" font-weight="bold" font-size="11.00" fill="#000000">notes</text>
<text text-anchor="start" x="835.5219" y="-1056.0409" font-family="Helvetica,sans-Serif" font-size="11.00" fill="#000000">[table]</text>
<polygon fill="none" stroke="#000000" points="801,-1028.9409 801,-1047.9409 870,-1047.9409 870,-1028.9409 801,-1028.9409"/>
<text text-anchor="start" x="804" y="-1035.0409" font-family="Helvetica,sans-Serif" font-size="11.00" fill="#000000">...</text>
<polygon fill="#ffffff" stroke="transparent" points="801,-1009.9409 801,-1028.9409 832,-1028.9409 832,-1009.9409 801,-1009.9409"/>
<polygon fill="none" stroke="#000000" points="801,-1009.9409 801,-1028.9409 832,-1028.9409 832,-1009.9409 801,-1009.9409"/>
<text text-anchor="start" x="804" y="-1016.0409" font-family="Helvetica,sans-Serif" font-size="11.00" fill="#000000">&lt; 19</text>
<polygon fill="#ffffff" stroke="transparent" points="832,-1009.9409 832,-1028.9409 846,-1028.9409 846,-1009.9409 832,-1009.9409"/>
<polygon fill="none" stroke="#000000" points="832,-1009.9409 832,-1028.9409 846,-1028.9409 846,-1009.9409 832,-1009.9409"/>
<text text-anchor="start" x="836.8862" y="-1016.0409" font-family="Helvetica,sans-Serif" font-size="11.00" fill="#000000"> &#160;</text>
<polygon fill="#ffffff" stroke="transparent" points="846,-1009.9409 846,-1028.9409 870,-1028.9409 870,-1009.9409 846,-1009.9409"/>
<polygon fill="none" stroke="#000000" points="846,-1009.9409 846,-1028.9409 870,-1028.9409 870,-1009.9409 846,-1009.9409"/>
<text text-anchor="start" x="851.4053" y="-1016.0409" font-family="Helvetica,sans-Serif" font-size="11.00" fill="#000000">1 &gt;</text>
</a>
</g>
</g>
<!-- notes&#45;&gt;accounts -->
<g id="edge28" class="edge">
<title>notes:w&#45;&gt;accounts:e</title>
<path fill="none" stroke="#000000" d="M786.6819,-1040.244C768.0144,-1047.067 764.177,-1067.2395 739,-1075.9409 637.0835,-1111.1642 604.5059,-1087.0841 498,-1103.9409 399.9422,-1119.4606 369.4141,-1106.935 279,-1147.9409 258.3562,-1157.3036 261.1678,-1178.9409 238.5,-1178.9409"/>
<polygon fill="#000000" stroke="#000000" points="793.1015,-1039.2114 801.5717,-1041.4952 797.0508,-1038.5761 801,-1037.9409 801,-1037.9409 801,-1037.9409 797.0508,-1038.5761 800.4283,-1034.3866 793.1015,-1039.2114 793.1015,-1039.2114"/>
<ellipse fill="none" stroke="#000000" cx="789.9421" cy="-1039.7196" rx="3.2" ry="3.2"/>
</g>
<!-- notes&#45;&gt;cases -->
<g id="edge31" class="edge">
<title>notes:w&#45;&gt;cases:e</title>
<path fill="none" stroke="#000000" d="M786.7016,-1035.9058C666.9704,-999.0784 844.0984,-473.6291 739,-377.9409 699.3992,-341.8858 537.4976,-341.7727 498,-377.9409 421.4953,-447.9968 560.7342,-842.9409 457,-842.9409"/>
<polygon fill="#000000" stroke="#000000" points="793.0798,-1036.8136 800.4927,-1041.505 797.0399,-1037.3772 801,-1037.9409 801,-1037.9409 801,-1037.9409 797.0399,-1037.3772 801.5073,-1034.3768 793.0798,-1036.8136 793.0798,-1036.8136"/>
<ellipse fill="none" stroke="#000000" cx="789.9117" cy="-1036.3627" rx="3.2" ry="3.2"/>
</g>
<!-- notes&#45;&gt;aop_case_updates -->
<g id="edge29" class="edge">
<title>notes:w&#45;&gt;aop_case_updates:e</title>
<path fill="none" stroke="#000000" d="M788.0159,-1031.0466C729.4926,-963.5116 763.5693,-421.1318 739,-353.9409 725.0266,-315.727 727.1885,-278.9409 686.5,-278.9409"/>
<polygon fill="#000000" stroke="#000000" points="793.9343,-1034.1891 799.3117,-1041.1205 797.4671,-1036.065 801,-1037.9409 801,-1037.9409 801,-1037.9409 797.4671,-1036.065 802.6883,-1034.7613 793.9343,-1034.1891 793.9343,-1034.1891"/>
<ellipse fill="none" stroke="#000000" cx="791.108" cy="-1032.6884" rx="3.2" ry="3.2"/>
</g>
<!-- notes&#45;&gt;contacts -->
<g id="edge27" class="edge">
<title>notes:w&#45;&gt;contacts:e</title>
<path fill="none" stroke="#000000" d="M787.6231,-1031.8612C713.5503,-957.3694 806.9892,-222.3034 739,-158.9409 663.95,-88.9981 350.9361,-124.7993 279,-197.9409 237.3329,-240.3063 295.922,-461.9409 236.5,-461.9409"/>
<polygon fill="#000000" stroke="#000000" points="793.7169,-1034.6307 799.5104,-1041.2183 797.3585,-1036.2858 801,-1037.9409 801,-1037.9409 801,-1037.9409 797.3585,-1036.2858 802.4896,-1034.6635 793.7169,-1034.6307 793.7169,-1034.6307"/>
<ellipse fill="none" stroke="#000000" cx="790.8037" cy="-1033.3067" rx="3.2" ry="3.2"/>
</g>
<!-- notes&#45;&gt;contacts -->
<g id="edge32" class="edge">
<title>notes:w&#45;&gt;contacts:e</title>
<path fill="none" stroke="#000000" d="M787.6817,-1031.8887C713.9195,-957.7351 806.6915,-226.0057 739,-162.9409 663.9388,-93.0101 351.0243,-128.8861 279,-201.9409 237.8978,-243.6312 295.0446,-461.9409 236.5,-461.9409"/>
<polygon fill="#000000" stroke="#000000" points="793.7167,-1034.6312 799.5106,-1041.2184 797.3584,-1036.286 801,-1037.9409 801,-1037.9409 801,-1037.9409 797.3584,-1036.286 802.4894,-1034.6634 793.7167,-1034.6312 793.7167,-1034.6312"/>
<ellipse fill="none" stroke="#000000" cx="790.8034" cy="-1033.3073" rx="3.2" ry="3.2"/>
</g>
<!-- notes&#45;&gt;calls -->
<g id="edge30" class="edge">
<title>notes:w&#45;&gt;calls:e</title>
<path fill="none" stroke="#000000" d="M786.5158,-1040.3693C763.7517,-1049.303 766.1189,-1080.8149 739,-1099.9409 703.4205,-1125.0338 694.038,-1141.9409 650.5,-1141.9409"/>
<polygon fill="#000000" stroke="#000000" points="793.1101,-1039.2638 801.5953,-1041.4913 797.0551,-1038.6023 801,-1037.9409 801,-1037.9409 801,-1037.9409 797.0551,-1038.6023 800.4047,-1034.3904 793.1101,-1039.2638 793.1101,-1039.2638"/>
<ellipse fill="none" stroke="#000000" cx="789.9542" cy="-1039.7929" rx="3.2" ry="3.2"/>
</g>
<!-- notes&#45;&gt;emails -->
<g id="edge33" class="edge">
<title>notes:w&#45;&gt;emails:e</title>
<path fill="none" stroke="#000000" d="M786.557,-1039.6456C738.2352,-1052.7893 784.7773,-1138.7518 739,-1185.9409 710.61,-1215.2065 696.2734,-1223.9409 655.5,-1223.9409"/>
<polygon fill="#000000" stroke="#000000" points="793.0552,-1038.8787 801.422,-1041.5161 797.0276,-1038.4098 801,-1037.9409 801,-1037.9409 801,-1037.9409 797.0276,-1038.4098 800.578,-1034.3657 793.0552,-1038.8787 793.0552,-1038.8787"/>
<ellipse fill="none" stroke="#000000" cx="789.8772" cy="-1039.2538" rx="3.2" ry="3.2"/>
</g>
<!-- notes&#45;&gt;meetings -->
<g id="edge34" class="edge">
<title>notes:w&#45;&gt;meetings:e</title>
<path fill="none" stroke="#000000" d="M786.5739,-1038.9107C703.4341,-1051.1123 779.599,-1175.8989 739,-1267.9409 713.4742,-1325.8104 725.7491,-1387.9409 662.5,-1387.9409"/>
<polygon fill="#000000" stroke="#000000" points="793.018,-1038.4775 801.2415,-1041.5328 797.009,-1038.2092 801,-1037.9409 801,-1037.9409 801,-1037.9409 797.009,-1038.2092 800.7585,-1034.349 793.018,-1038.4775 793.018,-1038.4775"/>
<ellipse fill="none" stroke="#000000" cx="789.8252" cy="-1038.6922" rx="3.2" ry="3.2"/>
</g>
<!-- notes&#45;&gt;tasks -->
<g id="edge35" class="edge">
<title>notes:w&#45;&gt;tasks:e</title>
<path fill="none" stroke="#000000" d="M786.3806,-1037.8367C732.0817,-1037.04 713.3934,-1031.9409 652.5,-1031.9409"/>
<polygon fill="#000000" stroke="#000000" points="793.0002,-1037.8838 800.9743,-1041.5408 797.0001,-1037.9124 801,-1037.9409 801,-1037.9409 801,-1037.9409 797.0001,-1037.9124 801.0257,-1034.341 793.0002,-1037.8838 793.0002,-1037.8838"/>
<ellipse fill="none" stroke="#000000" cx="789.8003" cy="-1037.861" rx="3.2" ry="3.2"/>
</g>
<!-- projects_cases -->
<g id="node17" class="node">
<title>projects_cases</title>
<g id="a_node17"><a xlink:href="../../tables/projects_cases.html" xlink:title="projects_cases" target="_top">
<polygon fill="#ffffff" stroke="transparent" points="560.5,-388.4409 560.5,-449.4409 676.5,-449.4409 676.5,-388.4409 560.5,-388.4409"/>
<polygon fill="#f5f5f5" stroke="transparent" points="560.5,-425.9409 560.5,-448.9409 676.5,-448.9409 676.5,-425.9409 560.5,-425.9409"/>
<polygon fill="none" stroke="#000000" points="560.5,-425.9409 560.5,-448.9409 676.5,-448.9409 676.5,-425.9409 560.5,-425.9409"/>
<text text-anchor="start" x="565.3255" y="-435.0409" font-family="Helvetica,sans-Serif" font-weight="bold" font-size="11.00" fill="#000000">projects_cases</text>
<text text-anchor="start" x="642.0219" y="-434.0409" font-family="Helvetica,sans-Serif" font-size="11.00" fill="#000000">[table]</text>
<polygon fill="none" stroke="#000000" points="560.5,-406.9409 560.5,-425.9409 676.5,-425.9409 676.5,-406.9409 560.5,-406.9409"/>
<text text-anchor="start" x="563.5" y="-413.0409" font-family="Helvetica,sans-Serif" font-size="11.00" fill="#000000">...</text>
<polygon fill="#ffffff" stroke="transparent" points="560.5,-387.9409 560.5,-406.9409 616.5,-406.9409 616.5,-387.9409 560.5,-387.9409"/>
<polygon fill="none" stroke="#000000" points="560.5,-387.9409 560.5,-406.9409 616.5,-406.9409 616.5,-387.9409 560.5,-387.9409"/>
<text text-anchor="start" x="563.5" y="-394.0409" font-family="Helvetica,sans-Serif" font-size="11.00" fill="#000000">&lt; 2</text>
<polygon fill="#ffffff" stroke="transparent" points="616.5,-387.9409 616.5,-406.9409 646.5,-406.9409 646.5,-387.9409 616.5,-387.9409"/>
<polygon fill="none" stroke="#000000" points="616.5,-387.9409 616.5,-406.9409 646.5,-406.9409 646.5,-387.9409 616.5,-387.9409"/>
<text text-anchor="start" x="637.3862" y="-394.0409" font-family="Helvetica,sans-Serif" font-size="11.00" fill="#000000"> &#160;</text>
<polygon fill="#ffffff" stroke="transparent" points="646.5,-387.9409 646.5,-406.9409 676.5,-406.9409 676.5,-387.9409 646.5,-387.9409"/>
<polygon fill="none" stroke="#000000" points="646.5,-387.9409 646.5,-406.9409 676.5,-406.9409 676.5,-387.9409 646.5,-387.9409"/>
<text text-anchor="start" x="667.3862" y="-394.0409" font-family="Helvetica,sans-Serif" font-size="11.00" fill="#000000"> &#160;</text>
</a>
</g>
</g>
<!-- projects_cases&#45;&gt;cases -->
<g id="edge36" class="edge">
<title>projects_cases:w&#45;&gt;cases:e</title>
<path fill="none" stroke="#000000" d="M546.1277,-417.0187C522.854,-420.8975 512.5399,-435.2395 498,-459.9409 454.5788,-533.7075 542.5974,-842.9409 457,-842.9409"/>
<polygon fill="#000000" stroke="#000000" points="552.5224,-416.5392 560.7692,-419.5308 556.5112,-416.24 560.5,-415.9409 560.5,-415.9409 560.5,-415.9409 556.5112,-416.24 560.2308,-412.351 552.5224,-416.5392 552.5224,-416.5392"/>
<ellipse fill="none" stroke="#000000" cx="549.3314" cy="-416.7785" rx="3.2" ry="3.2"/>
</g>
<!-- securitygroups_records -->
<g id="node18" class="node">
<title>securitygroups_records</title>
<g id="a_node18"><a xlink:href="../../tables/securitygroups_records.html" xlink:title="securitygroups_records" target="_top">
<polygon fill="#ffffff" stroke="transparent" points="939,-1114.4409 939,-1175.4409 1096,-1175.4409 1096,-1114.4409 939,-1114.4409"/>
<polygon fill="#f5f5f5" stroke="transparent" points="939.5,-1151.9409 939.5,-1174.9409 1096.5,-1174.9409 1096.5,-1151.9409 939.5,-1151.9409"/>
<polygon fill="none" stroke="#000000" points="939.5,-1151.9409 939.5,-1174.9409 1096.5,-1174.9409 1096.5,-1151.9409 939.5,-1151.9409"/>
<text text-anchor="start" x="944.3528" y="-1161.0409" font-family="Helvetica,sans-Serif" font-weight="bold" font-size="11.00" fill="#000000">securitygroups_records</text>
<text text-anchor="start" x="1062.0219" y="-1160.0409" font-family="Helvetica,sans-Serif" font-size="11.00" fill="#000000">[table]</text>
<polygon fill="none" stroke="#000000" points="939.5,-1132.9409 939.5,-1151.9409 1096.5,-1151.9409 1096.5,-1132.9409 939.5,-1132.9409"/>
<text text-anchor="start" x="942.5" y="-1139.0409" font-family="Helvetica,sans-Serif" font-size="11.00" fill="#000000">...</text>
<polygon fill="#ffffff" stroke="transparent" points="939.5,-1113.9409 939.5,-1132.9409 1019.5,-1132.9409 1019.5,-1113.9409 939.5,-1113.9409"/>
<polygon fill="none" stroke="#000000" points="939.5,-1113.9409 939.5,-1132.9409 1019.5,-1132.9409 1019.5,-1113.9409 939.5,-1113.9409"/>
<text text-anchor="start" x="942.5" y="-1120.0409" font-family="Helvetica,sans-Serif" font-size="11.00" fill="#000000">&lt; 41</text>
<polygon fill="#ffffff" stroke="transparent" points="1019.5,-1113.9409 1019.5,-1132.9409 1057.5,-1132.9409 1057.5,-1113.9409 1019.5,-1113.9409"/>
<polygon fill="none" stroke="#000000" points="1019.5,-1113.9409 1019.5,-1132.9409 1057.5,-1132.9409 1057.5,-1113.9409 1019.5,-1113.9409"/>
<text text-anchor="start" x="1048.3862" y="-1120.0409" font-family="Helvetica,sans-Serif" font-size="11.00" fill="#000000"> &#160;</text>
<polygon fill="#ffffff" stroke="transparent" points="1057.5,-1113.9409 1057.5,-1132.9409 1096.5,-1132.9409 1096.5,-1113.9409 1057.5,-1113.9409"/>
<polygon fill="none" stroke="#000000" points="1057.5,-1113.9409 1057.5,-1132.9409 1096.5,-1132.9409 1096.5,-1113.9409 1057.5,-1113.9409"/>
<text text-anchor="start" x="1087.3862" y="-1120.0409" font-family="Helvetica,sans-Serif" font-size="11.00" fill="#000000"> &#160;</text>
</a>
</g>
</g>
<!-- securitygroups_records&#45;&gt;accounts -->
<g id="edge37" class="edge">
<title>securitygroups_records:w&#45;&gt;accounts:e</title>
<path fill="none" stroke="#000000" d="M925.91,-1147.9703C895.5276,-1180.9165 928.3588,-1339.0014 898,-1374.9409 849.5569,-1432.2891 812.9612,-1419.0843 739,-1431.9409 637.7183,-1449.5466 350.8084,-1456.5038 279,-1382.9409 214.4314,-1316.7946 330.9362,-1178.9409 238.5,-1178.9409"/>
<polygon fill="#000000" stroke="#000000" points="932.1874,-1145.1852 940.96,-1145.2316 935.8437,-1143.5631 939.5,-1141.9409 939.5,-1141.9409 939.5,-1141.9409 935.8437,-1143.5631 938.04,-1138.6502 932.1874,-1145.1852 932.1874,-1145.1852"/>
<ellipse fill="none" stroke="#000000" cx="929.2623" cy="-1146.483" rx="3.2" ry="3.2"/>
</g>
<!-- securitygroups_records&#45;&gt;jjwg_maps -->
<g id="edge42" class="edge">
<title>securitygroups_records:w&#45;&gt;jjwg_maps:e</title>
<path fill="none" stroke="#000000" d="M925.9597,-1147.0899C889.0202,-1180.8717 935.549,-1370.6834 898,-1410.9409 811.2111,-1503.9901 745.7418,-1472.9409 618.5,-1472.9409 618.5,-1472.9409 618.5,-1472.9409 372,-1472.9409 341.0137,-1472.9409 161.6084,-1321.3956 143,-1294.9409 111.5404,-1250.216 156.6811,-1178.9409 102,-1178.9409"/>
<polygon fill="#000000" stroke="#000000" points="932.0224,-1144.7844 940.7796,-1145.3058 935.7612,-1143.3627 939.5,-1141.9409 939.5,-1141.9409 939.5,-1141.9409 935.7612,-1143.3627 938.2204,-1138.576 932.0224,-1144.7844 932.0224,-1144.7844"/>
<ellipse fill="none" stroke="#000000" cx="929.0314" cy="-1145.9219" rx="3.2" ry="3.2"/>
</g>
<!-- securitygroups_records&#45;&gt;cases -->
<g id="edge39" class="edge">
<title>securitygroups_records:w&#45;&gt;cases:e</title>
<path fill="none" stroke="#000000" d="M934.01,-1128.6078C901.3479,-1025.1501 747.281,-354.3907 739,-347.9409 717.8741,-331.4865 517.7007,-329.8045 498,-347.9409 457.3972,-385.3196 512.1883,-842.9409 457,-842.9409"/>
<polygon fill="#000000" stroke="#000000" points="936.454,-1134.5434 936.1712,-1143.3116 937.977,-1138.2422 939.5,-1141.9409 939.5,-1141.9409 939.5,-1141.9409 937.977,-1138.2422 942.8288,-1140.5702 936.454,-1134.5434 936.454,-1134.5434"/>
<ellipse fill="none" stroke="#000000" cx="935.2356" cy="-1131.5845" rx="3.2" ry="3.2"/>
</g>
<!-- securitygroups_records&#45;&gt;contacts -->
<g id="edge40" class="edge">
<title>securitygroups_records:w&#45;&gt;contacts:e</title>
<path fill="none" stroke="#000000" d="M931.2073,-1129.9345C903.1576,-1042.8761 906.1229,-510.8831 898,-477.9409 856.6109,-310.0881 884.0939,-216.9375 739,-122.9409 567.3746,-11.7563 429.4616,5.546 279,-132.9409 224.7594,-182.8647 310.2186,-461.9409 236.5,-461.9409"/>
<polygon fill="#000000" stroke="#000000" points="934.9535,-1135.3584 936.5379,-1143.9868 937.2267,-1138.6496 939.5,-1141.9409 939.5,-1141.9409 939.5,-1141.9409 937.2267,-1138.6496 942.4621,-1139.8949 934.9535,-1135.3584 934.9535,-1135.3584"/>
<ellipse fill="none" stroke="#000000" cx="933.1349" cy="-1132.7254" rx="3.2" ry="3.2"/>
</g>
<!-- securitygroups_records&#45;&gt;calls -->
<g id="edge38" class="edge">
<title>securitygroups_records:w&#45;&gt;calls:e</title>
<path fill="none" stroke="#000000" d="M924.8774,-1141.9409C808.3999,-1141.9409 773.9271,-1141.9409 650.5,-1141.9409"/>
<polygon fill="#000000" stroke="#000000" points="931.5,-1141.9409 939.5,-1145.5409 935.5,-1141.9409 939.5,-1141.9409 939.5,-1141.9409 939.5,-1141.9409 935.5,-1141.9409 939.5,-1138.3409 931.5,-1141.9409 931.5,-1141.9409"/>
<ellipse fill="none" stroke="#000000" cx="928.3" cy="-1141.941" rx="3.2" ry="3.2"/>
</g>
<!-- securitygroups_records&#45;&gt;emails -->
<g id="edge41" class="edge">
<title>securitygroups_records:w&#45;&gt;emails:e</title>
<path fill="none" stroke="#000000" d="M925.1901,-1144.9566C868.3113,-1159.7504 670.0299,-1223.9409 655.5,-1223.9409"/>
<polygon fill="#000000" stroke="#000000" points="931.6719,-1143.5906 940.2424,-1145.4635 935.586,-1142.7657 939.5,-1141.9409 939.5,-1141.9409 939.5,-1141.9409 935.586,-1142.7657 938.7576,-1138.4183 931.6719,-1143.5906 931.6719,-1143.5906"/>
<ellipse fill="none" stroke="#000000" cx="928.5407" cy="-1144.2505" rx="3.2" ry="3.2"/>
</g>
<!-- securitygroups_records&#45;&gt;meetings -->
<g id="edge43" class="edge">
<title>securitygroups_records:w&#45;&gt;meetings:e</title>
<path fill="none" stroke="#000000" d="M925.0517,-1143.4501C863.5911,-1158.2948 957.0109,-1278.8972 898,-1337.9409 822.3608,-1413.6221 769.4997,-1387.9409 662.5,-1387.9409"/>
<polygon fill="#000000" stroke="#000000" points="931.5433,-1142.7721 939.874,-1145.5214 935.5216,-1142.3565 939.5,-1141.9409 939.5,-1141.9409 939.5,-1141.9409 935.5216,-1142.3565 939.126,-1138.3604 931.5433,-1142.7721 931.5433,-1142.7721"/>
<ellipse fill="none" stroke="#000000" cx="928.3606" cy="-1143.1046" rx="3.2" ry="3.2"/>
</g>
<!-- securitygroups_records&#45;&gt;tasks -->
<g id="edge45" class="edge">
<title>securitygroups_records:w&#45;&gt;tasks:e</title>
<path fill="none" stroke="#000000" d="M924.9791,-1141.5588C858.2832,-1137.9054 840.9701,-1108.7015 772,-1081.9409 718.3259,-1061.1151 710.0727,-1031.9409 652.5,-1031.9409"/>
<polygon fill="#000000" stroke="#000000" points="931.5028,-1141.7304 939.4053,-1145.5396 935.5014,-1141.8356 939.5,-1141.9409 939.5,-1141.9409 939.5,-1141.9409 935.5014,-1141.8356 939.5947,-1138.3421 931.5028,-1141.7304 931.5028,-1141.7304"/>
<ellipse fill="none" stroke="#000000" cx="928.3039" cy="-1141.6462" rx="3.2" ry="3.2"/>
</g>
<!-- securitygroups_records&#45;&gt;notes -->
<g id="edge44" class="edge">
<title>securitygroups_records:w&#45;&gt;notes:e</title>
<path fill="none" stroke="#000000" d="M925.3679,-1138.9405C891.3708,-1121.8886 919.9471,-1037.9409 870,-1037.9409"/>
<polygon fill="#000000" stroke="#000000" points="931.6744,-1140.2794 938.7523,-1145.4624 935.5872,-1141.1101 939.5,-1141.9409 939.5,-1141.9409 939.5,-1141.9409 935.5872,-1141.1101 940.2477,-1138.4194 931.6744,-1140.2794 931.6744,-1140.2794"/>
<ellipse fill="none" stroke="#000000" cx="928.5442" cy="-1139.6148" rx="3.2" ry="3.2"/>
</g>
</g>
</svg>
