<?xml version="1.0" encoding="UTF-8" standalone="no"?>
<!DOCTYPE svg PUBLIC "-//W3C//DTD SVG 1.1//EN"
 "http://www.w3.org/Graphics/SVG/1.1/DTD/svg11.dtd">
<!-- Generated by graphviz version 2.40.1 (20161225.0304)
 -->
<!-- Title: twoDegreesRelationshipsDiagram Pages: 1 -->
<svg width="1173pt" height="1391pt"
 viewBox="0.00 0.00 1173.00 1390.69" xmlns="http://www.w3.org/2000/svg" xmlns:xlink="http://www.w3.org/1999/xlink">
<g id="graph0" class="graph" transform="scale(1 1) rotate(0) translate(4 1386.6899)">
<title>twoDegreesRelationshipsDiagram</title>
<polygon fill="#ffffff" stroke="transparent" points="-4,4 -4,-1386.6899 1169,-1386.6899 1169,4 -4,4"/>
<text text-anchor="middle" x="72.4936" y="-7.3" font-family="Helvetica,sans-Serif" font-size="11.00" fill="#000000">Generated by SchemaSpy</text>
<!-- accounts -->
<g id="node1" class="node">
<title>accounts</title>
<g id="a_node1"><a xlink:href="../../tables/accounts.html" xlink:title="accounts" target="_top">
<polygon fill="#ffffff" stroke="transparent" points="151,-1052.7989 151,-1113.7989 238,-1113.7989 238,-1052.7989 151,-1052.7989"/>
<polygon fill="#f5f5f5" stroke="transparent" points="151.5,-1090.2989 151.5,-1113.2989 238.5,-1113.2989 238.5,-1090.2989 151.5,-1090.2989"/>
<polygon fill="none" stroke="#000000" points="151.5,-1090.2989 151.5,-1113.2989 238.5,-1113.2989 238.5,-1090.2989 151.5,-1090.2989"/>
<text text-anchor="start" x="156.4918" y="-1099.3989" font-family="Helvetica,sans-Serif" font-weight="bold" font-size="11.00" fill="#000000">accounts</text>
<text text-anchor="start" x="204.0219" y="-1098.3989" font-family="Helvetica,sans-Serif" font-size="11.00" fill="#000000">[table]</text>
<polygon fill="none" stroke="#000000" points="151.5,-1071.2989 151.5,-1090.2989 238.5,-1090.2989 238.5,-1071.2989 151.5,-1071.2989"/>
<text text-anchor="start" x="154.5" y="-1077.3989" font-family="Helvetica,sans-Serif" font-size="11.00" fill="#000000">...</text>
<polygon fill="#ffffff" stroke="transparent" points="151.5,-1052.2989 151.5,-1071.2989 185.5,-1071.2989 185.5,-1052.2989 151.5,-1052.2989"/>
<polygon fill="none" stroke="#000000" points="151.5,-1052.2989 151.5,-1071.2989 185.5,-1071.2989 185.5,-1052.2989 151.5,-1052.2989"/>
<text text-anchor="start" x="154.5" y="-1058.3989" font-family="Helvetica,sans-Serif" font-size="11.00" fill="#000000">&lt; 6</text>
<polygon fill="#ffffff" stroke="transparent" points="185.5,-1052.2989 185.5,-1071.2989 204.5,-1071.2989 204.5,-1052.2989 185.5,-1052.2989"/>
<polygon fill="none" stroke="#000000" points="185.5,-1052.2989 185.5,-1071.2989 204.5,-1071.2989 204.5,-1052.2989 185.5,-1052.2989"/>
<text text-anchor="start" x="195.3862" y="-1058.3989" font-family="Helvetica,sans-Serif" font-size="11.00" fill="#000000"> &#160;</text>
<polygon fill="#ffffff" stroke="transparent" points="204.5,-1052.2989 204.5,-1071.2989 238.5,-1071.2989 238.5,-1052.2989 204.5,-1052.2989"/>
<polygon fill="none" stroke="#000000" points="204.5,-1052.2989 204.5,-1071.2989 238.5,-1071.2989 238.5,-1052.2989 204.5,-1052.2989"/>
<text text-anchor="start" x="213.7904" y="-1058.3989" font-family="Helvetica,sans-Serif" font-size="11.00" fill="#000000">23 &gt;</text>
</a>
</g>
</g>
<!-- jjwg_maps -->
<g id="node2" class="node">
<title>jjwg_maps</title>
<g id="a_node2"><a xlink:href="../../tables/jjwg_maps.html" xlink:title="jjwg_maps" target="_top">
<polygon fill="#ffffff" stroke="transparent" points="8,-1052.7989 8,-1113.7989 102,-1113.7989 102,-1052.7989 8,-1052.7989"/>
<polygon fill="#f5f5f5" stroke="transparent" points="8,-1090.2989 8,-1113.2989 102,-1113.2989 102,-1090.2989 8,-1090.2989"/>
<polygon fill="none" stroke="#000000" points="8,-1090.2989 8,-1113.2989 102,-1113.2989 102,-1090.2989 8,-1090.2989"/>
<text text-anchor="start" x="12.5279" y="-1099.3989" font-family="Helvetica,sans-Serif" font-weight="bold" font-size="11.00" fill="#000000">jjwg_maps</text>
<text text-anchor="start" x="67.5219" y="-1098.3989" font-family="Helvetica,sans-Serif" font-size="11.00" fill="#000000">[table]</text>
<polygon fill="none" stroke="#000000" points="8,-1071.2989 8,-1090.2989 102,-1090.2989 102,-1071.2989 8,-1071.2989"/>
<text text-anchor="start" x="11" y="-1077.3989" font-family="Helvetica,sans-Serif" font-size="11.00" fill="#000000">...</text>
<polygon fill="#ffffff" stroke="transparent" points="8,-1052.2989 8,-1071.2989 46,-1071.2989 46,-1052.2989 8,-1052.2989"/>
<polygon fill="none" stroke="#000000" points="8,-1052.2989 8,-1071.2989 46,-1071.2989 46,-1052.2989 8,-1052.2989"/>
<text text-anchor="start" x="11" y="-1058.3989" font-family="Helvetica,sans-Serif" font-size="11.00" fill="#000000">&lt; 3</text>
<polygon fill="#ffffff" stroke="transparent" points="46,-1052.2989 46,-1071.2989 66,-1071.2989 66,-1052.2989 46,-1052.2989"/>
<polygon fill="none" stroke="#000000" points="46,-1052.2989 46,-1071.2989 66,-1071.2989 66,-1052.2989 46,-1052.2989"/>
<text text-anchor="start" x="56.8862" y="-1058.3989" font-family="Helvetica,sans-Serif" font-size="11.00" fill="#000000"> &#160;</text>
<polygon fill="#ffffff" stroke="transparent" points="66,-1052.2989 66,-1071.2989 102,-1071.2989 102,-1052.2989 66,-1052.2989"/>
<polygon fill="none" stroke="#000000" points="66,-1052.2989 66,-1071.2989 102,-1071.2989 102,-1052.2989 66,-1052.2989"/>
<text text-anchor="start" x="77.2904" y="-1058.3989" font-family="Helvetica,sans-Serif" font-size="11.00" fill="#000000">12 &gt;</text>
</a>
</g>
</g>
<!-- accounts&#45;&gt;jjwg_maps -->
<g id="edge1" class="edge">
<title>accounts:w&#45;&gt;jjwg_maps:e</title>
<path fill="none" stroke="#000000" d="M141.0474,-1080.2989C126.9907,-1080.2989 120.0469,-1080.2989 102,-1080.2989"/>
<polygon fill="#000000" stroke="#000000" points="150.7,-1076.2989 150.7,-1084.2989 149.1,-1084.2989 149.1,-1076.2989 150.7,-1076.2989"/>
<polyline fill="none" stroke="#000000" points="151.5,-1080.2989 147.5,-1080.299 "/>
<ellipse fill="none" stroke="#000000" cx="144.3" cy="-1080.299" rx="3.2" ry="3.2"/>
</g>
<!-- aop_case_events -->
<g id="node3" class="node">
<title>aop_case_events</title>
<g id="a_node3"><a xlink:href="../../tables/aop_case_events.html" xlink:title="aop_case_events" target="_top">
<polygon fill="#ffffff" stroke="transparent" points="584.5,-823.7989 584.5,-884.7989 713.5,-884.7989 713.5,-823.7989 584.5,-823.7989"/>
<polygon fill="#f5f5f5" stroke="transparent" points="585,-861.2989 585,-884.2989 714,-884.2989 714,-861.2989 585,-861.2989"/>
<polygon fill="none" stroke="#000000" points="585,-861.2989 585,-884.2989 714,-884.2989 714,-861.2989 585,-861.2989"/>
<text text-anchor="start" x="589.8971" y="-870.3989" font-family="Helvetica,sans-Serif" font-weight="bold" font-size="11.00" fill="#000000">aop_case_events</text>
<text text-anchor="start" x="679.5219" y="-869.3989" font-family="Helvetica,sans-Serif" font-size="11.00" fill="#000000">[table]</text>
<polygon fill="none" stroke="#000000" points="585,-842.2989 585,-861.2989 714,-861.2989 714,-842.2989 585,-842.2989"/>
<text text-anchor="start" x="588" y="-848.3989" font-family="Helvetica,sans-Serif" font-size="11.00" fill="#000000">...</text>
<polygon fill="#ffffff" stroke="transparent" points="585,-823.2989 585,-842.2989 643,-842.2989 643,-823.2989 585,-823.2989"/>
<polygon fill="none" stroke="#000000" points="585,-823.2989 585,-842.2989 643,-842.2989 643,-823.2989 585,-823.2989"/>
<text text-anchor="start" x="588" y="-829.3989" font-family="Helvetica,sans-Serif" font-size="11.00" fill="#000000">&lt; 4</text>
<polygon fill="#ffffff" stroke="transparent" points="643,-823.2989 643,-842.2989 674,-842.2989 674,-823.2989 643,-823.2989"/>
<polygon fill="none" stroke="#000000" points="643,-823.2989 643,-842.2989 674,-842.2989 674,-823.2989 643,-823.2989"/>
<text text-anchor="start" x="664.8862" y="-829.3989" font-family="Helvetica,sans-Serif" font-size="11.00" fill="#000000"> &#160;</text>
<polygon fill="#ffffff" stroke="transparent" points="674,-823.2989 674,-842.2989 714,-842.2989 714,-823.2989 674,-823.2989"/>
<polygon fill="none" stroke="#000000" points="674,-823.2989 674,-842.2989 714,-842.2989 714,-823.2989 674,-823.2989"/>
<text text-anchor="start" x="695.4053" y="-829.3989" font-family="Helvetica,sans-Serif" font-size="11.00" fill="#000000">1 &gt;</text>
</a>
</g>
</g>
<!-- cases -->
<g id="node4" class="node">
<title>cases</title>
<g id="a_node4"><a xlink:href="../../tables/cases.html" xlink:title="cases" target="_top">
<polygon fill="#ffffff" stroke="transparent" points="287,-522.7989 287,-803.7989 457,-803.7989 457,-522.7989 287,-522.7989"/>
<polygon fill="#f5f5f5" stroke="transparent" points="287,-780.2989 287,-803.2989 457,-803.2989 457,-780.2989 287,-780.2989"/>
<polygon fill="none" stroke="#000000" points="287,-780.2989 287,-803.2989 457,-803.2989 457,-780.2989 287,-780.2989"/>
<text text-anchor="start" x="292" y="-789.3989" font-family="Helvetica,sans-Serif" font-weight="bold" font-size="11.00" fill="#000000">cases</text>
<text text-anchor="start" x="422.0437" y="-788.3989" font-family="Helvetica,sans-Serif" font-size="11.00" fill="#000000">[table]</text>
<polygon fill="none" stroke="#000000" points="287,-758.2989 287,-780.2989 457,-780.2989 457,-758.2989 287,-758.2989"/>
<image xlink:href="../../images/primaryKeys.png" width="11px" height="12px" preserveAspectRatio="xMinYMin meet" x="292" y="-775.299"/>
<text text-anchor="start" x="307" y="-765.3989" font-family="Helvetica,sans-Serif" font-size="11.00" fill="#000000">id</text>
<polygon fill="#ffffff" stroke="transparent" points="287,-736.2989 287,-758.2989 457,-758.2989 457,-736.2989 287,-736.2989"/>
<polygon fill="none" stroke="#000000" points="287,-736.2989 287,-758.2989 457,-758.2989 457,-736.2989 287,-736.2989"/>
<text text-anchor="start" x="307" y="-743.3989" font-family="Helvetica,sans-Serif" font-size="11.00" fill="#000000">name</text>
<polygon fill="#c0c0c0" stroke="transparent" points="287,-714.2989 287,-736.2989 457,-736.2989 457,-714.2989 287,-714.2989"/>
<polygon fill="none" stroke="#000000" points="287,-714.2989 287,-736.2989 457,-736.2989 457,-714.2989 287,-714.2989"/>
<image xlink:href="../../images/foreignKeys.png" width="11px" height="12px" preserveAspectRatio="xMinYMin meet" x="292" y="-731.299"/>
<text text-anchor="start" x="307" y="-721.3989" font-family="Helvetica,sans-Serif" font-size="11.00" fill="#000000">modified_user_id</text>
<polygon fill="#c0c0c0" stroke="transparent" points="287,-692.2989 287,-714.2989 457,-714.2989 457,-692.2989 287,-692.2989"/>
<polygon fill="none" stroke="#000000" points="287,-692.2989 287,-714.2989 457,-714.2989 457,-692.2989 287,-692.2989"/>
<image xlink:href="../../images/foreignKeys.png" width="11px" height="12px" preserveAspectRatio="xMinYMin meet" x="292" y="-709.299"/>
<text text-anchor="start" x="307" y="-699.3989" font-family="Helvetica,sans-Serif" font-size="11.00" fill="#000000">created_by</text>
<polygon fill="#ffffff" stroke="transparent" points="287,-670.2989 287,-692.2989 457,-692.2989 457,-670.2989 287,-670.2989"/>
<polygon fill="none" stroke="#000000" points="287,-670.2989 287,-692.2989 457,-692.2989 457,-670.2989 287,-670.2989"/>
<text text-anchor="start" x="307" y="-677.3989" font-family="Helvetica,sans-Serif" font-size="11.00" fill="#000000">deleted</text>
<polygon fill="#c0c0c0" stroke="transparent" points="287,-648.2989 287,-670.2989 457,-670.2989 457,-648.2989 287,-648.2989"/>
<polygon fill="none" stroke="#000000" points="287,-648.2989 287,-670.2989 457,-670.2989 457,-648.2989 287,-648.2989"/>
<image xlink:href="../../images/foreignKeys.png" width="11px" height="12px" preserveAspectRatio="xMinYMin meet" x="292" y="-665.299"/>
<text text-anchor="start" x="307" y="-655.3989" font-family="Helvetica,sans-Serif" font-size="11.00" fill="#000000">assigned_user_id</text>
<polygon fill="#ffffff" stroke="transparent" points="287,-626.2989 287,-648.2989 457,-648.2989 457,-626.2989 287,-626.2989"/>
<polygon fill="none" stroke="#000000" points="287,-626.2989 287,-648.2989 457,-648.2989 457,-626.2989 287,-626.2989"/>
<text text-anchor="start" x="307" y="-633.3989" font-family="Helvetica,sans-Serif" font-size="11.00" fill="#000000">case_number</text>
<polygon fill="#ffffff" stroke="transparent" points="287,-604.2989 287,-626.2989 457,-626.2989 457,-604.2989 287,-604.2989"/>
<polygon fill="none" stroke="#000000" points="287,-604.2989 287,-626.2989 457,-626.2989 457,-604.2989 287,-604.2989"/>
<text text-anchor="start" x="307" y="-611.3989" font-family="Helvetica,sans-Serif" font-size="11.00" fill="#000000">status</text>
<polygon fill="#ffffff" stroke="transparent" points="287,-582.2989 287,-604.2989 457,-604.2989 457,-582.2989 287,-582.2989"/>
<polygon fill="none" stroke="#000000" points="287,-582.2989 287,-604.2989 457,-604.2989 457,-582.2989 287,-582.2989"/>
<image xlink:href="../../images/foreignKeys.png" width="11px" height="12px" preserveAspectRatio="xMinYMin meet" x="292" y="-599.299"/>
<text text-anchor="start" x="307" y="-589.3989" font-family="Helvetica,sans-Serif" font-size="11.00" fill="#000000">account_id</text>
<polygon fill="none" stroke="#000000" points="287,-560.2989 287,-582.2989 457,-582.2989 457,-560.2989 287,-560.2989"/>
<image xlink:href="../../images/foreignKeys.png" width="11px" height="12px" preserveAspectRatio="xMinYMin meet" x="292" y="-577.299"/>
<text text-anchor="start" x="307" y="-567.3989" font-family="Helvetica,sans-Serif" font-size="11.00" fill="#000000">contact_created_by_id</text>
<polygon fill="none" stroke="#000000" points="287,-541.2989 287,-560.2989 457,-560.2989 457,-541.2989 287,-541.2989"/>
<text text-anchor="start" x="290" y="-547.3989" font-family="Helvetica,sans-Serif" font-size="11.00" fill="#000000">...</text>
<polygon fill="#ffffff" stroke="transparent" points="287,-522.2989 287,-541.2989 363,-541.2989 363,-522.2989 287,-522.2989"/>
<polygon fill="none" stroke="#000000" points="287,-522.2989 287,-541.2989 363,-541.2989 363,-522.2989 287,-522.2989"/>
<text text-anchor="start" x="290" y="-528.3989" font-family="Helvetica,sans-Serif" font-size="11.00" fill="#000000">&lt; 6</text>
<polygon fill="#ffffff" stroke="transparent" points="363,-522.2989 363,-541.2989 402,-541.2989 402,-522.2989 363,-522.2989"/>
<polygon fill="none" stroke="#000000" points="363,-522.2989 363,-541.2989 402,-541.2989 402,-522.2989 363,-522.2989"/>
<text text-anchor="start" x="392.8862" y="-528.3989" font-family="Helvetica,sans-Serif" font-size="11.00" fill="#000000"> &#160;</text>
<polygon fill="#ffffff" stroke="transparent" points="402,-522.2989 402,-541.2989 457,-541.2989 457,-522.2989 402,-522.2989"/>
<polygon fill="none" stroke="#000000" points="402,-522.2989 402,-541.2989 457,-541.2989 457,-522.2989 402,-522.2989"/>
<text text-anchor="start" x="432.2904" y="-528.3989" font-family="Helvetica,sans-Serif" font-size="11.00" fill="#000000">15 &gt;</text>
</a>
</g>
</g>
<!-- aop_case_events&#45;&gt;cases -->
<g id="edge2" class="edge">
<title>aop_case_events:w&#45;&gt;cases:e</title>
<path fill="none" stroke="#000000" d="M570.5597,-850.6664C539.8367,-847.7273 528.1287,-834.6376 498,-813.2989 476.1872,-797.85 483.7296,-769.2989 457,-769.2989"/>
<polygon fill="#000000" stroke="#000000" points="577.0077,-850.9488 584.8424,-854.8955 581.0038,-851.1238 585,-851.2989 585,-851.2989 585,-851.2989 581.0038,-851.1238 585.1576,-847.7024 577.0077,-850.9488 577.0077,-850.9488"/>
<ellipse fill="none" stroke="#000000" cx="573.8107" cy="-850.8087" rx="3.2" ry="3.2"/>
</g>
<!-- cases&#45;&gt;accounts -->
<g id="edge7" class="edge">
<title>cases:w&#45;&gt;accounts:e</title>
<path fill="none" stroke="#000000" d="M272.9908,-596.6688C194.0855,-639.6964 341.9471,-1080.2989 238.5,-1080.2989"/>
<polygon fill="#000000" stroke="#000000" points="279.2219,-595.17 287.842,-596.7991 283.1109,-594.2345 287,-593.2989 287,-593.2989 287,-593.2989 283.1109,-594.2345 286.158,-589.7988 279.2219,-595.17 279.2219,-595.17"/>
<ellipse fill="none" stroke="#000000" cx="276.1106" cy="-595.9184" rx="3.2" ry="3.2"/>
</g>
<!-- cases&#45;&gt;jjwg_maps -->
<g id="edge9" class="edge">
<title>cases:w&#45;&gt;jjwg_maps:e</title>
<path fill="none" stroke="#000000" d="M277.3232,-773.9366C232.0131,-812.624 139.3016,-1080.2989 102,-1080.2989"/>
<polygon fill="#000000" stroke="#000000" points="284.5498,-766.0375 288.0073,-773.2518 286.5645,-773.9433 283.1069,-766.729 284.5498,-766.0375"/>
<polyline fill="none" stroke="#000000" points="287,-769.2989 283.3929,-771.0277 "/>
<ellipse fill="none" stroke="#000000" cx="280.5071" cy="-772.4107" rx="3.2" ry="3.2"/>
</g>
<!-- contacts -->
<g id="node6" class="node">
<title>contacts</title>
<g id="a_node6"><a xlink:href="../../tables/contacts.html" xlink:title="contacts" target="_top">
<polygon fill="#ffffff" stroke="transparent" points="153,-403.7989 153,-464.7989 236,-464.7989 236,-403.7989 153,-403.7989"/>
<polygon fill="#f5f5f5" stroke="transparent" points="153.5,-441.2989 153.5,-464.2989 236.5,-464.2989 236.5,-441.2989 153.5,-441.2989"/>
<polygon fill="none" stroke="#000000" points="153.5,-441.2989 153.5,-464.2989 236.5,-464.2989 236.5,-441.2989 153.5,-441.2989"/>
<text text-anchor="start" x="158.0208" y="-450.3989" font-family="Helvetica,sans-Serif" font-weight="bold" font-size="11.00" fill="#000000">contacts</text>
<text text-anchor="start" x="202.0219" y="-449.3989" font-family="Helvetica,sans-Serif" font-size="11.00" fill="#000000">[table]</text>
<polygon fill="none" stroke="#000000" points="153.5,-422.2989 153.5,-441.2989 236.5,-441.2989 236.5,-422.2989 153.5,-422.2989"/>
<text text-anchor="start" x="156.5" y="-428.3989" font-family="Helvetica,sans-Serif" font-size="11.00" fill="#000000">...</text>
<polygon fill="#ffffff" stroke="transparent" points="153.5,-403.2989 153.5,-422.2989 185.5,-422.2989 185.5,-403.2989 153.5,-403.2989"/>
<polygon fill="none" stroke="#000000" points="153.5,-403.2989 153.5,-422.2989 185.5,-422.2989 185.5,-403.2989 153.5,-403.2989"/>
<text text-anchor="start" x="156.5" y="-409.3989" font-family="Helvetica,sans-Serif" font-size="11.00" fill="#000000">&lt; 7</text>
<polygon fill="#ffffff" stroke="transparent" points="185.5,-403.2989 185.5,-422.2989 203.5,-422.2989 203.5,-403.2989 185.5,-403.2989"/>
<polygon fill="none" stroke="#000000" points="185.5,-403.2989 185.5,-422.2989 203.5,-422.2989 203.5,-403.2989 185.5,-403.2989"/>
<text text-anchor="start" x="194.3862" y="-409.3989" font-family="Helvetica,sans-Serif" font-size="11.00" fill="#000000"> &#160;</text>
<polygon fill="#ffffff" stroke="transparent" points="203.5,-403.2989 203.5,-422.2989 236.5,-422.2989 236.5,-403.2989 203.5,-403.2989"/>
<polygon fill="none" stroke="#000000" points="203.5,-403.2989 203.5,-422.2989 236.5,-422.2989 236.5,-403.2989 203.5,-403.2989"/>
<text text-anchor="start" x="211.7904" y="-409.3989" font-family="Helvetica,sans-Serif" font-size="11.00" fill="#000000">30 &gt;</text>
</a>
</g>
</g>
<!-- cases&#45;&gt;contacts -->
<g id="edge8" class="edge">
<title>cases:w&#45;&gt;contacts:e</title>
<path fill="none" stroke="#000000" d="M272.5393,-568.1118C234.3565,-547.2727 296.7036,-431.2989 236.5,-431.2989"/>
<polygon fill="#000000" stroke="#000000" points="279.1875,-569.577 286.2251,-574.8145 283.0938,-570.438 287,-571.2989 287,-571.2989 287,-571.2989 283.0938,-570.438 287.7749,-567.7833 279.1875,-569.577 279.1875,-569.577"/>
<ellipse fill="none" stroke="#000000" cx="276.0625" cy="-568.8882" rx="3.2" ry="3.2"/>
</g>
<!-- aop_case_updates -->
<g id="node5" class="node">
<title>aop_case_updates</title>
<g id="a_node5"><a xlink:href="../../tables/aop_case_updates.html" xlink:title="aop_case_updates" target="_top">
<polygon fill="#ffffff" stroke="transparent" points="581.5,-262.7989 581.5,-323.7989 716.5,-323.7989 716.5,-262.7989 581.5,-262.7989"/>
<polygon fill="#f5f5f5" stroke="transparent" points="582,-300.2989 582,-323.2989 717,-323.2989 717,-300.2989 582,-300.2989"/>
<polygon fill="none" stroke="#000000" points="582,-300.2989 582,-323.2989 717,-323.2989 717,-300.2989 582,-300.2989"/>
<text text-anchor="start" x="586.5322" y="-309.3989" font-family="Helvetica,sans-Serif" font-weight="bold" font-size="11.00" fill="#000000">aop_case_updates</text>
<text text-anchor="start" x="682.5219" y="-308.3989" font-family="Helvetica,sans-Serif" font-size="11.00" fill="#000000">[table]</text>
<polygon fill="none" stroke="#000000" points="582,-281.2989 582,-300.2989 717,-300.2989 717,-281.2989 582,-281.2989"/>
<text text-anchor="start" x="585" y="-287.3989" font-family="Helvetica,sans-Serif" font-size="11.00" fill="#000000">...</text>
<polygon fill="#ffffff" stroke="transparent" points="582,-262.2989 582,-281.2989 643,-281.2989 643,-262.2989 582,-262.2989"/>
<polygon fill="none" stroke="#000000" points="582,-262.2989 582,-281.2989 643,-281.2989 643,-262.2989 582,-262.2989"/>
<text text-anchor="start" x="585" y="-268.3989" font-family="Helvetica,sans-Serif" font-size="11.00" fill="#000000">&lt; 5</text>
<polygon fill="#ffffff" stroke="transparent" points="643,-262.2989 643,-281.2989 675,-281.2989 675,-262.2989 643,-262.2989"/>
<polygon fill="none" stroke="#000000" points="643,-262.2989 643,-281.2989 675,-281.2989 675,-262.2989 643,-262.2989"/>
<text text-anchor="start" x="665.8862" y="-268.3989" font-family="Helvetica,sans-Serif" font-size="11.00" fill="#000000"> &#160;</text>
<polygon fill="#ffffff" stroke="transparent" points="675,-262.2989 675,-281.2989 717,-281.2989 717,-262.2989 675,-262.2989"/>
<polygon fill="none" stroke="#000000" points="675,-262.2989 675,-281.2989 717,-281.2989 717,-262.2989 675,-262.2989"/>
<text text-anchor="start" x="698.4053" y="-268.3989" font-family="Helvetica,sans-Serif" font-size="11.00" fill="#000000">2 &gt;</text>
</a>
</g>
</g>
<!-- aop_case_updates&#45;&gt;cases -->
<g id="edge3" class="edge">
<title>aop_case_updates:w&#45;&gt;cases:e</title>
<path fill="none" stroke="#000000" d="M567.4382,-290.8433C534.6366,-293.5305 518.4969,-306.5483 498,-338.2989 471.9096,-378.7141 505.1051,-769.2989 457,-769.2989"/>
<polygon fill="#000000" stroke="#000000" points="574.0056,-290.5978 582.1345,-293.8964 578.0028,-290.4484 582,-290.2989 582,-290.2989 582,-290.2989 578.0028,-290.4484 581.8655,-286.7014 574.0056,-290.5978 574.0056,-290.5978"/>
<ellipse fill="none" stroke="#000000" cx="570.8078" cy="-290.7174" rx="3.2" ry="3.2"/>
</g>
<!-- aop_case_updates&#45;&gt;contacts -->
<g id="edge4" class="edge">
<title>aop_case_updates:w&#45;&gt;contacts:e</title>
<path fill="none" stroke="#000000" d="M567.347,-290.6788C415.1746,-298.7068 397.3297,-431.2989 236.5,-431.2989"/>
<polygon fill="#000000" stroke="#000000" points="574.0027,-290.5063 582.0933,-293.8977 578.0013,-290.4026 582,-290.2989 582,-290.2989 582,-290.2989 578.0013,-290.4026 581.9067,-286.7001 574.0027,-290.5063 574.0027,-290.5063"/>
<ellipse fill="none" stroke="#000000" cx="570.8038" cy="-290.5892" rx="3.2" ry="3.2"/>
</g>
<!-- contacts&#45;&gt;jjwg_maps -->
<g id="edge12" class="edge">
<title>contacts:w&#45;&gt;jjwg_maps:e</title>
<path fill="none" stroke="#000000" d="M144.049,-435.7898C89.8668,-493.1305 170.8057,-1080.2989 102,-1080.2989"/>
<polygon fill="#000000" stroke="#000000" points="151.0607,-428.0294 154.4942,-435.2551 153.049,-435.9418 149.6155,-428.7161 151.0607,-428.0294"/>
<polyline fill="none" stroke="#000000" points="153.5,-431.2989 149.8871,-433.0157 "/>
<ellipse fill="none" stroke="#000000" cx="146.9968" cy="-434.3891" rx="3.2" ry="3.2"/>
</g>
<!-- calls -->
<g id="node7" class="node">
<title>calls</title>
<g id="a_node7"><a xlink:href="../../tables/calls.html" xlink:title="calls" target="_top">
<polygon fill="#ffffff" stroke="transparent" points="617,-1015.7989 617,-1076.7989 681,-1076.7989 681,-1015.7989 617,-1015.7989"/>
<polygon fill="#f5f5f5" stroke="transparent" points="617,-1053.2989 617,-1076.2989 681,-1076.2989 681,-1053.2989 617,-1053.2989"/>
<polygon fill="none" stroke="#000000" points="617,-1053.2989 617,-1076.2989 681,-1076.2989 681,-1053.2989 617,-1053.2989"/>
<text text-anchor="start" x="621.5017" y="-1062.3989" font-family="Helvetica,sans-Serif" font-weight="bold" font-size="11.00" fill="#000000">calls</text>
<text text-anchor="start" x="646.5219" y="-1061.3989" font-family="Helvetica,sans-Serif" font-size="11.00" fill="#000000">[table]</text>
<polygon fill="none" stroke="#000000" points="617,-1034.2989 617,-1053.2989 681,-1053.2989 681,-1034.2989 617,-1034.2989"/>
<text text-anchor="start" x="620" y="-1040.3989" font-family="Helvetica,sans-Serif" font-size="11.00" fill="#000000">...</text>
<polygon fill="#ffffff" stroke="transparent" points="617,-1015.2989 617,-1034.2989 646,-1034.2989 646,-1015.2989 617,-1015.2989"/>
<polygon fill="none" stroke="#000000" points="617,-1015.2989 617,-1034.2989 646,-1034.2989 646,-1015.2989 617,-1015.2989"/>
<text text-anchor="start" x="620" y="-1021.3989" font-family="Helvetica,sans-Serif" font-size="11.00" fill="#000000">&lt; 12</text>
<polygon fill="#ffffff" stroke="transparent" points="646,-1015.2989 646,-1034.2989 659,-1034.2989 659,-1015.2989 646,-1015.2989"/>
<polygon fill="none" stroke="#000000" points="646,-1015.2989 646,-1034.2989 659,-1034.2989 659,-1015.2989 646,-1015.2989"/>
<text text-anchor="start" x="649.8862" y="-1021.3989" font-family="Helvetica,sans-Serif" font-size="11.00" fill="#000000"> &#160;</text>
<polygon fill="#ffffff" stroke="transparent" points="659,-1015.2989 659,-1034.2989 681,-1034.2989 681,-1015.2989 659,-1015.2989"/>
<polygon fill="none" stroke="#000000" points="659,-1015.2989 659,-1034.2989 681,-1034.2989 681,-1015.2989 659,-1015.2989"/>
<text text-anchor="start" x="662.4053" y="-1021.3989" font-family="Helvetica,sans-Serif" font-size="11.00" fill="#000000">6 &gt;</text>
</a>
</g>
</g>
<!-- calls&#45;&gt;accounts -->
<g id="edge5" class="edge">
<title>calls:w&#45;&gt;accounts:e</title>
<path fill="none" stroke="#000000" d="M602.469,-1043.3923C445.4954,-1045.4351 402.5722,-1080.2989 238.5,-1080.2989"/>
<polygon fill="#000000" stroke="#000000" points="609.0002,-1043.3504 617.0232,-1046.8988 613.0001,-1043.3247 617,-1043.2989 617,-1043.2989 617,-1043.2989 613.0001,-1043.3247 616.9768,-1039.699 609.0002,-1043.3504 609.0002,-1043.3504"/>
<ellipse fill="none" stroke="#000000" cx="605.8002" cy="-1043.371" rx="3.2" ry="3.2"/>
</g>
<!-- calls&#45;&gt;cases -->
<g id="edge6" class="edge">
<title>calls:w&#45;&gt;cases:e</title>
<path fill="none" stroke="#000000" d="M602.5273,-1042.9281C552.5829,-1040.2002 530.6166,-1022.079 498,-977.2989 442.5257,-901.1371 551.2233,-769.2989 457,-769.2989"/>
<polygon fill="#000000" stroke="#000000" points="609.0026,-1043.094 616.9078,-1046.8977 613.0013,-1043.1964 617,-1043.2989 617,-1043.2989 617,-1043.2989 613.0013,-1043.1964 617.0922,-1039.7001 609.0026,-1043.094 609.0026,-1043.094"/>
<ellipse fill="none" stroke="#000000" cx="605.8037" cy="-1043.012" rx="3.2" ry="3.2"/>
</g>
<!-- cases_bugs -->
<g id="node8" class="node">
<title>cases_bugs</title>
<g id="a_node8"><a xlink:href="../../tables/cases_bugs.html" xlink:title="cases_bugs" target="_top">
<polygon fill="#ffffff" stroke="transparent" points="598.5,-741.7989 598.5,-802.7989 699.5,-802.7989 699.5,-741.7989 598.5,-741.7989"/>
<polygon fill="#f5f5f5" stroke="transparent" points="599,-779.2989 599,-802.2989 700,-802.2989 700,-779.2989 599,-779.2989"/>
<polygon fill="none" stroke="#000000" points="599,-779.2989 599,-802.2989 700,-802.2989 700,-779.2989 599,-779.2989"/>
<text text-anchor="start" x="603.6553" y="-788.3989" font-family="Helvetica,sans-Serif" font-weight="bold" font-size="11.00" fill="#000000">cases_bugs</text>
<text text-anchor="start" x="665.5219" y="-787.3989" font-family="Helvetica,sans-Serif" font-size="11.00" fill="#000000">[table]</text>
<polygon fill="none" stroke="#000000" points="599,-760.2989 599,-779.2989 700,-779.2989 700,-760.2989 599,-760.2989"/>
<text text-anchor="start" x="602" y="-766.3989" font-family="Helvetica,sans-Serif" font-size="11.00" fill="#000000">...</text>
<polygon fill="#ffffff" stroke="transparent" points="599,-741.2989 599,-760.2989 648,-760.2989 648,-741.2989 599,-741.2989"/>
<polygon fill="none" stroke="#000000" points="599,-741.2989 599,-760.2989 648,-760.2989 648,-741.2989 599,-741.2989"/>
<text text-anchor="start" x="602" y="-747.3989" font-family="Helvetica,sans-Serif" font-size="11.00" fill="#000000">&lt; 2</text>
<polygon fill="#ffffff" stroke="transparent" points="648,-741.2989 648,-760.2989 674,-760.2989 674,-741.2989 648,-741.2989"/>
<polygon fill="none" stroke="#000000" points="648,-741.2989 648,-760.2989 674,-760.2989 674,-741.2989 648,-741.2989"/>
<text text-anchor="start" x="664.8862" y="-747.3989" font-family="Helvetica,sans-Serif" font-size="11.00" fill="#000000"> &#160;</text>
<polygon fill="#ffffff" stroke="transparent" points="674,-741.2989 674,-760.2989 700,-760.2989 700,-741.2989 674,-741.2989"/>
<polygon fill="none" stroke="#000000" points="674,-741.2989 674,-760.2989 700,-760.2989 700,-741.2989 674,-741.2989"/>
<text text-anchor="start" x="690.8862" y="-747.3989" font-family="Helvetica,sans-Serif" font-size="11.00" fill="#000000"> &#160;</text>
</a>
</g>
</g>
<!-- cases_bugs&#45;&gt;cases -->
<g id="edge10" class="edge">
<title>cases_bugs:w&#45;&gt;cases:e</title>
<path fill="none" stroke="#000000" d="M584.372,-769.2989C532.9818,-769.2989 514.934,-769.2989 457,-769.2989"/>
<polygon fill="#000000" stroke="#000000" points="591,-769.299 599,-772.8989 595,-769.2989 599,-769.2989 599,-769.2989 599,-769.2989 595,-769.2989 599,-765.6989 591,-769.299 591,-769.299"/>
<ellipse fill="none" stroke="#000000" cx="587.8" cy="-769.299" rx="3.2" ry="3.2"/>
</g>
<!-- cases_cstm -->
<g id="node9" class="node">
<title>cases_cstm</title>
<g id="a_node9"><a xlink:href="../../tables/cases_cstm.html" xlink:title="cases_cstm" target="_top">
<polygon fill="#ffffff" stroke="transparent" points="506,-564.2989 506,-720.2989 792,-720.2989 792,-564.2989 506,-564.2989"/>
<polygon fill="#f5f5f5" stroke="transparent" points="508,-695.2989 508,-718.2989 790,-718.2989 790,-695.2989 508,-695.2989"/>
<polygon fill="none" stroke="#000000" points="508,-695.2989 508,-718.2989 790,-718.2989 790,-695.2989 508,-695.2989"/>
<text text-anchor="start" x="513" y="-704.3989" font-family="Helvetica,sans-Serif" font-weight="bold" font-size="11.00" fill="#000000">cases_cstm</text>
<text text-anchor="start" x="755.0437" y="-703.3989" font-family="Helvetica,sans-Serif" font-size="11.00" fill="#000000">[table]</text>
<polygon fill="none" stroke="#000000" points="508,-673.2989 508,-695.2989 723,-695.2989 723,-673.2989 508,-673.2989"/>
<image xlink:href="../../images/primaryKeys.png" width="11px" height="12px" preserveAspectRatio="xMinYMin meet" x="513" y="-690.299"/>
<text text-anchor="start" x="528" y="-680.3989" font-family="Helvetica,sans-Serif" font-size="11.00" fill="#000000">id_c</text>
<polygon fill="none" stroke="#000000" points="723,-673.2989 723,-695.2989 790,-695.2989 790,-673.2989 723,-673.2989"/>
<text text-anchor="start" x="726" y="-680.9989" font-family="Helvetica,sans-Serif" font-size="11.00" fill="#000000">char[36]</text>
<polygon fill="none" stroke="#000000" points="508,-651.2989 508,-673.2989 723,-673.2989 723,-651.2989 508,-651.2989"/>
<text text-anchor="start" x="528" y="-658.3989" font-family="Helvetica,sans-Serif" font-size="11.00" fill="#000000">jjwg_maps_lng_c</text>
<polygon fill="none" stroke="#000000" points="723,-651.2989 723,-673.2989 790,-673.2989 790,-651.2989 723,-651.2989"/>
<text text-anchor="start" x="726" y="-658.9989" font-family="Helvetica,sans-Serif" font-size="11.00" fill="#000000">float[11,8]</text>
<polygon fill="none" stroke="#000000" points="508,-629.2989 508,-651.2989 723,-651.2989 723,-629.2989 508,-629.2989"/>
<text text-anchor="start" x="528" y="-636.3989" font-family="Helvetica,sans-Serif" font-size="11.00" fill="#000000">jjwg_maps_lat_c</text>
<polygon fill="none" stroke="#000000" points="723,-629.2989 723,-651.2989 790,-651.2989 790,-629.2989 723,-629.2989"/>
<text text-anchor="start" x="726" y="-636.9989" font-family="Helvetica,sans-Serif" font-size="11.00" fill="#000000">float[10,8]</text>
<polygon fill="none" stroke="#000000" points="508,-607.2989 508,-629.2989 723,-629.2989 723,-607.2989 508,-607.2989"/>
<text text-anchor="start" x="528" y="-614.3989" font-family="Helvetica,sans-Serif" font-size="11.00" fill="#000000">jjwg_maps_geocode_status_c</text>
<polygon fill="none" stroke="#000000" points="723,-607.2989 723,-629.2989 790,-629.2989 790,-607.2989 723,-607.2989"/>
<text text-anchor="start" x="725.9365" y="-614.9989" font-family="Helvetica,sans-Serif" font-size="11.00" fill="#000000">varchar[255]</text>
<polygon fill="none" stroke="#000000" points="508,-585.2989 508,-607.2989 723,-607.2989 723,-585.2989 508,-585.2989"/>
<text text-anchor="start" x="528" y="-592.3989" font-family="Helvetica,sans-Serif" font-size="11.00" fill="#000000">jjwg_maps_address_c</text>
<polygon fill="none" stroke="#000000" points="723,-585.2989 723,-607.2989 790,-607.2989 790,-585.2989 723,-585.2989"/>
<text text-anchor="start" x="725.9365" y="-592.9989" font-family="Helvetica,sans-Serif" font-size="11.00" fill="#000000">varchar[255]</text>
<polygon fill="#ffffff" stroke="transparent" points="508,-566.2989 508,-585.2989 620,-585.2989 620,-566.2989 508,-566.2989"/>
<polygon fill="none" stroke="#000000" points="508,-566.2989 508,-585.2989 620,-585.2989 620,-566.2989 508,-566.2989"/>
<text text-anchor="start" x="511" y="-572.3989" font-family="Helvetica,sans-Serif" font-size="11.00" fill="#000000">&lt; 1</text>
<polygon fill="#ffffff" stroke="transparent" points="620,-566.2989 620,-585.2989 723,-585.2989 723,-566.2989 620,-566.2989"/>
<polygon fill="none" stroke="#000000" points="620,-566.2989 620,-585.2989 723,-585.2989 723,-566.2989 620,-566.2989"/>
<text text-anchor="start" x="713.8862" y="-572.3989" font-family="Helvetica,sans-Serif" font-size="11.00" fill="#000000"> &#160;</text>
<polygon fill="#ffffff" stroke="transparent" points="723,-566.2989 723,-585.2989 790,-585.2989 790,-566.2989 723,-566.2989"/>
<polygon fill="none" stroke="#000000" points="723,-566.2989 723,-585.2989 790,-585.2989 790,-566.2989 723,-566.2989"/>
<text text-anchor="start" x="771.4053" y="-572.3989" font-family="Helvetica,sans-Serif" font-size="11.00" fill="#000000">0 &gt;</text>
<polygon fill="none" stroke="#000000" stroke-width="2" points="507,-565.2989 507,-719.2989 791,-719.2989 791,-565.2989 507,-565.2989"/>
</a>
</g>
</g>
<!-- cases_cstm&#45;&gt;cases -->
<g id="edge11" class="edge">
<title>cases_cstm:w&#45;&gt;cases:e</title>
<path fill="none" stroke="#000000" d="M497.6156,-686.4001C470.1891,-699.4893 496.9258,-769.2989 457,-769.2989"/>
<polygon fill="#000000" stroke="#000000" points="506.4226,-680.537 508.0092,-688.3781 506.441,-688.6954 504.8544,-680.8543 506.4226,-680.537"/>
<polyline fill="none" stroke="#000000" points="508,-684.2989 504.0794,-685.0922 "/>
<ellipse fill="none" stroke="#000000" cx="500.943" cy="-685.7269" rx="3.2" ry="3.2"/>
</g>
<!-- contacts_cases -->
<g id="node10" class="node">
<title>contacts_cases</title>
<g id="a_node10"><a xlink:href="../../tables/contacts_cases.html" xlink:title="contacts_cases" target="_top">
<polygon fill="#ffffff" stroke="transparent" points="590,-180.7989 590,-241.7989 708,-241.7989 708,-180.7989 590,-180.7989"/>
<polygon fill="#f5f5f5" stroke="transparent" points="590,-218.2989 590,-241.2989 708,-241.2989 708,-218.2989 590,-218.2989"/>
<polygon fill="none" stroke="#000000" points="590,-218.2989 590,-241.2989 708,-241.2989 708,-218.2989 590,-218.2989"/>
<text text-anchor="start" x="594.5984" y="-227.3989" font-family="Helvetica,sans-Serif" font-weight="bold" font-size="11.00" fill="#000000">contacts_cases</text>
<text text-anchor="start" x="673.5219" y="-226.3989" font-family="Helvetica,sans-Serif" font-size="11.00" fill="#000000">[table]</text>
<polygon fill="none" stroke="#000000" points="590,-199.2989 590,-218.2989 708,-218.2989 708,-199.2989 590,-199.2989"/>
<text text-anchor="start" x="593" y="-205.3989" font-family="Helvetica,sans-Serif" font-size="11.00" fill="#000000">...</text>
<polygon fill="#ffffff" stroke="transparent" points="590,-180.2989 590,-199.2989 647,-199.2989 647,-180.2989 590,-180.2989"/>
<polygon fill="none" stroke="#000000" points="590,-180.2989 590,-199.2989 647,-199.2989 647,-180.2989 590,-180.2989"/>
<text text-anchor="start" x="593" y="-186.3989" font-family="Helvetica,sans-Serif" font-size="11.00" fill="#000000">&lt; 2</text>
<polygon fill="#ffffff" stroke="transparent" points="647,-180.2989 647,-199.2989 677,-199.2989 677,-180.2989 647,-180.2989"/>
<polygon fill="none" stroke="#000000" points="647,-180.2989 647,-199.2989 677,-199.2989 677,-180.2989 647,-180.2989"/>
<text text-anchor="start" x="667.8862" y="-186.3989" font-family="Helvetica,sans-Serif" font-size="11.00" fill="#000000"> &#160;</text>
<polygon fill="#ffffff" stroke="transparent" points="677,-180.2989 677,-199.2989 708,-199.2989 708,-180.2989 677,-180.2989"/>
<polygon fill="none" stroke="#000000" points="677,-180.2989 677,-199.2989 708,-199.2989 708,-180.2989 677,-180.2989"/>
<text text-anchor="start" x="698.8862" y="-186.3989" font-family="Helvetica,sans-Serif" font-size="11.00" fill="#000000"> &#160;</text>
</a>
</g>
</g>
<!-- contacts_cases&#45;&gt;cases -->
<g id="edge13" class="edge">
<title>contacts_cases:w&#45;&gt;cases:e</title>
<path fill="none" stroke="#000000" d="M575.4906,-208.5896C539.8552,-210.1977 520.7565,-219.172 498,-252.2989 465.3716,-299.7963 514.6248,-769.2989 457,-769.2989"/>
<polygon fill="#000000" stroke="#000000" points="582.0016,-208.4592 590.0721,-211.8982 586.0008,-208.3791 590,-208.2989 590,-208.2989 590,-208.2989 586.0008,-208.3791 589.9279,-204.6996 582.0016,-208.4592 582.0016,-208.4592"/>
<ellipse fill="none" stroke="#000000" cx="578.8022" cy="-208.5233" rx="3.2" ry="3.2"/>
</g>
<!-- contacts_cases&#45;&gt;contacts -->
<g id="edge14" class="edge">
<title>contacts_cases:w&#45;&gt;contacts:e</title>
<path fill="none" stroke="#000000" d="M575.2097,-208.3406C438.722,-209.1565 380.5608,-222.7917 279,-322.2989 241.8592,-358.6887 288.4967,-431.2989 236.5,-431.2989"/>
<polygon fill="#000000" stroke="#000000" points="582,-208.3215 590.0102,-211.8989 586,-208.3102 590,-208.2989 590,-208.2989 590,-208.2989 586,-208.3102 589.9898,-204.6989 582,-208.3215 582,-208.3215"/>
<ellipse fill="none" stroke="#000000" cx="578.8" cy="-208.3306" rx="3.2" ry="3.2"/>
</g>
<!-- documents_cases -->
<g id="node11" class="node">
<title>documents_cases</title>
<g id="a_node11"><a xlink:href="../../tables/documents_cases.html" xlink:title="documents_cases" target="_top">
<polygon fill="#ffffff" stroke="transparent" points="583.5,-481.7989 583.5,-542.7989 714.5,-542.7989 714.5,-481.7989 583.5,-481.7989"/>
<polygon fill="#f5f5f5" stroke="transparent" points="584,-519.2989 584,-542.2989 715,-542.2989 715,-519.2989 584,-519.2989"/>
<polygon fill="none" stroke="#000000" points="584,-519.2989 584,-542.2989 715,-542.2989 715,-519.2989 584,-519.2989"/>
<text text-anchor="start" x="588.681" y="-528.3989" font-family="Helvetica,sans-Serif" font-weight="bold" font-size="11.00" fill="#000000">documents_cases</text>
<text text-anchor="start" x="680.5219" y="-527.3989" font-family="Helvetica,sans-Serif" font-size="11.00" fill="#000000">[table]</text>
<polygon fill="none" stroke="#000000" points="584,-500.2989 584,-519.2989 715,-519.2989 715,-500.2989 584,-500.2989"/>
<text text-anchor="start" x="587" y="-506.3989" font-family="Helvetica,sans-Serif" font-size="11.00" fill="#000000">...</text>
<polygon fill="#ffffff" stroke="transparent" points="584,-481.2989 584,-500.2989 648,-500.2989 648,-481.2989 584,-481.2989"/>
<polygon fill="none" stroke="#000000" points="584,-481.2989 584,-500.2989 648,-500.2989 648,-481.2989 584,-481.2989"/>
<text text-anchor="start" x="587" y="-487.3989" font-family="Helvetica,sans-Serif" font-size="11.00" fill="#000000">&lt; 2</text>
<polygon fill="#ffffff" stroke="transparent" points="648,-481.2989 648,-500.2989 681,-500.2989 681,-481.2989 648,-481.2989"/>
<polygon fill="none" stroke="#000000" points="648,-481.2989 648,-500.2989 681,-500.2989 681,-481.2989 648,-481.2989"/>
<text text-anchor="start" x="671.8862" y="-487.3989" font-family="Helvetica,sans-Serif" font-size="11.00" fill="#000000"> &#160;</text>
<polygon fill="#ffffff" stroke="transparent" points="681,-481.2989 681,-500.2989 715,-500.2989 715,-481.2989 681,-481.2989"/>
<polygon fill="none" stroke="#000000" points="681,-481.2989 681,-500.2989 715,-500.2989 715,-481.2989 681,-481.2989"/>
<text text-anchor="start" x="705.8862" y="-487.3989" font-family="Helvetica,sans-Serif" font-size="11.00" fill="#000000"> &#160;</text>
</a>
</g>
</g>
<!-- documents_cases&#45;&gt;cases -->
<g id="edge15" class="edge">
<title>documents_cases:w&#45;&gt;cases:e</title>
<path fill="none" stroke="#000000" d="M569.4105,-509.7795C536.5827,-512.1645 520.5992,-523.8554 498,-554.2989 440.0175,-632.4074 554.2775,-769.2989 457,-769.2989"/>
<polygon fill="#000000" stroke="#000000" points="576.0043,-509.5623 584.1185,-512.897 580.0022,-509.4306 584,-509.2989 584,-509.2989 584,-509.2989 580.0022,-509.4306 583.8815,-505.7009 576.0043,-509.5623 576.0043,-509.5623"/>
<ellipse fill="none" stroke="#000000" cx="572.8061" cy="-509.6677" rx="3.2" ry="3.2"/>
</g>
<!-- emails -->
<g id="node12" class="node">
<title>emails</title>
<g id="a_node12"><a xlink:href="../../tables/emails.html" xlink:title="emails" target="_top">
<polygon fill="#ffffff" stroke="transparent" points="612,-1097.7989 612,-1158.7989 686,-1158.7989 686,-1097.7989 612,-1097.7989"/>
<polygon fill="#f5f5f5" stroke="transparent" points="612,-1135.2989 612,-1158.2989 686,-1158.2989 686,-1135.2989 612,-1135.2989"/>
<polygon fill="none" stroke="#000000" points="612,-1135.2989 612,-1158.2989 686,-1158.2989 686,-1135.2989 612,-1135.2989"/>
<text text-anchor="start" x="616.6133" y="-1144.3989" font-family="Helvetica,sans-Serif" font-weight="bold" font-size="11.00" fill="#000000">emails</text>
<text text-anchor="start" x="651.5219" y="-1143.3989" font-family="Helvetica,sans-Serif" font-size="11.00" fill="#000000">[table]</text>
<polygon fill="none" stroke="#000000" points="612,-1116.2989 612,-1135.2989 686,-1135.2989 686,-1116.2989 612,-1116.2989"/>
<text text-anchor="start" x="615" y="-1122.3989" font-family="Helvetica,sans-Serif" font-size="11.00" fill="#000000">...</text>
<polygon fill="#ffffff" stroke="transparent" points="612,-1097.2989 612,-1116.2989 646,-1116.2989 646,-1097.2989 612,-1097.2989"/>
<polygon fill="none" stroke="#000000" points="612,-1097.2989 612,-1116.2989 646,-1116.2989 646,-1097.2989 612,-1097.2989"/>
<text text-anchor="start" x="615" y="-1103.3989" font-family="Helvetica,sans-Serif" font-size="11.00" fill="#000000">&lt; 12</text>
<polygon fill="#ffffff" stroke="transparent" points="646,-1097.2989 646,-1116.2989 661,-1116.2989 661,-1097.2989 646,-1097.2989"/>
<polygon fill="none" stroke="#000000" points="646,-1097.2989 646,-1116.2989 661,-1116.2989 661,-1097.2989 646,-1097.2989"/>
<text text-anchor="start" x="651.8862" y="-1103.3989" font-family="Helvetica,sans-Serif" font-size="11.00" fill="#000000"> &#160;</text>
<polygon fill="#ffffff" stroke="transparent" points="661,-1097.2989 661,-1116.2989 686,-1116.2989 686,-1097.2989 661,-1097.2989"/>
<polygon fill="none" stroke="#000000" points="661,-1097.2989 661,-1116.2989 686,-1116.2989 686,-1097.2989 661,-1097.2989"/>
<text text-anchor="start" x="667.4053" y="-1103.3989" font-family="Helvetica,sans-Serif" font-size="11.00" fill="#000000">3 &gt;</text>
</a>
</g>
</g>
<!-- emails&#45;&gt;accounts -->
<g id="edge16" class="edge">
<title>emails:w&#45;&gt;accounts:e</title>
<path fill="none" stroke="#000000" d="M597.1599,-1125.1777C442.3148,-1122.6155 400.6387,-1080.2989 238.5,-1080.2989"/>
<polygon fill="#000000" stroke="#000000" points="604.0003,-1125.2335 611.9706,-1128.8988 608.0001,-1125.2662 612,-1125.2989 612,-1125.2989 612,-1125.2989 608.0001,-1125.2662 612.0294,-1121.699 604.0003,-1125.2335 604.0003,-1125.2335"/>
<ellipse fill="none" stroke="#000000" cx="600.8004" cy="-1125.2074" rx="3.2" ry="3.2"/>
</g>
<!-- emails&#45;&gt;cases -->
<g id="edge17" class="edge">
<title>emails:w&#45;&gt;cases:e</title>
<path fill="none" stroke="#000000" d="M597.3715,-1125.346C553.4243,-1125.5111 528.6914,-1124.589 498,-1087.2989 452.7208,-1032.2845 528.2516,-769.2989 457,-769.2989"/>
<polygon fill="#000000" stroke="#000000" points="604,-1125.3247 612.0116,-1128.8989 608,-1125.3118 612,-1125.2989 612,-1125.2989 612,-1125.2989 608,-1125.3118 611.9884,-1121.6989 604,-1125.3247 604,-1125.3247"/>
<ellipse fill="none" stroke="#000000" cx="600.8001" cy="-1125.3351" rx="3.2" ry="3.2"/>
</g>
<!-- emails_beans -->
<g id="node13" class="node">
<title>emails_beans</title>
<g id="a_node13"><a xlink:href="../../tables/emails_beans.html" xlink:title="emails_beans" target="_top">
<polygon fill="#ffffff" stroke="transparent" points="841,-1167.7989 841,-1228.7989 951,-1228.7989 951,-1167.7989 841,-1167.7989"/>
<polygon fill="#f5f5f5" stroke="transparent" points="841,-1205.2989 841,-1228.2989 951,-1228.2989 951,-1205.2989 841,-1205.2989"/>
<polygon fill="none" stroke="#000000" points="841,-1205.2989 841,-1228.2989 951,-1228.2989 951,-1205.2989 841,-1205.2989"/>
<text text-anchor="start" x="845.576" y="-1214.3989" font-family="Helvetica,sans-Serif" font-weight="bold" font-size="11.00" fill="#000000">emails_beans</text>
<text text-anchor="start" x="916.5219" y="-1213.3989" font-family="Helvetica,sans-Serif" font-size="11.00" fill="#000000">[table]</text>
<polygon fill="none" stroke="#000000" points="841,-1186.2989 841,-1205.2989 951,-1205.2989 951,-1186.2989 841,-1186.2989"/>
<text text-anchor="start" x="844" y="-1192.3989" font-family="Helvetica,sans-Serif" font-size="11.00" fill="#000000">...</text>
<polygon fill="#ffffff" stroke="transparent" points="841,-1167.2989 841,-1186.2989 897,-1186.2989 897,-1167.2989 841,-1167.2989"/>
<polygon fill="none" stroke="#000000" points="841,-1167.2989 841,-1186.2989 897,-1186.2989 897,-1167.2989 841,-1167.2989"/>
<text text-anchor="start" x="844" y="-1173.3989" font-family="Helvetica,sans-Serif" font-size="11.00" fill="#000000">&lt; 14</text>
<polygon fill="#ffffff" stroke="transparent" points="897,-1167.2989 897,-1186.2989 924,-1186.2989 924,-1167.2989 897,-1167.2989"/>
<polygon fill="none" stroke="#000000" points="897,-1167.2989 897,-1186.2989 924,-1186.2989 924,-1167.2989 897,-1167.2989"/>
<text text-anchor="start" x="914.8862" y="-1173.3989" font-family="Helvetica,sans-Serif" font-size="11.00" fill="#000000"> &#160;</text>
<polygon fill="#ffffff" stroke="transparent" points="924,-1167.2989 924,-1186.2989 951,-1186.2989 951,-1167.2989 924,-1167.2989"/>
<polygon fill="none" stroke="#000000" points="924,-1167.2989 924,-1186.2989 951,-1186.2989 951,-1167.2989 924,-1167.2989"/>
<text text-anchor="start" x="941.8862" y="-1173.3989" font-family="Helvetica,sans-Serif" font-size="11.00" fill="#000000"> &#160;</text>
</a>
</g>
</g>
<!-- emails_beans&#45;&gt;accounts -->
<g id="edge18" class="edge">
<title>emails_beans:w&#45;&gt;accounts:e</title>
<path fill="none" stroke="#000000" d="M827.0103,-1199.3297C818.3808,-1205.2914 814.6081,-1216.1965 800,-1220.2989 670.7768,-1256.5891 628.3185,-1252.4344 498,-1220.2989 391.2605,-1193.9778 374.499,-1159.7606 279,-1105.2989 260.6249,-1094.8198 259.6532,-1080.2989 238.5,-1080.2989"/>
<polygon fill="#000000" stroke="#000000" points="833.3127,-1197.5138 841.9967,-1198.7582 837.1564,-1196.4064 841,-1195.2989 841,-1195.2989 841,-1195.2989 837.1564,-1196.4064 840.0033,-1191.8396 833.3127,-1197.5138 833.3127,-1197.5138"/>
<ellipse fill="none" stroke="#000000" cx="830.2378" cy="-1198.3998" rx="3.2" ry="3.2"/>
</g>
<!-- emails_beans&#45;&gt;cases -->
<g id="edge19" class="edge">
<title>emails_beans:w&#45;&gt;cases:e</title>
<path fill="none" stroke="#000000" d="M826.599,-1195.2964C757.9488,-1195.218 523.0818,-1193.7251 498,-1169.2989 433.9856,-1106.9579 546.3546,-769.2989 457,-769.2989"/>
<polygon fill="#000000" stroke="#000000" points="833,-1195.2975 840.9994,-1198.8989 837,-1195.2982 841,-1195.2989 841,-1195.2989 841,-1195.2989 837,-1195.2982 841.0006,-1191.6989 833,-1195.2975 833,-1195.2975"/>
<ellipse fill="none" stroke="#000000" cx="829.8" cy="-1195.2969" rx="3.2" ry="3.2"/>
</g>
<!-- emails_beans&#45;&gt;contacts -->
<g id="edge20" class="edge">
<title>emails_beans:w&#45;&gt;contacts:e</title>
<path fill="none" stroke="#000000" d="M826.5986,-1195.6726C741.6842,-1199.6184 556.7274,-1232.6682 498,-1191.2989 463.5109,-1167.0038 485.6415,-1139.0913 465,-1102.2989 399.6564,-985.8271 328.8372,-990.2009 279,-866.2989 260.8774,-821.2436 285.0635,-431.2989 236.5,-431.2989"/>
<polygon fill="#000000" stroke="#000000" points="833.0027,-1195.5065 841.0934,-1198.8977 837.0013,-1195.4027 841,-1195.2989 841,-1195.2989 841,-1195.2989 837.0013,-1195.4027 840.9066,-1191.7001 833.0027,-1195.5065 833.0027,-1195.5065"/>
<ellipse fill="none" stroke="#000000" cx="829.8038" cy="-1195.5895" rx="3.2" ry="3.2"/>
</g>
<!-- emails_beans&#45;&gt;emails -->
<g id="edge23" class="edge">
<title>emails_beans:w&#45;&gt;emails:e</title>
<path fill="none" stroke="#000000" d="M826.6687,-1192.29C817.8367,-1187.8956 813.1212,-1179.5646 800,-1173.2989 750.3911,-1149.6096 740.9747,-1125.2989 686,-1125.2989"/>
<polygon fill="#000000" stroke="#000000" points="833.1707,-1193.6551 840.2603,-1198.8221 837.0854,-1194.477 841,-1195.2989 841,-1195.2989 841,-1195.2989 837.0854,-1194.477 841.7397,-1191.7757 833.1707,-1193.6551 833.1707,-1193.6551"/>
<ellipse fill="none" stroke="#000000" cx="830.039" cy="-1192.9975" rx="3.2" ry="3.2"/>
</g>
<!-- meetings -->
<g id="node14" class="node">
<title>meetings</title>
<g id="a_node14"><a xlink:href="../../tables/meetings.html" xlink:title="meetings" target="_top">
<polygon fill="#ffffff" stroke="transparent" points="605.5,-1261.7989 605.5,-1322.7989 692.5,-1322.7989 692.5,-1261.7989 605.5,-1261.7989"/>
<polygon fill="#f5f5f5" stroke="transparent" points="606,-1299.2989 606,-1322.2989 693,-1322.2989 693,-1299.2989 606,-1299.2989"/>
<polygon fill="none" stroke="#000000" points="606,-1299.2989 606,-1322.2989 693,-1322.2989 693,-1299.2989 606,-1299.2989"/>
<text text-anchor="start" x="610.6904" y="-1308.3989" font-family="Helvetica,sans-Serif" font-weight="bold" font-size="11.00" fill="#000000">meetings</text>
<text text-anchor="start" x="658.5219" y="-1307.3989" font-family="Helvetica,sans-Serif" font-size="11.00" fill="#000000">[table]</text>
<polygon fill="none" stroke="#000000" points="606,-1280.2989 606,-1299.2989 693,-1299.2989 693,-1280.2989 606,-1280.2989"/>
<text text-anchor="start" x="609" y="-1286.3989" font-family="Helvetica,sans-Serif" font-size="11.00" fill="#000000">...</text>
<polygon fill="#ffffff" stroke="transparent" points="606,-1261.2989 606,-1280.2989 646,-1280.2989 646,-1261.2989 606,-1261.2989"/>
<polygon fill="none" stroke="#000000" points="606,-1261.2989 606,-1280.2989 646,-1280.2989 646,-1261.2989 606,-1261.2989"/>
<text text-anchor="start" x="609" y="-1267.3989" font-family="Helvetica,sans-Serif" font-size="11.00" fill="#000000">&lt; 13</text>
<polygon fill="#ffffff" stroke="transparent" points="646,-1261.2989 646,-1280.2989 665,-1280.2989 665,-1261.2989 646,-1261.2989"/>
<polygon fill="none" stroke="#000000" points="646,-1261.2989 646,-1280.2989 665,-1280.2989 665,-1261.2989 646,-1261.2989"/>
<text text-anchor="start" x="655.8862" y="-1267.3989" font-family="Helvetica,sans-Serif" font-size="11.00" fill="#000000"> &#160;</text>
<polygon fill="#ffffff" stroke="transparent" points="665,-1261.2989 665,-1280.2989 693,-1280.2989 693,-1261.2989 665,-1261.2989"/>
<polygon fill="none" stroke="#000000" points="665,-1261.2989 665,-1280.2989 693,-1280.2989 693,-1261.2989 665,-1261.2989"/>
<text text-anchor="start" x="674.4053" y="-1267.3989" font-family="Helvetica,sans-Serif" font-size="11.00" fill="#000000">7 &gt;</text>
</a>
</g>
</g>
<!-- emails_beans&#45;&gt;meetings -->
<g id="edge21" class="edge">
<title>emails_beans:w&#45;&gt;meetings:e</title>
<path fill="none" stroke="#000000" d="M827.19,-1199.4163C815.0697,-1209.083 818.6464,-1233.4567 800,-1247.2989 758.9795,-1277.7505 744.0879,-1289.2989 693,-1289.2989"/>
<polygon fill="#000000" stroke="#000000" points="833.3335,-1197.5847 842.0286,-1198.7489 837.1667,-1196.4418 841,-1195.2989 841,-1195.2989 841,-1195.2989 837.1667,-1196.4418 839.9714,-1191.849 833.3335,-1197.5847 833.3335,-1197.5847"/>
<ellipse fill="none" stroke="#000000" cx="830.2669" cy="-1198.499" rx="3.2" ry="3.2"/>
</g>
<!-- tasks -->
<g id="node15" class="node">
<title>tasks</title>
<g id="a_node15"><a xlink:href="../../tables/tasks.html" xlink:title="tasks" target="_top">
<polygon fill="#ffffff" stroke="transparent" points="615,-905.7989 615,-966.7989 683,-966.7989 683,-905.7989 615,-905.7989"/>
<polygon fill="#f5f5f5" stroke="transparent" points="615,-943.2989 615,-966.2989 683,-966.2989 683,-943.2989 615,-943.2989"/>
<polygon fill="none" stroke="#000000" points="615,-943.2989 615,-966.2989 683,-966.2989 683,-943.2989 615,-943.2989"/>
<text text-anchor="start" x="619.6641" y="-952.3989" font-family="Helvetica,sans-Serif" font-weight="bold" font-size="11.00" fill="#000000">tasks</text>
<text text-anchor="start" x="648.5219" y="-951.3989" font-family="Helvetica,sans-Serif" font-size="11.00" fill="#000000">[table]</text>
<polygon fill="none" stroke="#000000" points="615,-924.2989 615,-943.2989 683,-943.2989 683,-924.2989 615,-924.2989"/>
<text text-anchor="start" x="618" y="-930.3989" font-family="Helvetica,sans-Serif" font-size="11.00" fill="#000000">...</text>
<polygon fill="#ffffff" stroke="transparent" points="615,-905.2989 615,-924.2989 646,-924.2989 646,-905.2989 615,-905.2989"/>
<polygon fill="none" stroke="#000000" points="615,-905.2989 615,-924.2989 646,-924.2989 646,-905.2989 615,-905.2989"/>
<text text-anchor="start" x="618" y="-911.3989" font-family="Helvetica,sans-Serif" font-size="11.00" fill="#000000">&lt; 14</text>
<polygon fill="#ffffff" stroke="transparent" points="646,-905.2989 646,-924.2989 660,-924.2989 660,-905.2989 646,-905.2989"/>
<polygon fill="none" stroke="#000000" points="646,-905.2989 646,-924.2989 660,-924.2989 660,-905.2989 646,-905.2989"/>
<text text-anchor="start" x="650.8862" y="-911.3989" font-family="Helvetica,sans-Serif" font-size="11.00" fill="#000000"> &#160;</text>
<polygon fill="#ffffff" stroke="transparent" points="660,-905.2989 660,-924.2989 683,-924.2989 683,-905.2989 660,-905.2989"/>
<polygon fill="none" stroke="#000000" points="660,-905.2989 660,-924.2989 683,-924.2989 683,-905.2989 660,-905.2989"/>
<text text-anchor="start" x="664.4053" y="-911.3989" font-family="Helvetica,sans-Serif" font-size="11.00" fill="#000000">3 &gt;</text>
</a>
</g>
</g>
<!-- emails_beans&#45;&gt;tasks -->
<g id="edge22" class="edge">
<title>emails_beans:w&#45;&gt;tasks:e</title>
<path fill="none" stroke="#000000" d="M826.4727,-1193.855C766.2921,-1180.1003 846.6851,-1071.2717 800,-1005.2989 764.7308,-955.4584 744.0574,-933.2989 683,-933.2989"/>
<polygon fill="#000000" stroke="#000000" points="833.0392,-1194.5076 840.6439,-1198.8813 837.0196,-1194.9033 841,-1195.2989 841,-1195.2989 841,-1195.2989 837.0196,-1194.9033 841.3561,-1191.7166 833.0392,-1194.5076 833.0392,-1194.5076"/>
<ellipse fill="none" stroke="#000000" cx="829.8549" cy="-1194.1911" rx="3.2" ry="3.2"/>
</g>
<!-- meetings&#45;&gt;accounts -->
<g id="edge25" class="edge">
<title>meetings:w&#45;&gt;accounts:e</title>
<path fill="none" stroke="#000000" d="M591.2343,-1289.4859C454.5536,-1292.9305 384.4272,-1341.7061 279,-1247.2989 222.104,-1196.3501 314.8737,-1080.2989 238.5,-1080.2989"/>
<polygon fill="#000000" stroke="#000000" points="598.0006,-1289.4003 606.0456,-1292.8986 602.0003,-1289.3496 606,-1289.2989 606,-1289.2989 606,-1289.2989 602.0003,-1289.3496 605.9544,-1285.6992 598.0006,-1289.4003 598.0006,-1289.4003"/>
<ellipse fill="none" stroke="#000000" cx="594.8009" cy="-1289.4408" rx="3.2" ry="3.2"/>
</g>
<!-- meetings&#45;&gt;jjwg_maps -->
<g id="edge24" class="edge">
<title>meetings:w&#45;&gt;jjwg_maps:e</title>
<path fill="none" stroke="#000000" d="M595.5228,-1289.3988C458.1718,-1292.0262 407.5665,-1345.1044 279,-1285.2989 272.1786,-1282.1258 109.5233,-1080.2989 102,-1080.2989"/>
<polygon fill="#000000" stroke="#000000" points="605.1619,-1285.3067 605.2382,-1293.3064 603.6383,-1293.3216 603.5619,-1285.322 605.1619,-1285.3067"/>
<polyline fill="none" stroke="#000000" points="606,-1289.2989 602.0002,-1289.3371 "/>
<ellipse fill="none" stroke="#000000" cx="598.8003" cy="-1289.3676" rx="3.2" ry="3.2"/>
</g>
<!-- meetings&#45;&gt;cases -->
<g id="edge26" class="edge">
<title>meetings:w&#45;&gt;cases:e</title>
<path fill="none" stroke="#000000" d="M591.492,-1288.5639C539.335,-1282.9742 524.7706,-1245.9646 498,-1193.2989 476.5529,-1151.1061 504.3309,-769.2989 457,-769.2989"/>
<polygon fill="#000000" stroke="#000000" points="598.0102,-1288.8941 605.8178,-1292.8943 602.0051,-1289.0965 606,-1289.2989 606,-1289.2989 606,-1289.2989 602.0051,-1289.0965 606.1822,-1285.7035 598.0102,-1288.8941 598.0102,-1288.8941"/>
<ellipse fill="none" stroke="#000000" cx="594.8143" cy="-1288.7321" rx="3.2" ry="3.2"/>
</g>
<!-- tasks&#45;&gt;accounts -->
<g id="edge47" class="edge">
<title>tasks:w&#45;&gt;accounts:e</title>
<path fill="none" stroke="#000000" d="M600.441,-933.2736C457.5734,-932.8023 399.2548,-926.8983 279,-1014.2989 251.1604,-1034.5326 272.9158,-1080.2989 238.5,-1080.2989"/>
<polygon fill="#000000" stroke="#000000" points="607,-933.2849 614.9937,-936.8989 611,-933.2919 615,-933.2989 615,-933.2989 615,-933.2989 611,-933.2919 615.0063,-929.6989 607,-933.2849 607,-933.2849"/>
<ellipse fill="none" stroke="#000000" cx="603.8" cy="-933.2793" rx="3.2" ry="3.2"/>
</g>
<!-- tasks&#45;&gt;cases -->
<g id="edge48" class="edge">
<title>tasks:w&#45;&gt;cases:e</title>
<path fill="none" stroke="#000000" d="M600.4029,-933.2831C555.7588,-933.0753 533.0456,-930.3251 498,-895.2989 456.3469,-853.6688 515.8901,-769.2989 457,-769.2989"/>
<polygon fill="#000000" stroke="#000000" points="607,-933.2902 614.9961,-936.8989 611,-933.2946 615,-933.2989 615,-933.2989 615,-933.2989 611,-933.2946 615.0039,-929.6989 607,-933.2902 607,-933.2902"/>
<ellipse fill="none" stroke="#000000" cx="603.8" cy="-933.2867" rx="3.2" ry="3.2"/>
</g>
<!-- tasks&#45;&gt;contacts -->
<g id="edge46" class="edge">
<title>tasks:w&#45;&gt;contacts:e</title>
<path fill="none" stroke="#000000" d="M600.368,-932.1655C521.191,-921.7454 300.9346,-842.3566 279,-814.2989 226.2585,-746.8346 322.1335,-431.2989 236.5,-431.2989"/>
<polygon fill="#000000" stroke="#000000" points="607.0239,-932.681 614.7219,-936.8882 611.0119,-932.99 615,-933.2989 615,-933.2989 615,-933.2989 611.0119,-932.99 615.2781,-929.7097 607.0239,-932.681 607.0239,-932.681"/>
<ellipse fill="none" stroke="#000000" cx="603.8335" cy="-932.4339" rx="3.2" ry="3.2"/>
</g>
<!-- tasks&#45;&gt;contacts -->
<g id="edge49" class="edge">
<title>tasks:w&#45;&gt;contacts:e</title>
<path fill="none" stroke="#000000" d="M600.6407,-932.1947C518.9928,-921.3608 297.2095,-833.9506 279,-810.2989 227.2985,-743.1458 321.2501,-431.2989 236.5,-431.2989"/>
<polygon fill="#000000" stroke="#000000" points="607.0235,-932.6855 614.724,-936.8883 611.0118,-932.9922 615,-933.2989 615,-933.2989 615,-933.2989 611.0118,-932.9922 615.276,-929.7095 607.0235,-932.6855 607.0235,-932.6855"/>
<ellipse fill="none" stroke="#000000" cx="603.833" cy="-932.4401" rx="3.2" ry="3.2"/>
</g>
<!-- notes -->
<g id="node16" class="node">
<title>notes</title>
<g id="a_node16"><a xlink:href="../../tables/notes.html" xlink:title="notes" target="_top">
<polygon fill="#ffffff" stroke="transparent" points="861.5,-911.7989 861.5,-972.7989 930.5,-972.7989 930.5,-911.7989 861.5,-911.7989"/>
<polygon fill="#f5f5f5" stroke="transparent" points="862,-949.2989 862,-972.2989 931,-972.2989 931,-949.2989 862,-949.2989"/>
<polygon fill="none" stroke="#000000" points="862,-949.2989 862,-972.2989 931,-972.2989 931,-949.2989 862,-949.2989"/>
<text text-anchor="start" x="866.5492" y="-958.3989" font-family="Helvetica,sans-Serif" font-weight="bold" font-size="11.00" fill="#000000">notes</text>
<text text-anchor="start" x="896.5219" y="-957.3989" font-family="Helvetica,sans-Serif" font-size="11.00" fill="#000000">[table]</text>
<polygon fill="none" stroke="#000000" points="862,-930.2989 862,-949.2989 931,-949.2989 931,-930.2989 862,-930.2989"/>
<text text-anchor="start" x="865" y="-936.3989" font-family="Helvetica,sans-Serif" font-size="11.00" fill="#000000">...</text>
<polygon fill="#ffffff" stroke="transparent" points="862,-911.2989 862,-930.2989 893,-930.2989 893,-911.2989 862,-911.2989"/>
<polygon fill="none" stroke="#000000" points="862,-911.2989 862,-930.2989 893,-930.2989 893,-911.2989 862,-911.2989"/>
<text text-anchor="start" x="865" y="-917.3989" font-family="Helvetica,sans-Serif" font-size="11.00" fill="#000000">&lt; 19</text>
<polygon fill="#ffffff" stroke="transparent" points="893,-911.2989 893,-930.2989 907,-930.2989 907,-911.2989 893,-911.2989"/>
<polygon fill="none" stroke="#000000" points="893,-911.2989 893,-930.2989 907,-930.2989 907,-911.2989 893,-911.2989"/>
<text text-anchor="start" x="897.8862" y="-917.3989" font-family="Helvetica,sans-Serif" font-size="11.00" fill="#000000"> &#160;</text>
<polygon fill="#ffffff" stroke="transparent" points="907,-911.2989 907,-930.2989 931,-930.2989 931,-911.2989 907,-911.2989"/>
<polygon fill="none" stroke="#000000" points="907,-911.2989 907,-930.2989 931,-930.2989 931,-911.2989 907,-911.2989"/>
<text text-anchor="start" x="912.4053" y="-917.3989" font-family="Helvetica,sans-Serif" font-size="11.00" fill="#000000">1 &gt;</text>
</a>
</g>
</g>
<!-- notes&#45;&gt;accounts -->
<g id="edge28" class="edge">
<title>notes:w&#45;&gt;accounts:e</title>
<path fill="none" stroke="#000000" d="M847.6911,-941.6292C829.0493,-948.528 825.2763,-968.8903 800,-977.2989 672.094,-1019.8492 631.2004,-984.6075 498,-1005.2989 399.5371,-1020.5942 370.7047,-1014.3229 279,-1053.2989 259.0903,-1061.7609 260.1333,-1080.2989 238.5,-1080.2989"/>
<polygon fill="#000000" stroke="#000000" points="854.104,-940.5848 862.5787,-942.8521 858.052,-939.9419 862,-939.2989 862,-939.2989 862,-939.2989 858.052,-939.9419 861.4213,-935.7457 854.104,-940.5848 854.104,-940.5848"/>
<ellipse fill="none" stroke="#000000" cx="850.9456" cy="-941.0992" rx="3.2" ry="3.2"/>
</g>
<!-- notes&#45;&gt;cases -->
<g id="edge31" class="edge">
<title>notes:w&#45;&gt;cases:e</title>
<path fill="none" stroke="#000000" d="M847.6309,-936.7742C751.6759,-899.7892 887.7726,-467.7331 800,-389.2989 774.979,-366.94 522.9676,-366.8803 498,-389.2989 434.803,-446.0441 541.9345,-769.2989 457,-769.2989"/>
<polygon fill="#000000" stroke="#000000" points="854.1207,-937.9145 861.377,-942.8446 858.0603,-938.6067 862,-939.2989 862,-939.2989 862,-939.2989 858.0603,-938.6067 862.623,-935.7532 854.1207,-937.9145 854.1207,-937.9145"/>
<ellipse fill="none" stroke="#000000" cx="850.969" cy="-937.3607" rx="3.2" ry="3.2"/>
</g>
<!-- notes&#45;&gt;aop_case_updates -->
<g id="edge29" class="edge">
<title>notes:w&#45;&gt;aop_case_updates:e</title>
<path fill="none" stroke="#000000" d="M847.4597,-937.0343C743.6164,-902.1688 855.9175,-474.8932 800,-365.2989 777.4039,-321.0122 766.7182,-290.2989 717,-290.2989"/>
<polygon fill="#000000" stroke="#000000" points="854.0953,-938.0678 861.446,-942.856 858.0476,-938.6833 862,-939.2989 862,-939.2989 862,-939.2989 858.0476,-938.6833 862.554,-935.7418 854.0953,-938.0678 854.0953,-938.0678"/>
<ellipse fill="none" stroke="#000000" cx="850.9334" cy="-937.5753" rx="3.2" ry="3.2"/>
</g>
<!-- notes&#45;&gt;contacts -->
<g id="edge27" class="edge">
<title>notes:w&#45;&gt;contacts:e</title>
<path fill="none" stroke="#000000" d="M849.0352,-932.7049C785.6222,-860.8645 859.4344,-225.1343 800,-170.2989 714.6038,-91.5106 360.9584,-131.9405 279,-214.2989 209.6772,-283.9601 334.7768,-431.2989 236.5,-431.2989"/>
<polygon fill="#000000" stroke="#000000" points="854.8693,-935.6722 860.368,-942.5077 858.4346,-937.4855 862,-939.2989 862,-939.2989 862,-939.2989 858.4346,-937.4855 863.632,-936.0901 854.8693,-935.6722 854.8693,-935.6722"/>
<ellipse fill="none" stroke="#000000" cx="852.017" cy="-934.2215" rx="3.2" ry="3.2"/>
</g>
<!-- notes&#45;&gt;contacts -->
<g id="edge32" class="edge">
<title>notes:w&#45;&gt;contacts:e</title>
<path fill="none" stroke="#000000" d="M849.0993,-932.7391C785.983,-861.2713 859.1387,-228.8386 800,-174.2989 714.5873,-95.5285 361.1041,-136.0856 279,-218.2989 210.7864,-286.6032 333.0327,-431.2989 236.5,-431.2989"/>
<polygon fill="#000000" stroke="#000000" points="854.8689,-935.6729 860.3683,-942.5079 858.4345,-937.4859 862,-939.2989 862,-939.2989 862,-939.2989 858.4345,-937.4859 863.6317,-936.0899 854.8689,-935.6729 854.8689,-935.6729"/>
<ellipse fill="none" stroke="#000000" cx="852.0165" cy="-934.2224" rx="3.2" ry="3.2"/>
</g>
<!-- notes&#45;&gt;calls -->
<g id="edge30" class="edge">
<title>notes:w&#45;&gt;calls:e</title>
<path fill="none" stroke="#000000" d="M847.579,-941.8221C825.0355,-951.0864 828.0747,-983.6057 800,-1001.2989 752.5506,-1031.2026 737.0864,-1043.2989 681,-1043.2989"/>
<polygon fill="#000000" stroke="#000000" points="854.1197,-940.6777 862.6205,-942.845 858.0599,-939.9883 862,-939.2989 862,-939.2989 862,-939.2989 858.0599,-939.9883 861.3795,-935.7528 854.1197,-940.6777 854.1197,-940.6777"/>
<ellipse fill="none" stroke="#000000" cx="850.9676" cy="-941.2293" rx="3.2" ry="3.2"/>
</g>
<!-- notes&#45;&gt;emails -->
<g id="edge33" class="edge">
<title>notes:w&#45;&gt;emails:e</title>
<path fill="none" stroke="#000000" d="M847.6013,-941.049C799.6134,-954.534 848.1979,-1042.5849 800,-1087.2989 760.8468,-1123.622 739.4074,-1125.2989 686,-1125.2989"/>
<polygon fill="#000000" stroke="#000000" points="854.0584,-940.2642 862.4344,-942.8726 858.0292,-939.7816 862,-939.2989 862,-939.2989 862,-939.2989 858.0292,-939.7816 861.5656,-935.7252 854.0584,-940.2642 854.0584,-940.2642"/>
<ellipse fill="none" stroke="#000000" cx="850.8818" cy="-940.6503" rx="3.2" ry="3.2"/>
</g>
<!-- notes&#45;&gt;meetings -->
<g id="edge34" class="edge">
<title>notes:w&#45;&gt;meetings:e</title>
<path fill="none" stroke="#000000" d="M847.6279,-940.2952C765.1567,-952.8244 847.8537,-1080.8115 800,-1169.2989 766.009,-1232.1526 764.4561,-1289.2989 693,-1289.2989"/>
<polygon fill="#000000" stroke="#000000" points="854.0192,-939.8522 862.249,-942.8903 858.0096,-939.5755 862,-939.2989 862,-939.2989 862,-939.2989 858.0096,-939.5755 861.751,-935.7075 854.0192,-939.8522 854.0192,-939.8522"/>
<ellipse fill="none" stroke="#000000" cx="850.8268" cy="-940.0735" rx="3.2" ry="3.2"/>
</g>
<!-- notes&#45;&gt;tasks -->
<g id="edge35" class="edge">
<title>notes:w&#45;&gt;tasks:e</title>
<path fill="none" stroke="#000000" d="M847.3218,-939.2274C779.5991,-938.5504 757.4698,-933.2989 683,-933.2989"/>
<polygon fill="#000000" stroke="#000000" points="854.0001,-939.2599 861.9824,-942.8989 858,-939.2794 862,-939.2989 862,-939.2989 862,-939.2989 858,-939.2794 862.0176,-935.699 854.0001,-939.2599 854.0001,-939.2599"/>
<ellipse fill="none" stroke="#000000" cx="850.8001" cy="-939.2442" rx="3.2" ry="3.2"/>
</g>
<!-- projects_cases -->
<g id="node17" class="node">
<title>projects_cases</title>
<g id="a_node17"><a xlink:href="../../tables/projects_cases.html" xlink:title="projects_cases" target="_top">
<polygon fill="#ffffff" stroke="transparent" points="591,-399.7989 591,-460.7989 707,-460.7989 707,-399.7989 591,-399.7989"/>
<polygon fill="#f5f5f5" stroke="transparent" points="591,-437.2989 591,-460.2989 707,-460.2989 707,-437.2989 591,-437.2989"/>
<polygon fill="none" stroke="#000000" points="591,-437.2989 591,-460.2989 707,-460.2989 707,-437.2989 591,-437.2989"/>
<text text-anchor="start" x="595.8255" y="-446.3989" font-family="Helvetica,sans-Serif" font-weight="bold" font-size="11.00" fill="#000000">projects_cases</text>
<text text-anchor="start" x="672.5219" y="-445.3989" font-family="Helvetica,sans-Serif" font-size="11.00" fill="#000000">[table]</text>
<polygon fill="none" stroke="#000000" points="591,-418.2989 591,-437.2989 707,-437.2989 707,-418.2989 591,-418.2989"/>
<text text-anchor="start" x="594" y="-424.3989" font-family="Helvetica,sans-Serif" font-size="11.00" fill="#000000">...</text>
<polygon fill="#ffffff" stroke="transparent" points="591,-399.2989 591,-418.2989 647,-418.2989 647,-399.2989 591,-399.2989"/>
<polygon fill="none" stroke="#000000" points="591,-399.2989 591,-418.2989 647,-418.2989 647,-399.2989 591,-399.2989"/>
<text text-anchor="start" x="594" y="-405.3989" font-family="Helvetica,sans-Serif" font-size="11.00" fill="#000000">&lt; 2</text>
<polygon fill="#ffffff" stroke="transparent" points="647,-399.2989 647,-418.2989 677,-418.2989 677,-399.2989 647,-399.2989"/>
<polygon fill="none" stroke="#000000" points="647,-399.2989 647,-418.2989 677,-418.2989 677,-399.2989 647,-399.2989"/>
<text text-anchor="start" x="667.8862" y="-405.3989" font-family="Helvetica,sans-Serif" font-size="11.00" fill="#000000"> &#160;</text>
<polygon fill="#ffffff" stroke="transparent" points="677,-399.2989 677,-418.2989 707,-418.2989 707,-399.2989 677,-399.2989"/>
<polygon fill="none" stroke="#000000" points="677,-399.2989 677,-418.2989 707,-418.2989 707,-399.2989 677,-399.2989"/>
<text text-anchor="start" x="697.8862" y="-405.3989" font-family="Helvetica,sans-Serif" font-size="11.00" fill="#000000"> &#160;</text>
</a>
</g>
</g>
<!-- projects_cases&#45;&gt;cases -->
<g id="edge36" class="edge">
<title>projects_cases:w&#45;&gt;cases:e</title>
<path fill="none" stroke="#000000" d="M576.3948,-427.6062C540.603,-429.2955 521.9793,-438.6037 498,-471.2989 458.4666,-525.2017 523.8461,-769.2989 457,-769.2989"/>
<polygon fill="#000000" stroke="#000000" points="583.0018,-427.4672 591.0757,-430.8981 587.0009,-427.3831 591,-427.2989 591,-427.2989 591,-427.2989 587.0009,-427.3831 590.9243,-423.6997 583.0018,-427.4672 583.0018,-427.4672"/>
<ellipse fill="none" stroke="#000000" cx="579.8025" cy="-427.5346" rx="3.2" ry="3.2"/>
</g>
<!-- securitygroups_records -->
<g id="node18" class="node">
<title>securitygroups_records</title>
<g id="a_node18"><a xlink:href="../../tables/securitygroups_records.html" xlink:title="securitygroups_records" target="_top">
<polygon fill="#ffffff" stroke="transparent" points="1000,-1015.7989 1000,-1076.7989 1157,-1076.7989 1157,-1015.7989 1000,-1015.7989"/>
<polygon fill="#f5f5f5" stroke="transparent" points="1000.5,-1053.2989 1000.5,-1076.2989 1157.5,-1076.2989 1157.5,-1053.2989 1000.5,-1053.2989"/>
<polygon fill="none" stroke="#000000" points="1000.5,-1053.2989 1000.5,-1076.2989 1157.5,-1076.2989 1157.5,-1053.2989 1000.5,-1053.2989"/>
<text text-anchor="start" x="1005.3528" y="-1062.3989" font-family="Helvetica,sans-Serif" font-weight="bold" font-size="11.00" fill="#000000">securitygroups_records</text>
<text text-anchor="start" x="1123.0219" y="-1061.3989" font-family="Helvetica,sans-Serif" font-size="11.00" fill="#000000">[table]</text>
<polygon fill="none" stroke="#000000" points="1000.5,-1034.2989 1000.5,-1053.2989 1157.5,-1053.2989 1157.5,-1034.2989 1000.5,-1034.2989"/>
<text text-anchor="start" x="1003.5" y="-1040.3989" font-family="Helvetica,sans-Serif" font-size="11.00" fill="#000000">...</text>
<polygon fill="#ffffff" stroke="transparent" points="1000.5,-1015.2989 1000.5,-1034.2989 1080.5,-1034.2989 1080.5,-1015.2989 1000.5,-1015.2989"/>
<polygon fill="none" stroke="#000000" points="1000.5,-1015.2989 1000.5,-1034.2989 1080.5,-1034.2989 1080.5,-1015.2989 1000.5,-1015.2989"/>
<text text-anchor="start" x="1003.5" y="-1021.3989" font-family="Helvetica,sans-Serif" font-size="11.00" fill="#000000">&lt; 41</text>
<polygon fill="#ffffff" stroke="transparent" points="1080.5,-1015.2989 1080.5,-1034.2989 1118.5,-1034.2989 1118.5,-1015.2989 1080.5,-1015.2989"/>
<polygon fill="none" stroke="#000000" points="1080.5,-1015.2989 1080.5,-1034.2989 1118.5,-1034.2989 1118.5,-1015.2989 1080.5,-1015.2989"/>
<text text-anchor="start" x="1109.3862" y="-1021.3989" font-family="Helvetica,sans-Serif" font-size="11.00" fill="#000000"> &#160;</text>
<polygon fill="#ffffff" stroke="transparent" points="1118.5,-1015.2989 1118.5,-1034.2989 1157.5,-1034.2989 1157.5,-1015.2989 1118.5,-1015.2989"/>
<polygon fill="none" stroke="#000000" points="1118.5,-1015.2989 1118.5,-1034.2989 1157.5,-1034.2989 1157.5,-1015.2989 1118.5,-1015.2989"/>
<text text-anchor="start" x="1148.3862" y="-1021.3989" font-family="Helvetica,sans-Serif" font-size="11.00" fill="#000000"> &#160;</text>
</a>
</g>
</g>
<!-- securitygroups_records&#45;&gt;accounts -->
<g id="edge37" class="edge">
<title>securitygroups_records:w&#45;&gt;accounts:e</title>
<path fill="none" stroke="#000000" d="M986.8617,-1049.3568C956.3976,-1082.4584 989.5725,-1241.2839 959,-1277.2989 910.5143,-1334.4161 873.8501,-1320.6739 800,-1333.2989 685.3945,-1352.8912 360.358,-1368.3601 279,-1285.2989 214.0132,-1218.9517 331.3721,-1080.2989 238.5,-1080.2989"/>
<polygon fill="#000000" stroke="#000000" points="993.1888,-1046.5465 1001.9614,-1046.589 996.8444,-1044.9227 1000.5,-1043.2989 1000.5,-1043.2989 1000.5,-1043.2989 996.8444,-1044.9227 999.0386,-1040.0089 993.1888,-1046.5465 993.1888,-1046.5465"/>
<ellipse fill="none" stroke="#000000" cx="990.2643" cy="-1047.8455" rx="3.2" ry="3.2"/>
</g>
<!-- securitygroups_records&#45;&gt;jjwg_maps -->
<g id="edge42" class="edge">
<title>securitygroups_records:w&#45;&gt;jjwg_maps:e</title>
<path fill="none" stroke="#000000" d="M986.9539,-1048.4425C949.9769,-1082.1896 996.3081,-1271.8182 959,-1312.2989 863.7783,-1415.6181 789.5063,-1374.2989 649,-1374.2989 649,-1374.2989 649,-1374.2989 372,-1374.2989 334.8192,-1374.2989 158.5564,-1218.6221 143,-1196.2989 111.7366,-1151.4366 156.6811,-1080.2989 102,-1080.2989"/>
<polygon fill="#000000" stroke="#000000" points="993.021,-1046.1388 1001.7779,-1046.6645 996.7605,-1044.7189 1000.5,-1043.2989 1000.5,-1043.2989 1000.5,-1043.2989 996.7605,-1044.7189 999.2221,-1039.9334 993.021,-1046.1388 993.021,-1046.1388"/>
<ellipse fill="none" stroke="#000000" cx="990.0294" cy="-1047.2747" rx="3.2" ry="3.2"/>
</g>
<!-- securitygroups_records&#45;&gt;cases -->
<g id="edge39" class="edge">
<title>securitygroups_records:w&#45;&gt;cases:e</title>
<path fill="none" stroke="#000000" d="M986.1321,-1041.6845C941.5212,-1030.1499 976.0862,-959.0536 959,-901.2989 889.1129,-665.0669 997.6091,-517.4057 800,-370.2989 746.1676,-330.2243 547.8211,-325.3349 498,-370.2989 431.8302,-430.0178 546.1336,-769.2989 457,-769.2989"/>
<polygon fill="#000000" stroke="#000000" points="992.55,-1042.4056 1000.098,-1046.8764 996.525,-1042.8523 1000.5,-1043.2989 1000.5,-1043.2989 1000.5,-1043.2989 996.525,-1042.8523 1000.902,-1039.7214 992.55,-1042.4056 992.55,-1042.4056"/>
<ellipse fill="none" stroke="#000000" cx="989.37" cy="-1042.0483" rx="3.2" ry="3.2"/>
</g>
<!-- securitygroups_records&#45;&gt;contacts -->
<g id="edge40" class="edge">
<title>securitygroups_records:w&#45;&gt;contacts:e</title>
<path fill="none" stroke="#000000" d="M987.7668,-1035.9913C935.201,-968.9885 978.7521,-462.3692 959,-398.2989 918.0855,-265.5838 920.6263,-198.1219 800,-129.2989 598.8046,-14.5074 449.4223,13.5861 279,-143.2989 231.4038,-187.1144 301.1931,-431.2989 236.5,-431.2989"/>
<polygon fill="#000000" stroke="#000000" points="993.5614,-1039.3169 998.7081,-1046.4213 997.0307,-1041.3079 1000.5,-1043.2989 1000.5,-1043.2989 1000.5,-1043.2989 997.0307,-1041.3079 1002.2919,-1040.1766 993.5614,-1039.3169 993.5614,-1039.3169"/>
<ellipse fill="none" stroke="#000000" cx="990.786" cy="-1037.7241" rx="3.2" ry="3.2"/>
</g>
<!-- securitygroups_records&#45;&gt;calls -->
<g id="edge38" class="edge">
<title>securitygroups_records:w&#45;&gt;calls:e</title>
<path fill="none" stroke="#000000" d="M985.9091,-1043.2989C855.8723,-1043.2989 818.0078,-1043.2989 681,-1043.2989"/>
<polygon fill="#000000" stroke="#000000" points="992.5,-1043.299 1000.5,-1046.8989 996.5,-1043.2989 1000.5,-1043.2989 1000.5,-1043.2989 1000.5,-1043.2989 996.5,-1043.2989 1000.5,-1039.6989 992.5,-1043.299 992.5,-1043.299"/>
<ellipse fill="none" stroke="#000000" cx="989.3" cy="-1043.299" rx="3.2" ry="3.2"/>
</g>
<!-- securitygroups_records&#45;&gt;emails -->
<g id="edge41" class="edge">
<title>securitygroups_records:w&#45;&gt;emails:e</title>
<path fill="none" stroke="#000000" d="M986.41,-1046.4133C925.9399,-1061.3916 693.9702,-1125.2989 686,-1125.2989"/>
<polygon fill="#000000" stroke="#000000" points="992.6885,-1045.0256 1001.277,-1046.8141 996.5943,-1044.1622 1000.5,-1043.2989 1000.5,-1043.2989 1000.5,-1043.2989 996.5943,-1044.1622 999.723,-1039.7838 992.6885,-1045.0256 992.6885,-1045.0256"/>
<ellipse fill="none" stroke="#000000" cx="989.564" cy="-1045.7162" rx="3.2" ry="3.2"/>
</g>
<!-- securitygroups_records&#45;&gt;meetings -->
<g id="edge43" class="edge">
<title>securitygroups_records:w&#45;&gt;meetings:e</title>
<path fill="none" stroke="#000000" d="M986.0598,-1044.8163C924.6769,-1059.7397 1018.6979,-1180.9499 959,-1239.2989 872.974,-1323.3813 813.2926,-1289.2989 693,-1289.2989"/>
<polygon fill="#000000" stroke="#000000" points="992.5438,-1044.135 1000.8762,-1046.8792 996.5219,-1043.717 1000.5,-1043.2989 1000.5,-1043.2989 1000.5,-1043.2989 996.5219,-1043.717 1000.1238,-1039.7186 992.5438,-1044.135 992.5438,-1044.135"/>
<ellipse fill="none" stroke="#000000" cx="989.3613" cy="-1044.4695" rx="3.2" ry="3.2"/>
</g>
<!-- securitygroups_records&#45;&gt;tasks -->
<g id="edge45" class="edge">
<title>securitygroups_records:w&#45;&gt;tasks:e</title>
<path fill="none" stroke="#000000" d="M985.9502,-1042.138C905.8096,-1030.3819 753.149,-933.2989 683,-933.2989"/>
<polygon fill="#000000" stroke="#000000" points="992.5253,-1042.6626 1000.2136,-1046.8875 996.5127,-1042.9807 1000.5,-1043.2989 1000.5,-1043.2989 1000.5,-1043.2989 996.5127,-1042.9807 1000.7864,-1039.7103 992.5253,-1042.6626 992.5253,-1042.6626"/>
<ellipse fill="none" stroke="#000000" cx="989.3355" cy="-1042.408" rx="3.2" ry="3.2"/>
</g>
<!-- securitygroups_records&#45;&gt;notes -->
<g id="edge44" class="edge">
<title>securitygroups_records:w&#45;&gt;notes:e</title>
<path fill="none" stroke="#000000" d="M986.3679,-1040.2986C952.3708,-1023.2467 980.9471,-939.2989 931,-939.2989"/>
<polygon fill="#000000" stroke="#000000" points="992.6744,-1041.6374 999.7523,-1046.8204 996.5872,-1042.4682 1000.5,-1043.2989 1000.5,-1043.2989 1000.5,-1043.2989 996.5872,-1042.4682 1001.2477,-1039.7774 992.6744,-1041.6374 992.6744,-1041.6374"/>
<ellipse fill="none" stroke="#000000" cx="989.5442" cy="-1040.9728" rx="3.2" ry="3.2"/>
</g>
</g>
</svg>
