<?xml version="1.0" encoding="UTF-8" standalone="no"?>
<!DOCTYPE svg PUBLIC "-//W3C//DTD SVG 1.1//EN"
 "http://www.w3.org/Graphics/SVG/1.1/DTD/svg11.dtd">
<!-- Generated by graphviz version 2.40.1 (20161225.0304)
 -->
<!-- Title: oneDegreeRelationshipsDiagram Pages: 1 -->
<svg width="409pt" height="469pt"
 viewBox="0.00 0.00 409.00 468.70" xmlns="http://www.w3.org/2000/svg" xmlns:xlink="http://www.w3.org/1999/xlink">
<g id="graph0" class="graph" transform="scale(1 1) rotate(0) translate(4 464.7)">
<title>oneDegreeRelationshipsDiagram</title>
<polygon fill="#ffffff" stroke="transparent" points="-4,4 -4,-464.7 405,-464.7 405,4 -4,4"/>
<text text-anchor="middle" x="72.4936" y="-7.3" font-family="Helvetica,sans-Serif" font-size="11.00" fill="#000000">Generated by SchemaSpy</text>
<!-- currencies -->
<g id="node1" class="node">
<title>currencies</title>
<g id="a_node1"><a xlink:href="../../tables/currencies.html" xlink:title="currencies" target="_top">
<polygon fill="#ffffff" stroke="transparent" points="194,-38.2 194,-304.2 393,-304.2 393,-38.2 194,-38.2"/>
<polygon fill="#f5f5f5" stroke="transparent" points="196.5,-279.2 196.5,-302.2 391.5,-302.2 391.5,-279.2 196.5,-279.2"/>
<polygon fill="none" stroke="#000000" points="196.5,-279.2 196.5,-302.2 391.5,-302.2 391.5,-279.2 196.5,-279.2"/>
<text text-anchor="start" x="201.5" y="-288.3" font-family="Helvetica,sans-Serif" font-weight="bold" font-size="11.00" fill="#000000">currencies</text>
<text text-anchor="start" x="356.5437" y="-287.3" font-family="Helvetica,sans-Serif" font-size="11.00" fill="#000000">[table]</text>
<polygon fill="none" stroke="#000000" points="196.5,-257.2 196.5,-279.2 324.5,-279.2 324.5,-257.2 196.5,-257.2"/>
<image xlink:href="../../images/primaryKeys.png" width="11px" height="12px" preserveAspectRatio="xMinYMin meet" x="201.5" y="-274.2"/>
<text text-anchor="start" x="216.5" y="-264.3" font-family="Helvetica,sans-Serif" font-size="11.00" fill="#000000">id</text>
<polygon fill="none" stroke="#000000" points="324.5,-257.2 324.5,-279.2 391.5,-279.2 391.5,-257.2 324.5,-257.2"/>
<text text-anchor="start" x="327.5" y="-264.9" font-family="Helvetica,sans-Serif" font-size="11.00" fill="#000000">char[36]</text>
<polygon fill="#ffffff" stroke="transparent" points="196.5,-235.2 196.5,-257.2 324.5,-257.2 324.5,-235.2 196.5,-235.2"/>
<polygon fill="none" stroke="#000000" points="196.5,-235.2 196.5,-257.2 324.5,-257.2 324.5,-235.2 196.5,-235.2"/>
<text text-anchor="start" x="216.5" y="-242.3" font-family="Helvetica,sans-Serif" font-size="11.00" fill="#000000">name</text>
<polygon fill="none" stroke="#000000" points="324.5,-235.2 324.5,-257.2 391.5,-257.2 391.5,-235.2 324.5,-235.2"/>
<text text-anchor="start" x="327.5" y="-242.9" font-family="Helvetica,sans-Serif" font-size="11.00" fill="#000000">varchar[36]</text>
<polygon fill="none" stroke="#000000" points="196.5,-213.2 196.5,-235.2 324.5,-235.2 324.5,-213.2 196.5,-213.2"/>
<text text-anchor="start" x="216.5" y="-220.3" font-family="Helvetica,sans-Serif" font-size="11.00" fill="#000000">symbol</text>
<polygon fill="none" stroke="#000000" points="324.5,-213.2 324.5,-235.2 391.5,-235.2 391.5,-213.2 324.5,-213.2"/>
<text text-anchor="start" x="327.5" y="-220.9" font-family="Helvetica,sans-Serif" font-size="11.00" fill="#000000">varchar[36]</text>
<polygon fill="none" stroke="#000000" points="196.5,-191.2 196.5,-213.2 324.5,-213.2 324.5,-191.2 196.5,-191.2"/>
<text text-anchor="start" x="216.5" y="-198.3" font-family="Helvetica,sans-Serif" font-size="11.00" fill="#000000">iso4217</text>
<polygon fill="none" stroke="#000000" points="324.5,-191.2 324.5,-213.2 391.5,-213.2 391.5,-191.2 324.5,-191.2"/>
<text text-anchor="start" x="327.5" y="-198.9" font-family="Helvetica,sans-Serif" font-size="11.00" fill="#000000">varchar[3]</text>
<polygon fill="none" stroke="#000000" points="196.5,-169.2 196.5,-191.2 324.5,-191.2 324.5,-169.2 196.5,-169.2"/>
<text text-anchor="start" x="216.5" y="-176.3" font-family="Helvetica,sans-Serif" font-size="11.00" fill="#000000">conversion_rate</text>
<polygon fill="none" stroke="#000000" points="324.5,-169.2 324.5,-191.2 391.5,-191.2 391.5,-169.2 324.5,-169.2"/>
<text text-anchor="start" x="327.5" y="-176.9" font-family="Helvetica,sans-Serif" font-size="11.00" fill="#000000">double[22]</text>
<polygon fill="none" stroke="#000000" points="196.5,-147.2 196.5,-169.2 324.5,-169.2 324.5,-147.2 196.5,-147.2"/>
<text text-anchor="start" x="216.5" y="-154.3" font-family="Helvetica,sans-Serif" font-size="11.00" fill="#000000">status</text>
<polygon fill="none" stroke="#000000" points="324.5,-147.2 324.5,-169.2 391.5,-169.2 391.5,-147.2 324.5,-147.2"/>
<text text-anchor="start" x="327.4365" y="-154.9" font-family="Helvetica,sans-Serif" font-size="11.00" fill="#000000">varchar[100]</text>
<polygon fill="#ffffff" stroke="transparent" points="196.5,-125.2 196.5,-147.2 324.5,-147.2 324.5,-125.2 196.5,-125.2"/>
<polygon fill="none" stroke="#000000" points="196.5,-125.2 196.5,-147.2 324.5,-147.2 324.5,-125.2 196.5,-125.2"/>
<text text-anchor="start" x="216.5" y="-132.3" font-family="Helvetica,sans-Serif" font-size="11.00" fill="#000000">deleted</text>
<polygon fill="none" stroke="#000000" points="324.5,-125.2 324.5,-147.2 391.5,-147.2 391.5,-125.2 324.5,-125.2"/>
<text text-anchor="start" x="327.5" y="-132.9" font-family="Helvetica,sans-Serif" font-size="11.00" fill="#000000">bit[1]</text>
<polygon fill="none" stroke="#000000" points="196.5,-103.2 196.5,-125.2 324.5,-125.2 324.5,-103.2 196.5,-103.2"/>
<text text-anchor="start" x="216.5" y="-110.3" font-family="Helvetica,sans-Serif" font-size="11.00" fill="#000000">date_entered</text>
<polygon fill="none" stroke="#000000" points="324.5,-103.2 324.5,-125.2 391.5,-125.2 391.5,-103.2 324.5,-103.2"/>
<text text-anchor="start" x="327.5" y="-110.9" font-family="Helvetica,sans-Serif" font-size="11.00" fill="#000000">datetime[26]</text>
<polygon fill="none" stroke="#000000" points="196.5,-81.2 196.5,-103.2 324.5,-103.2 324.5,-81.2 196.5,-81.2"/>
<text text-anchor="start" x="216.5" y="-88.3" font-family="Helvetica,sans-Serif" font-size="11.00" fill="#000000">date_modified</text>
<polygon fill="none" stroke="#000000" points="324.5,-81.2 324.5,-103.2 391.5,-103.2 391.5,-81.2 324.5,-81.2"/>
<text text-anchor="start" x="327.5" y="-88.9" font-family="Helvetica,sans-Serif" font-size="11.00" fill="#000000">datetime[26]</text>
<polygon fill="none" stroke="#000000" points="196.5,-59.2 196.5,-81.2 324.5,-81.2 324.5,-59.2 196.5,-59.2"/>
<text text-anchor="start" x="216.5" y="-66.3" font-family="Helvetica,sans-Serif" font-size="11.00" fill="#000000">created_by</text>
<polygon fill="none" stroke="#000000" points="324.5,-59.2 324.5,-81.2 391.5,-81.2 391.5,-59.2 324.5,-59.2"/>
<text text-anchor="start" x="327.5" y="-66.9" font-family="Helvetica,sans-Serif" font-size="11.00" fill="#000000">char[36]</text>
<polygon fill="#ffffff" stroke="transparent" points="196.5,-40.2 196.5,-59.2 264.5,-59.2 264.5,-40.2 196.5,-40.2"/>
<polygon fill="none" stroke="#000000" points="196.5,-40.2 196.5,-59.2 264.5,-59.2 264.5,-40.2 196.5,-40.2"/>
<text text-anchor="start" x="199.5" y="-46.3" font-family="Helvetica,sans-Serif" font-size="11.00" fill="#000000">&lt; 1</text>
<polygon fill="#ffffff" stroke="transparent" points="264.5,-40.2 264.5,-59.2 324.5,-59.2 324.5,-40.2 264.5,-40.2"/>
<polygon fill="none" stroke="#000000" points="264.5,-40.2 264.5,-59.2 324.5,-59.2 324.5,-40.2 264.5,-40.2"/>
<text text-anchor="start" x="315.3862" y="-46.3" font-family="Helvetica,sans-Serif" font-size="11.00" fill="#000000"> &#160;</text>
<polygon fill="#ffffff" stroke="transparent" points="324.5,-40.2 324.5,-59.2 391.5,-59.2 391.5,-40.2 324.5,-40.2"/>
<polygon fill="none" stroke="#000000" points="324.5,-40.2 324.5,-59.2 391.5,-59.2 391.5,-40.2 324.5,-40.2"/>
<text text-anchor="start" x="372.9053" y="-46.3" font-family="Helvetica,sans-Serif" font-size="11.00" fill="#000000">0 &gt;</text>
<polygon fill="none" stroke="#000000" stroke-width="2" points="195,-39.2 195,-303.2 392,-303.2 392,-39.2 195,-39.2"/>
</a>
</g>
</g>
<!-- opportunities -->
<g id="node2" class="node">
<title>opportunities</title>
<g id="a_node2"><a xlink:href="../../tables/opportunities.html" xlink:title="opportunities" target="_top">
<polygon fill="#ffffff" stroke="transparent" points="8,-219.7 8,-456.7 145,-456.7 145,-219.7 8,-219.7"/>
<polygon fill="#f5f5f5" stroke="transparent" points="8.5,-433.2 8.5,-456.2 145.5,-456.2 145.5,-433.2 8.5,-433.2"/>
<polygon fill="none" stroke="#000000" points="8.5,-433.2 8.5,-456.2 145.5,-456.2 145.5,-433.2 8.5,-433.2"/>
<text text-anchor="start" x="13.5" y="-442.3" font-family="Helvetica,sans-Serif" font-weight="bold" font-size="11.00" fill="#000000">opportunities</text>
<text text-anchor="start" x="110.5437" y="-441.3" font-family="Helvetica,sans-Serif" font-size="11.00" fill="#000000">[table]</text>
<polygon fill="none" stroke="#000000" points="8.5,-411.2 8.5,-433.2 145.5,-433.2 145.5,-411.2 8.5,-411.2"/>
<image xlink:href="../../images/primaryKeys.png" width="11px" height="12px" preserveAspectRatio="xMinYMin meet" x="13.5" y="-428.2"/>
<text text-anchor="start" x="28.5" y="-418.3" font-family="Helvetica,sans-Serif" font-size="11.00" fill="#000000">id</text>
<polygon fill="#ffffff" stroke="transparent" points="8.5,-389.2 8.5,-411.2 145.5,-411.2 145.5,-389.2 8.5,-389.2"/>
<polygon fill="none" stroke="#000000" points="8.5,-389.2 8.5,-411.2 145.5,-411.2 145.5,-389.2 8.5,-389.2"/>
<text text-anchor="start" x="28.5" y="-396.3" font-family="Helvetica,sans-Serif" font-size="11.00" fill="#000000">name</text>
<polygon fill="#c0c0c0" stroke="transparent" points="8.5,-367.2 8.5,-389.2 145.5,-389.2 145.5,-367.2 8.5,-367.2"/>
<polygon fill="none" stroke="#000000" points="8.5,-367.2 8.5,-389.2 145.5,-389.2 145.5,-367.2 8.5,-367.2"/>
<image xlink:href="../../images/foreignKeys.png" width="11px" height="12px" preserveAspectRatio="xMinYMin meet" x="13.5" y="-384.2"/>
<text text-anchor="start" x="28.5" y="-374.3" font-family="Helvetica,sans-Serif" font-size="11.00" fill="#000000">modified_user_id</text>
<polygon fill="#c0c0c0" stroke="transparent" points="8.5,-345.2 8.5,-367.2 145.5,-367.2 145.5,-345.2 8.5,-345.2"/>
<polygon fill="none" stroke="#000000" points="8.5,-345.2 8.5,-367.2 145.5,-367.2 145.5,-345.2 8.5,-345.2"/>
<image xlink:href="../../images/foreignKeys.png" width="11px" height="12px" preserveAspectRatio="xMinYMin meet" x="13.5" y="-362.2"/>
<text text-anchor="start" x="28.5" y="-352.3" font-family="Helvetica,sans-Serif" font-size="11.00" fill="#000000">created_by</text>
<polygon fill="#ffffff" stroke="transparent" points="8.5,-323.2 8.5,-345.2 145.5,-345.2 145.5,-323.2 8.5,-323.2"/>
<polygon fill="none" stroke="#000000" points="8.5,-323.2 8.5,-345.2 145.5,-345.2 145.5,-323.2 8.5,-323.2"/>
<text text-anchor="start" x="28.5" y="-330.3" font-family="Helvetica,sans-Serif" font-size="11.00" fill="#000000">deleted</text>
<polygon fill="#c0c0c0" stroke="transparent" points="8.5,-301.2 8.5,-323.2 145.5,-323.2 145.5,-301.2 8.5,-301.2"/>
<polygon fill="none" stroke="#000000" points="8.5,-301.2 8.5,-323.2 145.5,-323.2 145.5,-301.2 8.5,-301.2"/>
<image xlink:href="../../images/foreignKeys.png" width="11px" height="12px" preserveAspectRatio="xMinYMin meet" x="13.5" y="-318.2"/>
<text text-anchor="start" x="28.5" y="-308.3" font-family="Helvetica,sans-Serif" font-size="11.00" fill="#000000">assigned_user_id</text>
<polygon fill="none" stroke="#000000" points="8.5,-279.2 8.5,-301.2 145.5,-301.2 145.5,-279.2 8.5,-279.2"/>
<image xlink:href="../../images/foreignKeys.png" width="11px" height="12px" preserveAspectRatio="xMinYMin meet" x="13.5" y="-296.2"/>
<text text-anchor="start" x="28.5" y="-286.3" font-family="Helvetica,sans-Serif" font-size="11.00" fill="#000000">campaign_id</text>
<polygon fill="none" stroke="#000000" points="8.5,-257.2 8.5,-279.2 145.5,-279.2 145.5,-257.2 8.5,-257.2"/>
<image xlink:href="../../images/primaryKeys.png" width="11px" height="12px" preserveAspectRatio="xMinYMin meet" x="13.5" y="-274.2"/>
<text text-anchor="start" x="28.5" y="-264.3" font-family="Helvetica,sans-Serif" font-size="11.00" fill="#000000">currency_id</text>
<polygon fill="none" stroke="#000000" points="8.5,-238.2 8.5,-257.2 145.5,-257.2 145.5,-238.2 8.5,-238.2"/>
<text text-anchor="start" x="11.5" y="-244.3" font-family="Helvetica,sans-Serif" font-size="11.00" fill="#000000">...</text>
<polygon fill="#ffffff" stroke="transparent" points="8.5,-219.2 8.5,-238.2 67.5,-238.2 67.5,-219.2 8.5,-219.2"/>
<polygon fill="none" stroke="#000000" points="8.5,-219.2 8.5,-238.2 67.5,-238.2 67.5,-219.2 8.5,-219.2"/>
<text text-anchor="start" x="11.5" y="-225.3" font-family="Helvetica,sans-Serif" font-size="11.00" fill="#000000">&lt; 6</text>
<polygon fill="#ffffff" stroke="transparent" points="67.5,-219.2 67.5,-238.2 98.5,-238.2 98.5,-219.2 67.5,-219.2"/>
<polygon fill="none" stroke="#000000" points="67.5,-219.2 67.5,-238.2 98.5,-238.2 98.5,-219.2 67.5,-219.2"/>
<text text-anchor="start" x="89.3862" y="-225.3" font-family="Helvetica,sans-Serif" font-size="11.00" fill="#000000"> &#160;</text>
<polygon fill="#ffffff" stroke="transparent" points="98.5,-219.2 98.5,-238.2 145.5,-238.2 145.5,-219.2 98.5,-219.2"/>
<polygon fill="none" stroke="#000000" points="98.5,-219.2 98.5,-238.2 145.5,-238.2 145.5,-219.2 98.5,-219.2"/>
<text text-anchor="start" x="120.7904" y="-225.3" font-family="Helvetica,sans-Serif" font-size="11.00" fill="#000000">17 &gt;</text>
</a>
</g>
</g>
<!-- currencies&#45;&gt;opportunities -->
<g id="edge1" class="edge">
<title>currencies:w&#45;&gt;opportunities:e</title>
<path fill="none" stroke="#000000" d="M185.7307,-268.2C171.248,-268.2 164.0938,-268.2 145.5,-268.2"/>
<polygon fill="#000000" stroke="#000000" points="195.7,-264.2 195.7,-272.2 194.1,-272.2 194.1,-264.2 195.7,-264.2"/>
<polyline fill="none" stroke="#000000" points="196.5,-268.2 192.5,-268.2 "/>
<ellipse fill="none" stroke="#000000" cx="189.3" cy="-268.2001" rx="3.2" ry="3.2"/>
</g>
</g>
</svg>
