<?xml version="1.0" encoding="UTF-8" standalone="no"?>
<!DOCTYPE svg PUBLIC "-//W3C//DTD SVG 1.1//EN"
 "http://www.w3.org/Graphics/SVG/1.1/DTD/svg11.dtd">
<!-- Generated by graphviz version 2.40.1 (20161225.0304)
 -->
<!-- Title: twoDegreesRelationshipsDiagram Pages: 1 -->
<svg width="1333pt" height="1261pt"
 viewBox="0.00 0.00 1333.00 1261.06" xmlns="http://www.w3.org/2000/svg" xmlns:xlink="http://www.w3.org/1999/xlink">
<g id="graph0" class="graph" transform="scale(1 1) rotate(0) translate(4 1257.0642)">
<title>twoDegreesRelationshipsDiagram</title>
<polygon fill="#ffffff" stroke="transparent" points="-4,4 -4,-1257.0642 1329,-1257.0642 1329,4 -4,4"/>
<text text-anchor="middle" x="72.4936" y="-7.3" font-family="Helvetica,sans-Serif" font-size="11.00" fill="#000000">Generated by SchemaSpy</text>
<!-- accounts_opportunities -->
<g id="node1" class="node">
<title>accounts_opportunities</title>
<g id="a_node1"><a xlink:href="../../tables/accounts_opportunities.html" xlink:title="accounts_opportunities" target="_top">
<polygon fill="#ffffff" stroke="transparent" points="638.5,-459.5642 638.5,-520.5642 794.5,-520.5642 794.5,-459.5642 638.5,-459.5642"/>
<polygon fill="#f5f5f5" stroke="transparent" points="638.5,-497.0642 638.5,-520.0642 794.5,-520.0642 794.5,-497.0642 638.5,-497.0642"/>
<polygon fill="none" stroke="#000000" points="638.5,-497.0642 638.5,-520.0642 794.5,-520.0642 794.5,-497.0642 638.5,-497.0642"/>
<text text-anchor="start" x="643.4534" y="-506.1642" font-family="Helvetica,sans-Serif" font-weight="bold" font-size="11.00" fill="#000000">accounts_opportunities</text>
<text text-anchor="start" x="760.0219" y="-505.1642" font-family="Helvetica,sans-Serif" font-size="11.00" fill="#000000">[table]</text>
<polygon fill="none" stroke="#000000" points="638.5,-478.0642 638.5,-497.0642 794.5,-497.0642 794.5,-478.0642 638.5,-478.0642"/>
<text text-anchor="start" x="641.5" y="-484.1642" font-family="Helvetica,sans-Serif" font-size="11.00" fill="#000000">...</text>
<polygon fill="#ffffff" stroke="transparent" points="638.5,-459.0642 638.5,-478.0642 714.5,-478.0642 714.5,-459.0642 638.5,-459.0642"/>
<polygon fill="none" stroke="#000000" points="638.5,-459.0642 638.5,-478.0642 714.5,-478.0642 714.5,-459.0642 638.5,-459.0642"/>
<text text-anchor="start" x="641.5" y="-465.1642" font-family="Helvetica,sans-Serif" font-size="11.00" fill="#000000">&lt; 2</text>
<polygon fill="#ffffff" stroke="transparent" points="714.5,-459.0642 714.5,-478.0642 754.5,-478.0642 754.5,-459.0642 714.5,-459.0642"/>
<polygon fill="none" stroke="#000000" points="714.5,-459.0642 714.5,-478.0642 754.5,-478.0642 754.5,-459.0642 714.5,-459.0642"/>
<text text-anchor="start" x="745.3862" y="-465.1642" font-family="Helvetica,sans-Serif" font-size="11.00" fill="#000000"> &#160;</text>
<polygon fill="#ffffff" stroke="transparent" points="754.5,-459.0642 754.5,-478.0642 794.5,-478.0642 794.5,-459.0642 754.5,-459.0642"/>
<polygon fill="none" stroke="#000000" points="754.5,-459.0642 754.5,-478.0642 794.5,-478.0642 794.5,-459.0642 754.5,-459.0642"/>
<text text-anchor="start" x="785.3862" y="-465.1642" font-family="Helvetica,sans-Serif" font-size="11.00" fill="#000000"> &#160;</text>
</a>
</g>
</g>
<!-- opportunities -->
<g id="node2" class="node">
<title>opportunities</title>
<g id="a_node2"><a xlink:href="../../tables/opportunities.html" xlink:title="opportunities" target="_top">
<polygon fill="#ffffff" stroke="transparent" points="431,-599.5642 431,-836.5642 568,-836.5642 568,-599.5642 431,-599.5642"/>
<polygon fill="#f5f5f5" stroke="transparent" points="431.5,-813.0642 431.5,-836.0642 568.5,-836.0642 568.5,-813.0642 431.5,-813.0642"/>
<polygon fill="none" stroke="#000000" points="431.5,-813.0642 431.5,-836.0642 568.5,-836.0642 568.5,-813.0642 431.5,-813.0642"/>
<text text-anchor="start" x="436.5" y="-822.1642" font-family="Helvetica,sans-Serif" font-weight="bold" font-size="11.00" fill="#000000">opportunities</text>
<text text-anchor="start" x="533.5437" y="-821.1642" font-family="Helvetica,sans-Serif" font-size="11.00" fill="#000000">[table]</text>
<polygon fill="none" stroke="#000000" points="431.5,-791.0642 431.5,-813.0642 568.5,-813.0642 568.5,-791.0642 431.5,-791.0642"/>
<image xlink:href="../../images/primaryKeys.png" width="11px" height="12px" preserveAspectRatio="xMinYMin meet" x="436.5" y="-808.064"/>
<text text-anchor="start" x="451.5" y="-798.1642" font-family="Helvetica,sans-Serif" font-size="11.00" fill="#000000">id</text>
<polygon fill="#ffffff" stroke="transparent" points="431.5,-769.0642 431.5,-791.0642 568.5,-791.0642 568.5,-769.0642 431.5,-769.0642"/>
<polygon fill="none" stroke="#000000" points="431.5,-769.0642 431.5,-791.0642 568.5,-791.0642 568.5,-769.0642 431.5,-769.0642"/>
<text text-anchor="start" x="451.5" y="-776.1642" font-family="Helvetica,sans-Serif" font-size="11.00" fill="#000000">name</text>
<polygon fill="#c0c0c0" stroke="transparent" points="431.5,-747.0642 431.5,-769.0642 568.5,-769.0642 568.5,-747.0642 431.5,-747.0642"/>
<polygon fill="none" stroke="#000000" points="431.5,-747.0642 431.5,-769.0642 568.5,-769.0642 568.5,-747.0642 431.5,-747.0642"/>
<image xlink:href="../../images/foreignKeys.png" width="11px" height="12px" preserveAspectRatio="xMinYMin meet" x="436.5" y="-764.064"/>
<text text-anchor="start" x="451.5" y="-754.1642" font-family="Helvetica,sans-Serif" font-size="11.00" fill="#000000">modified_user_id</text>
<polygon fill="#c0c0c0" stroke="transparent" points="431.5,-725.0642 431.5,-747.0642 568.5,-747.0642 568.5,-725.0642 431.5,-725.0642"/>
<polygon fill="none" stroke="#000000" points="431.5,-725.0642 431.5,-747.0642 568.5,-747.0642 568.5,-725.0642 431.5,-725.0642"/>
<image xlink:href="../../images/foreignKeys.png" width="11px" height="12px" preserveAspectRatio="xMinYMin meet" x="436.5" y="-742.064"/>
<text text-anchor="start" x="451.5" y="-732.1642" font-family="Helvetica,sans-Serif" font-size="11.00" fill="#000000">created_by</text>
<polygon fill="#ffffff" stroke="transparent" points="431.5,-703.0642 431.5,-725.0642 568.5,-725.0642 568.5,-703.0642 431.5,-703.0642"/>
<polygon fill="none" stroke="#000000" points="431.5,-703.0642 431.5,-725.0642 568.5,-725.0642 568.5,-703.0642 431.5,-703.0642"/>
<text text-anchor="start" x="451.5" y="-710.1642" font-family="Helvetica,sans-Serif" font-size="11.00" fill="#000000">deleted</text>
<polygon fill="#c0c0c0" stroke="transparent" points="431.5,-681.0642 431.5,-703.0642 568.5,-703.0642 568.5,-681.0642 431.5,-681.0642"/>
<polygon fill="none" stroke="#000000" points="431.5,-681.0642 431.5,-703.0642 568.5,-703.0642 568.5,-681.0642 431.5,-681.0642"/>
<image xlink:href="../../images/foreignKeys.png" width="11px" height="12px" preserveAspectRatio="xMinYMin meet" x="436.5" y="-698.064"/>
<text text-anchor="start" x="451.5" y="-688.1642" font-family="Helvetica,sans-Serif" font-size="11.00" fill="#000000">assigned_user_id</text>
<polygon fill="none" stroke="#000000" points="431.5,-659.0642 431.5,-681.0642 568.5,-681.0642 568.5,-659.0642 431.5,-659.0642"/>
<image xlink:href="../../images/foreignKeys.png" width="11px" height="12px" preserveAspectRatio="xMinYMin meet" x="436.5" y="-676.064"/>
<text text-anchor="start" x="451.5" y="-666.1642" font-family="Helvetica,sans-Serif" font-size="11.00" fill="#000000">campaign_id</text>
<polygon fill="none" stroke="#000000" points="431.5,-637.0642 431.5,-659.0642 568.5,-659.0642 568.5,-637.0642 431.5,-637.0642"/>
<image xlink:href="../../images/primaryKeys.png" width="11px" height="12px" preserveAspectRatio="xMinYMin meet" x="436.5" y="-654.064"/>
<text text-anchor="start" x="451.5" y="-644.1642" font-family="Helvetica,sans-Serif" font-size="11.00" fill="#000000">currency_id</text>
<polygon fill="none" stroke="#000000" points="431.5,-618.0642 431.5,-637.0642 568.5,-637.0642 568.5,-618.0642 431.5,-618.0642"/>
<text text-anchor="start" x="434.5" y="-624.1642" font-family="Helvetica,sans-Serif" font-size="11.00" fill="#000000">...</text>
<polygon fill="#ffffff" stroke="transparent" points="431.5,-599.0642 431.5,-618.0642 490.5,-618.0642 490.5,-599.0642 431.5,-599.0642"/>
<polygon fill="none" stroke="#000000" points="431.5,-599.0642 431.5,-618.0642 490.5,-618.0642 490.5,-599.0642 431.5,-599.0642"/>
<text text-anchor="start" x="434.5" y="-605.1642" font-family="Helvetica,sans-Serif" font-size="11.00" fill="#000000">&lt; 6</text>
<polygon fill="#ffffff" stroke="transparent" points="490.5,-599.0642 490.5,-618.0642 521.5,-618.0642 521.5,-599.0642 490.5,-599.0642"/>
<polygon fill="none" stroke="#000000" points="490.5,-599.0642 490.5,-618.0642 521.5,-618.0642 521.5,-599.0642 490.5,-599.0642"/>
<text text-anchor="start" x="512.3862" y="-605.1642" font-family="Helvetica,sans-Serif" font-size="11.00" fill="#000000"> &#160;</text>
<polygon fill="#ffffff" stroke="transparent" points="521.5,-599.0642 521.5,-618.0642 568.5,-618.0642 568.5,-599.0642 521.5,-599.0642"/>
<polygon fill="none" stroke="#000000" points="521.5,-599.0642 521.5,-618.0642 568.5,-618.0642 568.5,-599.0642 521.5,-599.0642"/>
<text text-anchor="start" x="543.7904" y="-605.1642" font-family="Helvetica,sans-Serif" font-size="11.00" fill="#000000">17 &gt;</text>
</a>
</g>
</g>
<!-- accounts_opportunities&#45;&gt;opportunities -->
<g id="edge1" class="edge">
<title>accounts_opportunities:w&#45;&gt;opportunities:e</title>
<path fill="none" stroke="#000000" d="M624.8134,-492.0121C576.8906,-532.0869 634.8855,-802.0642 568.5,-802.0642"/>
<polygon fill="#000000" stroke="#000000" points="630.9765,-489.7841 639.7239,-490.4498 634.7383,-488.4241 638.5,-487.0642 638.5,-487.0642 638.5,-487.0642 634.7383,-488.4241 637.2761,-483.6787 630.9765,-489.7841 630.9765,-489.7841"/>
<ellipse fill="none" stroke="#000000" cx="627.9671" cy="-490.872" rx="3.2" ry="3.2"/>
</g>
<!-- campaign_log -->
<g id="node7" class="node">
<title>campaign_log</title>
<g id="a_node7"><a xlink:href="../../tables/campaign_log.html" xlink:title="campaign_log" target="_top">
<polygon fill="#ffffff" stroke="transparent" points="271,-786.5642 271,-847.5642 382,-847.5642 382,-786.5642 271,-786.5642"/>
<polygon fill="#f5f5f5" stroke="transparent" points="271.5,-824.0642 271.5,-847.0642 382.5,-847.0642 382.5,-824.0642 271.5,-824.0642"/>
<polygon fill="none" stroke="#000000" points="271.5,-824.0642 271.5,-847.0642 382.5,-847.0642 382.5,-824.0642 271.5,-824.0642"/>
<text text-anchor="start" x="276.2686" y="-833.1642" font-family="Helvetica,sans-Serif" font-weight="bold" font-size="11.00" fill="#000000">campaign_log</text>
<text text-anchor="start" x="348.0219" y="-832.1642" font-family="Helvetica,sans-Serif" font-size="11.00" fill="#000000">[table]</text>
<polygon fill="none" stroke="#000000" points="271.5,-805.0642 271.5,-824.0642 382.5,-824.0642 382.5,-805.0642 271.5,-805.0642"/>
<text text-anchor="start" x="274.5" y="-811.1642" font-family="Helvetica,sans-Serif" font-size="11.00" fill="#000000">...</text>
<polygon fill="#ffffff" stroke="transparent" points="271.5,-786.0642 271.5,-805.0642 320.5,-805.0642 320.5,-786.0642 271.5,-786.0642"/>
<polygon fill="none" stroke="#000000" points="271.5,-786.0642 271.5,-805.0642 320.5,-805.0642 320.5,-786.0642 271.5,-786.0642"/>
<text text-anchor="start" x="274.5" y="-792.1642" font-family="Helvetica,sans-Serif" font-size="11.00" fill="#000000">&lt; 5</text>
<polygon fill="#ffffff" stroke="transparent" points="320.5,-786.0642 320.5,-805.0642 346.5,-805.0642 346.5,-786.0642 320.5,-786.0642"/>
<polygon fill="none" stroke="#000000" points="320.5,-786.0642 320.5,-805.0642 346.5,-805.0642 346.5,-786.0642 320.5,-786.0642"/>
<text text-anchor="start" x="337.3862" y="-792.1642" font-family="Helvetica,sans-Serif" font-size="11.00" fill="#000000"> &#160;</text>
<polygon fill="#ffffff" stroke="transparent" points="346.5,-786.0642 346.5,-805.0642 382.5,-805.0642 382.5,-786.0642 346.5,-786.0642"/>
<polygon fill="none" stroke="#000000" points="346.5,-786.0642 346.5,-805.0642 382.5,-805.0642 382.5,-786.0642 346.5,-786.0642"/>
<text text-anchor="start" x="363.9053" y="-792.1642" font-family="Helvetica,sans-Serif" font-size="11.00" fill="#000000">5 &gt;</text>
</a>
</g>
</g>
<!-- opportunities&#45;&gt;campaign_log -->
<g id="edge36" class="edge">
<title>opportunities:w&#45;&gt;campaign_log:e</title>
<path fill="none" stroke="#000000" d="M420.9707,-803.0873C406.9949,-805.9893 400.8925,-814.0642 382.5,-814.0642"/>
<polygon fill="#000000" stroke="#000000" points="430.3169,-798.1603 431.0906,-806.1228 429.4981,-806.2776 428.7244,-798.3151 430.3169,-798.1603"/>
<polyline fill="none" stroke="#000000" points="431.5,-802.0642 427.5188,-802.4511 "/>
<ellipse fill="none" stroke="#000000" cx="424.3338" cy="-802.7606" rx="3.2" ry="3.2"/>
</g>
<!-- campaigns -->
<g id="node8" class="node">
<title>campaigns</title>
<g id="a_node8"><a xlink:href="../../tables/campaigns.html" xlink:title="campaigns" target="_top">
<polygon fill="#ffffff" stroke="transparent" points="8,-764.5642 8,-825.5642 104,-825.5642 104,-764.5642 8,-764.5642"/>
<polygon fill="#f5f5f5" stroke="transparent" points="8,-802.0642 8,-825.0642 104,-825.0642 104,-802.0642 8,-802.0642"/>
<polygon fill="none" stroke="#000000" points="8,-802.0642 8,-825.0642 104,-825.0642 104,-802.0642 8,-802.0642"/>
<text text-anchor="start" x="12.9114" y="-811.1642" font-family="Helvetica,sans-Serif" font-weight="bold" font-size="11.00" fill="#000000">campaigns</text>
<text text-anchor="start" x="69.5219" y="-810.1642" font-family="Helvetica,sans-Serif" font-size="11.00" fill="#000000">[table]</text>
<polygon fill="none" stroke="#000000" points="8,-783.0642 8,-802.0642 104,-802.0642 104,-783.0642 8,-783.0642"/>
<text text-anchor="start" x="11" y="-789.1642" font-family="Helvetica,sans-Serif" font-size="11.00" fill="#000000">...</text>
<polygon fill="#ffffff" stroke="transparent" points="8,-764.0642 8,-783.0642 47,-783.0642 47,-764.0642 8,-764.0642"/>
<polygon fill="none" stroke="#000000" points="8,-764.0642 8,-783.0642 47,-783.0642 47,-764.0642 8,-764.0642"/>
<text text-anchor="start" x="11" y="-770.1642" font-family="Helvetica,sans-Serif" font-size="11.00" fill="#000000">&lt; 4</text>
<polygon fill="#ffffff" stroke="transparent" points="47,-764.0642 47,-783.0642 68,-783.0642 68,-764.0642 47,-764.0642"/>
<polygon fill="none" stroke="#000000" points="47,-764.0642 47,-783.0642 68,-783.0642 68,-764.0642 47,-764.0642"/>
<text text-anchor="start" x="58.8862" y="-770.1642" font-family="Helvetica,sans-Serif" font-size="11.00" fill="#000000"> &#160;</text>
<polygon fill="#ffffff" stroke="transparent" points="68,-764.0642 68,-783.0642 104,-783.0642 104,-764.0642 68,-764.0642"/>
<polygon fill="none" stroke="#000000" points="68,-764.0642 68,-783.0642 104,-783.0642 104,-764.0642 68,-764.0642"/>
<text text-anchor="start" x="79.2904" y="-770.1642" font-family="Helvetica,sans-Serif" font-size="11.00" fill="#000000">13 &gt;</text>
</a>
</g>
</g>
<!-- opportunities&#45;&gt;campaigns -->
<g id="edge35" class="edge">
<title>opportunities:w&#45;&gt;campaigns:e</title>
<path fill="none" stroke="#000000" d="M416.7622,-670.1337C295.9358,-671.3198 255.1859,-688.1088 145,-752.0642 122.9824,-764.844 129.4578,-792.0642 104,-792.0642"/>
<polygon fill="#000000" stroke="#000000" points="423.5001,-670.102 431.517,-673.6642 427.5,-670.0831 431.5,-670.0642 431.5,-670.0642 431.5,-670.0642 427.5,-670.0831 431.483,-666.4643 423.5001,-670.102 423.5001,-670.102"/>
<ellipse fill="none" stroke="#000000" cx="420.3001" cy="-670.1171" rx="3.2" ry="3.2"/>
</g>
<!-- jjwg_maps -->
<g id="node15" class="node">
<title>jjwg_maps</title>
<g id="a_node15"><a xlink:href="../../tables/jjwg_maps.html" xlink:title="jjwg_maps" target="_top">
<polygon fill="#ffffff" stroke="transparent" points="9,-873.5642 9,-934.5642 103,-934.5642 103,-873.5642 9,-873.5642"/>
<polygon fill="#f5f5f5" stroke="transparent" points="9,-911.0642 9,-934.0642 103,-934.0642 103,-911.0642 9,-911.0642"/>
<polygon fill="none" stroke="#000000" points="9,-911.0642 9,-934.0642 103,-934.0642 103,-911.0642 9,-911.0642"/>
<text text-anchor="start" x="13.5279" y="-920.1642" font-family="Helvetica,sans-Serif" font-weight="bold" font-size="11.00" fill="#000000">jjwg_maps</text>
<text text-anchor="start" x="68.5219" y="-919.1642" font-family="Helvetica,sans-Serif" font-size="11.00" fill="#000000">[table]</text>
<polygon fill="none" stroke="#000000" points="9,-892.0642 9,-911.0642 103,-911.0642 103,-892.0642 9,-892.0642"/>
<text text-anchor="start" x="12" y="-898.1642" font-family="Helvetica,sans-Serif" font-size="11.00" fill="#000000">...</text>
<polygon fill="#ffffff" stroke="transparent" points="9,-873.0642 9,-892.0642 47,-892.0642 47,-873.0642 9,-873.0642"/>
<polygon fill="none" stroke="#000000" points="9,-873.0642 9,-892.0642 47,-892.0642 47,-873.0642 9,-873.0642"/>
<text text-anchor="start" x="12" y="-879.1642" font-family="Helvetica,sans-Serif" font-size="11.00" fill="#000000">&lt; 3</text>
<polygon fill="#ffffff" stroke="transparent" points="47,-873.0642 47,-892.0642 67,-892.0642 67,-873.0642 47,-873.0642"/>
<polygon fill="none" stroke="#000000" points="47,-873.0642 47,-892.0642 67,-892.0642 67,-873.0642 47,-873.0642"/>
<text text-anchor="start" x="57.8862" y="-879.1642" font-family="Helvetica,sans-Serif" font-size="11.00" fill="#000000"> &#160;</text>
<polygon fill="#ffffff" stroke="transparent" points="67,-873.0642 67,-892.0642 103,-892.0642 103,-873.0642 67,-873.0642"/>
<polygon fill="none" stroke="#000000" points="67,-873.0642 67,-892.0642 103,-892.0642 103,-873.0642 67,-873.0642"/>
<text text-anchor="start" x="78.2904" y="-879.1642" font-family="Helvetica,sans-Serif" font-size="11.00" fill="#000000">12 &gt;</text>
</a>
</g>
</g>
<!-- opportunities&#45;&gt;jjwg_maps -->
<g id="edge37" class="edge">
<title>opportunities:w&#45;&gt;jjwg_maps:e</title>
<path fill="none" stroke="#000000" d="M421.0376,-800.0298C409.354,-794.7894 406.833,-780.9017 390,-776.0642 335.7513,-760.4741 317.5271,-761.4774 263,-776.0642 204.5268,-791.7067 190.134,-803.7315 145,-844.0642 121.5359,-865.0322 134.4678,-901.0642 103,-901.0642"/>
<polygon fill="#000000" stroke="#000000" points="431.4782,-797.985 429.9512,-805.838 428.3806,-805.5326 429.9077,-797.6796 431.4782,-797.985"/>
<polyline fill="none" stroke="#000000" points="431.5,-802.0642 427.5735,-801.3007 "/>
<ellipse fill="none" stroke="#000000" cx="424.4324" cy="-800.6899" rx="3.2" ry="3.2"/>
</g>
<!-- aos_contracts -->
<g id="node3" class="node">
<title>aos_contracts</title>
<g id="a_node3"><a xlink:href="../../tables/aos_contracts.html" xlink:title="aos_contracts" target="_top">
<polygon fill="#ffffff" stroke="transparent" points="661,-950.5642 661,-1011.5642 772,-1011.5642 772,-950.5642 661,-950.5642"/>
<polygon fill="#f5f5f5" stroke="transparent" points="661.5,-988.0642 661.5,-1011.0642 772.5,-1011.0642 772.5,-988.0642 661.5,-988.0642"/>
<polygon fill="none" stroke="#000000" points="661.5,-988.0642 661.5,-1011.0642 772.5,-1011.0642 772.5,-988.0642 661.5,-988.0642"/>
<text text-anchor="start" x="666.2675" y="-997.1642" font-family="Helvetica,sans-Serif" font-weight="bold" font-size="11.00" fill="#000000">aos_contracts</text>
<text text-anchor="start" x="738.0219" y="-996.1642" font-family="Helvetica,sans-Serif" font-size="11.00" fill="#000000">[table]</text>
<polygon fill="none" stroke="#000000" points="661.5,-969.0642 661.5,-988.0642 772.5,-988.0642 772.5,-969.0642 661.5,-969.0642"/>
<text text-anchor="start" x="664.5" y="-975.1642" font-family="Helvetica,sans-Serif" font-size="11.00" fill="#000000">...</text>
<polygon fill="#ffffff" stroke="transparent" points="661.5,-950.0642 661.5,-969.0642 707.5,-969.0642 707.5,-950.0642 661.5,-950.0642"/>
<polygon fill="none" stroke="#000000" points="661.5,-950.0642 661.5,-969.0642 707.5,-969.0642 707.5,-950.0642 661.5,-950.0642"/>
<text text-anchor="start" x="664.5" y="-956.1642" font-family="Helvetica,sans-Serif" font-size="11.00" fill="#000000">&lt; 6</text>
<polygon fill="#ffffff" stroke="transparent" points="707.5,-950.0642 707.5,-969.0642 732.5,-969.0642 732.5,-950.0642 707.5,-950.0642"/>
<polygon fill="none" stroke="#000000" points="707.5,-950.0642 707.5,-969.0642 732.5,-969.0642 732.5,-950.0642 707.5,-950.0642"/>
<text text-anchor="start" x="723.3862" y="-956.1642" font-family="Helvetica,sans-Serif" font-size="11.00" fill="#000000"> &#160;</text>
<polygon fill="#ffffff" stroke="transparent" points="732.5,-950.0642 732.5,-969.0642 772.5,-969.0642 772.5,-950.0642 732.5,-950.0642"/>
<polygon fill="none" stroke="#000000" points="732.5,-950.0642 732.5,-969.0642 772.5,-969.0642 772.5,-950.0642 732.5,-950.0642"/>
<text text-anchor="start" x="747.7904" y="-956.1642" font-family="Helvetica,sans-Serif" font-size="11.00" fill="#000000">11 &gt;</text>
</a>
</g>
</g>
<!-- aos_contracts&#45;&gt;opportunities -->
<g id="edge2" class="edge">
<title>aos_contracts:w&#45;&gt;opportunities:e</title>
<path fill="none" stroke="#000000" d="M648.3063,-972.2084C615.7987,-941.6697 607.8973,-802.0642 568.5,-802.0642"/>
<polygon fill="#000000" stroke="#000000" points="654.1879,-974.8188 660.0396,-981.3547 657.8439,-976.4415 661.5,-978.0642 661.5,-978.0642 661.5,-978.0642 657.8439,-976.4415 662.9604,-974.7737 654.1879,-974.8188 654.1879,-974.8188"/>
<ellipse fill="none" stroke="#000000" cx="651.263" cy="-973.5206" rx="3.2" ry="3.2"/>
</g>
<!-- aos_quotes -->
<g id="node4" class="node">
<title>aos_quotes</title>
<g id="a_node4"><a xlink:href="../../tables/aos_quotes.html" xlink:title="aos_quotes" target="_top">
<polygon fill="#ffffff" stroke="transparent" points="1006.5,-349.5642 1006.5,-410.5642 1105.5,-410.5642 1105.5,-349.5642 1006.5,-349.5642"/>
<polygon fill="#f5f5f5" stroke="transparent" points="1007,-387.0642 1007,-410.0642 1106,-410.0642 1106,-387.0642 1007,-387.0642"/>
<polygon fill="none" stroke="#000000" points="1007,-387.0642 1007,-410.0642 1106,-410.0642 1106,-387.0642 1007,-387.0642"/>
<text text-anchor="start" x="1011.5694" y="-396.1642" font-family="Helvetica,sans-Serif" font-weight="bold" font-size="11.00" fill="#000000">aos_quotes</text>
<text text-anchor="start" x="1071.5219" y="-395.1642" font-family="Helvetica,sans-Serif" font-size="11.00" fill="#000000">[table]</text>
<polygon fill="none" stroke="#000000" points="1007,-368.0642 1007,-387.0642 1106,-387.0642 1106,-368.0642 1007,-368.0642"/>
<text text-anchor="start" x="1010" y="-374.1642" font-family="Helvetica,sans-Serif" font-size="11.00" fill="#000000">...</text>
<polygon fill="#ffffff" stroke="transparent" points="1007,-349.0642 1007,-368.0642 1050,-368.0642 1050,-349.0642 1007,-349.0642"/>
<polygon fill="none" stroke="#000000" points="1007,-349.0642 1007,-368.0642 1050,-368.0642 1050,-349.0642 1007,-349.0642"/>
<text text-anchor="start" x="1010" y="-355.1642" font-family="Helvetica,sans-Serif" font-size="11.00" fill="#000000">&lt; 6</text>
<polygon fill="#ffffff" stroke="transparent" points="1050,-349.0642 1050,-368.0642 1073,-368.0642 1073,-349.0642 1050,-349.0642"/>
<polygon fill="none" stroke="#000000" points="1050,-349.0642 1050,-368.0642 1073,-368.0642 1073,-349.0642 1050,-349.0642"/>
<text text-anchor="start" x="1063.8862" y="-355.1642" font-family="Helvetica,sans-Serif" font-size="11.00" fill="#000000"> &#160;</text>
<polygon fill="#ffffff" stroke="transparent" points="1073,-349.0642 1073,-368.0642 1106,-368.0642 1106,-349.0642 1073,-349.0642"/>
<polygon fill="none" stroke="#000000" points="1073,-349.0642 1073,-368.0642 1106,-368.0642 1106,-349.0642 1073,-349.0642"/>
<text text-anchor="start" x="1087.4053" y="-355.1642" font-family="Helvetica,sans-Serif" font-size="11.00" fill="#000000">7 &gt;</text>
</a>
</g>
</g>
<!-- aos_quotes&#45;&gt;opportunities -->
<g id="edge3" class="edge">
<title>aos_quotes:w&#45;&gt;opportunities:e</title>
<path fill="none" stroke="#000000" d="M992.5348,-378.2724C921.3687,-385.0165 616.013,-417.9594 609,-425.0642 549.808,-485.0311 652.7598,-802.0642 568.5,-802.0642"/>
<polygon fill="#000000" stroke="#000000" points="999.0278,-377.7301 1007.2997,-380.6517 1003.0139,-377.3972 1007,-377.0642 1007,-377.0642 1007,-377.0642 1003.0139,-377.3972 1006.7003,-373.4767 999.0278,-377.7301 999.0278,-377.7301"/>
<ellipse fill="none" stroke="#000000" cx="995.8389" cy="-377.9965" rx="3.2" ry="3.2"/>
</g>
<!-- calls -->
<g id="node5" class="node">
<title>calls</title>
<g id="a_node5"><a xlink:href="../../tables/calls.html" xlink:title="calls" target="_top">
<polygon fill="#ffffff" stroke="transparent" points="876.5,-730.5642 876.5,-791.5642 940.5,-791.5642 940.5,-730.5642 876.5,-730.5642"/>
<polygon fill="#f5f5f5" stroke="transparent" points="876.5,-768.0642 876.5,-791.0642 940.5,-791.0642 940.5,-768.0642 876.5,-768.0642"/>
<polygon fill="none" stroke="#000000" points="876.5,-768.0642 876.5,-791.0642 940.5,-791.0642 940.5,-768.0642 876.5,-768.0642"/>
<text text-anchor="start" x="881.0017" y="-777.1642" font-family="Helvetica,sans-Serif" font-weight="bold" font-size="11.00" fill="#000000">calls</text>
<text text-anchor="start" x="906.0219" y="-776.1642" font-family="Helvetica,sans-Serif" font-size="11.00" fill="#000000">[table]</text>
<polygon fill="none" stroke="#000000" points="876.5,-749.0642 876.5,-768.0642 940.5,-768.0642 940.5,-749.0642 876.5,-749.0642"/>
<text text-anchor="start" x="879.5" y="-755.1642" font-family="Helvetica,sans-Serif" font-size="11.00" fill="#000000">...</text>
<polygon fill="#ffffff" stroke="transparent" points="876.5,-730.0642 876.5,-749.0642 905.5,-749.0642 905.5,-730.0642 876.5,-730.0642"/>
<polygon fill="none" stroke="#000000" points="876.5,-730.0642 876.5,-749.0642 905.5,-749.0642 905.5,-730.0642 876.5,-730.0642"/>
<text text-anchor="start" x="879.5" y="-736.1642" font-family="Helvetica,sans-Serif" font-size="11.00" fill="#000000">&lt; 12</text>
<polygon fill="#ffffff" stroke="transparent" points="905.5,-730.0642 905.5,-749.0642 918.5,-749.0642 918.5,-730.0642 905.5,-730.0642"/>
<polygon fill="none" stroke="#000000" points="905.5,-730.0642 905.5,-749.0642 918.5,-749.0642 918.5,-730.0642 905.5,-730.0642"/>
<text text-anchor="start" x="909.3862" y="-736.1642" font-family="Helvetica,sans-Serif" font-size="11.00" fill="#000000"> &#160;</text>
<polygon fill="#ffffff" stroke="transparent" points="918.5,-730.0642 918.5,-749.0642 940.5,-749.0642 940.5,-730.0642 918.5,-730.0642"/>
<polygon fill="none" stroke="#000000" points="918.5,-730.0642 918.5,-749.0642 940.5,-749.0642 940.5,-730.0642 918.5,-730.0642"/>
<text text-anchor="start" x="921.9053" y="-736.1642" font-family="Helvetica,sans-Serif" font-size="11.00" fill="#000000">6 &gt;</text>
</a>
</g>
</g>
<!-- calls&#45;&gt;opportunities -->
<g id="edge6" class="edge">
<title>calls:w&#45;&gt;opportunities:e</title>
<path fill="none" stroke="#000000" d="M862.0264,-760.0155C848.915,-763.9626 842.5306,-772.8739 824,-777.0642 712.712,-802.2297 682.5979,-802.0642 568.5,-802.0642"/>
<polygon fill="#000000" stroke="#000000" points="868.5717,-759.1331 876.981,-761.6319 872.5359,-758.5987 876.5,-758.0642 876.5,-758.0642 876.5,-758.0642 872.5359,-758.5987 876.019,-754.4965 868.5717,-759.1331 868.5717,-759.1331"/>
<ellipse fill="none" stroke="#000000" cx="865.4004" cy="-759.5607" rx="3.2" ry="3.2"/>
</g>
<!-- calls&#45;&gt;aos_contracts -->
<g id="edge4" class="edge">
<title>calls:w&#45;&gt;aos_contracts:e</title>
<path fill="none" stroke="#000000" d="M861.9265,-759.647C778.9872,-779.4326 875.2661,-978.0642 772.5,-978.0642"/>
<polygon fill="#000000" stroke="#000000" points="868.5468,-758.928 876.8887,-761.6432 872.5234,-758.4961 876.5,-758.0642 876.5,-758.0642 876.5,-758.0642 872.5234,-758.4961 876.1113,-754.4853 868.5468,-758.928 868.5468,-758.928"/>
<ellipse fill="none" stroke="#000000" cx="865.3655" cy="-759.2736" rx="3.2" ry="3.2"/>
</g>
<!-- leads -->
<g id="node6" class="node">
<title>leads</title>
<g id="a_node6"><a xlink:href="../../tables/leads.html" xlink:title="leads" target="_top">
<polygon fill="#ffffff" stroke="transparent" points="153,-854.5642 153,-915.5642 222,-915.5642 222,-854.5642 153,-854.5642"/>
<polygon fill="#f5f5f5" stroke="transparent" points="153.5,-892.0642 153.5,-915.0642 222.5,-915.0642 222.5,-892.0642 153.5,-892.0642"/>
<polygon fill="none" stroke="#000000" points="153.5,-892.0642 153.5,-915.0642 222.5,-915.0642 222.5,-892.0642 153.5,-892.0642"/>
<text text-anchor="start" x="158.3572" y="-901.1642" font-family="Helvetica,sans-Serif" font-weight="bold" font-size="11.00" fill="#000000">leads</text>
<text text-anchor="start" x="188.0219" y="-900.1642" font-family="Helvetica,sans-Serif" font-size="11.00" fill="#000000">[table]</text>
<polygon fill="none" stroke="#000000" points="153.5,-873.0642 153.5,-892.0642 222.5,-892.0642 222.5,-873.0642 153.5,-873.0642"/>
<text text-anchor="start" x="156.5" y="-879.1642" font-family="Helvetica,sans-Serif" font-size="11.00" fill="#000000">...</text>
<polygon fill="#ffffff" stroke="transparent" points="153.5,-854.0642 153.5,-873.0642 181.5,-873.0642 181.5,-854.0642 153.5,-854.0642"/>
<polygon fill="none" stroke="#000000" points="153.5,-854.0642 153.5,-873.0642 181.5,-873.0642 181.5,-854.0642 153.5,-854.0642"/>
<text text-anchor="start" x="156.5" y="-860.1642" font-family="Helvetica,sans-Serif" font-size="11.00" fill="#000000">&lt; 10</text>
<polygon fill="#ffffff" stroke="transparent" points="181.5,-854.0642 181.5,-873.0642 194.5,-873.0642 194.5,-854.0642 181.5,-854.0642"/>
<polygon fill="none" stroke="#000000" points="181.5,-854.0642 181.5,-873.0642 194.5,-873.0642 194.5,-854.0642 181.5,-854.0642"/>
<text text-anchor="start" x="185.3862" y="-860.1642" font-family="Helvetica,sans-Serif" font-size="11.00" fill="#000000"> &#160;</text>
<polygon fill="#ffffff" stroke="transparent" points="194.5,-854.0642 194.5,-873.0642 222.5,-873.0642 222.5,-854.0642 194.5,-854.0642"/>
<polygon fill="none" stroke="#000000" points="194.5,-854.0642 194.5,-873.0642 222.5,-873.0642 222.5,-854.0642 194.5,-854.0642"/>
<text text-anchor="start" x="197.7904" y="-860.1642" font-family="Helvetica,sans-Serif" font-size="11.00" fill="#000000">17 &gt;</text>
</a>
</g>
</g>
<!-- calls&#45;&gt;leads -->
<g id="edge5" class="edge">
<title>calls:w&#45;&gt;leads:e</title>
<path fill="none" stroke="#000000" d="M863.8943,-750.4409C813.1219,-680.5755 873.7941,-153.0044 824,-107.0642 788.8844,-74.6665 649.8128,-82.2241 609,-107.0642 323.0532,-281.1019 399.842,-470.5663 263,-776.0642 242.3834,-822.0904 272.9327,-882.0642 222.5,-882.0642"/>
<polygon fill="#000000" stroke="#000000" points="869.6544,-753.9243 874.6371,-761.1447 873.0772,-755.9943 876.5,-758.0642 876.5,-758.0642 876.5,-758.0642 873.0772,-755.9943 878.3629,-754.9837 869.6544,-753.9243 869.6544,-753.9243"/>
<ellipse fill="none" stroke="#000000" cx="866.9162" cy="-752.2684" rx="3.2" ry="3.2"/>
</g>
<!-- leads&#45;&gt;opportunities -->
<g id="edge23" class="edge">
<title>leads:w&#45;&gt;opportunities:e</title>
<path fill="none" stroke="#000000" d="M166.8253,-876.5773C188.743,-867.5524 230,-850.5642 230,-850.5642 244.9469,-852.2413 248.0531,-856.3871 263,-858.0642 330.5761,-865.6466 522.8226,-890.9388 568.5,-840.5642 579.994,-827.8883 585.6111,-802.0642 568.5,-802.0642"/>
<polygon fill="#000000" stroke="#000000" points="160.8974,-879.0182 152.1293,-878.7354 157.1987,-880.5412 153.5,-882.0642 153.5,-882.0642 153.5,-882.0642 157.1987,-880.5412 154.8707,-885.3931 160.8974,-879.0182 160.8974,-879.0182"/>
<ellipse fill="none" stroke="#000000" cx="163.8564" cy="-877.7998" rx="3.2" ry="3.2"/>
</g>
<!-- leads&#45;&gt;campaign_log -->
<g id="edge21" class="edge">
<title>leads:w&#45;&gt;campaign_log:e</title>
<path fill="none" stroke="#000000" d="M145.4274,-875.25C144.6175,-868.4736 148.9483,-858.0371 153.5,-850.5642 173.4052,-817.8843 198.3002,-832.496 230,-811.0642 246.0544,-800.2101 244.8371,-789.3217 263,-782.5642 263,-782.5642 382.5,-814.0642 382.5,-814.0642"/>
<polygon fill="#000000" stroke="#000000" points="155.4688,-878.4916 150.3085,-884.6048 149.0859,-883.5728 154.2462,-877.4595 155.4688,-878.4916"/>
<polyline fill="none" stroke="#000000" points="153.5,-882.0642 150.4434,-879.4841 "/>
<ellipse fill="none" stroke="#000000" cx="147.9981" cy="-877.42" rx="3.2" ry="3.2"/>
</g>
<!-- leads&#45;&gt;campaigns -->
<g id="edge20" class="edge">
<title>leads:w&#45;&gt;campaigns:e</title>
<path fill="none" stroke="#000000" d="M139.529,-877.7233C117.4101,-859.7455 143.5878,-792.0642 104,-792.0642"/>
<polygon fill="#000000" stroke="#000000" points="145.8603,-879.6905 152.4318,-885.5021 149.6801,-880.8773 153.5,-882.0642 153.5,-882.0642 153.5,-882.0642 149.6801,-880.8773 154.5682,-878.6263 145.8603,-879.6905 145.8603,-879.6905"/>
<ellipse fill="none" stroke="#000000" cx="142.8044" cy="-878.741" rx="3.2" ry="3.2"/>
</g>
<!-- leads&#45;&gt;jjwg_maps -->
<g id="edge22" class="edge">
<title>leads:w&#45;&gt;jjwg_maps:e</title>
<path fill="none" stroke="#000000" d="M142.8175,-883.5551C128.0133,-888.0342 122.8588,-901.0642 103,-901.0642"/>
<polygon fill="#000000" stroke="#000000" points="152.1547,-878.2132 153.2606,-886.1364 151.676,-886.3576 150.5701,-878.4344 152.1547,-878.2132"/>
<polyline fill="none" stroke="#000000" points="153.5,-882.0642 149.5384,-882.6171 "/>
<ellipse fill="none" stroke="#000000" cx="146.3691" cy="-883.0595" rx="3.2" ry="3.2"/>
</g>
<!-- campaign_log&#45;&gt;leads -->
<g id="edge8" class="edge">
<title>campaign_log:w&#45;&gt;leads:e</title>
<path fill="none" stroke="#000000" d="M257.6785,-818.9546C240.9277,-834.5464 253.6397,-882.0642 222.5,-882.0642"/>
<polygon fill="#000000" stroke="#000000" points="263.9582,-816.7327 272.7008,-817.458 267.7291,-815.3985 271.5,-814.0642 271.5,-814.0642 271.5,-814.0642 267.7291,-815.3985 270.2992,-810.6704 263.9582,-816.7327 263.9582,-816.7327"/>
<ellipse fill="none" stroke="#000000" cx="260.9414" cy="-817.8001" rx="3.2" ry="3.2"/>
</g>
<!-- campaign_log&#45;&gt;campaigns -->
<g id="edge7" class="edge">
<title>campaign_log:w&#45;&gt;campaigns:e</title>
<path fill="none" stroke="#000000" d="M256.8747,-813.7699C193.7766,-811.1592 173.9511,-792.0642 104,-792.0642"/>
<polygon fill="#000000" stroke="#000000" points="263.5016,-813.9032 271.4275,-817.6635 267.5008,-813.9837 271.5,-814.0642 271.5,-814.0642 271.5,-814.0642 267.5008,-813.9837 271.5725,-810.4649 263.5016,-813.9032 263.5016,-813.9032"/>
<ellipse fill="none" stroke="#000000" cx="260.3023" cy="-813.8388" rx="3.2" ry="3.2"/>
</g>
<!-- currencies -->
<g id="node9" class="node">
<title>currencies</title>
<g id="a_node9"><a xlink:href="../../tables/currencies.html" xlink:title="currencies" target="_top">
<polygon fill="#ffffff" stroke="transparent" points="617,-118.0642 617,-384.0642 816,-384.0642 816,-118.0642 617,-118.0642"/>
<polygon fill="#f5f5f5" stroke="transparent" points="619.5,-359.0642 619.5,-382.0642 814.5,-382.0642 814.5,-359.0642 619.5,-359.0642"/>
<polygon fill="none" stroke="#000000" points="619.5,-359.0642 619.5,-382.0642 814.5,-382.0642 814.5,-359.0642 619.5,-359.0642"/>
<text text-anchor="start" x="624.5" y="-368.1642" font-family="Helvetica,sans-Serif" font-weight="bold" font-size="11.00" fill="#000000">currencies</text>
<text text-anchor="start" x="779.5437" y="-367.1642" font-family="Helvetica,sans-Serif" font-size="11.00" fill="#000000">[table]</text>
<polygon fill="none" stroke="#000000" points="619.5,-337.0642 619.5,-359.0642 747.5,-359.0642 747.5,-337.0642 619.5,-337.0642"/>
<image xlink:href="../../images/primaryKeys.png" width="11px" height="12px" preserveAspectRatio="xMinYMin meet" x="624.5" y="-354.064"/>
<text text-anchor="start" x="639.5" y="-344.1642" font-family="Helvetica,sans-Serif" font-size="11.00" fill="#000000">id</text>
<polygon fill="none" stroke="#000000" points="747.5,-337.0642 747.5,-359.0642 814.5,-359.0642 814.5,-337.0642 747.5,-337.0642"/>
<text text-anchor="start" x="750.5" y="-344.7642" font-family="Helvetica,sans-Serif" font-size="11.00" fill="#000000">char[36]</text>
<polygon fill="#ffffff" stroke="transparent" points="619.5,-315.0642 619.5,-337.0642 747.5,-337.0642 747.5,-315.0642 619.5,-315.0642"/>
<polygon fill="none" stroke="#000000" points="619.5,-315.0642 619.5,-337.0642 747.5,-337.0642 747.5,-315.0642 619.5,-315.0642"/>
<text text-anchor="start" x="639.5" y="-322.1642" font-family="Helvetica,sans-Serif" font-size="11.00" fill="#000000">name</text>
<polygon fill="none" stroke="#000000" points="747.5,-315.0642 747.5,-337.0642 814.5,-337.0642 814.5,-315.0642 747.5,-315.0642"/>
<text text-anchor="start" x="750.5" y="-322.7642" font-family="Helvetica,sans-Serif" font-size="11.00" fill="#000000">varchar[36]</text>
<polygon fill="none" stroke="#000000" points="619.5,-293.0642 619.5,-315.0642 747.5,-315.0642 747.5,-293.0642 619.5,-293.0642"/>
<text text-anchor="start" x="639.5" y="-300.1642" font-family="Helvetica,sans-Serif" font-size="11.00" fill="#000000">symbol</text>
<polygon fill="none" stroke="#000000" points="747.5,-293.0642 747.5,-315.0642 814.5,-315.0642 814.5,-293.0642 747.5,-293.0642"/>
<text text-anchor="start" x="750.5" y="-300.7642" font-family="Helvetica,sans-Serif" font-size="11.00" fill="#000000">varchar[36]</text>
<polygon fill="none" stroke="#000000" points="619.5,-271.0642 619.5,-293.0642 747.5,-293.0642 747.5,-271.0642 619.5,-271.0642"/>
<text text-anchor="start" x="639.5" y="-278.1642" font-family="Helvetica,sans-Serif" font-size="11.00" fill="#000000">iso4217</text>
<polygon fill="none" stroke="#000000" points="747.5,-271.0642 747.5,-293.0642 814.5,-293.0642 814.5,-271.0642 747.5,-271.0642"/>
<text text-anchor="start" x="750.5" y="-278.7642" font-family="Helvetica,sans-Serif" font-size="11.00" fill="#000000">varchar[3]</text>
<polygon fill="none" stroke="#000000" points="619.5,-249.0642 619.5,-271.0642 747.5,-271.0642 747.5,-249.0642 619.5,-249.0642"/>
<text text-anchor="start" x="639.5" y="-256.1642" font-family="Helvetica,sans-Serif" font-size="11.00" fill="#000000">conversion_rate</text>
<polygon fill="none" stroke="#000000" points="747.5,-249.0642 747.5,-271.0642 814.5,-271.0642 814.5,-249.0642 747.5,-249.0642"/>
<text text-anchor="start" x="750.5" y="-256.7642" font-family="Helvetica,sans-Serif" font-size="11.00" fill="#000000">double[22]</text>
<polygon fill="none" stroke="#000000" points="619.5,-227.0642 619.5,-249.0642 747.5,-249.0642 747.5,-227.0642 619.5,-227.0642"/>
<text text-anchor="start" x="639.5" y="-234.1642" font-family="Helvetica,sans-Serif" font-size="11.00" fill="#000000">status</text>
<polygon fill="none" stroke="#000000" points="747.5,-227.0642 747.5,-249.0642 814.5,-249.0642 814.5,-227.0642 747.5,-227.0642"/>
<text text-anchor="start" x="750.4365" y="-234.7642" font-family="Helvetica,sans-Serif" font-size="11.00" fill="#000000">varchar[100]</text>
<polygon fill="#ffffff" stroke="transparent" points="619.5,-205.0642 619.5,-227.0642 747.5,-227.0642 747.5,-205.0642 619.5,-205.0642"/>
<polygon fill="none" stroke="#000000" points="619.5,-205.0642 619.5,-227.0642 747.5,-227.0642 747.5,-205.0642 619.5,-205.0642"/>
<text text-anchor="start" x="639.5" y="-212.1642" font-family="Helvetica,sans-Serif" font-size="11.00" fill="#000000">deleted</text>
<polygon fill="none" stroke="#000000" points="747.5,-205.0642 747.5,-227.0642 814.5,-227.0642 814.5,-205.0642 747.5,-205.0642"/>
<text text-anchor="start" x="750.5" y="-212.7642" font-family="Helvetica,sans-Serif" font-size="11.00" fill="#000000">bit[1]</text>
<polygon fill="none" stroke="#000000" points="619.5,-183.0642 619.5,-205.0642 747.5,-205.0642 747.5,-183.0642 619.5,-183.0642"/>
<text text-anchor="start" x="639.5" y="-190.1642" font-family="Helvetica,sans-Serif" font-size="11.00" fill="#000000">date_entered</text>
<polygon fill="none" stroke="#000000" points="747.5,-183.0642 747.5,-205.0642 814.5,-205.0642 814.5,-183.0642 747.5,-183.0642"/>
<text text-anchor="start" x="750.5" y="-190.7642" font-family="Helvetica,sans-Serif" font-size="11.00" fill="#000000">datetime[26]</text>
<polygon fill="none" stroke="#000000" points="619.5,-161.0642 619.5,-183.0642 747.5,-183.0642 747.5,-161.0642 619.5,-161.0642"/>
<text text-anchor="start" x="639.5" y="-168.1642" font-family="Helvetica,sans-Serif" font-size="11.00" fill="#000000">date_modified</text>
<polygon fill="none" stroke="#000000" points="747.5,-161.0642 747.5,-183.0642 814.5,-183.0642 814.5,-161.0642 747.5,-161.0642"/>
<text text-anchor="start" x="750.5" y="-168.7642" font-family="Helvetica,sans-Serif" font-size="11.00" fill="#000000">datetime[26]</text>
<polygon fill="none" stroke="#000000" points="619.5,-139.0642 619.5,-161.0642 747.5,-161.0642 747.5,-139.0642 619.5,-139.0642"/>
<text text-anchor="start" x="639.5" y="-146.1642" font-family="Helvetica,sans-Serif" font-size="11.00" fill="#000000">created_by</text>
<polygon fill="none" stroke="#000000" points="747.5,-139.0642 747.5,-161.0642 814.5,-161.0642 814.5,-139.0642 747.5,-139.0642"/>
<text text-anchor="start" x="750.5" y="-146.7642" font-family="Helvetica,sans-Serif" font-size="11.00" fill="#000000">char[36]</text>
<polygon fill="#ffffff" stroke="transparent" points="619.5,-120.0642 619.5,-139.0642 687.5,-139.0642 687.5,-120.0642 619.5,-120.0642"/>
<polygon fill="none" stroke="#000000" points="619.5,-120.0642 619.5,-139.0642 687.5,-139.0642 687.5,-120.0642 619.5,-120.0642"/>
<text text-anchor="start" x="622.5" y="-126.1642" font-family="Helvetica,sans-Serif" font-size="11.00" fill="#000000">&lt; 1</text>
<polygon fill="#ffffff" stroke="transparent" points="687.5,-120.0642 687.5,-139.0642 747.5,-139.0642 747.5,-120.0642 687.5,-120.0642"/>
<polygon fill="none" stroke="#000000" points="687.5,-120.0642 687.5,-139.0642 747.5,-139.0642 747.5,-120.0642 687.5,-120.0642"/>
<text text-anchor="start" x="738.3862" y="-126.1642" font-family="Helvetica,sans-Serif" font-size="11.00" fill="#000000"> &#160;</text>
<polygon fill="#ffffff" stroke="transparent" points="747.5,-120.0642 747.5,-139.0642 814.5,-139.0642 814.5,-120.0642 747.5,-120.0642"/>
<polygon fill="none" stroke="#000000" points="747.5,-120.0642 747.5,-139.0642 814.5,-139.0642 814.5,-120.0642 747.5,-120.0642"/>
<text text-anchor="start" x="795.9053" y="-126.1642" font-family="Helvetica,sans-Serif" font-size="11.00" fill="#000000">0 &gt;</text>
<polygon fill="none" stroke="#000000" stroke-width="2" points="618,-119.0642 618,-383.0642 815,-383.0642 815,-119.0642 618,-119.0642"/>
</a>
</g>
</g>
<!-- currencies&#45;&gt;opportunities -->
<g id="edge9" class="edge">
<title>currencies:w&#45;&gt;opportunities:e</title>
<path fill="none" stroke="#000000" d="M609.4158,-350.8425C560.9332,-381.0861 632.2929,-648.0642 568.5,-648.0642"/>
<polygon fill="#000000" stroke="#000000" points="617.6662,-344.4204 619.7912,-352.133 618.2487,-352.558 616.1237,-344.8454 617.6662,-344.4204"/>
<polyline fill="none" stroke="#000000" points="619.5,-348.0642 615.6437,-349.1267 "/>
<ellipse fill="none" stroke="#000000" cx="612.5586" cy="-349.9767" rx="3.2" ry="3.2"/>
</g>
<!-- documents_opportunities -->
<g id="node10" class="node">
<title>documents_opportunities</title>
<g id="a_node10"><a xlink:href="../../tables/documents_opportunities.html" xlink:title="documents_opportunities" target="_top">
<polygon fill="#ffffff" stroke="transparent" points="634,-705.5642 634,-766.5642 799,-766.5642 799,-705.5642 634,-705.5642"/>
<polygon fill="#f5f5f5" stroke="transparent" points="634.5,-743.0642 634.5,-766.0642 799.5,-766.0642 799.5,-743.0642 634.5,-743.0642"/>
<polygon fill="none" stroke="#000000" points="634.5,-743.0642 634.5,-766.0642 799.5,-766.0642 799.5,-743.0642 634.5,-743.0642"/>
<text text-anchor="start" x="639.065" y="-752.1642" font-family="Helvetica,sans-Serif" font-weight="bold" font-size="11.00" fill="#000000">documents_opportunities</text>
<text text-anchor="start" x="765.0219" y="-751.1642" font-family="Helvetica,sans-Serif" font-size="11.00" fill="#000000">[table]</text>
<polygon fill="none" stroke="#000000" points="634.5,-724.0642 634.5,-743.0642 799.5,-743.0642 799.5,-724.0642 634.5,-724.0642"/>
<text text-anchor="start" x="637.5" y="-730.1642" font-family="Helvetica,sans-Serif" font-size="11.00" fill="#000000">...</text>
<polygon fill="#ffffff" stroke="transparent" points="634.5,-705.0642 634.5,-724.0642 715.5,-724.0642 715.5,-705.0642 634.5,-705.0642"/>
<polygon fill="none" stroke="#000000" points="634.5,-705.0642 634.5,-724.0642 715.5,-724.0642 715.5,-705.0642 634.5,-705.0642"/>
<text text-anchor="start" x="637.5" y="-711.1642" font-family="Helvetica,sans-Serif" font-size="11.00" fill="#000000">&lt; 2</text>
<polygon fill="#ffffff" stroke="transparent" points="715.5,-705.0642 715.5,-724.0642 757.5,-724.0642 757.5,-705.0642 715.5,-705.0642"/>
<polygon fill="none" stroke="#000000" points="715.5,-705.0642 715.5,-724.0642 757.5,-724.0642 757.5,-705.0642 715.5,-705.0642"/>
<text text-anchor="start" x="748.3862" y="-711.1642" font-family="Helvetica,sans-Serif" font-size="11.00" fill="#000000"> &#160;</text>
<polygon fill="#ffffff" stroke="transparent" points="757.5,-705.0642 757.5,-724.0642 799.5,-724.0642 799.5,-705.0642 757.5,-705.0642"/>
<polygon fill="none" stroke="#000000" points="757.5,-705.0642 757.5,-724.0642 799.5,-724.0642 799.5,-705.0642 757.5,-705.0642"/>
<text text-anchor="start" x="790.3862" y="-711.1642" font-family="Helvetica,sans-Serif" font-size="11.00" fill="#000000"> &#160;</text>
</a>
</g>
</g>
<!-- documents_opportunities&#45;&gt;opportunities -->
<g id="edge10" class="edge">
<title>documents_opportunities:w&#45;&gt;opportunities:e</title>
<path fill="none" stroke="#000000" d="M620.2189,-736.5808C596.0779,-750.6417 605.135,-802.0642 568.5,-802.0642"/>
<polygon fill="#000000" stroke="#000000" points="626.732,-734.977 635.3608,-736.5598 630.616,-734.0206 634.5,-733.0642 634.5,-733.0642 634.5,-733.0642 630.616,-734.0206 633.6392,-729.5686 626.732,-734.977 626.732,-734.977"/>
<ellipse fill="none" stroke="#000000" cx="623.6249" cy="-735.7422" rx="3.2" ry="3.2"/>
</g>
<!-- emails -->
<g id="node11" class="node">
<title>emails</title>
<g id="a_node11"><a xlink:href="../../tables/emails.html" xlink:title="emails" target="_top">
<polygon fill="#ffffff" stroke="transparent" points="871.5,-840.5642 871.5,-901.5642 945.5,-901.5642 945.5,-840.5642 871.5,-840.5642"/>
<polygon fill="#f5f5f5" stroke="transparent" points="871.5,-878.0642 871.5,-901.0642 945.5,-901.0642 945.5,-878.0642 871.5,-878.0642"/>
<polygon fill="none" stroke="#000000" points="871.5,-878.0642 871.5,-901.0642 945.5,-901.0642 945.5,-878.0642 871.5,-878.0642"/>
<text text-anchor="start" x="876.1133" y="-887.1642" font-family="Helvetica,sans-Serif" font-weight="bold" font-size="11.00" fill="#000000">emails</text>
<text text-anchor="start" x="911.0219" y="-886.1642" font-family="Helvetica,sans-Serif" font-size="11.00" fill="#000000">[table]</text>
<polygon fill="none" stroke="#000000" points="871.5,-859.0642 871.5,-878.0642 945.5,-878.0642 945.5,-859.0642 871.5,-859.0642"/>
<text text-anchor="start" x="874.5" y="-865.1642" font-family="Helvetica,sans-Serif" font-size="11.00" fill="#000000">...</text>
<polygon fill="#ffffff" stroke="transparent" points="871.5,-840.0642 871.5,-859.0642 905.5,-859.0642 905.5,-840.0642 871.5,-840.0642"/>
<polygon fill="none" stroke="#000000" points="871.5,-840.0642 871.5,-859.0642 905.5,-859.0642 905.5,-840.0642 871.5,-840.0642"/>
<text text-anchor="start" x="874.5" y="-846.1642" font-family="Helvetica,sans-Serif" font-size="11.00" fill="#000000">&lt; 12</text>
<polygon fill="#ffffff" stroke="transparent" points="905.5,-840.0642 905.5,-859.0642 920.5,-859.0642 920.5,-840.0642 905.5,-840.0642"/>
<polygon fill="none" stroke="#000000" points="905.5,-840.0642 905.5,-859.0642 920.5,-859.0642 920.5,-840.0642 905.5,-840.0642"/>
<text text-anchor="start" x="911.3862" y="-846.1642" font-family="Helvetica,sans-Serif" font-size="11.00" fill="#000000"> &#160;</text>
<polygon fill="#ffffff" stroke="transparent" points="920.5,-840.0642 920.5,-859.0642 945.5,-859.0642 945.5,-840.0642 920.5,-840.0642"/>
<polygon fill="none" stroke="#000000" points="920.5,-840.0642 920.5,-859.0642 945.5,-859.0642 945.5,-840.0642 920.5,-840.0642"/>
<text text-anchor="start" x="926.9053" y="-846.1642" font-family="Helvetica,sans-Serif" font-size="11.00" fill="#000000">3 &gt;</text>
</a>
</g>
</g>
<!-- emails&#45;&gt;opportunities -->
<g id="edge13" class="edge">
<title>emails:w&#45;&gt;opportunities:e</title>
<path fill="none" stroke="#000000" d="M856.9457,-866.2545C802.4465,-858.7448 614.984,-830.3232 609,-828.0642 588.9885,-820.5098 589.89,-802.0642 568.5,-802.0642"/>
<polygon fill="#000000" stroke="#000000" points="863.5611,-867.077 871.0558,-871.6367 867.5306,-867.5706 871.5,-868.0642 871.5,-868.0642 871.5,-868.0642 867.5306,-867.5706 871.9442,-864.4917 863.5611,-867.077 863.5611,-867.077"/>
<ellipse fill="none" stroke="#000000" cx="860.3856" cy="-866.6821" rx="3.2" ry="3.2"/>
</g>
<!-- emails&#45;&gt;leads -->
<g id="edge12" class="edge">
<title>emails:w&#45;&gt;leads:e</title>
<path fill="none" stroke="#000000" d="M857.2735,-870.5653C846.1847,-874.9527 840.5709,-883.873 824,-887.0642 730.1686,-905.1345 704.5536,-887.6823 609,-887.0642 437.2114,-885.9531 394.2922,-882.0642 222.5,-882.0642"/>
<polygon fill="#000000" stroke="#000000" points="863.6208,-869.4495 872.1234,-871.6098 867.5604,-868.7568 871.5,-868.0642 871.5,-868.0642 871.5,-868.0642 867.5604,-868.7568 870.8766,-864.5186 863.6208,-869.4495 863.6208,-869.4495"/>
<ellipse fill="none" stroke="#000000" cx="860.4692" cy="-870.0036" rx="3.2" ry="3.2"/>
</g>
<!-- emails&#45;&gt;campaign_log -->
<g id="edge11" class="edge">
<title>emails:w&#45;&gt;campaign_log:e</title>
<path fill="none" stroke="#000000" d="M860.8171,-868.1124C669.6474,-869.8412 606.0209,-917.0528 423,-847.0642 401.3129,-838.7709 405.7188,-814.0642 382.5,-814.0642"/>
<polygon fill="#000000" stroke="#000000" points="870.6819,-864.0679 870.7181,-872.0678 869.1181,-872.075 869.0819,-864.0751 870.6819,-864.0679"/>
<polyline fill="none" stroke="#000000" points="871.5,-868.0642 867.5,-868.0823 "/>
<ellipse fill="none" stroke="#000000" cx="864.3001" cy="-868.0968" rx="3.2" ry="3.2"/>
</g>
<!-- emails_beans -->
<g id="node12" class="node">
<title>emails_beans</title>
<g id="a_node12"><a xlink:href="../../tables/emails_beans.html" xlink:title="emails_beans" target="_top">
<polygon fill="#ffffff" stroke="transparent" points="1001,-1005.5642 1001,-1066.5642 1111,-1066.5642 1111,-1005.5642 1001,-1005.5642"/>
<polygon fill="#f5f5f5" stroke="transparent" points="1001,-1043.0642 1001,-1066.0642 1111,-1066.0642 1111,-1043.0642 1001,-1043.0642"/>
<polygon fill="none" stroke="#000000" points="1001,-1043.0642 1001,-1066.0642 1111,-1066.0642 1111,-1043.0642 1001,-1043.0642"/>
<text text-anchor="start" x="1005.576" y="-1052.1642" font-family="Helvetica,sans-Serif" font-weight="bold" font-size="11.00" fill="#000000">emails_beans</text>
<text text-anchor="start" x="1076.5219" y="-1051.1642" font-family="Helvetica,sans-Serif" font-size="11.00" fill="#000000">[table]</text>
<polygon fill="none" stroke="#000000" points="1001,-1024.0642 1001,-1043.0642 1111,-1043.0642 1111,-1024.0642 1001,-1024.0642"/>
<text text-anchor="start" x="1004" y="-1030.1642" font-family="Helvetica,sans-Serif" font-size="11.00" fill="#000000">...</text>
<polygon fill="#ffffff" stroke="transparent" points="1001,-1005.0642 1001,-1024.0642 1057,-1024.0642 1057,-1005.0642 1001,-1005.0642"/>
<polygon fill="none" stroke="#000000" points="1001,-1005.0642 1001,-1024.0642 1057,-1024.0642 1057,-1005.0642 1001,-1005.0642"/>
<text text-anchor="start" x="1004" y="-1011.1642" font-family="Helvetica,sans-Serif" font-size="11.00" fill="#000000">&lt; 14</text>
<polygon fill="#ffffff" stroke="transparent" points="1057,-1005.0642 1057,-1024.0642 1084,-1024.0642 1084,-1005.0642 1057,-1005.0642"/>
<polygon fill="none" stroke="#000000" points="1057,-1005.0642 1057,-1024.0642 1084,-1024.0642 1084,-1005.0642 1057,-1005.0642"/>
<text text-anchor="start" x="1074.8862" y="-1011.1642" font-family="Helvetica,sans-Serif" font-size="11.00" fill="#000000"> &#160;</text>
<polygon fill="#ffffff" stroke="transparent" points="1084,-1005.0642 1084,-1024.0642 1111,-1024.0642 1111,-1005.0642 1084,-1005.0642"/>
<polygon fill="none" stroke="#000000" points="1084,-1005.0642 1084,-1024.0642 1111,-1024.0642 1111,-1005.0642 1084,-1005.0642"/>
<text text-anchor="start" x="1101.8862" y="-1011.1642" font-family="Helvetica,sans-Serif" font-size="11.00" fill="#000000"> &#160;</text>
</a>
</g>
</g>
<!-- emails_beans&#45;&gt;opportunities -->
<g id="edge17" class="edge">
<title>emails_beans:w&#45;&gt;opportunities:e</title>
<path fill="none" stroke="#000000" d="M986.5573,-1033.3383C911.0252,-1035.4421 639.5688,-1048.254 609,-1022.0642 533.4994,-957.3792 667.9208,-802.0642 568.5,-802.0642"/>
<polygon fill="#000000" stroke="#000000" points="993.0014,-1033.2161 1001.0683,-1036.6636 997.0007,-1033.1401 1001,-1033.0642 1001,-1033.0642 1001,-1033.0642 997.0007,-1033.1401 1000.9317,-1029.4649 993.0014,-1033.2161 993.0014,-1033.2161"/>
<ellipse fill="none" stroke="#000000" cx="989.802" cy="-1033.2768" rx="3.2" ry="3.2"/>
</g>
<!-- emails_beans&#45;&gt;aos_contracts -->
<g id="edge14" class="edge">
<title>emails_beans:w&#45;&gt;aos_contracts:e</title>
<path fill="none" stroke="#000000" d="M986.6659,-1030.4114C937.5238,-1019.425 783.8229,-978.0642 772.5,-978.0642"/>
<polygon fill="#000000" stroke="#000000" points="993.1336,-1031.6084 1000.3449,-1036.6041 997.0668,-1032.3363 1001,-1033.0642 1001,-1033.0642 1001,-1033.0642 997.0668,-1032.3363 1001.6551,-1029.5243 993.1336,-1031.6084 993.1336,-1031.6084"/>
<ellipse fill="none" stroke="#000000" cx="989.987" cy="-1031.026" rx="3.2" ry="3.2"/>
</g>
<!-- emails_beans&#45;&gt;leads -->
<g id="edge15" class="edge">
<title>emails_beans:w&#45;&gt;leads:e</title>
<path fill="none" stroke="#000000" d="M986.4001,-1034.8683C933.0455,-1050.4647 1017.9592,-1163.094 960,-1212.0642 918.5987,-1247.0445 770.7005,-1226.0642 716.5,-1226.0642 716.5,-1226.0642 716.5,-1226.0642 499.5,-1226.0642 361.5551,-1226.0642 337.576,-1141.1125 263,-1025.0642 227.289,-969.4941 288.5553,-882.0642 222.5,-882.0642"/>
<polygon fill="#000000" stroke="#000000" points="993.0604,-1034.0453 1001.4415,-1036.637 997.0302,-1033.5548 1001,-1033.0642 1001,-1033.0642 1001,-1033.0642 997.0302,-1033.5548 1000.5585,-1029.4914 993.0604,-1034.0453 993.0604,-1034.0453"/>
<ellipse fill="none" stroke="#000000" cx="989.8845" cy="-1034.4378" rx="3.2" ry="3.2"/>
</g>
<!-- emails_beans&#45;&gt;emails -->
<g id="edge19" class="edge">
<title>emails_beans:w&#45;&gt;emails:e</title>
<path fill="none" stroke="#000000" d="M986.5471,-1030.4725C937.3876,-1009.4809 1017.1283,-868.0642 945.5,-868.0642"/>
<polygon fill="#000000" stroke="#000000" points="993.1256,-1031.6521 1000.3645,-1036.6077 997.0628,-1032.3582 1001,-1033.0642 1001,-1033.0642 1001,-1033.0642 997.0628,-1032.3582 1001.6355,-1029.5207 993.1256,-1031.6521 993.1256,-1031.6521"/>
<ellipse fill="none" stroke="#000000" cx="989.9758" cy="-1031.0873" rx="3.2" ry="3.2"/>
</g>
<!-- meetings -->
<g id="node13" class="node">
<title>meetings</title>
<g id="a_node13"><a xlink:href="../../tables/meetings.html" xlink:title="meetings" target="_top">
<polygon fill="#ffffff" stroke="transparent" points="865,-1140.5642 865,-1201.5642 952,-1201.5642 952,-1140.5642 865,-1140.5642"/>
<polygon fill="#f5f5f5" stroke="transparent" points="865.5,-1178.0642 865.5,-1201.0642 952.5,-1201.0642 952.5,-1178.0642 865.5,-1178.0642"/>
<polygon fill="none" stroke="#000000" points="865.5,-1178.0642 865.5,-1201.0642 952.5,-1201.0642 952.5,-1178.0642 865.5,-1178.0642"/>
<text text-anchor="start" x="870.1904" y="-1187.1642" font-family="Helvetica,sans-Serif" font-weight="bold" font-size="11.00" fill="#000000">meetings</text>
<text text-anchor="start" x="918.0219" y="-1186.1642" font-family="Helvetica,sans-Serif" font-size="11.00" fill="#000000">[table]</text>
<polygon fill="none" stroke="#000000" points="865.5,-1159.0642 865.5,-1178.0642 952.5,-1178.0642 952.5,-1159.0642 865.5,-1159.0642"/>
<text text-anchor="start" x="868.5" y="-1165.1642" font-family="Helvetica,sans-Serif" font-size="11.00" fill="#000000">...</text>
<polygon fill="#ffffff" stroke="transparent" points="865.5,-1140.0642 865.5,-1159.0642 905.5,-1159.0642 905.5,-1140.0642 865.5,-1140.0642"/>
<polygon fill="none" stroke="#000000" points="865.5,-1140.0642 865.5,-1159.0642 905.5,-1159.0642 905.5,-1140.0642 865.5,-1140.0642"/>
<text text-anchor="start" x="868.5" y="-1146.1642" font-family="Helvetica,sans-Serif" font-size="11.00" fill="#000000">&lt; 13</text>
<polygon fill="#ffffff" stroke="transparent" points="905.5,-1140.0642 905.5,-1159.0642 924.5,-1159.0642 924.5,-1140.0642 905.5,-1140.0642"/>
<polygon fill="none" stroke="#000000" points="905.5,-1140.0642 905.5,-1159.0642 924.5,-1159.0642 924.5,-1140.0642 905.5,-1140.0642"/>
<text text-anchor="start" x="915.3862" y="-1146.1642" font-family="Helvetica,sans-Serif" font-size="11.00" fill="#000000"> &#160;</text>
<polygon fill="#ffffff" stroke="transparent" points="924.5,-1140.0642 924.5,-1159.0642 952.5,-1159.0642 952.5,-1140.0642 924.5,-1140.0642"/>
<polygon fill="none" stroke="#000000" points="924.5,-1140.0642 924.5,-1159.0642 952.5,-1159.0642 952.5,-1140.0642 924.5,-1140.0642"/>
<text text-anchor="start" x="933.9053" y="-1146.1642" font-family="Helvetica,sans-Serif" font-size="11.00" fill="#000000">7 &gt;</text>
</a>
</g>
</g>
<!-- emails_beans&#45;&gt;meetings -->
<g id="edge16" class="edge">
<title>emails_beans:w&#45;&gt;meetings:e</title>
<path fill="none" stroke="#000000" d="M986.598,-1036.4013C950.8049,-1057.1902 1010.2776,-1168.0642 952.5,-1168.0642"/>
<polygon fill="#000000" stroke="#000000" points="993.2065,-1034.8701 1001.8126,-1036.5713 997.1032,-1033.9672 1001,-1033.0642 1001,-1033.0642 1001,-1033.0642 997.1032,-1033.9672 1000.1874,-1029.5571 993.2065,-1034.8701 993.2065,-1034.8701"/>
<ellipse fill="none" stroke="#000000" cx="990.0891" cy="-1035.5925" rx="3.2" ry="3.2"/>
</g>
<!-- tasks -->
<g id="node14" class="node">
<title>tasks</title>
<g id="a_node14"><a xlink:href="../../tables/tasks.html" xlink:title="tasks" target="_top">
<polygon fill="#ffffff" stroke="transparent" points="874.5,-1058.5642 874.5,-1119.5642 942.5,-1119.5642 942.5,-1058.5642 874.5,-1058.5642"/>
<polygon fill="#f5f5f5" stroke="transparent" points="874.5,-1096.0642 874.5,-1119.0642 942.5,-1119.0642 942.5,-1096.0642 874.5,-1096.0642"/>
<polygon fill="none" stroke="#000000" points="874.5,-1096.0642 874.5,-1119.0642 942.5,-1119.0642 942.5,-1096.0642 874.5,-1096.0642"/>
<text text-anchor="start" x="879.1641" y="-1105.1642" font-family="Helvetica,sans-Serif" font-weight="bold" font-size="11.00" fill="#000000">tasks</text>
<text text-anchor="start" x="908.0219" y="-1104.1642" font-family="Helvetica,sans-Serif" font-size="11.00" fill="#000000">[table]</text>
<polygon fill="none" stroke="#000000" points="874.5,-1077.0642 874.5,-1096.0642 942.5,-1096.0642 942.5,-1077.0642 874.5,-1077.0642"/>
<text text-anchor="start" x="877.5" y="-1083.1642" font-family="Helvetica,sans-Serif" font-size="11.00" fill="#000000">...</text>
<polygon fill="#ffffff" stroke="transparent" points="874.5,-1058.0642 874.5,-1077.0642 905.5,-1077.0642 905.5,-1058.0642 874.5,-1058.0642"/>
<polygon fill="none" stroke="#000000" points="874.5,-1058.0642 874.5,-1077.0642 905.5,-1077.0642 905.5,-1058.0642 874.5,-1058.0642"/>
<text text-anchor="start" x="877.5" y="-1064.1642" font-family="Helvetica,sans-Serif" font-size="11.00" fill="#000000">&lt; 14</text>
<polygon fill="#ffffff" stroke="transparent" points="905.5,-1058.0642 905.5,-1077.0642 919.5,-1077.0642 919.5,-1058.0642 905.5,-1058.0642"/>
<polygon fill="none" stroke="#000000" points="905.5,-1058.0642 905.5,-1077.0642 919.5,-1077.0642 919.5,-1058.0642 905.5,-1058.0642"/>
<text text-anchor="start" x="910.3862" y="-1064.1642" font-family="Helvetica,sans-Serif" font-size="11.00" fill="#000000"> &#160;</text>
<polygon fill="#ffffff" stroke="transparent" points="919.5,-1058.0642 919.5,-1077.0642 942.5,-1077.0642 942.5,-1058.0642 919.5,-1058.0642"/>
<polygon fill="none" stroke="#000000" points="919.5,-1058.0642 919.5,-1077.0642 942.5,-1077.0642 942.5,-1058.0642 919.5,-1058.0642"/>
<text text-anchor="start" x="923.9053" y="-1064.1642" font-family="Helvetica,sans-Serif" font-size="11.00" fill="#000000">3 &gt;</text>
</a>
</g>
</g>
<!-- emails_beans&#45;&gt;tasks -->
<g id="edge18" class="edge">
<title>emails_beans:w&#45;&gt;tasks:e</title>
<path fill="none" stroke="#000000" d="M987.0945,-1036.8758C968.4863,-1049.0283 971.8278,-1086.0642 942.5,-1086.0642"/>
<polygon fill="#000000" stroke="#000000" points="993.2846,-1035.1791 1001.9517,-1036.5361 997.1423,-1034.1217 1001,-1033.0642 1001,-1033.0642 1001,-1033.0642 997.1423,-1034.1217 1000.0483,-1029.5923 993.2846,-1035.1791 993.2846,-1035.1791"/>
<ellipse fill="none" stroke="#000000" cx="990.1984" cy="-1036.0251" rx="3.2" ry="3.2"/>
</g>
<!-- meetings&#45;&gt;opportunities -->
<g id="edge27" class="edge">
<title>meetings:w&#45;&gt;opportunities:e</title>
<path fill="none" stroke="#000000" d="M851.6127,-1164.0905C841.8043,-1157.0354 839.6677,-1142.2922 824,-1134.0642 735.9535,-1087.8259 674.5354,-1146.8658 609,-1072.0642 569.0187,-1026.4298 629.1712,-802.0642 568.5,-802.0642"/>
<polygon fill="#000000" stroke="#000000" points="857.8087,-1165.8634 864.5096,-1171.5253 861.6543,-1166.9638 865.5,-1168.0642 865.5,-1168.0642 865.5,-1168.0642 861.6543,-1166.9638 866.4904,-1164.6031 857.8087,-1165.8634 857.8087,-1165.8634"/>
<ellipse fill="none" stroke="#000000" cx="854.7321" cy="-1164.983" rx="3.2" ry="3.2"/>
</g>
<!-- meetings&#45;&gt;aos_contracts -->
<g id="edge25" class="edge">
<title>meetings:w&#45;&gt;aos_contracts:e</title>
<path fill="none" stroke="#000000" d="M851.0854,-1165.4605C827.1794,-1154.8195 840.3754,-1113.6109 824,-1080.0642 801.7229,-1034.4272 823.284,-978.0642 772.5,-978.0642"/>
<polygon fill="#000000" stroke="#000000" points="857.6274,-1166.6421 864.8601,-1171.6069 861.5637,-1167.3532 865.5,-1168.0642 865.5,-1168.0642 865.5,-1168.0642 861.5637,-1167.3532 866.1399,-1164.5215 857.6274,-1166.6421 857.6274,-1166.6421"/>
<ellipse fill="none" stroke="#000000" cx="854.4784" cy="-1166.0733" rx="3.2" ry="3.2"/>
</g>
<!-- meetings&#45;&gt;leads -->
<g id="edge26" class="edge">
<title>meetings:w&#45;&gt;leads:e</title>
<path fill="none" stroke="#000000" d="M850.7902,-1165.7959C773.8809,-1150.57 444.8609,-1063.6199 423,-1056.0642 349.4699,-1030.6503 316.8159,-1041.246 263,-985.0642 228.9738,-949.5421 271.6895,-882.0642 222.5,-882.0642"/>
<polygon fill="#000000" stroke="#000000" points="857.5935,-1166.8449 864.9513,-1171.6222 861.5467,-1167.4546 865.5,-1168.0642 865.5,-1168.0642 865.5,-1168.0642 861.5467,-1167.4546 866.0487,-1164.5063 857.5935,-1166.8449 857.5935,-1166.8449"/>
<ellipse fill="none" stroke="#000000" cx="854.4308" cy="-1166.3572" rx="3.2" ry="3.2"/>
</g>
<!-- meetings&#45;&gt;jjwg_maps -->
<g id="edge24" class="edge">
<title>meetings:w&#45;&gt;jjwg_maps:e</title>
<path fill="none" stroke="#000000" d="M854.7206,-1168.0687C700.94,-1168.1975 658.5184,-1171.0642 499.5,-1171.0642 499.5,-1171.0642 499.5,-1171.0642 326.5,-1171.0642 287.5552,-1171.0642 141.9448,-901.0642 103,-901.0642"/>
<polygon fill="#000000" stroke="#000000" points="864.6983,-1164.0646 864.7017,-1172.0646 863.1017,-1172.0652 863.0983,-1164.0652 864.6983,-1164.0646"/>
<polyline fill="none" stroke="#000000" points="865.5,-1168.0642 861.5,-1168.0659 "/>
<ellipse fill="none" stroke="#000000" cx="858.3" cy="-1168.0673" rx="3.2" ry="3.2"/>
</g>
<!-- tasks&#45;&gt;opportunities -->
<g id="edge53" class="edge">
<title>tasks:w&#45;&gt;opportunities:e</title>
<path fill="none" stroke="#000000" d="M860.0759,-1084.4223C805.1347,-1077.4711 613.6178,-1050.6135 609,-1046.0642 569.8451,-1007.4903 623.4641,-802.0642 568.5,-802.0642"/>
<polygon fill="#000000" stroke="#000000" points="866.5513,-1085.1593 874.0928,-1089.6411 870.5257,-1085.6118 874.5,-1086.0642 874.5,-1086.0642 874.5,-1086.0642 870.5257,-1085.6118 874.9072,-1082.4873 866.5513,-1085.1593 866.5513,-1085.1593"/>
<ellipse fill="none" stroke="#000000" cx="863.3719" cy="-1084.7974" rx="3.2" ry="3.2"/>
</g>
<!-- tasks&#45;&gt;aos_contracts -->
<g id="edge51" class="edge">
<title>tasks:w&#45;&gt;aos_contracts:e</title>
<path fill="none" stroke="#000000" d="M860.0854,-1084.0032C812.7596,-1069.0722 833.1076,-978.0642 772.5,-978.0642"/>
<polygon fill="#000000" stroke="#000000" points="866.5805,-1084.9318 873.9904,-1089.628 870.5403,-1085.498 874.5,-1086.0642 874.5,-1086.0642 874.5,-1086.0642 870.5403,-1085.498 875.0096,-1082.5005 866.5805,-1084.9318 866.5805,-1084.9318"/>
<ellipse fill="none" stroke="#000000" cx="863.4128" cy="-1084.4789" rx="3.2" ry="3.2"/>
</g>
<!-- tasks&#45;&gt;leads -->
<g id="edge52" class="edge">
<title>tasks:w&#45;&gt;leads:e</title>
<path fill="none" stroke="#000000" d="M860.0581,-1086.1192C753.5131,-1086.9284 719.6294,-1096.0604 609,-1072.0642 447.5244,-1037.0392 394.4469,-1036.1783 263,-936.0642 239.1339,-917.887 252.5,-882.0642 222.5,-882.0642"/>
<polygon fill="#000000" stroke="#000000" points="866.5001,-1086.0947 874.5137,-1089.6642 870.5,-1086.0795 874.5,-1086.0642 874.5,-1086.0642 874.5,-1086.0642 870.5,-1086.0795 874.4863,-1082.4642 866.5001,-1086.0947 866.5001,-1086.0947"/>
<ellipse fill="none" stroke="#000000" cx="863.3001" cy="-1086.1069" rx="3.2" ry="3.2"/>
</g>
<!-- notes -->
<g id="node16" class="node">
<title>notes</title>
<g id="a_node16"><a xlink:href="../../tables/notes.html" xlink:title="notes" target="_top">
<polygon fill="#ffffff" stroke="transparent" points="1021.5,-893.5642 1021.5,-954.5642 1090.5,-954.5642 1090.5,-893.5642 1021.5,-893.5642"/>
<polygon fill="#f5f5f5" stroke="transparent" points="1022,-931.0642 1022,-954.0642 1091,-954.0642 1091,-931.0642 1022,-931.0642"/>
<polygon fill="none" stroke="#000000" points="1022,-931.0642 1022,-954.0642 1091,-954.0642 1091,-931.0642 1022,-931.0642"/>
<text text-anchor="start" x="1026.5492" y="-940.1642" font-family="Helvetica,sans-Serif" font-weight="bold" font-size="11.00" fill="#000000">notes</text>
<text text-anchor="start" x="1056.5219" y="-939.1642" font-family="Helvetica,sans-Serif" font-size="11.00" fill="#000000">[table]</text>
<polygon fill="none" stroke="#000000" points="1022,-912.0642 1022,-931.0642 1091,-931.0642 1091,-912.0642 1022,-912.0642"/>
<text text-anchor="start" x="1025" y="-918.1642" font-family="Helvetica,sans-Serif" font-size="11.00" fill="#000000">...</text>
<polygon fill="#ffffff" stroke="transparent" points="1022,-893.0642 1022,-912.0642 1053,-912.0642 1053,-893.0642 1022,-893.0642"/>
<polygon fill="none" stroke="#000000" points="1022,-893.0642 1022,-912.0642 1053,-912.0642 1053,-893.0642 1022,-893.0642"/>
<text text-anchor="start" x="1025" y="-899.1642" font-family="Helvetica,sans-Serif" font-size="11.00" fill="#000000">&lt; 19</text>
<polygon fill="#ffffff" stroke="transparent" points="1053,-893.0642 1053,-912.0642 1067,-912.0642 1067,-893.0642 1053,-893.0642"/>
<polygon fill="none" stroke="#000000" points="1053,-893.0642 1053,-912.0642 1067,-912.0642 1067,-893.0642 1053,-893.0642"/>
<text text-anchor="start" x="1057.8862" y="-899.1642" font-family="Helvetica,sans-Serif" font-size="11.00" fill="#000000"> &#160;</text>
<polygon fill="#ffffff" stroke="transparent" points="1067,-893.0642 1067,-912.0642 1091,-912.0642 1091,-893.0642 1067,-893.0642"/>
<polygon fill="none" stroke="#000000" points="1067,-893.0642 1067,-912.0642 1091,-912.0642 1091,-893.0642 1067,-893.0642"/>
<text text-anchor="start" x="1072.4053" y="-899.1642" font-family="Helvetica,sans-Serif" font-size="11.00" fill="#000000">1 &gt;</text>
</a>
</g>
</g>
<!-- notes&#45;&gt;opportunities -->
<g id="edge33" class="edge">
<title>notes:w&#45;&gt;opportunities:e</title>
<path fill="none" stroke="#000000" d="M1007.7791,-918.4956C978.9561,-906.0353 997.4492,-851.6087 960,-830.0642 884.3963,-786.5695 655.7222,-802.0642 568.5,-802.0642"/>
<polygon fill="#000000" stroke="#000000" points="1014.1274,-919.6422 1021.3601,-924.6069 1018.0637,-920.3532 1022,-921.0642 1022,-921.0642 1022,-921.0642 1018.0637,-920.3532 1022.6399,-917.5215 1014.1274,-919.6422 1014.1274,-919.6422"/>
<ellipse fill="none" stroke="#000000" cx="1010.9783" cy="-919.0734" rx="3.2" ry="3.2"/>
</g>
<!-- notes&#45;&gt;aos_contracts -->
<g id="edge28" class="edge">
<title>notes:w&#45;&gt;aos_contracts:e</title>
<path fill="none" stroke="#000000" d="M1007.6148,-921.965C990.4678,-924.3296 982.2184,-930.8884 960,-936.0642 876.8285,-955.439 857.8984,-978.0642 772.5,-978.0642"/>
<polygon fill="#000000" stroke="#000000" points="1014.0156,-921.5642 1022.225,-924.6572 1018.0078,-921.3142 1022,-921.0642 1022,-921.0642 1022,-921.0642 1018.0078,-921.3142 1021.775,-917.4713 1014.0156,-921.5642 1014.0156,-921.5642"/>
<ellipse fill="none" stroke="#000000" cx="1010.8219" cy="-921.7642" rx="3.2" ry="3.2"/>
</g>
<!-- notes&#45;&gt;calls -->
<g id="edge29" class="edge">
<title>notes:w&#45;&gt;calls:e</title>
<path fill="none" stroke="#000000" d="M1007.5503,-918.8833C951.2546,-899.5408 1015.9586,-758.0642 940.5,-758.0642"/>
<polygon fill="#000000" stroke="#000000" points="1014.0896,-919.8702 1021.4627,-924.6239 1018.0448,-920.4672 1022,-921.0642 1022,-921.0642 1022,-921.0642 1018.0448,-920.4672 1022.5373,-917.5045 1014.0896,-919.8702 1014.0896,-919.8702"/>
<ellipse fill="none" stroke="#000000" cx="1010.9254" cy="-919.3926" rx="3.2" ry="3.2"/>
</g>
<!-- notes&#45;&gt;leads -->
<g id="edge31" class="edge">
<title>notes:w&#45;&gt;leads:e</title>
<path fill="none" stroke="#000000" d="M1007.2926,-921.0844C883.5471,-921.4284 847.2567,-926.0642 716.5,-926.0642 716.5,-926.0642 716.5,-926.0642 499.5,-926.0642 393.3082,-926.0642 367.2318,-912.3726 263,-892.0642 244.8016,-888.5185 241.0406,-882.0642 222.5,-882.0642"/>
<polygon fill="#000000" stroke="#000000" points="1014,-921.0752 1022.005,-924.6642 1018,-921.0697 1022,-921.0642 1022,-921.0642 1022,-921.0642 1018,-921.0697 1021.995,-917.4642 1014,-921.0752 1014,-921.0752"/>
<ellipse fill="none" stroke="#000000" cx="1010.8" cy="-921.0796" rx="3.2" ry="3.2"/>
</g>
<!-- notes&#45;&gt;emails -->
<g id="edge30" class="edge">
<title>notes:w&#45;&gt;emails:e</title>
<path fill="none" stroke="#000000" d="M1007.8148,-918.5079C981.4516,-907.921 981.3691,-868.0642 945.5,-868.0642"/>
<polygon fill="#000000" stroke="#000000" points="1014.1268,-919.6453 1021.3615,-924.6071 1018.0634,-920.3548 1022,-921.0642 1022,-921.0642 1022,-921.0642 1018.0634,-920.3548 1022.6385,-917.5213 1014.1268,-919.6453 1014.1268,-919.6453"/>
<ellipse fill="none" stroke="#000000" cx="1010.9775" cy="-919.0778" rx="3.2" ry="3.2"/>
</g>
<!-- notes&#45;&gt;meetings -->
<g id="edge32" class="edge">
<title>notes:w&#45;&gt;meetings:e</title>
<path fill="none" stroke="#000000" d="M1008.4735,-927.1699C972.4384,-965.2058 1004.1747,-1168.0642 952.5,-1168.0642"/>
<polygon fill="#000000" stroke="#000000" points="1014.7084,-924.3556 1023.4811,-924.3454 1018.3542,-922.7099 1022,-921.0642 1022,-921.0642 1022,-921.0642 1018.3542,-922.7099 1020.5189,-917.783 1014.7084,-924.3556 1014.7084,-924.3556"/>
<ellipse fill="none" stroke="#000000" cx="1011.7918" cy="-925.6721" rx="3.2" ry="3.2"/>
</g>
<!-- notes&#45;&gt;tasks -->
<g id="edge34" class="edge">
<title>notes:w&#45;&gt;tasks:e</title>
<path fill="none" stroke="#000000" d="M1007.5101,-923.2719C951.2178,-942.8518 1018.337,-1086.0642 942.5,-1086.0642"/>
<polygon fill="#000000" stroke="#000000" points="1014.0913,-922.2693 1022.5423,-924.6231 1018.0456,-921.6667 1022,-921.0642 1022,-921.0642 1022,-921.0642 1018.0456,-921.6667 1021.4577,-917.5053 1014.0913,-922.2693 1014.0913,-922.2693"/>
<ellipse fill="none" stroke="#000000" cx="1010.9278" cy="-922.7513" rx="3.2" ry="3.2"/>
</g>
<!-- opportunities_contacts -->
<g id="node17" class="node">
<title>opportunities_contacts</title>
<g id="a_node17"><a xlink:href="../../tables/opportunities_contacts.html" xlink:title="opportunities_contacts" target="_top">
<polygon fill="#ffffff" stroke="transparent" points="640,-623.5642 640,-684.5642 793,-684.5642 793,-623.5642 640,-623.5642"/>
<polygon fill="#f5f5f5" stroke="transparent" points="640.5,-661.0642 640.5,-684.0642 793.5,-684.0642 793.5,-661.0642 640.5,-661.0642"/>
<polygon fill="none" stroke="#000000" points="640.5,-661.0642 640.5,-684.0642 793.5,-684.0642 793.5,-661.0642 640.5,-661.0642"/>
<text text-anchor="start" x="645.4824" y="-670.1642" font-family="Helvetica,sans-Serif" font-weight="bold" font-size="11.00" fill="#000000">opportunities_contacts</text>
<text text-anchor="start" x="759.0219" y="-669.1642" font-family="Helvetica,sans-Serif" font-size="11.00" fill="#000000">[table]</text>
<polygon fill="none" stroke="#000000" points="640.5,-642.0642 640.5,-661.0642 793.5,-661.0642 793.5,-642.0642 640.5,-642.0642"/>
<text text-anchor="start" x="643.5" y="-648.1642" font-family="Helvetica,sans-Serif" font-size="11.00" fill="#000000">...</text>
<polygon fill="#ffffff" stroke="transparent" points="640.5,-623.0642 640.5,-642.0642 715.5,-642.0642 715.5,-623.0642 640.5,-623.0642"/>
<polygon fill="none" stroke="#000000" points="640.5,-623.0642 640.5,-642.0642 715.5,-642.0642 715.5,-623.0642 640.5,-623.0642"/>
<text text-anchor="start" x="643.5" y="-629.1642" font-family="Helvetica,sans-Serif" font-size="11.00" fill="#000000">&lt; 2</text>
<polygon fill="#ffffff" stroke="transparent" points="715.5,-623.0642 715.5,-642.0642 754.5,-642.0642 754.5,-623.0642 715.5,-623.0642"/>
<polygon fill="none" stroke="#000000" points="715.5,-623.0642 715.5,-642.0642 754.5,-642.0642 754.5,-623.0642 715.5,-623.0642"/>
<text text-anchor="start" x="745.3862" y="-629.1642" font-family="Helvetica,sans-Serif" font-size="11.00" fill="#000000"> &#160;</text>
<polygon fill="#ffffff" stroke="transparent" points="754.5,-623.0642 754.5,-642.0642 793.5,-642.0642 793.5,-623.0642 754.5,-623.0642"/>
<polygon fill="none" stroke="#000000" points="754.5,-623.0642 754.5,-642.0642 793.5,-642.0642 793.5,-623.0642 754.5,-623.0642"/>
<text text-anchor="start" x="784.3862" y="-629.1642" font-family="Helvetica,sans-Serif" font-size="11.00" fill="#000000"> &#160;</text>
</a>
</g>
</g>
<!-- opportunities_contacts&#45;&gt;opportunities -->
<g id="edge38" class="edge">
<title>opportunities_contacts:w&#45;&gt;opportunities:e</title>
<path fill="none" stroke="#000000" d="M626.0056,-653.5591C576.9585,-673.192 637.1865,-802.0642 568.5,-802.0642"/>
<polygon fill="#000000" stroke="#000000" points="632.6159,-652.4213 641.1107,-654.612 636.558,-651.7428 640.5,-651.0642 640.5,-651.0642 640.5,-651.0642 636.558,-651.7428 639.8893,-647.5164 632.6159,-652.4213 632.6159,-652.4213"/>
<ellipse fill="none" stroke="#000000" cx="629.4623" cy="-652.9642" rx="3.2" ry="3.2"/>
</g>
<!-- projects_opportunities -->
<g id="node18" class="node">
<title>projects_opportunities</title>
<g id="a_node18"><a xlink:href="../../tables/projects_opportunities.html" xlink:title="projects_opportunities" target="_top">
<polygon fill="#ffffff" stroke="transparent" points="641.5,-541.5642 641.5,-602.5642 791.5,-602.5642 791.5,-541.5642 641.5,-541.5642"/>
<polygon fill="#f5f5f5" stroke="transparent" points="641.5,-579.0642 641.5,-602.0642 791.5,-602.0642 791.5,-579.0642 641.5,-579.0642"/>
<polygon fill="none" stroke="#000000" points="641.5,-579.0642 641.5,-602.0642 791.5,-602.0642 791.5,-579.0642 641.5,-579.0642"/>
<text text-anchor="start" x="646.2095" y="-588.1642" font-family="Helvetica,sans-Serif" font-weight="bold" font-size="11.00" fill="#000000">projects_opportunities</text>
<text text-anchor="start" x="757.0219" y="-587.1642" font-family="Helvetica,sans-Serif" font-size="11.00" fill="#000000">[table]</text>
<polygon fill="none" stroke="#000000" points="641.5,-560.0642 641.5,-579.0642 791.5,-579.0642 791.5,-560.0642 641.5,-560.0642"/>
<text text-anchor="start" x="644.5" y="-566.1642" font-family="Helvetica,sans-Serif" font-size="11.00" fill="#000000">...</text>
<polygon fill="#ffffff" stroke="transparent" points="641.5,-541.0642 641.5,-560.0642 714.5,-560.0642 714.5,-541.0642 641.5,-541.0642"/>
<polygon fill="none" stroke="#000000" points="641.5,-541.0642 641.5,-560.0642 714.5,-560.0642 714.5,-541.0642 641.5,-541.0642"/>
<text text-anchor="start" x="644.5" y="-547.1642" font-family="Helvetica,sans-Serif" font-size="11.00" fill="#000000">&lt; 2</text>
<polygon fill="#ffffff" stroke="transparent" points="714.5,-541.0642 714.5,-560.0642 752.5,-560.0642 752.5,-541.0642 714.5,-541.0642"/>
<polygon fill="none" stroke="#000000" points="714.5,-541.0642 714.5,-560.0642 752.5,-560.0642 752.5,-541.0642 714.5,-541.0642"/>
<text text-anchor="start" x="743.3862" y="-547.1642" font-family="Helvetica,sans-Serif" font-size="11.00" fill="#000000"> &#160;</text>
<polygon fill="#ffffff" stroke="transparent" points="752.5,-541.0642 752.5,-560.0642 791.5,-560.0642 791.5,-541.0642 752.5,-541.0642"/>
<polygon fill="none" stroke="#000000" points="752.5,-541.0642 752.5,-560.0642 791.5,-560.0642 791.5,-541.0642 752.5,-541.0642"/>
<text text-anchor="start" x="782.3862" y="-547.1642" font-family="Helvetica,sans-Serif" font-size="11.00" fill="#000000"> &#160;</text>
</a>
</g>
</g>
<!-- projects_opportunities&#45;&gt;opportunities -->
<g id="edge39" class="edge">
<title>projects_opportunities:w&#45;&gt;opportunities:e</title>
<path fill="none" stroke="#000000" d="M627.5708,-572.8226C617.3537,-580.0033 616.4956,-596.4423 609,-613.0642 591.3426,-652.2205 611.4535,-802.0642 568.5,-802.0642"/>
<polygon fill="#000000" stroke="#000000" points="633.7762,-571.1483 642.4378,-572.5399 637.6381,-570.1063 641.5,-569.0642 641.5,-569.0642 641.5,-569.0642 637.6381,-570.1063 640.5622,-565.5885 633.7762,-571.1483 633.7762,-571.1483"/>
<ellipse fill="none" stroke="#000000" cx="630.6867" cy="-571.9819" rx="3.2" ry="3.2"/>
</g>
<!-- securitygroups_records -->
<g id="node19" class="node">
<title>securitygroups_records</title>
<g id="a_node19"><a xlink:href="../../tables/securitygroups_records.html" xlink:title="securitygroups_records" target="_top">
<polygon fill="#ffffff" stroke="transparent" points="1160,-840.5642 1160,-901.5642 1317,-901.5642 1317,-840.5642 1160,-840.5642"/>
<polygon fill="#f5f5f5" stroke="transparent" points="1160.5,-878.0642 1160.5,-901.0642 1317.5,-901.0642 1317.5,-878.0642 1160.5,-878.0642"/>
<polygon fill="none" stroke="#000000" points="1160.5,-878.0642 1160.5,-901.0642 1317.5,-901.0642 1317.5,-878.0642 1160.5,-878.0642"/>
<text text-anchor="start" x="1165.3528" y="-887.1642" font-family="Helvetica,sans-Serif" font-weight="bold" font-size="11.00" fill="#000000">securitygroups_records</text>
<text text-anchor="start" x="1283.0219" y="-886.1642" font-family="Helvetica,sans-Serif" font-size="11.00" fill="#000000">[table]</text>
<polygon fill="none" stroke="#000000" points="1160.5,-859.0642 1160.5,-878.0642 1317.5,-878.0642 1317.5,-859.0642 1160.5,-859.0642"/>
<text text-anchor="start" x="1163.5" y="-865.1642" font-family="Helvetica,sans-Serif" font-size="11.00" fill="#000000">...</text>
<polygon fill="#ffffff" stroke="transparent" points="1160.5,-840.0642 1160.5,-859.0642 1240.5,-859.0642 1240.5,-840.0642 1160.5,-840.0642"/>
<polygon fill="none" stroke="#000000" points="1160.5,-840.0642 1160.5,-859.0642 1240.5,-859.0642 1240.5,-840.0642 1160.5,-840.0642"/>
<text text-anchor="start" x="1163.5" y="-846.1642" font-family="Helvetica,sans-Serif" font-size="11.00" fill="#000000">&lt; 41</text>
<polygon fill="#ffffff" stroke="transparent" points="1240.5,-840.0642 1240.5,-859.0642 1278.5,-859.0642 1278.5,-840.0642 1240.5,-840.0642"/>
<polygon fill="none" stroke="#000000" points="1240.5,-840.0642 1240.5,-859.0642 1278.5,-859.0642 1278.5,-840.0642 1240.5,-840.0642"/>
<text text-anchor="start" x="1269.3862" y="-846.1642" font-family="Helvetica,sans-Serif" font-size="11.00" fill="#000000"> &#160;</text>
<polygon fill="#ffffff" stroke="transparent" points="1278.5,-840.0642 1278.5,-859.0642 1317.5,-859.0642 1317.5,-840.0642 1278.5,-840.0642"/>
<polygon fill="none" stroke="#000000" points="1278.5,-840.0642 1278.5,-859.0642 1317.5,-859.0642 1317.5,-840.0642 1278.5,-840.0642"/>
<text text-anchor="start" x="1308.3862" y="-846.1642" font-family="Helvetica,sans-Serif" font-size="11.00" fill="#000000"> &#160;</text>
</a>
</g>
</g>
<!-- securitygroups_records&#45;&gt;opportunities -->
<g id="edge49" class="edge">
<title>securitygroups_records:w&#45;&gt;opportunities:e</title>
<path fill="none" stroke="#000000" d="M1146.1052,-865.5346C1118.855,-853.6391 1142.1377,-802.3267 1119,-766.0642 1015.4783,-603.8204 1000.4555,-525.8969 824,-449.0642 780.1947,-429.9904 644.6574,-417.2639 609,-449.0642 550.0714,-501.6185 647.459,-802.0642 568.5,-802.0642"/>
<polygon fill="#000000" stroke="#000000" points="1152.6207,-866.6795 1159.8769,-871.6099 1156.5604,-867.3719 1160.5,-868.0642 1160.5,-868.0642 1160.5,-868.0642 1156.5604,-867.3719 1161.1231,-864.5185 1152.6207,-866.6795 1152.6207,-866.6795"/>
<ellipse fill="none" stroke="#000000" cx="1149.469" cy="-866.1257" rx="3.2" ry="3.2"/>
</g>
<!-- securitygroups_records&#45;&gt;aos_contracts -->
<g id="edge40" class="edge">
<title>securitygroups_records:w&#45;&gt;aos_contracts:e</title>
<path fill="none" stroke="#000000" d="M1146.2219,-871.5242C1123.8482,-886.0021 1152.5146,-942.0365 1119,-965.0642 1055.4922,-1008.7002 849.5542,-978.0642 772.5,-978.0642"/>
<polygon fill="#000000" stroke="#000000" points="1152.725,-869.9483 1161.3479,-871.563 1156.6125,-869.0063 1160.5,-868.0642 1160.5,-868.0642 1160.5,-868.0642 1156.6125,-869.0063 1159.6521,-864.5655 1152.725,-869.9483 1152.725,-869.9483"/>
<ellipse fill="none" stroke="#000000" cx="1149.615" cy="-870.702" rx="3.2" ry="3.2"/>
</g>
<!-- securitygroups_records&#45;&gt;aos_quotes -->
<g id="edge41" class="edge">
<title>securitygroups_records:w&#45;&gt;aos_quotes:e</title>
<path fill="none" stroke="#000000" d="M1146.3206,-864.6666C1066.1829,-821.2856 1210.4208,-377.0642 1106,-377.0642"/>
<polygon fill="#000000" stroke="#000000" points="1152.7202,-866.2 1159.6611,-871.5651 1156.6101,-867.1321 1160.5,-868.0642 1160.5,-868.0642 1160.5,-868.0642 1156.6101,-867.1321 1161.3389,-864.5633 1152.7202,-866.2 1152.7202,-866.2"/>
<ellipse fill="none" stroke="#000000" cx="1149.6083" cy="-865.4543" rx="3.2" ry="3.2"/>
</g>
<!-- securitygroups_records&#45;&gt;calls -->
<g id="edge42" class="edge">
<title>securitygroups_records:w&#45;&gt;calls:e</title>
<path fill="none" stroke="#000000" d="M1146.1087,-867.3903C1050.8286,-858.1983 1044.8013,-758.0642 940.5,-758.0642"/>
<polygon fill="#000000" stroke="#000000" points="1152.5088,-867.6899 1160.3316,-871.6603 1156.5044,-867.8771 1160.5,-868.0642 1160.5,-868.0642 1160.5,-868.0642 1156.5044,-867.8771 1160.6684,-864.4682 1152.5088,-867.6899 1152.5088,-867.6899"/>
<ellipse fill="none" stroke="#000000" cx="1149.3123" cy="-867.5402" rx="3.2" ry="3.2"/>
</g>
<!-- securitygroups_records&#45;&gt;leads -->
<g id="edge46" class="edge">
<title>securitygroups_records:w&#45;&gt;leads:e</title>
<path fill="none" stroke="#000000" d="M1148.3946,-859.8109C1107.2217,-796.5593 1138.5763,-389.7686 1119,-339.0642 1063.943,-196.4616 1061.3619,-67.0642 908.5,-67.0642 908.5,-67.0642 908.5,-67.0642 499.5,-67.0642 395.68,-67.0642 303.5235,-246.3818 263,-361.0642 243.6552,-415.8105 280.5635,-882.0642 222.5,-882.0642"/>
<polygon fill="#000000" stroke="#000000" points="1153.8901,-863.5576 1158.472,-871.0387 1157.195,-865.8109 1160.5,-868.0642 1160.5,-868.0642 1160.5,-868.0642 1157.195,-865.8109 1162.528,-865.0898 1153.8901,-863.5576 1153.8901,-863.5576"/>
<ellipse fill="none" stroke="#000000" cx="1151.2461" cy="-861.755" rx="3.2" ry="3.2"/>
</g>
<!-- securitygroups_records&#45;&gt;campaigns -->
<g id="edge43" class="edge">
<title>securitygroups_records:w&#45;&gt;campaigns:e</title>
<path fill="none" stroke="#000000" d="M1147.4548,-861.4144C1084.4442,-788.9583 1172.3585,-147.5754 1119,-85.0642 1056.8886,-12.2987 1004.1694,-40.0642 908.5,-40.0642 908.5,-40.0642 908.5,-40.0642 326.5,-40.0642 277.9085,-40.0642 283.1479,-84.8466 263,-129.0642 247.2944,-163.5324 141.8777,-792.0642 104,-792.0642"/>
<polygon fill="#000000" stroke="#000000" points="1153.3726,-864.431 1158.8651,-871.2716 1156.9363,-866.2476 1160.5,-868.0642 1160.5,-868.0642 1160.5,-868.0642 1156.9363,-866.2476 1162.1349,-864.8569 1153.3726,-864.431 1153.3726,-864.431"/>
<ellipse fill="none" stroke="#000000" cx="1150.5216" cy="-862.9777" rx="3.2" ry="3.2"/>
</g>
<!-- securitygroups_records&#45;&gt;emails -->
<g id="edge44" class="edge">
<title>securitygroups_records:w&#45;&gt;emails:e</title>
<path fill="none" stroke="#000000" d="M1145.9597,-868.0642C1062.2256,-868.0642 1036.0165,-868.0642 945.5,-868.0642"/>
<polygon fill="#000000" stroke="#000000" points="1152.5,-868.0643 1160.5,-871.6642 1156.5,-868.0642 1160.5,-868.0642 1160.5,-868.0642 1160.5,-868.0642 1156.5,-868.0642 1160.5,-864.4642 1152.5,-868.0643 1152.5,-868.0643"/>
<ellipse fill="none" stroke="#000000" cx="1149.3" cy="-868.0643" rx="3.2" ry="3.2"/>
</g>
<!-- securitygroups_records&#45;&gt;meetings -->
<g id="edge47" class="edge">
<title>securitygroups_records:w&#45;&gt;meetings:e</title>
<path fill="none" stroke="#000000" d="M1146.984,-874.0182C1116.6454,-906.5557 1148.2576,-1062.7238 1119,-1099.0642 1068.7665,-1161.4585 1032.6027,-1168.0642 952.5,-1168.0642"/>
<polygon fill="#000000" stroke="#000000" points="1153.1789,-871.2893 1161.9513,-871.3587 1156.8394,-869.6768 1160.5,-868.0642 1160.5,-868.0642 1160.5,-868.0642 1156.8394,-869.6768 1159.0487,-864.7697 1153.1789,-871.2893 1153.1789,-871.2893"/>
<ellipse fill="none" stroke="#000000" cx="1150.2504" cy="-872.5793" rx="3.2" ry="3.2"/>
</g>
<!-- securitygroups_records&#45;&gt;tasks -->
<g id="edge50" class="edge">
<title>securitygroups_records:w&#45;&gt;tasks:e</title>
<path fill="none" stroke="#000000" d="M1146.0307,-869.5322C1079.7532,-885.006 1186.4438,-1018.7576 1119,-1077.0642 1059.5803,-1128.4338 1021.0464,-1086.0642 942.5,-1086.0642"/>
<polygon fill="#000000" stroke="#000000" points="1152.5409,-868.8718 1160.8634,-871.6458 1156.5204,-868.468 1160.5,-868.0642 1160.5,-868.0642 1160.5,-868.0642 1156.5204,-868.468 1160.1366,-864.4826 1152.5409,-868.8718 1152.5409,-868.8718"/>
<ellipse fill="none" stroke="#000000" cx="1149.3572" cy="-869.1948" rx="3.2" ry="3.2"/>
</g>
<!-- securitygroups_records&#45;&gt;jjwg_maps -->
<g id="edge45" class="edge">
<title>securitygroups_records:w&#45;&gt;jjwg_maps:e</title>
<path fill="none" stroke="#000000" d="M1146.8239,-872.9698C1107.8915,-905.9794 1150.8563,-1095.8005 1119,-1142.0642 1059.0167,-1229.1758 1014.2659,-1253.0642 908.5,-1253.0642 908.5,-1253.0642 908.5,-1253.0642 326.5,-1253.0642 190.2713,-1253.0642 211.1599,-1125.1488 145,-1006.0642 120.5903,-962.128 153.2615,-901.0642 103,-901.0642"/>
<polygon fill="#000000" stroke="#000000" points="1152.9698,-870.7653 1161.7155,-871.4528 1156.7349,-869.4148 1160.5,-868.0642 1160.5,-868.0642 1160.5,-868.0642 1156.7349,-869.4148 1159.2845,-864.6756 1152.9698,-870.7653 1152.9698,-870.7653"/>
<ellipse fill="none" stroke="#000000" cx="1149.9577" cy="-871.8458" rx="3.2" ry="3.2"/>
</g>
<!-- securitygroups_records&#45;&gt;notes -->
<g id="edge48" class="edge">
<title>securitygroups_records:w&#45;&gt;notes:e</title>
<path fill="none" stroke="#000000" d="M1146.3204,-871.0656C1123.0396,-882.2774 1124.2313,-921.0642 1091,-921.0642"/>
<polygon fill="#000000" stroke="#000000" points="1152.6734,-869.7209 1161.2455,-871.5862 1156.5867,-868.8926 1160.5,-868.0642 1160.5,-868.0642 1160.5,-868.0642 1156.5867,-868.8926 1159.7545,-864.5422 1152.6734,-869.7209 1152.6734,-869.7209"/>
<ellipse fill="none" stroke="#000000" cx="1149.5428" cy="-870.3836" rx="3.2" ry="3.2"/>
</g>
</g>
</svg>
