<?xml version="1.0" encoding="UTF-8" standalone="no"?>
<!DOCTYPE svg PUBLIC "-//W3C//DTD SVG 1.1//EN"
 "http://www.w3.org/Graphics/SVG/1.1/DTD/svg11.dtd">
<!-- Generated by graphviz version 2.40.1 (20161225.0304)
 -->
<!-- Title: oneDegreeRelationshipsDiagram Pages: 1 -->
<svg width="444pt" height="501pt"
 viewBox="0.00 0.00 444.00 501.20" xmlns="http://www.w3.org/2000/svg" xmlns:xlink="http://www.w3.org/1999/xlink">
<g id="graph0" class="graph" transform="scale(1 1) rotate(0) translate(4 497.2)">
<title>oneDegreeRelationshipsDiagram</title>
<polygon fill="#ffffff" stroke="transparent" points="-4,4 -4,-497.2 440,-497.2 440,4 -4,4"/>
<text text-anchor="middle" x="72.4936" y="-7.3" font-family="Helvetica,sans-Serif" font-size="11.00" fill="#000000">Generated by SchemaSpy</text>
<!-- documents_bugs -->
<g id="node1" class="node">
<title>documents_bugs</title>
<g id="a_node1"><a xlink:href="../../tables/documents_bugs.html" xlink:title="documents_bugs" target="_top">
<polygon fill="#ffffff" stroke="transparent" points="224,-304.7 224,-460.7 428,-460.7 428,-304.7 224,-304.7"/>
<polygon fill="#f5f5f5" stroke="transparent" points="226,-435.7 226,-458.7 426,-458.7 426,-435.7 226,-435.7"/>
<polygon fill="none" stroke="#000000" points="226,-435.7 226,-458.7 426,-458.7 426,-435.7 226,-435.7"/>
<text text-anchor="start" x="231" y="-444.8" font-family="Helvetica,sans-Serif" font-weight="bold" font-size="11.00" fill="#000000">documents_bugs</text>
<text text-anchor="start" x="391.0437" y="-443.8" font-family="Helvetica,sans-Serif" font-size="11.00" fill="#000000">[table]</text>
<polygon fill="none" stroke="#000000" points="226,-413.7 226,-435.7 360,-435.7 360,-413.7 226,-413.7"/>
<image xlink:href="../../images/primaryKeys.png" width="11px" height="12px" preserveAspectRatio="xMinYMin meet" x="231" y="-430.7"/>
<text text-anchor="start" x="246" y="-420.8" font-family="Helvetica,sans-Serif" font-size="11.00" fill="#000000">id</text>
<polygon fill="none" stroke="#000000" points="360,-413.7 360,-435.7 426,-435.7 426,-413.7 360,-413.7"/>
<text text-anchor="start" x="363" y="-421.4" font-family="Helvetica,sans-Serif" font-size="11.00" fill="#000000">varchar[36]</text>
<polygon fill="none" stroke="#000000" points="226,-391.7 226,-413.7 360,-413.7 360,-391.7 226,-391.7"/>
<text text-anchor="start" x="246" y="-398.8" font-family="Helvetica,sans-Serif" font-size="11.00" fill="#000000">date_modified</text>
<polygon fill="none" stroke="#000000" points="360,-391.7 360,-413.7 426,-413.7 426,-391.7 360,-391.7"/>
<text text-anchor="start" x="362.7401" y="-399.4" font-family="Helvetica,sans-Serif" font-size="11.00" fill="#000000">datetime[26]</text>
<polygon fill="none" stroke="#000000" points="226,-369.7 226,-391.7 360,-391.7 360,-369.7 226,-369.7"/>
<text text-anchor="start" x="246" y="-376.8" font-family="Helvetica,sans-Serif" font-size="11.00" fill="#000000">deleted</text>
<polygon fill="none" stroke="#000000" points="360,-369.7 360,-391.7 426,-391.7 426,-369.7 360,-369.7"/>
<text text-anchor="start" x="363" y="-377.4" font-family="Helvetica,sans-Serif" font-size="11.00" fill="#000000">bit[1]</text>
<polygon fill="#ffffff" stroke="transparent" points="226,-347.7 226,-369.7 360,-369.7 360,-347.7 226,-347.7"/>
<polygon fill="none" stroke="#000000" points="226,-347.7 226,-369.7 360,-369.7 360,-347.7 226,-347.7"/>
<image xlink:href="../../images/foreignKeys.png" width="11px" height="12px" preserveAspectRatio="xMinYMin meet" x="231" y="-364.7"/>
<text text-anchor="start" x="246" y="-354.8" font-family="Helvetica,sans-Serif" font-size="11.00" fill="#000000">document_id</text>
<polygon fill="none" stroke="#000000" points="360,-347.7 360,-369.7 426,-369.7 426,-347.7 360,-347.7"/>
<text text-anchor="start" x="363" y="-355.4" font-family="Helvetica,sans-Serif" font-size="11.00" fill="#000000">varchar[36]</text>
<polygon fill="#ffffff" stroke="transparent" points="226,-325.7 226,-347.7 360,-347.7 360,-325.7 226,-325.7"/>
<polygon fill="none" stroke="#000000" points="226,-325.7 226,-347.7 360,-347.7 360,-325.7 226,-325.7"/>
<image xlink:href="../../images/foreignKeys.png" width="11px" height="12px" preserveAspectRatio="xMinYMin meet" x="231" y="-342.7"/>
<text text-anchor="start" x="246" y="-332.8" font-family="Helvetica,sans-Serif" font-size="11.00" fill="#000000">bug_id</text>
<polygon fill="none" stroke="#000000" points="360,-325.7 360,-347.7 426,-347.7 426,-325.7 360,-325.7"/>
<text text-anchor="start" x="363" y="-333.4" font-family="Helvetica,sans-Serif" font-size="11.00" fill="#000000">varchar[36]</text>
<polygon fill="#ffffff" stroke="transparent" points="226,-306.7 226,-325.7 297,-325.7 297,-306.7 226,-306.7"/>
<polygon fill="none" stroke="#000000" points="226,-306.7 226,-325.7 297,-325.7 297,-306.7 226,-306.7"/>
<text text-anchor="start" x="229" y="-312.8" font-family="Helvetica,sans-Serif" font-size="11.00" fill="#000000">&lt; 2</text>
<polygon fill="#ffffff" stroke="transparent" points="297,-306.7 297,-325.7 360,-325.7 360,-306.7 297,-306.7"/>
<polygon fill="none" stroke="#000000" points="297,-306.7 297,-325.7 360,-325.7 360,-306.7 297,-306.7"/>
<text text-anchor="start" x="350.8862" y="-312.8" font-family="Helvetica,sans-Serif" font-size="11.00" fill="#000000"> &#160;</text>
<polygon fill="#ffffff" stroke="transparent" points="360,-306.7 360,-325.7 426,-325.7 426,-306.7 360,-306.7"/>
<polygon fill="none" stroke="#000000" points="360,-306.7 360,-325.7 426,-325.7 426,-306.7 360,-306.7"/>
<text text-anchor="start" x="407.4053" y="-312.8" font-family="Helvetica,sans-Serif" font-size="11.00" fill="#000000">0 &gt;</text>
<polygon fill="none" stroke="#000000" stroke-width="2" points="225,-305.7 225,-459.7 427,-459.7 427,-305.7 225,-305.7"/>
</a>
</g>
</g>
<!-- bugs -->
<g id="node2" class="node">
<title>bugs</title>
<g id="a_node2"><a xlink:href="../../tables/bugs.html" xlink:title="bugs" target="_top">
<polygon fill="#ffffff" stroke="transparent" points="22,-38.2 22,-275.2 161,-275.2 161,-38.2 22,-38.2"/>
<polygon fill="#f5f5f5" stroke="transparent" points="22.5,-251.7 22.5,-274.7 161.5,-274.7 161.5,-251.7 22.5,-251.7"/>
<polygon fill="none" stroke="#000000" points="22.5,-251.7 22.5,-274.7 161.5,-274.7 161.5,-251.7 22.5,-251.7"/>
<text text-anchor="start" x="27.5" y="-260.8" font-family="Helvetica,sans-Serif" font-weight="bold" font-size="11.00" fill="#000000">bugs</text>
<text text-anchor="start" x="126.5437" y="-259.8" font-family="Helvetica,sans-Serif" font-size="11.00" fill="#000000">[table]</text>
<polygon fill="none" stroke="#000000" points="22.5,-229.7 22.5,-251.7 161.5,-251.7 161.5,-229.7 22.5,-229.7"/>
<image xlink:href="../../images/primaryKeys.png" width="11px" height="12px" preserveAspectRatio="xMinYMin meet" x="27.5" y="-246.7"/>
<text text-anchor="start" x="42.5" y="-236.8" font-family="Helvetica,sans-Serif" font-size="11.00" fill="#000000">id</text>
<polygon fill="#ffffff" stroke="transparent" points="22.5,-207.7 22.5,-229.7 161.5,-229.7 161.5,-207.7 22.5,-207.7"/>
<polygon fill="none" stroke="#000000" points="22.5,-207.7 22.5,-229.7 161.5,-229.7 161.5,-207.7 22.5,-207.7"/>
<text text-anchor="start" x="42.5" y="-214.8" font-family="Helvetica,sans-Serif" font-size="11.00" fill="#000000">name</text>
<polygon fill="#c0c0c0" stroke="transparent" points="22.5,-185.7 22.5,-207.7 161.5,-207.7 161.5,-185.7 22.5,-185.7"/>
<polygon fill="none" stroke="#000000" points="22.5,-185.7 22.5,-207.7 161.5,-207.7 161.5,-185.7 22.5,-185.7"/>
<image xlink:href="../../images/foreignKeys.png" width="11px" height="12px" preserveAspectRatio="xMinYMin meet" x="27.5" y="-202.7"/>
<text text-anchor="start" x="42.5" y="-192.8" font-family="Helvetica,sans-Serif" font-size="11.00" fill="#000000">modified_user_id</text>
<polygon fill="#c0c0c0" stroke="transparent" points="22.5,-163.7 22.5,-185.7 161.5,-185.7 161.5,-163.7 22.5,-163.7"/>
<polygon fill="none" stroke="#000000" points="22.5,-163.7 22.5,-185.7 161.5,-185.7 161.5,-163.7 22.5,-163.7"/>
<image xlink:href="../../images/foreignKeys.png" width="11px" height="12px" preserveAspectRatio="xMinYMin meet" x="27.5" y="-180.7"/>
<text text-anchor="start" x="42.5" y="-170.8" font-family="Helvetica,sans-Serif" font-size="11.00" fill="#000000">created_by</text>
<polygon fill="#c0c0c0" stroke="transparent" points="22.5,-141.7 22.5,-163.7 161.5,-163.7 161.5,-141.7 22.5,-141.7"/>
<polygon fill="none" stroke="#000000" points="22.5,-141.7 22.5,-163.7 161.5,-163.7 161.5,-141.7 22.5,-141.7"/>
<image xlink:href="../../images/foreignKeys.png" width="11px" height="12px" preserveAspectRatio="xMinYMin meet" x="27.5" y="-158.7"/>
<text text-anchor="start" x="42.5" y="-148.8" font-family="Helvetica,sans-Serif" font-size="11.00" fill="#000000">assigned_user_id</text>
<polygon fill="#ffffff" stroke="transparent" points="22.5,-119.7 22.5,-141.7 161.5,-141.7 161.5,-119.7 22.5,-119.7"/>
<polygon fill="none" stroke="#000000" points="22.5,-119.7 22.5,-141.7 161.5,-141.7 161.5,-119.7 22.5,-119.7"/>
<text text-anchor="start" x="42.5" y="-126.8" font-family="Helvetica,sans-Serif" font-size="11.00" fill="#000000">bug_number</text>
<polygon fill="none" stroke="#000000" points="22.5,-97.7 22.5,-119.7 161.5,-119.7 161.5,-97.7 22.5,-97.7"/>
<image xlink:href="../../images/foreignKeys.png" width="11px" height="12px" preserveAspectRatio="xMinYMin meet" x="27.5" y="-114.7"/>
<text text-anchor="start" x="42.5" y="-104.8" font-family="Helvetica,sans-Serif" font-size="11.00" fill="#000000">found_in_release</text>
<polygon fill="none" stroke="#000000" points="22.5,-75.7 22.5,-97.7 161.5,-97.7 161.5,-75.7 22.5,-75.7"/>
<image xlink:href="../../images/foreignKeys.png" width="11px" height="12px" preserveAspectRatio="xMinYMin meet" x="27.5" y="-92.7"/>
<text text-anchor="start" x="42.5" y="-82.8" font-family="Helvetica,sans-Serif" font-size="11.00" fill="#000000">fixed_in_release</text>
<polygon fill="none" stroke="#000000" points="22.5,-56.7 22.5,-75.7 161.5,-75.7 161.5,-56.7 22.5,-56.7"/>
<text text-anchor="start" x="25.5" y="-62.8" font-family="Helvetica,sans-Serif" font-size="11.00" fill="#000000">...</text>
<polygon fill="#ffffff" stroke="transparent" points="22.5,-37.7 22.5,-56.7 82.5,-56.7 82.5,-37.7 22.5,-37.7"/>
<polygon fill="none" stroke="#000000" points="22.5,-37.7 22.5,-56.7 82.5,-56.7 82.5,-37.7 22.5,-37.7"/>
<text text-anchor="start" x="25.5" y="-43.8" font-family="Helvetica,sans-Serif" font-size="11.00" fill="#000000">&lt; 5</text>
<polygon fill="#ffffff" stroke="transparent" points="82.5,-37.7 82.5,-56.7 114.5,-56.7 114.5,-37.7 82.5,-37.7"/>
<polygon fill="none" stroke="#000000" points="82.5,-37.7 82.5,-56.7 114.5,-56.7 114.5,-37.7 82.5,-37.7"/>
<text text-anchor="start" x="105.3862" y="-43.8" font-family="Helvetica,sans-Serif" font-size="11.00" fill="#000000"> &#160;</text>
<polygon fill="#ffffff" stroke="transparent" points="114.5,-37.7 114.5,-56.7 161.5,-56.7 161.5,-37.7 114.5,-37.7"/>
<polygon fill="none" stroke="#000000" points="114.5,-37.7 114.5,-56.7 161.5,-56.7 161.5,-37.7 114.5,-37.7"/>
<text text-anchor="start" x="136.7904" y="-43.8" font-family="Helvetica,sans-Serif" font-size="11.00" fill="#000000">13 &gt;</text>
</a>
</g>
</g>
<!-- documents_bugs&#45;&gt;bugs -->
<g id="edge1" class="edge">
<title>documents_bugs:w&#45;&gt;bugs:e</title>
<path fill="none" stroke="#000000" d="M211.7239,-333.2833C182.1248,-316.1819 207.0796,-240.7 161.5,-240.7"/>
<polygon fill="#000000" stroke="#000000" points="218.2197,-334.8379 225.1621,-340.2011 222.1099,-335.769 226,-336.7 226,-336.7 226,-336.7 222.1099,-335.769 226.8379,-333.1989 218.2197,-334.8379 218.2197,-334.8379"/>
<ellipse fill="none" stroke="#000000" cx="215.1076" cy="-334.0931" rx="3.2" ry="3.2"/>
</g>
<!-- documents -->
<g id="node3" class="node">
<title>documents</title>
<g id="a_node3"><a xlink:href="../../tables/documents.html" xlink:title="documents" target="_top">
<polygon fill="#ffffff" stroke="transparent" points="8,-296.2 8,-489.2 175,-489.2 175,-296.2 8,-296.2"/>
<polygon fill="#f5f5f5" stroke="transparent" points="8.5,-465.7 8.5,-488.7 175.5,-488.7 175.5,-465.7 8.5,-465.7"/>
<polygon fill="none" stroke="#000000" points="8.5,-465.7 8.5,-488.7 175.5,-488.7 175.5,-465.7 8.5,-465.7"/>
<text text-anchor="start" x="13.5" y="-474.8" font-family="Helvetica,sans-Serif" font-weight="bold" font-size="11.00" fill="#000000">documents</text>
<text text-anchor="start" x="140.5437" y="-473.8" font-family="Helvetica,sans-Serif" font-size="11.00" fill="#000000">[table]</text>
<polygon fill="none" stroke="#000000" points="8.5,-443.7 8.5,-465.7 175.5,-465.7 175.5,-443.7 8.5,-443.7"/>
<image xlink:href="../../images/primaryKeys.png" width="11px" height="12px" preserveAspectRatio="xMinYMin meet" x="13.5" y="-460.7"/>
<text text-anchor="start" x="28.5" y="-450.8" font-family="Helvetica,sans-Serif" font-size="11.00" fill="#000000">id</text>
<polygon fill="#c0c0c0" stroke="transparent" points="8.5,-421.7 8.5,-443.7 175.5,-443.7 175.5,-421.7 8.5,-421.7"/>
<polygon fill="none" stroke="#000000" points="8.5,-421.7 8.5,-443.7 175.5,-443.7 175.5,-421.7 8.5,-421.7"/>
<image xlink:href="../../images/foreignKeys.png" width="11px" height="12px" preserveAspectRatio="xMinYMin meet" x="13.5" y="-438.7"/>
<text text-anchor="start" x="28.5" y="-428.8" font-family="Helvetica,sans-Serif" font-size="11.00" fill="#000000">modified_user_id</text>
<polygon fill="#c0c0c0" stroke="transparent" points="8.5,-399.7 8.5,-421.7 175.5,-421.7 175.5,-399.7 8.5,-399.7"/>
<polygon fill="none" stroke="#000000" points="8.5,-399.7 8.5,-421.7 175.5,-421.7 175.5,-399.7 8.5,-399.7"/>
<image xlink:href="../../images/foreignKeys.png" width="11px" height="12px" preserveAspectRatio="xMinYMin meet" x="13.5" y="-416.7"/>
<text text-anchor="start" x="28.5" y="-406.8" font-family="Helvetica,sans-Serif" font-size="11.00" fill="#000000">created_by</text>
<polygon fill="#c0c0c0" stroke="transparent" points="8.5,-377.7 8.5,-399.7 175.5,-399.7 175.5,-377.7 8.5,-377.7"/>
<polygon fill="none" stroke="#000000" points="8.5,-377.7 8.5,-399.7 175.5,-399.7 175.5,-377.7 8.5,-377.7"/>
<image xlink:href="../../images/foreignKeys.png" width="11px" height="12px" preserveAspectRatio="xMinYMin meet" x="13.5" y="-394.7"/>
<text text-anchor="start" x="28.5" y="-384.8" font-family="Helvetica,sans-Serif" font-size="11.00" fill="#000000">assigned_user_id</text>
<polygon fill="#ffffff" stroke="transparent" points="8.5,-355.7 8.5,-377.7 175.5,-377.7 175.5,-355.7 8.5,-355.7"/>
<polygon fill="none" stroke="#000000" points="8.5,-355.7 8.5,-377.7 175.5,-377.7 175.5,-355.7 8.5,-355.7"/>
<text text-anchor="start" x="28.5" y="-362.8" font-family="Helvetica,sans-Serif" font-size="11.00" fill="#000000">category_id</text>
<polygon fill="#ffffff" stroke="transparent" points="8.5,-333.7 8.5,-355.7 175.5,-355.7 175.5,-333.7 8.5,-333.7"/>
<polygon fill="none" stroke="#000000" points="8.5,-333.7 8.5,-355.7 175.5,-355.7 175.5,-333.7 8.5,-333.7"/>
<text text-anchor="start" x="28.5" y="-340.8" font-family="Helvetica,sans-Serif" font-size="11.00" fill="#000000">subcategory_id</text>
<polygon fill="none" stroke="#000000" points="8.5,-314.7 8.5,-333.7 175.5,-333.7 175.5,-314.7 8.5,-314.7"/>
<text text-anchor="start" x="11.5" y="-320.8" font-family="Helvetica,sans-Serif" font-size="11.00" fill="#000000">...</text>
<polygon fill="#ffffff" stroke="transparent" points="8.5,-295.7 8.5,-314.7 85.5,-314.7 85.5,-295.7 8.5,-295.7"/>
<polygon fill="none" stroke="#000000" points="8.5,-295.7 8.5,-314.7 85.5,-314.7 85.5,-295.7 8.5,-295.7"/>
<text text-anchor="start" x="11.5" y="-301.8" font-family="Helvetica,sans-Serif" font-size="11.00" fill="#000000">&lt; 3</text>
<polygon fill="#ffffff" stroke="transparent" points="85.5,-295.7 85.5,-314.7 125.5,-314.7 125.5,-295.7 85.5,-295.7"/>
<polygon fill="none" stroke="#000000" points="85.5,-295.7 85.5,-314.7 125.5,-314.7 125.5,-295.7 85.5,-295.7"/>
<text text-anchor="start" x="116.3862" y="-301.8" font-family="Helvetica,sans-Serif" font-size="11.00" fill="#000000"> &#160;</text>
<polygon fill="#ffffff" stroke="transparent" points="125.5,-295.7 125.5,-314.7 175.5,-314.7 175.5,-295.7 125.5,-295.7"/>
<polygon fill="none" stroke="#000000" points="125.5,-295.7 125.5,-314.7 175.5,-314.7 175.5,-295.7 125.5,-295.7"/>
<text text-anchor="start" x="156.9053" y="-301.8" font-family="Helvetica,sans-Serif" font-size="11.00" fill="#000000">9 &gt;</text>
</a>
</g>
</g>
<!-- documents_bugs&#45;&gt;documents -->
<g id="edge2" class="edge">
<title>documents_bugs:w&#45;&gt;documents:e</title>
<path fill="none" stroke="#000000" d="M211.9659,-362.825C187.7993,-381.2 217.6837,-454.7 175.5,-454.7"/>
<polygon fill="#000000" stroke="#000000" points="218.3247,-360.956 227.0152,-362.1539 222.1623,-359.828 226,-358.7 226,-358.7 226,-358.7 222.1623,-359.828 224.9848,-355.2461 218.3247,-360.956 218.3247,-360.956"/>
<ellipse fill="none" stroke="#000000" cx="215.2545" cy="-361.8584" rx="3.2" ry="3.2"/>
</g>
</g>
</svg>
