<?xml version="1.0" encoding="UTF-8" standalone="no"?>
<!DOCTYPE svg PUBLIC "-//W3C//DTD SVG 1.1//EN"
 "http://www.w3.org/Graphics/SVG/1.1/DTD/svg11.dtd">
<!-- Generated by graphviz version 2.40.1 (20161225.0304)
 -->
<!-- Title: oneDegreeRelationshipsDiagram Pages: 1 -->
<svg width="452pt" height="545pt"
 viewBox="0.00 0.00 452.00 545.20" xmlns="http://www.w3.org/2000/svg" xmlns:xlink="http://www.w3.org/1999/xlink">
<g id="graph0" class="graph" transform="scale(1 1) rotate(0) translate(4 541.2)">
<title>oneDegreeRelationshipsDiagram</title>
<polygon fill="#ffffff" stroke="transparent" points="-4,4 -4,-541.2 448,-541.2 448,4 -4,4"/>
<text text-anchor="middle" x="72.4936" y="-7.3" font-family="Helvetica,sans-Serif" font-size="11.00" fill="#000000">Generated by SchemaSpy</text>
<!-- documents_cases -->
<g id="node1" class="node">
<title>documents_cases</title>
<g id="a_node1"><a xlink:href="../../tables/documents_cases.html" xlink:title="documents_cases" target="_top">
<polygon fill="#ffffff" stroke="transparent" points="227,-348.7 227,-504.7 436,-504.7 436,-348.7 227,-348.7"/>
<polygon fill="#f5f5f5" stroke="transparent" points="229.5,-479.7 229.5,-502.7 434.5,-502.7 434.5,-479.7 229.5,-479.7"/>
<polygon fill="none" stroke="#000000" points="229.5,-479.7 229.5,-502.7 434.5,-502.7 434.5,-479.7 229.5,-479.7"/>
<text text-anchor="start" x="234.5" y="-488.8" font-family="Helvetica,sans-Serif" font-weight="bold" font-size="11.00" fill="#000000">documents_cases</text>
<text text-anchor="start" x="399.5437" y="-487.8" font-family="Helvetica,sans-Serif" font-size="11.00" fill="#000000">[table]</text>
<polygon fill="none" stroke="#000000" points="229.5,-457.7 229.5,-479.7 368.5,-479.7 368.5,-457.7 229.5,-457.7"/>
<image xlink:href="../../images/primaryKeys.png" width="11px" height="12px" preserveAspectRatio="xMinYMin meet" x="234.5" y="-474.7"/>
<text text-anchor="start" x="249.5" y="-464.8" font-family="Helvetica,sans-Serif" font-size="11.00" fill="#000000">id</text>
<polygon fill="none" stroke="#000000" points="368.5,-457.7 368.5,-479.7 434.5,-479.7 434.5,-457.7 368.5,-457.7"/>
<text text-anchor="start" x="371.5" y="-465.4" font-family="Helvetica,sans-Serif" font-size="11.00" fill="#000000">varchar[36]</text>
<polygon fill="none" stroke="#000000" points="229.5,-435.7 229.5,-457.7 368.5,-457.7 368.5,-435.7 229.5,-435.7"/>
<text text-anchor="start" x="249.5" y="-442.8" font-family="Helvetica,sans-Serif" font-size="11.00" fill="#000000">date_modified</text>
<polygon fill="none" stroke="#000000" points="368.5,-435.7 368.5,-457.7 434.5,-457.7 434.5,-435.7 368.5,-435.7"/>
<text text-anchor="start" x="371.2401" y="-443.4" font-family="Helvetica,sans-Serif" font-size="11.00" fill="#000000">datetime[26]</text>
<polygon fill="none" stroke="#000000" points="229.5,-413.7 229.5,-435.7 368.5,-435.7 368.5,-413.7 229.5,-413.7"/>
<text text-anchor="start" x="249.5" y="-420.8" font-family="Helvetica,sans-Serif" font-size="11.00" fill="#000000">deleted</text>
<polygon fill="none" stroke="#000000" points="368.5,-413.7 368.5,-435.7 434.5,-435.7 434.5,-413.7 368.5,-413.7"/>
<text text-anchor="start" x="371.5" y="-421.4" font-family="Helvetica,sans-Serif" font-size="11.00" fill="#000000">bit[1]</text>
<polygon fill="#ffffff" stroke="transparent" points="229.5,-391.7 229.5,-413.7 368.5,-413.7 368.5,-391.7 229.5,-391.7"/>
<polygon fill="none" stroke="#000000" points="229.5,-391.7 229.5,-413.7 368.5,-413.7 368.5,-391.7 229.5,-391.7"/>
<image xlink:href="../../images/foreignKeys.png" width="11px" height="12px" preserveAspectRatio="xMinYMin meet" x="234.5" y="-408.7"/>
<text text-anchor="start" x="249.5" y="-398.8" font-family="Helvetica,sans-Serif" font-size="11.00" fill="#000000">document_id</text>
<polygon fill="none" stroke="#000000" points="368.5,-391.7 368.5,-413.7 434.5,-413.7 434.5,-391.7 368.5,-391.7"/>
<text text-anchor="start" x="371.5" y="-399.4" font-family="Helvetica,sans-Serif" font-size="11.00" fill="#000000">varchar[36]</text>
<polygon fill="#ffffff" stroke="transparent" points="229.5,-369.7 229.5,-391.7 368.5,-391.7 368.5,-369.7 229.5,-369.7"/>
<polygon fill="none" stroke="#000000" points="229.5,-369.7 229.5,-391.7 368.5,-391.7 368.5,-369.7 229.5,-369.7"/>
<image xlink:href="../../images/foreignKeys.png" width="11px" height="12px" preserveAspectRatio="xMinYMin meet" x="234.5" y="-386.7"/>
<text text-anchor="start" x="249.5" y="-376.8" font-family="Helvetica,sans-Serif" font-size="11.00" fill="#000000">case_id</text>
<polygon fill="none" stroke="#000000" points="368.5,-369.7 368.5,-391.7 434.5,-391.7 434.5,-369.7 368.5,-369.7"/>
<text text-anchor="start" x="371.5" y="-377.4" font-family="Helvetica,sans-Serif" font-size="11.00" fill="#000000">varchar[36]</text>
<polygon fill="#ffffff" stroke="transparent" points="229.5,-350.7 229.5,-369.7 303.5,-369.7 303.5,-350.7 229.5,-350.7"/>
<polygon fill="none" stroke="#000000" points="229.5,-350.7 229.5,-369.7 303.5,-369.7 303.5,-350.7 229.5,-350.7"/>
<text text-anchor="start" x="232.5" y="-356.8" font-family="Helvetica,sans-Serif" font-size="11.00" fill="#000000">&lt; 2</text>
<polygon fill="#ffffff" stroke="transparent" points="303.5,-350.7 303.5,-369.7 368.5,-369.7 368.5,-350.7 303.5,-350.7"/>
<polygon fill="none" stroke="#000000" points="303.5,-350.7 303.5,-369.7 368.5,-369.7 368.5,-350.7 303.5,-350.7"/>
<text text-anchor="start" x="359.3862" y="-356.8" font-family="Helvetica,sans-Serif" font-size="11.00" fill="#000000"> &#160;</text>
<polygon fill="#ffffff" stroke="transparent" points="368.5,-350.7 368.5,-369.7 434.5,-369.7 434.5,-350.7 368.5,-350.7"/>
<polygon fill="none" stroke="#000000" points="368.5,-350.7 368.5,-369.7 434.5,-369.7 434.5,-350.7 368.5,-350.7"/>
<text text-anchor="start" x="415.9053" y="-356.8" font-family="Helvetica,sans-Serif" font-size="11.00" fill="#000000">0 &gt;</text>
<polygon fill="none" stroke="#000000" stroke-width="2" points="228,-349.7 228,-503.7 435,-503.7 435,-349.7 228,-349.7"/>
</a>
</g>
</g>
<!-- cases -->
<g id="node2" class="node">
<title>cases</title>
<g id="a_node2"><a xlink:href="../../tables/cases.html" xlink:title="cases" target="_top">
<polygon fill="#ffffff" stroke="transparent" points="8,-38.2 8,-319.2 178,-319.2 178,-38.2 8,-38.2"/>
<polygon fill="#f5f5f5" stroke="transparent" points="8,-295.7 8,-318.7 178,-318.7 178,-295.7 8,-295.7"/>
<polygon fill="none" stroke="#000000" points="8,-295.7 8,-318.7 178,-318.7 178,-295.7 8,-295.7"/>
<text text-anchor="start" x="13" y="-304.8" font-family="Helvetica,sans-Serif" font-weight="bold" font-size="11.00" fill="#000000">cases</text>
<text text-anchor="start" x="143.0437" y="-303.8" font-family="Helvetica,sans-Serif" font-size="11.00" fill="#000000">[table]</text>
<polygon fill="none" stroke="#000000" points="8,-273.7 8,-295.7 178,-295.7 178,-273.7 8,-273.7"/>
<image xlink:href="../../images/primaryKeys.png" width="11px" height="12px" preserveAspectRatio="xMinYMin meet" x="13" y="-290.7"/>
<text text-anchor="start" x="28" y="-280.8" font-family="Helvetica,sans-Serif" font-size="11.00" fill="#000000">id</text>
<polygon fill="#ffffff" stroke="transparent" points="8,-251.7 8,-273.7 178,-273.7 178,-251.7 8,-251.7"/>
<polygon fill="none" stroke="#000000" points="8,-251.7 8,-273.7 178,-273.7 178,-251.7 8,-251.7"/>
<text text-anchor="start" x="28" y="-258.8" font-family="Helvetica,sans-Serif" font-size="11.00" fill="#000000">name</text>
<polygon fill="#c0c0c0" stroke="transparent" points="8,-229.7 8,-251.7 178,-251.7 178,-229.7 8,-229.7"/>
<polygon fill="none" stroke="#000000" points="8,-229.7 8,-251.7 178,-251.7 178,-229.7 8,-229.7"/>
<image xlink:href="../../images/foreignKeys.png" width="11px" height="12px" preserveAspectRatio="xMinYMin meet" x="13" y="-246.7"/>
<text text-anchor="start" x="28" y="-236.8" font-family="Helvetica,sans-Serif" font-size="11.00" fill="#000000">modified_user_id</text>
<polygon fill="#c0c0c0" stroke="transparent" points="8,-207.7 8,-229.7 178,-229.7 178,-207.7 8,-207.7"/>
<polygon fill="none" stroke="#000000" points="8,-207.7 8,-229.7 178,-229.7 178,-207.7 8,-207.7"/>
<image xlink:href="../../images/foreignKeys.png" width="11px" height="12px" preserveAspectRatio="xMinYMin meet" x="13" y="-224.7"/>
<text text-anchor="start" x="28" y="-214.8" font-family="Helvetica,sans-Serif" font-size="11.00" fill="#000000">created_by</text>
<polygon fill="#ffffff" stroke="transparent" points="8,-185.7 8,-207.7 178,-207.7 178,-185.7 8,-185.7"/>
<polygon fill="none" stroke="#000000" points="8,-185.7 8,-207.7 178,-207.7 178,-185.7 8,-185.7"/>
<text text-anchor="start" x="28" y="-192.8" font-family="Helvetica,sans-Serif" font-size="11.00" fill="#000000">deleted</text>
<polygon fill="#c0c0c0" stroke="transparent" points="8,-163.7 8,-185.7 178,-185.7 178,-163.7 8,-163.7"/>
<polygon fill="none" stroke="#000000" points="8,-163.7 8,-185.7 178,-185.7 178,-163.7 8,-163.7"/>
<image xlink:href="../../images/foreignKeys.png" width="11px" height="12px" preserveAspectRatio="xMinYMin meet" x="13" y="-180.7"/>
<text text-anchor="start" x="28" y="-170.8" font-family="Helvetica,sans-Serif" font-size="11.00" fill="#000000">assigned_user_id</text>
<polygon fill="#ffffff" stroke="transparent" points="8,-141.7 8,-163.7 178,-163.7 178,-141.7 8,-141.7"/>
<polygon fill="none" stroke="#000000" points="8,-141.7 8,-163.7 178,-163.7 178,-141.7 8,-141.7"/>
<text text-anchor="start" x="28" y="-148.8" font-family="Helvetica,sans-Serif" font-size="11.00" fill="#000000">case_number</text>
<polygon fill="#ffffff" stroke="transparent" points="8,-119.7 8,-141.7 178,-141.7 178,-119.7 8,-119.7"/>
<polygon fill="none" stroke="#000000" points="8,-119.7 8,-141.7 178,-141.7 178,-119.7 8,-119.7"/>
<text text-anchor="start" x="28" y="-126.8" font-family="Helvetica,sans-Serif" font-size="11.00" fill="#000000">status</text>
<polygon fill="#ffffff" stroke="transparent" points="8,-97.7 8,-119.7 178,-119.7 178,-97.7 8,-97.7"/>
<polygon fill="none" stroke="#000000" points="8,-97.7 8,-119.7 178,-119.7 178,-97.7 8,-97.7"/>
<image xlink:href="../../images/foreignKeys.png" width="11px" height="12px" preserveAspectRatio="xMinYMin meet" x="13" y="-114.7"/>
<text text-anchor="start" x="28" y="-104.8" font-family="Helvetica,sans-Serif" font-size="11.00" fill="#000000">account_id</text>
<polygon fill="none" stroke="#000000" points="8,-75.7 8,-97.7 178,-97.7 178,-75.7 8,-75.7"/>
<image xlink:href="../../images/foreignKeys.png" width="11px" height="12px" preserveAspectRatio="xMinYMin meet" x="13" y="-92.7"/>
<text text-anchor="start" x="28" y="-82.8" font-family="Helvetica,sans-Serif" font-size="11.00" fill="#000000">contact_created_by_id</text>
<polygon fill="none" stroke="#000000" points="8,-56.7 8,-75.7 178,-75.7 178,-56.7 8,-56.7"/>
<text text-anchor="start" x="11" y="-62.8" font-family="Helvetica,sans-Serif" font-size="11.00" fill="#000000">...</text>
<polygon fill="#ffffff" stroke="transparent" points="8,-37.7 8,-56.7 84,-56.7 84,-37.7 8,-37.7"/>
<polygon fill="none" stroke="#000000" points="8,-37.7 8,-56.7 84,-56.7 84,-37.7 8,-37.7"/>
<text text-anchor="start" x="11" y="-43.8" font-family="Helvetica,sans-Serif" font-size="11.00" fill="#000000">&lt; 6</text>
<polygon fill="#ffffff" stroke="transparent" points="84,-37.7 84,-56.7 123,-56.7 123,-37.7 84,-37.7"/>
<polygon fill="none" stroke="#000000" points="84,-37.7 84,-56.7 123,-56.7 123,-37.7 84,-37.7"/>
<text text-anchor="start" x="113.8862" y="-43.8" font-family="Helvetica,sans-Serif" font-size="11.00" fill="#000000"> &#160;</text>
<polygon fill="#ffffff" stroke="transparent" points="123,-37.7 123,-56.7 178,-56.7 178,-37.7 123,-37.7"/>
<polygon fill="none" stroke="#000000" points="123,-37.7 123,-56.7 178,-56.7 178,-37.7 123,-37.7"/>
<text text-anchor="start" x="153.2904" y="-43.8" font-family="Helvetica,sans-Serif" font-size="11.00" fill="#000000">15 &gt;</text>
</a>
</g>
</g>
<!-- documents_cases&#45;&gt;cases -->
<g id="edge1" class="edge">
<title>documents_cases:w&#45;&gt;cases:e</title>
<path fill="none" stroke="#000000" d="M215.3716,-376.575C190.9509,-358.2 220.3661,-284.7 178,-284.7"/>
<polygon fill="#000000" stroke="#000000" points="221.8206,-378.4578 228.491,-384.1557 225.6603,-379.5789 229.5,-380.7 229.5,-380.7 229.5,-380.7 225.6603,-379.5789 230.509,-377.2443 221.8206,-378.4578 221.8206,-378.4578"/>
<ellipse fill="none" stroke="#000000" cx="218.7489" cy="-377.561" rx="3.2" ry="3.2"/>
</g>
<!-- documents -->
<g id="node3" class="node">
<title>documents</title>
<g id="a_node3"><a xlink:href="../../tables/documents.html" xlink:title="documents" target="_top">
<polygon fill="#ffffff" stroke="transparent" points="9.5,-340.2 9.5,-533.2 176.5,-533.2 176.5,-340.2 9.5,-340.2"/>
<polygon fill="#f5f5f5" stroke="transparent" points="10,-509.7 10,-532.7 177,-532.7 177,-509.7 10,-509.7"/>
<polygon fill="none" stroke="#000000" points="10,-509.7 10,-532.7 177,-532.7 177,-509.7 10,-509.7"/>
<text text-anchor="start" x="15" y="-518.8" font-family="Helvetica,sans-Serif" font-weight="bold" font-size="11.00" fill="#000000">documents</text>
<text text-anchor="start" x="142.0437" y="-517.8" font-family="Helvetica,sans-Serif" font-size="11.00" fill="#000000">[table]</text>
<polygon fill="none" stroke="#000000" points="10,-487.7 10,-509.7 177,-509.7 177,-487.7 10,-487.7"/>
<image xlink:href="../../images/primaryKeys.png" width="11px" height="12px" preserveAspectRatio="xMinYMin meet" x="15" y="-504.7"/>
<text text-anchor="start" x="30" y="-494.8" font-family="Helvetica,sans-Serif" font-size="11.00" fill="#000000">id</text>
<polygon fill="#c0c0c0" stroke="transparent" points="10,-465.7 10,-487.7 177,-487.7 177,-465.7 10,-465.7"/>
<polygon fill="none" stroke="#000000" points="10,-465.7 10,-487.7 177,-487.7 177,-465.7 10,-465.7"/>
<image xlink:href="../../images/foreignKeys.png" width="11px" height="12px" preserveAspectRatio="xMinYMin meet" x="15" y="-482.7"/>
<text text-anchor="start" x="30" y="-472.8" font-family="Helvetica,sans-Serif" font-size="11.00" fill="#000000">modified_user_id</text>
<polygon fill="#c0c0c0" stroke="transparent" points="10,-443.7 10,-465.7 177,-465.7 177,-443.7 10,-443.7"/>
<polygon fill="none" stroke="#000000" points="10,-443.7 10,-465.7 177,-465.7 177,-443.7 10,-443.7"/>
<image xlink:href="../../images/foreignKeys.png" width="11px" height="12px" preserveAspectRatio="xMinYMin meet" x="15" y="-460.7"/>
<text text-anchor="start" x="30" y="-450.8" font-family="Helvetica,sans-Serif" font-size="11.00" fill="#000000">created_by</text>
<polygon fill="#c0c0c0" stroke="transparent" points="10,-421.7 10,-443.7 177,-443.7 177,-421.7 10,-421.7"/>
<polygon fill="none" stroke="#000000" points="10,-421.7 10,-443.7 177,-443.7 177,-421.7 10,-421.7"/>
<image xlink:href="../../images/foreignKeys.png" width="11px" height="12px" preserveAspectRatio="xMinYMin meet" x="15" y="-438.7"/>
<text text-anchor="start" x="30" y="-428.8" font-family="Helvetica,sans-Serif" font-size="11.00" fill="#000000">assigned_user_id</text>
<polygon fill="#ffffff" stroke="transparent" points="10,-399.7 10,-421.7 177,-421.7 177,-399.7 10,-399.7"/>
<polygon fill="none" stroke="#000000" points="10,-399.7 10,-421.7 177,-421.7 177,-399.7 10,-399.7"/>
<text text-anchor="start" x="30" y="-406.8" font-family="Helvetica,sans-Serif" font-size="11.00" fill="#000000">category_id</text>
<polygon fill="#ffffff" stroke="transparent" points="10,-377.7 10,-399.7 177,-399.7 177,-377.7 10,-377.7"/>
<polygon fill="none" stroke="#000000" points="10,-377.7 10,-399.7 177,-399.7 177,-377.7 10,-377.7"/>
<text text-anchor="start" x="30" y="-384.8" font-family="Helvetica,sans-Serif" font-size="11.00" fill="#000000">subcategory_id</text>
<polygon fill="none" stroke="#000000" points="10,-358.7 10,-377.7 177,-377.7 177,-358.7 10,-358.7"/>
<text text-anchor="start" x="13" y="-364.8" font-family="Helvetica,sans-Serif" font-size="11.00" fill="#000000">...</text>
<polygon fill="#ffffff" stroke="transparent" points="10,-339.7 10,-358.7 87,-358.7 87,-339.7 10,-339.7"/>
<polygon fill="none" stroke="#000000" points="10,-339.7 10,-358.7 87,-358.7 87,-339.7 10,-339.7"/>
<text text-anchor="start" x="13" y="-345.8" font-family="Helvetica,sans-Serif" font-size="11.00" fill="#000000">&lt; 3</text>
<polygon fill="#ffffff" stroke="transparent" points="87,-339.7 87,-358.7 127,-358.7 127,-339.7 87,-339.7"/>
<polygon fill="none" stroke="#000000" points="87,-339.7 87,-358.7 127,-358.7 127,-339.7 87,-339.7"/>
<text text-anchor="start" x="117.8862" y="-345.8" font-family="Helvetica,sans-Serif" font-size="11.00" fill="#000000"> &#160;</text>
<polygon fill="#ffffff" stroke="transparent" points="127,-339.7 127,-358.7 177,-358.7 177,-339.7 127,-339.7"/>
<polygon fill="none" stroke="#000000" points="127,-339.7 127,-358.7 177,-358.7 177,-339.7 127,-339.7"/>
<text text-anchor="start" x="158.4053" y="-345.8" font-family="Helvetica,sans-Serif" font-size="11.00" fill="#000000">9 &gt;</text>
</a>
</g>
</g>
<!-- documents_cases&#45;&gt;documents -->
<g id="edge2" class="edge">
<title>documents_cases:w&#45;&gt;documents:e</title>
<path fill="none" stroke="#000000" d="M215.6103,-406.5822C190.3408,-424.5423 219.7413,-498.7 177,-498.7"/>
<polygon fill="#000000" stroke="#000000" points="221.7953,-404.8535 230.4691,-406.1671 225.6476,-403.7768 229.5,-402.7 229.5,-402.7 229.5,-402.7 225.6476,-403.7768 228.5309,-399.2329 221.7953,-404.8535 221.7953,-404.8535"/>
<ellipse fill="none" stroke="#000000" cx="218.7134" cy="-405.7149" rx="3.2" ry="3.2"/>
</g>
</g>
</svg>
