<?xml version="1.0" encoding="UTF-8" standalone="no"?>
<!DOCTYPE svg PUBLIC "-//W3C//DTD SVG 1.1//EN"
 "http://www.w3.org/Graphics/SVG/1.1/DTD/svg11.dtd">
<!-- Generated by graphviz version 2.40.1 (20161225.0304)
 -->
<!-- Title: oneDegreeRelationshipsDiagram Pages: 1 -->
<svg width="515pt" height="523pt"
 viewBox="0.00 0.00 515.00 523.20" xmlns="http://www.w3.org/2000/svg" xmlns:xlink="http://www.w3.org/1999/xlink">
<g id="graph0" class="graph" transform="scale(1 1) rotate(0) translate(4 519.2)">
<title>oneDegreeRelationshipsDiagram</title>
<polygon fill="#ffffff" stroke="transparent" points="-4,4 -4,-519.2 511,-519.2 511,4 -4,4"/>
<text text-anchor="middle" x="72.4936" y="-7.3" font-family="Helvetica,sans-Serif" font-size="11.00" fill="#000000">Generated by SchemaSpy</text>
<!-- documents_contacts -->
<g id="node1" class="node">
<title>documents_contacts</title>
<g id="a_node1"><a xlink:href="../../tables/documents_contacts.html" xlink:title="documents_contacts" target="_top">
<polygon fill="#ffffff" stroke="transparent" points="270,-326.7 270,-482.7 499,-482.7 499,-326.7 270,-326.7"/>
<polygon fill="#f5f5f5" stroke="transparent" points="272.5,-457.7 272.5,-480.7 497.5,-480.7 497.5,-457.7 272.5,-457.7"/>
<polygon fill="none" stroke="#000000" points="272.5,-457.7 272.5,-480.7 497.5,-480.7 497.5,-457.7 272.5,-457.7"/>
<text text-anchor="start" x="277.5" y="-466.8" font-family="Helvetica,sans-Serif" font-weight="bold" font-size="11.00" fill="#000000">documents_contacts</text>
<text text-anchor="start" x="462.5437" y="-465.8" font-family="Helvetica,sans-Serif" font-size="11.00" fill="#000000">[table]</text>
<polygon fill="none" stroke="#000000" points="272.5,-435.7 272.5,-457.7 431.5,-457.7 431.5,-435.7 272.5,-435.7"/>
<image xlink:href="../../images/primaryKeys.png" width="11px" height="12px" preserveAspectRatio="xMinYMin meet" x="277.5" y="-452.7"/>
<text text-anchor="start" x="292.5" y="-442.8" font-family="Helvetica,sans-Serif" font-size="11.00" fill="#000000">id</text>
<polygon fill="none" stroke="#000000" points="431.5,-435.7 431.5,-457.7 497.5,-457.7 497.5,-435.7 431.5,-435.7"/>
<text text-anchor="start" x="434.5" y="-443.4" font-family="Helvetica,sans-Serif" font-size="11.00" fill="#000000">varchar[36]</text>
<polygon fill="none" stroke="#000000" points="272.5,-413.7 272.5,-435.7 431.5,-435.7 431.5,-413.7 272.5,-413.7"/>
<text text-anchor="start" x="292.5" y="-420.8" font-family="Helvetica,sans-Serif" font-size="11.00" fill="#000000">date_modified</text>
<polygon fill="none" stroke="#000000" points="431.5,-413.7 431.5,-435.7 497.5,-435.7 497.5,-413.7 431.5,-413.7"/>
<text text-anchor="start" x="434.2401" y="-421.4" font-family="Helvetica,sans-Serif" font-size="11.00" fill="#000000">datetime[26]</text>
<polygon fill="none" stroke="#000000" points="272.5,-391.7 272.5,-413.7 431.5,-413.7 431.5,-391.7 272.5,-391.7"/>
<text text-anchor="start" x="292.5" y="-398.8" font-family="Helvetica,sans-Serif" font-size="11.00" fill="#000000">deleted</text>
<polygon fill="none" stroke="#000000" points="431.5,-391.7 431.5,-413.7 497.5,-413.7 497.5,-391.7 431.5,-391.7"/>
<text text-anchor="start" x="434.5" y="-399.4" font-family="Helvetica,sans-Serif" font-size="11.00" fill="#000000">bit[1]</text>
<polygon fill="#ffffff" stroke="transparent" points="272.5,-369.7 272.5,-391.7 431.5,-391.7 431.5,-369.7 272.5,-369.7"/>
<polygon fill="none" stroke="#000000" points="272.5,-369.7 272.5,-391.7 431.5,-391.7 431.5,-369.7 272.5,-369.7"/>
<image xlink:href="../../images/foreignKeys.png" width="11px" height="12px" preserveAspectRatio="xMinYMin meet" x="277.5" y="-386.7"/>
<text text-anchor="start" x="292.5" y="-376.8" font-family="Helvetica,sans-Serif" font-size="11.00" fill="#000000">document_id</text>
<polygon fill="none" stroke="#000000" points="431.5,-369.7 431.5,-391.7 497.5,-391.7 497.5,-369.7 431.5,-369.7"/>
<text text-anchor="start" x="434.5" y="-377.4" font-family="Helvetica,sans-Serif" font-size="11.00" fill="#000000">varchar[36]</text>
<polygon fill="#ffffff" stroke="transparent" points="272.5,-347.7 272.5,-369.7 431.5,-369.7 431.5,-347.7 272.5,-347.7"/>
<polygon fill="none" stroke="#000000" points="272.5,-347.7 272.5,-369.7 431.5,-369.7 431.5,-347.7 272.5,-347.7"/>
<image xlink:href="../../images/foreignKeys.png" width="11px" height="12px" preserveAspectRatio="xMinYMin meet" x="277.5" y="-364.7"/>
<text text-anchor="start" x="292.5" y="-354.8" font-family="Helvetica,sans-Serif" font-size="11.00" fill="#000000">contact_id</text>
<polygon fill="none" stroke="#000000" points="431.5,-347.7 431.5,-369.7 497.5,-369.7 497.5,-347.7 431.5,-347.7"/>
<text text-anchor="start" x="434.5" y="-355.4" font-family="Helvetica,sans-Serif" font-size="11.00" fill="#000000">varchar[36]</text>
<polygon fill="#ffffff" stroke="transparent" points="272.5,-328.7 272.5,-347.7 356.5,-347.7 356.5,-328.7 272.5,-328.7"/>
<polygon fill="none" stroke="#000000" points="272.5,-328.7 272.5,-347.7 356.5,-347.7 356.5,-328.7 272.5,-328.7"/>
<text text-anchor="start" x="275.5" y="-334.8" font-family="Helvetica,sans-Serif" font-size="11.00" fill="#000000">&lt; 2</text>
<polygon fill="#ffffff" stroke="transparent" points="356.5,-328.7 356.5,-347.7 431.5,-347.7 431.5,-328.7 356.5,-328.7"/>
<polygon fill="none" stroke="#000000" points="356.5,-328.7 356.5,-347.7 431.5,-347.7 431.5,-328.7 356.5,-328.7"/>
<text text-anchor="start" x="422.3862" y="-334.8" font-family="Helvetica,sans-Serif" font-size="11.00" fill="#000000"> &#160;</text>
<polygon fill="#ffffff" stroke="transparent" points="431.5,-328.7 431.5,-347.7 497.5,-347.7 497.5,-328.7 431.5,-328.7"/>
<polygon fill="none" stroke="#000000" points="431.5,-328.7 431.5,-347.7 497.5,-347.7 497.5,-328.7 431.5,-328.7"/>
<text text-anchor="start" x="478.9053" y="-334.8" font-family="Helvetica,sans-Serif" font-size="11.00" fill="#000000">0 &gt;</text>
<polygon fill="none" stroke="#000000" stroke-width="2" points="271,-327.7 271,-481.7 498,-481.7 498,-327.7 271,-327.7"/>
</a>
</g>
</g>
<!-- contacts -->
<g id="node2" class="node">
<title>contacts</title>
<g id="a_node2"><a xlink:href="../../tables/contacts.html" xlink:title="contacts" target="_top">
<polygon fill="#ffffff" stroke="transparent" points="8,-38.2 8,-297.2 221,-297.2 221,-38.2 8,-38.2"/>
<polygon fill="#f5f5f5" stroke="transparent" points="8.5,-273.7 8.5,-296.7 221.5,-296.7 221.5,-273.7 8.5,-273.7"/>
<polygon fill="none" stroke="#000000" points="8.5,-273.7 8.5,-296.7 221.5,-296.7 221.5,-273.7 8.5,-273.7"/>
<text text-anchor="start" x="13.5" y="-282.8" font-family="Helvetica,sans-Serif" font-weight="bold" font-size="11.00" fill="#000000">contacts</text>
<text text-anchor="start" x="186.5437" y="-281.8" font-family="Helvetica,sans-Serif" font-size="11.00" fill="#000000">[table]</text>
<polygon fill="none" stroke="#000000" points="8.5,-251.7 8.5,-273.7 221.5,-273.7 221.5,-251.7 8.5,-251.7"/>
<image xlink:href="../../images/primaryKeys.png" width="11px" height="12px" preserveAspectRatio="xMinYMin meet" x="13.5" y="-268.7"/>
<text text-anchor="start" x="28.5" y="-258.8" font-family="Helvetica,sans-Serif" font-size="11.00" fill="#000000">id</text>
<polygon fill="#c0c0c0" stroke="transparent" points="8.5,-229.7 8.5,-251.7 221.5,-251.7 221.5,-229.7 8.5,-229.7"/>
<polygon fill="none" stroke="#000000" points="8.5,-229.7 8.5,-251.7 221.5,-251.7 221.5,-229.7 8.5,-229.7"/>
<image xlink:href="../../images/foreignKeys.png" width="11px" height="12px" preserveAspectRatio="xMinYMin meet" x="13.5" y="-246.7"/>
<text text-anchor="start" x="28.5" y="-236.8" font-family="Helvetica,sans-Serif" font-size="11.00" fill="#000000">modified_user_id</text>
<polygon fill="#c0c0c0" stroke="transparent" points="8.5,-207.7 8.5,-229.7 221.5,-229.7 221.5,-207.7 8.5,-207.7"/>
<polygon fill="none" stroke="#000000" points="8.5,-207.7 8.5,-229.7 221.5,-229.7 221.5,-207.7 8.5,-207.7"/>
<image xlink:href="../../images/foreignKeys.png" width="11px" height="12px" preserveAspectRatio="xMinYMin meet" x="13.5" y="-224.7"/>
<text text-anchor="start" x="28.5" y="-214.8" font-family="Helvetica,sans-Serif" font-size="11.00" fill="#000000">created_by</text>
<polygon fill="#ffffff" stroke="transparent" points="8.5,-185.7 8.5,-207.7 221.5,-207.7 221.5,-185.7 8.5,-185.7"/>
<polygon fill="none" stroke="#000000" points="8.5,-185.7 8.5,-207.7 221.5,-207.7 221.5,-185.7 8.5,-185.7"/>
<text text-anchor="start" x="28.5" y="-192.8" font-family="Helvetica,sans-Serif" font-size="11.00" fill="#000000">deleted</text>
<polygon fill="#c0c0c0" stroke="transparent" points="8.5,-163.7 8.5,-185.7 221.5,-185.7 221.5,-163.7 8.5,-163.7"/>
<polygon fill="none" stroke="#000000" points="8.5,-163.7 8.5,-185.7 221.5,-185.7 221.5,-163.7 8.5,-163.7"/>
<image xlink:href="../../images/foreignKeys.png" width="11px" height="12px" preserveAspectRatio="xMinYMin meet" x="13.5" y="-180.7"/>
<text text-anchor="start" x="28.5" y="-170.8" font-family="Helvetica,sans-Serif" font-size="11.00" fill="#000000">assigned_user_id</text>
<polygon fill="#ffffff" stroke="transparent" points="8.5,-141.7 8.5,-163.7 221.5,-163.7 221.5,-141.7 8.5,-141.7"/>
<polygon fill="none" stroke="#000000" points="8.5,-141.7 8.5,-163.7 221.5,-163.7 221.5,-141.7 8.5,-141.7"/>
<text text-anchor="start" x="28.5" y="-148.8" font-family="Helvetica,sans-Serif" font-size="11.00" fill="#000000">first_name</text>
<polygon fill="#ffffff" stroke="transparent" points="8.5,-119.7 8.5,-141.7 221.5,-141.7 221.5,-119.7 8.5,-119.7"/>
<polygon fill="none" stroke="#000000" points="8.5,-119.7 8.5,-141.7 221.5,-141.7 221.5,-119.7 8.5,-119.7"/>
<text text-anchor="start" x="28.5" y="-126.8" font-family="Helvetica,sans-Serif" font-size="11.00" fill="#000000">last_name</text>
<polygon fill="#ffffff" stroke="transparent" points="8.5,-97.7 8.5,-119.7 221.5,-119.7 221.5,-97.7 8.5,-97.7"/>
<polygon fill="none" stroke="#000000" points="8.5,-97.7 8.5,-119.7 221.5,-119.7 221.5,-97.7 8.5,-97.7"/>
<image xlink:href="../../images/foreignKeys.png" width="11px" height="12px" preserveAspectRatio="xMinYMin meet" x="13.5" y="-114.7"/>
<text text-anchor="start" x="28.5" y="-104.8" font-family="Helvetica,sans-Serif" font-size="11.00" fill="#000000">reports_to_id</text>
<polygon fill="none" stroke="#000000" points="8.5,-75.7 8.5,-97.7 221.5,-97.7 221.5,-75.7 8.5,-75.7"/>
<image xlink:href="../../images/foreignKeys.png" width="11px" height="12px" preserveAspectRatio="xMinYMin meet" x="13.5" y="-92.7"/>
<text text-anchor="start" x="28.5" y="-82.8" font-family="Helvetica,sans-Serif" font-size="11.00" fill="#000000">campaign_id</text>
<polygon fill="none" stroke="#000000" points="8.5,-56.7 8.5,-75.7 221.5,-75.7 221.5,-56.7 8.5,-56.7"/>
<text text-anchor="start" x="11.5" y="-62.8" font-family="Helvetica,sans-Serif" font-size="11.00" fill="#000000">...</text>
<polygon fill="#ffffff" stroke="transparent" points="8.5,-37.7 8.5,-56.7 105.5,-56.7 105.5,-37.7 8.5,-37.7"/>
<polygon fill="none" stroke="#000000" points="8.5,-37.7 8.5,-56.7 105.5,-56.7 105.5,-37.7 8.5,-37.7"/>
<text text-anchor="start" x="11.5" y="-43.8" font-family="Helvetica,sans-Serif" font-size="11.00" fill="#000000">&lt; 7</text>
<polygon fill="#ffffff" stroke="transparent" points="105.5,-37.7 105.5,-56.7 155.5,-56.7 155.5,-37.7 105.5,-37.7"/>
<polygon fill="none" stroke="#000000" points="105.5,-37.7 105.5,-56.7 155.5,-56.7 155.5,-37.7 105.5,-37.7"/>
<text text-anchor="start" x="146.3862" y="-43.8" font-family="Helvetica,sans-Serif" font-size="11.00" fill="#000000"> &#160;</text>
<polygon fill="#ffffff" stroke="transparent" points="155.5,-37.7 155.5,-56.7 221.5,-56.7 221.5,-37.7 155.5,-37.7"/>
<polygon fill="none" stroke="#000000" points="155.5,-37.7 155.5,-56.7 221.5,-56.7 221.5,-37.7 155.5,-37.7"/>
<text text-anchor="start" x="196.7904" y="-43.8" font-family="Helvetica,sans-Serif" font-size="11.00" fill="#000000">30 &gt;</text>
</a>
</g>
</g>
<!-- documents_contacts&#45;&gt;contacts -->
<g id="edge1" class="edge">
<title>documents_contacts:w&#45;&gt;contacts:e</title>
<path fill="none" stroke="#000000" d="M258.4189,-354.575C234.1253,-336.2 263.7746,-262.7 221.5,-262.7"/>
<polygon fill="#000000" stroke="#000000" points="264.8226,-356.4509 271.4879,-362.1548 268.6613,-357.5755 272.5,-358.7 272.5,-358.7 272.5,-358.7 268.6613,-357.5755 273.5121,-355.2452 264.8226,-356.4509 264.8226,-356.4509"/>
<ellipse fill="none" stroke="#000000" cx="261.7517" cy="-355.5513" rx="3.2" ry="3.2"/>
</g>
<!-- documents -->
<g id="node3" class="node">
<title>documents</title>
<g id="a_node3"><a xlink:href="../../tables/documents.html" xlink:title="documents" target="_top">
<polygon fill="#ffffff" stroke="transparent" points="31,-318.2 31,-511.2 198,-511.2 198,-318.2 31,-318.2"/>
<polygon fill="#f5f5f5" stroke="transparent" points="31.5,-487.7 31.5,-510.7 198.5,-510.7 198.5,-487.7 31.5,-487.7"/>
<polygon fill="none" stroke="#000000" points="31.5,-487.7 31.5,-510.7 198.5,-510.7 198.5,-487.7 31.5,-487.7"/>
<text text-anchor="start" x="36.5" y="-496.8" font-family="Helvetica,sans-Serif" font-weight="bold" font-size="11.00" fill="#000000">documents</text>
<text text-anchor="start" x="163.5437" y="-495.8" font-family="Helvetica,sans-Serif" font-size="11.00" fill="#000000">[table]</text>
<polygon fill="none" stroke="#000000" points="31.5,-465.7 31.5,-487.7 198.5,-487.7 198.5,-465.7 31.5,-465.7"/>
<image xlink:href="../../images/primaryKeys.png" width="11px" height="12px" preserveAspectRatio="xMinYMin meet" x="36.5" y="-482.7"/>
<text text-anchor="start" x="51.5" y="-472.8" font-family="Helvetica,sans-Serif" font-size="11.00" fill="#000000">id</text>
<polygon fill="#c0c0c0" stroke="transparent" points="31.5,-443.7 31.5,-465.7 198.5,-465.7 198.5,-443.7 31.5,-443.7"/>
<polygon fill="none" stroke="#000000" points="31.5,-443.7 31.5,-465.7 198.5,-465.7 198.5,-443.7 31.5,-443.7"/>
<image xlink:href="../../images/foreignKeys.png" width="11px" height="12px" preserveAspectRatio="xMinYMin meet" x="36.5" y="-460.7"/>
<text text-anchor="start" x="51.5" y="-450.8" font-family="Helvetica,sans-Serif" font-size="11.00" fill="#000000">modified_user_id</text>
<polygon fill="#c0c0c0" stroke="transparent" points="31.5,-421.7 31.5,-443.7 198.5,-443.7 198.5,-421.7 31.5,-421.7"/>
<polygon fill="none" stroke="#000000" points="31.5,-421.7 31.5,-443.7 198.5,-443.7 198.5,-421.7 31.5,-421.7"/>
<image xlink:href="../../images/foreignKeys.png" width="11px" height="12px" preserveAspectRatio="xMinYMin meet" x="36.5" y="-438.7"/>
<text text-anchor="start" x="51.5" y="-428.8" font-family="Helvetica,sans-Serif" font-size="11.00" fill="#000000">created_by</text>
<polygon fill="#c0c0c0" stroke="transparent" points="31.5,-399.7 31.5,-421.7 198.5,-421.7 198.5,-399.7 31.5,-399.7"/>
<polygon fill="none" stroke="#000000" points="31.5,-399.7 31.5,-421.7 198.5,-421.7 198.5,-399.7 31.5,-399.7"/>
<image xlink:href="../../images/foreignKeys.png" width="11px" height="12px" preserveAspectRatio="xMinYMin meet" x="36.5" y="-416.7"/>
<text text-anchor="start" x="51.5" y="-406.8" font-family="Helvetica,sans-Serif" font-size="11.00" fill="#000000">assigned_user_id</text>
<polygon fill="#ffffff" stroke="transparent" points="31.5,-377.7 31.5,-399.7 198.5,-399.7 198.5,-377.7 31.5,-377.7"/>
<polygon fill="none" stroke="#000000" points="31.5,-377.7 31.5,-399.7 198.5,-399.7 198.5,-377.7 31.5,-377.7"/>
<text text-anchor="start" x="51.5" y="-384.8" font-family="Helvetica,sans-Serif" font-size="11.00" fill="#000000">category_id</text>
<polygon fill="#ffffff" stroke="transparent" points="31.5,-355.7 31.5,-377.7 198.5,-377.7 198.5,-355.7 31.5,-355.7"/>
<polygon fill="none" stroke="#000000" points="31.5,-355.7 31.5,-377.7 198.5,-377.7 198.5,-355.7 31.5,-355.7"/>
<text text-anchor="start" x="51.5" y="-362.8" font-family="Helvetica,sans-Serif" font-size="11.00" fill="#000000">subcategory_id</text>
<polygon fill="none" stroke="#000000" points="31.5,-336.7 31.5,-355.7 198.5,-355.7 198.5,-336.7 31.5,-336.7"/>
<text text-anchor="start" x="34.5" y="-342.8" font-family="Helvetica,sans-Serif" font-size="11.00" fill="#000000">...</text>
<polygon fill="#ffffff" stroke="transparent" points="31.5,-317.7 31.5,-336.7 108.5,-336.7 108.5,-317.7 31.5,-317.7"/>
<polygon fill="none" stroke="#000000" points="31.5,-317.7 31.5,-336.7 108.5,-336.7 108.5,-317.7 31.5,-317.7"/>
<text text-anchor="start" x="34.5" y="-323.8" font-family="Helvetica,sans-Serif" font-size="11.00" fill="#000000">&lt; 3</text>
<polygon fill="#ffffff" stroke="transparent" points="108.5,-317.7 108.5,-336.7 148.5,-336.7 148.5,-317.7 108.5,-317.7"/>
<polygon fill="none" stroke="#000000" points="108.5,-317.7 108.5,-336.7 148.5,-336.7 148.5,-317.7 108.5,-317.7"/>
<text text-anchor="start" x="139.3862" y="-323.8" font-family="Helvetica,sans-Serif" font-size="11.00" fill="#000000"> &#160;</text>
<polygon fill="#ffffff" stroke="transparent" points="148.5,-317.7 148.5,-336.7 198.5,-336.7 198.5,-317.7 148.5,-317.7"/>
<polygon fill="none" stroke="#000000" points="148.5,-317.7 148.5,-336.7 198.5,-336.7 198.5,-317.7 148.5,-317.7"/>
<text text-anchor="start" x="179.9053" y="-323.8" font-family="Helvetica,sans-Serif" font-size="11.00" fill="#000000">9 &gt;</text>
</a>
</g>
</g>
<!-- documents_contacts&#45;&gt;documents -->
<g id="edge2" class="edge">
<title>documents_contacts:w&#45;&gt;documents:e</title>
<path fill="none" stroke="#000000" d="M258.173,-383.6784C224.7717,-399.8821 246.6896,-476.7 198.5,-476.7"/>
<polygon fill="#000000" stroke="#000000" points="264.6675,-382.3283 273.2327,-384.2246 268.5837,-381.5142 272.5,-380.7 272.5,-380.7 272.5,-380.7 268.5837,-381.5142 271.7673,-377.1754 264.6675,-382.3283 264.6675,-382.3283"/>
<ellipse fill="none" stroke="#000000" cx="261.5344" cy="-382.9796" rx="3.2" ry="3.2"/>
</g>
</g>
</svg>
