<?xml version="1.0" encoding="UTF-8" standalone="no"?>
<!DOCTYPE svg PUBLIC "-//W3C//DTD SVG 1.1//EN"
 "http://www.w3.org/Graphics/SVG/1.1/DTD/svg11.dtd">
<!-- Generated by graphviz version 2.40.1 (20161225.0304)
 -->
<!-- Title: oneDegreeRelationshipsDiagram Pages: 1 -->
<svg width="509pt" height="488pt"
 viewBox="0.00 0.00 509.00 487.70" xmlns="http://www.w3.org/2000/svg" xmlns:xlink="http://www.w3.org/1999/xlink">
<g id="graph0" class="graph" transform="scale(1 1) rotate(0) translate(4 483.7)">
<title>oneDegreeRelationshipsDiagram</title>
<polygon fill="#ffffff" stroke="transparent" points="-4,4 -4,-483.7 505,-483.7 505,4 -4,4"/>
<text text-anchor="middle" x="72.4936" y="-7.3" font-family="Helvetica,sans-Serif" font-size="11.00" fill="#000000">Generated by SchemaSpy</text>
<!-- email_addr_bean_rel -->
<g id="node1" class="node">
<title>email_addr_bean_rel</title>
<g id="a_node1"><a xlink:href="../../tables/email_addr_bean_rel.html" xlink:title="email_addr_bean_rel" target="_top">
<polygon fill="#ffffff" stroke="transparent" points="327.5,-326.7 327.5,-475.7 485.5,-475.7 485.5,-326.7 327.5,-326.7"/>
<polygon fill="#f5f5f5" stroke="transparent" points="327.5,-452.2 327.5,-475.2 485.5,-475.2 485.5,-452.2 327.5,-452.2"/>
<polygon fill="none" stroke="#000000" points="327.5,-452.2 327.5,-475.2 485.5,-475.2 485.5,-452.2 327.5,-452.2"/>
<text text-anchor="start" x="332.5" y="-461.3" font-family="Helvetica,sans-Serif" font-weight="bold" font-size="11.00" fill="#000000">email_addr_bean_rel</text>
<text text-anchor="start" x="450.5437" y="-460.3" font-family="Helvetica,sans-Serif" font-size="11.00" fill="#000000">[table]</text>
<polygon fill="none" stroke="#000000" points="327.5,-430.2 327.5,-452.2 485.5,-452.2 485.5,-430.2 327.5,-430.2"/>
<image xlink:href="../../images/primaryKeys.png" width="11px" height="12px" preserveAspectRatio="xMinYMin meet" x="332.5" y="-447.2"/>
<text text-anchor="start" x="347.5" y="-437.3" font-family="Helvetica,sans-Serif" font-size="11.00" fill="#000000">id</text>
<polygon fill="#ffffff" stroke="transparent" points="327.5,-408.2 327.5,-430.2 485.5,-430.2 485.5,-408.2 327.5,-408.2"/>
<polygon fill="none" stroke="#000000" points="327.5,-408.2 327.5,-430.2 485.5,-430.2 485.5,-408.2 327.5,-408.2"/>
<image xlink:href="../../images/foreignKeys.png" width="11px" height="12px" preserveAspectRatio="xMinYMin meet" x="332.5" y="-425.2"/>
<text text-anchor="start" x="347.5" y="-415.3" font-family="Helvetica,sans-Serif" font-size="11.00" fill="#000000">email_address_id</text>
<polygon fill="#ffffff" stroke="transparent" points="327.5,-386.2 327.5,-408.2 485.5,-408.2 485.5,-386.2 327.5,-386.2"/>
<polygon fill="none" stroke="#000000" points="327.5,-386.2 327.5,-408.2 485.5,-408.2 485.5,-386.2 327.5,-386.2"/>
<image xlink:href="../../images/foreignKeys.png" width="11px" height="12px" preserveAspectRatio="xMinYMin meet" x="332.5" y="-403.2"/>
<text text-anchor="start" x="347.5" y="-393.3" font-family="Helvetica,sans-Serif" font-size="11.00" fill="#000000">bean_id</text>
<polygon fill="#ffffff" stroke="transparent" points="327.5,-364.2 327.5,-386.2 485.5,-386.2 485.5,-364.2 327.5,-364.2"/>
<polygon fill="none" stroke="#000000" points="327.5,-364.2 327.5,-386.2 485.5,-386.2 485.5,-364.2 327.5,-364.2"/>
<text text-anchor="start" x="347.5" y="-371.3" font-family="Helvetica,sans-Serif" font-size="11.00" fill="#000000">bean_module</text>
<polygon fill="none" stroke="#000000" points="327.5,-345.2 327.5,-364.2 485.5,-364.2 485.5,-345.2 327.5,-345.2"/>
<text text-anchor="start" x="330.5" y="-351.3" font-family="Helvetica,sans-Serif" font-size="11.00" fill="#000000">...</text>
<polygon fill="#ffffff" stroke="transparent" points="327.5,-326.2 327.5,-345.2 404.5,-345.2 404.5,-326.2 327.5,-326.2"/>
<polygon fill="none" stroke="#000000" points="327.5,-326.2 327.5,-345.2 404.5,-345.2 404.5,-326.2 327.5,-326.2"/>
<text text-anchor="start" x="330.5" y="-332.3" font-family="Helvetica,sans-Serif" font-size="11.00" fill="#000000">&lt; 6</text>
<polygon fill="#ffffff" stroke="transparent" points="404.5,-326.2 404.5,-345.2 444.5,-345.2 444.5,-326.2 404.5,-326.2"/>
<polygon fill="none" stroke="#000000" points="404.5,-326.2 404.5,-345.2 444.5,-345.2 444.5,-326.2 404.5,-326.2"/>
<text text-anchor="start" x="435.3862" y="-332.3" font-family="Helvetica,sans-Serif" font-size="11.00" fill="#000000"> &#160;</text>
<polygon fill="#ffffff" stroke="transparent" points="444.5,-326.2 444.5,-345.2 485.5,-345.2 485.5,-326.2 444.5,-326.2"/>
<polygon fill="none" stroke="#000000" points="444.5,-326.2 444.5,-345.2 485.5,-345.2 485.5,-326.2 444.5,-326.2"/>
<text text-anchor="start" x="476.3862" y="-332.3" font-family="Helvetica,sans-Serif" font-size="11.00" fill="#000000"> &#160;</text>
</a>
</g>
</g>
<!-- email_addresses -->
<g id="node2" class="node">
<title>email_addresses</title>
<g id="a_node2"><a xlink:href="../../tables/email_addresses.html" xlink:title="email_addresses" target="_top">
<polygon fill="#ffffff" stroke="transparent" points="8,-38.2 8,-370.2 271,-370.2 271,-38.2 8,-38.2"/>
<polygon fill="#f5f5f5" stroke="transparent" points="10.5,-345.2 10.5,-368.2 269.5,-368.2 269.5,-345.2 10.5,-345.2"/>
<polygon fill="none" stroke="#000000" points="10.5,-345.2 10.5,-368.2 269.5,-368.2 269.5,-345.2 10.5,-345.2"/>
<text text-anchor="start" x="15.5" y="-354.3" font-family="Helvetica,sans-Serif" font-weight="bold" font-size="11.00" fill="#000000">email_addresses</text>
<text text-anchor="start" x="234.5437" y="-353.3" font-family="Helvetica,sans-Serif" font-size="11.00" fill="#000000">[table]</text>
<polygon fill="none" stroke="#000000" points="10.5,-323.2 10.5,-345.2 202.5,-345.2 202.5,-323.2 10.5,-323.2"/>
<image xlink:href="../../images/primaryKeys.png" width="11px" height="12px" preserveAspectRatio="xMinYMin meet" x="15.5" y="-340.2"/>
<text text-anchor="start" x="30.5" y="-330.3" font-family="Helvetica,sans-Serif" font-size="11.00" fill="#000000">id</text>
<polygon fill="none" stroke="#000000" points="202.5,-323.2 202.5,-345.2 269.5,-345.2 269.5,-323.2 202.5,-323.2"/>
<text text-anchor="start" x="205.5" y="-330.9" font-family="Helvetica,sans-Serif" font-size="11.00" fill="#000000">char[36]</text>
<polygon fill="#ffffff" stroke="transparent" points="10.5,-301.2 10.5,-323.2 202.5,-323.2 202.5,-301.2 10.5,-301.2"/>
<polygon fill="none" stroke="#000000" points="10.5,-301.2 10.5,-323.2 202.5,-323.2 202.5,-301.2 10.5,-301.2"/>
<text text-anchor="start" x="30.5" y="-308.3" font-family="Helvetica,sans-Serif" font-size="11.00" fill="#000000">email_address</text>
<polygon fill="none" stroke="#000000" points="202.5,-301.2 202.5,-323.2 269.5,-323.2 269.5,-301.2 202.5,-301.2"/>
<text text-anchor="start" x="205.4365" y="-308.9" font-family="Helvetica,sans-Serif" font-size="11.00" fill="#000000">varchar[255]</text>
<polygon fill="#ffffff" stroke="transparent" points="10.5,-279.2 10.5,-301.2 202.5,-301.2 202.5,-279.2 10.5,-279.2"/>
<polygon fill="none" stroke="#000000" points="10.5,-279.2 10.5,-301.2 202.5,-301.2 202.5,-279.2 10.5,-279.2"/>
<text text-anchor="start" x="30.5" y="-286.3" font-family="Helvetica,sans-Serif" font-size="11.00" fill="#000000">email_address_caps</text>
<polygon fill="none" stroke="#000000" points="202.5,-279.2 202.5,-301.2 269.5,-301.2 269.5,-279.2 202.5,-279.2"/>
<text text-anchor="start" x="205.4365" y="-286.9" font-family="Helvetica,sans-Serif" font-size="11.00" fill="#000000">varchar[255]</text>
<polygon fill="#ffffff" stroke="transparent" points="10.5,-257.2 10.5,-279.2 202.5,-279.2 202.5,-257.2 10.5,-257.2"/>
<polygon fill="none" stroke="#000000" points="10.5,-257.2 10.5,-279.2 202.5,-279.2 202.5,-257.2 10.5,-257.2"/>
<text text-anchor="start" x="30.5" y="-264.3" font-family="Helvetica,sans-Serif" font-size="11.00" fill="#000000">invalid_email</text>
<polygon fill="none" stroke="#000000" points="202.5,-257.2 202.5,-279.2 269.5,-279.2 269.5,-257.2 202.5,-257.2"/>
<text text-anchor="start" x="205.5" y="-264.9" font-family="Helvetica,sans-Serif" font-size="11.00" fill="#000000">bit[1]</text>
<polygon fill="#ffffff" stroke="transparent" points="10.5,-235.2 10.5,-257.2 202.5,-257.2 202.5,-235.2 10.5,-235.2"/>
<polygon fill="none" stroke="#000000" points="10.5,-235.2 10.5,-257.2 202.5,-257.2 202.5,-235.2 10.5,-235.2"/>
<text text-anchor="start" x="30.5" y="-242.3" font-family="Helvetica,sans-Serif" font-size="11.00" fill="#000000">opt_out</text>
<polygon fill="none" stroke="#000000" points="202.5,-235.2 202.5,-257.2 269.5,-257.2 269.5,-235.2 202.5,-235.2"/>
<text text-anchor="start" x="205.5" y="-242.9" font-family="Helvetica,sans-Serif" font-size="11.00" fill="#000000">bit[1]</text>
<polygon fill="none" stroke="#000000" points="10.5,-213.2 10.5,-235.2 202.5,-235.2 202.5,-213.2 10.5,-213.2"/>
<text text-anchor="start" x="30.5" y="-220.3" font-family="Helvetica,sans-Serif" font-size="11.00" fill="#000000">confirm_opt_in</text>
<polygon fill="none" stroke="#000000" points="202.5,-213.2 202.5,-235.2 269.5,-235.2 269.5,-213.2 202.5,-213.2"/>
<text text-anchor="start" x="205.4365" y="-220.9" font-family="Helvetica,sans-Serif" font-size="11.00" fill="#000000">varchar[255]</text>
<polygon fill="none" stroke="#000000" points="10.5,-191.2 10.5,-213.2 202.5,-213.2 202.5,-191.2 10.5,-191.2"/>
<text text-anchor="start" x="30.5" y="-198.3" font-family="Helvetica,sans-Serif" font-size="11.00" fill="#000000">confirm_opt_in_date</text>
<polygon fill="none" stroke="#000000" points="202.5,-191.2 202.5,-213.2 269.5,-213.2 269.5,-191.2 202.5,-191.2"/>
<text text-anchor="start" x="205.5" y="-198.9" font-family="Helvetica,sans-Serif" font-size="11.00" fill="#000000">datetime[26]</text>
<polygon fill="none" stroke="#000000" points="10.5,-169.2 10.5,-191.2 202.5,-191.2 202.5,-169.2 10.5,-169.2"/>
<text text-anchor="start" x="30.5" y="-176.3" font-family="Helvetica,sans-Serif" font-size="11.00" fill="#000000">confirm_opt_in_sent_date</text>
<polygon fill="none" stroke="#000000" points="202.5,-169.2 202.5,-191.2 269.5,-191.2 269.5,-169.2 202.5,-169.2"/>
<text text-anchor="start" x="205.5" y="-176.9" font-family="Helvetica,sans-Serif" font-size="11.00" fill="#000000">datetime[26]</text>
<polygon fill="none" stroke="#000000" points="10.5,-147.2 10.5,-169.2 202.5,-169.2 202.5,-147.2 10.5,-147.2"/>
<text text-anchor="start" x="30.5" y="-154.3" font-family="Helvetica,sans-Serif" font-size="11.00" fill="#000000">confirm_opt_in_fail_date</text>
<polygon fill="none" stroke="#000000" points="202.5,-147.2 202.5,-169.2 269.5,-169.2 269.5,-147.2 202.5,-147.2"/>
<text text-anchor="start" x="205.5" y="-154.9" font-family="Helvetica,sans-Serif" font-size="11.00" fill="#000000">datetime[26]</text>
<polygon fill="none" stroke="#000000" points="10.5,-125.2 10.5,-147.2 202.5,-147.2 202.5,-125.2 10.5,-125.2"/>
<text text-anchor="start" x="30.5" y="-132.3" font-family="Helvetica,sans-Serif" font-size="11.00" fill="#000000">confirm_opt_in_token</text>
<polygon fill="none" stroke="#000000" points="202.5,-125.2 202.5,-147.2 269.5,-147.2 269.5,-125.2 202.5,-125.2"/>
<text text-anchor="start" x="205.4365" y="-132.9" font-family="Helvetica,sans-Serif" font-size="11.00" fill="#000000">varchar[255]</text>
<polygon fill="none" stroke="#000000" points="10.5,-103.2 10.5,-125.2 202.5,-125.2 202.5,-103.2 10.5,-103.2"/>
<text text-anchor="start" x="30.5" y="-110.3" font-family="Helvetica,sans-Serif" font-size="11.00" fill="#000000">date_created</text>
<polygon fill="none" stroke="#000000" points="202.5,-103.2 202.5,-125.2 269.5,-125.2 269.5,-103.2 202.5,-103.2"/>
<text text-anchor="start" x="205.5" y="-110.9" font-family="Helvetica,sans-Serif" font-size="11.00" fill="#000000">datetime[26]</text>
<polygon fill="none" stroke="#000000" points="10.5,-81.2 10.5,-103.2 202.5,-103.2 202.5,-81.2 10.5,-81.2"/>
<text text-anchor="start" x="30.5" y="-88.3" font-family="Helvetica,sans-Serif" font-size="11.00" fill="#000000">date_modified</text>
<polygon fill="none" stroke="#000000" points="202.5,-81.2 202.5,-103.2 269.5,-103.2 269.5,-81.2 202.5,-81.2"/>
<text text-anchor="start" x="205.5" y="-88.9" font-family="Helvetica,sans-Serif" font-size="11.00" fill="#000000">datetime[26]</text>
<polygon fill="none" stroke="#000000" points="10.5,-59.2 10.5,-81.2 202.5,-81.2 202.5,-59.2 10.5,-59.2"/>
<text text-anchor="start" x="30.5" y="-66.3" font-family="Helvetica,sans-Serif" font-size="11.00" fill="#000000">deleted</text>
<polygon fill="none" stroke="#000000" points="202.5,-59.2 202.5,-81.2 269.5,-81.2 269.5,-59.2 202.5,-59.2"/>
<text text-anchor="start" x="205.5" y="-66.9" font-family="Helvetica,sans-Serif" font-size="11.00" fill="#000000">bit[1]</text>
<polygon fill="#ffffff" stroke="transparent" points="10.5,-40.2 10.5,-59.2 110.5,-59.2 110.5,-40.2 10.5,-40.2"/>
<polygon fill="none" stroke="#000000" points="10.5,-40.2 10.5,-59.2 110.5,-59.2 110.5,-40.2 10.5,-40.2"/>
<text text-anchor="start" x="13.5" y="-46.3" font-family="Helvetica,sans-Serif" font-size="11.00" fill="#000000">&lt; 0</text>
<polygon fill="#ffffff" stroke="transparent" points="110.5,-40.2 110.5,-59.2 202.5,-59.2 202.5,-40.2 110.5,-40.2"/>
<polygon fill="none" stroke="#000000" points="110.5,-40.2 110.5,-59.2 202.5,-59.2 202.5,-40.2 110.5,-40.2"/>
<text text-anchor="start" x="193.3862" y="-46.3" font-family="Helvetica,sans-Serif" font-size="11.00" fill="#000000"> &#160;</text>
<polygon fill="#ffffff" stroke="transparent" points="202.5,-40.2 202.5,-59.2 269.5,-59.2 269.5,-40.2 202.5,-40.2"/>
<polygon fill="none" stroke="#000000" points="202.5,-40.2 202.5,-59.2 269.5,-59.2 269.5,-40.2 202.5,-40.2"/>
<text text-anchor="start" x="250.9053" y="-46.3" font-family="Helvetica,sans-Serif" font-size="11.00" fill="#000000">2 &gt;</text>
<polygon fill="none" stroke="#000000" stroke-width="2" points="9,-39.2 9,-369.2 270,-369.2 270,-39.2 9,-39.2"/>
</a>
</g>
</g>
<!-- email_addr_bean_rel&#45;&gt;email_addresses -->
<g id="edge1" class="edge">
<title>email_addr_bean_rel:w&#45;&gt;email_addresses:e</title>
<path fill="none" stroke="#000000" d="M313.4226,-415.3269C289.0781,-398.6984 309.3391,-334.2 269.5,-334.2"/>
<polygon fill="#000000" stroke="#000000" points="319.7866,-417.0778 326.545,-422.671 323.6433,-418.1389 327.5,-419.2 327.5,-419.2 327.5,-419.2 323.6433,-418.1389 328.455,-415.729 319.7866,-417.0778 319.7866,-417.0778"/>
<ellipse fill="none" stroke="#000000" cx="316.7013" cy="-416.2289" rx="3.2" ry="3.2"/>
</g>
<!-- email_addresses_audit -->
<g id="node3" class="node">
<title>email_addresses_audit</title>
<g id="a_node3"><a xlink:href="../../tables/email_addresses_audit.html" xlink:title="email_addresses_audit" target="_top">
<polygon fill="#ffffff" stroke="transparent" points="320,-200.7 320,-305.7 493,-305.7 493,-200.7 320,-200.7"/>
<polygon fill="#f5f5f5" stroke="transparent" points="320.5,-282.2 320.5,-305.2 493.5,-305.2 493.5,-282.2 320.5,-282.2"/>
<polygon fill="none" stroke="#000000" points="320.5,-282.2 320.5,-305.2 493.5,-305.2 493.5,-282.2 320.5,-282.2"/>
<text text-anchor="start" x="325.5" y="-291.3" font-family="Helvetica,sans-Serif" font-weight="bold" font-size="11.00" fill="#000000">email_addresses_audit</text>
<text text-anchor="start" x="458.5437" y="-290.3" font-family="Helvetica,sans-Serif" font-size="11.00" fill="#000000">[table]</text>
<polygon fill="none" stroke="#000000" points="320.5,-260.2 320.5,-282.2 493.5,-282.2 493.5,-260.2 320.5,-260.2"/>
<image xlink:href="../../images/primaryKeys.png" width="11px" height="12px" preserveAspectRatio="xMinYMin meet" x="325.5" y="-277.2"/>
<text text-anchor="start" x="340.5" y="-267.3" font-family="Helvetica,sans-Serif" font-size="11.00" fill="#000000">id</text>
<polygon fill="#c0c0c0" stroke="transparent" points="320.5,-238.2 320.5,-260.2 493.5,-260.2 493.5,-238.2 320.5,-238.2"/>
<polygon fill="none" stroke="#000000" points="320.5,-238.2 320.5,-260.2 493.5,-260.2 493.5,-238.2 320.5,-238.2"/>
<image xlink:href="../../images/foreignKeys.png" width="11px" height="12px" preserveAspectRatio="xMinYMin meet" x="325.5" y="-255.2"/>
<text text-anchor="start" x="340.5" y="-245.3" font-family="Helvetica,sans-Serif" font-size="11.00" fill="#000000">parent_id</text>
<polygon fill="none" stroke="#000000" points="320.5,-219.2 320.5,-238.2 493.5,-238.2 493.5,-219.2 320.5,-219.2"/>
<text text-anchor="start" x="323.5" y="-225.3" font-family="Helvetica,sans-Serif" font-size="11.00" fill="#000000">...</text>
<polygon fill="#ffffff" stroke="transparent" points="320.5,-200.2 320.5,-219.2 405.5,-219.2 405.5,-200.2 320.5,-200.2"/>
<polygon fill="none" stroke="#000000" points="320.5,-200.2 320.5,-219.2 405.5,-219.2 405.5,-200.2 320.5,-200.2"/>
<text text-anchor="start" x="323.5" y="-206.3" font-family="Helvetica,sans-Serif" font-size="11.00" fill="#000000">&lt; 1</text>
<polygon fill="#ffffff" stroke="transparent" points="405.5,-200.2 405.5,-219.2 449.5,-219.2 449.5,-200.2 405.5,-200.2"/>
<polygon fill="none" stroke="#000000" points="405.5,-200.2 405.5,-219.2 449.5,-219.2 449.5,-200.2 405.5,-200.2"/>
<text text-anchor="start" x="440.3862" y="-206.3" font-family="Helvetica,sans-Serif" font-size="11.00" fill="#000000"> &#160;</text>
<polygon fill="#ffffff" stroke="transparent" points="449.5,-200.2 449.5,-219.2 493.5,-219.2 493.5,-200.2 449.5,-200.2"/>
<polygon fill="none" stroke="#000000" points="449.5,-200.2 449.5,-219.2 493.5,-219.2 493.5,-200.2 449.5,-200.2"/>
<text text-anchor="start" x="484.3862" y="-206.3" font-family="Helvetica,sans-Serif" font-size="11.00" fill="#000000"> &#160;</text>
</a>
</g>
</g>
<!-- email_addresses_audit&#45;&gt;email_addresses -->
<g id="edge2" class="edge">
<title>email_addresses_audit:w&#45;&gt;email_addresses:e</title>
<path fill="none" stroke="#000000" d="M306.5669,-253.532C285.0746,-270.8534 307.5328,-334.2 269.5,-334.2"/>
<polygon fill="#000000" stroke="#000000" points="312.8607,-251.5752 321.5688,-252.6377 316.6804,-250.3876 320.5,-249.2 320.5,-249.2 320.5,-249.2 316.6804,-250.3876 319.4312,-245.7623 312.8607,-251.5752 312.8607,-251.5752"/>
<ellipse fill="none" stroke="#000000" cx="309.805" cy="-252.5253" rx="3.2" ry="3.2"/>
</g>
</g>
</svg>
