<?xml version="1.0" encoding="UTF-8" standalone="no"?>
<!DOCTYPE svg PUBLIC "-//W3C//DTD SVG 1.1//EN"
 "http://www.w3.org/Graphics/SVG/1.1/DTD/svg11.dtd">
<!-- Generated by graphviz version 2.40.1 (20161225.0304)
 -->
<!-- Title: oneDegreeRelationshipsDiagram Pages: 1 -->
<svg width="963pt" height="643pt"
 viewBox="0.00 0.00 963.00 643.20" xmlns="http://www.w3.org/2000/svg" xmlns:xlink="http://www.w3.org/1999/xlink">
<g id="graph0" class="graph" transform="scale(1 1) rotate(0) translate(4 639.2)">
<title>oneDegreeRelationshipsDiagram</title>
<polygon fill="#ffffff" stroke="transparent" points="-4,4 -4,-639.2 959,-639.2 959,4 -4,4"/>
<text text-anchor="middle" x="72.4936" y="-7.3" font-family="Helvetica,sans-Serif" font-size="11.00" fill="#000000">Generated by SchemaSpy</text>
<!-- email_marketing -->
<g id="node1" class="node">
<title>email_marketing</title>
<g id="a_node1"><a xlink:href="../../tables/email_marketing.html" xlink:title="email_marketing" target="_top">
<polygon fill="#ffffff" stroke="transparent" points="572,-460.2 572,-631.2 719,-631.2 719,-460.2 572,-460.2"/>
<polygon fill="#f5f5f5" stroke="transparent" points="572.5,-607.7 572.5,-630.7 719.5,-630.7 719.5,-607.7 572.5,-607.7"/>
<polygon fill="none" stroke="#000000" points="572.5,-607.7 572.5,-630.7 719.5,-630.7 719.5,-607.7 572.5,-607.7"/>
<text text-anchor="start" x="577.5" y="-616.8" font-family="Helvetica,sans-Serif" font-weight="bold" font-size="11.00" fill="#000000">email_marketing</text>
<text text-anchor="start" x="684.5437" y="-615.8" font-family="Helvetica,sans-Serif" font-size="11.00" fill="#000000">[table]</text>
<polygon fill="none" stroke="#000000" points="572.5,-585.7 572.5,-607.7 719.5,-607.7 719.5,-585.7 572.5,-585.7"/>
<image xlink:href="../../images/primaryKeys.png" width="11px" height="12px" preserveAspectRatio="xMinYMin meet" x="577.5" y="-602.7"/>
<text text-anchor="start" x="592.5" y="-592.8" font-family="Helvetica,sans-Serif" font-size="11.00" fill="#000000">id</text>
<polygon fill="#ffffff" stroke="transparent" points="572.5,-563.7 572.5,-585.7 719.5,-585.7 719.5,-563.7 572.5,-563.7"/>
<polygon fill="none" stroke="#000000" points="572.5,-563.7 572.5,-585.7 719.5,-585.7 719.5,-563.7 572.5,-563.7"/>
<text text-anchor="start" x="592.5" y="-570.8" font-family="Helvetica,sans-Serif" font-size="11.00" fill="#000000">deleted</text>
<polygon fill="#ffffff" stroke="transparent" points="572.5,-541.7 572.5,-563.7 719.5,-563.7 719.5,-541.7 572.5,-541.7"/>
<polygon fill="none" stroke="#000000" points="572.5,-541.7 572.5,-563.7 719.5,-563.7 719.5,-541.7 572.5,-541.7"/>
<text text-anchor="start" x="592.5" y="-548.8" font-family="Helvetica,sans-Serif" font-size="11.00" fill="#000000">name</text>
<polygon fill="none" stroke="#000000" points="572.5,-519.7 572.5,-541.7 719.5,-541.7 719.5,-519.7 572.5,-519.7"/>
<image xlink:href="../../images/foreignKeys.png" width="11px" height="12px" preserveAspectRatio="xMinYMin meet" x="577.5" y="-536.7"/>
<text text-anchor="start" x="592.5" y="-526.8" font-family="Helvetica,sans-Serif" font-size="11.00" fill="#000000">template_id</text>
<polygon fill="none" stroke="#000000" points="572.5,-497.7 572.5,-519.7 719.5,-519.7 719.5,-497.7 572.5,-497.7"/>
<image xlink:href="../../images/foreignKeys.png" width="11px" height="12px" preserveAspectRatio="xMinYMin meet" x="577.5" y="-514.7"/>
<text text-anchor="start" x="592.5" y="-504.8" font-family="Helvetica,sans-Serif" font-size="11.00" fill="#000000">campaign_id</text>
<polygon fill="none" stroke="#000000" points="572.5,-478.7 572.5,-497.7 719.5,-497.7 719.5,-478.7 572.5,-478.7"/>
<text text-anchor="start" x="575.5" y="-484.8" font-family="Helvetica,sans-Serif" font-size="11.00" fill="#000000">...</text>
<polygon fill="#ffffff" stroke="transparent" points="572.5,-459.7 572.5,-478.7 639.5,-478.7 639.5,-459.7 572.5,-459.7"/>
<polygon fill="none" stroke="#000000" points="572.5,-459.7 572.5,-478.7 639.5,-478.7 639.5,-459.7 572.5,-459.7"/>
<text text-anchor="start" x="575.5" y="-465.8" font-family="Helvetica,sans-Serif" font-size="11.00" fill="#000000">&lt; 2</text>
<polygon fill="#ffffff" stroke="transparent" points="639.5,-459.7 639.5,-478.7 674.5,-478.7 674.5,-459.7 639.5,-459.7"/>
<polygon fill="none" stroke="#000000" points="639.5,-459.7 639.5,-478.7 674.5,-478.7 674.5,-459.7 639.5,-459.7"/>
<text text-anchor="start" x="665.3862" y="-465.8" font-family="Helvetica,sans-Serif" font-size="11.00" fill="#000000"> &#160;</text>
<polygon fill="#ffffff" stroke="transparent" points="674.5,-459.7 674.5,-478.7 719.5,-478.7 719.5,-459.7 674.5,-459.7"/>
<polygon fill="none" stroke="#000000" points="674.5,-459.7 674.5,-478.7 719.5,-478.7 719.5,-459.7 674.5,-459.7"/>
<text text-anchor="start" x="700.9053" y="-465.8" font-family="Helvetica,sans-Serif" font-size="11.00" fill="#000000">2 &gt;</text>
</a>
</g>
</g>
<!-- email_templates -->
<g id="node2" class="node">
<title>email_templates</title>
<g id="a_node2"><a xlink:href="../../tables/email_templates.html" xlink:title="email_templates" target="_top">
<polygon fill="#ffffff" stroke="transparent" points="273,-142.7 273,-518.7 523,-518.7 523,-142.7 273,-142.7"/>
<polygon fill="#f5f5f5" stroke="transparent" points="275,-493.7 275,-516.7 521,-516.7 521,-493.7 275,-493.7"/>
<polygon fill="none" stroke="#000000" points="275,-493.7 275,-516.7 521,-516.7 521,-493.7 275,-493.7"/>
<text text-anchor="start" x="280" y="-502.8" font-family="Helvetica,sans-Serif" font-weight="bold" font-size="11.00" fill="#000000">email_templates</text>
<text text-anchor="start" x="486.0437" y="-501.8" font-family="Helvetica,sans-Serif" font-size="11.00" fill="#000000">[table]</text>
<polygon fill="none" stroke="#000000" points="275,-471.7 275,-493.7 410,-493.7 410,-471.7 275,-471.7"/>
<image xlink:href="../../images/primaryKeys.png" width="11px" height="12px" preserveAspectRatio="xMinYMin meet" x="280" y="-488.7"/>
<text text-anchor="start" x="295" y="-478.8" font-family="Helvetica,sans-Serif" font-size="11.00" fill="#000000">id</text>
<polygon fill="none" stroke="#000000" points="410,-471.7 410,-493.7 521,-493.7 521,-471.7 410,-471.7"/>
<text text-anchor="start" x="413" y="-479.4" font-family="Helvetica,sans-Serif" font-size="11.00" fill="#000000">char[36]</text>
<polygon fill="none" stroke="#000000" points="275,-449.7 275,-471.7 410,-471.7 410,-449.7 275,-449.7"/>
<text text-anchor="start" x="295" y="-456.8" font-family="Helvetica,sans-Serif" font-size="11.00" fill="#000000">date_entered</text>
<polygon fill="none" stroke="#000000" points="410,-449.7 410,-471.7 521,-471.7 521,-449.7 410,-449.7"/>
<text text-anchor="start" x="413" y="-457.4" font-family="Helvetica,sans-Serif" font-size="11.00" fill="#000000">datetime[26]</text>
<polygon fill="none" stroke="#000000" points="275,-427.7 275,-449.7 410,-449.7 410,-427.7 275,-427.7"/>
<text text-anchor="start" x="295" y="-434.8" font-family="Helvetica,sans-Serif" font-size="11.00" fill="#000000">date_modified</text>
<polygon fill="none" stroke="#000000" points="410,-427.7 410,-449.7 521,-449.7 521,-427.7 410,-427.7"/>
<text text-anchor="start" x="413" y="-435.4" font-family="Helvetica,sans-Serif" font-size="11.00" fill="#000000">datetime[26]</text>
<polygon fill="none" stroke="#000000" points="275,-405.7 275,-427.7 410,-427.7 410,-405.7 275,-405.7"/>
<text text-anchor="start" x="295" y="-412.8" font-family="Helvetica,sans-Serif" font-size="11.00" fill="#000000">modified_user_id</text>
<polygon fill="none" stroke="#000000" points="410,-405.7 410,-427.7 521,-427.7 521,-405.7 410,-405.7"/>
<text text-anchor="start" x="413" y="-413.4" font-family="Helvetica,sans-Serif" font-size="11.00" fill="#000000">char[36]</text>
<polygon fill="none" stroke="#000000" points="275,-383.7 275,-405.7 410,-405.7 410,-383.7 275,-383.7"/>
<text text-anchor="start" x="295" y="-390.8" font-family="Helvetica,sans-Serif" font-size="11.00" fill="#000000">created_by</text>
<polygon fill="none" stroke="#000000" points="410,-383.7 410,-405.7 521,-405.7 521,-383.7 410,-383.7"/>
<text text-anchor="start" x="413" y="-391.4" font-family="Helvetica,sans-Serif" font-size="11.00" fill="#000000">varchar[36]</text>
<polygon fill="none" stroke="#000000" points="275,-361.7 275,-383.7 410,-383.7 410,-361.7 275,-361.7"/>
<text text-anchor="start" x="295" y="-368.8" font-family="Helvetica,sans-Serif" font-size="11.00" fill="#000000">published</text>
<polygon fill="none" stroke="#000000" points="410,-361.7 410,-383.7 521,-383.7 521,-361.7 410,-361.7"/>
<text text-anchor="start" x="413" y="-369.4" font-family="Helvetica,sans-Serif" font-size="11.00" fill="#000000">varchar[3]</text>
<polygon fill="#ffffff" stroke="transparent" points="275,-339.7 275,-361.7 410,-361.7 410,-339.7 275,-339.7"/>
<polygon fill="none" stroke="#000000" points="275,-339.7 275,-361.7 410,-361.7 410,-339.7 275,-339.7"/>
<text text-anchor="start" x="295" y="-346.8" font-family="Helvetica,sans-Serif" font-size="11.00" fill="#000000">name</text>
<polygon fill="none" stroke="#000000" points="410,-339.7 410,-361.7 521,-361.7 521,-339.7 410,-339.7"/>
<text text-anchor="start" x="413" y="-347.4" font-family="Helvetica,sans-Serif" font-size="11.00" fill="#000000">varchar[255]</text>
<polygon fill="none" stroke="#000000" points="275,-317.7 275,-339.7 410,-339.7 410,-317.7 275,-317.7"/>
<text text-anchor="start" x="295" y="-324.8" font-family="Helvetica,sans-Serif" font-size="11.00" fill="#000000">description</text>
<polygon fill="none" stroke="#000000" points="410,-317.7 410,-339.7 521,-339.7 521,-317.7 410,-317.7"/>
<text text-anchor="start" x="413" y="-325.4" font-family="Helvetica,sans-Serif" font-size="11.00" fill="#000000">text[65535]</text>
<polygon fill="none" stroke="#000000" points="275,-295.7 275,-317.7 410,-317.7 410,-295.7 275,-295.7"/>
<text text-anchor="start" x="295" y="-302.8" font-family="Helvetica,sans-Serif" font-size="11.00" fill="#000000">subject</text>
<polygon fill="none" stroke="#000000" points="410,-295.7 410,-317.7 521,-317.7 521,-295.7 410,-295.7"/>
<text text-anchor="start" x="413" y="-303.4" font-family="Helvetica,sans-Serif" font-size="11.00" fill="#000000">varchar[255]</text>
<polygon fill="none" stroke="#000000" points="275,-273.7 275,-295.7 410,-295.7 410,-273.7 275,-273.7"/>
<text text-anchor="start" x="295" y="-280.8" font-family="Helvetica,sans-Serif" font-size="11.00" fill="#000000">body</text>
<polygon fill="none" stroke="#000000" points="410,-273.7 410,-295.7 521,-295.7 521,-273.7 410,-273.7"/>
<text text-anchor="start" x="412.6115" y="-281.4" font-family="Helvetica,sans-Serif" font-size="11.00" fill="#000000">longtext[2147483647]</text>
<polygon fill="none" stroke="#000000" points="275,-251.7 275,-273.7 410,-273.7 410,-251.7 275,-251.7"/>
<text text-anchor="start" x="295" y="-258.8" font-family="Helvetica,sans-Serif" font-size="11.00" fill="#000000">body_html</text>
<polygon fill="none" stroke="#000000" points="410,-251.7 410,-273.7 521,-273.7 521,-251.7 410,-251.7"/>
<text text-anchor="start" x="412.6115" y="-259.4" font-family="Helvetica,sans-Serif" font-size="11.00" fill="#000000">longtext[2147483647]</text>
<polygon fill="none" stroke="#000000" points="275,-229.7 275,-251.7 410,-251.7 410,-229.7 275,-229.7"/>
<text text-anchor="start" x="295" y="-236.8" font-family="Helvetica,sans-Serif" font-size="11.00" fill="#000000">deleted</text>
<polygon fill="none" stroke="#000000" points="410,-229.7 410,-251.7 521,-251.7 521,-229.7 410,-229.7"/>
<text text-anchor="start" x="413" y="-237.4" font-family="Helvetica,sans-Serif" font-size="11.00" fill="#000000">bit[1]</text>
<polygon fill="none" stroke="#000000" points="275,-207.7 275,-229.7 410,-229.7 410,-207.7 275,-207.7"/>
<image xlink:href="../../images/foreignKeys.png" width="11px" height="12px" preserveAspectRatio="xMinYMin meet" x="280" y="-224.7"/>
<text text-anchor="start" x="295" y="-214.8" font-family="Helvetica,sans-Serif" font-size="11.00" fill="#000000">assigned_user_id</text>
<polygon fill="none" stroke="#000000" points="410,-207.7 410,-229.7 521,-229.7 521,-207.7 410,-207.7"/>
<text text-anchor="start" x="413" y="-215.4" font-family="Helvetica,sans-Serif" font-size="11.00" fill="#000000">char[36]</text>
<polygon fill="none" stroke="#000000" points="275,-185.7 275,-207.7 410,-207.7 410,-185.7 275,-185.7"/>
<text text-anchor="start" x="295" y="-192.8" font-family="Helvetica,sans-Serif" font-size="11.00" fill="#000000">text_only</text>
<polygon fill="none" stroke="#000000" points="410,-185.7 410,-207.7 521,-207.7 521,-185.7 410,-185.7"/>
<text text-anchor="start" x="413" y="-193.4" font-family="Helvetica,sans-Serif" font-size="11.00" fill="#000000">bit[1]</text>
<polygon fill="none" stroke="#000000" points="275,-163.7 275,-185.7 410,-185.7 410,-163.7 275,-163.7"/>
<text text-anchor="start" x="295" y="-170.8" font-family="Helvetica,sans-Serif" font-size="11.00" fill="#000000">type</text>
<polygon fill="none" stroke="#000000" points="410,-163.7 410,-185.7 521,-185.7 521,-163.7 410,-163.7"/>
<text text-anchor="start" x="413" y="-171.4" font-family="Helvetica,sans-Serif" font-size="11.00" fill="#000000">varchar[255]</text>
<polygon fill="#ffffff" stroke="transparent" points="275,-144.7 275,-163.7 347,-163.7 347,-144.7 275,-144.7"/>
<polygon fill="none" stroke="#000000" points="275,-144.7 275,-163.7 347,-163.7 347,-144.7 275,-144.7"/>
<text text-anchor="start" x="278" y="-150.8" font-family="Helvetica,sans-Serif" font-size="11.00" fill="#000000">&lt; 1</text>
<polygon fill="#ffffff" stroke="transparent" points="347,-144.7 347,-163.7 410,-163.7 410,-144.7 347,-144.7"/>
<polygon fill="none" stroke="#000000" points="347,-144.7 347,-163.7 410,-163.7 410,-144.7 347,-144.7"/>
<text text-anchor="start" x="400.8862" y="-150.8" font-family="Helvetica,sans-Serif" font-size="11.00" fill="#000000"> &#160;</text>
<polygon fill="#ffffff" stroke="transparent" points="410,-144.7 410,-163.7 521,-163.7 521,-144.7 410,-144.7"/>
<polygon fill="none" stroke="#000000" points="410,-144.7 410,-163.7 521,-163.7 521,-144.7 410,-144.7"/>
<text text-anchor="start" x="502.4053" y="-150.8" font-family="Helvetica,sans-Serif" font-size="11.00" fill="#000000">2 &gt;</text>
<polygon fill="none" stroke="#000000" stroke-width="2" points="274,-143.7 274,-517.7 522,-517.7 522,-143.7 274,-143.7"/>
</a>
</g>
</g>
<!-- email_marketing&#45;&gt;email_templates -->
<g id="edge1" class="edge">
<title>email_marketing:w&#45;&gt;email_templates:e</title>
<path fill="none" stroke="#000000" d="M558.3838,-525.9221C543.9221,-513.7811 546.178,-482.7 521,-482.7"/>
<polygon fill="#000000" stroke="#000000" points="564.9223,-528.1351 571.3458,-534.11 568.7111,-529.4176 572.5,-530.7 572.5,-530.7 572.5,-530.7 568.7111,-529.4176 573.6542,-527.29 564.9223,-528.1351 564.9223,-528.1351"/>
<ellipse fill="none" stroke="#000000" cx="561.8912" cy="-527.1092" rx="3.2" ry="3.2"/>
</g>
<!-- users -->
<g id="node3" class="node">
<title>users</title>
<g id="a_node3"><a xlink:href="../../tables/users.html" xlink:title="users" target="_top">
<polygon fill="#ffffff" stroke="transparent" points="8,-38.2 8,-253.2 224,-253.2 224,-38.2 8,-38.2"/>
<polygon fill="#f5f5f5" stroke="transparent" points="8,-229.7 8,-252.7 224,-252.7 224,-229.7 8,-229.7"/>
<polygon fill="none" stroke="#000000" points="8,-229.7 8,-252.7 224,-252.7 224,-229.7 8,-229.7"/>
<text text-anchor="start" x="13" y="-238.8" font-family="Helvetica,sans-Serif" font-weight="bold" font-size="11.00" fill="#000000">users</text>
<text text-anchor="start" x="189.0437" y="-237.8" font-family="Helvetica,sans-Serif" font-size="11.00" fill="#000000">[table]</text>
<polygon fill="none" stroke="#000000" points="8,-207.7 8,-229.7 224,-229.7 224,-207.7 8,-207.7"/>
<image xlink:href="../../images/primaryKeys.png" width="11px" height="12px" preserveAspectRatio="xMinYMin meet" x="13" y="-224.7"/>
<text text-anchor="start" x="28" y="-214.8" font-family="Helvetica,sans-Serif" font-size="11.00" fill="#000000">id</text>
<polygon fill="#ffffff" stroke="transparent" points="8,-185.7 8,-207.7 224,-207.7 224,-185.7 8,-185.7"/>
<polygon fill="none" stroke="#000000" points="8,-185.7 8,-207.7 224,-207.7 224,-185.7 8,-185.7"/>
<text text-anchor="start" x="28" y="-192.8" font-family="Helvetica,sans-Serif" font-size="11.00" fill="#000000">user_name</text>
<polygon fill="#ffffff" stroke="transparent" points="8,-163.7 8,-185.7 224,-185.7 224,-163.7 8,-163.7"/>
<polygon fill="none" stroke="#000000" points="8,-163.7 8,-185.7 224,-185.7 224,-163.7 8,-163.7"/>
<text text-anchor="start" x="28" y="-170.8" font-family="Helvetica,sans-Serif" font-size="11.00" fill="#000000">first_name</text>
<polygon fill="#ffffff" stroke="transparent" points="8,-141.7 8,-163.7 224,-163.7 224,-141.7 8,-141.7"/>
<polygon fill="none" stroke="#000000" points="8,-141.7 8,-163.7 224,-163.7 224,-141.7 8,-141.7"/>
<text text-anchor="start" x="28" y="-148.8" font-family="Helvetica,sans-Serif" font-size="11.00" fill="#000000">last_name</text>
<polygon fill="#ffffff" stroke="transparent" points="8,-119.7 8,-141.7 224,-141.7 224,-119.7 8,-119.7"/>
<polygon fill="none" stroke="#000000" points="8,-119.7 8,-141.7 224,-141.7 224,-119.7 8,-119.7"/>
<text text-anchor="start" x="28" y="-126.8" font-family="Helvetica,sans-Serif" font-size="11.00" fill="#000000">status</text>
<polygon fill="#c0c0c0" stroke="transparent" points="8,-97.7 8,-119.7 224,-119.7 224,-97.7 8,-97.7"/>
<polygon fill="none" stroke="#000000" points="8,-97.7 8,-119.7 224,-119.7 224,-97.7 8,-97.7"/>
<image xlink:href="../../images/foreignKeys.png" width="11px" height="12px" preserveAspectRatio="xMinYMin meet" x="13" y="-114.7"/>
<text text-anchor="start" x="28" y="-104.8" font-family="Helvetica,sans-Serif" font-size="11.00" fill="#000000">reports_to_id</text>
<polygon fill="#ffffff" stroke="transparent" points="8,-75.7 8,-97.7 224,-97.7 224,-75.7 8,-75.7"/>
<polygon fill="none" stroke="#000000" points="8,-75.7 8,-97.7 224,-97.7 224,-75.7 8,-75.7"/>
<text text-anchor="start" x="28" y="-82.8" font-family="Helvetica,sans-Serif" font-size="11.00" fill="#000000">is_group</text>
<polygon fill="none" stroke="#000000" points="8,-56.7 8,-75.7 224,-75.7 224,-56.7 8,-56.7"/>
<text text-anchor="start" x="11" y="-62.8" font-family="Helvetica,sans-Serif" font-size="11.00" fill="#000000">...</text>
<polygon fill="#ffffff" stroke="transparent" points="8,-37.7 8,-56.7 104,-56.7 104,-37.7 8,-37.7"/>
<polygon fill="none" stroke="#000000" points="8,-37.7 8,-56.7 104,-56.7 104,-37.7 8,-37.7"/>
<text text-anchor="start" x="11" y="-43.8" font-family="Helvetica,sans-Serif" font-size="11.00" fill="#000000">&lt; 2</text>
<polygon fill="#ffffff" stroke="transparent" points="104,-37.7 104,-56.7 153,-56.7 153,-37.7 104,-37.7"/>
<polygon fill="none" stroke="#000000" points="104,-37.7 104,-56.7 153,-56.7 153,-37.7 104,-37.7"/>
<text text-anchor="start" x="143.8862" y="-43.8" font-family="Helvetica,sans-Serif" font-size="11.00" fill="#000000"> &#160;</text>
<polygon fill="#ffffff" stroke="transparent" points="153,-37.7 153,-56.7 224,-56.7 224,-37.7 153,-37.7"/>
<polygon fill="none" stroke="#000000" points="153,-37.7 153,-56.7 224,-56.7 224,-37.7 153,-37.7"/>
<text text-anchor="start" x="193.1755" y="-43.8" font-family="Helvetica,sans-Serif" font-size="11.00" fill="#000000">214 &gt;</text>
</a>
</g>
</g>
<!-- email_templates&#45;&gt;users -->
<g id="edge2" class="edge">
<title>email_templates:w&#45;&gt;users:e</title>
<path fill="none" stroke="#000000" d="M260.276,-218.7C248.2815,-218.7 240.8229,-218.7 224,-218.7"/>
<polygon fill="#000000" stroke="#000000" points="267,-218.7001 275,-222.3 271,-218.7 275,-218.7 275,-218.7 275,-218.7 271,-218.7 275,-215.1 267,-218.7001 267,-218.7001"/>
<ellipse fill="none" stroke="#000000" cx="263.8" cy="-218.7001" rx="3.2" ry="3.2"/>
</g>
<!-- securitygroups_records -->
<g id="node4" class="node">
<title>securitygroups_records</title>
<g id="a_node4"><a xlink:href="../../tables/securitygroups_records.html" xlink:title="securitygroups_records" target="_top">
<polygon fill="#ffffff" stroke="transparent" points="768,-423.2 768,-594.2 947,-594.2 947,-423.2 768,-423.2"/>
<polygon fill="#f5f5f5" stroke="transparent" points="768.5,-570.7 768.5,-593.7 947.5,-593.7 947.5,-570.7 768.5,-570.7"/>
<polygon fill="none" stroke="#000000" points="768.5,-570.7 768.5,-593.7 947.5,-593.7 947.5,-570.7 768.5,-570.7"/>
<text text-anchor="start" x="773.5" y="-579.8" font-family="Helvetica,sans-Serif" font-weight="bold" font-size="11.00" fill="#000000">securitygroups_records</text>
<text text-anchor="start" x="912.5437" y="-578.8" font-family="Helvetica,sans-Serif" font-size="11.00" fill="#000000">[table]</text>
<polygon fill="none" stroke="#000000" points="768.5,-548.7 768.5,-570.7 947.5,-570.7 947.5,-548.7 768.5,-548.7"/>
<image xlink:href="../../images/primaryKeys.png" width="11px" height="12px" preserveAspectRatio="xMinYMin meet" x="773.5" y="-565.7"/>
<text text-anchor="start" x="788.5" y="-555.8" font-family="Helvetica,sans-Serif" font-size="11.00" fill="#000000">id</text>
<polygon fill="#ffffff" stroke="transparent" points="768.5,-526.7 768.5,-548.7 947.5,-548.7 947.5,-526.7 768.5,-526.7"/>
<polygon fill="none" stroke="#000000" points="768.5,-526.7 768.5,-548.7 947.5,-548.7 947.5,-526.7 768.5,-526.7"/>
<image xlink:href="../../images/foreignKeys.png" width="11px" height="12px" preserveAspectRatio="xMinYMin meet" x="773.5" y="-543.7"/>
<text text-anchor="start" x="788.5" y="-533.8" font-family="Helvetica,sans-Serif" font-size="11.00" fill="#000000">securitygroup_id</text>
<polygon fill="#ffffff" stroke="transparent" points="768.5,-504.7 768.5,-526.7 947.5,-526.7 947.5,-504.7 768.5,-504.7"/>
<polygon fill="none" stroke="#000000" points="768.5,-504.7 768.5,-526.7 947.5,-526.7 947.5,-504.7 768.5,-504.7"/>
<image xlink:href="../../images/foreignKeys.png" width="11px" height="12px" preserveAspectRatio="xMinYMin meet" x="773.5" y="-521.7"/>
<text text-anchor="start" x="788.5" y="-511.8" font-family="Helvetica,sans-Serif" font-size="11.00" fill="#000000">record_id</text>
<polygon fill="#ffffff" stroke="transparent" points="768.5,-482.7 768.5,-504.7 947.5,-504.7 947.5,-482.7 768.5,-482.7"/>
<polygon fill="none" stroke="#000000" points="768.5,-482.7 768.5,-504.7 947.5,-504.7 947.5,-482.7 768.5,-482.7"/>
<text text-anchor="start" x="788.5" y="-489.8" font-family="Helvetica,sans-Serif" font-size="11.00" fill="#000000">module</text>
<polygon fill="#ffffff" stroke="transparent" points="768.5,-460.7 768.5,-482.7 947.5,-482.7 947.5,-460.7 768.5,-460.7"/>
<polygon fill="none" stroke="#000000" points="768.5,-460.7 768.5,-482.7 947.5,-482.7 947.5,-460.7 768.5,-460.7"/>
<text text-anchor="start" x="788.5" y="-467.8" font-family="Helvetica,sans-Serif" font-size="11.00" fill="#000000">deleted</text>
<polygon fill="none" stroke="#000000" points="768.5,-441.7 768.5,-460.7 947.5,-460.7 947.5,-441.7 768.5,-441.7"/>
<text text-anchor="start" x="771.5" y="-447.8" font-family="Helvetica,sans-Serif" font-size="11.00" fill="#000000">...</text>
<polygon fill="#ffffff" stroke="transparent" points="768.5,-422.7 768.5,-441.7 859.5,-441.7 859.5,-422.7 768.5,-422.7"/>
<polygon fill="none" stroke="#000000" points="768.5,-422.7 768.5,-441.7 859.5,-441.7 859.5,-422.7 768.5,-422.7"/>
<text text-anchor="start" x="771.5" y="-428.8" font-family="Helvetica,sans-Serif" font-size="11.00" fill="#000000">&lt; 41</text>
<polygon fill="#ffffff" stroke="transparent" points="859.5,-422.7 859.5,-441.7 903.5,-441.7 903.5,-422.7 859.5,-422.7"/>
<polygon fill="none" stroke="#000000" points="859.5,-422.7 859.5,-441.7 903.5,-441.7 903.5,-422.7 859.5,-422.7"/>
<text text-anchor="start" x="894.3862" y="-428.8" font-family="Helvetica,sans-Serif" font-size="11.00" fill="#000000"> &#160;</text>
<polygon fill="#ffffff" stroke="transparent" points="903.5,-422.7 903.5,-441.7 947.5,-441.7 947.5,-422.7 903.5,-422.7"/>
<polygon fill="none" stroke="#000000" points="903.5,-422.7 903.5,-441.7 947.5,-441.7 947.5,-422.7 903.5,-422.7"/>
<text text-anchor="start" x="938.3862" y="-428.8" font-family="Helvetica,sans-Serif" font-size="11.00" fill="#000000"> &#160;</text>
</a>
</g>
</g>
<!-- securitygroups_records&#45;&gt;email_marketing -->
<g id="edge3" class="edge">
<title>securitygroups_records:w&#45;&gt;email_marketing:e</title>
<path fill="none" stroke="#000000" d="M754.6299,-520.287C734.9726,-537.422 755.4935,-596.7 719.5,-596.7"/>
<polygon fill="#000000" stroke="#000000" points="760.9046,-518.2119 769.6304,-519.1179 764.7023,-516.956 768.5,-515.7 768.5,-515.7 768.5,-515.7 764.7023,-516.956 767.3696,-512.2821 760.9046,-518.2119 760.9046,-518.2119"/>
<ellipse fill="none" stroke="#000000" cx="757.8664" cy="-519.2167" rx="3.2" ry="3.2"/>
</g>
<!-- securitygroups_records&#45;&gt;email_templates -->
<g id="edge4" class="edge">
<title>securitygroups_records:w&#45;&gt;email_templates:e</title>
<path fill="none" stroke="#000000" d="M754.4022,-511.0451C740.7629,-498.3757 751.6427,-463.3144 727,-449.7 663.5893,-414.6674 632.599,-426.411 564,-449.7 541.1884,-457.4444 545.0904,-482.7 521,-482.7"/>
<polygon fill="#000000" stroke="#000000" points="760.9034,-513.1916 767.3712,-519.1185 764.7017,-514.4458 768.5,-515.7 768.5,-515.7 768.5,-515.7 764.7017,-514.4458 769.6288,-512.2815 760.9034,-513.1916 760.9034,-513.1916"/>
<ellipse fill="none" stroke="#000000" cx="757.8648" cy="-512.1883" rx="3.2" ry="3.2"/>
</g>
</g>
</svg>
