<?xml version="1.0" encoding="UTF-8" standalone="no"?>
<!DOCTYPE svg PUBLIC "-//W3C//DTD SVG 1.1//EN"
 "http://www.w3.org/Graphics/SVG/1.1/DTD/svg11.dtd">
<!-- Generated by graphviz version 2.40.1 (20161225.0304)
 -->
<!-- Title: oneDegreeRelationshipsDiagram Pages: 1 -->
<svg width="462pt" height="448pt"
 viewBox="0.00 0.00 462.00 448.20" xmlns="http://www.w3.org/2000/svg" xmlns:xlink="http://www.w3.org/1999/xlink">
<g id="graph0" class="graph" transform="scale(1 1) rotate(0) translate(4 444.2)">
<title>oneDegreeRelationshipsDiagram</title>
<polygon fill="#ffffff" stroke="transparent" points="-4,4 -4,-444.2 458,-444.2 458,4 -4,4"/>
<text text-anchor="middle" x="72.4936" y="-7.3" font-family="Helvetica,sans-Serif" font-size="11.00" fill="#000000">Generated by SchemaSpy</text>
<!-- emailman -->
<g id="node1" class="node">
<title>emailman</title>
<g id="a_node1"><a xlink:href="../../tables/emailman.html" xlink:title="emailman" target="_top">
<polygon fill="#ffffff" stroke="transparent" points="201,-38.2 201,-436.2 446,-436.2 446,-38.2 201,-38.2"/>
<polygon fill="#f5f5f5" stroke="transparent" points="203.5,-411.2 203.5,-434.2 444.5,-434.2 444.5,-411.2 203.5,-411.2"/>
<polygon fill="none" stroke="#000000" points="203.5,-411.2 203.5,-434.2 444.5,-434.2 444.5,-411.2 203.5,-411.2"/>
<text text-anchor="start" x="208.5" y="-420.3" font-family="Helvetica,sans-Serif" font-weight="bold" font-size="11.00" fill="#000000">emailman</text>
<text text-anchor="start" x="409.5437" y="-419.3" font-family="Helvetica,sans-Serif" font-size="11.00" fill="#000000">[table]</text>
<polygon fill="none" stroke="#000000" points="203.5,-389.2 203.5,-411.2 377.5,-411.2 377.5,-389.2 203.5,-389.2"/>
<text text-anchor="start" x="223.5" y="-396.3" font-family="Helvetica,sans-Serif" font-size="11.00" fill="#000000">date_entered</text>
<polygon fill="none" stroke="#000000" points="377.5,-389.2 377.5,-411.2 444.5,-411.2 444.5,-389.2 377.5,-389.2"/>
<text text-anchor="start" x="380.5" y="-396.9" font-family="Helvetica,sans-Serif" font-size="11.00" fill="#000000">datetime[26]</text>
<polygon fill="none" stroke="#000000" points="203.5,-367.2 203.5,-389.2 377.5,-389.2 377.5,-367.2 203.5,-367.2"/>
<text text-anchor="start" x="223.5" y="-374.3" font-family="Helvetica,sans-Serif" font-size="11.00" fill="#000000">date_modified</text>
<polygon fill="none" stroke="#000000" points="377.5,-367.2 377.5,-389.2 444.5,-389.2 444.5,-367.2 377.5,-367.2"/>
<text text-anchor="start" x="380.5" y="-374.9" font-family="Helvetica,sans-Serif" font-size="11.00" fill="#000000">datetime[26]</text>
<polygon fill="#ffffff" stroke="transparent" points="203.5,-345.2 203.5,-367.2 377.5,-367.2 377.5,-345.2 203.5,-345.2"/>
<polygon fill="none" stroke="#000000" points="203.5,-345.2 203.5,-367.2 377.5,-367.2 377.5,-345.2 203.5,-345.2"/>
<text text-anchor="start" x="223.5" y="-352.3" font-family="Helvetica,sans-Serif" font-size="11.00" fill="#000000">user_id</text>
<polygon fill="none" stroke="#000000" points="377.5,-345.2 377.5,-367.2 444.5,-367.2 444.5,-345.2 377.5,-345.2"/>
<text text-anchor="start" x="380.5" y="-352.9" font-family="Helvetica,sans-Serif" font-size="11.00" fill="#000000">char[36]</text>
<polygon fill="none" stroke="#000000" points="203.5,-323.2 203.5,-345.2 377.5,-345.2 377.5,-323.2 203.5,-323.2"/>
<image xlink:href="../../images/primaryKeys.png" width="11px" height="12px" preserveAspectRatio="xMinYMin meet" x="208.5" y="-340.2"/>
<text text-anchor="start" x="223.5" y="-330.3" font-family="Helvetica,sans-Serif" font-size="11.00" fill="#000000">id</text>
<polygon fill="none" stroke="#000000" points="377.5,-323.2 377.5,-345.2 444.5,-345.2 444.5,-323.2 377.5,-323.2"/>
<text text-anchor="start" x="380.5" y="-330.9" font-family="Helvetica,sans-Serif" font-size="11.00" fill="#000000">int[10]</text>
<polygon fill="#ffffff" stroke="transparent" points="203.5,-301.2 203.5,-323.2 377.5,-323.2 377.5,-301.2 203.5,-301.2"/>
<polygon fill="none" stroke="#000000" points="203.5,-301.2 203.5,-323.2 377.5,-323.2 377.5,-301.2 203.5,-301.2"/>
<image xlink:href="../../images/foreignKeys.png" width="11px" height="12px" preserveAspectRatio="xMinYMin meet" x="208.5" y="-318.2"/>
<text text-anchor="start" x="223.5" y="-308.3" font-family="Helvetica,sans-Serif" font-size="11.00" fill="#000000">campaign_id</text>
<polygon fill="none" stroke="#000000" points="377.5,-301.2 377.5,-323.2 444.5,-323.2 444.5,-301.2 377.5,-301.2"/>
<text text-anchor="start" x="380.5" y="-308.9" font-family="Helvetica,sans-Serif" font-size="11.00" fill="#000000">char[36]</text>
<polygon fill="none" stroke="#000000" points="203.5,-279.2 203.5,-301.2 377.5,-301.2 377.5,-279.2 203.5,-279.2"/>
<text text-anchor="start" x="223.5" y="-286.3" font-family="Helvetica,sans-Serif" font-size="11.00" fill="#000000">marketing_id</text>
<polygon fill="none" stroke="#000000" points="377.5,-279.2 377.5,-301.2 444.5,-301.2 444.5,-279.2 377.5,-279.2"/>
<text text-anchor="start" x="380.5" y="-286.9" font-family="Helvetica,sans-Serif" font-size="11.00" fill="#000000">char[36]</text>
<polygon fill="#ffffff" stroke="transparent" points="203.5,-257.2 203.5,-279.2 377.5,-279.2 377.5,-257.2 203.5,-257.2"/>
<polygon fill="none" stroke="#000000" points="203.5,-257.2 203.5,-279.2 377.5,-279.2 377.5,-257.2 203.5,-257.2"/>
<text text-anchor="start" x="223.5" y="-264.3" font-family="Helvetica,sans-Serif" font-size="11.00" fill="#000000">list_id</text>
<polygon fill="none" stroke="#000000" points="377.5,-257.2 377.5,-279.2 444.5,-279.2 444.5,-257.2 377.5,-257.2"/>
<text text-anchor="start" x="380.5" y="-264.9" font-family="Helvetica,sans-Serif" font-size="11.00" fill="#000000">char[36]</text>
<polygon fill="none" stroke="#000000" points="203.5,-235.2 203.5,-257.2 377.5,-257.2 377.5,-235.2 203.5,-235.2"/>
<text text-anchor="start" x="223.5" y="-242.3" font-family="Helvetica,sans-Serif" font-size="11.00" fill="#000000">send_date_time</text>
<polygon fill="none" stroke="#000000" points="377.5,-235.2 377.5,-257.2 444.5,-257.2 444.5,-235.2 377.5,-235.2"/>
<text text-anchor="start" x="380.5" y="-242.9" font-family="Helvetica,sans-Serif" font-size="11.00" fill="#000000">datetime[26]</text>
<polygon fill="none" stroke="#000000" points="203.5,-213.2 203.5,-235.2 377.5,-235.2 377.5,-213.2 203.5,-213.2"/>
<text text-anchor="start" x="223.5" y="-220.3" font-family="Helvetica,sans-Serif" font-size="11.00" fill="#000000">modified_user_id</text>
<polygon fill="none" stroke="#000000" points="377.5,-213.2 377.5,-235.2 444.5,-235.2 444.5,-213.2 377.5,-213.2"/>
<text text-anchor="start" x="380.5" y="-220.9" font-family="Helvetica,sans-Serif" font-size="11.00" fill="#000000">char[36]</text>
<polygon fill="none" stroke="#000000" points="203.5,-191.2 203.5,-213.2 377.5,-213.2 377.5,-191.2 203.5,-191.2"/>
<text text-anchor="start" x="223.5" y="-198.3" font-family="Helvetica,sans-Serif" font-size="11.00" fill="#000000">in_queue</text>
<polygon fill="none" stroke="#000000" points="377.5,-191.2 377.5,-213.2 444.5,-213.2 444.5,-191.2 377.5,-191.2"/>
<text text-anchor="start" x="380.5" y="-198.9" font-family="Helvetica,sans-Serif" font-size="11.00" fill="#000000">bit[1]</text>
<polygon fill="none" stroke="#000000" points="203.5,-169.2 203.5,-191.2 377.5,-191.2 377.5,-169.2 203.5,-169.2"/>
<text text-anchor="start" x="223.5" y="-176.3" font-family="Helvetica,sans-Serif" font-size="11.00" fill="#000000">in_queue_date</text>
<polygon fill="none" stroke="#000000" points="377.5,-169.2 377.5,-191.2 444.5,-191.2 444.5,-169.2 377.5,-169.2"/>
<text text-anchor="start" x="380.5" y="-176.9" font-family="Helvetica,sans-Serif" font-size="11.00" fill="#000000">datetime[26]</text>
<polygon fill="none" stroke="#000000" points="203.5,-147.2 203.5,-169.2 377.5,-169.2 377.5,-147.2 203.5,-147.2"/>
<text text-anchor="start" x="223.5" y="-154.3" font-family="Helvetica,sans-Serif" font-size="11.00" fill="#000000">send_attempts</text>
<polygon fill="none" stroke="#000000" points="377.5,-147.2 377.5,-169.2 444.5,-169.2 444.5,-147.2 377.5,-147.2"/>
<text text-anchor="start" x="380.5" y="-154.9" font-family="Helvetica,sans-Serif" font-size="11.00" fill="#000000">int[10]</text>
<polygon fill="#ffffff" stroke="transparent" points="203.5,-125.2 203.5,-147.2 377.5,-147.2 377.5,-125.2 203.5,-125.2"/>
<polygon fill="none" stroke="#000000" points="203.5,-125.2 203.5,-147.2 377.5,-147.2 377.5,-125.2 203.5,-125.2"/>
<text text-anchor="start" x="223.5" y="-132.3" font-family="Helvetica,sans-Serif" font-size="11.00" fill="#000000">deleted</text>
<polygon fill="none" stroke="#000000" points="377.5,-125.2 377.5,-147.2 444.5,-147.2 444.5,-125.2 377.5,-125.2"/>
<text text-anchor="start" x="380.5" y="-132.9" font-family="Helvetica,sans-Serif" font-size="11.00" fill="#000000">bit[1]</text>
<polygon fill="#ffffff" stroke="transparent" points="203.5,-103.2 203.5,-125.2 377.5,-125.2 377.5,-103.2 203.5,-103.2"/>
<polygon fill="none" stroke="#000000" points="203.5,-103.2 203.5,-125.2 377.5,-125.2 377.5,-103.2 203.5,-103.2"/>
<text text-anchor="start" x="223.5" y="-110.3" font-family="Helvetica,sans-Serif" font-size="11.00" fill="#000000">related_id</text>
<polygon fill="none" stroke="#000000" points="377.5,-103.2 377.5,-125.2 444.5,-125.2 444.5,-103.2 377.5,-103.2"/>
<text text-anchor="start" x="380.5" y="-110.9" font-family="Helvetica,sans-Serif" font-size="11.00" fill="#000000">char[36]</text>
<polygon fill="#ffffff" stroke="transparent" points="203.5,-81.2 203.5,-103.2 377.5,-103.2 377.5,-81.2 203.5,-81.2"/>
<polygon fill="none" stroke="#000000" points="203.5,-81.2 203.5,-103.2 377.5,-103.2 377.5,-81.2 203.5,-81.2"/>
<text text-anchor="start" x="223.5" y="-88.3" font-family="Helvetica,sans-Serif" font-size="11.00" fill="#000000">related_type</text>
<polygon fill="none" stroke="#000000" points="377.5,-81.2 377.5,-103.2 444.5,-103.2 444.5,-81.2 377.5,-81.2"/>
<text text-anchor="start" x="380.4365" y="-88.9" font-family="Helvetica,sans-Serif" font-size="11.00" fill="#000000">varchar[100]</text>
<polygon fill="none" stroke="#000000" points="203.5,-59.2 203.5,-81.2 377.5,-81.2 377.5,-59.2 203.5,-59.2"/>
<text text-anchor="start" x="223.5" y="-66.3" font-family="Helvetica,sans-Serif" font-size="11.00" fill="#000000">related_confirm_opt_in</text>
<polygon fill="none" stroke="#000000" points="377.5,-59.2 377.5,-81.2 444.5,-81.2 444.5,-59.2 377.5,-59.2"/>
<text text-anchor="start" x="380.5" y="-66.9" font-family="Helvetica,sans-Serif" font-size="11.00" fill="#000000">bit[1]</text>
<polygon fill="#ffffff" stroke="transparent" points="203.5,-40.2 203.5,-59.2 294.5,-59.2 294.5,-40.2 203.5,-40.2"/>
<polygon fill="none" stroke="#000000" points="203.5,-40.2 203.5,-59.2 294.5,-59.2 294.5,-40.2 203.5,-40.2"/>
<text text-anchor="start" x="206.5" y="-46.3" font-family="Helvetica,sans-Serif" font-size="11.00" fill="#000000">&lt; 1</text>
<polygon fill="#ffffff" stroke="transparent" points="294.5,-40.2 294.5,-59.2 377.5,-59.2 377.5,-40.2 294.5,-40.2"/>
<polygon fill="none" stroke="#000000" points="294.5,-40.2 294.5,-59.2 377.5,-59.2 377.5,-40.2 294.5,-40.2"/>
<text text-anchor="start" x="368.3862" y="-46.3" font-family="Helvetica,sans-Serif" font-size="11.00" fill="#000000"> &#160;</text>
<polygon fill="#ffffff" stroke="transparent" points="377.5,-40.2 377.5,-59.2 444.5,-59.2 444.5,-40.2 377.5,-40.2"/>
<polygon fill="none" stroke="#000000" points="377.5,-40.2 377.5,-59.2 444.5,-59.2 444.5,-40.2 377.5,-40.2"/>
<text text-anchor="start" x="425.9053" y="-46.3" font-family="Helvetica,sans-Serif" font-size="11.00" fill="#000000">0 &gt;</text>
<polygon fill="none" stroke="#000000" stroke-width="2" points="202,-39.2 202,-435.2 445,-435.2 445,-39.2 202,-39.2"/>
</a>
</g>
</g>
<!-- campaigns -->
<g id="node2" class="node">
<title>campaigns</title>
<g id="a_node2"><a xlink:href="../../tables/campaigns.html" xlink:title="campaigns" target="_top">
<polygon fill="#ffffff" stroke="transparent" points="8,-131.7 8,-346.7 152,-346.7 152,-131.7 8,-131.7"/>
<polygon fill="#f5f5f5" stroke="transparent" points="8,-323.2 8,-346.2 152,-346.2 152,-323.2 8,-323.2"/>
<polygon fill="none" stroke="#000000" points="8,-323.2 8,-346.2 152,-346.2 152,-323.2 8,-323.2"/>
<text text-anchor="start" x="13" y="-332.3" font-family="Helvetica,sans-Serif" font-weight="bold" font-size="11.00" fill="#000000">campaigns</text>
<text text-anchor="start" x="117.0437" y="-331.3" font-family="Helvetica,sans-Serif" font-size="11.00" fill="#000000">[table]</text>
<polygon fill="none" stroke="#000000" points="8,-301.2 8,-323.2 152,-323.2 152,-301.2 8,-301.2"/>
<image xlink:href="../../images/primaryKeys.png" width="11px" height="12px" preserveAspectRatio="xMinYMin meet" x="13" y="-318.2"/>
<text text-anchor="start" x="28" y="-308.3" font-family="Helvetica,sans-Serif" font-size="11.00" fill="#000000">id</text>
<polygon fill="#ffffff" stroke="transparent" points="8,-279.2 8,-301.2 152,-301.2 152,-279.2 8,-279.2"/>
<polygon fill="none" stroke="#000000" points="8,-279.2 8,-301.2 152,-301.2 152,-279.2 8,-279.2"/>
<text text-anchor="start" x="28" y="-286.3" font-family="Helvetica,sans-Serif" font-size="11.00" fill="#000000">name</text>
<polygon fill="#c0c0c0" stroke="transparent" points="8,-257.2 8,-279.2 152,-279.2 152,-257.2 8,-257.2"/>
<polygon fill="none" stroke="#000000" points="8,-257.2 8,-279.2 152,-279.2 152,-257.2 8,-257.2"/>
<image xlink:href="../../images/foreignKeys.png" width="11px" height="12px" preserveAspectRatio="xMinYMin meet" x="13" y="-274.2"/>
<text text-anchor="start" x="28" y="-264.3" font-family="Helvetica,sans-Serif" font-size="11.00" fill="#000000">modified_user_id</text>
<polygon fill="#c0c0c0" stroke="transparent" points="8,-235.2 8,-257.2 152,-257.2 152,-235.2 8,-235.2"/>
<polygon fill="none" stroke="#000000" points="8,-235.2 8,-257.2 152,-257.2 152,-235.2 8,-235.2"/>
<image xlink:href="../../images/foreignKeys.png" width="11px" height="12px" preserveAspectRatio="xMinYMin meet" x="13" y="-252.2"/>
<text text-anchor="start" x="28" y="-242.3" font-family="Helvetica,sans-Serif" font-size="11.00" fill="#000000">created_by</text>
<polygon fill="#c0c0c0" stroke="transparent" points="8,-213.2 8,-235.2 152,-235.2 152,-213.2 8,-213.2"/>
<polygon fill="none" stroke="#000000" points="8,-213.2 8,-235.2 152,-235.2 152,-213.2 8,-213.2"/>
<image xlink:href="../../images/foreignKeys.png" width="11px" height="12px" preserveAspectRatio="xMinYMin meet" x="13" y="-230.2"/>
<text text-anchor="start" x="28" y="-220.3" font-family="Helvetica,sans-Serif" font-size="11.00" fill="#000000">assigned_user_id</text>
<polygon fill="#ffffff" stroke="transparent" points="8,-191.2 8,-213.2 152,-213.2 152,-191.2 8,-191.2"/>
<polygon fill="none" stroke="#000000" points="8,-191.2 8,-213.2 152,-213.2 152,-191.2 8,-191.2"/>
<text text-anchor="start" x="28" y="-198.3" font-family="Helvetica,sans-Serif" font-size="11.00" fill="#000000">tracker_key</text>
<polygon fill="#ffffff" stroke="transparent" points="8,-169.2 8,-191.2 152,-191.2 152,-169.2 8,-169.2"/>
<polygon fill="none" stroke="#000000" points="8,-169.2 8,-191.2 152,-191.2 152,-169.2 8,-169.2"/>
<image xlink:href="../../images/foreignKeys.png" width="11px" height="12px" preserveAspectRatio="xMinYMin meet" x="13" y="-186.2"/>
<text text-anchor="start" x="28" y="-176.3" font-family="Helvetica,sans-Serif" font-size="11.00" fill="#000000">survey_id</text>
<polygon fill="none" stroke="#000000" points="8,-150.2 8,-169.2 152,-169.2 152,-150.2 8,-150.2"/>
<text text-anchor="start" x="11" y="-156.3" font-family="Helvetica,sans-Serif" font-size="11.00" fill="#000000">...</text>
<polygon fill="#ffffff" stroke="transparent" points="8,-131.2 8,-150.2 71,-150.2 71,-131.2 8,-131.2"/>
<polygon fill="none" stroke="#000000" points="8,-131.2 8,-150.2 71,-150.2 71,-131.2 8,-131.2"/>
<text text-anchor="start" x="11" y="-137.3" font-family="Helvetica,sans-Serif" font-size="11.00" fill="#000000">&lt; 4</text>
<polygon fill="#ffffff" stroke="transparent" points="71,-131.2 71,-150.2 104,-150.2 104,-131.2 71,-131.2"/>
<polygon fill="none" stroke="#000000" points="71,-131.2 71,-150.2 104,-150.2 104,-131.2 71,-131.2"/>
<text text-anchor="start" x="94.8862" y="-137.3" font-family="Helvetica,sans-Serif" font-size="11.00" fill="#000000"> &#160;</text>
<polygon fill="#ffffff" stroke="transparent" points="104,-131.2 104,-150.2 152,-150.2 152,-131.2 104,-131.2"/>
<polygon fill="none" stroke="#000000" points="104,-131.2 104,-150.2 152,-150.2 152,-131.2 104,-131.2"/>
<text text-anchor="start" x="127.2904" y="-137.3" font-family="Helvetica,sans-Serif" font-size="11.00" fill="#000000">13 &gt;</text>
</a>
</g>
</g>
<!-- emailman&#45;&gt;campaigns -->
<g id="edge1" class="edge">
<title>emailman:w&#45;&gt;campaigns:e</title>
<path fill="none" stroke="#000000" d="M189.0156,-312.2C176.6771,-312.2 169.1667,-312.2 152,-312.2"/>
<polygon fill="#000000" stroke="#000000" points="195.5,-312.2001 203.5,-315.8 199.5,-312.2 203.5,-312.2 203.5,-312.2 203.5,-312.2 199.5,-312.2 203.5,-308.6 195.5,-312.2001 195.5,-312.2001"/>
<ellipse fill="none" stroke="#000000" cx="192.3" cy="-312.2001" rx="3.2" ry="3.2"/>
</g>
</g>
</svg>
