<?xml version="1.0" encoding="UTF-8" standalone="no"?>
<!DOCTYPE svg PUBLIC "-//W3C//DTD SVG 1.1//EN"
 "http://www.w3.org/Graphics/SVG/1.1/DTD/svg11.dtd">
<!-- Generated by graphviz version 2.40.1 (20161225.0304)
 -->
<!-- Title: twoDegreesRelationshipsDiagram Pages: 1 -->
<svg width="695pt" height="498pt"
 viewBox="0.00 0.00 695.00 498.20" xmlns="http://www.w3.org/2000/svg" xmlns:xlink="http://www.w3.org/1999/xlink">
<g id="graph0" class="graph" transform="scale(1 1) rotate(0) translate(4 494.2)">
<title>twoDegreesRelationshipsDiagram</title>
<polygon fill="#ffffff" stroke="transparent" points="-4,4 -4,-494.2 691,-494.2 691,4 -4,4"/>
<text text-anchor="middle" x="72.4936" y="-7.3" font-family="Helvetica,sans-Serif" font-size="11.00" fill="#000000">Generated by SchemaSpy</text>
<!-- email_marketing -->
<g id="node1" class="node">
<title>email_marketing</title>
<g id="a_node1"><a xlink:href="../../tables/email_marketing.html" xlink:title="email_marketing" target="_top">
<polygon fill="#ffffff" stroke="transparent" points="180,-108.2 180,-279.2 327,-279.2 327,-108.2 180,-108.2"/>
<polygon fill="#f5f5f5" stroke="transparent" points="180.5,-255.7 180.5,-278.7 327.5,-278.7 327.5,-255.7 180.5,-255.7"/>
<polygon fill="none" stroke="#000000" points="180.5,-255.7 180.5,-278.7 327.5,-278.7 327.5,-255.7 180.5,-255.7"/>
<text text-anchor="start" x="185.5" y="-264.8" font-family="Helvetica,sans-Serif" font-weight="bold" font-size="11.00" fill="#000000">email_marketing</text>
<text text-anchor="start" x="292.5437" y="-263.8" font-family="Helvetica,sans-Serif" font-size="11.00" fill="#000000">[table]</text>
<polygon fill="none" stroke="#000000" points="180.5,-233.7 180.5,-255.7 327.5,-255.7 327.5,-233.7 180.5,-233.7"/>
<image xlink:href="../../images/primaryKeys.png" width="11px" height="12px" preserveAspectRatio="xMinYMin meet" x="185.5" y="-250.7"/>
<text text-anchor="start" x="200.5" y="-240.8" font-family="Helvetica,sans-Serif" font-size="11.00" fill="#000000">id</text>
<polygon fill="#ffffff" stroke="transparent" points="180.5,-211.7 180.5,-233.7 327.5,-233.7 327.5,-211.7 180.5,-211.7"/>
<polygon fill="none" stroke="#000000" points="180.5,-211.7 180.5,-233.7 327.5,-233.7 327.5,-211.7 180.5,-211.7"/>
<text text-anchor="start" x="200.5" y="-218.8" font-family="Helvetica,sans-Serif" font-size="11.00" fill="#000000">deleted</text>
<polygon fill="#ffffff" stroke="transparent" points="180.5,-189.7 180.5,-211.7 327.5,-211.7 327.5,-189.7 180.5,-189.7"/>
<polygon fill="none" stroke="#000000" points="180.5,-189.7 180.5,-211.7 327.5,-211.7 327.5,-189.7 180.5,-189.7"/>
<text text-anchor="start" x="200.5" y="-196.8" font-family="Helvetica,sans-Serif" font-size="11.00" fill="#000000">name</text>
<polygon fill="none" stroke="#000000" points="180.5,-167.7 180.5,-189.7 327.5,-189.7 327.5,-167.7 180.5,-167.7"/>
<image xlink:href="../../images/foreignKeys.png" width="11px" height="12px" preserveAspectRatio="xMinYMin meet" x="185.5" y="-184.7"/>
<text text-anchor="start" x="200.5" y="-174.8" font-family="Helvetica,sans-Serif" font-size="11.00" fill="#000000">template_id</text>
<polygon fill="none" stroke="#000000" points="180.5,-145.7 180.5,-167.7 327.5,-167.7 327.5,-145.7 180.5,-145.7"/>
<image xlink:href="../../images/foreignKeys.png" width="11px" height="12px" preserveAspectRatio="xMinYMin meet" x="185.5" y="-162.7"/>
<text text-anchor="start" x="200.5" y="-152.8" font-family="Helvetica,sans-Serif" font-size="11.00" fill="#000000">campaign_id</text>
<polygon fill="none" stroke="#000000" points="180.5,-126.7 180.5,-145.7 327.5,-145.7 327.5,-126.7 180.5,-126.7"/>
<text text-anchor="start" x="183.5" y="-132.8" font-family="Helvetica,sans-Serif" font-size="11.00" fill="#000000">...</text>
<polygon fill="#ffffff" stroke="transparent" points="180.5,-107.7 180.5,-126.7 247.5,-126.7 247.5,-107.7 180.5,-107.7"/>
<polygon fill="none" stroke="#000000" points="180.5,-107.7 180.5,-126.7 247.5,-126.7 247.5,-107.7 180.5,-107.7"/>
<text text-anchor="start" x="183.5" y="-113.8" font-family="Helvetica,sans-Serif" font-size="11.00" fill="#000000">&lt; 2</text>
<polygon fill="#ffffff" stroke="transparent" points="247.5,-107.7 247.5,-126.7 282.5,-126.7 282.5,-107.7 247.5,-107.7"/>
<polygon fill="none" stroke="#000000" points="247.5,-107.7 247.5,-126.7 282.5,-126.7 282.5,-107.7 247.5,-107.7"/>
<text text-anchor="start" x="273.3862" y="-113.8" font-family="Helvetica,sans-Serif" font-size="11.00" fill="#000000"> &#160;</text>
<polygon fill="#ffffff" stroke="transparent" points="282.5,-107.7 282.5,-126.7 327.5,-126.7 327.5,-107.7 282.5,-107.7"/>
<polygon fill="none" stroke="#000000" points="282.5,-107.7 282.5,-126.7 327.5,-126.7 327.5,-107.7 282.5,-107.7"/>
<text text-anchor="start" x="308.9053" y="-113.8" font-family="Helvetica,sans-Serif" font-size="11.00" fill="#000000">2 &gt;</text>
</a>
</g>
</g>
<!-- campaigns -->
<g id="node2" class="node">
<title>campaigns</title>
<g id="a_node2"><a xlink:href="../../tables/campaigns.html" xlink:title="campaigns" target="_top">
<polygon fill="#ffffff" stroke="transparent" points="21.5,-129.2 21.5,-190.2 117.5,-190.2 117.5,-129.2 21.5,-129.2"/>
<polygon fill="#f5f5f5" stroke="transparent" points="21.5,-166.7 21.5,-189.7 117.5,-189.7 117.5,-166.7 21.5,-166.7"/>
<polygon fill="none" stroke="#000000" points="21.5,-166.7 21.5,-189.7 117.5,-189.7 117.5,-166.7 21.5,-166.7"/>
<text text-anchor="start" x="26.4114" y="-175.8" font-family="Helvetica,sans-Serif" font-weight="bold" font-size="11.00" fill="#000000">campaigns</text>
<text text-anchor="start" x="83.0219" y="-174.8" font-family="Helvetica,sans-Serif" font-size="11.00" fill="#000000">[table]</text>
<polygon fill="none" stroke="#000000" points="21.5,-147.7 21.5,-166.7 117.5,-166.7 117.5,-147.7 21.5,-147.7"/>
<text text-anchor="start" x="24.5" y="-153.8" font-family="Helvetica,sans-Serif" font-size="11.00" fill="#000000">...</text>
<polygon fill="#ffffff" stroke="transparent" points="21.5,-128.7 21.5,-147.7 60.5,-147.7 60.5,-128.7 21.5,-128.7"/>
<polygon fill="none" stroke="#000000" points="21.5,-128.7 21.5,-147.7 60.5,-147.7 60.5,-128.7 21.5,-128.7"/>
<text text-anchor="start" x="24.5" y="-134.8" font-family="Helvetica,sans-Serif" font-size="11.00" fill="#000000">&lt; 4</text>
<polygon fill="#ffffff" stroke="transparent" points="60.5,-128.7 60.5,-147.7 81.5,-147.7 81.5,-128.7 60.5,-128.7"/>
<polygon fill="none" stroke="#000000" points="60.5,-128.7 60.5,-147.7 81.5,-147.7 81.5,-128.7 60.5,-128.7"/>
<text text-anchor="start" x="72.3862" y="-134.8" font-family="Helvetica,sans-Serif" font-size="11.00" fill="#000000"> &#160;</text>
<polygon fill="#ffffff" stroke="transparent" points="81.5,-128.7 81.5,-147.7 117.5,-147.7 117.5,-128.7 81.5,-128.7"/>
<polygon fill="none" stroke="#000000" points="81.5,-128.7 81.5,-147.7 117.5,-147.7 117.5,-128.7 81.5,-128.7"/>
<text text-anchor="start" x="92.7904" y="-134.8" font-family="Helvetica,sans-Serif" font-size="11.00" fill="#000000">13 &gt;</text>
</a>
</g>
</g>
<!-- email_marketing&#45;&gt;campaigns -->
<g id="edge1" class="edge">
<title>email_marketing:w&#45;&gt;campaigns:e</title>
<path fill="none" stroke="#000000" d="M165.6849,-156.7C148.7898,-156.7 139.8125,-156.7 117.5,-156.7"/>
<polygon fill="#000000" stroke="#000000" points="172.5,-156.7001 180.5,-160.3 176.5,-156.7 180.5,-156.7 180.5,-156.7 180.5,-156.7 176.5,-156.7 180.5,-153.1 172.5,-156.7001 172.5,-156.7001"/>
<ellipse fill="none" stroke="#000000" cx="169.3" cy="-156.7001" rx="3.2" ry="3.2"/>
</g>
<!-- email_templates -->
<g id="node3" class="node">
<title>email_templates</title>
<g id="a_node3"><a xlink:href="../../tables/email_templates.html" xlink:title="email_templates" target="_top">
<polygon fill="#ffffff" stroke="transparent" points="8,-38.2 8,-99.2 131,-99.2 131,-38.2 8,-38.2"/>
<polygon fill="#f5f5f5" stroke="transparent" points="8.5,-75.7 8.5,-98.7 131.5,-98.7 131.5,-75.7 8.5,-75.7"/>
<polygon fill="none" stroke="#000000" points="8.5,-75.7 8.5,-98.7 131.5,-98.7 131.5,-75.7 8.5,-75.7"/>
<text text-anchor="start" x="13.4677" y="-84.8" font-family="Helvetica,sans-Serif" font-weight="bold" font-size="11.00" fill="#000000">email_templates</text>
<text text-anchor="start" x="97.0219" y="-83.8" font-family="Helvetica,sans-Serif" font-size="11.00" fill="#000000">[table]</text>
<polygon fill="none" stroke="#000000" points="8.5,-56.7 8.5,-75.7 131.5,-75.7 131.5,-56.7 8.5,-56.7"/>
<text text-anchor="start" x="11.5" y="-62.8" font-family="Helvetica,sans-Serif" font-size="11.00" fill="#000000">...</text>
<polygon fill="#ffffff" stroke="transparent" points="8.5,-37.7 8.5,-56.7 63.5,-56.7 63.5,-37.7 8.5,-37.7"/>
<polygon fill="none" stroke="#000000" points="8.5,-37.7 8.5,-56.7 63.5,-56.7 63.5,-37.7 8.5,-37.7"/>
<text text-anchor="start" x="11.5" y="-43.8" font-family="Helvetica,sans-Serif" font-size="11.00" fill="#000000">&lt; 1</text>
<polygon fill="#ffffff" stroke="transparent" points="63.5,-37.7 63.5,-56.7 92.5,-56.7 92.5,-37.7 63.5,-37.7"/>
<polygon fill="none" stroke="#000000" points="63.5,-37.7 63.5,-56.7 92.5,-56.7 92.5,-37.7 63.5,-37.7"/>
<text text-anchor="start" x="83.3862" y="-43.8" font-family="Helvetica,sans-Serif" font-size="11.00" fill="#000000"> &#160;</text>
<polygon fill="#ffffff" stroke="transparent" points="92.5,-37.7 92.5,-56.7 131.5,-56.7 131.5,-37.7 92.5,-37.7"/>
<polygon fill="none" stroke="#000000" points="92.5,-37.7 92.5,-56.7 131.5,-56.7 131.5,-37.7 92.5,-37.7"/>
<text text-anchor="start" x="112.9053" y="-43.8" font-family="Helvetica,sans-Serif" font-size="11.00" fill="#000000">2 &gt;</text>
</a>
</g>
</g>
<!-- email_marketing&#45;&gt;email_templates -->
<g id="edge2" class="edge">
<title>email_marketing:w&#45;&gt;email_templates:e</title>
<path fill="none" stroke="#000000" d="M166.3719,-174.9403C137.6112,-155.3331 180.2534,-65.7 131.5,-65.7"/>
<polygon fill="#000000" stroke="#000000" points="172.7691,-176.6426 179.5742,-182.1789 176.6345,-177.6713 180.5,-178.7 180.5,-178.7 180.5,-178.7 176.6345,-177.6713 181.4258,-175.2211 172.7691,-176.6426 172.7691,-176.6426"/>
<ellipse fill="none" stroke="#000000" cx="169.6767" cy="-175.8197" rx="3.2" ry="3.2"/>
</g>
<!-- email_marketing_prospect_lists -->
<g id="node4" class="node">
<title>email_marketing_prospect_lists</title>
<g id="a_node4"><a xlink:href="../../tables/email_marketing_prospect_lists.html" xlink:title="email_marketing_prospect_lists" target="_top">
<polygon fill="#ffffff" stroke="transparent" points="376,-165.7 376,-321.7 679,-321.7 679,-165.7 376,-165.7"/>
<polygon fill="#f5f5f5" stroke="transparent" points="378.5,-296.7 378.5,-319.7 677.5,-319.7 677.5,-296.7 378.5,-296.7"/>
<polygon fill="none" stroke="#000000" points="378.5,-296.7 378.5,-319.7 677.5,-319.7 677.5,-296.7 378.5,-296.7"/>
<text text-anchor="start" x="383.5" y="-305.8" font-family="Helvetica,sans-Serif" font-weight="bold" font-size="11.00" fill="#000000">email_marketing_prospect_lists</text>
<text text-anchor="start" x="642.5437" y="-304.8" font-family="Helvetica,sans-Serif" font-size="11.00" fill="#000000">[table]</text>
<polygon fill="none" stroke="#000000" points="378.5,-274.7 378.5,-296.7 611.5,-296.7 611.5,-274.7 378.5,-274.7"/>
<image xlink:href="../../images/primaryKeys.png" width="11px" height="12px" preserveAspectRatio="xMinYMin meet" x="383.5" y="-291.7"/>
<text text-anchor="start" x="398.5" y="-281.8" font-family="Helvetica,sans-Serif" font-size="11.00" fill="#000000">id</text>
<polygon fill="none" stroke="#000000" points="611.5,-274.7 611.5,-296.7 677.5,-296.7 677.5,-274.7 611.5,-274.7"/>
<text text-anchor="start" x="614.5" y="-282.4" font-family="Helvetica,sans-Serif" font-size="11.00" fill="#000000">varchar[36]</text>
<polygon fill="#ffffff" stroke="transparent" points="378.5,-252.7 378.5,-274.7 611.5,-274.7 611.5,-252.7 378.5,-252.7"/>
<polygon fill="none" stroke="#000000" points="378.5,-252.7 378.5,-274.7 611.5,-274.7 611.5,-252.7 378.5,-252.7"/>
<image xlink:href="../../images/foreignKeys.png" width="11px" height="12px" preserveAspectRatio="xMinYMin meet" x="383.5" y="-269.7"/>
<text text-anchor="start" x="398.5" y="-259.8" font-family="Helvetica,sans-Serif" font-size="11.00" fill="#000000">prospect_list_id</text>
<polygon fill="none" stroke="#000000" points="611.5,-252.7 611.5,-274.7 677.5,-274.7 677.5,-252.7 611.5,-252.7"/>
<text text-anchor="start" x="614.5" y="-260.4" font-family="Helvetica,sans-Serif" font-size="11.00" fill="#000000">varchar[36]</text>
<polygon fill="#ffffff" stroke="transparent" points="378.5,-230.7 378.5,-252.7 611.5,-252.7 611.5,-230.7 378.5,-230.7"/>
<polygon fill="none" stroke="#000000" points="378.5,-230.7 378.5,-252.7 611.5,-252.7 611.5,-230.7 378.5,-230.7"/>
<image xlink:href="../../images/foreignKeys.png" width="11px" height="12px" preserveAspectRatio="xMinYMin meet" x="383.5" y="-247.7"/>
<text text-anchor="start" x="398.5" y="-237.8" font-family="Helvetica,sans-Serif" font-size="11.00" fill="#000000">email_marketing_id</text>
<polygon fill="none" stroke="#000000" points="611.5,-230.7 611.5,-252.7 677.5,-252.7 677.5,-230.7 611.5,-230.7"/>
<text text-anchor="start" x="614.5" y="-238.4" font-family="Helvetica,sans-Serif" font-size="11.00" fill="#000000">varchar[36]</text>
<polygon fill="none" stroke="#000000" points="378.5,-208.7 378.5,-230.7 611.5,-230.7 611.5,-208.7 378.5,-208.7"/>
<text text-anchor="start" x="398.5" y="-215.8" font-family="Helvetica,sans-Serif" font-size="11.00" fill="#000000">date_modified</text>
<polygon fill="none" stroke="#000000" points="611.5,-208.7 611.5,-230.7 677.5,-230.7 677.5,-208.7 611.5,-208.7"/>
<text text-anchor="start" x="614.2401" y="-216.4" font-family="Helvetica,sans-Serif" font-size="11.00" fill="#000000">datetime[26]</text>
<polygon fill="none" stroke="#000000" points="378.5,-186.7 378.5,-208.7 611.5,-208.7 611.5,-186.7 378.5,-186.7"/>
<text text-anchor="start" x="398.5" y="-193.8" font-family="Helvetica,sans-Serif" font-size="11.00" fill="#000000">deleted</text>
<polygon fill="none" stroke="#000000" points="611.5,-186.7 611.5,-208.7 677.5,-208.7 677.5,-186.7 611.5,-186.7"/>
<text text-anchor="start" x="614.5" y="-194.4" font-family="Helvetica,sans-Serif" font-size="11.00" fill="#000000">bit[1]</text>
<polygon fill="#ffffff" stroke="transparent" points="378.5,-167.7 378.5,-186.7 499.5,-186.7 499.5,-167.7 378.5,-167.7"/>
<polygon fill="none" stroke="#000000" points="378.5,-167.7 378.5,-186.7 499.5,-186.7 499.5,-167.7 378.5,-167.7"/>
<text text-anchor="start" x="381.5" y="-173.8" font-family="Helvetica,sans-Serif" font-size="11.00" fill="#000000">&lt; 2</text>
<polygon fill="#ffffff" stroke="transparent" points="499.5,-167.7 499.5,-186.7 611.5,-186.7 611.5,-167.7 499.5,-167.7"/>
<polygon fill="none" stroke="#000000" points="499.5,-167.7 499.5,-186.7 611.5,-186.7 611.5,-167.7 499.5,-167.7"/>
<text text-anchor="start" x="602.3862" y="-173.8" font-family="Helvetica,sans-Serif" font-size="11.00" fill="#000000"> &#160;</text>
<polygon fill="#ffffff" stroke="transparent" points="611.5,-167.7 611.5,-186.7 677.5,-186.7 677.5,-167.7 611.5,-167.7"/>
<polygon fill="none" stroke="#000000" points="611.5,-167.7 611.5,-186.7 677.5,-186.7 677.5,-167.7 611.5,-167.7"/>
<text text-anchor="start" x="658.9053" y="-173.8" font-family="Helvetica,sans-Serif" font-size="11.00" fill="#000000">0 &gt;</text>
<polygon fill="none" stroke="#000000" stroke-width="2" points="377,-166.7 377,-320.7 678,-320.7 678,-166.7 377,-166.7"/>
</a>
</g>
</g>
<!-- email_marketing_prospect_lists&#45;&gt;email_marketing -->
<g id="edge3" class="edge">
<title>email_marketing_prospect_lists:w&#45;&gt;email_marketing:e</title>
<path fill="none" stroke="#000000" d="M363.7651,-242.1954C351.7749,-243.0475 344.352,-244.7 327.5,-244.7"/>
<polygon fill="#000000" stroke="#000000" points="370.5045,-241.9689 378.621,-245.298 374.5023,-241.8344 378.5,-241.7 378.5,-241.7 378.5,-241.7 374.5023,-241.8344 378.379,-238.102 370.5045,-241.9689 370.5045,-241.9689"/>
<ellipse fill="none" stroke="#000000" cx="367.3063" cy="-242.0764" rx="3.2" ry="3.2"/>
</g>
<!-- prospect_lists -->
<g id="node5" class="node">
<title>prospect_lists</title>
<g id="a_node5"><a xlink:href="../../tables/prospect_lists.html" xlink:title="prospect_lists" target="_top">
<polygon fill="#ffffff" stroke="transparent" points="186,-300.2 186,-427.2 321,-427.2 321,-300.2 186,-300.2"/>
<polygon fill="#f5f5f5" stroke="transparent" points="186.5,-403.7 186.5,-426.7 321.5,-426.7 321.5,-403.7 186.5,-403.7"/>
<polygon fill="none" stroke="#000000" points="186.5,-403.7 186.5,-426.7 321.5,-426.7 321.5,-403.7 186.5,-403.7"/>
<text text-anchor="start" x="191.5" y="-412.8" font-family="Helvetica,sans-Serif" font-weight="bold" font-size="11.00" fill="#000000">prospect_lists</text>
<text text-anchor="start" x="286.5437" y="-411.8" font-family="Helvetica,sans-Serif" font-size="11.00" fill="#000000">[table]</text>
<polygon fill="#c0c0c0" stroke="transparent" points="186.5,-381.7 186.5,-403.7 321.5,-403.7 321.5,-381.7 186.5,-381.7"/>
<polygon fill="none" stroke="#000000" points="186.5,-381.7 186.5,-403.7 321.5,-403.7 321.5,-381.7 186.5,-381.7"/>
<image xlink:href="../../images/foreignKeys.png" width="11px" height="12px" preserveAspectRatio="xMinYMin meet" x="191.5" y="-398.7"/>
<text text-anchor="start" x="206.5" y="-388.8" font-family="Helvetica,sans-Serif" font-size="11.00" fill="#000000">assigned_user_id</text>
<polygon fill="none" stroke="#000000" points="186.5,-359.7 186.5,-381.7 321.5,-381.7 321.5,-359.7 186.5,-359.7"/>
<image xlink:href="../../images/primaryKeys.png" width="11px" height="12px" preserveAspectRatio="xMinYMin meet" x="191.5" y="-376.7"/>
<text text-anchor="start" x="206.5" y="-366.8" font-family="Helvetica,sans-Serif" font-size="11.00" fill="#000000">id</text>
<polygon fill="#ffffff" stroke="transparent" points="186.5,-337.7 186.5,-359.7 321.5,-359.7 321.5,-337.7 186.5,-337.7"/>
<polygon fill="none" stroke="#000000" points="186.5,-337.7 186.5,-359.7 321.5,-359.7 321.5,-337.7 186.5,-337.7"/>
<text text-anchor="start" x="206.5" y="-344.8" font-family="Helvetica,sans-Serif" font-size="11.00" fill="#000000">name</text>
<polygon fill="none" stroke="#000000" points="186.5,-318.7 186.5,-337.7 321.5,-337.7 321.5,-318.7 186.5,-318.7"/>
<text text-anchor="start" x="189.5" y="-324.8" font-family="Helvetica,sans-Serif" font-size="11.00" fill="#000000">...</text>
<polygon fill="#ffffff" stroke="transparent" points="186.5,-299.7 186.5,-318.7 247.5,-318.7 247.5,-299.7 186.5,-299.7"/>
<polygon fill="none" stroke="#000000" points="186.5,-299.7 186.5,-318.7 247.5,-318.7 247.5,-299.7 186.5,-299.7"/>
<text text-anchor="start" x="189.5" y="-305.8" font-family="Helvetica,sans-Serif" font-size="11.00" fill="#000000">&lt; 1</text>
<polygon fill="#ffffff" stroke="transparent" points="247.5,-299.7 247.5,-318.7 279.5,-318.7 279.5,-299.7 247.5,-299.7"/>
<polygon fill="none" stroke="#000000" points="247.5,-299.7 247.5,-318.7 279.5,-318.7 279.5,-299.7 247.5,-299.7"/>
<text text-anchor="start" x="270.3862" y="-305.8" font-family="Helvetica,sans-Serif" font-size="11.00" fill="#000000"> &#160;</text>
<polygon fill="#ffffff" stroke="transparent" points="279.5,-299.7 279.5,-318.7 321.5,-318.7 321.5,-299.7 279.5,-299.7"/>
<polygon fill="none" stroke="#000000" points="279.5,-299.7 279.5,-318.7 321.5,-318.7 321.5,-299.7 279.5,-299.7"/>
<text text-anchor="start" x="302.9053" y="-305.8" font-family="Helvetica,sans-Serif" font-size="11.00" fill="#000000">4 &gt;</text>
</a>
</g>
</g>
<!-- email_marketing_prospect_lists&#45;&gt;prospect_lists -->
<g id="edge4" class="edge">
<title>email_marketing_prospect_lists:w&#45;&gt;prospect_lists:e</title>
<path fill="none" stroke="#000000" d="M364.3016,-267.2601C334.4705,-285.8262 369.489,-370.7 321.5,-370.7"/>
<polygon fill="#000000" stroke="#000000" points="370.7402,-265.6457 379.3756,-267.1919 374.6201,-264.6729 378.5,-263.7 378.5,-263.7 378.5,-263.7 374.6201,-264.6729 377.6244,-260.2081 370.7402,-265.6457 370.7402,-265.6457"/>
<ellipse fill="none" stroke="#000000" cx="367.6363" cy="-266.424" rx="3.2" ry="3.2"/>
</g>
<!-- prospect_list_campaigns -->
<g id="node6" class="node">
<title>prospect_list_campaigns</title>
<g id="a_node6"><a xlink:href="../../tables/prospect_list_campaigns.html" xlink:title="prospect_list_campaigns" target="_top">
<polygon fill="#ffffff" stroke="transparent" points="445.5,-425.2 445.5,-486.2 609.5,-486.2 609.5,-425.2 445.5,-425.2"/>
<polygon fill="#f5f5f5" stroke="transparent" points="445.5,-462.7 445.5,-485.7 609.5,-485.7 609.5,-462.7 445.5,-462.7"/>
<polygon fill="none" stroke="#000000" points="445.5,-462.7 445.5,-485.7 609.5,-485.7 609.5,-462.7 445.5,-462.7"/>
<text text-anchor="start" x="450.4879" y="-471.8" font-family="Helvetica,sans-Serif" font-weight="bold" font-size="11.00" fill="#000000">prospect_list_campaigns</text>
<text text-anchor="start" x="575.0219" y="-470.8" font-family="Helvetica,sans-Serif" font-size="11.00" fill="#000000">[table]</text>
<polygon fill="none" stroke="#000000" points="445.5,-443.7 445.5,-462.7 609.5,-462.7 609.5,-443.7 445.5,-443.7"/>
<text text-anchor="start" x="448.5" y="-449.8" font-family="Helvetica,sans-Serif" font-size="11.00" fill="#000000">...</text>
<polygon fill="#ffffff" stroke="transparent" points="445.5,-424.7 445.5,-443.7 525.5,-443.7 525.5,-424.7 445.5,-424.7"/>
<polygon fill="none" stroke="#000000" points="445.5,-424.7 445.5,-443.7 525.5,-443.7 525.5,-424.7 445.5,-424.7"/>
<text text-anchor="start" x="448.5" y="-430.8" font-family="Helvetica,sans-Serif" font-size="11.00" fill="#000000">&lt; 2</text>
<polygon fill="#ffffff" stroke="transparent" points="525.5,-424.7 525.5,-443.7 567.5,-443.7 567.5,-424.7 525.5,-424.7"/>
<polygon fill="none" stroke="#000000" points="525.5,-424.7 525.5,-443.7 567.5,-443.7 567.5,-424.7 525.5,-424.7"/>
<text text-anchor="start" x="558.3862" y="-430.8" font-family="Helvetica,sans-Serif" font-size="11.00" fill="#000000"> &#160;</text>
<polygon fill="#ffffff" stroke="transparent" points="567.5,-424.7 567.5,-443.7 609.5,-443.7 609.5,-424.7 567.5,-424.7"/>
<polygon fill="none" stroke="#000000" points="567.5,-424.7 567.5,-443.7 609.5,-443.7 609.5,-424.7 567.5,-424.7"/>
<text text-anchor="start" x="600.3862" y="-430.8" font-family="Helvetica,sans-Serif" font-size="11.00" fill="#000000"> &#160;</text>
</a>
</g>
</g>
<!-- prospect_list_campaigns&#45;&gt;campaigns -->
<g id="edge5" class="edge">
<title>prospect_list_campaigns:w&#45;&gt;campaigns:e</title>
<path fill="none" stroke="#000000" d="M430.8256,-453.0135C318.7866,-457.7879 259.9996,-514.4169 172,-437.7 76.1075,-354.1022 244.7162,-156.7 117.5,-156.7"/>
<polygon fill="#000000" stroke="#000000" points="437.5018,-452.8709 445.5769,-456.2992 441.5009,-452.7855 445.5,-452.7 445.5,-452.7 445.5,-452.7 441.5009,-452.7855 445.4231,-449.1008 437.5018,-452.8709 437.5018,-452.8709"/>
<ellipse fill="none" stroke="#000000" cx="434.3026" cy="-452.9393" rx="3.2" ry="3.2"/>
</g>
<!-- prospect_list_campaigns&#45;&gt;prospect_lists -->
<g id="edge6" class="edge">
<title>prospect_list_campaigns:w&#45;&gt;prospect_lists:e</title>
<path fill="none" stroke="#000000" d="M430.9876,-451.7723C404.521,-448.0515 395.0815,-433.5002 368,-414.7 344.6276,-398.4747 349.9523,-370.7 321.5,-370.7"/>
<polygon fill="#000000" stroke="#000000" points="437.5163,-452.1896 445.2703,-456.2927 441.5081,-452.4448 445.5,-452.7 445.5,-452.7 445.5,-452.7 441.5081,-452.4448 445.7297,-449.1073 437.5163,-452.1896 437.5163,-452.1896"/>
<ellipse fill="none" stroke="#000000" cx="434.3228" cy="-451.9854" rx="3.2" ry="3.2"/>
</g>
<!-- prospect_lists_prospects -->
<g id="node7" class="node">
<title>prospect_lists_prospects</title>
<g id="a_node7"><a xlink:href="../../tables/prospect_lists_prospects.html" xlink:title="prospect_lists_prospects" target="_top">
<polygon fill="#ffffff" stroke="transparent" points="445.5,-343.2 445.5,-404.2 609.5,-404.2 609.5,-343.2 445.5,-343.2"/>
<polygon fill="#f5f5f5" stroke="transparent" points="445.5,-380.7 445.5,-403.7 609.5,-403.7 609.5,-380.7 445.5,-380.7"/>
<polygon fill="none" stroke="#000000" points="445.5,-380.7 445.5,-403.7 609.5,-403.7 609.5,-380.7 445.5,-380.7"/>
<text text-anchor="start" x="450.4874" y="-389.8" font-family="Helvetica,sans-Serif" font-weight="bold" font-size="11.00" fill="#000000">prospect_lists_prospects</text>
<text text-anchor="start" x="575.0219" y="-388.8" font-family="Helvetica,sans-Serif" font-size="11.00" fill="#000000">[table]</text>
<polygon fill="none" stroke="#000000" points="445.5,-361.7 445.5,-380.7 609.5,-380.7 609.5,-361.7 445.5,-361.7"/>
<text text-anchor="start" x="448.5" y="-367.8" font-family="Helvetica,sans-Serif" font-size="11.00" fill="#000000">...</text>
<polygon fill="#ffffff" stroke="transparent" points="445.5,-342.7 445.5,-361.7 525.5,-361.7 525.5,-342.7 445.5,-342.7"/>
<polygon fill="none" stroke="#000000" points="445.5,-342.7 445.5,-361.7 525.5,-361.7 525.5,-342.7 445.5,-342.7"/>
<text text-anchor="start" x="448.5" y="-348.8" font-family="Helvetica,sans-Serif" font-size="11.00" fill="#000000">&lt; 6</text>
<polygon fill="#ffffff" stroke="transparent" points="525.5,-342.7 525.5,-361.7 567.5,-361.7 567.5,-342.7 525.5,-342.7"/>
<polygon fill="none" stroke="#000000" points="525.5,-342.7 525.5,-361.7 567.5,-361.7 567.5,-342.7 525.5,-342.7"/>
<text text-anchor="start" x="558.3862" y="-348.8" font-family="Helvetica,sans-Serif" font-size="11.00" fill="#000000"> &#160;</text>
<polygon fill="#ffffff" stroke="transparent" points="567.5,-342.7 567.5,-361.7 609.5,-361.7 609.5,-342.7 567.5,-342.7"/>
<polygon fill="none" stroke="#000000" points="567.5,-342.7 567.5,-361.7 609.5,-361.7 609.5,-342.7 567.5,-342.7"/>
<text text-anchor="start" x="600.3862" y="-348.8" font-family="Helvetica,sans-Serif" font-size="11.00" fill="#000000"> &#160;</text>
</a>
</g>
</g>
<!-- prospect_lists_prospects&#45;&gt;prospect_lists -->
<g id="edge7" class="edge">
<title>prospect_lists_prospects:w&#45;&gt;prospect_lists:e</title>
<path fill="none" stroke="#000000" d="M431.0217,-370.7C387.4423,-370.7 371.4444,-370.7 321.5,-370.7"/>
<polygon fill="#000000" stroke="#000000" points="437.5,-370.7001 445.5,-374.3 441.5,-370.7 445.5,-370.7 445.5,-370.7 445.5,-370.7 441.5,-370.7 445.5,-367.1 437.5,-370.7001 437.5,-370.7001"/>
<ellipse fill="none" stroke="#000000" cx="434.3" cy="-370.7001" rx="3.2" ry="3.2"/>
</g>
<!-- securitygroups_records -->
<g id="node8" class="node">
<title>securitygroups_records</title>
<g id="a_node8"><a xlink:href="../../tables/securitygroups_records.html" xlink:title="securitygroups_records" target="_top">
<polygon fill="#ffffff" stroke="transparent" points="449,-70.2 449,-131.2 606,-131.2 606,-70.2 449,-70.2"/>
<polygon fill="#f5f5f5" stroke="transparent" points="449.5,-107.7 449.5,-130.7 606.5,-130.7 606.5,-107.7 449.5,-107.7"/>
<polygon fill="none" stroke="#000000" points="449.5,-107.7 449.5,-130.7 606.5,-130.7 606.5,-107.7 449.5,-107.7"/>
<text text-anchor="start" x="454.3528" y="-116.8" font-family="Helvetica,sans-Serif" font-weight="bold" font-size="11.00" fill="#000000">securitygroups_records</text>
<text text-anchor="start" x="572.0219" y="-115.8" font-family="Helvetica,sans-Serif" font-size="11.00" fill="#000000">[table]</text>
<polygon fill="none" stroke="#000000" points="449.5,-88.7 449.5,-107.7 606.5,-107.7 606.5,-88.7 449.5,-88.7"/>
<text text-anchor="start" x="452.5" y="-94.8" font-family="Helvetica,sans-Serif" font-size="11.00" fill="#000000">...</text>
<polygon fill="#ffffff" stroke="transparent" points="449.5,-69.7 449.5,-88.7 529.5,-88.7 529.5,-69.7 449.5,-69.7"/>
<polygon fill="none" stroke="#000000" points="449.5,-69.7 449.5,-88.7 529.5,-88.7 529.5,-69.7 449.5,-69.7"/>
<text text-anchor="start" x="452.5" y="-75.8" font-family="Helvetica,sans-Serif" font-size="11.00" fill="#000000">&lt; 41</text>
<polygon fill="#ffffff" stroke="transparent" points="529.5,-69.7 529.5,-88.7 567.5,-88.7 567.5,-69.7 529.5,-69.7"/>
<polygon fill="none" stroke="#000000" points="529.5,-69.7 529.5,-88.7 567.5,-88.7 567.5,-69.7 529.5,-69.7"/>
<text text-anchor="start" x="558.3862" y="-75.8" font-family="Helvetica,sans-Serif" font-size="11.00" fill="#000000"> &#160;</text>
<polygon fill="#ffffff" stroke="transparent" points="567.5,-69.7 567.5,-88.7 606.5,-88.7 606.5,-69.7 567.5,-69.7"/>
<polygon fill="none" stroke="#000000" points="567.5,-69.7 567.5,-88.7 606.5,-88.7 606.5,-69.7 567.5,-69.7"/>
<text text-anchor="start" x="597.3862" y="-75.8" font-family="Helvetica,sans-Serif" font-size="11.00" fill="#000000"> &#160;</text>
</a>
</g>
</g>
<!-- securitygroups_records&#45;&gt;email_marketing -->
<g id="edge9" class="edge">
<title>securitygroups_records:w&#45;&gt;email_marketing:e</title>
<path fill="none" stroke="#000000" d="M434.8217,-98.7194C402.6352,-103.5958 392.8626,-125.5556 368,-155.7 340.3481,-189.2263 370.9585,-244.7 327.5,-244.7"/>
<polygon fill="#000000" stroke="#000000" points="441.5192,-98.2543 449.7494,-101.2913 445.5096,-97.9772 449.5,-97.7 449.5,-97.7 449.5,-97.7 445.5096,-97.9772 449.2506,-94.1087 441.5192,-98.2543 441.5192,-98.2543"/>
<ellipse fill="none" stroke="#000000" cx="438.3269" cy="-98.4761" rx="3.2" ry="3.2"/>
</g>
<!-- securitygroups_records&#45;&gt;campaigns -->
<g id="edge8" class="edge">
<title>securitygroups_records:w&#45;&gt;campaigns:e</title>
<path fill="none" stroke="#000000" d="M435.0708,-97.4717C322.754,-93.899 280.4638,-50.2339 172,-97.7 139.2968,-112.0116 153.1976,-156.7 117.5,-156.7"/>
<polygon fill="#000000" stroke="#000000" points="441.501,-97.5734 449.443,-101.2995 445.5005,-97.6367 449.5,-97.7 449.5,-97.7 449.5,-97.7 445.5005,-97.6367 449.557,-94.1005 441.501,-97.5734 441.501,-97.5734"/>
<ellipse fill="none" stroke="#000000" cx="438.3014" cy="-97.5228" rx="3.2" ry="3.2"/>
</g>
<!-- securitygroups_records&#45;&gt;email_templates -->
<g id="edge10" class="edge">
<title>securitygroups_records:w&#45;&gt;email_templates:e</title>
<path fill="none" stroke="#000000" d="M435.1048,-97.204C394.9293,-94.3007 381.4622,-79.4417 335,-73.7 245.169,-62.5989 222.0143,-65.7 131.5,-65.7"/>
<polygon fill="#000000" stroke="#000000" points="441.5047,-97.4244 449.376,-101.2979 445.5024,-97.5622 449.5,-97.7 449.5,-97.7 449.5,-97.7 445.5024,-97.5622 449.624,-94.1021 441.5047,-97.4244 441.5047,-97.4244"/>
<ellipse fill="none" stroke="#000000" cx="438.3066" cy="-97.3142" rx="3.2" ry="3.2"/>
</g>
<!-- securitygroups_records&#45;&gt;prospect_lists -->
<g id="edge11" class="edge">
<title>securitygroups_records:w&#45;&gt;prospect_lists:e</title>
<path fill="none" stroke="#000000" d="M435.1131,-98.5526C401.9302,-102.8161 389.5958,-122.9272 368,-155.7 314.2064,-237.3347 419.2649,-370.7 321.5,-370.7"/>
<polygon fill="#000000" stroke="#000000" points="441.514,-98.1733 449.713,-101.2937 445.507,-97.9367 449.5,-97.7 449.5,-97.7 449.5,-97.7 445.507,-97.9367 449.287,-94.1063 441.514,-98.1733 441.514,-98.1733"/>
<ellipse fill="none" stroke="#000000" cx="438.3196" cy="-98.3627" rx="3.2" ry="3.2"/>
</g>
</g>
</svg>
