<?xml version="1.0" encoding="UTF-8" standalone="no"?>
<!DOCTYPE svg PUBLIC "-//W3C//DTD SVG 1.1//EN"
 "http://www.w3.org/Graphics/SVG/1.1/DTD/svg11.dtd">
<!-- Generated by graphviz version 2.40.1 (20161225.0304)
 -->
<!-- Title: oneDegreeRelationshipsDiagram Pages: 1 -->
<svg width="717pt" height="644pt"
 viewBox="0.00 0.00 717.00 644.20" xmlns="http://www.w3.org/2000/svg" xmlns:xlink="http://www.w3.org/1999/xlink">
<g id="graph0" class="graph" transform="scale(1 1) rotate(0) translate(4 640.2)">
<title>oneDegreeRelationshipsDiagram</title>
<polygon fill="#ffffff" stroke="transparent" points="-4,4 -4,-640.2 713,-640.2 713,4 -4,4"/>
<text text-anchor="middle" x="72.4936" y="-7.3" font-family="Helvetica,sans-Serif" font-size="11.00" fill="#000000">Generated by SchemaSpy</text>
<!-- email_marketing -->
<g id="node1" class="node">
<title>email_marketing</title>
<g id="a_node1"><a xlink:href="../../tables/email_marketing.html" xlink:title="email_marketing" target="_top">
<polygon fill="#ffffff" stroke="transparent" points="201,-74.7 201,-516.7 419,-516.7 419,-74.7 201,-74.7"/>
<polygon fill="#f5f5f5" stroke="transparent" points="203,-491.7 203,-514.7 417,-514.7 417,-491.7 203,-491.7"/>
<polygon fill="none" stroke="#000000" points="203,-491.7 203,-514.7 417,-514.7 417,-491.7 203,-491.7"/>
<text text-anchor="start" x="208" y="-500.8" font-family="Helvetica,sans-Serif" font-weight="bold" font-size="11.00" fill="#000000">email_marketing</text>
<text text-anchor="start" x="382.0437" y="-499.8" font-family="Helvetica,sans-Serif" font-size="11.00" fill="#000000">[table]</text>
<polygon fill="none" stroke="#000000" points="203,-469.7 203,-491.7 350,-491.7 350,-469.7 203,-469.7"/>
<image xlink:href="../../images/primaryKeys.png" width="11px" height="12px" preserveAspectRatio="xMinYMin meet" x="208" y="-486.7"/>
<text text-anchor="start" x="223" y="-476.8" font-family="Helvetica,sans-Serif" font-size="11.00" fill="#000000">id</text>
<polygon fill="none" stroke="#000000" points="350,-469.7 350,-491.7 417,-491.7 417,-469.7 350,-469.7"/>
<text text-anchor="start" x="353" y="-477.4" font-family="Helvetica,sans-Serif" font-size="11.00" fill="#000000">char[36]</text>
<polygon fill="#ffffff" stroke="transparent" points="203,-447.7 203,-469.7 350,-469.7 350,-447.7 203,-447.7"/>
<polygon fill="none" stroke="#000000" points="203,-447.7 203,-469.7 350,-469.7 350,-447.7 203,-447.7"/>
<text text-anchor="start" x="223" y="-454.8" font-family="Helvetica,sans-Serif" font-size="11.00" fill="#000000">deleted</text>
<polygon fill="none" stroke="#000000" points="350,-447.7 350,-469.7 417,-469.7 417,-447.7 350,-447.7"/>
<text text-anchor="start" x="353" y="-455.4" font-family="Helvetica,sans-Serif" font-size="11.00" fill="#000000">bit[1]</text>
<polygon fill="none" stroke="#000000" points="203,-425.7 203,-447.7 350,-447.7 350,-425.7 203,-425.7"/>
<text text-anchor="start" x="223" y="-432.8" font-family="Helvetica,sans-Serif" font-size="11.00" fill="#000000">date_entered</text>
<polygon fill="none" stroke="#000000" points="350,-425.7 350,-447.7 417,-447.7 417,-425.7 350,-425.7"/>
<text text-anchor="start" x="353" y="-433.4" font-family="Helvetica,sans-Serif" font-size="11.00" fill="#000000">datetime[26]</text>
<polygon fill="none" stroke="#000000" points="203,-403.7 203,-425.7 350,-425.7 350,-403.7 203,-403.7"/>
<text text-anchor="start" x="223" y="-410.8" font-family="Helvetica,sans-Serif" font-size="11.00" fill="#000000">date_modified</text>
<polygon fill="none" stroke="#000000" points="350,-403.7 350,-425.7 417,-425.7 417,-403.7 350,-403.7"/>
<text text-anchor="start" x="353" y="-411.4" font-family="Helvetica,sans-Serif" font-size="11.00" fill="#000000">datetime[26]</text>
<polygon fill="none" stroke="#000000" points="203,-381.7 203,-403.7 350,-403.7 350,-381.7 203,-381.7"/>
<text text-anchor="start" x="223" y="-388.8" font-family="Helvetica,sans-Serif" font-size="11.00" fill="#000000">modified_user_id</text>
<polygon fill="none" stroke="#000000" points="350,-381.7 350,-403.7 417,-403.7 417,-381.7 350,-381.7"/>
<text text-anchor="start" x="353" y="-389.4" font-family="Helvetica,sans-Serif" font-size="11.00" fill="#000000">char[36]</text>
<polygon fill="none" stroke="#000000" points="203,-359.7 203,-381.7 350,-381.7 350,-359.7 203,-359.7"/>
<text text-anchor="start" x="223" y="-366.8" font-family="Helvetica,sans-Serif" font-size="11.00" fill="#000000">created_by</text>
<polygon fill="none" stroke="#000000" points="350,-359.7 350,-381.7 417,-381.7 417,-359.7 350,-359.7"/>
<text text-anchor="start" x="353" y="-367.4" font-family="Helvetica,sans-Serif" font-size="11.00" fill="#000000">char[36]</text>
<polygon fill="#ffffff" stroke="transparent" points="203,-337.7 203,-359.7 350,-359.7 350,-337.7 203,-337.7"/>
<polygon fill="none" stroke="#000000" points="203,-337.7 203,-359.7 350,-359.7 350,-337.7 203,-337.7"/>
<text text-anchor="start" x="223" y="-344.8" font-family="Helvetica,sans-Serif" font-size="11.00" fill="#000000">name</text>
<polygon fill="none" stroke="#000000" points="350,-337.7 350,-359.7 417,-359.7 417,-337.7 350,-337.7"/>
<text text-anchor="start" x="352.9365" y="-345.4" font-family="Helvetica,sans-Serif" font-size="11.00" fill="#000000">varchar[255]</text>
<polygon fill="none" stroke="#000000" points="203,-315.7 203,-337.7 350,-337.7 350,-315.7 203,-315.7"/>
<text text-anchor="start" x="223" y="-322.8" font-family="Helvetica,sans-Serif" font-size="11.00" fill="#000000">from_name</text>
<polygon fill="none" stroke="#000000" points="350,-315.7 350,-337.7 417,-337.7 417,-315.7 350,-315.7"/>
<text text-anchor="start" x="352.9365" y="-323.4" font-family="Helvetica,sans-Serif" font-size="11.00" fill="#000000">varchar[100]</text>
<polygon fill="none" stroke="#000000" points="203,-293.7 203,-315.7 350,-315.7 350,-293.7 203,-293.7"/>
<text text-anchor="start" x="223" y="-300.8" font-family="Helvetica,sans-Serif" font-size="11.00" fill="#000000">from_addr</text>
<polygon fill="none" stroke="#000000" points="350,-293.7 350,-315.7 417,-315.7 417,-293.7 350,-293.7"/>
<text text-anchor="start" x="352.9365" y="-301.4" font-family="Helvetica,sans-Serif" font-size="11.00" fill="#000000">varchar[100]</text>
<polygon fill="none" stroke="#000000" points="203,-271.7 203,-293.7 350,-293.7 350,-271.7 203,-271.7"/>
<text text-anchor="start" x="223" y="-278.8" font-family="Helvetica,sans-Serif" font-size="11.00" fill="#000000">reply_to_name</text>
<polygon fill="none" stroke="#000000" points="350,-271.7 350,-293.7 417,-293.7 417,-271.7 350,-271.7"/>
<text text-anchor="start" x="352.9365" y="-279.4" font-family="Helvetica,sans-Serif" font-size="11.00" fill="#000000">varchar[100]</text>
<polygon fill="none" stroke="#000000" points="203,-249.7 203,-271.7 350,-271.7 350,-249.7 203,-249.7"/>
<text text-anchor="start" x="223" y="-256.8" font-family="Helvetica,sans-Serif" font-size="11.00" fill="#000000">reply_to_addr</text>
<polygon fill="none" stroke="#000000" points="350,-249.7 350,-271.7 417,-271.7 417,-249.7 350,-249.7"/>
<text text-anchor="start" x="352.9365" y="-257.4" font-family="Helvetica,sans-Serif" font-size="11.00" fill="#000000">varchar[100]</text>
<polygon fill="none" stroke="#000000" points="203,-227.7 203,-249.7 350,-249.7 350,-227.7 203,-227.7"/>
<text text-anchor="start" x="223" y="-234.8" font-family="Helvetica,sans-Serif" font-size="11.00" fill="#000000">inbound_email_id</text>
<polygon fill="none" stroke="#000000" points="350,-227.7 350,-249.7 417,-249.7 417,-227.7 350,-227.7"/>
<text text-anchor="start" x="353" y="-235.4" font-family="Helvetica,sans-Serif" font-size="11.00" fill="#000000">varchar[36]</text>
<polygon fill="none" stroke="#000000" points="203,-205.7 203,-227.7 350,-227.7 350,-205.7 203,-205.7"/>
<text text-anchor="start" x="223" y="-212.8" font-family="Helvetica,sans-Serif" font-size="11.00" fill="#000000">date_start</text>
<polygon fill="none" stroke="#000000" points="350,-205.7 350,-227.7 417,-227.7 417,-205.7 350,-205.7"/>
<text text-anchor="start" x="353" y="-213.4" font-family="Helvetica,sans-Serif" font-size="11.00" fill="#000000">datetime[26]</text>
<polygon fill="none" stroke="#000000" points="203,-183.7 203,-205.7 350,-205.7 350,-183.7 203,-183.7"/>
<image xlink:href="../../images/foreignKeys.png" width="11px" height="12px" preserveAspectRatio="xMinYMin meet" x="208" y="-200.7"/>
<text text-anchor="start" x="223" y="-190.8" font-family="Helvetica,sans-Serif" font-size="11.00" fill="#000000">template_id</text>
<polygon fill="none" stroke="#000000" points="350,-183.7 350,-205.7 417,-205.7 417,-183.7 350,-183.7"/>
<text text-anchor="start" x="353" y="-191.4" font-family="Helvetica,sans-Serif" font-size="11.00" fill="#000000">char[36]</text>
<polygon fill="none" stroke="#000000" points="203,-161.7 203,-183.7 350,-183.7 350,-161.7 203,-161.7"/>
<text text-anchor="start" x="223" y="-168.8" font-family="Helvetica,sans-Serif" font-size="11.00" fill="#000000">status</text>
<polygon fill="none" stroke="#000000" points="350,-161.7 350,-183.7 417,-183.7 417,-161.7 350,-161.7"/>
<text text-anchor="start" x="352.9365" y="-169.4" font-family="Helvetica,sans-Serif" font-size="11.00" fill="#000000">varchar[100]</text>
<polygon fill="none" stroke="#000000" points="203,-139.7 203,-161.7 350,-161.7 350,-139.7 203,-139.7"/>
<image xlink:href="../../images/foreignKeys.png" width="11px" height="12px" preserveAspectRatio="xMinYMin meet" x="208" y="-156.7"/>
<text text-anchor="start" x="223" y="-146.8" font-family="Helvetica,sans-Serif" font-size="11.00" fill="#000000">campaign_id</text>
<polygon fill="none" stroke="#000000" points="350,-139.7 350,-161.7 417,-161.7 417,-139.7 350,-139.7"/>
<text text-anchor="start" x="353" y="-147.4" font-family="Helvetica,sans-Serif" font-size="11.00" fill="#000000">char[36]</text>
<polygon fill="none" stroke="#000000" points="203,-117.7 203,-139.7 350,-139.7 350,-117.7 203,-117.7"/>
<text text-anchor="start" x="223" y="-124.8" font-family="Helvetica,sans-Serif" font-size="11.00" fill="#000000">outbound_email_id</text>
<polygon fill="none" stroke="#000000" points="350,-117.7 350,-139.7 417,-139.7 417,-117.7 350,-117.7"/>
<text text-anchor="start" x="353" y="-125.4" font-family="Helvetica,sans-Serif" font-size="11.00" fill="#000000">char[36]</text>
<polygon fill="none" stroke="#000000" points="203,-95.7 203,-117.7 350,-117.7 350,-95.7 203,-95.7"/>
<text text-anchor="start" x="223" y="-102.8" font-family="Helvetica,sans-Serif" font-size="11.00" fill="#000000">all_prospect_lists</text>
<polygon fill="none" stroke="#000000" points="350,-95.7 350,-117.7 417,-117.7 417,-95.7 350,-95.7"/>
<text text-anchor="start" x="353" y="-103.4" font-family="Helvetica,sans-Serif" font-size="11.00" fill="#000000">bit[1]</text>
<polygon fill="#ffffff" stroke="transparent" points="203,-76.7 203,-95.7 281,-95.7 281,-76.7 203,-76.7"/>
<polygon fill="none" stroke="#000000" points="203,-76.7 203,-95.7 281,-95.7 281,-76.7 203,-76.7"/>
<text text-anchor="start" x="206" y="-82.8" font-family="Helvetica,sans-Serif" font-size="11.00" fill="#000000">&lt; 2</text>
<polygon fill="#ffffff" stroke="transparent" points="281,-76.7 281,-95.7 350,-95.7 350,-76.7 281,-76.7"/>
<polygon fill="none" stroke="#000000" points="281,-76.7 281,-95.7 350,-95.7 350,-76.7 281,-76.7"/>
<text text-anchor="start" x="340.8862" y="-82.8" font-family="Helvetica,sans-Serif" font-size="11.00" fill="#000000"> &#160;</text>
<polygon fill="#ffffff" stroke="transparent" points="350,-76.7 350,-95.7 417,-95.7 417,-76.7 350,-76.7"/>
<polygon fill="none" stroke="#000000" points="350,-76.7 350,-95.7 417,-95.7 417,-76.7 350,-76.7"/>
<text text-anchor="start" x="398.4053" y="-82.8" font-family="Helvetica,sans-Serif" font-size="11.00" fill="#000000">2 &gt;</text>
<polygon fill="none" stroke="#000000" stroke-width="2" points="202,-75.7 202,-515.7 418,-515.7 418,-75.7 202,-75.7"/>
</a>
</g>
</g>
<!-- campaigns -->
<g id="node2" class="node">
<title>campaigns</title>
<g id="a_node2"><a xlink:href="../../tables/campaigns.html" xlink:title="campaigns" target="_top">
<polygon fill="#ffffff" stroke="transparent" points="8,-38.2 8,-253.2 152,-253.2 152,-38.2 8,-38.2"/>
<polygon fill="#f5f5f5" stroke="transparent" points="8,-229.7 8,-252.7 152,-252.7 152,-229.7 8,-229.7"/>
<polygon fill="none" stroke="#000000" points="8,-229.7 8,-252.7 152,-252.7 152,-229.7 8,-229.7"/>
<text text-anchor="start" x="13" y="-238.8" font-family="Helvetica,sans-Serif" font-weight="bold" font-size="11.00" fill="#000000">campaigns</text>
<text text-anchor="start" x="117.0437" y="-237.8" font-family="Helvetica,sans-Serif" font-size="11.00" fill="#000000">[table]</text>
<polygon fill="none" stroke="#000000" points="8,-207.7 8,-229.7 152,-229.7 152,-207.7 8,-207.7"/>
<image xlink:href="../../images/primaryKeys.png" width="11px" height="12px" preserveAspectRatio="xMinYMin meet" x="13" y="-224.7"/>
<text text-anchor="start" x="28" y="-214.8" font-family="Helvetica,sans-Serif" font-size="11.00" fill="#000000">id</text>
<polygon fill="#ffffff" stroke="transparent" points="8,-185.7 8,-207.7 152,-207.7 152,-185.7 8,-185.7"/>
<polygon fill="none" stroke="#000000" points="8,-185.7 8,-207.7 152,-207.7 152,-185.7 8,-185.7"/>
<text text-anchor="start" x="28" y="-192.8" font-family="Helvetica,sans-Serif" font-size="11.00" fill="#000000">name</text>
<polygon fill="#c0c0c0" stroke="transparent" points="8,-163.7 8,-185.7 152,-185.7 152,-163.7 8,-163.7"/>
<polygon fill="none" stroke="#000000" points="8,-163.7 8,-185.7 152,-185.7 152,-163.7 8,-163.7"/>
<image xlink:href="../../images/foreignKeys.png" width="11px" height="12px" preserveAspectRatio="xMinYMin meet" x="13" y="-180.7"/>
<text text-anchor="start" x="28" y="-170.8" font-family="Helvetica,sans-Serif" font-size="11.00" fill="#000000">modified_user_id</text>
<polygon fill="#c0c0c0" stroke="transparent" points="8,-141.7 8,-163.7 152,-163.7 152,-141.7 8,-141.7"/>
<polygon fill="none" stroke="#000000" points="8,-141.7 8,-163.7 152,-163.7 152,-141.7 8,-141.7"/>
<image xlink:href="../../images/foreignKeys.png" width="11px" height="12px" preserveAspectRatio="xMinYMin meet" x="13" y="-158.7"/>
<text text-anchor="start" x="28" y="-148.8" font-family="Helvetica,sans-Serif" font-size="11.00" fill="#000000">created_by</text>
<polygon fill="#c0c0c0" stroke="transparent" points="8,-119.7 8,-141.7 152,-141.7 152,-119.7 8,-119.7"/>
<polygon fill="none" stroke="#000000" points="8,-119.7 8,-141.7 152,-141.7 152,-119.7 8,-119.7"/>
<image xlink:href="../../images/foreignKeys.png" width="11px" height="12px" preserveAspectRatio="xMinYMin meet" x="13" y="-136.7"/>
<text text-anchor="start" x="28" y="-126.8" font-family="Helvetica,sans-Serif" font-size="11.00" fill="#000000">assigned_user_id</text>
<polygon fill="#ffffff" stroke="transparent" points="8,-97.7 8,-119.7 152,-119.7 152,-97.7 8,-97.7"/>
<polygon fill="none" stroke="#000000" points="8,-97.7 8,-119.7 152,-119.7 152,-97.7 8,-97.7"/>
<text text-anchor="start" x="28" y="-104.8" font-family="Helvetica,sans-Serif" font-size="11.00" fill="#000000">tracker_key</text>
<polygon fill="#ffffff" stroke="transparent" points="8,-75.7 8,-97.7 152,-97.7 152,-75.7 8,-75.7"/>
<polygon fill="none" stroke="#000000" points="8,-75.7 8,-97.7 152,-97.7 152,-75.7 8,-75.7"/>
<image xlink:href="../../images/foreignKeys.png" width="11px" height="12px" preserveAspectRatio="xMinYMin meet" x="13" y="-92.7"/>
<text text-anchor="start" x="28" y="-82.8" font-family="Helvetica,sans-Serif" font-size="11.00" fill="#000000">survey_id</text>
<polygon fill="none" stroke="#000000" points="8,-56.7 8,-75.7 152,-75.7 152,-56.7 8,-56.7"/>
<text text-anchor="start" x="11" y="-62.8" font-family="Helvetica,sans-Serif" font-size="11.00" fill="#000000">...</text>
<polygon fill="#ffffff" stroke="transparent" points="8,-37.7 8,-56.7 71,-56.7 71,-37.7 8,-37.7"/>
<polygon fill="none" stroke="#000000" points="8,-37.7 8,-56.7 71,-56.7 71,-37.7 8,-37.7"/>
<text text-anchor="start" x="11" y="-43.8" font-family="Helvetica,sans-Serif" font-size="11.00" fill="#000000">&lt; 4</text>
<polygon fill="#ffffff" stroke="transparent" points="71,-37.7 71,-56.7 104,-56.7 104,-37.7 71,-37.7"/>
<polygon fill="none" stroke="#000000" points="71,-37.7 71,-56.7 104,-56.7 104,-37.7 71,-37.7"/>
<text text-anchor="start" x="94.8862" y="-43.8" font-family="Helvetica,sans-Serif" font-size="11.00" fill="#000000"> &#160;</text>
<polygon fill="#ffffff" stroke="transparent" points="104,-37.7 104,-56.7 152,-56.7 152,-37.7 104,-37.7"/>
<polygon fill="none" stroke="#000000" points="104,-37.7 104,-56.7 152,-56.7 152,-37.7 104,-37.7"/>
<text text-anchor="start" x="127.2904" y="-43.8" font-family="Helvetica,sans-Serif" font-size="11.00" fill="#000000">13 &gt;</text>
</a>
</g>
</g>
<!-- email_marketing&#45;&gt;campaigns -->
<g id="edge1" class="edge">
<title>email_marketing:w&#45;&gt;campaigns:e</title>
<path fill="none" stroke="#000000" d="M188.8891,-155.5904C171.6017,-171.1822 183.5799,-218.7 152,-218.7"/>
<polygon fill="#000000" stroke="#000000" points="195.4411,-153.3197 204.1789,-154.1015 199.2205,-152.0099 203,-150.7 203,-150.7 203,-150.7 199.2205,-152.0099 201.8211,-147.2985 195.4411,-153.3197 195.4411,-153.3197"/>
<ellipse fill="none" stroke="#000000" cx="192.4175" cy="-154.3676" rx="3.2" ry="3.2"/>
</g>
<!-- email_templates -->
<g id="node3" class="node">
<title>email_templates</title>
<g id="a_node3"><a xlink:href="../../tables/email_templates.html" xlink:title="email_templates" target="_top">
<polygon fill="#ffffff" stroke="transparent" points="12.5,-408.2 12.5,-535.2 147.5,-535.2 147.5,-408.2 12.5,-408.2"/>
<polygon fill="#f5f5f5" stroke="transparent" points="13,-511.7 13,-534.7 148,-534.7 148,-511.7 13,-511.7"/>
<polygon fill="none" stroke="#000000" points="13,-511.7 13,-534.7 148,-534.7 148,-511.7 13,-511.7"/>
<text text-anchor="start" x="18" y="-520.8" font-family="Helvetica,sans-Serif" font-weight="bold" font-size="11.00" fill="#000000">email_templates</text>
<text text-anchor="start" x="113.0437" y="-519.8" font-family="Helvetica,sans-Serif" font-size="11.00" fill="#000000">[table]</text>
<polygon fill="none" stroke="#000000" points="13,-489.7 13,-511.7 148,-511.7 148,-489.7 13,-489.7"/>
<image xlink:href="../../images/primaryKeys.png" width="11px" height="12px" preserveAspectRatio="xMinYMin meet" x="18" y="-506.7"/>
<text text-anchor="start" x="33" y="-496.8" font-family="Helvetica,sans-Serif" font-size="11.00" fill="#000000">id</text>
<polygon fill="#ffffff" stroke="transparent" points="13,-467.7 13,-489.7 148,-489.7 148,-467.7 13,-467.7"/>
<polygon fill="none" stroke="#000000" points="13,-467.7 13,-489.7 148,-489.7 148,-467.7 13,-467.7"/>
<text text-anchor="start" x="33" y="-474.8" font-family="Helvetica,sans-Serif" font-size="11.00" fill="#000000">name</text>
<polygon fill="#c0c0c0" stroke="transparent" points="13,-445.7 13,-467.7 148,-467.7 148,-445.7 13,-445.7"/>
<polygon fill="none" stroke="#000000" points="13,-445.7 13,-467.7 148,-467.7 148,-445.7 13,-445.7"/>
<image xlink:href="../../images/foreignKeys.png" width="11px" height="12px" preserveAspectRatio="xMinYMin meet" x="18" y="-462.7"/>
<text text-anchor="start" x="33" y="-452.8" font-family="Helvetica,sans-Serif" font-size="11.00" fill="#000000">assigned_user_id</text>
<polygon fill="none" stroke="#000000" points="13,-426.7 13,-445.7 148,-445.7 148,-426.7 13,-426.7"/>
<text text-anchor="start" x="16" y="-432.8" font-family="Helvetica,sans-Serif" font-size="11.00" fill="#000000">...</text>
<polygon fill="#ffffff" stroke="transparent" points="13,-407.7 13,-426.7 74,-426.7 74,-407.7 13,-407.7"/>
<polygon fill="none" stroke="#000000" points="13,-407.7 13,-426.7 74,-426.7 74,-407.7 13,-407.7"/>
<text text-anchor="start" x="16" y="-413.8" font-family="Helvetica,sans-Serif" font-size="11.00" fill="#000000">&lt; 1</text>
<polygon fill="#ffffff" stroke="transparent" points="74,-407.7 74,-426.7 106,-426.7 106,-407.7 74,-407.7"/>
<polygon fill="none" stroke="#000000" points="74,-407.7 74,-426.7 106,-426.7 106,-407.7 74,-407.7"/>
<text text-anchor="start" x="96.8862" y="-413.8" font-family="Helvetica,sans-Serif" font-size="11.00" fill="#000000"> &#160;</text>
<polygon fill="#ffffff" stroke="transparent" points="106,-407.7 106,-426.7 148,-426.7 148,-407.7 106,-407.7"/>
<polygon fill="none" stroke="#000000" points="106,-407.7 106,-426.7 148,-426.7 148,-407.7 106,-407.7"/>
<text text-anchor="start" x="129.4053" y="-413.8" font-family="Helvetica,sans-Serif" font-size="11.00" fill="#000000">2 &gt;</text>
</a>
</g>
</g>
<!-- email_marketing&#45;&gt;email_templates -->
<g id="edge2" class="edge">
<title>email_marketing:w&#45;&gt;email_templates:e</title>
<path fill="none" stroke="#000000" d="M189.45,-200.0112C145.9777,-240.6448 211.692,-500.7 148,-500.7"/>
<polygon fill="#000000" stroke="#000000" points="195.5517,-197.6195 204.3138,-198.0517 199.2759,-196.1598 203,-194.7 203,-194.7 203,-194.7 199.2759,-196.1598 201.6862,-191.3483 195.5517,-197.6195 195.5517,-197.6195"/>
<ellipse fill="none" stroke="#000000" cx="192.5724" cy="-198.7874" rx="3.2" ry="3.2"/>
</g>
<!-- email_marketing_prospect_lists -->
<g id="node4" class="node">
<title>email_marketing_prospect_lists</title>
<g id="a_node4"><a xlink:href="../../tables/email_marketing_prospect_lists.html" xlink:title="email_marketing_prospect_lists" target="_top">
<polygon fill="#ffffff" stroke="transparent" points="468,-313.2 468,-440.2 701,-440.2 701,-313.2 468,-313.2"/>
<polygon fill="#f5f5f5" stroke="transparent" points="468.5,-416.7 468.5,-439.7 701.5,-439.7 701.5,-416.7 468.5,-416.7"/>
<polygon fill="none" stroke="#000000" points="468.5,-416.7 468.5,-439.7 701.5,-439.7 701.5,-416.7 468.5,-416.7"/>
<text text-anchor="start" x="473.5" y="-425.8" font-family="Helvetica,sans-Serif" font-weight="bold" font-size="11.00" fill="#000000">email_marketing_prospect_lists</text>
<text text-anchor="start" x="666.5437" y="-424.8" font-family="Helvetica,sans-Serif" font-size="11.00" fill="#000000">[table]</text>
<polygon fill="none" stroke="#000000" points="468.5,-394.7 468.5,-416.7 701.5,-416.7 701.5,-394.7 468.5,-394.7"/>
<image xlink:href="../../images/primaryKeys.png" width="11px" height="12px" preserveAspectRatio="xMinYMin meet" x="473.5" y="-411.7"/>
<text text-anchor="start" x="488.5" y="-401.8" font-family="Helvetica,sans-Serif" font-size="11.00" fill="#000000">id</text>
<polygon fill="#ffffff" stroke="transparent" points="468.5,-372.7 468.5,-394.7 701.5,-394.7 701.5,-372.7 468.5,-372.7"/>
<polygon fill="none" stroke="#000000" points="468.5,-372.7 468.5,-394.7 701.5,-394.7 701.5,-372.7 468.5,-372.7"/>
<image xlink:href="../../images/foreignKeys.png" width="11px" height="12px" preserveAspectRatio="xMinYMin meet" x="473.5" y="-389.7"/>
<text text-anchor="start" x="488.5" y="-379.8" font-family="Helvetica,sans-Serif" font-size="11.00" fill="#000000">prospect_list_id</text>
<polygon fill="#ffffff" stroke="transparent" points="468.5,-350.7 468.5,-372.7 701.5,-372.7 701.5,-350.7 468.5,-350.7"/>
<polygon fill="none" stroke="#000000" points="468.5,-350.7 468.5,-372.7 701.5,-372.7 701.5,-350.7 468.5,-350.7"/>
<image xlink:href="../../images/foreignKeys.png" width="11px" height="12px" preserveAspectRatio="xMinYMin meet" x="473.5" y="-367.7"/>
<text text-anchor="start" x="488.5" y="-357.8" font-family="Helvetica,sans-Serif" font-size="11.00" fill="#000000">email_marketing_id</text>
<polygon fill="none" stroke="#000000" points="468.5,-331.7 468.5,-350.7 701.5,-350.7 701.5,-331.7 468.5,-331.7"/>
<text text-anchor="start" x="471.5" y="-337.8" font-family="Helvetica,sans-Serif" font-size="11.00" fill="#000000">...</text>
<polygon fill="#ffffff" stroke="transparent" points="468.5,-312.7 468.5,-331.7 583.5,-331.7 583.5,-312.7 468.5,-312.7"/>
<polygon fill="none" stroke="#000000" points="468.5,-312.7 468.5,-331.7 583.5,-331.7 583.5,-312.7 468.5,-312.7"/>
<text text-anchor="start" x="471.5" y="-318.8" font-family="Helvetica,sans-Serif" font-size="11.00" fill="#000000">&lt; 2</text>
<polygon fill="#ffffff" stroke="transparent" points="583.5,-312.7 583.5,-331.7 642.5,-331.7 642.5,-312.7 583.5,-312.7"/>
<polygon fill="none" stroke="#000000" points="583.5,-312.7 583.5,-331.7 642.5,-331.7 642.5,-312.7 583.5,-312.7"/>
<text text-anchor="start" x="633.3862" y="-318.8" font-family="Helvetica,sans-Serif" font-size="11.00" fill="#000000"> &#160;</text>
<polygon fill="#ffffff" stroke="transparent" points="642.5,-312.7 642.5,-331.7 701.5,-331.7 701.5,-312.7 642.5,-312.7"/>
<polygon fill="none" stroke="#000000" points="642.5,-312.7 642.5,-331.7 701.5,-331.7 701.5,-312.7 642.5,-312.7"/>
<text text-anchor="start" x="692.3862" y="-318.8" font-family="Helvetica,sans-Serif" font-size="11.00" fill="#000000"> &#160;</text>
</a>
</g>
</g>
<!-- email_marketing_prospect_lists&#45;&gt;email_marketing -->
<g id="edge3" class="edge">
<title>email_marketing_prospect_lists:w&#45;&gt;email_marketing:e</title>
<path fill="none" stroke="#000000" d="M454.4431,-365.1331C422.5696,-384.6444 468.7763,-480.7 417,-480.7"/>
<polygon fill="#000000" stroke="#000000" points="460.7284,-363.5981 469.3541,-365.1972 464.6142,-362.649 468.5,-361.7 468.5,-361.7 468.5,-361.7 464.6142,-362.649 467.6459,-358.2028 460.7284,-363.5981 460.7284,-363.5981"/>
<ellipse fill="none" stroke="#000000" cx="457.6198" cy="-364.3573" rx="3.2" ry="3.2"/>
</g>
<!-- securitygroups_records -->
<g id="node5" class="node">
<title>securitygroups_records</title>
<g id="a_node5"><a xlink:href="../../tables/securitygroups_records.html" xlink:title="securitygroups_records" target="_top">
<polygon fill="#ffffff" stroke="transparent" points="495,-461.2 495,-632.2 674,-632.2 674,-461.2 495,-461.2"/>
<polygon fill="#f5f5f5" stroke="transparent" points="495.5,-608.7 495.5,-631.7 674.5,-631.7 674.5,-608.7 495.5,-608.7"/>
<polygon fill="none" stroke="#000000" points="495.5,-608.7 495.5,-631.7 674.5,-631.7 674.5,-608.7 495.5,-608.7"/>
<text text-anchor="start" x="500.5" y="-617.8" font-family="Helvetica,sans-Serif" font-weight="bold" font-size="11.00" fill="#000000">securitygroups_records</text>
<text text-anchor="start" x="639.5437" y="-616.8" font-family="Helvetica,sans-Serif" font-size="11.00" fill="#000000">[table]</text>
<polygon fill="none" stroke="#000000" points="495.5,-586.7 495.5,-608.7 674.5,-608.7 674.5,-586.7 495.5,-586.7"/>
<image xlink:href="../../images/primaryKeys.png" width="11px" height="12px" preserveAspectRatio="xMinYMin meet" x="500.5" y="-603.7"/>
<text text-anchor="start" x="515.5" y="-593.8" font-family="Helvetica,sans-Serif" font-size="11.00" fill="#000000">id</text>
<polygon fill="#ffffff" stroke="transparent" points="495.5,-564.7 495.5,-586.7 674.5,-586.7 674.5,-564.7 495.5,-564.7"/>
<polygon fill="none" stroke="#000000" points="495.5,-564.7 495.5,-586.7 674.5,-586.7 674.5,-564.7 495.5,-564.7"/>
<image xlink:href="../../images/foreignKeys.png" width="11px" height="12px" preserveAspectRatio="xMinYMin meet" x="500.5" y="-581.7"/>
<text text-anchor="start" x="515.5" y="-571.8" font-family="Helvetica,sans-Serif" font-size="11.00" fill="#000000">securitygroup_id</text>
<polygon fill="#ffffff" stroke="transparent" points="495.5,-542.7 495.5,-564.7 674.5,-564.7 674.5,-542.7 495.5,-542.7"/>
<polygon fill="none" stroke="#000000" points="495.5,-542.7 495.5,-564.7 674.5,-564.7 674.5,-542.7 495.5,-542.7"/>
<image xlink:href="../../images/foreignKeys.png" width="11px" height="12px" preserveAspectRatio="xMinYMin meet" x="500.5" y="-559.7"/>
<text text-anchor="start" x="515.5" y="-549.8" font-family="Helvetica,sans-Serif" font-size="11.00" fill="#000000">record_id</text>
<polygon fill="#ffffff" stroke="transparent" points="495.5,-520.7 495.5,-542.7 674.5,-542.7 674.5,-520.7 495.5,-520.7"/>
<polygon fill="none" stroke="#000000" points="495.5,-520.7 495.5,-542.7 674.5,-542.7 674.5,-520.7 495.5,-520.7"/>
<text text-anchor="start" x="515.5" y="-527.8" font-family="Helvetica,sans-Serif" font-size="11.00" fill="#000000">module</text>
<polygon fill="#ffffff" stroke="transparent" points="495.5,-498.7 495.5,-520.7 674.5,-520.7 674.5,-498.7 495.5,-498.7"/>
<polygon fill="none" stroke="#000000" points="495.5,-498.7 495.5,-520.7 674.5,-520.7 674.5,-498.7 495.5,-498.7"/>
<text text-anchor="start" x="515.5" y="-505.8" font-family="Helvetica,sans-Serif" font-size="11.00" fill="#000000">deleted</text>
<polygon fill="none" stroke="#000000" points="495.5,-479.7 495.5,-498.7 674.5,-498.7 674.5,-479.7 495.5,-479.7"/>
<text text-anchor="start" x="498.5" y="-485.8" font-family="Helvetica,sans-Serif" font-size="11.00" fill="#000000">...</text>
<polygon fill="#ffffff" stroke="transparent" points="495.5,-460.7 495.5,-479.7 586.5,-479.7 586.5,-460.7 495.5,-460.7"/>
<polygon fill="none" stroke="#000000" points="495.5,-460.7 495.5,-479.7 586.5,-479.7 586.5,-460.7 495.5,-460.7"/>
<text text-anchor="start" x="498.5" y="-466.8" font-family="Helvetica,sans-Serif" font-size="11.00" fill="#000000">&lt; 41</text>
<polygon fill="#ffffff" stroke="transparent" points="586.5,-460.7 586.5,-479.7 630.5,-479.7 630.5,-460.7 586.5,-460.7"/>
<polygon fill="none" stroke="#000000" points="586.5,-460.7 586.5,-479.7 630.5,-479.7 630.5,-460.7 586.5,-460.7"/>
<text text-anchor="start" x="621.3862" y="-466.8" font-family="Helvetica,sans-Serif" font-size="11.00" fill="#000000"> &#160;</text>
<polygon fill="#ffffff" stroke="transparent" points="630.5,-460.7 630.5,-479.7 674.5,-479.7 674.5,-460.7 630.5,-460.7"/>
<polygon fill="none" stroke="#000000" points="630.5,-460.7 630.5,-479.7 674.5,-479.7 674.5,-460.7 630.5,-460.7"/>
<text text-anchor="start" x="665.3862" y="-466.8" font-family="Helvetica,sans-Serif" font-size="11.00" fill="#000000"> &#160;</text>
</a>
</g>
</g>
<!-- securitygroups_records&#45;&gt;email_marketing -->
<g id="edge5" class="edge">
<title>securitygroups_records:w&#45;&gt;email_marketing:e</title>
<path fill="none" stroke="#000000" d="M481.1975,-550.9275C450.9063,-537.5931 459.06,-480.7 417,-480.7"/>
<polygon fill="#000000" stroke="#000000" points="487.6462,-552.1775 494.8149,-557.2342 491.5731,-552.9387 495.5,-553.7 495.5,-553.7 495.5,-553.7 491.5731,-552.9387 496.1851,-550.1658 487.6462,-552.1775 487.6462,-552.1775"/>
<ellipse fill="none" stroke="#000000" cx="484.5047" cy="-551.5685" rx="3.2" ry="3.2"/>
</g>
<!-- securitygroups_records&#45;&gt;campaigns -->
<g id="edge4" class="edge">
<title>securitygroups_records:w&#45;&gt;campaigns:e</title>
<path fill="none" stroke="#000000" d="M481.0414,-553.1899C420.9886,-550.5381 203.8412,-538.0518 193,-527.7 142.9021,-479.8636 221.2685,-218.7 152,-218.7"/>
<polygon fill="#000000" stroke="#000000" points="487.505,-553.4179 495.3731,-557.2978 491.5025,-553.5589 495.5,-553.7 495.5,-553.7 495.5,-553.7 491.5025,-553.5589 495.6269,-550.1022 487.505,-553.4179 487.505,-553.4179"/>
<ellipse fill="none" stroke="#000000" cx="484.307" cy="-553.3051" rx="3.2" ry="3.2"/>
</g>
<!-- securitygroups_records&#45;&gt;email_templates -->
<g id="edge6" class="edge">
<title>securitygroups_records:w&#45;&gt;email_templates:e</title>
<path fill="none" stroke="#000000" d="M480.8908,-553.9079C357.5658,-557.4341 311.0006,-603.9558 193,-550.7 165.7498,-538.4015 177.8969,-500.7 148,-500.7"/>
<polygon fill="#000000" stroke="#000000" points="487.5008,-553.8139 495.5513,-557.2996 491.5004,-553.757 495.5,-553.7 495.5,-553.7 495.5,-553.7 491.5004,-553.757 495.4487,-550.1004 487.5008,-553.8139 487.5008,-553.8139"/>
<ellipse fill="none" stroke="#000000" cx="484.3011" cy="-553.8595" rx="3.2" ry="3.2"/>
</g>
</g>
</svg>
