<?xml version="1.0" encoding="UTF-8" standalone="no"?>
<!DOCTYPE svg PUBLIC "-//W3C//DTD SVG 1.1//EN"
 "http://www.w3.org/Graphics/SVG/1.1/DTD/svg11.dtd">
<!-- Generated by graphviz version 2.40.1 (20161225.0304)
 -->
<!-- Title: oneDegreeRelationshipsDiagram Pages: 1 -->
<svg width="523pt" height="369pt"
 viewBox="0.00 0.00 523.00 369.20" xmlns="http://www.w3.org/2000/svg" xmlns:xlink="http://www.w3.org/1999/xlink">
<g id="graph0" class="graph" transform="scale(1 1) rotate(0) translate(4 365.2)">
<title>oneDegreeRelationshipsDiagram</title>
<polygon fill="#ffffff" stroke="transparent" points="-4,4 -4,-365.2 519,-365.2 519,4 -4,4"/>
<text text-anchor="middle" x="72.4936" y="-7.3" font-family="Helvetica,sans-Serif" font-size="11.00" fill="#000000">Generated by SchemaSpy</text>
<!-- email_marketing_prospect_lists -->
<g id="node1" class="node">
<title>email_marketing_prospect_lists</title>
<g id="a_node1"><a xlink:href="../../tables/email_marketing_prospect_lists.html" xlink:title="email_marketing_prospect_lists" target="_top">
<polygon fill="#ffffff" stroke="transparent" points="204,-150.7 204,-306.7 507,-306.7 507,-150.7 204,-150.7"/>
<polygon fill="#f5f5f5" stroke="transparent" points="206.5,-281.7 206.5,-304.7 505.5,-304.7 505.5,-281.7 206.5,-281.7"/>
<polygon fill="none" stroke="#000000" points="206.5,-281.7 206.5,-304.7 505.5,-304.7 505.5,-281.7 206.5,-281.7"/>
<text text-anchor="start" x="211.5" y="-290.8" font-family="Helvetica,sans-Serif" font-weight="bold" font-size="11.00" fill="#000000">email_marketing_prospect_lists</text>
<text text-anchor="start" x="470.5437" y="-289.8" font-family="Helvetica,sans-Serif" font-size="11.00" fill="#000000">[table]</text>
<polygon fill="none" stroke="#000000" points="206.5,-259.7 206.5,-281.7 439.5,-281.7 439.5,-259.7 206.5,-259.7"/>
<image xlink:href="../../images/primaryKeys.png" width="11px" height="12px" preserveAspectRatio="xMinYMin meet" x="211.5" y="-276.7"/>
<text text-anchor="start" x="226.5" y="-266.8" font-family="Helvetica,sans-Serif" font-size="11.00" fill="#000000">id</text>
<polygon fill="none" stroke="#000000" points="439.5,-259.7 439.5,-281.7 505.5,-281.7 505.5,-259.7 439.5,-259.7"/>
<text text-anchor="start" x="442.5" y="-267.4" font-family="Helvetica,sans-Serif" font-size="11.00" fill="#000000">varchar[36]</text>
<polygon fill="#ffffff" stroke="transparent" points="206.5,-237.7 206.5,-259.7 439.5,-259.7 439.5,-237.7 206.5,-237.7"/>
<polygon fill="none" stroke="#000000" points="206.5,-237.7 206.5,-259.7 439.5,-259.7 439.5,-237.7 206.5,-237.7"/>
<image xlink:href="../../images/foreignKeys.png" width="11px" height="12px" preserveAspectRatio="xMinYMin meet" x="211.5" y="-254.7"/>
<text text-anchor="start" x="226.5" y="-244.8" font-family="Helvetica,sans-Serif" font-size="11.00" fill="#000000">prospect_list_id</text>
<polygon fill="none" stroke="#000000" points="439.5,-237.7 439.5,-259.7 505.5,-259.7 505.5,-237.7 439.5,-237.7"/>
<text text-anchor="start" x="442.5" y="-245.4" font-family="Helvetica,sans-Serif" font-size="11.00" fill="#000000">varchar[36]</text>
<polygon fill="#ffffff" stroke="transparent" points="206.5,-215.7 206.5,-237.7 439.5,-237.7 439.5,-215.7 206.5,-215.7"/>
<polygon fill="none" stroke="#000000" points="206.5,-215.7 206.5,-237.7 439.5,-237.7 439.5,-215.7 206.5,-215.7"/>
<image xlink:href="../../images/foreignKeys.png" width="11px" height="12px" preserveAspectRatio="xMinYMin meet" x="211.5" y="-232.7"/>
<text text-anchor="start" x="226.5" y="-222.8" font-family="Helvetica,sans-Serif" font-size="11.00" fill="#000000">email_marketing_id</text>
<polygon fill="none" stroke="#000000" points="439.5,-215.7 439.5,-237.7 505.5,-237.7 505.5,-215.7 439.5,-215.7"/>
<text text-anchor="start" x="442.5" y="-223.4" font-family="Helvetica,sans-Serif" font-size="11.00" fill="#000000">varchar[36]</text>
<polygon fill="none" stroke="#000000" points="206.5,-193.7 206.5,-215.7 439.5,-215.7 439.5,-193.7 206.5,-193.7"/>
<text text-anchor="start" x="226.5" y="-200.8" font-family="Helvetica,sans-Serif" font-size="11.00" fill="#000000">date_modified</text>
<polygon fill="none" stroke="#000000" points="439.5,-193.7 439.5,-215.7 505.5,-215.7 505.5,-193.7 439.5,-193.7"/>
<text text-anchor="start" x="442.2401" y="-201.4" font-family="Helvetica,sans-Serif" font-size="11.00" fill="#000000">datetime[26]</text>
<polygon fill="none" stroke="#000000" points="206.5,-171.7 206.5,-193.7 439.5,-193.7 439.5,-171.7 206.5,-171.7"/>
<text text-anchor="start" x="226.5" y="-178.8" font-family="Helvetica,sans-Serif" font-size="11.00" fill="#000000">deleted</text>
<polygon fill="none" stroke="#000000" points="439.5,-171.7 439.5,-193.7 505.5,-193.7 505.5,-171.7 439.5,-171.7"/>
<text text-anchor="start" x="442.5" y="-179.4" font-family="Helvetica,sans-Serif" font-size="11.00" fill="#000000">bit[1]</text>
<polygon fill="#ffffff" stroke="transparent" points="206.5,-152.7 206.5,-171.7 327.5,-171.7 327.5,-152.7 206.5,-152.7"/>
<polygon fill="none" stroke="#000000" points="206.5,-152.7 206.5,-171.7 327.5,-171.7 327.5,-152.7 206.5,-152.7"/>
<text text-anchor="start" x="209.5" y="-158.8" font-family="Helvetica,sans-Serif" font-size="11.00" fill="#000000">&lt; 2</text>
<polygon fill="#ffffff" stroke="transparent" points="327.5,-152.7 327.5,-171.7 439.5,-171.7 439.5,-152.7 327.5,-152.7"/>
<polygon fill="none" stroke="#000000" points="327.5,-152.7 327.5,-171.7 439.5,-171.7 439.5,-152.7 327.5,-152.7"/>
<text text-anchor="start" x="430.3862" y="-158.8" font-family="Helvetica,sans-Serif" font-size="11.00" fill="#000000"> &#160;</text>
<polygon fill="#ffffff" stroke="transparent" points="439.5,-152.7 439.5,-171.7 505.5,-171.7 505.5,-152.7 439.5,-152.7"/>
<polygon fill="none" stroke="#000000" points="439.5,-152.7 439.5,-171.7 505.5,-171.7 505.5,-152.7 439.5,-152.7"/>
<text text-anchor="start" x="486.9053" y="-158.8" font-family="Helvetica,sans-Serif" font-size="11.00" fill="#000000">0 &gt;</text>
<polygon fill="none" stroke="#000000" stroke-width="2" points="205,-151.7 205,-305.7 506,-305.7 506,-151.7 205,-151.7"/>
</a>
</g>
</g>
<!-- email_marketing -->
<g id="node2" class="node">
<title>email_marketing</title>
<g id="a_node2"><a xlink:href="../../tables/email_marketing.html" xlink:title="email_marketing" target="_top">
<polygon fill="#ffffff" stroke="transparent" points="8,-38.2 8,-209.2 155,-209.2 155,-38.2 8,-38.2"/>
<polygon fill="#f5f5f5" stroke="transparent" points="8.5,-185.7 8.5,-208.7 155.5,-208.7 155.5,-185.7 8.5,-185.7"/>
<polygon fill="none" stroke="#000000" points="8.5,-185.7 8.5,-208.7 155.5,-208.7 155.5,-185.7 8.5,-185.7"/>
<text text-anchor="start" x="13.5" y="-194.8" font-family="Helvetica,sans-Serif" font-weight="bold" font-size="11.00" fill="#000000">email_marketing</text>
<text text-anchor="start" x="120.5437" y="-193.8" font-family="Helvetica,sans-Serif" font-size="11.00" fill="#000000">[table]</text>
<polygon fill="none" stroke="#000000" points="8.5,-163.7 8.5,-185.7 155.5,-185.7 155.5,-163.7 8.5,-163.7"/>
<image xlink:href="../../images/primaryKeys.png" width="11px" height="12px" preserveAspectRatio="xMinYMin meet" x="13.5" y="-180.7"/>
<text text-anchor="start" x="28.5" y="-170.8" font-family="Helvetica,sans-Serif" font-size="11.00" fill="#000000">id</text>
<polygon fill="#ffffff" stroke="transparent" points="8.5,-141.7 8.5,-163.7 155.5,-163.7 155.5,-141.7 8.5,-141.7"/>
<polygon fill="none" stroke="#000000" points="8.5,-141.7 8.5,-163.7 155.5,-163.7 155.5,-141.7 8.5,-141.7"/>
<text text-anchor="start" x="28.5" y="-148.8" font-family="Helvetica,sans-Serif" font-size="11.00" fill="#000000">deleted</text>
<polygon fill="#ffffff" stroke="transparent" points="8.5,-119.7 8.5,-141.7 155.5,-141.7 155.5,-119.7 8.5,-119.7"/>
<polygon fill="none" stroke="#000000" points="8.5,-119.7 8.5,-141.7 155.5,-141.7 155.5,-119.7 8.5,-119.7"/>
<text text-anchor="start" x="28.5" y="-126.8" font-family="Helvetica,sans-Serif" font-size="11.00" fill="#000000">name</text>
<polygon fill="none" stroke="#000000" points="8.5,-97.7 8.5,-119.7 155.5,-119.7 155.5,-97.7 8.5,-97.7"/>
<image xlink:href="../../images/foreignKeys.png" width="11px" height="12px" preserveAspectRatio="xMinYMin meet" x="13.5" y="-114.7"/>
<text text-anchor="start" x="28.5" y="-104.8" font-family="Helvetica,sans-Serif" font-size="11.00" fill="#000000">template_id</text>
<polygon fill="none" stroke="#000000" points="8.5,-75.7 8.5,-97.7 155.5,-97.7 155.5,-75.7 8.5,-75.7"/>
<image xlink:href="../../images/foreignKeys.png" width="11px" height="12px" preserveAspectRatio="xMinYMin meet" x="13.5" y="-92.7"/>
<text text-anchor="start" x="28.5" y="-82.8" font-family="Helvetica,sans-Serif" font-size="11.00" fill="#000000">campaign_id</text>
<polygon fill="none" stroke="#000000" points="8.5,-56.7 8.5,-75.7 155.5,-75.7 155.5,-56.7 8.5,-56.7"/>
<text text-anchor="start" x="11.5" y="-62.8" font-family="Helvetica,sans-Serif" font-size="11.00" fill="#000000">...</text>
<polygon fill="#ffffff" stroke="transparent" points="8.5,-37.7 8.5,-56.7 75.5,-56.7 75.5,-37.7 8.5,-37.7"/>
<polygon fill="none" stroke="#000000" points="8.5,-37.7 8.5,-56.7 75.5,-56.7 75.5,-37.7 8.5,-37.7"/>
<text text-anchor="start" x="11.5" y="-43.8" font-family="Helvetica,sans-Serif" font-size="11.00" fill="#000000">&lt; 2</text>
<polygon fill="#ffffff" stroke="transparent" points="75.5,-37.7 75.5,-56.7 110.5,-56.7 110.5,-37.7 75.5,-37.7"/>
<polygon fill="none" stroke="#000000" points="75.5,-37.7 75.5,-56.7 110.5,-56.7 110.5,-37.7 75.5,-37.7"/>
<text text-anchor="start" x="101.3862" y="-43.8" font-family="Helvetica,sans-Serif" font-size="11.00" fill="#000000"> &#160;</text>
<polygon fill="#ffffff" stroke="transparent" points="110.5,-37.7 110.5,-56.7 155.5,-56.7 155.5,-37.7 110.5,-37.7"/>
<polygon fill="none" stroke="#000000" points="110.5,-37.7 110.5,-56.7 155.5,-56.7 155.5,-37.7 110.5,-37.7"/>
<text text-anchor="start" x="136.9053" y="-43.8" font-family="Helvetica,sans-Serif" font-size="11.00" fill="#000000">2 &gt;</text>
</a>
</g>
</g>
<!-- email_marketing_prospect_lists&#45;&gt;email_marketing -->
<g id="edge1" class="edge">
<title>email_marketing_prospect_lists:w&#45;&gt;email_marketing:e</title>
<path fill="none" stroke="#000000" d="M192.5468,-221.9012C177.661,-209.0281 181.8017,-174.7 155.5,-174.7"/>
<polygon fill="#000000" stroke="#000000" points="198.9349,-224.0982 205.3292,-230.1043 202.7175,-225.3991 206.5,-226.7 206.5,-226.7 206.5,-226.7 202.7175,-225.3991 207.6708,-223.2957 198.9349,-224.0982 198.9349,-224.0982"/>
<ellipse fill="none" stroke="#000000" cx="195.9089" cy="-223.0574" rx="3.2" ry="3.2"/>
</g>
<!-- prospect_lists -->
<g id="node3" class="node">
<title>prospect_lists</title>
<g id="a_node3"><a xlink:href="../../tables/prospect_lists.html" xlink:title="prospect_lists" target="_top">
<polygon fill="#ffffff" stroke="transparent" points="14,-230.2 14,-357.2 149,-357.2 149,-230.2 14,-230.2"/>
<polygon fill="#f5f5f5" stroke="transparent" points="14.5,-333.7 14.5,-356.7 149.5,-356.7 149.5,-333.7 14.5,-333.7"/>
<polygon fill="none" stroke="#000000" points="14.5,-333.7 14.5,-356.7 149.5,-356.7 149.5,-333.7 14.5,-333.7"/>
<text text-anchor="start" x="19.5" y="-342.8" font-family="Helvetica,sans-Serif" font-weight="bold" font-size="11.00" fill="#000000">prospect_lists</text>
<text text-anchor="start" x="114.5437" y="-341.8" font-family="Helvetica,sans-Serif" font-size="11.00" fill="#000000">[table]</text>
<polygon fill="#c0c0c0" stroke="transparent" points="14.5,-311.7 14.5,-333.7 149.5,-333.7 149.5,-311.7 14.5,-311.7"/>
<polygon fill="none" stroke="#000000" points="14.5,-311.7 14.5,-333.7 149.5,-333.7 149.5,-311.7 14.5,-311.7"/>
<image xlink:href="../../images/foreignKeys.png" width="11px" height="12px" preserveAspectRatio="xMinYMin meet" x="19.5" y="-328.7"/>
<text text-anchor="start" x="34.5" y="-318.8" font-family="Helvetica,sans-Serif" font-size="11.00" fill="#000000">assigned_user_id</text>
<polygon fill="none" stroke="#000000" points="14.5,-289.7 14.5,-311.7 149.5,-311.7 149.5,-289.7 14.5,-289.7"/>
<image xlink:href="../../images/primaryKeys.png" width="11px" height="12px" preserveAspectRatio="xMinYMin meet" x="19.5" y="-306.7"/>
<text text-anchor="start" x="34.5" y="-296.8" font-family="Helvetica,sans-Serif" font-size="11.00" fill="#000000">id</text>
<polygon fill="#ffffff" stroke="transparent" points="14.5,-267.7 14.5,-289.7 149.5,-289.7 149.5,-267.7 14.5,-267.7"/>
<polygon fill="none" stroke="#000000" points="14.5,-267.7 14.5,-289.7 149.5,-289.7 149.5,-267.7 14.5,-267.7"/>
<text text-anchor="start" x="34.5" y="-274.8" font-family="Helvetica,sans-Serif" font-size="11.00" fill="#000000">name</text>
<polygon fill="none" stroke="#000000" points="14.5,-248.7 14.5,-267.7 149.5,-267.7 149.5,-248.7 14.5,-248.7"/>
<text text-anchor="start" x="17.5" y="-254.8" font-family="Helvetica,sans-Serif" font-size="11.00" fill="#000000">...</text>
<polygon fill="#ffffff" stroke="transparent" points="14.5,-229.7 14.5,-248.7 75.5,-248.7 75.5,-229.7 14.5,-229.7"/>
<polygon fill="none" stroke="#000000" points="14.5,-229.7 14.5,-248.7 75.5,-248.7 75.5,-229.7 14.5,-229.7"/>
<text text-anchor="start" x="17.5" y="-235.8" font-family="Helvetica,sans-Serif" font-size="11.00" fill="#000000">&lt; 1</text>
<polygon fill="#ffffff" stroke="transparent" points="75.5,-229.7 75.5,-248.7 107.5,-248.7 107.5,-229.7 75.5,-229.7"/>
<polygon fill="none" stroke="#000000" points="75.5,-229.7 75.5,-248.7 107.5,-248.7 107.5,-229.7 75.5,-229.7"/>
<text text-anchor="start" x="98.3862" y="-235.8" font-family="Helvetica,sans-Serif" font-size="11.00" fill="#000000"> &#160;</text>
<polygon fill="#ffffff" stroke="transparent" points="107.5,-229.7 107.5,-248.7 149.5,-248.7 149.5,-229.7 107.5,-229.7"/>
<polygon fill="none" stroke="#000000" points="107.5,-229.7 107.5,-248.7 149.5,-248.7 149.5,-229.7 107.5,-229.7"/>
<text text-anchor="start" x="130.9053" y="-235.8" font-family="Helvetica,sans-Serif" font-size="11.00" fill="#000000">4 &gt;</text>
</a>
</g>
</g>
<!-- email_marketing_prospect_lists&#45;&gt;prospect_lists -->
<g id="edge2" class="edge">
<title>email_marketing_prospect_lists:w&#45;&gt;prospect_lists:e</title>
<path fill="none" stroke="#000000" d="M192.4182,-252.7804C174.835,-265.0389 177.8976,-300.7 149.5,-300.7"/>
<polygon fill="#000000" stroke="#000000" points="198.8161,-250.9265 207.5019,-252.1578 202.658,-249.8133 206.5,-248.7 206.5,-248.7 206.5,-248.7 202.658,-249.8133 205.4981,-245.2422 198.8161,-250.9265 198.8161,-250.9265"/>
<ellipse fill="none" stroke="#000000" cx="195.7425" cy="-251.8171" rx="3.2" ry="3.2"/>
</g>
</g>
</svg>
