<?xml version="1.0" encoding="UTF-8" standalone="no"?>
<!DOCTYPE svg PUBLIC "-//W3C//DTD SVG 1.1//EN"
 "http://www.w3.org/Graphics/SVG/1.1/DTD/svg11.dtd">
<!-- Generated by graphviz version 2.40.1 (20161225.0304)
 -->
<!-- Title: twoDegreesRelationshipsDiagram Pages: 1 -->
<svg width="766pt" height="677pt"
 viewBox="0.00 0.00 766.00 677.20" xmlns="http://www.w3.org/2000/svg" xmlns:xlink="http://www.w3.org/1999/xlink">
<g id="graph0" class="graph" transform="scale(1 1) rotate(0) translate(4 673.2)">
<title>twoDegreesRelationshipsDiagram</title>
<polygon fill="#ffffff" stroke="transparent" points="-4,4 -4,-673.2 762,-673.2 762,4 -4,4"/>
<text text-anchor="middle" x="72.4936" y="-7.3" font-family="Helvetica,sans-Serif" font-size="11.00" fill="#000000">Generated by SchemaSpy</text>
<!-- accounts -->
<g id="node1" class="node">
<title>accounts</title>
<g id="a_node1"><a xlink:href="../../tables/accounts.html" xlink:title="accounts" target="_top">
<polygon fill="#ffffff" stroke="transparent" points="127.5,-230.2 127.5,-291.2 214.5,-291.2 214.5,-230.2 127.5,-230.2"/>
<polygon fill="#f5f5f5" stroke="transparent" points="128,-267.7 128,-290.7 215,-290.7 215,-267.7 128,-267.7"/>
<polygon fill="none" stroke="#000000" points="128,-267.7 128,-290.7 215,-290.7 215,-267.7 128,-267.7"/>
<text text-anchor="start" x="132.9918" y="-276.8" font-family="Helvetica,sans-Serif" font-weight="bold" font-size="11.00" fill="#000000">accounts</text>
<text text-anchor="start" x="180.5219" y="-275.8" font-family="Helvetica,sans-Serif" font-size="11.00" fill="#000000">[table]</text>
<polygon fill="none" stroke="#000000" points="128,-248.7 128,-267.7 215,-267.7 215,-248.7 128,-248.7"/>
<text text-anchor="start" x="131" y="-254.8" font-family="Helvetica,sans-Serif" font-size="11.00" fill="#000000">...</text>
<polygon fill="#ffffff" stroke="transparent" points="128,-229.7 128,-248.7 162,-248.7 162,-229.7 128,-229.7"/>
<polygon fill="none" stroke="#000000" points="128,-229.7 128,-248.7 162,-248.7 162,-229.7 128,-229.7"/>
<text text-anchor="start" x="131" y="-235.8" font-family="Helvetica,sans-Serif" font-size="11.00" fill="#000000">&lt; 6</text>
<polygon fill="#ffffff" stroke="transparent" points="162,-229.7 162,-248.7 181,-248.7 181,-229.7 162,-229.7"/>
<polygon fill="none" stroke="#000000" points="162,-229.7 162,-248.7 181,-248.7 181,-229.7 162,-229.7"/>
<text text-anchor="start" x="171.8862" y="-235.8" font-family="Helvetica,sans-Serif" font-size="11.00" fill="#000000"> &#160;</text>
<polygon fill="#ffffff" stroke="transparent" points="181,-229.7 181,-248.7 215,-248.7 215,-229.7 181,-229.7"/>
<polygon fill="none" stroke="#000000" points="181,-229.7 181,-248.7 215,-248.7 215,-229.7 181,-229.7"/>
<text text-anchor="start" x="190.2904" y="-235.8" font-family="Helvetica,sans-Serif" font-size="11.00" fill="#000000">23 &gt;</text>
</a>
</g>
</g>
<!-- users -->
<g id="node2" class="node">
<title>users</title>
<g id="a_node2"><a xlink:href="../../tables/users.html" xlink:title="users" target="_top">
<polygon fill="#ffffff" stroke="transparent" points="8,-148.2 8,-209.2 77,-209.2 77,-148.2 8,-148.2"/>
<polygon fill="#f5f5f5" stroke="transparent" points="8.5,-185.7 8.5,-208.7 77.5,-208.7 77.5,-185.7 8.5,-185.7"/>
<polygon fill="none" stroke="#000000" points="8.5,-185.7 8.5,-208.7 77.5,-208.7 77.5,-185.7 8.5,-185.7"/>
<text text-anchor="start" x="13.0542" y="-194.8" font-family="Helvetica,sans-Serif" font-weight="bold" font-size="11.00" fill="#000000">users</text>
<text text-anchor="start" x="43.0219" y="-193.8" font-family="Helvetica,sans-Serif" font-size="11.00" fill="#000000">[table]</text>
<polygon fill="none" stroke="#000000" points="8.5,-166.7 8.5,-185.7 77.5,-185.7 77.5,-166.7 8.5,-166.7"/>
<text text-anchor="start" x="11.5" y="-172.8" font-family="Helvetica,sans-Serif" font-size="11.00" fill="#000000">...</text>
<polygon fill="#ffffff" stroke="transparent" points="8.5,-147.7 8.5,-166.7 30.5,-166.7 30.5,-147.7 8.5,-147.7"/>
<polygon fill="none" stroke="#000000" points="8.5,-147.7 8.5,-166.7 30.5,-166.7 30.5,-147.7 8.5,-147.7"/>
<text text-anchor="start" x="11.5" y="-153.8" font-family="Helvetica,sans-Serif" font-size="11.00" fill="#000000">&lt; 2</text>
<polygon fill="#ffffff" stroke="transparent" points="30.5,-147.7 30.5,-166.7 43.5,-166.7 43.5,-147.7 30.5,-147.7"/>
<polygon fill="none" stroke="#000000" points="30.5,-147.7 30.5,-166.7 43.5,-166.7 43.5,-147.7 30.5,-147.7"/>
<text text-anchor="start" x="34.3862" y="-153.8" font-family="Helvetica,sans-Serif" font-size="11.00" fill="#000000"> &#160;</text>
<polygon fill="#ffffff" stroke="transparent" points="43.5,-147.7 43.5,-166.7 77.5,-166.7 77.5,-147.7 43.5,-147.7"/>
<polygon fill="none" stroke="#000000" points="43.5,-147.7 43.5,-166.7 77.5,-166.7 77.5,-147.7 43.5,-147.7"/>
<text text-anchor="start" x="46.6755" y="-153.8" font-family="Helvetica,sans-Serif" font-size="11.00" fill="#000000">214 &gt;</text>
</a>
</g>
</g>
<!-- accounts&#45;&gt;users -->
<g id="edge1" class="edge">
<title>accounts:w&#45;&gt;users:e</title>
<path fill="none" stroke="#000000" d="M115.6015,-250.2332C92.5578,-226.2337 115.1183,-164.2742 77.5,-175.7"/>
<polygon fill="#000000" stroke="#000000" points="121.1468,-253.5727 126.1427,-260.7839 124.5734,-255.6364 128,-257.7 128,-257.7 128,-257.7 124.5734,-255.6364 129.8573,-254.6161 121.1468,-253.5727 121.1468,-253.5727"/>
<ellipse fill="none" stroke="#000000" cx="118.4055" cy="-251.9218" rx="3.2" ry="3.2"/>
</g>
<!-- accounts&#45;&gt;users -->
<g id="edge2" class="edge">
<title>accounts:w&#45;&gt;users:e</title>
<path fill="none" stroke="#000000" d="M114.1317,-253.2913C93.5307,-236.2591 114.2824,-175.7 77.5,-175.7"/>
<polygon fill="#000000" stroke="#000000" points="120.376,-255.2763 126.9093,-261.1308 124.188,-256.4882 128,-257.7 128,-257.7 128,-257.7 124.188,-256.4882 129.0907,-254.2692 120.376,-255.2763 120.376,-255.2763"/>
<ellipse fill="none" stroke="#000000" cx="117.3263" cy="-254.3068" rx="3.2" ry="3.2"/>
</g>
<!-- accounts&#45;&gt;users -->
<g id="edge3" class="edge">
<title>accounts:w&#45;&gt;users:e</title>
<path fill="none" stroke="#000000" d="M113.58,-257.7458C93.9033,-247.8766 113.948,-186.7703 77.5,-175.7"/>
<polygon fill="#000000" stroke="#000000" points="120,-257.7255 128.0115,-261.3 124,-257.7127 128,-257.7 128,-257.7 128,-257.7 124,-257.7127 127.9885,-254.1 120,-257.7255 120,-257.7255"/>
<ellipse fill="none" stroke="#000000" cx="116.8001" cy="-257.7357" rx="3.2" ry="3.2"/>
</g>
<!-- contacts -->
<g id="node3" class="node">
<title>contacts</title>
<g id="a_node3"><a xlink:href="../../tables/contacts.html" xlink:title="contacts" target="_top">
<polygon fill="#ffffff" stroke="transparent" points="129.5,-148.2 129.5,-209.2 212.5,-209.2 212.5,-148.2 129.5,-148.2"/>
<polygon fill="#f5f5f5" stroke="transparent" points="130,-185.7 130,-208.7 213,-208.7 213,-185.7 130,-185.7"/>
<polygon fill="none" stroke="#000000" points="130,-185.7 130,-208.7 213,-208.7 213,-185.7 130,-185.7"/>
<text text-anchor="start" x="134.5208" y="-194.8" font-family="Helvetica,sans-Serif" font-weight="bold" font-size="11.00" fill="#000000">contacts</text>
<text text-anchor="start" x="178.5219" y="-193.8" font-family="Helvetica,sans-Serif" font-size="11.00" fill="#000000">[table]</text>
<polygon fill="none" stroke="#000000" points="130,-166.7 130,-185.7 213,-185.7 213,-166.7 130,-166.7"/>
<text text-anchor="start" x="133" y="-172.8" font-family="Helvetica,sans-Serif" font-size="11.00" fill="#000000">...</text>
<polygon fill="#ffffff" stroke="transparent" points="130,-147.7 130,-166.7 162,-166.7 162,-147.7 130,-147.7"/>
<polygon fill="none" stroke="#000000" points="130,-147.7 130,-166.7 162,-166.7 162,-147.7 130,-147.7"/>
<text text-anchor="start" x="133" y="-153.8" font-family="Helvetica,sans-Serif" font-size="11.00" fill="#000000">&lt; 7</text>
<polygon fill="#ffffff" stroke="transparent" points="162,-147.7 162,-166.7 180,-166.7 180,-147.7 162,-147.7"/>
<polygon fill="none" stroke="#000000" points="162,-147.7 162,-166.7 180,-166.7 180,-147.7 162,-147.7"/>
<text text-anchor="start" x="170.8862" y="-153.8" font-family="Helvetica,sans-Serif" font-size="11.00" fill="#000000"> &#160;</text>
<polygon fill="#ffffff" stroke="transparent" points="180,-147.7 180,-166.7 213,-166.7 213,-147.7 180,-147.7"/>
<polygon fill="none" stroke="#000000" points="180,-147.7 180,-166.7 213,-166.7 213,-147.7 180,-147.7"/>
<text text-anchor="start" x="188.2904" y="-153.8" font-family="Helvetica,sans-Serif" font-size="11.00" fill="#000000">30 &gt;</text>
</a>
</g>
</g>
<!-- contacts&#45;&gt;users -->
<g id="edge4" class="edge">
<title>contacts:w&#45;&gt;users:e</title>
<path fill="none" stroke="#000000" d="M116.8333,-169.035C103.2772,-163.3221 95.7292,-165.5438 77.5,-175.7"/>
<polygon fill="#000000" stroke="#000000" points="122.8624,-172.0869 128.3741,-178.9119 126.4312,-173.8934 130,-175.7 130,-175.7 130,-175.7 126.4312,-173.8934 131.6259,-172.4881 122.8624,-172.0869 122.8624,-172.0869"/>
<ellipse fill="none" stroke="#000000" cx="120.0073" cy="-170.6416" rx="3.2" ry="3.2"/>
</g>
<!-- contacts&#45;&gt;users -->
<g id="edge5" class="edge">
<title>contacts:w&#45;&gt;users:e</title>
<path fill="none" stroke="#000000" d="M115.2344,-175.7C102.6563,-175.7 95,-175.7 77.5,-175.7"/>
<polygon fill="#000000" stroke="#000000" points="122,-175.7001 130,-179.3 126,-175.7 130,-175.7 130,-175.7 130,-175.7 126,-175.7 130,-172.1 122,-175.7001 122,-175.7001"/>
<ellipse fill="none" stroke="#000000" cx="118.8" cy="-175.7001" rx="3.2" ry="3.2"/>
</g>
<!-- contacts&#45;&gt;users -->
<g id="edge6" class="edge">
<title>contacts:w&#45;&gt;users:e</title>
<path fill="none" stroke="#000000" d="M116.8333,-182.365C103.2772,-188.0779 95.7292,-185.8563 77.5,-175.7"/>
<polygon fill="#000000" stroke="#000000" points="122.8624,-179.3131 131.6259,-178.9119 126.4312,-177.5066 130,-175.7 130,-175.7 130,-175.7 126.4312,-177.5066 128.3741,-172.4881 122.8624,-179.3131 122.8624,-179.3131"/>
<ellipse fill="none" stroke="#000000" cx="120.0073" cy="-180.7584" rx="3.2" ry="3.2"/>
</g>
<!-- email_addr_bean_rel -->
<g id="node4" class="node">
<title>email_addr_bean_rel</title>
<g id="a_node4"><a xlink:href="../../tables/email_addr_bean_rel.html" xlink:title="email_addr_bean_rel" target="_top">
<polygon fill="#ffffff" stroke="transparent" points="584.5,-120.2 584.5,-269.2 742.5,-269.2 742.5,-120.2 584.5,-120.2"/>
<polygon fill="#f5f5f5" stroke="transparent" points="584.5,-245.7 584.5,-268.7 742.5,-268.7 742.5,-245.7 584.5,-245.7"/>
<polygon fill="none" stroke="#000000" points="584.5,-245.7 584.5,-268.7 742.5,-268.7 742.5,-245.7 584.5,-245.7"/>
<text text-anchor="start" x="589.5" y="-254.8" font-family="Helvetica,sans-Serif" font-weight="bold" font-size="11.00" fill="#000000">email_addr_bean_rel</text>
<text text-anchor="start" x="707.5437" y="-253.8" font-family="Helvetica,sans-Serif" font-size="11.00" fill="#000000">[table]</text>
<polygon fill="none" stroke="#000000" points="584.5,-223.7 584.5,-245.7 742.5,-245.7 742.5,-223.7 584.5,-223.7"/>
<image xlink:href="../../images/primaryKeys.png" width="11px" height="12px" preserveAspectRatio="xMinYMin meet" x="589.5" y="-240.7"/>
<text text-anchor="start" x="604.5" y="-230.8" font-family="Helvetica,sans-Serif" font-size="11.00" fill="#000000">id</text>
<polygon fill="#ffffff" stroke="transparent" points="584.5,-201.7 584.5,-223.7 742.5,-223.7 742.5,-201.7 584.5,-201.7"/>
<polygon fill="none" stroke="#000000" points="584.5,-201.7 584.5,-223.7 742.5,-223.7 742.5,-201.7 584.5,-201.7"/>
<image xlink:href="../../images/foreignKeys.png" width="11px" height="12px" preserveAspectRatio="xMinYMin meet" x="589.5" y="-218.7"/>
<text text-anchor="start" x="604.5" y="-208.8" font-family="Helvetica,sans-Serif" font-size="11.00" fill="#000000">email_address_id</text>
<polygon fill="#ffffff" stroke="transparent" points="584.5,-179.7 584.5,-201.7 742.5,-201.7 742.5,-179.7 584.5,-179.7"/>
<polygon fill="none" stroke="#000000" points="584.5,-179.7 584.5,-201.7 742.5,-201.7 742.5,-179.7 584.5,-179.7"/>
<image xlink:href="../../images/foreignKeys.png" width="11px" height="12px" preserveAspectRatio="xMinYMin meet" x="589.5" y="-196.7"/>
<text text-anchor="start" x="604.5" y="-186.8" font-family="Helvetica,sans-Serif" font-size="11.00" fill="#000000">bean_id</text>
<polygon fill="#ffffff" stroke="transparent" points="584.5,-157.7 584.5,-179.7 742.5,-179.7 742.5,-157.7 584.5,-157.7"/>
<polygon fill="none" stroke="#000000" points="584.5,-157.7 584.5,-179.7 742.5,-179.7 742.5,-157.7 584.5,-157.7"/>
<text text-anchor="start" x="604.5" y="-164.8" font-family="Helvetica,sans-Serif" font-size="11.00" fill="#000000">bean_module</text>
<polygon fill="none" stroke="#000000" points="584.5,-138.7 584.5,-157.7 742.5,-157.7 742.5,-138.7 584.5,-138.7"/>
<text text-anchor="start" x="587.5" y="-144.8" font-family="Helvetica,sans-Serif" font-size="11.00" fill="#000000">...</text>
<polygon fill="#ffffff" stroke="transparent" points="584.5,-119.7 584.5,-138.7 661.5,-138.7 661.5,-119.7 584.5,-119.7"/>
<polygon fill="none" stroke="#000000" points="584.5,-119.7 584.5,-138.7 661.5,-138.7 661.5,-119.7 584.5,-119.7"/>
<text text-anchor="start" x="587.5" y="-125.8" font-family="Helvetica,sans-Serif" font-size="11.00" fill="#000000">&lt; 6</text>
<polygon fill="#ffffff" stroke="transparent" points="661.5,-119.7 661.5,-138.7 701.5,-138.7 701.5,-119.7 661.5,-119.7"/>
<polygon fill="none" stroke="#000000" points="661.5,-119.7 661.5,-138.7 701.5,-138.7 701.5,-119.7 661.5,-119.7"/>
<text text-anchor="start" x="692.3862" y="-125.8" font-family="Helvetica,sans-Serif" font-size="11.00" fill="#000000"> &#160;</text>
<polygon fill="#ffffff" stroke="transparent" points="701.5,-119.7 701.5,-138.7 742.5,-138.7 742.5,-119.7 701.5,-119.7"/>
<polygon fill="none" stroke="#000000" points="701.5,-119.7 701.5,-138.7 742.5,-138.7 742.5,-119.7 701.5,-119.7"/>
<text text-anchor="start" x="733.3862" y="-125.8" font-family="Helvetica,sans-Serif" font-size="11.00" fill="#000000"> &#160;</text>
</a>
</g>
</g>
<!-- email_addr_bean_rel&#45;&gt;accounts -->
<g id="edge7" class="edge">
<title>email_addr_bean_rel:w&#45;&gt;accounts:e</title>
<path fill="none" stroke="#000000" d="M569.8636,-191.6684C506.8536,-196.3421 264.3883,-216.4723 257,-219.7 233.9322,-229.7776 240.173,-257.7 215,-257.7"/>
<polygon fill="#000000" stroke="#000000" points="576.5175,-191.2282 584.7377,-194.2921 580.5087,-190.9641 584.5,-190.7 584.5,-190.7 584.5,-190.7 580.5087,-190.9641 584.2623,-187.1079 576.5175,-191.2282 576.5175,-191.2282"/>
<ellipse fill="none" stroke="#000000" cx="573.3244" cy="-191.4395" rx="3.2" ry="3.2"/>
</g>
<!-- email_addr_bean_rel&#45;&gt;users -->
<g id="edge11" class="edge">
<title>email_addr_bean_rel:w&#45;&gt;users:e</title>
<path fill="none" stroke="#000000" d="M570.0542,-188.6503C558.6527,-185.0231 552.5215,-177.4988 536,-173.7 399.9631,-142.4205 363.3565,-145.7132 224,-137.7 176.9666,-134.9955 161.8064,-120.3665 118,-137.7 95.0487,-146.7815 102.1827,-175.7 77.5,-175.7"/>
<polygon fill="#000000" stroke="#000000" points="576.5793,-189.5761 583.9942,-194.2643 580.5397,-190.138 584.5,-190.7 584.5,-190.7 584.5,-190.7 580.5397,-190.138 585.0058,-187.1357 576.5793,-189.5761 576.5793,-189.5761"/>
<ellipse fill="none" stroke="#000000" cx="573.4111" cy="-189.1265" rx="3.2" ry="3.2"/>
</g>
<!-- email_addr_bean_rel&#45;&gt;contacts -->
<g id="edge8" class="edge">
<title>email_addr_bean_rel:w&#45;&gt;contacts:e</title>
<path fill="none" stroke="#000000" d="M569.827,-190.6596C416.6575,-189.8055 373.2431,-175.7 213,-175.7"/>
<polygon fill="#000000" stroke="#000000" points="576.5,-190.6779 584.4901,-194.3 580.5,-190.689 584.5,-190.7 584.5,-190.7 584.5,-190.7 580.5,-190.689 584.5099,-187.1 576.5,-190.6779 576.5,-190.6779"/>
<ellipse fill="none" stroke="#000000" cx="573.3" cy="-190.6691" rx="3.2" ry="3.2"/>
</g>
<!-- leads -->
<g id="node5" class="node">
<title>leads</title>
<g id="a_node5"><a xlink:href="../../tables/leads.html" xlink:title="leads" target="_top">
<polygon fill="#ffffff" stroke="transparent" points="362,-230.2 362,-291.2 431,-291.2 431,-230.2 362,-230.2"/>
<polygon fill="#f5f5f5" stroke="transparent" points="362.5,-267.7 362.5,-290.7 431.5,-290.7 431.5,-267.7 362.5,-267.7"/>
<polygon fill="none" stroke="#000000" points="362.5,-267.7 362.5,-290.7 431.5,-290.7 431.5,-267.7 362.5,-267.7"/>
<text text-anchor="start" x="367.3572" y="-276.8" font-family="Helvetica,sans-Serif" font-weight="bold" font-size="11.00" fill="#000000">leads</text>
<text text-anchor="start" x="397.0219" y="-275.8" font-family="Helvetica,sans-Serif" font-size="11.00" fill="#000000">[table]</text>
<polygon fill="none" stroke="#000000" points="362.5,-248.7 362.5,-267.7 431.5,-267.7 431.5,-248.7 362.5,-248.7"/>
<text text-anchor="start" x="365.5" y="-254.8" font-family="Helvetica,sans-Serif" font-size="11.00" fill="#000000">...</text>
<polygon fill="#ffffff" stroke="transparent" points="362.5,-229.7 362.5,-248.7 390.5,-248.7 390.5,-229.7 362.5,-229.7"/>
<polygon fill="none" stroke="#000000" points="362.5,-229.7 362.5,-248.7 390.5,-248.7 390.5,-229.7 362.5,-229.7"/>
<text text-anchor="start" x="365.5" y="-235.8" font-family="Helvetica,sans-Serif" font-size="11.00" fill="#000000">&lt; 10</text>
<polygon fill="#ffffff" stroke="transparent" points="390.5,-229.7 390.5,-248.7 403.5,-248.7 403.5,-229.7 390.5,-229.7"/>
<polygon fill="none" stroke="#000000" points="390.5,-229.7 390.5,-248.7 403.5,-248.7 403.5,-229.7 390.5,-229.7"/>
<text text-anchor="start" x="394.3862" y="-235.8" font-family="Helvetica,sans-Serif" font-size="11.00" fill="#000000"> &#160;</text>
<polygon fill="#ffffff" stroke="transparent" points="403.5,-229.7 403.5,-248.7 431.5,-248.7 431.5,-229.7 403.5,-229.7"/>
<polygon fill="none" stroke="#000000" points="403.5,-229.7 403.5,-248.7 431.5,-248.7 431.5,-229.7 403.5,-229.7"/>
<text text-anchor="start" x="406.7904" y="-235.8" font-family="Helvetica,sans-Serif" font-size="11.00" fill="#000000">17 &gt;</text>
</a>
</g>
</g>
<!-- email_addr_bean_rel&#45;&gt;leads -->
<g id="edge9" class="edge">
<title>email_addr_bean_rel:w&#45;&gt;leads:e</title>
<path fill="none" stroke="#000000" d="M570.2305,-192.9191C558.0839,-197.2778 552.6047,-207.1862 536,-214.7 490.2439,-235.4052 481.7227,-257.7 431.5,-257.7"/>
<polygon fill="#000000" stroke="#000000" points="576.595,-191.9294 585.0532,-194.2572 580.5475,-191.3147 584.5,-190.7 584.5,-190.7 584.5,-190.7 580.5475,-191.3147 583.9468,-187.1428 576.595,-191.9294 576.595,-191.9294"/>
<ellipse fill="none" stroke="#000000" cx="573.433" cy="-192.4211" rx="3.2" ry="3.2"/>
</g>
<!-- prospects -->
<g id="node6" class="node">
<title>prospects</title>
<g id="a_node6"><a xlink:href="../../tables/prospects.html" xlink:title="prospects" target="_top">
<polygon fill="#ffffff" stroke="transparent" points="126,-38.2 126,-99.2 216,-99.2 216,-38.2 126,-38.2"/>
<polygon fill="#f5f5f5" stroke="transparent" points="126,-75.7 126,-98.7 216,-98.7 216,-75.7 126,-75.7"/>
<polygon fill="none" stroke="#000000" points="126,-75.7 126,-98.7 216,-98.7 216,-75.7 126,-75.7"/>
<text text-anchor="start" x="130.6608" y="-84.8" font-family="Helvetica,sans-Serif" font-weight="bold" font-size="11.00" fill="#000000">prospects</text>
<text text-anchor="start" x="181.5219" y="-83.8" font-family="Helvetica,sans-Serif" font-size="11.00" fill="#000000">[table]</text>
<polygon fill="none" stroke="#000000" points="126,-56.7 126,-75.7 216,-75.7 216,-56.7 126,-56.7"/>
<text text-anchor="start" x="129" y="-62.8" font-family="Helvetica,sans-Serif" font-size="11.00" fill="#000000">...</text>
<polygon fill="#ffffff" stroke="transparent" points="126,-37.7 126,-56.7 162,-56.7 162,-37.7 126,-37.7"/>
<polygon fill="none" stroke="#000000" points="126,-37.7 126,-56.7 162,-56.7 162,-37.7 126,-37.7"/>
<text text-anchor="start" x="129" y="-43.8" font-family="Helvetica,sans-Serif" font-size="11.00" fill="#000000">&lt; 5</text>
<polygon fill="#ffffff" stroke="transparent" points="162,-37.7 162,-56.7 181,-56.7 181,-37.7 162,-37.7"/>
<polygon fill="none" stroke="#000000" points="162,-37.7 162,-56.7 181,-56.7 181,-37.7 162,-37.7"/>
<text text-anchor="start" x="171.8862" y="-43.8" font-family="Helvetica,sans-Serif" font-size="11.00" fill="#000000"> &#160;</text>
<polygon fill="#ffffff" stroke="transparent" points="181,-37.7 181,-56.7 216,-56.7 216,-37.7 181,-37.7"/>
<polygon fill="none" stroke="#000000" points="181,-37.7 181,-56.7 216,-56.7 216,-37.7 181,-37.7"/>
<text text-anchor="start" x="191.2904" y="-43.8" font-family="Helvetica,sans-Serif" font-size="11.00" fill="#000000">12 &gt;</text>
</a>
</g>
</g>
<!-- email_addr_bean_rel&#45;&gt;prospects -->
<g id="edge10" class="edge">
<title>email_addr_bean_rel:w&#45;&gt;prospects:e</title>
<path fill="none" stroke="#000000" d="M570.4565,-187.3592C550.4005,-175.1304 564.8317,-132.5401 536,-113.7 415.6107,-35.0317 359.8133,-65.7 216,-65.7"/>
<polygon fill="#000000" stroke="#000000" points="576.7172,-188.8485 583.6668,-194.2023 580.6086,-189.7743 584.5,-190.7 584.5,-190.7 584.5,-190.7 580.6086,-189.7743 585.3332,-187.1977 576.7172,-188.8485 576.7172,-188.8485"/>
<ellipse fill="none" stroke="#000000" cx="573.6041" cy="-188.1079" rx="3.2" ry="3.2"/>
</g>
<!-- email_addresses -->
<g id="node7" class="node">
<title>email_addresses</title>
<g id="a_node7"><a xlink:href="../../tables/email_addresses.html" xlink:title="email_addresses" target="_top">
<polygon fill="#ffffff" stroke="transparent" points="265,-312.7 265,-644.7 528,-644.7 528,-312.7 265,-312.7"/>
<polygon fill="#f5f5f5" stroke="transparent" points="267.5,-619.7 267.5,-642.7 526.5,-642.7 526.5,-619.7 267.5,-619.7"/>
<polygon fill="none" stroke="#000000" points="267.5,-619.7 267.5,-642.7 526.5,-642.7 526.5,-619.7 267.5,-619.7"/>
<text text-anchor="start" x="272.5" y="-628.8" font-family="Helvetica,sans-Serif" font-weight="bold" font-size="11.00" fill="#000000">email_addresses</text>
<text text-anchor="start" x="491.5437" y="-627.8" font-family="Helvetica,sans-Serif" font-size="11.00" fill="#000000">[table]</text>
<polygon fill="none" stroke="#000000" points="267.5,-597.7 267.5,-619.7 459.5,-619.7 459.5,-597.7 267.5,-597.7"/>
<image xlink:href="../../images/primaryKeys.png" width="11px" height="12px" preserveAspectRatio="xMinYMin meet" x="272.5" y="-614.7"/>
<text text-anchor="start" x="287.5" y="-604.8" font-family="Helvetica,sans-Serif" font-size="11.00" fill="#000000">id</text>
<polygon fill="none" stroke="#000000" points="459.5,-597.7 459.5,-619.7 526.5,-619.7 526.5,-597.7 459.5,-597.7"/>
<text text-anchor="start" x="462.5" y="-605.4" font-family="Helvetica,sans-Serif" font-size="11.00" fill="#000000">char[36]</text>
<polygon fill="#ffffff" stroke="transparent" points="267.5,-575.7 267.5,-597.7 459.5,-597.7 459.5,-575.7 267.5,-575.7"/>
<polygon fill="none" stroke="#000000" points="267.5,-575.7 267.5,-597.7 459.5,-597.7 459.5,-575.7 267.5,-575.7"/>
<text text-anchor="start" x="287.5" y="-582.8" font-family="Helvetica,sans-Serif" font-size="11.00" fill="#000000">email_address</text>
<polygon fill="none" stroke="#000000" points="459.5,-575.7 459.5,-597.7 526.5,-597.7 526.5,-575.7 459.5,-575.7"/>
<text text-anchor="start" x="462.4365" y="-583.4" font-family="Helvetica,sans-Serif" font-size="11.00" fill="#000000">varchar[255]</text>
<polygon fill="#ffffff" stroke="transparent" points="267.5,-553.7 267.5,-575.7 459.5,-575.7 459.5,-553.7 267.5,-553.7"/>
<polygon fill="none" stroke="#000000" points="267.5,-553.7 267.5,-575.7 459.5,-575.7 459.5,-553.7 267.5,-553.7"/>
<text text-anchor="start" x="287.5" y="-560.8" font-family="Helvetica,sans-Serif" font-size="11.00" fill="#000000">email_address_caps</text>
<polygon fill="none" stroke="#000000" points="459.5,-553.7 459.5,-575.7 526.5,-575.7 526.5,-553.7 459.5,-553.7"/>
<text text-anchor="start" x="462.4365" y="-561.4" font-family="Helvetica,sans-Serif" font-size="11.00" fill="#000000">varchar[255]</text>
<polygon fill="#ffffff" stroke="transparent" points="267.5,-531.7 267.5,-553.7 459.5,-553.7 459.5,-531.7 267.5,-531.7"/>
<polygon fill="none" stroke="#000000" points="267.5,-531.7 267.5,-553.7 459.5,-553.7 459.5,-531.7 267.5,-531.7"/>
<text text-anchor="start" x="287.5" y="-538.8" font-family="Helvetica,sans-Serif" font-size="11.00" fill="#000000">invalid_email</text>
<polygon fill="none" stroke="#000000" points="459.5,-531.7 459.5,-553.7 526.5,-553.7 526.5,-531.7 459.5,-531.7"/>
<text text-anchor="start" x="462.5" y="-539.4" font-family="Helvetica,sans-Serif" font-size="11.00" fill="#000000">bit[1]</text>
<polygon fill="#ffffff" stroke="transparent" points="267.5,-509.7 267.5,-531.7 459.5,-531.7 459.5,-509.7 267.5,-509.7"/>
<polygon fill="none" stroke="#000000" points="267.5,-509.7 267.5,-531.7 459.5,-531.7 459.5,-509.7 267.5,-509.7"/>
<text text-anchor="start" x="287.5" y="-516.8" font-family="Helvetica,sans-Serif" font-size="11.00" fill="#000000">opt_out</text>
<polygon fill="none" stroke="#000000" points="459.5,-509.7 459.5,-531.7 526.5,-531.7 526.5,-509.7 459.5,-509.7"/>
<text text-anchor="start" x="462.5" y="-517.4" font-family="Helvetica,sans-Serif" font-size="11.00" fill="#000000">bit[1]</text>
<polygon fill="none" stroke="#000000" points="267.5,-487.7 267.5,-509.7 459.5,-509.7 459.5,-487.7 267.5,-487.7"/>
<text text-anchor="start" x="287.5" y="-494.8" font-family="Helvetica,sans-Serif" font-size="11.00" fill="#000000">confirm_opt_in</text>
<polygon fill="none" stroke="#000000" points="459.5,-487.7 459.5,-509.7 526.5,-509.7 526.5,-487.7 459.5,-487.7"/>
<text text-anchor="start" x="462.4365" y="-495.4" font-family="Helvetica,sans-Serif" font-size="11.00" fill="#000000">varchar[255]</text>
<polygon fill="none" stroke="#000000" points="267.5,-465.7 267.5,-487.7 459.5,-487.7 459.5,-465.7 267.5,-465.7"/>
<text text-anchor="start" x="287.5" y="-472.8" font-family="Helvetica,sans-Serif" font-size="11.00" fill="#000000">confirm_opt_in_date</text>
<polygon fill="none" stroke="#000000" points="459.5,-465.7 459.5,-487.7 526.5,-487.7 526.5,-465.7 459.5,-465.7"/>
<text text-anchor="start" x="462.5" y="-473.4" font-family="Helvetica,sans-Serif" font-size="11.00" fill="#000000">datetime[26]</text>
<polygon fill="none" stroke="#000000" points="267.5,-443.7 267.5,-465.7 459.5,-465.7 459.5,-443.7 267.5,-443.7"/>
<text text-anchor="start" x="287.5" y="-450.8" font-family="Helvetica,sans-Serif" font-size="11.00" fill="#000000">confirm_opt_in_sent_date</text>
<polygon fill="none" stroke="#000000" points="459.5,-443.7 459.5,-465.7 526.5,-465.7 526.5,-443.7 459.5,-443.7"/>
<text text-anchor="start" x="462.5" y="-451.4" font-family="Helvetica,sans-Serif" font-size="11.00" fill="#000000">datetime[26]</text>
<polygon fill="none" stroke="#000000" points="267.5,-421.7 267.5,-443.7 459.5,-443.7 459.5,-421.7 267.5,-421.7"/>
<text text-anchor="start" x="287.5" y="-428.8" font-family="Helvetica,sans-Serif" font-size="11.00" fill="#000000">confirm_opt_in_fail_date</text>
<polygon fill="none" stroke="#000000" points="459.5,-421.7 459.5,-443.7 526.5,-443.7 526.5,-421.7 459.5,-421.7"/>
<text text-anchor="start" x="462.5" y="-429.4" font-family="Helvetica,sans-Serif" font-size="11.00" fill="#000000">datetime[26]</text>
<polygon fill="none" stroke="#000000" points="267.5,-399.7 267.5,-421.7 459.5,-421.7 459.5,-399.7 267.5,-399.7"/>
<text text-anchor="start" x="287.5" y="-406.8" font-family="Helvetica,sans-Serif" font-size="11.00" fill="#000000">confirm_opt_in_token</text>
<polygon fill="none" stroke="#000000" points="459.5,-399.7 459.5,-421.7 526.5,-421.7 526.5,-399.7 459.5,-399.7"/>
<text text-anchor="start" x="462.4365" y="-407.4" font-family="Helvetica,sans-Serif" font-size="11.00" fill="#000000">varchar[255]</text>
<polygon fill="none" stroke="#000000" points="267.5,-377.7 267.5,-399.7 459.5,-399.7 459.5,-377.7 267.5,-377.7"/>
<text text-anchor="start" x="287.5" y="-384.8" font-family="Helvetica,sans-Serif" font-size="11.00" fill="#000000">date_created</text>
<polygon fill="none" stroke="#000000" points="459.5,-377.7 459.5,-399.7 526.5,-399.7 526.5,-377.7 459.5,-377.7"/>
<text text-anchor="start" x="462.5" y="-385.4" font-family="Helvetica,sans-Serif" font-size="11.00" fill="#000000">datetime[26]</text>
<polygon fill="none" stroke="#000000" points="267.5,-355.7 267.5,-377.7 459.5,-377.7 459.5,-355.7 267.5,-355.7"/>
<text text-anchor="start" x="287.5" y="-362.8" font-family="Helvetica,sans-Serif" font-size="11.00" fill="#000000">date_modified</text>
<polygon fill="none" stroke="#000000" points="459.5,-355.7 459.5,-377.7 526.5,-377.7 526.5,-355.7 459.5,-355.7"/>
<text text-anchor="start" x="462.5" y="-363.4" font-family="Helvetica,sans-Serif" font-size="11.00" fill="#000000">datetime[26]</text>
<polygon fill="none" stroke="#000000" points="267.5,-333.7 267.5,-355.7 459.5,-355.7 459.5,-333.7 267.5,-333.7"/>
<text text-anchor="start" x="287.5" y="-340.8" font-family="Helvetica,sans-Serif" font-size="11.00" fill="#000000">deleted</text>
<polygon fill="none" stroke="#000000" points="459.5,-333.7 459.5,-355.7 526.5,-355.7 526.5,-333.7 459.5,-333.7"/>
<text text-anchor="start" x="462.5" y="-341.4" font-family="Helvetica,sans-Serif" font-size="11.00" fill="#000000">bit[1]</text>
<polygon fill="#ffffff" stroke="transparent" points="267.5,-314.7 267.5,-333.7 367.5,-333.7 367.5,-314.7 267.5,-314.7"/>
<polygon fill="none" stroke="#000000" points="267.5,-314.7 267.5,-333.7 367.5,-333.7 367.5,-314.7 267.5,-314.7"/>
<text text-anchor="start" x="270.5" y="-320.8" font-family="Helvetica,sans-Serif" font-size="11.00" fill="#000000">&lt; 0</text>
<polygon fill="#ffffff" stroke="transparent" points="367.5,-314.7 367.5,-333.7 459.5,-333.7 459.5,-314.7 367.5,-314.7"/>
<polygon fill="none" stroke="#000000" points="367.5,-314.7 367.5,-333.7 459.5,-333.7 459.5,-314.7 367.5,-314.7"/>
<text text-anchor="start" x="450.3862" y="-320.8" font-family="Helvetica,sans-Serif" font-size="11.00" fill="#000000"> &#160;</text>
<polygon fill="#ffffff" stroke="transparent" points="459.5,-314.7 459.5,-333.7 526.5,-333.7 526.5,-314.7 459.5,-314.7"/>
<polygon fill="none" stroke="#000000" points="459.5,-314.7 459.5,-333.7 526.5,-333.7 526.5,-314.7 459.5,-314.7"/>
<text text-anchor="start" x="507.9053" y="-320.8" font-family="Helvetica,sans-Serif" font-size="11.00" fill="#000000">2 &gt;</text>
<polygon fill="none" stroke="#000000" stroke-width="2" points="266,-313.7 266,-643.7 527,-643.7 527,-313.7 266,-313.7"/>
</a>
</g>
</g>
<!-- email_addr_bean_rel&#45;&gt;email_addresses -->
<g id="edge12" class="edge">
<title>email_addr_bean_rel:w&#45;&gt;email_addresses:e</title>
<path fill="none" stroke="#000000" d="M570.5489,-216.8793C509.3121,-259.2014 610.0539,-608.7 526.5,-608.7"/>
<polygon fill="#000000" stroke="#000000" points="576.8365,-214.9958 585.5331,-216.1486 580.6682,-213.8479 584.5,-212.7 584.5,-212.7 584.5,-212.7 580.6682,-213.8479 583.4669,-209.2514 576.8365,-214.9958 576.8365,-214.9958"/>
<ellipse fill="none" stroke="#000000" cx="573.7711" cy="-215.9141" rx="3.2" ry="3.2"/>
</g>
<!-- leads&#45;&gt;accounts -->
<g id="edge14" class="edge">
<title>leads:w&#45;&gt;accounts:e</title>
<path fill="none" stroke="#000000" d="M347.9888,-257.7C294.0836,-257.7 275.434,-257.7 215,-257.7"/>
<polygon fill="#000000" stroke="#000000" points="354.5,-257.7001 362.5,-261.3 358.5,-257.7 362.5,-257.7 362.5,-257.7 362.5,-257.7 358.5,-257.7 362.5,-254.1 354.5,-257.7001 354.5,-257.7001"/>
<ellipse fill="none" stroke="#000000" cx="351.3" cy="-257.7001" rx="3.2" ry="3.2"/>
</g>
<!-- leads&#45;&gt;users -->
<g id="edge15" class="edge">
<title>leads:w&#45;&gt;users:e</title>
<path fill="none" stroke="#000000" d="M348.0071,-258.3345C247.9674,-267.1453 203.2146,-363.8181 118,-301.7 70.4669,-267.0503 136.3218,-175.7 77.5,-175.7"/>
<polygon fill="#000000" stroke="#000000" points="354.5077,-258.0499 362.6575,-261.2966 358.5038,-257.875 362.5,-257.7 362.5,-257.7 362.5,-257.7 358.5038,-257.875 362.3425,-254.1034 354.5077,-258.0499 354.5077,-258.0499"/>
<ellipse fill="none" stroke="#000000" cx="351.3107" cy="-258.1899" rx="3.2" ry="3.2"/>
</g>
<!-- leads&#45;&gt;users -->
<g id="edge17" class="edge">
<title>leads:w&#45;&gt;users:e</title>
<path fill="none" stroke="#000000" d="M348.0445,-257.5347C248.2475,-260.7423 203.2763,-353.2434 118,-291.7 71.6728,-258.2659 134.6319,-169.7 77.5,-175.7"/>
<polygon fill="#000000" stroke="#000000" points="354.5005,-257.6085 362.4588,-261.2998 358.5003,-257.6542 362.5,-257.7 362.5,-257.7 362.5,-257.7 358.5003,-257.6542 362.5412,-254.1002 354.5005,-257.6085 354.5005,-257.6085"/>
<ellipse fill="none" stroke="#000000" cx="351.3007" cy="-257.5718" rx="3.2" ry="3.2"/>
</g>
<!-- leads&#45;&gt;users -->
<g id="edge18" class="edge">
<title>leads:w&#45;&gt;users:e</title>
<path fill="none" stroke="#000000" d="M348.0445,-259.2091C248.2475,-273.7423 203.2763,-366.2434 118,-304.7 71.6728,-271.2659 134.6319,-182.7 77.5,-175.7"/>
<polygon fill="#000000" stroke="#000000" points="354.5432,-258.5307 362.8738,-261.2805 358.5216,-258.1154 362.5,-257.7 362.5,-257.7 362.5,-257.7 358.5216,-258.1154 362.1262,-254.1195 354.5432,-258.5307 354.5432,-258.5307"/>
<ellipse fill="none" stroke="#000000" cx="351.3605" cy="-258.863" rx="3.2" ry="3.2"/>
</g>
<!-- leads&#45;&gt;contacts -->
<g id="edge16" class="edge">
<title>leads:w&#45;&gt;contacts:e</title>
<path fill="none" stroke="#000000" d="M348.0002,-256.6028C286.6357,-246.8722 283.6025,-175.7 213,-175.7"/>
<polygon fill="#000000" stroke="#000000" points="354.5228,-257.0963 362.2283,-261.2897 358.5114,-257.3982 362.5,-257.7 362.5,-257.7 362.5,-257.7 358.5114,-257.3982 362.7717,-254.1103 354.5228,-257.0963 354.5228,-257.0963"/>
<ellipse fill="none" stroke="#000000" cx="351.3319" cy="-256.8549" rx="3.2" ry="3.2"/>
</g>
<!-- prospects&#45;&gt;users -->
<g id="edge19" class="edge">
<title>prospects:w&#45;&gt;users:e</title>
<path fill="none" stroke="#000000" d="M111.4618,-65.8431C84.7129,-77.1492 124.6687,-164.2234 77.5,-175.7"/>
<polygon fill="#000000" stroke="#000000" points="118.0004,-65.7788 126.0355,-69.2998 122.0002,-65.7394 126,-65.7 126,-65.7 126,-65.7 122.0002,-65.7394 125.9645,-62.1002 118.0004,-65.7788 118.0004,-65.7788"/>
<ellipse fill="none" stroke="#000000" cx="114.8005" cy="-65.8103" rx="3.2" ry="3.2"/>
</g>
<!-- prospects&#45;&gt;users -->
<g id="edge20" class="edge">
<title>prospects:w&#45;&gt;users:e</title>
<path fill="none" stroke="#000000" d="M111.8208,-69.615C84.3576,-89.2103 124.8774,-175.7 77.5,-175.7"/>
<polygon fill="#000000" stroke="#000000" points="118.2885,-67.8292 126.9581,-69.1702 122.1443,-66.7646 126,-65.7 126,-65.7 126,-65.7 122.1443,-66.7646 125.0419,-62.2298 118.2885,-67.8292 118.2885,-67.8292"/>
<ellipse fill="none" stroke="#000000" cx="115.204" cy="-68.6809" rx="3.2" ry="3.2"/>
</g>
<!-- prospects&#45;&gt;users -->
<g id="edge21" class="edge">
<title>prospects:w&#45;&gt;users:e</title>
<path fill="none" stroke="#000000" d="M112.9456,-72.4321C83.2713,-99.775 125.5035,-187.3797 77.5,-175.7"/>
<polygon fill="#000000" stroke="#000000" points="118.8898,-69.3668 127.65,-68.8996 122.4449,-67.5334 126,-65.7 126,-65.7 126,-65.7 122.4449,-67.5334 124.35,-62.5004 118.8898,-69.3668 118.8898,-69.3668"/>
<ellipse fill="none" stroke="#000000" cx="116.0457" cy="-70.8335" rx="3.2" ry="3.2"/>
</g>
<!-- email_addresses_audit -->
<g id="node8" class="node">
<title>email_addresses_audit</title>
<g id="a_node8"><a xlink:href="../../tables/email_addresses_audit.html" xlink:title="email_addresses_audit" target="_top">
<polygon fill="#ffffff" stroke="transparent" points="577,-560.2 577,-665.2 750,-665.2 750,-560.2 577,-560.2"/>
<polygon fill="#f5f5f5" stroke="transparent" points="577.5,-641.7 577.5,-664.7 750.5,-664.7 750.5,-641.7 577.5,-641.7"/>
<polygon fill="none" stroke="#000000" points="577.5,-641.7 577.5,-664.7 750.5,-664.7 750.5,-641.7 577.5,-641.7"/>
<text text-anchor="start" x="582.5" y="-650.8" font-family="Helvetica,sans-Serif" font-weight="bold" font-size="11.00" fill="#000000">email_addresses_audit</text>
<text text-anchor="start" x="715.5437" y="-649.8" font-family="Helvetica,sans-Serif" font-size="11.00" fill="#000000">[table]</text>
<polygon fill="none" stroke="#000000" points="577.5,-619.7 577.5,-641.7 750.5,-641.7 750.5,-619.7 577.5,-619.7"/>
<image xlink:href="../../images/primaryKeys.png" width="11px" height="12px" preserveAspectRatio="xMinYMin meet" x="582.5" y="-636.7"/>
<text text-anchor="start" x="597.5" y="-626.8" font-family="Helvetica,sans-Serif" font-size="11.00" fill="#000000">id</text>
<polygon fill="#c0c0c0" stroke="transparent" points="577.5,-597.7 577.5,-619.7 750.5,-619.7 750.5,-597.7 577.5,-597.7"/>
<polygon fill="none" stroke="#000000" points="577.5,-597.7 577.5,-619.7 750.5,-619.7 750.5,-597.7 577.5,-597.7"/>
<image xlink:href="../../images/foreignKeys.png" width="11px" height="12px" preserveAspectRatio="xMinYMin meet" x="582.5" y="-614.7"/>
<text text-anchor="start" x="597.5" y="-604.8" font-family="Helvetica,sans-Serif" font-size="11.00" fill="#000000">parent_id</text>
<polygon fill="none" stroke="#000000" points="577.5,-578.7 577.5,-597.7 750.5,-597.7 750.5,-578.7 577.5,-578.7"/>
<text text-anchor="start" x="580.5" y="-584.8" font-family="Helvetica,sans-Serif" font-size="11.00" fill="#000000">...</text>
<polygon fill="#ffffff" stroke="transparent" points="577.5,-559.7 577.5,-578.7 662.5,-578.7 662.5,-559.7 577.5,-559.7"/>
<polygon fill="none" stroke="#000000" points="577.5,-559.7 577.5,-578.7 662.5,-578.7 662.5,-559.7 577.5,-559.7"/>
<text text-anchor="start" x="580.5" y="-565.8" font-family="Helvetica,sans-Serif" font-size="11.00" fill="#000000">&lt; 1</text>
<polygon fill="#ffffff" stroke="transparent" points="662.5,-559.7 662.5,-578.7 706.5,-578.7 706.5,-559.7 662.5,-559.7"/>
<polygon fill="none" stroke="#000000" points="662.5,-559.7 662.5,-578.7 706.5,-578.7 706.5,-559.7 662.5,-559.7"/>
<text text-anchor="start" x="697.3862" y="-565.8" font-family="Helvetica,sans-Serif" font-size="11.00" fill="#000000"> &#160;</text>
<polygon fill="#ffffff" stroke="transparent" points="706.5,-559.7 706.5,-578.7 750.5,-578.7 750.5,-559.7 706.5,-559.7"/>
<polygon fill="none" stroke="#000000" points="706.5,-559.7 706.5,-578.7 750.5,-578.7 750.5,-559.7 706.5,-559.7"/>
<text text-anchor="start" x="741.3862" y="-565.8" font-family="Helvetica,sans-Serif" font-size="11.00" fill="#000000"> &#160;</text>
</a>
</g>
</g>
<!-- email_addresses_audit&#45;&gt;email_addresses -->
<g id="edge13" class="edge">
<title>email_addresses_audit:w&#45;&gt;email_addresses:e</title>
<path fill="none" stroke="#000000" d="M562.776,-608.7C550.7815,-608.7 543.3229,-608.7 526.5,-608.7"/>
<polygon fill="#000000" stroke="#000000" points="569.5,-608.7001 577.5,-612.3 573.5,-608.7 577.5,-608.7 577.5,-608.7 577.5,-608.7 573.5,-608.7 577.5,-605.1 569.5,-608.7001 569.5,-608.7001"/>
<ellipse fill="none" stroke="#000000" cx="566.3" cy="-608.7001" rx="3.2" ry="3.2"/>
</g>
</g>
</svg>
