<?xml version="1.0" encoding="UTF-8" standalone="no"?>
<!DOCTYPE svg PUBLIC "-//W3C//DTD SVG 1.1//EN"
 "http://www.w3.org/Graphics/SVG/1.1/DTD/svg11.dtd">
<!-- Generated by graphviz version 2.40.1 (20161225.0304)
 -->
<!-- Title: twoDegreesRelationshipsDiagram Pages: 1 -->
<svg width="655pt" height="1241pt"
 viewBox="0.00 0.00 655.00 1241.20" xmlns="http://www.w3.org/2000/svg" xmlns:xlink="http://www.w3.org/1999/xlink">
<g id="graph0" class="graph" transform="scale(1 1) rotate(0) translate(4 1237.2)">
<title>twoDegreesRelationshipsDiagram</title>
<polygon fill="#ffffff" stroke="transparent" points="-4,4 -4,-1237.2 651,-1237.2 651,4 -4,4"/>
<text text-anchor="middle" x="72.4936" y="-7.3" font-family="Helvetica,sans-Serif" font-size="11.00" fill="#000000">Generated by SchemaSpy</text>
<!-- acl_roles_users -->
<g id="node1" class="node">
<title>acl_roles_users</title>
<g id="a_node1"><a xlink:href="../../tables/acl_roles_users.html" xlink:title="acl_roles_users" target="_top">
<polygon fill="#ffffff" stroke="transparent" points="476,-1168.2 476,-1229.2 596,-1229.2 596,-1168.2 476,-1168.2"/>
<polygon fill="#f5f5f5" stroke="transparent" points="476,-1205.7 476,-1228.7 596,-1228.7 596,-1205.7 476,-1205.7"/>
<polygon fill="none" stroke="#000000" points="476,-1205.7 476,-1228.7 596,-1228.7 596,-1205.7 476,-1205.7"/>
<text text-anchor="start" x="480.9951" y="-1214.8" font-family="Helvetica,sans-Serif" font-weight="bold" font-size="11.00" fill="#000000">acl_roles_users</text>
<text text-anchor="start" x="561.5219" y="-1213.8" font-family="Helvetica,sans-Serif" font-size="11.00" fill="#000000">[table]</text>
<polygon fill="none" stroke="#000000" points="476,-1186.7 476,-1205.7 596,-1205.7 596,-1186.7 476,-1186.7"/>
<text text-anchor="start" x="479" y="-1192.8" font-family="Helvetica,sans-Serif" font-size="11.00" fill="#000000">...</text>
<polygon fill="#ffffff" stroke="transparent" points="476,-1167.7 476,-1186.7 534,-1186.7 534,-1167.7 476,-1167.7"/>
<polygon fill="none" stroke="#000000" points="476,-1167.7 476,-1186.7 534,-1186.7 534,-1167.7 476,-1167.7"/>
<text text-anchor="start" x="479" y="-1173.8" font-family="Helvetica,sans-Serif" font-size="11.00" fill="#000000">&lt; 2</text>
<polygon fill="#ffffff" stroke="transparent" points="534,-1167.7 534,-1186.7 565,-1186.7 565,-1167.7 534,-1167.7"/>
<polygon fill="none" stroke="#000000" points="534,-1167.7 534,-1186.7 565,-1186.7 565,-1167.7 534,-1167.7"/>
<text text-anchor="start" x="555.8862" y="-1173.8" font-family="Helvetica,sans-Serif" font-size="11.00" fill="#000000"> &#160;</text>
<polygon fill="#ffffff" stroke="transparent" points="565,-1167.7 565,-1186.7 596,-1186.7 596,-1167.7 565,-1167.7"/>
<polygon fill="none" stroke="#000000" points="565,-1167.7 565,-1186.7 596,-1186.7 596,-1167.7 565,-1167.7"/>
<text text-anchor="start" x="586.8862" y="-1173.8" font-family="Helvetica,sans-Serif" font-size="11.00" fill="#000000"> &#160;</text>
</a>
</g>
</g>
<!-- users -->
<g id="node2" class="node">
<title>users</title>
<g id="a_node2"><a xlink:href="../../tables/users.html" xlink:title="users" target="_top">
<polygon fill="#ffffff" stroke="transparent" points="168,-421.2 168,-636.2 384,-636.2 384,-421.2 168,-421.2"/>
<polygon fill="#f5f5f5" stroke="transparent" points="168,-612.7 168,-635.7 384,-635.7 384,-612.7 168,-612.7"/>
<polygon fill="none" stroke="#000000" points="168,-612.7 168,-635.7 384,-635.7 384,-612.7 168,-612.7"/>
<text text-anchor="start" x="173" y="-621.8" font-family="Helvetica,sans-Serif" font-weight="bold" font-size="11.00" fill="#000000">users</text>
<text text-anchor="start" x="349.0437" y="-620.8" font-family="Helvetica,sans-Serif" font-size="11.00" fill="#000000">[table]</text>
<polygon fill="none" stroke="#000000" points="168,-590.7 168,-612.7 384,-612.7 384,-590.7 168,-590.7"/>
<image xlink:href="../../images/primaryKeys.png" width="11px" height="12px" preserveAspectRatio="xMinYMin meet" x="173" y="-607.7"/>
<text text-anchor="start" x="188" y="-597.8" font-family="Helvetica,sans-Serif" font-size="11.00" fill="#000000">id</text>
<polygon fill="#ffffff" stroke="transparent" points="168,-568.7 168,-590.7 384,-590.7 384,-568.7 168,-568.7"/>
<polygon fill="none" stroke="#000000" points="168,-568.7 168,-590.7 384,-590.7 384,-568.7 168,-568.7"/>
<text text-anchor="start" x="188" y="-575.8" font-family="Helvetica,sans-Serif" font-size="11.00" fill="#000000">user_name</text>
<polygon fill="#ffffff" stroke="transparent" points="168,-546.7 168,-568.7 384,-568.7 384,-546.7 168,-546.7"/>
<polygon fill="none" stroke="#000000" points="168,-546.7 168,-568.7 384,-568.7 384,-546.7 168,-546.7"/>
<text text-anchor="start" x="188" y="-553.8" font-family="Helvetica,sans-Serif" font-size="11.00" fill="#000000">first_name</text>
<polygon fill="#ffffff" stroke="transparent" points="168,-524.7 168,-546.7 384,-546.7 384,-524.7 168,-524.7"/>
<polygon fill="none" stroke="#000000" points="168,-524.7 168,-546.7 384,-546.7 384,-524.7 168,-524.7"/>
<text text-anchor="start" x="188" y="-531.8" font-family="Helvetica,sans-Serif" font-size="11.00" fill="#000000">last_name</text>
<polygon fill="#ffffff" stroke="transparent" points="168,-502.7 168,-524.7 384,-524.7 384,-502.7 168,-502.7"/>
<polygon fill="none" stroke="#000000" points="168,-502.7 168,-524.7 384,-524.7 384,-502.7 168,-502.7"/>
<text text-anchor="start" x="188" y="-509.8" font-family="Helvetica,sans-Serif" font-size="11.00" fill="#000000">status</text>
<polygon fill="#c0c0c0" stroke="transparent" points="168,-480.7 168,-502.7 384,-502.7 384,-480.7 168,-480.7"/>
<polygon fill="none" stroke="#000000" points="168,-480.7 168,-502.7 384,-502.7 384,-480.7 168,-480.7"/>
<image xlink:href="../../images/foreignKeys.png" width="11px" height="12px" preserveAspectRatio="xMinYMin meet" x="173" y="-497.7"/>
<text text-anchor="start" x="188" y="-487.8" font-family="Helvetica,sans-Serif" font-size="11.00" fill="#000000">reports_to_id</text>
<polygon fill="#ffffff" stroke="transparent" points="168,-458.7 168,-480.7 384,-480.7 384,-458.7 168,-458.7"/>
<polygon fill="none" stroke="#000000" points="168,-458.7 168,-480.7 384,-480.7 384,-458.7 168,-458.7"/>
<text text-anchor="start" x="188" y="-465.8" font-family="Helvetica,sans-Serif" font-size="11.00" fill="#000000">is_group</text>
<polygon fill="none" stroke="#000000" points="168,-439.7 168,-458.7 384,-458.7 384,-439.7 168,-439.7"/>
<text text-anchor="start" x="171" y="-445.8" font-family="Helvetica,sans-Serif" font-size="11.00" fill="#000000">...</text>
<polygon fill="#ffffff" stroke="transparent" points="168,-420.7 168,-439.7 264,-439.7 264,-420.7 168,-420.7"/>
<polygon fill="none" stroke="#000000" points="168,-420.7 168,-439.7 264,-439.7 264,-420.7 168,-420.7"/>
<text text-anchor="start" x="171" y="-426.8" font-family="Helvetica,sans-Serif" font-size="11.00" fill="#000000">&lt; 2</text>
<polygon fill="#ffffff" stroke="transparent" points="264,-420.7 264,-439.7 313,-439.7 313,-420.7 264,-420.7"/>
<polygon fill="none" stroke="#000000" points="264,-420.7 264,-439.7 313,-439.7 313,-420.7 264,-420.7"/>
<text text-anchor="start" x="303.8862" y="-426.8" font-family="Helvetica,sans-Serif" font-size="11.00" fill="#000000"> &#160;</text>
<polygon fill="#ffffff" stroke="transparent" points="313,-420.7 313,-439.7 384,-439.7 384,-420.7 313,-420.7"/>
<polygon fill="none" stroke="#000000" points="313,-420.7 313,-439.7 384,-439.7 384,-420.7 313,-420.7"/>
<text text-anchor="start" x="353.1755" y="-426.8" font-family="Helvetica,sans-Serif" font-size="11.00" fill="#000000">214 &gt;</text>
</a>
</g>
</g>
<!-- acl_roles_users&#45;&gt;users -->
<g id="edge1" class="edge">
<title>acl_roles_users:w&#45;&gt;users:e</title>
<path fill="none" stroke="#000000" d="M461.4514,-1194.1994C443.9958,-1190.0946 435.9454,-1177.6393 425,-1157.7 395.1918,-1103.3979 445.9455,-601.7 384,-601.7"/>
<polygon fill="#000000" stroke="#000000" points="468.0422,-1194.8791 475.6306,-1199.281 472.0211,-1195.2896 476,-1195.7 476,-1195.7 476,-1195.7 472.0211,-1195.2896 476.3694,-1192.119 468.0422,-1194.8791 468.0422,-1194.8791"/>
<ellipse fill="none" stroke="#000000" cx="464.8591" cy="-1194.5508" rx="3.2" ry="3.2"/>
</g>
<!-- campaign_log -->
<g id="node14" class="node">
<title>campaign_log</title>
<g id="a_node14"><a xlink:href="../../tables/campaign_log.html" xlink:title="campaign_log" target="_top">
<polygon fill="#ffffff" stroke="transparent" points="8,-574.2 8,-635.2 119,-635.2 119,-574.2 8,-574.2"/>
<polygon fill="#f5f5f5" stroke="transparent" points="8.5,-611.7 8.5,-634.7 119.5,-634.7 119.5,-611.7 8.5,-611.7"/>
<polygon fill="none" stroke="#000000" points="8.5,-611.7 8.5,-634.7 119.5,-634.7 119.5,-611.7 8.5,-611.7"/>
<text text-anchor="start" x="13.2686" y="-620.8" font-family="Helvetica,sans-Serif" font-weight="bold" font-size="11.00" fill="#000000">campaign_log</text>
<text text-anchor="start" x="85.0219" y="-619.8" font-family="Helvetica,sans-Serif" font-size="11.00" fill="#000000">[table]</text>
<polygon fill="none" stroke="#000000" points="8.5,-592.7 8.5,-611.7 119.5,-611.7 119.5,-592.7 8.5,-592.7"/>
<text text-anchor="start" x="11.5" y="-598.8" font-family="Helvetica,sans-Serif" font-size="11.00" fill="#000000">...</text>
<polygon fill="#ffffff" stroke="transparent" points="8.5,-573.7 8.5,-592.7 57.5,-592.7 57.5,-573.7 8.5,-573.7"/>
<polygon fill="none" stroke="#000000" points="8.5,-573.7 8.5,-592.7 57.5,-592.7 57.5,-573.7 8.5,-573.7"/>
<text text-anchor="start" x="11.5" y="-579.8" font-family="Helvetica,sans-Serif" font-size="11.00" fill="#000000">&lt; 5</text>
<polygon fill="#ffffff" stroke="transparent" points="57.5,-573.7 57.5,-592.7 83.5,-592.7 83.5,-573.7 57.5,-573.7"/>
<polygon fill="none" stroke="#000000" points="57.5,-573.7 57.5,-592.7 83.5,-592.7 83.5,-573.7 57.5,-573.7"/>
<text text-anchor="start" x="74.3862" y="-579.8" font-family="Helvetica,sans-Serif" font-size="11.00" fill="#000000"> &#160;</text>
<polygon fill="#ffffff" stroke="transparent" points="83.5,-573.7 83.5,-592.7 119.5,-592.7 119.5,-573.7 83.5,-573.7"/>
<polygon fill="none" stroke="#000000" points="83.5,-573.7 83.5,-592.7 119.5,-592.7 119.5,-573.7 83.5,-573.7"/>
<text text-anchor="start" x="100.9053" y="-579.8" font-family="Helvetica,sans-Serif" font-size="11.00" fill="#000000">5 &gt;</text>
</a>
</g>
</g>
<!-- users&#45;&gt;campaign_log -->
<g id="edge15" class="edge">
<title>users:w&#45;&gt;campaign_log:e</title>
<path fill="none" stroke="#000000" d="M157.3669,-601.7C143.8553,-601.7 137.0139,-601.7 119.5,-601.7"/>
<polygon fill="#000000" stroke="#000000" points="167.2,-597.7 167.2,-605.7 165.6,-605.7 165.6,-597.7 167.2,-597.7"/>
<polyline fill="none" stroke="#000000" points="168,-601.7 164,-601.7 "/>
<ellipse fill="none" stroke="#000000" cx="160.8" cy="-601.7001" rx="3.2" ry="3.2"/>
</g>
<!-- am_projecttemplates_users_1_c -->
<g id="node3" class="node">
<title>am_projecttemplates_users_1_c</title>
<g id="a_node3"><a xlink:href="../../tables/am_projecttemplates_users_1_c.html" xlink:title="am_projecttemplates_users_1_c" target="_top">
<polygon fill="#ffffff" stroke="transparent" points="435.5,-1086.2 435.5,-1147.2 636.5,-1147.2 636.5,-1086.2 435.5,-1086.2"/>
<polygon fill="#f5f5f5" stroke="transparent" points="436,-1123.7 436,-1146.7 637,-1146.7 637,-1123.7 436,-1123.7"/>
<polygon fill="none" stroke="#000000" points="436,-1123.7 436,-1146.7 637,-1146.7 637,-1123.7 436,-1123.7"/>
<text text-anchor="start" x="440.5382" y="-1132.8" font-family="Helvetica,sans-Serif" font-weight="bold" font-size="11.00" fill="#000000">am_projecttemplates_users_1_c</text>
<text text-anchor="start" x="602.5219" y="-1131.8" font-family="Helvetica,sans-Serif" font-size="11.00" fill="#000000">[table]</text>
<polygon fill="none" stroke="#000000" points="436,-1104.7 436,-1123.7 637,-1123.7 637,-1104.7 436,-1104.7"/>
<text text-anchor="start" x="439" y="-1110.8" font-family="Helvetica,sans-Serif" font-size="11.00" fill="#000000">...</text>
<polygon fill="#ffffff" stroke="transparent" points="436,-1085.7 436,-1104.7 535,-1104.7 535,-1085.7 436,-1085.7"/>
<polygon fill="none" stroke="#000000" points="436,-1085.7 436,-1104.7 535,-1104.7 535,-1085.7 436,-1085.7"/>
<text text-anchor="start" x="439" y="-1091.8" font-family="Helvetica,sans-Serif" font-size="11.00" fill="#000000">&lt; 2</text>
<polygon fill="#ffffff" stroke="transparent" points="535,-1085.7 535,-1104.7 586,-1104.7 586,-1085.7 535,-1085.7"/>
<polygon fill="none" stroke="#000000" points="535,-1085.7 535,-1104.7 586,-1104.7 586,-1085.7 535,-1085.7"/>
<text text-anchor="start" x="576.8862" y="-1091.8" font-family="Helvetica,sans-Serif" font-size="11.00" fill="#000000"> &#160;</text>
<polygon fill="#ffffff" stroke="transparent" points="586,-1085.7 586,-1104.7 637,-1104.7 637,-1085.7 586,-1085.7"/>
<polygon fill="none" stroke="#000000" points="586,-1085.7 586,-1104.7 637,-1104.7 637,-1085.7 586,-1085.7"/>
<text text-anchor="start" x="627.8862" y="-1091.8" font-family="Helvetica,sans-Serif" font-size="11.00" fill="#000000"> &#160;</text>
</a>
</g>
</g>
<!-- am_projecttemplates_users_1_c&#45;&gt;users -->
<g id="edge2" class="edge">
<title>am_projecttemplates_users_1_c:w&#45;&gt;users:e</title>
<path fill="none" stroke="#000000" d="M421.7765,-1110.4305C337.5654,-1066.825 493.0023,-601.7 384,-601.7"/>
<polygon fill="#000000" stroke="#000000" points="428.2033,-1111.9077 435.1935,-1117.2085 432.1017,-1112.8039 436,-1113.7 436,-1113.7 436,-1113.7 432.1017,-1112.8039 436.8065,-1110.1915 428.2033,-1111.9077 428.2033,-1111.9077"/>
<ellipse fill="none" stroke="#000000" cx="425.0847" cy="-1111.1908" rx="3.2" ry="3.2"/>
</g>
<!-- calls_users -->
<g id="node4" class="node">
<title>calls_users</title>
<g id="a_node4"><a xlink:href="../../tables/calls_users.html" xlink:title="calls_users" target="_top">
<polygon fill="#ffffff" stroke="transparent" points="487,-1004.2 487,-1065.2 585,-1065.2 585,-1004.2 487,-1004.2"/>
<polygon fill="#f5f5f5" stroke="transparent" points="487,-1041.7 487,-1064.7 585,-1064.7 585,-1041.7 487,-1041.7"/>
<polygon fill="none" stroke="#000000" points="487,-1041.7 487,-1064.7 585,-1064.7 585,-1041.7 487,-1041.7"/>
<text text-anchor="start" x="491.9984" y="-1050.8" font-family="Helvetica,sans-Serif" font-weight="bold" font-size="11.00" fill="#000000">calls_users</text>
<text text-anchor="start" x="550.5219" y="-1049.8" font-family="Helvetica,sans-Serif" font-size="11.00" fill="#000000">[table]</text>
<polygon fill="none" stroke="#000000" points="487,-1022.7 487,-1041.7 585,-1041.7 585,-1022.7 487,-1022.7"/>
<text text-anchor="start" x="490" y="-1028.8" font-family="Helvetica,sans-Serif" font-size="11.00" fill="#000000">...</text>
<polygon fill="#ffffff" stroke="transparent" points="487,-1003.7 487,-1022.7 534,-1022.7 534,-1003.7 487,-1003.7"/>
<polygon fill="none" stroke="#000000" points="487,-1003.7 487,-1022.7 534,-1022.7 534,-1003.7 487,-1003.7"/>
<text text-anchor="start" x="490" y="-1009.8" font-family="Helvetica,sans-Serif" font-size="11.00" fill="#000000">&lt; 2</text>
<polygon fill="#ffffff" stroke="transparent" points="534,-1003.7 534,-1022.7 559,-1022.7 559,-1003.7 534,-1003.7"/>
<polygon fill="none" stroke="#000000" points="534,-1003.7 534,-1022.7 559,-1022.7 559,-1003.7 534,-1003.7"/>
<text text-anchor="start" x="549.8862" y="-1009.8" font-family="Helvetica,sans-Serif" font-size="11.00" fill="#000000"> &#160;</text>
<polygon fill="#ffffff" stroke="transparent" points="559,-1003.7 559,-1022.7 585,-1022.7 585,-1003.7 559,-1003.7"/>
<polygon fill="none" stroke="#000000" points="559,-1003.7 559,-1022.7 585,-1022.7 585,-1003.7 559,-1003.7"/>
<text text-anchor="start" x="575.8862" y="-1009.8" font-family="Helvetica,sans-Serif" font-size="11.00" fill="#000000"> &#160;</text>
</a>
</g>
</g>
<!-- calls_users&#45;&gt;users -->
<g id="edge3" class="edge">
<title>calls_users:w&#45;&gt;users:e</title>
<path fill="none" stroke="#000000" d="M472.5889,-1030.8125C450.4688,-1027.7528 439.41,-1016.5532 425,-993.7 378.2842,-919.6123 471.5863,-601.7 384,-601.7"/>
<polygon fill="#000000" stroke="#000000" points="479.0151,-1031.2082 486.7787,-1035.2932 483.0076,-1031.4541 487,-1031.7 487,-1031.7 487,-1031.7 483.0076,-1031.4541 487.2213,-1028.1068 479.0151,-1031.2082 479.0151,-1031.2082"/>
<ellipse fill="none" stroke="#000000" cx="475.8212" cy="-1031.0115" rx="3.2" ry="3.2"/>
</g>
<!-- contacts_users -->
<g id="node5" class="node">
<title>contacts_users</title>
<g id="a_node5"><a xlink:href="../../tables/contacts_users.html" xlink:title="contacts_users" target="_top">
<polygon fill="#ffffff" stroke="transparent" points="478,-922.2 478,-983.2 594,-983.2 594,-922.2 478,-922.2"/>
<polygon fill="#f5f5f5" stroke="transparent" points="478,-959.7 478,-982.7 594,-982.7 594,-959.7 478,-959.7"/>
<polygon fill="none" stroke="#000000" points="478,-959.7 478,-982.7 594,-982.7 594,-959.7 478,-959.7"/>
<text text-anchor="start" x="482.5175" y="-968.8" font-family="Helvetica,sans-Serif" font-weight="bold" font-size="11.00" fill="#000000">contacts_users</text>
<text text-anchor="start" x="559.5219" y="-967.8" font-family="Helvetica,sans-Serif" font-size="11.00" fill="#000000">[table]</text>
<polygon fill="none" stroke="#000000" points="478,-940.7 478,-959.7 594,-959.7 594,-940.7 478,-940.7"/>
<text text-anchor="start" x="481" y="-946.8" font-family="Helvetica,sans-Serif" font-size="11.00" fill="#000000">...</text>
<polygon fill="#ffffff" stroke="transparent" points="478,-921.7 478,-940.7 534,-940.7 534,-921.7 478,-921.7"/>
<polygon fill="none" stroke="#000000" points="478,-921.7 478,-940.7 534,-940.7 534,-921.7 478,-921.7"/>
<text text-anchor="start" x="481" y="-927.8" font-family="Helvetica,sans-Serif" font-size="11.00" fill="#000000">&lt; 2</text>
<polygon fill="#ffffff" stroke="transparent" points="534,-921.7 534,-940.7 564,-940.7 564,-921.7 534,-921.7"/>
<polygon fill="none" stroke="#000000" points="534,-921.7 534,-940.7 564,-940.7 564,-921.7 534,-921.7"/>
<text text-anchor="start" x="554.8862" y="-927.8" font-family="Helvetica,sans-Serif" font-size="11.00" fill="#000000"> &#160;</text>
<polygon fill="#ffffff" stroke="transparent" points="564,-921.7 564,-940.7 594,-940.7 594,-921.7 564,-921.7"/>
<polygon fill="none" stroke="#000000" points="564,-921.7 564,-940.7 594,-940.7 594,-921.7 564,-921.7"/>
<text text-anchor="start" x="584.8862" y="-927.8" font-family="Helvetica,sans-Serif" font-size="11.00" fill="#000000"> &#160;</text>
</a>
</g>
</g>
<!-- contacts_users&#45;&gt;users -->
<g id="edge4" class="edge">
<title>contacts_users:w&#45;&gt;users:e</title>
<path fill="none" stroke="#000000" d="M463.6231,-948.3234C445.3954,-944.3599 437.1105,-931.8974 425,-911.7 389.2656,-852.1035 453.4888,-601.7 384,-601.7"/>
<polygon fill="#000000" stroke="#000000" points="470.0364,-948.9374 477.6568,-953.2836 474.0182,-949.3187 478,-949.7 478,-949.7 478,-949.7 474.0182,-949.3187 478.3432,-946.1164 470.0364,-948.9374 470.0364,-948.9374"/>
<ellipse fill="none" stroke="#000000" cx="466.851" cy="-948.6324" rx="3.2" ry="3.2"/>
</g>
<!-- email_addr_bean_rel -->
<g id="node6" class="node">
<title>email_addr_bean_rel</title>
<g id="a_node6"><a xlink:href="../../tables/email_addr_bean_rel.html" xlink:title="email_addr_bean_rel" target="_top">
<polygon fill="#ffffff" stroke="transparent" points="463,-840.2 463,-901.2 609,-901.2 609,-840.2 463,-840.2"/>
<polygon fill="#f5f5f5" stroke="transparent" points="463,-877.7 463,-900.7 609,-900.7 609,-877.7 463,-877.7"/>
<polygon fill="none" stroke="#000000" points="463,-877.7 463,-900.7 609,-900.7 609,-877.7 463,-877.7"/>
<text text-anchor="start" x="467.849" y="-886.8" font-family="Helvetica,sans-Serif" font-weight="bold" font-size="11.00" fill="#000000">email_addr_bean_rel</text>
<text text-anchor="start" x="574.5219" y="-885.8" font-family="Helvetica,sans-Serif" font-size="11.00" fill="#000000">[table]</text>
<polygon fill="none" stroke="#000000" points="463,-858.7 463,-877.7 609,-877.7 609,-858.7 463,-858.7"/>
<text text-anchor="start" x="466" y="-864.8" font-family="Helvetica,sans-Serif" font-size="11.00" fill="#000000">...</text>
<polygon fill="#ffffff" stroke="transparent" points="463,-839.7 463,-858.7 534,-858.7 534,-839.7 463,-839.7"/>
<polygon fill="none" stroke="#000000" points="463,-839.7 463,-858.7 534,-858.7 534,-839.7 463,-839.7"/>
<text text-anchor="start" x="466" y="-845.8" font-family="Helvetica,sans-Serif" font-size="11.00" fill="#000000">&lt; 6</text>
<polygon fill="#ffffff" stroke="transparent" points="534,-839.7 534,-858.7 571,-858.7 571,-839.7 534,-839.7"/>
<polygon fill="none" stroke="#000000" points="534,-839.7 534,-858.7 571,-858.7 571,-839.7 534,-839.7"/>
<text text-anchor="start" x="561.8862" y="-845.8" font-family="Helvetica,sans-Serif" font-size="11.00" fill="#000000"> &#160;</text>
<polygon fill="#ffffff" stroke="transparent" points="571,-839.7 571,-858.7 609,-858.7 609,-839.7 571,-839.7"/>
<polygon fill="none" stroke="#000000" points="571,-839.7 571,-858.7 609,-858.7 609,-839.7 571,-839.7"/>
<text text-anchor="start" x="599.8862" y="-845.8" font-family="Helvetica,sans-Serif" font-size="11.00" fill="#000000"> &#160;</text>
</a>
</g>
</g>
<!-- email_addr_bean_rel&#45;&gt;users -->
<g id="edge5" class="edge">
<title>email_addr_bean_rel:w&#45;&gt;users:e</title>
<path fill="none" stroke="#000000" d="M448.5422,-864.7391C437.0892,-859.0127 433.2984,-845.5753 425,-829.7 401.1521,-784.0776 435.4793,-601.7 384,-601.7"/>
<polygon fill="#000000" stroke="#000000" points="455.1627,-866.0949 462.2777,-871.2268 459.0813,-866.8975 463,-867.7 463,-867.7 463,-867.7 459.0813,-866.8975 463.7223,-864.1732 455.1627,-866.0949 455.1627,-866.0949"/>
<ellipse fill="none" stroke="#000000" cx="452.0277" cy="-865.4529" rx="3.2" ry="3.2"/>
</g>
<!-- emails_beans -->
<g id="node7" class="node">
<title>emails_beans</title>
<g id="a_node7"><a xlink:href="../../tables/emails_beans.html" xlink:title="emails_beans" target="_top">
<polygon fill="#ffffff" stroke="transparent" points="481,-758.2 481,-819.2 591,-819.2 591,-758.2 481,-758.2"/>
<polygon fill="#f5f5f5" stroke="transparent" points="481,-795.7 481,-818.7 591,-818.7 591,-795.7 481,-795.7"/>
<polygon fill="none" stroke="#000000" points="481,-795.7 481,-818.7 591,-818.7 591,-795.7 481,-795.7"/>
<text text-anchor="start" x="485.576" y="-804.8" font-family="Helvetica,sans-Serif" font-weight="bold" font-size="11.00" fill="#000000">emails_beans</text>
<text text-anchor="start" x="556.5219" y="-803.8" font-family="Helvetica,sans-Serif" font-size="11.00" fill="#000000">[table]</text>
<polygon fill="none" stroke="#000000" points="481,-776.7 481,-795.7 591,-795.7 591,-776.7 481,-776.7"/>
<text text-anchor="start" x="484" y="-782.8" font-family="Helvetica,sans-Serif" font-size="11.00" fill="#000000">...</text>
<polygon fill="#ffffff" stroke="transparent" points="481,-757.7 481,-776.7 537,-776.7 537,-757.7 481,-757.7"/>
<polygon fill="none" stroke="#000000" points="481,-757.7 481,-776.7 537,-776.7 537,-757.7 481,-757.7"/>
<text text-anchor="start" x="484" y="-763.8" font-family="Helvetica,sans-Serif" font-size="11.00" fill="#000000">&lt; 14</text>
<polygon fill="#ffffff" stroke="transparent" points="537,-757.7 537,-776.7 564,-776.7 564,-757.7 537,-757.7"/>
<polygon fill="none" stroke="#000000" points="537,-757.7 537,-776.7 564,-776.7 564,-757.7 537,-757.7"/>
<text text-anchor="start" x="554.8862" y="-763.8" font-family="Helvetica,sans-Serif" font-size="11.00" fill="#000000"> &#160;</text>
<polygon fill="#ffffff" stroke="transparent" points="564,-757.7 564,-776.7 591,-776.7 591,-757.7 564,-757.7"/>
<polygon fill="none" stroke="#000000" points="564,-757.7 564,-776.7 591,-776.7 591,-757.7 564,-757.7"/>
<text text-anchor="start" x="581.8862" y="-763.8" font-family="Helvetica,sans-Serif" font-size="11.00" fill="#000000"> &#160;</text>
</a>
</g>
</g>
<!-- emails_beans&#45;&gt;users -->
<g id="edge6" class="edge">
<title>emails_beans:w&#45;&gt;users:e</title>
<path fill="none" stroke="#000000" d="M466.4397,-784.3426C447.5471,-780.3442 439.3514,-767.6257 425,-747.7 385.6097,-693.0098 451.3989,-601.7 384,-601.7"/>
<polygon fill="#000000" stroke="#000000" points="473.0345,-784.9574 480.6658,-789.2845 477.0173,-785.3287 481,-785.7 481,-785.7 481,-785.7 477.0173,-785.3287 481.3342,-782.1155 473.0345,-784.9574 473.0345,-784.9574"/>
<ellipse fill="none" stroke="#000000" cx="469.8484" cy="-784.6603" rx="3.2" ry="3.2"/>
</g>
<!-- favorites -->
<g id="node8" class="node">
<title>favorites</title>
<g id="a_node8"><a xlink:href="../../tables/favorites.html" xlink:title="favorites" target="_top">
<polygon fill="#ffffff" stroke="transparent" points="433,-448.7 433,-736.7 639,-736.7 639,-448.7 433,-448.7"/>
<polygon fill="#f5f5f5" stroke="transparent" points="435,-711.7 435,-734.7 637,-734.7 637,-711.7 435,-711.7"/>
<polygon fill="none" stroke="#000000" points="435,-711.7 435,-734.7 637,-734.7 637,-711.7 435,-711.7"/>
<text text-anchor="start" x="440" y="-720.8" font-family="Helvetica,sans-Serif" font-weight="bold" font-size="11.00" fill="#000000">favorites</text>
<text text-anchor="start" x="602.0437" y="-719.8" font-family="Helvetica,sans-Serif" font-size="11.00" fill="#000000">[table]</text>
<polygon fill="none" stroke="#000000" points="435,-689.7 435,-711.7 570,-711.7 570,-689.7 435,-689.7"/>
<image xlink:href="../../images/primaryKeys.png" width="11px" height="12px" preserveAspectRatio="xMinYMin meet" x="440" y="-706.7"/>
<text text-anchor="start" x="455" y="-696.8" font-family="Helvetica,sans-Serif" font-size="11.00" fill="#000000">id</text>
<polygon fill="none" stroke="#000000" points="570,-689.7 570,-711.7 637,-711.7 637,-689.7 570,-689.7"/>
<text text-anchor="start" x="573" y="-697.4" font-family="Helvetica,sans-Serif" font-size="11.00" fill="#000000">char[36]</text>
<polygon fill="none" stroke="#000000" points="435,-667.7 435,-689.7 570,-689.7 570,-667.7 435,-667.7"/>
<text text-anchor="start" x="455" y="-674.8" font-family="Helvetica,sans-Serif" font-size="11.00" fill="#000000">name</text>
<polygon fill="none" stroke="#000000" points="570,-667.7 570,-689.7 637,-689.7 637,-667.7 570,-667.7"/>
<text text-anchor="start" x="572.9365" y="-675.4" font-family="Helvetica,sans-Serif" font-size="11.00" fill="#000000">varchar[255]</text>
<polygon fill="none" stroke="#000000" points="435,-645.7 435,-667.7 570,-667.7 570,-645.7 435,-645.7"/>
<text text-anchor="start" x="455" y="-652.8" font-family="Helvetica,sans-Serif" font-size="11.00" fill="#000000">date_entered</text>
<polygon fill="none" stroke="#000000" points="570,-645.7 570,-667.7 637,-667.7 637,-645.7 570,-645.7"/>
<text text-anchor="start" x="573" y="-653.4" font-family="Helvetica,sans-Serif" font-size="11.00" fill="#000000">datetime[26]</text>
<polygon fill="none" stroke="#000000" points="435,-623.7 435,-645.7 570,-645.7 570,-623.7 435,-623.7"/>
<text text-anchor="start" x="455" y="-630.8" font-family="Helvetica,sans-Serif" font-size="11.00" fill="#000000">date_modified</text>
<polygon fill="none" stroke="#000000" points="570,-623.7 570,-645.7 637,-645.7 637,-623.7 570,-623.7"/>
<text text-anchor="start" x="573" y="-631.4" font-family="Helvetica,sans-Serif" font-size="11.00" fill="#000000">datetime[26]</text>
<polygon fill="none" stroke="#000000" points="435,-601.7 435,-623.7 570,-623.7 570,-601.7 435,-601.7"/>
<image xlink:href="../../images/foreignKeys.png" width="11px" height="12px" preserveAspectRatio="xMinYMin meet" x="440" y="-618.7"/>
<text text-anchor="start" x="455" y="-608.8" font-family="Helvetica,sans-Serif" font-size="11.00" fill="#000000">modified_user_id</text>
<polygon fill="none" stroke="#000000" points="570,-601.7 570,-623.7 637,-623.7 637,-601.7 570,-601.7"/>
<text text-anchor="start" x="573" y="-609.4" font-family="Helvetica,sans-Serif" font-size="11.00" fill="#000000">char[36]</text>
<polygon fill="none" stroke="#000000" points="435,-579.7 435,-601.7 570,-601.7 570,-579.7 435,-579.7"/>
<image xlink:href="../../images/foreignKeys.png" width="11px" height="12px" preserveAspectRatio="xMinYMin meet" x="440" y="-596.7"/>
<text text-anchor="start" x="455" y="-586.8" font-family="Helvetica,sans-Serif" font-size="11.00" fill="#000000">created_by</text>
<polygon fill="none" stroke="#000000" points="570,-579.7 570,-601.7 637,-601.7 637,-579.7 570,-579.7"/>
<text text-anchor="start" x="573" y="-587.4" font-family="Helvetica,sans-Serif" font-size="11.00" fill="#000000">char[36]</text>
<polygon fill="none" stroke="#000000" points="435,-557.7 435,-579.7 570,-579.7 570,-557.7 435,-557.7"/>
<text text-anchor="start" x="455" y="-564.8" font-family="Helvetica,sans-Serif" font-size="11.00" fill="#000000">description</text>
<polygon fill="none" stroke="#000000" points="570,-557.7 570,-579.7 637,-579.7 637,-557.7 570,-557.7"/>
<text text-anchor="start" x="573" y="-565.4" font-family="Helvetica,sans-Serif" font-size="11.00" fill="#000000">text[65535]</text>
<polygon fill="none" stroke="#000000" points="435,-535.7 435,-557.7 570,-557.7 570,-535.7 435,-535.7"/>
<text text-anchor="start" x="455" y="-542.8" font-family="Helvetica,sans-Serif" font-size="11.00" fill="#000000">deleted</text>
<polygon fill="none" stroke="#000000" points="570,-535.7 570,-557.7 637,-557.7 637,-535.7 570,-535.7"/>
<text text-anchor="start" x="573" y="-543.4" font-family="Helvetica,sans-Serif" font-size="11.00" fill="#000000">bit[1]</text>
<polygon fill="none" stroke="#000000" points="435,-513.7 435,-535.7 570,-535.7 570,-513.7 435,-513.7"/>
<image xlink:href="../../images/foreignKeys.png" width="11px" height="12px" preserveAspectRatio="xMinYMin meet" x="440" y="-530.7"/>
<text text-anchor="start" x="455" y="-520.8" font-family="Helvetica,sans-Serif" font-size="11.00" fill="#000000">assigned_user_id</text>
<polygon fill="none" stroke="#000000" points="570,-513.7 570,-535.7 637,-535.7 637,-513.7 570,-513.7"/>
<text text-anchor="start" x="573" y="-521.4" font-family="Helvetica,sans-Serif" font-size="11.00" fill="#000000">char[36]</text>
<polygon fill="none" stroke="#000000" points="435,-491.7 435,-513.7 570,-513.7 570,-491.7 435,-491.7"/>
<text text-anchor="start" x="455" y="-498.8" font-family="Helvetica,sans-Serif" font-size="11.00" fill="#000000">parent_id</text>
<polygon fill="none" stroke="#000000" points="570,-491.7 570,-513.7 637,-513.7 637,-491.7 570,-491.7"/>
<text text-anchor="start" x="573" y="-499.4" font-family="Helvetica,sans-Serif" font-size="11.00" fill="#000000">char[36]</text>
<polygon fill="none" stroke="#000000" points="435,-469.7 435,-491.7 570,-491.7 570,-469.7 435,-469.7"/>
<text text-anchor="start" x="455" y="-476.8" font-family="Helvetica,sans-Serif" font-size="11.00" fill="#000000">parent_type</text>
<polygon fill="none" stroke="#000000" points="570,-469.7 570,-491.7 637,-491.7 637,-469.7 570,-469.7"/>
<text text-anchor="start" x="572.9365" y="-477.4" font-family="Helvetica,sans-Serif" font-size="11.00" fill="#000000">varchar[255]</text>
<polygon fill="#ffffff" stroke="transparent" points="435,-450.7 435,-469.7 507,-469.7 507,-450.7 435,-450.7"/>
<polygon fill="none" stroke="#000000" points="435,-450.7 435,-469.7 507,-469.7 507,-450.7 435,-450.7"/>
<text text-anchor="start" x="438" y="-456.8" font-family="Helvetica,sans-Serif" font-size="11.00" fill="#000000">&lt; 3</text>
<polygon fill="#ffffff" stroke="transparent" points="507,-450.7 507,-469.7 570,-469.7 570,-450.7 507,-450.7"/>
<polygon fill="none" stroke="#000000" points="507,-450.7 507,-469.7 570,-469.7 570,-450.7 507,-450.7"/>
<text text-anchor="start" x="560.8862" y="-456.8" font-family="Helvetica,sans-Serif" font-size="11.00" fill="#000000"> &#160;</text>
<polygon fill="#ffffff" stroke="transparent" points="570,-450.7 570,-469.7 637,-469.7 637,-450.7 570,-450.7"/>
<polygon fill="none" stroke="#000000" points="570,-450.7 570,-469.7 637,-469.7 637,-450.7 570,-450.7"/>
<text text-anchor="start" x="618.4053" y="-456.8" font-family="Helvetica,sans-Serif" font-size="11.00" fill="#000000">0 &gt;</text>
<polygon fill="none" stroke="#000000" stroke-width="2" points="434,-449.7 434,-735.7 638,-735.7 638,-449.7 434,-449.7"/>
</a>
</g>
</g>
<!-- favorites&#45;&gt;users -->
<g id="edge7" class="edge">
<title>favorites:w&#45;&gt;users:e</title>
<path fill="none" stroke="#000000" d="M421.0177,-529.2861C401.594,-545.8628 418.9549,-601.7 384,-601.7"/>
<polygon fill="#000000" stroke="#000000" points="427.3984,-527.1933 436.122,-528.1207 431.1992,-525.9466 435,-524.7 435,-524.7 435,-524.7 431.1992,-525.9466 433.878,-521.2793 427.3984,-527.1933 427.3984,-527.1933"/>
<ellipse fill="none" stroke="#000000" cx="424.3578" cy="-528.1906" rx="3.2" ry="3.2"/>
</g>
<!-- favorites&#45;&gt;users -->
<g id="edge8" class="edge">
<title>favorites:w&#45;&gt;users:e</title>
<path fill="none" stroke="#000000" d="M420.5097,-592.4188C408.3398,-595.5125 401.3909,-601.7 384,-601.7"/>
<polygon fill="#000000" stroke="#000000" points="427.0557,-591.6424 435.4241,-594.2749 431.0278,-591.1712 435,-590.7 435,-590.7 435,-590.7 431.0278,-591.1712 434.5759,-587.1251 427.0557,-591.6424 427.0557,-591.6424"/>
<ellipse fill="none" stroke="#000000" cx="423.878" cy="-592.0193" rx="3.2" ry="3.2"/>
</g>
<!-- favorites&#45;&gt;users -->
<g id="edge9" class="edge">
<title>favorites:w&#45;&gt;users:e</title>
<path fill="none" stroke="#000000" d="M420.5097,-610.9813C408.3398,-607.8875 401.3909,-601.7 384,-601.7"/>
<polygon fill="#000000" stroke="#000000" points="427.0557,-611.7576 434.5759,-616.2749 431.0278,-612.2288 435,-612.7 435,-612.7 435,-612.7 431.0278,-612.2288 435.4241,-609.1251 427.0557,-611.7576 427.0557,-611.7576"/>
<ellipse fill="none" stroke="#000000" cx="423.878" cy="-611.3807" rx="3.2" ry="3.2"/>
</g>
<!-- meetings_users -->
<g id="node9" class="node">
<title>meetings_users</title>
<g id="a_node9"><a xlink:href="../../tables/meetings_users.html" xlink:title="meetings_users" target="_top">
<polygon fill="#ffffff" stroke="transparent" points="476,-366.2 476,-427.2 596,-427.2 596,-366.2 476,-366.2"/>
<polygon fill="#f5f5f5" stroke="transparent" points="476,-403.7 476,-426.7 596,-426.7 596,-403.7 476,-403.7"/>
<polygon fill="none" stroke="#000000" points="476,-403.7 476,-426.7 596,-426.7 596,-403.7 476,-403.7"/>
<text text-anchor="start" x="480.6871" y="-412.8" font-family="Helvetica,sans-Serif" font-weight="bold" font-size="11.00" fill="#000000">meetings_users</text>
<text text-anchor="start" x="561.5219" y="-411.8" font-family="Helvetica,sans-Serif" font-size="11.00" fill="#000000">[table]</text>
<polygon fill="none" stroke="#000000" points="476,-384.7 476,-403.7 596,-403.7 596,-384.7 476,-384.7"/>
<text text-anchor="start" x="479" y="-390.8" font-family="Helvetica,sans-Serif" font-size="11.00" fill="#000000">...</text>
<polygon fill="#ffffff" stroke="transparent" points="476,-365.7 476,-384.7 534,-384.7 534,-365.7 476,-365.7"/>
<polygon fill="none" stroke="#000000" points="476,-365.7 476,-384.7 534,-384.7 534,-365.7 476,-365.7"/>
<text text-anchor="start" x="479" y="-371.8" font-family="Helvetica,sans-Serif" font-size="11.00" fill="#000000">&lt; 2</text>
<polygon fill="#ffffff" stroke="transparent" points="534,-365.7 534,-384.7 565,-384.7 565,-365.7 534,-365.7"/>
<polygon fill="none" stroke="#000000" points="534,-365.7 534,-384.7 565,-384.7 565,-365.7 534,-365.7"/>
<text text-anchor="start" x="555.8862" y="-371.8" font-family="Helvetica,sans-Serif" font-size="11.00" fill="#000000"> &#160;</text>
<polygon fill="#ffffff" stroke="transparent" points="565,-365.7 565,-384.7 596,-384.7 596,-365.7 565,-365.7"/>
<polygon fill="none" stroke="#000000" points="565,-365.7 565,-384.7 596,-384.7 596,-365.7 565,-365.7"/>
<text text-anchor="start" x="586.8862" y="-371.8" font-family="Helvetica,sans-Serif" font-size="11.00" fill="#000000"> &#160;</text>
</a>
</g>
</g>
<!-- meetings_users&#45;&gt;users -->
<g id="edge10" class="edge">
<title>meetings_users:w&#45;&gt;users:e</title>
<path fill="none" stroke="#000000" d="M461.6752,-395.5622C443.5586,-400.9676 437.8387,-417.6235 425,-438.7 386.1383,-502.4967 458.7011,-601.7 384,-601.7"/>
<polygon fill="#000000" stroke="#000000" points="468.0668,-394.7314 476.4641,-397.27 472.0334,-394.2157 476,-393.7 476,-393.7 476,-393.7 472.0334,-394.2157 475.5359,-390.13 468.0668,-394.7314 468.0668,-394.7314"/>
<ellipse fill="none" stroke="#000000" cx="464.8935" cy="-395.1439" rx="3.2" ry="3.2"/>
</g>
<!-- project_users_1_c -->
<g id="node10" class="node">
<title>project_users_1_c</title>
<g id="a_node10"><a xlink:href="../../tables/project_users_1_c.html" xlink:title="project_users_1_c" target="_top">
<polygon fill="#ffffff" stroke="transparent" points="470,-284.2 470,-345.2 602,-345.2 602,-284.2 470,-284.2"/>
<polygon fill="#f5f5f5" stroke="transparent" points="470,-321.7 470,-344.7 602,-344.7 602,-321.7 470,-321.7"/>
<polygon fill="none" stroke="#000000" points="470,-321.7 470,-344.7 602,-344.7 602,-321.7 470,-321.7"/>
<text text-anchor="start" x="474.5722" y="-330.8" font-family="Helvetica,sans-Serif" font-weight="bold" font-size="11.00" fill="#000000">project_users_1_c</text>
<text text-anchor="start" x="567.5219" y="-329.8" font-family="Helvetica,sans-Serif" font-size="11.00" fill="#000000">[table]</text>
<polygon fill="none" stroke="#000000" points="470,-302.7 470,-321.7 602,-321.7 602,-302.7 470,-302.7"/>
<text text-anchor="start" x="473" y="-308.8" font-family="Helvetica,sans-Serif" font-size="11.00" fill="#000000">...</text>
<polygon fill="#ffffff" stroke="transparent" points="470,-283.7 470,-302.7 534,-302.7 534,-283.7 470,-283.7"/>
<polygon fill="none" stroke="#000000" points="470,-283.7 470,-302.7 534,-302.7 534,-283.7 470,-283.7"/>
<text text-anchor="start" x="473" y="-289.8" font-family="Helvetica,sans-Serif" font-size="11.00" fill="#000000">&lt; 2</text>
<polygon fill="#ffffff" stroke="transparent" points="534,-283.7 534,-302.7 568,-302.7 568,-283.7 534,-283.7"/>
<polygon fill="none" stroke="#000000" points="534,-283.7 534,-302.7 568,-302.7 568,-283.7 534,-283.7"/>
<text text-anchor="start" x="558.8862" y="-289.8" font-family="Helvetica,sans-Serif" font-size="11.00" fill="#000000"> &#160;</text>
<polygon fill="#ffffff" stroke="transparent" points="568,-283.7 568,-302.7 602,-302.7 602,-283.7 568,-283.7"/>
<polygon fill="none" stroke="#000000" points="568,-283.7 568,-302.7 602,-302.7 602,-283.7 568,-283.7"/>
<text text-anchor="start" x="592.8862" y="-289.8" font-family="Helvetica,sans-Serif" font-size="11.00" fill="#000000"> &#160;</text>
</a>
</g>
</g>
<!-- project_users_1_c&#45;&gt;users -->
<g id="edge11" class="edge">
<title>project_users_1_c:w&#45;&gt;users:e</title>
<path fill="none" stroke="#000000" d="M455.6365,-313.9627C440.0018,-319.7313 435.3107,-335.9381 425,-355.7 399.3641,-404.8351 439.4207,-601.7 384,-601.7"/>
<polygon fill="#000000" stroke="#000000" points="462.0974,-312.9449 470.5602,-315.2561 466.0487,-312.3225 470,-311.7 470,-311.7 470,-311.7 466.0487,-312.3225 469.4398,-308.1439 462.0974,-312.9449 462.0974,-312.9449"/>
<ellipse fill="none" stroke="#000000" cx="458.9364" cy="-313.4429" rx="3.2" ry="3.2"/>
</g>
<!-- prospect_lists_prospects -->
<g id="node11" class="node">
<title>prospect_lists_prospects</title>
<g id="a_node11"><a xlink:href="../../tables/prospect_lists_prospects.html" xlink:title="prospect_lists_prospects" target="_top">
<polygon fill="#ffffff" stroke="transparent" points="454,-202.2 454,-263.2 618,-263.2 618,-202.2 454,-202.2"/>
<polygon fill="#f5f5f5" stroke="transparent" points="454,-239.7 454,-262.7 618,-262.7 618,-239.7 454,-239.7"/>
<polygon fill="none" stroke="#000000" points="454,-239.7 454,-262.7 618,-262.7 618,-239.7 454,-239.7"/>
<text text-anchor="start" x="458.9874" y="-248.8" font-family="Helvetica,sans-Serif" font-weight="bold" font-size="11.00" fill="#000000">prospect_lists_prospects</text>
<text text-anchor="start" x="583.5219" y="-247.8" font-family="Helvetica,sans-Serif" font-size="11.00" fill="#000000">[table]</text>
<polygon fill="none" stroke="#000000" points="454,-220.7 454,-239.7 618,-239.7 618,-220.7 454,-220.7"/>
<text text-anchor="start" x="457" y="-226.8" font-family="Helvetica,sans-Serif" font-size="11.00" fill="#000000">...</text>
<polygon fill="#ffffff" stroke="transparent" points="454,-201.7 454,-220.7 534,-220.7 534,-201.7 454,-201.7"/>
<polygon fill="none" stroke="#000000" points="454,-201.7 454,-220.7 534,-220.7 534,-201.7 454,-201.7"/>
<text text-anchor="start" x="457" y="-207.8" font-family="Helvetica,sans-Serif" font-size="11.00" fill="#000000">&lt; 6</text>
<polygon fill="#ffffff" stroke="transparent" points="534,-201.7 534,-220.7 576,-220.7 576,-201.7 534,-201.7"/>
<polygon fill="none" stroke="#000000" points="534,-201.7 534,-220.7 576,-220.7 576,-201.7 534,-201.7"/>
<text text-anchor="start" x="566.8862" y="-207.8" font-family="Helvetica,sans-Serif" font-size="11.00" fill="#000000"> &#160;</text>
<polygon fill="#ffffff" stroke="transparent" points="576,-201.7 576,-220.7 618,-220.7 618,-201.7 576,-201.7"/>
<polygon fill="none" stroke="#000000" points="576,-201.7 576,-220.7 618,-220.7 618,-201.7 576,-201.7"/>
<text text-anchor="start" x="608.8862" y="-207.8" font-family="Helvetica,sans-Serif" font-size="11.00" fill="#000000"> &#160;</text>
</a>
</g>
</g>
<!-- prospect_lists_prospects&#45;&gt;users -->
<g id="edge12" class="edge">
<title>prospect_lists_prospects:w&#45;&gt;users:e</title>
<path fill="none" stroke="#000000" d="M439.91,-234.1369C381.7881,-276.1078 462.6959,-601.7 384,-601.7"/>
<polygon fill="#000000" stroke="#000000" points="446.3694,-232.1029 455.0813,-233.1338 450.1847,-230.9014 454,-229.7 454,-229.7 454,-229.7 450.1847,-230.9014 452.9187,-226.2662 446.3694,-232.1029 446.3694,-232.1029"/>
<ellipse fill="none" stroke="#000000" cx="443.3171" cy="-233.0641" rx="3.2" ry="3.2"/>
</g>
<!-- roles_users -->
<g id="node12" class="node">
<title>roles_users</title>
<g id="a_node12"><a xlink:href="../../tables/roles_users.html" xlink:title="roles_users" target="_top">
<polygon fill="#ffffff" stroke="transparent" points="486.5,-120.2 486.5,-181.2 585.5,-181.2 585.5,-120.2 486.5,-120.2"/>
<polygon fill="#f5f5f5" stroke="transparent" points="487,-157.7 487,-180.7 586,-180.7 586,-157.7 487,-157.7"/>
<polygon fill="none" stroke="#000000" points="487,-157.7 487,-180.7 586,-180.7 586,-157.7 487,-157.7"/>
<text text-anchor="start" x="491.5804" y="-166.8" font-family="Helvetica,sans-Serif" font-weight="bold" font-size="11.00" fill="#000000">roles_users</text>
<text text-anchor="start" x="551.5219" y="-165.8" font-family="Helvetica,sans-Serif" font-size="11.00" fill="#000000">[table]</text>
<polygon fill="none" stroke="#000000" points="487,-138.7 487,-157.7 586,-157.7 586,-138.7 487,-138.7"/>
<text text-anchor="start" x="490" y="-144.8" font-family="Helvetica,sans-Serif" font-size="11.00" fill="#000000">...</text>
<polygon fill="#ffffff" stroke="transparent" points="487,-119.7 487,-138.7 535,-138.7 535,-119.7 487,-119.7"/>
<polygon fill="none" stroke="#000000" points="487,-119.7 487,-138.7 535,-138.7 535,-119.7 487,-119.7"/>
<text text-anchor="start" x="490" y="-125.8" font-family="Helvetica,sans-Serif" font-size="11.00" fill="#000000">&lt; 2</text>
<polygon fill="#ffffff" stroke="transparent" points="535,-119.7 535,-138.7 560,-138.7 560,-119.7 535,-119.7"/>
<polygon fill="none" stroke="#000000" points="535,-119.7 535,-138.7 560,-138.7 560,-119.7 535,-119.7"/>
<text text-anchor="start" x="550.8862" y="-125.8" font-family="Helvetica,sans-Serif" font-size="11.00" fill="#000000"> &#160;</text>
<polygon fill="#ffffff" stroke="transparent" points="560,-119.7 560,-138.7 586,-138.7 586,-119.7 560,-119.7"/>
<polygon fill="none" stroke="#000000" points="560,-119.7 560,-138.7 586,-138.7 586,-119.7 560,-119.7"/>
<text text-anchor="start" x="576.8862" y="-125.8" font-family="Helvetica,sans-Serif" font-size="11.00" fill="#000000"> &#160;</text>
</a>
</g>
</g>
<!-- roles_users&#45;&gt;users -->
<g id="edge13" class="edge">
<title>roles_users:w&#45;&gt;users:e</title>
<path fill="none" stroke="#000000" d="M472.3851,-148.8365C449.4667,-152.807 439.2635,-167.1673 425,-191.7 401.9883,-231.2793 429.7828,-601.7 384,-601.7"/>
<polygon fill="#000000" stroke="#000000" points="479.0241,-148.3203 487.2791,-151.2892 483.012,-148.0101 487,-147.7 487,-147.7 487,-147.7 483.012,-148.0101 486.7209,-144.1108 479.0241,-148.3203 479.0241,-148.3203"/>
<ellipse fill="none" stroke="#000000" cx="475.8337" cy="-148.5684" rx="3.2" ry="3.2"/>
</g>
<!-- securitygroups_users -->
<g id="node13" class="node">
<title>securitygroups_users</title>
<g id="a_node13"><a xlink:href="../../tables/securitygroups_users.html" xlink:title="securitygroups_users" target="_top">
<polygon fill="#ffffff" stroke="transparent" points="462.5,-38.2 462.5,-99.2 609.5,-99.2 609.5,-38.2 462.5,-38.2"/>
<polygon fill="#f5f5f5" stroke="transparent" points="463,-75.7 463,-98.7 610,-98.7 610,-75.7 463,-75.7"/>
<polygon fill="none" stroke="#000000" points="463,-75.7 463,-98.7 610,-98.7 610,-75.7 463,-75.7"/>
<text text-anchor="start" x="467.7412" y="-84.8" font-family="Helvetica,sans-Serif" font-weight="bold" font-size="11.00" fill="#000000">securitygroups_users</text>
<text text-anchor="start" x="575.5219" y="-83.8" font-family="Helvetica,sans-Serif" font-size="11.00" fill="#000000">[table]</text>
<polygon fill="none" stroke="#000000" points="463,-56.7 463,-75.7 610,-75.7 610,-56.7 463,-56.7"/>
<text text-anchor="start" x="466" y="-62.8" font-family="Helvetica,sans-Serif" font-size="11.00" fill="#000000">...</text>
<polygon fill="#ffffff" stroke="transparent" points="463,-37.7 463,-56.7 535,-56.7 535,-37.7 463,-37.7"/>
<polygon fill="none" stroke="#000000" points="463,-37.7 463,-56.7 535,-56.7 535,-37.7 463,-37.7"/>
<text text-anchor="start" x="466" y="-43.8" font-family="Helvetica,sans-Serif" font-size="11.00" fill="#000000">&lt; 2</text>
<polygon fill="#ffffff" stroke="transparent" points="535,-37.7 535,-56.7 572,-56.7 572,-37.7 535,-37.7"/>
<polygon fill="none" stroke="#000000" points="535,-37.7 535,-56.7 572,-56.7 572,-37.7 535,-37.7"/>
<text text-anchor="start" x="562.8862" y="-43.8" font-family="Helvetica,sans-Serif" font-size="11.00" fill="#000000"> &#160;</text>
<polygon fill="#ffffff" stroke="transparent" points="572,-37.7 572,-56.7 610,-56.7 610,-37.7 572,-37.7"/>
<polygon fill="none" stroke="#000000" points="572,-37.7 572,-56.7 610,-56.7 610,-37.7 572,-37.7"/>
<text text-anchor="start" x="600.8862" y="-43.8" font-family="Helvetica,sans-Serif" font-size="11.00" fill="#000000"> &#160;</text>
</a>
</g>
</g>
<!-- securitygroups_users&#45;&gt;users -->
<g id="edge14" class="edge">
<title>securitygroups_users:w&#45;&gt;users:e</title>
<path fill="none" stroke="#000000" d="M448.7183,-68.615C435.7824,-75.0302 432.741,-91.2753 425,-109.7 403.7518,-160.2738 438.8562,-601.7 384,-601.7"/>
<polygon fill="#000000" stroke="#000000" points="455.1616,-67.2999 463.72,-69.2273 459.0808,-66.4999 463,-65.7 463,-65.7 463,-65.7 459.0808,-66.4999 462.28,-62.1727 455.1616,-67.2999 455.1616,-67.2999"/>
<ellipse fill="none" stroke="#000000" cx="452.0262" cy="-67.9399" rx="3.2" ry="3.2"/>
</g>
</g>
</svg>
