<?xml version="1.0" encoding="UTF-8" standalone="no"?>
<!DOCTYPE svg PUBLIC "-//W3C//DTD SVG 1.1//EN"
 "http://www.w3.org/Graphics/SVG/1.1/DTD/svg11.dtd">
<!-- Generated by graphviz version 2.40.1 (20161225.0304)
 -->
<!-- Title: twoDegreesRelationshipsDiagram Pages: 1 -->
<svg width="684pt" height="617pt"
 viewBox="0.00 0.00 684.00 617.20" xmlns="http://www.w3.org/2000/svg" xmlns:xlink="http://www.w3.org/1999/xlink">
<g id="graph0" class="graph" transform="scale(1 1) rotate(0) translate(4 613.2)">
<title>twoDegreesRelationshipsDiagram</title>
<polygon fill="#ffffff" stroke="transparent" points="-4,4 -4,-613.2 680,-613.2 680,4 -4,4"/>
<text text-anchor="middle" x="72.4936" y="-7.3" font-family="Helvetica,sans-Serif" font-size="11.00" fill="#000000">Generated by SchemaSpy</text>
<!-- fp_event_locations_fp_events_1_c -->
<g id="node1" class="node">
<title>fp_event_locations_fp_events_1_c</title>
<g id="a_node1"><a xlink:href="../../tables/fp_event_locations_fp_events_1_c.html" xlink:title="fp_event_locations_fp_events_1_c" target="_top">
<polygon fill="#ffffff" stroke="transparent" points="334.5,-544.2 334.5,-605.2 546.5,-605.2 546.5,-544.2 334.5,-544.2"/>
<polygon fill="#f5f5f5" stroke="transparent" points="334.5,-581.7 334.5,-604.7 546.5,-604.7 546.5,-581.7 334.5,-581.7"/>
<polygon fill="none" stroke="#000000" points="334.5,-581.7 334.5,-604.7 546.5,-604.7 546.5,-581.7 334.5,-581.7"/>
<text text-anchor="start" x="339.3253" y="-590.8" font-family="Helvetica,sans-Serif" font-weight="bold" font-size="11.00" fill="#000000">fp_event_locations_fp_events_1_c</text>
<text text-anchor="start" x="512.0219" y="-589.8" font-family="Helvetica,sans-Serif" font-size="11.00" fill="#000000">[table]</text>
<polygon fill="none" stroke="#000000" points="334.5,-562.7 334.5,-581.7 546.5,-581.7 546.5,-562.7 334.5,-562.7"/>
<text text-anchor="start" x="337.5" y="-568.8" font-family="Helvetica,sans-Serif" font-size="11.00" fill="#000000">...</text>
<polygon fill="#ffffff" stroke="transparent" points="334.5,-543.7 334.5,-562.7 438.5,-562.7 438.5,-543.7 334.5,-543.7"/>
<polygon fill="none" stroke="#000000" points="334.5,-543.7 334.5,-562.7 438.5,-562.7 438.5,-543.7 334.5,-543.7"/>
<text text-anchor="start" x="337.5" y="-549.8" font-family="Helvetica,sans-Serif" font-size="11.00" fill="#000000">&lt; 2</text>
<polygon fill="#ffffff" stroke="transparent" points="438.5,-543.7 438.5,-562.7 492.5,-562.7 492.5,-543.7 438.5,-543.7"/>
<polygon fill="none" stroke="#000000" points="438.5,-543.7 438.5,-562.7 492.5,-562.7 492.5,-543.7 438.5,-543.7"/>
<text text-anchor="start" x="483.3862" y="-549.8" font-family="Helvetica,sans-Serif" font-size="11.00" fill="#000000"> &#160;</text>
<polygon fill="#ffffff" stroke="transparent" points="492.5,-543.7 492.5,-562.7 546.5,-562.7 546.5,-543.7 492.5,-543.7"/>
<polygon fill="none" stroke="#000000" points="492.5,-543.7 492.5,-562.7 546.5,-562.7 546.5,-543.7 492.5,-543.7"/>
<text text-anchor="start" x="537.3862" y="-549.8" font-family="Helvetica,sans-Serif" font-size="11.00" fill="#000000"> &#160;</text>
</a>
</g>
</g>
<!-- fp_event_locations -->
<g id="node2" class="node">
<title>fp_event_locations</title>
<g id="a_node2"><a xlink:href="../../tables/fp_event_locations.html" xlink:title="fp_event_locations" target="_top">
<polygon fill="#ffffff" stroke="transparent" points="9,-285.2 9,-434.2 163,-434.2 163,-285.2 9,-285.2"/>
<polygon fill="#f5f5f5" stroke="transparent" points="9,-410.7 9,-433.7 163,-433.7 163,-410.7 9,-410.7"/>
<polygon fill="none" stroke="#000000" points="9,-410.7 9,-433.7 163,-433.7 163,-410.7 9,-410.7"/>
<text text-anchor="start" x="14" y="-419.8" font-family="Helvetica,sans-Serif" font-weight="bold" font-size="11.00" fill="#000000">fp_event_locations</text>
<text text-anchor="start" x="128.0437" y="-418.8" font-family="Helvetica,sans-Serif" font-size="11.00" fill="#000000">[table]</text>
<polygon fill="none" stroke="#000000" points="9,-388.7 9,-410.7 163,-410.7 163,-388.7 9,-388.7"/>
<image xlink:href="../../images/primaryKeys.png" width="11px" height="12px" preserveAspectRatio="xMinYMin meet" x="14" y="-405.7"/>
<text text-anchor="start" x="29" y="-395.8" font-family="Helvetica,sans-Serif" font-size="11.00" fill="#000000">id</text>
<polygon fill="#c0c0c0" stroke="transparent" points="9,-366.7 9,-388.7 163,-388.7 163,-366.7 9,-366.7"/>
<polygon fill="none" stroke="#000000" points="9,-366.7 9,-388.7 163,-388.7 163,-366.7 9,-366.7"/>
<image xlink:href="../../images/foreignKeys.png" width="11px" height="12px" preserveAspectRatio="xMinYMin meet" x="14" y="-383.7"/>
<text text-anchor="start" x="29" y="-373.8" font-family="Helvetica,sans-Serif" font-size="11.00" fill="#000000">modified_user_id</text>
<polygon fill="#c0c0c0" stroke="transparent" points="9,-344.7 9,-366.7 163,-366.7 163,-344.7 9,-344.7"/>
<polygon fill="none" stroke="#000000" points="9,-344.7 9,-366.7 163,-366.7 163,-344.7 9,-344.7"/>
<image xlink:href="../../images/foreignKeys.png" width="11px" height="12px" preserveAspectRatio="xMinYMin meet" x="14" y="-361.7"/>
<text text-anchor="start" x="29" y="-351.8" font-family="Helvetica,sans-Serif" font-size="11.00" fill="#000000">created_by</text>
<polygon fill="#c0c0c0" stroke="transparent" points="9,-322.7 9,-344.7 163,-344.7 163,-322.7 9,-322.7"/>
<polygon fill="none" stroke="#000000" points="9,-322.7 9,-344.7 163,-344.7 163,-322.7 9,-322.7"/>
<image xlink:href="../../images/foreignKeys.png" width="11px" height="12px" preserveAspectRatio="xMinYMin meet" x="14" y="-339.7"/>
<text text-anchor="start" x="29" y="-329.8" font-family="Helvetica,sans-Serif" font-size="11.00" fill="#000000">assigned_user_id</text>
<polygon fill="none" stroke="#000000" points="9,-303.7 9,-322.7 163,-322.7 163,-303.7 9,-303.7"/>
<text text-anchor="start" x="12" y="-309.8" font-family="Helvetica,sans-Serif" font-size="11.00" fill="#000000">...</text>
<polygon fill="#ffffff" stroke="transparent" points="9,-284.7 9,-303.7 80,-303.7 80,-284.7 9,-284.7"/>
<polygon fill="none" stroke="#000000" points="9,-284.7 9,-303.7 80,-303.7 80,-284.7 9,-284.7"/>
<text text-anchor="start" x="12" y="-290.8" font-family="Helvetica,sans-Serif" font-size="11.00" fill="#000000">&lt; 3</text>
<polygon fill="#ffffff" stroke="transparent" points="80,-284.7 80,-303.7 117,-303.7 117,-284.7 80,-284.7"/>
<polygon fill="none" stroke="#000000" points="80,-284.7 80,-303.7 117,-303.7 117,-284.7 80,-284.7"/>
<text text-anchor="start" x="107.8862" y="-290.8" font-family="Helvetica,sans-Serif" font-size="11.00" fill="#000000"> &#160;</text>
<polygon fill="#ffffff" stroke="transparent" points="117,-284.7 117,-303.7 163,-303.7 163,-284.7 117,-284.7"/>
<polygon fill="none" stroke="#000000" points="117,-284.7 117,-303.7 163,-303.7 163,-284.7 117,-284.7"/>
<text text-anchor="start" x="144.4053" y="-290.8" font-family="Helvetica,sans-Serif" font-size="11.00" fill="#000000">4 &gt;</text>
</a>
</g>
</g>
<!-- fp_event_locations_fp_events_1_c&#45;&gt;fp_event_locations -->
<g id="edge1" class="edge">
<title>fp_event_locations_fp_events_1_c:w&#45;&gt;fp_event_locations:e</title>
<path fill="none" stroke="#000000" d="M320.0619,-571.7555C269.9166,-572.0511 244.2058,-572.1945 205,-533.7 160.4656,-489.9736 225.4124,-399.7 163,-399.7"/>
<polygon fill="#000000" stroke="#000000" points="326.5001,-571.7308 334.5139,-575.3 330.5,-571.7154 334.5,-571.7 334.5,-571.7 334.5,-571.7 330.5,-571.7154 334.4861,-568.1 326.5001,-571.7308 326.5001,-571.7308"/>
<ellipse fill="none" stroke="#000000" cx="323.3001" cy="-571.7431" rx="3.2" ry="3.2"/>
</g>
<!-- fp_events -->
<g id="node3" class="node">
<title>fp_events</title>
<g id="a_node3"><a xlink:href="../../tables/fp_events.html" xlink:title="fp_events" target="_top">
<polygon fill="#ffffff" stroke="transparent" points="8,-115.2 8,-264.2 164,-264.2 164,-115.2 8,-115.2"/>
<polygon fill="#f5f5f5" stroke="transparent" points="8,-240.7 8,-263.7 164,-263.7 164,-240.7 8,-240.7"/>
<polygon fill="none" stroke="#000000" points="8,-240.7 8,-263.7 164,-263.7 164,-240.7 8,-240.7"/>
<text text-anchor="start" x="13" y="-249.8" font-family="Helvetica,sans-Serif" font-weight="bold" font-size="11.00" fill="#000000">fp_events</text>
<text text-anchor="start" x="129.0437" y="-248.8" font-family="Helvetica,sans-Serif" font-size="11.00" fill="#000000">[table]</text>
<polygon fill="none" stroke="#000000" points="8,-218.7 8,-240.7 164,-240.7 164,-218.7 8,-218.7"/>
<image xlink:href="../../images/primaryKeys.png" width="11px" height="12px" preserveAspectRatio="xMinYMin meet" x="13" y="-235.7"/>
<text text-anchor="start" x="28" y="-225.8" font-family="Helvetica,sans-Serif" font-size="11.00" fill="#000000">id</text>
<polygon fill="#c0c0c0" stroke="transparent" points="8,-196.7 8,-218.7 164,-218.7 164,-196.7 8,-196.7"/>
<polygon fill="none" stroke="#000000" points="8,-196.7 8,-218.7 164,-218.7 164,-196.7 8,-196.7"/>
<image xlink:href="../../images/foreignKeys.png" width="11px" height="12px" preserveAspectRatio="xMinYMin meet" x="13" y="-213.7"/>
<text text-anchor="start" x="28" y="-203.8" font-family="Helvetica,sans-Serif" font-size="11.00" fill="#000000">modified_user_id</text>
<polygon fill="#c0c0c0" stroke="transparent" points="8,-174.7 8,-196.7 164,-196.7 164,-174.7 8,-174.7"/>
<polygon fill="none" stroke="#000000" points="8,-174.7 8,-196.7 164,-196.7 164,-174.7 8,-174.7"/>
<image xlink:href="../../images/foreignKeys.png" width="11px" height="12px" preserveAspectRatio="xMinYMin meet" x="13" y="-191.7"/>
<text text-anchor="start" x="28" y="-181.8" font-family="Helvetica,sans-Serif" font-size="11.00" fill="#000000">created_by</text>
<polygon fill="#c0c0c0" stroke="transparent" points="8,-152.7 8,-174.7 164,-174.7 164,-152.7 8,-152.7"/>
<polygon fill="none" stroke="#000000" points="8,-152.7 8,-174.7 164,-174.7 164,-152.7 8,-152.7"/>
<image xlink:href="../../images/foreignKeys.png" width="11px" height="12px" preserveAspectRatio="xMinYMin meet" x="13" y="-169.7"/>
<text text-anchor="start" x="28" y="-159.8" font-family="Helvetica,sans-Serif" font-size="11.00" fill="#000000">assigned_user_id</text>
<polygon fill="none" stroke="#000000" points="8,-133.7 8,-152.7 164,-152.7 164,-133.7 8,-133.7"/>
<text text-anchor="start" x="11" y="-139.8" font-family="Helvetica,sans-Serif" font-size="11.00" fill="#000000">...</text>
<polygon fill="#ffffff" stroke="transparent" points="8,-114.7 8,-133.7 80,-133.7 80,-114.7 8,-114.7"/>
<polygon fill="none" stroke="#000000" points="8,-114.7 8,-133.7 80,-133.7 80,-114.7 8,-114.7"/>
<text text-anchor="start" x="11" y="-120.8" font-family="Helvetica,sans-Serif" font-size="11.00" fill="#000000">&lt; 3</text>
<polygon fill="#ffffff" stroke="transparent" points="80,-114.7 80,-133.7 117,-133.7 117,-114.7 80,-114.7"/>
<polygon fill="none" stroke="#000000" points="80,-114.7 80,-133.7 117,-133.7 117,-114.7 80,-114.7"/>
<text text-anchor="start" x="107.8862" y="-120.8" font-family="Helvetica,sans-Serif" font-size="11.00" fill="#000000"> &#160;</text>
<polygon fill="#ffffff" stroke="transparent" points="117,-114.7 117,-133.7 164,-133.7 164,-114.7 117,-114.7"/>
<polygon fill="none" stroke="#000000" points="117,-114.7 117,-133.7 164,-133.7 164,-114.7 117,-114.7"/>
<text text-anchor="start" x="145.4053" y="-120.8" font-family="Helvetica,sans-Serif" font-size="11.00" fill="#000000">7 &gt;</text>
</a>
</g>
</g>
<!-- fp_event_locations_fp_events_1_c&#45;&gt;fp_events -->
<g id="edge2" class="edge">
<title>fp_event_locations_fp_events_1_c:w&#45;&gt;fp_events:e</title>
<path fill="none" stroke="#000000" d="M319.9867,-571.8256C269.3193,-572.6078 240.65,-575.5091 205,-533.7 160.7708,-481.8295 232.1672,-229.7 164,-229.7"/>
<polygon fill="#000000" stroke="#000000" points="326.5003,-571.7693 334.5312,-575.2999 330.5001,-571.7346 334.5,-571.7 334.5,-571.7 334.5,-571.7 330.5001,-571.7346 334.4688,-568.1001 326.5003,-571.7693 326.5003,-571.7693"/>
<ellipse fill="none" stroke="#000000" cx="323.3004" cy="-571.797" rx="3.2" ry="3.2"/>
</g>
<!-- fp_events_contacts_c -->
<g id="node4" class="node">
<title>fp_events_contacts_c</title>
<g id="a_node4"><a xlink:href="../../tables/fp_events_contacts_c.html" xlink:title="fp_events_contacts_c" target="_top">
<polygon fill="#ffffff" stroke="transparent" points="366,-202.2 366,-263.2 515,-263.2 515,-202.2 366,-202.2"/>
<polygon fill="#f5f5f5" stroke="transparent" points="366.5,-239.7 366.5,-262.7 515.5,-262.7 515.5,-239.7 366.5,-239.7"/>
<polygon fill="none" stroke="#000000" points="366.5,-239.7 366.5,-262.7 515.5,-262.7 515.5,-239.7 366.5,-239.7"/>
<text text-anchor="start" x="371.3117" y="-248.8" font-family="Helvetica,sans-Serif" font-weight="bold" font-size="11.00" fill="#000000">fp_events_contacts_c</text>
<text text-anchor="start" x="481.0219" y="-247.8" font-family="Helvetica,sans-Serif" font-size="11.00" fill="#000000">[table]</text>
<polygon fill="none" stroke="#000000" points="366.5,-220.7 366.5,-239.7 515.5,-239.7 515.5,-220.7 366.5,-220.7"/>
<text text-anchor="start" x="369.5" y="-226.8" font-family="Helvetica,sans-Serif" font-size="11.00" fill="#000000">...</text>
<polygon fill="#ffffff" stroke="transparent" points="366.5,-201.7 366.5,-220.7 439.5,-220.7 439.5,-201.7 366.5,-201.7"/>
<polygon fill="none" stroke="#000000" points="366.5,-201.7 366.5,-220.7 439.5,-220.7 439.5,-201.7 366.5,-201.7"/>
<text text-anchor="start" x="369.5" y="-207.8" font-family="Helvetica,sans-Serif" font-size="11.00" fill="#000000">&lt; 2</text>
<polygon fill="#ffffff" stroke="transparent" points="439.5,-201.7 439.5,-220.7 477.5,-220.7 477.5,-201.7 439.5,-201.7"/>
<polygon fill="none" stroke="#000000" points="439.5,-201.7 439.5,-220.7 477.5,-220.7 477.5,-201.7 439.5,-201.7"/>
<text text-anchor="start" x="468.3862" y="-207.8" font-family="Helvetica,sans-Serif" font-size="11.00" fill="#000000"> &#160;</text>
<polygon fill="#ffffff" stroke="transparent" points="477.5,-201.7 477.5,-220.7 515.5,-220.7 515.5,-201.7 477.5,-201.7"/>
<polygon fill="none" stroke="#000000" points="477.5,-201.7 477.5,-220.7 515.5,-220.7 515.5,-201.7 477.5,-201.7"/>
<text text-anchor="start" x="506.3862" y="-207.8" font-family="Helvetica,sans-Serif" font-size="11.00" fill="#000000"> &#160;</text>
</a>
</g>
</g>
<!-- fp_events_contacts_c&#45;&gt;fp_events -->
<g id="edge3" class="edge">
<title>fp_events_contacts_c:w&#45;&gt;fp_events:e</title>
<path fill="none" stroke="#000000" d="M351.8322,-229.7C273.7346,-229.7 248.9023,-229.7 164,-229.7"/>
<polygon fill="#000000" stroke="#000000" points="358.5,-229.7001 366.5,-233.3 362.5,-229.7 366.5,-229.7 366.5,-229.7 366.5,-229.7 362.5,-229.7 366.5,-226.1 358.5,-229.7001 358.5,-229.7001"/>
<ellipse fill="none" stroke="#000000" cx="355.3" cy="-229.7001" rx="3.2" ry="3.2"/>
</g>
<!-- fp_events_fp_event_locations_1_c -->
<g id="node5" class="node">
<title>fp_events_fp_event_locations_1_c</title>
<g id="a_node5"><a xlink:href="../../tables/fp_events_fp_event_locations_1_c.html" xlink:title="fp_events_fp_event_locations_1_c" target="_top">
<polygon fill="#ffffff" stroke="transparent" points="213,-366.7 213,-522.7 668,-522.7 668,-366.7 213,-366.7"/>
<polygon fill="#f5f5f5" stroke="transparent" points="215.5,-497.7 215.5,-520.7 666.5,-520.7 666.5,-497.7 215.5,-497.7"/>
<polygon fill="none" stroke="#000000" points="215.5,-497.7 215.5,-520.7 666.5,-520.7 666.5,-497.7 215.5,-497.7"/>
<text text-anchor="start" x="220.5" y="-506.8" font-family="Helvetica,sans-Serif" font-weight="bold" font-size="11.00" fill="#000000">fp_events_fp_event_locations_1_c</text>
<text text-anchor="start" x="631.5437" y="-505.8" font-family="Helvetica,sans-Serif" font-size="11.00" fill="#000000">[table]</text>
<polygon fill="none" stroke="#000000" points="215.5,-475.7 215.5,-497.7 600.5,-497.7 600.5,-475.7 215.5,-475.7"/>
<image xlink:href="../../images/primaryKeys.png" width="11px" height="12px" preserveAspectRatio="xMinYMin meet" x="220.5" y="-492.7"/>
<text text-anchor="start" x="235.5" y="-482.8" font-family="Helvetica,sans-Serif" font-size="11.00" fill="#000000">id</text>
<polygon fill="none" stroke="#000000" points="600.5,-475.7 600.5,-497.7 666.5,-497.7 666.5,-475.7 600.5,-475.7"/>
<text text-anchor="start" x="603.5" y="-483.4" font-family="Helvetica,sans-Serif" font-size="11.00" fill="#000000">varchar[36]</text>
<polygon fill="none" stroke="#000000" points="215.5,-453.7 215.5,-475.7 600.5,-475.7 600.5,-453.7 215.5,-453.7"/>
<text text-anchor="start" x="235.5" y="-460.8" font-family="Helvetica,sans-Serif" font-size="11.00" fill="#000000">date_modified</text>
<polygon fill="none" stroke="#000000" points="600.5,-453.7 600.5,-475.7 666.5,-475.7 666.5,-453.7 600.5,-453.7"/>
<text text-anchor="start" x="603.2401" y="-461.4" font-family="Helvetica,sans-Serif" font-size="11.00" fill="#000000">datetime[26]</text>
<polygon fill="none" stroke="#000000" points="215.5,-431.7 215.5,-453.7 600.5,-453.7 600.5,-431.7 215.5,-431.7"/>
<text text-anchor="start" x="235.5" y="-438.8" font-family="Helvetica,sans-Serif" font-size="11.00" fill="#000000">deleted</text>
<polygon fill="none" stroke="#000000" points="600.5,-431.7 600.5,-453.7 666.5,-453.7 666.5,-431.7 600.5,-431.7"/>
<text text-anchor="start" x="603.5" y="-439.4" font-family="Helvetica,sans-Serif" font-size="11.00" fill="#000000">bit[1]</text>
<polygon fill="#ffffff" stroke="transparent" points="215.5,-409.7 215.5,-431.7 600.5,-431.7 600.5,-409.7 215.5,-409.7"/>
<polygon fill="none" stroke="#000000" points="215.5,-409.7 215.5,-431.7 600.5,-431.7 600.5,-409.7 215.5,-409.7"/>
<image xlink:href="../../images/foreignKeys.png" width="11px" height="12px" preserveAspectRatio="xMinYMin meet" x="220.5" y="-426.7"/>
<text text-anchor="start" x="235.5" y="-416.8" font-family="Helvetica,sans-Serif" font-size="11.00" fill="#000000">fp_events_fp_event_locations_1fp_events_ida</text>
<polygon fill="none" stroke="#000000" points="600.5,-409.7 600.5,-431.7 666.5,-431.7 666.5,-409.7 600.5,-409.7"/>
<text text-anchor="start" x="603.5" y="-417.4" font-family="Helvetica,sans-Serif" font-size="11.00" fill="#000000">varchar[36]</text>
<polygon fill="#ffffff" stroke="transparent" points="215.5,-387.7 215.5,-409.7 600.5,-409.7 600.5,-387.7 215.5,-387.7"/>
<polygon fill="none" stroke="#000000" points="215.5,-387.7 215.5,-409.7 600.5,-409.7 600.5,-387.7 215.5,-387.7"/>
<image xlink:href="../../images/foreignKeys.png" width="11px" height="12px" preserveAspectRatio="xMinYMin meet" x="220.5" y="-404.7"/>
<text text-anchor="start" x="235.5" y="-394.8" font-family="Helvetica,sans-Serif" font-size="11.00" fill="#000000">fp_events_fp_event_locations_1fp_event_locations_idb</text>
<polygon fill="none" stroke="#000000" points="600.5,-387.7 600.5,-409.7 666.5,-409.7 666.5,-387.7 600.5,-387.7"/>
<text text-anchor="start" x="603.5" y="-395.4" font-family="Helvetica,sans-Serif" font-size="11.00" fill="#000000">varchar[36]</text>
<polygon fill="#ffffff" stroke="transparent" points="215.5,-368.7 215.5,-387.7 412.5,-387.7 412.5,-368.7 215.5,-368.7"/>
<polygon fill="none" stroke="#000000" points="215.5,-368.7 215.5,-387.7 412.5,-387.7 412.5,-368.7 215.5,-368.7"/>
<text text-anchor="start" x="218.5" y="-374.8" font-family="Helvetica,sans-Serif" font-size="11.00" fill="#000000">&lt; 2</text>
<polygon fill="#ffffff" stroke="transparent" points="412.5,-368.7 412.5,-387.7 600.5,-387.7 600.5,-368.7 412.5,-368.7"/>
<polygon fill="none" stroke="#000000" points="412.5,-368.7 412.5,-387.7 600.5,-387.7 600.5,-368.7 412.5,-368.7"/>
<text text-anchor="start" x="591.3862" y="-374.8" font-family="Helvetica,sans-Serif" font-size="11.00" fill="#000000"> &#160;</text>
<polygon fill="#ffffff" stroke="transparent" points="600.5,-368.7 600.5,-387.7 666.5,-387.7 666.5,-368.7 600.5,-368.7"/>
<polygon fill="none" stroke="#000000" points="600.5,-368.7 600.5,-387.7 666.5,-387.7 666.5,-368.7 600.5,-368.7"/>
<text text-anchor="start" x="647.9053" y="-374.8" font-family="Helvetica,sans-Serif" font-size="11.00" fill="#000000">0 &gt;</text>
<polygon fill="none" stroke="#000000" stroke-width="2" points="214,-367.7 214,-521.7 667,-521.7 667,-367.7 214,-367.7"/>
</a>
</g>
</g>
<!-- fp_events_fp_event_locations_1_c&#45;&gt;fp_event_locations -->
<g id="edge4" class="edge">
<title>fp_events_fp_event_locations_1_c:w&#45;&gt;fp_event_locations:e</title>
<path fill="none" stroke="#000000" d="M200.7332,-398.8563C188.1555,-399.1375 180.5032,-399.7 163,-399.7"/>
<polygon fill="#000000" stroke="#000000" points="207.5004,-398.7847 215.5381,-402.2998 211.5002,-398.7423 215.5,-398.7 215.5,-398.7 215.5,-398.7 211.5002,-398.7423 215.4619,-395.1002 207.5004,-398.7847 207.5004,-398.7847"/>
<ellipse fill="none" stroke="#000000" cx="204.3006" cy="-398.8186" rx="3.2" ry="3.2"/>
</g>
<!-- fp_events_fp_event_locations_1_c&#45;&gt;fp_events -->
<g id="edge5" class="edge">
<title>fp_events_fp_event_locations_1_c:w&#45;&gt;fp_events:e</title>
<path fill="none" stroke="#000000" d="M201.0314,-418.4219C142.726,-396.8724 246.2538,-229.7 164,-229.7"/>
<polygon fill="#000000" stroke="#000000" points="207.5974,-419.4557 214.9401,-424.2562 211.5487,-420.0778 215.5,-420.7 215.5,-420.7 215.5,-420.7 211.5487,-420.0778 216.0599,-417.1438 207.5974,-419.4557 207.5974,-419.4557"/>
<ellipse fill="none" stroke="#000000" cx="204.4363" cy="-418.958" rx="3.2" ry="3.2"/>
</g>
<!-- fp_events_leads_1_c -->
<g id="node6" class="node">
<title>fp_events_leads_1_c</title>
<g id="a_node6"><a xlink:href="../../tables/fp_events_leads_1_c.html" xlink:title="fp_events_leads_1_c" target="_top">
<polygon fill="#ffffff" stroke="transparent" points="367.5,-120.2 367.5,-181.2 513.5,-181.2 513.5,-120.2 367.5,-120.2"/>
<polygon fill="#f5f5f5" stroke="transparent" points="367.5,-157.7 367.5,-180.7 513.5,-180.7 513.5,-157.7 367.5,-157.7"/>
<polygon fill="none" stroke="#000000" points="367.5,-157.7 367.5,-180.7 513.5,-180.7 513.5,-157.7 367.5,-157.7"/>
<text text-anchor="start" x="372.0333" y="-166.8" font-family="Helvetica,sans-Serif" font-weight="bold" font-size="11.00" fill="#000000">fp_events_leads_1_c</text>
<text text-anchor="start" x="479.0219" y="-165.8" font-family="Helvetica,sans-Serif" font-size="11.00" fill="#000000">[table]</text>
<polygon fill="none" stroke="#000000" points="367.5,-138.7 367.5,-157.7 513.5,-157.7 513.5,-138.7 367.5,-138.7"/>
<text text-anchor="start" x="370.5" y="-144.8" font-family="Helvetica,sans-Serif" font-size="11.00" fill="#000000">...</text>
<polygon fill="#ffffff" stroke="transparent" points="367.5,-119.7 367.5,-138.7 438.5,-138.7 438.5,-119.7 367.5,-119.7"/>
<polygon fill="none" stroke="#000000" points="367.5,-119.7 367.5,-138.7 438.5,-138.7 438.5,-119.7 367.5,-119.7"/>
<text text-anchor="start" x="370.5" y="-125.8" font-family="Helvetica,sans-Serif" font-size="11.00" fill="#000000">&lt; 2</text>
<polygon fill="#ffffff" stroke="transparent" points="438.5,-119.7 438.5,-138.7 475.5,-138.7 475.5,-119.7 438.5,-119.7"/>
<polygon fill="none" stroke="#000000" points="438.5,-119.7 438.5,-138.7 475.5,-138.7 475.5,-119.7 438.5,-119.7"/>
<text text-anchor="start" x="466.3862" y="-125.8" font-family="Helvetica,sans-Serif" font-size="11.00" fill="#000000"> &#160;</text>
<polygon fill="#ffffff" stroke="transparent" points="475.5,-119.7 475.5,-138.7 513.5,-138.7 513.5,-119.7 475.5,-119.7"/>
<polygon fill="none" stroke="#000000" points="475.5,-119.7 475.5,-138.7 513.5,-138.7 513.5,-119.7 475.5,-119.7"/>
<text text-anchor="start" x="504.3862" y="-125.8" font-family="Helvetica,sans-Serif" font-size="11.00" fill="#000000"> &#160;</text>
</a>
</g>
</g>
<!-- fp_events_leads_1_c&#45;&gt;fp_events -->
<g id="edge6" class="edge">
<title>fp_events_leads_1_c:w&#45;&gt;fp_events:e</title>
<path fill="none" stroke="#000000" d="M352.8622,-147.8151C289.4361,-148.8913 265.9752,-157.9177 205,-191.7 183.2674,-203.7406 188.8452,-229.7 164,-229.7"/>
<polygon fill="#000000" stroke="#000000" points="359.5002,-147.763 367.5283,-151.2999 363.5001,-147.7315 367.5,-147.7 367.5,-147.7 367.5,-147.7 363.5001,-147.7315 367.4717,-144.1001 359.5002,-147.763 359.5002,-147.763"/>
<ellipse fill="none" stroke="#000000" cx="356.3003" cy="-147.7882" rx="3.2" ry="3.2"/>
</g>
<!-- fp_events_prospects_1_c -->
<g id="node7" class="node">
<title>fp_events_prospects_1_c</title>
<g id="a_node7"><a xlink:href="../../tables/fp_events_prospects_1_c.html" xlink:title="fp_events_prospects_1_c" target="_top">
<polygon fill="#ffffff" stroke="transparent" points="356.5,-38.2 356.5,-99.2 524.5,-99.2 524.5,-38.2 356.5,-38.2"/>
<polygon fill="#f5f5f5" stroke="transparent" points="356.5,-75.7 356.5,-98.7 524.5,-98.7 524.5,-75.7 356.5,-75.7"/>
<polygon fill="none" stroke="#000000" points="356.5,-75.7 356.5,-98.7 524.5,-98.7 524.5,-75.7 356.5,-75.7"/>
<text text-anchor="start" x="361.3369" y="-84.8" font-family="Helvetica,sans-Serif" font-weight="bold" font-size="11.00" fill="#000000">fp_events_prospects_1_c</text>
<text text-anchor="start" x="490.0219" y="-83.8" font-family="Helvetica,sans-Serif" font-size="11.00" fill="#000000">[table]</text>
<polygon fill="none" stroke="#000000" points="356.5,-56.7 356.5,-75.7 524.5,-75.7 524.5,-56.7 356.5,-56.7"/>
<text text-anchor="start" x="359.5" y="-62.8" font-family="Helvetica,sans-Serif" font-size="11.00" fill="#000000">...</text>
<polygon fill="#ffffff" stroke="transparent" points="356.5,-37.7 356.5,-56.7 438.5,-56.7 438.5,-37.7 356.5,-37.7"/>
<polygon fill="none" stroke="#000000" points="356.5,-37.7 356.5,-56.7 438.5,-56.7 438.5,-37.7 356.5,-37.7"/>
<text text-anchor="start" x="359.5" y="-43.8" font-family="Helvetica,sans-Serif" font-size="11.00" fill="#000000">&lt; 2</text>
<polygon fill="#ffffff" stroke="transparent" points="438.5,-37.7 438.5,-56.7 481.5,-56.7 481.5,-37.7 438.5,-37.7"/>
<polygon fill="none" stroke="#000000" points="438.5,-37.7 438.5,-56.7 481.5,-56.7 481.5,-37.7 438.5,-37.7"/>
<text text-anchor="start" x="472.3862" y="-43.8" font-family="Helvetica,sans-Serif" font-size="11.00" fill="#000000"> &#160;</text>
<polygon fill="#ffffff" stroke="transparent" points="481.5,-37.7 481.5,-56.7 524.5,-56.7 524.5,-37.7 481.5,-37.7"/>
<polygon fill="none" stroke="#000000" points="481.5,-37.7 481.5,-56.7 524.5,-56.7 524.5,-37.7 481.5,-37.7"/>
<text text-anchor="start" x="515.3862" y="-43.8" font-family="Helvetica,sans-Serif" font-size="11.00" fill="#000000"> &#160;</text>
</a>
</g>
</g>
<!-- fp_events_prospects_1_c&#45;&gt;fp_events -->
<g id="edge7" class="edge">
<title>fp_events_prospects_1_c:w&#45;&gt;fp_events:e</title>
<path fill="none" stroke="#000000" d="M341.8948,-65.6525C281.8477,-65.3383 252.055,-64.7873 205,-109.7 164.2299,-148.6139 220.3604,-229.7 164,-229.7"/>
<polygon fill="#000000" stroke="#000000" points="348.5,-65.6739 356.4883,-69.3 352.5,-65.687 356.5,-65.7 356.5,-65.7 356.5,-65.7 352.5,-65.687 356.5117,-62.1 348.5,-65.6739 348.5,-65.6739"/>
<ellipse fill="none" stroke="#000000" cx="345.3001" cy="-65.6635" rx="3.2" ry="3.2"/>
</g>
<!-- securitygroups_records -->
<g id="node8" class="node">
<title>securitygroups_records</title>
<g id="a_node8"><a xlink:href="../../tables/securitygroups_records.html" xlink:title="securitygroups_records" target="_top">
<polygon fill="#ffffff" stroke="transparent" points="362,-284.2 362,-345.2 519,-345.2 519,-284.2 362,-284.2"/>
<polygon fill="#f5f5f5" stroke="transparent" points="362.5,-321.7 362.5,-344.7 519.5,-344.7 519.5,-321.7 362.5,-321.7"/>
<polygon fill="none" stroke="#000000" points="362.5,-321.7 362.5,-344.7 519.5,-344.7 519.5,-321.7 362.5,-321.7"/>
<text text-anchor="start" x="367.3528" y="-330.8" font-family="Helvetica,sans-Serif" font-weight="bold" font-size="11.00" fill="#000000">securitygroups_records</text>
<text text-anchor="start" x="485.0219" y="-329.8" font-family="Helvetica,sans-Serif" font-size="11.00" fill="#000000">[table]</text>
<polygon fill="none" stroke="#000000" points="362.5,-302.7 362.5,-321.7 519.5,-321.7 519.5,-302.7 362.5,-302.7"/>
<text text-anchor="start" x="365.5" y="-308.8" font-family="Helvetica,sans-Serif" font-size="11.00" fill="#000000">...</text>
<polygon fill="#ffffff" stroke="transparent" points="362.5,-283.7 362.5,-302.7 442.5,-302.7 442.5,-283.7 362.5,-283.7"/>
<polygon fill="none" stroke="#000000" points="362.5,-283.7 362.5,-302.7 442.5,-302.7 442.5,-283.7 362.5,-283.7"/>
<text text-anchor="start" x="365.5" y="-289.8" font-family="Helvetica,sans-Serif" font-size="11.00" fill="#000000">&lt; 41</text>
<polygon fill="#ffffff" stroke="transparent" points="442.5,-283.7 442.5,-302.7 480.5,-302.7 480.5,-283.7 442.5,-283.7"/>
<polygon fill="none" stroke="#000000" points="442.5,-283.7 442.5,-302.7 480.5,-302.7 480.5,-283.7 442.5,-283.7"/>
<text text-anchor="start" x="471.3862" y="-289.8" font-family="Helvetica,sans-Serif" font-size="11.00" fill="#000000"> &#160;</text>
<polygon fill="#ffffff" stroke="transparent" points="480.5,-283.7 480.5,-302.7 519.5,-302.7 519.5,-283.7 480.5,-283.7"/>
<polygon fill="none" stroke="#000000" points="480.5,-283.7 480.5,-302.7 519.5,-302.7 519.5,-283.7 480.5,-283.7"/>
<text text-anchor="start" x="510.3862" y="-289.8" font-family="Helvetica,sans-Serif" font-size="11.00" fill="#000000"> &#160;</text>
</a>
</g>
</g>
<!-- securitygroups_records&#45;&gt;fp_event_locations -->
<g id="edge8" class="edge">
<title>securitygroups_records:w&#45;&gt;fp_event_locations:e</title>
<path fill="none" stroke="#000000" d="M347.882,-311.8063C286.4587,-312.7803 262.9367,-320.9289 205,-355.7 181.8197,-369.6118 190.0345,-399.7 163,-399.7"/>
<polygon fill="#000000" stroke="#000000" points="354.5002,-311.7582 362.5262,-315.2999 358.5001,-311.7291 362.5,-311.7 362.5,-311.7 362.5,-311.7 358.5001,-311.7291 362.4738,-308.1001 354.5002,-311.7582 354.5002,-311.7582"/>
<ellipse fill="none" stroke="#000000" cx="351.3003" cy="-311.7815" rx="3.2" ry="3.2"/>
</g>
<!-- securitygroups_records&#45;&gt;fp_events -->
<g id="edge9" class="edge">
<title>securitygroups_records:w&#45;&gt;fp_events:e</title>
<path fill="none" stroke="#000000" d="M348.0025,-311.6637C287.0206,-311.2928 262.8046,-307.4687 205,-273.7 181.9202,-260.217 190.7296,-229.7 164,-229.7"/>
<polygon fill="#000000" stroke="#000000" points="354.5,-311.6799 362.491,-315.3 358.5,-311.6899 362.5,-311.7 362.5,-311.7 362.5,-311.7 358.5,-311.6899 362.509,-308.1 354.5,-311.6799 354.5,-311.6799"/>
<ellipse fill="none" stroke="#000000" cx="351.3" cy="-311.6719" rx="3.2" ry="3.2"/>
</g>
</g>
</svg>
