<?xml version="1.0" encoding="UTF-8" standalone="no"?>
<!DOCTYPE svg PUBLIC "-//W3C//DTD SVG 1.1//EN"
 "http://www.w3.org/Graphics/SVG/1.1/DTD/svg11.dtd">
<!-- Generated by graphviz version 2.40.1 (20161225.0304)
 -->
<!-- Title: oneDegreeRelationshipsDiagram Pages: 1 -->
<svg width="948pt" height="658pt"
 viewBox="0.00 0.00 948.00 657.70" xmlns="http://www.w3.org/2000/svg" xmlns:xlink="http://www.w3.org/1999/xlink">
<g id="graph0" class="graph" transform="scale(1 1) rotate(0) translate(4 653.7)">
<title>oneDegreeRelationshipsDiagram</title>
<polygon fill="#ffffff" stroke="transparent" points="-4,4 -4,-653.7 944,-653.7 944,4 -4,4"/>
<text text-anchor="middle" x="72.4936" y="-7.3" font-family="Helvetica,sans-Serif" font-size="11.00" fill="#000000">Generated by SchemaSpy</text>
<!-- fp_event_locations -->
<g id="node1" class="node">
<title>fp_event_locations</title>
<g id="a_node1"><a xlink:href="../../tables/fp_event_locations.html" xlink:title="fp_event_locations" target="_top">
<polygon fill="#ffffff" stroke="transparent" points="273,-38.2 273,-414.2 498,-414.2 498,-38.2 273,-38.2"/>
<polygon fill="#f5f5f5" stroke="transparent" points="275.5,-389.2 275.5,-412.2 496.5,-412.2 496.5,-389.2 275.5,-389.2"/>
<polygon fill="none" stroke="#000000" points="275.5,-389.2 275.5,-412.2 496.5,-412.2 496.5,-389.2 275.5,-389.2"/>
<text text-anchor="start" x="280.5" y="-398.3" font-family="Helvetica,sans-Serif" font-weight="bold" font-size="11.00" fill="#000000">fp_event_locations</text>
<text text-anchor="start" x="461.5437" y="-397.3" font-family="Helvetica,sans-Serif" font-size="11.00" fill="#000000">[table]</text>
<polygon fill="none" stroke="#000000" points="275.5,-367.2 275.5,-389.2 429.5,-389.2 429.5,-367.2 275.5,-367.2"/>
<image xlink:href="../../images/primaryKeys.png" width="11px" height="12px" preserveAspectRatio="xMinYMin meet" x="280.5" y="-384.2"/>
<text text-anchor="start" x="295.5" y="-374.3" font-family="Helvetica,sans-Serif" font-size="11.00" fill="#000000">id</text>
<polygon fill="none" stroke="#000000" points="429.5,-367.2 429.5,-389.2 496.5,-389.2 496.5,-367.2 429.5,-367.2"/>
<text text-anchor="start" x="432.5" y="-374.9" font-family="Helvetica,sans-Serif" font-size="11.00" fill="#000000">char[36]</text>
<polygon fill="none" stroke="#000000" points="275.5,-345.2 275.5,-367.2 429.5,-367.2 429.5,-345.2 275.5,-345.2"/>
<text text-anchor="start" x="295.5" y="-352.3" font-family="Helvetica,sans-Serif" font-size="11.00" fill="#000000">name</text>
<polygon fill="none" stroke="#000000" points="429.5,-345.2 429.5,-367.2 496.5,-367.2 496.5,-345.2 429.5,-345.2"/>
<text text-anchor="start" x="432.4365" y="-352.9" font-family="Helvetica,sans-Serif" font-size="11.00" fill="#000000">varchar[255]</text>
<polygon fill="none" stroke="#000000" points="275.5,-323.2 275.5,-345.2 429.5,-345.2 429.5,-323.2 275.5,-323.2"/>
<text text-anchor="start" x="295.5" y="-330.3" font-family="Helvetica,sans-Serif" font-size="11.00" fill="#000000">date_entered</text>
<polygon fill="none" stroke="#000000" points="429.5,-323.2 429.5,-345.2 496.5,-345.2 496.5,-323.2 429.5,-323.2"/>
<text text-anchor="start" x="432.5" y="-330.9" font-family="Helvetica,sans-Serif" font-size="11.00" fill="#000000">datetime[26]</text>
<polygon fill="none" stroke="#000000" points="275.5,-301.2 275.5,-323.2 429.5,-323.2 429.5,-301.2 275.5,-301.2"/>
<text text-anchor="start" x="295.5" y="-308.3" font-family="Helvetica,sans-Serif" font-size="11.00" fill="#000000">date_modified</text>
<polygon fill="none" stroke="#000000" points="429.5,-301.2 429.5,-323.2 496.5,-323.2 496.5,-301.2 429.5,-301.2"/>
<text text-anchor="start" x="432.5" y="-308.9" font-family="Helvetica,sans-Serif" font-size="11.00" fill="#000000">datetime[26]</text>
<polygon fill="none" stroke="#000000" points="275.5,-279.2 275.5,-301.2 429.5,-301.2 429.5,-279.2 275.5,-279.2"/>
<image xlink:href="../../images/foreignKeys.png" width="11px" height="12px" preserveAspectRatio="xMinYMin meet" x="280.5" y="-296.2"/>
<text text-anchor="start" x="295.5" y="-286.3" font-family="Helvetica,sans-Serif" font-size="11.00" fill="#000000">modified_user_id</text>
<polygon fill="none" stroke="#000000" points="429.5,-279.2 429.5,-301.2 496.5,-301.2 496.5,-279.2 429.5,-279.2"/>
<text text-anchor="start" x="432.5" y="-286.9" font-family="Helvetica,sans-Serif" font-size="11.00" fill="#000000">char[36]</text>
<polygon fill="none" stroke="#000000" points="275.5,-257.2 275.5,-279.2 429.5,-279.2 429.5,-257.2 275.5,-257.2"/>
<image xlink:href="../../images/foreignKeys.png" width="11px" height="12px" preserveAspectRatio="xMinYMin meet" x="280.5" y="-274.2"/>
<text text-anchor="start" x="295.5" y="-264.3" font-family="Helvetica,sans-Serif" font-size="11.00" fill="#000000">created_by</text>
<polygon fill="none" stroke="#000000" points="429.5,-257.2 429.5,-279.2 496.5,-279.2 496.5,-257.2 429.5,-257.2"/>
<text text-anchor="start" x="432.5" y="-264.9" font-family="Helvetica,sans-Serif" font-size="11.00" fill="#000000">char[36]</text>
<polygon fill="none" stroke="#000000" points="275.5,-235.2 275.5,-257.2 429.5,-257.2 429.5,-235.2 275.5,-235.2"/>
<text text-anchor="start" x="295.5" y="-242.3" font-family="Helvetica,sans-Serif" font-size="11.00" fill="#000000">description</text>
<polygon fill="none" stroke="#000000" points="429.5,-235.2 429.5,-257.2 496.5,-257.2 496.5,-235.2 429.5,-235.2"/>
<text text-anchor="start" x="432.5" y="-242.9" font-family="Helvetica,sans-Serif" font-size="11.00" fill="#000000">text[65535]</text>
<polygon fill="none" stroke="#000000" points="275.5,-213.2 275.5,-235.2 429.5,-235.2 429.5,-213.2 275.5,-213.2"/>
<text text-anchor="start" x="295.5" y="-220.3" font-family="Helvetica,sans-Serif" font-size="11.00" fill="#000000">deleted</text>
<polygon fill="none" stroke="#000000" points="429.5,-213.2 429.5,-235.2 496.5,-235.2 496.5,-213.2 429.5,-213.2"/>
<text text-anchor="start" x="432.5" y="-220.9" font-family="Helvetica,sans-Serif" font-size="11.00" fill="#000000">bit[1]</text>
<polygon fill="none" stroke="#000000" points="275.5,-191.2 275.5,-213.2 429.5,-213.2 429.5,-191.2 275.5,-191.2"/>
<image xlink:href="../../images/foreignKeys.png" width="11px" height="12px" preserveAspectRatio="xMinYMin meet" x="280.5" y="-208.2"/>
<text text-anchor="start" x="295.5" y="-198.3" font-family="Helvetica,sans-Serif" font-size="11.00" fill="#000000">assigned_user_id</text>
<polygon fill="none" stroke="#000000" points="429.5,-191.2 429.5,-213.2 496.5,-213.2 496.5,-191.2 429.5,-191.2"/>
<text text-anchor="start" x="432.5" y="-198.9" font-family="Helvetica,sans-Serif" font-size="11.00" fill="#000000">char[36]</text>
<polygon fill="none" stroke="#000000" points="275.5,-169.2 275.5,-191.2 429.5,-191.2 429.5,-169.2 275.5,-169.2"/>
<text text-anchor="start" x="295.5" y="-176.3" font-family="Helvetica,sans-Serif" font-size="11.00" fill="#000000">address</text>
<polygon fill="none" stroke="#000000" points="429.5,-169.2 429.5,-191.2 496.5,-191.2 496.5,-169.2 429.5,-169.2"/>
<text text-anchor="start" x="432.4365" y="-176.9" font-family="Helvetica,sans-Serif" font-size="11.00" fill="#000000">varchar[255]</text>
<polygon fill="none" stroke="#000000" points="275.5,-147.2 275.5,-169.2 429.5,-169.2 429.5,-147.2 275.5,-147.2"/>
<text text-anchor="start" x="295.5" y="-154.3" font-family="Helvetica,sans-Serif" font-size="11.00" fill="#000000">address_city</text>
<polygon fill="none" stroke="#000000" points="429.5,-147.2 429.5,-169.2 496.5,-169.2 496.5,-147.2 429.5,-147.2"/>
<text text-anchor="start" x="432.4365" y="-154.9" font-family="Helvetica,sans-Serif" font-size="11.00" fill="#000000">varchar[100]</text>
<polygon fill="none" stroke="#000000" points="275.5,-125.2 275.5,-147.2 429.5,-147.2 429.5,-125.2 275.5,-125.2"/>
<text text-anchor="start" x="295.5" y="-132.3" font-family="Helvetica,sans-Serif" font-size="11.00" fill="#000000">address_country</text>
<polygon fill="none" stroke="#000000" points="429.5,-125.2 429.5,-147.2 496.5,-147.2 496.5,-125.2 429.5,-125.2"/>
<text text-anchor="start" x="432.4365" y="-132.9" font-family="Helvetica,sans-Serif" font-size="11.00" fill="#000000">varchar[100]</text>
<polygon fill="none" stroke="#000000" points="275.5,-103.2 275.5,-125.2 429.5,-125.2 429.5,-103.2 275.5,-103.2"/>
<text text-anchor="start" x="295.5" y="-110.3" font-family="Helvetica,sans-Serif" font-size="11.00" fill="#000000">address_postalcode</text>
<polygon fill="none" stroke="#000000" points="429.5,-103.2 429.5,-125.2 496.5,-125.2 496.5,-103.2 429.5,-103.2"/>
<text text-anchor="start" x="432.5" y="-110.9" font-family="Helvetica,sans-Serif" font-size="11.00" fill="#000000">varchar[20]</text>
<polygon fill="none" stroke="#000000" points="275.5,-81.2 275.5,-103.2 429.5,-103.2 429.5,-81.2 275.5,-81.2"/>
<text text-anchor="start" x="295.5" y="-88.3" font-family="Helvetica,sans-Serif" font-size="11.00" fill="#000000">address_state</text>
<polygon fill="none" stroke="#000000" points="429.5,-81.2 429.5,-103.2 496.5,-103.2 496.5,-81.2 429.5,-81.2"/>
<text text-anchor="start" x="432.4365" y="-88.9" font-family="Helvetica,sans-Serif" font-size="11.00" fill="#000000">varchar[100]</text>
<polygon fill="none" stroke="#000000" points="275.5,-59.2 275.5,-81.2 429.5,-81.2 429.5,-59.2 275.5,-59.2"/>
<text text-anchor="start" x="295.5" y="-66.3" font-family="Helvetica,sans-Serif" font-size="11.00" fill="#000000">capacity</text>
<polygon fill="none" stroke="#000000" points="429.5,-59.2 429.5,-81.2 496.5,-81.2 496.5,-59.2 429.5,-59.2"/>
<text text-anchor="start" x="432.4365" y="-66.9" font-family="Helvetica,sans-Serif" font-size="11.00" fill="#000000">varchar[255]</text>
<polygon fill="#ffffff" stroke="transparent" points="275.5,-40.2 275.5,-59.2 356.5,-59.2 356.5,-40.2 275.5,-40.2"/>
<polygon fill="none" stroke="#000000" points="275.5,-40.2 275.5,-59.2 356.5,-59.2 356.5,-40.2 275.5,-40.2"/>
<text text-anchor="start" x="278.5" y="-46.3" font-family="Helvetica,sans-Serif" font-size="11.00" fill="#000000">&lt; 3</text>
<polygon fill="#ffffff" stroke="transparent" points="356.5,-40.2 356.5,-59.2 429.5,-59.2 429.5,-40.2 356.5,-40.2"/>
<polygon fill="none" stroke="#000000" points="356.5,-40.2 356.5,-59.2 429.5,-59.2 429.5,-40.2 356.5,-40.2"/>
<text text-anchor="start" x="420.3862" y="-46.3" font-family="Helvetica,sans-Serif" font-size="11.00" fill="#000000"> &#160;</text>
<polygon fill="#ffffff" stroke="transparent" points="429.5,-40.2 429.5,-59.2 496.5,-59.2 496.5,-40.2 429.5,-40.2"/>
<polygon fill="none" stroke="#000000" points="429.5,-40.2 429.5,-59.2 496.5,-59.2 496.5,-40.2 429.5,-40.2"/>
<text text-anchor="start" x="477.9053" y="-46.3" font-family="Helvetica,sans-Serif" font-size="11.00" fill="#000000">4 &gt;</text>
<polygon fill="none" stroke="#000000" stroke-width="2" points="274,-39.2 274,-413.2 497,-413.2 497,-39.2 274,-39.2"/>
</a>
</g>
</g>
<!-- users -->
<g id="node2" class="node">
<title>users</title>
<g id="a_node2"><a xlink:href="../../tables/users.html" xlink:title="users" target="_top">
<polygon fill="#ffffff" stroke="transparent" points="8,-87.7 8,-302.7 224,-302.7 224,-87.7 8,-87.7"/>
<polygon fill="#f5f5f5" stroke="transparent" points="8,-279.2 8,-302.2 224,-302.2 224,-279.2 8,-279.2"/>
<polygon fill="none" stroke="#000000" points="8,-279.2 8,-302.2 224,-302.2 224,-279.2 8,-279.2"/>
<text text-anchor="start" x="13" y="-288.3" font-family="Helvetica,sans-Serif" font-weight="bold" font-size="11.00" fill="#000000">users</text>
<text text-anchor="start" x="189.0437" y="-287.3" font-family="Helvetica,sans-Serif" font-size="11.00" fill="#000000">[table]</text>
<polygon fill="none" stroke="#000000" points="8,-257.2 8,-279.2 224,-279.2 224,-257.2 8,-257.2"/>
<image xlink:href="../../images/primaryKeys.png" width="11px" height="12px" preserveAspectRatio="xMinYMin meet" x="13" y="-274.2"/>
<text text-anchor="start" x="28" y="-264.3" font-family="Helvetica,sans-Serif" font-size="11.00" fill="#000000">id</text>
<polygon fill="#ffffff" stroke="transparent" points="8,-235.2 8,-257.2 224,-257.2 224,-235.2 8,-235.2"/>
<polygon fill="none" stroke="#000000" points="8,-235.2 8,-257.2 224,-257.2 224,-235.2 8,-235.2"/>
<text text-anchor="start" x="28" y="-242.3" font-family="Helvetica,sans-Serif" font-size="11.00" fill="#000000">user_name</text>
<polygon fill="#ffffff" stroke="transparent" points="8,-213.2 8,-235.2 224,-235.2 224,-213.2 8,-213.2"/>
<polygon fill="none" stroke="#000000" points="8,-213.2 8,-235.2 224,-235.2 224,-213.2 8,-213.2"/>
<text text-anchor="start" x="28" y="-220.3" font-family="Helvetica,sans-Serif" font-size="11.00" fill="#000000">first_name</text>
<polygon fill="#ffffff" stroke="transparent" points="8,-191.2 8,-213.2 224,-213.2 224,-191.2 8,-191.2"/>
<polygon fill="none" stroke="#000000" points="8,-191.2 8,-213.2 224,-213.2 224,-191.2 8,-191.2"/>
<text text-anchor="start" x="28" y="-198.3" font-family="Helvetica,sans-Serif" font-size="11.00" fill="#000000">last_name</text>
<polygon fill="#ffffff" stroke="transparent" points="8,-169.2 8,-191.2 224,-191.2 224,-169.2 8,-169.2"/>
<polygon fill="none" stroke="#000000" points="8,-169.2 8,-191.2 224,-191.2 224,-169.2 8,-169.2"/>
<text text-anchor="start" x="28" y="-176.3" font-family="Helvetica,sans-Serif" font-size="11.00" fill="#000000">status</text>
<polygon fill="#c0c0c0" stroke="transparent" points="8,-147.2 8,-169.2 224,-169.2 224,-147.2 8,-147.2"/>
<polygon fill="none" stroke="#000000" points="8,-147.2 8,-169.2 224,-169.2 224,-147.2 8,-147.2"/>
<image xlink:href="../../images/foreignKeys.png" width="11px" height="12px" preserveAspectRatio="xMinYMin meet" x="13" y="-164.2"/>
<text text-anchor="start" x="28" y="-154.3" font-family="Helvetica,sans-Serif" font-size="11.00" fill="#000000">reports_to_id</text>
<polygon fill="#ffffff" stroke="transparent" points="8,-125.2 8,-147.2 224,-147.2 224,-125.2 8,-125.2"/>
<polygon fill="none" stroke="#000000" points="8,-125.2 8,-147.2 224,-147.2 224,-125.2 8,-125.2"/>
<text text-anchor="start" x="28" y="-132.3" font-family="Helvetica,sans-Serif" font-size="11.00" fill="#000000">is_group</text>
<polygon fill="none" stroke="#000000" points="8,-106.2 8,-125.2 224,-125.2 224,-106.2 8,-106.2"/>
<text text-anchor="start" x="11" y="-112.3" font-family="Helvetica,sans-Serif" font-size="11.00" fill="#000000">...</text>
<polygon fill="#ffffff" stroke="transparent" points="8,-87.2 8,-106.2 104,-106.2 104,-87.2 8,-87.2"/>
<polygon fill="none" stroke="#000000" points="8,-87.2 8,-106.2 104,-106.2 104,-87.2 8,-87.2"/>
<text text-anchor="start" x="11" y="-93.3" font-family="Helvetica,sans-Serif" font-size="11.00" fill="#000000">&lt; 2</text>
<polygon fill="#ffffff" stroke="transparent" points="104,-87.2 104,-106.2 153,-106.2 153,-87.2 104,-87.2"/>
<polygon fill="none" stroke="#000000" points="104,-87.2 104,-106.2 153,-106.2 153,-87.2 104,-87.2"/>
<text text-anchor="start" x="143.8862" y="-93.3" font-family="Helvetica,sans-Serif" font-size="11.00" fill="#000000"> &#160;</text>
<polygon fill="#ffffff" stroke="transparent" points="153,-87.2 153,-106.2 224,-106.2 224,-87.2 153,-87.2"/>
<polygon fill="none" stroke="#000000" points="153,-87.2 153,-106.2 224,-106.2 224,-87.2 153,-87.2"/>
<text text-anchor="start" x="193.1755" y="-93.3" font-family="Helvetica,sans-Serif" font-size="11.00" fill="#000000">214 &gt;</text>
</a>
</g>
</g>
<!-- fp_event_locations&#45;&gt;users -->
<g id="edge1" class="edge">
<title>fp_event_locations:w&#45;&gt;users:e</title>
<path fill="none" stroke="#000000" d="M261.511,-206.9466C244.1935,-222.0798 255.1026,-268.2 224,-268.2"/>
<polygon fill="#000000" stroke="#000000" points="267.9242,-204.7705 276.6567,-205.6091 271.7121,-203.4853 275.5,-202.2 275.5,-202.2 275.5,-202.2 271.7121,-203.4853 274.3433,-198.7909 267.9242,-204.7705 267.9242,-204.7705"/>
<ellipse fill="none" stroke="#000000" cx="264.8939" cy="-205.7988" rx="3.2" ry="3.2"/>
</g>
<!-- fp_event_locations&#45;&gt;users -->
<g id="edge2" class="edge">
<title>fp_event_locations:w&#45;&gt;users:e</title>
<path fill="none" stroke="#000000" d="M261.0156,-268.2C248.6771,-268.2 241.1667,-268.2 224,-268.2"/>
<polygon fill="#000000" stroke="#000000" points="267.5,-268.2001 275.5,-271.8 271.5,-268.2 275.5,-268.2 275.5,-268.2 275.5,-268.2 271.5,-268.2 275.5,-264.6 267.5,-268.2001 267.5,-268.2001"/>
<ellipse fill="none" stroke="#000000" cx="264.3" cy="-268.2001" rx="3.2" ry="3.2"/>
</g>
<!-- fp_event_locations&#45;&gt;users -->
<g id="edge3" class="edge">
<title>fp_event_locations:w&#45;&gt;users:e</title>
<path fill="none" stroke="#000000" d="M261.2209,-287.141C248.531,-281.096 243.0563,-268.2 224,-268.2"/>
<polygon fill="#000000" stroke="#000000" points="267.6775,-288.5241 274.7459,-293.7201 271.5887,-289.3621 275.5,-290.2 275.5,-290.2 275.5,-290.2 271.5887,-289.3621 276.2541,-286.6799 267.6775,-288.5241 267.6775,-288.5241"/>
<ellipse fill="none" stroke="#000000" cx="264.5485" cy="-287.8538" rx="3.2" ry="3.2"/>
</g>
<!-- fp_event_locations_audit -->
<g id="node3" class="node">
<title>fp_event_locations_audit</title>
<g id="a_node3"><a xlink:href="../../tables/fp_event_locations_audit.html" xlink:title="fp_event_locations_audit" target="_top">
<polygon fill="#ffffff" stroke="transparent" points="646,-540.7 646,-645.7 833,-645.7 833,-540.7 646,-540.7"/>
<polygon fill="#f5f5f5" stroke="transparent" points="646.5,-622.2 646.5,-645.2 833.5,-645.2 833.5,-622.2 646.5,-622.2"/>
<polygon fill="none" stroke="#000000" points="646.5,-622.2 646.5,-645.2 833.5,-645.2 833.5,-622.2 646.5,-622.2"/>
<text text-anchor="start" x="651.5" y="-631.3" font-family="Helvetica,sans-Serif" font-weight="bold" font-size="11.00" fill="#000000">fp_event_locations_audit</text>
<text text-anchor="start" x="798.5437" y="-630.3" font-family="Helvetica,sans-Serif" font-size="11.00" fill="#000000">[table]</text>
<polygon fill="none" stroke="#000000" points="646.5,-600.2 646.5,-622.2 833.5,-622.2 833.5,-600.2 646.5,-600.2"/>
<image xlink:href="../../images/primaryKeys.png" width="11px" height="12px" preserveAspectRatio="xMinYMin meet" x="651.5" y="-617.2"/>
<text text-anchor="start" x="666.5" y="-607.3" font-family="Helvetica,sans-Serif" font-size="11.00" fill="#000000">id</text>
<polygon fill="#c0c0c0" stroke="transparent" points="646.5,-578.2 646.5,-600.2 833.5,-600.2 833.5,-578.2 646.5,-578.2"/>
<polygon fill="none" stroke="#000000" points="646.5,-578.2 646.5,-600.2 833.5,-600.2 833.5,-578.2 646.5,-578.2"/>
<image xlink:href="../../images/foreignKeys.png" width="11px" height="12px" preserveAspectRatio="xMinYMin meet" x="651.5" y="-595.2"/>
<text text-anchor="start" x="666.5" y="-585.3" font-family="Helvetica,sans-Serif" font-size="11.00" fill="#000000">parent_id</text>
<polygon fill="none" stroke="#000000" points="646.5,-559.2 646.5,-578.2 833.5,-578.2 833.5,-559.2 646.5,-559.2"/>
<text text-anchor="start" x="649.5" y="-565.3" font-family="Helvetica,sans-Serif" font-size="11.00" fill="#000000">...</text>
<polygon fill="#ffffff" stroke="transparent" points="646.5,-540.2 646.5,-559.2 738.5,-559.2 738.5,-540.2 646.5,-540.2"/>
<polygon fill="none" stroke="#000000" points="646.5,-540.2 646.5,-559.2 738.5,-559.2 738.5,-540.2 646.5,-540.2"/>
<text text-anchor="start" x="649.5" y="-546.3" font-family="Helvetica,sans-Serif" font-size="11.00" fill="#000000">&lt; 1</text>
<polygon fill="#ffffff" stroke="transparent" points="738.5,-540.2 738.5,-559.2 785.5,-559.2 785.5,-540.2 738.5,-540.2"/>
<polygon fill="none" stroke="#000000" points="738.5,-540.2 738.5,-559.2 785.5,-559.2 785.5,-540.2 738.5,-540.2"/>
<text text-anchor="start" x="776.3862" y="-546.3" font-family="Helvetica,sans-Serif" font-size="11.00" fill="#000000"> &#160;</text>
<polygon fill="#ffffff" stroke="transparent" points="785.5,-540.2 785.5,-559.2 833.5,-559.2 833.5,-540.2 785.5,-540.2"/>
<polygon fill="none" stroke="#000000" points="785.5,-540.2 785.5,-559.2 833.5,-559.2 833.5,-540.2 785.5,-540.2"/>
<text text-anchor="start" x="824.3862" y="-546.3" font-family="Helvetica,sans-Serif" font-size="11.00" fill="#000000"> &#160;</text>
</a>
</g>
</g>
<!-- fp_event_locations_audit&#45;&gt;fp_event_locations -->
<g id="edge4" class="edge">
<title>fp_event_locations_audit:w&#45;&gt;fp_event_locations:e</title>
<path fill="none" stroke="#000000" d="M632.0632,-588.7617C588.284,-585.9106 569.7001,-568.8911 539,-530.2 495.399,-475.25 566.6466,-378.2 496.5,-378.2"/>
<polygon fill="#000000" stroke="#000000" points="638.5037,-588.9572 646.3907,-592.7983 642.5018,-589.0786 646.5,-589.2 646.5,-589.2 646.5,-589.2 642.5018,-589.0786 646.6093,-585.6017 638.5037,-588.9572 638.5037,-588.9572"/>
<ellipse fill="none" stroke="#000000" cx="635.3052" cy="-588.8601" rx="3.2" ry="3.2"/>
</g>
<!-- fp_event_locations_fp_events_1_c -->
<g id="node4" class="node">
<title>fp_event_locations_fp_events_1_c</title>
<g id="a_node4"><a xlink:href="../../tables/fp_event_locations_fp_events_1_c.html" xlink:title="fp_event_locations_fp_events_1_c" target="_top">
<polygon fill="#ffffff" stroke="transparent" points="547.5,-392.7 547.5,-519.7 931.5,-519.7 931.5,-392.7 547.5,-392.7"/>
<polygon fill="#f5f5f5" stroke="transparent" points="547.5,-496.2 547.5,-519.2 931.5,-519.2 931.5,-496.2 547.5,-496.2"/>
<polygon fill="none" stroke="#000000" points="547.5,-496.2 547.5,-519.2 931.5,-519.2 931.5,-496.2 547.5,-496.2"/>
<text text-anchor="start" x="552.5" y="-505.3" font-family="Helvetica,sans-Serif" font-weight="bold" font-size="11.00" fill="#000000">fp_event_locations_fp_events_1_c</text>
<text text-anchor="start" x="896.5437" y="-504.3" font-family="Helvetica,sans-Serif" font-size="11.00" fill="#000000">[table]</text>
<polygon fill="none" stroke="#000000" points="547.5,-474.2 547.5,-496.2 931.5,-496.2 931.5,-474.2 547.5,-474.2"/>
<image xlink:href="../../images/primaryKeys.png" width="11px" height="12px" preserveAspectRatio="xMinYMin meet" x="552.5" y="-491.2"/>
<text text-anchor="start" x="567.5" y="-481.3" font-family="Helvetica,sans-Serif" font-size="11.00" fill="#000000">id</text>
<polygon fill="#ffffff" stroke="transparent" points="547.5,-452.2 547.5,-474.2 931.5,-474.2 931.5,-452.2 547.5,-452.2"/>
<polygon fill="none" stroke="#000000" points="547.5,-452.2 547.5,-474.2 931.5,-474.2 931.5,-452.2 547.5,-452.2"/>
<image xlink:href="../../images/foreignKeys.png" width="11px" height="12px" preserveAspectRatio="xMinYMin meet" x="552.5" y="-469.2"/>
<text text-anchor="start" x="567.5" y="-459.3" font-family="Helvetica,sans-Serif" font-size="11.00" fill="#000000">fp_event_locations_fp_events_1fp_event_locations_ida</text>
<polygon fill="#ffffff" stroke="transparent" points="547.5,-430.2 547.5,-452.2 931.5,-452.2 931.5,-430.2 547.5,-430.2"/>
<polygon fill="none" stroke="#000000" points="547.5,-430.2 547.5,-452.2 931.5,-452.2 931.5,-430.2 547.5,-430.2"/>
<image xlink:href="../../images/foreignKeys.png" width="11px" height="12px" preserveAspectRatio="xMinYMin meet" x="552.5" y="-447.2"/>
<text text-anchor="start" x="567.5" y="-437.3" font-family="Helvetica,sans-Serif" font-size="11.00" fill="#000000">fp_event_locations_fp_events_1fp_events_idb</text>
<polygon fill="none" stroke="#000000" points="547.5,-411.2 547.5,-430.2 931.5,-430.2 931.5,-411.2 547.5,-411.2"/>
<text text-anchor="start" x="550.5" y="-417.3" font-family="Helvetica,sans-Serif" font-size="11.00" fill="#000000">...</text>
<polygon fill="#ffffff" stroke="transparent" points="547.5,-392.2 547.5,-411.2 737.5,-411.2 737.5,-392.2 547.5,-392.2"/>
<polygon fill="none" stroke="#000000" points="547.5,-392.2 547.5,-411.2 737.5,-411.2 737.5,-392.2 547.5,-392.2"/>
<text text-anchor="start" x="550.5" y="-398.3" font-family="Helvetica,sans-Serif" font-size="11.00" fill="#000000">&lt; 2</text>
<polygon fill="#ffffff" stroke="transparent" points="737.5,-392.2 737.5,-411.2 834.5,-411.2 834.5,-392.2 737.5,-392.2"/>
<polygon fill="none" stroke="#000000" points="737.5,-392.2 737.5,-411.2 834.5,-411.2 834.5,-392.2 737.5,-392.2"/>
<text text-anchor="start" x="825.3862" y="-398.3" font-family="Helvetica,sans-Serif" font-size="11.00" fill="#000000"> &#160;</text>
<polygon fill="#ffffff" stroke="transparent" points="834.5,-392.2 834.5,-411.2 931.5,-411.2 931.5,-392.2 834.5,-392.2"/>
<polygon fill="none" stroke="#000000" points="834.5,-392.2 834.5,-411.2 931.5,-411.2 931.5,-392.2 834.5,-392.2"/>
<text text-anchor="start" x="922.3862" y="-398.3" font-family="Helvetica,sans-Serif" font-size="11.00" fill="#000000"> &#160;</text>
</a>
</g>
</g>
<!-- fp_event_locations_fp_events_1_c&#45;&gt;fp_event_locations -->
<g id="edge5" class="edge">
<title>fp_event_locations_fp_events_1_c:w&#45;&gt;fp_event_locations:e</title>
<path fill="none" stroke="#000000" d="M533.5669,-458.868C512.0746,-441.5466 534.5328,-378.2 496.5,-378.2"/>
<polygon fill="#000000" stroke="#000000" points="539.8607,-460.8248 546.4312,-466.6377 543.6804,-462.0124 547.5,-463.2 547.5,-463.2 547.5,-463.2 543.6804,-462.0124 548.5688,-459.7623 539.8607,-460.8248 539.8607,-460.8248"/>
<ellipse fill="none" stroke="#000000" cx="536.805" cy="-459.8747" rx="3.2" ry="3.2"/>
</g>
<!-- fp_events_fp_event_locations_1_c -->
<g id="node5" class="node">
<title>fp_events_fp_event_locations_1_c</title>
<g id="a_node5"><a xlink:href="../../tables/fp_events_fp_event_locations_1_c.html" xlink:title="fp_events_fp_event_locations_1_c" target="_top">
<polygon fill="#ffffff" stroke="transparent" points="547,-244.7 547,-371.7 932,-371.7 932,-244.7 547,-244.7"/>
<polygon fill="#f5f5f5" stroke="transparent" points="547.5,-348.2 547.5,-371.2 932.5,-371.2 932.5,-348.2 547.5,-348.2"/>
<polygon fill="none" stroke="#000000" points="547.5,-348.2 547.5,-371.2 932.5,-371.2 932.5,-348.2 547.5,-348.2"/>
<text text-anchor="start" x="552.5" y="-357.3" font-family="Helvetica,sans-Serif" font-weight="bold" font-size="11.00" fill="#000000">fp_events_fp_event_locations_1_c</text>
<text text-anchor="start" x="897.5437" y="-356.3" font-family="Helvetica,sans-Serif" font-size="11.00" fill="#000000">[table]</text>
<polygon fill="none" stroke="#000000" points="547.5,-326.2 547.5,-348.2 932.5,-348.2 932.5,-326.2 547.5,-326.2"/>
<image xlink:href="../../images/primaryKeys.png" width="11px" height="12px" preserveAspectRatio="xMinYMin meet" x="552.5" y="-343.2"/>
<text text-anchor="start" x="567.5" y="-333.3" font-family="Helvetica,sans-Serif" font-size="11.00" fill="#000000">id</text>
<polygon fill="#ffffff" stroke="transparent" points="547.5,-304.2 547.5,-326.2 932.5,-326.2 932.5,-304.2 547.5,-304.2"/>
<polygon fill="none" stroke="#000000" points="547.5,-304.2 547.5,-326.2 932.5,-326.2 932.5,-304.2 547.5,-304.2"/>
<image xlink:href="../../images/foreignKeys.png" width="11px" height="12px" preserveAspectRatio="xMinYMin meet" x="552.5" y="-321.2"/>
<text text-anchor="start" x="567.5" y="-311.3" font-family="Helvetica,sans-Serif" font-size="11.00" fill="#000000">fp_events_fp_event_locations_1fp_events_ida</text>
<polygon fill="#ffffff" stroke="transparent" points="547.5,-282.2 547.5,-304.2 932.5,-304.2 932.5,-282.2 547.5,-282.2"/>
<polygon fill="none" stroke="#000000" points="547.5,-282.2 547.5,-304.2 932.5,-304.2 932.5,-282.2 547.5,-282.2"/>
<image xlink:href="../../images/foreignKeys.png" width="11px" height="12px" preserveAspectRatio="xMinYMin meet" x="552.5" y="-299.2"/>
<text text-anchor="start" x="567.5" y="-289.3" font-family="Helvetica,sans-Serif" font-size="11.00" fill="#000000">fp_events_fp_event_locations_1fp_event_locations_idb</text>
<polygon fill="none" stroke="#000000" points="547.5,-263.2 547.5,-282.2 932.5,-282.2 932.5,-263.2 547.5,-263.2"/>
<text text-anchor="start" x="550.5" y="-269.3" font-family="Helvetica,sans-Serif" font-size="11.00" fill="#000000">...</text>
<polygon fill="#ffffff" stroke="transparent" points="547.5,-244.2 547.5,-263.2 738.5,-263.2 738.5,-244.2 547.5,-244.2"/>
<polygon fill="none" stroke="#000000" points="547.5,-244.2 547.5,-263.2 738.5,-263.2 738.5,-244.2 547.5,-244.2"/>
<text text-anchor="start" x="550.5" y="-250.3" font-family="Helvetica,sans-Serif" font-size="11.00" fill="#000000">&lt; 2</text>
<polygon fill="#ffffff" stroke="transparent" points="738.5,-244.2 738.5,-263.2 835.5,-263.2 835.5,-244.2 738.5,-244.2"/>
<polygon fill="none" stroke="#000000" points="738.5,-244.2 738.5,-263.2 835.5,-263.2 835.5,-244.2 738.5,-244.2"/>
<text text-anchor="start" x="826.3862" y="-250.3" font-family="Helvetica,sans-Serif" font-size="11.00" fill="#000000"> &#160;</text>
<polygon fill="#ffffff" stroke="transparent" points="835.5,-244.2 835.5,-263.2 932.5,-263.2 932.5,-244.2 835.5,-244.2"/>
<polygon fill="none" stroke="#000000" points="835.5,-244.2 835.5,-263.2 932.5,-263.2 932.5,-244.2 835.5,-244.2"/>
<text text-anchor="start" x="923.3862" y="-250.3" font-family="Helvetica,sans-Serif" font-size="11.00" fill="#000000"> &#160;</text>
</a>
</g>
</g>
<!-- fp_events_fp_event_locations_1_c&#45;&gt;fp_event_locations -->
<g id="edge6" class="edge">
<title>fp_events_fp_event_locations_1_c:w&#45;&gt;fp_event_locations:e</title>
<path fill="none" stroke="#000000" d="M533.5669,-297.532C512.0746,-314.8534 534.5328,-378.2 496.5,-378.2"/>
<polygon fill="#000000" stroke="#000000" points="539.8607,-295.5752 548.5688,-296.6377 543.6804,-294.3876 547.5,-293.2 547.5,-293.2 547.5,-293.2 543.6804,-294.3876 546.4312,-289.7623 539.8607,-295.5752 539.8607,-295.5752"/>
<ellipse fill="none" stroke="#000000" cx="536.805" cy="-296.5253" rx="3.2" ry="3.2"/>
</g>
<!-- securitygroups_records -->
<g id="node6" class="node">
<title>securitygroups_records</title>
<g id="a_node6"><a xlink:href="../../tables/securitygroups_records.html" xlink:title="securitygroups_records" target="_top">
<polygon fill="#ffffff" stroke="transparent" points="650,-52.7 650,-223.7 829,-223.7 829,-52.7 650,-52.7"/>
<polygon fill="#f5f5f5" stroke="transparent" points="650.5,-200.2 650.5,-223.2 829.5,-223.2 829.5,-200.2 650.5,-200.2"/>
<polygon fill="none" stroke="#000000" points="650.5,-200.2 650.5,-223.2 829.5,-223.2 829.5,-200.2 650.5,-200.2"/>
<text text-anchor="start" x="655.5" y="-209.3" font-family="Helvetica,sans-Serif" font-weight="bold" font-size="11.00" fill="#000000">securitygroups_records</text>
<text text-anchor="start" x="794.5437" y="-208.3" font-family="Helvetica,sans-Serif" font-size="11.00" fill="#000000">[table]</text>
<polygon fill="none" stroke="#000000" points="650.5,-178.2 650.5,-200.2 829.5,-200.2 829.5,-178.2 650.5,-178.2"/>
<image xlink:href="../../images/primaryKeys.png" width="11px" height="12px" preserveAspectRatio="xMinYMin meet" x="655.5" y="-195.2"/>
<text text-anchor="start" x="670.5" y="-185.3" font-family="Helvetica,sans-Serif" font-size="11.00" fill="#000000">id</text>
<polygon fill="#ffffff" stroke="transparent" points="650.5,-156.2 650.5,-178.2 829.5,-178.2 829.5,-156.2 650.5,-156.2"/>
<polygon fill="none" stroke="#000000" points="650.5,-156.2 650.5,-178.2 829.5,-178.2 829.5,-156.2 650.5,-156.2"/>
<image xlink:href="../../images/foreignKeys.png" width="11px" height="12px" preserveAspectRatio="xMinYMin meet" x="655.5" y="-173.2"/>
<text text-anchor="start" x="670.5" y="-163.3" font-family="Helvetica,sans-Serif" font-size="11.00" fill="#000000">securitygroup_id</text>
<polygon fill="#ffffff" stroke="transparent" points="650.5,-134.2 650.5,-156.2 829.5,-156.2 829.5,-134.2 650.5,-134.2"/>
<polygon fill="none" stroke="#000000" points="650.5,-134.2 650.5,-156.2 829.5,-156.2 829.5,-134.2 650.5,-134.2"/>
<image xlink:href="../../images/foreignKeys.png" width="11px" height="12px" preserveAspectRatio="xMinYMin meet" x="655.5" y="-151.2"/>
<text text-anchor="start" x="670.5" y="-141.3" font-family="Helvetica,sans-Serif" font-size="11.00" fill="#000000">record_id</text>
<polygon fill="#ffffff" stroke="transparent" points="650.5,-112.2 650.5,-134.2 829.5,-134.2 829.5,-112.2 650.5,-112.2"/>
<polygon fill="none" stroke="#000000" points="650.5,-112.2 650.5,-134.2 829.5,-134.2 829.5,-112.2 650.5,-112.2"/>
<text text-anchor="start" x="670.5" y="-119.3" font-family="Helvetica,sans-Serif" font-size="11.00" fill="#000000">module</text>
<polygon fill="#ffffff" stroke="transparent" points="650.5,-90.2 650.5,-112.2 829.5,-112.2 829.5,-90.2 650.5,-90.2"/>
<polygon fill="none" stroke="#000000" points="650.5,-90.2 650.5,-112.2 829.5,-112.2 829.5,-90.2 650.5,-90.2"/>
<text text-anchor="start" x="670.5" y="-97.3" font-family="Helvetica,sans-Serif" font-size="11.00" fill="#000000">deleted</text>
<polygon fill="none" stroke="#000000" points="650.5,-71.2 650.5,-90.2 829.5,-90.2 829.5,-71.2 650.5,-71.2"/>
<text text-anchor="start" x="653.5" y="-77.3" font-family="Helvetica,sans-Serif" font-size="11.00" fill="#000000">...</text>
<polygon fill="#ffffff" stroke="transparent" points="650.5,-52.2 650.5,-71.2 741.5,-71.2 741.5,-52.2 650.5,-52.2"/>
<polygon fill="none" stroke="#000000" points="650.5,-52.2 650.5,-71.2 741.5,-71.2 741.5,-52.2 650.5,-52.2"/>
<text text-anchor="start" x="653.5" y="-58.3" font-family="Helvetica,sans-Serif" font-size="11.00" fill="#000000">&lt; 41</text>
<polygon fill="#ffffff" stroke="transparent" points="741.5,-52.2 741.5,-71.2 785.5,-71.2 785.5,-52.2 741.5,-52.2"/>
<polygon fill="none" stroke="#000000" points="741.5,-52.2 741.5,-71.2 785.5,-71.2 785.5,-52.2 741.5,-52.2"/>
<text text-anchor="start" x="776.3862" y="-58.3" font-family="Helvetica,sans-Serif" font-size="11.00" fill="#000000"> &#160;</text>
<polygon fill="#ffffff" stroke="transparent" points="785.5,-52.2 785.5,-71.2 829.5,-71.2 829.5,-52.2 785.5,-52.2"/>
<polygon fill="none" stroke="#000000" points="785.5,-52.2 785.5,-71.2 829.5,-71.2 829.5,-52.2 785.5,-52.2"/>
<text text-anchor="start" x="820.3862" y="-58.3" font-family="Helvetica,sans-Serif" font-size="11.00" fill="#000000"> &#160;</text>
</a>
</g>
</g>
<!-- securitygroups_records&#45;&gt;fp_event_locations -->
<g id="edge7" class="edge">
<title>securitygroups_records:w&#45;&gt;fp_event_locations:e</title>
<path fill="none" stroke="#000000" d="M635.879,-145.9234C584.856,-151.2788 571.4832,-185.902 539,-234.2 501.7597,-289.571 563.2292,-378.2 496.5,-378.2"/>
<polygon fill="#000000" stroke="#000000" points="642.5098,-145.5954 650.6779,-148.7956 646.5049,-145.3977 650.5,-145.2 650.5,-145.2 650.5,-145.2 646.5049,-145.3977 650.3221,-141.6044 642.5098,-145.5954 642.5098,-145.5954"/>
<ellipse fill="none" stroke="#000000" cx="639.3137" cy="-145.7535" rx="3.2" ry="3.2"/>
</g>
</g>
</svg>
