<?xml version="1.0" encoding="UTF-8" standalone="no"?>
<!DOCTYPE svg PUBLIC "-//W3C//DTD SVG 1.1//EN"
 "http://www.w3.org/Graphics/SVG/1.1/DTD/svg11.dtd">
<!-- Generated by graphviz version 2.40.1 (20161225.0304)
 -->
<!-- Title: oneDegreeRelationshipsDiagram Pages: 1 -->
<svg width="623pt" height="479pt"
 viewBox="0.00 0.00 623.00 479.20" xmlns="http://www.w3.org/2000/svg" xmlns:xlink="http://www.w3.org/1999/xlink">
<g id="graph0" class="graph" transform="scale(1 1) rotate(0) translate(4 475.2)">
<title>oneDegreeRelationshipsDiagram</title>
<polygon fill="#ffffff" stroke="transparent" points="-4,4 -4,-475.2 619,-475.2 619,4 -4,4"/>
<text text-anchor="middle" x="72.4936" y="-7.3" font-family="Helvetica,sans-Serif" font-size="11.00" fill="#000000">Generated by SchemaSpy</text>
<!-- fp_events_prospects_1_c -->
<g id="node1" class="node">
<title>fp_events_prospects_1_c</title>
<g id="a_node1"><a xlink:href="../../tables/fp_events_prospects_1_c.html" xlink:title="fp_events_prospects_1_c" target="_top">
<polygon fill="#ffffff" stroke="transparent" points="270,-238.7 270,-460.7 607,-460.7 607,-238.7 270,-238.7"/>
<polygon fill="#f5f5f5" stroke="transparent" points="272.5,-435.7 272.5,-458.7 605.5,-458.7 605.5,-435.7 272.5,-435.7"/>
<polygon fill="none" stroke="#000000" points="272.5,-435.7 272.5,-458.7 605.5,-458.7 605.5,-435.7 272.5,-435.7"/>
<text text-anchor="start" x="277.5" y="-444.8" font-family="Helvetica,sans-Serif" font-weight="bold" font-size="11.00" fill="#000000">fp_events_prospects_1_c</text>
<text text-anchor="start" x="570.5437" y="-443.8" font-family="Helvetica,sans-Serif" font-size="11.00" fill="#000000">[table]</text>
<polygon fill="none" stroke="#000000" points="272.5,-413.7 272.5,-435.7 539.5,-435.7 539.5,-413.7 272.5,-413.7"/>
<image xlink:href="../../images/primaryKeys.png" width="11px" height="12px" preserveAspectRatio="xMinYMin meet" x="277.5" y="-430.7"/>
<text text-anchor="start" x="292.5" y="-420.8" font-family="Helvetica,sans-Serif" font-size="11.00" fill="#000000">id</text>
<polygon fill="none" stroke="#000000" points="539.5,-413.7 539.5,-435.7 605.5,-435.7 605.5,-413.7 539.5,-413.7"/>
<text text-anchor="start" x="542.5" y="-421.4" font-family="Helvetica,sans-Serif" font-size="11.00" fill="#000000">varchar[36]</text>
<polygon fill="none" stroke="#000000" points="272.5,-391.7 272.5,-413.7 539.5,-413.7 539.5,-391.7 272.5,-391.7"/>
<text text-anchor="start" x="292.5" y="-398.8" font-family="Helvetica,sans-Serif" font-size="11.00" fill="#000000">date_modified</text>
<polygon fill="none" stroke="#000000" points="539.5,-391.7 539.5,-413.7 605.5,-413.7 605.5,-391.7 539.5,-391.7"/>
<text text-anchor="start" x="542.2401" y="-399.4" font-family="Helvetica,sans-Serif" font-size="11.00" fill="#000000">datetime[26]</text>
<polygon fill="none" stroke="#000000" points="272.5,-369.7 272.5,-391.7 539.5,-391.7 539.5,-369.7 272.5,-369.7"/>
<text text-anchor="start" x="292.5" y="-376.8" font-family="Helvetica,sans-Serif" font-size="11.00" fill="#000000">deleted</text>
<polygon fill="none" stroke="#000000" points="539.5,-369.7 539.5,-391.7 605.5,-391.7 605.5,-369.7 539.5,-369.7"/>
<text text-anchor="start" x="542.5" y="-377.4" font-family="Helvetica,sans-Serif" font-size="11.00" fill="#000000">bit[1]</text>
<polygon fill="#ffffff" stroke="transparent" points="272.5,-347.7 272.5,-369.7 539.5,-369.7 539.5,-347.7 272.5,-347.7"/>
<polygon fill="none" stroke="#000000" points="272.5,-347.7 272.5,-369.7 539.5,-369.7 539.5,-347.7 272.5,-347.7"/>
<image xlink:href="../../images/foreignKeys.png" width="11px" height="12px" preserveAspectRatio="xMinYMin meet" x="277.5" y="-364.7"/>
<text text-anchor="start" x="292.5" y="-354.8" font-family="Helvetica,sans-Serif" font-size="11.00" fill="#000000">fp_events_prospects_1fp_events_ida</text>
<polygon fill="none" stroke="#000000" points="539.5,-347.7 539.5,-369.7 605.5,-369.7 605.5,-347.7 539.5,-347.7"/>
<text text-anchor="start" x="542.5" y="-355.4" font-family="Helvetica,sans-Serif" font-size="11.00" fill="#000000">varchar[36]</text>
<polygon fill="#ffffff" stroke="transparent" points="272.5,-325.7 272.5,-347.7 539.5,-347.7 539.5,-325.7 272.5,-325.7"/>
<polygon fill="none" stroke="#000000" points="272.5,-325.7 272.5,-347.7 539.5,-347.7 539.5,-325.7 272.5,-325.7"/>
<image xlink:href="../../images/foreignKeys.png" width="11px" height="12px" preserveAspectRatio="xMinYMin meet" x="277.5" y="-342.7"/>
<text text-anchor="start" x="292.5" y="-332.8" font-family="Helvetica,sans-Serif" font-size="11.00" fill="#000000">fp_events_prospects_1prospects_idb</text>
<polygon fill="none" stroke="#000000" points="539.5,-325.7 539.5,-347.7 605.5,-347.7 605.5,-325.7 539.5,-325.7"/>
<text text-anchor="start" x="542.5" y="-333.4" font-family="Helvetica,sans-Serif" font-size="11.00" fill="#000000">varchar[36]</text>
<polygon fill="none" stroke="#000000" points="272.5,-303.7 272.5,-325.7 539.5,-325.7 539.5,-303.7 272.5,-303.7"/>
<text text-anchor="start" x="292.5" y="-310.8" font-family="Helvetica,sans-Serif" font-size="11.00" fill="#000000">invite_status</text>
<polygon fill="none" stroke="#000000" points="539.5,-303.7 539.5,-325.7 605.5,-325.7 605.5,-303.7 539.5,-303.7"/>
<text text-anchor="start" x="542.5" y="-311.4" font-family="Helvetica,sans-Serif" font-size="11.00" fill="#000000">varchar[25]</text>
<polygon fill="none" stroke="#000000" points="272.5,-281.7 272.5,-303.7 539.5,-303.7 539.5,-281.7 272.5,-281.7"/>
<text text-anchor="start" x="292.5" y="-288.8" font-family="Helvetica,sans-Serif" font-size="11.00" fill="#000000">accept_status</text>
<polygon fill="none" stroke="#000000" points="539.5,-281.7 539.5,-303.7 605.5,-303.7 605.5,-281.7 539.5,-281.7"/>
<text text-anchor="start" x="542.5" y="-289.4" font-family="Helvetica,sans-Serif" font-size="11.00" fill="#000000">varchar[25]</text>
<polygon fill="none" stroke="#000000" points="272.5,-259.7 272.5,-281.7 539.5,-281.7 539.5,-259.7 272.5,-259.7"/>
<text text-anchor="start" x="292.5" y="-266.8" font-family="Helvetica,sans-Serif" font-size="11.00" fill="#000000">email_responded</text>
<polygon fill="none" stroke="#000000" points="539.5,-259.7 539.5,-281.7 605.5,-281.7 605.5,-259.7 539.5,-259.7"/>
<text text-anchor="start" x="542.5" y="-267.4" font-family="Helvetica,sans-Serif" font-size="11.00" fill="#000000">int[10]</text>
<polygon fill="#ffffff" stroke="transparent" points="272.5,-240.7 272.5,-259.7 410.5,-259.7 410.5,-240.7 272.5,-240.7"/>
<polygon fill="none" stroke="#000000" points="272.5,-240.7 272.5,-259.7 410.5,-259.7 410.5,-240.7 272.5,-240.7"/>
<text text-anchor="start" x="275.5" y="-246.8" font-family="Helvetica,sans-Serif" font-size="11.00" fill="#000000">&lt; 2</text>
<polygon fill="#ffffff" stroke="transparent" points="410.5,-240.7 410.5,-259.7 539.5,-259.7 539.5,-240.7 410.5,-240.7"/>
<polygon fill="none" stroke="#000000" points="410.5,-240.7 410.5,-259.7 539.5,-259.7 539.5,-240.7 410.5,-240.7"/>
<text text-anchor="start" x="530.3862" y="-246.8" font-family="Helvetica,sans-Serif" font-size="11.00" fill="#000000"> &#160;</text>
<polygon fill="#ffffff" stroke="transparent" points="539.5,-240.7 539.5,-259.7 605.5,-259.7 605.5,-240.7 539.5,-240.7"/>
<polygon fill="none" stroke="#000000" points="539.5,-240.7 539.5,-259.7 605.5,-259.7 605.5,-240.7 539.5,-240.7"/>
<text text-anchor="start" x="586.9053" y="-246.8" font-family="Helvetica,sans-Serif" font-size="11.00" fill="#000000">0 &gt;</text>
<polygon fill="none" stroke="#000000" stroke-width="2" points="271,-239.7 271,-459.7 606,-459.7 606,-239.7 271,-239.7"/>
</a>
</g>
</g>
<!-- fp_events -->
<g id="node2" class="node">
<title>fp_events</title>
<g id="a_node2"><a xlink:href="../../tables/fp_events.html" xlink:title="fp_events" target="_top">
<polygon fill="#ffffff" stroke="transparent" points="36.5,-318.2 36.5,-467.2 192.5,-467.2 192.5,-318.2 36.5,-318.2"/>
<polygon fill="#f5f5f5" stroke="transparent" points="36.5,-443.7 36.5,-466.7 192.5,-466.7 192.5,-443.7 36.5,-443.7"/>
<polygon fill="none" stroke="#000000" points="36.5,-443.7 36.5,-466.7 192.5,-466.7 192.5,-443.7 36.5,-443.7"/>
<text text-anchor="start" x="41.5" y="-452.8" font-family="Helvetica,sans-Serif" font-weight="bold" font-size="11.00" fill="#000000">fp_events</text>
<text text-anchor="start" x="157.5437" y="-451.8" font-family="Helvetica,sans-Serif" font-size="11.00" fill="#000000">[table]</text>
<polygon fill="none" stroke="#000000" points="36.5,-421.7 36.5,-443.7 192.5,-443.7 192.5,-421.7 36.5,-421.7"/>
<image xlink:href="../../images/primaryKeys.png" width="11px" height="12px" preserveAspectRatio="xMinYMin meet" x="41.5" y="-438.7"/>
<text text-anchor="start" x="56.5" y="-428.8" font-family="Helvetica,sans-Serif" font-size="11.00" fill="#000000">id</text>
<polygon fill="#c0c0c0" stroke="transparent" points="36.5,-399.7 36.5,-421.7 192.5,-421.7 192.5,-399.7 36.5,-399.7"/>
<polygon fill="none" stroke="#000000" points="36.5,-399.7 36.5,-421.7 192.5,-421.7 192.5,-399.7 36.5,-399.7"/>
<image xlink:href="../../images/foreignKeys.png" width="11px" height="12px" preserveAspectRatio="xMinYMin meet" x="41.5" y="-416.7"/>
<text text-anchor="start" x="56.5" y="-406.8" font-family="Helvetica,sans-Serif" font-size="11.00" fill="#000000">modified_user_id</text>
<polygon fill="#c0c0c0" stroke="transparent" points="36.5,-377.7 36.5,-399.7 192.5,-399.7 192.5,-377.7 36.5,-377.7"/>
<polygon fill="none" stroke="#000000" points="36.5,-377.7 36.5,-399.7 192.5,-399.7 192.5,-377.7 36.5,-377.7"/>
<image xlink:href="../../images/foreignKeys.png" width="11px" height="12px" preserveAspectRatio="xMinYMin meet" x="41.5" y="-394.7"/>
<text text-anchor="start" x="56.5" y="-384.8" font-family="Helvetica,sans-Serif" font-size="11.00" fill="#000000">created_by</text>
<polygon fill="#c0c0c0" stroke="transparent" points="36.5,-355.7 36.5,-377.7 192.5,-377.7 192.5,-355.7 36.5,-355.7"/>
<polygon fill="none" stroke="#000000" points="36.5,-355.7 36.5,-377.7 192.5,-377.7 192.5,-355.7 36.5,-355.7"/>
<image xlink:href="../../images/foreignKeys.png" width="11px" height="12px" preserveAspectRatio="xMinYMin meet" x="41.5" y="-372.7"/>
<text text-anchor="start" x="56.5" y="-362.8" font-family="Helvetica,sans-Serif" font-size="11.00" fill="#000000">assigned_user_id</text>
<polygon fill="none" stroke="#000000" points="36.5,-336.7 36.5,-355.7 192.5,-355.7 192.5,-336.7 36.5,-336.7"/>
<text text-anchor="start" x="39.5" y="-342.8" font-family="Helvetica,sans-Serif" font-size="11.00" fill="#000000">...</text>
<polygon fill="#ffffff" stroke="transparent" points="36.5,-317.7 36.5,-336.7 108.5,-336.7 108.5,-317.7 36.5,-317.7"/>
<polygon fill="none" stroke="#000000" points="36.5,-317.7 36.5,-336.7 108.5,-336.7 108.5,-317.7 36.5,-317.7"/>
<text text-anchor="start" x="39.5" y="-323.8" font-family="Helvetica,sans-Serif" font-size="11.00" fill="#000000">&lt; 3</text>
<polygon fill="#ffffff" stroke="transparent" points="108.5,-317.7 108.5,-336.7 145.5,-336.7 145.5,-317.7 108.5,-317.7"/>
<polygon fill="none" stroke="#000000" points="108.5,-317.7 108.5,-336.7 145.5,-336.7 145.5,-317.7 108.5,-317.7"/>
<text text-anchor="start" x="136.3862" y="-323.8" font-family="Helvetica,sans-Serif" font-size="11.00" fill="#000000"> &#160;</text>
<polygon fill="#ffffff" stroke="transparent" points="145.5,-317.7 145.5,-336.7 192.5,-336.7 192.5,-317.7 145.5,-317.7"/>
<polygon fill="none" stroke="#000000" points="145.5,-317.7 145.5,-336.7 192.5,-336.7 192.5,-317.7 145.5,-317.7"/>
<text text-anchor="start" x="173.9053" y="-323.8" font-family="Helvetica,sans-Serif" font-size="11.00" fill="#000000">7 &gt;</text>
</a>
</g>
</g>
<!-- fp_events_prospects_1_c&#45;&gt;fp_events -->
<g id="edge1" class="edge">
<title>fp_events_prospects_1_c:w&#45;&gt;fp_events:e</title>
<path fill="none" stroke="#000000" d="M257.9525,-361.5105C227.1225,-375.0275 235.2584,-432.7 192.5,-432.7"/>
<polygon fill="#000000" stroke="#000000" points="264.6452,-360.2176 273.1829,-362.2346 268.5726,-359.4588 272.5,-358.7 272.5,-358.7 272.5,-358.7 268.5726,-359.4588 271.8171,-355.1654 264.6452,-360.2176 264.6452,-360.2176"/>
<ellipse fill="none" stroke="#000000" cx="261.5033" cy="-360.8246" rx="3.2" ry="3.2"/>
</g>
<!-- prospects -->
<g id="node3" class="node">
<title>prospects</title>
<g id="a_node3"><a xlink:href="../../tables/prospects.html" xlink:title="prospects" target="_top">
<polygon fill="#ffffff" stroke="transparent" points="8,-38.2 8,-297.2 221,-297.2 221,-38.2 8,-38.2"/>
<polygon fill="#f5f5f5" stroke="transparent" points="8.5,-273.7 8.5,-296.7 221.5,-296.7 221.5,-273.7 8.5,-273.7"/>
<polygon fill="none" stroke="#000000" points="8.5,-273.7 8.5,-296.7 221.5,-296.7 221.5,-273.7 8.5,-273.7"/>
<text text-anchor="start" x="13.5" y="-282.8" font-family="Helvetica,sans-Serif" font-weight="bold" font-size="11.00" fill="#000000">prospects</text>
<text text-anchor="start" x="186.5437" y="-281.8" font-family="Helvetica,sans-Serif" font-size="11.00" fill="#000000">[table]</text>
<polygon fill="none" stroke="#000000" points="8.5,-251.7 8.5,-273.7 221.5,-273.7 221.5,-251.7 8.5,-251.7"/>
<image xlink:href="../../images/primaryKeys.png" width="11px" height="12px" preserveAspectRatio="xMinYMin meet" x="13.5" y="-268.7"/>
<text text-anchor="start" x="28.5" y="-258.8" font-family="Helvetica,sans-Serif" font-size="11.00" fill="#000000">id</text>
<polygon fill="#c0c0c0" stroke="transparent" points="8.5,-229.7 8.5,-251.7 221.5,-251.7 221.5,-229.7 8.5,-229.7"/>
<polygon fill="none" stroke="#000000" points="8.5,-229.7 8.5,-251.7 221.5,-251.7 221.5,-229.7 8.5,-229.7"/>
<image xlink:href="../../images/foreignKeys.png" width="11px" height="12px" preserveAspectRatio="xMinYMin meet" x="13.5" y="-246.7"/>
<text text-anchor="start" x="28.5" y="-236.8" font-family="Helvetica,sans-Serif" font-size="11.00" fill="#000000">modified_user_id</text>
<polygon fill="#c0c0c0" stroke="transparent" points="8.5,-207.7 8.5,-229.7 221.5,-229.7 221.5,-207.7 8.5,-207.7"/>
<polygon fill="none" stroke="#000000" points="8.5,-207.7 8.5,-229.7 221.5,-229.7 221.5,-207.7 8.5,-207.7"/>
<image xlink:href="../../images/foreignKeys.png" width="11px" height="12px" preserveAspectRatio="xMinYMin meet" x="13.5" y="-224.7"/>
<text text-anchor="start" x="28.5" y="-214.8" font-family="Helvetica,sans-Serif" font-size="11.00" fill="#000000">created_by</text>
<polygon fill="#ffffff" stroke="transparent" points="8.5,-185.7 8.5,-207.7 221.5,-207.7 221.5,-185.7 8.5,-185.7"/>
<polygon fill="none" stroke="#000000" points="8.5,-185.7 8.5,-207.7 221.5,-207.7 221.5,-185.7 8.5,-185.7"/>
<text text-anchor="start" x="28.5" y="-192.8" font-family="Helvetica,sans-Serif" font-size="11.00" fill="#000000">deleted</text>
<polygon fill="#c0c0c0" stroke="transparent" points="8.5,-163.7 8.5,-185.7 221.5,-185.7 221.5,-163.7 8.5,-163.7"/>
<polygon fill="none" stroke="#000000" points="8.5,-163.7 8.5,-185.7 221.5,-185.7 221.5,-163.7 8.5,-163.7"/>
<image xlink:href="../../images/foreignKeys.png" width="11px" height="12px" preserveAspectRatio="xMinYMin meet" x="13.5" y="-180.7"/>
<text text-anchor="start" x="28.5" y="-170.8" font-family="Helvetica,sans-Serif" font-size="11.00" fill="#000000">assigned_user_id</text>
<polygon fill="#ffffff" stroke="transparent" points="8.5,-141.7 8.5,-163.7 221.5,-163.7 221.5,-141.7 8.5,-141.7"/>
<polygon fill="none" stroke="#000000" points="8.5,-141.7 8.5,-163.7 221.5,-163.7 221.5,-141.7 8.5,-141.7"/>
<text text-anchor="start" x="28.5" y="-148.8" font-family="Helvetica,sans-Serif" font-size="11.00" fill="#000000">first_name</text>
<polygon fill="#ffffff" stroke="transparent" points="8.5,-119.7 8.5,-141.7 221.5,-141.7 221.5,-119.7 8.5,-119.7"/>
<polygon fill="none" stroke="#000000" points="8.5,-119.7 8.5,-141.7 221.5,-141.7 221.5,-119.7 8.5,-119.7"/>
<text text-anchor="start" x="28.5" y="-126.8" font-family="Helvetica,sans-Serif" font-size="11.00" fill="#000000">last_name</text>
<polygon fill="#ffffff" stroke="transparent" points="8.5,-97.7 8.5,-119.7 221.5,-119.7 221.5,-97.7 8.5,-97.7"/>
<polygon fill="none" stroke="#000000" points="8.5,-97.7 8.5,-119.7 221.5,-119.7 221.5,-97.7 8.5,-97.7"/>
<text text-anchor="start" x="28.5" y="-104.8" font-family="Helvetica,sans-Serif" font-size="11.00" fill="#000000">tracker_key</text>
<polygon fill="none" stroke="#000000" points="8.5,-75.7 8.5,-97.7 221.5,-97.7 221.5,-75.7 8.5,-75.7"/>
<image xlink:href="../../images/foreignKeys.png" width="11px" height="12px" preserveAspectRatio="xMinYMin meet" x="13.5" y="-92.7"/>
<text text-anchor="start" x="28.5" y="-82.8" font-family="Helvetica,sans-Serif" font-size="11.00" fill="#000000">campaign_id</text>
<polygon fill="none" stroke="#000000" points="8.5,-56.7 8.5,-75.7 221.5,-75.7 221.5,-56.7 8.5,-56.7"/>
<text text-anchor="start" x="11.5" y="-62.8" font-family="Helvetica,sans-Serif" font-size="11.00" fill="#000000">...</text>
<polygon fill="#ffffff" stroke="transparent" points="8.5,-37.7 8.5,-56.7 105.5,-56.7 105.5,-37.7 8.5,-37.7"/>
<polygon fill="none" stroke="#000000" points="8.5,-37.7 8.5,-56.7 105.5,-56.7 105.5,-37.7 8.5,-37.7"/>
<text text-anchor="start" x="11.5" y="-43.8" font-family="Helvetica,sans-Serif" font-size="11.00" fill="#000000">&lt; 5</text>
<polygon fill="#ffffff" stroke="transparent" points="105.5,-37.7 105.5,-56.7 155.5,-56.7 155.5,-37.7 105.5,-37.7"/>
<polygon fill="none" stroke="#000000" points="105.5,-37.7 105.5,-56.7 155.5,-56.7 155.5,-37.7 105.5,-37.7"/>
<text text-anchor="start" x="146.3862" y="-43.8" font-family="Helvetica,sans-Serif" font-size="11.00" fill="#000000"> &#160;</text>
<polygon fill="#ffffff" stroke="transparent" points="155.5,-37.7 155.5,-56.7 221.5,-56.7 221.5,-37.7 155.5,-37.7"/>
<polygon fill="none" stroke="#000000" points="155.5,-37.7 155.5,-56.7 221.5,-56.7 221.5,-37.7 155.5,-37.7"/>
<text text-anchor="start" x="196.7904" y="-43.8" font-family="Helvetica,sans-Serif" font-size="11.00" fill="#000000">12 &gt;</text>
</a>
</g>
</g>
<!-- fp_events_prospects_1_c&#45;&gt;prospects -->
<g id="edge2" class="edge">
<title>fp_events_prospects_1_c:w&#45;&gt;prospects:e</title>
<path fill="none" stroke="#000000" d="M258.5503,-332.071C239.7607,-315.8706 255.3581,-262.7 221.5,-262.7"/>
<polygon fill="#000000" stroke="#000000" points="264.9071,-334.1804 271.3662,-340.1168 268.7036,-335.4402 272.5,-336.7 272.5,-336.7 272.5,-336.7 268.7036,-335.4402 273.6338,-333.2832 264.9071,-334.1804 264.9071,-334.1804"/>
<ellipse fill="none" stroke="#000000" cx="261.87" cy="-333.1725" rx="3.2" ry="3.2"/>
</g>
</g>
</svg>
