<?xml version="1.0" encoding="UTF-8" standalone="no"?>
<!DOCTYPE svg PUBLIC "-//W3C//DTD SVG 1.1//EN"
 "http://www.w3.org/Graphics/SVG/1.1/DTD/svg11.dtd">
<!-- Generated by graphviz version 2.40.1 (20161225.0304)
 -->
<!-- Title: twoDegreesRelationshipsDiagram Pages: 1 -->
<svg width="485pt" height="563pt"
 viewBox="0.00 0.00 485.00 562.70" xmlns="http://www.w3.org/2000/svg" xmlns:xlink="http://www.w3.org/1999/xlink">
<g id="graph0" class="graph" transform="scale(1 1) rotate(0) translate(4 558.7)">
<title>twoDegreesRelationshipsDiagram</title>
<polygon fill="#ffffff" stroke="transparent" points="-4,4 -4,-558.7 481,-558.7 481,4 -4,4"/>
<text text-anchor="middle" x="72.4936" y="-7.3" font-family="Helvetica,sans-Serif" font-size="11.00" fill="#000000">Generated by SchemaSpy</text>
<!-- fp_event_locations_audit -->
<g id="node1" class="node">
<title>fp_event_locations_audit</title>
<g id="a_node1"><a xlink:href="../../tables/fp_event_locations_audit.html" xlink:title="fp_event_locations_audit" target="_top">
<polygon fill="#ffffff" stroke="transparent" points="211,-284.7 211,-550.7 469,-550.7 469,-284.7 211,-284.7"/>
<polygon fill="#f5f5f5" stroke="transparent" points="213,-525.7 213,-548.7 467,-548.7 467,-525.7 213,-525.7"/>
<polygon fill="none" stroke="#000000" points="213,-525.7 213,-548.7 467,-548.7 467,-525.7 213,-525.7"/>
<text text-anchor="start" x="218" y="-534.8" font-family="Helvetica,sans-Serif" font-weight="bold" font-size="11.00" fill="#000000">fp_event_locations_audit</text>
<text text-anchor="start" x="432.0437" y="-533.8" font-family="Helvetica,sans-Serif" font-size="11.00" fill="#000000">[table]</text>
<polygon fill="none" stroke="#000000" points="213,-503.7 213,-525.7 400,-525.7 400,-503.7 213,-503.7"/>
<image xlink:href="../../images/primaryKeys.png" width="11px" height="12px" preserveAspectRatio="xMinYMin meet" x="218" y="-520.7"/>
<text text-anchor="start" x="233" y="-510.8" font-family="Helvetica,sans-Serif" font-size="11.00" fill="#000000">id</text>
<polygon fill="none" stroke="#000000" points="400,-503.7 400,-525.7 467,-525.7 467,-503.7 400,-503.7"/>
<text text-anchor="start" x="403" y="-511.4" font-family="Helvetica,sans-Serif" font-size="11.00" fill="#000000">char[36]</text>
<polygon fill="#ffffff" stroke="transparent" points="213,-481.7 213,-503.7 400,-503.7 400,-481.7 213,-481.7"/>
<polygon fill="none" stroke="#000000" points="213,-481.7 213,-503.7 400,-503.7 400,-481.7 213,-481.7"/>
<image xlink:href="../../images/foreignKeys.png" width="11px" height="12px" preserveAspectRatio="xMinYMin meet" x="218" y="-498.7"/>
<text text-anchor="start" x="233" y="-488.8" font-family="Helvetica,sans-Serif" font-size="11.00" fill="#000000">parent_id</text>
<polygon fill="none" stroke="#000000" points="400,-481.7 400,-503.7 467,-503.7 467,-481.7 400,-481.7"/>
<text text-anchor="start" x="403" y="-489.4" font-family="Helvetica,sans-Serif" font-size="11.00" fill="#000000">char[36]</text>
<polygon fill="none" stroke="#000000" points="213,-459.7 213,-481.7 400,-481.7 400,-459.7 213,-459.7"/>
<text text-anchor="start" x="233" y="-466.8" font-family="Helvetica,sans-Serif" font-size="11.00" fill="#000000">date_created</text>
<polygon fill="none" stroke="#000000" points="400,-459.7 400,-481.7 467,-481.7 467,-459.7 400,-459.7"/>
<text text-anchor="start" x="403" y="-467.4" font-family="Helvetica,sans-Serif" font-size="11.00" fill="#000000">datetime[26]</text>
<polygon fill="none" stroke="#000000" points="213,-437.7 213,-459.7 400,-459.7 400,-437.7 213,-437.7"/>
<text text-anchor="start" x="233" y="-444.8" font-family="Helvetica,sans-Serif" font-size="11.00" fill="#000000">created_by</text>
<polygon fill="none" stroke="#000000" points="400,-437.7 400,-459.7 467,-459.7 467,-437.7 400,-437.7"/>
<text text-anchor="start" x="403" y="-445.4" font-family="Helvetica,sans-Serif" font-size="11.00" fill="#000000">varchar[36]</text>
<polygon fill="none" stroke="#000000" points="213,-415.7 213,-437.7 400,-437.7 400,-415.7 213,-415.7"/>
<text text-anchor="start" x="233" y="-422.8" font-family="Helvetica,sans-Serif" font-size="11.00" fill="#000000">field_name</text>
<polygon fill="none" stroke="#000000" points="400,-415.7 400,-437.7 467,-437.7 467,-415.7 400,-415.7"/>
<text text-anchor="start" x="402.9365" y="-423.4" font-family="Helvetica,sans-Serif" font-size="11.00" fill="#000000">varchar[100]</text>
<polygon fill="none" stroke="#000000" points="213,-393.7 213,-415.7 400,-415.7 400,-393.7 213,-393.7"/>
<text text-anchor="start" x="233" y="-400.8" font-family="Helvetica,sans-Serif" font-size="11.00" fill="#000000">data_type</text>
<polygon fill="none" stroke="#000000" points="400,-393.7 400,-415.7 467,-415.7 467,-393.7 400,-393.7"/>
<text text-anchor="start" x="402.9365" y="-401.4" font-family="Helvetica,sans-Serif" font-size="11.00" fill="#000000">varchar[100]</text>
<polygon fill="none" stroke="#000000" points="213,-371.7 213,-393.7 400,-393.7 400,-371.7 213,-371.7"/>
<text text-anchor="start" x="233" y="-378.8" font-family="Helvetica,sans-Serif" font-size="11.00" fill="#000000">before_value_string</text>
<polygon fill="none" stroke="#000000" points="400,-371.7 400,-393.7 467,-393.7 467,-371.7 400,-371.7"/>
<text text-anchor="start" x="402.9365" y="-379.4" font-family="Helvetica,sans-Serif" font-size="11.00" fill="#000000">varchar[255]</text>
<polygon fill="none" stroke="#000000" points="213,-349.7 213,-371.7 400,-371.7 400,-349.7 213,-349.7"/>
<text text-anchor="start" x="233" y="-356.8" font-family="Helvetica,sans-Serif" font-size="11.00" fill="#000000">after_value_string</text>
<polygon fill="none" stroke="#000000" points="400,-349.7 400,-371.7 467,-371.7 467,-349.7 400,-349.7"/>
<text text-anchor="start" x="402.9365" y="-357.4" font-family="Helvetica,sans-Serif" font-size="11.00" fill="#000000">varchar[255]</text>
<polygon fill="none" stroke="#000000" points="213,-327.7 213,-349.7 400,-349.7 400,-327.7 213,-327.7"/>
<text text-anchor="start" x="233" y="-334.8" font-family="Helvetica,sans-Serif" font-size="11.00" fill="#000000">before_value_text</text>
<polygon fill="none" stroke="#000000" points="400,-327.7 400,-349.7 467,-349.7 467,-327.7 400,-327.7"/>
<text text-anchor="start" x="403" y="-335.4" font-family="Helvetica,sans-Serif" font-size="11.00" fill="#000000">text[65535]</text>
<polygon fill="none" stroke="#000000" points="213,-305.7 213,-327.7 400,-327.7 400,-305.7 213,-305.7"/>
<text text-anchor="start" x="233" y="-312.8" font-family="Helvetica,sans-Serif" font-size="11.00" fill="#000000">after_value_text</text>
<polygon fill="none" stroke="#000000" points="400,-305.7 400,-327.7 467,-327.7 467,-305.7 400,-305.7"/>
<text text-anchor="start" x="403" y="-313.4" font-family="Helvetica,sans-Serif" font-size="11.00" fill="#000000">text[65535]</text>
<polygon fill="#ffffff" stroke="transparent" points="213,-286.7 213,-305.7 311,-305.7 311,-286.7 213,-286.7"/>
<polygon fill="none" stroke="#000000" points="213,-286.7 213,-305.7 311,-305.7 311,-286.7 213,-286.7"/>
<text text-anchor="start" x="216" y="-292.8" font-family="Helvetica,sans-Serif" font-size="11.00" fill="#000000">&lt; 1</text>
<polygon fill="#ffffff" stroke="transparent" points="311,-286.7 311,-305.7 400,-305.7 400,-286.7 311,-286.7"/>
<polygon fill="none" stroke="#000000" points="311,-286.7 311,-305.7 400,-305.7 400,-286.7 311,-286.7"/>
<text text-anchor="start" x="390.8862" y="-292.8" font-family="Helvetica,sans-Serif" font-size="11.00" fill="#000000"> &#160;</text>
<polygon fill="#ffffff" stroke="transparent" points="400,-286.7 400,-305.7 467,-305.7 467,-286.7 400,-286.7"/>
<polygon fill="none" stroke="#000000" points="400,-286.7 400,-305.7 467,-305.7 467,-286.7 400,-286.7"/>
<text text-anchor="start" x="448.4053" y="-292.8" font-family="Helvetica,sans-Serif" font-size="11.00" fill="#000000">0 &gt;</text>
<polygon fill="none" stroke="#000000" stroke-width="2" points="212,-285.7 212,-549.7 468,-549.7 468,-285.7 212,-285.7"/>
</a>
</g>
</g>
<!-- fp_event_locations -->
<g id="node2" class="node">
<title>fp_event_locations</title>
<g id="a_node2"><a xlink:href="../../tables/fp_event_locations.html" xlink:title="fp_event_locations" target="_top">
<polygon fill="#ffffff" stroke="transparent" points="8,-74.2 8,-223.2 162,-223.2 162,-74.2 8,-74.2"/>
<polygon fill="#f5f5f5" stroke="transparent" points="8,-199.7 8,-222.7 162,-222.7 162,-199.7 8,-199.7"/>
<polygon fill="none" stroke="#000000" points="8,-199.7 8,-222.7 162,-222.7 162,-199.7 8,-199.7"/>
<text text-anchor="start" x="13" y="-208.8" font-family="Helvetica,sans-Serif" font-weight="bold" font-size="11.00" fill="#000000">fp_event_locations</text>
<text text-anchor="start" x="127.0437" y="-207.8" font-family="Helvetica,sans-Serif" font-size="11.00" fill="#000000">[table]</text>
<polygon fill="none" stroke="#000000" points="8,-177.7 8,-199.7 162,-199.7 162,-177.7 8,-177.7"/>
<image xlink:href="../../images/primaryKeys.png" width="11px" height="12px" preserveAspectRatio="xMinYMin meet" x="13" y="-194.7"/>
<text text-anchor="start" x="28" y="-184.8" font-family="Helvetica,sans-Serif" font-size="11.00" fill="#000000">id</text>
<polygon fill="#c0c0c0" stroke="transparent" points="8,-155.7 8,-177.7 162,-177.7 162,-155.7 8,-155.7"/>
<polygon fill="none" stroke="#000000" points="8,-155.7 8,-177.7 162,-177.7 162,-155.7 8,-155.7"/>
<image xlink:href="../../images/foreignKeys.png" width="11px" height="12px" preserveAspectRatio="xMinYMin meet" x="13" y="-172.7"/>
<text text-anchor="start" x="28" y="-162.8" font-family="Helvetica,sans-Serif" font-size="11.00" fill="#000000">modified_user_id</text>
<polygon fill="#c0c0c0" stroke="transparent" points="8,-133.7 8,-155.7 162,-155.7 162,-133.7 8,-133.7"/>
<polygon fill="none" stroke="#000000" points="8,-133.7 8,-155.7 162,-155.7 162,-133.7 8,-133.7"/>
<image xlink:href="../../images/foreignKeys.png" width="11px" height="12px" preserveAspectRatio="xMinYMin meet" x="13" y="-150.7"/>
<text text-anchor="start" x="28" y="-140.8" font-family="Helvetica,sans-Serif" font-size="11.00" fill="#000000">created_by</text>
<polygon fill="#c0c0c0" stroke="transparent" points="8,-111.7 8,-133.7 162,-133.7 162,-111.7 8,-111.7"/>
<polygon fill="none" stroke="#000000" points="8,-111.7 8,-133.7 162,-133.7 162,-111.7 8,-111.7"/>
<image xlink:href="../../images/foreignKeys.png" width="11px" height="12px" preserveAspectRatio="xMinYMin meet" x="13" y="-128.7"/>
<text text-anchor="start" x="28" y="-118.8" font-family="Helvetica,sans-Serif" font-size="11.00" fill="#000000">assigned_user_id</text>
<polygon fill="none" stroke="#000000" points="8,-92.7 8,-111.7 162,-111.7 162,-92.7 8,-92.7"/>
<text text-anchor="start" x="11" y="-98.8" font-family="Helvetica,sans-Serif" font-size="11.00" fill="#000000">...</text>
<polygon fill="#ffffff" stroke="transparent" points="8,-73.7 8,-92.7 79,-92.7 79,-73.7 8,-73.7"/>
<polygon fill="none" stroke="#000000" points="8,-73.7 8,-92.7 79,-92.7 79,-73.7 8,-73.7"/>
<text text-anchor="start" x="11" y="-79.8" font-family="Helvetica,sans-Serif" font-size="11.00" fill="#000000">&lt; 3</text>
<polygon fill="#ffffff" stroke="transparent" points="79,-73.7 79,-92.7 116,-92.7 116,-73.7 79,-73.7"/>
<polygon fill="none" stroke="#000000" points="79,-73.7 79,-92.7 116,-92.7 116,-73.7 79,-73.7"/>
<text text-anchor="start" x="106.8862" y="-79.8" font-family="Helvetica,sans-Serif" font-size="11.00" fill="#000000"> &#160;</text>
<polygon fill="#ffffff" stroke="transparent" points="116,-73.7 116,-92.7 162,-92.7 162,-73.7 116,-73.7"/>
<polygon fill="none" stroke="#000000" points="116,-73.7 116,-92.7 162,-92.7 162,-73.7 116,-73.7"/>
<text text-anchor="start" x="143.4053" y="-79.8" font-family="Helvetica,sans-Serif" font-size="11.00" fill="#000000">4 &gt;</text>
</a>
</g>
</g>
<!-- fp_event_locations_audit&#45;&gt;fp_event_locations -->
<g id="edge1" class="edge">
<title>fp_event_locations_audit:w&#45;&gt;fp_event_locations:e</title>
<path fill="none" stroke="#000000" d="M199.3575,-487.164C157.283,-445.9619 225.0143,-188.7 162,-188.7"/>
<polygon fill="#000000" stroke="#000000" points="205.5871,-489.6919 211.6463,-496.0358 209.2935,-491.1959 213,-492.7 213,-492.7 213,-492.7 209.2935,-491.1959 214.3537,-489.3642 205.5871,-489.6919 205.5871,-489.6919"/>
<ellipse fill="none" stroke="#000000" cx="202.6219" cy="-488.4886" rx="3.2" ry="3.2"/>
</g>
<!-- fp_event_locations_fp_events_1_c -->
<g id="node3" class="node">
<title>fp_event_locations_fp_events_1_c</title>
<g id="a_node3"><a xlink:href="../../tables/fp_event_locations_fp_events_1_c.html" xlink:title="fp_event_locations_fp_events_1_c" target="_top">
<polygon fill="#ffffff" stroke="transparent" points="234,-202.2 234,-263.2 446,-263.2 446,-202.2 234,-202.2"/>
<polygon fill="#f5f5f5" stroke="transparent" points="234,-239.7 234,-262.7 446,-262.7 446,-239.7 234,-239.7"/>
<polygon fill="none" stroke="#000000" points="234,-239.7 234,-262.7 446,-262.7 446,-239.7 234,-239.7"/>
<text text-anchor="start" x="238.8253" y="-248.8" font-family="Helvetica,sans-Serif" font-weight="bold" font-size="11.00" fill="#000000">fp_event_locations_fp_events_1_c</text>
<text text-anchor="start" x="411.5219" y="-247.8" font-family="Helvetica,sans-Serif" font-size="11.00" fill="#000000">[table]</text>
<polygon fill="none" stroke="#000000" points="234,-220.7 234,-239.7 446,-239.7 446,-220.7 234,-220.7"/>
<text text-anchor="start" x="237" y="-226.8" font-family="Helvetica,sans-Serif" font-size="11.00" fill="#000000">...</text>
<polygon fill="#ffffff" stroke="transparent" points="234,-201.7 234,-220.7 338,-220.7 338,-201.7 234,-201.7"/>
<polygon fill="none" stroke="#000000" points="234,-201.7 234,-220.7 338,-220.7 338,-201.7 234,-201.7"/>
<text text-anchor="start" x="237" y="-207.8" font-family="Helvetica,sans-Serif" font-size="11.00" fill="#000000">&lt; 2</text>
<polygon fill="#ffffff" stroke="transparent" points="338,-201.7 338,-220.7 392,-220.7 392,-201.7 338,-201.7"/>
<polygon fill="none" stroke="#000000" points="338,-201.7 338,-220.7 392,-220.7 392,-201.7 338,-201.7"/>
<text text-anchor="start" x="382.8862" y="-207.8" font-family="Helvetica,sans-Serif" font-size="11.00" fill="#000000"> &#160;</text>
<polygon fill="#ffffff" stroke="transparent" points="392,-201.7 392,-220.7 446,-220.7 446,-201.7 392,-201.7"/>
<polygon fill="none" stroke="#000000" points="392,-201.7 392,-220.7 446,-220.7 446,-201.7 392,-201.7"/>
<text text-anchor="start" x="436.8862" y="-207.8" font-family="Helvetica,sans-Serif" font-size="11.00" fill="#000000"> &#160;</text>
</a>
</g>
</g>
<!-- fp_event_locations_fp_events_1_c&#45;&gt;fp_event_locations -->
<g id="edge2" class="edge">
<title>fp_event_locations_fp_events_1_c:w&#45;&gt;fp_event_locations:e</title>
<path fill="none" stroke="#000000" d="M219.5767,-227.1353C196.785,-218.1594 193.2146,-188.7 162,-188.7"/>
<polygon fill="#000000" stroke="#000000" points="226.1236,-228.2994 233.3697,-233.2444 230.0618,-228.9997 234,-229.7 234,-229.7 234,-229.7 230.0618,-228.9997 234.6303,-226.1556 226.1236,-228.2994 226.1236,-228.2994"/>
<ellipse fill="none" stroke="#000000" cx="222.973" cy="-227.7391" rx="3.2" ry="3.2"/>
</g>
<!-- fp_events_fp_event_locations_1_c -->
<g id="node4" class="node">
<title>fp_events_fp_event_locations_1_c</title>
<g id="a_node4"><a xlink:href="../../tables/fp_events_fp_event_locations_1_c.html" xlink:title="fp_events_fp_event_locations_1_c" target="_top">
<polygon fill="#ffffff" stroke="transparent" points="234,-120.2 234,-181.2 446,-181.2 446,-120.2 234,-120.2"/>
<polygon fill="#f5f5f5" stroke="transparent" points="234,-157.7 234,-180.7 446,-180.7 446,-157.7 234,-157.7"/>
<polygon fill="none" stroke="#000000" points="234,-157.7 234,-180.7 446,-180.7 446,-157.7 234,-157.7"/>
<text text-anchor="start" x="238.8253" y="-166.8" font-family="Helvetica,sans-Serif" font-weight="bold" font-size="11.00" fill="#000000">fp_events_fp_event_locations_1_c</text>
<text text-anchor="start" x="411.5219" y="-165.8" font-family="Helvetica,sans-Serif" font-size="11.00" fill="#000000">[table]</text>
<polygon fill="none" stroke="#000000" points="234,-138.7 234,-157.7 446,-157.7 446,-138.7 234,-138.7"/>
<text text-anchor="start" x="237" y="-144.8" font-family="Helvetica,sans-Serif" font-size="11.00" fill="#000000">...</text>
<polygon fill="#ffffff" stroke="transparent" points="234,-119.7 234,-138.7 338,-138.7 338,-119.7 234,-119.7"/>
<polygon fill="none" stroke="#000000" points="234,-119.7 234,-138.7 338,-138.7 338,-119.7 234,-119.7"/>
<text text-anchor="start" x="237" y="-125.8" font-family="Helvetica,sans-Serif" font-size="11.00" fill="#000000">&lt; 2</text>
<polygon fill="#ffffff" stroke="transparent" points="338,-119.7 338,-138.7 392,-138.7 392,-119.7 338,-119.7"/>
<polygon fill="none" stroke="#000000" points="338,-119.7 338,-138.7 392,-138.7 392,-119.7 338,-119.7"/>
<text text-anchor="start" x="382.8862" y="-125.8" font-family="Helvetica,sans-Serif" font-size="11.00" fill="#000000"> &#160;</text>
<polygon fill="#ffffff" stroke="transparent" points="392,-119.7 392,-138.7 446,-138.7 446,-119.7 392,-119.7"/>
<polygon fill="none" stroke="#000000" points="392,-119.7 392,-138.7 446,-138.7 446,-119.7 392,-119.7"/>
<text text-anchor="start" x="436.8862" y="-125.8" font-family="Helvetica,sans-Serif" font-size="11.00" fill="#000000"> &#160;</text>
</a>
</g>
</g>
<!-- fp_events_fp_event_locations_1_c&#45;&gt;fp_event_locations -->
<g id="edge3" class="edge">
<title>fp_events_fp_event_locations_1_c:w&#45;&gt;fp_event_locations:e</title>
<path fill="none" stroke="#000000" d="M219.5767,-150.2647C196.785,-159.2406 193.2146,-188.7 162,-188.7"/>
<polygon fill="#000000" stroke="#000000" points="226.1236,-149.1006 234.6303,-151.2444 230.0618,-148.4003 234,-147.7 234,-147.7 234,-147.7 230.0618,-148.4003 233.3697,-144.1556 226.1236,-149.1006 226.1236,-149.1006"/>
<ellipse fill="none" stroke="#000000" cx="222.973" cy="-149.6609" rx="3.2" ry="3.2"/>
</g>
<!-- securitygroups_records -->
<g id="node5" class="node">
<title>securitygroups_records</title>
<g id="a_node5"><a xlink:href="../../tables/securitygroups_records.html" xlink:title="securitygroups_records" target="_top">
<polygon fill="#ffffff" stroke="transparent" points="261.5,-38.2 261.5,-99.2 418.5,-99.2 418.5,-38.2 261.5,-38.2"/>
<polygon fill="#f5f5f5" stroke="transparent" points="262,-75.7 262,-98.7 419,-98.7 419,-75.7 262,-75.7"/>
<polygon fill="none" stroke="#000000" points="262,-75.7 262,-98.7 419,-98.7 419,-75.7 262,-75.7"/>
<text text-anchor="start" x="266.8528" y="-84.8" font-family="Helvetica,sans-Serif" font-weight="bold" font-size="11.00" fill="#000000">securitygroups_records</text>
<text text-anchor="start" x="384.5219" y="-83.8" font-family="Helvetica,sans-Serif" font-size="11.00" fill="#000000">[table]</text>
<polygon fill="none" stroke="#000000" points="262,-56.7 262,-75.7 419,-75.7 419,-56.7 262,-56.7"/>
<text text-anchor="start" x="265" y="-62.8" font-family="Helvetica,sans-Serif" font-size="11.00" fill="#000000">...</text>
<polygon fill="#ffffff" stroke="transparent" points="262,-37.7 262,-56.7 342,-56.7 342,-37.7 262,-37.7"/>
<polygon fill="none" stroke="#000000" points="262,-37.7 262,-56.7 342,-56.7 342,-37.7 262,-37.7"/>
<text text-anchor="start" x="265" y="-43.8" font-family="Helvetica,sans-Serif" font-size="11.00" fill="#000000">&lt; 41</text>
<polygon fill="#ffffff" stroke="transparent" points="342,-37.7 342,-56.7 380,-56.7 380,-37.7 342,-37.7"/>
<polygon fill="none" stroke="#000000" points="342,-37.7 342,-56.7 380,-56.7 380,-37.7 342,-37.7"/>
<text text-anchor="start" x="370.8862" y="-43.8" font-family="Helvetica,sans-Serif" font-size="11.00" fill="#000000"> &#160;</text>
<polygon fill="#ffffff" stroke="transparent" points="380,-37.7 380,-56.7 419,-56.7 419,-37.7 380,-37.7"/>
<polygon fill="none" stroke="#000000" points="380,-37.7 380,-56.7 419,-56.7 419,-37.7 380,-37.7"/>
<text text-anchor="start" x="409.8862" y="-43.8" font-family="Helvetica,sans-Serif" font-size="11.00" fill="#000000"> &#160;</text>
</a>
</g>
</g>
<!-- securitygroups_records&#45;&gt;fp_event_locations -->
<g id="edge4" class="edge">
<title>securitygroups_records:w&#45;&gt;fp_event_locations:e</title>
<path fill="none" stroke="#000000" d="M247.6461,-67.2517C227.1197,-72.2726 220.6243,-88.9602 203,-109.7 177.3841,-139.8441 201.5581,-188.7 162,-188.7"/>
<polygon fill="#000000" stroke="#000000" points="254.0463,-66.5599 262.3869,-69.2791 258.0232,-66.1299 262,-65.7 262,-65.7 262,-65.7 258.0232,-66.1299 261.6131,-62.1209 254.0463,-66.5599 254.0463,-66.5599"/>
<ellipse fill="none" stroke="#000000" cx="250.8649" cy="-66.9038" rx="3.2" ry="3.2"/>
</g>
</g>
</svg>
