<?xml version="1.0" encoding="UTF-8" standalone="no"?>
<!DOCTYPE svg PUBLIC "-//W3C//DTD SVG 1.1//EN"
 "http://www.w3.org/Graphics/SVG/1.1/DTD/svg11.dtd">
<!-- Generated by graphviz version 2.40.1 (20161225.0304)
 -->
<!-- Title: oneDegreeRelationshipsDiagram Pages: 1 -->
<svg width="954pt" height="1087pt"
 viewBox="0.00 0.00 954.00 1087.20" xmlns="http://www.w3.org/2000/svg" xmlns:xlink="http://www.w3.org/1999/xlink">
<g id="graph0" class="graph" transform="scale(1 1) rotate(0) translate(4 1083.2)">
<title>oneDegreeRelationshipsDiagram</title>
<polygon fill="#ffffff" stroke="transparent" points="-4,4 -4,-1083.2 950,-1083.2 950,4 -4,4"/>
<text text-anchor="middle" x="72.4936" y="-7.3" font-family="Helvetica,sans-Serif" font-size="11.00" fill="#000000">Generated by SchemaSpy</text>
<!-- fp_event_locations_fp_events_1_c -->
<g id="node1" class="node">
<title>fp_event_locations_fp_events_1_c</title>
<g id="a_node1"><a xlink:href="../../tables/fp_event_locations_fp_events_1_c.html" xlink:title="fp_event_locations_fp_events_1_c" target="_top">
<polygon fill="#ffffff" stroke="transparent" points="553.5,-948.2 553.5,-1075.2 937.5,-1075.2 937.5,-948.2 553.5,-948.2"/>
<polygon fill="#f5f5f5" stroke="transparent" points="553.5,-1051.7 553.5,-1074.7 937.5,-1074.7 937.5,-1051.7 553.5,-1051.7"/>
<polygon fill="none" stroke="#000000" points="553.5,-1051.7 553.5,-1074.7 937.5,-1074.7 937.5,-1051.7 553.5,-1051.7"/>
<text text-anchor="start" x="558.5" y="-1060.8" font-family="Helvetica,sans-Serif" font-weight="bold" font-size="11.00" fill="#000000">fp_event_locations_fp_events_1_c</text>
<text text-anchor="start" x="902.5437" y="-1059.8" font-family="Helvetica,sans-Serif" font-size="11.00" fill="#000000">[table]</text>
<polygon fill="none" stroke="#000000" points="553.5,-1029.7 553.5,-1051.7 937.5,-1051.7 937.5,-1029.7 553.5,-1029.7"/>
<image xlink:href="../../images/primaryKeys.png" width="11px" height="12px" preserveAspectRatio="xMinYMin meet" x="558.5" y="-1046.7"/>
<text text-anchor="start" x="573.5" y="-1036.8" font-family="Helvetica,sans-Serif" font-size="11.00" fill="#000000">id</text>
<polygon fill="#ffffff" stroke="transparent" points="553.5,-1007.7 553.5,-1029.7 937.5,-1029.7 937.5,-1007.7 553.5,-1007.7"/>
<polygon fill="none" stroke="#000000" points="553.5,-1007.7 553.5,-1029.7 937.5,-1029.7 937.5,-1007.7 553.5,-1007.7"/>
<image xlink:href="../../images/foreignKeys.png" width="11px" height="12px" preserveAspectRatio="xMinYMin meet" x="558.5" y="-1024.7"/>
<text text-anchor="start" x="573.5" y="-1014.8" font-family="Helvetica,sans-Serif" font-size="11.00" fill="#000000">fp_event_locations_fp_events_1fp_event_locations_ida</text>
<polygon fill="#ffffff" stroke="transparent" points="553.5,-985.7 553.5,-1007.7 937.5,-1007.7 937.5,-985.7 553.5,-985.7"/>
<polygon fill="none" stroke="#000000" points="553.5,-985.7 553.5,-1007.7 937.5,-1007.7 937.5,-985.7 553.5,-985.7"/>
<image xlink:href="../../images/foreignKeys.png" width="11px" height="12px" preserveAspectRatio="xMinYMin meet" x="558.5" y="-1002.7"/>
<text text-anchor="start" x="573.5" y="-992.8" font-family="Helvetica,sans-Serif" font-size="11.00" fill="#000000">fp_event_locations_fp_events_1fp_events_idb</text>
<polygon fill="none" stroke="#000000" points="553.5,-966.7 553.5,-985.7 937.5,-985.7 937.5,-966.7 553.5,-966.7"/>
<text text-anchor="start" x="556.5" y="-972.8" font-family="Helvetica,sans-Serif" font-size="11.00" fill="#000000">...</text>
<polygon fill="#ffffff" stroke="transparent" points="553.5,-947.7 553.5,-966.7 743.5,-966.7 743.5,-947.7 553.5,-947.7"/>
<polygon fill="none" stroke="#000000" points="553.5,-947.7 553.5,-966.7 743.5,-966.7 743.5,-947.7 553.5,-947.7"/>
<text text-anchor="start" x="556.5" y="-953.8" font-family="Helvetica,sans-Serif" font-size="11.00" fill="#000000">&lt; 2</text>
<polygon fill="#ffffff" stroke="transparent" points="743.5,-947.7 743.5,-966.7 840.5,-966.7 840.5,-947.7 743.5,-947.7"/>
<polygon fill="none" stroke="#000000" points="743.5,-947.7 743.5,-966.7 840.5,-966.7 840.5,-947.7 743.5,-947.7"/>
<text text-anchor="start" x="831.3862" y="-953.8" font-family="Helvetica,sans-Serif" font-size="11.00" fill="#000000"> &#160;</text>
<polygon fill="#ffffff" stroke="transparent" points="840.5,-947.7 840.5,-966.7 937.5,-966.7 937.5,-947.7 840.5,-947.7"/>
<polygon fill="none" stroke="#000000" points="840.5,-947.7 840.5,-966.7 937.5,-966.7 937.5,-947.7 840.5,-947.7"/>
<text text-anchor="start" x="928.3862" y="-953.8" font-family="Helvetica,sans-Serif" font-size="11.00" fill="#000000"> &#160;</text>
</a>
</g>
</g>
<!-- fp_events -->
<g id="node2" class="node">
<title>fp_events</title>
<g id="a_node2"><a xlink:href="../../tables/fp_events.html" xlink:title="fp_events" target="_top">
<polygon fill="#ffffff" stroke="transparent" points="273,-168.7 273,-632.7 504,-632.7 504,-168.7 273,-168.7"/>
<polygon fill="#f5f5f5" stroke="transparent" points="275.5,-607.7 275.5,-630.7 502.5,-630.7 502.5,-607.7 275.5,-607.7"/>
<polygon fill="none" stroke="#000000" points="275.5,-607.7 275.5,-630.7 502.5,-630.7 502.5,-607.7 275.5,-607.7"/>
<text text-anchor="start" x="280.5" y="-616.8" font-family="Helvetica,sans-Serif" font-weight="bold" font-size="11.00" fill="#000000">fp_events</text>
<text text-anchor="start" x="467.5437" y="-615.8" font-family="Helvetica,sans-Serif" font-size="11.00" fill="#000000">[table]</text>
<polygon fill="none" stroke="#000000" points="275.5,-585.7 275.5,-607.7 431.5,-607.7 431.5,-585.7 275.5,-585.7"/>
<image xlink:href="../../images/primaryKeys.png" width="11px" height="12px" preserveAspectRatio="xMinYMin meet" x="280.5" y="-602.7"/>
<text text-anchor="start" x="295.5" y="-592.8" font-family="Helvetica,sans-Serif" font-size="11.00" fill="#000000">id</text>
<polygon fill="none" stroke="#000000" points="431.5,-585.7 431.5,-607.7 502.5,-607.7 502.5,-585.7 431.5,-585.7"/>
<text text-anchor="start" x="434.5" y="-593.4" font-family="Helvetica,sans-Serif" font-size="11.00" fill="#000000">char[36]</text>
<polygon fill="none" stroke="#000000" points="275.5,-563.7 275.5,-585.7 431.5,-585.7 431.5,-563.7 275.5,-563.7"/>
<text text-anchor="start" x="295.5" y="-570.8" font-family="Helvetica,sans-Serif" font-size="11.00" fill="#000000">name</text>
<polygon fill="none" stroke="#000000" points="431.5,-563.7 431.5,-585.7 502.5,-585.7 502.5,-563.7 431.5,-563.7"/>
<text text-anchor="start" x="434.5" y="-571.4" font-family="Helvetica,sans-Serif" font-size="11.00" fill="#000000">varchar[255]</text>
<polygon fill="none" stroke="#000000" points="275.5,-541.7 275.5,-563.7 431.5,-563.7 431.5,-541.7 275.5,-541.7"/>
<text text-anchor="start" x="295.5" y="-548.8" font-family="Helvetica,sans-Serif" font-size="11.00" fill="#000000">date_entered</text>
<polygon fill="none" stroke="#000000" points="431.5,-541.7 431.5,-563.7 502.5,-563.7 502.5,-541.7 431.5,-541.7"/>
<text text-anchor="start" x="434.5" y="-549.4" font-family="Helvetica,sans-Serif" font-size="11.00" fill="#000000">datetime[26]</text>
<polygon fill="none" stroke="#000000" points="275.5,-519.7 275.5,-541.7 431.5,-541.7 431.5,-519.7 275.5,-519.7"/>
<text text-anchor="start" x="295.5" y="-526.8" font-family="Helvetica,sans-Serif" font-size="11.00" fill="#000000">date_modified</text>
<polygon fill="none" stroke="#000000" points="431.5,-519.7 431.5,-541.7 502.5,-541.7 502.5,-519.7 431.5,-519.7"/>
<text text-anchor="start" x="434.5" y="-527.4" font-family="Helvetica,sans-Serif" font-size="11.00" fill="#000000">datetime[26]</text>
<polygon fill="none" stroke="#000000" points="275.5,-497.7 275.5,-519.7 431.5,-519.7 431.5,-497.7 275.5,-497.7"/>
<image xlink:href="../../images/foreignKeys.png" width="11px" height="12px" preserveAspectRatio="xMinYMin meet" x="280.5" y="-514.7"/>
<text text-anchor="start" x="295.5" y="-504.8" font-family="Helvetica,sans-Serif" font-size="11.00" fill="#000000">modified_user_id</text>
<polygon fill="none" stroke="#000000" points="431.5,-497.7 431.5,-519.7 502.5,-519.7 502.5,-497.7 431.5,-497.7"/>
<text text-anchor="start" x="434.5" y="-505.4" font-family="Helvetica,sans-Serif" font-size="11.00" fill="#000000">char[36]</text>
<polygon fill="none" stroke="#000000" points="275.5,-475.7 275.5,-497.7 431.5,-497.7 431.5,-475.7 275.5,-475.7"/>
<image xlink:href="../../images/foreignKeys.png" width="11px" height="12px" preserveAspectRatio="xMinYMin meet" x="280.5" y="-492.7"/>
<text text-anchor="start" x="295.5" y="-482.8" font-family="Helvetica,sans-Serif" font-size="11.00" fill="#000000">created_by</text>
<polygon fill="none" stroke="#000000" points="431.5,-475.7 431.5,-497.7 502.5,-497.7 502.5,-475.7 431.5,-475.7"/>
<text text-anchor="start" x="434.5" y="-483.4" font-family="Helvetica,sans-Serif" font-size="11.00" fill="#000000">char[36]</text>
<polygon fill="none" stroke="#000000" points="275.5,-453.7 275.5,-475.7 431.5,-475.7 431.5,-453.7 275.5,-453.7"/>
<text text-anchor="start" x="295.5" y="-460.8" font-family="Helvetica,sans-Serif" font-size="11.00" fill="#000000">description</text>
<polygon fill="none" stroke="#000000" points="431.5,-453.7 431.5,-475.7 502.5,-475.7 502.5,-453.7 431.5,-453.7"/>
<text text-anchor="start" x="434.5" y="-461.4" font-family="Helvetica,sans-Serif" font-size="11.00" fill="#000000">text[65535]</text>
<polygon fill="none" stroke="#000000" points="275.5,-431.7 275.5,-453.7 431.5,-453.7 431.5,-431.7 275.5,-431.7"/>
<text text-anchor="start" x="295.5" y="-438.8" font-family="Helvetica,sans-Serif" font-size="11.00" fill="#000000">deleted</text>
<polygon fill="none" stroke="#000000" points="431.5,-431.7 431.5,-453.7 502.5,-453.7 502.5,-431.7 431.5,-431.7"/>
<text text-anchor="start" x="434.5" y="-439.4" font-family="Helvetica,sans-Serif" font-size="11.00" fill="#000000">bit[1]</text>
<polygon fill="none" stroke="#000000" points="275.5,-409.7 275.5,-431.7 431.5,-431.7 431.5,-409.7 275.5,-409.7"/>
<image xlink:href="../../images/foreignKeys.png" width="11px" height="12px" preserveAspectRatio="xMinYMin meet" x="280.5" y="-426.7"/>
<text text-anchor="start" x="295.5" y="-416.8" font-family="Helvetica,sans-Serif" font-size="11.00" fill="#000000">assigned_user_id</text>
<polygon fill="none" stroke="#000000" points="431.5,-409.7 431.5,-431.7 502.5,-431.7 502.5,-409.7 431.5,-409.7"/>
<text text-anchor="start" x="434.5" y="-417.4" font-family="Helvetica,sans-Serif" font-size="11.00" fill="#000000">char[36]</text>
<polygon fill="none" stroke="#000000" points="275.5,-387.7 275.5,-409.7 431.5,-409.7 431.5,-387.7 275.5,-387.7"/>
<text text-anchor="start" x="295.5" y="-394.8" font-family="Helvetica,sans-Serif" font-size="11.00" fill="#000000">duration_hours</text>
<polygon fill="none" stroke="#000000" points="431.5,-387.7 431.5,-409.7 502.5,-409.7 502.5,-387.7 431.5,-387.7"/>
<text text-anchor="start" x="434.5" y="-395.4" font-family="Helvetica,sans-Serif" font-size="11.00" fill="#000000">int[10]</text>
<polygon fill="none" stroke="#000000" points="275.5,-365.7 275.5,-387.7 431.5,-387.7 431.5,-365.7 275.5,-365.7"/>
<text text-anchor="start" x="295.5" y="-372.8" font-family="Helvetica,sans-Serif" font-size="11.00" fill="#000000">duration_minutes</text>
<polygon fill="none" stroke="#000000" points="431.5,-365.7 431.5,-387.7 502.5,-387.7 502.5,-365.7 431.5,-365.7"/>
<text text-anchor="start" x="434.5" y="-373.4" font-family="Helvetica,sans-Serif" font-size="11.00" fill="#000000">int[10]</text>
<polygon fill="none" stroke="#000000" points="275.5,-343.7 275.5,-365.7 431.5,-365.7 431.5,-343.7 275.5,-343.7"/>
<text text-anchor="start" x="295.5" y="-350.8" font-family="Helvetica,sans-Serif" font-size="11.00" fill="#000000">date_start</text>
<polygon fill="none" stroke="#000000" points="431.5,-343.7 431.5,-365.7 502.5,-365.7 502.5,-343.7 431.5,-343.7"/>
<text text-anchor="start" x="434.5" y="-351.4" font-family="Helvetica,sans-Serif" font-size="11.00" fill="#000000">datetime[26]</text>
<polygon fill="none" stroke="#000000" points="275.5,-321.7 275.5,-343.7 431.5,-343.7 431.5,-321.7 275.5,-321.7"/>
<text text-anchor="start" x="295.5" y="-328.8" font-family="Helvetica,sans-Serif" font-size="11.00" fill="#000000">date_end</text>
<polygon fill="none" stroke="#000000" points="431.5,-321.7 431.5,-343.7 502.5,-343.7 502.5,-321.7 431.5,-321.7"/>
<text text-anchor="start" x="434.5" y="-329.4" font-family="Helvetica,sans-Serif" font-size="11.00" fill="#000000">datetime[26]</text>
<polygon fill="none" stroke="#000000" points="275.5,-299.7 275.5,-321.7 431.5,-321.7 431.5,-299.7 275.5,-299.7"/>
<text text-anchor="start" x="295.5" y="-306.8" font-family="Helvetica,sans-Serif" font-size="11.00" fill="#000000">budget</text>
<polygon fill="none" stroke="#000000" points="431.5,-299.7 431.5,-321.7 502.5,-321.7 502.5,-299.7 431.5,-299.7"/>
<text text-anchor="start" x="434.2981" y="-307.4" font-family="Helvetica,sans-Serif" font-size="11.00" fill="#000000">decimal[26,6]</text>
<polygon fill="none" stroke="#000000" points="275.5,-277.7 275.5,-299.7 431.5,-299.7 431.5,-277.7 275.5,-277.7"/>
<text text-anchor="start" x="295.5" y="-284.8" font-family="Helvetica,sans-Serif" font-size="11.00" fill="#000000">currency_id</text>
<polygon fill="none" stroke="#000000" points="431.5,-277.7 431.5,-299.7 502.5,-299.7 502.5,-277.7 431.5,-277.7"/>
<text text-anchor="start" x="434.5" y="-285.4" font-family="Helvetica,sans-Serif" font-size="11.00" fill="#000000">char[36]</text>
<polygon fill="none" stroke="#000000" points="275.5,-255.7 275.5,-277.7 431.5,-277.7 431.5,-255.7 275.5,-255.7"/>
<text text-anchor="start" x="295.5" y="-262.8" font-family="Helvetica,sans-Serif" font-size="11.00" fill="#000000">invite_templates</text>
<polygon fill="none" stroke="#000000" points="431.5,-255.7 431.5,-277.7 502.5,-277.7 502.5,-255.7 431.5,-255.7"/>
<text text-anchor="start" x="434.5" y="-263.4" font-family="Helvetica,sans-Serif" font-size="11.00" fill="#000000">varchar[100]</text>
<polygon fill="none" stroke="#000000" points="275.5,-233.7 275.5,-255.7 431.5,-255.7 431.5,-233.7 275.5,-233.7"/>
<text text-anchor="start" x="295.5" y="-240.8" font-family="Helvetica,sans-Serif" font-size="11.00" fill="#000000">accept_redirect</text>
<polygon fill="none" stroke="#000000" points="431.5,-233.7 431.5,-255.7 502.5,-255.7 502.5,-233.7 431.5,-233.7"/>
<text text-anchor="start" x="434.5" y="-241.4" font-family="Helvetica,sans-Serif" font-size="11.00" fill="#000000">varchar[255]</text>
<polygon fill="none" stroke="#000000" points="275.5,-211.7 275.5,-233.7 431.5,-233.7 431.5,-211.7 275.5,-211.7"/>
<text text-anchor="start" x="295.5" y="-218.8" font-family="Helvetica,sans-Serif" font-size="11.00" fill="#000000">decline_redirect</text>
<polygon fill="none" stroke="#000000" points="431.5,-211.7 431.5,-233.7 502.5,-233.7 502.5,-211.7 431.5,-211.7"/>
<text text-anchor="start" x="434.5" y="-219.4" font-family="Helvetica,sans-Serif" font-size="11.00" fill="#000000">varchar[255]</text>
<polygon fill="none" stroke="#000000" points="275.5,-189.7 275.5,-211.7 431.5,-211.7 431.5,-189.7 275.5,-189.7"/>
<text text-anchor="start" x="295.5" y="-196.8" font-family="Helvetica,sans-Serif" font-size="11.00" fill="#000000">activity_status_type</text>
<polygon fill="none" stroke="#000000" points="431.5,-189.7 431.5,-211.7 502.5,-211.7 502.5,-189.7 431.5,-189.7"/>
<text text-anchor="start" x="434.5" y="-197.4" font-family="Helvetica,sans-Serif" font-size="11.00" fill="#000000">varchar[255]</text>
<polygon fill="#ffffff" stroke="transparent" points="275.5,-170.7 275.5,-189.7 357.5,-189.7 357.5,-170.7 275.5,-170.7"/>
<polygon fill="none" stroke="#000000" points="275.5,-170.7 275.5,-189.7 357.5,-189.7 357.5,-170.7 275.5,-170.7"/>
<text text-anchor="start" x="278.5" y="-176.8" font-family="Helvetica,sans-Serif" font-size="11.00" fill="#000000">&lt; 3</text>
<polygon fill="#ffffff" stroke="transparent" points="357.5,-170.7 357.5,-189.7 431.5,-189.7 431.5,-170.7 357.5,-170.7"/>
<polygon fill="none" stroke="#000000" points="357.5,-170.7 357.5,-189.7 431.5,-189.7 431.5,-170.7 357.5,-170.7"/>
<text text-anchor="start" x="422.3862" y="-176.8" font-family="Helvetica,sans-Serif" font-size="11.00" fill="#000000"> &#160;</text>
<polygon fill="#ffffff" stroke="transparent" points="431.5,-170.7 431.5,-189.7 502.5,-189.7 502.5,-170.7 431.5,-170.7"/>
<polygon fill="none" stroke="#000000" points="431.5,-170.7 431.5,-189.7 502.5,-189.7 502.5,-170.7 431.5,-170.7"/>
<text text-anchor="start" x="483.9053" y="-176.8" font-family="Helvetica,sans-Serif" font-size="11.00" fill="#000000">7 &gt;</text>
<polygon fill="none" stroke="#000000" stroke-width="2" points="274,-169.7 274,-631.7 503,-631.7 503,-169.7 274,-169.7"/>
</a>
</g>
</g>
<!-- fp_event_locations_fp_events_1_c&#45;&gt;fp_events -->
<g id="edge1" class="edge">
<title>fp_event_locations_fp_events_1_c:w&#45;&gt;fp_events:e</title>
<path fill="none" stroke="#000000" d="M539.5224,-992.4785C478.6193,-949.7289 586.683,-596.7 502.5,-596.7"/>
<polygon fill="#000000" stroke="#000000" points="545.8417,-994.387 552.4591,-1000.1463 549.6708,-995.5435 553.5,-996.7 553.5,-996.7 553.5,-996.7 549.6708,-995.5435 554.5409,-993.2537 545.8417,-994.387 545.8417,-994.387"/>
<ellipse fill="none" stroke="#000000" cx="542.7783" cy="-993.4618" rx="3.2" ry="3.2"/>
</g>
<!-- users -->
<g id="node3" class="node">
<title>users</title>
<g id="a_node3"><a xlink:href="../../tables/users.html" xlink:title="users" target="_top">
<polygon fill="#ffffff" stroke="transparent" points="8,-306.2 8,-521.2 224,-521.2 224,-306.2 8,-306.2"/>
<polygon fill="#f5f5f5" stroke="transparent" points="8,-497.7 8,-520.7 224,-520.7 224,-497.7 8,-497.7"/>
<polygon fill="none" stroke="#000000" points="8,-497.7 8,-520.7 224,-520.7 224,-497.7 8,-497.7"/>
<text text-anchor="start" x="13" y="-506.8" font-family="Helvetica,sans-Serif" font-weight="bold" font-size="11.00" fill="#000000">users</text>
<text text-anchor="start" x="189.0437" y="-505.8" font-family="Helvetica,sans-Serif" font-size="11.00" fill="#000000">[table]</text>
<polygon fill="none" stroke="#000000" points="8,-475.7 8,-497.7 224,-497.7 224,-475.7 8,-475.7"/>
<image xlink:href="../../images/primaryKeys.png" width="11px" height="12px" preserveAspectRatio="xMinYMin meet" x="13" y="-492.7"/>
<text text-anchor="start" x="28" y="-482.8" font-family="Helvetica,sans-Serif" font-size="11.00" fill="#000000">id</text>
<polygon fill="#ffffff" stroke="transparent" points="8,-453.7 8,-475.7 224,-475.7 224,-453.7 8,-453.7"/>
<polygon fill="none" stroke="#000000" points="8,-453.7 8,-475.7 224,-475.7 224,-453.7 8,-453.7"/>
<text text-anchor="start" x="28" y="-460.8" font-family="Helvetica,sans-Serif" font-size="11.00" fill="#000000">user_name</text>
<polygon fill="#ffffff" stroke="transparent" points="8,-431.7 8,-453.7 224,-453.7 224,-431.7 8,-431.7"/>
<polygon fill="none" stroke="#000000" points="8,-431.7 8,-453.7 224,-453.7 224,-431.7 8,-431.7"/>
<text text-anchor="start" x="28" y="-438.8" font-family="Helvetica,sans-Serif" font-size="11.00" fill="#000000">first_name</text>
<polygon fill="#ffffff" stroke="transparent" points="8,-409.7 8,-431.7 224,-431.7 224,-409.7 8,-409.7"/>
<polygon fill="none" stroke="#000000" points="8,-409.7 8,-431.7 224,-431.7 224,-409.7 8,-409.7"/>
<text text-anchor="start" x="28" y="-416.8" font-family="Helvetica,sans-Serif" font-size="11.00" fill="#000000">last_name</text>
<polygon fill="#ffffff" stroke="transparent" points="8,-387.7 8,-409.7 224,-409.7 224,-387.7 8,-387.7"/>
<polygon fill="none" stroke="#000000" points="8,-387.7 8,-409.7 224,-409.7 224,-387.7 8,-387.7"/>
<text text-anchor="start" x="28" y="-394.8" font-family="Helvetica,sans-Serif" font-size="11.00" fill="#000000">status</text>
<polygon fill="#c0c0c0" stroke="transparent" points="8,-365.7 8,-387.7 224,-387.7 224,-365.7 8,-365.7"/>
<polygon fill="none" stroke="#000000" points="8,-365.7 8,-387.7 224,-387.7 224,-365.7 8,-365.7"/>
<image xlink:href="../../images/foreignKeys.png" width="11px" height="12px" preserveAspectRatio="xMinYMin meet" x="13" y="-382.7"/>
<text text-anchor="start" x="28" y="-372.8" font-family="Helvetica,sans-Serif" font-size="11.00" fill="#000000">reports_to_id</text>
<polygon fill="#ffffff" stroke="transparent" points="8,-343.7 8,-365.7 224,-365.7 224,-343.7 8,-343.7"/>
<polygon fill="none" stroke="#000000" points="8,-343.7 8,-365.7 224,-365.7 224,-343.7 8,-343.7"/>
<text text-anchor="start" x="28" y="-350.8" font-family="Helvetica,sans-Serif" font-size="11.00" fill="#000000">is_group</text>
<polygon fill="none" stroke="#000000" points="8,-324.7 8,-343.7 224,-343.7 224,-324.7 8,-324.7"/>
<text text-anchor="start" x="11" y="-330.8" font-family="Helvetica,sans-Serif" font-size="11.00" fill="#000000">...</text>
<polygon fill="#ffffff" stroke="transparent" points="8,-305.7 8,-324.7 104,-324.7 104,-305.7 8,-305.7"/>
<polygon fill="none" stroke="#000000" points="8,-305.7 8,-324.7 104,-324.7 104,-305.7 8,-305.7"/>
<text text-anchor="start" x="11" y="-311.8" font-family="Helvetica,sans-Serif" font-size="11.00" fill="#000000">&lt; 2</text>
<polygon fill="#ffffff" stroke="transparent" points="104,-305.7 104,-324.7 153,-324.7 153,-305.7 104,-305.7"/>
<polygon fill="none" stroke="#000000" points="104,-305.7 104,-324.7 153,-324.7 153,-305.7 104,-305.7"/>
<text text-anchor="start" x="143.8862" y="-311.8" font-family="Helvetica,sans-Serif" font-size="11.00" fill="#000000"> &#160;</text>
<polygon fill="#ffffff" stroke="transparent" points="153,-305.7 153,-324.7 224,-324.7 224,-305.7 153,-305.7"/>
<polygon fill="none" stroke="#000000" points="153,-305.7 153,-324.7 224,-324.7 224,-305.7 153,-305.7"/>
<text text-anchor="start" x="193.1755" y="-311.8" font-family="Helvetica,sans-Serif" font-size="11.00" fill="#000000">214 &gt;</text>
</a>
</g>
</g>
<!-- fp_events&#45;&gt;users -->
<g id="edge2" class="edge">
<title>fp_events:w&#45;&gt;users:e</title>
<path fill="none" stroke="#000000" d="M261.511,-425.4466C244.1935,-440.5798 255.1026,-486.7 224,-486.7"/>
<polygon fill="#000000" stroke="#000000" points="267.9242,-423.2705 276.6567,-424.1091 271.7121,-421.9853 275.5,-420.7 275.5,-420.7 275.5,-420.7 271.7121,-421.9853 274.3433,-417.2909 267.9242,-423.2705 267.9242,-423.2705"/>
<ellipse fill="none" stroke="#000000" cx="264.8939" cy="-424.2988" rx="3.2" ry="3.2"/>
</g>
<!-- fp_events&#45;&gt;users -->
<g id="edge3" class="edge">
<title>fp_events:w&#45;&gt;users:e</title>
<path fill="none" stroke="#000000" d="M261.0156,-486.7C248.6771,-486.7 241.1667,-486.7 224,-486.7"/>
<polygon fill="#000000" stroke="#000000" points="267.5,-486.7001 275.5,-490.3 271.5,-486.7 275.5,-486.7 275.5,-486.7 275.5,-486.7 271.5,-486.7 275.5,-483.1 267.5,-486.7001 267.5,-486.7001"/>
<ellipse fill="none" stroke="#000000" cx="264.3" cy="-486.7001" rx="3.2" ry="3.2"/>
</g>
<!-- fp_events&#45;&gt;users -->
<g id="edge4" class="edge">
<title>fp_events:w&#45;&gt;users:e</title>
<path fill="none" stroke="#000000" d="M261.2209,-505.641C248.531,-499.596 243.0563,-486.7 224,-486.7"/>
<polygon fill="#000000" stroke="#000000" points="267.6775,-507.0241 274.7459,-512.2201 271.5887,-507.8621 275.5,-508.7 275.5,-508.7 275.5,-508.7 271.5887,-507.8621 276.2541,-505.1799 267.6775,-507.0241 267.6775,-507.0241"/>
<ellipse fill="none" stroke="#000000" cx="264.5485" cy="-506.3538" rx="3.2" ry="3.2"/>
</g>
<!-- fp_events_audit -->
<g id="node4" class="node">
<title>fp_events_audit</title>
<g id="a_node4"><a xlink:href="../../tables/fp_events_audit.html" xlink:title="fp_events_audit" target="_top">
<polygon fill="#ffffff" stroke="transparent" points="668.5,-822.2 668.5,-927.2 822.5,-927.2 822.5,-822.2 668.5,-822.2"/>
<polygon fill="#f5f5f5" stroke="transparent" points="668.5,-903.7 668.5,-926.7 822.5,-926.7 822.5,-903.7 668.5,-903.7"/>
<polygon fill="none" stroke="#000000" points="668.5,-903.7 668.5,-926.7 822.5,-926.7 822.5,-903.7 668.5,-903.7"/>
<text text-anchor="start" x="673.5" y="-912.8" font-family="Helvetica,sans-Serif" font-weight="bold" font-size="11.00" fill="#000000">fp_events_audit</text>
<text text-anchor="start" x="787.5437" y="-911.8" font-family="Helvetica,sans-Serif" font-size="11.00" fill="#000000">[table]</text>
<polygon fill="none" stroke="#000000" points="668.5,-881.7 668.5,-903.7 822.5,-903.7 822.5,-881.7 668.5,-881.7"/>
<image xlink:href="../../images/primaryKeys.png" width="11px" height="12px" preserveAspectRatio="xMinYMin meet" x="673.5" y="-898.7"/>
<text text-anchor="start" x="688.5" y="-888.8" font-family="Helvetica,sans-Serif" font-size="11.00" fill="#000000">id</text>
<polygon fill="#c0c0c0" stroke="transparent" points="668.5,-859.7 668.5,-881.7 822.5,-881.7 822.5,-859.7 668.5,-859.7"/>
<polygon fill="none" stroke="#000000" points="668.5,-859.7 668.5,-881.7 822.5,-881.7 822.5,-859.7 668.5,-859.7"/>
<image xlink:href="../../images/foreignKeys.png" width="11px" height="12px" preserveAspectRatio="xMinYMin meet" x="673.5" y="-876.7"/>
<text text-anchor="start" x="688.5" y="-866.8" font-family="Helvetica,sans-Serif" font-size="11.00" fill="#000000">parent_id</text>
<polygon fill="none" stroke="#000000" points="668.5,-840.7 668.5,-859.7 822.5,-859.7 822.5,-840.7 668.5,-840.7"/>
<text text-anchor="start" x="671.5" y="-846.8" font-family="Helvetica,sans-Serif" font-size="11.00" fill="#000000">...</text>
<polygon fill="#ffffff" stroke="transparent" points="668.5,-821.7 668.5,-840.7 743.5,-840.7 743.5,-821.7 668.5,-821.7"/>
<polygon fill="none" stroke="#000000" points="668.5,-821.7 668.5,-840.7 743.5,-840.7 743.5,-821.7 668.5,-821.7"/>
<text text-anchor="start" x="671.5" y="-827.8" font-family="Helvetica,sans-Serif" font-size="11.00" fill="#000000">&lt; 1</text>
<polygon fill="#ffffff" stroke="transparent" points="743.5,-821.7 743.5,-840.7 782.5,-840.7 782.5,-821.7 743.5,-821.7"/>
<polygon fill="none" stroke="#000000" points="743.5,-821.7 743.5,-840.7 782.5,-840.7 782.5,-821.7 743.5,-821.7"/>
<text text-anchor="start" x="773.3862" y="-827.8" font-family="Helvetica,sans-Serif" font-size="11.00" fill="#000000"> &#160;</text>
<polygon fill="#ffffff" stroke="transparent" points="782.5,-821.7 782.5,-840.7 822.5,-840.7 822.5,-821.7 782.5,-821.7"/>
<polygon fill="none" stroke="#000000" points="782.5,-821.7 782.5,-840.7 822.5,-840.7 822.5,-821.7 782.5,-821.7"/>
<text text-anchor="start" x="813.3862" y="-827.8" font-family="Helvetica,sans-Serif" font-size="11.00" fill="#000000"> &#160;</text>
</a>
</g>
</g>
<!-- fp_events_audit&#45;&gt;fp_events -->
<g id="edge5" class="edge">
<title>fp_events_audit:w&#45;&gt;fp_events:e</title>
<path fill="none" stroke="#000000" d="M653.8958,-870.4528C603.3242,-868.5992 579.1703,-855.7152 545,-811.7 485.2689,-734.7595 599.9046,-596.7 502.5,-596.7"/>
<polygon fill="#000000" stroke="#000000" points="660.5011,-870.5646 668.4391,-874.2995 664.5006,-870.6323 668.5,-870.7 668.5,-870.7 668.5,-870.7 664.5006,-870.6323 668.5609,-867.1005 660.5011,-870.5646 660.5011,-870.5646"/>
<ellipse fill="none" stroke="#000000" cx="657.3016" cy="-870.5104" rx="3.2" ry="3.2"/>
</g>
<!-- fp_events_contacts_c -->
<g id="node5" class="node">
<title>fp_events_contacts_c</title>
<g id="a_node5"><a xlink:href="../../tables/fp_events_contacts_c.html" xlink:title="fp_events_contacts_c" target="_top">
<polygon fill="#ffffff" stroke="transparent" points="624.5,-674.2 624.5,-801.2 866.5,-801.2 866.5,-674.2 624.5,-674.2"/>
<polygon fill="#f5f5f5" stroke="transparent" points="624.5,-777.7 624.5,-800.7 866.5,-800.7 866.5,-777.7 624.5,-777.7"/>
<polygon fill="none" stroke="#000000" points="624.5,-777.7 624.5,-800.7 866.5,-800.7 866.5,-777.7 624.5,-777.7"/>
<text text-anchor="start" x="629.5" y="-786.8" font-family="Helvetica,sans-Serif" font-weight="bold" font-size="11.00" fill="#000000">fp_events_contacts_c</text>
<text text-anchor="start" x="831.5437" y="-785.8" font-family="Helvetica,sans-Serif" font-size="11.00" fill="#000000">[table]</text>
<polygon fill="none" stroke="#000000" points="624.5,-755.7 624.5,-777.7 866.5,-777.7 866.5,-755.7 624.5,-755.7"/>
<image xlink:href="../../images/primaryKeys.png" width="11px" height="12px" preserveAspectRatio="xMinYMin meet" x="629.5" y="-772.7"/>
<text text-anchor="start" x="644.5" y="-762.8" font-family="Helvetica,sans-Serif" font-size="11.00" fill="#000000">id</text>
<polygon fill="#ffffff" stroke="transparent" points="624.5,-733.7 624.5,-755.7 866.5,-755.7 866.5,-733.7 624.5,-733.7"/>
<polygon fill="none" stroke="#000000" points="624.5,-733.7 624.5,-755.7 866.5,-755.7 866.5,-733.7 624.5,-733.7"/>
<image xlink:href="../../images/foreignKeys.png" width="11px" height="12px" preserveAspectRatio="xMinYMin meet" x="629.5" y="-750.7"/>
<text text-anchor="start" x="644.5" y="-740.8" font-family="Helvetica,sans-Serif" font-size="11.00" fill="#000000">fp_events_contactsfp_events_ida</text>
<polygon fill="#ffffff" stroke="transparent" points="624.5,-711.7 624.5,-733.7 866.5,-733.7 866.5,-711.7 624.5,-711.7"/>
<polygon fill="none" stroke="#000000" points="624.5,-711.7 624.5,-733.7 866.5,-733.7 866.5,-711.7 624.5,-711.7"/>
<image xlink:href="../../images/foreignKeys.png" width="11px" height="12px" preserveAspectRatio="xMinYMin meet" x="629.5" y="-728.7"/>
<text text-anchor="start" x="644.5" y="-718.8" font-family="Helvetica,sans-Serif" font-size="11.00" fill="#000000">fp_events_contactscontacts_idb</text>
<polygon fill="none" stroke="#000000" points="624.5,-692.7 624.5,-711.7 866.5,-711.7 866.5,-692.7 624.5,-692.7"/>
<text text-anchor="start" x="627.5" y="-698.8" font-family="Helvetica,sans-Serif" font-size="11.00" fill="#000000">...</text>
<polygon fill="#ffffff" stroke="transparent" points="624.5,-673.7 624.5,-692.7 743.5,-692.7 743.5,-673.7 624.5,-673.7"/>
<polygon fill="none" stroke="#000000" points="624.5,-673.7 624.5,-692.7 743.5,-692.7 743.5,-673.7 624.5,-673.7"/>
<text text-anchor="start" x="627.5" y="-679.8" font-family="Helvetica,sans-Serif" font-size="11.00" fill="#000000">&lt; 2</text>
<polygon fill="#ffffff" stroke="transparent" points="743.5,-673.7 743.5,-692.7 804.5,-692.7 804.5,-673.7 743.5,-673.7"/>
<polygon fill="none" stroke="#000000" points="743.5,-673.7 743.5,-692.7 804.5,-692.7 804.5,-673.7 743.5,-673.7"/>
<text text-anchor="start" x="795.3862" y="-679.8" font-family="Helvetica,sans-Serif" font-size="11.00" fill="#000000"> &#160;</text>
<polygon fill="#ffffff" stroke="transparent" points="804.5,-673.7 804.5,-692.7 866.5,-692.7 866.5,-673.7 804.5,-673.7"/>
<polygon fill="none" stroke="#000000" points="804.5,-673.7 804.5,-692.7 866.5,-692.7 866.5,-673.7 804.5,-673.7"/>
<text text-anchor="start" x="857.3862" y="-679.8" font-family="Helvetica,sans-Serif" font-size="11.00" fill="#000000"> &#160;</text>
</a>
</g>
</g>
<!-- fp_events_contacts_c&#45;&gt;fp_events -->
<g id="edge6" class="edge">
<title>fp_events_contacts_c:w&#45;&gt;fp_events:e</title>
<path fill="none" stroke="#000000" d="M609.7281,-743.2681C574.1566,-735.6491 572.9215,-698.8949 545,-663.7 523.0835,-636.0744 537.7634,-596.7 502.5,-596.7"/>
<polygon fill="#000000" stroke="#000000" points="616.5373,-743.9281 624.1526,-748.2832 620.5187,-744.314 624.5,-744.7 624.5,-744.7 624.5,-744.7 620.5187,-744.314 624.8474,-741.1168 616.5373,-743.9281 616.5373,-743.9281"/>
<ellipse fill="none" stroke="#000000" cx="613.3523" cy="-743.6193" rx="3.2" ry="3.2"/>
</g>
<!-- fp_events_fp_event_locations_1_c -->
<g id="node6" class="node">
<title>fp_events_fp_event_locations_1_c</title>
<g id="a_node6"><a xlink:href="../../tables/fp_events_fp_event_locations_1_c.html" xlink:title="fp_events_fp_event_locations_1_c" target="_top">
<polygon fill="#ffffff" stroke="transparent" points="553,-526.2 553,-653.2 938,-653.2 938,-526.2 553,-526.2"/>
<polygon fill="#f5f5f5" stroke="transparent" points="553.5,-629.7 553.5,-652.7 938.5,-652.7 938.5,-629.7 553.5,-629.7"/>
<polygon fill="none" stroke="#000000" points="553.5,-629.7 553.5,-652.7 938.5,-652.7 938.5,-629.7 553.5,-629.7"/>
<text text-anchor="start" x="558.5" y="-638.8" font-family="Helvetica,sans-Serif" font-weight="bold" font-size="11.00" fill="#000000">fp_events_fp_event_locations_1_c</text>
<text text-anchor="start" x="903.5437" y="-637.8" font-family="Helvetica,sans-Serif" font-size="11.00" fill="#000000">[table]</text>
<polygon fill="none" stroke="#000000" points="553.5,-607.7 553.5,-629.7 938.5,-629.7 938.5,-607.7 553.5,-607.7"/>
<image xlink:href="../../images/primaryKeys.png" width="11px" height="12px" preserveAspectRatio="xMinYMin meet" x="558.5" y="-624.7"/>
<text text-anchor="start" x="573.5" y="-614.8" font-family="Helvetica,sans-Serif" font-size="11.00" fill="#000000">id</text>
<polygon fill="#ffffff" stroke="transparent" points="553.5,-585.7 553.5,-607.7 938.5,-607.7 938.5,-585.7 553.5,-585.7"/>
<polygon fill="none" stroke="#000000" points="553.5,-585.7 553.5,-607.7 938.5,-607.7 938.5,-585.7 553.5,-585.7"/>
<image xlink:href="../../images/foreignKeys.png" width="11px" height="12px" preserveAspectRatio="xMinYMin meet" x="558.5" y="-602.7"/>
<text text-anchor="start" x="573.5" y="-592.8" font-family="Helvetica,sans-Serif" font-size="11.00" fill="#000000">fp_events_fp_event_locations_1fp_events_ida</text>
<polygon fill="#ffffff" stroke="transparent" points="553.5,-563.7 553.5,-585.7 938.5,-585.7 938.5,-563.7 553.5,-563.7"/>
<polygon fill="none" stroke="#000000" points="553.5,-563.7 553.5,-585.7 938.5,-585.7 938.5,-563.7 553.5,-563.7"/>
<image xlink:href="../../images/foreignKeys.png" width="11px" height="12px" preserveAspectRatio="xMinYMin meet" x="558.5" y="-580.7"/>
<text text-anchor="start" x="573.5" y="-570.8" font-family="Helvetica,sans-Serif" font-size="11.00" fill="#000000">fp_events_fp_event_locations_1fp_event_locations_idb</text>
<polygon fill="none" stroke="#000000" points="553.5,-544.7 553.5,-563.7 938.5,-563.7 938.5,-544.7 553.5,-544.7"/>
<text text-anchor="start" x="556.5" y="-550.8" font-family="Helvetica,sans-Serif" font-size="11.00" fill="#000000">...</text>
<polygon fill="#ffffff" stroke="transparent" points="553.5,-525.7 553.5,-544.7 744.5,-544.7 744.5,-525.7 553.5,-525.7"/>
<polygon fill="none" stroke="#000000" points="553.5,-525.7 553.5,-544.7 744.5,-544.7 744.5,-525.7 553.5,-525.7"/>
<text text-anchor="start" x="556.5" y="-531.8" font-family="Helvetica,sans-Serif" font-size="11.00" fill="#000000">&lt; 2</text>
<polygon fill="#ffffff" stroke="transparent" points="744.5,-525.7 744.5,-544.7 841.5,-544.7 841.5,-525.7 744.5,-525.7"/>
<polygon fill="none" stroke="#000000" points="744.5,-525.7 744.5,-544.7 841.5,-544.7 841.5,-525.7 744.5,-525.7"/>
<text text-anchor="start" x="832.3862" y="-531.8" font-family="Helvetica,sans-Serif" font-size="11.00" fill="#000000"> &#160;</text>
<polygon fill="#ffffff" stroke="transparent" points="841.5,-525.7 841.5,-544.7 938.5,-544.7 938.5,-525.7 841.5,-525.7"/>
<polygon fill="none" stroke="#000000" points="841.5,-525.7 841.5,-544.7 938.5,-544.7 938.5,-525.7 841.5,-525.7"/>
<text text-anchor="start" x="929.3862" y="-531.8" font-family="Helvetica,sans-Serif" font-size="11.00" fill="#000000"> &#160;</text>
</a>
</g>
</g>
<!-- fp_events_fp_event_locations_1_c&#45;&gt;fp_events -->
<g id="edge7" class="edge">
<title>fp_events_fp_event_locations_1_c:w&#45;&gt;fp_events:e</title>
<path fill="none" stroke="#000000" d="M538.776,-596.7C526.7815,-596.7 519.3229,-596.7 502.5,-596.7"/>
<polygon fill="#000000" stroke="#000000" points="545.5,-596.7001 553.5,-600.3 549.5,-596.7 553.5,-596.7 553.5,-596.7 553.5,-596.7 549.5,-596.7 553.5,-593.1 545.5,-596.7001 545.5,-596.7001"/>
<ellipse fill="none" stroke="#000000" cx="542.3" cy="-596.7001" rx="3.2" ry="3.2"/>
</g>
<!-- fp_events_leads_1_c -->
<g id="node7" class="node">
<title>fp_events_leads_1_c</title>
<g id="a_node7"><a xlink:href="../../tables/fp_events_leads_1_c.html" xlink:title="fp_events_leads_1_c" target="_top">
<polygon fill="#ffffff" stroke="transparent" points="628.5,-378.2 628.5,-505.2 862.5,-505.2 862.5,-378.2 628.5,-378.2"/>
<polygon fill="#f5f5f5" stroke="transparent" points="628.5,-481.7 628.5,-504.7 862.5,-504.7 862.5,-481.7 628.5,-481.7"/>
<polygon fill="none" stroke="#000000" points="628.5,-481.7 628.5,-504.7 862.5,-504.7 862.5,-481.7 628.5,-481.7"/>
<text text-anchor="start" x="633.5" y="-490.8" font-family="Helvetica,sans-Serif" font-weight="bold" font-size="11.00" fill="#000000">fp_events_leads_1_c</text>
<text text-anchor="start" x="827.5437" y="-489.8" font-family="Helvetica,sans-Serif" font-size="11.00" fill="#000000">[table]</text>
<polygon fill="none" stroke="#000000" points="628.5,-459.7 628.5,-481.7 862.5,-481.7 862.5,-459.7 628.5,-459.7"/>
<image xlink:href="../../images/primaryKeys.png" width="11px" height="12px" preserveAspectRatio="xMinYMin meet" x="633.5" y="-476.7"/>
<text text-anchor="start" x="648.5" y="-466.8" font-family="Helvetica,sans-Serif" font-size="11.00" fill="#000000">id</text>
<polygon fill="#ffffff" stroke="transparent" points="628.5,-437.7 628.5,-459.7 862.5,-459.7 862.5,-437.7 628.5,-437.7"/>
<polygon fill="none" stroke="#000000" points="628.5,-437.7 628.5,-459.7 862.5,-459.7 862.5,-437.7 628.5,-437.7"/>
<image xlink:href="../../images/foreignKeys.png" width="11px" height="12px" preserveAspectRatio="xMinYMin meet" x="633.5" y="-454.7"/>
<text text-anchor="start" x="648.5" y="-444.8" font-family="Helvetica,sans-Serif" font-size="11.00" fill="#000000">fp_events_leads_1fp_events_ida</text>
<polygon fill="#ffffff" stroke="transparent" points="628.5,-415.7 628.5,-437.7 862.5,-437.7 862.5,-415.7 628.5,-415.7"/>
<polygon fill="none" stroke="#000000" points="628.5,-415.7 628.5,-437.7 862.5,-437.7 862.5,-415.7 628.5,-415.7"/>
<image xlink:href="../../images/foreignKeys.png" width="11px" height="12px" preserveAspectRatio="xMinYMin meet" x="633.5" y="-432.7"/>
<text text-anchor="start" x="648.5" y="-422.8" font-family="Helvetica,sans-Serif" font-size="11.00" fill="#000000">fp_events_leads_1leads_idb</text>
<polygon fill="none" stroke="#000000" points="628.5,-396.7 628.5,-415.7 862.5,-415.7 862.5,-396.7 628.5,-396.7"/>
<text text-anchor="start" x="631.5" y="-402.8" font-family="Helvetica,sans-Serif" font-size="11.00" fill="#000000">...</text>
<polygon fill="#ffffff" stroke="transparent" points="628.5,-377.7 628.5,-396.7 743.5,-396.7 743.5,-377.7 628.5,-377.7"/>
<polygon fill="none" stroke="#000000" points="628.5,-377.7 628.5,-396.7 743.5,-396.7 743.5,-377.7 628.5,-377.7"/>
<text text-anchor="start" x="631.5" y="-383.8" font-family="Helvetica,sans-Serif" font-size="11.00" fill="#000000">&lt; 2</text>
<polygon fill="#ffffff" stroke="transparent" points="743.5,-377.7 743.5,-396.7 802.5,-396.7 802.5,-377.7 743.5,-377.7"/>
<polygon fill="none" stroke="#000000" points="743.5,-377.7 743.5,-396.7 802.5,-396.7 802.5,-377.7 743.5,-377.7"/>
<text text-anchor="start" x="793.3862" y="-383.8" font-family="Helvetica,sans-Serif" font-size="11.00" fill="#000000"> &#160;</text>
<polygon fill="#ffffff" stroke="transparent" points="802.5,-377.7 802.5,-396.7 862.5,-396.7 862.5,-377.7 802.5,-377.7"/>
<polygon fill="none" stroke="#000000" points="802.5,-377.7 802.5,-396.7 862.5,-396.7 862.5,-377.7 802.5,-377.7"/>
<text text-anchor="start" x="853.3862" y="-383.8" font-family="Helvetica,sans-Serif" font-size="11.00" fill="#000000"> &#160;</text>
</a>
</g>
</g>
<!-- fp_events_leads_1_c&#45;&gt;fp_events -->
<g id="edge8" class="edge">
<title>fp_events_leads_1_c:w&#45;&gt;fp_events:e</title>
<path fill="none" stroke="#000000" d="M613.8466,-449.8307C579.3185,-455.641 571.8203,-483.1309 545,-515.7 519.1564,-547.0831 543.1545,-596.7 502.5,-596.7"/>
<polygon fill="#000000" stroke="#000000" points="620.5237,-449.3155 628.777,-452.2893 624.5119,-449.0078 628.5,-448.7 628.5,-448.7 628.5,-448.7 624.5119,-449.0078 628.223,-445.1107 620.5237,-449.3155 620.5237,-449.3155"/>
<ellipse fill="none" stroke="#000000" cx="617.3332" cy="-449.5618" rx="3.2" ry="3.2"/>
</g>
<!-- fp_events_prospects_1_c -->
<g id="node8" class="node">
<title>fp_events_prospects_1_c</title>
<g id="a_node8"><a xlink:href="../../tables/fp_events_prospects_1_c.html" xlink:title="fp_events_prospects_1_c" target="_top">
<polygon fill="#ffffff" stroke="transparent" points="612,-230.2 612,-357.2 879,-357.2 879,-230.2 612,-230.2"/>
<polygon fill="#f5f5f5" stroke="transparent" points="612.5,-333.7 612.5,-356.7 879.5,-356.7 879.5,-333.7 612.5,-333.7"/>
<polygon fill="none" stroke="#000000" points="612.5,-333.7 612.5,-356.7 879.5,-356.7 879.5,-333.7 612.5,-333.7"/>
<text text-anchor="start" x="617.5" y="-342.8" font-family="Helvetica,sans-Serif" font-weight="bold" font-size="11.00" fill="#000000">fp_events_prospects_1_c</text>
<text text-anchor="start" x="844.5437" y="-341.8" font-family="Helvetica,sans-Serif" font-size="11.00" fill="#000000">[table]</text>
<polygon fill="none" stroke="#000000" points="612.5,-311.7 612.5,-333.7 879.5,-333.7 879.5,-311.7 612.5,-311.7"/>
<image xlink:href="../../images/primaryKeys.png" width="11px" height="12px" preserveAspectRatio="xMinYMin meet" x="617.5" y="-328.7"/>
<text text-anchor="start" x="632.5" y="-318.8" font-family="Helvetica,sans-Serif" font-size="11.00" fill="#000000">id</text>
<polygon fill="#ffffff" stroke="transparent" points="612.5,-289.7 612.5,-311.7 879.5,-311.7 879.5,-289.7 612.5,-289.7"/>
<polygon fill="none" stroke="#000000" points="612.5,-289.7 612.5,-311.7 879.5,-311.7 879.5,-289.7 612.5,-289.7"/>
<image xlink:href="../../images/foreignKeys.png" width="11px" height="12px" preserveAspectRatio="xMinYMin meet" x="617.5" y="-306.7"/>
<text text-anchor="start" x="632.5" y="-296.8" font-family="Helvetica,sans-Serif" font-size="11.00" fill="#000000">fp_events_prospects_1fp_events_ida</text>
<polygon fill="#ffffff" stroke="transparent" points="612.5,-267.7 612.5,-289.7 879.5,-289.7 879.5,-267.7 612.5,-267.7"/>
<polygon fill="none" stroke="#000000" points="612.5,-267.7 612.5,-289.7 879.5,-289.7 879.5,-267.7 612.5,-267.7"/>
<image xlink:href="../../images/foreignKeys.png" width="11px" height="12px" preserveAspectRatio="xMinYMin meet" x="617.5" y="-284.7"/>
<text text-anchor="start" x="632.5" y="-274.8" font-family="Helvetica,sans-Serif" font-size="11.00" fill="#000000">fp_events_prospects_1prospects_idb</text>
<polygon fill="none" stroke="#000000" points="612.5,-248.7 612.5,-267.7 879.5,-267.7 879.5,-248.7 612.5,-248.7"/>
<text text-anchor="start" x="615.5" y="-254.8" font-family="Helvetica,sans-Serif" font-size="11.00" fill="#000000">...</text>
<polygon fill="#ffffff" stroke="transparent" points="612.5,-229.7 612.5,-248.7 744.5,-248.7 744.5,-229.7 612.5,-229.7"/>
<polygon fill="none" stroke="#000000" points="612.5,-229.7 612.5,-248.7 744.5,-248.7 744.5,-229.7 612.5,-229.7"/>
<text text-anchor="start" x="615.5" y="-235.8" font-family="Helvetica,sans-Serif" font-size="11.00" fill="#000000">&lt; 2</text>
<polygon fill="#ffffff" stroke="transparent" points="744.5,-229.7 744.5,-248.7 811.5,-248.7 811.5,-229.7 744.5,-229.7"/>
<polygon fill="none" stroke="#000000" points="744.5,-229.7 744.5,-248.7 811.5,-248.7 811.5,-229.7 744.5,-229.7"/>
<text text-anchor="start" x="802.3862" y="-235.8" font-family="Helvetica,sans-Serif" font-size="11.00" fill="#000000"> &#160;</text>
<polygon fill="#ffffff" stroke="transparent" points="811.5,-229.7 811.5,-248.7 879.5,-248.7 879.5,-229.7 811.5,-229.7"/>
<polygon fill="none" stroke="#000000" points="811.5,-229.7 811.5,-248.7 879.5,-248.7 879.5,-229.7 811.5,-229.7"/>
<text text-anchor="start" x="870.3862" y="-235.8" font-family="Helvetica,sans-Serif" font-size="11.00" fill="#000000"> &#160;</text>
</a>
</g>
</g>
<!-- fp_events_prospects_1_c&#45;&gt;fp_events -->
<g id="edge9" class="edge">
<title>fp_events_prospects_1_c:w&#45;&gt;fp_events:e</title>
<path fill="none" stroke="#000000" d="M597.8784,-302.1302C568.5816,-308.4678 562.2088,-335.1481 545,-367.7 520.8101,-413.4573 554.2579,-596.7 502.5,-596.7"/>
<polygon fill="#000000" stroke="#000000" points="604.538,-301.4789 612.8505,-304.2829 608.519,-301.0894 612.5,-300.7 612.5,-300.7 612.5,-300.7 608.519,-301.0894 612.1495,-297.1171 604.538,-301.4789 604.538,-301.4789"/>
<ellipse fill="none" stroke="#000000" cx="601.3532" cy="-301.7904" rx="3.2" ry="3.2"/>
</g>
<!-- securitygroups_records -->
<g id="node9" class="node">
<title>securitygroups_records</title>
<g id="a_node9"><a xlink:href="../../tables/securitygroups_records.html" xlink:title="securitygroups_records" target="_top">
<polygon fill="#ffffff" stroke="transparent" points="656,-38.2 656,-209.2 835,-209.2 835,-38.2 656,-38.2"/>
<polygon fill="#f5f5f5" stroke="transparent" points="656.5,-185.7 656.5,-208.7 835.5,-208.7 835.5,-185.7 656.5,-185.7"/>
<polygon fill="none" stroke="#000000" points="656.5,-185.7 656.5,-208.7 835.5,-208.7 835.5,-185.7 656.5,-185.7"/>
<text text-anchor="start" x="661.5" y="-194.8" font-family="Helvetica,sans-Serif" font-weight="bold" font-size="11.00" fill="#000000">securitygroups_records</text>
<text text-anchor="start" x="800.5437" y="-193.8" font-family="Helvetica,sans-Serif" font-size="11.00" fill="#000000">[table]</text>
<polygon fill="none" stroke="#000000" points="656.5,-163.7 656.5,-185.7 835.5,-185.7 835.5,-163.7 656.5,-163.7"/>
<image xlink:href="../../images/primaryKeys.png" width="11px" height="12px" preserveAspectRatio="xMinYMin meet" x="661.5" y="-180.7"/>
<text text-anchor="start" x="676.5" y="-170.8" font-family="Helvetica,sans-Serif" font-size="11.00" fill="#000000">id</text>
<polygon fill="#ffffff" stroke="transparent" points="656.5,-141.7 656.5,-163.7 835.5,-163.7 835.5,-141.7 656.5,-141.7"/>
<polygon fill="none" stroke="#000000" points="656.5,-141.7 656.5,-163.7 835.5,-163.7 835.5,-141.7 656.5,-141.7"/>
<image xlink:href="../../images/foreignKeys.png" width="11px" height="12px" preserveAspectRatio="xMinYMin meet" x="661.5" y="-158.7"/>
<text text-anchor="start" x="676.5" y="-148.8" font-family="Helvetica,sans-Serif" font-size="11.00" fill="#000000">securitygroup_id</text>
<polygon fill="#ffffff" stroke="transparent" points="656.5,-119.7 656.5,-141.7 835.5,-141.7 835.5,-119.7 656.5,-119.7"/>
<polygon fill="none" stroke="#000000" points="656.5,-119.7 656.5,-141.7 835.5,-141.7 835.5,-119.7 656.5,-119.7"/>
<image xlink:href="../../images/foreignKeys.png" width="11px" height="12px" preserveAspectRatio="xMinYMin meet" x="661.5" y="-136.7"/>
<text text-anchor="start" x="676.5" y="-126.8" font-family="Helvetica,sans-Serif" font-size="11.00" fill="#000000">record_id</text>
<polygon fill="#ffffff" stroke="transparent" points="656.5,-97.7 656.5,-119.7 835.5,-119.7 835.5,-97.7 656.5,-97.7"/>
<polygon fill="none" stroke="#000000" points="656.5,-97.7 656.5,-119.7 835.5,-119.7 835.5,-97.7 656.5,-97.7"/>
<text text-anchor="start" x="676.5" y="-104.8" font-family="Helvetica,sans-Serif" font-size="11.00" fill="#000000">module</text>
<polygon fill="#ffffff" stroke="transparent" points="656.5,-75.7 656.5,-97.7 835.5,-97.7 835.5,-75.7 656.5,-75.7"/>
<polygon fill="none" stroke="#000000" points="656.5,-75.7 656.5,-97.7 835.5,-97.7 835.5,-75.7 656.5,-75.7"/>
<text text-anchor="start" x="676.5" y="-82.8" font-family="Helvetica,sans-Serif" font-size="11.00" fill="#000000">deleted</text>
<polygon fill="none" stroke="#000000" points="656.5,-56.7 656.5,-75.7 835.5,-75.7 835.5,-56.7 656.5,-56.7"/>
<text text-anchor="start" x="659.5" y="-62.8" font-family="Helvetica,sans-Serif" font-size="11.00" fill="#000000">...</text>
<polygon fill="#ffffff" stroke="transparent" points="656.5,-37.7 656.5,-56.7 747.5,-56.7 747.5,-37.7 656.5,-37.7"/>
<polygon fill="none" stroke="#000000" points="656.5,-37.7 656.5,-56.7 747.5,-56.7 747.5,-37.7 656.5,-37.7"/>
<text text-anchor="start" x="659.5" y="-43.8" font-family="Helvetica,sans-Serif" font-size="11.00" fill="#000000">&lt; 41</text>
<polygon fill="#ffffff" stroke="transparent" points="747.5,-37.7 747.5,-56.7 791.5,-56.7 791.5,-37.7 747.5,-37.7"/>
<polygon fill="none" stroke="#000000" points="747.5,-37.7 747.5,-56.7 791.5,-56.7 791.5,-37.7 747.5,-37.7"/>
<text text-anchor="start" x="782.3862" y="-43.8" font-family="Helvetica,sans-Serif" font-size="11.00" fill="#000000"> &#160;</text>
<polygon fill="#ffffff" stroke="transparent" points="791.5,-37.7 791.5,-56.7 835.5,-56.7 835.5,-37.7 791.5,-37.7"/>
<polygon fill="none" stroke="#000000" points="791.5,-37.7 791.5,-56.7 835.5,-56.7 835.5,-37.7 791.5,-37.7"/>
<text text-anchor="start" x="826.3862" y="-43.8" font-family="Helvetica,sans-Serif" font-size="11.00" fill="#000000"> &#160;</text>
</a>
</g>
</g>
<!-- securitygroups_records&#45;&gt;fp_events -->
<g id="edge10" class="edge">
<title>securitygroups_records:w&#45;&gt;fp_events:e</title>
<path fill="none" stroke="#000000" d="M641.7914,-131.3699C590.1443,-136.344 573.1451,-168.7519 545,-219.7 504.2328,-293.4967 586.8084,-596.7 502.5,-596.7"/>
<polygon fill="#000000" stroke="#000000" points="648.5083,-131.064 656.6638,-134.2963 652.5041,-130.882 656.5,-130.7 656.5,-130.7 656.5,-130.7 652.5041,-130.882 656.3362,-127.1037 648.5083,-131.064 648.5083,-131.064"/>
<ellipse fill="none" stroke="#000000" cx="645.3116" cy="-131.2097" rx="3.2" ry="3.2"/>
</g>
</g>
</svg>
