<?xml version="1.0" encoding="UTF-8" standalone="no"?>
<!DOCTYPE svg PUBLIC "-//W3C//DTD SVG 1.1//EN"
 "http://www.w3.org/Graphics/SVG/1.1/DTD/svg11.dtd">
<!-- Generated by graphviz version 2.40.1 (20161225.0304)
 -->
<!-- Title: twoDegreesRelationshipsDiagram Pages: 1 -->
<svg width="683pt" height="617pt"
 viewBox="0.00 0.00 683.00 616.70" xmlns="http://www.w3.org/2000/svg" xmlns:xlink="http://www.w3.org/1999/xlink">
<g id="graph0" class="graph" transform="scale(1 1) rotate(0) translate(4 612.7)">
<title>twoDegreesRelationshipsDiagram</title>
<polygon fill="#ffffff" stroke="transparent" points="-4,4 -4,-612.7 679,-612.7 679,4 -4,4"/>
<text text-anchor="middle" x="72.4936" y="-7.3" font-family="Helvetica,sans-Serif" font-size="11.00" fill="#000000">Generated by SchemaSpy</text>
<!-- fp_event_locations_fp_events_1_c -->
<g id="node1" class="node">
<title>fp_event_locations_fp_events_1_c</title>
<g id="a_node1"><a xlink:href="../../tables/fp_event_locations_fp_events_1_c.html" xlink:title="fp_event_locations_fp_events_1_c" target="_top">
<polygon fill="#ffffff" stroke="transparent" points="213,-448.7 213,-604.7 667,-604.7 667,-448.7 213,-448.7"/>
<polygon fill="#f5f5f5" stroke="transparent" points="215,-579.7 215,-602.7 665,-602.7 665,-579.7 215,-579.7"/>
<polygon fill="none" stroke="#000000" points="215,-579.7 215,-602.7 665,-602.7 665,-579.7 215,-579.7"/>
<text text-anchor="start" x="220" y="-588.8" font-family="Helvetica,sans-Serif" font-weight="bold" font-size="11.00" fill="#000000">fp_event_locations_fp_events_1_c</text>
<text text-anchor="start" x="630.0437" y="-587.8" font-family="Helvetica,sans-Serif" font-size="11.00" fill="#000000">[table]</text>
<polygon fill="none" stroke="#000000" points="215,-557.7 215,-579.7 599,-579.7 599,-557.7 215,-557.7"/>
<image xlink:href="../../images/primaryKeys.png" width="11px" height="12px" preserveAspectRatio="xMinYMin meet" x="220" y="-574.7"/>
<text text-anchor="start" x="235" y="-564.8" font-family="Helvetica,sans-Serif" font-size="11.00" fill="#000000">id</text>
<polygon fill="none" stroke="#000000" points="599,-557.7 599,-579.7 665,-579.7 665,-557.7 599,-557.7"/>
<text text-anchor="start" x="602" y="-565.4" font-family="Helvetica,sans-Serif" font-size="11.00" fill="#000000">varchar[36]</text>
<polygon fill="none" stroke="#000000" points="215,-535.7 215,-557.7 599,-557.7 599,-535.7 215,-535.7"/>
<text text-anchor="start" x="235" y="-542.8" font-family="Helvetica,sans-Serif" font-size="11.00" fill="#000000">date_modified</text>
<polygon fill="none" stroke="#000000" points="599,-535.7 599,-557.7 665,-557.7 665,-535.7 599,-535.7"/>
<text text-anchor="start" x="601.7401" y="-543.4" font-family="Helvetica,sans-Serif" font-size="11.00" fill="#000000">datetime[26]</text>
<polygon fill="none" stroke="#000000" points="215,-513.7 215,-535.7 599,-535.7 599,-513.7 215,-513.7"/>
<text text-anchor="start" x="235" y="-520.8" font-family="Helvetica,sans-Serif" font-size="11.00" fill="#000000">deleted</text>
<polygon fill="none" stroke="#000000" points="599,-513.7 599,-535.7 665,-535.7 665,-513.7 599,-513.7"/>
<text text-anchor="start" x="602" y="-521.4" font-family="Helvetica,sans-Serif" font-size="11.00" fill="#000000">bit[1]</text>
<polygon fill="#ffffff" stroke="transparent" points="215,-491.7 215,-513.7 599,-513.7 599,-491.7 215,-491.7"/>
<polygon fill="none" stroke="#000000" points="215,-491.7 215,-513.7 599,-513.7 599,-491.7 215,-491.7"/>
<image xlink:href="../../images/foreignKeys.png" width="11px" height="12px" preserveAspectRatio="xMinYMin meet" x="220" y="-508.7"/>
<text text-anchor="start" x="235" y="-498.8" font-family="Helvetica,sans-Serif" font-size="11.00" fill="#000000">fp_event_locations_fp_events_1fp_event_locations_ida</text>
<polygon fill="none" stroke="#000000" points="599,-491.7 599,-513.7 665,-513.7 665,-491.7 599,-491.7"/>
<text text-anchor="start" x="602" y="-499.4" font-family="Helvetica,sans-Serif" font-size="11.00" fill="#000000">varchar[36]</text>
<polygon fill="#ffffff" stroke="transparent" points="215,-469.7 215,-491.7 599,-491.7 599,-469.7 215,-469.7"/>
<polygon fill="none" stroke="#000000" points="215,-469.7 215,-491.7 599,-491.7 599,-469.7 215,-469.7"/>
<image xlink:href="../../images/foreignKeys.png" width="11px" height="12px" preserveAspectRatio="xMinYMin meet" x="220" y="-486.7"/>
<text text-anchor="start" x="235" y="-476.8" font-family="Helvetica,sans-Serif" font-size="11.00" fill="#000000">fp_event_locations_fp_events_1fp_events_idb</text>
<polygon fill="none" stroke="#000000" points="599,-469.7 599,-491.7 665,-491.7 665,-469.7 599,-469.7"/>
<text text-anchor="start" x="602" y="-477.4" font-family="Helvetica,sans-Serif" font-size="11.00" fill="#000000">varchar[36]</text>
<polygon fill="#ffffff" stroke="transparent" points="215,-450.7 215,-469.7 411,-469.7 411,-450.7 215,-450.7"/>
<polygon fill="none" stroke="#000000" points="215,-450.7 215,-469.7 411,-469.7 411,-450.7 215,-450.7"/>
<text text-anchor="start" x="218" y="-456.8" font-family="Helvetica,sans-Serif" font-size="11.00" fill="#000000">&lt; 2</text>
<polygon fill="#ffffff" stroke="transparent" points="411,-450.7 411,-469.7 599,-469.7 599,-450.7 411,-450.7"/>
<polygon fill="none" stroke="#000000" points="411,-450.7 411,-469.7 599,-469.7 599,-450.7 411,-450.7"/>
<text text-anchor="start" x="589.8862" y="-456.8" font-family="Helvetica,sans-Serif" font-size="11.00" fill="#000000"> &#160;</text>
<polygon fill="#ffffff" stroke="transparent" points="599,-450.7 599,-469.7 665,-469.7 665,-450.7 599,-450.7"/>
<polygon fill="none" stroke="#000000" points="599,-450.7 599,-469.7 665,-469.7 665,-450.7 599,-450.7"/>
<text text-anchor="start" x="646.4053" y="-456.8" font-family="Helvetica,sans-Serif" font-size="11.00" fill="#000000">0 &gt;</text>
<polygon fill="none" stroke="#000000" stroke-width="2" points="214,-449.7 214,-603.7 666,-603.7 666,-449.7 214,-449.7"/>
</a>
</g>
</g>
<!-- fp_event_locations -->
<g id="node2" class="node">
<title>fp_event_locations</title>
<g id="a_node2"><a xlink:href="../../tables/fp_event_locations.html" xlink:title="fp_event_locations" target="_top">
<polygon fill="#ffffff" stroke="transparent" points="9,-285.2 9,-434.2 163,-434.2 163,-285.2 9,-285.2"/>
<polygon fill="#f5f5f5" stroke="transparent" points="9,-410.7 9,-433.7 163,-433.7 163,-410.7 9,-410.7"/>
<polygon fill="none" stroke="#000000" points="9,-410.7 9,-433.7 163,-433.7 163,-410.7 9,-410.7"/>
<text text-anchor="start" x="14" y="-419.8" font-family="Helvetica,sans-Serif" font-weight="bold" font-size="11.00" fill="#000000">fp_event_locations</text>
<text text-anchor="start" x="128.0437" y="-418.8" font-family="Helvetica,sans-Serif" font-size="11.00" fill="#000000">[table]</text>
<polygon fill="none" stroke="#000000" points="9,-388.7 9,-410.7 163,-410.7 163,-388.7 9,-388.7"/>
<image xlink:href="../../images/primaryKeys.png" width="11px" height="12px" preserveAspectRatio="xMinYMin meet" x="14" y="-405.7"/>
<text text-anchor="start" x="29" y="-395.8" font-family="Helvetica,sans-Serif" font-size="11.00" fill="#000000">id</text>
<polygon fill="#c0c0c0" stroke="transparent" points="9,-366.7 9,-388.7 163,-388.7 163,-366.7 9,-366.7"/>
<polygon fill="none" stroke="#000000" points="9,-366.7 9,-388.7 163,-388.7 163,-366.7 9,-366.7"/>
<image xlink:href="../../images/foreignKeys.png" width="11px" height="12px" preserveAspectRatio="xMinYMin meet" x="14" y="-383.7"/>
<text text-anchor="start" x="29" y="-373.8" font-family="Helvetica,sans-Serif" font-size="11.00" fill="#000000">modified_user_id</text>
<polygon fill="#c0c0c0" stroke="transparent" points="9,-344.7 9,-366.7 163,-366.7 163,-344.7 9,-344.7"/>
<polygon fill="none" stroke="#000000" points="9,-344.7 9,-366.7 163,-366.7 163,-344.7 9,-344.7"/>
<image xlink:href="../../images/foreignKeys.png" width="11px" height="12px" preserveAspectRatio="xMinYMin meet" x="14" y="-361.7"/>
<text text-anchor="start" x="29" y="-351.8" font-family="Helvetica,sans-Serif" font-size="11.00" fill="#000000">created_by</text>
<polygon fill="#c0c0c0" stroke="transparent" points="9,-322.7 9,-344.7 163,-344.7 163,-322.7 9,-322.7"/>
<polygon fill="none" stroke="#000000" points="9,-322.7 9,-344.7 163,-344.7 163,-322.7 9,-322.7"/>
<image xlink:href="../../images/foreignKeys.png" width="11px" height="12px" preserveAspectRatio="xMinYMin meet" x="14" y="-339.7"/>
<text text-anchor="start" x="29" y="-329.8" font-family="Helvetica,sans-Serif" font-size="11.00" fill="#000000">assigned_user_id</text>
<polygon fill="none" stroke="#000000" points="9,-303.7 9,-322.7 163,-322.7 163,-303.7 9,-303.7"/>
<text text-anchor="start" x="12" y="-309.8" font-family="Helvetica,sans-Serif" font-size="11.00" fill="#000000">...</text>
<polygon fill="#ffffff" stroke="transparent" points="9,-284.7 9,-303.7 80,-303.7 80,-284.7 9,-284.7"/>
<polygon fill="none" stroke="#000000" points="9,-284.7 9,-303.7 80,-303.7 80,-284.7 9,-284.7"/>
<text text-anchor="start" x="12" y="-290.8" font-family="Helvetica,sans-Serif" font-size="11.00" fill="#000000">&lt; 3</text>
<polygon fill="#ffffff" stroke="transparent" points="80,-284.7 80,-303.7 117,-303.7 117,-284.7 80,-284.7"/>
<polygon fill="none" stroke="#000000" points="80,-284.7 80,-303.7 117,-303.7 117,-284.7 80,-284.7"/>
<text text-anchor="start" x="107.8862" y="-290.8" font-family="Helvetica,sans-Serif" font-size="11.00" fill="#000000"> &#160;</text>
<polygon fill="#ffffff" stroke="transparent" points="117,-284.7 117,-303.7 163,-303.7 163,-284.7 117,-284.7"/>
<polygon fill="none" stroke="#000000" points="117,-284.7 117,-303.7 163,-303.7 163,-284.7 117,-284.7"/>
<text text-anchor="start" x="144.4053" y="-290.8" font-family="Helvetica,sans-Serif" font-size="11.00" fill="#000000">4 &gt;</text>
</a>
</g>
</g>
<!-- fp_event_locations_fp_events_1_c&#45;&gt;fp_event_locations -->
<g id="edge1" class="edge">
<title>fp_event_locations_fp_events_1_c:w&#45;&gt;fp_event_locations:e</title>
<path fill="none" stroke="#000000" d="M200.8396,-498.7881C174.1709,-479.9739 208.2714,-399.7 163,-399.7"/>
<polygon fill="#000000" stroke="#000000" points="207.2888,-500.5697 214.0414,-506.17 211.1444,-501.6348 215,-502.7 215,-502.7 215,-502.7 211.1444,-501.6348 215.9586,-499.23 207.2888,-500.5697 207.2888,-500.5697"/>
<ellipse fill="none" stroke="#000000" cx="204.2044" cy="-499.7176" rx="3.2" ry="3.2"/>
</g>
<!-- fp_events -->
<g id="node3" class="node">
<title>fp_events</title>
<g id="a_node3"><a xlink:href="../../tables/fp_events.html" xlink:title="fp_events" target="_top">
<polygon fill="#ffffff" stroke="transparent" points="8,-115.2 8,-264.2 164,-264.2 164,-115.2 8,-115.2"/>
<polygon fill="#f5f5f5" stroke="transparent" points="8,-240.7 8,-263.7 164,-263.7 164,-240.7 8,-240.7"/>
<polygon fill="none" stroke="#000000" points="8,-240.7 8,-263.7 164,-263.7 164,-240.7 8,-240.7"/>
<text text-anchor="start" x="13" y="-249.8" font-family="Helvetica,sans-Serif" font-weight="bold" font-size="11.00" fill="#000000">fp_events</text>
<text text-anchor="start" x="129.0437" y="-248.8" font-family="Helvetica,sans-Serif" font-size="11.00" fill="#000000">[table]</text>
<polygon fill="none" stroke="#000000" points="8,-218.7 8,-240.7 164,-240.7 164,-218.7 8,-218.7"/>
<image xlink:href="../../images/primaryKeys.png" width="11px" height="12px" preserveAspectRatio="xMinYMin meet" x="13" y="-235.7"/>
<text text-anchor="start" x="28" y="-225.8" font-family="Helvetica,sans-Serif" font-size="11.00" fill="#000000">id</text>
<polygon fill="#c0c0c0" stroke="transparent" points="8,-196.7 8,-218.7 164,-218.7 164,-196.7 8,-196.7"/>
<polygon fill="none" stroke="#000000" points="8,-196.7 8,-218.7 164,-218.7 164,-196.7 8,-196.7"/>
<image xlink:href="../../images/foreignKeys.png" width="11px" height="12px" preserveAspectRatio="xMinYMin meet" x="13" y="-213.7"/>
<text text-anchor="start" x="28" y="-203.8" font-family="Helvetica,sans-Serif" font-size="11.00" fill="#000000">modified_user_id</text>
<polygon fill="#c0c0c0" stroke="transparent" points="8,-174.7 8,-196.7 164,-196.7 164,-174.7 8,-174.7"/>
<polygon fill="none" stroke="#000000" points="8,-174.7 8,-196.7 164,-196.7 164,-174.7 8,-174.7"/>
<image xlink:href="../../images/foreignKeys.png" width="11px" height="12px" preserveAspectRatio="xMinYMin meet" x="13" y="-191.7"/>
<text text-anchor="start" x="28" y="-181.8" font-family="Helvetica,sans-Serif" font-size="11.00" fill="#000000">created_by</text>
<polygon fill="#c0c0c0" stroke="transparent" points="8,-152.7 8,-174.7 164,-174.7 164,-152.7 8,-152.7"/>
<polygon fill="none" stroke="#000000" points="8,-152.7 8,-174.7 164,-174.7 164,-152.7 8,-152.7"/>
<image xlink:href="../../images/foreignKeys.png" width="11px" height="12px" preserveAspectRatio="xMinYMin meet" x="13" y="-169.7"/>
<text text-anchor="start" x="28" y="-159.8" font-family="Helvetica,sans-Serif" font-size="11.00" fill="#000000">assigned_user_id</text>
<polygon fill="none" stroke="#000000" points="8,-133.7 8,-152.7 164,-152.7 164,-133.7 8,-133.7"/>
<text text-anchor="start" x="11" y="-139.8" font-family="Helvetica,sans-Serif" font-size="11.00" fill="#000000">...</text>
<polygon fill="#ffffff" stroke="transparent" points="8,-114.7 8,-133.7 80,-133.7 80,-114.7 8,-114.7"/>
<polygon fill="none" stroke="#000000" points="8,-114.7 8,-133.7 80,-133.7 80,-114.7 8,-114.7"/>
<text text-anchor="start" x="11" y="-120.8" font-family="Helvetica,sans-Serif" font-size="11.00" fill="#000000">&lt; 3</text>
<polygon fill="#ffffff" stroke="transparent" points="80,-114.7 80,-133.7 117,-133.7 117,-114.7 80,-114.7"/>
<polygon fill="none" stroke="#000000" points="80,-114.7 80,-133.7 117,-133.7 117,-114.7 80,-114.7"/>
<text text-anchor="start" x="107.8862" y="-120.8" font-family="Helvetica,sans-Serif" font-size="11.00" fill="#000000"> &#160;</text>
<polygon fill="#ffffff" stroke="transparent" points="117,-114.7 117,-133.7 164,-133.7 164,-114.7 117,-114.7"/>
<polygon fill="none" stroke="#000000" points="117,-114.7 117,-133.7 164,-133.7 164,-114.7 117,-114.7"/>
<text text-anchor="start" x="145.4053" y="-120.8" font-family="Helvetica,sans-Serif" font-size="11.00" fill="#000000">7 &gt;</text>
</a>
</g>
</g>
<!-- fp_event_locations_fp_events_1_c&#45;&gt;fp_events -->
<g id="edge2" class="edge">
<title>fp_event_locations_fp_events_1_c:w&#45;&gt;fp_events:e</title>
<path fill="none" stroke="#000000" d="M200.5904,-479.0308C117.4076,-457.2532 272.3879,-229.7 164,-229.7"/>
<polygon fill="#000000" stroke="#000000" points="207.0531,-479.7794 214.5857,-484.2761 211.0266,-480.2397 215,-480.7 215,-480.7 215,-480.7 211.0266,-480.2397 215.4143,-477.1239 207.0531,-479.7794 207.0531,-479.7794"/>
<ellipse fill="none" stroke="#000000" cx="203.8744" cy="-479.4112" rx="3.2" ry="3.2"/>
</g>
<!-- fp_events_contacts_c -->
<g id="node4" class="node">
<title>fp_events_contacts_c</title>
<g id="a_node4"><a xlink:href="../../tables/fp_events_contacts_c.html" xlink:title="fp_events_contacts_c" target="_top">
<polygon fill="#ffffff" stroke="transparent" points="365.5,-202.2 365.5,-263.2 514.5,-263.2 514.5,-202.2 365.5,-202.2"/>
<polygon fill="#f5f5f5" stroke="transparent" points="366,-239.7 366,-262.7 515,-262.7 515,-239.7 366,-239.7"/>
<polygon fill="none" stroke="#000000" points="366,-239.7 366,-262.7 515,-262.7 515,-239.7 366,-239.7"/>
<text text-anchor="start" x="370.8117" y="-248.8" font-family="Helvetica,sans-Serif" font-weight="bold" font-size="11.00" fill="#000000">fp_events_contacts_c</text>
<text text-anchor="start" x="480.5219" y="-247.8" font-family="Helvetica,sans-Serif" font-size="11.00" fill="#000000">[table]</text>
<polygon fill="none" stroke="#000000" points="366,-220.7 366,-239.7 515,-239.7 515,-220.7 366,-220.7"/>
<text text-anchor="start" x="369" y="-226.8" font-family="Helvetica,sans-Serif" font-size="11.00" fill="#000000">...</text>
<polygon fill="#ffffff" stroke="transparent" points="366,-201.7 366,-220.7 439,-220.7 439,-201.7 366,-201.7"/>
<polygon fill="none" stroke="#000000" points="366,-201.7 366,-220.7 439,-220.7 439,-201.7 366,-201.7"/>
<text text-anchor="start" x="369" y="-207.8" font-family="Helvetica,sans-Serif" font-size="11.00" fill="#000000">&lt; 2</text>
<polygon fill="#ffffff" stroke="transparent" points="439,-201.7 439,-220.7 477,-220.7 477,-201.7 439,-201.7"/>
<polygon fill="none" stroke="#000000" points="439,-201.7 439,-220.7 477,-220.7 477,-201.7 439,-201.7"/>
<text text-anchor="start" x="467.8862" y="-207.8" font-family="Helvetica,sans-Serif" font-size="11.00" fill="#000000"> &#160;</text>
<polygon fill="#ffffff" stroke="transparent" points="477,-201.7 477,-220.7 515,-220.7 515,-201.7 477,-201.7"/>
<polygon fill="none" stroke="#000000" points="477,-201.7 477,-220.7 515,-220.7 515,-201.7 477,-201.7"/>
<text text-anchor="start" x="505.8862" y="-207.8" font-family="Helvetica,sans-Serif" font-size="11.00" fill="#000000"> &#160;</text>
</a>
</g>
</g>
<!-- fp_events_contacts_c&#45;&gt;fp_events -->
<g id="edge3" class="edge">
<title>fp_events_contacts_c:w&#45;&gt;fp_events:e</title>
<path fill="none" stroke="#000000" d="M351.3684,-229.7C273.4637,-229.7 248.6927,-229.7 164,-229.7"/>
<polygon fill="#000000" stroke="#000000" points="358,-229.7001 366,-233.3 362,-229.7 366,-229.7 366,-229.7 366,-229.7 362,-229.7 366,-226.1 358,-229.7001 358,-229.7001"/>
<ellipse fill="none" stroke="#000000" cx="354.8" cy="-229.7001" rx="3.2" ry="3.2"/>
</g>
<!-- fp_events_fp_event_locations_1_c -->
<g id="node5" class="node">
<title>fp_events_fp_event_locations_1_c</title>
<g id="a_node5"><a xlink:href="../../tables/fp_events_fp_event_locations_1_c.html" xlink:title="fp_events_fp_event_locations_1_c" target="_top">
<polygon fill="#ffffff" stroke="transparent" points="334,-366.2 334,-427.2 546,-427.2 546,-366.2 334,-366.2"/>
<polygon fill="#f5f5f5" stroke="transparent" points="334,-403.7 334,-426.7 546,-426.7 546,-403.7 334,-403.7"/>
<polygon fill="none" stroke="#000000" points="334,-403.7 334,-426.7 546,-426.7 546,-403.7 334,-403.7"/>
<text text-anchor="start" x="338.8253" y="-412.8" font-family="Helvetica,sans-Serif" font-weight="bold" font-size="11.00" fill="#000000">fp_events_fp_event_locations_1_c</text>
<text text-anchor="start" x="511.5219" y="-411.8" font-family="Helvetica,sans-Serif" font-size="11.00" fill="#000000">[table]</text>
<polygon fill="none" stroke="#000000" points="334,-384.7 334,-403.7 546,-403.7 546,-384.7 334,-384.7"/>
<text text-anchor="start" x="337" y="-390.8" font-family="Helvetica,sans-Serif" font-size="11.00" fill="#000000">...</text>
<polygon fill="#ffffff" stroke="transparent" points="334,-365.7 334,-384.7 438,-384.7 438,-365.7 334,-365.7"/>
<polygon fill="none" stroke="#000000" points="334,-365.7 334,-384.7 438,-384.7 438,-365.7 334,-365.7"/>
<text text-anchor="start" x="337" y="-371.8" font-family="Helvetica,sans-Serif" font-size="11.00" fill="#000000">&lt; 2</text>
<polygon fill="#ffffff" stroke="transparent" points="438,-365.7 438,-384.7 492,-384.7 492,-365.7 438,-365.7"/>
<polygon fill="none" stroke="#000000" points="438,-365.7 438,-384.7 492,-384.7 492,-365.7 438,-365.7"/>
<text text-anchor="start" x="482.8862" y="-371.8" font-family="Helvetica,sans-Serif" font-size="11.00" fill="#000000"> &#160;</text>
<polygon fill="#ffffff" stroke="transparent" points="492,-365.7 492,-384.7 546,-384.7 546,-365.7 492,-365.7"/>
<polygon fill="none" stroke="#000000" points="492,-365.7 492,-384.7 546,-384.7 546,-365.7 492,-365.7"/>
<text text-anchor="start" x="536.8862" y="-371.8" font-family="Helvetica,sans-Serif" font-size="11.00" fill="#000000"> &#160;</text>
</a>
</g>
</g>
<!-- fp_events_fp_event_locations_1_c&#45;&gt;fp_event_locations -->
<g id="edge4" class="edge">
<title>fp_events_fp_event_locations_1_c:w&#45;&gt;fp_event_locations:e</title>
<path fill="none" stroke="#000000" d="M319.5725,-393.7759C255.1902,-394.4704 233.9968,-399.7 163,-399.7"/>
<polygon fill="#000000" stroke="#000000" points="326.0001,-393.7421 334.019,-397.3 330.0001,-393.7211 334,-393.7 334,-393.7 334,-393.7 330.0001,-393.7211 333.981,-390.1 326.0001,-393.7421 326.0001,-393.7421"/>
<ellipse fill="none" stroke="#000000" cx="322.8002" cy="-393.759" rx="3.2" ry="3.2"/>
</g>
<!-- fp_events_fp_event_locations_1_c&#45;&gt;fp_events -->
<g id="edge5" class="edge">
<title>fp_events_fp_event_locations_1_c:w&#45;&gt;fp_events:e</title>
<path fill="none" stroke="#000000" d="M319.2989,-393.7501C269.5755,-393.9951 244.1705,-393.7842 205,-355.7 162.777,-314.6479 222.8901,-229.7 164,-229.7"/>
<polygon fill="#000000" stroke="#000000" points="326,-393.7273 334.0123,-397.3 330,-393.7137 334,-393.7 334,-393.7 334,-393.7 330,-393.7137 333.9877,-390.1 326,-393.7273 326,-393.7273"/>
<ellipse fill="none" stroke="#000000" cx="322.8001" cy="-393.7382" rx="3.2" ry="3.2"/>
</g>
<!-- fp_events_leads_1_c -->
<g id="node6" class="node">
<title>fp_events_leads_1_c</title>
<g id="a_node6"><a xlink:href="../../tables/fp_events_leads_1_c.html" xlink:title="fp_events_leads_1_c" target="_top">
<polygon fill="#ffffff" stroke="transparent" points="367,-120.2 367,-181.2 513,-181.2 513,-120.2 367,-120.2"/>
<polygon fill="#f5f5f5" stroke="transparent" points="367,-157.7 367,-180.7 513,-180.7 513,-157.7 367,-157.7"/>
<polygon fill="none" stroke="#000000" points="367,-157.7 367,-180.7 513,-180.7 513,-157.7 367,-157.7"/>
<text text-anchor="start" x="371.5333" y="-166.8" font-family="Helvetica,sans-Serif" font-weight="bold" font-size="11.00" fill="#000000">fp_events_leads_1_c</text>
<text text-anchor="start" x="478.5219" y="-165.8" font-family="Helvetica,sans-Serif" font-size="11.00" fill="#000000">[table]</text>
<polygon fill="none" stroke="#000000" points="367,-138.7 367,-157.7 513,-157.7 513,-138.7 367,-138.7"/>
<text text-anchor="start" x="370" y="-144.8" font-family="Helvetica,sans-Serif" font-size="11.00" fill="#000000">...</text>
<polygon fill="#ffffff" stroke="transparent" points="367,-119.7 367,-138.7 438,-138.7 438,-119.7 367,-119.7"/>
<polygon fill="none" stroke="#000000" points="367,-119.7 367,-138.7 438,-138.7 438,-119.7 367,-119.7"/>
<text text-anchor="start" x="370" y="-125.8" font-family="Helvetica,sans-Serif" font-size="11.00" fill="#000000">&lt; 2</text>
<polygon fill="#ffffff" stroke="transparent" points="438,-119.7 438,-138.7 475,-138.7 475,-119.7 438,-119.7"/>
<polygon fill="none" stroke="#000000" points="438,-119.7 438,-138.7 475,-138.7 475,-119.7 438,-119.7"/>
<text text-anchor="start" x="465.8862" y="-125.8" font-family="Helvetica,sans-Serif" font-size="11.00" fill="#000000"> &#160;</text>
<polygon fill="#ffffff" stroke="transparent" points="475,-119.7 475,-138.7 513,-138.7 513,-119.7 475,-119.7"/>
<polygon fill="none" stroke="#000000" points="475,-119.7 475,-138.7 513,-138.7 513,-119.7 475,-119.7"/>
<text text-anchor="start" x="503.8862" y="-125.8" font-family="Helvetica,sans-Serif" font-size="11.00" fill="#000000"> &#160;</text>
</a>
</g>
</g>
<!-- fp_events_leads_1_c&#45;&gt;fp_events -->
<g id="edge6" class="edge">
<title>fp_events_leads_1_c:w&#45;&gt;fp_events:e</title>
<path fill="none" stroke="#000000" d="M352.4044,-147.8162C289.1626,-148.9013 265.7873,-157.9909 205,-191.7 183.2721,-203.7491 188.8452,-229.7 164,-229.7"/>
<polygon fill="#000000" stroke="#000000" points="359.0003,-147.7637 367.0287,-151.2999 363.0001,-147.7319 367,-147.7 367,-147.7 367,-147.7 363.0001,-147.7319 366.9713,-144.1001 359.0003,-147.7637 359.0003,-147.7637"/>
<ellipse fill="none" stroke="#000000" cx="355.8004" cy="-147.7892" rx="3.2" ry="3.2"/>
</g>
<!-- fp_events_prospects_1_c -->
<g id="node7" class="node">
<title>fp_events_prospects_1_c</title>
<g id="a_node7"><a xlink:href="../../tables/fp_events_prospects_1_c.html" xlink:title="fp_events_prospects_1_c" target="_top">
<polygon fill="#ffffff" stroke="transparent" points="356,-38.2 356,-99.2 524,-99.2 524,-38.2 356,-38.2"/>
<polygon fill="#f5f5f5" stroke="transparent" points="356,-75.7 356,-98.7 524,-98.7 524,-75.7 356,-75.7"/>
<polygon fill="none" stroke="#000000" points="356,-75.7 356,-98.7 524,-98.7 524,-75.7 356,-75.7"/>
<text text-anchor="start" x="360.8369" y="-84.8" font-family="Helvetica,sans-Serif" font-weight="bold" font-size="11.00" fill="#000000">fp_events_prospects_1_c</text>
<text text-anchor="start" x="489.5219" y="-83.8" font-family="Helvetica,sans-Serif" font-size="11.00" fill="#000000">[table]</text>
<polygon fill="none" stroke="#000000" points="356,-56.7 356,-75.7 524,-75.7 524,-56.7 356,-56.7"/>
<text text-anchor="start" x="359" y="-62.8" font-family="Helvetica,sans-Serif" font-size="11.00" fill="#000000">...</text>
<polygon fill="#ffffff" stroke="transparent" points="356,-37.7 356,-56.7 438,-56.7 438,-37.7 356,-37.7"/>
<polygon fill="none" stroke="#000000" points="356,-37.7 356,-56.7 438,-56.7 438,-37.7 356,-37.7"/>
<text text-anchor="start" x="359" y="-43.8" font-family="Helvetica,sans-Serif" font-size="11.00" fill="#000000">&lt; 2</text>
<polygon fill="#ffffff" stroke="transparent" points="438,-37.7 438,-56.7 481,-56.7 481,-37.7 438,-37.7"/>
<polygon fill="none" stroke="#000000" points="438,-37.7 438,-56.7 481,-56.7 481,-37.7 438,-37.7"/>
<text text-anchor="start" x="471.8862" y="-43.8" font-family="Helvetica,sans-Serif" font-size="11.00" fill="#000000"> &#160;</text>
<polygon fill="#ffffff" stroke="transparent" points="481,-37.7 481,-56.7 524,-56.7 524,-37.7 481,-37.7"/>
<polygon fill="none" stroke="#000000" points="481,-37.7 481,-56.7 524,-56.7 524,-37.7 481,-37.7"/>
<text text-anchor="start" x="514.8862" y="-43.8" font-family="Helvetica,sans-Serif" font-size="11.00" fill="#000000"> &#160;</text>
</a>
</g>
</g>
<!-- fp_events_prospects_1_c&#45;&gt;fp_events -->
<g id="edge7" class="edge">
<title>fp_events_prospects_1_c:w&#45;&gt;fp_events:e</title>
<path fill="none" stroke="#000000" d="M341.4395,-65.6543C281.5775,-65.355 251.8919,-64.9031 205,-109.7 164.2472,-148.632 220.3604,-229.7 164,-229.7"/>
<polygon fill="#000000" stroke="#000000" points="348,-65.6748 355.9887,-69.3 352,-65.6874 356,-65.7 356,-65.7 356,-65.7 352,-65.6874 356.0113,-62.1 348,-65.6748 348,-65.6748"/>
<ellipse fill="none" stroke="#000000" cx="344.8001" cy="-65.6648" rx="3.2" ry="3.2"/>
</g>
<!-- securitygroups_records -->
<g id="node8" class="node">
<title>securitygroups_records</title>
<g id="a_node8"><a xlink:href="../../tables/securitygroups_records.html" xlink:title="securitygroups_records" target="_top">
<polygon fill="#ffffff" stroke="transparent" points="361.5,-284.2 361.5,-345.2 518.5,-345.2 518.5,-284.2 361.5,-284.2"/>
<polygon fill="#f5f5f5" stroke="transparent" points="362,-321.7 362,-344.7 519,-344.7 519,-321.7 362,-321.7"/>
<polygon fill="none" stroke="#000000" points="362,-321.7 362,-344.7 519,-344.7 519,-321.7 362,-321.7"/>
<text text-anchor="start" x="366.8528" y="-330.8" font-family="Helvetica,sans-Serif" font-weight="bold" font-size="11.00" fill="#000000">securitygroups_records</text>
<text text-anchor="start" x="484.5219" y="-329.8" font-family="Helvetica,sans-Serif" font-size="11.00" fill="#000000">[table]</text>
<polygon fill="none" stroke="#000000" points="362,-302.7 362,-321.7 519,-321.7 519,-302.7 362,-302.7"/>
<text text-anchor="start" x="365" y="-308.8" font-family="Helvetica,sans-Serif" font-size="11.00" fill="#000000">...</text>
<polygon fill="#ffffff" stroke="transparent" points="362,-283.7 362,-302.7 442,-302.7 442,-283.7 362,-283.7"/>
<polygon fill="none" stroke="#000000" points="362,-283.7 362,-302.7 442,-302.7 442,-283.7 362,-283.7"/>
<text text-anchor="start" x="365" y="-289.8" font-family="Helvetica,sans-Serif" font-size="11.00" fill="#000000">&lt; 41</text>
<polygon fill="#ffffff" stroke="transparent" points="442,-283.7 442,-302.7 480,-302.7 480,-283.7 442,-283.7"/>
<polygon fill="none" stroke="#000000" points="442,-283.7 442,-302.7 480,-302.7 480,-283.7 442,-283.7"/>
<text text-anchor="start" x="470.8862" y="-289.8" font-family="Helvetica,sans-Serif" font-size="11.00" fill="#000000"> &#160;</text>
<polygon fill="#ffffff" stroke="transparent" points="480,-283.7 480,-302.7 519,-302.7 519,-283.7 480,-283.7"/>
<polygon fill="none" stroke="#000000" points="480,-283.7 480,-302.7 519,-302.7 519,-283.7 480,-283.7"/>
<text text-anchor="start" x="509.8862" y="-289.8" font-family="Helvetica,sans-Serif" font-size="11.00" fill="#000000"> &#160;</text>
</a>
</g>
</g>
<!-- securitygroups_records&#45;&gt;fp_event_locations -->
<g id="edge8" class="edge">
<title>securitygroups_records:w&#45;&gt;fp_event_locations:e</title>
<path fill="none" stroke="#000000" d="M347.4253,-311.8075C286.1855,-312.7913 262.7518,-321.0074 205,-355.7 181.8255,-369.6214 190.0345,-399.7 163,-399.7"/>
<polygon fill="#000000" stroke="#000000" points="354.0002,-311.759 362.0266,-315.2999 358.0001,-311.7295 362,-311.7 362,-311.7 362,-311.7 358.0001,-311.7295 361.9734,-308.1001 354.0002,-311.759 354.0002,-311.759"/>
<ellipse fill="none" stroke="#000000" cx="350.8003" cy="-311.7826" rx="3.2" ry="3.2"/>
</g>
<!-- securitygroups_records&#45;&gt;fp_events -->
<g id="edge9" class="edge">
<title>securitygroups_records:w&#45;&gt;fp_events:e</title>
<path fill="none" stroke="#000000" d="M347.5462,-311.6625C286.7491,-311.2815 262.619,-307.3883 205,-273.7 181.9251,-260.2087 190.7296,-229.7 164,-229.7"/>
<polygon fill="#000000" stroke="#000000" points="354,-311.6792 361.9906,-315.3 358,-311.6896 362,-311.7 362,-311.7 362,-311.7 358,-311.6896 362.0094,-308.1 354,-311.6792 354,-311.6792"/>
<ellipse fill="none" stroke="#000000" cx="350.8" cy="-311.6708" rx="3.2" ry="3.2"/>
</g>
</g>
</svg>
