<?xml version="1.0" encoding="UTF-8" standalone="no"?>
<!DOCTYPE svg PUBLIC "-//W3C//DTD SVG 1.1//EN"
 "http://www.w3.org/Graphics/SVG/1.1/DTD/svg11.dtd">
<!-- Generated by graphviz version 2.40.1 (20161225.0304)
 -->
<!-- Title: twoDegreesRelationshipsDiagram Pages: 1 -->
<svg width="454pt" height="809pt"
 viewBox="0.00 0.00 454.00 809.20" xmlns="http://www.w3.org/2000/svg" xmlns:xlink="http://www.w3.org/1999/xlink">
<g id="graph0" class="graph" transform="scale(1 1) rotate(0) translate(4 805.2)">
<title>twoDegreesRelationshipsDiagram</title>
<polygon fill="#ffffff" stroke="transparent" points="-4,4 -4,-805.2 450,-805.2 450,4 -4,4"/>
<text text-anchor="middle" x="72.4936" y="-7.3" font-family="Helvetica,sans-Serif" font-size="11.00" fill="#000000">Generated by SchemaSpy</text>
<!-- fp_event_locations_fp_events_1_c -->
<g id="node1" class="node">
<title>fp_event_locations_fp_events_1_c</title>
<g id="a_node1"><a xlink:href="../../tables/fp_event_locations_fp_events_1_c.html" xlink:title="fp_event_locations_fp_events_1_c" target="_top">
<polygon fill="#ffffff" stroke="transparent" points="219.5,-736.2 219.5,-797.2 431.5,-797.2 431.5,-736.2 219.5,-736.2"/>
<polygon fill="#f5f5f5" stroke="transparent" points="219.5,-773.7 219.5,-796.7 431.5,-796.7 431.5,-773.7 219.5,-773.7"/>
<polygon fill="none" stroke="#000000" points="219.5,-773.7 219.5,-796.7 431.5,-796.7 431.5,-773.7 219.5,-773.7"/>
<text text-anchor="start" x="224.3253" y="-782.8" font-family="Helvetica,sans-Serif" font-weight="bold" font-size="11.00" fill="#000000">fp_event_locations_fp_events_1_c</text>
<text text-anchor="start" x="397.0219" y="-781.8" font-family="Helvetica,sans-Serif" font-size="11.00" fill="#000000">[table]</text>
<polygon fill="none" stroke="#000000" points="219.5,-754.7 219.5,-773.7 431.5,-773.7 431.5,-754.7 219.5,-754.7"/>
<text text-anchor="start" x="222.5" y="-760.8" font-family="Helvetica,sans-Serif" font-size="11.00" fill="#000000">...</text>
<polygon fill="#ffffff" stroke="transparent" points="219.5,-735.7 219.5,-754.7 323.5,-754.7 323.5,-735.7 219.5,-735.7"/>
<polygon fill="none" stroke="#000000" points="219.5,-735.7 219.5,-754.7 323.5,-754.7 323.5,-735.7 219.5,-735.7"/>
<text text-anchor="start" x="222.5" y="-741.8" font-family="Helvetica,sans-Serif" font-size="11.00" fill="#000000">&lt; 2</text>
<polygon fill="#ffffff" stroke="transparent" points="323.5,-735.7 323.5,-754.7 377.5,-754.7 377.5,-735.7 323.5,-735.7"/>
<polygon fill="none" stroke="#000000" points="323.5,-735.7 323.5,-754.7 377.5,-754.7 377.5,-735.7 323.5,-735.7"/>
<text text-anchor="start" x="368.3862" y="-741.8" font-family="Helvetica,sans-Serif" font-size="11.00" fill="#000000"> &#160;</text>
<polygon fill="#ffffff" stroke="transparent" points="377.5,-735.7 377.5,-754.7 431.5,-754.7 431.5,-735.7 377.5,-735.7"/>
<polygon fill="none" stroke="#000000" points="377.5,-735.7 377.5,-754.7 431.5,-754.7 431.5,-735.7 377.5,-735.7"/>
<text text-anchor="start" x="422.3862" y="-741.8" font-family="Helvetica,sans-Serif" font-size="11.00" fill="#000000"> &#160;</text>
</a>
</g>
</g>
<!-- fp_events -->
<g id="node2" class="node">
<title>fp_events</title>
<g id="a_node2"><a xlink:href="../../tables/fp_events.html" xlink:title="fp_events" target="_top">
<polygon fill="#ffffff" stroke="transparent" points="8,-197.2 8,-346.2 164,-346.2 164,-197.2 8,-197.2"/>
<polygon fill="#f5f5f5" stroke="transparent" points="8,-322.7 8,-345.7 164,-345.7 164,-322.7 8,-322.7"/>
<polygon fill="none" stroke="#000000" points="8,-322.7 8,-345.7 164,-345.7 164,-322.7 8,-322.7"/>
<text text-anchor="start" x="13" y="-331.8" font-family="Helvetica,sans-Serif" font-weight="bold" font-size="11.00" fill="#000000">fp_events</text>
<text text-anchor="start" x="129.0437" y="-330.8" font-family="Helvetica,sans-Serif" font-size="11.00" fill="#000000">[table]</text>
<polygon fill="none" stroke="#000000" points="8,-300.7 8,-322.7 164,-322.7 164,-300.7 8,-300.7"/>
<image xlink:href="../../images/primaryKeys.png" width="11px" height="12px" preserveAspectRatio="xMinYMin meet" x="13" y="-317.7"/>
<text text-anchor="start" x="28" y="-307.8" font-family="Helvetica,sans-Serif" font-size="11.00" fill="#000000">id</text>
<polygon fill="#c0c0c0" stroke="transparent" points="8,-278.7 8,-300.7 164,-300.7 164,-278.7 8,-278.7"/>
<polygon fill="none" stroke="#000000" points="8,-278.7 8,-300.7 164,-300.7 164,-278.7 8,-278.7"/>
<image xlink:href="../../images/foreignKeys.png" width="11px" height="12px" preserveAspectRatio="xMinYMin meet" x="13" y="-295.7"/>
<text text-anchor="start" x="28" y="-285.8" font-family="Helvetica,sans-Serif" font-size="11.00" fill="#000000">modified_user_id</text>
<polygon fill="#c0c0c0" stroke="transparent" points="8,-256.7 8,-278.7 164,-278.7 164,-256.7 8,-256.7"/>
<polygon fill="none" stroke="#000000" points="8,-256.7 8,-278.7 164,-278.7 164,-256.7 8,-256.7"/>
<image xlink:href="../../images/foreignKeys.png" width="11px" height="12px" preserveAspectRatio="xMinYMin meet" x="13" y="-273.7"/>
<text text-anchor="start" x="28" y="-263.8" font-family="Helvetica,sans-Serif" font-size="11.00" fill="#000000">created_by</text>
<polygon fill="#c0c0c0" stroke="transparent" points="8,-234.7 8,-256.7 164,-256.7 164,-234.7 8,-234.7"/>
<polygon fill="none" stroke="#000000" points="8,-234.7 8,-256.7 164,-256.7 164,-234.7 8,-234.7"/>
<image xlink:href="../../images/foreignKeys.png" width="11px" height="12px" preserveAspectRatio="xMinYMin meet" x="13" y="-251.7"/>
<text text-anchor="start" x="28" y="-241.8" font-family="Helvetica,sans-Serif" font-size="11.00" fill="#000000">assigned_user_id</text>
<polygon fill="none" stroke="#000000" points="8,-215.7 8,-234.7 164,-234.7 164,-215.7 8,-215.7"/>
<text text-anchor="start" x="11" y="-221.8" font-family="Helvetica,sans-Serif" font-size="11.00" fill="#000000">...</text>
<polygon fill="#ffffff" stroke="transparent" points="8,-196.7 8,-215.7 80,-215.7 80,-196.7 8,-196.7"/>
<polygon fill="none" stroke="#000000" points="8,-196.7 8,-215.7 80,-215.7 80,-196.7 8,-196.7"/>
<text text-anchor="start" x="11" y="-202.8" font-family="Helvetica,sans-Serif" font-size="11.00" fill="#000000">&lt; 3</text>
<polygon fill="#ffffff" stroke="transparent" points="80,-196.7 80,-215.7 117,-215.7 117,-196.7 80,-196.7"/>
<polygon fill="none" stroke="#000000" points="80,-196.7 80,-215.7 117,-215.7 117,-196.7 80,-196.7"/>
<text text-anchor="start" x="107.8862" y="-202.8" font-family="Helvetica,sans-Serif" font-size="11.00" fill="#000000"> &#160;</text>
<polygon fill="#ffffff" stroke="transparent" points="117,-196.7 117,-215.7 164,-215.7 164,-196.7 117,-196.7"/>
<polygon fill="none" stroke="#000000" points="117,-196.7 117,-215.7 164,-215.7 164,-196.7 117,-196.7"/>
<text text-anchor="start" x="145.4053" y="-202.8" font-family="Helvetica,sans-Serif" font-size="11.00" fill="#000000">7 &gt;</text>
</a>
</g>
</g>
<!-- fp_event_locations_fp_events_1_c&#45;&gt;fp_events -->
<g id="edge1" class="edge">
<title>fp_event_locations_fp_events_1_c:w&#45;&gt;fp_events:e</title>
<path fill="none" stroke="#000000" d="M205.4871,-760.0617C133.1044,-717.2851 259.8621,-311.7 164,-311.7"/>
<polygon fill="#000000" stroke="#000000" points="211.7567,-761.6895 218.5953,-767.1845 215.6284,-762.6947 219.5,-763.7 219.5,-763.7 219.5,-763.7 215.6284,-762.6947 220.4047,-760.2155 211.7567,-761.6895 211.7567,-761.6895"/>
<ellipse fill="none" stroke="#000000" cx="208.6594" cy="-760.8853" rx="3.2" ry="3.2"/>
</g>
<!-- fp_events_audit -->
<g id="node3" class="node">
<title>fp_events_audit</title>
<g id="a_node3"><a xlink:href="../../tables/fp_events_audit.html" xlink:title="fp_events_audit" target="_top">
<polygon fill="#ffffff" stroke="transparent" points="213,-448.7 213,-714.7 438,-714.7 438,-448.7 213,-448.7"/>
<polygon fill="#f5f5f5" stroke="transparent" points="215.5,-689.7 215.5,-712.7 436.5,-712.7 436.5,-689.7 215.5,-689.7"/>
<polygon fill="none" stroke="#000000" points="215.5,-689.7 215.5,-712.7 436.5,-712.7 436.5,-689.7 215.5,-689.7"/>
<text text-anchor="start" x="220.5" y="-698.8" font-family="Helvetica,sans-Serif" font-weight="bold" font-size="11.00" fill="#000000">fp_events_audit</text>
<text text-anchor="start" x="401.5437" y="-697.8" font-family="Helvetica,sans-Serif" font-size="11.00" fill="#000000">[table]</text>
<polygon fill="none" stroke="#000000" points="215.5,-667.7 215.5,-689.7 369.5,-689.7 369.5,-667.7 215.5,-667.7"/>
<image xlink:href="../../images/primaryKeys.png" width="11px" height="12px" preserveAspectRatio="xMinYMin meet" x="220.5" y="-684.7"/>
<text text-anchor="start" x="235.5" y="-674.8" font-family="Helvetica,sans-Serif" font-size="11.00" fill="#000000">id</text>
<polygon fill="none" stroke="#000000" points="369.5,-667.7 369.5,-689.7 436.5,-689.7 436.5,-667.7 369.5,-667.7"/>
<text text-anchor="start" x="372.5" y="-675.4" font-family="Helvetica,sans-Serif" font-size="11.00" fill="#000000">char[36]</text>
<polygon fill="#ffffff" stroke="transparent" points="215.5,-645.7 215.5,-667.7 369.5,-667.7 369.5,-645.7 215.5,-645.7"/>
<polygon fill="none" stroke="#000000" points="215.5,-645.7 215.5,-667.7 369.5,-667.7 369.5,-645.7 215.5,-645.7"/>
<image xlink:href="../../images/foreignKeys.png" width="11px" height="12px" preserveAspectRatio="xMinYMin meet" x="220.5" y="-662.7"/>
<text text-anchor="start" x="235.5" y="-652.8" font-family="Helvetica,sans-Serif" font-size="11.00" fill="#000000">parent_id</text>
<polygon fill="none" stroke="#000000" points="369.5,-645.7 369.5,-667.7 436.5,-667.7 436.5,-645.7 369.5,-645.7"/>
<text text-anchor="start" x="372.5" y="-653.4" font-family="Helvetica,sans-Serif" font-size="11.00" fill="#000000">char[36]</text>
<polygon fill="none" stroke="#000000" points="215.5,-623.7 215.5,-645.7 369.5,-645.7 369.5,-623.7 215.5,-623.7"/>
<text text-anchor="start" x="235.5" y="-630.8" font-family="Helvetica,sans-Serif" font-size="11.00" fill="#000000">date_created</text>
<polygon fill="none" stroke="#000000" points="369.5,-623.7 369.5,-645.7 436.5,-645.7 436.5,-623.7 369.5,-623.7"/>
<text text-anchor="start" x="372.5" y="-631.4" font-family="Helvetica,sans-Serif" font-size="11.00" fill="#000000">datetime[26]</text>
<polygon fill="none" stroke="#000000" points="215.5,-601.7 215.5,-623.7 369.5,-623.7 369.5,-601.7 215.5,-601.7"/>
<text text-anchor="start" x="235.5" y="-608.8" font-family="Helvetica,sans-Serif" font-size="11.00" fill="#000000">created_by</text>
<polygon fill="none" stroke="#000000" points="369.5,-601.7 369.5,-623.7 436.5,-623.7 436.5,-601.7 369.5,-601.7"/>
<text text-anchor="start" x="372.5" y="-609.4" font-family="Helvetica,sans-Serif" font-size="11.00" fill="#000000">varchar[36]</text>
<polygon fill="none" stroke="#000000" points="215.5,-579.7 215.5,-601.7 369.5,-601.7 369.5,-579.7 215.5,-579.7"/>
<text text-anchor="start" x="235.5" y="-586.8" font-family="Helvetica,sans-Serif" font-size="11.00" fill="#000000">field_name</text>
<polygon fill="none" stroke="#000000" points="369.5,-579.7 369.5,-601.7 436.5,-601.7 436.5,-579.7 369.5,-579.7"/>
<text text-anchor="start" x="372.4365" y="-587.4" font-family="Helvetica,sans-Serif" font-size="11.00" fill="#000000">varchar[100]</text>
<polygon fill="none" stroke="#000000" points="215.5,-557.7 215.5,-579.7 369.5,-579.7 369.5,-557.7 215.5,-557.7"/>
<text text-anchor="start" x="235.5" y="-564.8" font-family="Helvetica,sans-Serif" font-size="11.00" fill="#000000">data_type</text>
<polygon fill="none" stroke="#000000" points="369.5,-557.7 369.5,-579.7 436.5,-579.7 436.5,-557.7 369.5,-557.7"/>
<text text-anchor="start" x="372.4365" y="-565.4" font-family="Helvetica,sans-Serif" font-size="11.00" fill="#000000">varchar[100]</text>
<polygon fill="none" stroke="#000000" points="215.5,-535.7 215.5,-557.7 369.5,-557.7 369.5,-535.7 215.5,-535.7"/>
<text text-anchor="start" x="235.5" y="-542.8" font-family="Helvetica,sans-Serif" font-size="11.00" fill="#000000">before_value_string</text>
<polygon fill="none" stroke="#000000" points="369.5,-535.7 369.5,-557.7 436.5,-557.7 436.5,-535.7 369.5,-535.7"/>
<text text-anchor="start" x="372.4365" y="-543.4" font-family="Helvetica,sans-Serif" font-size="11.00" fill="#000000">varchar[255]</text>
<polygon fill="none" stroke="#000000" points="215.5,-513.7 215.5,-535.7 369.5,-535.7 369.5,-513.7 215.5,-513.7"/>
<text text-anchor="start" x="235.5" y="-520.8" font-family="Helvetica,sans-Serif" font-size="11.00" fill="#000000">after_value_string</text>
<polygon fill="none" stroke="#000000" points="369.5,-513.7 369.5,-535.7 436.5,-535.7 436.5,-513.7 369.5,-513.7"/>
<text text-anchor="start" x="372.4365" y="-521.4" font-family="Helvetica,sans-Serif" font-size="11.00" fill="#000000">varchar[255]</text>
<polygon fill="none" stroke="#000000" points="215.5,-491.7 215.5,-513.7 369.5,-513.7 369.5,-491.7 215.5,-491.7"/>
<text text-anchor="start" x="235.5" y="-498.8" font-family="Helvetica,sans-Serif" font-size="11.00" fill="#000000">before_value_text</text>
<polygon fill="none" stroke="#000000" points="369.5,-491.7 369.5,-513.7 436.5,-513.7 436.5,-491.7 369.5,-491.7"/>
<text text-anchor="start" x="372.5" y="-499.4" font-family="Helvetica,sans-Serif" font-size="11.00" fill="#000000">text[65535]</text>
<polygon fill="none" stroke="#000000" points="215.5,-469.7 215.5,-491.7 369.5,-491.7 369.5,-469.7 215.5,-469.7"/>
<text text-anchor="start" x="235.5" y="-476.8" font-family="Helvetica,sans-Serif" font-size="11.00" fill="#000000">after_value_text</text>
<polygon fill="none" stroke="#000000" points="369.5,-469.7 369.5,-491.7 436.5,-491.7 436.5,-469.7 369.5,-469.7"/>
<text text-anchor="start" x="372.5" y="-477.4" font-family="Helvetica,sans-Serif" font-size="11.00" fill="#000000">text[65535]</text>
<polygon fill="#ffffff" stroke="transparent" points="215.5,-450.7 215.5,-469.7 296.5,-469.7 296.5,-450.7 215.5,-450.7"/>
<polygon fill="none" stroke="#000000" points="215.5,-450.7 215.5,-469.7 296.5,-469.7 296.5,-450.7 215.5,-450.7"/>
<text text-anchor="start" x="218.5" y="-456.8" font-family="Helvetica,sans-Serif" font-size="11.00" fill="#000000">&lt; 1</text>
<polygon fill="#ffffff" stroke="transparent" points="296.5,-450.7 296.5,-469.7 369.5,-469.7 369.5,-450.7 296.5,-450.7"/>
<polygon fill="none" stroke="#000000" points="296.5,-450.7 296.5,-469.7 369.5,-469.7 369.5,-450.7 296.5,-450.7"/>
<text text-anchor="start" x="360.3862" y="-456.8" font-family="Helvetica,sans-Serif" font-size="11.00" fill="#000000"> &#160;</text>
<polygon fill="#ffffff" stroke="transparent" points="369.5,-450.7 369.5,-469.7 436.5,-469.7 436.5,-450.7 369.5,-450.7"/>
<polygon fill="none" stroke="#000000" points="369.5,-450.7 369.5,-469.7 436.5,-469.7 436.5,-450.7 369.5,-450.7"/>
<text text-anchor="start" x="417.9053" y="-456.8" font-family="Helvetica,sans-Serif" font-size="11.00" fill="#000000">0 &gt;</text>
<polygon fill="none" stroke="#000000" stroke-width="2" points="214,-449.7 214,-713.7 437,-713.7 437,-449.7 214,-449.7"/>
</a>
</g>
</g>
<!-- fp_events_audit&#45;&gt;fp_events -->
<g id="edge2" class="edge">
<title>fp_events_audit:w&#45;&gt;fp_events:e</title>
<path fill="none" stroke="#000000" d="M201.7083,-651.823C151.648,-609.89 236.0658,-311.7 164,-311.7"/>
<polygon fill="#000000" stroke="#000000" points="207.9577,-654.0328 214.2998,-660.094 211.7288,-655.3664 215.5,-656.7 215.5,-656.7 215.5,-656.7 211.7288,-655.3664 216.7002,-653.306 207.9577,-654.0328 207.9577,-654.0328"/>
<ellipse fill="none" stroke="#000000" cx="204.9408" cy="-652.966" rx="3.2" ry="3.2"/>
</g>
<!-- fp_events_contacts_c -->
<g id="node4" class="node">
<title>fp_events_contacts_c</title>
<g id="a_node4"><a xlink:href="../../tables/fp_events_contacts_c.html" xlink:title="fp_events_contacts_c" target="_top">
<polygon fill="#ffffff" stroke="transparent" points="251,-366.2 251,-427.2 400,-427.2 400,-366.2 251,-366.2"/>
<polygon fill="#f5f5f5" stroke="transparent" points="251.5,-403.7 251.5,-426.7 400.5,-426.7 400.5,-403.7 251.5,-403.7"/>
<polygon fill="none" stroke="#000000" points="251.5,-403.7 251.5,-426.7 400.5,-426.7 400.5,-403.7 251.5,-403.7"/>
<text text-anchor="start" x="256.3117" y="-412.8" font-family="Helvetica,sans-Serif" font-weight="bold" font-size="11.00" fill="#000000">fp_events_contacts_c</text>
<text text-anchor="start" x="366.0219" y="-411.8" font-family="Helvetica,sans-Serif" font-size="11.00" fill="#000000">[table]</text>
<polygon fill="none" stroke="#000000" points="251.5,-384.7 251.5,-403.7 400.5,-403.7 400.5,-384.7 251.5,-384.7"/>
<text text-anchor="start" x="254.5" y="-390.8" font-family="Helvetica,sans-Serif" font-size="11.00" fill="#000000">...</text>
<polygon fill="#ffffff" stroke="transparent" points="251.5,-365.7 251.5,-384.7 324.5,-384.7 324.5,-365.7 251.5,-365.7"/>
<polygon fill="none" stroke="#000000" points="251.5,-365.7 251.5,-384.7 324.5,-384.7 324.5,-365.7 251.5,-365.7"/>
<text text-anchor="start" x="254.5" y="-371.8" font-family="Helvetica,sans-Serif" font-size="11.00" fill="#000000">&lt; 2</text>
<polygon fill="#ffffff" stroke="transparent" points="324.5,-365.7 324.5,-384.7 362.5,-384.7 362.5,-365.7 324.5,-365.7"/>
<polygon fill="none" stroke="#000000" points="324.5,-365.7 324.5,-384.7 362.5,-384.7 362.5,-365.7 324.5,-365.7"/>
<text text-anchor="start" x="353.3862" y="-371.8" font-family="Helvetica,sans-Serif" font-size="11.00" fill="#000000"> &#160;</text>
<polygon fill="#ffffff" stroke="transparent" points="362.5,-365.7 362.5,-384.7 400.5,-384.7 400.5,-365.7 362.5,-365.7"/>
<polygon fill="none" stroke="#000000" points="362.5,-365.7 362.5,-384.7 400.5,-384.7 400.5,-365.7 362.5,-365.7"/>
<text text-anchor="start" x="391.3862" y="-371.8" font-family="Helvetica,sans-Serif" font-size="11.00" fill="#000000"> &#160;</text>
</a>
</g>
</g>
<!-- fp_events_contacts_c&#45;&gt;fp_events -->
<g id="edge3" class="edge">
<title>fp_events_contacts_c:w&#45;&gt;fp_events:e</title>
<path fill="none" stroke="#000000" d="M237.292,-391.0872C223.7479,-385.131 220.2153,-369.9575 205,-355.7 185.4954,-337.4233 190.7296,-311.7 164,-311.7"/>
<polygon fill="#000000" stroke="#000000" points="243.6319,-392.253 250.8489,-397.2406 247.566,-392.9765 251.5,-393.7 251.5,-393.7 251.5,-393.7 247.566,-392.9765 252.1511,-390.1594 243.6319,-392.253 243.6319,-392.253"/>
<ellipse fill="none" stroke="#000000" cx="240.4847" cy="-391.6743" rx="3.2" ry="3.2"/>
</g>
<!-- fp_events_fp_event_locations_1_c -->
<g id="node5" class="node">
<title>fp_events_fp_event_locations_1_c</title>
<g id="a_node5"><a xlink:href="../../tables/fp_events_fp_event_locations_1_c.html" xlink:title="fp_events_fp_event_locations_1_c" target="_top">
<polygon fill="#ffffff" stroke="transparent" points="219.5,-284.2 219.5,-345.2 431.5,-345.2 431.5,-284.2 219.5,-284.2"/>
<polygon fill="#f5f5f5" stroke="transparent" points="219.5,-321.7 219.5,-344.7 431.5,-344.7 431.5,-321.7 219.5,-321.7"/>
<polygon fill="none" stroke="#000000" points="219.5,-321.7 219.5,-344.7 431.5,-344.7 431.5,-321.7 219.5,-321.7"/>
<text text-anchor="start" x="224.3253" y="-330.8" font-family="Helvetica,sans-Serif" font-weight="bold" font-size="11.00" fill="#000000">fp_events_fp_event_locations_1_c</text>
<text text-anchor="start" x="397.0219" y="-329.8" font-family="Helvetica,sans-Serif" font-size="11.00" fill="#000000">[table]</text>
<polygon fill="none" stroke="#000000" points="219.5,-302.7 219.5,-321.7 431.5,-321.7 431.5,-302.7 219.5,-302.7"/>
<text text-anchor="start" x="222.5" y="-308.8" font-family="Helvetica,sans-Serif" font-size="11.00" fill="#000000">...</text>
<polygon fill="#ffffff" stroke="transparent" points="219.5,-283.7 219.5,-302.7 323.5,-302.7 323.5,-283.7 219.5,-283.7"/>
<polygon fill="none" stroke="#000000" points="219.5,-283.7 219.5,-302.7 323.5,-302.7 323.5,-283.7 219.5,-283.7"/>
<text text-anchor="start" x="222.5" y="-289.8" font-family="Helvetica,sans-Serif" font-size="11.00" fill="#000000">&lt; 2</text>
<polygon fill="#ffffff" stroke="transparent" points="323.5,-283.7 323.5,-302.7 377.5,-302.7 377.5,-283.7 323.5,-283.7"/>
<polygon fill="none" stroke="#000000" points="323.5,-283.7 323.5,-302.7 377.5,-302.7 377.5,-283.7 323.5,-283.7"/>
<text text-anchor="start" x="368.3862" y="-289.8" font-family="Helvetica,sans-Serif" font-size="11.00" fill="#000000"> &#160;</text>
<polygon fill="#ffffff" stroke="transparent" points="377.5,-283.7 377.5,-302.7 431.5,-302.7 431.5,-283.7 377.5,-283.7"/>
<polygon fill="none" stroke="#000000" points="377.5,-283.7 377.5,-302.7 431.5,-302.7 431.5,-283.7 377.5,-283.7"/>
<text text-anchor="start" x="422.3862" y="-289.8" font-family="Helvetica,sans-Serif" font-size="11.00" fill="#000000"> &#160;</text>
</a>
</g>
</g>
<!-- fp_events_fp_event_locations_1_c&#45;&gt;fp_events -->
<g id="edge4" class="edge">
<title>fp_events_fp_event_locations_1_c:w&#45;&gt;fp_events:e</title>
<path fill="none" stroke="#000000" d="M204.7286,-311.7C190.9265,-311.7 182.8854,-311.7 164,-311.7"/>
<polygon fill="#000000" stroke="#000000" points="211.5,-311.7001 219.5,-315.3 215.5,-311.7 219.5,-311.7 219.5,-311.7 219.5,-311.7 215.5,-311.7 219.5,-308.1 211.5,-311.7001 211.5,-311.7001"/>
<ellipse fill="none" stroke="#000000" cx="208.3" cy="-311.7001" rx="3.2" ry="3.2"/>
</g>
<!-- fp_events_leads_1_c -->
<g id="node6" class="node">
<title>fp_events_leads_1_c</title>
<g id="a_node6"><a xlink:href="../../tables/fp_events_leads_1_c.html" xlink:title="fp_events_leads_1_c" target="_top">
<polygon fill="#ffffff" stroke="transparent" points="252.5,-202.2 252.5,-263.2 398.5,-263.2 398.5,-202.2 252.5,-202.2"/>
<polygon fill="#f5f5f5" stroke="transparent" points="252.5,-239.7 252.5,-262.7 398.5,-262.7 398.5,-239.7 252.5,-239.7"/>
<polygon fill="none" stroke="#000000" points="252.5,-239.7 252.5,-262.7 398.5,-262.7 398.5,-239.7 252.5,-239.7"/>
<text text-anchor="start" x="257.0333" y="-248.8" font-family="Helvetica,sans-Serif" font-weight="bold" font-size="11.00" fill="#000000">fp_events_leads_1_c</text>
<text text-anchor="start" x="364.0219" y="-247.8" font-family="Helvetica,sans-Serif" font-size="11.00" fill="#000000">[table]</text>
<polygon fill="none" stroke="#000000" points="252.5,-220.7 252.5,-239.7 398.5,-239.7 398.5,-220.7 252.5,-220.7"/>
<text text-anchor="start" x="255.5" y="-226.8" font-family="Helvetica,sans-Serif" font-size="11.00" fill="#000000">...</text>
<polygon fill="#ffffff" stroke="transparent" points="252.5,-201.7 252.5,-220.7 323.5,-220.7 323.5,-201.7 252.5,-201.7"/>
<polygon fill="none" stroke="#000000" points="252.5,-201.7 252.5,-220.7 323.5,-220.7 323.5,-201.7 252.5,-201.7"/>
<text text-anchor="start" x="255.5" y="-207.8" font-family="Helvetica,sans-Serif" font-size="11.00" fill="#000000">&lt; 2</text>
<polygon fill="#ffffff" stroke="transparent" points="323.5,-201.7 323.5,-220.7 360.5,-220.7 360.5,-201.7 323.5,-201.7"/>
<polygon fill="none" stroke="#000000" points="323.5,-201.7 323.5,-220.7 360.5,-220.7 360.5,-201.7 323.5,-201.7"/>
<text text-anchor="start" x="351.3862" y="-207.8" font-family="Helvetica,sans-Serif" font-size="11.00" fill="#000000"> &#160;</text>
<polygon fill="#ffffff" stroke="transparent" points="360.5,-201.7 360.5,-220.7 398.5,-220.7 398.5,-201.7 360.5,-201.7"/>
<polygon fill="none" stroke="#000000" points="360.5,-201.7 360.5,-220.7 398.5,-220.7 398.5,-201.7 360.5,-201.7"/>
<text text-anchor="start" x="389.3862" y="-207.8" font-family="Helvetica,sans-Serif" font-size="11.00" fill="#000000"> &#160;</text>
</a>
</g>
</g>
<!-- fp_events_leads_1_c&#45;&gt;fp_events -->
<g id="edge5" class="edge">
<title>fp_events_leads_1_c:w&#45;&gt;fp_events:e</title>
<path fill="none" stroke="#000000" d="M241.8794,-239.4285C218.4407,-261.1494 164.3289,-311.7 164,-311.7"/>
<polygon fill="#000000" stroke="#000000" points="246.6008,-235.1037 254.9317,-232.3546 249.5504,-232.4018 252.5,-229.7 252.5,-229.7 252.5,-229.7 249.5504,-232.4018 250.0683,-227.0454 246.6008,-235.1037 246.6008,-235.1037"/>
<ellipse fill="none" stroke="#000000" cx="244.2411" cy="-237.2652" rx="3.2" ry="3.2"/>
</g>
<!-- fp_events_prospects_1_c -->
<g id="node7" class="node">
<title>fp_events_prospects_1_c</title>
<g id="a_node7"><a xlink:href="../../tables/fp_events_prospects_1_c.html" xlink:title="fp_events_prospects_1_c" target="_top">
<polygon fill="#ffffff" stroke="transparent" points="241.5,-120.2 241.5,-181.2 409.5,-181.2 409.5,-120.2 241.5,-120.2"/>
<polygon fill="#f5f5f5" stroke="transparent" points="241.5,-157.7 241.5,-180.7 409.5,-180.7 409.5,-157.7 241.5,-157.7"/>
<polygon fill="none" stroke="#000000" points="241.5,-157.7 241.5,-180.7 409.5,-180.7 409.5,-157.7 241.5,-157.7"/>
<text text-anchor="start" x="246.3369" y="-166.8" font-family="Helvetica,sans-Serif" font-weight="bold" font-size="11.00" fill="#000000">fp_events_prospects_1_c</text>
<text text-anchor="start" x="375.0219" y="-165.8" font-family="Helvetica,sans-Serif" font-size="11.00" fill="#000000">[table]</text>
<polygon fill="none" stroke="#000000" points="241.5,-138.7 241.5,-157.7 409.5,-157.7 409.5,-138.7 241.5,-138.7"/>
<text text-anchor="start" x="244.5" y="-144.8" font-family="Helvetica,sans-Serif" font-size="11.00" fill="#000000">...</text>
<polygon fill="#ffffff" stroke="transparent" points="241.5,-119.7 241.5,-138.7 323.5,-138.7 323.5,-119.7 241.5,-119.7"/>
<polygon fill="none" stroke="#000000" points="241.5,-119.7 241.5,-138.7 323.5,-138.7 323.5,-119.7 241.5,-119.7"/>
<text text-anchor="start" x="244.5" y="-125.8" font-family="Helvetica,sans-Serif" font-size="11.00" fill="#000000">&lt; 2</text>
<polygon fill="#ffffff" stroke="transparent" points="323.5,-119.7 323.5,-138.7 366.5,-138.7 366.5,-119.7 323.5,-119.7"/>
<polygon fill="none" stroke="#000000" points="323.5,-119.7 323.5,-138.7 366.5,-138.7 366.5,-119.7 323.5,-119.7"/>
<text text-anchor="start" x="357.3862" y="-125.8" font-family="Helvetica,sans-Serif" font-size="11.00" fill="#000000"> &#160;</text>
<polygon fill="#ffffff" stroke="transparent" points="366.5,-119.7 366.5,-138.7 409.5,-138.7 409.5,-119.7 366.5,-119.7"/>
<polygon fill="none" stroke="#000000" points="366.5,-119.7 366.5,-138.7 409.5,-138.7 409.5,-119.7 366.5,-119.7"/>
<text text-anchor="start" x="400.3862" y="-125.8" font-family="Helvetica,sans-Serif" font-size="11.00" fill="#000000"> &#160;</text>
</a>
</g>
</g>
<!-- fp_events_prospects_1_c&#45;&gt;fp_events -->
<g id="edge6" class="edge">
<title>fp_events_prospects_1_c:w&#45;&gt;fp_events:e</title>
<path fill="none" stroke="#000000" d="M227.1661,-149.8943C171.5625,-169.3555 239.1067,-311.7 164,-311.7"/>
<polygon fill="#000000" stroke="#000000" points="233.5921,-148.9106 242.0448,-151.2585 237.5461,-148.3053 241.5,-147.7 241.5,-147.7 241.5,-147.7 237.5461,-148.3053 240.9552,-144.1415 233.5921,-148.9106 233.5921,-148.9106"/>
<ellipse fill="none" stroke="#000000" cx="230.429" cy="-149.3949" rx="3.2" ry="3.2"/>
</g>
<!-- securitygroups_records -->
<g id="node8" class="node">
<title>securitygroups_records</title>
<g id="a_node8"><a xlink:href="../../tables/securitygroups_records.html" xlink:title="securitygroups_records" target="_top">
<polygon fill="#ffffff" stroke="transparent" points="247,-38.2 247,-99.2 404,-99.2 404,-38.2 247,-38.2"/>
<polygon fill="#f5f5f5" stroke="transparent" points="247.5,-75.7 247.5,-98.7 404.5,-98.7 404.5,-75.7 247.5,-75.7"/>
<polygon fill="none" stroke="#000000" points="247.5,-75.7 247.5,-98.7 404.5,-98.7 404.5,-75.7 247.5,-75.7"/>
<text text-anchor="start" x="252.3528" y="-84.8" font-family="Helvetica,sans-Serif" font-weight="bold" font-size="11.00" fill="#000000">securitygroups_records</text>
<text text-anchor="start" x="370.0219" y="-83.8" font-family="Helvetica,sans-Serif" font-size="11.00" fill="#000000">[table]</text>
<polygon fill="none" stroke="#000000" points="247.5,-56.7 247.5,-75.7 404.5,-75.7 404.5,-56.7 247.5,-56.7"/>
<text text-anchor="start" x="250.5" y="-62.8" font-family="Helvetica,sans-Serif" font-size="11.00" fill="#000000">...</text>
<polygon fill="#ffffff" stroke="transparent" points="247.5,-37.7 247.5,-56.7 327.5,-56.7 327.5,-37.7 247.5,-37.7"/>
<polygon fill="none" stroke="#000000" points="247.5,-37.7 247.5,-56.7 327.5,-56.7 327.5,-37.7 247.5,-37.7"/>
<text text-anchor="start" x="250.5" y="-43.8" font-family="Helvetica,sans-Serif" font-size="11.00" fill="#000000">&lt; 41</text>
<polygon fill="#ffffff" stroke="transparent" points="327.5,-37.7 327.5,-56.7 365.5,-56.7 365.5,-37.7 327.5,-37.7"/>
<polygon fill="none" stroke="#000000" points="327.5,-37.7 327.5,-56.7 365.5,-56.7 365.5,-37.7 327.5,-37.7"/>
<text text-anchor="start" x="356.3862" y="-43.8" font-family="Helvetica,sans-Serif" font-size="11.00" fill="#000000"> &#160;</text>
<polygon fill="#ffffff" stroke="transparent" points="365.5,-37.7 365.5,-56.7 404.5,-56.7 404.5,-37.7 365.5,-37.7"/>
<polygon fill="none" stroke="#000000" points="365.5,-37.7 365.5,-56.7 404.5,-56.7 404.5,-37.7 365.5,-37.7"/>
<text text-anchor="start" x="395.3862" y="-43.8" font-family="Helvetica,sans-Serif" font-size="11.00" fill="#000000"> &#160;</text>
</a>
</g>
</g>
<!-- securitygroups_records&#45;&gt;fp_events -->
<g id="edge7" class="edge">
<title>securitygroups_records:w&#45;&gt;fp_events:e</title>
<path fill="none" stroke="#000000" d="M233.2454,-68.2128C218.746,-74.2943 214.9857,-90.7123 205,-109.7 183.68,-150.2399 209.8042,-311.7 164,-311.7"/>
<polygon fill="#000000" stroke="#000000" points="239.6215,-67.0889 248.125,-69.2453 243.5607,-66.3944 247.5,-65.7 247.5,-65.7 247.5,-65.7 243.5607,-66.3944 246.875,-62.1547 239.6215,-67.0889 239.6215,-67.0889"/>
<ellipse fill="none" stroke="#000000" cx="236.4701" cy="-67.6444" rx="3.2" ry="3.2"/>
</g>
</g>
</svg>
