<?xml version="1.0" encoding="UTF-8" standalone="no"?>
<!DOCTYPE svg PUBLIC "-//W3C//DTD SVG 1.1//EN"
 "http://www.w3.org/Graphics/SVG/1.1/DTD/svg11.dtd">
<!-- Generated by graphviz version 2.40.1 (20161225.0304)
 -->
<!-- Title: oneDegreeRelationshipsDiagram Pages: 1 -->
<svg width="433pt" height="316pt"
 viewBox="0.00 0.00 433.00 316.20" xmlns="http://www.w3.org/2000/svg" xmlns:xlink="http://www.w3.org/1999/xlink">
<g id="graph0" class="graph" transform="scale(1 1) rotate(0) translate(4 312.2)">
<title>oneDegreeRelationshipsDiagram</title>
<polygon fill="#ffffff" stroke="transparent" points="-4,4 -4,-312.2 429,-312.2 429,4 -4,4"/>
<text text-anchor="middle" x="72.4936" y="-7.3" font-family="Helvetica,sans-Serif" font-size="11.00" fill="#000000">Generated by SchemaSpy</text>
<!-- jjwg_maps_audit -->
<g id="node1" class="node">
<title>jjwg_maps_audit</title>
<g id="a_node1"><a xlink:href="../../tables/jjwg_maps_audit.html" xlink:title="jjwg_maps_audit" target="_top">
<polygon fill="#ffffff" stroke="transparent" points="192,-38.2 192,-304.2 417,-304.2 417,-38.2 192,-38.2"/>
<polygon fill="#f5f5f5" stroke="transparent" points="194.5,-279.2 194.5,-302.2 415.5,-302.2 415.5,-279.2 194.5,-279.2"/>
<polygon fill="none" stroke="#000000" points="194.5,-279.2 194.5,-302.2 415.5,-302.2 415.5,-279.2 194.5,-279.2"/>
<text text-anchor="start" x="199.5" y="-288.3" font-family="Helvetica,sans-Serif" font-weight="bold" font-size="11.00" fill="#000000">jjwg_maps_audit</text>
<text text-anchor="start" x="380.5437" y="-287.3" font-family="Helvetica,sans-Serif" font-size="11.00" fill="#000000">[table]</text>
<polygon fill="none" stroke="#000000" points="194.5,-257.2 194.5,-279.2 348.5,-279.2 348.5,-257.2 194.5,-257.2"/>
<image xlink:href="../../images/primaryKeys.png" width="11px" height="12px" preserveAspectRatio="xMinYMin meet" x="199.5" y="-274.2"/>
<text text-anchor="start" x="214.5" y="-264.3" font-family="Helvetica,sans-Serif" font-size="11.00" fill="#000000">id</text>
<polygon fill="none" stroke="#000000" points="348.5,-257.2 348.5,-279.2 415.5,-279.2 415.5,-257.2 348.5,-257.2"/>
<text text-anchor="start" x="351.5" y="-264.9" font-family="Helvetica,sans-Serif" font-size="11.00" fill="#000000">char[36]</text>
<polygon fill="#ffffff" stroke="transparent" points="194.5,-235.2 194.5,-257.2 348.5,-257.2 348.5,-235.2 194.5,-235.2"/>
<polygon fill="none" stroke="#000000" points="194.5,-235.2 194.5,-257.2 348.5,-257.2 348.5,-235.2 194.5,-235.2"/>
<image xlink:href="../../images/foreignKeys.png" width="11px" height="12px" preserveAspectRatio="xMinYMin meet" x="199.5" y="-252.2"/>
<text text-anchor="start" x="214.5" y="-242.3" font-family="Helvetica,sans-Serif" font-size="11.00" fill="#000000">parent_id</text>
<polygon fill="none" stroke="#000000" points="348.5,-235.2 348.5,-257.2 415.5,-257.2 415.5,-235.2 348.5,-235.2"/>
<text text-anchor="start" x="351.5" y="-242.9" font-family="Helvetica,sans-Serif" font-size="11.00" fill="#000000">char[36]</text>
<polygon fill="none" stroke="#000000" points="194.5,-213.2 194.5,-235.2 348.5,-235.2 348.5,-213.2 194.5,-213.2"/>
<text text-anchor="start" x="214.5" y="-220.3" font-family="Helvetica,sans-Serif" font-size="11.00" fill="#000000">date_created</text>
<polygon fill="none" stroke="#000000" points="348.5,-213.2 348.5,-235.2 415.5,-235.2 415.5,-213.2 348.5,-213.2"/>
<text text-anchor="start" x="351.5" y="-220.9" font-family="Helvetica,sans-Serif" font-size="11.00" fill="#000000">datetime[26]</text>
<polygon fill="none" stroke="#000000" points="194.5,-191.2 194.5,-213.2 348.5,-213.2 348.5,-191.2 194.5,-191.2"/>
<text text-anchor="start" x="214.5" y="-198.3" font-family="Helvetica,sans-Serif" font-size="11.00" fill="#000000">created_by</text>
<polygon fill="none" stroke="#000000" points="348.5,-191.2 348.5,-213.2 415.5,-213.2 415.5,-191.2 348.5,-191.2"/>
<text text-anchor="start" x="351.5" y="-198.9" font-family="Helvetica,sans-Serif" font-size="11.00" fill="#000000">varchar[36]</text>
<polygon fill="none" stroke="#000000" points="194.5,-169.2 194.5,-191.2 348.5,-191.2 348.5,-169.2 194.5,-169.2"/>
<text text-anchor="start" x="214.5" y="-176.3" font-family="Helvetica,sans-Serif" font-size="11.00" fill="#000000">field_name</text>
<polygon fill="none" stroke="#000000" points="348.5,-169.2 348.5,-191.2 415.5,-191.2 415.5,-169.2 348.5,-169.2"/>
<text text-anchor="start" x="351.4365" y="-176.9" font-family="Helvetica,sans-Serif" font-size="11.00" fill="#000000">varchar[100]</text>
<polygon fill="none" stroke="#000000" points="194.5,-147.2 194.5,-169.2 348.5,-169.2 348.5,-147.2 194.5,-147.2"/>
<text text-anchor="start" x="214.5" y="-154.3" font-family="Helvetica,sans-Serif" font-size="11.00" fill="#000000">data_type</text>
<polygon fill="none" stroke="#000000" points="348.5,-147.2 348.5,-169.2 415.5,-169.2 415.5,-147.2 348.5,-147.2"/>
<text text-anchor="start" x="351.4365" y="-154.9" font-family="Helvetica,sans-Serif" font-size="11.00" fill="#000000">varchar[100]</text>
<polygon fill="none" stroke="#000000" points="194.5,-125.2 194.5,-147.2 348.5,-147.2 348.5,-125.2 194.5,-125.2"/>
<text text-anchor="start" x="214.5" y="-132.3" font-family="Helvetica,sans-Serif" font-size="11.00" fill="#000000">before_value_string</text>
<polygon fill="none" stroke="#000000" points="348.5,-125.2 348.5,-147.2 415.5,-147.2 415.5,-125.2 348.5,-125.2"/>
<text text-anchor="start" x="351.4365" y="-132.9" font-family="Helvetica,sans-Serif" font-size="11.00" fill="#000000">varchar[255]</text>
<polygon fill="none" stroke="#000000" points="194.5,-103.2 194.5,-125.2 348.5,-125.2 348.5,-103.2 194.5,-103.2"/>
<text text-anchor="start" x="214.5" y="-110.3" font-family="Helvetica,sans-Serif" font-size="11.00" fill="#000000">after_value_string</text>
<polygon fill="none" stroke="#000000" points="348.5,-103.2 348.5,-125.2 415.5,-125.2 415.5,-103.2 348.5,-103.2"/>
<text text-anchor="start" x="351.4365" y="-110.9" font-family="Helvetica,sans-Serif" font-size="11.00" fill="#000000">varchar[255]</text>
<polygon fill="none" stroke="#000000" points="194.5,-81.2 194.5,-103.2 348.5,-103.2 348.5,-81.2 194.5,-81.2"/>
<text text-anchor="start" x="214.5" y="-88.3" font-family="Helvetica,sans-Serif" font-size="11.00" fill="#000000">before_value_text</text>
<polygon fill="none" stroke="#000000" points="348.5,-81.2 348.5,-103.2 415.5,-103.2 415.5,-81.2 348.5,-81.2"/>
<text text-anchor="start" x="351.5" y="-88.9" font-family="Helvetica,sans-Serif" font-size="11.00" fill="#000000">text[65535]</text>
<polygon fill="none" stroke="#000000" points="194.5,-59.2 194.5,-81.2 348.5,-81.2 348.5,-59.2 194.5,-59.2"/>
<text text-anchor="start" x="214.5" y="-66.3" font-family="Helvetica,sans-Serif" font-size="11.00" fill="#000000">after_value_text</text>
<polygon fill="none" stroke="#000000" points="348.5,-59.2 348.5,-81.2 415.5,-81.2 415.5,-59.2 348.5,-59.2"/>
<text text-anchor="start" x="351.5" y="-66.9" font-family="Helvetica,sans-Serif" font-size="11.00" fill="#000000">text[65535]</text>
<polygon fill="#ffffff" stroke="transparent" points="194.5,-40.2 194.5,-59.2 275.5,-59.2 275.5,-40.2 194.5,-40.2"/>
<polygon fill="none" stroke="#000000" points="194.5,-40.2 194.5,-59.2 275.5,-59.2 275.5,-40.2 194.5,-40.2"/>
<text text-anchor="start" x="197.5" y="-46.3" font-family="Helvetica,sans-Serif" font-size="11.00" fill="#000000">&lt; 1</text>
<polygon fill="#ffffff" stroke="transparent" points="275.5,-40.2 275.5,-59.2 348.5,-59.2 348.5,-40.2 275.5,-40.2"/>
<polygon fill="none" stroke="#000000" points="275.5,-40.2 275.5,-59.2 348.5,-59.2 348.5,-40.2 275.5,-40.2"/>
<text text-anchor="start" x="339.3862" y="-46.3" font-family="Helvetica,sans-Serif" font-size="11.00" fill="#000000"> &#160;</text>
<polygon fill="#ffffff" stroke="transparent" points="348.5,-40.2 348.5,-59.2 415.5,-59.2 415.5,-40.2 348.5,-40.2"/>
<polygon fill="none" stroke="#000000" points="348.5,-40.2 348.5,-59.2 415.5,-59.2 415.5,-40.2 348.5,-40.2"/>
<text text-anchor="start" x="396.9053" y="-46.3" font-family="Helvetica,sans-Serif" font-size="11.00" fill="#000000">0 &gt;</text>
<polygon fill="none" stroke="#000000" stroke-width="2" points="193,-39.2 193,-303.2 416,-303.2 416,-39.2 193,-39.2"/>
</a>
</g>
</g>
<!-- jjwg_maps -->
<g id="node2" class="node">
<title>jjwg_maps</title>
<g id="a_node2"><a xlink:href="../../tables/jjwg_maps.html" xlink:title="jjwg_maps" target="_top">
<polygon fill="#ffffff" stroke="transparent" points="8,-109.7 8,-280.7 143,-280.7 143,-109.7 8,-109.7"/>
<polygon fill="#f5f5f5" stroke="transparent" points="8.5,-257.2 8.5,-280.2 143.5,-280.2 143.5,-257.2 8.5,-257.2"/>
<polygon fill="none" stroke="#000000" points="8.5,-257.2 8.5,-280.2 143.5,-280.2 143.5,-257.2 8.5,-257.2"/>
<text text-anchor="start" x="13.5" y="-266.3" font-family="Helvetica,sans-Serif" font-weight="bold" font-size="11.00" fill="#000000">jjwg_maps</text>
<text text-anchor="start" x="108.5437" y="-265.3" font-family="Helvetica,sans-Serif" font-size="11.00" fill="#000000">[table]</text>
<polygon fill="none" stroke="#000000" points="8.5,-235.2 8.5,-257.2 143.5,-257.2 143.5,-235.2 8.5,-235.2"/>
<image xlink:href="../../images/primaryKeys.png" width="11px" height="12px" preserveAspectRatio="xMinYMin meet" x="13.5" y="-252.2"/>
<text text-anchor="start" x="28.5" y="-242.3" font-family="Helvetica,sans-Serif" font-size="11.00" fill="#000000">id</text>
<polygon fill="#c0c0c0" stroke="transparent" points="8.5,-213.2 8.5,-235.2 143.5,-235.2 143.5,-213.2 8.5,-213.2"/>
<polygon fill="none" stroke="#000000" points="8.5,-213.2 8.5,-235.2 143.5,-235.2 143.5,-213.2 8.5,-213.2"/>
<image xlink:href="../../images/foreignKeys.png" width="11px" height="12px" preserveAspectRatio="xMinYMin meet" x="13.5" y="-230.2"/>
<text text-anchor="start" x="28.5" y="-220.3" font-family="Helvetica,sans-Serif" font-size="11.00" fill="#000000">modified_user_id</text>
<polygon fill="#c0c0c0" stroke="transparent" points="8.5,-191.2 8.5,-213.2 143.5,-213.2 143.5,-191.2 8.5,-191.2"/>
<polygon fill="none" stroke="#000000" points="8.5,-191.2 8.5,-213.2 143.5,-213.2 143.5,-191.2 8.5,-191.2"/>
<image xlink:href="../../images/foreignKeys.png" width="11px" height="12px" preserveAspectRatio="xMinYMin meet" x="13.5" y="-208.2"/>
<text text-anchor="start" x="28.5" y="-198.3" font-family="Helvetica,sans-Serif" font-size="11.00" fill="#000000">created_by</text>
<polygon fill="#c0c0c0" stroke="transparent" points="8.5,-169.2 8.5,-191.2 143.5,-191.2 143.5,-169.2 8.5,-169.2"/>
<polygon fill="none" stroke="#000000" points="8.5,-169.2 8.5,-191.2 143.5,-191.2 143.5,-169.2 8.5,-169.2"/>
<image xlink:href="../../images/foreignKeys.png" width="11px" height="12px" preserveAspectRatio="xMinYMin meet" x="13.5" y="-186.2"/>
<text text-anchor="start" x="28.5" y="-176.3" font-family="Helvetica,sans-Serif" font-size="11.00" fill="#000000">assigned_user_id</text>
<polygon fill="none" stroke="#000000" points="8.5,-147.2 8.5,-169.2 143.5,-169.2 143.5,-147.2 8.5,-147.2"/>
<image xlink:href="../../images/primaryKeys.png" width="11px" height="12px" preserveAspectRatio="xMinYMin meet" x="13.5" y="-164.2"/>
<text text-anchor="start" x="28.5" y="-154.3" font-family="Helvetica,sans-Serif" font-size="11.00" fill="#000000">parent_id</text>
<polygon fill="none" stroke="#000000" points="8.5,-128.2 8.5,-147.2 143.5,-147.2 143.5,-128.2 8.5,-128.2"/>
<text text-anchor="start" x="11.5" y="-134.3" font-family="Helvetica,sans-Serif" font-size="11.00" fill="#000000">...</text>
<polygon fill="#ffffff" stroke="transparent" points="8.5,-109.2 8.5,-128.2 66.5,-128.2 66.5,-109.2 8.5,-109.2"/>
<polygon fill="none" stroke="#000000" points="8.5,-109.2 8.5,-128.2 66.5,-128.2 66.5,-109.2 8.5,-109.2"/>
<text text-anchor="start" x="11.5" y="-115.3" font-family="Helvetica,sans-Serif" font-size="11.00" fill="#000000">&lt; 3</text>
<polygon fill="#ffffff" stroke="transparent" points="66.5,-109.2 66.5,-128.2 97.5,-128.2 97.5,-109.2 66.5,-109.2"/>
<polygon fill="none" stroke="#000000" points="66.5,-109.2 66.5,-128.2 97.5,-128.2 97.5,-109.2 66.5,-109.2"/>
<text text-anchor="start" x="88.3862" y="-115.3" font-family="Helvetica,sans-Serif" font-size="11.00" fill="#000000"> &#160;</text>
<polygon fill="#ffffff" stroke="transparent" points="97.5,-109.2 97.5,-128.2 143.5,-128.2 143.5,-109.2 97.5,-109.2"/>
<polygon fill="none" stroke="#000000" points="97.5,-109.2 97.5,-128.2 143.5,-128.2 143.5,-109.2 97.5,-109.2"/>
<text text-anchor="start" x="118.7904" y="-115.3" font-family="Helvetica,sans-Serif" font-size="11.00" fill="#000000">12 &gt;</text>
</a>
</g>
</g>
<!-- jjwg_maps_audit&#45;&gt;jjwg_maps -->
<g id="edge1" class="edge">
<title>jjwg_maps_audit:w&#45;&gt;jjwg_maps:e</title>
<path fill="none" stroke="#000000" d="M179.776,-246.2C167.7815,-246.2 160.3229,-246.2 143.5,-246.2"/>
<polygon fill="#000000" stroke="#000000" points="186.5,-246.2001 194.5,-249.8 190.5,-246.2 194.5,-246.2 194.5,-246.2 194.5,-246.2 190.5,-246.2 194.5,-242.6 186.5,-246.2001 186.5,-246.2001"/>
<ellipse fill="none" stroke="#000000" cx="183.3" cy="-246.2001" rx="3.2" ry="3.2"/>
</g>
</g>
</svg>
