<?xml version="1.0" encoding="UTF-8" standalone="no"?>
<!DOCTYPE svg PUBLIC "-//W3C//DTD SVG 1.1//EN"
 "http://www.w3.org/Graphics/SVG/1.1/DTD/svg11.dtd">
<!-- Generated by graphviz version 2.40.1 (20161225.0304)
 -->
<!-- Title: twoDegreesRelationshipsDiagram Pages: 1 -->
<svg width="433pt" height="486pt"
 viewBox="0.00 0.00 433.00 485.70" xmlns="http://www.w3.org/2000/svg" xmlns:xlink="http://www.w3.org/1999/xlink">
<g id="graph0" class="graph" transform="scale(1 1) rotate(0) translate(4 481.7)">
<title>twoDegreesRelationshipsDiagram</title>
<polygon fill="#ffffff" stroke="transparent" points="-4,4 -4,-481.7 429,-481.7 429,4 -4,4"/>
<text text-anchor="middle" x="72.4936" y="-7.3" font-family="Helvetica,sans-Serif" font-size="11.00" fill="#000000">Generated by SchemaSpy</text>
<!-- jjwg_areas_audit -->
<g id="node1" class="node">
<title>jjwg_areas_audit</title>
<g id="a_node1"><a xlink:href="../../tables/jjwg_areas_audit.html" xlink:title="jjwg_areas_audit" target="_top">
<polygon fill="#ffffff" stroke="transparent" points="192,-207.7 192,-473.7 417,-473.7 417,-207.7 192,-207.7"/>
<polygon fill="#f5f5f5" stroke="transparent" points="194.5,-448.7 194.5,-471.7 415.5,-471.7 415.5,-448.7 194.5,-448.7"/>
<polygon fill="none" stroke="#000000" points="194.5,-448.7 194.5,-471.7 415.5,-471.7 415.5,-448.7 194.5,-448.7"/>
<text text-anchor="start" x="199.5" y="-457.8" font-family="Helvetica,sans-Serif" font-weight="bold" font-size="11.00" fill="#000000">jjwg_areas_audit</text>
<text text-anchor="start" x="380.5437" y="-456.8" font-family="Helvetica,sans-Serif" font-size="11.00" fill="#000000">[table]</text>
<polygon fill="none" stroke="#000000" points="194.5,-426.7 194.5,-448.7 348.5,-448.7 348.5,-426.7 194.5,-426.7"/>
<image xlink:href="../../images/primaryKeys.png" width="11px" height="12px" preserveAspectRatio="xMinYMin meet" x="199.5" y="-443.7"/>
<text text-anchor="start" x="214.5" y="-433.8" font-family="Helvetica,sans-Serif" font-size="11.00" fill="#000000">id</text>
<polygon fill="none" stroke="#000000" points="348.5,-426.7 348.5,-448.7 415.5,-448.7 415.5,-426.7 348.5,-426.7"/>
<text text-anchor="start" x="351.5" y="-434.4" font-family="Helvetica,sans-Serif" font-size="11.00" fill="#000000">char[36]</text>
<polygon fill="#ffffff" stroke="transparent" points="194.5,-404.7 194.5,-426.7 348.5,-426.7 348.5,-404.7 194.5,-404.7"/>
<polygon fill="none" stroke="#000000" points="194.5,-404.7 194.5,-426.7 348.5,-426.7 348.5,-404.7 194.5,-404.7"/>
<image xlink:href="../../images/foreignKeys.png" width="11px" height="12px" preserveAspectRatio="xMinYMin meet" x="199.5" y="-421.7"/>
<text text-anchor="start" x="214.5" y="-411.8" font-family="Helvetica,sans-Serif" font-size="11.00" fill="#000000">parent_id</text>
<polygon fill="none" stroke="#000000" points="348.5,-404.7 348.5,-426.7 415.5,-426.7 415.5,-404.7 348.5,-404.7"/>
<text text-anchor="start" x="351.5" y="-412.4" font-family="Helvetica,sans-Serif" font-size="11.00" fill="#000000">char[36]</text>
<polygon fill="none" stroke="#000000" points="194.5,-382.7 194.5,-404.7 348.5,-404.7 348.5,-382.7 194.5,-382.7"/>
<text text-anchor="start" x="214.5" y="-389.8" font-family="Helvetica,sans-Serif" font-size="11.00" fill="#000000">date_created</text>
<polygon fill="none" stroke="#000000" points="348.5,-382.7 348.5,-404.7 415.5,-404.7 415.5,-382.7 348.5,-382.7"/>
<text text-anchor="start" x="351.5" y="-390.4" font-family="Helvetica,sans-Serif" font-size="11.00" fill="#000000">datetime[26]</text>
<polygon fill="none" stroke="#000000" points="194.5,-360.7 194.5,-382.7 348.5,-382.7 348.5,-360.7 194.5,-360.7"/>
<text text-anchor="start" x="214.5" y="-367.8" font-family="Helvetica,sans-Serif" font-size="11.00" fill="#000000">created_by</text>
<polygon fill="none" stroke="#000000" points="348.5,-360.7 348.5,-382.7 415.5,-382.7 415.5,-360.7 348.5,-360.7"/>
<text text-anchor="start" x="351.5" y="-368.4" font-family="Helvetica,sans-Serif" font-size="11.00" fill="#000000">varchar[36]</text>
<polygon fill="none" stroke="#000000" points="194.5,-338.7 194.5,-360.7 348.5,-360.7 348.5,-338.7 194.5,-338.7"/>
<text text-anchor="start" x="214.5" y="-345.8" font-family="Helvetica,sans-Serif" font-size="11.00" fill="#000000">field_name</text>
<polygon fill="none" stroke="#000000" points="348.5,-338.7 348.5,-360.7 415.5,-360.7 415.5,-338.7 348.5,-338.7"/>
<text text-anchor="start" x="351.4365" y="-346.4" font-family="Helvetica,sans-Serif" font-size="11.00" fill="#000000">varchar[100]</text>
<polygon fill="none" stroke="#000000" points="194.5,-316.7 194.5,-338.7 348.5,-338.7 348.5,-316.7 194.5,-316.7"/>
<text text-anchor="start" x="214.5" y="-323.8" font-family="Helvetica,sans-Serif" font-size="11.00" fill="#000000">data_type</text>
<polygon fill="none" stroke="#000000" points="348.5,-316.7 348.5,-338.7 415.5,-338.7 415.5,-316.7 348.5,-316.7"/>
<text text-anchor="start" x="351.4365" y="-324.4" font-family="Helvetica,sans-Serif" font-size="11.00" fill="#000000">varchar[100]</text>
<polygon fill="none" stroke="#000000" points="194.5,-294.7 194.5,-316.7 348.5,-316.7 348.5,-294.7 194.5,-294.7"/>
<text text-anchor="start" x="214.5" y="-301.8" font-family="Helvetica,sans-Serif" font-size="11.00" fill="#000000">before_value_string</text>
<polygon fill="none" stroke="#000000" points="348.5,-294.7 348.5,-316.7 415.5,-316.7 415.5,-294.7 348.5,-294.7"/>
<text text-anchor="start" x="351.4365" y="-302.4" font-family="Helvetica,sans-Serif" font-size="11.00" fill="#000000">varchar[255]</text>
<polygon fill="none" stroke="#000000" points="194.5,-272.7 194.5,-294.7 348.5,-294.7 348.5,-272.7 194.5,-272.7"/>
<text text-anchor="start" x="214.5" y="-279.8" font-family="Helvetica,sans-Serif" font-size="11.00" fill="#000000">after_value_string</text>
<polygon fill="none" stroke="#000000" points="348.5,-272.7 348.5,-294.7 415.5,-294.7 415.5,-272.7 348.5,-272.7"/>
<text text-anchor="start" x="351.4365" y="-280.4" font-family="Helvetica,sans-Serif" font-size="11.00" fill="#000000">varchar[255]</text>
<polygon fill="none" stroke="#000000" points="194.5,-250.7 194.5,-272.7 348.5,-272.7 348.5,-250.7 194.5,-250.7"/>
<text text-anchor="start" x="214.5" y="-257.8" font-family="Helvetica,sans-Serif" font-size="11.00" fill="#000000">before_value_text</text>
<polygon fill="none" stroke="#000000" points="348.5,-250.7 348.5,-272.7 415.5,-272.7 415.5,-250.7 348.5,-250.7"/>
<text text-anchor="start" x="351.5" y="-258.4" font-family="Helvetica,sans-Serif" font-size="11.00" fill="#000000">text[65535]</text>
<polygon fill="none" stroke="#000000" points="194.5,-228.7 194.5,-250.7 348.5,-250.7 348.5,-228.7 194.5,-228.7"/>
<text text-anchor="start" x="214.5" y="-235.8" font-family="Helvetica,sans-Serif" font-size="11.00" fill="#000000">after_value_text</text>
<polygon fill="none" stroke="#000000" points="348.5,-228.7 348.5,-250.7 415.5,-250.7 415.5,-228.7 348.5,-228.7"/>
<text text-anchor="start" x="351.5" y="-236.4" font-family="Helvetica,sans-Serif" font-size="11.00" fill="#000000">text[65535]</text>
<polygon fill="#ffffff" stroke="transparent" points="194.5,-209.7 194.5,-228.7 275.5,-228.7 275.5,-209.7 194.5,-209.7"/>
<polygon fill="none" stroke="#000000" points="194.5,-209.7 194.5,-228.7 275.5,-228.7 275.5,-209.7 194.5,-209.7"/>
<text text-anchor="start" x="197.5" y="-215.8" font-family="Helvetica,sans-Serif" font-size="11.00" fill="#000000">&lt; 1</text>
<polygon fill="#ffffff" stroke="transparent" points="275.5,-209.7 275.5,-228.7 348.5,-228.7 348.5,-209.7 275.5,-209.7"/>
<polygon fill="none" stroke="#000000" points="275.5,-209.7 275.5,-228.7 348.5,-228.7 348.5,-209.7 275.5,-209.7"/>
<text text-anchor="start" x="339.3862" y="-215.8" font-family="Helvetica,sans-Serif" font-size="11.00" fill="#000000"> &#160;</text>
<polygon fill="#ffffff" stroke="transparent" points="348.5,-209.7 348.5,-228.7 415.5,-228.7 415.5,-209.7 348.5,-209.7"/>
<polygon fill="none" stroke="#000000" points="348.5,-209.7 348.5,-228.7 415.5,-228.7 415.5,-209.7 348.5,-209.7"/>
<text text-anchor="start" x="396.9053" y="-215.8" font-family="Helvetica,sans-Serif" font-size="11.00" fill="#000000">0 &gt;</text>
<polygon fill="none" stroke="#000000" stroke-width="2" points="193,-208.7 193,-472.7 416,-472.7 416,-208.7 193,-208.7"/>
</a>
</g>
</g>
<!-- jjwg_areas -->
<g id="node2" class="node">
<title>jjwg_areas</title>
<g id="a_node2"><a xlink:href="../../tables/jjwg_areas.html" xlink:title="jjwg_areas" target="_top">
<polygon fill="#ffffff" stroke="transparent" points="8,-38.2 8,-187.2 143,-187.2 143,-38.2 8,-38.2"/>
<polygon fill="#f5f5f5" stroke="transparent" points="8.5,-163.7 8.5,-186.7 143.5,-186.7 143.5,-163.7 8.5,-163.7"/>
<polygon fill="none" stroke="#000000" points="8.5,-163.7 8.5,-186.7 143.5,-186.7 143.5,-163.7 8.5,-163.7"/>
<text text-anchor="start" x="13.5" y="-172.8" font-family="Helvetica,sans-Serif" font-weight="bold" font-size="11.00" fill="#000000">jjwg_areas</text>
<text text-anchor="start" x="108.5437" y="-171.8" font-family="Helvetica,sans-Serif" font-size="11.00" fill="#000000">[table]</text>
<polygon fill="none" stroke="#000000" points="8.5,-141.7 8.5,-163.7 143.5,-163.7 143.5,-141.7 8.5,-141.7"/>
<image xlink:href="../../images/primaryKeys.png" width="11px" height="12px" preserveAspectRatio="xMinYMin meet" x="13.5" y="-158.7"/>
<text text-anchor="start" x="28.5" y="-148.8" font-family="Helvetica,sans-Serif" font-size="11.00" fill="#000000">id</text>
<polygon fill="#c0c0c0" stroke="transparent" points="8.5,-119.7 8.5,-141.7 143.5,-141.7 143.5,-119.7 8.5,-119.7"/>
<polygon fill="none" stroke="#000000" points="8.5,-119.7 8.5,-141.7 143.5,-141.7 143.5,-119.7 8.5,-119.7"/>
<image xlink:href="../../images/foreignKeys.png" width="11px" height="12px" preserveAspectRatio="xMinYMin meet" x="13.5" y="-136.7"/>
<text text-anchor="start" x="28.5" y="-126.8" font-family="Helvetica,sans-Serif" font-size="11.00" fill="#000000">modified_user_id</text>
<polygon fill="#c0c0c0" stroke="transparent" points="8.5,-97.7 8.5,-119.7 143.5,-119.7 143.5,-97.7 8.5,-97.7"/>
<polygon fill="none" stroke="#000000" points="8.5,-97.7 8.5,-119.7 143.5,-119.7 143.5,-97.7 8.5,-97.7"/>
<image xlink:href="../../images/foreignKeys.png" width="11px" height="12px" preserveAspectRatio="xMinYMin meet" x="13.5" y="-114.7"/>
<text text-anchor="start" x="28.5" y="-104.8" font-family="Helvetica,sans-Serif" font-size="11.00" fill="#000000">created_by</text>
<polygon fill="#c0c0c0" stroke="transparent" points="8.5,-75.7 8.5,-97.7 143.5,-97.7 143.5,-75.7 8.5,-75.7"/>
<polygon fill="none" stroke="#000000" points="8.5,-75.7 8.5,-97.7 143.5,-97.7 143.5,-75.7 8.5,-75.7"/>
<image xlink:href="../../images/foreignKeys.png" width="11px" height="12px" preserveAspectRatio="xMinYMin meet" x="13.5" y="-92.7"/>
<text text-anchor="start" x="28.5" y="-82.8" font-family="Helvetica,sans-Serif" font-size="11.00" fill="#000000">assigned_user_id</text>
<polygon fill="none" stroke="#000000" points="8.5,-56.7 8.5,-75.7 143.5,-75.7 143.5,-56.7 8.5,-56.7"/>
<text text-anchor="start" x="11.5" y="-62.8" font-family="Helvetica,sans-Serif" font-size="11.00" fill="#000000">...</text>
<polygon fill="#ffffff" stroke="transparent" points="8.5,-37.7 8.5,-56.7 69.5,-56.7 69.5,-37.7 8.5,-37.7"/>
<polygon fill="none" stroke="#000000" points="8.5,-37.7 8.5,-56.7 69.5,-56.7 69.5,-37.7 8.5,-37.7"/>
<text text-anchor="start" x="11.5" y="-43.8" font-family="Helvetica,sans-Serif" font-size="11.00" fill="#000000">&lt; 3</text>
<polygon fill="#ffffff" stroke="transparent" points="69.5,-37.7 69.5,-56.7 101.5,-56.7 101.5,-37.7 69.5,-37.7"/>
<polygon fill="none" stroke="#000000" points="69.5,-37.7 69.5,-56.7 101.5,-56.7 101.5,-37.7 69.5,-37.7"/>
<text text-anchor="start" x="92.3862" y="-43.8" font-family="Helvetica,sans-Serif" font-size="11.00" fill="#000000"> &#160;</text>
<polygon fill="#ffffff" stroke="transparent" points="101.5,-37.7 101.5,-56.7 143.5,-56.7 143.5,-37.7 101.5,-37.7"/>
<polygon fill="none" stroke="#000000" points="101.5,-37.7 101.5,-56.7 143.5,-56.7 143.5,-37.7 101.5,-37.7"/>
<text text-anchor="start" x="124.9053" y="-43.8" font-family="Helvetica,sans-Serif" font-size="11.00" fill="#000000">3 &gt;</text>
</a>
</g>
</g>
<!-- jjwg_areas_audit&#45;&gt;jjwg_areas -->
<g id="edge1" class="edge">
<title>jjwg_areas_audit:w&#45;&gt;jjwg_areas:e</title>
<path fill="none" stroke="#000000" d="M181.3588,-409.7127C146.1675,-370.5651 197.6845,-152.7 143.5,-152.7"/>
<polygon fill="#000000" stroke="#000000" points="187.22,-412.3831 193.0074,-418.976 190.86,-414.0416 194.5,-415.7 194.5,-415.7 194.5,-415.7 190.86,-414.0416 195.9926,-412.424 187.22,-412.3831 187.22,-412.3831"/>
<ellipse fill="none" stroke="#000000" cx="184.308" cy="-411.0564" rx="3.2" ry="3.2"/>
</g>
<!-- jjwg_maps_jjwg_areas_c -->
<g id="node3" class="node">
<title>jjwg_maps_jjwg_areas_c</title>
<g id="a_node3"><a xlink:href="../../tables/jjwg_maps_jjwg_areas_c.html" xlink:title="jjwg_maps_jjwg_areas_c" target="_top">
<polygon fill="#ffffff" stroke="transparent" points="222,-125.2 222,-186.2 387,-186.2 387,-125.2 222,-125.2"/>
<polygon fill="#f5f5f5" stroke="transparent" points="222.5,-162.7 222.5,-185.7 387.5,-185.7 387.5,-162.7 222.5,-162.7"/>
<polygon fill="none" stroke="#000000" points="222.5,-162.7 222.5,-185.7 387.5,-185.7 387.5,-162.7 222.5,-162.7"/>
<text text-anchor="start" x="227.3835" y="-171.8" font-family="Helvetica,sans-Serif" font-weight="bold" font-size="11.00" fill="#000000">jjwg_maps_jjwg_areas_c</text>
<text text-anchor="start" x="353.0219" y="-170.8" font-family="Helvetica,sans-Serif" font-size="11.00" fill="#000000">[table]</text>
<polygon fill="none" stroke="#000000" points="222.5,-143.7 222.5,-162.7 387.5,-162.7 387.5,-143.7 222.5,-143.7"/>
<text text-anchor="start" x="225.5" y="-149.8" font-family="Helvetica,sans-Serif" font-size="11.00" fill="#000000">...</text>
<polygon fill="#ffffff" stroke="transparent" points="222.5,-124.7 222.5,-143.7 303.5,-143.7 303.5,-124.7 222.5,-124.7"/>
<polygon fill="none" stroke="#000000" points="222.5,-124.7 222.5,-143.7 303.5,-143.7 303.5,-124.7 222.5,-124.7"/>
<text text-anchor="start" x="225.5" y="-130.8" font-family="Helvetica,sans-Serif" font-size="11.00" fill="#000000">&lt; 2</text>
<polygon fill="#ffffff" stroke="transparent" points="303.5,-124.7 303.5,-143.7 345.5,-143.7 345.5,-124.7 303.5,-124.7"/>
<polygon fill="none" stroke="#000000" points="303.5,-124.7 303.5,-143.7 345.5,-143.7 345.5,-124.7 303.5,-124.7"/>
<text text-anchor="start" x="336.3862" y="-130.8" font-family="Helvetica,sans-Serif" font-size="11.00" fill="#000000"> &#160;</text>
<polygon fill="#ffffff" stroke="transparent" points="345.5,-124.7 345.5,-143.7 387.5,-143.7 387.5,-124.7 345.5,-124.7"/>
<polygon fill="none" stroke="#000000" points="345.5,-124.7 345.5,-143.7 387.5,-143.7 387.5,-124.7 345.5,-124.7"/>
<text text-anchor="start" x="378.3862" y="-130.8" font-family="Helvetica,sans-Serif" font-size="11.00" fill="#000000"> &#160;</text>
</a>
</g>
</g>
<!-- jjwg_maps_jjwg_areas_c&#45;&gt;jjwg_areas -->
<g id="edge2" class="edge">
<title>jjwg_maps_jjwg_areas_c:w&#45;&gt;jjwg_areas:e</title>
<path fill="none" stroke="#000000" d="M207.7695,-152.7C184.0029,-152.7 173.125,-152.7 143.5,-152.7"/>
<polygon fill="#000000" stroke="#000000" points="214.5,-152.7001 222.5,-156.3 218.5,-152.7 222.5,-152.7 222.5,-152.7 222.5,-152.7 218.5,-152.7 222.5,-149.1 214.5,-152.7001 214.5,-152.7001"/>
<ellipse fill="none" stroke="#000000" cx="211.3" cy="-152.7001" rx="3.2" ry="3.2"/>
</g>
<!-- securitygroups_records -->
<g id="node4" class="node">
<title>securitygroups_records</title>
<g id="a_node4"><a xlink:href="../../tables/securitygroups_records.html" xlink:title="securitygroups_records" target="_top">
<polygon fill="#ffffff" stroke="transparent" points="226,-43.2 226,-104.2 383,-104.2 383,-43.2 226,-43.2"/>
<polygon fill="#f5f5f5" stroke="transparent" points="226.5,-80.7 226.5,-103.7 383.5,-103.7 383.5,-80.7 226.5,-80.7"/>
<polygon fill="none" stroke="#000000" points="226.5,-80.7 226.5,-103.7 383.5,-103.7 383.5,-80.7 226.5,-80.7"/>
<text text-anchor="start" x="231.3528" y="-89.8" font-family="Helvetica,sans-Serif" font-weight="bold" font-size="11.00" fill="#000000">securitygroups_records</text>
<text text-anchor="start" x="349.0219" y="-88.8" font-family="Helvetica,sans-Serif" font-size="11.00" fill="#000000">[table]</text>
<polygon fill="none" stroke="#000000" points="226.5,-61.7 226.5,-80.7 383.5,-80.7 383.5,-61.7 226.5,-61.7"/>
<text text-anchor="start" x="229.5" y="-67.8" font-family="Helvetica,sans-Serif" font-size="11.00" fill="#000000">...</text>
<polygon fill="#ffffff" stroke="transparent" points="226.5,-42.7 226.5,-61.7 306.5,-61.7 306.5,-42.7 226.5,-42.7"/>
<polygon fill="none" stroke="#000000" points="226.5,-42.7 226.5,-61.7 306.5,-61.7 306.5,-42.7 226.5,-42.7"/>
<text text-anchor="start" x="229.5" y="-48.8" font-family="Helvetica,sans-Serif" font-size="11.00" fill="#000000">&lt; 41</text>
<polygon fill="#ffffff" stroke="transparent" points="306.5,-42.7 306.5,-61.7 344.5,-61.7 344.5,-42.7 306.5,-42.7"/>
<polygon fill="none" stroke="#000000" points="306.5,-42.7 306.5,-61.7 344.5,-61.7 344.5,-42.7 306.5,-42.7"/>
<text text-anchor="start" x="335.3862" y="-48.8" font-family="Helvetica,sans-Serif" font-size="11.00" fill="#000000"> &#160;</text>
<polygon fill="#ffffff" stroke="transparent" points="344.5,-42.7 344.5,-61.7 383.5,-61.7 383.5,-42.7 344.5,-42.7"/>
<polygon fill="none" stroke="#000000" points="344.5,-42.7 344.5,-61.7 383.5,-61.7 383.5,-42.7 344.5,-42.7"/>
<text text-anchor="start" x="374.3862" y="-48.8" font-family="Helvetica,sans-Serif" font-size="11.00" fill="#000000"> &#160;</text>
</a>
</g>
</g>
<!-- securitygroups_records&#45;&gt;jjwg_areas -->
<g id="edge3" class="edge">
<title>securitygroups_records:w&#45;&gt;jjwg_areas:e</title>
<path fill="none" stroke="#000000" d="M211.8993,-73.4283C178.307,-87.6565 189.6838,-152.7 143.5,-152.7"/>
<polygon fill="#000000" stroke="#000000" points="218.6361,-72.1695 227.1613,-74.2387 222.5681,-71.4347 226.5,-70.7 226.5,-70.7 226.5,-70.7 222.5681,-71.4347 225.8387,-67.1613 218.6361,-72.1695 218.6361,-72.1695"/>
<ellipse fill="none" stroke="#000000" cx="215.4906" cy="-72.7573" rx="3.2" ry="3.2"/>
</g>
</g>
</svg>
