<?xml version="1.0" encoding="UTF-8" standalone="no"?>
<!DOCTYPE svg PUBLIC "-//W3C//DTD SVG 1.1//EN"
 "http://www.w3.org/Graphics/SVG/1.1/DTD/svg11.dtd">
<!-- Generated by graphviz version 2.40.1 (20161225.0304)
 -->
<!-- Title: twoDegreesRelationshipsDiagram Pages: 1 -->
<svg width="914pt" height="1021pt"
 viewBox="0.00 0.00 914.00 1021.45" xmlns="http://www.w3.org/2000/svg" xmlns:xlink="http://www.w3.org/1999/xlink">
<g id="graph0" class="graph" transform="scale(1 1) rotate(0) translate(4 1017.4545)">
<title>twoDegreesRelationshipsDiagram</title>
<polygon fill="#ffffff" stroke="transparent" points="-4,4 -4,-1017.4545 910,-1017.4545 910,4 -4,4"/>
<text text-anchor="middle" x="72.4936" y="-7.3" font-family="Helvetica,sans-Serif" font-size="11.00" fill="#000000">Generated by SchemaSpy</text>
<!-- accounts -->
<g id="node1" class="node">
<title>accounts</title>
<g id="a_node1"><a xlink:href="../../tables/accounts.html" xlink:title="accounts" target="_top">
<polygon fill="#ffffff" stroke="transparent" points="261,-413.7629 261,-474.7629 348,-474.7629 348,-413.7629 261,-413.7629"/>
<polygon fill="#f5f5f5" stroke="transparent" points="261.5,-451.2629 261.5,-474.2629 348.5,-474.2629 348.5,-451.2629 261.5,-451.2629"/>
<polygon fill="none" stroke="#000000" points="261.5,-451.2629 261.5,-474.2629 348.5,-474.2629 348.5,-451.2629 261.5,-451.2629"/>
<text text-anchor="start" x="266.4918" y="-460.3629" font-family="Helvetica,sans-Serif" font-weight="bold" font-size="11.00" fill="#000000">accounts</text>
<text text-anchor="start" x="314.0219" y="-459.3629" font-family="Helvetica,sans-Serif" font-size="11.00" fill="#000000">[table]</text>
<polygon fill="none" stroke="#000000" points="261.5,-432.2629 261.5,-451.2629 348.5,-451.2629 348.5,-432.2629 261.5,-432.2629"/>
<text text-anchor="start" x="264.5" y="-438.3629" font-family="Helvetica,sans-Serif" font-size="11.00" fill="#000000">...</text>
<polygon fill="#ffffff" stroke="transparent" points="261.5,-413.2629 261.5,-432.2629 295.5,-432.2629 295.5,-413.2629 261.5,-413.2629"/>
<polygon fill="none" stroke="#000000" points="261.5,-413.2629 261.5,-432.2629 295.5,-432.2629 295.5,-413.2629 261.5,-413.2629"/>
<text text-anchor="start" x="264.5" y="-419.3629" font-family="Helvetica,sans-Serif" font-size="11.00" fill="#000000">&lt; 6</text>
<polygon fill="#ffffff" stroke="transparent" points="295.5,-413.2629 295.5,-432.2629 314.5,-432.2629 314.5,-413.2629 295.5,-413.2629"/>
<polygon fill="none" stroke="#000000" points="295.5,-413.2629 295.5,-432.2629 314.5,-432.2629 314.5,-413.2629 295.5,-413.2629"/>
<text text-anchor="start" x="305.3862" y="-419.3629" font-family="Helvetica,sans-Serif" font-size="11.00" fill="#000000"> &#160;</text>
<polygon fill="#ffffff" stroke="transparent" points="314.5,-413.2629 314.5,-432.2629 348.5,-432.2629 348.5,-413.2629 314.5,-413.2629"/>
<polygon fill="none" stroke="#000000" points="314.5,-413.2629 314.5,-432.2629 348.5,-432.2629 348.5,-413.2629 314.5,-413.2629"/>
<text text-anchor="start" x="323.7904" y="-419.3629" font-family="Helvetica,sans-Serif" font-size="11.00" fill="#000000">23 &gt;</text>
</a>
</g>
</g>
<!-- jjwg_maps -->
<g id="node2" class="node">
<title>jjwg_maps</title>
<g id="a_node2"><a xlink:href="../../tables/jjwg_maps.html" xlink:title="jjwg_maps" target="_top">
<polygon fill="#ffffff" stroke="transparent" points="8,-351.7629 8,-522.7629 143,-522.7629 143,-351.7629 8,-351.7629"/>
<polygon fill="#f5f5f5" stroke="transparent" points="8.5,-499.2629 8.5,-522.2629 143.5,-522.2629 143.5,-499.2629 8.5,-499.2629"/>
<polygon fill="none" stroke="#000000" points="8.5,-499.2629 8.5,-522.2629 143.5,-522.2629 143.5,-499.2629 8.5,-499.2629"/>
<text text-anchor="start" x="13.5" y="-508.3629" font-family="Helvetica,sans-Serif" font-weight="bold" font-size="11.00" fill="#000000">jjwg_maps</text>
<text text-anchor="start" x="108.5437" y="-507.3629" font-family="Helvetica,sans-Serif" font-size="11.00" fill="#000000">[table]</text>
<polygon fill="none" stroke="#000000" points="8.5,-477.2629 8.5,-499.2629 143.5,-499.2629 143.5,-477.2629 8.5,-477.2629"/>
<image xlink:href="../../images/primaryKeys.png" width="11px" height="12px" preserveAspectRatio="xMinYMin meet" x="13.5" y="-494.263"/>
<text text-anchor="start" x="28.5" y="-484.3629" font-family="Helvetica,sans-Serif" font-size="11.00" fill="#000000">id</text>
<polygon fill="#c0c0c0" stroke="transparent" points="8.5,-455.2629 8.5,-477.2629 143.5,-477.2629 143.5,-455.2629 8.5,-455.2629"/>
<polygon fill="none" stroke="#000000" points="8.5,-455.2629 8.5,-477.2629 143.5,-477.2629 143.5,-455.2629 8.5,-455.2629"/>
<image xlink:href="../../images/foreignKeys.png" width="11px" height="12px" preserveAspectRatio="xMinYMin meet" x="13.5" y="-472.263"/>
<text text-anchor="start" x="28.5" y="-462.3629" font-family="Helvetica,sans-Serif" font-size="11.00" fill="#000000">modified_user_id</text>
<polygon fill="#c0c0c0" stroke="transparent" points="8.5,-433.2629 8.5,-455.2629 143.5,-455.2629 143.5,-433.2629 8.5,-433.2629"/>
<polygon fill="none" stroke="#000000" points="8.5,-433.2629 8.5,-455.2629 143.5,-455.2629 143.5,-433.2629 8.5,-433.2629"/>
<image xlink:href="../../images/foreignKeys.png" width="11px" height="12px" preserveAspectRatio="xMinYMin meet" x="13.5" y="-450.263"/>
<text text-anchor="start" x="28.5" y="-440.3629" font-family="Helvetica,sans-Serif" font-size="11.00" fill="#000000">created_by</text>
<polygon fill="#c0c0c0" stroke="transparent" points="8.5,-411.2629 8.5,-433.2629 143.5,-433.2629 143.5,-411.2629 8.5,-411.2629"/>
<polygon fill="none" stroke="#000000" points="8.5,-411.2629 8.5,-433.2629 143.5,-433.2629 143.5,-411.2629 8.5,-411.2629"/>
<image xlink:href="../../images/foreignKeys.png" width="11px" height="12px" preserveAspectRatio="xMinYMin meet" x="13.5" y="-428.263"/>
<text text-anchor="start" x="28.5" y="-418.3629" font-family="Helvetica,sans-Serif" font-size="11.00" fill="#000000">assigned_user_id</text>
<polygon fill="none" stroke="#000000" points="8.5,-389.2629 8.5,-411.2629 143.5,-411.2629 143.5,-389.2629 8.5,-389.2629"/>
<image xlink:href="../../images/primaryKeys.png" width="11px" height="12px" preserveAspectRatio="xMinYMin meet" x="13.5" y="-406.263"/>
<text text-anchor="start" x="28.5" y="-396.3629" font-family="Helvetica,sans-Serif" font-size="11.00" fill="#000000">parent_id</text>
<polygon fill="none" stroke="#000000" points="8.5,-370.2629 8.5,-389.2629 143.5,-389.2629 143.5,-370.2629 8.5,-370.2629"/>
<text text-anchor="start" x="11.5" y="-376.3629" font-family="Helvetica,sans-Serif" font-size="11.00" fill="#000000">...</text>
<polygon fill="#ffffff" stroke="transparent" points="8.5,-351.2629 8.5,-370.2629 66.5,-370.2629 66.5,-351.2629 8.5,-351.2629"/>
<polygon fill="none" stroke="#000000" points="8.5,-351.2629 8.5,-370.2629 66.5,-370.2629 66.5,-351.2629 8.5,-351.2629"/>
<text text-anchor="start" x="11.5" y="-357.3629" font-family="Helvetica,sans-Serif" font-size="11.00" fill="#000000">&lt; 3</text>
<polygon fill="#ffffff" stroke="transparent" points="66.5,-351.2629 66.5,-370.2629 97.5,-370.2629 97.5,-351.2629 66.5,-351.2629"/>
<polygon fill="none" stroke="#000000" points="66.5,-351.2629 66.5,-370.2629 97.5,-370.2629 97.5,-351.2629 66.5,-351.2629"/>
<text text-anchor="start" x="88.3862" y="-357.3629" font-family="Helvetica,sans-Serif" font-size="11.00" fill="#000000"> &#160;</text>
<polygon fill="#ffffff" stroke="transparent" points="97.5,-351.2629 97.5,-370.2629 143.5,-370.2629 143.5,-351.2629 97.5,-351.2629"/>
<polygon fill="none" stroke="#000000" points="97.5,-351.2629 97.5,-370.2629 143.5,-370.2629 143.5,-351.2629 97.5,-351.2629"/>
<text text-anchor="start" x="118.7904" y="-357.3629" font-family="Helvetica,sans-Serif" font-size="11.00" fill="#000000">12 &gt;</text>
</a>
</g>
</g>
<!-- accounts&#45;&gt;jjwg_maps -->
<g id="edge1" class="edge">
<title>accounts:w&#45;&gt;jjwg_maps:e</title>
<path fill="none" stroke="#000000" d="M251.0534,-440.7445C204.8415,-435.9983 195.3331,-400.2629 143.5,-400.2629"/>
<polygon fill="#000000" stroke="#000000" points="260.8993,-437.2281 260.5027,-445.2183 258.9047,-445.139 259.3012,-437.1488 260.8993,-437.2281"/>
<polyline fill="none" stroke="#000000" points="261.5,-441.2629 257.5049,-441.0646 "/>
<ellipse fill="none" stroke="#000000" cx="254.3088" cy="-440.9059" rx="3.2" ry="3.2"/>
</g>
<!-- cases -->
<g id="node3" class="node">
<title>cases</title>
<g id="a_node3"><a xlink:href="../../tables/cases.html" xlink:title="cases" target="_top">
<polygon fill="#ffffff" stroke="transparent" points="475.5,-413.7629 475.5,-474.7629 546.5,-474.7629 546.5,-413.7629 475.5,-413.7629"/>
<polygon fill="#f5f5f5" stroke="transparent" points="476,-451.2629 476,-474.2629 547,-474.2629 547,-451.2629 476,-451.2629"/>
<polygon fill="none" stroke="#000000" points="476,-451.2629 476,-474.2629 547,-474.2629 547,-451.2629 476,-451.2629"/>
<text text-anchor="start" x="480.6351" y="-460.3629" font-family="Helvetica,sans-Serif" font-weight="bold" font-size="11.00" fill="#000000">cases</text>
<text text-anchor="start" x="512.5219" y="-459.3629" font-family="Helvetica,sans-Serif" font-size="11.00" fill="#000000">[table]</text>
<polygon fill="none" stroke="#000000" points="476,-432.2629 476,-451.2629 547,-451.2629 547,-432.2629 476,-432.2629"/>
<text text-anchor="start" x="479" y="-438.3629" font-family="Helvetica,sans-Serif" font-size="11.00" fill="#000000">...</text>
<polygon fill="#ffffff" stroke="transparent" points="476,-413.2629 476,-432.2629 502,-432.2629 502,-413.2629 476,-413.2629"/>
<polygon fill="none" stroke="#000000" points="476,-413.2629 476,-432.2629 502,-432.2629 502,-413.2629 476,-413.2629"/>
<text text-anchor="start" x="479" y="-419.3629" font-family="Helvetica,sans-Serif" font-size="11.00" fill="#000000">&lt; 6</text>
<polygon fill="#ffffff" stroke="transparent" points="502,-413.2629 502,-432.2629 517,-432.2629 517,-413.2629 502,-413.2629"/>
<polygon fill="none" stroke="#000000" points="502,-413.2629 502,-432.2629 517,-432.2629 517,-413.2629 502,-413.2629"/>
<text text-anchor="start" x="507.8862" y="-419.3629" font-family="Helvetica,sans-Serif" font-size="11.00" fill="#000000"> &#160;</text>
<polygon fill="#ffffff" stroke="transparent" points="517,-413.2629 517,-432.2629 547,-432.2629 547,-413.2629 517,-413.2629"/>
<polygon fill="none" stroke="#000000" points="517,-413.2629 517,-432.2629 547,-432.2629 547,-413.2629 517,-413.2629"/>
<text text-anchor="start" x="522.2904" y="-419.3629" font-family="Helvetica,sans-Serif" font-size="11.00" fill="#000000">15 &gt;</text>
</a>
</g>
</g>
<!-- cases&#45;&gt;accounts -->
<g id="edge2" class="edge">
<title>cases:w&#45;&gt;accounts:e</title>
<path fill="none" stroke="#000000" d="M461.4032,-441.2629C416.3743,-441.2629 399.9648,-441.2629 348.5,-441.2629"/>
<polygon fill="#000000" stroke="#000000" points="468,-441.2629 476,-444.8629 472,-441.2629 476,-441.2629 476,-441.2629 476,-441.2629 472,-441.2629 476,-437.6629 468,-441.2629 468,-441.2629"/>
<ellipse fill="none" stroke="#000000" cx="464.8" cy="-441.2629" rx="3.2" ry="3.2"/>
</g>
<!-- cases&#45;&gt;jjwg_maps -->
<g id="edge4" class="edge">
<title>cases:w&#45;&gt;jjwg_maps:e</title>
<path fill="none" stroke="#000000" d="M465.3614,-443.0966C447.338,-450.2464 449.1143,-476.2982 425,-485.2629 374.801,-503.9246 229.2875,-513.8502 184,-485.2629 148.6135,-462.9255 185.3469,-400.2629 143.5,-400.2629"/>
<polygon fill="#000000" stroke="#000000" points="474.5321,-437.4569 475.8911,-445.3406 474.3144,-445.6124 472.9554,-437.7287 474.5321,-437.4569"/>
<polyline fill="none" stroke="#000000" points="476,-441.2629 472.0581,-441.9424 "/>
<ellipse fill="none" stroke="#000000" cx="468.9046" cy="-442.486" rx="3.2" ry="3.2"/>
</g>
<!-- contacts -->
<g id="node4" class="node">
<title>contacts</title>
<g id="a_node4"><a xlink:href="../../tables/contacts.html" xlink:title="contacts" target="_top">
<polygon fill="#ffffff" stroke="transparent" points="263,-331.7629 263,-392.7629 346,-392.7629 346,-331.7629 263,-331.7629"/>
<polygon fill="#f5f5f5" stroke="transparent" points="263.5,-369.2629 263.5,-392.2629 346.5,-392.2629 346.5,-369.2629 263.5,-369.2629"/>
<polygon fill="none" stroke="#000000" points="263.5,-369.2629 263.5,-392.2629 346.5,-392.2629 346.5,-369.2629 263.5,-369.2629"/>
<text text-anchor="start" x="268.0208" y="-378.3629" font-family="Helvetica,sans-Serif" font-weight="bold" font-size="11.00" fill="#000000">contacts</text>
<text text-anchor="start" x="312.0219" y="-377.3629" font-family="Helvetica,sans-Serif" font-size="11.00" fill="#000000">[table]</text>
<polygon fill="none" stroke="#000000" points="263.5,-350.2629 263.5,-369.2629 346.5,-369.2629 346.5,-350.2629 263.5,-350.2629"/>
<text text-anchor="start" x="266.5" y="-356.3629" font-family="Helvetica,sans-Serif" font-size="11.00" fill="#000000">...</text>
<polygon fill="#ffffff" stroke="transparent" points="263.5,-331.2629 263.5,-350.2629 295.5,-350.2629 295.5,-331.2629 263.5,-331.2629"/>
<polygon fill="none" stroke="#000000" points="263.5,-331.2629 263.5,-350.2629 295.5,-350.2629 295.5,-331.2629 263.5,-331.2629"/>
<text text-anchor="start" x="266.5" y="-337.3629" font-family="Helvetica,sans-Serif" font-size="11.00" fill="#000000">&lt; 7</text>
<polygon fill="#ffffff" stroke="transparent" points="295.5,-331.2629 295.5,-350.2629 313.5,-350.2629 313.5,-331.2629 295.5,-331.2629"/>
<polygon fill="none" stroke="#000000" points="295.5,-331.2629 295.5,-350.2629 313.5,-350.2629 313.5,-331.2629 295.5,-331.2629"/>
<text text-anchor="start" x="304.3862" y="-337.3629" font-family="Helvetica,sans-Serif" font-size="11.00" fill="#000000"> &#160;</text>
<polygon fill="#ffffff" stroke="transparent" points="313.5,-331.2629 313.5,-350.2629 346.5,-350.2629 346.5,-331.2629 313.5,-331.2629"/>
<polygon fill="none" stroke="#000000" points="313.5,-331.2629 313.5,-350.2629 346.5,-350.2629 346.5,-331.2629 313.5,-331.2629"/>
<text text-anchor="start" x="321.7904" y="-337.3629" font-family="Helvetica,sans-Serif" font-size="11.00" fill="#000000">30 &gt;</text>
</a>
</g>
</g>
<!-- cases&#45;&gt;contacts -->
<g id="edge3" class="edge">
<title>cases:w&#45;&gt;contacts:e</title>
<path fill="none" stroke="#000000" d="M461.51,-438.5244C447.0475,-432.0445 443.7101,-415.4042 425,-403.2629 391.4493,-381.4911 386.4957,-359.2629 346.5,-359.2629"/>
<polygon fill="#000000" stroke="#000000" points="468.1391,-439.7772 475.3315,-444.8002 472.0696,-440.52 476,-441.2629 476,-441.2629 476,-441.2629 472.0696,-440.52 476.6685,-437.7255 468.1391,-439.7772 468.1391,-439.7772"/>
<ellipse fill="none" stroke="#000000" cx="464.9948" cy="-439.183" rx="3.2" ry="3.2"/>
</g>
<!-- contacts&#45;&gt;jjwg_maps -->
<g id="edge5" class="edge">
<title>contacts:w&#45;&gt;jjwg_maps:e</title>
<path fill="none" stroke="#000000" d="M252.8925,-359.7812C205.9564,-364.5274 196.1177,-400.2629 143.5,-400.2629"/>
<polygon fill="#000000" stroke="#000000" points="262.5057,-355.3067 262.8962,-363.2971 261.2981,-363.3753 260.9076,-355.3848 262.5057,-355.3067"/>
<polyline fill="none" stroke="#000000" points="263.5,-359.2629 259.5048,-359.4581 "/>
<ellipse fill="none" stroke="#000000" cx="256.3086" cy="-359.6144" rx="3.2" ry="3.2"/>
</g>
<!-- jjwg_maps_audit -->
<g id="node5" class="node">
<title>jjwg_maps_audit</title>
<g id="a_node5"><a xlink:href="../../tables/jjwg_maps_audit.html" xlink:title="jjwg_maps_audit" target="_top">
<polygon fill="#ffffff" stroke="transparent" points="192,-688.2629 192,-954.2629 417,-954.2629 417,-688.2629 192,-688.2629"/>
<polygon fill="#f5f5f5" stroke="transparent" points="194.5,-929.2629 194.5,-952.2629 415.5,-952.2629 415.5,-929.2629 194.5,-929.2629"/>
<polygon fill="none" stroke="#000000" points="194.5,-929.2629 194.5,-952.2629 415.5,-952.2629 415.5,-929.2629 194.5,-929.2629"/>
<text text-anchor="start" x="199.5" y="-938.3629" font-family="Helvetica,sans-Serif" font-weight="bold" font-size="11.00" fill="#000000">jjwg_maps_audit</text>
<text text-anchor="start" x="380.5437" y="-937.3629" font-family="Helvetica,sans-Serif" font-size="11.00" fill="#000000">[table]</text>
<polygon fill="none" stroke="#000000" points="194.5,-907.2629 194.5,-929.2629 348.5,-929.2629 348.5,-907.2629 194.5,-907.2629"/>
<image xlink:href="../../images/primaryKeys.png" width="11px" height="12px" preserveAspectRatio="xMinYMin meet" x="199.5" y="-924.263"/>
<text text-anchor="start" x="214.5" y="-914.3629" font-family="Helvetica,sans-Serif" font-size="11.00" fill="#000000">id</text>
<polygon fill="none" stroke="#000000" points="348.5,-907.2629 348.5,-929.2629 415.5,-929.2629 415.5,-907.2629 348.5,-907.2629"/>
<text text-anchor="start" x="351.5" y="-914.9629" font-family="Helvetica,sans-Serif" font-size="11.00" fill="#000000">char[36]</text>
<polygon fill="#ffffff" stroke="transparent" points="194.5,-885.2629 194.5,-907.2629 348.5,-907.2629 348.5,-885.2629 194.5,-885.2629"/>
<polygon fill="none" stroke="#000000" points="194.5,-885.2629 194.5,-907.2629 348.5,-907.2629 348.5,-885.2629 194.5,-885.2629"/>
<image xlink:href="../../images/foreignKeys.png" width="11px" height="12px" preserveAspectRatio="xMinYMin meet" x="199.5" y="-902.263"/>
<text text-anchor="start" x="214.5" y="-892.3629" font-family="Helvetica,sans-Serif" font-size="11.00" fill="#000000">parent_id</text>
<polygon fill="none" stroke="#000000" points="348.5,-885.2629 348.5,-907.2629 415.5,-907.2629 415.5,-885.2629 348.5,-885.2629"/>
<text text-anchor="start" x="351.5" y="-892.9629" font-family="Helvetica,sans-Serif" font-size="11.00" fill="#000000">char[36]</text>
<polygon fill="none" stroke="#000000" points="194.5,-863.2629 194.5,-885.2629 348.5,-885.2629 348.5,-863.2629 194.5,-863.2629"/>
<text text-anchor="start" x="214.5" y="-870.3629" font-family="Helvetica,sans-Serif" font-size="11.00" fill="#000000">date_created</text>
<polygon fill="none" stroke="#000000" points="348.5,-863.2629 348.5,-885.2629 415.5,-885.2629 415.5,-863.2629 348.5,-863.2629"/>
<text text-anchor="start" x="351.5" y="-870.9629" font-family="Helvetica,sans-Serif" font-size="11.00" fill="#000000">datetime[26]</text>
<polygon fill="none" stroke="#000000" points="194.5,-841.2629 194.5,-863.2629 348.5,-863.2629 348.5,-841.2629 194.5,-841.2629"/>
<text text-anchor="start" x="214.5" y="-848.3629" font-family="Helvetica,sans-Serif" font-size="11.00" fill="#000000">created_by</text>
<polygon fill="none" stroke="#000000" points="348.5,-841.2629 348.5,-863.2629 415.5,-863.2629 415.5,-841.2629 348.5,-841.2629"/>
<text text-anchor="start" x="351.5" y="-848.9629" font-family="Helvetica,sans-Serif" font-size="11.00" fill="#000000">varchar[36]</text>
<polygon fill="none" stroke="#000000" points="194.5,-819.2629 194.5,-841.2629 348.5,-841.2629 348.5,-819.2629 194.5,-819.2629"/>
<text text-anchor="start" x="214.5" y="-826.3629" font-family="Helvetica,sans-Serif" font-size="11.00" fill="#000000">field_name</text>
<polygon fill="none" stroke="#000000" points="348.5,-819.2629 348.5,-841.2629 415.5,-841.2629 415.5,-819.2629 348.5,-819.2629"/>
<text text-anchor="start" x="351.4365" y="-826.9629" font-family="Helvetica,sans-Serif" font-size="11.00" fill="#000000">varchar[100]</text>
<polygon fill="none" stroke="#000000" points="194.5,-797.2629 194.5,-819.2629 348.5,-819.2629 348.5,-797.2629 194.5,-797.2629"/>
<text text-anchor="start" x="214.5" y="-804.3629" font-family="Helvetica,sans-Serif" font-size="11.00" fill="#000000">data_type</text>
<polygon fill="none" stroke="#000000" points="348.5,-797.2629 348.5,-819.2629 415.5,-819.2629 415.5,-797.2629 348.5,-797.2629"/>
<text text-anchor="start" x="351.4365" y="-804.9629" font-family="Helvetica,sans-Serif" font-size="11.00" fill="#000000">varchar[100]</text>
<polygon fill="none" stroke="#000000" points="194.5,-775.2629 194.5,-797.2629 348.5,-797.2629 348.5,-775.2629 194.5,-775.2629"/>
<text text-anchor="start" x="214.5" y="-782.3629" font-family="Helvetica,sans-Serif" font-size="11.00" fill="#000000">before_value_string</text>
<polygon fill="none" stroke="#000000" points="348.5,-775.2629 348.5,-797.2629 415.5,-797.2629 415.5,-775.2629 348.5,-775.2629"/>
<text text-anchor="start" x="351.4365" y="-782.9629" font-family="Helvetica,sans-Serif" font-size="11.00" fill="#000000">varchar[255]</text>
<polygon fill="none" stroke="#000000" points="194.5,-753.2629 194.5,-775.2629 348.5,-775.2629 348.5,-753.2629 194.5,-753.2629"/>
<text text-anchor="start" x="214.5" y="-760.3629" font-family="Helvetica,sans-Serif" font-size="11.00" fill="#000000">after_value_string</text>
<polygon fill="none" stroke="#000000" points="348.5,-753.2629 348.5,-775.2629 415.5,-775.2629 415.5,-753.2629 348.5,-753.2629"/>
<text text-anchor="start" x="351.4365" y="-760.9629" font-family="Helvetica,sans-Serif" font-size="11.00" fill="#000000">varchar[255]</text>
<polygon fill="none" stroke="#000000" points="194.5,-731.2629 194.5,-753.2629 348.5,-753.2629 348.5,-731.2629 194.5,-731.2629"/>
<text text-anchor="start" x="214.5" y="-738.3629" font-family="Helvetica,sans-Serif" font-size="11.00" fill="#000000">before_value_text</text>
<polygon fill="none" stroke="#000000" points="348.5,-731.2629 348.5,-753.2629 415.5,-753.2629 415.5,-731.2629 348.5,-731.2629"/>
<text text-anchor="start" x="351.5" y="-738.9629" font-family="Helvetica,sans-Serif" font-size="11.00" fill="#000000">text[65535]</text>
<polygon fill="none" stroke="#000000" points="194.5,-709.2629 194.5,-731.2629 348.5,-731.2629 348.5,-709.2629 194.5,-709.2629"/>
<text text-anchor="start" x="214.5" y="-716.3629" font-family="Helvetica,sans-Serif" font-size="11.00" fill="#000000">after_value_text</text>
<polygon fill="none" stroke="#000000" points="348.5,-709.2629 348.5,-731.2629 415.5,-731.2629 415.5,-709.2629 348.5,-709.2629"/>
<text text-anchor="start" x="351.5" y="-716.9629" font-family="Helvetica,sans-Serif" font-size="11.00" fill="#000000">text[65535]</text>
<polygon fill="#ffffff" stroke="transparent" points="194.5,-690.2629 194.5,-709.2629 275.5,-709.2629 275.5,-690.2629 194.5,-690.2629"/>
<polygon fill="none" stroke="#000000" points="194.5,-690.2629 194.5,-709.2629 275.5,-709.2629 275.5,-690.2629 194.5,-690.2629"/>
<text text-anchor="start" x="197.5" y="-696.3629" font-family="Helvetica,sans-Serif" font-size="11.00" fill="#000000">&lt; 1</text>
<polygon fill="#ffffff" stroke="transparent" points="275.5,-690.2629 275.5,-709.2629 348.5,-709.2629 348.5,-690.2629 275.5,-690.2629"/>
<polygon fill="none" stroke="#000000" points="275.5,-690.2629 275.5,-709.2629 348.5,-709.2629 348.5,-690.2629 275.5,-690.2629"/>
<text text-anchor="start" x="339.3862" y="-696.3629" font-family="Helvetica,sans-Serif" font-size="11.00" fill="#000000"> &#160;</text>
<polygon fill="#ffffff" stroke="transparent" points="348.5,-690.2629 348.5,-709.2629 415.5,-709.2629 415.5,-690.2629 348.5,-690.2629"/>
<polygon fill="none" stroke="#000000" points="348.5,-690.2629 348.5,-709.2629 415.5,-709.2629 415.5,-690.2629 348.5,-690.2629"/>
<text text-anchor="start" x="396.9053" y="-696.3629" font-family="Helvetica,sans-Serif" font-size="11.00" fill="#000000">0 &gt;</text>
<polygon fill="none" stroke="#000000" stroke-width="2" points="193,-689.2629 193,-953.2629 416,-953.2629 416,-689.2629 193,-689.2629"/>
</a>
</g>
</g>
<!-- jjwg_maps_audit&#45;&gt;jjwg_maps -->
<g id="edge6" class="edge">
<title>jjwg_maps_audit:w&#45;&gt;jjwg_maps:e</title>
<path fill="none" stroke="#000000" d="M180.6467,-892.2247C117.8005,-849.8511 229.5184,-488.2629 143.5,-488.2629"/>
<polygon fill="#000000" stroke="#000000" points="186.8196,-894.024 193.4925,-899.719 190.6598,-895.1435 194.5,-896.2629 194.5,-896.2629 194.5,-896.2629 190.6598,-895.1435 195.5075,-892.8067 186.8196,-894.024 186.8196,-894.024"/>
<ellipse fill="none" stroke="#000000" cx="183.7475" cy="-893.1285" rx="3.2" ry="3.2"/>
</g>
<!-- jjwg_maps_jjwg_areas_c -->
<g id="node6" class="node">
<title>jjwg_maps_jjwg_areas_c</title>
<g id="a_node6"><a xlink:href="../../tables/jjwg_maps_jjwg_areas_c.html" xlink:title="jjwg_maps_jjwg_areas_c" target="_top">
<polygon fill="#ffffff" stroke="transparent" points="222,-605.7629 222,-666.7629 387,-666.7629 387,-605.7629 222,-605.7629"/>
<polygon fill="#f5f5f5" stroke="transparent" points="222.5,-643.2629 222.5,-666.2629 387.5,-666.2629 387.5,-643.2629 222.5,-643.2629"/>
<polygon fill="none" stroke="#000000" points="222.5,-643.2629 222.5,-666.2629 387.5,-666.2629 387.5,-643.2629 222.5,-643.2629"/>
<text text-anchor="start" x="227.3835" y="-652.3629" font-family="Helvetica,sans-Serif" font-weight="bold" font-size="11.00" fill="#000000">jjwg_maps_jjwg_areas_c</text>
<text text-anchor="start" x="353.0219" y="-651.3629" font-family="Helvetica,sans-Serif" font-size="11.00" fill="#000000">[table]</text>
<polygon fill="none" stroke="#000000" points="222.5,-624.2629 222.5,-643.2629 387.5,-643.2629 387.5,-624.2629 222.5,-624.2629"/>
<text text-anchor="start" x="225.5" y="-630.3629" font-family="Helvetica,sans-Serif" font-size="11.00" fill="#000000">...</text>
<polygon fill="#ffffff" stroke="transparent" points="222.5,-605.2629 222.5,-624.2629 303.5,-624.2629 303.5,-605.2629 222.5,-605.2629"/>
<polygon fill="none" stroke="#000000" points="222.5,-605.2629 222.5,-624.2629 303.5,-624.2629 303.5,-605.2629 222.5,-605.2629"/>
<text text-anchor="start" x="225.5" y="-611.3629" font-family="Helvetica,sans-Serif" font-size="11.00" fill="#000000">&lt; 2</text>
<polygon fill="#ffffff" stroke="transparent" points="303.5,-605.2629 303.5,-624.2629 345.5,-624.2629 345.5,-605.2629 303.5,-605.2629"/>
<polygon fill="none" stroke="#000000" points="303.5,-605.2629 303.5,-624.2629 345.5,-624.2629 345.5,-605.2629 303.5,-605.2629"/>
<text text-anchor="start" x="336.3862" y="-611.3629" font-family="Helvetica,sans-Serif" font-size="11.00" fill="#000000"> &#160;</text>
<polygon fill="#ffffff" stroke="transparent" points="345.5,-605.2629 345.5,-624.2629 387.5,-624.2629 387.5,-605.2629 345.5,-605.2629"/>
<polygon fill="none" stroke="#000000" points="345.5,-605.2629 345.5,-624.2629 387.5,-624.2629 387.5,-605.2629 345.5,-605.2629"/>
<text text-anchor="start" x="378.3862" y="-611.3629" font-family="Helvetica,sans-Serif" font-size="11.00" fill="#000000"> &#160;</text>
</a>
</g>
</g>
<!-- jjwg_maps_jjwg_areas_c&#45;&gt;jjwg_maps -->
<g id="edge7" class="edge">
<title>jjwg_maps_jjwg_areas_c:w&#45;&gt;jjwg_maps:e</title>
<path fill="none" stroke="#000000" d="M208.1856,-630.1591C197.0499,-624.1946 193.8348,-610.3763 184,-595.2629 156.2666,-552.6438 194.3481,-488.2629 143.5,-488.2629"/>
<polygon fill="#000000" stroke="#000000" points="214.6817,-631.5676 221.7371,-636.7811 218.5908,-632.4152 222.5,-633.2629 222.5,-633.2629 222.5,-633.2629 218.5908,-632.4152 223.2629,-629.7446 214.6817,-631.5676 214.6817,-631.5676"/>
<ellipse fill="none" stroke="#000000" cx="211.5543" cy="-630.8895" rx="3.2" ry="3.2"/>
</g>
<!-- jjwg_maps_jjwg_markers_c -->
<g id="node7" class="node">
<title>jjwg_maps_jjwg_markers_c</title>
<g id="a_node7"><a xlink:href="../../tables/jjwg_maps_jjwg_markers_c.html" xlink:title="jjwg_maps_jjwg_markers_c" target="_top">
<polygon fill="#ffffff" stroke="transparent" points="216,-523.7629 216,-584.7629 393,-584.7629 393,-523.7629 216,-523.7629"/>
<polygon fill="#f5f5f5" stroke="transparent" points="216.5,-561.2629 216.5,-584.2629 393.5,-584.2629 393.5,-561.2629 216.5,-561.2629"/>
<polygon fill="none" stroke="#000000" points="216.5,-561.2629 216.5,-584.2629 393.5,-584.2629 393.5,-561.2629 216.5,-561.2629"/>
<text text-anchor="start" x="221.279" y="-570.3629" font-family="Helvetica,sans-Serif" font-weight="bold" font-size="11.00" fill="#000000">jjwg_maps_jjwg_markers_c</text>
<text text-anchor="start" x="359.0219" y="-569.3629" font-family="Helvetica,sans-Serif" font-size="11.00" fill="#000000">[table]</text>
<polygon fill="none" stroke="#000000" points="216.5,-542.2629 216.5,-561.2629 393.5,-561.2629 393.5,-542.2629 216.5,-542.2629"/>
<text text-anchor="start" x="219.5" y="-548.3629" font-family="Helvetica,sans-Serif" font-size="11.00" fill="#000000">...</text>
<polygon fill="#ffffff" stroke="transparent" points="216.5,-523.2629 216.5,-542.2629 303.5,-542.2629 303.5,-523.2629 216.5,-523.2629"/>
<polygon fill="none" stroke="#000000" points="216.5,-523.2629 216.5,-542.2629 303.5,-542.2629 303.5,-523.2629 216.5,-523.2629"/>
<text text-anchor="start" x="219.5" y="-529.3629" font-family="Helvetica,sans-Serif" font-size="11.00" fill="#000000">&lt; 2</text>
<polygon fill="#ffffff" stroke="transparent" points="303.5,-523.2629 303.5,-542.2629 348.5,-542.2629 348.5,-523.2629 303.5,-523.2629"/>
<polygon fill="none" stroke="#000000" points="303.5,-523.2629 303.5,-542.2629 348.5,-542.2629 348.5,-523.2629 303.5,-523.2629"/>
<text text-anchor="start" x="339.3862" y="-529.3629" font-family="Helvetica,sans-Serif" font-size="11.00" fill="#000000"> &#160;</text>
<polygon fill="#ffffff" stroke="transparent" points="348.5,-523.2629 348.5,-542.2629 393.5,-542.2629 393.5,-523.2629 348.5,-523.2629"/>
<polygon fill="none" stroke="#000000" points="348.5,-523.2629 348.5,-542.2629 393.5,-542.2629 393.5,-523.2629 348.5,-523.2629"/>
<text text-anchor="start" x="384.3862" y="-529.3629" font-family="Helvetica,sans-Serif" font-size="11.00" fill="#000000"> &#160;</text>
</a>
</g>
</g>
<!-- jjwg_maps_jjwg_markers_c&#45;&gt;jjwg_maps -->
<g id="edge8" class="edge">
<title>jjwg_maps_jjwg_markers_c:w&#45;&gt;jjwg_maps:e</title>
<path fill="none" stroke="#000000" d="M202.1047,-548.2242C176.0404,-535.6397 180.6642,-488.2629 143.5,-488.2629"/>
<polygon fill="#000000" stroke="#000000" points="208.6725,-549.6105 215.7565,-554.7852 212.5862,-550.4367 216.5,-551.2629 216.5,-551.2629 216.5,-551.2629 212.5862,-550.4367 217.2435,-547.7405 208.6725,-549.6105 208.6725,-549.6105"/>
<ellipse fill="none" stroke="#000000" cx="205.5415" cy="-548.9496" rx="3.2" ry="3.2"/>
</g>
<!-- leads -->
<g id="node8" class="node">
<title>leads</title>
<g id="a_node8"><a xlink:href="../../tables/leads.html" xlink:title="leads" target="_top">
<polygon fill="#ffffff" stroke="transparent" points="476.5,-276.7629 476.5,-337.7629 545.5,-337.7629 545.5,-276.7629 476.5,-276.7629"/>
<polygon fill="#f5f5f5" stroke="transparent" points="477,-314.2629 477,-337.2629 546,-337.2629 546,-314.2629 477,-314.2629"/>
<polygon fill="none" stroke="#000000" points="477,-314.2629 477,-337.2629 546,-337.2629 546,-314.2629 477,-314.2629"/>
<text text-anchor="start" x="481.8572" y="-323.3629" font-family="Helvetica,sans-Serif" font-weight="bold" font-size="11.00" fill="#000000">leads</text>
<text text-anchor="start" x="511.5219" y="-322.3629" font-family="Helvetica,sans-Serif" font-size="11.00" fill="#000000">[table]</text>
<polygon fill="none" stroke="#000000" points="477,-295.2629 477,-314.2629 546,-314.2629 546,-295.2629 477,-295.2629"/>
<text text-anchor="start" x="480" y="-301.3629" font-family="Helvetica,sans-Serif" font-size="11.00" fill="#000000">...</text>
<polygon fill="#ffffff" stroke="transparent" points="477,-276.2629 477,-295.2629 505,-295.2629 505,-276.2629 477,-276.2629"/>
<polygon fill="none" stroke="#000000" points="477,-276.2629 477,-295.2629 505,-295.2629 505,-276.2629 477,-276.2629"/>
<text text-anchor="start" x="480" y="-282.3629" font-family="Helvetica,sans-Serif" font-size="11.00" fill="#000000">&lt; 10</text>
<polygon fill="#ffffff" stroke="transparent" points="505,-276.2629 505,-295.2629 518,-295.2629 518,-276.2629 505,-276.2629"/>
<polygon fill="none" stroke="#000000" points="505,-276.2629 505,-295.2629 518,-295.2629 518,-276.2629 505,-276.2629"/>
<text text-anchor="start" x="508.8862" y="-282.3629" font-family="Helvetica,sans-Serif" font-size="11.00" fill="#000000"> &#160;</text>
<polygon fill="#ffffff" stroke="transparent" points="518,-276.2629 518,-295.2629 546,-295.2629 546,-276.2629 518,-276.2629"/>
<polygon fill="none" stroke="#000000" points="518,-276.2629 518,-295.2629 546,-295.2629 546,-276.2629 518,-276.2629"/>
<text text-anchor="start" x="521.2904" y="-282.3629" font-family="Helvetica,sans-Serif" font-size="11.00" fill="#000000">17 &gt;</text>
</a>
</g>
</g>
<!-- leads&#45;&gt;accounts -->
<g id="edge9" class="edge">
<title>leads:w&#45;&gt;accounts:e</title>
<path fill="none" stroke="#000000" d="M462.7001,-306.7592C434.1455,-318.9176 456.3739,-372.5906 425,-403.2629 397.8539,-429.8019 386.4636,-441.2629 348.5,-441.2629"/>
<polygon fill="#000000" stroke="#000000" points="469.1192,-305.6387 477.6191,-307.8092 473.0596,-304.9508 477,-304.2629 477,-304.2629 477,-304.2629 473.0596,-304.9508 476.3809,-300.7165 469.1192,-305.6387 469.1192,-305.6387"/>
<ellipse fill="none" stroke="#000000" cx="465.9669" cy="-306.189" rx="3.2" ry="3.2"/>
</g>
<!-- leads&#45;&gt;jjwg_maps -->
<g id="edge11" class="edge">
<title>leads:w&#45;&gt;jjwg_maps:e</title>
<path fill="none" stroke="#000000" d="M466.2588,-304.1284C394.5008,-302.5129 235.8684,-287.4643 184,-321.2629 150.9427,-342.8037 182.9562,-400.2629 143.5,-400.2629"/>
<polygon fill="#000000" stroke="#000000" points="476.2501,-300.2532 476.15,-308.2525 474.5501,-308.2325 474.6503,-300.2331 476.2501,-300.2532"/>
<polyline fill="none" stroke="#000000" points="477,-304.2629 473.0003,-304.2128 "/>
<ellipse fill="none" stroke="#000000" cx="469.8006" cy="-304.1727" rx="3.2" ry="3.2"/>
</g>
<!-- leads&#45;&gt;contacts -->
<g id="edge10" class="edge">
<title>leads:w&#45;&gt;contacts:e</title>
<path fill="none" stroke="#000000" d="M462.6237,-305.3124C412.9091,-312.9162 404.2776,-359.2629 346.5,-359.2629"/>
<polygon fill="#000000" stroke="#000000" points="469.0212,-304.8454 477.2622,-307.8533 473.0106,-304.5541 477,-304.2629 477,-304.2629 477,-304.2629 473.0106,-304.5541 476.7378,-300.6724 469.0212,-304.8454 469.0212,-304.8454"/>
<ellipse fill="none" stroke="#000000" cx="465.8297" cy="-305.0784" rx="3.2" ry="3.2"/>
</g>
<!-- opportunities -->
<g id="node9" class="node">
<title>opportunities</title>
<g id="a_node9"><a xlink:href="../../tables/opportunities.html" xlink:title="opportunities" target="_top">
<polygon fill="#ffffff" stroke="transparent" points="252,-221.7629 252,-282.7629 357,-282.7629 357,-221.7629 252,-221.7629"/>
<polygon fill="#f5f5f5" stroke="transparent" points="252.5,-259.2629 252.5,-282.2629 357.5,-282.2629 357.5,-259.2629 252.5,-259.2629"/>
<polygon fill="none" stroke="#000000" points="252.5,-259.2629 252.5,-282.2629 357.5,-282.2629 357.5,-259.2629 252.5,-259.2629"/>
<text text-anchor="start" x="257.0191" y="-268.3629" font-family="Helvetica,sans-Serif" font-weight="bold" font-size="11.00" fill="#000000">opportunities</text>
<text text-anchor="start" x="323.0219" y="-267.3629" font-family="Helvetica,sans-Serif" font-size="11.00" fill="#000000">[table]</text>
<polygon fill="none" stroke="#000000" points="252.5,-240.2629 252.5,-259.2629 357.5,-259.2629 357.5,-240.2629 252.5,-240.2629"/>
<text text-anchor="start" x="255.5" y="-246.3629" font-family="Helvetica,sans-Serif" font-size="11.00" fill="#000000">...</text>
<polygon fill="#ffffff" stroke="transparent" points="252.5,-221.2629 252.5,-240.2629 295.5,-240.2629 295.5,-221.2629 252.5,-221.2629"/>
<polygon fill="none" stroke="#000000" points="252.5,-221.2629 252.5,-240.2629 295.5,-240.2629 295.5,-221.2629 252.5,-221.2629"/>
<text text-anchor="start" x="255.5" y="-227.3629" font-family="Helvetica,sans-Serif" font-size="11.00" fill="#000000">&lt; 6</text>
<polygon fill="#ffffff" stroke="transparent" points="295.5,-221.2629 295.5,-240.2629 318.5,-240.2629 318.5,-221.2629 295.5,-221.2629"/>
<polygon fill="none" stroke="#000000" points="295.5,-221.2629 295.5,-240.2629 318.5,-240.2629 318.5,-221.2629 295.5,-221.2629"/>
<text text-anchor="start" x="309.3862" y="-227.3629" font-family="Helvetica,sans-Serif" font-size="11.00" fill="#000000"> &#160;</text>
<polygon fill="#ffffff" stroke="transparent" points="318.5,-221.2629 318.5,-240.2629 357.5,-240.2629 357.5,-221.2629 318.5,-221.2629"/>
<polygon fill="none" stroke="#000000" points="318.5,-221.2629 318.5,-240.2629 357.5,-240.2629 357.5,-221.2629 318.5,-221.2629"/>
<text text-anchor="start" x="332.7904" y="-227.3629" font-family="Helvetica,sans-Serif" font-size="11.00" fill="#000000">17 &gt;</text>
</a>
</g>
</g>
<!-- leads&#45;&gt;opportunities -->
<g id="edge12" class="edge">
<title>leads:w&#45;&gt;opportunities:e</title>
<path fill="none" stroke="#000000" d="M462.514,-303.0108C417.6211,-294.824 410.7136,-249.2629 357.5,-249.2629"/>
<polygon fill="#000000" stroke="#000000" points="469.0297,-303.5739 476.69,-307.8495 473.0149,-303.9184 477,-304.2629 477,-304.2629 477,-304.2629 473.0149,-303.9184 477.31,-300.6762 469.0297,-303.5739 469.0297,-303.5739"/>
<ellipse fill="none" stroke="#000000" cx="465.8416" cy="-303.2983" rx="3.2" ry="3.2"/>
</g>
<!-- opportunities&#45;&gt;jjwg_maps -->
<g id="edge20" class="edge">
<title>opportunities:w&#45;&gt;jjwg_maps:e</title>
<path fill="none" stroke="#000000" d="M242.0204,-249.8357C213.4828,-253.1879 204.6647,-271.0238 184,-297.2629 153.5657,-335.9068 192.6895,-400.2629 143.5,-400.2629"/>
<polygon fill="#000000" stroke="#000000" points="251.4828,-245.3125 251.9195,-253.3006 250.3219,-253.3879 249.8852,-245.3998 251.4828,-245.3125"/>
<polyline fill="none" stroke="#000000" points="252.5,-249.2629 248.506,-249.4812 "/>
<ellipse fill="none" stroke="#000000" cx="245.3107" cy="-249.6559" rx="3.2" ry="3.2"/>
</g>
<!-- meetings -->
<g id="node10" class="node">
<title>meetings</title>
<g id="a_node10"><a xlink:href="../../tables/meetings.html" xlink:title="meetings" target="_top">
<polygon fill="#ffffff" stroke="transparent" points="605,-224.7629 605,-285.7629 692,-285.7629 692,-224.7629 605,-224.7629"/>
<polygon fill="#f5f5f5" stroke="transparent" points="605.5,-262.2629 605.5,-285.2629 692.5,-285.2629 692.5,-262.2629 605.5,-262.2629"/>
<polygon fill="none" stroke="#000000" points="605.5,-262.2629 605.5,-285.2629 692.5,-285.2629 692.5,-262.2629 605.5,-262.2629"/>
<text text-anchor="start" x="610.1904" y="-271.3629" font-family="Helvetica,sans-Serif" font-weight="bold" font-size="11.00" fill="#000000">meetings</text>
<text text-anchor="start" x="658.0219" y="-270.3629" font-family="Helvetica,sans-Serif" font-size="11.00" fill="#000000">[table]</text>
<polygon fill="none" stroke="#000000" points="605.5,-243.2629 605.5,-262.2629 692.5,-262.2629 692.5,-243.2629 605.5,-243.2629"/>
<text text-anchor="start" x="608.5" y="-249.3629" font-family="Helvetica,sans-Serif" font-size="11.00" fill="#000000">...</text>
<polygon fill="#ffffff" stroke="transparent" points="605.5,-224.2629 605.5,-243.2629 645.5,-243.2629 645.5,-224.2629 605.5,-224.2629"/>
<polygon fill="none" stroke="#000000" points="605.5,-224.2629 605.5,-243.2629 645.5,-243.2629 645.5,-224.2629 605.5,-224.2629"/>
<text text-anchor="start" x="608.5" y="-230.3629" font-family="Helvetica,sans-Serif" font-size="11.00" fill="#000000">&lt; 13</text>
<polygon fill="#ffffff" stroke="transparent" points="645.5,-224.2629 645.5,-243.2629 664.5,-243.2629 664.5,-224.2629 645.5,-224.2629"/>
<polygon fill="none" stroke="#000000" points="645.5,-224.2629 645.5,-243.2629 664.5,-243.2629 664.5,-224.2629 645.5,-224.2629"/>
<text text-anchor="start" x="655.3862" y="-230.3629" font-family="Helvetica,sans-Serif" font-size="11.00" fill="#000000"> &#160;</text>
<polygon fill="#ffffff" stroke="transparent" points="664.5,-224.2629 664.5,-243.2629 692.5,-243.2629 692.5,-224.2629 664.5,-224.2629"/>
<polygon fill="none" stroke="#000000" points="664.5,-224.2629 664.5,-243.2629 692.5,-243.2629 692.5,-224.2629 664.5,-224.2629"/>
<text text-anchor="start" x="673.9053" y="-230.3629" font-family="Helvetica,sans-Serif" font-size="11.00" fill="#000000">7 &gt;</text>
</a>
</g>
</g>
<!-- meetings&#45;&gt;accounts -->
<g id="edge14" class="edge">
<title>meetings:w&#45;&gt;accounts:e</title>
<path fill="none" stroke="#000000" d="M591.3967,-255.2104C567.6029,-268.0384 592.6402,-319.6404 564,-348.2629 545.5536,-366.6978 374.579,-441.2629 348.5,-441.2629"/>
<polygon fill="#000000" stroke="#000000" points="597.6692,-253.8995 606.2365,-255.7867 601.5846,-253.0812 605.5,-252.2629 605.5,-252.2629 605.5,-252.2629 601.5846,-253.0812 604.7635,-248.739 597.6692,-253.8995 597.6692,-253.8995"/>
<ellipse fill="none" stroke="#000000" cx="594.5369" cy="-254.5542" rx="3.2" ry="3.2"/>
</g>
<!-- meetings&#45;&gt;jjwg_maps -->
<g id="edge13" class="edge">
<title>meetings:w&#45;&gt;jjwg_maps:e</title>
<path fill="none" stroke="#000000" d="M594.8641,-251.6286C549.3296,-246.7672 462.6832,-215.4888 425,-211.2629 318.5561,-199.3257 267.2967,-143.9245 184,-211.2629 117.1931,-265.2706 229.4069,-400.2629 143.5,-400.2629"/>
<polygon fill="#000000" stroke="#000000" points="604.9396,-248.2223 604.4633,-256.2081 602.8661,-256.1129 603.3424,-248.1271 604.9396,-248.2223"/>
<polyline fill="none" stroke="#000000" points="605.5,-252.2629 601.5071,-252.0247 "/>
<ellipse fill="none" stroke="#000000" cx="598.3128" cy="-251.8342" rx="3.2" ry="3.2"/>
</g>
<!-- meetings&#45;&gt;cases -->
<g id="edge15" class="edge">
<title>meetings:w&#45;&gt;cases:e</title>
<path fill="none" stroke="#000000" d="M590.9461,-254.5171C531.8443,-275.841 629.2643,-441.2629 547,-441.2629"/>
<polygon fill="#000000" stroke="#000000" points="597.5943,-253.4874 606.051,-255.8204 601.5471,-252.8751 605.5,-252.2629 605.5,-252.2629 605.5,-252.2629 601.5471,-252.8751 604.949,-248.7053 597.5943,-253.4874 597.5943,-253.4874"/>
<ellipse fill="none" stroke="#000000" cx="594.432" cy="-253.9772" rx="3.2" ry="3.2"/>
</g>
<!-- meetings&#45;&gt;leads -->
<g id="edge16" class="edge">
<title>meetings:w&#45;&gt;leads:e</title>
<path fill="none" stroke="#000000" d="M591.5124,-256.0026C572.6696,-267.9257 575.3583,-304.2629 546,-304.2629"/>
<polygon fill="#000000" stroke="#000000" points="597.7715,-254.3292 606.4299,-255.7407 601.6357,-253.296 605.5,-252.2629 605.5,-252.2629 605.5,-252.2629 601.6357,-253.296 604.5701,-248.785 597.7715,-254.3292 597.7715,-254.3292"/>
<ellipse fill="none" stroke="#000000" cx="594.68" cy="-255.1557" rx="3.2" ry="3.2"/>
</g>
<!-- meetings&#45;&gt;opportunities -->
<g id="edge17" class="edge">
<title>meetings:w&#45;&gt;opportunities:e</title>
<path fill="none" stroke="#000000" d="M590.8284,-252.2445C492.5675,-251.9938 462.6709,-249.2629 357.5,-249.2629"/>
<polygon fill="#000000" stroke="#000000" points="597.5,-252.2528 605.4955,-255.8629 601.5,-252.2578 605.5,-252.2629 605.5,-252.2629 605.5,-252.2629 601.5,-252.2578 605.5045,-248.6629 597.5,-252.2528 597.5,-252.2528"/>
<ellipse fill="none" stroke="#000000" cx="594.3" cy="-252.2487" rx="3.2" ry="3.2"/>
</g>
<!-- project -->
<g id="node11" class="node">
<title>project</title>
<g id="a_node11"><a xlink:href="../../tables/project.html" xlink:title="project" target="_top">
<polygon fill="#ffffff" stroke="transparent" points="473,-139.7629 473,-200.7629 549,-200.7629 549,-139.7629 473,-139.7629"/>
<polygon fill="#f5f5f5" stroke="transparent" points="473,-177.2629 473,-200.2629 549,-200.2629 549,-177.2629 473,-177.2629"/>
<polygon fill="none" stroke="#000000" points="473,-177.2629 473,-200.2629 549,-200.2629 549,-177.2629 473,-177.2629"/>
<text text-anchor="start" x="477.9978" y="-186.3629" font-family="Helvetica,sans-Serif" font-weight="bold" font-size="11.00" fill="#000000">project</text>
<text text-anchor="start" x="514.5219" y="-185.3629" font-family="Helvetica,sans-Serif" font-size="11.00" fill="#000000">[table]</text>
<polygon fill="none" stroke="#000000" points="473,-158.2629 473,-177.2629 549,-177.2629 549,-158.2629 473,-158.2629"/>
<text text-anchor="start" x="476" y="-164.3629" font-family="Helvetica,sans-Serif" font-size="11.00" fill="#000000">...</text>
<polygon fill="#ffffff" stroke="transparent" points="473,-139.2629 473,-158.2629 502,-158.2629 502,-139.2629 473,-139.2629"/>
<polygon fill="none" stroke="#000000" points="473,-139.2629 473,-158.2629 502,-158.2629 502,-139.2629 473,-139.2629"/>
<text text-anchor="start" x="476" y="-145.3629" font-family="Helvetica,sans-Serif" font-size="11.00" fill="#000000">&lt; 4</text>
<polygon fill="#ffffff" stroke="transparent" points="502,-139.2629 502,-158.2629 518,-158.2629 518,-139.2629 502,-139.2629"/>
<polygon fill="none" stroke="#000000" points="502,-139.2629 502,-158.2629 518,-158.2629 518,-139.2629 502,-139.2629"/>
<text text-anchor="start" x="508.8862" y="-145.3629" font-family="Helvetica,sans-Serif" font-size="11.00" fill="#000000"> &#160;</text>
<polygon fill="#ffffff" stroke="transparent" points="518,-139.2629 518,-158.2629 549,-158.2629 549,-139.2629 518,-139.2629"/>
<polygon fill="none" stroke="#000000" points="518,-139.2629 518,-158.2629 549,-158.2629 549,-139.2629 518,-139.2629"/>
<text text-anchor="start" x="524.2904" y="-145.3629" font-family="Helvetica,sans-Serif" font-size="11.00" fill="#000000">18 &gt;</text>
</a>
</g>
</g>
<!-- meetings&#45;&gt;project -->
<g id="edge18" class="edge">
<title>meetings:w&#45;&gt;project:e</title>
<path fill="none" stroke="#000000" d="M591.5841,-248.3897C567.6388,-231.7612 588.5147,-167.2629 549,-167.2629"/>
<polygon fill="#000000" stroke="#000000" points="597.7929,-250.1178 604.5347,-255.731 601.6465,-251.1903 605.5,-252.2629 605.5,-252.2629 605.5,-252.2629 601.6465,-251.1903 606.4653,-248.7947 597.7929,-250.1178 597.7929,-250.1178"/>
<ellipse fill="none" stroke="#000000" cx="594.7101" cy="-249.2597" rx="3.2" ry="3.2"/>
</g>
<!-- prospects -->
<g id="node12" class="node">
<title>prospects</title>
<g id="a_node12"><a xlink:href="../../tables/prospects.html" xlink:title="prospects" target="_top">
<polygon fill="#ffffff" stroke="transparent" points="466,-57.7629 466,-118.7629 556,-118.7629 556,-57.7629 466,-57.7629"/>
<polygon fill="#f5f5f5" stroke="transparent" points="466,-95.2629 466,-118.2629 556,-118.2629 556,-95.2629 466,-95.2629"/>
<polygon fill="none" stroke="#000000" points="466,-95.2629 466,-118.2629 556,-118.2629 556,-95.2629 466,-95.2629"/>
<text text-anchor="start" x="470.6608" y="-104.3629" font-family="Helvetica,sans-Serif" font-weight="bold" font-size="11.00" fill="#000000">prospects</text>
<text text-anchor="start" x="521.5219" y="-103.3629" font-family="Helvetica,sans-Serif" font-size="11.00" fill="#000000">[table]</text>
<polygon fill="none" stroke="#000000" points="466,-76.2629 466,-95.2629 556,-95.2629 556,-76.2629 466,-76.2629"/>
<text text-anchor="start" x="469" y="-82.3629" font-family="Helvetica,sans-Serif" font-size="11.00" fill="#000000">...</text>
<polygon fill="#ffffff" stroke="transparent" points="466,-57.2629 466,-76.2629 502,-76.2629 502,-57.2629 466,-57.2629"/>
<polygon fill="none" stroke="#000000" points="466,-57.2629 466,-76.2629 502,-76.2629 502,-57.2629 466,-57.2629"/>
<text text-anchor="start" x="469" y="-63.3629" font-family="Helvetica,sans-Serif" font-size="11.00" fill="#000000">&lt; 5</text>
<polygon fill="#ffffff" stroke="transparent" points="502,-57.2629 502,-76.2629 521,-76.2629 521,-57.2629 502,-57.2629"/>
<polygon fill="none" stroke="#000000" points="502,-57.2629 502,-76.2629 521,-76.2629 521,-57.2629 502,-57.2629"/>
<text text-anchor="start" x="511.8862" y="-63.3629" font-family="Helvetica,sans-Serif" font-size="11.00" fill="#000000"> &#160;</text>
<polygon fill="#ffffff" stroke="transparent" points="521,-57.2629 521,-76.2629 556,-76.2629 556,-57.2629 521,-57.2629"/>
<polygon fill="none" stroke="#000000" points="521,-57.2629 521,-76.2629 556,-76.2629 556,-57.2629 521,-57.2629"/>
<text text-anchor="start" x="531.2904" y="-63.3629" font-family="Helvetica,sans-Serif" font-size="11.00" fill="#000000">12 &gt;</text>
</a>
</g>
</g>
<!-- meetings&#45;&gt;prospects -->
<g id="edge19" class="edge">
<title>meetings:w&#45;&gt;prospects:e</title>
<path fill="none" stroke="#000000" d="M591.1337,-249.6397C542.714,-228.3937 627.6685,-85.2629 556,-85.2629"/>
<polygon fill="#000000" stroke="#000000" points="597.6301,-250.8258 604.8533,-255.8043 601.5651,-251.5443 605.5,-252.2629 605.5,-252.2629 605.5,-252.2629 601.5651,-251.5443 606.1467,-248.7214 597.6301,-250.8258 597.6301,-250.8258"/>
<ellipse fill="none" stroke="#000000" cx="594.4822" cy="-250.251" rx="3.2" ry="3.2"/>
</g>
<!-- project&#45;&gt;jjwg_maps -->
<g id="edge21" class="edge">
<title>project:w&#45;&gt;jjwg_maps:e</title>
<path fill="none" stroke="#000000" d="M462.5817,-167.1204C340.7262,-163.795 277.6526,-104.1243 184,-187.2629 111.9362,-251.2362 239.8627,-400.2629 143.5,-400.2629"/>
<polygon fill="#000000" stroke="#000000" points="472.2548,-163.2523 472.1454,-171.2515 470.5455,-171.2296 470.6549,-163.2304 472.2548,-163.2523"/>
<polyline fill="none" stroke="#000000" points="473,-167.2629 469.0004,-167.2081 "/>
<ellipse fill="none" stroke="#000000" cx="465.8007" cy="-167.1644" rx="3.2" ry="3.2"/>
</g>
<!-- prospects&#45;&gt;jjwg_maps -->
<g id="edge22" class="edge">
<title>prospects:w&#45;&gt;jjwg_maps:e</title>
<path fill="none" stroke="#000000" d="M455.291,-85.1795C334.478,-83.3163 269.9813,-51.6895 184,-141.2629 143.6588,-183.2894 201.755,-400.2629 143.5,-400.2629"/>
<polygon fill="#000000" stroke="#000000" points="465.2312,-81.2567 465.1689,-89.2565 463.5689,-89.244 463.6312,-81.2443 465.2312,-81.2567"/>
<polyline fill="none" stroke="#000000" points="466,-85.2629 462.0001,-85.2317 "/>
<ellipse fill="none" stroke="#000000" cx="458.8002" cy="-85.2068" rx="3.2" ry="3.2"/>
</g>
<!-- securitygroups_records -->
<g id="node13" class="node">
<title>securitygroups_records</title>
<g id="a_node13"><a xlink:href="../../tables/securitygroups_records.html" xlink:title="securitygroups_records" target="_top">
<polygon fill="#ffffff" stroke="transparent" points="741,-282.7629 741,-343.7629 898,-343.7629 898,-282.7629 741,-282.7629"/>
<polygon fill="#f5f5f5" stroke="transparent" points="741.5,-320.2629 741.5,-343.2629 898.5,-343.2629 898.5,-320.2629 741.5,-320.2629"/>
<polygon fill="none" stroke="#000000" points="741.5,-320.2629 741.5,-343.2629 898.5,-343.2629 898.5,-320.2629 741.5,-320.2629"/>
<text text-anchor="start" x="746.3528" y="-329.3629" font-family="Helvetica,sans-Serif" font-weight="bold" font-size="11.00" fill="#000000">securitygroups_records</text>
<text text-anchor="start" x="864.0219" y="-328.3629" font-family="Helvetica,sans-Serif" font-size="11.00" fill="#000000">[table]</text>
<polygon fill="none" stroke="#000000" points="741.5,-301.2629 741.5,-320.2629 898.5,-320.2629 898.5,-301.2629 741.5,-301.2629"/>
<text text-anchor="start" x="744.5" y="-307.3629" font-family="Helvetica,sans-Serif" font-size="11.00" fill="#000000">...</text>
<polygon fill="#ffffff" stroke="transparent" points="741.5,-282.2629 741.5,-301.2629 821.5,-301.2629 821.5,-282.2629 741.5,-282.2629"/>
<polygon fill="none" stroke="#000000" points="741.5,-282.2629 741.5,-301.2629 821.5,-301.2629 821.5,-282.2629 741.5,-282.2629"/>
<text text-anchor="start" x="744.5" y="-288.3629" font-family="Helvetica,sans-Serif" font-size="11.00" fill="#000000">&lt; 41</text>
<polygon fill="#ffffff" stroke="transparent" points="821.5,-282.2629 821.5,-301.2629 859.5,-301.2629 859.5,-282.2629 821.5,-282.2629"/>
<polygon fill="none" stroke="#000000" points="821.5,-282.2629 821.5,-301.2629 859.5,-301.2629 859.5,-282.2629 821.5,-282.2629"/>
<text text-anchor="start" x="850.3862" y="-288.3629" font-family="Helvetica,sans-Serif" font-size="11.00" fill="#000000"> &#160;</text>
<polygon fill="#ffffff" stroke="transparent" points="859.5,-282.2629 859.5,-301.2629 898.5,-301.2629 898.5,-282.2629 859.5,-282.2629"/>
<polygon fill="none" stroke="#000000" points="859.5,-282.2629 859.5,-301.2629 898.5,-301.2629 898.5,-282.2629 859.5,-282.2629"/>
<text text-anchor="start" x="889.3862" y="-288.3629" font-family="Helvetica,sans-Serif" font-size="11.00" fill="#000000"> &#160;</text>
</a>
</g>
</g>
<!-- securitygroups_records&#45;&gt;accounts -->
<g id="edge23" class="edge">
<title>securitygroups_records:w&#45;&gt;accounts:e</title>
<path fill="none" stroke="#000000" d="M727.0849,-312.7644C695.3848,-326.5202 734.7672,-393.663 700,-430.2629 655.0952,-477.5346 628.0002,-472.8115 564,-485.2629 517.7559,-494.2597 504.254,-494.2083 458,-485.2629 406.5055,-475.3039 400.9487,-441.2629 348.5,-441.2629"/>
<polygon fill="#000000" stroke="#000000" points="733.6178,-311.6308 742.1156,-313.8098 737.5589,-310.9468 741.5,-310.2629 741.5,-310.2629 741.5,-310.2629 737.5589,-310.9468 740.8844,-306.7159 733.6178,-311.6308 733.6178,-311.6308"/>
<ellipse fill="none" stroke="#000000" cx="730.4649" cy="-312.1779" rx="3.2" ry="3.2"/>
</g>
<!-- securitygroups_records&#45;&gt;jjwg_maps -->
<g id="edge26" class="edge">
<title>securitygroups_records:w&#45;&gt;jjwg_maps:e</title>
<path fill="none" stroke="#000000" d="M727.107,-311.8258C678.8382,-323.9131 724.3975,-403.6399 700,-464.2629 605.168,-699.9016 643.5907,-835.892 425,-965.2629 332.8228,-1019.817 262.8778,-1037.7273 184,-965.2629 144.8298,-929.2775 196.6907,-488.2629 143.5,-488.2629"/>
<polygon fill="#000000" stroke="#000000" points="733.5468,-311.1265 741.8887,-313.8418 737.5234,-310.6947 741.5,-310.2629 741.5,-310.2629 741.5,-310.2629 737.5234,-310.6947 741.1113,-306.6839 733.5468,-311.1265 733.5468,-311.1265"/>
<ellipse fill="none" stroke="#000000" cx="730.3655" cy="-311.472" rx="3.2" ry="3.2"/>
</g>
<!-- securitygroups_records&#45;&gt;cases -->
<g id="edge24" class="edge">
<title>securitygroups_records:w&#45;&gt;cases:e</title>
<path fill="none" stroke="#000000" d="M727.3708,-313.6124C706.4763,-326.7287 728.658,-375.066 700,-399.2629 646.121,-444.7546 617.5156,-441.2629 547,-441.2629"/>
<polygon fill="#000000" stroke="#000000" points="733.7157,-312.1083 742.3304,-313.7658 737.6079,-311.1856 741.5,-310.2629 741.5,-310.2629 741.5,-310.2629 737.6079,-311.1856 740.6696,-306.7599 733.7157,-312.1083 733.7157,-312.1083"/>
<ellipse fill="none" stroke="#000000" cx="730.602" cy="-312.8464" rx="3.2" ry="3.2"/>
</g>
<!-- securitygroups_records&#45;&gt;contacts -->
<g id="edge25" class="edge">
<title>securitygroups_records:w&#45;&gt;contacts:e</title>
<path fill="none" stroke="#000000" d="M727.1063,-312.6749C685.8217,-320.8635 572.4363,-347.1538 564,-348.2629 468.0355,-360.8789 443.2902,-359.2629 346.5,-359.2629"/>
<polygon fill="#000000" stroke="#000000" points="733.61,-311.5851 742.095,-313.8133 737.555,-310.924 741.5,-310.2629 741.5,-310.2629 741.5,-310.2629 737.555,-310.924 740.905,-306.7124 733.61,-311.5851 733.61,-311.5851"/>
<ellipse fill="none" stroke="#000000" cx="730.454" cy="-312.114" rx="3.2" ry="3.2"/>
</g>
<!-- securitygroups_records&#45;&gt;leads -->
<g id="edge27" class="edge">
<title>securitygroups_records:w&#45;&gt;leads:e</title>
<path fill="none" stroke="#000000" d="M726.8656,-310.2035C651.8101,-309.5803 627.8363,-304.2629 546,-304.2629"/>
<polygon fill="#000000" stroke="#000000" points="733.5001,-310.2303 741.4854,-313.8628 737.5,-310.2466 741.5,-310.2629 741.5,-310.2629 741.5,-310.2629 737.5,-310.2466 741.5146,-306.6629 733.5001,-310.2303 733.5001,-310.2303"/>
<ellipse fill="none" stroke="#000000" cx="730.3001" cy="-310.2173" rx="3.2" ry="3.2"/>
</g>
<!-- securitygroups_records&#45;&gt;opportunities -->
<g id="edge29" class="edge">
<title>securitygroups_records:w&#45;&gt;opportunities:e</title>
<path fill="none" stroke="#000000" d="M726.8745,-308.962C653.6451,-294.1821 764.3509,-157.1139 700,-86.2629 657.7232,-39.7156 626.2686,-56.0147 564,-47.2629 517.3474,-40.7058 498.0505,-22.4554 458,-47.2629 372.7529,-100.0653 457.7754,-249.2629 357.5,-249.2629"/>
<polygon fill="#000000" stroke="#000000" points="733.5315,-309.5541 741.181,-313.8487 737.5157,-309.9085 741.5,-310.2629 741.5,-310.2629 741.5,-310.2629 737.5157,-309.9085 741.819,-306.677 733.5315,-309.5541 733.5315,-309.5541"/>
<ellipse fill="none" stroke="#000000" cx="730.344" cy="-309.2706" rx="3.2" ry="3.2"/>
</g>
<!-- securitygroups_records&#45;&gt;meetings -->
<g id="edge28" class="edge">
<title>securitygroups_records:w&#45;&gt;meetings:e</title>
<path fill="none" stroke="#000000" d="M727.7627,-305.3178C712.7131,-291.2918 720.1819,-252.2629 692.5,-252.2629"/>
<polygon fill="#000000" stroke="#000000" points="733.9728,-307.5532 740.2807,-313.6501 737.7364,-308.9081 741.5,-310.2629 741.5,-310.2629 741.5,-310.2629 737.7364,-308.9081 742.7193,-306.8756 733.9728,-307.5532 733.9728,-307.5532"/>
<ellipse fill="none" stroke="#000000" cx="730.962" cy="-306.4694" rx="3.2" ry="3.2"/>
</g>
<!-- securitygroups_records&#45;&gt;project -->
<g id="edge30" class="edge">
<title>securitygroups_records:w&#45;&gt;project:e</title>
<path fill="none" stroke="#000000" d="M727.157,-307.0586C704.2155,-293.6145 729.9766,-241.2117 700,-214.2629 647.7301,-167.2724 619.2869,-167.2629 549,-167.2629"/>
<polygon fill="#000000" stroke="#000000" points="733.6925,-308.5186 740.7151,-313.7763 737.5962,-309.3907 741.5,-310.2629 741.5,-310.2629 741.5,-310.2629 737.5962,-309.3907 742.2849,-306.7495 733.6925,-308.5186 733.6925,-308.5186"/>
<ellipse fill="none" stroke="#000000" cx="730.5694" cy="-307.8209" rx="3.2" ry="3.2"/>
</g>
<!-- securitygroups_records&#45;&gt;prospects -->
<g id="edge31" class="edge">
<title>securitygroups_records:w&#45;&gt;prospects:e</title>
<path fill="none" stroke="#000000" d="M727.1233,-308.3129C685.5185,-294.7814 737.7823,-214.0016 700,-166.2629 654.4297,-108.6838 629.4302,-85.2629 556,-85.2629"/>
<polygon fill="#000000" stroke="#000000" points="733.5726,-309.1876 741.0161,-313.8302 737.5363,-309.7252 741.5,-310.2629 741.5,-310.2629 741.5,-310.2629 737.5363,-309.7252 741.9839,-306.6955 733.5726,-309.1876 733.5726,-309.1876"/>
<ellipse fill="none" stroke="#000000" cx="730.4016" cy="-308.7575" rx="3.2" ry="3.2"/>
</g>
</g>
</svg>
