<?xml version="1.0" encoding="UTF-8" standalone="no"?>
<!DOCTYPE svg PUBLIC "-//W3C//DTD SVG 1.1//EN"
 "http://www.w3.org/Graphics/SVG/1.1/DTD/svg11.dtd">
<!-- Generated by graphviz version 2.40.1 (20161225.0304)
 -->
<!-- Title: oneDegreeRelationshipsDiagram Pages: 1 -->
<svg width="763pt" height="551pt"
 viewBox="0.00 0.00 763.00 550.70" xmlns="http://www.w3.org/2000/svg" xmlns:xlink="http://www.w3.org/1999/xlink">
<g id="graph0" class="graph" transform="scale(1 1) rotate(0) translate(4 546.7)">
<title>oneDegreeRelationshipsDiagram</title>
<polygon fill="#ffffff" stroke="transparent" points="-4,4 -4,-546.7 759,-546.7 759,4 -4,4"/>
<text text-anchor="middle" x="72.4936" y="-7.3" font-family="Helvetica,sans-Serif" font-size="11.00" fill="#000000">Generated by SchemaSpy</text>
<!-- jjwg_areas -->
<g id="node1" class="node">
<title>jjwg_areas</title>
<g id="a_node1"><a xlink:href="../../tables/jjwg_areas.html" xlink:title="jjwg_areas" target="_top">
<polygon fill="#ffffff" stroke="transparent" points="273,-38.2 273,-370.2 479,-370.2 479,-38.2 273,-38.2"/>
<polygon fill="#f5f5f5" stroke="transparent" points="275,-345.2 275,-368.2 477,-368.2 477,-345.2 275,-345.2"/>
<polygon fill="none" stroke="#000000" points="275,-345.2 275,-368.2 477,-368.2 477,-345.2 275,-345.2"/>
<text text-anchor="start" x="280" y="-354.3" font-family="Helvetica,sans-Serif" font-weight="bold" font-size="11.00" fill="#000000">jjwg_areas</text>
<text text-anchor="start" x="442.0437" y="-353.3" font-family="Helvetica,sans-Serif" font-size="11.00" fill="#000000">[table]</text>
<polygon fill="none" stroke="#000000" points="275,-323.2 275,-345.2 410,-345.2 410,-323.2 275,-323.2"/>
<image xlink:href="../../images/primaryKeys.png" width="11px" height="12px" preserveAspectRatio="xMinYMin meet" x="280" y="-340.2"/>
<text text-anchor="start" x="295" y="-330.3" font-family="Helvetica,sans-Serif" font-size="11.00" fill="#000000">id</text>
<polygon fill="none" stroke="#000000" points="410,-323.2 410,-345.2 477,-345.2 477,-323.2 410,-323.2"/>
<text text-anchor="start" x="413" y="-330.9" font-family="Helvetica,sans-Serif" font-size="11.00" fill="#000000">char[36]</text>
<polygon fill="none" stroke="#000000" points="275,-301.2 275,-323.2 410,-323.2 410,-301.2 275,-301.2"/>
<text text-anchor="start" x="295" y="-308.3" font-family="Helvetica,sans-Serif" font-size="11.00" fill="#000000">name</text>
<polygon fill="none" stroke="#000000" points="410,-301.2 410,-323.2 477,-323.2 477,-301.2 410,-301.2"/>
<text text-anchor="start" x="412.9365" y="-308.9" font-family="Helvetica,sans-Serif" font-size="11.00" fill="#000000">varchar[255]</text>
<polygon fill="none" stroke="#000000" points="275,-279.2 275,-301.2 410,-301.2 410,-279.2 275,-279.2"/>
<text text-anchor="start" x="295" y="-286.3" font-family="Helvetica,sans-Serif" font-size="11.00" fill="#000000">date_entered</text>
<polygon fill="none" stroke="#000000" points="410,-279.2 410,-301.2 477,-301.2 477,-279.2 410,-279.2"/>
<text text-anchor="start" x="413" y="-286.9" font-family="Helvetica,sans-Serif" font-size="11.00" fill="#000000">datetime[26]</text>
<polygon fill="none" stroke="#000000" points="275,-257.2 275,-279.2 410,-279.2 410,-257.2 275,-257.2"/>
<text text-anchor="start" x="295" y="-264.3" font-family="Helvetica,sans-Serif" font-size="11.00" fill="#000000">date_modified</text>
<polygon fill="none" stroke="#000000" points="410,-257.2 410,-279.2 477,-279.2 477,-257.2 410,-257.2"/>
<text text-anchor="start" x="413" y="-264.9" font-family="Helvetica,sans-Serif" font-size="11.00" fill="#000000">datetime[26]</text>
<polygon fill="none" stroke="#000000" points="275,-235.2 275,-257.2 410,-257.2 410,-235.2 275,-235.2"/>
<image xlink:href="../../images/foreignKeys.png" width="11px" height="12px" preserveAspectRatio="xMinYMin meet" x="280" y="-252.2"/>
<text text-anchor="start" x="295" y="-242.3" font-family="Helvetica,sans-Serif" font-size="11.00" fill="#000000">modified_user_id</text>
<polygon fill="none" stroke="#000000" points="410,-235.2 410,-257.2 477,-257.2 477,-235.2 410,-235.2"/>
<text text-anchor="start" x="413" y="-242.9" font-family="Helvetica,sans-Serif" font-size="11.00" fill="#000000">char[36]</text>
<polygon fill="none" stroke="#000000" points="275,-213.2 275,-235.2 410,-235.2 410,-213.2 275,-213.2"/>
<image xlink:href="../../images/foreignKeys.png" width="11px" height="12px" preserveAspectRatio="xMinYMin meet" x="280" y="-230.2"/>
<text text-anchor="start" x="295" y="-220.3" font-family="Helvetica,sans-Serif" font-size="11.00" fill="#000000">created_by</text>
<polygon fill="none" stroke="#000000" points="410,-213.2 410,-235.2 477,-235.2 477,-213.2 410,-213.2"/>
<text text-anchor="start" x="413" y="-220.9" font-family="Helvetica,sans-Serif" font-size="11.00" fill="#000000">char[36]</text>
<polygon fill="none" stroke="#000000" points="275,-191.2 275,-213.2 410,-213.2 410,-191.2 275,-191.2"/>
<text text-anchor="start" x="295" y="-198.3" font-family="Helvetica,sans-Serif" font-size="11.00" fill="#000000">description</text>
<polygon fill="none" stroke="#000000" points="410,-191.2 410,-213.2 477,-213.2 477,-191.2 410,-191.2"/>
<text text-anchor="start" x="413" y="-198.9" font-family="Helvetica,sans-Serif" font-size="11.00" fill="#000000">text[65535]</text>
<polygon fill="none" stroke="#000000" points="275,-169.2 275,-191.2 410,-191.2 410,-169.2 275,-169.2"/>
<text text-anchor="start" x="295" y="-176.3" font-family="Helvetica,sans-Serif" font-size="11.00" fill="#000000">deleted</text>
<polygon fill="none" stroke="#000000" points="410,-169.2 410,-191.2 477,-191.2 477,-169.2 410,-169.2"/>
<text text-anchor="start" x="413" y="-176.9" font-family="Helvetica,sans-Serif" font-size="11.00" fill="#000000">bit[1]</text>
<polygon fill="none" stroke="#000000" points="275,-147.2 275,-169.2 410,-169.2 410,-147.2 275,-147.2"/>
<image xlink:href="../../images/foreignKeys.png" width="11px" height="12px" preserveAspectRatio="xMinYMin meet" x="280" y="-164.2"/>
<text text-anchor="start" x="295" y="-154.3" font-family="Helvetica,sans-Serif" font-size="11.00" fill="#000000">assigned_user_id</text>
<polygon fill="none" stroke="#000000" points="410,-147.2 410,-169.2 477,-169.2 477,-147.2 410,-147.2"/>
<text text-anchor="start" x="413" y="-154.9" font-family="Helvetica,sans-Serif" font-size="11.00" fill="#000000">char[36]</text>
<polygon fill="none" stroke="#000000" points="275,-125.2 275,-147.2 410,-147.2 410,-125.2 275,-125.2"/>
<text text-anchor="start" x="295" y="-132.3" font-family="Helvetica,sans-Serif" font-size="11.00" fill="#000000">city</text>
<polygon fill="none" stroke="#000000" points="410,-125.2 410,-147.2 477,-147.2 477,-125.2 410,-125.2"/>
<text text-anchor="start" x="412.9365" y="-132.9" font-family="Helvetica,sans-Serif" font-size="11.00" fill="#000000">varchar[255]</text>
<polygon fill="none" stroke="#000000" points="275,-103.2 275,-125.2 410,-125.2 410,-103.2 275,-103.2"/>
<text text-anchor="start" x="295" y="-110.3" font-family="Helvetica,sans-Serif" font-size="11.00" fill="#000000">state</text>
<polygon fill="none" stroke="#000000" points="410,-103.2 410,-125.2 477,-125.2 477,-103.2 410,-103.2"/>
<text text-anchor="start" x="412.9365" y="-110.9" font-family="Helvetica,sans-Serif" font-size="11.00" fill="#000000">varchar[255]</text>
<polygon fill="none" stroke="#000000" points="275,-81.2 275,-103.2 410,-103.2 410,-81.2 275,-81.2"/>
<text text-anchor="start" x="295" y="-88.3" font-family="Helvetica,sans-Serif" font-size="11.00" fill="#000000">country</text>
<polygon fill="none" stroke="#000000" points="410,-81.2 410,-103.2 477,-103.2 477,-81.2 410,-81.2"/>
<text text-anchor="start" x="412.9365" y="-88.9" font-family="Helvetica,sans-Serif" font-size="11.00" fill="#000000">varchar[255]</text>
<polygon fill="none" stroke="#000000" points="275,-59.2 275,-81.2 410,-81.2 410,-59.2 275,-59.2"/>
<text text-anchor="start" x="295" y="-66.3" font-family="Helvetica,sans-Serif" font-size="11.00" fill="#000000">coordinates</text>
<polygon fill="none" stroke="#000000" points="410,-59.2 410,-81.2 477,-81.2 477,-59.2 410,-59.2"/>
<text text-anchor="start" x="413" y="-66.9" font-family="Helvetica,sans-Serif" font-size="11.00" fill="#000000">text[65535]</text>
<polygon fill="#ffffff" stroke="transparent" points="275,-40.2 275,-59.2 347,-59.2 347,-40.2 275,-40.2"/>
<polygon fill="none" stroke="#000000" points="275,-40.2 275,-59.2 347,-59.2 347,-40.2 275,-40.2"/>
<text text-anchor="start" x="278" y="-46.3" font-family="Helvetica,sans-Serif" font-size="11.00" fill="#000000">&lt; 3</text>
<polygon fill="#ffffff" stroke="transparent" points="347,-40.2 347,-59.2 410,-59.2 410,-40.2 347,-40.2"/>
<polygon fill="none" stroke="#000000" points="347,-40.2 347,-59.2 410,-59.2 410,-40.2 347,-40.2"/>
<text text-anchor="start" x="400.8862" y="-46.3" font-family="Helvetica,sans-Serif" font-size="11.00" fill="#000000"> &#160;</text>
<polygon fill="#ffffff" stroke="transparent" points="410,-40.2 410,-59.2 477,-59.2 477,-40.2 410,-40.2"/>
<polygon fill="none" stroke="#000000" points="410,-40.2 410,-59.2 477,-59.2 477,-40.2 410,-40.2"/>
<text text-anchor="start" x="458.4053" y="-46.3" font-family="Helvetica,sans-Serif" font-size="11.00" fill="#000000">3 &gt;</text>
<polygon fill="none" stroke="#000000" stroke-width="2" points="274,-39.2 274,-369.2 478,-369.2 478,-39.2 274,-39.2"/>
</a>
</g>
</g>
<!-- users -->
<g id="node2" class="node">
<title>users</title>
<g id="a_node2"><a xlink:href="../../tables/users.html" xlink:title="users" target="_top">
<polygon fill="#ffffff" stroke="transparent" points="8,-43.7 8,-258.7 224,-258.7 224,-43.7 8,-43.7"/>
<polygon fill="#f5f5f5" stroke="transparent" points="8,-235.2 8,-258.2 224,-258.2 224,-235.2 8,-235.2"/>
<polygon fill="none" stroke="#000000" points="8,-235.2 8,-258.2 224,-258.2 224,-235.2 8,-235.2"/>
<text text-anchor="start" x="13" y="-244.3" font-family="Helvetica,sans-Serif" font-weight="bold" font-size="11.00" fill="#000000">users</text>
<text text-anchor="start" x="189.0437" y="-243.3" font-family="Helvetica,sans-Serif" font-size="11.00" fill="#000000">[table]</text>
<polygon fill="none" stroke="#000000" points="8,-213.2 8,-235.2 224,-235.2 224,-213.2 8,-213.2"/>
<image xlink:href="../../images/primaryKeys.png" width="11px" height="12px" preserveAspectRatio="xMinYMin meet" x="13" y="-230.2"/>
<text text-anchor="start" x="28" y="-220.3" font-family="Helvetica,sans-Serif" font-size="11.00" fill="#000000">id</text>
<polygon fill="#ffffff" stroke="transparent" points="8,-191.2 8,-213.2 224,-213.2 224,-191.2 8,-191.2"/>
<polygon fill="none" stroke="#000000" points="8,-191.2 8,-213.2 224,-213.2 224,-191.2 8,-191.2"/>
<text text-anchor="start" x="28" y="-198.3" font-family="Helvetica,sans-Serif" font-size="11.00" fill="#000000">user_name</text>
<polygon fill="#ffffff" stroke="transparent" points="8,-169.2 8,-191.2 224,-191.2 224,-169.2 8,-169.2"/>
<polygon fill="none" stroke="#000000" points="8,-169.2 8,-191.2 224,-191.2 224,-169.2 8,-169.2"/>
<text text-anchor="start" x="28" y="-176.3" font-family="Helvetica,sans-Serif" font-size="11.00" fill="#000000">first_name</text>
<polygon fill="#ffffff" stroke="transparent" points="8,-147.2 8,-169.2 224,-169.2 224,-147.2 8,-147.2"/>
<polygon fill="none" stroke="#000000" points="8,-147.2 8,-169.2 224,-169.2 224,-147.2 8,-147.2"/>
<text text-anchor="start" x="28" y="-154.3" font-family="Helvetica,sans-Serif" font-size="11.00" fill="#000000">last_name</text>
<polygon fill="#ffffff" stroke="transparent" points="8,-125.2 8,-147.2 224,-147.2 224,-125.2 8,-125.2"/>
<polygon fill="none" stroke="#000000" points="8,-125.2 8,-147.2 224,-147.2 224,-125.2 8,-125.2"/>
<text text-anchor="start" x="28" y="-132.3" font-family="Helvetica,sans-Serif" font-size="11.00" fill="#000000">status</text>
<polygon fill="#c0c0c0" stroke="transparent" points="8,-103.2 8,-125.2 224,-125.2 224,-103.2 8,-103.2"/>
<polygon fill="none" stroke="#000000" points="8,-103.2 8,-125.2 224,-125.2 224,-103.2 8,-103.2"/>
<image xlink:href="../../images/foreignKeys.png" width="11px" height="12px" preserveAspectRatio="xMinYMin meet" x="13" y="-120.2"/>
<text text-anchor="start" x="28" y="-110.3" font-family="Helvetica,sans-Serif" font-size="11.00" fill="#000000">reports_to_id</text>
<polygon fill="#ffffff" stroke="transparent" points="8,-81.2 8,-103.2 224,-103.2 224,-81.2 8,-81.2"/>
<polygon fill="none" stroke="#000000" points="8,-81.2 8,-103.2 224,-103.2 224,-81.2 8,-81.2"/>
<text text-anchor="start" x="28" y="-88.3" font-family="Helvetica,sans-Serif" font-size="11.00" fill="#000000">is_group</text>
<polygon fill="none" stroke="#000000" points="8,-62.2 8,-81.2 224,-81.2 224,-62.2 8,-62.2"/>
<text text-anchor="start" x="11" y="-68.3" font-family="Helvetica,sans-Serif" font-size="11.00" fill="#000000">...</text>
<polygon fill="#ffffff" stroke="transparent" points="8,-43.2 8,-62.2 104,-62.2 104,-43.2 8,-43.2"/>
<polygon fill="none" stroke="#000000" points="8,-43.2 8,-62.2 104,-62.2 104,-43.2 8,-43.2"/>
<text text-anchor="start" x="11" y="-49.3" font-family="Helvetica,sans-Serif" font-size="11.00" fill="#000000">&lt; 2</text>
<polygon fill="#ffffff" stroke="transparent" points="104,-43.2 104,-62.2 153,-62.2 153,-43.2 104,-43.2"/>
<polygon fill="none" stroke="#000000" points="104,-43.2 104,-62.2 153,-62.2 153,-43.2 104,-43.2"/>
<text text-anchor="start" x="143.8862" y="-49.3" font-family="Helvetica,sans-Serif" font-size="11.00" fill="#000000"> &#160;</text>
<polygon fill="#ffffff" stroke="transparent" points="153,-43.2 153,-62.2 224,-62.2 224,-43.2 153,-43.2"/>
<polygon fill="none" stroke="#000000" points="153,-43.2 153,-62.2 224,-62.2 224,-43.2 153,-43.2"/>
<text text-anchor="start" x="193.1755" y="-49.3" font-family="Helvetica,sans-Serif" font-size="11.00" fill="#000000">214 &gt;</text>
</a>
</g>
</g>
<!-- jjwg_areas&#45;&gt;users -->
<g id="edge1" class="edge">
<title>jjwg_areas:w&#45;&gt;users:e</title>
<path fill="none" stroke="#000000" d="M261.0846,-162.9466C243.902,-178.0798 254.9886,-224.2 224,-224.2"/>
<polygon fill="#000000" stroke="#000000" points="267.4284,-160.7827 276.1622,-161.6072 271.2142,-159.4914 275,-158.2 275,-158.2 275,-158.2 271.2142,-159.4914 273.8378,-154.7928 267.4284,-160.7827 267.4284,-160.7827"/>
<ellipse fill="none" stroke="#000000" cx="264.3997" cy="-161.8158" rx="3.2" ry="3.2"/>
</g>
<!-- jjwg_areas&#45;&gt;users -->
<g id="edge2" class="edge">
<title>jjwg_areas:w&#45;&gt;users:e</title>
<path fill="none" stroke="#000000" d="M260.276,-224.2C248.2815,-224.2 240.8229,-224.2 224,-224.2"/>
<polygon fill="#000000" stroke="#000000" points="267,-224.2001 275,-227.8 271,-224.2 275,-224.2 275,-224.2 275,-224.2 271,-224.2 275,-220.6 267,-224.2001 267,-224.2001"/>
<ellipse fill="none" stroke="#000000" cx="263.8" cy="-224.2001" rx="3.2" ry="3.2"/>
</g>
<!-- jjwg_areas&#45;&gt;users -->
<g id="edge3" class="edge">
<title>jjwg_areas:w&#45;&gt;users:e</title>
<path fill="none" stroke="#000000" d="M260.8489,-243.141C248.2843,-237.096 242.9,-224.2 224,-224.2"/>
<polygon fill="#000000" stroke="#000000" points="267.1806,-244.5097 274.2393,-249.7187 271.0903,-245.3548 275,-246.2 275,-246.2 275,-246.2 271.0903,-245.3548 275.7607,-242.6813 267.1806,-244.5097 267.1806,-244.5097"/>
<ellipse fill="none" stroke="#000000" cx="264.0528" cy="-243.8335" rx="3.2" ry="3.2"/>
</g>
<!-- jjwg_areas_audit -->
<g id="node3" class="node">
<title>jjwg_areas_audit</title>
<g id="a_node3"><a xlink:href="../../tables/jjwg_areas_audit.html" xlink:title="jjwg_areas_audit" target="_top">
<polygon fill="#ffffff" stroke="transparent" points="560.5,-433.7 560.5,-538.7 714.5,-538.7 714.5,-433.7 560.5,-433.7"/>
<polygon fill="#f5f5f5" stroke="transparent" points="560.5,-515.2 560.5,-538.2 714.5,-538.2 714.5,-515.2 560.5,-515.2"/>
<polygon fill="none" stroke="#000000" points="560.5,-515.2 560.5,-538.2 714.5,-538.2 714.5,-515.2 560.5,-515.2"/>
<text text-anchor="start" x="565.5" y="-524.3" font-family="Helvetica,sans-Serif" font-weight="bold" font-size="11.00" fill="#000000">jjwg_areas_audit</text>
<text text-anchor="start" x="679.5437" y="-523.3" font-family="Helvetica,sans-Serif" font-size="11.00" fill="#000000">[table]</text>
<polygon fill="none" stroke="#000000" points="560.5,-493.2 560.5,-515.2 714.5,-515.2 714.5,-493.2 560.5,-493.2"/>
<image xlink:href="../../images/primaryKeys.png" width="11px" height="12px" preserveAspectRatio="xMinYMin meet" x="565.5" y="-510.2"/>
<text text-anchor="start" x="580.5" y="-500.3" font-family="Helvetica,sans-Serif" font-size="11.00" fill="#000000">id</text>
<polygon fill="#c0c0c0" stroke="transparent" points="560.5,-471.2 560.5,-493.2 714.5,-493.2 714.5,-471.2 560.5,-471.2"/>
<polygon fill="none" stroke="#000000" points="560.5,-471.2 560.5,-493.2 714.5,-493.2 714.5,-471.2 560.5,-471.2"/>
<image xlink:href="../../images/foreignKeys.png" width="11px" height="12px" preserveAspectRatio="xMinYMin meet" x="565.5" y="-488.2"/>
<text text-anchor="start" x="580.5" y="-478.3" font-family="Helvetica,sans-Serif" font-size="11.00" fill="#000000">parent_id</text>
<polygon fill="none" stroke="#000000" points="560.5,-452.2 560.5,-471.2 714.5,-471.2 714.5,-452.2 560.5,-452.2"/>
<text text-anchor="start" x="563.5" y="-458.3" font-family="Helvetica,sans-Serif" font-size="11.00" fill="#000000">...</text>
<polygon fill="#ffffff" stroke="transparent" points="560.5,-433.2 560.5,-452.2 635.5,-452.2 635.5,-433.2 560.5,-433.2"/>
<polygon fill="none" stroke="#000000" points="560.5,-433.2 560.5,-452.2 635.5,-452.2 635.5,-433.2 560.5,-433.2"/>
<text text-anchor="start" x="563.5" y="-439.3" font-family="Helvetica,sans-Serif" font-size="11.00" fill="#000000">&lt; 1</text>
<polygon fill="#ffffff" stroke="transparent" points="635.5,-433.2 635.5,-452.2 674.5,-452.2 674.5,-433.2 635.5,-433.2"/>
<polygon fill="none" stroke="#000000" points="635.5,-433.2 635.5,-452.2 674.5,-452.2 674.5,-433.2 635.5,-433.2"/>
<text text-anchor="start" x="665.3862" y="-439.3" font-family="Helvetica,sans-Serif" font-size="11.00" fill="#000000"> &#160;</text>
<polygon fill="#ffffff" stroke="transparent" points="674.5,-433.2 674.5,-452.2 714.5,-452.2 714.5,-433.2 674.5,-433.2"/>
<polygon fill="none" stroke="#000000" points="674.5,-433.2 674.5,-452.2 714.5,-452.2 714.5,-433.2 674.5,-433.2"/>
<text text-anchor="start" x="705.3862" y="-439.3" font-family="Helvetica,sans-Serif" font-size="11.00" fill="#000000"> &#160;</text>
</a>
</g>
</g>
<!-- jjwg_areas_audit&#45;&gt;jjwg_areas -->
<g id="edge4" class="edge">
<title>jjwg_areas_audit:w&#45;&gt;jjwg_areas:e</title>
<path fill="none" stroke="#000000" d="M546.2601,-479.993C493.9913,-461.5823 547.0667,-334.2 477,-334.2"/>
<polygon fill="#000000" stroke="#000000" points="552.5944,-480.9747 559.9486,-485.7575 556.5472,-481.5873 560.5,-482.2 560.5,-482.2 560.5,-482.2 556.5472,-481.5873 561.0514,-478.6425 552.5944,-480.9747 552.5944,-480.9747"/>
<ellipse fill="none" stroke="#000000" cx="549.4321" cy="-480.4846" rx="3.2" ry="3.2"/>
</g>
<!-- jjwg_maps_jjwg_areas_c -->
<g id="node4" class="node">
<title>jjwg_maps_jjwg_areas_c</title>
<g id="a_node4"><a xlink:href="../../tables/jjwg_maps_jjwg_areas_c.html" xlink:title="jjwg_maps_jjwg_areas_c" target="_top">
<polygon fill="#ffffff" stroke="transparent" points="528,-285.7 528,-412.7 747,-412.7 747,-285.7 528,-285.7"/>
<polygon fill="#f5f5f5" stroke="transparent" points="528.5,-389.2 528.5,-412.2 747.5,-412.2 747.5,-389.2 528.5,-389.2"/>
<polygon fill="none" stroke="#000000" points="528.5,-389.2 528.5,-412.2 747.5,-412.2 747.5,-389.2 528.5,-389.2"/>
<text text-anchor="start" x="533.5" y="-398.3" font-family="Helvetica,sans-Serif" font-weight="bold" font-size="11.00" fill="#000000">jjwg_maps_jjwg_areas_c</text>
<text text-anchor="start" x="712.5437" y="-397.3" font-family="Helvetica,sans-Serif" font-size="11.00" fill="#000000">[table]</text>
<polygon fill="none" stroke="#000000" points="528.5,-367.2 528.5,-389.2 747.5,-389.2 747.5,-367.2 528.5,-367.2"/>
<image xlink:href="../../images/primaryKeys.png" width="11px" height="12px" preserveAspectRatio="xMinYMin meet" x="533.5" y="-384.2"/>
<text text-anchor="start" x="548.5" y="-374.3" font-family="Helvetica,sans-Serif" font-size="11.00" fill="#000000">id</text>
<polygon fill="#ffffff" stroke="transparent" points="528.5,-345.2 528.5,-367.2 747.5,-367.2 747.5,-345.2 528.5,-345.2"/>
<polygon fill="none" stroke="#000000" points="528.5,-345.2 528.5,-367.2 747.5,-367.2 747.5,-345.2 528.5,-345.2"/>
<image xlink:href="../../images/foreignKeys.png" width="11px" height="12px" preserveAspectRatio="xMinYMin meet" x="533.5" y="-362.2"/>
<text text-anchor="start" x="548.5" y="-352.3" font-family="Helvetica,sans-Serif" font-size="11.00" fill="#000000">jjwg_maps_5304wg_maps_ida</text>
<polygon fill="#ffffff" stroke="transparent" points="528.5,-323.2 528.5,-345.2 747.5,-345.2 747.5,-323.2 528.5,-323.2"/>
<polygon fill="none" stroke="#000000" points="528.5,-323.2 528.5,-345.2 747.5,-345.2 747.5,-323.2 528.5,-323.2"/>
<image xlink:href="../../images/foreignKeys.png" width="11px" height="12px" preserveAspectRatio="xMinYMin meet" x="533.5" y="-340.2"/>
<text text-anchor="start" x="548.5" y="-330.3" font-family="Helvetica,sans-Serif" font-size="11.00" fill="#000000">jjwg_maps_41f2g_areas_idb</text>
<polygon fill="none" stroke="#000000" points="528.5,-304.2 528.5,-323.2 747.5,-323.2 747.5,-304.2 528.5,-304.2"/>
<text text-anchor="start" x="531.5" y="-310.3" font-family="Helvetica,sans-Serif" font-size="11.00" fill="#000000">...</text>
<polygon fill="#ffffff" stroke="transparent" points="528.5,-285.2 528.5,-304.2 636.5,-304.2 636.5,-285.2 528.5,-285.2"/>
<polygon fill="none" stroke="#000000" points="528.5,-285.2 528.5,-304.2 636.5,-304.2 636.5,-285.2 528.5,-285.2"/>
<text text-anchor="start" x="531.5" y="-291.3" font-family="Helvetica,sans-Serif" font-size="11.00" fill="#000000">&lt; 2</text>
<polygon fill="#ffffff" stroke="transparent" points="636.5,-285.2 636.5,-304.2 691.5,-304.2 691.5,-285.2 636.5,-285.2"/>
<polygon fill="none" stroke="#000000" points="636.5,-285.2 636.5,-304.2 691.5,-304.2 691.5,-285.2 636.5,-285.2"/>
<text text-anchor="start" x="682.3862" y="-291.3" font-family="Helvetica,sans-Serif" font-size="11.00" fill="#000000"> &#160;</text>
<polygon fill="#ffffff" stroke="transparent" points="691.5,-285.2 691.5,-304.2 747.5,-304.2 747.5,-285.2 691.5,-285.2"/>
<polygon fill="none" stroke="#000000" points="691.5,-285.2 691.5,-304.2 747.5,-304.2 747.5,-285.2 691.5,-285.2"/>
<text text-anchor="start" x="738.3862" y="-291.3" font-family="Helvetica,sans-Serif" font-size="11.00" fill="#000000"> &#160;</text>
</a>
</g>
</g>
<!-- jjwg_maps_jjwg_areas_c&#45;&gt;jjwg_areas -->
<g id="edge5" class="edge">
<title>jjwg_maps_jjwg_areas_c:w&#45;&gt;jjwg_areas:e</title>
<path fill="none" stroke="#000000" d="M514.0156,-334.2C501.6771,-334.2 494.1667,-334.2 477,-334.2"/>
<polygon fill="#000000" stroke="#000000" points="520.5,-334.2001 528.5,-337.8 524.5,-334.2 528.5,-334.2 528.5,-334.2 528.5,-334.2 524.5,-334.2 528.5,-330.6 520.5,-334.2001 520.5,-334.2001"/>
<ellipse fill="none" stroke="#000000" cx="517.3" cy="-334.2001" rx="3.2" ry="3.2"/>
</g>
<!-- securitygroups_records -->
<g id="node5" class="node">
<title>securitygroups_records</title>
<g id="a_node5"><a xlink:href="../../tables/securitygroups_records.html" xlink:title="securitygroups_records" target="_top">
<polygon fill="#ffffff" stroke="transparent" points="548,-93.7 548,-264.7 727,-264.7 727,-93.7 548,-93.7"/>
<polygon fill="#f5f5f5" stroke="transparent" points="548.5,-241.2 548.5,-264.2 727.5,-264.2 727.5,-241.2 548.5,-241.2"/>
<polygon fill="none" stroke="#000000" points="548.5,-241.2 548.5,-264.2 727.5,-264.2 727.5,-241.2 548.5,-241.2"/>
<text text-anchor="start" x="553.5" y="-250.3" font-family="Helvetica,sans-Serif" font-weight="bold" font-size="11.00" fill="#000000">securitygroups_records</text>
<text text-anchor="start" x="692.5437" y="-249.3" font-family="Helvetica,sans-Serif" font-size="11.00" fill="#000000">[table]</text>
<polygon fill="none" stroke="#000000" points="548.5,-219.2 548.5,-241.2 727.5,-241.2 727.5,-219.2 548.5,-219.2"/>
<image xlink:href="../../images/primaryKeys.png" width="11px" height="12px" preserveAspectRatio="xMinYMin meet" x="553.5" y="-236.2"/>
<text text-anchor="start" x="568.5" y="-226.3" font-family="Helvetica,sans-Serif" font-size="11.00" fill="#000000">id</text>
<polygon fill="#ffffff" stroke="transparent" points="548.5,-197.2 548.5,-219.2 727.5,-219.2 727.5,-197.2 548.5,-197.2"/>
<polygon fill="none" stroke="#000000" points="548.5,-197.2 548.5,-219.2 727.5,-219.2 727.5,-197.2 548.5,-197.2"/>
<image xlink:href="../../images/foreignKeys.png" width="11px" height="12px" preserveAspectRatio="xMinYMin meet" x="553.5" y="-214.2"/>
<text text-anchor="start" x="568.5" y="-204.3" font-family="Helvetica,sans-Serif" font-size="11.00" fill="#000000">securitygroup_id</text>
<polygon fill="#ffffff" stroke="transparent" points="548.5,-175.2 548.5,-197.2 727.5,-197.2 727.5,-175.2 548.5,-175.2"/>
<polygon fill="none" stroke="#000000" points="548.5,-175.2 548.5,-197.2 727.5,-197.2 727.5,-175.2 548.5,-175.2"/>
<image xlink:href="../../images/foreignKeys.png" width="11px" height="12px" preserveAspectRatio="xMinYMin meet" x="553.5" y="-192.2"/>
<text text-anchor="start" x="568.5" y="-182.3" font-family="Helvetica,sans-Serif" font-size="11.00" fill="#000000">record_id</text>
<polygon fill="#ffffff" stroke="transparent" points="548.5,-153.2 548.5,-175.2 727.5,-175.2 727.5,-153.2 548.5,-153.2"/>
<polygon fill="none" stroke="#000000" points="548.5,-153.2 548.5,-175.2 727.5,-175.2 727.5,-153.2 548.5,-153.2"/>
<text text-anchor="start" x="568.5" y="-160.3" font-family="Helvetica,sans-Serif" font-size="11.00" fill="#000000">module</text>
<polygon fill="#ffffff" stroke="transparent" points="548.5,-131.2 548.5,-153.2 727.5,-153.2 727.5,-131.2 548.5,-131.2"/>
<polygon fill="none" stroke="#000000" points="548.5,-131.2 548.5,-153.2 727.5,-153.2 727.5,-131.2 548.5,-131.2"/>
<text text-anchor="start" x="568.5" y="-138.3" font-family="Helvetica,sans-Serif" font-size="11.00" fill="#000000">deleted</text>
<polygon fill="none" stroke="#000000" points="548.5,-112.2 548.5,-131.2 727.5,-131.2 727.5,-112.2 548.5,-112.2"/>
<text text-anchor="start" x="551.5" y="-118.3" font-family="Helvetica,sans-Serif" font-size="11.00" fill="#000000">...</text>
<polygon fill="#ffffff" stroke="transparent" points="548.5,-93.2 548.5,-112.2 639.5,-112.2 639.5,-93.2 548.5,-93.2"/>
<polygon fill="none" stroke="#000000" points="548.5,-93.2 548.5,-112.2 639.5,-112.2 639.5,-93.2 548.5,-93.2"/>
<text text-anchor="start" x="551.5" y="-99.3" font-family="Helvetica,sans-Serif" font-size="11.00" fill="#000000">&lt; 41</text>
<polygon fill="#ffffff" stroke="transparent" points="639.5,-93.2 639.5,-112.2 683.5,-112.2 683.5,-93.2 639.5,-93.2"/>
<polygon fill="none" stroke="#000000" points="639.5,-93.2 639.5,-112.2 683.5,-112.2 683.5,-93.2 639.5,-93.2"/>
<text text-anchor="start" x="674.3862" y="-99.3" font-family="Helvetica,sans-Serif" font-size="11.00" fill="#000000"> &#160;</text>
<polygon fill="#ffffff" stroke="transparent" points="683.5,-93.2 683.5,-112.2 727.5,-112.2 727.5,-93.2 683.5,-93.2"/>
<polygon fill="none" stroke="#000000" points="683.5,-93.2 683.5,-112.2 727.5,-112.2 727.5,-93.2 683.5,-93.2"/>
<text text-anchor="start" x="718.3862" y="-99.3" font-family="Helvetica,sans-Serif" font-size="11.00" fill="#000000"> &#160;</text>
</a>
</g>
</g>
<!-- securitygroups_records&#45;&gt;jjwg_areas -->
<g id="edge6" class="edge">
<title>securitygroups_records:w&#45;&gt;jjwg_areas:e</title>
<path fill="none" stroke="#000000" d="M534.2462,-188.6453C485.957,-207.8882 544.4872,-334.2 477,-334.2"/>
<polygon fill="#000000" stroke="#000000" points="540.6152,-187.5527 549.1087,-189.7482 544.5576,-186.8764 548.5,-186.2 548.5,-186.2 548.5,-186.2 544.5576,-186.8764 547.8913,-182.6518 540.6152,-187.5527 540.6152,-187.5527"/>
<ellipse fill="none" stroke="#000000" cx="537.4613" cy="-188.0938" rx="3.2" ry="3.2"/>
</g>
</g>
</svg>
