<?xml version="1.0" encoding="UTF-8" standalone="no"?>
<!DOCTYPE svg PUBLIC "-//W3C//DTD SVG 1.1//EN"
 "http://www.w3.org/Graphics/SVG/1.1/DTD/svg11.dtd">
<!-- Generated by graphviz version 2.40.1 (20161225.0304)
 -->
<!-- Title: oneDegreeRelationshipsDiagram Pages: 1 -->
<svg width="763pt" height="595pt"
 viewBox="0.00 0.00 763.00 594.70" xmlns="http://www.w3.org/2000/svg" xmlns:xlink="http://www.w3.org/1999/xlink">
<g id="graph0" class="graph" transform="scale(1 1) rotate(0) translate(4 590.7)">
<title>oneDegreeRelationshipsDiagram</title>
<polygon fill="#ffffff" stroke="transparent" points="-4,4 -4,-590.7 759,-590.7 759,4 -4,4"/>
<text text-anchor="middle" x="72.4936" y="-7.3" font-family="Helvetica,sans-Serif" font-size="11.00" fill="#000000">Generated by SchemaSpy</text>
<!-- jjwg_maps_jjwg_markers_c -->
<g id="node1" class="node">
<title>jjwg_maps_jjwg_markers_c</title>
<g id="a_node1"><a xlink:href="../../tables/jjwg_maps_jjwg_markers_c.html" xlink:title="jjwg_maps_jjwg_markers_c" target="_top">
<polygon fill="#ffffff" stroke="transparent" points="528,-455.7 528,-582.7 747,-582.7 747,-455.7 528,-455.7"/>
<polygon fill="#f5f5f5" stroke="transparent" points="528.5,-559.2 528.5,-582.2 747.5,-582.2 747.5,-559.2 528.5,-559.2"/>
<polygon fill="none" stroke="#000000" points="528.5,-559.2 528.5,-582.2 747.5,-582.2 747.5,-559.2 528.5,-559.2"/>
<text text-anchor="start" x="533.5" y="-568.3" font-family="Helvetica,sans-Serif" font-weight="bold" font-size="11.00" fill="#000000">jjwg_maps_jjwg_markers_c</text>
<text text-anchor="start" x="712.5437" y="-567.3" font-family="Helvetica,sans-Serif" font-size="11.00" fill="#000000">[table]</text>
<polygon fill="none" stroke="#000000" points="528.5,-537.2 528.5,-559.2 747.5,-559.2 747.5,-537.2 528.5,-537.2"/>
<image xlink:href="../../images/primaryKeys.png" width="11px" height="12px" preserveAspectRatio="xMinYMin meet" x="533.5" y="-554.2"/>
<text text-anchor="start" x="548.5" y="-544.3" font-family="Helvetica,sans-Serif" font-size="11.00" fill="#000000">id</text>
<polygon fill="#ffffff" stroke="transparent" points="528.5,-515.2 528.5,-537.2 747.5,-537.2 747.5,-515.2 528.5,-515.2"/>
<polygon fill="none" stroke="#000000" points="528.5,-515.2 528.5,-537.2 747.5,-537.2 747.5,-515.2 528.5,-515.2"/>
<image xlink:href="../../images/foreignKeys.png" width="11px" height="12px" preserveAspectRatio="xMinYMin meet" x="533.5" y="-532.2"/>
<text text-anchor="start" x="548.5" y="-522.3" font-family="Helvetica,sans-Serif" font-size="11.00" fill="#000000">jjwg_maps_b229wg_maps_ida</text>
<polygon fill="#ffffff" stroke="transparent" points="528.5,-493.2 528.5,-515.2 747.5,-515.2 747.5,-493.2 528.5,-493.2"/>
<polygon fill="none" stroke="#000000" points="528.5,-493.2 528.5,-515.2 747.5,-515.2 747.5,-493.2 528.5,-493.2"/>
<image xlink:href="../../images/foreignKeys.png" width="11px" height="12px" preserveAspectRatio="xMinYMin meet" x="533.5" y="-510.2"/>
<text text-anchor="start" x="548.5" y="-500.3" font-family="Helvetica,sans-Serif" font-size="11.00" fill="#000000">jjwg_maps_2e31markers_idb</text>
<polygon fill="none" stroke="#000000" points="528.5,-474.2 528.5,-493.2 747.5,-493.2 747.5,-474.2 528.5,-474.2"/>
<text text-anchor="start" x="531.5" y="-480.3" font-family="Helvetica,sans-Serif" font-size="11.00" fill="#000000">...</text>
<polygon fill="#ffffff" stroke="transparent" points="528.5,-455.2 528.5,-474.2 636.5,-474.2 636.5,-455.2 528.5,-455.2"/>
<polygon fill="none" stroke="#000000" points="528.5,-455.2 528.5,-474.2 636.5,-474.2 636.5,-455.2 528.5,-455.2"/>
<text text-anchor="start" x="531.5" y="-461.3" font-family="Helvetica,sans-Serif" font-size="11.00" fill="#000000">&lt; 2</text>
<polygon fill="#ffffff" stroke="transparent" points="636.5,-455.2 636.5,-474.2 691.5,-474.2 691.5,-455.2 636.5,-455.2"/>
<polygon fill="none" stroke="#000000" points="636.5,-455.2 636.5,-474.2 691.5,-474.2 691.5,-455.2 636.5,-455.2"/>
<text text-anchor="start" x="682.3862" y="-461.3" font-family="Helvetica,sans-Serif" font-size="11.00" fill="#000000"> &#160;</text>
<polygon fill="#ffffff" stroke="transparent" points="691.5,-455.2 691.5,-474.2 747.5,-474.2 747.5,-455.2 691.5,-455.2"/>
<polygon fill="none" stroke="#000000" points="691.5,-455.2 691.5,-474.2 747.5,-474.2 747.5,-455.2 691.5,-455.2"/>
<text text-anchor="start" x="738.3862" y="-461.3" font-family="Helvetica,sans-Serif" font-size="11.00" fill="#000000"> &#160;</text>
</a>
</g>
</g>
<!-- jjwg_markers -->
<g id="node2" class="node">
<title>jjwg_markers</title>
<g id="a_node2"><a xlink:href="../../tables/jjwg_markers.html" xlink:title="jjwg_markers" target="_top">
<polygon fill="#ffffff" stroke="transparent" points="273,-38.2 273,-414.2 479,-414.2 479,-38.2 273,-38.2"/>
<polygon fill="#f5f5f5" stroke="transparent" points="275,-389.2 275,-412.2 477,-412.2 477,-389.2 275,-389.2"/>
<polygon fill="none" stroke="#000000" points="275,-389.2 275,-412.2 477,-412.2 477,-389.2 275,-389.2"/>
<text text-anchor="start" x="280" y="-398.3" font-family="Helvetica,sans-Serif" font-weight="bold" font-size="11.00" fill="#000000">jjwg_markers</text>
<text text-anchor="start" x="442.0437" y="-397.3" font-family="Helvetica,sans-Serif" font-size="11.00" fill="#000000">[table]</text>
<polygon fill="none" stroke="#000000" points="275,-367.2 275,-389.2 410,-389.2 410,-367.2 275,-367.2"/>
<image xlink:href="../../images/primaryKeys.png" width="11px" height="12px" preserveAspectRatio="xMinYMin meet" x="280" y="-384.2"/>
<text text-anchor="start" x="295" y="-374.3" font-family="Helvetica,sans-Serif" font-size="11.00" fill="#000000">id</text>
<polygon fill="none" stroke="#000000" points="410,-367.2 410,-389.2 477,-389.2 477,-367.2 410,-367.2"/>
<text text-anchor="start" x="413" y="-374.9" font-family="Helvetica,sans-Serif" font-size="11.00" fill="#000000">char[36]</text>
<polygon fill="none" stroke="#000000" points="275,-345.2 275,-367.2 410,-367.2 410,-345.2 275,-345.2"/>
<text text-anchor="start" x="295" y="-352.3" font-family="Helvetica,sans-Serif" font-size="11.00" fill="#000000">name</text>
<polygon fill="none" stroke="#000000" points="410,-345.2 410,-367.2 477,-367.2 477,-345.2 410,-345.2"/>
<text text-anchor="start" x="412.9365" y="-352.9" font-family="Helvetica,sans-Serif" font-size="11.00" fill="#000000">varchar[255]</text>
<polygon fill="none" stroke="#000000" points="275,-323.2 275,-345.2 410,-345.2 410,-323.2 275,-323.2"/>
<text text-anchor="start" x="295" y="-330.3" font-family="Helvetica,sans-Serif" font-size="11.00" fill="#000000">date_entered</text>
<polygon fill="none" stroke="#000000" points="410,-323.2 410,-345.2 477,-345.2 477,-323.2 410,-323.2"/>
<text text-anchor="start" x="413" y="-330.9" font-family="Helvetica,sans-Serif" font-size="11.00" fill="#000000">datetime[26]</text>
<polygon fill="none" stroke="#000000" points="275,-301.2 275,-323.2 410,-323.2 410,-301.2 275,-301.2"/>
<text text-anchor="start" x="295" y="-308.3" font-family="Helvetica,sans-Serif" font-size="11.00" fill="#000000">date_modified</text>
<polygon fill="none" stroke="#000000" points="410,-301.2 410,-323.2 477,-323.2 477,-301.2 410,-301.2"/>
<text text-anchor="start" x="413" y="-308.9" font-family="Helvetica,sans-Serif" font-size="11.00" fill="#000000">datetime[26]</text>
<polygon fill="none" stroke="#000000" points="275,-279.2 275,-301.2 410,-301.2 410,-279.2 275,-279.2"/>
<image xlink:href="../../images/foreignKeys.png" width="11px" height="12px" preserveAspectRatio="xMinYMin meet" x="280" y="-296.2"/>
<text text-anchor="start" x="295" y="-286.3" font-family="Helvetica,sans-Serif" font-size="11.00" fill="#000000">modified_user_id</text>
<polygon fill="none" stroke="#000000" points="410,-279.2 410,-301.2 477,-301.2 477,-279.2 410,-279.2"/>
<text text-anchor="start" x="413" y="-286.9" font-family="Helvetica,sans-Serif" font-size="11.00" fill="#000000">char[36]</text>
<polygon fill="none" stroke="#000000" points="275,-257.2 275,-279.2 410,-279.2 410,-257.2 275,-257.2"/>
<image xlink:href="../../images/foreignKeys.png" width="11px" height="12px" preserveAspectRatio="xMinYMin meet" x="280" y="-274.2"/>
<text text-anchor="start" x="295" y="-264.3" font-family="Helvetica,sans-Serif" font-size="11.00" fill="#000000">created_by</text>
<polygon fill="none" stroke="#000000" points="410,-257.2 410,-279.2 477,-279.2 477,-257.2 410,-257.2"/>
<text text-anchor="start" x="413" y="-264.9" font-family="Helvetica,sans-Serif" font-size="11.00" fill="#000000">char[36]</text>
<polygon fill="none" stroke="#000000" points="275,-235.2 275,-257.2 410,-257.2 410,-235.2 275,-235.2"/>
<text text-anchor="start" x="295" y="-242.3" font-family="Helvetica,sans-Serif" font-size="11.00" fill="#000000">description</text>
<polygon fill="none" stroke="#000000" points="410,-235.2 410,-257.2 477,-257.2 477,-235.2 410,-235.2"/>
<text text-anchor="start" x="413" y="-242.9" font-family="Helvetica,sans-Serif" font-size="11.00" fill="#000000">text[65535]</text>
<polygon fill="none" stroke="#000000" points="275,-213.2 275,-235.2 410,-235.2 410,-213.2 275,-213.2"/>
<text text-anchor="start" x="295" y="-220.3" font-family="Helvetica,sans-Serif" font-size="11.00" fill="#000000">deleted</text>
<polygon fill="none" stroke="#000000" points="410,-213.2 410,-235.2 477,-235.2 477,-213.2 410,-213.2"/>
<text text-anchor="start" x="413" y="-220.9" font-family="Helvetica,sans-Serif" font-size="11.00" fill="#000000">bit[1]</text>
<polygon fill="none" stroke="#000000" points="275,-191.2 275,-213.2 410,-213.2 410,-191.2 275,-191.2"/>
<image xlink:href="../../images/foreignKeys.png" width="11px" height="12px" preserveAspectRatio="xMinYMin meet" x="280" y="-208.2"/>
<text text-anchor="start" x="295" y="-198.3" font-family="Helvetica,sans-Serif" font-size="11.00" fill="#000000">assigned_user_id</text>
<polygon fill="none" stroke="#000000" points="410,-191.2 410,-213.2 477,-213.2 477,-191.2 410,-191.2"/>
<text text-anchor="start" x="413" y="-198.9" font-family="Helvetica,sans-Serif" font-size="11.00" fill="#000000">char[36]</text>
<polygon fill="none" stroke="#000000" points="275,-169.2 275,-191.2 410,-191.2 410,-169.2 275,-169.2"/>
<text text-anchor="start" x="295" y="-176.3" font-family="Helvetica,sans-Serif" font-size="11.00" fill="#000000">city</text>
<polygon fill="none" stroke="#000000" points="410,-169.2 410,-191.2 477,-191.2 477,-169.2 410,-169.2"/>
<text text-anchor="start" x="412.9365" y="-176.9" font-family="Helvetica,sans-Serif" font-size="11.00" fill="#000000">varchar[255]</text>
<polygon fill="none" stroke="#000000" points="275,-147.2 275,-169.2 410,-169.2 410,-147.2 275,-147.2"/>
<text text-anchor="start" x="295" y="-154.3" font-family="Helvetica,sans-Serif" font-size="11.00" fill="#000000">state</text>
<polygon fill="none" stroke="#000000" points="410,-147.2 410,-169.2 477,-169.2 477,-147.2 410,-147.2"/>
<text text-anchor="start" x="412.9365" y="-154.9" font-family="Helvetica,sans-Serif" font-size="11.00" fill="#000000">varchar[255]</text>
<polygon fill="none" stroke="#000000" points="275,-125.2 275,-147.2 410,-147.2 410,-125.2 275,-125.2"/>
<text text-anchor="start" x="295" y="-132.3" font-family="Helvetica,sans-Serif" font-size="11.00" fill="#000000">country</text>
<polygon fill="none" stroke="#000000" points="410,-125.2 410,-147.2 477,-147.2 477,-125.2 410,-125.2"/>
<text text-anchor="start" x="412.9365" y="-132.9" font-family="Helvetica,sans-Serif" font-size="11.00" fill="#000000">varchar[255]</text>
<polygon fill="none" stroke="#000000" points="275,-103.2 275,-125.2 410,-125.2 410,-103.2 275,-103.2"/>
<text text-anchor="start" x="295" y="-110.3" font-family="Helvetica,sans-Serif" font-size="11.00" fill="#000000">jjwg_maps_lat</text>
<polygon fill="none" stroke="#000000" points="410,-103.2 410,-125.2 477,-125.2 477,-103.2 410,-103.2"/>
<text text-anchor="start" x="413" y="-110.9" font-family="Helvetica,sans-Serif" font-size="11.00" fill="#000000">float[10,8]</text>
<polygon fill="none" stroke="#000000" points="275,-81.2 275,-103.2 410,-103.2 410,-81.2 275,-81.2"/>
<text text-anchor="start" x="295" y="-88.3" font-family="Helvetica,sans-Serif" font-size="11.00" fill="#000000">jjwg_maps_lng</text>
<polygon fill="none" stroke="#000000" points="410,-81.2 410,-103.2 477,-103.2 477,-81.2 410,-81.2"/>
<text text-anchor="start" x="413" y="-88.9" font-family="Helvetica,sans-Serif" font-size="11.00" fill="#000000">float[11,8]</text>
<polygon fill="none" stroke="#000000" points="275,-59.2 275,-81.2 410,-81.2 410,-59.2 275,-59.2"/>
<text text-anchor="start" x="295" y="-66.3" font-family="Helvetica,sans-Serif" font-size="11.00" fill="#000000">marker_image</text>
<polygon fill="none" stroke="#000000" points="410,-59.2 410,-81.2 477,-81.2 477,-59.2 410,-59.2"/>
<text text-anchor="start" x="412.9365" y="-66.9" font-family="Helvetica,sans-Serif" font-size="11.00" fill="#000000">varchar[100]</text>
<polygon fill="#ffffff" stroke="transparent" points="275,-40.2 275,-59.2 347,-59.2 347,-40.2 275,-40.2"/>
<polygon fill="none" stroke="#000000" points="275,-40.2 275,-59.2 347,-59.2 347,-40.2 275,-40.2"/>
<text text-anchor="start" x="278" y="-46.3" font-family="Helvetica,sans-Serif" font-size="11.00" fill="#000000">&lt; 3</text>
<polygon fill="#ffffff" stroke="transparent" points="347,-40.2 347,-59.2 410,-59.2 410,-40.2 347,-40.2"/>
<polygon fill="none" stroke="#000000" points="347,-40.2 347,-59.2 410,-59.2 410,-40.2 347,-40.2"/>
<text text-anchor="start" x="400.8862" y="-46.3" font-family="Helvetica,sans-Serif" font-size="11.00" fill="#000000"> &#160;</text>
<polygon fill="#ffffff" stroke="transparent" points="410,-40.2 410,-59.2 477,-59.2 477,-40.2 410,-40.2"/>
<polygon fill="none" stroke="#000000" points="410,-40.2 410,-59.2 477,-59.2 477,-40.2 410,-40.2"/>
<text text-anchor="start" x="458.4053" y="-46.3" font-family="Helvetica,sans-Serif" font-size="11.00" fill="#000000">3 &gt;</text>
<polygon fill="none" stroke="#000000" stroke-width="2" points="274,-39.2 274,-413.2 478,-413.2 478,-39.2 274,-39.2"/>
</a>
</g>
</g>
<!-- jjwg_maps_jjwg_markers_c&#45;&gt;jjwg_markers -->
<g id="edge1" class="edge">
<title>jjwg_maps_jjwg_markers_c:w&#45;&gt;jjwg_markers:e</title>
<path fill="none" stroke="#000000" d="M514.2532,-500.8298C480.3363,-480.7923 531.5892,-378.2 477,-378.2"/>
<polygon fill="#000000" stroke="#000000" points="520.7149,-502.3583 527.6712,-507.7033 524.6074,-503.2792 528.5,-504.2 528.5,-504.2 528.5,-504.2 524.6074,-503.2792 529.3288,-500.6967 520.7149,-502.3583 520.7149,-502.3583"/>
<ellipse fill="none" stroke="#000000" cx="517.6008" cy="-501.6217" rx="3.2" ry="3.2"/>
</g>
<!-- users -->
<g id="node3" class="node">
<title>users</title>
<g id="a_node3"><a xlink:href="../../tables/users.html" xlink:title="users" target="_top">
<polygon fill="#ffffff" stroke="transparent" points="8,-87.7 8,-302.7 224,-302.7 224,-87.7 8,-87.7"/>
<polygon fill="#f5f5f5" stroke="transparent" points="8,-279.2 8,-302.2 224,-302.2 224,-279.2 8,-279.2"/>
<polygon fill="none" stroke="#000000" points="8,-279.2 8,-302.2 224,-302.2 224,-279.2 8,-279.2"/>
<text text-anchor="start" x="13" y="-288.3" font-family="Helvetica,sans-Serif" font-weight="bold" font-size="11.00" fill="#000000">users</text>
<text text-anchor="start" x="189.0437" y="-287.3" font-family="Helvetica,sans-Serif" font-size="11.00" fill="#000000">[table]</text>
<polygon fill="none" stroke="#000000" points="8,-257.2 8,-279.2 224,-279.2 224,-257.2 8,-257.2"/>
<image xlink:href="../../images/primaryKeys.png" width="11px" height="12px" preserveAspectRatio="xMinYMin meet" x="13" y="-274.2"/>
<text text-anchor="start" x="28" y="-264.3" font-family="Helvetica,sans-Serif" font-size="11.00" fill="#000000">id</text>
<polygon fill="#ffffff" stroke="transparent" points="8,-235.2 8,-257.2 224,-257.2 224,-235.2 8,-235.2"/>
<polygon fill="none" stroke="#000000" points="8,-235.2 8,-257.2 224,-257.2 224,-235.2 8,-235.2"/>
<text text-anchor="start" x="28" y="-242.3" font-family="Helvetica,sans-Serif" font-size="11.00" fill="#000000">user_name</text>
<polygon fill="#ffffff" stroke="transparent" points="8,-213.2 8,-235.2 224,-235.2 224,-213.2 8,-213.2"/>
<polygon fill="none" stroke="#000000" points="8,-213.2 8,-235.2 224,-235.2 224,-213.2 8,-213.2"/>
<text text-anchor="start" x="28" y="-220.3" font-family="Helvetica,sans-Serif" font-size="11.00" fill="#000000">first_name</text>
<polygon fill="#ffffff" stroke="transparent" points="8,-191.2 8,-213.2 224,-213.2 224,-191.2 8,-191.2"/>
<polygon fill="none" stroke="#000000" points="8,-191.2 8,-213.2 224,-213.2 224,-191.2 8,-191.2"/>
<text text-anchor="start" x="28" y="-198.3" font-family="Helvetica,sans-Serif" font-size="11.00" fill="#000000">last_name</text>
<polygon fill="#ffffff" stroke="transparent" points="8,-169.2 8,-191.2 224,-191.2 224,-169.2 8,-169.2"/>
<polygon fill="none" stroke="#000000" points="8,-169.2 8,-191.2 224,-191.2 224,-169.2 8,-169.2"/>
<text text-anchor="start" x="28" y="-176.3" font-family="Helvetica,sans-Serif" font-size="11.00" fill="#000000">status</text>
<polygon fill="#c0c0c0" stroke="transparent" points="8,-147.2 8,-169.2 224,-169.2 224,-147.2 8,-147.2"/>
<polygon fill="none" stroke="#000000" points="8,-147.2 8,-169.2 224,-169.2 224,-147.2 8,-147.2"/>
<image xlink:href="../../images/foreignKeys.png" width="11px" height="12px" preserveAspectRatio="xMinYMin meet" x="13" y="-164.2"/>
<text text-anchor="start" x="28" y="-154.3" font-family="Helvetica,sans-Serif" font-size="11.00" fill="#000000">reports_to_id</text>
<polygon fill="#ffffff" stroke="transparent" points="8,-125.2 8,-147.2 224,-147.2 224,-125.2 8,-125.2"/>
<polygon fill="none" stroke="#000000" points="8,-125.2 8,-147.2 224,-147.2 224,-125.2 8,-125.2"/>
<text text-anchor="start" x="28" y="-132.3" font-family="Helvetica,sans-Serif" font-size="11.00" fill="#000000">is_group</text>
<polygon fill="none" stroke="#000000" points="8,-106.2 8,-125.2 224,-125.2 224,-106.2 8,-106.2"/>
<text text-anchor="start" x="11" y="-112.3" font-family="Helvetica,sans-Serif" font-size="11.00" fill="#000000">...</text>
<polygon fill="#ffffff" stroke="transparent" points="8,-87.2 8,-106.2 104,-106.2 104,-87.2 8,-87.2"/>
<polygon fill="none" stroke="#000000" points="8,-87.2 8,-106.2 104,-106.2 104,-87.2 8,-87.2"/>
<text text-anchor="start" x="11" y="-93.3" font-family="Helvetica,sans-Serif" font-size="11.00" fill="#000000">&lt; 2</text>
<polygon fill="#ffffff" stroke="transparent" points="104,-87.2 104,-106.2 153,-106.2 153,-87.2 104,-87.2"/>
<polygon fill="none" stroke="#000000" points="104,-87.2 104,-106.2 153,-106.2 153,-87.2 104,-87.2"/>
<text text-anchor="start" x="143.8862" y="-93.3" font-family="Helvetica,sans-Serif" font-size="11.00" fill="#000000"> &#160;</text>
<polygon fill="#ffffff" stroke="transparent" points="153,-87.2 153,-106.2 224,-106.2 224,-87.2 153,-87.2"/>
<polygon fill="none" stroke="#000000" points="153,-87.2 153,-106.2 224,-106.2 224,-87.2 153,-87.2"/>
<text text-anchor="start" x="193.1755" y="-93.3" font-family="Helvetica,sans-Serif" font-size="11.00" fill="#000000">214 &gt;</text>
</a>
</g>
</g>
<!-- jjwg_markers&#45;&gt;users -->
<g id="edge2" class="edge">
<title>jjwg_markers:w&#45;&gt;users:e</title>
<path fill="none" stroke="#000000" d="M261.0846,-206.9466C243.902,-222.0798 254.9886,-268.2 224,-268.2"/>
<polygon fill="#000000" stroke="#000000" points="267.4284,-204.7827 276.1622,-205.6072 271.2142,-203.4914 275,-202.2 275,-202.2 275,-202.2 271.2142,-203.4914 273.8378,-198.7928 267.4284,-204.7827 267.4284,-204.7827"/>
<ellipse fill="none" stroke="#000000" cx="264.3997" cy="-205.8158" rx="3.2" ry="3.2"/>
</g>
<!-- jjwg_markers&#45;&gt;users -->
<g id="edge3" class="edge">
<title>jjwg_markers:w&#45;&gt;users:e</title>
<path fill="none" stroke="#000000" d="M260.276,-268.2C248.2815,-268.2 240.8229,-268.2 224,-268.2"/>
<polygon fill="#000000" stroke="#000000" points="267,-268.2001 275,-271.8 271,-268.2 275,-268.2 275,-268.2 275,-268.2 271,-268.2 275,-264.6 267,-268.2001 267,-268.2001"/>
<ellipse fill="none" stroke="#000000" cx="263.8" cy="-268.2001" rx="3.2" ry="3.2"/>
</g>
<!-- jjwg_markers&#45;&gt;users -->
<g id="edge4" class="edge">
<title>jjwg_markers:w&#45;&gt;users:e</title>
<path fill="none" stroke="#000000" d="M260.8489,-287.141C248.2843,-281.096 242.9,-268.2 224,-268.2"/>
<polygon fill="#000000" stroke="#000000" points="267.1806,-288.5097 274.2393,-293.7187 271.0903,-289.3548 275,-290.2 275,-290.2 275,-290.2 271.0903,-289.3548 275.7607,-286.6813 267.1806,-288.5097 267.1806,-288.5097"/>
<ellipse fill="none" stroke="#000000" cx="264.0528" cy="-287.8335" rx="3.2" ry="3.2"/>
</g>
<!-- jjwg_markers_audit -->
<g id="node4" class="node">
<title>jjwg_markers_audit</title>
<g id="a_node4"><a xlink:href="../../tables/jjwg_markers_audit.html" xlink:title="jjwg_markers_audit" target="_top">
<polygon fill="#ffffff" stroke="transparent" points="560.5,-329.7 560.5,-434.7 714.5,-434.7 714.5,-329.7 560.5,-329.7"/>
<polygon fill="#f5f5f5" stroke="transparent" points="560.5,-411.2 560.5,-434.2 714.5,-434.2 714.5,-411.2 560.5,-411.2"/>
<polygon fill="none" stroke="#000000" points="560.5,-411.2 560.5,-434.2 714.5,-434.2 714.5,-411.2 560.5,-411.2"/>
<text text-anchor="start" x="565.5" y="-420.3" font-family="Helvetica,sans-Serif" font-weight="bold" font-size="11.00" fill="#000000">jjwg_markers_audit</text>
<text text-anchor="start" x="679.5437" y="-419.3" font-family="Helvetica,sans-Serif" font-size="11.00" fill="#000000">[table]</text>
<polygon fill="none" stroke="#000000" points="560.5,-389.2 560.5,-411.2 714.5,-411.2 714.5,-389.2 560.5,-389.2"/>
<image xlink:href="../../images/primaryKeys.png" width="11px" height="12px" preserveAspectRatio="xMinYMin meet" x="565.5" y="-406.2"/>
<text text-anchor="start" x="580.5" y="-396.3" font-family="Helvetica,sans-Serif" font-size="11.00" fill="#000000">id</text>
<polygon fill="#c0c0c0" stroke="transparent" points="560.5,-367.2 560.5,-389.2 714.5,-389.2 714.5,-367.2 560.5,-367.2"/>
<polygon fill="none" stroke="#000000" points="560.5,-367.2 560.5,-389.2 714.5,-389.2 714.5,-367.2 560.5,-367.2"/>
<image xlink:href="../../images/foreignKeys.png" width="11px" height="12px" preserveAspectRatio="xMinYMin meet" x="565.5" y="-384.2"/>
<text text-anchor="start" x="580.5" y="-374.3" font-family="Helvetica,sans-Serif" font-size="11.00" fill="#000000">parent_id</text>
<polygon fill="none" stroke="#000000" points="560.5,-348.2 560.5,-367.2 714.5,-367.2 714.5,-348.2 560.5,-348.2"/>
<text text-anchor="start" x="563.5" y="-354.3" font-family="Helvetica,sans-Serif" font-size="11.00" fill="#000000">...</text>
<polygon fill="#ffffff" stroke="transparent" points="560.5,-329.2 560.5,-348.2 635.5,-348.2 635.5,-329.2 560.5,-329.2"/>
<polygon fill="none" stroke="#000000" points="560.5,-329.2 560.5,-348.2 635.5,-348.2 635.5,-329.2 560.5,-329.2"/>
<text text-anchor="start" x="563.5" y="-335.3" font-family="Helvetica,sans-Serif" font-size="11.00" fill="#000000">&lt; 1</text>
<polygon fill="#ffffff" stroke="transparent" points="635.5,-329.2 635.5,-348.2 674.5,-348.2 674.5,-329.2 635.5,-329.2"/>
<polygon fill="none" stroke="#000000" points="635.5,-329.2 635.5,-348.2 674.5,-348.2 674.5,-329.2 635.5,-329.2"/>
<text text-anchor="start" x="665.3862" y="-335.3" font-family="Helvetica,sans-Serif" font-size="11.00" fill="#000000"> &#160;</text>
<polygon fill="#ffffff" stroke="transparent" points="674.5,-329.2 674.5,-348.2 714.5,-348.2 714.5,-329.2 674.5,-329.2"/>
<polygon fill="none" stroke="#000000" points="674.5,-329.2 674.5,-348.2 714.5,-348.2 714.5,-329.2 674.5,-329.2"/>
<text text-anchor="start" x="705.3862" y="-335.3" font-family="Helvetica,sans-Serif" font-size="11.00" fill="#000000"> &#160;</text>
</a>
</g>
</g>
<!-- jjwg_markers_audit&#45;&gt;jjwg_markers -->
<g id="edge5" class="edge">
<title>jjwg_markers_audit:w&#45;&gt;jjwg_markers:e</title>
<path fill="none" stroke="#000000" d="M545.985,-378.2C520.1256,-378.2 508.7474,-378.2 477,-378.2"/>
<polygon fill="#000000" stroke="#000000" points="552.5,-378.2001 560.5,-381.8 556.5,-378.2 560.5,-378.2 560.5,-378.2 560.5,-378.2 556.5,-378.2 560.5,-374.6 552.5,-378.2001 552.5,-378.2001"/>
<ellipse fill="none" stroke="#000000" cx="549.3" cy="-378.2001" rx="3.2" ry="3.2"/>
</g>
<!-- securitygroups_records -->
<g id="node5" class="node">
<title>securitygroups_records</title>
<g id="a_node5"><a xlink:href="../../tables/securitygroups_records.html" xlink:title="securitygroups_records" target="_top">
<polygon fill="#ffffff" stroke="transparent" points="548,-137.7 548,-308.7 727,-308.7 727,-137.7 548,-137.7"/>
<polygon fill="#f5f5f5" stroke="transparent" points="548.5,-285.2 548.5,-308.2 727.5,-308.2 727.5,-285.2 548.5,-285.2"/>
<polygon fill="none" stroke="#000000" points="548.5,-285.2 548.5,-308.2 727.5,-308.2 727.5,-285.2 548.5,-285.2"/>
<text text-anchor="start" x="553.5" y="-294.3" font-family="Helvetica,sans-Serif" font-weight="bold" font-size="11.00" fill="#000000">securitygroups_records</text>
<text text-anchor="start" x="692.5437" y="-293.3" font-family="Helvetica,sans-Serif" font-size="11.00" fill="#000000">[table]</text>
<polygon fill="none" stroke="#000000" points="548.5,-263.2 548.5,-285.2 727.5,-285.2 727.5,-263.2 548.5,-263.2"/>
<image xlink:href="../../images/primaryKeys.png" width="11px" height="12px" preserveAspectRatio="xMinYMin meet" x="553.5" y="-280.2"/>
<text text-anchor="start" x="568.5" y="-270.3" font-family="Helvetica,sans-Serif" font-size="11.00" fill="#000000">id</text>
<polygon fill="#ffffff" stroke="transparent" points="548.5,-241.2 548.5,-263.2 727.5,-263.2 727.5,-241.2 548.5,-241.2"/>
<polygon fill="none" stroke="#000000" points="548.5,-241.2 548.5,-263.2 727.5,-263.2 727.5,-241.2 548.5,-241.2"/>
<image xlink:href="../../images/foreignKeys.png" width="11px" height="12px" preserveAspectRatio="xMinYMin meet" x="553.5" y="-258.2"/>
<text text-anchor="start" x="568.5" y="-248.3" font-family="Helvetica,sans-Serif" font-size="11.00" fill="#000000">securitygroup_id</text>
<polygon fill="#ffffff" stroke="transparent" points="548.5,-219.2 548.5,-241.2 727.5,-241.2 727.5,-219.2 548.5,-219.2"/>
<polygon fill="none" stroke="#000000" points="548.5,-219.2 548.5,-241.2 727.5,-241.2 727.5,-219.2 548.5,-219.2"/>
<image xlink:href="../../images/foreignKeys.png" width="11px" height="12px" preserveAspectRatio="xMinYMin meet" x="553.5" y="-236.2"/>
<text text-anchor="start" x="568.5" y="-226.3" font-family="Helvetica,sans-Serif" font-size="11.00" fill="#000000">record_id</text>
<polygon fill="#ffffff" stroke="transparent" points="548.5,-197.2 548.5,-219.2 727.5,-219.2 727.5,-197.2 548.5,-197.2"/>
<polygon fill="none" stroke="#000000" points="548.5,-197.2 548.5,-219.2 727.5,-219.2 727.5,-197.2 548.5,-197.2"/>
<text text-anchor="start" x="568.5" y="-204.3" font-family="Helvetica,sans-Serif" font-size="11.00" fill="#000000">module</text>
<polygon fill="#ffffff" stroke="transparent" points="548.5,-175.2 548.5,-197.2 727.5,-197.2 727.5,-175.2 548.5,-175.2"/>
<polygon fill="none" stroke="#000000" points="548.5,-175.2 548.5,-197.2 727.5,-197.2 727.5,-175.2 548.5,-175.2"/>
<text text-anchor="start" x="568.5" y="-182.3" font-family="Helvetica,sans-Serif" font-size="11.00" fill="#000000">deleted</text>
<polygon fill="none" stroke="#000000" points="548.5,-156.2 548.5,-175.2 727.5,-175.2 727.5,-156.2 548.5,-156.2"/>
<text text-anchor="start" x="551.5" y="-162.3" font-family="Helvetica,sans-Serif" font-size="11.00" fill="#000000">...</text>
<polygon fill="#ffffff" stroke="transparent" points="548.5,-137.2 548.5,-156.2 639.5,-156.2 639.5,-137.2 548.5,-137.2"/>
<polygon fill="none" stroke="#000000" points="548.5,-137.2 548.5,-156.2 639.5,-156.2 639.5,-137.2 548.5,-137.2"/>
<text text-anchor="start" x="551.5" y="-143.3" font-family="Helvetica,sans-Serif" font-size="11.00" fill="#000000">&lt; 41</text>
<polygon fill="#ffffff" stroke="transparent" points="639.5,-137.2 639.5,-156.2 683.5,-156.2 683.5,-137.2 639.5,-137.2"/>
<polygon fill="none" stroke="#000000" points="639.5,-137.2 639.5,-156.2 683.5,-156.2 683.5,-137.2 639.5,-137.2"/>
<text text-anchor="start" x="674.3862" y="-143.3" font-family="Helvetica,sans-Serif" font-size="11.00" fill="#000000"> &#160;</text>
<polygon fill="#ffffff" stroke="transparent" points="683.5,-137.2 683.5,-156.2 727.5,-156.2 727.5,-137.2 683.5,-137.2"/>
<polygon fill="none" stroke="#000000" points="683.5,-137.2 683.5,-156.2 727.5,-156.2 727.5,-137.2 683.5,-137.2"/>
<text text-anchor="start" x="718.3862" y="-143.3" font-family="Helvetica,sans-Serif" font-size="11.00" fill="#000000"> &#160;</text>
</a>
</g>
</g>
<!-- securitygroups_records&#45;&gt;jjwg_markers -->
<g id="edge6" class="edge">
<title>securitygroups_records:w&#45;&gt;jjwg_markers:e</title>
<path fill="none" stroke="#000000" d="M534.2462,-232.6453C485.957,-251.8882 544.4872,-378.2 477,-378.2"/>
<polygon fill="#000000" stroke="#000000" points="540.6152,-231.5527 549.1087,-233.7482 544.5576,-230.8764 548.5,-230.2 548.5,-230.2 548.5,-230.2 544.5576,-230.8764 547.8913,-226.6518 540.6152,-231.5527 540.6152,-231.5527"/>
<ellipse fill="none" stroke="#000000" cx="537.4613" cy="-232.0938" rx="3.2" ry="3.2"/>
</g>
</g>
</svg>
