<?xml version="1.0" encoding="UTF-8" standalone="no"?>
<!DOCTYPE svg PUBLIC "-//W3C//DTD SVG 1.1//EN"
 "http://www.w3.org/Graphics/SVG/1.1/DTD/svg11.dtd">
<!-- Generated by graphviz version 2.40.1 (20161225.0304)
 -->
<!-- Title: oneDegreeRelationshipsDiagram Pages: 1 -->
<svg width="497pt" height="391pt"
 viewBox="0.00 0.00 497.00 391.20" xmlns="http://www.w3.org/2000/svg" xmlns:xlink="http://www.w3.org/1999/xlink">
<g id="graph0" class="graph" transform="scale(1 1) rotate(0) translate(4 387.2)">
<title>oneDegreeRelationshipsDiagram</title>
<polygon fill="#ffffff" stroke="transparent" points="-4,4 -4,-387.2 493,-387.2 493,4 -4,4"/>
<text text-anchor="middle" x="72.4936" y="-7.3" font-family="Helvetica,sans-Serif" font-size="11.00" fill="#000000">Generated by SchemaSpy</text>
<!-- jjwg_maps_jjwg_markers_c -->
<g id="node1" class="node">
<title>jjwg_maps_jjwg_markers_c</title>
<g id="a_node1"><a xlink:href="../../tables/jjwg_maps_jjwg_markers_c.html" xlink:title="jjwg_maps_jjwg_markers_c" target="_top">
<polygon fill="#ffffff" stroke="transparent" points="192,-205.7 192,-361.7 481,-361.7 481,-205.7 192,-205.7"/>
<polygon fill="#f5f5f5" stroke="transparent" points="194.5,-336.7 194.5,-359.7 479.5,-359.7 479.5,-336.7 194.5,-336.7"/>
<polygon fill="none" stroke="#000000" points="194.5,-336.7 194.5,-359.7 479.5,-359.7 479.5,-336.7 194.5,-336.7"/>
<text text-anchor="start" x="199.5" y="-345.8" font-family="Helvetica,sans-Serif" font-weight="bold" font-size="11.00" fill="#000000">jjwg_maps_jjwg_markers_c</text>
<text text-anchor="start" x="444.5437" y="-344.8" font-family="Helvetica,sans-Serif" font-size="11.00" fill="#000000">[table]</text>
<polygon fill="none" stroke="#000000" points="194.5,-314.7 194.5,-336.7 413.5,-336.7 413.5,-314.7 194.5,-314.7"/>
<image xlink:href="../../images/primaryKeys.png" width="11px" height="12px" preserveAspectRatio="xMinYMin meet" x="199.5" y="-331.7"/>
<text text-anchor="start" x="214.5" y="-321.8" font-family="Helvetica,sans-Serif" font-size="11.00" fill="#000000">id</text>
<polygon fill="none" stroke="#000000" points="413.5,-314.7 413.5,-336.7 479.5,-336.7 479.5,-314.7 413.5,-314.7"/>
<text text-anchor="start" x="416.5" y="-322.4" font-family="Helvetica,sans-Serif" font-size="11.00" fill="#000000">varchar[36]</text>
<polygon fill="none" stroke="#000000" points="194.5,-292.7 194.5,-314.7 413.5,-314.7 413.5,-292.7 194.5,-292.7"/>
<text text-anchor="start" x="214.5" y="-299.8" font-family="Helvetica,sans-Serif" font-size="11.00" fill="#000000">date_modified</text>
<polygon fill="none" stroke="#000000" points="413.5,-292.7 413.5,-314.7 479.5,-314.7 479.5,-292.7 413.5,-292.7"/>
<text text-anchor="start" x="416.2401" y="-300.4" font-family="Helvetica,sans-Serif" font-size="11.00" fill="#000000">datetime[26]</text>
<polygon fill="none" stroke="#000000" points="194.5,-270.7 194.5,-292.7 413.5,-292.7 413.5,-270.7 194.5,-270.7"/>
<text text-anchor="start" x="214.5" y="-277.8" font-family="Helvetica,sans-Serif" font-size="11.00" fill="#000000">deleted</text>
<polygon fill="none" stroke="#000000" points="413.5,-270.7 413.5,-292.7 479.5,-292.7 479.5,-270.7 413.5,-270.7"/>
<text text-anchor="start" x="416.5" y="-278.4" font-family="Helvetica,sans-Serif" font-size="11.00" fill="#000000">bit[1]</text>
<polygon fill="#ffffff" stroke="transparent" points="194.5,-248.7 194.5,-270.7 413.5,-270.7 413.5,-248.7 194.5,-248.7"/>
<polygon fill="none" stroke="#000000" points="194.5,-248.7 194.5,-270.7 413.5,-270.7 413.5,-248.7 194.5,-248.7"/>
<image xlink:href="../../images/foreignKeys.png" width="11px" height="12px" preserveAspectRatio="xMinYMin meet" x="199.5" y="-265.7"/>
<text text-anchor="start" x="214.5" y="-255.8" font-family="Helvetica,sans-Serif" font-size="11.00" fill="#000000">jjwg_maps_b229wg_maps_ida</text>
<polygon fill="none" stroke="#000000" points="413.5,-248.7 413.5,-270.7 479.5,-270.7 479.5,-248.7 413.5,-248.7"/>
<text text-anchor="start" x="416.5" y="-256.4" font-family="Helvetica,sans-Serif" font-size="11.00" fill="#000000">varchar[36]</text>
<polygon fill="#ffffff" stroke="transparent" points="194.5,-226.7 194.5,-248.7 413.5,-248.7 413.5,-226.7 194.5,-226.7"/>
<polygon fill="none" stroke="#000000" points="194.5,-226.7 194.5,-248.7 413.5,-248.7 413.5,-226.7 194.5,-226.7"/>
<image xlink:href="../../images/foreignKeys.png" width="11px" height="12px" preserveAspectRatio="xMinYMin meet" x="199.5" y="-243.7"/>
<text text-anchor="start" x="214.5" y="-233.8" font-family="Helvetica,sans-Serif" font-size="11.00" fill="#000000">jjwg_maps_2e31markers_idb</text>
<polygon fill="none" stroke="#000000" points="413.5,-226.7 413.5,-248.7 479.5,-248.7 479.5,-226.7 413.5,-226.7"/>
<text text-anchor="start" x="416.5" y="-234.4" font-family="Helvetica,sans-Serif" font-size="11.00" fill="#000000">varchar[36]</text>
<polygon fill="#ffffff" stroke="transparent" points="194.5,-207.7 194.5,-226.7 308.5,-226.7 308.5,-207.7 194.5,-207.7"/>
<polygon fill="none" stroke="#000000" points="194.5,-207.7 194.5,-226.7 308.5,-226.7 308.5,-207.7 194.5,-207.7"/>
<text text-anchor="start" x="197.5" y="-213.8" font-family="Helvetica,sans-Serif" font-size="11.00" fill="#000000">&lt; 2</text>
<polygon fill="#ffffff" stroke="transparent" points="308.5,-207.7 308.5,-226.7 413.5,-226.7 413.5,-207.7 308.5,-207.7"/>
<polygon fill="none" stroke="#000000" points="308.5,-207.7 308.5,-226.7 413.5,-226.7 413.5,-207.7 308.5,-207.7"/>
<text text-anchor="start" x="404.3862" y="-213.8" font-family="Helvetica,sans-Serif" font-size="11.00" fill="#000000"> &#160;</text>
<polygon fill="#ffffff" stroke="transparent" points="413.5,-207.7 413.5,-226.7 479.5,-226.7 479.5,-207.7 413.5,-207.7"/>
<polygon fill="none" stroke="#000000" points="413.5,-207.7 413.5,-226.7 479.5,-226.7 479.5,-207.7 413.5,-207.7"/>
<text text-anchor="start" x="460.9053" y="-213.8" font-family="Helvetica,sans-Serif" font-size="11.00" fill="#000000">0 &gt;</text>
<polygon fill="none" stroke="#000000" stroke-width="2" points="193,-206.7 193,-360.7 480,-360.7 480,-206.7 193,-206.7"/>
</a>
</g>
</g>
<!-- jjwg_markers -->
<g id="node2" class="node">
<title>jjwg_markers</title>
<g id="a_node2"><a xlink:href="../../tables/jjwg_markers.html" xlink:title="jjwg_markers" target="_top">
<polygon fill="#ffffff" stroke="transparent" points="8,-38.2 8,-187.2 143,-187.2 143,-38.2 8,-38.2"/>
<polygon fill="#f5f5f5" stroke="transparent" points="8.5,-163.7 8.5,-186.7 143.5,-186.7 143.5,-163.7 8.5,-163.7"/>
<polygon fill="none" stroke="#000000" points="8.5,-163.7 8.5,-186.7 143.5,-186.7 143.5,-163.7 8.5,-163.7"/>
<text text-anchor="start" x="13.5" y="-172.8" font-family="Helvetica,sans-Serif" font-weight="bold" font-size="11.00" fill="#000000">jjwg_markers</text>
<text text-anchor="start" x="108.5437" y="-171.8" font-family="Helvetica,sans-Serif" font-size="11.00" fill="#000000">[table]</text>
<polygon fill="none" stroke="#000000" points="8.5,-141.7 8.5,-163.7 143.5,-163.7 143.5,-141.7 8.5,-141.7"/>
<image xlink:href="../../images/primaryKeys.png" width="11px" height="12px" preserveAspectRatio="xMinYMin meet" x="13.5" y="-158.7"/>
<text text-anchor="start" x="28.5" y="-148.8" font-family="Helvetica,sans-Serif" font-size="11.00" fill="#000000">id</text>
<polygon fill="#c0c0c0" stroke="transparent" points="8.5,-119.7 8.5,-141.7 143.5,-141.7 143.5,-119.7 8.5,-119.7"/>
<polygon fill="none" stroke="#000000" points="8.5,-119.7 8.5,-141.7 143.5,-141.7 143.5,-119.7 8.5,-119.7"/>
<image xlink:href="../../images/foreignKeys.png" width="11px" height="12px" preserveAspectRatio="xMinYMin meet" x="13.5" y="-136.7"/>
<text text-anchor="start" x="28.5" y="-126.8" font-family="Helvetica,sans-Serif" font-size="11.00" fill="#000000">modified_user_id</text>
<polygon fill="#c0c0c0" stroke="transparent" points="8.5,-97.7 8.5,-119.7 143.5,-119.7 143.5,-97.7 8.5,-97.7"/>
<polygon fill="none" stroke="#000000" points="8.5,-97.7 8.5,-119.7 143.5,-119.7 143.5,-97.7 8.5,-97.7"/>
<image xlink:href="../../images/foreignKeys.png" width="11px" height="12px" preserveAspectRatio="xMinYMin meet" x="13.5" y="-114.7"/>
<text text-anchor="start" x="28.5" y="-104.8" font-family="Helvetica,sans-Serif" font-size="11.00" fill="#000000">created_by</text>
<polygon fill="#c0c0c0" stroke="transparent" points="8.5,-75.7 8.5,-97.7 143.5,-97.7 143.5,-75.7 8.5,-75.7"/>
<polygon fill="none" stroke="#000000" points="8.5,-75.7 8.5,-97.7 143.5,-97.7 143.5,-75.7 8.5,-75.7"/>
<image xlink:href="../../images/foreignKeys.png" width="11px" height="12px" preserveAspectRatio="xMinYMin meet" x="13.5" y="-92.7"/>
<text text-anchor="start" x="28.5" y="-82.8" font-family="Helvetica,sans-Serif" font-size="11.00" fill="#000000">assigned_user_id</text>
<polygon fill="none" stroke="#000000" points="8.5,-56.7 8.5,-75.7 143.5,-75.7 143.5,-56.7 8.5,-56.7"/>
<text text-anchor="start" x="11.5" y="-62.8" font-family="Helvetica,sans-Serif" font-size="11.00" fill="#000000">...</text>
<polygon fill="#ffffff" stroke="transparent" points="8.5,-37.7 8.5,-56.7 69.5,-56.7 69.5,-37.7 8.5,-37.7"/>
<polygon fill="none" stroke="#000000" points="8.5,-37.7 8.5,-56.7 69.5,-56.7 69.5,-37.7 8.5,-37.7"/>
<text text-anchor="start" x="11.5" y="-43.8" font-family="Helvetica,sans-Serif" font-size="11.00" fill="#000000">&lt; 3</text>
<polygon fill="#ffffff" stroke="transparent" points="69.5,-37.7 69.5,-56.7 101.5,-56.7 101.5,-37.7 69.5,-37.7"/>
<polygon fill="none" stroke="#000000" points="69.5,-37.7 69.5,-56.7 101.5,-56.7 101.5,-37.7 69.5,-37.7"/>
<text text-anchor="start" x="92.3862" y="-43.8" font-family="Helvetica,sans-Serif" font-size="11.00" fill="#000000"> &#160;</text>
<polygon fill="#ffffff" stroke="transparent" points="101.5,-37.7 101.5,-56.7 143.5,-56.7 143.5,-37.7 101.5,-37.7"/>
<polygon fill="none" stroke="#000000" points="101.5,-37.7 101.5,-56.7 143.5,-56.7 143.5,-37.7 101.5,-37.7"/>
<text text-anchor="start" x="124.9053" y="-43.8" font-family="Helvetica,sans-Serif" font-size="11.00" fill="#000000">3 &gt;</text>
</a>
</g>
</g>
<!-- jjwg_maps_jjwg_markers_c&#45;&gt;jjwg_markers -->
<g id="edge1" class="edge">
<title>jjwg_maps_jjwg_markers_c:w&#45;&gt;jjwg_markers:e</title>
<path fill="none" stroke="#000000" d="M180.5669,-233.368C159.0746,-216.0466 181.5328,-152.7 143.5,-152.7"/>
<polygon fill="#000000" stroke="#000000" points="186.8607,-235.3248 193.4312,-241.1377 190.6804,-236.5124 194.5,-237.7 194.5,-237.7 194.5,-237.7 190.6804,-236.5124 195.5688,-234.2623 186.8607,-235.3248 186.8607,-235.3248"/>
<ellipse fill="none" stroke="#000000" cx="183.805" cy="-234.3747" rx="3.2" ry="3.2"/>
</g>
<!-- jjwg_maps -->
<g id="node3" class="node">
<title>jjwg_maps</title>
<g id="a_node3"><a xlink:href="../../tables/jjwg_maps.html" xlink:title="jjwg_maps" target="_top">
<polygon fill="#ffffff" stroke="transparent" points="8,-208.2 8,-379.2 143,-379.2 143,-208.2 8,-208.2"/>
<polygon fill="#f5f5f5" stroke="transparent" points="8.5,-355.7 8.5,-378.7 143.5,-378.7 143.5,-355.7 8.5,-355.7"/>
<polygon fill="none" stroke="#000000" points="8.5,-355.7 8.5,-378.7 143.5,-378.7 143.5,-355.7 8.5,-355.7"/>
<text text-anchor="start" x="13.5" y="-364.8" font-family="Helvetica,sans-Serif" font-weight="bold" font-size="11.00" fill="#000000">jjwg_maps</text>
<text text-anchor="start" x="108.5437" y="-363.8" font-family="Helvetica,sans-Serif" font-size="11.00" fill="#000000">[table]</text>
<polygon fill="none" stroke="#000000" points="8.5,-333.7 8.5,-355.7 143.5,-355.7 143.5,-333.7 8.5,-333.7"/>
<image xlink:href="../../images/primaryKeys.png" width="11px" height="12px" preserveAspectRatio="xMinYMin meet" x="13.5" y="-350.7"/>
<text text-anchor="start" x="28.5" y="-340.8" font-family="Helvetica,sans-Serif" font-size="11.00" fill="#000000">id</text>
<polygon fill="#c0c0c0" stroke="transparent" points="8.5,-311.7 8.5,-333.7 143.5,-333.7 143.5,-311.7 8.5,-311.7"/>
<polygon fill="none" stroke="#000000" points="8.5,-311.7 8.5,-333.7 143.5,-333.7 143.5,-311.7 8.5,-311.7"/>
<image xlink:href="../../images/foreignKeys.png" width="11px" height="12px" preserveAspectRatio="xMinYMin meet" x="13.5" y="-328.7"/>
<text text-anchor="start" x="28.5" y="-318.8" font-family="Helvetica,sans-Serif" font-size="11.00" fill="#000000">modified_user_id</text>
<polygon fill="#c0c0c0" stroke="transparent" points="8.5,-289.7 8.5,-311.7 143.5,-311.7 143.5,-289.7 8.5,-289.7"/>
<polygon fill="none" stroke="#000000" points="8.5,-289.7 8.5,-311.7 143.5,-311.7 143.5,-289.7 8.5,-289.7"/>
<image xlink:href="../../images/foreignKeys.png" width="11px" height="12px" preserveAspectRatio="xMinYMin meet" x="13.5" y="-306.7"/>
<text text-anchor="start" x="28.5" y="-296.8" font-family="Helvetica,sans-Serif" font-size="11.00" fill="#000000">created_by</text>
<polygon fill="#c0c0c0" stroke="transparent" points="8.5,-267.7 8.5,-289.7 143.5,-289.7 143.5,-267.7 8.5,-267.7"/>
<polygon fill="none" stroke="#000000" points="8.5,-267.7 8.5,-289.7 143.5,-289.7 143.5,-267.7 8.5,-267.7"/>
<image xlink:href="../../images/foreignKeys.png" width="11px" height="12px" preserveAspectRatio="xMinYMin meet" x="13.5" y="-284.7"/>
<text text-anchor="start" x="28.5" y="-274.8" font-family="Helvetica,sans-Serif" font-size="11.00" fill="#000000">assigned_user_id</text>
<polygon fill="none" stroke="#000000" points="8.5,-245.7 8.5,-267.7 143.5,-267.7 143.5,-245.7 8.5,-245.7"/>
<image xlink:href="../../images/primaryKeys.png" width="11px" height="12px" preserveAspectRatio="xMinYMin meet" x="13.5" y="-262.7"/>
<text text-anchor="start" x="28.5" y="-252.8" font-family="Helvetica,sans-Serif" font-size="11.00" fill="#000000">parent_id</text>
<polygon fill="none" stroke="#000000" points="8.5,-226.7 8.5,-245.7 143.5,-245.7 143.5,-226.7 8.5,-226.7"/>
<text text-anchor="start" x="11.5" y="-232.8" font-family="Helvetica,sans-Serif" font-size="11.00" fill="#000000">...</text>
<polygon fill="#ffffff" stroke="transparent" points="8.5,-207.7 8.5,-226.7 66.5,-226.7 66.5,-207.7 8.5,-207.7"/>
<polygon fill="none" stroke="#000000" points="8.5,-207.7 8.5,-226.7 66.5,-226.7 66.5,-207.7 8.5,-207.7"/>
<text text-anchor="start" x="11.5" y="-213.8" font-family="Helvetica,sans-Serif" font-size="11.00" fill="#000000">&lt; 3</text>
<polygon fill="#ffffff" stroke="transparent" points="66.5,-207.7 66.5,-226.7 97.5,-226.7 97.5,-207.7 66.5,-207.7"/>
<polygon fill="none" stroke="#000000" points="66.5,-207.7 66.5,-226.7 97.5,-226.7 97.5,-207.7 66.5,-207.7"/>
<text text-anchor="start" x="88.3862" y="-213.8" font-family="Helvetica,sans-Serif" font-size="11.00" fill="#000000"> &#160;</text>
<polygon fill="#ffffff" stroke="transparent" points="97.5,-207.7 97.5,-226.7 143.5,-226.7 143.5,-207.7 97.5,-207.7"/>
<polygon fill="none" stroke="#000000" points="97.5,-207.7 97.5,-226.7 143.5,-226.7 143.5,-207.7 97.5,-207.7"/>
<text text-anchor="start" x="118.7904" y="-213.8" font-family="Helvetica,sans-Serif" font-size="11.00" fill="#000000">12 &gt;</text>
</a>
</g>
</g>
<!-- jjwg_maps_jjwg_markers_c&#45;&gt;jjwg_maps -->
<g id="edge2" class="edge">
<title>jjwg_maps_jjwg_markers_c:w&#45;&gt;jjwg_maps:e</title>
<path fill="none" stroke="#000000" d="M180.5669,-264.032C159.0746,-281.3534 181.5328,-344.7 143.5,-344.7"/>
<polygon fill="#000000" stroke="#000000" points="186.8607,-262.0752 195.5688,-263.1377 190.6804,-260.8876 194.5,-259.7 194.5,-259.7 194.5,-259.7 190.6804,-260.8876 193.4312,-256.2623 186.8607,-262.0752 186.8607,-262.0752"/>
<ellipse fill="none" stroke="#000000" cx="183.805" cy="-263.0253" rx="3.2" ry="3.2"/>
</g>
</g>
</svg>
