<?xml version="1.0" encoding="UTF-8" standalone="no"?>
<!DOCTYPE svg PUBLIC "-//W3C//DTD SVG 1.1//EN"
 "http://www.w3.org/Graphics/SVG/1.1/DTD/svg11.dtd">
<!-- Generated by graphviz version 2.40.1 (20161225.0304)
 -->
<!-- Title: oneDegreeRelationshipsDiagram Pages: 1 -->
<svg width="684pt" height="514pt"
 viewBox="0.00 0.00 684.00 514.20" xmlns="http://www.w3.org/2000/svg" xmlns:xlink="http://www.w3.org/1999/xlink">
<g id="graph0" class="graph" transform="scale(1 1) rotate(0) translate(4 510.2)">
<title>oneDegreeRelationshipsDiagram</title>
<polygon fill="#ffffff" stroke="transparent" points="-4,4 -4,-510.2 680,-510.2 680,4 -4,4"/>
<text text-anchor="middle" x="72.4936" y="-7.3" font-family="Helvetica,sans-Serif" font-size="11.00" fill="#000000">Generated by SchemaSpy</text>
<!-- job_queue -->
<g id="node1" class="node">
<title>job_queue</title>
<g id="a_node1"><a xlink:href="../../tables/job_queue.html" xlink:title="job_queue" target="_top">
<polygon fill="#ffffff" stroke="transparent" points="456,-38.2 456,-502.2 668,-502.2 668,-38.2 456,-38.2"/>
<polygon fill="#f5f5f5" stroke="transparent" points="458,-477.2 458,-500.2 666,-500.2 666,-477.2 458,-477.2"/>
<polygon fill="none" stroke="#000000" points="458,-477.2 458,-500.2 666,-500.2 666,-477.2 458,-477.2"/>
<text text-anchor="start" x="463" y="-486.3" font-family="Helvetica,sans-Serif" font-weight="bold" font-size="11.00" fill="#000000">job_queue</text>
<text text-anchor="start" x="631.0437" y="-485.3" font-family="Helvetica,sans-Serif" font-size="11.00" fill="#000000">[table]</text>
<polygon fill="none" stroke="#000000" points="458,-455.2 458,-477.2 599,-477.2 599,-455.2 458,-455.2"/>
<image xlink:href="../../images/foreignKeys.png" width="11px" height="12px" preserveAspectRatio="xMinYMin meet" x="463" y="-472.2"/>
<text text-anchor="start" x="478" y="-462.3" font-family="Helvetica,sans-Serif" font-size="11.00" fill="#000000">assigned_user_id</text>
<polygon fill="none" stroke="#000000" points="599,-455.2 599,-477.2 666,-477.2 666,-455.2 599,-455.2"/>
<text text-anchor="start" x="602" y="-462.9" font-family="Helvetica,sans-Serif" font-size="11.00" fill="#000000">char[36]</text>
<polygon fill="none" stroke="#000000" points="458,-433.2 458,-455.2 599,-455.2 599,-433.2 458,-433.2"/>
<image xlink:href="../../images/primaryKeys.png" width="11px" height="12px" preserveAspectRatio="xMinYMin meet" x="463" y="-450.2"/>
<text text-anchor="start" x="478" y="-440.3" font-family="Helvetica,sans-Serif" font-size="11.00" fill="#000000">id</text>
<polygon fill="none" stroke="#000000" points="599,-433.2 599,-455.2 666,-455.2 666,-433.2 599,-433.2"/>
<text text-anchor="start" x="602" y="-440.9" font-family="Helvetica,sans-Serif" font-size="11.00" fill="#000000">char[36]</text>
<polygon fill="none" stroke="#000000" points="458,-411.2 458,-433.2 599,-433.2 599,-411.2 458,-411.2"/>
<text text-anchor="start" x="478" y="-418.3" font-family="Helvetica,sans-Serif" font-size="11.00" fill="#000000">name</text>
<polygon fill="none" stroke="#000000" points="599,-411.2 599,-433.2 666,-433.2 666,-411.2 599,-411.2"/>
<text text-anchor="start" x="601.9365" y="-418.9" font-family="Helvetica,sans-Serif" font-size="11.00" fill="#000000">varchar[255]</text>
<polygon fill="none" stroke="#000000" points="458,-389.2 458,-411.2 599,-411.2 599,-389.2 458,-389.2"/>
<text text-anchor="start" x="478" y="-396.3" font-family="Helvetica,sans-Serif" font-size="11.00" fill="#000000">deleted</text>
<polygon fill="none" stroke="#000000" points="599,-389.2 599,-411.2 666,-411.2 666,-389.2 599,-389.2"/>
<text text-anchor="start" x="602" y="-396.9" font-family="Helvetica,sans-Serif" font-size="11.00" fill="#000000">bit[1]</text>
<polygon fill="#ffffff" stroke="transparent" points="458,-367.2 458,-389.2 599,-389.2 599,-367.2 458,-367.2"/>
<polygon fill="none" stroke="#000000" points="458,-367.2 458,-389.2 599,-389.2 599,-367.2 458,-367.2"/>
<text text-anchor="start" x="478" y="-374.3" font-family="Helvetica,sans-Serif" font-size="11.00" fill="#000000">date_entered</text>
<polygon fill="none" stroke="#000000" points="599,-367.2 599,-389.2 666,-389.2 666,-367.2 599,-367.2"/>
<text text-anchor="start" x="602" y="-374.9" font-family="Helvetica,sans-Serif" font-size="11.00" fill="#000000">datetime[26]</text>
<polygon fill="#ffffff" stroke="transparent" points="458,-345.2 458,-367.2 599,-367.2 599,-345.2 458,-345.2"/>
<polygon fill="none" stroke="#000000" points="458,-345.2 458,-367.2 599,-367.2 599,-345.2 458,-345.2"/>
<text text-anchor="start" x="478" y="-352.3" font-family="Helvetica,sans-Serif" font-size="11.00" fill="#000000">date_modified</text>
<polygon fill="none" stroke="#000000" points="599,-345.2 599,-367.2 666,-367.2 666,-345.2 599,-345.2"/>
<text text-anchor="start" x="602" y="-352.9" font-family="Helvetica,sans-Serif" font-size="11.00" fill="#000000">datetime[26]</text>
<polygon fill="#ffffff" stroke="transparent" points="458,-323.2 458,-345.2 599,-345.2 599,-323.2 458,-323.2"/>
<polygon fill="none" stroke="#000000" points="458,-323.2 458,-345.2 599,-345.2 599,-323.2 458,-323.2"/>
<image xlink:href="../../images/foreignKeys.png" width="11px" height="12px" preserveAspectRatio="xMinYMin meet" x="463" y="-340.2"/>
<text text-anchor="start" x="478" y="-330.3" font-family="Helvetica,sans-Serif" font-size="11.00" fill="#000000">scheduler_id</text>
<polygon fill="none" stroke="#000000" points="599,-323.2 599,-345.2 666,-345.2 666,-323.2 599,-323.2"/>
<text text-anchor="start" x="602" y="-330.9" font-family="Helvetica,sans-Serif" font-size="11.00" fill="#000000">char[36]</text>
<polygon fill="#ffffff" stroke="transparent" points="458,-301.2 458,-323.2 599,-323.2 599,-301.2 458,-301.2"/>
<polygon fill="none" stroke="#000000" points="458,-301.2 458,-323.2 599,-323.2 599,-301.2 458,-301.2"/>
<text text-anchor="start" x="478" y="-308.3" font-family="Helvetica,sans-Serif" font-size="11.00" fill="#000000">execute_time</text>
<polygon fill="none" stroke="#000000" points="599,-301.2 599,-323.2 666,-323.2 666,-301.2 599,-301.2"/>
<text text-anchor="start" x="602" y="-308.9" font-family="Helvetica,sans-Serif" font-size="11.00" fill="#000000">datetime[26]</text>
<polygon fill="#ffffff" stroke="transparent" points="458,-279.2 458,-301.2 599,-301.2 599,-279.2 458,-279.2"/>
<polygon fill="none" stroke="#000000" points="458,-279.2 458,-301.2 599,-301.2 599,-279.2 458,-279.2"/>
<text text-anchor="start" x="478" y="-286.3" font-family="Helvetica,sans-Serif" font-size="11.00" fill="#000000">status</text>
<polygon fill="none" stroke="#000000" points="599,-279.2 599,-301.2 666,-301.2 666,-279.2 599,-279.2"/>
<text text-anchor="start" x="602" y="-286.9" font-family="Helvetica,sans-Serif" font-size="11.00" fill="#000000">varchar[20]</text>
<polygon fill="none" stroke="#000000" points="458,-257.2 458,-279.2 599,-279.2 599,-257.2 458,-257.2"/>
<text text-anchor="start" x="478" y="-264.3" font-family="Helvetica,sans-Serif" font-size="11.00" fill="#000000">resolution</text>
<polygon fill="none" stroke="#000000" points="599,-257.2 599,-279.2 666,-279.2 666,-257.2 599,-257.2"/>
<text text-anchor="start" x="602" y="-264.9" font-family="Helvetica,sans-Serif" font-size="11.00" fill="#000000">varchar[20]</text>
<polygon fill="none" stroke="#000000" points="458,-235.2 458,-257.2 599,-257.2 599,-235.2 458,-235.2"/>
<text text-anchor="start" x="478" y="-242.3" font-family="Helvetica,sans-Serif" font-size="11.00" fill="#000000">message</text>
<polygon fill="none" stroke="#000000" points="599,-235.2 599,-257.2 666,-257.2 666,-235.2 599,-235.2"/>
<text text-anchor="start" x="602" y="-242.9" font-family="Helvetica,sans-Serif" font-size="11.00" fill="#000000">text[65535]</text>
<polygon fill="none" stroke="#000000" points="458,-213.2 458,-235.2 599,-235.2 599,-213.2 458,-213.2"/>
<text text-anchor="start" x="478" y="-220.3" font-family="Helvetica,sans-Serif" font-size="11.00" fill="#000000">target</text>
<polygon fill="none" stroke="#000000" points="599,-213.2 599,-235.2 666,-235.2 666,-213.2 599,-213.2"/>
<text text-anchor="start" x="601.9365" y="-220.9" font-family="Helvetica,sans-Serif" font-size="11.00" fill="#000000">varchar[255]</text>
<polygon fill="none" stroke="#000000" points="458,-191.2 458,-213.2 599,-213.2 599,-191.2 458,-191.2"/>
<text text-anchor="start" x="478" y="-198.3" font-family="Helvetica,sans-Serif" font-size="11.00" fill="#000000">data</text>
<polygon fill="none" stroke="#000000" points="599,-191.2 599,-213.2 666,-213.2 666,-191.2 599,-191.2"/>
<text text-anchor="start" x="602" y="-198.9" font-family="Helvetica,sans-Serif" font-size="11.00" fill="#000000">text[65535]</text>
<polygon fill="none" stroke="#000000" points="458,-169.2 458,-191.2 599,-191.2 599,-169.2 458,-169.2"/>
<text text-anchor="start" x="478" y="-176.3" font-family="Helvetica,sans-Serif" font-size="11.00" fill="#000000">requeue</text>
<polygon fill="none" stroke="#000000" points="599,-169.2 599,-191.2 666,-191.2 666,-169.2 599,-169.2"/>
<text text-anchor="start" x="602" y="-176.9" font-family="Helvetica,sans-Serif" font-size="11.00" fill="#000000">bit[1]</text>
<polygon fill="none" stroke="#000000" points="458,-147.2 458,-169.2 599,-169.2 599,-147.2 458,-147.2"/>
<text text-anchor="start" x="478" y="-154.3" font-family="Helvetica,sans-Serif" font-size="11.00" fill="#000000">retry_count</text>
<polygon fill="none" stroke="#000000" points="599,-147.2 599,-169.2 666,-169.2 666,-147.2 599,-147.2"/>
<text text-anchor="start" x="602" y="-154.9" font-family="Helvetica,sans-Serif" font-size="11.00" fill="#000000">tinyint[3]</text>
<polygon fill="none" stroke="#000000" points="458,-125.2 458,-147.2 599,-147.2 599,-125.2 458,-125.2"/>
<text text-anchor="start" x="478" y="-132.3" font-family="Helvetica,sans-Serif" font-size="11.00" fill="#000000">failure_count</text>
<polygon fill="none" stroke="#000000" points="599,-125.2 599,-147.2 666,-147.2 666,-125.2 599,-125.2"/>
<text text-anchor="start" x="602" y="-132.9" font-family="Helvetica,sans-Serif" font-size="11.00" fill="#000000">tinyint[3]</text>
<polygon fill="none" stroke="#000000" points="458,-103.2 458,-125.2 599,-125.2 599,-103.2 458,-103.2"/>
<text text-anchor="start" x="478" y="-110.3" font-family="Helvetica,sans-Serif" font-size="11.00" fill="#000000">job_delay</text>
<polygon fill="none" stroke="#000000" points="599,-103.2 599,-125.2 666,-125.2 666,-103.2 599,-103.2"/>
<text text-anchor="start" x="602" y="-110.9" font-family="Helvetica,sans-Serif" font-size="11.00" fill="#000000">int[10]</text>
<polygon fill="none" stroke="#000000" points="458,-81.2 458,-103.2 599,-103.2 599,-81.2 458,-81.2"/>
<text text-anchor="start" x="478" y="-88.3" font-family="Helvetica,sans-Serif" font-size="11.00" fill="#000000">client</text>
<polygon fill="none" stroke="#000000" points="599,-81.2 599,-103.2 666,-103.2 666,-81.2 599,-81.2"/>
<text text-anchor="start" x="601.9365" y="-88.9" font-family="Helvetica,sans-Serif" font-size="11.00" fill="#000000">varchar[255]</text>
<polygon fill="none" stroke="#000000" points="458,-59.2 458,-81.2 599,-81.2 599,-59.2 458,-59.2"/>
<text text-anchor="start" x="478" y="-66.3" font-family="Helvetica,sans-Serif" font-size="11.00" fill="#000000">percent_complete</text>
<polygon fill="none" stroke="#000000" points="599,-59.2 599,-81.2 666,-81.2 666,-59.2 599,-59.2"/>
<text text-anchor="start" x="602" y="-66.9" font-family="Helvetica,sans-Serif" font-size="11.00" fill="#000000">int[10]</text>
<polygon fill="#ffffff" stroke="transparent" points="458,-40.2 458,-59.2 533,-59.2 533,-40.2 458,-40.2"/>
<polygon fill="none" stroke="#000000" points="458,-40.2 458,-59.2 533,-59.2 533,-40.2 458,-40.2"/>
<text text-anchor="start" x="461" y="-46.3" font-family="Helvetica,sans-Serif" font-size="11.00" fill="#000000">&lt; 2</text>
<polygon fill="#ffffff" stroke="transparent" points="533,-40.2 533,-59.2 599,-59.2 599,-40.2 533,-40.2"/>
<polygon fill="none" stroke="#000000" points="533,-40.2 533,-59.2 599,-59.2 599,-40.2 533,-40.2"/>
<text text-anchor="start" x="589.8862" y="-46.3" font-family="Helvetica,sans-Serif" font-size="11.00" fill="#000000"> &#160;</text>
<polygon fill="#ffffff" stroke="transparent" points="599,-40.2 599,-59.2 666,-59.2 666,-40.2 599,-40.2"/>
<polygon fill="none" stroke="#000000" points="599,-40.2 599,-59.2 666,-59.2 666,-40.2 599,-40.2"/>
<text text-anchor="start" x="647.4053" y="-46.3" font-family="Helvetica,sans-Serif" font-size="11.00" fill="#000000">0 &gt;</text>
<polygon fill="none" stroke="#000000" stroke-width="2" points="457,-39.2 457,-501.2 667,-501.2 667,-39.2 457,-39.2"/>
</a>
</g>
</g>
<!-- users -->
<g id="node2" class="node">
<title>users</title>
<g id="a_node2"><a xlink:href="../../tables/users.html" xlink:title="users" target="_top">
<polygon fill="#ffffff" stroke="transparent" points="8,-128.7 8,-343.7 224,-343.7 224,-128.7 8,-128.7"/>
<polygon fill="#f5f5f5" stroke="transparent" points="8,-320.2 8,-343.2 224,-343.2 224,-320.2 8,-320.2"/>
<polygon fill="none" stroke="#000000" points="8,-320.2 8,-343.2 224,-343.2 224,-320.2 8,-320.2"/>
<text text-anchor="start" x="13" y="-329.3" font-family="Helvetica,sans-Serif" font-weight="bold" font-size="11.00" fill="#000000">users</text>
<text text-anchor="start" x="189.0437" y="-328.3" font-family="Helvetica,sans-Serif" font-size="11.00" fill="#000000">[table]</text>
<polygon fill="none" stroke="#000000" points="8,-298.2 8,-320.2 224,-320.2 224,-298.2 8,-298.2"/>
<image xlink:href="../../images/primaryKeys.png" width="11px" height="12px" preserveAspectRatio="xMinYMin meet" x="13" y="-315.2"/>
<text text-anchor="start" x="28" y="-305.3" font-family="Helvetica,sans-Serif" font-size="11.00" fill="#000000">id</text>
<polygon fill="#ffffff" stroke="transparent" points="8,-276.2 8,-298.2 224,-298.2 224,-276.2 8,-276.2"/>
<polygon fill="none" stroke="#000000" points="8,-276.2 8,-298.2 224,-298.2 224,-276.2 8,-276.2"/>
<text text-anchor="start" x="28" y="-283.3" font-family="Helvetica,sans-Serif" font-size="11.00" fill="#000000">user_name</text>
<polygon fill="#ffffff" stroke="transparent" points="8,-254.2 8,-276.2 224,-276.2 224,-254.2 8,-254.2"/>
<polygon fill="none" stroke="#000000" points="8,-254.2 8,-276.2 224,-276.2 224,-254.2 8,-254.2"/>
<text text-anchor="start" x="28" y="-261.3" font-family="Helvetica,sans-Serif" font-size="11.00" fill="#000000">first_name</text>
<polygon fill="#ffffff" stroke="transparent" points="8,-232.2 8,-254.2 224,-254.2 224,-232.2 8,-232.2"/>
<polygon fill="none" stroke="#000000" points="8,-232.2 8,-254.2 224,-254.2 224,-232.2 8,-232.2"/>
<text text-anchor="start" x="28" y="-239.3" font-family="Helvetica,sans-Serif" font-size="11.00" fill="#000000">last_name</text>
<polygon fill="#ffffff" stroke="transparent" points="8,-210.2 8,-232.2 224,-232.2 224,-210.2 8,-210.2"/>
<polygon fill="none" stroke="#000000" points="8,-210.2 8,-232.2 224,-232.2 224,-210.2 8,-210.2"/>
<text text-anchor="start" x="28" y="-217.3" font-family="Helvetica,sans-Serif" font-size="11.00" fill="#000000">status</text>
<polygon fill="#c0c0c0" stroke="transparent" points="8,-188.2 8,-210.2 224,-210.2 224,-188.2 8,-188.2"/>
<polygon fill="none" stroke="#000000" points="8,-188.2 8,-210.2 224,-210.2 224,-188.2 8,-188.2"/>
<image xlink:href="../../images/foreignKeys.png" width="11px" height="12px" preserveAspectRatio="xMinYMin meet" x="13" y="-205.2"/>
<text text-anchor="start" x="28" y="-195.3" font-family="Helvetica,sans-Serif" font-size="11.00" fill="#000000">reports_to_id</text>
<polygon fill="#ffffff" stroke="transparent" points="8,-166.2 8,-188.2 224,-188.2 224,-166.2 8,-166.2"/>
<polygon fill="none" stroke="#000000" points="8,-166.2 8,-188.2 224,-188.2 224,-166.2 8,-166.2"/>
<text text-anchor="start" x="28" y="-173.3" font-family="Helvetica,sans-Serif" font-size="11.00" fill="#000000">is_group</text>
<polygon fill="none" stroke="#000000" points="8,-147.2 8,-166.2 224,-166.2 224,-147.2 8,-147.2"/>
<text text-anchor="start" x="11" y="-153.3" font-family="Helvetica,sans-Serif" font-size="11.00" fill="#000000">...</text>
<polygon fill="#ffffff" stroke="transparent" points="8,-128.2 8,-147.2 104,-147.2 104,-128.2 8,-128.2"/>
<polygon fill="none" stroke="#000000" points="8,-128.2 8,-147.2 104,-147.2 104,-128.2 8,-128.2"/>
<text text-anchor="start" x="11" y="-134.3" font-family="Helvetica,sans-Serif" font-size="11.00" fill="#000000">&lt; 2</text>
<polygon fill="#ffffff" stroke="transparent" points="104,-128.2 104,-147.2 153,-147.2 153,-128.2 104,-128.2"/>
<polygon fill="none" stroke="#000000" points="104,-128.2 104,-147.2 153,-147.2 153,-128.2 104,-128.2"/>
<text text-anchor="start" x="143.8862" y="-134.3" font-family="Helvetica,sans-Serif" font-size="11.00" fill="#000000"> &#160;</text>
<polygon fill="#ffffff" stroke="transparent" points="153,-128.2 153,-147.2 224,-147.2 224,-128.2 153,-128.2"/>
<polygon fill="none" stroke="#000000" points="153,-128.2 153,-147.2 224,-147.2 224,-128.2 153,-128.2"/>
<text text-anchor="start" x="193.1755" y="-134.3" font-family="Helvetica,sans-Serif" font-size="11.00" fill="#000000">214 &gt;</text>
</a>
</g>
</g>
<!-- job_queue&#45;&gt;users -->
<g id="edge1" class="edge">
<title>job_queue:w&#45;&gt;users:e</title>
<path fill="none" stroke="#000000" d="M443.5682,-466.1316C363.1477,-465.2989 328.5503,-456.102 265,-398.2 232.8074,-368.8686 267.551,-309.2 224,-309.2"/>
<polygon fill="#000000" stroke="#000000" points="450.0001,-466.1621 457.9829,-469.8 454,-466.181 458,-466.2 458,-466.2 458,-466.2 454,-466.181 458.0171,-462.6 450.0001,-466.1621 450.0001,-466.1621"/>
<ellipse fill="none" stroke="#000000" cx="446.8001" cy="-466.1469" rx="3.2" ry="3.2"/>
</g>
<!-- schedulers -->
<g id="node3" class="node">
<title>schedulers</title>
<g id="a_node3"><a xlink:href="../../tables/schedulers.html" xlink:title="schedulers" target="_top">
<polygon fill="#ffffff" stroke="transparent" points="273,-216.7 273,-387.7 407,-387.7 407,-216.7 273,-216.7"/>
<polygon fill="#f5f5f5" stroke="transparent" points="273,-364.2 273,-387.2 407,-387.2 407,-364.2 273,-364.2"/>
<polygon fill="none" stroke="#000000" points="273,-364.2 273,-387.2 407,-387.2 407,-364.2 273,-364.2"/>
<text text-anchor="start" x="278" y="-373.3" font-family="Helvetica,sans-Serif" font-weight="bold" font-size="11.00" fill="#000000">schedulers</text>
<text text-anchor="start" x="372.0437" y="-372.3" font-family="Helvetica,sans-Serif" font-size="11.00" fill="#000000">[table]</text>
<polygon fill="none" stroke="#000000" points="273,-342.2 273,-364.2 407,-364.2 407,-342.2 273,-342.2"/>
<image xlink:href="../../images/primaryKeys.png" width="11px" height="12px" preserveAspectRatio="xMinYMin meet" x="278" y="-359.2"/>
<text text-anchor="start" x="293" y="-349.3" font-family="Helvetica,sans-Serif" font-size="11.00" fill="#000000">id</text>
<polygon fill="#ffffff" stroke="transparent" points="273,-320.2 273,-342.2 407,-342.2 407,-320.2 273,-320.2"/>
<polygon fill="none" stroke="#000000" points="273,-320.2 273,-342.2 407,-342.2 407,-320.2 273,-320.2"/>
<text text-anchor="start" x="293" y="-327.3" font-family="Helvetica,sans-Serif" font-size="11.00" fill="#000000">deleted</text>
<polygon fill="#c0c0c0" stroke="transparent" points="273,-298.2 273,-320.2 407,-320.2 407,-298.2 273,-298.2"/>
<polygon fill="none" stroke="#000000" points="273,-298.2 273,-320.2 407,-320.2 407,-298.2 273,-298.2"/>
<image xlink:href="../../images/foreignKeys.png" width="11px" height="12px" preserveAspectRatio="xMinYMin meet" x="278" y="-315.2"/>
<text text-anchor="start" x="293" y="-305.3" font-family="Helvetica,sans-Serif" font-size="11.00" fill="#000000">created_by</text>
<polygon fill="#c0c0c0" stroke="transparent" points="273,-276.2 273,-298.2 407,-298.2 407,-276.2 273,-276.2"/>
<polygon fill="none" stroke="#000000" points="273,-276.2 273,-298.2 407,-298.2 407,-276.2 273,-276.2"/>
<image xlink:href="../../images/foreignKeys.png" width="11px" height="12px" preserveAspectRatio="xMinYMin meet" x="278" y="-293.2"/>
<text text-anchor="start" x="293" y="-283.3" font-family="Helvetica,sans-Serif" font-size="11.00" fill="#000000">modified_user_id</text>
<polygon fill="#ffffff" stroke="transparent" points="273,-254.2 273,-276.2 407,-276.2 407,-254.2 273,-254.2"/>
<polygon fill="none" stroke="#000000" points="273,-254.2 273,-276.2 407,-276.2 407,-254.2 273,-254.2"/>
<text text-anchor="start" x="293" y="-261.3" font-family="Helvetica,sans-Serif" font-size="11.00" fill="#000000">date_time_start</text>
<polygon fill="none" stroke="#000000" points="273,-235.2 273,-254.2 407,-254.2 407,-235.2 273,-235.2"/>
<text text-anchor="start" x="276" y="-241.3" font-family="Helvetica,sans-Serif" font-size="11.00" fill="#000000">...</text>
<polygon fill="#ffffff" stroke="transparent" points="273,-216.2 273,-235.2 334,-235.2 334,-216.2 273,-216.2"/>
<polygon fill="none" stroke="#000000" points="273,-216.2 273,-235.2 334,-235.2 334,-216.2 273,-216.2"/>
<text text-anchor="start" x="276" y="-222.3" font-family="Helvetica,sans-Serif" font-size="11.00" fill="#000000">&lt; 2</text>
<polygon fill="#ffffff" stroke="transparent" points="334,-216.2 334,-235.2 366,-235.2 366,-216.2 334,-216.2"/>
<polygon fill="none" stroke="#000000" points="334,-216.2 334,-235.2 366,-235.2 366,-216.2 334,-216.2"/>
<text text-anchor="start" x="356.8862" y="-222.3" font-family="Helvetica,sans-Serif" font-size="11.00" fill="#000000"> &#160;</text>
<polygon fill="#ffffff" stroke="transparent" points="366,-216.2 366,-235.2 407,-235.2 407,-216.2 366,-216.2"/>
<polygon fill="none" stroke="#000000" points="366,-216.2 366,-235.2 407,-235.2 407,-216.2 366,-216.2"/>
<text text-anchor="start" x="388.4053" y="-222.3" font-family="Helvetica,sans-Serif" font-size="11.00" fill="#000000">1 &gt;</text>
</a>
</g>
</g>
<!-- job_queue&#45;&gt;schedulers -->
<g id="edge2" class="edge">
<title>job_queue:w&#45;&gt;schedulers:e</title>
<path fill="none" stroke="#000000" d="M443.6076,-337.0035C431.2761,-342.2887 425.3304,-353.2 407,-353.2"/>
<polygon fill="#000000" stroke="#000000" points="450.1476,-335.7296 458.6883,-337.7336 454.0738,-334.9648 458,-334.2 458,-334.2 458,-334.2 454.0738,-334.9648 457.3117,-330.6664 450.1476,-335.7296 450.1476,-335.7296"/>
<ellipse fill="none" stroke="#000000" cx="447.0066" cy="-336.3415" rx="3.2" ry="3.2"/>
</g>
<!-- schedulers&#45;&gt;users -->
<g id="edge3" class="edge">
<title>schedulers:w&#45;&gt;users:e</title>
<path fill="none" stroke="#000000" d="M258.4909,-309.2C247.1774,-309.2 239.9931,-309.2 224,-309.2"/>
<polygon fill="#000000" stroke="#000000" points="265,-309.2001 273,-312.8 269,-309.2 273,-309.2 273,-309.2 273,-309.2 269,-309.2 273,-305.6 265,-309.2001 265,-309.2001"/>
<ellipse fill="none" stroke="#000000" cx="261.8" cy="-309.2001" rx="3.2" ry="3.2"/>
</g>
<!-- schedulers&#45;&gt;users -->
<g id="edge4" class="edge">
<title>schedulers:w&#45;&gt;users:e</title>
<path fill="none" stroke="#000000" d="M258.6297,-290.6375C247.0865,-296.825 241.9041,-309.2 224,-309.2"/>
<polygon fill="#000000" stroke="#000000" points="265.2195,-289.0612 273.8375,-290.7012 269.1098,-288.1306 273,-287.2 273,-287.2 273,-287.2 269.1098,-288.1306 272.1625,-283.6988 265.2195,-289.0612 265.2195,-289.0612"/>
<ellipse fill="none" stroke="#000000" cx="262.1073" cy="-289.8057" rx="3.2" ry="3.2"/>
</g>
</g>
</svg>
