<?xml version="1.0" encoding="UTF-8" standalone="no"?>
<!DOCTYPE svg PUBLIC "-//W3C//DTD SVG 1.1//EN"
 "http://www.w3.org/Graphics/SVG/1.1/DTD/svg11.dtd">
<!-- Generated by graphviz version 2.40.1 (20161225.0304)
 -->
<!-- Title: oneDegreeRelationshipsDiagram Pages: 1 -->
<svg width="511pt" height="465pt"
 viewBox="0.00 0.00 511.00 464.70" xmlns="http://www.w3.org/2000/svg" xmlns:xlink="http://www.w3.org/1999/xlink">
<g id="graph0" class="graph" transform="scale(1 1) rotate(0) translate(4 460.7)">
<title>oneDegreeRelationshipsDiagram</title>
<polygon fill="#ffffff" stroke="transparent" points="-4,4 -4,-460.7 507,-460.7 507,4 -4,4"/>
<text text-anchor="middle" x="72.4936" y="-7.3" font-family="Helvetica,sans-Serif" font-size="11.00" fill="#000000">Generated by SchemaSpy</text>
<!-- leads_audit -->
<g id="node1" class="node">
<title>leads_audit</title>
<g id="a_node1"><a xlink:href="../../tables/leads_audit.html" xlink:title="leads_audit" target="_top">
<polygon fill="#ffffff" stroke="transparent" points="270,-186.7 270,-452.7 495,-452.7 495,-186.7 270,-186.7"/>
<polygon fill="#f5f5f5" stroke="transparent" points="272.5,-427.7 272.5,-450.7 493.5,-450.7 493.5,-427.7 272.5,-427.7"/>
<polygon fill="none" stroke="#000000" points="272.5,-427.7 272.5,-450.7 493.5,-450.7 493.5,-427.7 272.5,-427.7"/>
<text text-anchor="start" x="277.5" y="-436.8" font-family="Helvetica,sans-Serif" font-weight="bold" font-size="11.00" fill="#000000">leads_audit</text>
<text text-anchor="start" x="458.5437" y="-435.8" font-family="Helvetica,sans-Serif" font-size="11.00" fill="#000000">[table]</text>
<polygon fill="none" stroke="#000000" points="272.5,-405.7 272.5,-427.7 426.5,-427.7 426.5,-405.7 272.5,-405.7"/>
<image xlink:href="../../images/primaryKeys.png" width="11px" height="12px" preserveAspectRatio="xMinYMin meet" x="277.5" y="-422.7"/>
<text text-anchor="start" x="292.5" y="-412.8" font-family="Helvetica,sans-Serif" font-size="11.00" fill="#000000">id</text>
<polygon fill="none" stroke="#000000" points="426.5,-405.7 426.5,-427.7 493.5,-427.7 493.5,-405.7 426.5,-405.7"/>
<text text-anchor="start" x="429.5" y="-413.4" font-family="Helvetica,sans-Serif" font-size="11.00" fill="#000000">char[36]</text>
<polygon fill="#ffffff" stroke="transparent" points="272.5,-383.7 272.5,-405.7 426.5,-405.7 426.5,-383.7 272.5,-383.7"/>
<polygon fill="none" stroke="#000000" points="272.5,-383.7 272.5,-405.7 426.5,-405.7 426.5,-383.7 272.5,-383.7"/>
<image xlink:href="../../images/foreignKeys.png" width="11px" height="12px" preserveAspectRatio="xMinYMin meet" x="277.5" y="-400.7"/>
<text text-anchor="start" x="292.5" y="-390.8" font-family="Helvetica,sans-Serif" font-size="11.00" fill="#000000">parent_id</text>
<polygon fill="none" stroke="#000000" points="426.5,-383.7 426.5,-405.7 493.5,-405.7 493.5,-383.7 426.5,-383.7"/>
<text text-anchor="start" x="429.5" y="-391.4" font-family="Helvetica,sans-Serif" font-size="11.00" fill="#000000">char[36]</text>
<polygon fill="none" stroke="#000000" points="272.5,-361.7 272.5,-383.7 426.5,-383.7 426.5,-361.7 272.5,-361.7"/>
<text text-anchor="start" x="292.5" y="-368.8" font-family="Helvetica,sans-Serif" font-size="11.00" fill="#000000">date_created</text>
<polygon fill="none" stroke="#000000" points="426.5,-361.7 426.5,-383.7 493.5,-383.7 493.5,-361.7 426.5,-361.7"/>
<text text-anchor="start" x="429.5" y="-369.4" font-family="Helvetica,sans-Serif" font-size="11.00" fill="#000000">datetime[26]</text>
<polygon fill="none" stroke="#000000" points="272.5,-339.7 272.5,-361.7 426.5,-361.7 426.5,-339.7 272.5,-339.7"/>
<text text-anchor="start" x="292.5" y="-346.8" font-family="Helvetica,sans-Serif" font-size="11.00" fill="#000000">created_by</text>
<polygon fill="none" stroke="#000000" points="426.5,-339.7 426.5,-361.7 493.5,-361.7 493.5,-339.7 426.5,-339.7"/>
<text text-anchor="start" x="429.5" y="-347.4" font-family="Helvetica,sans-Serif" font-size="11.00" fill="#000000">varchar[36]</text>
<polygon fill="none" stroke="#000000" points="272.5,-317.7 272.5,-339.7 426.5,-339.7 426.5,-317.7 272.5,-317.7"/>
<text text-anchor="start" x="292.5" y="-324.8" font-family="Helvetica,sans-Serif" font-size="11.00" fill="#000000">field_name</text>
<polygon fill="none" stroke="#000000" points="426.5,-317.7 426.5,-339.7 493.5,-339.7 493.5,-317.7 426.5,-317.7"/>
<text text-anchor="start" x="429.4365" y="-325.4" font-family="Helvetica,sans-Serif" font-size="11.00" fill="#000000">varchar[100]</text>
<polygon fill="none" stroke="#000000" points="272.5,-295.7 272.5,-317.7 426.5,-317.7 426.5,-295.7 272.5,-295.7"/>
<text text-anchor="start" x="292.5" y="-302.8" font-family="Helvetica,sans-Serif" font-size="11.00" fill="#000000">data_type</text>
<polygon fill="none" stroke="#000000" points="426.5,-295.7 426.5,-317.7 493.5,-317.7 493.5,-295.7 426.5,-295.7"/>
<text text-anchor="start" x="429.4365" y="-303.4" font-family="Helvetica,sans-Serif" font-size="11.00" fill="#000000">varchar[100]</text>
<polygon fill="none" stroke="#000000" points="272.5,-273.7 272.5,-295.7 426.5,-295.7 426.5,-273.7 272.5,-273.7"/>
<text text-anchor="start" x="292.5" y="-280.8" font-family="Helvetica,sans-Serif" font-size="11.00" fill="#000000">before_value_string</text>
<polygon fill="none" stroke="#000000" points="426.5,-273.7 426.5,-295.7 493.5,-295.7 493.5,-273.7 426.5,-273.7"/>
<text text-anchor="start" x="429.4365" y="-281.4" font-family="Helvetica,sans-Serif" font-size="11.00" fill="#000000">varchar[255]</text>
<polygon fill="none" stroke="#000000" points="272.5,-251.7 272.5,-273.7 426.5,-273.7 426.5,-251.7 272.5,-251.7"/>
<text text-anchor="start" x="292.5" y="-258.8" font-family="Helvetica,sans-Serif" font-size="11.00" fill="#000000">after_value_string</text>
<polygon fill="none" stroke="#000000" points="426.5,-251.7 426.5,-273.7 493.5,-273.7 493.5,-251.7 426.5,-251.7"/>
<text text-anchor="start" x="429.4365" y="-259.4" font-family="Helvetica,sans-Serif" font-size="11.00" fill="#000000">varchar[255]</text>
<polygon fill="none" stroke="#000000" points="272.5,-229.7 272.5,-251.7 426.5,-251.7 426.5,-229.7 272.5,-229.7"/>
<text text-anchor="start" x="292.5" y="-236.8" font-family="Helvetica,sans-Serif" font-size="11.00" fill="#000000">before_value_text</text>
<polygon fill="none" stroke="#000000" points="426.5,-229.7 426.5,-251.7 493.5,-251.7 493.5,-229.7 426.5,-229.7"/>
<text text-anchor="start" x="429.5" y="-237.4" font-family="Helvetica,sans-Serif" font-size="11.00" fill="#000000">text[65535]</text>
<polygon fill="none" stroke="#000000" points="272.5,-207.7 272.5,-229.7 426.5,-229.7 426.5,-207.7 272.5,-207.7"/>
<text text-anchor="start" x="292.5" y="-214.8" font-family="Helvetica,sans-Serif" font-size="11.00" fill="#000000">after_value_text</text>
<polygon fill="none" stroke="#000000" points="426.5,-207.7 426.5,-229.7 493.5,-229.7 493.5,-207.7 426.5,-207.7"/>
<text text-anchor="start" x="429.5" y="-215.4" font-family="Helvetica,sans-Serif" font-size="11.00" fill="#000000">text[65535]</text>
<polygon fill="#ffffff" stroke="transparent" points="272.5,-188.7 272.5,-207.7 353.5,-207.7 353.5,-188.7 272.5,-188.7"/>
<polygon fill="none" stroke="#000000" points="272.5,-188.7 272.5,-207.7 353.5,-207.7 353.5,-188.7 272.5,-188.7"/>
<text text-anchor="start" x="275.5" y="-194.8" font-family="Helvetica,sans-Serif" font-size="11.00" fill="#000000">&lt; 1</text>
<polygon fill="#ffffff" stroke="transparent" points="353.5,-188.7 353.5,-207.7 426.5,-207.7 426.5,-188.7 353.5,-188.7"/>
<polygon fill="none" stroke="#000000" points="353.5,-188.7 353.5,-207.7 426.5,-207.7 426.5,-188.7 353.5,-188.7"/>
<text text-anchor="start" x="417.3862" y="-194.8" font-family="Helvetica,sans-Serif" font-size="11.00" fill="#000000"> &#160;</text>
<polygon fill="#ffffff" stroke="transparent" points="426.5,-188.7 426.5,-207.7 493.5,-207.7 493.5,-188.7 426.5,-188.7"/>
<polygon fill="none" stroke="#000000" points="426.5,-188.7 426.5,-207.7 493.5,-207.7 493.5,-188.7 426.5,-188.7"/>
<text text-anchor="start" x="474.9053" y="-194.8" font-family="Helvetica,sans-Serif" font-size="11.00" fill="#000000">0 &gt;</text>
<polygon fill="none" stroke="#000000" stroke-width="2" points="271,-187.7 271,-451.7 494,-451.7 494,-187.7 271,-187.7"/>
</a>
</g>
</g>
<!-- leads -->
<g id="node2" class="node">
<title>leads</title>
<g id="a_node2"><a xlink:href="../../tables/leads.html" xlink:title="leads" target="_top">
<polygon fill="#ffffff" stroke="transparent" points="8,-38.2 8,-429.2 221,-429.2 221,-38.2 8,-38.2"/>
<polygon fill="#f5f5f5" stroke="transparent" points="8.5,-405.7 8.5,-428.7 221.5,-428.7 221.5,-405.7 8.5,-405.7"/>
<polygon fill="none" stroke="#000000" points="8.5,-405.7 8.5,-428.7 221.5,-428.7 221.5,-405.7 8.5,-405.7"/>
<text text-anchor="start" x="13.5" y="-414.8" font-family="Helvetica,sans-Serif" font-weight="bold" font-size="11.00" fill="#000000">leads</text>
<text text-anchor="start" x="186.5437" y="-413.8" font-family="Helvetica,sans-Serif" font-size="11.00" fill="#000000">[table]</text>
<polygon fill="none" stroke="#000000" points="8.5,-383.7 8.5,-405.7 221.5,-405.7 221.5,-383.7 8.5,-383.7"/>
<image xlink:href="../../images/primaryKeys.png" width="11px" height="12px" preserveAspectRatio="xMinYMin meet" x="13.5" y="-400.7"/>
<text text-anchor="start" x="28.5" y="-390.8" font-family="Helvetica,sans-Serif" font-size="11.00" fill="#000000">id</text>
<polygon fill="#c0c0c0" stroke="transparent" points="8.5,-361.7 8.5,-383.7 221.5,-383.7 221.5,-361.7 8.5,-361.7"/>
<polygon fill="none" stroke="#000000" points="8.5,-361.7 8.5,-383.7 221.5,-383.7 221.5,-361.7 8.5,-361.7"/>
<image xlink:href="../../images/foreignKeys.png" width="11px" height="12px" preserveAspectRatio="xMinYMin meet" x="13.5" y="-378.7"/>
<text text-anchor="start" x="28.5" y="-368.8" font-family="Helvetica,sans-Serif" font-size="11.00" fill="#000000">modified_user_id</text>
<polygon fill="#c0c0c0" stroke="transparent" points="8.5,-339.7 8.5,-361.7 221.5,-361.7 221.5,-339.7 8.5,-339.7"/>
<polygon fill="none" stroke="#000000" points="8.5,-339.7 8.5,-361.7 221.5,-361.7 221.5,-339.7 8.5,-339.7"/>
<image xlink:href="../../images/foreignKeys.png" width="11px" height="12px" preserveAspectRatio="xMinYMin meet" x="13.5" y="-356.7"/>
<text text-anchor="start" x="28.5" y="-346.8" font-family="Helvetica,sans-Serif" font-size="11.00" fill="#000000">created_by</text>
<polygon fill="#ffffff" stroke="transparent" points="8.5,-317.7 8.5,-339.7 221.5,-339.7 221.5,-317.7 8.5,-317.7"/>
<polygon fill="none" stroke="#000000" points="8.5,-317.7 8.5,-339.7 221.5,-339.7 221.5,-317.7 8.5,-317.7"/>
<text text-anchor="start" x="28.5" y="-324.8" font-family="Helvetica,sans-Serif" font-size="11.00" fill="#000000">deleted</text>
<polygon fill="#c0c0c0" stroke="transparent" points="8.5,-295.7 8.5,-317.7 221.5,-317.7 221.5,-295.7 8.5,-295.7"/>
<polygon fill="none" stroke="#000000" points="8.5,-295.7 8.5,-317.7 221.5,-317.7 221.5,-295.7 8.5,-295.7"/>
<image xlink:href="../../images/foreignKeys.png" width="11px" height="12px" preserveAspectRatio="xMinYMin meet" x="13.5" y="-312.7"/>
<text text-anchor="start" x="28.5" y="-302.8" font-family="Helvetica,sans-Serif" font-size="11.00" fill="#000000">assigned_user_id</text>
<polygon fill="#ffffff" stroke="transparent" points="8.5,-273.7 8.5,-295.7 221.5,-295.7 221.5,-273.7 8.5,-273.7"/>
<polygon fill="none" stroke="#000000" points="8.5,-273.7 8.5,-295.7 221.5,-295.7 221.5,-273.7 8.5,-273.7"/>
<text text-anchor="start" x="28.5" y="-280.8" font-family="Helvetica,sans-Serif" font-size="11.00" fill="#000000">first_name</text>
<polygon fill="#ffffff" stroke="transparent" points="8.5,-251.7 8.5,-273.7 221.5,-273.7 221.5,-251.7 8.5,-251.7"/>
<polygon fill="none" stroke="#000000" points="8.5,-251.7 8.5,-273.7 221.5,-273.7 221.5,-251.7 8.5,-251.7"/>
<text text-anchor="start" x="28.5" y="-258.8" font-family="Helvetica,sans-Serif" font-size="11.00" fill="#000000">last_name</text>
<polygon fill="#ffffff" stroke="transparent" points="8.5,-229.7 8.5,-251.7 221.5,-251.7 221.5,-229.7 8.5,-229.7"/>
<polygon fill="none" stroke="#000000" points="8.5,-229.7 8.5,-251.7 221.5,-251.7 221.5,-229.7 8.5,-229.7"/>
<text text-anchor="start" x="28.5" y="-236.8" font-family="Helvetica,sans-Serif" font-size="11.00" fill="#000000">phone_work</text>
<polygon fill="#ffffff" stroke="transparent" points="8.5,-207.7 8.5,-229.7 221.5,-229.7 221.5,-207.7 8.5,-207.7"/>
<polygon fill="none" stroke="#000000" points="8.5,-207.7 8.5,-229.7 221.5,-229.7 221.5,-207.7 8.5,-207.7"/>
<text text-anchor="start" x="28.5" y="-214.8" font-family="Helvetica,sans-Serif" font-size="11.00" fill="#000000">status</text>
<polygon fill="#ffffff" stroke="transparent" points="8.5,-185.7 8.5,-207.7 221.5,-207.7 221.5,-185.7 8.5,-185.7"/>
<polygon fill="none" stroke="#000000" points="8.5,-185.7 8.5,-207.7 221.5,-207.7 221.5,-185.7 8.5,-185.7"/>
<image xlink:href="../../images/foreignKeys.png" width="11px" height="12px" preserveAspectRatio="xMinYMin meet" x="13.5" y="-202.7"/>
<text text-anchor="start" x="28.5" y="-192.8" font-family="Helvetica,sans-Serif" font-size="11.00" fill="#000000">reports_to_id</text>
<polygon fill="#ffffff" stroke="transparent" points="8.5,-163.7 8.5,-185.7 221.5,-185.7 221.5,-163.7 8.5,-163.7"/>
<polygon fill="none" stroke="#000000" points="8.5,-163.7 8.5,-185.7 221.5,-185.7 221.5,-163.7 8.5,-163.7"/>
<text text-anchor="start" x="28.5" y="-170.8" font-family="Helvetica,sans-Serif" font-size="11.00" fill="#000000">account_name</text>
<polygon fill="#ffffff" stroke="transparent" points="8.5,-141.7 8.5,-163.7 221.5,-163.7 221.5,-141.7 8.5,-141.7"/>
<polygon fill="none" stroke="#000000" points="8.5,-141.7 8.5,-163.7 221.5,-163.7 221.5,-141.7 8.5,-141.7"/>
<image xlink:href="../../images/foreignKeys.png" width="11px" height="12px" preserveAspectRatio="xMinYMin meet" x="13.5" y="-158.7"/>
<text text-anchor="start" x="28.5" y="-148.8" font-family="Helvetica,sans-Serif" font-size="11.00" fill="#000000">contact_id</text>
<polygon fill="#ffffff" stroke="transparent" points="8.5,-119.7 8.5,-141.7 221.5,-141.7 221.5,-119.7 8.5,-119.7"/>
<polygon fill="none" stroke="#000000" points="8.5,-119.7 8.5,-141.7 221.5,-141.7 221.5,-119.7 8.5,-119.7"/>
<image xlink:href="../../images/foreignKeys.png" width="11px" height="12px" preserveAspectRatio="xMinYMin meet" x="13.5" y="-136.7"/>
<text text-anchor="start" x="28.5" y="-126.8" font-family="Helvetica,sans-Serif" font-size="11.00" fill="#000000">account_id</text>
<polygon fill="#ffffff" stroke="transparent" points="8.5,-97.7 8.5,-119.7 221.5,-119.7 221.5,-97.7 8.5,-97.7"/>
<polygon fill="none" stroke="#000000" points="8.5,-97.7 8.5,-119.7 221.5,-119.7 221.5,-97.7 8.5,-97.7"/>
<image xlink:href="../../images/foreignKeys.png" width="11px" height="12px" preserveAspectRatio="xMinYMin meet" x="13.5" y="-114.7"/>
<text text-anchor="start" x="28.5" y="-104.8" font-family="Helvetica,sans-Serif" font-size="11.00" fill="#000000">opportunity_id</text>
<polygon fill="none" stroke="#000000" points="8.5,-75.7 8.5,-97.7 221.5,-97.7 221.5,-75.7 8.5,-75.7"/>
<image xlink:href="../../images/foreignKeys.png" width="11px" height="12px" preserveAspectRatio="xMinYMin meet" x="13.5" y="-92.7"/>
<text text-anchor="start" x="28.5" y="-82.8" font-family="Helvetica,sans-Serif" font-size="11.00" fill="#000000">campaign_id</text>
<polygon fill="none" stroke="#000000" points="8.5,-56.7 8.5,-75.7 221.5,-75.7 221.5,-56.7 8.5,-56.7"/>
<text text-anchor="start" x="11.5" y="-62.8" font-family="Helvetica,sans-Serif" font-size="11.00" fill="#000000">...</text>
<polygon fill="#ffffff" stroke="transparent" points="8.5,-37.7 8.5,-56.7 108.5,-56.7 108.5,-37.7 8.5,-37.7"/>
<polygon fill="none" stroke="#000000" points="8.5,-37.7 8.5,-56.7 108.5,-56.7 108.5,-37.7 8.5,-37.7"/>
<text text-anchor="start" x="11.5" y="-43.8" font-family="Helvetica,sans-Serif" font-size="11.00" fill="#000000">&lt; 10</text>
<polygon fill="#ffffff" stroke="transparent" points="108.5,-37.7 108.5,-56.7 157.5,-56.7 157.5,-37.7 108.5,-37.7"/>
<polygon fill="none" stroke="#000000" points="108.5,-37.7 108.5,-56.7 157.5,-56.7 157.5,-37.7 108.5,-37.7"/>
<text text-anchor="start" x="148.3862" y="-43.8" font-family="Helvetica,sans-Serif" font-size="11.00" fill="#000000"> &#160;</text>
<polygon fill="#ffffff" stroke="transparent" points="157.5,-37.7 157.5,-56.7 221.5,-56.7 221.5,-37.7 157.5,-37.7"/>
<polygon fill="none" stroke="#000000" points="157.5,-37.7 157.5,-56.7 221.5,-56.7 221.5,-37.7 157.5,-37.7"/>
<text text-anchor="start" x="196.7904" y="-43.8" font-family="Helvetica,sans-Serif" font-size="11.00" fill="#000000">17 &gt;</text>
</a>
</g>
</g>
<!-- leads_audit&#45;&gt;leads -->
<g id="edge1" class="edge">
<title>leads_audit:w&#45;&gt;leads:e</title>
<path fill="none" stroke="#000000" d="M257.776,-394.7C245.7815,-394.7 238.3229,-394.7 221.5,-394.7"/>
<polygon fill="#000000" stroke="#000000" points="264.5,-394.7001 272.5,-398.3 268.5,-394.7 272.5,-394.7 272.5,-394.7 272.5,-394.7 268.5,-394.7 272.5,-391.1 264.5,-394.7001 264.5,-394.7001"/>
<ellipse fill="none" stroke="#000000" cx="261.3" cy="-394.7001" rx="3.2" ry="3.2"/>
</g>
</g>
</svg>
