<?xml version="1.0" encoding="UTF-8" standalone="no"?>
<!DOCTYPE svg PUBLIC "-//W3C//DTD SVG 1.1//EN"
 "http://www.w3.org/Graphics/SVG/1.1/DTD/svg11.dtd">
<!-- Generated by graphviz version 2.40.1 (20161225.0304)
 -->
<!-- Title: oneDegreeRelationshipsDiagram Pages: 1 -->
<svg width="696pt" height="373pt"
 viewBox="0.00 0.00 696.00 372.90" xmlns="http://www.w3.org/2000/svg" xmlns:xlink="http://www.w3.org/1999/xlink">
<g id="graph0" class="graph" transform="scale(1 1) rotate(0) translate(4 368.9013)">
<title>oneDegreeRelationshipsDiagram</title>
<polygon fill="#ffffff" stroke="transparent" points="-4,4 -4,-368.9013 692,-368.9013 692,4 -4,4"/>
<text text-anchor="middle" x="72.4936" y="-7.3" font-family="Helvetica,sans-Serif" font-size="11.00" fill="#000000">Generated by SchemaSpy</text>
<!-- meetings -->
<g id="node1" class="node">
<title>meetings</title>
<g id="a_node1"><a xlink:href="../../tables/meetings.html" xlink:title="meetings" target="_top">
<polygon fill="#ffffff" stroke="transparent" points="273,-79.9013 273,-360.9013 435,-360.9013 435,-79.9013 273,-79.9013"/>
<polygon fill="#f5f5f5" stroke="transparent" points="273,-337.4013 273,-360.4013 435,-360.4013 435,-337.4013 273,-337.4013"/>
<polygon fill="none" stroke="#000000" points="273,-337.4013 273,-360.4013 435,-360.4013 435,-337.4013 273,-337.4013"/>
<text text-anchor="start" x="278" y="-346.5013" font-family="Helvetica,sans-Serif" font-weight="bold" font-size="11.00" fill="#000000">meetings</text>
<text text-anchor="start" x="400.0437" y="-345.5013" font-family="Helvetica,sans-Serif" font-size="11.00" fill="#000000">[table]</text>
<polygon fill="none" stroke="#000000" points="273,-315.4013 273,-337.4013 435,-337.4013 435,-315.4013 273,-315.4013"/>
<image xlink:href="../../images/primaryKeys.png" width="11px" height="12px" preserveAspectRatio="xMinYMin meet" x="278" y="-332.401"/>
<text text-anchor="start" x="293" y="-322.5013" font-family="Helvetica,sans-Serif" font-size="11.00" fill="#000000">id</text>
<polygon fill="#ffffff" stroke="transparent" points="273,-293.4013 273,-315.4013 435,-315.4013 435,-293.4013 273,-293.4013"/>
<polygon fill="none" stroke="#000000" points="273,-293.4013 273,-315.4013 435,-315.4013 435,-293.4013 273,-293.4013"/>
<text text-anchor="start" x="293" y="-300.5013" font-family="Helvetica,sans-Serif" font-size="11.00" fill="#000000">name</text>
<polygon fill="#c0c0c0" stroke="transparent" points="273,-271.4013 273,-293.4013 435,-293.4013 435,-271.4013 273,-271.4013"/>
<polygon fill="none" stroke="#000000" points="273,-271.4013 273,-293.4013 435,-293.4013 435,-271.4013 273,-271.4013"/>
<image xlink:href="../../images/foreignKeys.png" width="11px" height="12px" preserveAspectRatio="xMinYMin meet" x="278" y="-288.401"/>
<text text-anchor="start" x="293" y="-278.5013" font-family="Helvetica,sans-Serif" font-size="11.00" fill="#000000">modified_user_id</text>
<polygon fill="#c0c0c0" stroke="transparent" points="273,-249.4013 273,-271.4013 435,-271.4013 435,-249.4013 273,-249.4013"/>
<polygon fill="none" stroke="#000000" points="273,-249.4013 273,-271.4013 435,-271.4013 435,-249.4013 273,-249.4013"/>
<image xlink:href="../../images/foreignKeys.png" width="11px" height="12px" preserveAspectRatio="xMinYMin meet" x="278" y="-266.401"/>
<text text-anchor="start" x="293" y="-256.5013" font-family="Helvetica,sans-Serif" font-size="11.00" fill="#000000">created_by</text>
<polygon fill="#ffffff" stroke="transparent" points="273,-227.4013 273,-249.4013 435,-249.4013 435,-227.4013 273,-227.4013"/>
<polygon fill="none" stroke="#000000" points="273,-227.4013 273,-249.4013 435,-249.4013 435,-227.4013 273,-227.4013"/>
<text text-anchor="start" x="293" y="-234.5013" font-family="Helvetica,sans-Serif" font-size="11.00" fill="#000000">deleted</text>
<polygon fill="#c0c0c0" stroke="transparent" points="273,-205.4013 273,-227.4013 435,-227.4013 435,-205.4013 273,-205.4013"/>
<polygon fill="none" stroke="#000000" points="273,-205.4013 273,-227.4013 435,-227.4013 435,-205.4013 273,-205.4013"/>
<image xlink:href="../../images/foreignKeys.png" width="11px" height="12px" preserveAspectRatio="xMinYMin meet" x="278" y="-222.401"/>
<text text-anchor="start" x="293" y="-212.5013" font-family="Helvetica,sans-Serif" font-size="11.00" fill="#000000">assigned_user_id</text>
<polygon fill="#ffffff" stroke="transparent" points="273,-183.4013 273,-205.4013 435,-205.4013 435,-183.4013 273,-183.4013"/>
<polygon fill="none" stroke="#000000" points="273,-183.4013 273,-205.4013 435,-205.4013 435,-183.4013 273,-183.4013"/>
<text text-anchor="start" x="293" y="-190.5013" font-family="Helvetica,sans-Serif" font-size="11.00" fill="#000000">date_start</text>
<polygon fill="#ffffff" stroke="transparent" points="273,-161.4013 273,-183.4013 435,-183.4013 435,-161.4013 273,-161.4013"/>
<polygon fill="none" stroke="#000000" points="273,-161.4013 273,-183.4013 435,-183.4013 435,-161.4013 273,-161.4013"/>
<text text-anchor="start" x="293" y="-168.5013" font-family="Helvetica,sans-Serif" font-size="11.00" fill="#000000">parent_type</text>
<polygon fill="#ffffff" stroke="transparent" points="273,-139.4013 273,-161.4013 435,-161.4013 435,-139.4013 273,-139.4013"/>
<polygon fill="none" stroke="#000000" points="273,-139.4013 273,-161.4013 435,-161.4013 435,-139.4013 273,-139.4013"/>
<text text-anchor="start" x="293" y="-146.5013" font-family="Helvetica,sans-Serif" font-size="11.00" fill="#000000">status</text>
<polygon fill="#ffffff" stroke="transparent" points="273,-117.4013 273,-139.4013 435,-139.4013 435,-117.4013 273,-117.4013"/>
<polygon fill="none" stroke="#000000" points="273,-117.4013 273,-139.4013 435,-139.4013 435,-117.4013 273,-117.4013"/>
<image xlink:href="../../images/foreignKeys.png" width="11px" height="12px" preserveAspectRatio="xMinYMin meet" x="278" y="-134.401"/>
<text text-anchor="start" x="293" y="-124.5013" font-family="Helvetica,sans-Serif" font-size="11.00" fill="#000000">parent_id</text>
<polygon fill="none" stroke="#000000" points="273,-98.4013 273,-117.4013 435,-117.4013 435,-98.4013 273,-98.4013"/>
<text text-anchor="start" x="276" y="-104.5013" font-family="Helvetica,sans-Serif" font-size="11.00" fill="#000000">...</text>
<polygon fill="#ffffff" stroke="transparent" points="273,-79.4013 273,-98.4013 351,-98.4013 351,-79.4013 273,-79.4013"/>
<polygon fill="none" stroke="#000000" points="273,-79.4013 273,-98.4013 351,-98.4013 351,-79.4013 273,-79.4013"/>
<text text-anchor="start" x="276" y="-85.5013" font-family="Helvetica,sans-Serif" font-size="11.00" fill="#000000">&lt; 13</text>
<polygon fill="#ffffff" stroke="transparent" points="351,-79.4013 351,-98.4013 388,-98.4013 388,-79.4013 351,-79.4013"/>
<polygon fill="none" stroke="#000000" points="351,-79.4013 351,-98.4013 388,-98.4013 388,-79.4013 351,-79.4013"/>
<text text-anchor="start" x="378.8862" y="-85.5013" font-family="Helvetica,sans-Serif" font-size="11.00" fill="#000000"> &#160;</text>
<polygon fill="#ffffff" stroke="transparent" points="388,-79.4013 388,-98.4013 435,-98.4013 435,-79.4013 388,-79.4013"/>
<polygon fill="none" stroke="#000000" points="388,-79.4013 388,-98.4013 435,-98.4013 435,-79.4013 388,-79.4013"/>
<text text-anchor="start" x="416.4053" y="-85.5013" font-family="Helvetica,sans-Serif" font-size="11.00" fill="#000000">7 &gt;</text>
</a>
</g>
</g>
<!-- users -->
<g id="node2" class="node">
<title>users</title>
<g id="a_node2"><a xlink:href="../../tables/users.html" xlink:title="users" target="_top">
<polygon fill="#ffffff" stroke="transparent" points="8,-57.9013 8,-272.9013 224,-272.9013 224,-57.9013 8,-57.9013"/>
<polygon fill="#f5f5f5" stroke="transparent" points="8,-249.4013 8,-272.4013 224,-272.4013 224,-249.4013 8,-249.4013"/>
<polygon fill="none" stroke="#000000" points="8,-249.4013 8,-272.4013 224,-272.4013 224,-249.4013 8,-249.4013"/>
<text text-anchor="start" x="13" y="-258.5013" font-family="Helvetica,sans-Serif" font-weight="bold" font-size="11.00" fill="#000000">users</text>
<text text-anchor="start" x="189.0437" y="-257.5013" font-family="Helvetica,sans-Serif" font-size="11.00" fill="#000000">[table]</text>
<polygon fill="none" stroke="#000000" points="8,-227.4013 8,-249.4013 224,-249.4013 224,-227.4013 8,-227.4013"/>
<image xlink:href="../../images/primaryKeys.png" width="11px" height="12px" preserveAspectRatio="xMinYMin meet" x="13" y="-244.401"/>
<text text-anchor="start" x="28" y="-234.5013" font-family="Helvetica,sans-Serif" font-size="11.00" fill="#000000">id</text>
<polygon fill="#ffffff" stroke="transparent" points="8,-205.4013 8,-227.4013 224,-227.4013 224,-205.4013 8,-205.4013"/>
<polygon fill="none" stroke="#000000" points="8,-205.4013 8,-227.4013 224,-227.4013 224,-205.4013 8,-205.4013"/>
<text text-anchor="start" x="28" y="-212.5013" font-family="Helvetica,sans-Serif" font-size="11.00" fill="#000000">user_name</text>
<polygon fill="#ffffff" stroke="transparent" points="8,-183.4013 8,-205.4013 224,-205.4013 224,-183.4013 8,-183.4013"/>
<polygon fill="none" stroke="#000000" points="8,-183.4013 8,-205.4013 224,-205.4013 224,-183.4013 8,-183.4013"/>
<text text-anchor="start" x="28" y="-190.5013" font-family="Helvetica,sans-Serif" font-size="11.00" fill="#000000">first_name</text>
<polygon fill="#ffffff" stroke="transparent" points="8,-161.4013 8,-183.4013 224,-183.4013 224,-161.4013 8,-161.4013"/>
<polygon fill="none" stroke="#000000" points="8,-161.4013 8,-183.4013 224,-183.4013 224,-161.4013 8,-161.4013"/>
<text text-anchor="start" x="28" y="-168.5013" font-family="Helvetica,sans-Serif" font-size="11.00" fill="#000000">last_name</text>
<polygon fill="#ffffff" stroke="transparent" points="8,-139.4013 8,-161.4013 224,-161.4013 224,-139.4013 8,-139.4013"/>
<polygon fill="none" stroke="#000000" points="8,-139.4013 8,-161.4013 224,-161.4013 224,-139.4013 8,-139.4013"/>
<text text-anchor="start" x="28" y="-146.5013" font-family="Helvetica,sans-Serif" font-size="11.00" fill="#000000">status</text>
<polygon fill="#c0c0c0" stroke="transparent" points="8,-117.4013 8,-139.4013 224,-139.4013 224,-117.4013 8,-117.4013"/>
<polygon fill="none" stroke="#000000" points="8,-117.4013 8,-139.4013 224,-139.4013 224,-117.4013 8,-117.4013"/>
<image xlink:href="../../images/foreignKeys.png" width="11px" height="12px" preserveAspectRatio="xMinYMin meet" x="13" y="-134.401"/>
<text text-anchor="start" x="28" y="-124.5013" font-family="Helvetica,sans-Serif" font-size="11.00" fill="#000000">reports_to_id</text>
<polygon fill="#ffffff" stroke="transparent" points="8,-95.4013 8,-117.4013 224,-117.4013 224,-95.4013 8,-95.4013"/>
<polygon fill="none" stroke="#000000" points="8,-95.4013 8,-117.4013 224,-117.4013 224,-95.4013 8,-95.4013"/>
<text text-anchor="start" x="28" y="-102.5013" font-family="Helvetica,sans-Serif" font-size="11.00" fill="#000000">is_group</text>
<polygon fill="none" stroke="#000000" points="8,-76.4013 8,-95.4013 224,-95.4013 224,-76.4013 8,-76.4013"/>
<text text-anchor="start" x="11" y="-82.5013" font-family="Helvetica,sans-Serif" font-size="11.00" fill="#000000">...</text>
<polygon fill="#ffffff" stroke="transparent" points="8,-57.4013 8,-76.4013 104,-76.4013 104,-57.4013 8,-57.4013"/>
<polygon fill="none" stroke="#000000" points="8,-57.4013 8,-76.4013 104,-76.4013 104,-57.4013 8,-57.4013"/>
<text text-anchor="start" x="11" y="-63.5013" font-family="Helvetica,sans-Serif" font-size="11.00" fill="#000000">&lt; 2</text>
<polygon fill="#ffffff" stroke="transparent" points="104,-57.4013 104,-76.4013 153,-76.4013 153,-57.4013 104,-57.4013"/>
<polygon fill="none" stroke="#000000" points="104,-57.4013 104,-76.4013 153,-76.4013 153,-57.4013 104,-57.4013"/>
<text text-anchor="start" x="143.8862" y="-63.5013" font-family="Helvetica,sans-Serif" font-size="11.00" fill="#000000"> &#160;</text>
<polygon fill="#ffffff" stroke="transparent" points="153,-57.4013 153,-76.4013 224,-76.4013 224,-57.4013 153,-57.4013"/>
<polygon fill="none" stroke="#000000" points="153,-57.4013 153,-76.4013 224,-76.4013 224,-57.4013 153,-57.4013"/>
<text text-anchor="start" x="193.1755" y="-63.5013" font-family="Helvetica,sans-Serif" font-size="11.00" fill="#000000">214 &gt;</text>
</a>
</g>
</g>
<!-- meetings&#45;&gt;users -->
<g id="edge1" class="edge">
<title>meetings:w&#45;&gt;users:e</title>
<path fill="none" stroke="#000000" d="M258.6297,-219.8388C247.0865,-226.0263 241.9041,-238.4013 224,-238.4013"/>
<polygon fill="#000000" stroke="#000000" points="265.2195,-218.2625 273.8375,-219.9025 269.1098,-217.3319 273,-216.4013 273,-216.4013 273,-216.4013 269.1098,-217.3319 272.1625,-212.9 265.2195,-218.2625 265.2195,-218.2625"/>
<ellipse fill="none" stroke="#000000" cx="262.1073" cy="-219.0069" rx="3.2" ry="3.2"/>
</g>
<!-- meetings&#45;&gt;users -->
<g id="edge2" class="edge">
<title>meetings:w&#45;&gt;users:e</title>
<path fill="none" stroke="#000000" d="M258.6297,-256.9638C247.0865,-250.7763 241.9041,-238.4013 224,-238.4013"/>
<polygon fill="#000000" stroke="#000000" points="265.2195,-258.54 272.1625,-263.9025 269.1098,-259.4707 273,-260.4013 273,-260.4013 273,-260.4013 269.1098,-259.4707 273.8375,-256.9 265.2195,-258.54 265.2195,-258.54"/>
<ellipse fill="none" stroke="#000000" cx="262.1073" cy="-257.7956" rx="3.2" ry="3.2"/>
</g>
<!-- meetings&#45;&gt;users -->
<g id="edge3" class="edge">
<title>meetings:w&#45;&gt;users:e</title>
<path fill="none" stroke="#000000" d="M259.3171,-277.6925C246.0046,-266.3417 247.324,-238.4013 224,-238.4013"/>
<polygon fill="#000000" stroke="#000000" points="265.4354,-279.798 271.8285,-285.8053 269.2177,-281.0996 273,-282.4013 273,-282.4013 273,-282.4013 269.2177,-281.0996 274.1715,-278.9972 265.4354,-279.798 265.4354,-279.798"/>
<ellipse fill="none" stroke="#000000" cx="262.4096" cy="-278.7566" rx="3.2" ry="3.2"/>
</g>
<!-- meetings_users -->
<g id="node3" class="node">
<title>meetings_users</title>
<g id="a_node3"><a xlink:href="../../tables/meetings_users.html" xlink:title="meetings_users" target="_top">
<polygon fill="#ffffff" stroke="transparent" points="484,-59.4013 484,-259.4013 680,-259.4013 680,-59.4013 484,-59.4013"/>
<polygon fill="#f5f5f5" stroke="transparent" points="486,-234.4013 486,-257.4013 678,-257.4013 678,-234.4013 486,-234.4013"/>
<polygon fill="none" stroke="#000000" points="486,-234.4013 486,-257.4013 678,-257.4013 678,-234.4013 486,-234.4013"/>
<text text-anchor="start" x="491" y="-243.5013" font-family="Helvetica,sans-Serif" font-weight="bold" font-size="11.00" fill="#000000">meetings_users</text>
<text text-anchor="start" x="643.0437" y="-242.5013" font-family="Helvetica,sans-Serif" font-size="11.00" fill="#000000">[table]</text>
<polygon fill="none" stroke="#000000" points="486,-212.4013 486,-234.4013 612,-234.4013 612,-212.4013 486,-212.4013"/>
<image xlink:href="../../images/primaryKeys.png" width="11px" height="12px" preserveAspectRatio="xMinYMin meet" x="491" y="-229.401"/>
<text text-anchor="start" x="506" y="-219.5013" font-family="Helvetica,sans-Serif" font-size="11.00" fill="#000000">id</text>
<polygon fill="none" stroke="#000000" points="612,-212.4013 612,-234.4013 678,-234.4013 678,-212.4013 612,-212.4013"/>
<text text-anchor="start" x="615" y="-220.1013" font-family="Helvetica,sans-Serif" font-size="11.00" fill="#000000">varchar[36]</text>
<polygon fill="#ffffff" stroke="transparent" points="486,-190.4013 486,-212.4013 612,-212.4013 612,-190.4013 486,-190.4013"/>
<polygon fill="none" stroke="#000000" points="486,-190.4013 486,-212.4013 612,-212.4013 612,-190.4013 486,-190.4013"/>
<image xlink:href="../../images/foreignKeys.png" width="11px" height="12px" preserveAspectRatio="xMinYMin meet" x="491" y="-207.401"/>
<text text-anchor="start" x="506" y="-197.5013" font-family="Helvetica,sans-Serif" font-size="11.00" fill="#000000">meeting_id</text>
<polygon fill="none" stroke="#000000" points="612,-190.4013 612,-212.4013 678,-212.4013 678,-190.4013 612,-190.4013"/>
<text text-anchor="start" x="615" y="-198.1013" font-family="Helvetica,sans-Serif" font-size="11.00" fill="#000000">varchar[36]</text>
<polygon fill="#ffffff" stroke="transparent" points="486,-168.4013 486,-190.4013 612,-190.4013 612,-168.4013 486,-168.4013"/>
<polygon fill="none" stroke="#000000" points="486,-168.4013 486,-190.4013 612,-190.4013 612,-168.4013 486,-168.4013"/>
<image xlink:href="../../images/foreignKeys.png" width="11px" height="12px" preserveAspectRatio="xMinYMin meet" x="491" y="-185.401"/>
<text text-anchor="start" x="506" y="-175.5013" font-family="Helvetica,sans-Serif" font-size="11.00" fill="#000000">user_id</text>
<polygon fill="none" stroke="#000000" points="612,-168.4013 612,-190.4013 678,-190.4013 678,-168.4013 612,-168.4013"/>
<text text-anchor="start" x="615" y="-176.1013" font-family="Helvetica,sans-Serif" font-size="11.00" fill="#000000">varchar[36]</text>
<polygon fill="none" stroke="#000000" points="486,-146.4013 486,-168.4013 612,-168.4013 612,-146.4013 486,-146.4013"/>
<text text-anchor="start" x="506" y="-153.5013" font-family="Helvetica,sans-Serif" font-size="11.00" fill="#000000">required</text>
<polygon fill="none" stroke="#000000" points="612,-146.4013 612,-168.4013 678,-168.4013 678,-146.4013 612,-146.4013"/>
<text text-anchor="start" x="615" y="-154.1013" font-family="Helvetica,sans-Serif" font-size="11.00" fill="#000000">varchar[1]</text>
<polygon fill="none" stroke="#000000" points="486,-124.4013 486,-146.4013 612,-146.4013 612,-124.4013 486,-124.4013"/>
<text text-anchor="start" x="506" y="-131.5013" font-family="Helvetica,sans-Serif" font-size="11.00" fill="#000000">accept_status</text>
<polygon fill="none" stroke="#000000" points="612,-124.4013 612,-146.4013 678,-146.4013 678,-124.4013 612,-124.4013"/>
<text text-anchor="start" x="615" y="-132.1013" font-family="Helvetica,sans-Serif" font-size="11.00" fill="#000000">varchar[25]</text>
<polygon fill="none" stroke="#000000" points="486,-102.4013 486,-124.4013 612,-124.4013 612,-102.4013 486,-102.4013"/>
<text text-anchor="start" x="506" y="-109.5013" font-family="Helvetica,sans-Serif" font-size="11.00" fill="#000000">date_modified</text>
<polygon fill="none" stroke="#000000" points="612,-102.4013 612,-124.4013 678,-124.4013 678,-102.4013 612,-102.4013"/>
<text text-anchor="start" x="614.7401" y="-110.1013" font-family="Helvetica,sans-Serif" font-size="11.00" fill="#000000">datetime[26]</text>
<polygon fill="none" stroke="#000000" points="486,-80.4013 486,-102.4013 612,-102.4013 612,-80.4013 486,-80.4013"/>
<text text-anchor="start" x="506" y="-87.5013" font-family="Helvetica,sans-Serif" font-size="11.00" fill="#000000">deleted</text>
<polygon fill="none" stroke="#000000" points="612,-80.4013 612,-102.4013 678,-102.4013 678,-80.4013 612,-80.4013"/>
<text text-anchor="start" x="615" y="-88.1013" font-family="Helvetica,sans-Serif" font-size="11.00" fill="#000000">bit[1]</text>
<polygon fill="#ffffff" stroke="transparent" points="486,-61.4013 486,-80.4013 553,-80.4013 553,-61.4013 486,-61.4013"/>
<polygon fill="none" stroke="#000000" points="486,-61.4013 486,-80.4013 553,-80.4013 553,-61.4013 486,-61.4013"/>
<text text-anchor="start" x="489" y="-67.5013" font-family="Helvetica,sans-Serif" font-size="11.00" fill="#000000">&lt; 2</text>
<polygon fill="#ffffff" stroke="transparent" points="553,-61.4013 553,-80.4013 612,-80.4013 612,-61.4013 553,-61.4013"/>
<polygon fill="none" stroke="#000000" points="553,-61.4013 553,-80.4013 612,-80.4013 612,-61.4013 553,-61.4013"/>
<text text-anchor="start" x="602.8862" y="-67.5013" font-family="Helvetica,sans-Serif" font-size="11.00" fill="#000000"> &#160;</text>
<polygon fill="#ffffff" stroke="transparent" points="612,-61.4013 612,-80.4013 678,-80.4013 678,-61.4013 612,-61.4013"/>
<polygon fill="none" stroke="#000000" points="612,-61.4013 612,-80.4013 678,-80.4013 678,-61.4013 612,-61.4013"/>
<text text-anchor="start" x="659.4053" y="-67.5013" font-family="Helvetica,sans-Serif" font-size="11.00" fill="#000000">0 &gt;</text>
<polygon fill="none" stroke="#000000" stroke-width="2" points="485,-60.4013 485,-258.4013 679,-258.4013 679,-60.4013 485,-60.4013"/>
</a>
</g>
</g>
<!-- meetings_users&#45;&gt;meetings -->
<g id="edge4" class="edge">
<title>meetings_users:w&#45;&gt;meetings:e</title>
<path fill="none" stroke="#000000" d="M471.872,-204.7447C438.2453,-224.6232 489.1421,-326.4013 435,-326.4013"/>
<polygon fill="#000000" stroke="#000000" points="478.215,-203.2436 486.8291,-204.9045 482.1075,-202.3224 486,-201.4013 486,-201.4013 486,-201.4013 482.1075,-202.3224 485.1709,-197.898 478.215,-203.2436 478.215,-203.2436"/>
<ellipse fill="none" stroke="#000000" cx="475.101" cy="-203.9806" rx="3.2" ry="3.2"/>
</g>
<!-- meetings_users&#45;&gt;users -->
<g id="edge5" class="edge">
<title>meetings_users:w&#45;&gt;users:e</title>
<path fill="none" stroke="#000000" d="M471.5612,-176.3C444.5723,-161.2549 481.2703,-95.5315 443,-69.4013 377.6655,-24.7921 327.1857,-20.4982 265,-69.4013 204.2459,-117.1785 301.2899,-238.4013 224,-238.4013"/>
<polygon fill="#000000" stroke="#000000" points="478.1784,-177.7212 485.244,-182.921 482.0892,-178.5612 486,-179.4013 486,-179.4013 486,-179.4013 482.0892,-178.5612 486.756,-175.8815 478.1784,-177.7212 478.1784,-177.7212"/>
<ellipse fill="none" stroke="#000000" cx="475.0497" cy="-177.0492" rx="3.2" ry="3.2"/>
</g>
</g>
</svg>
