<?xml version="1.0" encoding="UTF-8" standalone="no"?>
<!DOCTYPE svg PUBLIC "-//W3C//DTD SVG 1.1//EN"
 "http://www.w3.org/Graphics/SVG/1.1/DTD/svg11.dtd">
<!-- Generated by graphviz version 2.40.1 (20161225.0304)
 -->
<!-- Title: twoDegreesRelationshipsDiagram Pages: 1 -->
<svg width="1184pt" height="1168pt"
 viewBox="0.00 0.00 1184.00 1167.62" xmlns="http://www.w3.org/2000/svg" xmlns:xlink="http://www.w3.org/1999/xlink">
<g id="graph0" class="graph" transform="scale(1 1) rotate(0) translate(4 1163.6214)">
<title>twoDegreesRelationshipsDiagram</title>
<polygon fill="#ffffff" stroke="transparent" points="-4,4 -4,-1163.6214 1180,-1163.6214 1180,4 -4,4"/>
<text text-anchor="middle" x="72.4936" y="-7.3" font-family="Helvetica,sans-Serif" font-size="11.00" fill="#000000">Generated by SchemaSpy</text>
<!-- accounts -->
<g id="node1" class="node">
<title>accounts</title>
<g id="a_node1"><a xlink:href="../../tables/accounts.html" xlink:title="accounts" target="_top">
<polygon fill="#ffffff" stroke="transparent" points="160,-725.0645 160,-786.0645 247,-786.0645 247,-725.0645 160,-725.0645"/>
<polygon fill="#f5f5f5" stroke="transparent" points="160.5,-762.5645 160.5,-785.5645 247.5,-785.5645 247.5,-762.5645 160.5,-762.5645"/>
<polygon fill="none" stroke="#000000" points="160.5,-762.5645 160.5,-785.5645 247.5,-785.5645 247.5,-762.5645 160.5,-762.5645"/>
<text text-anchor="start" x="165.4918" y="-771.6645" font-family="Helvetica,sans-Serif" font-weight="bold" font-size="11.00" fill="#000000">accounts</text>
<text text-anchor="start" x="213.0219" y="-770.6645" font-family="Helvetica,sans-Serif" font-size="11.00" fill="#000000">[table]</text>
<polygon fill="none" stroke="#000000" points="160.5,-743.5645 160.5,-762.5645 247.5,-762.5645 247.5,-743.5645 160.5,-743.5645"/>
<text text-anchor="start" x="163.5" y="-749.6645" font-family="Helvetica,sans-Serif" font-size="11.00" fill="#000000">...</text>
<polygon fill="#ffffff" stroke="transparent" points="160.5,-724.5645 160.5,-743.5645 194.5,-743.5645 194.5,-724.5645 160.5,-724.5645"/>
<polygon fill="none" stroke="#000000" points="160.5,-724.5645 160.5,-743.5645 194.5,-743.5645 194.5,-724.5645 160.5,-724.5645"/>
<text text-anchor="start" x="163.5" y="-730.6645" font-family="Helvetica,sans-Serif" font-size="11.00" fill="#000000">&lt; 6</text>
<polygon fill="#ffffff" stroke="transparent" points="194.5,-724.5645 194.5,-743.5645 213.5,-743.5645 213.5,-724.5645 194.5,-724.5645"/>
<polygon fill="none" stroke="#000000" points="194.5,-724.5645 194.5,-743.5645 213.5,-743.5645 213.5,-724.5645 194.5,-724.5645"/>
<text text-anchor="start" x="204.3862" y="-730.6645" font-family="Helvetica,sans-Serif" font-size="11.00" fill="#000000"> &#160;</text>
<polygon fill="#ffffff" stroke="transparent" points="213.5,-724.5645 213.5,-743.5645 247.5,-743.5645 247.5,-724.5645 213.5,-724.5645"/>
<polygon fill="none" stroke="#000000" points="213.5,-724.5645 213.5,-743.5645 247.5,-743.5645 247.5,-724.5645 213.5,-724.5645"/>
<text text-anchor="start" x="222.7904" y="-730.6645" font-family="Helvetica,sans-Serif" font-size="11.00" fill="#000000">23 &gt;</text>
</a>
</g>
</g>
<!-- jjwg_maps -->
<g id="node2" class="node">
<title>jjwg_maps</title>
<g id="a_node2"><a xlink:href="../../tables/jjwg_maps.html" xlink:title="jjwg_maps" target="_top">
<polygon fill="#ffffff" stroke="transparent" points="8,-698.0645 8,-759.0645 102,-759.0645 102,-698.0645 8,-698.0645"/>
<polygon fill="#f5f5f5" stroke="transparent" points="8,-735.5645 8,-758.5645 102,-758.5645 102,-735.5645 8,-735.5645"/>
<polygon fill="none" stroke="#000000" points="8,-735.5645 8,-758.5645 102,-758.5645 102,-735.5645 8,-735.5645"/>
<text text-anchor="start" x="12.5279" y="-744.6645" font-family="Helvetica,sans-Serif" font-weight="bold" font-size="11.00" fill="#000000">jjwg_maps</text>
<text text-anchor="start" x="67.5219" y="-743.6645" font-family="Helvetica,sans-Serif" font-size="11.00" fill="#000000">[table]</text>
<polygon fill="none" stroke="#000000" points="8,-716.5645 8,-735.5645 102,-735.5645 102,-716.5645 8,-716.5645"/>
<text text-anchor="start" x="11" y="-722.6645" font-family="Helvetica,sans-Serif" font-size="11.00" fill="#000000">...</text>
<polygon fill="#ffffff" stroke="transparent" points="8,-697.5645 8,-716.5645 46,-716.5645 46,-697.5645 8,-697.5645"/>
<polygon fill="none" stroke="#000000" points="8,-697.5645 8,-716.5645 46,-716.5645 46,-697.5645 8,-697.5645"/>
<text text-anchor="start" x="11" y="-703.6645" font-family="Helvetica,sans-Serif" font-size="11.00" fill="#000000">&lt; 3</text>
<polygon fill="#ffffff" stroke="transparent" points="46,-697.5645 46,-716.5645 66,-716.5645 66,-697.5645 46,-697.5645"/>
<polygon fill="none" stroke="#000000" points="46,-697.5645 46,-716.5645 66,-716.5645 66,-697.5645 46,-697.5645"/>
<text text-anchor="start" x="56.8862" y="-703.6645" font-family="Helvetica,sans-Serif" font-size="11.00" fill="#000000"> &#160;</text>
<polygon fill="#ffffff" stroke="transparent" points="66,-697.5645 66,-716.5645 102,-716.5645 102,-697.5645 66,-697.5645"/>
<polygon fill="none" stroke="#000000" points="66,-697.5645 66,-716.5645 102,-716.5645 102,-697.5645 66,-697.5645"/>
<text text-anchor="start" x="77.2904" y="-703.6645" font-family="Helvetica,sans-Serif" font-size="11.00" fill="#000000">12 &gt;</text>
</a>
</g>
</g>
<!-- accounts&#45;&gt;jjwg_maps -->
<g id="edge1" class="edge">
<title>accounts:w&#45;&gt;jjwg_maps:e</title>
<path fill="none" stroke="#000000" d="M150.1517,-751.1884C131.0161,-745.6864 126.7206,-725.5645 102,-725.5645"/>
<polygon fill="#000000" stroke="#000000" points="160.2343,-748.4939 159.1797,-756.4241 157.5937,-756.2132 158.6482,-748.283 160.2343,-748.4939"/>
<polyline fill="none" stroke="#000000" points="160.5,-752.5645 156.5349,-752.0372 "/>
<ellipse fill="none" stroke="#000000" cx="153.3628" cy="-751.6154" rx="3.2" ry="3.2"/>
</g>
<!-- aos_contracts -->
<g id="node3" class="node">
<title>aos_contracts</title>
<g id="a_node3"><a xlink:href="../../tables/aos_contracts.html" xlink:title="aos_contracts" target="_top">
<polygon fill="#ffffff" stroke="transparent" points="305,-560.0645 305,-621.0645 416,-621.0645 416,-560.0645 305,-560.0645"/>
<polygon fill="#f5f5f5" stroke="transparent" points="305.5,-597.5645 305.5,-620.5645 416.5,-620.5645 416.5,-597.5645 305.5,-597.5645"/>
<polygon fill="none" stroke="#000000" points="305.5,-597.5645 305.5,-620.5645 416.5,-620.5645 416.5,-597.5645 305.5,-597.5645"/>
<text text-anchor="start" x="310.2675" y="-606.6645" font-family="Helvetica,sans-Serif" font-weight="bold" font-size="11.00" fill="#000000">aos_contracts</text>
<text text-anchor="start" x="382.0219" y="-605.6645" font-family="Helvetica,sans-Serif" font-size="11.00" fill="#000000">[table]</text>
<polygon fill="none" stroke="#000000" points="305.5,-578.5645 305.5,-597.5645 416.5,-597.5645 416.5,-578.5645 305.5,-578.5645"/>
<text text-anchor="start" x="308.5" y="-584.6645" font-family="Helvetica,sans-Serif" font-size="11.00" fill="#000000">...</text>
<polygon fill="#ffffff" stroke="transparent" points="305.5,-559.5645 305.5,-578.5645 351.5,-578.5645 351.5,-559.5645 305.5,-559.5645"/>
<polygon fill="none" stroke="#000000" points="305.5,-559.5645 305.5,-578.5645 351.5,-578.5645 351.5,-559.5645 305.5,-559.5645"/>
<text text-anchor="start" x="308.5" y="-565.6645" font-family="Helvetica,sans-Serif" font-size="11.00" fill="#000000">&lt; 6</text>
<polygon fill="#ffffff" stroke="transparent" points="351.5,-559.5645 351.5,-578.5645 376.5,-578.5645 376.5,-559.5645 351.5,-559.5645"/>
<polygon fill="none" stroke="#000000" points="351.5,-559.5645 351.5,-578.5645 376.5,-578.5645 376.5,-559.5645 351.5,-559.5645"/>
<text text-anchor="start" x="367.3862" y="-565.6645" font-family="Helvetica,sans-Serif" font-size="11.00" fill="#000000"> &#160;</text>
<polygon fill="#ffffff" stroke="transparent" points="376.5,-559.5645 376.5,-578.5645 416.5,-578.5645 416.5,-559.5645 376.5,-559.5645"/>
<polygon fill="none" stroke="#000000" points="376.5,-559.5645 376.5,-578.5645 416.5,-578.5645 416.5,-559.5645 376.5,-559.5645"/>
<text text-anchor="start" x="391.7904" y="-565.6645" font-family="Helvetica,sans-Serif" font-size="11.00" fill="#000000">11 &gt;</text>
</a>
</g>
</g>
<!-- aos_contracts&#45;&gt;accounts -->
<g id="edge2" class="edge">
<title>aos_contracts:w&#45;&gt;accounts:e</title>
<path fill="none" stroke="#000000" d="M291.2605,-590.025C240.9396,-610.5505 319.6147,-752.5645 247.5,-752.5645"/>
<polygon fill="#000000" stroke="#000000" points="297.6168,-588.9267 306.113,-591.1119 301.5584,-588.2456 305.5,-587.5645 305.5,-587.5645 305.5,-587.5645 301.5584,-588.2456 304.887,-584.0171 297.6168,-588.9267 297.6168,-588.9267"/>
<ellipse fill="none" stroke="#000000" cx="294.4635" cy="-589.4716" rx="3.2" ry="3.2"/>
</g>
<!-- opportunities -->
<g id="node4" class="node">
<title>opportunities</title>
<g id="a_node4"><a xlink:href="../../tables/opportunities.html" xlink:title="opportunities" target="_top">
<polygon fill="#ffffff" stroke="transparent" points="151,-560.0645 151,-621.0645 256,-621.0645 256,-560.0645 151,-560.0645"/>
<polygon fill="#f5f5f5" stroke="transparent" points="151.5,-597.5645 151.5,-620.5645 256.5,-620.5645 256.5,-597.5645 151.5,-597.5645"/>
<polygon fill="none" stroke="#000000" points="151.5,-597.5645 151.5,-620.5645 256.5,-620.5645 256.5,-597.5645 151.5,-597.5645"/>
<text text-anchor="start" x="156.0191" y="-606.6645" font-family="Helvetica,sans-Serif" font-weight="bold" font-size="11.00" fill="#000000">opportunities</text>
<text text-anchor="start" x="222.0219" y="-605.6645" font-family="Helvetica,sans-Serif" font-size="11.00" fill="#000000">[table]</text>
<polygon fill="none" stroke="#000000" points="151.5,-578.5645 151.5,-597.5645 256.5,-597.5645 256.5,-578.5645 151.5,-578.5645"/>
<text text-anchor="start" x="154.5" y="-584.6645" font-family="Helvetica,sans-Serif" font-size="11.00" fill="#000000">...</text>
<polygon fill="#ffffff" stroke="transparent" points="151.5,-559.5645 151.5,-578.5645 194.5,-578.5645 194.5,-559.5645 151.5,-559.5645"/>
<polygon fill="none" stroke="#000000" points="151.5,-559.5645 151.5,-578.5645 194.5,-578.5645 194.5,-559.5645 151.5,-559.5645"/>
<text text-anchor="start" x="154.5" y="-565.6645" font-family="Helvetica,sans-Serif" font-size="11.00" fill="#000000">&lt; 6</text>
<polygon fill="#ffffff" stroke="transparent" points="194.5,-559.5645 194.5,-578.5645 217.5,-578.5645 217.5,-559.5645 194.5,-559.5645"/>
<polygon fill="none" stroke="#000000" points="194.5,-559.5645 194.5,-578.5645 217.5,-578.5645 217.5,-559.5645 194.5,-559.5645"/>
<text text-anchor="start" x="208.3862" y="-565.6645" font-family="Helvetica,sans-Serif" font-size="11.00" fill="#000000"> &#160;</text>
<polygon fill="#ffffff" stroke="transparent" points="217.5,-559.5645 217.5,-578.5645 256.5,-578.5645 256.5,-559.5645 217.5,-559.5645"/>
<polygon fill="none" stroke="#000000" points="217.5,-559.5645 217.5,-578.5645 256.5,-578.5645 256.5,-559.5645 217.5,-559.5645"/>
<text text-anchor="start" x="231.7904" y="-565.6645" font-family="Helvetica,sans-Serif" font-size="11.00" fill="#000000">17 &gt;</text>
</a>
</g>
</g>
<!-- aos_contracts&#45;&gt;opportunities -->
<g id="edge3" class="edge">
<title>aos_contracts:w&#45;&gt;opportunities:e</title>
<path fill="none" stroke="#000000" d="M290.9909,-587.5645C279.6774,-587.5645 272.4931,-587.5645 256.5,-587.5645"/>
<polygon fill="#000000" stroke="#000000" points="297.5,-587.5645 305.5,-591.1645 301.5,-587.5645 305.5,-587.5645 305.5,-587.5645 305.5,-587.5645 301.5,-587.5645 305.5,-583.9645 297.5,-587.5645 297.5,-587.5645"/>
<ellipse fill="none" stroke="#000000" cx="294.3" cy="-587.5646" rx="3.2" ry="3.2"/>
</g>
<!-- opportunities&#45;&gt;jjwg_maps -->
<g id="edge44" class="edge">
<title>opportunities:w&#45;&gt;jjwg_maps:e</title>
<path fill="none" stroke="#000000" d="M140.922,-589.1143C95.8725,-604.2754 163.0872,-725.5645 102,-725.5645"/>
<polygon fill="#000000" stroke="#000000" points="150.1286,-583.7227 151.2883,-591.6382 149.7052,-591.8702 148.5455,-583.9547 150.1286,-583.7227"/>
<polyline fill="none" stroke="#000000" points="151.5,-587.5645 147.5423,-588.1444 "/>
<ellipse fill="none" stroke="#000000" cx="144.3761" cy="-588.6083" rx="3.2" ry="3.2"/>
</g>
<!-- cases -->
<g id="node5" class="node">
<title>cases</title>
<g id="a_node5"><a xlink:href="../../tables/cases.html" xlink:title="cases" target="_top">
<polygon fill="#ffffff" stroke="transparent" points="325,-670.0645 325,-731.0645 396,-731.0645 396,-670.0645 325,-670.0645"/>
<polygon fill="#f5f5f5" stroke="transparent" points="325.5,-707.5645 325.5,-730.5645 396.5,-730.5645 396.5,-707.5645 325.5,-707.5645"/>
<polygon fill="none" stroke="#000000" points="325.5,-707.5645 325.5,-730.5645 396.5,-730.5645 396.5,-707.5645 325.5,-707.5645"/>
<text text-anchor="start" x="330.1351" y="-716.6645" font-family="Helvetica,sans-Serif" font-weight="bold" font-size="11.00" fill="#000000">cases</text>
<text text-anchor="start" x="362.0219" y="-715.6645" font-family="Helvetica,sans-Serif" font-size="11.00" fill="#000000">[table]</text>
<polygon fill="none" stroke="#000000" points="325.5,-688.5645 325.5,-707.5645 396.5,-707.5645 396.5,-688.5645 325.5,-688.5645"/>
<text text-anchor="start" x="328.5" y="-694.6645" font-family="Helvetica,sans-Serif" font-size="11.00" fill="#000000">...</text>
<polygon fill="#ffffff" stroke="transparent" points="325.5,-669.5645 325.5,-688.5645 351.5,-688.5645 351.5,-669.5645 325.5,-669.5645"/>
<polygon fill="none" stroke="#000000" points="325.5,-669.5645 325.5,-688.5645 351.5,-688.5645 351.5,-669.5645 325.5,-669.5645"/>
<text text-anchor="start" x="328.5" y="-675.6645" font-family="Helvetica,sans-Serif" font-size="11.00" fill="#000000">&lt; 6</text>
<polygon fill="#ffffff" stroke="transparent" points="351.5,-669.5645 351.5,-688.5645 366.5,-688.5645 366.5,-669.5645 351.5,-669.5645"/>
<polygon fill="none" stroke="#000000" points="351.5,-669.5645 351.5,-688.5645 366.5,-688.5645 366.5,-669.5645 351.5,-669.5645"/>
<text text-anchor="start" x="357.3862" y="-675.6645" font-family="Helvetica,sans-Serif" font-size="11.00" fill="#000000"> &#160;</text>
<polygon fill="#ffffff" stroke="transparent" points="366.5,-669.5645 366.5,-688.5645 396.5,-688.5645 396.5,-669.5645 366.5,-669.5645"/>
<polygon fill="none" stroke="#000000" points="366.5,-669.5645 366.5,-688.5645 396.5,-688.5645 396.5,-669.5645 366.5,-669.5645"/>
<text text-anchor="start" x="371.7904" y="-675.6645" font-family="Helvetica,sans-Serif" font-size="11.00" fill="#000000">15 &gt;</text>
</a>
</g>
</g>
<!-- cases&#45;&gt;accounts -->
<g id="edge4" class="edge">
<title>cases:w&#45;&gt;accounts:e</title>
<path fill="none" stroke="#000000" d="M310.9746,-700.2173C284.0289,-711.2037 284.2846,-752.5645 247.5,-752.5645"/>
<polygon fill="#000000" stroke="#000000" points="317.6302,-699.0018 326.1468,-701.1059 321.5651,-698.2831 325.5,-697.5645 325.5,-697.5645 325.5,-697.5645 321.5651,-698.2831 324.8532,-694.0231 317.6302,-699.0018 317.6302,-699.0018"/>
<ellipse fill="none" stroke="#000000" cx="314.4822" cy="-699.5767" rx="3.2" ry="3.2"/>
</g>
<!-- cases&#45;&gt;jjwg_maps -->
<g id="edge5" class="edge">
<title>cases:w&#45;&gt;jjwg_maps:e</title>
<path fill="none" stroke="#000000" d="M314.8777,-697.5812C242.0443,-697.8233 219.5804,-700.8268 143,-714.5645 124.4298,-717.8958 120.8667,-725.5645 102,-725.5645"/>
<polygon fill="#000000" stroke="#000000" points="324.6937,-693.5658 324.7063,-701.5657 323.1063,-701.5683 323.0937,-693.5683 324.6937,-693.5658"/>
<polyline fill="none" stroke="#000000" points="325.5,-697.5645 321.5,-697.5708 "/>
<ellipse fill="none" stroke="#000000" cx="318.3" cy="-697.5759" rx="3.2" ry="3.2"/>
</g>
<!-- emails_beans -->
<g id="node6" class="node">
<title>emails_beans</title>
<g id="a_node6"><a xlink:href="../../tables/emails_beans.html" xlink:title="emails_beans" target="_top">
<polygon fill="#ffffff" stroke="transparent" points="764,-301.0645 764,-362.0645 874,-362.0645 874,-301.0645 764,-301.0645"/>
<polygon fill="#f5f5f5" stroke="transparent" points="764,-338.5645 764,-361.5645 874,-361.5645 874,-338.5645 764,-338.5645"/>
<polygon fill="none" stroke="#000000" points="764,-338.5645 764,-361.5645 874,-361.5645 874,-338.5645 764,-338.5645"/>
<text text-anchor="start" x="768.576" y="-347.6645" font-family="Helvetica,sans-Serif" font-weight="bold" font-size="11.00" fill="#000000">emails_beans</text>
<text text-anchor="start" x="839.5219" y="-346.6645" font-family="Helvetica,sans-Serif" font-size="11.00" fill="#000000">[table]</text>
<polygon fill="none" stroke="#000000" points="764,-319.5645 764,-338.5645 874,-338.5645 874,-319.5645 764,-319.5645"/>
<text text-anchor="start" x="767" y="-325.6645" font-family="Helvetica,sans-Serif" font-size="11.00" fill="#000000">...</text>
<polygon fill="#ffffff" stroke="transparent" points="764,-300.5645 764,-319.5645 820,-319.5645 820,-300.5645 764,-300.5645"/>
<polygon fill="none" stroke="#000000" points="764,-300.5645 764,-319.5645 820,-319.5645 820,-300.5645 764,-300.5645"/>
<text text-anchor="start" x="767" y="-306.6645" font-family="Helvetica,sans-Serif" font-size="11.00" fill="#000000">&lt; 14</text>
<polygon fill="#ffffff" stroke="transparent" points="820,-300.5645 820,-319.5645 847,-319.5645 847,-300.5645 820,-300.5645"/>
<polygon fill="none" stroke="#000000" points="820,-300.5645 820,-319.5645 847,-319.5645 847,-300.5645 820,-300.5645"/>
<text text-anchor="start" x="837.8862" y="-306.6645" font-family="Helvetica,sans-Serif" font-size="11.00" fill="#000000"> &#160;</text>
<polygon fill="#ffffff" stroke="transparent" points="847,-300.5645 847,-319.5645 874,-319.5645 874,-300.5645 847,-300.5645"/>
<polygon fill="none" stroke="#000000" points="847,-300.5645 847,-319.5645 874,-319.5645 874,-300.5645 847,-300.5645"/>
<text text-anchor="start" x="864.8862" y="-306.6645" font-family="Helvetica,sans-Serif" font-size="11.00" fill="#000000"> &#160;</text>
</a>
</g>
</g>
<!-- emails_beans&#45;&gt;accounts -->
<g id="edge6" class="edge">
<title>emails_beans:w&#45;&gt;accounts:e</title>
<path fill="none" stroke="#000000" d="M749.5705,-328.3943C624.3979,-325.4258 580.7881,-285.1492 457,-329.5645 439.1632,-335.9644 441.0213,-348.2346 424,-356.5645 371.996,-382.0141 336.032,-342.8023 297,-385.5645 241.5208,-446.3458 329.794,-752.5645 247.5,-752.5645"/>
<polygon fill="#000000" stroke="#000000" points="756.0006,-328.4701 763.9575,-332.1642 760.0003,-328.5173 764,-328.5645 764,-328.5645 764,-328.5645 760.0003,-328.5173 764.0425,-324.9647 756.0006,-328.4701 756.0006,-328.4701"/>
<ellipse fill="none" stroke="#000000" cx="752.8008" cy="-328.4324" rx="3.2" ry="3.2"/>
</g>
<!-- emails_beans&#45;&gt;aos_contracts -->
<g id="edge7" class="edge">
<title>emails_beans:w&#45;&gt;aos_contracts:e</title>
<path fill="none" stroke="#000000" d="M749.5711,-330.9844C688.8657,-343.6534 467.9119,-402.191 457,-413.5645 402.0301,-470.8598 495.9005,-587.5645 416.5,-587.5645"/>
<polygon fill="#000000" stroke="#000000" points="756.1102,-329.8878 764.5955,-332.1149 760.0551,-329.2261 764,-328.5645 764,-328.5645 764,-328.5645 760.0551,-329.2261 763.4045,-325.0141 756.1102,-329.8878 756.1102,-329.8878"/>
<ellipse fill="none" stroke="#000000" cx="752.9543" cy="-330.4171" rx="3.2" ry="3.2"/>
</g>
<!-- emails_beans&#45;&gt;opportunities -->
<g id="edge12" class="edge">
<title>emails_beans:w&#45;&gt;opportunities:e</title>
<path fill="none" stroke="#000000" d="M749.3388,-328.154C703.1059,-325.4565 687.7991,-310.2346 635,-305.5645 556.1965,-298.5943 531.9907,-280.3661 457,-305.5645 439.5581,-311.4253 440.6172,-322.6627 424,-330.5645 371.5287,-355.5157 336.789,-319.2249 297,-361.5645 262.0591,-398.7452 307.5223,-587.5645 256.5,-587.5645"/>
<polygon fill="#000000" stroke="#000000" points="756.0031,-328.3405 763.8992,-332.1631 760.0016,-328.4525 764,-328.5645 764,-328.5645 764,-328.5645 760.0016,-328.4525 764.1008,-324.9659 756.0031,-328.3405 756.0031,-328.3405"/>
<ellipse fill="none" stroke="#000000" cx="752.8044" cy="-328.2509" rx="3.2" ry="3.2"/>
</g>
<!-- emails_beans&#45;&gt;cases -->
<g id="edge9" class="edge">
<title>emails_beans:w&#45;&gt;cases:e</title>
<path fill="none" stroke="#000000" d="M749.7019,-332.4621C683.4237,-360.7718 481.6136,-534.5965 457,-565.5645 416.8453,-616.0857 461.0352,-697.5645 396.5,-697.5645"/>
<polygon fill="#000000" stroke="#000000" points="756.2816,-330.6685 764.9468,-332.0378 760.1408,-329.6165 764,-328.5645 764,-328.5645 764,-328.5645 760.1408,-329.6165 763.0532,-325.0912 756.2816,-330.6685 756.2816,-330.6685"/>
<ellipse fill="none" stroke="#000000" cx="753.1943" cy="-331.5101" rx="3.2" ry="3.2"/>
</g>
<!-- bugs -->
<g id="node7" class="node">
<title>bugs</title>
<g id="a_node7"><a xlink:href="../../tables/bugs.html" xlink:title="bugs" target="_top">
<polygon fill="#ffffff" stroke="transparent" points="327.5,-396.0645 327.5,-457.0645 393.5,-457.0645 393.5,-396.0645 327.5,-396.0645"/>
<polygon fill="#f5f5f5" stroke="transparent" points="327.5,-433.5645 327.5,-456.5645 393.5,-456.5645 393.5,-433.5645 327.5,-433.5645"/>
<polygon fill="none" stroke="#000000" points="327.5,-433.5645 327.5,-456.5645 393.5,-456.5645 393.5,-433.5645 327.5,-433.5645"/>
<text text-anchor="start" x="332.0777" y="-442.6645" font-family="Helvetica,sans-Serif" font-weight="bold" font-size="11.00" fill="#000000">bugs</text>
<text text-anchor="start" x="359.0219" y="-441.6645" font-family="Helvetica,sans-Serif" font-size="11.00" fill="#000000">[table]</text>
<polygon fill="none" stroke="#000000" points="327.5,-414.5645 327.5,-433.5645 393.5,-433.5645 393.5,-414.5645 327.5,-414.5645"/>
<text text-anchor="start" x="330.5" y="-420.6645" font-family="Helvetica,sans-Serif" font-size="11.00" fill="#000000">...</text>
<polygon fill="#ffffff" stroke="transparent" points="327.5,-395.5645 327.5,-414.5645 351.5,-414.5645 351.5,-395.5645 327.5,-395.5645"/>
<polygon fill="none" stroke="#000000" points="327.5,-395.5645 327.5,-414.5645 351.5,-414.5645 351.5,-395.5645 327.5,-395.5645"/>
<text text-anchor="start" x="330.5" y="-401.6645" font-family="Helvetica,sans-Serif" font-size="11.00" fill="#000000">&lt; 5</text>
<polygon fill="#ffffff" stroke="transparent" points="351.5,-395.5645 351.5,-414.5645 364.5,-414.5645 364.5,-395.5645 351.5,-395.5645"/>
<polygon fill="none" stroke="#000000" points="351.5,-395.5645 351.5,-414.5645 364.5,-414.5645 364.5,-395.5645 351.5,-395.5645"/>
<text text-anchor="start" x="355.3862" y="-401.6645" font-family="Helvetica,sans-Serif" font-size="11.00" fill="#000000"> &#160;</text>
<polygon fill="#ffffff" stroke="transparent" points="364.5,-395.5645 364.5,-414.5645 393.5,-414.5645 393.5,-395.5645 364.5,-395.5645"/>
<polygon fill="none" stroke="#000000" points="364.5,-395.5645 364.5,-414.5645 393.5,-414.5645 393.5,-395.5645 364.5,-395.5645"/>
<text text-anchor="start" x="368.7904" y="-401.6645" font-family="Helvetica,sans-Serif" font-size="11.00" fill="#000000">13 &gt;</text>
</a>
</g>
</g>
<!-- emails_beans&#45;&gt;bugs -->
<g id="edge8" class="edge">
<title>emails_beans:w&#45;&gt;bugs:e</title>
<path fill="none" stroke="#000000" d="M749.4555,-328.5901C673.1501,-328.8724 514.9028,-331.952 457,-359.5645 420.8323,-376.812 433.5697,-423.5645 393.5,-423.5645"/>
<polygon fill="#000000" stroke="#000000" points="756,-328.5786 764.0064,-332.1645 760,-328.5716 764,-328.5645 764,-328.5645 764,-328.5645 760,-328.5716 763.9936,-324.9645 756,-328.5786 756,-328.5786"/>
<ellipse fill="none" stroke="#000000" cx="752.8" cy="-328.5843" rx="3.2" ry="3.2"/>
</g>
<!-- leads -->
<g id="node8" class="node">
<title>leads</title>
<g id="a_node8"><a xlink:href="../../tables/leads.html" xlink:title="leads" target="_top">
<polygon fill="#ffffff" stroke="transparent" points="326,-967.0645 326,-1028.0645 395,-1028.0645 395,-967.0645 326,-967.0645"/>
<polygon fill="#f5f5f5" stroke="transparent" points="326.5,-1004.5645 326.5,-1027.5645 395.5,-1027.5645 395.5,-1004.5645 326.5,-1004.5645"/>
<polygon fill="none" stroke="#000000" points="326.5,-1004.5645 326.5,-1027.5645 395.5,-1027.5645 395.5,-1004.5645 326.5,-1004.5645"/>
<text text-anchor="start" x="331.3572" y="-1013.6645" font-family="Helvetica,sans-Serif" font-weight="bold" font-size="11.00" fill="#000000">leads</text>
<text text-anchor="start" x="361.0219" y="-1012.6645" font-family="Helvetica,sans-Serif" font-size="11.00" fill="#000000">[table]</text>
<polygon fill="none" stroke="#000000" points="326.5,-985.5645 326.5,-1004.5645 395.5,-1004.5645 395.5,-985.5645 326.5,-985.5645"/>
<text text-anchor="start" x="329.5" y="-991.6645" font-family="Helvetica,sans-Serif" font-size="11.00" fill="#000000">...</text>
<polygon fill="#ffffff" stroke="transparent" points="326.5,-966.5645 326.5,-985.5645 354.5,-985.5645 354.5,-966.5645 326.5,-966.5645"/>
<polygon fill="none" stroke="#000000" points="326.5,-966.5645 326.5,-985.5645 354.5,-985.5645 354.5,-966.5645 326.5,-966.5645"/>
<text text-anchor="start" x="329.5" y="-972.6645" font-family="Helvetica,sans-Serif" font-size="11.00" fill="#000000">&lt; 10</text>
<polygon fill="#ffffff" stroke="transparent" points="354.5,-966.5645 354.5,-985.5645 367.5,-985.5645 367.5,-966.5645 354.5,-966.5645"/>
<polygon fill="none" stroke="#000000" points="354.5,-966.5645 354.5,-985.5645 367.5,-985.5645 367.5,-966.5645 354.5,-966.5645"/>
<text text-anchor="start" x="358.3862" y="-972.6645" font-family="Helvetica,sans-Serif" font-size="11.00" fill="#000000"> &#160;</text>
<polygon fill="#ffffff" stroke="transparent" points="367.5,-966.5645 367.5,-985.5645 395.5,-985.5645 395.5,-966.5645 367.5,-966.5645"/>
<polygon fill="none" stroke="#000000" points="367.5,-966.5645 367.5,-985.5645 395.5,-985.5645 395.5,-966.5645 367.5,-966.5645"/>
<text text-anchor="start" x="370.7904" y="-972.6645" font-family="Helvetica,sans-Serif" font-size="11.00" fill="#000000">17 &gt;</text>
</a>
</g>
</g>
<!-- emails_beans&#45;&gt;leads -->
<g id="edge10" class="edge">
<title>emails_beans:w&#45;&gt;leads:e</title>
<path fill="none" stroke="#000000" d="M749.4038,-329.4547C702.4587,-335.5562 690.8313,-372.4262 668,-421.5645 622.9477,-518.5276 702.8942,-818.9695 635,-901.5645 582.9692,-964.8612 530.8673,-914.106 457,-949.5645 426.4666,-964.2214 429.369,-994.5645 395.5,-994.5645"/>
<polygon fill="#000000" stroke="#000000" points="756.0148,-329.0515 764.2192,-332.1578 760.0074,-328.808 764,-328.5645 764,-328.5645 764,-328.5645 760.0074,-328.808 763.7808,-324.9712 756.0148,-329.0515 756.0148,-329.0515"/>
<ellipse fill="none" stroke="#000000" cx="752.8208" cy="-329.2463" rx="3.2" ry="3.2"/>
</g>
<!-- meetings -->
<g id="node9" class="node">
<title>meetings</title>
<g id="a_node9"><a xlink:href="../../tables/meetings.html" xlink:title="meetings" target="_top">
<polygon fill="#ffffff" stroke="transparent" points="465,-610.0645 465,-891.0645 627,-891.0645 627,-610.0645 465,-610.0645"/>
<polygon fill="#f5f5f5" stroke="transparent" points="465,-867.5645 465,-890.5645 627,-890.5645 627,-867.5645 465,-867.5645"/>
<polygon fill="none" stroke="#000000" points="465,-867.5645 465,-890.5645 627,-890.5645 627,-867.5645 465,-867.5645"/>
<text text-anchor="start" x="470" y="-876.6645" font-family="Helvetica,sans-Serif" font-weight="bold" font-size="11.00" fill="#000000">meetings</text>
<text text-anchor="start" x="592.0437" y="-875.6645" font-family="Helvetica,sans-Serif" font-size="11.00" fill="#000000">[table]</text>
<polygon fill="none" stroke="#000000" points="465,-845.5645 465,-867.5645 627,-867.5645 627,-845.5645 465,-845.5645"/>
<image xlink:href="../../images/primaryKeys.png" width="11px" height="12px" preserveAspectRatio="xMinYMin meet" x="470" y="-862.564"/>
<text text-anchor="start" x="485" y="-852.6645" font-family="Helvetica,sans-Serif" font-size="11.00" fill="#000000">id</text>
<polygon fill="#ffffff" stroke="transparent" points="465,-823.5645 465,-845.5645 627,-845.5645 627,-823.5645 465,-823.5645"/>
<polygon fill="none" stroke="#000000" points="465,-823.5645 465,-845.5645 627,-845.5645 627,-823.5645 465,-823.5645"/>
<text text-anchor="start" x="485" y="-830.6645" font-family="Helvetica,sans-Serif" font-size="11.00" fill="#000000">name</text>
<polygon fill="#c0c0c0" stroke="transparent" points="465,-801.5645 465,-823.5645 627,-823.5645 627,-801.5645 465,-801.5645"/>
<polygon fill="none" stroke="#000000" points="465,-801.5645 465,-823.5645 627,-823.5645 627,-801.5645 465,-801.5645"/>
<image xlink:href="../../images/foreignKeys.png" width="11px" height="12px" preserveAspectRatio="xMinYMin meet" x="470" y="-818.564"/>
<text text-anchor="start" x="485" y="-808.6645" font-family="Helvetica,sans-Serif" font-size="11.00" fill="#000000">modified_user_id</text>
<polygon fill="#c0c0c0" stroke="transparent" points="465,-779.5645 465,-801.5645 627,-801.5645 627,-779.5645 465,-779.5645"/>
<polygon fill="none" stroke="#000000" points="465,-779.5645 465,-801.5645 627,-801.5645 627,-779.5645 465,-779.5645"/>
<image xlink:href="../../images/foreignKeys.png" width="11px" height="12px" preserveAspectRatio="xMinYMin meet" x="470" y="-796.564"/>
<text text-anchor="start" x="485" y="-786.6645" font-family="Helvetica,sans-Serif" font-size="11.00" fill="#000000">created_by</text>
<polygon fill="#ffffff" stroke="transparent" points="465,-757.5645 465,-779.5645 627,-779.5645 627,-757.5645 465,-757.5645"/>
<polygon fill="none" stroke="#000000" points="465,-757.5645 465,-779.5645 627,-779.5645 627,-757.5645 465,-757.5645"/>
<text text-anchor="start" x="485" y="-764.6645" font-family="Helvetica,sans-Serif" font-size="11.00" fill="#000000">deleted</text>
<polygon fill="#c0c0c0" stroke="transparent" points="465,-735.5645 465,-757.5645 627,-757.5645 627,-735.5645 465,-735.5645"/>
<polygon fill="none" stroke="#000000" points="465,-735.5645 465,-757.5645 627,-757.5645 627,-735.5645 465,-735.5645"/>
<image xlink:href="../../images/foreignKeys.png" width="11px" height="12px" preserveAspectRatio="xMinYMin meet" x="470" y="-752.564"/>
<text text-anchor="start" x="485" y="-742.6645" font-family="Helvetica,sans-Serif" font-size="11.00" fill="#000000">assigned_user_id</text>
<polygon fill="#ffffff" stroke="transparent" points="465,-713.5645 465,-735.5645 627,-735.5645 627,-713.5645 465,-713.5645"/>
<polygon fill="none" stroke="#000000" points="465,-713.5645 465,-735.5645 627,-735.5645 627,-713.5645 465,-713.5645"/>
<text text-anchor="start" x="485" y="-720.6645" font-family="Helvetica,sans-Serif" font-size="11.00" fill="#000000">date_start</text>
<polygon fill="#ffffff" stroke="transparent" points="465,-691.5645 465,-713.5645 627,-713.5645 627,-691.5645 465,-691.5645"/>
<polygon fill="none" stroke="#000000" points="465,-691.5645 465,-713.5645 627,-713.5645 627,-691.5645 465,-691.5645"/>
<text text-anchor="start" x="485" y="-698.6645" font-family="Helvetica,sans-Serif" font-size="11.00" fill="#000000">parent_type</text>
<polygon fill="#ffffff" stroke="transparent" points="465,-669.5645 465,-691.5645 627,-691.5645 627,-669.5645 465,-669.5645"/>
<polygon fill="none" stroke="#000000" points="465,-669.5645 465,-691.5645 627,-691.5645 627,-669.5645 465,-669.5645"/>
<text text-anchor="start" x="485" y="-676.6645" font-family="Helvetica,sans-Serif" font-size="11.00" fill="#000000">status</text>
<polygon fill="#ffffff" stroke="transparent" points="465,-647.5645 465,-669.5645 627,-669.5645 627,-647.5645 465,-647.5645"/>
<polygon fill="none" stroke="#000000" points="465,-647.5645 465,-669.5645 627,-669.5645 627,-647.5645 465,-647.5645"/>
<image xlink:href="../../images/foreignKeys.png" width="11px" height="12px" preserveAspectRatio="xMinYMin meet" x="470" y="-664.564"/>
<text text-anchor="start" x="485" y="-654.6645" font-family="Helvetica,sans-Serif" font-size="11.00" fill="#000000">parent_id</text>
<polygon fill="none" stroke="#000000" points="465,-628.5645 465,-647.5645 627,-647.5645 627,-628.5645 465,-628.5645"/>
<text text-anchor="start" x="468" y="-634.6645" font-family="Helvetica,sans-Serif" font-size="11.00" fill="#000000">...</text>
<polygon fill="#ffffff" stroke="transparent" points="465,-609.5645 465,-628.5645 543,-628.5645 543,-609.5645 465,-609.5645"/>
<polygon fill="none" stroke="#000000" points="465,-609.5645 465,-628.5645 543,-628.5645 543,-609.5645 465,-609.5645"/>
<text text-anchor="start" x="468" y="-615.6645" font-family="Helvetica,sans-Serif" font-size="11.00" fill="#000000">&lt; 13</text>
<polygon fill="#ffffff" stroke="transparent" points="543,-609.5645 543,-628.5645 580,-628.5645 580,-609.5645 543,-609.5645"/>
<polygon fill="none" stroke="#000000" points="543,-609.5645 543,-628.5645 580,-628.5645 580,-609.5645 543,-609.5645"/>
<text text-anchor="start" x="570.8862" y="-615.6645" font-family="Helvetica,sans-Serif" font-size="11.00" fill="#000000"> &#160;</text>
<polygon fill="#ffffff" stroke="transparent" points="580,-609.5645 580,-628.5645 627,-628.5645 627,-609.5645 580,-609.5645"/>
<polygon fill="none" stroke="#000000" points="580,-609.5645 580,-628.5645 627,-628.5645 627,-609.5645 580,-609.5645"/>
<text text-anchor="start" x="608.4053" y="-615.6645" font-family="Helvetica,sans-Serif" font-size="11.00" fill="#000000">7 &gt;</text>
</a>
</g>
</g>
<!-- emails_beans&#45;&gt;meetings -->
<g id="edge11" class="edge">
<title>emails_beans:w&#45;&gt;meetings:e</title>
<path fill="none" stroke="#000000" d="M749.4181,-329.4615C702.5678,-335.6077 691.4518,-372.7193 668,-421.5645 646.9875,-465.3291 675.5475,-856.5645 627,-856.5645"/>
<polygon fill="#000000" stroke="#000000" points="756.0151,-329.0557 764.2211,-332.1577 760.0075,-328.8101 764,-328.5645 764,-328.5645 764,-328.5645 760.0075,-328.8101 763.7789,-324.9713 756.0151,-329.0557 756.0151,-329.0557"/>
<ellipse fill="none" stroke="#000000" cx="752.8211" cy="-329.2522" rx="3.2" ry="3.2"/>
</g>
<!-- project -->
<g id="node10" class="node">
<title>project</title>
<g id="a_node10"><a xlink:href="../../tables/project.html" xlink:title="project" target="_top">
<polygon fill="#ffffff" stroke="transparent" points="165.5,-391.0645 165.5,-452.0645 241.5,-452.0645 241.5,-391.0645 165.5,-391.0645"/>
<polygon fill="#f5f5f5" stroke="transparent" points="165.5,-428.5645 165.5,-451.5645 241.5,-451.5645 241.5,-428.5645 165.5,-428.5645"/>
<polygon fill="none" stroke="#000000" points="165.5,-428.5645 165.5,-451.5645 241.5,-451.5645 241.5,-428.5645 165.5,-428.5645"/>
<text text-anchor="start" x="170.4978" y="-437.6645" font-family="Helvetica,sans-Serif" font-weight="bold" font-size="11.00" fill="#000000">project</text>
<text text-anchor="start" x="207.0219" y="-436.6645" font-family="Helvetica,sans-Serif" font-size="11.00" fill="#000000">[table]</text>
<polygon fill="none" stroke="#000000" points="165.5,-409.5645 165.5,-428.5645 241.5,-428.5645 241.5,-409.5645 165.5,-409.5645"/>
<text text-anchor="start" x="168.5" y="-415.6645" font-family="Helvetica,sans-Serif" font-size="11.00" fill="#000000">...</text>
<polygon fill="#ffffff" stroke="transparent" points="165.5,-390.5645 165.5,-409.5645 194.5,-409.5645 194.5,-390.5645 165.5,-390.5645"/>
<polygon fill="none" stroke="#000000" points="165.5,-390.5645 165.5,-409.5645 194.5,-409.5645 194.5,-390.5645 165.5,-390.5645"/>
<text text-anchor="start" x="168.5" y="-396.6645" font-family="Helvetica,sans-Serif" font-size="11.00" fill="#000000">&lt; 4</text>
<polygon fill="#ffffff" stroke="transparent" points="194.5,-390.5645 194.5,-409.5645 210.5,-409.5645 210.5,-390.5645 194.5,-390.5645"/>
<polygon fill="none" stroke="#000000" points="194.5,-390.5645 194.5,-409.5645 210.5,-409.5645 210.5,-390.5645 194.5,-390.5645"/>
<text text-anchor="start" x="201.3862" y="-396.6645" font-family="Helvetica,sans-Serif" font-size="11.00" fill="#000000"> &#160;</text>
<polygon fill="#ffffff" stroke="transparent" points="210.5,-390.5645 210.5,-409.5645 241.5,-409.5645 241.5,-390.5645 210.5,-390.5645"/>
<polygon fill="none" stroke="#000000" points="210.5,-390.5645 210.5,-409.5645 241.5,-409.5645 241.5,-390.5645 210.5,-390.5645"/>
<text text-anchor="start" x="216.7904" y="-396.6645" font-family="Helvetica,sans-Serif" font-size="11.00" fill="#000000">18 &gt;</text>
</a>
</g>
</g>
<!-- emails_beans&#45;&gt;project -->
<g id="edge13" class="edge">
<title>emails_beans:w&#45;&gt;project:e</title>
<path fill="none" stroke="#000000" d="M749.5205,-327.7091C699.4779,-321.4757 691.174,-282.8548 635,-267.5645 562.4113,-247.8062 357.8931,-204.3883 297,-248.5645 232.6665,-295.2366 320.9801,-418.5645 241.5,-418.5645"/>
<polygon fill="#000000" stroke="#000000" points="756.0139,-328.0926 763.7877,-332.1582 760.007,-328.3286 764,-328.5645 764,-328.5645 764,-328.5645 760.007,-328.3286 764.2123,-324.9708 756.0139,-328.0926 756.0139,-328.0926"/>
<ellipse fill="none" stroke="#000000" cx="752.8195" cy="-327.9039" rx="3.2" ry="3.2"/>
</g>
<!-- project_task -->
<g id="node11" class="node">
<title>project_task</title>
<g id="a_node11"><a xlink:href="../../tables/project_task.html" xlink:title="project_task" target="_top">
<polygon fill="#ffffff" stroke="transparent" points="309.5,-259.0645 309.5,-320.0645 411.5,-320.0645 411.5,-259.0645 309.5,-259.0645"/>
<polygon fill="#f5f5f5" stroke="transparent" points="309.5,-296.5645 309.5,-319.5645 411.5,-319.5645 411.5,-296.5645 309.5,-296.5645"/>
<polygon fill="none" stroke="#000000" points="309.5,-296.5645 309.5,-319.5645 411.5,-319.5645 411.5,-296.5645 309.5,-296.5645"/>
<text text-anchor="start" x="314.3545" y="-305.6645" font-family="Helvetica,sans-Serif" font-weight="bold" font-size="11.00" fill="#000000">project_task</text>
<text text-anchor="start" x="377.0219" y="-304.6645" font-family="Helvetica,sans-Serif" font-size="11.00" fill="#000000">[table]</text>
<polygon fill="none" stroke="#000000" points="309.5,-277.5645 309.5,-296.5645 411.5,-296.5645 411.5,-277.5645 309.5,-277.5645"/>
<text text-anchor="start" x="312.5" y="-283.6645" font-family="Helvetica,sans-Serif" font-size="11.00" fill="#000000">...</text>
<polygon fill="#ffffff" stroke="transparent" points="309.5,-258.5645 309.5,-277.5645 354.5,-277.5645 354.5,-258.5645 309.5,-258.5645"/>
<polygon fill="none" stroke="#000000" points="309.5,-258.5645 309.5,-277.5645 354.5,-277.5645 354.5,-258.5645 309.5,-258.5645"/>
<text text-anchor="start" x="312.5" y="-264.6645" font-family="Helvetica,sans-Serif" font-size="11.00" fill="#000000">&lt; 4</text>
<polygon fill="#ffffff" stroke="transparent" points="354.5,-258.5645 354.5,-277.5645 378.5,-277.5645 378.5,-258.5645 354.5,-258.5645"/>
<polygon fill="none" stroke="#000000" points="354.5,-258.5645 354.5,-277.5645 378.5,-277.5645 378.5,-258.5645 354.5,-258.5645"/>
<text text-anchor="start" x="369.3862" y="-264.6645" font-family="Helvetica,sans-Serif" font-size="11.00" fill="#000000"> &#160;</text>
<polygon fill="#ffffff" stroke="transparent" points="378.5,-258.5645 378.5,-277.5645 411.5,-277.5645 411.5,-258.5645 378.5,-258.5645"/>
<polygon fill="none" stroke="#000000" points="378.5,-258.5645 378.5,-277.5645 411.5,-277.5645 411.5,-258.5645 378.5,-258.5645"/>
<text text-anchor="start" x="392.9053" y="-264.6645" font-family="Helvetica,sans-Serif" font-size="11.00" fill="#000000">8 &gt;</text>
</a>
</g>
</g>
<!-- emails_beans&#45;&gt;project_task -->
<g id="edge14" class="edge">
<title>emails_beans:w&#45;&gt;project_task:e</title>
<path fill="none" stroke="#000000" d="M749.5953,-327.7848C700.9468,-322.2579 690.3653,-288.9189 635,-278.5645 557.2371,-264.0213 535.8117,-271.6887 457,-278.5645 436.5453,-280.349 432.0324,-286.5645 411.5,-286.5645"/>
<polygon fill="#000000" stroke="#000000" points="756.0117,-328.1321 763.8054,-332.1592 760.0058,-328.3483 764,-328.5645 764,-328.5645 764,-328.5645 760.0058,-328.3483 764.1946,-324.9697 756.0117,-328.1321 756.0117,-328.1321"/>
<ellipse fill="none" stroke="#000000" cx="752.8164" cy="-327.9591" rx="3.2" ry="3.2"/>
</g>
<!-- prospects -->
<g id="node12" class="node">
<title>prospects</title>
<g id="a_node12"><a xlink:href="../../tables/prospects.html" xlink:title="prospects" target="_top">
<polygon fill="#ffffff" stroke="transparent" points="315.5,-149.0645 315.5,-210.0645 405.5,-210.0645 405.5,-149.0645 315.5,-149.0645"/>
<polygon fill="#f5f5f5" stroke="transparent" points="315.5,-186.5645 315.5,-209.5645 405.5,-209.5645 405.5,-186.5645 315.5,-186.5645"/>
<polygon fill="none" stroke="#000000" points="315.5,-186.5645 315.5,-209.5645 405.5,-209.5645 405.5,-186.5645 315.5,-186.5645"/>
<text text-anchor="start" x="320.1608" y="-195.6645" font-family="Helvetica,sans-Serif" font-weight="bold" font-size="11.00" fill="#000000">prospects</text>
<text text-anchor="start" x="371.0219" y="-194.6645" font-family="Helvetica,sans-Serif" font-size="11.00" fill="#000000">[table]</text>
<polygon fill="none" stroke="#000000" points="315.5,-167.5645 315.5,-186.5645 405.5,-186.5645 405.5,-167.5645 315.5,-167.5645"/>
<text text-anchor="start" x="318.5" y="-173.6645" font-family="Helvetica,sans-Serif" font-size="11.00" fill="#000000">...</text>
<polygon fill="#ffffff" stroke="transparent" points="315.5,-148.5645 315.5,-167.5645 351.5,-167.5645 351.5,-148.5645 315.5,-148.5645"/>
<polygon fill="none" stroke="#000000" points="315.5,-148.5645 315.5,-167.5645 351.5,-167.5645 351.5,-148.5645 315.5,-148.5645"/>
<text text-anchor="start" x="318.5" y="-154.6645" font-family="Helvetica,sans-Serif" font-size="11.00" fill="#000000">&lt; 5</text>
<polygon fill="#ffffff" stroke="transparent" points="351.5,-148.5645 351.5,-167.5645 370.5,-167.5645 370.5,-148.5645 351.5,-148.5645"/>
<polygon fill="none" stroke="#000000" points="351.5,-148.5645 351.5,-167.5645 370.5,-167.5645 370.5,-148.5645 351.5,-148.5645"/>
<text text-anchor="start" x="361.3862" y="-154.6645" font-family="Helvetica,sans-Serif" font-size="11.00" fill="#000000"> &#160;</text>
<polygon fill="#ffffff" stroke="transparent" points="370.5,-148.5645 370.5,-167.5645 405.5,-167.5645 405.5,-148.5645 370.5,-148.5645"/>
<polygon fill="none" stroke="#000000" points="370.5,-148.5645 370.5,-167.5645 405.5,-167.5645 405.5,-148.5645 370.5,-148.5645"/>
<text text-anchor="start" x="380.7904" y="-154.6645" font-family="Helvetica,sans-Serif" font-size="11.00" fill="#000000">12 &gt;</text>
</a>
</g>
</g>
<!-- emails_beans&#45;&gt;prospects -->
<g id="edge15" class="edge">
<title>emails_beans:w&#45;&gt;prospects:e</title>
<path fill="none" stroke="#000000" d="M749.3019,-327.4718C691.5678,-318.3034 696.7471,-253.8109 635,-224.5645 540.8228,-179.9577 509.7071,-176.5645 405.5,-176.5645"/>
<polygon fill="#000000" stroke="#000000" points="756.022,-327.9713 763.7331,-332.1546 760.011,-328.2679 764,-328.5645 764,-328.5645 764,-328.5645 760.011,-328.2679 764.2669,-324.9744 756.022,-327.9713 756.022,-327.9713"/>
<ellipse fill="none" stroke="#000000" cx="752.8308" cy="-327.7341" rx="3.2" ry="3.2"/>
</g>
<!-- leads&#45;&gt;accounts -->
<g id="edge16" class="edge">
<title>leads:w&#45;&gt;accounts:e</title>
<path fill="none" stroke="#000000" d="M311.9899,-992.9551C226.8577,-971.9585 355.2275,-752.5645 247.5,-752.5645"/>
<polygon fill="#000000" stroke="#000000" points="318.5488,-993.6826 326.1031,-998.1425 322.5244,-994.1235 326.5,-994.5645 326.5,-994.5645 326.5,-994.5645 322.5244,-994.1235 326.8969,-990.9864 318.5488,-993.6826 318.5488,-993.6826"/>
<ellipse fill="none" stroke="#000000" cx="315.3683" cy="-993.3298" rx="3.2" ry="3.2"/>
</g>
<!-- leads&#45;&gt;jjwg_maps -->
<g id="edge17" class="edge">
<title>leads:w&#45;&gt;jjwg_maps:e</title>
<path fill="none" stroke="#000000" d="M315.9735,-994.3407C219.634,-990.1409 201.2976,-927.2727 143,-843.5645 111.2704,-798.0046 157.52,-725.5645 102,-725.5645"/>
<polygon fill="#000000" stroke="#000000" points="325.7852,-990.5484 325.6151,-998.5466 324.0155,-998.5125 324.1856,-990.5144 325.7852,-990.5484"/>
<polyline fill="none" stroke="#000000" points="326.5,-994.5645 322.5009,-994.4794 "/>
<ellipse fill="none" stroke="#000000" cx="319.3016" cy="-994.4114" rx="3.2" ry="3.2"/>
</g>
<!-- leads&#45;&gt;opportunities -->
<g id="edge18" class="edge">
<title>leads:w&#45;&gt;opportunities:e</title>
<path fill="none" stroke="#000000" d="M312.4002,-990.5363C247.3287,-948.2665 342.8951,-587.5645 256.5,-587.5645"/>
<polygon fill="#000000" stroke="#000000" points="318.8078,-992.3668 325.5111,-998.026 322.6539,-993.4657 326.5,-994.5645 326.5,-994.5645 326.5,-994.5645 322.6539,-993.4657 327.4889,-991.103 318.8078,-992.3668 318.8078,-992.3668"/>
<ellipse fill="none" stroke="#000000" cx="315.7309" cy="-991.4878" rx="3.2" ry="3.2"/>
</g>
<!-- meetings&#45;&gt;accounts -->
<g id="edge20" class="edge">
<title>meetings:w&#45;&gt;accounts:e</title>
<path fill="none" stroke="#000000" d="M450.9457,-662.4113C432.7433,-676.0407 453.0359,-722.2446 424,-741.5645 358.5648,-785.1037 326.0966,-752.5645 247.5,-752.5645"/>
<polygon fill="#000000" stroke="#000000" points="457.2838,-660.6766 465.9504,-662.0368 461.1419,-659.6205 465,-658.5645 465,-658.5645 465,-658.5645 461.1419,-659.6205 464.0496,-655.0922 457.2838,-660.6766 457.2838,-660.6766"/>
<ellipse fill="none" stroke="#000000" cx="454.1974" cy="-661.5214" rx="3.2" ry="3.2"/>
</g>
<!-- meetings&#45;&gt;jjwg_maps -->
<g id="edge19" class="edge">
<title>meetings:w&#45;&gt;jjwg_maps:e</title>
<path fill="none" stroke="#000000" d="M454.5049,-856.4552C375.4244,-854.9019 199.7532,-836.711 143,-796.5645 113.2516,-775.5208 138.439,-725.5645 102,-725.5645"/>
<polygon fill="#000000" stroke="#000000" points="464.2417,-852.5564 464.1583,-860.5559 462.5584,-860.5393 462.6418,-852.5397 464.2417,-852.5564"/>
<polyline fill="none" stroke="#000000" points="465,-856.5645 461.0002,-856.5228 "/>
<ellipse fill="none" stroke="#000000" cx="457.8004" cy="-856.4894" rx="3.2" ry="3.2"/>
</g>
<!-- meetings&#45;&gt;aos_contracts -->
<g id="edge21" class="edge">
<title>meetings:w&#45;&gt;aos_contracts:e</title>
<path fill="none" stroke="#000000" d="M450.948,-653.4583C434.1691,-637.1787 448.4454,-587.5645 416.5,-587.5645"/>
<polygon fill="#000000" stroke="#000000" points="457.481,-655.8322 463.7705,-661.948 461.2405,-657.1984 465,-658.5645 465,-658.5645 465,-658.5645 461.2405,-657.1984 466.2295,-655.1809 457.481,-655.8322 457.481,-655.8322"/>
<ellipse fill="none" stroke="#000000" cx="454.4734" cy="-654.7393" rx="3.2" ry="3.2"/>
</g>
<!-- meetings&#45;&gt;opportunities -->
<g id="edge25" class="edge">
<title>meetings:w&#45;&gt;opportunities:e</title>
<path fill="none" stroke="#000000" d="M450.5673,-658.6652C385.774,-659.536 359.1928,-664.9833 297,-631.5645 273.5874,-618.9839 283.0786,-587.5645 256.5,-587.5645"/>
<polygon fill="#000000" stroke="#000000" points="457.0002,-658.6204 465.0251,-662.1644 461.0001,-658.5924 465,-658.5645 465,-658.5645 465,-658.5645 461.0001,-658.5924 464.9749,-654.9646 457.0002,-658.6204 457.0002,-658.6204"/>
<ellipse fill="none" stroke="#000000" cx="453.8003" cy="-658.6427" rx="3.2" ry="3.2"/>
</g>
<!-- meetings&#45;&gt;cases -->
<g id="edge23" class="edge">
<title>meetings:w&#45;&gt;cases:e</title>
<path fill="none" stroke="#000000" d="M450.6833,-661.2451C429.5299,-670.0563 425.9222,-697.5645 396.5,-697.5645"/>
<polygon fill="#000000" stroke="#000000" points="457.1366,-660.0369 465.6626,-662.103 461.0683,-659.3007 465,-658.5645 465,-658.5645 465,-658.5645 461.0683,-659.3007 464.3374,-655.026 457.1366,-660.0369 457.1366,-660.0369"/>
<ellipse fill="none" stroke="#000000" cx="453.9913" cy="-660.6258" rx="3.2" ry="3.2"/>
</g>
<!-- meetings&#45;&gt;bugs -->
<g id="edge22" class="edge">
<title>meetings:w&#45;&gt;bugs:e</title>
<path fill="none" stroke="#000000" d="M451.4757,-652.2788C416.8921,-614.9072 442.7552,-423.5645 393.5,-423.5645"/>
<polygon fill="#000000" stroke="#000000" points="457.7453,-655.1927 463.4827,-661.8291 461.3726,-656.8786 465,-658.5645 465,-658.5645 465,-658.5645 461.3726,-656.8786 466.5173,-655.2999 457.7453,-655.1927 457.7453,-655.1927"/>
<ellipse fill="none" stroke="#000000" cx="454.8434" cy="-653.8439" rx="3.2" ry="3.2"/>
</g>
<!-- meetings&#45;&gt;leads -->
<g id="edge24" class="edge">
<title>meetings:w&#45;&gt;leads:e</title>
<path fill="none" stroke="#000000" d="M451.1677,-663.3143C399.6366,-704.1534 466.3861,-994.5645 395.5,-994.5645"/>
<polygon fill="#000000" stroke="#000000" points="457.4337,-661.1627 466.1692,-661.9693 461.2168,-659.8636 465,-658.5645 465,-658.5645 465,-658.5645 461.2168,-659.8636 463.8308,-655.1596 457.4337,-661.1627 457.4337,-661.1627"/>
<ellipse fill="none" stroke="#000000" cx="454.4071" cy="-662.202" rx="3.2" ry="3.2"/>
</g>
<!-- meetings&#45;&gt;project -->
<g id="edge26" class="edge">
<title>meetings:w&#45;&gt;project:e</title>
<path fill="none" stroke="#000000" d="M450.5461,-655.8007C422.9238,-642.3424 455.1822,-582.9636 424,-549.5645 381.6537,-504.2075 345.4609,-530.3203 297,-491.5645 265.1705,-466.1093 282.2564,-418.5645 241.5,-418.5645"/>
<polygon fill="#000000" stroke="#000000" points="457.1424,-657.0619 464.3239,-662.1004 461.0712,-657.8132 465,-658.5645 465,-658.5645 465,-658.5645 461.0712,-657.8132 465.6761,-655.0285 457.1424,-657.0619 457.1424,-657.0619"/>
<ellipse fill="none" stroke="#000000" cx="453.9993" cy="-656.4609" rx="3.2" ry="3.2"/>
</g>
<!-- meetings&#45;&gt;project_task -->
<g id="edge27" class="edge">
<title>meetings:w&#45;&gt;project_task:e</title>
<path fill="none" stroke="#000000" d="M451.2014,-654.1276C395.2995,-612.1567 489.6343,-286.5645 411.5,-286.5645"/>
<polygon fill="#000000" stroke="#000000" points="457.384,-656.1156 463.898,-661.9917 461.192,-657.34 465,-658.5645 465,-658.5645 465,-658.5645 461.192,-657.34 466.102,-655.1373 457.384,-656.1156 457.384,-656.1156"/>
<ellipse fill="none" stroke="#000000" cx="454.3376" cy="-655.136" rx="3.2" ry="3.2"/>
</g>
<!-- meetings&#45;&gt;prospects -->
<g id="edge28" class="edge">
<title>meetings:w&#45;&gt;prospects:e</title>
<path fill="none" stroke="#000000" d="M450.5337,-654.9619C372.2735,-610.8543 507.9436,-176.5645 405.5,-176.5645"/>
<polygon fill="#000000" stroke="#000000" points="457.2371,-656.6312 464.13,-662.0578 461.1185,-657.5978 465,-658.5645 465,-658.5645 465,-658.5645 461.1185,-657.5978 465.87,-655.0712 457.2371,-656.6312 457.2371,-656.6312"/>
<ellipse fill="none" stroke="#000000" cx="454.1319" cy="-655.8579" rx="3.2" ry="3.2"/>
</g>
<!-- project&#45;&gt;jjwg_maps -->
<g id="edge45" class="edge">
<title>project:w&#45;&gt;jjwg_maps:e</title>
<path fill="none" stroke="#000000" d="M155.3282,-421.2185C103.6927,-451.2245 167.8564,-725.5645 102,-725.5645"/>
<polygon fill="#000000" stroke="#000000" points="163.716,-414.896 165.7358,-422.6369 164.1876,-423.0408 162.1678,-415.3 163.716,-414.896"/>
<polyline fill="none" stroke="#000000" points="165.5,-418.5645 161.6296,-419.5744 "/>
<ellipse fill="none" stroke="#000000" cx="158.5332" cy="-420.3823" rx="3.2" ry="3.2"/>
</g>
<!-- project_task&#45;&gt;project -->
<g id="edge46" class="edge">
<title>project_task:w&#45;&gt;project:e</title>
<path fill="none" stroke="#000000" d="M295.2009,-289.3215C253.5442,-308.2771 301.8223,-418.5645 241.5,-418.5645"/>
<polygon fill="#000000" stroke="#000000" points="301.6447,-288.0791 310.1816,-290.0994 305.5723,-287.3218 309.5,-286.5645 309.5,-286.5645 309.5,-286.5645 305.5723,-287.3218 308.8184,-283.0296 301.6447,-288.0791 301.6447,-288.0791"/>
<ellipse fill="none" stroke="#000000" cx="298.5026" cy="-288.685" rx="3.2" ry="3.2"/>
</g>
<!-- prospects&#45;&gt;jjwg_maps -->
<g id="edge47" class="edge">
<title>prospects:w&#45;&gt;jjwg_maps:e</title>
<path fill="none" stroke="#000000" d="M305.0209,-176.8237C196.3377,-182.3357 188.9077,-274.9708 143,-380.5645 112.2174,-451.3686 179.2062,-725.5645 102,-725.5645"/>
<polygon fill="#000000" stroke="#000000" points="314.6013,-172.5855 314.7992,-180.5831 313.1997,-180.6226 313.0018,-172.6251 314.6013,-172.5855"/>
<polyline fill="none" stroke="#000000" points="315.5,-176.5645 311.5012,-176.6634 "/>
<ellipse fill="none" stroke="#000000" cx="308.3022" cy="-176.7426" rx="3.2" ry="3.2"/>
</g>
<!-- meetings_contacts -->
<g id="node13" class="node">
<title>meetings_contacts</title>
<g id="a_node13"><a xlink:href="../../tables/meetings_contacts.html" xlink:title="meetings_contacts" target="_top">
<polygon fill="#ffffff" stroke="transparent" points="752,-774.0645 752,-835.0645 886,-835.0645 886,-774.0645 752,-774.0645"/>
<polygon fill="#f5f5f5" stroke="transparent" points="752,-811.5645 752,-834.5645 886,-834.5645 886,-811.5645 752,-811.5645"/>
<polygon fill="none" stroke="#000000" points="752,-811.5645 752,-834.5645 886,-834.5645 886,-811.5645 752,-811.5645"/>
<text text-anchor="start" x="756.6537" y="-820.6645" font-family="Helvetica,sans-Serif" font-weight="bold" font-size="11.00" fill="#000000">meetings_contacts</text>
<text text-anchor="start" x="851.5219" y="-819.6645" font-family="Helvetica,sans-Serif" font-size="11.00" fill="#000000">[table]</text>
<polygon fill="none" stroke="#000000" points="752,-792.5645 752,-811.5645 886,-811.5645 886,-792.5645 752,-792.5645"/>
<text text-anchor="start" x="755" y="-798.6645" font-family="Helvetica,sans-Serif" font-size="11.00" fill="#000000">...</text>
<polygon fill="#ffffff" stroke="transparent" points="752,-773.5645 752,-792.5645 817,-792.5645 817,-773.5645 752,-773.5645"/>
<polygon fill="none" stroke="#000000" points="752,-773.5645 752,-792.5645 817,-792.5645 817,-773.5645 752,-773.5645"/>
<text text-anchor="start" x="755" y="-779.6645" font-family="Helvetica,sans-Serif" font-size="11.00" fill="#000000">&lt; 2</text>
<polygon fill="#ffffff" stroke="transparent" points="817,-773.5645 817,-792.5645 851,-792.5645 851,-773.5645 817,-773.5645"/>
<polygon fill="none" stroke="#000000" points="817,-773.5645 817,-792.5645 851,-792.5645 851,-773.5645 817,-773.5645"/>
<text text-anchor="start" x="841.8862" y="-779.6645" font-family="Helvetica,sans-Serif" font-size="11.00" fill="#000000"> &#160;</text>
<polygon fill="#ffffff" stroke="transparent" points="851,-773.5645 851,-792.5645 886,-792.5645 886,-773.5645 851,-773.5645"/>
<polygon fill="none" stroke="#000000" points="851,-773.5645 851,-792.5645 886,-792.5645 886,-773.5645 851,-773.5645"/>
<text text-anchor="start" x="876.8862" y="-779.6645" font-family="Helvetica,sans-Serif" font-size="11.00" fill="#000000"> &#160;</text>
</a>
</g>
</g>
<!-- meetings_contacts&#45;&gt;meetings -->
<g id="edge29" class="edge">
<title>meetings_contacts:w&#45;&gt;meetings:e</title>
<path fill="none" stroke="#000000" d="M737.5443,-802.7132C690.2626,-810.6114 682.4795,-856.5645 627,-856.5645"/>
<polygon fill="#000000" stroke="#000000" points="744.0251,-802.1983 752.2852,-805.1532 748.0126,-801.8814 752,-801.5645 752,-801.5645 752,-801.5645 748.0126,-801.8814 751.7148,-797.9758 744.0251,-802.1983 744.0251,-802.1983"/>
<ellipse fill="none" stroke="#000000" cx="740.8352" cy="-802.4518" rx="3.2" ry="3.2"/>
</g>
<!-- meetings_cstm -->
<g id="node14" class="node">
<title>meetings_cstm</title>
<g id="a_node14"><a xlink:href="../../tables/meetings_cstm.html" xlink:title="meetings_cstm" target="_top">
<polygon fill="#ffffff" stroke="transparent" points="676,-596.5645 676,-752.5645 962,-752.5645 962,-596.5645 676,-596.5645"/>
<polygon fill="#f5f5f5" stroke="transparent" points="678,-727.5645 678,-750.5645 960,-750.5645 960,-727.5645 678,-727.5645"/>
<polygon fill="none" stroke="#000000" points="678,-727.5645 678,-750.5645 960,-750.5645 960,-727.5645 678,-727.5645"/>
<text text-anchor="start" x="683" y="-736.6645" font-family="Helvetica,sans-Serif" font-weight="bold" font-size="11.00" fill="#000000">meetings_cstm</text>
<text text-anchor="start" x="925.0437" y="-735.6645" font-family="Helvetica,sans-Serif" font-size="11.00" fill="#000000">[table]</text>
<polygon fill="none" stroke="#000000" points="678,-705.5645 678,-727.5645 893,-727.5645 893,-705.5645 678,-705.5645"/>
<image xlink:href="../../images/primaryKeys.png" width="11px" height="12px" preserveAspectRatio="xMinYMin meet" x="683" y="-722.564"/>
<text text-anchor="start" x="698" y="-712.6645" font-family="Helvetica,sans-Serif" font-size="11.00" fill="#000000">id_c</text>
<polygon fill="none" stroke="#000000" points="893,-705.5645 893,-727.5645 960,-727.5645 960,-705.5645 893,-705.5645"/>
<text text-anchor="start" x="896" y="-713.2645" font-family="Helvetica,sans-Serif" font-size="11.00" fill="#000000">char[36]</text>
<polygon fill="none" stroke="#000000" points="678,-683.5645 678,-705.5645 893,-705.5645 893,-683.5645 678,-683.5645"/>
<text text-anchor="start" x="698" y="-690.6645" font-family="Helvetica,sans-Serif" font-size="11.00" fill="#000000">jjwg_maps_lng_c</text>
<polygon fill="none" stroke="#000000" points="893,-683.5645 893,-705.5645 960,-705.5645 960,-683.5645 893,-683.5645"/>
<text text-anchor="start" x="896" y="-691.2645" font-family="Helvetica,sans-Serif" font-size="11.00" fill="#000000">float[11,8]</text>
<polygon fill="none" stroke="#000000" points="678,-661.5645 678,-683.5645 893,-683.5645 893,-661.5645 678,-661.5645"/>
<text text-anchor="start" x="698" y="-668.6645" font-family="Helvetica,sans-Serif" font-size="11.00" fill="#000000">jjwg_maps_lat_c</text>
<polygon fill="none" stroke="#000000" points="893,-661.5645 893,-683.5645 960,-683.5645 960,-661.5645 893,-661.5645"/>
<text text-anchor="start" x="896" y="-669.2645" font-family="Helvetica,sans-Serif" font-size="11.00" fill="#000000">float[10,8]</text>
<polygon fill="none" stroke="#000000" points="678,-639.5645 678,-661.5645 893,-661.5645 893,-639.5645 678,-639.5645"/>
<text text-anchor="start" x="698" y="-646.6645" font-family="Helvetica,sans-Serif" font-size="11.00" fill="#000000">jjwg_maps_geocode_status_c</text>
<polygon fill="none" stroke="#000000" points="893,-639.5645 893,-661.5645 960,-661.5645 960,-639.5645 893,-639.5645"/>
<text text-anchor="start" x="895.9365" y="-647.2645" font-family="Helvetica,sans-Serif" font-size="11.00" fill="#000000">varchar[255]</text>
<polygon fill="none" stroke="#000000" points="678,-617.5645 678,-639.5645 893,-639.5645 893,-617.5645 678,-617.5645"/>
<text text-anchor="start" x="698" y="-624.6645" font-family="Helvetica,sans-Serif" font-size="11.00" fill="#000000">jjwg_maps_address_c</text>
<polygon fill="none" stroke="#000000" points="893,-617.5645 893,-639.5645 960,-639.5645 960,-617.5645 893,-617.5645"/>
<text text-anchor="start" x="895.9365" y="-625.2645" font-family="Helvetica,sans-Serif" font-size="11.00" fill="#000000">varchar[255]</text>
<polygon fill="#ffffff" stroke="transparent" points="678,-598.5645 678,-617.5645 790,-617.5645 790,-598.5645 678,-598.5645"/>
<polygon fill="none" stroke="#000000" points="678,-598.5645 678,-617.5645 790,-617.5645 790,-598.5645 678,-598.5645"/>
<text text-anchor="start" x="681" y="-604.6645" font-family="Helvetica,sans-Serif" font-size="11.00" fill="#000000">&lt; 1</text>
<polygon fill="#ffffff" stroke="transparent" points="790,-598.5645 790,-617.5645 893,-617.5645 893,-598.5645 790,-598.5645"/>
<polygon fill="none" stroke="#000000" points="790,-598.5645 790,-617.5645 893,-617.5645 893,-598.5645 790,-598.5645"/>
<text text-anchor="start" x="883.8862" y="-604.6645" font-family="Helvetica,sans-Serif" font-size="11.00" fill="#000000"> &#160;</text>
<polygon fill="#ffffff" stroke="transparent" points="893,-598.5645 893,-617.5645 960,-617.5645 960,-598.5645 893,-598.5645"/>
<polygon fill="none" stroke="#000000" points="893,-598.5645 893,-617.5645 960,-617.5645 960,-598.5645 893,-598.5645"/>
<text text-anchor="start" x="941.4053" y="-604.6645" font-family="Helvetica,sans-Serif" font-size="11.00" fill="#000000">0 &gt;</text>
<polygon fill="none" stroke="#000000" stroke-width="2" points="677,-597.5645 677,-751.5645 961,-751.5645 961,-597.5645 677,-597.5645"/>
</a>
</g>
</g>
<!-- meetings_cstm&#45;&gt;meetings -->
<g id="edge30" class="edge">
<title>meetings_cstm:w&#45;&gt;meetings:e</title>
<path fill="none" stroke="#000000" d="M667.5298,-718.042C621.0989,-733.0044 689.2127,-856.5645 627,-856.5645"/>
<polygon fill="#000000" stroke="#000000" points="676.6489,-712.7155 677.7668,-720.637 676.1825,-720.8606 675.0646,-712.9391 676.6489,-712.7155"/>
<polyline fill="none" stroke="#000000" points="678,-716.5645 674.0392,-717.1235 "/>
<ellipse fill="none" stroke="#000000" cx="670.8706" cy="-717.5706" rx="3.2" ry="3.2"/>
</g>
<!-- meetings_leads -->
<g id="node15" class="node">
<title>meetings_leads</title>
<g id="a_node15"><a xlink:href="../../tables/meetings_leads.html" xlink:title="meetings_leads" target="_top">
<polygon fill="#ffffff" stroke="transparent" points="759,-884.0645 759,-945.0645 879,-945.0645 879,-884.0645 759,-884.0645"/>
<polygon fill="#f5f5f5" stroke="transparent" points="759,-921.5645 759,-944.5645 879,-944.5645 879,-921.5645 759,-921.5645"/>
<polygon fill="none" stroke="#000000" points="759,-921.5645 759,-944.5645 879,-944.5645 879,-921.5645 759,-921.5645"/>
<text text-anchor="start" x="763.9901" y="-930.6645" font-family="Helvetica,sans-Serif" font-weight="bold" font-size="11.00" fill="#000000">meetings_leads</text>
<text text-anchor="start" x="844.5219" y="-929.6645" font-family="Helvetica,sans-Serif" font-size="11.00" fill="#000000">[table]</text>
<polygon fill="none" stroke="#000000" points="759,-902.5645 759,-921.5645 879,-921.5645 879,-902.5645 759,-902.5645"/>
<text text-anchor="start" x="762" y="-908.6645" font-family="Helvetica,sans-Serif" font-size="11.00" fill="#000000">...</text>
<polygon fill="#ffffff" stroke="transparent" points="759,-883.5645 759,-902.5645 817,-902.5645 817,-883.5645 759,-883.5645"/>
<polygon fill="none" stroke="#000000" points="759,-883.5645 759,-902.5645 817,-902.5645 817,-883.5645 759,-883.5645"/>
<text text-anchor="start" x="762" y="-889.6645" font-family="Helvetica,sans-Serif" font-size="11.00" fill="#000000">&lt; 2</text>
<polygon fill="#ffffff" stroke="transparent" points="817,-883.5645 817,-902.5645 848,-902.5645 848,-883.5645 817,-883.5645"/>
<polygon fill="none" stroke="#000000" points="817,-883.5645 817,-902.5645 848,-902.5645 848,-883.5645 817,-883.5645"/>
<text text-anchor="start" x="838.8862" y="-889.6645" font-family="Helvetica,sans-Serif" font-size="11.00" fill="#000000"> &#160;</text>
<polygon fill="#ffffff" stroke="transparent" points="848,-883.5645 848,-902.5645 879,-902.5645 879,-883.5645 848,-883.5645"/>
<polygon fill="none" stroke="#000000" points="848,-883.5645 848,-902.5645 879,-902.5645 879,-883.5645 848,-883.5645"/>
<text text-anchor="start" x="869.8862" y="-889.6645" font-family="Helvetica,sans-Serif" font-size="11.00" fill="#000000"> &#160;</text>
</a>
</g>
</g>
<!-- meetings_leads&#45;&gt;leads -->
<g id="edge31" class="edge">
<title>meetings_leads:w&#45;&gt;leads:e</title>
<path fill="none" stroke="#000000" d="M744.5137,-912.8142C684.6355,-923.9426 701.6565,-1006.2714 635,-1033.5645 561.7884,-1063.5416 532.9736,-1055.623 457,-1033.5645 425.9176,-1024.5399 427.866,-994.5645 395.5,-994.5645"/>
<polygon fill="#000000" stroke="#000000" points="751.0296,-912.2522 759.3095,-915.1512 755.0148,-911.9083 759,-911.5645 759,-911.5645 759,-911.5645 755.0148,-911.9083 758.6905,-907.9778 751.0296,-912.2522 751.0296,-912.2522"/>
<ellipse fill="none" stroke="#000000" cx="747.8414" cy="-912.5272" rx="3.2" ry="3.2"/>
</g>
<!-- meetings_leads&#45;&gt;meetings -->
<g id="edge32" class="edge">
<title>meetings_leads:w&#45;&gt;meetings:e</title>
<path fill="none" stroke="#000000" d="M744.57,-908.9117C709.6884,-897.9253 654.5573,-856.5645 627,-856.5645"/>
<polygon fill="#000000" stroke="#000000" points="751.1319,-910.118 758.3491,-915.1052 755.0659,-910.8412 759,-911.5645 759,-911.5645 759,-911.5645 755.0659,-910.8412 759.6509,-908.0238 751.1319,-910.118 751.1319,-910.118"/>
<ellipse fill="none" stroke="#000000" cx="747.9846" cy="-909.5394" rx="3.2" ry="3.2"/>
</g>
<!-- meetings_users -->
<g id="node16" class="node">
<title>meetings_users</title>
<g id="a_node16"><a xlink:href="../../tables/meetings_users.html" xlink:title="meetings_users" target="_top">
<polygon fill="#ffffff" stroke="transparent" points="759,-514.0645 759,-575.0645 879,-575.0645 879,-514.0645 759,-514.0645"/>
<polygon fill="#f5f5f5" stroke="transparent" points="759,-551.5645 759,-574.5645 879,-574.5645 879,-551.5645 759,-551.5645"/>
<polygon fill="none" stroke="#000000" points="759,-551.5645 759,-574.5645 879,-574.5645 879,-551.5645 759,-551.5645"/>
<text text-anchor="start" x="763.6871" y="-560.6645" font-family="Helvetica,sans-Serif" font-weight="bold" font-size="11.00" fill="#000000">meetings_users</text>
<text text-anchor="start" x="844.5219" y="-559.6645" font-family="Helvetica,sans-Serif" font-size="11.00" fill="#000000">[table]</text>
<polygon fill="none" stroke="#000000" points="759,-532.5645 759,-551.5645 879,-551.5645 879,-532.5645 759,-532.5645"/>
<text text-anchor="start" x="762" y="-538.6645" font-family="Helvetica,sans-Serif" font-size="11.00" fill="#000000">...</text>
<polygon fill="#ffffff" stroke="transparent" points="759,-513.5645 759,-532.5645 817,-532.5645 817,-513.5645 759,-513.5645"/>
<polygon fill="none" stroke="#000000" points="759,-513.5645 759,-532.5645 817,-532.5645 817,-513.5645 759,-513.5645"/>
<text text-anchor="start" x="762" y="-519.6645" font-family="Helvetica,sans-Serif" font-size="11.00" fill="#000000">&lt; 2</text>
<polygon fill="#ffffff" stroke="transparent" points="817,-513.5645 817,-532.5645 848,-532.5645 848,-513.5645 817,-513.5645"/>
<polygon fill="none" stroke="#000000" points="817,-513.5645 817,-532.5645 848,-532.5645 848,-513.5645 817,-513.5645"/>
<text text-anchor="start" x="838.8862" y="-519.6645" font-family="Helvetica,sans-Serif" font-size="11.00" fill="#000000"> &#160;</text>
<polygon fill="#ffffff" stroke="transparent" points="848,-513.5645 848,-532.5645 879,-532.5645 879,-513.5645 848,-513.5645"/>
<polygon fill="none" stroke="#000000" points="848,-513.5645 848,-532.5645 879,-532.5645 879,-513.5645 848,-513.5645"/>
<text text-anchor="start" x="869.8862" y="-519.6645" font-family="Helvetica,sans-Serif" font-size="11.00" fill="#000000"> &#160;</text>
</a>
</g>
</g>
<!-- meetings_users&#45;&gt;meetings -->
<g id="edge33" class="edge">
<title>meetings_users:w&#45;&gt;meetings:e</title>
<path fill="none" stroke="#000000" d="M744.2045,-541.9205C709.4255,-543.791 691.5343,-553.6425 668,-585.5645 631.8569,-634.589 687.9075,-856.5645 627,-856.5645"/>
<polygon fill="#000000" stroke="#000000" points="751.0023,-541.757 759.0866,-545.1634 755.0012,-541.6607 759,-541.5645 759,-541.5645 759,-541.5645 755.0012,-541.6607 758.9134,-537.9655 751.0023,-541.757 751.0023,-541.757"/>
<ellipse fill="none" stroke="#000000" cx="747.8032" cy="-541.834" rx="3.2" ry="3.2"/>
</g>
<!-- notes -->
<g id="node17" class="node">
<title>notes</title>
<g id="a_node17"><a xlink:href="../../tables/notes.html" xlink:title="notes" target="_top">
<polygon fill="#ffffff" stroke="transparent" points="784.5,-432.0645 784.5,-493.0645 853.5,-493.0645 853.5,-432.0645 784.5,-432.0645"/>
<polygon fill="#f5f5f5" stroke="transparent" points="785,-469.5645 785,-492.5645 854,-492.5645 854,-469.5645 785,-469.5645"/>
<polygon fill="none" stroke="#000000" points="785,-469.5645 785,-492.5645 854,-492.5645 854,-469.5645 785,-469.5645"/>
<text text-anchor="start" x="789.5492" y="-478.6645" font-family="Helvetica,sans-Serif" font-weight="bold" font-size="11.00" fill="#000000">notes</text>
<text text-anchor="start" x="819.5219" y="-477.6645" font-family="Helvetica,sans-Serif" font-size="11.00" fill="#000000">[table]</text>
<polygon fill="none" stroke="#000000" points="785,-450.5645 785,-469.5645 854,-469.5645 854,-450.5645 785,-450.5645"/>
<text text-anchor="start" x="788" y="-456.6645" font-family="Helvetica,sans-Serif" font-size="11.00" fill="#000000">...</text>
<polygon fill="#ffffff" stroke="transparent" points="785,-431.5645 785,-450.5645 816,-450.5645 816,-431.5645 785,-431.5645"/>
<polygon fill="none" stroke="#000000" points="785,-431.5645 785,-450.5645 816,-450.5645 816,-431.5645 785,-431.5645"/>
<text text-anchor="start" x="788" y="-437.6645" font-family="Helvetica,sans-Serif" font-size="11.00" fill="#000000">&lt; 19</text>
<polygon fill="#ffffff" stroke="transparent" points="816,-431.5645 816,-450.5645 830,-450.5645 830,-431.5645 816,-431.5645"/>
<polygon fill="none" stroke="#000000" points="816,-431.5645 816,-450.5645 830,-450.5645 830,-431.5645 816,-431.5645"/>
<text text-anchor="start" x="820.8862" y="-437.6645" font-family="Helvetica,sans-Serif" font-size="11.00" fill="#000000"> &#160;</text>
<polygon fill="#ffffff" stroke="transparent" points="830,-431.5645 830,-450.5645 854,-450.5645 854,-431.5645 830,-431.5645"/>
<polygon fill="none" stroke="#000000" points="830,-431.5645 830,-450.5645 854,-450.5645 854,-431.5645 830,-431.5645"/>
<text text-anchor="start" x="835.4053" y="-437.6645" font-family="Helvetica,sans-Serif" font-size="11.00" fill="#000000">1 &gt;</text>
</a>
</g>
</g>
<!-- notes&#45;&gt;accounts -->
<g id="edge34" class="edge">
<title>notes:w&#45;&gt;accounts:e</title>
<path fill="none" stroke="#000000" d="M770.3725,-459.5909C724.2646,-459.8801 698.4108,-463.3033 668,-503.5645 614.5097,-574.3811 700.2955,-841.4588 635,-901.5645 576.7947,-955.1435 532.3617,-925.6308 457,-901.5645 402.5782,-884.1853 304.6294,-752.5645 247.5,-752.5645"/>
<polygon fill="#000000" stroke="#000000" points="777,-459.579 785.0065,-463.1645 781,-459.5717 785,-459.5645 785,-459.5645 785,-459.5645 781,-459.5717 784.9935,-455.9645 777,-459.579 777,-459.579"/>
<ellipse fill="none" stroke="#000000" cx="773.8" cy="-459.5848" rx="3.2" ry="3.2"/>
</g>
<!-- notes&#45;&gt;aos_contracts -->
<g id="edge35" class="edge">
<title>notes:w&#45;&gt;aos_contracts:e</title>
<path fill="none" stroke="#000000" d="M770.365,-459.8941C726.2136,-462.0376 709.3331,-474.817 668,-503.5645 649.6364,-516.3365 654.387,-530.407 635,-541.5645 565.1937,-581.739 535.2635,-556.5451 457,-575.5645 438.7575,-579.9978 435.2735,-587.5645 416.5,-587.5645"/>
<polygon fill="#000000" stroke="#000000" points="777.002,-459.7447 785.0811,-463.1636 781.001,-459.6546 785,-459.5645 785,-459.5645 785,-459.5645 781.001,-459.6546 784.9189,-455.9654 777.002,-459.7447 777.002,-459.7447"/>
<ellipse fill="none" stroke="#000000" cx="773.8028" cy="-459.8168" rx="3.2" ry="3.2"/>
</g>
<!-- notes&#45;&gt;opportunities -->
<g id="edge40" class="edge">
<title>notes:w&#45;&gt;opportunities:e</title>
<path fill="none" stroke="#000000" d="M770.2686,-459.9148C714.1192,-462.6965 696.9718,-481.4181 635,-493.5645 485.573,-522.8519 433.5179,-482.118 297,-549.5645 274.8707,-560.4974 281.1827,-587.5645 256.5,-587.5645"/>
<polygon fill="#000000" stroke="#000000" points="777.0023,-459.7547 785.0856,-463.1635 781.0011,-459.6596 785,-459.5645 785,-459.5645 785,-459.5645 781.0011,-459.6596 784.9144,-455.9655 777.0023,-459.7547 777.0023,-459.7547"/>
<ellipse fill="none" stroke="#000000" cx="773.8032" cy="-459.8308" rx="3.2" ry="3.2"/>
</g>
<!-- notes&#45;&gt;cases -->
<g id="edge37" class="edge">
<title>notes:w&#45;&gt;cases:e</title>
<path fill="none" stroke="#000000" d="M770.5539,-459.7578C725.582,-461.0919 705.5862,-469.9035 668,-503.5645 643.8651,-525.1789 661.0502,-549.3014 635,-568.5645 570.4333,-616.3089 523.4986,-554.5497 457,-599.5645 414.6118,-628.2583 447.6869,-697.5645 396.5,-697.5645"/>
<polygon fill="#000000" stroke="#000000" points="777.0007,-459.6716 785.0482,-463.1642 781.0004,-459.618 785,-459.5645 785,-459.5645 785,-459.5645 781.0004,-459.618 784.9518,-455.9648 777.0007,-459.6716 777.0007,-459.6716"/>
<ellipse fill="none" stroke="#000000" cx="773.801" cy="-459.7144" rx="3.2" ry="3.2"/>
</g>
<!-- notes&#45;&gt;bugs -->
<g id="edge36" class="edge">
<title>notes:w&#45;&gt;bugs:e</title>
<path fill="none" stroke="#000000" d="M770.4094,-459.6966C636.2696,-462.1413 592.9254,-497.2761 457,-460.5645 425.4663,-452.0476 426.1636,-423.5645 393.5,-423.5645"/>
<polygon fill="#000000" stroke="#000000" points="777.0003,-459.637 785.0326,-463.1643 781.0002,-459.6007 785,-459.5645 785,-459.5645 785,-459.5645 781.0002,-459.6007 784.9674,-455.9646 777.0003,-459.637 777.0003,-459.637"/>
<ellipse fill="none" stroke="#000000" cx="773.8005" cy="-459.666" rx="3.2" ry="3.2"/>
</g>
<!-- notes&#45;&gt;leads -->
<g id="edge38" class="edge">
<title>notes:w&#45;&gt;leads:e</title>
<path fill="none" stroke="#000000" d="M770.3677,-459.5873C724.23,-459.8541 698.222,-463.1614 668,-503.5645 608.0739,-583.6784 702.111,-878.3654 635,-952.5645 562.508,-1032.7129 503.5688,-994.5645 395.5,-994.5645"/>
<polygon fill="#000000" stroke="#000000" points="777,-459.577 785.0056,-463.1645 781,-459.5708 785,-459.5645 785,-459.5645 785,-459.5645 781,-459.5708 784.9944,-455.9645 777,-459.577 777,-459.577"/>
<ellipse fill="none" stroke="#000000" cx="773.8" cy="-459.5821" rx="3.2" ry="3.2"/>
</g>
<!-- notes&#45;&gt;meetings -->
<g id="edge39" class="edge">
<title>notes:w&#45;&gt;meetings:e</title>
<path fill="none" stroke="#000000" d="M770.3892,-459.6037C724.3855,-459.973 699.069,-463.809 668,-503.5645 619.3718,-565.7886 705.9718,-856.5645 627,-856.5645"/>
<polygon fill="#000000" stroke="#000000" points="777,-459.586 785.0097,-463.1645 781,-459.5753 785,-459.5645 785,-459.5645 785,-459.5645 781,-459.5753 784.9903,-455.9645 777,-459.586 777,-459.586"/>
<ellipse fill="none" stroke="#000000" cx="773.8" cy="-459.5946" rx="3.2" ry="3.2"/>
</g>
<!-- notes&#45;&gt;project -->
<g id="edge41" class="edge">
<title>notes:w&#45;&gt;project:e</title>
<path fill="none" stroke="#000000" d="M770.4838,-459.8233C715.0629,-461.8684 696.9972,-475.4495 635,-479.5645 560.0066,-484.542 366.2527,-496.7681 297,-467.5645 266.6809,-454.779 274.4047,-418.5645 241.5,-418.5645"/>
<polygon fill="#000000" stroke="#000000" points="777.0013,-459.7072 785.0642,-463.1639 781.0006,-459.6358 785,-459.5645 785,-459.5645 785,-459.5645 781.0006,-459.6358 784.9358,-455.9651 777.0013,-459.7072 777.0013,-459.7072"/>
<ellipse fill="none" stroke="#000000" cx="773.8018" cy="-459.7642" rx="3.2" ry="3.2"/>
</g>
<!-- notes&#45;&gt;project_task -->
<g id="edge42" class="edge">
<title>notes:w&#45;&gt;project_task:e</title>
<path fill="none" stroke="#000000" d="M770.5499,-459.4899C688.1964,-458.6674 510.8038,-450.4565 457,-406.5645 412.8027,-370.5092 468.5384,-286.5645 411.5,-286.5645"/>
<polygon fill="#000000" stroke="#000000" points="777.0001,-459.5232 784.9814,-463.1644 781.0001,-459.5438 785,-459.5645 785,-459.5645 785,-459.5645 781.0001,-459.5438 785.0186,-455.9645 777.0001,-459.5232 777.0001,-459.5232"/>
<ellipse fill="none" stroke="#000000" cx="773.8001" cy="-459.5066" rx="3.2" ry="3.2"/>
</g>
<!-- notes&#45;&gt;prospects -->
<g id="edge43" class="edge">
<title>notes:w&#45;&gt;prospects:e</title>
<path fill="none" stroke="#000000" d="M772.477,-452.2845C707.3598,-407.9885 417.3915,-176.5645 405.5,-176.5645"/>
<polygon fill="#000000" stroke="#000000" points="778.0837,-455.5439 783.1907,-462.6768 781.5419,-457.5542 785,-459.5645 785,-459.5645 785,-459.5645 781.5419,-457.5542 786.8093,-456.4522 778.0837,-455.5439 778.0837,-455.5439"/>
<ellipse fill="none" stroke="#000000" cx="775.3172" cy="-453.9356" rx="3.2" ry="3.2"/>
</g>
<!-- securitygroups_records -->
<g id="node18" class="node">
<title>securitygroups_records</title>
<g id="a_node18"><a xlink:href="../../tables/securitygroups_records.html" xlink:title="securitygroups_records" target="_top">
<polygon fill="#ffffff" stroke="transparent" points="1011,-632.0645 1011,-693.0645 1168,-693.0645 1168,-632.0645 1011,-632.0645"/>
<polygon fill="#f5f5f5" stroke="transparent" points="1011.5,-669.5645 1011.5,-692.5645 1168.5,-692.5645 1168.5,-669.5645 1011.5,-669.5645"/>
<polygon fill="none" stroke="#000000" points="1011.5,-669.5645 1011.5,-692.5645 1168.5,-692.5645 1168.5,-669.5645 1011.5,-669.5645"/>
<text text-anchor="start" x="1016.3528" y="-678.6645" font-family="Helvetica,sans-Serif" font-weight="bold" font-size="11.00" fill="#000000">securitygroups_records</text>
<text text-anchor="start" x="1134.0219" y="-677.6645" font-family="Helvetica,sans-Serif" font-size="11.00" fill="#000000">[table]</text>
<polygon fill="none" stroke="#000000" points="1011.5,-650.5645 1011.5,-669.5645 1168.5,-669.5645 1168.5,-650.5645 1011.5,-650.5645"/>
<text text-anchor="start" x="1014.5" y="-656.6645" font-family="Helvetica,sans-Serif" font-size="11.00" fill="#000000">...</text>
<polygon fill="#ffffff" stroke="transparent" points="1011.5,-631.5645 1011.5,-650.5645 1091.5,-650.5645 1091.5,-631.5645 1011.5,-631.5645"/>
<polygon fill="none" stroke="#000000" points="1011.5,-631.5645 1011.5,-650.5645 1091.5,-650.5645 1091.5,-631.5645 1011.5,-631.5645"/>
<text text-anchor="start" x="1014.5" y="-637.6645" font-family="Helvetica,sans-Serif" font-size="11.00" fill="#000000">&lt; 41</text>
<polygon fill="#ffffff" stroke="transparent" points="1091.5,-631.5645 1091.5,-650.5645 1129.5,-650.5645 1129.5,-631.5645 1091.5,-631.5645"/>
<polygon fill="none" stroke="#000000" points="1091.5,-631.5645 1091.5,-650.5645 1129.5,-650.5645 1129.5,-631.5645 1091.5,-631.5645"/>
<text text-anchor="start" x="1120.3862" y="-637.6645" font-family="Helvetica,sans-Serif" font-size="11.00" fill="#000000"> &#160;</text>
<polygon fill="#ffffff" stroke="transparent" points="1129.5,-631.5645 1129.5,-650.5645 1168.5,-650.5645 1168.5,-631.5645 1129.5,-631.5645"/>
<polygon fill="none" stroke="#000000" points="1129.5,-631.5645 1129.5,-650.5645 1168.5,-650.5645 1168.5,-631.5645 1129.5,-631.5645"/>
<text text-anchor="start" x="1159.3862" y="-637.6645" font-family="Helvetica,sans-Serif" font-size="11.00" fill="#000000"> &#160;</text>
</a>
</g>
</g>
<!-- securitygroups_records&#45;&gt;accounts -->
<g id="edge48" class="edge">
<title>securitygroups_records:w&#45;&gt;accounts:e</title>
<path fill="none" stroke="#000000" d="M997.4394,-663.1417C935.3081,-699.4395 1030.7649,-1000.934 970,-1058.5645 915.7194,-1110.0452 348.4009,-1092.9208 297,-1038.5645 252.6831,-991.6995 312.0005,-752.5645 247.5,-752.5645"/>
<polygon fill="#000000" stroke="#000000" points="1003.747,-661.537 1012.3876,-663.0533 1007.6235,-660.5507 1011.5,-659.5645 1011.5,-659.5645 1011.5,-659.5645 1007.6235,-660.5507 1010.6124,-656.0756 1003.747,-661.537 1003.747,-661.537"/>
<ellipse fill="none" stroke="#000000" cx="1000.6458" cy="-662.326" rx="3.2" ry="3.2"/>
</g>
<!-- securitygroups_records&#45;&gt;jjwg_maps -->
<g id="edge52" class="edge">
<title>securitygroups_records:w&#45;&gt;jjwg_maps:e</title>
<path fill="none" stroke="#000000" d="M997.4027,-662.8788C929.7799,-699.0275 1032.6713,-1019.9358 970,-1083.5645 836.9189,-1218.6787 735.6481,-1131.5645 546,-1131.5645 546,-1131.5645 546,-1131.5645 360.5,-1131.5645 226.7449,-1131.5645 207.8232,-1040.5618 143,-923.5645 121.2234,-884.2606 146.9334,-725.5645 102,-725.5645"/>
<polygon fill="#000000" stroke="#000000" points="1003.7123,-661.3954 1012.3239,-663.0689 1007.6062,-660.48 1011.5,-659.5645 1011.5,-659.5645 1011.5,-659.5645 1007.6062,-660.48 1010.6761,-656.06 1003.7123,-661.3954 1003.7123,-661.3954"/>
<ellipse fill="none" stroke="#000000" cx="1000.5973" cy="-662.1278" rx="3.2" ry="3.2"/>
</g>
<!-- securitygroups_records&#45;&gt;aos_contracts -->
<g id="edge49" class="edge">
<title>securitygroups_records:w&#45;&gt;aos_contracts:e</title>
<path fill="none" stroke="#000000" d="M997.8628,-664.4055C956.5483,-699.5712 1016.0099,-915.5553 970,-955.5645 919.3579,-999.6017 734.5852,-963.9497 668,-955.5645 571.9584,-943.4697 521.1381,-974.0668 457,-901.5645 410.3835,-848.8688 486.8558,-587.5645 416.5,-587.5645"/>
<polygon fill="#000000" stroke="#000000" points="1003.9609,-662.2408 1012.7043,-662.9571 1007.7305,-660.9026 1011.5,-659.5645 1011.5,-659.5645 1011.5,-659.5645 1007.7305,-660.9026 1010.2957,-656.1719 1003.9609,-662.2408 1003.9609,-662.2408"/>
<ellipse fill="none" stroke="#000000" cx="1000.9453" cy="-663.3113" rx="3.2" ry="3.2"/>
</g>
<!-- securitygroups_records&#45;&gt;opportunities -->
<g id="edge56" class="edge">
<title>securitygroups_records:w&#45;&gt;opportunities:e</title>
<path fill="none" stroke="#000000" d="M999.5802,-650.914C960.6528,-584.6528 1010.5578,-159.1143 970,-121.5645 928.8648,-83.4802 315.8384,-120.5403 297,-138.5645 224.613,-207.8229 356.6829,-587.5645 256.5,-587.5645"/>
<polygon fill="#000000" stroke="#000000" points="1005.0253,-654.8657 1009.3855,-662.4781 1008.2627,-657.2151 1011.5,-659.5645 1011.5,-659.5645 1011.5,-659.5645 1008.2627,-657.2151 1013.6145,-656.6509 1005.0253,-654.8657 1005.0253,-654.8657"/>
<ellipse fill="none" stroke="#000000" cx="1002.4354" cy="-652.9862" rx="3.2" ry="3.2"/>
</g>
<!-- securitygroups_records&#45;&gt;cases -->
<g id="edge51" class="edge">
<title>securitygroups_records:w&#45;&gt;cases:e</title>
<path fill="none" stroke="#000000" d="M997.6957,-664.0906C951.801,-699.7964 1019.7631,-935.8383 970,-979.5645 884.3629,-1054.8127 545.6626,-1051.223 457,-979.5645 357.3049,-898.9894 524.6852,-697.5645 396.5,-697.5645"/>
<polygon fill="#000000" stroke="#000000" points="1003.8982,-662.057 1012.6216,-662.9853 1007.6991,-660.8107 1011.5,-659.5645 1011.5,-659.5645 1011.5,-659.5645 1007.6991,-660.8107 1010.3784,-656.1437 1003.8982,-662.057 1003.8982,-662.057"/>
<ellipse fill="none" stroke="#000000" cx="1000.8574" cy="-663.054" rx="3.2" ry="3.2"/>
</g>
<!-- securitygroups_records&#45;&gt;bugs -->
<g id="edge50" class="edge">
<title>securitygroups_records:w&#45;&gt;bugs:e</title>
<path fill="none" stroke="#000000" d="M997.407,-655.5782C941.8781,-619.0024 1027.437,-341.9039 970,-290.5645 799.5186,-138.1817 648.2981,-204.3068 457,-329.5645 414.8205,-357.1827 443.917,-423.5645 393.5,-423.5645"/>
<polygon fill="#000000" stroke="#000000" points="1003.802,-657.387 1010.5201,-663.0286 1007.651,-658.4757 1011.5,-659.5645 1011.5,-659.5645 1011.5,-659.5645 1007.651,-658.4757 1012.4799,-656.1004 1003.802,-657.387 1003.802,-657.387"/>
<ellipse fill="none" stroke="#000000" cx="1000.7228" cy="-656.516" rx="3.2" ry="3.2"/>
</g>
<!-- securitygroups_records&#45;&gt;leads -->
<g id="edge53" class="edge">
<title>securitygroups_records:w&#45;&gt;leads:e</title>
<path fill="none" stroke="#000000" d="M997.4692,-663.6068C943.9232,-699.5427 1022.842,-964.1789 970,-1016.5645 888.8418,-1097.0216 563.2102,-1094.7473 457,-1052.5645 422.0818,-1038.6963 433.0713,-994.5645 395.5,-994.5645"/>
<polygon fill="#000000" stroke="#000000" points="1003.8127,-661.7793 1012.4967,-663.0238 1007.6563,-660.6719 1011.5,-659.5645 1011.5,-659.5645 1011.5,-659.5645 1007.6563,-660.6719 1010.5033,-656.1052 1003.8127,-661.7793 1003.8127,-661.7793"/>
<ellipse fill="none" stroke="#000000" cx="1000.7377" cy="-662.6652" rx="3.2" ry="3.2"/>
</g>
<!-- securitygroups_records&#45;&gt;meetings -->
<g id="edge54" class="edge">
<title>securitygroups_records:w&#45;&gt;meetings:e</title>
<path fill="none" stroke="#000000" d="M997.0739,-661.249C940.4362,-676.7489 1030.9021,-795.1289 970,-845.5645 911.2647,-894.2056 703.2614,-856.5645 627,-856.5645"/>
<polygon fill="#000000" stroke="#000000" points="1003.554,-660.4924 1011.9175,-663.1402 1007.527,-660.0284 1011.5,-659.5645 1011.5,-659.5645 1011.5,-659.5645 1007.527,-660.0284 1011.0825,-655.9888 1003.554,-660.4924 1003.554,-660.4924"/>
<ellipse fill="none" stroke="#000000" cx="1000.3756" cy="-660.8635" rx="3.2" ry="3.2"/>
</g>
<!-- securitygroups_records&#45;&gt;project -->
<g id="edge57" class="edge">
<title>securitygroups_records:w&#45;&gt;project:e</title>
<path fill="none" stroke="#000000" d="M999.4422,-651.0404C958.854,-583.8831 1012.0198,-141.57 970,-102.5645 860.355,-.7848 408.0636,-19.3347 297,-119.5645 196.6598,-210.1169 376.6588,-418.5645 241.5,-418.5645"/>
<polygon fill="#000000" stroke="#000000" points="1004.9675,-654.9464 1009.4219,-662.5041 1008.2337,-657.2554 1011.5,-659.5645 1011.5,-659.5645 1011.5,-659.5645 1008.2337,-657.2554 1013.5781,-656.6249 1004.9675,-654.9464 1004.9675,-654.9464"/>
<ellipse fill="none" stroke="#000000" cx="1002.3545" cy="-653.0992" rx="3.2" ry="3.2"/>
</g>
<!-- securitygroups_records&#45;&gt;project_task -->
<g id="edge58" class="edge">
<title>securitygroups_records:w&#45;&gt;project_task:e</title>
<path fill="none" stroke="#000000" d="M997.1946,-656.4089C922.7102,-619.2455 1041.7705,-265.1516 970,-199.5645 885.7118,-122.5383 556.0276,-171.722 457,-228.5645 428.5851,-244.8748 444.2633,-286.5645 411.5,-286.5645"/>
<polygon fill="#000000" stroke="#000000" points="1003.6878,-657.8412 1010.7245,-663.08 1007.5939,-658.7028 1011.5,-659.5645 1011.5,-659.5645 1011.5,-659.5645 1007.5939,-658.7028 1012.2755,-656.049 1003.6878,-657.8412 1003.6878,-657.8412"/>
<ellipse fill="none" stroke="#000000" cx="1000.5629" cy="-657.1519" rx="3.2" ry="3.2"/>
</g>
<!-- securitygroups_records&#45;&gt;prospects -->
<g id="edge59" class="edge">
<title>securitygroups_records:w&#45;&gt;prospects:e</title>
<path fill="none" stroke="#000000" d="M999.8647,-650.6872C964.0091,-586.2926 1007.7959,-192.3648 970,-157.5645 877.6634,-72.5463 531.0155,-176.5645 405.5,-176.5645"/>
<polygon fill="#000000" stroke="#000000" points="1005.1398,-654.7119 1009.3163,-662.4266 1008.3199,-657.1382 1011.5,-659.5645 1011.5,-659.5645 1011.5,-659.5645 1008.3199,-657.1382 1013.6837,-656.7024 1005.1398,-654.7119 1005.1398,-654.7119"/>
<ellipse fill="none" stroke="#000000" cx="1002.5957" cy="-652.7708" rx="3.2" ry="3.2"/>
</g>
<!-- securitygroups_records&#45;&gt;notes -->
<g id="edge55" class="edge">
<title>securitygroups_records:w&#45;&gt;notes:e</title>
<path fill="none" stroke="#000000" d="M997.0092,-657.6663C951.4866,-643.428 1014.2157,-552.5636 970,-503.5645 933.0597,-462.6279 909.1398,-459.5645 854,-459.5645"/>
<polygon fill="#000000" stroke="#000000" points="1003.5678,-658.5254 1011.0324,-663.134 1007.5339,-659.0449 1011.5,-659.5645 1011.5,-659.5645 1011.5,-659.5645 1007.5339,-659.0449 1011.9676,-655.995 1003.5678,-658.5254 1003.5678,-658.5254"/>
<ellipse fill="none" stroke="#000000" cx="1000.3949" cy="-658.1097" rx="3.2" ry="3.2"/>
</g>
</g>
</svg>
