<?xml version="1.0" encoding="UTF-8" standalone="no"?>
<!DOCTYPE svg PUBLIC "-//W3C//DTD SVG 1.1//EN"
 "http://www.w3.org/Graphics/SVG/1.1/DTD/svg11.dtd">
<!-- Generated by graphviz version 2.40.1 (20161225.0304)
 -->
<!-- Title: oneDegreeRelationshipsDiagram Pages: 1 -->
<svg width="503pt" height="611pt"
 viewBox="0.00 0.00 503.00 611.20" xmlns="http://www.w3.org/2000/svg" xmlns:xlink="http://www.w3.org/1999/xlink">
<g id="graph0" class="graph" transform="scale(1 1) rotate(0) translate(4 607.2)">
<title>oneDegreeRelationshipsDiagram</title>
<polygon fill="#ffffff" stroke="transparent" points="-4,4 -4,-607.2 499,-607.2 499,4 -4,4"/>
<text text-anchor="middle" x="72.4936" y="-7.3" font-family="Helvetica,sans-Serif" font-size="11.00" fill="#000000">Generated by SchemaSpy</text>
<!-- meetings_contacts -->
<g id="node1" class="node">
<title>meetings_contacts</title>
<g id="a_node1"><a xlink:href="../../tables/meetings_contacts.html" xlink:title="meetings_contacts" target="_top">
<polygon fill="#ffffff" stroke="transparent" points="270,-282.7 270,-482.7 487,-482.7 487,-282.7 270,-282.7"/>
<polygon fill="#f5f5f5" stroke="transparent" points="272.5,-457.7 272.5,-480.7 485.5,-480.7 485.5,-457.7 272.5,-457.7"/>
<polygon fill="none" stroke="#000000" points="272.5,-457.7 272.5,-480.7 485.5,-480.7 485.5,-457.7 272.5,-457.7"/>
<text text-anchor="start" x="277.5" y="-466.8" font-family="Helvetica,sans-Serif" font-weight="bold" font-size="11.00" fill="#000000">meetings_contacts</text>
<text text-anchor="start" x="450.5437" y="-465.8" font-family="Helvetica,sans-Serif" font-size="11.00" fill="#000000">[table]</text>
<polygon fill="none" stroke="#000000" points="272.5,-435.7 272.5,-457.7 419.5,-457.7 419.5,-435.7 272.5,-435.7"/>
<image xlink:href="../../images/primaryKeys.png" width="11px" height="12px" preserveAspectRatio="xMinYMin meet" x="277.5" y="-452.7"/>
<text text-anchor="start" x="292.5" y="-442.8" font-family="Helvetica,sans-Serif" font-size="11.00" fill="#000000">id</text>
<polygon fill="none" stroke="#000000" points="419.5,-435.7 419.5,-457.7 485.5,-457.7 485.5,-435.7 419.5,-435.7"/>
<text text-anchor="start" x="422.5" y="-443.4" font-family="Helvetica,sans-Serif" font-size="11.00" fill="#000000">varchar[36]</text>
<polygon fill="#ffffff" stroke="transparent" points="272.5,-413.7 272.5,-435.7 419.5,-435.7 419.5,-413.7 272.5,-413.7"/>
<polygon fill="none" stroke="#000000" points="272.5,-413.7 272.5,-435.7 419.5,-435.7 419.5,-413.7 272.5,-413.7"/>
<image xlink:href="../../images/foreignKeys.png" width="11px" height="12px" preserveAspectRatio="xMinYMin meet" x="277.5" y="-430.7"/>
<text text-anchor="start" x="292.5" y="-420.8" font-family="Helvetica,sans-Serif" font-size="11.00" fill="#000000">meeting_id</text>
<polygon fill="none" stroke="#000000" points="419.5,-413.7 419.5,-435.7 485.5,-435.7 485.5,-413.7 419.5,-413.7"/>
<text text-anchor="start" x="422.5" y="-421.4" font-family="Helvetica,sans-Serif" font-size="11.00" fill="#000000">varchar[36]</text>
<polygon fill="#ffffff" stroke="transparent" points="272.5,-391.7 272.5,-413.7 419.5,-413.7 419.5,-391.7 272.5,-391.7"/>
<polygon fill="none" stroke="#000000" points="272.5,-391.7 272.5,-413.7 419.5,-413.7 419.5,-391.7 272.5,-391.7"/>
<image xlink:href="../../images/foreignKeys.png" width="11px" height="12px" preserveAspectRatio="xMinYMin meet" x="277.5" y="-408.7"/>
<text text-anchor="start" x="292.5" y="-398.8" font-family="Helvetica,sans-Serif" font-size="11.00" fill="#000000">contact_id</text>
<polygon fill="none" stroke="#000000" points="419.5,-391.7 419.5,-413.7 485.5,-413.7 485.5,-391.7 419.5,-391.7"/>
<text text-anchor="start" x="422.5" y="-399.4" font-family="Helvetica,sans-Serif" font-size="11.00" fill="#000000">varchar[36]</text>
<polygon fill="none" stroke="#000000" points="272.5,-369.7 272.5,-391.7 419.5,-391.7 419.5,-369.7 272.5,-369.7"/>
<text text-anchor="start" x="292.5" y="-376.8" font-family="Helvetica,sans-Serif" font-size="11.00" fill="#000000">required</text>
<polygon fill="none" stroke="#000000" points="419.5,-369.7 419.5,-391.7 485.5,-391.7 485.5,-369.7 419.5,-369.7"/>
<text text-anchor="start" x="422.5" y="-377.4" font-family="Helvetica,sans-Serif" font-size="11.00" fill="#000000">varchar[1]</text>
<polygon fill="none" stroke="#000000" points="272.5,-347.7 272.5,-369.7 419.5,-369.7 419.5,-347.7 272.5,-347.7"/>
<text text-anchor="start" x="292.5" y="-354.8" font-family="Helvetica,sans-Serif" font-size="11.00" fill="#000000">accept_status</text>
<polygon fill="none" stroke="#000000" points="419.5,-347.7 419.5,-369.7 485.5,-369.7 485.5,-347.7 419.5,-347.7"/>
<text text-anchor="start" x="422.5" y="-355.4" font-family="Helvetica,sans-Serif" font-size="11.00" fill="#000000">varchar[25]</text>
<polygon fill="none" stroke="#000000" points="272.5,-325.7 272.5,-347.7 419.5,-347.7 419.5,-325.7 272.5,-325.7"/>
<text text-anchor="start" x="292.5" y="-332.8" font-family="Helvetica,sans-Serif" font-size="11.00" fill="#000000">date_modified</text>
<polygon fill="none" stroke="#000000" points="419.5,-325.7 419.5,-347.7 485.5,-347.7 485.5,-325.7 419.5,-325.7"/>
<text text-anchor="start" x="422.2401" y="-333.4" font-family="Helvetica,sans-Serif" font-size="11.00" fill="#000000">datetime[26]</text>
<polygon fill="none" stroke="#000000" points="272.5,-303.7 272.5,-325.7 419.5,-325.7 419.5,-303.7 272.5,-303.7"/>
<text text-anchor="start" x="292.5" y="-310.8" font-family="Helvetica,sans-Serif" font-size="11.00" fill="#000000">deleted</text>
<polygon fill="none" stroke="#000000" points="419.5,-303.7 419.5,-325.7 485.5,-325.7 485.5,-303.7 419.5,-303.7"/>
<text text-anchor="start" x="422.5" y="-311.4" font-family="Helvetica,sans-Serif" font-size="11.00" fill="#000000">bit[1]</text>
<polygon fill="#ffffff" stroke="transparent" points="272.5,-284.7 272.5,-303.7 350.5,-303.7 350.5,-284.7 272.5,-284.7"/>
<polygon fill="none" stroke="#000000" points="272.5,-284.7 272.5,-303.7 350.5,-303.7 350.5,-284.7 272.5,-284.7"/>
<text text-anchor="start" x="275.5" y="-290.8" font-family="Helvetica,sans-Serif" font-size="11.00" fill="#000000">&lt; 2</text>
<polygon fill="#ffffff" stroke="transparent" points="350.5,-284.7 350.5,-303.7 419.5,-303.7 419.5,-284.7 350.5,-284.7"/>
<polygon fill="none" stroke="#000000" points="350.5,-284.7 350.5,-303.7 419.5,-303.7 419.5,-284.7 350.5,-284.7"/>
<text text-anchor="start" x="410.3862" y="-290.8" font-family="Helvetica,sans-Serif" font-size="11.00" fill="#000000"> &#160;</text>
<polygon fill="#ffffff" stroke="transparent" points="419.5,-284.7 419.5,-303.7 485.5,-303.7 485.5,-284.7 419.5,-284.7"/>
<polygon fill="none" stroke="#000000" points="419.5,-284.7 419.5,-303.7 485.5,-303.7 485.5,-284.7 419.5,-284.7"/>
<text text-anchor="start" x="466.9053" y="-290.8" font-family="Helvetica,sans-Serif" font-size="11.00" fill="#000000">0 &gt;</text>
<polygon fill="none" stroke="#000000" stroke-width="2" points="271,-283.7 271,-481.7 486,-481.7 486,-283.7 271,-283.7"/>
</a>
</g>
</g>
<!-- contacts -->
<g id="node2" class="node">
<title>contacts</title>
<g id="a_node2"><a xlink:href="../../tables/contacts.html" xlink:title="contacts" target="_top">
<polygon fill="#ffffff" stroke="transparent" points="8,-38.2 8,-297.2 221,-297.2 221,-38.2 8,-38.2"/>
<polygon fill="#f5f5f5" stroke="transparent" points="8.5,-273.7 8.5,-296.7 221.5,-296.7 221.5,-273.7 8.5,-273.7"/>
<polygon fill="none" stroke="#000000" points="8.5,-273.7 8.5,-296.7 221.5,-296.7 221.5,-273.7 8.5,-273.7"/>
<text text-anchor="start" x="13.5" y="-282.8" font-family="Helvetica,sans-Serif" font-weight="bold" font-size="11.00" fill="#000000">contacts</text>
<text text-anchor="start" x="186.5437" y="-281.8" font-family="Helvetica,sans-Serif" font-size="11.00" fill="#000000">[table]</text>
<polygon fill="none" stroke="#000000" points="8.5,-251.7 8.5,-273.7 221.5,-273.7 221.5,-251.7 8.5,-251.7"/>
<image xlink:href="../../images/primaryKeys.png" width="11px" height="12px" preserveAspectRatio="xMinYMin meet" x="13.5" y="-268.7"/>
<text text-anchor="start" x="28.5" y="-258.8" font-family="Helvetica,sans-Serif" font-size="11.00" fill="#000000">id</text>
<polygon fill="#c0c0c0" stroke="transparent" points="8.5,-229.7 8.5,-251.7 221.5,-251.7 221.5,-229.7 8.5,-229.7"/>
<polygon fill="none" stroke="#000000" points="8.5,-229.7 8.5,-251.7 221.5,-251.7 221.5,-229.7 8.5,-229.7"/>
<image xlink:href="../../images/foreignKeys.png" width="11px" height="12px" preserveAspectRatio="xMinYMin meet" x="13.5" y="-246.7"/>
<text text-anchor="start" x="28.5" y="-236.8" font-family="Helvetica,sans-Serif" font-size="11.00" fill="#000000">modified_user_id</text>
<polygon fill="#c0c0c0" stroke="transparent" points="8.5,-207.7 8.5,-229.7 221.5,-229.7 221.5,-207.7 8.5,-207.7"/>
<polygon fill="none" stroke="#000000" points="8.5,-207.7 8.5,-229.7 221.5,-229.7 221.5,-207.7 8.5,-207.7"/>
<image xlink:href="../../images/foreignKeys.png" width="11px" height="12px" preserveAspectRatio="xMinYMin meet" x="13.5" y="-224.7"/>
<text text-anchor="start" x="28.5" y="-214.8" font-family="Helvetica,sans-Serif" font-size="11.00" fill="#000000">created_by</text>
<polygon fill="#ffffff" stroke="transparent" points="8.5,-185.7 8.5,-207.7 221.5,-207.7 221.5,-185.7 8.5,-185.7"/>
<polygon fill="none" stroke="#000000" points="8.5,-185.7 8.5,-207.7 221.5,-207.7 221.5,-185.7 8.5,-185.7"/>
<text text-anchor="start" x="28.5" y="-192.8" font-family="Helvetica,sans-Serif" font-size="11.00" fill="#000000">deleted</text>
<polygon fill="#c0c0c0" stroke="transparent" points="8.5,-163.7 8.5,-185.7 221.5,-185.7 221.5,-163.7 8.5,-163.7"/>
<polygon fill="none" stroke="#000000" points="8.5,-163.7 8.5,-185.7 221.5,-185.7 221.5,-163.7 8.5,-163.7"/>
<image xlink:href="../../images/foreignKeys.png" width="11px" height="12px" preserveAspectRatio="xMinYMin meet" x="13.5" y="-180.7"/>
<text text-anchor="start" x="28.5" y="-170.8" font-family="Helvetica,sans-Serif" font-size="11.00" fill="#000000">assigned_user_id</text>
<polygon fill="#ffffff" stroke="transparent" points="8.5,-141.7 8.5,-163.7 221.5,-163.7 221.5,-141.7 8.5,-141.7"/>
<polygon fill="none" stroke="#000000" points="8.5,-141.7 8.5,-163.7 221.5,-163.7 221.5,-141.7 8.5,-141.7"/>
<text text-anchor="start" x="28.5" y="-148.8" font-family="Helvetica,sans-Serif" font-size="11.00" fill="#000000">first_name</text>
<polygon fill="#ffffff" stroke="transparent" points="8.5,-119.7 8.5,-141.7 221.5,-141.7 221.5,-119.7 8.5,-119.7"/>
<polygon fill="none" stroke="#000000" points="8.5,-119.7 8.5,-141.7 221.5,-141.7 221.5,-119.7 8.5,-119.7"/>
<text text-anchor="start" x="28.5" y="-126.8" font-family="Helvetica,sans-Serif" font-size="11.00" fill="#000000">last_name</text>
<polygon fill="#ffffff" stroke="transparent" points="8.5,-97.7 8.5,-119.7 221.5,-119.7 221.5,-97.7 8.5,-97.7"/>
<polygon fill="none" stroke="#000000" points="8.5,-97.7 8.5,-119.7 221.5,-119.7 221.5,-97.7 8.5,-97.7"/>
<image xlink:href="../../images/foreignKeys.png" width="11px" height="12px" preserveAspectRatio="xMinYMin meet" x="13.5" y="-114.7"/>
<text text-anchor="start" x="28.5" y="-104.8" font-family="Helvetica,sans-Serif" font-size="11.00" fill="#000000">reports_to_id</text>
<polygon fill="none" stroke="#000000" points="8.5,-75.7 8.5,-97.7 221.5,-97.7 221.5,-75.7 8.5,-75.7"/>
<image xlink:href="../../images/foreignKeys.png" width="11px" height="12px" preserveAspectRatio="xMinYMin meet" x="13.5" y="-92.7"/>
<text text-anchor="start" x="28.5" y="-82.8" font-family="Helvetica,sans-Serif" font-size="11.00" fill="#000000">campaign_id</text>
<polygon fill="none" stroke="#000000" points="8.5,-56.7 8.5,-75.7 221.5,-75.7 221.5,-56.7 8.5,-56.7"/>
<text text-anchor="start" x="11.5" y="-62.8" font-family="Helvetica,sans-Serif" font-size="11.00" fill="#000000">...</text>
<polygon fill="#ffffff" stroke="transparent" points="8.5,-37.7 8.5,-56.7 105.5,-56.7 105.5,-37.7 8.5,-37.7"/>
<polygon fill="none" stroke="#000000" points="8.5,-37.7 8.5,-56.7 105.5,-56.7 105.5,-37.7 8.5,-37.7"/>
<text text-anchor="start" x="11.5" y="-43.8" font-family="Helvetica,sans-Serif" font-size="11.00" fill="#000000">&lt; 7</text>
<polygon fill="#ffffff" stroke="transparent" points="105.5,-37.7 105.5,-56.7 155.5,-56.7 155.5,-37.7 105.5,-37.7"/>
<polygon fill="none" stroke="#000000" points="105.5,-37.7 105.5,-56.7 155.5,-56.7 155.5,-37.7 105.5,-37.7"/>
<text text-anchor="start" x="146.3862" y="-43.8" font-family="Helvetica,sans-Serif" font-size="11.00" fill="#000000"> &#160;</text>
<polygon fill="#ffffff" stroke="transparent" points="155.5,-37.7 155.5,-56.7 221.5,-56.7 221.5,-37.7 155.5,-37.7"/>
<polygon fill="none" stroke="#000000" points="155.5,-37.7 155.5,-56.7 221.5,-56.7 221.5,-37.7 155.5,-37.7"/>
<text text-anchor="start" x="196.7904" y="-43.8" font-family="Helvetica,sans-Serif" font-size="11.00" fill="#000000">30 &gt;</text>
</a>
</g>
</g>
<!-- meetings_contacts&#45;&gt;contacts -->
<g id="edge1" class="edge">
<title>meetings_contacts:w&#45;&gt;contacts:e</title>
<path fill="none" stroke="#000000" d="M258.0127,-399.5129C219.7204,-378.6738 281.7726,-262.7 221.5,-262.7"/>
<polygon fill="#000000" stroke="#000000" points="264.6868,-400.9811 271.7265,-406.2159 268.5934,-401.8405 272.5,-402.7 272.5,-402.7 272.5,-402.7 268.5934,-401.8405 273.2735,-399.1841 264.6868,-400.9811 264.6868,-400.9811"/>
<ellipse fill="none" stroke="#000000" cx="261.5616" cy="-400.2935" rx="3.2" ry="3.2"/>
</g>
<!-- meetings -->
<g id="node3" class="node">
<title>meetings</title>
<g id="a_node3"><a xlink:href="../../tables/meetings.html" xlink:title="meetings" target="_top">
<polygon fill="#ffffff" stroke="transparent" points="33.5,-318.2 33.5,-599.2 195.5,-599.2 195.5,-318.2 33.5,-318.2"/>
<polygon fill="#f5f5f5" stroke="transparent" points="33.5,-575.7 33.5,-598.7 195.5,-598.7 195.5,-575.7 33.5,-575.7"/>
<polygon fill="none" stroke="#000000" points="33.5,-575.7 33.5,-598.7 195.5,-598.7 195.5,-575.7 33.5,-575.7"/>
<text text-anchor="start" x="38.5" y="-584.8" font-family="Helvetica,sans-Serif" font-weight="bold" font-size="11.00" fill="#000000">meetings</text>
<text text-anchor="start" x="160.5437" y="-583.8" font-family="Helvetica,sans-Serif" font-size="11.00" fill="#000000">[table]</text>
<polygon fill="none" stroke="#000000" points="33.5,-553.7 33.5,-575.7 195.5,-575.7 195.5,-553.7 33.5,-553.7"/>
<image xlink:href="../../images/primaryKeys.png" width="11px" height="12px" preserveAspectRatio="xMinYMin meet" x="38.5" y="-570.7"/>
<text text-anchor="start" x="53.5" y="-560.8" font-family="Helvetica,sans-Serif" font-size="11.00" fill="#000000">id</text>
<polygon fill="#ffffff" stroke="transparent" points="33.5,-531.7 33.5,-553.7 195.5,-553.7 195.5,-531.7 33.5,-531.7"/>
<polygon fill="none" stroke="#000000" points="33.5,-531.7 33.5,-553.7 195.5,-553.7 195.5,-531.7 33.5,-531.7"/>
<text text-anchor="start" x="53.5" y="-538.8" font-family="Helvetica,sans-Serif" font-size="11.00" fill="#000000">name</text>
<polygon fill="#c0c0c0" stroke="transparent" points="33.5,-509.7 33.5,-531.7 195.5,-531.7 195.5,-509.7 33.5,-509.7"/>
<polygon fill="none" stroke="#000000" points="33.5,-509.7 33.5,-531.7 195.5,-531.7 195.5,-509.7 33.5,-509.7"/>
<image xlink:href="../../images/foreignKeys.png" width="11px" height="12px" preserveAspectRatio="xMinYMin meet" x="38.5" y="-526.7"/>
<text text-anchor="start" x="53.5" y="-516.8" font-family="Helvetica,sans-Serif" font-size="11.00" fill="#000000">modified_user_id</text>
<polygon fill="#c0c0c0" stroke="transparent" points="33.5,-487.7 33.5,-509.7 195.5,-509.7 195.5,-487.7 33.5,-487.7"/>
<polygon fill="none" stroke="#000000" points="33.5,-487.7 33.5,-509.7 195.5,-509.7 195.5,-487.7 33.5,-487.7"/>
<image xlink:href="../../images/foreignKeys.png" width="11px" height="12px" preserveAspectRatio="xMinYMin meet" x="38.5" y="-504.7"/>
<text text-anchor="start" x="53.5" y="-494.8" font-family="Helvetica,sans-Serif" font-size="11.00" fill="#000000">created_by</text>
<polygon fill="#ffffff" stroke="transparent" points="33.5,-465.7 33.5,-487.7 195.5,-487.7 195.5,-465.7 33.5,-465.7"/>
<polygon fill="none" stroke="#000000" points="33.5,-465.7 33.5,-487.7 195.5,-487.7 195.5,-465.7 33.5,-465.7"/>
<text text-anchor="start" x="53.5" y="-472.8" font-family="Helvetica,sans-Serif" font-size="11.00" fill="#000000">deleted</text>
<polygon fill="#c0c0c0" stroke="transparent" points="33.5,-443.7 33.5,-465.7 195.5,-465.7 195.5,-443.7 33.5,-443.7"/>
<polygon fill="none" stroke="#000000" points="33.5,-443.7 33.5,-465.7 195.5,-465.7 195.5,-443.7 33.5,-443.7"/>
<image xlink:href="../../images/foreignKeys.png" width="11px" height="12px" preserveAspectRatio="xMinYMin meet" x="38.5" y="-460.7"/>
<text text-anchor="start" x="53.5" y="-450.8" font-family="Helvetica,sans-Serif" font-size="11.00" fill="#000000">assigned_user_id</text>
<polygon fill="#ffffff" stroke="transparent" points="33.5,-421.7 33.5,-443.7 195.5,-443.7 195.5,-421.7 33.5,-421.7"/>
<polygon fill="none" stroke="#000000" points="33.5,-421.7 33.5,-443.7 195.5,-443.7 195.5,-421.7 33.5,-421.7"/>
<text text-anchor="start" x="53.5" y="-428.8" font-family="Helvetica,sans-Serif" font-size="11.00" fill="#000000">date_start</text>
<polygon fill="#ffffff" stroke="transparent" points="33.5,-399.7 33.5,-421.7 195.5,-421.7 195.5,-399.7 33.5,-399.7"/>
<polygon fill="none" stroke="#000000" points="33.5,-399.7 33.5,-421.7 195.5,-421.7 195.5,-399.7 33.5,-399.7"/>
<text text-anchor="start" x="53.5" y="-406.8" font-family="Helvetica,sans-Serif" font-size="11.00" fill="#000000">parent_type</text>
<polygon fill="#ffffff" stroke="transparent" points="33.5,-377.7 33.5,-399.7 195.5,-399.7 195.5,-377.7 33.5,-377.7"/>
<polygon fill="none" stroke="#000000" points="33.5,-377.7 33.5,-399.7 195.5,-399.7 195.5,-377.7 33.5,-377.7"/>
<text text-anchor="start" x="53.5" y="-384.8" font-family="Helvetica,sans-Serif" font-size="11.00" fill="#000000">status</text>
<polygon fill="#ffffff" stroke="transparent" points="33.5,-355.7 33.5,-377.7 195.5,-377.7 195.5,-355.7 33.5,-355.7"/>
<polygon fill="none" stroke="#000000" points="33.5,-355.7 33.5,-377.7 195.5,-377.7 195.5,-355.7 33.5,-355.7"/>
<image xlink:href="../../images/foreignKeys.png" width="11px" height="12px" preserveAspectRatio="xMinYMin meet" x="38.5" y="-372.7"/>
<text text-anchor="start" x="53.5" y="-362.8" font-family="Helvetica,sans-Serif" font-size="11.00" fill="#000000">parent_id</text>
<polygon fill="none" stroke="#000000" points="33.5,-336.7 33.5,-355.7 195.5,-355.7 195.5,-336.7 33.5,-336.7"/>
<text text-anchor="start" x="36.5" y="-342.8" font-family="Helvetica,sans-Serif" font-size="11.00" fill="#000000">...</text>
<polygon fill="#ffffff" stroke="transparent" points="33.5,-317.7 33.5,-336.7 111.5,-336.7 111.5,-317.7 33.5,-317.7"/>
<polygon fill="none" stroke="#000000" points="33.5,-317.7 33.5,-336.7 111.5,-336.7 111.5,-317.7 33.5,-317.7"/>
<text text-anchor="start" x="36.5" y="-323.8" font-family="Helvetica,sans-Serif" font-size="11.00" fill="#000000">&lt; 13</text>
<polygon fill="#ffffff" stroke="transparent" points="111.5,-317.7 111.5,-336.7 148.5,-336.7 148.5,-317.7 111.5,-317.7"/>
<polygon fill="none" stroke="#000000" points="111.5,-317.7 111.5,-336.7 148.5,-336.7 148.5,-317.7 111.5,-317.7"/>
<text text-anchor="start" x="139.3862" y="-323.8" font-family="Helvetica,sans-Serif" font-size="11.00" fill="#000000"> &#160;</text>
<polygon fill="#ffffff" stroke="transparent" points="148.5,-317.7 148.5,-336.7 195.5,-336.7 195.5,-317.7 148.5,-317.7"/>
<polygon fill="none" stroke="#000000" points="148.5,-317.7 148.5,-336.7 195.5,-336.7 195.5,-317.7 148.5,-317.7"/>
<text text-anchor="start" x="176.9053" y="-323.8" font-family="Helvetica,sans-Serif" font-size="11.00" fill="#000000">7 &gt;</text>
</a>
</g>
</g>
<!-- meetings_contacts&#45;&gt;meetings -->
<g id="edge2" class="edge">
<title>meetings_contacts:w&#45;&gt;meetings:e</title>
<path fill="none" stroke="#000000" d="M258.2176,-427.13C210.8174,-445.7205 260.9646,-564.7 195.5,-564.7"/>
<polygon fill="#000000" stroke="#000000" points="264.6133,-426.0419 273.1038,-428.249 268.5567,-425.3709 272.5,-424.7 272.5,-424.7 272.5,-424.7 268.5567,-425.3709 271.8962,-421.151 264.6133,-426.0419 264.6133,-426.0419"/>
<ellipse fill="none" stroke="#000000" cx="261.4587" cy="-426.5786" rx="3.2" ry="3.2"/>
</g>
</g>
</svg>
