<?xml version="1.0" encoding="UTF-8" standalone="no"?>
<!DOCTYPE svg PUBLIC "-//W3C//DTD SVG 1.1//EN"
 "http://www.w3.org/Graphics/SVG/1.1/DTD/svg11.dtd">
<!-- Generated by graphviz version 2.40.1 (20161225.0304)
 -->
<!-- Title: oneDegreeRelationshipsDiagram Pages: 1 -->
<svg width="536pt" height="641pt"
 viewBox="0.00 0.00 536.00 640.70" xmlns="http://www.w3.org/2000/svg" xmlns:xlink="http://www.w3.org/1999/xlink">
<g id="graph0" class="graph" transform="scale(1 1) rotate(0) translate(4 636.7)">
<title>oneDegreeRelationshipsDiagram</title>
<polygon fill="#ffffff" stroke="transparent" points="-4,4 -4,-636.7 532,-636.7 532,4 -4,4"/>
<text text-anchor="middle" x="72.4936" y="-7.3" font-family="Helvetica,sans-Serif" font-size="11.00" fill="#000000">Generated by SchemaSpy</text>
<!-- oauth_tokens -->
<g id="node1" class="node">
<title>oauth_tokens</title>
<g id="a_node1"><a xlink:href="../../tables/oauth_tokens.html" xlink:title="oauth_tokens" target="_top">
<polygon fill="#ffffff" stroke="transparent" points="273,-186.7 273,-628.7 520,-628.7 520,-186.7 273,-186.7"/>
<polygon fill="#f5f5f5" stroke="transparent" points="275.5,-603.7 275.5,-626.7 518.5,-626.7 518.5,-603.7 275.5,-603.7"/>
<polygon fill="none" stroke="#000000" points="275.5,-603.7 275.5,-626.7 518.5,-626.7 518.5,-603.7 275.5,-603.7"/>
<text text-anchor="start" x="280.5" y="-612.8" font-family="Helvetica,sans-Serif" font-weight="bold" font-size="11.00" fill="#000000">oauth_tokens</text>
<text text-anchor="start" x="483.5437" y="-611.8" font-family="Helvetica,sans-Serif" font-size="11.00" fill="#000000">[table]</text>
<polygon fill="none" stroke="#000000" points="275.5,-581.7 275.5,-603.7 445.5,-603.7 445.5,-581.7 275.5,-581.7"/>
<image xlink:href="../../images/primaryKeys.png" width="11px" height="12px" preserveAspectRatio="xMinYMin meet" x="280.5" y="-598.7"/>
<text text-anchor="start" x="295.5" y="-588.8" font-family="Helvetica,sans-Serif" font-size="11.00" fill="#000000">id</text>
<polygon fill="none" stroke="#000000" points="445.5,-581.7 445.5,-603.7 518.5,-603.7 518.5,-581.7 445.5,-581.7"/>
<text text-anchor="start" x="448.5" y="-589.4" font-family="Helvetica,sans-Serif" font-size="11.00" fill="#000000">char[36]</text>
<polygon fill="none" stroke="#000000" points="275.5,-559.7 275.5,-581.7 445.5,-581.7 445.5,-559.7 275.5,-559.7"/>
<text text-anchor="start" x="295.5" y="-566.8" font-family="Helvetica,sans-Serif" font-size="11.00" fill="#000000">name</text>
<polygon fill="none" stroke="#000000" points="445.5,-559.7 445.5,-581.7 518.5,-581.7 518.5,-559.7 445.5,-559.7"/>
<text text-anchor="start" x="448.5" y="-567.4" font-family="Helvetica,sans-Serif" font-size="11.00" fill="#000000">varchar[255]</text>
<polygon fill="none" stroke="#000000" points="275.5,-537.7 275.5,-559.7 445.5,-559.7 445.5,-537.7 275.5,-537.7"/>
<text text-anchor="start" x="295.5" y="-544.8" font-family="Helvetica,sans-Serif" font-size="11.00" fill="#000000">date_entered</text>
<polygon fill="none" stroke="#000000" points="445.5,-537.7 445.5,-559.7 518.5,-559.7 518.5,-537.7 445.5,-537.7"/>
<text text-anchor="start" x="448.5" y="-545.4" font-family="Helvetica,sans-Serif" font-size="11.00" fill="#000000">datetime[26]</text>
<polygon fill="none" stroke="#000000" points="275.5,-515.7 275.5,-537.7 445.5,-537.7 445.5,-515.7 275.5,-515.7"/>
<text text-anchor="start" x="295.5" y="-522.8" font-family="Helvetica,sans-Serif" font-size="11.00" fill="#000000">date_modified</text>
<polygon fill="none" stroke="#000000" points="445.5,-515.7 445.5,-537.7 518.5,-537.7 518.5,-515.7 445.5,-515.7"/>
<text text-anchor="start" x="448.5" y="-523.4" font-family="Helvetica,sans-Serif" font-size="11.00" fill="#000000">datetime[26]</text>
<polygon fill="none" stroke="#000000" points="275.5,-493.7 275.5,-515.7 445.5,-515.7 445.5,-493.7 275.5,-493.7"/>
<text text-anchor="start" x="295.5" y="-500.8" font-family="Helvetica,sans-Serif" font-size="11.00" fill="#000000">modified_user_id</text>
<polygon fill="none" stroke="#000000" points="445.5,-493.7 445.5,-515.7 518.5,-515.7 518.5,-493.7 445.5,-493.7"/>
<text text-anchor="start" x="448.5" y="-501.4" font-family="Helvetica,sans-Serif" font-size="11.00" fill="#000000">char[36]</text>
<polygon fill="none" stroke="#000000" points="275.5,-471.7 275.5,-493.7 445.5,-493.7 445.5,-471.7 275.5,-471.7"/>
<text text-anchor="start" x="295.5" y="-478.8" font-family="Helvetica,sans-Serif" font-size="11.00" fill="#000000">created_by</text>
<polygon fill="none" stroke="#000000" points="445.5,-471.7 445.5,-493.7 518.5,-493.7 518.5,-471.7 445.5,-471.7"/>
<text text-anchor="start" x="448.5" y="-479.4" font-family="Helvetica,sans-Serif" font-size="11.00" fill="#000000">char[36]</text>
<polygon fill="none" stroke="#000000" points="275.5,-449.7 275.5,-471.7 445.5,-471.7 445.5,-449.7 275.5,-449.7"/>
<text text-anchor="start" x="295.5" y="-456.8" font-family="Helvetica,sans-Serif" font-size="11.00" fill="#000000">description</text>
<polygon fill="none" stroke="#000000" points="445.5,-449.7 445.5,-471.7 518.5,-471.7 518.5,-449.7 445.5,-449.7"/>
<text text-anchor="start" x="448.5" y="-457.4" font-family="Helvetica,sans-Serif" font-size="11.00" fill="#000000">text[65535]</text>
<polygon fill="none" stroke="#000000" points="275.5,-427.7 275.5,-449.7 445.5,-449.7 445.5,-427.7 275.5,-427.7"/>
<text text-anchor="start" x="295.5" y="-434.8" font-family="Helvetica,sans-Serif" font-size="11.00" fill="#000000">callback_url</text>
<polygon fill="none" stroke="#000000" points="445.5,-427.7 445.5,-449.7 518.5,-449.7 518.5,-427.7 445.5,-427.7"/>
<text text-anchor="start" x="448.5" y="-435.4" font-family="Helvetica,sans-Serif" font-size="11.00" fill="#000000">varchar[255]</text>
<polygon fill="none" stroke="#000000" points="275.5,-405.7 275.5,-427.7 445.5,-427.7 445.5,-405.7 275.5,-405.7"/>
<text text-anchor="start" x="295.5" y="-412.8" font-family="Helvetica,sans-Serif" font-size="11.00" fill="#000000">token_is_revoked</text>
<polygon fill="none" stroke="#000000" points="445.5,-405.7 445.5,-427.7 518.5,-427.7 518.5,-405.7 445.5,-405.7"/>
<text text-anchor="start" x="448.5" y="-413.4" font-family="Helvetica,sans-Serif" font-size="11.00" fill="#000000">bit[1]</text>
<polygon fill="none" stroke="#000000" points="275.5,-383.7 275.5,-405.7 445.5,-405.7 445.5,-383.7 275.5,-383.7"/>
<text text-anchor="start" x="295.5" y="-390.8" font-family="Helvetica,sans-Serif" font-size="11.00" fill="#000000">token_type</text>
<polygon fill="none" stroke="#000000" points="445.5,-383.7 445.5,-405.7 518.5,-405.7 518.5,-383.7 445.5,-383.7"/>
<text text-anchor="start" x="448.5" y="-391.4" font-family="Helvetica,sans-Serif" font-size="11.00" fill="#000000">varchar[255]</text>
<polygon fill="none" stroke="#000000" points="275.5,-361.7 275.5,-383.7 445.5,-383.7 445.5,-361.7 275.5,-361.7"/>
<text text-anchor="start" x="295.5" y="-368.8" font-family="Helvetica,sans-Serif" font-size="11.00" fill="#000000">access_token_expires</text>
<polygon fill="none" stroke="#000000" points="445.5,-361.7 445.5,-383.7 518.5,-383.7 518.5,-361.7 445.5,-361.7"/>
<text text-anchor="start" x="448.5" y="-369.4" font-family="Helvetica,sans-Serif" font-size="11.00" fill="#000000">datetime[26]</text>
<polygon fill="none" stroke="#000000" points="275.5,-339.7 275.5,-361.7 445.5,-361.7 445.5,-339.7 275.5,-339.7"/>
<text text-anchor="start" x="295.5" y="-346.8" font-family="Helvetica,sans-Serif" font-size="11.00" fill="#000000">access_token</text>
<polygon fill="none" stroke="#000000" points="445.5,-339.7 445.5,-361.7 518.5,-361.7 518.5,-339.7 445.5,-339.7"/>
<text text-anchor="start" x="448.3791" y="-347.4" font-family="Helvetica,sans-Serif" font-size="11.00" fill="#000000">varchar[4000]</text>
<polygon fill="none" stroke="#000000" points="275.5,-317.7 275.5,-339.7 445.5,-339.7 445.5,-317.7 275.5,-317.7"/>
<text text-anchor="start" x="295.5" y="-324.8" font-family="Helvetica,sans-Serif" font-size="11.00" fill="#000000">refresh_token</text>
<polygon fill="none" stroke="#000000" points="445.5,-317.7 445.5,-339.7 518.5,-339.7 518.5,-317.7 445.5,-317.7"/>
<text text-anchor="start" x="448.3791" y="-325.4" font-family="Helvetica,sans-Serif" font-size="11.00" fill="#000000">varchar[4000]</text>
<polygon fill="none" stroke="#000000" points="275.5,-295.7 275.5,-317.7 445.5,-317.7 445.5,-295.7 275.5,-295.7"/>
<text text-anchor="start" x="295.5" y="-302.8" font-family="Helvetica,sans-Serif" font-size="11.00" fill="#000000">refresh_token_expires</text>
<polygon fill="none" stroke="#000000" points="445.5,-295.7 445.5,-317.7 518.5,-317.7 518.5,-295.7 445.5,-295.7"/>
<text text-anchor="start" x="448.5" y="-303.4" font-family="Helvetica,sans-Serif" font-size="11.00" fill="#000000">datetime[26]</text>
<polygon fill="none" stroke="#000000" points="275.5,-273.7 275.5,-295.7 445.5,-295.7 445.5,-273.7 275.5,-273.7"/>
<text text-anchor="start" x="295.5" y="-280.8" font-family="Helvetica,sans-Serif" font-size="11.00" fill="#000000">grant_type</text>
<polygon fill="none" stroke="#000000" points="445.5,-273.7 445.5,-295.7 518.5,-295.7 518.5,-273.7 445.5,-273.7"/>
<text text-anchor="start" x="448.5" y="-281.4" font-family="Helvetica,sans-Serif" font-size="11.00" fill="#000000">varchar[255]</text>
<polygon fill="none" stroke="#000000" points="275.5,-251.7 275.5,-273.7 445.5,-273.7 445.5,-251.7 275.5,-251.7"/>
<text text-anchor="start" x="295.5" y="-258.8" font-family="Helvetica,sans-Serif" font-size="11.00" fill="#000000">state</text>
<polygon fill="none" stroke="#000000" points="445.5,-251.7 445.5,-273.7 518.5,-273.7 518.5,-251.7 445.5,-251.7"/>
<text text-anchor="start" x="448.3791" y="-259.4" font-family="Helvetica,sans-Serif" font-size="11.00" fill="#000000">varchar[1024]</text>
<polygon fill="none" stroke="#000000" points="275.5,-229.7 275.5,-251.7 445.5,-251.7 445.5,-229.7 275.5,-229.7"/>
<text text-anchor="start" x="295.5" y="-236.8" font-family="Helvetica,sans-Serif" font-size="11.00" fill="#000000">client</text>
<polygon fill="none" stroke="#000000" points="445.5,-229.7 445.5,-251.7 518.5,-251.7 518.5,-229.7 445.5,-229.7"/>
<text text-anchor="start" x="448.5" y="-237.4" font-family="Helvetica,sans-Serif" font-size="11.00" fill="#000000">char[36]</text>
<polygon fill="none" stroke="#000000" points="275.5,-207.7 275.5,-229.7 445.5,-229.7 445.5,-207.7 275.5,-207.7"/>
<image xlink:href="../../images/foreignKeys.png" width="11px" height="12px" preserveAspectRatio="xMinYMin meet" x="280.5" y="-224.7"/>
<text text-anchor="start" x="295.5" y="-214.8" font-family="Helvetica,sans-Serif" font-size="11.00" fill="#000000">assigned_user_id</text>
<polygon fill="none" stroke="#000000" points="445.5,-207.7 445.5,-229.7 518.5,-229.7 518.5,-207.7 445.5,-207.7"/>
<text text-anchor="start" x="448.5" y="-215.4" font-family="Helvetica,sans-Serif" font-size="11.00" fill="#000000">char[36]</text>
<polygon fill="#ffffff" stroke="transparent" points="275.5,-188.7 275.5,-207.7 364.5,-207.7 364.5,-188.7 275.5,-188.7"/>
<polygon fill="none" stroke="#000000" points="275.5,-188.7 275.5,-207.7 364.5,-207.7 364.5,-188.7 275.5,-188.7"/>
<text text-anchor="start" x="278.5" y="-194.8" font-family="Helvetica,sans-Serif" font-size="11.00" fill="#000000">&lt; 2</text>
<polygon fill="#ffffff" stroke="transparent" points="364.5,-188.7 364.5,-207.7 445.5,-207.7 445.5,-188.7 364.5,-188.7"/>
<polygon fill="none" stroke="#000000" points="364.5,-188.7 364.5,-207.7 445.5,-207.7 445.5,-188.7 364.5,-188.7"/>
<text text-anchor="start" x="436.3862" y="-194.8" font-family="Helvetica,sans-Serif" font-size="11.00" fill="#000000"> &#160;</text>
<polygon fill="#ffffff" stroke="transparent" points="445.5,-188.7 445.5,-207.7 518.5,-207.7 518.5,-188.7 445.5,-188.7"/>
<polygon fill="none" stroke="#000000" points="445.5,-188.7 445.5,-207.7 518.5,-207.7 518.5,-188.7 445.5,-188.7"/>
<text text-anchor="start" x="499.9053" y="-194.8" font-family="Helvetica,sans-Serif" font-size="11.00" fill="#000000">0 &gt;</text>
<polygon fill="none" stroke="#000000" stroke-width="2" points="274,-187.7 274,-627.7 519,-627.7 519,-187.7 274,-187.7"/>
</a>
</g>
</g>
<!-- users -->
<g id="node2" class="node">
<title>users</title>
<g id="a_node2"><a xlink:href="../../tables/users.html" xlink:title="users" target="_top">
<polygon fill="#ffffff" stroke="transparent" points="8,-38.2 8,-253.2 224,-253.2 224,-38.2 8,-38.2"/>
<polygon fill="#f5f5f5" stroke="transparent" points="8,-229.7 8,-252.7 224,-252.7 224,-229.7 8,-229.7"/>
<polygon fill="none" stroke="#000000" points="8,-229.7 8,-252.7 224,-252.7 224,-229.7 8,-229.7"/>
<text text-anchor="start" x="13" y="-238.8" font-family="Helvetica,sans-Serif" font-weight="bold" font-size="11.00" fill="#000000">users</text>
<text text-anchor="start" x="189.0437" y="-237.8" font-family="Helvetica,sans-Serif" font-size="11.00" fill="#000000">[table]</text>
<polygon fill="none" stroke="#000000" points="8,-207.7 8,-229.7 224,-229.7 224,-207.7 8,-207.7"/>
<image xlink:href="../../images/primaryKeys.png" width="11px" height="12px" preserveAspectRatio="xMinYMin meet" x="13" y="-224.7"/>
<text text-anchor="start" x="28" y="-214.8" font-family="Helvetica,sans-Serif" font-size="11.00" fill="#000000">id</text>
<polygon fill="#ffffff" stroke="transparent" points="8,-185.7 8,-207.7 224,-207.7 224,-185.7 8,-185.7"/>
<polygon fill="none" stroke="#000000" points="8,-185.7 8,-207.7 224,-207.7 224,-185.7 8,-185.7"/>
<text text-anchor="start" x="28" y="-192.8" font-family="Helvetica,sans-Serif" font-size="11.00" fill="#000000">user_name</text>
<polygon fill="#ffffff" stroke="transparent" points="8,-163.7 8,-185.7 224,-185.7 224,-163.7 8,-163.7"/>
<polygon fill="none" stroke="#000000" points="8,-163.7 8,-185.7 224,-185.7 224,-163.7 8,-163.7"/>
<text text-anchor="start" x="28" y="-170.8" font-family="Helvetica,sans-Serif" font-size="11.00" fill="#000000">first_name</text>
<polygon fill="#ffffff" stroke="transparent" points="8,-141.7 8,-163.7 224,-163.7 224,-141.7 8,-141.7"/>
<polygon fill="none" stroke="#000000" points="8,-141.7 8,-163.7 224,-163.7 224,-141.7 8,-141.7"/>
<text text-anchor="start" x="28" y="-148.8" font-family="Helvetica,sans-Serif" font-size="11.00" fill="#000000">last_name</text>
<polygon fill="#ffffff" stroke="transparent" points="8,-119.7 8,-141.7 224,-141.7 224,-119.7 8,-119.7"/>
<polygon fill="none" stroke="#000000" points="8,-119.7 8,-141.7 224,-141.7 224,-119.7 8,-119.7"/>
<text text-anchor="start" x="28" y="-126.8" font-family="Helvetica,sans-Serif" font-size="11.00" fill="#000000">status</text>
<polygon fill="#c0c0c0" stroke="transparent" points="8,-97.7 8,-119.7 224,-119.7 224,-97.7 8,-97.7"/>
<polygon fill="none" stroke="#000000" points="8,-97.7 8,-119.7 224,-119.7 224,-97.7 8,-97.7"/>
<image xlink:href="../../images/foreignKeys.png" width="11px" height="12px" preserveAspectRatio="xMinYMin meet" x="13" y="-114.7"/>
<text text-anchor="start" x="28" y="-104.8" font-family="Helvetica,sans-Serif" font-size="11.00" fill="#000000">reports_to_id</text>
<polygon fill="#ffffff" stroke="transparent" points="8,-75.7 8,-97.7 224,-97.7 224,-75.7 8,-75.7"/>
<polygon fill="none" stroke="#000000" points="8,-75.7 8,-97.7 224,-97.7 224,-75.7 8,-75.7"/>
<text text-anchor="start" x="28" y="-82.8" font-family="Helvetica,sans-Serif" font-size="11.00" fill="#000000">is_group</text>
<polygon fill="none" stroke="#000000" points="8,-56.7 8,-75.7 224,-75.7 224,-56.7 8,-56.7"/>
<text text-anchor="start" x="11" y="-62.8" font-family="Helvetica,sans-Serif" font-size="11.00" fill="#000000">...</text>
<polygon fill="#ffffff" stroke="transparent" points="8,-37.7 8,-56.7 104,-56.7 104,-37.7 8,-37.7"/>
<polygon fill="none" stroke="#000000" points="8,-37.7 8,-56.7 104,-56.7 104,-37.7 8,-37.7"/>
<text text-anchor="start" x="11" y="-43.8" font-family="Helvetica,sans-Serif" font-size="11.00" fill="#000000">&lt; 2</text>
<polygon fill="#ffffff" stroke="transparent" points="104,-37.7 104,-56.7 153,-56.7 153,-37.7 104,-37.7"/>
<polygon fill="none" stroke="#000000" points="104,-37.7 104,-56.7 153,-56.7 153,-37.7 104,-37.7"/>
<text text-anchor="start" x="143.8862" y="-43.8" font-family="Helvetica,sans-Serif" font-size="11.00" fill="#000000"> &#160;</text>
<polygon fill="#ffffff" stroke="transparent" points="153,-37.7 153,-56.7 224,-56.7 224,-37.7 153,-37.7"/>
<polygon fill="none" stroke="#000000" points="153,-37.7 153,-56.7 224,-56.7 224,-37.7 153,-37.7"/>
<text text-anchor="start" x="193.1755" y="-43.8" font-family="Helvetica,sans-Serif" font-size="11.00" fill="#000000">214 &gt;</text>
</a>
</g>
</g>
<!-- oauth_tokens&#45;&gt;users -->
<g id="edge1" class="edge">
<title>oauth_tokens:w&#45;&gt;users:e</title>
<path fill="none" stroke="#000000" d="M261.0156,-218.7C248.6771,-218.7 241.1667,-218.7 224,-218.7"/>
<polygon fill="#000000" stroke="#000000" points="267.5,-218.7001 275.5,-222.3 271.5,-218.7 275.5,-218.7 275.5,-218.7 275.5,-218.7 271.5,-218.7 275.5,-215.1 267.5,-218.7001 267.5,-218.7001"/>
<ellipse fill="none" stroke="#000000" cx="264.3" cy="-218.7001" rx="3.2" ry="3.2"/>
</g>
</g>
</svg>
