<?xml version="1.0" encoding="UTF-8" standalone="no"?>
<!DOCTYPE svg PUBLIC "-//W3C//DTD SVG 1.1//EN"
 "http://www.w3.org/Graphics/SVG/1.1/DTD/svg11.dtd">
<!-- Generated by graphviz version 2.40.1 (20161225.0304)
 -->
<!-- Title: oneDegreeRelationshipsDiagram Pages: 1 -->
<svg width="714pt" height="410pt"
 viewBox="0.00 0.00 714.00 409.70" xmlns="http://www.w3.org/2000/svg" xmlns:xlink="http://www.w3.org/1999/xlink">
<g id="graph0" class="graph" transform="scale(1 1) rotate(0) translate(4 405.7)">
<title>oneDegreeRelationshipsDiagram</title>
<polygon fill="#ffffff" stroke="transparent" points="-4,4 -4,-405.7 710,-405.7 710,4 -4,4"/>
<text text-anchor="middle" x="72.4936" y="-7.3" font-family="Helvetica,sans-Serif" font-size="11.00" fill="#000000">Generated by SchemaSpy</text>
<!-- oauth_consumer -->
<g id="node1" class="node">
<title>oauth_consumer</title>
<g id="a_node1"><a xlink:href="../../tables/oauth_consumer.html" xlink:title="oauth_consumer" target="_top">
<polygon fill="#ffffff" stroke="transparent" points="273,-109.7 273,-397.7 479,-397.7 479,-109.7 273,-109.7"/>
<polygon fill="#f5f5f5" stroke="transparent" points="275,-372.7 275,-395.7 477,-395.7 477,-372.7 275,-372.7"/>
<polygon fill="none" stroke="#000000" points="275,-372.7 275,-395.7 477,-395.7 477,-372.7 275,-372.7"/>
<text text-anchor="start" x="280" y="-381.8" font-family="Helvetica,sans-Serif" font-weight="bold" font-size="11.00" fill="#000000">oauth_consumer</text>
<text text-anchor="start" x="442.0437" y="-380.8" font-family="Helvetica,sans-Serif" font-size="11.00" fill="#000000">[table]</text>
<polygon fill="none" stroke="#000000" points="275,-350.7 275,-372.7 410,-372.7 410,-350.7 275,-350.7"/>
<image xlink:href="../../images/primaryKeys.png" width="11px" height="12px" preserveAspectRatio="xMinYMin meet" x="280" y="-367.7"/>
<text text-anchor="start" x="295" y="-357.8" font-family="Helvetica,sans-Serif" font-size="11.00" fill="#000000">id</text>
<polygon fill="none" stroke="#000000" points="410,-350.7 410,-372.7 477,-372.7 477,-350.7 410,-350.7"/>
<text text-anchor="start" x="413" y="-358.4" font-family="Helvetica,sans-Serif" font-size="11.00" fill="#000000">char[36]</text>
<polygon fill="none" stroke="#000000" points="275,-328.7 275,-350.7 410,-350.7 410,-328.7 275,-328.7"/>
<text text-anchor="start" x="295" y="-335.8" font-family="Helvetica,sans-Serif" font-size="11.00" fill="#000000">name</text>
<polygon fill="none" stroke="#000000" points="410,-328.7 410,-350.7 477,-350.7 477,-328.7 410,-328.7"/>
<text text-anchor="start" x="412.9365" y="-336.4" font-family="Helvetica,sans-Serif" font-size="11.00" fill="#000000">varchar[255]</text>
<polygon fill="none" stroke="#000000" points="275,-306.7 275,-328.7 410,-328.7 410,-306.7 275,-306.7"/>
<text text-anchor="start" x="295" y="-313.8" font-family="Helvetica,sans-Serif" font-size="11.00" fill="#000000">date_entered</text>
<polygon fill="none" stroke="#000000" points="410,-306.7 410,-328.7 477,-328.7 477,-306.7 410,-306.7"/>
<text text-anchor="start" x="413" y="-314.4" font-family="Helvetica,sans-Serif" font-size="11.00" fill="#000000">datetime[26]</text>
<polygon fill="none" stroke="#000000" points="275,-284.7 275,-306.7 410,-306.7 410,-284.7 275,-284.7"/>
<text text-anchor="start" x="295" y="-291.8" font-family="Helvetica,sans-Serif" font-size="11.00" fill="#000000">date_modified</text>
<polygon fill="none" stroke="#000000" points="410,-284.7 410,-306.7 477,-306.7 477,-284.7 410,-284.7"/>
<text text-anchor="start" x="413" y="-292.4" font-family="Helvetica,sans-Serif" font-size="11.00" fill="#000000">datetime[26]</text>
<polygon fill="none" stroke="#000000" points="275,-262.7 275,-284.7 410,-284.7 410,-262.7 275,-262.7"/>
<image xlink:href="../../images/foreignKeys.png" width="11px" height="12px" preserveAspectRatio="xMinYMin meet" x="280" y="-279.7"/>
<text text-anchor="start" x="295" y="-269.8" font-family="Helvetica,sans-Serif" font-size="11.00" fill="#000000">modified_user_id</text>
<polygon fill="none" stroke="#000000" points="410,-262.7 410,-284.7 477,-284.7 477,-262.7 410,-262.7"/>
<text text-anchor="start" x="413" y="-270.4" font-family="Helvetica,sans-Serif" font-size="11.00" fill="#000000">char[36]</text>
<polygon fill="none" stroke="#000000" points="275,-240.7 275,-262.7 410,-262.7 410,-240.7 275,-240.7"/>
<image xlink:href="../../images/foreignKeys.png" width="11px" height="12px" preserveAspectRatio="xMinYMin meet" x="280" y="-257.7"/>
<text text-anchor="start" x="295" y="-247.8" font-family="Helvetica,sans-Serif" font-size="11.00" fill="#000000">created_by</text>
<polygon fill="none" stroke="#000000" points="410,-240.7 410,-262.7 477,-262.7 477,-240.7 410,-240.7"/>
<text text-anchor="start" x="413" y="-248.4" font-family="Helvetica,sans-Serif" font-size="11.00" fill="#000000">char[36]</text>
<polygon fill="none" stroke="#000000" points="275,-218.7 275,-240.7 410,-240.7 410,-218.7 275,-218.7"/>
<text text-anchor="start" x="295" y="-225.8" font-family="Helvetica,sans-Serif" font-size="11.00" fill="#000000">description</text>
<polygon fill="none" stroke="#000000" points="410,-218.7 410,-240.7 477,-240.7 477,-218.7 410,-218.7"/>
<text text-anchor="start" x="413" y="-226.4" font-family="Helvetica,sans-Serif" font-size="11.00" fill="#000000">text[65535]</text>
<polygon fill="none" stroke="#000000" points="275,-196.7 275,-218.7 410,-218.7 410,-196.7 275,-196.7"/>
<text text-anchor="start" x="295" y="-203.8" font-family="Helvetica,sans-Serif" font-size="11.00" fill="#000000">deleted</text>
<polygon fill="none" stroke="#000000" points="410,-196.7 410,-218.7 477,-218.7 477,-196.7 410,-196.7"/>
<text text-anchor="start" x="413" y="-204.4" font-family="Helvetica,sans-Serif" font-size="11.00" fill="#000000">bit[1]</text>
<polygon fill="none" stroke="#000000" points="275,-174.7 275,-196.7 410,-196.7 410,-174.7 275,-174.7"/>
<image xlink:href="../../images/foreignKeys.png" width="11px" height="12px" preserveAspectRatio="xMinYMin meet" x="280" y="-191.7"/>
<text text-anchor="start" x="295" y="-181.8" font-family="Helvetica,sans-Serif" font-size="11.00" fill="#000000">assigned_user_id</text>
<polygon fill="none" stroke="#000000" points="410,-174.7 410,-196.7 477,-196.7 477,-174.7 410,-174.7"/>
<text text-anchor="start" x="413" y="-182.4" font-family="Helvetica,sans-Serif" font-size="11.00" fill="#000000">char[36]</text>
<polygon fill="#ffffff" stroke="transparent" points="275,-152.7 275,-174.7 410,-174.7 410,-152.7 275,-152.7"/>
<polygon fill="none" stroke="#000000" points="275,-152.7 275,-174.7 410,-174.7 410,-152.7 275,-152.7"/>
<text text-anchor="start" x="295" y="-159.8" font-family="Helvetica,sans-Serif" font-size="11.00" fill="#000000">c_key</text>
<polygon fill="none" stroke="#000000" points="410,-152.7 410,-174.7 477,-174.7 477,-152.7 410,-152.7"/>
<text text-anchor="start" x="412.9365" y="-160.4" font-family="Helvetica,sans-Serif" font-size="11.00" fill="#000000">varchar[255]</text>
<polygon fill="none" stroke="#000000" points="275,-130.7 275,-152.7 410,-152.7 410,-130.7 275,-130.7"/>
<text text-anchor="start" x="295" y="-137.8" font-family="Helvetica,sans-Serif" font-size="11.00" fill="#000000">c_secret</text>
<polygon fill="none" stroke="#000000" points="410,-130.7 410,-152.7 477,-152.7 477,-130.7 410,-130.7"/>
<text text-anchor="start" x="412.9365" y="-138.4" font-family="Helvetica,sans-Serif" font-size="11.00" fill="#000000">varchar[255]</text>
<polygon fill="#ffffff" stroke="transparent" points="275,-111.7 275,-130.7 347,-130.7 347,-111.7 275,-111.7"/>
<polygon fill="none" stroke="#000000" points="275,-111.7 275,-130.7 347,-130.7 347,-111.7 275,-111.7"/>
<text text-anchor="start" x="278" y="-117.8" font-family="Helvetica,sans-Serif" font-size="11.00" fill="#000000">&lt; 3</text>
<polygon fill="#ffffff" stroke="transparent" points="347,-111.7 347,-130.7 410,-130.7 410,-111.7 347,-111.7"/>
<polygon fill="none" stroke="#000000" points="347,-111.7 347,-130.7 410,-130.7 410,-111.7 347,-111.7"/>
<text text-anchor="start" x="400.8862" y="-117.8" font-family="Helvetica,sans-Serif" font-size="11.00" fill="#000000"> &#160;</text>
<polygon fill="#ffffff" stroke="transparent" points="410,-111.7 410,-130.7 477,-130.7 477,-111.7 410,-111.7"/>
<polygon fill="none" stroke="#000000" points="410,-111.7 410,-130.7 477,-130.7 477,-111.7 410,-111.7"/>
<text text-anchor="start" x="458.4053" y="-117.8" font-family="Helvetica,sans-Serif" font-size="11.00" fill="#000000">1 &gt;</text>
<polygon fill="none" stroke="#000000" stroke-width="2" points="274,-110.7 274,-396.7 478,-396.7 478,-110.7 274,-110.7"/>
</a>
</g>
</g>
<!-- users -->
<g id="node2" class="node">
<title>users</title>
<g id="a_node2"><a xlink:href="../../tables/users.html" xlink:title="users" target="_top">
<polygon fill="#ffffff" stroke="transparent" points="8,-38.2 8,-253.2 224,-253.2 224,-38.2 8,-38.2"/>
<polygon fill="#f5f5f5" stroke="transparent" points="8,-229.7 8,-252.7 224,-252.7 224,-229.7 8,-229.7"/>
<polygon fill="none" stroke="#000000" points="8,-229.7 8,-252.7 224,-252.7 224,-229.7 8,-229.7"/>
<text text-anchor="start" x="13" y="-238.8" font-family="Helvetica,sans-Serif" font-weight="bold" font-size="11.00" fill="#000000">users</text>
<text text-anchor="start" x="189.0437" y="-237.8" font-family="Helvetica,sans-Serif" font-size="11.00" fill="#000000">[table]</text>
<polygon fill="none" stroke="#000000" points="8,-207.7 8,-229.7 224,-229.7 224,-207.7 8,-207.7"/>
<image xlink:href="../../images/primaryKeys.png" width="11px" height="12px" preserveAspectRatio="xMinYMin meet" x="13" y="-224.7"/>
<text text-anchor="start" x="28" y="-214.8" font-family="Helvetica,sans-Serif" font-size="11.00" fill="#000000">id</text>
<polygon fill="#ffffff" stroke="transparent" points="8,-185.7 8,-207.7 224,-207.7 224,-185.7 8,-185.7"/>
<polygon fill="none" stroke="#000000" points="8,-185.7 8,-207.7 224,-207.7 224,-185.7 8,-185.7"/>
<text text-anchor="start" x="28" y="-192.8" font-family="Helvetica,sans-Serif" font-size="11.00" fill="#000000">user_name</text>
<polygon fill="#ffffff" stroke="transparent" points="8,-163.7 8,-185.7 224,-185.7 224,-163.7 8,-163.7"/>
<polygon fill="none" stroke="#000000" points="8,-163.7 8,-185.7 224,-185.7 224,-163.7 8,-163.7"/>
<text text-anchor="start" x="28" y="-170.8" font-family="Helvetica,sans-Serif" font-size="11.00" fill="#000000">first_name</text>
<polygon fill="#ffffff" stroke="transparent" points="8,-141.7 8,-163.7 224,-163.7 224,-141.7 8,-141.7"/>
<polygon fill="none" stroke="#000000" points="8,-141.7 8,-163.7 224,-163.7 224,-141.7 8,-141.7"/>
<text text-anchor="start" x="28" y="-148.8" font-family="Helvetica,sans-Serif" font-size="11.00" fill="#000000">last_name</text>
<polygon fill="#ffffff" stroke="transparent" points="8,-119.7 8,-141.7 224,-141.7 224,-119.7 8,-119.7"/>
<polygon fill="none" stroke="#000000" points="8,-119.7 8,-141.7 224,-141.7 224,-119.7 8,-119.7"/>
<text text-anchor="start" x="28" y="-126.8" font-family="Helvetica,sans-Serif" font-size="11.00" fill="#000000">status</text>
<polygon fill="#c0c0c0" stroke="transparent" points="8,-97.7 8,-119.7 224,-119.7 224,-97.7 8,-97.7"/>
<polygon fill="none" stroke="#000000" points="8,-97.7 8,-119.7 224,-119.7 224,-97.7 8,-97.7"/>
<image xlink:href="../../images/foreignKeys.png" width="11px" height="12px" preserveAspectRatio="xMinYMin meet" x="13" y="-114.7"/>
<text text-anchor="start" x="28" y="-104.8" font-family="Helvetica,sans-Serif" font-size="11.00" fill="#000000">reports_to_id</text>
<polygon fill="#ffffff" stroke="transparent" points="8,-75.7 8,-97.7 224,-97.7 224,-75.7 8,-75.7"/>
<polygon fill="none" stroke="#000000" points="8,-75.7 8,-97.7 224,-97.7 224,-75.7 8,-75.7"/>
<text text-anchor="start" x="28" y="-82.8" font-family="Helvetica,sans-Serif" font-size="11.00" fill="#000000">is_group</text>
<polygon fill="none" stroke="#000000" points="8,-56.7 8,-75.7 224,-75.7 224,-56.7 8,-56.7"/>
<text text-anchor="start" x="11" y="-62.8" font-family="Helvetica,sans-Serif" font-size="11.00" fill="#000000">...</text>
<polygon fill="#ffffff" stroke="transparent" points="8,-37.7 8,-56.7 104,-56.7 104,-37.7 8,-37.7"/>
<polygon fill="none" stroke="#000000" points="8,-37.7 8,-56.7 104,-56.7 104,-37.7 8,-37.7"/>
<text text-anchor="start" x="11" y="-43.8" font-family="Helvetica,sans-Serif" font-size="11.00" fill="#000000">&lt; 2</text>
<polygon fill="#ffffff" stroke="transparent" points="104,-37.7 104,-56.7 153,-56.7 153,-37.7 104,-37.7"/>
<polygon fill="none" stroke="#000000" points="104,-37.7 104,-56.7 153,-56.7 153,-37.7 104,-37.7"/>
<text text-anchor="start" x="143.8862" y="-43.8" font-family="Helvetica,sans-Serif" font-size="11.00" fill="#000000"> &#160;</text>
<polygon fill="#ffffff" stroke="transparent" points="153,-37.7 153,-56.7 224,-56.7 224,-37.7 153,-37.7"/>
<polygon fill="none" stroke="#000000" points="153,-37.7 153,-56.7 224,-56.7 224,-37.7 153,-37.7"/>
<text text-anchor="start" x="193.1755" y="-43.8" font-family="Helvetica,sans-Serif" font-size="11.00" fill="#000000">214 &gt;</text>
</a>
</g>
</g>
<!-- oauth_consumer&#45;&gt;users -->
<g id="edge1" class="edge">
<title>oauth_consumer:w&#45;&gt;users:e</title>
<path fill="none" stroke="#000000" d="M260.9604,-189.7464C247.8775,-198.5584 245.0921,-218.7 224,-218.7"/>
<polygon fill="#000000" stroke="#000000" points="267.3129,-187.9156 275.997,-189.1592 271.1565,-186.8078 275,-185.7 275,-185.7 275,-185.7 271.1565,-186.8078 274.003,-182.2408 267.3129,-187.9156 267.3129,-187.9156"/>
<ellipse fill="none" stroke="#000000" cx="264.2381" cy="-188.8018" rx="3.2" ry="3.2"/>
</g>
<!-- oauth_consumer&#45;&gt;users -->
<g id="edge2" class="edge">
<title>oauth_consumer:w&#45;&gt;users:e</title>
<path fill="none" stroke="#000000" d="M260.9604,-247.6536C247.8775,-238.8416 245.0921,-218.7 224,-218.7"/>
<polygon fill="#000000" stroke="#000000" points="267.3129,-249.4844 274.003,-255.1592 271.1565,-250.5922 275,-251.7 275,-251.7 275,-251.7 271.1565,-250.5922 275.997,-248.2408 267.3129,-249.4844 267.3129,-249.4844"/>
<ellipse fill="none" stroke="#000000" cx="264.2381" cy="-248.5982" rx="3.2" ry="3.2"/>
</g>
<!-- oauth_consumer&#45;&gt;users -->
<g id="edge3" class="edge">
<title>oauth_consumer:w&#45;&gt;users:e</title>
<path fill="none" stroke="#000000" d="M261.2081,-269.0107C245.7137,-255.7102 251.3462,-218.7 224,-218.7"/>
<polygon fill="#000000" stroke="#000000" points="267.4258,-271.1247 273.8411,-277.1084 271.2129,-272.4124 275,-273.7 275,-273.7 275,-273.7 271.2129,-272.4124 276.1589,-270.2916 267.4258,-271.1247 267.4258,-271.1247"/>
<ellipse fill="none" stroke="#000000" cx="264.3961" cy="-270.0946" rx="3.2" ry="3.2"/>
</g>
<!-- oauth_tokens -->
<g id="node3" class="node">
<title>oauth_tokens</title>
<g id="a_node3"><a xlink:href="../../tables/oauth_tokens.html" xlink:title="oauth_tokens" target="_top">
<polygon fill="#ffffff" stroke="transparent" points="528,-173.2 528,-278.2 698,-278.2 698,-173.2 528,-173.2"/>
<polygon fill="#f5f5f5" stroke="transparent" points="528,-254.7 528,-277.7 698,-277.7 698,-254.7 528,-254.7"/>
<polygon fill="none" stroke="#000000" points="528,-254.7 528,-277.7 698,-277.7 698,-254.7 528,-254.7"/>
<text text-anchor="start" x="533" y="-263.8" font-family="Helvetica,sans-Serif" font-weight="bold" font-size="11.00" fill="#000000">oauth_tokens</text>
<text text-anchor="start" x="663.0437" y="-262.8" font-family="Helvetica,sans-Serif" font-size="11.00" fill="#000000">[table]</text>
<polygon fill="none" stroke="#000000" points="528,-232.7 528,-254.7 698,-254.7 698,-232.7 528,-232.7"/>
<image xlink:href="../../images/primaryKeys.png" width="11px" height="12px" preserveAspectRatio="xMinYMin meet" x="533" y="-249.7"/>
<text text-anchor="start" x="548" y="-239.8" font-family="Helvetica,sans-Serif" font-size="11.00" fill="#000000">id</text>
<polygon fill="#c0c0c0" stroke="transparent" points="528,-210.7 528,-232.7 698,-232.7 698,-210.7 528,-210.7"/>
<polygon fill="none" stroke="#000000" points="528,-210.7 528,-232.7 698,-232.7 698,-210.7 528,-210.7"/>
<image xlink:href="../../images/foreignKeys.png" width="11px" height="12px" preserveAspectRatio="xMinYMin meet" x="533" y="-227.7"/>
<text text-anchor="start" x="548" y="-217.8" font-family="Helvetica,sans-Serif" font-size="11.00" fill="#000000">assigned_user_id</text>
<polygon fill="none" stroke="#000000" points="528,-191.7 528,-210.7 698,-210.7 698,-191.7 528,-191.7"/>
<text text-anchor="start" x="531" y="-197.8" font-family="Helvetica,sans-Serif" font-size="11.00" fill="#000000">...</text>
<polygon fill="#ffffff" stroke="transparent" points="528,-172.7 528,-191.7 611,-191.7 611,-172.7 528,-172.7"/>
<polygon fill="none" stroke="#000000" points="528,-172.7 528,-191.7 611,-191.7 611,-172.7 528,-172.7"/>
<text text-anchor="start" x="531" y="-178.8" font-family="Helvetica,sans-Serif" font-size="11.00" fill="#000000">&lt; 2</text>
<polygon fill="#ffffff" stroke="transparent" points="611,-172.7 611,-191.7 654,-191.7 654,-172.7 611,-172.7"/>
<polygon fill="none" stroke="#000000" points="611,-172.7 611,-191.7 654,-191.7 654,-172.7 611,-172.7"/>
<text text-anchor="start" x="644.8862" y="-178.8" font-family="Helvetica,sans-Serif" font-size="11.00" fill="#000000"> &#160;</text>
<polygon fill="#ffffff" stroke="transparent" points="654,-172.7 654,-191.7 698,-191.7 698,-172.7 654,-172.7"/>
<polygon fill="none" stroke="#000000" points="654,-172.7 654,-191.7 698,-191.7 698,-172.7 654,-172.7"/>
<text text-anchor="start" x="688.8862" y="-178.8" font-family="Helvetica,sans-Serif" font-size="11.00" fill="#000000"> &#160;</text>
</a>
</g>
</g>
<!-- oauth_tokens&#45;&gt;oauth_consumer -->
<g id="edge5" class="edge">
<title>oauth_tokens:w&#45;&gt;oauth_consumer:e</title>
<path fill="none" stroke="#000000" d="M576.2142,-294.9202C552.9259,-328.5086 519.2294,-361.7 477,-361.7"/>
<polygon fill="#000000" stroke="#000000" points="579.9256,-289.2735 587.328,-284.5656 582.1226,-285.9309 584.3197,-282.5882 584.3197,-282.5882 584.3197,-282.5882 582.1226,-285.9309 581.3113,-280.6109 579.9256,-289.2735 579.9256,-289.2735"/>
<ellipse fill="none" stroke="#000000" cx="578.168" cy="-291.9476" rx="3.2" ry="3.2"/>
</g>
<!-- oauth_tokens&#45;&gt;users -->
<g id="edge4" class="edge">
<title>oauth_tokens:w&#45;&gt;users:e</title>
<path fill="none" stroke="#000000" d="M513.6318,-218.9117C482.7991,-203.623 528.5473,-129.5681 487,-99.7 406.8866,-42.107 345.3314,-42.4115 265,-99.7 219.4553,-132.1802 279.94,-218.7 224,-218.7"/>
<polygon fill="#000000" stroke="#000000" points="520.1465,-220.1759 527.3142,-225.2341 524.0733,-220.938 528,-221.7 528,-221.7 528,-221.7 524.0733,-220.938 528.6858,-218.1659 520.1465,-220.1759 520.1465,-220.1759"/>
<ellipse fill="none" stroke="#000000" cx="517.0051" cy="-219.5663" rx="3.2" ry="3.2"/>
</g>
</g>
</svg>
