<?xml version="1.0" encoding="UTF-8" standalone="no"?>
<!DOCTYPE svg PUBLIC "-//W3C//DTD SVG 1.1//EN"
 "http://www.w3.org/Graphics/SVG/1.1/DTD/svg11.dtd">
<!-- Generated by graphviz version 2.40.1 (20161225.0304)
 -->
<!-- Title: oneDegreeRelationshipsDiagram Pages: 1 -->
<svg width="737pt" height="501pt"
 viewBox="0.00 0.00 737.00 500.70" xmlns="http://www.w3.org/2000/svg" xmlns:xlink="http://www.w3.org/1999/xlink">
<g id="graph0" class="graph" transform="scale(1 1) rotate(0) translate(4 496.7)">
<title>oneDegreeRelationshipsDiagram</title>
<polygon fill="#ffffff" stroke="transparent" points="-4,4 -4,-496.7 733,-496.7 733,4 -4,4"/>
<text text-anchor="middle" x="72.4936" y="-7.3" font-family="Helvetica,sans-Serif" font-size="11.00" fill="#000000">Generated by SchemaSpy</text>
<!-- oauth2clients -->
<g id="node1" class="node">
<title>oauth2clients</title>
<g id="a_node1"><a xlink:href="../../tables/oauth2clients.html" xlink:title="oauth2clients" target="_top">
<polygon fill="#ffffff" stroke="transparent" points="273,-137.2 273,-286.2 425,-286.2 425,-137.2 273,-137.2"/>
<polygon fill="#f5f5f5" stroke="transparent" points="273,-262.7 273,-285.7 425,-285.7 425,-262.7 273,-262.7"/>
<polygon fill="none" stroke="#000000" points="273,-262.7 273,-285.7 425,-285.7 425,-262.7 273,-262.7"/>
<text text-anchor="start" x="278" y="-271.8" font-family="Helvetica,sans-Serif" font-weight="bold" font-size="11.00" fill="#000000">oauth2clients</text>
<text text-anchor="start" x="390.0437" y="-270.8" font-family="Helvetica,sans-Serif" font-size="11.00" fill="#000000">[table]</text>
<polygon fill="none" stroke="#000000" points="273,-240.7 273,-262.7 425,-262.7 425,-240.7 273,-240.7"/>
<image xlink:href="../../images/primaryKeys.png" width="11px" height="12px" preserveAspectRatio="xMinYMin meet" x="278" y="-257.7"/>
<text text-anchor="start" x="293" y="-247.8" font-family="Helvetica,sans-Serif" font-size="11.00" fill="#000000">id</text>
<polygon fill="#c0c0c0" stroke="transparent" points="273,-218.7 273,-240.7 425,-240.7 425,-218.7 273,-218.7"/>
<polygon fill="none" stroke="#000000" points="273,-218.7 273,-240.7 425,-240.7 425,-218.7 273,-218.7"/>
<image xlink:href="../../images/foreignKeys.png" width="11px" height="12px" preserveAspectRatio="xMinYMin meet" x="278" y="-235.7"/>
<text text-anchor="start" x="293" y="-225.8" font-family="Helvetica,sans-Serif" font-size="11.00" fill="#000000">modified_user_id</text>
<polygon fill="#c0c0c0" stroke="transparent" points="273,-196.7 273,-218.7 425,-218.7 425,-196.7 273,-196.7"/>
<polygon fill="none" stroke="#000000" points="273,-196.7 273,-218.7 425,-218.7 425,-196.7 273,-196.7"/>
<image xlink:href="../../images/foreignKeys.png" width="11px" height="12px" preserveAspectRatio="xMinYMin meet" x="278" y="-213.7"/>
<text text-anchor="start" x="293" y="-203.8" font-family="Helvetica,sans-Serif" font-size="11.00" fill="#000000">created_by</text>
<polygon fill="#c0c0c0" stroke="transparent" points="273,-174.7 273,-196.7 425,-196.7 425,-174.7 273,-174.7"/>
<polygon fill="none" stroke="#000000" points="273,-174.7 273,-196.7 425,-196.7 425,-174.7 273,-174.7"/>
<image xlink:href="../../images/foreignKeys.png" width="11px" height="12px" preserveAspectRatio="xMinYMin meet" x="278" y="-191.7"/>
<text text-anchor="start" x="293" y="-181.8" font-family="Helvetica,sans-Serif" font-size="11.00" fill="#000000">assigned_user_id</text>
<polygon fill="none" stroke="#000000" points="273,-155.7 273,-174.7 425,-174.7 425,-155.7 273,-155.7"/>
<text text-anchor="start" x="276" y="-161.8" font-family="Helvetica,sans-Serif" font-size="11.00" fill="#000000">...</text>
<polygon fill="#ffffff" stroke="transparent" points="273,-136.7 273,-155.7 343,-155.7 343,-136.7 273,-136.7"/>
<polygon fill="none" stroke="#000000" points="273,-136.7 273,-155.7 343,-155.7 343,-136.7 273,-136.7"/>
<text text-anchor="start" x="276" y="-142.8" font-family="Helvetica,sans-Serif" font-size="11.00" fill="#000000">&lt; 3</text>
<polygon fill="#ffffff" stroke="transparent" points="343,-136.7 343,-155.7 379,-155.7 379,-136.7 343,-136.7"/>
<polygon fill="none" stroke="#000000" points="343,-136.7 343,-155.7 379,-155.7 379,-136.7 343,-136.7"/>
<text text-anchor="start" x="369.8862" y="-142.8" font-family="Helvetica,sans-Serif" font-size="11.00" fill="#000000"> &#160;</text>
<polygon fill="#ffffff" stroke="transparent" points="379,-136.7 379,-155.7 425,-155.7 425,-136.7 379,-136.7"/>
<polygon fill="none" stroke="#000000" points="379,-136.7 379,-155.7 425,-155.7 425,-136.7 379,-136.7"/>
<text text-anchor="start" x="406.4053" y="-142.8" font-family="Helvetica,sans-Serif" font-size="11.00" fill="#000000">1 &gt;</text>
</a>
</g>
</g>
<!-- users -->
<g id="node2" class="node">
<title>users</title>
<g id="a_node2"><a xlink:href="../../tables/users.html" xlink:title="users" target="_top">
<polygon fill="#ffffff" stroke="transparent" points="8,-38.2 8,-253.2 224,-253.2 224,-38.2 8,-38.2"/>
<polygon fill="#f5f5f5" stroke="transparent" points="8,-229.7 8,-252.7 224,-252.7 224,-229.7 8,-229.7"/>
<polygon fill="none" stroke="#000000" points="8,-229.7 8,-252.7 224,-252.7 224,-229.7 8,-229.7"/>
<text text-anchor="start" x="13" y="-238.8" font-family="Helvetica,sans-Serif" font-weight="bold" font-size="11.00" fill="#000000">users</text>
<text text-anchor="start" x="189.0437" y="-237.8" font-family="Helvetica,sans-Serif" font-size="11.00" fill="#000000">[table]</text>
<polygon fill="none" stroke="#000000" points="8,-207.7 8,-229.7 224,-229.7 224,-207.7 8,-207.7"/>
<image xlink:href="../../images/primaryKeys.png" width="11px" height="12px" preserveAspectRatio="xMinYMin meet" x="13" y="-224.7"/>
<text text-anchor="start" x="28" y="-214.8" font-family="Helvetica,sans-Serif" font-size="11.00" fill="#000000">id</text>
<polygon fill="#ffffff" stroke="transparent" points="8,-185.7 8,-207.7 224,-207.7 224,-185.7 8,-185.7"/>
<polygon fill="none" stroke="#000000" points="8,-185.7 8,-207.7 224,-207.7 224,-185.7 8,-185.7"/>
<text text-anchor="start" x="28" y="-192.8" font-family="Helvetica,sans-Serif" font-size="11.00" fill="#000000">user_name</text>
<polygon fill="#ffffff" stroke="transparent" points="8,-163.7 8,-185.7 224,-185.7 224,-163.7 8,-163.7"/>
<polygon fill="none" stroke="#000000" points="8,-163.7 8,-185.7 224,-185.7 224,-163.7 8,-163.7"/>
<text text-anchor="start" x="28" y="-170.8" font-family="Helvetica,sans-Serif" font-size="11.00" fill="#000000">first_name</text>
<polygon fill="#ffffff" stroke="transparent" points="8,-141.7 8,-163.7 224,-163.7 224,-141.7 8,-141.7"/>
<polygon fill="none" stroke="#000000" points="8,-141.7 8,-163.7 224,-163.7 224,-141.7 8,-141.7"/>
<text text-anchor="start" x="28" y="-148.8" font-family="Helvetica,sans-Serif" font-size="11.00" fill="#000000">last_name</text>
<polygon fill="#ffffff" stroke="transparent" points="8,-119.7 8,-141.7 224,-141.7 224,-119.7 8,-119.7"/>
<polygon fill="none" stroke="#000000" points="8,-119.7 8,-141.7 224,-141.7 224,-119.7 8,-119.7"/>
<text text-anchor="start" x="28" y="-126.8" font-family="Helvetica,sans-Serif" font-size="11.00" fill="#000000">status</text>
<polygon fill="#c0c0c0" stroke="transparent" points="8,-97.7 8,-119.7 224,-119.7 224,-97.7 8,-97.7"/>
<polygon fill="none" stroke="#000000" points="8,-97.7 8,-119.7 224,-119.7 224,-97.7 8,-97.7"/>
<image xlink:href="../../images/foreignKeys.png" width="11px" height="12px" preserveAspectRatio="xMinYMin meet" x="13" y="-114.7"/>
<text text-anchor="start" x="28" y="-104.8" font-family="Helvetica,sans-Serif" font-size="11.00" fill="#000000">reports_to_id</text>
<polygon fill="#ffffff" stroke="transparent" points="8,-75.7 8,-97.7 224,-97.7 224,-75.7 8,-75.7"/>
<polygon fill="none" stroke="#000000" points="8,-75.7 8,-97.7 224,-97.7 224,-75.7 8,-75.7"/>
<text text-anchor="start" x="28" y="-82.8" font-family="Helvetica,sans-Serif" font-size="11.00" fill="#000000">is_group</text>
<polygon fill="none" stroke="#000000" points="8,-56.7 8,-75.7 224,-75.7 224,-56.7 8,-56.7"/>
<text text-anchor="start" x="11" y="-62.8" font-family="Helvetica,sans-Serif" font-size="11.00" fill="#000000">...</text>
<polygon fill="#ffffff" stroke="transparent" points="8,-37.7 8,-56.7 104,-56.7 104,-37.7 8,-37.7"/>
<polygon fill="none" stroke="#000000" points="8,-37.7 8,-56.7 104,-56.7 104,-37.7 8,-37.7"/>
<text text-anchor="start" x="11" y="-43.8" font-family="Helvetica,sans-Serif" font-size="11.00" fill="#000000">&lt; 2</text>
<polygon fill="#ffffff" stroke="transparent" points="104,-37.7 104,-56.7 153,-56.7 153,-37.7 104,-37.7"/>
<polygon fill="none" stroke="#000000" points="104,-37.7 104,-56.7 153,-56.7 153,-37.7 104,-37.7"/>
<text text-anchor="start" x="143.8862" y="-43.8" font-family="Helvetica,sans-Serif" font-size="11.00" fill="#000000"> &#160;</text>
<polygon fill="#ffffff" stroke="transparent" points="153,-37.7 153,-56.7 224,-56.7 224,-37.7 153,-37.7"/>
<polygon fill="none" stroke="#000000" points="153,-37.7 153,-56.7 224,-56.7 224,-37.7 153,-37.7"/>
<text text-anchor="start" x="193.1755" y="-43.8" font-family="Helvetica,sans-Serif" font-size="11.00" fill="#000000">214 &gt;</text>
</a>
</g>
</g>
<!-- oauth2clients&#45;&gt;users -->
<g id="edge1" class="edge">
<title>oauth2clients:w&#45;&gt;users:e</title>
<path fill="none" stroke="#000000" d="M259.0457,-190.0142C246.8073,-198.9592 244.3075,-218.7 224,-218.7"/>
<polygon fill="#000000" stroke="#000000" points="265.3569,-188.063 274.0634,-189.1394 269.1785,-186.8815 273,-185.7 273,-185.7 273,-185.7 269.1785,-186.8815 271.9366,-182.2606 265.3569,-188.063 265.3569,-188.063"/>
<ellipse fill="none" stroke="#000000" cx="262.2997" cy="-189.0082" rx="3.2" ry="3.2"/>
</g>
<!-- oauth2clients&#45;&gt;users -->
<g id="edge2" class="edge">
<title>oauth2clients:w&#45;&gt;users:e</title>
<path fill="none" stroke="#000000" d="M258.7027,-209.5164C247.2382,-212.6407 240.5655,-218.7 224,-218.7"/>
<polygon fill="#000000" stroke="#000000" points="265.0638,-208.7083 273.4537,-211.2713 269.0319,-208.2042 273,-207.7 273,-207.7 273,-207.7 269.0319,-208.2042 272.5463,-204.1287 265.0638,-208.7083 265.0638,-208.7083"/>
<ellipse fill="none" stroke="#000000" cx="261.8893" cy="-209.1116" rx="3.2" ry="3.2"/>
</g>
<!-- oauth2clients&#45;&gt;users -->
<g id="edge3" class="edge">
<title>oauth2clients:w&#45;&gt;users:e</title>
<path fill="none" stroke="#000000" d="M258.7027,-227.8836C247.2382,-224.7593 240.5655,-218.7 224,-218.7"/>
<polygon fill="#000000" stroke="#000000" points="265.0638,-228.6917 272.5463,-233.2713 269.0319,-229.1958 273,-229.7 273,-229.7 273,-229.7 269.0319,-229.1958 273.4537,-226.1287 265.0638,-228.6917 265.0638,-228.6917"/>
<ellipse fill="none" stroke="#000000" cx="261.8893" cy="-228.2884" rx="3.2" ry="3.2"/>
</g>
<!-- oauth2tokens -->
<g id="node3" class="node">
<title>oauth2tokens</title>
<g id="a_node3"><a xlink:href="../../tables/oauth2tokens.html" xlink:title="oauth2tokens" target="_top">
<polygon fill="#ffffff" stroke="transparent" points="474,-46.7 474,-488.7 721,-488.7 721,-46.7 474,-46.7"/>
<polygon fill="#f5f5f5" stroke="transparent" points="476.5,-463.7 476.5,-486.7 719.5,-486.7 719.5,-463.7 476.5,-463.7"/>
<polygon fill="none" stroke="#000000" points="476.5,-463.7 476.5,-486.7 719.5,-486.7 719.5,-463.7 476.5,-463.7"/>
<text text-anchor="start" x="481.5" y="-472.8" font-family="Helvetica,sans-Serif" font-weight="bold" font-size="11.00" fill="#000000">oauth2tokens</text>
<text text-anchor="start" x="684.5437" y="-471.8" font-family="Helvetica,sans-Serif" font-size="11.00" fill="#000000">[table]</text>
<polygon fill="none" stroke="#000000" points="476.5,-441.7 476.5,-463.7 646.5,-463.7 646.5,-441.7 476.5,-441.7"/>
<image xlink:href="../../images/primaryKeys.png" width="11px" height="12px" preserveAspectRatio="xMinYMin meet" x="481.5" y="-458.7"/>
<text text-anchor="start" x="496.5" y="-448.8" font-family="Helvetica,sans-Serif" font-size="11.00" fill="#000000">id</text>
<polygon fill="none" stroke="#000000" points="646.5,-441.7 646.5,-463.7 719.5,-463.7 719.5,-441.7 646.5,-441.7"/>
<text text-anchor="start" x="649.5" y="-449.4" font-family="Helvetica,sans-Serif" font-size="11.00" fill="#000000">char[36]</text>
<polygon fill="none" stroke="#000000" points="476.5,-419.7 476.5,-441.7 646.5,-441.7 646.5,-419.7 476.5,-419.7"/>
<text text-anchor="start" x="496.5" y="-426.8" font-family="Helvetica,sans-Serif" font-size="11.00" fill="#000000">name</text>
<polygon fill="none" stroke="#000000" points="646.5,-419.7 646.5,-441.7 719.5,-441.7 719.5,-419.7 646.5,-419.7"/>
<text text-anchor="start" x="649.5" y="-427.4" font-family="Helvetica,sans-Serif" font-size="11.00" fill="#000000">varchar[255]</text>
<polygon fill="none" stroke="#000000" points="476.5,-397.7 476.5,-419.7 646.5,-419.7 646.5,-397.7 476.5,-397.7"/>
<text text-anchor="start" x="496.5" y="-404.8" font-family="Helvetica,sans-Serif" font-size="11.00" fill="#000000">date_entered</text>
<polygon fill="none" stroke="#000000" points="646.5,-397.7 646.5,-419.7 719.5,-419.7 719.5,-397.7 646.5,-397.7"/>
<text text-anchor="start" x="649.5" y="-405.4" font-family="Helvetica,sans-Serif" font-size="11.00" fill="#000000">datetime[26]</text>
<polygon fill="none" stroke="#000000" points="476.5,-375.7 476.5,-397.7 646.5,-397.7 646.5,-375.7 476.5,-375.7"/>
<text text-anchor="start" x="496.5" y="-382.8" font-family="Helvetica,sans-Serif" font-size="11.00" fill="#000000">date_modified</text>
<polygon fill="none" stroke="#000000" points="646.5,-375.7 646.5,-397.7 719.5,-397.7 719.5,-375.7 646.5,-375.7"/>
<text text-anchor="start" x="649.5" y="-383.4" font-family="Helvetica,sans-Serif" font-size="11.00" fill="#000000">datetime[26]</text>
<polygon fill="none" stroke="#000000" points="476.5,-353.7 476.5,-375.7 646.5,-375.7 646.5,-353.7 476.5,-353.7"/>
<image xlink:href="../../images/foreignKeys.png" width="11px" height="12px" preserveAspectRatio="xMinYMin meet" x="481.5" y="-370.7"/>
<text text-anchor="start" x="496.5" y="-360.8" font-family="Helvetica,sans-Serif" font-size="11.00" fill="#000000">modified_user_id</text>
<polygon fill="none" stroke="#000000" points="646.5,-353.7 646.5,-375.7 719.5,-375.7 719.5,-353.7 646.5,-353.7"/>
<text text-anchor="start" x="649.5" y="-361.4" font-family="Helvetica,sans-Serif" font-size="11.00" fill="#000000">char[36]</text>
<polygon fill="none" stroke="#000000" points="476.5,-331.7 476.5,-353.7 646.5,-353.7 646.5,-331.7 476.5,-331.7"/>
<image xlink:href="../../images/foreignKeys.png" width="11px" height="12px" preserveAspectRatio="xMinYMin meet" x="481.5" y="-348.7"/>
<text text-anchor="start" x="496.5" y="-338.8" font-family="Helvetica,sans-Serif" font-size="11.00" fill="#000000">created_by</text>
<polygon fill="none" stroke="#000000" points="646.5,-331.7 646.5,-353.7 719.5,-353.7 719.5,-331.7 646.5,-331.7"/>
<text text-anchor="start" x="649.5" y="-339.4" font-family="Helvetica,sans-Serif" font-size="11.00" fill="#000000">char[36]</text>
<polygon fill="none" stroke="#000000" points="476.5,-309.7 476.5,-331.7 646.5,-331.7 646.5,-309.7 476.5,-309.7"/>
<text text-anchor="start" x="496.5" y="-316.8" font-family="Helvetica,sans-Serif" font-size="11.00" fill="#000000">description</text>
<polygon fill="none" stroke="#000000" points="646.5,-309.7 646.5,-331.7 719.5,-331.7 719.5,-309.7 646.5,-309.7"/>
<text text-anchor="start" x="649.5" y="-317.4" font-family="Helvetica,sans-Serif" font-size="11.00" fill="#000000">text[65535]</text>
<polygon fill="none" stroke="#000000" points="476.5,-287.7 476.5,-309.7 646.5,-309.7 646.5,-287.7 476.5,-287.7"/>
<text text-anchor="start" x="496.5" y="-294.8" font-family="Helvetica,sans-Serif" font-size="11.00" fill="#000000">deleted</text>
<polygon fill="none" stroke="#000000" points="646.5,-287.7 646.5,-309.7 719.5,-309.7 719.5,-287.7 646.5,-287.7"/>
<text text-anchor="start" x="649.5" y="-295.4" font-family="Helvetica,sans-Serif" font-size="11.00" fill="#000000">bit[1]</text>
<polygon fill="none" stroke="#000000" points="476.5,-265.7 476.5,-287.7 646.5,-287.7 646.5,-265.7 476.5,-265.7"/>
<text text-anchor="start" x="496.5" y="-272.8" font-family="Helvetica,sans-Serif" font-size="11.00" fill="#000000">token_is_revoked</text>
<polygon fill="none" stroke="#000000" points="646.5,-265.7 646.5,-287.7 719.5,-287.7 719.5,-265.7 646.5,-265.7"/>
<text text-anchor="start" x="649.5" y="-273.4" font-family="Helvetica,sans-Serif" font-size="11.00" fill="#000000">bit[1]</text>
<polygon fill="none" stroke="#000000" points="476.5,-243.7 476.5,-265.7 646.5,-265.7 646.5,-243.7 476.5,-243.7"/>
<text text-anchor="start" x="496.5" y="-250.8" font-family="Helvetica,sans-Serif" font-size="11.00" fill="#000000">token_type</text>
<polygon fill="none" stroke="#000000" points="646.5,-243.7 646.5,-265.7 719.5,-265.7 719.5,-243.7 646.5,-243.7"/>
<text text-anchor="start" x="649.5" y="-251.4" font-family="Helvetica,sans-Serif" font-size="11.00" fill="#000000">varchar[255]</text>
<polygon fill="none" stroke="#000000" points="476.5,-221.7 476.5,-243.7 646.5,-243.7 646.5,-221.7 476.5,-221.7"/>
<text text-anchor="start" x="496.5" y="-228.8" font-family="Helvetica,sans-Serif" font-size="11.00" fill="#000000">access_token_expires</text>
<polygon fill="none" stroke="#000000" points="646.5,-221.7 646.5,-243.7 719.5,-243.7 719.5,-221.7 646.5,-221.7"/>
<text text-anchor="start" x="649.5" y="-229.4" font-family="Helvetica,sans-Serif" font-size="11.00" fill="#000000">datetime[26]</text>
<polygon fill="none" stroke="#000000" points="476.5,-199.7 476.5,-221.7 646.5,-221.7 646.5,-199.7 476.5,-199.7"/>
<text text-anchor="start" x="496.5" y="-206.8" font-family="Helvetica,sans-Serif" font-size="11.00" fill="#000000">access_token</text>
<polygon fill="none" stroke="#000000" points="646.5,-199.7 646.5,-221.7 719.5,-221.7 719.5,-199.7 646.5,-199.7"/>
<text text-anchor="start" x="649.3791" y="-207.4" font-family="Helvetica,sans-Serif" font-size="11.00" fill="#000000">varchar[4000]</text>
<polygon fill="none" stroke="#000000" points="476.5,-177.7 476.5,-199.7 646.5,-199.7 646.5,-177.7 476.5,-177.7"/>
<text text-anchor="start" x="496.5" y="-184.8" font-family="Helvetica,sans-Serif" font-size="11.00" fill="#000000">refresh_token</text>
<polygon fill="none" stroke="#000000" points="646.5,-177.7 646.5,-199.7 719.5,-199.7 719.5,-177.7 646.5,-177.7"/>
<text text-anchor="start" x="649.3791" y="-185.4" font-family="Helvetica,sans-Serif" font-size="11.00" fill="#000000">varchar[4000]</text>
<polygon fill="none" stroke="#000000" points="476.5,-155.7 476.5,-177.7 646.5,-177.7 646.5,-155.7 476.5,-155.7"/>
<text text-anchor="start" x="496.5" y="-162.8" font-family="Helvetica,sans-Serif" font-size="11.00" fill="#000000">refresh_token_expires</text>
<polygon fill="none" stroke="#000000" points="646.5,-155.7 646.5,-177.7 719.5,-177.7 719.5,-155.7 646.5,-155.7"/>
<text text-anchor="start" x="649.5" y="-163.4" font-family="Helvetica,sans-Serif" font-size="11.00" fill="#000000">datetime[26]</text>
<polygon fill="none" stroke="#000000" points="476.5,-133.7 476.5,-155.7 646.5,-155.7 646.5,-133.7 476.5,-133.7"/>
<text text-anchor="start" x="496.5" y="-140.8" font-family="Helvetica,sans-Serif" font-size="11.00" fill="#000000">grant_type</text>
<polygon fill="none" stroke="#000000" points="646.5,-133.7 646.5,-155.7 719.5,-155.7 719.5,-133.7 646.5,-133.7"/>
<text text-anchor="start" x="649.5" y="-141.4" font-family="Helvetica,sans-Serif" font-size="11.00" fill="#000000">varchar[255]</text>
<polygon fill="none" stroke="#000000" points="476.5,-111.7 476.5,-133.7 646.5,-133.7 646.5,-111.7 476.5,-111.7"/>
<text text-anchor="start" x="496.5" y="-118.8" font-family="Helvetica,sans-Serif" font-size="11.00" fill="#000000">state</text>
<polygon fill="none" stroke="#000000" points="646.5,-111.7 646.5,-133.7 719.5,-133.7 719.5,-111.7 646.5,-111.7"/>
<text text-anchor="start" x="649.3791" y="-119.4" font-family="Helvetica,sans-Serif" font-size="11.00" fill="#000000">varchar[1024]</text>
<polygon fill="none" stroke="#000000" points="476.5,-89.7 476.5,-111.7 646.5,-111.7 646.5,-89.7 476.5,-89.7"/>
<image xlink:href="../../images/foreignKeys.png" width="11px" height="12px" preserveAspectRatio="xMinYMin meet" x="481.5" y="-106.7"/>
<text text-anchor="start" x="496.5" y="-96.8" font-family="Helvetica,sans-Serif" font-size="11.00" fill="#000000">client</text>
<polygon fill="none" stroke="#000000" points="646.5,-89.7 646.5,-111.7 719.5,-111.7 719.5,-89.7 646.5,-89.7"/>
<text text-anchor="start" x="649.5" y="-97.4" font-family="Helvetica,sans-Serif" font-size="11.00" fill="#000000">char[36]</text>
<polygon fill="none" stroke="#000000" points="476.5,-67.7 476.5,-89.7 646.5,-89.7 646.5,-67.7 476.5,-67.7"/>
<image xlink:href="../../images/foreignKeys.png" width="11px" height="12px" preserveAspectRatio="xMinYMin meet" x="481.5" y="-84.7"/>
<text text-anchor="start" x="496.5" y="-74.8" font-family="Helvetica,sans-Serif" font-size="11.00" fill="#000000">assigned_user_id</text>
<polygon fill="none" stroke="#000000" points="646.5,-67.7 646.5,-89.7 719.5,-89.7 719.5,-67.7 646.5,-67.7"/>
<text text-anchor="start" x="649.5" y="-75.4" font-family="Helvetica,sans-Serif" font-size="11.00" fill="#000000">char[36]</text>
<polygon fill="#ffffff" stroke="transparent" points="476.5,-48.7 476.5,-67.7 565.5,-67.7 565.5,-48.7 476.5,-48.7"/>
<polygon fill="none" stroke="#000000" points="476.5,-48.7 476.5,-67.7 565.5,-67.7 565.5,-48.7 476.5,-48.7"/>
<text text-anchor="start" x="479.5" y="-54.8" font-family="Helvetica,sans-Serif" font-size="11.00" fill="#000000">&lt; 4</text>
<polygon fill="#ffffff" stroke="transparent" points="565.5,-48.7 565.5,-67.7 646.5,-67.7 646.5,-48.7 565.5,-48.7"/>
<polygon fill="none" stroke="#000000" points="565.5,-48.7 565.5,-67.7 646.5,-67.7 646.5,-48.7 565.5,-48.7"/>
<text text-anchor="start" x="637.3862" y="-54.8" font-family="Helvetica,sans-Serif" font-size="11.00" fill="#000000"> &#160;</text>
<polygon fill="#ffffff" stroke="transparent" points="646.5,-48.7 646.5,-67.7 719.5,-67.7 719.5,-48.7 646.5,-48.7"/>
<polygon fill="none" stroke="#000000" points="646.5,-48.7 646.5,-67.7 719.5,-67.7 719.5,-48.7 646.5,-48.7"/>
<text text-anchor="start" x="700.9053" y="-54.8" font-family="Helvetica,sans-Serif" font-size="11.00" fill="#000000">0 &gt;</text>
<polygon fill="none" stroke="#000000" stroke-width="2" points="475,-47.7 475,-487.7 720,-487.7 720,-47.7 475,-47.7"/>
</a>
</g>
</g>
<!-- oauth2tokens&#45;&gt;oauth2clients -->
<g id="edge5" class="edge">
<title>oauth2tokens:w&#45;&gt;oauth2clients:e</title>
<path fill="none" stroke="#000000" d="M462.1269,-103.5816C419.3253,-124.4573 490.0904,-251.7 425,-251.7"/>
<polygon fill="#000000" stroke="#000000" points="468.6561,-102.2726 477.2077,-104.2298 472.578,-101.4863 476.5,-100.7 476.5,-100.7 476.5,-100.7 472.578,-101.4863 475.7923,-97.1702 468.6561,-102.2726 468.6561,-102.2726"/>
<ellipse fill="none" stroke="#000000" cx="465.5185" cy="-102.9017" rx="3.2" ry="3.2"/>
</g>
<!-- oauth2tokens&#45;&gt;users -->
<g id="edge4" class="edge">
<title>oauth2tokens:w&#45;&gt;users:e</title>
<path fill="none" stroke="#000000" d="M461.969,-78.6064C375.8153,-77.5368 335.646,-68.7054 265,-126.7 230.3999,-155.1039 268.7655,-218.7 224,-218.7"/>
<polygon fill="#000000" stroke="#000000" points="468.5002,-78.6484 476.4768,-82.2999 472.5001,-78.6742 476.5,-78.7 476.5,-78.7 476.5,-78.7 472.5001,-78.6742 476.5232,-75.1001 468.5002,-78.6484 468.5002,-78.6484"/>
<ellipse fill="none" stroke="#000000" cx="465.3002" cy="-78.6278" rx="3.2" ry="3.2"/>
</g>
<!-- oauth2tokens&#45;&gt;users -->
<g id="edge6" class="edge">
<title>oauth2tokens:w&#45;&gt;users:e</title>
<path fill="none" stroke="#000000" d="M462.0115,-342.787C376.1899,-343.7798 337.5899,-351.9408 265,-296.7 233.834,-272.9827 263.1641,-218.7 224,-218.7"/>
<polygon fill="#000000" stroke="#000000" points="468.5001,-342.7481 476.5216,-346.2999 472.5001,-342.7241 476.5,-342.7 476.5,-342.7 476.5,-342.7 472.5001,-342.7241 476.4784,-339.1001 468.5001,-342.7481 468.5001,-342.7481"/>
<ellipse fill="none" stroke="#000000" cx="465.3002" cy="-342.7673" rx="3.2" ry="3.2"/>
</g>
<!-- oauth2tokens&#45;&gt;users -->
<g id="edge7" class="edge">
<title>oauth2tokens:w&#45;&gt;users:e</title>
<path fill="none" stroke="#000000" d="M461.8627,-364.905C376.6894,-367.2606 334.5767,-388.0814 265,-330.7 224.1053,-296.9732 277.0083,-218.7 224,-218.7"/>
<polygon fill="#000000" stroke="#000000" points="468.5008,-364.8121 476.5504,-368.2996 472.5004,-364.7561 476.5,-364.7 476.5,-364.7 476.5,-364.7 472.5004,-364.7561 476.4496,-361.1004 468.5008,-364.8121 468.5008,-364.8121"/>
<ellipse fill="none" stroke="#000000" cx="465.3011" cy="-364.8569" rx="3.2" ry="3.2"/>
</g>
</g>
</svg>
