<?xml version="1.0" encoding="UTF-8" standalone="no"?>
<!DOCTYPE svg PUBLIC "-//W3C//DTD SVG 1.1//EN"
 "http://www.w3.org/Graphics/SVG/1.1/DTD/svg11.dtd">
<!-- Generated by graphviz version 2.40.1 (20161225.0304)
 -->
<!-- Title: oneDegreeRelationshipsDiagram Pages: 1 -->
<svg width="435pt" height="316pt"
 viewBox="0.00 0.00 435.00 316.20" xmlns="http://www.w3.org/2000/svg" xmlns:xlink="http://www.w3.org/1999/xlink">
<g id="graph0" class="graph" transform="scale(1 1) rotate(0) translate(4 312.2)">
<title>oneDegreeRelationshipsDiagram</title>
<polygon fill="#ffffff" stroke="transparent" points="-4,4 -4,-312.2 431,-312.2 431,4 -4,4"/>
<text text-anchor="middle" x="72.4936" y="-7.3" font-family="Helvetica,sans-Serif" font-size="11.00" fill="#000000">Generated by SchemaSpy</text>
<!-- opportunities_audit -->
<g id="node1" class="node">
<title>opportunities_audit</title>
<g id="a_node1"><a xlink:href="../../tables/opportunities_audit.html" xlink:title="opportunities_audit" target="_top">
<polygon fill="#ffffff" stroke="transparent" points="194,-38.2 194,-304.2 419,-304.2 419,-38.2 194,-38.2"/>
<polygon fill="#f5f5f5" stroke="transparent" points="196.5,-279.2 196.5,-302.2 417.5,-302.2 417.5,-279.2 196.5,-279.2"/>
<polygon fill="none" stroke="#000000" points="196.5,-279.2 196.5,-302.2 417.5,-302.2 417.5,-279.2 196.5,-279.2"/>
<text text-anchor="start" x="201.5" y="-288.3" font-family="Helvetica,sans-Serif" font-weight="bold" font-size="11.00" fill="#000000">opportunities_audit</text>
<text text-anchor="start" x="382.5437" y="-287.3" font-family="Helvetica,sans-Serif" font-size="11.00" fill="#000000">[table]</text>
<polygon fill="none" stroke="#000000" points="196.5,-257.2 196.5,-279.2 350.5,-279.2 350.5,-257.2 196.5,-257.2"/>
<image xlink:href="../../images/primaryKeys.png" width="11px" height="12px" preserveAspectRatio="xMinYMin meet" x="201.5" y="-274.2"/>
<text text-anchor="start" x="216.5" y="-264.3" font-family="Helvetica,sans-Serif" font-size="11.00" fill="#000000">id</text>
<polygon fill="none" stroke="#000000" points="350.5,-257.2 350.5,-279.2 417.5,-279.2 417.5,-257.2 350.5,-257.2"/>
<text text-anchor="start" x="353.5" y="-264.9" font-family="Helvetica,sans-Serif" font-size="11.00" fill="#000000">char[36]</text>
<polygon fill="#ffffff" stroke="transparent" points="196.5,-235.2 196.5,-257.2 350.5,-257.2 350.5,-235.2 196.5,-235.2"/>
<polygon fill="none" stroke="#000000" points="196.5,-235.2 196.5,-257.2 350.5,-257.2 350.5,-235.2 196.5,-235.2"/>
<image xlink:href="../../images/foreignKeys.png" width="11px" height="12px" preserveAspectRatio="xMinYMin meet" x="201.5" y="-252.2"/>
<text text-anchor="start" x="216.5" y="-242.3" font-family="Helvetica,sans-Serif" font-size="11.00" fill="#000000">parent_id</text>
<polygon fill="none" stroke="#000000" points="350.5,-235.2 350.5,-257.2 417.5,-257.2 417.5,-235.2 350.5,-235.2"/>
<text text-anchor="start" x="353.5" y="-242.9" font-family="Helvetica,sans-Serif" font-size="11.00" fill="#000000">char[36]</text>
<polygon fill="none" stroke="#000000" points="196.5,-213.2 196.5,-235.2 350.5,-235.2 350.5,-213.2 196.5,-213.2"/>
<text text-anchor="start" x="216.5" y="-220.3" font-family="Helvetica,sans-Serif" font-size="11.00" fill="#000000">date_created</text>
<polygon fill="none" stroke="#000000" points="350.5,-213.2 350.5,-235.2 417.5,-235.2 417.5,-213.2 350.5,-213.2"/>
<text text-anchor="start" x="353.5" y="-220.9" font-family="Helvetica,sans-Serif" font-size="11.00" fill="#000000">datetime[26]</text>
<polygon fill="none" stroke="#000000" points="196.5,-191.2 196.5,-213.2 350.5,-213.2 350.5,-191.2 196.5,-191.2"/>
<text text-anchor="start" x="216.5" y="-198.3" font-family="Helvetica,sans-Serif" font-size="11.00" fill="#000000">created_by</text>
<polygon fill="none" stroke="#000000" points="350.5,-191.2 350.5,-213.2 417.5,-213.2 417.5,-191.2 350.5,-191.2"/>
<text text-anchor="start" x="353.5" y="-198.9" font-family="Helvetica,sans-Serif" font-size="11.00" fill="#000000">varchar[36]</text>
<polygon fill="none" stroke="#000000" points="196.5,-169.2 196.5,-191.2 350.5,-191.2 350.5,-169.2 196.5,-169.2"/>
<text text-anchor="start" x="216.5" y="-176.3" font-family="Helvetica,sans-Serif" font-size="11.00" fill="#000000">field_name</text>
<polygon fill="none" stroke="#000000" points="350.5,-169.2 350.5,-191.2 417.5,-191.2 417.5,-169.2 350.5,-169.2"/>
<text text-anchor="start" x="353.4365" y="-176.9" font-family="Helvetica,sans-Serif" font-size="11.00" fill="#000000">varchar[100]</text>
<polygon fill="none" stroke="#000000" points="196.5,-147.2 196.5,-169.2 350.5,-169.2 350.5,-147.2 196.5,-147.2"/>
<text text-anchor="start" x="216.5" y="-154.3" font-family="Helvetica,sans-Serif" font-size="11.00" fill="#000000">data_type</text>
<polygon fill="none" stroke="#000000" points="350.5,-147.2 350.5,-169.2 417.5,-169.2 417.5,-147.2 350.5,-147.2"/>
<text text-anchor="start" x="353.4365" y="-154.9" font-family="Helvetica,sans-Serif" font-size="11.00" fill="#000000">varchar[100]</text>
<polygon fill="none" stroke="#000000" points="196.5,-125.2 196.5,-147.2 350.5,-147.2 350.5,-125.2 196.5,-125.2"/>
<text text-anchor="start" x="216.5" y="-132.3" font-family="Helvetica,sans-Serif" font-size="11.00" fill="#000000">before_value_string</text>
<polygon fill="none" stroke="#000000" points="350.5,-125.2 350.5,-147.2 417.5,-147.2 417.5,-125.2 350.5,-125.2"/>
<text text-anchor="start" x="353.4365" y="-132.9" font-family="Helvetica,sans-Serif" font-size="11.00" fill="#000000">varchar[255]</text>
<polygon fill="none" stroke="#000000" points="196.5,-103.2 196.5,-125.2 350.5,-125.2 350.5,-103.2 196.5,-103.2"/>
<text text-anchor="start" x="216.5" y="-110.3" font-family="Helvetica,sans-Serif" font-size="11.00" fill="#000000">after_value_string</text>
<polygon fill="none" stroke="#000000" points="350.5,-103.2 350.5,-125.2 417.5,-125.2 417.5,-103.2 350.5,-103.2"/>
<text text-anchor="start" x="353.4365" y="-110.9" font-family="Helvetica,sans-Serif" font-size="11.00" fill="#000000">varchar[255]</text>
<polygon fill="none" stroke="#000000" points="196.5,-81.2 196.5,-103.2 350.5,-103.2 350.5,-81.2 196.5,-81.2"/>
<text text-anchor="start" x="216.5" y="-88.3" font-family="Helvetica,sans-Serif" font-size="11.00" fill="#000000">before_value_text</text>
<polygon fill="none" stroke="#000000" points="350.5,-81.2 350.5,-103.2 417.5,-103.2 417.5,-81.2 350.5,-81.2"/>
<text text-anchor="start" x="353.5" y="-88.9" font-family="Helvetica,sans-Serif" font-size="11.00" fill="#000000">text[65535]</text>
<polygon fill="none" stroke="#000000" points="196.5,-59.2 196.5,-81.2 350.5,-81.2 350.5,-59.2 196.5,-59.2"/>
<text text-anchor="start" x="216.5" y="-66.3" font-family="Helvetica,sans-Serif" font-size="11.00" fill="#000000">after_value_text</text>
<polygon fill="none" stroke="#000000" points="350.5,-59.2 350.5,-81.2 417.5,-81.2 417.5,-59.2 350.5,-59.2"/>
<text text-anchor="start" x="353.5" y="-66.9" font-family="Helvetica,sans-Serif" font-size="11.00" fill="#000000">text[65535]</text>
<polygon fill="#ffffff" stroke="transparent" points="196.5,-40.2 196.5,-59.2 277.5,-59.2 277.5,-40.2 196.5,-40.2"/>
<polygon fill="none" stroke="#000000" points="196.5,-40.2 196.5,-59.2 277.5,-59.2 277.5,-40.2 196.5,-40.2"/>
<text text-anchor="start" x="199.5" y="-46.3" font-family="Helvetica,sans-Serif" font-size="11.00" fill="#000000">&lt; 1</text>
<polygon fill="#ffffff" stroke="transparent" points="277.5,-40.2 277.5,-59.2 350.5,-59.2 350.5,-40.2 277.5,-40.2"/>
<polygon fill="none" stroke="#000000" points="277.5,-40.2 277.5,-59.2 350.5,-59.2 350.5,-40.2 277.5,-40.2"/>
<text text-anchor="start" x="341.3862" y="-46.3" font-family="Helvetica,sans-Serif" font-size="11.00" fill="#000000"> &#160;</text>
<polygon fill="#ffffff" stroke="transparent" points="350.5,-40.2 350.5,-59.2 417.5,-59.2 417.5,-40.2 350.5,-40.2"/>
<polygon fill="none" stroke="#000000" points="350.5,-40.2 350.5,-59.2 417.5,-59.2 417.5,-40.2 350.5,-40.2"/>
<text text-anchor="start" x="398.9053" y="-46.3" font-family="Helvetica,sans-Serif" font-size="11.00" fill="#000000">0 &gt;</text>
<polygon fill="none" stroke="#000000" stroke-width="2" points="195,-39.2 195,-303.2 418,-303.2 418,-39.2 195,-39.2"/>
</a>
</g>
</g>
<!-- opportunities -->
<g id="node2" class="node">
<title>opportunities</title>
<g id="a_node2"><a xlink:href="../../tables/opportunities.html" xlink:title="opportunities" target="_top">
<polygon fill="#ffffff" stroke="transparent" points="8,-43.7 8,-280.7 145,-280.7 145,-43.7 8,-43.7"/>
<polygon fill="#f5f5f5" stroke="transparent" points="8.5,-257.2 8.5,-280.2 145.5,-280.2 145.5,-257.2 8.5,-257.2"/>
<polygon fill="none" stroke="#000000" points="8.5,-257.2 8.5,-280.2 145.5,-280.2 145.5,-257.2 8.5,-257.2"/>
<text text-anchor="start" x="13.5" y="-266.3" font-family="Helvetica,sans-Serif" font-weight="bold" font-size="11.00" fill="#000000">opportunities</text>
<text text-anchor="start" x="110.5437" y="-265.3" font-family="Helvetica,sans-Serif" font-size="11.00" fill="#000000">[table]</text>
<polygon fill="none" stroke="#000000" points="8.5,-235.2 8.5,-257.2 145.5,-257.2 145.5,-235.2 8.5,-235.2"/>
<image xlink:href="../../images/primaryKeys.png" width="11px" height="12px" preserveAspectRatio="xMinYMin meet" x="13.5" y="-252.2"/>
<text text-anchor="start" x="28.5" y="-242.3" font-family="Helvetica,sans-Serif" font-size="11.00" fill="#000000">id</text>
<polygon fill="#ffffff" stroke="transparent" points="8.5,-213.2 8.5,-235.2 145.5,-235.2 145.5,-213.2 8.5,-213.2"/>
<polygon fill="none" stroke="#000000" points="8.5,-213.2 8.5,-235.2 145.5,-235.2 145.5,-213.2 8.5,-213.2"/>
<text text-anchor="start" x="28.5" y="-220.3" font-family="Helvetica,sans-Serif" font-size="11.00" fill="#000000">name</text>
<polygon fill="#c0c0c0" stroke="transparent" points="8.5,-191.2 8.5,-213.2 145.5,-213.2 145.5,-191.2 8.5,-191.2"/>
<polygon fill="none" stroke="#000000" points="8.5,-191.2 8.5,-213.2 145.5,-213.2 145.5,-191.2 8.5,-191.2"/>
<image xlink:href="../../images/foreignKeys.png" width="11px" height="12px" preserveAspectRatio="xMinYMin meet" x="13.5" y="-208.2"/>
<text text-anchor="start" x="28.5" y="-198.3" font-family="Helvetica,sans-Serif" font-size="11.00" fill="#000000">modified_user_id</text>
<polygon fill="#c0c0c0" stroke="transparent" points="8.5,-169.2 8.5,-191.2 145.5,-191.2 145.5,-169.2 8.5,-169.2"/>
<polygon fill="none" stroke="#000000" points="8.5,-169.2 8.5,-191.2 145.5,-191.2 145.5,-169.2 8.5,-169.2"/>
<image xlink:href="../../images/foreignKeys.png" width="11px" height="12px" preserveAspectRatio="xMinYMin meet" x="13.5" y="-186.2"/>
<text text-anchor="start" x="28.5" y="-176.3" font-family="Helvetica,sans-Serif" font-size="11.00" fill="#000000">created_by</text>
<polygon fill="#ffffff" stroke="transparent" points="8.5,-147.2 8.5,-169.2 145.5,-169.2 145.5,-147.2 8.5,-147.2"/>
<polygon fill="none" stroke="#000000" points="8.5,-147.2 8.5,-169.2 145.5,-169.2 145.5,-147.2 8.5,-147.2"/>
<text text-anchor="start" x="28.5" y="-154.3" font-family="Helvetica,sans-Serif" font-size="11.00" fill="#000000">deleted</text>
<polygon fill="#c0c0c0" stroke="transparent" points="8.5,-125.2 8.5,-147.2 145.5,-147.2 145.5,-125.2 8.5,-125.2"/>
<polygon fill="none" stroke="#000000" points="8.5,-125.2 8.5,-147.2 145.5,-147.2 145.5,-125.2 8.5,-125.2"/>
<image xlink:href="../../images/foreignKeys.png" width="11px" height="12px" preserveAspectRatio="xMinYMin meet" x="13.5" y="-142.2"/>
<text text-anchor="start" x="28.5" y="-132.3" font-family="Helvetica,sans-Serif" font-size="11.00" fill="#000000">assigned_user_id</text>
<polygon fill="none" stroke="#000000" points="8.5,-103.2 8.5,-125.2 145.5,-125.2 145.5,-103.2 8.5,-103.2"/>
<image xlink:href="../../images/foreignKeys.png" width="11px" height="12px" preserveAspectRatio="xMinYMin meet" x="13.5" y="-120.2"/>
<text text-anchor="start" x="28.5" y="-110.3" font-family="Helvetica,sans-Serif" font-size="11.00" fill="#000000">campaign_id</text>
<polygon fill="none" stroke="#000000" points="8.5,-81.2 8.5,-103.2 145.5,-103.2 145.5,-81.2 8.5,-81.2"/>
<image xlink:href="../../images/primaryKeys.png" width="11px" height="12px" preserveAspectRatio="xMinYMin meet" x="13.5" y="-98.2"/>
<text text-anchor="start" x="28.5" y="-88.3" font-family="Helvetica,sans-Serif" font-size="11.00" fill="#000000">currency_id</text>
<polygon fill="none" stroke="#000000" points="8.5,-62.2 8.5,-81.2 145.5,-81.2 145.5,-62.2 8.5,-62.2"/>
<text text-anchor="start" x="11.5" y="-68.3" font-family="Helvetica,sans-Serif" font-size="11.00" fill="#000000">...</text>
<polygon fill="#ffffff" stroke="transparent" points="8.5,-43.2 8.5,-62.2 67.5,-62.2 67.5,-43.2 8.5,-43.2"/>
<polygon fill="none" stroke="#000000" points="8.5,-43.2 8.5,-62.2 67.5,-62.2 67.5,-43.2 8.5,-43.2"/>
<text text-anchor="start" x="11.5" y="-49.3" font-family="Helvetica,sans-Serif" font-size="11.00" fill="#000000">&lt; 6</text>
<polygon fill="#ffffff" stroke="transparent" points="67.5,-43.2 67.5,-62.2 98.5,-62.2 98.5,-43.2 67.5,-43.2"/>
<polygon fill="none" stroke="#000000" points="67.5,-43.2 67.5,-62.2 98.5,-62.2 98.5,-43.2 67.5,-43.2"/>
<text text-anchor="start" x="89.3862" y="-49.3" font-family="Helvetica,sans-Serif" font-size="11.00" fill="#000000"> &#160;</text>
<polygon fill="#ffffff" stroke="transparent" points="98.5,-43.2 98.5,-62.2 145.5,-62.2 145.5,-43.2 98.5,-43.2"/>
<polygon fill="none" stroke="#000000" points="98.5,-43.2 98.5,-62.2 145.5,-62.2 145.5,-43.2 98.5,-43.2"/>
<text text-anchor="start" x="120.7904" y="-49.3" font-family="Helvetica,sans-Serif" font-size="11.00" fill="#000000">17 &gt;</text>
</a>
</g>
</g>
<!-- opportunities_audit&#45;&gt;opportunities -->
<g id="edge1" class="edge">
<title>opportunities_audit:w&#45;&gt;opportunities:e</title>
<path fill="none" stroke="#000000" d="M181.776,-246.2C169.7815,-246.2 162.3229,-246.2 145.5,-246.2"/>
<polygon fill="#000000" stroke="#000000" points="188.5,-246.2001 196.5,-249.8 192.5,-246.2 196.5,-246.2 196.5,-246.2 196.5,-246.2 192.5,-246.2 196.5,-242.6 188.5,-246.2001 188.5,-246.2001"/>
<ellipse fill="none" stroke="#000000" cx="185.3" cy="-246.2001" rx="3.2" ry="3.2"/>
</g>
</g>
</svg>
