<?xml version="1.0" encoding="UTF-8" standalone="no"?>
<!DOCTYPE svg PUBLIC "-//W3C//DTD SVG 1.1//EN"
 "http://www.w3.org/Graphics/SVG/1.1/DTD/svg11.dtd">
<!-- Generated by graphviz version 2.40.1 (20161225.0304)
 -->
<!-- Title: oneDegreeRelationshipsDiagram Pages: 1 -->
<svg width="496pt" height="289pt"
 viewBox="0.00 0.00 496.00 288.70" xmlns="http://www.w3.org/2000/svg" xmlns:xlink="http://www.w3.org/1999/xlink">
<g id="graph0" class="graph" transform="scale(1 1) rotate(0) translate(4 284.7)">
<title>oneDegreeRelationshipsDiagram</title>
<polygon fill="#ffffff" stroke="transparent" points="-4,4 -4,-284.7 492,-284.7 492,4 -4,4"/>
<text text-anchor="middle" x="72.4936" y="-7.3" font-family="Helvetica,sans-Serif" font-size="11.00" fill="#000000">Generated by SchemaSpy</text>
<!-- opportunities_cstm -->
<g id="node1" class="node">
<title>opportunities_cstm</title>
<g id="a_node1"><a xlink:href="../../tables/opportunities_cstm.html" xlink:title="opportunities_cstm" target="_top">
<polygon fill="#ffffff" stroke="transparent" points="194,-120.7 194,-276.7 480,-276.7 480,-120.7 194,-120.7"/>
<polygon fill="#f5f5f5" stroke="transparent" points="196,-251.7 196,-274.7 478,-274.7 478,-251.7 196,-251.7"/>
<polygon fill="none" stroke="#000000" points="196,-251.7 196,-274.7 478,-274.7 478,-251.7 196,-251.7"/>
<text text-anchor="start" x="201" y="-260.8" font-family="Helvetica,sans-Serif" font-weight="bold" font-size="11.00" fill="#000000">opportunities_cstm</text>
<text text-anchor="start" x="443.0437" y="-259.8" font-family="Helvetica,sans-Serif" font-size="11.00" fill="#000000">[table]</text>
<polygon fill="none" stroke="#000000" points="196,-229.7 196,-251.7 411,-251.7 411,-229.7 196,-229.7"/>
<image xlink:href="../../images/primaryKeys.png" width="11px" height="12px" preserveAspectRatio="xMinYMin meet" x="201" y="-246.7"/>
<text text-anchor="start" x="216" y="-236.8" font-family="Helvetica,sans-Serif" font-size="11.00" fill="#000000">id_c</text>
<polygon fill="none" stroke="#000000" points="411,-229.7 411,-251.7 478,-251.7 478,-229.7 411,-229.7"/>
<text text-anchor="start" x="414" y="-237.4" font-family="Helvetica,sans-Serif" font-size="11.00" fill="#000000">char[36]</text>
<polygon fill="none" stroke="#000000" points="196,-207.7 196,-229.7 411,-229.7 411,-207.7 196,-207.7"/>
<text text-anchor="start" x="216" y="-214.8" font-family="Helvetica,sans-Serif" font-size="11.00" fill="#000000">jjwg_maps_lng_c</text>
<polygon fill="none" stroke="#000000" points="411,-207.7 411,-229.7 478,-229.7 478,-207.7 411,-207.7"/>
<text text-anchor="start" x="414" y="-215.4" font-family="Helvetica,sans-Serif" font-size="11.00" fill="#000000">float[11,8]</text>
<polygon fill="none" stroke="#000000" points="196,-185.7 196,-207.7 411,-207.7 411,-185.7 196,-185.7"/>
<text text-anchor="start" x="216" y="-192.8" font-family="Helvetica,sans-Serif" font-size="11.00" fill="#000000">jjwg_maps_lat_c</text>
<polygon fill="none" stroke="#000000" points="411,-185.7 411,-207.7 478,-207.7 478,-185.7 411,-185.7"/>
<text text-anchor="start" x="414" y="-193.4" font-family="Helvetica,sans-Serif" font-size="11.00" fill="#000000">float[10,8]</text>
<polygon fill="none" stroke="#000000" points="196,-163.7 196,-185.7 411,-185.7 411,-163.7 196,-163.7"/>
<text text-anchor="start" x="216" y="-170.8" font-family="Helvetica,sans-Serif" font-size="11.00" fill="#000000">jjwg_maps_geocode_status_c</text>
<polygon fill="none" stroke="#000000" points="411,-163.7 411,-185.7 478,-185.7 478,-163.7 411,-163.7"/>
<text text-anchor="start" x="413.9365" y="-171.4" font-family="Helvetica,sans-Serif" font-size="11.00" fill="#000000">varchar[255]</text>
<polygon fill="none" stroke="#000000" points="196,-141.7 196,-163.7 411,-163.7 411,-141.7 196,-141.7"/>
<text text-anchor="start" x="216" y="-148.8" font-family="Helvetica,sans-Serif" font-size="11.00" fill="#000000">jjwg_maps_address_c</text>
<polygon fill="none" stroke="#000000" points="411,-141.7 411,-163.7 478,-163.7 478,-141.7 411,-141.7"/>
<text text-anchor="start" x="413.9365" y="-149.4" font-family="Helvetica,sans-Serif" font-size="11.00" fill="#000000">varchar[255]</text>
<polygon fill="#ffffff" stroke="transparent" points="196,-122.7 196,-141.7 308,-141.7 308,-122.7 196,-122.7"/>
<polygon fill="none" stroke="#000000" points="196,-122.7 196,-141.7 308,-141.7 308,-122.7 196,-122.7"/>
<text text-anchor="start" x="199" y="-128.8" font-family="Helvetica,sans-Serif" font-size="11.00" fill="#000000">&lt; 1</text>
<polygon fill="#ffffff" stroke="transparent" points="308,-122.7 308,-141.7 411,-141.7 411,-122.7 308,-122.7"/>
<polygon fill="none" stroke="#000000" points="308,-122.7 308,-141.7 411,-141.7 411,-122.7 308,-122.7"/>
<text text-anchor="start" x="401.8862" y="-128.8" font-family="Helvetica,sans-Serif" font-size="11.00" fill="#000000"> &#160;</text>
<polygon fill="#ffffff" stroke="transparent" points="411,-122.7 411,-141.7 478,-141.7 478,-122.7 411,-122.7"/>
<polygon fill="none" stroke="#000000" points="411,-122.7 411,-141.7 478,-141.7 478,-122.7 411,-122.7"/>
<text text-anchor="start" x="459.4053" y="-128.8" font-family="Helvetica,sans-Serif" font-size="11.00" fill="#000000">0 &gt;</text>
<polygon fill="none" stroke="#000000" stroke-width="2" points="195,-121.7 195,-275.7 479,-275.7 479,-121.7 195,-121.7"/>
</a>
</g>
</g>
<!-- opportunities -->
<g id="node2" class="node">
<title>opportunities</title>
<g id="a_node2"><a xlink:href="../../tables/opportunities.html" xlink:title="opportunities" target="_top">
<polygon fill="#ffffff" stroke="transparent" points="8,-38.2 8,-275.2 145,-275.2 145,-38.2 8,-38.2"/>
<polygon fill="#f5f5f5" stroke="transparent" points="8.5,-251.7 8.5,-274.7 145.5,-274.7 145.5,-251.7 8.5,-251.7"/>
<polygon fill="none" stroke="#000000" points="8.5,-251.7 8.5,-274.7 145.5,-274.7 145.5,-251.7 8.5,-251.7"/>
<text text-anchor="start" x="13.5" y="-260.8" font-family="Helvetica,sans-Serif" font-weight="bold" font-size="11.00" fill="#000000">opportunities</text>
<text text-anchor="start" x="110.5437" y="-259.8" font-family="Helvetica,sans-Serif" font-size="11.00" fill="#000000">[table]</text>
<polygon fill="none" stroke="#000000" points="8.5,-229.7 8.5,-251.7 145.5,-251.7 145.5,-229.7 8.5,-229.7"/>
<image xlink:href="../../images/primaryKeys.png" width="11px" height="12px" preserveAspectRatio="xMinYMin meet" x="13.5" y="-246.7"/>
<text text-anchor="start" x="28.5" y="-236.8" font-family="Helvetica,sans-Serif" font-size="11.00" fill="#000000">id</text>
<polygon fill="#ffffff" stroke="transparent" points="8.5,-207.7 8.5,-229.7 145.5,-229.7 145.5,-207.7 8.5,-207.7"/>
<polygon fill="none" stroke="#000000" points="8.5,-207.7 8.5,-229.7 145.5,-229.7 145.5,-207.7 8.5,-207.7"/>
<text text-anchor="start" x="28.5" y="-214.8" font-family="Helvetica,sans-Serif" font-size="11.00" fill="#000000">name</text>
<polygon fill="#c0c0c0" stroke="transparent" points="8.5,-185.7 8.5,-207.7 145.5,-207.7 145.5,-185.7 8.5,-185.7"/>
<polygon fill="none" stroke="#000000" points="8.5,-185.7 8.5,-207.7 145.5,-207.7 145.5,-185.7 8.5,-185.7"/>
<image xlink:href="../../images/foreignKeys.png" width="11px" height="12px" preserveAspectRatio="xMinYMin meet" x="13.5" y="-202.7"/>
<text text-anchor="start" x="28.5" y="-192.8" font-family="Helvetica,sans-Serif" font-size="11.00" fill="#000000">modified_user_id</text>
<polygon fill="#c0c0c0" stroke="transparent" points="8.5,-163.7 8.5,-185.7 145.5,-185.7 145.5,-163.7 8.5,-163.7"/>
<polygon fill="none" stroke="#000000" points="8.5,-163.7 8.5,-185.7 145.5,-185.7 145.5,-163.7 8.5,-163.7"/>
<image xlink:href="../../images/foreignKeys.png" width="11px" height="12px" preserveAspectRatio="xMinYMin meet" x="13.5" y="-180.7"/>
<text text-anchor="start" x="28.5" y="-170.8" font-family="Helvetica,sans-Serif" font-size="11.00" fill="#000000">created_by</text>
<polygon fill="#ffffff" stroke="transparent" points="8.5,-141.7 8.5,-163.7 145.5,-163.7 145.5,-141.7 8.5,-141.7"/>
<polygon fill="none" stroke="#000000" points="8.5,-141.7 8.5,-163.7 145.5,-163.7 145.5,-141.7 8.5,-141.7"/>
<text text-anchor="start" x="28.5" y="-148.8" font-family="Helvetica,sans-Serif" font-size="11.00" fill="#000000">deleted</text>
<polygon fill="#c0c0c0" stroke="transparent" points="8.5,-119.7 8.5,-141.7 145.5,-141.7 145.5,-119.7 8.5,-119.7"/>
<polygon fill="none" stroke="#000000" points="8.5,-119.7 8.5,-141.7 145.5,-141.7 145.5,-119.7 8.5,-119.7"/>
<image xlink:href="../../images/foreignKeys.png" width="11px" height="12px" preserveAspectRatio="xMinYMin meet" x="13.5" y="-136.7"/>
<text text-anchor="start" x="28.5" y="-126.8" font-family="Helvetica,sans-Serif" font-size="11.00" fill="#000000">assigned_user_id</text>
<polygon fill="none" stroke="#000000" points="8.5,-97.7 8.5,-119.7 145.5,-119.7 145.5,-97.7 8.5,-97.7"/>
<image xlink:href="../../images/foreignKeys.png" width="11px" height="12px" preserveAspectRatio="xMinYMin meet" x="13.5" y="-114.7"/>
<text text-anchor="start" x="28.5" y="-104.8" font-family="Helvetica,sans-Serif" font-size="11.00" fill="#000000">campaign_id</text>
<polygon fill="none" stroke="#000000" points="8.5,-75.7 8.5,-97.7 145.5,-97.7 145.5,-75.7 8.5,-75.7"/>
<image xlink:href="../../images/primaryKeys.png" width="11px" height="12px" preserveAspectRatio="xMinYMin meet" x="13.5" y="-92.7"/>
<text text-anchor="start" x="28.5" y="-82.8" font-family="Helvetica,sans-Serif" font-size="11.00" fill="#000000">currency_id</text>
<polygon fill="none" stroke="#000000" points="8.5,-56.7 8.5,-75.7 145.5,-75.7 145.5,-56.7 8.5,-56.7"/>
<text text-anchor="start" x="11.5" y="-62.8" font-family="Helvetica,sans-Serif" font-size="11.00" fill="#000000">...</text>
<polygon fill="#ffffff" stroke="transparent" points="8.5,-37.7 8.5,-56.7 67.5,-56.7 67.5,-37.7 8.5,-37.7"/>
<polygon fill="none" stroke="#000000" points="8.5,-37.7 8.5,-56.7 67.5,-56.7 67.5,-37.7 8.5,-37.7"/>
<text text-anchor="start" x="11.5" y="-43.8" font-family="Helvetica,sans-Serif" font-size="11.00" fill="#000000">&lt; 6</text>
<polygon fill="#ffffff" stroke="transparent" points="67.5,-37.7 67.5,-56.7 98.5,-56.7 98.5,-37.7 67.5,-37.7"/>
<polygon fill="none" stroke="#000000" points="67.5,-37.7 67.5,-56.7 98.5,-56.7 98.5,-37.7 67.5,-37.7"/>
<text text-anchor="start" x="89.3862" y="-43.8" font-family="Helvetica,sans-Serif" font-size="11.00" fill="#000000"> &#160;</text>
<polygon fill="#ffffff" stroke="transparent" points="98.5,-37.7 98.5,-56.7 145.5,-56.7 145.5,-37.7 98.5,-37.7"/>
<polygon fill="none" stroke="#000000" points="98.5,-37.7 98.5,-56.7 145.5,-56.7 145.5,-37.7 98.5,-37.7"/>
<text text-anchor="start" x="120.7904" y="-43.8" font-family="Helvetica,sans-Serif" font-size="11.00" fill="#000000">17 &gt;</text>
</a>
</g>
</g>
<!-- opportunities_cstm&#45;&gt;opportunities -->
<g id="edge1" class="edge">
<title>opportunities_cstm:w&#45;&gt;opportunities:e</title>
<path fill="none" stroke="#000000" d="M185.3362,-240.7C170.9956,-240.7 163.9115,-240.7 145.5,-240.7"/>
<polygon fill="#000000" stroke="#000000" points="195.2,-236.7 195.2,-244.7 193.6,-244.7 193.6,-236.7 195.2,-236.7"/>
<polyline fill="none" stroke="#000000" points="196,-240.7 192,-240.7 "/>
<ellipse fill="none" stroke="#000000" cx="188.8" cy="-240.7001" rx="3.2" ry="3.2"/>
</g>
</g>
</svg>
