<?xml version="1.0" encoding="UTF-8" standalone="no"?>
<!DOCTYPE svg PUBLIC "-//W3C//DTD SVG 1.1//EN"
 "http://www.w3.org/Graphics/SVG/1.1/DTD/svg11.dtd">
<!-- Generated by graphviz version 2.40.1 (20161225.0304)
 -->
<!-- Title: twoDegreesRelationshipsDiagram Pages: 1 -->
<svg width="1420pt" height="1228pt"
 viewBox="0.00 0.00 1420.00 1228.20" xmlns="http://www.w3.org/2000/svg" xmlns:xlink="http://www.w3.org/1999/xlink">
<g id="graph0" class="graph" transform="scale(1 1) rotate(0) translate(4 1224.2)">
<title>twoDegreesRelationshipsDiagram</title>
<polygon fill="#ffffff" stroke="transparent" points="-4,4 -4,-1224.2 1416,-1224.2 1416,4 -4,4"/>
<text text-anchor="middle" x="72.4936" y="-7.3" font-family="Helvetica,sans-Serif" font-size="11.00" fill="#000000">Generated by SchemaSpy</text>
<!-- accounts_opportunities -->
<g id="node1" class="node">
<title>accounts_opportunities</title>
<g id="a_node1"><a xlink:href="../../tables/accounts_opportunities.html" xlink:title="accounts_opportunities" target="_top">
<polygon fill="#ffffff" stroke="transparent" points="682,-494.7 682,-555.7 838,-555.7 838,-494.7 682,-494.7"/>
<polygon fill="#f5f5f5" stroke="transparent" points="682,-532.2 682,-555.2 838,-555.2 838,-532.2 682,-532.2"/>
<polygon fill="none" stroke="#000000" points="682,-532.2 682,-555.2 838,-555.2 838,-532.2 682,-532.2"/>
<text text-anchor="start" x="686.9534" y="-541.3" font-family="Helvetica,sans-Serif" font-weight="bold" font-size="11.00" fill="#000000">accounts_opportunities</text>
<text text-anchor="start" x="803.5219" y="-540.3" font-family="Helvetica,sans-Serif" font-size="11.00" fill="#000000">[table]</text>
<polygon fill="none" stroke="#000000" points="682,-513.2 682,-532.2 838,-532.2 838,-513.2 682,-513.2"/>
<text text-anchor="start" x="685" y="-519.3" font-family="Helvetica,sans-Serif" font-size="11.00" fill="#000000">...</text>
<polygon fill="#ffffff" stroke="transparent" points="682,-494.2 682,-513.2 758,-513.2 758,-494.2 682,-494.2"/>
<polygon fill="none" stroke="#000000" points="682,-494.2 682,-513.2 758,-513.2 758,-494.2 682,-494.2"/>
<text text-anchor="start" x="685" y="-500.3" font-family="Helvetica,sans-Serif" font-size="11.00" fill="#000000">&lt; 2</text>
<polygon fill="#ffffff" stroke="transparent" points="758,-494.2 758,-513.2 798,-513.2 798,-494.2 758,-494.2"/>
<polygon fill="none" stroke="#000000" points="758,-494.2 758,-513.2 798,-513.2 798,-494.2 758,-494.2"/>
<text text-anchor="start" x="788.8862" y="-500.3" font-family="Helvetica,sans-Serif" font-size="11.00" fill="#000000"> &#160;</text>
<polygon fill="#ffffff" stroke="transparent" points="798,-494.2 798,-513.2 838,-513.2 838,-494.2 798,-494.2"/>
<polygon fill="none" stroke="#000000" points="798,-494.2 798,-513.2 838,-513.2 838,-494.2 798,-494.2"/>
<text text-anchor="start" x="828.8862" y="-500.3" font-family="Helvetica,sans-Serif" font-size="11.00" fill="#000000"> &#160;</text>
</a>
</g>
</g>
<!-- opportunities -->
<g id="node2" class="node">
<title>opportunities</title>
<g id="a_node2"><a xlink:href="../../tables/opportunities.html" xlink:title="opportunities" target="_top">
<polygon fill="#ffffff" stroke="transparent" points="431,-303.7 431,-540.7 568,-540.7 568,-303.7 431,-303.7"/>
<polygon fill="#f5f5f5" stroke="transparent" points="431.5,-517.2 431.5,-540.2 568.5,-540.2 568.5,-517.2 431.5,-517.2"/>
<polygon fill="none" stroke="#000000" points="431.5,-517.2 431.5,-540.2 568.5,-540.2 568.5,-517.2 431.5,-517.2"/>
<text text-anchor="start" x="436.5" y="-526.3" font-family="Helvetica,sans-Serif" font-weight="bold" font-size="11.00" fill="#000000">opportunities</text>
<text text-anchor="start" x="533.5437" y="-525.3" font-family="Helvetica,sans-Serif" font-size="11.00" fill="#000000">[table]</text>
<polygon fill="none" stroke="#000000" points="431.5,-495.2 431.5,-517.2 568.5,-517.2 568.5,-495.2 431.5,-495.2"/>
<image xlink:href="../../images/primaryKeys.png" width="11px" height="12px" preserveAspectRatio="xMinYMin meet" x="436.5" y="-512.2"/>
<text text-anchor="start" x="451.5" y="-502.3" font-family="Helvetica,sans-Serif" font-size="11.00" fill="#000000">id</text>
<polygon fill="#ffffff" stroke="transparent" points="431.5,-473.2 431.5,-495.2 568.5,-495.2 568.5,-473.2 431.5,-473.2"/>
<polygon fill="none" stroke="#000000" points="431.5,-473.2 431.5,-495.2 568.5,-495.2 568.5,-473.2 431.5,-473.2"/>
<text text-anchor="start" x="451.5" y="-480.3" font-family="Helvetica,sans-Serif" font-size="11.00" fill="#000000">name</text>
<polygon fill="#c0c0c0" stroke="transparent" points="431.5,-451.2 431.5,-473.2 568.5,-473.2 568.5,-451.2 431.5,-451.2"/>
<polygon fill="none" stroke="#000000" points="431.5,-451.2 431.5,-473.2 568.5,-473.2 568.5,-451.2 431.5,-451.2"/>
<image xlink:href="../../images/foreignKeys.png" width="11px" height="12px" preserveAspectRatio="xMinYMin meet" x="436.5" y="-468.2"/>
<text text-anchor="start" x="451.5" y="-458.3" font-family="Helvetica,sans-Serif" font-size="11.00" fill="#000000">modified_user_id</text>
<polygon fill="#c0c0c0" stroke="transparent" points="431.5,-429.2 431.5,-451.2 568.5,-451.2 568.5,-429.2 431.5,-429.2"/>
<polygon fill="none" stroke="#000000" points="431.5,-429.2 431.5,-451.2 568.5,-451.2 568.5,-429.2 431.5,-429.2"/>
<image xlink:href="../../images/foreignKeys.png" width="11px" height="12px" preserveAspectRatio="xMinYMin meet" x="436.5" y="-446.2"/>
<text text-anchor="start" x="451.5" y="-436.3" font-family="Helvetica,sans-Serif" font-size="11.00" fill="#000000">created_by</text>
<polygon fill="#ffffff" stroke="transparent" points="431.5,-407.2 431.5,-429.2 568.5,-429.2 568.5,-407.2 431.5,-407.2"/>
<polygon fill="none" stroke="#000000" points="431.5,-407.2 431.5,-429.2 568.5,-429.2 568.5,-407.2 431.5,-407.2"/>
<text text-anchor="start" x="451.5" y="-414.3" font-family="Helvetica,sans-Serif" font-size="11.00" fill="#000000">deleted</text>
<polygon fill="#c0c0c0" stroke="transparent" points="431.5,-385.2 431.5,-407.2 568.5,-407.2 568.5,-385.2 431.5,-385.2"/>
<polygon fill="none" stroke="#000000" points="431.5,-385.2 431.5,-407.2 568.5,-407.2 568.5,-385.2 431.5,-385.2"/>
<image xlink:href="../../images/foreignKeys.png" width="11px" height="12px" preserveAspectRatio="xMinYMin meet" x="436.5" y="-402.2"/>
<text text-anchor="start" x="451.5" y="-392.3" font-family="Helvetica,sans-Serif" font-size="11.00" fill="#000000">assigned_user_id</text>
<polygon fill="none" stroke="#000000" points="431.5,-363.2 431.5,-385.2 568.5,-385.2 568.5,-363.2 431.5,-363.2"/>
<image xlink:href="../../images/foreignKeys.png" width="11px" height="12px" preserveAspectRatio="xMinYMin meet" x="436.5" y="-380.2"/>
<text text-anchor="start" x="451.5" y="-370.3" font-family="Helvetica,sans-Serif" font-size="11.00" fill="#000000">campaign_id</text>
<polygon fill="none" stroke="#000000" points="431.5,-341.2 431.5,-363.2 568.5,-363.2 568.5,-341.2 431.5,-341.2"/>
<image xlink:href="../../images/primaryKeys.png" width="11px" height="12px" preserveAspectRatio="xMinYMin meet" x="436.5" y="-358.2"/>
<text text-anchor="start" x="451.5" y="-348.3" font-family="Helvetica,sans-Serif" font-size="11.00" fill="#000000">currency_id</text>
<polygon fill="none" stroke="#000000" points="431.5,-322.2 431.5,-341.2 568.5,-341.2 568.5,-322.2 431.5,-322.2"/>
<text text-anchor="start" x="434.5" y="-328.3" font-family="Helvetica,sans-Serif" font-size="11.00" fill="#000000">...</text>
<polygon fill="#ffffff" stroke="transparent" points="431.5,-303.2 431.5,-322.2 490.5,-322.2 490.5,-303.2 431.5,-303.2"/>
<polygon fill="none" stroke="#000000" points="431.5,-303.2 431.5,-322.2 490.5,-322.2 490.5,-303.2 431.5,-303.2"/>
<text text-anchor="start" x="434.5" y="-309.3" font-family="Helvetica,sans-Serif" font-size="11.00" fill="#000000">&lt; 6</text>
<polygon fill="#ffffff" stroke="transparent" points="490.5,-303.2 490.5,-322.2 521.5,-322.2 521.5,-303.2 490.5,-303.2"/>
<polygon fill="none" stroke="#000000" points="490.5,-303.2 490.5,-322.2 521.5,-322.2 521.5,-303.2 490.5,-303.2"/>
<text text-anchor="start" x="512.3862" y="-309.3" font-family="Helvetica,sans-Serif" font-size="11.00" fill="#000000"> &#160;</text>
<polygon fill="#ffffff" stroke="transparent" points="521.5,-303.2 521.5,-322.2 568.5,-322.2 568.5,-303.2 521.5,-303.2"/>
<polygon fill="none" stroke="#000000" points="521.5,-303.2 521.5,-322.2 568.5,-322.2 568.5,-303.2 521.5,-303.2"/>
<text text-anchor="start" x="543.7904" y="-309.3" font-family="Helvetica,sans-Serif" font-size="11.00" fill="#000000">17 &gt;</text>
</a>
</g>
</g>
<!-- accounts_opportunities&#45;&gt;opportunities -->
<g id="edge1" class="edge">
<title>accounts_opportunities:w&#45;&gt;opportunities:e</title>
<path fill="none" stroke="#000000" d="M667.3568,-521.7212C628.231,-519.0589 614.1698,-506.2 568.5,-506.2"/>
<polygon fill="#000000" stroke="#000000" points="674.0043,-521.9385 681.8823,-525.7981 678.0021,-522.0692 682,-522.2 682,-522.2 682,-522.2 678.0021,-522.0692 682.1177,-518.6019 674.0043,-521.9385 674.0043,-521.9385"/>
<ellipse fill="none" stroke="#000000" cx="670.806" cy="-521.8339" rx="3.2" ry="3.2"/>
</g>
<!-- campaign_log -->
<g id="node7" class="node">
<title>campaign_log</title>
<g id="a_node7"><a xlink:href="../../tables/campaign_log.html" xlink:title="campaign_log" target="_top">
<polygon fill="#ffffff" stroke="transparent" points="271,-193.7 271,-254.7 382,-254.7 382,-193.7 271,-193.7"/>
<polygon fill="#f5f5f5" stroke="transparent" points="271.5,-231.2 271.5,-254.2 382.5,-254.2 382.5,-231.2 271.5,-231.2"/>
<polygon fill="none" stroke="#000000" points="271.5,-231.2 271.5,-254.2 382.5,-254.2 382.5,-231.2 271.5,-231.2"/>
<text text-anchor="start" x="276.2686" y="-240.3" font-family="Helvetica,sans-Serif" font-weight="bold" font-size="11.00" fill="#000000">campaign_log</text>
<text text-anchor="start" x="348.0219" y="-239.3" font-family="Helvetica,sans-Serif" font-size="11.00" fill="#000000">[table]</text>
<polygon fill="none" stroke="#000000" points="271.5,-212.2 271.5,-231.2 382.5,-231.2 382.5,-212.2 271.5,-212.2"/>
<text text-anchor="start" x="274.5" y="-218.3" font-family="Helvetica,sans-Serif" font-size="11.00" fill="#000000">...</text>
<polygon fill="#ffffff" stroke="transparent" points="271.5,-193.2 271.5,-212.2 320.5,-212.2 320.5,-193.2 271.5,-193.2"/>
<polygon fill="none" stroke="#000000" points="271.5,-193.2 271.5,-212.2 320.5,-212.2 320.5,-193.2 271.5,-193.2"/>
<text text-anchor="start" x="274.5" y="-199.3" font-family="Helvetica,sans-Serif" font-size="11.00" fill="#000000">&lt; 5</text>
<polygon fill="#ffffff" stroke="transparent" points="320.5,-193.2 320.5,-212.2 346.5,-212.2 346.5,-193.2 320.5,-193.2"/>
<polygon fill="none" stroke="#000000" points="320.5,-193.2 320.5,-212.2 346.5,-212.2 346.5,-193.2 320.5,-193.2"/>
<text text-anchor="start" x="337.3862" y="-199.3" font-family="Helvetica,sans-Serif" font-size="11.00" fill="#000000"> &#160;</text>
<polygon fill="#ffffff" stroke="transparent" points="346.5,-193.2 346.5,-212.2 382.5,-212.2 382.5,-193.2 346.5,-193.2"/>
<polygon fill="none" stroke="#000000" points="346.5,-193.2 346.5,-212.2 382.5,-212.2 382.5,-193.2 346.5,-193.2"/>
<text text-anchor="start" x="363.9053" y="-199.3" font-family="Helvetica,sans-Serif" font-size="11.00" fill="#000000">5 &gt;</text>
</a>
</g>
</g>
<!-- opportunities&#45;&gt;campaign_log -->
<g id="edge36" class="edge">
<title>opportunities:w&#45;&gt;campaign_log:e</title>
<path fill="none" stroke="#000000" d="M421.3448,-503.1922C376.3403,-472.7331 442.8717,-221.2 382.5,-221.2"/>
<polygon fill="#000000" stroke="#000000" points="431.8689,-502.1375 429.5969,-509.8081 428.0628,-509.3537 430.3348,-501.6831 431.8689,-502.1375"/>
<polyline fill="none" stroke="#000000" points="431.5,-506.2 427.6647,-505.064 "/>
<ellipse fill="none" stroke="#000000" cx="424.5964" cy="-504.1552" rx="3.2" ry="3.2"/>
</g>
<!-- campaigns -->
<g id="node8" class="node">
<title>campaigns</title>
<g id="a_node8"><a xlink:href="../../tables/campaigns.html" xlink:title="campaigns" target="_top">
<polygon fill="#ffffff" stroke="transparent" points="8,-80.7 8,-141.7 104,-141.7 104,-80.7 8,-80.7"/>
<polygon fill="#f5f5f5" stroke="transparent" points="8,-118.2 8,-141.2 104,-141.2 104,-118.2 8,-118.2"/>
<polygon fill="none" stroke="#000000" points="8,-118.2 8,-141.2 104,-141.2 104,-118.2 8,-118.2"/>
<text text-anchor="start" x="12.9114" y="-127.3" font-family="Helvetica,sans-Serif" font-weight="bold" font-size="11.00" fill="#000000">campaigns</text>
<text text-anchor="start" x="69.5219" y="-126.3" font-family="Helvetica,sans-Serif" font-size="11.00" fill="#000000">[table]</text>
<polygon fill="none" stroke="#000000" points="8,-99.2 8,-118.2 104,-118.2 104,-99.2 8,-99.2"/>
<text text-anchor="start" x="11" y="-105.3" font-family="Helvetica,sans-Serif" font-size="11.00" fill="#000000">...</text>
<polygon fill="#ffffff" stroke="transparent" points="8,-80.2 8,-99.2 47,-99.2 47,-80.2 8,-80.2"/>
<polygon fill="none" stroke="#000000" points="8,-80.2 8,-99.2 47,-99.2 47,-80.2 8,-80.2"/>
<text text-anchor="start" x="11" y="-86.3" font-family="Helvetica,sans-Serif" font-size="11.00" fill="#000000">&lt; 4</text>
<polygon fill="#ffffff" stroke="transparent" points="47,-80.2 47,-99.2 68,-99.2 68,-80.2 47,-80.2"/>
<polygon fill="none" stroke="#000000" points="47,-80.2 47,-99.2 68,-99.2 68,-80.2 47,-80.2"/>
<text text-anchor="start" x="58.8862" y="-86.3" font-family="Helvetica,sans-Serif" font-size="11.00" fill="#000000"> &#160;</text>
<polygon fill="#ffffff" stroke="transparent" points="68,-80.2 68,-99.2 104,-99.2 104,-80.2 68,-80.2"/>
<polygon fill="none" stroke="#000000" points="68,-80.2 68,-99.2 104,-99.2 104,-80.2 68,-80.2"/>
<text text-anchor="start" x="79.2904" y="-86.3" font-family="Helvetica,sans-Serif" font-size="11.00" fill="#000000">13 &gt;</text>
</a>
</g>
</g>
<!-- opportunities&#45;&gt;campaigns -->
<g id="edge35" class="edge">
<title>opportunities:w&#45;&gt;campaigns:e</title>
<path fill="none" stroke="#000000" d="M416.9534,-372.6987C357.0134,-358.4069 442.154,-245.5286 390,-183.2 305.6704,-82.4187 235.4091,-108.2 104,-108.2"/>
<polygon fill="#000000" stroke="#000000" points="423.5423,-373.3787 431.1304,-377.781 427.5211,-373.7893 431.5,-374.2 431.5,-374.2 431.5,-374.2 427.5211,-373.7893 431.8696,-370.619 423.5423,-373.3787 423.5423,-373.3787"/>
<ellipse fill="none" stroke="#000000" cx="420.3592" cy="-373.0501" rx="3.2" ry="3.2"/>
</g>
<!-- jjwg_maps -->
<g id="node15" class="node">
<title>jjwg_maps</title>
<g id="a_node15"><a xlink:href="../../tables/jjwg_maps.html" xlink:title="jjwg_maps" target="_top">
<polygon fill="#ffffff" stroke="transparent" points="9,-849.7 9,-910.7 103,-910.7 103,-849.7 9,-849.7"/>
<polygon fill="#f5f5f5" stroke="transparent" points="9,-887.2 9,-910.2 103,-910.2 103,-887.2 9,-887.2"/>
<polygon fill="none" stroke="#000000" points="9,-887.2 9,-910.2 103,-910.2 103,-887.2 9,-887.2"/>
<text text-anchor="start" x="13.5279" y="-896.3" font-family="Helvetica,sans-Serif" font-weight="bold" font-size="11.00" fill="#000000">jjwg_maps</text>
<text text-anchor="start" x="68.5219" y="-895.3" font-family="Helvetica,sans-Serif" font-size="11.00" fill="#000000">[table]</text>
<polygon fill="none" stroke="#000000" points="9,-868.2 9,-887.2 103,-887.2 103,-868.2 9,-868.2"/>
<text text-anchor="start" x="12" y="-874.3" font-family="Helvetica,sans-Serif" font-size="11.00" fill="#000000">...</text>
<polygon fill="#ffffff" stroke="transparent" points="9,-849.2 9,-868.2 47,-868.2 47,-849.2 9,-849.2"/>
<polygon fill="none" stroke="#000000" points="9,-849.2 9,-868.2 47,-868.2 47,-849.2 9,-849.2"/>
<text text-anchor="start" x="12" y="-855.3" font-family="Helvetica,sans-Serif" font-size="11.00" fill="#000000">&lt; 3</text>
<polygon fill="#ffffff" stroke="transparent" points="47,-849.2 47,-868.2 67,-868.2 67,-849.2 47,-849.2"/>
<polygon fill="none" stroke="#000000" points="47,-849.2 47,-868.2 67,-868.2 67,-849.2 47,-849.2"/>
<text text-anchor="start" x="57.8862" y="-855.3" font-family="Helvetica,sans-Serif" font-size="11.00" fill="#000000"> &#160;</text>
<polygon fill="#ffffff" stroke="transparent" points="67,-849.2 67,-868.2 103,-868.2 103,-849.2 67,-849.2"/>
<polygon fill="none" stroke="#000000" points="67,-849.2 67,-868.2 103,-868.2 103,-849.2 67,-849.2"/>
<text text-anchor="start" x="78.2904" y="-855.3" font-family="Helvetica,sans-Serif" font-size="11.00" fill="#000000">12 &gt;</text>
</a>
</g>
</g>
<!-- opportunities&#45;&gt;jjwg_maps -->
<g id="edge37" class="edge">
<title>opportunities:w&#45;&gt;jjwg_maps:e</title>
<path fill="none" stroke="#000000" d="M420.8028,-506.5034C214.8893,-518.4161 319.5807,-877.2 103,-877.2"/>
<polygon fill="#000000" stroke="#000000" points="430.5869,-502.2243 430.8137,-510.2211 429.2144,-510.2664 428.9875,-502.2697 430.5869,-502.2243"/>
<polyline fill="none" stroke="#000000" points="431.5,-506.2 427.5016,-506.3134 "/>
<ellipse fill="none" stroke="#000000" cx="424.3029" cy="-506.4042" rx="3.2" ry="3.2"/>
</g>
<!-- aos_contracts -->
<g id="node3" class="node">
<title>aos_contracts</title>
<g id="a_node3"><a xlink:href="../../tables/aos_contracts.html" xlink:title="aos_contracts" target="_top">
<polygon fill="#ffffff" stroke="transparent" points="704.5,-658.7 704.5,-719.7 815.5,-719.7 815.5,-658.7 704.5,-658.7"/>
<polygon fill="#f5f5f5" stroke="transparent" points="705,-696.2 705,-719.2 816,-719.2 816,-696.2 705,-696.2"/>
<polygon fill="none" stroke="#000000" points="705,-696.2 705,-719.2 816,-719.2 816,-696.2 705,-696.2"/>
<text text-anchor="start" x="709.7675" y="-705.3" font-family="Helvetica,sans-Serif" font-weight="bold" font-size="11.00" fill="#000000">aos_contracts</text>
<text text-anchor="start" x="781.5219" y="-704.3" font-family="Helvetica,sans-Serif" font-size="11.00" fill="#000000">[table]</text>
<polygon fill="none" stroke="#000000" points="705,-677.2 705,-696.2 816,-696.2 816,-677.2 705,-677.2"/>
<text text-anchor="start" x="708" y="-683.3" font-family="Helvetica,sans-Serif" font-size="11.00" fill="#000000">...</text>
<polygon fill="#ffffff" stroke="transparent" points="705,-658.2 705,-677.2 751,-677.2 751,-658.2 705,-658.2"/>
<polygon fill="none" stroke="#000000" points="705,-658.2 705,-677.2 751,-677.2 751,-658.2 705,-658.2"/>
<text text-anchor="start" x="708" y="-664.3" font-family="Helvetica,sans-Serif" font-size="11.00" fill="#000000">&lt; 6</text>
<polygon fill="#ffffff" stroke="transparent" points="751,-658.2 751,-677.2 776,-677.2 776,-658.2 751,-658.2"/>
<polygon fill="none" stroke="#000000" points="751,-658.2 751,-677.2 776,-677.2 776,-658.2 751,-658.2"/>
<text text-anchor="start" x="766.8862" y="-664.3" font-family="Helvetica,sans-Serif" font-size="11.00" fill="#000000"> &#160;</text>
<polygon fill="#ffffff" stroke="transparent" points="776,-658.2 776,-677.2 816,-677.2 816,-658.2 776,-658.2"/>
<polygon fill="none" stroke="#000000" points="776,-658.2 776,-677.2 816,-677.2 816,-658.2 776,-658.2"/>
<text text-anchor="start" x="791.2904" y="-664.3" font-family="Helvetica,sans-Serif" font-size="11.00" fill="#000000">11 &gt;</text>
</a>
</g>
</g>
<!-- aos_contracts&#45;&gt;opportunities -->
<g id="edge2" class="edge">
<title>aos_contracts:w&#45;&gt;opportunities:e</title>
<path fill="none" stroke="#000000" d="M690.3732,-686.0087C654.5897,-684.9117 636.3118,-678.3612 609,-648.2 564.9489,-599.5532 634.1278,-506.2 568.5,-506.2"/>
<polygon fill="#000000" stroke="#000000" points="697.0007,-686.0953 704.9529,-689.7997 701.0003,-686.1477 705,-686.2 705,-686.2 705,-686.2 701.0003,-686.1477 705.0471,-682.6003 697.0007,-686.0953 697.0007,-686.0953"/>
<ellipse fill="none" stroke="#000000" cx="693.801" cy="-686.0535" rx="3.2" ry="3.2"/>
</g>
<!-- aos_quotes -->
<g id="node4" class="node">
<title>aos_quotes</title>
<g id="a_node4"><a xlink:href="../../tables/aos_quotes.html" xlink:title="aos_quotes" target="_top">
<polygon fill="#ffffff" stroke="transparent" points="1093.5,-272.7 1093.5,-333.7 1192.5,-333.7 1192.5,-272.7 1093.5,-272.7"/>
<polygon fill="#f5f5f5" stroke="transparent" points="1094,-310.2 1094,-333.2 1193,-333.2 1193,-310.2 1094,-310.2"/>
<polygon fill="none" stroke="#000000" points="1094,-310.2 1094,-333.2 1193,-333.2 1193,-310.2 1094,-310.2"/>
<text text-anchor="start" x="1098.5694" y="-319.3" font-family="Helvetica,sans-Serif" font-weight="bold" font-size="11.00" fill="#000000">aos_quotes</text>
<text text-anchor="start" x="1158.5219" y="-318.3" font-family="Helvetica,sans-Serif" font-size="11.00" fill="#000000">[table]</text>
<polygon fill="none" stroke="#000000" points="1094,-291.2 1094,-310.2 1193,-310.2 1193,-291.2 1094,-291.2"/>
<text text-anchor="start" x="1097" y="-297.3" font-family="Helvetica,sans-Serif" font-size="11.00" fill="#000000">...</text>
<polygon fill="#ffffff" stroke="transparent" points="1094,-272.2 1094,-291.2 1137,-291.2 1137,-272.2 1094,-272.2"/>
<polygon fill="none" stroke="#000000" points="1094,-272.2 1094,-291.2 1137,-291.2 1137,-272.2 1094,-272.2"/>
<text text-anchor="start" x="1097" y="-278.3" font-family="Helvetica,sans-Serif" font-size="11.00" fill="#000000">&lt; 6</text>
<polygon fill="#ffffff" stroke="transparent" points="1137,-272.2 1137,-291.2 1160,-291.2 1160,-272.2 1137,-272.2"/>
<polygon fill="none" stroke="#000000" points="1137,-272.2 1137,-291.2 1160,-291.2 1160,-272.2 1137,-272.2"/>
<text text-anchor="start" x="1150.8862" y="-278.3" font-family="Helvetica,sans-Serif" font-size="11.00" fill="#000000"> &#160;</text>
<polygon fill="#ffffff" stroke="transparent" points="1160,-272.2 1160,-291.2 1193,-291.2 1193,-272.2 1160,-272.2"/>
<polygon fill="none" stroke="#000000" points="1160,-272.2 1160,-291.2 1193,-291.2 1193,-272.2 1160,-272.2"/>
<text text-anchor="start" x="1174.4053" y="-278.3" font-family="Helvetica,sans-Serif" font-size="11.00" fill="#000000">7 &gt;</text>
</a>
</g>
</g>
<!-- aos_quotes&#45;&gt;opportunities -->
<g id="edge3" class="edge">
<title>aos_quotes:w&#45;&gt;opportunities:e</title>
<path fill="none" stroke="#000000" d="M1079.5661,-300.069C991.2515,-298.8769 647.5971,-290.6775 609,-323.2 545.2979,-376.8764 651.8013,-506.2 568.5,-506.2"/>
<polygon fill="#000000" stroke="#000000" points="1086.0003,-300.1273 1093.9673,-303.7999 1090.0002,-300.1637 1094,-300.2 1094,-300.2 1094,-300.2 1090.0002,-300.1637 1094.0327,-296.6001 1086.0003,-300.1273 1086.0003,-300.1273"/>
<ellipse fill="none" stroke="#000000" cx="1082.8005" cy="-300.0983" rx="3.2" ry="3.2"/>
</g>
<!-- calls -->
<g id="node5" class="node">
<title>calls</title>
<g id="a_node5"><a xlink:href="../../tables/calls.html" xlink:title="calls" target="_top">
<polygon fill="#ffffff" stroke="transparent" points="963.5,-548.7 963.5,-609.7 1027.5,-609.7 1027.5,-548.7 963.5,-548.7"/>
<polygon fill="#f5f5f5" stroke="transparent" points="963.5,-586.2 963.5,-609.2 1027.5,-609.2 1027.5,-586.2 963.5,-586.2"/>
<polygon fill="none" stroke="#000000" points="963.5,-586.2 963.5,-609.2 1027.5,-609.2 1027.5,-586.2 963.5,-586.2"/>
<text text-anchor="start" x="968.0017" y="-595.3" font-family="Helvetica,sans-Serif" font-weight="bold" font-size="11.00" fill="#000000">calls</text>
<text text-anchor="start" x="993.0219" y="-594.3" font-family="Helvetica,sans-Serif" font-size="11.00" fill="#000000">[table]</text>
<polygon fill="none" stroke="#000000" points="963.5,-567.2 963.5,-586.2 1027.5,-586.2 1027.5,-567.2 963.5,-567.2"/>
<text text-anchor="start" x="966.5" y="-573.3" font-family="Helvetica,sans-Serif" font-size="11.00" fill="#000000">...</text>
<polygon fill="#ffffff" stroke="transparent" points="963.5,-548.2 963.5,-567.2 992.5,-567.2 992.5,-548.2 963.5,-548.2"/>
<polygon fill="none" stroke="#000000" points="963.5,-548.2 963.5,-567.2 992.5,-567.2 992.5,-548.2 963.5,-548.2"/>
<text text-anchor="start" x="966.5" y="-554.3" font-family="Helvetica,sans-Serif" font-size="11.00" fill="#000000">&lt; 12</text>
<polygon fill="#ffffff" stroke="transparent" points="992.5,-548.2 992.5,-567.2 1005.5,-567.2 1005.5,-548.2 992.5,-548.2"/>
<polygon fill="none" stroke="#000000" points="992.5,-548.2 992.5,-567.2 1005.5,-567.2 1005.5,-548.2 992.5,-548.2"/>
<text text-anchor="start" x="996.3862" y="-554.3" font-family="Helvetica,sans-Serif" font-size="11.00" fill="#000000"> &#160;</text>
<polygon fill="#ffffff" stroke="transparent" points="1005.5,-548.2 1005.5,-567.2 1027.5,-567.2 1027.5,-548.2 1005.5,-548.2"/>
<polygon fill="none" stroke="#000000" points="1005.5,-548.2 1005.5,-567.2 1027.5,-567.2 1027.5,-548.2 1005.5,-548.2"/>
<text text-anchor="start" x="1008.9053" y="-554.3" font-family="Helvetica,sans-Serif" font-size="11.00" fill="#000000">6 &gt;</text>
</a>
</g>
</g>
<!-- calls&#45;&gt;opportunities -->
<g id="edge6" class="edge">
<title>calls:w&#45;&gt;opportunities:e</title>
<path fill="none" stroke="#000000" d="M949.3974,-573.2166C924.0568,-559.8091 946.6225,-504.8865 911,-484.2 852.9648,-450.4981 674.0445,-467.674 609,-484.2 589.1465,-489.2442 588.9843,-506.2 568.5,-506.2"/>
<polygon fill="#000000" stroke="#000000" points="955.6732,-574.5442 962.7549,-579.722 959.5866,-575.3721 963.5,-576.2 963.5,-576.2 963.5,-576.2 959.5866,-575.3721 964.2451,-572.678 955.6732,-574.5442 955.6732,-574.5442"/>
<ellipse fill="none" stroke="#000000" cx="952.5425" cy="-573.8819" rx="3.2" ry="3.2"/>
</g>
<!-- calls&#45;&gt;aos_contracts -->
<g id="edge4" class="edge">
<title>calls:w&#45;&gt;aos_contracts:e</title>
<path fill="none" stroke="#000000" d="M949.3445,-579.1204C928.2575,-589.845 937.6293,-627.5058 911,-648.2 875.093,-676.1041 861.4747,-686.2 816,-686.2"/>
<polygon fill="#000000" stroke="#000000" points="955.665,-577.8165 964.2274,-579.7257 959.5825,-577.0082 963.5,-576.2 963.5,-576.2 963.5,-576.2 959.5825,-577.0082 962.7726,-572.6743 955.665,-577.8165 955.665,-577.8165"/>
<ellipse fill="none" stroke="#000000" cx="952.531" cy="-578.463" rx="3.2" ry="3.2"/>
</g>
<!-- leads -->
<g id="node6" class="node">
<title>leads</title>
<g id="a_node6"><a xlink:href="../../tables/leads.html" xlink:title="leads" target="_top">
<polygon fill="#ffffff" stroke="transparent" points="153,-336.7 153,-397.7 222,-397.7 222,-336.7 153,-336.7"/>
<polygon fill="#f5f5f5" stroke="transparent" points="153.5,-374.2 153.5,-397.2 222.5,-397.2 222.5,-374.2 153.5,-374.2"/>
<polygon fill="none" stroke="#000000" points="153.5,-374.2 153.5,-397.2 222.5,-397.2 222.5,-374.2 153.5,-374.2"/>
<text text-anchor="start" x="158.3572" y="-383.3" font-family="Helvetica,sans-Serif" font-weight="bold" font-size="11.00" fill="#000000">leads</text>
<text text-anchor="start" x="188.0219" y="-382.3" font-family="Helvetica,sans-Serif" font-size="11.00" fill="#000000">[table]</text>
<polygon fill="none" stroke="#000000" points="153.5,-355.2 153.5,-374.2 222.5,-374.2 222.5,-355.2 153.5,-355.2"/>
<text text-anchor="start" x="156.5" y="-361.3" font-family="Helvetica,sans-Serif" font-size="11.00" fill="#000000">...</text>
<polygon fill="#ffffff" stroke="transparent" points="153.5,-336.2 153.5,-355.2 181.5,-355.2 181.5,-336.2 153.5,-336.2"/>
<polygon fill="none" stroke="#000000" points="153.5,-336.2 153.5,-355.2 181.5,-355.2 181.5,-336.2 153.5,-336.2"/>
<text text-anchor="start" x="156.5" y="-342.3" font-family="Helvetica,sans-Serif" font-size="11.00" fill="#000000">&lt; 10</text>
<polygon fill="#ffffff" stroke="transparent" points="181.5,-336.2 181.5,-355.2 194.5,-355.2 194.5,-336.2 181.5,-336.2"/>
<polygon fill="none" stroke="#000000" points="181.5,-336.2 181.5,-355.2 194.5,-355.2 194.5,-336.2 181.5,-336.2"/>
<text text-anchor="start" x="185.3862" y="-342.3" font-family="Helvetica,sans-Serif" font-size="11.00" fill="#000000"> &#160;</text>
<polygon fill="#ffffff" stroke="transparent" points="194.5,-336.2 194.5,-355.2 222.5,-355.2 222.5,-336.2 194.5,-336.2"/>
<polygon fill="none" stroke="#000000" points="194.5,-336.2 194.5,-355.2 222.5,-355.2 222.5,-336.2 194.5,-336.2"/>
<text text-anchor="start" x="197.7904" y="-342.3" font-family="Helvetica,sans-Serif" font-size="11.00" fill="#000000">17 &gt;</text>
</a>
</g>
</g>
<!-- calls&#45;&gt;leads -->
<g id="edge5" class="edge">
<title>calls:w&#45;&gt;leads:e</title>
<path fill="none" stroke="#000000" d="M948.7588,-574.74C882.9924,-559.8776 973.1428,-435.293 911,-374.2 754.2194,-220.0681 639.6808,-255.9678 423,-293.2 421.5443,-293.4501 223.9771,-364.2 222.5,-364.2"/>
<polygon fill="#000000" stroke="#000000" points="955.539,-575.4115 963.1452,-579.7825 959.5195,-575.8057 963.5,-576.2 963.5,-576.2 963.5,-576.2 959.5195,-575.8057 963.8548,-572.6175 955.539,-575.4115 955.539,-575.4115"/>
<ellipse fill="none" stroke="#000000" cx="952.3545" cy="-575.0961" rx="3.2" ry="3.2"/>
</g>
<!-- leads&#45;&gt;opportunities -->
<g id="edge23" class="edge">
<title>leads:w&#45;&gt;opportunities:e</title>
<path fill="none" stroke="#000000" d="M140.4631,-357.8479C126.8488,-340.2938 144.3531,-294.8484 230,-332.7 346.5448,-384.2069 306.4552,-493.1931 423,-544.7 423,-544.7 568.5,-506.2 568.5,-506.2"/>
<polygon fill="#000000" stroke="#000000" points="146.3082,-360.6959 151.9231,-367.4363 149.9041,-362.4479 153.5,-364.2 153.5,-364.2 153.5,-364.2 149.9041,-362.4479 155.0769,-360.9637 146.3082,-360.6959 146.3082,-360.6959"/>
<ellipse fill="none" stroke="#000000" cx="143.4315" cy="-359.2942" rx="3.2" ry="3.2"/>
</g>
<!-- leads&#45;&gt;campaign_log -->
<g id="edge21" class="edge">
<title>leads:w&#45;&gt;campaign_log:e</title>
<path fill="none" stroke="#000000" d="M144.081,-359.3913C131.0014,-333.157 226.2805,-207.831 263,-189.7 263,-189.7 382.5,-221.2 382.5,-221.2"/>
<polygon fill="#000000" stroke="#000000" points="154.6063,-360.2737 150.9686,-367.3988 149.5436,-366.6713 153.1813,-359.5461 154.6063,-360.2737"/>
<polyline fill="none" stroke="#000000" points="153.5,-364.2 149.9374,-362.3812 "/>
<ellipse fill="none" stroke="#000000" cx="147.0874" cy="-360.9261" rx="3.2" ry="3.2"/>
</g>
<!-- leads&#45;&gt;campaigns -->
<g id="edge20" class="edge">
<title>leads:w&#45;&gt;campaigns:e</title>
<path fill="none" stroke="#000000" d="M139.1076,-362.5652C54.0475,-340.7625 214.4531,-108.2 104,-108.2"/>
<polygon fill="#000000" stroke="#000000" points="145.5511,-363.2971 153.0937,-367.777 149.5256,-363.7485 153.5,-364.2 153.5,-364.2 153.5,-364.2 149.5256,-363.7485 153.9063,-360.623 145.5511,-363.2971 145.5511,-363.2971"/>
<ellipse fill="none" stroke="#000000" cx="142.3716" cy="-362.9359" rx="3.2" ry="3.2"/>
</g>
<!-- leads&#45;&gt;jjwg_maps -->
<g id="edge22" class="edge">
<title>leads:w&#45;&gt;jjwg_maps:e</title>
<path fill="none" stroke="#000000" d="M143.0377,-365.8591C50.4861,-397.7009 213.7476,-877.2 103,-877.2"/>
<polygon fill="#000000" stroke="#000000" points="152.0833,-360.3747 153.3364,-368.2759 151.7561,-368.5265 150.5031,-360.6253 152.0833,-360.3747"/>
<polyline fill="none" stroke="#000000" points="153.5,-364.2 149.5494,-364.8265 "/>
<ellipse fill="none" stroke="#000000" cx="146.3889" cy="-365.3277" rx="3.2" ry="3.2"/>
</g>
<!-- campaign_log&#45;&gt;leads -->
<g id="edge8" class="edge">
<title>campaign_log:w&#45;&gt;leads:e</title>
<path fill="none" stroke="#000000" d="M257.3655,-224.1868C217.8625,-244.722 283.9096,-364.2 222.5,-364.2"/>
<polygon fill="#000000" stroke="#000000" points="263.6728,-222.854 272.2443,-224.7222 267.5864,-222.027 271.5,-221.2 271.5,-221.2 271.5,-221.2 267.5864,-222.027 270.7557,-217.6778 263.6728,-222.854 263.6728,-222.854"/>
<ellipse fill="none" stroke="#000000" cx="260.542" cy="-223.5156" rx="3.2" ry="3.2"/>
</g>
<!-- campaign_log&#45;&gt;campaigns -->
<g id="edge7" class="edge">
<title>campaign_log:w&#45;&gt;campaigns:e</title>
<path fill="none" stroke="#000000" d="M256.7232,-220.0816C182.7672,-208.3458 188.5394,-108.2 104,-108.2"/>
<polygon fill="#000000" stroke="#000000" points="263.5228,-220.5962 271.2283,-224.7897 267.5114,-220.8981 271.5,-221.2 271.5,-221.2 271.5,-221.2 267.5114,-220.8981 271.7717,-217.6103 263.5228,-220.5962 263.5228,-220.5962"/>
<ellipse fill="none" stroke="#000000" cx="260.3319" cy="-220.3547" rx="3.2" ry="3.2"/>
</g>
<!-- currencies -->
<g id="node9" class="node">
<title>currencies</title>
<g id="a_node9"><a xlink:href="../../tables/currencies.html" xlink:title="currencies" target="_top">
<polygon fill="#ffffff" stroke="transparent" points="713.5,-166.7 713.5,-227.7 806.5,-227.7 806.5,-166.7 713.5,-166.7"/>
<polygon fill="#f5f5f5" stroke="transparent" points="714,-204.2 714,-227.2 807,-227.2 807,-204.2 714,-204.2"/>
<polygon fill="none" stroke="#000000" points="714,-204.2 714,-227.2 807,-227.2 807,-204.2 714,-204.2"/>
<text text-anchor="start" x="718.6379" y="-213.3" font-family="Helvetica,sans-Serif" font-weight="bold" font-size="11.00" fill="#000000">currencies</text>
<text text-anchor="start" x="772.5219" y="-212.3" font-family="Helvetica,sans-Serif" font-size="11.00" fill="#000000">[table]</text>
<polygon fill="none" stroke="#000000" points="714,-185.2 714,-204.2 807,-204.2 807,-185.2 714,-185.2"/>
<text text-anchor="start" x="717" y="-191.3" font-family="Helvetica,sans-Serif" font-size="11.00" fill="#000000">...</text>
<polygon fill="#ffffff" stroke="transparent" points="714,-166.2 714,-185.2 759,-185.2 759,-166.2 714,-166.2"/>
<polygon fill="none" stroke="#000000" points="714,-166.2 714,-185.2 759,-185.2 759,-166.2 714,-166.2"/>
<text text-anchor="start" x="717" y="-172.3" font-family="Helvetica,sans-Serif" font-size="11.00" fill="#000000">&lt; 1</text>
<polygon fill="#ffffff" stroke="transparent" points="759,-166.2 759,-185.2 783,-185.2 783,-166.2 759,-166.2"/>
<polygon fill="none" stroke="#000000" points="759,-166.2 759,-185.2 783,-185.2 783,-166.2 759,-166.2"/>
<text text-anchor="start" x="773.8862" y="-172.3" font-family="Helvetica,sans-Serif" font-size="11.00" fill="#000000"> &#160;</text>
<polygon fill="#ffffff" stroke="transparent" points="783,-166.2 783,-185.2 807,-185.2 807,-166.2 783,-166.2"/>
<polygon fill="none" stroke="#000000" points="783,-166.2 783,-185.2 807,-185.2 807,-166.2 783,-166.2"/>
<text text-anchor="start" x="797.8862" y="-172.3" font-family="Helvetica,sans-Serif" font-size="11.00" fill="#000000"> &#160;</text>
</a>
</g>
</g>
<!-- currencies&#45;&gt;opportunities -->
<g id="edge9" class="edge">
<title>currencies:w&#45;&gt;opportunities:e</title>
<path fill="none" stroke="#000000" d="M703.3667,-194.3688C659.8858,-195.8405 641.3578,-207.2847 609,-242.2 573.5878,-280.4112 620.5972,-352.2 568.5,-352.2"/>
<polygon fill="#000000" stroke="#000000" points="713.1366,-190.2132 713.2636,-198.2122 711.6638,-198.2376 711.5368,-190.2386 713.1366,-190.2132"/>
<polyline fill="none" stroke="#000000" points="714,-194.2 710.0005,-194.2635 "/>
<ellipse fill="none" stroke="#000000" cx="706.8009" cy="-194.3143" rx="3.2" ry="3.2"/>
</g>
<!-- documents_opportunities -->
<g id="node10" class="node">
<title>documents_opportunities</title>
<g id="a_node10"><a xlink:href="../../tables/documents_opportunities.html" xlink:title="documents_opportunities" target="_top">
<polygon fill="#ffffff" stroke="transparent" points="677.5,-576.7 677.5,-637.7 842.5,-637.7 842.5,-576.7 677.5,-576.7"/>
<polygon fill="#f5f5f5" stroke="transparent" points="678,-614.2 678,-637.2 843,-637.2 843,-614.2 678,-614.2"/>
<polygon fill="none" stroke="#000000" points="678,-614.2 678,-637.2 843,-637.2 843,-614.2 678,-614.2"/>
<text text-anchor="start" x="682.565" y="-623.3" font-family="Helvetica,sans-Serif" font-weight="bold" font-size="11.00" fill="#000000">documents_opportunities</text>
<text text-anchor="start" x="808.5219" y="-622.3" font-family="Helvetica,sans-Serif" font-size="11.00" fill="#000000">[table]</text>
<polygon fill="none" stroke="#000000" points="678,-595.2 678,-614.2 843,-614.2 843,-595.2 678,-595.2"/>
<text text-anchor="start" x="681" y="-601.3" font-family="Helvetica,sans-Serif" font-size="11.00" fill="#000000">...</text>
<polygon fill="#ffffff" stroke="transparent" points="678,-576.2 678,-595.2 759,-595.2 759,-576.2 678,-576.2"/>
<polygon fill="none" stroke="#000000" points="678,-576.2 678,-595.2 759,-595.2 759,-576.2 678,-576.2"/>
<text text-anchor="start" x="681" y="-582.3" font-family="Helvetica,sans-Serif" font-size="11.00" fill="#000000">&lt; 2</text>
<polygon fill="#ffffff" stroke="transparent" points="759,-576.2 759,-595.2 801,-595.2 801,-576.2 759,-576.2"/>
<polygon fill="none" stroke="#000000" points="759,-576.2 759,-595.2 801,-595.2 801,-576.2 759,-576.2"/>
<text text-anchor="start" x="791.8862" y="-582.3" font-family="Helvetica,sans-Serif" font-size="11.00" fill="#000000"> &#160;</text>
<polygon fill="#ffffff" stroke="transparent" points="801,-576.2 801,-595.2 843,-595.2 843,-576.2 801,-576.2"/>
<polygon fill="none" stroke="#000000" points="801,-576.2 801,-595.2 843,-595.2 843,-576.2 801,-576.2"/>
<text text-anchor="start" x="833.8862" y="-582.3" font-family="Helvetica,sans-Serif" font-size="11.00" fill="#000000"> &#160;</text>
</a>
</g>
</g>
<!-- documents_opportunities&#45;&gt;opportunities -->
<g id="edge10" class="edge">
<title>documents_opportunities:w&#45;&gt;opportunities:e</title>
<path fill="none" stroke="#000000" d="M663.387,-603.1659C640.0136,-599.4787 630.8095,-586.1229 609,-566.2 585.246,-544.5007 600.6731,-506.2 568.5,-506.2"/>
<polygon fill="#000000" stroke="#000000" points="670.02,-603.6352 677.7459,-607.791 674.01,-603.9176 678,-604.2 678,-604.2 678,-604.2 674.01,-603.9176 678.2541,-600.609 670.02,-603.6352 670.02,-603.6352"/>
<ellipse fill="none" stroke="#000000" cx="666.8279" cy="-603.4093" rx="3.2" ry="3.2"/>
</g>
<!-- emails -->
<g id="node11" class="node">
<title>emails</title>
<g id="a_node11"><a xlink:href="../../tables/emails.html" xlink:title="emails" target="_top">
<polygon fill="#ffffff" stroke="transparent" points="958.5,-220.7 958.5,-281.7 1032.5,-281.7 1032.5,-220.7 958.5,-220.7"/>
<polygon fill="#f5f5f5" stroke="transparent" points="958.5,-258.2 958.5,-281.2 1032.5,-281.2 1032.5,-258.2 958.5,-258.2"/>
<polygon fill="none" stroke="#000000" points="958.5,-258.2 958.5,-281.2 1032.5,-281.2 1032.5,-258.2 958.5,-258.2"/>
<text text-anchor="start" x="963.1133" y="-267.3" font-family="Helvetica,sans-Serif" font-weight="bold" font-size="11.00" fill="#000000">emails</text>
<text text-anchor="start" x="998.0219" y="-266.3" font-family="Helvetica,sans-Serif" font-size="11.00" fill="#000000">[table]</text>
<polygon fill="none" stroke="#000000" points="958.5,-239.2 958.5,-258.2 1032.5,-258.2 1032.5,-239.2 958.5,-239.2"/>
<text text-anchor="start" x="961.5" y="-245.3" font-family="Helvetica,sans-Serif" font-size="11.00" fill="#000000">...</text>
<polygon fill="#ffffff" stroke="transparent" points="958.5,-220.2 958.5,-239.2 992.5,-239.2 992.5,-220.2 958.5,-220.2"/>
<polygon fill="none" stroke="#000000" points="958.5,-220.2 958.5,-239.2 992.5,-239.2 992.5,-220.2 958.5,-220.2"/>
<text text-anchor="start" x="961.5" y="-226.3" font-family="Helvetica,sans-Serif" font-size="11.00" fill="#000000">&lt; 12</text>
<polygon fill="#ffffff" stroke="transparent" points="992.5,-220.2 992.5,-239.2 1007.5,-239.2 1007.5,-220.2 992.5,-220.2"/>
<polygon fill="none" stroke="#000000" points="992.5,-220.2 992.5,-239.2 1007.5,-239.2 1007.5,-220.2 992.5,-220.2"/>
<text text-anchor="start" x="998.3862" y="-226.3" font-family="Helvetica,sans-Serif" font-size="11.00" fill="#000000"> &#160;</text>
<polygon fill="#ffffff" stroke="transparent" points="1007.5,-220.2 1007.5,-239.2 1032.5,-239.2 1032.5,-220.2 1007.5,-220.2"/>
<polygon fill="none" stroke="#000000" points="1007.5,-220.2 1007.5,-239.2 1032.5,-239.2 1032.5,-220.2 1007.5,-220.2"/>
<text text-anchor="start" x="1013.9053" y="-226.3" font-family="Helvetica,sans-Serif" font-size="11.00" fill="#000000">3 &gt;</text>
</a>
</g>
</g>
<!-- emails&#45;&gt;opportunities -->
<g id="edge13" class="edge">
<title>emails:w&#45;&gt;opportunities:e</title>
<path fill="none" stroke="#000000" d="M943.9251,-248.155C856.3448,-247.7217 662.6879,-245.3374 609,-296.2 539.9961,-361.5726 663.5532,-506.2 568.5,-506.2"/>
<polygon fill="#000000" stroke="#000000" points="950.5,-248.1752 958.4889,-251.8 954.5,-248.1876 958.5,-248.2 958.5,-248.2 958.5,-248.2 954.5,-248.1876 958.5111,-244.6 950.5,-248.1752 950.5,-248.1752"/>
<ellipse fill="none" stroke="#000000" cx="947.3001" cy="-248.1653" rx="3.2" ry="3.2"/>
</g>
<!-- emails&#45;&gt;leads -->
<g id="edge12" class="edge">
<title>emails:w&#45;&gt;leads:e</title>
<path fill="none" stroke="#000000" d="M944.2878,-245.4277C914.5723,-230.8553 951.1521,-162.7851 911,-136.2 850.8087,-96.3468 316.1312,-134.3293 263,-183.2 202.3289,-239.0061 304.9337,-364.2 222.5,-364.2"/>
<polygon fill="#000000" stroke="#000000" points="950.648,-246.6683 957.8107,-251.7334 954.574,-247.4341 958.5,-248.2 958.5,-248.2 958.5,-248.2 954.574,-247.4341 959.1893,-244.6666 950.648,-246.6683 950.648,-246.6683"/>
<ellipse fill="none" stroke="#000000" cx="947.5072" cy="-246.0556" rx="3.2" ry="3.2"/>
</g>
<!-- emails&#45;&gt;campaign_log -->
<g id="edge11" class="edge">
<title>emails:w&#45;&gt;campaign_log:e</title>
<path fill="none" stroke="#000000" d="M948.0103,-246.6332C918.6557,-236.3264 946.7696,-177.9878 911,-156.2 853.6845,-121.2882 675.457,-146.8529 609,-156.2 505.2909,-170.7866 487.2299,-221.2 382.5,-221.2"/>
<polygon fill="#000000" stroke="#000000" points="958.2997,-244.1257 957.1178,-252.0379 955.5354,-251.8015 956.7173,-243.8893 958.2997,-244.1257"/>
<polyline fill="none" stroke="#000000" points="958.5,-248.2 954.5439,-247.6091 "/>
<ellipse fill="none" stroke="#000000" cx="951.379" cy="-247.1363" rx="3.2" ry="3.2"/>
</g>
<!-- emails_beans -->
<g id="node12" class="node">
<title>emails_beans</title>
<g id="a_node12"><a xlink:href="../../tables/emails_beans.html" xlink:title="emails_beans" target="_top">
<polygon fill="#ffffff" stroke="transparent" points="1088,-438.7 1088,-499.7 1198,-499.7 1198,-438.7 1088,-438.7"/>
<polygon fill="#f5f5f5" stroke="transparent" points="1088,-476.2 1088,-499.2 1198,-499.2 1198,-476.2 1088,-476.2"/>
<polygon fill="none" stroke="#000000" points="1088,-476.2 1088,-499.2 1198,-499.2 1198,-476.2 1088,-476.2"/>
<text text-anchor="start" x="1092.576" y="-485.3" font-family="Helvetica,sans-Serif" font-weight="bold" font-size="11.00" fill="#000000">emails_beans</text>
<text text-anchor="start" x="1163.5219" y="-484.3" font-family="Helvetica,sans-Serif" font-size="11.00" fill="#000000">[table]</text>
<polygon fill="none" stroke="#000000" points="1088,-457.2 1088,-476.2 1198,-476.2 1198,-457.2 1088,-457.2"/>
<text text-anchor="start" x="1091" y="-463.3" font-family="Helvetica,sans-Serif" font-size="11.00" fill="#000000">...</text>
<polygon fill="#ffffff" stroke="transparent" points="1088,-438.2 1088,-457.2 1144,-457.2 1144,-438.2 1088,-438.2"/>
<polygon fill="none" stroke="#000000" points="1088,-438.2 1088,-457.2 1144,-457.2 1144,-438.2 1088,-438.2"/>
<text text-anchor="start" x="1091" y="-444.3" font-family="Helvetica,sans-Serif" font-size="11.00" fill="#000000">&lt; 14</text>
<polygon fill="#ffffff" stroke="transparent" points="1144,-438.2 1144,-457.2 1171,-457.2 1171,-438.2 1144,-438.2"/>
<polygon fill="none" stroke="#000000" points="1144,-438.2 1144,-457.2 1171,-457.2 1171,-438.2 1144,-438.2"/>
<text text-anchor="start" x="1161.8862" y="-444.3" font-family="Helvetica,sans-Serif" font-size="11.00" fill="#000000"> &#160;</text>
<polygon fill="#ffffff" stroke="transparent" points="1171,-438.2 1171,-457.2 1198,-457.2 1198,-438.2 1171,-438.2"/>
<polygon fill="none" stroke="#000000" points="1171,-438.2 1171,-457.2 1198,-457.2 1198,-438.2 1171,-438.2"/>
<text text-anchor="start" x="1188.8862" y="-444.3" font-family="Helvetica,sans-Serif" font-size="11.00" fill="#000000"> &#160;</text>
</a>
</g>
</g>
<!-- emails_beans&#45;&gt;opportunities -->
<g id="edge17" class="edge">
<title>emails_beans:w&#45;&gt;opportunities:e</title>
<path fill="none" stroke="#000000" d="M1073.2715,-465.4935C998.7935,-458.0564 992.078,-394.0129 911,-374.2 845.8072,-358.269 662.9676,-334.3076 609,-374.2 559.6524,-410.6773 629.8659,-506.2 568.5,-506.2"/>
<polygon fill="#000000" stroke="#000000" points="1080.0092,-465.8166 1087.8275,-469.7959 1084.0046,-466.0083 1088,-466.2 1088,-466.2 1088,-466.2 1084.0046,-466.0083 1088.1725,-462.6041 1080.0092,-465.8166 1080.0092,-465.8166"/>
<ellipse fill="none" stroke="#000000" cx="1076.8129" cy="-465.6633" rx="3.2" ry="3.2"/>
</g>
<!-- emails_beans&#45;&gt;aos_contracts -->
<g id="edge14" class="edge">
<title>emails_beans:w&#45;&gt;aos_contracts:e</title>
<path fill="none" stroke="#000000" d="M1073.5539,-466.4627C1012.6378,-468.8099 986.8198,-487.2905 944,-538.2 911.1454,-577.2616 945.4496,-610.5375 911,-648.2 880.3076,-681.7549 861.4747,-686.2 816,-686.2"/>
<polygon fill="#000000" stroke="#000000" points="1080.0013,-466.3455 1088.0655,-469.7994 1084.0007,-466.2728 1088,-466.2 1088,-466.2 1088,-466.2 1084.0007,-466.2728 1087.9345,-462.6006 1080.0013,-466.3455 1080.0013,-466.3455"/>
<ellipse fill="none" stroke="#000000" cx="1076.8019" cy="-466.4038" rx="3.2" ry="3.2"/>
</g>
<!-- emails_beans&#45;&gt;leads -->
<g id="edge15" class="edge">
<title>emails_beans:w&#45;&gt;leads:e</title>
<path fill="none" stroke="#000000" d="M1074.4154,-461.0347C1038.5961,-428.7189 1074.9514,-254.3007 1047,-210.2 972.8011,-93.1317 898.6018,-88.2 760,-88.2 760,-88.2 760,-88.2 499.5,-88.2 391.2741,-88.2 337.3229,-67.5301 263,-146.2 195.3242,-217.8341 321.0467,-364.2 222.5,-364.2"/>
<polygon fill="#000000" stroke="#000000" points="1080.5223,-463.3567 1086.7205,-469.565 1084.2612,-464.7783 1088,-466.2 1088,-466.2 1088,-466.2 1084.2612,-464.7783 1089.2795,-462.835 1080.5223,-463.3567 1080.5223,-463.3567"/>
<ellipse fill="none" stroke="#000000" cx="1077.5312" cy="-462.2194" rx="3.2" ry="3.2"/>
</g>
<!-- emails_beans&#45;&gt;emails -->
<g id="edge19" class="edge">
<title>emails_beans:w&#45;&gt;emails:e</title>
<path fill="none" stroke="#000000" d="M1073.7103,-464.3154C1003.0897,-443.0082 1127.0119,-248.2 1032.5,-248.2"/>
<polygon fill="#000000" stroke="#000000" points="1080.0687,-465.1539 1087.5293,-469.7691 1084.0343,-465.677 1088,-466.2 1088,-466.2 1088,-466.2 1084.0343,-465.677 1088.4707,-462.6309 1080.0687,-465.1539 1080.0687,-465.1539"/>
<ellipse fill="none" stroke="#000000" cx="1076.8962" cy="-464.7355" rx="3.2" ry="3.2"/>
</g>
<!-- meetings -->
<g id="node13" class="node">
<title>meetings</title>
<g id="a_node13"><a xlink:href="../../tables/meetings.html" xlink:title="meetings" target="_top">
<polygon fill="#ffffff" stroke="transparent" points="952,-795.7 952,-856.7 1039,-856.7 1039,-795.7 952,-795.7"/>
<polygon fill="#f5f5f5" stroke="transparent" points="952.5,-833.2 952.5,-856.2 1039.5,-856.2 1039.5,-833.2 952.5,-833.2"/>
<polygon fill="none" stroke="#000000" points="952.5,-833.2 952.5,-856.2 1039.5,-856.2 1039.5,-833.2 952.5,-833.2"/>
<text text-anchor="start" x="957.1904" y="-842.3" font-family="Helvetica,sans-Serif" font-weight="bold" font-size="11.00" fill="#000000">meetings</text>
<text text-anchor="start" x="1005.0219" y="-841.3" font-family="Helvetica,sans-Serif" font-size="11.00" fill="#000000">[table]</text>
<polygon fill="none" stroke="#000000" points="952.5,-814.2 952.5,-833.2 1039.5,-833.2 1039.5,-814.2 952.5,-814.2"/>
<text text-anchor="start" x="955.5" y="-820.3" font-family="Helvetica,sans-Serif" font-size="11.00" fill="#000000">...</text>
<polygon fill="#ffffff" stroke="transparent" points="952.5,-795.2 952.5,-814.2 992.5,-814.2 992.5,-795.2 952.5,-795.2"/>
<polygon fill="none" stroke="#000000" points="952.5,-795.2 952.5,-814.2 992.5,-814.2 992.5,-795.2 952.5,-795.2"/>
<text text-anchor="start" x="955.5" y="-801.3" font-family="Helvetica,sans-Serif" font-size="11.00" fill="#000000">&lt; 13</text>
<polygon fill="#ffffff" stroke="transparent" points="992.5,-795.2 992.5,-814.2 1011.5,-814.2 1011.5,-795.2 992.5,-795.2"/>
<polygon fill="none" stroke="#000000" points="992.5,-795.2 992.5,-814.2 1011.5,-814.2 1011.5,-795.2 992.5,-795.2"/>
<text text-anchor="start" x="1002.3862" y="-801.3" font-family="Helvetica,sans-Serif" font-size="11.00" fill="#000000"> &#160;</text>
<polygon fill="#ffffff" stroke="transparent" points="1011.5,-795.2 1011.5,-814.2 1039.5,-814.2 1039.5,-795.2 1011.5,-795.2"/>
<polygon fill="none" stroke="#000000" points="1011.5,-795.2 1011.5,-814.2 1039.5,-814.2 1039.5,-795.2 1011.5,-795.2"/>
<text text-anchor="start" x="1020.9053" y="-801.3" font-family="Helvetica,sans-Serif" font-size="11.00" fill="#000000">7 &gt;</text>
</a>
</g>
</g>
<!-- emails_beans&#45;&gt;meetings -->
<g id="edge16" class="edge">
<title>emails_beans:w&#45;&gt;meetings:e</title>
<path fill="none" stroke="#000000" d="M1074.1458,-470.9767C1022.3033,-513.3403 1114.0891,-823.2 1039.5,-823.2"/>
<polygon fill="#000000" stroke="#000000" points="1080.4369,-468.8077 1089.1735,-469.6034 1084.2185,-467.5038 1088,-466.2 1088,-466.2 1088,-466.2 1084.2185,-467.5038 1086.8265,-462.7966 1080.4369,-468.8077 1080.4369,-468.8077"/>
<ellipse fill="none" stroke="#000000" cx="1077.4117" cy="-469.8507" rx="3.2" ry="3.2"/>
</g>
<!-- tasks -->
<g id="node14" class="node">
<title>tasks</title>
<g id="a_node14"><a xlink:href="../../tables/tasks.html" xlink:title="tasks" target="_top">
<polygon fill="#ffffff" stroke="transparent" points="961.5,-685.7 961.5,-746.7 1029.5,-746.7 1029.5,-685.7 961.5,-685.7"/>
<polygon fill="#f5f5f5" stroke="transparent" points="961.5,-723.2 961.5,-746.2 1029.5,-746.2 1029.5,-723.2 961.5,-723.2"/>
<polygon fill="none" stroke="#000000" points="961.5,-723.2 961.5,-746.2 1029.5,-746.2 1029.5,-723.2 961.5,-723.2"/>
<text text-anchor="start" x="966.1641" y="-732.3" font-family="Helvetica,sans-Serif" font-weight="bold" font-size="11.00" fill="#000000">tasks</text>
<text text-anchor="start" x="995.0219" y="-731.3" font-family="Helvetica,sans-Serif" font-size="11.00" fill="#000000">[table]</text>
<polygon fill="none" stroke="#000000" points="961.5,-704.2 961.5,-723.2 1029.5,-723.2 1029.5,-704.2 961.5,-704.2"/>
<text text-anchor="start" x="964.5" y="-710.3" font-family="Helvetica,sans-Serif" font-size="11.00" fill="#000000">...</text>
<polygon fill="#ffffff" stroke="transparent" points="961.5,-685.2 961.5,-704.2 992.5,-704.2 992.5,-685.2 961.5,-685.2"/>
<polygon fill="none" stroke="#000000" points="961.5,-685.2 961.5,-704.2 992.5,-704.2 992.5,-685.2 961.5,-685.2"/>
<text text-anchor="start" x="964.5" y="-691.3" font-family="Helvetica,sans-Serif" font-size="11.00" fill="#000000">&lt; 14</text>
<polygon fill="#ffffff" stroke="transparent" points="992.5,-685.2 992.5,-704.2 1006.5,-704.2 1006.5,-685.2 992.5,-685.2"/>
<polygon fill="none" stroke="#000000" points="992.5,-685.2 992.5,-704.2 1006.5,-704.2 1006.5,-685.2 992.5,-685.2"/>
<text text-anchor="start" x="997.3862" y="-691.3" font-family="Helvetica,sans-Serif" font-size="11.00" fill="#000000"> &#160;</text>
<polygon fill="#ffffff" stroke="transparent" points="1006.5,-685.2 1006.5,-704.2 1029.5,-704.2 1029.5,-685.2 1006.5,-685.2"/>
<polygon fill="none" stroke="#000000" points="1006.5,-685.2 1006.5,-704.2 1029.5,-704.2 1029.5,-685.2 1006.5,-685.2"/>
<text text-anchor="start" x="1010.9053" y="-691.3" font-family="Helvetica,sans-Serif" font-size="11.00" fill="#000000">3 &gt;</text>
</a>
</g>
</g>
<!-- emails_beans&#45;&gt;tasks -->
<g id="edge18" class="edge">
<title>emails_beans:w&#45;&gt;tasks:e</title>
<path fill="none" stroke="#000000" d="M1074.8724,-472.3057C1040.8035,-510.3416 1080.6192,-713.2 1029.5,-713.2"/>
<polygon fill="#000000" stroke="#000000" points="1080.7462,-469.5738 1089.5182,-469.4642 1084.3731,-467.8869 1088,-466.2 1088,-466.2 1088,-466.2 1084.3731,-467.8869 1086.4818,-462.9358 1080.7462,-469.5738 1080.7462,-469.5738"/>
<ellipse fill="none" stroke="#000000" cx="1077.8447" cy="-470.9233" rx="3.2" ry="3.2"/>
</g>
<!-- meetings&#45;&gt;opportunities -->
<g id="edge27" class="edge">
<title>meetings:w&#45;&gt;opportunities:e</title>
<path fill="none" stroke="#000000" d="M938.0802,-824.5753C866.372,-840.1872 983.9996,-984.5822 911,-1045.2 859.369,-1088.0736 658.2005,-1090.8423 609,-1045.2 564.9705,-1004.3547 628.5577,-506.2 568.5,-506.2"/>
<polygon fill="#000000" stroke="#000000" points="944.5361,-823.9596 952.8418,-826.7837 948.5181,-823.5798 952.5,-823.2 952.5,-823.2 952.5,-823.2 948.5181,-823.5798 952.1582,-819.6163 944.5361,-823.9596 944.5361,-823.9596"/>
<ellipse fill="none" stroke="#000000" cx="941.3506" cy="-824.2635" rx="3.2" ry="3.2"/>
</g>
<!-- meetings&#45;&gt;aos_contracts -->
<g id="edge25" class="edge">
<title>meetings:w&#45;&gt;aos_contracts:e</title>
<path fill="none" stroke="#000000" d="M940.6224,-814.211C908.3603,-783.7322 825.0653,-686.2 816,-686.2"/>
<polygon fill="#000000" stroke="#000000" points="946.1209,-818.3723 950.3275,-826.0706 949.3104,-820.7861 952.5,-823.2 952.5,-823.2 952.5,-823.2 949.3104,-820.7861 954.6725,-820.3294 946.1209,-818.3723 946.1209,-818.3723"/>
<ellipse fill="none" stroke="#000000" cx="943.5692" cy="-816.4412" rx="3.2" ry="3.2"/>
</g>
<!-- meetings&#45;&gt;leads -->
<g id="edge26" class="edge">
<title>meetings:w&#45;&gt;leads:e</title>
<path fill="none" stroke="#000000" d="M938.8451,-829.3019C907.4747,-864.0993 949.0367,-1037.0426 911,-1069.2 808.5001,-1155.8566 738.3236,-1105.1306 609,-1069.2 516.0251,-1043.3684 488.0332,-1028.4902 423,-957.2 312.8801,-836.4851 311.5705,-782.2108 263,-626.2 245.4876,-569.9493 281.4137,-364.2 222.5,-364.2"/>
<polygon fill="#000000" stroke="#000000" points="945.1961,-826.4639 953.9687,-826.4868 948.848,-824.8319 952.5,-823.2 952.5,-823.2 952.5,-823.2 948.848,-824.8319 951.0313,-819.9132 945.1961,-826.4639 945.1961,-826.4639"/>
<ellipse fill="none" stroke="#000000" cx="942.2745" cy="-827.7694" rx="3.2" ry="3.2"/>
</g>
<!-- meetings&#45;&gt;jjwg_maps -->
<g id="edge24" class="edge">
<title>meetings:w&#45;&gt;jjwg_maps:e</title>
<path fill="none" stroke="#000000" d="M942.205,-825.8606C897.7246,-851.943 953.734,-1061.863 911,-1102.2 806.0069,-1201.3037 388.3275,-1220.8806 263,-1149.2 141.2534,-1079.5675 243.253,-877.2 103,-877.2"/>
<polygon fill="#000000" stroke="#000000" points="950.7246,-819.5274 952.7263,-827.2729 951.1772,-827.6733 949.1755,-819.9278 950.7246,-819.5274"/>
<polyline fill="none" stroke="#000000" points="952.5,-823.2 948.6272,-824.2009 "/>
<ellipse fill="none" stroke="#000000" cx="945.529" cy="-825.0016" rx="3.2" ry="3.2"/>
</g>
<!-- tasks&#45;&gt;opportunities -->
<g id="edge54" class="edge">
<title>tasks:w&#45;&gt;opportunities:e</title>
<path fill="none" stroke="#000000" d="M946.905,-715.3179C934.8491,-719.202 928.528,-727.3289 911,-730.2 844.7715,-741.0483 660.5035,-773.2266 609,-730.2 531.3586,-665.3376 669.6697,-506.2 568.5,-506.2"/>
<polygon fill="#000000" stroke="#000000" points="953.5829,-714.3489 962.017,-716.7627 957.5415,-713.7745 961.5,-713.2 961.5,-713.2 961.5,-713.2 957.5415,-713.7745 960.983,-709.6373 953.5829,-714.3489 953.5829,-714.3489"/>
<ellipse fill="none" stroke="#000000" cx="950.4161" cy="-714.8085" rx="3.2" ry="3.2"/>
</g>
<!-- tasks&#45;&gt;aos_contracts -->
<g id="edge52" class="edge">
<title>tasks:w&#45;&gt;aos_contracts:e</title>
<path fill="none" stroke="#000000" d="M946.9843,-712.7314C893.2321,-709.146 876.6323,-686.2 816,-686.2"/>
<polygon fill="#000000" stroke="#000000" points="953.5042,-712.9418 961.3838,-716.7981 957.5021,-713.0709 961.5,-713.2 961.5,-713.2 961.5,-713.2 957.5021,-713.0709 961.6162,-709.6019 953.5042,-712.9418 953.5042,-712.9418"/>
<ellipse fill="none" stroke="#000000" cx="950.3058" cy="-712.8385" rx="3.2" ry="3.2"/>
</g>
<!-- tasks&#45;&gt;leads -->
<g id="edge53" class="edge">
<title>tasks:w&#45;&gt;leads:e</title>
<path fill="none" stroke="#000000" d="M947.6359,-717.4338C897.7425,-752.8354 962.9462,-999.4303 911,-1045.2 860.6462,-1089.5667 667.1477,-1078.7073 609,-1045.2 343.2848,-892.083 406.5868,-719.1838 263,-448.2 243.5947,-411.5774 263.9461,-364.2 222.5,-364.2"/>
<polygon fill="#000000" stroke="#000000" points="953.8488,-715.5365 962.5514,-716.643 957.6744,-714.3683 961.5,-713.2 961.5,-713.2 961.5,-713.2 957.6744,-714.3683 960.4486,-709.757 953.8488,-715.5365 953.8488,-715.5365"/>
<ellipse fill="none" stroke="#000000" cx="950.7883" cy="-716.4711" rx="3.2" ry="3.2"/>
</g>
<!-- notes -->
<g id="node16" class="node">
<title>notes</title>
<g id="a_node16"><a xlink:href="../../tables/notes.html" xlink:title="notes" target="_top">
<polygon fill="#ffffff" stroke="transparent" points="1108.5,-685.7 1108.5,-746.7 1177.5,-746.7 1177.5,-685.7 1108.5,-685.7"/>
<polygon fill="#f5f5f5" stroke="transparent" points="1109,-723.2 1109,-746.2 1178,-746.2 1178,-723.2 1109,-723.2"/>
<polygon fill="none" stroke="#000000" points="1109,-723.2 1109,-746.2 1178,-746.2 1178,-723.2 1109,-723.2"/>
<text text-anchor="start" x="1113.5492" y="-732.3" font-family="Helvetica,sans-Serif" font-weight="bold" font-size="11.00" fill="#000000">notes</text>
<text text-anchor="start" x="1143.5219" y="-731.3" font-family="Helvetica,sans-Serif" font-size="11.00" fill="#000000">[table]</text>
<polygon fill="none" stroke="#000000" points="1109,-704.2 1109,-723.2 1178,-723.2 1178,-704.2 1109,-704.2"/>
<text text-anchor="start" x="1112" y="-710.3" font-family="Helvetica,sans-Serif" font-size="11.00" fill="#000000">...</text>
<polygon fill="#ffffff" stroke="transparent" points="1109,-685.2 1109,-704.2 1140,-704.2 1140,-685.2 1109,-685.2"/>
<polygon fill="none" stroke="#000000" points="1109,-685.2 1109,-704.2 1140,-704.2 1140,-685.2 1109,-685.2"/>
<text text-anchor="start" x="1112" y="-691.3" font-family="Helvetica,sans-Serif" font-size="11.00" fill="#000000">&lt; 19</text>
<polygon fill="#ffffff" stroke="transparent" points="1140,-685.2 1140,-704.2 1154,-704.2 1154,-685.2 1140,-685.2"/>
<polygon fill="none" stroke="#000000" points="1140,-685.2 1140,-704.2 1154,-704.2 1154,-685.2 1140,-685.2"/>
<text text-anchor="start" x="1144.8862" y="-691.3" font-family="Helvetica,sans-Serif" font-size="11.00" fill="#000000"> &#160;</text>
<polygon fill="#ffffff" stroke="transparent" points="1154,-685.2 1154,-704.2 1178,-704.2 1178,-685.2 1154,-685.2"/>
<polygon fill="none" stroke="#000000" points="1154,-685.2 1154,-704.2 1178,-704.2 1178,-685.2 1154,-685.2"/>
<text text-anchor="start" x="1159.4053" y="-691.3" font-family="Helvetica,sans-Serif" font-size="11.00" fill="#000000">1 &gt;</text>
</a>
</g>
</g>
<!-- notes&#45;&gt;opportunities -->
<g id="edge33" class="edge">
<title>notes:w&#45;&gt;opportunities:e</title>
<path fill="none" stroke="#000000" d="M1094.8199,-715.7844C1075.5278,-723.8714 1073.7858,-748.6612 1047,-757.2 996.3725,-773.339 663.6974,-797.5577 609,-750.2 567.4467,-714.2226 623.4641,-506.2 568.5,-506.2"/>
<polygon fill="#000000" stroke="#000000" points="1101.1296,-714.6345 1109.6455,-716.7417 1105.0648,-713.9172 1109,-713.2 1109,-713.2 1109,-713.2 1105.0648,-713.9172 1108.3545,-709.6583 1101.1296,-714.6345 1101.1296,-714.6345"/>
<ellipse fill="none" stroke="#000000" cx="1097.9815" cy="-715.2083" rx="3.2" ry="3.2"/>
</g>
<!-- notes&#45;&gt;aos_contracts -->
<g id="edge28" class="edge">
<title>notes:w&#45;&gt;aos_contracts:e</title>
<path fill="none" stroke="#000000" d="M1094.7246,-710.7607C1076.1764,-703.5572 1072.6379,-682.4317 1047,-675.2 948.077,-647.2969 918.783,-686.2 816,-686.2"/>
<polygon fill="#000000" stroke="#000000" points="1101.1143,-711.8525 1108.3936,-716.7486 1105.0571,-712.5262 1109,-713.2 1109,-713.2 1109,-713.2 1105.0571,-712.5262 1109.6064,-709.6514 1101.1143,-711.8525 1101.1143,-711.8525"/>
<ellipse fill="none" stroke="#000000" cx="1097.96" cy="-711.3134" rx="3.2" ry="3.2"/>
</g>
<!-- notes&#45;&gt;calls -->
<g id="edge29" class="edge">
<title>notes:w&#45;&gt;calls:e</title>
<path fill="none" stroke="#000000" d="M1094.6694,-710.8221C1046.7575,-692.6299 1092.8134,-576.2 1027.5,-576.2"/>
<polygon fill="#000000" stroke="#000000" points="1101.1079,-711.8904 1108.4107,-716.7514 1105.054,-712.5452 1109,-713.2 1109,-713.2 1109,-713.2 1105.054,-712.5452 1109.5893,-709.6486 1101.1079,-711.8904 1101.1079,-711.8904"/>
<ellipse fill="none" stroke="#000000" cx="1097.9511" cy="-711.3666" rx="3.2" ry="3.2"/>
</g>
<!-- notes&#45;&gt;leads -->
<g id="edge31" class="edge">
<title>notes:w&#45;&gt;leads:e</title>
<path fill="none" stroke="#000000" d="M1094.4407,-714.6044C1041.3449,-726.0975 1076.9377,-805.803 1047,-867.2 994.1109,-975.6662 1007.5584,-1029.8215 911,-1102.2 855.7117,-1143.6431 829.0965,-1139.2 760,-1139.2 760,-1139.2 760,-1139.2 499.5,-1139.2 308.4337,-1139.2 326.6793,-960.3424 263,-780.2 247.522,-736.4144 268.9408,-364.2 222.5,-364.2"/>
<polygon fill="#000000" stroke="#000000" points="1101.037,-713.9682 1109.3457,-716.7834 1105.0185,-713.5841 1109,-713.2 1109,-713.2 1109,-713.2 1105.0185,-713.5841 1108.6543,-709.6166 1101.037,-713.9682 1101.037,-713.9682"/>
<ellipse fill="none" stroke="#000000" cx="1097.8517" cy="-714.2754" rx="3.2" ry="3.2"/>
</g>
<!-- notes&#45;&gt;emails -->
<g id="edge30" class="edge">
<title>notes:w&#45;&gt;emails:e</title>
<path fill="none" stroke="#000000" d="M1094.8226,-709.7244C1017.1669,-667.1725 1131.9045,-248.2 1032.5,-248.2"/>
<polygon fill="#000000" stroke="#000000" points="1101.2301,-711.2952 1108.1428,-716.6965 1105.115,-712.2476 1109,-713.2 1109,-713.2 1109,-713.2 1105.115,-712.2476 1109.8572,-709.7035 1101.2301,-711.2952 1101.2301,-711.2952"/>
<ellipse fill="none" stroke="#000000" cx="1098.1221" cy="-710.5333" rx="3.2" ry="3.2"/>
</g>
<!-- notes&#45;&gt;meetings -->
<g id="edge32" class="edge">
<title>notes:w&#45;&gt;meetings:e</title>
<path fill="none" stroke="#000000" d="M1094.8392,-716.1422C1059.1942,-733.6353 1091.6821,-823.2 1039.5,-823.2"/>
<polygon fill="#000000" stroke="#000000" points="1101.1673,-714.8275 1109.7324,-716.7247 1105.0836,-714.0137 1109,-713.2 1109,-713.2 1109,-713.2 1105.0836,-714.0137 1108.2676,-709.6753 1101.1673,-714.8275 1101.1673,-714.8275"/>
<ellipse fill="none" stroke="#000000" cx="1098.0342" cy="-715.4785" rx="3.2" ry="3.2"/>
</g>
<!-- notes&#45;&gt;tasks -->
<g id="edge34" class="edge">
<title>notes:w&#45;&gt;tasks:e</title>
<path fill="none" stroke="#000000" d="M1094.5093,-713.2C1070.3602,-713.2 1059.4505,-713.2 1029.5,-713.2"/>
<polygon fill="#000000" stroke="#000000" points="1101,-713.2001 1109,-716.8 1105,-713.2 1109,-713.2 1109,-713.2 1109,-713.2 1105,-713.2 1109,-709.6 1101,-713.2001 1101,-713.2001"/>
<ellipse fill="none" stroke="#000000" cx="1097.8" cy="-713.2001" rx="3.2" ry="3.2"/>
</g>
<!-- opportunities_contacts -->
<g id="node17" class="node">
<title>opportunities_contacts</title>
<g id="a_node17"><a xlink:href="../../tables/opportunities_contacts.html" xlink:title="opportunities_contacts" target="_top">
<polygon fill="#ffffff" stroke="transparent" points="683.5,-384.7 683.5,-445.7 836.5,-445.7 836.5,-384.7 683.5,-384.7"/>
<polygon fill="#f5f5f5" stroke="transparent" points="684,-422.2 684,-445.2 837,-445.2 837,-422.2 684,-422.2"/>
<polygon fill="none" stroke="#000000" points="684,-422.2 684,-445.2 837,-445.2 837,-422.2 684,-422.2"/>
<text text-anchor="start" x="688.9824" y="-431.3" font-family="Helvetica,sans-Serif" font-weight="bold" font-size="11.00" fill="#000000">opportunities_contacts</text>
<text text-anchor="start" x="802.5219" y="-430.3" font-family="Helvetica,sans-Serif" font-size="11.00" fill="#000000">[table]</text>
<polygon fill="none" stroke="#000000" points="684,-403.2 684,-422.2 837,-422.2 837,-403.2 684,-403.2"/>
<text text-anchor="start" x="687" y="-409.3" font-family="Helvetica,sans-Serif" font-size="11.00" fill="#000000">...</text>
<polygon fill="#ffffff" stroke="transparent" points="684,-384.2 684,-403.2 759,-403.2 759,-384.2 684,-384.2"/>
<polygon fill="none" stroke="#000000" points="684,-384.2 684,-403.2 759,-403.2 759,-384.2 684,-384.2"/>
<text text-anchor="start" x="687" y="-390.3" font-family="Helvetica,sans-Serif" font-size="11.00" fill="#000000">&lt; 2</text>
<polygon fill="#ffffff" stroke="transparent" points="759,-384.2 759,-403.2 798,-403.2 798,-384.2 759,-384.2"/>
<polygon fill="none" stroke="#000000" points="759,-384.2 759,-403.2 798,-403.2 798,-384.2 759,-384.2"/>
<text text-anchor="start" x="788.8862" y="-390.3" font-family="Helvetica,sans-Serif" font-size="11.00" fill="#000000"> &#160;</text>
<polygon fill="#ffffff" stroke="transparent" points="798,-384.2 798,-403.2 837,-403.2 837,-384.2 798,-384.2"/>
<polygon fill="none" stroke="#000000" points="798,-384.2 798,-403.2 837,-403.2 837,-384.2 798,-384.2"/>
<text text-anchor="start" x="827.8862" y="-390.3" font-family="Helvetica,sans-Serif" font-size="11.00" fill="#000000"> &#160;</text>
</a>
</g>
</g>
<!-- opportunities_contacts&#45;&gt;opportunities -->
<g id="edge38" class="edge">
<title>opportunities_contacts:w&#45;&gt;opportunities:e</title>
<path fill="none" stroke="#000000" d="M669.5346,-413.3988C642.4903,-418.3447 634.9292,-437.9534 609,-460.2 588.3269,-477.9369 595.7392,-506.2 568.5,-506.2"/>
<polygon fill="#000000" stroke="#000000" points="676.0273,-412.8608 684.2974,-415.7877 680.0137,-412.5304 684,-412.2 684,-412.2 684,-412.2 680.0137,-412.5304 683.7026,-408.6123 676.0273,-412.8608 676.0273,-412.8608"/>
<ellipse fill="none" stroke="#000000" cx="672.8383" cy="-413.1251" rx="3.2" ry="3.2"/>
</g>
<!-- opportunities_cstm -->
<g id="node18" class="node">
<title>opportunities_cstm</title>
<g id="a_node18"><a xlink:href="../../tables/opportunities_cstm.html" xlink:title="opportunities_cstm" target="_top">
<polygon fill="#ffffff" stroke="transparent" points="617,-878.2 617,-1034.2 903,-1034.2 903,-878.2 617,-878.2"/>
<polygon fill="#f5f5f5" stroke="transparent" points="619,-1009.2 619,-1032.2 901,-1032.2 901,-1009.2 619,-1009.2"/>
<polygon fill="none" stroke="#000000" points="619,-1009.2 619,-1032.2 901,-1032.2 901,-1009.2 619,-1009.2"/>
<text text-anchor="start" x="624" y="-1018.3" font-family="Helvetica,sans-Serif" font-weight="bold" font-size="11.00" fill="#000000">opportunities_cstm</text>
<text text-anchor="start" x="866.0437" y="-1017.3" font-family="Helvetica,sans-Serif" font-size="11.00" fill="#000000">[table]</text>
<polygon fill="none" stroke="#000000" points="619,-987.2 619,-1009.2 834,-1009.2 834,-987.2 619,-987.2"/>
<image xlink:href="../../images/primaryKeys.png" width="11px" height="12px" preserveAspectRatio="xMinYMin meet" x="624" y="-1004.2"/>
<text text-anchor="start" x="639" y="-994.3" font-family="Helvetica,sans-Serif" font-size="11.00" fill="#000000">id_c</text>
<polygon fill="none" stroke="#000000" points="834,-987.2 834,-1009.2 901,-1009.2 901,-987.2 834,-987.2"/>
<text text-anchor="start" x="837" y="-994.9" font-family="Helvetica,sans-Serif" font-size="11.00" fill="#000000">char[36]</text>
<polygon fill="none" stroke="#000000" points="619,-965.2 619,-987.2 834,-987.2 834,-965.2 619,-965.2"/>
<text text-anchor="start" x="639" y="-972.3" font-family="Helvetica,sans-Serif" font-size="11.00" fill="#000000">jjwg_maps_lng_c</text>
<polygon fill="none" stroke="#000000" points="834,-965.2 834,-987.2 901,-987.2 901,-965.2 834,-965.2"/>
<text text-anchor="start" x="837" y="-972.9" font-family="Helvetica,sans-Serif" font-size="11.00" fill="#000000">float[11,8]</text>
<polygon fill="none" stroke="#000000" points="619,-943.2 619,-965.2 834,-965.2 834,-943.2 619,-943.2"/>
<text text-anchor="start" x="639" y="-950.3" font-family="Helvetica,sans-Serif" font-size="11.00" fill="#000000">jjwg_maps_lat_c</text>
<polygon fill="none" stroke="#000000" points="834,-943.2 834,-965.2 901,-965.2 901,-943.2 834,-943.2"/>
<text text-anchor="start" x="837" y="-950.9" font-family="Helvetica,sans-Serif" font-size="11.00" fill="#000000">float[10,8]</text>
<polygon fill="none" stroke="#000000" points="619,-921.2 619,-943.2 834,-943.2 834,-921.2 619,-921.2"/>
<text text-anchor="start" x="639" y="-928.3" font-family="Helvetica,sans-Serif" font-size="11.00" fill="#000000">jjwg_maps_geocode_status_c</text>
<polygon fill="none" stroke="#000000" points="834,-921.2 834,-943.2 901,-943.2 901,-921.2 834,-921.2"/>
<text text-anchor="start" x="836.9365" y="-928.9" font-family="Helvetica,sans-Serif" font-size="11.00" fill="#000000">varchar[255]</text>
<polygon fill="none" stroke="#000000" points="619,-899.2 619,-921.2 834,-921.2 834,-899.2 619,-899.2"/>
<text text-anchor="start" x="639" y="-906.3" font-family="Helvetica,sans-Serif" font-size="11.00" fill="#000000">jjwg_maps_address_c</text>
<polygon fill="none" stroke="#000000" points="834,-899.2 834,-921.2 901,-921.2 901,-899.2 834,-899.2"/>
<text text-anchor="start" x="836.9365" y="-906.9" font-family="Helvetica,sans-Serif" font-size="11.00" fill="#000000">varchar[255]</text>
<polygon fill="#ffffff" stroke="transparent" points="619,-880.2 619,-899.2 731,-899.2 731,-880.2 619,-880.2"/>
<polygon fill="none" stroke="#000000" points="619,-880.2 619,-899.2 731,-899.2 731,-880.2 619,-880.2"/>
<text text-anchor="start" x="622" y="-886.3" font-family="Helvetica,sans-Serif" font-size="11.00" fill="#000000">&lt; 1</text>
<polygon fill="#ffffff" stroke="transparent" points="731,-880.2 731,-899.2 834,-899.2 834,-880.2 731,-880.2"/>
<polygon fill="none" stroke="#000000" points="731,-880.2 731,-899.2 834,-899.2 834,-880.2 731,-880.2"/>
<text text-anchor="start" x="824.8862" y="-886.3" font-family="Helvetica,sans-Serif" font-size="11.00" fill="#000000"> &#160;</text>
<polygon fill="#ffffff" stroke="transparent" points="834,-880.2 834,-899.2 901,-899.2 901,-880.2 834,-880.2"/>
<polygon fill="none" stroke="#000000" points="834,-880.2 834,-899.2 901,-899.2 901,-880.2 834,-880.2"/>
<text text-anchor="start" x="882.4053" y="-886.3" font-family="Helvetica,sans-Serif" font-size="11.00" fill="#000000">0 &gt;</text>
<polygon fill="none" stroke="#000000" stroke-width="2" points="618,-879.2 618,-1033.2 902,-1033.2 902,-879.2 618,-879.2"/>
</a>
</g>
</g>
<!-- opportunities_cstm&#45;&gt;opportunities -->
<g id="edge39" class="edge">
<title>opportunities_cstm:w&#45;&gt;opportunities:e</title>
<path fill="none" stroke="#000000" d="M608.6865,-996.515C520.3403,-965.142 674.6511,-506.2 568.5,-506.2"/>
<polygon fill="#000000" stroke="#000000" points="618.8555,-994.1233 617.5655,-1002.0187 615.9864,-1001.7607 617.2764,-993.8653 618.8555,-994.1233"/>
<polyline fill="none" stroke="#000000" points="619,-998.2 615.0523,-997.555 "/>
<ellipse fill="none" stroke="#000000" cx="611.8942" cy="-997.039" rx="3.2" ry="3.2"/>
</g>
<!-- projects_opportunities -->
<g id="node19" class="node">
<title>projects_opportunities</title>
<g id="a_node19"><a xlink:href="../../tables/projects_opportunities.html" xlink:title="projects_opportunities" target="_top">
<polygon fill="#ffffff" stroke="transparent" points="685,-795.7 685,-856.7 835,-856.7 835,-795.7 685,-795.7"/>
<polygon fill="#f5f5f5" stroke="transparent" points="685,-833.2 685,-856.2 835,-856.2 835,-833.2 685,-833.2"/>
<polygon fill="none" stroke="#000000" points="685,-833.2 685,-856.2 835,-856.2 835,-833.2 685,-833.2"/>
<text text-anchor="start" x="689.7095" y="-842.3" font-family="Helvetica,sans-Serif" font-weight="bold" font-size="11.00" fill="#000000">projects_opportunities</text>
<text text-anchor="start" x="800.5219" y="-841.3" font-family="Helvetica,sans-Serif" font-size="11.00" fill="#000000">[table]</text>
<polygon fill="none" stroke="#000000" points="685,-814.2 685,-833.2 835,-833.2 835,-814.2 685,-814.2"/>
<text text-anchor="start" x="688" y="-820.3" font-family="Helvetica,sans-Serif" font-size="11.00" fill="#000000">...</text>
<polygon fill="#ffffff" stroke="transparent" points="685,-795.2 685,-814.2 758,-814.2 758,-795.2 685,-795.2"/>
<polygon fill="none" stroke="#000000" points="685,-795.2 685,-814.2 758,-814.2 758,-795.2 685,-795.2"/>
<text text-anchor="start" x="688" y="-801.3" font-family="Helvetica,sans-Serif" font-size="11.00" fill="#000000">&lt; 2</text>
<polygon fill="#ffffff" stroke="transparent" points="758,-795.2 758,-814.2 796,-814.2 796,-795.2 758,-795.2"/>
<polygon fill="none" stroke="#000000" points="758,-795.2 758,-814.2 796,-814.2 796,-795.2 758,-795.2"/>
<text text-anchor="start" x="786.8862" y="-801.3" font-family="Helvetica,sans-Serif" font-size="11.00" fill="#000000"> &#160;</text>
<polygon fill="#ffffff" stroke="transparent" points="796,-795.2 796,-814.2 835,-814.2 835,-795.2 796,-795.2"/>
<polygon fill="none" stroke="#000000" points="796,-795.2 796,-814.2 835,-814.2 835,-795.2 796,-795.2"/>
<text text-anchor="start" x="825.8862" y="-801.3" font-family="Helvetica,sans-Serif" font-size="11.00" fill="#000000"> &#160;</text>
</a>
</g>
</g>
<!-- projects_opportunities&#45;&gt;opportunities -->
<g id="edge40" class="edge">
<title>projects_opportunities:w&#45;&gt;opportunities:e</title>
<path fill="none" stroke="#000000" d="M670.3943,-822.595C642.0675,-819.988 627.9785,-808.5822 609,-781.2 573.8126,-730.4317 630.2703,-506.2 568.5,-506.2"/>
<polygon fill="#000000" stroke="#000000" points="677.0069,-822.8688 684.851,-826.7969 681.0034,-823.0344 685,-823.2 685,-823.2 685,-823.2 681.0034,-823.0344 685.149,-819.6031 677.0069,-822.8688 677.0069,-822.8688"/>
<ellipse fill="none" stroke="#000000" cx="673.8096" cy="-822.7364" rx="3.2" ry="3.2"/>
</g>
<!-- securitygroups_records -->
<g id="node20" class="node">
<title>securitygroups_records</title>
<g id="a_node20"><a xlink:href="../../tables/securitygroups_records.html" xlink:title="securitygroups_records" target="_top">
<polygon fill="#ffffff" stroke="transparent" points="1247,-606.7 1247,-667.7 1404,-667.7 1404,-606.7 1247,-606.7"/>
<polygon fill="#f5f5f5" stroke="transparent" points="1247.5,-644.2 1247.5,-667.2 1404.5,-667.2 1404.5,-644.2 1247.5,-644.2"/>
<polygon fill="none" stroke="#000000" points="1247.5,-644.2 1247.5,-667.2 1404.5,-667.2 1404.5,-644.2 1247.5,-644.2"/>
<text text-anchor="start" x="1252.3528" y="-653.3" font-family="Helvetica,sans-Serif" font-weight="bold" font-size="11.00" fill="#000000">securitygroups_records</text>
<text text-anchor="start" x="1370.0219" y="-652.3" font-family="Helvetica,sans-Serif" font-size="11.00" fill="#000000">[table]</text>
<polygon fill="none" stroke="#000000" points="1247.5,-625.2 1247.5,-644.2 1404.5,-644.2 1404.5,-625.2 1247.5,-625.2"/>
<text text-anchor="start" x="1250.5" y="-631.3" font-family="Helvetica,sans-Serif" font-size="11.00" fill="#000000">...</text>
<polygon fill="#ffffff" stroke="transparent" points="1247.5,-606.2 1247.5,-625.2 1327.5,-625.2 1327.5,-606.2 1247.5,-606.2"/>
<polygon fill="none" stroke="#000000" points="1247.5,-606.2 1247.5,-625.2 1327.5,-625.2 1327.5,-606.2 1247.5,-606.2"/>
<text text-anchor="start" x="1250.5" y="-612.3" font-family="Helvetica,sans-Serif" font-size="11.00" fill="#000000">&lt; 41</text>
<polygon fill="#ffffff" stroke="transparent" points="1327.5,-606.2 1327.5,-625.2 1365.5,-625.2 1365.5,-606.2 1327.5,-606.2"/>
<polygon fill="none" stroke="#000000" points="1327.5,-606.2 1327.5,-625.2 1365.5,-625.2 1365.5,-606.2 1327.5,-606.2"/>
<text text-anchor="start" x="1356.3862" y="-612.3" font-family="Helvetica,sans-Serif" font-size="11.00" fill="#000000"> &#160;</text>
<polygon fill="#ffffff" stroke="transparent" points="1365.5,-606.2 1365.5,-625.2 1404.5,-625.2 1404.5,-606.2 1365.5,-606.2"/>
<polygon fill="none" stroke="#000000" points="1365.5,-606.2 1365.5,-625.2 1404.5,-625.2 1404.5,-606.2 1365.5,-606.2"/>
<text text-anchor="start" x="1395.3862" y="-612.3" font-family="Helvetica,sans-Serif" font-size="11.00" fill="#000000"> &#160;</text>
</a>
</g>
</g>
<!-- securitygroups_records&#45;&gt;opportunities -->
<g id="edge50" class="edge">
<title>securitygroups_records:w&#45;&gt;opportunities:e</title>
<path fill="none" stroke="#000000" d="M1233.1588,-632.8221C1167.0521,-618.2863 1266.1072,-492.3678 1206,-428.2 1113.2873,-329.2239 1045.5426,-367.2349 911,-350.2 844.4204,-341.7701 662.0833,-309.1382 609,-350.2 552.341,-394.0277 640.1318,-506.2 568.5,-506.2"/>
<polygon fill="#000000" stroke="#000000" points="1239.5367,-633.4348 1247.1557,-637.7835 1243.5183,-633.8174 1247.5,-634.2 1247.5,-634.2 1247.5,-634.2 1243.5183,-633.8174 1247.8443,-630.6165 1239.5367,-633.4348 1239.5367,-633.4348"/>
<ellipse fill="none" stroke="#000000" cx="1236.3513" cy="-633.1287" rx="3.2" ry="3.2"/>
</g>
<!-- securitygroups_records&#45;&gt;aos_contracts -->
<g id="edge41" class="edge">
<title>securitygroups_records:w&#45;&gt;aos_contracts:e</title>
<path fill="none" stroke="#000000" d="M1232.8314,-634.2256C1109.3971,-634.6727 1072.833,-641.0699 944,-661.2 886.7311,-670.1483 873.9638,-686.2 816,-686.2"/>
<polygon fill="#000000" stroke="#000000" points="1239.5,-634.214 1247.5063,-637.8 1243.5,-634.207 1247.5,-634.2 1247.5,-634.2 1247.5,-634.2 1243.5,-634.207 1247.4937,-630.6 1239.5,-634.214 1239.5,-634.214"/>
<ellipse fill="none" stroke="#000000" cx="1236.3" cy="-634.2196" rx="3.2" ry="3.2"/>
</g>
<!-- securitygroups_records&#45;&gt;aos_quotes -->
<g id="edge42" class="edge">
<title>securitygroups_records:w&#45;&gt;aos_quotes:e</title>
<path fill="none" stroke="#000000" d="M1233.7477,-629.2193C1185.2642,-587.6708 1262.7692,-300.2 1193,-300.2"/>
<polygon fill="#000000" stroke="#000000" points="1239.9781,-631.4758 1246.2741,-637.5848 1243.7391,-632.8379 1247.5,-634.2 1247.5,-634.2 1247.5,-634.2 1243.7391,-632.8379 1248.7259,-630.8152 1239.9781,-631.4758 1239.9781,-631.4758"/>
<ellipse fill="none" stroke="#000000" cx="1236.9694" cy="-630.3861" rx="3.2" ry="3.2"/>
</g>
<!-- securitygroups_records&#45;&gt;calls -->
<g id="edge43" class="edge">
<title>securitygroups_records:w&#45;&gt;calls:e</title>
<path fill="none" stroke="#000000" d="M1233.3604,-631.3238C1185.6839,-619.6206 1038.4364,-576.2 1027.5,-576.2"/>
<polygon fill="#000000" stroke="#000000" points="1239.6605,-632.6053 1246.7824,-637.7278 1243.5803,-633.4026 1247.5,-634.2 1247.5,-634.2 1247.5,-634.2 1243.5803,-633.4026 1248.2176,-630.6722 1239.6605,-632.6053 1239.6605,-632.6053"/>
<ellipse fill="none" stroke="#000000" cx="1236.5248" cy="-631.9674" rx="3.2" ry="3.2"/>
</g>
<!-- securitygroups_records&#45;&gt;leads -->
<g id="edge47" class="edge">
<title>securitygroups_records:w&#45;&gt;leads:e</title>
<path fill="none" stroke="#000000" d="M1232.9572,-635.7683C1181.6033,-648.5901 1238.6349,-737.2672 1206,-799.2 1114.1357,-973.5352 1088.685,-1044.9952 911,-1130.2 813.1427,-1177.1252 520.9883,-1195.851 423,-1149.2 321.1576,-1100.7141 304.3607,-1057.1383 263,-952.2 238.9863,-891.2735 287.9881,-364.2 222.5,-364.2"/>
<polygon fill="#000000" stroke="#000000" points="1239.5461,-635.0578 1247.886,-637.7792 1243.5231,-634.6289 1247.5,-634.2 1247.5,-634.2 1247.5,-634.2 1243.5231,-634.6289 1247.114,-630.6208 1239.5461,-635.0578 1239.5461,-635.0578"/>
<ellipse fill="none" stroke="#000000" cx="1236.3646" cy="-635.4009" rx="3.2" ry="3.2"/>
</g>
<!-- securitygroups_records&#45;&gt;campaigns -->
<g id="edge44" class="edge">
<title>securitygroups_records:w&#45;&gt;campaigns:e</title>
<path fill="none" stroke="#000000" d="M1236.3608,-624.8351C1206.5889,-567.734 1224.0922,-267.665 1206,-231.2 1149.0497,-116.4164 1123.6352,-34.2 995.5,-34.2 995.5,-34.2 995.5,-34.2 326.5,-34.2 274.3927,-34.2 156.1073,-108.2 104,-108.2"/>
<polygon fill="#000000" stroke="#000000" points="1241.3765,-629.0519 1245.1833,-636.9556 1244.4383,-631.6259 1247.5,-634.2 1247.5,-634.2 1247.5,-634.2 1244.4383,-631.6259 1249.8167,-631.4444 1241.3765,-629.0519 1241.3765,-629.0519"/>
<ellipse fill="none" stroke="#000000" cx="1238.9271" cy="-626.9926" rx="3.2" ry="3.2"/>
</g>
<!-- securitygroups_records&#45;&gt;emails -->
<g id="edge45" class="edge">
<title>securitygroups_records:w&#45;&gt;emails:e</title>
<path fill="none" stroke="#000000" d="M1233.2696,-630.2118C1177.0758,-593.6147 1261.7442,-316.2649 1206,-262.2 1150.4669,-208.3398 1109.8617,-248.2 1032.5,-248.2"/>
<polygon fill="#000000" stroke="#000000" points="1239.7968,-632.0411 1246.5285,-637.6664 1243.6484,-633.1205 1247.5,-634.2 1247.5,-634.2 1247.5,-634.2 1243.6484,-633.1205 1248.4715,-630.7336 1239.7968,-632.0411 1239.7968,-632.0411"/>
<ellipse fill="none" stroke="#000000" cx="1236.7155" cy="-631.1775" rx="3.2" ry="3.2"/>
</g>
<!-- securitygroups_records&#45;&gt;meetings -->
<g id="edge48" class="edge">
<title>securitygroups_records:w&#45;&gt;meetings:e</title>
<path fill="none" stroke="#000000" d="M1233.2177,-636.5852C1200.1771,-650.2795 1241.6876,-719.6069 1206,-757.2 1151.1951,-814.931 1119.1018,-823.2 1039.5,-823.2"/>
<polygon fill="#000000" stroke="#000000" points="1239.6093,-635.5178 1248.093,-637.7508 1243.5546,-634.8589 1247.5,-634.2 1247.5,-634.2 1247.5,-634.2 1243.5546,-634.8589 1246.907,-630.6492 1239.6093,-635.5178 1239.6093,-635.5178"/>
<ellipse fill="none" stroke="#000000" cx="1236.453" cy="-636.0449" rx="3.2" ry="3.2"/>
</g>
<!-- securitygroups_records&#45;&gt;tasks -->
<g id="edge51" class="edge">
<title>securitygroups_records:w&#45;&gt;tasks:e</title>
<path fill="none" stroke="#000000" d="M1233.3334,-637.6051C1193.0035,-647.4041 1080.4449,-674.9891 1080,-675.2 1054.6173,-687.2294 1057.5889,-713.2 1029.5,-713.2"/>
<polygon fill="#000000" stroke="#000000" points="1239.7215,-636.0697 1248.3414,-637.7003 1243.6108,-635.1349 1247.5,-634.2 1247.5,-634.2 1247.5,-634.2 1243.6108,-635.1349 1246.6586,-630.6997 1239.7215,-636.0697 1239.7215,-636.0697"/>
<ellipse fill="none" stroke="#000000" cx="1236.6102" cy="-636.8176" rx="3.2" ry="3.2"/>
</g>
<!-- securitygroups_records&#45;&gt;jjwg_maps -->
<g id="edge46" class="edge">
<title>securitygroups_records:w&#45;&gt;jjwg_maps:e</title>
<path fill="none" stroke="#000000" d="M1233.5502,-638.8628C1191.7367,-671.0612 1227.0515,-860.6962 1206,-914.2 1145.5612,-1067.8092 1160.5716,-1220.2 995.5,-1220.2 995.5,-1220.2 995.5,-1220.2 326.5,-1220.2 243.6039,-1220.2 165.2705,-1052.8413 145,-1012.2 116.9541,-955.9695 165.8366,-877.2 103,-877.2"/>
<polygon fill="#000000" stroke="#000000" points="1239.9126,-636.7362 1248.6413,-637.6143 1243.7063,-635.4681 1247.5,-634.2 1247.5,-634.2 1247.5,-634.2 1243.7063,-635.4681 1246.3587,-630.7857 1239.9126,-636.7362 1239.9126,-636.7362"/>
<ellipse fill="none" stroke="#000000" cx="1236.8777" cy="-637.7506" rx="3.2" ry="3.2"/>
</g>
<!-- securitygroups_records&#45;&gt;notes -->
<g id="edge49" class="edge">
<title>securitygroups_records:w&#45;&gt;notes:e</title>
<path fill="none" stroke="#000000" d="M1233.3742,-637.3947C1205.517,-652.1744 1219.1016,-713.2 1178,-713.2"/>
<polygon fill="#000000" stroke="#000000" points="1239.6971,-635.9648 1248.2942,-637.7113 1243.5985,-635.0824 1247.5,-634.2 1247.5,-634.2 1247.5,-634.2 1243.5985,-635.0824 1246.7058,-630.6887 1239.6971,-635.9648 1239.6971,-635.9648"/>
<ellipse fill="none" stroke="#000000" cx="1236.5759" cy="-636.6707" rx="3.2" ry="3.2"/>
</g>
</g>
</svg>
