<?xml version="1.0" encoding="UTF-8" standalone="no"?>
<!DOCTYPE svg PUBLIC "-//W3C//DTD SVG 1.1//EN"
 "http://www.w3.org/Graphics/SVG/1.1/DTD/svg11.dtd">
<!-- Generated by graphviz version 2.40.1 (20161225.0304)
 -->
<!-- Title: oneDegreeRelationshipsDiagram Pages: 1 -->
<svg width="532pt" height="567pt"
 viewBox="0.00 0.00 532.00 567.20" xmlns="http://www.w3.org/2000/svg" xmlns:xlink="http://www.w3.org/1999/xlink">
<g id="graph0" class="graph" transform="scale(1 1) rotate(0) translate(4 563.2)">
<title>oneDegreeRelationshipsDiagram</title>
<polygon fill="#ffffff" stroke="transparent" points="-4,4 -4,-563.2 528,-563.2 528,4 -4,4"/>
<text text-anchor="middle" x="72.4936" y="-7.3" font-family="Helvetica,sans-Serif" font-size="11.00" fill="#000000">Generated by SchemaSpy</text>
<!-- opportunities_contacts -->
<g id="node1" class="node">
<title>opportunities_contacts</title>
<g id="a_node1"><a xlink:href="../../tables/opportunities_contacts.html" xlink:title="opportunities_contacts" target="_top">
<polygon fill="#ffffff" stroke="transparent" points="270,-271.7 270,-449.7 516,-449.7 516,-271.7 270,-271.7"/>
<polygon fill="#f5f5f5" stroke="transparent" points="272,-424.7 272,-447.7 514,-447.7 514,-424.7 272,-424.7"/>
<polygon fill="none" stroke="#000000" points="272,-424.7 272,-447.7 514,-447.7 514,-424.7 272,-424.7"/>
<text text-anchor="start" x="277" y="-433.8" font-family="Helvetica,sans-Serif" font-weight="bold" font-size="11.00" fill="#000000">opportunities_contacts</text>
<text text-anchor="start" x="479.0437" y="-432.8" font-family="Helvetica,sans-Serif" font-size="11.00" fill="#000000">[table]</text>
<polygon fill="none" stroke="#000000" points="272,-402.7 272,-424.7 448,-424.7 448,-402.7 272,-402.7"/>
<image xlink:href="../../images/primaryKeys.png" width="11px" height="12px" preserveAspectRatio="xMinYMin meet" x="277" y="-419.7"/>
<text text-anchor="start" x="292" y="-409.8" font-family="Helvetica,sans-Serif" font-size="11.00" fill="#000000">id</text>
<polygon fill="none" stroke="#000000" points="448,-402.7 448,-424.7 514,-424.7 514,-402.7 448,-402.7"/>
<text text-anchor="start" x="451" y="-410.4" font-family="Helvetica,sans-Serif" font-size="11.00" fill="#000000">varchar[36]</text>
<polygon fill="#ffffff" stroke="transparent" points="272,-380.7 272,-402.7 448,-402.7 448,-380.7 272,-380.7"/>
<polygon fill="none" stroke="#000000" points="272,-380.7 272,-402.7 448,-402.7 448,-380.7 272,-380.7"/>
<image xlink:href="../../images/foreignKeys.png" width="11px" height="12px" preserveAspectRatio="xMinYMin meet" x="277" y="-397.7"/>
<text text-anchor="start" x="292" y="-387.8" font-family="Helvetica,sans-Serif" font-size="11.00" fill="#000000">contact_id</text>
<polygon fill="none" stroke="#000000" points="448,-380.7 448,-402.7 514,-402.7 514,-380.7 448,-380.7"/>
<text text-anchor="start" x="451" y="-388.4" font-family="Helvetica,sans-Serif" font-size="11.00" fill="#000000">varchar[36]</text>
<polygon fill="#ffffff" stroke="transparent" points="272,-358.7 272,-380.7 448,-380.7 448,-358.7 272,-358.7"/>
<polygon fill="none" stroke="#000000" points="272,-358.7 272,-380.7 448,-380.7 448,-358.7 272,-358.7"/>
<image xlink:href="../../images/foreignKeys.png" width="11px" height="12px" preserveAspectRatio="xMinYMin meet" x="277" y="-375.7"/>
<text text-anchor="start" x="292" y="-365.8" font-family="Helvetica,sans-Serif" font-size="11.00" fill="#000000">opportunity_id</text>
<polygon fill="none" stroke="#000000" points="448,-358.7 448,-380.7 514,-380.7 514,-358.7 448,-358.7"/>
<text text-anchor="start" x="451" y="-366.4" font-family="Helvetica,sans-Serif" font-size="11.00" fill="#000000">varchar[36]</text>
<polygon fill="none" stroke="#000000" points="272,-336.7 272,-358.7 448,-358.7 448,-336.7 272,-336.7"/>
<text text-anchor="start" x="292" y="-343.8" font-family="Helvetica,sans-Serif" font-size="11.00" fill="#000000">contact_role</text>
<polygon fill="none" stroke="#000000" points="448,-336.7 448,-358.7 514,-358.7 514,-336.7 448,-336.7"/>
<text text-anchor="start" x="451" y="-344.4" font-family="Helvetica,sans-Serif" font-size="11.00" fill="#000000">varchar[50]</text>
<polygon fill="none" stroke="#000000" points="272,-314.7 272,-336.7 448,-336.7 448,-314.7 272,-314.7"/>
<text text-anchor="start" x="292" y="-321.8" font-family="Helvetica,sans-Serif" font-size="11.00" fill="#000000">date_modified</text>
<polygon fill="none" stroke="#000000" points="448,-314.7 448,-336.7 514,-336.7 514,-314.7 448,-314.7"/>
<text text-anchor="start" x="450.7401" y="-322.4" font-family="Helvetica,sans-Serif" font-size="11.00" fill="#000000">datetime[26]</text>
<polygon fill="none" stroke="#000000" points="272,-292.7 272,-314.7 448,-314.7 448,-292.7 272,-292.7"/>
<text text-anchor="start" x="292" y="-299.8" font-family="Helvetica,sans-Serif" font-size="11.00" fill="#000000">deleted</text>
<polygon fill="none" stroke="#000000" points="448,-292.7 448,-314.7 514,-314.7 514,-292.7 448,-292.7"/>
<text text-anchor="start" x="451" y="-300.4" font-family="Helvetica,sans-Serif" font-size="11.00" fill="#000000">bit[1]</text>
<polygon fill="#ffffff" stroke="transparent" points="272,-273.7 272,-292.7 364,-292.7 364,-273.7 272,-273.7"/>
<polygon fill="none" stroke="#000000" points="272,-273.7 272,-292.7 364,-292.7 364,-273.7 272,-273.7"/>
<text text-anchor="start" x="275" y="-279.8" font-family="Helvetica,sans-Serif" font-size="11.00" fill="#000000">&lt; 2</text>
<polygon fill="#ffffff" stroke="transparent" points="364,-273.7 364,-292.7 448,-292.7 448,-273.7 364,-273.7"/>
<polygon fill="none" stroke="#000000" points="364,-273.7 364,-292.7 448,-292.7 448,-273.7 364,-273.7"/>
<text text-anchor="start" x="438.8862" y="-279.8" font-family="Helvetica,sans-Serif" font-size="11.00" fill="#000000"> &#160;</text>
<polygon fill="#ffffff" stroke="transparent" points="448,-273.7 448,-292.7 514,-292.7 514,-273.7 448,-273.7"/>
<polygon fill="none" stroke="#000000" points="448,-273.7 448,-292.7 514,-292.7 514,-273.7 448,-273.7"/>
<text text-anchor="start" x="495.4053" y="-279.8" font-family="Helvetica,sans-Serif" font-size="11.00" fill="#000000">0 &gt;</text>
<polygon fill="none" stroke="#000000" stroke-width="2" points="271,-272.7 271,-448.7 515,-448.7 515,-272.7 271,-272.7"/>
</a>
</g>
</g>
<!-- contacts -->
<g id="node2" class="node">
<title>contacts</title>
<g id="a_node2"><a xlink:href="../../tables/contacts.html" xlink:title="contacts" target="_top">
<polygon fill="#ffffff" stroke="transparent" points="8,-296.2 8,-555.2 221,-555.2 221,-296.2 8,-296.2"/>
<polygon fill="#f5f5f5" stroke="transparent" points="8.5,-531.7 8.5,-554.7 221.5,-554.7 221.5,-531.7 8.5,-531.7"/>
<polygon fill="none" stroke="#000000" points="8.5,-531.7 8.5,-554.7 221.5,-554.7 221.5,-531.7 8.5,-531.7"/>
<text text-anchor="start" x="13.5" y="-540.8" font-family="Helvetica,sans-Serif" font-weight="bold" font-size="11.00" fill="#000000">contacts</text>
<text text-anchor="start" x="186.5437" y="-539.8" font-family="Helvetica,sans-Serif" font-size="11.00" fill="#000000">[table]</text>
<polygon fill="none" stroke="#000000" points="8.5,-509.7 8.5,-531.7 221.5,-531.7 221.5,-509.7 8.5,-509.7"/>
<image xlink:href="../../images/primaryKeys.png" width="11px" height="12px" preserveAspectRatio="xMinYMin meet" x="13.5" y="-526.7"/>
<text text-anchor="start" x="28.5" y="-516.8" font-family="Helvetica,sans-Serif" font-size="11.00" fill="#000000">id</text>
<polygon fill="#c0c0c0" stroke="transparent" points="8.5,-487.7 8.5,-509.7 221.5,-509.7 221.5,-487.7 8.5,-487.7"/>
<polygon fill="none" stroke="#000000" points="8.5,-487.7 8.5,-509.7 221.5,-509.7 221.5,-487.7 8.5,-487.7"/>
<image xlink:href="../../images/foreignKeys.png" width="11px" height="12px" preserveAspectRatio="xMinYMin meet" x="13.5" y="-504.7"/>
<text text-anchor="start" x="28.5" y="-494.8" font-family="Helvetica,sans-Serif" font-size="11.00" fill="#000000">modified_user_id</text>
<polygon fill="#c0c0c0" stroke="transparent" points="8.5,-465.7 8.5,-487.7 221.5,-487.7 221.5,-465.7 8.5,-465.7"/>
<polygon fill="none" stroke="#000000" points="8.5,-465.7 8.5,-487.7 221.5,-487.7 221.5,-465.7 8.5,-465.7"/>
<image xlink:href="../../images/foreignKeys.png" width="11px" height="12px" preserveAspectRatio="xMinYMin meet" x="13.5" y="-482.7"/>
<text text-anchor="start" x="28.5" y="-472.8" font-family="Helvetica,sans-Serif" font-size="11.00" fill="#000000">created_by</text>
<polygon fill="#ffffff" stroke="transparent" points="8.5,-443.7 8.5,-465.7 221.5,-465.7 221.5,-443.7 8.5,-443.7"/>
<polygon fill="none" stroke="#000000" points="8.5,-443.7 8.5,-465.7 221.5,-465.7 221.5,-443.7 8.5,-443.7"/>
<text text-anchor="start" x="28.5" y="-450.8" font-family="Helvetica,sans-Serif" font-size="11.00" fill="#000000">deleted</text>
<polygon fill="#c0c0c0" stroke="transparent" points="8.5,-421.7 8.5,-443.7 221.5,-443.7 221.5,-421.7 8.5,-421.7"/>
<polygon fill="none" stroke="#000000" points="8.5,-421.7 8.5,-443.7 221.5,-443.7 221.5,-421.7 8.5,-421.7"/>
<image xlink:href="../../images/foreignKeys.png" width="11px" height="12px" preserveAspectRatio="xMinYMin meet" x="13.5" y="-438.7"/>
<text text-anchor="start" x="28.5" y="-428.8" font-family="Helvetica,sans-Serif" font-size="11.00" fill="#000000">assigned_user_id</text>
<polygon fill="#ffffff" stroke="transparent" points="8.5,-399.7 8.5,-421.7 221.5,-421.7 221.5,-399.7 8.5,-399.7"/>
<polygon fill="none" stroke="#000000" points="8.5,-399.7 8.5,-421.7 221.5,-421.7 221.5,-399.7 8.5,-399.7"/>
<text text-anchor="start" x="28.5" y="-406.8" font-family="Helvetica,sans-Serif" font-size="11.00" fill="#000000">first_name</text>
<polygon fill="#ffffff" stroke="transparent" points="8.5,-377.7 8.5,-399.7 221.5,-399.7 221.5,-377.7 8.5,-377.7"/>
<polygon fill="none" stroke="#000000" points="8.5,-377.7 8.5,-399.7 221.5,-399.7 221.5,-377.7 8.5,-377.7"/>
<text text-anchor="start" x="28.5" y="-384.8" font-family="Helvetica,sans-Serif" font-size="11.00" fill="#000000">last_name</text>
<polygon fill="#ffffff" stroke="transparent" points="8.5,-355.7 8.5,-377.7 221.5,-377.7 221.5,-355.7 8.5,-355.7"/>
<polygon fill="none" stroke="#000000" points="8.5,-355.7 8.5,-377.7 221.5,-377.7 221.5,-355.7 8.5,-355.7"/>
<image xlink:href="../../images/foreignKeys.png" width="11px" height="12px" preserveAspectRatio="xMinYMin meet" x="13.5" y="-372.7"/>
<text text-anchor="start" x="28.5" y="-362.8" font-family="Helvetica,sans-Serif" font-size="11.00" fill="#000000">reports_to_id</text>
<polygon fill="none" stroke="#000000" points="8.5,-333.7 8.5,-355.7 221.5,-355.7 221.5,-333.7 8.5,-333.7"/>
<image xlink:href="../../images/foreignKeys.png" width="11px" height="12px" preserveAspectRatio="xMinYMin meet" x="13.5" y="-350.7"/>
<text text-anchor="start" x="28.5" y="-340.8" font-family="Helvetica,sans-Serif" font-size="11.00" fill="#000000">campaign_id</text>
<polygon fill="none" stroke="#000000" points="8.5,-314.7 8.5,-333.7 221.5,-333.7 221.5,-314.7 8.5,-314.7"/>
<text text-anchor="start" x="11.5" y="-320.8" font-family="Helvetica,sans-Serif" font-size="11.00" fill="#000000">...</text>
<polygon fill="#ffffff" stroke="transparent" points="8.5,-295.7 8.5,-314.7 105.5,-314.7 105.5,-295.7 8.5,-295.7"/>
<polygon fill="none" stroke="#000000" points="8.5,-295.7 8.5,-314.7 105.5,-314.7 105.5,-295.7 8.5,-295.7"/>
<text text-anchor="start" x="11.5" y="-301.8" font-family="Helvetica,sans-Serif" font-size="11.00" fill="#000000">&lt; 7</text>
<polygon fill="#ffffff" stroke="transparent" points="105.5,-295.7 105.5,-314.7 155.5,-314.7 155.5,-295.7 105.5,-295.7"/>
<polygon fill="none" stroke="#000000" points="105.5,-295.7 105.5,-314.7 155.5,-314.7 155.5,-295.7 105.5,-295.7"/>
<text text-anchor="start" x="146.3862" y="-301.8" font-family="Helvetica,sans-Serif" font-size="11.00" fill="#000000"> &#160;</text>
<polygon fill="#ffffff" stroke="transparent" points="155.5,-295.7 155.5,-314.7 221.5,-314.7 221.5,-295.7 155.5,-295.7"/>
<polygon fill="none" stroke="#000000" points="155.5,-295.7 155.5,-314.7 221.5,-314.7 221.5,-295.7 155.5,-295.7"/>
<text text-anchor="start" x="196.7904" y="-301.8" font-family="Helvetica,sans-Serif" font-size="11.00" fill="#000000">30 &gt;</text>
</a>
</g>
</g>
<!-- opportunities_contacts&#45;&gt;contacts -->
<g id="edge1" class="edge">
<title>opportunities_contacts:w&#45;&gt;contacts:e</title>
<path fill="none" stroke="#000000" d="M257.5517,-395.1504C223.3376,-415.6651 277.0573,-520.7 221.5,-520.7"/>
<polygon fill="#000000" stroke="#000000" points="264.2188,-393.5583 272.8362,-395.2015 268.1094,-392.6291 272,-391.7 272,-391.7 272,-391.7 268.1094,-392.6291 271.1638,-388.1985 264.2188,-393.5583 264.2188,-393.5583"/>
<ellipse fill="none" stroke="#000000" cx="261.1063" cy="-394.3016" rx="3.2" ry="3.2"/>
</g>
<!-- opportunities -->
<g id="node3" class="node">
<title>opportunities</title>
<g id="a_node3"><a xlink:href="../../tables/opportunities.html" xlink:title="opportunities" target="_top">
<polygon fill="#ffffff" stroke="transparent" points="46,-38.2 46,-275.2 183,-275.2 183,-38.2 46,-38.2"/>
<polygon fill="#f5f5f5" stroke="transparent" points="46.5,-251.7 46.5,-274.7 183.5,-274.7 183.5,-251.7 46.5,-251.7"/>
<polygon fill="none" stroke="#000000" points="46.5,-251.7 46.5,-274.7 183.5,-274.7 183.5,-251.7 46.5,-251.7"/>
<text text-anchor="start" x="51.5" y="-260.8" font-family="Helvetica,sans-Serif" font-weight="bold" font-size="11.00" fill="#000000">opportunities</text>
<text text-anchor="start" x="148.5437" y="-259.8" font-family="Helvetica,sans-Serif" font-size="11.00" fill="#000000">[table]</text>
<polygon fill="none" stroke="#000000" points="46.5,-229.7 46.5,-251.7 183.5,-251.7 183.5,-229.7 46.5,-229.7"/>
<image xlink:href="../../images/primaryKeys.png" width="11px" height="12px" preserveAspectRatio="xMinYMin meet" x="51.5" y="-246.7"/>
<text text-anchor="start" x="66.5" y="-236.8" font-family="Helvetica,sans-Serif" font-size="11.00" fill="#000000">id</text>
<polygon fill="#ffffff" stroke="transparent" points="46.5,-207.7 46.5,-229.7 183.5,-229.7 183.5,-207.7 46.5,-207.7"/>
<polygon fill="none" stroke="#000000" points="46.5,-207.7 46.5,-229.7 183.5,-229.7 183.5,-207.7 46.5,-207.7"/>
<text text-anchor="start" x="66.5" y="-214.8" font-family="Helvetica,sans-Serif" font-size="11.00" fill="#000000">name</text>
<polygon fill="#c0c0c0" stroke="transparent" points="46.5,-185.7 46.5,-207.7 183.5,-207.7 183.5,-185.7 46.5,-185.7"/>
<polygon fill="none" stroke="#000000" points="46.5,-185.7 46.5,-207.7 183.5,-207.7 183.5,-185.7 46.5,-185.7"/>
<image xlink:href="../../images/foreignKeys.png" width="11px" height="12px" preserveAspectRatio="xMinYMin meet" x="51.5" y="-202.7"/>
<text text-anchor="start" x="66.5" y="-192.8" font-family="Helvetica,sans-Serif" font-size="11.00" fill="#000000">modified_user_id</text>
<polygon fill="#c0c0c0" stroke="transparent" points="46.5,-163.7 46.5,-185.7 183.5,-185.7 183.5,-163.7 46.5,-163.7"/>
<polygon fill="none" stroke="#000000" points="46.5,-163.7 46.5,-185.7 183.5,-185.7 183.5,-163.7 46.5,-163.7"/>
<image xlink:href="../../images/foreignKeys.png" width="11px" height="12px" preserveAspectRatio="xMinYMin meet" x="51.5" y="-180.7"/>
<text text-anchor="start" x="66.5" y="-170.8" font-family="Helvetica,sans-Serif" font-size="11.00" fill="#000000">created_by</text>
<polygon fill="#ffffff" stroke="transparent" points="46.5,-141.7 46.5,-163.7 183.5,-163.7 183.5,-141.7 46.5,-141.7"/>
<polygon fill="none" stroke="#000000" points="46.5,-141.7 46.5,-163.7 183.5,-163.7 183.5,-141.7 46.5,-141.7"/>
<text text-anchor="start" x="66.5" y="-148.8" font-family="Helvetica,sans-Serif" font-size="11.00" fill="#000000">deleted</text>
<polygon fill="#c0c0c0" stroke="transparent" points="46.5,-119.7 46.5,-141.7 183.5,-141.7 183.5,-119.7 46.5,-119.7"/>
<polygon fill="none" stroke="#000000" points="46.5,-119.7 46.5,-141.7 183.5,-141.7 183.5,-119.7 46.5,-119.7"/>
<image xlink:href="../../images/foreignKeys.png" width="11px" height="12px" preserveAspectRatio="xMinYMin meet" x="51.5" y="-136.7"/>
<text text-anchor="start" x="66.5" y="-126.8" font-family="Helvetica,sans-Serif" font-size="11.00" fill="#000000">assigned_user_id</text>
<polygon fill="none" stroke="#000000" points="46.5,-97.7 46.5,-119.7 183.5,-119.7 183.5,-97.7 46.5,-97.7"/>
<image xlink:href="../../images/foreignKeys.png" width="11px" height="12px" preserveAspectRatio="xMinYMin meet" x="51.5" y="-114.7"/>
<text text-anchor="start" x="66.5" y="-104.8" font-family="Helvetica,sans-Serif" font-size="11.00" fill="#000000">campaign_id</text>
<polygon fill="none" stroke="#000000" points="46.5,-75.7 46.5,-97.7 183.5,-97.7 183.5,-75.7 46.5,-75.7"/>
<image xlink:href="../../images/primaryKeys.png" width="11px" height="12px" preserveAspectRatio="xMinYMin meet" x="51.5" y="-92.7"/>
<text text-anchor="start" x="66.5" y="-82.8" font-family="Helvetica,sans-Serif" font-size="11.00" fill="#000000">currency_id</text>
<polygon fill="none" stroke="#000000" points="46.5,-56.7 46.5,-75.7 183.5,-75.7 183.5,-56.7 46.5,-56.7"/>
<text text-anchor="start" x="49.5" y="-62.8" font-family="Helvetica,sans-Serif" font-size="11.00" fill="#000000">...</text>
<polygon fill="#ffffff" stroke="transparent" points="46.5,-37.7 46.5,-56.7 105.5,-56.7 105.5,-37.7 46.5,-37.7"/>
<polygon fill="none" stroke="#000000" points="46.5,-37.7 46.5,-56.7 105.5,-56.7 105.5,-37.7 46.5,-37.7"/>
<text text-anchor="start" x="49.5" y="-43.8" font-family="Helvetica,sans-Serif" font-size="11.00" fill="#000000">&lt; 6</text>
<polygon fill="#ffffff" stroke="transparent" points="105.5,-37.7 105.5,-56.7 136.5,-56.7 136.5,-37.7 105.5,-37.7"/>
<polygon fill="none" stroke="#000000" points="105.5,-37.7 105.5,-56.7 136.5,-56.7 136.5,-37.7 105.5,-37.7"/>
<text text-anchor="start" x="127.3862" y="-43.8" font-family="Helvetica,sans-Serif" font-size="11.00" fill="#000000"> &#160;</text>
<polygon fill="#ffffff" stroke="transparent" points="136.5,-37.7 136.5,-56.7 183.5,-56.7 183.5,-37.7 136.5,-37.7"/>
<polygon fill="none" stroke="#000000" points="136.5,-37.7 136.5,-56.7 183.5,-56.7 183.5,-37.7 136.5,-37.7"/>
<text text-anchor="start" x="158.7904" y="-43.8" font-family="Helvetica,sans-Serif" font-size="11.00" fill="#000000">17 &gt;</text>
</a>
</g>
</g>
<!-- opportunities_contacts&#45;&gt;opportunities -->
<g id="edge2" class="edge">
<title>opportunities_contacts:w&#45;&gt;opportunities:e</title>
<path fill="none" stroke="#000000" d="M257.5849,-366.7572C235.9024,-355.5413 250.1965,-314.6483 229,-285.7 212.1971,-262.7522 211.9418,-240.7 183.5,-240.7"/>
<polygon fill="#000000" stroke="#000000" points="264.1617,-368.0998 271.2799,-373.2273 268.0808,-368.8999 272,-369.7 272,-369.7 272,-369.7 268.0808,-368.8999 272.7201,-366.1727 264.1617,-368.0998 264.1617,-368.0998"/>
<ellipse fill="none" stroke="#000000" cx="261.0263" cy="-367.4597" rx="3.2" ry="3.2"/>
</g>
</g>
</svg>
