<?xml version="1.0" encoding="UTF-8" standalone="no"?>
<!DOCTYPE svg PUBLIC "-//W3C//DTD SVG 1.1//EN"
 "http://www.w3.org/Graphics/SVG/1.1/DTD/svg11.dtd">
<!-- Generated by graphviz version 2.40.1 (20161225.0304)
 -->
<!-- Title: oneDegreeRelationshipsDiagram Pages: 1 -->
<svg width="447pt" height="457pt"
 viewBox="0.00 0.00 447.00 457.20" xmlns="http://www.w3.org/2000/svg" xmlns:xlink="http://www.w3.org/1999/xlink">
<g id="graph0" class="graph" transform="scale(1 1) rotate(0) translate(4 453.2)">
<title>oneDegreeRelationshipsDiagram</title>
<polygon fill="#ffffff" stroke="transparent" points="-4,4 -4,-453.2 443,-453.2 443,4 -4,4"/>
<text text-anchor="middle" x="72.4936" y="-7.3" font-family="Helvetica,sans-Serif" font-size="11.00" fill="#000000">Generated by SchemaSpy</text>
<!-- projects_bugs -->
<g id="node1" class="node">
<title>projects_bugs</title>
<g id="a_node1"><a xlink:href="../../tables/projects_bugs.html" xlink:title="projects_bugs" target="_top">
<polygon fill="#ffffff" stroke="transparent" points="244,-194.7 244,-350.7 431,-350.7 431,-194.7 244,-194.7"/>
<polygon fill="#f5f5f5" stroke="transparent" points="246.5,-325.7 246.5,-348.7 429.5,-348.7 429.5,-325.7 246.5,-325.7"/>
<polygon fill="none" stroke="#000000" points="246.5,-325.7 246.5,-348.7 429.5,-348.7 429.5,-325.7 246.5,-325.7"/>
<text text-anchor="start" x="251.5" y="-334.8" font-family="Helvetica,sans-Serif" font-weight="bold" font-size="11.00" fill="#000000">projects_bugs</text>
<text text-anchor="start" x="394.5437" y="-333.8" font-family="Helvetica,sans-Serif" font-size="11.00" fill="#000000">[table]</text>
<polygon fill="none" stroke="#000000" points="246.5,-303.7 246.5,-325.7 363.5,-325.7 363.5,-303.7 246.5,-303.7"/>
<image xlink:href="../../images/primaryKeys.png" width="11px" height="12px" preserveAspectRatio="xMinYMin meet" x="251.5" y="-320.7"/>
<text text-anchor="start" x="266.5" y="-310.8" font-family="Helvetica,sans-Serif" font-size="11.00" fill="#000000">id</text>
<polygon fill="none" stroke="#000000" points="363.5,-303.7 363.5,-325.7 429.5,-325.7 429.5,-303.7 363.5,-303.7"/>
<text text-anchor="start" x="366.5" y="-311.4" font-family="Helvetica,sans-Serif" font-size="11.00" fill="#000000">varchar[36]</text>
<polygon fill="#ffffff" stroke="transparent" points="246.5,-281.7 246.5,-303.7 363.5,-303.7 363.5,-281.7 246.5,-281.7"/>
<polygon fill="none" stroke="#000000" points="246.5,-281.7 246.5,-303.7 363.5,-303.7 363.5,-281.7 246.5,-281.7"/>
<image xlink:href="../../images/foreignKeys.png" width="11px" height="12px" preserveAspectRatio="xMinYMin meet" x="251.5" y="-298.7"/>
<text text-anchor="start" x="266.5" y="-288.8" font-family="Helvetica,sans-Serif" font-size="11.00" fill="#000000">bug_id</text>
<polygon fill="none" stroke="#000000" points="363.5,-281.7 363.5,-303.7 429.5,-303.7 429.5,-281.7 363.5,-281.7"/>
<text text-anchor="start" x="366.5" y="-289.4" font-family="Helvetica,sans-Serif" font-size="11.00" fill="#000000">varchar[36]</text>
<polygon fill="#ffffff" stroke="transparent" points="246.5,-259.7 246.5,-281.7 363.5,-281.7 363.5,-259.7 246.5,-259.7"/>
<polygon fill="none" stroke="#000000" points="246.5,-259.7 246.5,-281.7 363.5,-281.7 363.5,-259.7 246.5,-259.7"/>
<image xlink:href="../../images/foreignKeys.png" width="11px" height="12px" preserveAspectRatio="xMinYMin meet" x="251.5" y="-276.7"/>
<text text-anchor="start" x="266.5" y="-266.8" font-family="Helvetica,sans-Serif" font-size="11.00" fill="#000000">project_id</text>
<polygon fill="none" stroke="#000000" points="363.5,-259.7 363.5,-281.7 429.5,-281.7 429.5,-259.7 363.5,-259.7"/>
<text text-anchor="start" x="366.5" y="-267.4" font-family="Helvetica,sans-Serif" font-size="11.00" fill="#000000">varchar[36]</text>
<polygon fill="none" stroke="#000000" points="246.5,-237.7 246.5,-259.7 363.5,-259.7 363.5,-237.7 246.5,-237.7"/>
<text text-anchor="start" x="266.5" y="-244.8" font-family="Helvetica,sans-Serif" font-size="11.00" fill="#000000">date_modified</text>
<polygon fill="none" stroke="#000000" points="363.5,-237.7 363.5,-259.7 429.5,-259.7 429.5,-237.7 363.5,-237.7"/>
<text text-anchor="start" x="366.2401" y="-245.4" font-family="Helvetica,sans-Serif" font-size="11.00" fill="#000000">datetime[26]</text>
<polygon fill="none" stroke="#000000" points="246.5,-215.7 246.5,-237.7 363.5,-237.7 363.5,-215.7 246.5,-215.7"/>
<text text-anchor="start" x="266.5" y="-222.8" font-family="Helvetica,sans-Serif" font-size="11.00" fill="#000000">deleted</text>
<polygon fill="none" stroke="#000000" points="363.5,-215.7 363.5,-237.7 429.5,-237.7 429.5,-215.7 363.5,-215.7"/>
<text text-anchor="start" x="366.5" y="-223.4" font-family="Helvetica,sans-Serif" font-size="11.00" fill="#000000">bit[1]</text>
<polygon fill="#ffffff" stroke="transparent" points="246.5,-196.7 246.5,-215.7 309.5,-215.7 309.5,-196.7 246.5,-196.7"/>
<polygon fill="none" stroke="#000000" points="246.5,-196.7 246.5,-215.7 309.5,-215.7 309.5,-196.7 246.5,-196.7"/>
<text text-anchor="start" x="249.5" y="-202.8" font-family="Helvetica,sans-Serif" font-size="11.00" fill="#000000">&lt; 2</text>
<polygon fill="#ffffff" stroke="transparent" points="309.5,-196.7 309.5,-215.7 363.5,-215.7 363.5,-196.7 309.5,-196.7"/>
<polygon fill="none" stroke="#000000" points="309.5,-196.7 309.5,-215.7 363.5,-215.7 363.5,-196.7 309.5,-196.7"/>
<text text-anchor="start" x="354.3862" y="-202.8" font-family="Helvetica,sans-Serif" font-size="11.00" fill="#000000"> &#160;</text>
<polygon fill="#ffffff" stroke="transparent" points="363.5,-196.7 363.5,-215.7 429.5,-215.7 429.5,-196.7 363.5,-196.7"/>
<polygon fill="none" stroke="#000000" points="363.5,-196.7 363.5,-215.7 429.5,-215.7 429.5,-196.7 363.5,-196.7"/>
<text text-anchor="start" x="410.9053" y="-202.8" font-family="Helvetica,sans-Serif" font-size="11.00" fill="#000000">0 &gt;</text>
<polygon fill="none" stroke="#000000" stroke-width="2" points="245,-195.7 245,-349.7 430,-349.7 430,-195.7 245,-195.7"/>
</a>
</g>
</g>
<!-- bugs -->
<g id="node2" class="node">
<title>bugs</title>
<g id="a_node2"><a xlink:href="../../tables/bugs.html" xlink:title="bugs" target="_top">
<polygon fill="#ffffff" stroke="transparent" points="32,-208.2 32,-445.2 171,-445.2 171,-208.2 32,-208.2"/>
<polygon fill="#f5f5f5" stroke="transparent" points="32.5,-421.7 32.5,-444.7 171.5,-444.7 171.5,-421.7 32.5,-421.7"/>
<polygon fill="none" stroke="#000000" points="32.5,-421.7 32.5,-444.7 171.5,-444.7 171.5,-421.7 32.5,-421.7"/>
<text text-anchor="start" x="37.5" y="-430.8" font-family="Helvetica,sans-Serif" font-weight="bold" font-size="11.00" fill="#000000">bugs</text>
<text text-anchor="start" x="136.5437" y="-429.8" font-family="Helvetica,sans-Serif" font-size="11.00" fill="#000000">[table]</text>
<polygon fill="none" stroke="#000000" points="32.5,-399.7 32.5,-421.7 171.5,-421.7 171.5,-399.7 32.5,-399.7"/>
<image xlink:href="../../images/primaryKeys.png" width="11px" height="12px" preserveAspectRatio="xMinYMin meet" x="37.5" y="-416.7"/>
<text text-anchor="start" x="52.5" y="-406.8" font-family="Helvetica,sans-Serif" font-size="11.00" fill="#000000">id</text>
<polygon fill="#ffffff" stroke="transparent" points="32.5,-377.7 32.5,-399.7 171.5,-399.7 171.5,-377.7 32.5,-377.7"/>
<polygon fill="none" stroke="#000000" points="32.5,-377.7 32.5,-399.7 171.5,-399.7 171.5,-377.7 32.5,-377.7"/>
<text text-anchor="start" x="52.5" y="-384.8" font-family="Helvetica,sans-Serif" font-size="11.00" fill="#000000">name</text>
<polygon fill="#c0c0c0" stroke="transparent" points="32.5,-355.7 32.5,-377.7 171.5,-377.7 171.5,-355.7 32.5,-355.7"/>
<polygon fill="none" stroke="#000000" points="32.5,-355.7 32.5,-377.7 171.5,-377.7 171.5,-355.7 32.5,-355.7"/>
<image xlink:href="../../images/foreignKeys.png" width="11px" height="12px" preserveAspectRatio="xMinYMin meet" x="37.5" y="-372.7"/>
<text text-anchor="start" x="52.5" y="-362.8" font-family="Helvetica,sans-Serif" font-size="11.00" fill="#000000">modified_user_id</text>
<polygon fill="#c0c0c0" stroke="transparent" points="32.5,-333.7 32.5,-355.7 171.5,-355.7 171.5,-333.7 32.5,-333.7"/>
<polygon fill="none" stroke="#000000" points="32.5,-333.7 32.5,-355.7 171.5,-355.7 171.5,-333.7 32.5,-333.7"/>
<image xlink:href="../../images/foreignKeys.png" width="11px" height="12px" preserveAspectRatio="xMinYMin meet" x="37.5" y="-350.7"/>
<text text-anchor="start" x="52.5" y="-340.8" font-family="Helvetica,sans-Serif" font-size="11.00" fill="#000000">created_by</text>
<polygon fill="#c0c0c0" stroke="transparent" points="32.5,-311.7 32.5,-333.7 171.5,-333.7 171.5,-311.7 32.5,-311.7"/>
<polygon fill="none" stroke="#000000" points="32.5,-311.7 32.5,-333.7 171.5,-333.7 171.5,-311.7 32.5,-311.7"/>
<image xlink:href="../../images/foreignKeys.png" width="11px" height="12px" preserveAspectRatio="xMinYMin meet" x="37.5" y="-328.7"/>
<text text-anchor="start" x="52.5" y="-318.8" font-family="Helvetica,sans-Serif" font-size="11.00" fill="#000000">assigned_user_id</text>
<polygon fill="#ffffff" stroke="transparent" points="32.5,-289.7 32.5,-311.7 171.5,-311.7 171.5,-289.7 32.5,-289.7"/>
<polygon fill="none" stroke="#000000" points="32.5,-289.7 32.5,-311.7 171.5,-311.7 171.5,-289.7 32.5,-289.7"/>
<text text-anchor="start" x="52.5" y="-296.8" font-family="Helvetica,sans-Serif" font-size="11.00" fill="#000000">bug_number</text>
<polygon fill="none" stroke="#000000" points="32.5,-267.7 32.5,-289.7 171.5,-289.7 171.5,-267.7 32.5,-267.7"/>
<image xlink:href="../../images/foreignKeys.png" width="11px" height="12px" preserveAspectRatio="xMinYMin meet" x="37.5" y="-284.7"/>
<text text-anchor="start" x="52.5" y="-274.8" font-family="Helvetica,sans-Serif" font-size="11.00" fill="#000000">found_in_release</text>
<polygon fill="none" stroke="#000000" points="32.5,-245.7 32.5,-267.7 171.5,-267.7 171.5,-245.7 32.5,-245.7"/>
<image xlink:href="../../images/foreignKeys.png" width="11px" height="12px" preserveAspectRatio="xMinYMin meet" x="37.5" y="-262.7"/>
<text text-anchor="start" x="52.5" y="-252.8" font-family="Helvetica,sans-Serif" font-size="11.00" fill="#000000">fixed_in_release</text>
<polygon fill="none" stroke="#000000" points="32.5,-226.7 32.5,-245.7 171.5,-245.7 171.5,-226.7 32.5,-226.7"/>
<text text-anchor="start" x="35.5" y="-232.8" font-family="Helvetica,sans-Serif" font-size="11.00" fill="#000000">...</text>
<polygon fill="#ffffff" stroke="transparent" points="32.5,-207.7 32.5,-226.7 92.5,-226.7 92.5,-207.7 32.5,-207.7"/>
<polygon fill="none" stroke="#000000" points="32.5,-207.7 32.5,-226.7 92.5,-226.7 92.5,-207.7 32.5,-207.7"/>
<text text-anchor="start" x="35.5" y="-213.8" font-family="Helvetica,sans-Serif" font-size="11.00" fill="#000000">&lt; 5</text>
<polygon fill="#ffffff" stroke="transparent" points="92.5,-207.7 92.5,-226.7 124.5,-226.7 124.5,-207.7 92.5,-207.7"/>
<polygon fill="none" stroke="#000000" points="92.5,-207.7 92.5,-226.7 124.5,-226.7 124.5,-207.7 92.5,-207.7"/>
<text text-anchor="start" x="115.3862" y="-213.8" font-family="Helvetica,sans-Serif" font-size="11.00" fill="#000000"> &#160;</text>
<polygon fill="#ffffff" stroke="transparent" points="124.5,-207.7 124.5,-226.7 171.5,-226.7 171.5,-207.7 124.5,-207.7"/>
<polygon fill="none" stroke="#000000" points="124.5,-207.7 124.5,-226.7 171.5,-226.7 171.5,-207.7 124.5,-207.7"/>
<text text-anchor="start" x="146.7904" y="-213.8" font-family="Helvetica,sans-Serif" font-size="11.00" fill="#000000">13 &gt;</text>
</a>
</g>
</g>
<!-- projects_bugs&#45;&gt;bugs -->
<g id="edge1" class="edge">
<title>projects_bugs:w&#45;&gt;bugs:e</title>
<path fill="none" stroke="#000000" d="M232.2876,-295.3863C192.3148,-312.9506 228.0582,-410.7 171.5,-410.7"/>
<polygon fill="#000000" stroke="#000000" points="238.6392,-294.1858 247.1686,-296.2374 242.5696,-293.4429 246.5,-292.7 246.5,-292.7 246.5,-292.7 242.5696,-293.4429 245.8314,-289.1626 238.6392,-294.1858 238.6392,-294.1858"/>
<ellipse fill="none" stroke="#000000" cx="235.4949" cy="-294.7802" rx="3.2" ry="3.2"/>
</g>
<!-- project -->
<g id="node3" class="node">
<title>project</title>
<g id="a_node3"><a xlink:href="../../tables/project.html" xlink:title="project" target="_top">
<polygon fill="#ffffff" stroke="transparent" points="8,-38.2 8,-187.2 195,-187.2 195,-38.2 8,-38.2"/>
<polygon fill="#f5f5f5" stroke="transparent" points="8.5,-163.7 8.5,-186.7 195.5,-186.7 195.5,-163.7 8.5,-163.7"/>
<polygon fill="none" stroke="#000000" points="8.5,-163.7 8.5,-186.7 195.5,-186.7 195.5,-163.7 8.5,-163.7"/>
<text text-anchor="start" x="13.5" y="-172.8" font-family="Helvetica,sans-Serif" font-weight="bold" font-size="11.00" fill="#000000">project</text>
<text text-anchor="start" x="160.5437" y="-171.8" font-family="Helvetica,sans-Serif" font-size="11.00" fill="#000000">[table]</text>
<polygon fill="none" stroke="#000000" points="8.5,-141.7 8.5,-163.7 195.5,-163.7 195.5,-141.7 8.5,-141.7"/>
<image xlink:href="../../images/primaryKeys.png" width="11px" height="12px" preserveAspectRatio="xMinYMin meet" x="13.5" y="-158.7"/>
<text text-anchor="start" x="28.5" y="-148.8" font-family="Helvetica,sans-Serif" font-size="11.00" fill="#000000">id</text>
<polygon fill="#c0c0c0" stroke="transparent" points="8.5,-119.7 8.5,-141.7 195.5,-141.7 195.5,-119.7 8.5,-119.7"/>
<polygon fill="none" stroke="#000000" points="8.5,-119.7 8.5,-141.7 195.5,-141.7 195.5,-119.7 8.5,-119.7"/>
<image xlink:href="../../images/foreignKeys.png" width="11px" height="12px" preserveAspectRatio="xMinYMin meet" x="13.5" y="-136.7"/>
<text text-anchor="start" x="28.5" y="-126.8" font-family="Helvetica,sans-Serif" font-size="11.00" fill="#000000">assigned_user_id</text>
<polygon fill="#c0c0c0" stroke="transparent" points="8.5,-97.7 8.5,-119.7 195.5,-119.7 195.5,-97.7 8.5,-97.7"/>
<polygon fill="none" stroke="#000000" points="8.5,-97.7 8.5,-119.7 195.5,-119.7 195.5,-97.7 8.5,-97.7"/>
<image xlink:href="../../images/foreignKeys.png" width="11px" height="12px" preserveAspectRatio="xMinYMin meet" x="13.5" y="-114.7"/>
<text text-anchor="start" x="28.5" y="-104.8" font-family="Helvetica,sans-Serif" font-size="11.00" fill="#000000">modified_user_id</text>
<polygon fill="#c0c0c0" stroke="transparent" points="8.5,-75.7 8.5,-97.7 195.5,-97.7 195.5,-75.7 8.5,-75.7"/>
<polygon fill="none" stroke="#000000" points="8.5,-75.7 8.5,-97.7 195.5,-97.7 195.5,-75.7 8.5,-75.7"/>
<image xlink:href="../../images/foreignKeys.png" width="11px" height="12px" preserveAspectRatio="xMinYMin meet" x="13.5" y="-92.7"/>
<text text-anchor="start" x="28.5" y="-82.8" font-family="Helvetica,sans-Serif" font-size="11.00" fill="#000000">created_by</text>
<polygon fill="none" stroke="#000000" points="8.5,-56.7 8.5,-75.7 195.5,-75.7 195.5,-56.7 8.5,-56.7"/>
<text text-anchor="start" x="11.5" y="-62.8" font-family="Helvetica,sans-Serif" font-size="11.00" fill="#000000">...</text>
<polygon fill="#ffffff" stroke="transparent" points="8.5,-37.7 8.5,-56.7 92.5,-56.7 92.5,-37.7 8.5,-37.7"/>
<polygon fill="none" stroke="#000000" points="8.5,-37.7 8.5,-56.7 92.5,-56.7 92.5,-37.7 8.5,-37.7"/>
<text text-anchor="start" x="11.5" y="-43.8" font-family="Helvetica,sans-Serif" font-size="11.00" fill="#000000">&lt; 4</text>
<polygon fill="#ffffff" stroke="transparent" points="92.5,-37.7 92.5,-56.7 136.5,-56.7 136.5,-37.7 92.5,-37.7"/>
<polygon fill="none" stroke="#000000" points="92.5,-37.7 92.5,-56.7 136.5,-56.7 136.5,-37.7 92.5,-37.7"/>
<text text-anchor="start" x="127.3862" y="-43.8" font-family="Helvetica,sans-Serif" font-size="11.00" fill="#000000"> &#160;</text>
<polygon fill="#ffffff" stroke="transparent" points="136.5,-37.7 136.5,-56.7 195.5,-56.7 195.5,-37.7 136.5,-37.7"/>
<polygon fill="none" stroke="#000000" points="136.5,-37.7 136.5,-56.7 195.5,-56.7 195.5,-37.7 136.5,-37.7"/>
<text text-anchor="start" x="170.7904" y="-43.8" font-family="Helvetica,sans-Serif" font-size="11.00" fill="#000000">18 &gt;</text>
</a>
</g>
</g>
<!-- projects_bugs&#45;&gt;project -->
<g id="edge2" class="edge">
<title>projects_bugs:w&#45;&gt;project:e</title>
<path fill="none" stroke="#000000" d="M232.1581,-267.0391C201.3728,-247.122 246.6074,-152.7 195.5,-152.7"/>
<polygon fill="#000000" stroke="#000000" points="238.7485,-268.7213 245.6096,-274.1882 242.6243,-269.7107 246.5,-270.7 246.5,-270.7 246.5,-270.7 242.6243,-269.7107 247.3904,-267.2118 238.7485,-268.7213 238.7485,-268.7213"/>
<ellipse fill="none" stroke="#000000" cx="235.648" cy="-267.9299" rx="3.2" ry="3.2"/>
</g>
</g>
</svg>
