<?xml version="1.0" encoding="UTF-8" standalone="no"?>
<!DOCTYPE svg PUBLIC "-//W3C//DTD SVG 1.1//EN"
 "http://www.w3.org/Graphics/SVG/1.1/DTD/svg11.dtd">
<!-- Generated by graphviz version 2.40.1 (20161225.0304)
 -->
<!-- Title: twoDegreesRelationshipsDiagram Pages: 1 -->
<svg width="929pt" height="811pt"
 viewBox="0.00 0.00 929.00 810.55" xmlns="http://www.w3.org/2000/svg" xmlns:xlink="http://www.w3.org/1999/xlink">
<g id="graph0" class="graph" transform="scale(1 1) rotate(0) translate(4 806.5496)">
<title>twoDegreesRelationshipsDiagram</title>
<polygon fill="#ffffff" stroke="transparent" points="-4,4 -4,-806.5496 925,-806.5496 925,4 -4,4"/>
<text text-anchor="middle" x="72.4936" y="-7.3" font-family="Helvetica,sans-Serif" font-size="11.00" fill="#000000">Generated by SchemaSpy</text>
<!-- calls -->
<g id="node1" class="node">
<title>calls</title>
<g id="a_node1"><a xlink:href="../../tables/calls.html" xlink:title="calls" target="_top">
<polygon fill="#ffffff" stroke="transparent" points="403.5,-38.2 403.5,-99.2 467.5,-99.2 467.5,-38.2 403.5,-38.2"/>
<polygon fill="#f5f5f5" stroke="transparent" points="403.5,-75.7 403.5,-98.7 467.5,-98.7 467.5,-75.7 403.5,-75.7"/>
<polygon fill="none" stroke="#000000" points="403.5,-75.7 403.5,-98.7 467.5,-98.7 467.5,-75.7 403.5,-75.7"/>
<text text-anchor="start" x="408.0017" y="-84.8" font-family="Helvetica,sans-Serif" font-weight="bold" font-size="11.00" fill="#000000">calls</text>
<text text-anchor="start" x="433.0219" y="-83.8" font-family="Helvetica,sans-Serif" font-size="11.00" fill="#000000">[table]</text>
<polygon fill="none" stroke="#000000" points="403.5,-56.7 403.5,-75.7 467.5,-75.7 467.5,-56.7 403.5,-56.7"/>
<text text-anchor="start" x="406.5" y="-62.8" font-family="Helvetica,sans-Serif" font-size="11.00" fill="#000000">...</text>
<polygon fill="#ffffff" stroke="transparent" points="403.5,-37.7 403.5,-56.7 432.5,-56.7 432.5,-37.7 403.5,-37.7"/>
<polygon fill="none" stroke="#000000" points="403.5,-37.7 403.5,-56.7 432.5,-56.7 432.5,-37.7 403.5,-37.7"/>
<text text-anchor="start" x="406.5" y="-43.8" font-family="Helvetica,sans-Serif" font-size="11.00" fill="#000000">&lt; 12</text>
<polygon fill="#ffffff" stroke="transparent" points="432.5,-37.7 432.5,-56.7 445.5,-56.7 445.5,-37.7 432.5,-37.7"/>
<polygon fill="none" stroke="#000000" points="432.5,-37.7 432.5,-56.7 445.5,-56.7 445.5,-37.7 432.5,-37.7"/>
<text text-anchor="start" x="436.3862" y="-43.8" font-family="Helvetica,sans-Serif" font-size="11.00" fill="#000000"> &#160;</text>
<polygon fill="#ffffff" stroke="transparent" points="445.5,-37.7 445.5,-56.7 467.5,-56.7 467.5,-37.7 445.5,-37.7"/>
<polygon fill="none" stroke="#000000" points="445.5,-37.7 445.5,-56.7 467.5,-56.7 467.5,-37.7 445.5,-37.7"/>
<text text-anchor="start" x="448.9053" y="-43.8" font-family="Helvetica,sans-Serif" font-size="11.00" fill="#000000">6 &gt;</text>
</a>
</g>
</g>
<!-- project -->
<g id="node2" class="node">
<title>project</title>
<g id="a_node2"><a xlink:href="../../tables/project.html" xlink:title="project" target="_top">
<polygon fill="#ffffff" stroke="transparent" points="8,-443.2 8,-504.2 84,-504.2 84,-443.2 8,-443.2"/>
<polygon fill="#f5f5f5" stroke="transparent" points="8,-480.7 8,-503.7 84,-503.7 84,-480.7 8,-480.7"/>
<polygon fill="none" stroke="#000000" points="8,-480.7 8,-503.7 84,-503.7 84,-480.7 8,-480.7"/>
<text text-anchor="start" x="12.9978" y="-489.8" font-family="Helvetica,sans-Serif" font-weight="bold" font-size="11.00" fill="#000000">project</text>
<text text-anchor="start" x="49.5219" y="-488.8" font-family="Helvetica,sans-Serif" font-size="11.00" fill="#000000">[table]</text>
<polygon fill="none" stroke="#000000" points="8,-461.7 8,-480.7 84,-480.7 84,-461.7 8,-461.7"/>
<text text-anchor="start" x="11" y="-467.8" font-family="Helvetica,sans-Serif" font-size="11.00" fill="#000000">...</text>
<polygon fill="#ffffff" stroke="transparent" points="8,-442.7 8,-461.7 37,-461.7 37,-442.7 8,-442.7"/>
<polygon fill="none" stroke="#000000" points="8,-442.7 8,-461.7 37,-461.7 37,-442.7 8,-442.7"/>
<text text-anchor="start" x="11" y="-448.8" font-family="Helvetica,sans-Serif" font-size="11.00" fill="#000000">&lt; 4</text>
<polygon fill="#ffffff" stroke="transparent" points="37,-442.7 37,-461.7 53,-461.7 53,-442.7 37,-442.7"/>
<polygon fill="none" stroke="#000000" points="37,-442.7 37,-461.7 53,-461.7 53,-442.7 37,-442.7"/>
<text text-anchor="start" x="43.8862" y="-448.8" font-family="Helvetica,sans-Serif" font-size="11.00" fill="#000000"> &#160;</text>
<polygon fill="#ffffff" stroke="transparent" points="53,-442.7 53,-461.7 84,-461.7 84,-442.7 53,-442.7"/>
<polygon fill="none" stroke="#000000" points="53,-442.7 53,-461.7 84,-461.7 84,-442.7 53,-442.7"/>
<text text-anchor="start" x="59.2904" y="-448.8" font-family="Helvetica,sans-Serif" font-size="11.00" fill="#000000">18 &gt;</text>
</a>
</g>
</g>
<!-- calls&#45;&gt;project -->
<g id="edge1" class="edge">
<title>calls:w&#45;&gt;project:e</title>
<path fill="none" stroke="#000000" d="M389.0462,-65.5125C272.6626,-62.524 207.9079,-25.9852 125,-113.7 70.1467,-171.7336 163.8548,-470.7 84,-470.7"/>
<polygon fill="#000000" stroke="#000000" points="395.5007,-65.5962 403.4533,-69.2997 399.5003,-65.6481 403.5,-65.7 403.5,-65.7 403.5,-65.7 399.5003,-65.6481 403.5467,-62.1003 395.5007,-65.5962 395.5007,-65.5962"/>
<ellipse fill="none" stroke="#000000" cx="392.3009" cy="-65.5546" rx="3.2" ry="3.2"/>
</g>
<!-- project_task -->
<g id="node3" class="node">
<title>project_task</title>
<g id="a_node3"><a xlink:href="../../tables/project_task.html" xlink:title="project_task" target="_top">
<polygon fill="#ffffff" stroke="transparent" points="133,-200.2 133,-371.2 274,-371.2 274,-200.2 133,-200.2"/>
<polygon fill="#f5f5f5" stroke="transparent" points="133.5,-347.7 133.5,-370.7 274.5,-370.7 274.5,-347.7 133.5,-347.7"/>
<polygon fill="none" stroke="#000000" points="133.5,-347.7 133.5,-370.7 274.5,-370.7 274.5,-347.7 133.5,-347.7"/>
<text text-anchor="start" x="138.5" y="-356.8" font-family="Helvetica,sans-Serif" font-weight="bold" font-size="11.00" fill="#000000">project_task</text>
<text text-anchor="start" x="239.5437" y="-355.8" font-family="Helvetica,sans-Serif" font-size="11.00" fill="#000000">[table]</text>
<polygon fill="none" stroke="#000000" points="133.5,-325.7 133.5,-347.7 274.5,-347.7 274.5,-325.7 133.5,-325.7"/>
<image xlink:href="../../images/primaryKeys.png" width="11px" height="12px" preserveAspectRatio="xMinYMin meet" x="138.5" y="-342.7"/>
<text text-anchor="start" x="153.5" y="-332.8" font-family="Helvetica,sans-Serif" font-size="11.00" fill="#000000">id</text>
<polygon fill="none" stroke="#000000" points="133.5,-303.7 133.5,-325.7 274.5,-325.7 274.5,-303.7 133.5,-303.7"/>
<image xlink:href="../../images/foreignKeys.png" width="11px" height="12px" preserveAspectRatio="xMinYMin meet" x="138.5" y="-320.7"/>
<text text-anchor="start" x="153.5" y="-310.8" font-family="Helvetica,sans-Serif" font-size="11.00" fill="#000000">project_id</text>
<polygon fill="#c0c0c0" stroke="transparent" points="133.5,-281.7 133.5,-303.7 274.5,-303.7 274.5,-281.7 133.5,-281.7"/>
<polygon fill="none" stroke="#000000" points="133.5,-281.7 133.5,-303.7 274.5,-303.7 274.5,-281.7 133.5,-281.7"/>
<image xlink:href="../../images/foreignKeys.png" width="11px" height="12px" preserveAspectRatio="xMinYMin meet" x="138.5" y="-298.7"/>
<text text-anchor="start" x="153.5" y="-288.8" font-family="Helvetica,sans-Serif" font-size="11.00" fill="#000000">assigned_user_id</text>
<polygon fill="#c0c0c0" stroke="transparent" points="133.5,-259.7 133.5,-281.7 274.5,-281.7 274.5,-259.7 133.5,-259.7"/>
<polygon fill="none" stroke="#000000" points="133.5,-259.7 133.5,-281.7 274.5,-281.7 274.5,-259.7 133.5,-259.7"/>
<image xlink:href="../../images/foreignKeys.png" width="11px" height="12px" preserveAspectRatio="xMinYMin meet" x="138.5" y="-276.7"/>
<text text-anchor="start" x="153.5" y="-266.8" font-family="Helvetica,sans-Serif" font-size="11.00" fill="#000000">modified_user_id</text>
<polygon fill="#c0c0c0" stroke="transparent" points="133.5,-237.7 133.5,-259.7 274.5,-259.7 274.5,-237.7 133.5,-237.7"/>
<polygon fill="none" stroke="#000000" points="133.5,-237.7 133.5,-259.7 274.5,-259.7 274.5,-237.7 133.5,-237.7"/>
<image xlink:href="../../images/foreignKeys.png" width="11px" height="12px" preserveAspectRatio="xMinYMin meet" x="138.5" y="-254.7"/>
<text text-anchor="start" x="153.5" y="-244.8" font-family="Helvetica,sans-Serif" font-size="11.00" fill="#000000">created_by</text>
<polygon fill="none" stroke="#000000" points="133.5,-218.7 133.5,-237.7 274.5,-237.7 274.5,-218.7 133.5,-218.7"/>
<text text-anchor="start" x="136.5" y="-224.8" font-family="Helvetica,sans-Serif" font-size="11.00" fill="#000000">...</text>
<polygon fill="#ffffff" stroke="transparent" points="133.5,-199.7 133.5,-218.7 197.5,-218.7 197.5,-199.7 133.5,-199.7"/>
<polygon fill="none" stroke="#000000" points="133.5,-199.7 133.5,-218.7 197.5,-218.7 197.5,-199.7 133.5,-199.7"/>
<text text-anchor="start" x="136.5" y="-205.8" font-family="Helvetica,sans-Serif" font-size="11.00" fill="#000000">&lt; 4</text>
<polygon fill="#ffffff" stroke="transparent" points="197.5,-199.7 197.5,-218.7 231.5,-218.7 231.5,-199.7 197.5,-199.7"/>
<polygon fill="none" stroke="#000000" points="197.5,-199.7 197.5,-218.7 231.5,-218.7 231.5,-199.7 197.5,-199.7"/>
<text text-anchor="start" x="222.3862" y="-205.8" font-family="Helvetica,sans-Serif" font-size="11.00" fill="#000000"> &#160;</text>
<polygon fill="#ffffff" stroke="transparent" points="231.5,-199.7 231.5,-218.7 274.5,-218.7 274.5,-199.7 231.5,-199.7"/>
<polygon fill="none" stroke="#000000" points="231.5,-199.7 231.5,-218.7 274.5,-218.7 274.5,-199.7 231.5,-199.7"/>
<text text-anchor="start" x="255.9053" y="-205.8" font-family="Helvetica,sans-Serif" font-size="11.00" fill="#000000">8 &gt;</text>
</a>
</g>
</g>
<!-- calls&#45;&gt;project_task -->
<g id="edge2" class="edge">
<title>calls:w&#45;&gt;project_task:e</title>
<path fill="none" stroke="#000000" d="M388.9527,-66.6047C350.2476,-71.7837 338.539,-98.812 315,-137.7 268.2622,-214.914 364.7575,-336.7 274.5,-336.7"/>
<polygon fill="#000000" stroke="#000000" points="395.5154,-66.1966 403.7235,-69.2931 399.5077,-65.9483 403.5,-65.7 403.5,-65.7 403.5,-65.7 399.5077,-65.9483 403.2765,-62.1069 395.5154,-66.1966 395.5154,-66.1966"/>
<ellipse fill="none" stroke="#000000" cx="392.3216" cy="-66.3953" rx="3.2" ry="3.2"/>
</g>
<!-- project_task&#45;&gt;project -->
<g id="edge18" class="edge">
<title>project_task:w&#45;&gt;project:e</title>
<path fill="none" stroke="#000000" d="M119.0978,-317.5408C75.0499,-338.684 150.9151,-470.7 84,-470.7"/>
<polygon fill="#000000" stroke="#000000" points="125.6512,-316.2482 134.1967,-318.2319 129.5756,-315.4741 133.5,-314.7 133.5,-314.7 133.5,-314.7 129.5756,-315.4741 132.8033,-311.1681 125.6512,-316.2482 125.6512,-316.2482"/>
<ellipse fill="none" stroke="#000000" cx="122.5117" cy="-316.8675" rx="3.2" ry="3.2"/>
</g>
<!-- emails -->
<g id="node4" class="node">
<title>emails</title>
<g id="a_node4"><a xlink:href="../../tables/emails.html" xlink:title="emails" target="_top">
<polygon fill="#ffffff" stroke="transparent" points="398.5,-681.2 398.5,-742.2 472.5,-742.2 472.5,-681.2 398.5,-681.2"/>
<polygon fill="#f5f5f5" stroke="transparent" points="398.5,-718.7 398.5,-741.7 472.5,-741.7 472.5,-718.7 398.5,-718.7"/>
<polygon fill="none" stroke="#000000" points="398.5,-718.7 398.5,-741.7 472.5,-741.7 472.5,-718.7 398.5,-718.7"/>
<text text-anchor="start" x="403.1133" y="-727.8" font-family="Helvetica,sans-Serif" font-weight="bold" font-size="11.00" fill="#000000">emails</text>
<text text-anchor="start" x="438.0219" y="-726.8" font-family="Helvetica,sans-Serif" font-size="11.00" fill="#000000">[table]</text>
<polygon fill="none" stroke="#000000" points="398.5,-699.7 398.5,-718.7 472.5,-718.7 472.5,-699.7 398.5,-699.7"/>
<text text-anchor="start" x="401.5" y="-705.8" font-family="Helvetica,sans-Serif" font-size="11.00" fill="#000000">...</text>
<polygon fill="#ffffff" stroke="transparent" points="398.5,-680.7 398.5,-699.7 432.5,-699.7 432.5,-680.7 398.5,-680.7"/>
<polygon fill="none" stroke="#000000" points="398.5,-680.7 398.5,-699.7 432.5,-699.7 432.5,-680.7 398.5,-680.7"/>
<text text-anchor="start" x="401.5" y="-686.8" font-family="Helvetica,sans-Serif" font-size="11.00" fill="#000000">&lt; 12</text>
<polygon fill="#ffffff" stroke="transparent" points="432.5,-680.7 432.5,-699.7 447.5,-699.7 447.5,-680.7 432.5,-680.7"/>
<polygon fill="none" stroke="#000000" points="432.5,-680.7 432.5,-699.7 447.5,-699.7 447.5,-680.7 432.5,-680.7"/>
<text text-anchor="start" x="438.3862" y="-686.8" font-family="Helvetica,sans-Serif" font-size="11.00" fill="#000000"> &#160;</text>
<polygon fill="#ffffff" stroke="transparent" points="447.5,-680.7 447.5,-699.7 472.5,-699.7 472.5,-680.7 447.5,-680.7"/>
<polygon fill="none" stroke="#000000" points="447.5,-680.7 447.5,-699.7 472.5,-699.7 472.5,-680.7 447.5,-680.7"/>
<text text-anchor="start" x="453.9053" y="-686.8" font-family="Helvetica,sans-Serif" font-size="11.00" fill="#000000">3 &gt;</text>
</a>
</g>
</g>
<!-- emails&#45;&gt;project -->
<g id="edge3" class="edge">
<title>emails:w&#45;&gt;project:e</title>
<path fill="none" stroke="#000000" d="M383.8676,-707.3277C303.7153,-693.386 157.9878,-577.1801 125,-541.7 100.1881,-515.0135 120.439,-470.7 84,-470.7"/>
<polygon fill="#000000" stroke="#000000" points="390.535,-707.953 398.1638,-712.2843 394.5175,-708.3265 398.5,-708.7 398.5,-708.7 398.5,-708.7 394.5175,-708.3265 398.8362,-705.1157 390.535,-707.953 390.535,-707.953"/>
<ellipse fill="none" stroke="#000000" cx="387.3489" cy="-707.6541" rx="3.2" ry="3.2"/>
</g>
<!-- emails&#45;&gt;project_task -->
<g id="edge4" class="edge">
<title>emails:w&#45;&gt;project_task:e</title>
<path fill="none" stroke="#000000" d="M383.7768,-708.3968C352.8321,-706.9217 335.9878,-699.3531 315,-670.7 270.8197,-610.3838 349.2659,-336.7 274.5,-336.7"/>
<polygon fill="#000000" stroke="#000000" points="390.5017,-708.5353 398.4259,-712.2992 394.5008,-708.6176 398.5,-708.7 398.5,-708.7 398.5,-708.7 394.5008,-708.6176 398.5741,-705.1008 390.5017,-708.5353 390.5017,-708.5353"/>
<ellipse fill="none" stroke="#000000" cx="387.3024" cy="-708.4694" rx="3.2" ry="3.2"/>
</g>
<!-- emails_beans -->
<g id="node5" class="node">
<title>emails_beans</title>
<g id="a_node5"><a xlink:href="../../tables/emails_beans.html" xlink:title="emails_beans" target="_top">
<polygon fill="#ffffff" stroke="transparent" points="597,-599.2 597,-660.2 707,-660.2 707,-599.2 597,-599.2"/>
<polygon fill="#f5f5f5" stroke="transparent" points="597,-636.7 597,-659.7 707,-659.7 707,-636.7 597,-636.7"/>
<polygon fill="none" stroke="#000000" points="597,-636.7 597,-659.7 707,-659.7 707,-636.7 597,-636.7"/>
<text text-anchor="start" x="601.576" y="-645.8" font-family="Helvetica,sans-Serif" font-weight="bold" font-size="11.00" fill="#000000">emails_beans</text>
<text text-anchor="start" x="672.5219" y="-644.8" font-family="Helvetica,sans-Serif" font-size="11.00" fill="#000000">[table]</text>
<polygon fill="none" stroke="#000000" points="597,-617.7 597,-636.7 707,-636.7 707,-617.7 597,-617.7"/>
<text text-anchor="start" x="600" y="-623.8" font-family="Helvetica,sans-Serif" font-size="11.00" fill="#000000">...</text>
<polygon fill="#ffffff" stroke="transparent" points="597,-598.7 597,-617.7 653,-617.7 653,-598.7 597,-598.7"/>
<polygon fill="none" stroke="#000000" points="597,-598.7 597,-617.7 653,-617.7 653,-598.7 597,-598.7"/>
<text text-anchor="start" x="600" y="-604.8" font-family="Helvetica,sans-Serif" font-size="11.00" fill="#000000">&lt; 14</text>
<polygon fill="#ffffff" stroke="transparent" points="653,-598.7 653,-617.7 680,-617.7 680,-598.7 653,-598.7"/>
<polygon fill="none" stroke="#000000" points="653,-598.7 653,-617.7 680,-617.7 680,-598.7 653,-598.7"/>
<text text-anchor="start" x="670.8862" y="-604.8" font-family="Helvetica,sans-Serif" font-size="11.00" fill="#000000"> &#160;</text>
<polygon fill="#ffffff" stroke="transparent" points="680,-598.7 680,-617.7 707,-617.7 707,-598.7 680,-598.7"/>
<polygon fill="none" stroke="#000000" points="680,-598.7 680,-617.7 707,-617.7 707,-598.7 680,-598.7"/>
<text text-anchor="start" x="697.8862" y="-604.8" font-family="Helvetica,sans-Serif" font-size="11.00" fill="#000000"> &#160;</text>
</a>
</g>
</g>
<!-- emails_beans&#45;&gt;project -->
<g id="edge6" class="edge">
<title>emails_beans:w&#45;&gt;project:e</title>
<path fill="none" stroke="#000000" d="M582.6585,-629.373C550.2553,-644.6789 598.8111,-721.61 556,-752.7 512.6659,-784.1698 365.8215,-769.5929 315,-752.7 214.9595,-719.4469 185.128,-697.2939 125,-610.7 88.0208,-557.4441 148.8356,-470.7 84,-470.7"/>
<polygon fill="#000000" stroke="#000000" points="589.1354,-628.1658 597.6596,-630.2391 593.0677,-627.4329 597,-626.7 597,-626.7 597,-626.7 593.0677,-627.4329 596.3404,-623.1609 589.1354,-628.1658 589.1354,-628.1658"/>
<ellipse fill="none" stroke="#000000" cx="585.9896" cy="-628.7522" rx="3.2" ry="3.2"/>
</g>
<!-- emails_beans&#45;&gt;project_task -->
<g id="edge7" class="edge">
<title>emails_beans:w&#45;&gt;project_task:e</title>
<path fill="none" stroke="#000000" d="M583.0035,-622.1044C536.5489,-585.8498 606.4409,-346.1774 556,-301.7 515.8304,-266.2796 365.1912,-283.0174 315,-301.7 292.7043,-309.9991 298.2902,-336.7 274.5,-336.7"/>
<polygon fill="#000000" stroke="#000000" points="589.3992,-624.2043 595.8769,-630.1203 593.1996,-625.4522 597,-626.7 597,-626.7 597,-626.7 593.1996,-625.4522 598.1231,-623.2797 589.3992,-624.2043 589.3992,-624.2043"/>
<ellipse fill="none" stroke="#000000" cx="586.3589" cy="-623.206" rx="3.2" ry="3.2"/>
</g>
<!-- emails_beans&#45;&gt;emails -->
<g id="edge9" class="edge">
<title>emails_beans:w&#45;&gt;emails:e</title>
<path fill="none" stroke="#000000" d="M583.0195,-630.8478C572.1508,-639.304 572.6096,-658.7447 556,-670.7 522.9075,-694.5193 513.2734,-708.7 472.5,-708.7"/>
<polygon fill="#000000" stroke="#000000" points="589.3304,-628.9755 598.024,-630.1513 593.1652,-627.8378 597,-626.7 597,-626.7 597,-626.7 593.1652,-627.8378 595.976,-623.2487 589.3304,-628.9755 589.3304,-628.9755"/>
<ellipse fill="none" stroke="#000000" cx="586.2626" cy="-629.8857" rx="3.2" ry="3.2"/>
</g>
<!-- meetings -->
<g id="node6" class="node">
<title>meetings</title>
<g id="a_node6"><a xlink:href="../../tables/meetings.html" xlink:title="meetings" target="_top">
<polygon fill="#ffffff" stroke="transparent" points="392,-599.2 392,-660.2 479,-660.2 479,-599.2 392,-599.2"/>
<polygon fill="#f5f5f5" stroke="transparent" points="392.5,-636.7 392.5,-659.7 479.5,-659.7 479.5,-636.7 392.5,-636.7"/>
<polygon fill="none" stroke="#000000" points="392.5,-636.7 392.5,-659.7 479.5,-659.7 479.5,-636.7 392.5,-636.7"/>
<text text-anchor="start" x="397.1904" y="-645.8" font-family="Helvetica,sans-Serif" font-weight="bold" font-size="11.00" fill="#000000">meetings</text>
<text text-anchor="start" x="445.0219" y="-644.8" font-family="Helvetica,sans-Serif" font-size="11.00" fill="#000000">[table]</text>
<polygon fill="none" stroke="#000000" points="392.5,-617.7 392.5,-636.7 479.5,-636.7 479.5,-617.7 392.5,-617.7"/>
<text text-anchor="start" x="395.5" y="-623.8" font-family="Helvetica,sans-Serif" font-size="11.00" fill="#000000">...</text>
<polygon fill="#ffffff" stroke="transparent" points="392.5,-598.7 392.5,-617.7 432.5,-617.7 432.5,-598.7 392.5,-598.7"/>
<polygon fill="none" stroke="#000000" points="392.5,-598.7 392.5,-617.7 432.5,-617.7 432.5,-598.7 392.5,-598.7"/>
<text text-anchor="start" x="395.5" y="-604.8" font-family="Helvetica,sans-Serif" font-size="11.00" fill="#000000">&lt; 13</text>
<polygon fill="#ffffff" stroke="transparent" points="432.5,-598.7 432.5,-617.7 451.5,-617.7 451.5,-598.7 432.5,-598.7"/>
<polygon fill="none" stroke="#000000" points="432.5,-598.7 432.5,-617.7 451.5,-617.7 451.5,-598.7 432.5,-598.7"/>
<text text-anchor="start" x="442.3862" y="-604.8" font-family="Helvetica,sans-Serif" font-size="11.00" fill="#000000"> &#160;</text>
<polygon fill="#ffffff" stroke="transparent" points="451.5,-598.7 451.5,-617.7 479.5,-617.7 479.5,-598.7 451.5,-598.7"/>
<polygon fill="none" stroke="#000000" points="451.5,-598.7 451.5,-617.7 479.5,-617.7 479.5,-598.7 451.5,-598.7"/>
<text text-anchor="start" x="460.9053" y="-604.8" font-family="Helvetica,sans-Serif" font-size="11.00" fill="#000000">7 &gt;</text>
</a>
</g>
</g>
<!-- emails_beans&#45;&gt;meetings -->
<g id="edge5" class="edge">
<title>emails_beans:w&#45;&gt;meetings:e</title>
<path fill="none" stroke="#000000" d="M582.483,-626.7C541.7883,-626.7 526.5204,-626.7 479.5,-626.7"/>
<polygon fill="#000000" stroke="#000000" points="589,-626.7001 597,-630.3 593,-626.7 597,-626.7 597,-626.7 597,-626.7 593,-626.7 597,-623.1 589,-626.7001 589,-626.7001"/>
<ellipse fill="none" stroke="#000000" cx="585.8" cy="-626.7001" rx="3.2" ry="3.2"/>
</g>
<!-- tasks -->
<g id="node7" class="node">
<title>tasks</title>
<g id="a_node7"><a xlink:href="../../tables/tasks.html" xlink:title="tasks" target="_top">
<polygon fill="#ffffff" stroke="transparent" points="401.5,-148.2 401.5,-209.2 469.5,-209.2 469.5,-148.2 401.5,-148.2"/>
<polygon fill="#f5f5f5" stroke="transparent" points="401.5,-185.7 401.5,-208.7 469.5,-208.7 469.5,-185.7 401.5,-185.7"/>
<polygon fill="none" stroke="#000000" points="401.5,-185.7 401.5,-208.7 469.5,-208.7 469.5,-185.7 401.5,-185.7"/>
<text text-anchor="start" x="406.1641" y="-194.8" font-family="Helvetica,sans-Serif" font-weight="bold" font-size="11.00" fill="#000000">tasks</text>
<text text-anchor="start" x="435.0219" y="-193.8" font-family="Helvetica,sans-Serif" font-size="11.00" fill="#000000">[table]</text>
<polygon fill="none" stroke="#000000" points="401.5,-166.7 401.5,-185.7 469.5,-185.7 469.5,-166.7 401.5,-166.7"/>
<text text-anchor="start" x="404.5" y="-172.8" font-family="Helvetica,sans-Serif" font-size="11.00" fill="#000000">...</text>
<polygon fill="#ffffff" stroke="transparent" points="401.5,-147.7 401.5,-166.7 432.5,-166.7 432.5,-147.7 401.5,-147.7"/>
<polygon fill="none" stroke="#000000" points="401.5,-147.7 401.5,-166.7 432.5,-166.7 432.5,-147.7 401.5,-147.7"/>
<text text-anchor="start" x="404.5" y="-153.8" font-family="Helvetica,sans-Serif" font-size="11.00" fill="#000000">&lt; 14</text>
<polygon fill="#ffffff" stroke="transparent" points="432.5,-147.7 432.5,-166.7 446.5,-166.7 446.5,-147.7 432.5,-147.7"/>
<polygon fill="none" stroke="#000000" points="432.5,-147.7 432.5,-166.7 446.5,-166.7 446.5,-147.7 432.5,-147.7"/>
<text text-anchor="start" x="437.3862" y="-153.8" font-family="Helvetica,sans-Serif" font-size="11.00" fill="#000000"> &#160;</text>
<polygon fill="#ffffff" stroke="transparent" points="446.5,-147.7 446.5,-166.7 469.5,-166.7 469.5,-147.7 446.5,-147.7"/>
<polygon fill="none" stroke="#000000" points="446.5,-147.7 446.5,-166.7 469.5,-166.7 469.5,-147.7 446.5,-147.7"/>
<text text-anchor="start" x="450.9053" y="-153.8" font-family="Helvetica,sans-Serif" font-size="11.00" fill="#000000">3 &gt;</text>
</a>
</g>
</g>
<!-- emails_beans&#45;&gt;tasks -->
<g id="edge8" class="edge">
<title>emails_beans:w&#45;&gt;tasks:e</title>
<path fill="none" stroke="#000000" d="M582.9584,-622.9656C527.7746,-589.7375 585.0091,-344.417 556,-277.7 532.2987,-223.1901 528.9398,-175.7 469.5,-175.7"/>
<polygon fill="#000000" stroke="#000000" points="589.2687,-624.6438 596.0747,-630.1791 593.1344,-625.6719 597,-626.7 597,-626.7 597,-626.7 593.1344,-625.6719 597.9253,-623.2209 589.2687,-624.6438 589.2687,-624.6438"/>
<ellipse fill="none" stroke="#000000" cx="586.1762" cy="-623.8214" rx="3.2" ry="3.2"/>
</g>
<!-- meetings&#45;&gt;project -->
<g id="edge10" class="edge">
<title>meetings:w&#45;&gt;project:e</title>
<path fill="none" stroke="#000000" d="M377.6886,-626.1955C238.6072,-616.5126 232.5428,-470.7 84,-470.7"/>
<polygon fill="#000000" stroke="#000000" points="384.5046,-626.4276 392.3774,-630.2979 388.5023,-626.5638 392.5,-626.7 392.5,-626.7 392.5,-626.7 388.5023,-626.5638 392.6226,-623.1021 384.5046,-626.4276 384.5046,-626.4276"/>
<ellipse fill="none" stroke="#000000" cx="381.3065" cy="-626.3186" rx="3.2" ry="3.2"/>
</g>
<!-- meetings&#45;&gt;project_task -->
<g id="edge11" class="edge">
<title>meetings:w&#45;&gt;project_task:e</title>
<path fill="none" stroke="#000000" d="M377.9288,-626.2561C349.5548,-624.2985 334.7014,-615.3198 315,-588.7 281.2583,-543.1094 331.2186,-336.7 274.5,-336.7"/>
<polygon fill="#000000" stroke="#000000" points="384.5037,-626.4563 392.3903,-630.2983 388.5019,-626.5782 392.5,-626.7 392.5,-626.7 392.5,-626.7 388.5019,-626.5782 392.6097,-623.1017 384.5037,-626.4563 384.5037,-626.4563"/>
<ellipse fill="none" stroke="#000000" cx="381.3052" cy="-626.3589" rx="3.2" ry="3.2"/>
</g>
<!-- tasks&#45;&gt;project -->
<g id="edge27" class="edge">
<title>tasks:w&#45;&gt;project:e</title>
<path fill="none" stroke="#000000" d="M387.0058,-175.3832C273.4076,-170.4329 212.3669,-110.2061 125,-189.7 78.3241,-232.1698 147.1056,-470.7 84,-470.7"/>
<polygon fill="#000000" stroke="#000000" points="393.5019,-175.5251 401.4213,-179.2991 397.501,-175.6126 401.5,-175.7 401.5,-175.7 401.5,-175.7 397.501,-175.6126 401.5787,-172.1009 393.5019,-175.5251 393.5019,-175.5251"/>
<ellipse fill="none" stroke="#000000" cx="390.3027" cy="-175.4552" rx="3.2" ry="3.2"/>
</g>
<!-- tasks&#45;&gt;project_task -->
<g id="edge28" class="edge">
<title>tasks:w&#45;&gt;project_task:e</title>
<path fill="none" stroke="#000000" d="M386.7642,-176.3455C353.9147,-179.4883 340.0173,-194.2484 315,-223.7 280.461,-264.3611 327.8505,-336.7 274.5,-336.7"/>
<polygon fill="#000000" stroke="#000000" points="393.5077,-176.0502 401.6576,-179.2966 397.5038,-175.8751 401.5,-175.7 401.5,-175.7 401.5,-175.7 397.5038,-175.8751 401.3424,-172.1034 393.5077,-176.0502 393.5077,-176.0502"/>
<ellipse fill="none" stroke="#000000" cx="390.3107" cy="-176.1902" rx="3.2" ry="3.2"/>
</g>
<!-- notes -->
<g id="node8" class="node">
<title>notes</title>
<g id="a_node8"><a xlink:href="../../tables/notes.html" xlink:title="notes" target="_top">
<polygon fill="#ffffff" stroke="transparent" points="617.5,-175.2 617.5,-236.2 686.5,-236.2 686.5,-175.2 617.5,-175.2"/>
<polygon fill="#f5f5f5" stroke="transparent" points="618,-212.7 618,-235.7 687,-235.7 687,-212.7 618,-212.7"/>
<polygon fill="none" stroke="#000000" points="618,-212.7 618,-235.7 687,-235.7 687,-212.7 618,-212.7"/>
<text text-anchor="start" x="622.5492" y="-221.8" font-family="Helvetica,sans-Serif" font-weight="bold" font-size="11.00" fill="#000000">notes</text>
<text text-anchor="start" x="652.5219" y="-220.8" font-family="Helvetica,sans-Serif" font-size="11.00" fill="#000000">[table]</text>
<polygon fill="none" stroke="#000000" points="618,-193.7 618,-212.7 687,-212.7 687,-193.7 618,-193.7"/>
<text text-anchor="start" x="621" y="-199.8" font-family="Helvetica,sans-Serif" font-size="11.00" fill="#000000">...</text>
<polygon fill="#ffffff" stroke="transparent" points="618,-174.7 618,-193.7 649,-193.7 649,-174.7 618,-174.7"/>
<polygon fill="none" stroke="#000000" points="618,-174.7 618,-193.7 649,-193.7 649,-174.7 618,-174.7"/>
<text text-anchor="start" x="621" y="-180.8" font-family="Helvetica,sans-Serif" font-size="11.00" fill="#000000">&lt; 19</text>
<polygon fill="#ffffff" stroke="transparent" points="649,-174.7 649,-193.7 663,-193.7 663,-174.7 649,-174.7"/>
<polygon fill="none" stroke="#000000" points="649,-174.7 649,-193.7 663,-193.7 663,-174.7 649,-174.7"/>
<text text-anchor="start" x="653.8862" y="-180.8" font-family="Helvetica,sans-Serif" font-size="11.00" fill="#000000"> &#160;</text>
<polygon fill="#ffffff" stroke="transparent" points="663,-174.7 663,-193.7 687,-193.7 687,-174.7 663,-174.7"/>
<polygon fill="none" stroke="#000000" points="663,-174.7 663,-193.7 687,-193.7 687,-174.7 663,-174.7"/>
<text text-anchor="start" x="668.4053" y="-180.8" font-family="Helvetica,sans-Serif" font-size="11.00" fill="#000000">1 &gt;</text>
</a>
</g>
</g>
<!-- notes&#45;&gt;calls -->
<g id="edge12" class="edge">
<title>notes:w&#45;&gt;calls:e</title>
<path fill="none" stroke="#000000" d="M603.7437,-200.4886C574.1845,-189.712 587.723,-142.0697 556,-113.7 522.6459,-83.8717 512.2462,-65.7 467.5,-65.7"/>
<polygon fill="#000000" stroke="#000000" points="610.0945,-201.4737 617.4481,-206.2575 614.0473,-202.0868 618,-202.7 618,-202.7 618,-202.7 614.0473,-202.0868 618.5519,-199.1425 610.0945,-201.4737 610.0945,-201.4737"/>
<ellipse fill="none" stroke="#000000" cx="606.9324" cy="-200.9831" rx="3.2" ry="3.2"/>
</g>
<!-- notes&#45;&gt;project -->
<g id="edge15" class="edge">
<title>notes:w&#45;&gt;project:e</title>
<path fill="none" stroke="#000000" d="M603.7882,-199.8614C581.2319,-189.1542 587.3969,-151.1416 556,-137.7 511.9663,-118.8484 160.1736,-114.1859 125,-146.7 71.7071,-195.9634 156.5742,-470.7 84,-470.7"/>
<polygon fill="#000000" stroke="#000000" points="610.155,-201.133 617.2949,-206.2303 614.0775,-201.9165 618,-202.7 618,-202.7 618,-202.7 614.0775,-201.9165 618.7051,-199.1697 610.155,-201.133 610.155,-201.133"/>
<ellipse fill="none" stroke="#000000" cx="607.0169" cy="-200.5063" rx="3.2" ry="3.2"/>
</g>
<!-- notes&#45;&gt;project_task -->
<g id="edge16" class="edge">
<title>notes:w&#45;&gt;project_task:e</title>
<path fill="none" stroke="#000000" d="M603.5678,-203.8752C586.4511,-206.9274 578.5438,-215.1824 556,-219.7 503.0558,-230.3096 358.6531,-218.9186 315,-250.7 280.8446,-275.5666 316.7485,-336.7 274.5,-336.7"/>
<polygon fill="#000000" stroke="#000000" points="610.0264,-203.3493 618.2922,-206.2881 614.0132,-203.0247 618,-202.7 618,-202.7 618,-202.7 614.0132,-203.0247 617.7078,-199.1119 610.0264,-203.3493 610.0264,-203.3493"/>
<ellipse fill="none" stroke="#000000" cx="606.8369" cy="-203.6091" rx="3.2" ry="3.2"/>
</g>
<!-- notes&#45;&gt;emails -->
<g id="edge13" class="edge">
<title>notes:w&#45;&gt;emails:e</title>
<path fill="none" stroke="#000000" d="M603.595,-205.579C523.3599,-240.8984 615.2868,-590.6906 556,-670.7 531.7251,-703.4597 513.2734,-708.7 472.5,-708.7"/>
<polygon fill="#000000" stroke="#000000" points="610.1551,-204.2679 618.7056,-206.2302 614.0776,-203.484 618,-202.7 618,-202.7 618,-202.7 614.0776,-203.484 617.2944,-199.1698 610.1551,-204.2679 610.1551,-204.2679"/>
<ellipse fill="none" stroke="#000000" cx="607.0172" cy="-204.8951" rx="3.2" ry="3.2"/>
</g>
<!-- notes&#45;&gt;meetings -->
<g id="edge14" class="edge">
<title>notes:w&#45;&gt;meetings:e</title>
<path fill="none" stroke="#000000" d="M603.9504,-206.0509C539.9027,-240.0675 604.3815,-522.9689 556,-588.7 533.4957,-619.2744 517.4636,-626.7 479.5,-626.7"/>
<polygon fill="#000000" stroke="#000000" points="610.2183,-204.556 618.8352,-206.2018 614.1091,-203.628 618,-202.7 618,-202.7 618,-202.7 614.1091,-203.628 617.1648,-199.1982 610.2183,-204.556 610.2183,-204.556"/>
<ellipse fill="none" stroke="#000000" cx="607.1056" cy="-205.2984" rx="3.2" ry="3.2"/>
</g>
<!-- notes&#45;&gt;tasks -->
<g id="edge17" class="edge">
<title>notes:w&#45;&gt;tasks:e</title>
<path fill="none" stroke="#000000" d="M603.5422,-202.2539C548.4279,-198.7434 531.4723,-175.7 469.5,-175.7"/>
<polygon fill="#000000" stroke="#000000" points="610.0038,-202.4532 617.8889,-206.2983 614.0019,-202.5766 618,-202.7 618,-202.7 618,-202.7 614.0019,-202.5766 618.1111,-199.1017 610.0038,-202.4532 610.0038,-202.4532"/>
<ellipse fill="none" stroke="#000000" cx="606.8053" cy="-202.3545" rx="3.2" ry="3.2"/>
</g>
<!-- project_task_audit -->
<g id="node9" class="node">
<title>project_task_audit</title>
<g id="a_node9"><a xlink:href="../../tables/project_task_audit.html" xlink:title="project_task_audit" target="_top">
<polygon fill="#ffffff" stroke="transparent" points="323,-311.7 323,-577.7 548,-577.7 548,-311.7 323,-311.7"/>
<polygon fill="#f5f5f5" stroke="transparent" points="325.5,-552.7 325.5,-575.7 546.5,-575.7 546.5,-552.7 325.5,-552.7"/>
<polygon fill="none" stroke="#000000" points="325.5,-552.7 325.5,-575.7 546.5,-575.7 546.5,-552.7 325.5,-552.7"/>
<text text-anchor="start" x="330.5" y="-561.8" font-family="Helvetica,sans-Serif" font-weight="bold" font-size="11.00" fill="#000000">project_task_audit</text>
<text text-anchor="start" x="511.5437" y="-560.8" font-family="Helvetica,sans-Serif" font-size="11.00" fill="#000000">[table]</text>
<polygon fill="none" stroke="#000000" points="325.5,-530.7 325.5,-552.7 479.5,-552.7 479.5,-530.7 325.5,-530.7"/>
<image xlink:href="../../images/primaryKeys.png" width="11px" height="12px" preserveAspectRatio="xMinYMin meet" x="330.5" y="-547.7"/>
<text text-anchor="start" x="345.5" y="-537.8" font-family="Helvetica,sans-Serif" font-size="11.00" fill="#000000">id</text>
<polygon fill="none" stroke="#000000" points="479.5,-530.7 479.5,-552.7 546.5,-552.7 546.5,-530.7 479.5,-530.7"/>
<text text-anchor="start" x="482.5" y="-538.4" font-family="Helvetica,sans-Serif" font-size="11.00" fill="#000000">char[36]</text>
<polygon fill="#ffffff" stroke="transparent" points="325.5,-508.7 325.5,-530.7 479.5,-530.7 479.5,-508.7 325.5,-508.7"/>
<polygon fill="none" stroke="#000000" points="325.5,-508.7 325.5,-530.7 479.5,-530.7 479.5,-508.7 325.5,-508.7"/>
<image xlink:href="../../images/foreignKeys.png" width="11px" height="12px" preserveAspectRatio="xMinYMin meet" x="330.5" y="-525.7"/>
<text text-anchor="start" x="345.5" y="-515.8" font-family="Helvetica,sans-Serif" font-size="11.00" fill="#000000">parent_id</text>
<polygon fill="none" stroke="#000000" points="479.5,-508.7 479.5,-530.7 546.5,-530.7 546.5,-508.7 479.5,-508.7"/>
<text text-anchor="start" x="482.5" y="-516.4" font-family="Helvetica,sans-Serif" font-size="11.00" fill="#000000">char[36]</text>
<polygon fill="none" stroke="#000000" points="325.5,-486.7 325.5,-508.7 479.5,-508.7 479.5,-486.7 325.5,-486.7"/>
<text text-anchor="start" x="345.5" y="-493.8" font-family="Helvetica,sans-Serif" font-size="11.00" fill="#000000">date_created</text>
<polygon fill="none" stroke="#000000" points="479.5,-486.7 479.5,-508.7 546.5,-508.7 546.5,-486.7 479.5,-486.7"/>
<text text-anchor="start" x="482.5" y="-494.4" font-family="Helvetica,sans-Serif" font-size="11.00" fill="#000000">datetime[26]</text>
<polygon fill="none" stroke="#000000" points="325.5,-464.7 325.5,-486.7 479.5,-486.7 479.5,-464.7 325.5,-464.7"/>
<text text-anchor="start" x="345.5" y="-471.8" font-family="Helvetica,sans-Serif" font-size="11.00" fill="#000000">created_by</text>
<polygon fill="none" stroke="#000000" points="479.5,-464.7 479.5,-486.7 546.5,-486.7 546.5,-464.7 479.5,-464.7"/>
<text text-anchor="start" x="482.5" y="-472.4" font-family="Helvetica,sans-Serif" font-size="11.00" fill="#000000">varchar[36]</text>
<polygon fill="none" stroke="#000000" points="325.5,-442.7 325.5,-464.7 479.5,-464.7 479.5,-442.7 325.5,-442.7"/>
<text text-anchor="start" x="345.5" y="-449.8" font-family="Helvetica,sans-Serif" font-size="11.00" fill="#000000">field_name</text>
<polygon fill="none" stroke="#000000" points="479.5,-442.7 479.5,-464.7 546.5,-464.7 546.5,-442.7 479.5,-442.7"/>
<text text-anchor="start" x="482.4365" y="-450.4" font-family="Helvetica,sans-Serif" font-size="11.00" fill="#000000">varchar[100]</text>
<polygon fill="none" stroke="#000000" points="325.5,-420.7 325.5,-442.7 479.5,-442.7 479.5,-420.7 325.5,-420.7"/>
<text text-anchor="start" x="345.5" y="-427.8" font-family="Helvetica,sans-Serif" font-size="11.00" fill="#000000">data_type</text>
<polygon fill="none" stroke="#000000" points="479.5,-420.7 479.5,-442.7 546.5,-442.7 546.5,-420.7 479.5,-420.7"/>
<text text-anchor="start" x="482.4365" y="-428.4" font-family="Helvetica,sans-Serif" font-size="11.00" fill="#000000">varchar[100]</text>
<polygon fill="none" stroke="#000000" points="325.5,-398.7 325.5,-420.7 479.5,-420.7 479.5,-398.7 325.5,-398.7"/>
<text text-anchor="start" x="345.5" y="-405.8" font-family="Helvetica,sans-Serif" font-size="11.00" fill="#000000">before_value_string</text>
<polygon fill="none" stroke="#000000" points="479.5,-398.7 479.5,-420.7 546.5,-420.7 546.5,-398.7 479.5,-398.7"/>
<text text-anchor="start" x="482.4365" y="-406.4" font-family="Helvetica,sans-Serif" font-size="11.00" fill="#000000">varchar[255]</text>
<polygon fill="none" stroke="#000000" points="325.5,-376.7 325.5,-398.7 479.5,-398.7 479.5,-376.7 325.5,-376.7"/>
<text text-anchor="start" x="345.5" y="-383.8" font-family="Helvetica,sans-Serif" font-size="11.00" fill="#000000">after_value_string</text>
<polygon fill="none" stroke="#000000" points="479.5,-376.7 479.5,-398.7 546.5,-398.7 546.5,-376.7 479.5,-376.7"/>
<text text-anchor="start" x="482.4365" y="-384.4" font-family="Helvetica,sans-Serif" font-size="11.00" fill="#000000">varchar[255]</text>
<polygon fill="none" stroke="#000000" points="325.5,-354.7 325.5,-376.7 479.5,-376.7 479.5,-354.7 325.5,-354.7"/>
<text text-anchor="start" x="345.5" y="-361.8" font-family="Helvetica,sans-Serif" font-size="11.00" fill="#000000">before_value_text</text>
<polygon fill="none" stroke="#000000" points="479.5,-354.7 479.5,-376.7 546.5,-376.7 546.5,-354.7 479.5,-354.7"/>
<text text-anchor="start" x="482.5" y="-362.4" font-family="Helvetica,sans-Serif" font-size="11.00" fill="#000000">text[65535]</text>
<polygon fill="none" stroke="#000000" points="325.5,-332.7 325.5,-354.7 479.5,-354.7 479.5,-332.7 325.5,-332.7"/>
<text text-anchor="start" x="345.5" y="-339.8" font-family="Helvetica,sans-Serif" font-size="11.00" fill="#000000">after_value_text</text>
<polygon fill="none" stroke="#000000" points="479.5,-332.7 479.5,-354.7 546.5,-354.7 546.5,-332.7 479.5,-332.7"/>
<text text-anchor="start" x="482.5" y="-340.4" font-family="Helvetica,sans-Serif" font-size="11.00" fill="#000000">text[65535]</text>
<polygon fill="#ffffff" stroke="transparent" points="325.5,-313.7 325.5,-332.7 406.5,-332.7 406.5,-313.7 325.5,-313.7"/>
<polygon fill="none" stroke="#000000" points="325.5,-313.7 325.5,-332.7 406.5,-332.7 406.5,-313.7 325.5,-313.7"/>
<text text-anchor="start" x="328.5" y="-319.8" font-family="Helvetica,sans-Serif" font-size="11.00" fill="#000000">&lt; 1</text>
<polygon fill="#ffffff" stroke="transparent" points="406.5,-313.7 406.5,-332.7 479.5,-332.7 479.5,-313.7 406.5,-313.7"/>
<polygon fill="none" stroke="#000000" points="406.5,-313.7 406.5,-332.7 479.5,-332.7 479.5,-313.7 406.5,-313.7"/>
<text text-anchor="start" x="470.3862" y="-319.8" font-family="Helvetica,sans-Serif" font-size="11.00" fill="#000000"> &#160;</text>
<polygon fill="#ffffff" stroke="transparent" points="479.5,-313.7 479.5,-332.7 546.5,-332.7 546.5,-313.7 479.5,-313.7"/>
<polygon fill="none" stroke="#000000" points="479.5,-313.7 479.5,-332.7 546.5,-332.7 546.5,-313.7 479.5,-313.7"/>
<text text-anchor="start" x="527.9053" y="-319.8" font-family="Helvetica,sans-Serif" font-size="11.00" fill="#000000">0 &gt;</text>
<polygon fill="none" stroke="#000000" stroke-width="2" points="324,-312.7 324,-576.7 547,-576.7 547,-312.7 324,-312.7"/>
</a>
</g>
</g>
<!-- project_task_audit&#45;&gt;project_task -->
<g id="edge19" class="edge">
<title>project_task_audit:w&#45;&gt;project_task:e</title>
<path fill="none" stroke="#000000" d="M311.2372,-517.3862C255.8292,-496.2023 353.3259,-336.7 274.5,-336.7"/>
<polygon fill="#000000" stroke="#000000" points="317.6032,-518.4189 324.9235,-523.2535 321.5516,-519.0594 325.5,-519.7 325.5,-519.7 325.5,-519.7 321.5516,-519.0594 326.0765,-516.1465 317.6032,-518.4189 317.6032,-518.4189"/>
<ellipse fill="none" stroke="#000000" cx="314.4445" cy="-517.9064" rx="3.2" ry="3.2"/>
</g>
<!-- securitygroups_records -->
<g id="node10" class="node">
<title>securitygroups_records</title>
<g id="a_node10"><a xlink:href="../../tables/securitygroups_records.html" xlink:title="securitygroups_records" target="_top">
<polygon fill="#ffffff" stroke="transparent" points="756,-233.2 756,-294.2 913,-294.2 913,-233.2 756,-233.2"/>
<polygon fill="#f5f5f5" stroke="transparent" points="756.5,-270.7 756.5,-293.7 913.5,-293.7 913.5,-270.7 756.5,-270.7"/>
<polygon fill="none" stroke="#000000" points="756.5,-270.7 756.5,-293.7 913.5,-293.7 913.5,-270.7 756.5,-270.7"/>
<text text-anchor="start" x="761.3528" y="-279.8" font-family="Helvetica,sans-Serif" font-weight="bold" font-size="11.00" fill="#000000">securitygroups_records</text>
<text text-anchor="start" x="879.0219" y="-278.8" font-family="Helvetica,sans-Serif" font-size="11.00" fill="#000000">[table]</text>
<polygon fill="none" stroke="#000000" points="756.5,-251.7 756.5,-270.7 913.5,-270.7 913.5,-251.7 756.5,-251.7"/>
<text text-anchor="start" x="759.5" y="-257.8" font-family="Helvetica,sans-Serif" font-size="11.00" fill="#000000">...</text>
<polygon fill="#ffffff" stroke="transparent" points="756.5,-232.7 756.5,-251.7 836.5,-251.7 836.5,-232.7 756.5,-232.7"/>
<polygon fill="none" stroke="#000000" points="756.5,-232.7 756.5,-251.7 836.5,-251.7 836.5,-232.7 756.5,-232.7"/>
<text text-anchor="start" x="759.5" y="-238.8" font-family="Helvetica,sans-Serif" font-size="11.00" fill="#000000">&lt; 41</text>
<polygon fill="#ffffff" stroke="transparent" points="836.5,-232.7 836.5,-251.7 874.5,-251.7 874.5,-232.7 836.5,-232.7"/>
<polygon fill="none" stroke="#000000" points="836.5,-232.7 836.5,-251.7 874.5,-251.7 874.5,-232.7 836.5,-232.7"/>
<text text-anchor="start" x="865.3862" y="-238.8" font-family="Helvetica,sans-Serif" font-size="11.00" fill="#000000"> &#160;</text>
<polygon fill="#ffffff" stroke="transparent" points="874.5,-232.7 874.5,-251.7 913.5,-251.7 913.5,-232.7 874.5,-232.7"/>
<polygon fill="none" stroke="#000000" points="874.5,-232.7 874.5,-251.7 913.5,-251.7 913.5,-232.7 874.5,-232.7"/>
<text text-anchor="start" x="904.3862" y="-238.8" font-family="Helvetica,sans-Serif" font-size="11.00" fill="#000000"> &#160;</text>
</a>
</g>
</g>
<!-- securitygroups_records&#45;&gt;calls -->
<g id="edge20" class="edge">
<title>securitygroups_records:w&#45;&gt;calls:e</title>
<path fill="none" stroke="#000000" d="M742.2713,-258.2615C709.529,-244.2703 752.4198,-173.5692 715,-137.7 632.2984,-58.4255 582.06,-65.7 467.5,-65.7"/>
<polygon fill="#000000" stroke="#000000" points="748.615,-259.3486 755.8919,-264.2483 752.5575,-260.0243 756.5,-260.7 756.5,-260.7 756.5,-260.7 752.5575,-260.0243 757.1081,-257.1517 748.615,-259.3486 748.615,-259.3486"/>
<ellipse fill="none" stroke="#000000" cx="745.4609" cy="-258.808" rx="3.2" ry="3.2"/>
</g>
<!-- securitygroups_records&#45;&gt;project -->
<g id="edge24" class="edge">
<title>securitygroups_records:w&#45;&gt;project:e</title>
<path fill="none" stroke="#000000" d="M745.138,-269.9271C713.1239,-330.362 741.663,-668.3297 715,-704.7 669.6611,-766.5456 631.1649,-756.5101 556,-771.7 364.453,-810.4092 245.6383,-838.4369 125,-684.7 65.2171,-608.5149 180.841,-470.7 84,-470.7"/>
<polygon fill="#000000" stroke="#000000" points="750.2898,-265.7432 758.7695,-263.4946 753.3949,-263.2216 756.5,-260.7 756.5,-260.7 756.5,-260.7 753.3949,-263.2216 754.2305,-257.9054 750.2898,-265.7432 750.2898,-265.7432"/>
<ellipse fill="none" stroke="#000000" cx="747.8058" cy="-267.7605" rx="3.2" ry="3.2"/>
</g>
<!-- securitygroups_records&#45;&gt;project_task -->
<g id="edge25" class="edge">
<title>securitygroups_records:w&#45;&gt;project_task:e</title>
<path fill="none" stroke="#000000" d="M742.0064,-260.5259C635.0593,-258.1839 397.1725,-233.7035 315,-278.7 287.4234,-293.8005 305.9403,-336.7 274.5,-336.7"/>
<polygon fill="#000000" stroke="#000000" points="748.5006,-260.6039 756.4567,-264.2997 752.5003,-260.6519 756.5,-260.7 756.5,-260.7 756.5,-260.7 752.5003,-260.6519 756.5433,-257.1003 748.5006,-260.6039 748.5006,-260.6039"/>
<ellipse fill="none" stroke="#000000" cx="745.3008" cy="-260.5654" rx="3.2" ry="3.2"/>
</g>
<!-- securitygroups_records&#45;&gt;emails -->
<g id="edge21" class="edge">
<title>securitygroups_records:w&#45;&gt;emails:e</title>
<path fill="none" stroke="#000000" d="M742.4335,-264.1131C677.566,-300.0033 774.2748,-608.0996 715,-670.7 639.9925,-749.9159 581.593,-708.7 472.5,-708.7"/>
<polygon fill="#000000" stroke="#000000" points="748.7256,-262.5865 757.3489,-264.1985 752.6128,-261.6432 756.5,-260.7 756.5,-260.7 756.5,-260.7 752.6128,-261.6432 755.6511,-257.2015 748.7256,-262.5865 748.7256,-262.5865"/>
<ellipse fill="none" stroke="#000000" cx="745.6158" cy="-263.341" rx="3.2" ry="3.2"/>
</g>
<!-- securitygroups_records&#45;&gt;meetings -->
<g id="edge22" class="edge">
<title>securitygroups_records:w&#45;&gt;meetings:e</title>
<path fill="none" stroke="#000000" d="M742.2968,-263.2137C665.1374,-290.6376 615.4271,-534.2657 556,-588.7 528.0055,-614.3426 517.4636,-626.7 479.5,-626.7"/>
<polygon fill="#000000" stroke="#000000" points="748.6224,-262.0942 757.1274,-264.2449 752.5612,-261.3971 756.5,-260.7 756.5,-260.7 756.5,-260.7 752.5612,-261.3971 755.8726,-257.1551 748.6224,-262.0942 748.6224,-262.0942"/>
<ellipse fill="none" stroke="#000000" cx="745.4714" cy="-262.6519" rx="3.2" ry="3.2"/>
</g>
<!-- securitygroups_records&#45;&gt;tasks -->
<g id="edge26" class="edge">
<title>securitygroups_records:w&#45;&gt;tasks:e</title>
<path fill="none" stroke="#000000" d="M742.3533,-257.2412C720.2009,-242.7735 748.6866,-186.837 715,-164.7 623.7239,-104.7182 578.7206,-175.7 469.5,-175.7"/>
<polygon fill="#000000" stroke="#000000" points="748.7289,-258.7999 755.645,-264.197 752.6145,-259.75 756.5,-260.7 756.5,-260.7 756.5,-260.7 752.6145,-259.75 757.355,-257.203 748.7289,-258.7999 748.7289,-258.7999"/>
<ellipse fill="none" stroke="#000000" cx="745.6205" cy="-258.0399" rx="3.2" ry="3.2"/>
</g>
<!-- securitygroups_records&#45;&gt;notes -->
<g id="edge23" class="edge">
<title>securitygroups_records:w&#45;&gt;notes:e</title>
<path fill="none" stroke="#000000" d="M742.2796,-257.5817C718.3392,-245.5345 721.5744,-202.7 687,-202.7"/>
<polygon fill="#000000" stroke="#000000" points="748.6857,-258.9864 755.7289,-264.2164 752.5928,-259.8432 756.5,-260.7 756.5,-260.7 756.5,-260.7 752.5928,-259.8432 757.2711,-257.1836 748.6857,-258.9864 748.6857,-258.9864"/>
<ellipse fill="none" stroke="#000000" cx="745.5599" cy="-258.3009" rx="3.2" ry="3.2"/>
</g>
</g>
</svg>
