<?xml version="1.0" encoding="UTF-8" standalone="no"?>
<!DOCTYPE svg PUBLIC "-//W3C//DTD SVG 1.1//EN"
 "http://www.w3.org/Graphics/SVG/1.1/DTD/svg11.dtd">
<!-- Generated by graphviz version 2.40.1 (20161225.0304)
 -->
<!-- Title: twoDegreesRelationshipsDiagram Pages: 1 -->
<svg width="1212pt" height="1569pt"
 viewBox="0.00 0.00 1212.00 1568.87" xmlns="http://www.w3.org/2000/svg" xmlns:xlink="http://www.w3.org/1999/xlink">
<g id="graph0" class="graph" transform="scale(1 1) rotate(0) translate(4 1564.8672)">
<title>twoDegreesRelationshipsDiagram</title>
<polygon fill="#ffffff" stroke="transparent" points="-4,4 -4,-1564.8672 1208,-1564.8672 1208,4 -4,4"/>
<text text-anchor="middle" x="72.4936" y="-7.3" font-family="Helvetica,sans-Serif" font-size="11.00" fill="#000000">Generated by SchemaSpy</text>
<!-- accounts_bugs -->
<g id="node1" class="node">
<title>accounts_bugs</title>
<g id="a_node1"><a xlink:href="../../tables/accounts_bugs.html" xlink:title="accounts_bugs" target="_top">
<polygon fill="#ffffff" stroke="transparent" points="679.5,-1252.6805 679.5,-1313.6805 795.5,-1313.6805 795.5,-1252.6805 679.5,-1252.6805"/>
<polygon fill="#f5f5f5" stroke="transparent" points="679.5,-1290.1805 679.5,-1313.1805 795.5,-1313.1805 795.5,-1290.1805 679.5,-1290.1805"/>
<polygon fill="none" stroke="#000000" points="679.5,-1290.1805 679.5,-1313.1805 795.5,-1313.1805 795.5,-1290.1805 679.5,-1290.1805"/>
<text text-anchor="start" x="684.012" y="-1299.2805" font-family="Helvetica,sans-Serif" font-weight="bold" font-size="11.00" fill="#000000">accounts_bugs</text>
<text text-anchor="start" x="761.0219" y="-1298.2805" font-family="Helvetica,sans-Serif" font-size="11.00" fill="#000000">[table]</text>
<polygon fill="none" stroke="#000000" points="679.5,-1271.1805 679.5,-1290.1805 795.5,-1290.1805 795.5,-1271.1805 679.5,-1271.1805"/>
<text text-anchor="start" x="682.5" y="-1277.2805" font-family="Helvetica,sans-Serif" font-size="11.00" fill="#000000">...</text>
<polygon fill="#ffffff" stroke="transparent" points="679.5,-1252.1805 679.5,-1271.1805 735.5,-1271.1805 735.5,-1252.1805 679.5,-1252.1805"/>
<polygon fill="none" stroke="#000000" points="679.5,-1252.1805 679.5,-1271.1805 735.5,-1271.1805 735.5,-1252.1805 679.5,-1252.1805"/>
<text text-anchor="start" x="682.5" y="-1258.2805" font-family="Helvetica,sans-Serif" font-size="11.00" fill="#000000">&lt; 2</text>
<polygon fill="#ffffff" stroke="transparent" points="735.5,-1252.1805 735.5,-1271.1805 765.5,-1271.1805 765.5,-1252.1805 735.5,-1252.1805"/>
<polygon fill="none" stroke="#000000" points="735.5,-1252.1805 735.5,-1271.1805 765.5,-1271.1805 765.5,-1252.1805 735.5,-1252.1805"/>
<text text-anchor="start" x="756.3862" y="-1258.2805" font-family="Helvetica,sans-Serif" font-size="11.00" fill="#000000"> &#160;</text>
<polygon fill="#ffffff" stroke="transparent" points="765.5,-1252.1805 765.5,-1271.1805 795.5,-1271.1805 795.5,-1252.1805 765.5,-1252.1805"/>
<polygon fill="none" stroke="#000000" points="765.5,-1252.1805 765.5,-1271.1805 795.5,-1271.1805 795.5,-1252.1805 765.5,-1252.1805"/>
<text text-anchor="start" x="786.3862" y="-1258.2805" font-family="Helvetica,sans-Serif" font-size="11.00" fill="#000000"> &#160;</text>
</a>
</g>
</g>
<!-- bugs -->
<g id="node2" class="node">
<title>bugs</title>
<g id="a_node2"><a xlink:href="../../tables/bugs.html" xlink:title="bugs" target="_top">
<polygon fill="#ffffff" stroke="transparent" points="421.5,-1043.6805 421.5,-1280.6805 560.5,-1280.6805 560.5,-1043.6805 421.5,-1043.6805"/>
<polygon fill="#f5f5f5" stroke="transparent" points="422,-1257.1805 422,-1280.1805 561,-1280.1805 561,-1257.1805 422,-1257.1805"/>
<polygon fill="none" stroke="#000000" points="422,-1257.1805 422,-1280.1805 561,-1280.1805 561,-1257.1805 422,-1257.1805"/>
<text text-anchor="start" x="427" y="-1266.2805" font-family="Helvetica,sans-Serif" font-weight="bold" font-size="11.00" fill="#000000">bugs</text>
<text text-anchor="start" x="526.0437" y="-1265.2805" font-family="Helvetica,sans-Serif" font-size="11.00" fill="#000000">[table]</text>
<polygon fill="none" stroke="#000000" points="422,-1235.1805 422,-1257.1805 561,-1257.1805 561,-1235.1805 422,-1235.1805"/>
<image xlink:href="../../images/primaryKeys.png" width="11px" height="12px" preserveAspectRatio="xMinYMin meet" x="427" y="-1252.18"/>
<text text-anchor="start" x="442" y="-1242.2805" font-family="Helvetica,sans-Serif" font-size="11.00" fill="#000000">id</text>
<polygon fill="#ffffff" stroke="transparent" points="422,-1213.1805 422,-1235.1805 561,-1235.1805 561,-1213.1805 422,-1213.1805"/>
<polygon fill="none" stroke="#000000" points="422,-1213.1805 422,-1235.1805 561,-1235.1805 561,-1213.1805 422,-1213.1805"/>
<text text-anchor="start" x="442" y="-1220.2805" font-family="Helvetica,sans-Serif" font-size="11.00" fill="#000000">name</text>
<polygon fill="#c0c0c0" stroke="transparent" points="422,-1191.1805 422,-1213.1805 561,-1213.1805 561,-1191.1805 422,-1191.1805"/>
<polygon fill="none" stroke="#000000" points="422,-1191.1805 422,-1213.1805 561,-1213.1805 561,-1191.1805 422,-1191.1805"/>
<image xlink:href="../../images/foreignKeys.png" width="11px" height="12px" preserveAspectRatio="xMinYMin meet" x="427" y="-1208.18"/>
<text text-anchor="start" x="442" y="-1198.2805" font-family="Helvetica,sans-Serif" font-size="11.00" fill="#000000">modified_user_id</text>
<polygon fill="#c0c0c0" stroke="transparent" points="422,-1169.1805 422,-1191.1805 561,-1191.1805 561,-1169.1805 422,-1169.1805"/>
<polygon fill="none" stroke="#000000" points="422,-1169.1805 422,-1191.1805 561,-1191.1805 561,-1169.1805 422,-1169.1805"/>
<image xlink:href="../../images/foreignKeys.png" width="11px" height="12px" preserveAspectRatio="xMinYMin meet" x="427" y="-1186.18"/>
<text text-anchor="start" x="442" y="-1176.2805" font-family="Helvetica,sans-Serif" font-size="11.00" fill="#000000">created_by</text>
<polygon fill="#c0c0c0" stroke="transparent" points="422,-1147.1805 422,-1169.1805 561,-1169.1805 561,-1147.1805 422,-1147.1805"/>
<polygon fill="none" stroke="#000000" points="422,-1147.1805 422,-1169.1805 561,-1169.1805 561,-1147.1805 422,-1147.1805"/>
<image xlink:href="../../images/foreignKeys.png" width="11px" height="12px" preserveAspectRatio="xMinYMin meet" x="427" y="-1164.18"/>
<text text-anchor="start" x="442" y="-1154.2805" font-family="Helvetica,sans-Serif" font-size="11.00" fill="#000000">assigned_user_id</text>
<polygon fill="#ffffff" stroke="transparent" points="422,-1125.1805 422,-1147.1805 561,-1147.1805 561,-1125.1805 422,-1125.1805"/>
<polygon fill="none" stroke="#000000" points="422,-1125.1805 422,-1147.1805 561,-1147.1805 561,-1125.1805 422,-1125.1805"/>
<text text-anchor="start" x="442" y="-1132.2805" font-family="Helvetica,sans-Serif" font-size="11.00" fill="#000000">bug_number</text>
<polygon fill="none" stroke="#000000" points="422,-1103.1805 422,-1125.1805 561,-1125.1805 561,-1103.1805 422,-1103.1805"/>
<image xlink:href="../../images/foreignKeys.png" width="11px" height="12px" preserveAspectRatio="xMinYMin meet" x="427" y="-1120.18"/>
<text text-anchor="start" x="442" y="-1110.2805" font-family="Helvetica,sans-Serif" font-size="11.00" fill="#000000">found_in_release</text>
<polygon fill="none" stroke="#000000" points="422,-1081.1805 422,-1103.1805 561,-1103.1805 561,-1081.1805 422,-1081.1805"/>
<image xlink:href="../../images/foreignKeys.png" width="11px" height="12px" preserveAspectRatio="xMinYMin meet" x="427" y="-1098.18"/>
<text text-anchor="start" x="442" y="-1088.2805" font-family="Helvetica,sans-Serif" font-size="11.00" fill="#000000">fixed_in_release</text>
<polygon fill="none" stroke="#000000" points="422,-1062.1805 422,-1081.1805 561,-1081.1805 561,-1062.1805 422,-1062.1805"/>
<text text-anchor="start" x="425" y="-1068.2805" font-family="Helvetica,sans-Serif" font-size="11.00" fill="#000000">...</text>
<polygon fill="#ffffff" stroke="transparent" points="422,-1043.1805 422,-1062.1805 482,-1062.1805 482,-1043.1805 422,-1043.1805"/>
<polygon fill="none" stroke="#000000" points="422,-1043.1805 422,-1062.1805 482,-1062.1805 482,-1043.1805 422,-1043.1805"/>
<text text-anchor="start" x="425" y="-1049.2805" font-family="Helvetica,sans-Serif" font-size="11.00" fill="#000000">&lt; 5</text>
<polygon fill="#ffffff" stroke="transparent" points="482,-1043.1805 482,-1062.1805 514,-1062.1805 514,-1043.1805 482,-1043.1805"/>
<polygon fill="none" stroke="#000000" points="482,-1043.1805 482,-1062.1805 514,-1062.1805 514,-1043.1805 482,-1043.1805"/>
<text text-anchor="start" x="504.8862" y="-1049.2805" font-family="Helvetica,sans-Serif" font-size="11.00" fill="#000000"> &#160;</text>
<polygon fill="#ffffff" stroke="transparent" points="514,-1043.1805 514,-1062.1805 561,-1062.1805 561,-1043.1805 514,-1043.1805"/>
<polygon fill="none" stroke="#000000" points="514,-1043.1805 514,-1062.1805 561,-1062.1805 561,-1043.1805 514,-1043.1805"/>
<text text-anchor="start" x="536.2904" y="-1049.2805" font-family="Helvetica,sans-Serif" font-size="11.00" fill="#000000">13 &gt;</text>
</a>
</g>
</g>
<!-- accounts_bugs&#45;&gt;bugs -->
<g id="edge1" class="edge">
<title>accounts_bugs:w&#45;&gt;bugs:e</title>
<path fill="none" stroke="#000000" d="M664.9489,-1279.3059C622.5815,-1273.9841 610.5479,-1246.1805 561,-1246.1805"/>
<polygon fill="#000000" stroke="#000000" points="671.5144,-1279.7004 679.284,-1283.774 675.5072,-1279.9405 679.5,-1280.1805 679.5,-1280.1805 679.5,-1280.1805 675.5072,-1279.9405 679.716,-1276.587 671.5144,-1279.7004 671.5144,-1279.7004"/>
<ellipse fill="none" stroke="#000000" cx="668.3202" cy="-1279.5084" rx="3.2" ry="3.2"/>
</g>
<!-- releases -->
<g id="node6" class="node">
<title>releases</title>
<g id="a_node6"><a xlink:href="../../tables/releases.html" xlink:title="releases" target="_top">
<polygon fill="#ffffff" stroke="transparent" points="202.5,-1075.6805 202.5,-1136.6805 286.5,-1136.6805 286.5,-1075.6805 202.5,-1075.6805"/>
<polygon fill="#f5f5f5" stroke="transparent" points="202.5,-1113.1805 202.5,-1136.1805 286.5,-1136.1805 286.5,-1113.1805 202.5,-1113.1805"/>
<polygon fill="none" stroke="#000000" points="202.5,-1113.1805 202.5,-1136.1805 286.5,-1136.1805 286.5,-1113.1805 202.5,-1113.1805"/>
<text text-anchor="start" x="207.2188" y="-1122.2805" font-family="Helvetica,sans-Serif" font-weight="bold" font-size="11.00" fill="#000000">releases</text>
<text text-anchor="start" x="252.0219" y="-1121.2805" font-family="Helvetica,sans-Serif" font-size="11.00" fill="#000000">[table]</text>
<polygon fill="none" stroke="#000000" points="202.5,-1094.1805 202.5,-1113.1805 286.5,-1113.1805 286.5,-1094.1805 202.5,-1094.1805"/>
<text text-anchor="start" x="205.5" y="-1100.2805" font-family="Helvetica,sans-Serif" font-size="11.00" fill="#000000">...</text>
<polygon fill="#ffffff" stroke="transparent" points="202.5,-1075.1805 202.5,-1094.1805 233.5,-1094.1805 233.5,-1075.1805 202.5,-1075.1805"/>
<polygon fill="none" stroke="#000000" points="202.5,-1075.1805 202.5,-1094.1805 233.5,-1094.1805 233.5,-1075.1805 202.5,-1075.1805"/>
<text text-anchor="start" x="205.5" y="-1081.2805" font-family="Helvetica,sans-Serif" font-size="11.00" fill="#000000"> &#160;</text>
<polygon fill="#ffffff" stroke="transparent" points="233.5,-1075.1805 233.5,-1094.1805 255.5,-1094.1805 255.5,-1075.1805 233.5,-1075.1805"/>
<polygon fill="none" stroke="#000000" points="233.5,-1075.1805 233.5,-1094.1805 255.5,-1094.1805 255.5,-1075.1805 233.5,-1075.1805"/>
<text text-anchor="start" x="246.3862" y="-1081.2805" font-family="Helvetica,sans-Serif" font-size="11.00" fill="#000000"> &#160;</text>
<polygon fill="#ffffff" stroke="transparent" points="255.5,-1075.1805 255.5,-1094.1805 286.5,-1094.1805 286.5,-1075.1805 255.5,-1075.1805"/>
<polygon fill="none" stroke="#000000" points="255.5,-1075.1805 255.5,-1094.1805 286.5,-1094.1805 286.5,-1075.1805 255.5,-1075.1805"/>
<text text-anchor="start" x="267.9053" y="-1081.2805" font-family="Helvetica,sans-Serif" font-size="11.00" fill="#000000">2 &gt;</text>
</a>
</g>
</g>
<!-- bugs&#45;&gt;releases -->
<g id="edge4" class="edge">
<title>bugs:w&#45;&gt;releases:e</title>
<path fill="none" stroke="#000000" d="M407.3787,-1092.4102C358.7221,-1093.9899 341.728,-1103.1805 286.5,-1103.1805"/>
<polygon fill="#000000" stroke="#000000" points="414.001,-1092.3062 422.0566,-1095.78 418.0005,-1092.2434 422,-1092.1805 422,-1092.1805 422,-1092.1805 418.0005,-1092.2434 421.9434,-1088.5809 414.001,-1092.3062 414.001,-1092.3062"/>
<ellipse fill="none" stroke="#000000" cx="410.8014" cy="-1092.3565" rx="3.2" ry="3.2"/>
</g>
<!-- bugs&#45;&gt;releases -->
<g id="edge5" class="edge">
<title>bugs:w&#45;&gt;releases:e</title>
<path fill="none" stroke="#000000" d="M407.3787,-1113.9507C358.7221,-1112.3711 341.728,-1103.1805 286.5,-1103.1805"/>
<polygon fill="#000000" stroke="#000000" points="414.001,-1114.0547 421.9434,-1117.78 418.0005,-1114.1176 422,-1114.1805 422,-1114.1805 422,-1114.1805 418.0005,-1114.1176 422.0566,-1110.5809 414.001,-1114.0547 414.001,-1114.0547"/>
<ellipse fill="none" stroke="#000000" cx="410.8014" cy="-1114.0044" rx="3.2" ry="3.2"/>
</g>
<!-- am_projecttemplates_project_1_c -->
<g id="node3" class="node">
<title>am_projecttemplates_project_1_c</title>
<g id="a_node3"><a xlink:href="../../tables/am_projecttemplates_project_1_c.html" xlink:title="am_projecttemplates_project_1_c" target="_top">
<polygon fill="#ffffff" stroke="transparent" points="387,-906.6805 387,-967.6805 595,-967.6805 595,-906.6805 387,-906.6805"/>
<polygon fill="#f5f5f5" stroke="transparent" points="387,-944.1805 387,-967.1805 595,-967.1805 595,-944.1805 387,-944.1805"/>
<polygon fill="none" stroke="#000000" points="387,-944.1805 387,-967.1805 595,-967.1805 595,-944.1805 387,-944.1805"/>
<text text-anchor="start" x="391.9819" y="-953.2805" font-family="Helvetica,sans-Serif" font-weight="bold" font-size="11.00" fill="#000000">am_projecttemplates_project_1_c</text>
<text text-anchor="start" x="560.5219" y="-952.2805" font-family="Helvetica,sans-Serif" font-size="11.00" fill="#000000">[table]</text>
<polygon fill="none" stroke="#000000" points="387,-925.1805 387,-944.1805 595,-944.1805 595,-925.1805 387,-925.1805"/>
<text text-anchor="start" x="390" y="-931.2805" font-family="Helvetica,sans-Serif" font-size="11.00" fill="#000000">...</text>
<polygon fill="#ffffff" stroke="transparent" points="387,-906.1805 387,-925.1805 489,-925.1805 489,-906.1805 387,-906.1805"/>
<polygon fill="none" stroke="#000000" points="387,-906.1805 387,-925.1805 489,-925.1805 489,-906.1805 387,-906.1805"/>
<text text-anchor="start" x="390" y="-912.2805" font-family="Helvetica,sans-Serif" font-size="11.00" fill="#000000">&lt; 2</text>
<polygon fill="#ffffff" stroke="transparent" points="489,-906.1805 489,-925.1805 542,-925.1805 542,-906.1805 489,-906.1805"/>
<polygon fill="none" stroke="#000000" points="489,-906.1805 489,-925.1805 542,-925.1805 542,-906.1805 489,-906.1805"/>
<text text-anchor="start" x="532.8862" y="-912.2805" font-family="Helvetica,sans-Serif" font-size="11.00" fill="#000000"> &#160;</text>
<polygon fill="#ffffff" stroke="transparent" points="542,-906.1805 542,-925.1805 595,-925.1805 595,-906.1805 542,-906.1805"/>
<polygon fill="none" stroke="#000000" points="542,-906.1805 542,-925.1805 595,-925.1805 595,-906.1805 542,-906.1805"/>
<text text-anchor="start" x="585.8862" y="-912.2805" font-family="Helvetica,sans-Serif" font-size="11.00" fill="#000000"> &#160;</text>
</a>
</g>
</g>
<!-- project -->
<g id="node4" class="node">
<title>project</title>
<g id="a_node4"><a xlink:href="../../tables/project.html" xlink:title="project" target="_top">
<polygon fill="#ffffff" stroke="transparent" points="151,-520.6805 151,-669.6805 338,-669.6805 338,-520.6805 151,-520.6805"/>
<polygon fill="#f5f5f5" stroke="transparent" points="151.5,-646.1805 151.5,-669.1805 338.5,-669.1805 338.5,-646.1805 151.5,-646.1805"/>
<polygon fill="none" stroke="#000000" points="151.5,-646.1805 151.5,-669.1805 338.5,-669.1805 338.5,-646.1805 151.5,-646.1805"/>
<text text-anchor="start" x="156.5" y="-655.2805" font-family="Helvetica,sans-Serif" font-weight="bold" font-size="11.00" fill="#000000">project</text>
<text text-anchor="start" x="303.5437" y="-654.2805" font-family="Helvetica,sans-Serif" font-size="11.00" fill="#000000">[table]</text>
<polygon fill="none" stroke="#000000" points="151.5,-624.1805 151.5,-646.1805 338.5,-646.1805 338.5,-624.1805 151.5,-624.1805"/>
<image xlink:href="../../images/primaryKeys.png" width="11px" height="12px" preserveAspectRatio="xMinYMin meet" x="156.5" y="-641.18"/>
<text text-anchor="start" x="171.5" y="-631.2805" font-family="Helvetica,sans-Serif" font-size="11.00" fill="#000000">id</text>
<polygon fill="#c0c0c0" stroke="transparent" points="151.5,-602.1805 151.5,-624.1805 338.5,-624.1805 338.5,-602.1805 151.5,-602.1805"/>
<polygon fill="none" stroke="#000000" points="151.5,-602.1805 151.5,-624.1805 338.5,-624.1805 338.5,-602.1805 151.5,-602.1805"/>
<image xlink:href="../../images/foreignKeys.png" width="11px" height="12px" preserveAspectRatio="xMinYMin meet" x="156.5" y="-619.18"/>
<text text-anchor="start" x="171.5" y="-609.2805" font-family="Helvetica,sans-Serif" font-size="11.00" fill="#000000">assigned_user_id</text>
<polygon fill="#c0c0c0" stroke="transparent" points="151.5,-580.1805 151.5,-602.1805 338.5,-602.1805 338.5,-580.1805 151.5,-580.1805"/>
<polygon fill="none" stroke="#000000" points="151.5,-580.1805 151.5,-602.1805 338.5,-602.1805 338.5,-580.1805 151.5,-580.1805"/>
<image xlink:href="../../images/foreignKeys.png" width="11px" height="12px" preserveAspectRatio="xMinYMin meet" x="156.5" y="-597.18"/>
<text text-anchor="start" x="171.5" y="-587.2805" font-family="Helvetica,sans-Serif" font-size="11.00" fill="#000000">modified_user_id</text>
<polygon fill="#c0c0c0" stroke="transparent" points="151.5,-558.1805 151.5,-580.1805 338.5,-580.1805 338.5,-558.1805 151.5,-558.1805"/>
<polygon fill="none" stroke="#000000" points="151.5,-558.1805 151.5,-580.1805 338.5,-580.1805 338.5,-558.1805 151.5,-558.1805"/>
<image xlink:href="../../images/foreignKeys.png" width="11px" height="12px" preserveAspectRatio="xMinYMin meet" x="156.5" y="-575.18"/>
<text text-anchor="start" x="171.5" y="-565.2805" font-family="Helvetica,sans-Serif" font-size="11.00" fill="#000000">created_by</text>
<polygon fill="none" stroke="#000000" points="151.5,-539.1805 151.5,-558.1805 338.5,-558.1805 338.5,-539.1805 151.5,-539.1805"/>
<text text-anchor="start" x="154.5" y="-545.2805" font-family="Helvetica,sans-Serif" font-size="11.00" fill="#000000">...</text>
<polygon fill="#ffffff" stroke="transparent" points="151.5,-520.1805 151.5,-539.1805 235.5,-539.1805 235.5,-520.1805 151.5,-520.1805"/>
<polygon fill="none" stroke="#000000" points="151.5,-520.1805 151.5,-539.1805 235.5,-539.1805 235.5,-520.1805 151.5,-520.1805"/>
<text text-anchor="start" x="154.5" y="-526.2805" font-family="Helvetica,sans-Serif" font-size="11.00" fill="#000000">&lt; 4</text>
<polygon fill="#ffffff" stroke="transparent" points="235.5,-520.1805 235.5,-539.1805 279.5,-539.1805 279.5,-520.1805 235.5,-520.1805"/>
<polygon fill="none" stroke="#000000" points="235.5,-520.1805 235.5,-539.1805 279.5,-539.1805 279.5,-520.1805 235.5,-520.1805"/>
<text text-anchor="start" x="270.3862" y="-526.2805" font-family="Helvetica,sans-Serif" font-size="11.00" fill="#000000"> &#160;</text>
<polygon fill="#ffffff" stroke="transparent" points="279.5,-520.1805 279.5,-539.1805 338.5,-539.1805 338.5,-520.1805 279.5,-520.1805"/>
<polygon fill="none" stroke="#000000" points="279.5,-520.1805 279.5,-539.1805 338.5,-539.1805 338.5,-520.1805 279.5,-520.1805"/>
<text text-anchor="start" x="313.7904" y="-526.2805" font-family="Helvetica,sans-Serif" font-size="11.00" fill="#000000">18 &gt;</text>
</a>
</g>
</g>
<!-- am_projecttemplates_project_1_c&#45;&gt;project -->
<g id="edge2" class="edge">
<title>am_projecttemplates_project_1_c:w&#45;&gt;project:e</title>
<path fill="none" stroke="#000000" d="M373.6233,-928.7355C332.4968,-888.2111 400.4226,-635.1805 338.5,-635.1805"/>
<polygon fill="#000000" stroke="#000000" points="379.5903,-931.1644 385.6427,-937.5148 383.2952,-932.6724 387,-934.1805 387,-934.1805 387,-934.1805 383.2952,-932.6724 388.3573,-930.8461 379.5903,-931.1644 379.5903,-931.1644"/>
<ellipse fill="none" stroke="#000000" cx="376.6265" cy="-929.9579" rx="3.2" ry="3.2"/>
</g>
<!-- jjwg_maps -->
<g id="node16" class="node">
<title>jjwg_maps</title>
<g id="a_node16"><a xlink:href="../../tables/jjwg_maps.html" xlink:title="jjwg_maps" target="_top">
<polygon fill="#ffffff" stroke="transparent" points="8,-991.6805 8,-1052.6805 102,-1052.6805 102,-991.6805 8,-991.6805"/>
<polygon fill="#f5f5f5" stroke="transparent" points="8,-1029.1805 8,-1052.1805 102,-1052.1805 102,-1029.1805 8,-1029.1805"/>
<polygon fill="none" stroke="#000000" points="8,-1029.1805 8,-1052.1805 102,-1052.1805 102,-1029.1805 8,-1029.1805"/>
<text text-anchor="start" x="12.5279" y="-1038.2805" font-family="Helvetica,sans-Serif" font-weight="bold" font-size="11.00" fill="#000000">jjwg_maps</text>
<text text-anchor="start" x="67.5219" y="-1037.2805" font-family="Helvetica,sans-Serif" font-size="11.00" fill="#000000">[table]</text>
<polygon fill="none" stroke="#000000" points="8,-1010.1805 8,-1029.1805 102,-1029.1805 102,-1010.1805 8,-1010.1805"/>
<text text-anchor="start" x="11" y="-1016.2805" font-family="Helvetica,sans-Serif" font-size="11.00" fill="#000000">...</text>
<polygon fill="#ffffff" stroke="transparent" points="8,-991.1805 8,-1010.1805 46,-1010.1805 46,-991.1805 8,-991.1805"/>
<polygon fill="none" stroke="#000000" points="8,-991.1805 8,-1010.1805 46,-1010.1805 46,-991.1805 8,-991.1805"/>
<text text-anchor="start" x="11" y="-997.2805" font-family="Helvetica,sans-Serif" font-size="11.00" fill="#000000">&lt; 3</text>
<polygon fill="#ffffff" stroke="transparent" points="46,-991.1805 46,-1010.1805 66,-1010.1805 66,-991.1805 46,-991.1805"/>
<polygon fill="none" stroke="#000000" points="46,-991.1805 46,-1010.1805 66,-1010.1805 66,-991.1805 46,-991.1805"/>
<text text-anchor="start" x="56.8862" y="-997.2805" font-family="Helvetica,sans-Serif" font-size="11.00" fill="#000000"> &#160;</text>
<polygon fill="#ffffff" stroke="transparent" points="66,-991.1805 66,-1010.1805 102,-1010.1805 102,-991.1805 66,-991.1805"/>
<polygon fill="none" stroke="#000000" points="66,-991.1805 66,-1010.1805 102,-1010.1805 102,-991.1805 66,-991.1805"/>
<text text-anchor="start" x="77.2904" y="-997.2805" font-family="Helvetica,sans-Serif" font-size="11.00" fill="#000000">12 &gt;</text>
</a>
</g>
</g>
<!-- project&#45;&gt;jjwg_maps -->
<g id="edge32" class="edge">
<title>project:w&#45;&gt;jjwg_maps:e</title>
<path fill="none" stroke="#000000" d="M141.046,-635.7046C-8.1332,-651.5032 270.3818,-1019.1805 102,-1019.1805"/>
<polygon fill="#000000" stroke="#000000" points="150.5007,-631.2256 150.9013,-639.2155 149.3033,-639.2957 148.9027,-631.3057 150.5007,-631.2256"/>
<polyline fill="none" stroke="#000000" points="151.5,-635.1805 147.505,-635.3808 "/>
<ellipse fill="none" stroke="#000000" cx="144.309" cy="-635.5411" rx="3.2" ry="3.2"/>
</g>
<!-- aos_quotes_project_c -->
<g id="node5" class="node">
<title>aos_quotes_project_c</title>
<g id="a_node5"><a xlink:href="../../tables/aos_quotes_project_c.html" xlink:title="aos_quotes_project_c" target="_top">
<polygon fill="#ffffff" stroke="transparent" points="416,-824.6805 416,-885.6805 566,-885.6805 566,-824.6805 416,-824.6805"/>
<polygon fill="#f5f5f5" stroke="transparent" points="416,-862.1805 416,-885.1805 566,-885.1805 566,-862.1805 416,-862.1805"/>
<polygon fill="none" stroke="#000000" points="416,-862.1805 416,-885.1805 566,-885.1805 566,-862.1805 416,-862.1805"/>
<text text-anchor="start" x="420.7023" y="-871.2805" font-family="Helvetica,sans-Serif" font-weight="bold" font-size="11.00" fill="#000000">aos_quotes_project_c</text>
<text text-anchor="start" x="531.5219" y="-870.2805" font-family="Helvetica,sans-Serif" font-size="11.00" fill="#000000">[table]</text>
<polygon fill="none" stroke="#000000" points="416,-843.1805 416,-862.1805 566,-862.1805 566,-843.1805 416,-843.1805"/>
<text text-anchor="start" x="419" y="-849.2805" font-family="Helvetica,sans-Serif" font-size="11.00" fill="#000000">...</text>
<polygon fill="#ffffff" stroke="transparent" points="416,-824.1805 416,-843.1805 489,-843.1805 489,-824.1805 416,-824.1805"/>
<polygon fill="none" stroke="#000000" points="416,-824.1805 416,-843.1805 489,-843.1805 489,-824.1805 416,-824.1805"/>
<text text-anchor="start" x="419" y="-830.2805" font-family="Helvetica,sans-Serif" font-size="11.00" fill="#000000">&lt; 2</text>
<polygon fill="#ffffff" stroke="transparent" points="489,-824.1805 489,-843.1805 527,-843.1805 527,-824.1805 489,-824.1805"/>
<polygon fill="none" stroke="#000000" points="489,-824.1805 489,-843.1805 527,-843.1805 527,-824.1805 489,-824.1805"/>
<text text-anchor="start" x="517.8862" y="-830.2805" font-family="Helvetica,sans-Serif" font-size="11.00" fill="#000000"> &#160;</text>
<polygon fill="#ffffff" stroke="transparent" points="527,-824.1805 527,-843.1805 566,-843.1805 566,-824.1805 527,-824.1805"/>
<polygon fill="none" stroke="#000000" points="527,-824.1805 527,-843.1805 566,-843.1805 566,-824.1805 527,-824.1805"/>
<text text-anchor="start" x="556.8862" y="-830.2805" font-family="Helvetica,sans-Serif" font-size="11.00" fill="#000000"> &#160;</text>
</a>
</g>
</g>
<!-- aos_quotes_project_c&#45;&gt;project -->
<g id="edge3" class="edge">
<title>aos_quotes_project_c:w&#45;&gt;project:e</title>
<path fill="none" stroke="#000000" d="M401.6772,-848.9336C390.1366,-842.4216 387.6186,-826.9472 379,-810.1805 342.5027,-739.1782 418.3335,-635.1805 338.5,-635.1805"/>
<polygon fill="#000000" stroke="#000000" points="408.198,-850.4118 415.2041,-855.6914 412.099,-851.2961 416,-852.1805 416,-852.1805 416,-852.1805 412.099,-851.2961 416.7959,-848.6696 408.198,-850.4118 408.198,-850.4118"/>
<ellipse fill="none" stroke="#000000" cx="405.0771" cy="-849.7043" rx="3.2" ry="3.2"/>
</g>
<!-- calls -->
<g id="node7" class="node">
<title>calls</title>
<g id="a_node7"><a xlink:href="../../tables/calls.html" xlink:title="calls" target="_top">
<polygon fill="#ffffff" stroke="transparent" points="705.5,-554.6805 705.5,-615.6805 769.5,-615.6805 769.5,-554.6805 705.5,-554.6805"/>
<polygon fill="#f5f5f5" stroke="transparent" points="705.5,-592.1805 705.5,-615.1805 769.5,-615.1805 769.5,-592.1805 705.5,-592.1805"/>
<polygon fill="none" stroke="#000000" points="705.5,-592.1805 705.5,-615.1805 769.5,-615.1805 769.5,-592.1805 705.5,-592.1805"/>
<text text-anchor="start" x="710.0017" y="-601.2805" font-family="Helvetica,sans-Serif" font-weight="bold" font-size="11.00" fill="#000000">calls</text>
<text text-anchor="start" x="735.0219" y="-600.2805" font-family="Helvetica,sans-Serif" font-size="11.00" fill="#000000">[table]</text>
<polygon fill="none" stroke="#000000" points="705.5,-573.1805 705.5,-592.1805 769.5,-592.1805 769.5,-573.1805 705.5,-573.1805"/>
<text text-anchor="start" x="708.5" y="-579.2805" font-family="Helvetica,sans-Serif" font-size="11.00" fill="#000000">...</text>
<polygon fill="#ffffff" stroke="transparent" points="705.5,-554.1805 705.5,-573.1805 734.5,-573.1805 734.5,-554.1805 705.5,-554.1805"/>
<polygon fill="none" stroke="#000000" points="705.5,-554.1805 705.5,-573.1805 734.5,-573.1805 734.5,-554.1805 705.5,-554.1805"/>
<text text-anchor="start" x="708.5" y="-560.2805" font-family="Helvetica,sans-Serif" font-size="11.00" fill="#000000">&lt; 12</text>
<polygon fill="#ffffff" stroke="transparent" points="734.5,-554.1805 734.5,-573.1805 747.5,-573.1805 747.5,-554.1805 734.5,-554.1805"/>
<polygon fill="none" stroke="#000000" points="734.5,-554.1805 734.5,-573.1805 747.5,-573.1805 747.5,-554.1805 734.5,-554.1805"/>
<text text-anchor="start" x="738.3862" y="-560.2805" font-family="Helvetica,sans-Serif" font-size="11.00" fill="#000000"> &#160;</text>
<polygon fill="#ffffff" stroke="transparent" points="747.5,-554.1805 747.5,-573.1805 769.5,-573.1805 769.5,-554.1805 747.5,-554.1805"/>
<polygon fill="none" stroke="#000000" points="747.5,-554.1805 747.5,-573.1805 769.5,-573.1805 769.5,-554.1805 747.5,-554.1805"/>
<text text-anchor="start" x="750.9053" y="-560.2805" font-family="Helvetica,sans-Serif" font-size="11.00" fill="#000000">6 &gt;</text>
</a>
</g>
</g>
<!-- calls&#45;&gt;bugs -->
<g id="edge6" class="edge">
<title>calls:w&#45;&gt;bugs:e</title>
<path fill="none" stroke="#000000" d="M691.0541,-583.5839C652.17,-591.9005 653.1138,-635.9019 636,-681.1805 591.2198,-799.6571 687.6569,-1246.1805 561,-1246.1805"/>
<polygon fill="#000000" stroke="#000000" points="697.5375,-582.9541 705.8481,-585.7636 701.5187,-582.5673 705.5,-582.1805 705.5,-582.1805 705.5,-582.1805 701.5187,-582.5673 705.1519,-578.5974 697.5375,-582.9541 697.5375,-582.9541"/>
<ellipse fill="none" stroke="#000000" cx="694.3525" cy="-583.2635" rx="3.2" ry="3.2"/>
</g>
<!-- calls&#45;&gt;project -->
<g id="edge7" class="edge">
<title>calls:w&#45;&gt;project:e</title>
<path fill="none" stroke="#000000" d="M691.113,-582.9165C625.9491,-587.8689 411.6407,-616.3431 379,-623.1805 360.6253,-627.0295 357.2735,-635.1805 338.5,-635.1805"/>
<polygon fill="#000000" stroke="#000000" points="697.5104,-582.5893 705.684,-585.7758 701.5052,-582.3849 705.5,-582.1805 705.5,-582.1805 705.5,-582.1805 701.5052,-582.3849 705.316,-578.5852 697.5104,-582.5893 697.5104,-582.5893"/>
<ellipse fill="none" stroke="#000000" cx="694.3146" cy="-582.7528" rx="3.2" ry="3.2"/>
</g>
<!-- project_task -->
<g id="node8" class="node">
<title>project_task</title>
<g id="a_node8"><a xlink:href="../../tables/project_task.html" xlink:title="project_task" target="_top">
<polygon fill="#ffffff" stroke="transparent" points="440,-633.6805 440,-694.6805 542,-694.6805 542,-633.6805 440,-633.6805"/>
<polygon fill="#f5f5f5" stroke="transparent" points="440,-671.1805 440,-694.1805 542,-694.1805 542,-671.1805 440,-671.1805"/>
<polygon fill="none" stroke="#000000" points="440,-671.1805 440,-694.1805 542,-694.1805 542,-671.1805 440,-671.1805"/>
<text text-anchor="start" x="444.8545" y="-680.2805" font-family="Helvetica,sans-Serif" font-weight="bold" font-size="11.00" fill="#000000">project_task</text>
<text text-anchor="start" x="507.5219" y="-679.2805" font-family="Helvetica,sans-Serif" font-size="11.00" fill="#000000">[table]</text>
<polygon fill="none" stroke="#000000" points="440,-652.1805 440,-671.1805 542,-671.1805 542,-652.1805 440,-652.1805"/>
<text text-anchor="start" x="443" y="-658.2805" font-family="Helvetica,sans-Serif" font-size="11.00" fill="#000000">...</text>
<polygon fill="#ffffff" stroke="transparent" points="440,-633.1805 440,-652.1805 485,-652.1805 485,-633.1805 440,-633.1805"/>
<polygon fill="none" stroke="#000000" points="440,-633.1805 440,-652.1805 485,-652.1805 485,-633.1805 440,-633.1805"/>
<text text-anchor="start" x="443" y="-639.2805" font-family="Helvetica,sans-Serif" font-size="11.00" fill="#000000">&lt; 4</text>
<polygon fill="#ffffff" stroke="transparent" points="485,-633.1805 485,-652.1805 509,-652.1805 509,-633.1805 485,-633.1805"/>
<polygon fill="none" stroke="#000000" points="485,-633.1805 485,-652.1805 509,-652.1805 509,-633.1805 485,-633.1805"/>
<text text-anchor="start" x="499.8862" y="-639.2805" font-family="Helvetica,sans-Serif" font-size="11.00" fill="#000000"> &#160;</text>
<polygon fill="#ffffff" stroke="transparent" points="509,-633.1805 509,-652.1805 542,-652.1805 542,-633.1805 509,-633.1805"/>
<polygon fill="none" stroke="#000000" points="509,-633.1805 509,-652.1805 542,-652.1805 542,-633.1805 509,-633.1805"/>
<text text-anchor="start" x="523.4053" y="-639.2805" font-family="Helvetica,sans-Serif" font-size="11.00" fill="#000000">8 &gt;</text>
</a>
</g>
</g>
<!-- calls&#45;&gt;project_task -->
<g id="edge8" class="edge">
<title>calls:w&#45;&gt;project_task:e</title>
<path fill="none" stroke="#000000" d="M690.8326,-583.1227C624.1993,-592.0359 617.5029,-661.1805 542,-661.1805"/>
<polygon fill="#000000" stroke="#000000" points="697.5165,-582.6934 705.7308,-585.7731 701.5082,-582.4369 705.5,-582.1805 705.5,-582.1805 705.5,-582.1805 701.5082,-582.4369 705.2692,-578.5879 697.5165,-582.6934 697.5165,-582.6934"/>
<ellipse fill="none" stroke="#000000" cx="694.323" cy="-582.8986" rx="3.2" ry="3.2"/>
</g>
<!-- project_task&#45;&gt;project -->
<g id="edge34" class="edge">
<title>project_task:w&#45;&gt;project:e</title>
<path fill="none" stroke="#000000" d="M425.5339,-660.2551C391.047,-655.6235 379.7924,-635.1805 338.5,-635.1805"/>
<polygon fill="#000000" stroke="#000000" points="432.0163,-660.6697 439.7702,-664.7731 436.0082,-660.9251 440,-661.1805 440,-661.1805 440,-661.1805 436.0082,-660.9251 440.2298,-657.5878 432.0163,-660.6697 432.0163,-660.6697"/>
<ellipse fill="none" stroke="#000000" cx="428.8228" cy="-660.4654" rx="3.2" ry="3.2"/>
</g>
<!-- cases_bugs -->
<g id="node9" class="node">
<title>cases_bugs</title>
<g id="a_node9"><a xlink:href="../../tables/cases_bugs.html" xlink:title="cases_bugs" target="_top">
<polygon fill="#ffffff" stroke="transparent" points="687,-1170.6805 687,-1231.6805 788,-1231.6805 788,-1170.6805 687,-1170.6805"/>
<polygon fill="#f5f5f5" stroke="transparent" points="687.5,-1208.1805 687.5,-1231.1805 788.5,-1231.1805 788.5,-1208.1805 687.5,-1208.1805"/>
<polygon fill="none" stroke="#000000" points="687.5,-1208.1805 687.5,-1231.1805 788.5,-1231.1805 788.5,-1208.1805 687.5,-1208.1805"/>
<text text-anchor="start" x="692.1553" y="-1217.2805" font-family="Helvetica,sans-Serif" font-weight="bold" font-size="11.00" fill="#000000">cases_bugs</text>
<text text-anchor="start" x="754.0219" y="-1216.2805" font-family="Helvetica,sans-Serif" font-size="11.00" fill="#000000">[table]</text>
<polygon fill="none" stroke="#000000" points="687.5,-1189.1805 687.5,-1208.1805 788.5,-1208.1805 788.5,-1189.1805 687.5,-1189.1805"/>
<text text-anchor="start" x="690.5" y="-1195.2805" font-family="Helvetica,sans-Serif" font-size="11.00" fill="#000000">...</text>
<polygon fill="#ffffff" stroke="transparent" points="687.5,-1170.1805 687.5,-1189.1805 736.5,-1189.1805 736.5,-1170.1805 687.5,-1170.1805"/>
<polygon fill="none" stroke="#000000" points="687.5,-1170.1805 687.5,-1189.1805 736.5,-1189.1805 736.5,-1170.1805 687.5,-1170.1805"/>
<text text-anchor="start" x="690.5" y="-1176.2805" font-family="Helvetica,sans-Serif" font-size="11.00" fill="#000000">&lt; 2</text>
<polygon fill="#ffffff" stroke="transparent" points="736.5,-1170.1805 736.5,-1189.1805 762.5,-1189.1805 762.5,-1170.1805 736.5,-1170.1805"/>
<polygon fill="none" stroke="#000000" points="736.5,-1170.1805 736.5,-1189.1805 762.5,-1189.1805 762.5,-1170.1805 736.5,-1170.1805"/>
<text text-anchor="start" x="753.3862" y="-1176.2805" font-family="Helvetica,sans-Serif" font-size="11.00" fill="#000000"> &#160;</text>
<polygon fill="#ffffff" stroke="transparent" points="762.5,-1170.1805 762.5,-1189.1805 788.5,-1189.1805 788.5,-1170.1805 762.5,-1170.1805"/>
<polygon fill="none" stroke="#000000" points="762.5,-1170.1805 762.5,-1189.1805 788.5,-1189.1805 788.5,-1170.1805 762.5,-1170.1805"/>
<text text-anchor="start" x="779.3862" y="-1176.2805" font-family="Helvetica,sans-Serif" font-size="11.00" fill="#000000"> &#160;</text>
</a>
</g>
</g>
<!-- cases_bugs&#45;&gt;bugs -->
<g id="edge9" class="edge">
<title>cases_bugs:w&#45;&gt;bugs:e</title>
<path fill="none" stroke="#000000" d="M673.1226,-1199.183C625.8971,-1206.076 615.9659,-1246.1805 561,-1246.1805"/>
<polygon fill="#000000" stroke="#000000" points="679.5194,-1198.737 687.7504,-1201.7718 683.5097,-1198.4588 687.5,-1198.1805 687.5,-1198.1805 687.5,-1198.1805 683.5097,-1198.4588 687.2496,-1194.5892 679.5194,-1198.737 679.5194,-1198.737"/>
<ellipse fill="none" stroke="#000000" cx="676.3271" cy="-1198.9596" rx="3.2" ry="3.2"/>
</g>
<!-- contacts_bugs -->
<g id="node10" class="node">
<title>contacts_bugs</title>
<g id="a_node10"><a xlink:href="../../tables/contacts_bugs.html" xlink:title="contacts_bugs" target="_top">
<polygon fill="#ffffff" stroke="transparent" points="681,-1471.6805 681,-1532.6805 794,-1532.6805 794,-1471.6805 681,-1471.6805"/>
<polygon fill="#f5f5f5" stroke="transparent" points="681.5,-1509.1805 681.5,-1532.1805 794.5,-1532.1805 794.5,-1509.1805 681.5,-1509.1805"/>
<polygon fill="none" stroke="#000000" points="681.5,-1509.1805 681.5,-1532.1805 794.5,-1532.1805 794.5,-1509.1805 681.5,-1509.1805"/>
<text text-anchor="start" x="686.0409" y="-1518.2805" font-family="Helvetica,sans-Serif" font-weight="bold" font-size="11.00" fill="#000000">contacts_bugs</text>
<text text-anchor="start" x="760.0219" y="-1517.2805" font-family="Helvetica,sans-Serif" font-size="11.00" fill="#000000">[table]</text>
<polygon fill="none" stroke="#000000" points="681.5,-1490.1805 681.5,-1509.1805 794.5,-1509.1805 794.5,-1490.1805 681.5,-1490.1805"/>
<text text-anchor="start" x="684.5" y="-1496.2805" font-family="Helvetica,sans-Serif" font-size="11.00" fill="#000000">...</text>
<polygon fill="#ffffff" stroke="transparent" points="681.5,-1471.1805 681.5,-1490.1805 736.5,-1490.1805 736.5,-1471.1805 681.5,-1471.1805"/>
<polygon fill="none" stroke="#000000" points="681.5,-1471.1805 681.5,-1490.1805 736.5,-1490.1805 736.5,-1471.1805 681.5,-1471.1805"/>
<text text-anchor="start" x="684.5" y="-1477.2805" font-family="Helvetica,sans-Serif" font-size="11.00" fill="#000000">&lt; 2</text>
<polygon fill="#ffffff" stroke="transparent" points="736.5,-1471.1805 736.5,-1490.1805 765.5,-1490.1805 765.5,-1471.1805 736.5,-1471.1805"/>
<polygon fill="none" stroke="#000000" points="736.5,-1471.1805 736.5,-1490.1805 765.5,-1490.1805 765.5,-1471.1805 736.5,-1471.1805"/>
<text text-anchor="start" x="756.3862" y="-1477.2805" font-family="Helvetica,sans-Serif" font-size="11.00" fill="#000000"> &#160;</text>
<polygon fill="#ffffff" stroke="transparent" points="765.5,-1471.1805 765.5,-1490.1805 794.5,-1490.1805 794.5,-1471.1805 765.5,-1471.1805"/>
<polygon fill="none" stroke="#000000" points="765.5,-1471.1805 765.5,-1490.1805 794.5,-1490.1805 794.5,-1471.1805 765.5,-1471.1805"/>
<text text-anchor="start" x="785.3862" y="-1477.2805" font-family="Helvetica,sans-Serif" font-size="11.00" fill="#000000"> &#160;</text>
</a>
</g>
</g>
<!-- contacts_bugs&#45;&gt;bugs -->
<g id="edge10" class="edge">
<title>contacts_bugs:w&#45;&gt;bugs:e</title>
<path fill="none" stroke="#000000" d="M667.1116,-1497.8796C567.3065,-1478.3786 680.317,-1246.1805 561,-1246.1805"/>
<polygon fill="#000000" stroke="#000000" points="673.5325,-1498.4601 681.1758,-1502.7659 677.5162,-1498.8203 681.5,-1499.1805 681.5,-1499.1805 681.5,-1499.1805 677.5162,-1498.8203 681.8242,-1495.5951 673.5325,-1498.4601 673.5325,-1498.4601"/>
<ellipse fill="none" stroke="#000000" cx="670.3455" cy="-1498.1719" rx="3.2" ry="3.2"/>
</g>
<!-- documents_bugs -->
<g id="node11" class="node">
<title>documents_bugs</title>
<g id="a_node11"><a xlink:href="../../tables/documents_bugs.html" xlink:title="documents_bugs" target="_top">
<polygon fill="#ffffff" stroke="transparent" points="674.5,-1389.6805 674.5,-1450.6805 800.5,-1450.6805 800.5,-1389.6805 674.5,-1389.6805"/>
<polygon fill="#f5f5f5" stroke="transparent" points="674.5,-1427.1805 674.5,-1450.1805 800.5,-1450.1805 800.5,-1427.1805 674.5,-1427.1805"/>
<polygon fill="none" stroke="#000000" points="674.5,-1427.1805 674.5,-1450.1805 800.5,-1450.1805 800.5,-1427.1805 674.5,-1427.1805"/>
<text text-anchor="start" x="679.1236" y="-1436.2805" font-family="Helvetica,sans-Serif" font-weight="bold" font-size="11.00" fill="#000000">documents_bugs</text>
<text text-anchor="start" x="766.0219" y="-1435.2805" font-family="Helvetica,sans-Serif" font-size="11.00" fill="#000000">[table]</text>
<polygon fill="none" stroke="#000000" points="674.5,-1408.1805 674.5,-1427.1805 800.5,-1427.1805 800.5,-1408.1805 674.5,-1408.1805"/>
<text text-anchor="start" x="677.5" y="-1414.2805" font-family="Helvetica,sans-Serif" font-size="11.00" fill="#000000">...</text>
<polygon fill="#ffffff" stroke="transparent" points="674.5,-1389.1805 674.5,-1408.1805 735.5,-1408.1805 735.5,-1389.1805 674.5,-1389.1805"/>
<polygon fill="none" stroke="#000000" points="674.5,-1389.1805 674.5,-1408.1805 735.5,-1408.1805 735.5,-1389.1805 674.5,-1389.1805"/>
<text text-anchor="start" x="677.5" y="-1395.2805" font-family="Helvetica,sans-Serif" font-size="11.00" fill="#000000">&lt; 2</text>
<polygon fill="#ffffff" stroke="transparent" points="735.5,-1389.1805 735.5,-1408.1805 767.5,-1408.1805 767.5,-1389.1805 735.5,-1389.1805"/>
<polygon fill="none" stroke="#000000" points="735.5,-1389.1805 735.5,-1408.1805 767.5,-1408.1805 767.5,-1389.1805 735.5,-1389.1805"/>
<text text-anchor="start" x="758.3862" y="-1395.2805" font-family="Helvetica,sans-Serif" font-size="11.00" fill="#000000"> &#160;</text>
<polygon fill="#ffffff" stroke="transparent" points="767.5,-1389.1805 767.5,-1408.1805 800.5,-1408.1805 800.5,-1389.1805 767.5,-1389.1805"/>
<polygon fill="none" stroke="#000000" points="767.5,-1389.1805 767.5,-1408.1805 800.5,-1408.1805 800.5,-1389.1805 767.5,-1389.1805"/>
<text text-anchor="start" x="791.3862" y="-1395.2805" font-family="Helvetica,sans-Serif" font-size="11.00" fill="#000000"> &#160;</text>
</a>
</g>
</g>
<!-- documents_bugs&#45;&gt;bugs -->
<g id="edge11" class="edge">
<title>documents_bugs:w&#45;&gt;bugs:e</title>
<path fill="none" stroke="#000000" d="M660.0508,-1415.488C590.8109,-1397.7285 646.8728,-1246.1805 561,-1246.1805"/>
<polygon fill="#000000" stroke="#000000" points="666.5543,-1416.2498 674.0812,-1420.756 670.5272,-1416.7151 674.5,-1417.1805 674.5,-1417.1805 674.5,-1417.1805 670.5272,-1416.7151 674.9188,-1413.6049 666.5543,-1416.2498 666.5543,-1416.2498"/>
<ellipse fill="none" stroke="#000000" cx="663.376" cy="-1415.8775" rx="3.2" ry="3.2"/>
</g>
<!-- emails -->
<g id="node12" class="node">
<title>emails</title>
<g id="a_node12"><a xlink:href="../../tables/emails.html" xlink:title="emails" target="_top">
<polygon fill="#ffffff" stroke="transparent" points="700.5,-691.6805 700.5,-752.6805 774.5,-752.6805 774.5,-691.6805 700.5,-691.6805"/>
<polygon fill="#f5f5f5" stroke="transparent" points="700.5,-729.1805 700.5,-752.1805 774.5,-752.1805 774.5,-729.1805 700.5,-729.1805"/>
<polygon fill="none" stroke="#000000" points="700.5,-729.1805 700.5,-752.1805 774.5,-752.1805 774.5,-729.1805 700.5,-729.1805"/>
<text text-anchor="start" x="705.1133" y="-738.2805" font-family="Helvetica,sans-Serif" font-weight="bold" font-size="11.00" fill="#000000">emails</text>
<text text-anchor="start" x="740.0219" y="-737.2805" font-family="Helvetica,sans-Serif" font-size="11.00" fill="#000000">[table]</text>
<polygon fill="none" stroke="#000000" points="700.5,-710.1805 700.5,-729.1805 774.5,-729.1805 774.5,-710.1805 700.5,-710.1805"/>
<text text-anchor="start" x="703.5" y="-716.2805" font-family="Helvetica,sans-Serif" font-size="11.00" fill="#000000">...</text>
<polygon fill="#ffffff" stroke="transparent" points="700.5,-691.1805 700.5,-710.1805 734.5,-710.1805 734.5,-691.1805 700.5,-691.1805"/>
<polygon fill="none" stroke="#000000" points="700.5,-691.1805 700.5,-710.1805 734.5,-710.1805 734.5,-691.1805 700.5,-691.1805"/>
<text text-anchor="start" x="703.5" y="-697.2805" font-family="Helvetica,sans-Serif" font-size="11.00" fill="#000000">&lt; 12</text>
<polygon fill="#ffffff" stroke="transparent" points="734.5,-691.1805 734.5,-710.1805 749.5,-710.1805 749.5,-691.1805 734.5,-691.1805"/>
<polygon fill="none" stroke="#000000" points="734.5,-691.1805 734.5,-710.1805 749.5,-710.1805 749.5,-691.1805 734.5,-691.1805"/>
<text text-anchor="start" x="740.3862" y="-697.2805" font-family="Helvetica,sans-Serif" font-size="11.00" fill="#000000"> &#160;</text>
<polygon fill="#ffffff" stroke="transparent" points="749.5,-691.1805 749.5,-710.1805 774.5,-710.1805 774.5,-691.1805 749.5,-691.1805"/>
<polygon fill="none" stroke="#000000" points="749.5,-691.1805 749.5,-710.1805 774.5,-710.1805 774.5,-691.1805 749.5,-691.1805"/>
<text text-anchor="start" x="755.9053" y="-697.2805" font-family="Helvetica,sans-Serif" font-size="11.00" fill="#000000">3 &gt;</text>
</a>
</g>
</g>
<!-- emails&#45;&gt;bugs -->
<g id="edge12" class="edge">
<title>emails:w&#45;&gt;bugs:e</title>
<path fill="none" stroke="#000000" d="M686.1552,-720.6852C656.5515,-727.5806 652.2476,-757.2808 636,-791.1805 591.7095,-883.5904 663.4755,-1246.1805 561,-1246.1805"/>
<polygon fill="#000000" stroke="#000000" points="692.5437,-720.0151 700.8756,-722.7608 696.5218,-719.5978 700.5,-719.1805 700.5,-719.1805 700.5,-719.1805 696.5218,-719.5978 700.1244,-715.6001 692.5437,-720.0151 692.5437,-720.0151"/>
<ellipse fill="none" stroke="#000000" cx="689.3611" cy="-720.349" rx="3.2" ry="3.2"/>
</g>
<!-- emails&#45;&gt;project -->
<g id="edge13" class="edge">
<title>emails:w&#45;&gt;project:e</title>
<path fill="none" stroke="#000000" d="M685.7764,-719.4305C605.8826,-721.829 436.3335,-739.9309 379,-705.1805 348.2623,-686.55 374.443,-635.1805 338.5,-635.1805"/>
<polygon fill="#000000" stroke="#000000" points="692.5012,-719.3164 700.5611,-722.78 696.5006,-719.2484 700.5,-719.1805 700.5,-719.1805 700.5,-719.1805 696.5006,-719.2484 700.4389,-715.581 692.5012,-719.3164 692.5012,-719.3164"/>
<ellipse fill="none" stroke="#000000" cx="689.3016" cy="-719.3707" rx="3.2" ry="3.2"/>
</g>
<!-- emails&#45;&gt;project_task -->
<g id="edge14" class="edge">
<title>emails:w&#45;&gt;project_task:e</title>
<path fill="none" stroke="#000000" d="M686.0068,-718.4044C624.0177,-711.5218 611.8849,-661.1805 542,-661.1805"/>
<polygon fill="#000000" stroke="#000000" points="692.5114,-718.7527 700.3075,-722.7753 696.5057,-718.9666 700.5,-719.1805 700.5,-719.1805 700.5,-719.1805 696.5057,-718.9666 700.6925,-715.5856 692.5114,-718.7527 692.5114,-718.7527"/>
<ellipse fill="none" stroke="#000000" cx="689.316" cy="-718.5816" rx="3.2" ry="3.2"/>
</g>
<!-- emails_beans -->
<g id="node13" class="node">
<title>emails_beans</title>
<g id="a_node13"><a xlink:href="../../tables/emails_beans.html" xlink:title="emails_beans" target="_top">
<polygon fill="#ffffff" stroke="transparent" points="880,-773.6805 880,-834.6805 990,-834.6805 990,-773.6805 880,-773.6805"/>
<polygon fill="#f5f5f5" stroke="transparent" points="880,-811.1805 880,-834.1805 990,-834.1805 990,-811.1805 880,-811.1805"/>
<polygon fill="none" stroke="#000000" points="880,-811.1805 880,-834.1805 990,-834.1805 990,-811.1805 880,-811.1805"/>
<text text-anchor="start" x="884.576" y="-820.2805" font-family="Helvetica,sans-Serif" font-weight="bold" font-size="11.00" fill="#000000">emails_beans</text>
<text text-anchor="start" x="955.5219" y="-819.2805" font-family="Helvetica,sans-Serif" font-size="11.00" fill="#000000">[table]</text>
<polygon fill="none" stroke="#000000" points="880,-792.1805 880,-811.1805 990,-811.1805 990,-792.1805 880,-792.1805"/>
<text text-anchor="start" x="883" y="-798.2805" font-family="Helvetica,sans-Serif" font-size="11.00" fill="#000000">...</text>
<polygon fill="#ffffff" stroke="transparent" points="880,-773.1805 880,-792.1805 936,-792.1805 936,-773.1805 880,-773.1805"/>
<polygon fill="none" stroke="#000000" points="880,-773.1805 880,-792.1805 936,-792.1805 936,-773.1805 880,-773.1805"/>
<text text-anchor="start" x="883" y="-779.2805" font-family="Helvetica,sans-Serif" font-size="11.00" fill="#000000">&lt; 14</text>
<polygon fill="#ffffff" stroke="transparent" points="936,-773.1805 936,-792.1805 963,-792.1805 963,-773.1805 936,-773.1805"/>
<polygon fill="none" stroke="#000000" points="936,-773.1805 936,-792.1805 963,-792.1805 963,-773.1805 936,-773.1805"/>
<text text-anchor="start" x="953.8862" y="-779.2805" font-family="Helvetica,sans-Serif" font-size="11.00" fill="#000000"> &#160;</text>
<polygon fill="#ffffff" stroke="transparent" points="963,-773.1805 963,-792.1805 990,-792.1805 990,-773.1805 963,-773.1805"/>
<polygon fill="none" stroke="#000000" points="963,-773.1805 963,-792.1805 990,-792.1805 990,-773.1805 963,-773.1805"/>
<text text-anchor="start" x="980.8862" y="-779.2805" font-family="Helvetica,sans-Serif" font-size="11.00" fill="#000000"> &#160;</text>
</a>
</g>
</g>
<!-- emails_beans&#45;&gt;bugs -->
<g id="edge15" class="edge">
<title>emails_beans:w&#45;&gt;bugs:e</title>
<path fill="none" stroke="#000000" d="M868.1605,-810.0043C830.6741,-875.7581 878.37,-1287.776 839,-1324.1805 805.8786,-1354.807 677.506,-1341.8515 636,-1324.1805 591.7509,-1305.3416 609.0925,-1246.1805 561,-1246.1805"/>
<polygon fill="#000000" stroke="#000000" points="873.5855,-805.9611 882.1513,-804.067 876.7927,-803.5708 880,-801.1805 880,-801.1805 880,-801.1805 876.7927,-803.5708 877.8487,-798.294 873.5855,-805.9611 873.5855,-805.9611"/>
<ellipse fill="none" stroke="#000000" cx="871.0197" cy="-807.8734" rx="3.2" ry="3.2"/>
</g>
<!-- emails_beans&#45;&gt;project -->
<g id="edge17" class="edge">
<title>emails_beans:w&#45;&gt;project:e</title>
<path fill="none" stroke="#000000" d="M865.6033,-799.4937C857.2989,-797.3278 851.5235,-793.565 839,-791.1805 749.5309,-774.1455 725.9354,-777.5521 636,-763.1805 621.2796,-760.8282 617.7198,-759.5361 603,-757.1805 553.3792,-749.2396 419.1628,-756.3836 379,-726.1805 343.619,-699.5734 382.7691,-635.1805 338.5,-635.1805"/>
<polygon fill="#000000" stroke="#000000" points="872.0544,-800.2495 879.5811,-804.756 876.0272,-800.715 880,-801.1805 880,-801.1805 880,-801.1805 876.0272,-800.715 880.4189,-797.6049 872.0544,-800.2495 872.0544,-800.2495"/>
<ellipse fill="none" stroke="#000000" cx="868.8761" cy="-799.8771" rx="3.2" ry="3.2"/>
</g>
<!-- emails_beans&#45;&gt;project_task -->
<g id="edge18" class="edge">
<title>emails_beans:w&#45;&gt;project_task:e</title>
<path fill="none" stroke="#000000" d="M865.7933,-798.4816C835.1465,-783.676 879.0008,-711.868 839,-681.1805 812.7581,-661.0484 575.0747,-661.1805 542,-661.1805"/>
<polygon fill="#000000" stroke="#000000" points="872.1406,-799.6874 879.3281,-804.7172 876.0703,-800.4339 880,-801.1805 880,-801.1805 880,-801.1805 876.0703,-800.4339 880.6719,-797.6437 872.1406,-799.6874 872.1406,-799.6874"/>
<ellipse fill="none" stroke="#000000" cx="868.9968" cy="-799.0901" rx="3.2" ry="3.2"/>
</g>
<!-- emails_beans&#45;&gt;emails -->
<g id="edge20" class="edge">
<title>emails_beans:w&#45;&gt;emails:e</title>
<path fill="none" stroke="#000000" d="M865.8987,-797.7308C855.6677,-791.5067 852.8144,-778.0365 839,-767.1805 810.9039,-745.1012 810.2336,-719.1805 774.5,-719.1805"/>
<polygon fill="#000000" stroke="#000000" points="872.2292,-799.2794 879.1445,-804.6774 876.1146,-800.2299 880,-801.1805 880,-801.1805 880,-801.1805 876.1146,-800.2299 880.8555,-797.6836 872.2292,-799.2794 872.2292,-799.2794"/>
<ellipse fill="none" stroke="#000000" cx="869.1208" cy="-798.519" rx="3.2" ry="3.2"/>
</g>
<!-- meetings -->
<g id="node14" class="node">
<title>meetings</title>
<g id="a_node14"><a xlink:href="../../tables/meetings.html" xlink:title="meetings" target="_top">
<polygon fill="#ffffff" stroke="transparent" points="694,-883.6805 694,-944.6805 781,-944.6805 781,-883.6805 694,-883.6805"/>
<polygon fill="#f5f5f5" stroke="transparent" points="694.5,-921.1805 694.5,-944.1805 781.5,-944.1805 781.5,-921.1805 694.5,-921.1805"/>
<polygon fill="none" stroke="#000000" points="694.5,-921.1805 694.5,-944.1805 781.5,-944.1805 781.5,-921.1805 694.5,-921.1805"/>
<text text-anchor="start" x="699.1904" y="-930.2805" font-family="Helvetica,sans-Serif" font-weight="bold" font-size="11.00" fill="#000000">meetings</text>
<text text-anchor="start" x="747.0219" y="-929.2805" font-family="Helvetica,sans-Serif" font-size="11.00" fill="#000000">[table]</text>
<polygon fill="none" stroke="#000000" points="694.5,-902.1805 694.5,-921.1805 781.5,-921.1805 781.5,-902.1805 694.5,-902.1805"/>
<text text-anchor="start" x="697.5" y="-908.2805" font-family="Helvetica,sans-Serif" font-size="11.00" fill="#000000">...</text>
<polygon fill="#ffffff" stroke="transparent" points="694.5,-883.1805 694.5,-902.1805 734.5,-902.1805 734.5,-883.1805 694.5,-883.1805"/>
<polygon fill="none" stroke="#000000" points="694.5,-883.1805 694.5,-902.1805 734.5,-902.1805 734.5,-883.1805 694.5,-883.1805"/>
<text text-anchor="start" x="697.5" y="-889.2805" font-family="Helvetica,sans-Serif" font-size="11.00" fill="#000000">&lt; 13</text>
<polygon fill="#ffffff" stroke="transparent" points="734.5,-883.1805 734.5,-902.1805 753.5,-902.1805 753.5,-883.1805 734.5,-883.1805"/>
<polygon fill="none" stroke="#000000" points="734.5,-883.1805 734.5,-902.1805 753.5,-902.1805 753.5,-883.1805 734.5,-883.1805"/>
<text text-anchor="start" x="744.3862" y="-889.2805" font-family="Helvetica,sans-Serif" font-size="11.00" fill="#000000"> &#160;</text>
<polygon fill="#ffffff" stroke="transparent" points="753.5,-883.1805 753.5,-902.1805 781.5,-902.1805 781.5,-883.1805 753.5,-883.1805"/>
<polygon fill="none" stroke="#000000" points="753.5,-883.1805 753.5,-902.1805 781.5,-902.1805 781.5,-883.1805 753.5,-883.1805"/>
<text text-anchor="start" x="762.9053" y="-889.2805" font-family="Helvetica,sans-Serif" font-size="11.00" fill="#000000">7 &gt;</text>
</a>
</g>
</g>
<!-- emails_beans&#45;&gt;meetings -->
<g id="edge16" class="edge">
<title>emails_beans:w&#45;&gt;meetings:e</title>
<path fill="none" stroke="#000000" d="M865.6078,-804.8569C849.026,-816.1494 859.8366,-850.9139 839,-873.1805 818.07,-895.5469 812.132,-911.1805 781.5,-911.1805"/>
<polygon fill="#000000" stroke="#000000" points="872.2489,-803.1605 880.891,-804.6685 876.1244,-802.1705 880,-801.1805 880,-801.1805 880,-801.1805 876.1244,-802.1705 879.109,-797.6925 872.2489,-803.1605 872.2489,-803.1605"/>
<ellipse fill="none" stroke="#000000" cx="869.1484" cy="-803.9525" rx="3.2" ry="3.2"/>
</g>
<!-- tasks -->
<g id="node15" class="node">
<title>tasks</title>
<g id="a_node15"><a xlink:href="../../tables/tasks.html" xlink:title="tasks" target="_top">
<polygon fill="#ffffff" stroke="transparent" points="703.5,-801.6805 703.5,-862.6805 771.5,-862.6805 771.5,-801.6805 703.5,-801.6805"/>
<polygon fill="#f5f5f5" stroke="transparent" points="703.5,-839.1805 703.5,-862.1805 771.5,-862.1805 771.5,-839.1805 703.5,-839.1805"/>
<polygon fill="none" stroke="#000000" points="703.5,-839.1805 703.5,-862.1805 771.5,-862.1805 771.5,-839.1805 703.5,-839.1805"/>
<text text-anchor="start" x="708.1641" y="-848.2805" font-family="Helvetica,sans-Serif" font-weight="bold" font-size="11.00" fill="#000000">tasks</text>
<text text-anchor="start" x="737.0219" y="-847.2805" font-family="Helvetica,sans-Serif" font-size="11.00" fill="#000000">[table]</text>
<polygon fill="none" stroke="#000000" points="703.5,-820.1805 703.5,-839.1805 771.5,-839.1805 771.5,-820.1805 703.5,-820.1805"/>
<text text-anchor="start" x="706.5" y="-826.2805" font-family="Helvetica,sans-Serif" font-size="11.00" fill="#000000">...</text>
<polygon fill="#ffffff" stroke="transparent" points="703.5,-801.1805 703.5,-820.1805 734.5,-820.1805 734.5,-801.1805 703.5,-801.1805"/>
<polygon fill="none" stroke="#000000" points="703.5,-801.1805 703.5,-820.1805 734.5,-820.1805 734.5,-801.1805 703.5,-801.1805"/>
<text text-anchor="start" x="706.5" y="-807.2805" font-family="Helvetica,sans-Serif" font-size="11.00" fill="#000000">&lt; 14</text>
<polygon fill="#ffffff" stroke="transparent" points="734.5,-801.1805 734.5,-820.1805 748.5,-820.1805 748.5,-801.1805 734.5,-801.1805"/>
<polygon fill="none" stroke="#000000" points="734.5,-801.1805 734.5,-820.1805 748.5,-820.1805 748.5,-801.1805 734.5,-801.1805"/>
<text text-anchor="start" x="739.3862" y="-807.2805" font-family="Helvetica,sans-Serif" font-size="11.00" fill="#000000"> &#160;</text>
<polygon fill="#ffffff" stroke="transparent" points="748.5,-801.1805 748.5,-820.1805 771.5,-820.1805 771.5,-801.1805 748.5,-801.1805"/>
<polygon fill="none" stroke="#000000" points="748.5,-801.1805 748.5,-820.1805 771.5,-820.1805 771.5,-801.1805 748.5,-801.1805"/>
<text text-anchor="start" x="752.9053" y="-807.2805" font-family="Helvetica,sans-Serif" font-size="11.00" fill="#000000">3 &gt;</text>
</a>
</g>
</g>
<!-- emails_beans&#45;&gt;tasks -->
<g id="edge19" class="edge">
<title>emails_beans:w&#45;&gt;tasks:e</title>
<path fill="none" stroke="#000000" d="M865.5114,-802.0492C827.8664,-806.7753 816.0495,-829.1805 771.5,-829.1805"/>
<polygon fill="#000000" stroke="#000000" points="872.0143,-801.6593 880.2155,-804.774 876.0072,-801.4199 880,-801.1805 880,-801.1805 880,-801.1805 876.0072,-801.4199 879.7845,-797.5869 872.0143,-801.6593 872.0143,-801.6593"/>
<ellipse fill="none" stroke="#000000" cx="868.8201" cy="-801.8509" rx="3.2" ry="3.2"/>
</g>
<!-- meetings&#45;&gt;bugs -->
<g id="edge22" class="edge">
<title>meetings:w&#45;&gt;bugs:e</title>
<path fill="none" stroke="#000000" d="M680.0635,-912.2018C545.9195,-932.4244 716.1107,-1246.1805 561,-1246.1805"/>
<polygon fill="#000000" stroke="#000000" points="686.5199,-911.7451 694.7541,-914.7715 690.51,-911.4628 694.5,-911.1805 694.5,-911.1805 694.5,-911.1805 690.51,-911.4628 694.2459,-907.5895 686.5199,-911.7451 686.5199,-911.7451"/>
<ellipse fill="none" stroke="#000000" cx="683.3279" cy="-911.9709" rx="3.2" ry="3.2"/>
</g>
<!-- meetings&#45;&gt;project -->
<g id="edge23" class="edge">
<title>meetings:w&#45;&gt;project:e</title>
<path fill="none" stroke="#000000" d="M679.8683,-912.909C644.9319,-921.9834 645.6675,-964.2292 603,-978.1805 555.6872,-993.6507 416.2047,-1011.2507 379,-978.1805 321.6345,-927.19 415.2517,-635.1805 338.5,-635.1805"/>
<polygon fill="#000000" stroke="#000000" points="686.5552,-912.1191 694.9224,-914.7556 690.5276,-911.6498 694.5,-911.1805 694.5,-911.1805 694.5,-911.1805 690.5276,-911.6498 694.0776,-907.6053 686.5552,-912.1191 686.5552,-912.1191"/>
<ellipse fill="none" stroke="#000000" cx="683.3773" cy="-912.4945" rx="3.2" ry="3.2"/>
</g>
<!-- meetings&#45;&gt;project_task -->
<g id="edge24" class="edge">
<title>meetings:w&#45;&gt;project_task:e</title>
<path fill="none" stroke="#000000" d="M679.9804,-910.0102C572.5994,-891.5617 666.9407,-661.1805 542,-661.1805"/>
<polygon fill="#000000" stroke="#000000" points="686.5259,-910.5377 694.2108,-914.7688 690.5129,-910.8591 694.5,-911.1805 694.5,-911.1805 694.5,-911.1805 690.5129,-910.8591 694.7892,-907.5921 686.5259,-910.5377 686.5259,-910.5377"/>
<ellipse fill="none" stroke="#000000" cx="683.3362" cy="-910.2806" rx="3.2" ry="3.2"/>
</g>
<!-- meetings&#45;&gt;jjwg_maps -->
<g id="edge21" class="edge">
<title>meetings:w&#45;&gt;jjwg_maps:e</title>
<path fill="none" stroke="#000000" d="M683.8983,-912.0747C660.9791,-916.3186 656.3167,-935.06 636,-955.1805 618.8831,-972.1321 624.3785,-987.0762 603,-998.1805 504.1128,-1049.544 213.4311,-1019.1805 102,-1019.1805"/>
<polygon fill="#000000" stroke="#000000" points="693.3666,-907.2619 694.0391,-915.2336 692.4447,-915.3681 691.7723,-907.3964 693.3666,-907.2619"/>
<polyline fill="none" stroke="#000000" points="694.5,-911.1805 690.5142,-911.5167 "/>
<ellipse fill="none" stroke="#000000" cx="687.3255" cy="-911.7857" rx="3.2" ry="3.2"/>
</g>
<!-- tasks&#45;&gt;bugs -->
<g id="edge51" class="edge">
<title>tasks:w&#45;&gt;bugs:e</title>
<path fill="none" stroke="#000000" d="M689.0467,-830.1326C664.0599,-833.78 653.1124,-847.9391 636,-873.1805 541.1121,-1013.1436 730.0958,-1246.1805 561,-1246.1805"/>
<polygon fill="#000000" stroke="#000000" points="695.5173,-829.7064 703.7367,-832.7727 699.5087,-829.4435 703.5,-829.1805 703.5,-829.1805 703.5,-829.1805 699.5087,-829.4435 703.2633,-825.5883 695.5173,-829.7064 695.5173,-829.7064"/>
<ellipse fill="none" stroke="#000000" cx="692.3242" cy="-829.9168" rx="3.2" ry="3.2"/>
</g>
<!-- tasks&#45;&gt;project -->
<g id="edge52" class="edge">
<title>tasks:w&#45;&gt;project:e</title>
<path fill="none" stroke="#000000" d="M688.7011,-828.2136C653.6493,-823.3233 644.0521,-801.119 603,-790.1805 505.699,-764.2543 456.0669,-820.9905 379,-756.1805 335.5972,-719.6805 395.2102,-635.1805 338.5,-635.1805"/>
<polygon fill="#000000" stroke="#000000" points="695.517,-828.6588 703.2653,-832.7728 699.5085,-828.9197 703.5,-829.1805 703.5,-829.1805 703.5,-829.1805 699.5085,-828.9197 703.7347,-825.5881 695.517,-828.6588 695.517,-828.6588"/>
<ellipse fill="none" stroke="#000000" cx="692.3238" cy="-828.4502" rx="3.2" ry="3.2"/>
</g>
<!-- tasks&#45;&gt;project_task -->
<g id="edge53" class="edge">
<title>tasks:w&#45;&gt;project_task:e</title>
<path fill="none" stroke="#000000" d="M689.0984,-827.9718C604.1044,-812.8628 640.4136,-661.1805 542,-661.1805"/>
<polygon fill="#000000" stroke="#000000" points="695.528,-828.5114 703.1989,-832.7679 699.514,-828.8459 703.5,-829.1805 703.5,-829.1805 703.5,-829.1805 699.514,-828.8459 703.8011,-825.5931 695.528,-828.5114 695.528,-828.5114"/>
<ellipse fill="none" stroke="#000000" cx="692.3392" cy="-828.2437" rx="3.2" ry="3.2"/>
</g>
<!-- notes -->
<g id="node17" class="node">
<title>notes</title>
<g id="a_node17"><a xlink:href="../../tables/notes.html" xlink:title="notes" target="_top">
<polygon fill="#ffffff" stroke="transparent" points="900.5,-691.6805 900.5,-752.6805 969.5,-752.6805 969.5,-691.6805 900.5,-691.6805"/>
<polygon fill="#f5f5f5" stroke="transparent" points="901,-729.1805 901,-752.1805 970,-752.1805 970,-729.1805 901,-729.1805"/>
<polygon fill="none" stroke="#000000" points="901,-729.1805 901,-752.1805 970,-752.1805 970,-729.1805 901,-729.1805"/>
<text text-anchor="start" x="905.5492" y="-738.2805" font-family="Helvetica,sans-Serif" font-weight="bold" font-size="11.00" fill="#000000">notes</text>
<text text-anchor="start" x="935.5219" y="-737.2805" font-family="Helvetica,sans-Serif" font-size="11.00" fill="#000000">[table]</text>
<polygon fill="none" stroke="#000000" points="901,-710.1805 901,-729.1805 970,-729.1805 970,-710.1805 901,-710.1805"/>
<text text-anchor="start" x="904" y="-716.2805" font-family="Helvetica,sans-Serif" font-size="11.00" fill="#000000">...</text>
<polygon fill="#ffffff" stroke="transparent" points="901,-691.1805 901,-710.1805 932,-710.1805 932,-691.1805 901,-691.1805"/>
<polygon fill="none" stroke="#000000" points="901,-691.1805 901,-710.1805 932,-710.1805 932,-691.1805 901,-691.1805"/>
<text text-anchor="start" x="904" y="-697.2805" font-family="Helvetica,sans-Serif" font-size="11.00" fill="#000000">&lt; 19</text>
<polygon fill="#ffffff" stroke="transparent" points="932,-691.1805 932,-710.1805 946,-710.1805 946,-691.1805 932,-691.1805"/>
<polygon fill="none" stroke="#000000" points="932,-691.1805 932,-710.1805 946,-710.1805 946,-691.1805 932,-691.1805"/>
<text text-anchor="start" x="936.8862" y="-697.2805" font-family="Helvetica,sans-Serif" font-size="11.00" fill="#000000"> &#160;</text>
<polygon fill="#ffffff" stroke="transparent" points="946,-691.1805 946,-710.1805 970,-710.1805 970,-691.1805 946,-691.1805"/>
<polygon fill="none" stroke="#000000" points="946,-691.1805 946,-710.1805 970,-710.1805 970,-691.1805 946,-691.1805"/>
<text text-anchor="start" x="951.4053" y="-697.2805" font-family="Helvetica,sans-Serif" font-size="11.00" fill="#000000">1 &gt;</text>
</a>
</g>
</g>
<!-- notes&#45;&gt;bugs -->
<g id="edge25" class="edge">
<title>notes:w&#45;&gt;bugs:e</title>
<path fill="none" stroke="#000000" d="M887.0834,-723.4076C878.0212,-730.8245 877.6705,-746.9423 872,-763.1805 844.8582,-840.905 895.8042,-1072.5897 839,-1132.1805 776.1591,-1198.1042 716.1297,-1116.889 636,-1160.1805 591.3803,-1184.2871 611.7154,-1246.1805 561,-1246.1805"/>
<polygon fill="#000000" stroke="#000000" points="893.3453,-721.5056 902.0463,-722.6251 897.1727,-720.343 901,-719.1805 901,-719.1805 901,-719.1805 897.1727,-720.343 899.9537,-715.7359 893.3453,-721.5056 893.3453,-721.5056"/>
<ellipse fill="none" stroke="#000000" cx="890.2835" cy="-722.4356" rx="3.2" ry="3.2"/>
</g>
<!-- notes&#45;&gt;project -->
<g id="edge29" class="edge">
<title>notes:w&#45;&gt;project:e</title>
<path fill="none" stroke="#000000" d="M886.3631,-717.4609C829.7776,-702.1377 901.7819,-588.5434 839,-544.1805 765.3169,-492.1146 721.7998,-516.2798 636,-544.1805 618.7536,-549.7887 619.9082,-561.623 603,-568.1805 509.6043,-604.4022 468.8779,-548.9455 379,-593.1805 355.7337,-604.6314 364.4315,-635.1805 338.5,-635.1805"/>
<polygon fill="#000000" stroke="#000000" points="893.0546,-718.247 900.5799,-722.7559 897.0273,-718.7137 901,-719.1805 901,-719.1805 901,-719.1805 897.0273,-718.7137 901.4201,-715.6051 893.0546,-718.247 893.0546,-718.247"/>
<ellipse fill="none" stroke="#000000" cx="889.8765" cy="-717.8736" rx="3.2" ry="3.2"/>
</g>
<!-- notes&#45;&gt;calls -->
<g id="edge26" class="edge">
<title>notes:w&#45;&gt;calls:e</title>
<path fill="none" stroke="#000000" d="M886.6791,-717.0375C856.8167,-706.5821 869.1538,-660.2128 839,-630.1805 812.4018,-603.6895 807.0398,-582.1805 769.5,-582.1805"/>
<polygon fill="#000000" stroke="#000000" points="893.0881,-717.9965 900.4672,-722.7408 897.044,-718.5885 901,-719.1805 901,-719.1805 901,-719.1805 897.044,-718.5885 901.5328,-715.6201 893.0881,-717.9965 893.0881,-717.9965"/>
<ellipse fill="none" stroke="#000000" cx="889.9233" cy="-717.5229" rx="3.2" ry="3.2"/>
</g>
<!-- notes&#45;&gt;project_task -->
<g id="edge30" class="edge">
<title>notes:w&#45;&gt;project_task:e</title>
<path fill="none" stroke="#000000" d="M886.7498,-716.3272C864.8027,-705.9104 869.6589,-669.8798 839,-657.1805 717.0368,-606.6617 674.012,-661.1805 542,-661.1805"/>
<polygon fill="#000000" stroke="#000000" points="893.1557,-717.6098 900.2932,-722.7104 897.0778,-718.3951 901,-719.1805 901,-719.1805 901,-719.1805 897.0778,-718.3951 901.7068,-715.6505 893.1557,-717.6098 893.1557,-717.6098"/>
<ellipse fill="none" stroke="#000000" cx="890.018" cy="-716.9815" rx="3.2" ry="3.2"/>
</g>
<!-- notes&#45;&gt;emails -->
<g id="edge27" class="edge">
<title>notes:w&#45;&gt;emails:e</title>
<path fill="none" stroke="#000000" d="M886.5177,-719.1805C841.8419,-719.1805 825.5612,-719.1805 774.5,-719.1805"/>
<polygon fill="#000000" stroke="#000000" points="893,-719.1805 901,-722.7805 897,-719.1805 901,-719.1805 901,-719.1805 901,-719.1805 897,-719.1805 901,-715.5805 893,-719.1805 893,-719.1805"/>
<ellipse fill="none" stroke="#000000" cx="889.8" cy="-719.1806" rx="3.2" ry="3.2"/>
</g>
<!-- notes&#45;&gt;meetings -->
<g id="edge28" class="edge">
<title>notes:w&#45;&gt;meetings:e</title>
<path fill="none" stroke="#000000" d="M887.1545,-723.7927C878.8845,-731.522 879.2034,-747.7635 872,-763.1805 850.3935,-809.4233 869.4464,-832.214 839,-873.1805 820.7279,-897.7661 812.132,-911.1805 781.5,-911.1805"/>
<polygon fill="#000000" stroke="#000000" points="893.41,-721.7089 902.1378,-722.596 897.205,-720.4447 901,-719.1805 901,-719.1805 901,-719.1805 897.205,-720.4447 899.8622,-715.765 893.41,-721.7089 893.41,-721.7089"/>
<ellipse fill="none" stroke="#000000" cx="890.3741" cy="-722.7202" rx="3.2" ry="3.2"/>
</g>
<!-- notes&#45;&gt;tasks -->
<g id="edge31" class="edge">
<title>notes:w&#45;&gt;tasks:e</title>
<path fill="none" stroke="#000000" d="M886.4426,-720.7355C828.0317,-734.1054 841.7069,-829.1805 771.5,-829.1805"/>
<polygon fill="#000000" stroke="#000000" points="893.0453,-720.0302 901.3824,-722.7601 897.0226,-719.6054 901,-719.1805 901,-719.1805 901,-719.1805 897.0226,-719.6054 900.6176,-715.6008 893.0453,-720.0302 893.0453,-720.0302"/>
<ellipse fill="none" stroke="#000000" cx="889.8634" cy="-720.3701" rx="3.2" ry="3.2"/>
</g>
<!-- project_contacts_1_c -->
<g id="node18" class="node">
<title>project_contacts_1_c</title>
<g id="a_node18"><a xlink:href="../../tables/project_contacts_1_c.html" xlink:title="project_contacts_1_c" target="_top">
<polygon fill="#ffffff" stroke="transparent" points="418,-496.6805 418,-557.6805 564,-557.6805 564,-496.6805 418,-496.6805"/>
<polygon fill="#f5f5f5" stroke="transparent" points="418,-534.1805 418,-557.1805 564,-557.1805 564,-534.1805 418,-534.1805"/>
<polygon fill="none" stroke="#000000" points="418,-534.1805 418,-557.1805 564,-557.1805 564,-534.1805 418,-534.1805"/>
<text text-anchor="start" x="422.5388" y="-543.2805" font-family="Helvetica,sans-Serif" font-weight="bold" font-size="11.00" fill="#000000">project_contacts_1_c</text>
<text text-anchor="start" x="529.5219" y="-542.2805" font-family="Helvetica,sans-Serif" font-size="11.00" fill="#000000">[table]</text>
<polygon fill="none" stroke="#000000" points="418,-515.1805 418,-534.1805 564,-534.1805 564,-515.1805 418,-515.1805"/>
<text text-anchor="start" x="421" y="-521.2805" font-family="Helvetica,sans-Serif" font-size="11.00" fill="#000000">...</text>
<polygon fill="#ffffff" stroke="transparent" points="418,-496.1805 418,-515.1805 489,-515.1805 489,-496.1805 418,-496.1805"/>
<polygon fill="none" stroke="#000000" points="418,-496.1805 418,-515.1805 489,-515.1805 489,-496.1805 418,-496.1805"/>
<text text-anchor="start" x="421" y="-502.2805" font-family="Helvetica,sans-Serif" font-size="11.00" fill="#000000">&lt; 2</text>
<polygon fill="#ffffff" stroke="transparent" points="489,-496.1805 489,-515.1805 526,-515.1805 526,-496.1805 489,-496.1805"/>
<polygon fill="none" stroke="#000000" points="489,-496.1805 489,-515.1805 526,-515.1805 526,-496.1805 489,-496.1805"/>
<text text-anchor="start" x="516.8862" y="-502.2805" font-family="Helvetica,sans-Serif" font-size="11.00" fill="#000000"> &#160;</text>
<polygon fill="#ffffff" stroke="transparent" points="526,-496.1805 526,-515.1805 564,-515.1805 564,-496.1805 526,-496.1805"/>
<polygon fill="none" stroke="#000000" points="526,-496.1805 526,-515.1805 564,-515.1805 564,-496.1805 526,-496.1805"/>
<text text-anchor="start" x="554.8862" y="-502.2805" font-family="Helvetica,sans-Serif" font-size="11.00" fill="#000000"> &#160;</text>
</a>
</g>
</g>
<!-- project_contacts_1_c&#45;&gt;project -->
<g id="edge33" class="edge">
<title>project_contacts_1_c:w&#45;&gt;project:e</title>
<path fill="none" stroke="#000000" d="M403.6456,-527.8042C391.5376,-535.6647 391.4705,-554.9624 379,-572.1805 359.4748,-599.1391 371.7866,-635.1805 338.5,-635.1805"/>
<polygon fill="#000000" stroke="#000000" points="410.2433,-526.1387 418.8812,-527.671 414.1217,-525.1596 418,-524.1805 418,-524.1805 418,-524.1805 414.1217,-525.1596 417.1188,-520.69 410.2433,-526.1387 410.2433,-526.1387"/>
<ellipse fill="none" stroke="#000000" cx="407.1407" cy="-526.9219" rx="3.2" ry="3.2"/>
</g>
<!-- project_users_1_c -->
<g id="node19" class="node">
<title>project_users_1_c</title>
<g id="a_node19"><a xlink:href="../../tables/project_users_1_c.html" xlink:title="project_users_1_c" target="_top">
<polygon fill="#ffffff" stroke="transparent" points="425,-414.6805 425,-475.6805 557,-475.6805 557,-414.6805 425,-414.6805"/>
<polygon fill="#f5f5f5" stroke="transparent" points="425,-452.1805 425,-475.1805 557,-475.1805 557,-452.1805 425,-452.1805"/>
<polygon fill="none" stroke="#000000" points="425,-452.1805 425,-475.1805 557,-475.1805 557,-452.1805 425,-452.1805"/>
<text text-anchor="start" x="429.5722" y="-461.2805" font-family="Helvetica,sans-Serif" font-weight="bold" font-size="11.00" fill="#000000">project_users_1_c</text>
<text text-anchor="start" x="522.5219" y="-460.2805" font-family="Helvetica,sans-Serif" font-size="11.00" fill="#000000">[table]</text>
<polygon fill="none" stroke="#000000" points="425,-433.1805 425,-452.1805 557,-452.1805 557,-433.1805 425,-433.1805"/>
<text text-anchor="start" x="428" y="-439.2805" font-family="Helvetica,sans-Serif" font-size="11.00" fill="#000000">...</text>
<polygon fill="#ffffff" stroke="transparent" points="425,-414.1805 425,-433.1805 489,-433.1805 489,-414.1805 425,-414.1805"/>
<polygon fill="none" stroke="#000000" points="425,-414.1805 425,-433.1805 489,-433.1805 489,-414.1805 425,-414.1805"/>
<text text-anchor="start" x="428" y="-420.2805" font-family="Helvetica,sans-Serif" font-size="11.00" fill="#000000">&lt; 2</text>
<polygon fill="#ffffff" stroke="transparent" points="489,-414.1805 489,-433.1805 523,-433.1805 523,-414.1805 489,-414.1805"/>
<polygon fill="none" stroke="#000000" points="489,-414.1805 489,-433.1805 523,-433.1805 523,-414.1805 489,-414.1805"/>
<text text-anchor="start" x="513.8862" y="-420.2805" font-family="Helvetica,sans-Serif" font-size="11.00" fill="#000000"> &#160;</text>
<polygon fill="#ffffff" stroke="transparent" points="523,-414.1805 523,-433.1805 557,-433.1805 557,-414.1805 523,-414.1805"/>
<polygon fill="none" stroke="#000000" points="523,-414.1805 523,-433.1805 557,-433.1805 557,-414.1805 523,-414.1805"/>
<text text-anchor="start" x="547.8862" y="-420.2805" font-family="Helvetica,sans-Serif" font-size="11.00" fill="#000000"> &#160;</text>
</a>
</g>
</g>
<!-- project_users_1_c&#45;&gt;project -->
<g id="edge35" class="edge">
<title>project_users_1_c:w&#45;&gt;project:e</title>
<path fill="none" stroke="#000000" d="M410.556,-444.4908C394.9266,-450.3681 390.5234,-466.8034 379,-486.1805 343.9232,-545.1635 407.1249,-635.1805 338.5,-635.1805"/>
<polygon fill="#000000" stroke="#000000" points="417.1004,-443.4441 425.5686,-445.7353 421.0502,-442.8123 425,-442.1805 425,-442.1805 425,-442.1805 421.0502,-442.8123 424.4314,-438.6257 417.1004,-443.4441 417.1004,-443.4441"/>
<ellipse fill="none" stroke="#000000" cx="413.9406" cy="-443.9495" rx="3.2" ry="3.2"/>
</g>
<!-- projects_accounts -->
<g id="node20" class="node">
<title>projects_accounts</title>
<g id="a_node20"><a xlink:href="../../tables/projects_accounts.html" xlink:title="projects_accounts" target="_top">
<polygon fill="#ffffff" stroke="transparent" points="425.5,-332.6805 425.5,-393.6805 556.5,-393.6805 556.5,-332.6805 425.5,-332.6805"/>
<polygon fill="#f5f5f5" stroke="transparent" points="426,-370.1805 426,-393.1805 557,-393.1805 557,-370.1805 426,-370.1805"/>
<polygon fill="none" stroke="#000000" points="426,-370.1805 426,-393.1805 557,-393.1805 557,-370.1805 426,-370.1805"/>
<text text-anchor="start" x="430.6821" y="-379.2805" font-family="Helvetica,sans-Serif" font-weight="bold" font-size="11.00" fill="#000000">projects_accounts</text>
<text text-anchor="start" x="522.5219" y="-378.2805" font-family="Helvetica,sans-Serif" font-size="11.00" fill="#000000">[table]</text>
<polygon fill="none" stroke="#000000" points="426,-351.1805 426,-370.1805 557,-370.1805 557,-351.1805 426,-351.1805"/>
<text text-anchor="start" x="429" y="-357.2805" font-family="Helvetica,sans-Serif" font-size="11.00" fill="#000000">...</text>
<polygon fill="#ffffff" stroke="transparent" points="426,-332.1805 426,-351.1805 490,-351.1805 490,-332.1805 426,-332.1805"/>
<polygon fill="none" stroke="#000000" points="426,-332.1805 426,-351.1805 490,-351.1805 490,-332.1805 426,-332.1805"/>
<text text-anchor="start" x="429" y="-338.2805" font-family="Helvetica,sans-Serif" font-size="11.00" fill="#000000">&lt; 2</text>
<polygon fill="#ffffff" stroke="transparent" points="490,-332.1805 490,-351.1805 523,-351.1805 523,-332.1805 490,-332.1805"/>
<polygon fill="none" stroke="#000000" points="490,-332.1805 490,-351.1805 523,-351.1805 523,-332.1805 490,-332.1805"/>
<text text-anchor="start" x="513.8862" y="-338.2805" font-family="Helvetica,sans-Serif" font-size="11.00" fill="#000000"> &#160;</text>
<polygon fill="#ffffff" stroke="transparent" points="523,-332.1805 523,-351.1805 557,-351.1805 557,-332.1805 523,-332.1805"/>
<polygon fill="none" stroke="#000000" points="523,-332.1805 523,-351.1805 557,-351.1805 557,-332.1805 523,-332.1805"/>
<text text-anchor="start" x="547.8862" y="-338.2805" font-family="Helvetica,sans-Serif" font-size="11.00" fill="#000000"> &#160;</text>
</a>
</g>
</g>
<!-- projects_accounts&#45;&gt;project -->
<g id="edge36" class="edge">
<title>projects_accounts:w&#45;&gt;project:e</title>
<path fill="none" stroke="#000000" d="M411.7192,-362.2427C395.1854,-367.7789 389.9572,-383.9293 379,-404.1805 354.1992,-450.0175 390.6163,-635.1805 338.5,-635.1805"/>
<polygon fill="#000000" stroke="#000000" points="418.0821,-361.3239 426.5145,-363.7435 422.0411,-360.7522 426,-360.1805 426,-360.1805 426,-360.1805 422.0411,-360.7522 425.4855,-356.6174 418.0821,-361.3239 418.0821,-361.3239"/>
<ellipse fill="none" stroke="#000000" cx="414.915" cy="-361.7813" rx="3.2" ry="3.2"/>
</g>
<!-- projects_bugs -->
<g id="node21" class="node">
<title>projects_bugs</title>
<g id="a_node21"><a xlink:href="../../tables/projects_bugs.html" xlink:title="projects_bugs" target="_top">
<polygon fill="#ffffff" stroke="transparent" points="644,-966.1805 644,-1122.1805 831,-1122.1805 831,-966.1805 644,-966.1805"/>
<polygon fill="#f5f5f5" stroke="transparent" points="646.5,-1097.1805 646.5,-1120.1805 829.5,-1120.1805 829.5,-1097.1805 646.5,-1097.1805"/>
<polygon fill="none" stroke="#000000" points="646.5,-1097.1805 646.5,-1120.1805 829.5,-1120.1805 829.5,-1097.1805 646.5,-1097.1805"/>
<text text-anchor="start" x="651.5" y="-1106.2805" font-family="Helvetica,sans-Serif" font-weight="bold" font-size="11.00" fill="#000000">projects_bugs</text>
<text text-anchor="start" x="794.5437" y="-1105.2805" font-family="Helvetica,sans-Serif" font-size="11.00" fill="#000000">[table]</text>
<polygon fill="none" stroke="#000000" points="646.5,-1075.1805 646.5,-1097.1805 763.5,-1097.1805 763.5,-1075.1805 646.5,-1075.1805"/>
<image xlink:href="../../images/primaryKeys.png" width="11px" height="12px" preserveAspectRatio="xMinYMin meet" x="651.5" y="-1092.18"/>
<text text-anchor="start" x="666.5" y="-1082.2805" font-family="Helvetica,sans-Serif" font-size="11.00" fill="#000000">id</text>
<polygon fill="none" stroke="#000000" points="763.5,-1075.1805 763.5,-1097.1805 829.5,-1097.1805 829.5,-1075.1805 763.5,-1075.1805"/>
<text text-anchor="start" x="766.5" y="-1082.8805" font-family="Helvetica,sans-Serif" font-size="11.00" fill="#000000">varchar[36]</text>
<polygon fill="#ffffff" stroke="transparent" points="646.5,-1053.1805 646.5,-1075.1805 763.5,-1075.1805 763.5,-1053.1805 646.5,-1053.1805"/>
<polygon fill="none" stroke="#000000" points="646.5,-1053.1805 646.5,-1075.1805 763.5,-1075.1805 763.5,-1053.1805 646.5,-1053.1805"/>
<image xlink:href="../../images/foreignKeys.png" width="11px" height="12px" preserveAspectRatio="xMinYMin meet" x="651.5" y="-1070.18"/>
<text text-anchor="start" x="666.5" y="-1060.2805" font-family="Helvetica,sans-Serif" font-size="11.00" fill="#000000">bug_id</text>
<polygon fill="none" stroke="#000000" points="763.5,-1053.1805 763.5,-1075.1805 829.5,-1075.1805 829.5,-1053.1805 763.5,-1053.1805"/>
<text text-anchor="start" x="766.5" y="-1060.8805" font-family="Helvetica,sans-Serif" font-size="11.00" fill="#000000">varchar[36]</text>
<polygon fill="#ffffff" stroke="transparent" points="646.5,-1031.1805 646.5,-1053.1805 763.5,-1053.1805 763.5,-1031.1805 646.5,-1031.1805"/>
<polygon fill="none" stroke="#000000" points="646.5,-1031.1805 646.5,-1053.1805 763.5,-1053.1805 763.5,-1031.1805 646.5,-1031.1805"/>
<image xlink:href="../../images/foreignKeys.png" width="11px" height="12px" preserveAspectRatio="xMinYMin meet" x="651.5" y="-1048.18"/>
<text text-anchor="start" x="666.5" y="-1038.2805" font-family="Helvetica,sans-Serif" font-size="11.00" fill="#000000">project_id</text>
<polygon fill="none" stroke="#000000" points="763.5,-1031.1805 763.5,-1053.1805 829.5,-1053.1805 829.5,-1031.1805 763.5,-1031.1805"/>
<text text-anchor="start" x="766.5" y="-1038.8805" font-family="Helvetica,sans-Serif" font-size="11.00" fill="#000000">varchar[36]</text>
<polygon fill="none" stroke="#000000" points="646.5,-1009.1805 646.5,-1031.1805 763.5,-1031.1805 763.5,-1009.1805 646.5,-1009.1805"/>
<text text-anchor="start" x="666.5" y="-1016.2805" font-family="Helvetica,sans-Serif" font-size="11.00" fill="#000000">date_modified</text>
<polygon fill="none" stroke="#000000" points="763.5,-1009.1805 763.5,-1031.1805 829.5,-1031.1805 829.5,-1009.1805 763.5,-1009.1805"/>
<text text-anchor="start" x="766.2401" y="-1016.8805" font-family="Helvetica,sans-Serif" font-size="11.00" fill="#000000">datetime[26]</text>
<polygon fill="none" stroke="#000000" points="646.5,-987.1805 646.5,-1009.1805 763.5,-1009.1805 763.5,-987.1805 646.5,-987.1805"/>
<text text-anchor="start" x="666.5" y="-994.2805" font-family="Helvetica,sans-Serif" font-size="11.00" fill="#000000">deleted</text>
<polygon fill="none" stroke="#000000" points="763.5,-987.1805 763.5,-1009.1805 829.5,-1009.1805 829.5,-987.1805 763.5,-987.1805"/>
<text text-anchor="start" x="766.5" y="-994.8805" font-family="Helvetica,sans-Serif" font-size="11.00" fill="#000000">bit[1]</text>
<polygon fill="#ffffff" stroke="transparent" points="646.5,-968.1805 646.5,-987.1805 709.5,-987.1805 709.5,-968.1805 646.5,-968.1805"/>
<polygon fill="none" stroke="#000000" points="646.5,-968.1805 646.5,-987.1805 709.5,-987.1805 709.5,-968.1805 646.5,-968.1805"/>
<text text-anchor="start" x="649.5" y="-974.2805" font-family="Helvetica,sans-Serif" font-size="11.00" fill="#000000">&lt; 2</text>
<polygon fill="#ffffff" stroke="transparent" points="709.5,-968.1805 709.5,-987.1805 763.5,-987.1805 763.5,-968.1805 709.5,-968.1805"/>
<polygon fill="none" stroke="#000000" points="709.5,-968.1805 709.5,-987.1805 763.5,-987.1805 763.5,-968.1805 709.5,-968.1805"/>
<text text-anchor="start" x="754.3862" y="-974.2805" font-family="Helvetica,sans-Serif" font-size="11.00" fill="#000000"> &#160;</text>
<polygon fill="#ffffff" stroke="transparent" points="763.5,-968.1805 763.5,-987.1805 829.5,-987.1805 829.5,-968.1805 763.5,-968.1805"/>
<polygon fill="none" stroke="#000000" points="763.5,-968.1805 763.5,-987.1805 829.5,-987.1805 829.5,-968.1805 763.5,-968.1805"/>
<text text-anchor="start" x="810.9053" y="-974.2805" font-family="Helvetica,sans-Serif" font-size="11.00" fill="#000000">0 &gt;</text>
<polygon fill="none" stroke="#000000" stroke-width="2" points="645,-967.1805 645,-1121.1805 830,-1121.1805 830,-967.1805 645,-967.1805"/>
</a>
</g>
</g>
<!-- projects_bugs&#45;&gt;bugs -->
<g id="edge37" class="edge">
<title>projects_bugs:w&#45;&gt;bugs:e</title>
<path fill="none" stroke="#000000" d="M632.194,-1066.1013C567.7513,-1085.5523 644.959,-1246.1805 561,-1246.1805"/>
<polygon fill="#000000" stroke="#000000" points="638.5711,-1065.2451 646.9791,-1067.7485 642.5356,-1064.7128 646.5,-1064.1805 646.5,-1064.1805 646.5,-1064.1805 642.5356,-1064.7128 646.0209,-1060.6125 638.5711,-1065.2451 638.5711,-1065.2451"/>
<ellipse fill="none" stroke="#000000" cx="635.3996" cy="-1065.6709" rx="3.2" ry="3.2"/>
</g>
<!-- projects_bugs&#45;&gt;project -->
<g id="edge38" class="edge">
<title>projects_bugs:w&#45;&gt;project:e</title>
<path fill="none" stroke="#000000" d="M632.0963,-1040.9068C556.9366,-1025.8673 673.8387,-881.4952 603,-814.1805 530.1436,-744.9484 454.5198,-849.4971 379,-783.1805 327.7569,-738.1821 406.6962,-635.1805 338.5,-635.1805"/>
<polygon fill="#000000" stroke="#000000" points="638.5311,-1041.4758 646.1829,-1045.7665 642.5155,-1041.8281 646.5,-1042.1805 646.5,-1042.1805 646.5,-1042.1805 642.5155,-1041.8281 646.8171,-1038.5945 638.5311,-1041.4758 638.5311,-1041.4758"/>
<ellipse fill="none" stroke="#000000" cx="635.3435" cy="-1041.1939" rx="3.2" ry="3.2"/>
</g>
<!-- projects_cases -->
<g id="node22" class="node">
<title>projects_cases</title>
<g id="a_node22"><a xlink:href="../../tables/projects_cases.html" xlink:title="projects_cases" target="_top">
<polygon fill="#ffffff" stroke="transparent" points="433,-250.6805 433,-311.6805 549,-311.6805 549,-250.6805 433,-250.6805"/>
<polygon fill="#f5f5f5" stroke="transparent" points="433,-288.1805 433,-311.1805 549,-311.1805 549,-288.1805 433,-288.1805"/>
<polygon fill="none" stroke="#000000" points="433,-288.1805 433,-311.1805 549,-311.1805 549,-288.1805 433,-288.1805"/>
<text text-anchor="start" x="437.8255" y="-297.2805" font-family="Helvetica,sans-Serif" font-weight="bold" font-size="11.00" fill="#000000">projects_cases</text>
<text text-anchor="start" x="514.5219" y="-296.2805" font-family="Helvetica,sans-Serif" font-size="11.00" fill="#000000">[table]</text>
<polygon fill="none" stroke="#000000" points="433,-269.1805 433,-288.1805 549,-288.1805 549,-269.1805 433,-269.1805"/>
<text text-anchor="start" x="436" y="-275.2805" font-family="Helvetica,sans-Serif" font-size="11.00" fill="#000000">...</text>
<polygon fill="#ffffff" stroke="transparent" points="433,-250.1805 433,-269.1805 489,-269.1805 489,-250.1805 433,-250.1805"/>
<polygon fill="none" stroke="#000000" points="433,-250.1805 433,-269.1805 489,-269.1805 489,-250.1805 433,-250.1805"/>
<text text-anchor="start" x="436" y="-256.2805" font-family="Helvetica,sans-Serif" font-size="11.00" fill="#000000">&lt; 2</text>
<polygon fill="#ffffff" stroke="transparent" points="489,-250.1805 489,-269.1805 519,-269.1805 519,-250.1805 489,-250.1805"/>
<polygon fill="none" stroke="#000000" points="489,-250.1805 489,-269.1805 519,-269.1805 519,-250.1805 489,-250.1805"/>
<text text-anchor="start" x="509.8862" y="-256.2805" font-family="Helvetica,sans-Serif" font-size="11.00" fill="#000000"> &#160;</text>
<polygon fill="#ffffff" stroke="transparent" points="519,-250.1805 519,-269.1805 549,-269.1805 549,-250.1805 519,-250.1805"/>
<polygon fill="none" stroke="#000000" points="519,-250.1805 519,-269.1805 549,-269.1805 549,-250.1805 519,-250.1805"/>
<text text-anchor="start" x="539.8862" y="-256.2805" font-family="Helvetica,sans-Serif" font-size="11.00" fill="#000000"> &#160;</text>
</a>
</g>
</g>
<!-- projects_cases&#45;&gt;project -->
<g id="edge39" class="edge">
<title>projects_cases:w&#45;&gt;project:e</title>
<path fill="none" stroke="#000000" d="M418.6406,-279.7144C399.0157,-284.4514 391.4094,-299.8848 379,-322.1805 344.8912,-383.4631 408.6354,-635.1805 338.5,-635.1805"/>
<polygon fill="#000000" stroke="#000000" points="425.0453,-279.0303 433.3824,-281.7601 429.0226,-278.6054 433,-278.1805 433,-278.1805 433,-278.1805 429.0226,-278.6054 432.6176,-274.6008 425.0453,-279.0303 425.0453,-279.0303"/>
<ellipse fill="none" stroke="#000000" cx="421.8634" cy="-279.3702" rx="3.2" ry="3.2"/>
</g>
<!-- projects_contacts -->
<g id="node23" class="node">
<title>projects_contacts</title>
<g id="a_node23"><a xlink:href="../../tables/projects_contacts.html" xlink:title="projects_contacts" target="_top">
<polygon fill="#ffffff" stroke="transparent" points="427,-168.6805 427,-229.6805 555,-229.6805 555,-168.6805 427,-168.6805"/>
<polygon fill="#f5f5f5" stroke="transparent" points="427,-206.1805 427,-229.1805 555,-229.1805 555,-206.1805 427,-206.1805"/>
<polygon fill="none" stroke="#000000" points="427,-206.1805 427,-229.1805 555,-229.1805 555,-206.1805 427,-206.1805"/>
<text text-anchor="start" x="431.7111" y="-215.2805" font-family="Helvetica,sans-Serif" font-weight="bold" font-size="11.00" fill="#000000">projects_contacts</text>
<text text-anchor="start" x="520.5219" y="-214.2805" font-family="Helvetica,sans-Serif" font-size="11.00" fill="#000000">[table]</text>
<polygon fill="none" stroke="#000000" points="427,-187.1805 427,-206.1805 555,-206.1805 555,-187.1805 427,-187.1805"/>
<text text-anchor="start" x="430" y="-193.2805" font-family="Helvetica,sans-Serif" font-size="11.00" fill="#000000">...</text>
<polygon fill="#ffffff" stroke="transparent" points="427,-168.1805 427,-187.1805 489,-187.1805 489,-168.1805 427,-168.1805"/>
<polygon fill="none" stroke="#000000" points="427,-168.1805 427,-187.1805 489,-187.1805 489,-168.1805 427,-168.1805"/>
<text text-anchor="start" x="430" y="-174.2805" font-family="Helvetica,sans-Serif" font-size="11.00" fill="#000000">&lt; 2</text>
<polygon fill="#ffffff" stroke="transparent" points="489,-168.1805 489,-187.1805 522,-187.1805 522,-168.1805 489,-168.1805"/>
<polygon fill="none" stroke="#000000" points="489,-168.1805 489,-187.1805 522,-187.1805 522,-168.1805 489,-168.1805"/>
<text text-anchor="start" x="512.8862" y="-174.2805" font-family="Helvetica,sans-Serif" font-size="11.00" fill="#000000"> &#160;</text>
<polygon fill="#ffffff" stroke="transparent" points="522,-168.1805 522,-187.1805 555,-187.1805 555,-168.1805 522,-168.1805"/>
<polygon fill="none" stroke="#000000" points="522,-168.1805 522,-187.1805 555,-187.1805 555,-168.1805 522,-168.1805"/>
<text text-anchor="start" x="545.8862" y="-174.2805" font-family="Helvetica,sans-Serif" font-size="11.00" fill="#000000"> &#160;</text>
</a>
</g>
</g>
<!-- projects_contacts&#45;&gt;project -->
<g id="edge40" class="edge">
<title>projects_contacts:w&#45;&gt;project:e</title>
<path fill="none" stroke="#000000" d="M412.4383,-198.1787C395.4251,-203.5607 389.4534,-219.3707 379,-240.1805 359.1959,-279.6048 382.619,-635.1805 338.5,-635.1805"/>
<polygon fill="#000000" stroke="#000000" points="419.0743,-197.2682 427.4895,-199.7471 423.0371,-196.7243 427,-196.1805 427,-196.1805 427,-196.1805 423.0371,-196.7243 426.5105,-192.6139 419.0743,-197.2682 419.0743,-197.2682"/>
<ellipse fill="none" stroke="#000000" cx="415.904" cy="-197.7032" rx="3.2" ry="3.2"/>
</g>
<!-- projects_opportunities -->
<g id="node24" class="node">
<title>projects_opportunities</title>
<g id="a_node24"><a xlink:href="../../tables/projects_opportunities.html" xlink:title="projects_opportunities" target="_top">
<polygon fill="#ffffff" stroke="transparent" points="416,-86.6805 416,-147.6805 566,-147.6805 566,-86.6805 416,-86.6805"/>
<polygon fill="#f5f5f5" stroke="transparent" points="416,-124.1805 416,-147.1805 566,-147.1805 566,-124.1805 416,-124.1805"/>
<polygon fill="none" stroke="#000000" points="416,-124.1805 416,-147.1805 566,-147.1805 566,-124.1805 416,-124.1805"/>
<text text-anchor="start" x="420.7095" y="-133.2805" font-family="Helvetica,sans-Serif" font-weight="bold" font-size="11.00" fill="#000000">projects_opportunities</text>
<text text-anchor="start" x="531.5219" y="-132.2805" font-family="Helvetica,sans-Serif" font-size="11.00" fill="#000000">[table]</text>
<polygon fill="none" stroke="#000000" points="416,-105.1805 416,-124.1805 566,-124.1805 566,-105.1805 416,-105.1805"/>
<text text-anchor="start" x="419" y="-111.2805" font-family="Helvetica,sans-Serif" font-size="11.00" fill="#000000">...</text>
<polygon fill="#ffffff" stroke="transparent" points="416,-86.1805 416,-105.1805 489,-105.1805 489,-86.1805 416,-86.1805"/>
<polygon fill="none" stroke="#000000" points="416,-86.1805 416,-105.1805 489,-105.1805 489,-86.1805 416,-86.1805"/>
<text text-anchor="start" x="419" y="-92.2805" font-family="Helvetica,sans-Serif" font-size="11.00" fill="#000000">&lt; 2</text>
<polygon fill="#ffffff" stroke="transparent" points="489,-86.1805 489,-105.1805 527,-105.1805 527,-86.1805 489,-86.1805"/>
<polygon fill="none" stroke="#000000" points="489,-86.1805 489,-105.1805 527,-105.1805 527,-86.1805 489,-86.1805"/>
<text text-anchor="start" x="517.8862" y="-92.2805" font-family="Helvetica,sans-Serif" font-size="11.00" fill="#000000"> &#160;</text>
<polygon fill="#ffffff" stroke="transparent" points="527,-86.1805 527,-105.1805 566,-105.1805 566,-86.1805 527,-86.1805"/>
<polygon fill="none" stroke="#000000" points="527,-86.1805 527,-105.1805 566,-105.1805 566,-86.1805 527,-86.1805"/>
<text text-anchor="start" x="556.8862" y="-92.2805" font-family="Helvetica,sans-Serif" font-size="11.00" fill="#000000"> &#160;</text>
</a>
</g>
</g>
<!-- projects_opportunities&#45;&gt;project -->
<g id="edge41" class="edge">
<title>projects_opportunities:w&#45;&gt;project:e</title>
<path fill="none" stroke="#000000" d="M401.5558,-117.3192C389.2141,-123.9141 386.4726,-140.1017 379,-158.1805 358.6817,-207.3376 391.6907,-635.1805 338.5,-635.1805"/>
<polygon fill="#000000" stroke="#000000" points="408.1824,-115.8793 416.7645,-117.6984 412.0912,-115.0299 416,-114.1805 416,-114.1805 416,-114.1805 412.0912,-115.0299 415.2355,-110.6626 408.1824,-115.8793 408.1824,-115.8793"/>
<ellipse fill="none" stroke="#000000" cx="405.0554" cy="-116.5588" rx="3.2" ry="3.2"/>
</g>
<!-- securitygroups_records -->
<g id="node25" class="node">
<title>securitygroups_records</title>
<g id="a_node25"><a xlink:href="../../tables/securitygroups_records.html" xlink:title="securitygroups_records" target="_top">
<polygon fill="#ffffff" stroke="transparent" points="1039,-691.6805 1039,-752.6805 1196,-752.6805 1196,-691.6805 1039,-691.6805"/>
<polygon fill="#f5f5f5" stroke="transparent" points="1039.5,-729.1805 1039.5,-752.1805 1196.5,-752.1805 1196.5,-729.1805 1039.5,-729.1805"/>
<polygon fill="none" stroke="#000000" points="1039.5,-729.1805 1039.5,-752.1805 1196.5,-752.1805 1196.5,-729.1805 1039.5,-729.1805"/>
<text text-anchor="start" x="1044.3528" y="-738.2805" font-family="Helvetica,sans-Serif" font-weight="bold" font-size="11.00" fill="#000000">securitygroups_records</text>
<text text-anchor="start" x="1162.0219" y="-737.2805" font-family="Helvetica,sans-Serif" font-size="11.00" fill="#000000">[table]</text>
<polygon fill="none" stroke="#000000" points="1039.5,-710.1805 1039.5,-729.1805 1196.5,-729.1805 1196.5,-710.1805 1039.5,-710.1805"/>
<text text-anchor="start" x="1042.5" y="-716.2805" font-family="Helvetica,sans-Serif" font-size="11.00" fill="#000000">...</text>
<polygon fill="#ffffff" stroke="transparent" points="1039.5,-691.1805 1039.5,-710.1805 1119.5,-710.1805 1119.5,-691.1805 1039.5,-691.1805"/>
<polygon fill="none" stroke="#000000" points="1039.5,-691.1805 1039.5,-710.1805 1119.5,-710.1805 1119.5,-691.1805 1039.5,-691.1805"/>
<text text-anchor="start" x="1042.5" y="-697.2805" font-family="Helvetica,sans-Serif" font-size="11.00" fill="#000000">&lt; 41</text>
<polygon fill="#ffffff" stroke="transparent" points="1119.5,-691.1805 1119.5,-710.1805 1157.5,-710.1805 1157.5,-691.1805 1119.5,-691.1805"/>
<polygon fill="none" stroke="#000000" points="1119.5,-691.1805 1119.5,-710.1805 1157.5,-710.1805 1157.5,-691.1805 1119.5,-691.1805"/>
<text text-anchor="start" x="1148.3862" y="-697.2805" font-family="Helvetica,sans-Serif" font-size="11.00" fill="#000000"> &#160;</text>
<polygon fill="#ffffff" stroke="transparent" points="1157.5,-691.1805 1157.5,-710.1805 1196.5,-710.1805 1196.5,-691.1805 1157.5,-691.1805"/>
<polygon fill="none" stroke="#000000" points="1157.5,-691.1805 1157.5,-710.1805 1196.5,-710.1805 1196.5,-691.1805 1157.5,-691.1805"/>
<text text-anchor="start" x="1187.3862" y="-697.2805" font-family="Helvetica,sans-Serif" font-size="11.00" fill="#000000"> &#160;</text>
</a>
</g>
</g>
<!-- securitygroups_records&#45;&gt;bugs -->
<g id="edge42" class="edge">
<title>securitygroups_records:w&#45;&gt;bugs:e</title>
<path fill="none" stroke="#000000" d="M1026.2847,-725.3679C1000.5625,-753.1278 1008.1966,-866.3449 998,-901.1805 939.3529,-1101.5419 1009.7881,-1223.1154 839,-1343.1805 765.1915,-1395.0683 716.9912,-1382.9357 636,-1343.1805 587.0808,-1319.1681 615.4948,-1246.1805 561,-1246.1805"/>
<polygon fill="#000000" stroke="#000000" points="1032.2548,-722.5727 1041.0265,-722.4408 1035.8774,-720.8766 1039.5,-719.1805 1039.5,-719.1805 1039.5,-719.1805 1035.8774,-720.8766 1037.9735,-715.9201 1032.2548,-722.5727 1032.2548,-722.5727"/>
<ellipse fill="none" stroke="#000000" cx="1029.3567" cy="-723.9296" rx="3.2" ry="3.2"/>
</g>
<!-- securitygroups_records&#45;&gt;project -->
<g id="edge48" class="edge">
<title>securitygroups_records:w&#45;&gt;project:e</title>
<path fill="none" stroke="#000000" d="M1024.9123,-717.6996C969.8336,-704.8527 1031.2791,-611.1771 998,-545.1805 875.2965,-301.8439 850.0949,-191.1281 603,-76.1805 512.7336,-34.1889 451.8955,-8.3752 379,-76.1805 333.4025,-118.594 400.7739,-635.1805 338.5,-635.1805"/>
<polygon fill="#000000" stroke="#000000" points="1031.5409,-718.3725 1039.1364,-722.7621 1035.5205,-718.7765 1039.5,-719.1805 1039.5,-719.1805 1039.5,-719.1805 1035.5205,-718.7765 1039.8636,-715.5989 1031.5409,-718.3725 1031.5409,-718.3725"/>
<ellipse fill="none" stroke="#000000" cx="1028.3573" cy="-718.0493" rx="3.2" ry="3.2"/>
</g>
<!-- securitygroups_records&#45;&gt;calls -->
<g id="edge43" class="edge">
<title>securitygroups_records:w&#45;&gt;calls:e</title>
<path fill="none" stroke="#000000" d="M1025.6118,-715.0419C1013.4012,-705.3293 1016.8982,-680.8636 998,-667.1805 910.2351,-603.6351 877.8545,-582.1805 769.5,-582.1805"/>
<polygon fill="#000000" stroke="#000000" points="1031.8332,-716.8958 1038.4719,-722.6306 1035.6666,-718.0381 1039.5,-719.1805 1039.5,-719.1805 1039.5,-719.1805 1035.6666,-718.0381 1040.5281,-715.7304 1031.8332,-716.8958 1031.8332,-716.8958"/>
<ellipse fill="none" stroke="#000000" cx="1028.7664" cy="-715.9819" rx="3.2" ry="3.2"/>
</g>
<!-- securitygroups_records&#45;&gt;project_task -->
<g id="edge49" class="edge">
<title>securitygroups_records:w&#45;&gt;project_task:e</title>
<path fill="none" stroke="#000000" d="M1024.8789,-716.6707C991.3152,-702.2692 1036.1493,-629.4755 998,-592.1805 945.2161,-540.5786 912.0249,-554.9628 839,-544.1805 749.7455,-531.0018 717.3582,-505.1819 636,-544.1805 575.8497,-573.0132 608.7037,-661.1805 542,-661.1805"/>
<polygon fill="#000000" stroke="#000000" points="1031.6153,-717.827 1038.8909,-722.7286 1035.5577,-718.5037 1039.5,-719.1805 1039.5,-719.1805 1039.5,-719.1805 1035.5577,-718.5037 1040.1091,-715.6324 1031.6153,-717.827 1031.6153,-717.827"/>
<ellipse fill="none" stroke="#000000" cx="1028.4614" cy="-717.2856" rx="3.2" ry="3.2"/>
</g>
<!-- securitygroups_records&#45;&gt;emails -->
<g id="edge44" class="edge">
<title>securitygroups_records:w&#45;&gt;emails:e</title>
<path fill="none" stroke="#000000" d="M1025.7431,-714.517C1016.0176,-705.9529 1015.4824,-687.9754 998,-681.1805 945.8039,-660.8934 927.036,-670.8345 872,-681.1805 826.2924,-689.7728 821.0082,-719.1805 774.5,-719.1805"/>
<polygon fill="#000000" stroke="#000000" points="1031.9235,-716.6121 1038.3442,-722.5899 1035.7117,-717.8963 1039.5,-719.1805 1039.5,-719.1805 1039.5,-719.1805 1035.7117,-717.8963 1040.6558,-715.7711 1031.9235,-716.6121 1031.9235,-716.6121"/>
<ellipse fill="none" stroke="#000000" cx="1028.8929" cy="-715.5847" rx="3.2" ry="3.2"/>
</g>
<!-- securitygroups_records&#45;&gt;meetings -->
<g id="edge46" class="edge">
<title>securitygroups_records:w&#45;&gt;meetings:e</title>
<path fill="none" stroke="#000000" d="M1025.1984,-721.2353C983.1984,-735.8392 1043.8317,-824.5731 998,-867.1805 926.0862,-934.0351 879.6893,-911.1805 781.5,-911.1805"/>
<polygon fill="#000000" stroke="#000000" points="1031.5813,-720.3182 1040.012,-722.7439 1035.5407,-719.7494 1039.5,-719.1805 1039.5,-719.1805 1039.5,-719.1805 1035.5407,-719.7494 1038.988,-715.6171 1031.5813,-720.3182 1031.5813,-720.3182"/>
<ellipse fill="none" stroke="#000000" cx="1028.4138" cy="-720.7733" rx="3.2" ry="3.2"/>
</g>
<!-- securitygroups_records&#45;&gt;tasks -->
<g id="edge50" class="edge">
<title>securitygroups_records:w&#45;&gt;tasks:e</title>
<path fill="none" stroke="#000000" d="M1025.1303,-721.8547C992.6246,-737.1676 1040.9171,-814.1309 998,-845.1805 916.2371,-904.3343 872.4175,-829.1805 771.5,-829.1805"/>
<polygon fill="#000000" stroke="#000000" points="1031.635,-720.6442 1040.1587,-722.7197 1035.5675,-719.9123 1039.5,-719.1805 1039.5,-719.1805 1039.5,-719.1805 1035.5675,-719.9123 1038.8413,-715.6412 1031.635,-720.6442 1031.635,-720.6442"/>
<ellipse fill="none" stroke="#000000" cx="1028.4891" cy="-721.2297" rx="3.2" ry="3.2"/>
</g>
<!-- securitygroups_records&#45;&gt;jjwg_maps -->
<g id="edge45" class="edge">
<title>securitygroups_records:w&#45;&gt;jjwg_maps:e</title>
<path fill="none" stroke="#000000" d="M1028.1708,-728.4125C997.0844,-784.7149 1007.2873,-1080.7529 998,-1120.1805 951.9512,-1315.6729 995.905,-1417.8066 839,-1543.1805 803.424,-1571.6072 783.0382,-1557.1805 737.5,-1557.1805 737.5,-1557.1805 737.5,-1557.1805 491,-1557.1805 251.988,-1557.1805 259.0301,-1356.1392 143,-1147.1805 114.0007,-1094.9556 161.736,-1019.1805 102,-1019.1805"/>
<polygon fill="#000000" stroke="#000000" points="1033.2983,-724.2342 1041.7742,-721.9712 1036.3992,-721.7073 1039.5,-719.1805 1039.5,-719.1805 1039.5,-719.1805 1036.3992,-721.7073 1037.2258,-716.3897 1033.2983,-724.2342 1033.2983,-724.2342"/>
<ellipse fill="none" stroke="#000000" cx="1030.8177" cy="-726.2556" rx="3.2" ry="3.2"/>
</g>
<!-- securitygroups_records&#45;&gt;notes -->
<g id="edge47" class="edge">
<title>securitygroups_records:w&#45;&gt;notes:e</title>
<path fill="none" stroke="#000000" d="M1024.8241,-719.1805C1005.0879,-719.1805 995.3385,-719.1805 970,-719.1805"/>
<polygon fill="#000000" stroke="#000000" points="1031.5,-719.1805 1039.5,-722.7805 1035.5,-719.1805 1039.5,-719.1805 1039.5,-719.1805 1039.5,-719.1805 1035.5,-719.1805 1039.5,-715.5805 1031.5,-719.1805 1031.5,-719.1805"/>
<ellipse fill="none" stroke="#000000" cx="1028.3" cy="-719.1806" rx="3.2" ry="3.2"/>
</g>
</g>
</svg>
