<?xml version="1.0" encoding="UTF-8" standalone="no"?>
<!DOCTYPE svg PUBLIC "-//W3C//DTD SVG 1.1//EN"
 "http://www.w3.org/Graphics/SVG/1.1/DTD/svg11.dtd">
<!-- Generated by graphviz version 2.40.1 (20161225.0304)
 -->
<!-- Title: oneDegreeRelationshipsDiagram Pages: 1 -->
<svg width="503pt" height="457pt"
 viewBox="0.00 0.00 503.00 457.20" xmlns="http://www.w3.org/2000/svg" xmlns:xlink="http://www.w3.org/1999/xlink">
<g id="graph0" class="graph" transform="scale(1 1) rotate(0) translate(4 453.2)">
<title>oneDegreeRelationshipsDiagram</title>
<polygon fill="#ffffff" stroke="transparent" points="-4,4 -4,-453.2 499,-453.2 499,4 -4,4"/>
<text text-anchor="middle" x="72.4936" y="-7.3" font-family="Helvetica,sans-Serif" font-size="11.00" fill="#000000">Generated by SchemaSpy</text>
<!-- projects_opportunities -->
<g id="node1" class="node">
<title>projects_opportunities</title>
<g id="a_node1"><a xlink:href="../../tables/projects_opportunities.html" xlink:title="projects_opportunities" target="_top">
<polygon fill="#ffffff" stroke="transparent" points="244,-194.7 244,-350.7 487,-350.7 487,-194.7 244,-194.7"/>
<polygon fill="#f5f5f5" stroke="transparent" points="246.5,-325.7 246.5,-348.7 485.5,-348.7 485.5,-325.7 246.5,-325.7"/>
<polygon fill="none" stroke="#000000" points="246.5,-325.7 246.5,-348.7 485.5,-348.7 485.5,-325.7 246.5,-325.7"/>
<text text-anchor="start" x="251.5" y="-334.8" font-family="Helvetica,sans-Serif" font-weight="bold" font-size="11.00" fill="#000000">projects_opportunities</text>
<text text-anchor="start" x="450.5437" y="-333.8" font-family="Helvetica,sans-Serif" font-size="11.00" fill="#000000">[table]</text>
<polygon fill="none" stroke="#000000" points="246.5,-303.7 246.5,-325.7 419.5,-325.7 419.5,-303.7 246.5,-303.7"/>
<image xlink:href="../../images/primaryKeys.png" width="11px" height="12px" preserveAspectRatio="xMinYMin meet" x="251.5" y="-320.7"/>
<text text-anchor="start" x="266.5" y="-310.8" font-family="Helvetica,sans-Serif" font-size="11.00" fill="#000000">id</text>
<polygon fill="none" stroke="#000000" points="419.5,-303.7 419.5,-325.7 485.5,-325.7 485.5,-303.7 419.5,-303.7"/>
<text text-anchor="start" x="422.5" y="-311.4" font-family="Helvetica,sans-Serif" font-size="11.00" fill="#000000">varchar[36]</text>
<polygon fill="#ffffff" stroke="transparent" points="246.5,-281.7 246.5,-303.7 419.5,-303.7 419.5,-281.7 246.5,-281.7"/>
<polygon fill="none" stroke="#000000" points="246.5,-281.7 246.5,-303.7 419.5,-303.7 419.5,-281.7 246.5,-281.7"/>
<image xlink:href="../../images/foreignKeys.png" width="11px" height="12px" preserveAspectRatio="xMinYMin meet" x="251.5" y="-298.7"/>
<text text-anchor="start" x="266.5" y="-288.8" font-family="Helvetica,sans-Serif" font-size="11.00" fill="#000000">opportunity_id</text>
<polygon fill="none" stroke="#000000" points="419.5,-281.7 419.5,-303.7 485.5,-303.7 485.5,-281.7 419.5,-281.7"/>
<text text-anchor="start" x="422.5" y="-289.4" font-family="Helvetica,sans-Serif" font-size="11.00" fill="#000000">varchar[36]</text>
<polygon fill="#ffffff" stroke="transparent" points="246.5,-259.7 246.5,-281.7 419.5,-281.7 419.5,-259.7 246.5,-259.7"/>
<polygon fill="none" stroke="#000000" points="246.5,-259.7 246.5,-281.7 419.5,-281.7 419.5,-259.7 246.5,-259.7"/>
<image xlink:href="../../images/foreignKeys.png" width="11px" height="12px" preserveAspectRatio="xMinYMin meet" x="251.5" y="-276.7"/>
<text text-anchor="start" x="266.5" y="-266.8" font-family="Helvetica,sans-Serif" font-size="11.00" fill="#000000">project_id</text>
<polygon fill="none" stroke="#000000" points="419.5,-259.7 419.5,-281.7 485.5,-281.7 485.5,-259.7 419.5,-259.7"/>
<text text-anchor="start" x="422.5" y="-267.4" font-family="Helvetica,sans-Serif" font-size="11.00" fill="#000000">varchar[36]</text>
<polygon fill="none" stroke="#000000" points="246.5,-237.7 246.5,-259.7 419.5,-259.7 419.5,-237.7 246.5,-237.7"/>
<text text-anchor="start" x="266.5" y="-244.8" font-family="Helvetica,sans-Serif" font-size="11.00" fill="#000000">date_modified</text>
<polygon fill="none" stroke="#000000" points="419.5,-237.7 419.5,-259.7 485.5,-259.7 485.5,-237.7 419.5,-237.7"/>
<text text-anchor="start" x="422.2401" y="-245.4" font-family="Helvetica,sans-Serif" font-size="11.00" fill="#000000">datetime[26]</text>
<polygon fill="none" stroke="#000000" points="246.5,-215.7 246.5,-237.7 419.5,-237.7 419.5,-215.7 246.5,-215.7"/>
<text text-anchor="start" x="266.5" y="-222.8" font-family="Helvetica,sans-Serif" font-size="11.00" fill="#000000">deleted</text>
<polygon fill="none" stroke="#000000" points="419.5,-215.7 419.5,-237.7 485.5,-237.7 485.5,-215.7 419.5,-215.7"/>
<text text-anchor="start" x="422.5" y="-223.4" font-family="Helvetica,sans-Serif" font-size="11.00" fill="#000000">bit[1]</text>
<polygon fill="#ffffff" stroke="transparent" points="246.5,-196.7 246.5,-215.7 337.5,-215.7 337.5,-196.7 246.5,-196.7"/>
<polygon fill="none" stroke="#000000" points="246.5,-196.7 246.5,-215.7 337.5,-215.7 337.5,-196.7 246.5,-196.7"/>
<text text-anchor="start" x="249.5" y="-202.8" font-family="Helvetica,sans-Serif" font-size="11.00" fill="#000000">&lt; 2</text>
<polygon fill="#ffffff" stroke="transparent" points="337.5,-196.7 337.5,-215.7 419.5,-215.7 419.5,-196.7 337.5,-196.7"/>
<polygon fill="none" stroke="#000000" points="337.5,-196.7 337.5,-215.7 419.5,-215.7 419.5,-196.7 337.5,-196.7"/>
<text text-anchor="start" x="410.3862" y="-202.8" font-family="Helvetica,sans-Serif" font-size="11.00" fill="#000000"> &#160;</text>
<polygon fill="#ffffff" stroke="transparent" points="419.5,-196.7 419.5,-215.7 485.5,-215.7 485.5,-196.7 419.5,-196.7"/>
<polygon fill="none" stroke="#000000" points="419.5,-196.7 419.5,-215.7 485.5,-215.7 485.5,-196.7 419.5,-196.7"/>
<text text-anchor="start" x="466.9053" y="-202.8" font-family="Helvetica,sans-Serif" font-size="11.00" fill="#000000">0 &gt;</text>
<polygon fill="none" stroke="#000000" stroke-width="2" points="245,-195.7 245,-349.7 486,-349.7 486,-195.7 245,-195.7"/>
</a>
</g>
</g>
<!-- opportunities -->
<g id="node2" class="node">
<title>opportunities</title>
<g id="a_node2"><a xlink:href="../../tables/opportunities.html" xlink:title="opportunities" target="_top">
<polygon fill="#ffffff" stroke="transparent" points="33,-208.2 33,-445.2 170,-445.2 170,-208.2 33,-208.2"/>
<polygon fill="#f5f5f5" stroke="transparent" points="33.5,-421.7 33.5,-444.7 170.5,-444.7 170.5,-421.7 33.5,-421.7"/>
<polygon fill="none" stroke="#000000" points="33.5,-421.7 33.5,-444.7 170.5,-444.7 170.5,-421.7 33.5,-421.7"/>
<text text-anchor="start" x="38.5" y="-430.8" font-family="Helvetica,sans-Serif" font-weight="bold" font-size="11.00" fill="#000000">opportunities</text>
<text text-anchor="start" x="135.5437" y="-429.8" font-family="Helvetica,sans-Serif" font-size="11.00" fill="#000000">[table]</text>
<polygon fill="none" stroke="#000000" points="33.5,-399.7 33.5,-421.7 170.5,-421.7 170.5,-399.7 33.5,-399.7"/>
<image xlink:href="../../images/primaryKeys.png" width="11px" height="12px" preserveAspectRatio="xMinYMin meet" x="38.5" y="-416.7"/>
<text text-anchor="start" x="53.5" y="-406.8" font-family="Helvetica,sans-Serif" font-size="11.00" fill="#000000">id</text>
<polygon fill="#ffffff" stroke="transparent" points="33.5,-377.7 33.5,-399.7 170.5,-399.7 170.5,-377.7 33.5,-377.7"/>
<polygon fill="none" stroke="#000000" points="33.5,-377.7 33.5,-399.7 170.5,-399.7 170.5,-377.7 33.5,-377.7"/>
<text text-anchor="start" x="53.5" y="-384.8" font-family="Helvetica,sans-Serif" font-size="11.00" fill="#000000">name</text>
<polygon fill="#c0c0c0" stroke="transparent" points="33.5,-355.7 33.5,-377.7 170.5,-377.7 170.5,-355.7 33.5,-355.7"/>
<polygon fill="none" stroke="#000000" points="33.5,-355.7 33.5,-377.7 170.5,-377.7 170.5,-355.7 33.5,-355.7"/>
<image xlink:href="../../images/foreignKeys.png" width="11px" height="12px" preserveAspectRatio="xMinYMin meet" x="38.5" y="-372.7"/>
<text text-anchor="start" x="53.5" y="-362.8" font-family="Helvetica,sans-Serif" font-size="11.00" fill="#000000">modified_user_id</text>
<polygon fill="#c0c0c0" stroke="transparent" points="33.5,-333.7 33.5,-355.7 170.5,-355.7 170.5,-333.7 33.5,-333.7"/>
<polygon fill="none" stroke="#000000" points="33.5,-333.7 33.5,-355.7 170.5,-355.7 170.5,-333.7 33.5,-333.7"/>
<image xlink:href="../../images/foreignKeys.png" width="11px" height="12px" preserveAspectRatio="xMinYMin meet" x="38.5" y="-350.7"/>
<text text-anchor="start" x="53.5" y="-340.8" font-family="Helvetica,sans-Serif" font-size="11.00" fill="#000000">created_by</text>
<polygon fill="#ffffff" stroke="transparent" points="33.5,-311.7 33.5,-333.7 170.5,-333.7 170.5,-311.7 33.5,-311.7"/>
<polygon fill="none" stroke="#000000" points="33.5,-311.7 33.5,-333.7 170.5,-333.7 170.5,-311.7 33.5,-311.7"/>
<text text-anchor="start" x="53.5" y="-318.8" font-family="Helvetica,sans-Serif" font-size="11.00" fill="#000000">deleted</text>
<polygon fill="#c0c0c0" stroke="transparent" points="33.5,-289.7 33.5,-311.7 170.5,-311.7 170.5,-289.7 33.5,-289.7"/>
<polygon fill="none" stroke="#000000" points="33.5,-289.7 33.5,-311.7 170.5,-311.7 170.5,-289.7 33.5,-289.7"/>
<image xlink:href="../../images/foreignKeys.png" width="11px" height="12px" preserveAspectRatio="xMinYMin meet" x="38.5" y="-306.7"/>
<text text-anchor="start" x="53.5" y="-296.8" font-family="Helvetica,sans-Serif" font-size="11.00" fill="#000000">assigned_user_id</text>
<polygon fill="none" stroke="#000000" points="33.5,-267.7 33.5,-289.7 170.5,-289.7 170.5,-267.7 33.5,-267.7"/>
<image xlink:href="../../images/foreignKeys.png" width="11px" height="12px" preserveAspectRatio="xMinYMin meet" x="38.5" y="-284.7"/>
<text text-anchor="start" x="53.5" y="-274.8" font-family="Helvetica,sans-Serif" font-size="11.00" fill="#000000">campaign_id</text>
<polygon fill="none" stroke="#000000" points="33.5,-245.7 33.5,-267.7 170.5,-267.7 170.5,-245.7 33.5,-245.7"/>
<image xlink:href="../../images/primaryKeys.png" width="11px" height="12px" preserveAspectRatio="xMinYMin meet" x="38.5" y="-262.7"/>
<text text-anchor="start" x="53.5" y="-252.8" font-family="Helvetica,sans-Serif" font-size="11.00" fill="#000000">currency_id</text>
<polygon fill="none" stroke="#000000" points="33.5,-226.7 33.5,-245.7 170.5,-245.7 170.5,-226.7 33.5,-226.7"/>
<text text-anchor="start" x="36.5" y="-232.8" font-family="Helvetica,sans-Serif" font-size="11.00" fill="#000000">...</text>
<polygon fill="#ffffff" stroke="transparent" points="33.5,-207.7 33.5,-226.7 92.5,-226.7 92.5,-207.7 33.5,-207.7"/>
<polygon fill="none" stroke="#000000" points="33.5,-207.7 33.5,-226.7 92.5,-226.7 92.5,-207.7 33.5,-207.7"/>
<text text-anchor="start" x="36.5" y="-213.8" font-family="Helvetica,sans-Serif" font-size="11.00" fill="#000000">&lt; 6</text>
<polygon fill="#ffffff" stroke="transparent" points="92.5,-207.7 92.5,-226.7 123.5,-226.7 123.5,-207.7 92.5,-207.7"/>
<polygon fill="none" stroke="#000000" points="92.5,-207.7 92.5,-226.7 123.5,-226.7 123.5,-207.7 92.5,-207.7"/>
<text text-anchor="start" x="114.3862" y="-213.8" font-family="Helvetica,sans-Serif" font-size="11.00" fill="#000000"> &#160;</text>
<polygon fill="#ffffff" stroke="transparent" points="123.5,-207.7 123.5,-226.7 170.5,-226.7 170.5,-207.7 123.5,-207.7"/>
<polygon fill="none" stroke="#000000" points="123.5,-207.7 123.5,-226.7 170.5,-226.7 170.5,-207.7 123.5,-207.7"/>
<text text-anchor="start" x="145.7904" y="-213.8" font-family="Helvetica,sans-Serif" font-size="11.00" fill="#000000">17 &gt;</text>
</a>
</g>
</g>
<!-- projects_opportunities&#45;&gt;opportunities -->
<g id="edge1" class="edge">
<title>projects_opportunities:w&#45;&gt;opportunities:e</title>
<path fill="none" stroke="#000000" d="M232.2166,-295.3863C191.984,-312.9506 227.2762,-410.7 170.5,-410.7"/>
<polygon fill="#000000" stroke="#000000" points="238.6378,-294.1787 247.1654,-296.238 242.5689,-293.4393 246.5,-292.7 246.5,-292.7 246.5,-292.7 242.5689,-293.4393 245.8346,-289.162 238.6378,-294.1787 238.6378,-294.1787"/>
<ellipse fill="none" stroke="#000000" cx="235.493" cy="-294.7702" rx="3.2" ry="3.2"/>
</g>
<!-- project -->
<g id="node3" class="node">
<title>project</title>
<g id="a_node3"><a xlink:href="../../tables/project.html" xlink:title="project" target="_top">
<polygon fill="#ffffff" stroke="transparent" points="8,-38.2 8,-187.2 195,-187.2 195,-38.2 8,-38.2"/>
<polygon fill="#f5f5f5" stroke="transparent" points="8.5,-163.7 8.5,-186.7 195.5,-186.7 195.5,-163.7 8.5,-163.7"/>
<polygon fill="none" stroke="#000000" points="8.5,-163.7 8.5,-186.7 195.5,-186.7 195.5,-163.7 8.5,-163.7"/>
<text text-anchor="start" x="13.5" y="-172.8" font-family="Helvetica,sans-Serif" font-weight="bold" font-size="11.00" fill="#000000">project</text>
<text text-anchor="start" x="160.5437" y="-171.8" font-family="Helvetica,sans-Serif" font-size="11.00" fill="#000000">[table]</text>
<polygon fill="none" stroke="#000000" points="8.5,-141.7 8.5,-163.7 195.5,-163.7 195.5,-141.7 8.5,-141.7"/>
<image xlink:href="../../images/primaryKeys.png" width="11px" height="12px" preserveAspectRatio="xMinYMin meet" x="13.5" y="-158.7"/>
<text text-anchor="start" x="28.5" y="-148.8" font-family="Helvetica,sans-Serif" font-size="11.00" fill="#000000">id</text>
<polygon fill="#c0c0c0" stroke="transparent" points="8.5,-119.7 8.5,-141.7 195.5,-141.7 195.5,-119.7 8.5,-119.7"/>
<polygon fill="none" stroke="#000000" points="8.5,-119.7 8.5,-141.7 195.5,-141.7 195.5,-119.7 8.5,-119.7"/>
<image xlink:href="../../images/foreignKeys.png" width="11px" height="12px" preserveAspectRatio="xMinYMin meet" x="13.5" y="-136.7"/>
<text text-anchor="start" x="28.5" y="-126.8" font-family="Helvetica,sans-Serif" font-size="11.00" fill="#000000">assigned_user_id</text>
<polygon fill="#c0c0c0" stroke="transparent" points="8.5,-97.7 8.5,-119.7 195.5,-119.7 195.5,-97.7 8.5,-97.7"/>
<polygon fill="none" stroke="#000000" points="8.5,-97.7 8.5,-119.7 195.5,-119.7 195.5,-97.7 8.5,-97.7"/>
<image xlink:href="../../images/foreignKeys.png" width="11px" height="12px" preserveAspectRatio="xMinYMin meet" x="13.5" y="-114.7"/>
<text text-anchor="start" x="28.5" y="-104.8" font-family="Helvetica,sans-Serif" font-size="11.00" fill="#000000">modified_user_id</text>
<polygon fill="#c0c0c0" stroke="transparent" points="8.5,-75.7 8.5,-97.7 195.5,-97.7 195.5,-75.7 8.5,-75.7"/>
<polygon fill="none" stroke="#000000" points="8.5,-75.7 8.5,-97.7 195.5,-97.7 195.5,-75.7 8.5,-75.7"/>
<image xlink:href="../../images/foreignKeys.png" width="11px" height="12px" preserveAspectRatio="xMinYMin meet" x="13.5" y="-92.7"/>
<text text-anchor="start" x="28.5" y="-82.8" font-family="Helvetica,sans-Serif" font-size="11.00" fill="#000000">created_by</text>
<polygon fill="none" stroke="#000000" points="8.5,-56.7 8.5,-75.7 195.5,-75.7 195.5,-56.7 8.5,-56.7"/>
<text text-anchor="start" x="11.5" y="-62.8" font-family="Helvetica,sans-Serif" font-size="11.00" fill="#000000">...</text>
<polygon fill="#ffffff" stroke="transparent" points="8.5,-37.7 8.5,-56.7 92.5,-56.7 92.5,-37.7 8.5,-37.7"/>
<polygon fill="none" stroke="#000000" points="8.5,-37.7 8.5,-56.7 92.5,-56.7 92.5,-37.7 8.5,-37.7"/>
<text text-anchor="start" x="11.5" y="-43.8" font-family="Helvetica,sans-Serif" font-size="11.00" fill="#000000">&lt; 4</text>
<polygon fill="#ffffff" stroke="transparent" points="92.5,-37.7 92.5,-56.7 136.5,-56.7 136.5,-37.7 92.5,-37.7"/>
<polygon fill="none" stroke="#000000" points="92.5,-37.7 92.5,-56.7 136.5,-56.7 136.5,-37.7 92.5,-37.7"/>
<text text-anchor="start" x="127.3862" y="-43.8" font-family="Helvetica,sans-Serif" font-size="11.00" fill="#000000"> &#160;</text>
<polygon fill="#ffffff" stroke="transparent" points="136.5,-37.7 136.5,-56.7 195.5,-56.7 195.5,-37.7 136.5,-37.7"/>
<polygon fill="none" stroke="#000000" points="136.5,-37.7 136.5,-56.7 195.5,-56.7 195.5,-37.7 136.5,-37.7"/>
<text text-anchor="start" x="170.7904" y="-43.8" font-family="Helvetica,sans-Serif" font-size="11.00" fill="#000000">18 &gt;</text>
</a>
</g>
</g>
<!-- projects_opportunities&#45;&gt;project -->
<g id="edge2" class="edge">
<title>projects_opportunities:w&#45;&gt;project:e</title>
<path fill="none" stroke="#000000" d="M232.1581,-267.0391C201.3728,-247.122 246.6074,-152.7 195.5,-152.7"/>
<polygon fill="#000000" stroke="#000000" points="238.7485,-268.7213 245.6096,-274.1882 242.6243,-269.7107 246.5,-270.7 246.5,-270.7 246.5,-270.7 242.6243,-269.7107 247.3904,-267.2118 238.7485,-268.7213 238.7485,-268.7213"/>
<ellipse fill="none" stroke="#000000" cx="235.648" cy="-267.9299" rx="3.2" ry="3.2"/>
</g>
</g>
</svg>
