<?xml version="1.0" encoding="UTF-8" standalone="no"?>
<!DOCTYPE svg PUBLIC "-//W3C//DTD SVG 1.1//EN"
 "http://www.w3.org/Graphics/SVG/1.1/DTD/svg11.dtd">
<!-- Generated by graphviz version 2.40.1 (20161225.0304)
 -->
<!-- Title: oneDegreeRelationshipsDiagram Pages: 1 -->
<svg width="449pt" height="501pt"
 viewBox="0.00 0.00 449.00 501.20" xmlns="http://www.w3.org/2000/svg" xmlns:xlink="http://www.w3.org/1999/xlink">
<g id="graph0" class="graph" transform="scale(1 1) rotate(0) translate(4 497.2)">
<title>oneDegreeRelationshipsDiagram</title>
<polygon fill="#ffffff" stroke="transparent" points="-4,4 -4,-497.2 445,-497.2 445,4 -4,4"/>
<text text-anchor="middle" x="72.4936" y="-7.3" font-family="Helvetica,sans-Serif" font-size="11.00" fill="#000000">Generated by SchemaSpy</text>
<!-- projects_cases -->
<g id="node1" class="node">
<title>projects_cases</title>
<g id="a_node1"><a xlink:href="../../tables/projects_cases.html" xlink:title="projects_cases" target="_top">
<polygon fill="#ffffff" stroke="transparent" points="244,-216.7 244,-372.7 433,-372.7 433,-216.7 244,-216.7"/>
<polygon fill="#f5f5f5" stroke="transparent" points="246.5,-347.7 246.5,-370.7 431.5,-370.7 431.5,-347.7 246.5,-347.7"/>
<polygon fill="none" stroke="#000000" points="246.5,-347.7 246.5,-370.7 431.5,-370.7 431.5,-347.7 246.5,-347.7"/>
<text text-anchor="start" x="251.5" y="-356.8" font-family="Helvetica,sans-Serif" font-weight="bold" font-size="11.00" fill="#000000">projects_cases</text>
<text text-anchor="start" x="396.5437" y="-355.8" font-family="Helvetica,sans-Serif" font-size="11.00" fill="#000000">[table]</text>
<polygon fill="none" stroke="#000000" points="246.5,-325.7 246.5,-347.7 365.5,-347.7 365.5,-325.7 246.5,-325.7"/>
<image xlink:href="../../images/primaryKeys.png" width="11px" height="12px" preserveAspectRatio="xMinYMin meet" x="251.5" y="-342.7"/>
<text text-anchor="start" x="266.5" y="-332.8" font-family="Helvetica,sans-Serif" font-size="11.00" fill="#000000">id</text>
<polygon fill="none" stroke="#000000" points="365.5,-325.7 365.5,-347.7 431.5,-347.7 431.5,-325.7 365.5,-325.7"/>
<text text-anchor="start" x="368.5" y="-333.4" font-family="Helvetica,sans-Serif" font-size="11.00" fill="#000000">varchar[36]</text>
<polygon fill="#ffffff" stroke="transparent" points="246.5,-303.7 246.5,-325.7 365.5,-325.7 365.5,-303.7 246.5,-303.7"/>
<polygon fill="none" stroke="#000000" points="246.5,-303.7 246.5,-325.7 365.5,-325.7 365.5,-303.7 246.5,-303.7"/>
<image xlink:href="../../images/foreignKeys.png" width="11px" height="12px" preserveAspectRatio="xMinYMin meet" x="251.5" y="-320.7"/>
<text text-anchor="start" x="266.5" y="-310.8" font-family="Helvetica,sans-Serif" font-size="11.00" fill="#000000">case_id</text>
<polygon fill="none" stroke="#000000" points="365.5,-303.7 365.5,-325.7 431.5,-325.7 431.5,-303.7 365.5,-303.7"/>
<text text-anchor="start" x="368.5" y="-311.4" font-family="Helvetica,sans-Serif" font-size="11.00" fill="#000000">varchar[36]</text>
<polygon fill="#ffffff" stroke="transparent" points="246.5,-281.7 246.5,-303.7 365.5,-303.7 365.5,-281.7 246.5,-281.7"/>
<polygon fill="none" stroke="#000000" points="246.5,-281.7 246.5,-303.7 365.5,-303.7 365.5,-281.7 246.5,-281.7"/>
<image xlink:href="../../images/foreignKeys.png" width="11px" height="12px" preserveAspectRatio="xMinYMin meet" x="251.5" y="-298.7"/>
<text text-anchor="start" x="266.5" y="-288.8" font-family="Helvetica,sans-Serif" font-size="11.00" fill="#000000">project_id</text>
<polygon fill="none" stroke="#000000" points="365.5,-281.7 365.5,-303.7 431.5,-303.7 431.5,-281.7 365.5,-281.7"/>
<text text-anchor="start" x="368.5" y="-289.4" font-family="Helvetica,sans-Serif" font-size="11.00" fill="#000000">varchar[36]</text>
<polygon fill="none" stroke="#000000" points="246.5,-259.7 246.5,-281.7 365.5,-281.7 365.5,-259.7 246.5,-259.7"/>
<text text-anchor="start" x="266.5" y="-266.8" font-family="Helvetica,sans-Serif" font-size="11.00" fill="#000000">date_modified</text>
<polygon fill="none" stroke="#000000" points="365.5,-259.7 365.5,-281.7 431.5,-281.7 431.5,-259.7 365.5,-259.7"/>
<text text-anchor="start" x="368.2401" y="-267.4" font-family="Helvetica,sans-Serif" font-size="11.00" fill="#000000">datetime[26]</text>
<polygon fill="none" stroke="#000000" points="246.5,-237.7 246.5,-259.7 365.5,-259.7 365.5,-237.7 246.5,-237.7"/>
<text text-anchor="start" x="266.5" y="-244.8" font-family="Helvetica,sans-Serif" font-size="11.00" fill="#000000">deleted</text>
<polygon fill="none" stroke="#000000" points="365.5,-237.7 365.5,-259.7 431.5,-259.7 431.5,-237.7 365.5,-237.7"/>
<text text-anchor="start" x="368.5" y="-245.4" font-family="Helvetica,sans-Serif" font-size="11.00" fill="#000000">bit[1]</text>
<polygon fill="#ffffff" stroke="transparent" points="246.5,-218.7 246.5,-237.7 310.5,-237.7 310.5,-218.7 246.5,-218.7"/>
<polygon fill="none" stroke="#000000" points="246.5,-218.7 246.5,-237.7 310.5,-237.7 310.5,-218.7 246.5,-218.7"/>
<text text-anchor="start" x="249.5" y="-224.8" font-family="Helvetica,sans-Serif" font-size="11.00" fill="#000000">&lt; 2</text>
<polygon fill="#ffffff" stroke="transparent" points="310.5,-218.7 310.5,-237.7 365.5,-237.7 365.5,-218.7 310.5,-218.7"/>
<polygon fill="none" stroke="#000000" points="310.5,-218.7 310.5,-237.7 365.5,-237.7 365.5,-218.7 310.5,-218.7"/>
<text text-anchor="start" x="356.3862" y="-224.8" font-family="Helvetica,sans-Serif" font-size="11.00" fill="#000000"> &#160;</text>
<polygon fill="#ffffff" stroke="transparent" points="365.5,-218.7 365.5,-237.7 431.5,-237.7 431.5,-218.7 365.5,-218.7"/>
<polygon fill="none" stroke="#000000" points="365.5,-218.7 365.5,-237.7 431.5,-237.7 431.5,-218.7 365.5,-218.7"/>
<text text-anchor="start" x="412.9053" y="-224.8" font-family="Helvetica,sans-Serif" font-size="11.00" fill="#000000">0 &gt;</text>
<polygon fill="none" stroke="#000000" stroke-width="2" points="245,-217.7 245,-371.7 432,-371.7 432,-217.7 245,-217.7"/>
</a>
</g>
</g>
<!-- cases -->
<g id="node2" class="node">
<title>cases</title>
<g id="a_node2"><a xlink:href="../../tables/cases.html" xlink:title="cases" target="_top">
<polygon fill="#ffffff" stroke="transparent" points="16.5,-208.2 16.5,-489.2 186.5,-489.2 186.5,-208.2 16.5,-208.2"/>
<polygon fill="#f5f5f5" stroke="transparent" points="16.5,-465.7 16.5,-488.7 186.5,-488.7 186.5,-465.7 16.5,-465.7"/>
<polygon fill="none" stroke="#000000" points="16.5,-465.7 16.5,-488.7 186.5,-488.7 186.5,-465.7 16.5,-465.7"/>
<text text-anchor="start" x="21.5" y="-474.8" font-family="Helvetica,sans-Serif" font-weight="bold" font-size="11.00" fill="#000000">cases</text>
<text text-anchor="start" x="151.5437" y="-473.8" font-family="Helvetica,sans-Serif" font-size="11.00" fill="#000000">[table]</text>
<polygon fill="none" stroke="#000000" points="16.5,-443.7 16.5,-465.7 186.5,-465.7 186.5,-443.7 16.5,-443.7"/>
<image xlink:href="../../images/primaryKeys.png" width="11px" height="12px" preserveAspectRatio="xMinYMin meet" x="21.5" y="-460.7"/>
<text text-anchor="start" x="36.5" y="-450.8" font-family="Helvetica,sans-Serif" font-size="11.00" fill="#000000">id</text>
<polygon fill="#ffffff" stroke="transparent" points="16.5,-421.7 16.5,-443.7 186.5,-443.7 186.5,-421.7 16.5,-421.7"/>
<polygon fill="none" stroke="#000000" points="16.5,-421.7 16.5,-443.7 186.5,-443.7 186.5,-421.7 16.5,-421.7"/>
<text text-anchor="start" x="36.5" y="-428.8" font-family="Helvetica,sans-Serif" font-size="11.00" fill="#000000">name</text>
<polygon fill="#c0c0c0" stroke="transparent" points="16.5,-399.7 16.5,-421.7 186.5,-421.7 186.5,-399.7 16.5,-399.7"/>
<polygon fill="none" stroke="#000000" points="16.5,-399.7 16.5,-421.7 186.5,-421.7 186.5,-399.7 16.5,-399.7"/>
<image xlink:href="../../images/foreignKeys.png" width="11px" height="12px" preserveAspectRatio="xMinYMin meet" x="21.5" y="-416.7"/>
<text text-anchor="start" x="36.5" y="-406.8" font-family="Helvetica,sans-Serif" font-size="11.00" fill="#000000">modified_user_id</text>
<polygon fill="#c0c0c0" stroke="transparent" points="16.5,-377.7 16.5,-399.7 186.5,-399.7 186.5,-377.7 16.5,-377.7"/>
<polygon fill="none" stroke="#000000" points="16.5,-377.7 16.5,-399.7 186.5,-399.7 186.5,-377.7 16.5,-377.7"/>
<image xlink:href="../../images/foreignKeys.png" width="11px" height="12px" preserveAspectRatio="xMinYMin meet" x="21.5" y="-394.7"/>
<text text-anchor="start" x="36.5" y="-384.8" font-family="Helvetica,sans-Serif" font-size="11.00" fill="#000000">created_by</text>
<polygon fill="#ffffff" stroke="transparent" points="16.5,-355.7 16.5,-377.7 186.5,-377.7 186.5,-355.7 16.5,-355.7"/>
<polygon fill="none" stroke="#000000" points="16.5,-355.7 16.5,-377.7 186.5,-377.7 186.5,-355.7 16.5,-355.7"/>
<text text-anchor="start" x="36.5" y="-362.8" font-family="Helvetica,sans-Serif" font-size="11.00" fill="#000000">deleted</text>
<polygon fill="#c0c0c0" stroke="transparent" points="16.5,-333.7 16.5,-355.7 186.5,-355.7 186.5,-333.7 16.5,-333.7"/>
<polygon fill="none" stroke="#000000" points="16.5,-333.7 16.5,-355.7 186.5,-355.7 186.5,-333.7 16.5,-333.7"/>
<image xlink:href="../../images/foreignKeys.png" width="11px" height="12px" preserveAspectRatio="xMinYMin meet" x="21.5" y="-350.7"/>
<text text-anchor="start" x="36.5" y="-340.8" font-family="Helvetica,sans-Serif" font-size="11.00" fill="#000000">assigned_user_id</text>
<polygon fill="#ffffff" stroke="transparent" points="16.5,-311.7 16.5,-333.7 186.5,-333.7 186.5,-311.7 16.5,-311.7"/>
<polygon fill="none" stroke="#000000" points="16.5,-311.7 16.5,-333.7 186.5,-333.7 186.5,-311.7 16.5,-311.7"/>
<text text-anchor="start" x="36.5" y="-318.8" font-family="Helvetica,sans-Serif" font-size="11.00" fill="#000000">case_number</text>
<polygon fill="#ffffff" stroke="transparent" points="16.5,-289.7 16.5,-311.7 186.5,-311.7 186.5,-289.7 16.5,-289.7"/>
<polygon fill="none" stroke="#000000" points="16.5,-289.7 16.5,-311.7 186.5,-311.7 186.5,-289.7 16.5,-289.7"/>
<text text-anchor="start" x="36.5" y="-296.8" font-family="Helvetica,sans-Serif" font-size="11.00" fill="#000000">status</text>
<polygon fill="#ffffff" stroke="transparent" points="16.5,-267.7 16.5,-289.7 186.5,-289.7 186.5,-267.7 16.5,-267.7"/>
<polygon fill="none" stroke="#000000" points="16.5,-267.7 16.5,-289.7 186.5,-289.7 186.5,-267.7 16.5,-267.7"/>
<image xlink:href="../../images/foreignKeys.png" width="11px" height="12px" preserveAspectRatio="xMinYMin meet" x="21.5" y="-284.7"/>
<text text-anchor="start" x="36.5" y="-274.8" font-family="Helvetica,sans-Serif" font-size="11.00" fill="#000000">account_id</text>
<polygon fill="none" stroke="#000000" points="16.5,-245.7 16.5,-267.7 186.5,-267.7 186.5,-245.7 16.5,-245.7"/>
<image xlink:href="../../images/foreignKeys.png" width="11px" height="12px" preserveAspectRatio="xMinYMin meet" x="21.5" y="-262.7"/>
<text text-anchor="start" x="36.5" y="-252.8" font-family="Helvetica,sans-Serif" font-size="11.00" fill="#000000">contact_created_by_id</text>
<polygon fill="none" stroke="#000000" points="16.5,-226.7 16.5,-245.7 186.5,-245.7 186.5,-226.7 16.5,-226.7"/>
<text text-anchor="start" x="19.5" y="-232.8" font-family="Helvetica,sans-Serif" font-size="11.00" fill="#000000">...</text>
<polygon fill="#ffffff" stroke="transparent" points="16.5,-207.7 16.5,-226.7 92.5,-226.7 92.5,-207.7 16.5,-207.7"/>
<polygon fill="none" stroke="#000000" points="16.5,-207.7 16.5,-226.7 92.5,-226.7 92.5,-207.7 16.5,-207.7"/>
<text text-anchor="start" x="19.5" y="-213.8" font-family="Helvetica,sans-Serif" font-size="11.00" fill="#000000">&lt; 6</text>
<polygon fill="#ffffff" stroke="transparent" points="92.5,-207.7 92.5,-226.7 131.5,-226.7 131.5,-207.7 92.5,-207.7"/>
<polygon fill="none" stroke="#000000" points="92.5,-207.7 92.5,-226.7 131.5,-226.7 131.5,-207.7 92.5,-207.7"/>
<text text-anchor="start" x="122.3862" y="-213.8" font-family="Helvetica,sans-Serif" font-size="11.00" fill="#000000"> &#160;</text>
<polygon fill="#ffffff" stroke="transparent" points="131.5,-207.7 131.5,-226.7 186.5,-226.7 186.5,-207.7 131.5,-207.7"/>
<polygon fill="none" stroke="#000000" points="131.5,-207.7 131.5,-226.7 186.5,-226.7 186.5,-207.7 131.5,-207.7"/>
<text text-anchor="start" x="161.7904" y="-213.8" font-family="Helvetica,sans-Serif" font-size="11.00" fill="#000000">15 &gt;</text>
</a>
</g>
</g>
<!-- projects_cases&#45;&gt;cases -->
<g id="edge1" class="edge">
<title>projects_cases:w&#45;&gt;cases:e</title>
<path fill="none" stroke="#000000" d="M232.3021,-317.4966C190.4584,-337.2282 248.5104,-454.7 186.5,-454.7"/>
<polygon fill="#000000" stroke="#000000" points="238.6508,-316.2461 247.1957,-318.2321 242.5754,-315.473 246.5,-314.7 246.5,-314.7 246.5,-314.7 242.5754,-315.473 245.8043,-311.1679 238.6508,-316.2461 238.6508,-316.2461"/>
<ellipse fill="none" stroke="#000000" cx="235.5111" cy="-316.8645" rx="3.2" ry="3.2"/>
</g>
<!-- project -->
<g id="node3" class="node">
<title>project</title>
<g id="a_node3"><a xlink:href="../../tables/project.html" xlink:title="project" target="_top">
<polygon fill="#ffffff" stroke="transparent" points="8,-38.2 8,-187.2 195,-187.2 195,-38.2 8,-38.2"/>
<polygon fill="#f5f5f5" stroke="transparent" points="8.5,-163.7 8.5,-186.7 195.5,-186.7 195.5,-163.7 8.5,-163.7"/>
<polygon fill="none" stroke="#000000" points="8.5,-163.7 8.5,-186.7 195.5,-186.7 195.5,-163.7 8.5,-163.7"/>
<text text-anchor="start" x="13.5" y="-172.8" font-family="Helvetica,sans-Serif" font-weight="bold" font-size="11.00" fill="#000000">project</text>
<text text-anchor="start" x="160.5437" y="-171.8" font-family="Helvetica,sans-Serif" font-size="11.00" fill="#000000">[table]</text>
<polygon fill="none" stroke="#000000" points="8.5,-141.7 8.5,-163.7 195.5,-163.7 195.5,-141.7 8.5,-141.7"/>
<image xlink:href="../../images/primaryKeys.png" width="11px" height="12px" preserveAspectRatio="xMinYMin meet" x="13.5" y="-158.7"/>
<text text-anchor="start" x="28.5" y="-148.8" font-family="Helvetica,sans-Serif" font-size="11.00" fill="#000000">id</text>
<polygon fill="#c0c0c0" stroke="transparent" points="8.5,-119.7 8.5,-141.7 195.5,-141.7 195.5,-119.7 8.5,-119.7"/>
<polygon fill="none" stroke="#000000" points="8.5,-119.7 8.5,-141.7 195.5,-141.7 195.5,-119.7 8.5,-119.7"/>
<image xlink:href="../../images/foreignKeys.png" width="11px" height="12px" preserveAspectRatio="xMinYMin meet" x="13.5" y="-136.7"/>
<text text-anchor="start" x="28.5" y="-126.8" font-family="Helvetica,sans-Serif" font-size="11.00" fill="#000000">assigned_user_id</text>
<polygon fill="#c0c0c0" stroke="transparent" points="8.5,-97.7 8.5,-119.7 195.5,-119.7 195.5,-97.7 8.5,-97.7"/>
<polygon fill="none" stroke="#000000" points="8.5,-97.7 8.5,-119.7 195.5,-119.7 195.5,-97.7 8.5,-97.7"/>
<image xlink:href="../../images/foreignKeys.png" width="11px" height="12px" preserveAspectRatio="xMinYMin meet" x="13.5" y="-114.7"/>
<text text-anchor="start" x="28.5" y="-104.8" font-family="Helvetica,sans-Serif" font-size="11.00" fill="#000000">modified_user_id</text>
<polygon fill="#c0c0c0" stroke="transparent" points="8.5,-75.7 8.5,-97.7 195.5,-97.7 195.5,-75.7 8.5,-75.7"/>
<polygon fill="none" stroke="#000000" points="8.5,-75.7 8.5,-97.7 195.5,-97.7 195.5,-75.7 8.5,-75.7"/>
<image xlink:href="../../images/foreignKeys.png" width="11px" height="12px" preserveAspectRatio="xMinYMin meet" x="13.5" y="-92.7"/>
<text text-anchor="start" x="28.5" y="-82.8" font-family="Helvetica,sans-Serif" font-size="11.00" fill="#000000">created_by</text>
<polygon fill="none" stroke="#000000" points="8.5,-56.7 8.5,-75.7 195.5,-75.7 195.5,-56.7 8.5,-56.7"/>
<text text-anchor="start" x="11.5" y="-62.8" font-family="Helvetica,sans-Serif" font-size="11.00" fill="#000000">...</text>
<polygon fill="#ffffff" stroke="transparent" points="8.5,-37.7 8.5,-56.7 92.5,-56.7 92.5,-37.7 8.5,-37.7"/>
<polygon fill="none" stroke="#000000" points="8.5,-37.7 8.5,-56.7 92.5,-56.7 92.5,-37.7 8.5,-37.7"/>
<text text-anchor="start" x="11.5" y="-43.8" font-family="Helvetica,sans-Serif" font-size="11.00" fill="#000000">&lt; 4</text>
<polygon fill="#ffffff" stroke="transparent" points="92.5,-37.7 92.5,-56.7 136.5,-56.7 136.5,-37.7 92.5,-37.7"/>
<polygon fill="none" stroke="#000000" points="92.5,-37.7 92.5,-56.7 136.5,-56.7 136.5,-37.7 92.5,-37.7"/>
<text text-anchor="start" x="127.3862" y="-43.8" font-family="Helvetica,sans-Serif" font-size="11.00" fill="#000000"> &#160;</text>
<polygon fill="#ffffff" stroke="transparent" points="136.5,-37.7 136.5,-56.7 195.5,-56.7 195.5,-37.7 136.5,-37.7"/>
<polygon fill="none" stroke="#000000" points="136.5,-37.7 136.5,-56.7 195.5,-56.7 195.5,-37.7 136.5,-37.7"/>
<text text-anchor="start" x="170.7904" y="-43.8" font-family="Helvetica,sans-Serif" font-size="11.00" fill="#000000">18 &gt;</text>
</a>
</g>
</g>
<!-- projects_cases&#45;&gt;project -->
<g id="edge2" class="edge">
<title>projects_cases:w&#45;&gt;project:e</title>
<path fill="none" stroke="#000000" d="M232.0127,-289.5129C193.7204,-268.6738 255.7726,-152.7 195.5,-152.7"/>
<polygon fill="#000000" stroke="#000000" points="238.6868,-290.9811 245.7265,-296.2159 242.5934,-291.8405 246.5,-292.7 246.5,-292.7 246.5,-292.7 242.5934,-291.8405 247.2735,-289.1841 238.6868,-290.9811 238.6868,-290.9811"/>
<ellipse fill="none" stroke="#000000" cx="235.5616" cy="-290.2935" rx="3.2" ry="3.2"/>
</g>
</g>
</svg>
