<?xml version="1.0" encoding="UTF-8" standalone="no"?>
<!DOCTYPE svg PUBLIC "-//W3C//DTD SVG 1.1//EN"
 "http://www.w3.org/Graphics/SVG/1.1/DTD/svg11.dtd">
<!-- Generated by graphviz version 2.40.1 (20161225.0304)
 -->
<!-- Title: oneDegreeRelationshipsDiagram Pages: 1 -->
<svg width="546pt" height="206pt"
 viewBox="0.00 0.00 546.00 206.20" xmlns="http://www.w3.org/2000/svg" xmlns:xlink="http://www.w3.org/1999/xlink">
<g id="graph0" class="graph" transform="scale(1 1) rotate(0) translate(4 202.2)">
<title>oneDegreeRelationshipsDiagram</title>
<polygon fill="#ffffff" stroke="transparent" points="-4,4 -4,-202.2 542,-202.2 542,4 -4,4"/>
<text text-anchor="middle" x="72.4936" y="-7.3" font-family="Helvetica,sans-Serif" font-size="11.00" fill="#000000">Generated by SchemaSpy</text>
<!-- project_cstm -->
<g id="node1" class="node">
<title>project_cstm</title>
<g id="a_node1"><a xlink:href="../../tables/project_cstm.html" xlink:title="project_cstm" target="_top">
<polygon fill="#ffffff" stroke="transparent" points="244,-38.2 244,-194.2 530,-194.2 530,-38.2 244,-38.2"/>
<polygon fill="#f5f5f5" stroke="transparent" points="246,-169.2 246,-192.2 528,-192.2 528,-169.2 246,-169.2"/>
<polygon fill="none" stroke="#000000" points="246,-169.2 246,-192.2 528,-192.2 528,-169.2 246,-169.2"/>
<text text-anchor="start" x="251" y="-178.3" font-family="Helvetica,sans-Serif" font-weight="bold" font-size="11.00" fill="#000000">project_cstm</text>
<text text-anchor="start" x="493.0437" y="-177.3" font-family="Helvetica,sans-Serif" font-size="11.00" fill="#000000">[table]</text>
<polygon fill="none" stroke="#000000" points="246,-147.2 246,-169.2 461,-169.2 461,-147.2 246,-147.2"/>
<image xlink:href="../../images/primaryKeys.png" width="11px" height="12px" preserveAspectRatio="xMinYMin meet" x="251" y="-164.2"/>
<text text-anchor="start" x="266" y="-154.3" font-family="Helvetica,sans-Serif" font-size="11.00" fill="#000000">id_c</text>
<polygon fill="none" stroke="#000000" points="461,-147.2 461,-169.2 528,-169.2 528,-147.2 461,-147.2"/>
<text text-anchor="start" x="464" y="-154.9" font-family="Helvetica,sans-Serif" font-size="11.00" fill="#000000">char[36]</text>
<polygon fill="none" stroke="#000000" points="246,-125.2 246,-147.2 461,-147.2 461,-125.2 246,-125.2"/>
<text text-anchor="start" x="266" y="-132.3" font-family="Helvetica,sans-Serif" font-size="11.00" fill="#000000">jjwg_maps_lng_c</text>
<polygon fill="none" stroke="#000000" points="461,-125.2 461,-147.2 528,-147.2 528,-125.2 461,-125.2"/>
<text text-anchor="start" x="464" y="-132.9" font-family="Helvetica,sans-Serif" font-size="11.00" fill="#000000">float[11,8]</text>
<polygon fill="none" stroke="#000000" points="246,-103.2 246,-125.2 461,-125.2 461,-103.2 246,-103.2"/>
<text text-anchor="start" x="266" y="-110.3" font-family="Helvetica,sans-Serif" font-size="11.00" fill="#000000">jjwg_maps_lat_c</text>
<polygon fill="none" stroke="#000000" points="461,-103.2 461,-125.2 528,-125.2 528,-103.2 461,-103.2"/>
<text text-anchor="start" x="464" y="-110.9" font-family="Helvetica,sans-Serif" font-size="11.00" fill="#000000">float[10,8]</text>
<polygon fill="none" stroke="#000000" points="246,-81.2 246,-103.2 461,-103.2 461,-81.2 246,-81.2"/>
<text text-anchor="start" x="266" y="-88.3" font-family="Helvetica,sans-Serif" font-size="11.00" fill="#000000">jjwg_maps_geocode_status_c</text>
<polygon fill="none" stroke="#000000" points="461,-81.2 461,-103.2 528,-103.2 528,-81.2 461,-81.2"/>
<text text-anchor="start" x="463.9365" y="-88.9" font-family="Helvetica,sans-Serif" font-size="11.00" fill="#000000">varchar[255]</text>
<polygon fill="none" stroke="#000000" points="246,-59.2 246,-81.2 461,-81.2 461,-59.2 246,-59.2"/>
<text text-anchor="start" x="266" y="-66.3" font-family="Helvetica,sans-Serif" font-size="11.00" fill="#000000">jjwg_maps_address_c</text>
<polygon fill="none" stroke="#000000" points="461,-59.2 461,-81.2 528,-81.2 528,-59.2 461,-59.2"/>
<text text-anchor="start" x="463.9365" y="-66.9" font-family="Helvetica,sans-Serif" font-size="11.00" fill="#000000">varchar[255]</text>
<polygon fill="#ffffff" stroke="transparent" points="246,-40.2 246,-59.2 358,-59.2 358,-40.2 246,-40.2"/>
<polygon fill="none" stroke="#000000" points="246,-40.2 246,-59.2 358,-59.2 358,-40.2 246,-40.2"/>
<text text-anchor="start" x="249" y="-46.3" font-family="Helvetica,sans-Serif" font-size="11.00" fill="#000000">&lt; 1</text>
<polygon fill="#ffffff" stroke="transparent" points="358,-40.2 358,-59.2 461,-59.2 461,-40.2 358,-40.2"/>
<polygon fill="none" stroke="#000000" points="358,-40.2 358,-59.2 461,-59.2 461,-40.2 358,-40.2"/>
<text text-anchor="start" x="451.8862" y="-46.3" font-family="Helvetica,sans-Serif" font-size="11.00" fill="#000000"> &#160;</text>
<polygon fill="#ffffff" stroke="transparent" points="461,-40.2 461,-59.2 528,-59.2 528,-40.2 461,-40.2"/>
<polygon fill="none" stroke="#000000" points="461,-40.2 461,-59.2 528,-59.2 528,-40.2 461,-40.2"/>
<text text-anchor="start" x="509.4053" y="-46.3" font-family="Helvetica,sans-Serif" font-size="11.00" fill="#000000">0 &gt;</text>
<polygon fill="none" stroke="#000000" stroke-width="2" points="245,-39.2 245,-193.2 529,-193.2 529,-39.2 245,-39.2"/>
</a>
</g>
</g>
<!-- project -->
<g id="node2" class="node">
<title>project</title>
<g id="a_node2"><a xlink:href="../../tables/project.html" xlink:title="project" target="_top">
<polygon fill="#ffffff" stroke="transparent" points="8,-43.7 8,-192.7 195,-192.7 195,-43.7 8,-43.7"/>
<polygon fill="#f5f5f5" stroke="transparent" points="8.5,-169.2 8.5,-192.2 195.5,-192.2 195.5,-169.2 8.5,-169.2"/>
<polygon fill="none" stroke="#000000" points="8.5,-169.2 8.5,-192.2 195.5,-192.2 195.5,-169.2 8.5,-169.2"/>
<text text-anchor="start" x="13.5" y="-178.3" font-family="Helvetica,sans-Serif" font-weight="bold" font-size="11.00" fill="#000000">project</text>
<text text-anchor="start" x="160.5437" y="-177.3" font-family="Helvetica,sans-Serif" font-size="11.00" fill="#000000">[table]</text>
<polygon fill="none" stroke="#000000" points="8.5,-147.2 8.5,-169.2 195.5,-169.2 195.5,-147.2 8.5,-147.2"/>
<image xlink:href="../../images/primaryKeys.png" width="11px" height="12px" preserveAspectRatio="xMinYMin meet" x="13.5" y="-164.2"/>
<text text-anchor="start" x="28.5" y="-154.3" font-family="Helvetica,sans-Serif" font-size="11.00" fill="#000000">id</text>
<polygon fill="#c0c0c0" stroke="transparent" points="8.5,-125.2 8.5,-147.2 195.5,-147.2 195.5,-125.2 8.5,-125.2"/>
<polygon fill="none" stroke="#000000" points="8.5,-125.2 8.5,-147.2 195.5,-147.2 195.5,-125.2 8.5,-125.2"/>
<image xlink:href="../../images/foreignKeys.png" width="11px" height="12px" preserveAspectRatio="xMinYMin meet" x="13.5" y="-142.2"/>
<text text-anchor="start" x="28.5" y="-132.3" font-family="Helvetica,sans-Serif" font-size="11.00" fill="#000000">assigned_user_id</text>
<polygon fill="#c0c0c0" stroke="transparent" points="8.5,-103.2 8.5,-125.2 195.5,-125.2 195.5,-103.2 8.5,-103.2"/>
<polygon fill="none" stroke="#000000" points="8.5,-103.2 8.5,-125.2 195.5,-125.2 195.5,-103.2 8.5,-103.2"/>
<image xlink:href="../../images/foreignKeys.png" width="11px" height="12px" preserveAspectRatio="xMinYMin meet" x="13.5" y="-120.2"/>
<text text-anchor="start" x="28.5" y="-110.3" font-family="Helvetica,sans-Serif" font-size="11.00" fill="#000000">modified_user_id</text>
<polygon fill="#c0c0c0" stroke="transparent" points="8.5,-81.2 8.5,-103.2 195.5,-103.2 195.5,-81.2 8.5,-81.2"/>
<polygon fill="none" stroke="#000000" points="8.5,-81.2 8.5,-103.2 195.5,-103.2 195.5,-81.2 8.5,-81.2"/>
<image xlink:href="../../images/foreignKeys.png" width="11px" height="12px" preserveAspectRatio="xMinYMin meet" x="13.5" y="-98.2"/>
<text text-anchor="start" x="28.5" y="-88.3" font-family="Helvetica,sans-Serif" font-size="11.00" fill="#000000">created_by</text>
<polygon fill="none" stroke="#000000" points="8.5,-62.2 8.5,-81.2 195.5,-81.2 195.5,-62.2 8.5,-62.2"/>
<text text-anchor="start" x="11.5" y="-68.3" font-family="Helvetica,sans-Serif" font-size="11.00" fill="#000000">...</text>
<polygon fill="#ffffff" stroke="transparent" points="8.5,-43.2 8.5,-62.2 92.5,-62.2 92.5,-43.2 8.5,-43.2"/>
<polygon fill="none" stroke="#000000" points="8.5,-43.2 8.5,-62.2 92.5,-62.2 92.5,-43.2 8.5,-43.2"/>
<text text-anchor="start" x="11.5" y="-49.3" font-family="Helvetica,sans-Serif" font-size="11.00" fill="#000000">&lt; 4</text>
<polygon fill="#ffffff" stroke="transparent" points="92.5,-43.2 92.5,-62.2 136.5,-62.2 136.5,-43.2 92.5,-43.2"/>
<polygon fill="none" stroke="#000000" points="92.5,-43.2 92.5,-62.2 136.5,-62.2 136.5,-43.2 92.5,-43.2"/>
<text text-anchor="start" x="127.3862" y="-49.3" font-family="Helvetica,sans-Serif" font-size="11.00" fill="#000000"> &#160;</text>
<polygon fill="#ffffff" stroke="transparent" points="136.5,-43.2 136.5,-62.2 195.5,-62.2 195.5,-43.2 136.5,-43.2"/>
<polygon fill="none" stroke="#000000" points="136.5,-43.2 136.5,-62.2 195.5,-62.2 195.5,-43.2 136.5,-43.2"/>
<text text-anchor="start" x="170.7904" y="-49.3" font-family="Helvetica,sans-Serif" font-size="11.00" fill="#000000">18 &gt;</text>
</a>
</g>
</g>
<!-- project_cstm&#45;&gt;project -->
<g id="edge1" class="edge">
<title>project_cstm:w&#45;&gt;project:e</title>
<path fill="none" stroke="#000000" d="M235.3362,-158.2C220.9956,-158.2 213.9115,-158.2 195.5,-158.2"/>
<polygon fill="#000000" stroke="#000000" points="245.2,-154.2 245.2,-162.2 243.6,-162.2 243.6,-154.2 245.2,-154.2"/>
<polyline fill="none" stroke="#000000" points="246,-158.2 242,-158.2 "/>
<ellipse fill="none" stroke="#000000" cx="238.8" cy="-158.2001" rx="3.2" ry="3.2"/>
</g>
</g>
</svg>
