<?xml version="1.0" encoding="UTF-8" standalone="no"?>
<!DOCTYPE svg PUBLIC "-//W3C//DTD SVG 1.1//EN"
 "http://www.w3.org/Graphics/SVG/1.1/DTD/svg11.dtd">
<!-- Generated by graphviz version 2.40.1 (20161225.0304)
 -->
<!-- Title: oneDegreeRelationshipsDiagram Pages: 1 -->
<svg width="473pt" height="413pt"
 viewBox="0.00 0.00 473.00 413.20" xmlns="http://www.w3.org/2000/svg" xmlns:xlink="http://www.w3.org/1999/xlink">
<g id="graph0" class="graph" transform="scale(1 1) rotate(0) translate(4 409.2)">
<title>oneDegreeRelationshipsDiagram</title>
<polygon fill="#ffffff" stroke="transparent" points="-4,4 -4,-409.2 469,-409.2 469,4 -4,4"/>
<text text-anchor="middle" x="72.4936" y="-7.3" font-family="Helvetica,sans-Serif" font-size="11.00" fill="#000000">Generated by SchemaSpy</text>
<!-- prospect_list_campaigns -->
<g id="node1" class="node">
<title>prospect_list_campaigns</title>
<g id="a_node1"><a xlink:href="../../tables/prospect_list_campaigns.html" xlink:title="prospect_list_campaigns" target="_top">
<polygon fill="#ffffff" stroke="transparent" points="201,-194.7 201,-350.7 457,-350.7 457,-194.7 201,-194.7"/>
<polygon fill="#f5f5f5" stroke="transparent" points="203,-325.7 203,-348.7 455,-348.7 455,-325.7 203,-325.7"/>
<polygon fill="none" stroke="#000000" points="203,-325.7 203,-348.7 455,-348.7 455,-325.7 203,-325.7"/>
<text text-anchor="start" x="208" y="-334.8" font-family="Helvetica,sans-Serif" font-weight="bold" font-size="11.00" fill="#000000">prospect_list_campaigns</text>
<text text-anchor="start" x="420.0437" y="-333.8" font-family="Helvetica,sans-Serif" font-size="11.00" fill="#000000">[table]</text>
<polygon fill="none" stroke="#000000" points="203,-303.7 203,-325.7 389,-325.7 389,-303.7 203,-303.7"/>
<image xlink:href="../../images/primaryKeys.png" width="11px" height="12px" preserveAspectRatio="xMinYMin meet" x="208" y="-320.7"/>
<text text-anchor="start" x="223" y="-310.8" font-family="Helvetica,sans-Serif" font-size="11.00" fill="#000000">id</text>
<polygon fill="none" stroke="#000000" points="389,-303.7 389,-325.7 455,-325.7 455,-303.7 389,-303.7"/>
<text text-anchor="start" x="392" y="-311.4" font-family="Helvetica,sans-Serif" font-size="11.00" fill="#000000">varchar[36]</text>
<polygon fill="#ffffff" stroke="transparent" points="203,-281.7 203,-303.7 389,-303.7 389,-281.7 203,-281.7"/>
<polygon fill="none" stroke="#000000" points="203,-281.7 203,-303.7 389,-303.7 389,-281.7 203,-281.7"/>
<image xlink:href="../../images/foreignKeys.png" width="11px" height="12px" preserveAspectRatio="xMinYMin meet" x="208" y="-298.7"/>
<text text-anchor="start" x="223" y="-288.8" font-family="Helvetica,sans-Serif" font-size="11.00" fill="#000000">prospect_list_id</text>
<polygon fill="none" stroke="#000000" points="389,-281.7 389,-303.7 455,-303.7 455,-281.7 389,-281.7"/>
<text text-anchor="start" x="392" y="-289.4" font-family="Helvetica,sans-Serif" font-size="11.00" fill="#000000">varchar[36]</text>
<polygon fill="#ffffff" stroke="transparent" points="203,-259.7 203,-281.7 389,-281.7 389,-259.7 203,-259.7"/>
<polygon fill="none" stroke="#000000" points="203,-259.7 203,-281.7 389,-281.7 389,-259.7 203,-259.7"/>
<image xlink:href="../../images/foreignKeys.png" width="11px" height="12px" preserveAspectRatio="xMinYMin meet" x="208" y="-276.7"/>
<text text-anchor="start" x="223" y="-266.8" font-family="Helvetica,sans-Serif" font-size="11.00" fill="#000000">campaign_id</text>
<polygon fill="none" stroke="#000000" points="389,-259.7 389,-281.7 455,-281.7 455,-259.7 389,-259.7"/>
<text text-anchor="start" x="392" y="-267.4" font-family="Helvetica,sans-Serif" font-size="11.00" fill="#000000">varchar[36]</text>
<polygon fill="none" stroke="#000000" points="203,-237.7 203,-259.7 389,-259.7 389,-237.7 203,-237.7"/>
<text text-anchor="start" x="223" y="-244.8" font-family="Helvetica,sans-Serif" font-size="11.00" fill="#000000">date_modified</text>
<polygon fill="none" stroke="#000000" points="389,-237.7 389,-259.7 455,-259.7 455,-237.7 389,-237.7"/>
<text text-anchor="start" x="391.7401" y="-245.4" font-family="Helvetica,sans-Serif" font-size="11.00" fill="#000000">datetime[26]</text>
<polygon fill="none" stroke="#000000" points="203,-215.7 203,-237.7 389,-237.7 389,-215.7 203,-215.7"/>
<text text-anchor="start" x="223" y="-222.8" font-family="Helvetica,sans-Serif" font-size="11.00" fill="#000000">deleted</text>
<polygon fill="none" stroke="#000000" points="389,-215.7 389,-237.7 455,-237.7 455,-215.7 389,-215.7"/>
<text text-anchor="start" x="392" y="-223.4" font-family="Helvetica,sans-Serif" font-size="11.00" fill="#000000">bit[1]</text>
<polygon fill="#ffffff" stroke="transparent" points="203,-196.7 203,-215.7 300,-215.7 300,-196.7 203,-196.7"/>
<polygon fill="none" stroke="#000000" points="203,-196.7 203,-215.7 300,-215.7 300,-196.7 203,-196.7"/>
<text text-anchor="start" x="206" y="-202.8" font-family="Helvetica,sans-Serif" font-size="11.00" fill="#000000">&lt; 2</text>
<polygon fill="#ffffff" stroke="transparent" points="300,-196.7 300,-215.7 389,-215.7 389,-196.7 300,-196.7"/>
<polygon fill="none" stroke="#000000" points="300,-196.7 300,-215.7 389,-215.7 389,-196.7 300,-196.7"/>
<text text-anchor="start" x="379.8862" y="-202.8" font-family="Helvetica,sans-Serif" font-size="11.00" fill="#000000"> &#160;</text>
<polygon fill="#ffffff" stroke="transparent" points="389,-196.7 389,-215.7 455,-215.7 455,-196.7 389,-196.7"/>
<polygon fill="none" stroke="#000000" points="389,-196.7 389,-215.7 455,-215.7 455,-196.7 389,-196.7"/>
<text text-anchor="start" x="436.4053" y="-202.8" font-family="Helvetica,sans-Serif" font-size="11.00" fill="#000000">0 &gt;</text>
<polygon fill="none" stroke="#000000" stroke-width="2" points="202,-195.7 202,-349.7 456,-349.7 456,-195.7 202,-195.7"/>
</a>
</g>
</g>
<!-- campaigns -->
<g id="node2" class="node">
<title>campaigns</title>
<g id="a_node2"><a xlink:href="../../tables/campaigns.html" xlink:title="campaigns" target="_top">
<polygon fill="#ffffff" stroke="transparent" points="8,-38.2 8,-253.2 152,-253.2 152,-38.2 8,-38.2"/>
<polygon fill="#f5f5f5" stroke="transparent" points="8,-229.7 8,-252.7 152,-252.7 152,-229.7 8,-229.7"/>
<polygon fill="none" stroke="#000000" points="8,-229.7 8,-252.7 152,-252.7 152,-229.7 8,-229.7"/>
<text text-anchor="start" x="13" y="-238.8" font-family="Helvetica,sans-Serif" font-weight="bold" font-size="11.00" fill="#000000">campaigns</text>
<text text-anchor="start" x="117.0437" y="-237.8" font-family="Helvetica,sans-Serif" font-size="11.00" fill="#000000">[table]</text>
<polygon fill="none" stroke="#000000" points="8,-207.7 8,-229.7 152,-229.7 152,-207.7 8,-207.7"/>
<image xlink:href="../../images/primaryKeys.png" width="11px" height="12px" preserveAspectRatio="xMinYMin meet" x="13" y="-224.7"/>
<text text-anchor="start" x="28" y="-214.8" font-family="Helvetica,sans-Serif" font-size="11.00" fill="#000000">id</text>
<polygon fill="#ffffff" stroke="transparent" points="8,-185.7 8,-207.7 152,-207.7 152,-185.7 8,-185.7"/>
<polygon fill="none" stroke="#000000" points="8,-185.7 8,-207.7 152,-207.7 152,-185.7 8,-185.7"/>
<text text-anchor="start" x="28" y="-192.8" font-family="Helvetica,sans-Serif" font-size="11.00" fill="#000000">name</text>
<polygon fill="#c0c0c0" stroke="transparent" points="8,-163.7 8,-185.7 152,-185.7 152,-163.7 8,-163.7"/>
<polygon fill="none" stroke="#000000" points="8,-163.7 8,-185.7 152,-185.7 152,-163.7 8,-163.7"/>
<image xlink:href="../../images/foreignKeys.png" width="11px" height="12px" preserveAspectRatio="xMinYMin meet" x="13" y="-180.7"/>
<text text-anchor="start" x="28" y="-170.8" font-family="Helvetica,sans-Serif" font-size="11.00" fill="#000000">modified_user_id</text>
<polygon fill="#c0c0c0" stroke="transparent" points="8,-141.7 8,-163.7 152,-163.7 152,-141.7 8,-141.7"/>
<polygon fill="none" stroke="#000000" points="8,-141.7 8,-163.7 152,-163.7 152,-141.7 8,-141.7"/>
<image xlink:href="../../images/foreignKeys.png" width="11px" height="12px" preserveAspectRatio="xMinYMin meet" x="13" y="-158.7"/>
<text text-anchor="start" x="28" y="-148.8" font-family="Helvetica,sans-Serif" font-size="11.00" fill="#000000">created_by</text>
<polygon fill="#c0c0c0" stroke="transparent" points="8,-119.7 8,-141.7 152,-141.7 152,-119.7 8,-119.7"/>
<polygon fill="none" stroke="#000000" points="8,-119.7 8,-141.7 152,-141.7 152,-119.7 8,-119.7"/>
<image xlink:href="../../images/foreignKeys.png" width="11px" height="12px" preserveAspectRatio="xMinYMin meet" x="13" y="-136.7"/>
<text text-anchor="start" x="28" y="-126.8" font-family="Helvetica,sans-Serif" font-size="11.00" fill="#000000">assigned_user_id</text>
<polygon fill="#ffffff" stroke="transparent" points="8,-97.7 8,-119.7 152,-119.7 152,-97.7 8,-97.7"/>
<polygon fill="none" stroke="#000000" points="8,-97.7 8,-119.7 152,-119.7 152,-97.7 8,-97.7"/>
<text text-anchor="start" x="28" y="-104.8" font-family="Helvetica,sans-Serif" font-size="11.00" fill="#000000">tracker_key</text>
<polygon fill="#ffffff" stroke="transparent" points="8,-75.7 8,-97.7 152,-97.7 152,-75.7 8,-75.7"/>
<polygon fill="none" stroke="#000000" points="8,-75.7 8,-97.7 152,-97.7 152,-75.7 8,-75.7"/>
<image xlink:href="../../images/foreignKeys.png" width="11px" height="12px" preserveAspectRatio="xMinYMin meet" x="13" y="-92.7"/>
<text text-anchor="start" x="28" y="-82.8" font-family="Helvetica,sans-Serif" font-size="11.00" fill="#000000">survey_id</text>
<polygon fill="none" stroke="#000000" points="8,-56.7 8,-75.7 152,-75.7 152,-56.7 8,-56.7"/>
<text text-anchor="start" x="11" y="-62.8" font-family="Helvetica,sans-Serif" font-size="11.00" fill="#000000">...</text>
<polygon fill="#ffffff" stroke="transparent" points="8,-37.7 8,-56.7 71,-56.7 71,-37.7 8,-37.7"/>
<polygon fill="none" stroke="#000000" points="8,-37.7 8,-56.7 71,-56.7 71,-37.7 8,-37.7"/>
<text text-anchor="start" x="11" y="-43.8" font-family="Helvetica,sans-Serif" font-size="11.00" fill="#000000">&lt; 4</text>
<polygon fill="#ffffff" stroke="transparent" points="71,-37.7 71,-56.7 104,-56.7 104,-37.7 71,-37.7"/>
<polygon fill="none" stroke="#000000" points="71,-37.7 71,-56.7 104,-56.7 104,-37.7 71,-37.7"/>
<text text-anchor="start" x="94.8862" y="-43.8" font-family="Helvetica,sans-Serif" font-size="11.00" fill="#000000"> &#160;</text>
<polygon fill="#ffffff" stroke="transparent" points="104,-37.7 104,-56.7 152,-56.7 152,-37.7 104,-37.7"/>
<polygon fill="none" stroke="#000000" points="104,-37.7 104,-56.7 152,-56.7 152,-37.7 104,-37.7"/>
<text text-anchor="start" x="127.2904" y="-43.8" font-family="Helvetica,sans-Serif" font-size="11.00" fill="#000000">13 &gt;</text>
</a>
</g>
</g>
<!-- prospect_list_campaigns&#45;&gt;campaigns -->
<g id="edge1" class="edge">
<title>prospect_list_campaigns:w&#45;&gt;campaigns:e</title>
<path fill="none" stroke="#000000" d="M189.0468,-265.9012C174.161,-253.0281 178.3017,-218.7 152,-218.7"/>
<polygon fill="#000000" stroke="#000000" points="195.4349,-268.0982 201.8292,-274.1043 199.2175,-269.3991 203,-270.7 203,-270.7 203,-270.7 199.2175,-269.3991 204.1708,-267.2957 195.4349,-268.0982 195.4349,-268.0982"/>
<ellipse fill="none" stroke="#000000" cx="192.4089" cy="-267.0574" rx="3.2" ry="3.2"/>
</g>
<!-- prospect_lists -->
<g id="node3" class="node">
<title>prospect_lists</title>
<g id="a_node3"><a xlink:href="../../tables/prospect_lists.html" xlink:title="prospect_lists" target="_top">
<polygon fill="#ffffff" stroke="transparent" points="12.5,-274.2 12.5,-401.2 147.5,-401.2 147.5,-274.2 12.5,-274.2"/>
<polygon fill="#f5f5f5" stroke="transparent" points="13,-377.7 13,-400.7 148,-400.7 148,-377.7 13,-377.7"/>
<polygon fill="none" stroke="#000000" points="13,-377.7 13,-400.7 148,-400.7 148,-377.7 13,-377.7"/>
<text text-anchor="start" x="18" y="-386.8" font-family="Helvetica,sans-Serif" font-weight="bold" font-size="11.00" fill="#000000">prospect_lists</text>
<text text-anchor="start" x="113.0437" y="-385.8" font-family="Helvetica,sans-Serif" font-size="11.00" fill="#000000">[table]</text>
<polygon fill="#c0c0c0" stroke="transparent" points="13,-355.7 13,-377.7 148,-377.7 148,-355.7 13,-355.7"/>
<polygon fill="none" stroke="#000000" points="13,-355.7 13,-377.7 148,-377.7 148,-355.7 13,-355.7"/>
<image xlink:href="../../images/foreignKeys.png" width="11px" height="12px" preserveAspectRatio="xMinYMin meet" x="18" y="-372.7"/>
<text text-anchor="start" x="33" y="-362.8" font-family="Helvetica,sans-Serif" font-size="11.00" fill="#000000">assigned_user_id</text>
<polygon fill="none" stroke="#000000" points="13,-333.7 13,-355.7 148,-355.7 148,-333.7 13,-333.7"/>
<image xlink:href="../../images/primaryKeys.png" width="11px" height="12px" preserveAspectRatio="xMinYMin meet" x="18" y="-350.7"/>
<text text-anchor="start" x="33" y="-340.8" font-family="Helvetica,sans-Serif" font-size="11.00" fill="#000000">id</text>
<polygon fill="#ffffff" stroke="transparent" points="13,-311.7 13,-333.7 148,-333.7 148,-311.7 13,-311.7"/>
<polygon fill="none" stroke="#000000" points="13,-311.7 13,-333.7 148,-333.7 148,-311.7 13,-311.7"/>
<text text-anchor="start" x="33" y="-318.8" font-family="Helvetica,sans-Serif" font-size="11.00" fill="#000000">name</text>
<polygon fill="none" stroke="#000000" points="13,-292.7 13,-311.7 148,-311.7 148,-292.7 13,-292.7"/>
<text text-anchor="start" x="16" y="-298.8" font-family="Helvetica,sans-Serif" font-size="11.00" fill="#000000">...</text>
<polygon fill="#ffffff" stroke="transparent" points="13,-273.7 13,-292.7 74,-292.7 74,-273.7 13,-273.7"/>
<polygon fill="none" stroke="#000000" points="13,-273.7 13,-292.7 74,-292.7 74,-273.7 13,-273.7"/>
<text text-anchor="start" x="16" y="-279.8" font-family="Helvetica,sans-Serif" font-size="11.00" fill="#000000">&lt; 1</text>
<polygon fill="#ffffff" stroke="transparent" points="74,-273.7 74,-292.7 106,-292.7 106,-273.7 74,-273.7"/>
<polygon fill="none" stroke="#000000" points="74,-273.7 74,-292.7 106,-292.7 106,-273.7 74,-273.7"/>
<text text-anchor="start" x="96.8862" y="-279.8" font-family="Helvetica,sans-Serif" font-size="11.00" fill="#000000"> &#160;</text>
<polygon fill="#ffffff" stroke="transparent" points="106,-273.7 106,-292.7 148,-292.7 148,-273.7 106,-273.7"/>
<polygon fill="none" stroke="#000000" points="106,-273.7 106,-292.7 148,-292.7 148,-273.7 106,-273.7"/>
<text text-anchor="start" x="129.4053" y="-279.8" font-family="Helvetica,sans-Serif" font-size="11.00" fill="#000000">4 &gt;</text>
</a>
</g>
</g>
<!-- prospect_list_campaigns&#45;&gt;prospect_lists -->
<g id="edge2" class="edge">
<title>prospect_list_campaigns:w&#45;&gt;prospect_lists:e</title>
<path fill="none" stroke="#000000" d="M188.781,-297.1335C172.2905,-309.7085 175.5954,-344.7 148,-344.7"/>
<polygon fill="#000000" stroke="#000000" points="195.3626,-295.0814 204.0716,-296.1368 199.1813,-293.8907 203,-292.7 203,-292.7 203,-292.7 199.1813,-293.8907 201.9284,-289.2632 195.3626,-295.0814 195.3626,-295.0814"/>
<ellipse fill="none" stroke="#000000" cx="192.3077" cy="-296.0339" rx="3.2" ry="3.2"/>
</g>
</g>
</svg>
