<?xml version="1.0" encoding="UTF-8" standalone="no"?>
<!DOCTYPE svg PUBLIC "-//W3C//DTD SVG 1.1//EN"
 "http://www.w3.org/Graphics/SVG/1.1/DTD/svg11.dtd">
<!-- Generated by graphviz version 2.40.1 (20161225.0304)
 -->
<!-- Title: twoDegreesRelationshipsDiagram Pages: 1 -->
<svg width="1260pt" height="828pt"
 viewBox="0.00 0.00 1260.00 827.57" xmlns="http://www.w3.org/2000/svg" xmlns:xlink="http://www.w3.org/1999/xlink">
<g id="graph0" class="graph" transform="scale(1 1) rotate(0) translate(4 823.5721)">
<title>twoDegreesRelationshipsDiagram</title>
<polygon fill="#ffffff" stroke="transparent" points="-4,4 -4,-823.5721 1256,-823.5721 1256,4 -4,4"/>
<text text-anchor="middle" x="72.4936" y="-7.3" font-family="Helvetica,sans-Serif" font-size="11.00" fill="#000000">Generated by SchemaSpy</text>
<!-- accounts -->
<g id="node1" class="node">
<title>accounts</title>
<g id="a_node1"><a xlink:href="../../tables/accounts.html" xlink:title="accounts" target="_top">
<polygon fill="#ffffff" stroke="transparent" points="349.5,-279.5721 349.5,-340.5721 436.5,-340.5721 436.5,-279.5721 349.5,-279.5721"/>
<polygon fill="#f5f5f5" stroke="transparent" points="350,-317.0721 350,-340.0721 437,-340.0721 437,-317.0721 350,-317.0721"/>
<polygon fill="none" stroke="#000000" points="350,-317.0721 350,-340.0721 437,-340.0721 437,-317.0721 350,-317.0721"/>
<text text-anchor="start" x="354.9918" y="-326.1721" font-family="Helvetica,sans-Serif" font-weight="bold" font-size="11.00" fill="#000000">accounts</text>
<text text-anchor="start" x="402.5219" y="-325.1721" font-family="Helvetica,sans-Serif" font-size="11.00" fill="#000000">[table]</text>
<polygon fill="none" stroke="#000000" points="350,-298.0721 350,-317.0721 437,-317.0721 437,-298.0721 350,-298.0721"/>
<text text-anchor="start" x="353" y="-304.1721" font-family="Helvetica,sans-Serif" font-size="11.00" fill="#000000">...</text>
<polygon fill="#ffffff" stroke="transparent" points="350,-279.0721 350,-298.0721 384,-298.0721 384,-279.0721 350,-279.0721"/>
<polygon fill="none" stroke="#000000" points="350,-279.0721 350,-298.0721 384,-298.0721 384,-279.0721 350,-279.0721"/>
<text text-anchor="start" x="353" y="-285.1721" font-family="Helvetica,sans-Serif" font-size="11.00" fill="#000000">&lt; 6</text>
<polygon fill="#ffffff" stroke="transparent" points="384,-279.0721 384,-298.0721 403,-298.0721 403,-279.0721 384,-279.0721"/>
<polygon fill="none" stroke="#000000" points="384,-279.0721 384,-298.0721 403,-298.0721 403,-279.0721 384,-279.0721"/>
<text text-anchor="start" x="393.8862" y="-285.1721" font-family="Helvetica,sans-Serif" font-size="11.00" fill="#000000"> &#160;</text>
<polygon fill="#ffffff" stroke="transparent" points="403,-279.0721 403,-298.0721 437,-298.0721 437,-279.0721 403,-279.0721"/>
<polygon fill="none" stroke="#000000" points="403,-279.0721 403,-298.0721 437,-298.0721 437,-279.0721 403,-279.0721"/>
<text text-anchor="start" x="412.2904" y="-285.1721" font-family="Helvetica,sans-Serif" font-size="11.00" fill="#000000">23 &gt;</text>
</a>
</g>
</g>
<!-- campaigns -->
<g id="node2" class="node">
<title>campaigns</title>
<g id="a_node2"><a xlink:href="../../tables/campaigns.html" xlink:title="campaigns" target="_top">
<polygon fill="#ffffff" stroke="transparent" points="137,-184.5721 137,-399.5721 281,-399.5721 281,-184.5721 137,-184.5721"/>
<polygon fill="#f5f5f5" stroke="transparent" points="137,-376.0721 137,-399.0721 281,-399.0721 281,-376.0721 137,-376.0721"/>
<polygon fill="none" stroke="#000000" points="137,-376.0721 137,-399.0721 281,-399.0721 281,-376.0721 137,-376.0721"/>
<text text-anchor="start" x="142" y="-385.1721" font-family="Helvetica,sans-Serif" font-weight="bold" font-size="11.00" fill="#000000">campaigns</text>
<text text-anchor="start" x="246.0437" y="-384.1721" font-family="Helvetica,sans-Serif" font-size="11.00" fill="#000000">[table]</text>
<polygon fill="none" stroke="#000000" points="137,-354.0721 137,-376.0721 281,-376.0721 281,-354.0721 137,-354.0721"/>
<image xlink:href="../../images/primaryKeys.png" width="11px" height="12px" preserveAspectRatio="xMinYMin meet" x="142" y="-371.072"/>
<text text-anchor="start" x="157" y="-361.1721" font-family="Helvetica,sans-Serif" font-size="11.00" fill="#000000">id</text>
<polygon fill="#ffffff" stroke="transparent" points="137,-332.0721 137,-354.0721 281,-354.0721 281,-332.0721 137,-332.0721"/>
<polygon fill="none" stroke="#000000" points="137,-332.0721 137,-354.0721 281,-354.0721 281,-332.0721 137,-332.0721"/>
<text text-anchor="start" x="157" y="-339.1721" font-family="Helvetica,sans-Serif" font-size="11.00" fill="#000000">name</text>
<polygon fill="#c0c0c0" stroke="transparent" points="137,-310.0721 137,-332.0721 281,-332.0721 281,-310.0721 137,-310.0721"/>
<polygon fill="none" stroke="#000000" points="137,-310.0721 137,-332.0721 281,-332.0721 281,-310.0721 137,-310.0721"/>
<image xlink:href="../../images/foreignKeys.png" width="11px" height="12px" preserveAspectRatio="xMinYMin meet" x="142" y="-327.072"/>
<text text-anchor="start" x="157" y="-317.1721" font-family="Helvetica,sans-Serif" font-size="11.00" fill="#000000">modified_user_id</text>
<polygon fill="#c0c0c0" stroke="transparent" points="137,-288.0721 137,-310.0721 281,-310.0721 281,-288.0721 137,-288.0721"/>
<polygon fill="none" stroke="#000000" points="137,-288.0721 137,-310.0721 281,-310.0721 281,-288.0721 137,-288.0721"/>
<image xlink:href="../../images/foreignKeys.png" width="11px" height="12px" preserveAspectRatio="xMinYMin meet" x="142" y="-305.072"/>
<text text-anchor="start" x="157" y="-295.1721" font-family="Helvetica,sans-Serif" font-size="11.00" fill="#000000">created_by</text>
<polygon fill="#c0c0c0" stroke="transparent" points="137,-266.0721 137,-288.0721 281,-288.0721 281,-266.0721 137,-266.0721"/>
<polygon fill="none" stroke="#000000" points="137,-266.0721 137,-288.0721 281,-288.0721 281,-266.0721 137,-266.0721"/>
<image xlink:href="../../images/foreignKeys.png" width="11px" height="12px" preserveAspectRatio="xMinYMin meet" x="142" y="-283.072"/>
<text text-anchor="start" x="157" y="-273.1721" font-family="Helvetica,sans-Serif" font-size="11.00" fill="#000000">assigned_user_id</text>
<polygon fill="#ffffff" stroke="transparent" points="137,-244.0721 137,-266.0721 281,-266.0721 281,-244.0721 137,-244.0721"/>
<polygon fill="none" stroke="#000000" points="137,-244.0721 137,-266.0721 281,-266.0721 281,-244.0721 137,-244.0721"/>
<text text-anchor="start" x="157" y="-251.1721" font-family="Helvetica,sans-Serif" font-size="11.00" fill="#000000">tracker_key</text>
<polygon fill="#ffffff" stroke="transparent" points="137,-222.0721 137,-244.0721 281,-244.0721 281,-222.0721 137,-222.0721"/>
<polygon fill="none" stroke="#000000" points="137,-222.0721 137,-244.0721 281,-244.0721 281,-222.0721 137,-222.0721"/>
<image xlink:href="../../images/foreignKeys.png" width="11px" height="12px" preserveAspectRatio="xMinYMin meet" x="142" y="-239.072"/>
<text text-anchor="start" x="157" y="-229.1721" font-family="Helvetica,sans-Serif" font-size="11.00" fill="#000000">survey_id</text>
<polygon fill="none" stroke="#000000" points="137,-203.0721 137,-222.0721 281,-222.0721 281,-203.0721 137,-203.0721"/>
<text text-anchor="start" x="140" y="-209.1721" font-family="Helvetica,sans-Serif" font-size="11.00" fill="#000000">...</text>
<polygon fill="#ffffff" stroke="transparent" points="137,-184.0721 137,-203.0721 200,-203.0721 200,-184.0721 137,-184.0721"/>
<polygon fill="none" stroke="#000000" points="137,-184.0721 137,-203.0721 200,-203.0721 200,-184.0721 137,-184.0721"/>
<text text-anchor="start" x="140" y="-190.1721" font-family="Helvetica,sans-Serif" font-size="11.00" fill="#000000">&lt; 4</text>
<polygon fill="#ffffff" stroke="transparent" points="200,-184.0721 200,-203.0721 233,-203.0721 233,-184.0721 200,-184.0721"/>
<polygon fill="none" stroke="#000000" points="200,-184.0721 200,-203.0721 233,-203.0721 233,-184.0721 200,-184.0721"/>
<text text-anchor="start" x="223.8862" y="-190.1721" font-family="Helvetica,sans-Serif" font-size="11.00" fill="#000000"> &#160;</text>
<polygon fill="#ffffff" stroke="transparent" points="233,-184.0721 233,-203.0721 281,-203.0721 281,-184.0721 233,-184.0721"/>
<polygon fill="none" stroke="#000000" points="233,-184.0721 233,-203.0721 281,-203.0721 281,-184.0721 233,-184.0721"/>
<text text-anchor="start" x="256.2904" y="-190.1721" font-family="Helvetica,sans-Serif" font-size="11.00" fill="#000000">13 &gt;</text>
</a>
</g>
</g>
<!-- accounts&#45;&gt;campaigns -->
<g id="edge1" class="edge">
<title>accounts:w&#45;&gt;campaigns:e</title>
<path fill="none" stroke="#000000" d="M335.8509,-310.1904C312.0546,-322.2376 315.428,-365.0721 281,-365.0721"/>
<polygon fill="#000000" stroke="#000000" points="342.1875,-308.7939 350.7748,-310.5877 346.0937,-307.933 350,-307.0721 350,-307.0721 350,-307.0721 346.0937,-307.933 349.2252,-303.5564 342.1875,-308.7939 342.1875,-308.7939"/>
<ellipse fill="none" stroke="#000000" cx="339.0625" cy="-309.4827" rx="3.2" ry="3.2"/>
</g>
<!-- surveys -->
<g id="node8" class="node">
<title>surveys</title>
<g id="a_node8"><a xlink:href="../../tables/surveys.html" xlink:title="surveys" target="_top">
<polygon fill="#ffffff" stroke="transparent" points="8,-59.5721 8,-120.5721 88,-120.5721 88,-59.5721 8,-59.5721"/>
<polygon fill="#f5f5f5" stroke="transparent" points="8,-97.0721 8,-120.0721 88,-120.0721 88,-97.0721 8,-97.0721"/>
<polygon fill="none" stroke="#000000" points="8,-97.0721 8,-120.0721 88,-120.0721 88,-97.0721 8,-97.0721"/>
<text text-anchor="start" x="12.5542" y="-106.1721" font-family="Helvetica,sans-Serif" font-weight="bold" font-size="11.00" fill="#000000">surveys</text>
<text text-anchor="start" x="53.5219" y="-105.1721" font-family="Helvetica,sans-Serif" font-size="11.00" fill="#000000">[table]</text>
<polygon fill="none" stroke="#000000" points="8,-78.0721 8,-97.0721 88,-97.0721 88,-78.0721 8,-78.0721"/>
<text text-anchor="start" x="11" y="-84.1721" font-family="Helvetica,sans-Serif" font-size="11.00" fill="#000000">...</text>
<polygon fill="#ffffff" stroke="transparent" points="8,-59.0721 8,-78.0721 42,-78.0721 42,-59.0721 8,-59.0721"/>
<polygon fill="none" stroke="#000000" points="8,-59.0721 8,-78.0721 42,-78.0721 42,-59.0721 8,-59.0721"/>
<text text-anchor="start" x="11" y="-65.1721" font-family="Helvetica,sans-Serif" font-size="11.00" fill="#000000">&lt; 3</text>
<polygon fill="#ffffff" stroke="transparent" points="42,-59.0721 42,-78.0721 60,-78.0721 60,-59.0721 42,-59.0721"/>
<polygon fill="none" stroke="#000000" points="42,-59.0721 42,-78.0721 60,-78.0721 60,-59.0721 42,-59.0721"/>
<text text-anchor="start" x="50.8862" y="-65.1721" font-family="Helvetica,sans-Serif" font-size="11.00" fill="#000000"> &#160;</text>
<polygon fill="#ffffff" stroke="transparent" points="60,-59.0721 60,-78.0721 88,-78.0721 88,-59.0721 60,-59.0721"/>
<polygon fill="none" stroke="#000000" points="60,-59.0721 60,-78.0721 88,-78.0721 88,-59.0721 60,-59.0721"/>
<text text-anchor="start" x="69.4053" y="-65.1721" font-family="Helvetica,sans-Serif" font-size="11.00" fill="#000000">5 &gt;</text>
</a>
</g>
</g>
<!-- campaigns&#45;&gt;surveys -->
<g id="edge8" class="edge">
<title>campaigns:w&#45;&gt;surveys:e</title>
<path fill="none" stroke="#000000" d="M122.8777,-230.1557C82.2145,-209.5784 150.6975,-87.0721 88,-87.0721"/>
<polygon fill="#000000" stroke="#000000" points="129.1653,-231.4541 136.2719,-236.5977 133.0827,-232.2631 137,-233.0721 137,-233.0721 137,-233.0721 133.0827,-232.2631 137.7281,-229.5465 129.1653,-231.4541 129.1653,-231.4541"/>
<ellipse fill="none" stroke="#000000" cx="126.0314" cy="-230.8069" rx="3.2" ry="3.2"/>
</g>
<!-- campaign_log -->
<g id="node3" class="node">
<title>campaign_log</title>
<g id="a_node3"><a xlink:href="../../tables/campaign_log.html" xlink:title="campaign_log" target="_top">
<polygon fill="#ffffff" stroke="transparent" points="644,-305.5721 644,-366.5721 755,-366.5721 755,-305.5721 644,-305.5721"/>
<polygon fill="#f5f5f5" stroke="transparent" points="644.5,-343.0721 644.5,-366.0721 755.5,-366.0721 755.5,-343.0721 644.5,-343.0721"/>
<polygon fill="none" stroke="#000000" points="644.5,-343.0721 644.5,-366.0721 755.5,-366.0721 755.5,-343.0721 644.5,-343.0721"/>
<text text-anchor="start" x="649.2686" y="-352.1721" font-family="Helvetica,sans-Serif" font-weight="bold" font-size="11.00" fill="#000000">campaign_log</text>
<text text-anchor="start" x="721.0219" y="-351.1721" font-family="Helvetica,sans-Serif" font-size="11.00" fill="#000000">[table]</text>
<polygon fill="none" stroke="#000000" points="644.5,-324.0721 644.5,-343.0721 755.5,-343.0721 755.5,-324.0721 644.5,-324.0721"/>
<text text-anchor="start" x="647.5" y="-330.1721" font-family="Helvetica,sans-Serif" font-size="11.00" fill="#000000">...</text>
<polygon fill="#ffffff" stroke="transparent" points="644.5,-305.0721 644.5,-324.0721 693.5,-324.0721 693.5,-305.0721 644.5,-305.0721"/>
<polygon fill="none" stroke="#000000" points="644.5,-305.0721 644.5,-324.0721 693.5,-324.0721 693.5,-305.0721 644.5,-305.0721"/>
<text text-anchor="start" x="647.5" y="-311.1721" font-family="Helvetica,sans-Serif" font-size="11.00" fill="#000000">&lt; 5</text>
<polygon fill="#ffffff" stroke="transparent" points="693.5,-305.0721 693.5,-324.0721 719.5,-324.0721 719.5,-305.0721 693.5,-305.0721"/>
<polygon fill="none" stroke="#000000" points="693.5,-305.0721 693.5,-324.0721 719.5,-324.0721 719.5,-305.0721 693.5,-305.0721"/>
<text text-anchor="start" x="710.3862" y="-311.1721" font-family="Helvetica,sans-Serif" font-size="11.00" fill="#000000"> &#160;</text>
<polygon fill="#ffffff" stroke="transparent" points="719.5,-305.0721 719.5,-324.0721 755.5,-324.0721 755.5,-305.0721 719.5,-305.0721"/>
<polygon fill="none" stroke="#000000" points="719.5,-305.0721 719.5,-324.0721 755.5,-324.0721 755.5,-305.0721 719.5,-305.0721"/>
<text text-anchor="start" x="736.9053" y="-311.1721" font-family="Helvetica,sans-Serif" font-size="11.00" fill="#000000">5 &gt;</text>
</a>
</g>
</g>
<!-- campaign_log&#45;&gt;accounts -->
<g id="edge3" class="edge">
<title>campaign_log:w&#45;&gt;accounts:e</title>
<path fill="none" stroke="#000000" d="M629.9299,-333.0131C575.7969,-332.5427 556.9813,-329.1765 497,-320.0721 470.0236,-315.9774 464.2854,-307.0721 437,-307.0721"/>
<polygon fill="#000000" stroke="#000000" points="636.5001,-333.0396 644.4854,-336.672 640.5,-333.0559 644.5,-333.0721 644.5,-333.0721 644.5,-333.0721 640.5,-333.0559 644.5146,-329.4721 636.5001,-333.0396 636.5001,-333.0396"/>
<ellipse fill="none" stroke="#000000" cx="633.3001" cy="-333.0267" rx="3.2" ry="3.2"/>
</g>
<!-- campaign_log&#45;&gt;campaigns -->
<g id="edge2" class="edge">
<title>campaign_log:w&#45;&gt;campaigns:e</title>
<path fill="none" stroke="#000000" d="M630.1119,-333.9038C588.2371,-337.2399 481.3323,-349.5451 464,-351.0721 382.7437,-358.2308 362.571,-365.0721 281,-365.0721"/>
<polygon fill="#000000" stroke="#000000" points="636.5133,-333.5338 644.7078,-336.6661 640.5067,-333.3029 644.5,-333.0721 644.5,-333.0721 644.5,-333.0721 640.5067,-333.3029 644.2922,-329.4781 636.5133,-333.5338 636.5133,-333.5338"/>
<ellipse fill="none" stroke="#000000" cx="633.3187" cy="-333.7185" rx="3.2" ry="3.2"/>
</g>
<!-- contacts -->
<g id="node4" class="node">
<title>contacts</title>
<g id="a_node4"><a xlink:href="../../tables/contacts.html" xlink:title="contacts" target="_top">
<polygon fill="#ffffff" stroke="transparent" points="830,-305.5721 830,-366.5721 913,-366.5721 913,-305.5721 830,-305.5721"/>
<polygon fill="#f5f5f5" stroke="transparent" points="830.5,-343.0721 830.5,-366.0721 913.5,-366.0721 913.5,-343.0721 830.5,-343.0721"/>
<polygon fill="none" stroke="#000000" points="830.5,-343.0721 830.5,-366.0721 913.5,-366.0721 913.5,-343.0721 830.5,-343.0721"/>
<text text-anchor="start" x="835.0208" y="-352.1721" font-family="Helvetica,sans-Serif" font-weight="bold" font-size="11.00" fill="#000000">contacts</text>
<text text-anchor="start" x="879.0219" y="-351.1721" font-family="Helvetica,sans-Serif" font-size="11.00" fill="#000000">[table]</text>
<polygon fill="none" stroke="#000000" points="830.5,-324.0721 830.5,-343.0721 913.5,-343.0721 913.5,-324.0721 830.5,-324.0721"/>
<text text-anchor="start" x="833.5" y="-330.1721" font-family="Helvetica,sans-Serif" font-size="11.00" fill="#000000">...</text>
<polygon fill="#ffffff" stroke="transparent" points="830.5,-305.0721 830.5,-324.0721 862.5,-324.0721 862.5,-305.0721 830.5,-305.0721"/>
<polygon fill="none" stroke="#000000" points="830.5,-305.0721 830.5,-324.0721 862.5,-324.0721 862.5,-305.0721 830.5,-305.0721"/>
<text text-anchor="start" x="833.5" y="-311.1721" font-family="Helvetica,sans-Serif" font-size="11.00" fill="#000000">&lt; 7</text>
<polygon fill="#ffffff" stroke="transparent" points="862.5,-305.0721 862.5,-324.0721 880.5,-324.0721 880.5,-305.0721 862.5,-305.0721"/>
<polygon fill="none" stroke="#000000" points="862.5,-305.0721 862.5,-324.0721 880.5,-324.0721 880.5,-305.0721 862.5,-305.0721"/>
<text text-anchor="start" x="871.3862" y="-311.1721" font-family="Helvetica,sans-Serif" font-size="11.00" fill="#000000"> &#160;</text>
<polygon fill="#ffffff" stroke="transparent" points="880.5,-305.0721 880.5,-324.0721 913.5,-324.0721 913.5,-305.0721 880.5,-305.0721"/>
<polygon fill="none" stroke="#000000" points="880.5,-305.0721 880.5,-324.0721 913.5,-324.0721 913.5,-305.0721 880.5,-305.0721"/>
<text text-anchor="start" x="888.7904" y="-311.1721" font-family="Helvetica,sans-Serif" font-size="11.00" fill="#000000">30 &gt;</text>
</a>
</g>
</g>
<!-- campaign_log&#45;&gt;contacts -->
<g id="edge4" class="edge">
<title>campaign_log:w&#45;&gt;contacts:e</title>
<path fill="none" stroke="#000000" d="M635.4984,-321.6529C635.8329,-314.8919 639.3956,-306.6765 644.5,-301.5721 655.0673,-291.0047 902.9327,-291.0047 913.5,-301.5721 923.3995,-311.4716 927.5,-333.0721 913.5,-333.0721"/>
<polygon fill="#000000" stroke="#000000" points="639.5474,-326.7894 641.6728,-335.3007 642.0237,-329.9307 644.5,-333.0721 644.5,-333.0721 644.5,-333.0721 642.0237,-329.9307 647.3272,-330.8434 639.5474,-326.7894 639.5474,-326.7894"/>
<ellipse fill="none" stroke="#000000" cx="637.5664" cy="-324.2763" rx="3.2" ry="3.2"/>
</g>
<!-- leads -->
<g id="node5" class="node">
<title>leads</title>
<g id="a_node5"><a xlink:href="../../tables/leads.html" xlink:title="leads" target="_top">
<polygon fill="#ffffff" stroke="transparent" points="515.5,-224.5721 515.5,-285.5721 584.5,-285.5721 584.5,-224.5721 515.5,-224.5721"/>
<polygon fill="#f5f5f5" stroke="transparent" points="516,-262.0721 516,-285.0721 585,-285.0721 585,-262.0721 516,-262.0721"/>
<polygon fill="none" stroke="#000000" points="516,-262.0721 516,-285.0721 585,-285.0721 585,-262.0721 516,-262.0721"/>
<text text-anchor="start" x="520.8572" y="-271.1721" font-family="Helvetica,sans-Serif" font-weight="bold" font-size="11.00" fill="#000000">leads</text>
<text text-anchor="start" x="550.5219" y="-270.1721" font-family="Helvetica,sans-Serif" font-size="11.00" fill="#000000">[table]</text>
<polygon fill="none" stroke="#000000" points="516,-243.0721 516,-262.0721 585,-262.0721 585,-243.0721 516,-243.0721"/>
<text text-anchor="start" x="519" y="-249.1721" font-family="Helvetica,sans-Serif" font-size="11.00" fill="#000000">...</text>
<polygon fill="#ffffff" stroke="transparent" points="516,-224.0721 516,-243.0721 544,-243.0721 544,-224.0721 516,-224.0721"/>
<polygon fill="none" stroke="#000000" points="516,-224.0721 516,-243.0721 544,-243.0721 544,-224.0721 516,-224.0721"/>
<text text-anchor="start" x="519" y="-230.1721" font-family="Helvetica,sans-Serif" font-size="11.00" fill="#000000">&lt; 10</text>
<polygon fill="#ffffff" stroke="transparent" points="544,-224.0721 544,-243.0721 557,-243.0721 557,-224.0721 544,-224.0721"/>
<polygon fill="none" stroke="#000000" points="544,-224.0721 544,-243.0721 557,-243.0721 557,-224.0721 544,-224.0721"/>
<text text-anchor="start" x="547.8862" y="-230.1721" font-family="Helvetica,sans-Serif" font-size="11.00" fill="#000000"> &#160;</text>
<polygon fill="#ffffff" stroke="transparent" points="557,-224.0721 557,-243.0721 585,-243.0721 585,-224.0721 557,-224.0721"/>
<polygon fill="none" stroke="#000000" points="557,-224.0721 557,-243.0721 585,-243.0721 585,-224.0721 557,-224.0721"/>
<text text-anchor="start" x="560.2904" y="-230.1721" font-family="Helvetica,sans-Serif" font-size="11.00" fill="#000000">17 &gt;</text>
</a>
</g>
</g>
<!-- campaign_log&#45;&gt;leads -->
<g id="edge5" class="edge">
<title>campaign_log:w&#45;&gt;leads:e</title>
<path fill="none" stroke="#000000" d="M630.2959,-329.1653C606.4425,-312.9852 623.7363,-252.0721 585,-252.0721"/>
<polygon fill="#000000" stroke="#000000" points="636.7864,-330.9504 643.5453,-336.5432 640.6432,-332.0112 644.5,-333.0721 644.5,-333.0721 644.5,-333.0721 640.6432,-332.0112 645.4547,-329.601 636.7864,-330.9504 636.7864,-330.9504"/>
<ellipse fill="none" stroke="#000000" cx="633.701" cy="-330.1018" rx="3.2" ry="3.2"/>
</g>
<!-- prospects -->
<g id="node6" class="node">
<title>prospects</title>
<g id="a_node6"><a xlink:href="../../tables/prospects.html" xlink:title="prospects" target="_top">
<polygon fill="#ffffff" stroke="transparent" points="505,-415.5721 505,-476.5721 595,-476.5721 595,-415.5721 505,-415.5721"/>
<polygon fill="#f5f5f5" stroke="transparent" points="505,-453.0721 505,-476.0721 595,-476.0721 595,-453.0721 505,-453.0721"/>
<polygon fill="none" stroke="#000000" points="505,-453.0721 505,-476.0721 595,-476.0721 595,-453.0721 505,-453.0721"/>
<text text-anchor="start" x="509.6608" y="-462.1721" font-family="Helvetica,sans-Serif" font-weight="bold" font-size="11.00" fill="#000000">prospects</text>
<text text-anchor="start" x="560.5219" y="-461.1721" font-family="Helvetica,sans-Serif" font-size="11.00" fill="#000000">[table]</text>
<polygon fill="none" stroke="#000000" points="505,-434.0721 505,-453.0721 595,-453.0721 595,-434.0721 505,-434.0721"/>
<text text-anchor="start" x="508" y="-440.1721" font-family="Helvetica,sans-Serif" font-size="11.00" fill="#000000">...</text>
<polygon fill="#ffffff" stroke="transparent" points="505,-415.0721 505,-434.0721 541,-434.0721 541,-415.0721 505,-415.0721"/>
<polygon fill="none" stroke="#000000" points="505,-415.0721 505,-434.0721 541,-434.0721 541,-415.0721 505,-415.0721"/>
<text text-anchor="start" x="508" y="-421.1721" font-family="Helvetica,sans-Serif" font-size="11.00" fill="#000000">&lt; 5</text>
<polygon fill="#ffffff" stroke="transparent" points="541,-415.0721 541,-434.0721 560,-434.0721 560,-415.0721 541,-415.0721"/>
<polygon fill="none" stroke="#000000" points="541,-415.0721 541,-434.0721 560,-434.0721 560,-415.0721 541,-415.0721"/>
<text text-anchor="start" x="550.8862" y="-421.1721" font-family="Helvetica,sans-Serif" font-size="11.00" fill="#000000"> &#160;</text>
<polygon fill="#ffffff" stroke="transparent" points="560,-415.0721 560,-434.0721 595,-434.0721 595,-415.0721 560,-415.0721"/>
<polygon fill="none" stroke="#000000" points="560,-415.0721 560,-434.0721 595,-434.0721 595,-415.0721 560,-415.0721"/>
<text text-anchor="start" x="570.2904" y="-421.1721" font-family="Helvetica,sans-Serif" font-size="11.00" fill="#000000">12 &gt;</text>
</a>
</g>
</g>
<!-- campaign_log&#45;&gt;prospects -->
<g id="edge6" class="edge">
<title>campaign_log:w&#45;&gt;prospects:e</title>
<path fill="none" stroke="#000000" d="M630.2431,-336.987C602.538,-356.5823 642.5377,-443.0721 595,-443.0721"/>
<polygon fill="#000000" stroke="#000000" points="636.7856,-335.1905 645.4533,-336.5436 640.6428,-334.1313 644.5,-333.0721 644.5,-333.0721 644.5,-333.0721 640.6428,-334.1313 643.5467,-329.6006 636.7856,-335.1905 636.7856,-335.1905"/>
<ellipse fill="none" stroke="#000000" cx="633.6998" cy="-336.0379" rx="3.2" ry="3.2"/>
</g>
<!-- contacts&#45;&gt;campaigns -->
<g id="edge9" class="edge">
<title>contacts:w&#45;&gt;campaigns:e</title>
<path fill="none" stroke="#000000" d="M816.2421,-335.3287C794.6111,-343.0583 791.9638,-368.4655 763,-377.0721 708.8937,-393.1496 692.4373,-377.9705 636,-377.0721 496.3914,-374.8496 461.513,-372.696 322,-367.0721 303.7709,-366.3372 299.2439,-365.0721 281,-365.0721"/>
<polygon fill="#000000" stroke="#000000" points="822.5984,-334.3227 831.0628,-336.6278 826.5492,-333.6974 830.5,-333.0721 830.5,-333.0721 830.5,-333.0721 826.5492,-333.6974 829.9372,-329.5163 822.5984,-334.3227 822.5984,-334.3227"/>
<ellipse fill="none" stroke="#000000" cx="819.4377" cy="-334.823" rx="3.2" ry="3.2"/>
</g>
<!-- contacts&#45;&gt;campaign_log -->
<g id="edge10" class="edge">
<title>contacts:w&#45;&gt;campaign_log:e</title>
<path fill="none" stroke="#000000" d="M820.0616,-333.0721C794.9578,-333.0721 785.0573,-333.0721 755.5,-333.0721"/>
<polygon fill="#000000" stroke="#000000" points="829.7,-329.0721 829.7,-337.0721 828.1,-337.0721 828.1,-329.0721 829.7,-329.0721"/>
<polyline fill="none" stroke="#000000" points="830.5,-333.0721 826.5,-333.0721 "/>
<ellipse fill="none" stroke="#000000" cx="823.3" cy="-333.0721" rx="3.2" ry="3.2"/>
</g>
<!-- leads&#45;&gt;accounts -->
<g id="edge15" class="edge">
<title>leads:w&#45;&gt;accounts:e</title>
<path fill="none" stroke="#000000" d="M501.7039,-254.5782C474.0902,-265.3378 474.2674,-307.0721 437,-307.0721"/>
<polygon fill="#000000" stroke="#000000" points="508.1202,-253.4535 516.6216,-255.618 512.0601,-252.7628 516,-252.0721 516,-252.0721 516,-252.0721 512.0601,-252.7628 515.3784,-248.5261 508.1202,-253.4535 508.1202,-253.4535"/>
<ellipse fill="none" stroke="#000000" cx="504.9682" cy="-254.006" rx="3.2" ry="3.2"/>
</g>
<!-- leads&#45;&gt;campaigns -->
<g id="edge16" class="edge">
<title>leads:w&#45;&gt;campaigns:e</title>
<path fill="none" stroke="#000000" d="M501.3923,-251.871C450.8979,-250.7536 353.6159,-246.1517 322,-269.0721 284.4375,-296.3035 327.395,-365.0721 281,-365.0721"/>
<polygon fill="#000000" stroke="#000000" points="508.0008,-251.9619 515.9504,-255.6717 512.0004,-252.017 516,-252.0721 516,-252.0721 516,-252.0721 512.0004,-252.017 516.0496,-248.4724 508.0008,-251.9619 508.0008,-251.9619"/>
<ellipse fill="none" stroke="#000000" cx="504.8011" cy="-251.9179" rx="3.2" ry="3.2"/>
</g>
<!-- leads&#45;&gt;campaign_log -->
<g id="edge18" class="edge">
<title>leads:w&#45;&gt;campaign_log:e</title>
<path fill="none" stroke="#000000" d="M525.6888,-248.0826C546.2739,-239.6064 592.5,-220.5721 592.5,-220.5721 624.378,-238.2269 605.0052,-270.9089 636,-290.0721 658.6915,-304.1015 737.5619,-281.8248 755.5,-301.5721 764.9134,-311.9349 769.5,-333.0721 755.5,-333.0721"/>
<polygon fill="#000000" stroke="#000000" points="518.2628,-255.4662 515.2167,-248.0687 516.6962,-247.4595 519.7423,-254.857 518.2628,-255.4662"/>
<polyline fill="none" stroke="#000000" points="516,-252.0721 519.6987,-250.549 "/>
<ellipse fill="none" stroke="#000000" cx="522.6577" cy="-249.3306" rx="3.2" ry="3.2"/>
</g>
<!-- leads&#45;&gt;contacts -->
<g id="edge17" class="edge">
<title>leads:w&#45;&gt;contacts:e</title>
<path fill="none" stroke="#000000" d="M529.3253,-246.5852C551.243,-237.5602 592.5,-220.5721 592.5,-220.5721 617.7602,-231.0352 611.4989,-251.9373 636,-264.0721 691.7627,-291.6899 872.5509,-254.7171 913.5,-301.5721 922.7128,-312.1136 927.5,-333.0721 913.5,-333.0721"/>
<polygon fill="#000000" stroke="#000000" points="523.3974,-249.026 514.6293,-248.7432 519.6987,-250.549 516,-252.0721 516,-252.0721 516,-252.0721 519.6987,-250.549 517.3707,-255.4009 523.3974,-249.026 523.3974,-249.026"/>
<ellipse fill="none" stroke="#000000" cx="526.3564" cy="-247.8076" rx="3.2" ry="3.2"/>
</g>
<!-- opportunities -->
<g id="node13" class="node">
<title>opportunities</title>
<g id="a_node13"><a xlink:href="../../tables/opportunities.html" xlink:title="opportunities" target="_top">
<polygon fill="#ffffff" stroke="transparent" points="340.5,-169.5721 340.5,-230.5721 445.5,-230.5721 445.5,-169.5721 340.5,-169.5721"/>
<polygon fill="#f5f5f5" stroke="transparent" points="341,-207.0721 341,-230.0721 446,-230.0721 446,-207.0721 341,-207.0721"/>
<polygon fill="none" stroke="#000000" points="341,-207.0721 341,-230.0721 446,-230.0721 446,-207.0721 341,-207.0721"/>
<text text-anchor="start" x="345.5191" y="-216.1721" font-family="Helvetica,sans-Serif" font-weight="bold" font-size="11.00" fill="#000000">opportunities</text>
<text text-anchor="start" x="411.5219" y="-215.1721" font-family="Helvetica,sans-Serif" font-size="11.00" fill="#000000">[table]</text>
<polygon fill="none" stroke="#000000" points="341,-188.0721 341,-207.0721 446,-207.0721 446,-188.0721 341,-188.0721"/>
<text text-anchor="start" x="344" y="-194.1721" font-family="Helvetica,sans-Serif" font-size="11.00" fill="#000000">...</text>
<polygon fill="#ffffff" stroke="transparent" points="341,-169.0721 341,-188.0721 384,-188.0721 384,-169.0721 341,-169.0721"/>
<polygon fill="none" stroke="#000000" points="341,-169.0721 341,-188.0721 384,-188.0721 384,-169.0721 341,-169.0721"/>
<text text-anchor="start" x="344" y="-175.1721" font-family="Helvetica,sans-Serif" font-size="11.00" fill="#000000">&lt; 6</text>
<polygon fill="#ffffff" stroke="transparent" points="384,-169.0721 384,-188.0721 407,-188.0721 407,-169.0721 384,-169.0721"/>
<polygon fill="none" stroke="#000000" points="384,-169.0721 384,-188.0721 407,-188.0721 407,-169.0721 384,-169.0721"/>
<text text-anchor="start" x="397.8862" y="-175.1721" font-family="Helvetica,sans-Serif" font-size="11.00" fill="#000000"> &#160;</text>
<polygon fill="#ffffff" stroke="transparent" points="407,-169.0721 407,-188.0721 446,-188.0721 446,-169.0721 407,-169.0721"/>
<polygon fill="none" stroke="#000000" points="407,-169.0721 407,-188.0721 446,-188.0721 446,-169.0721 407,-169.0721"/>
<text text-anchor="start" x="421.2904" y="-175.1721" font-family="Helvetica,sans-Serif" font-size="11.00" fill="#000000">17 &gt;</text>
</a>
</g>
</g>
<!-- leads&#45;&gt;opportunities -->
<g id="edge19" class="edge">
<title>leads:w&#45;&gt;opportunities:e</title>
<path fill="none" stroke="#000000" d="M501.6023,-248.9574C478.0567,-237.3225 479.8471,-197.0721 446,-197.0721"/>
<polygon fill="#000000" stroke="#000000" points="508.1809,-250.3805 515.2388,-255.5907 512.0904,-251.2263 516,-252.0721 516,-252.0721 516,-252.0721 512.0904,-251.2263 516.7612,-248.5535 508.1809,-250.3805 508.1809,-250.3805"/>
<ellipse fill="none" stroke="#000000" cx="505.0532" cy="-249.7039" rx="3.2" ry="3.2"/>
</g>
<!-- prospects&#45;&gt;campaigns -->
<g id="edge29" class="edge">
<title>prospects:w&#45;&gt;campaigns:e</title>
<path fill="none" stroke="#000000" d="M490.4717,-443.0349C418.371,-442.6132 391.5524,-438.0419 322,-402.0721 300.1978,-390.7968 305.5452,-365.0721 281,-365.0721"/>
<polygon fill="#000000" stroke="#000000" points="497,-443.0516 504.9908,-446.672 501,-443.0618 505,-443.0721 505,-443.0721 505,-443.0721 501,-443.0618 505.0092,-439.4721 497,-443.0516 497,-443.0516"/>
<ellipse fill="none" stroke="#000000" cx="493.8" cy="-443.0434" rx="3.2" ry="3.2"/>
</g>
<!-- campaign_trkrs -->
<g id="node7" class="node">
<title>campaign_trkrs</title>
<g id="a_node7"><a xlink:href="../../tables/campaign_trkrs.html" xlink:title="campaign_trkrs" target="_top">
<polygon fill="#ffffff" stroke="transparent" points="334,-754.5721 334,-815.5721 452,-815.5721 452,-754.5721 334,-754.5721"/>
<polygon fill="#f5f5f5" stroke="transparent" points="334,-792.0721 334,-815.0721 452,-815.0721 452,-792.0721 334,-792.0721"/>
<polygon fill="none" stroke="#000000" points="334,-792.0721 334,-815.0721 452,-815.0721 452,-792.0721 334,-792.0721"/>
<text text-anchor="start" x="338.9136" y="-801.1721" font-family="Helvetica,sans-Serif" font-weight="bold" font-size="11.00" fill="#000000">campaign_trkrs</text>
<text text-anchor="start" x="417.5219" y="-800.1721" font-family="Helvetica,sans-Serif" font-size="11.00" fill="#000000">[table]</text>
<polygon fill="none" stroke="#000000" points="334,-773.0721 334,-792.0721 452,-792.0721 452,-773.0721 334,-773.0721"/>
<text text-anchor="start" x="337" y="-779.1721" font-family="Helvetica,sans-Serif" font-size="11.00" fill="#000000">...</text>
<polygon fill="#ffffff" stroke="transparent" points="334,-754.0721 334,-773.0721 391,-773.0721 391,-754.0721 334,-754.0721"/>
<polygon fill="none" stroke="#000000" points="334,-754.0721 334,-773.0721 391,-773.0721 391,-754.0721 334,-754.0721"/>
<text text-anchor="start" x="337" y="-760.1721" font-family="Helvetica,sans-Serif" font-size="11.00" fill="#000000">&lt; 1</text>
<polygon fill="#ffffff" stroke="transparent" points="391,-754.0721 391,-773.0721 421,-773.0721 421,-754.0721 391,-754.0721"/>
<polygon fill="none" stroke="#000000" points="391,-754.0721 391,-773.0721 421,-773.0721 421,-754.0721 391,-754.0721"/>
<text text-anchor="start" x="411.8862" y="-760.1721" font-family="Helvetica,sans-Serif" font-size="11.00" fill="#000000"> &#160;</text>
<polygon fill="#ffffff" stroke="transparent" points="421,-754.0721 421,-773.0721 452,-773.0721 452,-754.0721 421,-754.0721"/>
<polygon fill="none" stroke="#000000" points="421,-754.0721 421,-773.0721 452,-773.0721 452,-754.0721 421,-754.0721"/>
<text text-anchor="start" x="442.8862" y="-760.1721" font-family="Helvetica,sans-Serif" font-size="11.00" fill="#000000"> &#160;</text>
</a>
</g>
</g>
<!-- campaign_trkrs&#45;&gt;campaigns -->
<g id="edge7" class="edge">
<title>campaign_trkrs:w&#45;&gt;campaigns:e</title>
<path fill="none" stroke="#000000" d="M319.8289,-777.9449C255.4902,-734.6365 368.9388,-365.0721 281,-365.0721"/>
<polygon fill="#000000" stroke="#000000" points="326.3191,-779.835 332.9933,-785.5285 330.1596,-780.9535 334,-782.0721 334,-782.0721 334,-782.0721 330.1596,-780.9535 335.0067,-778.6157 326.3191,-779.835 326.3191,-779.835"/>
<ellipse fill="none" stroke="#000000" cx="323.2468" cy="-778.9402" rx="3.2" ry="3.2"/>
</g>
<!-- email_marketing -->
<g id="node9" class="node">
<title>email_marketing</title>
<g id="a_node9"><a xlink:href="../../tables/email_marketing.html" xlink:title="email_marketing" target="_top">
<polygon fill="#ffffff" stroke="transparent" points="810,-496.5721 810,-557.5721 933,-557.5721 933,-496.5721 810,-496.5721"/>
<polygon fill="#f5f5f5" stroke="transparent" points="810.5,-534.0721 810.5,-557.0721 933.5,-557.0721 933.5,-534.0721 810.5,-534.0721"/>
<polygon fill="none" stroke="#000000" points="810.5,-534.0721 810.5,-557.0721 933.5,-557.0721 933.5,-534.0721 810.5,-534.0721"/>
<text text-anchor="start" x="815.1652" y="-543.1721" font-family="Helvetica,sans-Serif" font-weight="bold" font-size="11.00" fill="#000000">email_marketing</text>
<text text-anchor="start" x="899.0219" y="-542.1721" font-family="Helvetica,sans-Serif" font-size="11.00" fill="#000000">[table]</text>
<polygon fill="none" stroke="#000000" points="810.5,-515.0721 810.5,-534.0721 933.5,-534.0721 933.5,-515.0721 810.5,-515.0721"/>
<text text-anchor="start" x="813.5" y="-521.1721" font-family="Helvetica,sans-Serif" font-size="11.00" fill="#000000">...</text>
<polygon fill="#ffffff" stroke="transparent" points="810.5,-496.0721 810.5,-515.0721 865.5,-515.0721 865.5,-496.0721 810.5,-496.0721"/>
<polygon fill="none" stroke="#000000" points="810.5,-496.0721 810.5,-515.0721 865.5,-515.0721 865.5,-496.0721 810.5,-496.0721"/>
<text text-anchor="start" x="813.5" y="-502.1721" font-family="Helvetica,sans-Serif" font-size="11.00" fill="#000000">&lt; 2</text>
<polygon fill="#ffffff" stroke="transparent" points="865.5,-496.0721 865.5,-515.0721 894.5,-515.0721 894.5,-496.0721 865.5,-496.0721"/>
<polygon fill="none" stroke="#000000" points="865.5,-496.0721 865.5,-515.0721 894.5,-515.0721 894.5,-496.0721 865.5,-496.0721"/>
<text text-anchor="start" x="885.3862" y="-502.1721" font-family="Helvetica,sans-Serif" font-size="11.00" fill="#000000"> &#160;</text>
<polygon fill="#ffffff" stroke="transparent" points="894.5,-496.0721 894.5,-515.0721 933.5,-515.0721 933.5,-496.0721 894.5,-496.0721"/>
<polygon fill="none" stroke="#000000" points="894.5,-496.0721 894.5,-515.0721 933.5,-515.0721 933.5,-496.0721 894.5,-496.0721"/>
<text text-anchor="start" x="914.9053" y="-502.1721" font-family="Helvetica,sans-Serif" font-size="11.00" fill="#000000">2 &gt;</text>
</a>
</g>
</g>
<!-- email_marketing&#45;&gt;campaigns -->
<g id="edge11" class="edge">
<title>email_marketing:w&#45;&gt;campaigns:e</title>
<path fill="none" stroke="#000000" d="M795.7644,-524.1312C668.1005,-525.1555 627.9217,-538.775 497,-508.0721 414.444,-488.7116 385.9911,-487.7089 322,-432.0721 295.6546,-409.1661 315.9108,-365.0721 281,-365.0721"/>
<polygon fill="#000000" stroke="#000000" points="802.5001,-524.1042 810.5145,-527.672 806.5,-524.0881 810.5,-524.0721 810.5,-524.0721 810.5,-524.0721 806.5,-524.0881 810.4855,-520.4721 802.5001,-524.1042 802.5001,-524.1042"/>
<ellipse fill="none" stroke="#000000" cx="799.3001" cy="-524.1171" rx="3.2" ry="3.2"/>
</g>
<!-- email_marketing_prospect_lists -->
<g id="node10" class="node">
<title>email_marketing_prospect_lists</title>
<g id="a_node10"><a xlink:href="../../tables/email_marketing_prospect_lists.html" xlink:title="email_marketing_prospect_lists" target="_top">
<polygon fill="#ffffff" stroke="transparent" points="1017.5,-535.5721 1017.5,-596.5721 1214.5,-596.5721 1214.5,-535.5721 1017.5,-535.5721"/>
<polygon fill="#f5f5f5" stroke="transparent" points="1018,-573.0721 1018,-596.0721 1215,-596.0721 1215,-573.0721 1018,-573.0721"/>
<polygon fill="none" stroke="#000000" points="1018,-573.0721 1018,-596.0721 1215,-596.0721 1215,-573.0721 1018,-573.0721"/>
<text text-anchor="start" x="1022.9918" y="-582.1721" font-family="Helvetica,sans-Serif" font-weight="bold" font-size="11.00" fill="#000000">email_marketing_prospect_lists</text>
<text text-anchor="start" x="1180.5219" y="-581.1721" font-family="Helvetica,sans-Serif" font-size="11.00" fill="#000000">[table]</text>
<polygon fill="none" stroke="#000000" points="1018,-554.0721 1018,-573.0721 1215,-573.0721 1215,-554.0721 1018,-554.0721"/>
<text text-anchor="start" x="1021" y="-560.1721" font-family="Helvetica,sans-Serif" font-size="11.00" fill="#000000">...</text>
<polygon fill="#ffffff" stroke="transparent" points="1018,-535.0721 1018,-554.0721 1115,-554.0721 1115,-535.0721 1018,-535.0721"/>
<polygon fill="none" stroke="#000000" points="1018,-535.0721 1018,-554.0721 1115,-554.0721 1115,-535.0721 1018,-535.0721"/>
<text text-anchor="start" x="1021" y="-541.1721" font-family="Helvetica,sans-Serif" font-size="11.00" fill="#000000">&lt; 2</text>
<polygon fill="#ffffff" stroke="transparent" points="1115,-535.0721 1115,-554.0721 1165,-554.0721 1165,-535.0721 1115,-535.0721"/>
<polygon fill="none" stroke="#000000" points="1115,-535.0721 1115,-554.0721 1165,-554.0721 1165,-535.0721 1115,-535.0721"/>
<text text-anchor="start" x="1155.8862" y="-541.1721" font-family="Helvetica,sans-Serif" font-size="11.00" fill="#000000"> &#160;</text>
<polygon fill="#ffffff" stroke="transparent" points="1165,-535.0721 1165,-554.0721 1215,-554.0721 1215,-535.0721 1165,-535.0721"/>
<polygon fill="none" stroke="#000000" points="1165,-535.0721 1165,-554.0721 1215,-554.0721 1215,-535.0721 1165,-535.0721"/>
<text text-anchor="start" x="1205.8862" y="-541.1721" font-family="Helvetica,sans-Serif" font-size="11.00" fill="#000000"> &#160;</text>
</a>
</g>
</g>
<!-- email_marketing_prospect_lists&#45;&gt;email_marketing -->
<g id="edge12" class="edge">
<title>email_marketing_prospect_lists:w&#45;&gt;email_marketing:e</title>
<path fill="none" stroke="#000000" d="M1003.429,-561.191C975.4677,-553.4006 969.3691,-524.0721 933.5,-524.0721"/>
<polygon fill="#000000" stroke="#000000" points="1010.0658,-562.0477 1017.5391,-566.6424 1014.0329,-562.5599 1018,-563.0721 1018,-563.0721 1018,-563.0721 1014.0329,-562.5599 1018.4609,-559.5017 1010.0658,-562.0477 1010.0658,-562.0477"/>
<ellipse fill="none" stroke="#000000" cx="1006.8922" cy="-561.638" rx="3.2" ry="3.2"/>
</g>
<!-- prospect_lists -->
<g id="node11" class="node">
<title>prospect_lists</title>
<g id="a_node11"><a xlink:href="../../tables/prospect_lists.html" xlink:title="prospect_lists" target="_top">
<polygon fill="#ffffff" stroke="transparent" points="804,-578.5721 804,-705.5721 939,-705.5721 939,-578.5721 804,-578.5721"/>
<polygon fill="#f5f5f5" stroke="transparent" points="804.5,-682.0721 804.5,-705.0721 939.5,-705.0721 939.5,-682.0721 804.5,-682.0721"/>
<polygon fill="none" stroke="#000000" points="804.5,-682.0721 804.5,-705.0721 939.5,-705.0721 939.5,-682.0721 804.5,-682.0721"/>
<text text-anchor="start" x="809.5" y="-691.1721" font-family="Helvetica,sans-Serif" font-weight="bold" font-size="11.00" fill="#000000">prospect_lists</text>
<text text-anchor="start" x="904.5437" y="-690.1721" font-family="Helvetica,sans-Serif" font-size="11.00" fill="#000000">[table]</text>
<polygon fill="#c0c0c0" stroke="transparent" points="804.5,-660.0721 804.5,-682.0721 939.5,-682.0721 939.5,-660.0721 804.5,-660.0721"/>
<polygon fill="none" stroke="#000000" points="804.5,-660.0721 804.5,-682.0721 939.5,-682.0721 939.5,-660.0721 804.5,-660.0721"/>
<image xlink:href="../../images/foreignKeys.png" width="11px" height="12px" preserveAspectRatio="xMinYMin meet" x="809.5" y="-677.072"/>
<text text-anchor="start" x="824.5" y="-667.1721" font-family="Helvetica,sans-Serif" font-size="11.00" fill="#000000">assigned_user_id</text>
<polygon fill="none" stroke="#000000" points="804.5,-638.0721 804.5,-660.0721 939.5,-660.0721 939.5,-638.0721 804.5,-638.0721"/>
<image xlink:href="../../images/primaryKeys.png" width="11px" height="12px" preserveAspectRatio="xMinYMin meet" x="809.5" y="-655.072"/>
<text text-anchor="start" x="824.5" y="-645.1721" font-family="Helvetica,sans-Serif" font-size="11.00" fill="#000000">id</text>
<polygon fill="#ffffff" stroke="transparent" points="804.5,-616.0721 804.5,-638.0721 939.5,-638.0721 939.5,-616.0721 804.5,-616.0721"/>
<polygon fill="none" stroke="#000000" points="804.5,-616.0721 804.5,-638.0721 939.5,-638.0721 939.5,-616.0721 804.5,-616.0721"/>
<text text-anchor="start" x="824.5" y="-623.1721" font-family="Helvetica,sans-Serif" font-size="11.00" fill="#000000">name</text>
<polygon fill="none" stroke="#000000" points="804.5,-597.0721 804.5,-616.0721 939.5,-616.0721 939.5,-597.0721 804.5,-597.0721"/>
<text text-anchor="start" x="807.5" y="-603.1721" font-family="Helvetica,sans-Serif" font-size="11.00" fill="#000000">...</text>
<polygon fill="#ffffff" stroke="transparent" points="804.5,-578.0721 804.5,-597.0721 865.5,-597.0721 865.5,-578.0721 804.5,-578.0721"/>
<polygon fill="none" stroke="#000000" points="804.5,-578.0721 804.5,-597.0721 865.5,-597.0721 865.5,-578.0721 804.5,-578.0721"/>
<text text-anchor="start" x="807.5" y="-584.1721" font-family="Helvetica,sans-Serif" font-size="11.00" fill="#000000">&lt; 1</text>
<polygon fill="#ffffff" stroke="transparent" points="865.5,-578.0721 865.5,-597.0721 897.5,-597.0721 897.5,-578.0721 865.5,-578.0721"/>
<polygon fill="none" stroke="#000000" points="865.5,-578.0721 865.5,-597.0721 897.5,-597.0721 897.5,-578.0721 865.5,-578.0721"/>
<text text-anchor="start" x="888.3862" y="-584.1721" font-family="Helvetica,sans-Serif" font-size="11.00" fill="#000000"> &#160;</text>
<polygon fill="#ffffff" stroke="transparent" points="897.5,-578.0721 897.5,-597.0721 939.5,-597.0721 939.5,-578.0721 897.5,-578.0721"/>
<polygon fill="none" stroke="#000000" points="897.5,-578.0721 897.5,-597.0721 939.5,-597.0721 939.5,-578.0721 897.5,-578.0721"/>
<text text-anchor="start" x="920.9053" y="-584.1721" font-family="Helvetica,sans-Serif" font-size="11.00" fill="#000000">4 &gt;</text>
</a>
</g>
</g>
<!-- email_marketing_prospect_lists&#45;&gt;prospect_lists -->
<g id="edge13" class="edge">
<title>email_marketing_prospect_lists:w&#45;&gt;prospect_lists:e</title>
<path fill="none" stroke="#000000" d="M1003.5729,-565.9334C970.8,-580.8558 985.5908,-649.0721 939.5,-649.0721"/>
<polygon fill="#000000" stroke="#000000" points="1010.1528,-564.6285 1018.7004,-566.6033 1014.0764,-563.8503 1018,-563.0721 1018,-563.0721 1018,-563.0721 1014.0764,-563.8503 1017.2996,-559.5408 1010.1528,-564.6285 1010.1528,-564.6285"/>
<ellipse fill="none" stroke="#000000" cx="1007.014" cy="-565.251" rx="3.2" ry="3.2"/>
</g>
<!-- emailman -->
<g id="node12" class="node">
<title>emailman</title>
<g id="a_node12"><a xlink:href="../../tables/emailman.html" xlink:title="emailman" target="_top">
<polygon fill="#ffffff" stroke="transparent" points="348,-552.5721 348,-613.5721 438,-613.5721 438,-552.5721 348,-552.5721"/>
<polygon fill="#f5f5f5" stroke="transparent" points="348,-590.0721 348,-613.0721 438,-613.0721 438,-590.0721 348,-590.0721"/>
<polygon fill="none" stroke="#000000" points="348,-590.0721 348,-613.0721 438,-613.0721 438,-590.0721 348,-590.0721"/>
<text text-anchor="start" x="352.6674" y="-599.1721" font-family="Helvetica,sans-Serif" font-weight="bold" font-size="11.00" fill="#000000">emailman</text>
<text text-anchor="start" x="403.5219" y="-598.1721" font-family="Helvetica,sans-Serif" font-size="11.00" fill="#000000">[table]</text>
<polygon fill="none" stroke="#000000" points="348,-571.0721 348,-590.0721 438,-590.0721 438,-571.0721 348,-571.0721"/>
<text text-anchor="start" x="351" y="-577.1721" font-family="Helvetica,sans-Serif" font-size="11.00" fill="#000000">...</text>
<polygon fill="#ffffff" stroke="transparent" points="348,-552.0721 348,-571.0721 391,-571.0721 391,-552.0721 348,-552.0721"/>
<polygon fill="none" stroke="#000000" points="348,-552.0721 348,-571.0721 391,-571.0721 391,-552.0721 348,-552.0721"/>
<text text-anchor="start" x="351" y="-558.1721" font-family="Helvetica,sans-Serif" font-size="11.00" fill="#000000">&lt; 1</text>
<polygon fill="#ffffff" stroke="transparent" points="391,-552.0721 391,-571.0721 414,-571.0721 414,-552.0721 391,-552.0721"/>
<polygon fill="none" stroke="#000000" points="391,-552.0721 391,-571.0721 414,-571.0721 414,-552.0721 391,-552.0721"/>
<text text-anchor="start" x="404.8862" y="-558.1721" font-family="Helvetica,sans-Serif" font-size="11.00" fill="#000000"> &#160;</text>
<polygon fill="#ffffff" stroke="transparent" points="414,-552.0721 414,-571.0721 438,-571.0721 438,-552.0721 414,-552.0721"/>
<polygon fill="none" stroke="#000000" points="414,-552.0721 414,-571.0721 438,-571.0721 438,-552.0721 414,-552.0721"/>
<text text-anchor="start" x="428.8862" y="-558.1721" font-family="Helvetica,sans-Serif" font-size="11.00" fill="#000000"> &#160;</text>
</a>
</g>
</g>
<!-- emailman&#45;&gt;campaigns -->
<g id="edge14" class="edge">
<title>emailman:w&#45;&gt;campaigns:e</title>
<path fill="none" stroke="#000000" d="M333.5959,-578.2134C261.7806,-557.1994 375.6143,-365.0721 281,-365.0721"/>
<polygon fill="#000000" stroke="#000000" points="340.0658,-579.0482 347.5393,-583.6425 344.0329,-579.5601 348,-580.0721 348,-580.0721 348,-580.0721 344.0329,-579.5601 348.4607,-576.5017 340.0658,-579.0482 340.0658,-579.0482"/>
<ellipse fill="none" stroke="#000000" cx="336.8921" cy="-578.6386" rx="3.2" ry="3.2"/>
</g>
<!-- opportunities&#45;&gt;campaigns -->
<g id="edge20" class="edge">
<title>opportunities:w&#45;&gt;campaigns:e</title>
<path fill="none" stroke="#000000" d="M326.7899,-199.447C274.6966,-219.8665 354.7109,-365.0721 281,-365.0721"/>
<polygon fill="#000000" stroke="#000000" points="333.1094,-198.3908 341.5935,-200.6228 337.0547,-197.7315 341,-197.0721 341,-197.0721 341,-197.0721 337.0547,-197.7315 340.4065,-193.5213 333.1094,-198.3908 333.1094,-198.3908"/>
<ellipse fill="none" stroke="#000000" cx="329.9532" cy="-198.9184" rx="3.2" ry="3.2"/>
</g>
<!-- opportunities&#45;&gt;campaign_log -->
<g id="edge21" class="edge">
<title>opportunities:w&#45;&gt;campaign_log:e</title>
<path fill="none" stroke="#000000" d="M351.3821,-194.1651C379.2324,-186.367 453.5,-165.5721 453.5,-165.5721 503.0972,-201.3197 447.7858,-259.7989 497,-296.0721 543.2519,-330.1619 715.3059,-260.5137 755.5,-301.5721 765.2936,-311.5763 769.5,-333.0721 755.5,-333.0721"/>
<polygon fill="#000000" stroke="#000000" points="342.8489,-200.7082 340.6918,-193.0045 342.2326,-192.5731 344.3897,-200.2768 342.8489,-200.7082"/>
<polyline fill="none" stroke="#000000" points="341,-197.0721 344.8519,-195.9935 "/>
<ellipse fill="none" stroke="#000000" cx="347.9333" cy="-195.1307" rx="3.2" ry="3.2"/>
</g>
<!-- prospect_list_campaigns -->
<g id="node14" class="node">
<title>prospect_list_campaigns</title>
<g id="a_node14"><a xlink:href="../../tables/prospect_list_campaigns.html" xlink:title="prospect_list_campaigns" target="_top">
<polygon fill="#ffffff" stroke="transparent" points="988,-636.0721 988,-792.0721 1244,-792.0721 1244,-636.0721 988,-636.0721"/>
<polygon fill="#f5f5f5" stroke="transparent" points="990,-767.0721 990,-790.0721 1242,-790.0721 1242,-767.0721 990,-767.0721"/>
<polygon fill="none" stroke="#000000" points="990,-767.0721 990,-790.0721 1242,-790.0721 1242,-767.0721 990,-767.0721"/>
<text text-anchor="start" x="995" y="-776.1721" font-family="Helvetica,sans-Serif" font-weight="bold" font-size="11.00" fill="#000000">prospect_list_campaigns</text>
<text text-anchor="start" x="1207.0437" y="-775.1721" font-family="Helvetica,sans-Serif" font-size="11.00" fill="#000000">[table]</text>
<polygon fill="none" stroke="#000000" points="990,-745.0721 990,-767.0721 1176,-767.0721 1176,-745.0721 990,-745.0721"/>
<image xlink:href="../../images/primaryKeys.png" width="11px" height="12px" preserveAspectRatio="xMinYMin meet" x="995" y="-762.072"/>
<text text-anchor="start" x="1010" y="-752.1721" font-family="Helvetica,sans-Serif" font-size="11.00" fill="#000000">id</text>
<polygon fill="none" stroke="#000000" points="1176,-745.0721 1176,-767.0721 1242,-767.0721 1242,-745.0721 1176,-745.0721"/>
<text text-anchor="start" x="1179" y="-752.7721" font-family="Helvetica,sans-Serif" font-size="11.00" fill="#000000">varchar[36]</text>
<polygon fill="#ffffff" stroke="transparent" points="990,-723.0721 990,-745.0721 1176,-745.0721 1176,-723.0721 990,-723.0721"/>
<polygon fill="none" stroke="#000000" points="990,-723.0721 990,-745.0721 1176,-745.0721 1176,-723.0721 990,-723.0721"/>
<image xlink:href="../../images/foreignKeys.png" width="11px" height="12px" preserveAspectRatio="xMinYMin meet" x="995" y="-740.072"/>
<text text-anchor="start" x="1010" y="-730.1721" font-family="Helvetica,sans-Serif" font-size="11.00" fill="#000000">prospect_list_id</text>
<polygon fill="none" stroke="#000000" points="1176,-723.0721 1176,-745.0721 1242,-745.0721 1242,-723.0721 1176,-723.0721"/>
<text text-anchor="start" x="1179" y="-730.7721" font-family="Helvetica,sans-Serif" font-size="11.00" fill="#000000">varchar[36]</text>
<polygon fill="#ffffff" stroke="transparent" points="990,-701.0721 990,-723.0721 1176,-723.0721 1176,-701.0721 990,-701.0721"/>
<polygon fill="none" stroke="#000000" points="990,-701.0721 990,-723.0721 1176,-723.0721 1176,-701.0721 990,-701.0721"/>
<image xlink:href="../../images/foreignKeys.png" width="11px" height="12px" preserveAspectRatio="xMinYMin meet" x="995" y="-718.072"/>
<text text-anchor="start" x="1010" y="-708.1721" font-family="Helvetica,sans-Serif" font-size="11.00" fill="#000000">campaign_id</text>
<polygon fill="none" stroke="#000000" points="1176,-701.0721 1176,-723.0721 1242,-723.0721 1242,-701.0721 1176,-701.0721"/>
<text text-anchor="start" x="1179" y="-708.7721" font-family="Helvetica,sans-Serif" font-size="11.00" fill="#000000">varchar[36]</text>
<polygon fill="none" stroke="#000000" points="990,-679.0721 990,-701.0721 1176,-701.0721 1176,-679.0721 990,-679.0721"/>
<text text-anchor="start" x="1010" y="-686.1721" font-family="Helvetica,sans-Serif" font-size="11.00" fill="#000000">date_modified</text>
<polygon fill="none" stroke="#000000" points="1176,-679.0721 1176,-701.0721 1242,-701.0721 1242,-679.0721 1176,-679.0721"/>
<text text-anchor="start" x="1178.7401" y="-686.7721" font-family="Helvetica,sans-Serif" font-size="11.00" fill="#000000">datetime[26]</text>
<polygon fill="none" stroke="#000000" points="990,-657.0721 990,-679.0721 1176,-679.0721 1176,-657.0721 990,-657.0721"/>
<text text-anchor="start" x="1010" y="-664.1721" font-family="Helvetica,sans-Serif" font-size="11.00" fill="#000000">deleted</text>
<polygon fill="none" stroke="#000000" points="1176,-657.0721 1176,-679.0721 1242,-679.0721 1242,-657.0721 1176,-657.0721"/>
<text text-anchor="start" x="1179" y="-664.7721" font-family="Helvetica,sans-Serif" font-size="11.00" fill="#000000">bit[1]</text>
<polygon fill="#ffffff" stroke="transparent" points="990,-638.0721 990,-657.0721 1087,-657.0721 1087,-638.0721 990,-638.0721"/>
<polygon fill="none" stroke="#000000" points="990,-638.0721 990,-657.0721 1087,-657.0721 1087,-638.0721 990,-638.0721"/>
<text text-anchor="start" x="993" y="-644.1721" font-family="Helvetica,sans-Serif" font-size="11.00" fill="#000000">&lt; 2</text>
<polygon fill="#ffffff" stroke="transparent" points="1087,-638.0721 1087,-657.0721 1176,-657.0721 1176,-638.0721 1087,-638.0721"/>
<polygon fill="none" stroke="#000000" points="1087,-638.0721 1087,-657.0721 1176,-657.0721 1176,-638.0721 1087,-638.0721"/>
<text text-anchor="start" x="1166.8862" y="-644.1721" font-family="Helvetica,sans-Serif" font-size="11.00" fill="#000000"> &#160;</text>
<polygon fill="#ffffff" stroke="transparent" points="1176,-638.0721 1176,-657.0721 1242,-657.0721 1242,-638.0721 1176,-638.0721"/>
<polygon fill="none" stroke="#000000" points="1176,-638.0721 1176,-657.0721 1242,-657.0721 1242,-638.0721 1176,-638.0721"/>
<text text-anchor="start" x="1223.4053" y="-644.1721" font-family="Helvetica,sans-Serif" font-size="11.00" fill="#000000">0 &gt;</text>
<polygon fill="none" stroke="#000000" stroke-width="2" points="989,-637.0721 989,-791.0721 1243,-791.0721 1243,-637.0721 989,-637.0721"/>
</a>
</g>
</g>
<!-- prospect_list_campaigns&#45;&gt;campaigns -->
<g id="edge22" class="edge">
<title>prospect_list_campaigns:w&#45;&gt;campaigns:e</title>
<path fill="none" stroke="#000000" d="M975.377,-712.7115C966.4765,-713.5665 960.1589,-715.0882 947,-716.0721 837.1308,-724.287 809.6758,-730.0721 699.5,-730.0721 699.5,-730.0721 699.5,-730.0721 550,-730.0721 438.2507,-730.0721 389.2999,-713.2832 322,-624.0721 286.9061,-577.5525 339.2722,-365.0721 281,-365.0721"/>
<polygon fill="#000000" stroke="#000000" points="982.0076,-712.4216 990.1573,-715.6686 986.0038,-712.2468 990,-712.0721 990,-712.0721 990,-712.0721 986.0038,-712.2468 989.8427,-708.4755 982.0076,-712.4216 982.0076,-712.4216"/>
<ellipse fill="none" stroke="#000000" cx="978.8107" cy="-712.5615" rx="3.2" ry="3.2"/>
</g>
<!-- prospect_list_campaigns&#45;&gt;prospect_lists -->
<g id="edge23" class="edge">
<title>prospect_list_campaigns:w&#45;&gt;prospect_lists:e</title>
<path fill="none" stroke="#000000" d="M976.1216,-729.74C954.76,-712.4187 977.4344,-649.0721 939.5,-649.0721"/>
<polygon fill="#000000" stroke="#000000" points="982.3634,-731.6883 988.9273,-737.5085 986.1817,-732.8802 990,-734.0721 990,-734.0721 990,-734.0721 986.1817,-732.8802 991.0727,-730.6356 982.3634,-731.6883 982.3634,-731.6883"/>
<ellipse fill="none" stroke="#000000" cx="979.3087" cy="-730.7348" rx="3.2" ry="3.2"/>
</g>
<!-- prospect_lists_prospects -->
<g id="node15" class="node">
<title>prospect_lists_prospects</title>
<g id="a_node15"><a xlink:href="../../tables/prospect_lists_prospects.html" xlink:title="prospect_lists_prospects" target="_top">
<polygon fill="#ffffff" stroke="transparent" points="1034,-417.5721 1034,-478.5721 1198,-478.5721 1198,-417.5721 1034,-417.5721"/>
<polygon fill="#f5f5f5" stroke="transparent" points="1034,-455.0721 1034,-478.0721 1198,-478.0721 1198,-455.0721 1034,-455.0721"/>
<polygon fill="none" stroke="#000000" points="1034,-455.0721 1034,-478.0721 1198,-478.0721 1198,-455.0721 1034,-455.0721"/>
<text text-anchor="start" x="1038.9874" y="-464.1721" font-family="Helvetica,sans-Serif" font-weight="bold" font-size="11.00" fill="#000000">prospect_lists_prospects</text>
<text text-anchor="start" x="1163.5219" y="-463.1721" font-family="Helvetica,sans-Serif" font-size="11.00" fill="#000000">[table]</text>
<polygon fill="none" stroke="#000000" points="1034,-436.0721 1034,-455.0721 1198,-455.0721 1198,-436.0721 1034,-436.0721"/>
<text text-anchor="start" x="1037" y="-442.1721" font-family="Helvetica,sans-Serif" font-size="11.00" fill="#000000">...</text>
<polygon fill="#ffffff" stroke="transparent" points="1034,-417.0721 1034,-436.0721 1114,-436.0721 1114,-417.0721 1034,-417.0721"/>
<polygon fill="none" stroke="#000000" points="1034,-417.0721 1034,-436.0721 1114,-436.0721 1114,-417.0721 1034,-417.0721"/>
<text text-anchor="start" x="1037" y="-423.1721" font-family="Helvetica,sans-Serif" font-size="11.00" fill="#000000">&lt; 6</text>
<polygon fill="#ffffff" stroke="transparent" points="1114,-417.0721 1114,-436.0721 1156,-436.0721 1156,-417.0721 1114,-417.0721"/>
<polygon fill="none" stroke="#000000" points="1114,-417.0721 1114,-436.0721 1156,-436.0721 1156,-417.0721 1114,-417.0721"/>
<text text-anchor="start" x="1146.8862" y="-423.1721" font-family="Helvetica,sans-Serif" font-size="11.00" fill="#000000"> &#160;</text>
<polygon fill="#ffffff" stroke="transparent" points="1156,-417.0721 1156,-436.0721 1198,-436.0721 1198,-417.0721 1156,-417.0721"/>
<polygon fill="none" stroke="#000000" points="1156,-417.0721 1156,-436.0721 1198,-436.0721 1198,-417.0721 1156,-417.0721"/>
<text text-anchor="start" x="1188.8862" y="-423.1721" font-family="Helvetica,sans-Serif" font-size="11.00" fill="#000000"> &#160;</text>
</a>
</g>
</g>
<!-- prospect_lists_prospects&#45;&gt;accounts -->
<g id="edge25" class="edge">
<title>prospect_lists_prospects:w&#45;&gt;accounts:e</title>
<path fill="none" stroke="#000000" d="M1019.4745,-445.5432C890.2357,-453.3385 590.4056,-554.395 497,-487.0721 428.5901,-437.765 521.3274,-307.0721 437,-307.0721"/>
<polygon fill="#000000" stroke="#000000" points="1026.0042,-445.3314 1034.1167,-448.6702 1030.0021,-445.2017 1034,-445.0721 1034,-445.0721 1034,-445.0721 1030.0021,-445.2017 1033.8833,-441.474 1026.0042,-445.3314 1026.0042,-445.3314"/>
<ellipse fill="none" stroke="#000000" cx="1022.8059" cy="-445.4352" rx="3.2" ry="3.2"/>
</g>
<!-- prospect_lists_prospects&#45;&gt;contacts -->
<g id="edge26" class="edge">
<title>prospect_lists_prospects:w&#45;&gt;contacts:e</title>
<path fill="none" stroke="#000000" d="M1019.6226,-443.4019C964.0865,-429.4695 981.3327,-333.0721 913.5,-333.0721"/>
<polygon fill="#000000" stroke="#000000" points="1026.0534,-444.1489 1033.5846,-448.648 1030.0267,-444.6105 1034,-445.0721 1034,-445.0721 1034,-445.0721 1030.0267,-444.6105 1034.4154,-441.4961 1026.0534,-444.1489 1026.0534,-444.1489"/>
<ellipse fill="none" stroke="#000000" cx="1022.8748" cy="-443.7796" rx="3.2" ry="3.2"/>
</g>
<!-- prospect_lists_prospects&#45;&gt;leads -->
<g id="edge27" class="edge">
<title>prospect_lists_prospects:w&#45;&gt;leads:e</title>
<path fill="none" stroke="#000000" d="M1019.5942,-443.5546C963.8803,-430.4375 1005.9964,-335.7303 947,-295.0721 880.2963,-249.1022 666.01,-252.0721 585,-252.0721"/>
<polygon fill="#000000" stroke="#000000" points="1026.044,-444.234 1033.6229,-448.6523 1030.022,-444.653 1034,-445.0721 1034,-445.0721 1034,-445.0721 1030.022,-444.653 1034.3771,-441.4919 1026.044,-444.234 1026.044,-444.234"/>
<ellipse fill="none" stroke="#000000" cx="1022.8616" cy="-443.8987" rx="3.2" ry="3.2"/>
</g>
<!-- prospect_lists_prospects&#45;&gt;prospects -->
<g id="edge28" class="edge">
<title>prospect_lists_prospects:w&#45;&gt;prospects:e</title>
<path fill="none" stroke="#000000" d="M1019.4161,-445.0683C836.3157,-444.9718 785.1591,-443.0721 595,-443.0721"/>
<polygon fill="#000000" stroke="#000000" points="1026,-445.0699 1033.999,-448.6721 1030,-445.071 1034,-445.0721 1034,-445.0721 1034,-445.0721 1030,-445.071 1034.001,-441.4721 1026,-445.0699 1026,-445.0699"/>
<ellipse fill="none" stroke="#000000" cx="1022.8" cy="-445.0691" rx="3.2" ry="3.2"/>
</g>
<!-- prospect_lists_prospects&#45;&gt;prospect_lists -->
<g id="edge24" class="edge">
<title>prospect_lists_prospects:w&#45;&gt;prospect_lists:e</title>
<path fill="none" stroke="#000000" d="M1019.4067,-447.1621C992.6892,-456.0337 996.3387,-491.652 980,-525.0721 954.5363,-577.1569 997.4762,-649.0721 939.5,-649.0721"/>
<polygon fill="#000000" stroke="#000000" points="1026.0808,-446.2063 1034.5104,-448.6357 1030.0404,-445.6392 1034,-445.0721 1034,-445.0721 1034,-445.0721 1030.0404,-445.6392 1033.4896,-441.5084 1026.0808,-446.2063 1026.0808,-446.2063"/>
<ellipse fill="none" stroke="#000000" cx="1022.9131" cy="-446.66" rx="3.2" ry="3.2"/>
</g>
<!-- securitygroups_records -->
<g id="node16" class="node">
<title>securitygroups_records</title>
<g id="a_node16"><a xlink:href="../../tables/securitygroups_records.html" xlink:title="securitygroups_records" target="_top">
<polygon fill="#ffffff" stroke="transparent" points="1037.5,-185.5721 1037.5,-246.5721 1194.5,-246.5721 1194.5,-185.5721 1037.5,-185.5721"/>
<polygon fill="#f5f5f5" stroke="transparent" points="1038,-223.0721 1038,-246.0721 1195,-246.0721 1195,-223.0721 1038,-223.0721"/>
<polygon fill="none" stroke="#000000" points="1038,-223.0721 1038,-246.0721 1195,-246.0721 1195,-223.0721 1038,-223.0721"/>
<text text-anchor="start" x="1042.8528" y="-232.1721" font-family="Helvetica,sans-Serif" font-weight="bold" font-size="11.00" fill="#000000">securitygroups_records</text>
<text text-anchor="start" x="1160.5219" y="-231.1721" font-family="Helvetica,sans-Serif" font-size="11.00" fill="#000000">[table]</text>
<polygon fill="none" stroke="#000000" points="1038,-204.0721 1038,-223.0721 1195,-223.0721 1195,-204.0721 1038,-204.0721"/>
<text text-anchor="start" x="1041" y="-210.1721" font-family="Helvetica,sans-Serif" font-size="11.00" fill="#000000">...</text>
<polygon fill="#ffffff" stroke="transparent" points="1038,-185.0721 1038,-204.0721 1118,-204.0721 1118,-185.0721 1038,-185.0721"/>
<polygon fill="none" stroke="#000000" points="1038,-185.0721 1038,-204.0721 1118,-204.0721 1118,-185.0721 1038,-185.0721"/>
<text text-anchor="start" x="1041" y="-191.1721" font-family="Helvetica,sans-Serif" font-size="11.00" fill="#000000">&lt; 41</text>
<polygon fill="#ffffff" stroke="transparent" points="1118,-185.0721 1118,-204.0721 1156,-204.0721 1156,-185.0721 1118,-185.0721"/>
<polygon fill="none" stroke="#000000" points="1118,-185.0721 1118,-204.0721 1156,-204.0721 1156,-185.0721 1118,-185.0721"/>
<text text-anchor="start" x="1146.8862" y="-191.1721" font-family="Helvetica,sans-Serif" font-size="11.00" fill="#000000"> &#160;</text>
<polygon fill="#ffffff" stroke="transparent" points="1156,-185.0721 1156,-204.0721 1195,-204.0721 1195,-185.0721 1156,-185.0721"/>
<polygon fill="none" stroke="#000000" points="1156,-185.0721 1156,-204.0721 1195,-204.0721 1195,-185.0721 1156,-185.0721"/>
<text text-anchor="start" x="1185.8862" y="-191.1721" font-family="Helvetica,sans-Serif" font-size="11.00" fill="#000000"> &#160;</text>
</a>
</g>
</g>
<!-- securitygroups_records&#45;&gt;accounts -->
<g id="edge30" class="edge">
<title>securitygroups_records:w&#45;&gt;accounts:e</title>
<path fill="none" stroke="#000000" d="M1023.4367,-212.834C894.0574,-208.9062 598.3613,-158.4004 497,-214.0721 453.886,-237.752 486.189,-307.0721 437,-307.0721"/>
<polygon fill="#000000" stroke="#000000" points="1030.0011,-212.9413 1037.9411,-216.6716 1034.0005,-213.0067 1038,-213.0721 1038,-213.0721 1038,-213.0721 1034.0005,-213.0067 1038.0589,-209.4725 1030.0011,-212.9413 1030.0011,-212.9413"/>
<ellipse fill="none" stroke="#000000" cx="1026.8015" cy="-212.889" rx="3.2" ry="3.2"/>
</g>
<!-- securitygroups_records&#45;&gt;campaigns -->
<g id="edge31" class="edge">
<title>securitygroups_records:w&#45;&gt;campaigns:e</title>
<path fill="none" stroke="#000000" d="M1023.6156,-211.9335C992.3543,-206.6135 984.3664,-184.043 947,-174.0721 839.9917,-145.5178 810.2525,-145.0721 699.5,-145.0721 699.5,-145.0721 699.5,-145.0721 550,-145.0721 499.2379,-145.0721 360.2358,-125.6832 322,-159.0721 251.6846,-220.4741 374.3513,-365.0721 281,-365.0721"/>
<polygon fill="#000000" stroke="#000000" points="1030.0249,-212.4408 1037.7159,-216.6608 1034.0125,-212.7564 1038,-213.0721 1038,-213.0721 1038,-213.0721 1034.0125,-212.7564 1038.2841,-209.4833 1030.0249,-212.4408 1030.0249,-212.4408"/>
<ellipse fill="none" stroke="#000000" cx="1026.8349" cy="-212.1883" rx="3.2" ry="3.2"/>
</g>
<!-- securitygroups_records&#45;&gt;contacts -->
<g id="edge32" class="edge">
<title>securitygroups_records:w&#45;&gt;contacts:e</title>
<path fill="none" stroke="#000000" d="M1023.6584,-214.6777C964.6452,-228.9176 985.0984,-333.0721 913.5,-333.0721"/>
<polygon fill="#000000" stroke="#000000" points="1030.0497,-213.9622 1038.4006,-216.6497 1034.0248,-213.5171 1038,-213.0721 1038,-213.0721 1038,-213.0721 1034.0248,-213.5171 1037.5994,-209.4944 1030.0497,-213.9622 1030.0497,-213.9622"/>
<ellipse fill="none" stroke="#000000" cx="1026.8695" cy="-214.3182" rx="3.2" ry="3.2"/>
</g>
<!-- securitygroups_records&#45;&gt;leads -->
<g id="edge34" class="edge">
<title>securitygroups_records:w&#45;&gt;leads:e</title>
<path fill="none" stroke="#000000" d="M1023.5962,-213.095C856.2525,-213.6383 809.1202,-223.8507 636,-244.0721 613.2111,-246.7339 607.9438,-252.0721 585,-252.0721"/>
<polygon fill="#000000" stroke="#000000" points="1030,-213.0848 1038.0058,-216.6721 1034,-213.0785 1038,-213.0721 1038,-213.0721 1038,-213.0721 1034,-213.0785 1037.9942,-209.4721 1030,-213.0848 1030,-213.0848"/>
<ellipse fill="none" stroke="#000000" cx="1026.8" cy="-213.09" rx="3.2" ry="3.2"/>
</g>
<!-- securitygroups_records&#45;&gt;prospects -->
<g id="edge37" class="edge">
<title>securitygroups_records:w&#45;&gt;prospects:e</title>
<path fill="none" stroke="#000000" d="M1023.5957,-214.4596C961.8424,-227.6513 1010.2531,-331.4569 947,-377.0721 914.7245,-400.3476 634.7927,-443.0721 595,-443.0721"/>
<polygon fill="#000000" stroke="#000000" points="1030.0369,-213.8392 1038.3452,-216.6555 1034.0184,-213.4556 1038,-213.0721 1038,-213.0721 1038,-213.0721 1034.0184,-213.4556 1037.6548,-209.4886 1030.0369,-213.8392 1030.0369,-213.8392"/>
<ellipse fill="none" stroke="#000000" cx="1026.8516" cy="-214.146" rx="3.2" ry="3.2"/>
</g>
<!-- securitygroups_records&#45;&gt;surveys -->
<g id="edge39" class="edge">
<title>securitygroups_records:w&#45;&gt;surveys:e</title>
<path fill="none" stroke="#000000" d="M1023.5055,-211.4922C973.4482,-199.33 1000.9629,-120.1231 947,-85.0721 852.8883,-23.9426 811.7222,-35.0721 699.5,-35.0721 699.5,-35.0721 699.5,-35.0721 393,-35.0721 324.2442,-35.0721 156.7558,-87.0721 88,-87.0721"/>
<polygon fill="#000000" stroke="#000000" points="1030.0471,-212.2052 1037.6099,-216.6509 1034.0236,-212.6386 1038,-213.0721 1038,-213.0721 1038,-213.0721 1034.0236,-212.6386 1038.3901,-209.4933 1030.0471,-212.2052 1030.0471,-212.2052"/>
<ellipse fill="none" stroke="#000000" cx="1026.8659" cy="-211.8584" rx="3.2" ry="3.2"/>
</g>
<!-- securitygroups_records&#45;&gt;email_marketing -->
<g id="edge33" class="edge">
<title>securitygroups_records:w&#45;&gt;email_marketing:e</title>
<path fill="none" stroke="#000000" d="M1026.8248,-222.3797C994.9533,-274.1263 966.1806,-524.0721 933.5,-524.0721"/>
<polygon fill="#000000" stroke="#000000" points="1031.8529,-218.1919 1040.3039,-215.8383 1034.9264,-215.632 1038,-213.0721 1038,-213.0721 1038,-213.0721 1034.9264,-215.632 1035.6961,-210.3058 1031.8529,-218.1919 1031.8529,-218.1919"/>
<ellipse fill="none" stroke="#000000" cx="1029.394" cy="-220.2399" rx="3.2" ry="3.2"/>
</g>
<!-- securitygroups_records&#45;&gt;prospect_lists -->
<g id="edge36" class="edge">
<title>securitygroups_records:w&#45;&gt;prospect_lists:e</title>
<path fill="none" stroke="#000000" d="M1023.6037,-214.1422C953.8919,-225.4696 999.1629,-324.5476 980,-407.0721 967.6668,-460.1846 994.0257,-649.0721 939.5,-649.0721"/>
<polygon fill="#000000" stroke="#000000" points="1030.022,-213.6651 1038.2669,-216.6622 1034.011,-213.3686 1038,-213.0721 1038,-213.0721 1038,-213.0721 1034.011,-213.3686 1037.7331,-209.482 1030.022,-213.6651 1030.022,-213.6651"/>
<ellipse fill="none" stroke="#000000" cx="1026.8308" cy="-213.9024" rx="3.2" ry="3.2"/>
</g>
<!-- securitygroups_records&#45;&gt;opportunities -->
<g id="edge35" class="edge">
<title>securitygroups_records:w&#45;&gt;opportunities:e</title>
<path fill="none" stroke="#000000" d="M1023.4097,-212.2477C993.6936,-208.6813 983.0607,-194.5586 947,-190.0721 748.5302,-165.379 696.535,-176.4424 497,-190.0721 474.174,-191.6312 468.8792,-197.0721 446,-197.0721"/>
<polygon fill="#000000" stroke="#000000" points="1030.0127,-212.6207 1037.7969,-216.6663 1034.0064,-212.8464 1038,-213.0721 1038,-213.0721 1038,-213.0721 1034.0064,-212.8464 1038.2031,-209.4778 1030.0127,-212.6207 1030.0127,-212.6207"/>
<ellipse fill="none" stroke="#000000" cx="1026.8178" cy="-212.4402" rx="3.2" ry="3.2"/>
</g>
<!-- surveyresponses -->
<g id="node17" class="node">
<title>surveyresponses</title>
<g id="a_node17"><a xlink:href="../../tables/surveyresponses.html" xlink:title="surveyresponses" target="_top">
<polygon fill="#ffffff" stroke="transparent" points="330,-59.5721 330,-120.5721 456,-120.5721 456,-59.5721 330,-59.5721"/>
<polygon fill="#f5f5f5" stroke="transparent" points="330,-97.0721 330,-120.0721 456,-120.0721 456,-97.0721 330,-97.0721"/>
<polygon fill="none" stroke="#000000" points="330,-97.0721 330,-120.0721 456,-120.0721 456,-97.0721 330,-97.0721"/>
<text text-anchor="start" x="334.936" y="-106.1721" font-family="Helvetica,sans-Serif" font-weight="bold" font-size="11.00" fill="#000000">surveyresponses</text>
<text text-anchor="start" x="421.5219" y="-105.1721" font-family="Helvetica,sans-Serif" font-size="11.00" fill="#000000">[table]</text>
<polygon fill="none" stroke="#000000" points="330,-78.0721 330,-97.0721 456,-97.0721 456,-78.0721 330,-78.0721"/>
<text text-anchor="start" x="333" y="-84.1721" font-family="Helvetica,sans-Serif" font-size="11.00" fill="#000000">...</text>
<polygon fill="#ffffff" stroke="transparent" points="330,-59.0721 330,-78.0721 387,-78.0721 387,-59.0721 330,-59.0721"/>
<polygon fill="none" stroke="#000000" points="330,-59.0721 330,-78.0721 387,-78.0721 387,-59.0721 330,-59.0721"/>
<text text-anchor="start" x="333" y="-65.1721" font-family="Helvetica,sans-Serif" font-size="11.00" fill="#000000">&lt; 5</text>
<polygon fill="#ffffff" stroke="transparent" points="387,-59.0721 387,-78.0721 417,-78.0721 417,-59.0721 387,-59.0721"/>
<polygon fill="none" stroke="#000000" points="387,-59.0721 387,-78.0721 417,-78.0721 417,-59.0721 387,-59.0721"/>
<text text-anchor="start" x="407.8862" y="-65.1721" font-family="Helvetica,sans-Serif" font-size="11.00" fill="#000000"> &#160;</text>
<polygon fill="#ffffff" stroke="transparent" points="417,-59.0721 417,-78.0721 456,-78.0721 456,-59.0721 417,-59.0721"/>
<polygon fill="none" stroke="#000000" points="417,-59.0721 417,-78.0721 456,-78.0721 456,-59.0721 417,-59.0721"/>
<text text-anchor="start" x="437.4053" y="-65.1721" font-family="Helvetica,sans-Serif" font-size="11.00" fill="#000000">3 &gt;</text>
</a>
</g>
</g>
<!-- securitygroups_records&#45;&gt;surveyresponses -->
<g id="edge38" class="edge">
<title>securitygroups_records:w&#45;&gt;surveyresponses:e</title>
<path fill="none" stroke="#000000" d="M1023.6361,-211.4027C986.3988,-201.8457 991.0237,-153.8428 947,-135.0721 745.3062,-49.074 675.2625,-87.0721 456,-87.0721"/>
<polygon fill="#000000" stroke="#000000" points="1030.0535,-212.1484 1037.5844,-216.648 1034.0267,-212.6103 1038,-213.0721 1038,-213.0721 1038,-213.0721 1034.0267,-212.6103 1038.4156,-209.4961 1030.0535,-212.1484 1030.0535,-212.1484"/>
<ellipse fill="none" stroke="#000000" cx="1026.8749" cy="-211.779" rx="3.2" ry="3.2"/>
</g>
<!-- surveyresponses&#45;&gt;campaigns -->
<g id="edge40" class="edge">
<title>surveyresponses:w&#45;&gt;campaigns:e</title>
<path fill="none" stroke="#000000" d="M316.7346,-92.8785C279.3836,-132.8002 338.3392,-365.0721 281,-365.0721"/>
<polygon fill="#000000" stroke="#000000" points="322.6713,-90.2799 331.4435,-90.37 326.3357,-88.676 330,-87.0721 330,-87.0721 330,-87.0721 326.3357,-88.676 328.5565,-83.7741 322.6713,-90.2799 322.6713,-90.2799"/>
<ellipse fill="none" stroke="#000000" cx="319.7398" cy="-91.5631" rx="3.2" ry="3.2"/>
</g>
<!-- surveyresponses&#45;&gt;surveys -->
<g id="edge41" class="edge">
<title>surveyresponses:w&#45;&gt;surveys:e</title>
<path fill="none" stroke="#000000" d="M315.3901,-87.0721C219.7464,-87.0721 190.5139,-87.0721 88,-87.0721"/>
<polygon fill="#000000" stroke="#000000" points="322,-87.0721 330,-90.6721 326,-87.0721 330,-87.0721 330,-87.0721 330,-87.0721 326,-87.0721 330,-83.4721 322,-87.0721 322,-87.0721"/>
<ellipse fill="none" stroke="#000000" cx="318.8" cy="-87.0721" rx="3.2" ry="3.2"/>
</g>
</g>
</svg>
