<?xml version="1.0" encoding="UTF-8" standalone="no"?>
<!DOCTYPE svg PUBLIC "-//W3C//DTD SVG 1.1//EN"
 "http://www.w3.org/Graphics/SVG/1.1/DTD/svg11.dtd">
<!-- Generated by graphviz version 2.40.1 (20161225.0304)
 -->
<!-- Title: twoDegreesRelationshipsDiagram Pages: 1 -->
<svg width="1218pt" height="807pt"
 viewBox="0.00 0.00 1218.00 806.74" xmlns="http://www.w3.org/2000/svg" xmlns:xlink="http://www.w3.org/1999/xlink">
<g id="graph0" class="graph" transform="scale(1 1) rotate(0) translate(4 802.7409)">
<title>twoDegreesRelationshipsDiagram</title>
<polygon fill="#ffffff" stroke="transparent" points="-4,4 -4,-802.7409 1214,-802.7409 1214,4 -4,4"/>
<text text-anchor="middle" x="72.4936" y="-7.3" font-family="Helvetica,sans-Serif" font-size="11.00" fill="#000000">Generated by SchemaSpy</text>
<!-- calls -->
<g id="node1" class="node">
<title>calls</title>
<g id="a_node1"><a xlink:href="../../tables/calls.html" xlink:title="calls" target="_top">
<polygon fill="#ffffff" stroke="transparent" points="761.5,-89.7409 761.5,-150.7409 825.5,-150.7409 825.5,-89.7409 761.5,-89.7409"/>
<polygon fill="#f5f5f5" stroke="transparent" points="761.5,-127.2409 761.5,-150.2409 825.5,-150.2409 825.5,-127.2409 761.5,-127.2409"/>
<polygon fill="none" stroke="#000000" points="761.5,-127.2409 761.5,-150.2409 825.5,-150.2409 825.5,-127.2409 761.5,-127.2409"/>
<text text-anchor="start" x="766.0017" y="-136.3409" font-family="Helvetica,sans-Serif" font-weight="bold" font-size="11.00" fill="#000000">calls</text>
<text text-anchor="start" x="791.0219" y="-135.3409" font-family="Helvetica,sans-Serif" font-size="11.00" fill="#000000">[table]</text>
<polygon fill="none" stroke="#000000" points="761.5,-108.2409 761.5,-127.2409 825.5,-127.2409 825.5,-108.2409 761.5,-108.2409"/>
<text text-anchor="start" x="764.5" y="-114.3409" font-family="Helvetica,sans-Serif" font-size="11.00" fill="#000000">...</text>
<polygon fill="#ffffff" stroke="transparent" points="761.5,-89.2409 761.5,-108.2409 790.5,-108.2409 790.5,-89.2409 761.5,-89.2409"/>
<polygon fill="none" stroke="#000000" points="761.5,-89.2409 761.5,-108.2409 790.5,-108.2409 790.5,-89.2409 761.5,-89.2409"/>
<text text-anchor="start" x="764.5" y="-95.3409" font-family="Helvetica,sans-Serif" font-size="11.00" fill="#000000">&lt; 12</text>
<polygon fill="#ffffff" stroke="transparent" points="790.5,-89.2409 790.5,-108.2409 803.5,-108.2409 803.5,-89.2409 790.5,-89.2409"/>
<polygon fill="none" stroke="#000000" points="790.5,-89.2409 790.5,-108.2409 803.5,-108.2409 803.5,-89.2409 790.5,-89.2409"/>
<text text-anchor="start" x="794.3862" y="-95.3409" font-family="Helvetica,sans-Serif" font-size="11.00" fill="#000000"> &#160;</text>
<polygon fill="#ffffff" stroke="transparent" points="803.5,-89.2409 803.5,-108.2409 825.5,-108.2409 825.5,-89.2409 803.5,-89.2409"/>
<polygon fill="none" stroke="#000000" points="803.5,-89.2409 803.5,-108.2409 825.5,-108.2409 825.5,-89.2409 803.5,-89.2409"/>
<text text-anchor="start" x="806.9053" y="-95.3409" font-family="Helvetica,sans-Serif" font-size="11.00" fill="#000000">6 &gt;</text>
</a>
</g>
</g>
<!-- prospects -->
<g id="node2" class="node">
<title>prospects</title>
<g id="a_node2"><a xlink:href="../../tables/prospects.html" xlink:title="prospects" target="_top">
<polygon fill="#ffffff" stroke="transparent" points="153,-175.7409 153,-434.7409 366,-434.7409 366,-175.7409 153,-175.7409"/>
<polygon fill="#f5f5f5" stroke="transparent" points="153.5,-411.2409 153.5,-434.2409 366.5,-434.2409 366.5,-411.2409 153.5,-411.2409"/>
<polygon fill="none" stroke="#000000" points="153.5,-411.2409 153.5,-434.2409 366.5,-434.2409 366.5,-411.2409 153.5,-411.2409"/>
<text text-anchor="start" x="158.5" y="-420.3409" font-family="Helvetica,sans-Serif" font-weight="bold" font-size="11.00" fill="#000000">prospects</text>
<text text-anchor="start" x="331.5437" y="-419.3409" font-family="Helvetica,sans-Serif" font-size="11.00" fill="#000000">[table]</text>
<polygon fill="none" stroke="#000000" points="153.5,-389.2409 153.5,-411.2409 366.5,-411.2409 366.5,-389.2409 153.5,-389.2409"/>
<image xlink:href="../../images/primaryKeys.png" width="11px" height="12px" preserveAspectRatio="xMinYMin meet" x="158.5" y="-406.241"/>
<text text-anchor="start" x="173.5" y="-396.3409" font-family="Helvetica,sans-Serif" font-size="11.00" fill="#000000">id</text>
<polygon fill="#c0c0c0" stroke="transparent" points="153.5,-367.2409 153.5,-389.2409 366.5,-389.2409 366.5,-367.2409 153.5,-367.2409"/>
<polygon fill="none" stroke="#000000" points="153.5,-367.2409 153.5,-389.2409 366.5,-389.2409 366.5,-367.2409 153.5,-367.2409"/>
<image xlink:href="../../images/foreignKeys.png" width="11px" height="12px" preserveAspectRatio="xMinYMin meet" x="158.5" y="-384.241"/>
<text text-anchor="start" x="173.5" y="-374.3409" font-family="Helvetica,sans-Serif" font-size="11.00" fill="#000000">modified_user_id</text>
<polygon fill="#c0c0c0" stroke="transparent" points="153.5,-345.2409 153.5,-367.2409 366.5,-367.2409 366.5,-345.2409 153.5,-345.2409"/>
<polygon fill="none" stroke="#000000" points="153.5,-345.2409 153.5,-367.2409 366.5,-367.2409 366.5,-345.2409 153.5,-345.2409"/>
<image xlink:href="../../images/foreignKeys.png" width="11px" height="12px" preserveAspectRatio="xMinYMin meet" x="158.5" y="-362.241"/>
<text text-anchor="start" x="173.5" y="-352.3409" font-family="Helvetica,sans-Serif" font-size="11.00" fill="#000000">created_by</text>
<polygon fill="#ffffff" stroke="transparent" points="153.5,-323.2409 153.5,-345.2409 366.5,-345.2409 366.5,-323.2409 153.5,-323.2409"/>
<polygon fill="none" stroke="#000000" points="153.5,-323.2409 153.5,-345.2409 366.5,-345.2409 366.5,-323.2409 153.5,-323.2409"/>
<text text-anchor="start" x="173.5" y="-330.3409" font-family="Helvetica,sans-Serif" font-size="11.00" fill="#000000">deleted</text>
<polygon fill="#c0c0c0" stroke="transparent" points="153.5,-301.2409 153.5,-323.2409 366.5,-323.2409 366.5,-301.2409 153.5,-301.2409"/>
<polygon fill="none" stroke="#000000" points="153.5,-301.2409 153.5,-323.2409 366.5,-323.2409 366.5,-301.2409 153.5,-301.2409"/>
<image xlink:href="../../images/foreignKeys.png" width="11px" height="12px" preserveAspectRatio="xMinYMin meet" x="158.5" y="-318.241"/>
<text text-anchor="start" x="173.5" y="-308.3409" font-family="Helvetica,sans-Serif" font-size="11.00" fill="#000000">assigned_user_id</text>
<polygon fill="#ffffff" stroke="transparent" points="153.5,-279.2409 153.5,-301.2409 366.5,-301.2409 366.5,-279.2409 153.5,-279.2409"/>
<polygon fill="none" stroke="#000000" points="153.5,-279.2409 153.5,-301.2409 366.5,-301.2409 366.5,-279.2409 153.5,-279.2409"/>
<text text-anchor="start" x="173.5" y="-286.3409" font-family="Helvetica,sans-Serif" font-size="11.00" fill="#000000">first_name</text>
<polygon fill="#ffffff" stroke="transparent" points="153.5,-257.2409 153.5,-279.2409 366.5,-279.2409 366.5,-257.2409 153.5,-257.2409"/>
<polygon fill="none" stroke="#000000" points="153.5,-257.2409 153.5,-279.2409 366.5,-279.2409 366.5,-257.2409 153.5,-257.2409"/>
<text text-anchor="start" x="173.5" y="-264.3409" font-family="Helvetica,sans-Serif" font-size="11.00" fill="#000000">last_name</text>
<polygon fill="#ffffff" stroke="transparent" points="153.5,-235.2409 153.5,-257.2409 366.5,-257.2409 366.5,-235.2409 153.5,-235.2409"/>
<polygon fill="none" stroke="#000000" points="153.5,-235.2409 153.5,-257.2409 366.5,-257.2409 366.5,-235.2409 153.5,-235.2409"/>
<text text-anchor="start" x="173.5" y="-242.3409" font-family="Helvetica,sans-Serif" font-size="11.00" fill="#000000">tracker_key</text>
<polygon fill="none" stroke="#000000" points="153.5,-213.2409 153.5,-235.2409 366.5,-235.2409 366.5,-213.2409 153.5,-213.2409"/>
<image xlink:href="../../images/foreignKeys.png" width="11px" height="12px" preserveAspectRatio="xMinYMin meet" x="158.5" y="-230.241"/>
<text text-anchor="start" x="173.5" y="-220.3409" font-family="Helvetica,sans-Serif" font-size="11.00" fill="#000000">campaign_id</text>
<polygon fill="none" stroke="#000000" points="153.5,-194.2409 153.5,-213.2409 366.5,-213.2409 366.5,-194.2409 153.5,-194.2409"/>
<text text-anchor="start" x="156.5" y="-200.3409" font-family="Helvetica,sans-Serif" font-size="11.00" fill="#000000">...</text>
<polygon fill="#ffffff" stroke="transparent" points="153.5,-175.2409 153.5,-194.2409 250.5,-194.2409 250.5,-175.2409 153.5,-175.2409"/>
<polygon fill="none" stroke="#000000" points="153.5,-175.2409 153.5,-194.2409 250.5,-194.2409 250.5,-175.2409 153.5,-175.2409"/>
<text text-anchor="start" x="156.5" y="-181.3409" font-family="Helvetica,sans-Serif" font-size="11.00" fill="#000000">&lt; 5</text>
<polygon fill="#ffffff" stroke="transparent" points="250.5,-175.2409 250.5,-194.2409 300.5,-194.2409 300.5,-175.2409 250.5,-175.2409"/>
<polygon fill="none" stroke="#000000" points="250.5,-175.2409 250.5,-194.2409 300.5,-194.2409 300.5,-175.2409 250.5,-175.2409"/>
<text text-anchor="start" x="291.3862" y="-181.3409" font-family="Helvetica,sans-Serif" font-size="11.00" fill="#000000"> &#160;</text>
<polygon fill="#ffffff" stroke="transparent" points="300.5,-175.2409 300.5,-194.2409 366.5,-194.2409 366.5,-175.2409 300.5,-175.2409"/>
<polygon fill="none" stroke="#000000" points="300.5,-175.2409 300.5,-194.2409 366.5,-194.2409 366.5,-175.2409 300.5,-175.2409"/>
<text text-anchor="start" x="341.7904" y="-181.3409" font-family="Helvetica,sans-Serif" font-size="11.00" fill="#000000">12 &gt;</text>
</a>
</g>
</g>
<!-- calls&#45;&gt;prospects -->
<g id="edge1" class="edge">
<title>calls:w&#45;&gt;prospects:e</title>
<path fill="none" stroke="#000000" d="M747.0436,-116.2982C734.2341,-114.4895 726.8353,-110.5919 709,-109.2409 642.0806,-104.1715 457.6199,-65.1781 407,-109.2409 357.7537,-152.1079 431.79,-400.2409 366.5,-400.2409"/>
<polygon fill="#000000" stroke="#000000" points="753.517,-116.7202 761.2657,-120.8332 757.5085,-116.9805 761.5,-117.2409 761.5,-117.2409 761.5,-117.2409 757.5085,-116.9805 761.7343,-113.6485 753.517,-116.7202 753.517,-116.7202"/>
<ellipse fill="none" stroke="#000000" cx="750.3237" cy="-116.512" rx="3.2" ry="3.2"/>
</g>
<!-- campaigns -->
<g id="node4" class="node">
<title>campaigns</title>
<g id="a_node4"><a xlink:href="../../tables/campaigns.html" xlink:title="campaigns" target="_top">
<polygon fill="#ffffff" stroke="transparent" points="8,-123.7409 8,-184.7409 104,-184.7409 104,-123.7409 8,-123.7409"/>
<polygon fill="#f5f5f5" stroke="transparent" points="8,-161.2409 8,-184.2409 104,-184.2409 104,-161.2409 8,-161.2409"/>
<polygon fill="none" stroke="#000000" points="8,-161.2409 8,-184.2409 104,-184.2409 104,-161.2409 8,-161.2409"/>
<text text-anchor="start" x="12.9114" y="-170.3409" font-family="Helvetica,sans-Serif" font-weight="bold" font-size="11.00" fill="#000000">campaigns</text>
<text text-anchor="start" x="69.5219" y="-169.3409" font-family="Helvetica,sans-Serif" font-size="11.00" fill="#000000">[table]</text>
<polygon fill="none" stroke="#000000" points="8,-142.2409 8,-161.2409 104,-161.2409 104,-142.2409 8,-142.2409"/>
<text text-anchor="start" x="11" y="-148.3409" font-family="Helvetica,sans-Serif" font-size="11.00" fill="#000000">...</text>
<polygon fill="#ffffff" stroke="transparent" points="8,-123.2409 8,-142.2409 47,-142.2409 47,-123.2409 8,-123.2409"/>
<polygon fill="none" stroke="#000000" points="8,-123.2409 8,-142.2409 47,-142.2409 47,-123.2409 8,-123.2409"/>
<text text-anchor="start" x="11" y="-129.3409" font-family="Helvetica,sans-Serif" font-size="11.00" fill="#000000">&lt; 4</text>
<polygon fill="#ffffff" stroke="transparent" points="47,-123.2409 47,-142.2409 68,-142.2409 68,-123.2409 47,-123.2409"/>
<polygon fill="none" stroke="#000000" points="47,-123.2409 47,-142.2409 68,-142.2409 68,-123.2409 47,-123.2409"/>
<text text-anchor="start" x="58.8862" y="-129.3409" font-family="Helvetica,sans-Serif" font-size="11.00" fill="#000000"> &#160;</text>
<polygon fill="#ffffff" stroke="transparent" points="68,-123.2409 68,-142.2409 104,-142.2409 104,-123.2409 68,-123.2409"/>
<polygon fill="none" stroke="#000000" points="68,-123.2409 68,-142.2409 104,-142.2409 104,-123.2409 68,-123.2409"/>
<text text-anchor="start" x="79.2904" y="-129.3409" font-family="Helvetica,sans-Serif" font-size="11.00" fill="#000000">13 &gt;</text>
</a>
</g>
</g>
<!-- prospects&#45;&gt;campaigns -->
<g id="edge20" class="edge">
<title>prospects:w&#45;&gt;campaigns:e</title>
<path fill="none" stroke="#000000" d="M139.5932,-219.4511C121.6686,-203.2106 137.075,-151.2409 104,-151.2409"/>
<polygon fill="#000000" stroke="#000000" points="145.9361,-221.6357 152.3277,-227.6446 149.718,-222.9383 153.5,-224.2409 153.5,-224.2409 153.5,-224.2409 149.718,-222.9383 154.6723,-220.8371 145.9361,-221.6357 145.9361,-221.6357"/>
<ellipse fill="none" stroke="#000000" cx="142.9105" cy="-220.5936" rx="3.2" ry="3.2"/>
</g>
<!-- jjwg_maps -->
<g id="node11" class="node">
<title>jjwg_maps</title>
<g id="a_node11"><a xlink:href="../../tables/jjwg_maps.html" xlink:title="jjwg_maps" target="_top">
<polygon fill="#ffffff" stroke="transparent" points="9,-733.7409 9,-794.7409 103,-794.7409 103,-733.7409 9,-733.7409"/>
<polygon fill="#f5f5f5" stroke="transparent" points="9,-771.2409 9,-794.2409 103,-794.2409 103,-771.2409 9,-771.2409"/>
<polygon fill="none" stroke="#000000" points="9,-771.2409 9,-794.2409 103,-794.2409 103,-771.2409 9,-771.2409"/>
<text text-anchor="start" x="13.5279" y="-780.3409" font-family="Helvetica,sans-Serif" font-weight="bold" font-size="11.00" fill="#000000">jjwg_maps</text>
<text text-anchor="start" x="68.5219" y="-779.3409" font-family="Helvetica,sans-Serif" font-size="11.00" fill="#000000">[table]</text>
<polygon fill="none" stroke="#000000" points="9,-752.2409 9,-771.2409 103,-771.2409 103,-752.2409 9,-752.2409"/>
<text text-anchor="start" x="12" y="-758.3409" font-family="Helvetica,sans-Serif" font-size="11.00" fill="#000000">...</text>
<polygon fill="#ffffff" stroke="transparent" points="9,-733.2409 9,-752.2409 47,-752.2409 47,-733.2409 9,-733.2409"/>
<polygon fill="none" stroke="#000000" points="9,-733.2409 9,-752.2409 47,-752.2409 47,-733.2409 9,-733.2409"/>
<text text-anchor="start" x="12" y="-739.3409" font-family="Helvetica,sans-Serif" font-size="11.00" fill="#000000">&lt; 3</text>
<polygon fill="#ffffff" stroke="transparent" points="47,-733.2409 47,-752.2409 67,-752.2409 67,-733.2409 47,-733.2409"/>
<polygon fill="none" stroke="#000000" points="47,-733.2409 47,-752.2409 67,-752.2409 67,-733.2409 47,-733.2409"/>
<text text-anchor="start" x="57.8862" y="-739.3409" font-family="Helvetica,sans-Serif" font-size="11.00" fill="#000000"> &#160;</text>
<polygon fill="#ffffff" stroke="transparent" points="67,-733.2409 67,-752.2409 103,-752.2409 103,-733.2409 67,-733.2409"/>
<polygon fill="none" stroke="#000000" points="67,-733.2409 67,-752.2409 103,-752.2409 103,-733.2409 67,-733.2409"/>
<text text-anchor="start" x="78.2904" y="-739.3409" font-family="Helvetica,sans-Serif" font-size="11.00" fill="#000000">12 &gt;</text>
</a>
</g>
</g>
<!-- prospects&#45;&gt;jjwg_maps -->
<g id="edge21" class="edge">
<title>prospects:w&#45;&gt;jjwg_maps:e</title>
<path fill="none" stroke="#000000" d="M142.8154,-400.8265C4.075,-416.9644 261.2097,-761.2409 103,-761.2409"/>
<polygon fill="#000000" stroke="#000000" points="152.4823,-396.2906 152.9201,-404.2786 151.3225,-404.3662 150.8847,-396.3782 152.4823,-396.2906"/>
<polyline fill="none" stroke="#000000" points="153.5,-400.2409 149.506,-400.4598 "/>
<ellipse fill="none" stroke="#000000" cx="146.3108" cy="-400.635" rx="3.2" ry="3.2"/>
</g>
<!-- campaign_log -->
<g id="node3" class="node">
<title>campaign_log</title>
<g id="a_node3"><a xlink:href="../../tables/campaign_log.html" xlink:title="campaign_log" target="_top">
<polygon fill="#ffffff" stroke="transparent" points="502.5,-143.7409 502.5,-204.7409 613.5,-204.7409 613.5,-143.7409 502.5,-143.7409"/>
<polygon fill="#f5f5f5" stroke="transparent" points="503,-181.2409 503,-204.2409 614,-204.2409 614,-181.2409 503,-181.2409"/>
<polygon fill="none" stroke="#000000" points="503,-181.2409 503,-204.2409 614,-204.2409 614,-181.2409 503,-181.2409"/>
<text text-anchor="start" x="507.7686" y="-190.3409" font-family="Helvetica,sans-Serif" font-weight="bold" font-size="11.00" fill="#000000">campaign_log</text>
<text text-anchor="start" x="579.5219" y="-189.3409" font-family="Helvetica,sans-Serif" font-size="11.00" fill="#000000">[table]</text>
<polygon fill="none" stroke="#000000" points="503,-162.2409 503,-181.2409 614,-181.2409 614,-162.2409 503,-162.2409"/>
<text text-anchor="start" x="506" y="-168.3409" font-family="Helvetica,sans-Serif" font-size="11.00" fill="#000000">...</text>
<polygon fill="#ffffff" stroke="transparent" points="503,-143.2409 503,-162.2409 552,-162.2409 552,-143.2409 503,-143.2409"/>
<polygon fill="none" stroke="#000000" points="503,-143.2409 503,-162.2409 552,-162.2409 552,-143.2409 503,-143.2409"/>
<text text-anchor="start" x="506" y="-149.3409" font-family="Helvetica,sans-Serif" font-size="11.00" fill="#000000">&lt; 5</text>
<polygon fill="#ffffff" stroke="transparent" points="552,-143.2409 552,-162.2409 578,-162.2409 578,-143.2409 552,-143.2409"/>
<polygon fill="none" stroke="#000000" points="552,-143.2409 552,-162.2409 578,-162.2409 578,-143.2409 552,-143.2409"/>
<text text-anchor="start" x="568.8862" y="-149.3409" font-family="Helvetica,sans-Serif" font-size="11.00" fill="#000000"> &#160;</text>
<polygon fill="#ffffff" stroke="transparent" points="578,-143.2409 578,-162.2409 614,-162.2409 614,-143.2409 578,-143.2409"/>
<polygon fill="none" stroke="#000000" points="578,-143.2409 578,-162.2409 614,-162.2409 614,-143.2409 578,-143.2409"/>
<text text-anchor="start" x="595.4053" y="-149.3409" font-family="Helvetica,sans-Serif" font-size="11.00" fill="#000000">5 &gt;</text>
</a>
</g>
</g>
<!-- campaign_log&#45;&gt;prospects -->
<g id="edge3" class="edge">
<title>campaign_log:w&#45;&gt;prospects:e</title>
<path fill="none" stroke="#000000" d="M488.3294,-171.6368C451.0348,-173.8455 433.1704,-185.7728 407,-219.2409 356.2218,-284.1784 448.9337,-400.2409 366.5,-400.2409"/>
<polygon fill="#000000" stroke="#000000" points="495.0029,-171.4567 503.0971,-174.8395 499.0015,-171.3488 503,-171.2409 503,-171.2409 503,-171.2409 499.0015,-171.3488 502.9029,-167.6422 495.0029,-171.4567 495.0029,-171.4567"/>
<ellipse fill="none" stroke="#000000" cx="491.8041" cy="-171.5431" rx="3.2" ry="3.2"/>
</g>
<!-- campaign_log&#45;&gt;campaigns -->
<g id="edge2" class="edge">
<title>campaign_log:w&#45;&gt;campaigns:e</title>
<path fill="none" stroke="#000000" d="M488.4642,-170.9104C412.893,-168.31 145.0078,-151.2409 104,-151.2409"/>
<polygon fill="#000000" stroke="#000000" points="495.0021,-171.059 502.9182,-174.8399 499.001,-171.1499 503,-171.2409 503,-171.2409 503,-171.2409 499.001,-171.1499 503.0818,-167.6418 495.0021,-171.059 495.0021,-171.059"/>
<ellipse fill="none" stroke="#000000" cx="491.8029" cy="-170.9862" rx="3.2" ry="3.2"/>
</g>
<!-- email_addr_bean_rel -->
<g id="node5" class="node">
<title>email_addr_bean_rel</title>
<g id="a_node5"><a xlink:href="../../tables/email_addr_bean_rel.html" xlink:title="email_addr_bean_rel" target="_top">
<polygon fill="#ffffff" stroke="transparent" points="485,-675.7409 485,-736.7409 631,-736.7409 631,-675.7409 485,-675.7409"/>
<polygon fill="#f5f5f5" stroke="transparent" points="485,-713.2409 485,-736.2409 631,-736.2409 631,-713.2409 485,-713.2409"/>
<polygon fill="none" stroke="#000000" points="485,-713.2409 485,-736.2409 631,-736.2409 631,-713.2409 485,-713.2409"/>
<text text-anchor="start" x="489.849" y="-722.3409" font-family="Helvetica,sans-Serif" font-weight="bold" font-size="11.00" fill="#000000">email_addr_bean_rel</text>
<text text-anchor="start" x="596.5219" y="-721.3409" font-family="Helvetica,sans-Serif" font-size="11.00" fill="#000000">[table]</text>
<polygon fill="none" stroke="#000000" points="485,-694.2409 485,-713.2409 631,-713.2409 631,-694.2409 485,-694.2409"/>
<text text-anchor="start" x="488" y="-700.3409" font-family="Helvetica,sans-Serif" font-size="11.00" fill="#000000">...</text>
<polygon fill="#ffffff" stroke="transparent" points="485,-675.2409 485,-694.2409 556,-694.2409 556,-675.2409 485,-675.2409"/>
<polygon fill="none" stroke="#000000" points="485,-675.2409 485,-694.2409 556,-694.2409 556,-675.2409 485,-675.2409"/>
<text text-anchor="start" x="488" y="-681.3409" font-family="Helvetica,sans-Serif" font-size="11.00" fill="#000000">&lt; 6</text>
<polygon fill="#ffffff" stroke="transparent" points="556,-675.2409 556,-694.2409 593,-694.2409 593,-675.2409 556,-675.2409"/>
<polygon fill="none" stroke="#000000" points="556,-675.2409 556,-694.2409 593,-694.2409 593,-675.2409 556,-675.2409"/>
<text text-anchor="start" x="583.8862" y="-681.3409" font-family="Helvetica,sans-Serif" font-size="11.00" fill="#000000"> &#160;</text>
<polygon fill="#ffffff" stroke="transparent" points="593,-675.2409 593,-694.2409 631,-694.2409 631,-675.2409 593,-675.2409"/>
<polygon fill="none" stroke="#000000" points="593,-675.2409 593,-694.2409 631,-694.2409 631,-675.2409 593,-675.2409"/>
<text text-anchor="start" x="621.8862" y="-681.3409" font-family="Helvetica,sans-Serif" font-size="11.00" fill="#000000"> &#160;</text>
</a>
</g>
</g>
<!-- email_addr_bean_rel&#45;&gt;prospects -->
<g id="edge4" class="edge">
<title>email_addr_bean_rel:w&#45;&gt;prospects:e</title>
<path fill="none" stroke="#000000" d="M470.3442,-702.8075C441.7877,-700.8912 426.7348,-692.0502 407,-665.2409 371.6841,-617.265 426.0727,-400.2409 366.5,-400.2409"/>
<polygon fill="#000000" stroke="#000000" points="477.0035,-703.0044 484.8936,-706.8393 481.0017,-703.1226 485,-703.2409 485,-703.2409 485,-703.2409 481.0017,-703.1226 485.1064,-699.6424 477.0035,-703.0044 477.0035,-703.0044"/>
<ellipse fill="none" stroke="#000000" cx="473.8049" cy="-702.9098" rx="3.2" ry="3.2"/>
</g>
<!-- emails -->
<g id="node6" class="node">
<title>emails</title>
<g id="a_node6"><a xlink:href="../../tables/emails.html" xlink:title="emails" target="_top">
<polygon fill="#ffffff" stroke="transparent" points="756.5,-199.7409 756.5,-260.7409 830.5,-260.7409 830.5,-199.7409 756.5,-199.7409"/>
<polygon fill="#f5f5f5" stroke="transparent" points="756.5,-237.2409 756.5,-260.2409 830.5,-260.2409 830.5,-237.2409 756.5,-237.2409"/>
<polygon fill="none" stroke="#000000" points="756.5,-237.2409 756.5,-260.2409 830.5,-260.2409 830.5,-237.2409 756.5,-237.2409"/>
<text text-anchor="start" x="761.1133" y="-246.3409" font-family="Helvetica,sans-Serif" font-weight="bold" font-size="11.00" fill="#000000">emails</text>
<text text-anchor="start" x="796.0219" y="-245.3409" font-family="Helvetica,sans-Serif" font-size="11.00" fill="#000000">[table]</text>
<polygon fill="none" stroke="#000000" points="756.5,-218.2409 756.5,-237.2409 830.5,-237.2409 830.5,-218.2409 756.5,-218.2409"/>
<text text-anchor="start" x="759.5" y="-224.3409" font-family="Helvetica,sans-Serif" font-size="11.00" fill="#000000">...</text>
<polygon fill="#ffffff" stroke="transparent" points="756.5,-199.2409 756.5,-218.2409 790.5,-218.2409 790.5,-199.2409 756.5,-199.2409"/>
<polygon fill="none" stroke="#000000" points="756.5,-199.2409 756.5,-218.2409 790.5,-218.2409 790.5,-199.2409 756.5,-199.2409"/>
<text text-anchor="start" x="759.5" y="-205.3409" font-family="Helvetica,sans-Serif" font-size="11.00" fill="#000000">&lt; 12</text>
<polygon fill="#ffffff" stroke="transparent" points="790.5,-199.2409 790.5,-218.2409 805.5,-218.2409 805.5,-199.2409 790.5,-199.2409"/>
<polygon fill="none" stroke="#000000" points="790.5,-199.2409 790.5,-218.2409 805.5,-218.2409 805.5,-199.2409 790.5,-199.2409"/>
<text text-anchor="start" x="796.3862" y="-205.3409" font-family="Helvetica,sans-Serif" font-size="11.00" fill="#000000"> &#160;</text>
<polygon fill="#ffffff" stroke="transparent" points="805.5,-199.2409 805.5,-218.2409 830.5,-218.2409 830.5,-199.2409 805.5,-199.2409"/>
<polygon fill="none" stroke="#000000" points="805.5,-199.2409 805.5,-218.2409 830.5,-218.2409 830.5,-199.2409 805.5,-199.2409"/>
<text text-anchor="start" x="811.9053" y="-205.3409" font-family="Helvetica,sans-Serif" font-size="11.00" fill="#000000">3 &gt;</text>
</a>
</g>
</g>
<!-- emails&#45;&gt;prospects -->
<g id="edge6" class="edge">
<title>emails:w&#45;&gt;prospects:e</title>
<path fill="none" stroke="#000000" d="M742.0543,-226.944C655.2892,-223.7645 463.9362,-197.006 407,-243.2409 351.0592,-288.6673 438.562,-400.2409 366.5,-400.2409"/>
<polygon fill="#000000" stroke="#000000" points="748.5017,-227.0765 756.426,-230.8401 752.5008,-227.1587 756.5,-227.2409 756.5,-227.2409 756.5,-227.2409 752.5008,-227.1587 756.574,-223.6416 748.5017,-227.0765 748.5017,-227.0765"/>
<ellipse fill="none" stroke="#000000" cx="745.3024" cy="-227.0107" rx="3.2" ry="3.2"/>
</g>
<!-- emails&#45;&gt;campaign_log -->
<g id="edge5" class="edge">
<title>emails:w&#45;&gt;campaign_log:e</title>
<path fill="none" stroke="#000000" d="M745.8688,-226.7567C687.567,-221.2833 678.3269,-171.2409 614,-171.2409"/>
<polygon fill="#000000" stroke="#000000" points="755.8828,-223.2086 755.5188,-231.2003 753.9205,-231.1275 754.2845,-223.1358 755.8828,-223.2086"/>
<polyline fill="none" stroke="#000000" points="756.5,-227.2409 752.5041,-227.0589 "/>
<ellipse fill="none" stroke="#000000" cx="749.3075" cy="-226.9133" rx="3.2" ry="3.2"/>
</g>
<!-- emails_beans -->
<g id="node7" class="node">
<title>emails_beans</title>
<g id="a_node7"><a xlink:href="../../tables/emails_beans.html" xlink:title="emails_beans" target="_top">
<polygon fill="#ffffff" stroke="transparent" points="886,-367.7409 886,-428.7409 996,-428.7409 996,-367.7409 886,-367.7409"/>
<polygon fill="#f5f5f5" stroke="transparent" points="886,-405.2409 886,-428.2409 996,-428.2409 996,-405.2409 886,-405.2409"/>
<polygon fill="none" stroke="#000000" points="886,-405.2409 886,-428.2409 996,-428.2409 996,-405.2409 886,-405.2409"/>
<text text-anchor="start" x="890.576" y="-414.3409" font-family="Helvetica,sans-Serif" font-weight="bold" font-size="11.00" fill="#000000">emails_beans</text>
<text text-anchor="start" x="961.5219" y="-413.3409" font-family="Helvetica,sans-Serif" font-size="11.00" fill="#000000">[table]</text>
<polygon fill="none" stroke="#000000" points="886,-386.2409 886,-405.2409 996,-405.2409 996,-386.2409 886,-386.2409"/>
<text text-anchor="start" x="889" y="-392.3409" font-family="Helvetica,sans-Serif" font-size="11.00" fill="#000000">...</text>
<polygon fill="#ffffff" stroke="transparent" points="886,-367.2409 886,-386.2409 942,-386.2409 942,-367.2409 886,-367.2409"/>
<polygon fill="none" stroke="#000000" points="886,-367.2409 886,-386.2409 942,-386.2409 942,-367.2409 886,-367.2409"/>
<text text-anchor="start" x="889" y="-373.3409" font-family="Helvetica,sans-Serif" font-size="11.00" fill="#000000">&lt; 14</text>
<polygon fill="#ffffff" stroke="transparent" points="942,-367.2409 942,-386.2409 969,-386.2409 969,-367.2409 942,-367.2409"/>
<polygon fill="none" stroke="#000000" points="942,-367.2409 942,-386.2409 969,-386.2409 969,-367.2409 942,-367.2409"/>
<text text-anchor="start" x="959.8862" y="-373.3409" font-family="Helvetica,sans-Serif" font-size="11.00" fill="#000000"> &#160;</text>
<polygon fill="#ffffff" stroke="transparent" points="969,-367.2409 969,-386.2409 996,-386.2409 996,-367.2409 969,-367.2409"/>
<polygon fill="none" stroke="#000000" points="969,-367.2409 969,-386.2409 996,-386.2409 996,-367.2409 969,-367.2409"/>
<text text-anchor="start" x="986.8862" y="-373.3409" font-family="Helvetica,sans-Serif" font-size="11.00" fill="#000000"> &#160;</text>
</a>
</g>
</g>
<!-- emails_beans&#45;&gt;prospects -->
<g id="edge8" class="edge">
<title>emails_beans:w&#45;&gt;prospects:e</title>
<path fill="none" stroke="#000000" d="M871.3921,-395.6966C802.0142,-400.1696 785.0836,-436.296 709,-447.2409 642.5727,-456.7966 468.008,-475.2037 407,-447.2409 381.9332,-435.7516 394.0744,-400.2409 366.5,-400.2409"/>
<polygon fill="#000000" stroke="#000000" points="878.0039,-395.4904 886.1123,-398.8391 882.0019,-395.3656 886,-395.2409 886,-395.2409 886,-395.2409 882.0019,-395.3656 885.8877,-391.6426 878.0039,-395.4904 878.0039,-395.4904"/>
<ellipse fill="none" stroke="#000000" cx="874.8054" cy="-395.5902" rx="3.2" ry="3.2"/>
</g>
<!-- emails_beans&#45;&gt;emails -->
<g id="edge10" class="edge">
<title>emails_beans:w&#45;&gt;emails:e</title>
<path fill="none" stroke="#000000" d="M871.6423,-392.7356C821.1314,-371.837 903.4529,-227.2409 830.5,-227.2409"/>
<polygon fill="#000000" stroke="#000000" points="878.1191,-393.8657 885.3812,-398.7873 882.0595,-394.5533 886,-395.2409 886,-395.2409 886,-395.2409 882.0595,-394.5533 886.6188,-391.6944 878.1191,-393.8657 878.1191,-393.8657"/>
<ellipse fill="none" stroke="#000000" cx="874.9667" cy="-393.3156" rx="3.2" ry="3.2"/>
</g>
<!-- meetings -->
<g id="node8" class="node">
<title>meetings</title>
<g id="a_node8"><a xlink:href="../../tables/meetings.html" xlink:title="meetings" target="_top">
<polygon fill="#ffffff" stroke="transparent" points="750,-471.7409 750,-532.7409 837,-532.7409 837,-471.7409 750,-471.7409"/>
<polygon fill="#f5f5f5" stroke="transparent" points="750.5,-509.2409 750.5,-532.2409 837.5,-532.2409 837.5,-509.2409 750.5,-509.2409"/>
<polygon fill="none" stroke="#000000" points="750.5,-509.2409 750.5,-532.2409 837.5,-532.2409 837.5,-509.2409 750.5,-509.2409"/>
<text text-anchor="start" x="755.1904" y="-518.3409" font-family="Helvetica,sans-Serif" font-weight="bold" font-size="11.00" fill="#000000">meetings</text>
<text text-anchor="start" x="803.0219" y="-517.3409" font-family="Helvetica,sans-Serif" font-size="11.00" fill="#000000">[table]</text>
<polygon fill="none" stroke="#000000" points="750.5,-490.2409 750.5,-509.2409 837.5,-509.2409 837.5,-490.2409 750.5,-490.2409"/>
<text text-anchor="start" x="753.5" y="-496.3409" font-family="Helvetica,sans-Serif" font-size="11.00" fill="#000000">...</text>
<polygon fill="#ffffff" stroke="transparent" points="750.5,-471.2409 750.5,-490.2409 790.5,-490.2409 790.5,-471.2409 750.5,-471.2409"/>
<polygon fill="none" stroke="#000000" points="750.5,-471.2409 750.5,-490.2409 790.5,-490.2409 790.5,-471.2409 750.5,-471.2409"/>
<text text-anchor="start" x="753.5" y="-477.3409" font-family="Helvetica,sans-Serif" font-size="11.00" fill="#000000">&lt; 13</text>
<polygon fill="#ffffff" stroke="transparent" points="790.5,-471.2409 790.5,-490.2409 809.5,-490.2409 809.5,-471.2409 790.5,-471.2409"/>
<polygon fill="none" stroke="#000000" points="790.5,-471.2409 790.5,-490.2409 809.5,-490.2409 809.5,-471.2409 790.5,-471.2409"/>
<text text-anchor="start" x="800.3862" y="-477.3409" font-family="Helvetica,sans-Serif" font-size="11.00" fill="#000000"> &#160;</text>
<polygon fill="#ffffff" stroke="transparent" points="809.5,-471.2409 809.5,-490.2409 837.5,-490.2409 837.5,-471.2409 809.5,-471.2409"/>
<polygon fill="none" stroke="#000000" points="809.5,-471.2409 809.5,-490.2409 837.5,-490.2409 837.5,-471.2409 809.5,-471.2409"/>
<text text-anchor="start" x="818.9053" y="-477.3409" font-family="Helvetica,sans-Serif" font-size="11.00" fill="#000000">7 &gt;</text>
</a>
</g>
</g>
<!-- emails_beans&#45;&gt;meetings -->
<g id="edge7" class="edge">
<title>emails_beans:w&#45;&gt;meetings:e</title>
<path fill="none" stroke="#000000" d="M872.0389,-399.1908C846.1032,-418.1876 882.5246,-499.2409 837.5,-499.2409"/>
<polygon fill="#000000" stroke="#000000" points="878.3022,-397.4188 886.9801,-398.7049 882.1511,-396.3298 886,-395.2409 886,-395.2409 886,-395.2409 882.1511,-396.3298 885.0199,-391.7768 878.3022,-397.4188 878.3022,-397.4188"/>
<ellipse fill="none" stroke="#000000" cx="875.223" cy="-398.29" rx="3.2" ry="3.2"/>
</g>
<!-- tasks -->
<g id="node9" class="node">
<title>tasks</title>
<g id="a_node9"><a xlink:href="../../tables/tasks.html" xlink:title="tasks" target="_top">
<polygon fill="#ffffff" stroke="transparent" points="759.5,-281.7409 759.5,-342.7409 827.5,-342.7409 827.5,-281.7409 759.5,-281.7409"/>
<polygon fill="#f5f5f5" stroke="transparent" points="759.5,-319.2409 759.5,-342.2409 827.5,-342.2409 827.5,-319.2409 759.5,-319.2409"/>
<polygon fill="none" stroke="#000000" points="759.5,-319.2409 759.5,-342.2409 827.5,-342.2409 827.5,-319.2409 759.5,-319.2409"/>
<text text-anchor="start" x="764.1641" y="-328.3409" font-family="Helvetica,sans-Serif" font-weight="bold" font-size="11.00" fill="#000000">tasks</text>
<text text-anchor="start" x="793.0219" y="-327.3409" font-family="Helvetica,sans-Serif" font-size="11.00" fill="#000000">[table]</text>
<polygon fill="none" stroke="#000000" points="759.5,-300.2409 759.5,-319.2409 827.5,-319.2409 827.5,-300.2409 759.5,-300.2409"/>
<text text-anchor="start" x="762.5" y="-306.3409" font-family="Helvetica,sans-Serif" font-size="11.00" fill="#000000">...</text>
<polygon fill="#ffffff" stroke="transparent" points="759.5,-281.2409 759.5,-300.2409 790.5,-300.2409 790.5,-281.2409 759.5,-281.2409"/>
<polygon fill="none" stroke="#000000" points="759.5,-281.2409 759.5,-300.2409 790.5,-300.2409 790.5,-281.2409 759.5,-281.2409"/>
<text text-anchor="start" x="762.5" y="-287.3409" font-family="Helvetica,sans-Serif" font-size="11.00" fill="#000000">&lt; 14</text>
<polygon fill="#ffffff" stroke="transparent" points="790.5,-281.2409 790.5,-300.2409 804.5,-300.2409 804.5,-281.2409 790.5,-281.2409"/>
<polygon fill="none" stroke="#000000" points="790.5,-281.2409 790.5,-300.2409 804.5,-300.2409 804.5,-281.2409 790.5,-281.2409"/>
<text text-anchor="start" x="795.3862" y="-287.3409" font-family="Helvetica,sans-Serif" font-size="11.00" fill="#000000"> &#160;</text>
<polygon fill="#ffffff" stroke="transparent" points="804.5,-281.2409 804.5,-300.2409 827.5,-300.2409 827.5,-281.2409 804.5,-281.2409"/>
<polygon fill="none" stroke="#000000" points="804.5,-281.2409 804.5,-300.2409 827.5,-300.2409 827.5,-281.2409 804.5,-281.2409"/>
<text text-anchor="start" x="808.9053" y="-287.3409" font-family="Helvetica,sans-Serif" font-size="11.00" fill="#000000">3 &gt;</text>
</a>
</g>
</g>
<!-- emails_beans&#45;&gt;tasks -->
<g id="edge9" class="edge">
<title>emails_beans:w&#45;&gt;tasks:e</title>
<path fill="none" stroke="#000000" d="M871.7767,-391.3221C847.1944,-374.498 867.7681,-309.2409 827.5,-309.2409"/>
<polygon fill="#000000" stroke="#000000" points="878.2874,-393.1159 885.0438,-398.7115 882.1437,-394.1784 886,-395.2409 886,-395.2409 886,-395.2409 882.1437,-394.1784 886.9562,-391.7702 878.2874,-393.1159 878.2874,-393.1159"/>
<ellipse fill="none" stroke="#000000" cx="875.2023" cy="-392.2659" rx="3.2" ry="3.2"/>
</g>
<!-- meetings&#45;&gt;prospects -->
<g id="edge13" class="edge">
<title>meetings:w&#45;&gt;prospects:e</title>
<path fill="none" stroke="#000000" d="M736.0582,-499.3482C651.0506,-500.4512 467.962,-508.9086 407,-470.2409 376.6478,-450.9887 402.443,-400.2409 366.5,-400.2409"/>
<polygon fill="#000000" stroke="#000000" points="742.5002,-499.3004 750.5268,-502.8408 746.5001,-499.2706 750.5,-499.2409 750.5,-499.2409 750.5,-499.2409 746.5001,-499.2706 750.4732,-495.641 742.5002,-499.3004 742.5002,-499.3004"/>
<ellipse fill="none" stroke="#000000" cx="739.3003" cy="-499.3242" rx="3.2" ry="3.2"/>
</g>
<!-- meetings&#45;&gt;jjwg_maps -->
<g id="edge12" class="edge">
<title>meetings:w&#45;&gt;jjwg_maps:e</title>
<path fill="none" stroke="#000000" d="M740.3082,-502.2421C702.0941,-528.1056 748.2585,-713.2199 709,-747.2409 658.1014,-791.349 170.3513,-761.2409 103,-761.2409"/>
<polygon fill="#000000" stroke="#000000" points="748.6026,-495.6298 750.8625,-503.3039 749.3277,-503.7559 747.0678,-496.0817 748.6026,-495.6298"/>
<polyline fill="none" stroke="#000000" points="750.5,-499.2409 746.6629,-500.3708 "/>
<ellipse fill="none" stroke="#000000" cx="743.5932" cy="-501.2748" rx="3.2" ry="3.2"/>
</g>
<!-- tasks&#45;&gt;prospects -->
<g id="edge31" class="edge">
<title>tasks:w&#45;&gt;prospects:e</title>
<path fill="none" stroke="#000000" d="M745.274,-305.6437C731.6169,-297.2787 730.3371,-276.6675 709,-269.2409 645.6184,-247.1802 461.0102,-229.4062 407,-269.2409 357.9553,-305.4133 427.4412,-400.2409 366.5,-400.2409"/>
<polygon fill="#000000" stroke="#000000" points="751.7441,-307.2797 758.6175,-312.731 755.6221,-308.2603 759.5,-309.2409 759.5,-309.2409 759.5,-309.2409 755.6221,-308.2603 760.3825,-305.7507 751.7441,-307.2797 751.7441,-307.2797"/>
<ellipse fill="none" stroke="#000000" cx="748.6417" cy="-306.4952" rx="3.2" ry="3.2"/>
</g>
<!-- fp_events_prospects_1_c -->
<g id="node10" class="node">
<title>fp_events_prospects_1_c</title>
<g id="a_node10"><a xlink:href="../../tables/fp_events_prospects_1_c.html" xlink:title="fp_events_prospects_1_c" target="_top">
<polygon fill="#ffffff" stroke="transparent" points="474,-593.7409 474,-654.7409 642,-654.7409 642,-593.7409 474,-593.7409"/>
<polygon fill="#f5f5f5" stroke="transparent" points="474,-631.2409 474,-654.2409 642,-654.2409 642,-631.2409 474,-631.2409"/>
<polygon fill="none" stroke="#000000" points="474,-631.2409 474,-654.2409 642,-654.2409 642,-631.2409 474,-631.2409"/>
<text text-anchor="start" x="478.8369" y="-640.3409" font-family="Helvetica,sans-Serif" font-weight="bold" font-size="11.00" fill="#000000">fp_events_prospects_1_c</text>
<text text-anchor="start" x="607.5219" y="-639.3409" font-family="Helvetica,sans-Serif" font-size="11.00" fill="#000000">[table]</text>
<polygon fill="none" stroke="#000000" points="474,-612.2409 474,-631.2409 642,-631.2409 642,-612.2409 474,-612.2409"/>
<text text-anchor="start" x="477" y="-618.3409" font-family="Helvetica,sans-Serif" font-size="11.00" fill="#000000">...</text>
<polygon fill="#ffffff" stroke="transparent" points="474,-593.2409 474,-612.2409 556,-612.2409 556,-593.2409 474,-593.2409"/>
<polygon fill="none" stroke="#000000" points="474,-593.2409 474,-612.2409 556,-612.2409 556,-593.2409 474,-593.2409"/>
<text text-anchor="start" x="477" y="-599.3409" font-family="Helvetica,sans-Serif" font-size="11.00" fill="#000000">&lt; 2</text>
<polygon fill="#ffffff" stroke="transparent" points="556,-593.2409 556,-612.2409 599,-612.2409 599,-593.2409 556,-593.2409"/>
<polygon fill="none" stroke="#000000" points="556,-593.2409 556,-612.2409 599,-612.2409 599,-593.2409 556,-593.2409"/>
<text text-anchor="start" x="589.8862" y="-599.3409" font-family="Helvetica,sans-Serif" font-size="11.00" fill="#000000"> &#160;</text>
<polygon fill="#ffffff" stroke="transparent" points="599,-593.2409 599,-612.2409 642,-612.2409 642,-593.2409 599,-593.2409"/>
<polygon fill="none" stroke="#000000" points="599,-593.2409 599,-612.2409 642,-612.2409 642,-593.2409 599,-593.2409"/>
<text text-anchor="start" x="632.8862" y="-599.3409" font-family="Helvetica,sans-Serif" font-size="11.00" fill="#000000"> &#160;</text>
</a>
</g>
</g>
<!-- fp_events_prospects_1_c&#45;&gt;prospects -->
<g id="edge11" class="edge">
<title>fp_events_prospects_1_c:w&#45;&gt;prospects:e</title>
<path fill="none" stroke="#000000" d="M459.437,-620.4491C435.6908,-617.5534 424.1648,-606.4722 407,-583.2409 357.498,-516.2434 449.8013,-400.2409 366.5,-400.2409"/>
<polygon fill="#000000" stroke="#000000" points="466.0118,-620.8065 473.8045,-624.8355 470.0059,-621.0237 474,-621.2409 474,-621.2409 474,-621.2409 470.0059,-621.0237 474.1955,-617.6462 466.0118,-620.8065 466.0118,-620.8065"/>
<ellipse fill="none" stroke="#000000" cx="462.8165" cy="-620.6328" rx="3.2" ry="3.2"/>
</g>
<!-- notes -->
<g id="node12" class="node">
<title>notes</title>
<g id="a_node12"><a xlink:href="../../tables/notes.html" xlink:title="notes" target="_top">
<polygon fill="#ffffff" stroke="transparent" points="906.5,-205.7409 906.5,-266.7409 975.5,-266.7409 975.5,-205.7409 906.5,-205.7409"/>
<polygon fill="#f5f5f5" stroke="transparent" points="907,-243.2409 907,-266.2409 976,-266.2409 976,-243.2409 907,-243.2409"/>
<polygon fill="none" stroke="#000000" points="907,-243.2409 907,-266.2409 976,-266.2409 976,-243.2409 907,-243.2409"/>
<text text-anchor="start" x="911.5492" y="-252.3409" font-family="Helvetica,sans-Serif" font-weight="bold" font-size="11.00" fill="#000000">notes</text>
<text text-anchor="start" x="941.5219" y="-251.3409" font-family="Helvetica,sans-Serif" font-size="11.00" fill="#000000">[table]</text>
<polygon fill="none" stroke="#000000" points="907,-224.2409 907,-243.2409 976,-243.2409 976,-224.2409 907,-224.2409"/>
<text text-anchor="start" x="910" y="-230.3409" font-family="Helvetica,sans-Serif" font-size="11.00" fill="#000000">...</text>
<polygon fill="#ffffff" stroke="transparent" points="907,-205.2409 907,-224.2409 938,-224.2409 938,-205.2409 907,-205.2409"/>
<polygon fill="none" stroke="#000000" points="907,-205.2409 907,-224.2409 938,-224.2409 938,-205.2409 907,-205.2409"/>
<text text-anchor="start" x="910" y="-211.3409" font-family="Helvetica,sans-Serif" font-size="11.00" fill="#000000">&lt; 19</text>
<polygon fill="#ffffff" stroke="transparent" points="938,-205.2409 938,-224.2409 952,-224.2409 952,-205.2409 938,-205.2409"/>
<polygon fill="none" stroke="#000000" points="938,-205.2409 938,-224.2409 952,-224.2409 952,-205.2409 938,-205.2409"/>
<text text-anchor="start" x="942.8862" y="-211.3409" font-family="Helvetica,sans-Serif" font-size="11.00" fill="#000000"> &#160;</text>
<polygon fill="#ffffff" stroke="transparent" points="952,-205.2409 952,-224.2409 976,-224.2409 976,-205.2409 952,-205.2409"/>
<polygon fill="none" stroke="#000000" points="952,-205.2409 952,-224.2409 976,-224.2409 976,-205.2409 952,-205.2409"/>
<text text-anchor="start" x="957.4053" y="-211.3409" font-family="Helvetica,sans-Serif" font-size="11.00" fill="#000000">1 &gt;</text>
</a>
</g>
</g>
<!-- notes&#45;&gt;calls -->
<g id="edge14" class="edge">
<title>notes:w&#45;&gt;calls:e</title>
<path fill="none" stroke="#000000" d="M892.7323,-230.7101C850.9864,-213.7463 882.9703,-117.2409 825.5,-117.2409"/>
<polygon fill="#000000" stroke="#000000" points="899.123,-231.8436 906.3712,-236.7855 903.0615,-232.5422 907,-233.2409 907,-233.2409 907,-233.2409 903.0615,-232.5422 907.6288,-229.6962 899.123,-231.8436 899.123,-231.8436"/>
<ellipse fill="none" stroke="#000000" cx="895.9721" cy="-231.2847" rx="3.2" ry="3.2"/>
</g>
<!-- notes&#45;&gt;prospects -->
<g id="edge17" class="edge">
<title>notes:w&#45;&gt;prospects:e</title>
<path fill="none" stroke="#000000" d="M892.7043,-230.9501C873.0691,-223.735 870.4204,-201.249 845,-189.2409 802.1059,-168.9784 783.9788,-183.3373 742,-161.2409 724.9792,-152.2816 727.0566,-139.869 709,-133.2409 677.4997,-121.6778 432.4444,-111.3649 407,-133.2409 361.4942,-172.3646 426.512,-400.2409 366.5,-400.2409"/>
<polygon fill="#000000" stroke="#000000" points="899.1008,-231.975 906.4304,-236.7955 903.0504,-232.6079 907,-233.2409 907,-233.2409 907,-233.2409 903.0504,-232.6079 907.5696,-229.6862 899.1008,-231.975 899.1008,-231.975"/>
<ellipse fill="none" stroke="#000000" cx="895.9411" cy="-231.4687" rx="3.2" ry="3.2"/>
</g>
<!-- notes&#45;&gt;emails -->
<g id="edge15" class="edge">
<title>notes:w&#45;&gt;emails:e</title>
<path fill="none" stroke="#000000" d="M892.3881,-232.8284C869.5777,-231.4729 859.1424,-227.2409 830.5,-227.2409"/>
<polygon fill="#000000" stroke="#000000" points="899.0032,-233.0151 906.8984,-236.8394 903.0016,-233.128 907,-233.2409 907,-233.2409 907,-233.2409 903.0016,-233.128 907.1016,-229.6423 899.0032,-233.0151 899.0032,-233.0151"/>
<ellipse fill="none" stroke="#000000" cx="895.8045" cy="-232.9248" rx="3.2" ry="3.2"/>
</g>
<!-- notes&#45;&gt;meetings -->
<g id="edge16" class="edge">
<title>notes:w&#45;&gt;meetings:e</title>
<path fill="none" stroke="#000000" d="M893.6254,-238.7966C854.1205,-276.9951 893.3451,-499.2409 837.5,-499.2409"/>
<polygon fill="#000000" stroke="#000000" points="899.6121,-236.3098 908.381,-236.5654 903.306,-234.7753 907,-233.2409 907,-233.2409 907,-233.2409 903.306,-234.7753 905.619,-229.9163 899.6121,-236.3098 899.6121,-236.3098"/>
<ellipse fill="none" stroke="#000000" cx="896.6569" cy="-237.5374" rx="3.2" ry="3.2"/>
</g>
<!-- notes&#45;&gt;tasks -->
<g id="edge18" class="edge">
<title>notes:w&#45;&gt;tasks:e</title>
<path fill="none" stroke="#000000" d="M892.7777,-235.9457C861.3947,-249.4843 870.844,-309.2409 827.5,-309.2409"/>
<polygon fill="#000000" stroke="#000000" points="899.1409,-234.7356 907.6726,-236.7775 903.0704,-233.9882 907,-233.2409 907,-233.2409 907,-233.2409 903.0704,-233.9882 906.3274,-229.7042 899.1409,-234.7356 899.1409,-234.7356"/>
<ellipse fill="none" stroke="#000000" cx="895.9972" cy="-235.3335" rx="3.2" ry="3.2"/>
</g>
<!-- prospect_lists_prospects -->
<g id="node13" class="node">
<title>prospect_lists_prospects</title>
<g id="a_node13"><a xlink:href="../../tables/prospect_lists_prospects.html" xlink:title="prospect_lists_prospects" target="_top">
<polygon fill="#ffffff" stroke="transparent" points="476,-511.7409 476,-572.7409 640,-572.7409 640,-511.7409 476,-511.7409"/>
<polygon fill="#f5f5f5" stroke="transparent" points="476,-549.2409 476,-572.2409 640,-572.2409 640,-549.2409 476,-549.2409"/>
<polygon fill="none" stroke="#000000" points="476,-549.2409 476,-572.2409 640,-572.2409 640,-549.2409 476,-549.2409"/>
<text text-anchor="start" x="480.9874" y="-558.3409" font-family="Helvetica,sans-Serif" font-weight="bold" font-size="11.00" fill="#000000">prospect_lists_prospects</text>
<text text-anchor="start" x="605.5219" y="-557.3409" font-family="Helvetica,sans-Serif" font-size="11.00" fill="#000000">[table]</text>
<polygon fill="none" stroke="#000000" points="476,-530.2409 476,-549.2409 640,-549.2409 640,-530.2409 476,-530.2409"/>
<text text-anchor="start" x="479" y="-536.3409" font-family="Helvetica,sans-Serif" font-size="11.00" fill="#000000">...</text>
<polygon fill="#ffffff" stroke="transparent" points="476,-511.2409 476,-530.2409 556,-530.2409 556,-511.2409 476,-511.2409"/>
<polygon fill="none" stroke="#000000" points="476,-511.2409 476,-530.2409 556,-530.2409 556,-511.2409 476,-511.2409"/>
<text text-anchor="start" x="479" y="-517.3409" font-family="Helvetica,sans-Serif" font-size="11.00" fill="#000000">&lt; 6</text>
<polygon fill="#ffffff" stroke="transparent" points="556,-511.2409 556,-530.2409 598,-530.2409 598,-511.2409 556,-511.2409"/>
<polygon fill="none" stroke="#000000" points="556,-511.2409 556,-530.2409 598,-530.2409 598,-511.2409 556,-511.2409"/>
<text text-anchor="start" x="588.8862" y="-517.3409" font-family="Helvetica,sans-Serif" font-size="11.00" fill="#000000"> &#160;</text>
<polygon fill="#ffffff" stroke="transparent" points="598,-511.2409 598,-530.2409 640,-530.2409 640,-511.2409 598,-511.2409"/>
<polygon fill="none" stroke="#000000" points="598,-511.2409 598,-530.2409 640,-530.2409 640,-511.2409 598,-511.2409"/>
<text text-anchor="start" x="630.8862" y="-517.3409" font-family="Helvetica,sans-Serif" font-size="11.00" fill="#000000"> &#160;</text>
</a>
</g>
</g>
<!-- prospect_lists_prospects&#45;&gt;prospects -->
<g id="edge19" class="edge">
<title>prospect_lists_prospects:w&#45;&gt;prospects:e</title>
<path fill="none" stroke="#000000" d="M461.614,-538.2722C436.9164,-534.5819 426.9224,-520.4302 407,-497.2409 376.556,-461.8046 413.218,-400.2409 366.5,-400.2409"/>
<polygon fill="#000000" stroke="#000000" points="468.0181,-538.7033 475.7581,-542.8327 472.009,-538.9721 476,-539.2409 476,-539.2409 476,-539.2409 472.009,-538.9721 476.2419,-535.649 468.0181,-538.7033 468.0181,-538.7033"/>
<ellipse fill="none" stroke="#000000" cx="464.8253" cy="-538.4883" rx="3.2" ry="3.2"/>
</g>
<!-- prospects_cstm -->
<g id="node14" class="node">
<title>prospects_cstm</title>
<g id="a_node14"><a xlink:href="../../tables/prospects_cstm.html" xlink:title="prospects_cstm" target="_top">
<polygon fill="#ffffff" stroke="transparent" points="415,-280.2409 415,-436.2409 701,-436.2409 701,-280.2409 415,-280.2409"/>
<polygon fill="#f5f5f5" stroke="transparent" points="417,-411.2409 417,-434.2409 699,-434.2409 699,-411.2409 417,-411.2409"/>
<polygon fill="none" stroke="#000000" points="417,-411.2409 417,-434.2409 699,-434.2409 699,-411.2409 417,-411.2409"/>
<text text-anchor="start" x="422" y="-420.3409" font-family="Helvetica,sans-Serif" font-weight="bold" font-size="11.00" fill="#000000">prospects_cstm</text>
<text text-anchor="start" x="664.0437" y="-419.3409" font-family="Helvetica,sans-Serif" font-size="11.00" fill="#000000">[table]</text>
<polygon fill="none" stroke="#000000" points="417,-389.2409 417,-411.2409 632,-411.2409 632,-389.2409 417,-389.2409"/>
<image xlink:href="../../images/primaryKeys.png" width="11px" height="12px" preserveAspectRatio="xMinYMin meet" x="422" y="-406.241"/>
<text text-anchor="start" x="437" y="-396.3409" font-family="Helvetica,sans-Serif" font-size="11.00" fill="#000000">id_c</text>
<polygon fill="none" stroke="#000000" points="632,-389.2409 632,-411.2409 699,-411.2409 699,-389.2409 632,-389.2409"/>
<text text-anchor="start" x="635" y="-396.9409" font-family="Helvetica,sans-Serif" font-size="11.00" fill="#000000">char[36]</text>
<polygon fill="none" stroke="#000000" points="417,-367.2409 417,-389.2409 632,-389.2409 632,-367.2409 417,-367.2409"/>
<text text-anchor="start" x="437" y="-374.3409" font-family="Helvetica,sans-Serif" font-size="11.00" fill="#000000">jjwg_maps_lng_c</text>
<polygon fill="none" stroke="#000000" points="632,-367.2409 632,-389.2409 699,-389.2409 699,-367.2409 632,-367.2409"/>
<text text-anchor="start" x="635" y="-374.9409" font-family="Helvetica,sans-Serif" font-size="11.00" fill="#000000">float[11,8]</text>
<polygon fill="none" stroke="#000000" points="417,-345.2409 417,-367.2409 632,-367.2409 632,-345.2409 417,-345.2409"/>
<text text-anchor="start" x="437" y="-352.3409" font-family="Helvetica,sans-Serif" font-size="11.00" fill="#000000">jjwg_maps_lat_c</text>
<polygon fill="none" stroke="#000000" points="632,-345.2409 632,-367.2409 699,-367.2409 699,-345.2409 632,-345.2409"/>
<text text-anchor="start" x="635" y="-352.9409" font-family="Helvetica,sans-Serif" font-size="11.00" fill="#000000">float[10,8]</text>
<polygon fill="none" stroke="#000000" points="417,-323.2409 417,-345.2409 632,-345.2409 632,-323.2409 417,-323.2409"/>
<text text-anchor="start" x="437" y="-330.3409" font-family="Helvetica,sans-Serif" font-size="11.00" fill="#000000">jjwg_maps_geocode_status_c</text>
<polygon fill="none" stroke="#000000" points="632,-323.2409 632,-345.2409 699,-345.2409 699,-323.2409 632,-323.2409"/>
<text text-anchor="start" x="634.9365" y="-330.9409" font-family="Helvetica,sans-Serif" font-size="11.00" fill="#000000">varchar[255]</text>
<polygon fill="none" stroke="#000000" points="417,-301.2409 417,-323.2409 632,-323.2409 632,-301.2409 417,-301.2409"/>
<text text-anchor="start" x="437" y="-308.3409" font-family="Helvetica,sans-Serif" font-size="11.00" fill="#000000">jjwg_maps_address_c</text>
<polygon fill="none" stroke="#000000" points="632,-301.2409 632,-323.2409 699,-323.2409 699,-301.2409 632,-301.2409"/>
<text text-anchor="start" x="634.9365" y="-308.9409" font-family="Helvetica,sans-Serif" font-size="11.00" fill="#000000">varchar[255]</text>
<polygon fill="#ffffff" stroke="transparent" points="417,-282.2409 417,-301.2409 529,-301.2409 529,-282.2409 417,-282.2409"/>
<polygon fill="none" stroke="#000000" points="417,-282.2409 417,-301.2409 529,-301.2409 529,-282.2409 417,-282.2409"/>
<text text-anchor="start" x="420" y="-288.3409" font-family="Helvetica,sans-Serif" font-size="11.00" fill="#000000">&lt; 1</text>
<polygon fill="#ffffff" stroke="transparent" points="529,-282.2409 529,-301.2409 632,-301.2409 632,-282.2409 529,-282.2409"/>
<polygon fill="none" stroke="#000000" points="529,-282.2409 529,-301.2409 632,-301.2409 632,-282.2409 529,-282.2409"/>
<text text-anchor="start" x="622.8862" y="-288.3409" font-family="Helvetica,sans-Serif" font-size="11.00" fill="#000000"> &#160;</text>
<polygon fill="#ffffff" stroke="transparent" points="632,-282.2409 632,-301.2409 699,-301.2409 699,-282.2409 632,-282.2409"/>
<polygon fill="none" stroke="#000000" points="632,-282.2409 632,-301.2409 699,-301.2409 699,-282.2409 632,-282.2409"/>
<text text-anchor="start" x="680.4053" y="-288.3409" font-family="Helvetica,sans-Serif" font-size="11.00" fill="#000000">0 &gt;</text>
<polygon fill="none" stroke="#000000" stroke-width="2" points="416,-281.2409 416,-435.2409 700,-435.2409 700,-281.2409 416,-281.2409"/>
</a>
</g>
</g>
<!-- prospects_cstm&#45;&gt;prospects -->
<g id="edge22" class="edge">
<title>prospects_cstm:w&#45;&gt;prospects:e</title>
<path fill="none" stroke="#000000" d="M406.3362,-400.2409C391.9956,-400.2409 384.9115,-400.2409 366.5,-400.2409"/>
<polygon fill="#000000" stroke="#000000" points="416.2,-396.2409 416.2,-404.2409 414.6,-404.2409 414.6,-396.2409 416.2,-396.2409"/>
<polyline fill="none" stroke="#000000" points="417,-400.2409 413,-400.2409 "/>
<ellipse fill="none" stroke="#000000" cx="409.8" cy="-400.2409" rx="3.2" ry="3.2"/>
</g>
<!-- securitygroups_records -->
<g id="node15" class="node">
<title>securitygroups_records</title>
<g id="a_node15"><a xlink:href="../../tables/securitygroups_records.html" xlink:title="securitygroups_records" target="_top">
<polygon fill="#ffffff" stroke="transparent" points="1045,-179.7409 1045,-240.7409 1202,-240.7409 1202,-179.7409 1045,-179.7409"/>
<polygon fill="#f5f5f5" stroke="transparent" points="1045.5,-217.2409 1045.5,-240.2409 1202.5,-240.2409 1202.5,-217.2409 1045.5,-217.2409"/>
<polygon fill="none" stroke="#000000" points="1045.5,-217.2409 1045.5,-240.2409 1202.5,-240.2409 1202.5,-217.2409 1045.5,-217.2409"/>
<text text-anchor="start" x="1050.3528" y="-226.3409" font-family="Helvetica,sans-Serif" font-weight="bold" font-size="11.00" fill="#000000">securitygroups_records</text>
<text text-anchor="start" x="1168.0219" y="-225.3409" font-family="Helvetica,sans-Serif" font-size="11.00" fill="#000000">[table]</text>
<polygon fill="none" stroke="#000000" points="1045.5,-198.2409 1045.5,-217.2409 1202.5,-217.2409 1202.5,-198.2409 1045.5,-198.2409"/>
<text text-anchor="start" x="1048.5" y="-204.3409" font-family="Helvetica,sans-Serif" font-size="11.00" fill="#000000">...</text>
<polygon fill="#ffffff" stroke="transparent" points="1045.5,-179.2409 1045.5,-198.2409 1125.5,-198.2409 1125.5,-179.2409 1045.5,-179.2409"/>
<polygon fill="none" stroke="#000000" points="1045.5,-179.2409 1045.5,-198.2409 1125.5,-198.2409 1125.5,-179.2409 1045.5,-179.2409"/>
<text text-anchor="start" x="1048.5" y="-185.3409" font-family="Helvetica,sans-Serif" font-size="11.00" fill="#000000">&lt; 41</text>
<polygon fill="#ffffff" stroke="transparent" points="1125.5,-179.2409 1125.5,-198.2409 1163.5,-198.2409 1163.5,-179.2409 1125.5,-179.2409"/>
<polygon fill="none" stroke="#000000" points="1125.5,-179.2409 1125.5,-198.2409 1163.5,-198.2409 1163.5,-179.2409 1125.5,-179.2409"/>
<text text-anchor="start" x="1154.3862" y="-185.3409" font-family="Helvetica,sans-Serif" font-size="11.00" fill="#000000"> &#160;</text>
<polygon fill="#ffffff" stroke="transparent" points="1163.5,-179.2409 1163.5,-198.2409 1202.5,-198.2409 1202.5,-179.2409 1163.5,-179.2409"/>
<polygon fill="none" stroke="#000000" points="1163.5,-179.2409 1163.5,-198.2409 1202.5,-198.2409 1202.5,-179.2409 1163.5,-179.2409"/>
<text text-anchor="start" x="1193.3862" y="-185.3409" font-family="Helvetica,sans-Serif" font-size="11.00" fill="#000000"> &#160;</text>
</a>
</g>
</g>
<!-- securitygroups_records&#45;&gt;calls -->
<g id="edge23" class="edge">
<title>securitygroups_records:w&#45;&gt;calls:e</title>
<path fill="none" stroke="#000000" d="M1031.1997,-203.9988C1022.1323,-199.0953 1017.7098,-189.6824 1004,-183.2409 927.4463,-147.272 910.0826,-117.2409 825.5,-117.2409"/>
<polygon fill="#000000" stroke="#000000" points="1037.698,-205.472 1044.704,-210.7518 1041.599,-206.3564 1045.5,-207.2409 1045.5,-207.2409 1045.5,-207.2409 1041.599,-206.3564 1046.296,-203.7299 1037.698,-205.472 1037.698,-205.472"/>
<ellipse fill="none" stroke="#000000" cx="1034.5772" cy="-204.7645" rx="3.2" ry="3.2"/>
</g>
<!-- securitygroups_records&#45;&gt;prospects -->
<g id="edge29" class="edge">
<title>securitygroups_records:w&#45;&gt;prospects:e</title>
<path fill="none" stroke="#000000" d="M1031.3286,-203.7743C1011.1959,-190.6452 1032.2876,-143.5419 1004,-120.2409 947.6711,-73.8417 917.3981,-88.425 845,-79.2409 723.7269,-63.8566 451.2733,-46.4835 407,-86.2409 354.6529,-133.2485 436.8558,-400.2409 366.5,-400.2409"/>
<polygon fill="#000000" stroke="#000000" points="1037.7291,-205.3399 1044.6446,-210.7378 1041.6146,-206.2904 1045.5,-207.2409 1045.5,-207.2409 1045.5,-207.2409 1041.6146,-206.2904 1046.3554,-203.744 1037.7291,-205.3399 1037.7291,-205.3399"/>
<ellipse fill="none" stroke="#000000" cx="1034.6208" cy="-204.5796" rx="3.2" ry="3.2"/>
</g>
<!-- securitygroups_records&#45;&gt;campaigns -->
<g id="edge24" class="edge">
<title>securitygroups_records:w&#45;&gt;campaigns:e</title>
<path fill="none" stroke="#000000" d="M1030.9331,-204.6729C997.6707,-189.948 1043.8993,-115.6575 1004,-80.2409 932.6536,-16.9101 888.8996,-38.2409 793.5,-38.2409 793.5,-38.2409 793.5,-38.2409 558,-38.2409 490.243,-38.2409 473.1755,-44.6868 407,-59.2409 269.5476,-89.471 244.7374,-151.2409 104,-151.2409"/>
<polygon fill="#000000" stroke="#000000" points="1037.6215,-205.8519 1044.875,-210.7862 1041.5607,-206.5464 1045.5,-207.2409 1045.5,-207.2409 1045.5,-207.2409 1041.5607,-206.5464 1046.125,-203.6955 1037.6215,-205.8519 1037.6215,-205.8519"/>
<ellipse fill="none" stroke="#000000" cx="1034.4701" cy="-205.2964" rx="3.2" ry="3.2"/>
</g>
<!-- securitygroups_records&#45;&gt;emails -->
<g id="edge25" class="edge">
<title>securitygroups_records:w&#45;&gt;emails:e</title>
<path fill="none" stroke="#000000" d="M1031.1959,-205.0001C1022.7087,-202.07 1017.0695,-197.0925 1004,-195.2409 948.5537,-187.3854 931.5577,-178.8832 878,-195.2409 853.6553,-202.6762 855.9549,-227.2409 830.5,-227.2409"/>
<polygon fill="#000000" stroke="#000000" points="1037.5964,-206.0027 1044.9428,-210.7975 1041.5482,-206.6218 1045.5,-207.2409 1045.5,-207.2409 1045.5,-207.2409 1041.5482,-206.6218 1046.0572,-203.6842 1037.5964,-206.0027 1037.5964,-206.0027"/>
<ellipse fill="none" stroke="#000000" cx="1034.4349" cy="-205.5075" rx="3.2" ry="3.2"/>
</g>
<!-- securitygroups_records&#45;&gt;meetings -->
<g id="edge27" class="edge">
<title>securitygroups_records:w&#45;&gt;meetings:e</title>
<path fill="none" stroke="#000000" d="M1031.9606,-213.2437C1001.6726,-246.0453 1034.2162,-403.4371 1004,-439.2409 953.269,-499.3531 916.1582,-499.2409 837.5,-499.2409"/>
<polygon fill="#000000" stroke="#000000" points="1038.1866,-210.4834 1046.9591,-210.5319 1041.8433,-208.8621 1045.5,-207.2409 1045.5,-207.2409 1045.5,-207.2409 1041.8433,-208.8621 1044.0409,-203.9498 1038.1866,-210.4834 1038.1866,-210.4834"/>
<ellipse fill="none" stroke="#000000" cx="1035.2612" cy="-211.7804" rx="3.2" ry="3.2"/>
</g>
<!-- securitygroups_records&#45;&gt;tasks -->
<g id="edge30" class="edge">
<title>securitygroups_records:w&#45;&gt;tasks:e</title>
<path fill="none" stroke="#000000" d="M1031.6337,-211.2185C1016.1105,-223.3585 1028.5924,-260.1441 1004,-277.2409 938.541,-322.7482 907.2233,-309.2409 827.5,-309.2409"/>
<polygon fill="#000000" stroke="#000000" points="1037.8101,-209.4468 1046.4927,-210.7013 1041.6551,-208.3438 1045.5,-207.2409 1045.5,-207.2409 1045.5,-207.2409 1041.6551,-208.3438 1044.5073,-203.7804 1037.8101,-209.4468 1037.8101,-209.4468"/>
<ellipse fill="none" stroke="#000000" cx="1034.7342" cy="-210.3291" rx="3.2" ry="3.2"/>
</g>
<!-- securitygroups_records&#45;&gt;jjwg_maps -->
<g id="edge26" class="edge">
<title>securitygroups_records:w&#45;&gt;jjwg_maps:e</title>
<path fill="none" stroke="#000000" d="M1031.701,-211.9544C991.4109,-243.6921 1024.3141,-426.5174 1004,-478.2409 943.1197,-633.2536 960.0394,-788.2409 793.5,-788.2409 793.5,-788.2409 793.5,-788.2409 558,-788.2409 374.3535,-788.2409 325.7899,-807.5061 145,-775.2409 125.6297,-771.7839 122.6764,-761.2409 103,-761.2409"/>
<polygon fill="#000000" stroke="#000000" points="1037.9295,-209.8269 1046.6637,-210.6476 1041.7147,-208.5339 1045.5,-207.2409 1045.5,-207.2409 1045.5,-207.2409 1041.7147,-208.5339 1044.3363,-203.8341 1037.9295,-209.8269 1037.9295,-209.8269"/>
<ellipse fill="none" stroke="#000000" cx="1034.9013" cy="-210.8613" rx="3.2" ry="3.2"/>
</g>
<!-- securitygroups_records&#45;&gt;notes -->
<g id="edge28" class="edge">
<title>securitygroups_records:w&#45;&gt;notes:e</title>
<path fill="none" stroke="#000000" d="M1031.0941,-209.1951C1010.5003,-215.2417 1003.4401,-233.2409 976,-233.2409"/>
<polygon fill="#000000" stroke="#000000" points="1037.5726,-208.3163 1045.9839,-210.8082 1041.5363,-207.7786 1045.5,-207.2409 1045.5,-207.2409 1045.5,-207.2409 1041.5363,-207.7786 1045.0161,-203.6735 1037.5726,-208.3163 1037.5726,-208.3163"/>
<ellipse fill="none" stroke="#000000" cx="1034.4017" cy="-208.7465" rx="3.2" ry="3.2"/>
</g>
</g>
</svg>
