<?xml version="1.0" encoding="UTF-8" standalone="no"?>
<!DOCTYPE svg PUBLIC "-//W3C//DTD SVG 1.1//EN"
 "http://www.w3.org/Graphics/SVG/1.1/DTD/svg11.dtd">
<!-- Generated by graphviz version 2.40.1 (20161225.0304)
 -->
<!-- Title: oneDegreeRelationshipsDiagram Pages: 1 -->
<svg width="417pt" height="436pt"
 viewBox="0.00 0.00 417.00 435.70" xmlns="http://www.w3.org/2000/svg" xmlns:xlink="http://www.w3.org/1999/xlink">
<g id="graph0" class="graph" transform="scale(1 1) rotate(0) translate(4 431.7)">
<title>oneDegreeRelationshipsDiagram</title>
<polygon fill="#ffffff" stroke="transparent" points="-4,4 -4,-431.7 413,-431.7 413,4 -4,4"/>
<text text-anchor="middle" x="72.4936" y="-7.3" font-family="Helvetica,sans-Serif" font-size="11.00" fill="#000000">Generated by SchemaSpy</text>
<!-- bugs -->
<g id="node1" class="node">
<title>bugs</title>
<g id="a_node1"><a xlink:href="../../tables/bugs.html" xlink:title="bugs" target="_top">
<polygon fill="#ffffff" stroke="transparent" points="262,-186.7 262,-423.7 401,-423.7 401,-186.7 262,-186.7"/>
<polygon fill="#f5f5f5" stroke="transparent" points="262.5,-400.2 262.5,-423.2 401.5,-423.2 401.5,-400.2 262.5,-400.2"/>
<polygon fill="none" stroke="#000000" points="262.5,-400.2 262.5,-423.2 401.5,-423.2 401.5,-400.2 262.5,-400.2"/>
<text text-anchor="start" x="267.5" y="-409.3" font-family="Helvetica,sans-Serif" font-weight="bold" font-size="11.00" fill="#000000">bugs</text>
<text text-anchor="start" x="366.5437" y="-408.3" font-family="Helvetica,sans-Serif" font-size="11.00" fill="#000000">[table]</text>
<polygon fill="none" stroke="#000000" points="262.5,-378.2 262.5,-400.2 401.5,-400.2 401.5,-378.2 262.5,-378.2"/>
<image xlink:href="../../images/primaryKeys.png" width="11px" height="12px" preserveAspectRatio="xMinYMin meet" x="267.5" y="-395.2"/>
<text text-anchor="start" x="282.5" y="-385.3" font-family="Helvetica,sans-Serif" font-size="11.00" fill="#000000">id</text>
<polygon fill="#ffffff" stroke="transparent" points="262.5,-356.2 262.5,-378.2 401.5,-378.2 401.5,-356.2 262.5,-356.2"/>
<polygon fill="none" stroke="#000000" points="262.5,-356.2 262.5,-378.2 401.5,-378.2 401.5,-356.2 262.5,-356.2"/>
<text text-anchor="start" x="282.5" y="-363.3" font-family="Helvetica,sans-Serif" font-size="11.00" fill="#000000">name</text>
<polygon fill="#c0c0c0" stroke="transparent" points="262.5,-334.2 262.5,-356.2 401.5,-356.2 401.5,-334.2 262.5,-334.2"/>
<polygon fill="none" stroke="#000000" points="262.5,-334.2 262.5,-356.2 401.5,-356.2 401.5,-334.2 262.5,-334.2"/>
<image xlink:href="../../images/foreignKeys.png" width="11px" height="12px" preserveAspectRatio="xMinYMin meet" x="267.5" y="-351.2"/>
<text text-anchor="start" x="282.5" y="-341.3" font-family="Helvetica,sans-Serif" font-size="11.00" fill="#000000">modified_user_id</text>
<polygon fill="#c0c0c0" stroke="transparent" points="262.5,-312.2 262.5,-334.2 401.5,-334.2 401.5,-312.2 262.5,-312.2"/>
<polygon fill="none" stroke="#000000" points="262.5,-312.2 262.5,-334.2 401.5,-334.2 401.5,-312.2 262.5,-312.2"/>
<image xlink:href="../../images/foreignKeys.png" width="11px" height="12px" preserveAspectRatio="xMinYMin meet" x="267.5" y="-329.2"/>
<text text-anchor="start" x="282.5" y="-319.3" font-family="Helvetica,sans-Serif" font-size="11.00" fill="#000000">created_by</text>
<polygon fill="#c0c0c0" stroke="transparent" points="262.5,-290.2 262.5,-312.2 401.5,-312.2 401.5,-290.2 262.5,-290.2"/>
<polygon fill="none" stroke="#000000" points="262.5,-290.2 262.5,-312.2 401.5,-312.2 401.5,-290.2 262.5,-290.2"/>
<image xlink:href="../../images/foreignKeys.png" width="11px" height="12px" preserveAspectRatio="xMinYMin meet" x="267.5" y="-307.2"/>
<text text-anchor="start" x="282.5" y="-297.3" font-family="Helvetica,sans-Serif" font-size="11.00" fill="#000000">assigned_user_id</text>
<polygon fill="#ffffff" stroke="transparent" points="262.5,-268.2 262.5,-290.2 401.5,-290.2 401.5,-268.2 262.5,-268.2"/>
<polygon fill="none" stroke="#000000" points="262.5,-268.2 262.5,-290.2 401.5,-290.2 401.5,-268.2 262.5,-268.2"/>
<text text-anchor="start" x="282.5" y="-275.3" font-family="Helvetica,sans-Serif" font-size="11.00" fill="#000000">bug_number</text>
<polygon fill="none" stroke="#000000" points="262.5,-246.2 262.5,-268.2 401.5,-268.2 401.5,-246.2 262.5,-246.2"/>
<image xlink:href="../../images/foreignKeys.png" width="11px" height="12px" preserveAspectRatio="xMinYMin meet" x="267.5" y="-263.2"/>
<text text-anchor="start" x="282.5" y="-253.3" font-family="Helvetica,sans-Serif" font-size="11.00" fill="#000000">found_in_release</text>
<polygon fill="none" stroke="#000000" points="262.5,-224.2 262.5,-246.2 401.5,-246.2 401.5,-224.2 262.5,-224.2"/>
<image xlink:href="../../images/foreignKeys.png" width="11px" height="12px" preserveAspectRatio="xMinYMin meet" x="267.5" y="-241.2"/>
<text text-anchor="start" x="282.5" y="-231.3" font-family="Helvetica,sans-Serif" font-size="11.00" fill="#000000">fixed_in_release</text>
<polygon fill="none" stroke="#000000" points="262.5,-205.2 262.5,-224.2 401.5,-224.2 401.5,-205.2 262.5,-205.2"/>
<text text-anchor="start" x="265.5" y="-211.3" font-family="Helvetica,sans-Serif" font-size="11.00" fill="#000000">...</text>
<polygon fill="#ffffff" stroke="transparent" points="262.5,-186.2 262.5,-205.2 322.5,-205.2 322.5,-186.2 262.5,-186.2"/>
<polygon fill="none" stroke="#000000" points="262.5,-186.2 262.5,-205.2 322.5,-205.2 322.5,-186.2 262.5,-186.2"/>
<text text-anchor="start" x="265.5" y="-192.3" font-family="Helvetica,sans-Serif" font-size="11.00" fill="#000000">&lt; 5</text>
<polygon fill="#ffffff" stroke="transparent" points="322.5,-186.2 322.5,-205.2 354.5,-205.2 354.5,-186.2 322.5,-186.2"/>
<polygon fill="none" stroke="#000000" points="322.5,-186.2 322.5,-205.2 354.5,-205.2 354.5,-186.2 322.5,-186.2"/>
<text text-anchor="start" x="345.3862" y="-192.3" font-family="Helvetica,sans-Serif" font-size="11.00" fill="#000000"> &#160;</text>
<polygon fill="#ffffff" stroke="transparent" points="354.5,-186.2 354.5,-205.2 401.5,-205.2 401.5,-186.2 354.5,-186.2"/>
<polygon fill="none" stroke="#000000" points="354.5,-186.2 354.5,-205.2 401.5,-205.2 401.5,-186.2 354.5,-186.2"/>
<text text-anchor="start" x="376.7904" y="-192.3" font-family="Helvetica,sans-Serif" font-size="11.00" fill="#000000">13 &gt;</text>
</a>
</g>
</g>
<!-- releases -->
<g id="node2" class="node">
<title>releases</title>
<g id="a_node2"><a xlink:href="../../tables/releases.html" xlink:title="releases" target="_top">
<polygon fill="#ffffff" stroke="transparent" points="8,-38.2 8,-282.2 213,-282.2 213,-38.2 8,-38.2"/>
<polygon fill="#f5f5f5" stroke="transparent" points="10.5,-257.2 10.5,-280.2 211.5,-280.2 211.5,-257.2 10.5,-257.2"/>
<polygon fill="none" stroke="#000000" points="10.5,-257.2 10.5,-280.2 211.5,-280.2 211.5,-257.2 10.5,-257.2"/>
<text text-anchor="start" x="15.5" y="-266.3" font-family="Helvetica,sans-Serif" font-weight="bold" font-size="11.00" fill="#000000">releases</text>
<text text-anchor="start" x="176.5437" y="-265.3" font-family="Helvetica,sans-Serif" font-size="11.00" fill="#000000">[table]</text>
<polygon fill="none" stroke="#000000" points="10.5,-235.2 10.5,-257.2 144.5,-257.2 144.5,-235.2 10.5,-235.2"/>
<image xlink:href="../../images/primaryKeys.png" width="11px" height="12px" preserveAspectRatio="xMinYMin meet" x="15.5" y="-252.2"/>
<text text-anchor="start" x="30.5" y="-242.3" font-family="Helvetica,sans-Serif" font-size="11.00" fill="#000000">id</text>
<polygon fill="none" stroke="#000000" points="144.5,-235.2 144.5,-257.2 211.5,-257.2 211.5,-235.2 144.5,-235.2"/>
<text text-anchor="start" x="147.5" y="-242.9" font-family="Helvetica,sans-Serif" font-size="11.00" fill="#000000">char[36]</text>
<polygon fill="#ffffff" stroke="transparent" points="10.5,-213.2 10.5,-235.2 144.5,-235.2 144.5,-213.2 10.5,-213.2"/>
<polygon fill="none" stroke="#000000" points="10.5,-213.2 10.5,-235.2 144.5,-235.2 144.5,-213.2 10.5,-213.2"/>
<text text-anchor="start" x="30.5" y="-220.3" font-family="Helvetica,sans-Serif" font-size="11.00" fill="#000000">deleted</text>
<polygon fill="none" stroke="#000000" points="144.5,-213.2 144.5,-235.2 211.5,-235.2 211.5,-213.2 144.5,-213.2"/>
<text text-anchor="start" x="147.5" y="-220.9" font-family="Helvetica,sans-Serif" font-size="11.00" fill="#000000">bit[1]</text>
<polygon fill="none" stroke="#000000" points="10.5,-191.2 10.5,-213.2 144.5,-213.2 144.5,-191.2 10.5,-191.2"/>
<text text-anchor="start" x="30.5" y="-198.3" font-family="Helvetica,sans-Serif" font-size="11.00" fill="#000000">date_entered</text>
<polygon fill="none" stroke="#000000" points="144.5,-191.2 144.5,-213.2 211.5,-213.2 211.5,-191.2 144.5,-191.2"/>
<text text-anchor="start" x="147.5" y="-198.9" font-family="Helvetica,sans-Serif" font-size="11.00" fill="#000000">datetime[26]</text>
<polygon fill="none" stroke="#000000" points="10.5,-169.2 10.5,-191.2 144.5,-191.2 144.5,-169.2 10.5,-169.2"/>
<text text-anchor="start" x="30.5" y="-176.3" font-family="Helvetica,sans-Serif" font-size="11.00" fill="#000000">date_modified</text>
<polygon fill="none" stroke="#000000" points="144.5,-169.2 144.5,-191.2 211.5,-191.2 211.5,-169.2 144.5,-169.2"/>
<text text-anchor="start" x="147.5" y="-176.9" font-family="Helvetica,sans-Serif" font-size="11.00" fill="#000000">datetime[26]</text>
<polygon fill="none" stroke="#000000" points="10.5,-147.2 10.5,-169.2 144.5,-169.2 144.5,-147.2 10.5,-147.2"/>
<text text-anchor="start" x="30.5" y="-154.3" font-family="Helvetica,sans-Serif" font-size="11.00" fill="#000000">modified_user_id</text>
<polygon fill="none" stroke="#000000" points="144.5,-147.2 144.5,-169.2 211.5,-169.2 211.5,-147.2 144.5,-147.2"/>
<text text-anchor="start" x="147.5" y="-154.9" font-family="Helvetica,sans-Serif" font-size="11.00" fill="#000000">char[36]</text>
<polygon fill="none" stroke="#000000" points="10.5,-125.2 10.5,-147.2 144.5,-147.2 144.5,-125.2 10.5,-125.2"/>
<text text-anchor="start" x="30.5" y="-132.3" font-family="Helvetica,sans-Serif" font-size="11.00" fill="#000000">created_by</text>
<polygon fill="none" stroke="#000000" points="144.5,-125.2 144.5,-147.2 211.5,-147.2 211.5,-125.2 144.5,-125.2"/>
<text text-anchor="start" x="147.5" y="-132.9" font-family="Helvetica,sans-Serif" font-size="11.00" fill="#000000">char[36]</text>
<polygon fill="#ffffff" stroke="transparent" points="10.5,-103.2 10.5,-125.2 144.5,-125.2 144.5,-103.2 10.5,-103.2"/>
<polygon fill="none" stroke="#000000" points="10.5,-103.2 10.5,-125.2 144.5,-125.2 144.5,-103.2 10.5,-103.2"/>
<text text-anchor="start" x="30.5" y="-110.3" font-family="Helvetica,sans-Serif" font-size="11.00" fill="#000000">name</text>
<polygon fill="none" stroke="#000000" points="144.5,-103.2 144.5,-125.2 211.5,-125.2 211.5,-103.2 144.5,-103.2"/>
<text text-anchor="start" x="147.5" y="-110.9" font-family="Helvetica,sans-Serif" font-size="11.00" fill="#000000">varchar[50]</text>
<polygon fill="none" stroke="#000000" points="10.5,-81.2 10.5,-103.2 144.5,-103.2 144.5,-81.2 10.5,-81.2"/>
<text text-anchor="start" x="30.5" y="-88.3" font-family="Helvetica,sans-Serif" font-size="11.00" fill="#000000">list_order</text>
<polygon fill="none" stroke="#000000" points="144.5,-81.2 144.5,-103.2 211.5,-103.2 211.5,-81.2 144.5,-81.2"/>
<text text-anchor="start" x="147.5" y="-88.9" font-family="Helvetica,sans-Serif" font-size="11.00" fill="#000000">int[10]</text>
<polygon fill="none" stroke="#000000" points="10.5,-59.2 10.5,-81.2 144.5,-81.2 144.5,-59.2 10.5,-59.2"/>
<text text-anchor="start" x="30.5" y="-66.3" font-family="Helvetica,sans-Serif" font-size="11.00" fill="#000000">status</text>
<polygon fill="none" stroke="#000000" points="144.5,-59.2 144.5,-81.2 211.5,-81.2 211.5,-59.2 144.5,-59.2"/>
<text text-anchor="start" x="147.4365" y="-66.9" font-family="Helvetica,sans-Serif" font-size="11.00" fill="#000000">varchar[100]</text>
<polygon fill="#ffffff" stroke="transparent" points="10.5,-40.2 10.5,-59.2 81.5,-59.2 81.5,-40.2 10.5,-40.2"/>
<polygon fill="none" stroke="#000000" points="10.5,-40.2 10.5,-59.2 81.5,-59.2 81.5,-40.2 10.5,-40.2"/>
<text text-anchor="start" x="13.5" y="-46.3" font-family="Helvetica,sans-Serif" font-size="11.00" fill="#000000">&lt; 0</text>
<polygon fill="#ffffff" stroke="transparent" points="81.5,-40.2 81.5,-59.2 144.5,-59.2 144.5,-40.2 81.5,-40.2"/>
<polygon fill="none" stroke="#000000" points="81.5,-40.2 81.5,-59.2 144.5,-59.2 144.5,-40.2 81.5,-40.2"/>
<text text-anchor="start" x="135.3862" y="-46.3" font-family="Helvetica,sans-Serif" font-size="11.00" fill="#000000"> &#160;</text>
<polygon fill="#ffffff" stroke="transparent" points="144.5,-40.2 144.5,-59.2 211.5,-59.2 211.5,-40.2 144.5,-40.2"/>
<polygon fill="none" stroke="#000000" points="144.5,-40.2 144.5,-59.2 211.5,-59.2 211.5,-40.2 144.5,-40.2"/>
<text text-anchor="start" x="192.9053" y="-46.3" font-family="Helvetica,sans-Serif" font-size="11.00" fill="#000000">2 &gt;</text>
<polygon fill="none" stroke="#000000" stroke-width="2" points="9,-39.2 9,-281.2 212,-281.2 212,-39.2 9,-39.2"/>
</a>
</g>
</g>
<!-- bugs&#45;&gt;releases -->
<g id="edge1" class="edge">
<title>bugs:w&#45;&gt;releases:e</title>
<path fill="none" stroke="#000000" d="M248.0097,-236.9188C235.8398,-240.0125 228.8909,-246.2 211.5,-246.2"/>
<polygon fill="#000000" stroke="#000000" points="254.5557,-236.1424 262.9241,-238.7749 258.5278,-235.6712 262.5,-235.2 262.5,-235.2 262.5,-235.2 258.5278,-235.6712 262.0759,-231.6251 254.5557,-236.1424 254.5557,-236.1424"/>
<ellipse fill="none" stroke="#000000" cx="251.378" cy="-236.5193" rx="3.2" ry="3.2"/>
</g>
<!-- bugs&#45;&gt;releases -->
<g id="edge2" class="edge">
<title>bugs:w&#45;&gt;releases:e</title>
<path fill="none" stroke="#000000" d="M248.0097,-255.4813C235.8398,-252.3875 228.8909,-246.2 211.5,-246.2"/>
<polygon fill="#000000" stroke="#000000" points="254.5557,-256.2576 262.0759,-260.7749 258.5278,-256.7288 262.5,-257.2 262.5,-257.2 262.5,-257.2 258.5278,-256.7288 262.9241,-253.6251 254.5557,-256.2576 254.5557,-256.2576"/>
<ellipse fill="none" stroke="#000000" cx="251.378" cy="-255.8807" rx="3.2" ry="3.2"/>
</g>
</g>
</svg>
