<?xml version="1.0" encoding="UTF-8" standalone="no"?>
<!DOCTYPE svg PUBLIC "-//W3C//DTD SVG 1.1//EN"
 "http://www.w3.org/Graphics/SVG/1.1/DTD/svg11.dtd">
<!-- Generated by graphviz version 2.40.1 (20161225.0304)
 -->
<!-- Title: oneDegreeRelationshipsDiagram Pages: 1 -->
<svg width="548pt" height="492pt"
 viewBox="0.00 0.00 548.00 492.20" xmlns="http://www.w3.org/2000/svg" xmlns:xlink="http://www.w3.org/1999/xlink">
<g id="graph0" class="graph" transform="scale(1 1) rotate(0) translate(4 488.2)">
<title>oneDegreeRelationshipsDiagram</title>
<polygon fill="#ffffff" stroke="transparent" points="-4,4 -4,-488.2 544,-488.2 544,4 -4,4"/>
<text text-anchor="middle" x="72.4936" y="-7.3" font-family="Helvetica,sans-Serif" font-size="11.00" fill="#000000">Generated by SchemaSpy</text>
<!-- reminders -->
<g id="node1" class="node">
<title>reminders</title>
<g id="a_node1"><a xlink:href="../../tables/reminders.html" xlink:title="reminders" target="_top">
<polygon fill="#ffffff" stroke="transparent" points="273,-38.2 273,-480.2 532,-480.2 532,-38.2 273,-38.2"/>
<polygon fill="#f5f5f5" stroke="transparent" points="275.5,-455.2 275.5,-478.2 530.5,-478.2 530.5,-455.2 275.5,-455.2"/>
<polygon fill="none" stroke="#000000" points="275.5,-455.2 275.5,-478.2 530.5,-478.2 530.5,-455.2 275.5,-455.2"/>
<text text-anchor="start" x="280.5" y="-464.3" font-family="Helvetica,sans-Serif" font-weight="bold" font-size="11.00" fill="#000000">reminders</text>
<text text-anchor="start" x="495.5437" y="-463.3" font-family="Helvetica,sans-Serif" font-size="11.00" fill="#000000">[table]</text>
<polygon fill="none" stroke="#000000" points="275.5,-433.2 275.5,-455.2 463.5,-455.2 463.5,-433.2 275.5,-433.2"/>
<image xlink:href="../../images/primaryKeys.png" width="11px" height="12px" preserveAspectRatio="xMinYMin meet" x="280.5" y="-450.2"/>
<text text-anchor="start" x="295.5" y="-440.3" font-family="Helvetica,sans-Serif" font-size="11.00" fill="#000000">id</text>
<polygon fill="none" stroke="#000000" points="463.5,-433.2 463.5,-455.2 530.5,-455.2 530.5,-433.2 463.5,-433.2"/>
<text text-anchor="start" x="466.5" y="-440.9" font-family="Helvetica,sans-Serif" font-size="11.00" fill="#000000">char[36]</text>
<polygon fill="#ffffff" stroke="transparent" points="275.5,-411.2 275.5,-433.2 463.5,-433.2 463.5,-411.2 275.5,-411.2"/>
<polygon fill="none" stroke="#000000" points="275.5,-411.2 275.5,-433.2 463.5,-433.2 463.5,-411.2 275.5,-411.2"/>
<text text-anchor="start" x="295.5" y="-418.3" font-family="Helvetica,sans-Serif" font-size="11.00" fill="#000000">name</text>
<polygon fill="none" stroke="#000000" points="463.5,-411.2 463.5,-433.2 530.5,-433.2 530.5,-411.2 463.5,-411.2"/>
<text text-anchor="start" x="466.4365" y="-418.9" font-family="Helvetica,sans-Serif" font-size="11.00" fill="#000000">varchar[255]</text>
<polygon fill="none" stroke="#000000" points="275.5,-389.2 275.5,-411.2 463.5,-411.2 463.5,-389.2 275.5,-389.2"/>
<text text-anchor="start" x="295.5" y="-396.3" font-family="Helvetica,sans-Serif" font-size="11.00" fill="#000000">date_entered</text>
<polygon fill="none" stroke="#000000" points="463.5,-389.2 463.5,-411.2 530.5,-411.2 530.5,-389.2 463.5,-389.2"/>
<text text-anchor="start" x="466.5" y="-396.9" font-family="Helvetica,sans-Serif" font-size="11.00" fill="#000000">datetime[26]</text>
<polygon fill="none" stroke="#000000" points="275.5,-367.2 275.5,-389.2 463.5,-389.2 463.5,-367.2 275.5,-367.2"/>
<text text-anchor="start" x="295.5" y="-374.3" font-family="Helvetica,sans-Serif" font-size="11.00" fill="#000000">date_modified</text>
<polygon fill="none" stroke="#000000" points="463.5,-367.2 463.5,-389.2 530.5,-389.2 530.5,-367.2 463.5,-367.2"/>
<text text-anchor="start" x="466.5" y="-374.9" font-family="Helvetica,sans-Serif" font-size="11.00" fill="#000000">datetime[26]</text>
<polygon fill="none" stroke="#000000" points="275.5,-345.2 275.5,-367.2 463.5,-367.2 463.5,-345.2 275.5,-345.2"/>
<image xlink:href="../../images/foreignKeys.png" width="11px" height="12px" preserveAspectRatio="xMinYMin meet" x="280.5" y="-362.2"/>
<text text-anchor="start" x="295.5" y="-352.3" font-family="Helvetica,sans-Serif" font-size="11.00" fill="#000000">modified_user_id</text>
<polygon fill="none" stroke="#000000" points="463.5,-345.2 463.5,-367.2 530.5,-367.2 530.5,-345.2 463.5,-345.2"/>
<text text-anchor="start" x="466.5" y="-352.9" font-family="Helvetica,sans-Serif" font-size="11.00" fill="#000000">char[36]</text>
<polygon fill="none" stroke="#000000" points="275.5,-323.2 275.5,-345.2 463.5,-345.2 463.5,-323.2 275.5,-323.2"/>
<image xlink:href="../../images/foreignKeys.png" width="11px" height="12px" preserveAspectRatio="xMinYMin meet" x="280.5" y="-340.2"/>
<text text-anchor="start" x="295.5" y="-330.3" font-family="Helvetica,sans-Serif" font-size="11.00" fill="#000000">created_by</text>
<polygon fill="none" stroke="#000000" points="463.5,-323.2 463.5,-345.2 530.5,-345.2 530.5,-323.2 463.5,-323.2"/>
<text text-anchor="start" x="466.5" y="-330.9" font-family="Helvetica,sans-Serif" font-size="11.00" fill="#000000">char[36]</text>
<polygon fill="none" stroke="#000000" points="275.5,-301.2 275.5,-323.2 463.5,-323.2 463.5,-301.2 275.5,-301.2"/>
<text text-anchor="start" x="295.5" y="-308.3" font-family="Helvetica,sans-Serif" font-size="11.00" fill="#000000">description</text>
<polygon fill="none" stroke="#000000" points="463.5,-301.2 463.5,-323.2 530.5,-323.2 530.5,-301.2 463.5,-301.2"/>
<text text-anchor="start" x="466.5" y="-308.9" font-family="Helvetica,sans-Serif" font-size="11.00" fill="#000000">text[65535]</text>
<polygon fill="#ffffff" stroke="transparent" points="275.5,-279.2 275.5,-301.2 463.5,-301.2 463.5,-279.2 275.5,-279.2"/>
<polygon fill="none" stroke="#000000" points="275.5,-279.2 275.5,-301.2 463.5,-301.2 463.5,-279.2 275.5,-279.2"/>
<text text-anchor="start" x="295.5" y="-286.3" font-family="Helvetica,sans-Serif" font-size="11.00" fill="#000000">deleted</text>
<polygon fill="none" stroke="#000000" points="463.5,-279.2 463.5,-301.2 530.5,-301.2 530.5,-279.2 463.5,-279.2"/>
<text text-anchor="start" x="466.5" y="-286.9" font-family="Helvetica,sans-Serif" font-size="11.00" fill="#000000">bit[1]</text>
<polygon fill="none" stroke="#000000" points="275.5,-257.2 275.5,-279.2 463.5,-279.2 463.5,-257.2 275.5,-257.2"/>
<image xlink:href="../../images/foreignKeys.png" width="11px" height="12px" preserveAspectRatio="xMinYMin meet" x="280.5" y="-274.2"/>
<text text-anchor="start" x="295.5" y="-264.3" font-family="Helvetica,sans-Serif" font-size="11.00" fill="#000000">assigned_user_id</text>
<polygon fill="none" stroke="#000000" points="463.5,-257.2 463.5,-279.2 530.5,-279.2 530.5,-257.2 463.5,-257.2"/>
<text text-anchor="start" x="466.5" y="-264.9" font-family="Helvetica,sans-Serif" font-size="11.00" fill="#000000">char[36]</text>
<polygon fill="none" stroke="#000000" points="275.5,-235.2 275.5,-257.2 463.5,-257.2 463.5,-235.2 275.5,-235.2"/>
<text text-anchor="start" x="295.5" y="-242.3" font-family="Helvetica,sans-Serif" font-size="11.00" fill="#000000">popup</text>
<polygon fill="none" stroke="#000000" points="463.5,-235.2 463.5,-257.2 530.5,-257.2 530.5,-235.2 463.5,-235.2"/>
<text text-anchor="start" x="466.5" y="-242.9" font-family="Helvetica,sans-Serif" font-size="11.00" fill="#000000">bit[1]</text>
<polygon fill="none" stroke="#000000" points="275.5,-213.2 275.5,-235.2 463.5,-235.2 463.5,-213.2 275.5,-213.2"/>
<text text-anchor="start" x="295.5" y="-220.3" font-family="Helvetica,sans-Serif" font-size="11.00" fill="#000000">email</text>
<polygon fill="none" stroke="#000000" points="463.5,-213.2 463.5,-235.2 530.5,-235.2 530.5,-213.2 463.5,-213.2"/>
<text text-anchor="start" x="466.5" y="-220.9" font-family="Helvetica,sans-Serif" font-size="11.00" fill="#000000">bit[1]</text>
<polygon fill="none" stroke="#000000" points="275.5,-191.2 275.5,-213.2 463.5,-213.2 463.5,-191.2 275.5,-191.2"/>
<text text-anchor="start" x="295.5" y="-198.3" font-family="Helvetica,sans-Serif" font-size="11.00" fill="#000000">email_sent</text>
<polygon fill="none" stroke="#000000" points="463.5,-191.2 463.5,-213.2 530.5,-213.2 530.5,-191.2 463.5,-191.2"/>
<text text-anchor="start" x="466.5" y="-198.9" font-family="Helvetica,sans-Serif" font-size="11.00" fill="#000000">bit[1]</text>
<polygon fill="none" stroke="#000000" points="275.5,-169.2 275.5,-191.2 463.5,-191.2 463.5,-169.2 275.5,-169.2"/>
<text text-anchor="start" x="295.5" y="-176.3" font-family="Helvetica,sans-Serif" font-size="11.00" fill="#000000">timer_popup</text>
<polygon fill="none" stroke="#000000" points="463.5,-169.2 463.5,-191.2 530.5,-191.2 530.5,-169.2 463.5,-169.2"/>
<text text-anchor="start" x="466.5" y="-176.9" font-family="Helvetica,sans-Serif" font-size="11.00" fill="#000000">varchar[32]</text>
<polygon fill="none" stroke="#000000" points="275.5,-147.2 275.5,-169.2 463.5,-169.2 463.5,-147.2 275.5,-147.2"/>
<text text-anchor="start" x="295.5" y="-154.3" font-family="Helvetica,sans-Serif" font-size="11.00" fill="#000000">timer_email</text>
<polygon fill="none" stroke="#000000" points="463.5,-147.2 463.5,-169.2 530.5,-169.2 530.5,-147.2 463.5,-147.2"/>
<text text-anchor="start" x="466.5" y="-154.9" font-family="Helvetica,sans-Serif" font-size="11.00" fill="#000000">varchar[32]</text>
<polygon fill="#ffffff" stroke="transparent" points="275.5,-125.2 275.5,-147.2 463.5,-147.2 463.5,-125.2 275.5,-125.2"/>
<polygon fill="none" stroke="#000000" points="275.5,-125.2 275.5,-147.2 463.5,-147.2 463.5,-125.2 275.5,-125.2"/>
<text text-anchor="start" x="295.5" y="-132.3" font-family="Helvetica,sans-Serif" font-size="11.00" fill="#000000">related_event_module</text>
<polygon fill="none" stroke="#000000" points="463.5,-125.2 463.5,-147.2 530.5,-147.2 530.5,-125.2 463.5,-125.2"/>
<text text-anchor="start" x="466.5" y="-132.9" font-family="Helvetica,sans-Serif" font-size="11.00" fill="#000000">varchar[32]</text>
<polygon fill="#ffffff" stroke="transparent" points="275.5,-103.2 275.5,-125.2 463.5,-125.2 463.5,-103.2 275.5,-103.2"/>
<polygon fill="none" stroke="#000000" points="275.5,-103.2 275.5,-125.2 463.5,-125.2 463.5,-103.2 275.5,-103.2"/>
<text text-anchor="start" x="295.5" y="-110.3" font-family="Helvetica,sans-Serif" font-size="11.00" fill="#000000">related_event_module_id</text>
<polygon fill="none" stroke="#000000" points="463.5,-103.2 463.5,-125.2 530.5,-125.2 530.5,-103.2 463.5,-103.2"/>
<text text-anchor="start" x="466.5" y="-110.9" font-family="Helvetica,sans-Serif" font-size="11.00" fill="#000000">char[36]</text>
<polygon fill="none" stroke="#000000" points="275.5,-81.2 275.5,-103.2 463.5,-103.2 463.5,-81.2 275.5,-81.2"/>
<text text-anchor="start" x="295.5" y="-88.3" font-family="Helvetica,sans-Serif" font-size="11.00" fill="#000000">date_willexecute</text>
<polygon fill="none" stroke="#000000" points="463.5,-81.2 463.5,-103.2 530.5,-103.2 530.5,-81.2 463.5,-81.2"/>
<text text-anchor="start" x="466.5" y="-88.9" font-family="Helvetica,sans-Serif" font-size="11.00" fill="#000000">int[10]</text>
<polygon fill="none" stroke="#000000" points="275.5,-59.2 275.5,-81.2 463.5,-81.2 463.5,-59.2 275.5,-59.2"/>
<text text-anchor="start" x="295.5" y="-66.3" font-family="Helvetica,sans-Serif" font-size="11.00" fill="#000000">popup_viewed</text>
<polygon fill="none" stroke="#000000" points="463.5,-59.2 463.5,-81.2 530.5,-81.2 530.5,-59.2 463.5,-59.2"/>
<text text-anchor="start" x="466.5" y="-66.9" font-family="Helvetica,sans-Serif" font-size="11.00" fill="#000000">bit[1]</text>
<polygon fill="#ffffff" stroke="transparent" points="275.5,-40.2 275.5,-59.2 373.5,-59.2 373.5,-40.2 275.5,-40.2"/>
<polygon fill="none" stroke="#000000" points="275.5,-40.2 275.5,-59.2 373.5,-59.2 373.5,-40.2 275.5,-40.2"/>
<text text-anchor="start" x="278.5" y="-46.3" font-family="Helvetica,sans-Serif" font-size="11.00" fill="#000000">&lt; 3</text>
<polygon fill="#ffffff" stroke="transparent" points="373.5,-40.2 373.5,-59.2 463.5,-59.2 463.5,-40.2 373.5,-40.2"/>
<polygon fill="none" stroke="#000000" points="373.5,-40.2 373.5,-59.2 463.5,-59.2 463.5,-40.2 373.5,-40.2"/>
<text text-anchor="start" x="454.3862" y="-46.3" font-family="Helvetica,sans-Serif" font-size="11.00" fill="#000000"> &#160;</text>
<polygon fill="#ffffff" stroke="transparent" points="463.5,-40.2 463.5,-59.2 530.5,-59.2 530.5,-40.2 463.5,-40.2"/>
<polygon fill="none" stroke="#000000" points="463.5,-40.2 463.5,-59.2 530.5,-59.2 530.5,-40.2 463.5,-40.2"/>
<text text-anchor="start" x="511.9053" y="-46.3" font-family="Helvetica,sans-Serif" font-size="11.00" fill="#000000">0 &gt;</text>
<polygon fill="none" stroke="#000000" stroke-width="2" points="274,-39.2 274,-479.2 531,-479.2 531,-39.2 274,-39.2"/>
</a>
</g>
</g>
<!-- users -->
<g id="node2" class="node">
<title>users</title>
<g id="a_node2"><a xlink:href="../../tables/users.html" xlink:title="users" target="_top">
<polygon fill="#ffffff" stroke="transparent" points="8,-153.7 8,-368.7 224,-368.7 224,-153.7 8,-153.7"/>
<polygon fill="#f5f5f5" stroke="transparent" points="8,-345.2 8,-368.2 224,-368.2 224,-345.2 8,-345.2"/>
<polygon fill="none" stroke="#000000" points="8,-345.2 8,-368.2 224,-368.2 224,-345.2 8,-345.2"/>
<text text-anchor="start" x="13" y="-354.3" font-family="Helvetica,sans-Serif" font-weight="bold" font-size="11.00" fill="#000000">users</text>
<text text-anchor="start" x="189.0437" y="-353.3" font-family="Helvetica,sans-Serif" font-size="11.00" fill="#000000">[table]</text>
<polygon fill="none" stroke="#000000" points="8,-323.2 8,-345.2 224,-345.2 224,-323.2 8,-323.2"/>
<image xlink:href="../../images/primaryKeys.png" width="11px" height="12px" preserveAspectRatio="xMinYMin meet" x="13" y="-340.2"/>
<text text-anchor="start" x="28" y="-330.3" font-family="Helvetica,sans-Serif" font-size="11.00" fill="#000000">id</text>
<polygon fill="#ffffff" stroke="transparent" points="8,-301.2 8,-323.2 224,-323.2 224,-301.2 8,-301.2"/>
<polygon fill="none" stroke="#000000" points="8,-301.2 8,-323.2 224,-323.2 224,-301.2 8,-301.2"/>
<text text-anchor="start" x="28" y="-308.3" font-family="Helvetica,sans-Serif" font-size="11.00" fill="#000000">user_name</text>
<polygon fill="#ffffff" stroke="transparent" points="8,-279.2 8,-301.2 224,-301.2 224,-279.2 8,-279.2"/>
<polygon fill="none" stroke="#000000" points="8,-279.2 8,-301.2 224,-301.2 224,-279.2 8,-279.2"/>
<text text-anchor="start" x="28" y="-286.3" font-family="Helvetica,sans-Serif" font-size="11.00" fill="#000000">first_name</text>
<polygon fill="#ffffff" stroke="transparent" points="8,-257.2 8,-279.2 224,-279.2 224,-257.2 8,-257.2"/>
<polygon fill="none" stroke="#000000" points="8,-257.2 8,-279.2 224,-279.2 224,-257.2 8,-257.2"/>
<text text-anchor="start" x="28" y="-264.3" font-family="Helvetica,sans-Serif" font-size="11.00" fill="#000000">last_name</text>
<polygon fill="#ffffff" stroke="transparent" points="8,-235.2 8,-257.2 224,-257.2 224,-235.2 8,-235.2"/>
<polygon fill="none" stroke="#000000" points="8,-235.2 8,-257.2 224,-257.2 224,-235.2 8,-235.2"/>
<text text-anchor="start" x="28" y="-242.3" font-family="Helvetica,sans-Serif" font-size="11.00" fill="#000000">status</text>
<polygon fill="#c0c0c0" stroke="transparent" points="8,-213.2 8,-235.2 224,-235.2 224,-213.2 8,-213.2"/>
<polygon fill="none" stroke="#000000" points="8,-213.2 8,-235.2 224,-235.2 224,-213.2 8,-213.2"/>
<image xlink:href="../../images/foreignKeys.png" width="11px" height="12px" preserveAspectRatio="xMinYMin meet" x="13" y="-230.2"/>
<text text-anchor="start" x="28" y="-220.3" font-family="Helvetica,sans-Serif" font-size="11.00" fill="#000000">reports_to_id</text>
<polygon fill="#ffffff" stroke="transparent" points="8,-191.2 8,-213.2 224,-213.2 224,-191.2 8,-191.2"/>
<polygon fill="none" stroke="#000000" points="8,-191.2 8,-213.2 224,-213.2 224,-191.2 8,-191.2"/>
<text text-anchor="start" x="28" y="-198.3" font-family="Helvetica,sans-Serif" font-size="11.00" fill="#000000">is_group</text>
<polygon fill="none" stroke="#000000" points="8,-172.2 8,-191.2 224,-191.2 224,-172.2 8,-172.2"/>
<text text-anchor="start" x="11" y="-178.3" font-family="Helvetica,sans-Serif" font-size="11.00" fill="#000000">...</text>
<polygon fill="#ffffff" stroke="transparent" points="8,-153.2 8,-172.2 104,-172.2 104,-153.2 8,-153.2"/>
<polygon fill="none" stroke="#000000" points="8,-153.2 8,-172.2 104,-172.2 104,-153.2 8,-153.2"/>
<text text-anchor="start" x="11" y="-159.3" font-family="Helvetica,sans-Serif" font-size="11.00" fill="#000000">&lt; 2</text>
<polygon fill="#ffffff" stroke="transparent" points="104,-153.2 104,-172.2 153,-172.2 153,-153.2 104,-153.2"/>
<polygon fill="none" stroke="#000000" points="104,-153.2 104,-172.2 153,-172.2 153,-153.2 104,-153.2"/>
<text text-anchor="start" x="143.8862" y="-159.3" font-family="Helvetica,sans-Serif" font-size="11.00" fill="#000000"> &#160;</text>
<polygon fill="#ffffff" stroke="transparent" points="153,-153.2 153,-172.2 224,-172.2 224,-153.2 153,-153.2"/>
<polygon fill="none" stroke="#000000" points="153,-153.2 153,-172.2 224,-172.2 224,-153.2 153,-153.2"/>
<text text-anchor="start" x="193.1755" y="-159.3" font-family="Helvetica,sans-Serif" font-size="11.00" fill="#000000">214 &gt;</text>
</a>
</g>
</g>
<!-- reminders&#45;&gt;users -->
<g id="edge1" class="edge">
<title>reminders:w&#45;&gt;users:e</title>
<path fill="none" stroke="#000000" d="M261.511,-272.9466C244.1935,-288.0798 255.1026,-334.2 224,-334.2"/>
<polygon fill="#000000" stroke="#000000" points="267.9242,-270.7705 276.6567,-271.6091 271.7121,-269.4853 275.5,-268.2 275.5,-268.2 275.5,-268.2 271.7121,-269.4853 274.3433,-264.7909 267.9242,-270.7705 267.9242,-270.7705"/>
<ellipse fill="none" stroke="#000000" cx="264.8939" cy="-271.7988" rx="3.2" ry="3.2"/>
</g>
<!-- reminders&#45;&gt;users -->
<g id="edge2" class="edge">
<title>reminders:w&#45;&gt;users:e</title>
<path fill="none" stroke="#000000" d="M261.0156,-334.2C248.6771,-334.2 241.1667,-334.2 224,-334.2"/>
<polygon fill="#000000" stroke="#000000" points="267.5,-334.2001 275.5,-337.8 271.5,-334.2 275.5,-334.2 275.5,-334.2 275.5,-334.2 271.5,-334.2 275.5,-330.6 267.5,-334.2001 267.5,-334.2001"/>
<ellipse fill="none" stroke="#000000" cx="264.3" cy="-334.2001" rx="3.2" ry="3.2"/>
</g>
<!-- reminders&#45;&gt;users -->
<g id="edge3" class="edge">
<title>reminders:w&#45;&gt;users:e</title>
<path fill="none" stroke="#000000" d="M261.2209,-353.141C248.531,-347.096 243.0563,-334.2 224,-334.2"/>
<polygon fill="#000000" stroke="#000000" points="267.6775,-354.5241 274.7459,-359.7201 271.5887,-355.3621 275.5,-356.2 275.5,-356.2 275.5,-356.2 271.5887,-355.3621 276.2541,-352.6799 267.6775,-354.5241 267.6775,-354.5241"/>
<ellipse fill="none" stroke="#000000" cx="264.5485" cy="-353.8538" rx="3.2" ry="3.2"/>
</g>
</g>
</svg>
