<?xml version="1.0" encoding="UTF-8" standalone="no"?>
<!DOCTYPE svg PUBLIC "-//W3C//DTD SVG 1.1//EN"
 "http://www.w3.org/Graphics/SVG/1.1/DTD/svg11.dtd">
<!-- Generated by graphviz version 2.40.1 (20161225.0304)
 -->
<!-- Title: twoDegreesRelationshipsDiagram Pages: 1 -->
<svg width="717pt" height="1263pt"
 viewBox="0.00 0.00 717.00 1263.20" xmlns="http://www.w3.org/2000/svg" xmlns:xlink="http://www.w3.org/1999/xlink">
<g id="graph0" class="graph" transform="scale(1 1) rotate(0) translate(4 1259.2)">
<title>twoDegreesRelationshipsDiagram</title>
<polygon fill="#ffffff" stroke="transparent" points="-4,4 -4,-1259.2 713,-1259.2 713,4 -4,4"/>
<text text-anchor="middle" x="72.4936" y="-7.3" font-family="Helvetica,sans-Serif" font-size="11.00" fill="#000000">Generated by SchemaSpy</text>
<!-- acl_roles_users -->
<g id="node1" class="node">
<title>acl_roles_users</title>
<g id="a_node1"><a xlink:href="../../tables/acl_roles_users.html" xlink:title="acl_roles_users" target="_top">
<polygon fill="#ffffff" stroke="transparent" points="507,-1190.2 507,-1251.2 627,-1251.2 627,-1190.2 507,-1190.2"/>
<polygon fill="#f5f5f5" stroke="transparent" points="507,-1227.7 507,-1250.7 627,-1250.7 627,-1227.7 507,-1227.7"/>
<polygon fill="none" stroke="#000000" points="507,-1227.7 507,-1250.7 627,-1250.7 627,-1227.7 507,-1227.7"/>
<text text-anchor="start" x="511.9951" y="-1236.8" font-family="Helvetica,sans-Serif" font-weight="bold" font-size="11.00" fill="#000000">acl_roles_users</text>
<text text-anchor="start" x="592.5219" y="-1235.8" font-family="Helvetica,sans-Serif" font-size="11.00" fill="#000000">[table]</text>
<polygon fill="none" stroke="#000000" points="507,-1208.7 507,-1227.7 627,-1227.7 627,-1208.7 507,-1208.7"/>
<text text-anchor="start" x="510" y="-1214.8" font-family="Helvetica,sans-Serif" font-size="11.00" fill="#000000">...</text>
<polygon fill="#ffffff" stroke="transparent" points="507,-1189.7 507,-1208.7 565,-1208.7 565,-1189.7 507,-1189.7"/>
<polygon fill="none" stroke="#000000" points="507,-1189.7 507,-1208.7 565,-1208.7 565,-1189.7 507,-1189.7"/>
<text text-anchor="start" x="510" y="-1195.8" font-family="Helvetica,sans-Serif" font-size="11.00" fill="#000000">&lt; 2</text>
<polygon fill="#ffffff" stroke="transparent" points="565,-1189.7 565,-1208.7 596,-1208.7 596,-1189.7 565,-1189.7"/>
<polygon fill="none" stroke="#000000" points="565,-1189.7 565,-1208.7 596,-1208.7 596,-1189.7 565,-1189.7"/>
<text text-anchor="start" x="586.8862" y="-1195.8" font-family="Helvetica,sans-Serif" font-size="11.00" fill="#000000"> &#160;</text>
<polygon fill="#ffffff" stroke="transparent" points="596,-1189.7 596,-1208.7 627,-1208.7 627,-1189.7 596,-1189.7"/>
<polygon fill="none" stroke="#000000" points="596,-1189.7 596,-1208.7 627,-1208.7 627,-1189.7 596,-1189.7"/>
<text text-anchor="start" x="617.8862" y="-1195.8" font-family="Helvetica,sans-Serif" font-size="11.00" fill="#000000"> &#160;</text>
</a>
</g>
</g>
<!-- users -->
<g id="node2" class="node">
<title>users</title>
<g id="a_node2"><a xlink:href="../../tables/users.html" xlink:title="users" target="_top">
<polygon fill="#ffffff" stroke="transparent" points="168,-504.2 168,-719.2 384,-719.2 384,-504.2 168,-504.2"/>
<polygon fill="#f5f5f5" stroke="transparent" points="168,-695.7 168,-718.7 384,-718.7 384,-695.7 168,-695.7"/>
<polygon fill="none" stroke="#000000" points="168,-695.7 168,-718.7 384,-718.7 384,-695.7 168,-695.7"/>
<text text-anchor="start" x="173" y="-704.8" font-family="Helvetica,sans-Serif" font-weight="bold" font-size="11.00" fill="#000000">users</text>
<text text-anchor="start" x="349.0437" y="-703.8" font-family="Helvetica,sans-Serif" font-size="11.00" fill="#000000">[table]</text>
<polygon fill="none" stroke="#000000" points="168,-673.7 168,-695.7 384,-695.7 384,-673.7 168,-673.7"/>
<image xlink:href="../../images/primaryKeys.png" width="11px" height="12px" preserveAspectRatio="xMinYMin meet" x="173" y="-690.7"/>
<text text-anchor="start" x="188" y="-680.8" font-family="Helvetica,sans-Serif" font-size="11.00" fill="#000000">id</text>
<polygon fill="#ffffff" stroke="transparent" points="168,-651.7 168,-673.7 384,-673.7 384,-651.7 168,-651.7"/>
<polygon fill="none" stroke="#000000" points="168,-651.7 168,-673.7 384,-673.7 384,-651.7 168,-651.7"/>
<text text-anchor="start" x="188" y="-658.8" font-family="Helvetica,sans-Serif" font-size="11.00" fill="#000000">user_name</text>
<polygon fill="#ffffff" stroke="transparent" points="168,-629.7 168,-651.7 384,-651.7 384,-629.7 168,-629.7"/>
<polygon fill="none" stroke="#000000" points="168,-629.7 168,-651.7 384,-651.7 384,-629.7 168,-629.7"/>
<text text-anchor="start" x="188" y="-636.8" font-family="Helvetica,sans-Serif" font-size="11.00" fill="#000000">first_name</text>
<polygon fill="#ffffff" stroke="transparent" points="168,-607.7 168,-629.7 384,-629.7 384,-607.7 168,-607.7"/>
<polygon fill="none" stroke="#000000" points="168,-607.7 168,-629.7 384,-629.7 384,-607.7 168,-607.7"/>
<text text-anchor="start" x="188" y="-614.8" font-family="Helvetica,sans-Serif" font-size="11.00" fill="#000000">last_name</text>
<polygon fill="#ffffff" stroke="transparent" points="168,-585.7 168,-607.7 384,-607.7 384,-585.7 168,-585.7"/>
<polygon fill="none" stroke="#000000" points="168,-585.7 168,-607.7 384,-607.7 384,-585.7 168,-585.7"/>
<text text-anchor="start" x="188" y="-592.8" font-family="Helvetica,sans-Serif" font-size="11.00" fill="#000000">status</text>
<polygon fill="#c0c0c0" stroke="transparent" points="168,-563.7 168,-585.7 384,-585.7 384,-563.7 168,-563.7"/>
<polygon fill="none" stroke="#000000" points="168,-563.7 168,-585.7 384,-585.7 384,-563.7 168,-563.7"/>
<image xlink:href="../../images/foreignKeys.png" width="11px" height="12px" preserveAspectRatio="xMinYMin meet" x="173" y="-580.7"/>
<text text-anchor="start" x="188" y="-570.8" font-family="Helvetica,sans-Serif" font-size="11.00" fill="#000000">reports_to_id</text>
<polygon fill="#ffffff" stroke="transparent" points="168,-541.7 168,-563.7 384,-563.7 384,-541.7 168,-541.7"/>
<polygon fill="none" stroke="#000000" points="168,-541.7 168,-563.7 384,-563.7 384,-541.7 168,-541.7"/>
<text text-anchor="start" x="188" y="-548.8" font-family="Helvetica,sans-Serif" font-size="11.00" fill="#000000">is_group</text>
<polygon fill="none" stroke="#000000" points="168,-522.7 168,-541.7 384,-541.7 384,-522.7 168,-522.7"/>
<text text-anchor="start" x="171" y="-528.8" font-family="Helvetica,sans-Serif" font-size="11.00" fill="#000000">...</text>
<polygon fill="#ffffff" stroke="transparent" points="168,-503.7 168,-522.7 264,-522.7 264,-503.7 168,-503.7"/>
<polygon fill="none" stroke="#000000" points="168,-503.7 168,-522.7 264,-522.7 264,-503.7 168,-503.7"/>
<text text-anchor="start" x="171" y="-509.8" font-family="Helvetica,sans-Serif" font-size="11.00" fill="#000000">&lt; 2</text>
<polygon fill="#ffffff" stroke="transparent" points="264,-503.7 264,-522.7 313,-522.7 313,-503.7 264,-503.7"/>
<polygon fill="none" stroke="#000000" points="264,-503.7 264,-522.7 313,-522.7 313,-503.7 264,-503.7"/>
<text text-anchor="start" x="303.8862" y="-509.8" font-family="Helvetica,sans-Serif" font-size="11.00" fill="#000000"> &#160;</text>
<polygon fill="#ffffff" stroke="transparent" points="313,-503.7 313,-522.7 384,-522.7 384,-503.7 313,-503.7"/>
<polygon fill="none" stroke="#000000" points="313,-503.7 313,-522.7 384,-522.7 384,-503.7 313,-503.7"/>
<text text-anchor="start" x="353.1755" y="-509.8" font-family="Helvetica,sans-Serif" font-size="11.00" fill="#000000">214 &gt;</text>
</a>
</g>
</g>
<!-- acl_roles_users&#45;&gt;users -->
<g id="edge1" class="edge">
<title>acl_roles_users:w&#45;&gt;users:e</title>
<path fill="none" stroke="#000000" d="M492.4755,-1217.3984C461.9084,-1215.9298 445.037,-1208.3844 425,-1179.7 393.3961,-1134.4568 439.1883,-684.7 384,-684.7"/>
<polygon fill="#000000" stroke="#000000" points="499.0017,-1217.5339 506.9252,-1221.2992 503.0009,-1217.6169 507,-1217.7 507,-1217.7 507,-1217.7 503.0009,-1217.6169 507.0748,-1214.1008 499.0017,-1217.5339 499.0017,-1217.5339"/>
<ellipse fill="none" stroke="#000000" cx="495.8024" cy="-1217.4674" rx="3.2" ry="3.2"/>
</g>
<!-- campaign_log -->
<g id="node14" class="node">
<title>campaign_log</title>
<g id="a_node14"><a xlink:href="../../tables/campaign_log.html" xlink:title="campaign_log" target="_top">
<polygon fill="#ffffff" stroke="transparent" points="8,-657.2 8,-718.2 119,-718.2 119,-657.2 8,-657.2"/>
<polygon fill="#f5f5f5" stroke="transparent" points="8.5,-694.7 8.5,-717.7 119.5,-717.7 119.5,-694.7 8.5,-694.7"/>
<polygon fill="none" stroke="#000000" points="8.5,-694.7 8.5,-717.7 119.5,-717.7 119.5,-694.7 8.5,-694.7"/>
<text text-anchor="start" x="13.2686" y="-703.8" font-family="Helvetica,sans-Serif" font-weight="bold" font-size="11.00" fill="#000000">campaign_log</text>
<text text-anchor="start" x="85.0219" y="-702.8" font-family="Helvetica,sans-Serif" font-size="11.00" fill="#000000">[table]</text>
<polygon fill="none" stroke="#000000" points="8.5,-675.7 8.5,-694.7 119.5,-694.7 119.5,-675.7 8.5,-675.7"/>
<text text-anchor="start" x="11.5" y="-681.8" font-family="Helvetica,sans-Serif" font-size="11.00" fill="#000000">...</text>
<polygon fill="#ffffff" stroke="transparent" points="8.5,-656.7 8.5,-675.7 57.5,-675.7 57.5,-656.7 8.5,-656.7"/>
<polygon fill="none" stroke="#000000" points="8.5,-656.7 8.5,-675.7 57.5,-675.7 57.5,-656.7 8.5,-656.7"/>
<text text-anchor="start" x="11.5" y="-662.8" font-family="Helvetica,sans-Serif" font-size="11.00" fill="#000000">&lt; 5</text>
<polygon fill="#ffffff" stroke="transparent" points="57.5,-656.7 57.5,-675.7 83.5,-675.7 83.5,-656.7 57.5,-656.7"/>
<polygon fill="none" stroke="#000000" points="57.5,-656.7 57.5,-675.7 83.5,-675.7 83.5,-656.7 57.5,-656.7"/>
<text text-anchor="start" x="74.3862" y="-662.8" font-family="Helvetica,sans-Serif" font-size="11.00" fill="#000000"> &#160;</text>
<polygon fill="#ffffff" stroke="transparent" points="83.5,-656.7 83.5,-675.7 119.5,-675.7 119.5,-656.7 83.5,-656.7"/>
<polygon fill="none" stroke="#000000" points="83.5,-656.7 83.5,-675.7 119.5,-675.7 119.5,-656.7 83.5,-656.7"/>
<text text-anchor="start" x="100.9053" y="-662.8" font-family="Helvetica,sans-Serif" font-size="11.00" fill="#000000">5 &gt;</text>
</a>
</g>
</g>
<!-- users&#45;&gt;campaign_log -->
<g id="edge15" class="edge">
<title>users:w&#45;&gt;campaign_log:e</title>
<path fill="none" stroke="#000000" d="M157.3669,-684.7C143.8553,-684.7 137.0139,-684.7 119.5,-684.7"/>
<polygon fill="#000000" stroke="#000000" points="167.2,-680.7 167.2,-688.7 165.6,-688.7 165.6,-680.7 167.2,-680.7"/>
<polyline fill="none" stroke="#000000" points="168,-684.7 164,-684.7 "/>
<ellipse fill="none" stroke="#000000" cx="160.8" cy="-684.7001" rx="3.2" ry="3.2"/>
</g>
<!-- am_projecttemplates_users_1_c -->
<g id="node3" class="node">
<title>am_projecttemplates_users_1_c</title>
<g id="a_node3"><a xlink:href="../../tables/am_projecttemplates_users_1_c.html" xlink:title="am_projecttemplates_users_1_c" target="_top">
<polygon fill="#ffffff" stroke="transparent" points="466.5,-1108.2 466.5,-1169.2 667.5,-1169.2 667.5,-1108.2 466.5,-1108.2"/>
<polygon fill="#f5f5f5" stroke="transparent" points="467,-1145.7 467,-1168.7 668,-1168.7 668,-1145.7 467,-1145.7"/>
<polygon fill="none" stroke="#000000" points="467,-1145.7 467,-1168.7 668,-1168.7 668,-1145.7 467,-1145.7"/>
<text text-anchor="start" x="471.5382" y="-1154.8" font-family="Helvetica,sans-Serif" font-weight="bold" font-size="11.00" fill="#000000">am_projecttemplates_users_1_c</text>
<text text-anchor="start" x="633.5219" y="-1153.8" font-family="Helvetica,sans-Serif" font-size="11.00" fill="#000000">[table]</text>
<polygon fill="none" stroke="#000000" points="467,-1126.7 467,-1145.7 668,-1145.7 668,-1126.7 467,-1126.7"/>
<text text-anchor="start" x="470" y="-1132.8" font-family="Helvetica,sans-Serif" font-size="11.00" fill="#000000">...</text>
<polygon fill="#ffffff" stroke="transparent" points="467,-1107.7 467,-1126.7 566,-1126.7 566,-1107.7 467,-1107.7"/>
<polygon fill="none" stroke="#000000" points="467,-1107.7 467,-1126.7 566,-1126.7 566,-1107.7 467,-1107.7"/>
<text text-anchor="start" x="470" y="-1113.8" font-family="Helvetica,sans-Serif" font-size="11.00" fill="#000000">&lt; 2</text>
<polygon fill="#ffffff" stroke="transparent" points="566,-1107.7 566,-1126.7 617,-1126.7 617,-1107.7 566,-1107.7"/>
<polygon fill="none" stroke="#000000" points="566,-1107.7 566,-1126.7 617,-1126.7 617,-1107.7 566,-1107.7"/>
<text text-anchor="start" x="607.8862" y="-1113.8" font-family="Helvetica,sans-Serif" font-size="11.00" fill="#000000"> &#160;</text>
<polygon fill="#ffffff" stroke="transparent" points="617,-1107.7 617,-1126.7 668,-1126.7 668,-1107.7 617,-1107.7"/>
<polygon fill="none" stroke="#000000" points="617,-1107.7 617,-1126.7 668,-1126.7 668,-1107.7 617,-1107.7"/>
<text text-anchor="start" x="658.8862" y="-1113.8" font-family="Helvetica,sans-Serif" font-size="11.00" fill="#000000"> &#160;</text>
</a>
</g>
</g>
<!-- am_projecttemplates_users_1_c&#45;&gt;users -->
<g id="edge2" class="edge">
<title>am_projecttemplates_users_1_c:w&#45;&gt;users:e</title>
<path fill="none" stroke="#000000" d="M452.6243,-1133.4091C439.0391,-1128.3088 433.7681,-1115.0836 425,-1097.7 404.2325,-1056.5265 430.1145,-684.7 384,-684.7"/>
<polygon fill="#000000" stroke="#000000" points="459.0997,-1134.441 466.4334,-1139.2551 463.0498,-1135.0705 467,-1135.7 467,-1135.7 467,-1135.7 463.0498,-1135.0705 467.5666,-1132.1449 459.0997,-1134.441 459.0997,-1134.441"/>
<ellipse fill="none" stroke="#000000" cx="455.9396" cy="-1133.9374" rx="3.2" ry="3.2"/>
</g>
<!-- calls_users -->
<g id="node4" class="node">
<title>calls_users</title>
<g id="a_node4"><a xlink:href="../../tables/calls_users.html" xlink:title="calls_users" target="_top">
<polygon fill="#ffffff" stroke="transparent" points="518,-1026.2 518,-1087.2 616,-1087.2 616,-1026.2 518,-1026.2"/>
<polygon fill="#f5f5f5" stroke="transparent" points="518,-1063.7 518,-1086.7 616,-1086.7 616,-1063.7 518,-1063.7"/>
<polygon fill="none" stroke="#000000" points="518,-1063.7 518,-1086.7 616,-1086.7 616,-1063.7 518,-1063.7"/>
<text text-anchor="start" x="522.9984" y="-1072.8" font-family="Helvetica,sans-Serif" font-weight="bold" font-size="11.00" fill="#000000">calls_users</text>
<text text-anchor="start" x="581.5219" y="-1071.8" font-family="Helvetica,sans-Serif" font-size="11.00" fill="#000000">[table]</text>
<polygon fill="none" stroke="#000000" points="518,-1044.7 518,-1063.7 616,-1063.7 616,-1044.7 518,-1044.7"/>
<text text-anchor="start" x="521" y="-1050.8" font-family="Helvetica,sans-Serif" font-size="11.00" fill="#000000">...</text>
<polygon fill="#ffffff" stroke="transparent" points="518,-1025.7 518,-1044.7 565,-1044.7 565,-1025.7 518,-1025.7"/>
<polygon fill="none" stroke="#000000" points="518,-1025.7 518,-1044.7 565,-1044.7 565,-1025.7 518,-1025.7"/>
<text text-anchor="start" x="521" y="-1031.8" font-family="Helvetica,sans-Serif" font-size="11.00" fill="#000000">&lt; 2</text>
<polygon fill="#ffffff" stroke="transparent" points="565,-1025.7 565,-1044.7 590,-1044.7 590,-1025.7 565,-1025.7"/>
<polygon fill="none" stroke="#000000" points="565,-1025.7 565,-1044.7 590,-1044.7 590,-1025.7 565,-1025.7"/>
<text text-anchor="start" x="580.8862" y="-1031.8" font-family="Helvetica,sans-Serif" font-size="11.00" fill="#000000"> &#160;</text>
<polygon fill="#ffffff" stroke="transparent" points="590,-1025.7 590,-1044.7 616,-1044.7 616,-1025.7 590,-1025.7"/>
<polygon fill="none" stroke="#000000" points="590,-1025.7 590,-1044.7 616,-1044.7 616,-1025.7 590,-1025.7"/>
<text text-anchor="start" x="606.8862" y="-1031.8" font-family="Helvetica,sans-Serif" font-size="11.00" fill="#000000"> &#160;</text>
</a>
</g>
</g>
<!-- calls_users&#45;&gt;users -->
<g id="edge3" class="edge">
<title>calls_users:w&#45;&gt;users:e</title>
<path fill="none" stroke="#000000" d="M503.2207,-1053.5466C468.2951,-1052.6531 448.9515,-1047.0068 425,-1015.7 379.9642,-956.834 458.1177,-684.7 384,-684.7"/>
<polygon fill="#000000" stroke="#000000" points="510.0004,-1053.6169 517.9626,-1057.2998 514.0002,-1053.6584 518,-1053.7 518,-1053.7 518,-1053.7 514.0002,-1053.6584 518.0374,-1050.1002 510.0004,-1053.6169 510.0004,-1053.6169"/>
<ellipse fill="none" stroke="#000000" cx="506.8006" cy="-1053.5837" rx="3.2" ry="3.2"/>
</g>
<!-- contacts_users -->
<g id="node5" class="node">
<title>contacts_users</title>
<g id="a_node5"><a xlink:href="../../tables/contacts_users.html" xlink:title="contacts_users" target="_top">
<polygon fill="#ffffff" stroke="transparent" points="509,-944.2 509,-1005.2 625,-1005.2 625,-944.2 509,-944.2"/>
<polygon fill="#f5f5f5" stroke="transparent" points="509,-981.7 509,-1004.7 625,-1004.7 625,-981.7 509,-981.7"/>
<polygon fill="none" stroke="#000000" points="509,-981.7 509,-1004.7 625,-1004.7 625,-981.7 509,-981.7"/>
<text text-anchor="start" x="513.5175" y="-990.8" font-family="Helvetica,sans-Serif" font-weight="bold" font-size="11.00" fill="#000000">contacts_users</text>
<text text-anchor="start" x="590.5219" y="-989.8" font-family="Helvetica,sans-Serif" font-size="11.00" fill="#000000">[table]</text>
<polygon fill="none" stroke="#000000" points="509,-962.7 509,-981.7 625,-981.7 625,-962.7 509,-962.7"/>
<text text-anchor="start" x="512" y="-968.8" font-family="Helvetica,sans-Serif" font-size="11.00" fill="#000000">...</text>
<polygon fill="#ffffff" stroke="transparent" points="509,-943.7 509,-962.7 565,-962.7 565,-943.7 509,-943.7"/>
<polygon fill="none" stroke="#000000" points="509,-943.7 509,-962.7 565,-962.7 565,-943.7 509,-943.7"/>
<text text-anchor="start" x="512" y="-949.8" font-family="Helvetica,sans-Serif" font-size="11.00" fill="#000000">&lt; 2</text>
<polygon fill="#ffffff" stroke="transparent" points="565,-943.7 565,-962.7 595,-962.7 595,-943.7 565,-943.7"/>
<polygon fill="none" stroke="#000000" points="565,-943.7 565,-962.7 595,-962.7 595,-943.7 565,-943.7"/>
<text text-anchor="start" x="585.8862" y="-949.8" font-family="Helvetica,sans-Serif" font-size="11.00" fill="#000000"> &#160;</text>
<polygon fill="#ffffff" stroke="transparent" points="595,-943.7 595,-962.7 625,-962.7 625,-943.7 595,-943.7"/>
<polygon fill="none" stroke="#000000" points="595,-943.7 595,-962.7 625,-962.7 625,-943.7 595,-943.7"/>
<text text-anchor="start" x="615.8862" y="-949.8" font-family="Helvetica,sans-Serif" font-size="11.00" fill="#000000"> &#160;</text>
</a>
</g>
</g>
<!-- contacts_users&#45;&gt;users -->
<g id="edge4" class="edge">
<title>contacts_users:w&#45;&gt;users:e</title>
<path fill="none" stroke="#000000" d="M494.2316,-971.38C463.2496,-969.8348 446.7312,-962.016 425,-933.7 390.858,-889.2127 440.0784,-684.7 384,-684.7"/>
<polygon fill="#000000" stroke="#000000" points="501.0019,-971.5267 508.922,-975.2992 505.0009,-971.6133 509,-971.7 509,-971.7 509,-971.7 505.0009,-971.6133 509.078,-968.1008 501.0019,-971.5267 501.0019,-971.5267"/>
<ellipse fill="none" stroke="#000000" cx="497.8026" cy="-971.4573" rx="3.2" ry="3.2"/>
</g>
<!-- email_addr_bean_rel -->
<g id="node6" class="node">
<title>email_addr_bean_rel</title>
<g id="a_node6"><a xlink:href="../../tables/email_addr_bean_rel.html" xlink:title="email_addr_bean_rel" target="_top">
<polygon fill="#ffffff" stroke="transparent" points="494,-862.2 494,-923.2 640,-923.2 640,-862.2 494,-862.2"/>
<polygon fill="#f5f5f5" stroke="transparent" points="494,-899.7 494,-922.7 640,-922.7 640,-899.7 494,-899.7"/>
<polygon fill="none" stroke="#000000" points="494,-899.7 494,-922.7 640,-922.7 640,-899.7 494,-899.7"/>
<text text-anchor="start" x="498.849" y="-908.8" font-family="Helvetica,sans-Serif" font-weight="bold" font-size="11.00" fill="#000000">email_addr_bean_rel</text>
<text text-anchor="start" x="605.5219" y="-907.8" font-family="Helvetica,sans-Serif" font-size="11.00" fill="#000000">[table]</text>
<polygon fill="none" stroke="#000000" points="494,-880.7 494,-899.7 640,-899.7 640,-880.7 494,-880.7"/>
<text text-anchor="start" x="497" y="-886.8" font-family="Helvetica,sans-Serif" font-size="11.00" fill="#000000">...</text>
<polygon fill="#ffffff" stroke="transparent" points="494,-861.7 494,-880.7 565,-880.7 565,-861.7 494,-861.7"/>
<polygon fill="none" stroke="#000000" points="494,-861.7 494,-880.7 565,-880.7 565,-861.7 494,-861.7"/>
<text text-anchor="start" x="497" y="-867.8" font-family="Helvetica,sans-Serif" font-size="11.00" fill="#000000">&lt; 6</text>
<polygon fill="#ffffff" stroke="transparent" points="565,-861.7 565,-880.7 602,-880.7 602,-861.7 565,-861.7"/>
<polygon fill="none" stroke="#000000" points="565,-861.7 565,-880.7 602,-880.7 602,-861.7 565,-861.7"/>
<text text-anchor="start" x="592.8862" y="-867.8" font-family="Helvetica,sans-Serif" font-size="11.00" fill="#000000"> &#160;</text>
<polygon fill="#ffffff" stroke="transparent" points="602,-861.7 602,-880.7 640,-880.7 640,-861.7 602,-861.7"/>
<polygon fill="none" stroke="#000000" points="602,-861.7 602,-880.7 640,-880.7 640,-861.7 602,-861.7"/>
<text text-anchor="start" x="630.8862" y="-867.8" font-family="Helvetica,sans-Serif" font-size="11.00" fill="#000000"> &#160;</text>
</a>
</g>
</g>
<!-- email_addr_bean_rel&#45;&gt;users -->
<g id="edge5" class="edge">
<title>email_addr_bean_rel:w&#45;&gt;users:e</title>
<path fill="none" stroke="#000000" d="M479.4442,-888.9627C454.9241,-886.1796 443.0557,-875.2514 425,-851.7 378.5004,-791.0471 460.4264,-684.7 384,-684.7"/>
<polygon fill="#000000" stroke="#000000" points="486.0102,-889.2952 493.8179,-893.2954 490.0051,-889.4976 494,-889.7 494,-889.7 494,-889.7 490.0051,-889.4976 494.1821,-886.1046 486.0102,-889.2952 486.0102,-889.2952"/>
<ellipse fill="none" stroke="#000000" cx="482.8143" cy="-889.1333" rx="3.2" ry="3.2"/>
</g>
<!-- emails_beans -->
<g id="node7" class="node">
<title>emails_beans</title>
<g id="a_node7"><a xlink:href="../../tables/emails_beans.html" xlink:title="emails_beans" target="_top">
<polygon fill="#ffffff" stroke="transparent" points="512,-780.2 512,-841.2 622,-841.2 622,-780.2 512,-780.2"/>
<polygon fill="#f5f5f5" stroke="transparent" points="512,-817.7 512,-840.7 622,-840.7 622,-817.7 512,-817.7"/>
<polygon fill="none" stroke="#000000" points="512,-817.7 512,-840.7 622,-840.7 622,-817.7 512,-817.7"/>
<text text-anchor="start" x="516.576" y="-826.8" font-family="Helvetica,sans-Serif" font-weight="bold" font-size="11.00" fill="#000000">emails_beans</text>
<text text-anchor="start" x="587.5219" y="-825.8" font-family="Helvetica,sans-Serif" font-size="11.00" fill="#000000">[table]</text>
<polygon fill="none" stroke="#000000" points="512,-798.7 512,-817.7 622,-817.7 622,-798.7 512,-798.7"/>
<text text-anchor="start" x="515" y="-804.8" font-family="Helvetica,sans-Serif" font-size="11.00" fill="#000000">...</text>
<polygon fill="#ffffff" stroke="transparent" points="512,-779.7 512,-798.7 568,-798.7 568,-779.7 512,-779.7"/>
<polygon fill="none" stroke="#000000" points="512,-779.7 512,-798.7 568,-798.7 568,-779.7 512,-779.7"/>
<text text-anchor="start" x="515" y="-785.8" font-family="Helvetica,sans-Serif" font-size="11.00" fill="#000000">&lt; 14</text>
<polygon fill="#ffffff" stroke="transparent" points="568,-779.7 568,-798.7 595,-798.7 595,-779.7 568,-779.7"/>
<polygon fill="none" stroke="#000000" points="568,-779.7 568,-798.7 595,-798.7 595,-779.7 568,-779.7"/>
<text text-anchor="start" x="585.8862" y="-785.8" font-family="Helvetica,sans-Serif" font-size="11.00" fill="#000000"> &#160;</text>
<polygon fill="#ffffff" stroke="transparent" points="595,-779.7 595,-798.7 622,-798.7 622,-779.7 595,-779.7"/>
<polygon fill="none" stroke="#000000" points="595,-779.7 595,-798.7 622,-798.7 622,-779.7 595,-779.7"/>
<text text-anchor="start" x="612.8862" y="-785.8" font-family="Helvetica,sans-Serif" font-size="11.00" fill="#000000"> &#160;</text>
</a>
</g>
</g>
<!-- emails_beans&#45;&gt;users -->
<g id="edge6" class="edge">
<title>emails_beans:w&#45;&gt;users:e</title>
<path fill="none" stroke="#000000" d="M497.3939,-807.2677C465.9527,-805.1964 451.5927,-795.3106 425,-769.7 394.7892,-740.605 425.9429,-684.7 384,-684.7"/>
<polygon fill="#000000" stroke="#000000" points="504.0035,-807.4633 511.8935,-811.2984 508.0018,-807.5816 512,-807.7 512,-807.7 512,-807.7 508.0018,-807.5816 512.1065,-804.1016 504.0035,-807.4633 504.0035,-807.4633"/>
<ellipse fill="none" stroke="#000000" cx="500.8049" cy="-807.3686" rx="3.2" ry="3.2"/>
</g>
<!-- meetings_users -->
<g id="node8" class="node">
<title>meetings_users</title>
<g id="a_node8"><a xlink:href="../../tables/meetings_users.html" xlink:title="meetings_users" target="_top">
<polygon fill="#ffffff" stroke="transparent" points="507,-698.2 507,-759.2 627,-759.2 627,-698.2 507,-698.2"/>
<polygon fill="#f5f5f5" stroke="transparent" points="507,-735.7 507,-758.7 627,-758.7 627,-735.7 507,-735.7"/>
<polygon fill="none" stroke="#000000" points="507,-735.7 507,-758.7 627,-758.7 627,-735.7 507,-735.7"/>
<text text-anchor="start" x="511.6871" y="-744.8" font-family="Helvetica,sans-Serif" font-weight="bold" font-size="11.00" fill="#000000">meetings_users</text>
<text text-anchor="start" x="592.5219" y="-743.8" font-family="Helvetica,sans-Serif" font-size="11.00" fill="#000000">[table]</text>
<polygon fill="none" stroke="#000000" points="507,-716.7 507,-735.7 627,-735.7 627,-716.7 507,-716.7"/>
<text text-anchor="start" x="510" y="-722.8" font-family="Helvetica,sans-Serif" font-size="11.00" fill="#000000">...</text>
<polygon fill="#ffffff" stroke="transparent" points="507,-697.7 507,-716.7 565,-716.7 565,-697.7 507,-697.7"/>
<polygon fill="none" stroke="#000000" points="507,-697.7 507,-716.7 565,-716.7 565,-697.7 507,-697.7"/>
<text text-anchor="start" x="510" y="-703.8" font-family="Helvetica,sans-Serif" font-size="11.00" fill="#000000">&lt; 2</text>
<polygon fill="#ffffff" stroke="transparent" points="565,-697.7 565,-716.7 596,-716.7 596,-697.7 565,-697.7"/>
<polygon fill="none" stroke="#000000" points="565,-697.7 565,-716.7 596,-716.7 596,-697.7 565,-697.7"/>
<text text-anchor="start" x="586.8862" y="-703.8" font-family="Helvetica,sans-Serif" font-size="11.00" fill="#000000"> &#160;</text>
<polygon fill="#ffffff" stroke="transparent" points="596,-697.7 596,-716.7 627,-716.7 627,-697.7 596,-697.7"/>
<polygon fill="none" stroke="#000000" points="596,-697.7 596,-716.7 627,-716.7 627,-697.7 596,-697.7"/>
<text text-anchor="start" x="617.8862" y="-703.8" font-family="Helvetica,sans-Serif" font-size="11.00" fill="#000000"> &#160;</text>
</a>
</g>
</g>
<!-- meetings_users&#45;&gt;users -->
<g id="edge7" class="edge">
<title>meetings_users:w&#45;&gt;users:e</title>
<path fill="none" stroke="#000000" d="M492.6039,-724.7666C447.5807,-718.6638 436.4466,-684.7 384,-684.7"/>
<polygon fill="#000000" stroke="#000000" points="499.0168,-725.1824 506.7671,-729.2925 503.0084,-725.4412 507,-725.7 507,-725.7 507,-725.7 503.0084,-725.4412 507.2329,-722.1075 499.0168,-725.1824 499.0168,-725.1824"/>
<ellipse fill="none" stroke="#000000" cx="495.8235" cy="-724.9753" rx="3.2" ry="3.2"/>
</g>
<!-- project_users_1_c -->
<g id="node9" class="node">
<title>project_users_1_c</title>
<g id="a_node9"><a xlink:href="../../tables/project_users_1_c.html" xlink:title="project_users_1_c" target="_top">
<polygon fill="#ffffff" stroke="transparent" points="501,-616.2 501,-677.2 633,-677.2 633,-616.2 501,-616.2"/>
<polygon fill="#f5f5f5" stroke="transparent" points="501,-653.7 501,-676.7 633,-676.7 633,-653.7 501,-653.7"/>
<polygon fill="none" stroke="#000000" points="501,-653.7 501,-676.7 633,-676.7 633,-653.7 501,-653.7"/>
<text text-anchor="start" x="505.5722" y="-662.8" font-family="Helvetica,sans-Serif" font-weight="bold" font-size="11.00" fill="#000000">project_users_1_c</text>
<text text-anchor="start" x="598.5219" y="-661.8" font-family="Helvetica,sans-Serif" font-size="11.00" fill="#000000">[table]</text>
<polygon fill="none" stroke="#000000" points="501,-634.7 501,-653.7 633,-653.7 633,-634.7 501,-634.7"/>
<text text-anchor="start" x="504" y="-640.8" font-family="Helvetica,sans-Serif" font-size="11.00" fill="#000000">...</text>
<polygon fill="#ffffff" stroke="transparent" points="501,-615.7 501,-634.7 565,-634.7 565,-615.7 501,-615.7"/>
<polygon fill="none" stroke="#000000" points="501,-615.7 501,-634.7 565,-634.7 565,-615.7 501,-615.7"/>
<text text-anchor="start" x="504" y="-621.8" font-family="Helvetica,sans-Serif" font-size="11.00" fill="#000000">&lt; 2</text>
<polygon fill="#ffffff" stroke="transparent" points="565,-615.7 565,-634.7 599,-634.7 599,-615.7 565,-615.7"/>
<polygon fill="none" stroke="#000000" points="565,-615.7 565,-634.7 599,-634.7 599,-615.7 565,-615.7"/>
<text text-anchor="start" x="589.8862" y="-621.8" font-family="Helvetica,sans-Serif" font-size="11.00" fill="#000000"> &#160;</text>
<polygon fill="#ffffff" stroke="transparent" points="599,-615.7 599,-634.7 633,-634.7 633,-615.7 599,-615.7"/>
<polygon fill="none" stroke="#000000" points="599,-615.7 599,-634.7 633,-634.7 633,-615.7 599,-615.7"/>
<text text-anchor="start" x="623.8862" y="-621.8" font-family="Helvetica,sans-Serif" font-size="11.00" fill="#000000"> &#160;</text>
</a>
</g>
</g>
<!-- project_users_1_c&#45;&gt;users -->
<g id="edge8" class="edge">
<title>project_users_1_c:w&#45;&gt;users:e</title>
<path fill="none" stroke="#000000" d="M486.4227,-644.7547C444.1558,-651.1721 433.8271,-684.7 384,-684.7"/>
<polygon fill="#000000" stroke="#000000" points="493.0209,-644.2774 501.2598,-647.2906 497.0104,-643.9887 501,-643.7 501,-643.7 501,-643.7 497.0104,-643.9887 500.7402,-640.1094 493.0209,-644.2774 493.0209,-644.2774"/>
<ellipse fill="none" stroke="#000000" cx="489.8292" cy="-644.5083" rx="3.2" ry="3.2"/>
</g>
<!-- prospect_lists_prospects -->
<g id="node10" class="node">
<title>prospect_lists_prospects</title>
<g id="a_node10"><a xlink:href="../../tables/prospect_lists_prospects.html" xlink:title="prospect_lists_prospects" target="_top">
<polygon fill="#ffffff" stroke="transparent" points="485,-534.2 485,-595.2 649,-595.2 649,-534.2 485,-534.2"/>
<polygon fill="#f5f5f5" stroke="transparent" points="485,-571.7 485,-594.7 649,-594.7 649,-571.7 485,-571.7"/>
<polygon fill="none" stroke="#000000" points="485,-571.7 485,-594.7 649,-594.7 649,-571.7 485,-571.7"/>
<text text-anchor="start" x="489.9874" y="-580.8" font-family="Helvetica,sans-Serif" font-weight="bold" font-size="11.00" fill="#000000">prospect_lists_prospects</text>
<text text-anchor="start" x="614.5219" y="-579.8" font-family="Helvetica,sans-Serif" font-size="11.00" fill="#000000">[table]</text>
<polygon fill="none" stroke="#000000" points="485,-552.7 485,-571.7 649,-571.7 649,-552.7 485,-552.7"/>
<text text-anchor="start" x="488" y="-558.8" font-family="Helvetica,sans-Serif" font-size="11.00" fill="#000000">...</text>
<polygon fill="#ffffff" stroke="transparent" points="485,-533.7 485,-552.7 565,-552.7 565,-533.7 485,-533.7"/>
<polygon fill="none" stroke="#000000" points="485,-533.7 485,-552.7 565,-552.7 565,-533.7 485,-533.7"/>
<text text-anchor="start" x="488" y="-539.8" font-family="Helvetica,sans-Serif" font-size="11.00" fill="#000000">&lt; 6</text>
<polygon fill="#ffffff" stroke="transparent" points="565,-533.7 565,-552.7 607,-552.7 607,-533.7 565,-533.7"/>
<polygon fill="none" stroke="#000000" points="565,-533.7 565,-552.7 607,-552.7 607,-533.7 565,-533.7"/>
<text text-anchor="start" x="597.8862" y="-539.8" font-family="Helvetica,sans-Serif" font-size="11.00" fill="#000000"> &#160;</text>
<polygon fill="#ffffff" stroke="transparent" points="607,-533.7 607,-552.7 649,-552.7 649,-533.7 607,-533.7"/>
<polygon fill="none" stroke="#000000" points="607,-533.7 607,-552.7 649,-552.7 649,-533.7 607,-533.7"/>
<text text-anchor="start" x="639.8862" y="-539.8" font-family="Helvetica,sans-Serif" font-size="11.00" fill="#000000"> &#160;</text>
</a>
</g>
</g>
<!-- prospect_lists_prospects&#45;&gt;users -->
<g id="edge9" class="edge">
<title>prospect_lists_prospects:w&#45;&gt;users:e</title>
<path fill="none" stroke="#000000" d="M470.4697,-563.2386C449.6576,-568.2206 442.9009,-584.8054 425,-605.7 399.2632,-635.7409 423.5581,-684.7 384,-684.7"/>
<polygon fill="#000000" stroke="#000000" points="477.0445,-562.5425 485.3791,-565.28 481.0222,-562.1212 485,-561.7 485,-561.7 485,-561.7 481.0222,-562.1212 484.6209,-558.12 477.0445,-562.5425 477.0445,-562.5425"/>
<ellipse fill="none" stroke="#000000" cx="473.8623" cy="-562.8794" rx="3.2" ry="3.2"/>
</g>
<!-- reminders_invitees -->
<g id="node11" class="node">
<title>reminders_invitees</title>
<g id="a_node11"><a xlink:href="../../tables/reminders_invitees.html" xlink:title="reminders_invitees" target="_top">
<polygon fill="#ffffff" stroke="transparent" points="433,-202.7 433,-512.7 701,-512.7 701,-202.7 433,-202.7"/>
<polygon fill="#f5f5f5" stroke="transparent" points="435,-487.7 435,-510.7 699,-510.7 699,-487.7 435,-487.7"/>
<polygon fill="none" stroke="#000000" points="435,-487.7 435,-510.7 699,-510.7 699,-487.7 435,-487.7"/>
<text text-anchor="start" x="440" y="-496.8" font-family="Helvetica,sans-Serif" font-weight="bold" font-size="11.00" fill="#000000">reminders_invitees</text>
<text text-anchor="start" x="664.0437" y="-495.8" font-family="Helvetica,sans-Serif" font-size="11.00" fill="#000000">[table]</text>
<polygon fill="none" stroke="#000000" points="435,-465.7 435,-487.7 632,-487.7 632,-465.7 435,-465.7"/>
<image xlink:href="../../images/primaryKeys.png" width="11px" height="12px" preserveAspectRatio="xMinYMin meet" x="440" y="-482.7"/>
<text text-anchor="start" x="455" y="-472.8" font-family="Helvetica,sans-Serif" font-size="11.00" fill="#000000">id</text>
<polygon fill="none" stroke="#000000" points="632,-465.7 632,-487.7 699,-487.7 699,-465.7 632,-465.7"/>
<text text-anchor="start" x="635" y="-473.4" font-family="Helvetica,sans-Serif" font-size="11.00" fill="#000000">char[36]</text>
<polygon fill="#ffffff" stroke="transparent" points="435,-443.7 435,-465.7 632,-465.7 632,-443.7 435,-443.7"/>
<polygon fill="none" stroke="#000000" points="435,-443.7 435,-465.7 632,-465.7 632,-443.7 435,-443.7"/>
<text text-anchor="start" x="455" y="-450.8" font-family="Helvetica,sans-Serif" font-size="11.00" fill="#000000">name</text>
<polygon fill="none" stroke="#000000" points="632,-443.7 632,-465.7 699,-465.7 699,-443.7 632,-443.7"/>
<text text-anchor="start" x="634.9365" y="-451.4" font-family="Helvetica,sans-Serif" font-size="11.00" fill="#000000">varchar[255]</text>
<polygon fill="none" stroke="#000000" points="435,-421.7 435,-443.7 632,-443.7 632,-421.7 435,-421.7"/>
<text text-anchor="start" x="455" y="-428.8" font-family="Helvetica,sans-Serif" font-size="11.00" fill="#000000">date_entered</text>
<polygon fill="none" stroke="#000000" points="632,-421.7 632,-443.7 699,-443.7 699,-421.7 632,-421.7"/>
<text text-anchor="start" x="635" y="-429.4" font-family="Helvetica,sans-Serif" font-size="11.00" fill="#000000">datetime[26]</text>
<polygon fill="none" stroke="#000000" points="435,-399.7 435,-421.7 632,-421.7 632,-399.7 435,-399.7"/>
<text text-anchor="start" x="455" y="-406.8" font-family="Helvetica,sans-Serif" font-size="11.00" fill="#000000">date_modified</text>
<polygon fill="none" stroke="#000000" points="632,-399.7 632,-421.7 699,-421.7 699,-399.7 632,-399.7"/>
<text text-anchor="start" x="635" y="-407.4" font-family="Helvetica,sans-Serif" font-size="11.00" fill="#000000">datetime[26]</text>
<polygon fill="none" stroke="#000000" points="435,-377.7 435,-399.7 632,-399.7 632,-377.7 435,-377.7"/>
<image xlink:href="../../images/foreignKeys.png" width="11px" height="12px" preserveAspectRatio="xMinYMin meet" x="440" y="-394.7"/>
<text text-anchor="start" x="455" y="-384.8" font-family="Helvetica,sans-Serif" font-size="11.00" fill="#000000">modified_user_id</text>
<polygon fill="none" stroke="#000000" points="632,-377.7 632,-399.7 699,-399.7 699,-377.7 632,-377.7"/>
<text text-anchor="start" x="635" y="-385.4" font-family="Helvetica,sans-Serif" font-size="11.00" fill="#000000">char[36]</text>
<polygon fill="none" stroke="#000000" points="435,-355.7 435,-377.7 632,-377.7 632,-355.7 435,-355.7"/>
<image xlink:href="../../images/foreignKeys.png" width="11px" height="12px" preserveAspectRatio="xMinYMin meet" x="440" y="-372.7"/>
<text text-anchor="start" x="455" y="-362.8" font-family="Helvetica,sans-Serif" font-size="11.00" fill="#000000">created_by</text>
<polygon fill="none" stroke="#000000" points="632,-355.7 632,-377.7 699,-377.7 699,-355.7 632,-355.7"/>
<text text-anchor="start" x="635" y="-363.4" font-family="Helvetica,sans-Serif" font-size="11.00" fill="#000000">char[36]</text>
<polygon fill="none" stroke="#000000" points="435,-333.7 435,-355.7 632,-355.7 632,-333.7 435,-333.7"/>
<text text-anchor="start" x="455" y="-340.8" font-family="Helvetica,sans-Serif" font-size="11.00" fill="#000000">description</text>
<polygon fill="none" stroke="#000000" points="632,-333.7 632,-355.7 699,-355.7 699,-333.7 632,-333.7"/>
<text text-anchor="start" x="635" y="-341.4" font-family="Helvetica,sans-Serif" font-size="11.00" fill="#000000">text[65535]</text>
<polygon fill="none" stroke="#000000" points="435,-311.7 435,-333.7 632,-333.7 632,-311.7 435,-311.7"/>
<text text-anchor="start" x="455" y="-318.8" font-family="Helvetica,sans-Serif" font-size="11.00" fill="#000000">deleted</text>
<polygon fill="none" stroke="#000000" points="632,-311.7 632,-333.7 699,-333.7 699,-311.7 632,-311.7"/>
<text text-anchor="start" x="635" y="-319.4" font-family="Helvetica,sans-Serif" font-size="11.00" fill="#000000">bit[1]</text>
<polygon fill="#ffffff" stroke="transparent" points="435,-289.7 435,-311.7 632,-311.7 632,-289.7 435,-289.7"/>
<polygon fill="none" stroke="#000000" points="435,-289.7 435,-311.7 632,-311.7 632,-289.7 435,-289.7"/>
<image xlink:href="../../images/foreignKeys.png" width="11px" height="12px" preserveAspectRatio="xMinYMin meet" x="440" y="-306.7"/>
<text text-anchor="start" x="455" y="-296.8" font-family="Helvetica,sans-Serif" font-size="11.00" fill="#000000">assigned_user_id</text>
<polygon fill="none" stroke="#000000" points="632,-289.7 632,-311.7 699,-311.7 699,-289.7 632,-289.7"/>
<text text-anchor="start" x="635" y="-297.4" font-family="Helvetica,sans-Serif" font-size="11.00" fill="#000000">char[36]</text>
<polygon fill="#ffffff" stroke="transparent" points="435,-267.7 435,-289.7 632,-289.7 632,-267.7 435,-267.7"/>
<polygon fill="none" stroke="#000000" points="435,-267.7 435,-289.7 632,-289.7 632,-267.7 435,-267.7"/>
<text text-anchor="start" x="455" y="-274.8" font-family="Helvetica,sans-Serif" font-size="11.00" fill="#000000">reminder_id</text>
<polygon fill="none" stroke="#000000" points="632,-267.7 632,-289.7 699,-289.7 699,-267.7 632,-267.7"/>
<text text-anchor="start" x="635" y="-275.4" font-family="Helvetica,sans-Serif" font-size="11.00" fill="#000000">char[36]</text>
<polygon fill="#ffffff" stroke="transparent" points="435,-245.7 435,-267.7 632,-267.7 632,-245.7 435,-245.7"/>
<polygon fill="none" stroke="#000000" points="435,-245.7 435,-267.7 632,-267.7 632,-245.7 435,-245.7"/>
<text text-anchor="start" x="455" y="-252.8" font-family="Helvetica,sans-Serif" font-size="11.00" fill="#000000">related_invitee_module</text>
<polygon fill="none" stroke="#000000" points="632,-245.7 632,-267.7 699,-267.7 699,-245.7 632,-245.7"/>
<text text-anchor="start" x="635" y="-253.4" font-family="Helvetica,sans-Serif" font-size="11.00" fill="#000000">varchar[32]</text>
<polygon fill="#ffffff" stroke="transparent" points="435,-223.7 435,-245.7 632,-245.7 632,-223.7 435,-223.7"/>
<polygon fill="none" stroke="#000000" points="435,-223.7 435,-245.7 632,-245.7 632,-223.7 435,-223.7"/>
<text text-anchor="start" x="455" y="-230.8" font-family="Helvetica,sans-Serif" font-size="11.00" fill="#000000">related_invitee_module_id</text>
<polygon fill="none" stroke="#000000" points="632,-223.7 632,-245.7 699,-245.7 699,-223.7 632,-223.7"/>
<text text-anchor="start" x="635" y="-231.4" font-family="Helvetica,sans-Serif" font-size="11.00" fill="#000000">char[36]</text>
<polygon fill="#ffffff" stroke="transparent" points="435,-204.7 435,-223.7 538,-223.7 538,-204.7 435,-204.7"/>
<polygon fill="none" stroke="#000000" points="435,-204.7 435,-223.7 538,-223.7 538,-204.7 435,-204.7"/>
<text text-anchor="start" x="438" y="-210.8" font-family="Helvetica,sans-Serif" font-size="11.00" fill="#000000">&lt; 3</text>
<polygon fill="#ffffff" stroke="transparent" points="538,-204.7 538,-223.7 632,-223.7 632,-204.7 538,-204.7"/>
<polygon fill="none" stroke="#000000" points="538,-204.7 538,-223.7 632,-223.7 632,-204.7 538,-204.7"/>
<text text-anchor="start" x="622.8862" y="-210.8" font-family="Helvetica,sans-Serif" font-size="11.00" fill="#000000"> &#160;</text>
<polygon fill="#ffffff" stroke="transparent" points="632,-204.7 632,-223.7 699,-223.7 699,-204.7 632,-204.7"/>
<polygon fill="none" stroke="#000000" points="632,-204.7 632,-223.7 699,-223.7 699,-204.7 632,-204.7"/>
<text text-anchor="start" x="680.4053" y="-210.8" font-family="Helvetica,sans-Serif" font-size="11.00" fill="#000000">0 &gt;</text>
<polygon fill="none" stroke="#000000" stroke-width="2" points="434,-203.7 434,-511.7 700,-511.7 700,-203.7 434,-203.7"/>
</a>
</g>
</g>
<!-- reminders_invitees&#45;&gt;users -->
<g id="edge10" class="edge">
<title>reminders_invitees:w&#45;&gt;users:e</title>
<path fill="none" stroke="#000000" d="M421.187,-305.0125C363.2535,-347.2 464.7025,-684.7 384,-684.7"/>
<polygon fill="#000000" stroke="#000000" points="427.3635,-303.0842 436.0729,-304.1364 431.1818,-301.8921 435,-300.7 435,-300.7 435,-300.7 431.1818,-301.8921 433.9271,-297.2636 427.3635,-303.0842 427.3635,-303.0842"/>
<ellipse fill="none" stroke="#000000" cx="424.3089" cy="-304.0379" rx="3.2" ry="3.2"/>
</g>
<!-- reminders_invitees&#45;&gt;users -->
<g id="edge11" class="edge">
<title>reminders_invitees:w&#45;&gt;users:e</title>
<path fill="none" stroke="#000000" d="M421.3501,-371.9542C376.5173,-413.3002 450.1181,-684.7 384,-684.7"/>
<polygon fill="#000000" stroke="#000000" points="427.534,-369.5739 436.2932,-370.0597 431.267,-368.1369 435,-366.7 435,-366.7 435,-366.7 431.267,-368.1369 433.7068,-363.3403 427.534,-369.5739 427.534,-369.5739"/>
<ellipse fill="none" stroke="#000000" cx="424.5476" cy="-370.7234" rx="3.2" ry="3.2"/>
</g>
<!-- reminders_invitees&#45;&gt;users -->
<g id="edge12" class="edge">
<title>reminders_invitees:w&#45;&gt;users:e</title>
<path fill="none" stroke="#000000" d="M421.422,-394.3487C380.7829,-435.2707 445.2716,-684.7 384,-684.7"/>
<polygon fill="#000000" stroke="#000000" points="427.6137,-391.7729 436.3828,-392.0238 431.3068,-390.2364 435,-388.7 435,-388.7 435,-388.7 431.3068,-390.2364 433.6172,-385.3762 427.6137,-391.7729 427.6137,-391.7729"/>
<ellipse fill="none" stroke="#000000" cx="424.6592" cy="-393.002" rx="3.2" ry="3.2"/>
</g>
<!-- roles_users -->
<g id="node12" class="node">
<title>roles_users</title>
<g id="a_node12"><a xlink:href="../../tables/roles_users.html" xlink:title="roles_users" target="_top">
<polygon fill="#ffffff" stroke="transparent" points="517.5,-120.2 517.5,-181.2 616.5,-181.2 616.5,-120.2 517.5,-120.2"/>
<polygon fill="#f5f5f5" stroke="transparent" points="518,-157.7 518,-180.7 617,-180.7 617,-157.7 518,-157.7"/>
<polygon fill="none" stroke="#000000" points="518,-157.7 518,-180.7 617,-180.7 617,-157.7 518,-157.7"/>
<text text-anchor="start" x="522.5804" y="-166.8" font-family="Helvetica,sans-Serif" font-weight="bold" font-size="11.00" fill="#000000">roles_users</text>
<text text-anchor="start" x="582.5219" y="-165.8" font-family="Helvetica,sans-Serif" font-size="11.00" fill="#000000">[table]</text>
<polygon fill="none" stroke="#000000" points="518,-138.7 518,-157.7 617,-157.7 617,-138.7 518,-138.7"/>
<text text-anchor="start" x="521" y="-144.8" font-family="Helvetica,sans-Serif" font-size="11.00" fill="#000000">...</text>
<polygon fill="#ffffff" stroke="transparent" points="518,-119.7 518,-138.7 566,-138.7 566,-119.7 518,-119.7"/>
<polygon fill="none" stroke="#000000" points="518,-119.7 518,-138.7 566,-138.7 566,-119.7 518,-119.7"/>
<text text-anchor="start" x="521" y="-125.8" font-family="Helvetica,sans-Serif" font-size="11.00" fill="#000000">&lt; 2</text>
<polygon fill="#ffffff" stroke="transparent" points="566,-119.7 566,-138.7 591,-138.7 591,-119.7 566,-119.7"/>
<polygon fill="none" stroke="#000000" points="566,-119.7 566,-138.7 591,-138.7 591,-119.7 566,-119.7"/>
<text text-anchor="start" x="581.8862" y="-125.8" font-family="Helvetica,sans-Serif" font-size="11.00" fill="#000000"> &#160;</text>
<polygon fill="#ffffff" stroke="transparent" points="591,-119.7 591,-138.7 617,-138.7 617,-119.7 591,-119.7"/>
<polygon fill="none" stroke="#000000" points="591,-119.7 591,-138.7 617,-138.7 617,-119.7 591,-119.7"/>
<text text-anchor="start" x="607.8862" y="-125.8" font-family="Helvetica,sans-Serif" font-size="11.00" fill="#000000"> &#160;</text>
</a>
</g>
</g>
<!-- roles_users&#45;&gt;users -->
<g id="edge13" class="edge">
<title>roles_users:w&#45;&gt;users:e</title>
<path fill="none" stroke="#000000" d="M503.3076,-148.0093C467.2405,-149.7129 448.0451,-159.1332 425,-192.7 393.9518,-237.9239 438.8562,-684.7 384,-684.7"/>
<polygon fill="#000000" stroke="#000000" points="510.0018,-147.8684 518.0758,-151.2992 514.0009,-147.7842 518,-147.7 518,-147.7 518,-147.7 514.0009,-147.7842 517.9242,-144.1008 510.0018,-147.8684 510.0018,-147.8684"/>
<ellipse fill="none" stroke="#000000" cx="506.8025" cy="-147.9358" rx="3.2" ry="3.2"/>
</g>
<!-- securitygroups_users -->
<g id="node13" class="node">
<title>securitygroups_users</title>
<g id="a_node13"><a xlink:href="../../tables/securitygroups_users.html" xlink:title="securitygroups_users" target="_top">
<polygon fill="#ffffff" stroke="transparent" points="493.5,-38.2 493.5,-99.2 640.5,-99.2 640.5,-38.2 493.5,-38.2"/>
<polygon fill="#f5f5f5" stroke="transparent" points="494,-75.7 494,-98.7 641,-98.7 641,-75.7 494,-75.7"/>
<polygon fill="none" stroke="#000000" points="494,-75.7 494,-98.7 641,-98.7 641,-75.7 494,-75.7"/>
<text text-anchor="start" x="498.7412" y="-84.8" font-family="Helvetica,sans-Serif" font-weight="bold" font-size="11.00" fill="#000000">securitygroups_users</text>
<text text-anchor="start" x="606.5219" y="-83.8" font-family="Helvetica,sans-Serif" font-size="11.00" fill="#000000">[table]</text>
<polygon fill="none" stroke="#000000" points="494,-56.7 494,-75.7 641,-75.7 641,-56.7 494,-56.7"/>
<text text-anchor="start" x="497" y="-62.8" font-family="Helvetica,sans-Serif" font-size="11.00" fill="#000000">...</text>
<polygon fill="#ffffff" stroke="transparent" points="494,-37.7 494,-56.7 566,-56.7 566,-37.7 494,-37.7"/>
<polygon fill="none" stroke="#000000" points="494,-37.7 494,-56.7 566,-56.7 566,-37.7 494,-37.7"/>
<text text-anchor="start" x="497" y="-43.8" font-family="Helvetica,sans-Serif" font-size="11.00" fill="#000000">&lt; 2</text>
<polygon fill="#ffffff" stroke="transparent" points="566,-37.7 566,-56.7 603,-56.7 603,-37.7 566,-37.7"/>
<polygon fill="none" stroke="#000000" points="566,-37.7 566,-56.7 603,-56.7 603,-37.7 566,-37.7"/>
<text text-anchor="start" x="593.8862" y="-43.8" font-family="Helvetica,sans-Serif" font-size="11.00" fill="#000000"> &#160;</text>
<polygon fill="#ffffff" stroke="transparent" points="603,-37.7 603,-56.7 641,-56.7 641,-37.7 603,-37.7"/>
<polygon fill="none" stroke="#000000" points="603,-37.7 603,-56.7 641,-56.7 641,-37.7 603,-37.7"/>
<text text-anchor="start" x="631.8862" y="-43.8" font-family="Helvetica,sans-Serif" font-size="11.00" fill="#000000"> &#160;</text>
</a>
</g>
</g>
<!-- securitygroups_users&#45;&gt;users -->
<g id="edge14" class="edge">
<title>securitygroups_users:w&#45;&gt;users:e</title>
<path fill="none" stroke="#000000" d="M479.5492,-66.5164C453.4808,-69.7723 440.9211,-82.9675 425,-109.7 392.2254,-164.7306 448.0511,-684.7 384,-684.7"/>
<polygon fill="#000000" stroke="#000000" points="486.0127,-66.1513 494.2031,-69.2943 490.0064,-65.9257 494,-65.7 494,-65.7 494,-65.7 490.0064,-65.9257 493.7969,-62.1057 486.0127,-66.1513 486.0127,-66.1513"/>
<ellipse fill="none" stroke="#000000" cx="482.8178" cy="-66.3318" rx="3.2" ry="3.2"/>
</g>
</g>
</svg>
