<?xml version="1.0" encoding="UTF-8" standalone="no"?>
<!DOCTYPE svg PUBLIC "-//W3C//DTD SVG 1.1//EN"
 "http://www.w3.org/Graphics/SVG/1.1/DTD/svg11.dtd">
<!-- Generated by graphviz version 2.40.1 (20161225.0304)
 -->
<!-- Title: twoDegreesRelationshipsDiagram Pages: 1 -->
<svg width="650pt" height="1027pt"
 viewBox="0.00 0.00 650.00 1026.70" xmlns="http://www.w3.org/2000/svg" xmlns:xlink="http://www.w3.org/1999/xlink">
<g id="graph0" class="graph" transform="scale(1 1) rotate(0) translate(4 1022.7)">
<title>twoDegreesRelationshipsDiagram</title>
<polygon fill="#ffffff" stroke="transparent" points="-4,4 -4,-1022.7 646,-1022.7 646,4 -4,4"/>
<text text-anchor="middle" x="72.4936" y="-7.3" font-family="Helvetica,sans-Serif" font-size="11.00" fill="#000000">Generated by SchemaSpy</text>
<!-- acl_roles_users -->
<g id="node1" class="node">
<title>acl_roles_users</title>
<g id="a_node1"><a xlink:href="../../tables/acl_roles_users.html" xlink:title="acl_roles_users" target="_top">
<polygon fill="#ffffff" stroke="transparent" points="473.5,-707.7 473.5,-768.7 593.5,-768.7 593.5,-707.7 473.5,-707.7"/>
<polygon fill="#f5f5f5" stroke="transparent" points="473.5,-745.2 473.5,-768.2 593.5,-768.2 593.5,-745.2 473.5,-745.2"/>
<polygon fill="none" stroke="#000000" points="473.5,-745.2 473.5,-768.2 593.5,-768.2 593.5,-745.2 473.5,-745.2"/>
<text text-anchor="start" x="478.4951" y="-754.3" font-family="Helvetica,sans-Serif" font-weight="bold" font-size="11.00" fill="#000000">acl_roles_users</text>
<text text-anchor="start" x="559.0219" y="-753.3" font-family="Helvetica,sans-Serif" font-size="11.00" fill="#000000">[table]</text>
<polygon fill="none" stroke="#000000" points="473.5,-726.2 473.5,-745.2 593.5,-745.2 593.5,-726.2 473.5,-726.2"/>
<text text-anchor="start" x="476.5" y="-732.3" font-family="Helvetica,sans-Serif" font-size="11.00" fill="#000000">...</text>
<polygon fill="#ffffff" stroke="transparent" points="473.5,-707.2 473.5,-726.2 531.5,-726.2 531.5,-707.2 473.5,-707.2"/>
<polygon fill="none" stroke="#000000" points="473.5,-707.2 473.5,-726.2 531.5,-726.2 531.5,-707.2 473.5,-707.2"/>
<text text-anchor="start" x="476.5" y="-713.3" font-family="Helvetica,sans-Serif" font-size="11.00" fill="#000000">&lt; 2</text>
<polygon fill="#ffffff" stroke="transparent" points="531.5,-707.2 531.5,-726.2 562.5,-726.2 562.5,-707.2 531.5,-707.2"/>
<polygon fill="none" stroke="#000000" points="531.5,-707.2 531.5,-726.2 562.5,-726.2 562.5,-707.2 531.5,-707.2"/>
<text text-anchor="start" x="553.3862" y="-713.3" font-family="Helvetica,sans-Serif" font-size="11.00" fill="#000000"> &#160;</text>
<polygon fill="#ffffff" stroke="transparent" points="562.5,-707.2 562.5,-726.2 593.5,-726.2 593.5,-707.2 562.5,-707.2"/>
<polygon fill="none" stroke="#000000" points="562.5,-707.2 562.5,-726.2 593.5,-726.2 593.5,-707.2 562.5,-707.2"/>
<text text-anchor="start" x="584.3862" y="-713.3" font-family="Helvetica,sans-Serif" font-size="11.00" fill="#000000"> &#160;</text>
</a>
</g>
</g>
<!-- users -->
<g id="node2" class="node">
<title>users</title>
<g id="a_node2"><a xlink:href="../../tables/users.html" xlink:title="users" target="_top">
<polygon fill="#ffffff" stroke="transparent" points="168,-390.7 168,-605.7 384,-605.7 384,-390.7 168,-390.7"/>
<polygon fill="#f5f5f5" stroke="transparent" points="168,-582.2 168,-605.2 384,-605.2 384,-582.2 168,-582.2"/>
<polygon fill="none" stroke="#000000" points="168,-582.2 168,-605.2 384,-605.2 384,-582.2 168,-582.2"/>
<text text-anchor="start" x="173" y="-591.3" font-family="Helvetica,sans-Serif" font-weight="bold" font-size="11.00" fill="#000000">users</text>
<text text-anchor="start" x="349.0437" y="-590.3" font-family="Helvetica,sans-Serif" font-size="11.00" fill="#000000">[table]</text>
<polygon fill="none" stroke="#000000" points="168,-560.2 168,-582.2 384,-582.2 384,-560.2 168,-560.2"/>
<image xlink:href="../../images/primaryKeys.png" width="11px" height="12px" preserveAspectRatio="xMinYMin meet" x="173" y="-577.2"/>
<text text-anchor="start" x="188" y="-567.3" font-family="Helvetica,sans-Serif" font-size="11.00" fill="#000000">id</text>
<polygon fill="#ffffff" stroke="transparent" points="168,-538.2 168,-560.2 384,-560.2 384,-538.2 168,-538.2"/>
<polygon fill="none" stroke="#000000" points="168,-538.2 168,-560.2 384,-560.2 384,-538.2 168,-538.2"/>
<text text-anchor="start" x="188" y="-545.3" font-family="Helvetica,sans-Serif" font-size="11.00" fill="#000000">user_name</text>
<polygon fill="#ffffff" stroke="transparent" points="168,-516.2 168,-538.2 384,-538.2 384,-516.2 168,-516.2"/>
<polygon fill="none" stroke="#000000" points="168,-516.2 168,-538.2 384,-538.2 384,-516.2 168,-516.2"/>
<text text-anchor="start" x="188" y="-523.3" font-family="Helvetica,sans-Serif" font-size="11.00" fill="#000000">first_name</text>
<polygon fill="#ffffff" stroke="transparent" points="168,-494.2 168,-516.2 384,-516.2 384,-494.2 168,-494.2"/>
<polygon fill="none" stroke="#000000" points="168,-494.2 168,-516.2 384,-516.2 384,-494.2 168,-494.2"/>
<text text-anchor="start" x="188" y="-501.3" font-family="Helvetica,sans-Serif" font-size="11.00" fill="#000000">last_name</text>
<polygon fill="#ffffff" stroke="transparent" points="168,-472.2 168,-494.2 384,-494.2 384,-472.2 168,-472.2"/>
<polygon fill="none" stroke="#000000" points="168,-472.2 168,-494.2 384,-494.2 384,-472.2 168,-472.2"/>
<text text-anchor="start" x="188" y="-479.3" font-family="Helvetica,sans-Serif" font-size="11.00" fill="#000000">status</text>
<polygon fill="#c0c0c0" stroke="transparent" points="168,-450.2 168,-472.2 384,-472.2 384,-450.2 168,-450.2"/>
<polygon fill="none" stroke="#000000" points="168,-450.2 168,-472.2 384,-472.2 384,-450.2 168,-450.2"/>
<image xlink:href="../../images/foreignKeys.png" width="11px" height="12px" preserveAspectRatio="xMinYMin meet" x="173" y="-467.2"/>
<text text-anchor="start" x="188" y="-457.3" font-family="Helvetica,sans-Serif" font-size="11.00" fill="#000000">reports_to_id</text>
<polygon fill="#ffffff" stroke="transparent" points="168,-428.2 168,-450.2 384,-450.2 384,-428.2 168,-428.2"/>
<polygon fill="none" stroke="#000000" points="168,-428.2 168,-450.2 384,-450.2 384,-428.2 168,-428.2"/>
<text text-anchor="start" x="188" y="-435.3" font-family="Helvetica,sans-Serif" font-size="11.00" fill="#000000">is_group</text>
<polygon fill="none" stroke="#000000" points="168,-409.2 168,-428.2 384,-428.2 384,-409.2 168,-409.2"/>
<text text-anchor="start" x="171" y="-415.3" font-family="Helvetica,sans-Serif" font-size="11.00" fill="#000000">...</text>
<polygon fill="#ffffff" stroke="transparent" points="168,-390.2 168,-409.2 264,-409.2 264,-390.2 168,-390.2"/>
<polygon fill="none" stroke="#000000" points="168,-390.2 168,-409.2 264,-409.2 264,-390.2 168,-390.2"/>
<text text-anchor="start" x="171" y="-396.3" font-family="Helvetica,sans-Serif" font-size="11.00" fill="#000000">&lt; 2</text>
<polygon fill="#ffffff" stroke="transparent" points="264,-390.2 264,-409.2 313,-409.2 313,-390.2 264,-390.2"/>
<polygon fill="none" stroke="#000000" points="264,-390.2 264,-409.2 313,-409.2 313,-390.2 264,-390.2"/>
<text text-anchor="start" x="303.8862" y="-396.3" font-family="Helvetica,sans-Serif" font-size="11.00" fill="#000000"> &#160;</text>
<polygon fill="#ffffff" stroke="transparent" points="313,-390.2 313,-409.2 384,-409.2 384,-390.2 313,-390.2"/>
<polygon fill="none" stroke="#000000" points="313,-390.2 313,-409.2 384,-409.2 384,-390.2 313,-390.2"/>
<text text-anchor="start" x="353.1755" y="-396.3" font-family="Helvetica,sans-Serif" font-size="11.00" fill="#000000">214 &gt;</text>
</a>
</g>
</g>
<!-- acl_roles_users&#45;&gt;users -->
<g id="edge1" class="edge">
<title>acl_roles_users:w&#45;&gt;users:e</title>
<path fill="none" stroke="#000000" d="M458.8004,-733.2043C443.3723,-728.3292 437.3852,-714.9058 425,-697.2 391.2448,-648.9441 442.8901,-571.2 384,-571.2"/>
<polygon fill="#000000" stroke="#000000" points="465.5727,-734.1237 473.0157,-738.7673 469.5364,-734.6619 473.5,-735.2 473.5,-735.2 473.5,-735.2 469.5364,-734.6619 473.9843,-731.6327 465.5727,-734.1237 465.5727,-734.1237"/>
<ellipse fill="none" stroke="#000000" cx="462.4018" cy="-733.6932" rx="3.2" ry="3.2"/>
</g>
<!-- campaign_log -->
<g id="node14" class="node">
<title>campaign_log</title>
<g id="a_node14"><a xlink:href="../../tables/campaign_log.html" xlink:title="campaign_log" target="_top">
<polygon fill="#ffffff" stroke="transparent" points="8,-543.7 8,-604.7 119,-604.7 119,-543.7 8,-543.7"/>
<polygon fill="#f5f5f5" stroke="transparent" points="8.5,-581.2 8.5,-604.2 119.5,-604.2 119.5,-581.2 8.5,-581.2"/>
<polygon fill="none" stroke="#000000" points="8.5,-581.2 8.5,-604.2 119.5,-604.2 119.5,-581.2 8.5,-581.2"/>
<text text-anchor="start" x="13.2686" y="-590.3" font-family="Helvetica,sans-Serif" font-weight="bold" font-size="11.00" fill="#000000">campaign_log</text>
<text text-anchor="start" x="85.0219" y="-589.3" font-family="Helvetica,sans-Serif" font-size="11.00" fill="#000000">[table]</text>
<polygon fill="none" stroke="#000000" points="8.5,-562.2 8.5,-581.2 119.5,-581.2 119.5,-562.2 8.5,-562.2"/>
<text text-anchor="start" x="11.5" y="-568.3" font-family="Helvetica,sans-Serif" font-size="11.00" fill="#000000">...</text>
<polygon fill="#ffffff" stroke="transparent" points="8.5,-543.2 8.5,-562.2 57.5,-562.2 57.5,-543.2 8.5,-543.2"/>
<polygon fill="none" stroke="#000000" points="8.5,-543.2 8.5,-562.2 57.5,-562.2 57.5,-543.2 8.5,-543.2"/>
<text text-anchor="start" x="11.5" y="-549.3" font-family="Helvetica,sans-Serif" font-size="11.00" fill="#000000">&lt; 5</text>
<polygon fill="#ffffff" stroke="transparent" points="57.5,-543.2 57.5,-562.2 83.5,-562.2 83.5,-543.2 57.5,-543.2"/>
<polygon fill="none" stroke="#000000" points="57.5,-543.2 57.5,-562.2 83.5,-562.2 83.5,-543.2 57.5,-543.2"/>
<text text-anchor="start" x="74.3862" y="-549.3" font-family="Helvetica,sans-Serif" font-size="11.00" fill="#000000"> &#160;</text>
<polygon fill="#ffffff" stroke="transparent" points="83.5,-543.2 83.5,-562.2 119.5,-562.2 119.5,-543.2 83.5,-543.2"/>
<polygon fill="none" stroke="#000000" points="83.5,-543.2 83.5,-562.2 119.5,-562.2 119.5,-543.2 83.5,-543.2"/>
<text text-anchor="start" x="100.9053" y="-549.3" font-family="Helvetica,sans-Serif" font-size="11.00" fill="#000000">5 &gt;</text>
</a>
</g>
</g>
<!-- users&#45;&gt;campaign_log -->
<g id="edge13" class="edge">
<title>users:w&#45;&gt;campaign_log:e</title>
<path fill="none" stroke="#000000" d="M157.3669,-571.2C143.8553,-571.2 137.0139,-571.2 119.5,-571.2"/>
<polygon fill="#000000" stroke="#000000" points="167.2,-567.2 167.2,-575.2 165.6,-575.2 165.6,-567.2 167.2,-567.2"/>
<polyline fill="none" stroke="#000000" points="168,-571.2 164,-571.2 "/>
<ellipse fill="none" stroke="#000000" cx="160.8" cy="-571.2001" rx="3.2" ry="3.2"/>
</g>
<!-- am_projecttemplates_users_1_c -->
<g id="node3" class="node">
<title>am_projecttemplates_users_1_c</title>
<g id="a_node3"><a xlink:href="../../tables/am_projecttemplates_users_1_c.html" xlink:title="am_projecttemplates_users_1_c" target="_top">
<polygon fill="#ffffff" stroke="transparent" points="433,-625.7 433,-686.7 634,-686.7 634,-625.7 433,-625.7"/>
<polygon fill="#f5f5f5" stroke="transparent" points="433.5,-663.2 433.5,-686.2 634.5,-686.2 634.5,-663.2 433.5,-663.2"/>
<polygon fill="none" stroke="#000000" points="433.5,-663.2 433.5,-686.2 634.5,-686.2 634.5,-663.2 433.5,-663.2"/>
<text text-anchor="start" x="438.0382" y="-672.3" font-family="Helvetica,sans-Serif" font-weight="bold" font-size="11.00" fill="#000000">am_projecttemplates_users_1_c</text>
<text text-anchor="start" x="600.0219" y="-671.3" font-family="Helvetica,sans-Serif" font-size="11.00" fill="#000000">[table]</text>
<polygon fill="none" stroke="#000000" points="433.5,-644.2 433.5,-663.2 634.5,-663.2 634.5,-644.2 433.5,-644.2"/>
<text text-anchor="start" x="436.5" y="-650.3" font-family="Helvetica,sans-Serif" font-size="11.00" fill="#000000">...</text>
<polygon fill="#ffffff" stroke="transparent" points="433.5,-625.2 433.5,-644.2 532.5,-644.2 532.5,-625.2 433.5,-625.2"/>
<polygon fill="none" stroke="#000000" points="433.5,-625.2 433.5,-644.2 532.5,-644.2 532.5,-625.2 433.5,-625.2"/>
<text text-anchor="start" x="436.5" y="-631.3" font-family="Helvetica,sans-Serif" font-size="11.00" fill="#000000">&lt; 2</text>
<polygon fill="#ffffff" stroke="transparent" points="532.5,-625.2 532.5,-644.2 583.5,-644.2 583.5,-625.2 532.5,-625.2"/>
<polygon fill="none" stroke="#000000" points="532.5,-625.2 532.5,-644.2 583.5,-644.2 583.5,-625.2 532.5,-625.2"/>
<text text-anchor="start" x="574.3862" y="-631.3" font-family="Helvetica,sans-Serif" font-size="11.00" fill="#000000"> &#160;</text>
<polygon fill="#ffffff" stroke="transparent" points="583.5,-625.2 583.5,-644.2 634.5,-644.2 634.5,-625.2 583.5,-625.2"/>
<polygon fill="none" stroke="#000000" points="583.5,-625.2 583.5,-644.2 634.5,-644.2 634.5,-625.2 583.5,-625.2"/>
<text text-anchor="start" x="625.3862" y="-631.3" font-family="Helvetica,sans-Serif" font-size="11.00" fill="#000000"> &#160;</text>
</a>
</g>
</g>
<!-- am_projecttemplates_users_1_c&#45;&gt;users -->
<g id="edge2" class="edge">
<title>am_projecttemplates_users_1_c:w&#45;&gt;users:e</title>
<path fill="none" stroke="#000000" d="M419.7457,-648.7913C399.4072,-631.7591 420.5835,-571.2 384,-571.2"/>
<polygon fill="#000000" stroke="#000000" points="425.8818,-650.7581 432.4011,-656.6282 429.6909,-651.979 433.5,-653.2 433.5,-653.2 433.5,-653.2 429.6909,-651.979 434.5989,-649.7718 425.8818,-650.7581 425.8818,-650.7581"/>
<ellipse fill="none" stroke="#000000" cx="422.8345" cy="-649.7813" rx="3.2" ry="3.2"/>
</g>
<!-- calls_users -->
<g id="node4" class="node">
<title>calls_users</title>
<g id="a_node4"><a xlink:href="../../tables/calls_users.html" xlink:title="calls_users" target="_top">
<polygon fill="#ffffff" stroke="transparent" points="484.5,-543.7 484.5,-604.7 582.5,-604.7 582.5,-543.7 484.5,-543.7"/>
<polygon fill="#f5f5f5" stroke="transparent" points="484.5,-581.2 484.5,-604.2 582.5,-604.2 582.5,-581.2 484.5,-581.2"/>
<polygon fill="none" stroke="#000000" points="484.5,-581.2 484.5,-604.2 582.5,-604.2 582.5,-581.2 484.5,-581.2"/>
<text text-anchor="start" x="489.4984" y="-590.3" font-family="Helvetica,sans-Serif" font-weight="bold" font-size="11.00" fill="#000000">calls_users</text>
<text text-anchor="start" x="548.0219" y="-589.3" font-family="Helvetica,sans-Serif" font-size="11.00" fill="#000000">[table]</text>
<polygon fill="none" stroke="#000000" points="484.5,-562.2 484.5,-581.2 582.5,-581.2 582.5,-562.2 484.5,-562.2"/>
<text text-anchor="start" x="487.5" y="-568.3" font-family="Helvetica,sans-Serif" font-size="11.00" fill="#000000">...</text>
<polygon fill="#ffffff" stroke="transparent" points="484.5,-543.2 484.5,-562.2 531.5,-562.2 531.5,-543.2 484.5,-543.2"/>
<polygon fill="none" stroke="#000000" points="484.5,-543.2 484.5,-562.2 531.5,-562.2 531.5,-543.2 484.5,-543.2"/>
<text text-anchor="start" x="487.5" y="-549.3" font-family="Helvetica,sans-Serif" font-size="11.00" fill="#000000">&lt; 2</text>
<polygon fill="#ffffff" stroke="transparent" points="531.5,-543.2 531.5,-562.2 556.5,-562.2 556.5,-543.2 531.5,-543.2"/>
<polygon fill="none" stroke="#000000" points="531.5,-543.2 531.5,-562.2 556.5,-562.2 556.5,-543.2 531.5,-543.2"/>
<text text-anchor="start" x="547.3862" y="-549.3" font-family="Helvetica,sans-Serif" font-size="11.00" fill="#000000"> &#160;</text>
<polygon fill="#ffffff" stroke="transparent" points="556.5,-543.2 556.5,-562.2 582.5,-562.2 582.5,-543.2 556.5,-543.2"/>
<polygon fill="none" stroke="#000000" points="556.5,-543.2 556.5,-562.2 582.5,-562.2 582.5,-543.2 556.5,-543.2"/>
<text text-anchor="start" x="573.3862" y="-549.3" font-family="Helvetica,sans-Serif" font-size="11.00" fill="#000000"> &#160;</text>
</a>
</g>
</g>
<!-- calls_users&#45;&gt;users -->
<g id="edge3" class="edge">
<title>calls_users:w&#45;&gt;users:e</title>
<path fill="none" stroke="#000000" d="M470.0692,-571.2C436.7561,-571.2 423.4323,-571.2 384,-571.2"/>
<polygon fill="#000000" stroke="#000000" points="476.5,-571.2001 484.5,-574.8 480.5,-571.2 484.5,-571.2 484.5,-571.2 484.5,-571.2 480.5,-571.2 484.5,-567.6 476.5,-571.2001 476.5,-571.2001"/>
<ellipse fill="none" stroke="#000000" cx="473.3" cy="-571.2001" rx="3.2" ry="3.2"/>
</g>
<!-- contacts_users -->
<g id="node5" class="node">
<title>contacts_users</title>
<g id="a_node5"><a xlink:href="../../tables/contacts_users.html" xlink:title="contacts_users" target="_top">
<polygon fill="#ffffff" stroke="transparent" points="475.5,-461.7 475.5,-522.7 591.5,-522.7 591.5,-461.7 475.5,-461.7"/>
<polygon fill="#f5f5f5" stroke="transparent" points="475.5,-499.2 475.5,-522.2 591.5,-522.2 591.5,-499.2 475.5,-499.2"/>
<polygon fill="none" stroke="#000000" points="475.5,-499.2 475.5,-522.2 591.5,-522.2 591.5,-499.2 475.5,-499.2"/>
<text text-anchor="start" x="480.0175" y="-508.3" font-family="Helvetica,sans-Serif" font-weight="bold" font-size="11.00" fill="#000000">contacts_users</text>
<text text-anchor="start" x="557.0219" y="-507.3" font-family="Helvetica,sans-Serif" font-size="11.00" fill="#000000">[table]</text>
<polygon fill="none" stroke="#000000" points="475.5,-480.2 475.5,-499.2 591.5,-499.2 591.5,-480.2 475.5,-480.2"/>
<text text-anchor="start" x="478.5" y="-486.3" font-family="Helvetica,sans-Serif" font-size="11.00" fill="#000000">...</text>
<polygon fill="#ffffff" stroke="transparent" points="475.5,-461.2 475.5,-480.2 531.5,-480.2 531.5,-461.2 475.5,-461.2"/>
<polygon fill="none" stroke="#000000" points="475.5,-461.2 475.5,-480.2 531.5,-480.2 531.5,-461.2 475.5,-461.2"/>
<text text-anchor="start" x="478.5" y="-467.3" font-family="Helvetica,sans-Serif" font-size="11.00" fill="#000000">&lt; 2</text>
<polygon fill="#ffffff" stroke="transparent" points="531.5,-461.2 531.5,-480.2 561.5,-480.2 561.5,-461.2 531.5,-461.2"/>
<polygon fill="none" stroke="#000000" points="531.5,-461.2 531.5,-480.2 561.5,-480.2 561.5,-461.2 531.5,-461.2"/>
<text text-anchor="start" x="552.3862" y="-467.3" font-family="Helvetica,sans-Serif" font-size="11.00" fill="#000000"> &#160;</text>
<polygon fill="#ffffff" stroke="transparent" points="561.5,-461.2 561.5,-480.2 591.5,-480.2 591.5,-461.2 561.5,-461.2"/>
<polygon fill="none" stroke="#000000" points="561.5,-461.2 561.5,-480.2 591.5,-480.2 591.5,-461.2 561.5,-461.2"/>
<text text-anchor="start" x="582.3862" y="-467.3" font-family="Helvetica,sans-Serif" font-size="11.00" fill="#000000"> &#160;</text>
</a>
</g>
</g>
<!-- contacts_users&#45;&gt;users -->
<g id="edge4" class="edge">
<title>contacts_users:w&#45;&gt;users:e</title>
<path fill="none" stroke="#000000" d="M461.2178,-491.7474C445.3837,-498.4545 442.8169,-517.1884 425,-533.2 406.5205,-549.807 408.8452,-571.2 384,-571.2"/>
<polygon fill="#000000" stroke="#000000" points="467.6243,-490.6047 476.1321,-492.7441 471.5621,-489.9024 475.5,-489.2 475.5,-489.2 475.5,-489.2 471.5621,-489.9024 474.8679,-485.6559 467.6243,-490.6047 467.6243,-490.6047"/>
<ellipse fill="none" stroke="#000000" cx="464.474" cy="-491.1666" rx="3.2" ry="3.2"/>
</g>
<!-- email_addr_bean_rel -->
<g id="node6" class="node">
<title>email_addr_bean_rel</title>
<g id="a_node6"><a xlink:href="../../tables/email_addr_bean_rel.html" xlink:title="email_addr_bean_rel" target="_top">
<polygon fill="#ffffff" stroke="transparent" points="460.5,-379.7 460.5,-440.7 606.5,-440.7 606.5,-379.7 460.5,-379.7"/>
<polygon fill="#f5f5f5" stroke="transparent" points="460.5,-417.2 460.5,-440.2 606.5,-440.2 606.5,-417.2 460.5,-417.2"/>
<polygon fill="none" stroke="#000000" points="460.5,-417.2 460.5,-440.2 606.5,-440.2 606.5,-417.2 460.5,-417.2"/>
<text text-anchor="start" x="465.349" y="-426.3" font-family="Helvetica,sans-Serif" font-weight="bold" font-size="11.00" fill="#000000">email_addr_bean_rel</text>
<text text-anchor="start" x="572.0219" y="-425.3" font-family="Helvetica,sans-Serif" font-size="11.00" fill="#000000">[table]</text>
<polygon fill="none" stroke="#000000" points="460.5,-398.2 460.5,-417.2 606.5,-417.2 606.5,-398.2 460.5,-398.2"/>
<text text-anchor="start" x="463.5" y="-404.3" font-family="Helvetica,sans-Serif" font-size="11.00" fill="#000000">...</text>
<polygon fill="#ffffff" stroke="transparent" points="460.5,-379.2 460.5,-398.2 531.5,-398.2 531.5,-379.2 460.5,-379.2"/>
<polygon fill="none" stroke="#000000" points="460.5,-379.2 460.5,-398.2 531.5,-398.2 531.5,-379.2 460.5,-379.2"/>
<text text-anchor="start" x="463.5" y="-385.3" font-family="Helvetica,sans-Serif" font-size="11.00" fill="#000000">&lt; 6</text>
<polygon fill="#ffffff" stroke="transparent" points="531.5,-379.2 531.5,-398.2 568.5,-398.2 568.5,-379.2 531.5,-379.2"/>
<polygon fill="none" stroke="#000000" points="531.5,-379.2 531.5,-398.2 568.5,-398.2 568.5,-379.2 531.5,-379.2"/>
<text text-anchor="start" x="559.3862" y="-385.3" font-family="Helvetica,sans-Serif" font-size="11.00" fill="#000000"> &#160;</text>
<polygon fill="#ffffff" stroke="transparent" points="568.5,-379.2 568.5,-398.2 606.5,-398.2 606.5,-379.2 568.5,-379.2"/>
<polygon fill="none" stroke="#000000" points="568.5,-379.2 568.5,-398.2 606.5,-398.2 606.5,-379.2 568.5,-379.2"/>
<text text-anchor="start" x="597.3862" y="-385.3" font-family="Helvetica,sans-Serif" font-size="11.00" fill="#000000"> &#160;</text>
</a>
</g>
</g>
<!-- email_addr_bean_rel&#45;&gt;users -->
<g id="edge5" class="edge">
<title>email_addr_bean_rel:w&#45;&gt;users:e</title>
<path fill="none" stroke="#000000" d="M446.2107,-409.3943C390.8344,-428.8555 458.9307,-571.2 384,-571.2"/>
<polygon fill="#000000" stroke="#000000" points="452.5927,-408.4143 461.0464,-410.7583 456.5463,-407.8072 460.5,-407.2 460.5,-407.2 460.5,-407.2 456.5463,-407.8072 459.9536,-403.6417 452.5927,-408.4143 452.5927,-408.4143"/>
<ellipse fill="none" stroke="#000000" cx="449.4298" cy="-408.9001" rx="3.2" ry="3.2"/>
</g>
<!-- emails_beans -->
<g id="node7" class="node">
<title>emails_beans</title>
<g id="a_node7"><a xlink:href="../../tables/emails_beans.html" xlink:title="emails_beans" target="_top">
<polygon fill="#ffffff" stroke="transparent" points="478.5,-297.7 478.5,-358.7 588.5,-358.7 588.5,-297.7 478.5,-297.7"/>
<polygon fill="#f5f5f5" stroke="transparent" points="478.5,-335.2 478.5,-358.2 588.5,-358.2 588.5,-335.2 478.5,-335.2"/>
<polygon fill="none" stroke="#000000" points="478.5,-335.2 478.5,-358.2 588.5,-358.2 588.5,-335.2 478.5,-335.2"/>
<text text-anchor="start" x="483.076" y="-344.3" font-family="Helvetica,sans-Serif" font-weight="bold" font-size="11.00" fill="#000000">emails_beans</text>
<text text-anchor="start" x="554.0219" y="-343.3" font-family="Helvetica,sans-Serif" font-size="11.00" fill="#000000">[table]</text>
<polygon fill="none" stroke="#000000" points="478.5,-316.2 478.5,-335.2 588.5,-335.2 588.5,-316.2 478.5,-316.2"/>
<text text-anchor="start" x="481.5" y="-322.3" font-family="Helvetica,sans-Serif" font-size="11.00" fill="#000000">...</text>
<polygon fill="#ffffff" stroke="transparent" points="478.5,-297.2 478.5,-316.2 534.5,-316.2 534.5,-297.2 478.5,-297.2"/>
<polygon fill="none" stroke="#000000" points="478.5,-297.2 478.5,-316.2 534.5,-316.2 534.5,-297.2 478.5,-297.2"/>
<text text-anchor="start" x="481.5" y="-303.3" font-family="Helvetica,sans-Serif" font-size="11.00" fill="#000000">&lt; 14</text>
<polygon fill="#ffffff" stroke="transparent" points="534.5,-297.2 534.5,-316.2 561.5,-316.2 561.5,-297.2 534.5,-297.2"/>
<polygon fill="none" stroke="#000000" points="534.5,-297.2 534.5,-316.2 561.5,-316.2 561.5,-297.2 534.5,-297.2"/>
<text text-anchor="start" x="552.3862" y="-303.3" font-family="Helvetica,sans-Serif" font-size="11.00" fill="#000000"> &#160;</text>
<polygon fill="#ffffff" stroke="transparent" points="561.5,-297.2 561.5,-316.2 588.5,-316.2 588.5,-297.2 561.5,-297.2"/>
<polygon fill="none" stroke="#000000" points="561.5,-297.2 561.5,-316.2 588.5,-316.2 588.5,-297.2 561.5,-297.2"/>
<text text-anchor="start" x="579.3862" y="-303.3" font-family="Helvetica,sans-Serif" font-size="11.00" fill="#000000"> &#160;</text>
</a>
</g>
</g>
<!-- emails_beans&#45;&gt;users -->
<g id="edge6" class="edge">
<title>emails_beans:w&#45;&gt;users:e</title>
<path fill="none" stroke="#000000" d="M464.0317,-326.855C444.9613,-331.8139 438.0143,-347.5571 425,-369.2 377.7918,-447.7078 475.6084,-571.2 384,-571.2"/>
<polygon fill="#000000" stroke="#000000" points="470.5518,-326.1092 478.9092,-328.7767 474.5259,-325.6546 478.5,-325.2 478.5,-325.2 478.5,-325.2 474.5259,-325.6546 478.0908,-321.6233 470.5518,-326.1092 470.5518,-326.1092"/>
<ellipse fill="none" stroke="#000000" cx="467.3726" cy="-326.4729" rx="3.2" ry="3.2"/>
</g>
<!-- meetings_users -->
<g id="node8" class="node">
<title>meetings_users</title>
<g id="a_node8"><a xlink:href="../../tables/meetings_users.html" xlink:title="meetings_users" target="_top">
<polygon fill="#ffffff" stroke="transparent" points="473.5,-215.7 473.5,-276.7 593.5,-276.7 593.5,-215.7 473.5,-215.7"/>
<polygon fill="#f5f5f5" stroke="transparent" points="473.5,-253.2 473.5,-276.2 593.5,-276.2 593.5,-253.2 473.5,-253.2"/>
<polygon fill="none" stroke="#000000" points="473.5,-253.2 473.5,-276.2 593.5,-276.2 593.5,-253.2 473.5,-253.2"/>
<text text-anchor="start" x="478.1871" y="-262.3" font-family="Helvetica,sans-Serif" font-weight="bold" font-size="11.00" fill="#000000">meetings_users</text>
<text text-anchor="start" x="559.0219" y="-261.3" font-family="Helvetica,sans-Serif" font-size="11.00" fill="#000000">[table]</text>
<polygon fill="none" stroke="#000000" points="473.5,-234.2 473.5,-253.2 593.5,-253.2 593.5,-234.2 473.5,-234.2"/>
<text text-anchor="start" x="476.5" y="-240.3" font-family="Helvetica,sans-Serif" font-size="11.00" fill="#000000">...</text>
<polygon fill="#ffffff" stroke="transparent" points="473.5,-215.2 473.5,-234.2 531.5,-234.2 531.5,-215.2 473.5,-215.2"/>
<polygon fill="none" stroke="#000000" points="473.5,-215.2 473.5,-234.2 531.5,-234.2 531.5,-215.2 473.5,-215.2"/>
<text text-anchor="start" x="476.5" y="-221.3" font-family="Helvetica,sans-Serif" font-size="11.00" fill="#000000">&lt; 2</text>
<polygon fill="#ffffff" stroke="transparent" points="531.5,-215.2 531.5,-234.2 562.5,-234.2 562.5,-215.2 531.5,-215.2"/>
<polygon fill="none" stroke="#000000" points="531.5,-215.2 531.5,-234.2 562.5,-234.2 562.5,-215.2 531.5,-215.2"/>
<text text-anchor="start" x="553.3862" y="-221.3" font-family="Helvetica,sans-Serif" font-size="11.00" fill="#000000"> &#160;</text>
<polygon fill="#ffffff" stroke="transparent" points="562.5,-215.2 562.5,-234.2 593.5,-234.2 593.5,-215.2 562.5,-215.2"/>
<polygon fill="none" stroke="#000000" points="562.5,-215.2 562.5,-234.2 593.5,-234.2 593.5,-215.2 562.5,-215.2"/>
<text text-anchor="start" x="584.3862" y="-221.3" font-family="Helvetica,sans-Serif" font-size="11.00" fill="#000000"> &#160;</text>
</a>
</g>
</g>
<!-- meetings_users&#45;&gt;users -->
<g id="edge7" class="edge">
<title>meetings_users:w&#45;&gt;users:e</title>
<path fill="none" stroke="#000000" d="M458.8882,-245.2133C441.854,-250.6315 435.995,-266.5215 425,-287.2 395.064,-343.5015 447.7654,-571.2 384,-571.2"/>
<polygon fill="#000000" stroke="#000000" points="465.5749,-244.292 473.9914,-246.7663 469.5374,-243.746 473.5,-243.2 473.5,-243.2 473.5,-243.2 469.5374,-243.746 473.0086,-239.6337 465.5749,-244.292 465.5749,-244.292"/>
<ellipse fill="none" stroke="#000000" cx="462.4048" cy="-244.7288" rx="3.2" ry="3.2"/>
</g>
<!-- project_users_1_c -->
<g id="node9" class="node">
<title>project_users_1_c</title>
<g id="a_node9"><a xlink:href="../../tables/project_users_1_c.html" xlink:title="project_users_1_c" target="_top">
<polygon fill="#ffffff" stroke="transparent" points="467.5,-953.7 467.5,-1014.7 599.5,-1014.7 599.5,-953.7 467.5,-953.7"/>
<polygon fill="#f5f5f5" stroke="transparent" points="467.5,-991.2 467.5,-1014.2 599.5,-1014.2 599.5,-991.2 467.5,-991.2"/>
<polygon fill="none" stroke="#000000" points="467.5,-991.2 467.5,-1014.2 599.5,-1014.2 599.5,-991.2 467.5,-991.2"/>
<text text-anchor="start" x="472.0722" y="-1000.3" font-family="Helvetica,sans-Serif" font-weight="bold" font-size="11.00" fill="#000000">project_users_1_c</text>
<text text-anchor="start" x="565.0219" y="-999.3" font-family="Helvetica,sans-Serif" font-size="11.00" fill="#000000">[table]</text>
<polygon fill="none" stroke="#000000" points="467.5,-972.2 467.5,-991.2 599.5,-991.2 599.5,-972.2 467.5,-972.2"/>
<text text-anchor="start" x="470.5" y="-978.3" font-family="Helvetica,sans-Serif" font-size="11.00" fill="#000000">...</text>
<polygon fill="#ffffff" stroke="transparent" points="467.5,-953.2 467.5,-972.2 531.5,-972.2 531.5,-953.2 467.5,-953.2"/>
<polygon fill="none" stroke="#000000" points="467.5,-953.2 467.5,-972.2 531.5,-972.2 531.5,-953.2 467.5,-953.2"/>
<text text-anchor="start" x="470.5" y="-959.3" font-family="Helvetica,sans-Serif" font-size="11.00" fill="#000000">&lt; 2</text>
<polygon fill="#ffffff" stroke="transparent" points="531.5,-953.2 531.5,-972.2 565.5,-972.2 565.5,-953.2 531.5,-953.2"/>
<polygon fill="none" stroke="#000000" points="531.5,-953.2 531.5,-972.2 565.5,-972.2 565.5,-953.2 531.5,-953.2"/>
<text text-anchor="start" x="556.3862" y="-959.3" font-family="Helvetica,sans-Serif" font-size="11.00" fill="#000000"> &#160;</text>
<polygon fill="#ffffff" stroke="transparent" points="565.5,-953.2 565.5,-972.2 599.5,-972.2 599.5,-953.2 565.5,-953.2"/>
<polygon fill="none" stroke="#000000" points="565.5,-953.2 565.5,-972.2 599.5,-972.2 599.5,-953.2 565.5,-953.2"/>
<text text-anchor="start" x="590.3862" y="-959.3" font-family="Helvetica,sans-Serif" font-size="11.00" fill="#000000"> &#160;</text>
</a>
</g>
</g>
<!-- project_users_1_c&#45;&gt;users -->
<g id="edge8" class="edge">
<title>project_users_1_c:w&#45;&gt;users:e</title>
<path fill="none" stroke="#000000" d="M453.0231,-978.9152C439.3315,-973.8268 433.9715,-960.6234 425,-943.2 386.927,-869.2592 467.1672,-571.2 384,-571.2"/>
<polygon fill="#000000" stroke="#000000" points="459.5978,-979.9528 466.9388,-984.756 463.5489,-980.5764 467.5,-981.2 467.5,-981.2 467.5,-981.2 463.5489,-980.5764 468.0612,-977.644 459.5978,-979.9528 459.5978,-979.9528"/>
<ellipse fill="none" stroke="#000000" cx="456.4369" cy="-979.4539" rx="3.2" ry="3.2"/>
</g>
<!-- prospect_lists_prospects -->
<g id="node10" class="node">
<title>prospect_lists_prospects</title>
<g id="a_node10"><a xlink:href="../../tables/prospect_lists_prospects.html" xlink:title="prospect_lists_prospects" target="_top">
<polygon fill="#ffffff" stroke="transparent" points="451.5,-871.7 451.5,-932.7 615.5,-932.7 615.5,-871.7 451.5,-871.7"/>
<polygon fill="#f5f5f5" stroke="transparent" points="451.5,-909.2 451.5,-932.2 615.5,-932.2 615.5,-909.2 451.5,-909.2"/>
<polygon fill="none" stroke="#000000" points="451.5,-909.2 451.5,-932.2 615.5,-932.2 615.5,-909.2 451.5,-909.2"/>
<text text-anchor="start" x="456.4874" y="-918.3" font-family="Helvetica,sans-Serif" font-weight="bold" font-size="11.00" fill="#000000">prospect_lists_prospects</text>
<text text-anchor="start" x="581.0219" y="-917.3" font-family="Helvetica,sans-Serif" font-size="11.00" fill="#000000">[table]</text>
<polygon fill="none" stroke="#000000" points="451.5,-890.2 451.5,-909.2 615.5,-909.2 615.5,-890.2 451.5,-890.2"/>
<text text-anchor="start" x="454.5" y="-896.3" font-family="Helvetica,sans-Serif" font-size="11.00" fill="#000000">...</text>
<polygon fill="#ffffff" stroke="transparent" points="451.5,-871.2 451.5,-890.2 531.5,-890.2 531.5,-871.2 451.5,-871.2"/>
<polygon fill="none" stroke="#000000" points="451.5,-871.2 451.5,-890.2 531.5,-890.2 531.5,-871.2 451.5,-871.2"/>
<text text-anchor="start" x="454.5" y="-877.3" font-family="Helvetica,sans-Serif" font-size="11.00" fill="#000000">&lt; 6</text>
<polygon fill="#ffffff" stroke="transparent" points="531.5,-871.2 531.5,-890.2 573.5,-890.2 573.5,-871.2 531.5,-871.2"/>
<polygon fill="none" stroke="#000000" points="531.5,-871.2 531.5,-890.2 573.5,-890.2 573.5,-871.2 531.5,-871.2"/>
<text text-anchor="start" x="564.3862" y="-877.3" font-family="Helvetica,sans-Serif" font-size="11.00" fill="#000000"> &#160;</text>
<polygon fill="#ffffff" stroke="transparent" points="573.5,-871.2 573.5,-890.2 615.5,-890.2 615.5,-871.2 573.5,-871.2"/>
<polygon fill="none" stroke="#000000" points="573.5,-871.2 573.5,-890.2 615.5,-890.2 615.5,-871.2 573.5,-871.2"/>
<text text-anchor="start" x="606.3862" y="-877.3" font-family="Helvetica,sans-Serif" font-size="11.00" fill="#000000"> &#160;</text>
</a>
</g>
</g>
<!-- prospect_lists_prospects&#45;&gt;users -->
<g id="edge9" class="edge">
<title>prospect_lists_prospects:w&#45;&gt;users:e</title>
<path fill="none" stroke="#000000" d="M437.6893,-894.3088C388.0254,-853.5067 453.0386,-571.2 384,-571.2"/>
<polygon fill="#000000" stroke="#000000" points="443.959,-896.5292 450.2982,-902.5935 447.7295,-897.8646 451.5,-899.2 451.5,-899.2 451.5,-899.2 447.7295,-897.8646 452.7018,-895.8065 443.959,-896.5292 443.959,-896.5292"/>
<ellipse fill="none" stroke="#000000" cx="440.9425" cy="-895.4609" rx="3.2" ry="3.2"/>
</g>
<!-- roles_users -->
<g id="node11" class="node">
<title>roles_users</title>
<g id="a_node11"><a xlink:href="../../tables/roles_users.html" xlink:title="roles_users" target="_top">
<polygon fill="#ffffff" stroke="transparent" points="440,-38.2 440,-194.2 627,-194.2 627,-38.2 440,-38.2"/>
<polygon fill="#f5f5f5" stroke="transparent" points="442.5,-169.2 442.5,-192.2 625.5,-192.2 625.5,-169.2 442.5,-169.2"/>
<polygon fill="none" stroke="#000000" points="442.5,-169.2 442.5,-192.2 625.5,-192.2 625.5,-169.2 442.5,-169.2"/>
<text text-anchor="start" x="447.5" y="-178.3" font-family="Helvetica,sans-Serif" font-weight="bold" font-size="11.00" fill="#000000">roles_users</text>
<text text-anchor="start" x="590.5437" y="-177.3" font-family="Helvetica,sans-Serif" font-size="11.00" fill="#000000">[table]</text>
<polygon fill="none" stroke="#000000" points="442.5,-147.2 442.5,-169.2 559.5,-169.2 559.5,-147.2 442.5,-147.2"/>
<image xlink:href="../../images/primaryKeys.png" width="11px" height="12px" preserveAspectRatio="xMinYMin meet" x="447.5" y="-164.2"/>
<text text-anchor="start" x="462.5" y="-154.3" font-family="Helvetica,sans-Serif" font-size="11.00" fill="#000000">id</text>
<polygon fill="none" stroke="#000000" points="559.5,-147.2 559.5,-169.2 625.5,-169.2 625.5,-147.2 559.5,-147.2"/>
<text text-anchor="start" x="562.5" y="-154.9" font-family="Helvetica,sans-Serif" font-size="11.00" fill="#000000">varchar[36]</text>
<polygon fill="#ffffff" stroke="transparent" points="442.5,-125.2 442.5,-147.2 559.5,-147.2 559.5,-125.2 442.5,-125.2"/>
<polygon fill="none" stroke="#000000" points="442.5,-125.2 442.5,-147.2 559.5,-147.2 559.5,-125.2 442.5,-125.2"/>
<image xlink:href="../../images/foreignKeys.png" width="11px" height="12px" preserveAspectRatio="xMinYMin meet" x="447.5" y="-142.2"/>
<text text-anchor="start" x="462.5" y="-132.3" font-family="Helvetica,sans-Serif" font-size="11.00" fill="#000000">role_id</text>
<polygon fill="none" stroke="#000000" points="559.5,-125.2 559.5,-147.2 625.5,-147.2 625.5,-125.2 559.5,-125.2"/>
<text text-anchor="start" x="562.5" y="-132.9" font-family="Helvetica,sans-Serif" font-size="11.00" fill="#000000">varchar[36]</text>
<polygon fill="#ffffff" stroke="transparent" points="442.5,-103.2 442.5,-125.2 559.5,-125.2 559.5,-103.2 442.5,-103.2"/>
<polygon fill="none" stroke="#000000" points="442.5,-103.2 442.5,-125.2 559.5,-125.2 559.5,-103.2 442.5,-103.2"/>
<image xlink:href="../../images/foreignKeys.png" width="11px" height="12px" preserveAspectRatio="xMinYMin meet" x="447.5" y="-120.2"/>
<text text-anchor="start" x="462.5" y="-110.3" font-family="Helvetica,sans-Serif" font-size="11.00" fill="#000000">user_id</text>
<polygon fill="none" stroke="#000000" points="559.5,-103.2 559.5,-125.2 625.5,-125.2 625.5,-103.2 559.5,-103.2"/>
<text text-anchor="start" x="562.5" y="-110.9" font-family="Helvetica,sans-Serif" font-size="11.00" fill="#000000">varchar[36]</text>
<polygon fill="none" stroke="#000000" points="442.5,-81.2 442.5,-103.2 559.5,-103.2 559.5,-81.2 442.5,-81.2"/>
<text text-anchor="start" x="462.5" y="-88.3" font-family="Helvetica,sans-Serif" font-size="11.00" fill="#000000">date_modified</text>
<polygon fill="none" stroke="#000000" points="559.5,-81.2 559.5,-103.2 625.5,-103.2 625.5,-81.2 559.5,-81.2"/>
<text text-anchor="start" x="562.2401" y="-88.9" font-family="Helvetica,sans-Serif" font-size="11.00" fill="#000000">datetime[26]</text>
<polygon fill="none" stroke="#000000" points="442.5,-59.2 442.5,-81.2 559.5,-81.2 559.5,-59.2 442.5,-59.2"/>
<text text-anchor="start" x="462.5" y="-66.3" font-family="Helvetica,sans-Serif" font-size="11.00" fill="#000000">deleted</text>
<polygon fill="none" stroke="#000000" points="559.5,-59.2 559.5,-81.2 625.5,-81.2 625.5,-59.2 559.5,-59.2"/>
<text text-anchor="start" x="562.5" y="-66.9" font-family="Helvetica,sans-Serif" font-size="11.00" fill="#000000">bit[1]</text>
<polygon fill="#ffffff" stroke="transparent" points="442.5,-40.2 442.5,-59.2 505.5,-59.2 505.5,-40.2 442.5,-40.2"/>
<polygon fill="none" stroke="#000000" points="442.5,-40.2 442.5,-59.2 505.5,-59.2 505.5,-40.2 442.5,-40.2"/>
<text text-anchor="start" x="445.5" y="-46.3" font-family="Helvetica,sans-Serif" font-size="11.00" fill="#000000">&lt; 2</text>
<polygon fill="#ffffff" stroke="transparent" points="505.5,-40.2 505.5,-59.2 559.5,-59.2 559.5,-40.2 505.5,-40.2"/>
<polygon fill="none" stroke="#000000" points="505.5,-40.2 505.5,-59.2 559.5,-59.2 559.5,-40.2 505.5,-40.2"/>
<text text-anchor="start" x="550.3862" y="-46.3" font-family="Helvetica,sans-Serif" font-size="11.00" fill="#000000"> &#160;</text>
<polygon fill="#ffffff" stroke="transparent" points="559.5,-40.2 559.5,-59.2 625.5,-59.2 625.5,-40.2 559.5,-40.2"/>
<polygon fill="none" stroke="#000000" points="559.5,-40.2 559.5,-59.2 625.5,-59.2 625.5,-40.2 559.5,-40.2"/>
<text text-anchor="start" x="606.9053" y="-46.3" font-family="Helvetica,sans-Serif" font-size="11.00" fill="#000000">0 &gt;</text>
<polygon fill="none" stroke="#000000" stroke-width="2" points="441,-39.2 441,-193.2 626,-193.2 626,-39.2 441,-39.2"/>
</a>
</g>
</g>
<!-- roles_users&#45;&gt;users -->
<g id="edge11" class="edge">
<title>roles_users:w&#45;&gt;users:e</title>
<path fill="none" stroke="#000000" d="M428.304,-117.8786C354.851,-161.1283 480.9851,-571.2 384,-571.2"/>
<polygon fill="#000000" stroke="#000000" points="434.7558,-116.2068 443.4031,-117.6849 438.6279,-115.2034 442.5,-114.2 442.5,-114.2 442.5,-114.2 438.6279,-115.2034 441.5969,-110.7151 434.7558,-116.2068 434.7558,-116.2068"/>
<ellipse fill="none" stroke="#000000" cx="431.6581" cy="-117.0095" rx="3.2" ry="3.2"/>
</g>
<!-- roles -->
<g id="node12" class="node">
<title>roles</title>
<g id="a_node12"><a xlink:href="../../tables/roles.html" xlink:title="roles" target="_top">
<polygon fill="#ffffff" stroke="transparent" points="209,-65.7 209,-170.7 343,-170.7 343,-65.7 209,-65.7"/>
<polygon fill="#f5f5f5" stroke="transparent" points="209,-147.2 209,-170.2 343,-170.2 343,-147.2 209,-147.2"/>
<polygon fill="none" stroke="#000000" points="209,-147.2 209,-170.2 343,-170.2 343,-147.2 209,-147.2"/>
<text text-anchor="start" x="214" y="-156.3" font-family="Helvetica,sans-Serif" font-weight="bold" font-size="11.00" fill="#000000">roles</text>
<text text-anchor="start" x="308.0437" y="-155.3" font-family="Helvetica,sans-Serif" font-size="11.00" fill="#000000">[table]</text>
<polygon fill="none" stroke="#000000" points="209,-125.2 209,-147.2 343,-147.2 343,-125.2 209,-125.2"/>
<image xlink:href="../../images/primaryKeys.png" width="11px" height="12px" preserveAspectRatio="xMinYMin meet" x="214" y="-142.2"/>
<text text-anchor="start" x="229" y="-132.3" font-family="Helvetica,sans-Serif" font-size="11.00" fill="#000000">id</text>
<polygon fill="#ffffff" stroke="transparent" points="209,-103.2 209,-125.2 343,-125.2 343,-103.2 209,-103.2"/>
<polygon fill="none" stroke="#000000" points="209,-103.2 209,-125.2 343,-125.2 343,-103.2 209,-103.2"/>
<text text-anchor="start" x="229" y="-110.3" font-family="Helvetica,sans-Serif" font-size="11.00" fill="#000000">deleted</text>
<polygon fill="none" stroke="#000000" points="209,-84.2 209,-103.2 343,-103.2 343,-84.2 209,-84.2"/>
<text text-anchor="start" x="212" y="-90.3" font-family="Helvetica,sans-Serif" font-size="11.00" fill="#000000">...</text>
<polygon fill="#ffffff" stroke="transparent" points="209,-65.2 209,-84.2 265,-84.2 265,-65.2 209,-65.2"/>
<polygon fill="none" stroke="#000000" points="209,-65.2 209,-84.2 265,-84.2 265,-65.2 209,-65.2"/>
<text text-anchor="start" x="212" y="-71.3" font-family="Helvetica,sans-Serif" font-size="11.00" fill="#000000"> &#160;</text>
<polygon fill="#ffffff" stroke="transparent" points="265,-65.2 265,-84.2 299,-84.2 299,-65.2 265,-65.2"/>
<polygon fill="none" stroke="#000000" points="265,-65.2 265,-84.2 299,-84.2 299,-65.2 265,-65.2"/>
<text text-anchor="start" x="289.8862" y="-71.3" font-family="Helvetica,sans-Serif" font-size="11.00" fill="#000000"> &#160;</text>
<polygon fill="#ffffff" stroke="transparent" points="299,-65.2 299,-84.2 343,-84.2 343,-65.2 299,-65.2"/>
<polygon fill="none" stroke="#000000" points="299,-65.2 299,-84.2 343,-84.2 343,-65.2 299,-65.2"/>
<text text-anchor="start" x="324.4053" y="-71.3" font-family="Helvetica,sans-Serif" font-size="11.00" fill="#000000">1 &gt;</text>
</a>
</g>
</g>
<!-- roles_users&#45;&gt;roles -->
<g id="edge10" class="edge">
<title>roles_users:w&#45;&gt;roles:e</title>
<path fill="none" stroke="#000000" d="M427.7761,-136.2C395.1139,-136.2 381.8672,-136.2 343,-136.2"/>
<polygon fill="#000000" stroke="#000000" points="434.5,-136.2001 442.5,-139.8 438.5,-136.2 442.5,-136.2 442.5,-136.2 442.5,-136.2 438.5,-136.2 442.5,-132.6 434.5,-136.2001 434.5,-136.2001"/>
<ellipse fill="none" stroke="#000000" cx="431.3" cy="-136.2001" rx="3.2" ry="3.2"/>
</g>
<!-- securitygroups_users -->
<g id="node13" class="node">
<title>securitygroups_users</title>
<g id="a_node13"><a xlink:href="../../tables/securitygroups_users.html" xlink:title="securitygroups_users" target="_top">
<polygon fill="#ffffff" stroke="transparent" points="460,-789.7 460,-850.7 607,-850.7 607,-789.7 460,-789.7"/>
<polygon fill="#f5f5f5" stroke="transparent" points="460.5,-827.2 460.5,-850.2 607.5,-850.2 607.5,-827.2 460.5,-827.2"/>
<polygon fill="none" stroke="#000000" points="460.5,-827.2 460.5,-850.2 607.5,-850.2 607.5,-827.2 460.5,-827.2"/>
<text text-anchor="start" x="465.2412" y="-836.3" font-family="Helvetica,sans-Serif" font-weight="bold" font-size="11.00" fill="#000000">securitygroups_users</text>
<text text-anchor="start" x="573.0219" y="-835.3" font-family="Helvetica,sans-Serif" font-size="11.00" fill="#000000">[table]</text>
<polygon fill="none" stroke="#000000" points="460.5,-808.2 460.5,-827.2 607.5,-827.2 607.5,-808.2 460.5,-808.2"/>
<text text-anchor="start" x="463.5" y="-814.3" font-family="Helvetica,sans-Serif" font-size="11.00" fill="#000000">...</text>
<polygon fill="#ffffff" stroke="transparent" points="460.5,-789.2 460.5,-808.2 532.5,-808.2 532.5,-789.2 460.5,-789.2"/>
<polygon fill="none" stroke="#000000" points="460.5,-789.2 460.5,-808.2 532.5,-808.2 532.5,-789.2 460.5,-789.2"/>
<text text-anchor="start" x="463.5" y="-795.3" font-family="Helvetica,sans-Serif" font-size="11.00" fill="#000000">&lt; 2</text>
<polygon fill="#ffffff" stroke="transparent" points="532.5,-789.2 532.5,-808.2 569.5,-808.2 569.5,-789.2 532.5,-789.2"/>
<polygon fill="none" stroke="#000000" points="532.5,-789.2 532.5,-808.2 569.5,-808.2 569.5,-789.2 532.5,-789.2"/>
<text text-anchor="start" x="560.3862" y="-795.3" font-family="Helvetica,sans-Serif" font-size="11.00" fill="#000000"> &#160;</text>
<polygon fill="#ffffff" stroke="transparent" points="569.5,-789.2 569.5,-808.2 607.5,-808.2 607.5,-789.2 569.5,-789.2"/>
<polygon fill="none" stroke="#000000" points="569.5,-789.2 569.5,-808.2 607.5,-808.2 607.5,-789.2 569.5,-789.2"/>
<text text-anchor="start" x="598.3862" y="-795.3" font-family="Helvetica,sans-Serif" font-size="11.00" fill="#000000"> &#160;</text>
</a>
</g>
</g>
<!-- securitygroups_users&#45;&gt;users -->
<g id="edge12" class="edge">
<title>securitygroups_users:w&#45;&gt;users:e</title>
<path fill="none" stroke="#000000" d="M446.3494,-813.97C435.8531,-808.0057 432.8146,-794.4701 425,-779.2 403.5375,-737.2612 431.1116,-571.2 384,-571.2"/>
<polygon fill="#000000" stroke="#000000" points="452.7006,-815.4197 459.6988,-820.7097 456.6003,-816.3098 460.5,-817.2 460.5,-817.2 460.5,-817.2 456.6003,-816.3098 461.3012,-813.6903 452.7006,-815.4197 452.7006,-815.4197"/>
<ellipse fill="none" stroke="#000000" cx="449.5808" cy="-814.7075" rx="3.2" ry="3.2"/>
</g>
</g>
</svg>
