<?xml version="1.0" encoding="UTF-8" standalone="no"?>
<!DOCTYPE svg PUBLIC "-//W3C//DTD SVG 1.1//EN"
 "http://www.w3.org/Graphics/SVG/1.1/DTD/svg11.dtd">
<!-- Generated by graphviz version 2.40.1 (20161225.0304)
 -->
<!-- Title: twoDegreesRelationshipsDiagram Pages: 1 -->
<svg width="395pt" height="377pt"
 viewBox="0.00 0.00 395.00 376.70" xmlns="http://www.w3.org/2000/svg" xmlns:xlink="http://www.w3.org/1999/xlink">
<g id="graph0" class="graph" transform="scale(1 1) rotate(0) translate(4 372.7)">
<title>twoDegreesRelationshipsDiagram</title>
<polygon fill="#ffffff" stroke="transparent" points="-4,4 -4,-372.7 391,-372.7 391,4 -4,4"/>
<text text-anchor="middle" x="72.4936" y="-7.3" font-family="Helvetica,sans-Serif" font-size="11.00" fill="#000000">Generated by SchemaSpy</text>
<!-- roles_users -->
<g id="node1" class="node">
<title>roles_users</title>
<g id="a_node1"><a xlink:href="../../tables/roles_users.html" xlink:title="roles_users" target="_top">
<polygon fill="#ffffff" stroke="transparent" points="262,-137.2 262,-264.2 379,-264.2 379,-137.2 262,-137.2"/>
<polygon fill="#f5f5f5" stroke="transparent" points="262.5,-240.7 262.5,-263.7 379.5,-263.7 379.5,-240.7 262.5,-240.7"/>
<polygon fill="none" stroke="#000000" points="262.5,-240.7 262.5,-263.7 379.5,-263.7 379.5,-240.7 262.5,-240.7"/>
<text text-anchor="start" x="267.5" y="-249.8" font-family="Helvetica,sans-Serif" font-weight="bold" font-size="11.00" fill="#000000">roles_users</text>
<text text-anchor="start" x="344.5437" y="-248.8" font-family="Helvetica,sans-Serif" font-size="11.00" fill="#000000">[table]</text>
<polygon fill="none" stroke="#000000" points="262.5,-218.7 262.5,-240.7 379.5,-240.7 379.5,-218.7 262.5,-218.7"/>
<image xlink:href="../../images/primaryKeys.png" width="11px" height="12px" preserveAspectRatio="xMinYMin meet" x="267.5" y="-235.7"/>
<text text-anchor="start" x="282.5" y="-225.8" font-family="Helvetica,sans-Serif" font-size="11.00" fill="#000000">id</text>
<polygon fill="#ffffff" stroke="transparent" points="262.5,-196.7 262.5,-218.7 379.5,-218.7 379.5,-196.7 262.5,-196.7"/>
<polygon fill="none" stroke="#000000" points="262.5,-196.7 262.5,-218.7 379.5,-218.7 379.5,-196.7 262.5,-196.7"/>
<image xlink:href="../../images/foreignKeys.png" width="11px" height="12px" preserveAspectRatio="xMinYMin meet" x="267.5" y="-213.7"/>
<text text-anchor="start" x="282.5" y="-203.8" font-family="Helvetica,sans-Serif" font-size="11.00" fill="#000000">role_id</text>
<polygon fill="#ffffff" stroke="transparent" points="262.5,-174.7 262.5,-196.7 379.5,-196.7 379.5,-174.7 262.5,-174.7"/>
<polygon fill="none" stroke="#000000" points="262.5,-174.7 262.5,-196.7 379.5,-196.7 379.5,-174.7 262.5,-174.7"/>
<image xlink:href="../../images/foreignKeys.png" width="11px" height="12px" preserveAspectRatio="xMinYMin meet" x="267.5" y="-191.7"/>
<text text-anchor="start" x="282.5" y="-181.8" font-family="Helvetica,sans-Serif" font-size="11.00" fill="#000000">user_id</text>
<polygon fill="none" stroke="#000000" points="262.5,-155.7 262.5,-174.7 379.5,-174.7 379.5,-155.7 262.5,-155.7"/>
<text text-anchor="start" x="265.5" y="-161.8" font-family="Helvetica,sans-Serif" font-size="11.00" fill="#000000">...</text>
<polygon fill="#ffffff" stroke="transparent" points="262.5,-136.7 262.5,-155.7 319.5,-155.7 319.5,-136.7 262.5,-136.7"/>
<polygon fill="none" stroke="#000000" points="262.5,-136.7 262.5,-155.7 319.5,-155.7 319.5,-136.7 262.5,-136.7"/>
<text text-anchor="start" x="265.5" y="-142.8" font-family="Helvetica,sans-Serif" font-size="11.00" fill="#000000">&lt; 2</text>
<polygon fill="#ffffff" stroke="transparent" points="319.5,-136.7 319.5,-155.7 349.5,-155.7 349.5,-136.7 319.5,-136.7"/>
<polygon fill="none" stroke="#000000" points="319.5,-136.7 319.5,-155.7 349.5,-155.7 349.5,-136.7 319.5,-136.7"/>
<text text-anchor="start" x="340.3862" y="-142.8" font-family="Helvetica,sans-Serif" font-size="11.00" fill="#000000"> &#160;</text>
<polygon fill="#ffffff" stroke="transparent" points="349.5,-136.7 349.5,-155.7 379.5,-155.7 379.5,-136.7 349.5,-136.7"/>
<polygon fill="none" stroke="#000000" points="349.5,-136.7 349.5,-155.7 379.5,-155.7 379.5,-136.7 349.5,-136.7"/>
<text text-anchor="start" x="370.3862" y="-142.8" font-family="Helvetica,sans-Serif" font-size="11.00" fill="#000000"> &#160;</text>
</a>
</g>
</g>
<!-- roles -->
<g id="node2" class="node">
<title>roles</title>
<g id="a_node2"><a xlink:href="../../tables/roles.html" xlink:title="roles" target="_top">
<polygon fill="#ffffff" stroke="transparent" points="8,-120.7 8,-364.7 213,-364.7 213,-120.7 8,-120.7"/>
<polygon fill="#f5f5f5" stroke="transparent" points="10.5,-339.7 10.5,-362.7 211.5,-362.7 211.5,-339.7 10.5,-339.7"/>
<polygon fill="none" stroke="#000000" points="10.5,-339.7 10.5,-362.7 211.5,-362.7 211.5,-339.7 10.5,-339.7"/>
<text text-anchor="start" x="15.5" y="-348.8" font-family="Helvetica,sans-Serif" font-weight="bold" font-size="11.00" fill="#000000">roles</text>
<text text-anchor="start" x="176.5437" y="-347.8" font-family="Helvetica,sans-Serif" font-size="11.00" fill="#000000">[table]</text>
<polygon fill="none" stroke="#000000" points="10.5,-317.7 10.5,-339.7 144.5,-339.7 144.5,-317.7 10.5,-317.7"/>
<image xlink:href="../../images/primaryKeys.png" width="11px" height="12px" preserveAspectRatio="xMinYMin meet" x="15.5" y="-334.7"/>
<text text-anchor="start" x="30.5" y="-324.8" font-family="Helvetica,sans-Serif" font-size="11.00" fill="#000000">id</text>
<polygon fill="none" stroke="#000000" points="144.5,-317.7 144.5,-339.7 211.5,-339.7 211.5,-317.7 144.5,-317.7"/>
<text text-anchor="start" x="147.5" y="-325.4" font-family="Helvetica,sans-Serif" font-size="11.00" fill="#000000">char[36]</text>
<polygon fill="none" stroke="#000000" points="10.5,-295.7 10.5,-317.7 144.5,-317.7 144.5,-295.7 10.5,-295.7"/>
<text text-anchor="start" x="30.5" y="-302.8" font-family="Helvetica,sans-Serif" font-size="11.00" fill="#000000">date_entered</text>
<polygon fill="none" stroke="#000000" points="144.5,-295.7 144.5,-317.7 211.5,-317.7 211.5,-295.7 144.5,-295.7"/>
<text text-anchor="start" x="147.5" y="-303.4" font-family="Helvetica,sans-Serif" font-size="11.00" fill="#000000">datetime[26]</text>
<polygon fill="none" stroke="#000000" points="10.5,-273.7 10.5,-295.7 144.5,-295.7 144.5,-273.7 10.5,-273.7"/>
<text text-anchor="start" x="30.5" y="-280.8" font-family="Helvetica,sans-Serif" font-size="11.00" fill="#000000">date_modified</text>
<polygon fill="none" stroke="#000000" points="144.5,-273.7 144.5,-295.7 211.5,-295.7 211.5,-273.7 144.5,-273.7"/>
<text text-anchor="start" x="147.5" y="-281.4" font-family="Helvetica,sans-Serif" font-size="11.00" fill="#000000">datetime[26]</text>
<polygon fill="none" stroke="#000000" points="10.5,-251.7 10.5,-273.7 144.5,-273.7 144.5,-251.7 10.5,-251.7"/>
<text text-anchor="start" x="30.5" y="-258.8" font-family="Helvetica,sans-Serif" font-size="11.00" fill="#000000">modified_user_id</text>
<polygon fill="none" stroke="#000000" points="144.5,-251.7 144.5,-273.7 211.5,-273.7 211.5,-251.7 144.5,-251.7"/>
<text text-anchor="start" x="147.5" y="-259.4" font-family="Helvetica,sans-Serif" font-size="11.00" fill="#000000">char[36]</text>
<polygon fill="none" stroke="#000000" points="10.5,-229.7 10.5,-251.7 144.5,-251.7 144.5,-229.7 10.5,-229.7"/>
<text text-anchor="start" x="30.5" y="-236.8" font-family="Helvetica,sans-Serif" font-size="11.00" fill="#000000">created_by</text>
<polygon fill="none" stroke="#000000" points="144.5,-229.7 144.5,-251.7 211.5,-251.7 211.5,-229.7 144.5,-229.7"/>
<text text-anchor="start" x="147.5" y="-237.4" font-family="Helvetica,sans-Serif" font-size="11.00" fill="#000000">char[36]</text>
<polygon fill="none" stroke="#000000" points="10.5,-207.7 10.5,-229.7 144.5,-229.7 144.5,-207.7 10.5,-207.7"/>
<text text-anchor="start" x="30.5" y="-214.8" font-family="Helvetica,sans-Serif" font-size="11.00" fill="#000000">name</text>
<polygon fill="none" stroke="#000000" points="144.5,-207.7 144.5,-229.7 211.5,-229.7 211.5,-207.7 144.5,-207.7"/>
<text text-anchor="start" x="147.4365" y="-215.4" font-family="Helvetica,sans-Serif" font-size="11.00" fill="#000000">varchar[150]</text>
<polygon fill="none" stroke="#000000" points="10.5,-185.7 10.5,-207.7 144.5,-207.7 144.5,-185.7 10.5,-185.7"/>
<text text-anchor="start" x="30.5" y="-192.8" font-family="Helvetica,sans-Serif" font-size="11.00" fill="#000000">description</text>
<polygon fill="none" stroke="#000000" points="144.5,-185.7 144.5,-207.7 211.5,-207.7 211.5,-185.7 144.5,-185.7"/>
<text text-anchor="start" x="147.5" y="-193.4" font-family="Helvetica,sans-Serif" font-size="11.00" fill="#000000">text[65535]</text>
<polygon fill="none" stroke="#000000" points="10.5,-163.7 10.5,-185.7 144.5,-185.7 144.5,-163.7 10.5,-163.7"/>
<text text-anchor="start" x="30.5" y="-170.8" font-family="Helvetica,sans-Serif" font-size="11.00" fill="#000000">modules</text>
<polygon fill="none" stroke="#000000" points="144.5,-163.7 144.5,-185.7 211.5,-185.7 211.5,-163.7 144.5,-163.7"/>
<text text-anchor="start" x="147.5" y="-171.4" font-family="Helvetica,sans-Serif" font-size="11.00" fill="#000000">text[65535]</text>
<polygon fill="#ffffff" stroke="transparent" points="10.5,-141.7 10.5,-163.7 144.5,-163.7 144.5,-141.7 10.5,-141.7"/>
<polygon fill="none" stroke="#000000" points="10.5,-141.7 10.5,-163.7 144.5,-163.7 144.5,-141.7 10.5,-141.7"/>
<text text-anchor="start" x="30.5" y="-148.8" font-family="Helvetica,sans-Serif" font-size="11.00" fill="#000000">deleted</text>
<polygon fill="none" stroke="#000000" points="144.5,-141.7 144.5,-163.7 211.5,-163.7 211.5,-141.7 144.5,-141.7"/>
<text text-anchor="start" x="147.5" y="-149.4" font-family="Helvetica,sans-Serif" font-size="11.00" fill="#000000">bit[1]</text>
<polygon fill="#ffffff" stroke="transparent" points="10.5,-122.7 10.5,-141.7 81.5,-141.7 81.5,-122.7 10.5,-122.7"/>
<polygon fill="none" stroke="#000000" points="10.5,-122.7 10.5,-141.7 81.5,-141.7 81.5,-122.7 10.5,-122.7"/>
<text text-anchor="start" x="13.5" y="-128.8" font-family="Helvetica,sans-Serif" font-size="11.00" fill="#000000">&lt; 0</text>
<polygon fill="#ffffff" stroke="transparent" points="81.5,-122.7 81.5,-141.7 144.5,-141.7 144.5,-122.7 81.5,-122.7"/>
<polygon fill="none" stroke="#000000" points="81.5,-122.7 81.5,-141.7 144.5,-141.7 144.5,-122.7 81.5,-122.7"/>
<text text-anchor="start" x="135.3862" y="-128.8" font-family="Helvetica,sans-Serif" font-size="11.00" fill="#000000"> &#160;</text>
<polygon fill="#ffffff" stroke="transparent" points="144.5,-122.7 144.5,-141.7 211.5,-141.7 211.5,-122.7 144.5,-122.7"/>
<polygon fill="none" stroke="#000000" points="144.5,-122.7 144.5,-141.7 211.5,-141.7 211.5,-122.7 144.5,-122.7"/>
<text text-anchor="start" x="192.9053" y="-128.8" font-family="Helvetica,sans-Serif" font-size="11.00" fill="#000000">1 &gt;</text>
<polygon fill="none" stroke="#000000" stroke-width="2" points="9,-121.7 9,-363.7 212,-363.7 212,-121.7 9,-121.7"/>
</a>
</g>
</g>
<!-- roles_users&#45;&gt;roles -->
<g id="edge1" class="edge">
<title>roles_users:w&#45;&gt;roles:e</title>
<path fill="none" stroke="#000000" d="M248.2982,-211.1908C216.2098,-231.03 263.9323,-328.7 211.5,-328.7"/>
<polygon fill="#000000" stroke="#000000" points="254.7312,-209.6096 263.3593,-211.1959 258.6156,-208.6548 262.5,-207.7 262.5,-207.7 262.5,-207.7 258.6156,-208.6548 261.6407,-204.2041 254.7312,-209.6096 254.7312,-209.6096"/>
<ellipse fill="none" stroke="#000000" cx="251.6237" cy="-210.3734" rx="3.2" ry="3.2"/>
</g>
<!-- users -->
<g id="node3" class="node">
<title>users</title>
<g id="a_node3"><a xlink:href="../../tables/users.html" xlink:title="users" target="_top">
<polygon fill="#ffffff" stroke="transparent" points="76,-38.2 76,-99.2 145,-99.2 145,-38.2 76,-38.2"/>
<polygon fill="#f5f5f5" stroke="transparent" points="76.5,-75.7 76.5,-98.7 145.5,-98.7 145.5,-75.7 76.5,-75.7"/>
<polygon fill="none" stroke="#000000" points="76.5,-75.7 76.5,-98.7 145.5,-98.7 145.5,-75.7 76.5,-75.7"/>
<text text-anchor="start" x="81.0542" y="-84.8" font-family="Helvetica,sans-Serif" font-weight="bold" font-size="11.00" fill="#000000">users</text>
<text text-anchor="start" x="111.0219" y="-83.8" font-family="Helvetica,sans-Serif" font-size="11.00" fill="#000000">[table]</text>
<polygon fill="none" stroke="#000000" points="76.5,-56.7 76.5,-75.7 145.5,-75.7 145.5,-56.7 76.5,-56.7"/>
<text text-anchor="start" x="79.5" y="-62.8" font-family="Helvetica,sans-Serif" font-size="11.00" fill="#000000">...</text>
<polygon fill="#ffffff" stroke="transparent" points="76.5,-37.7 76.5,-56.7 98.5,-56.7 98.5,-37.7 76.5,-37.7"/>
<polygon fill="none" stroke="#000000" points="76.5,-37.7 76.5,-56.7 98.5,-56.7 98.5,-37.7 76.5,-37.7"/>
<text text-anchor="start" x="79.5" y="-43.8" font-family="Helvetica,sans-Serif" font-size="11.00" fill="#000000">&lt; 2</text>
<polygon fill="#ffffff" stroke="transparent" points="98.5,-37.7 98.5,-56.7 111.5,-56.7 111.5,-37.7 98.5,-37.7"/>
<polygon fill="none" stroke="#000000" points="98.5,-37.7 98.5,-56.7 111.5,-56.7 111.5,-37.7 98.5,-37.7"/>
<text text-anchor="start" x="102.3862" y="-43.8" font-family="Helvetica,sans-Serif" font-size="11.00" fill="#000000"> &#160;</text>
<polygon fill="#ffffff" stroke="transparent" points="111.5,-37.7 111.5,-56.7 145.5,-56.7 145.5,-37.7 111.5,-37.7"/>
<polygon fill="none" stroke="#000000" points="111.5,-37.7 111.5,-56.7 145.5,-56.7 145.5,-37.7 111.5,-37.7"/>
<text text-anchor="start" x="114.6755" y="-43.8" font-family="Helvetica,sans-Serif" font-size="11.00" fill="#000000">214 &gt;</text>
</a>
</g>
</g>
<!-- roles_users&#45;&gt;users -->
<g id="edge2" class="edge">
<title>roles_users:w&#45;&gt;users:e</title>
<path fill="none" stroke="#000000" d="M248.2017,-182.1535C230.648,-170.6158 243.1542,-133.5769 221,-110.7 193.8246,-82.6381 184.5637,-65.7 145.5,-65.7"/>
<polygon fill="#000000" stroke="#000000" points="254.7353,-183.774 261.6333,-189.1941 258.6176,-184.737 262.5,-185.7 262.5,-185.7 262.5,-185.7 258.6176,-184.737 263.3667,-182.2059 254.7353,-183.774 254.7353,-183.774"/>
<ellipse fill="none" stroke="#000000" cx="251.6294" cy="-183.0036" rx="3.2" ry="3.2"/>
</g>
</g>
</svg>
