<?xml version="1.0" encoding="UTF-8" standalone="no"?>
<!DOCTYPE svg PUBLIC "-//W3C//DTD SVG 1.1//EN"
 "http://www.w3.org/Graphics/SVG/1.1/DTD/svg11.dtd">
<!-- Generated by graphviz version 2.40.1 (20161225.0304)
 -->
<!-- Title: oneDegreeRelationshipsDiagram Pages: 1 -->
<svg width="395pt" height="315pt"
 viewBox="0.00 0.00 395.00 314.70" xmlns="http://www.w3.org/2000/svg" xmlns:xlink="http://www.w3.org/1999/xlink">
<g id="graph0" class="graph" transform="scale(1 1) rotate(0) translate(4 310.7)">
<title>oneDegreeRelationshipsDiagram</title>
<polygon fill="#ffffff" stroke="transparent" points="-4,4 -4,-310.7 391,-310.7 391,4 -4,4"/>
<text text-anchor="middle" x="72.4936" y="-7.3" font-family="Helvetica,sans-Serif" font-size="11.00" fill="#000000">Generated by SchemaSpy</text>
<!-- roles_users -->
<g id="node1" class="node">
<title>roles_users</title>
<g id="a_node1"><a xlink:href="../../tables/roles_users.html" xlink:title="roles_users" target="_top">
<polygon fill="#ffffff" stroke="transparent" points="262,-175.7 262,-302.7 379,-302.7 379,-175.7 262,-175.7"/>
<polygon fill="#f5f5f5" stroke="transparent" points="262.5,-279.2 262.5,-302.2 379.5,-302.2 379.5,-279.2 262.5,-279.2"/>
<polygon fill="none" stroke="#000000" points="262.5,-279.2 262.5,-302.2 379.5,-302.2 379.5,-279.2 262.5,-279.2"/>
<text text-anchor="start" x="267.5" y="-288.3" font-family="Helvetica,sans-Serif" font-weight="bold" font-size="11.00" fill="#000000">roles_users</text>
<text text-anchor="start" x="344.5437" y="-287.3" font-family="Helvetica,sans-Serif" font-size="11.00" fill="#000000">[table]</text>
<polygon fill="none" stroke="#000000" points="262.5,-257.2 262.5,-279.2 379.5,-279.2 379.5,-257.2 262.5,-257.2"/>
<image xlink:href="../../images/primaryKeys.png" width="11px" height="12px" preserveAspectRatio="xMinYMin meet" x="267.5" y="-274.2"/>
<text text-anchor="start" x="282.5" y="-264.3" font-family="Helvetica,sans-Serif" font-size="11.00" fill="#000000">id</text>
<polygon fill="#ffffff" stroke="transparent" points="262.5,-235.2 262.5,-257.2 379.5,-257.2 379.5,-235.2 262.5,-235.2"/>
<polygon fill="none" stroke="#000000" points="262.5,-235.2 262.5,-257.2 379.5,-257.2 379.5,-235.2 262.5,-235.2"/>
<image xlink:href="../../images/foreignKeys.png" width="11px" height="12px" preserveAspectRatio="xMinYMin meet" x="267.5" y="-252.2"/>
<text text-anchor="start" x="282.5" y="-242.3" font-family="Helvetica,sans-Serif" font-size="11.00" fill="#000000">role_id</text>
<polygon fill="#ffffff" stroke="transparent" points="262.5,-213.2 262.5,-235.2 379.5,-235.2 379.5,-213.2 262.5,-213.2"/>
<polygon fill="none" stroke="#000000" points="262.5,-213.2 262.5,-235.2 379.5,-235.2 379.5,-213.2 262.5,-213.2"/>
<image xlink:href="../../images/foreignKeys.png" width="11px" height="12px" preserveAspectRatio="xMinYMin meet" x="267.5" y="-230.2"/>
<text text-anchor="start" x="282.5" y="-220.3" font-family="Helvetica,sans-Serif" font-size="11.00" fill="#000000">user_id</text>
<polygon fill="none" stroke="#000000" points="262.5,-194.2 262.5,-213.2 379.5,-213.2 379.5,-194.2 262.5,-194.2"/>
<text text-anchor="start" x="265.5" y="-200.3" font-family="Helvetica,sans-Serif" font-size="11.00" fill="#000000">...</text>
<polygon fill="#ffffff" stroke="transparent" points="262.5,-175.2 262.5,-194.2 319.5,-194.2 319.5,-175.2 262.5,-175.2"/>
<polygon fill="none" stroke="#000000" points="262.5,-175.2 262.5,-194.2 319.5,-194.2 319.5,-175.2 262.5,-175.2"/>
<text text-anchor="start" x="265.5" y="-181.3" font-family="Helvetica,sans-Serif" font-size="11.00" fill="#000000">&lt; 2</text>
<polygon fill="#ffffff" stroke="transparent" points="319.5,-175.2 319.5,-194.2 349.5,-194.2 349.5,-175.2 319.5,-175.2"/>
<polygon fill="none" stroke="#000000" points="319.5,-175.2 319.5,-194.2 349.5,-194.2 349.5,-175.2 319.5,-175.2"/>
<text text-anchor="start" x="340.3862" y="-181.3" font-family="Helvetica,sans-Serif" font-size="11.00" fill="#000000"> &#160;</text>
<polygon fill="#ffffff" stroke="transparent" points="349.5,-175.2 349.5,-194.2 379.5,-194.2 379.5,-175.2 349.5,-175.2"/>
<polygon fill="none" stroke="#000000" points="349.5,-175.2 349.5,-194.2 379.5,-194.2 379.5,-175.2 349.5,-175.2"/>
<text text-anchor="start" x="370.3862" y="-181.3" font-family="Helvetica,sans-Serif" font-size="11.00" fill="#000000"> &#160;</text>
</a>
</g>
</g>
<!-- roles -->
<g id="node2" class="node">
<title>roles</title>
<g id="a_node2"><a xlink:href="../../tables/roles.html" xlink:title="roles" target="_top">
<polygon fill="#ffffff" stroke="transparent" points="8,-38.2 8,-282.2 213,-282.2 213,-38.2 8,-38.2"/>
<polygon fill="#f5f5f5" stroke="transparent" points="10.5,-257.2 10.5,-280.2 211.5,-280.2 211.5,-257.2 10.5,-257.2"/>
<polygon fill="none" stroke="#000000" points="10.5,-257.2 10.5,-280.2 211.5,-280.2 211.5,-257.2 10.5,-257.2"/>
<text text-anchor="start" x="15.5" y="-266.3" font-family="Helvetica,sans-Serif" font-weight="bold" font-size="11.00" fill="#000000">roles</text>
<text text-anchor="start" x="176.5437" y="-265.3" font-family="Helvetica,sans-Serif" font-size="11.00" fill="#000000">[table]</text>
<polygon fill="none" stroke="#000000" points="10.5,-235.2 10.5,-257.2 144.5,-257.2 144.5,-235.2 10.5,-235.2"/>
<image xlink:href="../../images/primaryKeys.png" width="11px" height="12px" preserveAspectRatio="xMinYMin meet" x="15.5" y="-252.2"/>
<text text-anchor="start" x="30.5" y="-242.3" font-family="Helvetica,sans-Serif" font-size="11.00" fill="#000000">id</text>
<polygon fill="none" stroke="#000000" points="144.5,-235.2 144.5,-257.2 211.5,-257.2 211.5,-235.2 144.5,-235.2"/>
<text text-anchor="start" x="147.5" y="-242.9" font-family="Helvetica,sans-Serif" font-size="11.00" fill="#000000">char[36]</text>
<polygon fill="none" stroke="#000000" points="10.5,-213.2 10.5,-235.2 144.5,-235.2 144.5,-213.2 10.5,-213.2"/>
<text text-anchor="start" x="30.5" y="-220.3" font-family="Helvetica,sans-Serif" font-size="11.00" fill="#000000">date_entered</text>
<polygon fill="none" stroke="#000000" points="144.5,-213.2 144.5,-235.2 211.5,-235.2 211.5,-213.2 144.5,-213.2"/>
<text text-anchor="start" x="147.5" y="-220.9" font-family="Helvetica,sans-Serif" font-size="11.00" fill="#000000">datetime[26]</text>
<polygon fill="none" stroke="#000000" points="10.5,-191.2 10.5,-213.2 144.5,-213.2 144.5,-191.2 10.5,-191.2"/>
<text text-anchor="start" x="30.5" y="-198.3" font-family="Helvetica,sans-Serif" font-size="11.00" fill="#000000">date_modified</text>
<polygon fill="none" stroke="#000000" points="144.5,-191.2 144.5,-213.2 211.5,-213.2 211.5,-191.2 144.5,-191.2"/>
<text text-anchor="start" x="147.5" y="-198.9" font-family="Helvetica,sans-Serif" font-size="11.00" fill="#000000">datetime[26]</text>
<polygon fill="none" stroke="#000000" points="10.5,-169.2 10.5,-191.2 144.5,-191.2 144.5,-169.2 10.5,-169.2"/>
<text text-anchor="start" x="30.5" y="-176.3" font-family="Helvetica,sans-Serif" font-size="11.00" fill="#000000">modified_user_id</text>
<polygon fill="none" stroke="#000000" points="144.5,-169.2 144.5,-191.2 211.5,-191.2 211.5,-169.2 144.5,-169.2"/>
<text text-anchor="start" x="147.5" y="-176.9" font-family="Helvetica,sans-Serif" font-size="11.00" fill="#000000">char[36]</text>
<polygon fill="none" stroke="#000000" points="10.5,-147.2 10.5,-169.2 144.5,-169.2 144.5,-147.2 10.5,-147.2"/>
<text text-anchor="start" x="30.5" y="-154.3" font-family="Helvetica,sans-Serif" font-size="11.00" fill="#000000">created_by</text>
<polygon fill="none" stroke="#000000" points="144.5,-147.2 144.5,-169.2 211.5,-169.2 211.5,-147.2 144.5,-147.2"/>
<text text-anchor="start" x="147.5" y="-154.9" font-family="Helvetica,sans-Serif" font-size="11.00" fill="#000000">char[36]</text>
<polygon fill="none" stroke="#000000" points="10.5,-125.2 10.5,-147.2 144.5,-147.2 144.5,-125.2 10.5,-125.2"/>
<text text-anchor="start" x="30.5" y="-132.3" font-family="Helvetica,sans-Serif" font-size="11.00" fill="#000000">name</text>
<polygon fill="none" stroke="#000000" points="144.5,-125.2 144.5,-147.2 211.5,-147.2 211.5,-125.2 144.5,-125.2"/>
<text text-anchor="start" x="147.4365" y="-132.9" font-family="Helvetica,sans-Serif" font-size="11.00" fill="#000000">varchar[150]</text>
<polygon fill="none" stroke="#000000" points="10.5,-103.2 10.5,-125.2 144.5,-125.2 144.5,-103.2 10.5,-103.2"/>
<text text-anchor="start" x="30.5" y="-110.3" font-family="Helvetica,sans-Serif" font-size="11.00" fill="#000000">description</text>
<polygon fill="none" stroke="#000000" points="144.5,-103.2 144.5,-125.2 211.5,-125.2 211.5,-103.2 144.5,-103.2"/>
<text text-anchor="start" x="147.5" y="-110.9" font-family="Helvetica,sans-Serif" font-size="11.00" fill="#000000">text[65535]</text>
<polygon fill="none" stroke="#000000" points="10.5,-81.2 10.5,-103.2 144.5,-103.2 144.5,-81.2 10.5,-81.2"/>
<text text-anchor="start" x="30.5" y="-88.3" font-family="Helvetica,sans-Serif" font-size="11.00" fill="#000000">modules</text>
<polygon fill="none" stroke="#000000" points="144.5,-81.2 144.5,-103.2 211.5,-103.2 211.5,-81.2 144.5,-81.2"/>
<text text-anchor="start" x="147.5" y="-88.9" font-family="Helvetica,sans-Serif" font-size="11.00" fill="#000000">text[65535]</text>
<polygon fill="#ffffff" stroke="transparent" points="10.5,-59.2 10.5,-81.2 144.5,-81.2 144.5,-59.2 10.5,-59.2"/>
<polygon fill="none" stroke="#000000" points="10.5,-59.2 10.5,-81.2 144.5,-81.2 144.5,-59.2 10.5,-59.2"/>
<text text-anchor="start" x="30.5" y="-66.3" font-family="Helvetica,sans-Serif" font-size="11.00" fill="#000000">deleted</text>
<polygon fill="none" stroke="#000000" points="144.5,-59.2 144.5,-81.2 211.5,-81.2 211.5,-59.2 144.5,-59.2"/>
<text text-anchor="start" x="147.5" y="-66.9" font-family="Helvetica,sans-Serif" font-size="11.00" fill="#000000">bit[1]</text>
<polygon fill="#ffffff" stroke="transparent" points="10.5,-40.2 10.5,-59.2 81.5,-59.2 81.5,-40.2 10.5,-40.2"/>
<polygon fill="none" stroke="#000000" points="10.5,-40.2 10.5,-59.2 81.5,-59.2 81.5,-40.2 10.5,-40.2"/>
<text text-anchor="start" x="13.5" y="-46.3" font-family="Helvetica,sans-Serif" font-size="11.00" fill="#000000">&lt; 0</text>
<polygon fill="#ffffff" stroke="transparent" points="81.5,-40.2 81.5,-59.2 144.5,-59.2 144.5,-40.2 81.5,-40.2"/>
<polygon fill="none" stroke="#000000" points="81.5,-40.2 81.5,-59.2 144.5,-59.2 144.5,-40.2 81.5,-40.2"/>
<text text-anchor="start" x="135.3862" y="-46.3" font-family="Helvetica,sans-Serif" font-size="11.00" fill="#000000"> &#160;</text>
<polygon fill="#ffffff" stroke="transparent" points="144.5,-40.2 144.5,-59.2 211.5,-59.2 211.5,-40.2 144.5,-40.2"/>
<polygon fill="none" stroke="#000000" points="144.5,-40.2 144.5,-59.2 211.5,-59.2 211.5,-40.2 144.5,-40.2"/>
<text text-anchor="start" x="192.9053" y="-46.3" font-family="Helvetica,sans-Serif" font-size="11.00" fill="#000000">1 &gt;</text>
<polygon fill="none" stroke="#000000" stroke-width="2" points="9,-39.2 9,-281.2 212,-281.2 212,-39.2 9,-39.2"/>
</a>
</g>
</g>
<!-- roles_users&#45;&gt;roles -->
<g id="edge1" class="edge">
<title>roles_users:w&#45;&gt;roles:e</title>
<path fill="none" stroke="#000000" d="M247.776,-246.2C235.7815,-246.2 228.3229,-246.2 211.5,-246.2"/>
<polygon fill="#000000" stroke="#000000" points="254.5,-246.2001 262.5,-249.8 258.5,-246.2 262.5,-246.2 262.5,-246.2 262.5,-246.2 258.5,-246.2 262.5,-242.6 254.5,-246.2001 254.5,-246.2001"/>
<ellipse fill="none" stroke="#000000" cx="251.3" cy="-246.2001" rx="3.2" ry="3.2"/>
</g>
</g>
</svg>
