<?xml version="1.0" encoding="UTF-8" standalone="no"?>
<!DOCTYPE svg PUBLIC "-//W3C//DTD SVG 1.1//EN"
 "http://www.w3.org/Graphics/SVG/1.1/DTD/svg11.dtd">
<!-- Generated by graphviz version 2.40.1 (20161225.0304)
 -->
<!-- Title: oneDegreeRelationshipsDiagram Pages: 1 -->
<svg width="684pt" height="528pt"
 viewBox="0.00 0.00 684.00 527.70" xmlns="http://www.w3.org/2000/svg" xmlns:xlink="http://www.w3.org/1999/xlink">
<g id="graph0" class="graph" transform="scale(1 1) rotate(0) translate(4 523.7)">
<title>oneDegreeRelationshipsDiagram</title>
<polygon fill="#ffffff" stroke="transparent" points="-4,4 -4,-523.7 680,-523.7 680,4 -4,4"/>
<text text-anchor="middle" x="72.4936" y="-7.3" font-family="Helvetica,sans-Serif" font-size="11.00" fill="#000000">Generated by SchemaSpy</text>
<!-- job_queue -->
<g id="node1" class="node">
<title>job_queue</title>
<g id="a_node1"><a xlink:href="../../tables/job_queue.html" xlink:title="job_queue" target="_top">
<polygon fill="#ffffff" stroke="transparent" points="527,-300.7 527,-515.7 668,-515.7 668,-300.7 527,-300.7"/>
<polygon fill="#f5f5f5" stroke="transparent" points="527.5,-492.2 527.5,-515.2 668.5,-515.2 668.5,-492.2 527.5,-492.2"/>
<polygon fill="none" stroke="#000000" points="527.5,-492.2 527.5,-515.2 668.5,-515.2 668.5,-492.2 527.5,-492.2"/>
<text text-anchor="start" x="532.5" y="-501.3" font-family="Helvetica,sans-Serif" font-weight="bold" font-size="11.00" fill="#000000">job_queue</text>
<text text-anchor="start" x="633.5437" y="-500.3" font-family="Helvetica,sans-Serif" font-size="11.00" fill="#000000">[table]</text>
<polygon fill="#c0c0c0" stroke="transparent" points="527.5,-470.2 527.5,-492.2 668.5,-492.2 668.5,-470.2 527.5,-470.2"/>
<polygon fill="none" stroke="#000000" points="527.5,-470.2 527.5,-492.2 668.5,-492.2 668.5,-470.2 527.5,-470.2"/>
<image xlink:href="../../images/foreignKeys.png" width="11px" height="12px" preserveAspectRatio="xMinYMin meet" x="532.5" y="-487.2"/>
<text text-anchor="start" x="547.5" y="-477.3" font-family="Helvetica,sans-Serif" font-size="11.00" fill="#000000">assigned_user_id</text>
<polygon fill="none" stroke="#000000" points="527.5,-448.2 527.5,-470.2 668.5,-470.2 668.5,-448.2 527.5,-448.2"/>
<image xlink:href="../../images/primaryKeys.png" width="11px" height="12px" preserveAspectRatio="xMinYMin meet" x="532.5" y="-465.2"/>
<text text-anchor="start" x="547.5" y="-455.3" font-family="Helvetica,sans-Serif" font-size="11.00" fill="#000000">id</text>
<polygon fill="#ffffff" stroke="transparent" points="527.5,-426.2 527.5,-448.2 668.5,-448.2 668.5,-426.2 527.5,-426.2"/>
<polygon fill="none" stroke="#000000" points="527.5,-426.2 527.5,-448.2 668.5,-448.2 668.5,-426.2 527.5,-426.2"/>
<text text-anchor="start" x="547.5" y="-433.3" font-family="Helvetica,sans-Serif" font-size="11.00" fill="#000000">date_entered</text>
<polygon fill="#ffffff" stroke="transparent" points="527.5,-404.2 527.5,-426.2 668.5,-426.2 668.5,-404.2 527.5,-404.2"/>
<polygon fill="none" stroke="#000000" points="527.5,-404.2 527.5,-426.2 668.5,-426.2 668.5,-404.2 527.5,-404.2"/>
<text text-anchor="start" x="547.5" y="-411.3" font-family="Helvetica,sans-Serif" font-size="11.00" fill="#000000">date_modified</text>
<polygon fill="#ffffff" stroke="transparent" points="527.5,-382.2 527.5,-404.2 668.5,-404.2 668.5,-382.2 527.5,-382.2"/>
<polygon fill="none" stroke="#000000" points="527.5,-382.2 527.5,-404.2 668.5,-404.2 668.5,-382.2 527.5,-382.2"/>
<image xlink:href="../../images/foreignKeys.png" width="11px" height="12px" preserveAspectRatio="xMinYMin meet" x="532.5" y="-399.2"/>
<text text-anchor="start" x="547.5" y="-389.3" font-family="Helvetica,sans-Serif" font-size="11.00" fill="#000000">scheduler_id</text>
<polygon fill="#ffffff" stroke="transparent" points="527.5,-360.2 527.5,-382.2 668.5,-382.2 668.5,-360.2 527.5,-360.2"/>
<polygon fill="none" stroke="#000000" points="527.5,-360.2 527.5,-382.2 668.5,-382.2 668.5,-360.2 527.5,-360.2"/>
<text text-anchor="start" x="547.5" y="-367.3" font-family="Helvetica,sans-Serif" font-size="11.00" fill="#000000">execute_time</text>
<polygon fill="#ffffff" stroke="transparent" points="527.5,-338.2 527.5,-360.2 668.5,-360.2 668.5,-338.2 527.5,-338.2"/>
<polygon fill="none" stroke="#000000" points="527.5,-338.2 527.5,-360.2 668.5,-360.2 668.5,-338.2 527.5,-338.2"/>
<text text-anchor="start" x="547.5" y="-345.3" font-family="Helvetica,sans-Serif" font-size="11.00" fill="#000000">status</text>
<polygon fill="none" stroke="#000000" points="527.5,-319.2 527.5,-338.2 668.5,-338.2 668.5,-319.2 527.5,-319.2"/>
<text text-anchor="start" x="530.5" y="-325.3" font-family="Helvetica,sans-Serif" font-size="11.00" fill="#000000">...</text>
<polygon fill="#ffffff" stroke="transparent" points="527.5,-300.2 527.5,-319.2 596.5,-319.2 596.5,-300.2 527.5,-300.2"/>
<polygon fill="none" stroke="#000000" points="527.5,-300.2 527.5,-319.2 596.5,-319.2 596.5,-300.2 527.5,-300.2"/>
<text text-anchor="start" x="530.5" y="-306.3" font-family="Helvetica,sans-Serif" font-size="11.00" fill="#000000">&lt; 2</text>
<polygon fill="#ffffff" stroke="transparent" points="596.5,-300.2 596.5,-319.2 632.5,-319.2 632.5,-300.2 596.5,-300.2"/>
<polygon fill="none" stroke="#000000" points="596.5,-300.2 596.5,-319.2 632.5,-319.2 632.5,-300.2 596.5,-300.2"/>
<text text-anchor="start" x="623.3862" y="-306.3" font-family="Helvetica,sans-Serif" font-size="11.00" fill="#000000"> &#160;</text>
<polygon fill="#ffffff" stroke="transparent" points="632.5,-300.2 632.5,-319.2 668.5,-319.2 668.5,-300.2 632.5,-300.2"/>
<polygon fill="none" stroke="#000000" points="632.5,-300.2 632.5,-319.2 668.5,-319.2 668.5,-300.2 632.5,-300.2"/>
<text text-anchor="start" x="659.3862" y="-306.3" font-family="Helvetica,sans-Serif" font-size="11.00" fill="#000000"> &#160;</text>
</a>
</g>
</g>
<!-- users -->
<g id="node2" class="node">
<title>users</title>
<g id="a_node2"><a xlink:href="../../tables/users.html" xlink:title="users" target="_top">
<polygon fill="#ffffff" stroke="transparent" points="8,-131.7 8,-346.7 224,-346.7 224,-131.7 8,-131.7"/>
<polygon fill="#f5f5f5" stroke="transparent" points="8,-323.2 8,-346.2 224,-346.2 224,-323.2 8,-323.2"/>
<polygon fill="none" stroke="#000000" points="8,-323.2 8,-346.2 224,-346.2 224,-323.2 8,-323.2"/>
<text text-anchor="start" x="13" y="-332.3" font-family="Helvetica,sans-Serif" font-weight="bold" font-size="11.00" fill="#000000">users</text>
<text text-anchor="start" x="189.0437" y="-331.3" font-family="Helvetica,sans-Serif" font-size="11.00" fill="#000000">[table]</text>
<polygon fill="none" stroke="#000000" points="8,-301.2 8,-323.2 224,-323.2 224,-301.2 8,-301.2"/>
<image xlink:href="../../images/primaryKeys.png" width="11px" height="12px" preserveAspectRatio="xMinYMin meet" x="13" y="-318.2"/>
<text text-anchor="start" x="28" y="-308.3" font-family="Helvetica,sans-Serif" font-size="11.00" fill="#000000">id</text>
<polygon fill="#ffffff" stroke="transparent" points="8,-279.2 8,-301.2 224,-301.2 224,-279.2 8,-279.2"/>
<polygon fill="none" stroke="#000000" points="8,-279.2 8,-301.2 224,-301.2 224,-279.2 8,-279.2"/>
<text text-anchor="start" x="28" y="-286.3" font-family="Helvetica,sans-Serif" font-size="11.00" fill="#000000">user_name</text>
<polygon fill="#ffffff" stroke="transparent" points="8,-257.2 8,-279.2 224,-279.2 224,-257.2 8,-257.2"/>
<polygon fill="none" stroke="#000000" points="8,-257.2 8,-279.2 224,-279.2 224,-257.2 8,-257.2"/>
<text text-anchor="start" x="28" y="-264.3" font-family="Helvetica,sans-Serif" font-size="11.00" fill="#000000">first_name</text>
<polygon fill="#ffffff" stroke="transparent" points="8,-235.2 8,-257.2 224,-257.2 224,-235.2 8,-235.2"/>
<polygon fill="none" stroke="#000000" points="8,-235.2 8,-257.2 224,-257.2 224,-235.2 8,-235.2"/>
<text text-anchor="start" x="28" y="-242.3" font-family="Helvetica,sans-Serif" font-size="11.00" fill="#000000">last_name</text>
<polygon fill="#ffffff" stroke="transparent" points="8,-213.2 8,-235.2 224,-235.2 224,-213.2 8,-213.2"/>
<polygon fill="none" stroke="#000000" points="8,-213.2 8,-235.2 224,-235.2 224,-213.2 8,-213.2"/>
<text text-anchor="start" x="28" y="-220.3" font-family="Helvetica,sans-Serif" font-size="11.00" fill="#000000">status</text>
<polygon fill="#c0c0c0" stroke="transparent" points="8,-191.2 8,-213.2 224,-213.2 224,-191.2 8,-191.2"/>
<polygon fill="none" stroke="#000000" points="8,-191.2 8,-213.2 224,-213.2 224,-191.2 8,-191.2"/>
<image xlink:href="../../images/foreignKeys.png" width="11px" height="12px" preserveAspectRatio="xMinYMin meet" x="13" y="-208.2"/>
<text text-anchor="start" x="28" y="-198.3" font-family="Helvetica,sans-Serif" font-size="11.00" fill="#000000">reports_to_id</text>
<polygon fill="#ffffff" stroke="transparent" points="8,-169.2 8,-191.2 224,-191.2 224,-169.2 8,-169.2"/>
<polygon fill="none" stroke="#000000" points="8,-169.2 8,-191.2 224,-191.2 224,-169.2 8,-169.2"/>
<text text-anchor="start" x="28" y="-176.3" font-family="Helvetica,sans-Serif" font-size="11.00" fill="#000000">is_group</text>
<polygon fill="none" stroke="#000000" points="8,-150.2 8,-169.2 224,-169.2 224,-150.2 8,-150.2"/>
<text text-anchor="start" x="11" y="-156.3" font-family="Helvetica,sans-Serif" font-size="11.00" fill="#000000">...</text>
<polygon fill="#ffffff" stroke="transparent" points="8,-131.2 8,-150.2 104,-150.2 104,-131.2 8,-131.2"/>
<polygon fill="none" stroke="#000000" points="8,-131.2 8,-150.2 104,-150.2 104,-131.2 8,-131.2"/>
<text text-anchor="start" x="11" y="-137.3" font-family="Helvetica,sans-Serif" font-size="11.00" fill="#000000">&lt; 2</text>
<polygon fill="#ffffff" stroke="transparent" points="104,-131.2 104,-150.2 153,-150.2 153,-131.2 104,-131.2"/>
<polygon fill="none" stroke="#000000" points="104,-131.2 104,-150.2 153,-150.2 153,-131.2 104,-131.2"/>
<text text-anchor="start" x="143.8862" y="-137.3" font-family="Helvetica,sans-Serif" font-size="11.00" fill="#000000"> &#160;</text>
<polygon fill="#ffffff" stroke="transparent" points="153,-131.2 153,-150.2 224,-150.2 224,-131.2 153,-131.2"/>
<polygon fill="none" stroke="#000000" points="153,-131.2 153,-150.2 224,-150.2 224,-131.2 153,-131.2"/>
<text text-anchor="start" x="193.1755" y="-137.3" font-family="Helvetica,sans-Serif" font-size="11.00" fill="#000000">214 &gt;</text>
</a>
</g>
</g>
<!-- job_queue&#45;&gt;users -->
<g id="edge1" class="edge">
<title>job_queue:w&#45;&gt;users:e</title>
<path fill="none" stroke="#000000" d="M513.0038,-481.4103C405.1732,-484.5193 351.0259,-520.0087 265,-447.2 217.1359,-406.6898 286.7061,-312.2 224,-312.2"/>
<polygon fill="#000000" stroke="#000000" points="519.5008,-481.3161 527.5523,-484.7996 523.5004,-481.2581 527.5,-481.2 527.5,-481.2 527.5,-481.2 523.5004,-481.2581 527.4477,-477.6004 519.5008,-481.3161 519.5008,-481.3161"/>
<ellipse fill="none" stroke="#000000" cx="516.3012" cy="-481.3626" rx="3.2" ry="3.2"/>
</g>
<!-- schedulers -->
<g id="node3" class="node">
<title>schedulers</title>
<g id="a_node3"><a xlink:href="../../tables/schedulers.html" xlink:title="schedulers" target="_top">
<polygon fill="#ffffff" stroke="transparent" points="273,-38.2 273,-436.2 478,-436.2 478,-38.2 273,-38.2"/>
<polygon fill="#f5f5f5" stroke="transparent" points="275.5,-411.2 275.5,-434.2 476.5,-434.2 476.5,-411.2 275.5,-411.2"/>
<polygon fill="none" stroke="#000000" points="275.5,-411.2 275.5,-434.2 476.5,-434.2 476.5,-411.2 275.5,-411.2"/>
<text text-anchor="start" x="280.5" y="-420.3" font-family="Helvetica,sans-Serif" font-weight="bold" font-size="11.00" fill="#000000">schedulers</text>
<text text-anchor="start" x="441.5437" y="-419.3" font-family="Helvetica,sans-Serif" font-size="11.00" fill="#000000">[table]</text>
<polygon fill="none" stroke="#000000" points="275.5,-389.2 275.5,-411.2 409.5,-411.2 409.5,-389.2 275.5,-389.2"/>
<image xlink:href="../../images/primaryKeys.png" width="11px" height="12px" preserveAspectRatio="xMinYMin meet" x="280.5" y="-406.2"/>
<text text-anchor="start" x="295.5" y="-396.3" font-family="Helvetica,sans-Serif" font-size="11.00" fill="#000000">id</text>
<polygon fill="none" stroke="#000000" points="409.5,-389.2 409.5,-411.2 476.5,-411.2 476.5,-389.2 409.5,-389.2"/>
<text text-anchor="start" x="412.5" y="-396.9" font-family="Helvetica,sans-Serif" font-size="11.00" fill="#000000">varchar[36]</text>
<polygon fill="#ffffff" stroke="transparent" points="275.5,-367.2 275.5,-389.2 409.5,-389.2 409.5,-367.2 275.5,-367.2"/>
<polygon fill="none" stroke="#000000" points="275.5,-367.2 275.5,-389.2 409.5,-389.2 409.5,-367.2 275.5,-367.2"/>
<text text-anchor="start" x="295.5" y="-374.3" font-family="Helvetica,sans-Serif" font-size="11.00" fill="#000000">deleted</text>
<polygon fill="none" stroke="#000000" points="409.5,-367.2 409.5,-389.2 476.5,-389.2 476.5,-367.2 409.5,-367.2"/>
<text text-anchor="start" x="412.5" y="-374.9" font-family="Helvetica,sans-Serif" font-size="11.00" fill="#000000">bit[1]</text>
<polygon fill="none" stroke="#000000" points="275.5,-345.2 275.5,-367.2 409.5,-367.2 409.5,-345.2 275.5,-345.2"/>
<text text-anchor="start" x="295.5" y="-352.3" font-family="Helvetica,sans-Serif" font-size="11.00" fill="#000000">date_entered</text>
<polygon fill="none" stroke="#000000" points="409.5,-345.2 409.5,-367.2 476.5,-367.2 476.5,-345.2 409.5,-345.2"/>
<text text-anchor="start" x="412.5" y="-352.9" font-family="Helvetica,sans-Serif" font-size="11.00" fill="#000000">datetime[26]</text>
<polygon fill="none" stroke="#000000" points="275.5,-323.2 275.5,-345.2 409.5,-345.2 409.5,-323.2 275.5,-323.2"/>
<text text-anchor="start" x="295.5" y="-330.3" font-family="Helvetica,sans-Serif" font-size="11.00" fill="#000000">date_modified</text>
<polygon fill="none" stroke="#000000" points="409.5,-323.2 409.5,-345.2 476.5,-345.2 476.5,-323.2 409.5,-323.2"/>
<text text-anchor="start" x="412.5" y="-330.9" font-family="Helvetica,sans-Serif" font-size="11.00" fill="#000000">datetime[26]</text>
<polygon fill="none" stroke="#000000" points="275.5,-301.2 275.5,-323.2 409.5,-323.2 409.5,-301.2 275.5,-301.2"/>
<image xlink:href="../../images/foreignKeys.png" width="11px" height="12px" preserveAspectRatio="xMinYMin meet" x="280.5" y="-318.2"/>
<text text-anchor="start" x="295.5" y="-308.3" font-family="Helvetica,sans-Serif" font-size="11.00" fill="#000000">created_by</text>
<polygon fill="none" stroke="#000000" points="409.5,-301.2 409.5,-323.2 476.5,-323.2 476.5,-301.2 409.5,-301.2"/>
<text text-anchor="start" x="412.5" y="-308.9" font-family="Helvetica,sans-Serif" font-size="11.00" fill="#000000">char[36]</text>
<polygon fill="none" stroke="#000000" points="275.5,-279.2 275.5,-301.2 409.5,-301.2 409.5,-279.2 275.5,-279.2"/>
<image xlink:href="../../images/foreignKeys.png" width="11px" height="12px" preserveAspectRatio="xMinYMin meet" x="280.5" y="-296.2"/>
<text text-anchor="start" x="295.5" y="-286.3" font-family="Helvetica,sans-Serif" font-size="11.00" fill="#000000">modified_user_id</text>
<polygon fill="none" stroke="#000000" points="409.5,-279.2 409.5,-301.2 476.5,-301.2 476.5,-279.2 409.5,-279.2"/>
<text text-anchor="start" x="412.5" y="-286.9" font-family="Helvetica,sans-Serif" font-size="11.00" fill="#000000">char[36]</text>
<polygon fill="none" stroke="#000000" points="275.5,-257.2 275.5,-279.2 409.5,-279.2 409.5,-257.2 275.5,-257.2"/>
<text text-anchor="start" x="295.5" y="-264.3" font-family="Helvetica,sans-Serif" font-size="11.00" fill="#000000">name</text>
<polygon fill="none" stroke="#000000" points="409.5,-257.2 409.5,-279.2 476.5,-279.2 476.5,-257.2 409.5,-257.2"/>
<text text-anchor="start" x="412.4365" y="-264.9" font-family="Helvetica,sans-Serif" font-size="11.00" fill="#000000">varchar[255]</text>
<polygon fill="none" stroke="#000000" points="275.5,-235.2 275.5,-257.2 409.5,-257.2 409.5,-235.2 275.5,-235.2"/>
<text text-anchor="start" x="295.5" y="-242.3" font-family="Helvetica,sans-Serif" font-size="11.00" fill="#000000">job</text>
<polygon fill="none" stroke="#000000" points="409.5,-235.2 409.5,-257.2 476.5,-257.2 476.5,-235.2 409.5,-235.2"/>
<text text-anchor="start" x="412.4365" y="-242.9" font-family="Helvetica,sans-Serif" font-size="11.00" fill="#000000">varchar[255]</text>
<polygon fill="#ffffff" stroke="transparent" points="275.5,-213.2 275.5,-235.2 409.5,-235.2 409.5,-213.2 275.5,-213.2"/>
<polygon fill="none" stroke="#000000" points="275.5,-213.2 275.5,-235.2 409.5,-235.2 409.5,-213.2 275.5,-213.2"/>
<text text-anchor="start" x="295.5" y="-220.3" font-family="Helvetica,sans-Serif" font-size="11.00" fill="#000000">date_time_start</text>
<polygon fill="none" stroke="#000000" points="409.5,-213.2 409.5,-235.2 476.5,-235.2 476.5,-213.2 409.5,-213.2"/>
<text text-anchor="start" x="412.5" y="-220.9" font-family="Helvetica,sans-Serif" font-size="11.00" fill="#000000">datetime[26]</text>
<polygon fill="none" stroke="#000000" points="275.5,-191.2 275.5,-213.2 409.5,-213.2 409.5,-191.2 275.5,-191.2"/>
<text text-anchor="start" x="295.5" y="-198.3" font-family="Helvetica,sans-Serif" font-size="11.00" fill="#000000">date_time_end</text>
<polygon fill="none" stroke="#000000" points="409.5,-191.2 409.5,-213.2 476.5,-213.2 476.5,-191.2 409.5,-191.2"/>
<text text-anchor="start" x="412.5" y="-198.9" font-family="Helvetica,sans-Serif" font-size="11.00" fill="#000000">datetime[26]</text>
<polygon fill="none" stroke="#000000" points="275.5,-169.2 275.5,-191.2 409.5,-191.2 409.5,-169.2 275.5,-169.2"/>
<text text-anchor="start" x="295.5" y="-176.3" font-family="Helvetica,sans-Serif" font-size="11.00" fill="#000000">job_interval</text>
<polygon fill="none" stroke="#000000" points="409.5,-169.2 409.5,-191.2 476.5,-191.2 476.5,-169.2 409.5,-169.2"/>
<text text-anchor="start" x="412.4365" y="-176.9" font-family="Helvetica,sans-Serif" font-size="11.00" fill="#000000">varchar[100]</text>
<polygon fill="none" stroke="#000000" points="275.5,-147.2 275.5,-169.2 409.5,-169.2 409.5,-147.2 275.5,-147.2"/>
<text text-anchor="start" x="295.5" y="-154.3" font-family="Helvetica,sans-Serif" font-size="11.00" fill="#000000">time_from</text>
<polygon fill="none" stroke="#000000" points="409.5,-147.2 409.5,-169.2 476.5,-169.2 476.5,-147.2 409.5,-147.2"/>
<text text-anchor="start" x="412.5" y="-154.9" font-family="Helvetica,sans-Serif" font-size="11.00" fill="#000000">time[16]</text>
<polygon fill="none" stroke="#000000" points="275.5,-125.2 275.5,-147.2 409.5,-147.2 409.5,-125.2 275.5,-125.2"/>
<text text-anchor="start" x="295.5" y="-132.3" font-family="Helvetica,sans-Serif" font-size="11.00" fill="#000000">time_to</text>
<polygon fill="none" stroke="#000000" points="409.5,-125.2 409.5,-147.2 476.5,-147.2 476.5,-125.2 409.5,-125.2"/>
<text text-anchor="start" x="412.5" y="-132.9" font-family="Helvetica,sans-Serif" font-size="11.00" fill="#000000">time[16]</text>
<polygon fill="none" stroke="#000000" points="275.5,-103.2 275.5,-125.2 409.5,-125.2 409.5,-103.2 275.5,-103.2"/>
<text text-anchor="start" x="295.5" y="-110.3" font-family="Helvetica,sans-Serif" font-size="11.00" fill="#000000">last_run</text>
<polygon fill="none" stroke="#000000" points="409.5,-103.2 409.5,-125.2 476.5,-125.2 476.5,-103.2 409.5,-103.2"/>
<text text-anchor="start" x="412.5" y="-110.9" font-family="Helvetica,sans-Serif" font-size="11.00" fill="#000000">datetime[26]</text>
<polygon fill="none" stroke="#000000" points="275.5,-81.2 275.5,-103.2 409.5,-103.2 409.5,-81.2 275.5,-81.2"/>
<text text-anchor="start" x="295.5" y="-88.3" font-family="Helvetica,sans-Serif" font-size="11.00" fill="#000000">status</text>
<polygon fill="none" stroke="#000000" points="409.5,-81.2 409.5,-103.2 476.5,-103.2 476.5,-81.2 409.5,-81.2"/>
<text text-anchor="start" x="412.4365" y="-88.9" font-family="Helvetica,sans-Serif" font-size="11.00" fill="#000000">varchar[100]</text>
<polygon fill="none" stroke="#000000" points="275.5,-59.2 275.5,-81.2 409.5,-81.2 409.5,-59.2 275.5,-59.2"/>
<text text-anchor="start" x="295.5" y="-66.3" font-family="Helvetica,sans-Serif" font-size="11.00" fill="#000000">catch_up</text>
<polygon fill="none" stroke="#000000" points="409.5,-59.2 409.5,-81.2 476.5,-81.2 476.5,-59.2 409.5,-59.2"/>
<text text-anchor="start" x="412.5" y="-66.9" font-family="Helvetica,sans-Serif" font-size="11.00" fill="#000000">bit[1]</text>
<polygon fill="#ffffff" stroke="transparent" points="275.5,-40.2 275.5,-59.2 346.5,-59.2 346.5,-40.2 275.5,-40.2"/>
<polygon fill="none" stroke="#000000" points="275.5,-40.2 275.5,-59.2 346.5,-59.2 346.5,-40.2 275.5,-40.2"/>
<text text-anchor="start" x="278.5" y="-46.3" font-family="Helvetica,sans-Serif" font-size="11.00" fill="#000000">&lt; 2</text>
<polygon fill="#ffffff" stroke="transparent" points="346.5,-40.2 346.5,-59.2 409.5,-59.2 409.5,-40.2 346.5,-40.2"/>
<polygon fill="none" stroke="#000000" points="346.5,-40.2 346.5,-59.2 409.5,-59.2 409.5,-40.2 346.5,-40.2"/>
<text text-anchor="start" x="400.3862" y="-46.3" font-family="Helvetica,sans-Serif" font-size="11.00" fill="#000000"> &#160;</text>
<polygon fill="#ffffff" stroke="transparent" points="409.5,-40.2 409.5,-59.2 476.5,-59.2 476.5,-40.2 409.5,-40.2"/>
<polygon fill="none" stroke="#000000" points="409.5,-40.2 409.5,-59.2 476.5,-59.2 476.5,-40.2 409.5,-40.2"/>
<text text-anchor="start" x="457.9053" y="-46.3" font-family="Helvetica,sans-Serif" font-size="11.00" fill="#000000">1 &gt;</text>
<polygon fill="none" stroke="#000000" stroke-width="2" points="274,-39.2 274,-435.2 477,-435.2 477,-39.2 274,-39.2"/>
</a>
</g>
</g>
<!-- job_queue&#45;&gt;schedulers -->
<g id="edge2" class="edge">
<title>job_queue:w&#45;&gt;schedulers:e</title>
<path fill="none" stroke="#000000" d="M513.0965,-394.2938C500.8977,-396.2625 493.6594,-400.2 476.5,-400.2"/>
<polygon fill="#000000" stroke="#000000" points="519.523,-393.8058 527.7726,-396.7897 523.5115,-393.5029 527.5,-393.2 527.5,-393.2 527.5,-393.2 523.5115,-393.5029 527.2274,-389.6103 519.523,-393.8058 519.523,-393.8058"/>
<ellipse fill="none" stroke="#000000" cx="516.3322" cy="-394.0481" rx="3.2" ry="3.2"/>
</g>
<!-- schedulers&#45;&gt;users -->
<g id="edge3" class="edge">
<title>schedulers:w&#45;&gt;users:e</title>
<path fill="none" stroke="#000000" d="M261.0156,-312.2C248.6771,-312.2 241.1667,-312.2 224,-312.2"/>
<polygon fill="#000000" stroke="#000000" points="267.5,-312.2001 275.5,-315.8 271.5,-312.2 275.5,-312.2 275.5,-312.2 275.5,-312.2 271.5,-312.2 275.5,-308.6 267.5,-312.2001 267.5,-312.2001"/>
<ellipse fill="none" stroke="#000000" cx="264.3" cy="-312.2001" rx="3.2" ry="3.2"/>
</g>
<!-- schedulers&#45;&gt;users -->
<g id="edge4" class="edge">
<title>schedulers:w&#45;&gt;users:e</title>
<path fill="none" stroke="#000000" d="M261.2209,-293.259C248.531,-299.304 243.0563,-312.2 224,-312.2"/>
<polygon fill="#000000" stroke="#000000" points="267.6775,-291.8759 276.2541,-293.7201 271.5887,-291.0379 275.5,-290.2 275.5,-290.2 275.5,-290.2 271.5887,-291.0379 274.7459,-286.6799 267.6775,-291.8759 267.6775,-291.8759"/>
<ellipse fill="none" stroke="#000000" cx="264.5485" cy="-292.5462" rx="3.2" ry="3.2"/>
</g>
</g>
</svg>
