<?xml version="1.0" encoding="UTF-8" standalone="no"?>
<!DOCTYPE svg PUBLIC "-//W3C//DTD SVG 1.1//EN"
 "http://www.w3.org/Graphics/SVG/1.1/DTD/svg11.dtd">
<!-- Generated by graphviz version 2.40.1 (20161225.0304)
 -->
<!-- Title: oneDegreeRelationshipsDiagram Pages: 1 -->
<svg width="731pt" height="686pt"
 viewBox="0.00 0.00 731.00 686.20" xmlns="http://www.w3.org/2000/svg" xmlns:xlink="http://www.w3.org/1999/xlink">
<g id="graph0" class="graph" transform="scale(1 1) rotate(0) translate(4 682.2)">
<title>oneDegreeRelationshipsDiagram</title>
<polygon fill="#ffffff" stroke="transparent" points="-4,4 -4,-682.2 727,-682.2 727,4 -4,4"/>
<text text-anchor="middle" x="72.4936" y="-7.3" font-family="Helvetica,sans-Serif" font-size="11.00" fill="#000000">Generated by SchemaSpy</text>
<!-- securitygroups -->
<g id="node1" class="node">
<title>securitygroups</title>
<g id="a_node1"><a xlink:href="../../tables/securitygroups.html" xlink:title="securitygroups" target="_top">
<polygon fill="#ffffff" stroke="transparent" points="273,-131.7 273,-397.7 479,-397.7 479,-131.7 273,-131.7"/>
<polygon fill="#f5f5f5" stroke="transparent" points="275,-372.7 275,-395.7 477,-395.7 477,-372.7 275,-372.7"/>
<polygon fill="none" stroke="#000000" points="275,-372.7 275,-395.7 477,-395.7 477,-372.7 275,-372.7"/>
<text text-anchor="start" x="280" y="-381.8" font-family="Helvetica,sans-Serif" font-weight="bold" font-size="11.00" fill="#000000">securitygroups</text>
<text text-anchor="start" x="442.0437" y="-380.8" font-family="Helvetica,sans-Serif" font-size="11.00" fill="#000000">[table]</text>
<polygon fill="none" stroke="#000000" points="275,-350.7 275,-372.7 410,-372.7 410,-350.7 275,-350.7"/>
<image xlink:href="../../images/primaryKeys.png" width="11px" height="12px" preserveAspectRatio="xMinYMin meet" x="280" y="-367.7"/>
<text text-anchor="start" x="295" y="-357.8" font-family="Helvetica,sans-Serif" font-size="11.00" fill="#000000">id</text>
<polygon fill="none" stroke="#000000" points="410,-350.7 410,-372.7 477,-372.7 477,-350.7 410,-350.7"/>
<text text-anchor="start" x="413" y="-358.4" font-family="Helvetica,sans-Serif" font-size="11.00" fill="#000000">char[36]</text>
<polygon fill="none" stroke="#000000" points="275,-328.7 275,-350.7 410,-350.7 410,-328.7 275,-328.7"/>
<text text-anchor="start" x="295" y="-335.8" font-family="Helvetica,sans-Serif" font-size="11.00" fill="#000000">name</text>
<polygon fill="none" stroke="#000000" points="410,-328.7 410,-350.7 477,-350.7 477,-328.7 410,-328.7"/>
<text text-anchor="start" x="412.9365" y="-336.4" font-family="Helvetica,sans-Serif" font-size="11.00" fill="#000000">varchar[255]</text>
<polygon fill="none" stroke="#000000" points="275,-306.7 275,-328.7 410,-328.7 410,-306.7 275,-306.7"/>
<text text-anchor="start" x="295" y="-313.8" font-family="Helvetica,sans-Serif" font-size="11.00" fill="#000000">date_entered</text>
<polygon fill="none" stroke="#000000" points="410,-306.7 410,-328.7 477,-328.7 477,-306.7 410,-306.7"/>
<text text-anchor="start" x="413" y="-314.4" font-family="Helvetica,sans-Serif" font-size="11.00" fill="#000000">datetime[26]</text>
<polygon fill="none" stroke="#000000" points="275,-284.7 275,-306.7 410,-306.7 410,-284.7 275,-284.7"/>
<text text-anchor="start" x="295" y="-291.8" font-family="Helvetica,sans-Serif" font-size="11.00" fill="#000000">date_modified</text>
<polygon fill="none" stroke="#000000" points="410,-284.7 410,-306.7 477,-306.7 477,-284.7 410,-284.7"/>
<text text-anchor="start" x="413" y="-292.4" font-family="Helvetica,sans-Serif" font-size="11.00" fill="#000000">datetime[26]</text>
<polygon fill="none" stroke="#000000" points="275,-262.7 275,-284.7 410,-284.7 410,-262.7 275,-262.7"/>
<image xlink:href="../../images/foreignKeys.png" width="11px" height="12px" preserveAspectRatio="xMinYMin meet" x="280" y="-279.7"/>
<text text-anchor="start" x="295" y="-269.8" font-family="Helvetica,sans-Serif" font-size="11.00" fill="#000000">modified_user_id</text>
<polygon fill="none" stroke="#000000" points="410,-262.7 410,-284.7 477,-284.7 477,-262.7 410,-262.7"/>
<text text-anchor="start" x="413" y="-270.4" font-family="Helvetica,sans-Serif" font-size="11.00" fill="#000000">char[36]</text>
<polygon fill="none" stroke="#000000" points="275,-240.7 275,-262.7 410,-262.7 410,-240.7 275,-240.7"/>
<image xlink:href="../../images/foreignKeys.png" width="11px" height="12px" preserveAspectRatio="xMinYMin meet" x="280" y="-257.7"/>
<text text-anchor="start" x="295" y="-247.8" font-family="Helvetica,sans-Serif" font-size="11.00" fill="#000000">created_by</text>
<polygon fill="none" stroke="#000000" points="410,-240.7 410,-262.7 477,-262.7 477,-240.7 410,-240.7"/>
<text text-anchor="start" x="413" y="-248.4" font-family="Helvetica,sans-Serif" font-size="11.00" fill="#000000">char[36]</text>
<polygon fill="none" stroke="#000000" points="275,-218.7 275,-240.7 410,-240.7 410,-218.7 275,-218.7"/>
<text text-anchor="start" x="295" y="-225.8" font-family="Helvetica,sans-Serif" font-size="11.00" fill="#000000">description</text>
<polygon fill="none" stroke="#000000" points="410,-218.7 410,-240.7 477,-240.7 477,-218.7 410,-218.7"/>
<text text-anchor="start" x="413" y="-226.4" font-family="Helvetica,sans-Serif" font-size="11.00" fill="#000000">text[65535]</text>
<polygon fill="none" stroke="#000000" points="275,-196.7 275,-218.7 410,-218.7 410,-196.7 275,-196.7"/>
<text text-anchor="start" x="295" y="-203.8" font-family="Helvetica,sans-Serif" font-size="11.00" fill="#000000">deleted</text>
<polygon fill="none" stroke="#000000" points="410,-196.7 410,-218.7 477,-218.7 477,-196.7 410,-196.7"/>
<text text-anchor="start" x="413" y="-204.4" font-family="Helvetica,sans-Serif" font-size="11.00" fill="#000000">bit[1]</text>
<polygon fill="none" stroke="#000000" points="275,-174.7 275,-196.7 410,-196.7 410,-174.7 275,-174.7"/>
<image xlink:href="../../images/foreignKeys.png" width="11px" height="12px" preserveAspectRatio="xMinYMin meet" x="280" y="-191.7"/>
<text text-anchor="start" x="295" y="-181.8" font-family="Helvetica,sans-Serif" font-size="11.00" fill="#000000">assigned_user_id</text>
<polygon fill="none" stroke="#000000" points="410,-174.7 410,-196.7 477,-196.7 477,-174.7 410,-174.7"/>
<text text-anchor="start" x="413" y="-182.4" font-family="Helvetica,sans-Serif" font-size="11.00" fill="#000000">char[36]</text>
<polygon fill="none" stroke="#000000" points="275,-152.7 275,-174.7 410,-174.7 410,-152.7 275,-152.7"/>
<text text-anchor="start" x="295" y="-159.8" font-family="Helvetica,sans-Serif" font-size="11.00" fill="#000000">noninheritable</text>
<polygon fill="none" stroke="#000000" points="410,-152.7 410,-174.7 477,-174.7 477,-152.7 410,-152.7"/>
<text text-anchor="start" x="413" y="-160.4" font-family="Helvetica,sans-Serif" font-size="11.00" fill="#000000">bit[1]</text>
<polygon fill="#ffffff" stroke="transparent" points="275,-133.7 275,-152.7 347,-152.7 347,-133.7 275,-133.7"/>
<polygon fill="none" stroke="#000000" points="275,-133.7 275,-152.7 347,-152.7 347,-133.7 275,-133.7"/>
<text text-anchor="start" x="278" y="-139.8" font-family="Helvetica,sans-Serif" font-size="11.00" fill="#000000">&lt; 3</text>
<polygon fill="#ffffff" stroke="transparent" points="347,-133.7 347,-152.7 410,-152.7 410,-133.7 347,-133.7"/>
<polygon fill="none" stroke="#000000" points="347,-133.7 347,-152.7 410,-152.7 410,-133.7 347,-133.7"/>
<text text-anchor="start" x="400.8862" y="-139.8" font-family="Helvetica,sans-Serif" font-size="11.00" fill="#000000"> &#160;</text>
<polygon fill="#ffffff" stroke="transparent" points="410,-133.7 410,-152.7 477,-152.7 477,-133.7 410,-133.7"/>
<polygon fill="none" stroke="#000000" points="410,-133.7 410,-152.7 477,-152.7 477,-133.7 410,-133.7"/>
<text text-anchor="start" x="458.4053" y="-139.8" font-family="Helvetica,sans-Serif" font-size="11.00" fill="#000000">4 &gt;</text>
<polygon fill="none" stroke="#000000" stroke-width="2" points="274,-132.7 274,-396.7 478,-396.7 478,-132.7 274,-132.7"/>
</a>
</g>
</g>
<!-- users -->
<g id="node2" class="node">
<title>users</title>
<g id="a_node2"><a xlink:href="../../tables/users.html" xlink:title="users" target="_top">
<polygon fill="#ffffff" stroke="transparent" points="8,-38.2 8,-253.2 224,-253.2 224,-38.2 8,-38.2"/>
<polygon fill="#f5f5f5" stroke="transparent" points="8,-229.7 8,-252.7 224,-252.7 224,-229.7 8,-229.7"/>
<polygon fill="none" stroke="#000000" points="8,-229.7 8,-252.7 224,-252.7 224,-229.7 8,-229.7"/>
<text text-anchor="start" x="13" y="-238.8" font-family="Helvetica,sans-Serif" font-weight="bold" font-size="11.00" fill="#000000">users</text>
<text text-anchor="start" x="189.0437" y="-237.8" font-family="Helvetica,sans-Serif" font-size="11.00" fill="#000000">[table]</text>
<polygon fill="none" stroke="#000000" points="8,-207.7 8,-229.7 224,-229.7 224,-207.7 8,-207.7"/>
<image xlink:href="../../images/primaryKeys.png" width="11px" height="12px" preserveAspectRatio="xMinYMin meet" x="13" y="-224.7"/>
<text text-anchor="start" x="28" y="-214.8" font-family="Helvetica,sans-Serif" font-size="11.00" fill="#000000">id</text>
<polygon fill="#ffffff" stroke="transparent" points="8,-185.7 8,-207.7 224,-207.7 224,-185.7 8,-185.7"/>
<polygon fill="none" stroke="#000000" points="8,-185.7 8,-207.7 224,-207.7 224,-185.7 8,-185.7"/>
<text text-anchor="start" x="28" y="-192.8" font-family="Helvetica,sans-Serif" font-size="11.00" fill="#000000">user_name</text>
<polygon fill="#ffffff" stroke="transparent" points="8,-163.7 8,-185.7 224,-185.7 224,-163.7 8,-163.7"/>
<polygon fill="none" stroke="#000000" points="8,-163.7 8,-185.7 224,-185.7 224,-163.7 8,-163.7"/>
<text text-anchor="start" x="28" y="-170.8" font-family="Helvetica,sans-Serif" font-size="11.00" fill="#000000">first_name</text>
<polygon fill="#ffffff" stroke="transparent" points="8,-141.7 8,-163.7 224,-163.7 224,-141.7 8,-141.7"/>
<polygon fill="none" stroke="#000000" points="8,-141.7 8,-163.7 224,-163.7 224,-141.7 8,-141.7"/>
<text text-anchor="start" x="28" y="-148.8" font-family="Helvetica,sans-Serif" font-size="11.00" fill="#000000">last_name</text>
<polygon fill="#ffffff" stroke="transparent" points="8,-119.7 8,-141.7 224,-141.7 224,-119.7 8,-119.7"/>
<polygon fill="none" stroke="#000000" points="8,-119.7 8,-141.7 224,-141.7 224,-119.7 8,-119.7"/>
<text text-anchor="start" x="28" y="-126.8" font-family="Helvetica,sans-Serif" font-size="11.00" fill="#000000">status</text>
<polygon fill="#c0c0c0" stroke="transparent" points="8,-97.7 8,-119.7 224,-119.7 224,-97.7 8,-97.7"/>
<polygon fill="none" stroke="#000000" points="8,-97.7 8,-119.7 224,-119.7 224,-97.7 8,-97.7"/>
<image xlink:href="../../images/foreignKeys.png" width="11px" height="12px" preserveAspectRatio="xMinYMin meet" x="13" y="-114.7"/>
<text text-anchor="start" x="28" y="-104.8" font-family="Helvetica,sans-Serif" font-size="11.00" fill="#000000">reports_to_id</text>
<polygon fill="#ffffff" stroke="transparent" points="8,-75.7 8,-97.7 224,-97.7 224,-75.7 8,-75.7"/>
<polygon fill="none" stroke="#000000" points="8,-75.7 8,-97.7 224,-97.7 224,-75.7 8,-75.7"/>
<text text-anchor="start" x="28" y="-82.8" font-family="Helvetica,sans-Serif" font-size="11.00" fill="#000000">is_group</text>
<polygon fill="none" stroke="#000000" points="8,-56.7 8,-75.7 224,-75.7 224,-56.7 8,-56.7"/>
<text text-anchor="start" x="11" y="-62.8" font-family="Helvetica,sans-Serif" font-size="11.00" fill="#000000">...</text>
<polygon fill="#ffffff" stroke="transparent" points="8,-37.7 8,-56.7 104,-56.7 104,-37.7 8,-37.7"/>
<polygon fill="none" stroke="#000000" points="8,-37.7 8,-56.7 104,-56.7 104,-37.7 8,-37.7"/>
<text text-anchor="start" x="11" y="-43.8" font-family="Helvetica,sans-Serif" font-size="11.00" fill="#000000">&lt; 2</text>
<polygon fill="#ffffff" stroke="transparent" points="104,-37.7 104,-56.7 153,-56.7 153,-37.7 104,-37.7"/>
<polygon fill="none" stroke="#000000" points="104,-37.7 104,-56.7 153,-56.7 153,-37.7 104,-37.7"/>
<text text-anchor="start" x="143.8862" y="-43.8" font-family="Helvetica,sans-Serif" font-size="11.00" fill="#000000"> &#160;</text>
<polygon fill="#ffffff" stroke="transparent" points="153,-37.7 153,-56.7 224,-56.7 224,-37.7 153,-37.7"/>
<polygon fill="none" stroke="#000000" points="153,-37.7 153,-56.7 224,-56.7 224,-37.7 153,-37.7"/>
<text text-anchor="start" x="193.1755" y="-43.8" font-family="Helvetica,sans-Serif" font-size="11.00" fill="#000000">214 &gt;</text>
</a>
</g>
</g>
<!-- securitygroups&#45;&gt;users -->
<g id="edge1" class="edge">
<title>securitygroups:w&#45;&gt;users:e</title>
<path fill="none" stroke="#000000" d="M260.9604,-189.7464C247.8775,-198.5584 245.0921,-218.7 224,-218.7"/>
<polygon fill="#000000" stroke="#000000" points="267.3129,-187.9156 275.997,-189.1592 271.1565,-186.8078 275,-185.7 275,-185.7 275,-185.7 271.1565,-186.8078 274.003,-182.2408 267.3129,-187.9156 267.3129,-187.9156"/>
<ellipse fill="none" stroke="#000000" cx="264.2381" cy="-188.8018" rx="3.2" ry="3.2"/>
</g>
<!-- securitygroups&#45;&gt;users -->
<g id="edge2" class="edge">
<title>securitygroups:w&#45;&gt;users:e</title>
<path fill="none" stroke="#000000" d="M260.9604,-247.6536C247.8775,-238.8416 245.0921,-218.7 224,-218.7"/>
<polygon fill="#000000" stroke="#000000" points="267.3129,-249.4844 274.003,-255.1592 271.1565,-250.5922 275,-251.7 275,-251.7 275,-251.7 271.1565,-250.5922 275.997,-248.2408 267.3129,-249.4844 267.3129,-249.4844"/>
<ellipse fill="none" stroke="#000000" cx="264.2381" cy="-248.5982" rx="3.2" ry="3.2"/>
</g>
<!-- securitygroups&#45;&gt;users -->
<g id="edge3" class="edge">
<title>securitygroups:w&#45;&gt;users:e</title>
<path fill="none" stroke="#000000" d="M261.2081,-269.0107C245.7137,-255.7102 251.3462,-218.7 224,-218.7"/>
<polygon fill="#000000" stroke="#000000" points="267.4258,-271.1247 273.8411,-277.1084 271.2129,-272.4124 275,-273.7 275,-273.7 275,-273.7 271.2129,-272.4124 276.1589,-270.2916 267.4258,-271.1247 267.4258,-271.1247"/>
<ellipse fill="none" stroke="#000000" cx="264.3961" cy="-270.0946" rx="3.2" ry="3.2"/>
</g>
<!-- securitygroups_acl_roles -->
<g id="node3" class="node">
<title>securitygroups_acl_roles</title>
<g id="a_node3"><a xlink:href="../../tables/securitygroups_acl_roles.html" xlink:title="securitygroups_acl_roles" target="_top">
<polygon fill="#ffffff" stroke="transparent" points="528,-547.2 528,-674.2 715,-674.2 715,-547.2 528,-547.2"/>
<polygon fill="#f5f5f5" stroke="transparent" points="528.5,-650.7 528.5,-673.7 715.5,-673.7 715.5,-650.7 528.5,-650.7"/>
<polygon fill="none" stroke="#000000" points="528.5,-650.7 528.5,-673.7 715.5,-673.7 715.5,-650.7 528.5,-650.7"/>
<text text-anchor="start" x="533.5" y="-659.8" font-family="Helvetica,sans-Serif" font-weight="bold" font-size="11.00" fill="#000000">securitygroups_acl_roles</text>
<text text-anchor="start" x="680.5437" y="-658.8" font-family="Helvetica,sans-Serif" font-size="11.00" fill="#000000">[table]</text>
<polygon fill="none" stroke="#000000" points="528.5,-628.7 528.5,-650.7 715.5,-650.7 715.5,-628.7 528.5,-628.7"/>
<image xlink:href="../../images/primaryKeys.png" width="11px" height="12px" preserveAspectRatio="xMinYMin meet" x="533.5" y="-645.7"/>
<text text-anchor="start" x="548.5" y="-635.8" font-family="Helvetica,sans-Serif" font-size="11.00" fill="#000000">id</text>
<polygon fill="none" stroke="#000000" points="528.5,-606.7 528.5,-628.7 715.5,-628.7 715.5,-606.7 528.5,-606.7"/>
<image xlink:href="../../images/foreignKeys.png" width="11px" height="12px" preserveAspectRatio="xMinYMin meet" x="533.5" y="-623.7"/>
<text text-anchor="start" x="548.5" y="-613.8" font-family="Helvetica,sans-Serif" font-size="11.00" fill="#000000">securitygroup_id</text>
<polygon fill="none" stroke="#000000" points="528.5,-584.7 528.5,-606.7 715.5,-606.7 715.5,-584.7 528.5,-584.7"/>
<image xlink:href="../../images/foreignKeys.png" width="11px" height="12px" preserveAspectRatio="xMinYMin meet" x="533.5" y="-601.7"/>
<text text-anchor="start" x="548.5" y="-591.8" font-family="Helvetica,sans-Serif" font-size="11.00" fill="#000000">role_id</text>
<polygon fill="none" stroke="#000000" points="528.5,-565.7 528.5,-584.7 715.5,-584.7 715.5,-565.7 528.5,-565.7"/>
<text text-anchor="start" x="531.5" y="-571.8" font-family="Helvetica,sans-Serif" font-size="11.00" fill="#000000">...</text>
<polygon fill="#ffffff" stroke="transparent" points="528.5,-546.7 528.5,-565.7 620.5,-565.7 620.5,-546.7 528.5,-546.7"/>
<polygon fill="none" stroke="#000000" points="528.5,-546.7 528.5,-565.7 620.5,-565.7 620.5,-546.7 528.5,-546.7"/>
<text text-anchor="start" x="531.5" y="-552.8" font-family="Helvetica,sans-Serif" font-size="11.00" fill="#000000">&lt; 2</text>
<polygon fill="#ffffff" stroke="transparent" points="620.5,-546.7 620.5,-565.7 667.5,-565.7 667.5,-546.7 620.5,-546.7"/>
<polygon fill="none" stroke="#000000" points="620.5,-546.7 620.5,-565.7 667.5,-565.7 667.5,-546.7 620.5,-546.7"/>
<text text-anchor="start" x="658.3862" y="-552.8" font-family="Helvetica,sans-Serif" font-size="11.00" fill="#000000"> &#160;</text>
<polygon fill="#ffffff" stroke="transparent" points="667.5,-546.7 667.5,-565.7 715.5,-565.7 715.5,-546.7 667.5,-546.7"/>
<polygon fill="none" stroke="#000000" points="667.5,-546.7 667.5,-565.7 715.5,-565.7 715.5,-546.7 667.5,-546.7"/>
<text text-anchor="start" x="706.3862" y="-552.8" font-family="Helvetica,sans-Serif" font-size="11.00" fill="#000000"> &#160;</text>
</a>
</g>
</g>
<!-- securitygroups_acl_roles&#45;&gt;securitygroups -->
<g id="edge4" class="edge">
<title>securitygroups_acl_roles:w&#45;&gt;securitygroups:e</title>
<path fill="none" stroke="#000000" d="M514.0739,-616.0652C428.7235,-594.2625 587.6171,-361.7 477,-361.7"/>
<polygon fill="#000000" stroke="#000000" points="520.5509,-616.7992 528.0946,-621.2771 524.5254,-617.2496 528.5,-617.7 528.5,-617.7 528.5,-617.7 524.5254,-617.2496 528.9054,-614.1229 520.5509,-616.7992 520.5509,-616.7992"/>
<ellipse fill="none" stroke="#000000" cx="517.3712" cy="-616.4388" rx="3.2" ry="3.2"/>
</g>
<!-- securitygroups_audit -->
<g id="node4" class="node">
<title>securitygroups_audit</title>
<g id="a_node4"><a xlink:href="../../tables/securitygroups_audit.html" xlink:title="securitygroups_audit" target="_top">
<polygon fill="#ffffff" stroke="transparent" points="540,-421.2 540,-526.2 703,-526.2 703,-421.2 540,-421.2"/>
<polygon fill="#f5f5f5" stroke="transparent" points="540.5,-502.7 540.5,-525.7 703.5,-525.7 703.5,-502.7 540.5,-502.7"/>
<polygon fill="none" stroke="#000000" points="540.5,-502.7 540.5,-525.7 703.5,-525.7 703.5,-502.7 540.5,-502.7"/>
<text text-anchor="start" x="545.5" y="-511.8" font-family="Helvetica,sans-Serif" font-weight="bold" font-size="11.00" fill="#000000">securitygroups_audit</text>
<text text-anchor="start" x="668.5437" y="-510.8" font-family="Helvetica,sans-Serif" font-size="11.00" fill="#000000">[table]</text>
<polygon fill="none" stroke="#000000" points="540.5,-480.7 540.5,-502.7 703.5,-502.7 703.5,-480.7 540.5,-480.7"/>
<image xlink:href="../../images/primaryKeys.png" width="11px" height="12px" preserveAspectRatio="xMinYMin meet" x="545.5" y="-497.7"/>
<text text-anchor="start" x="560.5" y="-487.8" font-family="Helvetica,sans-Serif" font-size="11.00" fill="#000000">id</text>
<polygon fill="#c0c0c0" stroke="transparent" points="540.5,-458.7 540.5,-480.7 703.5,-480.7 703.5,-458.7 540.5,-458.7"/>
<polygon fill="none" stroke="#000000" points="540.5,-458.7 540.5,-480.7 703.5,-480.7 703.5,-458.7 540.5,-458.7"/>
<image xlink:href="../../images/foreignKeys.png" width="11px" height="12px" preserveAspectRatio="xMinYMin meet" x="545.5" y="-475.7"/>
<text text-anchor="start" x="560.5" y="-465.8" font-family="Helvetica,sans-Serif" font-size="11.00" fill="#000000">parent_id</text>
<polygon fill="none" stroke="#000000" points="540.5,-439.7 540.5,-458.7 703.5,-458.7 703.5,-439.7 540.5,-439.7"/>
<text text-anchor="start" x="543.5" y="-445.8" font-family="Helvetica,sans-Serif" font-size="11.00" fill="#000000">...</text>
<polygon fill="#ffffff" stroke="transparent" points="540.5,-420.7 540.5,-439.7 620.5,-439.7 620.5,-420.7 540.5,-420.7"/>
<polygon fill="none" stroke="#000000" points="540.5,-420.7 540.5,-439.7 620.5,-439.7 620.5,-420.7 540.5,-420.7"/>
<text text-anchor="start" x="543.5" y="-426.8" font-family="Helvetica,sans-Serif" font-size="11.00" fill="#000000">&lt; 1</text>
<polygon fill="#ffffff" stroke="transparent" points="620.5,-420.7 620.5,-439.7 661.5,-439.7 661.5,-420.7 620.5,-420.7"/>
<polygon fill="none" stroke="#000000" points="620.5,-420.7 620.5,-439.7 661.5,-439.7 661.5,-420.7 620.5,-420.7"/>
<text text-anchor="start" x="652.3862" y="-426.8" font-family="Helvetica,sans-Serif" font-size="11.00" fill="#000000"> &#160;</text>
<polygon fill="#ffffff" stroke="transparent" points="661.5,-420.7 661.5,-439.7 703.5,-439.7 703.5,-420.7 661.5,-420.7"/>
<polygon fill="none" stroke="#000000" points="661.5,-420.7 661.5,-439.7 703.5,-439.7 703.5,-420.7 661.5,-420.7"/>
<text text-anchor="start" x="694.3862" y="-426.8" font-family="Helvetica,sans-Serif" font-size="11.00" fill="#000000"> &#160;</text>
</a>
</g>
</g>
<!-- securitygroups_audit&#45;&gt;securitygroups -->
<g id="edge5" class="edge">
<title>securitygroups_audit:w&#45;&gt;securitygroups:e</title>
<path fill="none" stroke="#000000" d="M526.0943,-466.3493C493.7625,-448.1201 526.8094,-361.7 477,-361.7"/>
<polygon fill="#000000" stroke="#000000" points="532.708,-467.8876 539.6844,-473.2064 536.604,-468.7938 540.5,-469.7 540.5,-469.7 540.5,-469.7 536.604,-468.7938 541.3156,-466.1936 532.708,-467.8876 532.708,-467.8876"/>
<ellipse fill="none" stroke="#000000" cx="529.5912" cy="-467.1626" rx="3.2" ry="3.2"/>
</g>
<!-- securitygroups_records -->
<g id="node5" class="node">
<title>securitygroups_records</title>
<g id="a_node5"><a xlink:href="../../tables/securitygroups_records.html" xlink:title="securitygroups_records" target="_top">
<polygon fill="#ffffff" stroke="transparent" points="532,-229.2 532,-400.2 711,-400.2 711,-229.2 532,-229.2"/>
<polygon fill="#f5f5f5" stroke="transparent" points="532.5,-376.7 532.5,-399.7 711.5,-399.7 711.5,-376.7 532.5,-376.7"/>
<polygon fill="none" stroke="#000000" points="532.5,-376.7 532.5,-399.7 711.5,-399.7 711.5,-376.7 532.5,-376.7"/>
<text text-anchor="start" x="537.5" y="-385.8" font-family="Helvetica,sans-Serif" font-weight="bold" font-size="11.00" fill="#000000">securitygroups_records</text>
<text text-anchor="start" x="676.5437" y="-384.8" font-family="Helvetica,sans-Serif" font-size="11.00" fill="#000000">[table]</text>
<polygon fill="none" stroke="#000000" points="532.5,-354.7 532.5,-376.7 711.5,-376.7 711.5,-354.7 532.5,-354.7"/>
<image xlink:href="../../images/primaryKeys.png" width="11px" height="12px" preserveAspectRatio="xMinYMin meet" x="537.5" y="-371.7"/>
<text text-anchor="start" x="552.5" y="-361.8" font-family="Helvetica,sans-Serif" font-size="11.00" fill="#000000">id</text>
<polygon fill="#ffffff" stroke="transparent" points="532.5,-332.7 532.5,-354.7 711.5,-354.7 711.5,-332.7 532.5,-332.7"/>
<polygon fill="none" stroke="#000000" points="532.5,-332.7 532.5,-354.7 711.5,-354.7 711.5,-332.7 532.5,-332.7"/>
<image xlink:href="../../images/foreignKeys.png" width="11px" height="12px" preserveAspectRatio="xMinYMin meet" x="537.5" y="-349.7"/>
<text text-anchor="start" x="552.5" y="-339.8" font-family="Helvetica,sans-Serif" font-size="11.00" fill="#000000">securitygroup_id</text>
<polygon fill="#ffffff" stroke="transparent" points="532.5,-310.7 532.5,-332.7 711.5,-332.7 711.5,-310.7 532.5,-310.7"/>
<polygon fill="none" stroke="#000000" points="532.5,-310.7 532.5,-332.7 711.5,-332.7 711.5,-310.7 532.5,-310.7"/>
<image xlink:href="../../images/foreignKeys.png" width="11px" height="12px" preserveAspectRatio="xMinYMin meet" x="537.5" y="-327.7"/>
<text text-anchor="start" x="552.5" y="-317.8" font-family="Helvetica,sans-Serif" font-size="11.00" fill="#000000">record_id</text>
<polygon fill="#ffffff" stroke="transparent" points="532.5,-288.7 532.5,-310.7 711.5,-310.7 711.5,-288.7 532.5,-288.7"/>
<polygon fill="none" stroke="#000000" points="532.5,-288.7 532.5,-310.7 711.5,-310.7 711.5,-288.7 532.5,-288.7"/>
<text text-anchor="start" x="552.5" y="-295.8" font-family="Helvetica,sans-Serif" font-size="11.00" fill="#000000">module</text>
<polygon fill="#ffffff" stroke="transparent" points="532.5,-266.7 532.5,-288.7 711.5,-288.7 711.5,-266.7 532.5,-266.7"/>
<polygon fill="none" stroke="#000000" points="532.5,-266.7 532.5,-288.7 711.5,-288.7 711.5,-266.7 532.5,-266.7"/>
<text text-anchor="start" x="552.5" y="-273.8" font-family="Helvetica,sans-Serif" font-size="11.00" fill="#000000">deleted</text>
<polygon fill="none" stroke="#000000" points="532.5,-247.7 532.5,-266.7 711.5,-266.7 711.5,-247.7 532.5,-247.7"/>
<text text-anchor="start" x="535.5" y="-253.8" font-family="Helvetica,sans-Serif" font-size="11.00" fill="#000000">...</text>
<polygon fill="#ffffff" stroke="transparent" points="532.5,-228.7 532.5,-247.7 623.5,-247.7 623.5,-228.7 532.5,-228.7"/>
<polygon fill="none" stroke="#000000" points="532.5,-228.7 532.5,-247.7 623.5,-247.7 623.5,-228.7 532.5,-228.7"/>
<text text-anchor="start" x="535.5" y="-234.8" font-family="Helvetica,sans-Serif" font-size="11.00" fill="#000000">&lt; 41</text>
<polygon fill="#ffffff" stroke="transparent" points="623.5,-228.7 623.5,-247.7 667.5,-247.7 667.5,-228.7 623.5,-228.7"/>
<polygon fill="none" stroke="#000000" points="623.5,-228.7 623.5,-247.7 667.5,-247.7 667.5,-228.7 623.5,-228.7"/>
<text text-anchor="start" x="658.3862" y="-234.8" font-family="Helvetica,sans-Serif" font-size="11.00" fill="#000000"> &#160;</text>
<polygon fill="#ffffff" stroke="transparent" points="667.5,-228.7 667.5,-247.7 711.5,-247.7 711.5,-228.7 667.5,-228.7"/>
<polygon fill="none" stroke="#000000" points="667.5,-228.7 667.5,-247.7 711.5,-247.7 711.5,-228.7 667.5,-228.7"/>
<text text-anchor="start" x="702.3862" y="-234.8" font-family="Helvetica,sans-Serif" font-size="11.00" fill="#000000"> &#160;</text>
</a>
</g>
</g>
<!-- securitygroups_records&#45;&gt;securitygroups -->
<g id="edge6" class="edge">
<title>securitygroups_records:w&#45;&gt;securitygroups:e</title>
<path fill="none" stroke="#000000" d="M518.2162,-345.9072C503.9105,-350.7137 497.259,-361.7 477,-361.7"/>
<polygon fill="#000000" stroke="#000000" points="524.5938,-344.9217 533.0498,-347.2578 528.5469,-344.3109 532.5,-343.7 532.5,-343.7 532.5,-343.7 528.5469,-344.3109 531.9502,-340.1422 524.5938,-344.9217 524.5938,-344.9217"/>
<ellipse fill="none" stroke="#000000" cx="521.4314" cy="-345.4104" rx="3.2" ry="3.2"/>
</g>
<!-- securitygroups_users -->
<g id="node6" class="node">
<title>securitygroups_users</title>
<g id="a_node6"><a xlink:href="../../tables/securitygroups_users.html" xlink:title="securitygroups_users" target="_top">
<polygon fill="#ffffff" stroke="transparent" points="539,-59.2 539,-208.2 704,-208.2 704,-59.2 539,-59.2"/>
<polygon fill="#f5f5f5" stroke="transparent" points="539.5,-184.7 539.5,-207.7 704.5,-207.7 704.5,-184.7 539.5,-184.7"/>
<polygon fill="none" stroke="#000000" points="539.5,-184.7 539.5,-207.7 704.5,-207.7 704.5,-184.7 539.5,-184.7"/>
<text text-anchor="start" x="544.5" y="-193.8" font-family="Helvetica,sans-Serif" font-weight="bold" font-size="11.00" fill="#000000">securitygroups_users</text>
<text text-anchor="start" x="669.5437" y="-192.8" font-family="Helvetica,sans-Serif" font-size="11.00" fill="#000000">[table]</text>
<polygon fill="none" stroke="#000000" points="539.5,-162.7 539.5,-184.7 704.5,-184.7 704.5,-162.7 539.5,-162.7"/>
<image xlink:href="../../images/primaryKeys.png" width="11px" height="12px" preserveAspectRatio="xMinYMin meet" x="544.5" y="-179.7"/>
<text text-anchor="start" x="559.5" y="-169.8" font-family="Helvetica,sans-Serif" font-size="11.00" fill="#000000">id</text>
<polygon fill="#ffffff" stroke="transparent" points="539.5,-140.7 539.5,-162.7 704.5,-162.7 704.5,-140.7 539.5,-140.7"/>
<polygon fill="none" stroke="#000000" points="539.5,-140.7 539.5,-162.7 704.5,-162.7 704.5,-140.7 539.5,-140.7"/>
<text text-anchor="start" x="559.5" y="-147.8" font-family="Helvetica,sans-Serif" font-size="11.00" fill="#000000">deleted</text>
<polygon fill="#ffffff" stroke="transparent" points="539.5,-118.7 539.5,-140.7 704.5,-140.7 704.5,-118.7 539.5,-118.7"/>
<polygon fill="none" stroke="#000000" points="539.5,-118.7 539.5,-140.7 704.5,-140.7 704.5,-118.7 539.5,-118.7"/>
<image xlink:href="../../images/foreignKeys.png" width="11px" height="12px" preserveAspectRatio="xMinYMin meet" x="544.5" y="-135.7"/>
<text text-anchor="start" x="559.5" y="-125.8" font-family="Helvetica,sans-Serif" font-size="11.00" fill="#000000">securitygroup_id</text>
<polygon fill="#ffffff" stroke="transparent" points="539.5,-96.7 539.5,-118.7 704.5,-118.7 704.5,-96.7 539.5,-96.7"/>
<polygon fill="none" stroke="#000000" points="539.5,-96.7 539.5,-118.7 704.5,-118.7 704.5,-96.7 539.5,-96.7"/>
<image xlink:href="../../images/foreignKeys.png" width="11px" height="12px" preserveAspectRatio="xMinYMin meet" x="544.5" y="-113.7"/>
<text text-anchor="start" x="559.5" y="-103.8" font-family="Helvetica,sans-Serif" font-size="11.00" fill="#000000">user_id</text>
<polygon fill="none" stroke="#000000" points="539.5,-77.7 539.5,-96.7 704.5,-96.7 704.5,-77.7 539.5,-77.7"/>
<text text-anchor="start" x="542.5" y="-83.8" font-family="Helvetica,sans-Serif" font-size="11.00" fill="#000000">...</text>
<polygon fill="#ffffff" stroke="transparent" points="539.5,-58.7 539.5,-77.7 620.5,-77.7 620.5,-58.7 539.5,-58.7"/>
<polygon fill="none" stroke="#000000" points="539.5,-58.7 539.5,-77.7 620.5,-77.7 620.5,-58.7 539.5,-58.7"/>
<text text-anchor="start" x="542.5" y="-64.8" font-family="Helvetica,sans-Serif" font-size="11.00" fill="#000000">&lt; 2</text>
<polygon fill="#ffffff" stroke="transparent" points="620.5,-58.7 620.5,-77.7 662.5,-77.7 662.5,-58.7 620.5,-58.7"/>
<polygon fill="none" stroke="#000000" points="620.5,-58.7 620.5,-77.7 662.5,-77.7 662.5,-58.7 620.5,-58.7"/>
<text text-anchor="start" x="653.3862" y="-64.8" font-family="Helvetica,sans-Serif" font-size="11.00" fill="#000000"> &#160;</text>
<polygon fill="#ffffff" stroke="transparent" points="662.5,-58.7 662.5,-77.7 704.5,-77.7 704.5,-58.7 662.5,-58.7"/>
<polygon fill="none" stroke="#000000" points="662.5,-58.7 662.5,-77.7 704.5,-77.7 704.5,-58.7 662.5,-58.7"/>
<text text-anchor="start" x="695.3862" y="-64.8" font-family="Helvetica,sans-Serif" font-size="11.00" fill="#000000"> &#160;</text>
</a>
</g>
</g>
<!-- securitygroups_users&#45;&gt;securitygroups -->
<g id="edge7" class="edge">
<title>securitygroups_users:w&#45;&gt;securitygroups:e</title>
<path fill="none" stroke="#000000" d="M525.159,-131.434C447.3913,-152.6642 578.3644,-361.7 477,-361.7"/>
<polygon fill="#000000" stroke="#000000" points="531.5578,-130.6604 539.9322,-133.274 535.5289,-130.1802 539.5,-129.7 539.5,-129.7 539.5,-129.7 535.5289,-130.1802 539.0678,-126.126 531.5578,-130.6604 531.5578,-130.6604"/>
<ellipse fill="none" stroke="#000000" cx="528.381" cy="-131.0445" rx="3.2" ry="3.2"/>
</g>
<!-- securitygroups_users&#45;&gt;users -->
<g id="edge8" class="edge">
<title>securitygroups_users:w&#45;&gt;users:e</title>
<path fill="none" stroke="#000000" d="M524.8133,-107.4296C412.9725,-103.3125 360.9581,-54.5009 265,-121.7 226.662,-148.548 270.804,-218.7 224,-218.7"/>
<polygon fill="#000000" stroke="#000000" points="531.5014,-107.5527 539.4337,-111.2994 535.5007,-107.6263 539.5,-107.7 539.5,-107.7 539.5,-107.7 535.5007,-107.6263 539.5663,-104.1006 531.5014,-107.5527 531.5014,-107.5527"/>
<ellipse fill="none" stroke="#000000" cx="528.3019" cy="-107.4937" rx="3.2" ry="3.2"/>
</g>
</g>
</svg>
