<?xml version="1.0" encoding="UTF-8" standalone="no"?>
<!DOCTYPE svg PUBLIC "-//W3C//DTD SVG 1.1//EN"
 "http://www.w3.org/Graphics/SVG/1.1/DTD/svg11.dtd">
<!-- Generated by graphviz version 2.40.1 (20161225.0304)
 -->
<!-- Title: oneDegreeRelationshipsDiagram Pages: 1 -->
<svg width="708pt" height="329pt"
 viewBox="0.00 0.00 708.00 328.70" xmlns="http://www.w3.org/2000/svg" xmlns:xlink="http://www.w3.org/1999/xlink">
<g id="graph0" class="graph" transform="scale(1 1) rotate(0) translate(4 324.7)">
<title>oneDegreeRelationshipsDiagram</title>
<polygon fill="#ffffff" stroke="transparent" points="-4,4 -4,-324.7 704,-324.7 704,4 -4,4"/>
<text text-anchor="middle" x="72.4936" y="-7.3" font-family="Helvetica,sans-Serif" font-size="11.00" fill="#000000">Generated by SchemaSpy</text>
<!-- securitygroups -->
<g id="node1" class="node">
<title>securitygroups</title>
<g id="a_node1"><a xlink:href="../../tables/securitygroups.html" xlink:title="securitygroups" target="_top">
<polygon fill="#ffffff" stroke="transparent" points="273,-159.2 273,-308.2 408,-308.2 408,-159.2 273,-159.2"/>
<polygon fill="#f5f5f5" stroke="transparent" points="273.5,-284.7 273.5,-307.7 408.5,-307.7 408.5,-284.7 273.5,-284.7"/>
<polygon fill="none" stroke="#000000" points="273.5,-284.7 273.5,-307.7 408.5,-307.7 408.5,-284.7 273.5,-284.7"/>
<text text-anchor="start" x="278.5" y="-293.8" font-family="Helvetica,sans-Serif" font-weight="bold" font-size="11.00" fill="#000000">securitygroups</text>
<text text-anchor="start" x="373.5437" y="-292.8" font-family="Helvetica,sans-Serif" font-size="11.00" fill="#000000">[table]</text>
<polygon fill="none" stroke="#000000" points="273.5,-262.7 273.5,-284.7 408.5,-284.7 408.5,-262.7 273.5,-262.7"/>
<image xlink:href="../../images/primaryKeys.png" width="11px" height="12px" preserveAspectRatio="xMinYMin meet" x="278.5" y="-279.7"/>
<text text-anchor="start" x="293.5" y="-269.8" font-family="Helvetica,sans-Serif" font-size="11.00" fill="#000000">id</text>
<polygon fill="#c0c0c0" stroke="transparent" points="273.5,-240.7 273.5,-262.7 408.5,-262.7 408.5,-240.7 273.5,-240.7"/>
<polygon fill="none" stroke="#000000" points="273.5,-240.7 273.5,-262.7 408.5,-262.7 408.5,-240.7 273.5,-240.7"/>
<image xlink:href="../../images/foreignKeys.png" width="11px" height="12px" preserveAspectRatio="xMinYMin meet" x="278.5" y="-257.7"/>
<text text-anchor="start" x="293.5" y="-247.8" font-family="Helvetica,sans-Serif" font-size="11.00" fill="#000000">modified_user_id</text>
<polygon fill="#c0c0c0" stroke="transparent" points="273.5,-218.7 273.5,-240.7 408.5,-240.7 408.5,-218.7 273.5,-218.7"/>
<polygon fill="none" stroke="#000000" points="273.5,-218.7 273.5,-240.7 408.5,-240.7 408.5,-218.7 273.5,-218.7"/>
<image xlink:href="../../images/foreignKeys.png" width="11px" height="12px" preserveAspectRatio="xMinYMin meet" x="278.5" y="-235.7"/>
<text text-anchor="start" x="293.5" y="-225.8" font-family="Helvetica,sans-Serif" font-size="11.00" fill="#000000">created_by</text>
<polygon fill="#c0c0c0" stroke="transparent" points="273.5,-196.7 273.5,-218.7 408.5,-218.7 408.5,-196.7 273.5,-196.7"/>
<polygon fill="none" stroke="#000000" points="273.5,-196.7 273.5,-218.7 408.5,-218.7 408.5,-196.7 273.5,-196.7"/>
<image xlink:href="../../images/foreignKeys.png" width="11px" height="12px" preserveAspectRatio="xMinYMin meet" x="278.5" y="-213.7"/>
<text text-anchor="start" x="293.5" y="-203.8" font-family="Helvetica,sans-Serif" font-size="11.00" fill="#000000">assigned_user_id</text>
<polygon fill="none" stroke="#000000" points="273.5,-177.7 273.5,-196.7 408.5,-196.7 408.5,-177.7 273.5,-177.7"/>
<text text-anchor="start" x="276.5" y="-183.8" font-family="Helvetica,sans-Serif" font-size="11.00" fill="#000000">...</text>
<polygon fill="#ffffff" stroke="transparent" points="273.5,-158.7 273.5,-177.7 334.5,-177.7 334.5,-158.7 273.5,-158.7"/>
<polygon fill="none" stroke="#000000" points="273.5,-158.7 273.5,-177.7 334.5,-177.7 334.5,-158.7 273.5,-158.7"/>
<text text-anchor="start" x="276.5" y="-164.8" font-family="Helvetica,sans-Serif" font-size="11.00" fill="#000000">&lt; 3</text>
<polygon fill="#ffffff" stroke="transparent" points="334.5,-158.7 334.5,-177.7 366.5,-177.7 366.5,-158.7 334.5,-158.7"/>
<polygon fill="none" stroke="#000000" points="334.5,-158.7 334.5,-177.7 366.5,-177.7 366.5,-158.7 334.5,-158.7"/>
<text text-anchor="start" x="357.3862" y="-164.8" font-family="Helvetica,sans-Serif" font-size="11.00" fill="#000000"> &#160;</text>
<polygon fill="#ffffff" stroke="transparent" points="366.5,-158.7 366.5,-177.7 408.5,-177.7 408.5,-158.7 366.5,-158.7"/>
<polygon fill="none" stroke="#000000" points="366.5,-158.7 366.5,-177.7 408.5,-177.7 408.5,-158.7 366.5,-158.7"/>
<text text-anchor="start" x="389.9053" y="-164.8" font-family="Helvetica,sans-Serif" font-size="11.00" fill="#000000">4 &gt;</text>
</a>
</g>
</g>
<!-- users -->
<g id="node2" class="node">
<title>users</title>
<g id="a_node2"><a xlink:href="../../tables/users.html" xlink:title="users" target="_top">
<polygon fill="#ffffff" stroke="transparent" points="8,-38.2 8,-253.2 224,-253.2 224,-38.2 8,-38.2"/>
<polygon fill="#f5f5f5" stroke="transparent" points="8,-229.7 8,-252.7 224,-252.7 224,-229.7 8,-229.7"/>
<polygon fill="none" stroke="#000000" points="8,-229.7 8,-252.7 224,-252.7 224,-229.7 8,-229.7"/>
<text text-anchor="start" x="13" y="-238.8" font-family="Helvetica,sans-Serif" font-weight="bold" font-size="11.00" fill="#000000">users</text>
<text text-anchor="start" x="189.0437" y="-237.8" font-family="Helvetica,sans-Serif" font-size="11.00" fill="#000000">[table]</text>
<polygon fill="none" stroke="#000000" points="8,-207.7 8,-229.7 224,-229.7 224,-207.7 8,-207.7"/>
<image xlink:href="../../images/primaryKeys.png" width="11px" height="12px" preserveAspectRatio="xMinYMin meet" x="13" y="-224.7"/>
<text text-anchor="start" x="28" y="-214.8" font-family="Helvetica,sans-Serif" font-size="11.00" fill="#000000">id</text>
<polygon fill="#ffffff" stroke="transparent" points="8,-185.7 8,-207.7 224,-207.7 224,-185.7 8,-185.7"/>
<polygon fill="none" stroke="#000000" points="8,-185.7 8,-207.7 224,-207.7 224,-185.7 8,-185.7"/>
<text text-anchor="start" x="28" y="-192.8" font-family="Helvetica,sans-Serif" font-size="11.00" fill="#000000">user_name</text>
<polygon fill="#ffffff" stroke="transparent" points="8,-163.7 8,-185.7 224,-185.7 224,-163.7 8,-163.7"/>
<polygon fill="none" stroke="#000000" points="8,-163.7 8,-185.7 224,-185.7 224,-163.7 8,-163.7"/>
<text text-anchor="start" x="28" y="-170.8" font-family="Helvetica,sans-Serif" font-size="11.00" fill="#000000">first_name</text>
<polygon fill="#ffffff" stroke="transparent" points="8,-141.7 8,-163.7 224,-163.7 224,-141.7 8,-141.7"/>
<polygon fill="none" stroke="#000000" points="8,-141.7 8,-163.7 224,-163.7 224,-141.7 8,-141.7"/>
<text text-anchor="start" x="28" y="-148.8" font-family="Helvetica,sans-Serif" font-size="11.00" fill="#000000">last_name</text>
<polygon fill="#ffffff" stroke="transparent" points="8,-119.7 8,-141.7 224,-141.7 224,-119.7 8,-119.7"/>
<polygon fill="none" stroke="#000000" points="8,-119.7 8,-141.7 224,-141.7 224,-119.7 8,-119.7"/>
<text text-anchor="start" x="28" y="-126.8" font-family="Helvetica,sans-Serif" font-size="11.00" fill="#000000">status</text>
<polygon fill="#c0c0c0" stroke="transparent" points="8,-97.7 8,-119.7 224,-119.7 224,-97.7 8,-97.7"/>
<polygon fill="none" stroke="#000000" points="8,-97.7 8,-119.7 224,-119.7 224,-97.7 8,-97.7"/>
<image xlink:href="../../images/foreignKeys.png" width="11px" height="12px" preserveAspectRatio="xMinYMin meet" x="13" y="-114.7"/>
<text text-anchor="start" x="28" y="-104.8" font-family="Helvetica,sans-Serif" font-size="11.00" fill="#000000">reports_to_id</text>
<polygon fill="#ffffff" stroke="transparent" points="8,-75.7 8,-97.7 224,-97.7 224,-75.7 8,-75.7"/>
<polygon fill="none" stroke="#000000" points="8,-75.7 8,-97.7 224,-97.7 224,-75.7 8,-75.7"/>
<text text-anchor="start" x="28" y="-82.8" font-family="Helvetica,sans-Serif" font-size="11.00" fill="#000000">is_group</text>
<polygon fill="none" stroke="#000000" points="8,-56.7 8,-75.7 224,-75.7 224,-56.7 8,-56.7"/>
<text text-anchor="start" x="11" y="-62.8" font-family="Helvetica,sans-Serif" font-size="11.00" fill="#000000">...</text>
<polygon fill="#ffffff" stroke="transparent" points="8,-37.7 8,-56.7 104,-56.7 104,-37.7 8,-37.7"/>
<polygon fill="none" stroke="#000000" points="8,-37.7 8,-56.7 104,-56.7 104,-37.7 8,-37.7"/>
<text text-anchor="start" x="11" y="-43.8" font-family="Helvetica,sans-Serif" font-size="11.00" fill="#000000">&lt; 2</text>
<polygon fill="#ffffff" stroke="transparent" points="104,-37.7 104,-56.7 153,-56.7 153,-37.7 104,-37.7"/>
<polygon fill="none" stroke="#000000" points="104,-37.7 104,-56.7 153,-56.7 153,-37.7 104,-37.7"/>
<text text-anchor="start" x="143.8862" y="-43.8" font-family="Helvetica,sans-Serif" font-size="11.00" fill="#000000"> &#160;</text>
<polygon fill="#ffffff" stroke="transparent" points="153,-37.7 153,-56.7 224,-56.7 224,-37.7 153,-37.7"/>
<polygon fill="none" stroke="#000000" points="153,-37.7 153,-56.7 224,-56.7 224,-37.7 153,-37.7"/>
<text text-anchor="start" x="193.1755" y="-43.8" font-family="Helvetica,sans-Serif" font-size="11.00" fill="#000000">214 &gt;</text>
</a>
</g>
</g>
<!-- securitygroups&#45;&gt;users -->
<g id="edge1" class="edge">
<title>securitygroups:w&#45;&gt;users:e</title>
<path fill="none" stroke="#000000" d="M259.0598,-209.5164C247.4771,-212.6407 240.7264,-218.7 224,-218.7"/>
<polygon fill="#000000" stroke="#000000" points="265.5626,-208.6985 273.9493,-211.2719 269.5313,-208.1992 273.5,-207.7 273.5,-207.7 273.5,-207.7 269.5313,-208.1992 273.0507,-204.1281 265.5626,-208.6985 265.5626,-208.6985"/>
<ellipse fill="none" stroke="#000000" cx="262.3876" cy="-209.0979" rx="3.2" ry="3.2"/>
</g>
<!-- securitygroups&#45;&gt;users -->
<g id="edge2" class="edge">
<title>securitygroups:w&#45;&gt;users:e</title>
<path fill="none" stroke="#000000" d="M259.0598,-227.8836C247.4771,-224.7593 240.7264,-218.7 224,-218.7"/>
<polygon fill="#000000" stroke="#000000" points="265.5626,-228.7015 273.0507,-233.2719 269.5313,-229.2008 273.5,-229.7 273.5,-229.7 273.5,-229.7 269.5313,-229.2008 273.9493,-226.1281 265.5626,-228.7015 265.5626,-228.7015"/>
<ellipse fill="none" stroke="#000000" cx="262.3876" cy="-228.3021" rx="3.2" ry="3.2"/>
</g>
<!-- securitygroups&#45;&gt;users -->
<g id="edge3" class="edge">
<title>securitygroups:w&#45;&gt;users:e</title>
<path fill="none" stroke="#000000" d="M259.4273,-247.3858C247.0607,-238.4408 244.4502,-218.7 224,-218.7"/>
<polygon fill="#000000" stroke="#000000" points="265.8513,-249.3552 272.4448,-255.1419 269.6757,-250.5276 273.5,-251.7 273.5,-251.7 273.5,-251.7 269.6757,-250.5276 274.5552,-248.2581 265.8513,-249.3552 265.8513,-249.3552"/>
<ellipse fill="none" stroke="#000000" cx="262.7919" cy="-248.4172" rx="3.2" ry="3.2"/>
</g>
<!-- securitygroups_users -->
<g id="node3" class="node">
<title>securitygroups_users</title>
<g id="a_node3"><a xlink:href="../../tables/securitygroups_users.html" xlink:title="securitygroups_users" target="_top">
<polygon fill="#ffffff" stroke="transparent" points="457,-116.7 457,-316.7 692,-316.7 692,-116.7 457,-116.7"/>
<polygon fill="#f5f5f5" stroke="transparent" points="459.5,-291.7 459.5,-314.7 690.5,-314.7 690.5,-291.7 459.5,-291.7"/>
<polygon fill="none" stroke="#000000" points="459.5,-291.7 459.5,-314.7 690.5,-314.7 690.5,-291.7 459.5,-291.7"/>
<text text-anchor="start" x="464.5" y="-300.8" font-family="Helvetica,sans-Serif" font-weight="bold" font-size="11.00" fill="#000000">securitygroups_users</text>
<text text-anchor="start" x="655.5437" y="-299.8" font-family="Helvetica,sans-Serif" font-size="11.00" fill="#000000">[table]</text>
<polygon fill="none" stroke="#000000" points="459.5,-269.7 459.5,-291.7 624.5,-291.7 624.5,-269.7 459.5,-269.7"/>
<image xlink:href="../../images/primaryKeys.png" width="11px" height="12px" preserveAspectRatio="xMinYMin meet" x="464.5" y="-286.7"/>
<text text-anchor="start" x="479.5" y="-276.8" font-family="Helvetica,sans-Serif" font-size="11.00" fill="#000000">id</text>
<polygon fill="none" stroke="#000000" points="624.5,-269.7 624.5,-291.7 690.5,-291.7 690.5,-269.7 624.5,-269.7"/>
<text text-anchor="start" x="627.5" y="-277.4" font-family="Helvetica,sans-Serif" font-size="11.00" fill="#000000">varchar[36]</text>
<polygon fill="none" stroke="#000000" points="459.5,-247.7 459.5,-269.7 624.5,-269.7 624.5,-247.7 459.5,-247.7"/>
<text text-anchor="start" x="479.5" y="-254.8" font-family="Helvetica,sans-Serif" font-size="11.00" fill="#000000">date_modified</text>
<polygon fill="none" stroke="#000000" points="624.5,-247.7 624.5,-269.7 690.5,-269.7 690.5,-247.7 624.5,-247.7"/>
<text text-anchor="start" x="627.2401" y="-255.4" font-family="Helvetica,sans-Serif" font-size="11.00" fill="#000000">datetime[26]</text>
<polygon fill="#ffffff" stroke="transparent" points="459.5,-225.7 459.5,-247.7 624.5,-247.7 624.5,-225.7 459.5,-225.7"/>
<polygon fill="none" stroke="#000000" points="459.5,-225.7 459.5,-247.7 624.5,-247.7 624.5,-225.7 459.5,-225.7"/>
<text text-anchor="start" x="479.5" y="-232.8" font-family="Helvetica,sans-Serif" font-size="11.00" fill="#000000">deleted</text>
<polygon fill="none" stroke="#000000" points="624.5,-225.7 624.5,-247.7 690.5,-247.7 690.5,-225.7 624.5,-225.7"/>
<text text-anchor="start" x="627.5" y="-233.4" font-family="Helvetica,sans-Serif" font-size="11.00" fill="#000000">bit[1]</text>
<polygon fill="#ffffff" stroke="transparent" points="459.5,-203.7 459.5,-225.7 624.5,-225.7 624.5,-203.7 459.5,-203.7"/>
<polygon fill="none" stroke="#000000" points="459.5,-203.7 459.5,-225.7 624.5,-225.7 624.5,-203.7 459.5,-203.7"/>
<image xlink:href="../../images/foreignKeys.png" width="11px" height="12px" preserveAspectRatio="xMinYMin meet" x="464.5" y="-220.7"/>
<text text-anchor="start" x="479.5" y="-210.8" font-family="Helvetica,sans-Serif" font-size="11.00" fill="#000000">securitygroup_id</text>
<polygon fill="none" stroke="#000000" points="624.5,-203.7 624.5,-225.7 690.5,-225.7 690.5,-203.7 624.5,-203.7"/>
<text text-anchor="start" x="627.5" y="-211.4" font-family="Helvetica,sans-Serif" font-size="11.00" fill="#000000">varchar[36]</text>
<polygon fill="#ffffff" stroke="transparent" points="459.5,-181.7 459.5,-203.7 624.5,-203.7 624.5,-181.7 459.5,-181.7"/>
<polygon fill="none" stroke="#000000" points="459.5,-181.7 459.5,-203.7 624.5,-203.7 624.5,-181.7 459.5,-181.7"/>
<image xlink:href="../../images/foreignKeys.png" width="11px" height="12px" preserveAspectRatio="xMinYMin meet" x="464.5" y="-198.7"/>
<text text-anchor="start" x="479.5" y="-188.8" font-family="Helvetica,sans-Serif" font-size="11.00" fill="#000000">user_id</text>
<polygon fill="none" stroke="#000000" points="624.5,-181.7 624.5,-203.7 690.5,-203.7 690.5,-181.7 624.5,-181.7"/>
<text text-anchor="start" x="627.5" y="-189.4" font-family="Helvetica,sans-Serif" font-size="11.00" fill="#000000">varchar[36]</text>
<polygon fill="none" stroke="#000000" points="459.5,-159.7 459.5,-181.7 624.5,-181.7 624.5,-159.7 459.5,-159.7"/>
<text text-anchor="start" x="479.5" y="-166.8" font-family="Helvetica,sans-Serif" font-size="11.00" fill="#000000">primary_group</text>
<polygon fill="none" stroke="#000000" points="624.5,-159.7 624.5,-181.7 690.5,-181.7 690.5,-159.7 624.5,-159.7"/>
<text text-anchor="start" x="627.5" y="-167.4" font-family="Helvetica,sans-Serif" font-size="11.00" fill="#000000">bit[1]</text>
<polygon fill="none" stroke="#000000" points="459.5,-137.7 459.5,-159.7 624.5,-159.7 624.5,-137.7 459.5,-137.7"/>
<text text-anchor="start" x="479.5" y="-144.8" font-family="Helvetica,sans-Serif" font-size="11.00" fill="#000000">noninheritable</text>
<polygon fill="none" stroke="#000000" points="624.5,-137.7 624.5,-159.7 690.5,-159.7 690.5,-137.7 624.5,-137.7"/>
<text text-anchor="start" x="627.5" y="-145.4" font-family="Helvetica,sans-Serif" font-size="11.00" fill="#000000">bit[1]</text>
<polygon fill="#ffffff" stroke="transparent" points="459.5,-118.7 459.5,-137.7 546.5,-137.7 546.5,-118.7 459.5,-118.7"/>
<polygon fill="none" stroke="#000000" points="459.5,-118.7 459.5,-137.7 546.5,-137.7 546.5,-118.7 459.5,-118.7"/>
<text text-anchor="start" x="462.5" y="-124.8" font-family="Helvetica,sans-Serif" font-size="11.00" fill="#000000">&lt; 2</text>
<polygon fill="#ffffff" stroke="transparent" points="546.5,-118.7 546.5,-137.7 624.5,-137.7 624.5,-118.7 546.5,-118.7"/>
<polygon fill="none" stroke="#000000" points="546.5,-118.7 546.5,-137.7 624.5,-137.7 624.5,-118.7 546.5,-118.7"/>
<text text-anchor="start" x="615.3862" y="-124.8" font-family="Helvetica,sans-Serif" font-size="11.00" fill="#000000"> &#160;</text>
<polygon fill="#ffffff" stroke="transparent" points="624.5,-118.7 624.5,-137.7 690.5,-137.7 690.5,-118.7 624.5,-118.7"/>
<polygon fill="none" stroke="#000000" points="624.5,-118.7 624.5,-137.7 690.5,-137.7 690.5,-118.7 624.5,-118.7"/>
<text text-anchor="start" x="671.9053" y="-124.8" font-family="Helvetica,sans-Serif" font-size="11.00" fill="#000000">0 &gt;</text>
<polygon fill="none" stroke="#000000" stroke-width="2" points="458,-117.7 458,-315.7 691,-315.7 691,-117.7 458,-117.7"/>
</a>
</g>
</g>
<!-- securitygroups_users&#45;&gt;securitygroups -->
<g id="edge4" class="edge">
<title>securitygroups_users:w&#45;&gt;securitygroups:e</title>
<path fill="none" stroke="#000000" d="M445.7854,-219.3296C429.572,-233.2383 437.2036,-273.7 408.5,-273.7"/>
<polygon fill="#000000" stroke="#000000" points="451.9202,-217.2587 460.6514,-218.1109 455.7101,-215.9794 459.5,-214.7 459.5,-214.7 459.5,-214.7 455.7101,-215.9794 458.3486,-211.2891 451.9202,-217.2587 451.9202,-217.2587"/>
<ellipse fill="none" stroke="#000000" cx="448.8883" cy="-218.2822" rx="3.2" ry="3.2"/>
</g>
<!-- securitygroups_users&#45;&gt;users -->
<g id="edge5" class="edge">
<title>securitygroups_users:w&#45;&gt;users:e</title>
<path fill="none" stroke="#000000" d="M445.6545,-188.2098C434.4651,-178.7346 435.6265,-156.8953 416,-148.7 354.071,-122.8406 323.2245,-115.3262 265,-148.7 233.7194,-166.6297 260.0548,-218.7 224,-218.7"/>
<polygon fill="#000000" stroke="#000000" points="451.8902,-190.232 458.3894,-196.1244 455.6951,-191.466 459.5,-192.7 459.5,-192.7 459.5,-192.7 455.6951,-191.466 460.6106,-189.2756 451.8902,-190.232 451.8902,-190.232"/>
<ellipse fill="none" stroke="#000000" cx="448.8463" cy="-189.2448" rx="3.2" ry="3.2"/>
</g>
</g>
</svg>
