<?xml version="1.0" encoding="UTF-8" standalone="no"?>
<!DOCTYPE svg PUBLIC "-//W3C//DTD SVG 1.1//EN"
 "http://www.w3.org/Graphics/SVG/1.1/DTD/svg11.dtd">
<!-- Generated by graphviz version 2.40.1 (20161225.0304)
 -->
<!-- Title: oneDegreeRelationshipsDiagram Pages: 1 -->
<svg width="767pt" height="419pt"
 viewBox="0.00 0.00 767.00 419.20" xmlns="http://www.w3.org/2000/svg" xmlns:xlink="http://www.w3.org/1999/xlink">
<g id="graph0" class="graph" transform="scale(1 1) rotate(0) translate(4 415.2)">
<title>oneDegreeRelationshipsDiagram</title>
<polygon fill="#ffffff" stroke="transparent" points="-4,4 -4,-415.2 763,-415.2 763,4 -4,4"/>
<text text-anchor="middle" x="72.4936" y="-7.3" font-family="Helvetica,sans-Serif" font-size="11.00" fill="#000000">Generated by SchemaSpy</text>
<!-- securitygroups_records -->
<g id="node1" class="node">
<title>securitygroups_records</title>
<g id="a_node1"><a xlink:href="../../tables/securitygroups_records.html" xlink:title="securitygroups_records" target="_top">
<polygon fill="#ffffff" stroke="transparent" points="572,-236.2 572,-407.2 751,-407.2 751,-236.2 572,-236.2"/>
<polygon fill="#f5f5f5" stroke="transparent" points="572.5,-383.7 572.5,-406.7 751.5,-406.7 751.5,-383.7 572.5,-383.7"/>
<polygon fill="none" stroke="#000000" points="572.5,-383.7 572.5,-406.7 751.5,-406.7 751.5,-383.7 572.5,-383.7"/>
<text text-anchor="start" x="577.5" y="-392.8" font-family="Helvetica,sans-Serif" font-weight="bold" font-size="11.00" fill="#000000">securitygroups_records</text>
<text text-anchor="start" x="716.5437" y="-391.8" font-family="Helvetica,sans-Serif" font-size="11.00" fill="#000000">[table]</text>
<polygon fill="none" stroke="#000000" points="572.5,-361.7 572.5,-383.7 751.5,-383.7 751.5,-361.7 572.5,-361.7"/>
<image xlink:href="../../images/primaryKeys.png" width="11px" height="12px" preserveAspectRatio="xMinYMin meet" x="577.5" y="-378.7"/>
<text text-anchor="start" x="592.5" y="-368.8" font-family="Helvetica,sans-Serif" font-size="11.00" fill="#000000">id</text>
<polygon fill="#ffffff" stroke="transparent" points="572.5,-339.7 572.5,-361.7 751.5,-361.7 751.5,-339.7 572.5,-339.7"/>
<polygon fill="none" stroke="#000000" points="572.5,-339.7 572.5,-361.7 751.5,-361.7 751.5,-339.7 572.5,-339.7"/>
<image xlink:href="../../images/foreignKeys.png" width="11px" height="12px" preserveAspectRatio="xMinYMin meet" x="577.5" y="-356.7"/>
<text text-anchor="start" x="592.5" y="-346.8" font-family="Helvetica,sans-Serif" font-size="11.00" fill="#000000">securitygroup_id</text>
<polygon fill="#ffffff" stroke="transparent" points="572.5,-317.7 572.5,-339.7 751.5,-339.7 751.5,-317.7 572.5,-317.7"/>
<polygon fill="none" stroke="#000000" points="572.5,-317.7 572.5,-339.7 751.5,-339.7 751.5,-317.7 572.5,-317.7"/>
<image xlink:href="../../images/foreignKeys.png" width="11px" height="12px" preserveAspectRatio="xMinYMin meet" x="577.5" y="-334.7"/>
<text text-anchor="start" x="592.5" y="-324.8" font-family="Helvetica,sans-Serif" font-size="11.00" fill="#000000">record_id</text>
<polygon fill="#ffffff" stroke="transparent" points="572.5,-295.7 572.5,-317.7 751.5,-317.7 751.5,-295.7 572.5,-295.7"/>
<polygon fill="none" stroke="#000000" points="572.5,-295.7 572.5,-317.7 751.5,-317.7 751.5,-295.7 572.5,-295.7"/>
<text text-anchor="start" x="592.5" y="-302.8" font-family="Helvetica,sans-Serif" font-size="11.00" fill="#000000">module</text>
<polygon fill="#ffffff" stroke="transparent" points="572.5,-273.7 572.5,-295.7 751.5,-295.7 751.5,-273.7 572.5,-273.7"/>
<polygon fill="none" stroke="#000000" points="572.5,-273.7 572.5,-295.7 751.5,-295.7 751.5,-273.7 572.5,-273.7"/>
<text text-anchor="start" x="592.5" y="-280.8" font-family="Helvetica,sans-Serif" font-size="11.00" fill="#000000">deleted</text>
<polygon fill="none" stroke="#000000" points="572.5,-254.7 572.5,-273.7 751.5,-273.7 751.5,-254.7 572.5,-254.7"/>
<text text-anchor="start" x="575.5" y="-260.8" font-family="Helvetica,sans-Serif" font-size="11.00" fill="#000000">...</text>
<polygon fill="#ffffff" stroke="transparent" points="572.5,-235.7 572.5,-254.7 663.5,-254.7 663.5,-235.7 572.5,-235.7"/>
<polygon fill="none" stroke="#000000" points="572.5,-235.7 572.5,-254.7 663.5,-254.7 663.5,-235.7 572.5,-235.7"/>
<text text-anchor="start" x="575.5" y="-241.8" font-family="Helvetica,sans-Serif" font-size="11.00" fill="#000000">&lt; 41</text>
<polygon fill="#ffffff" stroke="transparent" points="663.5,-235.7 663.5,-254.7 707.5,-254.7 707.5,-235.7 663.5,-235.7"/>
<polygon fill="none" stroke="#000000" points="663.5,-235.7 663.5,-254.7 707.5,-254.7 707.5,-235.7 663.5,-235.7"/>
<text text-anchor="start" x="698.3862" y="-241.8" font-family="Helvetica,sans-Serif" font-size="11.00" fill="#000000"> &#160;</text>
<polygon fill="#ffffff" stroke="transparent" points="707.5,-235.7 707.5,-254.7 751.5,-254.7 751.5,-235.7 707.5,-235.7"/>
<polygon fill="none" stroke="#000000" points="707.5,-235.7 707.5,-254.7 751.5,-254.7 751.5,-235.7 707.5,-235.7"/>
<text text-anchor="start" x="742.3862" y="-241.8" font-family="Helvetica,sans-Serif" font-size="11.00" fill="#000000"> &#160;</text>
</a>
</g>
</g>
<!-- spots -->
<g id="node2" class="node">
<title>spots</title>
<g id="a_node2"><a xlink:href="../../tables/spots.html" xlink:title="spots" target="_top">
<polygon fill="#ffffff" stroke="transparent" points="273,-76.7 273,-364.7 523,-364.7 523,-76.7 273,-76.7"/>
<polygon fill="#f5f5f5" stroke="transparent" points="275,-339.7 275,-362.7 521,-362.7 521,-339.7 275,-339.7"/>
<polygon fill="none" stroke="#000000" points="275,-339.7 275,-362.7 521,-362.7 521,-339.7 275,-339.7"/>
<text text-anchor="start" x="280" y="-348.8" font-family="Helvetica,sans-Serif" font-weight="bold" font-size="11.00" fill="#000000">spots</text>
<text text-anchor="start" x="486.0437" y="-347.8" font-family="Helvetica,sans-Serif" font-size="11.00" fill="#000000">[table]</text>
<polygon fill="none" stroke="#000000" points="275,-317.7 275,-339.7 410,-339.7 410,-317.7 275,-317.7"/>
<image xlink:href="../../images/primaryKeys.png" width="11px" height="12px" preserveAspectRatio="xMinYMin meet" x="280" y="-334.7"/>
<text text-anchor="start" x="295" y="-324.8" font-family="Helvetica,sans-Serif" font-size="11.00" fill="#000000">id</text>
<polygon fill="none" stroke="#000000" points="410,-317.7 410,-339.7 521,-339.7 521,-317.7 410,-317.7"/>
<text text-anchor="start" x="413" y="-325.4" font-family="Helvetica,sans-Serif" font-size="11.00" fill="#000000">char[36]</text>
<polygon fill="none" stroke="#000000" points="275,-295.7 275,-317.7 410,-317.7 410,-295.7 275,-295.7"/>
<text text-anchor="start" x="295" y="-302.8" font-family="Helvetica,sans-Serif" font-size="11.00" fill="#000000">name</text>
<polygon fill="none" stroke="#000000" points="410,-295.7 410,-317.7 521,-317.7 521,-295.7 410,-295.7"/>
<text text-anchor="start" x="413" y="-303.4" font-family="Helvetica,sans-Serif" font-size="11.00" fill="#000000">varchar[255]</text>
<polygon fill="none" stroke="#000000" points="275,-273.7 275,-295.7 410,-295.7 410,-273.7 275,-273.7"/>
<text text-anchor="start" x="295" y="-280.8" font-family="Helvetica,sans-Serif" font-size="11.00" fill="#000000">date_entered</text>
<polygon fill="none" stroke="#000000" points="410,-273.7 410,-295.7 521,-295.7 521,-273.7 410,-273.7"/>
<text text-anchor="start" x="413" y="-281.4" font-family="Helvetica,sans-Serif" font-size="11.00" fill="#000000">datetime[26]</text>
<polygon fill="none" stroke="#000000" points="275,-251.7 275,-273.7 410,-273.7 410,-251.7 275,-251.7"/>
<text text-anchor="start" x="295" y="-258.8" font-family="Helvetica,sans-Serif" font-size="11.00" fill="#000000">date_modified</text>
<polygon fill="none" stroke="#000000" points="410,-251.7 410,-273.7 521,-273.7 521,-251.7 410,-251.7"/>
<text text-anchor="start" x="413" y="-259.4" font-family="Helvetica,sans-Serif" font-size="11.00" fill="#000000">datetime[26]</text>
<polygon fill="none" stroke="#000000" points="275,-229.7 275,-251.7 410,-251.7 410,-229.7 275,-229.7"/>
<image xlink:href="../../images/foreignKeys.png" width="11px" height="12px" preserveAspectRatio="xMinYMin meet" x="280" y="-246.7"/>
<text text-anchor="start" x="295" y="-236.8" font-family="Helvetica,sans-Serif" font-size="11.00" fill="#000000">modified_user_id</text>
<polygon fill="none" stroke="#000000" points="410,-229.7 410,-251.7 521,-251.7 521,-229.7 410,-229.7"/>
<text text-anchor="start" x="413" y="-237.4" font-family="Helvetica,sans-Serif" font-size="11.00" fill="#000000">char[36]</text>
<polygon fill="none" stroke="#000000" points="275,-207.7 275,-229.7 410,-229.7 410,-207.7 275,-207.7"/>
<image xlink:href="../../images/foreignKeys.png" width="11px" height="12px" preserveAspectRatio="xMinYMin meet" x="280" y="-224.7"/>
<text text-anchor="start" x="295" y="-214.8" font-family="Helvetica,sans-Serif" font-size="11.00" fill="#000000">created_by</text>
<polygon fill="none" stroke="#000000" points="410,-207.7 410,-229.7 521,-229.7 521,-207.7 410,-207.7"/>
<text text-anchor="start" x="413" y="-215.4" font-family="Helvetica,sans-Serif" font-size="11.00" fill="#000000">char[36]</text>
<polygon fill="none" stroke="#000000" points="275,-185.7 275,-207.7 410,-207.7 410,-185.7 275,-185.7"/>
<text text-anchor="start" x="295" y="-192.8" font-family="Helvetica,sans-Serif" font-size="11.00" fill="#000000">description</text>
<polygon fill="none" stroke="#000000" points="410,-185.7 410,-207.7 521,-207.7 521,-185.7 410,-185.7"/>
<text text-anchor="start" x="413" y="-193.4" font-family="Helvetica,sans-Serif" font-size="11.00" fill="#000000">text[65535]</text>
<polygon fill="none" stroke="#000000" points="275,-163.7 275,-185.7 410,-185.7 410,-163.7 275,-163.7"/>
<text text-anchor="start" x="295" y="-170.8" font-family="Helvetica,sans-Serif" font-size="11.00" fill="#000000">deleted</text>
<polygon fill="none" stroke="#000000" points="410,-163.7 410,-185.7 521,-185.7 521,-163.7 410,-163.7"/>
<text text-anchor="start" x="413" y="-171.4" font-family="Helvetica,sans-Serif" font-size="11.00" fill="#000000">bit[1]</text>
<polygon fill="none" stroke="#000000" points="275,-141.7 275,-163.7 410,-163.7 410,-141.7 275,-141.7"/>
<image xlink:href="../../images/foreignKeys.png" width="11px" height="12px" preserveAspectRatio="xMinYMin meet" x="280" y="-158.7"/>
<text text-anchor="start" x="295" y="-148.8" font-family="Helvetica,sans-Serif" font-size="11.00" fill="#000000">assigned_user_id</text>
<polygon fill="none" stroke="#000000" points="410,-141.7 410,-163.7 521,-163.7 521,-141.7 410,-141.7"/>
<text text-anchor="start" x="413" y="-149.4" font-family="Helvetica,sans-Serif" font-size="11.00" fill="#000000">char[36]</text>
<polygon fill="none" stroke="#000000" points="275,-119.7 275,-141.7 410,-141.7 410,-119.7 275,-119.7"/>
<text text-anchor="start" x="295" y="-126.8" font-family="Helvetica,sans-Serif" font-size="11.00" fill="#000000">config</text>
<polygon fill="none" stroke="#000000" points="410,-119.7 410,-141.7 521,-141.7 521,-119.7 410,-119.7"/>
<text text-anchor="start" x="412.6115" y="-127.4" font-family="Helvetica,sans-Serif" font-size="11.00" fill="#000000">longtext[2147483647]</text>
<polygon fill="none" stroke="#000000" points="275,-97.7 275,-119.7 410,-119.7 410,-97.7 275,-97.7"/>
<text text-anchor="start" x="295" y="-104.8" font-family="Helvetica,sans-Serif" font-size="11.00" fill="#000000">type</text>
<polygon fill="none" stroke="#000000" points="410,-97.7 410,-119.7 521,-119.7 521,-97.7 410,-97.7"/>
<text text-anchor="start" x="413" y="-105.4" font-family="Helvetica,sans-Serif" font-size="11.00" fill="#000000">varchar[255]</text>
<polygon fill="#ffffff" stroke="transparent" points="275,-78.7 275,-97.7 347,-97.7 347,-78.7 275,-78.7"/>
<polygon fill="none" stroke="#000000" points="275,-78.7 275,-97.7 347,-97.7 347,-78.7 275,-78.7"/>
<text text-anchor="start" x="278" y="-84.8" font-family="Helvetica,sans-Serif" font-size="11.00" fill="#000000">&lt; 3</text>
<polygon fill="#ffffff" stroke="transparent" points="347,-78.7 347,-97.7 410,-97.7 410,-78.7 347,-78.7"/>
<polygon fill="none" stroke="#000000" points="347,-78.7 347,-97.7 410,-97.7 410,-78.7 347,-78.7"/>
<text text-anchor="start" x="400.8862" y="-84.8" font-family="Helvetica,sans-Serif" font-size="11.00" fill="#000000"> &#160;</text>
<polygon fill="#ffffff" stroke="transparent" points="410,-78.7 410,-97.7 521,-97.7 521,-78.7 410,-78.7"/>
<polygon fill="none" stroke="#000000" points="410,-78.7 410,-97.7 521,-97.7 521,-78.7 410,-78.7"/>
<text text-anchor="start" x="502.4053" y="-84.8" font-family="Helvetica,sans-Serif" font-size="11.00" fill="#000000">1 &gt;</text>
<polygon fill="none" stroke="#000000" stroke-width="2" points="274,-77.7 274,-363.7 522,-363.7 522,-77.7 274,-77.7"/>
</a>
</g>
</g>
<!-- securitygroups_records&#45;&gt;spots -->
<g id="edge1" class="edge">
<title>securitygroups_records:w&#45;&gt;spots:e</title>
<path fill="none" stroke="#000000" d="M558.0156,-328.7C545.6771,-328.7 538.1667,-328.7 521,-328.7"/>
<polygon fill="#000000" stroke="#000000" points="564.5,-328.7001 572.5,-332.3 568.5,-328.7 572.5,-328.7 572.5,-328.7 572.5,-328.7 568.5,-328.7 572.5,-325.1 564.5,-328.7001 564.5,-328.7001"/>
<ellipse fill="none" stroke="#000000" cx="561.3" cy="-328.7001" rx="3.2" ry="3.2"/>
</g>
<!-- users -->
<g id="node3" class="node">
<title>users</title>
<g id="a_node3"><a xlink:href="../../tables/users.html" xlink:title="users" target="_top">
<polygon fill="#ffffff" stroke="transparent" points="8,-38.2 8,-253.2 224,-253.2 224,-38.2 8,-38.2"/>
<polygon fill="#f5f5f5" stroke="transparent" points="8,-229.7 8,-252.7 224,-252.7 224,-229.7 8,-229.7"/>
<polygon fill="none" stroke="#000000" points="8,-229.7 8,-252.7 224,-252.7 224,-229.7 8,-229.7"/>
<text text-anchor="start" x="13" y="-238.8" font-family="Helvetica,sans-Serif" font-weight="bold" font-size="11.00" fill="#000000">users</text>
<text text-anchor="start" x="189.0437" y="-237.8" font-family="Helvetica,sans-Serif" font-size="11.00" fill="#000000">[table]</text>
<polygon fill="none" stroke="#000000" points="8,-207.7 8,-229.7 224,-229.7 224,-207.7 8,-207.7"/>
<image xlink:href="../../images/primaryKeys.png" width="11px" height="12px" preserveAspectRatio="xMinYMin meet" x="13" y="-224.7"/>
<text text-anchor="start" x="28" y="-214.8" font-family="Helvetica,sans-Serif" font-size="11.00" fill="#000000">id</text>
<polygon fill="#ffffff" stroke="transparent" points="8,-185.7 8,-207.7 224,-207.7 224,-185.7 8,-185.7"/>
<polygon fill="none" stroke="#000000" points="8,-185.7 8,-207.7 224,-207.7 224,-185.7 8,-185.7"/>
<text text-anchor="start" x="28" y="-192.8" font-family="Helvetica,sans-Serif" font-size="11.00" fill="#000000">user_name</text>
<polygon fill="#ffffff" stroke="transparent" points="8,-163.7 8,-185.7 224,-185.7 224,-163.7 8,-163.7"/>
<polygon fill="none" stroke="#000000" points="8,-163.7 8,-185.7 224,-185.7 224,-163.7 8,-163.7"/>
<text text-anchor="start" x="28" y="-170.8" font-family="Helvetica,sans-Serif" font-size="11.00" fill="#000000">first_name</text>
<polygon fill="#ffffff" stroke="transparent" points="8,-141.7 8,-163.7 224,-163.7 224,-141.7 8,-141.7"/>
<polygon fill="none" stroke="#000000" points="8,-141.7 8,-163.7 224,-163.7 224,-141.7 8,-141.7"/>
<text text-anchor="start" x="28" y="-148.8" font-family="Helvetica,sans-Serif" font-size="11.00" fill="#000000">last_name</text>
<polygon fill="#ffffff" stroke="transparent" points="8,-119.7 8,-141.7 224,-141.7 224,-119.7 8,-119.7"/>
<polygon fill="none" stroke="#000000" points="8,-119.7 8,-141.7 224,-141.7 224,-119.7 8,-119.7"/>
<text text-anchor="start" x="28" y="-126.8" font-family="Helvetica,sans-Serif" font-size="11.00" fill="#000000">status</text>
<polygon fill="#c0c0c0" stroke="transparent" points="8,-97.7 8,-119.7 224,-119.7 224,-97.7 8,-97.7"/>
<polygon fill="none" stroke="#000000" points="8,-97.7 8,-119.7 224,-119.7 224,-97.7 8,-97.7"/>
<image xlink:href="../../images/foreignKeys.png" width="11px" height="12px" preserveAspectRatio="xMinYMin meet" x="13" y="-114.7"/>
<text text-anchor="start" x="28" y="-104.8" font-family="Helvetica,sans-Serif" font-size="11.00" fill="#000000">reports_to_id</text>
<polygon fill="#ffffff" stroke="transparent" points="8,-75.7 8,-97.7 224,-97.7 224,-75.7 8,-75.7"/>
<polygon fill="none" stroke="#000000" points="8,-75.7 8,-97.7 224,-97.7 224,-75.7 8,-75.7"/>
<text text-anchor="start" x="28" y="-82.8" font-family="Helvetica,sans-Serif" font-size="11.00" fill="#000000">is_group</text>
<polygon fill="none" stroke="#000000" points="8,-56.7 8,-75.7 224,-75.7 224,-56.7 8,-56.7"/>
<text text-anchor="start" x="11" y="-62.8" font-family="Helvetica,sans-Serif" font-size="11.00" fill="#000000">...</text>
<polygon fill="#ffffff" stroke="transparent" points="8,-37.7 8,-56.7 104,-56.7 104,-37.7 8,-37.7"/>
<polygon fill="none" stroke="#000000" points="8,-37.7 8,-56.7 104,-56.7 104,-37.7 8,-37.7"/>
<text text-anchor="start" x="11" y="-43.8" font-family="Helvetica,sans-Serif" font-size="11.00" fill="#000000">&lt; 2</text>
<polygon fill="#ffffff" stroke="transparent" points="104,-37.7 104,-56.7 153,-56.7 153,-37.7 104,-37.7"/>
<polygon fill="none" stroke="#000000" points="104,-37.7 104,-56.7 153,-56.7 153,-37.7 104,-37.7"/>
<text text-anchor="start" x="143.8862" y="-43.8" font-family="Helvetica,sans-Serif" font-size="11.00" fill="#000000"> &#160;</text>
<polygon fill="#ffffff" stroke="transparent" points="153,-37.7 153,-56.7 224,-56.7 224,-37.7 153,-37.7"/>
<polygon fill="none" stroke="#000000" points="153,-37.7 153,-56.7 224,-56.7 224,-37.7 153,-37.7"/>
<text text-anchor="start" x="193.1755" y="-43.8" font-family="Helvetica,sans-Serif" font-size="11.00" fill="#000000">214 &gt;</text>
</a>
</g>
</g>
<!-- spots&#45;&gt;users -->
<g id="edge2" class="edge">
<title>spots:w&#45;&gt;users:e</title>
<path fill="none" stroke="#000000" d="M261.0846,-157.4466C243.902,-172.5798 254.9886,-218.7 224,-218.7"/>
<polygon fill="#000000" stroke="#000000" points="267.4284,-155.2827 276.1622,-156.1072 271.2142,-153.9914 275,-152.7 275,-152.7 275,-152.7 271.2142,-153.9914 273.8378,-149.2928 267.4284,-155.2827 267.4284,-155.2827"/>
<ellipse fill="none" stroke="#000000" cx="264.3997" cy="-156.3158" rx="3.2" ry="3.2"/>
</g>
<!-- spots&#45;&gt;users -->
<g id="edge3" class="edge">
<title>spots:w&#45;&gt;users:e</title>
<path fill="none" stroke="#000000" d="M260.276,-218.7C248.2815,-218.7 240.8229,-218.7 224,-218.7"/>
<polygon fill="#000000" stroke="#000000" points="267,-218.7001 275,-222.3 271,-218.7 275,-218.7 275,-218.7 275,-218.7 271,-218.7 275,-215.1 267,-218.7001 267,-218.7001"/>
<ellipse fill="none" stroke="#000000" cx="263.8" cy="-218.7001" rx="3.2" ry="3.2"/>
</g>
<!-- spots&#45;&gt;users -->
<g id="edge4" class="edge">
<title>spots:w&#45;&gt;users:e</title>
<path fill="none" stroke="#000000" d="M260.8489,-237.641C248.2843,-231.596 242.9,-218.7 224,-218.7"/>
<polygon fill="#000000" stroke="#000000" points="267.1806,-239.0097 274.2393,-244.2187 271.0903,-239.8548 275,-240.7 275,-240.7 275,-240.7 271.0903,-239.8548 275.7607,-237.1813 267.1806,-239.0097 267.1806,-239.0097"/>
<ellipse fill="none" stroke="#000000" cx="264.0528" cy="-238.3335" rx="3.2" ry="3.2"/>
</g>
</g>
</svg>
