<?xml version="1.0" encoding="UTF-8" standalone="no"?>
<!DOCTYPE svg PUBLIC "-//W3C//DTD SVG 1.1//EN"
 "http://www.w3.org/Graphics/SVG/1.1/DTD/svg11.dtd">
<!-- Generated by graphviz version 2.40.1 (20161225.0304)
 -->
<!-- Title: oneDegreeRelationshipsDiagram Pages: 1 -->
<svg width="471pt" height="316pt"
 viewBox="0.00 0.00 471.00 316.20" xmlns="http://www.w3.org/2000/svg" xmlns:xlink="http://www.w3.org/1999/xlink">
<g id="graph0" class="graph" transform="scale(1 1) rotate(0) translate(4 312.2)">
<title>oneDegreeRelationshipsDiagram</title>
<polygon fill="#ffffff" stroke="transparent" points="-4,4 -4,-312.2 467,-312.2 467,4 -4,4"/>
<text text-anchor="middle" x="72.4936" y="-7.3" font-family="Helvetica,sans-Serif" font-size="11.00" fill="#000000">Generated by SchemaSpy</text>
<!-- surveyquestions_audit -->
<g id="node1" class="node">
<title>surveyquestions_audit</title>
<g id="a_node1"><a xlink:href="../../tables/surveyquestions_audit.html" xlink:title="surveyquestions_audit" target="_top">
<polygon fill="#ffffff" stroke="transparent" points="211,-38.2 211,-304.2 455,-304.2 455,-38.2 211,-38.2"/>
<polygon fill="#f5f5f5" stroke="transparent" points="213,-279.2 213,-302.2 453,-302.2 453,-279.2 213,-279.2"/>
<polygon fill="none" stroke="#000000" points="213,-279.2 213,-302.2 453,-302.2 453,-279.2 213,-279.2"/>
<text text-anchor="start" x="218" y="-288.3" font-family="Helvetica,sans-Serif" font-weight="bold" font-size="11.00" fill="#000000">surveyquestions_audit</text>
<text text-anchor="start" x="418.0437" y="-287.3" font-family="Helvetica,sans-Serif" font-size="11.00" fill="#000000">[table]</text>
<polygon fill="none" stroke="#000000" points="213,-257.2 213,-279.2 386,-279.2 386,-257.2 213,-257.2"/>
<image xlink:href="../../images/primaryKeys.png" width="11px" height="12px" preserveAspectRatio="xMinYMin meet" x="218" y="-274.2"/>
<text text-anchor="start" x="233" y="-264.3" font-family="Helvetica,sans-Serif" font-size="11.00" fill="#000000">id</text>
<polygon fill="none" stroke="#000000" points="386,-257.2 386,-279.2 453,-279.2 453,-257.2 386,-257.2"/>
<text text-anchor="start" x="389" y="-264.9" font-family="Helvetica,sans-Serif" font-size="11.00" fill="#000000">char[36]</text>
<polygon fill="#ffffff" stroke="transparent" points="213,-235.2 213,-257.2 386,-257.2 386,-235.2 213,-235.2"/>
<polygon fill="none" stroke="#000000" points="213,-235.2 213,-257.2 386,-257.2 386,-235.2 213,-235.2"/>
<image xlink:href="../../images/foreignKeys.png" width="11px" height="12px" preserveAspectRatio="xMinYMin meet" x="218" y="-252.2"/>
<text text-anchor="start" x="233" y="-242.3" font-family="Helvetica,sans-Serif" font-size="11.00" fill="#000000">parent_id</text>
<polygon fill="none" stroke="#000000" points="386,-235.2 386,-257.2 453,-257.2 453,-235.2 386,-235.2"/>
<text text-anchor="start" x="389" y="-242.9" font-family="Helvetica,sans-Serif" font-size="11.00" fill="#000000">char[36]</text>
<polygon fill="none" stroke="#000000" points="213,-213.2 213,-235.2 386,-235.2 386,-213.2 213,-213.2"/>
<text text-anchor="start" x="233" y="-220.3" font-family="Helvetica,sans-Serif" font-size="11.00" fill="#000000">date_created</text>
<polygon fill="none" stroke="#000000" points="386,-213.2 386,-235.2 453,-235.2 453,-213.2 386,-213.2"/>
<text text-anchor="start" x="389" y="-220.9" font-family="Helvetica,sans-Serif" font-size="11.00" fill="#000000">datetime[26]</text>
<polygon fill="none" stroke="#000000" points="213,-191.2 213,-213.2 386,-213.2 386,-191.2 213,-191.2"/>
<text text-anchor="start" x="233" y="-198.3" font-family="Helvetica,sans-Serif" font-size="11.00" fill="#000000">created_by</text>
<polygon fill="none" stroke="#000000" points="386,-191.2 386,-213.2 453,-213.2 453,-191.2 386,-191.2"/>
<text text-anchor="start" x="389" y="-198.9" font-family="Helvetica,sans-Serif" font-size="11.00" fill="#000000">varchar[36]</text>
<polygon fill="none" stroke="#000000" points="213,-169.2 213,-191.2 386,-191.2 386,-169.2 213,-169.2"/>
<text text-anchor="start" x="233" y="-176.3" font-family="Helvetica,sans-Serif" font-size="11.00" fill="#000000">field_name</text>
<polygon fill="none" stroke="#000000" points="386,-169.2 386,-191.2 453,-191.2 453,-169.2 386,-169.2"/>
<text text-anchor="start" x="388.9365" y="-176.9" font-family="Helvetica,sans-Serif" font-size="11.00" fill="#000000">varchar[100]</text>
<polygon fill="none" stroke="#000000" points="213,-147.2 213,-169.2 386,-169.2 386,-147.2 213,-147.2"/>
<text text-anchor="start" x="233" y="-154.3" font-family="Helvetica,sans-Serif" font-size="11.00" fill="#000000">data_type</text>
<polygon fill="none" stroke="#000000" points="386,-147.2 386,-169.2 453,-169.2 453,-147.2 386,-147.2"/>
<text text-anchor="start" x="388.9365" y="-154.9" font-family="Helvetica,sans-Serif" font-size="11.00" fill="#000000">varchar[100]</text>
<polygon fill="none" stroke="#000000" points="213,-125.2 213,-147.2 386,-147.2 386,-125.2 213,-125.2"/>
<text text-anchor="start" x="233" y="-132.3" font-family="Helvetica,sans-Serif" font-size="11.00" fill="#000000">before_value_string</text>
<polygon fill="none" stroke="#000000" points="386,-125.2 386,-147.2 453,-147.2 453,-125.2 386,-125.2"/>
<text text-anchor="start" x="388.9365" y="-132.9" font-family="Helvetica,sans-Serif" font-size="11.00" fill="#000000">varchar[255]</text>
<polygon fill="none" stroke="#000000" points="213,-103.2 213,-125.2 386,-125.2 386,-103.2 213,-103.2"/>
<text text-anchor="start" x="233" y="-110.3" font-family="Helvetica,sans-Serif" font-size="11.00" fill="#000000">after_value_string</text>
<polygon fill="none" stroke="#000000" points="386,-103.2 386,-125.2 453,-125.2 453,-103.2 386,-103.2"/>
<text text-anchor="start" x="388.9365" y="-110.9" font-family="Helvetica,sans-Serif" font-size="11.00" fill="#000000">varchar[255]</text>
<polygon fill="none" stroke="#000000" points="213,-81.2 213,-103.2 386,-103.2 386,-81.2 213,-81.2"/>
<text text-anchor="start" x="233" y="-88.3" font-family="Helvetica,sans-Serif" font-size="11.00" fill="#000000">before_value_text</text>
<polygon fill="none" stroke="#000000" points="386,-81.2 386,-103.2 453,-103.2 453,-81.2 386,-81.2"/>
<text text-anchor="start" x="389" y="-88.9" font-family="Helvetica,sans-Serif" font-size="11.00" fill="#000000">text[65535]</text>
<polygon fill="none" stroke="#000000" points="213,-59.2 213,-81.2 386,-81.2 386,-59.2 213,-59.2"/>
<text text-anchor="start" x="233" y="-66.3" font-family="Helvetica,sans-Serif" font-size="11.00" fill="#000000">after_value_text</text>
<polygon fill="none" stroke="#000000" points="386,-59.2 386,-81.2 453,-81.2 453,-59.2 386,-59.2"/>
<text text-anchor="start" x="389" y="-66.9" font-family="Helvetica,sans-Serif" font-size="11.00" fill="#000000">text[65535]</text>
<polygon fill="#ffffff" stroke="transparent" points="213,-40.2 213,-59.2 304,-59.2 304,-40.2 213,-40.2"/>
<polygon fill="none" stroke="#000000" points="213,-40.2 213,-59.2 304,-59.2 304,-40.2 213,-40.2"/>
<text text-anchor="start" x="216" y="-46.3" font-family="Helvetica,sans-Serif" font-size="11.00" fill="#000000">&lt; 1</text>
<polygon fill="#ffffff" stroke="transparent" points="304,-40.2 304,-59.2 386,-59.2 386,-40.2 304,-40.2"/>
<polygon fill="none" stroke="#000000" points="304,-40.2 304,-59.2 386,-59.2 386,-40.2 304,-40.2"/>
<text text-anchor="start" x="376.8862" y="-46.3" font-family="Helvetica,sans-Serif" font-size="11.00" fill="#000000"> &#160;</text>
<polygon fill="#ffffff" stroke="transparent" points="386,-40.2 386,-59.2 453,-59.2 453,-40.2 386,-40.2"/>
<polygon fill="none" stroke="#000000" points="386,-40.2 386,-59.2 453,-59.2 453,-40.2 386,-40.2"/>
<text text-anchor="start" x="434.4053" y="-46.3" font-family="Helvetica,sans-Serif" font-size="11.00" fill="#000000">0 &gt;</text>
<polygon fill="none" stroke="#000000" stroke-width="2" points="212,-39.2 212,-303.2 454,-303.2 454,-39.2 212,-39.2"/>
</a>
</g>
</g>
<!-- surveyquestions -->
<g id="node2" class="node">
<title>surveyquestions</title>
<g id="a_node2"><a xlink:href="../../tables/surveyquestions.html" xlink:title="surveyquestions" target="_top">
<polygon fill="#ffffff" stroke="transparent" points="8,-109.7 8,-280.7 162,-280.7 162,-109.7 8,-109.7"/>
<polygon fill="#f5f5f5" stroke="transparent" points="8,-257.2 8,-280.2 162,-280.2 162,-257.2 8,-257.2"/>
<polygon fill="none" stroke="#000000" points="8,-257.2 8,-280.2 162,-280.2 162,-257.2 8,-257.2"/>
<text text-anchor="start" x="13" y="-266.3" font-family="Helvetica,sans-Serif" font-weight="bold" font-size="11.00" fill="#000000">surveyquestions</text>
<text text-anchor="start" x="127.0437" y="-265.3" font-family="Helvetica,sans-Serif" font-size="11.00" fill="#000000">[table]</text>
<polygon fill="none" stroke="#000000" points="8,-235.2 8,-257.2 162,-257.2 162,-235.2 8,-235.2"/>
<image xlink:href="../../images/primaryKeys.png" width="11px" height="12px" preserveAspectRatio="xMinYMin meet" x="13" y="-252.2"/>
<text text-anchor="start" x="28" y="-242.3" font-family="Helvetica,sans-Serif" font-size="11.00" fill="#000000">id</text>
<polygon fill="#c0c0c0" stroke="transparent" points="8,-213.2 8,-235.2 162,-235.2 162,-213.2 8,-213.2"/>
<polygon fill="none" stroke="#000000" points="8,-213.2 8,-235.2 162,-235.2 162,-213.2 8,-213.2"/>
<image xlink:href="../../images/foreignKeys.png" width="11px" height="12px" preserveAspectRatio="xMinYMin meet" x="13" y="-230.2"/>
<text text-anchor="start" x="28" y="-220.3" font-family="Helvetica,sans-Serif" font-size="11.00" fill="#000000">modified_user_id</text>
<polygon fill="#c0c0c0" stroke="transparent" points="8,-191.2 8,-213.2 162,-213.2 162,-191.2 8,-191.2"/>
<polygon fill="none" stroke="#000000" points="8,-191.2 8,-213.2 162,-213.2 162,-191.2 8,-191.2"/>
<image xlink:href="../../images/foreignKeys.png" width="11px" height="12px" preserveAspectRatio="xMinYMin meet" x="13" y="-208.2"/>
<text text-anchor="start" x="28" y="-198.3" font-family="Helvetica,sans-Serif" font-size="11.00" fill="#000000">created_by</text>
<polygon fill="#c0c0c0" stroke="transparent" points="8,-169.2 8,-191.2 162,-191.2 162,-169.2 8,-169.2"/>
<polygon fill="none" stroke="#000000" points="8,-169.2 8,-191.2 162,-191.2 162,-169.2 8,-169.2"/>
<image xlink:href="../../images/foreignKeys.png" width="11px" height="12px" preserveAspectRatio="xMinYMin meet" x="13" y="-186.2"/>
<text text-anchor="start" x="28" y="-176.3" font-family="Helvetica,sans-Serif" font-size="11.00" fill="#000000">assigned_user_id</text>
<polygon fill="none" stroke="#000000" points="8,-147.2 8,-169.2 162,-169.2 162,-147.2 8,-147.2"/>
<image xlink:href="../../images/foreignKeys.png" width="11px" height="12px" preserveAspectRatio="xMinYMin meet" x="13" y="-164.2"/>
<text text-anchor="start" x="28" y="-154.3" font-family="Helvetica,sans-Serif" font-size="11.00" fill="#000000">survey_id</text>
<polygon fill="none" stroke="#000000" points="8,-128.2 8,-147.2 162,-147.2 162,-128.2 8,-128.2"/>
<text text-anchor="start" x="11" y="-134.3" font-family="Helvetica,sans-Serif" font-size="11.00" fill="#000000">...</text>
<polygon fill="#ffffff" stroke="transparent" points="8,-109.2 8,-128.2 79,-128.2 79,-109.2 8,-109.2"/>
<polygon fill="none" stroke="#000000" points="8,-109.2 8,-128.2 79,-128.2 79,-109.2 8,-109.2"/>
<text text-anchor="start" x="11" y="-115.3" font-family="Helvetica,sans-Serif" font-size="11.00" fill="#000000">&lt; 4</text>
<polygon fill="#ffffff" stroke="transparent" points="79,-109.2 79,-128.2 116,-128.2 116,-109.2 79,-109.2"/>
<polygon fill="none" stroke="#000000" points="79,-109.2 79,-128.2 116,-128.2 116,-109.2 79,-109.2"/>
<text text-anchor="start" x="106.8862" y="-115.3" font-family="Helvetica,sans-Serif" font-size="11.00" fill="#000000"> &#160;</text>
<polygon fill="#ffffff" stroke="transparent" points="116,-109.2 116,-128.2 162,-128.2 162,-109.2 116,-109.2"/>
<polygon fill="none" stroke="#000000" points="116,-109.2 116,-128.2 162,-128.2 162,-109.2 116,-109.2"/>
<text text-anchor="start" x="143.4053" y="-115.3" font-family="Helvetica,sans-Serif" font-size="11.00" fill="#000000">3 &gt;</text>
</a>
</g>
</g>
<!-- surveyquestions_audit&#45;&gt;surveyquestions -->
<g id="edge1" class="edge">
<title>surveyquestions_audit:w&#45;&gt;surveyquestions:e</title>
<path fill="none" stroke="#000000" d="M198.276,-246.2C186.2815,-246.2 178.8229,-246.2 162,-246.2"/>
<polygon fill="#000000" stroke="#000000" points="205,-246.2001 213,-249.8 209,-246.2 213,-246.2 213,-246.2 213,-246.2 209,-246.2 213,-242.6 205,-246.2001 205,-246.2001"/>
<ellipse fill="none" stroke="#000000" cx="201.8" cy="-246.2001" rx="3.2" ry="3.2"/>
</g>
</g>
</svg>
