<?xml version="1.0" encoding="UTF-8" standalone="no"?>
<!DOCTYPE svg PUBLIC "-//W3C//DTD SVG 1.1//EN"
 "http://www.w3.org/Graphics/SVG/1.1/DTD/svg11.dtd">
<!-- Generated by graphviz version 2.40.1 (20161225.0304)
 -->
<!-- Title: oneDegreeRelationshipsDiagram Pages: 1 -->
<svg width="1143pt" height="589pt"
 viewBox="0.00 0.00 1143.00 589.20" xmlns="http://www.w3.org/2000/svg" xmlns:xlink="http://www.w3.org/1999/xlink">
<g id="graph0" class="graph" transform="scale(1 1) rotate(0) translate(4 585.2)">
<title>oneDegreeRelationshipsDiagram</title>
<polygon fill="#ffffff" stroke="transparent" points="-4,4 -4,-585.2 1139,-585.2 1139,4 -4,4"/>
<text text-anchor="middle" x="72.4936" y="-7.3" font-family="Helvetica,sans-Serif" font-size="11.00" fill="#000000">Generated by SchemaSpy</text>
<!-- securitygroups_records -->
<g id="node1" class="node">
<title>securitygroups_records</title>
<g id="a_node1"><a xlink:href="../../tables/securitygroups_records.html" xlink:title="securitygroups_records" target="_top">
<polygon fill="#ffffff" stroke="transparent" points="860,-79.2 860,-250.2 1039,-250.2 1039,-79.2 860,-79.2"/>
<polygon fill="#f5f5f5" stroke="transparent" points="860.5,-226.7 860.5,-249.7 1039.5,-249.7 1039.5,-226.7 860.5,-226.7"/>
<polygon fill="none" stroke="#000000" points="860.5,-226.7 860.5,-249.7 1039.5,-249.7 1039.5,-226.7 860.5,-226.7"/>
<text text-anchor="start" x="865.5" y="-235.8" font-family="Helvetica,sans-Serif" font-weight="bold" font-size="11.00" fill="#000000">securitygroups_records</text>
<text text-anchor="start" x="1004.5437" y="-234.8" font-family="Helvetica,sans-Serif" font-size="11.00" fill="#000000">[table]</text>
<polygon fill="none" stroke="#000000" points="860.5,-204.7 860.5,-226.7 1039.5,-226.7 1039.5,-204.7 860.5,-204.7"/>
<image xlink:href="../../images/primaryKeys.png" width="11px" height="12px" preserveAspectRatio="xMinYMin meet" x="865.5" y="-221.7"/>
<text text-anchor="start" x="880.5" y="-211.8" font-family="Helvetica,sans-Serif" font-size="11.00" fill="#000000">id</text>
<polygon fill="#ffffff" stroke="transparent" points="860.5,-182.7 860.5,-204.7 1039.5,-204.7 1039.5,-182.7 860.5,-182.7"/>
<polygon fill="none" stroke="#000000" points="860.5,-182.7 860.5,-204.7 1039.5,-204.7 1039.5,-182.7 860.5,-182.7"/>
<image xlink:href="../../images/foreignKeys.png" width="11px" height="12px" preserveAspectRatio="xMinYMin meet" x="865.5" y="-199.7"/>
<text text-anchor="start" x="880.5" y="-189.8" font-family="Helvetica,sans-Serif" font-size="11.00" fill="#000000">securitygroup_id</text>
<polygon fill="#ffffff" stroke="transparent" points="860.5,-160.7 860.5,-182.7 1039.5,-182.7 1039.5,-160.7 860.5,-160.7"/>
<polygon fill="none" stroke="#000000" points="860.5,-160.7 860.5,-182.7 1039.5,-182.7 1039.5,-160.7 860.5,-160.7"/>
<image xlink:href="../../images/foreignKeys.png" width="11px" height="12px" preserveAspectRatio="xMinYMin meet" x="865.5" y="-177.7"/>
<text text-anchor="start" x="880.5" y="-167.8" font-family="Helvetica,sans-Serif" font-size="11.00" fill="#000000">record_id</text>
<polygon fill="#ffffff" stroke="transparent" points="860.5,-138.7 860.5,-160.7 1039.5,-160.7 1039.5,-138.7 860.5,-138.7"/>
<polygon fill="none" stroke="#000000" points="860.5,-138.7 860.5,-160.7 1039.5,-160.7 1039.5,-138.7 860.5,-138.7"/>
<text text-anchor="start" x="880.5" y="-145.8" font-family="Helvetica,sans-Serif" font-size="11.00" fill="#000000">module</text>
<polygon fill="#ffffff" stroke="transparent" points="860.5,-116.7 860.5,-138.7 1039.5,-138.7 1039.5,-116.7 860.5,-116.7"/>
<polygon fill="none" stroke="#000000" points="860.5,-116.7 860.5,-138.7 1039.5,-138.7 1039.5,-116.7 860.5,-116.7"/>
<text text-anchor="start" x="880.5" y="-123.8" font-family="Helvetica,sans-Serif" font-size="11.00" fill="#000000">deleted</text>
<polygon fill="none" stroke="#000000" points="860.5,-97.7 860.5,-116.7 1039.5,-116.7 1039.5,-97.7 860.5,-97.7"/>
<text text-anchor="start" x="863.5" y="-103.8" font-family="Helvetica,sans-Serif" font-size="11.00" fill="#000000">...</text>
<polygon fill="#ffffff" stroke="transparent" points="860.5,-78.7 860.5,-97.7 951.5,-97.7 951.5,-78.7 860.5,-78.7"/>
<polygon fill="none" stroke="#000000" points="860.5,-78.7 860.5,-97.7 951.5,-97.7 951.5,-78.7 860.5,-78.7"/>
<text text-anchor="start" x="863.5" y="-84.8" font-family="Helvetica,sans-Serif" font-size="11.00" fill="#000000">&lt; 41</text>
<polygon fill="#ffffff" stroke="transparent" points="951.5,-78.7 951.5,-97.7 995.5,-97.7 995.5,-78.7 951.5,-78.7"/>
<polygon fill="none" stroke="#000000" points="951.5,-78.7 951.5,-97.7 995.5,-97.7 995.5,-78.7 951.5,-78.7"/>
<text text-anchor="start" x="986.3862" y="-84.8" font-family="Helvetica,sans-Serif" font-size="11.00" fill="#000000"> &#160;</text>
<polygon fill="#ffffff" stroke="transparent" points="995.5,-78.7 995.5,-97.7 1039.5,-97.7 1039.5,-78.7 995.5,-78.7"/>
<polygon fill="none" stroke="#000000" points="995.5,-78.7 995.5,-97.7 1039.5,-97.7 1039.5,-78.7 995.5,-78.7"/>
<text text-anchor="start" x="1030.3862" y="-84.8" font-family="Helvetica,sans-Serif" font-size="11.00" fill="#000000"> &#160;</text>
</a>
</g>
</g>
<!-- surveyquestionoptions -->
<g id="node2" class="node">
<title>surveyquestionoptions</title>
<g id="a_node2"><a xlink:href="../../tables/surveyquestionoptions.html" xlink:title="surveyquestionoptions" target="_top">
<polygon fill="#ffffff" stroke="transparent" points="476,-168.7 476,-456.7 723,-456.7 723,-168.7 476,-168.7"/>
<polygon fill="#f5f5f5" stroke="transparent" points="478.5,-431.7 478.5,-454.7 721.5,-454.7 721.5,-431.7 478.5,-431.7"/>
<polygon fill="none" stroke="#000000" points="478.5,-431.7 478.5,-454.7 721.5,-454.7 721.5,-431.7 478.5,-431.7"/>
<text text-anchor="start" x="483.5" y="-440.8" font-family="Helvetica,sans-Serif" font-weight="bold" font-size="11.00" fill="#000000">surveyquestionoptions</text>
<text text-anchor="start" x="686.5437" y="-439.8" font-family="Helvetica,sans-Serif" font-size="11.00" fill="#000000">[table]</text>
<polygon fill="none" stroke="#000000" points="478.5,-409.7 478.5,-431.7 654.5,-431.7 654.5,-409.7 478.5,-409.7"/>
<image xlink:href="../../images/primaryKeys.png" width="11px" height="12px" preserveAspectRatio="xMinYMin meet" x="483.5" y="-426.7"/>
<text text-anchor="start" x="498.5" y="-416.8" font-family="Helvetica,sans-Serif" font-size="11.00" fill="#000000">id</text>
<polygon fill="none" stroke="#000000" points="654.5,-409.7 654.5,-431.7 721.5,-431.7 721.5,-409.7 654.5,-409.7"/>
<text text-anchor="start" x="657.5" y="-417.4" font-family="Helvetica,sans-Serif" font-size="11.00" fill="#000000">char[36]</text>
<polygon fill="none" stroke="#000000" points="478.5,-387.7 478.5,-409.7 654.5,-409.7 654.5,-387.7 478.5,-387.7"/>
<text text-anchor="start" x="498.5" y="-394.8" font-family="Helvetica,sans-Serif" font-size="11.00" fill="#000000">name</text>
<polygon fill="none" stroke="#000000" points="654.5,-387.7 654.5,-409.7 721.5,-409.7 721.5,-387.7 654.5,-387.7"/>
<text text-anchor="start" x="657.4365" y="-395.4" font-family="Helvetica,sans-Serif" font-size="11.00" fill="#000000">varchar[255]</text>
<polygon fill="none" stroke="#000000" points="478.5,-365.7 478.5,-387.7 654.5,-387.7 654.5,-365.7 478.5,-365.7"/>
<text text-anchor="start" x="498.5" y="-372.8" font-family="Helvetica,sans-Serif" font-size="11.00" fill="#000000">date_entered</text>
<polygon fill="none" stroke="#000000" points="654.5,-365.7 654.5,-387.7 721.5,-387.7 721.5,-365.7 654.5,-365.7"/>
<text text-anchor="start" x="657.5" y="-373.4" font-family="Helvetica,sans-Serif" font-size="11.00" fill="#000000">datetime[26]</text>
<polygon fill="none" stroke="#000000" points="478.5,-343.7 478.5,-365.7 654.5,-365.7 654.5,-343.7 478.5,-343.7"/>
<text text-anchor="start" x="498.5" y="-350.8" font-family="Helvetica,sans-Serif" font-size="11.00" fill="#000000">date_modified</text>
<polygon fill="none" stroke="#000000" points="654.5,-343.7 654.5,-365.7 721.5,-365.7 721.5,-343.7 654.5,-343.7"/>
<text text-anchor="start" x="657.5" y="-351.4" font-family="Helvetica,sans-Serif" font-size="11.00" fill="#000000">datetime[26]</text>
<polygon fill="none" stroke="#000000" points="478.5,-321.7 478.5,-343.7 654.5,-343.7 654.5,-321.7 478.5,-321.7"/>
<image xlink:href="../../images/foreignKeys.png" width="11px" height="12px" preserveAspectRatio="xMinYMin meet" x="483.5" y="-338.7"/>
<text text-anchor="start" x="498.5" y="-328.8" font-family="Helvetica,sans-Serif" font-size="11.00" fill="#000000">modified_user_id</text>
<polygon fill="none" stroke="#000000" points="654.5,-321.7 654.5,-343.7 721.5,-343.7 721.5,-321.7 654.5,-321.7"/>
<text text-anchor="start" x="657.5" y="-329.4" font-family="Helvetica,sans-Serif" font-size="11.00" fill="#000000">char[36]</text>
<polygon fill="none" stroke="#000000" points="478.5,-299.7 478.5,-321.7 654.5,-321.7 654.5,-299.7 478.5,-299.7"/>
<image xlink:href="../../images/foreignKeys.png" width="11px" height="12px" preserveAspectRatio="xMinYMin meet" x="483.5" y="-316.7"/>
<text text-anchor="start" x="498.5" y="-306.8" font-family="Helvetica,sans-Serif" font-size="11.00" fill="#000000">created_by</text>
<polygon fill="none" stroke="#000000" points="654.5,-299.7 654.5,-321.7 721.5,-321.7 721.5,-299.7 654.5,-299.7"/>
<text text-anchor="start" x="657.5" y="-307.4" font-family="Helvetica,sans-Serif" font-size="11.00" fill="#000000">char[36]</text>
<polygon fill="none" stroke="#000000" points="478.5,-277.7 478.5,-299.7 654.5,-299.7 654.5,-277.7 478.5,-277.7"/>
<text text-anchor="start" x="498.5" y="-284.8" font-family="Helvetica,sans-Serif" font-size="11.00" fill="#000000">description</text>
<polygon fill="none" stroke="#000000" points="654.5,-277.7 654.5,-299.7 721.5,-299.7 721.5,-277.7 654.5,-277.7"/>
<text text-anchor="start" x="657.5" y="-285.4" font-family="Helvetica,sans-Serif" font-size="11.00" fill="#000000">text[65535]</text>
<polygon fill="none" stroke="#000000" points="478.5,-255.7 478.5,-277.7 654.5,-277.7 654.5,-255.7 478.5,-255.7"/>
<text text-anchor="start" x="498.5" y="-262.8" font-family="Helvetica,sans-Serif" font-size="11.00" fill="#000000">deleted</text>
<polygon fill="none" stroke="#000000" points="654.5,-255.7 654.5,-277.7 721.5,-277.7 721.5,-255.7 654.5,-255.7"/>
<text text-anchor="start" x="657.5" y="-263.4" font-family="Helvetica,sans-Serif" font-size="11.00" fill="#000000">bit[1]</text>
<polygon fill="none" stroke="#000000" points="478.5,-233.7 478.5,-255.7 654.5,-255.7 654.5,-233.7 478.5,-233.7"/>
<image xlink:href="../../images/foreignKeys.png" width="11px" height="12px" preserveAspectRatio="xMinYMin meet" x="483.5" y="-250.7"/>
<text text-anchor="start" x="498.5" y="-240.8" font-family="Helvetica,sans-Serif" font-size="11.00" fill="#000000">assigned_user_id</text>
<polygon fill="none" stroke="#000000" points="654.5,-233.7 654.5,-255.7 721.5,-255.7 721.5,-233.7 654.5,-233.7"/>
<text text-anchor="start" x="657.5" y="-241.4" font-family="Helvetica,sans-Serif" font-size="11.00" fill="#000000">char[36]</text>
<polygon fill="none" stroke="#000000" points="478.5,-211.7 478.5,-233.7 654.5,-233.7 654.5,-211.7 478.5,-211.7"/>
<text text-anchor="start" x="498.5" y="-218.8" font-family="Helvetica,sans-Serif" font-size="11.00" fill="#000000">sort_order</text>
<polygon fill="none" stroke="#000000" points="654.5,-211.7 654.5,-233.7 721.5,-233.7 721.5,-211.7 654.5,-211.7"/>
<text text-anchor="start" x="657.5" y="-219.4" font-family="Helvetica,sans-Serif" font-size="11.00" fill="#000000">int[10]</text>
<polygon fill="none" stroke="#000000" points="478.5,-189.7 478.5,-211.7 654.5,-211.7 654.5,-189.7 478.5,-189.7"/>
<image xlink:href="../../images/foreignKeys.png" width="11px" height="12px" preserveAspectRatio="xMinYMin meet" x="483.5" y="-206.7"/>
<text text-anchor="start" x="498.5" y="-196.8" font-family="Helvetica,sans-Serif" font-size="11.00" fill="#000000">survey_question_id</text>
<polygon fill="none" stroke="#000000" points="654.5,-189.7 654.5,-211.7 721.5,-211.7 721.5,-189.7 654.5,-189.7"/>
<text text-anchor="start" x="657.5" y="-197.4" font-family="Helvetica,sans-Serif" font-size="11.00" fill="#000000">char[36]</text>
<polygon fill="#ffffff" stroke="transparent" points="478.5,-170.7 478.5,-189.7 570.5,-189.7 570.5,-170.7 478.5,-170.7"/>
<polygon fill="none" stroke="#000000" points="478.5,-170.7 478.5,-189.7 570.5,-189.7 570.5,-170.7 478.5,-170.7"/>
<text text-anchor="start" x="481.5" y="-176.8" font-family="Helvetica,sans-Serif" font-size="11.00" fill="#000000">&lt; 4</text>
<polygon fill="#ffffff" stroke="transparent" points="570.5,-170.7 570.5,-189.7 654.5,-189.7 654.5,-170.7 570.5,-170.7"/>
<polygon fill="none" stroke="#000000" points="570.5,-170.7 570.5,-189.7 654.5,-189.7 654.5,-170.7 570.5,-170.7"/>
<text text-anchor="start" x="645.3862" y="-176.8" font-family="Helvetica,sans-Serif" font-size="11.00" fill="#000000"> &#160;</text>
<polygon fill="#ffffff" stroke="transparent" points="654.5,-170.7 654.5,-189.7 721.5,-189.7 721.5,-170.7 654.5,-170.7"/>
<polygon fill="none" stroke="#000000" points="654.5,-170.7 654.5,-189.7 721.5,-189.7 721.5,-170.7 654.5,-170.7"/>
<text text-anchor="start" x="702.9053" y="-176.8" font-family="Helvetica,sans-Serif" font-size="11.00" fill="#000000">3 &gt;</text>
<polygon fill="none" stroke="#000000" stroke-width="2" points="477,-169.7 477,-455.7 722,-455.7 722,-169.7 477,-169.7"/>
</a>
</g>
</g>
<!-- securitygroups_records&#45;&gt;surveyquestionoptions -->
<g id="edge1" class="edge">
<title>securitygroups_records:w&#45;&gt;surveyquestionoptions:e</title>
<path fill="none" stroke="#000000" d="M846.0934,-172.7195C786.0808,-181.8635 797.2986,-250.892 764,-313.7 740.0318,-358.9089 772.6695,-420.7 721.5,-420.7"/>
<polygon fill="#000000" stroke="#000000" points="852.52,-172.2648 860.7541,-175.291 856.51,-171.9824 860.5,-171.7 860.5,-171.7 860.5,-171.7 856.51,-171.9824 860.2459,-168.109 852.52,-172.2648 852.52,-172.2648"/>
<ellipse fill="none" stroke="#000000" cx="849.3279" cy="-172.4907" rx="3.2" ry="3.2"/>
</g>
<!-- surveyquestions -->
<g id="node3" class="node">
<title>surveyquestions</title>
<g id="a_node3"><a xlink:href="../../tables/surveyquestions.html" xlink:title="surveyquestions" target="_top">
<polygon fill="#ffffff" stroke="transparent" points="273,-64.2 273,-235.2 427,-235.2 427,-64.2 273,-64.2"/>
<polygon fill="#f5f5f5" stroke="transparent" points="273,-211.7 273,-234.7 427,-234.7 427,-211.7 273,-211.7"/>
<polygon fill="none" stroke="#000000" points="273,-211.7 273,-234.7 427,-234.7 427,-211.7 273,-211.7"/>
<text text-anchor="start" x="278" y="-220.8" font-family="Helvetica,sans-Serif" font-weight="bold" font-size="11.00" fill="#000000">surveyquestions</text>
<text text-anchor="start" x="392.0437" y="-219.8" font-family="Helvetica,sans-Serif" font-size="11.00" fill="#000000">[table]</text>
<polygon fill="none" stroke="#000000" points="273,-189.7 273,-211.7 427,-211.7 427,-189.7 273,-189.7"/>
<image xlink:href="../../images/primaryKeys.png" width="11px" height="12px" preserveAspectRatio="xMinYMin meet" x="278" y="-206.7"/>
<text text-anchor="start" x="293" y="-196.8" font-family="Helvetica,sans-Serif" font-size="11.00" fill="#000000">id</text>
<polygon fill="#c0c0c0" stroke="transparent" points="273,-167.7 273,-189.7 427,-189.7 427,-167.7 273,-167.7"/>
<polygon fill="none" stroke="#000000" points="273,-167.7 273,-189.7 427,-189.7 427,-167.7 273,-167.7"/>
<image xlink:href="../../images/foreignKeys.png" width="11px" height="12px" preserveAspectRatio="xMinYMin meet" x="278" y="-184.7"/>
<text text-anchor="start" x="293" y="-174.8" font-family="Helvetica,sans-Serif" font-size="11.00" fill="#000000">modified_user_id</text>
<polygon fill="#c0c0c0" stroke="transparent" points="273,-145.7 273,-167.7 427,-167.7 427,-145.7 273,-145.7"/>
<polygon fill="none" stroke="#000000" points="273,-145.7 273,-167.7 427,-167.7 427,-145.7 273,-145.7"/>
<image xlink:href="../../images/foreignKeys.png" width="11px" height="12px" preserveAspectRatio="xMinYMin meet" x="278" y="-162.7"/>
<text text-anchor="start" x="293" y="-152.8" font-family="Helvetica,sans-Serif" font-size="11.00" fill="#000000">created_by</text>
<polygon fill="#c0c0c0" stroke="transparent" points="273,-123.7 273,-145.7 427,-145.7 427,-123.7 273,-123.7"/>
<polygon fill="none" stroke="#000000" points="273,-123.7 273,-145.7 427,-145.7 427,-123.7 273,-123.7"/>
<image xlink:href="../../images/foreignKeys.png" width="11px" height="12px" preserveAspectRatio="xMinYMin meet" x="278" y="-140.7"/>
<text text-anchor="start" x="293" y="-130.8" font-family="Helvetica,sans-Serif" font-size="11.00" fill="#000000">assigned_user_id</text>
<polygon fill="none" stroke="#000000" points="273,-101.7 273,-123.7 427,-123.7 427,-101.7 273,-101.7"/>
<image xlink:href="../../images/foreignKeys.png" width="11px" height="12px" preserveAspectRatio="xMinYMin meet" x="278" y="-118.7"/>
<text text-anchor="start" x="293" y="-108.8" font-family="Helvetica,sans-Serif" font-size="11.00" fill="#000000">survey_id</text>
<polygon fill="none" stroke="#000000" points="273,-82.7 273,-101.7 427,-101.7 427,-82.7 273,-82.7"/>
<text text-anchor="start" x="276" y="-88.8" font-family="Helvetica,sans-Serif" font-size="11.00" fill="#000000">...</text>
<polygon fill="#ffffff" stroke="transparent" points="273,-63.7 273,-82.7 344,-82.7 344,-63.7 273,-63.7"/>
<polygon fill="none" stroke="#000000" points="273,-63.7 273,-82.7 344,-82.7 344,-63.7 273,-63.7"/>
<text text-anchor="start" x="276" y="-69.8" font-family="Helvetica,sans-Serif" font-size="11.00" fill="#000000">&lt; 4</text>
<polygon fill="#ffffff" stroke="transparent" points="344,-63.7 344,-82.7 381,-82.7 381,-63.7 344,-63.7"/>
<polygon fill="none" stroke="#000000" points="344,-63.7 344,-82.7 381,-82.7 381,-63.7 344,-63.7"/>
<text text-anchor="start" x="371.8862" y="-69.8" font-family="Helvetica,sans-Serif" font-size="11.00" fill="#000000"> &#160;</text>
<polygon fill="#ffffff" stroke="transparent" points="381,-63.7 381,-82.7 427,-82.7 427,-63.7 381,-63.7"/>
<polygon fill="none" stroke="#000000" points="381,-63.7 381,-82.7 427,-82.7 427,-63.7 381,-63.7"/>
<text text-anchor="start" x="408.4053" y="-69.8" font-family="Helvetica,sans-Serif" font-size="11.00" fill="#000000">3 &gt;</text>
</a>
</g>
</g>
<!-- securitygroups_records&#45;&gt;surveyquestions -->
<g id="edge2" class="edge">
<title>securitygroups_records:w&#45;&gt;surveyquestions:e</title>
<path fill="none" stroke="#000000" d="M845.9463,-171.5063C682.6062,-167.1365 623.9173,-90.9318 468,-157.7 443.7259,-168.0948 453.4061,-200.7 427,-200.7"/>
<polygon fill="#000000" stroke="#000000" points="852.5007,-171.5935 860.4521,-175.2997 856.5004,-171.6467 860.5,-171.7 860.5,-171.7 860.5,-171.7 856.5004,-171.6467 860.5479,-168.1003 852.5007,-171.5935 852.5007,-171.5935"/>
<ellipse fill="none" stroke="#000000" cx="849.301" cy="-171.5509" rx="3.2" ry="3.2"/>
</g>
<!-- surveyquestionoptions&#45;&gt;surveyquestions -->
<g id="edge6" class="edge">
<title>surveyquestionoptions:w&#45;&gt;surveyquestions:e</title>
<path fill="none" stroke="#000000" d="M464.0156,-200.7C451.6771,-200.7 444.1667,-200.7 427,-200.7"/>
<polygon fill="#000000" stroke="#000000" points="470.5,-200.7001 478.5,-204.3 474.5,-200.7 478.5,-200.7 478.5,-200.7 478.5,-200.7 474.5,-200.7 478.5,-197.1 470.5,-200.7001 470.5,-200.7001"/>
<ellipse fill="none" stroke="#000000" cx="467.3" cy="-200.7001" rx="3.2" ry="3.2"/>
</g>
<!-- users -->
<g id="node4" class="node">
<title>users</title>
<g id="a_node4"><a xlink:href="../../tables/users.html" xlink:title="users" target="_top">
<polygon fill="#ffffff" stroke="transparent" points="8,-38.2 8,-253.2 224,-253.2 224,-38.2 8,-38.2"/>
<polygon fill="#f5f5f5" stroke="transparent" points="8,-229.7 8,-252.7 224,-252.7 224,-229.7 8,-229.7"/>
<polygon fill="none" stroke="#000000" points="8,-229.7 8,-252.7 224,-252.7 224,-229.7 8,-229.7"/>
<text text-anchor="start" x="13" y="-238.8" font-family="Helvetica,sans-Serif" font-weight="bold" font-size="11.00" fill="#000000">users</text>
<text text-anchor="start" x="189.0437" y="-237.8" font-family="Helvetica,sans-Serif" font-size="11.00" fill="#000000">[table]</text>
<polygon fill="none" stroke="#000000" points="8,-207.7 8,-229.7 224,-229.7 224,-207.7 8,-207.7"/>
<image xlink:href="../../images/primaryKeys.png" width="11px" height="12px" preserveAspectRatio="xMinYMin meet" x="13" y="-224.7"/>
<text text-anchor="start" x="28" y="-214.8" font-family="Helvetica,sans-Serif" font-size="11.00" fill="#000000">id</text>
<polygon fill="#ffffff" stroke="transparent" points="8,-185.7 8,-207.7 224,-207.7 224,-185.7 8,-185.7"/>
<polygon fill="none" stroke="#000000" points="8,-185.7 8,-207.7 224,-207.7 224,-185.7 8,-185.7"/>
<text text-anchor="start" x="28" y="-192.8" font-family="Helvetica,sans-Serif" font-size="11.00" fill="#000000">user_name</text>
<polygon fill="#ffffff" stroke="transparent" points="8,-163.7 8,-185.7 224,-185.7 224,-163.7 8,-163.7"/>
<polygon fill="none" stroke="#000000" points="8,-163.7 8,-185.7 224,-185.7 224,-163.7 8,-163.7"/>
<text text-anchor="start" x="28" y="-170.8" font-family="Helvetica,sans-Serif" font-size="11.00" fill="#000000">first_name</text>
<polygon fill="#ffffff" stroke="transparent" points="8,-141.7 8,-163.7 224,-163.7 224,-141.7 8,-141.7"/>
<polygon fill="none" stroke="#000000" points="8,-141.7 8,-163.7 224,-163.7 224,-141.7 8,-141.7"/>
<text text-anchor="start" x="28" y="-148.8" font-family="Helvetica,sans-Serif" font-size="11.00" fill="#000000">last_name</text>
<polygon fill="#ffffff" stroke="transparent" points="8,-119.7 8,-141.7 224,-141.7 224,-119.7 8,-119.7"/>
<polygon fill="none" stroke="#000000" points="8,-119.7 8,-141.7 224,-141.7 224,-119.7 8,-119.7"/>
<text text-anchor="start" x="28" y="-126.8" font-family="Helvetica,sans-Serif" font-size="11.00" fill="#000000">status</text>
<polygon fill="#c0c0c0" stroke="transparent" points="8,-97.7 8,-119.7 224,-119.7 224,-97.7 8,-97.7"/>
<polygon fill="none" stroke="#000000" points="8,-97.7 8,-119.7 224,-119.7 224,-97.7 8,-97.7"/>
<image xlink:href="../../images/foreignKeys.png" width="11px" height="12px" preserveAspectRatio="xMinYMin meet" x="13" y="-114.7"/>
<text text-anchor="start" x="28" y="-104.8" font-family="Helvetica,sans-Serif" font-size="11.00" fill="#000000">reports_to_id</text>
<polygon fill="#ffffff" stroke="transparent" points="8,-75.7 8,-97.7 224,-97.7 224,-75.7 8,-75.7"/>
<polygon fill="none" stroke="#000000" points="8,-75.7 8,-97.7 224,-97.7 224,-75.7 8,-75.7"/>
<text text-anchor="start" x="28" y="-82.8" font-family="Helvetica,sans-Serif" font-size="11.00" fill="#000000">is_group</text>
<polygon fill="none" stroke="#000000" points="8,-56.7 8,-75.7 224,-75.7 224,-56.7 8,-56.7"/>
<text text-anchor="start" x="11" y="-62.8" font-family="Helvetica,sans-Serif" font-size="11.00" fill="#000000">...</text>
<polygon fill="#ffffff" stroke="transparent" points="8,-37.7 8,-56.7 104,-56.7 104,-37.7 8,-37.7"/>
<polygon fill="none" stroke="#000000" points="8,-37.7 8,-56.7 104,-56.7 104,-37.7 8,-37.7"/>
<text text-anchor="start" x="11" y="-43.8" font-family="Helvetica,sans-Serif" font-size="11.00" fill="#000000">&lt; 2</text>
<polygon fill="#ffffff" stroke="transparent" points="104,-37.7 104,-56.7 153,-56.7 153,-37.7 104,-37.7"/>
<polygon fill="none" stroke="#000000" points="104,-37.7 104,-56.7 153,-56.7 153,-37.7 104,-37.7"/>
<text text-anchor="start" x="143.8862" y="-43.8" font-family="Helvetica,sans-Serif" font-size="11.00" fill="#000000"> &#160;</text>
<polygon fill="#ffffff" stroke="transparent" points="153,-37.7 153,-56.7 224,-56.7 224,-37.7 153,-37.7"/>
<polygon fill="none" stroke="#000000" points="153,-37.7 153,-56.7 224,-56.7 224,-37.7 153,-37.7"/>
<text text-anchor="start" x="193.1755" y="-43.8" font-family="Helvetica,sans-Serif" font-size="11.00" fill="#000000">214 &gt;</text>
</a>
</g>
</g>
<!-- surveyquestionoptions&#45;&gt;users -->
<g id="edge3" class="edge">
<title>surveyquestionoptions:w&#45;&gt;users:e</title>
<path fill="none" stroke="#000000" d="M464.0294,-244.9233C380.5114,-247.5242 351.1024,-271.5044 265,-245.7 244.0999,-239.4363 245.8186,-218.7 224,-218.7"/>
<polygon fill="#000000" stroke="#000000" points="470.501,-244.8235 478.5556,-248.2996 474.5005,-244.7618 478.5,-244.7 478.5,-244.7 478.5,-244.7 474.5005,-244.7618 478.4444,-241.1004 470.501,-244.8235 470.501,-244.8235"/>
<ellipse fill="none" stroke="#000000" cx="467.3013" cy="-244.8729" rx="3.2" ry="3.2"/>
</g>
<!-- surveyquestionoptions&#45;&gt;users -->
<g id="edge4" class="edge">
<title>surveyquestionoptions:w&#45;&gt;users:e</title>
<path fill="none" stroke="#000000" d="M463.8957,-310.6868C377.7379,-310.4858 345.2333,-307.3622 265,-261.7 242.0502,-248.6389 250.4061,-218.7 224,-218.7"/>
<polygon fill="#000000" stroke="#000000" points="470.5,-310.6927 478.4967,-314.3 474.5,-310.6963 478.5,-310.7 478.5,-310.7 478.5,-310.7 474.5,-310.6963 478.5033,-307.1 470.5,-310.6927 470.5,-310.6927"/>
<ellipse fill="none" stroke="#000000" cx="467.3" cy="-310.6898" rx="3.2" ry="3.2"/>
</g>
<!-- surveyquestionoptions&#45;&gt;users -->
<g id="edge5" class="edge">
<title>surveyquestionoptions:w&#45;&gt;users:e</title>
<path fill="none" stroke="#000000" d="M463.9924,-332.8432C378.0363,-334.5118 338.973,-349.2455 265,-295.7 233.5933,-272.9662 262.7713,-218.7 224,-218.7"/>
<polygon fill="#000000" stroke="#000000" points="470.5004,-332.779 478.5356,-336.2998 474.5002,-332.7395 478.5,-332.7 478.5,-332.7 478.5,-332.7 474.5002,-332.7395 478.4644,-329.1002 470.5004,-332.779 470.5004,-332.779"/>
<ellipse fill="none" stroke="#000000" cx="467.3005" cy="-332.8106" rx="3.2" ry="3.2"/>
</g>
<!-- surveyquestions&#45;&gt;users -->
<g id="edge9" class="edge">
<title>surveyquestions:w&#45;&gt;users:e</title>
<path fill="none" stroke="#000000" d="M259.103,-139.2162C238.7145,-156.6639 261.143,-218.7 224,-218.7"/>
<polygon fill="#000000" stroke="#000000" points="265.3917,-137.1726 274.1127,-138.1237 269.1958,-135.9363 273,-134.7 273,-134.7 273,-134.7 269.1958,-135.9363 271.8873,-131.2763 265.3917,-137.1726 265.3917,-137.1726"/>
<ellipse fill="none" stroke="#000000" cx="262.3483" cy="-138.1616" rx="3.2" ry="3.2"/>
</g>
<!-- surveyquestions&#45;&gt;users -->
<g id="edge10" class="edge">
<title>surveyquestions:w&#45;&gt;users:e</title>
<path fill="none" stroke="#000000" d="M259.3131,-161.565C243.5154,-176.181 253.0857,-218.7 224,-218.7"/>
<polygon fill="#000000" stroke="#000000" points="265.462,-159.3794 274.2057,-160.0921 269.231,-158.0397 273,-156.7 273,-156.7 273,-156.7 269.231,-158.0397 271.7943,-153.3079 265.462,-159.3794 265.462,-159.3794"/>
<ellipse fill="none" stroke="#000000" cx="262.4468" cy="-160.4512" rx="3.2" ry="3.2"/>
</g>
<!-- surveyquestions&#45;&gt;users -->
<g id="edge11" class="edge">
<title>surveyquestions:w&#45;&gt;users:e</title>
<path fill="none" stroke="#000000" d="M259.2637,-183.2885C246.3632,-193.7952 246.1826,-218.7 224,-218.7"/>
<polygon fill="#000000" stroke="#000000" points="265.4121,-181.2347 274.1406,-182.1145 269.2061,-179.9673 273,-178.7 273,-178.7 273,-178.7 269.2061,-179.9673 271.8594,-175.2855 265.4121,-181.2347 265.4121,-181.2347"/>
<ellipse fill="none" stroke="#000000" cx="262.377" cy="-182.2486" rx="3.2" ry="3.2"/>
</g>
<!-- surveyquestionoptions_audit -->
<g id="node5" class="node">
<title>surveyquestionoptions_audit</title>
<g id="a_node5"><a xlink:href="../../tables/surveyquestionoptions_audit.html" xlink:title="surveyquestionoptions_audit" target="_top">
<polygon fill="#ffffff" stroke="transparent" points="841,-472.2 841,-577.2 1058,-577.2 1058,-472.2 841,-472.2"/>
<polygon fill="#f5f5f5" stroke="transparent" points="841.5,-553.7 841.5,-576.7 1058.5,-576.7 1058.5,-553.7 841.5,-553.7"/>
<polygon fill="none" stroke="#000000" points="841.5,-553.7 841.5,-576.7 1058.5,-576.7 1058.5,-553.7 841.5,-553.7"/>
<text text-anchor="start" x="846.5" y="-562.8" font-family="Helvetica,sans-Serif" font-weight="bold" font-size="11.00" fill="#000000">surveyquestionoptions_audit</text>
<text text-anchor="start" x="1023.5437" y="-561.8" font-family="Helvetica,sans-Serif" font-size="11.00" fill="#000000">[table]</text>
<polygon fill="none" stroke="#000000" points="841.5,-531.7 841.5,-553.7 1058.5,-553.7 1058.5,-531.7 841.5,-531.7"/>
<image xlink:href="../../images/primaryKeys.png" width="11px" height="12px" preserveAspectRatio="xMinYMin meet" x="846.5" y="-548.7"/>
<text text-anchor="start" x="861.5" y="-538.8" font-family="Helvetica,sans-Serif" font-size="11.00" fill="#000000">id</text>
<polygon fill="#c0c0c0" stroke="transparent" points="841.5,-509.7 841.5,-531.7 1058.5,-531.7 1058.5,-509.7 841.5,-509.7"/>
<polygon fill="none" stroke="#000000" points="841.5,-509.7 841.5,-531.7 1058.5,-531.7 1058.5,-509.7 841.5,-509.7"/>
<image xlink:href="../../images/foreignKeys.png" width="11px" height="12px" preserveAspectRatio="xMinYMin meet" x="846.5" y="-526.7"/>
<text text-anchor="start" x="861.5" y="-516.8" font-family="Helvetica,sans-Serif" font-size="11.00" fill="#000000">parent_id</text>
<polygon fill="none" stroke="#000000" points="841.5,-490.7 841.5,-509.7 1058.5,-509.7 1058.5,-490.7 841.5,-490.7"/>
<text text-anchor="start" x="844.5" y="-496.8" font-family="Helvetica,sans-Serif" font-size="11.00" fill="#000000">...</text>
<polygon fill="#ffffff" stroke="transparent" points="841.5,-471.7 841.5,-490.7 948.5,-490.7 948.5,-471.7 841.5,-471.7"/>
<polygon fill="none" stroke="#000000" points="841.5,-471.7 841.5,-490.7 948.5,-490.7 948.5,-471.7 841.5,-471.7"/>
<text text-anchor="start" x="844.5" y="-477.8" font-family="Helvetica,sans-Serif" font-size="11.00" fill="#000000">&lt; 1</text>
<polygon fill="#ffffff" stroke="transparent" points="948.5,-471.7 948.5,-490.7 1003.5,-490.7 1003.5,-471.7 948.5,-471.7"/>
<polygon fill="none" stroke="#000000" points="948.5,-471.7 948.5,-490.7 1003.5,-490.7 1003.5,-471.7 948.5,-471.7"/>
<text text-anchor="start" x="994.3862" y="-477.8" font-family="Helvetica,sans-Serif" font-size="11.00" fill="#000000"> &#160;</text>
<polygon fill="#ffffff" stroke="transparent" points="1003.5,-471.7 1003.5,-490.7 1058.5,-490.7 1058.5,-471.7 1003.5,-471.7"/>
<polygon fill="none" stroke="#000000" points="1003.5,-471.7 1003.5,-490.7 1058.5,-490.7 1058.5,-471.7 1003.5,-471.7"/>
<text text-anchor="start" x="1049.3862" y="-477.8" font-family="Helvetica,sans-Serif" font-size="11.00" fill="#000000"> &#160;</text>
</a>
</g>
</g>
<!-- surveyquestionoptions_audit&#45;&gt;surveyquestionoptions -->
<g id="edge7" class="edge">
<title>surveyquestionoptions_audit:w&#45;&gt;surveyquestionoptions:e</title>
<path fill="none" stroke="#000000" d="M827.0886,-519.321C797.3793,-513.0378 792.749,-486.3637 764,-461.7 744.0802,-444.6108 747.7458,-420.7 721.5,-420.7"/>
<polygon fill="#000000" stroke="#000000" points="833.5364,-519.9379 841.1571,-524.2836 837.5182,-520.319 841.5,-520.7 841.5,-520.7 841.5,-520.7 837.5182,-520.319 841.8429,-517.1164 833.5364,-519.9379 833.5364,-519.9379"/>
<ellipse fill="none" stroke="#000000" cx="830.3509" cy="-519.6331" rx="3.2" ry="3.2"/>
</g>
<!-- surveyquestionoptions_surveyquestionresponses -->
<g id="node6" class="node">
<title>surveyquestionoptions_surveyquestionresponses</title>
<g id="a_node6"><a xlink:href="../../tables/surveyquestionoptions_surveyquestionresponses.html" xlink:title="surveyquestionoptions_surveyquestionresponses" target="_top">
<polygon fill="#ffffff" stroke="transparent" points="772,-324.2 772,-451.2 1127,-451.2 1127,-324.2 772,-324.2"/>
<polygon fill="#f5f5f5" stroke="transparent" points="772.5,-427.7 772.5,-450.7 1127.5,-450.7 1127.5,-427.7 772.5,-427.7"/>
<polygon fill="none" stroke="#000000" points="772.5,-427.7 772.5,-450.7 1127.5,-450.7 1127.5,-427.7 772.5,-427.7"/>
<text text-anchor="start" x="777.5" y="-436.8" font-family="Helvetica,sans-Serif" font-weight="bold" font-size="11.00" fill="#000000">surveyquestionoptions_surveyquestionresponses</text>
<text text-anchor="start" x="1092.5437" y="-435.8" font-family="Helvetica,sans-Serif" font-size="11.00" fill="#000000">[table]</text>
<polygon fill="none" stroke="#000000" points="772.5,-405.7 772.5,-427.7 1127.5,-427.7 1127.5,-405.7 772.5,-405.7"/>
<image xlink:href="../../images/primaryKeys.png" width="11px" height="12px" preserveAspectRatio="xMinYMin meet" x="777.5" y="-422.7"/>
<text text-anchor="start" x="792.5" y="-412.8" font-family="Helvetica,sans-Serif" font-size="11.00" fill="#000000">id</text>
<polygon fill="#ffffff" stroke="transparent" points="772.5,-383.7 772.5,-405.7 1127.5,-405.7 1127.5,-383.7 772.5,-383.7"/>
<polygon fill="none" stroke="#000000" points="772.5,-383.7 772.5,-405.7 1127.5,-405.7 1127.5,-383.7 772.5,-383.7"/>
<image xlink:href="../../images/foreignKeys.png" width="11px" height="12px" preserveAspectRatio="xMinYMin meet" x="777.5" y="-400.7"/>
<text text-anchor="start" x="792.5" y="-390.8" font-family="Helvetica,sans-Serif" font-size="11.00" fill="#000000">surveyq72c7options_ida</text>
<polygon fill="#ffffff" stroke="transparent" points="772.5,-361.7 772.5,-383.7 1127.5,-383.7 1127.5,-361.7 772.5,-361.7"/>
<polygon fill="none" stroke="#000000" points="772.5,-361.7 772.5,-383.7 1127.5,-383.7 1127.5,-361.7 772.5,-361.7"/>
<image xlink:href="../../images/foreignKeys.png" width="11px" height="12px" preserveAspectRatio="xMinYMin meet" x="777.5" y="-378.7"/>
<text text-anchor="start" x="792.5" y="-368.8" font-family="Helvetica,sans-Serif" font-size="11.00" fill="#000000">surveyq10d4sponses_idb</text>
<polygon fill="none" stroke="#000000" points="772.5,-342.7 772.5,-361.7 1127.5,-361.7 1127.5,-342.7 772.5,-342.7"/>
<text text-anchor="start" x="775.5" y="-348.8" font-family="Helvetica,sans-Serif" font-size="11.00" fill="#000000">...</text>
<polygon fill="#ffffff" stroke="transparent" points="772.5,-323.7 772.5,-342.7 948.5,-342.7 948.5,-323.7 772.5,-323.7"/>
<polygon fill="none" stroke="#000000" points="772.5,-323.7 772.5,-342.7 948.5,-342.7 948.5,-323.7 772.5,-323.7"/>
<text text-anchor="start" x="775.5" y="-329.8" font-family="Helvetica,sans-Serif" font-size="11.00" fill="#000000">&lt; 2</text>
<polygon fill="#ffffff" stroke="transparent" points="948.5,-323.7 948.5,-342.7 1037.5,-342.7 1037.5,-323.7 948.5,-323.7"/>
<polygon fill="none" stroke="#000000" points="948.5,-323.7 948.5,-342.7 1037.5,-342.7 1037.5,-323.7 948.5,-323.7"/>
<text text-anchor="start" x="1028.3862" y="-329.8" font-family="Helvetica,sans-Serif" font-size="11.00" fill="#000000"> &#160;</text>
<polygon fill="#ffffff" stroke="transparent" points="1037.5,-323.7 1037.5,-342.7 1127.5,-342.7 1127.5,-323.7 1037.5,-323.7"/>
<polygon fill="none" stroke="#000000" points="1037.5,-323.7 1037.5,-342.7 1127.5,-342.7 1127.5,-323.7 1037.5,-323.7"/>
<text text-anchor="start" x="1118.3862" y="-329.8" font-family="Helvetica,sans-Serif" font-size="11.00" fill="#000000"> &#160;</text>
</a>
</g>
</g>
<!-- surveyquestionoptions_surveyquestionresponses&#45;&gt;surveyquestionoptions -->
<g id="edge8" class="edge">
<title>surveyquestionoptions_surveyquestionresponses:w&#45;&gt;surveyquestionoptions:e</title>
<path fill="none" stroke="#000000" d="M758.1325,-398.3152C745.6124,-405.4593 740.9792,-420.7 721.5,-420.7"/>
<polygon fill="#000000" stroke="#000000" points="764.7418,-396.6522 773.3785,-398.1912 768.6209,-395.6761 772.5,-394.7 772.5,-394.7 772.5,-394.7 768.6209,-395.6761 771.6215,-391.2088 764.7418,-396.6522 764.7418,-396.6522"/>
<ellipse fill="none" stroke="#000000" cx="761.6386" cy="-397.433" rx="3.2" ry="3.2"/>
</g>
</g>
</svg>
