<?xml version="1.0" encoding="UTF-8" standalone="no"?>
<!DOCTYPE svg PUBLIC "-//W3C//DTD SVG 1.1//EN"
 "http://www.w3.org/Graphics/SVG/1.1/DTD/svg11.dtd">
<!-- Generated by graphviz version 2.40.1 (20161225.0304)
 -->
<!-- Title: oneDegreeRelationshipsDiagram Pages: 1 -->
<svg width="573pt" height="316pt"
 viewBox="0.00 0.00 573.00 316.20" xmlns="http://www.w3.org/2000/svg" xmlns:xlink="http://www.w3.org/1999/xlink">
<g id="graph0" class="graph" transform="scale(1 1) rotate(0) translate(4 312.2)">
<title>oneDegreeRelationshipsDiagram</title>
<polygon fill="#ffffff" stroke="transparent" points="-4,4 -4,-312.2 569,-312.2 569,4 -4,4"/>
<text text-anchor="middle" x="72.4936" y="-7.3" font-family="Helvetica,sans-Serif" font-size="11.00" fill="#000000">Generated by SchemaSpy</text>
<!-- surveyquestionresponses_audit -->
<g id="node1" class="node">
<title>surveyquestionresponses_audit</title>
<g id="a_node1"><a xlink:href="../../tables/surveyquestionresponses_audit.html" xlink:title="surveyquestionresponses_audit" target="_top">
<polygon fill="#ffffff" stroke="transparent" points="251,-38.2 251,-304.2 557,-304.2 557,-38.2 251,-38.2"/>
<polygon fill="#f5f5f5" stroke="transparent" points="253,-279.2 253,-302.2 555,-302.2 555,-279.2 253,-279.2"/>
<polygon fill="none" stroke="#000000" points="253,-279.2 253,-302.2 555,-302.2 555,-279.2 253,-279.2"/>
<text text-anchor="start" x="258" y="-288.3" font-family="Helvetica,sans-Serif" font-weight="bold" font-size="11.00" fill="#000000">surveyquestionresponses_audit</text>
<text text-anchor="start" x="520.0437" y="-287.3" font-family="Helvetica,sans-Serif" font-size="11.00" fill="#000000">[table]</text>
<polygon fill="none" stroke="#000000" points="253,-257.2 253,-279.2 488,-279.2 488,-257.2 253,-257.2"/>
<image xlink:href="../../images/primaryKeys.png" width="11px" height="12px" preserveAspectRatio="xMinYMin meet" x="258" y="-274.2"/>
<text text-anchor="start" x="273" y="-264.3" font-family="Helvetica,sans-Serif" font-size="11.00" fill="#000000">id</text>
<polygon fill="none" stroke="#000000" points="488,-257.2 488,-279.2 555,-279.2 555,-257.2 488,-257.2"/>
<text text-anchor="start" x="491" y="-264.9" font-family="Helvetica,sans-Serif" font-size="11.00" fill="#000000">char[36]</text>
<polygon fill="#ffffff" stroke="transparent" points="253,-235.2 253,-257.2 488,-257.2 488,-235.2 253,-235.2"/>
<polygon fill="none" stroke="#000000" points="253,-235.2 253,-257.2 488,-257.2 488,-235.2 253,-235.2"/>
<image xlink:href="../../images/foreignKeys.png" width="11px" height="12px" preserveAspectRatio="xMinYMin meet" x="258" y="-252.2"/>
<text text-anchor="start" x="273" y="-242.3" font-family="Helvetica,sans-Serif" font-size="11.00" fill="#000000">parent_id</text>
<polygon fill="none" stroke="#000000" points="488,-235.2 488,-257.2 555,-257.2 555,-235.2 488,-235.2"/>
<text text-anchor="start" x="491" y="-242.9" font-family="Helvetica,sans-Serif" font-size="11.00" fill="#000000">char[36]</text>
<polygon fill="none" stroke="#000000" points="253,-213.2 253,-235.2 488,-235.2 488,-213.2 253,-213.2"/>
<text text-anchor="start" x="273" y="-220.3" font-family="Helvetica,sans-Serif" font-size="11.00" fill="#000000">date_created</text>
<polygon fill="none" stroke="#000000" points="488,-213.2 488,-235.2 555,-235.2 555,-213.2 488,-213.2"/>
<text text-anchor="start" x="491" y="-220.9" font-family="Helvetica,sans-Serif" font-size="11.00" fill="#000000">datetime[26]</text>
<polygon fill="none" stroke="#000000" points="253,-191.2 253,-213.2 488,-213.2 488,-191.2 253,-191.2"/>
<text text-anchor="start" x="273" y="-198.3" font-family="Helvetica,sans-Serif" font-size="11.00" fill="#000000">created_by</text>
<polygon fill="none" stroke="#000000" points="488,-191.2 488,-213.2 555,-213.2 555,-191.2 488,-191.2"/>
<text text-anchor="start" x="491" y="-198.9" font-family="Helvetica,sans-Serif" font-size="11.00" fill="#000000">varchar[36]</text>
<polygon fill="none" stroke="#000000" points="253,-169.2 253,-191.2 488,-191.2 488,-169.2 253,-169.2"/>
<text text-anchor="start" x="273" y="-176.3" font-family="Helvetica,sans-Serif" font-size="11.00" fill="#000000">field_name</text>
<polygon fill="none" stroke="#000000" points="488,-169.2 488,-191.2 555,-191.2 555,-169.2 488,-169.2"/>
<text text-anchor="start" x="490.9365" y="-176.9" font-family="Helvetica,sans-Serif" font-size="11.00" fill="#000000">varchar[100]</text>
<polygon fill="none" stroke="#000000" points="253,-147.2 253,-169.2 488,-169.2 488,-147.2 253,-147.2"/>
<text text-anchor="start" x="273" y="-154.3" font-family="Helvetica,sans-Serif" font-size="11.00" fill="#000000">data_type</text>
<polygon fill="none" stroke="#000000" points="488,-147.2 488,-169.2 555,-169.2 555,-147.2 488,-147.2"/>
<text text-anchor="start" x="490.9365" y="-154.9" font-family="Helvetica,sans-Serif" font-size="11.00" fill="#000000">varchar[100]</text>
<polygon fill="none" stroke="#000000" points="253,-125.2 253,-147.2 488,-147.2 488,-125.2 253,-125.2"/>
<text text-anchor="start" x="273" y="-132.3" font-family="Helvetica,sans-Serif" font-size="11.00" fill="#000000">before_value_string</text>
<polygon fill="none" stroke="#000000" points="488,-125.2 488,-147.2 555,-147.2 555,-125.2 488,-125.2"/>
<text text-anchor="start" x="490.9365" y="-132.9" font-family="Helvetica,sans-Serif" font-size="11.00" fill="#000000">varchar[255]</text>
<polygon fill="none" stroke="#000000" points="253,-103.2 253,-125.2 488,-125.2 488,-103.2 253,-103.2"/>
<text text-anchor="start" x="273" y="-110.3" font-family="Helvetica,sans-Serif" font-size="11.00" fill="#000000">after_value_string</text>
<polygon fill="none" stroke="#000000" points="488,-103.2 488,-125.2 555,-125.2 555,-103.2 488,-103.2"/>
<text text-anchor="start" x="490.9365" y="-110.9" font-family="Helvetica,sans-Serif" font-size="11.00" fill="#000000">varchar[255]</text>
<polygon fill="none" stroke="#000000" points="253,-81.2 253,-103.2 488,-103.2 488,-81.2 253,-81.2"/>
<text text-anchor="start" x="273" y="-88.3" font-family="Helvetica,sans-Serif" font-size="11.00" fill="#000000">before_value_text</text>
<polygon fill="none" stroke="#000000" points="488,-81.2 488,-103.2 555,-103.2 555,-81.2 488,-81.2"/>
<text text-anchor="start" x="491" y="-88.9" font-family="Helvetica,sans-Serif" font-size="11.00" fill="#000000">text[65535]</text>
<polygon fill="none" stroke="#000000" points="253,-59.2 253,-81.2 488,-81.2 488,-59.2 253,-59.2"/>
<text text-anchor="start" x="273" y="-66.3" font-family="Helvetica,sans-Serif" font-size="11.00" fill="#000000">after_value_text</text>
<polygon fill="none" stroke="#000000" points="488,-59.2 488,-81.2 555,-81.2 555,-59.2 488,-59.2"/>
<text text-anchor="start" x="491" y="-66.9" font-family="Helvetica,sans-Serif" font-size="11.00" fill="#000000">text[65535]</text>
<polygon fill="#ffffff" stroke="transparent" points="253,-40.2 253,-59.2 375,-59.2 375,-40.2 253,-40.2"/>
<polygon fill="none" stroke="#000000" points="253,-40.2 253,-59.2 375,-59.2 375,-40.2 253,-40.2"/>
<text text-anchor="start" x="256" y="-46.3" font-family="Helvetica,sans-Serif" font-size="11.00" fill="#000000">&lt; 1</text>
<polygon fill="#ffffff" stroke="transparent" points="375,-40.2 375,-59.2 488,-59.2 488,-40.2 375,-40.2"/>
<polygon fill="none" stroke="#000000" points="375,-40.2 375,-59.2 488,-59.2 488,-40.2 375,-40.2"/>
<text text-anchor="start" x="478.8862" y="-46.3" font-family="Helvetica,sans-Serif" font-size="11.00" fill="#000000"> &#160;</text>
<polygon fill="#ffffff" stroke="transparent" points="488,-40.2 488,-59.2 555,-59.2 555,-40.2 488,-40.2"/>
<polygon fill="none" stroke="#000000" points="488,-40.2 488,-59.2 555,-59.2 555,-40.2 488,-40.2"/>
<text text-anchor="start" x="536.4053" y="-46.3" font-family="Helvetica,sans-Serif" font-size="11.00" fill="#000000">0 &gt;</text>
<polygon fill="none" stroke="#000000" stroke-width="2" points="252,-39.2 252,-303.2 556,-303.2 556,-39.2 252,-39.2"/>
</a>
</g>
</g>
<!-- surveyquestionresponses -->
<g id="node2" class="node">
<title>surveyquestionresponses</title>
<g id="a_node2"><a xlink:href="../../tables/surveyquestionresponses.html" xlink:title="surveyquestionresponses" target="_top">
<polygon fill="#ffffff" stroke="transparent" points="8,-109.7 8,-280.7 202,-280.7 202,-109.7 8,-109.7"/>
<polygon fill="#f5f5f5" stroke="transparent" points="8,-257.2 8,-280.2 202,-280.2 202,-257.2 8,-257.2"/>
<polygon fill="none" stroke="#000000" points="8,-257.2 8,-280.2 202,-280.2 202,-257.2 8,-257.2"/>
<text text-anchor="start" x="13" y="-266.3" font-family="Helvetica,sans-Serif" font-weight="bold" font-size="11.00" fill="#000000">surveyquestionresponses</text>
<text text-anchor="start" x="167.0437" y="-265.3" font-family="Helvetica,sans-Serif" font-size="11.00" fill="#000000">[table]</text>
<polygon fill="none" stroke="#000000" points="8,-235.2 8,-257.2 202,-257.2 202,-235.2 8,-235.2"/>
<image xlink:href="../../images/primaryKeys.png" width="11px" height="12px" preserveAspectRatio="xMinYMin meet" x="13" y="-252.2"/>
<text text-anchor="start" x="28" y="-242.3" font-family="Helvetica,sans-Serif" font-size="11.00" fill="#000000">id</text>
<polygon fill="#c0c0c0" stroke="transparent" points="8,-213.2 8,-235.2 202,-235.2 202,-213.2 8,-213.2"/>
<polygon fill="none" stroke="#000000" points="8,-213.2 8,-235.2 202,-235.2 202,-213.2 8,-213.2"/>
<image xlink:href="../../images/foreignKeys.png" width="11px" height="12px" preserveAspectRatio="xMinYMin meet" x="13" y="-230.2"/>
<text text-anchor="start" x="28" y="-220.3" font-family="Helvetica,sans-Serif" font-size="11.00" fill="#000000">modified_user_id</text>
<polygon fill="#c0c0c0" stroke="transparent" points="8,-191.2 8,-213.2 202,-213.2 202,-191.2 8,-191.2"/>
<polygon fill="none" stroke="#000000" points="8,-191.2 8,-213.2 202,-213.2 202,-191.2 8,-191.2"/>
<image xlink:href="../../images/foreignKeys.png" width="11px" height="12px" preserveAspectRatio="xMinYMin meet" x="13" y="-208.2"/>
<text text-anchor="start" x="28" y="-198.3" font-family="Helvetica,sans-Serif" font-size="11.00" fill="#000000">created_by</text>
<polygon fill="#c0c0c0" stroke="transparent" points="8,-169.2 8,-191.2 202,-191.2 202,-169.2 8,-169.2"/>
<polygon fill="none" stroke="#000000" points="8,-169.2 8,-191.2 202,-191.2 202,-169.2 8,-169.2"/>
<image xlink:href="../../images/foreignKeys.png" width="11px" height="12px" preserveAspectRatio="xMinYMin meet" x="13" y="-186.2"/>
<text text-anchor="start" x="28" y="-176.3" font-family="Helvetica,sans-Serif" font-size="11.00" fill="#000000">assigned_user_id</text>
<polygon fill="none" stroke="#000000" points="8,-147.2 8,-169.2 202,-169.2 202,-147.2 8,-147.2"/>
<image xlink:href="../../images/foreignKeys.png" width="11px" height="12px" preserveAspectRatio="xMinYMin meet" x="13" y="-164.2"/>
<text text-anchor="start" x="28" y="-154.3" font-family="Helvetica,sans-Serif" font-size="11.00" fill="#000000">surveyresponse_id</text>
<polygon fill="none" stroke="#000000" points="8,-128.2 8,-147.2 202,-147.2 202,-128.2 8,-128.2"/>
<text text-anchor="start" x="11" y="-134.3" font-family="Helvetica,sans-Serif" font-size="11.00" fill="#000000">...</text>
<polygon fill="#ffffff" stroke="transparent" points="8,-109.2 8,-128.2 99,-128.2 99,-109.2 8,-109.2"/>
<polygon fill="none" stroke="#000000" points="8,-109.2 8,-128.2 99,-128.2 99,-109.2 8,-109.2"/>
<text text-anchor="start" x="11" y="-115.3" font-family="Helvetica,sans-Serif" font-size="11.00" fill="#000000">&lt; 4</text>
<polygon fill="#ffffff" stroke="transparent" points="99,-109.2 99,-128.2 146,-128.2 146,-109.2 99,-109.2"/>
<polygon fill="none" stroke="#000000" points="99,-109.2 99,-128.2 146,-128.2 146,-109.2 99,-109.2"/>
<text text-anchor="start" x="136.8862" y="-115.3" font-family="Helvetica,sans-Serif" font-size="11.00" fill="#000000"> &#160;</text>
<polygon fill="#ffffff" stroke="transparent" points="146,-109.2 146,-128.2 202,-128.2 202,-109.2 146,-109.2"/>
<polygon fill="none" stroke="#000000" points="146,-109.2 146,-128.2 202,-128.2 202,-109.2 146,-109.2"/>
<text text-anchor="start" x="183.4053" y="-115.3" font-family="Helvetica,sans-Serif" font-size="11.00" fill="#000000">3 &gt;</text>
</a>
</g>
</g>
<!-- surveyquestionresponses_audit&#45;&gt;surveyquestionresponses -->
<g id="edge1" class="edge">
<title>surveyquestionresponses_audit:w&#45;&gt;surveyquestionresponses:e</title>
<path fill="none" stroke="#000000" d="M238.276,-246.2C226.2815,-246.2 218.8229,-246.2 202,-246.2"/>
<polygon fill="#000000" stroke="#000000" points="245,-246.2001 253,-249.8 249,-246.2 253,-246.2 253,-246.2 253,-246.2 249,-246.2 253,-242.6 245,-246.2001 245,-246.2001"/>
<ellipse fill="none" stroke="#000000" cx="241.8" cy="-246.2001" rx="3.2" ry="3.2"/>
</g>
</g>
</svg>
