<?xml version="1.0" encoding="UTF-8" standalone="no"?>
<!DOCTYPE svg PUBLIC "-//W3C//DTD SVG 1.1//EN"
 "http://www.w3.org/Graphics/SVG/1.1/DTD/svg11.dtd">
<!-- Generated by graphviz version 2.40.1 (20161225.0304)
 -->
<!-- Title: oneDegreeRelationshipsDiagram Pages: 1 -->
<svg width="481pt" height="316pt"
 viewBox="0.00 0.00 481.00 316.20" xmlns="http://www.w3.org/2000/svg" xmlns:xlink="http://www.w3.org/1999/xlink">
<g id="graph0" class="graph" transform="scale(1 1) rotate(0) translate(4 312.2)">
<title>oneDegreeRelationshipsDiagram</title>
<polygon fill="#ffffff" stroke="transparent" points="-4,4 -4,-312.2 477,-312.2 477,4 -4,4"/>
<text text-anchor="middle" x="72.4936" y="-7.3" font-family="Helvetica,sans-Serif" font-size="11.00" fill="#000000">Generated by SchemaSpy</text>
<!-- surveyresponses_audit -->
<g id="node1" class="node">
<title>surveyresponses_audit</title>
<g id="a_node1"><a xlink:href="../../tables/surveyresponses_audit.html" xlink:title="surveyresponses_audit" target="_top">
<polygon fill="#ffffff" stroke="transparent" points="218,-38.2 218,-304.2 465,-304.2 465,-38.2 218,-38.2"/>
<polygon fill="#f5f5f5" stroke="transparent" points="220.5,-279.2 220.5,-302.2 463.5,-302.2 463.5,-279.2 220.5,-279.2"/>
<polygon fill="none" stroke="#000000" points="220.5,-279.2 220.5,-302.2 463.5,-302.2 463.5,-279.2 220.5,-279.2"/>
<text text-anchor="start" x="225.5" y="-288.3" font-family="Helvetica,sans-Serif" font-weight="bold" font-size="11.00" fill="#000000">surveyresponses_audit</text>
<text text-anchor="start" x="428.5437" y="-287.3" font-family="Helvetica,sans-Serif" font-size="11.00" fill="#000000">[table]</text>
<polygon fill="none" stroke="#000000" points="220.5,-257.2 220.5,-279.2 396.5,-279.2 396.5,-257.2 220.5,-257.2"/>
<image xlink:href="../../images/primaryKeys.png" width="11px" height="12px" preserveAspectRatio="xMinYMin meet" x="225.5" y="-274.2"/>
<text text-anchor="start" x="240.5" y="-264.3" font-family="Helvetica,sans-Serif" font-size="11.00" fill="#000000">id</text>
<polygon fill="none" stroke="#000000" points="396.5,-257.2 396.5,-279.2 463.5,-279.2 463.5,-257.2 396.5,-257.2"/>
<text text-anchor="start" x="399.5" y="-264.9" font-family="Helvetica,sans-Serif" font-size="11.00" fill="#000000">char[36]</text>
<polygon fill="#ffffff" stroke="transparent" points="220.5,-235.2 220.5,-257.2 396.5,-257.2 396.5,-235.2 220.5,-235.2"/>
<polygon fill="none" stroke="#000000" points="220.5,-235.2 220.5,-257.2 396.5,-257.2 396.5,-235.2 220.5,-235.2"/>
<image xlink:href="../../images/foreignKeys.png" width="11px" height="12px" preserveAspectRatio="xMinYMin meet" x="225.5" y="-252.2"/>
<text text-anchor="start" x="240.5" y="-242.3" font-family="Helvetica,sans-Serif" font-size="11.00" fill="#000000">parent_id</text>
<polygon fill="none" stroke="#000000" points="396.5,-235.2 396.5,-257.2 463.5,-257.2 463.5,-235.2 396.5,-235.2"/>
<text text-anchor="start" x="399.5" y="-242.9" font-family="Helvetica,sans-Serif" font-size="11.00" fill="#000000">char[36]</text>
<polygon fill="none" stroke="#000000" points="220.5,-213.2 220.5,-235.2 396.5,-235.2 396.5,-213.2 220.5,-213.2"/>
<text text-anchor="start" x="240.5" y="-220.3" font-family="Helvetica,sans-Serif" font-size="11.00" fill="#000000">date_created</text>
<polygon fill="none" stroke="#000000" points="396.5,-213.2 396.5,-235.2 463.5,-235.2 463.5,-213.2 396.5,-213.2"/>
<text text-anchor="start" x="399.5" y="-220.9" font-family="Helvetica,sans-Serif" font-size="11.00" fill="#000000">datetime[26]</text>
<polygon fill="none" stroke="#000000" points="220.5,-191.2 220.5,-213.2 396.5,-213.2 396.5,-191.2 220.5,-191.2"/>
<text text-anchor="start" x="240.5" y="-198.3" font-family="Helvetica,sans-Serif" font-size="11.00" fill="#000000">created_by</text>
<polygon fill="none" stroke="#000000" points="396.5,-191.2 396.5,-213.2 463.5,-213.2 463.5,-191.2 396.5,-191.2"/>
<text text-anchor="start" x="399.5" y="-198.9" font-family="Helvetica,sans-Serif" font-size="11.00" fill="#000000">varchar[36]</text>
<polygon fill="none" stroke="#000000" points="220.5,-169.2 220.5,-191.2 396.5,-191.2 396.5,-169.2 220.5,-169.2"/>
<text text-anchor="start" x="240.5" y="-176.3" font-family="Helvetica,sans-Serif" font-size="11.00" fill="#000000">field_name</text>
<polygon fill="none" stroke="#000000" points="396.5,-169.2 396.5,-191.2 463.5,-191.2 463.5,-169.2 396.5,-169.2"/>
<text text-anchor="start" x="399.4365" y="-176.9" font-family="Helvetica,sans-Serif" font-size="11.00" fill="#000000">varchar[100]</text>
<polygon fill="none" stroke="#000000" points="220.5,-147.2 220.5,-169.2 396.5,-169.2 396.5,-147.2 220.5,-147.2"/>
<text text-anchor="start" x="240.5" y="-154.3" font-family="Helvetica,sans-Serif" font-size="11.00" fill="#000000">data_type</text>
<polygon fill="none" stroke="#000000" points="396.5,-147.2 396.5,-169.2 463.5,-169.2 463.5,-147.2 396.5,-147.2"/>
<text text-anchor="start" x="399.4365" y="-154.9" font-family="Helvetica,sans-Serif" font-size="11.00" fill="#000000">varchar[100]</text>
<polygon fill="none" stroke="#000000" points="220.5,-125.2 220.5,-147.2 396.5,-147.2 396.5,-125.2 220.5,-125.2"/>
<text text-anchor="start" x="240.5" y="-132.3" font-family="Helvetica,sans-Serif" font-size="11.00" fill="#000000">before_value_string</text>
<polygon fill="none" stroke="#000000" points="396.5,-125.2 396.5,-147.2 463.5,-147.2 463.5,-125.2 396.5,-125.2"/>
<text text-anchor="start" x="399.4365" y="-132.9" font-family="Helvetica,sans-Serif" font-size="11.00" fill="#000000">varchar[255]</text>
<polygon fill="none" stroke="#000000" points="220.5,-103.2 220.5,-125.2 396.5,-125.2 396.5,-103.2 220.5,-103.2"/>
<text text-anchor="start" x="240.5" y="-110.3" font-family="Helvetica,sans-Serif" font-size="11.00" fill="#000000">after_value_string</text>
<polygon fill="none" stroke="#000000" points="396.5,-103.2 396.5,-125.2 463.5,-125.2 463.5,-103.2 396.5,-103.2"/>
<text text-anchor="start" x="399.4365" y="-110.9" font-family="Helvetica,sans-Serif" font-size="11.00" fill="#000000">varchar[255]</text>
<polygon fill="none" stroke="#000000" points="220.5,-81.2 220.5,-103.2 396.5,-103.2 396.5,-81.2 220.5,-81.2"/>
<text text-anchor="start" x="240.5" y="-88.3" font-family="Helvetica,sans-Serif" font-size="11.00" fill="#000000">before_value_text</text>
<polygon fill="none" stroke="#000000" points="396.5,-81.2 396.5,-103.2 463.5,-103.2 463.5,-81.2 396.5,-81.2"/>
<text text-anchor="start" x="399.5" y="-88.9" font-family="Helvetica,sans-Serif" font-size="11.00" fill="#000000">text[65535]</text>
<polygon fill="none" stroke="#000000" points="220.5,-59.2 220.5,-81.2 396.5,-81.2 396.5,-59.2 220.5,-59.2"/>
<text text-anchor="start" x="240.5" y="-66.3" font-family="Helvetica,sans-Serif" font-size="11.00" fill="#000000">after_value_text</text>
<polygon fill="none" stroke="#000000" points="396.5,-59.2 396.5,-81.2 463.5,-81.2 463.5,-59.2 396.5,-59.2"/>
<text text-anchor="start" x="399.5" y="-66.9" font-family="Helvetica,sans-Serif" font-size="11.00" fill="#000000">text[65535]</text>
<polygon fill="#ffffff" stroke="transparent" points="220.5,-40.2 220.5,-59.2 312.5,-59.2 312.5,-40.2 220.5,-40.2"/>
<polygon fill="none" stroke="#000000" points="220.5,-40.2 220.5,-59.2 312.5,-59.2 312.5,-40.2 220.5,-40.2"/>
<text text-anchor="start" x="223.5" y="-46.3" font-family="Helvetica,sans-Serif" font-size="11.00" fill="#000000">&lt; 1</text>
<polygon fill="#ffffff" stroke="transparent" points="312.5,-40.2 312.5,-59.2 396.5,-59.2 396.5,-40.2 312.5,-40.2"/>
<polygon fill="none" stroke="#000000" points="312.5,-40.2 312.5,-59.2 396.5,-59.2 396.5,-40.2 312.5,-40.2"/>
<text text-anchor="start" x="387.3862" y="-46.3" font-family="Helvetica,sans-Serif" font-size="11.00" fill="#000000"> &#160;</text>
<polygon fill="#ffffff" stroke="transparent" points="396.5,-40.2 396.5,-59.2 463.5,-59.2 463.5,-40.2 396.5,-40.2"/>
<polygon fill="none" stroke="#000000" points="396.5,-40.2 396.5,-59.2 463.5,-59.2 463.5,-40.2 396.5,-40.2"/>
<text text-anchor="start" x="444.9053" y="-46.3" font-family="Helvetica,sans-Serif" font-size="11.00" fill="#000000">0 &gt;</text>
<polygon fill="none" stroke="#000000" stroke-width="2" points="219,-39.2 219,-303.2 464,-303.2 464,-39.2 219,-39.2"/>
</a>
</g>
</g>
<!-- surveyresponses -->
<g id="node2" class="node">
<title>surveyresponses</title>
<g id="a_node2"><a xlink:href="../../tables/surveyresponses.html" xlink:title="surveyresponses" target="_top">
<polygon fill="#ffffff" stroke="transparent" points="8,-87.7 8,-280.7 169,-280.7 169,-87.7 8,-87.7"/>
<polygon fill="#f5f5f5" stroke="transparent" points="8.5,-257.2 8.5,-280.2 169.5,-280.2 169.5,-257.2 8.5,-257.2"/>
<polygon fill="none" stroke="#000000" points="8.5,-257.2 8.5,-280.2 169.5,-280.2 169.5,-257.2 8.5,-257.2"/>
<text text-anchor="start" x="13.5" y="-266.3" font-family="Helvetica,sans-Serif" font-weight="bold" font-size="11.00" fill="#000000">surveyresponses</text>
<text text-anchor="start" x="134.5437" y="-265.3" font-family="Helvetica,sans-Serif" font-size="11.00" fill="#000000">[table]</text>
<polygon fill="none" stroke="#000000" points="8.5,-235.2 8.5,-257.2 169.5,-257.2 169.5,-235.2 8.5,-235.2"/>
<image xlink:href="../../images/primaryKeys.png" width="11px" height="12px" preserveAspectRatio="xMinYMin meet" x="13.5" y="-252.2"/>
<text text-anchor="start" x="28.5" y="-242.3" font-family="Helvetica,sans-Serif" font-size="11.00" fill="#000000">id</text>
<polygon fill="#c0c0c0" stroke="transparent" points="8.5,-213.2 8.5,-235.2 169.5,-235.2 169.5,-213.2 8.5,-213.2"/>
<polygon fill="none" stroke="#000000" points="8.5,-213.2 8.5,-235.2 169.5,-235.2 169.5,-213.2 8.5,-213.2"/>
<image xlink:href="../../images/foreignKeys.png" width="11px" height="12px" preserveAspectRatio="xMinYMin meet" x="13.5" y="-230.2"/>
<text text-anchor="start" x="28.5" y="-220.3" font-family="Helvetica,sans-Serif" font-size="11.00" fill="#000000">modified_user_id</text>
<polygon fill="#c0c0c0" stroke="transparent" points="8.5,-191.2 8.5,-213.2 169.5,-213.2 169.5,-191.2 8.5,-191.2"/>
<polygon fill="none" stroke="#000000" points="8.5,-191.2 8.5,-213.2 169.5,-213.2 169.5,-191.2 8.5,-191.2"/>
<image xlink:href="../../images/foreignKeys.png" width="11px" height="12px" preserveAspectRatio="xMinYMin meet" x="13.5" y="-208.2"/>
<text text-anchor="start" x="28.5" y="-198.3" font-family="Helvetica,sans-Serif" font-size="11.00" fill="#000000">created_by</text>
<polygon fill="#c0c0c0" stroke="transparent" points="8.5,-169.2 8.5,-191.2 169.5,-191.2 169.5,-169.2 8.5,-169.2"/>
<polygon fill="none" stroke="#000000" points="8.5,-169.2 8.5,-191.2 169.5,-191.2 169.5,-169.2 8.5,-169.2"/>
<image xlink:href="../../images/foreignKeys.png" width="11px" height="12px" preserveAspectRatio="xMinYMin meet" x="13.5" y="-186.2"/>
<text text-anchor="start" x="28.5" y="-176.3" font-family="Helvetica,sans-Serif" font-size="11.00" fill="#000000">assigned_user_id</text>
<polygon fill="none" stroke="#000000" points="8.5,-147.2 8.5,-169.2 169.5,-169.2 169.5,-147.2 8.5,-147.2"/>
<image xlink:href="../../images/foreignKeys.png" width="11px" height="12px" preserveAspectRatio="xMinYMin meet" x="13.5" y="-164.2"/>
<text text-anchor="start" x="28.5" y="-154.3" font-family="Helvetica,sans-Serif" font-size="11.00" fill="#000000">campaign_id</text>
<polygon fill="none" stroke="#000000" points="8.5,-125.2 8.5,-147.2 169.5,-147.2 169.5,-125.2 8.5,-125.2"/>
<image xlink:href="../../images/foreignKeys.png" width="11px" height="12px" preserveAspectRatio="xMinYMin meet" x="13.5" y="-142.2"/>
<text text-anchor="start" x="28.5" y="-132.3" font-family="Helvetica,sans-Serif" font-size="11.00" fill="#000000">survey_id</text>
<polygon fill="none" stroke="#000000" points="8.5,-106.2 8.5,-125.2 169.5,-125.2 169.5,-106.2 8.5,-106.2"/>
<text text-anchor="start" x="11.5" y="-112.3" font-family="Helvetica,sans-Serif" font-size="11.00" fill="#000000">...</text>
<polygon fill="#ffffff" stroke="transparent" points="8.5,-87.2 8.5,-106.2 82.5,-106.2 82.5,-87.2 8.5,-87.2"/>
<polygon fill="none" stroke="#000000" points="8.5,-87.2 8.5,-106.2 82.5,-106.2 82.5,-87.2 8.5,-87.2"/>
<text text-anchor="start" x="11.5" y="-93.3" font-family="Helvetica,sans-Serif" font-size="11.00" fill="#000000">&lt; 5</text>
<polygon fill="#ffffff" stroke="transparent" points="82.5,-87.2 82.5,-106.2 121.5,-106.2 121.5,-87.2 82.5,-87.2"/>
<polygon fill="none" stroke="#000000" points="82.5,-87.2 82.5,-106.2 121.5,-106.2 121.5,-87.2 82.5,-87.2"/>
<text text-anchor="start" x="112.3862" y="-93.3" font-family="Helvetica,sans-Serif" font-size="11.00" fill="#000000"> &#160;</text>
<polygon fill="#ffffff" stroke="transparent" points="121.5,-87.2 121.5,-106.2 169.5,-106.2 169.5,-87.2 121.5,-87.2"/>
<polygon fill="none" stroke="#000000" points="121.5,-87.2 121.5,-106.2 169.5,-106.2 169.5,-87.2 121.5,-87.2"/>
<text text-anchor="start" x="150.9053" y="-93.3" font-family="Helvetica,sans-Serif" font-size="11.00" fill="#000000">3 &gt;</text>
</a>
</g>
</g>
<!-- surveyresponses_audit&#45;&gt;surveyresponses -->
<g id="edge1" class="edge">
<title>surveyresponses_audit:w&#45;&gt;surveyresponses:e</title>
<path fill="none" stroke="#000000" d="M205.776,-246.2C193.7815,-246.2 186.3229,-246.2 169.5,-246.2"/>
<polygon fill="#000000" stroke="#000000" points="212.5,-246.2001 220.5,-249.8 216.5,-246.2 220.5,-246.2 220.5,-246.2 220.5,-246.2 216.5,-246.2 220.5,-242.6 212.5,-246.2001 212.5,-246.2001"/>
<ellipse fill="none" stroke="#000000" cx="209.3" cy="-246.2001" rx="3.2" ry="3.2"/>
</g>
</g>
</svg>
