<?xml version="1.0" encoding="UTF-8" standalone="no"?>
<!DOCTYPE svg PUBLIC "-//W3C//DTD SVG 1.1//EN"
 "http://www.w3.org/Graphics/SVG/1.1/DTD/svg11.dtd">
<!-- Generated by graphviz version 2.40.1 (20161225.0304)
 -->
<!-- Title: oneDegreeRelationshipsDiagram Pages: 1 -->
<svg width="537pt" height="316pt"
 viewBox="0.00 0.00 537.00 316.20" xmlns="http://www.w3.org/2000/svg" xmlns:xlink="http://www.w3.org/1999/xlink">
<g id="graph0" class="graph" transform="scale(1 1) rotate(0) translate(4 312.2)">
<title>oneDegreeRelationshipsDiagram</title>
<polygon fill="#ffffff" stroke="transparent" points="-4,4 -4,-312.2 533,-312.2 533,4 -4,4"/>
<text text-anchor="middle" x="72.4936" y="-7.3" font-family="Helvetica,sans-Serif" font-size="11.00" fill="#000000">Generated by SchemaSpy</text>
<!-- surveyquestionoptions_audit -->
<g id="node1" class="node">
<title>surveyquestionoptions_audit</title>
<g id="a_node1"><a xlink:href="../../tables/surveyquestionoptions_audit.html" xlink:title="surveyquestionoptions_audit" target="_top">
<polygon fill="#ffffff" stroke="transparent" points="233,-38.2 233,-304.2 521,-304.2 521,-38.2 233,-38.2"/>
<polygon fill="#f5f5f5" stroke="transparent" points="235,-279.2 235,-302.2 519,-302.2 519,-279.2 235,-279.2"/>
<polygon fill="none" stroke="#000000" points="235,-279.2 235,-302.2 519,-302.2 519,-279.2 235,-279.2"/>
<text text-anchor="start" x="240" y="-288.3" font-family="Helvetica,sans-Serif" font-weight="bold" font-size="11.00" fill="#000000">surveyquestionoptions_audit</text>
<text text-anchor="start" x="484.0437" y="-287.3" font-family="Helvetica,sans-Serif" font-size="11.00" fill="#000000">[table]</text>
<polygon fill="none" stroke="#000000" points="235,-257.2 235,-279.2 452,-279.2 452,-257.2 235,-257.2"/>
<image xlink:href="../../images/primaryKeys.png" width="11px" height="12px" preserveAspectRatio="xMinYMin meet" x="240" y="-274.2"/>
<text text-anchor="start" x="255" y="-264.3" font-family="Helvetica,sans-Serif" font-size="11.00" fill="#000000">id</text>
<polygon fill="none" stroke="#000000" points="452,-257.2 452,-279.2 519,-279.2 519,-257.2 452,-257.2"/>
<text text-anchor="start" x="455" y="-264.9" font-family="Helvetica,sans-Serif" font-size="11.00" fill="#000000">char[36]</text>
<polygon fill="#ffffff" stroke="transparent" points="235,-235.2 235,-257.2 452,-257.2 452,-235.2 235,-235.2"/>
<polygon fill="none" stroke="#000000" points="235,-235.2 235,-257.2 452,-257.2 452,-235.2 235,-235.2"/>
<image xlink:href="../../images/foreignKeys.png" width="11px" height="12px" preserveAspectRatio="xMinYMin meet" x="240" y="-252.2"/>
<text text-anchor="start" x="255" y="-242.3" font-family="Helvetica,sans-Serif" font-size="11.00" fill="#000000">parent_id</text>
<polygon fill="none" stroke="#000000" points="452,-235.2 452,-257.2 519,-257.2 519,-235.2 452,-235.2"/>
<text text-anchor="start" x="455" y="-242.9" font-family="Helvetica,sans-Serif" font-size="11.00" fill="#000000">char[36]</text>
<polygon fill="none" stroke="#000000" points="235,-213.2 235,-235.2 452,-235.2 452,-213.2 235,-213.2"/>
<text text-anchor="start" x="255" y="-220.3" font-family="Helvetica,sans-Serif" font-size="11.00" fill="#000000">date_created</text>
<polygon fill="none" stroke="#000000" points="452,-213.2 452,-235.2 519,-235.2 519,-213.2 452,-213.2"/>
<text text-anchor="start" x="455" y="-220.9" font-family="Helvetica,sans-Serif" font-size="11.00" fill="#000000">datetime[26]</text>
<polygon fill="none" stroke="#000000" points="235,-191.2 235,-213.2 452,-213.2 452,-191.2 235,-191.2"/>
<text text-anchor="start" x="255" y="-198.3" font-family="Helvetica,sans-Serif" font-size="11.00" fill="#000000">created_by</text>
<polygon fill="none" stroke="#000000" points="452,-191.2 452,-213.2 519,-213.2 519,-191.2 452,-191.2"/>
<text text-anchor="start" x="455" y="-198.9" font-family="Helvetica,sans-Serif" font-size="11.00" fill="#000000">varchar[36]</text>
<polygon fill="none" stroke="#000000" points="235,-169.2 235,-191.2 452,-191.2 452,-169.2 235,-169.2"/>
<text text-anchor="start" x="255" y="-176.3" font-family="Helvetica,sans-Serif" font-size="11.00" fill="#000000">field_name</text>
<polygon fill="none" stroke="#000000" points="452,-169.2 452,-191.2 519,-191.2 519,-169.2 452,-169.2"/>
<text text-anchor="start" x="454.9365" y="-176.9" font-family="Helvetica,sans-Serif" font-size="11.00" fill="#000000">varchar[100]</text>
<polygon fill="none" stroke="#000000" points="235,-147.2 235,-169.2 452,-169.2 452,-147.2 235,-147.2"/>
<text text-anchor="start" x="255" y="-154.3" font-family="Helvetica,sans-Serif" font-size="11.00" fill="#000000">data_type</text>
<polygon fill="none" stroke="#000000" points="452,-147.2 452,-169.2 519,-169.2 519,-147.2 452,-147.2"/>
<text text-anchor="start" x="454.9365" y="-154.9" font-family="Helvetica,sans-Serif" font-size="11.00" fill="#000000">varchar[100]</text>
<polygon fill="none" stroke="#000000" points="235,-125.2 235,-147.2 452,-147.2 452,-125.2 235,-125.2"/>
<text text-anchor="start" x="255" y="-132.3" font-family="Helvetica,sans-Serif" font-size="11.00" fill="#000000">before_value_string</text>
<polygon fill="none" stroke="#000000" points="452,-125.2 452,-147.2 519,-147.2 519,-125.2 452,-125.2"/>
<text text-anchor="start" x="454.9365" y="-132.9" font-family="Helvetica,sans-Serif" font-size="11.00" fill="#000000">varchar[255]</text>
<polygon fill="none" stroke="#000000" points="235,-103.2 235,-125.2 452,-125.2 452,-103.2 235,-103.2"/>
<text text-anchor="start" x="255" y="-110.3" font-family="Helvetica,sans-Serif" font-size="11.00" fill="#000000">after_value_string</text>
<polygon fill="none" stroke="#000000" points="452,-103.2 452,-125.2 519,-125.2 519,-103.2 452,-103.2"/>
<text text-anchor="start" x="454.9365" y="-110.9" font-family="Helvetica,sans-Serif" font-size="11.00" fill="#000000">varchar[255]</text>
<polygon fill="none" stroke="#000000" points="235,-81.2 235,-103.2 452,-103.2 452,-81.2 235,-81.2"/>
<text text-anchor="start" x="255" y="-88.3" font-family="Helvetica,sans-Serif" font-size="11.00" fill="#000000">before_value_text</text>
<polygon fill="none" stroke="#000000" points="452,-81.2 452,-103.2 519,-103.2 519,-81.2 452,-81.2"/>
<text text-anchor="start" x="455" y="-88.9" font-family="Helvetica,sans-Serif" font-size="11.00" fill="#000000">text[65535]</text>
<polygon fill="none" stroke="#000000" points="235,-59.2 235,-81.2 452,-81.2 452,-59.2 235,-59.2"/>
<text text-anchor="start" x="255" y="-66.3" font-family="Helvetica,sans-Serif" font-size="11.00" fill="#000000">after_value_text</text>
<polygon fill="none" stroke="#000000" points="452,-59.2 452,-81.2 519,-81.2 519,-59.2 452,-59.2"/>
<text text-anchor="start" x="455" y="-66.9" font-family="Helvetica,sans-Serif" font-size="11.00" fill="#000000">text[65535]</text>
<polygon fill="#ffffff" stroke="transparent" points="235,-40.2 235,-59.2 348,-59.2 348,-40.2 235,-40.2"/>
<polygon fill="none" stroke="#000000" points="235,-40.2 235,-59.2 348,-59.2 348,-40.2 235,-40.2"/>
<text text-anchor="start" x="238" y="-46.3" font-family="Helvetica,sans-Serif" font-size="11.00" fill="#000000">&lt; 1</text>
<polygon fill="#ffffff" stroke="transparent" points="348,-40.2 348,-59.2 452,-59.2 452,-40.2 348,-40.2"/>
<polygon fill="none" stroke="#000000" points="348,-40.2 348,-59.2 452,-59.2 452,-40.2 348,-40.2"/>
<text text-anchor="start" x="442.8862" y="-46.3" font-family="Helvetica,sans-Serif" font-size="11.00" fill="#000000"> &#160;</text>
<polygon fill="#ffffff" stroke="transparent" points="452,-40.2 452,-59.2 519,-59.2 519,-40.2 452,-40.2"/>
<polygon fill="none" stroke="#000000" points="452,-40.2 452,-59.2 519,-59.2 519,-40.2 452,-40.2"/>
<text text-anchor="start" x="500.4053" y="-46.3" font-family="Helvetica,sans-Serif" font-size="11.00" fill="#000000">0 &gt;</text>
<polygon fill="none" stroke="#000000" stroke-width="2" points="234,-39.2 234,-303.2 520,-303.2 520,-39.2 234,-39.2"/>
</a>
</g>
</g>
<!-- surveyquestionoptions -->
<g id="node2" class="node">
<title>surveyquestionoptions</title>
<g id="a_node2"><a xlink:href="../../tables/surveyquestionoptions.html" xlink:title="surveyquestionoptions" target="_top">
<polygon fill="#ffffff" stroke="transparent" points="8,-109.7 8,-280.7 184,-280.7 184,-109.7 8,-109.7"/>
<polygon fill="#f5f5f5" stroke="transparent" points="8,-257.2 8,-280.2 184,-280.2 184,-257.2 8,-257.2"/>
<polygon fill="none" stroke="#000000" points="8,-257.2 8,-280.2 184,-280.2 184,-257.2 8,-257.2"/>
<text text-anchor="start" x="13" y="-266.3" font-family="Helvetica,sans-Serif" font-weight="bold" font-size="11.00" fill="#000000">surveyquestionoptions</text>
<text text-anchor="start" x="149.0437" y="-265.3" font-family="Helvetica,sans-Serif" font-size="11.00" fill="#000000">[table]</text>
<polygon fill="none" stroke="#000000" points="8,-235.2 8,-257.2 184,-257.2 184,-235.2 8,-235.2"/>
<image xlink:href="../../images/primaryKeys.png" width="11px" height="12px" preserveAspectRatio="xMinYMin meet" x="13" y="-252.2"/>
<text text-anchor="start" x="28" y="-242.3" font-family="Helvetica,sans-Serif" font-size="11.00" fill="#000000">id</text>
<polygon fill="#c0c0c0" stroke="transparent" points="8,-213.2 8,-235.2 184,-235.2 184,-213.2 8,-213.2"/>
<polygon fill="none" stroke="#000000" points="8,-213.2 8,-235.2 184,-235.2 184,-213.2 8,-213.2"/>
<image xlink:href="../../images/foreignKeys.png" width="11px" height="12px" preserveAspectRatio="xMinYMin meet" x="13" y="-230.2"/>
<text text-anchor="start" x="28" y="-220.3" font-family="Helvetica,sans-Serif" font-size="11.00" fill="#000000">modified_user_id</text>
<polygon fill="#c0c0c0" stroke="transparent" points="8,-191.2 8,-213.2 184,-213.2 184,-191.2 8,-191.2"/>
<polygon fill="none" stroke="#000000" points="8,-191.2 8,-213.2 184,-213.2 184,-191.2 8,-191.2"/>
<image xlink:href="../../images/foreignKeys.png" width="11px" height="12px" preserveAspectRatio="xMinYMin meet" x="13" y="-208.2"/>
<text text-anchor="start" x="28" y="-198.3" font-family="Helvetica,sans-Serif" font-size="11.00" fill="#000000">created_by</text>
<polygon fill="#c0c0c0" stroke="transparent" points="8,-169.2 8,-191.2 184,-191.2 184,-169.2 8,-169.2"/>
<polygon fill="none" stroke="#000000" points="8,-169.2 8,-191.2 184,-191.2 184,-169.2 8,-169.2"/>
<image xlink:href="../../images/foreignKeys.png" width="11px" height="12px" preserveAspectRatio="xMinYMin meet" x="13" y="-186.2"/>
<text text-anchor="start" x="28" y="-176.3" font-family="Helvetica,sans-Serif" font-size="11.00" fill="#000000">assigned_user_id</text>
<polygon fill="none" stroke="#000000" points="8,-147.2 8,-169.2 184,-169.2 184,-147.2 8,-147.2"/>
<image xlink:href="../../images/foreignKeys.png" width="11px" height="12px" preserveAspectRatio="xMinYMin meet" x="13" y="-164.2"/>
<text text-anchor="start" x="28" y="-154.3" font-family="Helvetica,sans-Serif" font-size="11.00" fill="#000000">survey_question_id</text>
<polygon fill="none" stroke="#000000" points="8,-128.2 8,-147.2 184,-147.2 184,-128.2 8,-128.2"/>
<text text-anchor="start" x="11" y="-134.3" font-family="Helvetica,sans-Serif" font-size="11.00" fill="#000000">...</text>
<polygon fill="#ffffff" stroke="transparent" points="8,-109.2 8,-128.2 90,-128.2 90,-109.2 8,-109.2"/>
<polygon fill="none" stroke="#000000" points="8,-109.2 8,-128.2 90,-128.2 90,-109.2 8,-109.2"/>
<text text-anchor="start" x="11" y="-115.3" font-family="Helvetica,sans-Serif" font-size="11.00" fill="#000000">&lt; 4</text>
<polygon fill="#ffffff" stroke="transparent" points="90,-109.2 90,-128.2 132,-128.2 132,-109.2 90,-109.2"/>
<polygon fill="none" stroke="#000000" points="90,-109.2 90,-128.2 132,-128.2 132,-109.2 90,-109.2"/>
<text text-anchor="start" x="122.8862" y="-115.3" font-family="Helvetica,sans-Serif" font-size="11.00" fill="#000000"> &#160;</text>
<polygon fill="#ffffff" stroke="transparent" points="132,-109.2 132,-128.2 184,-128.2 184,-109.2 132,-109.2"/>
<polygon fill="none" stroke="#000000" points="132,-109.2 132,-128.2 184,-128.2 184,-109.2 132,-109.2"/>
<text text-anchor="start" x="165.4053" y="-115.3" font-family="Helvetica,sans-Serif" font-size="11.00" fill="#000000">3 &gt;</text>
</a>
</g>
</g>
<!-- surveyquestionoptions_audit&#45;&gt;surveyquestionoptions -->
<g id="edge1" class="edge">
<title>surveyquestionoptions_audit:w&#45;&gt;surveyquestionoptions:e</title>
<path fill="none" stroke="#000000" d="M220.276,-246.2C208.2815,-246.2 200.8229,-246.2 184,-246.2"/>
<polygon fill="#000000" stroke="#000000" points="227,-246.2001 235,-249.8 231,-246.2 235,-246.2 235,-246.2 235,-246.2 231,-246.2 235,-242.6 227,-246.2001 227,-246.2001"/>
<ellipse fill="none" stroke="#000000" cx="223.8" cy="-246.2001" rx="3.2" ry="3.2"/>
</g>
</g>
</svg>
