<?xml version="1.0" encoding="UTF-8" standalone="no"?>
<!DOCTYPE svg PUBLIC "-//W3C//DTD SVG 1.1//EN"
 "http://www.w3.org/Graphics/SVG/1.1/DTD/svg11.dtd">
<!-- Generated by graphviz version 2.40.1 (20161225.0304)
 -->
<!-- Title: oneDegreeRelationshipsDiagram Pages: 1 -->
<svg width="1168pt" height="604pt"
 viewBox="0.00 0.00 1168.00 604.20" xmlns="http://www.w3.org/2000/svg" xmlns:xlink="http://www.w3.org/1999/xlink">
<g id="graph0" class="graph" transform="scale(1 1) rotate(0) translate(4 600.2)">
<title>oneDegreeRelationshipsDiagram</title>
<polygon fill="#ffffff" stroke="transparent" points="-4,4 -4,-600.2 1164,-600.2 1164,4 -4,4"/>
<text text-anchor="middle" x="72.4936" y="-7.3" font-family="Helvetica,sans-Serif" font-size="11.00" fill="#000000">Generated by SchemaSpy</text>
<!-- securitygroups_records -->
<g id="node1" class="node">
<title>securitygroups_records</title>
<g id="a_node1"><a xlink:href="../../tables/securitygroups_records.html" xlink:title="securitygroups_records" target="_top">
<polygon fill="#ffffff" stroke="transparent" points="885,-50.2 885,-221.2 1064,-221.2 1064,-50.2 885,-50.2"/>
<polygon fill="#f5f5f5" stroke="transparent" points="885.5,-197.7 885.5,-220.7 1064.5,-220.7 1064.5,-197.7 885.5,-197.7"/>
<polygon fill="none" stroke="#000000" points="885.5,-197.7 885.5,-220.7 1064.5,-220.7 1064.5,-197.7 885.5,-197.7"/>
<text text-anchor="start" x="890.5" y="-206.8" font-family="Helvetica,sans-Serif" font-weight="bold" font-size="11.00" fill="#000000">securitygroups_records</text>
<text text-anchor="start" x="1029.5437" y="-205.8" font-family="Helvetica,sans-Serif" font-size="11.00" fill="#000000">[table]</text>
<polygon fill="none" stroke="#000000" points="885.5,-175.7 885.5,-197.7 1064.5,-197.7 1064.5,-175.7 885.5,-175.7"/>
<image xlink:href="../../images/primaryKeys.png" width="11px" height="12px" preserveAspectRatio="xMinYMin meet" x="890.5" y="-192.7"/>
<text text-anchor="start" x="905.5" y="-182.8" font-family="Helvetica,sans-Serif" font-size="11.00" fill="#000000">id</text>
<polygon fill="#ffffff" stroke="transparent" points="885.5,-153.7 885.5,-175.7 1064.5,-175.7 1064.5,-153.7 885.5,-153.7"/>
<polygon fill="none" stroke="#000000" points="885.5,-153.7 885.5,-175.7 1064.5,-175.7 1064.5,-153.7 885.5,-153.7"/>
<image xlink:href="../../images/foreignKeys.png" width="11px" height="12px" preserveAspectRatio="xMinYMin meet" x="890.5" y="-170.7"/>
<text text-anchor="start" x="905.5" y="-160.8" font-family="Helvetica,sans-Serif" font-size="11.00" fill="#000000">securitygroup_id</text>
<polygon fill="#ffffff" stroke="transparent" points="885.5,-131.7 885.5,-153.7 1064.5,-153.7 1064.5,-131.7 885.5,-131.7"/>
<polygon fill="none" stroke="#000000" points="885.5,-131.7 885.5,-153.7 1064.5,-153.7 1064.5,-131.7 885.5,-131.7"/>
<image xlink:href="../../images/foreignKeys.png" width="11px" height="12px" preserveAspectRatio="xMinYMin meet" x="890.5" y="-148.7"/>
<text text-anchor="start" x="905.5" y="-138.8" font-family="Helvetica,sans-Serif" font-size="11.00" fill="#000000">record_id</text>
<polygon fill="#ffffff" stroke="transparent" points="885.5,-109.7 885.5,-131.7 1064.5,-131.7 1064.5,-109.7 885.5,-109.7"/>
<polygon fill="none" stroke="#000000" points="885.5,-109.7 885.5,-131.7 1064.5,-131.7 1064.5,-109.7 885.5,-109.7"/>
<text text-anchor="start" x="905.5" y="-116.8" font-family="Helvetica,sans-Serif" font-size="11.00" fill="#000000">module</text>
<polygon fill="#ffffff" stroke="transparent" points="885.5,-87.7 885.5,-109.7 1064.5,-109.7 1064.5,-87.7 885.5,-87.7"/>
<polygon fill="none" stroke="#000000" points="885.5,-87.7 885.5,-109.7 1064.5,-109.7 1064.5,-87.7 885.5,-87.7"/>
<text text-anchor="start" x="905.5" y="-94.8" font-family="Helvetica,sans-Serif" font-size="11.00" fill="#000000">deleted</text>
<polygon fill="none" stroke="#000000" points="885.5,-68.7 885.5,-87.7 1064.5,-87.7 1064.5,-68.7 885.5,-68.7"/>
<text text-anchor="start" x="888.5" y="-74.8" font-family="Helvetica,sans-Serif" font-size="11.00" fill="#000000">...</text>
<polygon fill="#ffffff" stroke="transparent" points="885.5,-49.7 885.5,-68.7 976.5,-68.7 976.5,-49.7 885.5,-49.7"/>
<polygon fill="none" stroke="#000000" points="885.5,-49.7 885.5,-68.7 976.5,-68.7 976.5,-49.7 885.5,-49.7"/>
<text text-anchor="start" x="888.5" y="-55.8" font-family="Helvetica,sans-Serif" font-size="11.00" fill="#000000">&lt; 41</text>
<polygon fill="#ffffff" stroke="transparent" points="976.5,-49.7 976.5,-68.7 1020.5,-68.7 1020.5,-49.7 976.5,-49.7"/>
<polygon fill="none" stroke="#000000" points="976.5,-49.7 976.5,-68.7 1020.5,-68.7 1020.5,-49.7 976.5,-49.7"/>
<text text-anchor="start" x="1011.3862" y="-55.8" font-family="Helvetica,sans-Serif" font-size="11.00" fill="#000000"> &#160;</text>
<polygon fill="#ffffff" stroke="transparent" points="1020.5,-49.7 1020.5,-68.7 1064.5,-68.7 1064.5,-49.7 1020.5,-49.7"/>
<polygon fill="none" stroke="#000000" points="1020.5,-49.7 1020.5,-68.7 1064.5,-68.7 1064.5,-49.7 1020.5,-49.7"/>
<text text-anchor="start" x="1055.3862" y="-55.8" font-family="Helvetica,sans-Serif" font-size="11.00" fill="#000000"> &#160;</text>
</a>
</g>
</g>
<!-- surveyquestionresponses -->
<g id="node2" class="node">
<title>surveyquestionresponses</title>
<g id="a_node2"><a xlink:href="../../tables/surveyquestionresponses.html" xlink:title="surveyquestionresponses" target="_top">
<polygon fill="#ffffff" stroke="transparent" points="483,-117.7 483,-471.7 748,-471.7 748,-117.7 483,-117.7"/>
<polygon fill="#f5f5f5" stroke="transparent" points="485.5,-446.7 485.5,-469.7 746.5,-469.7 746.5,-446.7 485.5,-446.7"/>
<polygon fill="none" stroke="#000000" points="485.5,-446.7 485.5,-469.7 746.5,-469.7 746.5,-446.7 485.5,-446.7"/>
<text text-anchor="start" x="490.5" y="-455.8" font-family="Helvetica,sans-Serif" font-weight="bold" font-size="11.00" fill="#000000">surveyquestionresponses</text>
<text text-anchor="start" x="711.5437" y="-454.8" font-family="Helvetica,sans-Serif" font-size="11.00" fill="#000000">[table]</text>
<polygon fill="none" stroke="#000000" points="485.5,-424.7 485.5,-446.7 679.5,-446.7 679.5,-424.7 485.5,-424.7"/>
<image xlink:href="../../images/primaryKeys.png" width="11px" height="12px" preserveAspectRatio="xMinYMin meet" x="490.5" y="-441.7"/>
<text text-anchor="start" x="505.5" y="-431.8" font-family="Helvetica,sans-Serif" font-size="11.00" fill="#000000">id</text>
<polygon fill="none" stroke="#000000" points="679.5,-424.7 679.5,-446.7 746.5,-446.7 746.5,-424.7 679.5,-424.7"/>
<text text-anchor="start" x="682.5" y="-432.4" font-family="Helvetica,sans-Serif" font-size="11.00" fill="#000000">char[36]</text>
<polygon fill="none" stroke="#000000" points="485.5,-402.7 485.5,-424.7 679.5,-424.7 679.5,-402.7 485.5,-402.7"/>
<text text-anchor="start" x="505.5" y="-409.8" font-family="Helvetica,sans-Serif" font-size="11.00" fill="#000000">name</text>
<polygon fill="none" stroke="#000000" points="679.5,-402.7 679.5,-424.7 746.5,-424.7 746.5,-402.7 679.5,-402.7"/>
<text text-anchor="start" x="682.4365" y="-410.4" font-family="Helvetica,sans-Serif" font-size="11.00" fill="#000000">varchar[255]</text>
<polygon fill="none" stroke="#000000" points="485.5,-380.7 485.5,-402.7 679.5,-402.7 679.5,-380.7 485.5,-380.7"/>
<text text-anchor="start" x="505.5" y="-387.8" font-family="Helvetica,sans-Serif" font-size="11.00" fill="#000000">date_entered</text>
<polygon fill="none" stroke="#000000" points="679.5,-380.7 679.5,-402.7 746.5,-402.7 746.5,-380.7 679.5,-380.7"/>
<text text-anchor="start" x="682.5" y="-388.4" font-family="Helvetica,sans-Serif" font-size="11.00" fill="#000000">datetime[26]</text>
<polygon fill="none" stroke="#000000" points="485.5,-358.7 485.5,-380.7 679.5,-380.7 679.5,-358.7 485.5,-358.7"/>
<text text-anchor="start" x="505.5" y="-365.8" font-family="Helvetica,sans-Serif" font-size="11.00" fill="#000000">date_modified</text>
<polygon fill="none" stroke="#000000" points="679.5,-358.7 679.5,-380.7 746.5,-380.7 746.5,-358.7 679.5,-358.7"/>
<text text-anchor="start" x="682.5" y="-366.4" font-family="Helvetica,sans-Serif" font-size="11.00" fill="#000000">datetime[26]</text>
<polygon fill="none" stroke="#000000" points="485.5,-336.7 485.5,-358.7 679.5,-358.7 679.5,-336.7 485.5,-336.7"/>
<image xlink:href="../../images/foreignKeys.png" width="11px" height="12px" preserveAspectRatio="xMinYMin meet" x="490.5" y="-353.7"/>
<text text-anchor="start" x="505.5" y="-343.8" font-family="Helvetica,sans-Serif" font-size="11.00" fill="#000000">modified_user_id</text>
<polygon fill="none" stroke="#000000" points="679.5,-336.7 679.5,-358.7 746.5,-358.7 746.5,-336.7 679.5,-336.7"/>
<text text-anchor="start" x="682.5" y="-344.4" font-family="Helvetica,sans-Serif" font-size="11.00" fill="#000000">char[36]</text>
<polygon fill="none" stroke="#000000" points="485.5,-314.7 485.5,-336.7 679.5,-336.7 679.5,-314.7 485.5,-314.7"/>
<image xlink:href="../../images/foreignKeys.png" width="11px" height="12px" preserveAspectRatio="xMinYMin meet" x="490.5" y="-331.7"/>
<text text-anchor="start" x="505.5" y="-321.8" font-family="Helvetica,sans-Serif" font-size="11.00" fill="#000000">created_by</text>
<polygon fill="none" stroke="#000000" points="679.5,-314.7 679.5,-336.7 746.5,-336.7 746.5,-314.7 679.5,-314.7"/>
<text text-anchor="start" x="682.5" y="-322.4" font-family="Helvetica,sans-Serif" font-size="11.00" fill="#000000">char[36]</text>
<polygon fill="none" stroke="#000000" points="485.5,-292.7 485.5,-314.7 679.5,-314.7 679.5,-292.7 485.5,-292.7"/>
<text text-anchor="start" x="505.5" y="-299.8" font-family="Helvetica,sans-Serif" font-size="11.00" fill="#000000">description</text>
<polygon fill="none" stroke="#000000" points="679.5,-292.7 679.5,-314.7 746.5,-314.7 746.5,-292.7 679.5,-292.7"/>
<text text-anchor="start" x="682.5" y="-300.4" font-family="Helvetica,sans-Serif" font-size="11.00" fill="#000000">text[65535]</text>
<polygon fill="none" stroke="#000000" points="485.5,-270.7 485.5,-292.7 679.5,-292.7 679.5,-270.7 485.5,-270.7"/>
<text text-anchor="start" x="505.5" y="-277.8" font-family="Helvetica,sans-Serif" font-size="11.00" fill="#000000">deleted</text>
<polygon fill="none" stroke="#000000" points="679.5,-270.7 679.5,-292.7 746.5,-292.7 746.5,-270.7 679.5,-270.7"/>
<text text-anchor="start" x="682.5" y="-278.4" font-family="Helvetica,sans-Serif" font-size="11.00" fill="#000000">bit[1]</text>
<polygon fill="none" stroke="#000000" points="485.5,-248.7 485.5,-270.7 679.5,-270.7 679.5,-248.7 485.5,-248.7"/>
<image xlink:href="../../images/foreignKeys.png" width="11px" height="12px" preserveAspectRatio="xMinYMin meet" x="490.5" y="-265.7"/>
<text text-anchor="start" x="505.5" y="-255.8" font-family="Helvetica,sans-Serif" font-size="11.00" fill="#000000">assigned_user_id</text>
<polygon fill="none" stroke="#000000" points="679.5,-248.7 679.5,-270.7 746.5,-270.7 746.5,-248.7 679.5,-248.7"/>
<text text-anchor="start" x="682.5" y="-256.4" font-family="Helvetica,sans-Serif" font-size="11.00" fill="#000000">char[36]</text>
<polygon fill="none" stroke="#000000" points="485.5,-226.7 485.5,-248.7 679.5,-248.7 679.5,-226.7 485.5,-226.7"/>
<text text-anchor="start" x="505.5" y="-233.8" font-family="Helvetica,sans-Serif" font-size="11.00" fill="#000000">answer</text>
<polygon fill="none" stroke="#000000" points="679.5,-226.7 679.5,-248.7 746.5,-248.7 746.5,-226.7 679.5,-226.7"/>
<text text-anchor="start" x="682.5" y="-234.4" font-family="Helvetica,sans-Serif" font-size="11.00" fill="#000000">text[65535]</text>
<polygon fill="none" stroke="#000000" points="485.5,-204.7 485.5,-226.7 679.5,-226.7 679.5,-204.7 485.5,-204.7"/>
<text text-anchor="start" x="505.5" y="-211.8" font-family="Helvetica,sans-Serif" font-size="11.00" fill="#000000">answer_bool</text>
<polygon fill="none" stroke="#000000" points="679.5,-204.7 679.5,-226.7 746.5,-226.7 746.5,-204.7 679.5,-204.7"/>
<text text-anchor="start" x="682.5" y="-212.4" font-family="Helvetica,sans-Serif" font-size="11.00" fill="#000000">bit[1]</text>
<polygon fill="none" stroke="#000000" points="485.5,-182.7 485.5,-204.7 679.5,-204.7 679.5,-182.7 485.5,-182.7"/>
<text text-anchor="start" x="505.5" y="-189.8" font-family="Helvetica,sans-Serif" font-size="11.00" fill="#000000">answer_datetime</text>
<polygon fill="none" stroke="#000000" points="679.5,-182.7 679.5,-204.7 746.5,-204.7 746.5,-182.7 679.5,-182.7"/>
<text text-anchor="start" x="682.5" y="-190.4" font-family="Helvetica,sans-Serif" font-size="11.00" fill="#000000">datetime[26]</text>
<polygon fill="none" stroke="#000000" points="485.5,-160.7 485.5,-182.7 679.5,-182.7 679.5,-160.7 485.5,-160.7"/>
<text text-anchor="start" x="505.5" y="-167.8" font-family="Helvetica,sans-Serif" font-size="11.00" fill="#000000">surveyquestion_id</text>
<polygon fill="none" stroke="#000000" points="679.5,-160.7 679.5,-182.7 746.5,-182.7 746.5,-160.7 679.5,-160.7"/>
<text text-anchor="start" x="682.5" y="-168.4" font-family="Helvetica,sans-Serif" font-size="11.00" fill="#000000">char[36]</text>
<polygon fill="none" stroke="#000000" points="485.5,-138.7 485.5,-160.7 679.5,-160.7 679.5,-138.7 485.5,-138.7"/>
<image xlink:href="../../images/foreignKeys.png" width="11px" height="12px" preserveAspectRatio="xMinYMin meet" x="490.5" y="-155.7"/>
<text text-anchor="start" x="505.5" y="-145.8" font-family="Helvetica,sans-Serif" font-size="11.00" fill="#000000">surveyresponse_id</text>
<polygon fill="none" stroke="#000000" points="679.5,-138.7 679.5,-160.7 746.5,-160.7 746.5,-138.7 679.5,-138.7"/>
<text text-anchor="start" x="682.5" y="-146.4" font-family="Helvetica,sans-Serif" font-size="11.00" fill="#000000">char[36]</text>
<polygon fill="#ffffff" stroke="transparent" points="485.5,-119.7 485.5,-138.7 586.5,-138.7 586.5,-119.7 485.5,-119.7"/>
<polygon fill="none" stroke="#000000" points="485.5,-119.7 485.5,-138.7 586.5,-138.7 586.5,-119.7 485.5,-119.7"/>
<text text-anchor="start" x="488.5" y="-125.8" font-family="Helvetica,sans-Serif" font-size="11.00" fill="#000000">&lt; 4</text>
<polygon fill="#ffffff" stroke="transparent" points="586.5,-119.7 586.5,-138.7 679.5,-138.7 679.5,-119.7 586.5,-119.7"/>
<polygon fill="none" stroke="#000000" points="586.5,-119.7 586.5,-138.7 679.5,-138.7 679.5,-119.7 586.5,-119.7"/>
<text text-anchor="start" x="670.3862" y="-125.8" font-family="Helvetica,sans-Serif" font-size="11.00" fill="#000000"> &#160;</text>
<polygon fill="#ffffff" stroke="transparent" points="679.5,-119.7 679.5,-138.7 746.5,-138.7 746.5,-119.7 679.5,-119.7"/>
<polygon fill="none" stroke="#000000" points="679.5,-119.7 679.5,-138.7 746.5,-138.7 746.5,-119.7 679.5,-119.7"/>
<text text-anchor="start" x="727.9053" y="-125.8" font-family="Helvetica,sans-Serif" font-size="11.00" fill="#000000">3 &gt;</text>
<polygon fill="none" stroke="#000000" stroke-width="2" points="484,-118.7 484,-470.7 747,-470.7 747,-118.7 484,-118.7"/>
</a>
</g>
</g>
<!-- securitygroups_records&#45;&gt;surveyquestionresponses -->
<g id="edge1" class="edge">
<title>securitygroups_records:w&#45;&gt;surveyquestionresponses:e</title>
<path fill="none" stroke="#000000" d="M870.8746,-143.6534C796.1327,-154.1204 825.4915,-248.7818 789,-328.7 767.7463,-375.2468 797.6695,-435.7 746.5,-435.7"/>
<polygon fill="#000000" stroke="#000000" points="877.5169,-143.2204 885.7342,-146.2924 881.5085,-142.9602 885.5,-142.7 885.5,-142.7 885.5,-142.7 881.5085,-142.9602 885.2658,-139.1076 877.5169,-143.2204 877.5169,-143.2204"/>
<ellipse fill="none" stroke="#000000" cx="874.3237" cy="-143.4286" rx="3.2" ry="3.2"/>
</g>
<!-- surveyresponses -->
<g id="node3" class="node">
<title>surveyresponses</title>
<g id="a_node3"><a xlink:href="../../tables/surveyresponses.html" xlink:title="surveyresponses" target="_top">
<polygon fill="#ffffff" stroke="transparent" points="273,-42.2 273,-235.2 434,-235.2 434,-42.2 273,-42.2"/>
<polygon fill="#f5f5f5" stroke="transparent" points="273.5,-211.7 273.5,-234.7 434.5,-234.7 434.5,-211.7 273.5,-211.7"/>
<polygon fill="none" stroke="#000000" points="273.5,-211.7 273.5,-234.7 434.5,-234.7 434.5,-211.7 273.5,-211.7"/>
<text text-anchor="start" x="278.5" y="-220.8" font-family="Helvetica,sans-Serif" font-weight="bold" font-size="11.00" fill="#000000">surveyresponses</text>
<text text-anchor="start" x="399.5437" y="-219.8" font-family="Helvetica,sans-Serif" font-size="11.00" fill="#000000">[table]</text>
<polygon fill="none" stroke="#000000" points="273.5,-189.7 273.5,-211.7 434.5,-211.7 434.5,-189.7 273.5,-189.7"/>
<image xlink:href="../../images/primaryKeys.png" width="11px" height="12px" preserveAspectRatio="xMinYMin meet" x="278.5" y="-206.7"/>
<text text-anchor="start" x="293.5" y="-196.8" font-family="Helvetica,sans-Serif" font-size="11.00" fill="#000000">id</text>
<polygon fill="#c0c0c0" stroke="transparent" points="273.5,-167.7 273.5,-189.7 434.5,-189.7 434.5,-167.7 273.5,-167.7"/>
<polygon fill="none" stroke="#000000" points="273.5,-167.7 273.5,-189.7 434.5,-189.7 434.5,-167.7 273.5,-167.7"/>
<image xlink:href="../../images/foreignKeys.png" width="11px" height="12px" preserveAspectRatio="xMinYMin meet" x="278.5" y="-184.7"/>
<text text-anchor="start" x="293.5" y="-174.8" font-family="Helvetica,sans-Serif" font-size="11.00" fill="#000000">modified_user_id</text>
<polygon fill="#c0c0c0" stroke="transparent" points="273.5,-145.7 273.5,-167.7 434.5,-167.7 434.5,-145.7 273.5,-145.7"/>
<polygon fill="none" stroke="#000000" points="273.5,-145.7 273.5,-167.7 434.5,-167.7 434.5,-145.7 273.5,-145.7"/>
<image xlink:href="../../images/foreignKeys.png" width="11px" height="12px" preserveAspectRatio="xMinYMin meet" x="278.5" y="-162.7"/>
<text text-anchor="start" x="293.5" y="-152.8" font-family="Helvetica,sans-Serif" font-size="11.00" fill="#000000">created_by</text>
<polygon fill="#c0c0c0" stroke="transparent" points="273.5,-123.7 273.5,-145.7 434.5,-145.7 434.5,-123.7 273.5,-123.7"/>
<polygon fill="none" stroke="#000000" points="273.5,-123.7 273.5,-145.7 434.5,-145.7 434.5,-123.7 273.5,-123.7"/>
<image xlink:href="../../images/foreignKeys.png" width="11px" height="12px" preserveAspectRatio="xMinYMin meet" x="278.5" y="-140.7"/>
<text text-anchor="start" x="293.5" y="-130.8" font-family="Helvetica,sans-Serif" font-size="11.00" fill="#000000">assigned_user_id</text>
<polygon fill="none" stroke="#000000" points="273.5,-101.7 273.5,-123.7 434.5,-123.7 434.5,-101.7 273.5,-101.7"/>
<image xlink:href="../../images/foreignKeys.png" width="11px" height="12px" preserveAspectRatio="xMinYMin meet" x="278.5" y="-118.7"/>
<text text-anchor="start" x="293.5" y="-108.8" font-family="Helvetica,sans-Serif" font-size="11.00" fill="#000000">campaign_id</text>
<polygon fill="none" stroke="#000000" points="273.5,-79.7 273.5,-101.7 434.5,-101.7 434.5,-79.7 273.5,-79.7"/>
<image xlink:href="../../images/foreignKeys.png" width="11px" height="12px" preserveAspectRatio="xMinYMin meet" x="278.5" y="-96.7"/>
<text text-anchor="start" x="293.5" y="-86.8" font-family="Helvetica,sans-Serif" font-size="11.00" fill="#000000">survey_id</text>
<polygon fill="none" stroke="#000000" points="273.5,-60.7 273.5,-79.7 434.5,-79.7 434.5,-60.7 273.5,-60.7"/>
<text text-anchor="start" x="276.5" y="-66.8" font-family="Helvetica,sans-Serif" font-size="11.00" fill="#000000">...</text>
<polygon fill="#ffffff" stroke="transparent" points="273.5,-41.7 273.5,-60.7 347.5,-60.7 347.5,-41.7 273.5,-41.7"/>
<polygon fill="none" stroke="#000000" points="273.5,-41.7 273.5,-60.7 347.5,-60.7 347.5,-41.7 273.5,-41.7"/>
<text text-anchor="start" x="276.5" y="-47.8" font-family="Helvetica,sans-Serif" font-size="11.00" fill="#000000">&lt; 5</text>
<polygon fill="#ffffff" stroke="transparent" points="347.5,-41.7 347.5,-60.7 386.5,-60.7 386.5,-41.7 347.5,-41.7"/>
<polygon fill="none" stroke="#000000" points="347.5,-41.7 347.5,-60.7 386.5,-60.7 386.5,-41.7 347.5,-41.7"/>
<text text-anchor="start" x="377.3862" y="-47.8" font-family="Helvetica,sans-Serif" font-size="11.00" fill="#000000"> &#160;</text>
<polygon fill="#ffffff" stroke="transparent" points="386.5,-41.7 386.5,-60.7 434.5,-60.7 434.5,-41.7 386.5,-41.7"/>
<polygon fill="none" stroke="#000000" points="386.5,-41.7 386.5,-60.7 434.5,-60.7 434.5,-41.7 386.5,-41.7"/>
<text text-anchor="start" x="415.9053" y="-47.8" font-family="Helvetica,sans-Serif" font-size="11.00" fill="#000000">3 &gt;</text>
</a>
</g>
</g>
<!-- securitygroups_records&#45;&gt;surveyresponses -->
<g id="edge2" class="edge">
<title>securitygroups_records:w&#45;&gt;surveyresponses:e</title>
<path fill="none" stroke="#000000" d="M870.8217,-142.0853C823.528,-137.9445 809.9877,-114.0645 756,-106.7 632.2571,-89.8203 579.3285,-38.0501 475,-106.7 436.9986,-131.7055 479.9905,-200.7 434.5,-200.7"/>
<polygon fill="#000000" stroke="#000000" points="877.507,-142.3652 885.3493,-146.2968 881.5035,-142.5326 885.5,-142.7 885.5,-142.7 885.5,-142.7 881.5035,-142.5326 885.6507,-139.1032 877.507,-142.3652 877.507,-142.3652"/>
<ellipse fill="none" stroke="#000000" cx="874.3098" cy="-142.2313" rx="3.2" ry="3.2"/>
</g>
<!-- surveyquestionresponses&#45;&gt;surveyresponses -->
<g id="edge7" class="edge">
<title>surveyquestionresponses:w&#45;&gt;surveyresponses:e</title>
<path fill="none" stroke="#000000" d="M471.637,-154.4065C456.7732,-167.032 460.5451,-200.7 434.5,-200.7"/>
<polygon fill="#000000" stroke="#000000" points="477.9247,-152.2719 486.6573,-153.1089 481.7123,-150.9859 485.5,-149.7 485.5,-149.7 485.5,-149.7 481.7123,-150.9859 484.3427,-146.2911 477.9247,-152.2719 477.9247,-152.2719"/>
<ellipse fill="none" stroke="#000000" cx="474.8945" cy="-153.3006" rx="3.2" ry="3.2"/>
</g>
<!-- users -->
<g id="node5" class="node">
<title>users</title>
<g id="a_node5"><a xlink:href="../../tables/users.html" xlink:title="users" target="_top">
<polygon fill="#ffffff" stroke="transparent" points="8,-38.2 8,-253.2 224,-253.2 224,-38.2 8,-38.2"/>
<polygon fill="#f5f5f5" stroke="transparent" points="8,-229.7 8,-252.7 224,-252.7 224,-229.7 8,-229.7"/>
<polygon fill="none" stroke="#000000" points="8,-229.7 8,-252.7 224,-252.7 224,-229.7 8,-229.7"/>
<text text-anchor="start" x="13" y="-238.8" font-family="Helvetica,sans-Serif" font-weight="bold" font-size="11.00" fill="#000000">users</text>
<text text-anchor="start" x="189.0437" y="-237.8" font-family="Helvetica,sans-Serif" font-size="11.00" fill="#000000">[table]</text>
<polygon fill="none" stroke="#000000" points="8,-207.7 8,-229.7 224,-229.7 224,-207.7 8,-207.7"/>
<image xlink:href="../../images/primaryKeys.png" width="11px" height="12px" preserveAspectRatio="xMinYMin meet" x="13" y="-224.7"/>
<text text-anchor="start" x="28" y="-214.8" font-family="Helvetica,sans-Serif" font-size="11.00" fill="#000000">id</text>
<polygon fill="#ffffff" stroke="transparent" points="8,-185.7 8,-207.7 224,-207.7 224,-185.7 8,-185.7"/>
<polygon fill="none" stroke="#000000" points="8,-185.7 8,-207.7 224,-207.7 224,-185.7 8,-185.7"/>
<text text-anchor="start" x="28" y="-192.8" font-family="Helvetica,sans-Serif" font-size="11.00" fill="#000000">user_name</text>
<polygon fill="#ffffff" stroke="transparent" points="8,-163.7 8,-185.7 224,-185.7 224,-163.7 8,-163.7"/>
<polygon fill="none" stroke="#000000" points="8,-163.7 8,-185.7 224,-185.7 224,-163.7 8,-163.7"/>
<text text-anchor="start" x="28" y="-170.8" font-family="Helvetica,sans-Serif" font-size="11.00" fill="#000000">first_name</text>
<polygon fill="#ffffff" stroke="transparent" points="8,-141.7 8,-163.7 224,-163.7 224,-141.7 8,-141.7"/>
<polygon fill="none" stroke="#000000" points="8,-141.7 8,-163.7 224,-163.7 224,-141.7 8,-141.7"/>
<text text-anchor="start" x="28" y="-148.8" font-family="Helvetica,sans-Serif" font-size="11.00" fill="#000000">last_name</text>
<polygon fill="#ffffff" stroke="transparent" points="8,-119.7 8,-141.7 224,-141.7 224,-119.7 8,-119.7"/>
<polygon fill="none" stroke="#000000" points="8,-119.7 8,-141.7 224,-141.7 224,-119.7 8,-119.7"/>
<text text-anchor="start" x="28" y="-126.8" font-family="Helvetica,sans-Serif" font-size="11.00" fill="#000000">status</text>
<polygon fill="#c0c0c0" stroke="transparent" points="8,-97.7 8,-119.7 224,-119.7 224,-97.7 8,-97.7"/>
<polygon fill="none" stroke="#000000" points="8,-97.7 8,-119.7 224,-119.7 224,-97.7 8,-97.7"/>
<image xlink:href="../../images/foreignKeys.png" width="11px" height="12px" preserveAspectRatio="xMinYMin meet" x="13" y="-114.7"/>
<text text-anchor="start" x="28" y="-104.8" font-family="Helvetica,sans-Serif" font-size="11.00" fill="#000000">reports_to_id</text>
<polygon fill="#ffffff" stroke="transparent" points="8,-75.7 8,-97.7 224,-97.7 224,-75.7 8,-75.7"/>
<polygon fill="none" stroke="#000000" points="8,-75.7 8,-97.7 224,-97.7 224,-75.7 8,-75.7"/>
<text text-anchor="start" x="28" y="-82.8" font-family="Helvetica,sans-Serif" font-size="11.00" fill="#000000">is_group</text>
<polygon fill="none" stroke="#000000" points="8,-56.7 8,-75.7 224,-75.7 224,-56.7 8,-56.7"/>
<text text-anchor="start" x="11" y="-62.8" font-family="Helvetica,sans-Serif" font-size="11.00" fill="#000000">...</text>
<polygon fill="#ffffff" stroke="transparent" points="8,-37.7 8,-56.7 104,-56.7 104,-37.7 8,-37.7"/>
<polygon fill="none" stroke="#000000" points="8,-37.7 8,-56.7 104,-56.7 104,-37.7 8,-37.7"/>
<text text-anchor="start" x="11" y="-43.8" font-family="Helvetica,sans-Serif" font-size="11.00" fill="#000000">&lt; 2</text>
<polygon fill="#ffffff" stroke="transparent" points="104,-37.7 104,-56.7 153,-56.7 153,-37.7 104,-37.7"/>
<polygon fill="none" stroke="#000000" points="104,-37.7 104,-56.7 153,-56.7 153,-37.7 104,-37.7"/>
<text text-anchor="start" x="143.8862" y="-43.8" font-family="Helvetica,sans-Serif" font-size="11.00" fill="#000000"> &#160;</text>
<polygon fill="#ffffff" stroke="transparent" points="153,-37.7 153,-56.7 224,-56.7 224,-37.7 153,-37.7"/>
<polygon fill="none" stroke="#000000" points="153,-37.7 153,-56.7 224,-56.7 224,-37.7 153,-37.7"/>
<text text-anchor="start" x="193.1755" y="-43.8" font-family="Helvetica,sans-Serif" font-size="11.00" fill="#000000">214 &gt;</text>
</a>
</g>
</g>
<!-- surveyquestionresponses&#45;&gt;users -->
<g id="edge4" class="edge">
<title>surveyquestionresponses:w&#45;&gt;users:e</title>
<path fill="none" stroke="#000000" d="M471.0568,-259.8242C384.1742,-261.318 353.3941,-275.2757 265,-245.7 244.3089,-238.777 245.8186,-218.7 224,-218.7"/>
<polygon fill="#000000" stroke="#000000" points="477.5003,-259.7688 485.531,-263.2999 481.5001,-259.7344 485.5,-259.7 485.5,-259.7 485.5,-259.7 481.5001,-259.7344 485.469,-256.1001 477.5003,-259.7688 477.5003,-259.7688"/>
<ellipse fill="none" stroke="#000000" cx="474.3004" cy="-259.7964" rx="3.2" ry="3.2"/>
</g>
<!-- surveyquestionresponses&#45;&gt;users -->
<g id="edge5" class="edge">
<title>surveyquestionresponses:w&#45;&gt;users:e</title>
<path fill="none" stroke="#000000" d="M471.086,-325.6432C380.5194,-324.8762 347.1301,-315.7748 265,-264.7 241.7436,-250.2374 251.3866,-218.7 224,-218.7"/>
<polygon fill="#000000" stroke="#000000" points="477.5001,-325.6684 485.4858,-329.3 481.5,-325.6842 485.5,-325.7 485.5,-325.7 485.5,-325.7 481.5,-325.6842 485.5142,-322.1 477.5001,-325.6684 477.5001,-325.6684"/>
<ellipse fill="none" stroke="#000000" cx="474.3001" cy="-325.6558" rx="3.2" ry="3.2"/>
</g>
<!-- surveyquestionresponses&#45;&gt;users -->
<g id="edge6" class="edge">
<title>surveyquestionresponses:w&#45;&gt;users:e</title>
<path fill="none" stroke="#000000" d="M471.0023,-347.8231C381.4049,-349.312 339.9922,-362.8129 265,-304.7 231.5296,-278.7631 266.3437,-218.7 224,-218.7"/>
<polygon fill="#000000" stroke="#000000" points="477.5003,-347.768 485.5306,-351.2999 481.5001,-347.734 485.5,-347.7 485.5,-347.7 485.5,-347.7 481.5001,-347.734 485.4694,-344.1001 477.5003,-347.768 477.5003,-347.768"/>
<ellipse fill="none" stroke="#000000" cx="474.3004" cy="-347.7952" rx="3.2" ry="3.2"/>
</g>
<!-- surveyresponses&#45;&gt;users -->
<g id="edge9" class="edge">
<title>surveyresponses:w&#45;&gt;users:e</title>
<path fill="none" stroke="#000000" d="M259.5468,-139.2162C239.0279,-156.6639 261.2396,-218.7 224,-218.7"/>
<polygon fill="#000000" stroke="#000000" points="265.8887,-137.1636 274.6086,-138.1251 269.6944,-135.9318 273.5,-134.7 273.5,-134.7 273.5,-134.7 269.6944,-135.9318 272.3914,-131.2749 265.8887,-137.1636 265.8887,-137.1636"/>
<ellipse fill="none" stroke="#000000" cx="262.8442" cy="-138.149" rx="3.2" ry="3.2"/>
</g>
<!-- surveyresponses&#45;&gt;users -->
<g id="edge10" class="edge">
<title>surveyresponses:w&#45;&gt;users:e</title>
<path fill="none" stroke="#000000" d="M259.7351,-161.565C243.8028,-176.181 253.2002,-218.7 224,-218.7"/>
<polygon fill="#000000" stroke="#000000" points="265.9573,-159.3659 274.6997,-160.0942 269.7286,-158.033 273.5,-156.7 273.5,-156.7 273.5,-156.7 269.7286,-158.033 272.3003,-153.3058 265.9573,-159.3659 265.9573,-159.3659"/>
<ellipse fill="none" stroke="#000000" cx="262.9402" cy="-160.4323" rx="3.2" ry="3.2"/>
</g>
<!-- surveyresponses&#45;&gt;users -->
<g id="edge11" class="edge">
<title>surveyresponses:w&#45;&gt;users:e</title>
<path fill="none" stroke="#000000" d="M259.6565,-183.2885C246.6245,-193.7952 246.3187,-218.7 224,-218.7"/>
<polygon fill="#000000" stroke="#000000" points="265.9063,-181.217 274.6327,-182.1172 269.7031,-179.9585 273.5,-178.7 273.5,-178.7 273.5,-178.7 269.7031,-179.9585 272.3673,-175.2828 265.9063,-181.217 265.9063,-181.217"/>
<ellipse fill="none" stroke="#000000" cx="262.8688" cy="-182.2238" rx="3.2" ry="3.2"/>
</g>
<!-- surveyquestionoptions_surveyquestionresponses -->
<g id="node4" class="node">
<title>surveyquestionoptions_surveyquestionresponses</title>
<g id="a_node4"><a xlink:href="../../tables/surveyquestionoptions_surveyquestionresponses.html" xlink:title="surveyquestionoptions_surveyquestionresponses" target="_top">
<polygon fill="#ffffff" stroke="transparent" points="797,-465.2 797,-592.2 1152,-592.2 1152,-465.2 797,-465.2"/>
<polygon fill="#f5f5f5" stroke="transparent" points="797.5,-568.7 797.5,-591.7 1152.5,-591.7 1152.5,-568.7 797.5,-568.7"/>
<polygon fill="none" stroke="#000000" points="797.5,-568.7 797.5,-591.7 1152.5,-591.7 1152.5,-568.7 797.5,-568.7"/>
<text text-anchor="start" x="802.5" y="-577.8" font-family="Helvetica,sans-Serif" font-weight="bold" font-size="11.00" fill="#000000">surveyquestionoptions_surveyquestionresponses</text>
<text text-anchor="start" x="1117.5437" y="-576.8" font-family="Helvetica,sans-Serif" font-size="11.00" fill="#000000">[table]</text>
<polygon fill="none" stroke="#000000" points="797.5,-546.7 797.5,-568.7 1152.5,-568.7 1152.5,-546.7 797.5,-546.7"/>
<image xlink:href="../../images/primaryKeys.png" width="11px" height="12px" preserveAspectRatio="xMinYMin meet" x="802.5" y="-563.7"/>
<text text-anchor="start" x="817.5" y="-553.8" font-family="Helvetica,sans-Serif" font-size="11.00" fill="#000000">id</text>
<polygon fill="#ffffff" stroke="transparent" points="797.5,-524.7 797.5,-546.7 1152.5,-546.7 1152.5,-524.7 797.5,-524.7"/>
<polygon fill="none" stroke="#000000" points="797.5,-524.7 797.5,-546.7 1152.5,-546.7 1152.5,-524.7 797.5,-524.7"/>
<image xlink:href="../../images/foreignKeys.png" width="11px" height="12px" preserveAspectRatio="xMinYMin meet" x="802.5" y="-541.7"/>
<text text-anchor="start" x="817.5" y="-531.8" font-family="Helvetica,sans-Serif" font-size="11.00" fill="#000000">surveyq72c7options_ida</text>
<polygon fill="#ffffff" stroke="transparent" points="797.5,-502.7 797.5,-524.7 1152.5,-524.7 1152.5,-502.7 797.5,-502.7"/>
<polygon fill="none" stroke="#000000" points="797.5,-502.7 797.5,-524.7 1152.5,-524.7 1152.5,-502.7 797.5,-502.7"/>
<image xlink:href="../../images/foreignKeys.png" width="11px" height="12px" preserveAspectRatio="xMinYMin meet" x="802.5" y="-519.7"/>
<text text-anchor="start" x="817.5" y="-509.8" font-family="Helvetica,sans-Serif" font-size="11.00" fill="#000000">surveyq10d4sponses_idb</text>
<polygon fill="none" stroke="#000000" points="797.5,-483.7 797.5,-502.7 1152.5,-502.7 1152.5,-483.7 797.5,-483.7"/>
<text text-anchor="start" x="800.5" y="-489.8" font-family="Helvetica,sans-Serif" font-size="11.00" fill="#000000">...</text>
<polygon fill="#ffffff" stroke="transparent" points="797.5,-464.7 797.5,-483.7 973.5,-483.7 973.5,-464.7 797.5,-464.7"/>
<polygon fill="none" stroke="#000000" points="797.5,-464.7 797.5,-483.7 973.5,-483.7 973.5,-464.7 797.5,-464.7"/>
<text text-anchor="start" x="800.5" y="-470.8" font-family="Helvetica,sans-Serif" font-size="11.00" fill="#000000">&lt; 2</text>
<polygon fill="#ffffff" stroke="transparent" points="973.5,-464.7 973.5,-483.7 1062.5,-483.7 1062.5,-464.7 973.5,-464.7"/>
<polygon fill="none" stroke="#000000" points="973.5,-464.7 973.5,-483.7 1062.5,-483.7 1062.5,-464.7 973.5,-464.7"/>
<text text-anchor="start" x="1053.3862" y="-470.8" font-family="Helvetica,sans-Serif" font-size="11.00" fill="#000000"> &#160;</text>
<polygon fill="#ffffff" stroke="transparent" points="1062.5,-464.7 1062.5,-483.7 1152.5,-483.7 1152.5,-464.7 1062.5,-464.7"/>
<polygon fill="none" stroke="#000000" points="1062.5,-464.7 1062.5,-483.7 1152.5,-483.7 1152.5,-464.7 1062.5,-464.7"/>
<text text-anchor="start" x="1143.3862" y="-470.8" font-family="Helvetica,sans-Serif" font-size="11.00" fill="#000000"> &#160;</text>
</a>
</g>
</g>
<!-- surveyquestionoptions_surveyquestionresponses&#45;&gt;surveyquestionresponses -->
<g id="edge3" class="edge">
<title>surveyquestionoptions_surveyquestionresponses:w&#45;&gt;surveyquestionresponses:e</title>
<path fill="none" stroke="#000000" d="M783.6894,-509.2829C763.7538,-492.7825 781.9329,-435.7 746.5,-435.7"/>
<polygon fill="#000000" stroke="#000000" points="789.8802,-511.2629 796.4033,-517.1289 793.6901,-512.4814 797.5,-513.7 797.5,-513.7 797.5,-513.7 793.6901,-512.4814 798.5967,-510.2711 789.8802,-511.2629 789.8802,-511.2629"/>
<ellipse fill="none" stroke="#000000" cx="786.8323" cy="-510.2881" rx="3.2" ry="3.2"/>
</g>
<!-- surveyquestionresponses_audit -->
<g id="node6" class="node">
<title>surveyquestionresponses_audit</title>
<g id="a_node6"><a xlink:href="../../tables/surveyquestionresponses_audit.html" xlink:title="surveyquestionresponses_audit" target="_top">
<polygon fill="#ffffff" stroke="transparent" points="857,-339.2 857,-444.2 1092,-444.2 1092,-339.2 857,-339.2"/>
<polygon fill="#f5f5f5" stroke="transparent" points="857.5,-420.7 857.5,-443.7 1092.5,-443.7 1092.5,-420.7 857.5,-420.7"/>
<polygon fill="none" stroke="#000000" points="857.5,-420.7 857.5,-443.7 1092.5,-443.7 1092.5,-420.7 857.5,-420.7"/>
<text text-anchor="start" x="862.5" y="-429.8" font-family="Helvetica,sans-Serif" font-weight="bold" font-size="11.00" fill="#000000">surveyquestionresponses_audit</text>
<text text-anchor="start" x="1057.5437" y="-428.8" font-family="Helvetica,sans-Serif" font-size="11.00" fill="#000000">[table]</text>
<polygon fill="none" stroke="#000000" points="857.5,-398.7 857.5,-420.7 1092.5,-420.7 1092.5,-398.7 857.5,-398.7"/>
<image xlink:href="../../images/primaryKeys.png" width="11px" height="12px" preserveAspectRatio="xMinYMin meet" x="862.5" y="-415.7"/>
<text text-anchor="start" x="877.5" y="-405.8" font-family="Helvetica,sans-Serif" font-size="11.00" fill="#000000">id</text>
<polygon fill="#c0c0c0" stroke="transparent" points="857.5,-376.7 857.5,-398.7 1092.5,-398.7 1092.5,-376.7 857.5,-376.7"/>
<polygon fill="none" stroke="#000000" points="857.5,-376.7 857.5,-398.7 1092.5,-398.7 1092.5,-376.7 857.5,-376.7"/>
<image xlink:href="../../images/foreignKeys.png" width="11px" height="12px" preserveAspectRatio="xMinYMin meet" x="862.5" y="-393.7"/>
<text text-anchor="start" x="877.5" y="-383.8" font-family="Helvetica,sans-Serif" font-size="11.00" fill="#000000">parent_id</text>
<polygon fill="none" stroke="#000000" points="857.5,-357.7 857.5,-376.7 1092.5,-376.7 1092.5,-357.7 857.5,-357.7"/>
<text text-anchor="start" x="860.5" y="-363.8" font-family="Helvetica,sans-Serif" font-size="11.00" fill="#000000">...</text>
<polygon fill="#ffffff" stroke="transparent" points="857.5,-338.7 857.5,-357.7 973.5,-357.7 973.5,-338.7 857.5,-338.7"/>
<polygon fill="none" stroke="#000000" points="857.5,-338.7 857.5,-357.7 973.5,-357.7 973.5,-338.7 857.5,-338.7"/>
<text text-anchor="start" x="860.5" y="-344.8" font-family="Helvetica,sans-Serif" font-size="11.00" fill="#000000">&lt; 1</text>
<polygon fill="#ffffff" stroke="transparent" points="973.5,-338.7 973.5,-357.7 1032.5,-357.7 1032.5,-338.7 973.5,-338.7"/>
<polygon fill="none" stroke="#000000" points="973.5,-338.7 973.5,-357.7 1032.5,-357.7 1032.5,-338.7 973.5,-338.7"/>
<text text-anchor="start" x="1023.3862" y="-344.8" font-family="Helvetica,sans-Serif" font-size="11.00" fill="#000000"> &#160;</text>
<polygon fill="#ffffff" stroke="transparent" points="1032.5,-338.7 1032.5,-357.7 1092.5,-357.7 1092.5,-338.7 1032.5,-338.7"/>
<polygon fill="none" stroke="#000000" points="1032.5,-338.7 1032.5,-357.7 1092.5,-357.7 1092.5,-338.7 1032.5,-338.7"/>
<text text-anchor="start" x="1083.3862" y="-344.8" font-family="Helvetica,sans-Serif" font-size="11.00" fill="#000000"> &#160;</text>
</a>
</g>
</g>
<!-- surveyquestionresponses_audit&#45;&gt;surveyquestionresponses -->
<g id="edge8" class="edge">
<title>surveyquestionresponses_audit:w&#45;&gt;surveyquestionresponses:e</title>
<path fill="none" stroke="#000000" d="M843.0973,-388.9839C802.5882,-396.6172 794.9995,-435.7 746.5,-435.7"/>
<polygon fill="#000000" stroke="#000000" points="849.5316,-388.4104 857.8197,-391.2858 853.5158,-388.0552 857.5,-387.7 857.5,-387.7 857.5,-387.7 853.5158,-388.0552 857.1803,-384.1142 849.5316,-388.4104 849.5316,-388.4104"/>
<ellipse fill="none" stroke="#000000" cx="846.3442" cy="-388.6945" rx="3.2" ry="3.2"/>
</g>
</g>
</svg>
