<?xml version="1.0" encoding="UTF-8" standalone="no"?>
<!DOCTYPE svg PUBLIC "-//W3C//DTD SVG 1.1//EN"
 "http://www.w3.org/Graphics/SVG/1.1/DTD/svg11.dtd">
<!-- Generated by graphviz version 2.40.1 (20161225.0304)
 -->
<!-- Title: oneDegreeRelationshipsDiagram Pages: 1 -->
<svg width="1151pt" height="554pt"
 viewBox="0.00 0.00 1151.00 553.73" xmlns="http://www.w3.org/2000/svg" xmlns:xlink="http://www.w3.org/1999/xlink">
<g id="graph0" class="graph" transform="scale(1 1) rotate(0) translate(4 549.729)">
<title>oneDegreeRelationshipsDiagram</title>
<polygon fill="#ffffff" stroke="transparent" points="-4,4 -4,-549.729 1147,-549.729 1147,4 -4,4"/>
<text text-anchor="middle" x="72.4936" y="-7.3" font-family="Helvetica,sans-Serif" font-size="11.00" fill="#000000">Generated by SchemaSpy</text>
<!-- securitygroups_records -->
<g id="node1" class="node">
<title>securitygroups_records</title>
<g id="a_node1"><a xlink:href="../../tables/securitygroups_records.html" xlink:title="securitygroups_records" target="_top">
<polygon fill="#ffffff" stroke="transparent" points="956,-253.729 956,-424.729 1135,-424.729 1135,-253.729 956,-253.729"/>
<polygon fill="#f5f5f5" stroke="transparent" points="956.5,-401.229 956.5,-424.229 1135.5,-424.229 1135.5,-401.229 956.5,-401.229"/>
<polygon fill="none" stroke="#000000" points="956.5,-401.229 956.5,-424.229 1135.5,-424.229 1135.5,-401.229 956.5,-401.229"/>
<text text-anchor="start" x="961.5" y="-410.329" font-family="Helvetica,sans-Serif" font-weight="bold" font-size="11.00" fill="#000000">securitygroups_records</text>
<text text-anchor="start" x="1100.5437" y="-409.329" font-family="Helvetica,sans-Serif" font-size="11.00" fill="#000000">[table]</text>
<polygon fill="none" stroke="#000000" points="956.5,-379.229 956.5,-401.229 1135.5,-401.229 1135.5,-379.229 956.5,-379.229"/>
<image xlink:href="../../images/primaryKeys.png" width="11px" height="12px" preserveAspectRatio="xMinYMin meet" x="961.5" y="-396.229"/>
<text text-anchor="start" x="976.5" y="-386.329" font-family="Helvetica,sans-Serif" font-size="11.00" fill="#000000">id</text>
<polygon fill="#ffffff" stroke="transparent" points="956.5,-357.229 956.5,-379.229 1135.5,-379.229 1135.5,-357.229 956.5,-357.229"/>
<polygon fill="none" stroke="#000000" points="956.5,-357.229 956.5,-379.229 1135.5,-379.229 1135.5,-357.229 956.5,-357.229"/>
<image xlink:href="../../images/foreignKeys.png" width="11px" height="12px" preserveAspectRatio="xMinYMin meet" x="961.5" y="-374.229"/>
<text text-anchor="start" x="976.5" y="-364.329" font-family="Helvetica,sans-Serif" font-size="11.00" fill="#000000">securitygroup_id</text>
<polygon fill="#ffffff" stroke="transparent" points="956.5,-335.229 956.5,-357.229 1135.5,-357.229 1135.5,-335.229 956.5,-335.229"/>
<polygon fill="none" stroke="#000000" points="956.5,-335.229 956.5,-357.229 1135.5,-357.229 1135.5,-335.229 956.5,-335.229"/>
<image xlink:href="../../images/foreignKeys.png" width="11px" height="12px" preserveAspectRatio="xMinYMin meet" x="961.5" y="-352.229"/>
<text text-anchor="start" x="976.5" y="-342.329" font-family="Helvetica,sans-Serif" font-size="11.00" fill="#000000">record_id</text>
<polygon fill="#ffffff" stroke="transparent" points="956.5,-313.229 956.5,-335.229 1135.5,-335.229 1135.5,-313.229 956.5,-313.229"/>
<polygon fill="none" stroke="#000000" points="956.5,-313.229 956.5,-335.229 1135.5,-335.229 1135.5,-313.229 956.5,-313.229"/>
<text text-anchor="start" x="976.5" y="-320.329" font-family="Helvetica,sans-Serif" font-size="11.00" fill="#000000">module</text>
<polygon fill="#ffffff" stroke="transparent" points="956.5,-291.229 956.5,-313.229 1135.5,-313.229 1135.5,-291.229 956.5,-291.229"/>
<polygon fill="none" stroke="#000000" points="956.5,-291.229 956.5,-313.229 1135.5,-313.229 1135.5,-291.229 956.5,-291.229"/>
<text text-anchor="start" x="976.5" y="-298.329" font-family="Helvetica,sans-Serif" font-size="11.00" fill="#000000">deleted</text>
<polygon fill="none" stroke="#000000" points="956.5,-272.229 956.5,-291.229 1135.5,-291.229 1135.5,-272.229 956.5,-272.229"/>
<text text-anchor="start" x="959.5" y="-278.329" font-family="Helvetica,sans-Serif" font-size="11.00" fill="#000000">...</text>
<polygon fill="#ffffff" stroke="transparent" points="956.5,-253.229 956.5,-272.229 1047.5,-272.229 1047.5,-253.229 956.5,-253.229"/>
<polygon fill="none" stroke="#000000" points="956.5,-253.229 956.5,-272.229 1047.5,-272.229 1047.5,-253.229 956.5,-253.229"/>
<text text-anchor="start" x="959.5" y="-259.329" font-family="Helvetica,sans-Serif" font-size="11.00" fill="#000000">&lt; 41</text>
<polygon fill="#ffffff" stroke="transparent" points="1047.5,-253.229 1047.5,-272.229 1091.5,-272.229 1091.5,-253.229 1047.5,-253.229"/>
<polygon fill="none" stroke="#000000" points="1047.5,-253.229 1047.5,-272.229 1091.5,-272.229 1091.5,-253.229 1047.5,-253.229"/>
<text text-anchor="start" x="1082.3862" y="-259.329" font-family="Helvetica,sans-Serif" font-size="11.00" fill="#000000"> &#160;</text>
<polygon fill="#ffffff" stroke="transparent" points="1091.5,-253.229 1091.5,-272.229 1135.5,-272.229 1135.5,-253.229 1091.5,-253.229"/>
<polygon fill="none" stroke="#000000" points="1091.5,-253.229 1091.5,-272.229 1135.5,-272.229 1135.5,-253.229 1091.5,-253.229"/>
<text text-anchor="start" x="1126.3862" y="-259.329" font-family="Helvetica,sans-Serif" font-size="11.00" fill="#000000"> &#160;</text>
</a>
</g>
</g>
<!-- surveyquestionoptions -->
<g id="node2" class="node">
<title>surveyquestionoptions</title>
<g id="a_node2"><a xlink:href="../../tables/surveyquestionoptions.html" xlink:title="surveyquestionoptions" target="_top">
<polygon fill="#ffffff" stroke="transparent" points="731,-370.729 731,-541.729 907,-541.729 907,-370.729 731,-370.729"/>
<polygon fill="#f5f5f5" stroke="transparent" points="731,-518.229 731,-541.229 907,-541.229 907,-518.229 731,-518.229"/>
<polygon fill="none" stroke="#000000" points="731,-518.229 731,-541.229 907,-541.229 907,-518.229 731,-518.229"/>
<text text-anchor="start" x="736" y="-527.329" font-family="Helvetica,sans-Serif" font-weight="bold" font-size="11.00" fill="#000000">surveyquestionoptions</text>
<text text-anchor="start" x="872.0437" y="-526.329" font-family="Helvetica,sans-Serif" font-size="11.00" fill="#000000">[table]</text>
<polygon fill="none" stroke="#000000" points="731,-496.229 731,-518.229 907,-518.229 907,-496.229 731,-496.229"/>
<image xlink:href="../../images/primaryKeys.png" width="11px" height="12px" preserveAspectRatio="xMinYMin meet" x="736" y="-513.229"/>
<text text-anchor="start" x="751" y="-503.329" font-family="Helvetica,sans-Serif" font-size="11.00" fill="#000000">id</text>
<polygon fill="#c0c0c0" stroke="transparent" points="731,-474.229 731,-496.229 907,-496.229 907,-474.229 731,-474.229"/>
<polygon fill="none" stroke="#000000" points="731,-474.229 731,-496.229 907,-496.229 907,-474.229 731,-474.229"/>
<image xlink:href="../../images/foreignKeys.png" width="11px" height="12px" preserveAspectRatio="xMinYMin meet" x="736" y="-491.229"/>
<text text-anchor="start" x="751" y="-481.329" font-family="Helvetica,sans-Serif" font-size="11.00" fill="#000000">modified_user_id</text>
<polygon fill="#c0c0c0" stroke="transparent" points="731,-452.229 731,-474.229 907,-474.229 907,-452.229 731,-452.229"/>
<polygon fill="none" stroke="#000000" points="731,-452.229 731,-474.229 907,-474.229 907,-452.229 731,-452.229"/>
<image xlink:href="../../images/foreignKeys.png" width="11px" height="12px" preserveAspectRatio="xMinYMin meet" x="736" y="-469.229"/>
<text text-anchor="start" x="751" y="-459.329" font-family="Helvetica,sans-Serif" font-size="11.00" fill="#000000">created_by</text>
<polygon fill="#c0c0c0" stroke="transparent" points="731,-430.229 731,-452.229 907,-452.229 907,-430.229 731,-430.229"/>
<polygon fill="none" stroke="#000000" points="731,-430.229 731,-452.229 907,-452.229 907,-430.229 731,-430.229"/>
<image xlink:href="../../images/foreignKeys.png" width="11px" height="12px" preserveAspectRatio="xMinYMin meet" x="736" y="-447.229"/>
<text text-anchor="start" x="751" y="-437.329" font-family="Helvetica,sans-Serif" font-size="11.00" fill="#000000">assigned_user_id</text>
<polygon fill="none" stroke="#000000" points="731,-408.229 731,-430.229 907,-430.229 907,-408.229 731,-408.229"/>
<image xlink:href="../../images/foreignKeys.png" width="11px" height="12px" preserveAspectRatio="xMinYMin meet" x="736" y="-425.229"/>
<text text-anchor="start" x="751" y="-415.329" font-family="Helvetica,sans-Serif" font-size="11.00" fill="#000000">survey_question_id</text>
<polygon fill="none" stroke="#000000" points="731,-389.229 731,-408.229 907,-408.229 907,-389.229 731,-389.229"/>
<text text-anchor="start" x="734" y="-395.329" font-family="Helvetica,sans-Serif" font-size="11.00" fill="#000000">...</text>
<polygon fill="#ffffff" stroke="transparent" points="731,-370.229 731,-389.229 813,-389.229 813,-370.229 731,-370.229"/>
<polygon fill="none" stroke="#000000" points="731,-370.229 731,-389.229 813,-389.229 813,-370.229 731,-370.229"/>
<text text-anchor="start" x="734" y="-376.329" font-family="Helvetica,sans-Serif" font-size="11.00" fill="#000000">&lt; 4</text>
<polygon fill="#ffffff" stroke="transparent" points="813,-370.229 813,-389.229 855,-389.229 855,-370.229 813,-370.229"/>
<polygon fill="none" stroke="#000000" points="813,-370.229 813,-389.229 855,-389.229 855,-370.229 813,-370.229"/>
<text text-anchor="start" x="845.8862" y="-376.329" font-family="Helvetica,sans-Serif" font-size="11.00" fill="#000000"> &#160;</text>
<polygon fill="#ffffff" stroke="transparent" points="855,-370.229 855,-389.229 907,-389.229 907,-370.229 855,-370.229"/>
<polygon fill="none" stroke="#000000" points="855,-370.229 855,-389.229 907,-389.229 907,-370.229 855,-370.229"/>
<text text-anchor="start" x="888.4053" y="-376.329" font-family="Helvetica,sans-Serif" font-size="11.00" fill="#000000">3 &gt;</text>
</a>
</g>
</g>
<!-- securitygroups_records&#45;&gt;surveyquestionoptions -->
<g id="edge1" class="edge">
<title>securitygroups_records:w&#45;&gt;surveyquestionoptions:e</title>
<path fill="none" stroke="#000000" d="M942.2859,-348.8892C895.8912,-369.8222 976.1589,-507.229 907,-507.229"/>
<polygon fill="#000000" stroke="#000000" points="948.6365,-347.7007 957.1623,-349.7676 952.5683,-346.9649 956.5,-346.229 956.5,-346.229 956.5,-346.229 952.5683,-346.9649 955.8377,-342.6905 948.6365,-347.7007 948.6365,-347.7007"/>
<ellipse fill="none" stroke="#000000" cx="945.4911" cy="-348.2894" rx="3.2" ry="3.2"/>
</g>
<!-- surveyquestions -->
<g id="node3" class="node">
<title>surveyquestions</title>
<g id="a_node3"><a xlink:href="../../tables/surveyquestions.html" xlink:title="surveyquestions" target="_top">
<polygon fill="#ffffff" stroke="transparent" points="457,-80.229 457,-412.229 682,-412.229 682,-80.229 457,-80.229"/>
<polygon fill="#f5f5f5" stroke="transparent" points="459.5,-387.229 459.5,-410.229 680.5,-410.229 680.5,-387.229 459.5,-387.229"/>
<polygon fill="none" stroke="#000000" points="459.5,-387.229 459.5,-410.229 680.5,-410.229 680.5,-387.229 459.5,-387.229"/>
<text text-anchor="start" x="464.5" y="-396.329" font-family="Helvetica,sans-Serif" font-weight="bold" font-size="11.00" fill="#000000">surveyquestions</text>
<text text-anchor="start" x="645.5437" y="-395.329" font-family="Helvetica,sans-Serif" font-size="11.00" fill="#000000">[table]</text>
<polygon fill="none" stroke="#000000" points="459.5,-365.229 459.5,-387.229 613.5,-387.229 613.5,-365.229 459.5,-365.229"/>
<image xlink:href="../../images/primaryKeys.png" width="11px" height="12px" preserveAspectRatio="xMinYMin meet" x="464.5" y="-382.229"/>
<text text-anchor="start" x="479.5" y="-372.329" font-family="Helvetica,sans-Serif" font-size="11.00" fill="#000000">id</text>
<polygon fill="none" stroke="#000000" points="613.5,-365.229 613.5,-387.229 680.5,-387.229 680.5,-365.229 613.5,-365.229"/>
<text text-anchor="start" x="616.5" y="-372.929" font-family="Helvetica,sans-Serif" font-size="11.00" fill="#000000">char[36]</text>
<polygon fill="none" stroke="#000000" points="459.5,-343.229 459.5,-365.229 613.5,-365.229 613.5,-343.229 459.5,-343.229"/>
<text text-anchor="start" x="479.5" y="-350.329" font-family="Helvetica,sans-Serif" font-size="11.00" fill="#000000">name</text>
<polygon fill="none" stroke="#000000" points="613.5,-343.229 613.5,-365.229 680.5,-365.229 680.5,-343.229 613.5,-343.229"/>
<text text-anchor="start" x="616.4365" y="-350.929" font-family="Helvetica,sans-Serif" font-size="11.00" fill="#000000">varchar[255]</text>
<polygon fill="none" stroke="#000000" points="459.5,-321.229 459.5,-343.229 613.5,-343.229 613.5,-321.229 459.5,-321.229"/>
<text text-anchor="start" x="479.5" y="-328.329" font-family="Helvetica,sans-Serif" font-size="11.00" fill="#000000">date_entered</text>
<polygon fill="none" stroke="#000000" points="613.5,-321.229 613.5,-343.229 680.5,-343.229 680.5,-321.229 613.5,-321.229"/>
<text text-anchor="start" x="616.5" y="-328.929" font-family="Helvetica,sans-Serif" font-size="11.00" fill="#000000">datetime[26]</text>
<polygon fill="none" stroke="#000000" points="459.5,-299.229 459.5,-321.229 613.5,-321.229 613.5,-299.229 459.5,-299.229"/>
<text text-anchor="start" x="479.5" y="-306.329" font-family="Helvetica,sans-Serif" font-size="11.00" fill="#000000">date_modified</text>
<polygon fill="none" stroke="#000000" points="613.5,-299.229 613.5,-321.229 680.5,-321.229 680.5,-299.229 613.5,-299.229"/>
<text text-anchor="start" x="616.5" y="-306.929" font-family="Helvetica,sans-Serif" font-size="11.00" fill="#000000">datetime[26]</text>
<polygon fill="none" stroke="#000000" points="459.5,-277.229 459.5,-299.229 613.5,-299.229 613.5,-277.229 459.5,-277.229"/>
<image xlink:href="../../images/foreignKeys.png" width="11px" height="12px" preserveAspectRatio="xMinYMin meet" x="464.5" y="-294.229"/>
<text text-anchor="start" x="479.5" y="-284.329" font-family="Helvetica,sans-Serif" font-size="11.00" fill="#000000">modified_user_id</text>
<polygon fill="none" stroke="#000000" points="613.5,-277.229 613.5,-299.229 680.5,-299.229 680.5,-277.229 613.5,-277.229"/>
<text text-anchor="start" x="616.5" y="-284.929" font-family="Helvetica,sans-Serif" font-size="11.00" fill="#000000">char[36]</text>
<polygon fill="none" stroke="#000000" points="459.5,-255.229 459.5,-277.229 613.5,-277.229 613.5,-255.229 459.5,-255.229"/>
<image xlink:href="../../images/foreignKeys.png" width="11px" height="12px" preserveAspectRatio="xMinYMin meet" x="464.5" y="-272.229"/>
<text text-anchor="start" x="479.5" y="-262.329" font-family="Helvetica,sans-Serif" font-size="11.00" fill="#000000">created_by</text>
<polygon fill="none" stroke="#000000" points="613.5,-255.229 613.5,-277.229 680.5,-277.229 680.5,-255.229 613.5,-255.229"/>
<text text-anchor="start" x="616.5" y="-262.929" font-family="Helvetica,sans-Serif" font-size="11.00" fill="#000000">char[36]</text>
<polygon fill="none" stroke="#000000" points="459.5,-233.229 459.5,-255.229 613.5,-255.229 613.5,-233.229 459.5,-233.229"/>
<text text-anchor="start" x="479.5" y="-240.329" font-family="Helvetica,sans-Serif" font-size="11.00" fill="#000000">description</text>
<polygon fill="none" stroke="#000000" points="613.5,-233.229 613.5,-255.229 680.5,-255.229 680.5,-233.229 613.5,-233.229"/>
<text text-anchor="start" x="616.5" y="-240.929" font-family="Helvetica,sans-Serif" font-size="11.00" fill="#000000">text[65535]</text>
<polygon fill="none" stroke="#000000" points="459.5,-211.229 459.5,-233.229 613.5,-233.229 613.5,-211.229 459.5,-211.229"/>
<text text-anchor="start" x="479.5" y="-218.329" font-family="Helvetica,sans-Serif" font-size="11.00" fill="#000000">deleted</text>
<polygon fill="none" stroke="#000000" points="613.5,-211.229 613.5,-233.229 680.5,-233.229 680.5,-211.229 613.5,-211.229"/>
<text text-anchor="start" x="616.5" y="-218.929" font-family="Helvetica,sans-Serif" font-size="11.00" fill="#000000">bit[1]</text>
<polygon fill="none" stroke="#000000" points="459.5,-189.229 459.5,-211.229 613.5,-211.229 613.5,-189.229 459.5,-189.229"/>
<image xlink:href="../../images/foreignKeys.png" width="11px" height="12px" preserveAspectRatio="xMinYMin meet" x="464.5" y="-206.229"/>
<text text-anchor="start" x="479.5" y="-196.329" font-family="Helvetica,sans-Serif" font-size="11.00" fill="#000000">assigned_user_id</text>
<polygon fill="none" stroke="#000000" points="613.5,-189.229 613.5,-211.229 680.5,-211.229 680.5,-189.229 613.5,-189.229"/>
<text text-anchor="start" x="616.5" y="-196.929" font-family="Helvetica,sans-Serif" font-size="11.00" fill="#000000">char[36]</text>
<polygon fill="none" stroke="#000000" points="459.5,-167.229 459.5,-189.229 613.5,-189.229 613.5,-167.229 459.5,-167.229"/>
<text text-anchor="start" x="479.5" y="-174.329" font-family="Helvetica,sans-Serif" font-size="11.00" fill="#000000">sort_order</text>
<polygon fill="none" stroke="#000000" points="613.5,-167.229 613.5,-189.229 680.5,-189.229 680.5,-167.229 613.5,-167.229"/>
<text text-anchor="start" x="616.5" y="-174.929" font-family="Helvetica,sans-Serif" font-size="11.00" fill="#000000">int[10]</text>
<polygon fill="none" stroke="#000000" points="459.5,-145.229 459.5,-167.229 613.5,-167.229 613.5,-145.229 459.5,-145.229"/>
<text text-anchor="start" x="479.5" y="-152.329" font-family="Helvetica,sans-Serif" font-size="11.00" fill="#000000">type</text>
<polygon fill="none" stroke="#000000" points="613.5,-145.229 613.5,-167.229 680.5,-167.229 680.5,-145.229 613.5,-145.229"/>
<text text-anchor="start" x="616.4365" y="-152.929" font-family="Helvetica,sans-Serif" font-size="11.00" fill="#000000">varchar[100]</text>
<polygon fill="none" stroke="#000000" points="459.5,-123.229 459.5,-145.229 613.5,-145.229 613.5,-123.229 459.5,-123.229"/>
<text text-anchor="start" x="479.5" y="-130.329" font-family="Helvetica,sans-Serif" font-size="11.00" fill="#000000">happiness_question</text>
<polygon fill="none" stroke="#000000" points="613.5,-123.229 613.5,-145.229 680.5,-145.229 680.5,-123.229 613.5,-123.229"/>
<text text-anchor="start" x="616.5" y="-130.929" font-family="Helvetica,sans-Serif" font-size="11.00" fill="#000000">bit[1]</text>
<polygon fill="none" stroke="#000000" points="459.5,-101.229 459.5,-123.229 613.5,-123.229 613.5,-101.229 459.5,-101.229"/>
<image xlink:href="../../images/foreignKeys.png" width="11px" height="12px" preserveAspectRatio="xMinYMin meet" x="464.5" y="-118.229"/>
<text text-anchor="start" x="479.5" y="-108.329" font-family="Helvetica,sans-Serif" font-size="11.00" fill="#000000">survey_id</text>
<polygon fill="none" stroke="#000000" points="613.5,-101.229 613.5,-123.229 680.5,-123.229 680.5,-101.229 613.5,-101.229"/>
<text text-anchor="start" x="616.5" y="-108.929" font-family="Helvetica,sans-Serif" font-size="11.00" fill="#000000">char[36]</text>
<polygon fill="#ffffff" stroke="transparent" points="459.5,-82.229 459.5,-101.229 540.5,-101.229 540.5,-82.229 459.5,-82.229"/>
<polygon fill="none" stroke="#000000" points="459.5,-82.229 459.5,-101.229 540.5,-101.229 540.5,-82.229 459.5,-82.229"/>
<text text-anchor="start" x="462.5" y="-88.329" font-family="Helvetica,sans-Serif" font-size="11.00" fill="#000000">&lt; 4</text>
<polygon fill="#ffffff" stroke="transparent" points="540.5,-82.229 540.5,-101.229 613.5,-101.229 613.5,-82.229 540.5,-82.229"/>
<polygon fill="none" stroke="#000000" points="540.5,-82.229 540.5,-101.229 613.5,-101.229 613.5,-82.229 540.5,-82.229"/>
<text text-anchor="start" x="604.3862" y="-88.329" font-family="Helvetica,sans-Serif" font-size="11.00" fill="#000000"> &#160;</text>
<polygon fill="#ffffff" stroke="transparent" points="613.5,-82.229 613.5,-101.229 680.5,-101.229 680.5,-82.229 613.5,-82.229"/>
<polygon fill="none" stroke="#000000" points="613.5,-82.229 613.5,-101.229 680.5,-101.229 680.5,-82.229 613.5,-82.229"/>
<text text-anchor="start" x="661.9053" y="-88.329" font-family="Helvetica,sans-Serif" font-size="11.00" fill="#000000">3 &gt;</text>
<polygon fill="none" stroke="#000000" stroke-width="2" points="458,-81.229 458,-411.229 681,-411.229 681,-81.229 458,-81.229"/>
</a>
</g>
</g>
<!-- securitygroups_records&#45;&gt;surveyquestions -->
<g id="edge2" class="edge">
<title>securitygroups_records:w&#45;&gt;surveyquestions:e</title>
<path fill="none" stroke="#000000" d="M942.0818,-346.1804C849.701,-345.5622 819.8152,-339.5964 723,-360.229 703.2602,-364.4359 700.6831,-376.229 680.5,-376.229"/>
<polygon fill="#000000" stroke="#000000" points="948.5,-346.202 956.4878,-349.829 952.5,-346.2155 956.5,-346.229 956.5,-346.229 956.5,-346.229 952.5,-346.2155 956.5122,-342.629 948.5,-346.202 948.5,-346.202"/>
<ellipse fill="none" stroke="#000000" cx="945.3001" cy="-346.1912" rx="3.2" ry="3.2"/>
</g>
<!-- surveys -->
<g id="node4" class="node">
<title>surveys</title>
<g id="a_node4"><a xlink:href="../../tables/surveys.html" xlink:title="surveys" target="_top">
<polygon fill="#ffffff" stroke="transparent" points="273,-62.729 273,-211.729 408,-211.729 408,-62.729 273,-62.729"/>
<polygon fill="#f5f5f5" stroke="transparent" points="273.5,-188.229 273.5,-211.229 408.5,-211.229 408.5,-188.229 273.5,-188.229"/>
<polygon fill="none" stroke="#000000" points="273.5,-188.229 273.5,-211.229 408.5,-211.229 408.5,-188.229 273.5,-188.229"/>
<text text-anchor="start" x="278.5" y="-197.329" font-family="Helvetica,sans-Serif" font-weight="bold" font-size="11.00" fill="#000000">surveys</text>
<text text-anchor="start" x="373.5437" y="-196.329" font-family="Helvetica,sans-Serif" font-size="11.00" fill="#000000">[table]</text>
<polygon fill="none" stroke="#000000" points="273.5,-166.229 273.5,-188.229 408.5,-188.229 408.5,-166.229 273.5,-166.229"/>
<image xlink:href="../../images/primaryKeys.png" width="11px" height="12px" preserveAspectRatio="xMinYMin meet" x="278.5" y="-183.229"/>
<text text-anchor="start" x="293.5" y="-173.329" font-family="Helvetica,sans-Serif" font-size="11.00" fill="#000000">id</text>
<polygon fill="#c0c0c0" stroke="transparent" points="273.5,-144.229 273.5,-166.229 408.5,-166.229 408.5,-144.229 273.5,-144.229"/>
<polygon fill="none" stroke="#000000" points="273.5,-144.229 273.5,-166.229 408.5,-166.229 408.5,-144.229 273.5,-144.229"/>
<image xlink:href="../../images/foreignKeys.png" width="11px" height="12px" preserveAspectRatio="xMinYMin meet" x="278.5" y="-161.229"/>
<text text-anchor="start" x="293.5" y="-151.329" font-family="Helvetica,sans-Serif" font-size="11.00" fill="#000000">modified_user_id</text>
<polygon fill="#c0c0c0" stroke="transparent" points="273.5,-122.229 273.5,-144.229 408.5,-144.229 408.5,-122.229 273.5,-122.229"/>
<polygon fill="none" stroke="#000000" points="273.5,-122.229 273.5,-144.229 408.5,-144.229 408.5,-122.229 273.5,-122.229"/>
<image xlink:href="../../images/foreignKeys.png" width="11px" height="12px" preserveAspectRatio="xMinYMin meet" x="278.5" y="-139.229"/>
<text text-anchor="start" x="293.5" y="-129.329" font-family="Helvetica,sans-Serif" font-size="11.00" fill="#000000">created_by</text>
<polygon fill="#c0c0c0" stroke="transparent" points="273.5,-100.229 273.5,-122.229 408.5,-122.229 408.5,-100.229 273.5,-100.229"/>
<polygon fill="none" stroke="#000000" points="273.5,-100.229 273.5,-122.229 408.5,-122.229 408.5,-100.229 273.5,-100.229"/>
<image xlink:href="../../images/foreignKeys.png" width="11px" height="12px" preserveAspectRatio="xMinYMin meet" x="278.5" y="-117.229"/>
<text text-anchor="start" x="293.5" y="-107.329" font-family="Helvetica,sans-Serif" font-size="11.00" fill="#000000">assigned_user_id</text>
<polygon fill="none" stroke="#000000" points="273.5,-81.229 273.5,-100.229 408.5,-100.229 408.5,-81.229 273.5,-81.229"/>
<text text-anchor="start" x="276.5" y="-87.329" font-family="Helvetica,sans-Serif" font-size="11.00" fill="#000000">...</text>
<polygon fill="#ffffff" stroke="transparent" points="273.5,-62.229 273.5,-81.229 334.5,-81.229 334.5,-62.229 273.5,-62.229"/>
<polygon fill="none" stroke="#000000" points="273.5,-62.229 273.5,-81.229 334.5,-81.229 334.5,-62.229 273.5,-62.229"/>
<text text-anchor="start" x="276.5" y="-68.329" font-family="Helvetica,sans-Serif" font-size="11.00" fill="#000000">&lt; 3</text>
<polygon fill="#ffffff" stroke="transparent" points="334.5,-62.229 334.5,-81.229 366.5,-81.229 366.5,-62.229 334.5,-62.229"/>
<polygon fill="none" stroke="#000000" points="334.5,-62.229 334.5,-81.229 366.5,-81.229 366.5,-62.229 334.5,-62.229"/>
<text text-anchor="start" x="357.3862" y="-68.329" font-family="Helvetica,sans-Serif" font-size="11.00" fill="#000000"> &#160;</text>
<polygon fill="#ffffff" stroke="transparent" points="366.5,-62.229 366.5,-81.229 408.5,-81.229 408.5,-62.229 366.5,-62.229"/>
<polygon fill="none" stroke="#000000" points="366.5,-62.229 366.5,-81.229 408.5,-81.229 408.5,-62.229 366.5,-62.229"/>
<text text-anchor="start" x="389.9053" y="-68.329" font-family="Helvetica,sans-Serif" font-size="11.00" fill="#000000">5 &gt;</text>
</a>
</g>
</g>
<!-- securitygroups_records&#45;&gt;surveys -->
<g id="edge3" class="edge">
<title>securitygroups_records:w&#45;&gt;surveys:e</title>
<path fill="none" stroke="#000000" d="M942.1952,-344.2618C901.8807,-330.9465 951.1068,-253.1362 915,-206.229 843.5855,-113.4528 802.7283,-100.8484 690,-69.229 586.869,-40.3016 537.0374,-8.2191 449,-69.229 406.8648,-98.4288 459.764,-177.229 408.5,-177.229"/>
<polygon fill="#000000" stroke="#000000" points="948.5746,-345.139 956.0095,-349.7955 952.5373,-345.684 956.5,-346.229 956.5,-346.229 956.5,-346.229 952.5373,-345.684 956.9905,-342.6626 948.5746,-345.139 948.5746,-345.139"/>
<ellipse fill="none" stroke="#000000" cx="945.4044" cy="-344.703" rx="3.2" ry="3.2"/>
</g>
<!-- surveyquestionoptions&#45;&gt;surveyquestions -->
<g id="edge7" class="edge">
<title>surveyquestionoptions:w&#45;&gt;surveyquestions:e</title>
<path fill="none" stroke="#000000" d="M717.0963,-414.6273C703.3919,-403.5344 703.9908,-376.229 680.5,-376.229"/>
<polygon fill="#000000" stroke="#000000" points="723.4052,-416.7153 729.8688,-422.6467 727.2026,-417.9722 731,-419.229 731,-419.229 731,-419.229 727.2026,-417.9722 732.1312,-415.8114 723.4052,-416.7153 723.4052,-416.7153"/>
<ellipse fill="none" stroke="#000000" cx="720.3672" cy="-415.7098" rx="3.2" ry="3.2"/>
</g>
<!-- users -->
<g id="node5" class="node">
<title>users</title>
<g id="a_node5"><a xlink:href="../../tables/users.html" xlink:title="users" target="_top">
<polygon fill="#ffffff" stroke="transparent" points="8,-82.729 8,-297.729 224,-297.729 224,-82.729 8,-82.729"/>
<polygon fill="#f5f5f5" stroke="transparent" points="8,-274.229 8,-297.229 224,-297.229 224,-274.229 8,-274.229"/>
<polygon fill="none" stroke="#000000" points="8,-274.229 8,-297.229 224,-297.229 224,-274.229 8,-274.229"/>
<text text-anchor="start" x="13" y="-283.329" font-family="Helvetica,sans-Serif" font-weight="bold" font-size="11.00" fill="#000000">users</text>
<text text-anchor="start" x="189.0437" y="-282.329" font-family="Helvetica,sans-Serif" font-size="11.00" fill="#000000">[table]</text>
<polygon fill="none" stroke="#000000" points="8,-252.229 8,-274.229 224,-274.229 224,-252.229 8,-252.229"/>
<image xlink:href="../../images/primaryKeys.png" width="11px" height="12px" preserveAspectRatio="xMinYMin meet" x="13" y="-269.229"/>
<text text-anchor="start" x="28" y="-259.329" font-family="Helvetica,sans-Serif" font-size="11.00" fill="#000000">id</text>
<polygon fill="#ffffff" stroke="transparent" points="8,-230.229 8,-252.229 224,-252.229 224,-230.229 8,-230.229"/>
<polygon fill="none" stroke="#000000" points="8,-230.229 8,-252.229 224,-252.229 224,-230.229 8,-230.229"/>
<text text-anchor="start" x="28" y="-237.329" font-family="Helvetica,sans-Serif" font-size="11.00" fill="#000000">user_name</text>
<polygon fill="#ffffff" stroke="transparent" points="8,-208.229 8,-230.229 224,-230.229 224,-208.229 8,-208.229"/>
<polygon fill="none" stroke="#000000" points="8,-208.229 8,-230.229 224,-230.229 224,-208.229 8,-208.229"/>
<text text-anchor="start" x="28" y="-215.329" font-family="Helvetica,sans-Serif" font-size="11.00" fill="#000000">first_name</text>
<polygon fill="#ffffff" stroke="transparent" points="8,-186.229 8,-208.229 224,-208.229 224,-186.229 8,-186.229"/>
<polygon fill="none" stroke="#000000" points="8,-186.229 8,-208.229 224,-208.229 224,-186.229 8,-186.229"/>
<text text-anchor="start" x="28" y="-193.329" font-family="Helvetica,sans-Serif" font-size="11.00" fill="#000000">last_name</text>
<polygon fill="#ffffff" stroke="transparent" points="8,-164.229 8,-186.229 224,-186.229 224,-164.229 8,-164.229"/>
<polygon fill="none" stroke="#000000" points="8,-164.229 8,-186.229 224,-186.229 224,-164.229 8,-164.229"/>
<text text-anchor="start" x="28" y="-171.329" font-family="Helvetica,sans-Serif" font-size="11.00" fill="#000000">status</text>
<polygon fill="#c0c0c0" stroke="transparent" points="8,-142.229 8,-164.229 224,-164.229 224,-142.229 8,-142.229"/>
<polygon fill="none" stroke="#000000" points="8,-142.229 8,-164.229 224,-164.229 224,-142.229 8,-142.229"/>
<image xlink:href="../../images/foreignKeys.png" width="11px" height="12px" preserveAspectRatio="xMinYMin meet" x="13" y="-159.229"/>
<text text-anchor="start" x="28" y="-149.329" font-family="Helvetica,sans-Serif" font-size="11.00" fill="#000000">reports_to_id</text>
<polygon fill="#ffffff" stroke="transparent" points="8,-120.229 8,-142.229 224,-142.229 224,-120.229 8,-120.229"/>
<polygon fill="none" stroke="#000000" points="8,-120.229 8,-142.229 224,-142.229 224,-120.229 8,-120.229"/>
<text text-anchor="start" x="28" y="-127.329" font-family="Helvetica,sans-Serif" font-size="11.00" fill="#000000">is_group</text>
<polygon fill="none" stroke="#000000" points="8,-101.229 8,-120.229 224,-120.229 224,-101.229 8,-101.229"/>
<text text-anchor="start" x="11" y="-107.329" font-family="Helvetica,sans-Serif" font-size="11.00" fill="#000000">...</text>
<polygon fill="#ffffff" stroke="transparent" points="8,-82.229 8,-101.229 104,-101.229 104,-82.229 8,-82.229"/>
<polygon fill="none" stroke="#000000" points="8,-82.229 8,-101.229 104,-101.229 104,-82.229 8,-82.229"/>
<text text-anchor="start" x="11" y="-88.329" font-family="Helvetica,sans-Serif" font-size="11.00" fill="#000000">&lt; 2</text>
<polygon fill="#ffffff" stroke="transparent" points="104,-82.229 104,-101.229 153,-101.229 153,-82.229 104,-82.229"/>
<polygon fill="none" stroke="#000000" points="104,-82.229 104,-101.229 153,-101.229 153,-82.229 104,-82.229"/>
<text text-anchor="start" x="143.8862" y="-88.329" font-family="Helvetica,sans-Serif" font-size="11.00" fill="#000000"> &#160;</text>
<polygon fill="#ffffff" stroke="transparent" points="153,-82.229 153,-101.229 224,-101.229 224,-82.229 153,-82.229"/>
<polygon fill="none" stroke="#000000" points="153,-82.229 153,-101.229 224,-101.229 224,-82.229 153,-82.229"/>
<text text-anchor="start" x="193.1755" y="-88.329" font-family="Helvetica,sans-Serif" font-size="11.00" fill="#000000">214 &gt;</text>
</a>
</g>
</g>
<!-- surveyquestionoptions&#45;&gt;users -->
<g id="edge4" class="edge">
<title>surveyquestionoptions:w&#45;&gt;users:e</title>
<path fill="none" stroke="#000000" d="M716.3249,-441.3386C602.2357,-443.0446 562.6205,-463.5415 449,-423.229 441.7723,-420.6646 231.6691,-263.229 224,-263.229"/>
<polygon fill="#000000" stroke="#000000" points="723.0002,-441.2888 731.0269,-444.8289 727.0001,-441.2589 731,-441.229 731,-441.229 731,-441.229 727.0001,-441.2589 730.9731,-437.6291 723.0002,-441.2888 723.0002,-441.2888"/>
<ellipse fill="none" stroke="#000000" cx="719.8003" cy="-441.3128" rx="3.2" ry="3.2"/>
</g>
<!-- surveyquestionoptions&#45;&gt;users -->
<g id="edge5" class="edge">
<title>surveyquestionoptions:w&#45;&gt;users:e</title>
<path fill="none" stroke="#000000" d="M716.3386,-463.2947C602.4632,-464.3125 565.4608,-476.3993 449,-445.229 360.8696,-421.6412 328.3402,-419.8901 265,-354.229 234.2021,-322.3026 268.3599,-263.229 224,-263.229"/>
<polygon fill="#000000" stroke="#000000" points="723.0001,-463.2649 731.0161,-466.829 727,-463.247 731,-463.229 731,-463.229 731,-463.229 727,-463.247 730.9839,-459.6291 723.0001,-463.2649 723.0001,-463.2649"/>
<ellipse fill="none" stroke="#000000" cx="719.8001" cy="-463.2793" rx="3.2" ry="3.2"/>
</g>
<!-- surveyquestionoptions&#45;&gt;users -->
<g id="edge6" class="edge">
<title>surveyquestionoptions:w&#45;&gt;users:e</title>
<path fill="none" stroke="#000000" d="M716.3827,-485.3413C515.611,-488.4063 407.441,-552.0614 265,-404.229 219.7175,-357.2326 289.2622,-263.229 224,-263.229"/>
<polygon fill="#000000" stroke="#000000" points="723.0002,-485.2905 731.0277,-488.8289 727.0001,-485.2598 731,-485.229 731,-485.229 731,-485.229 727.0001,-485.2598 730.9723,-481.6291 723.0002,-485.2905 723.0002,-485.2905"/>
<ellipse fill="none" stroke="#000000" cx="719.8003" cy="-485.3151" rx="3.2" ry="3.2"/>
</g>
<!-- surveyquestions&#45;&gt;surveys -->
<g id="edge11" class="edge">
<title>surveyquestions:w&#45;&gt;surveys:e</title>
<path fill="none" stroke="#000000" d="M445.6816,-116.9037C428.5508,-131.8076 439.1955,-177.229 408.5,-177.229"/>
<polygon fill="#000000" stroke="#000000" points="451.9219,-114.7927 460.6536,-115.6392 455.7109,-113.5108 459.5,-112.229 459.5,-112.229 459.5,-112.229 455.7109,-113.5108 458.3464,-108.8189 451.9219,-114.7927 451.9219,-114.7927"/>
<ellipse fill="none" stroke="#000000" cx="448.8906" cy="-115.8181" rx="3.2" ry="3.2"/>
</g>
<!-- surveyquestions&#45;&gt;users -->
<g id="edge8" class="edge">
<title>surveyquestions:w&#45;&gt;users:e</title>
<path fill="none" stroke="#000000" d="M445.1587,-203.2547C435.5511,-207.9811 430.7044,-217.1042 416,-222.229 351.3058,-244.7765 331.8467,-238.2206 265,-253.229 246.6992,-257.3379 242.7564,-263.229 224,-263.229"/>
<polygon fill="#000000" stroke="#000000" points="451.6723,-201.8805 460.2432,-203.7515 455.5862,-201.0548 459.5,-200.229 459.5,-200.229 459.5,-200.229 455.5862,-201.0548 458.7568,-196.7066 451.6723,-201.8805 451.6723,-201.8805"/>
<ellipse fill="none" stroke="#000000" cx="448.5412" cy="-202.5411" rx="3.2" ry="3.2"/>
</g>
<!-- surveyquestions&#45;&gt;users -->
<g id="edge9" class="edge">
<title>surveyquestions:w&#45;&gt;users:e</title>
<path fill="none" stroke="#000000" d="M444.9956,-266.2091C352.1424,-265.9488 323.6663,-263.229 224,-263.229"/>
<polygon fill="#000000" stroke="#000000" points="451.5,-266.218 459.495,-269.829 455.5,-266.2235 459.5,-266.229 459.5,-266.229 459.5,-266.229 455.5,-266.2235 459.505,-262.629 451.5,-266.218 451.5,-266.218"/>
<ellipse fill="none" stroke="#000000" cx="448.3" cy="-266.2135" rx="3.2" ry="3.2"/>
</g>
<!-- surveyquestions&#45;&gt;users -->
<g id="edge10" class="edge">
<title>surveyquestions:w&#45;&gt;users:e</title>
<path fill="none" stroke="#000000" d="M444.902,-288.2301C369.9939,-288.2257 345.455,-287.7903 265,-274.229 246.3958,-271.0932 242.8667,-263.229 224,-263.229"/>
<polygon fill="#000000" stroke="#000000" points="451.5,-288.2297 459.5003,-291.829 455.5,-288.2294 459.5,-288.229 459.5,-288.229 459.5,-288.229 455.5,-288.2294 459.4997,-284.629 451.5,-288.2297 451.5,-288.2297"/>
<ellipse fill="none" stroke="#000000" cx="448.3" cy="-288.23" rx="3.2" ry="3.2"/>
</g>
<!-- surveys&#45;&gt;users -->
<g id="edge13" class="edge">
<title>surveys:w&#45;&gt;users:e</title>
<path fill="none" stroke="#000000" d="M259.1385,-114.1297C216.5427,-135.1437 289.2194,-263.229 224,-263.229"/>
<polygon fill="#000000" stroke="#000000" points="265.6583,-112.8129 274.2127,-114.7578 269.5792,-112.021 273.5,-111.229 273.5,-111.229 273.5,-111.229 269.5792,-112.021 272.7873,-107.7003 265.6583,-112.8129 265.6583,-112.8129"/>
<ellipse fill="none" stroke="#000000" cx="262.5217" cy="-113.4464" rx="3.2" ry="3.2"/>
</g>
<!-- surveys&#45;&gt;users -->
<g id="edge14" class="edge">
<title>surveys:w&#45;&gt;users:e</title>
<path fill="none" stroke="#000000" d="M259.0243,-136.7062C224.861,-157.3799 279.787,-263.229 224,-263.229"/>
<polygon fill="#000000" stroke="#000000" points="265.7213,-135.0976 274.3409,-136.7295 269.6106,-134.1633 273.5,-133.229 273.5,-133.229 273.5,-133.229 269.6106,-134.1633 272.6591,-129.7286 265.7213,-135.0976 265.7213,-135.0976"/>
<ellipse fill="none" stroke="#000000" cx="262.6098" cy="-135.845" rx="3.2" ry="3.2"/>
</g>
<!-- surveys&#45;&gt;users -->
<g id="edge15" class="edge">
<title>surveys:w&#45;&gt;users:e</title>
<path fill="none" stroke="#000000" d="M259.4317,-159.0728C232.0118,-178.3119 270.8201,-263.229 224,-263.229"/>
<polygon fill="#000000" stroke="#000000" points="265.7829,-157.3376 274.4488,-158.7017 269.6414,-156.2833 273.5,-155.229 273.5,-155.229 273.5,-155.229 269.6414,-156.2833 272.5512,-151.7563 265.7829,-157.3376 265.7829,-157.3376"/>
<ellipse fill="none" stroke="#000000" cx="262.696" cy="-158.181" rx="3.2" ry="3.2"/>
</g>
<!-- surveyquestions_audit -->
<g id="node6" class="node">
<title>surveyquestions_audit</title>
<g id="a_node6"><a xlink:href="../../tables/surveyquestions_audit.html" xlink:title="surveyquestions_audit" target="_top">
<polygon fill="#ffffff" stroke="transparent" points="732.5,-216.729 732.5,-321.729 905.5,-321.729 905.5,-216.729 732.5,-216.729"/>
<polygon fill="#f5f5f5" stroke="transparent" points="733,-298.229 733,-321.229 906,-321.229 906,-298.229 733,-298.229"/>
<polygon fill="none" stroke="#000000" points="733,-298.229 733,-321.229 906,-321.229 906,-298.229 733,-298.229"/>
<text text-anchor="start" x="738" y="-307.329" font-family="Helvetica,sans-Serif" font-weight="bold" font-size="11.00" fill="#000000">surveyquestions_audit</text>
<text text-anchor="start" x="871.0437" y="-306.329" font-family="Helvetica,sans-Serif" font-size="11.00" fill="#000000">[table]</text>
<polygon fill="none" stroke="#000000" points="733,-276.229 733,-298.229 906,-298.229 906,-276.229 733,-276.229"/>
<image xlink:href="../../images/primaryKeys.png" width="11px" height="12px" preserveAspectRatio="xMinYMin meet" x="738" y="-293.229"/>
<text text-anchor="start" x="753" y="-283.329" font-family="Helvetica,sans-Serif" font-size="11.00" fill="#000000">id</text>
<polygon fill="#c0c0c0" stroke="transparent" points="733,-254.229 733,-276.229 906,-276.229 906,-254.229 733,-254.229"/>
<polygon fill="none" stroke="#000000" points="733,-254.229 733,-276.229 906,-276.229 906,-254.229 733,-254.229"/>
<image xlink:href="../../images/foreignKeys.png" width="11px" height="12px" preserveAspectRatio="xMinYMin meet" x="738" y="-271.229"/>
<text text-anchor="start" x="753" y="-261.329" font-family="Helvetica,sans-Serif" font-size="11.00" fill="#000000">parent_id</text>
<polygon fill="none" stroke="#000000" points="733,-235.229 733,-254.229 906,-254.229 906,-235.229 733,-235.229"/>
<text text-anchor="start" x="736" y="-241.329" font-family="Helvetica,sans-Serif" font-size="11.00" fill="#000000">...</text>
<polygon fill="#ffffff" stroke="transparent" points="733,-216.229 733,-235.229 818,-235.229 818,-216.229 733,-216.229"/>
<polygon fill="none" stroke="#000000" points="733,-216.229 733,-235.229 818,-235.229 818,-216.229 733,-216.229"/>
<text text-anchor="start" x="736" y="-222.329" font-family="Helvetica,sans-Serif" font-size="11.00" fill="#000000">&lt; 1</text>
<polygon fill="#ffffff" stroke="transparent" points="818,-216.229 818,-235.229 862,-235.229 862,-216.229 818,-216.229"/>
<polygon fill="none" stroke="#000000" points="818,-216.229 818,-235.229 862,-235.229 862,-216.229 818,-216.229"/>
<text text-anchor="start" x="852.8862" y="-222.329" font-family="Helvetica,sans-Serif" font-size="11.00" fill="#000000"> &#160;</text>
<polygon fill="#ffffff" stroke="transparent" points="862,-216.229 862,-235.229 906,-235.229 906,-216.229 862,-216.229"/>
<polygon fill="none" stroke="#000000" points="862,-216.229 862,-235.229 906,-235.229 906,-216.229 862,-216.229"/>
<text text-anchor="start" x="896.8862" y="-222.329" font-family="Helvetica,sans-Serif" font-size="11.00" fill="#000000"> &#160;</text>
</a>
</g>
</g>
<!-- surveyquestions_audit&#45;&gt;surveyquestions -->
<g id="edge12" class="edge">
<title>surveyquestions_audit:w&#45;&gt;surveyquestions:e</title>
<path fill="none" stroke="#000000" d="M718.7937,-268.9222C689.4878,-288.1824 729.1042,-376.229 680.5,-376.229"/>
<polygon fill="#000000" stroke="#000000" points="725.2574,-267.2419 733.9058,-268.7132 729.1287,-266.2355 733,-265.229 733,-265.229 733,-265.229 729.1287,-266.2355 732.0942,-261.7448 725.2574,-267.2419 725.2574,-267.2419"/>
<ellipse fill="none" stroke="#000000" cx="722.1603" cy="-268.047" rx="3.2" ry="3.2"/>
</g>
</g>
</svg>
