<?xml version="1.0" encoding="UTF-8" standalone="no"?>
<!DOCTYPE svg PUBLIC "-//W3C//DTD SVG 1.1//EN"
 "http://www.w3.org/Graphics/SVG/1.1/DTD/svg11.dtd">
<!-- Generated by graphviz version 2.40.1 (20161225.0304)
 -->
<!-- Title: twoDegreesRelationshipsDiagram Pages: 1 -->
<svg width="814pt" height="517pt"
 viewBox="0.00 0.00 814.00 516.52" xmlns="http://www.w3.org/2000/svg" xmlns:xlink="http://www.w3.org/1999/xlink">
<g id="graph0" class="graph" transform="scale(1 1) rotate(0) translate(4 512.5171)">
<title>twoDegreesRelationshipsDiagram</title>
<polygon fill="#ffffff" stroke="transparent" points="-4,4 -4,-512.5171 810,-512.5171 810,4 -4,4"/>
<text text-anchor="middle" x="72.4936" y="-7.3" font-family="Helvetica,sans-Serif" font-size="11.00" fill="#000000">Generated by SchemaSpy</text>
<!-- campaigns -->
<g id="node1" class="node">
<title>campaigns</title>
<g id="a_node1"><a xlink:href="../../tables/campaigns.html" xlink:title="campaigns" target="_top">
<polygon fill="#ffffff" stroke="transparent" points="256.5,-379.7 256.5,-440.7 352.5,-440.7 352.5,-379.7 256.5,-379.7"/>
<polygon fill="#f5f5f5" stroke="transparent" points="256.5,-417.2 256.5,-440.2 352.5,-440.2 352.5,-417.2 256.5,-417.2"/>
<polygon fill="none" stroke="#000000" points="256.5,-417.2 256.5,-440.2 352.5,-440.2 352.5,-417.2 256.5,-417.2"/>
<text text-anchor="start" x="261.4114" y="-426.3" font-family="Helvetica,sans-Serif" font-weight="bold" font-size="11.00" fill="#000000">campaigns</text>
<text text-anchor="start" x="318.0219" y="-425.3" font-family="Helvetica,sans-Serif" font-size="11.00" fill="#000000">[table]</text>
<polygon fill="none" stroke="#000000" points="256.5,-398.2 256.5,-417.2 352.5,-417.2 352.5,-398.2 256.5,-398.2"/>
<text text-anchor="start" x="259.5" y="-404.3" font-family="Helvetica,sans-Serif" font-size="11.00" fill="#000000">...</text>
<polygon fill="#ffffff" stroke="transparent" points="256.5,-379.2 256.5,-398.2 295.5,-398.2 295.5,-379.2 256.5,-379.2"/>
<polygon fill="none" stroke="#000000" points="256.5,-379.2 256.5,-398.2 295.5,-398.2 295.5,-379.2 256.5,-379.2"/>
<text text-anchor="start" x="259.5" y="-385.3" font-family="Helvetica,sans-Serif" font-size="11.00" fill="#000000">&lt; 4</text>
<polygon fill="#ffffff" stroke="transparent" points="295.5,-379.2 295.5,-398.2 316.5,-398.2 316.5,-379.2 295.5,-379.2"/>
<polygon fill="none" stroke="#000000" points="295.5,-379.2 295.5,-398.2 316.5,-398.2 316.5,-379.2 295.5,-379.2"/>
<text text-anchor="start" x="307.3862" y="-385.3" font-family="Helvetica,sans-Serif" font-size="11.00" fill="#000000"> &#160;</text>
<polygon fill="#ffffff" stroke="transparent" points="316.5,-379.2 316.5,-398.2 352.5,-398.2 352.5,-379.2 316.5,-379.2"/>
<polygon fill="none" stroke="#000000" points="316.5,-379.2 316.5,-398.2 352.5,-398.2 352.5,-379.2 316.5,-379.2"/>
<text text-anchor="start" x="327.7904" y="-385.3" font-family="Helvetica,sans-Serif" font-size="11.00" fill="#000000">13 &gt;</text>
</a>
</g>
</g>
<!-- surveys -->
<g id="node2" class="node">
<title>surveys</title>
<g id="a_node2"><a xlink:href="../../tables/surveys.html" xlink:title="surveys" target="_top">
<polygon fill="#ffffff" stroke="transparent" points="8,-240.7 8,-389.7 143,-389.7 143,-240.7 8,-240.7"/>
<polygon fill="#f5f5f5" stroke="transparent" points="8.5,-366.2 8.5,-389.2 143.5,-389.2 143.5,-366.2 8.5,-366.2"/>
<polygon fill="none" stroke="#000000" points="8.5,-366.2 8.5,-389.2 143.5,-389.2 143.5,-366.2 8.5,-366.2"/>
<text text-anchor="start" x="13.5" y="-375.3" font-family="Helvetica,sans-Serif" font-weight="bold" font-size="11.00" fill="#000000">surveys</text>
<text text-anchor="start" x="108.5437" y="-374.3" font-family="Helvetica,sans-Serif" font-size="11.00" fill="#000000">[table]</text>
<polygon fill="none" stroke="#000000" points="8.5,-344.2 8.5,-366.2 143.5,-366.2 143.5,-344.2 8.5,-344.2"/>
<image xlink:href="../../images/primaryKeys.png" width="11px" height="12px" preserveAspectRatio="xMinYMin meet" x="13.5" y="-361.2"/>
<text text-anchor="start" x="28.5" y="-351.3" font-family="Helvetica,sans-Serif" font-size="11.00" fill="#000000">id</text>
<polygon fill="#c0c0c0" stroke="transparent" points="8.5,-322.2 8.5,-344.2 143.5,-344.2 143.5,-322.2 8.5,-322.2"/>
<polygon fill="none" stroke="#000000" points="8.5,-322.2 8.5,-344.2 143.5,-344.2 143.5,-322.2 8.5,-322.2"/>
<image xlink:href="../../images/foreignKeys.png" width="11px" height="12px" preserveAspectRatio="xMinYMin meet" x="13.5" y="-339.2"/>
<text text-anchor="start" x="28.5" y="-329.3" font-family="Helvetica,sans-Serif" font-size="11.00" fill="#000000">modified_user_id</text>
<polygon fill="#c0c0c0" stroke="transparent" points="8.5,-300.2 8.5,-322.2 143.5,-322.2 143.5,-300.2 8.5,-300.2"/>
<polygon fill="none" stroke="#000000" points="8.5,-300.2 8.5,-322.2 143.5,-322.2 143.5,-300.2 8.5,-300.2"/>
<image xlink:href="../../images/foreignKeys.png" width="11px" height="12px" preserveAspectRatio="xMinYMin meet" x="13.5" y="-317.2"/>
<text text-anchor="start" x="28.5" y="-307.3" font-family="Helvetica,sans-Serif" font-size="11.00" fill="#000000">created_by</text>
<polygon fill="#c0c0c0" stroke="transparent" points="8.5,-278.2 8.5,-300.2 143.5,-300.2 143.5,-278.2 8.5,-278.2"/>
<polygon fill="none" stroke="#000000" points="8.5,-278.2 8.5,-300.2 143.5,-300.2 143.5,-278.2 8.5,-278.2"/>
<image xlink:href="../../images/foreignKeys.png" width="11px" height="12px" preserveAspectRatio="xMinYMin meet" x="13.5" y="-295.2"/>
<text text-anchor="start" x="28.5" y="-285.3" font-family="Helvetica,sans-Serif" font-size="11.00" fill="#000000">assigned_user_id</text>
<polygon fill="none" stroke="#000000" points="8.5,-259.2 8.5,-278.2 143.5,-278.2 143.5,-259.2 8.5,-259.2"/>
<text text-anchor="start" x="11.5" y="-265.3" font-family="Helvetica,sans-Serif" font-size="11.00" fill="#000000">...</text>
<polygon fill="#ffffff" stroke="transparent" points="8.5,-240.2 8.5,-259.2 69.5,-259.2 69.5,-240.2 8.5,-240.2"/>
<polygon fill="none" stroke="#000000" points="8.5,-240.2 8.5,-259.2 69.5,-259.2 69.5,-240.2 8.5,-240.2"/>
<text text-anchor="start" x="11.5" y="-246.3" font-family="Helvetica,sans-Serif" font-size="11.00" fill="#000000">&lt; 3</text>
<polygon fill="#ffffff" stroke="transparent" points="69.5,-240.2 69.5,-259.2 101.5,-259.2 101.5,-240.2 69.5,-240.2"/>
<polygon fill="none" stroke="#000000" points="69.5,-240.2 69.5,-259.2 101.5,-259.2 101.5,-240.2 69.5,-240.2"/>
<text text-anchor="start" x="92.3862" y="-246.3" font-family="Helvetica,sans-Serif" font-size="11.00" fill="#000000"> &#160;</text>
<polygon fill="#ffffff" stroke="transparent" points="101.5,-240.2 101.5,-259.2 143.5,-259.2 143.5,-240.2 101.5,-240.2"/>
<polygon fill="none" stroke="#000000" points="101.5,-240.2 101.5,-259.2 143.5,-259.2 143.5,-240.2 101.5,-240.2"/>
<text text-anchor="start" x="124.9053" y="-246.3" font-family="Helvetica,sans-Serif" font-size="11.00" fill="#000000">5 &gt;</text>
</a>
</g>
</g>
<!-- campaigns&#45;&gt;surveys -->
<g id="edge1" class="edge">
<title>campaigns:w&#45;&gt;surveys:e</title>
<path fill="none" stroke="#000000" d="M241.9869,-405.8623C200.266,-397.7231 193.4938,-355.2 143.5,-355.2"/>
<polygon fill="#000000" stroke="#000000" points="248.5338,-406.4657 256.1696,-410.7848 252.5169,-406.8329 256.5,-407.2 256.5,-407.2 256.5,-407.2 252.5169,-406.8329 256.8304,-403.6152 248.5338,-406.4657 248.5338,-406.4657"/>
<ellipse fill="none" stroke="#000000" cx="245.3473" cy="-406.172" rx="3.2" ry="3.2"/>
</g>
<!-- securitygroups_records -->
<g id="node3" class="node">
<title>securitygroups_records</title>
<g id="a_node3"><a xlink:href="../../tables/securitygroups_records.html" xlink:title="securitygroups_records" target="_top">
<polygon fill="#ffffff" stroke="transparent" points="641,-381.7 641,-442.7 798,-442.7 798,-381.7 641,-381.7"/>
<polygon fill="#f5f5f5" stroke="transparent" points="641.5,-419.2 641.5,-442.2 798.5,-442.2 798.5,-419.2 641.5,-419.2"/>
<polygon fill="none" stroke="#000000" points="641.5,-419.2 641.5,-442.2 798.5,-442.2 798.5,-419.2 641.5,-419.2"/>
<text text-anchor="start" x="646.3528" y="-428.3" font-family="Helvetica,sans-Serif" font-weight="bold" font-size="11.00" fill="#000000">securitygroups_records</text>
<text text-anchor="start" x="764.0219" y="-427.3" font-family="Helvetica,sans-Serif" font-size="11.00" fill="#000000">[table]</text>
<polygon fill="none" stroke="#000000" points="641.5,-400.2 641.5,-419.2 798.5,-419.2 798.5,-400.2 641.5,-400.2"/>
<text text-anchor="start" x="644.5" y="-406.3" font-family="Helvetica,sans-Serif" font-size="11.00" fill="#000000">...</text>
<polygon fill="#ffffff" stroke="transparent" points="641.5,-381.2 641.5,-400.2 721.5,-400.2 721.5,-381.2 641.5,-381.2"/>
<polygon fill="none" stroke="#000000" points="641.5,-381.2 641.5,-400.2 721.5,-400.2 721.5,-381.2 641.5,-381.2"/>
<text text-anchor="start" x="644.5" y="-387.3" font-family="Helvetica,sans-Serif" font-size="11.00" fill="#000000">&lt; 41</text>
<polygon fill="#ffffff" stroke="transparent" points="721.5,-381.2 721.5,-400.2 759.5,-400.2 759.5,-381.2 721.5,-381.2"/>
<polygon fill="none" stroke="#000000" points="721.5,-381.2 721.5,-400.2 759.5,-400.2 759.5,-381.2 721.5,-381.2"/>
<text text-anchor="start" x="750.3862" y="-387.3" font-family="Helvetica,sans-Serif" font-size="11.00" fill="#000000"> &#160;</text>
<polygon fill="#ffffff" stroke="transparent" points="759.5,-381.2 759.5,-400.2 798.5,-400.2 798.5,-381.2 759.5,-381.2"/>
<polygon fill="none" stroke="#000000" points="759.5,-381.2 759.5,-400.2 798.5,-400.2 798.5,-381.2 759.5,-381.2"/>
<text text-anchor="start" x="789.3862" y="-387.3" font-family="Helvetica,sans-Serif" font-size="11.00" fill="#000000"> &#160;</text>
</a>
</g>
</g>
<!-- securitygroups_records&#45;&gt;campaigns -->
<g id="edge2" class="edge">
<title>securitygroups_records:w&#45;&gt;campaigns:e</title>
<path fill="none" stroke="#000000" d="M627.0752,-411.9974C618.6461,-415.6561 613.2812,-421.8734 600,-424.2 537.8355,-435.0898 520.9099,-429.2361 458,-424.2 410.6577,-420.4101 399.9937,-407.2 352.5,-407.2"/>
<polygon fill="#000000" stroke="#000000" points="633.6463,-410.7231 642.1854,-412.7342 637.5732,-409.9616 641.5,-409.2 641.5,-409.2 641.5,-409.2 637.5732,-409.9616 640.8146,-405.6658 633.6463,-410.7231 633.6463,-410.7231"/>
<ellipse fill="none" stroke="#000000" cx="630.5048" cy="-411.3323" rx="3.2" ry="3.2"/>
</g>
<!-- securitygroups_records&#45;&gt;surveys -->
<g id="edge5" class="edge">
<title>securitygroups_records:w&#45;&gt;surveys:e</title>
<path fill="none" stroke="#000000" d="M627.3819,-413.345C618.4351,-419.7634 615.0943,-431.9168 600,-437.2 425.393,-498.3147 338.1508,-553.4748 184,-451.2 145.4125,-425.5983 189.8081,-355.2 143.5,-355.2"/>
<polygon fill="#000000" stroke="#000000" points="633.824,-411.4537 642.5141,-412.6542 637.662,-410.3268 641.5,-409.2 641.5,-409.2 641.5,-409.2 637.662,-410.3268 640.4859,-405.7458 633.824,-411.4537 633.824,-411.4537"/>
<ellipse fill="none" stroke="#000000" cx="630.7536" cy="-412.3551" rx="3.2" ry="3.2"/>
</g>
<!-- surveyquestions -->
<g id="node4" class="node">
<title>surveyquestions</title>
<g id="a_node4"><a xlink:href="../../tables/surveyquestions.html" xlink:title="surveyquestions" target="_top">
<polygon fill="#ffffff" stroke="transparent" points="468,-270.7 468,-331.7 590,-331.7 590,-270.7 468,-270.7"/>
<polygon fill="#f5f5f5" stroke="transparent" points="468,-308.2 468,-331.2 590,-331.2 590,-308.2 468,-308.2"/>
<polygon fill="none" stroke="#000000" points="468,-308.2 468,-331.2 590,-331.2 590,-308.2 468,-308.2"/>
<text text-anchor="start" x="472.768" y="-317.3" font-family="Helvetica,sans-Serif" font-weight="bold" font-size="11.00" fill="#000000">surveyquestions</text>
<text text-anchor="start" x="555.5219" y="-316.3" font-family="Helvetica,sans-Serif" font-size="11.00" fill="#000000">[table]</text>
<polygon fill="none" stroke="#000000" points="468,-289.2 468,-308.2 590,-308.2 590,-289.2 468,-289.2"/>
<text text-anchor="start" x="471" y="-295.3" font-family="Helvetica,sans-Serif" font-size="11.00" fill="#000000">...</text>
<polygon fill="#ffffff" stroke="transparent" points="468,-270.2 468,-289.2 523,-289.2 523,-270.2 468,-270.2"/>
<polygon fill="none" stroke="#000000" points="468,-270.2 468,-289.2 523,-289.2 523,-270.2 468,-270.2"/>
<text text-anchor="start" x="471" y="-276.3" font-family="Helvetica,sans-Serif" font-size="11.00" fill="#000000">&lt; 4</text>
<polygon fill="#ffffff" stroke="transparent" points="523,-270.2 523,-289.2 552,-289.2 552,-270.2 523,-270.2"/>
<polygon fill="none" stroke="#000000" points="523,-270.2 523,-289.2 552,-289.2 552,-270.2 523,-270.2"/>
<text text-anchor="start" x="542.8862" y="-276.3" font-family="Helvetica,sans-Serif" font-size="11.00" fill="#000000"> &#160;</text>
<polygon fill="#ffffff" stroke="transparent" points="552,-270.2 552,-289.2 590,-289.2 590,-270.2 552,-270.2"/>
<polygon fill="none" stroke="#000000" points="552,-270.2 552,-289.2 590,-289.2 590,-270.2 552,-270.2"/>
<text text-anchor="start" x="571.4053" y="-276.3" font-family="Helvetica,sans-Serif" font-size="11.00" fill="#000000">3 &gt;</text>
</a>
</g>
</g>
<!-- securitygroups_records&#45;&gt;surveyquestions -->
<g id="edge3" class="edge">
<title>securitygroups_records:w&#45;&gt;surveyquestions:e</title>
<path fill="none" stroke="#000000" d="M627.37,-405.5068C598.3074,-386.2466 638.4362,-298.2 590,-298.2"/>
<polygon fill="#000000" stroke="#000000" points="633.76,-407.177 640.5896,-412.683 637.63,-408.1885 641.5,-409.2 641.5,-409.2 641.5,-409.2 637.63,-408.1885 642.4104,-405.717 633.76,-407.177 633.76,-407.177"/>
<ellipse fill="none" stroke="#000000" cx="630.664" cy="-406.3677" rx="3.2" ry="3.2"/>
</g>
<!-- surveyresponses -->
<g id="node5" class="node">
<title>surveyresponses</title>
<g id="a_node5"><a xlink:href="../../tables/surveyresponses.html" xlink:title="surveyresponses" target="_top">
<polygon fill="#ffffff" stroke="transparent" points="466,-352.7 466,-413.7 592,-413.7 592,-352.7 466,-352.7"/>
<polygon fill="#f5f5f5" stroke="transparent" points="466,-390.2 466,-413.2 592,-413.2 592,-390.2 466,-390.2"/>
<polygon fill="none" stroke="#000000" points="466,-390.2 466,-413.2 592,-413.2 592,-390.2 466,-390.2"/>
<text text-anchor="start" x="470.936" y="-399.3" font-family="Helvetica,sans-Serif" font-weight="bold" font-size="11.00" fill="#000000">surveyresponses</text>
<text text-anchor="start" x="557.5219" y="-398.3" font-family="Helvetica,sans-Serif" font-size="11.00" fill="#000000">[table]</text>
<polygon fill="none" stroke="#000000" points="466,-371.2 466,-390.2 592,-390.2 592,-371.2 466,-371.2"/>
<text text-anchor="start" x="469" y="-377.3" font-family="Helvetica,sans-Serif" font-size="11.00" fill="#000000">...</text>
<polygon fill="#ffffff" stroke="transparent" points="466,-352.2 466,-371.2 523,-371.2 523,-352.2 466,-352.2"/>
<polygon fill="none" stroke="#000000" points="466,-352.2 466,-371.2 523,-371.2 523,-352.2 466,-352.2"/>
<text text-anchor="start" x="469" y="-358.3" font-family="Helvetica,sans-Serif" font-size="11.00" fill="#000000">&lt; 5</text>
<polygon fill="#ffffff" stroke="transparent" points="523,-352.2 523,-371.2 553,-371.2 553,-352.2 523,-352.2"/>
<polygon fill="none" stroke="#000000" points="523,-352.2 523,-371.2 553,-371.2 553,-352.2 523,-352.2"/>
<text text-anchor="start" x="543.8862" y="-358.3" font-family="Helvetica,sans-Serif" font-size="11.00" fill="#000000"> &#160;</text>
<polygon fill="#ffffff" stroke="transparent" points="553,-352.2 553,-371.2 592,-371.2 592,-352.2 553,-352.2"/>
<polygon fill="none" stroke="#000000" points="553,-352.2 553,-371.2 592,-371.2 592,-352.2 553,-352.2"/>
<text text-anchor="start" x="573.4053" y="-358.3" font-family="Helvetica,sans-Serif" font-size="11.00" fill="#000000">3 &gt;</text>
</a>
</g>
</g>
<!-- securitygroups_records&#45;&gt;surveyresponses -->
<g id="edge4" class="edge">
<title>securitygroups_records:w&#45;&gt;surveyresponses:e</title>
<path fill="none" stroke="#000000" d="M627.3253,-405.1677C615.2205,-397.1993 611.5215,-380.2 592,-380.2"/>
<polygon fill="#000000" stroke="#000000" points="633.8053,-407.011 640.515,-412.6626 637.6526,-408.1055 641.5,-409.2 641.5,-409.2 641.5,-409.2 637.6526,-408.1055 642.485,-405.7374 633.8053,-407.011 633.8053,-407.011"/>
<ellipse fill="none" stroke="#000000" cx="630.7274" cy="-406.1354" rx="3.2" ry="3.2"/>
</g>
<!-- surveyquestions&#45;&gt;surveys -->
<g id="edge6" class="edge">
<title>surveyquestions:w&#45;&gt;surveys:e</title>
<path fill="none" stroke="#000000" d="M453.5338,-300.8594C444.4111,-304.6715 438.9997,-311.6228 425,-315.2 320.4222,-341.9217 290.1363,-325.5619 184,-345.2 165.7689,-348.5733 162.0406,-355.2 143.5,-355.2"/>
<polygon fill="#000000" stroke="#000000" points="460.1319,-299.6465 468.6509,-301.7407 464.0659,-298.9233 468,-298.2 468,-298.2 468,-298.2 464.0659,-298.9233 467.3491,-294.6593 460.1319,-299.6465 460.1319,-299.6465"/>
<ellipse fill="none" stroke="#000000" cx="456.9846" cy="-300.2251" rx="3.2" ry="3.2"/>
</g>
<!-- surveyresponses&#45;&gt;campaigns -->
<g id="edge7" class="edge">
<title>surveyresponses:w&#45;&gt;campaigns:e</title>
<path fill="none" stroke="#000000" d="M451.4146,-380.9789C411.7243,-385.4059 399.0859,-407.2 352.5,-407.2"/>
<polygon fill="#000000" stroke="#000000" points="458.0114,-380.6267 466.192,-383.7949 462.0057,-380.4133 466,-380.2 466,-380.2 466,-380.2 462.0057,-380.4133 465.808,-376.6051 458.0114,-380.6267 458.0114,-380.6267"/>
<ellipse fill="none" stroke="#000000" cx="454.8159" cy="-380.7974" rx="3.2" ry="3.2"/>
</g>
<!-- surveyresponses&#45;&gt;surveys -->
<g id="edge8" class="edge">
<title>surveyresponses:w&#45;&gt;surveys:e</title>
<path fill="none" stroke="#000000" d="M451.5988,-378.1501C443.3404,-375.5573 437.6679,-371.1912 425,-369.2 301.2536,-349.7493 268.7657,-355.2 143.5,-355.2"/>
<polygon fill="#000000" stroke="#000000" points="458.0798,-379.0726 465.4927,-383.7641 462.0399,-379.6363 466,-380.2 466,-380.2 466,-380.2 462.0399,-379.6363 466.5073,-376.6359 458.0798,-379.0726 458.0798,-379.0726"/>
<ellipse fill="none" stroke="#000000" cx="454.9118" cy="-378.6216" rx="3.2" ry="3.2"/>
</g>
<!-- surveys_audit -->
<g id="node6" class="node">
<title>surveys_audit</title>
<g id="a_node6"><a xlink:href="../../tables/surveys_audit.html" xlink:title="surveys_audit" target="_top">
<polygon fill="#ffffff" stroke="transparent" points="192,-38.2 192,-304.2 417,-304.2 417,-38.2 192,-38.2"/>
<polygon fill="#f5f5f5" stroke="transparent" points="194.5,-279.2 194.5,-302.2 415.5,-302.2 415.5,-279.2 194.5,-279.2"/>
<polygon fill="none" stroke="#000000" points="194.5,-279.2 194.5,-302.2 415.5,-302.2 415.5,-279.2 194.5,-279.2"/>
<text text-anchor="start" x="199.5" y="-288.3" font-family="Helvetica,sans-Serif" font-weight="bold" font-size="11.00" fill="#000000">surveys_audit</text>
<text text-anchor="start" x="380.5437" y="-287.3" font-family="Helvetica,sans-Serif" font-size="11.00" fill="#000000">[table]</text>
<polygon fill="none" stroke="#000000" points="194.5,-257.2 194.5,-279.2 348.5,-279.2 348.5,-257.2 194.5,-257.2"/>
<image xlink:href="../../images/primaryKeys.png" width="11px" height="12px" preserveAspectRatio="xMinYMin meet" x="199.5" y="-274.2"/>
<text text-anchor="start" x="214.5" y="-264.3" font-family="Helvetica,sans-Serif" font-size="11.00" fill="#000000">id</text>
<polygon fill="none" stroke="#000000" points="348.5,-257.2 348.5,-279.2 415.5,-279.2 415.5,-257.2 348.5,-257.2"/>
<text text-anchor="start" x="351.5" y="-264.9" font-family="Helvetica,sans-Serif" font-size="11.00" fill="#000000">char[36]</text>
<polygon fill="#ffffff" stroke="transparent" points="194.5,-235.2 194.5,-257.2 348.5,-257.2 348.5,-235.2 194.5,-235.2"/>
<polygon fill="none" stroke="#000000" points="194.5,-235.2 194.5,-257.2 348.5,-257.2 348.5,-235.2 194.5,-235.2"/>
<image xlink:href="../../images/foreignKeys.png" width="11px" height="12px" preserveAspectRatio="xMinYMin meet" x="199.5" y="-252.2"/>
<text text-anchor="start" x="214.5" y="-242.3" font-family="Helvetica,sans-Serif" font-size="11.00" fill="#000000">parent_id</text>
<polygon fill="none" stroke="#000000" points="348.5,-235.2 348.5,-257.2 415.5,-257.2 415.5,-235.2 348.5,-235.2"/>
<text text-anchor="start" x="351.5" y="-242.9" font-family="Helvetica,sans-Serif" font-size="11.00" fill="#000000">char[36]</text>
<polygon fill="none" stroke="#000000" points="194.5,-213.2 194.5,-235.2 348.5,-235.2 348.5,-213.2 194.5,-213.2"/>
<text text-anchor="start" x="214.5" y="-220.3" font-family="Helvetica,sans-Serif" font-size="11.00" fill="#000000">date_created</text>
<polygon fill="none" stroke="#000000" points="348.5,-213.2 348.5,-235.2 415.5,-235.2 415.5,-213.2 348.5,-213.2"/>
<text text-anchor="start" x="351.5" y="-220.9" font-family="Helvetica,sans-Serif" font-size="11.00" fill="#000000">datetime[26]</text>
<polygon fill="none" stroke="#000000" points="194.5,-191.2 194.5,-213.2 348.5,-213.2 348.5,-191.2 194.5,-191.2"/>
<text text-anchor="start" x="214.5" y="-198.3" font-family="Helvetica,sans-Serif" font-size="11.00" fill="#000000">created_by</text>
<polygon fill="none" stroke="#000000" points="348.5,-191.2 348.5,-213.2 415.5,-213.2 415.5,-191.2 348.5,-191.2"/>
<text text-anchor="start" x="351.5" y="-198.9" font-family="Helvetica,sans-Serif" font-size="11.00" fill="#000000">varchar[36]</text>
<polygon fill="none" stroke="#000000" points="194.5,-169.2 194.5,-191.2 348.5,-191.2 348.5,-169.2 194.5,-169.2"/>
<text text-anchor="start" x="214.5" y="-176.3" font-family="Helvetica,sans-Serif" font-size="11.00" fill="#000000">field_name</text>
<polygon fill="none" stroke="#000000" points="348.5,-169.2 348.5,-191.2 415.5,-191.2 415.5,-169.2 348.5,-169.2"/>
<text text-anchor="start" x="351.4365" y="-176.9" font-family="Helvetica,sans-Serif" font-size="11.00" fill="#000000">varchar[100]</text>
<polygon fill="none" stroke="#000000" points="194.5,-147.2 194.5,-169.2 348.5,-169.2 348.5,-147.2 194.5,-147.2"/>
<text text-anchor="start" x="214.5" y="-154.3" font-family="Helvetica,sans-Serif" font-size="11.00" fill="#000000">data_type</text>
<polygon fill="none" stroke="#000000" points="348.5,-147.2 348.5,-169.2 415.5,-169.2 415.5,-147.2 348.5,-147.2"/>
<text text-anchor="start" x="351.4365" y="-154.9" font-family="Helvetica,sans-Serif" font-size="11.00" fill="#000000">varchar[100]</text>
<polygon fill="none" stroke="#000000" points="194.5,-125.2 194.5,-147.2 348.5,-147.2 348.5,-125.2 194.5,-125.2"/>
<text text-anchor="start" x="214.5" y="-132.3" font-family="Helvetica,sans-Serif" font-size="11.00" fill="#000000">before_value_string</text>
<polygon fill="none" stroke="#000000" points="348.5,-125.2 348.5,-147.2 415.5,-147.2 415.5,-125.2 348.5,-125.2"/>
<text text-anchor="start" x="351.4365" y="-132.9" font-family="Helvetica,sans-Serif" font-size="11.00" fill="#000000">varchar[255]</text>
<polygon fill="none" stroke="#000000" points="194.5,-103.2 194.5,-125.2 348.5,-125.2 348.5,-103.2 194.5,-103.2"/>
<text text-anchor="start" x="214.5" y="-110.3" font-family="Helvetica,sans-Serif" font-size="11.00" fill="#000000">after_value_string</text>
<polygon fill="none" stroke="#000000" points="348.5,-103.2 348.5,-125.2 415.5,-125.2 415.5,-103.2 348.5,-103.2"/>
<text text-anchor="start" x="351.4365" y="-110.9" font-family="Helvetica,sans-Serif" font-size="11.00" fill="#000000">varchar[255]</text>
<polygon fill="none" stroke="#000000" points="194.5,-81.2 194.5,-103.2 348.5,-103.2 348.5,-81.2 194.5,-81.2"/>
<text text-anchor="start" x="214.5" y="-88.3" font-family="Helvetica,sans-Serif" font-size="11.00" fill="#000000">before_value_text</text>
<polygon fill="none" stroke="#000000" points="348.5,-81.2 348.5,-103.2 415.5,-103.2 415.5,-81.2 348.5,-81.2"/>
<text text-anchor="start" x="351.5" y="-88.9" font-family="Helvetica,sans-Serif" font-size="11.00" fill="#000000">text[65535]</text>
<polygon fill="none" stroke="#000000" points="194.5,-59.2 194.5,-81.2 348.5,-81.2 348.5,-59.2 194.5,-59.2"/>
<text text-anchor="start" x="214.5" y="-66.3" font-family="Helvetica,sans-Serif" font-size="11.00" fill="#000000">after_value_text</text>
<polygon fill="none" stroke="#000000" points="348.5,-59.2 348.5,-81.2 415.5,-81.2 415.5,-59.2 348.5,-59.2"/>
<text text-anchor="start" x="351.5" y="-66.9" font-family="Helvetica,sans-Serif" font-size="11.00" fill="#000000">text[65535]</text>
<polygon fill="#ffffff" stroke="transparent" points="194.5,-40.2 194.5,-59.2 275.5,-59.2 275.5,-40.2 194.5,-40.2"/>
<polygon fill="none" stroke="#000000" points="194.5,-40.2 194.5,-59.2 275.5,-59.2 275.5,-40.2 194.5,-40.2"/>
<text text-anchor="start" x="197.5" y="-46.3" font-family="Helvetica,sans-Serif" font-size="11.00" fill="#000000">&lt; 1</text>
<polygon fill="#ffffff" stroke="transparent" points="275.5,-40.2 275.5,-59.2 348.5,-59.2 348.5,-40.2 275.5,-40.2"/>
<polygon fill="none" stroke="#000000" points="275.5,-40.2 275.5,-59.2 348.5,-59.2 348.5,-40.2 275.5,-40.2"/>
<text text-anchor="start" x="339.3862" y="-46.3" font-family="Helvetica,sans-Serif" font-size="11.00" fill="#000000"> &#160;</text>
<polygon fill="#ffffff" stroke="transparent" points="348.5,-40.2 348.5,-59.2 415.5,-59.2 415.5,-40.2 348.5,-40.2"/>
<polygon fill="none" stroke="#000000" points="348.5,-40.2 348.5,-59.2 415.5,-59.2 415.5,-40.2 348.5,-40.2"/>
<text text-anchor="start" x="396.9053" y="-46.3" font-family="Helvetica,sans-Serif" font-size="11.00" fill="#000000">0 &gt;</text>
<polygon fill="none" stroke="#000000" stroke-width="2" points="193,-39.2 193,-303.2 416,-303.2 416,-39.2 193,-39.2"/>
</a>
</g>
</g>
<!-- surveys_audit&#45;&gt;surveys -->
<g id="edge9" class="edge">
<title>surveys_audit:w&#45;&gt;surveys:e</title>
<path fill="none" stroke="#000000" d="M180.219,-250.0794C152.2911,-269.4966 190.9261,-355.2 143.5,-355.2"/>
<polygon fill="#000000" stroke="#000000" points="186.7798,-248.2972 195.4437,-249.6741 190.6399,-247.2486 194.5,-246.2 194.5,-246.2 194.5,-246.2 190.6399,-247.2486 193.5563,-242.7259 186.7798,-248.2972 186.7798,-248.2972"/>
<ellipse fill="none" stroke="#000000" cx="183.6917" cy="-249.1361" rx="3.2" ry="3.2"/>
</g>
</g>
</svg>
