<?xml version="1.0" encoding="UTF-8" standalone="no"?>
<!DOCTYPE svg PUBLIC "-//W3C//DTD SVG 1.1//EN"
 "http://www.w3.org/Graphics/SVG/1.1/DTD/svg11.dtd">
<!-- Generated by graphviz version 2.40.1 (20161225.0304)
 -->
<!-- Title: twoDegreesRelationshipsDiagram Pages: 1 -->
<svg width="867pt" height="470pt"
 viewBox="0.00 0.00 867.00 470.47" xmlns="http://www.w3.org/2000/svg" xmlns:xlink="http://www.w3.org/1999/xlink">
<g id="graph0" class="graph" transform="scale(1 1) rotate(0) translate(4 466.4698)">
<title>twoDegreesRelationshipsDiagram</title>
<polygon fill="#ffffff" stroke="transparent" points="-4,4 -4,-466.4698 863,-466.4698 863,4 -4,4"/>
<text text-anchor="middle" x="72.4936" y="-7.3" font-family="Helvetica,sans-Serif" font-size="11.00" fill="#000000">Generated by SchemaSpy</text>
<!-- securitygroups_records -->
<g id="node1" class="node">
<title>securitygroups_records</title>
<g id="a_node1"><a xlink:href="../../tables/securitygroups_records.html" xlink:title="securitygroups_records" target="_top">
<polygon fill="#ffffff" stroke="transparent" points="560,-355.2 560,-416.2 717,-416.2 717,-355.2 560,-355.2"/>
<polygon fill="#f5f5f5" stroke="transparent" points="560.5,-392.7 560.5,-415.7 717.5,-415.7 717.5,-392.7 560.5,-392.7"/>
<polygon fill="none" stroke="#000000" points="560.5,-392.7 560.5,-415.7 717.5,-415.7 717.5,-392.7 560.5,-392.7"/>
<text text-anchor="start" x="565.3528" y="-401.8" font-family="Helvetica,sans-Serif" font-weight="bold" font-size="11.00" fill="#000000">securitygroups_records</text>
<text text-anchor="start" x="683.0219" y="-400.8" font-family="Helvetica,sans-Serif" font-size="11.00" fill="#000000">[table]</text>
<polygon fill="none" stroke="#000000" points="560.5,-373.7 560.5,-392.7 717.5,-392.7 717.5,-373.7 560.5,-373.7"/>
<text text-anchor="start" x="563.5" y="-379.8" font-family="Helvetica,sans-Serif" font-size="11.00" fill="#000000">...</text>
<polygon fill="#ffffff" stroke="transparent" points="560.5,-354.7 560.5,-373.7 640.5,-373.7 640.5,-354.7 560.5,-354.7"/>
<polygon fill="none" stroke="#000000" points="560.5,-354.7 560.5,-373.7 640.5,-373.7 640.5,-354.7 560.5,-354.7"/>
<text text-anchor="start" x="563.5" y="-360.8" font-family="Helvetica,sans-Serif" font-size="11.00" fill="#000000">&lt; 41</text>
<polygon fill="#ffffff" stroke="transparent" points="640.5,-354.7 640.5,-373.7 678.5,-373.7 678.5,-354.7 640.5,-354.7"/>
<polygon fill="none" stroke="#000000" points="640.5,-354.7 640.5,-373.7 678.5,-373.7 678.5,-354.7 640.5,-354.7"/>
<text text-anchor="start" x="669.3862" y="-360.8" font-family="Helvetica,sans-Serif" font-size="11.00" fill="#000000"> &#160;</text>
<polygon fill="#ffffff" stroke="transparent" points="678.5,-354.7 678.5,-373.7 717.5,-373.7 717.5,-354.7 678.5,-354.7"/>
<polygon fill="none" stroke="#000000" points="678.5,-354.7 678.5,-373.7 717.5,-373.7 717.5,-354.7 678.5,-354.7"/>
<text text-anchor="start" x="708.3862" y="-360.8" font-family="Helvetica,sans-Serif" font-size="11.00" fill="#000000"> &#160;</text>
</a>
</g>
</g>
<!-- surveyquestionoptions -->
<g id="node2" class="node">
<title>surveyquestionoptions</title>
<g id="a_node2"><a xlink:href="../../tables/surveyquestionoptions.html" xlink:title="surveyquestionoptions" target="_top">
<polygon fill="#ffffff" stroke="transparent" points="192,-258.2 192,-429.2 368,-429.2 368,-258.2 192,-258.2"/>
<polygon fill="#f5f5f5" stroke="transparent" points="192,-405.7 192,-428.7 368,-428.7 368,-405.7 192,-405.7"/>
<polygon fill="none" stroke="#000000" points="192,-405.7 192,-428.7 368,-428.7 368,-405.7 192,-405.7"/>
<text text-anchor="start" x="197" y="-414.8" font-family="Helvetica,sans-Serif" font-weight="bold" font-size="11.00" fill="#000000">surveyquestionoptions</text>
<text text-anchor="start" x="333.0437" y="-413.8" font-family="Helvetica,sans-Serif" font-size="11.00" fill="#000000">[table]</text>
<polygon fill="none" stroke="#000000" points="192,-383.7 192,-405.7 368,-405.7 368,-383.7 192,-383.7"/>
<image xlink:href="../../images/primaryKeys.png" width="11px" height="12px" preserveAspectRatio="xMinYMin meet" x="197" y="-400.7"/>
<text text-anchor="start" x="212" y="-390.8" font-family="Helvetica,sans-Serif" font-size="11.00" fill="#000000">id</text>
<polygon fill="#c0c0c0" stroke="transparent" points="192,-361.7 192,-383.7 368,-383.7 368,-361.7 192,-361.7"/>
<polygon fill="none" stroke="#000000" points="192,-361.7 192,-383.7 368,-383.7 368,-361.7 192,-361.7"/>
<image xlink:href="../../images/foreignKeys.png" width="11px" height="12px" preserveAspectRatio="xMinYMin meet" x="197" y="-378.7"/>
<text text-anchor="start" x="212" y="-368.8" font-family="Helvetica,sans-Serif" font-size="11.00" fill="#000000">modified_user_id</text>
<polygon fill="#c0c0c0" stroke="transparent" points="192,-339.7 192,-361.7 368,-361.7 368,-339.7 192,-339.7"/>
<polygon fill="none" stroke="#000000" points="192,-339.7 192,-361.7 368,-361.7 368,-339.7 192,-339.7"/>
<image xlink:href="../../images/foreignKeys.png" width="11px" height="12px" preserveAspectRatio="xMinYMin meet" x="197" y="-356.7"/>
<text text-anchor="start" x="212" y="-346.8" font-family="Helvetica,sans-Serif" font-size="11.00" fill="#000000">created_by</text>
<polygon fill="#c0c0c0" stroke="transparent" points="192,-317.7 192,-339.7 368,-339.7 368,-317.7 192,-317.7"/>
<polygon fill="none" stroke="#000000" points="192,-317.7 192,-339.7 368,-339.7 368,-317.7 192,-317.7"/>
<image xlink:href="../../images/foreignKeys.png" width="11px" height="12px" preserveAspectRatio="xMinYMin meet" x="197" y="-334.7"/>
<text text-anchor="start" x="212" y="-324.8" font-family="Helvetica,sans-Serif" font-size="11.00" fill="#000000">assigned_user_id</text>
<polygon fill="none" stroke="#000000" points="192,-295.7 192,-317.7 368,-317.7 368,-295.7 192,-295.7"/>
<image xlink:href="../../images/foreignKeys.png" width="11px" height="12px" preserveAspectRatio="xMinYMin meet" x="197" y="-312.7"/>
<text text-anchor="start" x="212" y="-302.8" font-family="Helvetica,sans-Serif" font-size="11.00" fill="#000000">survey_question_id</text>
<polygon fill="none" stroke="#000000" points="192,-276.7 192,-295.7 368,-295.7 368,-276.7 192,-276.7"/>
<text text-anchor="start" x="195" y="-282.8" font-family="Helvetica,sans-Serif" font-size="11.00" fill="#000000">...</text>
<polygon fill="#ffffff" stroke="transparent" points="192,-257.7 192,-276.7 274,-276.7 274,-257.7 192,-257.7"/>
<polygon fill="none" stroke="#000000" points="192,-257.7 192,-276.7 274,-276.7 274,-257.7 192,-257.7"/>
<text text-anchor="start" x="195" y="-263.8" font-family="Helvetica,sans-Serif" font-size="11.00" fill="#000000">&lt; 4</text>
<polygon fill="#ffffff" stroke="transparent" points="274,-257.7 274,-276.7 316,-276.7 316,-257.7 274,-257.7"/>
<polygon fill="none" stroke="#000000" points="274,-257.7 274,-276.7 316,-276.7 316,-257.7 274,-257.7"/>
<text text-anchor="start" x="306.8862" y="-263.8" font-family="Helvetica,sans-Serif" font-size="11.00" fill="#000000"> &#160;</text>
<polygon fill="#ffffff" stroke="transparent" points="316,-257.7 316,-276.7 368,-276.7 368,-257.7 316,-257.7"/>
<polygon fill="none" stroke="#000000" points="316,-257.7 316,-276.7 368,-276.7 368,-257.7 316,-257.7"/>
<text text-anchor="start" x="349.4053" y="-263.8" font-family="Helvetica,sans-Serif" font-size="11.00" fill="#000000">3 &gt;</text>
</a>
</g>
</g>
<!-- securitygroups_records&#45;&gt;surveyquestionoptions -->
<g id="edge1" class="edge">
<title>securitygroups_records:w&#45;&gt;surveyquestionoptions:e</title>
<path fill="none" stroke="#000000" d="M546.0718,-382.8188C472.0888,-384.0651 448.6989,-394.7 368,-394.7"/>
<polygon fill="#000000" stroke="#000000" points="552.5003,-382.7659 560.5297,-386.2999 556.5001,-382.733 560.5,-382.7 560.5,-382.7 560.5,-382.7 556.5001,-382.733 560.4703,-379.1001 552.5003,-382.7659 552.5003,-382.7659"/>
<ellipse fill="none" stroke="#000000" cx="549.3004" cy="-382.7923" rx="3.2" ry="3.2"/>
</g>
<!-- surveyquestionresponses -->
<g id="node3" class="node">
<title>surveyquestionresponses</title>
<g id="a_node3"><a xlink:href="../../tables/surveyquestionresponses.html" xlink:title="surveyquestionresponses" target="_top">
<polygon fill="#ffffff" stroke="transparent" points="183,-38.2 183,-209.2 377,-209.2 377,-38.2 183,-38.2"/>
<polygon fill="#f5f5f5" stroke="transparent" points="183,-185.7 183,-208.7 377,-208.7 377,-185.7 183,-185.7"/>
<polygon fill="none" stroke="#000000" points="183,-185.7 183,-208.7 377,-208.7 377,-185.7 183,-185.7"/>
<text text-anchor="start" x="188" y="-194.8" font-family="Helvetica,sans-Serif" font-weight="bold" font-size="11.00" fill="#000000">surveyquestionresponses</text>
<text text-anchor="start" x="342.0437" y="-193.8" font-family="Helvetica,sans-Serif" font-size="11.00" fill="#000000">[table]</text>
<polygon fill="none" stroke="#000000" points="183,-163.7 183,-185.7 377,-185.7 377,-163.7 183,-163.7"/>
<image xlink:href="../../images/primaryKeys.png" width="11px" height="12px" preserveAspectRatio="xMinYMin meet" x="188" y="-180.7"/>
<text text-anchor="start" x="203" y="-170.8" font-family="Helvetica,sans-Serif" font-size="11.00" fill="#000000">id</text>
<polygon fill="#c0c0c0" stroke="transparent" points="183,-141.7 183,-163.7 377,-163.7 377,-141.7 183,-141.7"/>
<polygon fill="none" stroke="#000000" points="183,-141.7 183,-163.7 377,-163.7 377,-141.7 183,-141.7"/>
<image xlink:href="../../images/foreignKeys.png" width="11px" height="12px" preserveAspectRatio="xMinYMin meet" x="188" y="-158.7"/>
<text text-anchor="start" x="203" y="-148.8" font-family="Helvetica,sans-Serif" font-size="11.00" fill="#000000">modified_user_id</text>
<polygon fill="#c0c0c0" stroke="transparent" points="183,-119.7 183,-141.7 377,-141.7 377,-119.7 183,-119.7"/>
<polygon fill="none" stroke="#000000" points="183,-119.7 183,-141.7 377,-141.7 377,-119.7 183,-119.7"/>
<image xlink:href="../../images/foreignKeys.png" width="11px" height="12px" preserveAspectRatio="xMinYMin meet" x="188" y="-136.7"/>
<text text-anchor="start" x="203" y="-126.8" font-family="Helvetica,sans-Serif" font-size="11.00" fill="#000000">created_by</text>
<polygon fill="#c0c0c0" stroke="transparent" points="183,-97.7 183,-119.7 377,-119.7 377,-97.7 183,-97.7"/>
<polygon fill="none" stroke="#000000" points="183,-97.7 183,-119.7 377,-119.7 377,-97.7 183,-97.7"/>
<image xlink:href="../../images/foreignKeys.png" width="11px" height="12px" preserveAspectRatio="xMinYMin meet" x="188" y="-114.7"/>
<text text-anchor="start" x="203" y="-104.8" font-family="Helvetica,sans-Serif" font-size="11.00" fill="#000000">assigned_user_id</text>
<polygon fill="none" stroke="#000000" points="183,-75.7 183,-97.7 377,-97.7 377,-75.7 183,-75.7"/>
<image xlink:href="../../images/foreignKeys.png" width="11px" height="12px" preserveAspectRatio="xMinYMin meet" x="188" y="-92.7"/>
<text text-anchor="start" x="203" y="-82.8" font-family="Helvetica,sans-Serif" font-size="11.00" fill="#000000">surveyresponse_id</text>
<polygon fill="none" stroke="#000000" points="183,-56.7 183,-75.7 377,-75.7 377,-56.7 183,-56.7"/>
<text text-anchor="start" x="186" y="-62.8" font-family="Helvetica,sans-Serif" font-size="11.00" fill="#000000">...</text>
<polygon fill="#ffffff" stroke="transparent" points="183,-37.7 183,-56.7 274,-56.7 274,-37.7 183,-37.7"/>
<polygon fill="none" stroke="#000000" points="183,-37.7 183,-56.7 274,-56.7 274,-37.7 183,-37.7"/>
<text text-anchor="start" x="186" y="-43.8" font-family="Helvetica,sans-Serif" font-size="11.00" fill="#000000">&lt; 4</text>
<polygon fill="#ffffff" stroke="transparent" points="274,-37.7 274,-56.7 321,-56.7 321,-37.7 274,-37.7"/>
<polygon fill="none" stroke="#000000" points="274,-37.7 274,-56.7 321,-56.7 321,-37.7 274,-37.7"/>
<text text-anchor="start" x="311.8862" y="-43.8" font-family="Helvetica,sans-Serif" font-size="11.00" fill="#000000"> &#160;</text>
<polygon fill="#ffffff" stroke="transparent" points="321,-37.7 321,-56.7 377,-56.7 377,-37.7 321,-37.7"/>
<polygon fill="none" stroke="#000000" points="321,-37.7 321,-56.7 377,-56.7 377,-37.7 321,-37.7"/>
<text text-anchor="start" x="358.4053" y="-43.8" font-family="Helvetica,sans-Serif" font-size="11.00" fill="#000000">3 &gt;</text>
</a>
</g>
</g>
<!-- securitygroups_records&#45;&gt;surveyquestionresponses -->
<g id="edge2" class="edge">
<title>securitygroups_records:w&#45;&gt;surveyquestionresponses:e</title>
<path fill="none" stroke="#000000" d="M545.7861,-382.6683C488.7294,-382.3256 459.9754,-378.3382 418,-332.7 368.8883,-279.3029 449.548,-174.7 377,-174.7"/>
<polygon fill="#000000" stroke="#000000" points="552.5,-382.6827 560.4922,-386.3 556.5,-382.6913 560.5,-382.7 560.5,-382.7 560.5,-382.7 556.5,-382.6913 560.5078,-379.1 552.5,-382.6827 552.5,-382.6827"/>
<ellipse fill="none" stroke="#000000" cx="549.3" cy="-382.6758" rx="3.2" ry="3.2"/>
</g>
<!-- surveyquestions -->
<g id="node4" class="node">
<title>surveyquestions</title>
<g id="a_node4"><a xlink:href="../../tables/surveyquestions.html" xlink:title="surveyquestions" target="_top">
<polygon fill="#ffffff" stroke="transparent" points="10,-352.2 10,-413.2 132,-413.2 132,-352.2 10,-352.2"/>
<polygon fill="#f5f5f5" stroke="transparent" points="10,-389.7 10,-412.7 132,-412.7 132,-389.7 10,-389.7"/>
<polygon fill="none" stroke="#000000" points="10,-389.7 10,-412.7 132,-412.7 132,-389.7 10,-389.7"/>
<text text-anchor="start" x="14.768" y="-398.8" font-family="Helvetica,sans-Serif" font-weight="bold" font-size="11.00" fill="#000000">surveyquestions</text>
<text text-anchor="start" x="97.5219" y="-397.8" font-family="Helvetica,sans-Serif" font-size="11.00" fill="#000000">[table]</text>
<polygon fill="none" stroke="#000000" points="10,-370.7 10,-389.7 132,-389.7 132,-370.7 10,-370.7"/>
<text text-anchor="start" x="13" y="-376.8" font-family="Helvetica,sans-Serif" font-size="11.00" fill="#000000">...</text>
<polygon fill="#ffffff" stroke="transparent" points="10,-351.7 10,-370.7 65,-370.7 65,-351.7 10,-351.7"/>
<polygon fill="none" stroke="#000000" points="10,-351.7 10,-370.7 65,-370.7 65,-351.7 10,-351.7"/>
<text text-anchor="start" x="13" y="-357.8" font-family="Helvetica,sans-Serif" font-size="11.00" fill="#000000">&lt; 4</text>
<polygon fill="#ffffff" stroke="transparent" points="65,-351.7 65,-370.7 94,-370.7 94,-351.7 65,-351.7"/>
<polygon fill="none" stroke="#000000" points="65,-351.7 65,-370.7 94,-370.7 94,-351.7 65,-351.7"/>
<text text-anchor="start" x="84.8862" y="-357.8" font-family="Helvetica,sans-Serif" font-size="11.00" fill="#000000"> &#160;</text>
<polygon fill="#ffffff" stroke="transparent" points="94,-351.7 94,-370.7 132,-370.7 132,-351.7 94,-351.7"/>
<polygon fill="none" stroke="#000000" points="94,-351.7 94,-370.7 132,-370.7 132,-351.7 94,-351.7"/>
<text text-anchor="start" x="113.4053" y="-357.8" font-family="Helvetica,sans-Serif" font-size="11.00" fill="#000000">3 &gt;</text>
</a>
</g>
</g>
<!-- securitygroups_records&#45;&gt;surveyquestions -->
<g id="edge3" class="edge">
<title>securitygroups_records:w&#45;&gt;surveyquestions:e</title>
<path fill="none" stroke="#000000" d="M545.904,-383.1992C476.6606,-388.0995 460.9393,-427.6771 385,-439.7 292.8149,-454.295 258.0226,-482.3423 175,-439.7 145.8166,-424.7108 164.8077,-379.7 132,-379.7"/>
<polygon fill="#000000" stroke="#000000" points="552.5047,-382.9735 560.6231,-386.2979 556.5023,-382.8368 560.5,-382.7 560.5,-382.7 560.5,-382.7 556.5023,-382.8368 560.3769,-379.1021 552.5047,-382.9735 552.5047,-382.9735"/>
<ellipse fill="none" stroke="#000000" cx="549.3065" cy="-383.0829" rx="3.2" ry="3.2"/>
</g>
<!-- surveyresponses -->
<g id="node5" class="node">
<title>surveyresponses</title>
<g id="a_node5"><a xlink:href="../../tables/surveyresponses.html" xlink:title="surveyresponses" target="_top">
<polygon fill="#ffffff" stroke="transparent" points="8,-128.2 8,-189.2 134,-189.2 134,-128.2 8,-128.2"/>
<polygon fill="#f5f5f5" stroke="transparent" points="8,-165.7 8,-188.7 134,-188.7 134,-165.7 8,-165.7"/>
<polygon fill="none" stroke="#000000" points="8,-165.7 8,-188.7 134,-188.7 134,-165.7 8,-165.7"/>
<text text-anchor="start" x="12.9359" y="-174.8" font-family="Helvetica,sans-Serif" font-weight="bold" font-size="11.00" fill="#000000">surveyresponses</text>
<text text-anchor="start" x="99.5219" y="-173.8" font-family="Helvetica,sans-Serif" font-size="11.00" fill="#000000">[table]</text>
<polygon fill="none" stroke="#000000" points="8,-146.7 8,-165.7 134,-165.7 134,-146.7 8,-146.7"/>
<text text-anchor="start" x="11" y="-152.8" font-family="Helvetica,sans-Serif" font-size="11.00" fill="#000000">...</text>
<polygon fill="#ffffff" stroke="transparent" points="8,-127.7 8,-146.7 65,-146.7 65,-127.7 8,-127.7"/>
<polygon fill="none" stroke="#000000" points="8,-127.7 8,-146.7 65,-146.7 65,-127.7 8,-127.7"/>
<text text-anchor="start" x="11" y="-133.8" font-family="Helvetica,sans-Serif" font-size="11.00" fill="#000000">&lt; 5</text>
<polygon fill="#ffffff" stroke="transparent" points="65,-127.7 65,-146.7 95,-146.7 95,-127.7 65,-127.7"/>
<polygon fill="none" stroke="#000000" points="65,-127.7 65,-146.7 95,-146.7 95,-127.7 65,-127.7"/>
<text text-anchor="start" x="85.8862" y="-133.8" font-family="Helvetica,sans-Serif" font-size="11.00" fill="#000000"> &#160;</text>
<polygon fill="#ffffff" stroke="transparent" points="95,-127.7 95,-146.7 134,-146.7 134,-127.7 95,-127.7"/>
<polygon fill="none" stroke="#000000" points="95,-127.7 95,-146.7 134,-146.7 134,-127.7 95,-127.7"/>
<text text-anchor="start" x="115.4053" y="-133.8" font-family="Helvetica,sans-Serif" font-size="11.00" fill="#000000">3 &gt;</text>
</a>
</g>
</g>
<!-- securitygroups_records&#45;&gt;surveyresponses -->
<g id="edge4" class="edge">
<title>securitygroups_records:w&#45;&gt;surveyresponses:e</title>
<path fill="none" stroke="#000000" d="M545.8311,-382.6244C489.1231,-381.9418 462.5596,-375.8186 418,-332.7 388.8775,-304.5193 416.8519,-272.7545 385,-247.7 310.9924,-189.4862 254.4352,-270.2571 175,-219.7 146.5017,-201.5621 167.7807,-155.7 134,-155.7"/>
<polygon fill="#000000" stroke="#000000" points="552.5001,-382.6587 560.4814,-386.3 556.5001,-382.6794 560.5,-382.7 560.5,-382.7 560.5,-382.7 556.5001,-382.6794 560.5186,-379.1 552.5001,-382.6587 552.5001,-382.6587"/>
<ellipse fill="none" stroke="#000000" cx="549.3001" cy="-382.6422" rx="3.2" ry="3.2"/>
</g>
<!-- surveyquestionoptions&#45;&gt;surveyquestions -->
<g id="edge5" class="edge">
<title>surveyquestionoptions:w&#45;&gt;surveyquestions:e</title>
<path fill="none" stroke="#000000" d="M177.8305,-310.6248C155.4463,-325.7876 168.0912,-379.7 132,-379.7"/>
<polygon fill="#000000" stroke="#000000" points="184.2903,-308.8355 192.961,-310.1694 188.1451,-307.7678 192,-306.7 192,-306.7 192,-306.7 188.1451,-307.7678 191.039,-303.2306 184.2903,-308.8355 184.2903,-308.8355"/>
<ellipse fill="none" stroke="#000000" cx="181.2064" cy="-309.6898" rx="3.2" ry="3.2"/>
</g>
<!-- surveyquestionresponses&#45;&gt;surveyresponses -->
<g id="edge8" class="edge">
<title>surveyquestionresponses:w&#45;&gt;surveyresponses:e</title>
<path fill="none" stroke="#000000" d="M169.0786,-91.6623C152.2742,-107.4834 165.4419,-155.7 134,-155.7"/>
<polygon fill="#000000" stroke="#000000" points="175.4644,-89.3861 184.2087,-90.091 179.2322,-88.0431 183,-86.7 183,-86.7 183,-86.7 179.2322,-88.0431 181.7913,-83.309 175.4644,-89.3861 175.4644,-89.3861"/>
<ellipse fill="none" stroke="#000000" cx="172.4502" cy="-90.4605" rx="3.2" ry="3.2"/>
</g>
<!-- surveyquestionoptions_surveyquestionresponses -->
<g id="node6" class="node">
<title>surveyquestionoptions_surveyquestionresponses</title>
<g id="a_node6"><a xlink:href="../../tables/surveyquestionoptions_surveyquestionresponses.html" xlink:title="surveyquestionoptions_surveyquestionresponses" target="_top">
<polygon fill="#ffffff" stroke="transparent" points="426,-165.7 426,-321.7 851,-321.7 851,-165.7 426,-165.7"/>
<polygon fill="#f5f5f5" stroke="transparent" points="428.5,-296.7 428.5,-319.7 849.5,-319.7 849.5,-296.7 428.5,-296.7"/>
<polygon fill="none" stroke="#000000" points="428.5,-296.7 428.5,-319.7 849.5,-319.7 849.5,-296.7 428.5,-296.7"/>
<text text-anchor="start" x="433.5" y="-305.8" font-family="Helvetica,sans-Serif" font-weight="bold" font-size="11.00" fill="#000000">surveyquestionoptions_surveyquestionresponses</text>
<text text-anchor="start" x="814.5437" y="-304.8" font-family="Helvetica,sans-Serif" font-size="11.00" fill="#000000">[table]</text>
<polygon fill="none" stroke="#000000" points="428.5,-274.7 428.5,-296.7 783.5,-296.7 783.5,-274.7 428.5,-274.7"/>
<image xlink:href="../../images/primaryKeys.png" width="11px" height="12px" preserveAspectRatio="xMinYMin meet" x="433.5" y="-291.7"/>
<text text-anchor="start" x="448.5" y="-281.8" font-family="Helvetica,sans-Serif" font-size="11.00" fill="#000000">id</text>
<polygon fill="none" stroke="#000000" points="783.5,-274.7 783.5,-296.7 849.5,-296.7 849.5,-274.7 783.5,-274.7"/>
<text text-anchor="start" x="786.5" y="-282.4" font-family="Helvetica,sans-Serif" font-size="11.00" fill="#000000">varchar[36]</text>
<polygon fill="none" stroke="#000000" points="428.5,-252.7 428.5,-274.7 783.5,-274.7 783.5,-252.7 428.5,-252.7"/>
<text text-anchor="start" x="448.5" y="-259.8" font-family="Helvetica,sans-Serif" font-size="11.00" fill="#000000">date_modified</text>
<polygon fill="none" stroke="#000000" points="783.5,-252.7 783.5,-274.7 849.5,-274.7 849.5,-252.7 783.5,-252.7"/>
<text text-anchor="start" x="786.2401" y="-260.4" font-family="Helvetica,sans-Serif" font-size="11.00" fill="#000000">datetime[26]</text>
<polygon fill="none" stroke="#000000" points="428.5,-230.7 428.5,-252.7 783.5,-252.7 783.5,-230.7 428.5,-230.7"/>
<text text-anchor="start" x="448.5" y="-237.8" font-family="Helvetica,sans-Serif" font-size="11.00" fill="#000000">deleted</text>
<polygon fill="none" stroke="#000000" points="783.5,-230.7 783.5,-252.7 849.5,-252.7 849.5,-230.7 783.5,-230.7"/>
<text text-anchor="start" x="786.5" y="-238.4" font-family="Helvetica,sans-Serif" font-size="11.00" fill="#000000">bit[1]</text>
<polygon fill="#ffffff" stroke="transparent" points="428.5,-208.7 428.5,-230.7 783.5,-230.7 783.5,-208.7 428.5,-208.7"/>
<polygon fill="none" stroke="#000000" points="428.5,-208.7 428.5,-230.7 783.5,-230.7 783.5,-208.7 428.5,-208.7"/>
<image xlink:href="../../images/foreignKeys.png" width="11px" height="12px" preserveAspectRatio="xMinYMin meet" x="433.5" y="-225.7"/>
<text text-anchor="start" x="448.5" y="-215.8" font-family="Helvetica,sans-Serif" font-size="11.00" fill="#000000">surveyq72c7options_ida</text>
<polygon fill="none" stroke="#000000" points="783.5,-208.7 783.5,-230.7 849.5,-230.7 849.5,-208.7 783.5,-208.7"/>
<text text-anchor="start" x="786.5" y="-216.4" font-family="Helvetica,sans-Serif" font-size="11.00" fill="#000000">varchar[36]</text>
<polygon fill="#ffffff" stroke="transparent" points="428.5,-186.7 428.5,-208.7 783.5,-208.7 783.5,-186.7 428.5,-186.7"/>
<polygon fill="none" stroke="#000000" points="428.5,-186.7 428.5,-208.7 783.5,-208.7 783.5,-186.7 428.5,-186.7"/>
<image xlink:href="../../images/foreignKeys.png" width="11px" height="12px" preserveAspectRatio="xMinYMin meet" x="433.5" y="-203.7"/>
<text text-anchor="start" x="448.5" y="-193.8" font-family="Helvetica,sans-Serif" font-size="11.00" fill="#000000">surveyq10d4sponses_idb</text>
<polygon fill="none" stroke="#000000" points="783.5,-186.7 783.5,-208.7 849.5,-208.7 849.5,-186.7 783.5,-186.7"/>
<text text-anchor="start" x="786.5" y="-194.4" font-family="Helvetica,sans-Serif" font-size="11.00" fill="#000000">varchar[36]</text>
<polygon fill="#ffffff" stroke="transparent" points="428.5,-167.7 428.5,-186.7 610.5,-186.7 610.5,-167.7 428.5,-167.7"/>
<polygon fill="none" stroke="#000000" points="428.5,-167.7 428.5,-186.7 610.5,-186.7 610.5,-167.7 428.5,-167.7"/>
<text text-anchor="start" x="431.5" y="-173.8" font-family="Helvetica,sans-Serif" font-size="11.00" fill="#000000">&lt; 2</text>
<polygon fill="#ffffff" stroke="transparent" points="610.5,-167.7 610.5,-186.7 783.5,-186.7 783.5,-167.7 610.5,-167.7"/>
<polygon fill="none" stroke="#000000" points="610.5,-167.7 610.5,-186.7 783.5,-186.7 783.5,-167.7 610.5,-167.7"/>
<text text-anchor="start" x="774.3862" y="-173.8" font-family="Helvetica,sans-Serif" font-size="11.00" fill="#000000"> &#160;</text>
<polygon fill="#ffffff" stroke="transparent" points="783.5,-167.7 783.5,-186.7 849.5,-186.7 849.5,-167.7 783.5,-167.7"/>
<polygon fill="none" stroke="#000000" points="783.5,-167.7 783.5,-186.7 849.5,-186.7 849.5,-167.7 783.5,-167.7"/>
<text text-anchor="start" x="830.9053" y="-173.8" font-family="Helvetica,sans-Serif" font-size="11.00" fill="#000000">0 &gt;</text>
<polygon fill="none" stroke="#000000" stroke-width="2" points="427,-166.7 427,-320.7 850,-320.7 850,-166.7 427,-166.7"/>
</a>
</g>
</g>
<!-- surveyquestionoptions_surveyquestionresponses&#45;&gt;surveyquestionoptions -->
<g id="edge7" class="edge">
<title>surveyquestionoptions_surveyquestionresponses:w&#45;&gt;surveyquestionoptions:e</title>
<path fill="none" stroke="#000000" d="M414.117,-222.0415C359.5654,-242.808 444.669,-394.7 368,-394.7"/>
<polygon fill="#000000" stroke="#000000" points="420.604,-220.9855 429.0785,-223.2532 424.552,-220.3428 428.5,-219.7 428.5,-219.7 428.5,-219.7 424.552,-220.3428 427.9215,-216.1468 420.604,-220.9855 420.604,-220.9855"/>
<ellipse fill="none" stroke="#000000" cx="417.4455" cy="-221.4997" rx="3.2" ry="3.2"/>
</g>
<!-- surveyquestionoptions_surveyquestionresponses&#45;&gt;surveyquestionresponses -->
<g id="edge6" class="edge">
<title>surveyquestionoptions_surveyquestionresponses:w&#45;&gt;surveyquestionresponses:e</title>
<path fill="none" stroke="#000000" d="M414.1701,-194.5019C401.4906,-188.1822 396.1925,-174.7 377,-174.7"/>
<polygon fill="#000000" stroke="#000000" points="420.6921,-195.9574 427.7158,-201.2136 424.596,-196.8287 428.5,-197.7 428.5,-197.7 428.5,-197.7 424.596,-196.8287 429.2842,-194.1864 420.6921,-195.9574 420.6921,-195.9574"/>
<ellipse fill="none" stroke="#000000" cx="417.5689" cy="-195.2604" rx="3.2" ry="3.2"/>
</g>
</g>
</svg>
