<?xml version="1.0" encoding="UTF-8" standalone="no"?>
<!DOCTYPE svg PUBLIC "-//W3C//DTD SVG 1.1//EN"
 "http://www.w3.org/Graphics/SVG/1.1/DTD/svg11.dtd">
<!-- Generated by graphviz version 2.40.1 (20161225.0304)
 -->
<!-- Title: twoDegreesRelationshipsDiagram Pages: 1 -->
<svg width="708pt" height="520pt"
 viewBox="0.00 0.00 708.00 519.70" xmlns="http://www.w3.org/2000/svg" xmlns:xlink="http://www.w3.org/1999/xlink">
<g id="graph0" class="graph" transform="scale(1 1) rotate(0) translate(4 515.7)">
<title>twoDegreesRelationshipsDiagram</title>
<polygon fill="#ffffff" stroke="transparent" points="-4,4 -4,-515.7 704,-515.7 704,4 -4,4"/>
<text text-anchor="middle" x="72.4936" y="-7.3" font-family="Helvetica,sans-Serif" font-size="11.00" fill="#000000">Generated by SchemaSpy</text>
<!-- securitygroups_records -->
<g id="node1" class="node">
<title>securitygroups_records</title>
<g id="a_node1"><a xlink:href="../../tables/securitygroups_records.html" xlink:title="securitygroups_records" target="_top">
<polygon fill="#ffffff" stroke="transparent" points="469.5,-38.2 469.5,-99.2 626.5,-99.2 626.5,-38.2 469.5,-38.2"/>
<polygon fill="#f5f5f5" stroke="transparent" points="470,-75.7 470,-98.7 627,-98.7 627,-75.7 470,-75.7"/>
<polygon fill="none" stroke="#000000" points="470,-75.7 470,-98.7 627,-98.7 627,-75.7 470,-75.7"/>
<text text-anchor="start" x="474.8528" y="-84.8" font-family="Helvetica,sans-Serif" font-weight="bold" font-size="11.00" fill="#000000">securitygroups_records</text>
<text text-anchor="start" x="592.5219" y="-83.8" font-family="Helvetica,sans-Serif" font-size="11.00" fill="#000000">[table]</text>
<polygon fill="none" stroke="#000000" points="470,-56.7 470,-75.7 627,-75.7 627,-56.7 470,-56.7"/>
<text text-anchor="start" x="473" y="-62.8" font-family="Helvetica,sans-Serif" font-size="11.00" fill="#000000">...</text>
<polygon fill="#ffffff" stroke="transparent" points="470,-37.7 470,-56.7 550,-56.7 550,-37.7 470,-37.7"/>
<polygon fill="none" stroke="#000000" points="470,-37.7 470,-56.7 550,-56.7 550,-37.7 470,-37.7"/>
<text text-anchor="start" x="473" y="-43.8" font-family="Helvetica,sans-Serif" font-size="11.00" fill="#000000">&lt; 41</text>
<polygon fill="#ffffff" stroke="transparent" points="550,-37.7 550,-56.7 588,-56.7 588,-37.7 550,-37.7"/>
<polygon fill="none" stroke="#000000" points="550,-37.7 550,-56.7 588,-56.7 588,-37.7 550,-37.7"/>
<text text-anchor="start" x="578.8862" y="-43.8" font-family="Helvetica,sans-Serif" font-size="11.00" fill="#000000"> &#160;</text>
<polygon fill="#ffffff" stroke="transparent" points="588,-37.7 588,-56.7 627,-56.7 627,-37.7 588,-37.7"/>
<polygon fill="none" stroke="#000000" points="588,-37.7 588,-56.7 627,-56.7 627,-37.7 588,-37.7"/>
<text text-anchor="start" x="617.8862" y="-43.8" font-family="Helvetica,sans-Serif" font-size="11.00" fill="#000000"> &#160;</text>
</a>
</g>
</g>
<!-- surveyquestionoptions -->
<g id="node2" class="node">
<title>surveyquestionoptions</title>
<g id="a_node2"><a xlink:href="../../tables/surveyquestionoptions.html" xlink:title="surveyquestionoptions" target="_top">
<polygon fill="#ffffff" stroke="transparent" points="179,-70.2 179,-241.2 355,-241.2 355,-70.2 179,-70.2"/>
<polygon fill="#f5f5f5" stroke="transparent" points="179,-217.7 179,-240.7 355,-240.7 355,-217.7 179,-217.7"/>
<polygon fill="none" stroke="#000000" points="179,-217.7 179,-240.7 355,-240.7 355,-217.7 179,-217.7"/>
<text text-anchor="start" x="184" y="-226.8" font-family="Helvetica,sans-Serif" font-weight="bold" font-size="11.00" fill="#000000">surveyquestionoptions</text>
<text text-anchor="start" x="320.0437" y="-225.8" font-family="Helvetica,sans-Serif" font-size="11.00" fill="#000000">[table]</text>
<polygon fill="none" stroke="#000000" points="179,-195.7 179,-217.7 355,-217.7 355,-195.7 179,-195.7"/>
<image xlink:href="../../images/primaryKeys.png" width="11px" height="12px" preserveAspectRatio="xMinYMin meet" x="184" y="-212.7"/>
<text text-anchor="start" x="199" y="-202.8" font-family="Helvetica,sans-Serif" font-size="11.00" fill="#000000">id</text>
<polygon fill="#c0c0c0" stroke="transparent" points="179,-173.7 179,-195.7 355,-195.7 355,-173.7 179,-173.7"/>
<polygon fill="none" stroke="#000000" points="179,-173.7 179,-195.7 355,-195.7 355,-173.7 179,-173.7"/>
<image xlink:href="../../images/foreignKeys.png" width="11px" height="12px" preserveAspectRatio="xMinYMin meet" x="184" y="-190.7"/>
<text text-anchor="start" x="199" y="-180.8" font-family="Helvetica,sans-Serif" font-size="11.00" fill="#000000">modified_user_id</text>
<polygon fill="#c0c0c0" stroke="transparent" points="179,-151.7 179,-173.7 355,-173.7 355,-151.7 179,-151.7"/>
<polygon fill="none" stroke="#000000" points="179,-151.7 179,-173.7 355,-173.7 355,-151.7 179,-151.7"/>
<image xlink:href="../../images/foreignKeys.png" width="11px" height="12px" preserveAspectRatio="xMinYMin meet" x="184" y="-168.7"/>
<text text-anchor="start" x="199" y="-158.8" font-family="Helvetica,sans-Serif" font-size="11.00" fill="#000000">created_by</text>
<polygon fill="#c0c0c0" stroke="transparent" points="179,-129.7 179,-151.7 355,-151.7 355,-129.7 179,-129.7"/>
<polygon fill="none" stroke="#000000" points="179,-129.7 179,-151.7 355,-151.7 355,-129.7 179,-129.7"/>
<image xlink:href="../../images/foreignKeys.png" width="11px" height="12px" preserveAspectRatio="xMinYMin meet" x="184" y="-146.7"/>
<text text-anchor="start" x="199" y="-136.8" font-family="Helvetica,sans-Serif" font-size="11.00" fill="#000000">assigned_user_id</text>
<polygon fill="none" stroke="#000000" points="179,-107.7 179,-129.7 355,-129.7 355,-107.7 179,-107.7"/>
<image xlink:href="../../images/foreignKeys.png" width="11px" height="12px" preserveAspectRatio="xMinYMin meet" x="184" y="-124.7"/>
<text text-anchor="start" x="199" y="-114.8" font-family="Helvetica,sans-Serif" font-size="11.00" fill="#000000">survey_question_id</text>
<polygon fill="none" stroke="#000000" points="179,-88.7 179,-107.7 355,-107.7 355,-88.7 179,-88.7"/>
<text text-anchor="start" x="182" y="-94.8" font-family="Helvetica,sans-Serif" font-size="11.00" fill="#000000">...</text>
<polygon fill="#ffffff" stroke="transparent" points="179,-69.7 179,-88.7 261,-88.7 261,-69.7 179,-69.7"/>
<polygon fill="none" stroke="#000000" points="179,-69.7 179,-88.7 261,-88.7 261,-69.7 179,-69.7"/>
<text text-anchor="start" x="182" y="-75.8" font-family="Helvetica,sans-Serif" font-size="11.00" fill="#000000">&lt; 4</text>
<polygon fill="#ffffff" stroke="transparent" points="261,-69.7 261,-88.7 303,-88.7 303,-69.7 261,-69.7"/>
<polygon fill="none" stroke="#000000" points="261,-69.7 261,-88.7 303,-88.7 303,-69.7 261,-69.7"/>
<text text-anchor="start" x="293.8862" y="-75.8" font-family="Helvetica,sans-Serif" font-size="11.00" fill="#000000"> &#160;</text>
<polygon fill="#ffffff" stroke="transparent" points="303,-69.7 303,-88.7 355,-88.7 355,-69.7 303,-69.7"/>
<polygon fill="none" stroke="#000000" points="303,-69.7 303,-88.7 355,-88.7 355,-69.7 303,-69.7"/>
<text text-anchor="start" x="336.4053" y="-75.8" font-family="Helvetica,sans-Serif" font-size="11.00" fill="#000000">3 &gt;</text>
</a>
</g>
</g>
<!-- securitygroups_records&#45;&gt;surveyquestionoptions -->
<g id="edge1" class="edge">
<title>securitygroups_records:w&#45;&gt;surveyquestionoptions:e</title>
<path fill="none" stroke="#000000" d="M455.658,-67.2251C421.4884,-75.3267 423.3932,-114.2469 396,-148.7 376.3537,-173.4096 386.5681,-206.7 355,-206.7"/>
<polygon fill="#000000" stroke="#000000" points="462.0448,-66.546 470.3807,-69.2798 466.0224,-66.123 470,-65.7 470,-65.7 470,-65.7 466.0224,-66.123 469.6193,-62.1202 462.0448,-66.546 462.0448,-66.546"/>
<ellipse fill="none" stroke="#000000" cx="458.8628" cy="-66.8844" rx="3.2" ry="3.2"/>
</g>
<!-- surveyquestions -->
<g id="node3" class="node">
<title>surveyquestions</title>
<g id="a_node3"><a xlink:href="../../tables/surveyquestions.html" xlink:title="surveyquestions" target="_top">
<polygon fill="#ffffff" stroke="transparent" points="8,-54.2 8,-115.2 130,-115.2 130,-54.2 8,-54.2"/>
<polygon fill="#f5f5f5" stroke="transparent" points="8,-91.7 8,-114.7 130,-114.7 130,-91.7 8,-91.7"/>
<polygon fill="none" stroke="#000000" points="8,-91.7 8,-114.7 130,-114.7 130,-91.7 8,-91.7"/>
<text text-anchor="start" x="12.768" y="-100.8" font-family="Helvetica,sans-Serif" font-weight="bold" font-size="11.00" fill="#000000">surveyquestions</text>
<text text-anchor="start" x="95.5219" y="-99.8" font-family="Helvetica,sans-Serif" font-size="11.00" fill="#000000">[table]</text>
<polygon fill="none" stroke="#000000" points="8,-72.7 8,-91.7 130,-91.7 130,-72.7 8,-72.7"/>
<text text-anchor="start" x="11" y="-78.8" font-family="Helvetica,sans-Serif" font-size="11.00" fill="#000000">...</text>
<polygon fill="#ffffff" stroke="transparent" points="8,-53.7 8,-72.7 63,-72.7 63,-53.7 8,-53.7"/>
<polygon fill="none" stroke="#000000" points="8,-53.7 8,-72.7 63,-72.7 63,-53.7 8,-53.7"/>
<text text-anchor="start" x="11" y="-59.8" font-family="Helvetica,sans-Serif" font-size="11.00" fill="#000000">&lt; 4</text>
<polygon fill="#ffffff" stroke="transparent" points="63,-53.7 63,-72.7 92,-72.7 92,-53.7 63,-53.7"/>
<polygon fill="none" stroke="#000000" points="63,-53.7 63,-72.7 92,-72.7 92,-53.7 63,-53.7"/>
<text text-anchor="start" x="82.8862" y="-59.8" font-family="Helvetica,sans-Serif" font-size="11.00" fill="#000000"> &#160;</text>
<polygon fill="#ffffff" stroke="transparent" points="92,-53.7 92,-72.7 130,-72.7 130,-53.7 92,-53.7"/>
<polygon fill="none" stroke="#000000" points="92,-53.7 92,-72.7 130,-72.7 130,-53.7 92,-53.7"/>
<text text-anchor="start" x="111.4053" y="-59.8" font-family="Helvetica,sans-Serif" font-size="11.00" fill="#000000">3 &gt;</text>
</a>
</g>
</g>
<!-- securitygroups_records&#45;&gt;surveyquestions -->
<g id="edge2" class="edge">
<title>securitygroups_records:w&#45;&gt;surveyquestions:e</title>
<path fill="none" stroke="#000000" d="M455.5887,-65.5469C334.1987,-62.9475 295.1226,-28.5026 171,-59.7 150.944,-64.7409 150.6798,-81.7 130,-81.7"/>
<polygon fill="#000000" stroke="#000000" points="462.0005,-65.615 469.9617,-69.2998 466.0002,-65.6575 470,-65.7 470,-65.7 470,-65.7 466.0002,-65.6575 470.0383,-62.1002 462.0005,-65.615 462.0005,-65.615"/>
<ellipse fill="none" stroke="#000000" cx="458.8006" cy="-65.581" rx="3.2" ry="3.2"/>
</g>
<!-- surveyquestionoptions&#45;&gt;surveyquestions -->
<g id="edge3" class="edge">
<title>surveyquestionoptions:w&#45;&gt;surveyquestions:e</title>
<path fill="none" stroke="#000000" d="M165.1217,-114.1631C152.5786,-104.283 151.3196,-81.7 130,-81.7"/>
<polygon fill="#000000" stroke="#000000" points="171.396,-116.2142 177.8814,-122.1218 175.198,-117.4571 179,-118.7 179,-118.7 179,-118.7 175.198,-117.4571 180.1186,-115.2782 171.396,-116.2142 171.396,-116.2142"/>
<ellipse fill="none" stroke="#000000" cx="168.3544" cy="-115.2198" rx="3.2" ry="3.2"/>
</g>
<!-- surveyquestionoptions_audit -->
<g id="node4" class="node">
<title>surveyquestionoptions_audit</title>
<g id="a_node4"><a xlink:href="../../tables/surveyquestionoptions_audit.html" xlink:title="surveyquestionoptions_audit" target="_top">
<polygon fill="#ffffff" stroke="transparent" points="404,-241.7 404,-507.7 692,-507.7 692,-241.7 404,-241.7"/>
<polygon fill="#f5f5f5" stroke="transparent" points="406,-482.7 406,-505.7 690,-505.7 690,-482.7 406,-482.7"/>
<polygon fill="none" stroke="#000000" points="406,-482.7 406,-505.7 690,-505.7 690,-482.7 406,-482.7"/>
<text text-anchor="start" x="411" y="-491.8" font-family="Helvetica,sans-Serif" font-weight="bold" font-size="11.00" fill="#000000">surveyquestionoptions_audit</text>
<text text-anchor="start" x="655.0437" y="-490.8" font-family="Helvetica,sans-Serif" font-size="11.00" fill="#000000">[table]</text>
<polygon fill="none" stroke="#000000" points="406,-460.7 406,-482.7 623,-482.7 623,-460.7 406,-460.7"/>
<image xlink:href="../../images/primaryKeys.png" width="11px" height="12px" preserveAspectRatio="xMinYMin meet" x="411" y="-477.7"/>
<text text-anchor="start" x="426" y="-467.8" font-family="Helvetica,sans-Serif" font-size="11.00" fill="#000000">id</text>
<polygon fill="none" stroke="#000000" points="623,-460.7 623,-482.7 690,-482.7 690,-460.7 623,-460.7"/>
<text text-anchor="start" x="626" y="-468.4" font-family="Helvetica,sans-Serif" font-size="11.00" fill="#000000">char[36]</text>
<polygon fill="#ffffff" stroke="transparent" points="406,-438.7 406,-460.7 623,-460.7 623,-438.7 406,-438.7"/>
<polygon fill="none" stroke="#000000" points="406,-438.7 406,-460.7 623,-460.7 623,-438.7 406,-438.7"/>
<image xlink:href="../../images/foreignKeys.png" width="11px" height="12px" preserveAspectRatio="xMinYMin meet" x="411" y="-455.7"/>
<text text-anchor="start" x="426" y="-445.8" font-family="Helvetica,sans-Serif" font-size="11.00" fill="#000000">parent_id</text>
<polygon fill="none" stroke="#000000" points="623,-438.7 623,-460.7 690,-460.7 690,-438.7 623,-438.7"/>
<text text-anchor="start" x="626" y="-446.4" font-family="Helvetica,sans-Serif" font-size="11.00" fill="#000000">char[36]</text>
<polygon fill="none" stroke="#000000" points="406,-416.7 406,-438.7 623,-438.7 623,-416.7 406,-416.7"/>
<text text-anchor="start" x="426" y="-423.8" font-family="Helvetica,sans-Serif" font-size="11.00" fill="#000000">date_created</text>
<polygon fill="none" stroke="#000000" points="623,-416.7 623,-438.7 690,-438.7 690,-416.7 623,-416.7"/>
<text text-anchor="start" x="626" y="-424.4" font-family="Helvetica,sans-Serif" font-size="11.00" fill="#000000">datetime[26]</text>
<polygon fill="none" stroke="#000000" points="406,-394.7 406,-416.7 623,-416.7 623,-394.7 406,-394.7"/>
<text text-anchor="start" x="426" y="-401.8" font-family="Helvetica,sans-Serif" font-size="11.00" fill="#000000">created_by</text>
<polygon fill="none" stroke="#000000" points="623,-394.7 623,-416.7 690,-416.7 690,-394.7 623,-394.7"/>
<text text-anchor="start" x="626" y="-402.4" font-family="Helvetica,sans-Serif" font-size="11.00" fill="#000000">varchar[36]</text>
<polygon fill="none" stroke="#000000" points="406,-372.7 406,-394.7 623,-394.7 623,-372.7 406,-372.7"/>
<text text-anchor="start" x="426" y="-379.8" font-family="Helvetica,sans-Serif" font-size="11.00" fill="#000000">field_name</text>
<polygon fill="none" stroke="#000000" points="623,-372.7 623,-394.7 690,-394.7 690,-372.7 623,-372.7"/>
<text text-anchor="start" x="625.9365" y="-380.4" font-family="Helvetica,sans-Serif" font-size="11.00" fill="#000000">varchar[100]</text>
<polygon fill="none" stroke="#000000" points="406,-350.7 406,-372.7 623,-372.7 623,-350.7 406,-350.7"/>
<text text-anchor="start" x="426" y="-357.8" font-family="Helvetica,sans-Serif" font-size="11.00" fill="#000000">data_type</text>
<polygon fill="none" stroke="#000000" points="623,-350.7 623,-372.7 690,-372.7 690,-350.7 623,-350.7"/>
<text text-anchor="start" x="625.9365" y="-358.4" font-family="Helvetica,sans-Serif" font-size="11.00" fill="#000000">varchar[100]</text>
<polygon fill="none" stroke="#000000" points="406,-328.7 406,-350.7 623,-350.7 623,-328.7 406,-328.7"/>
<text text-anchor="start" x="426" y="-335.8" font-family="Helvetica,sans-Serif" font-size="11.00" fill="#000000">before_value_string</text>
<polygon fill="none" stroke="#000000" points="623,-328.7 623,-350.7 690,-350.7 690,-328.7 623,-328.7"/>
<text text-anchor="start" x="625.9365" y="-336.4" font-family="Helvetica,sans-Serif" font-size="11.00" fill="#000000">varchar[255]</text>
<polygon fill="none" stroke="#000000" points="406,-306.7 406,-328.7 623,-328.7 623,-306.7 406,-306.7"/>
<text text-anchor="start" x="426" y="-313.8" font-family="Helvetica,sans-Serif" font-size="11.00" fill="#000000">after_value_string</text>
<polygon fill="none" stroke="#000000" points="623,-306.7 623,-328.7 690,-328.7 690,-306.7 623,-306.7"/>
<text text-anchor="start" x="625.9365" y="-314.4" font-family="Helvetica,sans-Serif" font-size="11.00" fill="#000000">varchar[255]</text>
<polygon fill="none" stroke="#000000" points="406,-284.7 406,-306.7 623,-306.7 623,-284.7 406,-284.7"/>
<text text-anchor="start" x="426" y="-291.8" font-family="Helvetica,sans-Serif" font-size="11.00" fill="#000000">before_value_text</text>
<polygon fill="none" stroke="#000000" points="623,-284.7 623,-306.7 690,-306.7 690,-284.7 623,-284.7"/>
<text text-anchor="start" x="626" y="-292.4" font-family="Helvetica,sans-Serif" font-size="11.00" fill="#000000">text[65535]</text>
<polygon fill="none" stroke="#000000" points="406,-262.7 406,-284.7 623,-284.7 623,-262.7 406,-262.7"/>
<text text-anchor="start" x="426" y="-269.8" font-family="Helvetica,sans-Serif" font-size="11.00" fill="#000000">after_value_text</text>
<polygon fill="none" stroke="#000000" points="623,-262.7 623,-284.7 690,-284.7 690,-262.7 623,-262.7"/>
<text text-anchor="start" x="626" y="-270.4" font-family="Helvetica,sans-Serif" font-size="11.00" fill="#000000">text[65535]</text>
<polygon fill="#ffffff" stroke="transparent" points="406,-243.7 406,-262.7 519,-262.7 519,-243.7 406,-243.7"/>
<polygon fill="none" stroke="#000000" points="406,-243.7 406,-262.7 519,-262.7 519,-243.7 406,-243.7"/>
<text text-anchor="start" x="409" y="-249.8" font-family="Helvetica,sans-Serif" font-size="11.00" fill="#000000">&lt; 1</text>
<polygon fill="#ffffff" stroke="transparent" points="519,-243.7 519,-262.7 623,-262.7 623,-243.7 519,-243.7"/>
<polygon fill="none" stroke="#000000" points="519,-243.7 519,-262.7 623,-262.7 623,-243.7 519,-243.7"/>
<text text-anchor="start" x="613.8862" y="-249.8" font-family="Helvetica,sans-Serif" font-size="11.00" fill="#000000"> &#160;</text>
<polygon fill="#ffffff" stroke="transparent" points="623,-243.7 623,-262.7 690,-262.7 690,-243.7 623,-243.7"/>
<polygon fill="none" stroke="#000000" points="623,-243.7 623,-262.7 690,-262.7 690,-243.7 623,-243.7"/>
<text text-anchor="start" x="671.4053" y="-249.8" font-family="Helvetica,sans-Serif" font-size="11.00" fill="#000000">0 &gt;</text>
<polygon fill="none" stroke="#000000" stroke-width="2" points="405,-242.7 405,-506.7 691,-506.7 691,-242.7 405,-242.7"/>
</a>
</g>
</g>
<!-- surveyquestionoptions_audit&#45;&gt;surveyquestionoptions -->
<g id="edge4" class="edge">
<title>surveyquestionoptions_audit:w&#45;&gt;surveyquestionoptions:e</title>
<path fill="none" stroke="#000000" d="M391.2817,-447.8837C312.1606,-425.6469 459.7491,-206.7 355,-206.7"/>
<polygon fill="#000000" stroke="#000000" points="398.0602,-448.7202 405.5591,-453.2729 402.0301,-449.2101 406,-449.7 406,-449.7 406,-449.7 402.0301,-449.2101 406.4409,-446.1271 398.0602,-448.7202 398.0602,-448.7202"/>
<ellipse fill="none" stroke="#000000" cx="394.8843" cy="-448.3282" rx="3.2" ry="3.2"/>
</g>
<!-- surveyquestionoptions_surveyquestionresponses -->
<g id="node5" class="node">
<title>surveyquestionoptions_surveyquestionresponses</title>
<g id="a_node5"><a xlink:href="../../tables/surveyquestionoptions_surveyquestionresponses.html" xlink:title="surveyquestionoptions_surveyquestionresponses" target="_top">
<polygon fill="#ffffff" stroke="transparent" points="406.5,-159.2 406.5,-220.2 689.5,-220.2 689.5,-159.2 406.5,-159.2"/>
<polygon fill="#f5f5f5" stroke="transparent" points="407,-196.7 407,-219.7 690,-219.7 690,-196.7 407,-196.7"/>
<polygon fill="none" stroke="#000000" points="407,-196.7 407,-219.7 690,-219.7 690,-196.7 407,-196.7"/>
<text text-anchor="start" x="411.8817" y="-205.8" font-family="Helvetica,sans-Serif" font-weight="bold" font-size="11.00" fill="#000000">surveyquestionoptions_surveyquestionresponses</text>
<text text-anchor="start" x="655.5219" y="-204.8" font-family="Helvetica,sans-Serif" font-size="11.00" fill="#000000">[table]</text>
<polygon fill="none" stroke="#000000" points="407,-177.7 407,-196.7 690,-196.7 690,-177.7 407,-177.7"/>
<text text-anchor="start" x="410" y="-183.8" font-family="Helvetica,sans-Serif" font-size="11.00" fill="#000000">...</text>
<polygon fill="#ffffff" stroke="transparent" points="407,-158.7 407,-177.7 547,-177.7 547,-158.7 407,-158.7"/>
<polygon fill="none" stroke="#000000" points="407,-158.7 407,-177.7 547,-177.7 547,-158.7 407,-158.7"/>
<text text-anchor="start" x="410" y="-164.8" font-family="Helvetica,sans-Serif" font-size="11.00" fill="#000000">&lt; 2</text>
<polygon fill="#ffffff" stroke="transparent" points="547,-158.7 547,-177.7 618,-177.7 618,-158.7 547,-158.7"/>
<polygon fill="none" stroke="#000000" points="547,-158.7 547,-177.7 618,-177.7 618,-158.7 547,-158.7"/>
<text text-anchor="start" x="608.8862" y="-164.8" font-family="Helvetica,sans-Serif" font-size="11.00" fill="#000000"> &#160;</text>
<polygon fill="#ffffff" stroke="transparent" points="618,-158.7 618,-177.7 690,-177.7 690,-158.7 618,-158.7"/>
<polygon fill="none" stroke="#000000" points="618,-158.7 618,-177.7 690,-177.7 690,-158.7 618,-158.7"/>
<text text-anchor="start" x="680.8862" y="-164.8" font-family="Helvetica,sans-Serif" font-size="11.00" fill="#000000"> &#160;</text>
</a>
</g>
</g>
<!-- surveyquestionoptions_surveyquestionresponses&#45;&gt;surveyquestionoptions -->
<g id="edge5" class="edge">
<title>surveyquestionoptions_surveyquestionresponses:w&#45;&gt;surveyquestionoptions:e</title>
<path fill="none" stroke="#000000" d="M392.6881,-189.4809C379.8533,-194.9764 373.9581,-206.7 355,-206.7"/>
<polygon fill="#000000" stroke="#000000" points="399.1469,-188.226 407.6867,-190.2339 403.0734,-187.463 407,-186.7 407,-186.7 407,-186.7 403.0734,-187.463 406.3133,-183.1661 399.1469,-188.226 399.1469,-188.226"/>
<ellipse fill="none" stroke="#000000" cx="396.0056" cy="-188.8364" rx="3.2" ry="3.2"/>
</g>
</g>
</svg>
