<?xml version="1.0" encoding="UTF-8" standalone="no"?>
<!DOCTYPE svg PUBLIC "-//W3C//DTD SVG 1.1//EN"
 "http://www.w3.org/Graphics/SVG/1.1/DTD/svg11.dtd">
<!-- Generated by graphviz version 2.40.1 (20161225.0304)
 -->
<!-- Title: twoDegreesRelationshipsDiagram Pages: 1 -->
<svg width="748pt" height="481pt"
 viewBox="0.00 0.00 748.00 481.20" xmlns="http://www.w3.org/2000/svg" xmlns:xlink="http://www.w3.org/1999/xlink">
<g id="graph0" class="graph" transform="scale(1 1) rotate(0) translate(4 477.2)">
<title>twoDegreesRelationshipsDiagram</title>
<polygon fill="#ffffff" stroke="transparent" points="-4,4 -4,-477.2 744,-477.2 744,4 -4,4"/>
<text text-anchor="middle" x="72.4936" y="-7.3" font-family="Helvetica,sans-Serif" font-size="11.00" fill="#000000">Generated by SchemaSpy</text>
<!-- securitygroups_records -->
<g id="node1" class="node">
<title>securitygroups_records</title>
<g id="a_node1"><a xlink:href="../../tables/securitygroups_records.html" xlink:title="securitygroups_records" target="_top">
<polygon fill="#ffffff" stroke="transparent" points="500.5,-38.2 500.5,-99.2 657.5,-99.2 657.5,-38.2 500.5,-38.2"/>
<polygon fill="#f5f5f5" stroke="transparent" points="501,-75.7 501,-98.7 658,-98.7 658,-75.7 501,-75.7"/>
<polygon fill="none" stroke="#000000" points="501,-75.7 501,-98.7 658,-98.7 658,-75.7 501,-75.7"/>
<text text-anchor="start" x="505.8528" y="-84.8" font-family="Helvetica,sans-Serif" font-weight="bold" font-size="11.00" fill="#000000">securitygroups_records</text>
<text text-anchor="start" x="623.5219" y="-83.8" font-family="Helvetica,sans-Serif" font-size="11.00" fill="#000000">[table]</text>
<polygon fill="none" stroke="#000000" points="501,-56.7 501,-75.7 658,-75.7 658,-56.7 501,-56.7"/>
<text text-anchor="start" x="504" y="-62.8" font-family="Helvetica,sans-Serif" font-size="11.00" fill="#000000">...</text>
<polygon fill="#ffffff" stroke="transparent" points="501,-37.7 501,-56.7 581,-56.7 581,-37.7 501,-37.7"/>
<polygon fill="none" stroke="#000000" points="501,-37.7 501,-56.7 581,-56.7 581,-37.7 501,-37.7"/>
<text text-anchor="start" x="504" y="-43.8" font-family="Helvetica,sans-Serif" font-size="11.00" fill="#000000">&lt; 41</text>
<polygon fill="#ffffff" stroke="transparent" points="581,-37.7 581,-56.7 619,-56.7 619,-37.7 581,-37.7"/>
<polygon fill="none" stroke="#000000" points="581,-37.7 581,-56.7 619,-56.7 619,-37.7 581,-37.7"/>
<text text-anchor="start" x="609.8862" y="-43.8" font-family="Helvetica,sans-Serif" font-size="11.00" fill="#000000"> &#160;</text>
<polygon fill="#ffffff" stroke="transparent" points="619,-37.7 619,-56.7 658,-56.7 658,-37.7 619,-37.7"/>
<polygon fill="none" stroke="#000000" points="619,-37.7 619,-56.7 658,-56.7 658,-37.7 619,-37.7"/>
<text text-anchor="start" x="648.8862" y="-43.8" font-family="Helvetica,sans-Serif" font-size="11.00" fill="#000000"> &#160;</text>
</a>
</g>
</g>
<!-- surveyquestionresponses -->
<g id="node2" class="node">
<title>surveyquestionresponses</title>
<g id="a_node2"><a xlink:href="../../tables/surveyquestionresponses.html" xlink:title="surveyquestionresponses" target="_top">
<polygon fill="#ffffff" stroke="transparent" points="183,-166.2 183,-337.2 377,-337.2 377,-166.2 183,-166.2"/>
<polygon fill="#f5f5f5" stroke="transparent" points="183,-313.7 183,-336.7 377,-336.7 377,-313.7 183,-313.7"/>
<polygon fill="none" stroke="#000000" points="183,-313.7 183,-336.7 377,-336.7 377,-313.7 183,-313.7"/>
<text text-anchor="start" x="188" y="-322.8" font-family="Helvetica,sans-Serif" font-weight="bold" font-size="11.00" fill="#000000">surveyquestionresponses</text>
<text text-anchor="start" x="342.0437" y="-321.8" font-family="Helvetica,sans-Serif" font-size="11.00" fill="#000000">[table]</text>
<polygon fill="none" stroke="#000000" points="183,-291.7 183,-313.7 377,-313.7 377,-291.7 183,-291.7"/>
<image xlink:href="../../images/primaryKeys.png" width="11px" height="12px" preserveAspectRatio="xMinYMin meet" x="188" y="-308.7"/>
<text text-anchor="start" x="203" y="-298.8" font-family="Helvetica,sans-Serif" font-size="11.00" fill="#000000">id</text>
<polygon fill="#c0c0c0" stroke="transparent" points="183,-269.7 183,-291.7 377,-291.7 377,-269.7 183,-269.7"/>
<polygon fill="none" stroke="#000000" points="183,-269.7 183,-291.7 377,-291.7 377,-269.7 183,-269.7"/>
<image xlink:href="../../images/foreignKeys.png" width="11px" height="12px" preserveAspectRatio="xMinYMin meet" x="188" y="-286.7"/>
<text text-anchor="start" x="203" y="-276.8" font-family="Helvetica,sans-Serif" font-size="11.00" fill="#000000">modified_user_id</text>
<polygon fill="#c0c0c0" stroke="transparent" points="183,-247.7 183,-269.7 377,-269.7 377,-247.7 183,-247.7"/>
<polygon fill="none" stroke="#000000" points="183,-247.7 183,-269.7 377,-269.7 377,-247.7 183,-247.7"/>
<image xlink:href="../../images/foreignKeys.png" width="11px" height="12px" preserveAspectRatio="xMinYMin meet" x="188" y="-264.7"/>
<text text-anchor="start" x="203" y="-254.8" font-family="Helvetica,sans-Serif" font-size="11.00" fill="#000000">created_by</text>
<polygon fill="#c0c0c0" stroke="transparent" points="183,-225.7 183,-247.7 377,-247.7 377,-225.7 183,-225.7"/>
<polygon fill="none" stroke="#000000" points="183,-225.7 183,-247.7 377,-247.7 377,-225.7 183,-225.7"/>
<image xlink:href="../../images/foreignKeys.png" width="11px" height="12px" preserveAspectRatio="xMinYMin meet" x="188" y="-242.7"/>
<text text-anchor="start" x="203" y="-232.8" font-family="Helvetica,sans-Serif" font-size="11.00" fill="#000000">assigned_user_id</text>
<polygon fill="none" stroke="#000000" points="183,-203.7 183,-225.7 377,-225.7 377,-203.7 183,-203.7"/>
<image xlink:href="../../images/foreignKeys.png" width="11px" height="12px" preserveAspectRatio="xMinYMin meet" x="188" y="-220.7"/>
<text text-anchor="start" x="203" y="-210.8" font-family="Helvetica,sans-Serif" font-size="11.00" fill="#000000">surveyresponse_id</text>
<polygon fill="none" stroke="#000000" points="183,-184.7 183,-203.7 377,-203.7 377,-184.7 183,-184.7"/>
<text text-anchor="start" x="186" y="-190.8" font-family="Helvetica,sans-Serif" font-size="11.00" fill="#000000">...</text>
<polygon fill="#ffffff" stroke="transparent" points="183,-165.7 183,-184.7 274,-184.7 274,-165.7 183,-165.7"/>
<polygon fill="none" stroke="#000000" points="183,-165.7 183,-184.7 274,-184.7 274,-165.7 183,-165.7"/>
<text text-anchor="start" x="186" y="-171.8" font-family="Helvetica,sans-Serif" font-size="11.00" fill="#000000">&lt; 4</text>
<polygon fill="#ffffff" stroke="transparent" points="274,-165.7 274,-184.7 321,-184.7 321,-165.7 274,-165.7"/>
<polygon fill="none" stroke="#000000" points="274,-165.7 274,-184.7 321,-184.7 321,-165.7 274,-165.7"/>
<text text-anchor="start" x="311.8862" y="-171.8" font-family="Helvetica,sans-Serif" font-size="11.00" fill="#000000"> &#160;</text>
<polygon fill="#ffffff" stroke="transparent" points="321,-165.7 321,-184.7 377,-184.7 377,-165.7 321,-165.7"/>
<polygon fill="none" stroke="#000000" points="321,-165.7 321,-184.7 377,-184.7 377,-165.7 321,-165.7"/>
<text text-anchor="start" x="358.4053" y="-171.8" font-family="Helvetica,sans-Serif" font-size="11.00" fill="#000000">3 &gt;</text>
</a>
</g>
</g>
<!-- securitygroups_records&#45;&gt;surveyquestionresponses -->
<g id="edge1" class="edge">
<title>securitygroups_records:w&#45;&gt;surveyquestionresponses:e</title>
<path fill="none" stroke="#000000" d="M486.4776,-66.2236C455.0813,-68.7215 440.0024,-80.536 418,-109.7 365.1863,-179.7042 464.6919,-302.7 377,-302.7"/>
<polygon fill="#000000" stroke="#000000" points="493.0052,-65.9883 501.1297,-69.2977 497.0026,-65.8441 501,-65.7 501,-65.7 501,-65.7 497.0026,-65.8441 500.8703,-62.1023 493.0052,-65.9883 493.0052,-65.9883"/>
<ellipse fill="none" stroke="#000000" cx="489.8073" cy="-66.1036" rx="3.2" ry="3.2"/>
</g>
<!-- surveyresponses -->
<g id="node3" class="node">
<title>surveyresponses</title>
<g id="a_node3"><a xlink:href="../../tables/surveyresponses.html" xlink:title="surveyresponses" target="_top">
<polygon fill="#ffffff" stroke="transparent" points="8,-138.2 8,-199.2 134,-199.2 134,-138.2 8,-138.2"/>
<polygon fill="#f5f5f5" stroke="transparent" points="8,-175.7 8,-198.7 134,-198.7 134,-175.7 8,-175.7"/>
<polygon fill="none" stroke="#000000" points="8,-175.7 8,-198.7 134,-198.7 134,-175.7 8,-175.7"/>
<text text-anchor="start" x="12.9359" y="-184.8" font-family="Helvetica,sans-Serif" font-weight="bold" font-size="11.00" fill="#000000">surveyresponses</text>
<text text-anchor="start" x="99.5219" y="-183.8" font-family="Helvetica,sans-Serif" font-size="11.00" fill="#000000">[table]</text>
<polygon fill="none" stroke="#000000" points="8,-156.7 8,-175.7 134,-175.7 134,-156.7 8,-156.7"/>
<text text-anchor="start" x="11" y="-162.8" font-family="Helvetica,sans-Serif" font-size="11.00" fill="#000000">...</text>
<polygon fill="#ffffff" stroke="transparent" points="8,-137.7 8,-156.7 65,-156.7 65,-137.7 8,-137.7"/>
<polygon fill="none" stroke="#000000" points="8,-137.7 8,-156.7 65,-156.7 65,-137.7 8,-137.7"/>
<text text-anchor="start" x="11" y="-143.8" font-family="Helvetica,sans-Serif" font-size="11.00" fill="#000000">&lt; 5</text>
<polygon fill="#ffffff" stroke="transparent" points="65,-137.7 65,-156.7 95,-156.7 95,-137.7 65,-137.7"/>
<polygon fill="none" stroke="#000000" points="65,-137.7 65,-156.7 95,-156.7 95,-137.7 65,-137.7"/>
<text text-anchor="start" x="85.8862" y="-143.8" font-family="Helvetica,sans-Serif" font-size="11.00" fill="#000000"> &#160;</text>
<polygon fill="#ffffff" stroke="transparent" points="95,-137.7 95,-156.7 134,-156.7 134,-137.7 95,-137.7"/>
<polygon fill="none" stroke="#000000" points="95,-137.7 95,-156.7 134,-156.7 134,-137.7 95,-137.7"/>
<text text-anchor="start" x="115.4053" y="-143.8" font-family="Helvetica,sans-Serif" font-size="11.00" fill="#000000">3 &gt;</text>
</a>
</g>
</g>
<!-- securitygroups_records&#45;&gt;surveyresponses -->
<g id="edge2" class="edge">
<title>securitygroups_records:w&#45;&gt;surveyresponses:e</title>
<path fill="none" stroke="#000000" d="M486.8186,-68.9139C419.9956,-86.0304 143.4311,-165.7 134,-165.7"/>
<polygon fill="#000000" stroke="#000000" points="493.1979,-67.4682 501.7957,-69.211 497.0989,-66.5841 501,-65.7 501,-65.7 501,-65.7 497.0989,-66.5841 500.2043,-62.189 493.1979,-67.4682 493.1979,-67.4682"/>
<ellipse fill="none" stroke="#000000" cx="490.077" cy="-68.1755" rx="3.2" ry="3.2"/>
</g>
<!-- surveyquestionresponses&#45;&gt;surveyresponses -->
<g id="edge4" class="edge">
<title>surveyquestionresponses:w&#45;&gt;surveyresponses:e</title>
<path fill="none" stroke="#000000" d="M169.2736,-209.8226C155.4668,-197.4286 158.7831,-165.7 134,-165.7"/>
<polygon fill="#000000" stroke="#000000" points="175.4618,-212.0214 181.7946,-218.0922 179.2309,-213.3607 183,-214.7 183,-214.7 183,-214.7 179.2309,-213.3607 184.2054,-211.3078 175.4618,-212.0214 175.4618,-212.0214"/>
<ellipse fill="none" stroke="#000000" cx="172.4465" cy="-210.9499" rx="3.2" ry="3.2"/>
</g>
<!-- surveyquestionoptions_surveyquestionresponses -->
<g id="node4" class="node">
<title>surveyquestionoptions_surveyquestionresponses</title>
<g id="a_node4"><a xlink:href="../../tables/surveyquestionoptions_surveyquestionresponses.html" xlink:title="surveyquestionoptions_surveyquestionresponses" target="_top">
<polygon fill="#ffffff" stroke="transparent" points="437.5,-408.2 437.5,-469.2 720.5,-469.2 720.5,-408.2 437.5,-408.2"/>
<polygon fill="#f5f5f5" stroke="transparent" points="438,-445.7 438,-468.7 721,-468.7 721,-445.7 438,-445.7"/>
<polygon fill="none" stroke="#000000" points="438,-445.7 438,-468.7 721,-468.7 721,-445.7 438,-445.7"/>
<text text-anchor="start" x="442.8817" y="-454.8" font-family="Helvetica,sans-Serif" font-weight="bold" font-size="11.00" fill="#000000">surveyquestionoptions_surveyquestionresponses</text>
<text text-anchor="start" x="686.5219" y="-453.8" font-family="Helvetica,sans-Serif" font-size="11.00" fill="#000000">[table]</text>
<polygon fill="none" stroke="#000000" points="438,-426.7 438,-445.7 721,-445.7 721,-426.7 438,-426.7"/>
<text text-anchor="start" x="441" y="-432.8" font-family="Helvetica,sans-Serif" font-size="11.00" fill="#000000">...</text>
<polygon fill="#ffffff" stroke="transparent" points="438,-407.7 438,-426.7 578,-426.7 578,-407.7 438,-407.7"/>
<polygon fill="none" stroke="#000000" points="438,-407.7 438,-426.7 578,-426.7 578,-407.7 438,-407.7"/>
<text text-anchor="start" x="441" y="-413.8" font-family="Helvetica,sans-Serif" font-size="11.00" fill="#000000">&lt; 2</text>
<polygon fill="#ffffff" stroke="transparent" points="578,-407.7 578,-426.7 649,-426.7 649,-407.7 578,-407.7"/>
<polygon fill="none" stroke="#000000" points="578,-407.7 578,-426.7 649,-426.7 649,-407.7 578,-407.7"/>
<text text-anchor="start" x="639.8862" y="-413.8" font-family="Helvetica,sans-Serif" font-size="11.00" fill="#000000"> &#160;</text>
<polygon fill="#ffffff" stroke="transparent" points="649,-407.7 649,-426.7 721,-426.7 721,-407.7 649,-407.7"/>
<polygon fill="none" stroke="#000000" points="649,-407.7 649,-426.7 721,-426.7 721,-407.7 649,-407.7"/>
<text text-anchor="start" x="711.8862" y="-413.8" font-family="Helvetica,sans-Serif" font-size="11.00" fill="#000000"> &#160;</text>
</a>
</g>
</g>
<!-- surveyquestionoptions_surveyquestionresponses&#45;&gt;surveyquestionresponses -->
<g id="edge3" class="edge">
<title>surveyquestionoptions_surveyquestionresponses:w&#45;&gt;surveyquestionresponses:e</title>
<path fill="none" stroke="#000000" d="M423.7784,-432.7984C384.0724,-413.3485 436.3161,-302.7 377,-302.7"/>
<polygon fill="#000000" stroke="#000000" points="430.1615,-434.1007 437.2803,-439.2273 434.0807,-434.9003 438,-435.7 438,-435.7 438,-435.7 434.0807,-434.9003 438.7197,-432.1727 430.1615,-434.1007 430.1615,-434.1007"/>
<ellipse fill="none" stroke="#000000" cx="427.0261" cy="-433.461" rx="3.2" ry="3.2"/>
</g>
<!-- surveyquestionresponses_audit -->
<g id="node5" class="node">
<title>surveyquestionresponses_audit</title>
<g id="a_node5"><a xlink:href="../../tables/surveyquestionresponses_audit.html" xlink:title="surveyquestionresponses_audit" target="_top">
<polygon fill="#ffffff" stroke="transparent" points="426,-120.7 426,-386.7 732,-386.7 732,-120.7 426,-120.7"/>
<polygon fill="#f5f5f5" stroke="transparent" points="428,-361.7 428,-384.7 730,-384.7 730,-361.7 428,-361.7"/>
<polygon fill="none" stroke="#000000" points="428,-361.7 428,-384.7 730,-384.7 730,-361.7 428,-361.7"/>
<text text-anchor="start" x="433" y="-370.8" font-family="Helvetica,sans-Serif" font-weight="bold" font-size="11.00" fill="#000000">surveyquestionresponses_audit</text>
<text text-anchor="start" x="695.0437" y="-369.8" font-family="Helvetica,sans-Serif" font-size="11.00" fill="#000000">[table]</text>
<polygon fill="none" stroke="#000000" points="428,-339.7 428,-361.7 663,-361.7 663,-339.7 428,-339.7"/>
<image xlink:href="../../images/primaryKeys.png" width="11px" height="12px" preserveAspectRatio="xMinYMin meet" x="433" y="-356.7"/>
<text text-anchor="start" x="448" y="-346.8" font-family="Helvetica,sans-Serif" font-size="11.00" fill="#000000">id</text>
<polygon fill="none" stroke="#000000" points="663,-339.7 663,-361.7 730,-361.7 730,-339.7 663,-339.7"/>
<text text-anchor="start" x="666" y="-347.4" font-family="Helvetica,sans-Serif" font-size="11.00" fill="#000000">char[36]</text>
<polygon fill="#ffffff" stroke="transparent" points="428,-317.7 428,-339.7 663,-339.7 663,-317.7 428,-317.7"/>
<polygon fill="none" stroke="#000000" points="428,-317.7 428,-339.7 663,-339.7 663,-317.7 428,-317.7"/>
<image xlink:href="../../images/foreignKeys.png" width="11px" height="12px" preserveAspectRatio="xMinYMin meet" x="433" y="-334.7"/>
<text text-anchor="start" x="448" y="-324.8" font-family="Helvetica,sans-Serif" font-size="11.00" fill="#000000">parent_id</text>
<polygon fill="none" stroke="#000000" points="663,-317.7 663,-339.7 730,-339.7 730,-317.7 663,-317.7"/>
<text text-anchor="start" x="666" y="-325.4" font-family="Helvetica,sans-Serif" font-size="11.00" fill="#000000">char[36]</text>
<polygon fill="none" stroke="#000000" points="428,-295.7 428,-317.7 663,-317.7 663,-295.7 428,-295.7"/>
<text text-anchor="start" x="448" y="-302.8" font-family="Helvetica,sans-Serif" font-size="11.00" fill="#000000">date_created</text>
<polygon fill="none" stroke="#000000" points="663,-295.7 663,-317.7 730,-317.7 730,-295.7 663,-295.7"/>
<text text-anchor="start" x="666" y="-303.4" font-family="Helvetica,sans-Serif" font-size="11.00" fill="#000000">datetime[26]</text>
<polygon fill="none" stroke="#000000" points="428,-273.7 428,-295.7 663,-295.7 663,-273.7 428,-273.7"/>
<text text-anchor="start" x="448" y="-280.8" font-family="Helvetica,sans-Serif" font-size="11.00" fill="#000000">created_by</text>
<polygon fill="none" stroke="#000000" points="663,-273.7 663,-295.7 730,-295.7 730,-273.7 663,-273.7"/>
<text text-anchor="start" x="666" y="-281.4" font-family="Helvetica,sans-Serif" font-size="11.00" fill="#000000">varchar[36]</text>
<polygon fill="none" stroke="#000000" points="428,-251.7 428,-273.7 663,-273.7 663,-251.7 428,-251.7"/>
<text text-anchor="start" x="448" y="-258.8" font-family="Helvetica,sans-Serif" font-size="11.00" fill="#000000">field_name</text>
<polygon fill="none" stroke="#000000" points="663,-251.7 663,-273.7 730,-273.7 730,-251.7 663,-251.7"/>
<text text-anchor="start" x="665.9365" y="-259.4" font-family="Helvetica,sans-Serif" font-size="11.00" fill="#000000">varchar[100]</text>
<polygon fill="none" stroke="#000000" points="428,-229.7 428,-251.7 663,-251.7 663,-229.7 428,-229.7"/>
<text text-anchor="start" x="448" y="-236.8" font-family="Helvetica,sans-Serif" font-size="11.00" fill="#000000">data_type</text>
<polygon fill="none" stroke="#000000" points="663,-229.7 663,-251.7 730,-251.7 730,-229.7 663,-229.7"/>
<text text-anchor="start" x="665.9365" y="-237.4" font-family="Helvetica,sans-Serif" font-size="11.00" fill="#000000">varchar[100]</text>
<polygon fill="none" stroke="#000000" points="428,-207.7 428,-229.7 663,-229.7 663,-207.7 428,-207.7"/>
<text text-anchor="start" x="448" y="-214.8" font-family="Helvetica,sans-Serif" font-size="11.00" fill="#000000">before_value_string</text>
<polygon fill="none" stroke="#000000" points="663,-207.7 663,-229.7 730,-229.7 730,-207.7 663,-207.7"/>
<text text-anchor="start" x="665.9365" y="-215.4" font-family="Helvetica,sans-Serif" font-size="11.00" fill="#000000">varchar[255]</text>
<polygon fill="none" stroke="#000000" points="428,-185.7 428,-207.7 663,-207.7 663,-185.7 428,-185.7"/>
<text text-anchor="start" x="448" y="-192.8" font-family="Helvetica,sans-Serif" font-size="11.00" fill="#000000">after_value_string</text>
<polygon fill="none" stroke="#000000" points="663,-185.7 663,-207.7 730,-207.7 730,-185.7 663,-185.7"/>
<text text-anchor="start" x="665.9365" y="-193.4" font-family="Helvetica,sans-Serif" font-size="11.00" fill="#000000">varchar[255]</text>
<polygon fill="none" stroke="#000000" points="428,-163.7 428,-185.7 663,-185.7 663,-163.7 428,-163.7"/>
<text text-anchor="start" x="448" y="-170.8" font-family="Helvetica,sans-Serif" font-size="11.00" fill="#000000">before_value_text</text>
<polygon fill="none" stroke="#000000" points="663,-163.7 663,-185.7 730,-185.7 730,-163.7 663,-163.7"/>
<text text-anchor="start" x="666" y="-171.4" font-family="Helvetica,sans-Serif" font-size="11.00" fill="#000000">text[65535]</text>
<polygon fill="none" stroke="#000000" points="428,-141.7 428,-163.7 663,-163.7 663,-141.7 428,-141.7"/>
<text text-anchor="start" x="448" y="-148.8" font-family="Helvetica,sans-Serif" font-size="11.00" fill="#000000">after_value_text</text>
<polygon fill="none" stroke="#000000" points="663,-141.7 663,-163.7 730,-163.7 730,-141.7 663,-141.7"/>
<text text-anchor="start" x="666" y="-149.4" font-family="Helvetica,sans-Serif" font-size="11.00" fill="#000000">text[65535]</text>
<polygon fill="#ffffff" stroke="transparent" points="428,-122.7 428,-141.7 550,-141.7 550,-122.7 428,-122.7"/>
<polygon fill="none" stroke="#000000" points="428,-122.7 428,-141.7 550,-141.7 550,-122.7 428,-122.7"/>
<text text-anchor="start" x="431" y="-128.8" font-family="Helvetica,sans-Serif" font-size="11.00" fill="#000000">&lt; 1</text>
<polygon fill="#ffffff" stroke="transparent" points="550,-122.7 550,-141.7 663,-141.7 663,-122.7 550,-122.7"/>
<polygon fill="none" stroke="#000000" points="550,-122.7 550,-141.7 663,-141.7 663,-122.7 550,-122.7"/>
<text text-anchor="start" x="653.8862" y="-128.8" font-family="Helvetica,sans-Serif" font-size="11.00" fill="#000000"> &#160;</text>
<polygon fill="#ffffff" stroke="transparent" points="663,-122.7 663,-141.7 730,-141.7 730,-122.7 663,-122.7"/>
<polygon fill="none" stroke="#000000" points="663,-122.7 663,-141.7 730,-141.7 730,-122.7 663,-122.7"/>
<text text-anchor="start" x="711.4053" y="-128.8" font-family="Helvetica,sans-Serif" font-size="11.00" fill="#000000">0 &gt;</text>
<polygon fill="none" stroke="#000000" stroke-width="2" points="427,-121.7 427,-385.7 731,-385.7 731,-121.7 427,-121.7"/>
</a>
</g>
</g>
<!-- surveyquestionresponses_audit&#45;&gt;surveyquestionresponses -->
<g id="edge5" class="edge">
<title>surveyquestionresponses_audit:w&#45;&gt;surveyquestionresponses:e</title>
<path fill="none" stroke="#000000" d="M413.6325,-325.0848C401.1124,-317.9407 396.4792,-302.7 377,-302.7"/>
<polygon fill="#000000" stroke="#000000" points="420.2418,-326.7478 427.1215,-332.1912 424.1209,-327.7239 428,-328.7 428,-328.7 428,-328.7 424.1209,-327.7239 428.8785,-325.2088 420.2418,-326.7478 420.2418,-326.7478"/>
<ellipse fill="none" stroke="#000000" cx="417.1386" cy="-325.967" rx="3.2" ry="3.2"/>
</g>
</g>
</svg>
