<?xml version="1.0" encoding="UTF-8" standalone="no"?>
<!DOCTYPE svg PUBLIC "-//W3C//DTD SVG 1.1//EN"
 "http://www.w3.org/Graphics/SVG/1.1/DTD/svg11.dtd">
<!-- Generated by graphviz version 2.40.1 (20161225.0304)
 -->
<!-- Title: oneDegreeRelationshipsDiagram Pages: 1 -->
<svg width="515pt" height="366pt"
 viewBox="0.00 0.00 515.00 365.70" xmlns="http://www.w3.org/2000/svg" xmlns:xlink="http://www.w3.org/1999/xlink">
<g id="graph0" class="graph" transform="scale(1 1) rotate(0) translate(4 361.7)">
<title>oneDegreeRelationshipsDiagram</title>
<polygon fill="#ffffff" stroke="transparent" points="-4,4 -4,-361.7 511,-361.7 511,4 -4,4"/>
<text text-anchor="middle" x="72.4936" y="-7.3" font-family="Helvetica,sans-Serif" font-size="11.00" fill="#000000">Generated by SchemaSpy</text>
<!-- templatesectionline -->
<g id="node1" class="node">
<title>templatesectionline</title>
<g id="a_node1"><a xlink:href="../../tables/templatesectionline.html" xlink:title="templatesectionline" target="_top">
<polygon fill="#ffffff" stroke="transparent" points="273,-65.7 273,-353.7 499,-353.7 499,-65.7 273,-65.7"/>
<polygon fill="#f5f5f5" stroke="transparent" points="275,-328.7 275,-351.7 497,-351.7 497,-328.7 275,-328.7"/>
<polygon fill="none" stroke="#000000" points="275,-328.7 275,-351.7 497,-351.7 497,-328.7 275,-328.7"/>
<text text-anchor="start" x="280" y="-337.8" font-family="Helvetica,sans-Serif" font-weight="bold" font-size="11.00" fill="#000000">templatesectionline</text>
<text text-anchor="start" x="462.0437" y="-336.8" font-family="Helvetica,sans-Serif" font-size="11.00" fill="#000000">[table]</text>
<polygon fill="none" stroke="#000000" points="275,-306.7 275,-328.7 430,-328.7 430,-306.7 275,-306.7"/>
<image xlink:href="../../images/primaryKeys.png" width="11px" height="12px" preserveAspectRatio="xMinYMin meet" x="280" y="-323.7"/>
<text text-anchor="start" x="295" y="-313.8" font-family="Helvetica,sans-Serif" font-size="11.00" fill="#000000">id</text>
<polygon fill="none" stroke="#000000" points="430,-306.7 430,-328.7 497,-328.7 497,-306.7 430,-306.7"/>
<text text-anchor="start" x="433" y="-314.4" font-family="Helvetica,sans-Serif" font-size="11.00" fill="#000000">char[36]</text>
<polygon fill="none" stroke="#000000" points="275,-284.7 275,-306.7 430,-306.7 430,-284.7 275,-284.7"/>
<text text-anchor="start" x="295" y="-291.8" font-family="Helvetica,sans-Serif" font-size="11.00" fill="#000000">name</text>
<polygon fill="none" stroke="#000000" points="430,-284.7 430,-306.7 497,-306.7 497,-284.7 430,-284.7"/>
<text text-anchor="start" x="432.9365" y="-292.4" font-family="Helvetica,sans-Serif" font-size="11.00" fill="#000000">varchar[255]</text>
<polygon fill="none" stroke="#000000" points="275,-262.7 275,-284.7 430,-284.7 430,-262.7 275,-262.7"/>
<text text-anchor="start" x="295" y="-269.8" font-family="Helvetica,sans-Serif" font-size="11.00" fill="#000000">date_entered</text>
<polygon fill="none" stroke="#000000" points="430,-262.7 430,-284.7 497,-284.7 497,-262.7 430,-262.7"/>
<text text-anchor="start" x="433" y="-270.4" font-family="Helvetica,sans-Serif" font-size="11.00" fill="#000000">datetime[26]</text>
<polygon fill="none" stroke="#000000" points="275,-240.7 275,-262.7 430,-262.7 430,-240.7 275,-240.7"/>
<text text-anchor="start" x="295" y="-247.8" font-family="Helvetica,sans-Serif" font-size="11.00" fill="#000000">date_modified</text>
<polygon fill="none" stroke="#000000" points="430,-240.7 430,-262.7 497,-262.7 497,-240.7 430,-240.7"/>
<text text-anchor="start" x="433" y="-248.4" font-family="Helvetica,sans-Serif" font-size="11.00" fill="#000000">datetime[26]</text>
<polygon fill="none" stroke="#000000" points="275,-218.7 275,-240.7 430,-240.7 430,-218.7 275,-218.7"/>
<image xlink:href="../../images/foreignKeys.png" width="11px" height="12px" preserveAspectRatio="xMinYMin meet" x="280" y="-235.7"/>
<text text-anchor="start" x="295" y="-225.8" font-family="Helvetica,sans-Serif" font-size="11.00" fill="#000000">modified_user_id</text>
<polygon fill="none" stroke="#000000" points="430,-218.7 430,-240.7 497,-240.7 497,-218.7 430,-218.7"/>
<text text-anchor="start" x="433" y="-226.4" font-family="Helvetica,sans-Serif" font-size="11.00" fill="#000000">char[36]</text>
<polygon fill="none" stroke="#000000" points="275,-196.7 275,-218.7 430,-218.7 430,-196.7 275,-196.7"/>
<image xlink:href="../../images/foreignKeys.png" width="11px" height="12px" preserveAspectRatio="xMinYMin meet" x="280" y="-213.7"/>
<text text-anchor="start" x="295" y="-203.8" font-family="Helvetica,sans-Serif" font-size="11.00" fill="#000000">created_by</text>
<polygon fill="none" stroke="#000000" points="430,-196.7 430,-218.7 497,-218.7 497,-196.7 430,-196.7"/>
<text text-anchor="start" x="433" y="-204.4" font-family="Helvetica,sans-Serif" font-size="11.00" fill="#000000">char[36]</text>
<polygon fill="none" stroke="#000000" points="275,-174.7 275,-196.7 430,-196.7 430,-174.7 275,-174.7"/>
<text text-anchor="start" x="295" y="-181.8" font-family="Helvetica,sans-Serif" font-size="11.00" fill="#000000">description</text>
<polygon fill="none" stroke="#000000" points="430,-174.7 430,-196.7 497,-196.7 497,-174.7 430,-174.7"/>
<text text-anchor="start" x="433" y="-182.4" font-family="Helvetica,sans-Serif" font-size="11.00" fill="#000000">text[65535]</text>
<polygon fill="none" stroke="#000000" points="275,-152.7 275,-174.7 430,-174.7 430,-152.7 275,-152.7"/>
<text text-anchor="start" x="295" y="-159.8" font-family="Helvetica,sans-Serif" font-size="11.00" fill="#000000">deleted</text>
<polygon fill="none" stroke="#000000" points="430,-152.7 430,-174.7 497,-174.7 497,-152.7 430,-152.7"/>
<text text-anchor="start" x="433" y="-160.4" font-family="Helvetica,sans-Serif" font-size="11.00" fill="#000000">bit[1]</text>
<polygon fill="none" stroke="#000000" points="275,-130.7 275,-152.7 430,-152.7 430,-130.7 275,-130.7"/>
<text text-anchor="start" x="295" y="-137.8" font-family="Helvetica,sans-Serif" font-size="11.00" fill="#000000">thumbnail</text>
<polygon fill="none" stroke="#000000" points="430,-130.7 430,-152.7 497,-152.7 497,-130.7 430,-130.7"/>
<text text-anchor="start" x="432.9365" y="-138.4" font-family="Helvetica,sans-Serif" font-size="11.00" fill="#000000">varchar[255]</text>
<polygon fill="none" stroke="#000000" points="275,-108.7 275,-130.7 430,-130.7 430,-108.7 275,-108.7"/>
<text text-anchor="start" x="295" y="-115.8" font-family="Helvetica,sans-Serif" font-size="11.00" fill="#000000">grp</text>
<polygon fill="none" stroke="#000000" points="430,-108.7 430,-130.7 497,-130.7 497,-108.7 430,-108.7"/>
<text text-anchor="start" x="432.9365" y="-116.4" font-family="Helvetica,sans-Serif" font-size="11.00" fill="#000000">varchar[255]</text>
<polygon fill="none" stroke="#000000" points="275,-86.7 275,-108.7 430,-108.7 430,-86.7 275,-86.7"/>
<text text-anchor="start" x="295" y="-93.8" font-family="Helvetica,sans-Serif" font-size="11.00" fill="#000000">ord</text>
<polygon fill="none" stroke="#000000" points="430,-86.7 430,-108.7 497,-108.7 497,-86.7 430,-86.7"/>
<text text-anchor="start" x="433" y="-94.4" font-family="Helvetica,sans-Serif" font-size="11.00" fill="#000000">int[10]</text>
<polygon fill="#ffffff" stroke="transparent" points="275,-67.7 275,-86.7 357,-86.7 357,-67.7 275,-67.7"/>
<polygon fill="none" stroke="#000000" points="275,-67.7 275,-86.7 357,-86.7 357,-67.7 275,-67.7"/>
<text text-anchor="start" x="278" y="-73.8" font-family="Helvetica,sans-Serif" font-size="11.00" fill="#000000">&lt; 2</text>
<polygon fill="#ffffff" stroke="transparent" points="357,-67.7 357,-86.7 430,-86.7 430,-67.7 357,-67.7"/>
<polygon fill="none" stroke="#000000" points="357,-67.7 357,-86.7 430,-86.7 430,-67.7 357,-67.7"/>
<text text-anchor="start" x="420.8862" y="-73.8" font-family="Helvetica,sans-Serif" font-size="11.00" fill="#000000"> &#160;</text>
<polygon fill="#ffffff" stroke="transparent" points="430,-67.7 430,-86.7 497,-86.7 497,-67.7 430,-67.7"/>
<polygon fill="none" stroke="#000000" points="430,-67.7 430,-86.7 497,-86.7 497,-67.7 430,-67.7"/>
<text text-anchor="start" x="478.4053" y="-73.8" font-family="Helvetica,sans-Serif" font-size="11.00" fill="#000000">0 &gt;</text>
<polygon fill="none" stroke="#000000" stroke-width="2" points="274,-66.7 274,-352.7 498,-352.7 498,-66.7 274,-66.7"/>
</a>
</g>
</g>
<!-- users -->
<g id="node2" class="node">
<title>users</title>
<g id="a_node2"><a xlink:href="../../tables/users.html" xlink:title="users" target="_top">
<polygon fill="#ffffff" stroke="transparent" points="8,-38.2 8,-253.2 224,-253.2 224,-38.2 8,-38.2"/>
<polygon fill="#f5f5f5" stroke="transparent" points="8,-229.7 8,-252.7 224,-252.7 224,-229.7 8,-229.7"/>
<polygon fill="none" stroke="#000000" points="8,-229.7 8,-252.7 224,-252.7 224,-229.7 8,-229.7"/>
<text text-anchor="start" x="13" y="-238.8" font-family="Helvetica,sans-Serif" font-weight="bold" font-size="11.00" fill="#000000">users</text>
<text text-anchor="start" x="189.0437" y="-237.8" font-family="Helvetica,sans-Serif" font-size="11.00" fill="#000000">[table]</text>
<polygon fill="none" stroke="#000000" points="8,-207.7 8,-229.7 224,-229.7 224,-207.7 8,-207.7"/>
<image xlink:href="../../images/primaryKeys.png" width="11px" height="12px" preserveAspectRatio="xMinYMin meet" x="13" y="-224.7"/>
<text text-anchor="start" x="28" y="-214.8" font-family="Helvetica,sans-Serif" font-size="11.00" fill="#000000">id</text>
<polygon fill="#ffffff" stroke="transparent" points="8,-185.7 8,-207.7 224,-207.7 224,-185.7 8,-185.7"/>
<polygon fill="none" stroke="#000000" points="8,-185.7 8,-207.7 224,-207.7 224,-185.7 8,-185.7"/>
<text text-anchor="start" x="28" y="-192.8" font-family="Helvetica,sans-Serif" font-size="11.00" fill="#000000">user_name</text>
<polygon fill="#ffffff" stroke="transparent" points="8,-163.7 8,-185.7 224,-185.7 224,-163.7 8,-163.7"/>
<polygon fill="none" stroke="#000000" points="8,-163.7 8,-185.7 224,-185.7 224,-163.7 8,-163.7"/>
<text text-anchor="start" x="28" y="-170.8" font-family="Helvetica,sans-Serif" font-size="11.00" fill="#000000">first_name</text>
<polygon fill="#ffffff" stroke="transparent" points="8,-141.7 8,-163.7 224,-163.7 224,-141.7 8,-141.7"/>
<polygon fill="none" stroke="#000000" points="8,-141.7 8,-163.7 224,-163.7 224,-141.7 8,-141.7"/>
<text text-anchor="start" x="28" y="-148.8" font-family="Helvetica,sans-Serif" font-size="11.00" fill="#000000">last_name</text>
<polygon fill="#ffffff" stroke="transparent" points="8,-119.7 8,-141.7 224,-141.7 224,-119.7 8,-119.7"/>
<polygon fill="none" stroke="#000000" points="8,-119.7 8,-141.7 224,-141.7 224,-119.7 8,-119.7"/>
<text text-anchor="start" x="28" y="-126.8" font-family="Helvetica,sans-Serif" font-size="11.00" fill="#000000">status</text>
<polygon fill="#c0c0c0" stroke="transparent" points="8,-97.7 8,-119.7 224,-119.7 224,-97.7 8,-97.7"/>
<polygon fill="none" stroke="#000000" points="8,-97.7 8,-119.7 224,-119.7 224,-97.7 8,-97.7"/>
<image xlink:href="../../images/foreignKeys.png" width="11px" height="12px" preserveAspectRatio="xMinYMin meet" x="13" y="-114.7"/>
<text text-anchor="start" x="28" y="-104.8" font-family="Helvetica,sans-Serif" font-size="11.00" fill="#000000">reports_to_id</text>
<polygon fill="#ffffff" stroke="transparent" points="8,-75.7 8,-97.7 224,-97.7 224,-75.7 8,-75.7"/>
<polygon fill="none" stroke="#000000" points="8,-75.7 8,-97.7 224,-97.7 224,-75.7 8,-75.7"/>
<text text-anchor="start" x="28" y="-82.8" font-family="Helvetica,sans-Serif" font-size="11.00" fill="#000000">is_group</text>
<polygon fill="none" stroke="#000000" points="8,-56.7 8,-75.7 224,-75.7 224,-56.7 8,-56.7"/>
<text text-anchor="start" x="11" y="-62.8" font-family="Helvetica,sans-Serif" font-size="11.00" fill="#000000">...</text>
<polygon fill="#ffffff" stroke="transparent" points="8,-37.7 8,-56.7 104,-56.7 104,-37.7 8,-37.7"/>
<polygon fill="none" stroke="#000000" points="8,-37.7 8,-56.7 104,-56.7 104,-37.7 8,-37.7"/>
<text text-anchor="start" x="11" y="-43.8" font-family="Helvetica,sans-Serif" font-size="11.00" fill="#000000">&lt; 2</text>
<polygon fill="#ffffff" stroke="transparent" points="104,-37.7 104,-56.7 153,-56.7 153,-37.7 104,-37.7"/>
<polygon fill="none" stroke="#000000" points="104,-37.7 104,-56.7 153,-56.7 153,-37.7 104,-37.7"/>
<text text-anchor="start" x="143.8862" y="-43.8" font-family="Helvetica,sans-Serif" font-size="11.00" fill="#000000"> &#160;</text>
<polygon fill="#ffffff" stroke="transparent" points="153,-37.7 153,-56.7 224,-56.7 224,-37.7 153,-37.7"/>
<polygon fill="none" stroke="#000000" points="153,-37.7 153,-56.7 224,-56.7 224,-37.7 153,-37.7"/>
<text text-anchor="start" x="193.1755" y="-43.8" font-family="Helvetica,sans-Serif" font-size="11.00" fill="#000000">214 &gt;</text>
</a>
</g>
</g>
<!-- templatesectionline&#45;&gt;users -->
<g id="edge1" class="edge">
<title>templatesectionline:w&#45;&gt;users:e</title>
<path fill="none" stroke="#000000" d="M260.5097,-209.4188C248.3398,-212.5125 241.3909,-218.7 224,-218.7"/>
<polygon fill="#000000" stroke="#000000" points="267.0557,-208.6424 275.4241,-211.2749 271.0278,-208.1712 275,-207.7 275,-207.7 275,-207.7 271.0278,-208.1712 274.5759,-204.1251 267.0557,-208.6424 267.0557,-208.6424"/>
<ellipse fill="none" stroke="#000000" cx="263.878" cy="-209.0193" rx="3.2" ry="3.2"/>
</g>
<!-- templatesectionline&#45;&gt;users -->
<g id="edge2" class="edge">
<title>templatesectionline:w&#45;&gt;users:e</title>
<path fill="none" stroke="#000000" d="M260.5097,-227.9813C248.3398,-224.8875 241.3909,-218.7 224,-218.7"/>
<polygon fill="#000000" stroke="#000000" points="267.0557,-228.7576 274.5759,-233.2749 271.0278,-229.2288 275,-229.7 275,-229.7 275,-229.7 271.0278,-229.2288 275.4241,-226.1251 267.0557,-228.7576 267.0557,-228.7576"/>
<ellipse fill="none" stroke="#000000" cx="263.878" cy="-228.3807" rx="3.2" ry="3.2"/>
</g>
</g>
</svg>
