<?xml version="1.0" encoding="UTF-8" standalone="no"?>
<!DOCTYPE svg PUBLIC "-//W3C//DTD SVG 1.1//EN"
 "http://www.w3.org/Graphics/SVG/1.1/DTD/svg11.dtd">
<!-- Generated by graphviz version 2.40.1 (20161225.0304)
 -->
<!-- Title: twoDegreesRelationshipsDiagram Pages: 1 -->
<svg width="675pt" height="1241pt"
 viewBox="0.00 0.00 675.00 1240.70" xmlns="http://www.w3.org/2000/svg" xmlns:xlink="http://www.w3.org/1999/xlink">
<g id="graph0" class="graph" transform="scale(1 1) rotate(0) translate(4 1236.7)">
<title>twoDegreesRelationshipsDiagram</title>
<polygon fill="#ffffff" stroke="transparent" points="-4,4 -4,-1236.7 671,-1236.7 671,4 -4,4"/>
<text text-anchor="middle" x="72.4936" y="-7.3" font-family="Helvetica,sans-Serif" font-size="11.00" fill="#000000">Generated by SchemaSpy</text>
<!-- acl_roles_users -->
<g id="node1" class="node">
<title>acl_roles_users</title>
<g id="a_node1"><a xlink:href="../../tables/acl_roles_users.html" xlink:title="acl_roles_users" target="_top">
<polygon fill="#ffffff" stroke="transparent" points="486,-1167.7 486,-1228.7 606,-1228.7 606,-1167.7 486,-1167.7"/>
<polygon fill="#f5f5f5" stroke="transparent" points="486,-1205.2 486,-1228.2 606,-1228.2 606,-1205.2 486,-1205.2"/>
<polygon fill="none" stroke="#000000" points="486,-1205.2 486,-1228.2 606,-1228.2 606,-1205.2 486,-1205.2"/>
<text text-anchor="start" x="490.9951" y="-1214.3" font-family="Helvetica,sans-Serif" font-weight="bold" font-size="11.00" fill="#000000">acl_roles_users</text>
<text text-anchor="start" x="571.5219" y="-1213.3" font-family="Helvetica,sans-Serif" font-size="11.00" fill="#000000">[table]</text>
<polygon fill="none" stroke="#000000" points="486,-1186.2 486,-1205.2 606,-1205.2 606,-1186.2 486,-1186.2"/>
<text text-anchor="start" x="489" y="-1192.3" font-family="Helvetica,sans-Serif" font-size="11.00" fill="#000000">...</text>
<polygon fill="#ffffff" stroke="transparent" points="486,-1167.2 486,-1186.2 544,-1186.2 544,-1167.2 486,-1167.2"/>
<polygon fill="none" stroke="#000000" points="486,-1167.2 486,-1186.2 544,-1186.2 544,-1167.2 486,-1167.2"/>
<text text-anchor="start" x="489" y="-1173.3" font-family="Helvetica,sans-Serif" font-size="11.00" fill="#000000">&lt; 2</text>
<polygon fill="#ffffff" stroke="transparent" points="544,-1167.2 544,-1186.2 575,-1186.2 575,-1167.2 544,-1167.2"/>
<polygon fill="none" stroke="#000000" points="544,-1167.2 544,-1186.2 575,-1186.2 575,-1167.2 544,-1167.2"/>
<text text-anchor="start" x="565.8862" y="-1173.3" font-family="Helvetica,sans-Serif" font-size="11.00" fill="#000000"> &#160;</text>
<polygon fill="#ffffff" stroke="transparent" points="575,-1167.2 575,-1186.2 606,-1186.2 606,-1167.2 575,-1167.2"/>
<polygon fill="none" stroke="#000000" points="575,-1167.2 575,-1186.2 606,-1186.2 606,-1167.2 575,-1167.2"/>
<text text-anchor="start" x="596.8862" y="-1173.3" font-family="Helvetica,sans-Serif" font-size="11.00" fill="#000000"> &#160;</text>
</a>
</g>
</g>
<!-- users -->
<g id="node2" class="node">
<title>users</title>
<g id="a_node2"><a xlink:href="../../tables/users.html" xlink:title="users" target="_top">
<polygon fill="#ffffff" stroke="transparent" points="168,-522.7 168,-737.7 384,-737.7 384,-522.7 168,-522.7"/>
<polygon fill="#f5f5f5" stroke="transparent" points="168,-714.2 168,-737.2 384,-737.2 384,-714.2 168,-714.2"/>
<polygon fill="none" stroke="#000000" points="168,-714.2 168,-737.2 384,-737.2 384,-714.2 168,-714.2"/>
<text text-anchor="start" x="173" y="-723.3" font-family="Helvetica,sans-Serif" font-weight="bold" font-size="11.00" fill="#000000">users</text>
<text text-anchor="start" x="349.0437" y="-722.3" font-family="Helvetica,sans-Serif" font-size="11.00" fill="#000000">[table]</text>
<polygon fill="none" stroke="#000000" points="168,-692.2 168,-714.2 384,-714.2 384,-692.2 168,-692.2"/>
<image xlink:href="../../images/primaryKeys.png" width="11px" height="12px" preserveAspectRatio="xMinYMin meet" x="173" y="-709.2"/>
<text text-anchor="start" x="188" y="-699.3" font-family="Helvetica,sans-Serif" font-size="11.00" fill="#000000">id</text>
<polygon fill="#ffffff" stroke="transparent" points="168,-670.2 168,-692.2 384,-692.2 384,-670.2 168,-670.2"/>
<polygon fill="none" stroke="#000000" points="168,-670.2 168,-692.2 384,-692.2 384,-670.2 168,-670.2"/>
<text text-anchor="start" x="188" y="-677.3" font-family="Helvetica,sans-Serif" font-size="11.00" fill="#000000">user_name</text>
<polygon fill="#ffffff" stroke="transparent" points="168,-648.2 168,-670.2 384,-670.2 384,-648.2 168,-648.2"/>
<polygon fill="none" stroke="#000000" points="168,-648.2 168,-670.2 384,-670.2 384,-648.2 168,-648.2"/>
<text text-anchor="start" x="188" y="-655.3" font-family="Helvetica,sans-Serif" font-size="11.00" fill="#000000">first_name</text>
<polygon fill="#ffffff" stroke="transparent" points="168,-626.2 168,-648.2 384,-648.2 384,-626.2 168,-626.2"/>
<polygon fill="none" stroke="#000000" points="168,-626.2 168,-648.2 384,-648.2 384,-626.2 168,-626.2"/>
<text text-anchor="start" x="188" y="-633.3" font-family="Helvetica,sans-Serif" font-size="11.00" fill="#000000">last_name</text>
<polygon fill="#ffffff" stroke="transparent" points="168,-604.2 168,-626.2 384,-626.2 384,-604.2 168,-604.2"/>
<polygon fill="none" stroke="#000000" points="168,-604.2 168,-626.2 384,-626.2 384,-604.2 168,-604.2"/>
<text text-anchor="start" x="188" y="-611.3" font-family="Helvetica,sans-Serif" font-size="11.00" fill="#000000">status</text>
<polygon fill="#c0c0c0" stroke="transparent" points="168,-582.2 168,-604.2 384,-604.2 384,-582.2 168,-582.2"/>
<polygon fill="none" stroke="#000000" points="168,-582.2 168,-604.2 384,-604.2 384,-582.2 168,-582.2"/>
<image xlink:href="../../images/foreignKeys.png" width="11px" height="12px" preserveAspectRatio="xMinYMin meet" x="173" y="-599.2"/>
<text text-anchor="start" x="188" y="-589.3" font-family="Helvetica,sans-Serif" font-size="11.00" fill="#000000">reports_to_id</text>
<polygon fill="#ffffff" stroke="transparent" points="168,-560.2 168,-582.2 384,-582.2 384,-560.2 168,-560.2"/>
<polygon fill="none" stroke="#000000" points="168,-560.2 168,-582.2 384,-582.2 384,-560.2 168,-560.2"/>
<text text-anchor="start" x="188" y="-567.3" font-family="Helvetica,sans-Serif" font-size="11.00" fill="#000000">is_group</text>
<polygon fill="none" stroke="#000000" points="168,-541.2 168,-560.2 384,-560.2 384,-541.2 168,-541.2"/>
<text text-anchor="start" x="171" y="-547.3" font-family="Helvetica,sans-Serif" font-size="11.00" fill="#000000">...</text>
<polygon fill="#ffffff" stroke="transparent" points="168,-522.2 168,-541.2 264,-541.2 264,-522.2 168,-522.2"/>
<polygon fill="none" stroke="#000000" points="168,-522.2 168,-541.2 264,-541.2 264,-522.2 168,-522.2"/>
<text text-anchor="start" x="171" y="-528.3" font-family="Helvetica,sans-Serif" font-size="11.00" fill="#000000">&lt; 2</text>
<polygon fill="#ffffff" stroke="transparent" points="264,-522.2 264,-541.2 313,-541.2 313,-522.2 264,-522.2"/>
<polygon fill="none" stroke="#000000" points="264,-522.2 264,-541.2 313,-541.2 313,-522.2 264,-522.2"/>
<text text-anchor="start" x="303.8862" y="-528.3" font-family="Helvetica,sans-Serif" font-size="11.00" fill="#000000"> &#160;</text>
<polygon fill="#ffffff" stroke="transparent" points="313,-522.2 313,-541.2 384,-541.2 384,-522.2 313,-522.2"/>
<polygon fill="none" stroke="#000000" points="313,-522.2 313,-541.2 384,-541.2 384,-522.2 313,-522.2"/>
<text text-anchor="start" x="353.1755" y="-528.3" font-family="Helvetica,sans-Serif" font-size="11.00" fill="#000000">214 &gt;</text>
</a>
</g>
</g>
<!-- acl_roles_users&#45;&gt;users -->
<g id="edge1" class="edge">
<title>acl_roles_users:w&#45;&gt;users:e</title>
<path fill="none" stroke="#000000" d="M471.4519,-1194.2593C449.7974,-1191.109 438.9333,-1179.8308 425,-1157.2 398.4454,-1114.0694 434.6497,-703.2 384,-703.2"/>
<polygon fill="#000000" stroke="#000000" points="478.0167,-1194.6837 485.7677,-1198.7925 482.0083,-1194.9419 486,-1195.2 486,-1195.2 486,-1195.2 482.0083,-1194.9419 486.2323,-1191.6075 478.0167,-1194.6837 478.0167,-1194.6837"/>
<ellipse fill="none" stroke="#000000" cx="474.8233" cy="-1194.4772" rx="3.2" ry="3.2"/>
</g>
<!-- campaign_log -->
<g id="node14" class="node">
<title>campaign_log</title>
<g id="a_node14"><a xlink:href="../../tables/campaign_log.html" xlink:title="campaign_log" target="_top">
<polygon fill="#ffffff" stroke="transparent" points="8,-675.7 8,-736.7 119,-736.7 119,-675.7 8,-675.7"/>
<polygon fill="#f5f5f5" stroke="transparent" points="8.5,-713.2 8.5,-736.2 119.5,-736.2 119.5,-713.2 8.5,-713.2"/>
<polygon fill="none" stroke="#000000" points="8.5,-713.2 8.5,-736.2 119.5,-736.2 119.5,-713.2 8.5,-713.2"/>
<text text-anchor="start" x="13.2686" y="-722.3" font-family="Helvetica,sans-Serif" font-weight="bold" font-size="11.00" fill="#000000">campaign_log</text>
<text text-anchor="start" x="85.0219" y="-721.3" font-family="Helvetica,sans-Serif" font-size="11.00" fill="#000000">[table]</text>
<polygon fill="none" stroke="#000000" points="8.5,-694.2 8.5,-713.2 119.5,-713.2 119.5,-694.2 8.5,-694.2"/>
<text text-anchor="start" x="11.5" y="-700.3" font-family="Helvetica,sans-Serif" font-size="11.00" fill="#000000">...</text>
<polygon fill="#ffffff" stroke="transparent" points="8.5,-675.2 8.5,-694.2 57.5,-694.2 57.5,-675.2 8.5,-675.2"/>
<polygon fill="none" stroke="#000000" points="8.5,-675.2 8.5,-694.2 57.5,-694.2 57.5,-675.2 8.5,-675.2"/>
<text text-anchor="start" x="11.5" y="-681.3" font-family="Helvetica,sans-Serif" font-size="11.00" fill="#000000">&lt; 5</text>
<polygon fill="#ffffff" stroke="transparent" points="57.5,-675.2 57.5,-694.2 83.5,-694.2 83.5,-675.2 57.5,-675.2"/>
<polygon fill="none" stroke="#000000" points="57.5,-675.2 57.5,-694.2 83.5,-694.2 83.5,-675.2 57.5,-675.2"/>
<text text-anchor="start" x="74.3862" y="-681.3" font-family="Helvetica,sans-Serif" font-size="11.00" fill="#000000"> &#160;</text>
<polygon fill="#ffffff" stroke="transparent" points="83.5,-675.2 83.5,-694.2 119.5,-694.2 119.5,-675.2 83.5,-675.2"/>
<polygon fill="none" stroke="#000000" points="83.5,-675.2 83.5,-694.2 119.5,-694.2 119.5,-675.2 83.5,-675.2"/>
<text text-anchor="start" x="100.9053" y="-681.3" font-family="Helvetica,sans-Serif" font-size="11.00" fill="#000000">5 &gt;</text>
</a>
</g>
</g>
<!-- users&#45;&gt;campaign_log -->
<g id="edge14" class="edge">
<title>users:w&#45;&gt;campaign_log:e</title>
<path fill="none" stroke="#000000" d="M157.3669,-703.2C143.8553,-703.2 137.0139,-703.2 119.5,-703.2"/>
<polygon fill="#000000" stroke="#000000" points="167.2,-699.2 167.2,-707.2 165.6,-707.2 165.6,-699.2 167.2,-699.2"/>
<polyline fill="none" stroke="#000000" points="168,-703.2 164,-703.2 "/>
<ellipse fill="none" stroke="#000000" cx="160.8" cy="-703.2001" rx="3.2" ry="3.2"/>
</g>
<!-- am_projecttemplates_users_1_c -->
<g id="node3" class="node">
<title>am_projecttemplates_users_1_c</title>
<g id="a_node3"><a xlink:href="../../tables/am_projecttemplates_users_1_c.html" xlink:title="am_projecttemplates_users_1_c" target="_top">
<polygon fill="#ffffff" stroke="transparent" points="445.5,-1085.7 445.5,-1146.7 646.5,-1146.7 646.5,-1085.7 445.5,-1085.7"/>
<polygon fill="#f5f5f5" stroke="transparent" points="446,-1123.2 446,-1146.2 647,-1146.2 647,-1123.2 446,-1123.2"/>
<polygon fill="none" stroke="#000000" points="446,-1123.2 446,-1146.2 647,-1146.2 647,-1123.2 446,-1123.2"/>
<text text-anchor="start" x="450.5382" y="-1132.3" font-family="Helvetica,sans-Serif" font-weight="bold" font-size="11.00" fill="#000000">am_projecttemplates_users_1_c</text>
<text text-anchor="start" x="612.5219" y="-1131.3" font-family="Helvetica,sans-Serif" font-size="11.00" fill="#000000">[table]</text>
<polygon fill="none" stroke="#000000" points="446,-1104.2 446,-1123.2 647,-1123.2 647,-1104.2 446,-1104.2"/>
<text text-anchor="start" x="449" y="-1110.3" font-family="Helvetica,sans-Serif" font-size="11.00" fill="#000000">...</text>
<polygon fill="#ffffff" stroke="transparent" points="446,-1085.2 446,-1104.2 545,-1104.2 545,-1085.2 446,-1085.2"/>
<polygon fill="none" stroke="#000000" points="446,-1085.2 446,-1104.2 545,-1104.2 545,-1085.2 446,-1085.2"/>
<text text-anchor="start" x="449" y="-1091.3" font-family="Helvetica,sans-Serif" font-size="11.00" fill="#000000">&lt; 2</text>
<polygon fill="#ffffff" stroke="transparent" points="545,-1085.2 545,-1104.2 596,-1104.2 596,-1085.2 545,-1085.2"/>
<polygon fill="none" stroke="#000000" points="545,-1085.2 545,-1104.2 596,-1104.2 596,-1085.2 545,-1085.2"/>
<text text-anchor="start" x="586.8862" y="-1091.3" font-family="Helvetica,sans-Serif" font-size="11.00" fill="#000000"> &#160;</text>
<polygon fill="#ffffff" stroke="transparent" points="596,-1085.2 596,-1104.2 647,-1104.2 647,-1085.2 596,-1085.2"/>
<polygon fill="none" stroke="#000000" points="596,-1085.2 596,-1104.2 647,-1104.2 647,-1085.2 596,-1085.2"/>
<text text-anchor="start" x="637.8862" y="-1091.3" font-family="Helvetica,sans-Serif" font-size="11.00" fill="#000000"> &#160;</text>
</a>
</g>
</g>
<!-- am_projecttemplates_users_1_c&#45;&gt;users -->
<g id="edge2" class="edge">
<title>am_projecttemplates_users_1_c:w&#45;&gt;users:e</title>
<path fill="none" stroke="#000000" d="M431.9247,-1109.1421C367.4481,-1066.5607 470.7477,-703.2 384,-703.2"/>
<polygon fill="#000000" stroke="#000000" points="438.3131,-1110.9838 445.0027,-1116.6591 442.1565,-1112.0919 446,-1113.2 446,-1113.2 446,-1113.2 442.1565,-1112.0919 446.9973,-1109.7409 438.3131,-1110.9838 438.3131,-1110.9838"/>
<ellipse fill="none" stroke="#000000" cx="435.2383" cy="-1110.0973" rx="3.2" ry="3.2"/>
</g>
<!-- calls_users -->
<g id="node4" class="node">
<title>calls_users</title>
<g id="a_node4"><a xlink:href="../../tables/calls_users.html" xlink:title="calls_users" target="_top">
<polygon fill="#ffffff" stroke="transparent" points="497,-1003.7 497,-1064.7 595,-1064.7 595,-1003.7 497,-1003.7"/>
<polygon fill="#f5f5f5" stroke="transparent" points="497,-1041.2 497,-1064.2 595,-1064.2 595,-1041.2 497,-1041.2"/>
<polygon fill="none" stroke="#000000" points="497,-1041.2 497,-1064.2 595,-1064.2 595,-1041.2 497,-1041.2"/>
<text text-anchor="start" x="501.9984" y="-1050.3" font-family="Helvetica,sans-Serif" font-weight="bold" font-size="11.00" fill="#000000">calls_users</text>
<text text-anchor="start" x="560.5219" y="-1049.3" font-family="Helvetica,sans-Serif" font-size="11.00" fill="#000000">[table]</text>
<polygon fill="none" stroke="#000000" points="497,-1022.2 497,-1041.2 595,-1041.2 595,-1022.2 497,-1022.2"/>
<text text-anchor="start" x="500" y="-1028.3" font-family="Helvetica,sans-Serif" font-size="11.00" fill="#000000">...</text>
<polygon fill="#ffffff" stroke="transparent" points="497,-1003.2 497,-1022.2 544,-1022.2 544,-1003.2 497,-1003.2"/>
<polygon fill="none" stroke="#000000" points="497,-1003.2 497,-1022.2 544,-1022.2 544,-1003.2 497,-1003.2"/>
<text text-anchor="start" x="500" y="-1009.3" font-family="Helvetica,sans-Serif" font-size="11.00" fill="#000000">&lt; 2</text>
<polygon fill="#ffffff" stroke="transparent" points="544,-1003.2 544,-1022.2 569,-1022.2 569,-1003.2 544,-1003.2"/>
<polygon fill="none" stroke="#000000" points="544,-1003.2 544,-1022.2 569,-1022.2 569,-1003.2 544,-1003.2"/>
<text text-anchor="start" x="559.8862" y="-1009.3" font-family="Helvetica,sans-Serif" font-size="11.00" fill="#000000"> &#160;</text>
<polygon fill="#ffffff" stroke="transparent" points="569,-1003.2 569,-1022.2 595,-1022.2 595,-1003.2 569,-1003.2"/>
<polygon fill="none" stroke="#000000" points="569,-1003.2 569,-1022.2 595,-1022.2 595,-1003.2 569,-1003.2"/>
<text text-anchor="start" x="585.8862" y="-1009.3" font-family="Helvetica,sans-Serif" font-size="11.00" fill="#000000"> &#160;</text>
</a>
</g>
</g>
<!-- calls_users&#45;&gt;users -->
<g id="edge3" class="edge">
<title>calls_users:w&#45;&gt;users:e</title>
<path fill="none" stroke="#000000" d="M482.5569,-1030.6349C456.358,-1028.3288 442.8036,-1018.5212 425,-993.2 387.5649,-939.958 449.0853,-703.2 384,-703.2"/>
<polygon fill="#000000" stroke="#000000" points="489.0061,-1030.8872 496.8592,-1034.7972 493.0031,-1031.0436 497,-1031.2 497,-1031.2 497,-1031.2 493.0031,-1031.0436 497.1408,-1027.6028 489.0061,-1030.8872 489.0061,-1030.8872"/>
<ellipse fill="none" stroke="#000000" cx="485.8086" cy="-1030.7621" rx="3.2" ry="3.2"/>
</g>
<!-- contacts_users -->
<g id="node5" class="node">
<title>contacts_users</title>
<g id="a_node5"><a xlink:href="../../tables/contacts_users.html" xlink:title="contacts_users" target="_top">
<polygon fill="#ffffff" stroke="transparent" points="488,-921.7 488,-982.7 604,-982.7 604,-921.7 488,-921.7"/>
<polygon fill="#f5f5f5" stroke="transparent" points="488,-959.2 488,-982.2 604,-982.2 604,-959.2 488,-959.2"/>
<polygon fill="none" stroke="#000000" points="488,-959.2 488,-982.2 604,-982.2 604,-959.2 488,-959.2"/>
<text text-anchor="start" x="492.5175" y="-968.3" font-family="Helvetica,sans-Serif" font-weight="bold" font-size="11.00" fill="#000000">contacts_users</text>
<text text-anchor="start" x="569.5219" y="-967.3" font-family="Helvetica,sans-Serif" font-size="11.00" fill="#000000">[table]</text>
<polygon fill="none" stroke="#000000" points="488,-940.2 488,-959.2 604,-959.2 604,-940.2 488,-940.2"/>
<text text-anchor="start" x="491" y="-946.3" font-family="Helvetica,sans-Serif" font-size="11.00" fill="#000000">...</text>
<polygon fill="#ffffff" stroke="transparent" points="488,-921.2 488,-940.2 544,-940.2 544,-921.2 488,-921.2"/>
<polygon fill="none" stroke="#000000" points="488,-921.2 488,-940.2 544,-940.2 544,-921.2 488,-921.2"/>
<text text-anchor="start" x="491" y="-927.3" font-family="Helvetica,sans-Serif" font-size="11.00" fill="#000000">&lt; 2</text>
<polygon fill="#ffffff" stroke="transparent" points="544,-921.2 544,-940.2 574,-940.2 574,-921.2 544,-921.2"/>
<polygon fill="none" stroke="#000000" points="544,-921.2 544,-940.2 574,-940.2 574,-921.2 544,-921.2"/>
<text text-anchor="start" x="564.8862" y="-927.3" font-family="Helvetica,sans-Serif" font-size="11.00" fill="#000000"> &#160;</text>
<polygon fill="#ffffff" stroke="transparent" points="574,-921.2 574,-940.2 604,-940.2 604,-921.2 574,-921.2"/>
<polygon fill="none" stroke="#000000" points="574,-921.2 574,-940.2 604,-940.2 604,-921.2 574,-921.2"/>
<text text-anchor="start" x="594.8862" y="-927.3" font-family="Helvetica,sans-Serif" font-size="11.00" fill="#000000"> &#160;</text>
</a>
</g>
</g>
<!-- contacts_users&#45;&gt;users -->
<g id="edge4" class="edge">
<title>contacts_users:w&#45;&gt;users:e</title>
<path fill="none" stroke="#000000" d="M473.4896,-948.2746C451.3219,-945.0987 440.6889,-933.5837 425,-911.2 370.9196,-834.0421 478.2233,-703.2 384,-703.2"/>
<polygon fill="#000000" stroke="#000000" points="480.0162,-948.6908 487.7709,-952.7927 484.0081,-948.9454 488,-949.2 488,-949.2 488,-949.2 484.0081,-948.9454 488.2291,-945.6073 480.0162,-948.6908 480.0162,-948.6908"/>
<ellipse fill="none" stroke="#000000" cx="476.8227" cy="-948.4871" rx="3.2" ry="3.2"/>
</g>
<!-- email_addr_bean_rel -->
<g id="node6" class="node">
<title>email_addr_bean_rel</title>
<g id="a_node6"><a xlink:href="../../tables/email_addr_bean_rel.html" xlink:title="email_addr_bean_rel" target="_top">
<polygon fill="#ffffff" stroke="transparent" points="473,-839.7 473,-900.7 619,-900.7 619,-839.7 473,-839.7"/>
<polygon fill="#f5f5f5" stroke="transparent" points="473,-877.2 473,-900.2 619,-900.2 619,-877.2 473,-877.2"/>
<polygon fill="none" stroke="#000000" points="473,-877.2 473,-900.2 619,-900.2 619,-877.2 473,-877.2"/>
<text text-anchor="start" x="477.849" y="-886.3" font-family="Helvetica,sans-Serif" font-weight="bold" font-size="11.00" fill="#000000">email_addr_bean_rel</text>
<text text-anchor="start" x="584.5219" y="-885.3" font-family="Helvetica,sans-Serif" font-size="11.00" fill="#000000">[table]</text>
<polygon fill="none" stroke="#000000" points="473,-858.2 473,-877.2 619,-877.2 619,-858.2 473,-858.2"/>
<text text-anchor="start" x="476" y="-864.3" font-family="Helvetica,sans-Serif" font-size="11.00" fill="#000000">...</text>
<polygon fill="#ffffff" stroke="transparent" points="473,-839.2 473,-858.2 544,-858.2 544,-839.2 473,-839.2"/>
<polygon fill="none" stroke="#000000" points="473,-839.2 473,-858.2 544,-858.2 544,-839.2 473,-839.2"/>
<text text-anchor="start" x="476" y="-845.3" font-family="Helvetica,sans-Serif" font-size="11.00" fill="#000000">&lt; 6</text>
<polygon fill="#ffffff" stroke="transparent" points="544,-839.2 544,-858.2 581,-858.2 581,-839.2 544,-839.2"/>
<polygon fill="none" stroke="#000000" points="544,-839.2 544,-858.2 581,-858.2 581,-839.2 544,-839.2"/>
<text text-anchor="start" x="571.8862" y="-845.3" font-family="Helvetica,sans-Serif" font-size="11.00" fill="#000000"> &#160;</text>
<polygon fill="#ffffff" stroke="transparent" points="581,-839.2 581,-858.2 619,-858.2 619,-839.2 581,-839.2"/>
<polygon fill="none" stroke="#000000" points="581,-839.2 581,-858.2 619,-858.2 619,-839.2 581,-839.2"/>
<text text-anchor="start" x="609.8862" y="-845.3" font-family="Helvetica,sans-Serif" font-size="11.00" fill="#000000"> &#160;</text>
</a>
</g>
</g>
<!-- email_addr_bean_rel&#45;&gt;users -->
<g id="edge5" class="edge">
<title>email_addr_bean_rel:w&#45;&gt;users:e</title>
<path fill="none" stroke="#000000" d="M458.4101,-865.1934C443.1177,-860.2946 437.2619,-846.8238 425,-829.2 391.3664,-780.8592 442.8901,-703.2 384,-703.2"/>
<polygon fill="#000000" stroke="#000000" points="465.0746,-866.11 472.5095,-870.7664 469.0373,-866.655 473,-867.2 473,-867.2 473,-867.2 469.0373,-866.655 473.4905,-863.6336 465.0746,-866.11 465.0746,-866.11"/>
<ellipse fill="none" stroke="#000000" cx="461.9044" cy="-865.6739" rx="3.2" ry="3.2"/>
</g>
<!-- emails_beans -->
<g id="node7" class="node">
<title>emails_beans</title>
<g id="a_node7"><a xlink:href="../../tables/emails_beans.html" xlink:title="emails_beans" target="_top">
<polygon fill="#ffffff" stroke="transparent" points="491,-757.7 491,-818.7 601,-818.7 601,-757.7 491,-757.7"/>
<polygon fill="#f5f5f5" stroke="transparent" points="491,-795.2 491,-818.2 601,-818.2 601,-795.2 491,-795.2"/>
<polygon fill="none" stroke="#000000" points="491,-795.2 491,-818.2 601,-818.2 601,-795.2 491,-795.2"/>
<text text-anchor="start" x="495.576" y="-804.3" font-family="Helvetica,sans-Serif" font-weight="bold" font-size="11.00" fill="#000000">emails_beans</text>
<text text-anchor="start" x="566.5219" y="-803.3" font-family="Helvetica,sans-Serif" font-size="11.00" fill="#000000">[table]</text>
<polygon fill="none" stroke="#000000" points="491,-776.2 491,-795.2 601,-795.2 601,-776.2 491,-776.2"/>
<text text-anchor="start" x="494" y="-782.3" font-family="Helvetica,sans-Serif" font-size="11.00" fill="#000000">...</text>
<polygon fill="#ffffff" stroke="transparent" points="491,-757.2 491,-776.2 547,-776.2 547,-757.2 491,-757.2"/>
<polygon fill="none" stroke="#000000" points="491,-757.2 491,-776.2 547,-776.2 547,-757.2 491,-757.2"/>
<text text-anchor="start" x="494" y="-763.3" font-family="Helvetica,sans-Serif" font-size="11.00" fill="#000000">&lt; 14</text>
<polygon fill="#ffffff" stroke="transparent" points="547,-757.2 547,-776.2 574,-776.2 574,-757.2 547,-757.2"/>
<polygon fill="none" stroke="#000000" points="547,-757.2 547,-776.2 574,-776.2 574,-757.2 547,-757.2"/>
<text text-anchor="start" x="564.8862" y="-763.3" font-family="Helvetica,sans-Serif" font-size="11.00" fill="#000000"> &#160;</text>
<polygon fill="#ffffff" stroke="transparent" points="574,-757.2 574,-776.2 601,-776.2 601,-757.2 574,-757.2"/>
<polygon fill="none" stroke="#000000" points="574,-757.2 574,-776.2 601,-776.2 601,-757.2 574,-757.2"/>
<text text-anchor="start" x="591.8862" y="-763.3" font-family="Helvetica,sans-Serif" font-size="11.00" fill="#000000"> &#160;</text>
</a>
</g>
</g>
<!-- emails_beans&#45;&gt;users -->
<g id="edge6" class="edge">
<title>emails_beans:w&#45;&gt;users:e</title>
<path fill="none" stroke="#000000" d="M476.4006,-783.8887C454.7359,-779.5306 447.1509,-764.8048 425,-747.2 404.0744,-730.5691 410.7296,-703.2 384,-703.2"/>
<polygon fill="#000000" stroke="#000000" points="483.0321,-784.4843 490.6779,-788.7856 487.016,-784.8421 491,-785.2 491,-785.2 491,-785.2 487.016,-784.8421 491.3221,-781.6144 483.0321,-784.4843 483.0321,-784.4843"/>
<ellipse fill="none" stroke="#000000" cx="479.8449" cy="-784.198" rx="3.2" ry="3.2"/>
</g>
<!-- meetings_users -->
<g id="node8" class="node">
<title>meetings_users</title>
<g id="a_node8"><a xlink:href="../../tables/meetings_users.html" xlink:title="meetings_users" target="_top">
<polygon fill="#ffffff" stroke="transparent" points="486,-675.7 486,-736.7 606,-736.7 606,-675.7 486,-675.7"/>
<polygon fill="#f5f5f5" stroke="transparent" points="486,-713.2 486,-736.2 606,-736.2 606,-713.2 486,-713.2"/>
<polygon fill="none" stroke="#000000" points="486,-713.2 486,-736.2 606,-736.2 606,-713.2 486,-713.2"/>
<text text-anchor="start" x="490.6871" y="-722.3" font-family="Helvetica,sans-Serif" font-weight="bold" font-size="11.00" fill="#000000">meetings_users</text>
<text text-anchor="start" x="571.5219" y="-721.3" font-family="Helvetica,sans-Serif" font-size="11.00" fill="#000000">[table]</text>
<polygon fill="none" stroke="#000000" points="486,-694.2 486,-713.2 606,-713.2 606,-694.2 486,-694.2"/>
<text text-anchor="start" x="489" y="-700.3" font-family="Helvetica,sans-Serif" font-size="11.00" fill="#000000">...</text>
<polygon fill="#ffffff" stroke="transparent" points="486,-675.2 486,-694.2 544,-694.2 544,-675.2 486,-675.2"/>
<polygon fill="none" stroke="#000000" points="486,-675.2 486,-694.2 544,-694.2 544,-675.2 486,-675.2"/>
<text text-anchor="start" x="489" y="-681.3" font-family="Helvetica,sans-Serif" font-size="11.00" fill="#000000">&lt; 2</text>
<polygon fill="#ffffff" stroke="transparent" points="544,-675.2 544,-694.2 575,-694.2 575,-675.2 544,-675.2"/>
<polygon fill="none" stroke="#000000" points="544,-675.2 544,-694.2 575,-694.2 575,-675.2 544,-675.2"/>
<text text-anchor="start" x="565.8862" y="-681.3" font-family="Helvetica,sans-Serif" font-size="11.00" fill="#000000"> &#160;</text>
<polygon fill="#ffffff" stroke="transparent" points="575,-675.2 575,-694.2 606,-694.2 606,-675.2 575,-675.2"/>
<polygon fill="none" stroke="#000000" points="575,-675.2 575,-694.2 606,-694.2 606,-675.2 575,-675.2"/>
<text text-anchor="start" x="596.8862" y="-681.3" font-family="Helvetica,sans-Serif" font-size="11.00" fill="#000000"> &#160;</text>
</a>
</g>
</g>
<!-- meetings_users&#45;&gt;users -->
<g id="edge7" class="edge">
<title>meetings_users:w&#45;&gt;users:e</title>
<path fill="none" stroke="#000000" d="M471.3538,-703.2C437.5435,-703.2 424.0208,-703.2 384,-703.2"/>
<polygon fill="#000000" stroke="#000000" points="478,-703.2001 486,-706.8 482,-703.2 486,-703.2 486,-703.2 486,-703.2 482,-703.2 486,-699.6 478,-703.2001 478,-703.2001"/>
<ellipse fill="none" stroke="#000000" cx="474.8" cy="-703.2001" rx="3.2" ry="3.2"/>
</g>
<!-- project_users_1_c -->
<g id="node9" class="node">
<title>project_users_1_c</title>
<g id="a_node9"><a xlink:href="../../tables/project_users_1_c.html" xlink:title="project_users_1_c" target="_top">
<polygon fill="#ffffff" stroke="transparent" points="480,-593.7 480,-654.7 612,-654.7 612,-593.7 480,-593.7"/>
<polygon fill="#f5f5f5" stroke="transparent" points="480,-631.2 480,-654.2 612,-654.2 612,-631.2 480,-631.2"/>
<polygon fill="none" stroke="#000000" points="480,-631.2 480,-654.2 612,-654.2 612,-631.2 480,-631.2"/>
<text text-anchor="start" x="484.5722" y="-640.3" font-family="Helvetica,sans-Serif" font-weight="bold" font-size="11.00" fill="#000000">project_users_1_c</text>
<text text-anchor="start" x="577.5219" y="-639.3" font-family="Helvetica,sans-Serif" font-size="11.00" fill="#000000">[table]</text>
<polygon fill="none" stroke="#000000" points="480,-612.2 480,-631.2 612,-631.2 612,-612.2 480,-612.2"/>
<text text-anchor="start" x="483" y="-618.3" font-family="Helvetica,sans-Serif" font-size="11.00" fill="#000000">...</text>
<polygon fill="#ffffff" stroke="transparent" points="480,-593.2 480,-612.2 544,-612.2 544,-593.2 480,-593.2"/>
<polygon fill="none" stroke="#000000" points="480,-593.2 480,-612.2 544,-612.2 544,-593.2 480,-593.2"/>
<text text-anchor="start" x="483" y="-599.3" font-family="Helvetica,sans-Serif" font-size="11.00" fill="#000000">&lt; 2</text>
<polygon fill="#ffffff" stroke="transparent" points="544,-593.2 544,-612.2 578,-612.2 578,-593.2 544,-593.2"/>
<polygon fill="none" stroke="#000000" points="544,-593.2 544,-612.2 578,-612.2 578,-593.2 544,-593.2"/>
<text text-anchor="start" x="568.8862" y="-599.3" font-family="Helvetica,sans-Serif" font-size="11.00" fill="#000000"> &#160;</text>
<polygon fill="#ffffff" stroke="transparent" points="578,-593.2 578,-612.2 612,-612.2 612,-593.2 578,-593.2"/>
<polygon fill="none" stroke="#000000" points="578,-593.2 578,-612.2 612,-612.2 612,-593.2 578,-593.2"/>
<text text-anchor="start" x="602.8862" y="-599.3" font-family="Helvetica,sans-Serif" font-size="11.00" fill="#000000"> &#160;</text>
</a>
</g>
</g>
<!-- project_users_1_c&#45;&gt;users -->
<g id="edge8" class="edge">
<title>project_users_1_c:w&#45;&gt;users:e</title>
<path fill="none" stroke="#000000" d="M465.5852,-623.418C447.9037,-629.7485 444.3632,-648.52 425,-665.2 406.176,-681.4155 408.8452,-703.2 384,-703.2"/>
<polygon fill="#000000" stroke="#000000" points="472.0931,-622.4167 480.5475,-624.7581 476.0465,-621.8083 480,-621.2 480,-621.2 480,-621.2 476.0465,-621.8083 479.4525,-617.6419 472.0931,-622.4167 472.0931,-622.4167"/>
<ellipse fill="none" stroke="#000000" cx="468.9303" cy="-622.9034" rx="3.2" ry="3.2"/>
</g>
<!-- prospect_lists_prospects -->
<g id="node10" class="node">
<title>prospect_lists_prospects</title>
<g id="a_node10"><a xlink:href="../../tables/prospect_lists_prospects.html" xlink:title="prospect_lists_prospects" target="_top">
<polygon fill="#ffffff" stroke="transparent" points="464,-511.7 464,-572.7 628,-572.7 628,-511.7 464,-511.7"/>
<polygon fill="#f5f5f5" stroke="transparent" points="464,-549.2 464,-572.2 628,-572.2 628,-549.2 464,-549.2"/>
<polygon fill="none" stroke="#000000" points="464,-549.2 464,-572.2 628,-572.2 628,-549.2 464,-549.2"/>
<text text-anchor="start" x="468.9874" y="-558.3" font-family="Helvetica,sans-Serif" font-weight="bold" font-size="11.00" fill="#000000">prospect_lists_prospects</text>
<text text-anchor="start" x="593.5219" y="-557.3" font-family="Helvetica,sans-Serif" font-size="11.00" fill="#000000">[table]</text>
<polygon fill="none" stroke="#000000" points="464,-530.2 464,-549.2 628,-549.2 628,-530.2 464,-530.2"/>
<text text-anchor="start" x="467" y="-536.3" font-family="Helvetica,sans-Serif" font-size="11.00" fill="#000000">...</text>
<polygon fill="#ffffff" stroke="transparent" points="464,-511.2 464,-530.2 544,-530.2 544,-511.2 464,-511.2"/>
<polygon fill="none" stroke="#000000" points="464,-511.2 464,-530.2 544,-530.2 544,-511.2 464,-511.2"/>
<text text-anchor="start" x="467" y="-517.3" font-family="Helvetica,sans-Serif" font-size="11.00" fill="#000000">&lt; 6</text>
<polygon fill="#ffffff" stroke="transparent" points="544,-511.2 544,-530.2 586,-530.2 586,-511.2 544,-511.2"/>
<polygon fill="none" stroke="#000000" points="544,-511.2 544,-530.2 586,-530.2 586,-511.2 544,-511.2"/>
<text text-anchor="start" x="576.8862" y="-517.3" font-family="Helvetica,sans-Serif" font-size="11.00" fill="#000000"> &#160;</text>
<polygon fill="#ffffff" stroke="transparent" points="586,-511.2 586,-530.2 628,-530.2 628,-511.2 586,-511.2"/>
<polygon fill="none" stroke="#000000" points="586,-511.2 586,-530.2 628,-530.2 628,-511.2 586,-511.2"/>
<text text-anchor="start" x="618.8862" y="-517.3" font-family="Helvetica,sans-Serif" font-size="11.00" fill="#000000"> &#160;</text>
</a>
</g>
</g>
<!-- prospect_lists_prospects&#45;&gt;users -->
<g id="edge9" class="edge">
<title>prospect_lists_prospects:w&#45;&gt;users:e</title>
<path fill="none" stroke="#000000" d="M449.8424,-542.2625C437.3058,-548.9644 435.1691,-565.7334 425,-583.2 396.6427,-631.9069 440.3604,-703.2 384,-703.2"/>
<polygon fill="#000000" stroke="#000000" points="456.1808,-540.8915 464.7612,-542.7186 460.0904,-540.0457 464,-539.2 464,-539.2 464,-539.2 460.0904,-540.0457 463.2388,-535.6814 456.1808,-540.8915 456.1808,-540.8915"/>
<ellipse fill="none" stroke="#000000" cx="453.0532" cy="-541.568" rx="3.2" ry="3.2"/>
</g>
<!-- roles_users -->
<g id="node11" class="node">
<title>roles_users</title>
<g id="a_node11"><a xlink:href="../../tables/roles_users.html" xlink:title="roles_users" target="_top">
<polygon fill="#ffffff" stroke="transparent" points="496.5,-429.7 496.5,-490.7 595.5,-490.7 595.5,-429.7 496.5,-429.7"/>
<polygon fill="#f5f5f5" stroke="transparent" points="497,-467.2 497,-490.2 596,-490.2 596,-467.2 497,-467.2"/>
<polygon fill="none" stroke="#000000" points="497,-467.2 497,-490.2 596,-490.2 596,-467.2 497,-467.2"/>
<text text-anchor="start" x="501.5804" y="-476.3" font-family="Helvetica,sans-Serif" font-weight="bold" font-size="11.00" fill="#000000">roles_users</text>
<text text-anchor="start" x="561.5219" y="-475.3" font-family="Helvetica,sans-Serif" font-size="11.00" fill="#000000">[table]</text>
<polygon fill="none" stroke="#000000" points="497,-448.2 497,-467.2 596,-467.2 596,-448.2 497,-448.2"/>
<text text-anchor="start" x="500" y="-454.3" font-family="Helvetica,sans-Serif" font-size="11.00" fill="#000000">...</text>
<polygon fill="#ffffff" stroke="transparent" points="497,-429.2 497,-448.2 545,-448.2 545,-429.2 497,-429.2"/>
<polygon fill="none" stroke="#000000" points="497,-429.2 497,-448.2 545,-448.2 545,-429.2 497,-429.2"/>
<text text-anchor="start" x="500" y="-435.3" font-family="Helvetica,sans-Serif" font-size="11.00" fill="#000000">&lt; 2</text>
<polygon fill="#ffffff" stroke="transparent" points="545,-429.2 545,-448.2 570,-448.2 570,-429.2 545,-429.2"/>
<polygon fill="none" stroke="#000000" points="545,-429.2 545,-448.2 570,-448.2 570,-429.2 545,-429.2"/>
<text text-anchor="start" x="560.8862" y="-435.3" font-family="Helvetica,sans-Serif" font-size="11.00" fill="#000000"> &#160;</text>
<polygon fill="#ffffff" stroke="transparent" points="570,-429.2 570,-448.2 596,-448.2 596,-429.2 570,-429.2"/>
<polygon fill="none" stroke="#000000" points="570,-429.2 570,-448.2 596,-448.2 596,-429.2 570,-429.2"/>
<text text-anchor="start" x="586.8862" y="-435.3" font-family="Helvetica,sans-Serif" font-size="11.00" fill="#000000"> &#160;</text>
</a>
</g>
</g>
<!-- roles_users&#45;&gt;users -->
<g id="edge10" class="edge">
<title>roles_users:w&#45;&gt;users:e</title>
<path fill="none" stroke="#000000" d="M482.5418,-457.9998C455.6793,-461.2819 443.4956,-474.807 425,-501.2 372.4268,-576.2211 475.6084,-703.2 384,-703.2"/>
<polygon fill="#000000" stroke="#000000" points="489.0122,-457.6419 497.1989,-460.7945 493.0061,-457.421 497,-457.2 497,-457.2 497,-457.2 493.0061,-457.421 496.8011,-453.6055 489.0122,-457.6419 489.0122,-457.6419"/>
<ellipse fill="none" stroke="#000000" cx="485.8171" cy="-457.8187" rx="3.2" ry="3.2"/>
</g>
<!-- securitygroups_users -->
<g id="node12" class="node">
<title>securitygroups_users</title>
<g id="a_node12"><a xlink:href="../../tables/securitygroups_users.html" xlink:title="securitygroups_users" target="_top">
<polygon fill="#ffffff" stroke="transparent" points="472.5,-347.7 472.5,-408.7 619.5,-408.7 619.5,-347.7 472.5,-347.7"/>
<polygon fill="#f5f5f5" stroke="transparent" points="473,-385.2 473,-408.2 620,-408.2 620,-385.2 473,-385.2"/>
<polygon fill="none" stroke="#000000" points="473,-385.2 473,-408.2 620,-408.2 620,-385.2 473,-385.2"/>
<text text-anchor="start" x="477.7412" y="-394.3" font-family="Helvetica,sans-Serif" font-weight="bold" font-size="11.00" fill="#000000">securitygroups_users</text>
<text text-anchor="start" x="585.5219" y="-393.3" font-family="Helvetica,sans-Serif" font-size="11.00" fill="#000000">[table]</text>
<polygon fill="none" stroke="#000000" points="473,-366.2 473,-385.2 620,-385.2 620,-366.2 473,-366.2"/>
<text text-anchor="start" x="476" y="-372.3" font-family="Helvetica,sans-Serif" font-size="11.00" fill="#000000">...</text>
<polygon fill="#ffffff" stroke="transparent" points="473,-347.2 473,-366.2 545,-366.2 545,-347.2 473,-347.2"/>
<polygon fill="none" stroke="#000000" points="473,-347.2 473,-366.2 545,-366.2 545,-347.2 473,-347.2"/>
<text text-anchor="start" x="476" y="-353.3" font-family="Helvetica,sans-Serif" font-size="11.00" fill="#000000">&lt; 2</text>
<polygon fill="#ffffff" stroke="transparent" points="545,-347.2 545,-366.2 582,-366.2 582,-347.2 545,-347.2"/>
<polygon fill="none" stroke="#000000" points="545,-347.2 545,-366.2 582,-366.2 582,-347.2 545,-347.2"/>
<text text-anchor="start" x="572.8862" y="-353.3" font-family="Helvetica,sans-Serif" font-size="11.00" fill="#000000"> &#160;</text>
<polygon fill="#ffffff" stroke="transparent" points="582,-347.2 582,-366.2 620,-366.2 620,-347.2 582,-347.2"/>
<polygon fill="none" stroke="#000000" points="582,-347.2 582,-366.2 620,-366.2 620,-347.2 582,-347.2"/>
<text text-anchor="start" x="610.8862" y="-353.3" font-family="Helvetica,sans-Serif" font-size="11.00" fill="#000000"> &#160;</text>
</a>
</g>
</g>
<!-- securitygroups_users&#45;&gt;users -->
<g id="edge11" class="edge">
<title>securitygroups_users:w&#45;&gt;users:e</title>
<path fill="none" stroke="#000000" d="M458.4871,-377.2234C441.5916,-382.6661 435.8799,-398.61 425,-419.2 395.2093,-475.5785 447.7654,-703.2 384,-703.2"/>
<polygon fill="#000000" stroke="#000000" points="465.0766,-376.3047 473.4971,-378.7655 469.0383,-375.7524 473,-375.2 473,-375.2 473,-375.2 469.0383,-375.7524 472.5029,-371.6345 465.0766,-376.3047 465.0766,-376.3047"/>
<ellipse fill="none" stroke="#000000" cx="461.9073" cy="-376.7466" rx="3.2" ry="3.2"/>
</g>
<!-- templatesectionline -->
<g id="node13" class="node">
<title>templatesectionline</title>
<g id="a_node13"><a xlink:href="../../tables/templatesectionline.html" xlink:title="templatesectionline" target="_top">
<polygon fill="#ffffff" stroke="transparent" points="433,-38.2 433,-326.2 659,-326.2 659,-38.2 433,-38.2"/>
<polygon fill="#f5f5f5" stroke="transparent" points="435,-301.2 435,-324.2 657,-324.2 657,-301.2 435,-301.2"/>
<polygon fill="none" stroke="#000000" points="435,-301.2 435,-324.2 657,-324.2 657,-301.2 435,-301.2"/>
<text text-anchor="start" x="440" y="-310.3" font-family="Helvetica,sans-Serif" font-weight="bold" font-size="11.00" fill="#000000">templatesectionline</text>
<text text-anchor="start" x="622.0437" y="-309.3" font-family="Helvetica,sans-Serif" font-size="11.00" fill="#000000">[table]</text>
<polygon fill="none" stroke="#000000" points="435,-279.2 435,-301.2 590,-301.2 590,-279.2 435,-279.2"/>
<image xlink:href="../../images/primaryKeys.png" width="11px" height="12px" preserveAspectRatio="xMinYMin meet" x="440" y="-296.2"/>
<text text-anchor="start" x="455" y="-286.3" font-family="Helvetica,sans-Serif" font-size="11.00" fill="#000000">id</text>
<polygon fill="none" stroke="#000000" points="590,-279.2 590,-301.2 657,-301.2 657,-279.2 590,-279.2"/>
<text text-anchor="start" x="593" y="-286.9" font-family="Helvetica,sans-Serif" font-size="11.00" fill="#000000">char[36]</text>
<polygon fill="none" stroke="#000000" points="435,-257.2 435,-279.2 590,-279.2 590,-257.2 435,-257.2"/>
<text text-anchor="start" x="455" y="-264.3" font-family="Helvetica,sans-Serif" font-size="11.00" fill="#000000">name</text>
<polygon fill="none" stroke="#000000" points="590,-257.2 590,-279.2 657,-279.2 657,-257.2 590,-257.2"/>
<text text-anchor="start" x="592.9365" y="-264.9" font-family="Helvetica,sans-Serif" font-size="11.00" fill="#000000">varchar[255]</text>
<polygon fill="none" stroke="#000000" points="435,-235.2 435,-257.2 590,-257.2 590,-235.2 435,-235.2"/>
<text text-anchor="start" x="455" y="-242.3" font-family="Helvetica,sans-Serif" font-size="11.00" fill="#000000">date_entered</text>
<polygon fill="none" stroke="#000000" points="590,-235.2 590,-257.2 657,-257.2 657,-235.2 590,-235.2"/>
<text text-anchor="start" x="593" y="-242.9" font-family="Helvetica,sans-Serif" font-size="11.00" fill="#000000">datetime[26]</text>
<polygon fill="none" stroke="#000000" points="435,-213.2 435,-235.2 590,-235.2 590,-213.2 435,-213.2"/>
<text text-anchor="start" x="455" y="-220.3" font-family="Helvetica,sans-Serif" font-size="11.00" fill="#000000">date_modified</text>
<polygon fill="none" stroke="#000000" points="590,-213.2 590,-235.2 657,-235.2 657,-213.2 590,-213.2"/>
<text text-anchor="start" x="593" y="-220.9" font-family="Helvetica,sans-Serif" font-size="11.00" fill="#000000">datetime[26]</text>
<polygon fill="none" stroke="#000000" points="435,-191.2 435,-213.2 590,-213.2 590,-191.2 435,-191.2"/>
<image xlink:href="../../images/foreignKeys.png" width="11px" height="12px" preserveAspectRatio="xMinYMin meet" x="440" y="-208.2"/>
<text text-anchor="start" x="455" y="-198.3" font-family="Helvetica,sans-Serif" font-size="11.00" fill="#000000">modified_user_id</text>
<polygon fill="none" stroke="#000000" points="590,-191.2 590,-213.2 657,-213.2 657,-191.2 590,-191.2"/>
<text text-anchor="start" x="593" y="-198.9" font-family="Helvetica,sans-Serif" font-size="11.00" fill="#000000">char[36]</text>
<polygon fill="none" stroke="#000000" points="435,-169.2 435,-191.2 590,-191.2 590,-169.2 435,-169.2"/>
<image xlink:href="../../images/foreignKeys.png" width="11px" height="12px" preserveAspectRatio="xMinYMin meet" x="440" y="-186.2"/>
<text text-anchor="start" x="455" y="-176.3" font-family="Helvetica,sans-Serif" font-size="11.00" fill="#000000">created_by</text>
<polygon fill="none" stroke="#000000" points="590,-169.2 590,-191.2 657,-191.2 657,-169.2 590,-169.2"/>
<text text-anchor="start" x="593" y="-176.9" font-family="Helvetica,sans-Serif" font-size="11.00" fill="#000000">char[36]</text>
<polygon fill="none" stroke="#000000" points="435,-147.2 435,-169.2 590,-169.2 590,-147.2 435,-147.2"/>
<text text-anchor="start" x="455" y="-154.3" font-family="Helvetica,sans-Serif" font-size="11.00" fill="#000000">description</text>
<polygon fill="none" stroke="#000000" points="590,-147.2 590,-169.2 657,-169.2 657,-147.2 590,-147.2"/>
<text text-anchor="start" x="593" y="-154.9" font-family="Helvetica,sans-Serif" font-size="11.00" fill="#000000">text[65535]</text>
<polygon fill="none" stroke="#000000" points="435,-125.2 435,-147.2 590,-147.2 590,-125.2 435,-125.2"/>
<text text-anchor="start" x="455" y="-132.3" font-family="Helvetica,sans-Serif" font-size="11.00" fill="#000000">deleted</text>
<polygon fill="none" stroke="#000000" points="590,-125.2 590,-147.2 657,-147.2 657,-125.2 590,-125.2"/>
<text text-anchor="start" x="593" y="-132.9" font-family="Helvetica,sans-Serif" font-size="11.00" fill="#000000">bit[1]</text>
<polygon fill="none" stroke="#000000" points="435,-103.2 435,-125.2 590,-125.2 590,-103.2 435,-103.2"/>
<text text-anchor="start" x="455" y="-110.3" font-family="Helvetica,sans-Serif" font-size="11.00" fill="#000000">thumbnail</text>
<polygon fill="none" stroke="#000000" points="590,-103.2 590,-125.2 657,-125.2 657,-103.2 590,-103.2"/>
<text text-anchor="start" x="592.9365" y="-110.9" font-family="Helvetica,sans-Serif" font-size="11.00" fill="#000000">varchar[255]</text>
<polygon fill="none" stroke="#000000" points="435,-81.2 435,-103.2 590,-103.2 590,-81.2 435,-81.2"/>
<text text-anchor="start" x="455" y="-88.3" font-family="Helvetica,sans-Serif" font-size="11.00" fill="#000000">grp</text>
<polygon fill="none" stroke="#000000" points="590,-81.2 590,-103.2 657,-103.2 657,-81.2 590,-81.2"/>
<text text-anchor="start" x="592.9365" y="-88.9" font-family="Helvetica,sans-Serif" font-size="11.00" fill="#000000">varchar[255]</text>
<polygon fill="none" stroke="#000000" points="435,-59.2 435,-81.2 590,-81.2 590,-59.2 435,-59.2"/>
<text text-anchor="start" x="455" y="-66.3" font-family="Helvetica,sans-Serif" font-size="11.00" fill="#000000">ord</text>
<polygon fill="none" stroke="#000000" points="590,-59.2 590,-81.2 657,-81.2 657,-59.2 590,-59.2"/>
<text text-anchor="start" x="593" y="-66.9" font-family="Helvetica,sans-Serif" font-size="11.00" fill="#000000">int[10]</text>
<polygon fill="#ffffff" stroke="transparent" points="435,-40.2 435,-59.2 517,-59.2 517,-40.2 435,-40.2"/>
<polygon fill="none" stroke="#000000" points="435,-40.2 435,-59.2 517,-59.2 517,-40.2 435,-40.2"/>
<text text-anchor="start" x="438" y="-46.3" font-family="Helvetica,sans-Serif" font-size="11.00" fill="#000000">&lt; 2</text>
<polygon fill="#ffffff" stroke="transparent" points="517,-40.2 517,-59.2 590,-59.2 590,-40.2 517,-40.2"/>
<polygon fill="none" stroke="#000000" points="517,-40.2 517,-59.2 590,-59.2 590,-40.2 517,-40.2"/>
<text text-anchor="start" x="580.8862" y="-46.3" font-family="Helvetica,sans-Serif" font-size="11.00" fill="#000000"> &#160;</text>
<polygon fill="#ffffff" stroke="transparent" points="590,-40.2 590,-59.2 657,-59.2 657,-40.2 590,-40.2"/>
<polygon fill="none" stroke="#000000" points="590,-40.2 590,-59.2 657,-59.2 657,-40.2 590,-40.2"/>
<text text-anchor="start" x="638.4053" y="-46.3" font-family="Helvetica,sans-Serif" font-size="11.00" fill="#000000">0 &gt;</text>
<polygon fill="none" stroke="#000000" stroke-width="2" points="434,-39.2 434,-325.2 658,-325.2 658,-39.2 434,-39.2"/>
</a>
</g>
</g>
<!-- templatesectionline&#45;&gt;users -->
<g id="edge12" class="edge">
<title>templatesectionline:w&#45;&gt;users:e</title>
<path fill="none" stroke="#000000" d="M420.7547,-183.4042C334.3532,-227.108 495.4138,-703.2 384,-703.2"/>
<polygon fill="#000000" stroke="#000000" points="427.195,-181.9556 435.79,-183.7122 431.0975,-181.0778 435,-180.2 435,-180.2 435,-180.2 431.0975,-181.0778 434.21,-176.6878 427.195,-181.9556 427.195,-181.9556"/>
<ellipse fill="none" stroke="#000000" cx="424.073" cy="-182.6579" rx="3.2" ry="3.2"/>
</g>
<!-- templatesectionline&#45;&gt;users -->
<g id="edge13" class="edge">
<title>templatesectionline:w&#45;&gt;users:e</title>
<path fill="none" stroke="#000000" d="M420.5774,-205.6668C339.2892,-249.9313 490.4444,-703.2 384,-703.2"/>
<polygon fill="#000000" stroke="#000000" points="427.2216,-204.0698 435.8414,-205.7003 431.1108,-203.1349 435,-202.2 435,-202.2 435,-202.2 431.1108,-203.1349 434.1586,-198.6997 427.2216,-204.0698 427.2216,-204.0698"/>
<ellipse fill="none" stroke="#000000" cx="424.1102" cy="-204.8177" rx="3.2" ry="3.2"/>
</g>
</g>
</svg>
